<?xml version="1.0" encoding="utf-8"?>
<!-- Generator: Adobe Illustrator 15.0.0, SVG Export Plug-In  -->
<!DOCTYPE svg PUBLIC "-//W3C//DTD SVG 1.1//EN" "http://www.w3.org/Graphics/SVG/1.1/DTD/svg11.dtd" [
	<!ENTITY ns_flows "http://ns.adobe.com/Flows/1.0/">
]>
<svg version="1.1"
	 xmlns="http://www.w3.org/2000/svg" xmlns:xlink="http://www.w3.org/1999/xlink" xmlns:a="http://ns.adobe.com/AdobeSVGViewerExtensions/3.0/"
	 x="0px" y="0px" width="300px" height="230px" viewBox="-15.02 -11.85 300 230" enable-background="new -15.02 -11.85 300 230"
	 xml:space="preserve">
<defs>
</defs>
<path fill="#302F2E" d="M0,108.54c0,0.18,0,0.36,0,0.541c0.06,0,0.119,0,0.18,0c1.68,0,3.359,0,5.04,0c0-0.851,0-1.681,0-2.521
	c0-0.9,0-1.8,0-2.7c-1.74,0-3.48,0-5.22,0c0,0.18,0,0.359,0,0.54c0,0.3,0,0.601,0,0.899c0,0.36,0,0.721,0,1.08
	C0,107.1,0,107.82,0,108.54z"/>
<path fill="#302F2E" d="M5.22,116.82c0,0.899,0,1.8,0,2.7c0.84,0,1.68,0,2.52,0c0.9,0,1.8,0,2.7,0c0-0.9,0-1.801,0-2.7
	c0-0.84,0-1.681,0-2.521s0-1.68,0-2.52c0-0.9,0-1.8,0-2.699c-1.74,0-3.479,0-5.22,0c0,0.84,0,1.68,0,2.52c0,0.18,0,0.359,0,0.539
	c0,0.24,0,0.48,0,0.721c0,0.48,0,0.96,0,1.439c0,0.181,0,0.36,0,0.541c0,0.24,0,0.479,0,0.72C5.22,115.98,5.22,116.4,5.22,116.82z"
	/>
<path fill="#D4D5D7" d="M5.22,106.56c0,0.84,0,1.67,0,2.521c1.74,0,3.479,0,5.22,0c0,0.899,0,1.799,0,2.699c0,0.84,0,1.68,0,2.52
	c1.74,0,3.48,0,5.22,0c0,0.181,0,0.36,0,0.541c0,1.56,0,3.119,0,4.68c1.74,0,3.48,0,5.221,0c0.84,0,1.68,0,2.52,0
	c0.42,0,0.84,0,1.26,0s0.841,0,1.261,0c0,1.68,0,3.359,0,5.04c1.739,0,3.479,0,5.22,0s3.479,0,5.22,0c0,0.899,0,1.8,0,2.7
	c0,0.84,0,1.68,0,2.52c1.32,0,2.641,0,3.96,0c1.32,0,2.641,0,3.96,0c2.58,0,5.16,0,7.74,0s5.16,0,7.74,0s5.16,0,7.74,0
	c0-0.84,0-1.68,0-2.52c0-0.42,0-0.84,0-1.26c0-0.24,0-0.48,0-0.721c0-0.12,0-0.24,0-0.359c0-0.061,0-0.121,0-0.19
	c0-0.05,0-0.11,0-0.17c1.319,0,2.64,0,3.96,0c1.319,0,2.64,0,3.96,0c2.58,0,5.159,0,7.739,0c0-1.681,0-3.36,0-5.04
	c-0.84,0-1.68,0-2.52,0c-0.42,0-0.84,0-1.26,0s-0.841,0-1.261,0c-0.06,0-0.119,0-0.18,0c0-0.18,0-0.36,0-0.54c0-3.12,0-6.24,0-9.36
	c0-0.18,0-0.359,0-0.539c1.74,0,3.48,0,5.22,0c0.841,0,1.681,0,2.521,0s1.68,0,2.52,0c0-1.74,0-3.48,0-5.221s0-3.48,0-5.221
	c-5.16,0-10.319,0-15.479,0c0-0.84,0-1.68,0-2.52c0-0.9,0-1.8,0-2.699c-2.58,0-5.16,0-7.74,0c-1.32,0-2.64,0-3.96,0s-2.64,0-3.96,0
	c0-0.19,0-0.36,0-0.541c0-0.18,0-0.359,0-0.539c0-0.181,0-0.36,0-0.541c0-0.18,0-0.359,0-0.539c0-0.24,0-0.48,0-0.721
	c0-0.18,0-0.359,0-0.539c0-0.181,0-0.361,0-0.541c0-0.42,0-0.84,0-1.26c-0.18,0-0.36,0-0.54,0c-3.36,0-6.72,0-10.08,0
	s-6.72,0-10.08,0c-0.84,0-1.68,0-2.52,0c-0.42,0-0.84,0-1.261,0c-0.18,0-0.359,0-0.54,0c-0.239,0-0.479,0-0.72,0
	c-0.06,0-0.12,0-0.18,0c-0.84,0-1.68,0-2.521,0c-0.42,0-0.84,0-1.26,0c-0.479,0-0.96,0-1.439,0c0,0.84,0,1.68,0,2.52
	c0,0.42,0,0.841,0,1.261c0,0.479,0,0.96,0,1.44c0,0.84,0,1.68,0,2.52c0,0.42,0,0.84,0,1.26c0,0.48,0,0.96,0,1.439
	c-1.74,0-3.48,0-5.221,0c0,0.841,0,1.681,0,2.521c0,0.24,0,0.479,0,0.72c0,0.181,0,0.351,0,0.541c0,0.239,0,0.479,0,0.719
	c0,0.121,0,0.24,0,0.361c0,0.06,0,0.119,0,0.18c0,0.05,0,0.119,0,0.18c-2.58,0-5.16,0-7.739,0c-2.58,0-5.16,0-7.74,0
	C5.22,104.76,5.22,105.66,5.22,106.56z"/>
<path fill="#302F2E" d="M5.22,101.34c0,0.84,0,1.68,0,2.52c2.58,0,5.16,0,7.74,0c2.579,0,5.159,0,7.739,0c0-0.061,0-0.13,0-0.18
	c0-0.061,0-0.12,0-0.18c0-0.121,0-0.24,0-0.361c0-0.239,0-0.479,0-0.719c0-0.19,0-0.36,0-0.541c0-0.24,0-0.479,0-0.72
	c0-0.84,0-1.68,0-2.521c-5.16,0-10.319,0-15.479,0c0,0.061,0,0.121,0,0.181s0,0.12,0,0.181c0,0.119,0,0.229,0,0.359
	c0,0.24,0,0.48,0,0.721C5.22,100.5,5.22,100.92,5.22,101.34z"/>
<path fill="#302F2E" d="M10.439,124.02c0,0.18,0,0.359,0,0.54c0.061,0,0.12,0,0.18,0c1.681,0,3.36,0,5.04,0c0-1.681,0-3.36,0-5.04
	c-1.739,0-3.479,0-5.22,0C10.439,121.02,10.439,122.52,10.439,124.02z"/>
<path fill="#FFFFFF" d="M10.439,116.82c0,0.899,0,1.8,0,2.7c1.74,0,3.48,0,5.22,0c0-1.561,0-3.12,0-4.68c0-0.181,0-0.36,0-0.541
	c-1.739,0-3.479,0-5.22,0C10.439,115.139,10.439,115.98,10.439,116.82z"/>
<path fill="#302F2E" d="M15.659,129.23c0,0.19,0,0.37,0,0.55c0.061,0,0.12,0,0.181,0c0.06,0,0.12,0,0.18,0c0.12,0,0.24,0,0.36,0
	c0.239,0,0.479,0,0.72,0c0.42,0,0.84,0,1.26,0c0.84,0,1.68,0,2.521,0c1.68,0,3.359,0,5.04,0c0-0.84,0-1.68,0-2.52
	c0-0.18,0-0.36,0-0.541c0-0.239,0-0.489,0-0.719c0-0.181,0-0.361,0-0.541c0-0.119,0-0.24,0-0.359c0-0.18,0-0.37,0-0.54
	c-0.841,0-1.681,0-2.521,0c-0.42,0-0.84,0-1.26,0s-0.84,0-1.26,0c-1.74,0-3.48,0-5.221,0C15.659,126.12,15.659,127.68,15.659,129.23
	z"/>
<path fill="#FFFFFF" d="M15.659,119.52c0,1.68,0,3.359,0,5.04c1.74,0,3.48,0,5.221,0c0.42,0,0.84,0,1.26,0s0.84,0,1.26,0
	c0.84,0,1.68,0,2.521,0c0-1.681,0-3.36,0-5.04c-0.42,0-0.841,0-1.261,0s-0.84,0-1.26,0c-0.84,0-1.68,0-2.52,0
	C19.14,119.52,17.399,119.52,15.659,119.52z"/>
<path fill="#302F2E" d="M15.659,80.459c0,0.9,0,1.801,0,2.7c1.681,0,3.36,0,5.04,0c0-0.84,0-1.68,0-2.521c0-0.239,0-0.479,0-0.719
	c0-0.19,0-0.36,0-0.541c0-0.24,0-0.479,0-0.72c0-0.12,0-0.239,0-0.36c0-0.069,0-0.119,0-0.18c0-0.06,0-0.119,0-0.18
	c0.181,0,0.36,0,0.54,0c1.561,0,3.12,0,4.681,0c0,0.18,0,0.359,0,0.54c0,0.72,0,1.44,0,2.159c0,0.361,0,0.721,0,1.08
	c0,0.181,0,0.361,0,0.541c0,0.119,0,0.24,0,0.359c0,0.18,0,0.36,0,0.54c-0.9,0-1.801,0-2.7,0c-0.84,0-1.681,0-2.521,0
	c0,0.12,0,0.24,0,0.36c0,0.18,0,0.359,0,0.54c0,0.12,0,0.239,0,0.36c0,0.18,0,0.359,0,0.539c0,0.121,0,0.24,0,0.36
	c0,0.181,0,0.36,0,0.54c0,0.359,0,0.721,0,1.08c0,0.12,0,0.24,0,0.359c0,0.181,0,0.36,0,0.541c0,0.359,0,0.72,0,1.08
	c0,0.119,0,0.239,0,0.359c0,0.18,0,0.359,0,0.54c0,0.36,0,0.72,0,1.08c0,0.12,0,0.239,0,0.36c0,0.18,0,0.359,0,0.539
	c0,0.121,0,0.24,0,0.36c0,0.181,0,0.36,0,0.54c0,0.301,0,0.6,0,0.9c0,0.359,0,0.72,0,1.08c0,0.119,0,0.24,0,0.359
	c0,0.18,0,0.36,0,0.541c0,0.359,0,0.719,0,1.079c0,0.3,0,0.601,0,0.9c0,0.36,0,0.72,0,1.079c1.74,0,3.48,0,5.221,0
	c0-0.479,0-0.959,0-1.439c0-0.42,0-0.84,0-1.26c0-0.84,0-1.68,0-2.52c0-0.48,0-0.961,0-1.44c0-0.42,0-0.841,0-1.261
	c0-0.84,0-1.68,0-2.52c0.479,0,0.96,0,1.439,0c0.42,0,0.84,0,1.26,0c0.841,0,1.681,0,2.521,0c0-0.84,0-1.68,0-2.52
	c0-0.42,0-0.84,0-1.26c0-0.19,0-0.36,0-0.541c0-0.119,0-0.24,0-0.359c0-0.061,0-0.12,0-0.18c0-0.061,0-0.121,0-0.181
	c0.18,0,0.36,0,0.54,0c1.38,0,2.76,0,4.14,0c0.181,0,0.36,0,0.54,0c0,0.841,0,1.681,0,2.521s0,1.68,0,2.52c3.36,0,6.72,0,10.08,0
	s6.72,0,10.08,0c0.18,0,0.36,0,0.54,0c0,0.42,0,0.84,0,1.26c0,0.18,0,0.36,0,0.541c0,0.18,0,0.359,0,0.539c0,0.24,0,0.48,0,0.721
	c0,0.18,0,0.359,0,0.539c0,0.181,0,0.36,0,0.541c0,0.18,0,0.359,0,0.539c0,0.181,0,0.351,0,0.541c1.32,0,2.64,0,3.96,0
	s2.64,0,3.96,0c2.58,0,5.16,0,7.74,0c0,0.899,0,1.799,0,2.699c0,0.84,0,1.68,0,2.52c5.16,0,10.319,0,15.479,0
	c5.221,0,10.44,0,15.66,0c0,1.74,0,3.48,0,5.221c1.74,0,3.48,0,5.22,0c0-3.48,0-6.96,0-10.439c0.181,0,0.36,0,0.54,0
	c1.381,0,2.761,0,4.141,0c0.18,0,0.359,0,0.54,0c0,3.479,0,6.959,0,10.439c5.16,0,10.319,0,15.479,0c0-3.48,0-6.96,0-10.439
	c0.181,0,0.36,0,0.54,0c1.561,0,3.12,0,4.681,0c0,0.18,0,0.359,0,0.539c0,3.121,0,6.24,0,9.36c0,0.181,0,0.36,0,0.54
	c-0.9,0-1.801,0-2.7,0c-0.84,0-1.681,0-2.521,0c0,1.74,0,3.48,0,5.221c5.221,0,10.44,0,15.66,0c0-1.74,0-3.48,0-5.221
	c0.18,0,0.36,0,0.54,0c3.12,0,6.24,0,9.36,0c0.18,0,0.359,0,0.54,0c0-1.74,0-3.48,0-5.221c-5.221,0-10.44,0-15.66,0
	c0-0.18,0-0.359,0-0.539c0-0.37,0-0.721,0-1.08c0-0.42,0-0.84,0-1.26c0-0.36,0-0.721,0-1.08c0-0.42,0-0.84,0-1.26
	c0-0.36,0-0.721,0-1.08c0-0.42,0-0.84,0-1.26c0-0.181,0-0.361,0-0.541s0-0.359,0-0.539c0-0.181,0-0.361,0-0.541
	c0-0.24,0-0.479,0-0.729c0-0.17,0-0.351,0-0.53c-0.061,0-0.12,0-0.181,0c-0.84,0-1.68,0-2.52,0s-1.68,0-2.52,0c0-0.84,0-1.68,0-2.52
	s0-1.68,0-2.521c-2.16,0-4.32,0-6.48,0s-4.32,0-6.48,0c-2.159,0-4.319,0-6.479,0s-4.32,0-6.48,0c0,0.841,0,1.681,0,2.521
	s0,1.68,0,2.52c-0.84,0-1.68,0-2.52,0c-0.42,0-0.84,0-1.26,0c-0.48,0-0.96,0-1.44,0c0-1.26,0-2.52,0-3.779c0-0.121,0-0.24,0-0.36
	c0-0.181,0-0.36,0-0.54c0-0.36,0-0.721,0-1.08c0-0.12,0-0.24,0-0.359c0-0.181,0-0.361,0-0.541c0-0.359,0-0.72,0-1.08
	c0-1.26,0-2.52,0-3.779c0-0.12,0-0.24,0-0.36c0-0.181,0-0.36,0-0.54c0-0.359,0-0.72,0-1.08c0-0.119,0-0.24,0-0.359
	c0-0.181,0-0.36,0-0.541c0-0.359,0-0.719,0-1.08c-1.74,0-3.479,0-5.22,0c0,0.841,0,1.681,0,2.511c0,0.43,0,0.851,0,1.271
	s0,0.84,0,1.26s0,0.84,0,1.26s0,0.84,0,1.26c0,0.18,0,0.359,0,0.54c0,0.24,0,0.479,0,0.72c0,0.48,0,0.961,0,1.44
	c0,0.42,0,0.84,0,1.25c0,0.43,0,0.851,0,1.271c0,0.18,0,0.359,0,0.539c0,0.24,0,0.48,0,0.721c0,0.47,0,0.959,0,1.439
	c0,0.42,0,0.84,0,1.26s0,0.84,0,1.26c0,0.181,0,0.361,0,0.541c0,0.24,0,0.47,0,0.72c0,0.479,0,0.96,0,1.44c-1.74,0-3.48,0-5.22,0
	c0-0.19,0-0.36,0-0.541c0-0.119,0-0.24,0-0.359c0-0.18,0-0.36,0-0.54c0-0.36,0-0.72,0-1.08c0-0.181,0-0.36,0-0.54s0-0.359,0-0.54
	c0-0.36,0-0.72,0-1.09c0-0.17,0-0.351,0-0.53c-0.061,0-0.12,0-0.181,0c-0.84,0-1.68,0-2.52,0s-1.681,0-2.521,0s-1.68,0-2.52,0
	c-0.9,0-1.8,0-2.7,0c-0.84,0-1.68,0-2.52,0c-0.841,0-1.681,0-2.521,0s-1.68,0-2.52,0c-0.42,0-0.841,0-1.261,0
	c-0.479,0-0.96,0-1.439,0c0-0.42,0-0.84,0-1.26s0-0.84,0-1.26c0-0.84,0-1.68,0-2.521c-2.58,0-5.16,0-7.74,0c-0.12,0-0.24,0-0.36,0
	c-0.18,0-0.359,0-0.54,0c-0.359,0-0.72,0-1.079,0c-0.12,0-0.24,0-0.36,0c-0.18,0-0.36,0-0.54,0c-0.36,0-0.72,0-1.08,0
	c-0.12,0-0.24,0-0.36,0c-0.18,0-0.359,0-0.54,0c-0.359,0-0.72,0-1.08,0c-0.119,0-0.239,0-0.359,0c-0.18,0-0.36,0-0.54,0
	c-0.36,0-0.72,0-1.08,0c0-0.18,0-0.36,0-0.54c0-0.119,0-0.24,0-0.359c0-0.18,0-0.36,0-0.541c0-0.359,0-0.719,0-1.08
	c0-0.719,0-1.439,0-2.159c0-0.181,0-0.36,0-0.54c-0.18,0-0.36,0-0.54,0c-0.12,0-0.24,0-0.36,0c-0.239,0-0.479,0-0.72,0
	s-0.479,0-0.72,0c-0.12,0-0.24,0-0.36,0c-0.18,0-0.359,0-0.54,0c-1.08,0-2.16,0-3.24,0c-2.159,0-4.319,0-6.479,0s-4.32,0-6.48,0
	c-2.159,0-4.319,0-6.479,0c0-0.84,0-1.68,0-2.52c0-0.9,0-1.801,0-2.701c-0.12,0-0.24,0-0.36,0c-5.04,0-10.08,0-15.12,0
	c0,0.061,0,0.121,0,0.181s0,0.12,0,0.181c0,0.119,0,0.239,0,0.359c0,0.24,0,0.48,0,0.72c0,0.181,0,0.36,0,0.54
	c0,0.24,0,0.48,0,0.721c0,0.84,0,1.68,0,2.52S15.659,79.62,15.659,80.459z"/>
<path fill="#814221" d="M20.699,80.639c0,0.841,0,1.681,0,2.521c0.84,0,1.681,0,2.521,0c0.899,0,1.8,0,2.7,0c0-0.18,0-0.36,0-0.54
	c0-0.119,0-0.24,0-0.359c0-0.18,0-0.36,0-0.541c0-0.359,0-0.719,0-1.08c0-0.719,0-1.439,0-2.159c0-0.181,0-0.36,0-0.54
	c-1.561,0-3.12,0-4.681,0c-0.18,0-0.359,0-0.54,0c0,0.061,0,0.12,0,0.18c0,0.061,0,0.11,0,0.18c0,0.121,0,0.24,0,0.36
	c0,0.24,0,0.479,0,0.72c0,0.181,0,0.351,0,0.541C20.699,80.16,20.699,80.4,20.699,80.639z"/>
<path fill="#302F2E" d="M25.92,134.459c0,0.18,0,0.36,0,0.541c0.239,0,0.479,0,0.72,0s0.479,0,0.72,0c0.42,0,0.84,0,1.26,0
	c0.841,0,1.681,0,2.521,0c0.42,0,0.84,0,1.26,0s0.84,0,1.26,0c0.9,0,1.801,0,2.7,0c0-0.841,0-1.681,0-2.521c0-0.899,0-1.8,0-2.7
	c-1.74,0-3.479,0-5.22,0s-3.48,0-5.22,0C25.92,131.34,25.92,132.9,25.92,134.459z"/>
<path fill="#FFFFFF" d="M25.92,127.26c0,0.84,0,1.68,0,2.52c1.739,0,3.479,0,5.22,0s3.479,0,5.22,0c0-0.84,0-1.68,0-2.52
	c0-0.9,0-1.801,0-2.7c-1.74,0-3.479,0-5.22,0s-3.48,0-5.22,0c0,0.17,0,0.36,0,0.54c0,0.119,0,0.24,0,0.359c0,0.18,0,0.36,0,0.541
	c0,0.229,0,0.479,0,0.719C25.92,126.9,25.92,127.081,25.92,127.26z"/>
<path fill="#814221" d="M31.14,85.68c0,0.84,0,1.68,0,2.52c0.06,0,0.12,0,0.18,0c0.24,0,0.48,0,0.72,0c0.181,0,0.36,0,0.54,0
	c0.421,0,0.841,0,1.261,0c0.84,0,1.68,0,2.52,0c0-0.84,0-1.68,0-2.52s0-1.68,0-2.521c-0.18,0-0.359,0-0.54,0c-1.38,0-2.76,0-4.14,0
	c-0.18,0-0.36,0-0.54,0c0,0.06,0,0.12,0,0.181c0,0.06,0,0.119,0,0.18c0,0.119,0,0.24,0,0.359c0,0.181,0,0.351,0,0.541
	C31.14,84.84,31.14,85.26,31.14,85.68z"/>
<path fill="#302F2E" d="M36.359,137.52c0,0.9,0,1.8,0,2.699c2.58,0,5.16,0,7.74,0s5.16,0,7.74,0s5.16,0,7.739,0
	c0.12,0,0.24,0,0.36,0c0.18,0,0.36,0,0.54,0c0.36,0,0.72,0,1.08,0c0.12,0,0.24,0,0.36,0c0.18,0,0.359,0,0.54,0
	c0.359,0,0.72,0,1.079,0c0.12,0,0.24,0,0.36,0c0.18,0,0.36,0,0.54,0c0.36,0,0.72,0,1.08,0c0.12,0,0.24,0,0.36,0
	c0.18,0,0.359,0,0.54,0c0.359,0,0.72,0,1.08,0c0-0.06,0-0.119,0-0.18c0-0.06,0-0.119,0-0.18c0-0.13,0-0.24,0-0.359
	c0-0.24,0-0.48,0-0.721c0-0.42,0-0.84,0-1.26c0-0.84,0-1.68,0-2.52c-2.58,0-5.16,0-7.74,0s-5.16,0-7.74,0s-5.16,0-7.74,0
	c-0.12,0-0.24,0-0.359,0c-0.181,0-0.36,0-0.54,0c-0.181,0-0.36,0-0.54,0c-0.181,0-0.36,0-0.54,0c-0.12,0-0.24,0-0.36,0
	c-0.18,0-0.36,0-0.54,0s-0.36,0-0.54,0s-0.359,0-0.54,0c-0.12,0-0.24,0-0.359,0c-0.181,0-0.36,0-0.54,0c-0.181,0-0.36,0-0.54,0
	c-0.181,0-0.36,0-0.54,0c-0.12,0-0.24,0-0.36,0c-0.18,0-0.36,0-0.54,0s-0.36,0-0.54,0s-0.36,0-0.54,0
	C36.359,135.84,36.359,136.68,36.359,137.52z"/>
<path fill="#FFFFFF" d="M36.359,132.48c0,0.84,0,1.68,0,2.521c0.18,0,0.36,0,0.54,0s0.36,0,0.54,0s0.36,0,0.54,0
	c0.12,0,0.24,0,0.36,0c0.18,0,0.359,0,0.54,0c0.18,0,0.359,0,0.54,0c0.18,0,0.359,0,0.54,0c0.119,0,0.239,0,0.359,0
	c0.181,0,0.36,0,0.54,0s0.36,0,0.54,0s0.36,0,0.54,0c0.12,0,0.24,0,0.36,0c0.18,0,0.359,0,0.54,0c0.18,0,0.359,0,0.54,0
	c0.18,0,0.359,0,0.54,0c0.119,0,0.239,0,0.359,0c2.58,0,5.16,0,7.74,0s5.16,0,7.74,0s5.16,0,7.74,0c0-0.841,0-1.681,0-2.521
	c0-0.899,0-1.8,0-2.7c-2.58,0-5.16,0-7.74,0s-5.16,0-7.74,0s-5.16,0-7.74,0c-1.319,0-2.64,0-3.96,0c-1.319,0-2.64,0-3.96,0
	C36.359,130.68,36.359,131.581,36.359,132.48z"/>
<path fill="#302F2E" d="M67.5,132.48c0,0.84,0,1.68,0,2.521c1.68,0,3.359,0,5.039,0c1.681,0,3.36,0,5.04,0c1.681,0,3.36,0,5.04,0
	c1.681,0,3.36,0,5.04,0c0.181,0,0.36,0,0.54,0c0-0.061,0-0.121,0-0.181c0-0.601,0-1.2,0-1.8c0-0.12,0-0.24,0-0.36
	c0-0.18,0-0.36,0-0.54c0-0.359,0-0.72,0-1.08c0-1.26,0-2.52,0-3.779s0-2.53,0-3.78c0-0.12,0-0.24,0-0.36c0-0.18,0-0.359,0-0.539
	c0-0.361,0-0.721,0-1.08c0-0.121,0-0.24,0-0.361c0-0.18,0-0.359,0-0.539c0-0.37,0-0.721,0-1.08c-1.68,0-3.359,0-5.04,0
	c0,1.68,0,3.359,0,5.04c0,0.899,0,1.8,0,2.7c0,0.84,0,1.68,0,2.52c-2.64,0-5.279,0-7.92,0c-2.58,0-5.16,0-7.739,0
	C67.5,130.68,67.5,131.581,67.5,132.48z"/>
<path fill="#FFFFFF" d="M67.5,127.26c0,0.84,0,1.68,0,2.52c2.579,0,5.159,0,7.739,0c2.641,0,5.28,0,7.92,0c0-0.84,0-1.68,0-2.52
	c0-0.9,0-1.801,0-2.7c-2.58,0-5.159,0-7.739,0c-1.32,0-2.641,0-3.96,0c-1.32,0-2.641,0-3.96,0c0,0.06,0,0.12,0,0.17
	c0,0.069,0,0.13,0,0.19c0,0.119,0,0.239,0,0.359c0,0.24,0,0.48,0,0.721C67.5,126.42,67.5,126.84,67.5,127.26z"/>
<path fill="#302F2E" d="M77.939,118.98c0,0.18,0,0.36,0,0.54c0.061,0,0.12,0,0.18,0c0.42,0,0.841,0,1.261,0s0.84,0,1.26,0
	c0.84,0,1.68,0,2.52,0c0-0.84,0-1.68,0-2.52c0-0.9,0-1.801,0-2.701c0.181,0,0.36,0,0.54,0c0.66,0,1.32,0,1.98,0s1.32,0,1.979,0
	c0.181,0,0.36,0,0.54,0c0-1.739,0-3.479,0-5.219c-0.84,0-1.68,0-2.52,0s-1.68,0-2.521,0c-1.739,0-3.479,0-5.22,0
	c0,0.18,0,0.359,0,0.539C77.939,112.74,77.939,115.86,77.939,118.98z"/>
<path fill="#302F2E" d="M88.199,103.86c0,1.74,0,3.48,0,5.221c0.84,0,1.681,0,2.521,0c0.899,0,1.8,0,2.7,0c0.84,0,1.68,0,2.52,0
	c0.9,0,1.8,0,2.7,0c0,0.18,0,0.359,0,0.539c0,0.78,0,1.561,0,2.34c0,0.42,0,0.84,0,1.26s0,0.841,0,1.261c0,0.36,0,0.72,0,1.08
	c0,0.42,0,0.84,0,1.26c0,0.41,0,0.84,0,1.261c0,0.42,0,0.84,0,1.26c0,0.359,0,0.72,0,1.08c0,0.42,0,0.84,0,1.26s0,0.84,0,1.26
	s0,0.84,0,1.26s0,0.84,0,1.26s0,0.84,0,1.26c0,0.841,0,1.681,0,2.511c0,0.19,0,0.37,0,0.55c0.06,0,0.12,0,0.18,0
	c0.061,0,0.12,0,0.181,0c0.119,0,0.239,0,0.359,0c0.24,0,0.48,0,0.72,0c0.421,0,0.841,0,1.261,0c0.84,0,1.68,0,2.52,0
	c0-0.48,0-0.96,0-1.439c0-0.42,0-0.84,0-1.26c0-0.851,0-1.681,0-2.521c0-0.841,0-1.681,0-2.521s0-1.68,0-2.52c0-1.74,0-3.48,0-5.221
	c5.22,0,10.44,0,15.66,0c1.68,0,3.36,0,5.04,0c0,0.9,0,1.801,0,2.701c0,0.84,0,1.68,0,2.52s0,1.68,0,2.52s0,1.68,0,2.521
	c1.74,0,3.479,0,5.22,0c0-1.681,0-3.36,0-5.04c0.181,0,0.36,0,0.54,0c1.561,0,3.12,0,4.681,0c0,0.18,0,0.359,0,0.54
	c0,0.36,0,0.72,0,1.079c0,0.181,0,0.361,0,0.541c0,0.119,0,0.24,0,0.359c0,0.36,0,0.721,0,1.08c0,0.18,0,0.36,0,0.54
	c0,0.12,0,0.24,0,0.36c0,0.18,0,0.359,0,0.54c-0.9,0-1.801,0-2.7,0c-0.84,0-1.681,0-2.521,0c0,1.739,0,3.479,0,5.22
	c0.84,0,1.681,0,2.521,0c0.899,0,1.8,0,2.7,0c0,0.12,0,0.24,0,0.359c0,0.121,0,0.24,0,0.361c0,0.18,0,0.359,0,0.539
	c0,0.12,0,0.24,0,0.36c0,0.181,0,0.36,0,0.54c0,0.12,0,0.24,0,0.359c0,0.181,0,0.36,0,0.541c0,0.359,0,0.72,0,1.08
	c0,0.119,0,0.239,0,0.359c0,0.18,0,0.359,0,0.54c0,0.12,0,0.24,0,0.36c0,0.18,0,0.359,0,0.539c0,0.121,0,0.24,0,0.361
	c0,0.18,0,0.359,0,0.539c0,0.36,0,0.721,0,1.08c0,0.12,0,0.24,0,0.36c0,0.17,0,0.36,0,0.54c0,0.119,0,0.24,0,0.359
	c0,0.18,0,0.36,0,0.541c0,0.119,0,0.229,0,0.359c0,0.18,0,0.359,0,0.54c0,0.36,0,0.72,0,1.08c0,0.12,0,0.239,0,0.36
	c0,0.18,0,0.359,0,0.539c0,0.36,0,0.721,0,1.08c0,0.121,0,0.24,0,0.36c0,0.181,0,0.36,0,0.54c0,0.359,0,0.721,0,1.08
	c0.06,0,0.119,0,0.18,0c0.84,0,1.68,0,2.52,0s1.681,0,2.521,0c0-0.9,0-1.801,0-2.7c0-0.42,0-0.84,0-1.26s0-0.841,0-1.261
	c0-0.489,0-0.959,0-1.439c0-0.42,0-0.84,0-1.26s0-0.84,0-1.26s0-0.84,0-1.26c0-0.48,0-0.961,0-1.44c0-0.421,0-0.841,0-1.261
	s0-0.84,0-1.26s0-0.84,0-1.26s0-0.84,0-1.26s0-0.84,0-1.26c0-0.84,0-1.68,0-2.53c0-0.05,0-0.11,0-0.17c0.18,0,0.359,0,0.54,0
	c1.56,0,3.12,0,4.68,0c1.74,0,3.48,0,5.22,0c1.74,0,3.48,0,5.221,0c0,1.739,0,3.479,0,5.22c3.42,0,6.84,0,10.26,0
	c0,1.74,0,3.48,0,5.221c1.74,0,3.479,0,5.22,0s3.48,0,5.22,0c1.74,0,3.48,0,5.221,0c0,1.739,0,3.479,0,5.219c3.42,0,6.84,0,10.26,0
	c1.74,0,3.479,0,5.22,0s3.48,0,5.221,0c0,1.74,0,3.48,0,5.221c1.739,0,3.479,0,5.22,0c0,0.18,0,0.359,0,0.54c0,0.42,0,0.84,0,1.26
	c0,0.181,0,0.36,0,0.54s0,0.359,0,0.54c0,0.24,0,0.479,0,0.72c0,0.18,0,0.36,0,0.541c0,0.18,0,0.359,0,0.539s0,0.36,0,0.54
	c0,1.5,0,3,0,4.5c0,0.181,0,0.36,0,0.54c-0.9,0-1.8,0-2.7,0c-0.84,0-1.68,0-2.52,0c-0.9,0-1.801,0-2.7,0c-0.84,0-1.681,0-2.521,0
	c0,1.74,0,3.48,0,5.221c0.36,0,0.721,0,1.08,0c0.18,0,0.36,0,0.54,0c0.12,0,0.24,0,0.36,0c0.359,0,0.72,0,1.08,0
	c0.18,0,0.359,0,0.54,0c0.12,0,0.239,0,0.359,0c0.36,0,0.721,0,1.08,0c0.181,0,0.36,0,0.54,0c0.12,0,0.24,0,0.36,0
	c0.359,0,0.72,0,1.08,0c0.18,0,0.359,0,0.54,0c0.12,0,0.239,0,0.359,0c2.58,0,5.16,0,7.74,0c0,1.739,0,3.479,0,5.219
	c0.9,0,1.8,0,2.7,0c0.84,0,1.68,0,2.52,0c0-1.739,0-3.479,0-5.219c1.681,0,3.36,0,5.04,0c0.84,0,1.681,0,2.521,0
	c0.899,0,1.8,0,2.7,0c0.84,0,1.68,0,2.52,0c0.9,0,1.8,0,2.7,0c0.84,0,1.68,0,2.52,0c0.9,0,1.801,0,2.7,0c0-1.74,0-3.48,0-5.221
	c-2.16,0-4.32,0-6.479,0c-2.16,0-4.32,0-6.48,0s-4.32,0-6.479,0c-2.101,0-4.2,0-6.301,0c-0.06,0-0.119,0-0.18,0
	c0-0.18,0-0.359,0-0.54c0-0.42,0-0.84,0-1.26c0-0.181,0-0.36,0-0.54s0-0.359,0-0.54c0-0.239,0-0.479,0-0.72c0-0.18,0-0.36,0-0.54
	c0-0.181,0-0.36,0-0.54s0-0.36,0-0.54c0-1.5,0-3,0-4.5c0-0.181,0-0.36,0-0.54c1.74,0,3.48,0,5.22,0c0-0.359,0-0.721,0-1.08
	c0-0.18,0-0.359,0-0.54c0-0.12,0-0.239,0-0.36c0-0.359,0-0.72,0-1.08c0-0.18,0-0.359,0-0.539c0-0.121,0-0.24,0-0.36
	c0-0.36,0-0.72,0-1.08c0-0.181,0-0.36,0-0.54c0-0.13,0-0.24,0-0.359c0-0.361,0-0.721,0-1.08c0-0.19,0-0.36,0-0.541
	c0-0.119,0-0.24,0-0.359c0-2.58,0-5.16,0-7.74c-1.739,0-3.479,0-5.22,0c0,1.74,0,3.48,0,5.221c0,1.739,0,3.479,0,5.219
	c-1.74,0-3.479,0-5.22,0c0-0.899,0-1.799,0-2.699c0-0.84,0-1.68,0-2.52c-6.9,0-13.8,0-20.7,0c0-0.9,0-1.801,0-2.701
	c0-0.42,0-0.84,0-1.26s0-0.84,0-1.26c-5.22,0-10.44,0-15.66,0c0-0.9,0-1.8,0-2.699c0-0.851,0-1.681,0-2.521
	c-3.479,0-6.96,0-10.439,0c0-1.681,0-3.36,0-5.04c-2.58,0-5.16,0-7.74,0s-5.16,0-7.74,0c0-1.74,0-3.48,0-5.221
	c-5.22,0-10.439,0-15.66,0c0-1.739,0-3.479,0-5.219c-5.16,0-10.319,0-15.479,0c0-1.74,0-3.48,0-5.221c-1.74,0-3.48,0-5.221,0
	c0,1.74,0,3.48,0,5.221c-0.18,0-0.359,0-0.54,0c-0.72,0-1.439,0-2.159,0c-0.66,0-1.32,0-1.98,0c-0.18,0-0.36,0-0.54,0
	c0-1.74,0-3.48,0-5.221C98.64,103.86,93.42,103.86,88.199,103.86z"/>
<path fill="#814221" d="M88.199,98.639c0,1.74,0,3.48,0,5.221c5.221,0,10.44,0,15.66,0c0-1.74,0-3.48,0-5.221
	C98.64,98.639,93.42,98.639,88.199,98.639z"/>
<path fill="#302F2E" d="M103.859,134.459c0,0.18,0,0.36,0,0.541c0.061,0,0.12,0,0.18,0c0.24,0,0.48,0,0.721,0s0.479,0,0.72,0
	s0.48,0,0.72,0c0.12,0,0.24,0,0.36,0c0.18,0,0.36,0,0.54,0c1.08,0,2.16,0,3.24,0c2.16,0,4.319,0,6.479,0s4.32,0,6.48,0
	s4.319,0,6.479,0c0-1.74,0-3.48,0-5.221c-2.16,0-4.319,0-6.479,0s-4.32,0-6.48,0s-4.319,0-6.479,0s-4.32,0-6.48,0
	C103.859,131.34,103.859,132.9,103.859,134.459z"/>
<path fill="#814221" d="M103.859,128.34c0,0.479,0,0.959,0,1.439c2.16,0,4.32,0,6.48,0s4.319,0,6.479,0s4.32,0,6.48,0
	s4.319,0,6.479,0c0-1.74,0-3.48,0-5.22c-1.74,0-3.479,0-5.22,0c0-0.841,0-1.681,0-2.521s0-1.68,0-2.52s0-1.68,0-2.52
	c0-0.9,0-1.801,0-2.701c-1.68,0-3.36,0-5.04,0c0,1.74,0,3.48,0,5.221c-5.22,0-10.44,0-15.66,0c0,0.84,0,1.68,0,2.52s0,1.68,0,2.521
	c0,0.84,0,1.67,0,2.521C103.859,127.5,103.859,127.92,103.859,128.34z"/>
<path fill="#A06141" d="M103.859,114.299c0,1.74,0,3.48,0,5.221c5.22,0,10.44,0,15.66,0c0-1.74,0-3.48,0-5.221
	C114.3,114.299,109.079,114.299,103.859,114.299z"/>
<path fill="#814221" d="M103.859,103.86c0,1.74,0,3.48,0,5.221c0.18,0,0.36,0,0.54,0c0.66,0,1.32,0,1.98,0c0.72,0,1.439,0,2.159,0
	c0.181,0,0.36,0,0.54,0c0-1.74,0-3.48,0-5.221C107.34,103.86,105.6,103.86,103.859,103.86z"/>
<path fill="#814221" d="M103.859,84.42c0,1.26,0,2.52,0,3.779c0.48,0,0.96,0,1.44,0c0.42,0,0.84,0,1.26,0c0.84,0,1.68,0,2.52,0
	c0-0.84,0-1.68,0-2.52s0-1.68,0-2.521c0-0.84,0-1.68,0-2.521c0-0.42,0-0.84,0-1.26c0-0.479,0-0.959,0-1.439c0-0.18,0-0.359,0-0.54
	c0-0.24,0-0.479,0-0.72c0-0.42,0-0.84,0-1.26c0-0.9,0-1.801,0-2.701c-1.739,0-3.479,0-5.22,0c0,0.361,0,0.721,0,1.08
	c0,0.181,0,0.36,0,0.541c0,0.119,0,0.24,0,0.359c0,0.36,0,0.721,0,1.08c0,0.18,0,0.359,0,0.54c0,0.12,0,0.24,0,0.36
	c0,1.26,0,2.52,0,3.779c0,0.36,0,0.721,0,1.08c0,0.18,0,0.36,0,0.541c0,0.119,0,0.239,0,0.359c0,0.359,0,0.72,0,1.08
	c0,0.18,0,0.359,0,0.54C103.859,84.18,103.859,84.299,103.859,84.42z"/>
<path fill="#302F2E" d="M103.859,67.5c0,1.73,0,3.48,0,5.219c1.74,0,3.48,0,5.22,0c0-1.739,0-3.479,0-5.219c-1.56,0-3.119,0-4.68,0
	C104.22,67.5,104.039,67.5,103.859,67.5z"/>
<path fill="#CDB055" d="M109.079,93.42c0,3.479,0,6.959,0,10.439c1.74,0,3.48,0,5.221,0c0-3.48,0-6.96,0-10.439
	c-0.181,0-0.36,0-0.54,0c-1.38,0-2.76,0-4.141,0C109.439,93.42,109.26,93.42,109.079,93.42z"/>
<path fill="#A06141" d="M109.079,80.639c0,0.841,0,1.681,0,2.521c2.16,0,4.32,0,6.48,0s4.32,0,6.479,0c2.16,0,4.32,0,6.48,0
	s4.32,0,6.48,0c0.84,0,1.68,0,2.52,0c0.9,0,1.8,0,2.7,0c0-0.84,0-1.68,0-2.521c0-0.909,0-1.799,0-2.699c0.18,0,0.359,0,0.54,0
	c0.12,0,0.24,0,0.359,0c0.181,0,0.36,0,0.54,0c0.36,0,0.721,0,1.08,0c0.721,0,1.44,0,2.16,0c0.18,0,0.36,0,0.54,0
	c0-1.74,0-3.48,0-5.221c-1.74,0-3.479,0-5.22,0s-3.48,0-5.22,0c-1.74,0-3.48,0-5.221,0s-3.479,0-5.22,0c-0.84,0-1.68,0-2.521,0
	c-0.84,0-1.68,0-2.52,0c-1.74,0-3.48,0-5.22,0c-1.74,0-3.48,0-5.221,0c0,0.9,0,1.801,0,2.701c0,0.42,0,0.84,0,1.26
	c0,0.24,0,0.479,0,0.72c0,0.181,0,0.36,0,0.54c0,0.48,0,0.96,0,1.439C109.079,79.799,109.079,80.219,109.079,80.639z"/>
<path fill="#814221" d="M109.079,67.5c0,1.74,0,3.48,0,5.219c1.74,0,3.48,0,5.221,0c0-1.739,0-3.479,0-5.219
	C112.56,67.5,110.819,67.5,109.079,67.5z"/>
<path fill="#302F2E" d="M109.079,66.42c0,0.36,0,0.72,0,1.08c1.74,0,3.48,0,5.221,0c0-1.74,0-3.48,0-5.22c0-1.74,0-3.48,0-5.22
	c0-1.74,0-3.48,0-5.22c-1.561,0-3.12,0-4.681,0c-0.18,0-0.359,0-0.54,0c0,0.18,0,0.36,0,0.54s0,0.35,0,0.54c0,0.3,0,0.6,0,0.9
	s0,0.6,0,0.9c0,0.18,0,0.36,0,0.54c0,0.18,0,0.36,0,0.54c0,0.12,0,0.24,0,0.36c0,0.18,0,0.36,0,0.54c0,0.36,0,0.72,0,1.08
	c0,0.12,0,0.24,0,0.36c0,0.18,0,0.36,0,0.54c0,0.18,0,0.36,0,0.54c0,0.18,0,0.36,0,0.54c0,0.12,0,0.24,0,0.36c0,0.18,0,0.36,0,0.54
	c0,0.12,0,0.24,0,0.36c0,0.18,0,0.36,0,0.54c0,0.12,0,0.24,0,0.36c0,0.18,0,0.36,0,0.54c0,0.18,0,0.36,0,0.54c0,0.18,0,0.36,0,0.54
	c0,0.12,0,0.24,0,0.36c0,0.18,0,0.36,0,0.54c0,0.36,0,0.72,0,1.08c0,0.12,0,0.24,0,0.36C109.079,66.06,109.079,66.23,109.079,66.42z
	"/>
<path fill="#302F2E" d="M109.079,41.04c0,0.18,0,0.36,0,0.54c0.061,0,0.12,0,0.181,0c0.06,0,0.12,0,0.18,0c0.12,0,0.24,0,0.36,0
	c0.239,0,0.479,0,0.72,0c0.42,0,0.84,0,1.26,0s0.84,0,1.26,0c0.421,0,0.841,0,1.261,0c0-0.85,0-1.68,0-2.52c0-0.18,0-0.36,0-0.54
	c0-0.24,0-0.48,0-0.72c0-0.48,0-0.96,0-1.44c0-0.18,0-0.36,0-0.54c0-0.24,0-0.48,0-0.72c0-0.18,0-0.37,0-0.54c0-0.24,0-0.48,0-0.72
	c0-0.18,0-0.36,0-0.54c0-0.24,0-0.48,0-0.72c0-0.48,0-0.96,0-1.44c0-0.18,0-0.36,0-0.54c0-0.24,0-0.48,0-0.72c0-0.18,0-0.36,0-0.54
	c0-0.24,0-0.48,0-0.72c0-0.18,0-0.36,0-0.54c0-0.24,0-0.48,0-0.72c0-0.48,0-0.96,0-1.44c0-0.19,0-0.36,0-0.54c0-0.24,0-0.48,0-0.72
	c0-0.18,0-0.36,0-0.54c0-0.24,0-0.48,0-0.72c0-0.9,0-1.8,0-2.7c-0.42,0-0.84,0-1.261,0c-0.42,0-0.84,0-1.26,0c-0.899,0-1.8,0-2.7,0
	c0,0.18,0,0.36,0,0.53c0,0.79,0,1.57,0,2.35c0,0.42,0,0.84,0,1.26c0,0.18,0,0.36,0,0.54c0,0.24,0,0.48,0,0.72c0,0.18,0,0.36,0,0.54
	c0,0.24,0,0.48,0,0.72c0,0.42,0,0.84,0,1.26c0,0.42,0,0.84,0,1.26c0,0.18,0,0.35,0,0.54c0,0.24,0,0.48,0,0.72c0,0.18,0,0.36,0,0.54
	c0,0.18,0,0.36,0,0.54c0,0.18,0,0.36,0,0.54c0,0.24,0,0.47,0,0.72c0,0.42,0,0.84,0,1.25c0,0.19,0,0.37,0,0.55c0,0.24,0,0.48,0,0.72
	c0,0.18,0,0.36,0,0.54c0,0.24,0,0.48,0,0.72c0,0.42,0,0.84,0,1.26C109.079,39.36,109.079,40.2,109.079,41.04z"/>
<path fill="#CDB055" d="M114.3,103.86c0,1.74,0,3.48,0,5.221c5.16,0,10.319,0,15.479,0c0-1.74,0-3.48,0-5.221
	C124.619,103.86,119.46,103.86,114.3,103.86z"/>
<path fill="#302F2E" d="M114.3,67.5c0,1.74,0,3.48,0,5.219c1.739,0,3.479,0,5.22,0c0.84,0,1.68,0,2.52,0c0.841,0,1.681,0,2.521,0
	c0-1.739,0-3.479,0-5.219c-1.68,0-3.36,0-5.04,0C117.779,67.5,116.039,67.5,114.3,67.5z"/>
<path fill="#FFFFFF" d="M114.3,62.28c0,1.74,0,3.48,0,5.22c1.739,0,3.479,0,5.22,0c0-1.74,0-3.48,0-5.22
	C117.779,62.28,116.039,62.28,114.3,62.28z"/>
<path fill="#282828" d="M114.3,57.06c0,1.74,0,3.48,0,5.22c1.739,0,3.479,0,5.22,0c0-1.74,0-3.48,0-5.22
	C117.779,57.06,116.039,57.06,114.3,57.06z"/>
<path fill="#814221" d="M114.3,51.84c0,1.74,0,3.48,0,5.22c1.739,0,3.479,0,5.22,0c0-1.74,0-3.48,0-5.22
	C117.779,51.84,116.039,51.84,114.3,51.84z"/>
<path fill="#302F2E" d="M114.3,49.14c0,0.9,0,1.8,0,2.7c1.739,0,3.479,0,5.22,0c0-1.68,0-3.36,0-5.04c0-0.84,0-1.68,0-2.52
	c0-0.42,0-0.84,0-1.26c0-0.48,0-0.96,0-1.44c-0.84,0-1.68,0-2.52,0c-0.421,0-0.841,0-1.261,0c-0.479,0-0.96,0-1.439,0
	c0,0.84,0,1.68,0,2.52c0,0.42,0,0.84,0,1.26c0,0.18,0,0.36,0,0.54c0,0.24,0,0.48,0,0.72c0,0.18,0,0.36,0,0.54c0,0.24,0,0.48,0,0.72
	c0,0.18,0,0.35,0,0.54C114.3,48.66,114.3,48.9,114.3,49.14z"/>
<path fill="#D4D5D7" d="M114.3,39.06c0,0.84,0,1.67,0,2.52c0.479,0,0.96,0,1.439,0c0.42,0,0.84,0,1.261,0c0.84,0,1.68,0,2.52,0
	c0-0.48,0-0.96,0-1.44c0-0.42,0-0.84,0-1.26c0-0.84,0-1.68,0-2.52c0-0.9,0-1.8,0-2.7c0-0.84,0-1.68,0-2.52c0-0.48,0-0.96,0-1.44
	c0-0.42,0-0.84,0-1.26c0-0.84,0-1.68,0-2.52c0-1.74,0-3.48,0-5.22c-0.84,0-1.68,0-2.52,0c-0.421,0-0.841,0-1.261,0
	c-0.18,0-0.359,0-0.54,0c-0.239,0-0.479,0-0.72,0c-0.06,0-0.12,0-0.18,0c0,0.9,0,1.8,0,2.7c0,0.24,0,0.48,0,0.72
	c0,0.18,0,0.36,0,0.54c0,0.24,0,0.48,0,0.72c0,0.18,0,0.35,0,0.54c0,0.48,0,0.96,0,1.44c0,0.24,0,0.48,0,0.72c0,0.18,0,0.36,0,0.54
	c0,0.24,0,0.48,0,0.72c0,0.18,0,0.36,0,0.54c0,0.24,0,0.48,0,0.72c0,0.18,0,0.36,0,0.54c0,0.48,0,0.96,0,1.44c0,0.24,0,0.48,0,0.72
	c0,0.18,0,0.36,0,0.54c0,0.24,0,0.48,0,0.72c0,0.17,0,0.36,0,0.54c0,0.24,0,0.48,0,0.72c0,0.18,0,0.36,0,0.54c0,0.48,0,0.96,0,1.44
	c0,0.24,0,0.48,0,0.72C114.3,38.7,114.3,38.88,114.3,39.06z"/>
<path fill="#302F2E" d="M114.3,18.18c0,0.84,0,1.68,0,2.52c0.06,0,0.12,0,0.18,0c0.24,0,0.48,0,0.72,0c0.181,0,0.36,0,0.54,0
	c0.42,0,0.84,0,1.261,0c0.84,0,1.68,0,2.52,0c0-0.84,0-1.68,0-2.52c0-0.84,0-1.68,0-2.52c-0.18,0-0.36,0-0.54,0
	c-1.38,0-2.76,0-4.14,0c-0.181,0-0.36,0-0.54,0c0,0.24,0,0.48,0,0.72c0,0.18,0,0.35,0,0.54c0,0.18,0,0.36,0,0.54
	C114.3,17.7,114.3,17.94,114.3,18.18z"/>
<path fill="#282828" d="M119.52,62.28c0,1.74,0,3.48,0,5.22c1.68,0,3.36,0,5.04,0c0-1.74,0-3.48,0-5.22
	C122.88,62.28,121.199,62.28,119.52,62.28z"/>
<path fill="#814221" d="M119.52,57.06c0,1.74,0,3.48,0,5.22c1.68,0,3.36,0,5.04,0c0-1.74,0-3.48,0-5.22
	C122.88,57.06,121.199,57.06,119.52,57.06z"/>
<path fill="#A06141" d="M119.52,51.84c0,1.74,0,3.48,0,5.22c1.68,0,3.36,0,5.04,0c0-1.74,0-3.48,0-5.22c0.18,0,0.36,0,0.54,0
	c1.56,0,3.12,0,4.68,0c0,0.18,0,0.36,0,0.54c0,1.56,0,3.12,0,4.68c1.74,0,3.48,0,5.221,0c0-1.74,0-3.48,0-5.22
	c1.739,0,3.479,0,5.22,0c0-1.68,0-3.36,0-5.04c0.18,0,0.359,0,0.54,0c1.56,0,3.12,0,4.68,0c0,0.18,0,0.36,0,0.54
	c0,0.36,0,0.72,0,1.08c0,0.3,0,0.6,0,0.9c0,0.36,0,0.72,0,1.08c0,0.3,0,0.6,0,0.9c0,0.18,0,0.36,0,0.54c-0.9,0-1.8,0-2.7,0
	c-0.84,0-1.68,0-2.52,0c0,0.89,0,1.8,0,2.7c0,0.42,0,0.84,0,1.26s0,0.84,0,1.26c0,0.48,0,0.96,0,1.44c0,0.42,0,0.84,0,1.26
	c0,0.84,0,1.68,0,2.52c1.74,0,3.479,0,5.22,0c0-1.74,0-3.48,0-5.22c0.18,0,0.36,0,0.54,0c1.56,0,3.12,0,4.68,0c0-1.74,0-3.48,0-5.22
	c0.181,0,0.36,0,0.54,0c1.62,0,3.24,0,4.86,0s3.24,0,4.86,0c0-1.68,0-3.36,0-5.04c0.18,0,0.359,0,0.54,0c1.56,0,3.119,0,4.68,0
	c0-0.48,0-0.96,0-1.44c0-0.42,0-0.84,0-1.26c0-0.84,0-1.68,0-2.52c0-1.74,0-3.48,0-5.22c-4.32,0-8.64,0-12.96,0s-8.641,0-12.96,0
	c-1.74,0-3.48,0-5.22,0c0,1.74,0,3.48,0,5.22c-0.181,0-0.36,0-0.54,0c-1.681,0-3.36,0-5.04,0c-1.62,0-3.24,0-4.86,0
	c0,0.84,0,1.68,0,2.52c0,0.42,0,0.84,0,1.26c0,0.24,0,0.48,0,0.72c0,0.12,0,0.24,0,0.36c0,0.06,0,0.12,0,0.18c0,0.06,0,0.11,0,0.18
	c-0.18,0-0.36,0-0.54,0c-1.5,0-3,0-4.5,0C119.52,48.48,119.52,50.16,119.52,51.84z"/>
<path fill="#814221" d="M119.52,44.28c0,0.84,0,1.68,0,2.52c1.5,0,3,0,4.5,0c0.18,0,0.36,0,0.54,0c0-0.07,0-0.12,0-0.18
	c0-0.06,0-0.12,0-0.18c0-0.12,0-0.24,0-0.36c0-0.24,0-0.48,0-0.72c0-0.42,0-0.84,0-1.26c0-0.84,0-1.68,0-2.52c-1.68,0-3.36,0-5.04,0
	c0,0.48,0,0.96,0,1.44C119.52,43.44,119.52,43.86,119.52,44.28z"/>
<path fill="#302F2E" d="M119.52,40.14c0,0.48,0,0.96,0,1.44c1.68,0,3.36,0,5.04,0c0-1.74,0-3.48,0-5.22c-1.68,0-3.36,0-5.04,0
	c0,0.84,0,1.68,0,2.52C119.52,39.3,119.52,39.72,119.52,40.14z"/>
<path fill="#FFFFFF" d="M119.52,33.66c0,0.9,0,1.8,0,2.7c1.68,0,3.36,0,5.04,0c0-0.18,0-0.36,0-0.54s0-0.36,0-0.54
	c0-0.18,0-0.36,0-0.55c0-0.23,0-0.47,0-0.71c0-0.84,0-1.68,0-2.52c0-0.84,0-1.68,0-2.52c0-0.84,0-1.68,0-2.52c0-0.18,0-0.36,0-0.54
	c-1.68,0-3.36,0-5.04,0c0,0.84,0,1.68,0,2.52c0,0.42,0,0.84,0,1.26c0,0.48,0,0.96,0,1.44C119.52,31.98,119.52,32.82,119.52,33.66z"
	/>
<path fill="#302F2E" d="M119.52,20.7c0,1.74,0,3.48,0,5.22c1.68,0,3.36,0,5.04,0c0,0.18,0,0.36,0,0.54c0,0.84,0,1.68,0,2.52
	c0,0.84,0,1.68,0,2.52c0,0.84,0,1.68,0,2.52c0,0.24,0,0.48,0,0.71c0,0.19,0,0.37,0,0.55c0,0.18,0,0.36,0,0.54s0,0.36,0,0.54
	c1.74,0,3.479,0,5.22,0s3.48,0,5.221,0c1.739,0,3.479,0,5.22,0c0-0.9,0-1.8,0-2.7c0-0.84,0-1.68,0-2.52c-1.74,0-3.48,0-5.22,0
	c-1.74,0-3.48,0-5.221,0c0-0.84,0-1.68,0-2.52c0-0.42,0-0.84,0-1.26c0-0.48,0-0.96,0-1.44c0-0.84,0-1.69,0-2.52
	c0-0.18,0-0.36,0-0.54c0-0.24,0-0.48,0-0.72c0-0.48,0-0.96,0-1.44c-0.84,0-1.68,0-2.52,0c-0.42,0-0.84,0-1.26,0
	c-0.421,0-0.841,0-1.261,0s-0.84,0-1.26,0s-0.84,0-1.26,0C121.319,20.7,120.42,20.7,119.52,20.7z"/>
<path fill="#302F2E" d="M124.56,206.64c0,0.35,0,0.72,0,1.08c0.84,0,1.68,0,2.52,0c0.9,0,1.801,0,2.7,0c0-0.841,0-1.69,0-2.53
	c0-0.41,0-0.83,0-1.25c0-0.48,0-0.96,0-1.45c0-0.84,0-1.67,0-2.51c0-0.42,0-0.84,0-1.26c0-0.49,0-0.96,0-1.44c0-1.75,0-3.479,0-5.22
	c-1.74,0-3.479,0-5.22,0c0,0.59,0,1.2,0,1.8c0,0.29,0,0.6,0,0.9c0,0.35,0,0.72,0,1.08c0,0.3,0,0.6,0,0.89c0,0.37,0,0.729,0,1.09
	c0,0.29,0,0.6,0,0.9c0,0.35,0,0.72,0,1.08c0,0.3,0,0.6,0,0.89c0,0.37,0,0.729,0,1.09c0,0.29,0,0.6,0,0.9c0,0.35,0,0.72,0,1.08
	c0,0.3,0,0.6,0,0.89c0,0.37,0,0.729,0,1.08C124.56,206.03,124.56,206.34,124.56,206.64z"/>
<path fill="#814221" d="M124.56,67.5c0,1.74,0,3.48,0,5.219c1.74,0,3.479,0,5.22,0s3.48,0,5.221,0c1.739,0,3.479,0,5.22,0
	s3.479,0,5.22,0c0-1.739,0-3.489,0-5.219c-0.84,0-1.68,0-2.52,0c-0.42,0-0.841,0-1.261,0c-0.239,0-0.479,0-0.72,0s-0.479,0-0.72,0
	c0-0.18,0-0.36,0-0.54c0-1.56,0-3.12,0-4.68c0-0.84,0-1.68,0-2.52c0-0.42,0-0.84,0-1.26c0-0.48,0-0.96,0-1.44c0-0.42,0-0.84,0-1.26
	s0-0.84,0-1.26c0-0.9,0-1.81,0-2.7c-1.74,0-3.48,0-5.22,0c0,1.74,0,3.48,0,5.22c-1.74,0-3.48,0-5.221,0c0,1.74,0,3.48,0,5.22
	c0,1.74,0,3.48,0,5.22c-0.899,0-1.8,0-2.7,0c-0.42,0-0.84,0-1.26,0S124.979,67.5,124.56,67.5z"/>
<path fill="#302F2E" d="M124.56,62.28c0,1.74,0,3.48,0,5.22c0.42,0,0.84,0,1.26,0s0.84,0,1.26,0c0.9,0,1.801,0,2.7,0
	c0-1.74,0-3.48,0-5.22C128.039,62.28,126.3,62.28,124.56,62.28z"/>
<path fill="#A06141" d="M124.56,57.06c0,1.74,0,3.48,0,5.22c1.74,0,3.479,0,5.22,0c0-1.74,0-3.48,0-5.22
	C128.039,57.06,126.3,57.06,124.56,57.06z"/>
<path fill="#814221" d="M124.56,51.84c0,1.74,0,3.48,0,5.22c1.74,0,3.479,0,5.22,0c0-1.56,0-3.12,0-4.68c0-0.18,0-0.36,0-0.54
	c-1.56,0-3.12,0-4.68,0C124.92,51.84,124.739,51.84,124.56,51.84z"/>
<path fill="#814221" d="M124.56,36.36c0,1.74,0,3.48,0,5.22c1.62,0,3.24,0,4.86,0c1.68,0,3.359,0,5.04,0c0.18,0,0.359,0,0.54,0
	c0-1.74,0-3.48,0-5.22c-1.74,0-3.48,0-5.221,0S126.3,36.36,124.56,36.36z"/>
<path fill="#302F2E" d="M129.779,207.72c0,3.47,0,6.96,0,10.43c1.74,0,3.48,0,5.221,0c1.739,0,3.479,0,5.22,0s3.479,0,5.22,0
	s3.48,0,5.22,0c0-1.73,0-3.47,0-5.21c-1.739,0-3.479,0-5.22,0c0-1.75,0-3.48,0-5.22C140.22,207.72,135,207.72,129.779,207.72z"/>
<path fill="#814221" d="M129.779,205.19c0,0.84,0,1.689,0,2.53c5.221,0,10.44,0,15.66,0c0,1.739,0,3.47,0,5.22c1.74,0,3.48,0,5.22,0
	c0-0.84,0-1.68,0-2.521c0-0.189,0-0.359,0-0.54c0-0.239,0-0.479,0-0.729c0-0.17,0-0.35,0-0.54c0-0.23,0-0.47,0-0.71
	c0-0.18,0-0.37,0-0.54c0-0.25,0-0.48,0-0.72c0-0.181,0-0.36,0-0.54c0-0.24,0-0.49,0-0.721c0-0.189,0-0.359,0-0.539
	c0-0.24,0-0.48,0-0.73c0-0.47,0-0.96,0-1.43c0-0.19,0-0.36,0-0.54c0-0.24,0-0.49,0-0.721c0-0.189,0-0.359,0-0.54
	c0-0.239,0-0.479,0-0.729c0-0.17,0-0.35,0-0.54c0-0.23,0-0.47,0-0.71c0-0.48,0-0.96,0-1.44c0-0.18,0-0.359,0-0.54
	c0-0.239,0-0.479,0-0.729c0-0.17,0-0.35,0-0.54c0-0.23,0-0.47,0-0.71c0-0.18,0-0.37,0-0.54c0-0.25,0-0.48,0-0.72
	c0-0.49,0-0.96,0-1.45c0-0.05,0-0.12,0-0.17c-1.739,0-3.479,0-5.22,0c0,3.47,0,6.96,0,10.43c-1.74,0-3.479,0-5.22,0s-3.48,0-5.22,0
	c0-0.17,0-0.35,0-0.53c0-0.31,0-0.6,0-0.899c0-0.37,0-0.72,0-1.08c0-0.18,0-0.37,0-0.54c0-0.18,0-0.37,0-0.54c0-0.18,0-0.37,0-0.54
	c0-0.18,0-0.37,0-0.54c0-0.18,0-0.36,0-0.54c-1.74,0-3.48,0-5.221,0c0,0.48,0,0.95,0,1.44c0,0.42,0,0.84,0,1.26
	c0,0.84,0,1.67,0,2.51c0,0.49,0,0.97,0,1.45C129.779,204.36,129.779,204.78,129.779,205.19z"/>
<path fill="#A06141" d="M129.779,192.06c0,1.74,0,3.47,0,5.22c1.74,0,3.48,0,5.221,0c0,0.18,0,0.36,0,0.54c0,0.17,0,0.36,0,0.54
	c0,0.17,0,0.36,0,0.54c0,0.17,0,0.36,0,0.54c0,0.17,0,0.36,0,0.54c0,0.36,0,0.71,0,1.08c0,0.3,0,0.59,0,0.899c0,0.181,0,0.36,0,0.53
	c1.739,0,3.479,0,5.22,0s3.479,0,5.22,0c0-3.47,0-6.96,0-10.43c0-0.37,0-0.72,0-1.08c0-0.18,0-0.37,0-0.54c0-0.25,0-0.48,0-0.72
	c0-0.42,0-0.841,0-1.261c0-0.18,0-0.359,0-0.54c0-0.239,0-0.479,0-0.729c0-0.17,0-0.35,0-0.54c0-0.17,0-0.35,0-0.54
	c0-0.17,0-0.35,0-0.54c0-0.229,0-0.47,0-0.71c0-0.84,0-1.68,0-2.52c0-0.19,0-0.36,0-0.54c-0.06,0-0.12,0-0.18,0
	c-0.061,0-0.12,0-0.181,0c-0.119,0-0.239,0-0.359,0c-0.24,0-0.48,0-0.72,0c-0.421,0-0.841,0-1.261,0c-0.84,0-1.68,0-2.52,0
	c-0.42,0-0.84,0-1.26,0c-0.421,0-0.841,0-1.261,0c-0.18,0-0.359,0-0.54,0c-0.239,0-0.479,0-0.72,0c-0.479,0-0.96,0-1.439,0
	c0,0.06,0,0.119,0,0.18c0,0.24,0,0.479,0,0.71c0,0.189,0,0.37,0,0.54c0,0.42,0,0.84,0,1.26c0,0.43,0,0.851,0,1.271s0,0.84,0,1.26
	s0,0.84,0,1.26c0,0.41,0,0.83,0,1.25c0,0.85,0,1.69,0,2.53c-0.9,0-1.801,0-2.7,0C131.46,192.06,130.619,192.06,129.779,192.06z"/>
<path fill="#302F2E" d="M129.779,190.61c0,0.49,0,0.96,0,1.45c0.84,0,1.681,0,2.521,0c0.899,0,1.8,0,2.7,0c0-0.84,0-1.681,0-2.53
	c0-0.42,0-0.84,0-1.25c0-0.42,0-0.84,0-1.26s0-0.84,0-1.26s0-0.841,0-1.271c0-0.42,0-0.84,0-1.26c0-0.17,0-0.351,0-0.54
	c0-0.23,0-0.47,0-0.71c0-0.061,0-0.12,0-0.18c-0.421,0-0.841,0-1.261,0s-0.84,0-1.26,0c-0.18,0-0.36,0-0.54,0
	c-0.24,0-0.479,0-0.72,0c-0.48,0-0.96,0-1.44,0c0,0.84,0,1.68,0,2.52c0,0.17,0,0.36,0,0.54c0,0.24,0,0.48,0,0.71
	c0,0.19,0,0.37,0,0.54c0,0.25,0,0.49,0,0.73c0,0.84,0,1.68,0,2.52C129.779,189.78,129.779,190.19,129.779,190.61z"/>
<path fill="#814221" d="M129.779,119.52c0,1.68,0,3.359,0,5.04c0.84,0,1.681,0,2.521,0c0.899,0,1.8,0,2.7,0c0-0.181,0-0.36,0-0.54
	c0-0.12,0-0.24,0-0.36c0-0.18,0-0.36,0-0.54c0-0.359,0-0.72,0-1.08c0-0.119,0-0.24,0-0.359c0-0.18,0-0.36,0-0.541
	c0-0.359,0-0.719,0-1.079c0-0.181,0-0.36,0-0.54c-1.561,0-3.12,0-4.681,0C130.14,119.52,129.96,119.52,129.779,119.52z"/>
<path fill="#814221" d="M129.779,109.081c0,1.739,0,3.479,0,5.219c5.221,0,10.44,0,15.66,0c0-1.739,0-3.479,0-5.219
	C140.22,109.081,135,109.081,129.779,109.081z"/>
<path fill="#CDB055" d="M129.779,93.42c0,3.479,0,6.959,0,10.439c0.84,0,1.681,0,2.521,0c0.899,0,1.8,0,2.7,0c0-0.18,0-0.359,0-0.54
	c0-3.12,0-6.239,0-9.36c0-0.18,0-0.359,0-0.539c-1.561,0-3.12,0-4.681,0C130.14,93.42,129.96,93.42,129.779,93.42z"/>
<path fill="#523822" d="M129.779,28.62c0,0.84,0,1.68,0,2.52c1.74,0,3.48,0,5.221,0c1.739,0,3.479,0,5.22,0c0-1.68,0-3.36,0-5.04
	c0-0.06,0-0.12,0-0.18c2.16,0,4.319,0,6.479,0s4.32,0,6.48,0s4.32,0,6.479,0c2.16,0,4.32,0,6.48,0c0,1.74,0,3.48,0,5.22
	c1.74,0,3.479,0,5.22,0c0-0.91,0-1.8,0-2.7c0-0.84,0-1.68,0-2.52c1.74,0,3.48,0,5.22,0c0-0.84,0-1.69,0-2.52c0-0.42,0-0.84,0-1.26
	c0-0.24,0-0.48,0-0.72c0-0.12,0-0.24,0-0.36c0-0.06,0-0.12,0-0.18s0-0.12,0-0.18c0.9,0,1.801,0,2.7,0c0.42,0,0.84,0,1.26,0
	c0.421,0,0.841,0,1.261,0c0-0.84,0-1.68,0-2.52c0-0.24,0-0.48,0-0.72c0-0.18,0-0.36,0-0.54c0-0.19,0-0.36,0-0.54
	c0-0.24,0-0.48,0-0.72c0.18,0,0.359,0,0.54,0c1.38,0,2.76,0,4.14,0c0.18,0,0.36,0,0.54,0c0,0.84,0,1.68,0,2.52c0,0.84,0,1.68,0,2.52
	c1.68,0,3.36,0,5.04,0c0,0.18,0,0.36,0,0.53c0,0.85,0,1.69,0,2.53c0,0.42,0,0.84,0,1.26s0,0.84,0,1.26s0,0.84,0,1.26
	c0,0.42,0,0.84,0,1.26c0,0.24,0,0.48,0,0.72c0,0.18,0,0.36,0,0.54c0,0.36,0,0.72,0,1.08c0,0.42,0,0.84,0,1.26s0,0.83,0,1.26
	c0,0.42,0,0.84,0,1.26s0,0.84,0,1.26c0,0.42,0,0.84,0,1.26s0,0.84,0,1.26c0,0.24,0,0.48,0,0.72c0,0.18,0,0.36,0,0.54
	c0,0.36,0,0.72,0,1.08c0,0.18,0,0.36,0,0.54c0.9,0,1.8,0,2.7,0c0.84,0,1.68,0,2.52,0c0.9,0,1.8,0,2.7,0c0.84,0,1.68,0,2.521,0
	c0,0.9,0,1.8,0,2.7c0,0.84,0,1.68,0,2.52c1.739,0,3.479,0,5.22,0c0,0.18,0,0.36,0,0.54c0,3.06,0,6.12,0,9.18c0,0.18,0,0.36,0,0.54
	c-1.74,0-3.48,0-5.22,0c0,1.74,0,3.48,0,5.22c-0.181,0-0.36,0-0.54,0c-1.681,0-3.36,0-5.04,0c-1.62,0-3.24,0-4.86,0
	c0,0.9,0,1.8,0,2.7c0,0.42,0,0.84,0,1.25c0,0.43,0,0.85,0,1.27c0,0.48,0,0.96,0,1.44c0,0.42,0,0.84,0,1.26c0,0.84,0,1.68,0,2.52
	c-1.68,0-3.36,0-5.04,0c0,1.74,0,3.48,0,5.221c-0.9,0-1.8,0-2.7,0c-0.84,0-1.68,0-2.52,0c0,0.9,0,1.79,0,2.699
	c0,0.841,0,1.681,0,2.521c-0.9,0-1.8,0-2.7,0c-0.84,0-1.68,0-2.521,0c0,0.841,0,1.681,0,2.521c0,0.42,0,0.84,0,1.26
	c0,0.18,0,0.359,0,0.54c0,0.12,0,0.239,0,0.36c0,0.06,0,0.119,0,0.18s0,0.119,0,0.18c-0.18,0-0.359,0-0.54,0
	c-0.239,0-0.479,0-0.72,0c-0.18,0-0.359,0-0.54,0c-0.359,0-0.72,0-1.08,0c-0.42,0-0.84,0-1.26,0c-0.36,0-0.72,0-1.08,0
	c0,0.84,0,1.68,0,2.52c0,0.42,0,0.841,0,1.261c0,0.239,0,0.479,0,0.72s0,0.48,0,0.721c-0.18,0-0.359,0-0.54,0c-0.78,0-1.56,0-2.34,0
	s-1.56,0-2.34,0c0,1.739,0,3.479,0,5.219c-3.42,0-6.84,0-10.26,0c0,1.74,0,3.48,0,5.221c-0.181,0-0.36,0-0.54,0
	c-3.12,0-6.24,0-9.36,0c-0.18,0-0.36,0-0.54,0c0,1.74,0,3.48,0,5.221c5.16,0,10.32,0,15.48,0c0,1.739,0,3.479,0,5.219
	c5.22,0,10.439,0,15.659,0c0,0.181,0,0.36,0,0.541c0,1.56,0,3.119,0,4.68c1.74,0,3.48,0,5.221,0c1.739,0,3.479,0,5.22,0
	c0-1.74,0-3.48,0-5.221c5.16,0,10.32,0,15.48,0c0-1.739,0-3.479,0-5.219c1.739,0,3.479,0,5.22,0c0-1.74,0-3.48,0-5.221
	c1.74,0,3.479,0,5.22,0c0-0.18,0-0.359,0-0.54s0-0.36,0-0.54s0-0.359,0-0.55c0-0.11,0-0.229,0-0.351c0-0.18,0-0.359,0-0.539
	c0-0.181,0-0.36,0-0.541c0-0.18,0-0.359,0-0.539c0-0.121,0-0.24,0-0.36c0-0.181,0-0.36,0-0.54s0-0.359,0-0.54s0-0.36,0-0.54
	c0-0.12,0-0.24,0-0.359c0-0.19,0-0.36,0-0.541c0-0.18,0-0.359,0-0.539c0-0.181,0-0.36,0-0.541c0-0.119,0-0.239,0-0.359
	c0-0.18,0-0.359,0-0.54s0-0.36,0-0.54s0-0.359,0-0.54c0-0.12,0-0.239,0-0.36c0-0.18,0-0.359,0-0.539c0-0.19,0-0.36,0-0.541
	c0-0.18,0-0.359,0-0.539c0-0.121,0-0.24,0-0.36c0-1.261,0-2.521,0-3.78c0.48,0,0.96,0,1.44,0c0.42,0,0.84,0,1.26,0
	c0.84,0,1.68,0,2.52,0c0-0.359,0-0.72,0-1.08c0-0.18,0-0.359,0-0.539c0-0.121,0-0.24,0-0.361c0-0.359,0-0.719,0-1.08
	c0-0.18,0-0.359,0-0.539c0-0.12,0-0.24,0-0.37c0-1.25,0-2.511,0-3.771c0-2.58,0-5.16,0-7.74c1.74,0,3.48,0,5.221,0
	c0-0.899,0-1.799,0-2.699c0-0.841,0-1.68,0-2.52c0-0.48,0-0.96,0-1.44c0-0.42,0-0.84,0-1.26c0-0.84,0-1.68,0-2.52
	c1.68,0,3.359,0,5.04,0c0-0.55,0-1.08,0-1.62s0-1.08,0-1.62c0-0.18,0-0.36,0-0.54c0-0.12,0-0.24,0-0.36c0-0.24,0-0.48,0-0.72
	c0-0.54,0-1.08,0-1.62c0-0.18,0-0.36,0-0.54c0-0.12,0-0.24,0-0.36c0-0.24,0-0.48,0-0.72c0-0.54,0-1.08,0-1.62c0-0.3,0-0.6,0-0.9
	c0-0.24,0-0.48,0-0.72c0-0.54,0-1.08,0-1.62c0-0.3,0-0.6,0-0.9c0-0.24,0-0.48,0-0.72c0-0.54,0-1.08,0-1.62c0-0.18,0-0.36,0-0.54
	c0-0.12,0-0.24,0-0.36c0-0.24,0-0.48,0-0.72c0-0.18,0-0.36,0-0.54c0-0.12,0-0.24,0-0.36c0-0.24,0-0.48,0-0.72c0-0.18,0-0.36,0-0.54
	c0-0.12,0-0.24,0-0.36c0-0.24,0-0.48,0-0.72c0-0.18,0-0.36,0-0.54c0-0.12,0-0.24,0-0.36c0-0.24,0-0.48,0-0.72c0-0.18,0-0.37,0-0.54
	c0-0.12,0-0.24,0-0.36c0-0.24,0-0.48,0-0.72c0-0.18,0-0.36,0-0.54c0-0.12,0-0.24,0-0.36c0-0.24,0-0.48,0-0.72
	c-1.681,0-3.36,0-5.04,0c0-0.9,0-1.8,0-2.7c0-0.84,0-1.68,0-2.52c-1.74,0-3.48,0-5.221,0c0-0.18,0-0.36,0-0.54c0-0.24,0-0.48,0-0.72
	c0-0.18,0-0.36,0-0.54c0-0.36,0-0.72,0-1.08c0-0.42,0-0.84,0-1.26c0-0.36,0-0.72,0-1.08c-1.739,0-3.479,0-5.22,0
	c0-0.48,0-0.96,0-1.44c0-0.42,0-0.84,0-1.26c0-0.84,0-1.68,0-2.52c-0.9,0-1.8,0-2.7,0c-0.42,0-0.84,0-1.26,0s-0.84,0-1.26,0
	c0-0.84,0-1.68,0-2.52c0-0.84,0-1.68,0-2.52c-1.74,0-3.48,0-5.22,0c0-0.18,0-0.36,0-0.54c0-0.78,0-1.56,0-2.34c0-0.78,0-1.56,0-2.34
	c-5.16,0-10.32,0-15.48,0c0-0.84,0-1.68,0-2.52c0-0.42,0-0.84,0-1.26c0-0.18,0-0.36,0-0.54c0-0.12,0-0.24,0-0.36
	c0-0.18,0-0.36,0-0.54c-0.42,0-0.84,0-1.26,0s-0.84,0-1.26,0c-0.421,0-0.841,0-1.261,0c-0.479,0-0.96,0-1.439,0
	c-0.42,0-0.84,0-1.261,0c-0.42,0-0.84,0-1.26,0s-0.84,0-1.26,0c-0.48,0-0.96,0-1.44,0c-0.42,0-0.84,0-1.26,0s-0.84,0-1.26,0
	s-0.84,0-1.26,0c-0.48,0-0.96,0-1.44,0c-0.42,0-0.84,0-1.26,0s-0.84,0-1.26,0s-0.84,0-1.261,0c-0.479,0-0.96,0-1.439,0
	c0,0.84,0,1.68,0,2.51c0,0.43,0,0.85,0,1.27c0,0.23,0,0.48,0,0.72c0,0.12,0,0.24,0,0.36c0,0.06,0,0.12,0,0.18s0,0.12,0,0.18
	c-0.18,0-0.36,0-0.54,0c-3.36,0-6.72,0-10.08,0c-1.68,0-3.36,0-5.04,0s-3.36,0-5.04,0c0,1.74,0,3.48,0,5.22c-0.18,0-0.36,0-0.54,0
	c-1.68,0-3.36,0-5.04,0c-1.62,0-3.24,0-4.859,0c0,0.84,0,1.68,0,2.52c0,0.84,0,1.68,0,2.52c-0.9,0-1.801,0-2.7,0
	c-0.42,0-0.84,0-1.261,0c-0.42,0-0.84,0-1.26,0c0,0.48,0,0.96,0,1.44c0,0.24,0,0.48,0,0.72c0,0.18,0,0.36,0,0.54
	c0,0.83,0,1.68,0,2.52c0,0.48,0,0.96,0,1.44C129.779,27.78,129.779,28.2,129.779,28.62z"/>
<path fill="#302F2E" d="M129.779,18.18c0,0.84,0,1.68,0,2.52c0.42,0,0.84,0,1.26,0c0.421,0,0.841,0,1.261,0c0.899,0,1.8,0,2.7,0
	c0-0.84,0-1.68,0-2.52c0-0.84,0-1.68,0-2.52c-1.74,0-3.48,0-5.221,0C129.779,16.5,129.779,17.34,129.779,18.18z"/>
<path fill="#302F2E" d="M135,179.1c0,0.9,0,1.8,0,2.7c0.479,0,0.96,0,1.439,0c0.24,0,0.48,0,0.72,0c0.181,0,0.36,0,0.54,0
	c0.42,0,0.84,0,1.261,0c0.42,0,0.84,0,1.26,0c0.84,0,1.68,0,2.52,0c0.42,0,0.84,0,1.261,0c0.239,0,0.479,0,0.72,0
	c0.12,0,0.24,0,0.359,0c0.061,0,0.12,0,0.181,0c0.06,0,0.12,0,0.18,0c0,0.18,0,0.35,0,0.54c0,0.84,0,1.68,0,2.52
	c0,0.24,0,0.48,0,0.71c0,0.19,0,0.37,0,0.54c0,0.19,0,0.37,0,0.54c0,0.19,0,0.37,0,0.54c0,0.25,0,0.49,0,0.729
	c0,0.181,0,0.36,0,0.54c0,0.42,0,0.841,0,1.261c0,0.239,0,0.47,0,0.72c0,0.17,0,0.36,0,0.54c0,0.36,0,0.71,0,1.08
	c1.74,0,3.48,0,5.22,0c0-0.601,0-1.2,0-1.8c0-0.301,0-0.61,0-0.9c0-0.37,0-0.72,0-1.08c0-0.3,0-0.6,0-0.9c0-0.359,0-0.729,0-1.079
	c0-0.311,0-0.61,0-0.9c0-0.37,0-0.72,0-1.08c0-0.13,0-0.25,0-0.36c0-0.18,0-0.359,0-0.54c0-0.119,0-0.239,0-0.359
	c0-0.181,0-0.37,0-0.54c0-0.12,0-0.24,0-0.37c0-0.17,0-0.35,0-0.54c0-0.35,0-0.71,0-1.07c0-0.119,0-0.24,0-0.359
	c0-0.18,0-0.36,0-0.541c0-0.359,0-0.719,0-1.079c0-0.12,0-0.24,0-0.36c0-0.18,0-0.359,0-0.54c0-0.36,0-0.72,0-1.079
	c-0.06,0-0.12,0-0.18,0s-0.12,0-0.18,0c-0.12,0-0.24,0-0.36,0c-0.24,0-0.479,0-0.72,0c-0.181,0-0.36,0-0.54,0c-0.24,0-0.48,0-0.72,0
	c-0.421,0-0.841,0-1.261,0s-0.84,0-1.26,0c0-0.421,0-0.841,0-1.261s0-0.84,0-1.26c0-0.421,0-0.841,0-1.261c0-0.479,0-0.959,0-1.439
	c0-0.84,0-1.68,0-2.52c0-0.42,0-0.84,0-1.26c0-0.48,0-0.961,0-1.441c-0.84,0-1.68,0-2.52,0c-0.9,0-1.801,0-2.7,0
	c0,0.841,0,1.681,0,2.521c0,0.421,0,0.841,0,1.261c0,0.479,0,0.959,0,1.439c0,0.42,0,0.84,0,1.26s0,0.84,0,1.26
	c0,0.9,0,1.801,0,2.701c-0.42,0-0.84,0-1.26,0c-0.181,0-0.36,0-0.54,0c-0.24,0-0.48,0-0.721,0c-0.42,0-0.84,0-1.26,0
	c-0.479,0-0.96,0-1.439,0C135,177.42,135,178.26,135,179.1z"/>
<path fill="#814221" d="M135,85.68c0,0.84,0,1.68,0,2.52c0.84,0,1.68,0,2.52,0s1.68,0,2.52,0c0.061,0,0.12,0,0.181,0
	c0,0.18,0,0.36,0,0.53c0,0.25,0,0.489,0,0.729c0,0.18,0,0.36,0,0.541c0,0.18,0,0.359,0,0.539s0,0.36,0,0.541c0,0.42,0,0.84,0,1.26
	c0,0.359,0,0.72,0,1.08c0,0.42,0,0.84,0,1.26c0,0.359,0,0.72,0,1.08c0,0.42,0,0.84,0,1.26c0,0.359,0,0.71,0,1.08
	c0,0.18,0,0.359,0,0.539c5.22,0,10.439,0,15.66,0c0-1.739,0-3.479,0-5.219c0.18,0,0.359,0,0.54,0c1.619,0,3.239,0,4.859,0
	s3.24,0,4.86,0c0-1.74,0-3.48,0-5.221c0.479,0,0.96,0,1.439,0c0.421,0,0.841,0,1.261,0c0.84,0,1.68,0,2.52,0c0-0.84,0-1.68,0-2.52
	c0-0.42,0-0.84,0-1.26c0-0.19,0-0.36,0-0.541c0-0.24,0-0.479,0-0.72c0.18,0,0.36,0,0.54,0c0.42,0,0.84,0,1.26,0
	c0.12,0,0.24,0,0.36,0c0.24,0,0.48,0,0.72,0c0.24,0,0.48,0,0.721,0c0.18,0,0.359,0,0.54,0c0.359,0,0.72,0,1.079,0
	c0-1.739,0-3.479,0-5.22c0.9,0,1.801,0,2.7,0c0.84,0,1.681,0,2.521,0c0-1.74,0-3.48,0-5.221c0.18,0,0.359,0,0.54,0
	c1.56,0,3.12,0,4.68,0c0-1.739,0-3.489,0-5.219c0-0.9,0-1.8,0-2.7c0-0.42,0-0.84,0-1.26c0-0.42,0-0.84,0-1.26c1.68,0,3.36,0,5.04,0
	c0-1.74,0-3.48,0-5.22c0.18,0,0.36,0,0.54,0c1.68,0,3.36,0,5.04,0c1.62,0,3.24,0,4.86,0c0-0.42,0-0.84,0-1.26s0-0.84,0-1.26
	c0-0.42,0-0.84,0-1.26s0-0.84,0-1.26s0-0.84,0-1.26s0-0.84,0-1.26s0-0.84,0-1.27c0-0.17,0-0.35,0-0.53c0-0.3,0-0.6,0-0.9
	c-5.16,0-10.32,0-15.48,0c0,1.68,0,3.36,0,5.04c-1.74,0-3.48,0-5.22,0c0,1.74,0,3.48,0,5.22c-0.181,0-0.36,0-0.54,0
	c-1.561,0-3.12,0-4.681,0c-1.739,0-3.479,0-5.22,0c0-0.18,0-0.36,0-0.54c0-0.12,0-0.24,0-0.36c0-0.18,0-0.36,0-0.54
	c0-0.36,0-0.72,0-1.08c0-0.72,0-1.44,0-2.16c0-0.18,0-0.36,0-0.54c-1.74,0-3.479,0-5.22,0c0,1.74,0,3.48,0,5.22c0,0.9,0,1.8,0,2.7
	c0,0.42,0,0.84,0,1.26s0,0.84,0,1.26c0,0.48,0,0.95,0,1.44c0,0.42,0,0.84,0,1.26c0,0.84,0,1.68,0,2.52c-0.9,0-1.8,0-2.7,0
	c-0.42,0-0.84,0-1.26,0s-0.84,0-1.26,0c0,1.74,0,3.48,0,5.219c-2.58,0-5.16,0-7.74,0s-5.16,0-7.74,0c0,1.74,0,3.48,0,5.221
	c-0.18,0-0.36,0-0.54,0c-0.72,0-1.439,0-2.16,0c-0.359,0-0.72,0-1.08,0c-0.18,0-0.359,0-0.54,0c-0.119,0-0.239,0-0.359,0
	c-0.181,0-0.36,0-0.54,0c0,0.9,0,1.79,0,2.699c0,0.841,0,1.681,0,2.521c-0.9,0-1.8,0-2.7,0c-0.84,0-1.68,0-2.52,0
	C135,84,135,84.84,135,85.68z"/>
<path fill="#302F2E" d="M135,12.96c0,0.9,0,1.8,0,2.7c1.619,0,3.239,0,4.859,0c1.68,0,3.36,0,5.04,0c0.18,0,0.36,0,0.54,0
	c0-1.74,0-3.48,0-5.22c-0.42,0-0.84,0-1.26,0s-0.84,0-1.26,0s-0.841,0-1.261,0c-0.479,0-0.96,0-1.439,0c-0.42,0-0.84,0-1.26,0
	c-0.421,0-0.841,0-1.261,0s-0.84,0-1.26,0c-0.479,0-0.96,0-1.439,0C135,11.28,135,12.12,135,12.96z"/>
<path fill="#302F2E" d="M140.22,159.84c0,0.359,0,0.72,0,1.08c0.84,0,1.68,0,2.52,0c0.9,0,1.8,0,2.7,0c0-0.48,0-0.961,0-1.44
	c0-0.42,0-0.841,0-1.261c0-0.84,0-1.68,0-2.52c0-0.24,0-0.48,0-0.72c0-0.181,0-0.36,0-0.54c0-0.42,0-0.84,0-1.26
	c0-0.84,0-1.68,0-2.521c0-1.739,0-3.479,0-5.22c-1.74,0-3.479,0-5.22,0c0,0.12,0,0.24,0,0.359c0,0.181,0,0.36,0,0.541
	c0,0.119,0,0.24,0,0.359c0,0.18,0,0.36,0,0.54c0,0.12,0,0.24,0,0.36c0,0.18,0,0.359,0,0.539c0,0.361,0,0.721,0,1.08
	c0,0.121,0,0.24,0,0.361c0,0.18,0,0.359,0,0.539c0,0.36,0,0.721,0,1.08c0,0.12,0,0.24,0,0.36c0,0.18,0,0.36,0,0.54
	c0,0.359,0,0.72,0,1.08c0,0.119,0,0.24,0,0.359c0,0.18,0,0.36,0,0.541c0,0.119,0,0.239,0,0.359c0,0.18,0,0.359,0,0.54
	c0,0.12,0,0.239,0,0.36c0,0.18,0,0.359,0,0.539c0,0.36,0,0.721,0,1.08c0,0.121,0,0.24,0,0.36c0,0.181,0,0.36,0,0.54
	c0,0.359,0,0.721,0,1.08c0,0.12,0,0.24,0,0.359C140.22,159.48,140.22,159.66,140.22,159.84z"/>
<path fill="#814221" d="M140.22,142.74c0,0.899,0,1.8,0,2.7c1.74,0,3.479,0,5.22,0c0-0.84,0-1.68,0-2.52c0-0.42,0-0.84,0-1.261
	c0-0.18,0-0.36,0-0.54c0-0.24,0-0.48,0-0.72c0-0.84,0-1.681,0-2.521c0-0.42,0-0.84,0-1.26c0-0.48,0-0.96,0-1.439
	c0-0.84,0-1.68,0-2.521c0-0.42,0-0.84,0-1.26c0-0.479,0-0.96,0-1.44c0-0.84,0-1.68,0-2.52c0-0.42,0-0.84,0-1.26
	c0-0.24,0-0.48,0-0.721c0-0.119,0-0.24,0-0.359c0-0.18,0-0.37,0-0.54c-1.56,0-3.12,0-4.68,0c-0.181,0-0.36,0-0.54,0
	c0,0.06,0,0.12,0,0.17c0,0.851,0,1.69,0,2.53c0,0.42,0,0.84,0,1.26s0,0.84,0,1.26s0,0.84,0,1.26s0,0.84,0,1.26s0,0.84,0,1.261
	c0,0.479,0,0.96,0,1.44c0,0.42,0,0.84,0,1.26s0,0.84,0,1.26s0,0.84,0,1.26c0,0.48,0,0.95,0,1.439c0,0.42,0,0.841,0,1.261
	S140.22,142.32,140.22,142.74z"/>
<path fill="#302F2E" d="M140.22,66.96c0,0.18,0,0.36,0,0.54c0.24,0,0.479,0,0.72,0s0.48,0,0.72,0c0.42,0,0.841,0,1.261,0
	c0.84,0,1.68,0,2.52,0c0-1.74,0-3.48,0-5.22c-1.74,0-3.479,0-5.22,0C140.22,63.84,140.22,65.4,140.22,66.96z"/>
<path fill="#814221" d="M140.22,46.8c0,1.68,0,3.36,0,5.04c0.84,0,1.68,0,2.52,0c0.9,0,1.8,0,2.7,0c0-0.18,0-0.36,0-0.54
	c0-0.3,0-0.6,0-0.9c0-0.36,0-0.72,0-1.08c0-0.3,0-0.6,0-0.9c0-0.36,0-0.72,0-1.08c0-0.18,0-0.36,0-0.54c-1.56,0-3.12,0-4.68,0
	C140.579,46.8,140.399,46.8,140.22,46.8z"/>
<path fill="#814221" d="M140.22,33.66c0,0.9,0,1.8,0,2.7c4.319,0,8.64,0,12.96,0s8.64,0,12.96,0c0-1.74,0-3.48,0-5.22
	c-8.58,0-17.16,0-25.74,0c-0.06,0-0.12,0-0.18,0C140.22,31.98,140.22,32.82,140.22,33.66z"/>
<path fill="#302F2E" d="M140.22,26.1c0,1.68,0,3.36,0,5.04c0.06,0,0.12,0,0.18,0c8.58,0,17.16,0,25.74,0c0-1.74,0-3.48,0-5.22
	c-2.16,0-4.32,0-6.48,0c-2.159,0-4.319,0-6.479,0s-4.32,0-6.48,0s-4.319,0-6.479,0C140.22,25.98,140.22,26.04,140.22,26.1z"/>
<path fill="#523822" d="M145.439,175.32c0,0.42,0,0.84,0,1.261c0.42,0,0.84,0,1.26,0s0.84,0,1.261,0c0.239,0,0.479,0,0.72,0
	c0.18,0,0.359,0,0.54,0c0.24,0,0.479,0,0.72,0c0.12,0,0.24,0,0.36,0c0.06,0,0.12,0,0.18,0s0.12,0,0.18,0c0,0.359,0,0.719,0,1.079
	c0,0.181,0,0.36,0,0.54c0,0.12,0,0.24,0,0.36c0,0.36,0,0.72,0,1.079c0,0.181,0,0.361,0,0.541c0,0.119,0,0.24,0,0.359
	c0,0.36,0,0.721,0,1.07c0,0.19,0,0.37,0,0.54c0,0.13,0,0.25,0,0.37c0,0.17,0,0.359,0,0.54c0,0.12,0,0.24,0,0.359
	c0,0.181,0,0.36,0,0.54c0,0.11,0,0.23,0,0.36c0,0.36,0,0.71,0,1.08c0,0.29,0,0.59,0,0.9c0,0.35,0,0.72,0,1.079
	c0,0.301,0,0.601,0,0.9c0,0.36,0,0.71,0,1.08c0,0.29,0,0.6,0,0.9c0,0.6,0,1.199,0,1.8c1.74,0,3.48,0,5.221,0c0,5.09,0,10.2,0,15.3
	c0,0.12,0,0.24,0,0.36c12.06,0,24.12,0,36.18,0c0-1.74,0-3.49,0-5.23c2.58,0,5.16,0,7.74,0c2.52,0,5.04,0,7.56,0
	c0.12,0,0.24,0,0.36,0c0-3.47,0-6.96,0-10.43c-3.48,0-6.96,0-10.44,0c0-0.37,0-0.72,0-1.08c0-0.3,0-0.601,0-0.91
	c0-0.35,0-0.71,0-1.08c0-0.3,0-0.59,0-0.89c0-0.37,0-0.721,0-1.08c0-0.3,0-0.601,0-0.91c0-0.17,0-0.35,0-0.54c0-0.29,0-0.59,0-0.89
	c0-0.12,0-0.24,0-0.36c0-0.36,0-0.72,0-1.09c0-0.17,0-0.351,0-0.54c0-0.12,0-0.23,0-0.35c0-0.36,0-0.73,0-1.08
	c0-0.18,0-0.36,0-0.541c0-0.119,0-0.239,0-0.359c0-0.359,0-0.721,0-1.08c0-0.18,0-0.359,0-0.54c0-0.12,0-0.239,0-0.36
	c0-0.18,0-0.359,0-0.539c0-0.121,0-0.24,0-0.36c0-0.181,0-0.36,0-0.54c0-0.12,0-0.24,0-0.359c0.48,0,0.96,0,1.44,0
	c0.42,0,0.84,0,1.26,0s0.84,0,1.26,0s0.84,0,1.261,0c0-0.9,0-1.801,0-2.701c0-0.42,0-0.84,0-1.26s0-0.84,0-1.26s0-0.84,0-1.26
	s0-0.84,0-1.26c0-0.84,0-1.681,0-2.521c0-0.06,0-0.12,0-0.181c0.18,0,0.359,0,0.539,0c1.681,0,3.36,0,5.04,0c1.62,0,3.24,0,4.86,0
	c0-1.739,0-3.479,0-5.219c-2.58,0-5.16,0-7.74,0c-0.12,0-0.239,0-0.359,0c-0.181,0-0.36,0-0.54,0c-0.36,0-0.721,0-1.08,0
	c-0.12,0-0.24,0-0.36,0c-0.18,0-0.359,0-0.54,0c-0.359,0-0.72,0-1.08,0c-0.12,0-0.239,0-0.359,0c-0.181,0-0.36,0-0.54,0
	c-0.36,0-0.721,0-1.08,0c-0.12,0-0.24,0-0.36,0c-0.18,0-0.36,0-0.54,0c-0.359,0-0.72,0-1.08,0c0,1.739,0,3.479,0,5.219
	c-0.18,0-0.359,0-0.54,0c-1.68,0-3.359,0-5.04,0c-1.62,0-3.239,0-4.859,0s-3.24,0-4.86,0s-3.24,0-4.86,0c-0.18,0-0.359,0-0.54,0
	c0-0.899,0-1.799,0-2.699c0-0.84,0-1.68,0-2.52c-0.84,0-1.68,0-2.52,0s-1.68,0-2.521,0c-0.84,0-1.68,0-2.52,0c-0.9,0-1.8,0-2.7,0
	c-0.84,0-1.68,0-2.52,0c-0.9,0-1.8,0-2.7,0c-0.84,0-1.68,0-2.521,0c-0.899,0-1.8,0-2.699,0c0,1.739,0,3.479,0,5.219
	c-0.181,0-0.36,0-0.54,0c-1.681,0-3.36,0-5.04,0c-1.62,0-3.24,0-4.86,0c0,0.48,0,0.961,0,1.441c0,0.42,0,0.84,0,1.26
	c0,0.84,0,1.68,0,2.52c0,0.48,0,0.96,0,1.439c0,0.42,0,0.84,0,1.261C145.439,174.48,145.439,174.9,145.439,175.32z"/>
<path fill="#302F2E" d="M145.439,163.44c0,0.9,0,1.8,0,2.699c1.62,0,3.24,0,4.86,0c1.68,0,3.359,0,5.04,0c0.18,0,0.359,0,0.54,0
	c0-1.739,0-3.479,0-5.219c-0.841,0-1.681,0-2.521,0c-0.899,0-1.8,0-2.7,0c-0.84,0-1.68,0-2.52,0c-0.9,0-1.8,0-2.7,0
	C145.439,161.76,145.439,162.6,145.439,163.44z"/>
<path fill="#814221" d="M145.439,159.48c0,0.479,0,0.96,0,1.44c0.9,0,1.8,0,2.7,0c0.84,0,1.68,0,2.52,0c0.9,0,1.801,0,2.7,0
	c0.84,0,1.68,0,2.521,0c0-0.9,0-1.801,0-2.701c0-0.84,0-1.68,0-2.52c-0.841,0-1.681,0-2.521,0c-0.899,0-1.8,0-2.7,0
	c0-1.68,0-3.359,0-5.04c-0.42,0-0.84,0-1.26,0s-0.84,0-1.26,0s-0.84,0-1.26,0c-0.48,0-0.96,0-1.44,0c0,0.841,0,1.681,0,2.521
	c0,0.42,0,0.84,0,1.26c0,0.18,0,0.359,0,0.54c0,0.239,0,0.479,0,0.72c0,0.84,0,1.68,0,2.52
	C145.439,158.639,145.439,159.06,145.439,159.48z"/>
<path fill="#A06141" d="M145.439,145.44c0,1.74,0,3.48,0,5.22c0.48,0,0.96,0,1.44,0c0.42,0,0.84,0,1.26,0s0.84,0,1.26,0
	s0.84,0,1.26,0c0-1.68,0-3.36,0-5.04c0-0.06,0-0.119,0-0.18c1.74,0,3.48,0,5.221,0c0-0.9,0-1.801,0-2.7c0-0.84,0-1.68,0-2.521
	c-0.841,0-1.681,0-2.521,0c-0.42,0-0.84,0-1.26,0c-0.24,0-0.48,0-0.72,0c-0.12,0-0.24,0-0.36,0c-0.06,0-0.12,0-0.18,0
	c-0.061,0-0.12,0-0.181,0c0-0.18,0-0.359,0-0.539c0-0.42,0-0.84,0-1.26c0-0.19,0-0.36,0-0.541c0-0.18,0-0.359,0-0.539
	c0-0.24,0-0.48,0-0.721c0-0.18,0-0.359,0-0.539c0-0.181,0-0.361,0-0.541s0-0.359,0-0.539c0-0.24,0-0.48,0-0.721
	c0-0.18,0-0.359,0-0.55c0-0.17,0-0.351,0-0.53s0-0.359,0-0.54c0-0.239,0-0.479,0-0.72c0-0.18,0-0.359,0-0.54s0-0.36,0-0.54
	s0-0.359,0-0.54s0-0.36,0-0.54c1.74,0,3.48,0,5.221,0c0-1.74,0-3.48,0-5.22c-1.74,0-3.48,0-5.221,0c-1.739,0-3.479,0-5.22,0
	c0,0.17,0,0.36,0,0.54c0,0.119,0,0.24,0,0.359c0,0.24,0,0.48,0,0.721c0,0.42,0,0.84,0,1.26c0,0.84,0,1.68,0,2.52
	c0,0.48,0,0.961,0,1.44c0,0.42,0,0.84,0,1.26c0,0.841,0,1.681,0,2.521c0,0.479,0,0.959,0,1.439c0,0.42,0,0.84,0,1.26
	c0,0.84,0,1.681,0,2.521c0,0.239,0,0.479,0,0.72c0,0.18,0,0.36,0,0.54c0,0.421,0,0.841,0,1.261
	C145.439,143.76,145.439,144.6,145.439,145.44z"/>
<path fill="#814221" d="M145.439,114.299c0,1.74,0,3.48,0,5.221c2.58,0,5.16,0,7.74,0s5.16,0,7.74,0c0-1.74,0-3.48,0-5.221
	C155.76,114.299,150.6,114.299,145.439,114.299z"/>
<path fill="#302F2E" d="M145.439,109.081c0,1.739,0,3.479,0,5.219c5.16,0,10.32,0,15.48,0c0-1.739,0-3.479,0-5.219
	C155.76,109.081,150.6,109.081,145.439,109.081z"/>
<path fill="#302F2E" d="M145.439,67.5c0,1.73,0,3.48,0,5.219c2.58,0,5.16,0,7.74,0s5.16,0,7.74,0c0-1.739,0-3.479,0-5.219
	c-1.681,0-3.36,0-5.04,0c-1.74,0-3.48,0-5.221,0C148.92,67.5,147.18,67.5,145.439,67.5z"/>
<path fill="#FFFFFF" d="M145.439,62.28c0,1.74,0,3.48,0,5.22c1.74,0,3.48,0,5.22,0c1.74,0,3.48,0,5.221,0c0-0.78,0-1.56,0-2.34
	c0-0.78,0-1.56,0-2.34c0-0.18,0-0.36,0-0.54c-1.74,0-3.48,0-5.221,0C148.92,62.28,147.18,62.28,145.439,62.28z"/>
<path fill="#814221" d="M145.439,57.06c0,1.74,0,3.48,0,5.22c1.74,0,3.48,0,5.22,0c0-1.74,0-3.48,0-5.22c-1.56,0-3.12,0-4.68,0
	C145.8,57.06,145.619,57.06,145.439,57.06z"/>
<path fill="#302F2E" d="M145.439,9c0,0.48,0,0.96,0,1.44c1.68,0,3.36,0,5.04,0s3.36,0,5.04,0c3.36,0,6.72,0,10.08,0
	c0.18,0,0.36,0,0.54,0c0-0.06,0-0.12,0-0.18s0-0.12,0-0.18c0-0.12,0-0.24,0-0.36c0-0.24,0-0.49,0-0.72c0-0.42,0-0.84,0-1.27
	c0-0.83,0-1.67,0-2.51c-0.84,0-1.68,0-2.521,0c-0.84,0-1.68,0-2.52,0c-0.42,0-0.84,0-1.26,0s-0.84,0-1.261,0c-0.42,0-0.84,0-1.26,0
	c-0.479,0-0.96,0-1.439,0c-0.42,0-0.841,0-1.261,0s-0.84,0-1.26,0s-0.84,0-1.26,0c-0.48,0-0.96,0-1.44,0c-0.42,0-0.84,0-1.26,0
	s-0.84,0-1.26,0s-0.84,0-1.26,0c-0.48,0-0.96,0-1.44,0c0,0.42,0,0.84,0,1.26s0,0.84,0,1.25C145.439,8.16,145.439,8.58,145.439,9z"/>
<path fill="#302F2E" d="M150.659,210.419c0,0.841,0,1.681,0,2.521c1.74,0,3.48,0,5.221,0c1.739,0,3.479,0,5.22,0s3.479,0,5.22,0
	c0.84,0,1.681,0,2.521,0s1.68,0,2.52,0c1.74,0,3.48,0,5.22,0c1.74,0,3.48,0,5.221,0c1.739,0,3.479,0,5.22,0c0.84,0,1.68,0,2.52,0
	c0.841,0,1.681,0,2.521,0c0-1.75,0-3.48,0-5.22c-12.06,0-24.12,0-36.18,0c0-0.12,0-0.24,0-0.36c0-5.1,0-10.21,0-15.3
	c-1.74,0-3.48,0-5.221,0c0,0.05,0,0.12,0,0.17c0,0.49,0,0.96,0,1.45c0,0.239,0,0.47,0,0.72c0,0.17,0,0.36,0,0.54
	c0,0.24,0,0.479,0,0.71c0,0.19,0,0.37,0,0.54c0,0.25,0,0.49,0,0.729c0,0.181,0,0.36,0,0.54c0,0.48,0,0.96,0,1.44
	c0,0.24,0,0.479,0,0.71c0,0.19,0,0.37,0,0.54c0,0.25,0,0.49,0,0.729c0,0.181,0,0.351,0,0.54c0,0.23,0,0.48,0,0.721
	c0,0.18,0,0.35,0,0.54c0,0.47,0,0.96,0,1.43c0,0.25,0,0.49,0,0.73c0,0.18,0,0.35,0,0.539c0,0.23,0,0.48,0,0.721
	c0,0.18,0,0.359,0,0.54c0,0.239,0,0.47,0,0.72c0,0.17,0,0.36,0,0.54c0,0.24,0,0.479,0,0.71c0,0.19,0,0.37,0,0.54
	c0,0.25,0,0.49,0,0.729C150.659,210.06,150.659,210.23,150.659,210.419z"/>
<path fill="#A06141" d="M150.659,150.66c0,1.681,0,3.36,0,5.04c0.9,0,1.801,0,2.7,0c0.84,0,1.68,0,2.521,0c0-1.68,0-3.359,0-5.04
	c-0.841,0-1.681,0-2.521,0C152.46,150.66,151.56,150.66,150.659,150.66z"/>
<path fill="#814221" d="M150.659,145.62c0,1.68,0,3.36,0,5.04c0.9,0,1.801,0,2.7,0c0.84,0,1.68,0,2.521,0c0,1.681,0,3.36,0,5.04
	c5.159,0,10.319,0,15.479,0c0-1.68,0-3.359,0-5.04c0.18,0,0.36,0,0.54,0c1.38,0,2.76,0,4.14,0c0.181,0,0.36,0,0.54,0
	c0-0.899,0-1.8,0-2.7c0-0.84,0-1.68,0-2.52c-1.739,0-3.479,0-5.22,0c0-0.18,0-0.359,0-0.54c0-0.72,0-1.44,0-2.16
	c0-0.36,0-0.72,0-1.08c0-0.18,0-0.36,0-0.54c0-0.119,0-0.24,0-0.359c0-0.18,0-0.36,0-0.541c1.74,0,3.48,0,5.22,0
	c0-0.899,0-1.799,0-2.699c0-0.84,0-1.68,0-2.52c-1.739,0-3.479,0-5.22,0s-3.479,0-5.22,0c0-1.74,0-3.48,0-5.221
	c-3.42,0-6.84,0-10.26,0c-1.74,0-3.48,0-5.221,0c0,0.18,0,0.359,0,0.54s0,0.36,0,0.54s0,0.359,0,0.54s0,0.36,0,0.54
	c0,0.24,0,0.48,0,0.72c0,0.181,0,0.36,0,0.54s0,0.36,0,0.53c0,0.19,0,0.37,0,0.55c0,0.24,0,0.48,0,0.721c0,0.18,0,0.359,0,0.539
	s0,0.36,0,0.541c0,0.18,0,0.359,0,0.539c0,0.24,0,0.48,0,0.721c0,0.18,0,0.359,0,0.539c0,0.181,0,0.351,0,0.541
	c0,0.42,0,0.84,0,1.26c0,0.18,0,0.359,0,0.539c0.061,0,0.12,0,0.181,0c0.06,0,0.12,0,0.18,0c0.12,0,0.24,0,0.36,0
	c0.239,0,0.479,0,0.72,0c0.42,0,0.84,0,1.26,0c0.84,0,1.68,0,2.521,0c0,0.841,0,1.681,0,2.521c0,0.899,0,1.8,0,2.7
	c-1.74,0-3.48,0-5.221,0C150.659,145.5,150.659,145.56,150.659,145.62z"/>
<path fill="#282828" d="M150.659,57.06c0,1.74,0,3.48,0,5.22c1.74,0,3.48,0,5.221,0c0,0.18,0,0.36,0,0.54c0,0.78,0,1.56,0,2.34
	c0,0.78,0,1.56,0,2.34c1.68,0,3.359,0,5.04,0c0-0.84,0-1.68,0-2.52c0-0.42,0-0.84,0-1.26c0-0.49,0-0.96,0-1.44c0-0.42,0-0.84,0-1.26
	s0-0.84,0-1.26c0-0.9,0-1.8,0-2.7C157.5,57.06,154.079,57.06,150.659,57.06z"/>
<path fill="#814221" d="M150.659,51.84c0,1.74,0,3.48,0,5.22c3.42,0,6.841,0,10.261,0c0-1.74,0-3.48,0-5.22c-1.62,0-3.24,0-4.86,0
	s-3.24,0-4.86,0C151.02,51.84,150.84,51.84,150.659,51.84z"/>
<path fill="#302F2E" d="M155.88,158.219c0,0.9,0,1.801,0,2.701c0.899,0,1.8,0,2.699,0c0.841,0,1.681,0,2.521,0c0.9,0,1.8,0,2.7,0
	c0.84,0,1.68,0,2.52,0c0.9,0,1.8,0,2.7,0c0.84,0,1.68,0,2.52,0c0.841,0,1.681,0,2.521,0s1.68,0,2.52,0c0-1.561,0-3.121,0-4.681
	c0-0.18,0-0.36,0-0.54c-0.06,0-0.119,0-0.18,0c-1.68,0-3.36,0-5.04,0c-5.16,0-10.32,0-15.479,0
	C155.88,156.54,155.88,157.379,155.88,158.219z"/>
<path fill="#302F2E" d="M155.88,93.42c0,1.739,0,3.479,0,5.219c3.42,0,6.84,0,10.26,0c0-1.739,0-3.479,0-5.219
	c-1.62,0-3.24,0-4.86,0s-3.24,0-4.859,0C156.239,93.42,156.06,93.42,155.88,93.42z"/>
<path fill="#814221" d="M160.92,119.52c0,1.68,0,3.359,0,5.04c3.479,0,6.96,0,10.439,0c0,0.84,0,1.67,0,2.521
	c0,0.899,0,1.799,0,2.699c5.22,0,10.44,0,15.66,0c0,0.42,0,0.84,0,1.26s0,0.84,0,1.26c0,0.9,0,1.801,0,2.701c6.9,0,13.8,0,20.7,0
	c0,0.84,0,1.68,0,2.52c0,0.9,0,1.8,0,2.699c1.74,0,3.479,0,5.22,0c0-1.739,0-3.479,0-5.219c0-1.74,0-3.48,0-5.221
	c-0.9,0-1.8,0-2.7,0c-0.84,0-1.68,0-2.52,0c-0.9,0-1.8,0-2.7,0c-0.84,0-1.68,0-2.52,0c-0.9,0-1.801,0-2.7,0c-0.84,0-1.681,0-2.521,0
	c-0.899,0-1.8,0-2.7,0c-0.84,0-1.68,0-2.52,0c0-0.9,0-1.8,0-2.699c0-0.851,0-1.681,0-2.521c-5.16,0-10.32,0-15.48,0
	c0-1.681,0-3.36,0-5.04C171.359,119.52,166.14,119.52,160.92,119.52z"/>
<path fill="#302F2E" d="M160.92,114.299c0,1.74,0,3.48,0,5.221c5.22,0,10.439,0,15.659,0c0-1.561,0-3.12,0-4.68
	c0-0.181,0-0.36,0-0.541C171.359,114.299,166.14,114.299,160.92,114.299z"/>
<path fill="#302F2E" d="M160.92,64.98c0,0.84,0,1.68,0,2.52c0.42,0,0.84,0,1.26,0s0.84,0,1.26,0c0.9,0,1.8,0,2.7,0
	c0-0.84,0-1.68,0-2.52c0-0.42,0-0.84,0-1.26c0-0.49,0-0.96,0-1.44c0-0.42,0-0.84,0-1.26s0-0.84,0-1.26c0-0.9,0-1.8,0-2.7
	c-1.74,0-3.48,0-5.22,0c0,0.9,0,1.8,0,2.7c0,0.42,0,0.84,0,1.26s0,0.84,0,1.26c0,0.48,0,0.95,0,1.44
	C160.92,64.14,160.92,64.56,160.92,64.98z"/>
<path fill="#A06141" d="M160.92,51.84c0,1.74,0,3.48,0,5.22c1.739,0,3.479,0,5.22,0c0-1.74,0-3.48,0-5.22
	C164.399,51.84,162.659,51.84,160.92,51.84z"/>
<path fill="#814221" d="M160.92,46.8c0,1.68,0,3.36,0,5.04c1.739,0,3.479,0,5.22,0c0-1.68,0-3.36,0-5.04c-1.561,0-3.12,0-4.68,0
	C161.279,46.8,161.1,46.8,160.92,46.8z"/>
<path fill="#302F2E" d="M166.14,88.2c0,1.74,0,3.48,0,5.221c0.78,0,1.56,0,2.34,0s1.56,0,2.34,0c0.181,0,0.36,0,0.54,0
	c0-0.24,0-0.48,0-0.721s0-0.48,0-0.72c0-0.42,0-0.841,0-1.261c0-0.84,0-1.68,0-2.52c-0.84,0-1.68,0-2.52,0c-0.42,0-0.84,0-1.261,0
	C167.1,88.2,166.619,88.2,166.14,88.2z"/>
<path fill="#FFFFFF" d="M166.14,46.8c0,1.68,0,3.36,0,5.04c1.74,0,3.479,0,5.22,0c0,0.18,0,0.36,0,0.54c0,0.72,0,1.44,0,2.16
	c0,0.36,0,0.72,0,1.08c0,0.18,0,0.36,0,0.54c0,0.12,0,0.24,0,0.36c0,0.18,0,0.36,0,0.54c1.74,0,3.48,0,5.22,0c0-1.74,0-3.48,0-5.22
	c1.74,0,3.48,0,5.221,0c0-2.16,0-4.32,0-6.48c0-1.08,0-2.16,0-3.24c0-1.08,0-2.16,0-3.24c0-2.16,0-4.32,0-6.48c0-1.08,0-2.17,0-3.24
	c0-1.08,0-2.16,0-3.24c-1.74,0-3.48,0-5.221,0c0,0.36,0,0.72,0,1.08c0,0.3,0,0.6,0,0.9c0,0.36,0,0.72,0,1.08c0,0.18,0,0.36,0,0.54
	c0,0.12,0,0.24,0,0.36c0,0.35,0,0.72,0,1.08c0,0.18,0,0.36,0,0.54c0,0.12,0,0.23,0,0.36c0,0.36,0,0.72,0,1.08c0,0.18,0,0.36,0,0.54
	c0,0.12,0,0.24,0,0.36c0,0.36,0,0.72,0,1.08c0,0.18,0,0.36,0,0.54c0,0.12,0,0.24,0,0.36c0,0.36,0,0.72,0,1.08c0,0.18,0,0.36,0,0.54
	c0,0.12,0,0.24,0,0.36c0,0.36,0,0.72,0,1.08c0,0.18,0,0.35,0,0.54c0,0.12,0,0.24,0,0.36c0,0.18,0,0.36,0,0.54c0,0.12,0,0.24,0,0.36
	c0,0.18,0,0.36,0,0.54c0,0.12,0,0.24,0,0.36c-0.899,0-1.8,0-2.699,0c-0.841,0-1.681,0-2.521,0c0,0.84,0,1.68,0,2.52
	c0,0.42,0,0.84,0,1.26c0,0.24,0,0.48,0,0.72c0,0.24,0,0.48,0,0.72c-0.18,0-0.359,0-0.54,0c-0.78,0-1.56,0-2.34,0
	S166.92,46.8,166.14,46.8z"/>
<path fill="#302F2E" d="M166.14,45.36c0,0.48,0,0.96,0,1.44c0.78,0,1.56,0,2.34,0s1.56,0,2.34,0c0.181,0,0.36,0,0.54,0
	c0-0.24,0-0.48,0-0.72c0-0.24,0-0.48,0-0.72c0-0.42,0-0.84,0-1.26c0-0.84,0-1.68,0-2.52c-0.84,0-1.68,0-2.52,0
	c-0.42,0-0.84,0-1.261,0c-0.479,0-0.96,0-1.439,0c0,0.84,0,1.68,0,2.52C166.14,44.52,166.14,44.94,166.14,45.36z"/>
<path fill="#814221" d="M166.14,36.36c0,1.74,0,3.48,0,5.22c0.479,0,0.96,0,1.439,0c0.421,0,0.841,0,1.261,0c0.84,0,1.68,0,2.52,0
	c0-1.74,0-3.48,0-5.22C169.619,36.36,167.88,36.36,166.14,36.36z"/>
<path fill="#302F2E" d="M166.14,31.14c0,1.74,0,3.48,0,5.22c1.74,0,3.479,0,5.22,0c0,1.74,0,3.48,0,5.22c0.84,0,1.68,0,2.521,0
	c0.899,0,1.8,0,2.699,0c0-0.12,0-0.24,0-0.36c0-0.18,0-0.36,0-0.54c0-0.12,0-0.24,0-0.36c0-0.18,0-0.36,0-0.54c0-0.12,0-0.24,0-0.36
	c0-0.19,0-0.36,0-0.54c0-0.36,0-0.72,0-1.08c0-0.12,0-0.24,0-0.36c0-0.18,0-0.36,0-0.54c0-0.36,0-0.72,0-1.08c0-0.12,0-0.24,0-0.36
	c0-0.18,0-0.36,0-0.54c0-0.36,0-0.72,0-1.08c0-0.12,0-0.24,0-0.36c0-0.18,0-0.36,0-0.54c0-0.36,0-0.72,0-1.08c0-0.13,0-0.24,0-0.36
	c0-0.18,0-0.36,0-0.54c0-0.36,0-0.73,0-1.08c0-0.12,0-0.24,0-0.36c0-0.18,0-0.36,0-0.54c0-0.36,0-0.72,0-1.08c0-0.3,0-0.6,0-0.9
	c0-0.36,0-0.72,0-1.08c-1.739,0-3.479,0-5.22,0c0,0.84,0,1.68,0,2.52c0,0.9,0,1.79,0,2.7C169.619,31.14,167.88,31.14,166.14,31.14z"
	/>
<path fill="#302F2E" d="M166.14,2.7c0,0.84,0,1.68,0,2.52c0.479,0,0.96,0,1.439,0c0.421,0,0.841,0,1.261,0s0.84,0,1.26,0
	s0.84,0,1.26,0c0.48,0,0.96,0,1.44,0c0.42,0,0.84,0,1.26,0s0.84,0,1.26,0s0.84,0,1.26,0c0.48,0,0.96,0,1.44,0c0.42,0,0.84,0,1.26,0
	s0.84,0,1.26,0c0.421,0,0.841,0,1.261,0c0.479,0,0.96,0,1.439,0c0.42,0,0.84,0,1.261,0c0.42,0,0.84,0,1.26,0s0.84,0,1.26,0
	c0-0.84,0-1.68,0-2.52c0-0.18,0-0.36,0-0.54c0-0.24,0-0.48,0-0.72c0-0.24,0-0.48,0-0.72c0-0.24,0-0.49,0-0.72c-0.06,0-0.12,0-0.18,0
	c-6.9,0-13.801,0-20.7,0c0,0.23,0,0.48,0,0.72c0,0.24,0,0.48,0,0.72c0,0.24,0,0.48,0,0.72C166.14,2.34,166.14,2.52,166.14,2.7z"/>
<path fill="#A06141" d="M171.359,150.66c0,1.681,0,3.36,0,5.04c1.68,0,3.36,0,5.04,0c0.061,0,0.12,0,0.18,0c0,0.18,0,0.36,0,0.54
	c0,1.56,0,3.12,0,4.681c0.9,0,1.801,0,2.7,0c0.84,0,1.681,0,2.521,0c0.899,0,1.8,0,2.7,0c0.84,0,1.68,0,2.52,0
	c0-0.9,0-1.801,0-2.701c0-0.42,0-0.84,0-1.26s0-0.84,0-1.26c0-1.68,0-3.359,0-5.04c1.68,0,3.36,0,5.04,0c0-0.899,0-1.8,0-2.7
	c0-0.42,0-0.84,0-1.26s0-0.84,0-1.26c0-0.48,0-0.96,0-1.439c0-0.42,0-0.841,0-1.261c0-0.84,0-1.68,0-2.521c-3.42,0-6.84,0-10.26,0
	c0-1.739,0-3.479,0-5.219c-1.74,0-3.48,0-5.221,0c0,0.84,0,1.68,0,2.52c0,0.9,0,1.8,0,2.699c-1.739,0-3.479,0-5.22,0
	c0,0.181,0,0.361,0,0.541c0,0.119,0,0.24,0,0.359c0,0.18,0,0.36,0,0.54c0,0.36,0,0.72,0,1.08c0,0.72,0,1.44,0,2.16
	c0,0.181,0,0.36,0,0.54c1.74,0,3.48,0,5.22,0c0,0.84,0,1.68,0,2.52c0,0.9,0,1.801,0,2.7c-0.18,0-0.359,0-0.54,0
	c-1.38,0-2.76,0-4.14,0C171.72,150.66,171.539,150.66,171.359,150.66z"/>
<path fill="#302F2E" d="M171.359,85.68c0,0.84,0,1.68,0,2.52c0.36,0,0.72,0,1.08,0c0.42,0,0.84,0,1.26,0c0.36,0,0.721,0,1.08,0
	c0.181,0,0.36,0,0.54,0c0.24,0,0.48,0,0.72,0c0.181,0,0.36,0,0.54,0c0-0.061,0-0.119,0-0.18s0-0.12,0-0.18c0-0.121,0-0.24,0-0.36
	c0-0.181,0-0.36,0-0.54c0-0.42,0-0.84,0-1.26c0-0.84,0-1.68,0-2.521c-0.359,0-0.72,0-1.079,0c-0.181,0-0.36,0-0.54,0
	c-0.24,0-0.48,0-0.721,0c-0.239,0-0.479,0-0.72,0c-0.12,0-0.24,0-0.36,0c-0.42,0-0.84,0-1.26,0c-0.18,0-0.36,0-0.54,0
	c0,0.24,0,0.479,0,0.72c0,0.181,0,0.351,0,0.541C171.359,84.84,171.359,85.26,171.359,85.68z"/>
<path fill="#302F2E" d="M176.579,163.44c0,0.9,0,1.8,0,2.699c0.181,0,0.36,0,0.54,0c1.62,0,3.24,0,4.86,0s3.24,0,4.86,0
	s3.239,0,4.859,0c1.681,0,3.36,0,5.04,0c0.181,0,0.36,0,0.54,0c0-1.739,0-3.479,0-5.219c-0.84,0-1.68,0-2.52,0s-1.681,0-2.521,0
	s-1.68,0-2.52,0c-0.9,0-1.8,0-2.7,0c-0.84,0-1.68,0-2.52,0c-0.9,0-1.801,0-2.7,0c-0.84,0-1.681,0-2.521,0c-0.899,0-1.8,0-2.7,0
	C176.579,161.76,176.579,162.6,176.579,163.44z"/>
<path fill="#302F2E" d="M176.579,119.52c0,1.68,0,3.359,0,5.04c5.16,0,10.32,0,15.48,0c0-1.681,0-3.36,0-5.04c0.18,0,0.36,0,0.54,0
	c3.12,0,6.24,0,9.36,0c0.18,0,0.359,0,0.54,0c0-1.74,0-3.48,0-5.221c-5.16,0-10.32,0-15.48,0c0,1.74,0,3.48,0,5.221
	c-1.74,0-3.48,0-5.22,0C180.06,119.52,178.319,119.52,176.579,119.52z"/>
<path fill="#302F2E" d="M176.579,77.94c0,1.74,0,3.48,0,5.22c0.841,0,1.681,0,2.521,0c0.9,0,1.8,0,2.7,0c0-0.84,0-1.68,0-2.521
	c0-0.909,0-1.799,0-2.699c-0.84,0-1.681,0-2.521,0C178.38,77.94,177.479,77.94,176.579,77.94z"/>
<path fill="#D4D5D7" d="M176.579,51.84c0,1.74,0,3.48,0,5.22c1.561,0,3.12,0,4.681,0c0.18,0,0.359,0,0.54,0c0-1.74,0-3.48,0-5.22
	C180.06,51.84,178.319,51.84,176.579,51.84z"/>
<path fill="#302F2E" d="M176.579,23.4c0,0.83,0,1.68,0,2.52c1.74,0,3.48,0,5.221,0c0-1.74,0-3.48,0-5.22c-0.42,0-0.84,0-1.261,0
	c-0.42,0-0.84,0-1.26,0c-0.899,0-1.8,0-2.7,0c0,0.06,0,0.12,0,0.18s0,0.12,0,0.18c0,0.12,0,0.24,0,0.36c0,0.24,0,0.48,0,0.72
	C176.579,22.56,176.579,22.98,176.579,23.4z"/>
<path fill="#302F2E" d="M181.8,72.719c0,1.74,0,3.48,0,5.221c0.84,0,1.68,0,2.52,0c0.9,0,1.8,0,2.7,0c0-1.74,0-3.48,0-5.221
	c-1.56,0-3.12,0-4.68,0C182.159,72.719,181.979,72.719,181.8,72.719z"/>
<path fill="#D4D5D7" d="M181.8,45.36c0,2.16,0,4.32,0,6.48c1.739,0,3.479,0,5.22,0c0-1.68,0-3.36,0-5.04c0-2.16,0-4.32,0-6.48
	c0-1.09,0-2.16,0-3.24c0-1.08,0-2.16,0-3.24c0-2.16,0-4.32,0-6.48c0-1.08,0-2.16,0-3.24c0-0.54,0-1.08,0-1.62c0-0.24,0-0.48,0-0.72
	c0-0.12,0-0.24,0-0.36c0-0.24,0-0.48,0-0.72c-0.84,0-1.68,0-2.52,0c-0.421,0-0.841,0-1.261,0c-0.18,0-0.359,0-0.54,0
	c-0.239,0-0.479,0-0.72,0c-0.06,0-0.12,0-0.18,0c0,1.74,0,3.48,0,5.22c0,1.08,0,2.16,0,3.24c0,1.07,0,2.16,0,3.24
	c0,2.16,0,4.32,0,6.48c0,1.08,0,2.16,0,3.24C181.8,43.2,181.8,44.28,181.8,45.36z"/>
<path fill="#302F2E" d="M181.8,18.18c0,0.84,0,1.68,0,2.52c0.06,0,0.12,0,0.18,0c0.24,0,0.48,0,0.72,0c0.181,0,0.36,0,0.54,0
	c0.42,0,0.84,0,1.261,0c0.84,0,1.68,0,2.52,0c0-0.84,0-1.68,0-2.52c0-0.84,0-1.68,0-2.52c-0.18,0-0.36,0-0.54,0
	c-1.38,0-2.76,0-4.14,0c-0.181,0-0.36,0-0.54,0c0,0.24,0,0.48,0,0.72c0,0.18,0,0.35,0,0.54c0,0.18,0,0.36,0,0.54
	C181.8,17.7,181.8,17.94,181.8,18.18z"/>
<path fill="#814221" d="M187.02,158.219c0,0.9,0,1.801,0,2.701c0.9,0,1.8,0,2.7,0c0.84,0,1.68,0,2.52,0s1.681,0,2.521,0
	s1.68,0,2.52,0c0-1.74,0-3.48,0-5.221c0.84,0,1.681,0,2.521,0c0.899,0,1.8,0,2.7,0c0.84,0,1.68,0,2.52,0c0.9,0,1.8,0,2.7,0
	c0-0.18,0-0.359,0-0.54c0-1.5,0-3,0-4.5c0-0.18,0-0.36,0-0.54s0-0.359,0-0.539c0-0.181,0-0.361,0-0.541c0-0.24,0-0.479,0-0.72
	c0-0.181,0-0.36,0-0.54s0-0.359,0-0.54c0-0.42,0-0.84,0-1.26c0-0.181,0-0.36,0-0.54c-1.74,0-3.48,0-5.22,0c0-1.74,0-3.48,0-5.221
	c-1.74,0-3.48,0-5.221,0s-3.479,0-5.22,0c0,0.841,0,1.681,0,2.521c0,0.42,0,0.841,0,1.261c0,0.479,0,0.959,0,1.439
	c0,0.42,0,0.84,0,1.26s0,0.84,0,1.26c0,0.9,0,1.801,0,2.7c-1.68,0-3.36,0-5.04,0c0,1.681,0,3.36,0,5.04c0,0.42,0,0.84,0,1.26
	S187.02,157.799,187.02,158.219z"/>
<path fill="#302F2E" d="M187.02,67.5c0,1.73,0,3.48,0,5.219c1.68,0,3.36,0,5.04,0c0-0.84,0-1.68,0-2.52c0-0.42,0-0.84,0-1.26
	c0-0.48,0-0.96,0-1.44c0-0.42,0-0.84,0-1.27c0-0.41,0-0.83,0-1.25c0-0.9,0-1.8,0-2.7c-1.68,0-3.36,0-5.04,0c0,0.42,0,0.84,0,1.26
	c0,0.42,0,0.84,0,1.26C187.02,65.7,187.02,66.6,187.02,67.5z"/>
<path fill="#302F2E" d="M187.02,40.32c0,2.16,0,4.32,0,6.48c5.16,0,10.32,0,15.48,0c0-0.84,0-1.68,0-2.52c0-0.9,0-1.8,0-2.7
	c-0.841,0-1.681,0-2.521,0c-0.9,0-1.8,0-2.7,0c-0.84,0-1.68,0-2.52,0c-0.9,0-1.8,0-2.7,0c0-0.18,0-0.36,0-0.54c0-0.36,0-0.72,0-1.08
	c0-0.18,0-0.36,0-0.54c0-0.24,0-0.48,0-0.72c0-0.42,0-0.84,0-1.26s0-0.84,0-1.26c0-0.42,0-0.84,0-1.26s0-0.84,0-1.26
	c0-0.43,0-0.84,0-1.26s0-0.84,0-1.26c0-0.36,0-0.72,0-1.08c0-0.18,0-0.36,0-0.54c0-0.24,0-0.48,0-0.72c0-0.42,0-0.84,0-1.26
	c0-0.42,0-0.84,0-1.26s0-0.84,0-1.26s0-0.84,0-1.26c0-0.84,0-1.68,0-2.53c0-0.17,0-0.35,0-0.53c-1.68,0-3.36,0-5.04,0
	c0,0.24,0,0.48,0,0.72c0,0.12,0,0.24,0,0.36c0,0.24,0,0.48,0,0.72c0,0.54,0,1.08,0,1.62c0,1.08,0,2.16,0,3.24c0,2.16,0,4.32,0,6.48
	c0,1.08,0,2.16,0,3.24C187.02,38.16,187.02,39.23,187.02,40.32z"/>
<path fill="#302F2E" d="M187.02,7.92c0,0.84,0,1.68,0,2.52c5.16,0,10.32,0,15.48,0c0-0.36,0-0.72,0-1.08c0-0.18,0-0.36,0-0.54
	c0-0.24,0-0.48,0-0.72c0-0.18,0-0.37,0-0.54c0-0.18,0-0.36,0-0.54c0-0.42,0-0.84,0-1.26c0-0.18,0-0.36,0-0.54
	c-5.16,0-10.32,0-15.48,0c0,0.18,0,0.36,0,0.54c0,0.12,0,0.24,0,0.36c0,0.18,0,0.36,0,0.54C187.02,7.08,187.02,7.5,187.02,7.92z"/>
<path fill="#302F2E" d="M192.06,202.49c0,1.74,0,3.49,0,5.23c6.96,0,13.92,0,20.88,0c0-2.58,0-5.16,0-7.74c0-0.12,0-0.25,0-0.37
	c0-0.17,0-0.35,0-0.54c0-0.17,0-0.35,0-0.54c0-0.17,0-0.35,0-0.54c0-0.11,0-0.229,0-0.35c0-0.181,0-0.36,0-0.54
	c0-0.181,0-0.37,0-0.54c0-0.181,0-0.37,0-0.54c0-0.12,0-0.24,0-0.37c0-0.17,0-0.35,0-0.54c0-0.17,0-0.35,0-0.54
	c0-0.17,0-0.35,0-0.54c0-0.11,0-0.229,0-0.35c0-0.19,0-0.36,0-0.54c0-0.181,0-0.36,0-0.54c0-0.181,0-0.37,0-0.54
	c-1.74,0-3.479,0-5.22,0c0,3.47,0,6.96,0,10.43c-0.12,0-0.24,0-0.36,0c-2.52,0-5.04,0-7.56,0
	C197.22,202.49,194.64,202.49,192.06,202.49z"/>
<path fill="#302F2E" d="M192.06,127.081c0,0.899,0,1.799,0,2.699c0.84,0,1.68,0,2.52,0c0.9,0,1.801,0,2.7,0c0.84,0,1.681,0,2.521,0
	c0.899,0,1.8,0,2.7,0c0.84,0,1.68,0,2.52,0c0.9,0,1.8,0,2.7,0c0.84,0,1.68,0,2.52,0c0.9,0,1.8,0,2.7,0c0-1.74,0-3.48,0-5.22
	c-6.96,0-13.92,0-20.88,0C192.06,125.4,192.06,126.23,192.06,127.081z"/>
<path fill="#814221" d="M192.06,119.52c0,1.68,0,3.359,0,5.04c6.96,0,13.92,0,20.88,0c0-1.681,0-3.36,0-5.04c0.18,0,0.36,0,0.54,0
	c1.38,0,2.76,0,4.14,0c0.181,0,0.36,0,0.54,0c0-1.74,0-3.48,0-5.221c-1.739,0-3.479,0-5.22,0c0-1.739,0-3.479,0-5.219
	c-1.74,0-3.479,0-5.22,0c0,1.739,0,3.479,0,5.219c-0.181,0-0.36,0-0.54,0c-1.561,0-3.12,0-4.68,0c0,1.74,0,3.48,0,5.221
	c-0.181,0-0.36,0-0.54,0c-3.12,0-6.24,0-9.36,0C192.42,119.52,192.239,119.52,192.06,119.52z"/>
<path fill="#302F2E" d="M192.06,57.06c0,1.74,0,3.48,0,5.22c1.62,0,3.24,0,4.86,0c1.68,0,3.359,0,5.04,0c0.18,0,0.359,0,0.54,0
	c0-1.74,0-3.48,0-5.22c-1.62,0-3.24,0-4.86,0c-1.68,0-3.36,0-5.04,0C192.42,57.06,192.239,57.06,192.06,57.06z"/>
<path fill="#302F2E" d="M197.279,190.98c0,0.36,0,0.71,0,1.08c3.48,0,6.96,0,10.44,0c0-1.5,0-3,0-4.5c0-0.181,0-0.37,0-0.54
	c-1.74,0-3.48,0-5.22,0c0-0.84,0-1.68,0-2.53c0-0.42,0-0.84,0-1.26c0-0.47,0-0.95,0-1.43c0-0.421,0-0.841,0-1.261s0-0.84,0-1.26
	c0-0.9,0-1.8,0-2.699c-0.421,0-0.841,0-1.261,0s-0.84,0-1.26,0s-0.84,0-1.26,0c-0.48,0-0.96,0-1.44,0c0,0.119,0,0.239,0,0.359
	c0,0.18,0,0.359,0,0.54c0,0.12,0,0.239,0,0.36c0,0.18,0,0.359,0,0.539c0,0.121,0,0.24,0,0.36c0,0.181,0,0.36,0,0.54
	c0,0.359,0,0.721,0,1.08c0,0.12,0,0.24,0,0.359c0,0.181,0,0.361,0,0.541c0,0.35,0,0.72,0,1.08c0,0.119,0,0.229,0,0.35
	c0,0.189,0,0.37,0,0.54c0,0.37,0,0.729,0,1.09c0,0.12,0,0.24,0,0.36c0,0.3,0,0.6,0,0.89c0,0.19,0,0.37,0,0.54c0,0.31,0,0.61,0,0.91
	c0,0.359,0,0.71,0,1.08c0,0.3,0,0.59,0,0.89c0,0.37,0,0.73,0,1.08C197.279,190.379,197.279,190.68,197.279,190.98z"/>
<path fill="#814221" d="M202.5,184.49c0,0.851,0,1.69,0,2.53c1.739,0,3.479,0,5.22,0c0,0.17,0,0.359,0,0.54c0,1.5,0,3,0,4.5
	c1.74,0,3.479,0,5.22,0c0,0.17,0,0.359,0,0.54c0,0.18,0,0.359,0,0.54c0,0.18,0,0.35,0,0.54c0,0.12,0,0.239,0,0.35
	c0,0.19,0,0.37,0,0.54c0,0.19,0,0.37,0,0.54c0,0.19,0,0.37,0,0.54c0,0.13,0,0.25,0,0.37c0,0.17,0,0.359,0,0.54
	c0,0.17,0,0.359,0,0.54c0,0.18,0,0.359,0,0.54c0,0.12,0,0.239,0,0.35c0,0.19,0,0.37,0,0.54c0,0.19,0,0.37,0,0.54
	c0,0.19,0,0.37,0,0.54c0,0.12,0,0.25,0,0.37c0,2.58,0,5.16,0,7.74c6.9,0,13.8,0,20.7,0c0-1.74,0-3.49,0-5.23c-3.42,0-6.84,0-10.26,0
	c0-0.17,0-0.35,0-0.53c0-3.119,0-6.239,0-9.359c0-0.181,0-0.37,0-0.54c-1.74,0-3.48,0-5.221,0c0-1.681,0-3.37,0-5.04
	c-1.739,0-3.479,0-5.22,0c0-1.26,0-2.53,0-3.79c0-0.12,0-0.24,0-0.351c0-0.189,0-0.359,0-0.539c0-0.19,0-0.36,0-0.54
	c0-0.19,0-0.36,0-0.54c0-0.121,0-0.24,0-0.36c0-0.181,0-0.36,0-0.54s0-0.359,0-0.54s0-0.36,0-0.54c0-0.12,0-0.24,0-0.359
	c0-0.181,0-0.36,0-0.541c0-0.18,0-0.359,0-0.539c0-0.181,0-0.36,0-0.541c0-0.119,0-0.239,0-0.359c0-0.18,0-0.359,0-0.54
	s0-0.36,0-0.54s0-0.359,0-0.54c0-0.12,0-0.239,0-0.36c0-0.18,0-0.359,0-0.539c0-0.181,0-0.36,0-0.541c0-0.18,0-0.359,0-0.539
	c0-0.121,0-0.24,0-0.36c0-0.181,0-0.36,0-0.54s0-0.359,0-0.54s0-0.36,0-0.54c-0.84,0-1.68,0-2.52,0c-0.9,0-1.801,0-2.7,0
	c0,0.84,0,1.68,0,2.52c0,0.9,0,1.801,0,2.701c-0.42,0-0.84,0-1.26,0c-0.181,0-0.36,0-0.54,0c-0.24,0-0.48,0-0.721,0
	c-0.42,0-0.84,0-1.26,0c-0.479,0-0.96,0-1.439,0c0,0.899,0,1.799,0,2.699c0,0.42,0,0.84,0,1.26s0,0.84,0,1.261
	c0,0.479,0,0.96,0,1.43C202.5,183.65,202.5,184.07,202.5,184.49z"/>
<path fill="#302F2E" d="M202.5,173.879c0,0.9,0,1.801,0,2.701c0.479,0,0.96,0,1.439,0c0.42,0,0.84,0,1.26,0c0.24,0,0.48,0,0.721,0
	c0.18,0,0.359,0,0.54,0c0.42,0,0.84,0,1.26,0c0-0.9,0-1.801,0-2.701c0-0.84,0-1.68,0-2.52c0.899,0,1.8,0,2.7,0c0.84,0,1.68,0,2.52,0
	c0-1.74,0-3.48,0-5.221c-1.62,0-3.24,0-4.86,0c-1.68,0-3.359,0-5.04,0c-0.18,0-0.359,0-0.539,0c0,0.061,0,0.121,0,0.181
	c0,0.84,0,1.681,0,2.521c0,0.42,0,0.84,0,1.26s0,0.84,0,1.26s0,0.84,0,1.26S202.5,173.459,202.5,173.879z"/>
<path fill="#302F2E" d="M202.5,109.081c0,1.739,0,3.479,0,5.219c1.56,0,3.119,0,4.68,0c0.18,0,0.359,0,0.54,0
	c0-1.739,0-3.479,0-5.219C205.979,109.081,204.239,109.081,202.5,109.081z"/>
<path fill="#302F2E" d="M202.5,55.8c0,0.42,0,0.84,0,1.26c1.739,0,3.479,0,5.22,0c0-0.18,0-0.36,0-0.54c0-3.06,0-6.12,0-9.18
	c0-0.18,0-0.36,0-0.54c-1.74,0-3.48,0-5.22,0c0,0.3,0,0.6,0,0.9c0,0.18,0,0.36,0,0.53c0,0.43,0,0.85,0,1.27s0,0.84,0,1.26
	s0,0.84,0,1.26s0,0.84,0,1.26s0,0.84,0,1.26C202.5,54.96,202.5,55.38,202.5,55.8z"/>
<path fill="#302F2E" d="M202.5,15.12c0,0.18,0,0.36,0,0.54c1.739,0,3.479,0,5.22,0c0-0.18,0-0.36,0-0.54c0-0.18,0-0.36,0-0.54
	c0-0.18,0-0.36,0-0.54c0-0.24,0-0.48,0-0.72c0-0.18,0-0.36,0-0.54c0-0.18,0-0.36,0-0.55c0-0.41,0-0.83,0-1.25c0-0.18,0-0.36,0-0.54
	c-0.061,0-0.12,0-0.181,0c-0.06,0-0.119,0-0.18,0c-0.12,0-0.24,0-0.359,0c-0.24,0-0.48,0-0.721,0c-0.42,0-0.84,0-1.26,0
	s-0.84,0-1.26,0s-0.84,0-1.26,0c0,0.78,0,1.56,0,2.34C202.5,13.56,202.5,14.34,202.5,15.12z"/>
<path fill="#302F2E" d="M207.72,103.86c0,1.74,0,3.48,0,5.221c1.74,0,3.479,0,5.22,0c0,1.739,0,3.479,0,5.219c1.74,0,3.48,0,5.22,0
	c0-2.16,0-4.319,0-6.479s0-4.319,0-6.479s0-4.32,0-6.48c0-1.08,0-2.16,0-3.24c0-0.539,0-1.08,0-1.619c0-0.121,0-0.24,0-0.361
	c0-0.18,0-0.359,0-0.539c0-0.12,0-0.24,0-0.37c0-0.17,0-0.351,0-0.53c-0.84,0-1.68,0-2.52,0c-0.42,0-0.84,0-1.26,0
	c-0.48,0-0.96,0-1.44,0c0,1.26,0,2.52,0,3.78c0,0.12,0,0.239,0,0.36c0,0.18,0,0.359,0,0.539c0,0.181,0,0.351,0,0.541
	c0,0.18,0,0.359,0,0.539c0,0.121,0,0.24,0,0.36c0,0.181,0,0.36,0,0.54s0,0.359,0,0.54s0,0.36,0,0.54c0,0.12,0,0.24,0,0.359
	c0,0.181,0,0.36,0,0.541c0,0.18,0,0.359,0,0.539c0,0.181,0,0.351,0,0.541c0,0.119,0,0.239,0,0.359c0,0.18,0,0.359,0,0.54
	s0,0.36,0,0.54s0,0.359,0,0.54c0,0.12,0,0.239,0,0.36c0,0.18,0,0.359,0,0.539c0,0.181,0,0.36,0,0.541c0,0.18,0,0.359,0,0.539
	c0,0.121,0,0.24,0,0.351c0,0.19,0,0.37,0,0.55s0,0.359,0,0.54s0,0.36,0,0.54C211.199,103.86,209.46,103.86,207.72,103.86z"/>
<path fill="#302F2E" d="M207.72,18.18c0,0.84,0,1.68,0,2.52c0.42,0,0.84,0,1.26,0s0.84,0,1.26,0c0.9,0,1.8,0,2.7,0
	c0-0.72,0-1.44,0-2.16c0-0.18,0-0.36,0-0.54c0-0.18,0-0.36,0-0.54c0-0.42,0-0.84,0-1.26c0-0.18,0-0.36,0-0.54
	c-1.74,0-3.479,0-5.22,0C207.72,16.5,207.72,17.34,207.72,18.18z"/>
<path fill="#302F2E" d="M212.939,212.94c0,1.74,0,3.479,0,5.21c2.16,0,4.32,0,6.48,0c2.159,0,4.319,0,6.479,0s4.32,0,6.48,0
	c2.159,0,4.319,0,6.479,0c0-2.58,0-5.15,0-7.73c0-2.579,0-5.159,0-7.739s0-5.16,0-7.74c0-2.64,0-5.29,0-7.92c-1.74,0-3.479,0-5.22,0
	c0,0.59,0,1.2,0,1.8c0,0.66,0,1.32,0,1.98c0,0.3,0,0.6,0,0.89c0,0.37,0,0.729,0,1.09c0,0.66,0,1.32,0,1.98c0,0.6,0,1.199,0,1.8
	c0,0.66,0,1.319,0,1.97c0,0.311,0,0.61,0,0.91c0,0.36,0,0.71,0,1.08c0,0.66,0,1.32,0,1.97c0,1.74,0,3.49,0,5.23
	c-6.9,0-13.8,0-20.7,0C212.939,209.459,212.939,211.19,212.939,212.94z"/>
<path fill="#A06141" d="M212.939,183.23c0,1.26,0,2.53,0,3.79c1.74,0,3.48,0,5.22,0c0,1.67,0,3.359,0,5.04c1.74,0,3.48,0,5.221,0
	c0,0.17,0,0.359,0,0.54c0,3.12,0,6.24,0,9.359c0,0.181,0,0.36,0,0.53c3.42,0,6.84,0,10.26,0c0-0.649,0-1.31,0-1.97
	c0-0.37,0-0.72,0-1.08c0-0.3,0-0.6,0-0.91c0-0.65,0-1.31,0-1.97c0-0.601,0-1.2,0-1.8c0-0.66,0-1.32,0-1.98c0-0.36,0-0.72,0-1.09
	c0-0.29,0-0.59,0-0.89c0-0.66,0-1.32,0-1.98c0-0.6,0-1.21,0-1.8c-1.74,0-3.48,0-5.22,0c0-0.18,0-0.37,0-0.54c0-0.84,0-1.68,0-2.521
	c0-0.43,0-0.85,0-1.27c0-0.41,0-0.83,0-1.25s0-0.84,0-1.26s0-0.84,0-1.26c0-0.24,0-0.48,0-0.721c0-0.18,0-0.359,0-0.54
	c0-0.18,0-0.36,0-0.54s0-0.359,0-0.539c-1.681,0-3.36,0-5.04,0c0-0.181,0-0.361,0-0.541c0-0.24,0-0.479,0-0.72
	c0-0.181,0-0.36,0-0.54s0-0.359,0-0.54c0-0.18,0-0.36,0-0.54c0-0.42,0-0.84,0-1.26c0-0.18,0-0.359,0-0.54s0-0.36,0-0.54
	c-0.841,0-1.681,0-2.521,0c-0.899,0-1.8,0-2.7,0c0-1.74,0-3.48,0-5.221c-0.84,0-1.68,0-2.52,0c-0.9,0-1.8,0-2.7,0
	c0,1.74,0,3.48,0,5.221c0,0.18,0,0.359,0,0.54s0,0.36,0,0.54s0,0.359,0,0.54c0,0.12,0,0.239,0,0.36c0,0.18,0,0.359,0,0.539
	c0,0.181,0,0.36,0,0.541c0,0.18,0,0.359,0,0.539c0,0.121,0,0.24,0,0.36c0,0.181,0,0.36,0,0.54s0,0.359,0,0.54s0,0.36,0,0.54
	c0,0.12,0,0.24,0,0.359c0,0.181,0,0.36,0,0.541c0,0.18,0,0.359,0,0.539c0,0.181,0,0.36,0,0.541c0,0.119,0,0.239,0,0.359
	c0,0.18,0,0.359,0,0.54s0,0.36,0,0.54s0,0.359,0,0.54c0,0.12,0,0.239,0,0.36c0,0.18,0,0.35,0,0.54c0,0.18,0,0.35,0,0.54
	c0,0.18,0,0.35,0,0.539C212.939,182.99,212.939,183.11,212.939,183.23z"/>
<path fill="#814221" d="M212.939,155.16c0,0.181,0,0.36,0,0.54c0.061,0,0.12,0,0.18,0c2.101,0,4.2,0,6.301,0
	c2.159,0,4.319,0,6.479,0s4.32,0,6.48,0c2.159,0,4.319,0,6.479,0c0-1.68,0-3.359,0-5.04c-5.16,0-10.32,0-15.479,0
	c0-0.84,0-1.68,0-2.521c0-0.42,0-0.84,0-1.26c0-0.479,0-0.959,0-1.439c0-0.84,0-1.68,0-2.52c0-0.9,0-1.801,0-2.701
	c1.68,0,3.359,0,5.04,0c0-0.18,0-0.359,0-0.539c0-1.381,0-2.76,0-4.141c0-0.18,0-0.359,0-0.539c-1.681,0-3.36,0-5.04,0
	c0-0.841,0-1.681,0-2.521c0-0.42,0-0.841,0-1.261c0-0.489,0-0.959,0-1.439c0-0.84,0-1.68,0-2.52c0-0.9,0-1.801,0-2.7
	c-1.74,0-3.48,0-5.221,0c-1.739,0-3.479,0-5.22,0c0,1.739,0,3.479,0,5.22c1.74,0,3.48,0,5.22,0c0,2.58,0,5.16,0,7.74
	c0,0.119,0,0.24,0,0.359c0,0.181,0,0.351,0,0.541c0,0.359,0,0.719,0,1.08c0,0.119,0,0.229,0,0.359c0,0.18,0,0.359,0,0.54
	c0,0.36,0,0.72,0,1.08c0,0.12,0,0.239,0,0.36c0,0.18,0,0.359,0,0.539c0,0.36,0,0.721,0,1.08c0,0.121,0,0.24,0,0.36
	c0,0.181,0,0.36,0,0.54c0,0.359,0,0.721,0,1.08c-1.739,0-3.479,0-5.22,0c0,0.18,0,0.359,0,0.54c0,1.5,0,3,0,4.5
	c0,0.18,0,0.36,0,0.54s0,0.359,0,0.54c0,0.18,0,0.36,0,0.54c0,0.24,0,0.48,0,0.72c0,0.181,0,0.36,0,0.54s0,0.359,0,0.54
	C212.939,154.32,212.939,154.74,212.939,155.16z"/>
<path fill="#302F2E" d="M212.939,119.52c0,1.68,0,3.359,0,5.04c1.74,0,3.48,0,5.22,0c1.74,0,3.48,0,5.221,0c0-0.841,0-1.681,0-2.521
	c0-0.42,0-0.84,0-1.26s0-0.84,0-1.26c0-0.84,0-1.68,0-2.52c0-0.9,0-1.801,0-2.701c-1.74,0-3.48,0-5.221,0c0,1.74,0,3.48,0,5.221
	c-0.18,0-0.359,0-0.54,0c-1.38,0-2.76,0-4.14,0C213.3,119.52,213.119,119.52,212.939,119.52z"/>
<path fill="#302F2E" d="M212.939,24.48c0,0.48,0,0.96,0,1.44c1.74,0,3.48,0,5.22,0c0-0.78,0-1.56,0-2.34c0-0.36,0-0.72,0-1.08
	c0-0.18,0-0.36,0-0.54c0-0.24,0-0.48,0-0.73c0-0.17,0-0.35,0-0.53c-0.06,0-0.12,0-0.18,0s-0.12,0-0.18,0c-0.12,0-0.24,0-0.36,0
	c-0.24,0-0.479,0-0.72,0c-0.42,0-0.84,0-1.26,0c-0.421,0-0.841,0-1.261,0s-0.84,0-1.26,0c0,0.84,0,1.68,0,2.52
	C212.939,23.64,212.939,24.06,212.939,24.48z"/>
<path fill="#302F2E" d="M218.159,166.139c0,1.74,0,3.48,0,5.221c0.9,0,1.801,0,2.7,0c0.84,0,1.68,0,2.521,0c0-1.74,0-3.48,0-5.221
	c-0.841,0-1.681,0-2.521,0C219.96,166.139,219.06,166.139,218.159,166.139z"/>
<path fill="#814221" d="M218.159,107.82c0,2.16,0,4.319,0,6.479c1.74,0,3.48,0,5.221,0c0-1.739,0-3.479,0-5.219
	c1.68,0,3.359,0,5.04,0c0-1.74,0-3.48,0-5.221c2.58,0,5.159,0,7.739,0c2.521,0,5.04,0,7.561,0c0.12,0,0.24,0,0.359,0
	c0,1.74,0,3.48,0,5.221c1.74,0,3.48,0,5.221,0c0-1.261,0-2.521,0-3.781c0-0.299,0-0.6,0-0.899c0-0.36,0-0.72,0-1.08
	c0-0.66,0-1.319,0-1.979c0-0.301,0-0.61,0-0.9c0-0.359,0-0.721,0-1.08c0-0.66,0-1.32,0-1.98c0-0.299,0-0.6,0-0.899
	c0-0.36,0-0.72,0-1.08c0-0.67,0-1.319,0-1.979c-1.74,0-3.48,0-5.221,0c0,1.739,0,3.479,0,5.219c-1.739,0-3.479,0-5.22,0
	s-3.479,0-5.22,0c0-0.18,0-0.359,0-0.539c0-1.381,0-2.76,0-4.141c0-0.18,0-0.359,0-0.539c-1.74,0-3.48,0-5.22,0
	c0-0.84,0-1.681,0-2.521c0-0.42,0-0.84,0-1.261c0-0.42,0-0.84,0-1.26s0-0.84,0-1.26s0-0.84,0-1.26s0-0.84,0-1.26
	c0-0.48,0-0.961,0-1.44c0-0.43,0-0.84,0-1.26s0-0.84,0-1.261c0-0.42,0-0.84,0-1.26c0-0.479,0-0.959,0-1.439c0-0.42,0-0.84,0-1.26
	s0-0.84,0-1.26c0-0.9,0-1.801,0-2.701c-1.681,0-3.36,0-5.04,0c0,0.361,0,0.721,0,1.08c0,0.181,0,0.36,0,0.541
	c0,0.119,0,0.24,0,0.359c0,0.36,0,0.721,0,1.08c0,0.18,0,0.359,0,0.54c0,0.12,0,0.24,0,0.36c0,1.26,0,2.52,0,3.779
	c0,0.36,0,0.721,0,1.08c0,0.18,0,0.36,0,0.541c0,0.119,0,0.239,0,0.359c0,0.359,0,0.72,0,1.08c0,0.18,0,0.359,0,0.54
	c0,0.12,0,0.239,0,0.36c0,1.26,0,2.52,0,3.779c-0.48,0-0.96,0-1.44,0c-0.42,0-0.84,0-1.26,0c-0.84,0-1.68,0-2.521,0
	c0,0.18,0,0.36,0,0.53c0,0.13,0,0.25,0,0.37c0,0.18,0,0.359,0,0.539c0,0.121,0,0.24,0,0.361c0,0.539,0,1.08,0,1.619
	c0,1.08,0,2.16,0,3.24c0,2.16,0,4.32,0,6.48S218.159,105.66,218.159,107.82z"/>
<path fill="#302F2E" d="M218.159,87.12c0,0.36,0,0.721,0,1.08c0.841,0,1.681,0,2.521,0c0.42,0,0.84,0,1.26,0c0.48,0,0.96,0,1.44,0
	c0-1.26,0-2.52,0-3.779c0-0.121,0-0.24,0-0.36c0-0.181,0-0.36,0-0.54c0-0.36,0-0.721,0-1.08c0-0.12,0-0.24,0-0.359
	c0-0.181,0-0.361,0-0.541c0-0.359,0-0.72,0-1.08c0-1.26,0-2.52,0-3.779c0-0.12,0-0.24,0-0.36c0-0.181,0-0.36,0-0.54
	c0-0.359,0-0.72,0-1.08c0-0.119,0-0.24,0-0.359c0-0.181,0-0.36,0-0.541c0-0.359,0-0.719,0-1.08c-1.74,0-3.48,0-5.221,0
	c0,2.58,0,5.16,0,7.74c0,1.26,0,2.521,0,3.771c0,0.13,0,0.25,0,0.37c0,0.18,0,0.359,0,0.539c0,0.361,0,0.721,0,1.08
	c0,0.121,0,0.24,0,0.361C218.159,86.76,218.159,86.94,218.159,87.12z"/>
<path fill="#302F2E" d="M218.159,30.6c0,0.18,0,0.36,0,0.54c1.74,0,3.48,0,5.221,0c0-1.74,0-3.48,0-5.22c-1.74,0-3.48,0-5.221,0
	c0,0.36,0,0.72,0,1.08c0,0.42,0,0.84,0,1.26c0,0.36,0,0.72,0,1.08c0,0.18,0,0.36,0,0.54C218.159,30.12,218.159,30.36,218.159,30.6z"
	/>
<path fill="#302F2E" d="M223.38,176.04c0,0.18,0,0.36,0,0.541c1.68,0,3.359,0,5.04,0c0-0.181,0-0.361,0-0.541s0-0.359,0-0.539
	c0-0.181,0-0.361,0-0.541c0-0.24,0-0.479,0-0.72c0-0.18,0-0.36,0-0.54s0-0.359,0-0.54c0-0.42,0-0.84,0-1.26c0-0.181,0-0.36,0-0.54
	c-1.681,0-3.36,0-5.04,0c0,0.18,0,0.359,0,0.54s0,0.36,0,0.54c0,0.42,0,0.84,0,1.26c0,0.18,0,0.36,0,0.54c0,0.181,0,0.36,0,0.54
	s0,0.359,0,0.54C223.38,175.56,223.38,175.799,223.38,176.04z"/>
<path fill="#A06141" d="M223.38,148.139c0,0.841,0,1.681,0,2.521c5.159,0,10.319,0,15.479,0c0-0.899,0-1.8,0-2.7
	c0-0.84,0-1.68,0-2.52c1.74,0,3.48,0,5.22,0c0-0.359,0-0.721,0-1.08c0-0.18,0-0.359,0-0.54c0-0.12,0-0.239,0-0.36
	c0-0.66,0-1.32,0-1.979c0-0.181,0-0.36,0-0.54s0-0.359,0-0.54s0-0.36,0-0.54c0-0.13,0-0.24,0-0.359c0-0.66,0-1.32,0-1.98
	c0-2.58,0-5.16,0-7.74c1.74,0,3.48,0,5.221,0c0-0.84,0-1.68,0-2.52c0-0.42,0-0.84,0-1.26s0-0.841,0-1.271c0-0.83,0-1.67,0-2.511
	c0-0.42,0-0.84,0-1.26c0-0.479,0-0.959,0-1.439c0-0.84,0-1.68,0-2.52c0-0.42,0-0.841,0-1.271c0-0.47,0-0.95,0-1.431
	c0-0.84,0-1.68,0-2.52c0-0.42,0-0.84,0-1.26c0-0.48,0-0.96,0-1.439c-1.74,0-3.48,0-5.221,0c0-1.74,0-3.48,0-5.221
	c-0.119,0-0.239,0-0.359,0c-2.521,0-5.04,0-7.561,0c-2.58,0-5.159,0-7.739,0c0,1.74,0,3.48,0,5.221c-1.681,0-3.36,0-5.04,0
	c0,1.739,0,3.479,0,5.219c0,0.9,0,1.801,0,2.701c0,0.84,0,1.68,0,2.52c0,0.42,0,0.84,0,1.26s0,0.84,0,1.26c0,0.84,0,1.68,0,2.521
	c0,0.899,0,1.8,0,2.7c0,0.84,0,1.68,0,2.52c0,0.48,0,0.95,0,1.439c0,0.42,0,0.841,0,1.261c0,0.84,0,1.68,0,2.521
	c1.68,0,3.359,0,5.04,0c0,0.18,0,0.359,0,0.539c0,1.381,0,2.76,0,4.141c0,0.18,0,0.359,0,0.539c-1.681,0-3.36,0-5.04,0
	c0,0.9,0,1.801,0,2.701c0,0.84,0,1.68,0,2.52c0,0.48,0,0.96,0,1.439C223.38,147.299,223.38,147.719,223.38,148.139z"/>
<path fill="#302F2E" d="M223.38,70.02c0,0.9,0,1.8,0,2.699c1.68,0,3.359,0,5.04,0c0-1.739,0-3.479,0-5.219c0-1.74,0-3.48,0-5.22
	c-1.681,0-3.36,0-5.04,0c0,0.84,0,1.68,0,2.52c0,0.42,0,0.84,0,1.26c0,0.48,0,0.96,0,1.44C223.38,68.34,223.38,69.179,223.38,70.02z
	"/>
<path fill="#302F2E" d="M223.38,33.66c0,0.9,0,1.8,0,2.7c1.68,0,3.359,0,5.04,0c0-0.36,0-0.72,0-1.08c0-0.18,0-0.36,0-0.55
	c0-0.23,0-0.47,0-0.71c0-0.36,0-0.72,0-1.08c0-0.42,0-0.84,0-1.26c0-0.18,0-0.36,0-0.54c-1.681,0-3.36,0-5.04,0
	C223.38,31.98,223.38,32.82,223.38,33.66z"/>
<path fill="#302F2E" d="M228.42,186.48c0,0.17,0,0.36,0,0.54c1.739,0,3.479,0,5.22,0c0-0.79,0-1.561,0-2.34c0-0.84,0-1.69,0-2.53
	c0-1.67,0-3.351,0-5.03c0-0.18,0-0.359,0-0.539c-0.061,0-0.12,0-0.18,0c-0.061,0-0.12,0-0.181,0c-0.12,0-0.24,0-0.359,0
	c-0.24,0-0.48,0-0.721,0c-0.18,0-0.359,0-0.54,0c-0.239,0-0.479,0-0.72,0c-0.42,0-0.84,0-1.26,0s-0.84,0-1.26,0
	c0,0.18,0,0.359,0,0.539s0,0.36,0,0.54c0,0.181,0,0.36,0,0.54c0,0.24,0,0.48,0,0.721c0,0.42,0,0.84,0,1.26s0,0.84,0,1.26
	s0,0.84,0,1.25c0,0.42,0,0.84,0,1.27C228.42,184.8,228.42,185.64,228.42,186.48z"/>
<path fill="#A06141" d="M228.42,90.9c0,0.84,0,1.681,0,2.521c1.739,0,3.479,0,5.22,0c0,0.18,0,0.359,0,0.539c0,1.381,0,2.76,0,4.141
	c0,0.18,0,0.359,0,0.539c1.74,0,3.479,0,5.22,0s3.48,0,5.22,0c0-1.739,0-3.479,0-5.219c1.74,0,3.48,0,5.221,0c0-2.16,0-4.32,0-6.48
	c0-1.08,0-2.16,0-3.24s0-2.16,0-3.24c0-2.16,0-4.32,0-6.479c0-2.16,0-4.32,0-6.48c-1.74,0-3.48,0-5.221,0c0-1.74,0-3.48,0-5.22
	c-1.739,0-3.479,0-5.22,0s-3.479,0-5.22,0c0,1.74,0,3.48,0,5.22c-0.18,0-0.36,0-0.54,0c-1.561,0-3.12,0-4.68,0
	c0,1.74,0,3.48,0,5.219c0,0.9,0,1.801,0,2.701c0,0.42,0,0.84,0,1.26s0,0.84,0,1.26c0,0.48,0,0.96,0,1.439c0,0.42,0,0.84,0,1.26
	c0,0.421,0,0.841,0,1.261s0,0.83,0,1.26c0,0.479,0,0.96,0,1.44c0,0.42,0,0.84,0,1.26s0,0.84,0,1.26s0,0.84,0,1.26s0,0.84,0,1.26
	C228.42,90.06,228.42,90.48,228.42,90.9z"/>
<path fill="#814221" d="M228.42,62.28c0,1.74,0,3.48,0,5.22c1.56,0,3.119,0,4.68,0c0.18,0,0.36,0,0.54,0c0-1.74,0-3.48,0-5.22
	C231.899,62.28,230.159,62.28,228.42,62.28z"/>
<path fill="#302F2E" d="M228.42,60.66c0,0.54,0,1.07,0,1.62c1.739,0,3.479,0,5.22,0c0-1.74,0-3.48,0-5.22c0-0.9,0-1.8,0-2.7
	c0-0.84,0-1.68,0-2.52c1.74,0,3.479,0,5.22,0c0-1.5,0-3,0-4.5c0-0.18,0-0.36,0-0.54c-1.74,0-3.479,0-5.22,0c0-0.84,0-1.68,0-2.52
	c0-0.9,0-1.8,0-2.7c0-1.74,0-3.48,0-5.22c-1.74,0-3.48,0-5.22,0c0,0.24,0,0.48,0,0.72c0,0.12,0,0.24,0,0.36c0,0.18,0,0.36,0,0.54
	c0,0.24,0,0.48,0,0.72c0,0.12,0,0.24,0,0.36c0,0.17,0,0.36,0,0.54c0,0.24,0,0.48,0,0.72c0,0.12,0,0.24,0,0.36c0,0.18,0,0.36,0,0.54
	c0,0.24,0,0.48,0,0.72c0,0.12,0,0.24,0,0.36c0,0.18,0,0.36,0,0.54c0,0.24,0,0.48,0,0.72c0,0.12,0,0.24,0,0.36c0,0.18,0,0.36,0,0.54
	c0,0.24,0,0.48,0,0.72c0,0.12,0,0.24,0,0.36c0,0.18,0,0.36,0,0.54c0,0.54,0,1.08,0,1.62c0,0.24,0,0.48,0,0.72c0,0.3,0,0.6,0,0.9
	c0,0.54,0,1.08,0,1.62c0,0.24,0,0.48,0,0.72c0,0.3,0,0.6,0,0.9c0,0.54,0,1.08,0,1.62c0,0.24,0,0.48,0,0.72c0,0.12,0,0.24,0,0.36
	c0,0.18,0,0.36,0,0.54c0,0.54,0,1.08,0,1.62c0,0.24,0,0.48,0,0.72c0,0.12,0,0.24,0,0.36c0,0.18,0,0.36,0,0.54
	C228.42,59.58,228.42,60.12,228.42,60.66z"/>
<path fill="#814221" d="M233.64,57.06c0,1.74,0,3.48,0,5.22c1.74,0,3.479,0,5.22,0s3.48,0,5.22,0c0-1.74,0-3.48,0-5.22
	c-1.739,0-3.479,0-5.22,0c0-1.74,0-3.48,0-5.22c-1.74,0-3.479,0-5.22,0c0,0.84,0,1.68,0,2.52
	C233.64,55.26,233.64,56.16,233.64,57.06z"/>
<path fill="#302F2E" d="M238.859,150.66c0,1.681,0,3.36,0,5.04c2.58,0,5.16,0,7.74,0c0.12,0,0.24,0,0.36,0c0.18,0,0.359,0,0.54,0
	c0.359,0,0.72,0,1.079,0c0.12,0,0.24,0,0.36,0c0.18,0,0.36,0,0.54,0c0.36,0,0.72,0,1.08,0c0.12,0,0.24,0,0.36,0
	c0.18,0,0.359,0,0.54,0c0.359,0,0.72,0,1.079,0c0.12,0,0.24,0,0.36,0c0.18,0,0.36,0,0.54,0c0.36,0,0.72,0,1.08,0
	c0-1.68,0-3.359,0-5.04c0.18,0,0.36,0,0.54,0c1.62,0,3.24,0,4.86,0c1.619,0,3.239,0,4.859,0c0-1.56,0-3.12,0-4.68
	c0-0.181,0-0.36,0-0.54c-0.06,0-0.12,0-0.18,0c-0.84,0-1.68,0-2.521,0c-0.84,0-1.68,0-2.52,0c-1.68,0-3.36,0-5.04,0
	c0-0.18,0-0.359,0-0.54c0-1.38,0-2.761,0-4.14c0-0.18,0-0.36,0-0.541c-1.74,0-3.48,0-5.22,0c0-0.84,0-1.68,0-2.52
	c0-0.42,0-0.84,0-1.26c0-0.48,0-0.96,0-1.439c0-0.841,0-1.681,0-2.521c0-0.42,0-0.841,0-1.261c0-0.489,0-0.959,0-1.439
	c-1.74,0-3.48,0-5.221,0c0,2.58,0,5.16,0,7.74c0,0.66,0,1.32,0,1.98c0,0.119,0,0.229,0,0.359c0,0.18,0,0.359,0,0.54s0,0.36,0,0.54
	s0,0.359,0,0.54c0,0.659,0,1.319,0,1.979c0,0.121,0,0.24,0,0.36c0,0.181,0,0.36,0,0.54c0,0.359,0,0.721,0,1.08c0,1.74,0,3.48,0,5.22
	c-0.899,0-1.8,0-2.699,0C240.539,150.66,239.699,150.66,238.859,150.66z"/>
<path fill="#814221" d="M238.859,147.959c0,0.9,0,1.801,0,2.7c0.84,0,1.68,0,2.521,0c0.899,0,1.8,0,2.699,0c0-1.739,0-3.479,0-5.22
	c-1.739,0-3.479,0-5.22,0C238.859,146.28,238.859,147.12,238.859,147.959z"/>
<path fill="#302F2E" d="M238.859,51.84c0,1.74,0,3.48,0,5.22c1.74,0,3.48,0,5.22,0c0-1.74,0-3.48,0-5.22
	C242.34,51.84,240.6,51.84,238.859,51.84z"/>
<path fill="#814221" d="M244.079,62.28c0,1.74,0,3.48,0,5.22c1.74,0,3.48,0,5.221,0c0-1.74,0-3.48,0-5.22
	C247.56,62.28,245.819,62.28,244.079,62.28z"/>
<path fill="#302F2E" d="M244.079,57.06c0,1.74,0,3.48,0,5.22c1.74,0,3.48,0,5.221,0c0-1.74,0-3.48,0-5.22
	C247.56,57.06,245.819,57.06,244.079,57.06z"/>
<path fill="#302F2E" d="M249.3,127.26c0,0.84,0,1.68,0,2.52c1.739,0,3.479,0,5.22,0c0-0.12,0-0.24,0-0.359c0-0.19,0-0.36,0-0.541
	c0-0.359,0-0.72,0-1.08c0-0.18,0-0.359,0-0.539s0-0.36,0-0.541c0-0.359,0-0.719,0-1.08c0-0.119,0-0.239,0-0.359
	c0-0.18,0-0.359,0-0.55c0-0.351,0-0.71,0-1.07c0-0.18,0-0.36,0-0.54s0-0.359,0-0.539c0-0.361,0-0.721,0-1.08c0-0.121,0-0.24,0-0.361
	c0-0.18,0-0.359,0-0.539c0-0.37,0-0.721,0-1.08c0-0.18,0-0.36,0-0.54c0-0.181,0-0.36,0-0.54c0-0.359,0-0.721,0-1.08
	c0-1.439,0-2.88,0-4.32c0-0.119,0-0.24,0-0.359c0-0.18,0-0.36,0-0.541c0-0.359,0-0.719,0-1.079c0-0.181,0-0.36,0-0.54s0-0.36,0-0.54
	c0-0.36,0-0.72,0-1.08c0-1.44,0-2.88,0-4.319c0-0.66,0-1.32,0-1.98c0-0.18,0-0.37,0-0.54c0-0.181,0-0.36,0-0.54
	c0-0.36,0-0.721,0-1.08c0-1.439,0-2.88,0-4.32c0-0.66,0-1.32,0-1.98c0-0.359,0-0.719,0-1.079s0-0.72,0-1.08c0-1.44,0-2.88,0-4.32
	c0-0.12,0-0.239,0-0.36c0-0.18,0-0.359,0-0.539c0-0.36,0-0.721,0-1.08c0-0.18,0-0.36,0-0.541c0-0.18,0-0.359,0-0.539
	c0-0.37,0-0.721,0-1.08c0-1.439,0-2.881,0-4.32c0-0.66,0-1.32,0-1.98c0-0.18,0-0.359,0-0.539s0-0.36,0-0.541
	c0-0.359,0-0.719,0-1.079c0-1.44,0-2.88,0-4.33c0-0.65,0-1.311,0-1.97c0-0.18,0-0.36,0-0.54c0-0.18,0-0.36,0-0.54
	c0-0.36,0-0.72,0-1.08c0-1.44,0-2.88,0-4.32c-1.74,0-3.48,0-5.22,0c0,1.74,0,3.48,0,5.22c0,2.16,0,4.32,0,6.48
	c0,2.159,0,4.319,0,6.479c0,1.08,0,2.16,0,3.24s0,2.16,0,3.24c0,2.16,0,4.32,0,6.48c0,0.66,0,1.31,0,1.979c0,0.36,0,0.72,0,1.08
	c0,0.3,0,0.601,0,0.899c0,0.66,0,1.32,0,1.98c0,0.359,0,0.721,0,1.08c0,0.29,0,0.6,0,0.9c0,0.66,0,1.319,0,1.979
	c0,0.36,0,0.72,0,1.08c0,0.3,0,0.601,0,0.899c0,1.261,0,2.521,0,3.781c0,0.479,0,0.959,0,1.439c0,0.42,0,0.84,0,1.26
	c0,0.84,0,1.68,0,2.52c0,0.48,0,0.961,0,1.431c0,0.43,0,0.851,0,1.271c0,0.84,0,1.68,0,2.52c0,0.48,0,0.96,0,1.439
	c0,0.42,0,0.84,0,1.26c0,0.841,0,1.681,0,2.511c0,0.43,0,0.851,0,1.271S249.3,126.84,249.3,127.26z"/>
<path fill="#302F2E" d="M254.52,158.219c0,0.9,0,1.801,0,2.701c0.18,0,0.36,0,0.54,0c1.5,0,3,0,4.5,0c0.18,0,0.36,0,0.54,0
	s0.36,0,0.54,0s0.36,0,0.54,0c0.24,0,0.479,0,0.72,0c0.18,0,0.36,0,0.54,0s0.36,0,0.54,0c0.42,0,0.84,0,1.26,0
	c0.181,0,0.36,0,0.54,0c0-1.74,0-3.48,0-5.221c-0.84,0-1.68,0-2.52,0s-1.681,0-2.521,0s-1.68,0-2.52,0c-0.9,0-1.8,0-2.7,0
	C254.52,156.54,254.52,157.379,254.52,158.219z"/>
<path fill="#814221" d="M254.52,150.66c0,1.681,0,3.36,0,5.04c0.9,0,1.8,0,2.7,0c0.84,0,1.68,0,2.52,0s1.681,0,2.521,0
	s1.68,0,2.52,0c0-1.68,0-3.359,0-5.04c-1.62,0-3.24,0-4.859,0c-1.62,0-3.24,0-4.86,0C254.88,150.66,254.699,150.66,254.52,150.66z"
	/>
<path fill="#302F2E" d="M264.779,150.66c0,1.681,0,3.36,0,5.04c0.84,0,1.681,0,2.521,0c0.899,0,1.8,0,2.7,0c0-0.18,0-0.359,0-0.54
	c0-0.12,0-0.239,0-0.36c0-0.18,0-0.359,0-0.539c0-0.36,0-0.721,0-1.08c0-0.12,0-0.24,0-0.36c0-0.181,0-0.36,0-0.54
	c0-0.359,0-0.72,0-1.08c0-0.18,0-0.359,0-0.54c-0.24,0-0.48,0-0.721,0s-0.479,0-0.72,0c-0.42,0-0.84,0-1.26,0
	C266.46,150.66,265.619,150.66,264.779,150.66z"/>
</svg>
