<?xml version="1.0" encoding="utf-8"?>
<!-- Generator: Adobe Illustrator 15.0.0, SVG Export Plug-In  -->
<!DOCTYPE svg PUBLIC "-//W3C//DTD SVG 1.1//EN" "http://www.w3.org/Graphics/SVG/1.1/DTD/svg11.dtd" [
	<!ENTITY ns_flows "http://ns.adobe.com/Flows/1.0/">
]>
<svg version="1.1"
	 xmlns="http://www.w3.org/2000/svg" xmlns:xlink="http://www.w3.org/1999/xlink" xmlns:a="http://ns.adobe.com/AdobeSVGViewerExtensions/3.0/"
	 x="0px" y="0px" width="300px" height="230px" viewBox="-15.04 -17.07 300 230" enable-background="new -15.04 -17.07 300 230"
	 xml:space="preserve">
<defs>
</defs>
<path fill="#302F2E" d="M0,114.3c0,1.68,0,3.359,0,5.04c0.9,0,1.8,0,2.7,0c0.84,0,1.68,0,2.52,0c0-1.681,0-3.36,0-5.04
	c-0.84,0-1.68,0-2.52,0c-0.42,0-0.84,0-1.26,0C0.96,114.3,0.48,114.3,0,114.3z"/>
<path fill="#302F2E" d="M5.22,129.24c0,0.18,0,0.36,0,0.541c1.74,0,3.48,0,5.221,0c0-0.9,0-1.801,0-2.701c0-0.84,0-1.68,0-2.52
	c0-1.561,0-3.12,0-4.68c0-0.18,0-0.37,0-0.54c-0.061,0-0.12,0-0.181,0c-1.68,0-3.359,0-5.04,0C5.22,122.64,5.22,125.94,5.22,129.24z
	"/>
<path fill="#D4D5D7" d="M5.22,114.3c0,1.68,0,3.359,0,5.04c1.681,0,3.36,0,5.04,0c0.061,0,0.12,0,0.181,0c0,0.17,0,0.36,0,0.54
	c0,1.56,0,3.119,0,4.68c0.899,0,1.8,0,2.699,0c0.841,0,1.681,0,2.521,0c0,1.74,0,3.48,0,5.221c3.42,0,6.84,0,10.26,0
	c0,1.739,0,3.479,0,5.219c3.48,0,6.96,0,10.44,0c0,1.74,0,3.48,0,5.221c5.22,0,10.439,0,15.66,0c5.159,0,10.319,0,15.479,0
	c0-0.84,0-1.68,0-2.52s0-1.69,0-2.521c0-0.06,0-0.12,0-0.181c5.22,0,10.44,0,15.66,0c0-0.899,0-1.799,0-2.699c0-0.84,0-1.68,0-2.52
	c-1.74,0-3.48,0-5.22,0c0-0.181,0-0.361,0-0.541c0-1.56,0-3.119,0-4.68s0-3.12,0-4.68c0-0.18,0-0.37,0-0.54c3.479,0,6.96,0,10.439,0
	c0-1.681,0-3.36,0-5.04c0-1.74,0-3.48,0-5.221c-5.22,0-10.439,0-15.66,0c0-1.739,0-3.479,0-5.219c-5.16,0-10.319,0-15.479,0
	c0-1.74,0-3.48,0-5.221c-3.48,0-6.96,0-10.44,0c-3.479,0-6.96,0-10.439,0c-1.681,0-3.36,0-5.04,0c-0.061,0-0.12,0-0.181,0
	c-0.84,0-1.68,0-2.52,0c-0.9,0-1.8,0-2.7,0c0,3.48,0,6.96,0,10.439c-1.68,0-3.36,0-5.04,0c0,1.74,0,3.48,0,5.221
	C15.66,114.3,10.44,114.3,5.22,114.3z"/>
<path fill="#302F2E" d="M5.22,109.08c0,1.74,0,3.48,0,5.221c5.221,0,10.44,0,15.66,0c0-1.74,0-3.48,0-5.221
	C15.66,109.08,10.44,109.08,5.22,109.08z"/>
<path fill="#302F2E" d="M10.44,132.3c0,0.9,0,1.8,0,2.699c1.739,0,3.479,0,5.22,0c0-1.739,0-3.479,0-5.219c-0.84,0-1.68,0-2.521,0
	c-0.899,0-1.8,0-2.699,0C10.44,130.621,10.44,131.46,10.44,132.3z"/>
<path fill="#FFFFFF" d="M10.44,127.08c0,0.9,0,1.801,0,2.701c0.899,0,1.8,0,2.699,0c0.841,0,1.681,0,2.521,0c0-1.74,0-3.48,0-5.221
	c-0.84,0-1.68,0-2.521,0c-0.899,0-1.8,0-2.699,0C10.44,125.4,10.44,126.24,10.44,127.08z"/>
<path fill="#302F2E" d="M15.66,137.52c0,0.899,0,1.8,0,2.7c0.84,0,1.68,0,2.52,0c0.841,0,1.681,0,2.521,0c1.74,0,3.479,0,5.22,0
	c0-1.74,0-3.48,0-5.221c-3.42,0-6.84,0-10.26,0C15.66,135.84,15.66,136.68,15.66,137.52z"/>
<path fill="#FFFFFF" d="M15.66,129.781c0,1.739,0,3.479,0,5.219c3.42,0,6.84,0,10.26,0c0-1.739,0-3.479,0-5.219
	C22.5,129.781,19.08,129.781,15.66,129.781z"/>
<path fill="#302F2E" d="M15.66,92.88c0,0.18,0,0.359,0,0.539c1.74,0,3.479,0,5.22,0c0-1.739,0-3.479,0-5.219c0.18,0,0.36,0,0.54,0
	c1.5,0,3,0,4.5,0c0,0.18,0,0.359,0,0.539c0,1.381,0,2.76,0,4.141c0,0.18,0,0.359,0,0.539c-1.68,0-3.36,0-5.04,0
	c0,0.301,0,0.591,0,0.9c0,0.301,0,0.6,0,0.9c0,0.3,0,0.6,0,0.9c0,0.359,0,0.72,0,1.08c0,0.299,0,0.6,0,0.899c0,0.36,0,0.72,0,1.08
	c0,0.12,0,0.239,0,0.36c0,0.18,0,0.359,0,0.539c0,0.36,0,0.721,0,1.08c0,0.121,0,0.24,0,0.351c0,0.19,0,0.37,0,0.55
	c0,0.359,0,0.721,0,1.08c0,0.12,0,0.24,0,0.359c0,0.181,0,0.361,0,0.541c0,0.359,0,0.72,0,1.08c0,0.119,0,0.24,0,0.359
	c0,0.18,0,0.36,0,0.53c0,0.37,0,0.729,0,1.09c0,0.12,0,0.24,0,0.36c0,0.18,0,0.359,0,0.539c0,0.361,0,0.721,0,1.08
	c1.68,0,3.36,0,5.04,0c0-3.479,0-6.959,0-10.439c0.9,0,1.8,0,2.7,0c0.84,0,1.68,0,2.52,0c0-1.74,0-3.48,0-5.221
	c0.181,0,0.36,0,0.54,0c0.721,0,1.44,0,2.16,0c0.66,0,1.32,0,1.98,0c0.18,0,0.359,0,0.54,0c0,1.74,0,3.48,0,5.221
	c3.479,0,6.96,0,10.439,0c3.48,0,6.96,0,10.44,0c0,1.74,0,3.48,0,5.221c5.16,0,10.319,0,15.479,0c0,1.739,0,3.479,0,5.219
	c5.221,0,10.44,0,15.66,0c5.16,0,10.32,0,15.48,0c0-1.739,0-3.479,0-5.219c-3.48,0-6.96,0-10.44,0c0-1.74,0-3.48,0-5.221
	c-3.42,0-6.84,0-10.26,0c-3.48,0-6.96,0-10.44,0c0-1.74,0-3.48,0-5.221c-5.16,0-10.319,0-15.479,0c0-0.18,0-0.359,0-0.539
	c0-1.381,0-2.76,0-4.141c0-0.18,0-0.359,0-0.539c-0.061,0-0.12,0-0.181,0c-0.239,0-0.479,0-0.72,0c-0.12,0-0.24,0-0.359,0
	c-0.181,0-0.36,0-0.54,0c-0.54,0-1.08,0-1.62,0c-1.08,0-2.16,0-3.24,0c-2.16,0-4.32,0-6.48,0c-4.319,0-8.64,0-12.96,0
	c0-0.19,0-0.36,0-0.541c0-0.119,0-0.24,0-0.359c0-0.18,0-0.36,0-0.54c0-0.36,0-0.72,0-1.08c0-0.181,0-0.36,0-0.54s0-0.359,0-0.54
	s0-0.36,0-0.54s0-0.359,0-0.55c0-0.17,0-0.351,0-0.53c-0.18,0-0.359,0-0.54,0c-0.18,0-0.359,0-0.54,0c-0.119,0-0.239,0-0.359,0
	c-0.18,0-0.36,0-0.54,0c-0.12,0-0.24,0-0.36,0c-0.18,0-0.359,0-0.54,0c-0.359,0-0.72,0-1.08,0c-1.26,0-2.52,0-3.779,0
	c-2.58,0-5.16,0-7.74,0c0,0.18,0,0.36,0,0.53c0,0.19,0,0.37,0,0.55s0,0.359,0,0.54c0,0.41,0,0.84,0,1.261c0,0.18,0,0.359,0,0.539
	s0,0.36,0,0.54c0,0.421,0,0.841,0,1.261c0,0.359,0,0.719,0,1.08c0,0.42,0,0.84,0,1.26c0,0.359,0,0.72,0,1.08c0,0.18,0,0.359,0,0.539
	C15.66,92.4,15.66,92.64,15.66,92.88z"/>
<path fill="#814221" d="M20.88,88.201c0,1.739,0,3.479,0,5.219c1.68,0,3.36,0,5.04,0c0-0.18,0-0.359,0-0.539c0-1.381,0-2.76,0-4.141
	c0-0.18,0-0.359,0-0.539c-1.5,0-3,0-4.5,0C21.24,88.201,21.06,88.201,20.88,88.201z"/>
<path fill="#302F2E" d="M25.92,142.74c0,0.9,0,1.801,0,2.7c0.84,0,1.68,0,2.521,0c0.899,0,1.8,0,2.699,0c0.841,0,1.681,0,2.521,0
	c0.899,0,1.8,0,2.7,0c0-1.739,0-3.479,0-5.22c-3.48,0-6.96,0-10.44,0C25.92,141.06,25.92,141.9,25.92,142.74z"/>
<path fill="#FFFFFF" d="M25.92,135c0,1.74,0,3.48,0,5.221c3.48,0,6.96,0,10.44,0c0-1.74,0-3.48,0-5.221
	C32.88,135,29.4,135,25.92,135z"/>
<path fill="#814221" d="M31.14,93.419c0,1.74,0,3.48,0,5.221c0.061,0,0.12,0,0.181,0c1.68,0,3.359,0,5.04,0c0-1.74,0-3.48,0-5.221
	c-0.181,0-0.36,0-0.54,0c-0.66,0-1.32,0-1.98,0c-0.72,0-1.439,0-2.16,0C31.5,93.419,31.32,93.419,31.14,93.419z"/>
<path fill="#302F2E" d="M36.36,145.44c0,1.681,0,3.36,0,5.04c2.58,0,5.16,0,7.739,0c2.58,0,5.16,0,7.74,0s5.16,0,7.74,0
	c0.12,0,0.24,0,0.36,0c0.18,0,0.359,0,0.54,0c0.359,0,0.72,0,1.079,0c0.12,0,0.24,0,0.36,0c0.18,0,0.36,0,0.54,0
	c0.36,0,0.72,0,1.08,0c0.12,0,0.24,0,0.36,0c0.18,0,0.359,0,0.54,0c0.359,0,0.72,0,1.08,0c0.119,0,0.239,0,0.359,0
	c0.18,0,0.36,0,0.54,0c0.36,0,0.72,0,1.08,0c0-1.68,0-3.359,0-5.04c-5.16,0-10.32,0-15.479,0c-2.58,0-5.16,0-7.74,0
	c-0.12,0-0.24,0-0.36,0c-0.18,0-0.36,0-0.54,0c-0.359,0-0.72,0-1.08,0c-0.12,0-0.24,0-0.359,0c-0.181,0-0.36,0-0.54,0
	c-0.36,0-0.721,0-1.08,0c-0.12,0-0.24,0-0.36,0c-0.18,0-0.36,0-0.54,0c-0.36,0-0.72,0-1.08,0c-0.12,0-0.24,0-0.359,0
	c-0.181,0-0.36,0-0.54,0C37.08,145.44,36.72,145.44,36.36,145.44z"/>
<path fill="#FFFFFF" d="M36.36,140.22c0,1.74,0,3.48,0,5.22c0.359,0,0.72,0,1.08,0c0.18,0,0.359,0,0.54,0c0.119,0,0.239,0,0.359,0
	c0.36,0,0.72,0,1.08,0c0.18,0,0.36,0,0.54,0c0.12,0,0.24,0,0.36,0c0.359,0,0.72,0,1.08,0c0.18,0,0.359,0,0.54,0
	c0.119,0,0.239,0,0.359,0c0.36,0,0.721,0,1.08,0c0.18,0,0.36,0,0.54,0c0.12,0,0.24,0,0.36,0c2.58,0,5.16,0,7.74,0
	c5.159,0,10.319,0,15.479,0c0-1.739,0-3.479,0-5.22c-5.16,0-10.32,0-15.479,0C46.8,140.22,41.58,140.22,36.36,140.22z"/>
<path fill="#302F2E" d="M67.5,140.22c0,1.74,0,3.48,0,5.22c0.84,0,1.68,0,2.521,0c0.899,0,1.8,0,2.699,0c0.84,0,1.681,0,2.521,0
	c0.899,0,1.8,0,2.7,0c0.84,0,1.68,0,2.52,0c0.9,0,1.8,0,2.7,0c0.84,0,1.68,0,2.52,0c0.9,0,1.801,0,2.7,0c0-0.12,0-0.239,0-0.36
	c0-2.52,0-5.039,0-7.56c0-2.58,0-5.159,0-7.739c-1.74,0-3.479,0-5.22,0c0,0.84,0,1.68,0,2.52c0,0.9,0,1.8,0,2.699
	c0,1.74,0,3.48,0,5.221C77.94,140.22,72.72,140.22,67.5,140.22z"/>
<path fill="#FFFFFF" d="M67.5,137.701c0,0.84,0,1.68,0,2.52c5.22,0,10.44,0,15.66,0c0-1.74,0-3.48,0-5.221c-5.22,0-10.44,0-15.66,0
	c0,0.061,0,0.121,0,0.181C67.5,136.01,67.5,136.861,67.5,137.701z"/>
<path fill="#302F2E" d="M77.94,129.24c0,0.18,0,0.36,0,0.541c1.739,0,3.479,0,5.22,0c0-1.74,0-3.48,0-5.221c1.74,0,3.479,0,5.22,0
	c0-1.74,0-3.48,0-5.22c-3.479,0-6.96,0-10.439,0c0,0.17,0,0.36,0,0.54c0,1.56,0,3.119,0,4.68S77.94,127.68,77.94,129.24z"/>
<path fill="#302F2E" d="M88.38,114.3c0,1.68,0,3.359,0,5.04c3.42,0,6.84,0,10.26,0c0,0.899,0,1.8,0,2.7c0,0.84,0,1.68,0,2.52
	c0,0.48,0,0.95,0,1.439c0,0.42,0,0.841,0,1.261c0,0.84,0,1.68,0,2.521c0,0.479,0,0.959,0,1.439c0,0.42,0,0.84,0,1.26
	c0,0.84,0,1.68,0,2.52c0,0.48,0,0.961,0,1.44c0,0.421,0,0.841,0,1.261c0,0.84,0,1.68,0,2.52c1.74,0,3.48,0,5.221,0
	c0-3.48,0-6.96,0-10.439c0-0.48,0-0.961,0-1.44c0-0.421,0-0.841,0-1.261c0-0.84,0-1.68,0-2.52c5.22,0,10.439,0,15.66,0
	c1.739,0,3.479,0,5.22,0c0,1.74,0,3.48,0,5.221c1.68,0,3.359,0,5.04,0c0,0.18,0,0.359,0,0.539c0,1.561,0,3.12,0,4.68
	c1.74,0,3.479,0,5.22,0c0,0.181,0,0.361,0,0.541c0,0.42,0,0.84,0,1.26c0,0.18,0,0.359,0,0.54c0,0.18,0,0.36,0,0.54
	c0,0.24,0,0.48,0,0.72c0,0.181,0,0.36,0,0.54s0,0.359,0,0.54s0,0.36,0,0.54c0,0.24,0,0.48,0,0.72c0,0.181,0,0.36,0,0.54
	s0,0.36,0,0.54c0,0.181,0,0.36,0,0.54c0,0.24,0,0.48,0,0.721c0,0.18,0,0.359,0,0.539c0,0.36,0,0.721,0,1.08c0,0.18,0,0.36,0,0.54
	c0.9,0,1.8,0,2.7,0c0.84,0,1.68,0,2.52,0c0-0.899,0-1.8,0-2.7c0-0.84,0-1.68,0-2.52c0-0.9,0-1.801,0-2.7c0-0.84,0-1.68,0-2.521
	c1.74,0,3.48,0,5.221,0c1.739,0,3.479,0,5.22,0c3.479,0,6.96,0,10.439,0c0,1.74,0,3.48,0,5.221c0.9,0,1.801,0,2.7,0
	c0.84,0,1.681,0,2.521,0c1.68,0,3.359,0,5.04,0c1.739,0,3.479,0,5.22,0c0,1.74,0,3.48,0,5.22c0.36,0,0.72,0,1.08,0
	c0.18,0,0.36,0,0.54,0c0.12,0,0.24,0,0.359,0c0.36,0,0.721,0,1.08,0c0.181,0,0.36,0,0.54,0c0.12,0,0.24,0,0.36,0
	c0.36,0,0.72,0,1.08,0c0.18,0,0.36,0,0.54,0c0.12,0,0.24,0,0.36,0c0.359,0,0.72,0,1.079,0c0.181,0,0.36,0,0.54,0
	c0.12,0,0.24,0,0.36,0c2.58,0,5.16,0,7.74,0c1.68,0,3.359,0,5.04,0c0,1.681,0,3.36,0,5.04c1.68,0,3.359,0,5.04,0
	c0.06,0,0.12,0,0.18,0c0,0.18,0,0.36,0,0.54c0,1.56,0,3.12,0,4.681c0.84,0,1.68,0,2.521,0c0.42,0,0.84,0,1.26,0s0.84,0,1.26,0
	c0.06,0,0.12,0,0.18,0c0,0.18,0,0.359,0,0.539c0,1.68,0,3.36,0,5.041c0,1.619,0,3.239,0,4.859c0.9,0,1.801,0,2.7,0
	c0.84,0,1.68,0,2.521,0c0.899,0,1.8,0,2.699,0c0.841,0,1.681,0,2.521,0s1.68,0,2.52,0c0.42,0,0.841,0,1.261,0s0.84,0,1.26,0
	c0.06,0,0.12,0,0.18,0c0,0.18,0,0.359,0,0.54c0,0.239,0,0.479,0,0.72c0,0.18,0,0.36,0,0.54c0,0.181,0,0.36,0,0.54s0,0.36,0,0.54
	c0,0.42,0,0.841,0,1.261c0,0.18,0,0.359,0,0.539s0,0.36,0,0.541c0,0.42,0,0.84,0,1.26c0,0.18,0,0.359,0,0.539
	c0,0.181,0,0.36,0,0.541c0,0.42,0,0.84,0,1.26c0,0.18,0,0.359,0,0.539c0,0.181,0,0.361,0,0.541s0,0.35,0,0.54c0.48,0,0.96,0,1.44,0
	c0.239,0,0.479,0,0.72,0c0.18,0,0.36,0,0.54,0c0.42,0,0.84,0,1.26,0s0.84,0,1.26,0c0-0.841,0-1.681,0-2.521c0-0.42,0-0.84,0-1.26
	c0-0.48,0-0.96,0-1.439c0-0.851,0-1.681,0-2.521c0-0.421,0-0.841,0-1.261c0-0.479,0-0.959,0-1.439c0.181,0,0.36,0,0.54,0
	c1.62,0,3.24,0,4.86,0s3.24,0,4.86,0c0-1.74,0-3.48,0-5.221c-2.16,0-4.32,0-6.48,0s-4.32,0-6.479,0c-2.16,0-4.32,0-6.48,0
	c-1.08,0-2.16,0-3.24,0c-0.54,0-1.08,0-1.62,0c-0.239,0-0.479,0-0.72,0s-0.479,0-0.72,0c-0.061,0-0.12,0-0.18,0
	c0-0.18,0-0.359,0-0.539c0-0.78,0-1.561,0-2.34c0-0.78,0-1.561,0-2.34c0-0.781,0-1.561,0-2.34c0-0.781,0-1.561,0-2.341
	c0-0.18,0-0.36,0-0.54c0.899,0,1.8,0,2.699,0c0.841,0,1.681,0,2.521,0c0-2.58,0-5.16,0-7.74s0-5.16,0-7.74c-1.74,0-3.48,0-5.22,0
	c0,1.74,0,3.48,0,5.221c0,0.84,0,1.68,0,2.52c0,0.42,0,0.84,0,1.26s0,0.841,0,1.261c0,0.06,0,0.12,0,0.18c-0.181,0-0.36,0-0.54,0
	c-1.561,0-3.12,0-4.681,0c-1.56,0-3.12,0-4.68,0c-0.18,0-0.36,0-0.54,0c0-0.899,0-1.8,0-2.7c0-0.84,0-1.68,0-2.52
	c-1.74,0-3.479,0-5.22,0s-3.48,0-5.221,0c-1.739,0-3.479,0-5.22,0c-0.84,0-1.68,0-2.52,0s-1.681,0-2.521,0c0-0.9,0-1.801,0-2.7
	c0-0.42,0-0.84,0-1.26s0-0.841,0-1.261c-5.22,0-10.439,0-15.66,0c0-0.899,0-1.799,0-2.699c0-0.42,0-0.84,0-1.26s0-0.84,0-1.26
	c-1.739,0-3.479,0-5.22,0s-3.479,0-5.22,0s-3.48,0-5.22,0c-0.841,0-1.681,0-2.521,0s-1.68,0-2.52,0c0-0.9,0-1.801,0-2.701
	c0-0.84,0-1.68,0-2.52c-5.221,0-10.44,0-15.66,0c0-0.9,0-1.8,0-2.699c0-0.851,0-1.681,0-2.521c-8.641,0-17.28,0-25.92,0
	c0-1.681,0-3.36,0-5.04C98.7,114.3,93.54,114.3,88.38,114.3z"/>
<path fill="#814221" d="M88.38,109.08c0,1.74,0,3.48,0,5.221c5.16,0,10.32,0,15.48,0c0-1.74,0-3.48,0-5.221
	C98.7,109.08,93.54,109.08,88.38,109.08z"/>
<path fill="#302F2E" d="M98.64,85.5c0,0.9,0,1.801,0,2.701c1.74,0,3.48,0,5.221,0c0,0.18,0,0.359,0,0.539c0,3.121,0,6.24,0,9.36
	c0,0.181,0,0.36,0,0.54c1.739,0,3.479,0,5.22,0c0-3.48,0-6.96,0-10.439c0.18,0,0.36,0,0.54,0c0.72,0,1.439,0,2.16,0
	c0.66,0,1.319,0,1.979,0c0.181,0,0.36,0,0.54,0c0,3.479,0,6.959,0,10.439c5.16,0,10.32,0,15.48,0c0-3.48,0-6.96,0-10.439
	c0.18,0,0.359,0,0.54,0c0.72,0,1.439,0,2.16,0c0.659,0,1.319,0,1.979,0c0.18,0,0.36,0,0.54,0c0,3.479,0,6.959,0,10.439
	c3.36,0,6.72,0,10.08,0c3.42,0,6.84,0,10.26,0c0.181,0,0.36,0,0.54,0c0-1.74,0-3.48,0-5.221c-5.22,0-10.439,0-15.66,0
	c0-0.18,0-0.359,0-0.539c0-1.561,0-3.12,0-4.68c0-1.561,0-3.121,0-4.69c0-0.17,0-0.351,0-0.53c-0.06,0-0.12,0-0.18,0
	c-0.84,0-1.68,0-2.52,0c-0.841,0-1.681,0-2.521,0c0-0.42,0-0.84,0-1.26s0-0.84,0-1.26c0-0.84,0-1.68,0-2.521c-2.16,0-4.32,0-6.479,0
	c-2.16,0-4.32,0-6.48,0s-4.32,0-6.48,0c-2.159,0-4.319,0-6.479,0c0,0.841,0,1.681,0,2.521s0,1.68,0,2.52c-0.84,0-1.68,0-2.521,0
	c-0.42,0-0.84,0-1.26,0c-0.479,0-0.96,0-1.439,0c0-2.58,0-5.16,0-7.74s0-5.16,0-7.74c-1.74,0-3.48,0-5.221,0
	c0,1.681,0,3.361,0,5.041c0,0.84,0,1.68,0,2.52c0,0.42,0,0.84,0,1.26c0,0.48,0,0.961,0,1.44c0,0.84,0,1.68,0,2.521
	c0,0.42,0,0.84,0,1.26c0,0.47,0,0.959,0,1.439C98.64,83.82,98.64,84.66,98.64,85.5z"/>
<path fill="#302F2E" d="M103.86,144c0,0.48,0,0.961,0,1.44c0.18,0,0.359,0,0.54,0c1.62,0,3.239,0,4.859,0c1.681,0,3.36,0,5.04,0
	c1.62,0,3.24,0,4.86,0c1.68,0,3.36,0,5.04,0c0.18,0,0.359,0,0.54,0c0-1.739,0-3.479,0-5.22c-3.48,0-6.96,0-10.44,0
	c-3.479,0-6.96,0-10.439,0c0,0.84,0,1.68,0,2.52C103.86,143.16,103.86,143.58,103.86,144z"/>
<path fill="#814221" d="M103.86,129.781c0,3.479,0,6.959,0,10.439c3.479,0,6.96,0,10.439,0c3.48,0,6.96,0,10.44,0
	c0-0.9,0-1.801,0-2.7c0-0.84,0-1.68,0-2.521c1.68,0,3.359,0,5.04,0c0-1.56,0-3.119,0-4.68c0-0.18,0-0.359,0-0.539
	c-1.681,0-3.36,0-5.04,0c0-1.74,0-3.48,0-5.221c-1.74,0-3.48,0-5.22,0c0,1.74,0,3.48,0,5.221
	C114.3,129.781,109.08,129.781,103.86,129.781z"/>
<path fill="#A06141" d="M103.86,128.34c0,0.479,0,0.96,0,1.44c5.22,0,10.439,0,15.66,0c0-1.74,0-3.48,0-5.221
	c-5.221,0-10.44,0-15.66,0c0,0.84,0,1.68,0,2.52C103.86,127.5,103.86,127.919,103.86,128.34z"/>
<path fill="#814221" d="M103.86,114.3c0,1.68,0,3.359,0,5.04c8.64,0,17.279,0,25.92,0c0-1.681,0-3.36,0-5.04
	C121.14,114.3,112.5,114.3,103.86,114.3z"/>
<path fill="#302F2E" d="M103.86,109.08c0,1.74,0,3.48,0,5.221c8.64,0,17.279,0,25.92,0c0-3.48,0-6.96,0-10.439
	c-5.16,0-10.32,0-15.48,0c0,1.739,0,3.479,0,5.219C110.82,109.08,107.34,109.08,103.86,109.08z"/>
<path fill="#814221" d="M103.86,75.24c0,2.58,0,5.16,0,7.74c0.479,0,0.96,0,1.439,0c0.42,0,0.84,0,1.26,0c0.841,0,1.681,0,2.521,0
	c0-0.84,0-1.68,0-2.52s0-1.68,0-2.521c0-0.84,0-1.68,0-2.521c0-0.42,0-0.84,0-1.26c0-0.479,0-0.959,0-1.439c0-0.18,0-0.359,0-0.54
	c0-0.24,0-0.479,0-0.72c0-0.42,0-0.84,0-1.26c0-0.9,0-1.801,0-2.701c-1.74,0-3.48,0-5.22,0C103.86,70.08,103.86,72.66,103.86,75.24z
	"/>
<path fill="#302F2E" d="M103.86,62.28c0,1.73,0,3.48,0,5.219c1.739,0,3.479,0,5.22,0c0-1.739,0-3.479,0-5.219
	C107.34,62.28,105.6,62.28,103.86,62.28z"/>
<path fill="#302F2E" d="M109.08,98.64c0,1.74,0,3.48,0,5.221c1.74,0,3.479,0,5.22,0c0-1.74,0-3.48,0-5.221
	C112.56,98.64,110.82,98.64,109.08,98.64z"/>
<path fill="#CDB055" d="M109.08,88.201c0,3.479,0,6.959,0,10.439c1.74,0,3.479,0,5.22,0c0-3.48,0-6.96,0-10.439
	c-0.18,0-0.359,0-0.54,0c-0.66,0-1.319,0-1.979,0c-0.721,0-1.44,0-2.16,0C109.44,88.201,109.26,88.201,109.08,88.201z"/>
<path fill="#A06141" d="M109.08,75.419c0,0.841,0,1.681,0,2.521c2.16,0,4.32,0,6.479,0c2.16,0,4.32,0,6.48,0s4.32,0,6.48,0
	c2.159,0,4.319,0,6.479,0c0.84,0,1.68,0,2.521,0c0.899,0,1.8,0,2.699,0c0-0.84,0-1.68,0-2.521c0-0.909,0-1.799,0-2.699
	c0.181,0,0.36,0,0.54,0c1.38,0,2.761,0,4.141,0c0.18,0,0.359,0,0.54,0c0-1.74,0-3.48,0-5.221c-1.681,0-3.36,0-5.04,0
	c-0.841,0-1.681,0-2.521,0c-0.899,0-1.8,0-2.7,0c-3.479,0-6.96,0-10.439,0c-3.48,0-6.96,0-10.44,0c-1.74,0-3.479,0-5.22,0
	c0,0.9,0,1.801,0,2.701c0,0.42,0,0.84,0,1.26c0,0.24,0,0.479,0,0.72c0,0.181,0,0.36,0,0.54c0,0.48,0,0.96,0,1.439
	C109.08,74.58,109.08,75,109.08,75.419z"/>
<path fill="#814221" d="M109.08,62.28c0,1.74,0,3.48,0,5.219c1.74,0,3.479,0,5.22,0c0-1.739,0-3.479,0-5.219
	C112.56,62.28,110.82,62.28,109.08,62.28z"/>
<path fill="#302F2E" d="M109.08,61.2c0,0.36,0,0.72,0,1.08c1.74,0,3.479,0,5.22,0c0-1.74,0-3.48,0-5.22c0-1.74,0-3.48,0-5.22
	c0-1.74,0-3.48,0-5.22c-1.56,0-3.12,0-4.68,0c-0.18,0-0.36,0-0.54,0c0,0.18,0,0.36,0,0.54s0,0.35,0,0.54c0,0.3,0,0.6,0,0.9
	s0,0.6,0,0.9c0,0.36,0,0.72,0,1.08c0,0.12,0,0.24,0,0.36c0,0.18,0,0.36,0,0.54c0,0.36,0,0.72,0,1.08c0,0.12,0,0.24,0,0.36
	c0,0.18,0,0.36,0,0.54c0,0.36,0,0.72,0,1.08c0,0.6,0,1.2,0,1.8c0,0.12,0,0.24,0,0.36c0,0.18,0,0.36,0,0.54c0,0.36,0,0.72,0,1.08
	c0,0.12,0,0.24,0,0.36c0,0.18,0,0.36,0,0.54c0,0.36,0,0.72,0,1.08c0,0.12,0,0.24,0,0.36C109.08,60.84,109.08,61.01,109.08,61.2z"/>
<path fill="#302F2E" d="M109.08,33.66c0,0.9,0,1.8,0,2.7c0.84,0,1.68,0,2.52,0c0.9,0,1.801,0,2.7,0c0-0.85,0-1.68,0-2.52
	c0-0.9,0-1.8,0-2.7c0-0.84,0-1.68,0-2.52c0-0.9,0-1.8,0-2.7c0-0.84,0-1.68,0-2.52c0-0.9,0-1.8,0-2.7c0-0.84,0-1.69,0-2.52
	c0-0.9,0-1.8,0-2.7c-0.42,0-0.84,0-1.26,0s-0.84,0-1.26,0c-0.9,0-1.8,0-2.7,0c0,0.84,0,1.68,0,2.52c0,0.42,0,0.84,0,1.26
	c0,0.48,0,0.96,0,1.44c0,0.18,0,0.36,0,0.54c0,0.24,0,0.48,0,0.72c0,0.42,0,0.84,0,1.26s0,0.84,0,1.26c0,0.48,0,0.96,0,1.44
	c0,0.18,0,0.36,0,0.54c0,0.24,0,0.48,0,0.72c0,0.42,0,0.83,0,1.26c0,0.42,0,0.84,0,1.26c0,0.48,0,0.96,0,1.44c0,0.18,0,0.36,0,0.54
	c0,0.24,0,0.48,0,0.72C109.08,32.82,109.08,33.24,109.08,33.66z"/>
<path fill="#CDB055" d="M114.3,98.64c0,1.74,0,3.48,0,5.221c5.16,0,10.32,0,15.48,0c0-1.74,0-3.48,0-5.221
	C124.62,98.64,119.46,98.64,114.3,98.64z"/>
<path fill="#302F2E" d="M114.3,62.28c0,1.74,0,3.48,0,5.219c3.48,0,6.96,0,10.44,0c0-1.739,0-3.479,0-5.219c-1.74,0-3.48,0-5.22,0
	C117.78,62.28,116.04,62.28,114.3,62.28z"/>
<path fill="#FFFFFF" d="M114.3,57.06c0,1.74,0,3.48,0,5.22c1.74,0,3.48,0,5.221,0c0-1.74,0-3.48,0-5.22
	C117.78,57.06,116.04,57.06,114.3,57.06z"/>
<path fill="#282828" d="M114.3,51.84c0,1.74,0,3.48,0,5.22c1.74,0,3.48,0,5.221,0c0-1.74,0-3.48,0-5.22
	C117.78,51.84,116.04,51.84,114.3,51.84z"/>
<path fill="#814221" d="M114.3,46.62c0,1.74,0,3.48,0,5.22c1.74,0,3.48,0,5.221,0c0-1.74,0-3.48,0-5.22
	C117.78,46.62,116.04,46.62,114.3,46.62z"/>
<path fill="#302F2E" d="M114.3,43.92c0,0.9,0,1.8,0,2.7c1.74,0,3.48,0,5.221,0c0-1.68,0-3.36,0-5.04c0-0.84,0-1.68,0-2.52
	c0-0.9,0-1.8,0-2.7c-0.841,0-1.681,0-2.521,0c-0.42,0-0.84,0-1.26,0c-0.48,0-0.96,0-1.44,0c0,1.68,0,3.36,0,5.04
	C114.3,42.24,114.3,43.08,114.3,43.92z"/>
<path fill="#D4D5D7" d="M114.3,33.84c0,0.84,0,1.67,0,2.52c0.48,0,0.96,0,1.44,0c0.42,0,0.84,0,1.26,0c0.84,0,1.68,0,2.521,0
	c0-0.9,0-1.8,0-2.7c0-0.84,0-1.68,0-2.52c0-0.9,0-1.8,0-2.7c0-0.84,0-1.68,0-2.52c0-0.91,0-1.8,0-2.7c0-0.84,0-1.68,0-2.52
	c0-1.74,0-3.48,0-5.22c-0.841,0-1.681,0-2.521,0c-0.42,0-0.84,0-1.26,0c-0.181,0-0.36,0-0.54,0c-0.24,0-0.48,0-0.72,0
	c-0.061,0-0.12,0-0.181,0c0,0.9,0,1.8,0,2.7c0,0.83,0,1.68,0,2.52c0,0.9,0,1.8,0,2.7c0,0.84,0,1.68,0,2.52c0,0.9,0,1.8,0,2.7
	c0,0.84,0,1.68,0,2.52C114.3,32.04,114.3,32.94,114.3,33.84z"/>
<path fill="#302F2E" d="M114.3,12.96c0,0.84,0,1.68,0,2.52c0.061,0,0.12,0,0.181,0c0.239,0,0.479,0,0.72,0c0.18,0,0.359,0,0.54,0
	c0.42,0,0.84,0,1.26,0c0.84,0,1.68,0,2.521,0c0-0.84,0-1.68,0-2.52c0-0.84,0-1.68,0-2.52c-1.74,0-3.48,0-5.221,0
	C114.3,11.28,114.3,12.12,114.3,12.96z"/>
<path fill="#282828" d="M119.521,57.06c0,1.74,0,3.48,0,5.22c1.739,0,3.479,0,5.22,0c0-1.74,0-3.48,0-5.22
	C123,57.06,121.26,57.06,119.521,57.06z"/>
<path fill="#814221" d="M119.521,51.84c0,1.74,0,3.48,0,5.22c1.739,0,3.479,0,5.22,0c0-1.74,0-3.48,0-5.22
	C123,51.84,121.26,51.84,119.521,51.84z"/>
<path fill="#A06141" d="M119.521,46.62c0,1.74,0,3.48,0,5.22c1.739,0,3.479,0,5.22,0c0-1.74,0-3.48,0-5.22c0.18,0,0.359,0,0.54,0
	c0.359,0,0.72,0,1.08,0c0.18,0,0.359,0,0.54,0c0.12,0,0.239,0,0.359,0c0.36,0,0.721,0,1.08,0c0.181,0,0.36,0,0.54,0
	c0.12,0,0.24,0,0.36,0c0.18,0,0.359,0,0.54,0c0,1.74,0,3.48,0,5.22c1.74,0,3.479,0,5.22,0c0-1.74,0-3.48,0-5.22
	c1.74,0,3.48,0,5.22,0c0-1.68,0-3.36,0-5.04c0.181,0,0.36,0,0.54,0c1.561,0,3.12,0,4.681,0c0,0.18,0,0.36,0,0.54
	c0,0.36,0,0.72,0,1.08c0,0.3,0,0.6,0,0.9c0,0.36,0,0.72,0,1.08c0,0.3,0,0.6,0,0.9c0,0.18,0,0.36,0,0.54c-1.74,0-3.48,0-5.221,0
	c0,1.74,0,3.48,0,5.22c0,1.74,0,3.48,0,5.22c1.74,0,3.48,0,5.221,0c0-1.74,0-3.48,0-5.22c1.739,0,3.479,0,5.22,0
	c0-1.74,0-3.48,0-5.22c0.18,0,0.36,0,0.54,0c1.68,0,3.359,0,5.04,0c1.62,0,3.24,0,4.859,0c0-1.68,0-3.36,0-5.04
	c1.681,0,3.36,0,5.04,0c0-0.48,0-0.96,0-1.44c0-0.42,0-0.84,0-1.26c0-0.42,0-0.84,0-1.26s0-0.84,0-1.26c0-1.74,0-3.48,0-5.22
	c-8.64,0-17.279,0-25.92,0c-1.739,0-3.479,0-5.22,0c0,1.74,0,3.48,0,5.22c-0.18,0-0.36,0-0.54,0c-1.62,0-3.24,0-4.86,0
	c-1.619,0-3.239,0-4.859,0c0,0.9,0,1.8,0,2.7c0,0.84,0,1.68,0,2.52c-1.74,0-3.48,0-5.22,0
	C119.521,43.26,119.521,44.94,119.521,46.62z"/>
<path fill="#814221" d="M119.521,39.06c0,0.84,0,1.68,0,2.52c1.739,0,3.479,0,5.22,0c0-0.84,0-1.68,0-2.52c0-0.9,0-1.8,0-2.7
	c-0.84,0-1.681,0-2.521,0c-0.42,0-0.84,0-1.26,0c-0.479,0-0.96,0-1.439,0C119.521,37.26,119.521,38.16,119.521,39.06z"/>
<path fill="#302F2E" d="M119.521,33.66c0,0.9,0,1.8,0,2.7c0.479,0,0.96,0,1.439,0c0.42,0,0.84,0,1.26,0c0.84,0,1.681,0,2.521,0
	c0-1.74,0-3.48,0-5.22c-1.74,0-3.48,0-5.22,0C119.521,31.98,119.521,32.82,119.521,33.66z"/>
<path fill="#FFFFFF" d="M119.521,28.44c0,0.9,0,1.8,0,2.7c1.739,0,3.479,0,5.22,0c0-1.74,0-3.48,0-5.22c0-1.74,0-3.48,0-5.22
	c-1.74,0-3.48,0-5.22,0c0,0.84,0,1.68,0,2.52c0,0.9,0,1.79,0,2.7C119.521,26.76,119.521,27.6,119.521,28.44z"/>
<path fill="#302F2E" d="M119.521,15.48c0,1.74,0,3.48,0,5.22c1.739,0,3.479,0,5.22,0c0-0.78,0-1.56,0-2.34c0-0.18,0-0.36,0-0.54
	c0-0.18,0-0.36,0-0.54c0-0.42,0-0.84,0-1.27c0-0.17,0-0.35,0-0.53c-0.061,0-0.12,0-0.181,0c-0.06,0-0.119,0-0.18,0
	c-0.12,0-0.24,0-0.359,0c-0.24,0-0.48,0-0.721,0c-0.42,0-0.84,0-1.26,0s-0.84,0-1.26,0S119.94,15.48,119.521,15.48z"/>
<path fill="#302F2E" d="M124.74,192.42c0,5.09,0,10.2,0,15.3c1.68,0,3.359,0,5.04,0c0,1.74,0,3.479,0,5.21c0.899,0,1.8,0,2.7,0
	c0.84,0,1.68,0,2.52,0c0.9,0,1.8,0,2.7,0c0.84,0,1.68,0,2.52,0c0.9,0,1.801,0,2.7,0c0.84,0,1.68,0,2.521,0c0.899,0,1.8,0,2.699,0
	c0.841,0,1.681,0,2.521,0c0-1.73,0-3.47,0-5.21c-1.74,0-3.48,0-5.22,0c0-1.75,0-3.48,0-5.22c-5.221,0-10.44,0-15.66,0
	c0-1.74,0-3.49,0-5.23c0-1.729,0-3.47,0-5.21c-1.681,0-3.36,0-5.04,0C124.74,192.18,124.74,192.3,124.74,192.42z"/>
<path fill="#302F2E" d="M124.74,137.52c0,0.899,0,1.8,0,2.7c1.5,0,3,0,4.5,0c0.18,0,0.359,0,0.54,0c0-1.74,0-3.48,0-5.221
	c-1.681,0-3.36,0-5.04,0C124.74,135.84,124.74,136.68,124.74,137.52z"/>
<path fill="#814221" d="M124.74,62.28c0,1.74,0,3.48,0,5.219c3.479,0,6.96,0,10.439,0c0.9,0,1.801,0,2.7,0c0.84,0,1.68,0,2.521,0
	c1.68,0,3.359,0,5.04,0c0-1.739,0-3.489,0-5.219c-1.74,0-3.48,0-5.221,0c0-0.18,0-0.36,0-0.54c0-1.56,0-3.12,0-4.68
	c0-1.74,0-3.48,0-5.22c0-1.74,0-3.48,0-5.22c-1.739,0-3.479,0-5.22,0c0,1.74,0,3.48,0,5.22c-1.74,0-3.479,0-5.22,0
	c0,1.74,0,3.48,0,5.22c0,1.74,0,3.48,0,5.22C128.1,62.28,126.42,62.28,124.74,62.28z"/>
<path fill="#302F2E" d="M124.74,57.06c0,1.74,0,3.48,0,5.22c1.68,0,3.359,0,5.04,0c0-1.74,0-3.48,0-5.22
	C128.1,57.06,126.42,57.06,124.74,57.06z"/>
<path fill="#A06141" d="M124.74,51.84c0,1.74,0,3.48,0,5.22c1.68,0,3.359,0,5.04,0c0-1.74,0-3.48,0-5.22
	C128.1,51.84,126.42,51.84,124.74,51.84z"/>
<path fill="#814221" d="M124.74,46.62c0,1.74,0,3.48,0,5.22c1.68,0,3.359,0,5.04,0c0-1.74,0-3.48,0-5.22c-0.181,0-0.36,0-0.54,0
	c-0.12,0-0.24,0-0.36,0c-0.18,0-0.359,0-0.54,0c-0.359,0-0.72,0-1.08,0c-0.12,0-0.239,0-0.359,0c-0.181,0-0.36,0-0.54,0
	c-0.36,0-0.721,0-1.08,0C125.1,46.62,124.92,46.62,124.74,46.62z"/>
<path fill="#814221" d="M124.74,31.14c0,1.74,0,3.48,0,5.22c1.62,0,3.24,0,4.859,0c1.62,0,3.24,0,4.86,0c0.18,0,0.36,0,0.54,0
	c0-1.74,0-3.48,0-5.22c-1.68,0-3.36,0-5.04,0c-0.84,0-1.68,0-2.52,0C126.54,31.14,125.64,31.14,124.74,31.14z"/>
<path fill="#302F2E" d="M124.74,25.92c0,1.74,0,3.48,0,5.22c0.899,0,1.8,0,2.7,0c0.84,0,1.68,0,2.52,0c1.68,0,3.36,0,5.04,0
	c1.74,0,3.48,0,5.22,0c0-0.9,0-1.8,0-2.7c0-0.84,0-1.68,0-2.52c-3.479,0-6.96,0-10.439,0c0-1.74,0-3.48,0-5.22
	c-1.681,0-3.36,0-5.04,0C124.74,22.44,124.74,24.18,124.74,25.92z"/>
<path fill="#814221" d="M129.78,197.27c0,1.74,0,3.49,0,5.23c5.22,0,10.439,0,15.66,0c0,1.739,0,3.47,0,5.22c1.739,0,3.479,0,5.22,0
	c0-3.48,0-6.96,0-10.45c-1.74,0-3.48,0-5.22,0c-3.48,0-6.96,0-10.44,0c0-1.729,0-3.47,0-5.21c-1.74,0-3.479,0-5.22,0
	C129.78,193.8,129.78,195.541,129.78,197.27z"/>
<path fill="#302F2E" d="M129.78,181.8c0,3.42,0,6.84,0,10.26c1.74,0,3.479,0,5.22,0c0-3.42,0-6.84,0-10.26
	C133.26,181.8,131.521,181.8,129.78,181.8z"/>
<path fill="#814221" d="M129.78,121.861c0,0.899,0,1.799,0,2.699c5.22,0,10.439,0,15.66,0c0-1.74,0-3.48,0-5.22
	c-5.221,0-10.44,0-15.66,0C129.78,120.18,129.78,121.01,129.78,121.861z"/>
<path fill="#302F2E" d="M129.78,114.3c0,1.68,0,3.359,0,5.04c5.22,0,10.439,0,15.66,0c0-1.681,0-3.36,0-5.04
	C140.22,114.3,135,114.3,129.78,114.3z"/>
<path fill="#523822" d="M129.78,103.861c0,3.479,0,6.959,0,10.439c5.22,0,10.439,0,15.66,0c0,1.68,0,3.359,0,5.04
	c0.899,0,1.8,0,2.699,0c0.841,0,1.681,0,2.521,0c0.899,0,1.8,0,2.7,0c0.84,0,1.68,0,2.52,0c0.9,0,1.8,0,2.7,0c0.84,0,1.68,0,2.52,0
	c1.681,0,3.36,0,5.04,0c0,1.739,0,3.479,0,5.22c5.221,0,10.44,0,15.66,0c0-0.9,0-1.8,0-2.699c0-0.421,0-0.851,0-1.261
	c0-0.42,0-0.84,0-1.26c1.74,0,3.48,0,5.221,0c0-1.681,0-3.36,0-5.04c5.159,0,10.319,0,15.479,0c0-1.74,0-3.48,0-5.221
	c1.74,0,3.48,0,5.22,0c0-1.739,0-3.479,0-5.219c1.74,0,3.48,0,5.221,0c0-0.66,0-1.32,0-1.98c0-0.18,0-0.37,0-0.54
	c0-0.181,0-0.36,0-0.54s0-0.36,0-0.54c0-0.12,0-0.24,0-0.36c0-0.66,0-1.32,0-1.98c0-0.18,0-0.359,0-0.539s0-0.37,0-0.54
	c0-0.181,0-0.36,0-0.54c0-0.12,0-0.24,0-0.36c0-0.659,0-1.319,0-1.979c0-0.18,0-0.36,0-0.541c0-0.18,0-0.359,0-0.539s0-0.37,0-0.54
	c0-0.12,0-0.24,0-0.36c0-0.66,0-1.32,0-1.98c0-0.6,0-1.199,0-1.799c1.739,0,3.479,0,5.22,0c0-2.58,0-5.16,0-7.74
	c0-0.18,0-0.36,0-0.541c0-0.18,0-0.359,0-0.539s0-0.37,0-0.54c0-0.12,0-0.24,0-0.36c0-0.18,0-0.359,0-0.54c0-0.18,0-0.36,0-0.54
	s0-0.359,0-0.539c0-0.121,0-0.24,0-0.361c0-1.26,0-2.52,0-3.779c0.899,0,1.8,0,2.7,0c0.84,0,1.68,0,2.52,0c0-0.9,0-1.801,0-2.71
	c0-0.83,0-1.67,0-2.511c0-0.899,0-1.799,0-2.699c0-0.42,0-0.841,0-1.26c0-0.42,0-0.84,0-1.26c1.74,0,3.48,0,5.22,0
	c0-2.16,0-4.32,0-6.48c0-1.08,0-2.16,0-3.24s0-2.16,0-3.24c0-1.08,0-2.16,0-3.24s0-2.16,0-3.24c0-2.16,0-4.33,0-6.48
	c-0.899,0-1.8,0-2.699,0c-0.841,0-1.681,0-2.521,0c0-0.9,0-1.8,0-2.7c0-0.42,0-0.84,0-1.26c0-0.42,0-0.84,0-1.26
	c-1.74,0-3.479,0-5.22,0c0-0.9,0-1.8,0-2.7c0-0.84,0-1.68,0-2.52c-1.74,0-3.48,0-5.22,0c0-0.91,0-1.8,0-2.7c0-0.84,0-1.68,0-2.52
	c-1.74,0-3.48,0-5.221,0c0-0.9,0-1.8,0-2.7c0-0.84,0-1.68,0-2.52c-0.42,0-0.84,0-1.26,0s-0.84,0-1.26,0c-0.9,0-1.8,0-2.7,0
	c0-0.36,0-0.72,0-1.08c0-0.42,0-0.84,0-1.26s0-0.84,0-1.26c0-0.18,0-0.37,0-0.54c0-0.24,0-0.48,0-0.72c0-0.06,0-0.12,0-0.18
	c-5.16,0-10.32,0-15.479,0c0,0.84,0,1.68,0,2.52c0,0.84,0,1.68,0,2.52c0.42,0,0.84,0,1.26,0s0.84,0,1.26,0s0.84,0,1.26,0
	c0.24,0,0.48,0,0.721,0c0.119,0,0.239,0,0.359,0c0.061,0,0.12,0,0.18,0c0.061,0,0.12,0,0.181,0c0,0.18,0,0.36,0,0.53
	c0,1.69,0,3.37,0,5.05c0,0.84,0,1.68,0,2.52c0,0.42,0,0.84,0,1.26c0,0.36,0,0.72,0,1.08c0,1.68,0,3.36,0,5.04c0,0.84,0,1.68,0,2.52
	c0,0.42,0,0.84,0,1.26c0,0.36,0,0.72,0,1.08c0,0.18,0,0.36,0,0.54c0.899,0,1.8,0,2.7,0c0.84,0,1.68,0,2.52,0c1.68,0,3.36,0,5.04,0
	c0,0.9,0,1.8,0,2.7c0,0.84,0,1.68,0,2.52c1.74,0,3.48,0,5.22,0c0,0.18,0,0.36,0,0.54c0,3.06,0,6.12,0,9.18c0,0.18,0,0.36,0,0.54
	c-1.739,0-3.479,0-5.22,0c0,1.74,0,3.48,0,5.22c-0.18,0-0.36,0-0.54,0c-3.24,0-6.479,0-9.72,0c0,0.9,0,1.8,0,2.7
	c0,0.84,0,1.68,0,2.52c0,0.9,0,1.8,0,2.7c0,0.84,0,1.68,0,2.52c-1.74,0-3.48,0-5.22,0c0,1.74,0,3.48,0,5.221c-0.9,0-1.801,0-2.7,0
	c-0.84,0-1.681,0-2.521,0c0,0.84,0,1.68,0,2.52c0,0.42,0,0.84,0,1.26c0,0.24,0,0.48,0,0.721s0,0.48,0,0.72c-0.18,0-0.359,0-0.54,0
	c-0.42,0-0.84,0-1.26,0c-0.12,0-0.24,0-0.36,0c-0.239,0-0.479,0-0.72,0s-0.479,0-0.72,0c-0.18,0-0.36,0-0.54,0
	c-0.36,0-0.72,0-1.08,0c0,0.841,0,1.681,0,2.521c0,0.24,0,0.479,0,0.72c0,0.181,0,0.36,0,0.54s0,0.359,0,0.54
	c0,0.239,0,0.479,0,0.72c-0.18,0-0.36,0-0.54,0c-0.24,0-0.48,0-0.72,0c-0.181,0-0.36,0-0.54,0c-0.36,0-0.721,0-1.08,0
	c-0.42,0-0.84,0-1.26,0c-0.36,0-0.721,0-1.08,0c0,0.84,0,1.68,0,2.52c0,0.42,0,0.841,0,1.261c0,0.239,0,0.479,0,0.72
	c0,0.061,0,0.12,0,0.18c0,0.061,0,0.121,0,0.181s0,0.12,0,0.17c0,0.069,0,0.13,0,0.19c-0.181,0-0.36,0-0.54,0
	c-1.561,0-3.12,0-4.681,0c0,1.739,0,3.479,0,5.219c-0.18,0-0.359,0-0.54,0c-3.239,0-6.479,0-9.72,0c0,1.74,0,3.48,0,5.221
	c-0.18,0-0.359,0-0.54,0c-3.42,0-6.84,0-10.26,0c-3.36,0-6.72,0-10.08,0c0,1.74,0,3.48,0,5.221c-0.18,0-0.36,0-0.54,0
	C132.9,103.861,131.34,103.861,129.78,103.861z"/>
<path fill="#302F2E" d="M129.78,98.64c0,1.74,0,3.48,0,5.221c1.56,0,3.12,0,4.68,0c0.18,0,0.36,0,0.54,0c0-1.74,0-3.48,0-5.221
	C133.26,98.64,131.521,98.64,129.78,98.64z"/>
<path fill="#CDB055" d="M129.78,88.201c0,3.479,0,6.959,0,10.439c1.74,0,3.479,0,5.22,0c0-3.48,0-6.96,0-10.439
	c-0.18,0-0.36,0-0.54,0c-0.66,0-1.32,0-1.979,0c-0.721,0-1.44,0-2.16,0C130.14,88.201,129.96,88.201,129.78,88.201z"/>
<path fill="#523822" d="M129.78,20.7c0,1.74,0,3.48,0,5.22c3.479,0,6.96,0,10.439,0c0-0.84,0-1.68,0-2.52c0-0.42,0-0.84,0-1.26
	c0-0.24,0-0.48,0-0.72c0-0.24,0-0.48,0-0.72c8.641,0,17.28,0,25.92,0c0,1.74,0,3.48,0,5.22c1.74,0,3.48,0,5.221,0
	c0-0.84,0-1.68,0-2.52c0-0.42,0-0.84,0-1.26c0-0.24,0-0.48,0-0.72c0-0.06,0-0.12,0-0.18s0-0.12,0-0.18s0-0.12,0-0.18
	c0-0.06,0-0.12,0-0.18c0.18,0,0.359,0,0.54,0c1.56,0,3.12,0,4.68,0c0-0.84,0-1.69,0-2.52c0-0.42,0-0.84,0-1.26c0-0.24,0-0.48,0-0.72
	c0-0.24,0-0.48,0-0.72c0.18,0,0.36,0,0.54,0c0.42,0,0.84,0,1.26,0c0.18,0,0.36,0,0.54,0s0.36,0,0.54,0c0.24,0,0.48,0,0.72,0
	c0.181,0,0.36,0,0.54,0c0.181,0,0.36,0,0.54,0c0.181,0,0.36,0,0.54,0c0-0.84,0-1.68,0-2.52c0-0.84,0-1.68,0-2.52
	c1.74,0,3.48,0,5.221,0c0-1.74,0-3.48,0-5.22c-1.681,0-3.36,0-5.04,0c-0.421,0-0.841,0-1.261,0s-0.84,0-1.26,0s-0.84,0-1.26,0
	c-0.48,0-0.96,0-1.44,0c-0.42,0-0.84,0-1.26,0s-0.84,0-1.26,0s-0.84,0-1.26,0c-0.48,0-0.96,0-1.44,0c-0.42,0-0.84,0-1.26,0
	s-0.84,0-1.26,0c-0.421,0-0.841,0-1.261,0c-0.239,0-0.479,0-0.72,0c-0.18,0-0.36,0-0.54,0c-0.06,0-0.12,0-0.18,0
	c-0.061,0-0.12,0-0.181,0c0,1.74,0,3.48,0,5.22c-0.18,0-0.359,0-0.54,0c-3.359,0-6.72,0-10.079,0c-3.36,0-6.721,0-10.08,0
	c0,0.42,0,0.84,0,1.26s0,0.84,0,1.26c0,0.24,0,0.48,0,0.72c0,0.18,0,0.36,0,0.54c0,0.18,0,0.36,0,0.54c0,0.12,0,0.24,0,0.36
	c0,0.06,0,0.12,0,0.18s0,0.12,0,0.18c-0.181,0-0.36,0-0.54,0c-0.42,0-0.841,0-1.261,0s-0.84,0-1.26,0s-0.84,0-1.26,0s-0.84,0-1.26,0
	c-0.84,0-1.681,0-2.521,0c-0.24,0-0.479,0-0.72,0c-0.18,0-0.36,0-0.54,0s-0.36,0-0.54,0s-0.36,0-0.54,0c0,1.74,0,3.48,0,5.22
	c-0.18,0-0.36,0-0.54,0C132.9,20.7,131.34,20.7,129.78,20.7z"/>
<path fill="#302F2E" d="M129.78,18c0,0.9,0,1.8,0,2.7c1.56,0,3.12,0,4.68,0c0.18,0,0.36,0,0.54,0c0-1.74,0-3.48,0-5.22
	c-0.42,0-0.84,0-1.26,0s-0.84,0-1.26,0c-0.9,0-1.801,0-2.7,0C129.78,16.32,129.78,17.16,129.78,18z"/>
<path fill="#A06141" d="M135,192.06c0,1.74,0,3.48,0,5.21c3.48,0,6.96,0,10.44,0c0-3.42,0-6.84,0-10.26c0-1.67,0-3.351,0-5.04
	c0-0.41,0-0.83,0-1.25s0-0.84,0-1.26s0-0.84,0-1.261c0-0.239,0-0.479,0-0.729c0-0.23,0-0.47,0-0.71c0-0.061,0-0.12,0-0.18
	c-0.841,0-1.681,0-2.521,0c-0.899,0-1.8,0-2.7,0c0,1.729,0,3.479,0,5.22c-1.739,0-3.479,0-5.22,0C135,185.22,135,188.64,135,192.06z
	"/>
<path fill="#302F2E" d="M135,179.1c0,0.9,0,1.79,0,2.7c1.74,0,3.48,0,5.22,0c0-1.74,0-3.49,0-5.22c-0.42,0-0.84,0-1.26,0
	s-0.84,0-1.26,0c-0.18,0-0.36,0-0.54,0c-0.24,0-0.48,0-0.72,0c-0.48,0-0.96,0-1.44,0C135,177.42,135,178.26,135,179.1z"/>
<path fill="#814221" d="M135,81.72c0,0.42,0,0.84,0,1.26c0.84,0,1.68,0,2.521,0c0.84,0,1.68,0,2.52,0c0.06,0,0.12,0,0.18,0
	c0,0.18,0,0.36,0,0.53c0,1.569,0,3.13,0,4.69c0,1.56,0,3.119,0,4.68c0,0.18,0,0.359,0,0.539c5.221,0,10.44,0,15.66,0
	c0-1.739,0-3.479,0-5.219c0.18,0,0.36,0,0.54,0c3.24,0,6.48,0,9.72,0c0-1.74,0-3.48,0-5.221c0.181,0,0.36,0,0.54,0
	c0.24,0,0.48,0,0.721,0c0.18,0,0.359,0,0.54,0c0.359,0,0.72,0,1.08,0c0.42,0,0.84,0,1.26,0c0.359,0,0.72,0,1.08,0
	c0-0.84,0-1.68,0-2.52c0-0.42,0-0.84,0-1.26c0-0.24,0-0.48,0-0.721c0-0.061,0-0.119,0-0.18s0-0.12,0-0.18c0-0.061,0-0.121,0-0.181
	c0.18,0,0.359,0,0.54,0c0.42,0,0.84,0,1.26,0c0.12,0,0.24,0,0.36,0c0.239,0,0.479,0,0.72,0s0.479,0,0.72,0c0.18,0,0.36,0,0.54,0
	c0.36,0,0.72,0,1.08,0c0-1.739,0-3.479,0-5.22c0.9,0,1.8,0,2.7,0c0.84,0,1.68,0,2.52,0c0-1.74,0-3.48,0-5.221c1.74,0,3.48,0,5.221,0
	c0-1.739,0-3.489,0-5.219c0-0.48,0-0.96,0-1.44c0-0.42,0-0.84,0-1.26c0-0.84,0-1.68,0-2.52c1.739,0,3.479,0,5.22,0
	c0-1.74,0-3.48,0-5.22c0.18,0,0.359,0,0.54,0c3.24,0,6.479,0,9.72,0c0-1.68,0-3.36,0-5.04c0-0.84,0-1.68,0-2.52
	c0-0.42,0-0.84,0-1.27c0-0.17,0-0.35,0-0.53c0-0.3,0-0.6,0-0.9c-5.16,0-10.32,0-15.479,0c0,1.68,0,3.36,0,5.04
	c-1.74,0-3.48,0-5.221,0c0,1.74,0,3.48,0,5.22c-0.18,0-0.359,0-0.54,0c-1.56,0-3.12,0-4.68,0c-1.74,0-3.48,0-5.22,0
	c0-0.18,0-0.36,0-0.54c0-0.12,0-0.24,0-0.36c0-0.18,0-0.36,0-0.54c0-0.36,0-0.72,0-1.08c0-0.18,0-0.36,0-0.54c0-0.18,0-0.36,0-0.54
	c0-0.36,0-0.73,0-1.08c0-0.18,0-0.36,0-0.54c-1.74,0-3.48,0-5.221,0c0,1.74,0,3.48,0,5.22c0,0.9,0,1.8,0,2.7c0,0.42,0,0.84,0,1.26
	s0,0.84,0,1.26c0,0.48,0,0.95,0,1.44c0,0.42,0,0.84,0,1.26s0,0.84,0,1.25c0,0.43,0,0.85,0,1.27c-1.68,0-3.359,0-5.04,0
	c0,1.74,0,3.48,0,5.219c-5.22,0-10.439,0-15.659,0c0,1.74,0,3.48,0,5.221c-0.181,0-0.36,0-0.54,0c-1.38,0-2.761,0-4.141,0
	c-0.18,0-0.359,0-0.54,0c0,0.9,0,1.79,0,2.699c0,0.841,0,1.681,0,2.521c-0.899,0-1.8,0-2.699,0c-0.841,0-1.681,0-2.521,0
	c0,0.841,0,1.681,0,2.521C135,80.88,135,81.3,135,81.72z"/>
<path fill="#302F2E" d="M135,12.96c0,0.84,0,1.68,0,2.52c0.18,0,0.36,0,0.54,0s0.36,0,0.54,0s0.36,0,0.54,0c0.24,0,0.479,0,0.72,0
	c0.84,0,1.681,0,2.521,0c0.42,0,0.84,0,1.26,0s0.84,0,1.26,0s0.84,0,1.26,0s0.841,0,1.261,0c0.18,0,0.359,0,0.54,0
	c0-0.06,0-0.12,0-0.18s0-0.12,0-0.18c0-0.12,0-0.24,0-0.36c0-0.18,0-0.36,0-0.54c0-0.18,0-0.36,0-0.54c0-0.24,0-0.48,0-0.72
	c0-0.42,0-0.84,0-1.26s0-0.84,0-1.26c-1.62,0-3.24,0-4.86,0c-1.68,0-3.36,0-5.04,0c-0.18,0-0.36,0-0.54,0c0,0.24,0,0.48,0,0.72
	c0,0.18,0,0.35,0,0.54c0,0.18,0,0.36,0,0.54C135,12.48,135,12.72,135,12.96z"/>
<path fill="#302F2E" d="M140.22,173.88c0,0.9,0,1.8,0,2.7c0.9,0,1.801,0,2.7,0c0.84,0,1.68,0,2.521,0c0-0.841,0-1.681,0-2.521
	c0-0.9,0-1.8,0-2.699c0-1.74,0-3.48,0-5.221c-0.841,0-1.681,0-2.521,0c-0.899,0-1.8,0-2.7,0c0,0.84,0,1.68,0,2.52
	c0,0.9,0,1.801,0,2.701C140.22,172.201,140.22,173.041,140.22,173.88z"/>
<path fill="#302F2E" d="M140.22,153.18c0,2.58,0,5.16,0,7.739c0.061,0,0.12,0,0.181,0c0.06,0,0.12,0,0.18,0c0.12,0,0.24,0,0.36,0
	c0.239,0,0.479,0,0.72,0c0.42,0,0.84,0,1.26,0c0.84,0,1.68,0,2.521,0c0-0.899,0-1.799,0-2.699c0-0.42,0-0.84,0-1.26s0-0.84,0-1.26
	c0-0.9,0-1.801,0-2.701c0-0.84,0-1.68,0-2.52c0-1.68,0-3.359,0-5.04c-0.841,0-1.681,0-2.521,0c-0.42,0-0.84,0-1.26,0
	c-0.48,0-0.96,0-1.44,0C140.22,148.01,140.22,150.6,140.22,153.18z"/>
<path fill="#814221" d="M140.22,142.74c0,0.9,0,1.801,0,2.7c0.48,0,0.96,0,1.44,0c0.42,0,0.84,0,1.26,0c0.84,0,1.68,0,2.521,0
	c0-1.739,0-3.479,0-5.22s0-3.48,0-5.221c-1.74,0-3.48,0-5.221,0c0,0.841,0,1.681,0,2.521c0,0.899,0,1.8,0,2.7
	C140.22,141.06,140.22,141.9,140.22,142.74z"/>
<path fill="#302F2E" d="M140.22,61.74c0,0.18,0,0.36,0,0.54c1.74,0,3.48,0,5.221,0c0-1.74,0-3.48,0-5.22c-1.74,0-3.48,0-5.221,0
	C140.22,58.62,140.22,60.18,140.22,61.74z"/>
<path fill="#814221" d="M140.22,41.58c0,1.68,0,3.36,0,5.04c1.74,0,3.48,0,5.221,0c0-0.18,0-0.36,0-0.54c0-0.3,0-0.6,0-0.9
	c0-0.36,0-0.72,0-1.08c0-0.3,0-0.6,0-0.9c0-0.36,0-0.72,0-1.08c0-0.18,0-0.36,0-0.54c-1.561,0-3.12,0-4.681,0
	C140.58,41.58,140.4,41.58,140.22,41.58z"/>
<path fill="#814221" d="M140.22,28.44c0,0.9,0,1.8,0,2.7c8.641,0,17.28,0,25.92,0c0-1.74,0-3.48,0-5.22c-8.64,0-17.279,0-25.92,0
	C140.22,26.76,140.22,27.6,140.22,28.44z"/>
<path fill="#302F2E" d="M140.22,23.4c0,0.84,0,1.68,0,2.52c8.641,0,17.28,0,25.92,0c0-1.74,0-3.48,0-5.22c-8.64,0-17.279,0-25.92,0
	c0,0.24,0,0.48,0,0.72c0,0.24,0,0.48,0,0.72C140.22,22.56,140.22,22.98,140.22,23.4z"/>
<path fill="#302F2E" d="M145.44,187.01c0,3.42,0,6.84,0,10.26c1.739,0,3.479,0,5.22,0c0-1.67,0-3.35,0-5.03c0-1.68,0-3.359,0-5.04
	c0-1.689,0-3.359,0-5.04c0-0.85,0-1.689,0-2.52c0-0.84,0-1.68,0-2.52c0-0.19,0-0.36,0-0.54c-0.061,0-0.12,0-0.18,0
	c-0.061,0-0.12,0-0.181,0c-0.12,0-0.24,0-0.359,0c-0.24,0-0.48,0-0.721,0c-0.42,0-0.84,0-1.26,0c-0.84,0-1.68,0-2.52,0
	c0,0.06,0,0.119,0,0.18c0,0.24,0,0.479,0,0.71c0,0.25,0,0.49,0,0.729c0,0.421,0,0.841,0,1.261s0,0.84,0,1.26s0,0.84,0,1.25
	C145.44,183.66,145.44,185.34,145.44,187.01z"/>
<path fill="#523822" d="M145.44,174.06c0,0.84,0,1.68,0,2.521c0.84,0,1.68,0,2.52,0c0.42,0,0.84,0,1.26,0c0.24,0,0.48,0,0.721,0
	c0.119,0,0.239,0,0.359,0c0.061,0,0.12,0,0.181,0c0.06,0,0.119,0,0.18,0c0,0.18,0,0.35,0,0.54c0,0.84,0,1.68,0,2.52
	c0,0.83,0,1.67,0,2.52c0,1.681,0,3.351,0,5.04c0,1.681,0,3.36,0,5.04c0,1.681,0,3.36,0,5.03c1.74,0,3.479,0,5.22,0
	c0,1.74,0,3.49,0,5.23c1.74,0,3.48,0,5.22,0c0,0.18,0,0.35,0,0.54c0,1.56,0,3.119,0,4.68c8.641,0,17.28,0,25.921,0
	c0-1.75,0-3.48,0-5.22c1.739,0,3.479,0,5.22,0c0-1.74,0-3.49,0-5.23c5.04,0,10.08,0,15.12,0c0.12,0,0.239,0,0.359,0
	c0-1.729,0-3.47,0-5.21c-1.739,0-3.479,0-5.22,0c0-1.75,0-3.479,0-5.22c-1.74,0-3.479,0-5.22,0c0-0.66,0-1.33,0-1.99
	c0-0.59,0-1.19,0-1.79c0-0.67,0-1.32,0-1.979c0-0.61,0-1.2,0-1.811c0-0.35,0-0.71,0-1.07c0-0.189,0-0.359,0-0.54
	c0-0.119,0-0.239,0-0.359c0-0.18,0-0.37,0-0.54c0-0.12,0-0.25,0-0.37c0-0.17,0-0.35,0-0.529c0-0.121,0-0.24,0-0.361
	c0-0.359,0-0.719,0-1.08c0-0.18,0-0.359,0-0.539c0-0.12,0-0.24,0-0.36c0-0.18,0-0.36,0-0.54c0-0.119,0-0.24,0-0.359
	c0-0.181,0-0.36,0-0.541c0-0.119,0-0.239,0-0.359s0-0.24,0-0.359c0.479,0,0.96,0,1.439,0c0.42,0,0.84,0,1.261,0
	c0.42,0,0.84,0,1.26,0s0.84,0,1.26,0c0-0.9,0-1.801,0-2.701c0-0.84,0-1.68,0-2.52c0.9,0,1.8,0,2.7,0c0.84,0,1.68,0,2.52,0
	c0-1.62,0-3.24,0-4.859c0-1.681,0-3.361,0-5.041c0-0.18,0-0.359,0-0.539c-0.06,0-0.12,0-0.18,0c-0.42,0-0.84,0-1.26,0
	s-0.84,0-1.26,0c-0.841,0-1.681,0-2.521,0c0,1.739,0,3.479,0,5.219c-0.18,0-0.36,0-0.54,0c-1.62,0-3.24,0-4.86,0
	c-1.619,0-3.239,0-4.859,0c0,1.74,0,3.48,0,5.221c-2.58,0-5.16,0-7.74,0c-2.52,0-5.04,0-7.56,0c-0.12,0-0.24,0-0.36,0
	c0-0.9,0-1.8,0-2.7c0-0.84,0-1.68,0-2.521c-0.9,0-1.8,0-2.7,0c-0.84,0-1.68,0-2.52,0c-0.9,0-1.801,0-2.7,0c-0.84,0-1.68,0-2.521,0
	c-0.899,0-1.8,0-2.699,0c-0.841,0-1.681,0-2.521,0s-1.68,0-2.52,0c-0.841,0-1.681,0-2.521,0c0,1.74,0,3.48,0,5.221
	c-0.18,0-0.359,0-0.54,0c-1.68,0-3.359,0-5.04,0c-1.62,0-3.24,0-4.859,0c0,1.74,0,3.48,0,5.221
	C145.44,172.26,145.44,173.16,145.44,174.06z"/>
<path fill="#302F2E" d="M145.44,164.701c0,0.479,0,0.959,0,1.439c1.619,0,3.239,0,4.859,0c1.681,0,3.36,0,5.04,0
	c0.181,0,0.36,0,0.54,0c0-1.74,0-3.48,0-5.221c-0.84,0-1.68,0-2.52,0c-0.9,0-1.801,0-2.7,0c-0.84,0-1.68,0-2.521,0
	c-0.899,0-1.8,0-2.699,0c0,0.841,0,1.681,0,2.521C145.44,163.861,145.44,164.281,145.44,164.701z"/>
<path fill="#814221" d="M145.44,158.22c0,0.9,0,1.8,0,2.699c0.899,0,1.8,0,2.699,0c0.841,0,1.681,0,2.521,0c0-0.84,0-1.68,0-2.52
	s0-1.68,0-2.52s0-1.68,0-2.52c0-0.421,0-0.841,0-1.261c0-0.239,0-0.479,0-0.72c0-0.12,0-0.24,0-0.36c0-0.18,0-0.36,0-0.54
	c-0.84,0-1.68,0-2.521,0c-0.42,0-0.84,0-1.26,0c-0.479,0-0.96,0-1.439,0c0,0.84,0,1.68,0,2.52c0,0.9,0,1.801,0,2.701
	c0,0.42,0,0.84,0,1.26S145.44,157.8,145.44,158.22z"/>
<path fill="#A06141" d="M145.44,145.44c0,1.681,0,3.36,0,5.04c0.479,0,0.96,0,1.439,0c0.42,0,0.84,0,1.26,0c0.841,0,1.681,0,2.521,0
	c0-1.68,0-3.359,0-5.04c0.84,0,1.68,0,2.52,0c0.9,0,1.801,0,2.7,0c0-1.739,0-3.479,0-5.22c-1.74,0-3.479,0-5.22,0
	c0-1.74,0-3.48,0-5.221c-1.74,0-3.48,0-5.22,0c0,1.74,0,3.48,0,5.221S145.44,143.701,145.44,145.44z"/>
<path fill="#814221" d="M145.44,127.08c0,0.9,0,1.801,0,2.701c0.84,0,1.68,0,2.52,0s1.68,0,2.521,0c1.739,0,3.479,0,5.22,0
	s3.479,0,5.22,0s3.48,0,5.22,0c0-1.74,0-3.48,0-5.221c-1.68,0-3.359,0-5.04,0c-0.84,0-1.68,0-2.52,0c-0.9,0-1.8,0-2.7,0
	c-0.84,0-1.68,0-2.52,0c-0.9,0-1.801,0-2.7,0c-0.84,0-1.68,0-2.521,0c-0.899,0-1.8,0-2.699,0
	C145.44,125.4,145.44,126.24,145.44,127.08z"/>
<path fill="#302F2E" d="M145.44,119.34c0,1.739,0,3.479,0,5.22c0.899,0,1.8,0,2.699,0c0.841,0,1.681,0,2.521,0c0.899,0,1.8,0,2.7,0
	c0.84,0,1.68,0,2.52,0c0.9,0,1.8,0,2.7,0c0.84,0,1.68,0,2.52,0c1.681,0,3.36,0,5.04,0c0-1.74,0-3.48,0-5.22c-1.68,0-3.359,0-5.04,0
	c-0.84,0-1.68,0-2.52,0c-0.9,0-1.8,0-2.7,0c-0.84,0-1.68,0-2.52,0c-0.9,0-1.801,0-2.7,0c-0.84,0-1.68,0-2.521,0
	C147.24,119.34,146.34,119.34,145.44,119.34z"/>
<path fill="#302F2E" d="M145.44,62.28c0,1.73,0,3.48,0,5.219c5.22,0,10.439,0,15.659,0c0-1.739,0-3.479,0-5.219
	c-1.739,0-3.479,0-5.22,0C152.4,62.28,148.92,62.28,145.44,62.28z"/>
<path fill="#FFFFFF" d="M145.44,57.06c0,1.74,0,3.48,0,5.22c3.479,0,6.96,0,10.439,0c0-1.74,0-3.48,0-5.22c-1.74,0-3.479,0-5.22,0
	S147.18,57.06,145.44,57.06z"/>
<path fill="#814221" d="M145.44,51.84c0,1.74,0,3.48,0,5.22c1.739,0,3.479,0,5.22,0c0-1.74,0-3.48,0-5.22
	C148.92,51.84,147.18,51.84,145.44,51.84z"/>
<path fill="#302F2E" d="M145.44,7.92c0,0.84,0,1.68,0,2.52c3.359,0,6.72,0,10.08,0c3.359,0,6.72,0,10.079,0c0.181,0,0.36,0,0.54,0
	c0-1.74,0-3.48,0-5.22c-1.68,0-3.359,0-5.04,0c-1.68,0-3.359,0-5.04,0c-3.359,0-6.72,0-10.079,0c-0.181,0-0.36,0-0.54,0
	c0,0.06,0,0.12,0,0.18c0,0.06,0,0.11,0,0.18c0,0.12,0,0.24,0,0.36c0,0.24,0,0.48,0,0.72C145.44,7.08,145.44,7.5,145.44,7.92z"/>
<path fill="#302F2E" d="M150.66,197.27c0,3.49,0,6.97,0,10.45c3.479,0,6.96,0,10.439,0c0-1.561,0-3.12,0-4.68c0-0.19,0-0.36,0-0.54
	c-1.739,0-3.479,0-5.22,0c0-1.74,0-3.49,0-5.23C154.14,197.27,152.4,197.27,150.66,197.27z"/>
<path fill="#A06141" d="M150.66,158.4c0,0.84,0,1.68,0,2.52c0.899,0,1.8,0,2.7,0c0.84,0,1.68,0,2.52,0c0-0.899,0-1.799,0-2.699
	c0-0.84,0-1.68,0-2.52c0-1.74,0-3.48,0-5.221c-0.84,0-1.68,0-2.52,0c-0.9,0-1.801,0-2.7,0c0,0.18,0,0.36,0,0.54
	c0,0.12,0,0.24,0,0.36c0,0.24,0,0.48,0,0.72c0,0.42,0,0.84,0,1.261c0,0.84,0,1.68,0,2.52S150.66,157.56,150.66,158.4z"/>
<path fill="#814221" d="M150.66,145.44c0,1.681,0,3.36,0,5.04c0.899,0,1.8,0,2.7,0c0.84,0,1.68,0,2.52,0c0,1.74,0,3.48,0,5.221
	c5.16,0,10.32,0,15.48,0c0-0.84,0-1.69,0-2.521c0-0.42,0-0.84,0-1.261c0-0.239,0-0.479,0-0.719c0-0.061,0-0.121,0-0.181
	s0-0.12,0-0.18s0-0.12,0-0.181c0-0.06,0-0.119,0-0.18c0.18,0,0.359,0,0.54,0c0.72,0,1.439,0,2.159,0c0.36,0,0.721,0,1.08,0
	c0.181,0,0.36,0,0.54,0c0.12,0,0.24,0,0.36,0c0.18,0,0.36,0,0.54,0c0-1.68,0-3.359,0-5.04c-0.9,0-1.8,0-2.7,0c-0.84,0-1.68,0-2.52,0
	c0-0.899,0-1.8,0-2.7c0-0.84,0-1.68,0-2.52c-1.681,0-3.36,0-5.04,0c-0.84,0-1.681,0-2.521,0c-0.899,0-1.8,0-2.7,0
	c0-1.74,0-3.48,0-5.221c-3.479,0-6.96,0-10.439,0c0,1.74,0,3.48,0,5.221c1.74,0,3.479,0,5.22,0c0,1.74,0,3.48,0,5.22
	c-0.899,0-1.8,0-2.7,0C152.34,145.44,151.5,145.44,150.66,145.44z"/>
<path fill="#282828" d="M150.66,51.84c0,1.74,0,3.48,0,5.22c1.74,0,3.479,0,5.22,0c0,1.74,0,3.48,0,5.22c1.74,0,3.48,0,5.22,0
	c0-1.74,0-3.48,0-5.22c0-1.74,0-3.48,0-5.22C157.62,51.84,154.14,51.84,150.66,51.84z"/>
<path fill="#814221" d="M150.66,46.62c0,1.74,0,3.48,0,5.22c3.479,0,6.96,0,10.439,0c0-1.74,0-3.48,0-5.22c-1.619,0-3.239,0-4.859,0
	c-1.681,0-3.36,0-5.04,0C151.021,46.62,150.84,46.62,150.66,46.62z"/>
<path fill="#302F2E" d="M155.88,158.22c0,0.9,0,1.8,0,2.699c0.84,0,1.68,0,2.521,0c0.84,0,1.68,0,2.52,0s1.68,0,2.521,0
	c0.899,0,1.8,0,2.699,0c0.841,0,1.681,0,2.521,0c0.899,0,1.8,0,2.7,0c0.84,0,1.68,0,2.52,0c0.9,0,1.8,0,2.7,0
	c0-0.359,0-0.719,0-1.079c0-0.181,0-0.36,0-0.54c0-0.24,0-0.48,0-0.721c0-0.18,0-0.359,0-0.539s0-0.36,0-0.541c0-0.42,0-0.84,0-1.26
	c0-0.18,0-0.359,0-0.539c-0.06,0-0.12,0-0.18,0c-0.42,0-0.841,0-1.261,0s-0.84,0-1.26,0c-0.84,0-1.68,0-2.52,0
	c-5.16,0-10.32,0-15.48,0C155.88,156.541,155.88,157.38,155.88,158.22z"/>
<path fill="#302F2E" d="M155.88,88.201c0,1.739,0,3.479,0,5.219c3.24,0,6.48,0,9.72,0c0.181,0,0.36,0,0.54,0
	c0-1.739,0-3.479,0-5.219c-3.239,0-6.479,0-9.72,0C156.24,88.201,156.06,88.201,155.88,88.201z"/>
<path fill="#302F2E" d="M161.1,207.72c0,1.74,0,3.479,0,5.21c8.641,0,17.28,0,25.921,0c0-1.73,0-3.47,0-5.21
	C178.38,207.72,169.74,207.72,161.1,207.72z"/>
<path fill="#302F2E" d="M161.1,57.06c0,1.74,0,3.48,0,5.22c1.681,0,3.36,0,5.04,0c0-0.42,0-0.84,0-1.27c0-0.41,0-0.83,0-1.25
	s0-0.84,0-1.26c0-0.49,0-0.96,0-1.44c0-0.42,0-0.84,0-1.26s0-0.84,0-1.26c0-0.9,0-1.8,0-2.7c-1.68,0-3.359,0-5.04,0
	C161.1,53.58,161.1,55.32,161.1,57.06z"/>
<path fill="#A06141" d="M161.1,46.62c0,1.74,0,3.48,0,5.22c1.681,0,3.36,0,5.04,0c0-1.74,0-3.48,0-5.22
	C164.46,46.62,162.78,46.62,161.1,46.62z"/>
<path fill="#814221" d="M161.1,41.58c0,1.68,0,3.36,0,5.04c1.681,0,3.36,0,5.04,0c0-1.68,0-3.36,0-5.04
	C164.46,41.58,162.78,41.58,161.1,41.58z"/>
<path fill="#814221" d="M166.14,132.3c0,0.9,0,1.8,0,2.699c5.221,0,10.44,0,15.66,0c0,0.42,0,0.841,0,1.261s0,0.84,0,1.26
	c0,0.899,0,1.8,0,2.7c0.84,0,1.681,0,2.521,0s1.68,0,2.52,0c1.74,0,3.48,0,5.22,0c1.74,0,3.48,0,5.221,0s3.479,0,5.22,0
	c0,0.84,0,1.68,0,2.52c0,0.9,0,1.801,0,2.7c0.18,0,0.36,0,0.54,0c1.56,0,3.12,0,4.68,0c1.561,0,3.12,0,4.681,0
	c0.18,0,0.359,0,0.54,0c0-0.06,0-0.12,0-0.18c0-0.42,0-0.841,0-1.261s0-0.84,0-1.26c0-0.84,0-1.68,0-2.52c0-1.74,0-3.48,0-5.221
	c-8.641,0-17.28,0-25.92,0c0-1.739,0-3.479,0-5.219c-0.421,0-0.841,0-1.261,0s-0.84,0-1.26,0c-0.9,0-1.8,0-2.7,0
	c-0.42,0-0.84,0-1.26,0s-0.84,0-1.26,0c-0.9,0-1.8,0-2.7,0c-0.42,0-0.84,0-1.26,0s-0.84,0-1.261,0c-0.899,0-1.8,0-2.699,0
	c-0.42,0-0.84,0-1.261,0c-0.42,0-0.84,0-1.26,0c-0.899,0-1.8,0-2.7,0c0,0.42,0,0.84,0,1.26S166.14,131.88,166.14,132.3z"/>
<path fill="#302F2E" d="M166.14,124.56c0,1.74,0,3.48,0,5.221c0.9,0,1.801,0,2.7,0c0.42,0,0.84,0,1.26,0c0.421,0,0.841,0,1.261,0
	c0.899,0,1.8,0,2.699,0c0.421,0,0.841,0,1.261,0s0.84,0,1.26,0c0.9,0,1.8,0,2.7,0c0.42,0,0.84,0,1.26,0s0.84,0,1.26,0
	c0.9,0,1.8,0,2.7,0c0.42,0,0.84,0,1.26,0s0.84,0,1.261,0c0-0.9,0-1.801,0-2.701c0-0.84,0-1.68,0-2.52c0-1.74,0-3.48,0-5.22
	c-1.74,0-3.48,0-5.221,0c0,0.42,0,0.84,0,1.26c0,0.41,0,0.84,0,1.261c0,0.899,0,1.799,0,2.699
	C176.58,124.56,171.36,124.56,166.14,124.56z"/>
<path fill="#302F2E" d="M166.14,82.98c0,1.74,0,3.48,0,5.221c1.561,0,3.12,0,4.681,0c0.18,0,0.359,0,0.54,0c0-0.061,0-0.121,0-0.19
	c0-0.05,0-0.11,0-0.17s0-0.12,0-0.181c0-0.06,0-0.119,0-0.18c0-0.24,0-0.48,0-0.72c0-0.42,0-0.841,0-1.261c0-0.84,0-1.68,0-2.52
	c-0.36,0-0.721,0-1.08,0c-0.42,0-0.84,0-1.26,0c-0.36,0-0.721,0-1.08,0c-0.181,0-0.36,0-0.54,0c-0.24,0-0.48,0-0.721,0
	C166.5,82.98,166.32,82.98,166.14,82.98z"/>
<path fill="#FFFFFF" d="M166.14,41.58c0,1.68,0,3.36,0,5.04c1.74,0,3.48,0,5.221,0c0,0.18,0,0.36,0,0.54c0,0.35,0,0.72,0,1.08
	c0,0.18,0,0.36,0,0.54c0,0.18,0,0.36,0,0.54c0,0.36,0,0.72,0,1.08c0,0.18,0,0.36,0,0.54c0,0.12,0,0.24,0,0.36c0,0.18,0,0.36,0,0.54
	c1.739,0,3.479,0,5.22,0c0-1.74,0-3.48,0-5.22c1.74,0,3.479,0,5.22,0c0-2.16,0-4.32,0-6.48c0-1.08,0-2.16,0-3.24
	c0-1.08,0-2.16,0-3.24c0-2.16,0-4.32,0-6.48c0-1.08,0-2.17,0-3.24c0-1.08,0-2.16,0-3.24c-1.74,0-3.479,0-5.22,0
	c0,0.66,0,1.31,0,1.98c0,0.18,0,0.36,0,0.54c0,0.18,0,0.36,0,0.54c0,0.18,0,0.36,0,0.54c0,0.12,0,0.24,0,0.36c0,0.18,0,0.35,0,0.54
	c0,0.18,0,0.36,0,0.54c0,0.18,0,0.36,0,0.54c0,0.12,0,0.23,0,0.36c0,0.18,0,0.36,0,0.54s0,0.36,0,0.54c0,0.18,0,0.36,0,0.54
	c0,0.12,0,0.24,0,0.36c0,2.58,0,5.16,0,7.74c-0.9,0-1.8,0-2.7,0c-0.84,0-1.68,0-2.52,0c0,0.84,0,1.68,0,2.52c0,0.42,0,0.84,0,1.26
	c0,0.24,0,0.48,0,0.72c0,0.06,0,0.12,0,0.18s0,0.12,0,0.18s0,0.12,0,0.18c0,0.06,0,0.11,0,0.18c-0.181,0-0.36,0-0.54,0
	C169.26,41.58,167.7,41.58,166.14,41.58z"/>
<path fill="#302F2E" d="M166.14,40.14c0,0.48,0,0.96,0,1.44c1.561,0,3.12,0,4.681,0c0.18,0,0.359,0,0.54,0c0-0.07,0-0.12,0-0.18
	c0-0.06,0-0.12,0-0.18s0-0.12,0-0.18s0-0.12,0-0.18c0-0.24,0-0.48,0-0.72c0-0.42,0-0.84,0-1.26c0-0.84,0-1.68,0-2.52
	c-0.84,0-1.681,0-2.521,0c-0.42,0-0.84,0-1.26,0c-0.48,0-0.96,0-1.44,0c0,0.42,0,0.84,0,1.26s0,0.84,0,1.26
	C166.14,39.3,166.14,39.72,166.14,40.14z"/>
<path fill="#814221" d="M166.14,31.14c0,1.74,0,3.48,0,5.22c0.48,0,0.96,0,1.44,0c0.42,0,0.84,0,1.26,0c0.84,0,1.681,0,2.521,0
	c0-1.74,0-3.48,0-5.22C169.62,31.14,167.88,31.14,166.14,31.14z"/>
<path fill="#302F2E" d="M166.14,25.92c0,1.74,0,3.48,0,5.22c1.74,0,3.48,0,5.221,0c0,1.74,0,3.48,0,5.22c0.84,0,1.68,0,2.52,0
	c0.9,0,1.8,0,2.7,0c0-2.58,0-5.16,0-7.74c0-0.12,0-0.24,0-0.36c0-0.18,0-0.36,0-0.54c0-0.18,0-0.36,0-0.54s0-0.36,0-0.54
	c0-0.13,0-0.24,0-0.36c0-0.18,0-0.36,0-0.54c0-0.18,0-0.36,0-0.54c0-0.19,0-0.36,0-0.54c0-0.12,0-0.24,0-0.36c0-0.18,0-0.36,0-0.54
	c0-0.18,0-0.36,0-0.54c0-0.18,0-0.36,0-0.54c0-0.67,0-1.32,0-1.98c-1.56,0-3.12,0-4.68,0c-0.181,0-0.36,0-0.54,0
	c0,0.06,0,0.12,0,0.18c0,0.06,0,0.12,0,0.18s0,0.12,0,0.18s0,0.12,0,0.18c0,0.24,0,0.48,0,0.72c0,0.42,0,0.84,0,1.26
	c0,0.84,0,1.68,0,2.52C169.62,25.92,167.88,25.92,166.14,25.92z"/>
<path fill="#302F2E" d="M166.14,2.7c0,0.84,0,1.68,0,2.52c0.061,0,0.12,0,0.181,0c0.06,0,0.12,0,0.18,0c0.18,0,0.36,0,0.54,0
	c0.24,0,0.48,0,0.72,0c0.42,0,0.84,0,1.261,0c0.42,0,0.84,0,1.26,0s0.84,0,1.26,0c0.48,0,0.96,0,1.44,0c0.42,0,0.84,0,1.26,0
	s0.84,0,1.26,0s0.84,0,1.26,0c0.48,0,0.96,0,1.44,0c0.42,0,0.84,0,1.26,0s0.84,0,1.26,0s0.84,0,1.261,0c1.68,0,3.359,0,5.04,0
	c0-0.36,0-0.72,0-1.08c0-0.42,0-0.84,0-1.26c0-0.78,0-1.56,0-2.34c0-0.18,0-0.36,0-0.54c-0.061,0-0.12,0-0.181,0
	c-0.06,0-0.12,0-0.18,0c-0.12,0-0.24,0-0.36,0c-0.24,0-0.479,0-0.72,0c-0.42,0-0.84,0-1.26,0c-0.84,0-1.681,0-2.521,0
	c-1.68,0-3.359,0-5.04,0c-3.359,0-6.72,0-10.08,0c-0.18,0-0.359,0-0.54,0c0,0.06,0,0.12,0,0.18C166.14,1.01,166.14,1.86,166.14,2.7z
	"/>
<path fill="#A06141" d="M171.36,153.18c0,0.83,0,1.681,0,2.521c0.84,0,1.68,0,2.52,0c0.42,0,0.84,0,1.26,0s0.841,0,1.261,0
	c0.06,0,0.12,0,0.18,0c0,0.18,0,0.359,0,0.539c0,0.42,0,0.84,0,1.26c0,0.181,0,0.361,0,0.541s0,0.359,0,0.539c0,0.24,0,0.48,0,0.721
	c0,0.18,0,0.359,0,0.54c0,0.36,0,0.72,0,1.079c0.9,0,1.8,0,2.7,0c0.84,0,1.68,0,2.52,0c0.9,0,1.8,0,2.7,0c0.84,0,1.68,0,2.521,0
	c0-1.739,0-3.479,0-5.219c0-1.74,0-3.48,0-5.221c0.18,0,0.359,0,0.539,0c1.381,0,2.761,0,4.141,0c0.18,0,0.359,0,0.54,0
	c0-1.68,0-3.359,0-5.04c-2.58,0-5.16,0-7.74,0c-0.12,0-0.24,0-0.36,0c-0.18,0-0.359,0-0.54,0c-0.359,0-0.72,0-1.079,0
	c-0.12,0-0.24,0-0.36,0c-0.18,0-0.36,0-0.54,0c-0.36,0-0.72,0-1.08,0c-0.12,0-0.24,0-0.36,0c-0.18,0-0.359,0-0.54,0
	c-0.359,0-0.72,0-1.08,0c-0.119,0-0.239,0-0.359,0c-0.18,0-0.36,0-0.54,0c-0.36,0-0.72,0-1.08,0c0,1.681,0,3.36,0,5.04
	c-0.18,0-0.36,0-0.54,0c-0.12,0-0.24,0-0.36,0c-0.18,0-0.359,0-0.54,0c-0.359,0-0.72,0-1.08,0c-0.72,0-1.439,0-2.159,0
	c-0.181,0-0.36,0-0.54,0c0,0.061,0,0.12,0,0.18c0,0.061,0,0.121,0,0.181s0,0.12,0,0.18s0,0.12,0,0.181c0,0.239,0,0.479,0,0.719
	C171.36,152.34,171.36,152.76,171.36,153.18z"/>
<path fill="#A06141" d="M171.36,142.74c0,0.9,0,1.801,0,2.7c0.84,0,1.68,0,2.52,0c0.9,0,1.8,0,2.7,0c0-1.739,0-3.479,0-5.22
	c-1.74,0-3.48,0-5.22,0C171.36,141.06,171.36,141.9,171.36,142.74z"/>
<path fill="#302F2E" d="M171.36,80.46c0,0.84,0,1.68,0,2.52c0.359,0,0.72,0,1.08,0c0.42,0,0.84,0,1.26,0c0.359,0,0.72,0,1.08,0
	c0.18,0,0.359,0,0.54,0c0.239,0,0.479,0,0.72,0c0.18,0,0.36,0,0.54,0c0-0.24,0-0.48,0-0.72c0-0.181,0-0.36,0-0.54s0-0.359,0-0.54
	c0-0.24,0-0.479,0-0.72c0-0.84,0-1.68,0-2.521c-0.36,0-0.72,0-1.08,0c-0.18,0-0.36,0-0.54,0c-0.24,0-0.479,0-0.72,0s-0.48,0-0.72,0
	c-0.12,0-0.24,0-0.36,0c-0.42,0-0.84,0-1.26,0c-0.181,0-0.36,0-0.54,0c0,0.06,0,0.12,0,0.181c0,0.06,0,0.119,0,0.18s0,0.119,0,0.18
	c0,0.24,0,0.48,0,0.721C171.36,79.621,171.36,80.041,171.36,80.46z"/>
<path fill="#302F2E" d="M176.58,163.44c0,0.9,0,1.8,0,2.7c0.12,0,0.24,0,0.36,0c2.52,0,5.04,0,7.56,0c2.58,0,5.16,0,7.74,0
	c0-1.74,0-3.48,0-5.221c-0.84,0-1.681,0-2.521,0c-0.899,0-1.8,0-2.699,0c-0.841,0-1.681,0-2.521,0c-0.9,0-1.8,0-2.7,0
	c-0.84,0-1.68,0-2.52,0c-0.9,0-1.8,0-2.7,0C176.58,161.76,176.58,162.6,176.58,163.44z"/>
<path fill="#302F2E" d="M176.58,72.72c0,1.74,0,3.48,0,5.22c0.36,0,0.72,0,1.08,0c0.18,0,0.36,0,0.54,0c0.24,0,0.479,0,0.72,0
	s0.48,0,0.72,0c0.12,0,0.24,0,0.36,0c0.42,0,0.84,0,1.26,0c0.181,0,0.36,0,0.54,0c0-0.239,0-0.479,0-0.72s0-0.48,0-0.721
	c0-0.42,0-0.84,0-1.26c0-0.84,0-1.68,0-2.52c-0.84,0-1.68,0-2.52,0C178.38,72.72,177.48,72.72,176.58,72.72z"/>
<path fill="#D4D5D7" d="M176.58,46.62c0,1.74,0,3.48,0,5.22c1.56,0,3.12,0,4.68,0c0.181,0,0.36,0,0.54,0c0-1.74,0-3.48,0-5.22
	C180.06,46.62,178.32,46.62,176.58,46.62z"/>
<path fill="#302F2E" d="M176.58,18.18c0,0.83,0,1.68,0,2.52c1.74,0,3.479,0,5.22,0c0-1.74,0-3.48,0-5.22c-0.18,0-0.359,0-0.54,0
	c-0.18,0-0.359,0-0.54,0c-0.18,0-0.359,0-0.54,0c-0.239,0-0.479,0-0.72,0c-0.18,0-0.36,0-0.54,0s-0.36,0-0.54,0
	c-0.42,0-0.84,0-1.26,0c-0.18,0-0.36,0-0.54,0c0,0.24,0,0.48,0,0.72c0,0.24,0,0.48,0,0.72C176.58,17.34,176.58,17.76,176.58,18.18z"
	/>
<path fill="#302F2E" d="M181.8,67.5c0,1.74,0,3.48,0,5.221c0.84,0,1.681,0,2.521,0c0.899,0,1.8,0,2.7,0c0-1.74,0-3.48,0-5.221
	C185.28,67.5,183.54,67.5,181.8,67.5z"/>
<path fill="#D4D5D7" d="M181.8,40.14c0,2.16,0,4.32,0,6.48c1.74,0,3.48,0,5.221,0c0-1.68,0-3.36,0-5.04c0-0.24,0-0.48,0-0.72
	c0-0.12,0-0.24,0-0.36c0-0.18,0-0.36,0-0.54c0-0.54,0-1.08,0-1.62c0-0.24,0-0.48,0-0.72c0-0.12,0-0.24,0-0.36c0-0.18,0-0.36,0-0.54
	c0-0.54,0-1.08,0-1.62c0-0.24,0-0.48,0-0.72c0-0.12,0-0.24,0-0.37c0-0.17,0-0.35,0-0.53c0-0.54,0-1.08,0-1.62c0-0.24,0-0.48,0-0.72
	c0-0.13,0-0.24,0-0.36c0-0.18,0-0.36,0-0.54c0-0.54,0-1.08,0-1.62c0-0.24,0-0.48,0-0.72c0-0.12,0-0.24,0-0.36c0-0.18,0-0.36,0-0.54
	c0-0.54,0-1.08,0-1.62c0-0.24,0-0.48,0-0.72c0-0.12,0-0.24,0-0.36c0-0.18,0-0.36,0-0.54c0-0.54,0-1.08,0-1.62c0-0.24,0-0.48,0-0.72
	c0-0.3,0-0.6,0-0.91c0-0.53,0-1.07,0-1.61c0-0.24,0-0.48,0-0.72c0-0.12,0-0.24,0-0.36c0-0.18,0-0.36,0-0.54c0-0.24,0-0.48,0-0.72
	c0-0.12,0-0.24,0-0.36c0-0.24,0-0.48,0-0.72c-0.841,0-1.681,0-2.521,0c-0.42,0-0.84,0-1.26,0c-0.48,0-0.96,0-1.44,0
	c0,1.74,0,3.48,0,5.22c0,1.08,0,2.16,0,3.24c0,1.07,0,2.16,0,3.24c0,2.16,0,4.32,0,6.48c0,1.08,0,2.16,0,3.24
	C181.8,37.98,181.8,39.06,181.8,40.14z"/>
<path fill="#302F2E" d="M181.8,12.96c0,0.84,0,1.68,0,2.52c0.48,0,0.96,0,1.44,0c0.42,0,0.84,0,1.26,0c0.84,0,1.68,0,2.521,0
	c0-0.84,0-1.68,0-2.52c0-0.84,0-1.68,0-2.52c-1.74,0-3.48,0-5.221,0C181.8,11.28,181.8,12.12,181.8,12.96z"/>
<path fill="#302F2E" d="M187.021,202.5c0,1.739,0,3.47,0,5.22c1.739,0,3.479,0,5.22,0c0-1.75,0-3.48,0-5.22
	C190.5,202.5,188.76,202.5,187.021,202.5z"/>
<path fill="#814221" d="M187.021,155.701c0,1.739,0,3.479,0,5.219c0.899,0,1.8,0,2.699,0c0.84,0,1.681,0,2.521,0
	c0-1.68,0-3.359,0-5.039c0-0.061,0-0.12,0-0.18c0.18,0,0.359,0,0.54,0c1.62,0,3.24,0,4.859,0c1.62,0,3.24,0,4.86,0
	c0-1.561,0-3.121,0-4.681c0-0.18,0-0.36,0-0.54c-0.06,0-0.12,0-0.18,0c-1.681,0-3.36,0-5.04,0c0-1.68,0-3.359,0-5.04
	c-1.681,0-3.36,0-5.04,0c0,1.681,0,3.36,0,5.04c-0.181,0-0.36,0-0.54,0c-1.38,0-2.76,0-4.141,0c-0.18,0-0.359,0-0.539,0
	C187.021,152.22,187.021,153.96,187.021,155.701z"/>
<path fill="#302F2E" d="M187.021,129.781c0,1.739,0,3.479,0,5.219c8.64,0,17.279,0,25.92,0c0-1.739,0-3.479,0-5.219
	c-1.681,0-3.36,0-5.04,0c-0.42,0-0.841,0-1.261,0s-0.84,0-1.26,0c-0.899,0-1.8,0-2.7,0c-0.42,0-0.84,0-1.26,0s-0.84,0-1.26,0
	c-0.9,0-1.8,0-2.7,0c-0.42,0-0.84,0-1.26,0s-0.84,0-1.26,0c-0.9,0-1.801,0-2.7,0C190.5,129.781,188.76,129.781,187.021,129.781z"/>
<path fill="#A06141" d="M187.021,127.08c0,0.9,0,1.801,0,2.701c1.739,0,3.479,0,5.22,0c0-1.74,0-3.48,0-5.221c-1.74,0-3.48,0-5.22,0
	C187.021,125.4,187.021,126.24,187.021,127.08z"/>
<path fill="#814221" d="M187.021,119.34c0,1.739,0,3.479,0,5.22c1.739,0,3.479,0,5.22,0c0,1.74,0,3.48,0,5.221c0.899,0,1.8,0,2.7,0
	c0.42,0,0.84,0,1.26,0s0.84,0,1.26,0c0.9,0,1.8,0,2.7,0c0.42,0,0.84,0,1.26,0s0.84,0,1.26,0c0.9,0,1.801,0,2.7,0
	c0.42,0,0.84,0,1.26,0s0.841,0,1.261,0c1.68,0,3.359,0,5.04,0c0-0.9,0-1.801,0-2.701c0-0.84,0-1.68,0-2.52c1.739,0,3.479,0,5.22,0
	c0-0.9,0-1.8,0-2.699c0-0.851,0-1.681,0-2.521c-1.74,0-3.48,0-5.22,0c0-0.181,0-0.36,0-0.54c0-3.061,0-6.12,0-9.18
	c0-0.181,0-0.36,0-0.541c-1.74,0-3.48,0-5.221,0c0,1.74,0,3.48,0,5.221c-1.739,0-3.479,0-5.22,0c0,1.68,0,3.359,0,5.04
	C197.34,119.34,192.18,119.34,187.021,119.34z"/>
<path fill="#302F2E" d="M187.021,114.3c0,1.68,0,3.359,0,5.04c5.159,0,10.319,0,15.479,0c0-1.681,0-3.36,0-5.04
	C197.34,114.3,192.18,114.3,187.021,114.3z"/>
<path fill="#302F2E" d="M187.021,62.28c0,1.73,0,3.48,0,5.219c1.739,0,3.479,0,5.22,0c0-0.84,0-1.68,0-2.52c0-0.899,0-1.8,0-2.7
	c0-0.84,0-1.68,0-2.52c0-0.9,0-1.8,0-2.7c-1.74,0-3.48,0-5.22,0c0,0.84,0,1.68,0,2.52c0,0.42,0,0.84,0,1.26
	C187.021,61.32,187.021,61.8,187.021,62.28z"/>
<path fill="#302F2E" d="M187.021,40.86c0,0.24,0,0.48,0,0.72c5.159,0,10.319,0,15.479,0c0-0.84,0-1.68,0-2.52c0-0.9,0-1.8,0-2.7
	c-1.68,0-3.36,0-5.04,0c-0.84,0-1.68,0-2.52,0c-0.9,0-1.801,0-2.7,0c0-0.18,0-0.36,0-0.54c0-0.36,0-0.72,0-1.08
	c0-0.42,0-0.84,0-1.26c0-0.84,0-1.68,0-2.52c0-1.68,0-3.36,0-5.04c0-0.36,0-0.72,0-1.08c0-0.42,0-0.84,0-1.26c0-0.84,0-1.68,0-2.52
	c0-1.68,0-3.36,0-5.05c0-0.17,0-0.35,0-0.53c-0.061,0-0.12,0-0.181,0c-0.06,0-0.119,0-0.18,0c-0.12,0-0.24,0-0.359,0
	c-0.24,0-0.48,0-0.721,0c-0.42,0-0.84,0-1.26,0s-0.84,0-1.26,0s-0.84,0-1.26,0c0,0.24,0,0.48,0,0.72c0,0.12,0,0.24,0,0.36
	c0,0.24,0,0.48,0,0.72c0,0.18,0,0.36,0,0.54c0,0.12,0,0.24,0,0.36c0,0.24,0,0.48,0,0.72c0,0.54,0,1.08,0,1.61c0,0.31,0,0.61,0,0.91
	c0,0.24,0,0.48,0,0.72c0,0.54,0,1.08,0,1.62c0,0.18,0,0.36,0,0.54c0,0.12,0,0.24,0,0.36c0,0.24,0,0.48,0,0.72c0,0.54,0,1.08,0,1.62
	c0,0.18,0,0.36,0,0.54c0,0.12,0,0.24,0,0.36c0,0.24,0,0.48,0,0.72c0,0.54,0,1.08,0,1.62c0,0.18,0,0.36,0,0.54c0,0.12,0,0.23,0,0.36
	c0,0.24,0,0.48,0,0.72c0,0.54,0,1.08,0,1.62c0,0.18,0,0.36,0,0.53c0,0.13,0,0.25,0,0.37c0,0.24,0,0.48,0,0.72c0,0.54,0,1.08,0,1.62
	c0,0.18,0,0.36,0,0.54c0,0.12,0,0.24,0,0.36c0,0.24,0,0.48,0,0.72c0,0.54,0,1.08,0,1.62c0,0.18,0,0.36,0,0.54
	C187.021,40.62,187.021,40.74,187.021,40.86z"/>
<path fill="#302F2E" d="M187.021,5.22c0,1.74,0,3.48,0,5.22c5.159,0,10.319,0,15.479,0c0-1.74,0-3.48,0-5.22
	C197.34,5.22,192.18,5.22,187.021,5.22z"/>
<path fill="#302F2E" d="M192.24,197.27c0,1.74,0,3.49,0,5.23c5.16,0,10.319,0,15.479,0c0,1.739,0,3.47,0,5.22c1.74,0,3.48,0,5.221,0
	c0,1.74,0,3.479,0,5.21c8.64,0,17.279,0,25.92,0c0-1.08,0-2.16,0-3.23c0-1.079,0-2.159,0-3.239s0-2.16,0-3.24s0-2.16,0-3.25
	c0-1.08,0-2.16,0-3.23c0-1.08,0-2.159,0-3.239s0-2.16,0-3.24c0-1.14,0-2.29,0-3.42c-1.74,0-3.48,0-5.221,0c0,3.47,0,6.96,0,10.43
	c0,1.74,0,3.49,0,5.23c-3.42,0-6.84,0-10.26,0c-3.479,0-6.96,0-10.439,0c0-0.19,0-0.36,0-0.54c0-3.12,0-6.24,0-9.36
	c0-0.18,0-0.36,0-0.54c-1.74,0-3.48,0-5.221,0c0,1.74,0,3.48,0,5.21c-0.12,0-0.239,0-0.359,0
	C202.32,197.27,197.28,197.27,192.24,197.27z"/>
<path fill="#302F2E" d="M192.24,155.88c0,1.68,0,3.359,0,5.039c1.62,0,3.24,0,4.859,0c1.62,0,3.24,0,4.86,0c0.18,0,0.36,0,0.54,0
	c0-1.739,0-3.479,0-5.219c-1.62,0-3.24,0-4.86,0c-1.619,0-3.239,0-4.859,0c-0.181,0-0.36,0-0.54,0
	C192.24,155.76,192.24,155.82,192.24,155.88z"/>
<path fill="#302F2E" d="M192.24,51.84c0,1.74,0,3.48,0,5.22c3.24,0,6.479,0,9.72,0c0.18,0,0.36,0,0.54,0c0-1.74,0-3.48,0-5.22
	c-3.24,0-6.479,0-9.72,0C192.6,51.84,192.42,51.84,192.24,51.84z"/>
<path fill="#302F2E" d="M197.28,184.85c0,0.66,0,1.33,0,1.99c1.74,0,3.479,0,5.22,0c0-2.58,0-5.16,0-7.74c0-2.59,0-5.16,0-7.739
	c-0.42,0-0.84,0-1.26,0s-0.84,0-1.26,0c-0.421,0-0.841,0-1.261,0c-0.479,0-0.96,0-1.439,0c0,0.119,0,0.239,0,0.359s0,0.24,0,0.359
	c0,0.181,0,0.36,0,0.541c0,0.119,0,0.24,0,0.359c0,0.18,0,0.36,0,0.54c0,0.12,0,0.24,0,0.36c0,0.18,0,0.359,0,0.539
	c0,0.361,0,0.721,0,1.08c0,0.121,0,0.24,0,0.361c0,0.18,0,0.359,0,0.529c0,0.12,0,0.25,0,0.37c0,0.17,0,0.36,0,0.54
	c0,0.12,0,0.24,0,0.359c0,0.181,0,0.351,0,0.54c0,0.36,0,0.721,0,1.07c0,0.61,0,1.2,0,1.811c0,0.659,0,1.31,0,1.979
	C197.28,183.66,197.28,184.26,197.28,184.85z"/>
<path fill="#302F2E" d="M202.5,186.84c0,1.74,0,3.47,0,5.22c1.74,0,3.48,0,5.22,0c0-1.75,0-3.479,0-5.22
	C205.98,186.84,204.24,186.84,202.5,186.84z"/>
<path fill="#814221" d="M202.5,179.1c0,2.58,0,5.16,0,7.74c1.74,0,3.48,0,5.22,0c0,1.74,0,3.47,0,5.22c1.74,0,3.48,0,5.221,0
	c0,0.18,0,0.36,0,0.54c0,3.12,0,6.24,0,9.36c0,0.18,0,0.35,0,0.54c3.479,0,6.96,0,10.439,0c3.42,0,6.84,0,10.26,0
	c0-1.74,0-3.49,0-5.23c-3.42,0-6.84,0-10.26,0c0-0.17,0-0.35,0-0.53c0-3.119,0-6.239,0-9.359c0-0.181,0-0.37,0-0.54
	c-1.74,0-3.479,0-5.22,0c0-1.681,0-3.37,0-5.04c-1.74,0-3.48,0-5.22,0c0-0.601,0-1.2,0-1.8c0-0.66,0-1.32,0-1.99
	c0-0.12,0-0.24,0-0.351c0-0.189,0-0.359,0-0.539c0-0.19,0-0.36,0-0.54c0-0.19,0-0.36,0-0.54c0-0.121,0-0.24,0-0.36
	c0-0.181,0-0.36,0-0.54s0-0.359,0-0.54s0-0.36,0-0.54c0-0.12,0-0.24,0-0.359c0-0.181,0-0.36,0-0.541c0-0.119,0-0.24,0-0.359
	c0-0.18,0-0.36,0-0.54c0-0.12,0-0.24,0-0.36c0-0.18,0-0.359,0-0.539c0-0.181,0-0.361,0-0.541s0-0.359,0-0.539
	c0-0.121,0-0.24,0-0.361c0-0.18,0-0.359,0-0.539s0-0.36,0-0.54c0-0.181,0-0.36,0-0.54c0-0.12,0-0.24,0-0.36c0-0.18,0-0.36,0-0.54
	s0-0.359,0-0.539c0-0.24,0-0.48,0-0.721c-0.841,0-1.681,0-2.521,0c-0.899,0-1.8,0-2.7,0c0,1.74,0,3.48,0,5.221
	c-0.18,0-0.359,0-0.54,0c-0.42,0-0.84,0-1.26,0c-0.18,0-0.36,0-0.54,0s-0.359,0-0.54,0c-0.24,0-0.479,0-0.72,0
	c-0.18,0-0.36,0-0.54,0c-0.12,0-0.24,0-0.36,0c-0.239,0-0.479,0-0.72,0C202.5,173.94,202.5,176.51,202.5,179.1z"/>
<path fill="#302F2E" d="M202.5,168.66c0,0.9,0,1.801,0,2.701c0.24,0,0.48,0,0.72,0c0.12,0,0.24,0,0.36,0c0.18,0,0.36,0,0.54,0
	c0.24,0,0.479,0,0.72,0c0.181,0,0.36,0,0.54,0s0.36,0,0.54,0c0.42,0,0.84,0,1.26,0c0.181,0,0.36,0,0.54,0c0-1.74,0-3.48,0-5.221
	c-0.84,0-1.68,0-2.52,0c-0.9,0-1.8,0-2.7,0C202.5,166.98,202.5,167.82,202.5,168.66z"/>
<path fill="#302F2E" d="M202.5,109.08c0,1.74,0,3.48,0,5.221c1.74,0,3.48,0,5.22,0c0-1.74,0-3.48,0-5.221
	C205.98,109.08,204.24,109.08,202.5,109.08z"/>
<path fill="#302F2E" d="M202.5,46.8c0,1.68,0,3.36,0,5.04c1.74,0,3.48,0,5.22,0c0-0.18,0-0.36,0-0.54c0-3.06,0-6.12,0-9.18
	c0-0.18,0-0.36,0-0.54c-1.739,0-3.479,0-5.22,0c0,0.3,0,0.6,0,0.9c0,0.18,0,0.36,0,0.53c0,0.43,0,0.85,0,1.27
	C202.5,45.12,202.5,45.96,202.5,46.8z"/>
<path fill="#302F2E" d="M202.5,14.4c0,0.36,0,0.72,0,1.08c0.9,0,1.8,0,2.7,0c0.42,0,0.84,0,1.26,0s0.84,0,1.26,0
	c0-0.84,0-1.68,0-2.52c0-0.84,0-1.68,0-2.52c-1.739,0-3.479,0-5.22,0c0,0.06,0,0.12,0,0.18c0,0.24,0,0.48,0,0.72
	c0,0.17,0,0.36,0,0.54c0,0.42,0,0.84,0,1.26S202.5,13.98,202.5,14.4z"/>
<path fill="#302F2E" d="M207.72,103.861c0,1.739,0,3.479,0,5.219c1.74,0,3.48,0,5.221,0c0,0.181,0,0.36,0,0.541
	c0,3.06,0,6.119,0,9.18c0,0.18,0,0.359,0,0.54c1.739,0,3.479,0,5.22,0c0-2.58,0-5.16,0-7.74s0-5.16,0-7.739c0-2.58,0-5.16,0-7.74
	c0-0.301,0-0.61,0-0.9c0-0.18,0-0.359,0-0.54s0-0.36,0-0.54c0-0.66,0-1.32,0-1.98c0-0.299,0-0.6,0-0.899c0-0.181,0-0.36,0-0.54
	s0-0.359,0-0.54c0-0.67,0-1.319,0-1.979c-1.74,0-3.48,0-5.22,0c0,0.6,0,1.199,0,1.799c0,0.66,0,1.32,0,1.98c0,0.12,0,0.24,0,0.36
	c0,0.17,0,0.36,0,0.54s0,0.359,0,0.539c0,0.181,0,0.361,0,0.541c0,0.66,0,1.32,0,1.979c0,0.12,0,0.24,0,0.36c0,0.18,0,0.359,0,0.54
	c0,0.17,0,0.36,0,0.54s0,0.359,0,0.539c0,0.66,0,1.32,0,1.98c0,0.12,0,0.24,0,0.36c0,0.18,0,0.36,0,0.54s0,0.359,0,0.54
	c0,0.17,0,0.36,0,0.54c0,0.66,0,1.32,0,1.98C211.2,103.861,209.46,103.861,207.72,103.861z"/>
<path fill="#302F2E" d="M207.72,18c0,0.9,0,1.8,0,2.7c1.74,0,3.48,0,5.221,0c0-1.74,0-3.48,0-5.22c-0.42,0-0.841,0-1.261,0
	s-0.84,0-1.26,0c-0.899,0-1.8,0-2.7,0C207.72,16.32,207.72,17.16,207.72,18z"/>
<path fill="#A06141" d="M212.94,180c0,0.6,0,1.199,0,1.8c1.739,0,3.479,0,5.22,0c0,1.67,0,3.359,0,5.04c1.74,0,3.479,0,5.22,0
	c0,0.17,0,0.359,0,0.54c0,3.12,0,6.24,0,9.359c0,0.181,0,0.36,0,0.53c3.42,0,6.84,0,10.26,0c0-3.47,0-6.96,0-10.43
	c-1.68,0-3.359,0-5.04,0c0-0.181,0-0.37,0-0.54c0-0.84,0-1.68,0-2.53c0-0.42,0-0.84,0-1.26c0-0.351,0-0.71,0-1.08
	c0-0.42,0-0.83,0-1.25c0-0.25,0-0.48,0-0.72c0-0.19,0-0.36,0-0.54c0-0.42,0-0.84,0-1.261c0-0.189,0-0.359,0-0.539
	c0-0.19,0-0.36,0-0.54c-0.42,0-0.84,0-1.26,0s-0.84,0-1.26,0c-0.18,0-0.36,0-0.54,0c-0.24,0-0.48,0-0.72,0c-0.48,0-0.96,0-1.44,0
	c0-0.19,0-0.36,0-0.54s0-0.36,0-0.541c0-0.18,0-0.359,0-0.539c0-0.42,0-0.84,0-1.26c0-0.181,0-0.36,0-0.541c0-0.18,0-0.359,0-0.539
	c0-0.42,0-0.84,0-1.26c0-0.181,0-0.361,0-0.541s0-0.359,0-0.539c0-0.42,0-0.841,0-1.261c0-0.18,0-0.36,0-0.54s0-0.359,0-0.54
	c0-0.18,0-0.36,0-0.54c0-0.24,0-0.48,0-0.72c0-0.181,0-0.36,0-0.54c-0.06,0-0.12,0-0.18,0c-0.42,0-0.84,0-1.26,0s-0.841,0-1.261,0
	c-0.84,0-1.68,0-2.52,0s-1.68,0-2.521,0c-0.899,0-1.8,0-2.699,0c0,0.24,0,0.48,0,0.721c0,0.18,0,0.359,0,0.539s0,0.36,0,0.54
	c0,0.12,0,0.24,0,0.36c0,0.18,0,0.359,0,0.54c0,0.18,0,0.36,0,0.54s0,0.359,0,0.539c0,0.121,0,0.24,0,0.361c0,0.18,0,0.359,0,0.539
	s0,0.36,0,0.541c0,0.18,0,0.359,0,0.539c0,0.12,0,0.24,0,0.36c0,0.18,0,0.36,0,0.54c0,0.119,0,0.24,0,0.359c0,0.181,0,0.36,0,0.541
	c0,0.119,0,0.239,0,0.359c0,0.18,0,0.359,0,0.54s0,0.36,0,0.54s0,0.359,0,0.54c0,0.12,0,0.239,0,0.36c0,0.18,0,0.35,0,0.54
	c0,0.18,0,0.35,0,0.54c0,0.18,0,0.35,0,0.539c0,0.11,0,0.23,0,0.351C212.94,178.68,212.94,179.34,212.94,180z"/>
<path fill="#814221" d="M212.94,160.38c0,0.18,0,0.359,0,0.539c0.06,0,0.119,0,0.18,0c0.24,0,0.479,0,0.72,0s0.48,0,0.72,0
	c0.54,0,1.08,0,1.62,0c1.08,0,2.16,0,3.24,0c2.16,0,4.32,0,6.48,0c2.159,0,4.319,0,6.479,0s4.32,0,6.48,0c0-0.899,0-1.799,0-2.699
	c0-0.84,0-1.68,0-2.52c-5.16,0-10.32,0-15.48,0c0-0.42,0-0.84,0-1.261c0-0.42,0-0.84,0-1.26s0-0.84,0-1.261c0-0.42,0-0.84,0-1.26
	c0-0.84,0-1.68,0-2.52c0-0.9,0-1.8,0-2.7c0.84,0,1.68,0,2.521,0c0.899,0,1.8,0,2.699,0c0-0.18,0-0.36,0-0.54c0-1.39,0-2.76,0-4.14
	c0-0.181,0-0.36,0-0.54c-1.739,0-3.479,0-5.22,0c0-0.42,0-0.84,0-1.26s0-0.84,0-1.26c0-0.9,0-1.801,0-2.701c0-0.84,0-1.68,0-2.52
	c0-0.9,0-1.8,0-2.699c-3.479,0-6.96,0-10.439,0c0,1.739,0,3.479,0,5.219c1.739,0,3.479,0,5.22,0c0,2.58,0,5.16,0,7.74s0,5.16,0,7.74
	c-0.84,0-1.68,0-2.521,0c-0.899,0-1.8,0-2.699,0c0,0.18,0,0.36,0,0.54c0,0.78,0,1.56,0,2.341c0,0.779,0,1.559,0,2.34
	c0,0.779,0,1.56,0,2.34C212.94,158.82,212.94,159.6,212.94,160.38z"/>
<path fill="#302F2E" d="M212.94,127.08c0,0.9,0,1.801,0,2.701c3.479,0,6.96,0,10.439,0c0-0.42,0-0.841,0-1.271c0-0.41,0-0.83,0-1.25
	c0-0.899,0-1.8,0-2.7c0-0.84,0-1.68,0-2.52c0-0.9,0-1.801,0-2.7c-1.74,0-3.479,0-5.22,0c0,0.84,0,1.67,0,2.521
	c0,0.899,0,1.799,0,2.699c-1.74,0-3.48,0-5.22,0C212.94,125.4,212.94,126.24,212.94,127.08z"/>
<path fill="#302F2E" d="M212.94,23.22c0,0.9,0,1.79,0,2.7c1.739,0,3.479,0,5.22,0c0-0.36,0-0.72,0-1.08c0-0.42,0-0.84,0-1.26
	c0-0.78,0-1.57,0-2.34c0-0.18,0-0.36,0-0.54c-1.74,0-3.48,0-5.22,0C212.94,21.54,212.94,22.38,212.94,23.22z"/>
<path fill="#814221" d="M218.16,111.6c0,2.58,0,5.16,0,7.74c1.74,0,3.479,0,5.22,0c0-1.681,0-3.36,0-5.04c0.18,0,0.36,0,0.54,0
	c0.36,0,0.72,0,1.08,0c0.18,0,0.36,0,0.54,0s0.36,0,0.54,0c0.66,0,1.32,0,1.979,0c0.181,0,0.36,0,0.54,0c0-1.74,0-3.48,0-5.221
	c5.04,0,10.08,0,15.12,0c0.12,0,0.24,0,0.36,0c0,1.74,0,3.48,0,5.221c1.74,0,3.479,0,5.22,0c0-0.6,0-1.2,0-1.801
	c0-0.119,0-0.239,0-0.359c0-0.18,0-0.359,0-0.54c0-0.36,0-0.72,0-1.09c0-0.11,0-0.229,0-0.351c0-0.18,0-0.359,0-0.539
	c0-0.36,0-0.721,0-1.08c0-0.121,0-0.24,0-0.36c0-0.181,0-0.36,0-0.54c0-0.359,0-0.721,0-1.08c0-0.12,0-0.24,0-0.359
	c0-0.19,0-0.36,0-0.541c0-0.359,0-0.72,0-1.08c0-0.299,0-0.6,0-0.899c0-0.36,0-0.72,0-1.08c0-0.3,0-0.601,0-0.899
	c0-0.36,0-0.721,0-1.08c0-0.66,0-1.32,0-1.98c-1.56,0-3.12,0-4.68,0c-0.18,0-0.36,0-0.54,0c0,1.74,0,3.48,0,5.221
	c-3.48,0-6.96,0-10.44,0c0-0.181,0-0.361,0-0.541c0-1.38,0-2.76,0-4.14c0-0.181,0-0.36,0-0.54c-1.68,0-3.359,0-5.04,0
	c0-2.16,0-4.32,0-6.48s0-4.319,0-6.479c0-1.08,0-2.17,0-3.24c0-1.079,0-2.159,0-3.239c0-2.16,0-4.32,0-6.48c-0.84,0-1.68,0-2.52,0
	c-0.42,0-0.84,0-1.26,0c-0.48,0-0.96,0-1.44,0c0,0.66,0,1.32,0,1.98c0,0.359,0,0.719,0,1.08c0,0.18,0,0.359,0,0.539
	c0,0.12,0,0.24,0,0.36c0,0.36,0,0.72,0,1.08c0,0.18,0,0.36,0,0.54c0,0.119,0,0.24,0,0.359c0,0.181,0,0.351,0,0.541
	c0,0.119,0,0.239,0,0.359c0,0.18,0,0.359,0,0.54c0,0.12,0,0.24,0,0.36c0,0.359,0,0.72,0,1.08c0,0.18,0,0.359,0,0.539
	c0,0.121,0,0.24,0,0.36c0,0.36,0,0.72,0,1.07c0,0.19,0,0.37,0,0.55c0,0.12,0,0.24,0,0.359c0,0.361,0,0.721,0,1.08
	c0,0.181,0,0.361,0,0.541c0,0.119,0,0.24,0,0.359c0,0.18,0,0.36,0,0.54c0,0.12,0,0.24,0,0.36c0,0.3,0,0.6,0,0.9
	c-1.74,0-3.479,0-5.22,0c0,0.66,0,1.31,0,1.979c0,0.181,0,0.36,0,0.54s0,0.359,0,0.54c0,0.3,0,0.601,0,0.899c0,0.66,0,1.32,0,1.98
	c0,0.18,0,0.359,0,0.54s0,0.36,0,0.54c0,0.29,0,0.6,0,0.9c0,2.58,0,5.16,0,7.74C218.16,106.44,218.16,109.02,218.16,111.6z"/>
<path fill="#302F2E" d="M218.16,80.46c0,2.58,0,5.16,0,7.74c1.74,0,3.479,0,5.22,0c0-0.301,0-0.601,0-0.9c0-0.12,0-0.24,0-0.36
	c0-0.18,0-0.36,0-0.54c0-0.119,0-0.24,0-0.359c0-0.18,0-0.36,0-0.541c0-0.359,0-0.719,0-1.08c0-0.119,0-0.239,0-0.359
	c0-0.18,0-0.359,0-0.55c0-0.351,0-0.71,0-1.07c0-0.12,0-0.239,0-0.36c0-0.18,0-0.359,0-0.539c0-0.36,0-0.721,0-1.08
	c0-0.12,0-0.24,0-0.36c0-0.181,0-0.36,0-0.54c0-0.12,0-0.24,0-0.359c0-0.19,0-0.36,0-0.541c0-0.119,0-0.24,0-0.359
	c0-0.18,0-0.36,0-0.54c0-0.36,0-0.72,0-1.08c0-0.12,0-0.24,0-0.36c0-0.18,0-0.359,0-0.539c0-0.361,0-0.721,0-1.08
	c0-0.66,0-1.32,0-1.98c-0.84,0-1.68,0-2.52,0c-0.9,0-1.801,0-2.7,0c0,1.26,0,2.52,0,3.779c0,0.121,0,0.24,0,0.361
	c0,0.18,0,0.359,0,0.539s0,0.36,0,0.54c0,0.181,0,0.36,0,0.54c0,0.12,0,0.24,0,0.36c0,0.17,0,0.36,0,0.54s0,0.359,0,0.539
	C218.16,80.1,218.16,80.281,218.16,80.46z"/>
<path fill="#302F2E" d="M218.16,28.44c0,0.9,0,1.8,0,2.7c1.74,0,3.479,0,5.22,0c0-1.74,0-3.48,0-5.22c-1.74,0-3.479,0-5.22,0
	C218.16,26.76,218.16,27.6,218.16,28.44z"/>
<path fill="#A06141" d="M223.38,154.44c0,0.421,0,0.841,0,1.261c5.16,0,10.32,0,15.48,0c0-0.84,0-1.69,0-2.521
	c0-0.42,0-0.84,0-1.261c0-0.42,0-0.84,0-1.26c0-0.06,0-0.119,0-0.18c0.18,0,0.359,0,0.54,0c1.56,0,3.12,0,4.68,0
	c0-2.58,0-5.16,0-7.74s0-5.16,0-7.74c1.74,0,3.479,0,5.22,0c0-0.84,0-1.68,0-2.52c0-0.42,0-0.84,0-1.26s0-0.84,0-1.26s0-0.84,0-1.26
	s0-0.84,0-1.261c0-0.42,0-0.84,0-1.26c0-0.479,0-0.96,0-1.44c0-0.42,0-0.84,0-1.26s0-0.84,0-1.26s0-0.84,0-1.26
	c0-0.48,0-0.961,0-1.45c0-0.41,0-0.83,0-1.25s0-0.841,0-1.261c0-0.899,0-1.799,0-2.699c-1.74,0-3.479,0-5.22,0
	c0-1.74,0-3.48,0-5.221c-0.12,0-0.24,0-0.36,0c-5.04,0-10.08,0-15.12,0c0,1.74,0,3.48,0,5.221c-0.18,0-0.359,0-0.54,0
	c-0.659,0-1.319,0-1.979,0c-0.18,0-0.36,0-0.54,0s-0.36,0-0.54,0c-0.36,0-0.72,0-1.08,0c-0.18,0-0.36,0-0.54,0
	c0,1.68,0,3.359,0,5.04c0,0.899,0,1.8,0,2.7c0,0.84,0,1.68,0,2.52c0,0.9,0,1.801,0,2.7c0,0.42,0,0.84,0,1.25c0,0.43,0,0.851,0,1.271
	c0,0.899,0,1.799,0,2.699c0,0.84,0,1.68,0,2.52c0,0.9,0,1.801,0,2.701c0,0.42,0,0.84,0,1.26s0,0.84,0,1.26c1.74,0,3.48,0,5.22,0
	c0,0.18,0,0.359,0,0.54c0,1.38,0,2.75,0,4.14c0,0.18,0,0.36,0,0.54c-0.899,0-1.8,0-2.699,0c-0.841,0-1.681,0-2.521,0
	c0,0.9,0,1.8,0,2.7c0,0.84,0,1.68,0,2.52c0,0.42,0,0.84,0,1.26c0,0.421,0,0.841,0,1.261S223.38,154.02,223.38,154.44z"/>
<path fill="#302F2E" d="M223.38,70.01c0,0.909,0,1.81,0,2.71c0.48,0,0.96,0,1.44,0c0.42,0,0.84,0,1.26,0c0.84,0,1.68,0,2.52,0
	c0-0.84,0-1.68,0-2.52c0-0.42,0-0.84,0-1.261c0-0.479,0-0.96,0-1.44c0-0.84,0-1.68,0-2.52c0-0.42,0-0.84,0-1.26
	c0-0.48,0-0.96,0-1.44c-1.739,0-3.479,0-5.22,0c0,0.42,0,0.84,0,1.26c0,0.419,0,0.84,0,1.26c0,0.9,0,1.8,0,2.699
	C223.38,68.34,223.38,69.18,223.38,70.01z"/>
<path fill="#302F2E" d="M223.38,33.66c0,0.9,0,1.8,0,2.7c0.84,0,1.68,0,2.521,0c0.899,0,1.8,0,2.699,0c0-0.36,0-0.72,0-1.08
	c0-0.42,0-0.84,0-1.27c0-0.35,0-0.71,0-1.07c0-0.18,0-0.36,0-0.54c0-0.24,0-0.48,0-0.72c0-0.18,0-0.36,0-0.54
	c-1.739,0-3.479,0-5.22,0c0,0.42,0,0.84,0,1.26C223.38,32.82,223.38,33.24,223.38,33.66z"/>
<path fill="#302F2E" d="M228.6,186.3c0,0.17,0,0.359,0,0.54c1.681,0,3.36,0,5.04,0c0-1.62,0-3.24,0-4.87c0-1.62,0-3.23,0-4.85
	c0-0.19,0-0.36,0-0.54c-1.68,0-3.359,0-5.04,0c0,0.18,0,0.35,0,0.54c0,0.18,0,0.35,0,0.539c0,0.421,0,0.841,0,1.261
	c0,0.18,0,0.35,0,0.54c0,0.239,0,0.47,0,0.72c0,0.42,0,0.83,0,1.25c0,0.37,0,0.729,0,1.08c0,0.42,0,0.84,0,1.26
	C228.6,184.621,228.6,185.46,228.6,186.3z"/>
<path fill="#A06141" d="M228.6,92.16c0,2.16,0,4.32,0,6.48c1.681,0,3.36,0,5.04,0c0,0.18,0,0.359,0,0.54c0,1.38,0,2.76,0,4.14
	c0,0.18,0,0.36,0,0.541c3.48,0,6.96,0,10.44,0c0-1.74,0-3.48,0-5.221c0.18,0,0.36,0,0.54,0c1.56,0,3.12,0,4.68,0
	c0-0.54,0-1.08,0-1.63c0-0.229,0-0.47,0-0.71c0-0.301,0-0.6,0-0.9c0-0.539,0-1.08,0-1.619c0-0.24,0-0.48,0-0.721c0-0.3,0-0.6,0-0.9
	c0-0.539,0-1.08,0-1.619c0-0.24,0-0.48,0-0.721c0-0.3,0-0.6,0-0.9c0-0.539,0-1.079,0-1.619c0-0.24,0-0.48,0-0.721
	c0-0.119,0-0.239,0-0.359c0-0.18,0-0.359,0-0.54c0-0.24,0-0.479,0-0.72c0-0.12,0-0.24,0-0.36c0-0.181,0-0.36,0-0.54
	c0-0.24,0-0.48,0-0.72c0-0.12,0-0.24,0-0.36c0-0.18,0-0.359,0-0.54c0-0.239,0-0.479,0-0.72c0-0.12,0-0.24,0-0.359
	c0-0.181,0-0.361,0-0.541c0-0.24,0-0.479,0-0.72c0-0.12,0-0.239,0-0.36c0-0.18,0-0.359,0-0.539c0-0.24,0-0.48,0-0.721
	c0-0.119,0-0.24,0-0.359c0-0.181,0-0.36,0-0.541c0-0.239,0-0.479,0-0.719c0-0.121,0-0.24,0-0.361c0-0.18,0-0.359,0-0.539
	c0-0.24,0-0.48,0-0.721c0-0.119,0-0.24,0-0.359c0-0.18,0-0.37,0-0.54c0-0.54,0-1.08,0-1.62c-0.84,0-1.68,0-2.52,0
	c-0.9,0-1.8,0-2.7,0c0-1.74,0-3.48,0-5.221c-1.62,0-3.24,0-4.86,0c-1.68,0-3.359,0-5.04,0c-0.18,0-0.359,0-0.54,0
	c0,1.74,0,3.48,0,5.221c-1.68,0-3.359,0-5.04,0c0,2.16,0,4.32,0,6.48c0,1.08,0,2.16,0,3.239c0,1.07,0,2.16,0,3.24
	C228.6,87.84,228.6,90,228.6,92.16z"/>
<path fill="#814221" d="M228.6,70.201c0,0.84,0,1.68,0,2.52c1.681,0,3.36,0,5.04,0c0-1.74,0-3.48,0-5.221c0.181,0,0.36,0,0.54,0
	c1.681,0,3.36,0,5.04,0c1.62,0,3.24,0,4.86,0c0-1.739,0-3.489,0-5.219c-1.74,0-3.48,0-5.22,0c0-1.74,0-3.48,0-5.22
	c-1.74,0-3.48,0-5.221,0c0,1.74,0,3.48,0,5.22c-1.68,0-3.359,0-5.04,0c0,0.48,0,0.96,0,1.44c0,0.42,0,0.84,0,1.26
	c0,0.84,0,1.68,0,2.52c0,0.48,0,0.961,0,1.44C228.6,69.361,228.6,69.781,228.6,70.201z"/>
<path fill="#302F2E" d="M228.6,55.8c0,2.16,0,4.32,0,6.48c1.681,0,3.36,0,5.04,0c0-1.74,0-3.48,0-5.22c1.74,0,3.48,0,5.221,0
	c0-1.74,0-3.48,0-5.22c-1.74,0-3.48,0-5.221,0c0-0.12,0-0.24,0-0.36c0-2.52,0-5.04,0-7.56s0-5.04,0-7.56c-1.68,0-3.359,0-5.04,0
	c0,2.15,0,4.32,0,6.48c0,1.08,0,2.16,0,3.24s0,2.16,0,3.24c0,1.08,0,2.16,0,3.24S228.6,54.72,228.6,55.8z"/>
<path fill="#302F2E" d="M238.86,158.22c0,0.9,0,1.8,0,2.699c2.58,0,5.16,0,7.739,0c0.12,0,0.24,0,0.36,0c0.18,0,0.36,0,0.54,0
	c0.36,0,0.72,0,1.08,0c0.12,0,0.24,0,0.36,0c0.18,0,0.359,0,0.54,0c0.359,0,0.72,0,1.079,0c0.12,0,0.24,0,0.36,0
	c0.18,0,0.36,0,0.54,0c0.36,0,0.72,0,1.08,0c0.12,0,0.24,0,0.36,0c0.18,0,0.359,0,0.54,0c0.359,0,0.72,0,1.08,0
	c0-0.42,0-0.84,0-1.26s0-0.84,0-1.26s0-0.84,0-1.26s0-0.84,0-1.26c0-0.061,0-0.12,0-0.18c0.18,0,0.359,0,0.539,0
	c1.62,0,3.24,0,4.86,0s3.24,0,4.86,0c0-1.561,0-3.121,0-4.681c0-0.18,0-0.36,0-0.54c-0.061,0-0.12,0-0.181,0
	c-3.359,0-6.72,0-10.079,0c0-0.18,0-0.359,0-0.54c0-0.12,0-0.239,0-0.36c0-0.18,0-0.359,0-0.539c0-0.36,0-0.721,0-1.08
	c0-0.12,0-0.24,0-0.36c0-0.181,0-0.36,0-0.54c0-0.359,0-0.72,0-1.08c0-0.18,0-0.359,0-0.54c-0.24,0-0.48,0-0.721,0s-0.479,0-0.72,0
	c-0.42,0-0.84,0-1.26,0c-0.84,0-1.681,0-2.521,0c0-0.84,0-1.68,0-2.521c0-0.42,0-0.84,0-1.26c0-0.479,0-0.959,0-1.439
	c0-0.42,0-0.84,0-1.26s0-0.84,0-1.26c0-0.9,0-1.801,0-2.701c-1.74,0-3.479,0-5.22,0c0,2.58,0,5.16,0,7.74s0,5.16,0,7.74
	c0,1.74,0,3.48,0,5.221c-0.9,0-1.8,0-2.7,0c-0.84,0-1.68,0-2.52,0C238.86,156.541,238.86,157.38,238.86,158.22z"/>
<path fill="#814221" d="M238.86,153.18c0,0.83,0,1.681,0,2.521c0.84,0,1.68,0,2.52,0c0.9,0,1.8,0,2.7,0c0-1.74,0-3.48,0-5.221
	c-1.56,0-3.12,0-4.68,0c-0.181,0-0.36,0-0.54,0c0,0.061,0,0.12,0,0.18c0,0.42,0,0.84,0,1.26
	C238.86,152.34,238.86,152.76,238.86,153.18z"/>
<path fill="#302F2E" d="M238.86,57.06c0,1.74,0,3.48,0,5.22c1.739,0,3.479,0,5.22,0c0-0.18,0-0.36,0-0.54c0-0.18,0-0.36,0-0.54
	c0-0.19,0-0.36,0-0.54c0-0.24,0-0.48,0-0.72c0-0.18,0-0.36,0-0.54c0-0.18,0-0.36,0-0.54c0-0.42,0-0.85,0-1.26c0-0.18,0-0.36,0-0.54
	C242.34,57.06,240.6,57.06,238.86,57.06z"/>
<path fill="#814221" d="M244.08,67.5c0,1.74,0,3.48,0,5.221c0.9,0,1.8,0,2.7,0c0.84,0,1.68,0,2.52,0c0-1.74,0-3.48,0-5.221
	C247.56,67.5,245.82,67.5,244.08,67.5z"/>
<path fill="#302F2E" d="M244.08,62.28c0,1.73,0,3.48,0,5.219c1.74,0,3.479,0,5.22,0c0-1.739,0-3.479,0-5.219
	C247.56,62.28,245.82,62.28,244.08,62.28z"/>
<path fill="#302F2E" d="M249.3,132.48c0,0.84,0,1.68,0,2.52c1.74,0,3.48,0,5.221,0c0-1.379,0-2.76,0-4.139c0-1.381,0-2.761,0-4.141
	s0-2.76,0-4.141c0-1.439,0-2.879,0-4.319c0-1.38,0-2.761,0-4.14c0-1.44,0-2.881,0-4.32c0-1.381,0-2.76,0-4.141
	c0-1.439,0-2.879,0-4.319c0-1.38,0-2.761,0-4.14c0-1.44,0-2.881,0-4.32c0-1.381,0-2.76,0-4.141c0-1.439,0-2.879,0-4.32
	c0-0.119,0-0.239,0-0.359c0-0.18,0-0.359,0-0.55c0-0.17,0-0.351,0-0.53s0-0.359,0-0.54c0-0.18,0-0.36,0-0.54s0-0.359,0-0.539
	c0-0.361,0-0.721,0-1.08c0-1.44,0-2.881,0-4.32c0-0.12,0-0.24,0-0.36c0-0.181,0-0.36,0-0.54s0-0.359,0-0.55c0-0.17,0-0.351,0-0.53
	s0-0.359,0-0.54c0-0.18,0-0.36,0-0.54c0-0.359,0-0.72,0-1.08c0-1.439,0-2.88,0-4.32c-1.74,0-3.48,0-5.221,0c0,1.74,0,3.48,0,5.221
	c0,0.54,0,1.08,0,1.62c0,0.17,0,0.36,0,0.54c0,0.119,0,0.24,0,0.359c0,0.24,0,0.48,0,0.721c0,0.18,0,0.359,0,0.539
	c0,0.121,0,0.24,0,0.361c0,0.239,0,0.479,0,0.719c0,0.181,0,0.36,0,0.541c0,0.119,0,0.24,0,0.359c0,0.24,0,0.48,0,0.721
	c0,0.18,0,0.359,0,0.539c0,0.121,0,0.24,0,0.36c0,0.24,0,0.479,0,0.72c0,0.18,0,0.36,0,0.541c0,0.119,0,0.239,0,0.359
	c0,0.24,0,0.48,0,0.72c0,0.181,0,0.36,0,0.54c0,0.12,0,0.24,0,0.36c0,0.239,0,0.479,0,0.72c0,0.18,0,0.359,0,0.54
	c0,0.12,0,0.24,0,0.36c0,0.24,0,0.479,0,0.72c0,0.181,0,0.36,0,0.54c0,0.12,0,0.24,0,0.359c0,0.24,0,0.48,0,0.721
	c0,0.54,0,1.08,0,1.619c0,0.301,0,0.601,0,0.9c0,0.24,0,0.48,0,0.721c0,0.539,0,1.08,0,1.619c0,0.301,0,0.601,0,0.9
	c0,0.24,0,0.48,0,0.721c0,0.539,0,1.08,0,1.619c0,0.301,0,0.6,0,0.9c0,0.24,0,0.48,0,0.71c0,0.55,0,1.09,0,1.63
	c0,0.66,0,1.32,0,1.98c0,0.359,0,0.72,0,1.08c0,0.299,0,0.6,0,0.899c0,0.36,0,0.72,0,1.08c0,0.3,0,0.601,0,0.899
	c0,0.36,0,0.721,0,1.08c0,0.181,0,0.351,0,0.541c0,0.119,0,0.239,0,0.359c0,0.359,0,0.721,0,1.08c0,0.18,0,0.359,0,0.54
	c0,0.12,0,0.239,0,0.36c0,0.359,0,0.72,0,1.08c0,0.18,0,0.359,0,0.539c0,0.121,0,0.24,0,0.351c0,0.37,0,0.729,0,1.09
	c0,0.181,0,0.36,0,0.54c0,0.12,0,0.24,0,0.359c0,0.601,0,1.201,0,1.801c0,0.9,0,1.8,0,2.699c0,0.42,0,0.841,0,1.261s0,0.84,0,1.25
	c0,0.489,0,0.97,0,1.45c0,0.42,0,0.84,0,1.26s0,0.84,0,1.26s0,0.84,0,1.26c0,0.48,0,0.961,0,1.44c0,0.42,0,0.84,0,1.26
	c0,0.421,0,0.841,0,1.261s0,0.84,0,1.26s0,0.84,0,1.26S249.3,132.06,249.3,132.48z"/>
<path fill="#302F2E" d="M254.521,165.6c0,0.181,0,0.36,0,0.54c0.06,0,0.119,0,0.18,0c0.06,0,0.12,0,0.18,0c0.12,0,0.24,0,0.36,0
	c0.18,0,0.359,0,0.54,0c0.18,0,0.359,0,0.54,0c0.239,0,0.479,0,0.72,0c0.18,0,0.36,0,0.54,0s0.36,0,0.54,0s0.36,0,0.54,0
	c0.24,0,0.479,0,0.72,0c1.62,0,3.24,0,4.86,0c0.18,0,0.359,0,0.54,0c0-1.74,0-3.48,0-5.221c-1.681,0-3.36,0-5.04,0
	c-0.84,0-1.681,0-2.521,0c-0.899,0-1.8,0-2.699,0c0,0.181,0,0.361,0,0.541s0,0.359,0,0.539c0,0.181,0,0.361,0,0.541
	c0,0.24,0,0.479,0,0.72c0,0.18,0,0.36,0,0.54s0,0.359,0,0.54C254.521,164.76,254.521,165.18,254.521,165.6z"/>
<path fill="#814221" d="M254.521,159.66c0,0.42,0,0.84,0,1.26c0.899,0,1.8,0,2.699,0c0.84,0,1.681,0,2.521,0c1.68,0,3.359,0,5.04,0
	c0-1.739,0-3.479,0-5.219c-1.62,0-3.24,0-4.86,0s-3.24,0-4.86,0c-0.18,0-0.359,0-0.539,0c0,0.06,0,0.119,0,0.18
	c0,0.42,0,0.84,0,1.26s0,0.84,0,1.26S254.521,159.24,254.521,159.66z"/>
<path fill="#302F2E" d="M264.78,155.701c0,1.739,0,3.479,0,5.219c0.84,0,1.68,0,2.52,0c0.9,0,1.8,0,2.7,0c0-1.739,0-3.479,0-5.219
	c-0.84,0-1.68,0-2.52,0C266.58,155.701,265.68,155.701,264.78,155.701z"/>
</svg>
