<?xml version="1.0" encoding="utf-8"?>
<!-- Generator: Adobe Illustrator 15.0.0, SVG Export Plug-In  -->
<!DOCTYPE svg PUBLIC "-//W3C//DTD SVG 1.1//EN" "http://www.w3.org/Graphics/SVG/1.1/DTD/svg11.dtd" [
	<!ENTITY ns_flows "http://ns.adobe.com/Flows/1.0/">
]>
<svg version="1.1"
	 xmlns="http://www.w3.org/2000/svg" xmlns:xlink="http://www.w3.org/1999/xlink" xmlns:a="http://ns.adobe.com/AdobeSVGViewerExtensions/3.0/"
	 x="0px" y="0px" width="300px" height="230px" viewBox="-15 -17.07 300 230" enable-background="new -15 -17.07 300 230"
	 xml:space="preserve">
<defs>
</defs>
<path fill="#302F2E" d="M0,118.8c0,0.18,0,0.359,0,0.54c1.74,0,3.48,0,5.22,0c0-1.681,0-3.36,0-5.04c-1.739,0-3.479,0-5.22,0
	c0,0.18,0,0.359,0,0.54c0,0.12,0,0.239,0,0.36c0,0.18,0,0.359,0,0.539s0,0.36,0,0.541c0,0.18,0,0.359,0,0.539c0,0.12,0,0.24,0,0.36
	c0,0.181,0,0.36,0,0.54s0,0.359,0,0.54C0,118.44,0,118.621,0,118.8z"/>
<path fill="#302F2E" d="M5.22,129.24c0,0.18,0,0.36,0,0.541c1.74,0,3.48,0,5.221,0c0-0.9,0-1.801,0-2.701c0-0.84,0-1.68,0-2.52
	c0-1.74,0-3.48,0-5.22c-1.74,0-3.48,0-5.221,0C5.22,122.64,5.22,125.94,5.22,129.24z"/>
<path fill="#D4D5D7" d="M5.22,114.3c0,1.68,0,3.359,0,5.04c1.74,0,3.48,0,5.221,0c0,1.739,0,3.479,0,5.22c1.68,0,3.359,0,5.04,0
	c0,1.74,0,3.48,0,5.221c1.739,0,3.479,0,5.22,0s3.479,0,5.22,0c0,1.739,0,3.479,0,5.219c1.74,0,3.48,0,5.22,0c1.74,0,3.48,0,5.221,0
	c0,1.74,0,3.48,0,5.221c5.22,0,10.439,0,15.659,0c5.16,0,10.32,0,15.48,0c0-1.68,0-3.359,0-5.04c0-0.06,0-0.12,0-0.181
	c2.58,0,5.16,0,7.74,0s5.16,0,7.74,0c0-0.899,0-1.799,0-2.699c0-0.84,0-1.68,0-2.52c-1.681,0-3.36,0-5.04,0c0-0.181,0-0.361,0-0.541
	c0-1.56,0-3.119,0-4.68s0-3.12,0-4.68c0-0.18,0-0.37,0-0.54c1.739,0,3.479,0,5.22,0c1.68,0,3.359,0,5.04,0c0-1.681,0-3.36,0-5.04
	c0-0.9,0-1.801,0-2.7c0-0.84,0-1.681,0-2.521c-2.58,0-5.16,0-7.74,0s-5.16,0-7.74,0c0-1.739,0-3.479,0-5.219c-2.58,0-5.16,0-7.739,0
	c-1.32,0-2.641,0-3.961,0c-1.319,0-2.64,0-3.96,0c0-1.74,0-3.48,0-5.221c-3.42,0-6.84,0-10.26,0c-3.479,0-6.96,0-10.439,0
	c-1.74,0-3.48,0-5.221,0c-1.739,0-3.479,0-5.22,0c0,3.48,0,6.96,0,10.439c-1.74,0-3.479,0-5.22,0c0,1.74,0,3.48,0,5.221
	C15.54,114.3,10.38,114.3,5.22,114.3z"/>
<path fill="#302F2E" d="M5.22,109.08c0,1.74,0,3.48,0,5.221c5.16,0,10.32,0,15.48,0c0-1.74,0-3.48,0-5.221c-2.58,0-5.16,0-7.74,0
	S7.8,109.08,5.22,109.08z"/>
<path fill="#302F2E" d="M10.44,132.3c0,0.9,0,1.8,0,2.699c1.68,0,3.359,0,5.04,0c0-1.739,0-3.479,0-5.219c-1.681,0-3.36,0-5.04,0
	C10.44,130.621,10.44,131.46,10.44,132.3z"/>
<path fill="#FFFFFF" d="M10.44,127.08c0,0.9,0,1.801,0,2.701c1.68,0,3.359,0,5.04,0c0-1.74,0-3.48,0-5.221c-1.681,0-3.36,0-5.04,0
	C10.44,125.4,10.44,126.24,10.44,127.08z"/>
<path fill="#302F2E" d="M15.48,138.781c0,0.479,0,0.959,0,1.439c0.84,0,1.68,0,2.52,0c0.9,0,1.8,0,2.7,0c0.84,0,1.68,0,2.52,0
	c0.9,0,1.8,0,2.7,0c0-1.74,0-3.48,0-5.221c-1.74,0-3.479,0-5.22,0s-3.48,0-5.22,0c0,0.841,0,1.681,0,2.521
	C15.48,137.94,15.48,138.361,15.48,138.781z"/>
<path fill="#FFFFFF" d="M15.48,129.781c0,1.739,0,3.479,0,5.219c1.739,0,3.479,0,5.22,0s3.479,0,5.22,0c0-1.739,0-3.479,0-5.219
	c-1.74,0-3.479,0-5.22,0S17.22,129.781,15.48,129.781z"/>
<path fill="#302F2E" d="M15.48,92.88c0,0.18,0,0.359,0,0.539c1.739,0,3.479,0,5.22,0c0-1.739,0-3.479,0-5.219c0.18,0,0.359,0,0.54,0
	c1.5,0,3,0,4.5,0c0.06,0,0.12,0,0.18,0c0,0.18,0,0.359,0,0.539c0,1.381,0,2.76,0,4.141c0,0.18,0,0.359,0,0.539
	c-1.74,0-3.479,0-5.22,0c0,2.58,0,5.16,0,7.74c0,2.641,0,5.28,0,7.92c1.74,0,3.479,0,5.22,0c0-3.479,0-6.959,0-10.439
	c1.74,0,3.48,0,5.22,0c0-1.74,0-3.48,0-5.221c0.181,0,0.36,0,0.54,0c1.38,0,2.761,0,4.141,0c0.18,0,0.359,0,0.54,0
	c0,1.74,0,3.48,0,5.221c3.479,0,6.96,0,10.439,0c3.42,0,6.84,0,10.26,0c0,1.74,0,3.48,0,5.221c1.32,0,2.641,0,3.96,0
	c1.32,0,2.641,0,3.961,0c2.579,0,5.159,0,7.739,0c0,1.739,0,3.479,0,5.219c2.58,0,5.16,0,7.74,0s5.16,0,7.74,0
	c0.359,0,0.72,0,1.08,0c0.18,0,0.359,0,0.54,0c0.12,0,0.239,0,0.359,0c0.36,0,0.721,0,1.08,0c0.181,0,0.36,0,0.54,0
	c0.12,0,0.24,0,0.36,0c0.359,0,0.72,0,1.08,0c0.18,0,0.359,0,0.54,0c0.12,0,0.239,0,0.359,0c0.36,0,0.721,0,1.08,0
	c0.181,0,0.36,0,0.54,0c0.12,0,0.24,0,0.36,0c0.36,0,0.72,0,1.08,0c0.18,0,0.359,0,0.54,0c0.12,0,0.24,0,0.359,0
	c0.36,0,0.721,0,1.08,0c0.181,0,0.36,0,0.54,0c0.12,0,0.24,0,0.36,0c1.26,0,2.52,0,3.78,0c0,0.9,0,1.801,0,2.701
	c0,0.84,0,1.68,0,2.52c2.159,0,4.319,0,6.479,0s4.32,0,6.48,0s4.319,0,6.479,0s4.32,0,6.48,0c0-3.48,0-6.96,0-10.439
	c-1.74,0-3.48,0-5.221,0c0,1.739,0,3.479,0,5.219c-2.52,0-5.04,0-7.56,0s-5.04,0-7.56,0c-0.12,0-0.24,0-0.36,0
	c0-0.899,0-1.799,0-2.699c0-0.84,0-1.68,0-2.52c-1.74,0-3.48,0-5.22,0c0-0.181,0-0.361,0-0.541c0-0.24,0-0.479,0-0.72
	c0-0.181,0-0.36,0-0.54c0-0.359,0-0.72,0-1.08c0-0.42,0-0.84,0-1.26c0-0.359,0-0.721,0-1.08c-0.181,0-0.36,0-0.54,0
	c-0.181,0-0.36,0-0.54,0c-0.42,0-0.84,0-1.261,0c-0.18,0-0.359,0-0.539,0c-0.181,0-0.36,0-0.54,0c-0.181,0-0.36,0-0.54,0
	c-0.24,0-0.48,0-0.721,0c-0.18,0-0.359,0-0.54,0c0,0.061,0,0.12,0,0.18c0,0.42,0,0.84,0,1.26s0,0.84,0,1.261c0,0.84,0,1.67,0,2.521
	c-0.84,0-1.68,0-2.52,0c-0.9,0-1.8,0-2.7,0c0-0.181,0-0.361,0-0.541c0-1.38,0-2.76,0-4.14c0-0.181,0-0.36,0-0.54
	c-0.06,0-0.12,0-0.18,0c-0.84,0-1.681,0-2.521,0s-1.68,0-2.52,0s-1.681,0-2.521,0c-0.899,0-1.8,0-2.699,0c-3.421,0-6.841,0-10.261,0
	c0-1.74,0-3.48,0-5.221c-2.58,0-5.16,0-7.739,0c-1.32,0-2.641,0-3.961,0c-1.319,0-2.64,0-3.96,0c0-0.18,0-0.359,0-0.539
	c0-1.381,0-2.76,0-4.141c0-0.18,0-0.359,0-0.539c-0.06,0-0.119,0-0.18,0c-1.02,0-2.04,0-3.06,0c-1.08,0-2.16,0-3.24,0
	c-2.16,0-4.32,0-6.48,0c-4.319,0-8.64,0-12.96,0c0-0.19,0-0.36,0-0.541c0-0.18,0-0.359,0-0.539c0-0.181,0-0.36,0-0.541
	c0-0.42,0-0.84,0-1.26c0-0.18,0-0.359,0-0.539c0-0.181,0-0.361,0-0.541s0-0.359,0-0.539c0-0.24,0-0.48,0-0.721
	c-2.58,0-5.159,0-7.739,0c-0.12,0-0.24,0-0.36,0c-0.18,0-0.36,0-0.54,0c-0.36,0-0.72,0-1.08,0c-0.12,0-0.24,0-0.36,0
	c-0.18,0-0.359,0-0.54,0c-0.359,0-0.72,0-1.079,0c-0.12,0-0.24,0-0.36,0c-0.18,0-0.36,0-0.54,0c-0.36,0-0.72,0-1.08,0
	c-0.12,0-0.24,0-0.36,0c-0.18,0-0.359,0-0.54,0c-0.359,0-0.72,0-1.079,0c0,0.18,0,0.36,0,0.53c0,0.19,0,0.37,0,0.55s0,0.359,0,0.54
	s0,0.36,0,0.54c0,0.24,0,0.48,0,0.721c0,0.18,0,0.359,0,0.539s0,0.36,0,0.54c0,0.181,0,0.36,0,0.54c0,0.24,0,0.48,0,0.721
	C15.48,89.76,15.48,91.32,15.48,92.88z"/>
<path fill="#814221" d="M20.7,88.201c0,1.739,0,3.479,0,5.219c1.74,0,3.479,0,5.22,0c0-0.18,0-0.359,0-0.539c0-1.381,0-2.76,0-4.141
	c0-0.18,0-0.359,0-0.539c-0.06,0-0.12,0-0.18,0c-1.5,0-3,0-4.5,0C21.06,88.201,20.88,88.201,20.7,88.201z"/>
<path fill="#302F2E" d="M25.92,142.74c0,0.9,0,1.801,0,2.7c0.84,0,1.68,0,2.521,0c0.899,0,1.8,0,2.699,0c0.841,0,1.681,0,2.521,0
	c0.899,0,1.8,0,2.7,0c0-1.739,0-3.479,0-5.22c-1.74,0-3.48,0-5.221,0c-1.739,0-3.479,0-5.22,0
	C25.92,141.06,25.92,141.9,25.92,142.74z"/>
<path fill="#FFFFFF" d="M25.92,135c0,1.74,0,3.48,0,5.221c1.74,0,3.48,0,5.22,0c1.74,0,3.48,0,5.221,0c0-1.74,0-3.48,0-5.221
	c-1.74,0-3.48,0-5.221,0C29.4,135,27.66,135,25.92,135z"/>
<path fill="#814221" d="M31.14,93.419c0,1.74,0,3.48,0,5.221c1.74,0,3.48,0,5.221,0c0-1.74,0-3.48,0-5.221c-0.181,0-0.36,0-0.54,0
	c-1.38,0-2.761,0-4.141,0C31.5,93.419,31.32,93.419,31.14,93.419z"/>
<path fill="#302F2E" d="M36.36,149.94c0,0.181,0,0.36,0,0.54c0.18,0,0.359,0,0.54,0c2.52,0,5.04,0,7.56,0c2.58,0,5.16,0,7.74,0
	c2.52,0,5.04,0,7.56,0c2.58,0,5.16,0,7.74,0c0-1.68,0-3.359,0-5.04c-5.16,0-10.32,0-15.48,0c-2.579,0-5.159,0-7.739,0
	c-0.12,0-0.24,0-0.36,0c-0.18,0-0.36,0-0.54,0c-0.36,0-0.72,0-1.08,0c-0.12,0-0.24,0-0.359,0c-0.181,0-0.36,0-0.54,0
	c-0.36,0-0.721,0-1.08,0c-0.12,0-0.24,0-0.36,0c-0.18,0-0.36,0-0.54,0c-0.36,0-0.72,0-1.08,0c-0.12,0-0.24,0-0.359,0
	c-0.181,0-0.36,0-0.54,0c-0.36,0-0.721,0-1.08,0C36.36,146.94,36.36,148.44,36.36,149.94z"/>
<path fill="#FFFFFF" d="M36.36,140.22c0,1.74,0,3.48,0,5.22c0.359,0,0.72,0,1.08,0c0.18,0,0.359,0,0.54,0c0.119,0,0.239,0,0.359,0
	c0.36,0,0.72,0,1.08,0c0.18,0,0.36,0,0.54,0c0.12,0,0.24,0,0.36,0c0.359,0,0.72,0,1.08,0c0.18,0,0.359,0,0.54,0
	c0.119,0,0.239,0,0.359,0c0.36,0,0.72,0,1.08,0c0.18,0,0.36,0,0.54,0c0.12,0,0.24,0,0.36,0c2.58,0,5.16,0,7.739,0
	c5.16,0,10.32,0,15.48,0c0-1.739,0-3.479,0-5.22c-5.16,0-10.32,0-15.48,0C46.8,140.22,41.58,140.22,36.36,140.22z"/>
<path fill="#302F2E" d="M67.5,140.22c0,1.74,0,3.48,0,5.22c1.68,0,3.36,0,5.04,0c0.84,0,1.68,0,2.52,0c0.9,0,1.801,0,2.7,0
	c0.84,0,1.681,0,2.521,0c0.899,0,1.8,0,2.7,0c0.84,0,1.68,0,2.52,0c0.9,0,1.8,0,2.7,0c0-0.12,0-0.239,0-0.36c0-2.52,0-5.039,0-7.56
	c0-2.58,0-5.159,0-7.739c-0.24,0-0.48,0-0.72,0c-0.24,0-0.48,0-0.721,0c-0.42,0-0.84,0-1.26,0c-0.84,0-1.68,0-2.52,0
	c0,0.84,0,1.68,0,2.52c0,0.9,0,1.8,0,2.699c0,1.74,0,3.48,0,5.221C77.82,140.22,72.66,140.22,67.5,140.22z"/>
<path fill="#FFFFFF" d="M67.5,135.18c0,1.681,0,3.36,0,5.04c5.16,0,10.32,0,15.48,0c0-1.74,0-3.48,0-5.221c-2.58,0-5.16,0-7.74,0
	s-5.16,0-7.74,0C67.5,135.06,67.5,135.121,67.5,135.18z"/>
<path fill="#302F2E" d="M77.94,129.24c0,0.18,0,0.36,0,0.541c1.68,0,3.359,0,5.04,0c0-1.74,0-3.48,0-5.221c1.739,0,3.479,0,5.22,0
	c0-0.42,0-0.84,0-1.26s0-0.84,0-1.26c0-0.18,0-0.36,0-0.541c0-0.239,0-0.489,0-0.719c0-0.48,0-0.961,0-1.44c-1.681,0-3.36,0-5.04,0
	c-1.74,0-3.48,0-5.22,0c0,0.17,0,0.36,0,0.54c0,1.56,0,3.119,0,4.68S77.94,127.68,77.94,129.24z"/>
<path fill="#302F2E" d="M88.2,114.3c0,1.68,0,3.359,0,5.04c0.84,0,1.68,0,2.52,0c0.9,0,1.8,0,2.7,0c1.74,0,3.48,0,5.22,0
	c0,0.17,0,0.36,0,0.54c0,1.619,0,3.24,0,4.859c0,1.68,0,3.36,0,5.041c0,1.619,0,3.229,0,4.859c0,1.68,0,3.359,0,5.04
	c0,0.181,0,0.36,0,0.54c1.74,0,3.48,0,5.221,0c0-0.9,0-1.801,0-2.7c0-0.84,0-1.68,0-2.521c0-0.899,0-1.799,0-2.699
	c0-0.84,0-1.68,0-2.52c0-0.841,0-1.681,0-2.521c0-0.42,0-0.841,0-1.261c0-0.239,0-0.489,0-0.719c0-0.121,0-0.24,0-0.361
	c0-0.059,0-0.119,0-0.18c0-0.06,0-0.119,0-0.18c2.58,0,5.159,0,7.739,0s5.16,0,7.74,0c0.9,0,1.8,0,2.7,0c0.84,0,1.68,0,2.52,0
	c0,1.74,0,3.48,0,5.221c0.841,0,1.681,0,2.521,0c0.42,0,0.84,0,1.26,0c0.24,0,0.48,0,0.72,0c0.24,0,0.48,0,0.721,0
	c0,0.18,0,0.359,0,0.539c0,1.561,0,3.12,0,4.68c1.739,0,3.479,0,5.22,0c0,0.42,0,0.841,0,1.261s0,0.84,0,1.26c0,0.899,0,1.8,0,2.7
	c0,0.42,0,0.84,0,1.26s0,0.84,0,1.26c0,0.9,0,1.801,0,2.7c0.84,0,1.68,0,2.52,0c0.9,0,1.801,0,2.7,0c0-0.899,0-1.8,0-2.7
	c0-0.84,0-1.68,0-2.52c0-0.9,0-1.801,0-2.7c0-0.84,0-1.68,0-2.521c0.9,0,1.8,0,2.7,0c0.84,0,1.68,0,2.521,0c1.68,0,3.359,0,5.04,0
	c3.479,0,6.96,0,10.439,0c0,1.74,0,3.48,0,5.221c3.48,0,6.96,0,10.44,0c1.739,0,3.479,0,5.22,0c0,1.74,0,3.48,0,5.22
	c2.58,0,5.16,0,7.74,0c0.359,0,0.72,0,1.08,0c0.18,0,0.359,0,0.54,0c0.119,0,0.239,0,0.359,0c0.36,0,0.72,0,1.08,0
	c0.18,0,0.36,0,0.54,0c0.12,0,0.24,0,0.36,0c1.26,0,2.52,0,3.779,0c0.9,0,1.801,0,2.7,0c0.84,0,1.681,0,2.521,0
	c0,1.74,0,3.479,0,5.22c0,0.84,0,1.681,0,2.521s0,1.681,0,2.521c0.899,0,1.8,0,2.7,0c0.84,0,1.68,0,2.52,0s1.68,0,2.52,0
	c0.24,0,0.48,0,0.721,0c0.18,0,0.359,0,0.54,0c0.42,0,0.84,0,1.26,0c0.06,0,0.12,0,0.18,0c0,0.18,0,0.359,0,0.539
	c0,0.721,0,1.44,0,2.16c0,0.36,0,0.721,0,1.08c0,0.18,0,0.36,0,0.54c0,0.12,0,0.24,0,0.36c0,0.18,0,0.359,0,0.539
	c-0.899,0-1.8,0-2.7,0c-0.84,0-1.68,0-2.52,0c0,0.181,0,0.361,0,0.541s0,0.359,0,0.539c0,0.181,0,0.361,0,0.541
	c0,0.119,0,0.24,0,0.359c0,0.18,0,0.36,0,0.54c0,0.181,0,0.36,0,0.54s0,0.36,0,0.54c0,0.12,0,0.24,0,0.36c0,0.18,0,0.359,0,0.539
	c0,0.181,0,0.361,0,0.541s0,0.359,0,0.539c0,0.121,0,0.24,0,0.361c0,0.18,0,0.359,0,0.539s0,0.36,0,0.54c0,0.181,0,0.36,0,0.54
	c0,0.12,0,0.24,0,0.36c0,2.579,0,5.159,0,7.74c0.48,0,0.96,0,1.44,0c0.239,0,0.479,0,0.72,0c0.18,0,0.359,0,0.54,0
	c0.42,0,0.84,0,1.26,0s0.84,0,1.26,0c0-0.9,0-1.8,0-2.7c0-0.84,0-1.68,0-2.52c0-0.9,0-1.801,0-2.701c0-0.84,0-1.68,0-2.52
	c0.9,0,1.8,0,2.7,0c0.84,0,1.68,0,2.521,0c0.899,0,1.8,0,2.699,0c0.841,0,1.681,0,2.521,0c1.68,0,3.359,0,5.04,0
	c0,1.74,0,3.48,0,5.221c0.479,0,0.96,0,1.439,0c0.42,0,0.841,0,1.261,0s0.84,0,1.26,0s0.84,0,1.26,0c0-0.421,0-0.851,0-1.261
	c0-0.42,0-0.84,0-1.26c0-0.421,0-0.841,0-1.261c0-0.239,0-0.479,0-0.719c0-0.121,0-0.24,0-0.361c0-0.06,0-0.119,0-0.18
	c0-0.06,0-0.119,0-0.18c0.18,0,0.36,0,0.54,0c0.42,0,0.84,0,1.26,0c0.181,0,0.36,0,0.54,0c0.181,0,0.36,0,0.54,0
	c0.24,0,0.48,0,0.72,0c0.181,0,0.36,0,0.54,0c0.181,0,0.36,0,0.54,0c0.181,0,0.36,0,0.54,0c0.24,0,0.48,0,0.721,0
	c0.18,0,0.359,0,0.54,0c0.18,0,0.359,0,0.54,0c0.18,0,0.359,0,0.54,0c0.239,0,0.479,0,0.72,0c0.18,0,0.359,0,0.54,0
	c0.18,0,0.359,0,0.54,0c0.18,0,0.359,0,0.54,0c0.18,0,0.359,0,0.54,0c0-0.9,0-1.8,0-2.7c0-0.84,0-1.68,0-2.521
	c-1.08,0-2.16,0-3.24,0s-2.16,0-3.24,0c-2.16,0-4.32,0-6.479,0c-2.16,0-4.32,0-6.48,0s-4.32,0-6.479,0c0-0.899,0-1.799,0-2.699
	c0-0.84,0-1.68,0-2.52c0-0.9,0-1.801,0-2.701c0-0.84,0-1.68,0-2.52c0.899,0,1.8,0,2.699,0c0.841,0,1.681,0,2.521,0
	c0-2.58,0-5.16,0-7.74s0-5.16,0-7.74c-1.74,0-3.48,0-5.22,0c0,1.74,0,3.48,0,5.221c0,0.84,0,1.68,0,2.52c0,0.42,0,0.84,0,1.26
	c0,0.24,0,0.48,0,0.721c0,0.12,0,0.24,0,0.359c0,0.061,0,0.121,0,0.181s0,0.12,0,0.18c-0.181,0-0.36,0-0.54,0
	c-0.78,0-1.561,0-2.341,0c-0.779,0-1.56,0-2.34,0c-0.779,0-1.56,0-2.34,0s-1.56,0-2.34,0c-0.18,0-0.36,0-0.54,0c0-0.899,0-1.8,0-2.7
	c0-0.42,0-0.84,0-1.26s0-0.84,0-1.26c-0.9,0-1.8,0-2.7,0c-0.84,0-1.68,0-2.52,0c-0.9,0-1.8,0-2.7,0c-0.84,0-1.68,0-2.521,0
	c-0.899,0-1.8,0-2.699,0c-0.841,0-1.681,0-2.521,0c-1.68,0-3.359,0-5.04,0c0-0.48,0-0.96,0-1.439c0-0.42,0-0.841,0-1.261
	c0-0.84,0-1.68,0-2.521c-0.359,0-0.72,0-1.08,0c-0.18,0-0.359,0-0.54,0c-0.12,0-0.239,0-0.359,0c-0.36,0-0.721,0-1.08,0
	c-0.181,0-0.36,0-0.54,0c-0.12,0-0.24,0-0.36,0c-0.359,0-0.72,0-1.08,0c-0.3,0-0.6,0-0.899,0c-0.36,0-0.721,0-1.08,0
	c-0.3,0-0.601,0-0.9,0c-2.58,0-5.16,0-7.74,0c0-0.899,0-1.799,0-2.699c0-0.84,0-1.68,0-2.52c-1.739,0-3.479,0-5.22,0
	s-3.479,0-5.22,0s-3.48,0-5.22,0c-0.841,0-1.681,0-2.521,0s-1.68,0-2.52,0c0-0.9,0-1.801,0-2.701c0-0.84,0-1.68,0-2.52
	c-1.32,0-2.641,0-3.96,0c-1.32,0-2.641,0-3.961,0c-2.579,0-5.159,0-7.739,0c0-0.9,0-1.8,0-2.699c0-0.851,0-1.681,0-2.521
	c-2.16,0-4.32,0-6.48,0s-4.319,0-6.479,0s-4.32,0-6.48,0s-4.32,0-6.479,0c0-1.681,0-3.36,0-5.04c-1.261,0-2.521,0-3.78,0
	c-0.12,0-0.24,0-0.36,0c-0.18,0-0.359,0-0.54,0c-0.359,0-0.72,0-1.08,0c-0.119,0-0.239,0-0.359,0c-0.181,0-0.36,0-0.54,0
	c-0.36,0-0.72,0-1.08,0c-0.12,0-0.24,0-0.36,0c-0.18,0-0.359,0-0.54,0c-0.359,0-0.72,0-1.08,0c-0.12,0-0.239,0-0.359,0
	c-0.181,0-0.36,0-0.54,0c-0.36,0-0.721,0-1.08,0c-0.12,0-0.24,0-0.36,0c-0.18,0-0.359,0-0.54,0c-0.359,0-0.72,0-1.08,0
	c-0.12,0-0.239,0-0.359,0c-0.181,0-0.36,0-0.54,0C88.92,114.3,88.56,114.3,88.2,114.3z"/>
<path fill="#814221" d="M88.2,111.6c0,0.899,0,1.8,0,2.7c0.359,0,0.72,0,1.08,0c0.18,0,0.359,0,0.54,0c0.12,0,0.239,0,0.359,0
	c0.36,0,0.721,0,1.08,0c0.181,0,0.36,0,0.54,0c0.12,0,0.24,0,0.36,0c0.359,0,0.72,0,1.08,0c0.18,0,0.359,0,0.54,0
	c0.12,0,0.239,0,0.359,0c0.36,0,0.721,0,1.08,0c0.181,0,0.36,0,0.54,0c0.12,0,0.24,0,0.36,0c0.36,0,0.72,0,1.08,0
	c0.18,0,0.359,0,0.54,0c0.12,0,0.24,0,0.359,0c0.36,0,0.721,0,1.08,0c0.181,0,0.36,0,0.54,0c0.12,0,0.24,0,0.36,0
	c1.26,0,2.52,0,3.78,0c0-0.84,0-1.68,0-2.52c0-0.9,0-1.801,0-2.701c-1.261,0-2.521,0-3.78,0c-0.12,0-0.24,0-0.36,0
	c-0.18,0-0.359,0-0.54,0c-0.359,0-0.72,0-1.08,0c-0.119,0-0.239,0-0.359,0c-0.181,0-0.36,0-0.54,0c-0.36,0-0.72,0-1.08,0
	c-0.12,0-0.24,0-0.36,0c-0.18,0-0.359,0-0.54,0c-0.359,0-0.72,0-1.08,0c-0.12,0-0.239,0-0.359,0c-0.181,0-0.36,0-0.54,0
	c-0.36,0-0.721,0-1.08,0c-0.12,0-0.24,0-0.36,0c-0.18,0-0.359,0-0.54,0c-0.359,0-0.72,0-1.08,0c-0.12,0-0.239,0-0.359,0
	c-0.181,0-0.36,0-0.54,0c-0.36,0-0.721,0-1.08,0C88.2,109.919,88.2,110.76,88.2,111.6z"/>
<path fill="#302F2E" d="M98.64,88.38c0,1.68,0,3.359,0,5.039c1.74,0,3.48,0,5.221,0c0,0.841,0,1.681,0,2.521c0,0.9,0,1.8,0,2.7
	c0.899,0,1.8,0,2.699,0c0.841,0,1.681,0,2.521,0c0-0.84,0-1.68,0-2.52c0-0.24,0-0.48,0-0.721c0-0.18,0-0.359,0-0.539
	c0-0.421,0-0.851,0-1.261c0-0.06,0-0.12,0-0.181c0.18,0,0.36,0,0.54,0c0.72,0,1.439,0,2.16,0c0.359,0,0.72,0,1.08,0
	c0.18,0,0.359,0,0.54,0c0.119,0,0.239,0,0.359,0c0.181,0,0.36,0,0.54,0c0,0.9,0,1.801,0,2.701c0,0.84,0,1.68,0,2.52
	c-1.74,0-3.479,0-5.22,0c0,0.48,0,0.96,0,1.439c0,0.24,0,0.48,0,0.721c0,0.18,0,0.359,0,0.54c0,0.84,0,1.67,0,2.521
	c2.58,0,5.16,0,7.74,0s5.16,0,7.739,0c0-1.74,0-3.48,0-5.221c0.181,0,0.36,0,0.54,0c1.561,0,3.12,0,4.681,0c0-1.74,0-3.48,0-5.221
	c0.18,0,0.359,0,0.54,0c0.72,0,1.439,0,2.16,0c0.659,0,1.319,0,1.979,0c0.18,0,0.36,0,0.54,0c0,1.74,0,3.48,0,5.221
	c-1.74,0-3.48,0-5.22,0c0,1.74,0,3.48,0,5.221c2.16,0,4.319,0,6.479,0s4.32,0,6.48,0s4.319,0,6.479,0s4.32,0,6.48,0
	c0-1.74,0-3.48,0-5.221c-2.58,0-5.16,0-7.74,0s-5.16,0-7.74,0c0-0.18,0-0.359,0-0.54c0-3.12,0-6.239,0-9.36c0-0.18,0-0.359,0-0.539
	c-0.06,0-0.12,0-0.18,0c-1.68,0-3.36,0-5.04,0c0-0.19,0-0.36,0-0.541c0-0.18,0-0.359,0-0.539c0-0.181,0-0.36,0-0.541
	c0-0.18,0-0.359,0-0.539c0-0.24,0-0.48,0-0.721c0-0.18,0-0.359,0-0.539c0-0.181,0-0.361,0-0.541c0-0.42,0-0.84,0-1.26
	c-2.16,0-4.32,0-6.48,0c-2.159,0-4.319,0-6.479,0s-4.32,0-6.48,0c-2.159,0-4.319,0-6.479,0c0,0.84,0,1.68,0,2.52
	c0,0.9,0,1.801,0,2.701c-0.84,0-1.68,0-2.521,0c-0.899,0-1.8,0-2.699,0c0-1.261,0-2.521,0-3.781c0-0.119,0-0.239,0-0.359
	c0-0.18,0-0.359,0-0.55c0-0.351,0-0.71,0-1.07c0-0.12,0-0.239,0-0.36c0-0.18,0-0.359,0-0.539c0-0.36,0-0.721,0-1.08
	c0-2.58,0-5.16,0-7.74c-0.841,0-1.681,0-2.521,0c-0.899,0-1.8,0-2.7,0c0,0.18,0,0.359,0,0.54c0,0.84,0,1.68,0,2.521
	c0,0.84,0,1.68,0,2.52c0,1.68,0,3.359,0,5.04c0,0.84,0,1.67,0,2.521c0,0.42,0,0.84,0,1.26S98.64,87.96,98.64,88.38z"/>
<path fill="#302F2E" d="M103.86,142.74c0,0.9,0,1.801,0,2.7c0.42,0,0.84,0,1.26,0s0.84,0,1.26,0c0.84,0,1.68,0,2.521,0
	c0.84,0,1.68,0,2.52,0c0.9,0,1.8,0,2.7,0c0.84,0,1.68,0,2.52,0c0.9,0,1.801,0,2.7,0c0.84,0,1.68,0,2.521,0c0.899,0,1.8,0,2.699,0
	c0-1.739,0-3.479,0-5.22c-1.68,0-3.359,0-5.04,0c-0.84,0-1.68,0-2.52,0c-0.9,0-1.8,0-2.7,0c-0.84,0-1.68,0-2.52,0
	c-0.9,0-1.8,0-2.7,0c-0.84,0-1.68,0-2.521,0c-0.899,0-1.8,0-2.699,0C103.86,141.06,103.86,141.9,103.86,142.74z"/>
<path fill="#814221" d="M103.86,137.52c0,0.899,0,1.8,0,2.7c0.899,0,1.8,0,2.699,0c0.841,0,1.681,0,2.521,0c0.9,0,1.8,0,2.7,0
	c0.84,0,1.68,0,2.52,0c0.9,0,1.8,0,2.7,0c0.84,0,1.68,0,2.52,0c1.681,0,3.36,0,5.04,0c0-0.9,0-1.801,0-2.7c0-0.84,0-1.68,0-2.521
	c0.9,0,1.801,0,2.7,0c0.84,0,1.681,0,2.521,0c0-1.56,0-3.119,0-4.68c0-0.18,0-0.359,0-0.539c-0.24,0-0.48,0-0.721,0
	c-0.239,0-0.479,0-0.72,0c-0.42,0-0.84,0-1.26,0c-0.84,0-1.68,0-2.521,0c0-1.74,0-3.48,0-5.221c-0.84,0-1.68,0-2.52,0
	c-0.9,0-1.8,0-2.7,0c0,0.061,0,0.12,0,0.18c0,0.18,0,0.36,0,0.541c0,0.119,0,0.229,0,0.359c0,0.18,0,0.359,0,0.54s0,0.36,0,0.54
	s0,0.359,0,0.54c0,0.239,0,0.479,0,0.72c0,0.18,0,0.36,0,0.53c0,0.19,0,0.37,0,0.55c0,0.24,0,0.48,0,0.721c-2.58,0-5.16,0-7.74,0
	s-5.159,0-7.739,0c0,0.84,0,1.68,0,2.52c0,0.9,0,1.8,0,2.699C103.86,135.84,103.86,136.68,103.86,137.52z"/>
<path fill="#A06141" d="M103.86,127.26c0,0.84,0,1.68,0,2.521c2.58,0,5.159,0,7.739,0s5.16,0,7.74,0c0-0.24,0-0.48,0-0.721
	c0-0.18,0-0.359,0-0.55c0-0.17,0-0.351,0-0.53c0-0.24,0-0.48,0-0.72c0-0.181,0-0.36,0-0.54s0-0.359,0-0.54s0-0.36,0-0.54
	c0-0.13,0-0.24,0-0.359c0-0.181,0-0.361,0-0.541c0-0.06,0-0.119,0-0.18c-2.58,0-5.16,0-7.74,0s-5.159,0-7.739,0
	c0,0.061,0,0.12,0,0.18c0,0.061,0,0.121,0,0.18c0,0.121,0,0.24,0,0.361c0,0.229,0,0.479,0,0.719
	C103.86,126.419,103.86,126.84,103.86,127.26z"/>
<path fill="#814221" d="M103.86,114.3c0,1.68,0,3.359,0,5.04c2.159,0,4.319,0,6.479,0s4.32,0,6.48,0s4.319,0,6.479,0s4.32,0,6.48,0
	c0-1.681,0-3.36,0-5.04c-2.16,0-4.32,0-6.48,0s-4.319,0-6.479,0s-4.32,0-6.48,0S106.02,114.3,103.86,114.3z"/>
<path fill="#CDB055" d="M103.86,103.32c0,0.18,0,0.36,0,0.541c1.739,0,3.479,0,5.22,0c0-0.851,0-1.681,0-2.521
	c0-0.181,0-0.36,0-0.54c0-0.24,0-0.48,0-0.721c0-0.479,0-0.959,0-1.439c-0.84,0-1.68,0-2.521,0c-0.899,0-1.8,0-2.699,0
	c0,0.359,0,0.721,0,1.08c0,0.42,0,0.84,0,1.26c0,0.36,0,0.721,0,1.08c0,0.18,0,0.359,0,0.54
	C103.86,102.84,103.86,103.08,103.86,103.32z"/>
<path fill="#814221" d="M103.86,84.419c0,1.261,0,2.521,0,3.781c0.899,0,1.8,0,2.699,0c0.841,0,1.681,0,2.521,0
	c0-0.9,0-1.801,0-2.701c0-0.84,0-1.68,0-2.52c0-1.68,0-3.359,0-5.04c0-0.84,0-1.68,0-2.521c0-0.909,0-1.799,0-2.699
	c-0.84,0-1.68,0-2.521,0c-0.42,0-0.84,0-1.26,0c-0.479,0-0.96,0-1.439,0c0,2.58,0,5.16,0,7.74c0,0.359,0,0.72,0,1.08
	c0,0.18,0,0.359,0,0.539c0,0.121,0,0.24,0,0.36c0,0.36,0,0.72,0,1.07c0,0.19,0,0.37,0,0.55C103.86,84.18,103.86,84.3,103.86,84.419z
	"/>
<path fill="#302F2E" d="M103.86,70.01c0,0.909,0,1.81,0,2.71c0.479,0,0.96,0,1.439,0c0.42,0,0.84,0,1.26,0c0.841,0,1.681,0,2.521,0
	c0-0.84,0-1.68,0-2.52c0-0.19,0-0.36,0-0.541c0-0.24,0-0.479,0-0.72c0-0.479,0-0.96,0-1.44c-0.84,0-1.68,0-2.521,0
	c-0.899,0-1.8,0-2.699,0C103.86,68.34,103.86,69.18,103.86,70.01z"/>
<path fill="#CDB055" d="M109.08,106.38c0,0.9,0,1.8,0,2.699c0.12,0,0.24,0,0.36,0c2.52,0,5.04,0,7.56,0s5.04,0,7.56,0
	c0-1.739,0-3.479,0-5.219c-2.579,0-5.159,0-7.739,0s-5.16,0-7.74,0C109.08,104.701,109.08,105.541,109.08,106.38z"/>
<path fill="#CDB055" d="M109.08,96.121c0,0.84,0,1.68,0,2.52c1.74,0,3.479,0,5.22,0c0-0.84,0-1.68,0-2.52c0-0.9,0-1.801,0-2.701
	c-0.18,0-0.359,0-0.54,0c-0.12,0-0.24,0-0.359,0c-0.181,0-0.36,0-0.54,0c-0.36,0-0.721,0-1.08,0c-0.721,0-1.44,0-2.16,0
	c-0.18,0-0.36,0-0.54,0c0,0.061,0,0.121,0,0.181c0,0.41,0,0.84,0,1.261c0,0.18,0,0.359,0,0.539
	C109.08,95.64,109.08,95.88,109.08,96.121z"/>
<path fill="#A06141" d="M109.08,77.94c0,1.681,0,3.36,0,5.04c2.16,0,4.32,0,6.479,0c2.16,0,4.32,0,6.48,0s4.32,0,6.479,0
	c2.16,0,4.32,0,6.48,0c0.36,0,0.72,0,1.08,0c0.42,0,0.84,0,1.26,0c0.36,0,0.72,0,1.08,0c0.18,0,0.36,0,0.54,0c0.24,0,0.48,0,0.72,0
	c0.181,0,0.36,0,0.54,0c0-0.061,0-0.119,0-0.18s0-0.12,0-0.18c0-0.121,0-0.24,0-0.36c0-0.181,0-0.36,0-0.54c0-0.42,0-0.84,0-1.26
	c0-0.84,0-1.68,0-2.521c0.84,0,1.681,0,2.521,0c0.899,0,1.8,0,2.7,0c0-0.84,0-1.68,0-2.521c0-0.909,0-1.799,0-2.699
	c-0.841,0-1.681,0-2.521,0c-0.9,0-1.8,0-2.7,0c-0.84,0-1.68,0-2.52,0c-0.9,0-1.8,0-2.7,0c-0.84,0-1.68,0-2.52,0
	c-0.9,0-1.801,0-2.7,0c-0.84,0-1.681,0-2.521,0c-0.899,0-1.8,0-2.7,0c-1.68,0-3.359,0-5.04,0c-0.84,0-1.68,0-2.52,0
	c-0.9,0-1.8,0-2.7,0c-0.84,0-1.68,0-2.52,0c-0.42,0-0.84,0-1.261,0c-0.479,0-0.96,0-1.439,0c0,0.9,0,1.79,0,2.699
	C109.08,76.26,109.08,77.1,109.08,77.94z"/>
<path fill="#814221" d="M109.08,70.201c0,0.84,0,1.68,0,2.52c0.479,0,0.96,0,1.439,0c0.421,0,0.841,0,1.261,0c0.84,0,1.68,0,2.52,0
	c0-0.84,0-1.68,0-2.52c0-0.42,0-0.84,0-1.261c0-0.479,0-0.96,0-1.44c-0.84,0-1.68,0-2.52,0c-0.9,0-1.8,0-2.7,0
	c0,0.48,0,0.961,0,1.44c0,0.24,0,0.479,0,0.72C109.08,69.84,109.08,70.01,109.08,70.201z"/>
<path fill="#302F2E" d="M109.08,59.76c0,2.58,0,5.16,0,7.739c0.9,0,1.8,0,2.7,0c0.84,0,1.68,0,2.52,0c0-0.489,0-0.959,0-1.439
	c0-0.42,0-0.84,0-1.26c0-0.841,0-1.68,0-2.52c0-0.48,0-0.96,0-1.44c0-0.42,0-0.84,0-1.26c0-0.84,0-1.68,0-2.52s0-1.68,0-2.52
	c0-0.42,0-0.84,0-1.26c0-0.48,0-0.96,0-1.44c-0.78,0-1.56,0-2.34,0s-1.56,0-2.34,0c-0.18,0-0.36,0-0.54,0c0,0.17,0,0.36,0,0.54
	c0,0.18,0,0.36,0,0.54c0,0.12,0,0.24,0,0.36c0,0.18,0,0.36,0,0.54c0,0.12,0,0.24,0,0.36c0,0.18,0,0.36,0,0.54c0,0.36,0,0.72,0,1.08
	c0,0.12,0,0.24,0,0.36c0,0.18,0,0.35,0,0.54c0,0.36,0,0.72,0,1.08c0,0.12,0,0.23,0,0.36c0,0.18,0,0.36,0,0.54
	C109.08,59.04,109.08,59.4,109.08,59.76z"/>
<path fill="#302F2E" d="M109.08,38.88c0,0.9,0,1.8,0,2.7c1.74,0,3.479,0,5.22,0c0-0.84,0-1.68,0-2.52c0-0.9,0-1.8,0-2.7
	c0-0.85,0-1.68,0-2.52c0-0.9,0-1.8,0-2.7c0-0.84,0-1.68,0-2.52c0-0.9,0-1.8,0-2.7c0-0.84,0-1.68,0-2.52c0-0.9,0-1.8,0-2.7
	c-0.84,0-1.68,0-2.52,0c-0.9,0-1.8,0-2.7,0c0,0.84,0,1.68,0,2.52c0,0.9,0,1.79,0,2.7c0,0.84,0,1.68,0,2.52c0,0.9,0,1.8,0,2.7
	c0,0.84,0,1.68,0,2.52c0,0.9,0,1.8,0,2.7C109.08,37.2,109.08,38.04,109.08,38.88z"/>
<path fill="#302F2E" d="M114.3,70.201c0,0.84,0,1.68,0,2.52c0.9,0,1.8,0,2.7,0c0.84,0,1.68,0,2.52,0c1.681,0,3.36,0,5.04,0
	c0-1.74,0-3.48,0-5.221c-0.84,0-1.68,0-2.52,0c-0.9,0-1.8,0-2.7,0c-1.68,0-3.359,0-5.04,0c0,0.48,0,0.961,0,1.44
	C114.3,69.361,114.3,69.781,114.3,70.201z"/>
<path fill="#FFFFFF" d="M114.3,66.06c0,0.48,0,0.95,0,1.439c1.681,0,3.36,0,5.04,0c0-0.42,0-0.84,0-1.26s0-0.84,0-1.26
	s0-0.84,0-1.26c0-0.48,0-0.96,0-1.44c-1.68,0-3.359,0-5.04,0c0,0.84,0,1.679,0,2.52C114.3,65.22,114.3,65.64,114.3,66.06z"/>
<path fill="#302F2E" d="M114.3,60.84c0,0.48,0,0.96,0,1.44c1.681,0,3.36,0,5.04,0c0-0.42,0-0.84,0-1.27c0-0.41,0-0.83,0-1.25
	s0-0.84,0-1.26c0-0.49,0-0.96,0-1.44c-1.68,0-3.359,0-5.04,0c0,0.84,0,1.68,0,2.52C114.3,60,114.3,60.42,114.3,60.84z"/>
<path fill="#814221" d="M114.3,54.54c0,0.84,0,1.68,0,2.52c1.681,0,3.36,0,5.04,0c0-0.42,0-0.84,0-1.26s0-0.84,0-1.26s0-0.84,0-1.26
	c0-0.48,0-0.96,0-1.44c-1.68,0-3.359,0-5.04,0c0,0.48,0,0.96,0,1.44C114.3,53.7,114.3,54.12,114.3,54.54z"/>
<path fill="#302F2E" d="M114.3,49.14c0,0.9,0,1.8,0,2.7c1.681,0,3.36,0,5.04,0c0-0.42,0-0.84,0-1.26s0-0.84,0-1.26
	c0-0.42,0-0.84,0-1.26c0-0.48,0-0.96,0-1.44c0-1.68,0-3.36,0-5.04c-1.68,0-3.359,0-5.04,0c0,1.68,0,3.36,0,5.04
	C114.3,47.46,114.3,48.3,114.3,49.14z"/>
<path fill="#D4D5D7" d="M114.3,39.06c0,0.84,0,1.68,0,2.52c1.681,0,3.36,0,5.04,0c0-0.48,0-0.96,0-1.44c0-0.42,0-0.84,0-1.26
	c0-0.42,0-0.84,0-1.26s0-0.84,0-1.26c0-0.9,0-1.8,0-2.7c0-0.84,0-1.68,0-2.52c0-0.9,0-1.8,0-2.7c0-0.84,0-1.68,0-2.52
	c0-0.84,0-1.68,0-2.52c0-0.42,0-0.84,0-1.26c0-0.48,0-0.96,0-1.44c-1.68,0-3.359,0-5.04,0c0,0.9,0,1.8,0,2.7c0,0.84,0,1.68,0,2.52
	c0,0.9,0,1.8,0,2.7c0,0.84,0,1.68,0,2.52c0,0.9,0,1.8,0,2.7c0,0.84,0,1.67,0,2.52C114.3,37.26,114.3,38.16,114.3,39.06z"/>
<path fill="#302F2E" d="M114.3,18.18c0,0.83,0,1.68,0,2.52c1.681,0,3.36,0,5.04,0c0-0.84,0-1.69,0-2.52c0-0.9,0-1.8,0-2.7
	c-0.18,0-0.359,0-0.54,0c-0.12,0-0.24,0-0.359,0c-0.181,0-0.36,0-0.54,0c-0.36,0-0.721,0-1.08,0c-0.12,0-0.24,0-0.36,0
	c-0.18,0-0.36,0-0.54,0c-0.36,0-0.72,0-1.08,0c-0.18,0-0.359,0-0.54,0c0,0.06,0,0.12,0,0.18c0,0.42,0,0.84,0,1.26
	C114.3,17.34,114.3,17.76,114.3,18.18z"/>
<path fill="#302F2E" d="M119.34,66.24c0,0.42,0,0.84,0,1.26c0.9,0,1.8,0,2.7,0c0.84,0,1.68,0,2.52,0c0-1.739,0-3.479,0-5.219
	c-0.84,0-1.68,0-2.52,0c-0.9,0-1.8,0-2.7,0c0,0.48,0,0.96,0,1.44c0,0.42,0,0.84,0,1.26S119.34,65.82,119.34,66.24z"/>
<path fill="#814221" d="M119.34,61.01c0,0.43,0,0.85,0,1.27c0.9,0,1.8,0,2.7,0c0.84,0,1.68,0,2.52,0c0-1.74,0-3.48,0-5.22
	c-0.84,0-1.68,0-2.52,0c-0.9,0-1.8,0-2.7,0c0,0.48,0,0.95,0,1.44c0,0.42,0,0.84,0,1.26S119.34,60.6,119.34,61.01z"/>
<path fill="#A06141" d="M119.34,55.8c0,0.42,0,0.84,0,1.26c0.9,0,1.8,0,2.7,0c0.84,0,1.68,0,2.52,0c0-1.74,0-3.48,0-5.22
	c0.181,0,0.36,0,0.54,0c0.36,0,0.721,0,1.08,0c0.181,0,0.36,0,0.54,0c0.181,0,0.36,0,0.54,0c0.66,0,1.32,0,1.98,0
	c0.18,0,0.359,0,0.54,0c0,1.74,0,3.48,0,5.22c0.899,0,1.8,0,2.7,0c0.84,0,1.68,0,2.52,0c0-1.74,0-3.48,0-5.22c0.18,0,0.36,0,0.54,0
	c1.56,0,3.12,0,4.68,0c0-1.74,0-3.48,0-5.22c0.181,0,0.36,0,0.54,0c1.561,0,3.12,0,4.681,0c0,0.18,0,0.36,0,0.54
	c0,1.56,0,3.12,0,4.68c-0.181,0-0.36,0-0.54,0c-1.561,0-3.12,0-4.681,0c0,1.74,0,3.48,0,5.22c0,1.74,0,3.48,0,5.22
	c0.9,0,1.8,0,2.7,0c0.84,0,1.68,0,2.521,0c0-1.74,0-3.48,0-5.22c1.68,0,3.359,0,5.04,0c0-1.74,0-3.48,0-5.22c0.18,0,0.359,0,0.539,0
	c3.301,0,6.601,0,9.9,0c0-1.74,0-3.48,0-5.22c1.74,0,3.48,0,5.22,0c0-1.68,0-3.36,0-5.04s0-3.36,0-5.04c0-0.06,0-0.12,0-0.18
	c-2.159,0-4.319,0-6.479,0s-4.32,0-6.48,0s-4.319,0-6.479,0s-4.32,0-6.48,0c-0.84,0-1.68,0-2.52,0c-0.42,0-0.84,0-1.26,0
	c-0.48,0-0.96,0-1.44,0c0,0.84,0,1.68,0,2.52c0,0.42,0,0.84,0,1.26c0,0.24,0,0.48,0,0.72c0,0.24,0,0.48,0,0.72
	c-0.18,0-0.36,0-0.54,0c-1.68,0-3.36,0-5.04,0c-1.62,0-3.24,0-4.86,0c0,1.68,0,3.36,0,5.04c-1.739,0-3.479,0-5.22,0
	c0,0.48,0,0.96,0,1.44c0,0.42,0,0.84,0,1.26c0,0.42,0,0.84,0,1.26s0,0.84,0,1.26c0,0.48,0,0.96,0,1.44c0,0.42,0,0.84,0,1.26
	S119.34,55.38,119.34,55.8z"/>
<path fill="#814221" d="M119.34,41.58c0,1.68,0,3.36,0,5.04c1.74,0,3.48,0,5.22,0c0-1.68,0-3.36,0-5.04c-0.84,0-1.68,0-2.52,0
	C121.14,41.58,120.24,41.58,119.34,41.58z"/>
<path fill="#302F2E" d="M119.34,40.14c0,0.48,0,0.96,0,1.44c0.9,0,1.8,0,2.7,0c0.84,0,1.68,0,2.52,0c0-0.84,0-1.68,0-2.52
	c0-0.9,0-1.8,0-2.7c-0.84,0-1.68,0-2.52,0c-0.42,0-0.84,0-1.26,0c-0.48,0-0.96,0-1.44,0c0,0.42,0,0.84,0,1.26s0,0.84,0,1.26
	C119.34,39.3,119.34,39.72,119.34,40.14z"/>
<path fill="#FFFFFF" d="M119.34,33.66c0,0.9,0,1.8,0,2.7c0.48,0,0.96,0,1.44,0c0.42,0,0.84,0,1.26,0c0.84,0,1.68,0,2.52,0
	c0-1.62,0-3.24,0-4.86c0-1.68,0-3.36,0-5.04c0-0.18,0-0.36,0-0.54c-0.06,0-0.119,0-0.18,0c-1.68,0-3.36,0-5.04,0
	c0,0.84,0,1.68,0,2.52c0,0.9,0,1.8,0,2.7C119.34,31.98,119.34,32.82,119.34,33.66z"/>
<path fill="#302F2E" d="M119.34,23.4c0,0.84,0,1.68,0,2.52c1.68,0,3.36,0,5.04,0c0.061,0,0.12,0,0.18,0c0,0.18,0,0.36,0,0.54
	c0,1.68,0,3.36,0,5.04c0,1.62,0,3.24,0,4.86c0.9,0,1.801,0,2.7,0c0.84,0,1.681,0,2.521,0c0.899,0,1.8,0,2.7,0c0.84,0,1.68,0,2.52,0
	c0.48,0,0.96,0,1.44,0c0.42,0,0.84,0,1.26,0c0.84,0,1.68,0,2.52,0c0-0.9,0-1.8,0-2.7c0-0.84,0-1.68,0-2.52c-3.479,0-6.96,0-10.439,0
	c0-1.74,0-3.48,0-5.22c0-1.74,0-3.48,0-5.22c-0.84,0-1.681,0-2.521,0c-0.899,0-1.8,0-2.7,0c-0.84,0-1.68,0-2.52,0
	c-0.9,0-1.8,0-2.7,0c0,0.48,0,0.96,0,1.44C119.34,22.56,119.34,22.98,119.34,23.4z"/>
<path fill="#302F2E" d="M124.56,194.76c0,2.58,0,5.16,0,7.74c1.74,0,3.48,0,5.221,0c0-3.49,0-6.96,0-10.44c0-1.75,0-3.479,0-5.22
	c-0.84,0-1.681,0-2.521,0c-0.899,0-1.8,0-2.7,0c0,0.12,0,0.24,0,0.359C124.56,189.72,124.56,192.24,124.56,194.76z"/>
<path fill="#302F2E" d="M124.56,137.52c0,0.899,0,1.8,0,2.7c1.561,0,3.12,0,4.681,0c0.18,0,0.359,0,0.54,0c0-1.74,0-3.48,0-5.221
	c-0.84,0-1.681,0-2.521,0c-0.899,0-1.8,0-2.7,0C124.56,135.84,124.56,136.68,124.56,137.52z"/>
<path fill="#CDB055" d="M124.56,98.64c0,1.74,0,3.48,0,5.221c1.74,0,3.48,0,5.221,0c0-1.74,0-3.48,0-5.221c-1.561,0-3.12,0-4.681,0
	C124.92,98.64,124.74,98.64,124.56,98.64z"/>
<path fill="#814221" d="M124.56,67.5c0,1.74,0,3.48,0,5.221c0.9,0,1.801,0,2.7,0c0.84,0,1.681,0,2.521,0c0.899,0,1.8,0,2.7,0
	c0.84,0,1.68,0,2.52,0c0.9,0,1.8,0,2.7,0c0.84,0,1.68,0,2.52,0c0.9,0,1.8,0,2.7,0c0.84,0,1.68,0,2.521,0c0-1.74,0-3.48,0-5.221
	c-1.74,0-3.48,0-5.221,0c0-0.18,0-0.359,0-0.539c0-0.78,0-1.561,0-2.341c0-0.779,0-1.56,0-2.339c0-1.74,0-3.48,0-5.22
	c0-1.74,0-3.48,0-5.22c-1.56,0-3.12,0-4.68,0c-0.18,0-0.36,0-0.54,0c0,1.74,0,3.48,0,5.22c-0.84,0-1.68,0-2.52,0
	c-0.9,0-1.801,0-2.7,0c0,1.74,0,3.48,0,5.22c0,1.74,0,3.48,0,5.219C128.04,67.5,126.3,67.5,124.56,67.5z"/>
<path fill="#302F2E" d="M124.56,62.28c0,1.74,0,3.48,0,5.219c1.74,0,3.48,0,5.221,0c0-1.739,0-3.479,0-5.219
	c-0.84,0-1.681,0-2.521,0C126.36,62.28,125.46,62.28,124.56,62.28z"/>
<path fill="#A06141" d="M124.56,57.06c0,1.74,0,3.48,0,5.22c0.9,0,1.801,0,2.7,0c0.84,0,1.681,0,2.521,0c0-1.74,0-3.48,0-5.22
	c-0.84,0-1.681,0-2.521,0c-0.42,0-0.84,0-1.26,0c-0.18,0-0.36,0-0.54,0c-0.24,0-0.479,0-0.72,0
	C124.68,57.06,124.62,57.06,124.56,57.06z"/>
<path fill="#814221" d="M124.56,51.84c0,1.74,0,3.48,0,5.22c0.061,0,0.12,0,0.181,0c0.24,0,0.479,0,0.72,0c0.18,0,0.36,0,0.54,0
	c0.42,0,0.84,0,1.26,0c0.84,0,1.681,0,2.521,0c0-1.74,0-3.48,0-5.22c-0.181,0-0.36,0-0.54,0c-0.66,0-1.32,0-1.98,0
	c-0.18,0-0.359,0-0.54,0c-0.18,0-0.359,0-0.54,0c-0.359,0-0.72,0-1.08,0C124.92,51.84,124.74,51.84,124.56,51.84z"/>
<path fill="#814221" d="M124.56,39.06c0,0.84,0,1.68,0,2.52c1.62,0,3.24,0,4.86,0c1.68,0,3.36,0,5.04,0c0.18,0,0.36,0,0.54,0
	c0-0.24,0-0.48,0-0.72c0-0.24,0-0.48,0-0.72c0-0.42,0-0.84,0-1.26c0-0.84,0-1.68,0-2.52c-0.84,0-1.68,0-2.52,0c-0.9,0-1.801,0-2.7,0
	c-0.84,0-1.681,0-2.521,0c-0.899,0-1.8,0-2.7,0C124.56,37.26,124.56,38.16,124.56,39.06z"/>
<path fill="#302F2E" d="M129.78,202.5c0,3.47,0,6.96,0,10.43c0.899,0,1.8,0,2.7,0c0.84,0,1.68,0,2.52,0c0.9,0,1.8,0,2.7,0
	c0.84,0,1.68,0,2.52,0c0.9,0,1.8,0,2.7,0c0.84,0,1.68,0,2.521,0c1.68,0,3.359,0,5.04,0c0-1.73,0-3.47,0-5.21c-1.681,0-3.36,0-5.04,0
	c0-1.75,0-3.48,0-5.22c-2.58,0-5.16,0-7.74,0C135.06,202.5,132.42,202.5,129.78,202.5z"/>
<path fill="#814221" d="M129.78,192.06c0,3.48,0,6.95,0,10.44c2.64,0,5.279,0,7.92,0c2.58,0,5.16,0,7.74,0c0,1.739,0,3.47,0,5.22
	c1.68,0,3.359,0,5.04,0c0-2.58,0-5.16,0-7.75c0-1.25,0-2.51,0-3.771c0-0.659,0-1.319,0-1.979c0-0.3,0-0.6,0-0.91
	c0-0.17,0-0.35,0-0.54c0-0.229,0-0.47,0-0.71c-1.681,0-3.36,0-5.04,0c0,1.74,0,3.48,0,5.21c-3.48,0-6.96,0-10.44,0
	c0-1.729,0-3.47,0-5.21c-0.06,0-0.12,0-0.18,0c-0.42,0-0.84,0-1.261,0c-0.42,0-0.84,0-1.26,0
	C131.46,192.06,130.62,192.06,129.78,192.06z"/>
<path fill="#A06141" d="M129.78,186.84c0,1.74,0,3.47,0,5.22c0.84,0,1.68,0,2.52,0c0.42,0,0.84,0,1.26,0c0.421,0,0.841,0,1.261,0
	c0.06,0,0.12,0,0.18,0c0,1.74,0,3.48,0,5.21c3.48,0,6.96,0,10.44,0c0-1.729,0-3.47,0-5.21c0-2.52,0-5.05,0-7.56
	c0-1.261,0-2.53,0-3.78c0-0.3,0-0.6,0-0.91c0-0.35,0-0.71,0-1.07c0-0.119,0-0.239,0-0.359c0-0.181,0-0.37,0-0.54
	c0-0.37,0-0.72,0-1.08c0-0.061,0-0.12,0-0.18c-0.421,0-0.841,0-1.261,0s-0.84,0-1.26,0c-0.18,0-0.36,0-0.54,0
	c-0.24,0-0.479,0-0.72,0c-0.48,0-0.96,0-1.44,0c-0.42,0-0.84,0-1.26,0s-0.84,0-1.26,0c-0.181,0-0.36,0-0.54,0c-0.24,0-0.48,0-0.72,0
	c-0.48,0-0.96,0-1.44,0c0,1.729,0,3.479,0,5.22c0,1.67,0,3.359,0,5.04C133.26,186.84,131.52,186.84,129.78,186.84z"/>
<path fill="#302F2E" d="M129.78,181.8c0,1.67,0,3.359,0,5.04c1.739,0,3.479,0,5.22,0c0-1.681,0-3.37,0-5.04c0-1.74,0-3.49,0-5.22
	c-0.18,0-0.36,0-0.54,0s-0.36,0-0.54,0s-0.36,0-0.54,0c-0.24,0-0.479,0-0.72,0c-0.18,0-0.36,0-0.54,0s-0.36,0-0.54,0
	c-0.42,0-0.84,0-1.26,0c-0.181,0-0.36,0-0.54,0c0,0.06,0,0.119,0,0.18c0,0.05,0,0.12,0,0.17c0,0.13,0,0.25,0,0.37
	c0,0.24,0,0.47,0,0.71c0,0.42,0,0.84,0,1.26C129.78,180.121,129.78,180.96,129.78,181.8z"/>
<path fill="#814221" d="M129.78,121.861c0,0.899,0,1.799,0,2.699c2.58,0,5.16,0,7.739,0c1.32,0,2.641,0,3.961,0
	c1.319,0,2.64,0,3.96,0c0-1.74,0-3.48,0-5.22c-2.58,0-5.16,0-7.74,0c-2.641,0-5.28,0-7.92,0
	C129.78,120.18,129.78,121.01,129.78,121.861z"/>
<path fill="#302F2E" d="M129.78,114.3c0,1.68,0,3.359,0,5.04c2.64,0,5.279,0,7.92,0c2.58,0,5.16,0,7.74,0c0-1.681,0-3.36,0-5.04
	c-2.58,0-5.16,0-7.74,0C135.06,114.3,132.42,114.3,129.78,114.3z"/>
<path fill="#523822" d="M129.78,103.861c0,3.479,0,6.959,0,10.439c2.64,0,5.279,0,7.92,0c2.58,0,5.16,0,7.74,0
	c0,1.68,0,3.359,0,5.04c0.899,0,1.8,0,2.699,0c0.841,0,1.681,0,2.521,0c1.74,0,3.479,0,5.22,0s3.48,0,5.22,0c1.681,0,3.36,0,5.04,0
	c0,1.739,0,3.479,0,5.22c2.641,0,5.28,0,7.92,0c1.32,0,2.641,0,3.96,0c1.261,0,2.521,0,3.78,0c0-0.48,0-0.96,0-1.439
	c0-0.42,0-0.84,0-1.26c0-0.851,0-1.681,0-2.521c0.84,0,1.681,0,2.521,0s1.68,0,2.52,0c0-1.681,0-3.36,0-5.04c0.36,0,0.72,0,1.08,0
	c0.18,0,0.36,0,0.54,0c0.12,0,0.24,0,0.36,0c0.359,0,0.72,0,1.08,0c0.18,0,0.359,0,0.54,0c0.119,0,0.239,0,0.359,0
	c0.36,0,0.72,0,1.08,0c0.18,0,0.36,0,0.54,0c0.12,0,0.24,0,0.36,0c0.66,0,1.319,0,1.979,0c2.58,0,5.16,0,7.74,0
	c0-1.74,0-3.48,0-5.221c0.18,0,0.36,0,0.54,0c1.56,0,3.12,0,4.68,0c0-1.739,0-3.479,0-5.219c0.181,0,0.36,0,0.54,0
	c1.38,0,2.76,0,4.141,0c0.18,0,0.359,0,0.54,0c0-2.641,0-5.281,0-7.921c0-2.579,0-5.159,0-7.739c1.739,0,3.479,0,5.22,0
	c0-2.58,0-5.16,0-7.74c0-0.36,0-0.721,0-1.08c0-0.18,0-0.37,0-0.54c0-0.12,0-0.24,0-0.36c0-0.359,0-0.72,0-1.08
	c0-0.18,0-0.359,0-0.539c0-0.121,0-0.24,0-0.361c0-1.26,0-2.52,0-3.779c1.68,0,3.359,0,5.04,0c0-1.74,0-3.48,0-5.221
	c0-0.899,0-1.799,0-2.699c0-0.841,0-1.68,0-2.52c0.899,0,1.8,0,2.7,0c0.42,0,0.84,0,1.26,0s0.84,0,1.26,0c0-2.16,0-4.32,0-6.48
	c0-2.16,0-4.32,0-6.48c0-2.16,0-4.32,0-6.48c0-2.16,0-4.33,0-6.48c-0.42,0-0.84,0-1.26,0s-0.84,0-1.26,0s-0.841,0-1.261,0
	c-0.239,0-0.479,0-0.72,0c-0.12,0-0.24,0-0.36,0c-0.06,0-0.119,0-0.18,0c-0.06,0-0.12,0-0.18,0c0-0.18,0-0.36,0-0.54
	c0-0.78,0-1.56,0-2.34c0-0.78,0-1.56,0-2.34c-1.681,0-3.36,0-5.04,0c0-0.18,0-0.36,0-0.54c0-0.78,0-1.56,0-2.34
	c0-0.78,0-1.56,0-2.34c-1.74,0-3.48,0-5.22,0c0-0.18,0-0.36,0-0.54c0-0.42,0-0.84,0-1.26c0-0.18,0-0.36,0-0.54s0-0.36,0-0.54
	c0-0.24,0-0.48,0-0.72c0-0.18,0-0.36,0-0.54c0-0.18,0-0.36,0-0.54c0-0.18,0-0.36,0-0.54c-1.74,0-3.48,0-5.221,0c0-0.9,0-1.8,0-2.7
	c0-0.84,0-1.68,0-2.52c-0.899,0-1.8,0-2.7,0c-0.42,0-0.84,0-1.26,0s-0.84,0-1.26,0c0-0.84,0-1.68,0-2.52c0-0.84,0-1.68,0-2.52
	c-2.58,0-5.16,0-7.74,0c-0.66,0-1.319,0-1.979,0c-0.12,0-0.24,0-0.36,0c-0.18,0-0.36,0-0.54,0c-0.36,0-0.72,0-1.08,0
	c-0.12,0-0.24,0-0.359,0c-0.181,0-0.36,0-0.54,0c-0.36,0-0.721,0-1.08,0c-0.12,0-0.24,0-0.36,0c-0.18,0-0.36,0-0.54,0
	c-0.36,0-0.72,0-1.08,0c0-0.18,0-0.36,0-0.54c0-0.24,0-0.48,0-0.72c0-0.12,0-0.24,0-0.36c0-0.36,0-0.72,0-1.08s0-0.73,0-1.08
	c0-0.18,0-0.36,0-0.54c0-0.12,0-0.24,0-0.36c0-0.18,0-0.36,0-0.54c-1.68,0-3.359,0-5.04,0c-0.42,0-0.84,0-1.26,0s-0.84,0-1.26,0
	s-0.84,0-1.261,0c-0.479,0-0.96,0-1.439,0c-1.68,0-3.36,0-5.04,0c-0.42,0-0.84,0-1.26,0s-0.84,0-1.261,0c-0.42,0-0.84,0-1.26,0
	c-0.24,0-0.479,0-0.72,0c-0.18,0-0.36,0-0.54,0c-0.06,0-0.12,0-0.18,0c-0.061,0-0.12,0-0.181,0c0,1.74,0,3.48,0,5.22
	c-0.18,0-0.359,0-0.54,0c-3.359,0-6.72,0-10.08,0c-3.359,0-6.72,0-10.079,0c0,1.62,0,3.24,0,4.86c0,0.06,0,0.12,0,0.18
	c-0.181,0-0.36,0-0.54,0c-0.42,0-0.841,0-1.261,0s-0.84,0-1.26,0s-0.84,0-1.26,0s-0.84,0-1.26,0c-0.841,0-1.681,0-2.521,0
	c-0.24,0-0.479,0-0.72,0c-0.18,0-0.36,0-0.54,0s-0.36,0-0.54,0s-0.36,0-0.54,0c0,1.74,0,3.48,0,5.22c-1.74,0-3.48,0-5.22,0
	c0,1.74,0,3.48,0,5.22c0,1.74,0,3.48,0,5.22c3.479,0,6.96,0,10.439,0c0-0.84,0-1.68,0-2.52c0-0.42,0-0.84,0-1.26
	c0-0.24,0-0.48,0-0.72c0-0.13,0-0.24,0-0.36c0-0.06,0-0.12,0-0.18s0-0.12,0-0.18c2.16,0,4.32,0,6.48,0s4.319,0,6.479,0
	s4.32,0,6.48,0s4.32,0,6.479,0c0,1.74,0,3.48,0,5.22c1.74,0,3.48,0,5.221,0c0-0.84,0-1.68,0-2.52c0-0.42,0-0.84,0-1.26
	c0-0.42,0-0.85,0-1.26c0-0.06,0-0.12,0-0.18c0.18,0,0.359,0,0.54,0c1.56,0,3.119,0,4.68,0c0-0.91,0-1.8,0-2.7c0-0.84,0-1.68,0-2.52
	c1.74,0,3.479,0,5.22,0c0-0.84,0-1.69,0-2.52c0-0.84,0-1.68,0-2.52c0-0.06,0-0.12,0-0.18c0.181,0,0.36,0,0.54,0
	c0.36,0,0.72,0,1.08,0c0.18,0,0.36,0,0.54,0c0.12,0,0.24,0,0.36,0c0.359,0,0.72,0,1.08,0c0.18,0,0.359,0,0.54,0
	c0.119,0,0.239,0,0.359,0c0.181,0,0.36,0,0.54,0c0,0.9,0,1.8,0,2.7c0,0.83,0,1.68,0,2.52c1.74,0,3.48,0,5.22,0c0,0.18,0,0.36,0,0.54
	c0,1.68,0,3.36,0,5.04c0,1.62,0,3.23,0,4.86c0,1.68,0,3.36,0,5.04c0,1.62,0,3.24,0,4.86c0,0.18,0,0.36,0,0.54c1.74,0,3.48,0,5.221,0
	c0.899,0,1.8,0,2.7,0c0.84,0,1.68,0,2.52,0c0,1.68,0,3.36,0,5.04c1.74,0,3.48,0,5.22,0c0,0.18,0,0.36,0,0.54c0,1.56,0,3.12,0,4.68
	c0,0.24,0,0.48,0,0.72c0,0.18,0,0.36,0,0.54c0,0.36,0,0.72,0,1.08c0,0.24,0,0.48,0,0.72c0,0.18,0,0.36,0,0.54c0,0.36,0,0.72,0,1.07
	c0,0.19,0,0.37,0,0.55c-1.739,0-3.479,0-5.22,0c0,1.74,0,3.48,0,5.22c-0.18,0-0.36,0-0.54,0c-1.68,0-3.36,0-5.04,0
	c-1.62,0-3.24,0-4.86,0c0,0.9,0,1.8,0,2.7c0,0.84,0,1.68,0,2.52c0,0.9,0,1.801,0,2.701c0,0.84,0,1.68,0,2.52c-0.899,0-1.8,0-2.699,0
	c-0.841,0-1.681,0-2.521,0c0,0.9,0,1.79,0,2.699c0,0.841,0,1.681,0,2.521c-0.42,0-0.84,0-1.26,0s-0.84,0-1.26,0
	c-0.84,0-1.681,0-2.521,0c0,0.841,0,1.681,0,2.521c0,0.42,0,0.84,0,1.26c0,0.18,0,0.359,0,0.54c0,0.239,0,0.479,0,0.72
	c-0.18,0-0.359,0-0.54,0c-0.24,0-0.479,0-0.72,0c-0.18,0-0.36,0-0.54,0s-0.36,0-0.54,0s-0.36,0-0.54,0c-0.42,0-0.84,0-1.26,0
	c-0.36,0-0.72,0-1.08,0c0,0.84,0,1.68,0,2.52c0,0.841,0,1.681,0,2.511c0,0.069,0,0.13,0,0.19c-0.18,0-0.36,0-0.54,0
	c-1.56,0-3.12,0-4.68,0c0,1.739,0,3.479,0,5.219c-0.181,0-0.36,0-0.54,0c-1.561,0-3.12,0-4.681,0c0,1.74,0,3.48,0,5.221
	c-0.18,0-0.359,0-0.54,0c-3.3,0-6.6,0-9.899,0c0,1.74,0,3.48,0,5.221c-2.16,0-4.32,0-6.48,0s-4.319,0-6.479,0s-4.32,0-6.48,0
	S131.94,103.861,129.78,103.861z"/>
<path fill="#CDB055" d="M129.78,93.419c0,1.74,0,3.48,0,5.221c1.739,0,3.479,0,5.22,0c0-1.74,0-3.48,0-5.221c-0.18,0-0.36,0-0.54,0
	c-0.66,0-1.32,0-1.979,0c-0.721,0-1.44,0-2.16,0C130.14,93.419,129.96,93.419,129.78,93.419z"/>
<path fill="#302F2E" d="M129.78,18.18c0,0.83,0,1.68,0,2.52c1.739,0,3.479,0,5.22,0c0-1.74,0-3.48,0-5.22c-0.18,0-0.36,0-0.54,0
	s-0.36,0-0.54,0s-0.36,0-0.54,0c-0.24,0-0.479,0-0.72,0c-0.18,0-0.36,0-0.54,0s-0.36,0-0.54,0c-0.42,0-0.84,0-1.26,0
	c-0.181,0-0.36,0-0.54,0c0,0.06,0,0.12,0,0.18s0,0.12,0,0.18c0,0.12,0,0.24,0,0.36c0,0.24,0,0.48,0,0.72
	C129.78,17.34,129.78,17.76,129.78,18.18z"/>
<path fill="#302F2E" d="M135,173.88c0,0.9,0,1.8,0,2.7c0.48,0,0.96,0,1.44,0c0.239,0,0.479,0,0.72,0c0.18,0,0.359,0,0.54,0
	c0.42,0,0.84,0,1.26,0s0.84,0,1.26,0c0.48,0,0.96,0,1.44,0c0.24,0,0.479,0,0.72,0c0.18,0,0.36,0,0.54,0c0.42,0,0.84,0,1.26,0
	s0.84,0,1.261,0c0-2.581,0-5.161,0-7.74c0-0.12,0-0.24,0-0.36c0-0.18,0-0.359,0-0.54c0-0.36,0-0.72,0-1.079c0-0.121,0-0.24,0-0.361
	c0-0.18,0-0.359,0-0.539c0-0.36,0-0.721,0-1.08c0-0.12,0-0.24,0-0.36c0-0.18,0-0.36,0-0.54c0-0.359,0-0.72,0-1.08
	c0-0.119,0-0.24,0-0.359c0-0.18,0-0.36,0-0.541c0-0.359,0-0.719,0-1.08c-0.36,0-0.721,0-1.08,0c-0.42,0-0.841,0-1.261,0
	c-0.359,0-0.72,0-1.08,0c-0.18,0-0.359,0-0.539,0c-0.24,0-0.48,0-0.721,0c-0.18,0-0.359,0-0.54,0c0,0.061,0,0.121,0,0.181
	s0,0.12,0,0.181c0,0.119,0,0.229,0,0.359c0,0.24,0,0.48,0,0.721c0,0.42,0,0.84,0,1.26c0,0.84,0,1.68,0,2.52s0,1.68,0,2.52
	c0,0.9,0,1.801,0,2.701c-0.42,0-0.84,0-1.26,0c-0.18,0-0.36,0-0.54,0c-0.24,0-0.479,0-0.72,0c-0.42,0-0.84,0-1.26,0
	c-0.48,0-0.96,0-1.44,0c0,0.42,0,0.84,0,1.26S135,173.46,135,173.88z"/>
<path fill="#814221" d="M135,87.66c0,0.181,0,0.351,0,0.541c1.68,0,3.36,0,5.04,0c0.06,0,0.12,0,0.18,0c0,0.18,0,0.359,0,0.539
	c0,3.121,0,6.24,0,9.36c0,0.181,0,0.36,0,0.54c2.58,0,5.16,0,7.74,0s5.16,0,7.74,0c0-1.74,0-3.48,0-5.221c0.18,0,0.359,0,0.54,0
	c3.3,0,6.6,0,9.899,0c0-1.739,0-3.479,0-5.219c0.181,0,0.36,0,0.54,0c1.561,0,3.12,0,4.681,0c0-1.74,0-3.48,0-5.221
	c0.479,0,0.96,0,1.439,0c0.42,0,0.84,0,1.26,0c0.841,0,1.681,0,2.521,0c0-1.619,0-3.24,0-4.859c0-0.061,0-0.121,0-0.181
	c0.18,0,0.36,0,0.54,0c0.42,0,0.84,0,1.26,0c0.18,0,0.36,0,0.54,0s0.36,0,0.54,0c0.24,0,0.48,0,0.72,0c0.181,0,0.36,0,0.54,0
	c0.181,0,0.36,0,0.54,0c0.181,0,0.36,0,0.54,0c0-0.479,0-0.96,0-1.44c0-0.42,0-0.84,0-1.26c0-0.84,0-1.68,0-2.52
	c0.84,0,1.681,0,2.521,0s1.68,0,2.52,0c0-0.9,0-1.801,0-2.71c0-0.83,0-1.67,0-2.511c0-0.899,0-1.799,0-2.699c0-0.841,0-1.68,0-2.52
	c1.74,0,3.48,0,5.22,0c0-0.84,0-1.68,0-2.52c0-0.42,0-0.84,0-1.26c0-0.24,0-0.49,0-0.72c0-0.12,0-0.24,0-0.36c0-0.06,0-0.12,0-0.18
	s0-0.12,0-0.18c0.181,0,0.36,0,0.54,0c1.681,0,3.36,0,5.04,0c1.62,0,3.24,0,4.86,0c0-1.68,0-3.36,0-5.05c0-0.41,0-0.83,0-1.25
	s0-0.84,0-1.26s0-0.84,0-1.26c0-0.24,0-0.48,0-0.73c0-0.23,0-0.47,0-0.71c0-0.06,0-0.12,0-0.18c-2.58,0-5.16,0-7.74,0
	c-0.66,0-1.319,0-1.979,0c-0.12,0-0.24,0-0.36,0c-0.18,0-0.36,0-0.54,0c-0.36,0-0.72,0-1.08,0c-0.12,0-0.24,0-0.359,0
	c-0.181,0-0.36,0-0.54,0c-0.36,0-0.721,0-1.08,0c-0.12,0-0.24,0-0.36,0c-0.18,0-0.36,0-0.54,0c-0.36,0-0.72,0-1.08,0
	c0,0.84,0,1.68,0,2.52c0,0.9,0,1.8,0,2.7c-0.84,0-1.68,0-2.52,0s-1.681,0-2.521,0c0,0.84,0,1.67,0,2.52c0,0.84,0,1.68,0,2.52
	c0,0.06,0,0.12,0,0.18c-0.18,0-0.359,0-0.54,0c-0.42,0-0.84,0-1.26,0c-0.18,0-0.36,0-0.54,0s-0.36,0-0.54,0c-0.24,0-0.479,0-0.72,0
	c-0.181,0-0.36,0-0.54,0c-0.36,0-0.72,0-1.08,0c-1.74,0-3.48,0-5.22,0c0-0.18,0-0.36,0-0.55c0-0.65,0-1.31,0-1.97
	c0-0.72,0-1.44,0-2.16c0-0.18,0-0.37,0-0.54c-1.74,0-3.48,0-5.221,0c0,1.74,0,3.48,0,5.22c0,0.9,0,1.8,0,2.7c0,0.84,0,1.68,0,2.52
	c0,0.9,0,1.8,0,2.7c0,0.84,0,1.68,0,2.52c-1.739,0-3.479,0-5.22,0c0,1.74,0,3.48,0,5.221c-2.58,0-5.16,0-7.74,0s-5.16,0-7.739,0
	c0,0.9,0,1.79,0,2.699c0,0.841,0,1.681,0,2.521c-0.9,0-1.801,0-2.7,0c-0.84,0-1.681,0-2.521,0c0,0.841,0,1.681,0,2.521
	c0,0.42,0,0.84,0,1.26c0,0.18,0,0.359,0,0.54c0,0.12,0,0.239,0,0.36c0,0.06,0,0.119,0,0.18s0,0.119,0,0.18c-0.18,0-0.359,0-0.54,0
	c-0.239,0-0.479,0-0.72,0c-0.18,0-0.36,0-0.54,0c-0.36,0-0.72,0-1.08,0c-0.42,0-0.84,0-1.26,0c-0.36,0-0.72,0-1.08,0
	c0,0.42,0,0.84,0,1.26c0,0.18,0,0.36,0,0.541c0,0.18,0,0.359,0,0.539c0,0.24,0,0.48,0,0.721c0,0.18,0,0.359,0,0.539
	c0,0.181,0,0.36,0,0.541C135,87.3,135,87.48,135,87.66z"/>
<path fill="#302F2E" d="M135,12.96c0,0.84,0,1.68,0,2.52c0.18,0,0.36,0,0.54,0s0.36,0,0.54,0s0.36,0,0.54,0c0.24,0,0.479,0,0.72,0
	c0.84,0,1.68,0,2.521,0c0.42,0,0.84,0,1.26,0s0.84,0,1.26,0s0.84,0,1.26,0s0.841,0,1.261,0c0.18,0,0.359,0,0.54,0
	c0-0.06,0-0.12,0-0.18c0-1.62,0-3.24,0-4.86c-3.48,0-6.96,0-10.44,0C135,11.28,135,12.12,135,12.96z"/>
<path fill="#302F2E" d="M140.22,155.16c0,0.181,0,0.36,0,0.541c0.24,0,0.48,0,0.721,0c0.239,0,0.479,0,0.72,0c0.18,0,0.359,0,0.54,0
	c0.24,0,0.479,0,0.72,0c0.84,0,1.68,0,2.521,0c0-0.9,0-1.801,0-2.701c0-0.84,0-1.68,0-2.52c0-1.68,0-3.359,0-5.04
	c-0.421,0-0.841,0-1.261,0s-0.84,0-1.26,0s-0.84,0-1.26,0c-0.48,0-0.96,0-1.44,0c0,1.62,0,3.24,0,4.86
	C140.22,151.919,140.22,153.541,140.22,155.16z"/>
<path fill="#814221" d="M140.22,142.74c0,0.9,0,1.801,0,2.7c0.48,0,0.96,0,1.44,0c0.42,0,0.84,0,1.26,0s0.84,0,1.26,0
	s0.84,0,1.261,0c0-1.739,0-3.479,0-5.22s0-3.48,0-5.221c-0.841,0-1.681,0-2.521,0c-0.9,0-1.8,0-2.7,0c0,0.841,0,1.681,0,2.521
	c0,0.899,0,1.8,0,2.7C140.22,141.06,140.22,141.9,140.22,142.74z"/>
<path fill="#302F2E" d="M140.22,66.96c0,0.18,0,0.359,0,0.539c1.74,0,3.48,0,5.221,0c0-1.739,0-3.479,0-5.219
	c-0.841,0-1.681,0-2.521,0c-0.9,0-1.8,0-2.7,0c0,0.78,0,1.56,0,2.339C140.22,65.4,140.22,66.18,140.22,66.96z"/>
<path fill="#814221" d="M140.22,46.62c0,1.74,0,3.48,0,5.22c1.561,0,3.12,0,4.681,0c0.18,0,0.359,0,0.54,0c0-1.56,0-3.12,0-4.68
	c0-0.18,0-0.36,0-0.54c-1.561,0-3.12,0-4.681,0C140.58,46.62,140.4,46.62,140.22,46.62z"/>
<path fill="#814221" d="M140.22,33.66c0,0.9,0,1.8,0,2.7c2.16,0,4.32,0,6.48,0s4.319,0,6.479,0s4.32,0,6.48,0s4.32,0,6.479,0
	c0-1.74,0-3.48,0-5.22c-4.26,0-8.52,0-12.779,0c-2.16,0-4.32,0-6.48,0c-1.08,0-2.16,0-3.24,0c-0.239,0-0.479,0-0.72,0
	c-0.12,0-0.24,0-0.36,0c-0.18,0-0.359,0-0.54,0c-0.239,0-0.479,0-0.72,0c-0.12,0-0.24,0-0.359,0c-0.24,0-0.48,0-0.721,0
	C140.22,31.98,140.22,32.82,140.22,33.66z"/>
<path fill="#302F2E" d="M140.22,28.62c0,0.84,0,1.68,0,2.52c0.24,0,0.48,0,0.721,0c0.119,0,0.239,0,0.359,0c0.24,0,0.48,0,0.72,0
	c0.181,0,0.36,0,0.54,0c0.12,0,0.24,0,0.36,0c0.24,0,0.48,0,0.72,0c1.08,0,2.16,0,3.24,0c2.16,0,4.32,0,6.48,0
	c4.26,0,8.52,0,12.779,0c0-1.74,0-3.48,0-5.22c-2.159,0-4.319,0-6.479,0s-4.32,0-6.48,0s-4.319,0-6.479,0s-4.32,0-6.48,0
	c0,0.06,0,0.12,0,0.18s0,0.12,0,0.18c0,0.12,0,0.23,0,0.36c0,0.24,0,0.48,0,0.72C140.22,27.78,140.22,28.2,140.22,28.62z"/>
<path fill="#302F2E" d="M145.44,184.5c0,2.51,0,5.04,0,7.56c1.68,0,3.359,0,5.04,0c0-2.59,0-5.17,0-7.75c0-1.25,0-2.51,0-3.77
	c0-0.301,0-0.61,0-0.9c0-0.37,0-0.72,0-1.08c0-0.13,0-0.25,0-0.36c0-0.189,0-0.359,0-0.54c0-0.359,0-0.729,0-1.079
	c-1.681,0-3.36,0-5.04,0c0,0.06,0,0.119,0,0.18c0,0.36,0,0.71,0,1.08c0,0.17,0,0.359,0,0.54c0,0.12,0,0.24,0,0.359
	c0,0.36,0,0.721,0,1.07c0,0.311,0,0.61,0,0.91C145.44,181.97,145.44,183.24,145.44,184.5z"/>
<path fill="#523822" d="M145.44,168.84c0,2.579,0,5.159,0,7.74c1.68,0,3.359,0,5.04,0c0,0.35,0,0.72,0,1.079c0,0.181,0,0.351,0,0.54
	c0,0.11,0,0.23,0,0.36c0,0.36,0,0.71,0,1.08c0,0.29,0,0.6,0,0.9c0,1.26,0,2.52,0,3.77c0,2.58,0,5.16,0,7.75c1.739,0,3.479,0,5.22,0
	c0,0.18,0,0.36,0,0.54c0,3.12,0,6.24,0,9.36c0,0.18,0,0.35,0,0.54c6.96,0,13.92,0,20.88,0c1.74,0,3.479,0,5.22,0c0.9,0,1.8,0,2.7,0
	c0.84,0,1.68,0,2.52,0c1.74,0,3.48,0,5.221,0c1.68,0,3.359,0,5.04,0c0-1.74,0-3.49,0-5.23c0.18,0,0.359,0,0.54,0
	c1.56,0,3.12,0,4.68,0s3.12,0,4.68,0c0.181,0,0.36,0,0.54,0c0-3.47,0-6.96,0-10.43c-1.739,0-3.479,0-5.22,0c0-1.681,0-3.37,0-5.04
	c-1.74,0-3.48,0-5.22,0c0-0.18,0-0.37,0-0.54c0-0.37,0-0.72,0-1.08c0-0.37,0-0.72,0-1.08s0-0.72,0-1.09c0-0.17,0-0.351,0-0.54
	c0-0.12,0-0.23,0-0.35c0-0.19,0-0.36,0-0.54c0.479,0,0.96,0,1.439,0c0.24,0,0.48,0,0.721,0c0.18,0,0.359,0,0.54,0
	c0.42,0,0.84,0,1.26,0s0.84,0,1.26,0c0-2.581,0-5.161,0-7.74c0-0.12,0-0.24,0-0.36c0-0.18,0-0.359,0-0.54c0-0.18,0-0.36,0-0.54
	s0-0.359,0-0.539c0-0.121,0-0.24,0-0.361c0-0.18,0-0.359,0-0.539s0-0.36,0-0.541c0-0.18,0-0.359,0-0.539c0-0.12,0-0.24,0-0.36
	c0-0.18,0-0.36,0-0.54s0-0.359,0-0.54c0-0.18,0-0.36,0-0.54c0-0.119,0-0.24,0-0.359c0-0.18,0-0.36,0-0.541c0-0.18,0-0.359,0-0.539
	s0-0.36,0-0.541c0.84,0,1.68,0,2.52,0c0.9,0,1.801,0,2.7,0c0-0.18,0-0.359,0-0.539c0-0.12,0-0.24,0-0.36c0-0.18,0-0.36,0-0.54
	c0-0.359,0-0.72,0-1.08c0-0.72,0-1.439,0-2.16c0-0.18,0-0.359,0-0.539c-0.06,0-0.12,0-0.18,0c-0.42,0-0.84,0-1.26,0
	c-0.181,0-0.36,0-0.54,0c-0.24,0-0.48,0-0.721,0c-0.84,0-1.68,0-2.52,0s-1.68,0-2.52,0c-0.9,0-1.801,0-2.7,0
	c0,1.739,0,3.479,0,5.219c-0.181,0-0.36,0-0.54,0c-1.681,0-3.36,0-5.04,0c-1.62,0-3.24,0-4.86,0s-3.24,0-4.859,0
	c-1.62,0-3.24,0-4.86,0c-0.18,0-0.36,0-0.54,0c0-0.899,0-1.799,0-2.699c0-0.84,0-1.68,0-2.52c-0.84,0-1.68,0-2.521,0
	c-0.899,0-1.8,0-2.699,0c-0.841,0-1.681,0-2.521,0c-0.899,0-1.8,0-2.7,0c-0.84,0-1.68,0-2.52,0c-0.9,0-1.8,0-2.7,0
	c-0.84,0-1.68,0-2.52,0c-0.9,0-1.801,0-2.7,0c0,1.739,0,3.479,0,5.219c-0.181,0-0.36,0-0.54,0c-1.62,0-3.24,0-4.86,0
	s-3.24,0-4.859,0c0,0.361,0,0.721,0,1.08c0,0.181,0,0.361,0,0.541c0,0.119,0,0.24,0,0.359c0,0.36,0,0.721,0,1.08
	c0,0.18,0,0.36,0,0.54c0,0.12,0,0.24,0,0.36c0,0.359,0,0.72,0,1.08c0,0.18,0,0.359,0,0.539c0,0.121,0,0.24,0,0.361
	c0,0.359,0,0.719,0,1.079c0,0.181,0,0.36,0,0.54C145.44,168.6,145.44,168.72,145.44,168.84z"/>
<path fill="#302F2E" d="M145.44,158.22c0,0.9,0,1.8,0,2.699c1.619,0,3.239,0,4.859,0s3.24,0,4.86,0c0.18,0,0.359,0,0.54,0
	c0-1.739,0-3.479,0-5.219c-0.84,0-1.681,0-2.521,0c-0.18,0-0.359,0-0.54,0c-0.239,0-0.479,0-0.72,0c-0.479,0-0.96,0-1.439,0
	c-1.681,0-3.36,0-5.04,0C145.44,156.541,145.44,157.38,145.44,158.22z"/>
<path fill="#814221" d="M145.44,153c0,0.9,0,1.801,0,2.701c1.68,0,3.359,0,5.04,0c0-1.74,0-3.48,0-5.221c-1.681,0-3.36,0-5.04,0
	C145.44,151.32,145.44,152.16,145.44,153z"/>
<path fill="#A06141" d="M145.44,145.44c0,1.681,0,3.36,0,5.04c1.68,0,3.359,0,5.04,0c0-1.68,0-3.359,0-5.04c0.84,0,1.68,0,2.52,0
	c0.9,0,1.8,0,2.7,0c0-0.18,0-0.36,0-0.54c0-1.39,0-2.76,0-4.14c0-0.181,0-0.36,0-0.54c-1.74,0-3.48,0-5.22,0c0-1.74,0-3.48,0-5.221
	c-1.681,0-3.36,0-5.04,0c0,1.74,0,3.48,0,5.221S145.44,143.701,145.44,145.44z"/>
<path fill="#814221" d="M145.44,127.08c0,0.9,0,1.801,0,2.701c0.84,0,1.68,0,2.52,0s1.68,0,2.521,0c1.739,0,3.479,0,5.22,0
	s3.479,0,5.22,0s3.48,0,5.22,0c0-1.74,0-3.48,0-5.221c-1.68,0-3.359,0-5.04,0c-1.739,0-3.479,0-5.22,0s-3.479,0-5.22,0
	c-0.84,0-1.68,0-2.521,0c-0.899,0-1.8,0-2.699,0C145.44,125.4,145.44,126.24,145.44,127.08z"/>
<path fill="#302F2E" d="M145.44,119.34c0,1.739,0,3.479,0,5.22c0.899,0,1.8,0,2.699,0c0.841,0,1.681,0,2.521,0
	c1.74,0,3.479,0,5.22,0s3.48,0,5.22,0c1.681,0,3.36,0,5.04,0c0-1.74,0-3.48,0-5.22c-1.68,0-3.359,0-5.04,0c-1.739,0-3.479,0-5.22,0
	s-3.479,0-5.22,0c-0.84,0-1.68,0-2.521,0C147.24,119.34,146.34,119.34,145.44,119.34z"/>
<path fill="#302F2E" d="M145.44,67.5c0,1.74,0,3.48,0,5.221c2.579,0,5.159,0,7.739,0s5.16,0,7.74,0c0-1.74,0-3.48,0-5.221
	c-1.74,0-3.479,0-5.22,0c-1.681,0-3.36,0-5.04,0c-0.84,0-1.68,0-2.521,0C147.24,67.5,146.34,67.5,145.44,67.5z"/>
<path fill="#FFFFFF" d="M145.44,62.28c0,1.74,0,3.48,0,5.219c0.899,0,1.8,0,2.699,0c0.841,0,1.681,0,2.521,0c1.68,0,3.359,0,5.04,0
	c0-1.739,0-3.479,0-5.219c-1.74,0-3.48,0-5.22,0C148.8,62.28,147.12,62.28,145.44,62.28z"/>
<path fill="#814221" d="M145.44,57.06c0,1.74,0,3.48,0,5.22c1.68,0,3.359,0,5.04,0c0-1.74,0-3.48,0-5.22
	C148.8,57.06,147.12,57.06,145.44,57.06z"/>
<path fill="#302F2E" d="M145.44,7.92c0,0.84,0,1.68,0,2.52c3.359,0,6.72,0,10.079,0c3.36,0,6.721,0,10.08,0c0.181,0,0.36,0,0.54,0
	c0-1.74,0-3.48,0-5.22c-1.68,0-3.359,0-5.04,0c-1.68,0-3.359,0-5.04,0c-3.359,0-6.72,0-10.079,0c-0.181,0-0.36,0-0.54,0
	c0,0.06,0,0.12,0,0.18c0,0.42,0,0.84,0,1.26S145.44,7.5,145.44,7.92z"/>
<path fill="#302F2E" d="M150.48,199.97c0,2.59,0,5.17,0,7.75c1.979,0,3.96,0,5.939,0c1.92,0,3.84,0,5.76,0c1.98,0,3.96,0,5.94,0
	c1.92,0,3.84,0,5.76,0c0.54,0,1.08,0,1.62,0c0.48,0,0.96,0,1.44,0c0.96,0,1.92,0,2.88,0c1.92,0,3.84,0,5.76,0c0.54,0,1.08,0,1.62,0
	c0.479,0,0.96,0,1.439,0c0.96,0,1.92,0,2.88,0c1.921,0,3.841,0,5.761,0c0-1.75,0-3.48,0-5.22c-1.681,0-3.36,0-5.04,0
	c-1.74,0-3.48,0-5.221,0c-0.84,0-1.68,0-2.52,0c-0.9,0-1.8,0-2.7,0c-1.74,0-3.479,0-5.22,0c-6.96,0-13.92,0-20.88,0
	c0-0.19,0-0.36,0-0.54c0-3.12,0-6.24,0-9.36c0-0.18,0-0.36,0-0.54c-1.74,0-3.48,0-5.22,0c0,0.24,0,0.48,0,0.71c0,0.19,0,0.37,0,0.54
	c0,0.311,0,0.61,0,0.91c0,0.66,0,1.32,0,1.979C150.48,197.46,150.48,198.72,150.48,199.97z"/>
<path fill="#A06141" d="M150.48,150.48c0,1.74,0,3.48,0,5.221c0.479,0,0.96,0,1.439,0c0.24,0,0.48,0,0.72,0c0.181,0,0.36,0,0.54,0
	c0.84,0,1.681,0,2.521,0c0-1.74,0-3.48,0-5.221c-0.84,0-1.681,0-2.521,0c-0.42,0-0.84,0-1.26,0
	C151.44,150.48,150.96,150.48,150.48,150.48z"/>
<path fill="#814221" d="M150.48,145.44c0,1.681,0,3.36,0,5.04c0.479,0,0.96,0,1.439,0c0.42,0,0.84,0,1.26,0c0.84,0,1.681,0,2.521,0
	c0.899,0,1.8,0,2.7,0c0.84,0,1.68,0,2.52,0c0.9,0,1.8,0,2.7,0c0.84,0,1.68,0,2.52,0c0.9,0,1.801,0,2.7,0c0.84,0,1.68,0,2.521,0
	c0.899,0,1.8,0,2.699,0c0.841,0,1.681,0,2.521,0c0-1.68,0-3.359,0-5.04c-0.9,0-1.8,0-2.7,0c-0.84,0-1.68,0-2.52,0
	c0-0.899,0-1.8,0-2.7c0-0.84,0-1.68,0-2.52c-3.48,0-6.96,0-10.44,0c0-1.74,0-3.48,0-5.221c-3.479,0-6.96,0-10.439,0
	c0,1.74,0,3.48,0,5.221c1.739,0,3.479,0,5.22,0c0,0.18,0,0.359,0,0.54c0,1.38,0,2.75,0,4.14c0,0.18,0,0.36,0,0.54
	c-0.9,0-1.8,0-2.7,0C152.16,145.44,151.32,145.44,150.48,145.44z"/>
<path fill="#302F2E" d="M150.48,57.06c0,1.74,0,3.48,0,5.22c1.739,0,3.479,0,5.22,0c0,1.74,0,3.48,0,5.219c1.74,0,3.479,0,5.22,0
	c0-0.84,0-1.68,0-2.52c0-0.899,0-1.8,0-2.7c0-0.84,0-1.68,0-2.52c0-0.9,0-1.8,0-2.7C157.44,57.06,153.96,57.06,150.48,57.06z"/>
<path fill="#814221" d="M150.48,51.84c0,1.74,0,3.48,0,5.22c3.479,0,6.96,0,10.439,0c0-1.74,0-3.48,0-5.22c-3.3,0-6.6,0-9.9,0
	C150.84,51.84,150.66,51.84,150.48,51.84z"/>
<path fill="#302F2E" d="M155.7,150.48c0,1.74,0,3.48,0,5.221c0.899,0,1.8,0,2.7,0c0.84,0,1.68,0,2.52,0c0.9,0,1.8,0,2.7,0
	c0.84,0,1.68,0,2.52,0c0.9,0,1.801,0,2.7,0c0.84,0,1.68,0,2.521,0c0.899,0,1.8,0,2.699,0c0.841,0,1.681,0,2.521,0
	c0-1.74,0-3.48,0-5.221c-0.84,0-1.68,0-2.521,0c-0.899,0-1.8,0-2.699,0c-0.841,0-1.681,0-2.521,0c-0.899,0-1.8,0-2.7,0
	c-0.84,0-1.68,0-2.52,0c-0.9,0-1.8,0-2.7,0c-0.84,0-1.68,0-2.52,0C157.5,150.48,156.6,150.48,155.7,150.48z"/>
<path fill="#302F2E" d="M155.7,93.419c0,1.74,0,3.48,0,5.221c3.3,0,6.6,0,9.899,0c0.181,0,0.36,0,0.54,0c0-1.74,0-3.48,0-5.221
	c-3.3,0-6.6,0-9.899,0C156.06,93.419,155.88,93.419,155.7,93.419z"/>
<path fill="#302F2E" d="M160.92,64.98c0,0.84,0,1.68,0,2.52c1.74,0,3.48,0,5.22,0c0-0.84,0-1.68,0-2.52c0-0.899,0-1.8,0-2.7
	c0-0.84,0-1.68,0-2.52c0-0.9,0-1.8,0-2.7c-1.739,0-3.479,0-5.22,0c0,0.9,0,1.8,0,2.7c0,0.84,0,1.68,0,2.52
	C160.92,63.18,160.92,64.081,160.92,64.98z"/>
<path fill="#A06141" d="M160.92,51.84c0,1.74,0,3.48,0,5.22c1.74,0,3.48,0,5.22,0c0-1.74,0-3.48,0-5.22
	C164.4,51.84,162.66,51.84,160.92,51.84z"/>
<path fill="#814221" d="M160.92,46.62c0,1.74,0,3.48,0,5.22c1.74,0,3.48,0,5.22,0c0-1.74,0-3.48,0-5.22
	C164.4,46.62,162.66,46.62,160.92,46.62z"/>
<path fill="#814221" d="M166.14,132.3c0,0.9,0,1.8,0,2.699c2.58,0,5.16,0,7.74,0c0.3,0,0.601,0,0.9,0c0.359,0,0.72,0,1.08,0
	c0.3,0,0.6,0,0.899,0c0.36,0,0.721,0,1.08,0c0.12,0,0.24,0,0.36,0c0.18,0,0.359,0,0.54,0c0.359,0,0.72,0,1.08,0
	c0.12,0,0.239,0,0.359,0c0.181,0,0.36,0,0.54,0c0.36,0,0.721,0,1.08,0c0,0.841,0,1.681,0,2.521c0,0.42,0,0.841,0,1.261
	c0,0.479,0,0.959,0,1.439c1.681,0,3.36,0,5.04,0c0.84,0,1.68,0,2.521,0c0.899,0,1.8,0,2.699,0c0.841,0,1.681,0,2.521,0
	c0.9,0,1.8,0,2.7,0c0.84,0,1.68,0,2.52,0c0.9,0,1.8,0,2.7,0c0,0.42,0,0.84,0,1.26s0,0.84,0,1.26c0,0.9,0,1.801,0,2.7
	c0.18,0,0.36,0,0.54,0c0.78,0,1.56,0,2.34,0s1.561,0,2.34,0c0.78,0,1.561,0,2.34,0c0.78,0,1.561,0,2.341,0c0.18,0,0.359,0,0.54,0
	c0-0.06,0-0.12,0-0.18s0-0.12,0-0.181c0-0.119,0-0.239,0-0.359c0-0.24,0-0.48,0-0.721c0-0.42,0-0.84,0-1.26c0-0.84,0-1.68,0-2.52
	c0-1.74,0-3.48,0-5.221c-2.16,0-4.32,0-6.48,0s-4.32,0-6.479,0c-2.16,0-4.32,0-6.48,0c-2.22,0-4.44,0-6.66,0c0-0.84,0-1.68,0-2.52
	c0-0.9,0-1.8,0-2.699c-1.68,0-3.359,0-5.04,0c-1.74,0-3.479,0-5.22,0s-3.48,0-5.22,0c-1.74,0-3.48,0-5.221,0
	C166.14,130.621,166.14,131.46,166.14,132.3z"/>
<path fill="#302F2E" d="M166.14,124.56c0,1.74,0,3.48,0,5.221c1.74,0,3.48,0,5.221,0c1.739,0,3.479,0,5.22,0s3.479,0,5.22,0
	c1.681,0,3.36,0,5.04,0c0-0.48,0-0.961,0-1.44c0-0.421,0-0.841,0-1.261c0-0.84,0-1.68,0-2.52s0-1.68,0-2.52c0-0.42,0-0.84,0-1.26
	c0-0.48,0-0.961,0-1.44c-0.84,0-1.68,0-2.52,0s-1.681,0-2.521,0c0,0.84,0,1.67,0,2.521c0,0.42,0,0.84,0,1.26
	c0,0.479,0,0.959,0,1.439c-1.26,0-2.52,0-3.78,0c-1.319,0-2.64,0-3.96,0C171.42,124.56,168.78,124.56,166.14,124.56z"/>
<path fill="#302F2E" d="M166.14,88.201c0,1.739,0,3.479,0,5.219c1.561,0,3.12,0,4.681,0c0.18,0,0.359,0,0.54,0
	c0-1.739,0-3.479,0-5.219c-1.561,0-3.12,0-4.681,0C166.5,88.201,166.32,88.201,166.14,88.201z"/>
<path fill="#FFFFFF" d="M166.14,46.62c0,1.74,0,3.48,0,5.22c1.74,0,3.48,0,5.221,0c0,0.17,0,0.36,0,0.54c0,0.72,0,1.44,0,2.16
	c0,0.66,0,1.32,0,1.97c0,0.19,0,0.37,0,0.55c1.739,0,3.479,0,5.22,0c0-1.74,0-3.48,0-5.22c0.18,0,0.36,0,0.54,0
	c0.42,0,0.84,0,1.26,0c0.18,0,0.36,0,0.54,0s0.36,0,0.54,0c0.24,0,0.48,0,0.72,0c0.181,0,0.36,0,0.54,0c0.181,0,0.36,0,0.54,0
	c0.181,0,0.36,0,0.54,0c0-2.16,0-4.33,0-6.48c0-2.16,0-4.32,0-6.48c0-2.16,0-4.32,0-6.48c0-1.08,0-2.16,0-3.24s0-2.16,0-3.24
	c-1.74,0-3.479,0-5.22,0c0,0.36,0,0.72,0,1.08c0,0.18,0,0.36,0,0.54c0,0.12,0,0.24,0,0.36c0,0.36,0,0.72,0,1.08
	c0,0.18,0,0.36,0,0.53c0,0.13,0,0.25,0,0.37c0,1.32,0,2.63,0,3.96c0,2.58,0,5.16,0,7.74c-1.74,0-3.48,0-5.22,0c0,1.68,0,3.36,0,5.04
	c-0.181,0-0.36,0-0.54,0C169.26,46.62,167.7,46.62,166.14,46.62z"/>
<path fill="#302F2E" d="M166.14,41.58c0,1.68,0,3.36,0,5.04c1.561,0,3.12,0,4.681,0c0.18,0,0.359,0,0.54,0c0-1.68,0-3.36,0-5.04
	C169.62,41.58,167.88,41.58,166.14,41.58z"/>
<path fill="#814221" d="M166.14,36.54c0,1.68,0,3.36,0,5.04c1.74,0,3.48,0,5.221,0c0-0.84,0-1.68,0-2.52c0-0.9,0-1.8,0-2.7
	c-0.841,0-1.681,0-2.521,0c-0.899,0-1.8,0-2.7,0C166.14,36.42,166.14,36.48,166.14,36.54z"/>
<path fill="#302F2E" d="M166.14,31.14c0,1.74,0,3.48,0,5.22c0.9,0,1.801,0,2.7,0c0.84,0,1.68,0,2.521,0c0,0.9,0,1.8,0,2.7
	c0,0.84,0,1.68,0,2.52c1.739,0,3.479,0,5.22,0c0-2.58,0-5.16,0-7.74c0-1.33,0-2.64,0-3.96c0-0.12,0-0.24,0-0.37
	c0-0.17,0-0.35,0-0.53c0-0.36,0-0.72,0-1.08c0-0.12,0-0.24,0-0.36c0-0.18,0-0.36,0-0.54c0-0.36,0-0.72,0-1.08
	c-1.561,0-3.12,0-4.68,0c-0.181,0-0.36,0-0.54,0c0,0.06,0,0.12,0,0.18c0,0.41,0,0.84,0,1.26c0,0.42,0,0.84,0,1.26
	c0,0.84,0,1.68,0,2.52C169.62,31.14,167.88,31.14,166.14,31.14z"/>
<path fill="#302F2E" d="M166.14,2.7c0,0.84,0,1.68,0,2.52c0.061,0,0.12,0,0.181,0c0.06,0,0.12,0,0.18,0c0.18,0,0.36,0,0.54,0
	c0.24,0,0.479,0,0.72,0c0.42,0,0.84,0,1.26,0c0.421,0,0.841,0,1.261,0s0.84,0,1.26,0c1.68,0,3.36,0,5.04,0c0.479,0,0.96,0,1.439,0
	c0.421,0,0.841,0,1.261,0s0.84,0,1.26,0s0.84,0,1.26,0c1.681,0,3.36,0,5.04,0c0-0.36,0-0.72,0-1.08c0-0.18,0-0.36,0-0.54
	c0-0.24,0-0.48,0-0.72c0-0.24,0-0.48,0-0.72c0-0.12,0-0.24,0-0.36c0-0.42,0-0.84,0-1.26c0-0.18,0-0.36,0-0.54c-0.06,0-0.12,0-0.18,0
	c-0.061,0-0.12,0-0.18,0c-0.12,0-0.24,0-0.36,0c-0.18,0-0.36,0-0.54,0s-0.36,0-0.54,0c-0.24,0-0.48,0-0.72,0
	c-0.84,0-1.681,0-2.521,0c-1.68,0-3.359,0-5.04,0c-3.359,0-6.72,0-10.08,0c-0.18,0-0.359,0-0.54,0c0,0.06,0,0.12,0,0.18
	C166.14,1.01,166.14,1.86,166.14,2.7z"/>
<path fill="#A06141" d="M171.36,142.74c0,0.9,0,1.801,0,2.7c0.84,0,1.68,0,2.52,0c0.9,0,1.8,0,2.7,0c0-1.739,0-3.479,0-5.22
	c-1.74,0-3.48,0-5.22,0C171.36,141.06,171.36,141.9,171.36,142.74z"/>
<path fill="#302F2E" d="M171.36,82.98c0,1.74,0,3.48,0,5.221c1.56,0,3.12,0,4.68,0c0.18,0,0.36,0,0.54,0c0-0.061,0-0.121,0-0.19
	c0-0.83,0-1.67,0-2.511c0-0.84,0-1.68,0-2.52c-0.84,0-1.68,0-2.521,0c-0.42,0-0.84,0-1.26,0C172.32,82.98,171.84,82.98,171.36,82.98
	z"/>
<path fill="#302F2E" d="M176.58,158.22c0,0.9,0,1.8,0,2.699c0.18,0,0.36,0,0.54,0c1.62,0,3.24,0,4.86,0c1.619,0,3.239,0,4.859,0
	s3.24,0,4.86,0c1.68,0,3.359,0,5.04,0c0.18,0,0.359,0,0.54,0c0-1.739,0-3.479,0-5.219c-0.84,0-1.681,0-2.521,0c-0.899,0-1.8,0-2.7,0
	c-0.84,0-1.68,0-2.52,0c-0.9,0-1.8,0-2.7,0c-1.68,0-3.359,0-5.04,0c-0.84,0-1.68,0-2.52,0c-0.9,0-1.8,0-2.7,0
	C176.58,156.541,176.58,157.38,176.58,158.22z"/>
<path fill="#A06141" d="M176.58,150.48c0,1.74,0,3.48,0,5.221c0.9,0,1.8,0,2.7,0c0.84,0,1.68,0,2.52,0c1.681,0,3.36,0,5.04,0
	c0-0.84,0-1.681,0-2.521c0-0.899,0-1.8,0-2.7c0.18,0,0.36,0,0.54,0c0.12,0,0.24,0,0.36,0c0.18,0,0.359,0,0.54,0
	c0.359,0,0.72,0,1.08,0c0.72,0,1.439,0,2.159,0c0.181,0,0.36,0,0.54,0c0-1.68,0-3.359,0-5.04c-1.26,0-2.52,0-3.779,0
	c-0.12,0-0.24,0-0.36,0c-0.18,0-0.36,0-0.54,0c-0.36,0-0.72,0-1.08,0c-0.12,0-0.24,0-0.359,0c-0.181,0-0.36,0-0.54,0
	c-0.36,0-0.721,0-1.08,0c-2.58,0-5.16,0-7.74,0C176.58,147.121,176.58,148.8,176.58,150.48z"/>
<path fill="#302F2E" d="M176.58,78.121c0,1.619,0,3.24,0,4.859c0.36,0,0.72,0,1.08,0c0.42,0,0.84,0,1.26,0c0.18,0,0.36,0,0.54,0
	s0.36,0,0.54,0s0.36,0,0.54,0c0.24,0,0.479,0,0.72,0c0.181,0,0.36,0,0.54,0c0-0.24,0-0.48,0-0.72c0-0.181,0-0.36,0-0.54
	c0-0.42,0-0.84,0-1.26c0-0.84,0-1.68,0-2.521c-0.18,0-0.359,0-0.54,0c-0.18,0-0.359,0-0.54,0c-0.18,0-0.359,0-0.54,0
	c-0.239,0-0.479,0-0.72,0c-0.18,0-0.36,0-0.54,0s-0.36,0-0.54,0c-0.42,0-0.84,0-1.26,0c-0.18,0-0.36,0-0.54,0
	C176.58,78,176.58,78.06,176.58,78.121z"/>
<path fill="#D4D5D7" d="M176.58,51.84c0,1.74,0,3.48,0,5.22c0.36,0,0.72,0,1.08,0c0.18,0,0.359,0,0.54,0c0.24,0,0.479,0,0.72,0
	c0.18,0,0.36,0,0.54,0s0.36,0,0.54,0c0.42,0,0.84,0,1.26,0c0.181,0,0.36,0,0.54,0c0-0.06,0-0.12,0-0.18c0-0.84,0-1.68,0-2.52
	c0-0.85,0-1.68,0-2.52c-0.18,0-0.359,0-0.54,0c-0.18,0-0.359,0-0.54,0c-0.18,0-0.359,0-0.54,0c-0.239,0-0.479,0-0.72,0
	c-0.18,0-0.36,0-0.54,0s-0.36,0-0.54,0c-0.42,0-0.84,0-1.26,0C176.94,51.84,176.76,51.84,176.58,51.84z"/>
<path fill="#302F2E" d="M176.58,23.22c0,0.9,0,1.79,0,2.7c1.74,0,3.479,0,5.22,0c0-0.84,0-1.68,0-2.52c0-0.9,0-1.8,0-2.7
	c-1.74,0-3.479,0-5.22,0C176.58,21.54,176.58,22.38,176.58,23.22z"/>
<path fill="#302F2E" d="M181.8,76.5c0,0.48,0,0.961,0,1.44c0.84,0,1.681,0,2.521,0c0.42,0,0.84,0,1.26,0s0.84,0,1.26,0
	c0-0.84,0-1.68,0-2.521c0-0.909,0-1.799,0-2.699c-0.84,0-1.68,0-2.52,0s-1.681,0-2.521,0c0,0.84,0,1.68,0,2.52
	C181.8,75.66,181.8,76.08,181.8,76.5z"/>
<path fill="#D4D5D7" d="M181.8,45.36c0,2.15,0,4.32,0,6.48c0.84,0,1.681,0,2.521,0s1.68,0,2.52,0c0-0.9,0-1.8,0-2.7
	c0-0.84,0-1.68,0-2.52c0-2.11,0-4.2,0-6.3c0-1.08,0-2.16,0-3.24s0-2.16,0-3.24c0-2.16,0-4.33,0-6.48c0-1.08,0-2.16,0-3.24
	c0-0.24,0-0.48,0-0.72c0-0.12,0-0.24,0-0.36c0-0.18,0-0.36,0-0.54c0-0.24,0-0.49,0-0.72c0-0.12,0-0.24,0-0.36c0-0.24,0-0.48,0-0.72
	c-0.18,0-0.359,0-0.54,0c-0.18,0-0.359,0-0.54,0c-0.42,0-0.84,0-1.26,0s-0.84,0-1.26,0s-0.84,0-1.26,0c-0.061,0-0.12,0-0.181,0
	c0,0.9,0,1.8,0,2.7c0,0.84,0,1.68,0,2.52c0,1.08,0,2.16,0,3.24s0,2.16,0,3.24c0,2.16,0,4.32,0,6.48
	C181.8,41.04,181.8,43.2,181.8,45.36z"/>
<path fill="#302F2E" d="M181.8,18.18c0,0.83,0,1.68,0,2.52c0.061,0,0.12,0,0.181,0c0.42,0,0.84,0,1.26,0s0.84,0,1.26,0
	s0.84,0,1.26,0c0.181,0,0.36,0,0.54,0c0.181,0,0.36,0,0.54,0c0-0.84,0-1.69,0-2.52c0-0.9,0-1.8,0-2.7c-0.18,0-0.359,0-0.54,0
	c-0.12,0-0.24,0-0.359,0c-0.181,0-0.36,0-0.54,0c-0.36,0-0.721,0-1.08,0c-0.12,0-0.24,0-0.36,0c-0.18,0-0.36,0-0.54,0
	c-0.36,0-0.72,0-1.08,0c-0.18,0-0.359,0-0.54,0c0,0.06,0,0.12,0,0.18C181.8,16.5,181.8,17.34,181.8,18.18z"/>
<path fill="#814221" d="M186.84,153.18c0,0.84,0,1.681,0,2.521c0.9,0,1.8,0,2.7,0c0.84,0,1.68,0,2.52,0c0.9,0,1.801,0,2.7,0
	c0.84,0,1.681,0,2.521,0c0-0.84,0-1.681,0-2.521s0-1.681,0-2.521c0-1.74,0-3.479,0-5.22c-0.84,0-1.681,0-2.521,0
	c-0.899,0-1.8,0-2.7,0c0,1.681,0,3.36,0,5.04c-0.18,0-0.359,0-0.54,0c-0.72,0-1.439,0-2.159,0c-0.36,0-0.721,0-1.08,0
	c-0.181,0-0.36,0-0.54,0c-0.12,0-0.24,0-0.36,0c-0.18,0-0.36,0-0.54,0C186.84,151.38,186.84,152.281,186.84,153.18z"/>
<path fill="#302F2E" d="M186.84,132.48c0,0.84,0,1.68,0,2.52c2.22,0,4.44,0,6.66,0c2.16,0,4.32,0,6.48,0c2.159,0,4.319,0,6.479,0
	s4.32,0,6.48,0c0-1.739,0-3.479,0-5.219c-0.421,0-0.841,0-1.261,0s-0.84,0-1.26,0c-0.9,0-1.8,0-2.7,0c-1.739,0-3.479,0-5.22,0
	c-0.42,0-0.84,0-1.26,0s-0.84,0-1.26,0c-0.9,0-1.801,0-2.7,0c-1.74,0-3.48,0-5.221,0c-1.739,0-3.479,0-5.22,0
	C186.84,130.68,186.84,131.58,186.84,132.48z"/>
<path fill="#A06141" d="M186.84,128.34c0,0.479,0,0.96,0,1.44c1.74,0,3.48,0,5.22,0c0-0.841,0-1.681,0-2.521c0-0.899,0-1.8,0-2.7
	c-1.739,0-3.479,0-5.22,0c0,0.84,0,1.68,0,2.52C186.84,127.5,186.84,127.919,186.84,128.34z"/>
<path fill="#814221" d="M186.84,122.041c0,0.84,0,1.68,0,2.52c1.74,0,3.48,0,5.22,0c0,0.9,0,1.801,0,2.7c0,0.84,0,1.68,0,2.521
	c1.74,0,3.48,0,5.221,0c0.899,0,1.8,0,2.7,0c0.42,0,0.84,0,1.26,0s0.84,0,1.26,0c1.74,0,3.48,0,5.22,0c0.9,0,1.8,0,2.7,0
	c0.42,0,0.84,0,1.26,0s0.84,0,1.261,0c0-0.841,0-1.681,0-2.521c0-0.42,0-0.841,0-1.261c0-0.239,0-0.489,0-0.719
	c0-0.121,0-0.24,0-0.361c0-0.059,0-0.119,0-0.18c0-0.06,0-0.119,0-0.18c0.18,0,0.359,0,0.54,0c1.38,0,2.76,0,4.14,0
	c0.18,0,0.36,0,0.54,0c0-0.9,0-1.8,0-2.699c0-0.851,0-1.681,0-2.521c-1.74,0-3.48,0-5.22,0c0-0.181,0-0.36,0-0.54
	c0-3.061,0-6.12,0-9.18c0-0.181,0-0.36,0-0.541c-1.74,0-3.48,0-5.221,0c0,1.74,0,3.48,0,5.221c-1.739,0-3.479,0-5.22,0
	c0,1.68,0,3.359,0,5.04c-0.66,0-1.32,0-1.98,0c-0.659,0-1.319,0-1.979,0s-1.32,0-1.98,0c-0.659,0-1.319,0-1.979,0
	c-2.58,0-5.16,0-7.74,0c0,0.479,0,0.96,0,1.44C186.84,121.201,186.84,121.621,186.84,122.041z"/>
<path fill="#302F2E" d="M186.84,114.3c0,1.68,0,3.359,0,5.04c2.58,0,5.16,0,7.74,0c0.66,0,1.32,0,1.979,0c0.66,0,1.32,0,1.98,0
	s1.32,0,1.979,0c0.66,0,1.32,0,1.98,0c0-1.681,0-3.36,0-5.04c-2.58,0-5.16,0-7.74,0c-0.66,0-1.319,0-1.979,0c-0.12,0-0.24,0-0.36,0
	c-0.18,0-0.36,0-0.54,0c-0.36,0-0.72,0-1.08,0c-0.12,0-0.24,0-0.359,0c-0.181,0-0.36,0-0.54,0c-0.36,0-0.721,0-1.08,0
	c-0.12,0-0.24,0-0.36,0c-0.18,0-0.36,0-0.54,0C187.56,114.3,187.2,114.3,186.84,114.3z"/>
<path fill="#302F2E" d="M186.84,70.01c0,0.909,0,1.81,0,2.71c0.84,0,1.68,0,2.521,0c0.899,0,1.8,0,2.699,0c0-0.84,0-1.68,0-2.52
	c0-0.9,0-1.801,0-2.701c0-0.84,0-1.68,0-2.52c0-0.899,0-1.8,0-2.7c-1.739,0-3.479,0-5.22,0c0,0.84,0,1.679,0,2.52
	c0,0.9,0,1.8,0,2.699C186.84,68.34,186.84,69.18,186.84,70.01z"/>
<path fill="#302F2E" d="M186.84,40.32c0,2.1,0,4.19,0,6.3c0.36,0,0.72,0,1.08,0c0.18,0,0.36,0,0.54,0c0.12,0,0.24,0,0.36,0
	c0.359,0,0.72,0,1.08,0c0.18,0,0.359,0,0.54,0c0.119,0,0.239,0,0.359,0c0.36,0,0.72,0,1.08,0c0.18,0,0.36,0,0.54,0
	c0.12,0,0.24,0,0.36,0c0.66,0,1.319,0,1.979,0c2.58,0,5.16,0,7.74,0c0-1.68,0-3.36,0-5.04c-0.84,0-1.68,0-2.52,0
	c-0.9,0-1.801,0-2.7,0c-1.74,0-3.48,0-5.221,0c0-0.18,0-0.36,0-0.54c0-1.62,0-3.24,0-4.86c0-1.68,0-3.36,0-5.04
	c0-1.63,0-3.24,0-4.86c0-1.68,0-3.36,0-5.04c0-0.18,0-0.36,0-0.54c-1.739,0-3.479,0-5.22,0c0,0.24,0,0.48,0,0.72
	c0,0.12,0,0.24,0,0.36c0,0.23,0,0.48,0,0.72c0,0.18,0,0.36,0,0.54c0,0.12,0,0.24,0,0.36c0,0.24,0,0.48,0,0.72c0,1.08,0,2.16,0,3.24
	c0,2.15,0,4.32,0,6.48c0,1.08,0,2.16,0,3.24S186.84,39.24,186.84,40.32z"/>
<path fill="#302F2E" d="M186.84,9.9c0,0.18,0,0.36,0,0.54c0.36,0,0.72,0,1.08,0c0.18,0,0.36,0,0.54,0c0.12,0,0.24,0,0.36,0
	c0.359,0,0.72,0,1.08,0c0.18,0,0.359,0,0.54,0c0.119,0,0.239,0,0.359,0c0.36,0,0.72,0,1.08,0c0.18,0,0.36,0,0.54,0
	c0.12,0,0.24,0,0.36,0c0.66,0,1.319,0,1.979,0c2.58,0,5.16,0,7.74,0c0-0.36,0-0.72,0-1.08c0-0.18,0-0.36,0-0.54
	c0-0.24,0-0.48,0-0.72c0-0.36,0-0.72,0-1.09c0-0.41,0-0.83,0-1.25c0-0.18,0-0.36,0-0.54c-0.06,0-0.12,0-0.18,0
	c-0.061,0-0.12,0-0.181,0c-0.239,0-0.479,0-0.72,0c-0.12,0-0.24,0-0.36,0c-0.18,0-0.359,0-0.54,0c-0.119,0-0.239,0-0.359,0
	c-0.18,0-0.36,0-0.54,0c-0.36,0-0.72,0-1.08,0c-0.12,0-0.24,0-0.36,0c-0.18,0-0.359,0-0.54,0c-0.359,0-0.72,0-1.08,0
	c-0.119,0-0.239,0-0.359,0c-0.181,0-0.36,0-0.54,0c-0.36,0-0.72,0-1.08,0c-2.58,0-5.16,0-7.74,0c0,0.18,0,0.36,0,0.54
	c0,0.12,0,0.24,0,0.36c0,0.18,0,0.36,0,0.54c0,0.35,0,0.72,0,1.08s0,0.72,0,1.08c0,0.12,0,0.24,0,0.36
	C186.84,9.42,186.84,9.66,186.84,9.9z"/>
<path fill="#302F2E" d="M192.06,59.76c0,0.84,0,1.68,0,2.52c1.62,0,3.24,0,4.86,0c1.68,0,3.36,0,5.04,0c0.18,0,0.36,0,0.54,0
	c0-1.74,0-3.48,0-5.22c-1.62,0-3.24,0-4.86,0c-1.68,0-3.359,0-5.04,0c-0.18,0-0.359,0-0.54,0c0,0.06,0,0.12,0,0.18s0,0.12,0,0.18
	c0,0.12,0,0.24,0,0.36c0,0.23,0,0.48,0,0.72C192.06,58.92,192.06,59.34,192.06,59.76z"/>
<path fill="#302F2E" d="M197.28,197.27c0,1.74,0,3.49,0,5.23c2.64,0,5.279,0,7.92,0c0.359,0,0.72,0,1.08,0c0.18,0,0.359,0,0.54,0
	c0.12,0,0.239,0,0.359,0c0.66,0,1.32,0,1.98,0c1.26,0,2.52,0,3.78,0c0-2.58,0-5.16,0-7.74c0-2.64,0-5.29,0-7.92
	c-1.74,0-3.48,0-5.221,0c0,3.47,0,6.96,0,10.43c-0.18,0-0.359,0-0.54,0c-1.56,0-3.12,0-4.68,0s-3.12,0-4.68,0
	C197.64,197.27,197.46,197.27,197.28,197.27z"/>
<path fill="#302F2E" d="M197.28,181.26c0,0.17,0,0.36,0,0.54c1.739,0,3.479,0,5.22,0c0-1.74,0-3.49,0-5.22c-0.42,0-0.84,0-1.26,0
	s-0.84,0-1.26,0c-0.181,0-0.36,0-0.54,0c-0.24,0-0.48,0-0.721,0c-0.479,0-0.96,0-1.439,0c0,0.18,0,0.35,0,0.54
	c0,0.119,0,0.229,0,0.35c0,0.189,0,0.37,0,0.54c0,0.37,0,0.729,0,1.09s0,0.71,0,1.08C197.28,180.541,197.28,180.89,197.28,181.26z"
	/>
<path fill="#302F2E" d="M202.5,181.8c0,1.67,0,3.359,0,5.04c1.74,0,3.48,0,5.22,0c0-1.681,0-3.37,0-5.04
	C205.98,181.8,204.24,181.8,202.5,181.8z"/>
<path fill="#814221" d="M202.5,176.581c0,1.729,0,3.479,0,5.22c1.74,0,3.48,0,5.22,0c0,1.67,0,3.359,0,5.04c1.74,0,3.48,0,5.221,0
	c0,2.63,0,5.28,0,7.92c0,2.58,0,5.16,0,7.74c3.479,0,6.96,0,10.439,0c0.9,0,1.8,0,2.7,0c0.84,0,1.68,0,2.52,0c1.681,0,3.36,0,5.04,0
	c0-1.74,0-3.49,0-5.23c-0.84,0-1.68,0-2.52,0c-0.9,0-1.8,0-2.7,0c-0.84,0-1.68,0-2.52,0c-0.9,0-1.801,0-2.7,0c0-0.17,0-0.35,0-0.53
	c0-3.119,0-6.239,0-9.359c0-0.181,0-0.37,0-0.54c-1.681,0-3.36,0-5.04,0c0-1.681,0-3.37,0-5.04c-1.74,0-3.48,0-5.22,0
	c0-1.26,0-2.53,0-3.79c0-0.12,0-0.24,0-0.351c0-0.189,0-0.359,0-0.539c0-0.36,0-0.73,0-1.08c0-0.121,0-0.24,0-0.36
	c0-0.181,0-0.36,0-0.54c0-0.359,0-0.721,0-1.08c0-1.26,0-2.52,0-3.779c0-0.121,0-0.24,0-0.361c0-0.18,0-0.359,0-0.539
	c0-0.36,0-0.721,0-1.08c0-0.12,0-0.24,0-0.36c0-0.18,0-0.36,0-0.54s0-0.359,0-0.539c0-0.24,0-0.48,0-0.721c-0.841,0-1.681,0-2.521,0
	c-0.9,0-1.8,0-2.7,0c0,0.84,0,1.68,0,2.52c0,0.9,0,1.801,0,2.701c0,0.84,0,1.68,0,2.52c0,0.9,0,1.8,0,2.7c-0.42,0-0.84,0-1.26,0
	s-0.84,0-1.26,0c-0.181,0-0.36,0-0.54,0c-0.24,0-0.48,0-0.72,0C203.46,176.581,202.98,176.581,202.5,176.581z"/>
<path fill="#302F2E" d="M202.5,109.08c0,1.74,0,3.48,0,5.221c1.74,0,3.48,0,5.22,0c0-1.74,0-3.48,0-5.221c-1.56,0-3.12,0-4.68,0
	C202.86,109.08,202.68,109.08,202.5,109.08z"/>
<path fill="#302F2E" d="M202.5,52.01c0,1.69,0,3.37,0,5.05c1.74,0,3.48,0,5.22,0c0-0.18,0-0.36,0-0.55c0-0.35,0-0.71,0-1.07
	c0-0.18,0-0.36,0-0.54c0-0.24,0-0.48,0-0.72c0-0.36,0-0.72,0-1.08c0-0.18,0-0.36,0-0.54c0-0.24,0-0.48,0-0.72c0-1.56,0-3.12,0-4.68
	c0-0.18,0-0.36,0-0.54c-1.739,0-3.479,0-5.22,0c0,0.06,0,0.12,0,0.18c0,0.24,0,0.48,0,0.71c0,0.25,0,0.49,0,0.73
	c0,0.42,0,0.84,0,1.26s0,0.84,0,1.26S202.5,51.6,202.5,52.01z"/>
<path fill="#302F2E" d="M202.5,12.96c0,0.84,0,1.68,0,2.52c0.42,0,0.84,0,1.26,0s0.84,0,1.26,0c0.9,0,1.801,0,2.7,0
	c0-0.84,0-1.68,0-2.52c0-0.84,0-1.68,0-2.52c-1.739,0-3.479,0-5.22,0C202.5,11.28,202.5,12.12,202.5,12.96z"/>
<path fill="#302F2E" d="M207.72,103.861c0,1.739,0,3.479,0,5.219c1.74,0,3.48,0,5.221,0c0,0.181,0,0.36,0,0.541
	c0,3.06,0,6.119,0,9.18c0,0.18,0,0.359,0,0.54c1.739,0,3.479,0,5.22,0c0-5.16,0-10.32,0-15.479c0-2.58,0-5.16,0-7.74
	c0-2.641,0-5.28,0-7.92c-1.74,0-3.48,0-5.22,0c0,2.58,0,5.16,0,7.739c0,2.64,0,5.28,0,7.921c-0.181,0-0.36,0-0.54,0
	c-1.381,0-2.761,0-4.141,0C208.08,103.861,207.9,103.861,207.72,103.861z"/>
<path fill="#302F2E" d="M207.72,18c0,0.9,0,1.8,0,2.7c1.74,0,3.48,0,5.221,0c0-1.74,0-3.48,0-5.22c-0.421,0-0.841,0-1.261,0
	s-0.84,0-1.26,0c-0.9,0-1.8,0-2.7,0C207.72,16.32,207.72,17.16,207.72,18z"/>
<path fill="#302F2E" d="M212.94,207.72c0,1.74,0,3.479,0,5.21c2.159,0,4.319,0,6.479,0s4.32,0,6.48,0c2.159,0,4.319,0,6.479,0
	s4.32,0,6.48,0c0-2.58,0-5.15,0-7.73c0-2.579,0-5.159,0-7.739s0-5.16,0-7.74c0-2.64,0-5.29,0-7.92c-0.24,0-0.48,0-0.721,0
	c-0.239,0-0.479,0-0.72,0c-0.42,0-0.84,0-1.26,0c-0.84,0-1.68,0-2.521,0c0,2.58,0,5.16,0,7.74s0,5.159,0,7.729c0,1.74,0,3.49,0,5.23
	c-1.68,0-3.359,0-5.04,0c-0.84,0-1.68,0-2.52,0c-0.9,0-1.8,0-2.7,0c-3.479,0-6.96,0-10.439,0
	C212.94,204.24,212.94,205.97,212.94,207.72z"/>
<path fill="#A06141" d="M212.94,178.01c0,1.26,0,2.53,0,3.79c1.739,0,3.479,0,5.22,0c0,1.67,0,3.359,0,5.04c1.68,0,3.359,0,5.04,0
	c0,0.17,0,0.359,0,0.54c0,3.12,0,6.24,0,9.359c0,0.181,0,0.36,0,0.53c0.899,0,1.8,0,2.7,0c0.84,0,1.68,0,2.52,0c0.9,0,1.8,0,2.7,0
	c0.84,0,1.68,0,2.52,0c0-2.57,0-5.149,0-7.729s0-5.16,0-7.74c-1.739,0-3.479,0-5.22,0c0-0.18,0-0.37,0-0.54c0-0.42,0-0.84,0-1.26
	c0-0.24,0-0.49,0-0.73c0-0.17,0-0.35,0-0.53c0-0.43,0-0.85,0-1.27c0-0.41,0-0.83,0-1.25c0-1.62,0-3.24,0-4.859
	c-0.42,0-0.84,0-1.26,0s-0.84,0-1.26,0s-0.841,0-1.261,0c-0.479,0-0.96,0-1.439,0c0-1.74,0-3.48,0-5.221c-1.681,0-3.36,0-5.04,0
	c-0.84,0-1.68,0-2.521,0c-0.899,0-1.8,0-2.699,0c0,0.24,0,0.48,0,0.721c0,0.18,0,0.359,0,0.539s0,0.36,0,0.54c0,0.12,0,0.24,0,0.36
	c0,0.359,0,0.72,0,1.08c0,0.18,0,0.359,0,0.539c0,0.121,0,0.24,0,0.361c0,1.26,0,2.52,0,3.779c0,0.359,0,0.721,0,1.08
	c0,0.18,0,0.359,0,0.54c0,0.12,0,0.239,0,0.36c0,0.35,0,0.72,0,1.08c0,0.18,0,0.35,0,0.539
	C212.94,177.77,212.94,177.89,212.94,178.01z"/>
<path fill="#814221" d="M212.94,158.22c0,0.9,0,1.8,0,2.699c2.159,0,4.319,0,6.479,0s4.32,0,6.48,0c2.159,0,4.319,0,6.479,0
	c1.08,0,2.16,0,3.24,0s2.16,0,3.24,0c0-0.899,0-1.799,0-2.699c0-0.84,0-1.68,0-2.52c-1.261,0-2.521,0-3.78,0c-0.12,0-0.24,0-0.36,0
	c-0.18,0-0.359,0-0.54,0c-0.359,0-0.72,0-1.08,0c-0.119,0-0.239,0-0.359,0c-0.181,0-0.36,0-0.54,0c-0.36,0-0.72,0-1.08,0
	c-0.12,0-0.24,0-0.36,0c-0.18,0-0.359,0-0.54,0c-0.359,0-0.72,0-1.08,0c-0.12,0-0.239,0-0.359,0c-0.181,0-0.36,0-0.54,0
	c-0.36,0-0.721,0-1.08,0c-0.12,0-0.24,0-0.36,0c-0.18,0-0.359,0-0.54,0c-0.359,0-0.72,0-1.08,0c-0.12,0-0.239,0-0.359,0
	c-0.181,0-0.36,0-0.54,0c-0.36,0-0.721,0-1.08,0c0-0.84,0-1.681,0-2.521s0-1.681,0-2.521c0-1.74,0-3.479,0-5.22
	c0.84,0,1.68,0,2.52,0c0.9,0,1.8,0,2.7,0c0-0.18,0-0.36,0-0.54c0-1.39,0-2.76,0-4.14c0-0.181,0-0.36,0-0.54c-0.06,0-0.12,0-0.18,0
	c-0.84,0-1.681,0-2.521,0s-1.68,0-2.52,0c0-1.74,0-3.48,0-5.221c0-1.739,0-3.479,0-5.219c-1.681,0-3.36,0-5.04,0
	c-1.74,0-3.48,0-5.22,0c0,1.739,0,3.479,0,5.219c1.739,0,3.479,0,5.22,0c0,2.58,0,5.16,0,7.74s0,5.16,0,7.74c-0.84,0-1.68,0-2.521,0
	c-0.899,0-1.8,0-2.699,0c0,0.84,0,1.68,0,2.52c0,0.9,0,1.801,0,2.701C212.94,156.541,212.94,157.38,212.94,158.22z"/>
<path fill="#302F2E" d="M212.94,127.26c0,0.84,0,1.68,0,2.521c1.739,0,3.479,0,5.22,0c1.68,0,3.359,0,5.04,0c0-1.74,0-3.48,0-5.221
	s0-3.48,0-5.22c-1.681,0-3.36,0-5.04,0c0,0.84,0,1.67,0,2.521c0,0.899,0,1.799,0,2.699c-0.18,0-0.36,0-0.54,0c-1.38,0-2.76,0-4.14,0
	c-0.181,0-0.36,0-0.54,0c0,0.061,0,0.12,0,0.18c0,0.061,0,0.121,0,0.18c0,0.121,0,0.24,0,0.361c0,0.229,0,0.479,0,0.719
	C212.94,126.419,212.94,126.84,212.94,127.26z"/>
<path fill="#302F2E" d="M212.94,25.38c0,0.18,0,0.36,0,0.54c1.739,0,3.479,0,5.22,0c0-0.36,0-0.72,0-1.08c0-0.42,0-0.84,0-1.26
	c0-0.36,0-0.72,0-1.08c0-0.42,0-0.84,0-1.26c0-0.18,0-0.36,0-0.54c-1.74,0-3.48,0-5.22,0c0,0.18,0,0.36,0,0.54c0,0.18,0,0.36,0,0.54
	c0,0.18,0,0.36,0,0.54c0,0.24,0,0.48,0,0.72c0,0.18,0,0.36,0,0.54s0,0.36,0,0.54C212.94,24.54,212.94,24.96,212.94,25.38z"/>
<path fill="#814221" d="M218.16,103.861c0,5.159,0,10.319,0,15.479c1.68,0,3.359,0,5.04,0c0-1.681,0-3.36,0-5.04
	c0.899,0,1.8,0,2.7,0c0.84,0,1.68,0,2.52,0c0-0.42,0-0.84,0-1.26s0-0.84,0-1.26s0-0.841,0-1.271c0-0.229,0-0.47,0-0.71
	c0-0.12,0-0.24,0-0.36c0-0.06,0-0.12,0-0.18s0-0.12,0-0.181c2.58,0,5.16,0,7.74,0c2.52,0,5.04,0,7.56,0c0.12,0,0.24,0,0.36,0
	c0,1.74,0,3.48,0,5.221c0.9,0,1.8,0,2.7,0c0.84,0,1.68,0,2.52,0c0-0.6,0-1.2,0-1.801c0-0.119,0-0.239,0-0.359c0-0.18,0-0.359,0-0.54
	c0-0.36,0-0.72,0-1.09c0-0.11,0-0.229,0-0.351c0-0.18,0-0.359,0-0.539c0-0.36,0-0.721,0-1.08c0-0.121,0-0.24,0-0.36
	c0-0.181,0-0.36,0-0.54c0-0.359,0-0.721,0-1.08c0-0.12,0-0.24,0-0.359c0-0.19,0-0.36,0-0.541c0-0.359,0-0.72,0-1.08
	c0-0.299,0-0.6,0-0.899c0-0.36,0-0.72,0-1.08c0-0.3,0-0.601,0-0.899c0-0.36,0-0.721,0-1.08c0-0.301,0-0.61,0-0.9
	c0-0.359,0-0.721,0-1.08c-0.84,0-1.68,0-2.52,0c-0.9,0-1.8,0-2.7,0c0,1.74,0,3.48,0,5.221c-0.84,0-1.68,0-2.521,0
	c-0.899,0-1.8,0-2.699,0c-0.841,0-1.681,0-2.521,0c-0.899,0-1.8,0-2.7,0c0-0.181,0-0.361,0-0.541c0-1.38,0-2.76,0-4.14
	c0-0.181,0-0.36,0-0.54c-0.06,0-0.12,0-0.18,0c-0.84,0-1.68,0-2.52,0c-0.841,0-1.681,0-2.521,0c0-2.16,0-4.32,0-6.48
	s0-4.319,0-6.479c0-2.17,0-4.319,0-6.479s0-4.32,0-6.48c-0.84,0-1.68,0-2.52,0c-0.42,0-0.841,0-1.261,0c-0.479,0-0.96,0-1.439,0
	c0,2.58,0,5.16,0,7.74c0,0.359,0,0.72,0,1.08c0,0.18,0,0.359,0,0.539c0,0.121,0,0.24,0,0.36c0,0.36,0,0.72,0,1.07
	c0,0.19,0,0.37,0,0.55c0,0.12,0,0.24,0,0.359c0,1.261,0,2.521,0,3.781c-1.681,0-3.36,0-5.04,0c0,2.64,0,5.279,0,7.92
	C218.16,98.701,218.16,101.281,218.16,103.861z"/>
<path fill="#302F2E" d="M218.16,80.46c0,2.58,0,5.16,0,7.74c1.68,0,3.359,0,5.04,0c0-1.261,0-2.521,0-3.781c0-0.119,0-0.239,0-0.359
	c0-0.18,0-0.359,0-0.55c0-0.351,0-0.71,0-1.07c0-0.12,0-0.239,0-0.36c0-0.18,0-0.359,0-0.539c0-0.36,0-0.721,0-1.08
	c0-2.58,0-5.16,0-7.74c-1.681,0-3.36,0-5.04,0c0,1.26,0,2.52,0,3.779c0,0.121,0,0.24,0,0.361c0,0.18,0,0.359,0,0.539
	c0,0.36,0,0.721,0,1.08c0,0.12,0,0.24,0,0.36c0,0.17,0,0.36,0,0.54C218.16,79.74,218.16,80.1,218.16,80.46z"/>
<path fill="#302F2E" d="M218.16,30.6c0,0.18,0,0.36,0,0.54c1.68,0,3.359,0,5.04,0c0-1.74,0-3.48,0-5.22c-1.681,0-3.36,0-5.04,0
	c0,0.78,0,1.56,0,2.34C218.16,29.04,218.16,29.82,218.16,30.6z"/>
<path fill="#A06141" d="M223.2,153.18c0,0.84,0,1.681,0,2.521c0.359,0,0.72,0,1.08,0c0.18,0,0.359,0,0.54,0c0.12,0,0.239,0,0.359,0
	c0.36,0,0.721,0,1.08,0c0.181,0,0.36,0,0.54,0c0.12,0,0.24,0,0.36,0c0.359,0,0.72,0,1.08,0c0.18,0,0.359,0,0.54,0
	c0.12,0,0.239,0,0.359,0c0.36,0,0.721,0,1.08,0c0.181,0,0.36,0,0.54,0c0.12,0,0.24,0,0.36,0c0.36,0,0.72,0,1.08,0
	c0.18,0,0.359,0,0.54,0c0.12,0,0.24,0,0.359,0c0.36,0,0.721,0,1.08,0c0.181,0,0.36,0,0.54,0c0.12,0,0.24,0,0.36,0
	c1.26,0,2.52,0,3.78,0c0-0.9,0-1.801,0-2.701c0-0.84,0-1.68,0-2.52c0.899,0,1.8,0,2.699,0c0.841,0,1.681,0,2.521,0
	c0-2.58,0-5.16,0-7.74s0-5.16,0-7.74c0.9,0,1.8,0,2.7,0c0.84,0,1.68,0,2.52,0c0-0.84,0-1.68,0-2.52c0-0.42,0-0.84,0-1.26
	s0-0.84,0-1.26s0-0.84,0-1.26s0-0.84,0-1.261c0-0.899,0-1.8,0-2.7c0-0.42,0-0.84,0-1.26s0-0.84,0-1.26c0-0.9,0-1.801,0-2.71
	c0-0.41,0-0.83,0-1.25s0-0.841,0-1.261c0-0.899,0-1.799,0-2.699c-0.84,0-1.68,0-2.52,0c-0.9,0-1.8,0-2.7,0c0-1.74,0-3.48,0-5.221
	c-0.12,0-0.24,0-0.36,0c-2.52,0-5.04,0-7.56,0c-2.58,0-5.16,0-7.74,0c0,0.061,0,0.121,0,0.181s0,0.12,0,0.18c0,0.12,0,0.24,0,0.36
	c0,0.24,0,0.48,0,0.71c0,0.43,0,0.851,0,1.271s0,0.84,0,1.26s0,0.84,0,1.26c-0.84,0-1.68,0-2.52,0c-0.9,0-1.801,0-2.7,0
	c0,1.68,0,3.359,0,5.04c0,1.739,0,3.479,0,5.22s0,3.48,0,5.221c0,1.739,0,3.479,0,5.219c0,1.74,0,3.48,0,5.221c0.84,0,1.68,0,2.52,0
	s1.681,0,2.521,0c0.06,0,0.12,0,0.18,0c0,0.18,0,0.359,0,0.54c0,1.38,0,2.75,0,4.14c0,0.18,0,0.36,0,0.54c-0.9,0-1.8,0-2.7,0
	c-0.84,0-1.68,0-2.52,0c0,1.74,0,3.479,0,5.22C223.2,151.5,223.2,152.34,223.2,153.18z"/>
<path fill="#302F2E" d="M223.2,67.5c0,1.74,0,3.48,0,5.221c0.479,0,0.96,0,1.439,0c0.42,0,0.841,0,1.261,0c0.84,0,1.68,0,2.52,0
	c0-0.84,0-1.68,0-2.52c0-0.9,0-1.801,0-2.701c0-0.84,0-1.68,0-2.52c0-0.899,0-1.8,0-2.7c-0.42,0-0.84,0-1.26,0s-0.84,0-1.26,0
	c-0.9,0-1.801,0-2.7,0c0,0.84,0,1.679,0,2.52C223.2,65.701,223.2,66.6,223.2,67.5z"/>
<path fill="#302F2E" d="M223.2,35.82c0,0.18,0,0.36,0,0.54c0.06,0,0.12,0,0.18,0c0.061,0,0.12,0,0.18,0c0.12,0,0.24,0,0.36,0
	c0.24,0,0.48,0,0.72,0c0.42,0,0.841,0,1.261,0s0.84,0,1.26,0s0.84,0,1.26,0c0-0.36,0-0.72,0-1.08c0-0.18,0-0.36,0-0.54
	c0-0.24,0-0.48,0-0.73c0-0.23,0-0.47,0-0.71c0-0.12,0-0.24,0-0.36c0-0.43,0-0.84,0-1.26c0-0.18,0-0.36,0-0.54c-0.06,0-0.12,0-0.18,0
	c-0.84,0-1.681,0-2.521,0s-1.68,0-2.52,0c0,0.78,0,1.56,0,2.34C223.2,34.26,223.2,35.04,223.2,35.82z"/>
<path fill="#302F2E" d="M228.42,181.26c0,0.17,0,0.36,0,0.54c1.74,0,3.48,0,5.22,0c0-1.62,0-3.24,0-4.87c0-1.67,0-3.351,0-5.03
	c0-0.18,0-0.359,0-0.539c-0.06,0-0.12,0-0.18,0s-0.12,0-0.18,0c-0.12,0-0.24,0-0.36,0c-0.24,0-0.479,0-0.72,0
	c-0.181,0-0.36,0-0.54,0c-0.24,0-0.48,0-0.72,0c-0.421,0-0.841,0-1.261,0s-0.84,0-1.26,0c0,1.619,0,3.239,0,4.859
	c0,0.42,0,0.84,0,1.25c0,0.42,0,0.84,0,1.27c0,0.181,0,0.36,0,0.53c0,0.24,0,0.49,0,0.73C228.42,180.42,228.42,180.84,228.42,181.26
	z"/>
<path fill="#A06141" d="M228.42,92.16c0,2.16,0,4.32,0,6.48c0.84,0,1.68,0,2.521,0c0.84,0,1.68,0,2.52,0c0.06,0,0.12,0,0.18,0
	c0,0.18,0,0.359,0,0.54c0,1.38,0,2.76,0,4.14c0,0.18,0,0.36,0,0.541c0.9,0,1.801,0,2.7,0c0.84,0,1.68,0,2.521,0
	c0.899,0,1.8,0,2.699,0c0.841,0,1.681,0,2.521,0c0-1.74,0-3.48,0-5.221c0.9,0,1.8,0,2.7,0c0.84,0,1.68,0,2.52,0
	c0-0.54,0-1.08,0-1.63c0-0.53,0-1.07,0-1.61c0-0.539,0-1.08,0-1.619c0-0.541,0-1.08,0-1.621c0-0.539,0-1.08,0-1.619
	c0-0.541,0-1.08,0-1.621c0-0.539,0-1.079,0-1.619c0-0.24,0-0.48,0-0.721c0-0.119,0-0.239,0-0.359c0-0.18,0-0.359,0-0.54
	c0-0.24,0-0.479,0-0.72c0-0.12,0-0.24,0-0.36c0-0.181,0-0.36,0-0.54c0-0.55,0-1.08,0-1.62c0-0.239,0-0.479,0-0.72
	c0-0.12,0-0.24,0-0.359c0-0.181,0-0.361,0-0.541c0-0.539,0-1.08,0-1.619c0-0.24,0-0.48,0-0.721c0-0.119,0-0.24,0-0.359
	c0-0.181,0-0.36,0-0.541c0-0.539,0-1.08,0-1.619c0-0.24,0-0.48,0-0.721c0-0.119,0-0.24,0-0.359c0-0.18,0-0.37,0-0.54
	c0-0.54,0-1.08,0-1.62c-0.84,0-1.68,0-2.52,0c-0.9,0-1.8,0-2.7,0c0-1.74,0-3.48,0-5.221c-1.62,0-3.24,0-4.86,0
	c-1.68,0-3.359,0-5.04,0c-0.18,0-0.359,0-0.54,0c0,1.74,0,3.48,0,5.221c-0.84,0-1.68,0-2.52,0c-0.9,0-1.8,0-2.7,0
	c0,2.16,0,4.32,0,6.48s0,4.31,0,6.479C228.42,87.84,228.42,90,228.42,92.16z"/>
<path fill="#814221" d="M228.42,70.201c0,0.84,0,1.68,0,2.52c0.9,0,1.8,0,2.7,0c0.84,0,1.68,0,2.52,0c0-1.74,0-3.48,0-5.221
	c0.181,0,0.36,0,0.54,0c1.681,0,3.36,0,5.04,0c1.62,0,3.24,0,4.86,0c0-1.739,0-3.489,0-5.219c-0.42,0-0.84,0-1.26,0s-0.84,0-1.261,0
	c-0.899,0-1.8,0-2.699,0c0-1.74,0-3.48,0-5.22c-0.841,0-1.681,0-2.521,0c-0.899,0-1.8,0-2.7,0c0,1.74,0,3.48,0,5.22
	c-0.42,0-0.84,0-1.26,0s-0.84,0-1.26,0c-0.9,0-1.8,0-2.7,0c0,0.9,0,1.8,0,2.7c0,0.84,0,1.68,0,2.52
	C228.42,68.4,228.42,69.3,228.42,70.201z"/>
<path fill="#302F2E" d="M228.42,55.8c0,2.16,0,4.32,0,6.48c0.9,0,1.8,0,2.7,0c0.42,0,0.84,0,1.26,0s0.84,0,1.26,0
	c0-1.74,0-3.48,0-5.22c0.9,0,1.801,0,2.7,0c0.84,0,1.68,0,2.521,0c0-1.74,0-3.48,0-5.22c-0.841,0-1.681,0-2.521,0
	c-0.899,0-1.8,0-2.7,0c0-0.12,0-0.24,0-0.36c0-2.52,0-5.04,0-7.56s0-5.04,0-7.56c-0.06,0-0.12,0-0.18,0s-0.12,0-0.18,0
	c-0.12,0-0.24,0-0.36,0c-0.24,0-0.479,0-0.72,0c-0.42,0-0.84,0-1.26,0c-0.421,0-0.841,0-1.261,0s-0.84,0-1.26,0
	c0,2.15,0,4.32,0,6.48c0,2.16,0,4.32,0,6.48C228.42,51.48,228.42,53.64,228.42,55.8z"/>
<path fill="#302F2E" d="M238.86,158.22c0,0.9,0,1.8,0,2.699c2.58,0,5.159,0,7.739,0s5.16,0,7.74,0c0-0.84,0-1.68,0-2.52
	c0-0.42,0-0.84,0-1.26c0-0.24,0-0.48,0-0.721c0-0.119,0-0.239,0-0.359c0-0.061,0-0.12,0-0.18c0-0.061,0-0.12,0-0.18
	c0.18,0,0.36,0,0.54,0c0.84,0,1.68,0,2.521,0c0.239,0,0.479,0,0.72,0c0.18,0,0.36,0,0.54,0c0.24,0,0.479,0,0.72,0
	c0.18,0,0.36,0,0.54,0c0.84,0,1.68,0,2.521,0c0.239,0,0.479,0,0.72,0c0.18,0,0.359,0,0.54,0c0.18,0,0.359,0,0.54,0
	c0.18,0,0.359,0,0.54,0c0-0.181,0-0.36,0-0.541c0-0.18,0-0.359,0-0.539c0-0.181,0-0.36,0-0.541c0-0.239,0-0.479,0-0.719
	c0-0.181,0-0.361,0-0.541s0-0.359,0-0.539c0-0.42,0-0.841,0-1.261c0-0.18,0-0.36,0-0.54c-0.24,0-0.48,0-0.721,0
	c-0.239,0-0.479,0-0.72,0c-0.42,0-0.84,0-1.26,0s-0.84,0-1.26,0s-0.84,0-1.261,0c-0.84,0-1.68,0-2.52,0c-0.9,0-1.8,0-2.7,0
	c0-0.18,0-0.359,0-0.54c0-0.12,0-0.239,0-0.36c0-0.18,0-0.359,0-0.539c0-0.36,0-0.721,0-1.08c0-0.12,0-0.24,0-0.36
	c0-0.181,0-0.36,0-0.54c0-0.359,0-0.72,0-1.08c0-0.18,0-0.359,0-0.54c-0.24,0-0.479,0-0.72,0c-0.18,0-0.36,0-0.54,0s-0.36,0-0.54,0
	c-0.24,0-0.48,0-0.72,0c-0.84,0-1.681,0-2.521,0c0-0.43,0-0.84,0-1.26s0-0.84,0-1.261c0-0.899,0-1.799,0-2.699c0-0.42,0-0.84,0-1.26
	s0-0.84,0-1.26c0-0.9,0-1.801,0-2.701c-0.84,0-1.68,0-2.52,0c-0.9,0-1.8,0-2.7,0c0,2.58,0,5.16,0,7.74s0,5.16,0,7.74
	c0,1.74,0,3.48,0,5.221c-0.9,0-1.8,0-2.7,0c-0.84,0-1.68,0-2.52,0C238.86,156.541,238.86,157.38,238.86,158.22z"/>
<path fill="#814221" d="M238.86,153c0,0.9,0,1.801,0,2.701c0.84,0,1.68,0,2.52,0c0.9,0,1.8,0,2.7,0c0-1.74,0-3.48,0-5.221
	c-0.84,0-1.68,0-2.521,0c-0.899,0-1.8,0-2.699,0C238.86,151.32,238.86,152.16,238.86,153z"/>
<path fill="#302F2E" d="M238.86,57.06c0,1.74,0,3.48,0,5.22c0.899,0,1.8,0,2.699,0c0.421,0,0.841,0,1.261,0s0.84,0,1.26,0
	c0-1.74,0-3.48,0-5.22c-0.84,0-1.68,0-2.521,0C240.66,57.06,239.76,57.06,238.86,57.06z"/>
<path fill="#814221" d="M244.08,67.5c0,1.74,0,3.48,0,5.221c0.9,0,1.8,0,2.7,0c0.84,0,1.68,0,2.52,0c0-0.84,0-1.68,0-2.52
	c0-0.42,0-0.84,0-1.261c0-0.18,0-0.36,0-0.54c0-0.24,0-0.48,0-0.72c0-0.06,0-0.12,0-0.181c-0.84,0-1.68,0-2.52,0
	C245.88,67.5,244.98,67.5,244.08,67.5z"/>
<path fill="#302F2E" d="M244.08,62.28c0,1.73,0,3.48,0,5.219c0.9,0,1.8,0,2.7,0c0.84,0,1.68,0,2.52,0c0-0.18,0-0.359,0-0.539
	s0-0.36,0-0.541c0-0.18,0-0.359,0-0.539c0-0.24,0-0.48,0-0.72c0-0.181,0-0.36,0-0.541c0-0.18,0-0.359,0-0.539c0-0.42,0-0.84,0-1.26
	c0-0.18,0-0.36,0-0.54c-0.24,0-0.479,0-0.72,0s-0.48,0-0.72,0c-0.42,0-0.841,0-1.261,0C245.76,62.28,244.92,62.28,244.08,62.28z"/>
<path fill="#302F2E" d="M249.3,132.48c0,0.84,0,1.68,0,2.52c0.84,0,1.681,0,2.521,0s1.68,0,2.52,0c0-1.379,0-2.76,0-4.139
	c0-1.381,0-2.761,0-4.141s0-2.76,0-4.141c0-1.439,0-2.879,0-4.319c0-1.38,0-2.761,0-4.14c0-1.44,0-2.881,0-4.32
	c0-2.82,0-5.641,0-8.46c0-1.38,0-2.761,0-4.14c0-1.44,0-2.881,0-4.32c0-1.381,0-2.76,0-4.141c0-1.439,0-2.879,0-4.32
	c0-0.119,0-0.239,0-0.359c0-0.18,0-0.359,0-0.55c0-0.351,0-0.71,0-1.07c0-0.72,0-1.44,0-2.159c0-1.44,0-2.881,0-4.32
	c0-0.12,0-0.24,0-0.36c0-0.181,0-0.36,0-0.54c0-0.359,0-0.72,0-1.08c0-0.72,0-1.439,0-2.16c0-1.439,0-2.88,0-4.32
	c-0.06,0-0.12,0-0.18,0c-0.78,0-1.561,0-2.34,0c-0.84,0-1.681,0-2.521,0c0,0.061,0,0.121,0,0.181c0,0.239,0,0.479,0,0.72
	c0,0.18,0,0.36,0,0.54c0,0.421,0,0.841,0,1.261c0,0.84,0,1.68,0,2.52c0,0.54,0,1.08,0,1.62c0,0.17,0,0.36,0,0.54
	c0,0.119,0,0.24,0,0.359c0,0.24,0,0.48,0,0.721c0,0.539,0,1.08,0,1.619c0,0.181,0,0.36,0,0.541c0,0.119,0,0.24,0,0.359
	c0,0.24,0,0.48,0,0.721c0,0.539,0,1.08,0,1.619c0,0.18,0,0.36,0,0.541c0,0.119,0,0.239,0,0.359c0,0.24,0,0.48,0,0.72
	c0,0.54,0,1.07,0,1.62c0,0.18,0,0.359,0,0.54c0,0.12,0,0.24,0,0.36c0,0.24,0,0.479,0,0.72c0,0.181,0,0.36,0,0.54
	c0,0.12,0,0.24,0,0.359c0,0.24,0,0.48,0,0.721c0,0.54,0,1.08,0,1.619c0,0.541,0,1.08,0,1.621c0,0.539,0,1.08,0,1.619
	c0,0.541,0,1.08,0,1.621c0,0.539,0,1.08,0,1.619c0,0.54,0,1.08,0,1.61c0,0.55,0,1.09,0,1.63c0,0.359,0,0.721,0,1.08
	c0,0.29,0,0.6,0,0.9c0,0.359,0,0.72,0,1.08c0,0.299,0,0.6,0,0.899c0,0.36,0,0.72,0,1.08c0,0.3,0,0.601,0,0.899
	c0,0.36,0,0.721,0,1.08c0,0.181,0,0.351,0,0.541c0,0.119,0,0.239,0,0.359c0,0.359,0,0.721,0,1.08c0,0.18,0,0.359,0,0.54
	c0,0.12,0,0.239,0,0.36c0,0.359,0,0.72,0,1.08c0,0.18,0,0.359,0,0.539c0,0.121,0,0.24,0,0.351c0,0.37,0,0.729,0,1.09
	c0,0.181,0,0.36,0,0.54c0,0.12,0,0.24,0,0.359c0,0.601,0,1.201,0,1.801c0,0.9,0,1.8,0,2.699c0,0.42,0,0.841,0,1.261s0,0.84,0,1.25
	c0,0.909,0,1.81,0,2.71c0,0.42,0,0.84,0,1.26s0,0.84,0,1.26c0,0.9,0,1.801,0,2.7c0,0.421,0,0.841,0,1.261s0,0.84,0,1.26
	s0,0.84,0,1.26S249.3,132.06,249.3,132.48z"/>
<path fill="#302F2E" d="M254.34,164.701c0,0.479,0,0.959,0,1.439c0.18,0,0.36,0,0.54,0s0.36,0,0.54,0s0.36,0,0.54,0s0.36,0,0.54,0
	c0.24,0,0.48,0,0.72,0c0.181,0,0.36,0,0.54,0c0.181,0,0.36,0,0.54,0c0.181,0,0.36,0,0.54,0c0.24,0,0.48,0,0.72,0
	c0.181,0,0.36,0,0.54,0c0.181,0,0.36,0,0.54,0c0.181,0,0.36,0,0.54,0c0.24,0,0.48,0,0.721,0c0.18,0,0.359,0,0.54,0
	c0.18,0,0.359,0,0.54,0c0.42,0,0.84,0,1.26,0c0.18,0,0.359,0,0.54,0c0-0.061,0-0.13,0-0.18c0-0.061,0-0.12,0-0.18
	c0-0.121,0-0.24,0-0.361c0-0.239,0-0.479,0-0.719c0-0.42,0-0.84,0-1.261c0-0.43,0-0.84,0-1.26s0-0.84,0-1.261
	c-0.84,0-1.681,0-2.521,0c-0.42,0-0.84,0-1.26,0c-0.48,0-0.96,0-1.44,0c-0.84,0-1.68,0-2.52,0c-0.9,0-1.8,0-2.7,0
	c0,0.841,0,1.681,0,2.521C254.34,163.861,254.34,164.281,254.34,164.701z"/>
<path fill="#814221" d="M254.34,158.4c0,0.84,0,1.68,0,2.52c0.9,0,1.8,0,2.7,0c0.84,0,1.68,0,2.52,0c0.48,0,0.96,0,1.44,0
	c0.42,0,0.84,0,1.26,0c0.84,0,1.681,0,2.521,0c0-0.42,0-0.84,0-1.26s0-0.84,0-1.26s0-0.84,0-1.26c0-0.48,0-0.96,0-1.439
	c-0.181,0-0.36,0-0.54,0c-0.181,0-0.36,0-0.54,0c-0.181,0-0.36,0-0.54,0c-0.24,0-0.48,0-0.72,0c-0.841,0-1.681,0-2.521,0
	c-0.18,0-0.36,0-0.54,0c-0.24,0-0.479,0-0.72,0c-0.18,0-0.36,0-0.54,0c-0.24,0-0.48,0-0.72,0c-0.841,0-1.681,0-2.521,0
	c-0.18,0-0.36,0-0.54,0c0,0.06,0,0.119,0,0.18c0,0.06,0,0.119,0,0.18c0,0.12,0,0.24,0,0.359c0,0.24,0,0.48,0,0.721
	C254.34,157.56,254.34,157.98,254.34,158.4z"/>
<path fill="#302F2E" d="M264.78,159.66c0,0.42,0,0.84,0,1.26c0.479,0,0.96,0,1.439,0c0.42,0,0.84,0,1.261,0c0.239,0,0.479,0,0.72,0
	c0.18,0,0.359,0,0.54,0c0.24,0,0.479,0,0.72,0c0.12,0,0.24,0,0.36,0c0.06,0,0.12,0,0.18,0c0-0.42,0-0.84,0-1.26
	c0-0.18,0-0.359,0-0.539c0-0.181,0-0.36,0-0.541c0-0.779,0-1.569,0-2.34c0-0.18,0-0.359,0-0.539c-0.06,0-0.12,0-0.18,0
	c-0.12,0-0.24,0-0.36,0c-0.24,0-0.479,0-0.72,0c-0.181,0-0.36,0-0.54,0c-0.24,0-0.48,0-0.72,0c-0.181,0-0.36,0-0.54,0
	c-0.24,0-0.48,0-0.721,0c-0.479,0-0.96,0-1.439,0c0,0.479,0,0.959,0,1.439c0,0.42,0,0.84,0,1.26S264.78,159.24,264.78,159.66z"/>
</svg>
