<?xml version="1.0" encoding="utf-8"?>
<!-- Generator: Adobe Illustrator 15.0.0, SVG Export Plug-In  -->
<!DOCTYPE svg PUBLIC "-//W3C//DTD SVG 1.1//EN" "http://www.w3.org/Graphics/SVG/1.1/DTD/svg11.dtd" [
	<!ENTITY ns_flows "http://ns.adobe.com/Flows/1.0/">
]>
<svg version="1.1"
	 xmlns="http://www.w3.org/2000/svg" xmlns:xlink="http://www.w3.org/1999/xlink" xmlns:a="http://ns.adobe.com/AdobeSVGViewerExtensions/3.0/"
	 x="0px" y="0px" width="300px" height="230px" viewBox="-15.44 -17.07 300 230" enable-background="new -15.44 -17.07 300 230"
	 xml:space="preserve">
<defs>
</defs>
<path fill="#302F2E" d="M0,103.861c0,1.739,0,3.479,0,5.219c1.681,0,3.36,0,5.04,0c0-1.739,0-3.479,0-5.219c-1.5,0-3,0-4.5,0
	C0.36,103.861,0.181,103.861,0,103.861z"/>
<path fill="#302F2E" d="M5.04,116.64c0,0.9,0,1.8,0,2.7c1.74,0,3.48,0,5.221,0c0-1.681,0-3.36,0-5.04c0-1.561,0-3.12,0-4.68
	c0-0.181,0-0.36,0-0.541c-1.74,0-3.48,0-5.221,0c0,0.84,0,1.681,0,2.521c0,0.41,0,0.84,0,1.261c0,0.18,0,0.359,0,0.539
	c0,0.24,0,0.48,0,0.721c0,0.18,0,0.359,0,0.539c0,0.24,0,0.48,0,0.721C5.04,115.8,5.04,116.22,5.04,116.64z"/>
<path fill="#D4D5D7" d="M5.04,103.861c0,1.739,0,3.479,0,5.219c1.74,0,3.48,0,5.221,0c0,0.181,0,0.36,0,0.541c0,1.56,0,3.119,0,4.68
	c1.739,0,3.479,0,5.22,0c0,0.18,0,0.359,0,0.54c0,1.5,0,3,0,4.5c3.479,0,6.96,0,10.44,0c0,1.739,0,3.479,0,5.22
	c3.479,0,6.96,0,10.439,0c0,1.74,0,3.48,0,5.221c0.18,0,0.36,0,0.54,0s0.36,0,0.54,0s0.36,0,0.54,0c0.12,0,0.24,0,0.36,0
	c0.18,0,0.359,0,0.54,0c0.18,0,0.359,0,0.54,0c0.18,0,0.359,0,0.539,0c0.12,0,0.24,0,0.36,0c0.18,0,0.36,0,0.54,0s0.36,0,0.54,0
	s0.36,0,0.54,0c0.12,0,0.24,0,0.36,0c0.18,0,0.359,0,0.54,0c0.18,0,0.359,0,0.54,0c0.18,0,0.359,0,0.54,0c0.119,0,0.239,0,0.359,0
	c2.58,0,5.16,0,7.74,0s5.16,0,7.74,0s5.16,0,7.739,0c0-0.841,0-1.681,0-2.521c0-0.42,0-0.841,0-1.261c0-0.239,0-0.489,0-0.719
	c0-0.24,0-0.48,0-0.721c5.16,0,10.32,0,15.48,0c0-0.9,0-1.8,0-2.699c0-0.851,0-1.681,0-2.521c-1.74,0-3.48,0-5.22,0
	c0-0.181,0-0.36,0-0.54c0-1.62,0-3.24,0-4.86c0-0.78,0-1.56,0-2.34c0-0.42,0-0.84,0-1.26c0-0.36,0-0.72,0-1.08
	c0-0.06,0-0.12,0-0.181c0.18,0,0.359,0,0.54,0c3.3,0,6.6,0,9.899,0c0-1.739,0-3.479,0-5.219c0-1.74,0-3.48,0-5.221
	c-5.16,0-10.319,0-15.479,0c0-1.74,0-3.48,0-5.221c-5.221,0-10.44,0-15.66,0c0-1.739,0-3.479,0-5.219c-1.68,0-3.36,0-5.04,0
	c-1.74,0-3.48,0-5.22,0c-1.74,0-3.48,0-5.221,0c-1.739,0-3.479,0-5.22,0s-3.479,0-5.22,0s-3.48,0-5.22,0c0,3.479,0,6.959,0,10.439
	c-1.74,0-3.48,0-5.221,0c0,1.74,0,3.48,0,5.221C15.48,103.861,10.261,103.861,5.04,103.861z"/>
<path fill="#302F2E" d="M5.04,98.64c0,1.74,0,3.48,0,5.221c5.221,0,10.44,0,15.66,0c0-1.74,0-3.48,0-5.221
	C15.48,98.64,10.261,98.64,5.04,98.64z"/>
<path fill="#302F2E" d="M10.261,124.01c0,0.19,0,0.37,0,0.55c1.739,0,3.479,0,5.22,0c0-1.74,0-3.48,0-5.22c-1.74,0-3.48,0-5.22,0
	C10.261,120.9,10.261,122.46,10.261,124.01z"/>
<path fill="#FFFFFF" d="M10.261,114.3c0,1.68,0,3.359,0,5.04c1.739,0,3.479,0,5.22,0c0-1.5,0-3,0-4.5c0-0.181,0-0.36,0-0.54
	C13.74,114.3,12,114.3,10.261,114.3z"/>
<path fill="#302F2E" d="M15.48,127.08c0,0.9,0,1.801,0,2.701c3.479,0,6.96,0,10.44,0c0-1.74,0-3.48,0-5.221c-3.48,0-6.961,0-10.44,0
	C15.48,125.4,15.48,126.24,15.48,127.08z"/>
<path fill="#FFFFFF" d="M15.48,119.34c0,1.739,0,3.479,0,5.22c3.479,0,6.96,0,10.44,0c0-1.74,0-3.48,0-5.22
	C22.44,119.34,18.96,119.34,15.48,119.34z"/>
<path fill="#302F2E" d="M15.48,82.44c0,0.181,0,0.36,0,0.54c0.06,0,0.12,0,0.18,0c0.84,0,1.681,0,2.521,0s1.68,0,2.52,0
	c0-1.619,0-3.24,0-4.859c0-0.061,0-0.121,0-0.181c0.181,0,0.36,0,0.54,0c0.42,0,0.84,0,1.26,0c0.36,0,0.721,0,1.08,0
	c0.36,0,0.721,0,1.08,0c0.12,0,0.24,0,0.36,0c0.18,0,0.36,0,0.54,0c0.06,0,0.12,0,0.18,0c0.061,0,0.12,0,0.181,0
	c0,0.181,0,0.36,0,0.54c0,0.36,0,0.721,0,1.08c0,0.18,0,0.359,0,0.54c0,0.12,0,0.24,0,0.36c0,0.359,0,0.72,0,1.08
	c0,0.18,0,0.359,0,0.539c0,0.121,0,0.24,0,0.36c0,0.181,0,0.36,0,0.54c-0.48,0-0.961,0-1.44,0c-0.42,0-0.84,0-1.26,0
	c-0.84,0-1.681,0-2.521,0c0,1.26,0,2.52,0,3.78c0,1.319,0,2.64,0,3.96c0,0.66,0,1.32,0,1.98s0,1.31,0,1.979c0,1.319,0,2.64,0,3.96
	c1.74,0,3.48,0,5.221,0c0-3.48,0-6.96,0-10.439c1.739,0,3.479,0,5.22,0c0-1.74,0-3.48,0-5.221c0.18,0,0.359,0,0.54,0
	c0.72,0,1.439,0,2.16,0c0.359,0,0.72,0,1.08,0c0.18,0,0.359,0,0.539,0c0.12,0,0.24,0,0.36,0c0.18,0,0.36,0,0.54,0
	c0,0.9,0,1.801,0,2.7c0,0.42,0,0.83,0,1.26c0,0.421,0,0.841,0,1.261c1.74,0,3.48,0,5.22,0c1.74,0,3.48,0,5.221,0
	c1.739,0,3.479,0,5.22,0c1.68,0,3.36,0,5.04,0c0,1.739,0,3.479,0,5.219c5.22,0,10.439,0,15.66,0c0,1.74,0,3.48,0,5.221
	c5.16,0,10.319,0,15.479,0c3.48,0,6.96,0,10.44,0c3.42,0,6.84,0,10.26,0c0-3.48,0-6.96,0-10.439c1.74,0,3.48,0,5.22,0
	c0,3.479,0,6.959,0,10.439c5.221,0,10.44,0,15.66,0c0-3.48,0-6.96,0-10.439c0.18,0,0.36,0,0.54,0c1.38,0,2.76,0,4.14,0
	c0.181,0,0.36,0,0.54,0c0,3.479,0,6.959,0,10.439c6.721,0,13.44,0,20.16,0c0.181,0,0.36,0,0.54,0c0-1.74,0-3.48,0-5.221
	c-5.16,0-10.319,0-15.479,0c0-0.18,0-0.359,0-0.539c0-0.78,0-1.561,0-2.34c0-0.78,0-1.561,0-2.34c0-0.36,0-0.721,0-1.08
	c0-0.181,0-0.36,0-0.541c0-0.239,0-0.479,0-0.719c0-0.181,0-0.361,0-0.541s0-0.359,0-0.539c0-0.42,0-0.841,0-1.271
	c0-0.17,0-0.351,0-0.53c-0.061,0-0.12,0-0.181,0c-0.84,0-1.68,0-2.52,0s-1.68,0-2.521,0c0-0.42,0-0.84,0-1.26s0-0.84,0-1.26
	c0-0.84,0-1.68,0-2.521c-2.159,0-4.319,0-6.479,0s-4.32,0-6.48,0c-4.38,0-8.76,0-13.14,0c0,0.841,0,1.681,0,2.521s0,1.68,0,2.52
	c-1.68,0-3.36,0-5.04,0c0-1.26,0-2.52,0-3.779c0-0.121,0-0.24,0-0.36c0-0.181,0-0.36,0-0.54c0-0.36,0-0.721,0-1.08
	c0-0.12,0-0.24,0-0.359c0-0.181,0-0.361,0-0.541c0-0.359,0-0.72,0-1.08c0-1.26,0-2.52,0-3.779c0-0.66,0-1.32,0-1.98s0-1.32,0-1.98
	c-1.56,0-3.12,0-4.68,0c-0.181,0-0.36,0-0.54,0c0,0.061,0,0.121,0,0.181c0,0.36,0,0.72,0,1.08c0,0.42,0,0.84,0,1.25
	c0,0.851,0,1.69,0,2.53s0,1.68,0,2.52c0,0.42,0,0.84,0,1.26c0,0.18,0,0.36,0,0.541c0,0.239,0,0.479,0,0.719c0,0.84,0,1.681,0,2.521
	c0,0.41,0,0.84,0,1.261c0,0.18,0,0.359,0,0.539c0,0.24,0,0.48,0,0.721c0,0.84,0,1.68,0,2.52s0,1.68,0,2.52c0,0.181,0,0.351,0,0.541
	c1.74,0,3.479,0,5.22,0c0,1.739,0,3.479,0,5.219c-3.479,0-6.96,0-10.439,0c0-0.18,0-0.359,0-0.539c0-1.381,0-2.76,0-4.141
	c0-0.18,0-0.359,0-0.539c-0.061,0-0.12,0-0.181,0c-0.84,0-1.68,0-2.52,0s-1.681,0-2.521,0c-1.74,0-3.479,0-5.22,0
	c-1.68,0-3.36,0-5.04,0c-1.74,0-3.48,0-5.22,0c0-0.84,0-1.681,0-2.521c0-0.899,0-1.8,0-2.7c-2.58,0-5.16,0-7.74,0
	c-0.3,0-0.6,0-0.9,0c-0.359,0-0.72,0-1.08,0c-0.119,0-0.239,0-0.359,0c-0.181,0-0.36,0-0.54,0c-0.36,0-0.72,0-1.08,0
	c-0.12,0-0.24,0-0.36,0c-0.18,0-0.359,0-0.54,0c-0.359,0-0.72,0-1.08,0c-0.119,0-0.239,0-0.359,0c-0.181,0-0.36,0-0.54,0
	c-0.36,0-0.72,0-1.08,0c0-0.18,0-0.359,0-0.54c0-0.12,0-0.239,0-0.36c0-0.18,0-0.359,0-0.539c0-0.36,0-0.721,0-1.08
	c0-0.12,0-0.24,0-0.36c0-0.181,0-0.36,0-0.54c0-0.359,0-0.72,0-1.08c0-0.18,0-0.359,0-0.54c-0.18,0-0.36,0-0.54,0
	c-0.12,0-0.24,0-0.36,0c-0.239,0-0.479,0-0.72,0s-0.48,0-0.72,0c-0.12,0-0.24,0-0.36,0c-0.18,0-0.36,0-0.54,0c-1.08,0-2.16,0-3.24,0
	c-2.159,0-4.319,0-6.479,0s-4.32,0-6.48,0s-4.319,0-6.479,0c0-0.18,0-0.36,0-0.54c0-0.119,0-0.24,0-0.359c0-0.18,0-0.36,0-0.541
	c0-0.359,0-0.719,0-1.08c0-0.719,0-1.439,0-2.159c0-0.181,0-0.36,0-0.54c-0.181,0-0.36,0-0.54,0s-0.36,0-0.54,0
	c-0.12,0-0.24,0-0.36,0c-0.18,0-0.359,0-0.54,0c-0.12,0-0.239,0-0.359,0c-0.181,0-0.36,0-0.54,0c-0.36,0-0.721,0-1.08,0
	c-0.12,0-0.24,0-0.36,0c-0.18,0-0.36,0-0.54,0c-0.359,0-0.72,0-1.08,0c-0.12,0-0.24,0-0.359,0c-0.181,0-0.36,0-0.54,0
	c-0.36,0-0.721,0-1.08,0c-2.58,0-5.16,0-7.74,0c0,0.18,0,0.359,0,0.54c0,0.72,0,1.44,0,2.159c0,0.181,0,0.361,0,0.541
	s0,0.359,0,0.539c0,0.181,0,0.361,0,0.541c0,0.24,0,0.47,0,0.72c0,0.18,0,0.36,0,0.54s0,0.359,0,0.54c0,0.17,0,0.36,0,0.54
	c0,0.24,0,0.48,0,0.72c0,0.181,0,0.36,0,0.54s0,0.359,0,0.54C15.48,81.6,15.48,82.02,15.48,82.44z"/>
<path fill="#814221" d="M20.7,78.121c0,1.619,0,3.24,0,4.859c0.84,0,1.681,0,2.521,0c0.42,0,0.84,0,1.26,0c0.479,0,0.96,0,1.44,0
	c0-0.18,0-0.359,0-0.54c0-0.12,0-0.239,0-0.36c0-0.18,0-0.359,0-0.539c0-0.36,0-0.721,0-1.08c0-0.12,0-0.24,0-0.36
	c0-0.181,0-0.36,0-0.54c0-0.359,0-0.72,0-1.08c0-0.18,0-0.359,0-0.54c-0.061,0-0.12,0-0.181,0c-0.06,0-0.12,0-0.18,0
	c-0.18,0-0.36,0-0.54,0c-0.12,0-0.24,0-0.36,0c-0.359,0-0.72,0-1.08,0c-0.359,0-0.72,0-1.08,0c-0.42,0-0.84,0-1.26,0
	c-0.18,0-0.359,0-0.54,0C20.7,78,20.7,78.06,20.7,78.121z"/>
<path fill="#302F2E" d="M25.921,132.3c0,0.9,0,1.8,0,2.699c3.479,0,6.96,0,10.439,0c0-1.739,0-3.479,0-5.219
	c-3.479,0-6.96,0-10.439,0C25.921,130.621,25.921,131.46,25.921,132.3z"/>
<path fill="#FFFFFF" d="M25.921,124.56c0,1.74,0,3.48,0,5.221c3.479,0,6.96,0,10.439,0c0-1.74,0-3.48,0-5.221
	C32.881,124.56,29.4,124.56,25.921,124.56z"/>
<path fill="#814221" d="M31.141,82.98c0,1.74,0,3.48,0,5.221c1.74,0,3.479,0,5.22,0c0-0.42,0-0.84,0-1.261c0-0.43,0-0.84,0-1.26
	c0-0.899,0-1.8,0-2.7c-0.18,0-0.36,0-0.54,0c-0.12,0-0.24,0-0.36,0c-0.18,0-0.359,0-0.539,0c-0.36,0-0.721,0-1.08,0
	c-0.721,0-1.44,0-2.16,0C31.5,82.98,31.32,82.98,31.141,82.98z"/>
<path fill="#302F2E" d="M36.36,137.52c0,0.899,0,1.8,0,2.7c5.16,0,10.32,0,15.48,0c5.22,0,10.439,0,15.659,0c0-1.74,0-3.48,0-5.221
	c-2.579,0-5.159,0-7.739,0s-5.16,0-7.74,0s-5.16,0-7.74,0c-0.12,0-0.24,0-0.359,0c-0.181,0-0.36,0-0.54,0c-0.36,0-0.721,0-1.08,0
	c-0.12,0-0.24,0-0.36,0c-0.18,0-0.36,0-0.54,0c-0.36,0-0.72,0-1.08,0c-0.12,0-0.24,0-0.36,0c-0.18,0-0.359,0-0.539,0
	c-0.36,0-0.721,0-1.08,0c-0.12,0-0.24,0-0.36,0c-0.18,0-0.36,0-0.54,0c-0.36,0-0.72,0-1.08,0
	C36.36,135.84,36.36,136.68,36.36,137.52z"/>
<path fill="#FFFFFF" d="M36.36,129.781c0,1.739,0,3.479,0,5.219c0.36,0,0.72,0,1.08,0c0.18,0,0.36,0,0.54,0c0.12,0,0.24,0,0.36,0
	c0.359,0,0.72,0,1.08,0c0.18,0,0.359,0,0.539,0c0.12,0,0.24,0,0.36,0c0.36,0,0.72,0,1.08,0c0.18,0,0.36,0,0.54,0
	c0.12,0,0.24,0,0.36,0c0.359,0,0.72,0,1.08,0c0.18,0,0.359,0,0.54,0c0.119,0,0.239,0,0.359,0c2.58,0,5.16,0,7.74,0s5.16,0,7.74,0
	s5.16,0,7.739,0c0-1.739,0-3.479,0-5.219c-2.579,0-5.159,0-7.739,0s-5.16,0-7.74,0s-5.16,0-7.74,0c-0.12,0-0.24,0-0.359,0
	c-0.181,0-0.36,0-0.54,0c-0.181,0-0.36,0-0.54,0c-0.181,0-0.36,0-0.54,0c-0.12,0-0.24,0-0.36,0c-0.18,0-0.36,0-0.54,0
	s-0.36,0-0.54,0s-0.36,0-0.54,0c-0.12,0-0.24,0-0.36,0c-0.18,0-0.359,0-0.539,0c-0.181,0-0.36,0-0.54,0c-0.181,0-0.36,0-0.54,0
	c-0.12,0-0.24,0-0.36,0c-0.18,0-0.36,0-0.54,0s-0.36,0-0.54,0S36.54,129.781,36.36,129.781z"/>
<path fill="#302F2E" d="M67.5,129.781c0,1.739,0,3.479,0,5.219c1.681,0,3.36,0,5.04,0c1.681,0,3.36,0,5.04,0c1.681,0,3.36,0,5.04,0
	c1.681,0,3.36,0,5.04,0c0.181,0,0.36,0,0.54,0c0-0.18,0-0.359,0-0.539s0-0.36,0-0.541c0-0.119,0-0.239,0-0.359
	c0-0.18,0-0.359,0-0.55c0-0.649,0-1.31,0-1.97c0-0.121,0-0.24,0-0.36c0-0.181,0-0.36,0-0.54c0-0.359,0-0.721,0-1.08
	c0-0.12,0-0.24,0-0.359c0-0.19,0-0.36,0-0.541c0-0.359,0-0.72,0-1.08c0-2.58,0-5.16,0-7.739c-1.74,0-3.479,0-5.22,0
	c0,0.84,0,1.67,0,2.521c0,0.899,0,1.799,0,2.699c0,1.74,0,3.48,0,5.221C77.82,129.781,72.66,129.781,67.5,129.781z"/>
<path fill="#FFFFFF" d="M67.5,127.26c0,0.84,0,1.68,0,2.521c5.16,0,10.32,0,15.48,0c0-1.74,0-3.48,0-5.221c-5.16,0-10.32,0-15.48,0
	c0,0.24,0,0.48,0,0.721c0,0.229,0,0.479,0,0.719C67.5,126.419,67.5,126.84,67.5,127.26z"/>
<path fill="#302F2E" d="M77.761,118.8c0,0.18,0,0.359,0,0.54c1.739,0,3.479,0,5.22,0c0-1.681,0-3.36,0-5.04c1.74,0,3.479,0,5.22,0
	c0-1.74,0-3.48,0-5.221c-3.3,0-6.6,0-9.899,0c-0.181,0-0.36,0-0.54,0c0,0.061,0,0.121,0,0.181c0,0.36,0,0.72,0,1.08
	c0,0.42,0,0.84,0,1.26c0,0.78,0,1.56,0,2.34C77.761,115.56,77.761,117.18,77.761,118.8z"/>
<path fill="#302F2E" d="M88.2,103.861c0,1.739,0,3.479,0,5.219c3.48,0,6.96,0,10.44,0c0,0.84,0,1.681,0,2.521c0,0.41,0,0.84,0,1.261
	c0,0.18,0,0.359,0,0.539c0,0.24,0,0.48,0,0.721c0,0.84,0,1.68,0,2.52c0,0.42,0,0.84,0,1.26c0,0.18,0,0.36,0,0.54
	c0,0.24,0,0.479,0,0.72c0,0.84,0,1.681,0,2.521c0,0.42,0,0.84,0,1.26c0,0.181,0,0.36,0,0.54c0,0.24,0,0.48,0,0.721
	c0,0.84,0,1.68,0,2.52s0,1.68,0,2.52c0,0.18,0,0.36,0,0.541c1.74,0,3.479,0,5.22,0c0-3.48,0-6.961,0-10.44c0-1.681,0-3.36,0-5.04
	c0.18,0,0.36,0,0.54,0c3.24,0,6.48,0,9.72,0c0-1.74,0-3.48,0-5.221c-3.42,0-6.84,0-10.26,0c0-1.739,0-3.479,0-5.219
	C98.641,103.861,93.421,103.861,88.2,103.861z"/>
<path fill="#814221" d="M88.2,98.64c0,1.74,0,3.48,0,5.221c5.221,0,10.44,0,15.66,0c0,1.739,0,3.479,0,5.219c3.42,0,6.84,0,10.26,0
	c0-1.739,0-3.479,0-5.219c-1.739,0-3.479,0-5.22,0c0-1.74,0-3.48,0-5.221c-3.42,0-6.84,0-10.26,0
	C95.16,98.64,91.681,98.64,88.2,98.64z"/>
<path fill="#302F2E" d="M103.86,132.3c0,0.9,0,1.8,0,2.699c8.64,0,17.28,0,25.92,0c0-1.739,0-3.479,0-5.219c-8.64,0-17.28,0-25.92,0
	c0,0.42,0,0.84,0,1.26S103.86,131.88,103.86,132.3z"/>
<path fill="#814221" d="M103.86,119.34c0,3.479,0,6.96,0,10.44c8.64,0,17.28,0,25.92,0c0-1.74,0-3.48,0-5.221
	c-1.74,0-3.479,0-5.22,0c0-1.74,0-3.48,0-5.22c-3.48,0-6.96,0-10.44,0C110.7,119.34,107.28,119.34,103.86,119.34z"/>
<path fill="#A06141" d="M103.86,114.3c0,1.68,0,3.359,0,5.04c3.42,0,6.84,0,10.26,0c0-1.681,0-3.36,0-5.04c-3.239,0-6.479,0-9.72,0
	C104.221,114.3,104.04,114.3,103.86,114.3z"/>
<path fill="#814221" d="M103.86,79.201c0,1.26,0,2.52,0,3.779c1.68,0,3.36,0,5.04,0c0-0.84,0-1.68,0-2.52s0-1.68,0-2.521
	c0-0.84,0-1.68,0-2.521c0-0.42,0-0.84,0-1.26c0-0.479,0-0.959,0-1.439c0-0.42,0-0.84,0-1.26s0-0.84,0-1.26c0-0.9,0-1.801,0-2.701
	c-1.68,0-3.36,0-5.04,0c0,0.66,0,1.32,0,1.98s0,1.32,0,1.98c0,1.26,0,2.52,0,3.779c0,0.36,0,0.721,0,1.08c0,0.18,0,0.36,0,0.541
	c0,0.119,0,0.239,0,0.359c0,0.359,0,0.72,0,1.08c0,0.18,0,0.359,0,0.54C103.86,78.96,103.86,79.08,103.86,79.201z"/>
<path fill="#302F2E" d="M103.86,62.28c0,1.73,0,3.48,0,5.219c1.68,0,3.36,0,5.04,0c0-1.739,0-3.479,0-5.219c-1.5,0-3,0-4.5,0
	C104.221,62.28,104.04,62.28,103.86,62.28z"/>
<path fill="#302F2E" d="M108.9,98.64c0,1.74,0,3.48,0,5.221c1.74,0,3.48,0,5.22,0c0-1.74,0-3.48,0-5.221
	C112.381,98.64,110.641,98.64,108.9,98.64z"/>
<path fill="#CDB055" d="M108.9,88.201c0,3.479,0,6.959,0,10.439c1.74,0,3.48,0,5.22,0c0-3.48,0-6.96,0-10.439
	C112.381,88.201,110.641,88.201,108.9,88.201z"/>
<path fill="#A06141" d="M108.9,75.419c0,0.841,0,1.681,0,2.521c4.38,0,8.76,0,13.14,0c2.16,0,4.32,0,6.48,0s4.32,0,6.479,0
	c0.36,0,0.721,0,1.08,0c0.181,0,0.36,0,0.54,0c0.24,0,0.48,0,0.721,0c0.239,0,0.479,0,0.72,0c0.12,0,0.24,0,0.36,0
	c0.42,0,0.84,0,1.26,0c0.18,0,0.359,0,0.54,0c0-0.06,0-0.12,0-0.18s0-0.12,0-0.181c0-0.119,0-0.239,0-0.359c0-0.24,0-0.48,0-0.721
	c0-0.42,0-0.84,0-1.26c0-0.84,0-1.68,0-2.52c1.68,0,3.359,0,5.04,0c0-1.74,0-3.48,0-5.221c-1.681,0-3.36,0-5.04,0
	c-1.74,0-3.48,0-5.221,0c-3.479,0-6.96,0-10.439,0c-3.48,0-6.96,0-10.44,0c-1.739,0-3.479,0-5.22,0c0,0.9,0,1.801,0,2.701
	c0,0.42,0,0.84,0,1.26s0,0.84,0,1.26c0,0.48,0,0.96,0,1.439C108.9,74.58,108.9,75,108.9,75.419z"/>
<path fill="#814221" d="M108.9,62.28c0,1.74,0,3.48,0,5.219c1.74,0,3.48,0,5.22,0c0-1.739,0-3.479,0-5.219
	C112.381,62.28,110.641,62.28,108.9,62.28z"/>
<path fill="#302F2E" d="M108.9,61.2c0,0.36,0,0.72,0,1.08c1.74,0,3.48,0,5.22,0c0-1.74,0-3.48,0-5.22c0-1.74,0-3.48,0-5.22
	c0-1.74,0-3.48,0-5.22c-1.56,0-3.12,0-4.68,0c-0.18,0-0.36,0-0.54,0c0,0.18,0,0.36,0,0.54s0,0.35,0,0.54c0,0.3,0,0.6,0,0.9
	s0,0.6,0,0.9c0,0.36,0,0.72,0,1.08c0,0.12,0,0.24,0,0.36c0,0.18,0,0.36,0,0.54c0,0.36,0,0.72,0,1.08c0,0.12,0,0.24,0,0.36
	c0,0.18,0,0.36,0,0.54c0,0.36,0,0.72,0,1.08c0,0.6,0,1.2,0,1.8c0,0.12,0,0.24,0,0.36c0,0.18,0,0.36,0,0.54c0,0.36,0,0.72,0,1.08
	c0,0.12,0,0.24,0,0.36c0,0.18,0,0.36,0,0.54c0,0.36,0,0.72,0,1.08c0,0.12,0,0.24,0,0.36C108.9,60.84,108.9,61.01,108.9,61.2z"/>
<path fill="#302F2E" d="M108.9,35.82c0,0.18,0,0.36,0,0.54c0.06,0,0.12,0,0.18,0c0.061,0,0.12,0,0.181,0c0.12,0,0.239,0,0.359,0
	c0.24,0,0.48,0,0.721,0c0.42,0,0.84,0,1.26,0s0.84,0,1.26,0s0.84,0,1.26,0c0-0.85,0-1.68,0-2.52c0-0.9,0-1.8,0-2.7
	c0-0.84,0-1.68,0-2.52c0-0.9,0-1.8,0-2.7c0-0.84,0-1.68,0-2.52c0-0.9,0-1.8,0-2.7c0-0.84,0-1.69,0-2.52c0-0.9,0-1.8,0-2.7
	c-0.18,0-0.359,0-0.54,0c-0.18,0-0.359,0-0.54,0c-0.18,0-0.359,0-0.54,0c-0.239,0-0.479,0-0.72,0c-0.18,0-0.359,0-0.54,0
	c-0.18,0-0.359,0-0.54,0c-0.42,0-0.84,0-1.26,0c-0.18,0-0.36,0-0.54,0c0,0.06,0,0.12,0,0.18c0,0.42,0,0.84,0,1.26
	c0,0.42,0,0.84,0,1.26s0,0.83,0,1.26c0,0.42,0,0.84,0,1.26c0,1.68,0,3.36,0,5.04c0,1.68,0,3.36,0,5.04
	C108.9,32.46,108.9,34.14,108.9,35.82z"/>
<path fill="#302F2E" d="M114.12,114.3c0,1.68,0,3.359,0,5.04c3.48,0,6.96,0,10.44,0c0,1.739,0,3.479,0,5.22c1.74,0,3.479,0,5.22,0
	c0-1.68,0-3.359,0-5.05c0-0.05,0-0.11,0-0.17c0.18,0,0.36,0,0.54,0c1.38,0,2.76,0,4.14,0c0.181,0,0.36,0,0.54,0
	c0,1.739,0,3.479,0,5.22c-1.739,0-3.479,0-5.22,0c0,1.74,0,3.48,0,5.221c1.74,0,3.48,0,5.22,0c0,0.119,0,0.229,0,0.359
	c0,0.12,0,0.24,0,0.359c0,0.181,0,0.361,0,0.541c0,0.119,0,0.24,0,0.359c0,0.18,0,0.36,0,0.54c0,0.66,0,1.32,0,1.979
	c0,0.121,0,0.24,0,0.361c0,0.18,0,0.359,0,0.539c0,0.12,0,0.24,0,0.36c0,0.181,0,0.36,0,0.54c0,0.66,0,1.32,0,1.98
	c0,0.119,0,0.239,0,0.359c0,0.18,0,0.359,0,0.54c0,0.12,0,0.24,0,0.36c0,0.18,0,0.359,0,0.539c0,0.66,0,1.32,0,1.98s0,1.32,0,1.98
	s0,1.32,0,1.979c0.24,0,0.48,0,0.721,0c0.239,0,0.479,0,0.72,0c0.42,0,0.84,0,1.26,0c0.84,0,1.681,0,2.521,0c0-0.899,0-1.8,0-2.7
	c0-0.84,0-1.68,0-2.52c0-0.9,0-1.801,0-2.7c0-0.84,0-1.68,0-2.521c0-0.899,0-1.799,0-2.699c0-0.84,0-1.68,0-2.52
	c0-0.841,0-1.681,0-2.521c0-0.42,0-0.841,0-1.261c0-0.239,0-0.489,0-0.719c0-0.121,0-0.24,0-0.361c0-0.059,0-0.119,0-0.18
	c0-0.06,0-0.119,0-0.18c0.18,0,0.359,0,0.54,0c1.5,0,3,0,4.5,0c3.479,0,6.96,0,10.439,0c1.74,0,3.48,0,5.221,0
	c0,1.74,0,3.48,0,5.221c5.159,0,10.319,0,15.479,0c0,1.739,0,3.479,0,5.219c5.22,0,10.44,0,15.66,0c0,1.74,0,3.48,0,5.221
	c5.22,0,10.439,0,15.66,0c0,0.9,0,1.8,0,2.699c0,0.421,0,0.841,0,1.261c0,0.239,0,0.479,0,0.72c0,0.18,0,0.36,0,0.54
	c0,0.841,0,1.681,0,2.521s0,1.68,0,2.52c-0.9,0-1.8,0-2.7,0c-0.84,0-1.68,0-2.521,0c-0.899,0-1.8,0-2.699,0
	c-0.841,0-1.681,0-2.521,0c0,1.74,0,3.48,0,5.221c5.16,0,10.32,0,15.48,0c0-0.9,0-1.801,0-2.701c0-0.84,0-1.68,0-2.52
	c0-1.68,0-3.359,0-5.04c0.899,0,1.8,0,2.699,0c0.841,0,1.681,0,2.521,0c0-0.659,0-1.319,0-1.979s0-1.32,0-1.98c0-1.32,0-2.64,0-3.96
	c0-0.659,0-1.319,0-1.979s0-1.32,0-1.98c0-1.26,0-2.52,0-3.779c-1.74,0-3.48,0-5.22,0c0,1.739,0,3.479,0,5.219
	c-5.04,0-10.08,0-15.12,0c-0.12,0-0.24,0-0.36,0c0-0.899,0-1.799,0-2.699c0-0.84,0-1.68,0-2.52c-5.22,0-10.439,0-15.66,0
	c0-0.9,0-1.801,0-2.701c0-0.84,0-1.68,0-2.52c-5.16,0-10.319,0-15.479,0c0-0.9,0-1.8,0-2.699c0-0.851,0-1.681,0-2.521
	c-6.96,0-13.92,0-20.88,0c0-1.681,0-3.36,0-5.04c-2.58,0-5.16,0-7.74,0s-5.16,0-7.74,0s-5.16,0-7.74,0
	C119.4,114.3,116.761,114.3,114.12,114.3z"/>
<path fill="#814221" d="M114.12,109.08c0,1.74,0,3.48,0,5.221c2.641,0,5.28,0,7.92,0c2.58,0,5.16,0,7.74,0s5.16,0,7.74,0
	s5.16,0,7.74,0c0,1.68,0,3.359,0,5.04c6.96,0,13.92,0,20.88,0c0-1.681,0-3.36,0-5.04c-5.22,0-10.44,0-15.66,0c0-1.74,0-3.48,0-5.221
	c-1.5,0-3,0-4.5,0s-3,0-4.5,0s-3,0-4.5,0c-1.56,0-3.12,0-4.68,0c-3,0-6,0-9,0c-1.5,0-3,0-4.5,0
	C117.24,109.08,115.681,109.08,114.12,109.08z"/>
<path fill="#302F2E" d="M114.12,103.861c0,1.739,0,3.479,0,5.219c1.561,0,3.12,0,4.681,0c1.5,0,3,0,4.5,0c3,0,6,0,9,0
	c1.56,0,3.12,0,4.68,0c1.5,0,3,0,4.5,0s3,0,4.5,0s3,0,4.5,0c0-1.739,0-3.479,0-5.219c-5.16,0-10.32,0-15.48,0c0-1.74,0-3.48,0-5.221
	c-1.739,0-3.479,0-5.22,0c0,1.74,0,3.48,0,5.221C124.561,103.861,119.341,103.861,114.12,103.861z"/>
<path fill="#CDB055" d="M114.12,98.64c0,1.74,0,3.48,0,5.221c5.221,0,10.44,0,15.66,0c0-1.74,0-3.48,0-5.221
	C124.561,98.64,119.341,98.64,114.12,98.64z"/>
<path fill="#302F2E" d="M114.12,62.28c0,1.74,0,3.48,0,5.219c3.48,0,6.96,0,10.44,0c0-1.739,0-3.479,0-5.219c-1.74,0-3.48,0-5.22,0
	C117.601,62.28,115.86,62.28,114.12,62.28z"/>
<path fill="#FFFFFF" d="M114.12,57.06c0,1.74,0,3.48,0,5.22c1.74,0,3.48,0,5.221,0c0-1.74,0-3.48,0-5.22
	C117.601,57.06,115.86,57.06,114.12,57.06z"/>
<path fill="#282828" d="M114.12,51.84c0,1.74,0,3.48,0,5.22c1.74,0,3.48,0,5.221,0c0-1.74,0-3.48,0-5.22
	C117.601,51.84,115.86,51.84,114.12,51.84z"/>
<path fill="#814221" d="M114.12,46.62c0,1.74,0,3.48,0,5.22c1.74,0,3.48,0,5.221,0c0-1.74,0-3.48,0-5.22
	C117.601,46.62,115.86,46.62,114.12,46.62z"/>
<path fill="#302F2E" d="M114.12,43.92c0,0.9,0,1.8,0,2.7c1.74,0,3.48,0,5.221,0c0-1.68,0-3.36,0-5.04c0-0.84,0-1.68,0-2.52
	c0-0.9,0-1.8,0-2.7c-0.841,0-1.681,0-2.521,0c-0.42,0-0.84,0-1.26,0c-0.48,0-0.96,0-1.44,0c0,0.84,0,1.68,0,2.52
	c0,0.84,0,1.68,0,2.52C114.12,42.24,114.12,43.08,114.12,43.92z"/>
<path fill="#D4D5D7" d="M114.12,33.84c0,0.84,0,1.67,0,2.52c0.48,0,0.96,0,1.44,0c0.42,0,0.84,0,1.26,0c0.84,0,1.68,0,2.521,0
	c0-0.9,0-1.8,0-2.7c0-0.84,0-1.68,0-2.52c0-0.9,0-1.8,0-2.7c0-0.43,0-0.84,0-1.26s0-0.84,0-1.26c0-0.48,0-0.96,0-1.44
	c0-0.42,0-0.84,0-1.26c0-0.84,0-1.68,0-2.52c0-1.74,0-3.48,0-5.22c-0.841,0-1.681,0-2.521,0c-0.42,0-0.84,0-1.26,0
	c-0.18,0-0.36,0-0.54,0c-0.24,0-0.48,0-0.72,0c-0.061,0-0.12,0-0.181,0c0,0.9,0,1.8,0,2.7c0,0.83,0,1.68,0,2.52c0,0.9,0,1.8,0,2.7
	c0,0.84,0,1.68,0,2.52c0,0.9,0,1.8,0,2.7c0,0.84,0,1.68,0,2.52C114.12,32.04,114.12,32.94,114.12,33.84z"/>
<path fill="#302F2E" d="M114.12,12.96c0,0.84,0,1.68,0,2.52c0.061,0,0.12,0,0.181,0c0.239,0,0.479,0,0.72,0c0.18,0,0.36,0,0.54,0
	c0.42,0,0.84,0,1.26,0c0.84,0,1.68,0,2.521,0c0-0.84,0-1.68,0-2.52c0-0.84,0-1.68,0-2.52c-0.181,0-0.36,0-0.54,0
	c-1.38,0-2.761,0-4.141,0c-0.18,0-0.359,0-0.54,0c0,0.06,0,0.12,0,0.18s0,0.12,0,0.18c0,0.12,0,0.24,0,0.36c0,0.18,0,0.35,0,0.54
	C114.12,12.12,114.12,12.54,114.12,12.96z"/>
<path fill="#282828" d="M119.341,57.06c0,1.74,0,3.48,0,5.22c1.739,0,3.479,0,5.22,0c0-1.74,0-3.48,0-5.22
	C122.82,57.06,121.08,57.06,119.341,57.06z"/>
<path fill="#814221" d="M119.341,51.84c0,1.74,0,3.48,0,5.22c1.739,0,3.479,0,5.22,0c0-1.74,0-3.48,0-5.22
	C122.82,51.84,121.08,51.84,119.341,51.84z"/>
<path fill="#A06141" d="M119.341,46.62c0,1.74,0,3.48,0,5.22c1.739,0,3.479,0,5.22,0c0-1.74,0-3.48,0-5.22c1.74,0,3.479,0,5.22,0
	c0,1.74,0,3.48,0,5.22c1.74,0,3.48,0,5.22,0c0-1.74,0-3.48,0-5.22c1.74,0,3.48,0,5.221,0c0-1.68,0-3.36,0-5.04
	c0.18,0,0.359,0,0.54,0c1.5,0,3,0,4.5,0c0,0.18,0,0.36,0,0.54c0,1.32,0,2.64,0,3.96c0,0.18,0,0.36,0,0.54c-1.681,0-3.36,0-5.04,0
	c0,0.89,0,1.8,0,2.7c0,0.84,0,1.68,0,2.52c0,0.9,0,1.8,0,2.7c0,0.84,0,1.68,0,2.52c1.68,0,3.359,0,5.04,0c0-1.74,0-3.48,0-5.22
	c0.18,0,0.359,0,0.54,0c1.56,0,3.12,0,4.68,0c0-1.74,0-3.48,0-5.22c0.18,0,0.36,0,0.54,0c3.3,0,6.6,0,9.9,0c0-1.68,0-3.36,0-5.04
	c0.18,0,0.359,0,0.539,0c1.561,0,3.12,0,4.681,0c0-0.48,0-0.96,0-1.44c0-0.42,0-0.84,0-1.26c0-0.84,0-1.68,0-2.52
	c0-1.74,0-3.48,0-5.22c-8.641,0-17.28,0-25.92,0c-1.74,0-3.48,0-5.221,0c0,1.74,0,3.48,0,5.22c-0.18,0-0.359,0-0.54,0
	c-1.68,0-3.359,0-5.039,0c-1.62,0-3.24,0-4.86,0c0,0.9,0,1.8,0,2.7c0,0.84,0,1.68,0,2.52c-1.74,0-3.48,0-5.22,0
	C119.341,43.26,119.341,44.94,119.341,46.62z"/>
<path fill="#814221" d="M119.341,39.06c0,0.84,0,1.68,0,2.52c1.739,0,3.479,0,5.22,0c0-0.84,0-1.68,0-2.52c0-0.9,0-1.8,0-2.7
	c-0.84,0-1.68,0-2.521,0c-0.42,0-0.84,0-1.26,0c-0.479,0-0.96,0-1.439,0C119.341,37.26,119.341,38.16,119.341,39.06z"/>
<path fill="#302F2E" d="M119.341,33.66c0,0.9,0,1.8,0,2.7c0.479,0,0.96,0,1.439,0c0.42,0,0.84,0,1.26,0c0.841,0,1.681,0,2.521,0
	c0-1.74,0-3.48,0-5.22c-1.74,0-3.48,0-5.22,0C119.341,31.98,119.341,32.82,119.341,33.66z"/>
<path fill="#FFFFFF" d="M119.341,28.44c0,0.9,0,1.8,0,2.7c1.739,0,3.479,0,5.22,0c0-0.84,0-1.68,0-2.52c0-0.42,0-0.84,0-1.26
	c0-0.48,0-0.96,0-1.44c0-0.84,0-1.68,0-2.52c0-0.9,0-1.8,0-2.7c-1.74,0-3.48,0-5.22,0c0,0.84,0,1.68,0,2.52c0,0.42,0,0.84,0,1.26
	c0,0.48,0,0.96,0,1.44c0,0.42,0,0.84,0,1.26S119.341,28.01,119.341,28.44z"/>
<path fill="#302F2E" d="M119.341,15.48c0,1.74,0,3.48,0,5.22c1.739,0,3.479,0,5.22,0c0-1.74,0-3.48,0-5.22c-0.42,0-0.84,0-1.26,0
	s-0.841,0-1.261,0C121.141,15.48,120.24,15.48,119.341,15.48z"/>
<path fill="#302F2E" d="M124.561,187.38c0,5.04,0,10.08,0,15.12c1.74,0,3.479,0,5.22,0c0-0.841,0-1.69,0-2.53c0-0.41,0-0.83,0-1.25
	c0-0.48,0-0.96,0-1.45c0-0.84,0-1.67,0-2.51c0-0.91,0-1.8,0-2.7c0-1.75,0-3.479,0-5.22c-1.56,0-3.12,0-4.68,0c-0.18,0-0.36,0-0.54,0
	C124.561,187.01,124.561,187.2,124.561,187.38z"/>
<path fill="#814221" d="M124.561,62.28c0,1.74,0,3.48,0,5.219c3.479,0,6.96,0,10.439,0c1.74,0,3.48,0,5.221,0c1.68,0,3.359,0,5.04,0
	c0-1.739,0-3.489,0-5.219c-1.681,0-3.36,0-5.04,0c0-0.18,0-0.36,0-0.54c0-1.56,0-3.12,0-4.68c0-0.84,0-1.68,0-2.52
	c0-0.9,0-1.8,0-2.7c0-0.84,0-1.68,0-2.52c0-0.9,0-1.81,0-2.7c-1.74,0-3.48,0-5.221,0c0,1.74,0,3.48,0,5.22c-1.739,0-3.479,0-5.22,0
	c0,1.74,0,3.48,0,5.22c0,1.74,0,3.48,0,5.22C128.04,62.28,126.301,62.28,124.561,62.28z"/>
<path fill="#302F2E" d="M124.561,57.06c0,1.74,0,3.48,0,5.22c1.74,0,3.479,0,5.22,0c0-1.74,0-3.48,0-5.22
	C128.04,57.06,126.301,57.06,124.561,57.06z"/>
<path fill="#A06141" d="M124.561,51.84c0,1.74,0,3.48,0,5.22c1.74,0,3.479,0,5.22,0c0-1.74,0-3.48,0-5.22
	C128.04,51.84,126.301,51.84,124.561,51.84z"/>
<path fill="#814221" d="M124.561,46.62c0,1.74,0,3.48,0,5.22c1.74,0,3.479,0,5.22,0c0-1.74,0-3.48,0-5.22
	C128.04,46.62,126.301,46.62,124.561,46.62z"/>
<path fill="#814221" d="M124.561,31.14c0,1.74,0,3.48,0,5.22c1.62,0,3.24,0,4.86,0c1.68,0,3.359,0,5.039,0c0.181,0,0.36,0,0.54,0
	c0-1.74,0-3.48,0-5.22C131.521,31.14,128.04,31.14,124.561,31.14z"/>
<path fill="#302F2E" d="M124.561,28.62c0,0.84,0,1.68,0,2.52c3.479,0,6.96,0,10.439,0c1.74,0,3.48,0,5.221,0c0-0.9,0-1.8,0-2.7
	c0-0.84,0-1.68,0-2.52c-3.48,0-6.96,0-10.44,0c0-1.74,0-3.48,0-5.22c-1.74,0-3.479,0-5.22,0c0,0.9,0,1.8,0,2.7c0,0.84,0,1.68,0,2.52
	c0,0.48,0,0.96,0,1.44C124.561,27.78,124.561,28.2,124.561,28.62z"/>
<path fill="#302F2E" d="M129.78,202.5c0,3.47,0,6.96,0,10.43c1.74,0,3.48,0,5.22,0c1.74,0,3.48,0,5.221,0c1.739,0,3.479,0,5.22,0
	c1.68,0,3.36,0,5.04,0c0-1.73,0-3.47,0-5.21c-1.74,0-3.48,0-5.22,0c0-1.75,0-3.48,0-5.22C140.101,202.5,134.94,202.5,129.78,202.5z"
	/>
<path fill="#814221" d="M129.78,199.97c0,0.84,0,1.689,0,2.53c5.16,0,10.32,0,15.48,0c0,1.739,0,3.47,0,5.22c1.739,0,3.479,0,5.22,0
	c0-0.84,0-1.68,0-2.521c0-0.43,0-0.85,0-1.27c0-0.17,0-0.35,0-0.54c0-0.23,0-0.47,0-0.71c0-0.84,0-1.68,0-2.521
	c0-0.42,0-0.85,0-1.27c0-0.47,0-0.96,0-1.43c0-0.84,0-1.69,0-2.53c0-0.42,0-0.83,0-1.25c0-0.48,0-0.96,0-1.44c0-0.85,0-1.68,0-2.52
	c0-0.42,0-0.84,0-1.26c0-0.49,0-0.96,0-1.45c0-0.05,0-0.12,0-0.17c-1.74,0-3.48,0-5.22,0c0,3.47,0,6.96,0,10.43
	c-3.42,0-6.84,0-10.261,0c0-1.729,0-3.47,0-5.21c-1.739,0-3.479,0-5.22,0c0,0.9,0,1.79,0,2.7c0,0.84,0,1.67,0,2.51
	c0,0.49,0,0.97,0,1.45C129.78,199.14,129.78,199.56,129.78,199.97z"/>
<path fill="#A06141" d="M129.78,186.84c0,1.74,0,3.47,0,5.22c1.74,0,3.48,0,5.22,0c0,1.74,0,3.48,0,5.21c3.421,0,6.841,0,10.261,0
	c0-3.47,0-6.96,0-10.43c0-1.62,0-3.24,0-4.87c0-1.62,0-3.23,0-4.85c0-0.19,0-0.36,0-0.54c-0.061,0-0.12,0-0.181,0
	c-0.06,0-0.12,0-0.18,0c-0.12,0-0.24,0-0.36,0c-0.239,0-0.479,0-0.72,0c-0.42,0-0.84,0-1.26,0c-0.84,0-1.68,0-2.521,0
	c-1.68,0-3.359,0-5.04,0c0,0.06,0,0.119,0,0.18c0,0.24,0,0.479,0,0.71c0,0.189,0,0.37,0,0.54c0,0.42,0,0.84,0,1.26
	c0,0.43,0,0.851,0,1.271s0,0.84,0,1.26c0,1.67,0,3.359,0,5.04C133.261,186.84,131.521,186.84,129.78,186.84z"/>
<path fill="#302F2E" d="M129.78,184.14c0,0.9,0,1.79,0,2.7c1.74,0,3.48,0,5.22,0c0-1.681,0-3.37,0-5.04c0-0.42,0-0.84,0-1.26
	s0-0.841,0-1.271c0-0.42,0-0.84,0-1.26c0-0.17,0-0.351,0-0.54c0-0.23,0-0.47,0-0.71c0-0.061,0-0.12,0-0.18c-0.42,0-0.84,0-1.26,0
	s-0.84,0-1.26,0c-0.18,0-0.36,0-0.54,0c-0.24,0-0.48,0-0.72,0c-0.48,0-0.96,0-1.44,0c0,1.68,0,3.35,0,5.04
	C129.78,182.46,129.78,183.3,129.78,184.14z"/>
<path fill="#814221" d="M129.78,119.51c0,1.69,0,3.37,0,5.05c1.74,0,3.48,0,5.22,0c0-1.74,0-3.48,0-5.22c-0.18,0-0.359,0-0.54,0
	c-1.38,0-2.76,0-4.14,0c-0.18,0-0.36,0-0.54,0C129.78,119.4,129.78,119.46,129.78,119.51z"/>
<path fill="#CDB055" d="M129.78,88.201c0,3.479,0,6.959,0,10.439c1.74,0,3.48,0,5.22,0c0-3.48,0-6.96,0-10.439
	c-0.18,0-0.359,0-0.54,0c-1.38,0-2.76,0-4.14,0C130.141,88.201,129.96,88.201,129.78,88.201z"/>
<path fill="#523822" d="M129.78,20.7c0,1.74,0,3.48,0,5.22c3.48,0,6.96,0,10.44,0c0-0.84,0-1.68,0-2.52c0-0.42,0-0.84,0-1.26
	c0-0.24,0-0.48,0-0.72c0-0.12,0-0.24,0-0.36c0-0.06,0-0.12,0-0.18c0-0.06,0-0.12,0-0.18c8.64,0,17.279,0,25.92,0
	c0,1.74,0,3.48,0,5.22c1.74,0,3.479,0,5.22,0c0-0.91,0-1.8,0-2.7c0-0.84,0-1.68,0-2.52c1.68,0,3.36,0,5.04,0c0-0.9,0-1.8,0-2.7
	c0-0.84,0-1.68,0-2.52c0.9,0,1.8,0,2.7,0c0.42,0,0.84,0,1.26,0s0.84,0,1.26,0c0-0.42,0-0.84,0-1.26s0-0.84,0-1.26
	c0-0.42,0-0.84,0-1.26c0-0.19,0-0.36,0-0.54c0-0.12,0-0.24,0-0.36c0-0.06,0-0.12,0-0.18s0-0.12,0-0.18c1.74,0,3.48,0,5.221,0
	c0-1.74,0-3.48,0-5.22c-1.681,0-3.36,0-5.04,0c-0.42,0-0.841,0-1.261,0s-0.84,0-1.26,0s-0.84,0-1.26,0c-0.48,0-0.96,0-1.44,0
	c-1.68,0-3.359,0-5.04,0c-0.42,0-0.84,0-1.26,0s-0.84,0-1.26,0s-0.84,0-1.26,0c-0.24,0-0.48,0-0.721,0c-0.18,0-0.359,0-0.54,0
	c-0.06,0-0.119,0-0.18,0c-0.06,0-0.12,0-0.18,0c0,1.74,0,3.48,0,5.22c-0.181,0-0.36,0-0.54,0c-6.78,0-13.561,0-20.34,0
	c0,0.42,0,0.84,0,1.26s0,0.84,0,1.26c0,0.42,0,0.84,0,1.26c0,0.36,0,0.72,0,1.08c0,0.06,0,0.12,0,0.18c-0.181,0-0.36,0-0.54,0
	c-0.84,0-1.681,0-2.521,0c-0.24,0-0.479,0-0.72,0c-0.18,0-0.36,0-0.54,0s-0.36,0-0.54,0s-0.36,0-0.54,0c-0.84,0-1.68,0-2.52,0
	c-0.24,0-0.48,0-0.721,0c-0.18,0-0.359,0-0.54,0c-0.18,0-0.359,0-0.54,0c-0.18,0-0.359,0-0.54,0c0,1.74,0,3.48,0,5.22
	c-0.18,0-0.359,0-0.54,0C132.9,20.7,131.341,20.7,129.78,20.7z"/>
<path fill="#302F2E" d="M129.78,18c0,0.9,0,1.8,0,2.7c1.561,0,3.12,0,4.68,0c0.181,0,0.36,0,0.54,0c0-1.74,0-3.48,0-5.22
	c-0.42,0-0.84,0-1.26,0s-0.84,0-1.26,0c-0.9,0-1.8,0-2.7,0C129.78,16.32,129.78,17.16,129.78,18z"/>
<path fill="#302F2E" d="M135,175.14c0,0.48,0,0.96,0,1.44c1.681,0,3.36,0,5.04,0c0.841,0,1.681,0,2.521,0c0.42,0,0.84,0,1.26,0
	c0.24,0,0.48,0,0.72,0c0.12,0,0.24,0,0.36,0c0.06,0,0.12,0,0.18,0c0.061,0,0.12,0,0.181,0c0,0.18,0,0.35,0,0.54
	c0,1.619,0,3.229,0,4.85c0,1.63,0,3.25,0,4.87c1.739,0,3.479,0,5.22,0c0-0.601,0-1.2,0-1.8c0-0.301,0-0.61,0-0.9
	c0-0.37,0-0.72,0-1.08c0-0.67,0-1.32,0-1.979c0-0.311,0-0.61,0-0.9c0-0.37,0-0.72,0-1.08c0-0.13,0-0.25,0-0.36
	c0-0.18,0-0.359,0-0.54c0-0.119,0-0.239,0-0.359c0-0.181,0-0.37,0-0.54c0-0.12,0-0.24,0-0.37c0-0.17,0-0.35,0-0.54
	c0-0.35,0-0.71,0-1.07c0-0.119,0-0.24,0-0.359c0-0.18,0-0.36,0-0.541c0-0.359,0-0.719,0-1.079c0-0.12,0-0.24,0-0.36
	c0-0.18,0-0.359,0-0.54c0-0.36,0-0.72,0-1.079c-0.06,0-0.12,0-0.18,0c-0.061,0-0.12,0-0.181,0c-0.12,0-0.239,0-0.359,0
	c-0.24,0-0.48,0-0.721,0c-0.18,0-0.359,0-0.54,0c-0.239,0-0.479,0-0.72,0c-0.18,0-0.359,0-0.54,0c-0.24,0-0.479,0-0.72,0
	c-0.42,0-0.84,0-1.26,0c0-0.421,0-0.841,0-1.261s0-0.84,0-1.26c0-0.421,0-0.841,0-1.261c0-0.479,0-0.959,0-1.439
	c0-0.42,0-0.84,0-1.26s0-0.84,0-1.26c0-0.9,0-1.801,0-2.701c-1.5,0-3,0-4.5,0c-0.181,0-0.36,0-0.54,0c0,0.061,0,0.121,0,0.181
	s0,0.12,0,0.181c0,0.119,0,0.229,0,0.359c0,0.24,0,0.48,0,0.721c0,0.42,0,0.84,0,1.26c0,0.84,0,1.68,0,2.52s0,1.68,0,2.52
	c0,0.9,0,1.801,0,2.701c-0.42,0-0.84,0-1.261,0c-0.18,0-0.359,0-0.539,0c-0.24,0-0.48,0-0.721,0c-0.42,0-0.84,0-1.26,0
	c-0.48,0-0.96,0-1.44,0c0,0.84,0,1.68,0,2.52C135,174.3,135,174.72,135,175.14z"/>
<path fill="#523822" d="M135,98.64c0,1.74,0,3.48,0,5.221c5.16,0,10.32,0,15.48,0c0,1.739,0,3.479,0,5.219c5.22,0,10.44,0,15.66,0
	c0,1.74,0,3.48,0,5.221c5.16,0,10.319,0,15.479,0c0,1.68,0,3.359,0,5.04c1.74,0,3.48,0,5.221,0c0-1.681,0-3.36,0-5.04
	c5.22,0,10.439,0,15.659,0c0-1.74,0-3.48,0-5.221c1.74,0,3.48,0,5.221,0c0-1.739,0-3.479,0-5.219c0.18,0,0.359,0,0.54,0
	c1.319,0,2.64,0,3.96,0c0.18,0,0.359,0,0.54,0c0-1.74,0-3.48,0-5.221s0-3.48,0-5.221c0-1.739,0-3.479,0-5.219c0-0.9,0-1.801,0-2.701
	c0-0.84,0-1.68,0-2.52c0.479,0,0.96,0,1.439,0c0.42,0,0.84,0,1.26,0c0.841,0,1.681,0,2.521,0c0-0.359,0-0.72,0-1.08
	c0-0.18,0-0.359,0-0.539c0-0.121,0-0.24,0-0.361c0-0.359,0-0.719,0-1.08c0-0.18,0-0.359,0-0.539c0-0.12,0-0.24,0-0.37
	c0-1.25,0-2.511,0-3.771c0-0.359,0-0.729,0-1.08c0-0.18,0-0.359,0-0.539c0-0.121,0-0.24,0-0.36c0-0.66,0-1.32,0-1.979
	c0-1.271,0-2.521,0-3.781c1.74,0,3.479,0,5.22,0c0-1.739,0-3.489,0-5.219c0-0.9,0-1.8,0-2.7c0-0.84,0-1.68,0-2.52
	c1.74,0,3.48,0,5.221,0c0-1.74,0-3.48,0-5.22c0-1.74,0-3.48,0-5.22c0-1.74,0-3.48,0-5.22c0-1.68,0-3.36,0-5.04c-0.9,0-1.801,0-2.7,0
	c-0.84,0-1.681,0-2.521,0c0-0.9,0-1.8,0-2.7c0-0.84,0-1.68,0-2.52c-1.74,0-3.479,0-5.22,0c0-0.18,0-0.36,0-0.54
	c0-0.78,0-1.56,0-2.34c0-0.78,0-1.56,0-2.34c-1.74,0-3.48,0-5.22,0c0-0.91,0-1.8,0-2.7c0-0.84,0-1.68,0-2.52c-1.681,0-3.36,0-5.04,0
	c0-0.19,0-0.36,0-0.54c0-0.78,0-1.56,0-2.34c0-0.42,0-0.84,0-1.26c0-0.18,0-0.36,0-0.55c0-0.17,0-0.35,0-0.53
	c-0.42,0-0.84,0-1.261,0c-0.42,0-0.84,0-1.26,0c-0.899,0-1.8,0-2.7,0c0-0.36,0-0.72,0-1.08c0-0.42,0-0.84,0-1.26
	c0-0.84,0-1.68,0-2.52c0-0.06,0-0.12,0-0.18c-5.22,0-10.439,0-15.659,0c0,0.84,0,1.68,0,2.52c0,0.84,0,1.68,0,2.52
	c0.42,0,0.84,0,1.26,0s0.84,0,1.26,0s0.84,0,1.26,0c0.24,0,0.48,0,0.721,0c0.119,0,0.239,0,0.359,0c0.061,0,0.12,0,0.181,0
	c0.06,0,0.119,0,0.18,0c0,0.18,0,0.36,0,0.53c0,0.91,0,1.81,0,2.71c0,0.84,0,1.68,0,2.52c0,0.84,0,1.68,0,2.52c0,0.84,0,1.68,0,2.52
	c0,1.68,0,3.36,0,5.04c0,1.68,0,3.36,0,5.04c0.899,0,1.8,0,2.7,0c0.84,0,1.68,0,2.52,0c0.9,0,1.8,0,2.7,0c0.84,0,1.68,0,2.52,0
	c0,0.9,0,1.8,0,2.7c0,0.84,0,1.68,0,2.52c1.74,0,3.48,0,5.221,0c0,0.18,0,0.36,0,0.54c0,3.06,0,6.12,0,9.18c0,0.18,0,0.36,0,0.54
	c-1.74,0-3.48,0-5.221,0c0,1.74,0,3.48,0,5.22c-0.18,0-0.359,0-0.54,0c-3.3,0-6.6,0-9.899,0c0,0.9,0,1.8,0,2.7c0,0.84,0,1.68,0,2.52
	c0,0.9,0,1.8,0,2.7c0,0.84,0,1.68,0,2.52c-1.74,0-3.48,0-5.22,0c0,1.74,0,3.48,0,5.221c-0.181,0-0.36,0-0.54,0
	c-1.561,0-3.12,0-4.681,0c0,0.84,0,1.68,0,2.52c0,0.42,0,0.84,0,1.26c0,0.24,0,0.48,0,0.721c0,0.12,0,0.24,0,0.359
	c0,0.061,0,0.121,0,0.181s0,0.12,0,0.18c-0.18,0-0.359,0-0.54,0c-0.42,0-0.84,0-1.26,0c-0.12,0-0.24,0-0.36,0
	c-0.239,0-0.479,0-0.72,0s-0.479,0-0.72,0c-0.18,0-0.36,0-0.54,0c-0.36,0-0.72,0-1.08,0c0,0.841,0,1.681,0,2.521s0,1.68,0,2.52
	c-1.68,0-3.36,0-5.04,0c0,0.9,0,1.801,0,2.7c0,0.84,0,1.681,0,2.521c-1.74,0-3.479,0-5.22,0c0,1.739,0,3.479,0,5.219
	c-0.181,0-0.36,0-0.54,0c-3.3,0-6.601,0-9.9,0c0,1.74,0,3.48,0,5.221c-0.18,0-0.359,0-0.54,0C148.44,98.64,141.721,98.64,135,98.64z
	"/>
<path fill="#814221" d="M135,81.72c0,0.42,0,0.84,0,1.26c0.841,0,1.681,0,2.521,0s1.68,0,2.52,0c0.061,0,0.12,0,0.181,0
	c0,0.18,0,0.36,0,0.53c0,0.43,0,0.851,0,1.271c0,0.18,0,0.359,0,0.539s0,0.36,0,0.541c0,0.239,0,0.479,0,0.719
	c0,0.181,0,0.36,0,0.541c0,0.359,0,0.72,0,1.08c0,0.779,0,1.56,0,2.34c0,0.779,0,1.56,0,2.34c0,0.18,0,0.359,0,0.539
	c5.16,0,10.319,0,15.479,0c0-1.739,0-3.479,0-5.219c0.181,0,0.36,0,0.54,0c3.3,0,6.601,0,9.9,0c0-1.74,0-3.48,0-5.221
	c0.479,0,0.96,0,1.439,0c0.42,0,0.841,0,1.261,0c0.84,0,1.68,0,2.52,0c0-0.84,0-1.68,0-2.52c0-0.42,0-0.84,0-1.26
	c0-0.19,0-0.36,0-0.541c0-0.24,0-0.479,0-0.72c0.18,0,0.36,0,0.54,0c1.5,0,3,0,4.5,0c0-1.739,0-3.479,0-5.22c0.18,0,0.36,0,0.54,0
	c1.56,0,3.12,0,4.68,0c0-1.74,0-3.48,0-5.221c0.181,0,0.36,0,0.54,0c1.561,0,3.12,0,4.681,0c0-1.739,0-3.489,0-5.219
	c0-0.9,0-1.8,0-2.7c0-0.84,0-1.68,0-2.52c1.739,0,3.479,0,5.22,0c0-1.74,0-3.48,0-5.22c0.18,0,0.36,0,0.54,0c3.3,0,6.6,0,9.899,0
	c0-1.68,0-3.36,0-5.04c0-0.42,0-0.84,0-1.26s0-0.84,0-1.26c0-0.84,0-1.68,0-2.52c0-0.06,0-0.12,0-0.18c-5.22,0-10.439,0-15.659,0
	c0,1.68,0,3.36,0,5.04c-1.74,0-3.48,0-5.221,0c0,1.74,0,3.48,0,5.22c-0.18,0-0.359,0-0.54,0c-1.56,0-3.12,0-4.68,0
	c-1.68,0-3.36,0-5.04,0c0-0.18,0-0.36,0-0.54c0-0.66,0-1.32,0-1.98c0-0.72,0-1.44,0-2.16c0-0.18,0-0.36,0-0.54
	c-1.74,0-3.479,0-5.22,0c0,1.74,0,3.48,0,5.22c0,0.9,0,1.8,0,2.7c0,0.84,0,1.68,0,2.52c0,0.9,0,1.8,0,2.7c0,0.84,0,1.68,0,2.52
	c-1.74,0-3.48,0-5.22,0c0,1.74,0,3.48,0,5.219c-5.221,0-10.44,0-15.66,0c0,1.74,0,3.48,0,5.221c-1.681,0-3.36,0-5.04,0
	c0,0.84,0,1.68,0,2.52c0,0.42,0,0.84,0,1.26c0,0.24,0,0.48,0,0.721c0,0.12,0,0.24,0,0.359c0,0.061,0,0.121,0,0.181s0,0.12,0,0.18
	c-0.181,0-0.36,0-0.54,0c-0.42,0-0.84,0-1.26,0c-0.12,0-0.24,0-0.36,0c-0.24,0-0.48,0-0.72,0c-0.24,0-0.48,0-0.721,0
	c-0.18,0-0.359,0-0.54,0c-0.359,0-0.72,0-1.08,0c0,0.841,0,1.681,0,2.521C135,80.88,135,81.3,135,81.72z"/>
<path fill="#302F2E" d="M135,12.96c0,0.84,0,1.68,0,2.52c0.181,0,0.36,0,0.54,0c0.181,0,0.36,0,0.54,0c0.181,0,0.36,0,0.54,0
	c0.24,0,0.48,0,0.721,0c0.84,0,1.68,0,2.52,0c0.18,0,0.36,0,0.54,0s0.36,0,0.54,0s0.36,0,0.54,0c0.24,0,0.479,0,0.72,0
	c0.84,0,1.681,0,2.521,0c0.18,0,0.359,0,0.54,0c0-0.06,0-0.12,0-0.18c0-0.36,0-0.72,0-1.08c0-0.42,0-0.84,0-1.26
	c0-0.42,0-0.84,0-1.26s0-0.84,0-1.26c-3.42,0-6.84,0-10.261,0C135,11.28,135,12.12,135,12.96z"/>
<path fill="#302F2E" d="M140.221,155.16c0,0.181,0,0.36,0,0.541c1.68,0,3.359,0,5.04,0c0-0.9,0-1.801,0-2.701c0-0.84,0-1.68,0-2.52
	c0-1.68,0-3.359,0-5.04c-1.681,0-3.36,0-5.04,0c0,1.62,0,3.24,0,4.86C140.221,151.919,140.221,153.541,140.221,155.16z"/>
<path fill="#814221" d="M140.221,142.74c0,0.9,0,1.801,0,2.7c1.68,0,3.359,0,5.04,0c0-0.43,0-0.84,0-1.26s0-0.84,0-1.261
	c0-0.42,0-0.84,0-1.26c0-0.479,0-0.959,0-1.439c0-0.42,0-0.84,0-1.26s0-0.84,0-1.26s0-0.84,0-1.261c0-0.479,0-0.96,0-1.44
	c0-0.42,0-0.84,0-1.26s0-0.84,0-1.26s0-0.84,0-1.26c0-0.48,0-0.96,0-1.439c0-0.42,0-0.841,0-1.271c0-0.41,0-0.83,0-1.25
	c0-0.899,0-1.8,0-2.7c-1.5,0-3,0-4.5,0c-0.181,0-0.36,0-0.54,0c0,0.061,0,0.12,0,0.18c0,0.061,0,0.121,0,0.18
	c0,0.121,0,0.24,0,0.361c0,0.229,0,0.479,0,0.719c0,0.42,0,0.841,0,1.261c0,0.84,0,1.68,0,2.521c0,0.84,0,1.68,0,2.52
	c0,0.9,0,1.8,0,2.699c0,0.841,0,1.681,0,2.521c0,0.899,0,1.8,0,2.7C140.221,141.06,140.221,141.9,140.221,142.74z"/>
<path fill="#302F2E" d="M140.221,61.74c0,0.18,0,0.36,0,0.54c1.68,0,3.359,0,5.04,0c0-1.74,0-3.48,0-5.22c-1.681,0-3.36,0-5.04,0
	C140.221,58.62,140.221,60.18,140.221,61.74z"/>
<path fill="#814221" d="M140.221,41.58c0,1.68,0,3.36,0,5.04c1.68,0,3.359,0,5.04,0c0-0.18,0-0.36,0-0.54c0-1.32,0-2.64,0-3.96
	c0-0.18,0-0.36,0-0.54c-1.5,0-3,0-4.5,0C140.58,41.58,140.4,41.58,140.221,41.58z"/>
<path fill="#814221" d="M140.221,28.44c0,0.9,0,1.8,0,2.7c8.64,0,17.279,0,25.92,0c0-1.74,0-3.48,0-5.22c-8.641,0-17.28,0-25.92,0
	C140.221,26.76,140.221,27.6,140.221,28.44z"/>
<path fill="#302F2E" d="M140.221,23.4c0,0.84,0,1.68,0,2.52c8.64,0,17.279,0,25.92,0c0-1.74,0-3.48,0-5.22c-8.641,0-17.28,0-25.92,0
	c0,0.06,0,0.12,0,0.18c0,0.06,0,0.12,0,0.18c0,0.12,0,0.24,0,0.36c0,0.24,0,0.48,0,0.72C140.221,22.56,140.221,22.98,140.221,23.4z"
	/>
<path fill="#523822" d="M145.261,170.1c0,0.42,0,0.84,0,1.261c0.42,0,0.84,0,1.26,0c0.24,0,0.479,0,0.72,0c0.181,0,0.36,0,0.54,0
	c0.24,0,0.48,0,0.72,0c0.181,0,0.36,0,0.54,0c0.24,0,0.48,0,0.721,0c0.12,0,0.239,0,0.359,0c0.061,0,0.12,0,0.181,0
	c0.06,0,0.12,0,0.18,0c0,0.359,0,0.719,0,1.079c0,0.181,0,0.36,0,0.54c0,0.12,0,0.24,0,0.36c0,0.36,0,0.72,0,1.079
	c0,0.181,0,0.361,0,0.541c0,0.119,0,0.24,0,0.359c0,0.36,0,0.721,0,1.07c0,0.19,0,0.37,0,0.54c0,0.13,0,0.25,0,0.37
	c0,0.17,0,0.359,0,0.54c0,0.12,0,0.24,0,0.359c0,0.181,0,0.36,0,0.54c0,0.11,0,0.23,0,0.36c0,0.36,0,0.71,0,1.08
	c0,0.29,0,0.59,0,0.9c0,0.659,0,1.31,0,1.979c0,0.36,0,0.71,0,1.08c0,0.29,0,0.6,0,0.9c0,0.6,0,1.199,0,1.8c1.74,0,3.479,0,5.22,0
	c0,5.09,0,10.2,0,15.3c0,0.12,0,0.24,0,0.36c6.061,0,12.12,0,18.181,0c6.06,0,12.119,0,18.18,0c0-1.74,0-3.49,0-5.23
	c5.22,0,10.439,0,15.66,0c0-3.47,0-6.96,0-10.43c-3.48,0-6.96,0-10.44,0c0-2.58,0-5.16,0-7.74c0-2.59,0-5.16,0-7.739
	c0.48,0,0.96,0,1.44,0c0.42,0,0.84,0,1.26,0s0.84,0,1.26,0s0.84,0,1.26,0c0-0.9,0-1.801,0-2.701c0-0.42,0-0.84,0-1.26s0-0.84,0-1.26
	c0-0.48,0-0.96,0-1.439c0-0.42,0-0.84,0-1.261c0-0.84,0-1.68,0-2.521c0.9,0,1.801,0,2.7,0c0.84,0,1.681,0,2.521,0
	c1.68,0,3.359,0,5.04,0c0-1.739,0-3.479,0-5.219c-5.16,0-10.32,0-15.48,0c0,1.739,0,3.479,0,5.219c-0.18,0-0.359,0-0.54,0
	c-1.68,0-3.359,0-5.04,0c-1.62,0-3.24,0-4.859,0c-1.681,0-3.36,0-5.04,0c-1.62,0-3.24,0-4.86,0c-0.18,0-0.36,0-0.54,0
	c0-0.899,0-1.799,0-2.699c0-0.84,0-1.68,0-2.52c-1.68,0-3.36,0-5.04,0c-0.84,0-1.68,0-2.52,0c-0.9,0-1.801,0-2.7,0
	c-0.84,0-1.681,0-2.521,0c-0.899,0-1.8,0-2.699,0c-0.841,0-1.681,0-2.521,0c-0.9,0-1.8,0-2.7,0c0,1.739,0,3.479,0,5.219
	c-0.18,0-0.359,0-0.54,0c-1.68,0-3.359,0-5.04,0c-1.62,0-3.239,0-4.859,0c0,0.9,0,1.801,0,2.701c0,0.42,0,0.84,0,1.26s0,0.84,0,1.26
	c0,0.48,0,0.96,0,1.439c0,0.42,0,0.84,0,1.261C145.261,169.26,145.261,169.68,145.261,170.1z"/>
<path fill="#302F2E" d="M145.261,158.22c0,0.9,0,1.8,0,2.699c1.62,0,3.239,0,4.859,0c1.681,0,3.36,0,5.04,0c0.181,0,0.36,0,0.54,0
	c0-1.739,0-3.479,0-5.219c-0.84,0-1.68,0-2.52,0c-0.181,0-0.36,0-0.54,0c-0.24,0-0.48,0-0.72,0c-0.48,0-0.961,0-1.44,0
	c-0.84,0-1.68,0-2.521,0c-0.18,0-0.359,0-0.539,0c-0.24,0-0.48,0-0.721,0c-0.479,0-0.96,0-1.439,0
	C145.261,156.541,145.261,157.38,145.261,158.22z"/>
<path fill="#814221" d="M145.261,153c0,0.9,0,1.801,0,2.701c0.479,0,0.96,0,1.439,0c0.24,0,0.48,0,0.721,0c0.18,0,0.359,0,0.539,0
	c0.841,0,1.681,0,2.521,0c0-1.74,0-3.48,0-5.221c-0.84,0-1.68,0-2.521,0c-0.42,0-0.84,0-1.26,0c-0.479,0-0.96,0-1.439,0
	C145.261,151.32,145.261,152.16,145.261,153z"/>
<path fill="#A06141" d="M145.261,145.44c0,1.681,0,3.36,0,5.04c0.479,0,0.96,0,1.439,0c0.42,0,0.84,0,1.26,0
	c0.841,0,1.681,0,2.521,0c0-1.68,0-3.359,0-5.04c0.84,0,1.68,0,2.52,0c0.9,0,1.801,0,2.7,0c0-0.18,0-0.36,0-0.54
	c0-1.39,0-2.76,0-4.14c0-0.181,0-0.36,0-0.54c-1.74,0-3.479,0-5.22,0c0-0.84,0-1.68,0-2.52c0-0.42,0-0.84,0-1.261
	c0-0.479,0-0.96,0-1.44c0-0.84,0-1.68,0-2.52c0-0.9,0-1.8,0-2.699c0.18,0,0.36,0,0.54,0c1.38,0,2.76,0,4.14,0c0.181,0,0.36,0,0.54,0
	c0-1.74,0-3.48,0-5.221c-3.479,0-6.96,0-10.439,0c0,0.9,0,1.801,0,2.7c0,0.42,0,0.84,0,1.25c0,0.43,0,0.851,0,1.271
	c0,0.479,0,0.959,0,1.439c0,0.42,0,0.84,0,1.26s0,0.84,0,1.26s0,0.84,0,1.26c0,0.48,0,0.961,0,1.44c0,0.421,0,0.841,0,1.261
	s0,0.84,0,1.26s0,0.84,0,1.26c0,0.48,0,0.96,0,1.439c0,0.42,0,0.84,0,1.26c0,0.421,0,0.841,0,1.261S145.261,145.01,145.261,145.44z"
	/>
<path fill="#302F2E" d="M145.261,62.28c0,1.73,0,3.48,0,5.219c5.22,0,10.439,0,15.66,0c0-1.739,0-3.479,0-5.219
	c-1.74,0-3.48,0-5.221,0C152.221,62.28,148.74,62.28,145.261,62.28z"/>
<path fill="#FFFFFF" d="M145.261,57.06c0,1.74,0,3.48,0,5.22c3.479,0,6.96,0,10.439,0c0-1.74,0-3.48,0-5.22c-1.74,0-3.479,0-5.22,0
	S147,57.06,145.261,57.06z"/>
<path fill="#814221" d="M145.261,51.84c0,1.74,0,3.48,0,5.22c1.739,0,3.479,0,5.22,0c0-1.74,0-3.48,0-5.22c-1.56,0-3.12,0-4.68,0
	C145.62,51.84,145.44,51.84,145.261,51.84z"/>
<path fill="#302F2E" d="M145.261,7.92c0,0.84,0,1.68,0,2.52c6.779,0,13.56,0,20.34,0c0.18,0,0.359,0,0.54,0c0-1.74,0-3.48,0-5.22
	c-3.36,0-6.72,0-10.08,0c-1.68,0-3.36,0-5.04,0c-0.42,0-0.84,0-1.26,0s-0.84,0-1.261,0c-0.42,0-0.84,0-1.26,0
	c-0.479,0-0.96,0-1.439,0c-0.181,0-0.36,0-0.54,0c0,0.06,0,0.12,0,0.18C145.261,6.24,145.261,7.08,145.261,7.92z"/>
<path fill="#302F2E" d="M150.48,205.2c0,0.841,0,1.681,0,2.521c1.74,0,3.479,0,5.22,0s3.48,0,5.221,0c1.739,0,3.479,0,5.22,0
	s3.479,0,5.22,0c6.9,0,13.8,0,20.7,0c0-1.75,0-3.48,0-5.22c-6.061,0-12.12,0-18.18,0c-6.061,0-12.12,0-18.181,0
	c0-0.12,0-0.24,0-0.36c0-5.1,0-10.21,0-15.3c-1.74,0-3.479,0-5.22,0c0,0.05,0,0.12,0,0.17c0,0.49,0,0.96,0,1.45
	c0,0.42,0,0.84,0,1.26c0,0.84,0,1.67,0,2.52c0,0.48,0,0.96,0,1.44c0,0.42,0,0.83,0,1.25c0,0.84,0,1.69,0,2.53c0,0.47,0,0.96,0,1.43
	c0,0.42,0,0.85,0,1.27c0,0.841,0,1.681,0,2.521c0,0.24,0,0.479,0,0.71c0,0.19,0,0.37,0,0.54
	C150.48,204.35,150.48,204.77,150.48,205.2z"/>
<path fill="#A06141" d="M150.48,150.48c0,1.74,0,3.48,0,5.221c0.479,0,0.96,0,1.44,0c0.239,0,0.479,0,0.72,0c0.18,0,0.359,0,0.54,0
	c0.84,0,1.68,0,2.52,0c0-1.74,0-3.48,0-5.221c-0.84,0-1.68,0-2.52,0c-0.42,0-0.84,0-1.26,0
	C151.44,150.48,150.96,150.48,150.48,150.48z"/>
<path fill="#814221" d="M150.48,145.44c0,1.681,0,3.36,0,5.04c0.479,0,0.96,0,1.44,0c0.42,0,0.84,0,1.26,0c0.84,0,1.68,0,2.52,0
	c0.9,0,1.8,0,2.7,0c0.84,0,1.68,0,2.521,0c0.899,0,1.8,0,2.699,0c0.84,0,1.681,0,2.521,0c0.899,0,1.8,0,2.7,0c0.84,0,1.68,0,2.52,0
	c1.68,0,3.36,0,5.04,0c0-1.68,0-3.359,0-5.04c-1.68,0-3.36,0-5.04,0c0-0.18,0-0.36,0-0.54c0-0.72,0-1.439,0-2.16
	c0-0.66,0-1.32,0-1.979c0-0.181,0-0.36,0-0.54c1.68,0,3.36,0,5.04,0c0-0.9,0-1.801,0-2.7c0-0.84,0-1.68,0-2.521
	c0-1.739,0-3.479,0-5.219c-5.16,0-10.32,0-15.479,0c0-1.74,0-3.48,0-5.221c-1.74,0-3.48,0-5.221,0c0,1.74,0,3.48,0,5.221
	c-0.18,0-0.359,0-0.54,0c-1.38,0-2.76,0-4.14,0c-0.18,0-0.36,0-0.54,0c0,0.899,0,1.799,0,2.699c0,0.84,0,1.68,0,2.52
	c0,0.48,0,0.961,0,1.44c0,0.421,0,0.841,0,1.261c0,0.84,0,1.68,0,2.52c1.74,0,3.479,0,5.22,0c0,0.18,0,0.359,0,0.54
	c0,1.38,0,2.75,0,4.14c0,0.18,0,0.36,0,0.54c-0.899,0-1.8,0-2.7,0C152.16,145.44,151.32,145.44,150.48,145.44z"/>
<path fill="#302F2E" d="M150.48,109.08c0,1.74,0,3.48,0,5.221c5.22,0,10.44,0,15.66,0c0-1.74,0-3.48,0-5.221
	C160.921,109.08,155.7,109.08,150.48,109.08z"/>
<path fill="#282828" d="M150.48,51.84c0,1.74,0,3.48,0,5.22c1.74,0,3.479,0,5.22,0c0,1.74,0,3.48,0,5.22c1.74,0,3.48,0,5.221,0
	c0-1.74,0-3.48,0-5.22c0-1.74,0-3.48,0-5.22C157.44,51.84,153.96,51.84,150.48,51.84z"/>
<path fill="#814221" d="M150.48,46.62c0,1.74,0,3.48,0,5.22c3.479,0,6.96,0,10.44,0c0-1.74,0-3.48,0-5.22c-3.301,0-6.601,0-9.9,0
	C150.841,46.62,150.66,46.62,150.48,46.62z"/>
<path fill="#302F2E" d="M155.7,150.48c0,1.74,0,3.48,0,5.221c0.9,0,1.8,0,2.7,0c0.84,0,1.68,0,2.521,0c0.899,0,1.8,0,2.699,0
	c0.84,0,1.681,0,2.521,0c0.899,0,1.8,0,2.7,0c0.84,0,1.68,0,2.52,0c1.68,0,3.36,0,5.04,0c0-1.74,0-3.48,0-5.221
	c-1.68,0-3.36,0-5.04,0c-0.84,0-1.68,0-2.52,0c-0.9,0-1.801,0-2.7,0c-0.84,0-1.681,0-2.521,0c-0.899,0-1.8,0-2.699,0
	c-0.841,0-1.681,0-2.521,0C157.5,150.48,156.601,150.48,155.7,150.48z"/>
<path fill="#302F2E" d="M155.7,88.201c0,1.739,0,3.479,0,5.219c3.3,0,6.601,0,9.9,0c0.18,0,0.359,0,0.54,0c0-1.739,0-3.479,0-5.219
	c-3.3,0-6.601,0-9.9,0C156.061,88.201,155.881,88.201,155.7,88.201z"/>
<path fill="#302F2E" d="M160.921,57.06c0,1.74,0,3.48,0,5.22c1.739,0,3.479,0,5.22,0c0-0.84,0-1.68,0-2.52c0-0.9,0-1.8,0-2.7
	c0-0.84,0-1.68,0-2.52c0-0.9,0-1.8,0-2.7c-1.74,0-3.48,0-5.22,0C160.921,53.58,160.921,55.32,160.921,57.06z"/>
<path fill="#A06141" d="M160.921,46.62c0,1.74,0,3.48,0,5.22c1.739,0,3.479,0,5.22,0c0-1.74,0-3.48,0-5.22
	C164.4,46.62,162.66,46.62,160.921,46.62z"/>
<path fill="#814221" d="M160.921,41.58c0,1.68,0,3.36,0,5.04c1.739,0,3.479,0,5.22,0c0-1.68,0-3.36,0-5.04c-1.561,0-3.12,0-4.681,0
	C161.28,41.58,161.101,41.58,160.921,41.58z"/>
<path fill="#814221" d="M166.141,121.861c0,0.899,0,1.799,0,2.699c5.16,0,10.319,0,15.479,0c0-1.74,0-3.48,0-5.22
	c-5.16,0-10.319,0-15.479,0C166.141,120.18,166.141,121.01,166.141,121.861z"/>
<path fill="#302F2E" d="M166.141,114.3c0,1.68,0,3.359,0,5.04c5.16,0,10.319,0,15.479,0c0-1.681,0-3.36,0-5.04
	C176.46,114.3,171.301,114.3,166.141,114.3z"/>
<path fill="#302F2E" d="M166.141,82.98c0,1.74,0,3.48,0,5.221c1.74,0,3.479,0,5.22,0c0-0.84,0-1.681,0-2.521c0-0.899,0-1.8,0-2.7
	c-0.84,0-1.68,0-2.52,0c-0.42,0-0.841,0-1.261,0C167.101,82.98,166.62,82.98,166.141,82.98z"/>
<path fill="#FFFFFF" d="M166.141,41.58c0,1.68,0,3.36,0,5.04c1.74,0,3.479,0,5.22,0c0,0.18,0,0.36,0,0.54c0,0.72,0,1.44,0,2.16
	c0,0.66,0,1.32,0,1.98c0,0.18,0,0.36,0,0.54c1.68,0,3.36,0,5.04,0c0-1.74,0-3.48,0-5.22c1.74,0,3.48,0,5.22,0c0-1.08,0-2.16,0-3.24
	c0-1.08,0-2.16,0-3.24s0-2.16,0-3.24c0-1.08,0-2.16,0-3.24s0-2.16,0-3.24c0-1.08,0-2.16,0-3.24s0-2.17,0-3.24c0-1.08,0-2.16,0-3.24
	c-1.739,0-3.479,0-5.22,0c0,0.66,0,1.31,0,1.98c0,0.36,0,0.72,0,1.08c0,0.18,0,0.36,0,0.54c0,0.12,0,0.24,0,0.36
	c0,0.35,0,0.72,0,1.08c0,0.18,0,0.36,0,0.54c0,0.12,0,0.23,0,0.36c0,0.36,0,0.72,0,1.08c0,0.18,0,0.36,0,0.54c0,0.12,0,0.24,0,0.36
	c0,0.36,0,0.72,0,1.08c0,0.18,0,0.36,0,0.54c0,0.12,0,0.24,0,0.36c0,0.36,0,0.72,0,1.08c0,0.18,0,0.36,0,0.54c0,0.12,0,0.24,0,0.36
	c0,0.36,0,0.72,0,1.08c0,0.18,0,0.35,0,0.54c0,0.12,0,0.24,0,0.36c0,0.18,0,0.36,0,0.54c0,0.12,0,0.24,0,0.36c0,0.18,0,0.36,0,0.54
	c0,0.12,0,0.24,0,0.36c-1.68,0-3.36,0-5.04,0c0,0.84,0,1.68,0,2.52c0,0.42,0,0.84,0,1.26c0,0.24,0,0.48,0,0.72c0,0.24,0,0.48,0,0.72
	c-0.18,0-0.36,0-0.54,0C169.261,41.58,167.7,41.58,166.141,41.58z"/>
<path fill="#302F2E" d="M166.141,40.14c0,0.48,0,0.96,0,1.44c1.56,0,3.12,0,4.68,0c0.18,0,0.36,0,0.54,0c0-0.24,0-0.48,0-0.72
	c0-0.24,0-0.48,0-0.72c0-0.42,0-0.84,0-1.26c0-0.84,0-1.68,0-2.52c-0.84,0-1.68,0-2.52,0c-0.42,0-0.841,0-1.261,0
	c-0.479,0-0.96,0-1.439,0c0,0.84,0,1.68,0,2.52C166.141,39.3,166.141,39.72,166.141,40.14z"/>
<path fill="#814221" d="M166.141,31.14c0,1.74,0,3.48,0,5.22c0.479,0,0.96,0,1.439,0c0.42,0,0.841,0,1.261,0c0.84,0,1.68,0,2.52,0
	c0-1.74,0-3.48,0-5.22C169.62,31.14,167.881,31.14,166.141,31.14z"/>
<path fill="#302F2E" d="M166.141,25.92c0,1.74,0,3.48,0,5.22c1.74,0,3.479,0,5.22,0c0,1.74,0,3.48,0,5.22c1.68,0,3.36,0,5.04,0
	c0-0.12,0-0.24,0-0.36c0-0.18,0-0.36,0-0.54c0-0.12,0-0.24,0-0.36c0-0.18,0-0.36,0-0.54c0-0.12,0-0.24,0-0.36c0-0.19,0-0.36,0-0.54
	c0-0.36,0-0.72,0-1.08c0-0.12,0-0.24,0-0.36c0-0.18,0-0.36,0-0.54c0-0.36,0-0.72,0-1.08c0-0.12,0-0.24,0-0.36c0-0.18,0-0.36,0-0.54
	c0-0.36,0-0.72,0-1.08c0-0.12,0-0.24,0-0.36c0-0.18,0-0.36,0-0.54c0-0.36,0-0.72,0-1.08c0-0.13,0-0.24,0-0.36c0-0.18,0-0.36,0-0.54
	c0-0.36,0-0.73,0-1.08c0-0.12,0-0.24,0-0.36c0-0.18,0-0.36,0-0.54c0-0.36,0-0.72,0-1.08c0-0.67,0-1.32,0-1.98c-1.68,0-3.36,0-5.04,0
	c0,0.84,0,1.68,0,2.52c0,0.9,0,1.79,0,2.7C169.62,25.92,167.881,25.92,166.141,25.92z"/>
<path fill="#302F2E" d="M166.141,2.7c0,0.84,0,1.68,0,2.52c0.06,0,0.12,0,0.18,0c0.061,0,0.12,0,0.18,0c0.181,0,0.36,0,0.54,0
	c0.24,0,0.48,0,0.721,0c0.42,0,0.84,0,1.26,0s0.84,0,1.26,0s0.84,0,1.26,0c1.681,0,3.36,0,5.04,0c0.48,0,0.96,0,1.44,0
	c0.42,0,0.84,0,1.26,0s0.84,0,1.26,0s0.841,0,1.261,0c1.68,0,3.359,0,5.04,0c0-0.84,0-1.68,0-2.52c0-0.9,0-1.8,0-2.7
	c-0.181,0-0.36,0-0.54,0c-1.62,0-3.24,0-4.86,0s-3.24,0-4.86,0s-3.239,0-4.859,0c-1.681,0-3.36,0-5.04,0c-0.181,0-0.36,0-0.54,0
	c0,0.06,0,0.12,0,0.18s0,0.12,0,0.18c0,0.12,0,0.24,0,0.36c0,0.24,0,0.48,0,0.72C166.141,1.86,166.141,2.28,166.141,2.7z"/>
<path fill="#A06141" d="M171.36,144.9c0,0.18,0,0.36,0,0.54c1.68,0,3.36,0,5.04,0c0,1.681,0,3.36,0,5.04c0,1.74,0,3.48,0,5.221
	c0.9,0,1.8,0,2.7,0c0.84,0,1.68,0,2.52,0c0.9,0,1.801,0,2.7,0c0.84,0,1.68,0,2.521,0c0-0.9,0-1.801,0-2.701c0-0.84,0-1.68,0-2.52
	c0.899,0,1.8,0,2.699,0c0.841,0,1.681,0,2.521,0c0-0.9,0-1.8,0-2.699c0-0.841,0-1.681,0-2.521c0-1.681,0-3.36,0-5.04
	c0-1.74,0-3.48,0-5.221c-5.22,0-10.44,0-15.66,0c0,0.841,0,1.681,0,2.521c0,0.899,0,1.8,0,2.7c-1.68,0-3.36,0-5.04,0
	c0,0.18,0,0.359,0,0.54c0,0.659,0,1.319,0,1.979C171.36,143.46,171.36,144.18,171.36,144.9z"/>
<path fill="#302F2E" d="M171.36,80.46c0,0.84,0,1.68,0,2.52c1.68,0,3.36,0,5.04,0c0-0.84,0-1.68,0-2.52s0-1.68,0-2.521
	c-1.5,0-3,0-4.5,0c-0.18,0-0.36,0-0.54,0c0,0.24,0,0.479,0,0.72c0,0.181,0,0.351,0,0.541C171.36,79.621,171.36,80.041,171.36,80.46z
	"/>
<path fill="#302F2E" d="M176.4,158.22c0,0.9,0,1.8,0,2.699c0.18,0,0.36,0,0.54,0c1.62,0,3.24,0,4.86,0c1.68,0,3.359,0,5.04,0
	c1.619,0,3.239,0,4.859,0c1.681,0,3.36,0,5.04,0c0.181,0,0.36,0,0.54,0c0-1.739,0-3.479,0-5.219c-0.84,0-1.68,0-2.52,0
	c-0.9,0-1.801,0-2.7,0c-0.84,0-1.68,0-2.521,0c-0.899,0-1.8,0-2.699,0c-0.841,0-1.681,0-2.521,0c-0.899,0-1.8,0-2.7,0
	c-0.84,0-1.68,0-2.52,0c-0.9,0-1.8,0-2.7,0C176.4,156.541,176.4,157.38,176.4,158.22z"/>
<path fill="#302F2E" d="M176.4,72.72c0,1.74,0,3.48,0,5.22c0.36,0,0.72,0,1.08,0c0.18,0,0.36,0,0.54,0c0.24,0,0.479,0,0.72,0
	s0.48,0,0.72,0c0.12,0,0.24,0,0.36,0c0.42,0,0.84,0,1.26,0c0.181,0,0.36,0,0.54,0c0-0.06,0-0.12,0-0.18s0-0.12,0-0.181
	c0-0.119,0-0.239,0-0.359c0-0.24,0-0.48,0-0.721c0-0.42,0-0.84,0-1.26c0-0.84,0-1.68,0-2.52c-1.56,0-3.12,0-4.68,0
	C176.761,72.72,176.58,72.72,176.4,72.72z"/>
<path fill="#D4D5D7" d="M176.4,46.62c0,1.74,0,3.48,0,5.22c1.56,0,3.12,0,4.68,0c0.181,0,0.36,0,0.54,0c0-1.74,0-3.48,0-5.22
	C179.881,46.62,178.141,46.62,176.4,46.62z"/>
<path fill="#302F2E" d="M176.4,18c0,0.9,0,1.8,0,2.7c1.74,0,3.48,0,5.22,0c0-1.74,0-3.48,0-5.22c-0.42,0-0.84,0-1.26,0
	s-0.84,0-1.26,0c-0.9,0-1.8,0-2.7,0C176.4,16.32,176.4,17.16,176.4,18z"/>
<path fill="#814221" d="M181.62,127.08c0,0.9,0,1.801,0,2.701c5.221,0,10.44,0,15.66,0c0,0.84,0,1.68,0,2.52c0,0.9,0,1.8,0,2.699
	c0.12,0,0.24,0,0.36,0c5.04,0,10.08,0,15.12,0c0-1.739,0-3.479,0-5.219c-3.42,0-6.84,0-10.261,0c0-1.74,0-3.48,0-5.221
	c-6.96,0-13.92,0-20.88,0C181.62,125.4,181.62,126.24,181.62,127.08z"/>
<path fill="#302F2E" d="M181.62,119.34c0,1.739,0,3.479,0,5.22c6.96,0,13.92,0,20.88,0c0-0.42,0-0.84,0-1.26s0-0.84,0-1.26
	s0-0.84,0-1.26s0-0.841,0-1.271c0-1.729,0-3.47,0-5.21c-5.22,0-10.439,0-15.659,0c0,1.68,0,3.359,0,5.04
	C185.101,119.34,183.36,119.34,181.62,119.34z"/>
<path fill="#302F2E" d="M181.62,67.5c0,1.74,0,3.48,0,5.221c1.561,0,3.12,0,4.681,0c0.18,0,0.359,0,0.54,0c0-1.74,0-3.48,0-5.221
	c-1.561,0-3.12,0-4.681,0C181.98,67.5,181.801,67.5,181.62,67.5z"/>
<path fill="#D4D5D7" d="M181.62,43.38c0,1.08,0,2.16,0,3.24c1.74,0,3.48,0,5.221,0c0-1.68,0-3.36,0-5.04c0-0.24,0-0.48,0-0.72
	c0-0.12,0-0.24,0-0.36c0-0.18,0-0.36,0-0.54c0-0.54,0-1.08,0-1.62c0-0.24,0-0.48,0-0.72c0-0.12,0-0.24,0-0.36c0-0.18,0-0.36,0-0.54
	c0-0.54,0-1.08,0-1.62c0-0.24,0-0.48,0-0.72c0-0.12,0-0.24,0-0.37c0-0.17,0-0.35,0-0.53c0-0.54,0-1.08,0-1.62c0-0.24,0-0.48,0-0.72
	c0-0.13,0-0.24,0-0.36c0-0.18,0-0.36,0-0.54c0-0.54,0-1.08,0-1.62c0-0.24,0-0.48,0-0.72c0-0.12,0-0.24,0-0.36c0-0.18,0-0.36,0-0.54
	c0-0.54,0-1.08,0-1.62c0-0.24,0-0.48,0-0.72c0-0.12,0-0.24,0-0.36c0-0.18,0-0.36,0-0.54c0-0.54,0-1.08,0-1.62s0-1.08,0-1.63
	c0-0.53,0-1.07,0-1.61c0-0.54,0-1.08,0-1.62c0-0.24,0-0.48,0-0.72c0-0.12,0-0.24,0-0.36c0-0.24,0-0.48,0-0.72
	c-0.841,0-1.681,0-2.521,0c-0.42,0-0.84,0-1.26,0c-0.48,0-0.96,0-1.44,0c0,1.74,0,3.48,0,5.22c0,1.08,0,2.16,0,3.24
	c0,1.07,0,2.16,0,3.24s0,2.16,0,3.24c0,1.08,0,2.16,0,3.24s0,2.16,0,3.24c0,1.08,0,2.16,0,3.24S181.62,42.3,181.62,43.38z"/>
<path fill="#302F2E" d="M181.62,14.22c0,0.42,0,0.84,0,1.26c0.48,0,0.96,0,1.44,0c0.42,0,0.84,0,1.26,0c0.84,0,1.68,0,2.521,0
	c0-0.84,0-1.68,0-2.52c0-0.84,0-1.68,0-2.52c-1.74,0-3.48,0-5.221,0c0,0.06,0,0.12,0,0.18s0,0.12,0,0.18c0,0.12,0,0.24,0,0.36
	c0,0.18,0,0.35,0,0.54c0,0.42,0,0.84,0,1.26C181.62,13.38,181.62,13.8,181.62,14.22z"/>
<path fill="#814221" d="M186.841,153c0,0.9,0,1.801,0,2.701c0.899,0,1.8,0,2.699,0c0.841,0,1.681,0,2.521,0c0.899,0,1.8,0,2.7,0
	c0.84,0,1.68,0,2.52,0c0-1.74,0-3.48,0-5.221c0.84,0,1.68,0,2.521,0c0.899,0,1.8,0,2.699,0c0.841,0,1.681,0,2.521,0
	c0.9,0,1.8,0,2.7,0c0-0.84,0-1.68,0-2.52s0-1.68,0-2.521c0-0.18,0-0.36,0-0.54c0-0.24,0-0.48,0-0.72c0-0.42,0-0.84,0-1.261
	c0-0.899,0-1.799,0-2.699c-5.221,0-10.44,0-15.66,0c0,1.68,0,3.359,0,5.04c0,0.84,0,1.68,0,2.521c0,0.899,0,1.799,0,2.699
	c-0.84,0-1.68,0-2.521,0c-0.899,0-1.8,0-2.699,0C186.841,151.32,186.841,152.16,186.841,153z"/>
<path fill="#302F2E" d="M186.841,62.28c0,1.73,0,3.48,0,5.219c1.739,0,3.479,0,5.22,0c0-0.84,0-1.68,0-2.52c0-0.899,0-1.8,0-2.7
	c0-0.84,0-1.68,0-2.52c0-0.9,0-1.8,0-2.7c-1.74,0-3.48,0-5.22,0c0,0.84,0,1.68,0,2.52C186.841,60.48,186.841,61.38,186.841,62.28z"
	/>
<path fill="#302F2E" d="M186.841,40.86c0,0.24,0,0.48,0,0.72c5.22,0,10.439,0,15.659,0c0-0.84,0-1.68,0-2.52c0-0.9,0-1.8,0-2.7
	c-0.84,0-1.68,0-2.52,0c-0.9,0-1.8,0-2.7,0c-0.84,0-1.68,0-2.52,0c-0.9,0-1.801,0-2.7,0c0-1.68,0-3.36,0-5.04c0-1.68,0-3.36,0-5.04
	c0-0.84,0-1.68,0-2.52c0-0.84,0-1.68,0-2.52c0-0.84,0-1.68,0-2.52c0-0.9,0-1.8,0-2.71c0-0.17,0-0.35,0-0.53c-0.061,0-0.12,0-0.18,0
	c-0.061,0-0.12,0-0.181,0c-0.12,0-0.24,0-0.359,0c-0.24,0-0.48,0-0.721,0c-0.42,0-0.84,0-1.26,0s-0.84,0-1.26,0s-0.84,0-1.26,0
	c0,0.24,0,0.48,0,0.72c0,0.12,0,0.24,0,0.36c0,0.24,0,0.48,0,0.72c0,0.54,0,1.08,0,1.62c0,0.54,0,1.08,0,1.61c0,0.55,0,1.09,0,1.63
	s0,1.08,0,1.62c0,0.18,0,0.36,0,0.54c0,0.12,0,0.24,0,0.36c0,0.24,0,0.48,0,0.72c0,0.54,0,1.08,0,1.62c0,0.18,0,0.36,0,0.54
	c0,0.12,0,0.24,0,0.36c0,0.24,0,0.48,0,0.72c0,0.54,0,1.08,0,1.62c0,0.18,0,0.36,0,0.54c0,0.12,0,0.23,0,0.36c0,0.24,0,0.48,0,0.72
	c0,0.54,0,1.08,0,1.62c0,0.18,0,0.36,0,0.53c0,0.13,0,0.25,0,0.37c0,0.24,0,0.48,0,0.72c0,0.54,0,1.08,0,1.62c0,0.18,0,0.36,0,0.54
	c0,0.12,0,0.24,0,0.36c0,0.24,0,0.48,0,0.72c0,0.54,0,1.08,0,1.62c0,0.18,0,0.36,0,0.54C186.841,40.62,186.841,40.74,186.841,40.86z
	"/>
<path fill="#302F2E" d="M186.841,5.22c0,1.74,0,3.48,0,5.22c5.22,0,10.439,0,15.659,0c0-1.74,0-3.48,0-5.22
	c-2.579,0-5.159,0-7.739,0c-0.301,0-0.601,0-0.9,0c-0.36,0-0.72,0-1.08,0c-0.3,0-0.6,0-0.899,0c-0.36,0-0.721,0-1.08,0
	c-0.301,0-0.601,0-0.9,0c-0.36,0-0.72,0-1.08,0c-0.3,0-0.6,0-0.899,0C187.561,5.22,187.2,5.22,186.841,5.22z"/>
<path fill="#302F2E" d="M192.061,197.27c0,1.74,0,3.49,0,5.23c3.479,0,6.96,0,10.439,0c3.421,0,6.841,0,10.261,0
	c0-2.58,0-5.16,0-7.74c0-0.66,0-1.33,0-1.99c0-0.3,0-0.59,0-0.89c0-0.37,0-0.721,0-1.08c0-0.66,0-1.33,0-1.99c0-0.3,0-0.59,0-0.89
	c0-0.36,0-0.721,0-1.08c-1.681,0-3.36,0-5.04,0c0,3.47,0,6.96,0,10.43C202.5,197.27,197.28,197.27,192.061,197.27z"/>
<path fill="#302F2E" d="M192.061,51.84c0,1.74,0,3.48,0,5.22c3.3,0,6.6,0,9.899,0c0.181,0,0.36,0,0.54,0c0-1.74,0-3.48,0-5.22
	c-3.3,0-6.6,0-9.899,0C192.421,51.84,192.24,51.84,192.061,51.84z"/>
<path fill="#302F2E" d="M197.28,179.1c0,2.58,0,5.16,0,7.74c3.48,0,6.96,0,10.44,0c0-1.681,0-3.37,0-5.04c-1.74,0-3.48,0-5.221,0
	c0-1.74,0-3.49,0-5.22c0-0.421,0-0.841,0-1.261s0-0.84,0-1.26c0-0.9,0-1.8,0-2.699c-0.42,0-0.84,0-1.26,0s-0.84,0-1.26,0
	s-0.84,0-1.26,0c-0.48,0-0.96,0-1.44,0C197.28,173.94,197.28,176.51,197.28,179.1z"/>
<path fill="#814221" d="M202.5,176.581c0,1.729,0,3.479,0,5.22c1.74,0,3.48,0,5.221,0c0,1.67,0,3.359,0,5.04c1.68,0,3.359,0,5.04,0
	c0,0.359,0,0.72,0,1.08c0,0.3,0,0.59,0,0.89c0,0.66,0,1.33,0,1.99c0,0.359,0,0.71,0,1.08c0,0.3,0,0.59,0,0.89c0,0.66,0,1.33,0,1.99
	c0,2.58,0,5.16,0,7.74c6.96,0,13.92,0,20.88,0c0-1.74,0-3.49,0-5.23c-3.48,0-6.96,0-10.44,0c0-0.17,0-0.35,0-0.53
	c0-3.119,0-6.239,0-9.359c0-0.181,0-0.37,0-0.54c-1.74,0-3.479,0-5.22,0c0-1.681,0-3.37,0-5.04c-1.74,0-3.48,0-5.22,0
	c0-0.601,0-1.2,0-1.8c0-0.66,0-1.32,0-1.99c0-0.12,0-0.24,0-0.351c0-0.189,0-0.359,0-0.539c0-0.36,0-0.73,0-1.08
	c0-0.121,0-0.24,0-0.36c0-0.181,0-0.36,0-0.54c0-0.359,0-0.721,0-1.08c0-0.12,0-0.24,0-0.359c0-0.181,0-0.36,0-0.541
	c0-0.359,0-0.72,0-1.08c0-0.119,0-0.239,0-0.359c0-0.18,0-0.359,0-0.54c0-0.36,0-0.72,0-1.08c0-0.12,0-0.239,0-0.36
	c0-0.18,0-0.359,0-0.539c0-0.36,0-0.721,0-1.08c0-0.121,0-0.24,0-0.36c0-0.181,0-0.36,0-0.54c0-0.359,0-0.721,0-1.08
	c-1.681,0-3.36,0-5.04,0c0,0.84,0,1.68,0,2.52c0,0.9,0,1.801,0,2.701c-0.42,0-0.84,0-1.261,0c-0.42,0-0.84,0-1.26,0s-0.84,0-1.26,0
	c-0.48,0-0.96,0-1.44,0c0,0.899,0,1.799,0,2.699c0,0.42,0,0.84,0,1.26S202.5,176.16,202.5,176.581z"/>
<path fill="#302F2E" d="M202.5,168.66c0,0.9,0,1.801,0,2.701c0.48,0,0.96,0,1.44,0c0.42,0,0.84,0,1.26,0s0.84,0,1.26,0
	c0.421,0,0.841,0,1.261,0c0-0.9,0-1.801,0-2.701c0-0.84,0-1.68,0-2.52c1.68,0,3.359,0,5.04,0c0-1.74,0-3.48,0-5.221
	c-1.681,0-3.36,0-5.04,0c-0.84,0-1.681,0-2.521,0c-0.899,0-1.8,0-2.7,0c0,0.841,0,1.681,0,2.521c0,0.421,0,0.841,0,1.261
	c0,0.479,0,0.959,0,1.439c0,0.42,0,0.84,0,1.26S202.5,168.24,202.5,168.66z"/>
<path fill="#302F2E" d="M202.5,124.56c0,1.74,0,3.48,0,5.221c3.421,0,6.841,0,10.261,0c0-1.74,0-3.48,0-5.221
	C209.341,124.56,205.921,124.56,202.5,124.56z"/>
<path fill="#814221" d="M202.5,123.3c0,0.42,0,0.84,0,1.26c3.421,0,6.841,0,10.261,0c0-1.74,0-3.48,0-5.22c1.739,0,3.479,0,5.22,0
	c0-0.841,0-1.681,0-2.521c0-0.42,0-0.84,0-1.26s0-0.84,0-1.26c0-0.84,0-1.68,0-2.52c0-0.9,0-1.801,0-2.701c-3.42,0-6.84,0-10.26,0
	c0,1.74,0,3.48,0,5.221c-1.74,0-3.48,0-5.221,0c0,1.74,0,3.48,0,5.21c0,0.43,0,0.851,0,1.271s0,0.84,0,1.26
	S202.5,122.88,202.5,123.3z"/>
<path fill="#302F2E" d="M202.5,109.08c0,1.74,0,3.48,0,5.221c1.74,0,3.48,0,5.221,0c0-1.74,0-3.48,0-5.221
	C205.98,109.08,204.24,109.08,202.5,109.08z"/>
<path fill="#302F2E" d="M202.5,46.8c0,1.68,0,3.36,0,5.04c1.74,0,3.48,0,5.221,0c0-0.18,0-0.36,0-0.54c0-3.06,0-6.12,0-9.18
	c0-0.18,0-0.36,0-0.54c-1.74,0-3.48,0-5.221,0c0,0.06,0,0.12,0,0.18c0,0.84,0,1.68,0,2.52c0,0.42,0,0.84,0,1.26
	S202.5,46.38,202.5,46.8z"/>
<path fill="#302F2E" d="M202.5,14.4c0,0.36,0,0.72,0,1.08c0.9,0,1.801,0,2.7,0c0.42,0,0.84,0,1.26,0c0.421,0,0.841,0,1.261,0
	c0-0.72,0-1.44,0-2.16c0-0.36,0-0.72,0-1.08c0-0.42,0-0.84,0-1.26c0-0.18,0-0.36,0-0.54c-1.74,0-3.48,0-5.221,0
	c0,0.06,0,0.12,0,0.18c0,0.84,0,1.68,0,2.52C202.5,13.56,202.5,13.98,202.5,14.4z"/>
<path fill="#302F2E" d="M207.721,103.861c0,1.739,0,3.479,0,5.219c3.42,0,6.84,0,10.26,0c0-2.16,0-4.319,0-6.479s0-4.319,0-6.479
	c0-1.08,0-2.16,0-3.24s0-2.16,0-3.24s0-2.16,0-3.24c0-1.14,0-2.279,0-3.42c-0.84,0-1.68,0-2.521,0c-0.42,0-0.84,0-1.26,0
	c-0.479,0-0.96,0-1.439,0c0,0.84,0,1.68,0,2.52c0,0.9,0,1.801,0,2.701c0,1.739,0,3.479,0,5.219c0,1.74,0,3.48,0,5.221
	s0,3.48,0,5.221c-0.181,0-0.36,0-0.54,0c-1.32,0-2.641,0-3.96,0C208.08,103.861,207.9,103.861,207.721,103.861z"/>
<path fill="#302F2E" d="M207.721,20.16c0,0.18,0,0.35,0,0.54c1.68,0,3.359,0,5.04,0c0-1.74,0-3.48,0-5.22c-1.681,0-3.36,0-5.04,0
	c0,0.18,0,0.36,0,0.53c0,0.19,0,0.37,0,0.55c0,0.42,0,0.84,0,1.26C207.721,18.6,207.721,19.38,207.721,20.16z"/>
<path fill="#302F2E" d="M212.761,207.72c0,1.74,0,3.479,0,5.21c2.22,0,4.439,0,6.66,0c2.159,0,4.319,0,6.479,0s4.32,0,6.48,0
	c2.159,0,4.319,0,6.479,0c0-0.59,0-1.19,0-1.79c0-0.67,0-1.33,0-1.98c0-0.119,0-0.239,0-0.359c0-0.18,0-0.37,0-0.54
	c0-0.37,0-0.72,0-1.08c0-0.67,0-1.33,0-1.98c0-0.6,0-1.199,0-1.81c0-0.65,0-1.31,0-1.97c0-0.3,0-0.61,0-0.91c0-0.351,0-0.71,0-1.08
	c0-0.65,0-1.31,0-1.97c0-0.61,0-1.2,0-1.801c0-0.659,0-1.319,0-1.979c0-0.3,0-0.6,0-0.91c0-0.35,0-0.71,0-1.07
	c0-0.659,0-1.319,0-1.979c0-0.3,0-0.6,0-0.91c0-0.35,0-0.71,0-1.07c0-0.659,0-1.319,0-1.979c0-0.3,0-0.601,0-0.91
	c0-0.35,0-0.71,0-1.08c0-0.649,0-1.31,0-1.97c-1.74,0-3.479,0-5.22,0c0,2.58,0,5.16,0,7.74s0,5.159,0,7.729c0,1.74,0,3.49,0,5.23
	c-6.96,0-13.92,0-20.88,0C212.761,204.24,212.761,205.97,212.761,207.72z"/>
<path fill="#A06141" d="M212.761,180c0,0.6,0,1.199,0,1.8c1.739,0,3.479,0,5.22,0c0,1.67,0,3.359,0,5.04c1.74,0,3.479,0,5.22,0
	c0,0.17,0,0.359,0,0.54c0,3.12,0,6.24,0,9.359c0,0.181,0,0.36,0,0.53c3.48,0,6.96,0,10.44,0c0-2.57,0-5.149,0-7.729s0-5.16,0-7.74
	c-1.74,0-3.48,0-5.22,0c0-0.18,0-0.37,0-0.54c0-0.84,0-1.68,0-2.521c0-0.43,0-0.85,0-1.27c0-0.41,0-0.83,0-1.25
	c0-1.62,0-3.24,0-4.859c-0.421,0-0.841,0-1.261,0c-0.239,0-0.479,0-0.72,0c-0.18,0-0.36,0-0.54,0c-0.24,0-0.479,0-0.72,0
	c-0.181,0-0.36,0-0.54,0c-0.24,0-0.48,0-0.72,0c-0.12,0-0.24,0-0.36,0c-0.061,0-0.12,0-0.18,0c-0.061,0-0.12,0-0.181,0
	c0-0.181,0-0.361,0-0.541c0-0.42,0-0.84,0-1.26c0-0.18,0-0.359,0-0.54c0-0.18,0-0.36,0-0.54c0-0.42,0-0.84,0-1.26
	c0-0.18,0-0.359,0-0.54s0-0.36,0-0.54c-0.84,0-1.68,0-2.52,0c-0.9,0-1.8,0-2.7,0c0-0.18,0-0.359,0-0.54c0-0.12,0-0.239,0-0.36
	c0-0.18,0-0.359,0-0.539c0-0.36,0-0.721,0-1.08c0-0.181,0-0.36,0-0.541c0-0.18,0-0.359,0-0.539c0-0.36,0-0.721,0-1.08
	c0-0.18,0-0.36,0-0.541c-0.06,0-0.12,0-0.18,0c-0.061,0-0.12,0-0.181,0c-0.12,0-0.239,0-0.359,0c-0.24,0-0.48,0-0.721,0
	c-0.42,0-0.84,0-1.26,0c-0.84,0-1.68,0-2.52,0c0,1.74,0,3.48,0,5.221c0,0.359,0,0.721,0,1.08c0,0.18,0,0.359,0,0.54
	c0,0.12,0,0.239,0,0.36c0,0.359,0,0.72,0,1.08c0,0.18,0,0.359,0,0.539c0,0.121,0,0.24,0,0.36c0,0.36,0,0.72,0,1.08
	c0,0.181,0,0.36,0,0.54c0,0.12,0,0.24,0,0.359c0,0.36,0,0.721,0,1.08c0,0.181,0,0.36,0,0.541c0,0.119,0,0.239,0,0.359
	c0,0.359,0,0.721,0,1.08c0,0.18,0,0.359,0,0.54c0,0.12,0,0.239,0,0.36c0,0.35,0,0.72,0,1.08c0,0.18,0,0.35,0,0.539
	c0,0.11,0,0.23,0,0.351C212.761,178.68,212.761,179.34,212.761,180z"/>
<path fill="#302F2E" d="M212.761,155.701c0,1.739,0,3.479,0,5.219c0.84,0,1.68,0,2.52,0c0.42,0,0.84,0,1.26,0c0.24,0,0.48,0,0.721,0
	c0.12,0,0.239,0,0.359,0c0.061,0,0.12,0,0.181,0c0.06,0,0.12,0,0.18,0c0,0.181,0,0.361,0,0.541c0,0.359,0,0.72,0,1.08
	c0,0.18,0,0.359,0,0.539c0,0.181,0,0.36,0,0.541c0,0.359,0,0.72,0,1.08c0,0.18,0,0.359,0,0.539c0,0.121,0,0.24,0,0.36
	c0,0.181,0,0.36,0,0.54c0.9,0,1.8,0,2.7,0c0.84,0,1.68,0,2.52,0c0-1.74,0-3.48,0-5.221c0.12,0,0.24,0,0.36,0c2.52,0,5.04,0,7.56,0
	c2.58,0,5.16,0,7.74,0c0-1.739,0-3.479,0-5.219c-2.16,0-4.32,0-6.479,0c-2.16,0-4.32,0-6.48,0s-4.32,0-6.479,0
	C217.2,155.701,214.98,155.701,212.761,155.701z"/>
<path fill="#814221" d="M212.761,153c0,0.9,0,1.801,0,2.701c2.22,0,4.439,0,6.66,0c2.159,0,4.319,0,6.479,0s4.32,0,6.48,0
	c2.159,0,4.319,0,6.479,0c0-0.9,0-1.801,0-2.701c0-0.84,0-1.68,0-2.52c-2.58,0-5.16,0-7.74,0c-0.3,0-0.6,0-0.899,0
	c-0.36,0-0.721,0-1.08,0c-0.3,0-0.601,0-0.9,0c-0.359,0-0.72,0-1.08,0c-0.3,0-0.6,0-0.899,0c-0.36,0-0.721,0-1.08,0
	c-0.3,0-0.601,0-0.9,0c-0.359,0-0.72,0-1.08,0c0-0.84,0-1.68,0-2.52s0-1.68,0-2.521c0-1.739,0-3.479,0-5.22c1.74,0,3.48,0,5.221,0
	c0-0.18,0-0.359,0-0.54c0-1.38,0-2.761,0-4.14c0-0.18,0-0.36,0-0.541c-1.74,0-3.48,0-5.221,0c0-1.739,0-3.479,0-5.219
	c0-1.74,0-3.48,0-5.221c-3.479,0-6.96,0-10.439,0c0,1.74,0,3.48,0,5.221c1.739,0,3.479,0,5.22,0c0,1.26,0,2.52,0,3.779
	c0,0.66,0,1.32,0,1.98s0,1.32,0,1.979c0,1.32,0,2.64,0,3.96c0,0.66,0,1.32,0,1.98s0,1.32,0,1.979c-0.84,0-1.68,0-2.521,0
	c-0.899,0-1.8,0-2.699,0c0,1.681,0,3.36,0,5.04C212.761,151.32,212.761,152.16,212.761,153z"/>
<path fill="#302F2E" d="M212.761,119.34c0,1.739,0,3.479,0,5.22c3.479,0,6.96,0,10.439,0c0-2.52,0-5.05,0-7.561
	c0-1.26,0-2.52,0-3.779c0-0.12,0-0.24,0-0.359c0-0.181,0-0.361,0-0.541c0-0.359,0-0.72,0-1.08c0-0.119,0-0.24,0-0.359
	c0-0.18,0-0.37,0-0.54c0-0.36,0-0.72,0-1.08c0-0.06,0-0.12,0-0.181c-1.74,0-3.479,0-5.22,0c0,0.9,0,1.801,0,2.701
	c0,0.84,0,1.68,0,2.52c0,0.42,0,0.84,0,1.26s0,0.84,0,1.26c0,0.84,0,1.68,0,2.521C216.24,119.34,214.5,119.34,212.761,119.34z"/>
<path fill="#302F2E" d="M212.761,23.22c0,0.9,0,1.79,0,2.7c1.739,0,3.479,0,5.22,0c0-0.36,0-0.72,0-1.08c0-0.42,0-0.84,0-1.26
	c0-0.78,0-1.57,0-2.34c0-0.18,0-0.36,0-0.54c-1.74,0-3.48,0-5.22,0C212.761,21.54,212.761,22.38,212.761,23.22z"/>
<path fill="#814221" d="M217.98,102.6c0,2.16,0,4.319,0,6.479c1.74,0,3.479,0,5.22,0s3.48,0,5.221,0c0-1.739,0-3.479,0-5.219
	c5.22,0,10.439,0,15.659,0c0,1.739,0,3.479,0,5.219c1.681,0,3.36,0,5.04,0c0-2.58,0-5.16,0-7.739c0-2.64,0-5.28,0-7.921
	c-1.68,0-3.359,0-5.04,0c0,1.74,0,3.48,0,5.221c-3.479,0-6.96,0-10.439,0c0-1.74,0-3.48,0-5.221c-1.74,0-3.48,0-5.22,0
	c0-0.539,0-1.079,0-1.619s0-1.08,0-1.62s0-1.08,0-1.62c0-0.55,0-1.08,0-1.62c0-0.239,0-0.479,0-0.72c0-0.12,0-0.24,0-0.359
	c0-0.181,0-0.361,0-0.541c0-0.539,0-1.08,0-1.619c0-0.24,0-0.48,0-0.721c0-0.119,0-0.24,0-0.359c0-0.181,0-0.36,0-0.541
	c0-0.539,0-1.08,0-1.619c0-0.24,0-0.48,0-0.721c0-0.119,0-0.24,0-0.359c0-0.18,0-0.37,0-0.54c0-0.54,0-1.08,0-1.62
	c0-0.24,0-0.48,0-0.721c0-0.119,0-0.239,0-0.359c0-0.18,0-0.359,0-0.54c0-0.54,0-1.09,0-1.62c0-0.24,0-0.48,0-0.72
	c0-0.12,0-0.25,0-0.36c0-0.18,0-0.359,0-0.539c0-0.541,0-1.08,0-1.621c0-0.24,0-0.479,0-0.729c0-0.11,0-0.229,0-0.351
	c0-0.18,0-0.359,0-0.539c0-0.541,0-1.08,0-1.621c-1.74,0-3.48,0-5.221,0c0,2.58,0,5.16,0,7.74s0,5.16,0,7.74
	c-0.479,0-0.96,0-1.439,0c-0.42,0-0.84,0-1.261,0c-0.84,0-1.68,0-2.52,0c0,1.141,0,2.28,0,3.42c0,1.08,0,2.16,0,3.24s0,2.16,0,3.24
	s0,2.16,0,3.24C217.98,98.281,217.98,100.44,217.98,102.6z"/>
<path fill="#302F2E" d="M217.98,81.9c0,0.36,0,0.721,0,1.08c0.84,0,1.68,0,2.52,0c0.421,0,0.841,0,1.261,0c0.479,0,0.96,0,1.439,0
	c0-2.58,0-5.16,0-7.74s0-5.16,0-7.74c-1.74,0-3.479,0-5.22,0c0,1.261,0,2.511,0,3.781c0,0.659,0,1.319,0,1.979
	c0,0.12,0,0.239,0,0.36c0,0.18,0,0.359,0,0.539c0,0.351,0,0.721,0,1.08c0,1.26,0,2.521,0,3.771c0,0.13,0,0.25,0,0.37
	c0,0.18,0,0.359,0,0.539c0,0.361,0,0.721,0,1.08c0,0.121,0,0.24,0,0.361C217.98,81.541,217.98,81.72,217.98,81.9z"/>
<path fill="#302F2E" d="M217.98,30.6c0,0.18,0,0.36,0,0.54c1.74,0,3.479,0,5.22,0c0-0.36,0-0.72,0-1.08c0-0.42,0-0.84,0-1.26
	c0-0.36,0-0.72,0-1.08c0-0.42,0-0.84,0-1.26c0-0.18,0-0.36,0-0.54c-1.74,0-3.479,0-5.22,0c0,0.78,0,1.56,0,2.34
	C217.98,29.04,217.98,29.82,217.98,30.6z"/>
<path fill="#302F2E" d="M223.2,170.82c0,0.18,0,0.36,0,0.541c0.061,0,0.12,0,0.181,0c0.06,0,0.119,0,0.18,0c0.12,0,0.24,0,0.36,0
	c0.239,0,0.479,0,0.72,0c0.18,0,0.359,0,0.54,0c0.24,0,0.479,0,0.72,0c0.18,0,0.36,0,0.54,0c0.24,0,0.48,0,0.72,0
	c0.42,0,0.84,0,1.261,0c0-0.181,0-0.361,0-0.541s0-0.359,0-0.539c0-0.181,0-0.361,0-0.541c0-0.24,0-0.479,0-0.72
	c0-0.18,0-0.36,0-0.54s0-0.359,0-0.54c0-0.43,0-0.84,0-1.26c0-0.181,0-0.36,0-0.54c-0.061,0-0.12,0-0.181,0c-0.42,0-0.84,0-1.26,0
	s-0.84,0-1.26,0c-0.84,0-1.681,0-2.521,0c0,0.18,0,0.359,0,0.54s0,0.36,0,0.54c0,0.42,0,0.84,0,1.26c0,0.18,0,0.36,0,0.54
	c0,0.181,0,0.36,0,0.54C223.2,169.98,223.2,170.4,223.2,170.82z"/>
<path fill="#A06141" d="M223.2,147.96c0,0.84,0,1.68,0,2.52c0.36,0,0.721,0,1.08,0c0.3,0,0.601,0,0.9,0c0.359,0,0.72,0,1.08,0
	c0.3,0,0.6,0,0.899,0c0.36,0,0.721,0,1.08,0c0.3,0,0.601,0,0.9,0c0.359,0,0.72,0,1.08,0c0.3,0,0.6,0,0.899,0c2.58,0,5.16,0,7.74,0
	c0-1.68,0-3.359,0-5.04c0.18,0,0.36,0,0.54,0c1.56,0,3.12,0,4.68,0c0-0.659,0-1.319,0-1.979c0-0.36,0-0.721,0-1.08
	c0-0.18,0-0.36,0-0.54c0-0.12,0-0.24,0-0.36c0-0.66,0-1.32,0-1.98c0-0.359,0-0.719,0-1.08c0-0.18,0-0.359,0-0.539
	c0-0.12,0-0.24,0-0.36c0-0.659,0-1.319,0-1.979c0-0.36,0-0.721,0-1.08c0-0.18,0-0.36,0-0.541c0-0.119,0-0.239,0-0.359
	c0-0.66,0-1.32,0-1.98c0-0.18,0-0.359,0-0.539c0-0.121,0-0.24,0-0.36c0-0.181,0-0.36,0-0.54c0-0.13,0-0.24,0-0.359
	c1.681,0,3.36,0,5.04,0c0-0.42,0-0.841,0-1.271c0-0.41,0-0.83,0-1.25c0-0.841,0-1.681,0-2.521c0-1.74,0-3.479,0-5.229
	c0-1.729,0-3.47,0-5.21s0-3.48,0-5.221c-1.68,0-3.359,0-5.04,0c0-1.739,0-3.479,0-5.219c-5.22,0-10.439,0-15.659,0
	c0,1.739,0,3.479,0,5.219c-1.74,0-3.48,0-5.221,0c0,0.061,0,0.121,0,0.181c0,0.36,0,0.72,0,1.08c0,0.17,0,0.36,0,0.54
	c0,0.119,0,0.24,0,0.359c0,0.36,0,0.721,0,1.08c0,0.18,0,0.36,0,0.541c0,0.119,0,0.239,0,0.359c0,1.26,0,2.52,0,3.779
	c0,2.511,0,5.041,0,7.561c0,1.74,0,3.48,0,5.221c0,1.739,0,3.479,0,5.219c1.74,0,3.48,0,5.221,0c0,0.181,0,0.361,0,0.541
	c0,1.379,0,2.76,0,4.14c0,0.181,0,0.36,0,0.54c-1.74,0-3.48,0-5.221,0c0,1.74,0,3.48,0,5.22
	C223.2,146.281,223.2,147.121,223.2,147.96z"/>
<path fill="#302F2E" d="M223.2,62.28c0,1.73,0,3.48,0,5.219c1.74,0,3.48,0,5.221,0c0-0.84,0-1.68,0-2.52c0-0.42,0-0.84,0-1.26
	c0-0.48,0-0.96,0-1.44c0-0.42,0-0.84,0-1.27c0-0.41,0-0.83,0-1.25c0-0.9,0-1.8,0-2.7c-1.74,0-3.48,0-5.221,0c0,0.84,0,1.68,0,2.52
	C223.2,60.48,223.2,61.38,223.2,62.28z"/>
<path fill="#302F2E" d="M223.2,33.66c0,0.9,0,1.8,0,2.7c0.84,0,1.681,0,2.521,0c0.899,0,1.8,0,2.7,0c0-0.18,0-0.36,0-0.54
	c0-0.18,0-0.36,0-0.54c0-0.18,0-0.36,0-0.54c0-0.24,0-0.48,0-0.73c0-0.17,0-0.35,0-0.53c0-0.18,0-0.36,0-0.54c0-0.43,0-0.84,0-1.26
	c0-0.18,0-0.36,0-0.54c-1.74,0-3.48,0-5.221,0C223.2,31.98,223.2,32.82,223.2,33.66z"/>
<path fill="#302F2E" d="M228.421,181.26c0,0.17,0,0.36,0,0.54c1.739,0,3.479,0,5.22,0c0-0.84,0-1.68,0-2.53c0-0.89,0-1.8,0-2.689
	c0-0.841,0-1.681,0-2.521c0-0.9,0-1.8,0-2.699c-0.42,0-0.84,0-1.26,0c-0.421,0-0.841,0-1.261,0s-0.84,0-1.26,0
	c-0.479,0-0.96,0-1.439,0c0,1.619,0,3.239,0,4.859c0,0.42,0,0.84,0,1.25c0,0.42,0,0.84,0,1.27
	C228.421,179.581,228.421,180.42,228.421,181.26z"/>
<path fill="#A06141" d="M228.421,91.8c0,0.54,0,1.08,0,1.619c1.739,0,3.479,0,5.22,0c0,1.74,0,3.48,0,5.221c3.479,0,6.96,0,10.439,0
	c0-1.74,0-3.48,0-5.221c1.681,0,3.36,0,5.04,0c0-2.159,0-4.319,0-6.479c0-2.159,0-4.319,0-6.479s0-4.32,0-6.48s0-4.32,0-6.48
	c-1.68,0-3.359,0-5.04,0c0-1.739,0-3.479,0-5.219c-3.3,0-6.6,0-9.899,0c-0.181,0-0.36,0-0.54,0c0,1.73,0,3.48,0,5.219
	c-1.74,0-3.48,0-5.22,0c0,0.541,0,1.08,0,1.621c0,0.18,0,0.359,0,0.539c0,0.121,0,0.24,0,0.351c0,0.25,0,0.489,0,0.729
	c0,0.541,0,1.08,0,1.621c0,0.18,0,0.359,0,0.539c0,0.11,0,0.24,0,0.36c0,0.239,0,0.479,0,0.72c0,0.53,0,1.08,0,1.62
	c0,0.181,0,0.36,0,0.54c0,0.12,0,0.24,0,0.359c0,0.24,0,0.48,0,0.721c0,0.54,0,1.08,0,1.62c0,0.17,0,0.36,0,0.54
	c0,0.119,0,0.24,0,0.359c0,0.24,0,0.48,0,0.721c0,0.539,0,1.08,0,1.619c0,0.181,0,0.36,0,0.541c0,0.119,0,0.24,0,0.359
	c0,0.24,0,0.48,0,0.721c0,0.539,0,1.08,0,1.619c0,0.18,0,0.36,0,0.541c0,0.119,0,0.239,0,0.359c0,0.24,0,0.48,0,0.72
	c0,0.54,0,1.07,0,1.62c0,0.54,0,1.08,0,1.62S228.421,91.26,228.421,91.8z"/>
<path fill="#814221" d="M228.421,64.98c0,0.84,0,1.68,0,2.52c1.739,0,3.479,0,5.22,0c0-1.739,0-3.489,0-5.219c0.18,0,0.359,0,0.54,0
	c3.3,0,6.6,0,9.899,0c0-1.74,0-3.48,0-5.22c-1.739,0-3.479,0-5.22,0c0-1.74,0-3.48,0-5.22c-1.56,0-3.12,0-4.68,0
	c-0.181,0-0.36,0-0.54,0c0,1.74,0,3.48,0,5.22c-1.74,0-3.48,0-5.22,0c0,0.9,0,1.8,0,2.7c0,0.42,0,0.84,0,1.25c0,0.43,0,0.85,0,1.27
	c0,0.48,0,0.96,0,1.44C228.421,64.14,228.421,64.56,228.421,64.98z"/>
<path fill="#302F2E" d="M228.421,51.84c0,1.74,0,3.48,0,5.22c1.739,0,3.479,0,5.22,0c0-1.74,0-3.48,0-5.22c0.18,0,0.359,0,0.54,0
	c1.56,0,3.12,0,4.68,0c0-1.74,0-3.48,0-5.22c-1.74,0-3.479,0-5.22,0c0-0.18,0-0.36,0-0.54c0-1.5,0-3,0-4.5c0-0.78,0-1.57,0-2.34
	c0-0.36,0-0.73,0-1.08c0-0.42,0-0.84,0-1.26c0-0.18,0-0.36,0-0.54c-0.061,0-0.12,0-0.181,0c-0.06,0-0.119,0-0.18,0
	c-0.12,0-0.24,0-0.359,0c-0.24,0-0.48,0-0.721,0c-0.42,0-0.84,0-1.26,0s-0.84,0-1.26,0s-0.84,0-1.26,0c0,1.68,0,3.36,0,5.04
	c0,1.74,0,3.48,0,5.22C228.421,48.36,228.421,50.1,228.421,51.84z"/>
<path fill="#302F2E" d="M238.86,153c0,0.9,0,1.801,0,2.701c5.16,0,10.32,0,15.48,0c0-1.681,0-3.36,0-5.041c0-0.06,0-0.119,0-0.18
	c0.18,0,0.359,0,0.54,0c3.3,0,6.6,0,9.899,0c0-1.5,0-3,0-4.5c0-0.18,0-0.359,0-0.54c-0.24,0-0.479,0-0.72,0s-0.48,0-0.72,0
	c-0.42,0-0.841,0-1.261,0c-0.84,0-1.68,0-2.52,0s-1.68,0-2.521,0c-0.899,0-1.8,0-2.699,0c0-1.739,0-3.479,0-5.22
	c-1.74,0-3.48,0-5.221,0c0-1.74,0-3.48,0-5.221c0-1.739,0-3.479,0-5.219c-1.68,0-3.359,0-5.04,0c0,0.119,0,0.229,0,0.359
	c0,0.18,0,0.359,0,0.54c0,0.12,0,0.239,0,0.36c0,0.18,0,0.359,0,0.539c0,0.66,0,1.32,0,1.98c0,0.12,0,0.24,0,0.359
	c0,0.181,0,0.361,0,0.541c0,0.359,0,0.72,0,1.08c0,0.66,0,1.32,0,1.979c0,0.12,0,0.24,0,0.36c0,0.18,0,0.359,0,0.539
	c0,0.361,0,0.721,0,1.08c0,0.66,0,1.32,0,1.98c0,0.12,0,0.24,0,0.36c0,0.18,0,0.36,0,0.54c0,0.359,0,0.72,0,1.08
	c0,0.66,0,1.32,0,1.979c0,1.681,0,3.36,0,5.04c-0.899,0-1.8,0-2.699,0c-0.841,0-1.681,0-2.521,0
	C238.86,151.32,238.86,152.16,238.86,153z"/>
<path fill="#814221" d="M238.86,145.44c0,1.681,0,3.36,0,5.04c0.84,0,1.68,0,2.521,0c0.899,0,1.8,0,2.699,0c0-1.68,0-3.359,0-5.04
	c-1.56,0-3.12,0-4.68,0C239.221,145.44,239.04,145.44,238.86,145.44z"/>
<path fill="#302F2E" d="M238.86,51.84c0,1.74,0,3.48,0,5.22c1.74,0,3.48,0,5.22,0c0-1.56,0-3.12,0-4.68c0-0.18,0-0.37,0-0.54
	C242.341,51.84,240.601,51.84,238.86,51.84z"/>
<path fill="#814221" d="M244.08,62.28c0,1.74,0,3.48,0,5.219c1.681,0,3.36,0,5.04,0c0-1.739,0-3.479,0-5.219
	C247.44,62.28,245.761,62.28,244.08,62.28z"/>
<path fill="#302F2E" d="M244.08,57.06c0,1.74,0,3.48,0,5.22c1.681,0,3.36,0,5.04,0c0-0.78,0-1.56,0-2.34c0-0.78,0-1.56,0-2.34
	c0-0.18,0-0.36,0-0.54C247.44,57.06,245.761,57.06,244.08,57.06z"/>
<path fill="#302F2E" d="M249.12,128.51c0,0.43,0,0.851,0,1.271c1.561,0,3.12,0,4.681,0c0.18,0,0.359,0,0.54,0
	c0-0.181,0-0.361,0-0.541s0-0.359,0-0.539c0-0.36,0-0.721,0-1.08c0-0.721,0-1.44,0-2.16c0-0.12,0-0.24,0-0.36c0-0.181,0-0.36,0-0.54
	c0-0.359,0-0.72,0-1.08c0-0.72,0-1.439,0-2.16c0-0.119,0-0.24,0-0.359c0-0.18,0-0.36,0-0.541c0-0.359,0-0.719,0-1.079
	c0-0.72,0-1.44,0-2.16c0-1.44,0-2.88,0-4.319c0-0.121,0-0.24,0-0.361c0-0.18,0-0.359,0-0.539c0-0.36,0-0.721,0-1.08
	c0-0.721,0-1.44,0-2.16c0-1.439,0-2.88,0-4.32c0-0.3,0-0.6,0-0.9c0-0.359,0-0.719,0-1.08c0-0.719,0-1.439,0-2.159
	c0-1.44,0-2.88,0-4.32c0-0.659,0-1.319,0-1.979c0-0.721,0-1.45,0-2.16c0-0.66,0-1.32,0-1.98c0-0.72,0-1.439,0-2.16
	c0-0.119,0-0.24,0-0.359c0-0.18,0-0.36,0-0.54c0-0.36,0-0.72,0-1.08c0-0.72,0-1.44,0-2.17c0-1.431,0-2.87,0-4.31
	c0-0.121,0-0.24,0-0.36c0-0.181,0-0.36,0-0.54c0-0.36,0-0.721,0-1.08c0-0.721,0-1.439,0-2.16c0-1.439,0-2.88,0-4.32
	c0-0.66,0-1.32,0-1.979c0-0.72,0-1.44,0-2.16c0-1.439,0-2.88,0-4.32c-1.74,0-3.48,0-5.221,0c0,1.74,0,3.48,0,5.219
	c0,2.16,0,4.32,0,6.48s0,4.32,0,6.48s0,4.32,0,6.479c0,2.16,0,4.32,0,6.479c0,2.641,0,5.281,0,7.921c0,2.579,0,5.159,0,7.739
	c0,1.74,0,3.48,0,5.221s0,3.48,0,5.21c0,1.75,0,3.489,0,5.229c0,0.84,0,1.68,0,2.521C249.12,127.68,249.12,128.1,249.12,128.51z"/>
<path fill="#302F2E" d="M254.341,160.38c0,0.18,0,0.359,0,0.539c0.06,0,0.119,0,0.18,0c0.06,0,0.12,0,0.18,0c0.12,0,0.24,0,0.36,0
	c0.18,0,0.36,0,0.54,0c0.42,0,0.84,0,1.26,0c0.84,0,1.68,0,2.521,0c1.619,0,3.239,0,4.859,0c0.181,0,0.36,0,0.54,0
	c0-1.739,0-3.479,0-5.219c-0.84,0-1.68,0-2.52,0c-0.9,0-1.801,0-2.7,0c-0.84,0-1.68,0-2.521,0c-0.899,0-1.8,0-2.699,0
	c0,0.779,0,1.56,0,2.34C254.341,158.82,254.341,159.6,254.341,160.38z"/>
<path fill="#814221" d="M254.341,150.66c0,1.681,0,3.36,0,5.041c0.899,0,1.8,0,2.699,0c0.841,0,1.681,0,2.521,0c0.899,0,1.8,0,2.7,0
	c0.84,0,1.68,0,2.52,0c0-1.74,0-3.48,0-5.221c-3.3,0-6.6,0-9.899,0c-0.181,0-0.36,0-0.54,0
	C254.341,150.541,254.341,150.6,254.341,150.66z"/>
<path fill="#302F2E" d="M264.78,150.48c0,1.74,0,3.48,0,5.221c0.84,0,1.68,0,2.521,0c0.899,0,1.8,0,2.699,0c0-1.74,0-3.48,0-5.221
	c-0.84,0-1.68,0-2.52,0C266.58,150.48,265.681,150.48,264.78,150.48z"/>
</svg>
