<?xml version="1.0" encoding="utf-8"?>
<!-- Generator: Adobe Illustrator 15.0.0, SVG Export Plug-In  -->
<!DOCTYPE svg PUBLIC "-//W3C//DTD SVG 1.1//EN" "http://www.w3.org/Graphics/SVG/1.1/DTD/svg11.dtd" [
	<!ENTITY ns_flows "http://ns.adobe.com/Flows/1.0/">
]>
<svg version="1.1"
	 xmlns="http://www.w3.org/2000/svg" xmlns:xlink="http://www.w3.org/1999/xlink" xmlns:a="http://ns.adobe.com/AdobeSVGViewerExtensions/3.0/"
	 x="0px" y="0px" width="60px" height="60px" viewBox="-3.92 -6.58 60 60" enable-background="new -3.92 -6.58 60 60"
	 xml:space="preserve">
<defs>
</defs>
<g id="XMLID_1_">
	<g>
		<path fill="#010101" d="M51.55,22.66c-1.689,0-3.359,0-5.04,0c-0.06,0-0.13,0-0.18,0c0-0.54,0-1.08,0-1.62c0-0.48,0-0.96,0-1.44
			c0-0.43,0-0.86,0-1.29c0.05,0,0.12,0,0.18,0c1.681,0,3.351,0,5.04,0c0.181,0,0.351,0,0.54,0c0,0.43,0,0.86,0,1.29
			c0,0.48,0,0.96,0,1.44c0,0.24,0,0.48,0,0.72c0,0.12,0,0.24,0,0.36c0,0.18,0,0.36,0,0.54C51.9,22.66,51.73,22.66,51.55,22.66z"/>
		<path fill="#010101" d="M52.09,16.72c-1.92,0-3.84,0-5.76,0c0-0.01,0-0.02,0-0.03c0-0.48,0-0.96,0-1.44s0-0.96,0-1.44
			s0-0.96,0-1.44c1.92,0,3.84,0,5.76,0c0,0.48,0,0.96,0,1.44s0,0.96,0,1.44s0,0.96,0,1.44C52.09,16.7,52.09,16.71,52.09,16.72z"/>
		<path fill="#010101" d="M52.09,12.37c-1.92,0-3.84,0-5.76,0c0-0.54,0-1.08,0-1.62c0-0.48,0-0.96,0-1.44s0-0.96,0-1.44
			s0-0.96,0-1.44c1.92,0,3.84,0,5.76,0c0,0.48,0,0.96,0,1.44s0,0.96,0,1.44s0,0.96,0,1.44c0,0.24,0,0.48,0,0.72
			c0,0.12,0,0.24,0,0.36C52.09,12.01,52.09,12.19,52.09,12.37z"/>
		<path fill="#010101" d="M46.33,16.72c1.92,0,3.84,0,5.76,0c0,0.48,0,0.96,0,1.44c0,0.05,0,0.1,0,0.15c-0.189,0-0.359,0-0.54,0
			c-1.689,0-3.359,0-5.04,0c-0.06,0-0.13,0-0.18,0c0-0.05,0-0.1,0-0.15C46.33,17.68,46.33,17.2,46.33,16.72z"/>
		<path fill="#010101" d="M46.33,26.979c0,0.24,0,0.48,0,0.721c0,0.12,0,0.239,0,0.359c0,0.181,0,0.36,0,0.54c-0.19,0-0.36,0-0.54,0
			c-1.69,0-3.36,0-5.04,0c-0.06,0-0.13,0-0.18,0c0-0.54,0-1.08,0-1.62c0-0.479,0-0.96,0-1.439c0-0.48,0-0.96,0-1.44s0-0.96,0-1.44
			c1.92,0,3.84,0,5.76,0c0,0.48,0,0.96,0,1.44s0,0.959,0,1.44C46.33,26.02,46.33,26.5,46.33,26.979z"/>
		<path fill="#11AA4B" d="M46.33,21.04c0,0.54,0,1.08,0,1.62c-1.92,0-3.84,0-5.76,0c0,0.48,0,0.96,0,1.44s0,0.959,0,1.44
			c0,0.479,0,0.96,0,1.439c0,0.54,0,1.08,0,1.62c-1.92,0-3.84,0-5.76,0c0,0.48,0,0.96,0,1.44c0,0.479,0,0.96,0,1.439
			c0,0.48,0,0.96,0,1.44c0,0.54,0,1.08,0,1.62c-1.921,0-3.841,0-5.761,0c0,0.479,0,0.96,0,1.439c0,0.48,0,0.96,0,1.44s0,0.96,0,1.44
			c0,0.46,0,0.92,0,1.38c-1.92,0-3.84,0-5.76,0c0-0.54,0-1.08,0-1.62c0-0.48,0-0.96,0-1.44c0-0.479,0-0.96,0-1.439
			c0-0.48,0-0.96,0-1.44c-1.92,0-3.84,0-5.76,0c0-0.54,0-1.08,0-1.62c0-0.479,0-0.96,0-1.439c0-0.48,0-0.96,0-1.44
			c0-0.479,0-0.96,0-1.439c-1.92,0-3.84,0-5.76,0c0-0.54,0-1.08,0-1.62c0-0.48,0-0.96,0-1.44c0-0.479,0-0.96,0-1.44s0-0.96,0-1.44
			c-1.92,0-3.84,0-5.76,0c0-0.54,0-1.08,0-1.62c0-0.48,0-0.96,0-1.44c0-0.43,0-0.86,0-1.29c0-0.05,0-0.1,0-0.15
			c0-0.48,0-0.96,0-1.44c0-0.01,0-0.02,0-0.03c0-0.48,0-0.96,0-1.44s0-0.96,0-1.44s0-0.96,0-1.44c0-0.54,0-1.08,0-1.62
			c0-0.48,0-0.96,0-1.44s0-0.96,0-1.44s0-0.96,0-1.44c0.19,0,0.36,0,0.54,0c1.69,0,3.36,0,5.04,0c0.06,0,0.13,0,0.18,0
			c0.19,0,0.36,0,0.54,0c1.69,0,3.36,0,5.04,0c0.06,0,0.13,0,0.18,0c0.19,0,0.36,0,0.54,0c1.69,0,3.36,0,5.04,0
			c0.06,0,0.13,0,0.18,0c0,0.08,0,0.16,0,0.24c0,0.48,0,0.96,0,1.44s0,0.96,0,1.44s0,0.96,0,1.44c0,0.46,0,0.92,0,1.38
			c0,0.08,0,0.16,0,0.24c0.05,0,0.12,0,0.18,0c1.68,0,3.35,0,5.04,0c0.181,0,0.351,0,0.54,0c0-0.08,0-0.16,0-0.24c0-0.1,0-0.2,0-0.3
			c0-0.12,0-0.24,0-0.36c0-0.24,0-0.48,0-0.72c0-0.48,0-0.96,0-1.44s0-0.96,0-1.44s0-0.96,0-1.44c0.05,0,0.12,0,0.181,0
			c1.68,0,3.35,0,5.04,0c0.18,0,0.35,0,0.54,0c0.05,0,0.119,0,0.18,0c1.68,0,3.35,0,5.04,0c0.18,0,0.35,0,0.54,0
			c0.05,0,0.12,0,0.18,0c1.68,0,3.35,0,5.04,0c0.18,0,0.35,0,0.54,0c0,0.48,0,0.96,0,1.44s0,0.96,0,1.44s0,0.96,0,1.44
			c0,0.54,0,1.08,0,1.62c0,0.48,0,0.96,0,1.44s0,0.96,0,1.44s0,0.96,0,1.44c0,0.01,0,0.02,0,0.03c0,0.48,0,0.96,0,1.44
			c0,0.05,0,0.1,0,0.15c0,0.43,0,0.86,0,1.29C46.33,20.08,46.33,20.56,46.33,21.04z"/>
		<path fill="#010101" d="M46.33,4.81c0,0.24,0,0.48,0,0.72c0,0.12,0,0.24,0,0.36c0,0.18,0,0.36,0,0.54c-0.19,0-0.36,0-0.54,0
			c-1.69,0-3.36,0-5.04,0c-0.06,0-0.13,0-0.18,0c0-0.54,0-1.08,0-1.62c0-0.48,0-0.96,0-1.44s0-0.96,0-1.44c0-0.48,0-0.96,0-1.44
			c1.92,0,3.84,0,5.76,0c0,0.48,0,0.96,0,1.44c0,0.48,0,0.96,0,1.44S46.33,4.33,46.33,4.81z"/>
		<path fill="#010101" d="M40.03,34.54c-1.69,0-3.36,0-5.04,0c-0.061,0-0.13,0-0.18,0c0-0.54,0-1.08,0-1.62c0-0.48,0-0.96,0-1.44
			c0-0.479,0-0.96,0-1.439c0-0.48,0-0.96,0-1.44c1.92,0,3.84,0,5.76,0c0,0.48,0,0.96,0,1.44c0,0.479,0,0.96,0,1.439
			c0,0.48,0,0.96,0,1.44c0,0.24,0,0.48,0,0.72c0,0.12,0,0.24,0,0.36c0,0.18,0,0.36,0,0.54C40.38,34.54,40.21,34.54,40.03,34.54z"/>
		<path fill="#010101" d="M40.03,6.43c-1.69,0-3.36,0-5.04,0c-0.061,0-0.13,0-0.18,0c0-0.54,0-1.08,0-1.62c0-0.48,0-0.96,0-1.44
			s0-0.96,0-1.44c0-0.48,0-0.96,0-1.44c1.92,0,3.84,0,5.76,0c0,0.48,0,0.96,0,1.44c0,0.48,0,0.96,0,1.44s0,0.96,0,1.44
			c0,0.54,0,1.08,0,1.62C40.38,6.43,40.21,6.43,40.03,6.43z"/>
		<path fill="#010101" d="M34.811,38.86c0,0.239,0,0.479,0,0.72c0,0.12,0,0.24,0,0.359c0,0.181,0,0.36,0,0.54c-0.19,0-0.36,0-0.54,0
			c-1.69,0-3.36,0-5.04,0c-0.061,0-0.131,0-0.181,0c0-0.079,0-0.159,0-0.239c0-0.46,0-0.92,0-1.38c0-0.48,0-0.96,0-1.44
			s0-0.96,0-1.44c0-0.479,0-0.96,0-1.439c1.92,0,3.84,0,5.761,0c0,0.479,0,0.96,0,1.439c0,0.48,0,0.96,0,1.44
			S34.811,38.38,34.811,38.86z"/>
		<path fill="#010101" d="M34.811,4.81c0,0.54,0,1.08,0,1.62c-0.19,0-0.36,0-0.54,0c-1.69,0-3.36,0-5.04,0c-0.061,0-0.131,0-0.181,0
			c0-0.08,0-0.16,0-0.24c0-0.46,0-0.92,0-1.38c0-0.48,0-0.96,0-1.44s0-0.96,0-1.44c0-0.48,0-0.96,0-1.44c1.92,0,3.84,0,5.761,0
			c0,0.48,0,0.96,0,1.44c0,0.48,0,0.96,0,1.44S34.811,4.33,34.811,4.81z"/>
		<path fill="#010101" d="M29.05,45.88c0,0.1,0,0.2,0,0.3c-0.05,0-0.12,0-0.18,0c-1.68,0-3.35,0-5.04,0c-0.18,0-0.35,0-0.54,0
			c0-0.46,0-0.92,0-1.38c0-0.479,0-0.96,0-1.439c0-0.48,0-0.96,0-1.44s0-0.96,0-1.44c1.92,0,3.84,0,5.76,0c0,0.48,0,0.96,0,1.44
			s0,0.96,0,1.44c0,0.479,0,0.96,0,1.439c0,0.24,0,0.48,0,0.72C29.05,45.64,29.05,45.76,29.05,45.88z"/>
		<path fill="#010101" d="M29.05,40.24c0,0.08,0,0.16,0,0.239c-1.92,0-3.84,0-5.76,0c0-0.079,0-0.159,0-0.239
			C25.21,40.24,27.13,40.24,29.05,40.24z"/>
		<path fill="#010101" d="M29.05,11.83c0,0.1,0,0.2,0,0.3c-0.05,0-0.12,0-0.18,0c-1.68,0-3.35,0-5.04,0c-0.18,0-0.35,0-0.54,0
			c0-0.46,0-0.92,0-1.38c0-0.48,0-0.96,0-1.44s0-0.96,0-1.44s0-0.96,0-1.44c1.92,0,3.84,0,5.76,0c0,0.48,0,0.96,0,1.44
			s0,0.96,0,1.44s0,0.96,0,1.44c0,0.24,0,0.48,0,0.72C29.05,11.59,29.05,11.71,29.05,11.83z"/>
		<path fill="#010101" d="M29.05,6.19c0,0.08,0,0.16,0,0.24c-1.92,0-3.84,0-5.76,0c0-0.08,0-0.16,0-0.24
			C25.21,6.19,27.13,6.19,29.05,6.19z"/>
		<path fill="#010101" d="M23.29,46.18c0.19,0,0.36,0,0.54,0c1.69,0,3.36,0,5.04,0c0.06,0,0.13,0,0.18,0c0,0.08,0,0.16,0,0.24
			c-0.189,0-0.359,0-0.54,0c-1.689,0-3.36,0-5.04,0c-0.06,0-0.13,0-0.18,0C23.29,46.34,23.29,46.26,23.29,46.18z"/>
		<path fill="#010101" d="M23.83,12.13c1.69,0,3.36,0,5.04,0c0.06,0,0.13,0,0.18,0c0,0.08,0,0.16,0,0.24c-0.189,0-0.359,0-0.54,0
			c-1.689,0-3.36,0-5.04,0c-0.06,0-0.13,0-0.18,0c0-0.08,0-0.16,0-0.24C23.48,12.13,23.65,12.13,23.83,12.13z"/>
		<path fill="#010101" d="M23.29,38.62c0,0.54,0,1.08,0,1.62c-0.05,0-0.12,0-0.18,0c-1.68,0-3.35,0-5.04,0c-0.18,0-0.35,0-0.54,0
			c0-0.181,0-0.36,0-0.54c0-0.12,0-0.24,0-0.36c0-0.24,0-0.479,0-0.72c0-0.48,0-0.96,0-1.44c0-0.479,0-0.96,0-1.439
			c0-0.48,0-0.96,0-1.44c1.92,0,3.84,0,5.76,0c0,0.48,0,0.96,0,1.44c0,0.479,0,0.96,0,1.439C23.29,37.66,23.29,38.14,23.29,38.62z"
			/>
		<path fill="#010101" d="M23.29,4.57c0,0.54,0,1.08,0,1.62c-0.05,0-0.12,0-0.18,0c-1.68,0-3.35,0-5.04,0c-0.18,0-0.35,0-0.54,0
			c0-0.54,0-1.08,0-1.62c0-0.48,0-0.96,0-1.44s0-0.96,0-1.44s0-0.96,0-1.44c1.92,0,3.84,0,5.76,0c0,0.48,0,0.96,0,1.44
			s0,0.96,0,1.44S23.29,4.09,23.29,4.57z"/>
		<path fill="#010101" d="M17.53,32.68c0,0.54,0,1.08,0,1.62c-0.05,0-0.12,0-0.18,0c-1.68,0-3.35,0-5.04,0c-0.18,0-0.35,0-0.54,0
			c0-0.18,0-0.36,0-0.54c0-0.12,0-0.24,0-0.359c0-0.24,0-0.48,0-0.721c0-0.479,0-0.96,0-1.439c0-0.48,0-0.96,0-1.44
			c0-0.479,0-0.96,0-1.439c1.92,0,3.84,0,5.76,0c0,0.479,0,0.96,0,1.439c0,0.48,0,0.96,0,1.44C17.53,31.72,17.53,32.2,17.53,32.68z"
			/>
		<path fill="#010101" d="M17.35,6.19c-1.68,0-3.35,0-5.04,0c-0.18,0-0.35,0-0.54,0c0-0.54,0-1.08,0-1.62c0-0.48,0-0.96,0-1.44
			s0-0.96,0-1.44s0-0.96,0-1.44c1.92,0,3.84,0,5.76,0c0,0.48,0,0.96,0,1.44s0,0.96,0,1.44s0,0.96,0,1.44c0,0.54,0,1.08,0,1.62
			C17.48,6.19,17.41,6.19,17.35,6.19z"/>
		<path fill="#010101" d="M11.77,26.74c0,0.54,0,1.08,0,1.62c-0.05,0-0.12,0-0.18,0c-1.68,0-3.35,0-5.04,0c-0.18,0-0.35,0-0.54,0
			c0-0.181,0-0.36,0-0.54c0-0.12,0-0.24,0-0.36c0-0.24,0-0.48,0-0.72c0-0.48,0-0.96,0-1.44c0-0.479,0-0.96,0-1.44s0-0.96,0-1.44
			c1.92,0,3.84,0,5.76,0c0,0.48,0,0.96,0,1.44s0,0.96,0,1.44C11.77,25.78,11.77,26.26,11.77,26.74z"/>
		<path fill="#010101" d="M11.77,4.57c0,0.54,0,1.08,0,1.62c-0.05,0-0.12,0-0.18,0c-1.68,0-3.35,0-5.04,0c-0.18,0-0.35,0-0.54,0
			c0-0.18,0-0.36,0-0.54c0-0.12,0-0.24,0-0.36c0-0.24,0-0.48,0-0.72c0-0.48,0-0.96,0-1.44s0-0.96,0-1.44s0-0.96,0-1.44
			c1.92,0,3.84,0,5.76,0c0,0.48,0,0.96,0,1.44s0,0.96,0,1.44S11.77,4.09,11.77,4.57z"/>
		<path fill="#010101" d="M6.01,20.8c0,0.54,0,1.08,0,1.62c-0.05,0-0.12,0-0.18,0c-1.68,0-3.35,0-5.04,0c-0.18,0-0.35,0-0.54,0
			c0-0.18,0-0.36,0-0.54c0-0.12,0-0.24,0-0.36c0-0.24,0-0.48,0-0.72c0-0.48,0-0.96,0-1.44c0-0.43,0-0.86,0-1.29
			c0.19,0,0.36,0,0.54,0c1.69,0,3.36,0,5.04,0c0.06,0,0.13,0,0.18,0c0,0.43,0,0.86,0,1.29C6.01,19.84,6.01,20.32,6.01,20.8z"/>
		<path fill="#010101" d="M0.25,12.13c1.92,0,3.84,0,5.76,0c0,0.48,0,0.96,0,1.44s0,0.96,0,1.44s0,0.96,0,1.44c0,0.01,0,0.02,0,0.03
			c-1.92,0-3.84,0-5.76,0c0-0.01,0-0.02,0-0.03c0-0.48,0-0.96,0-1.44s0-0.96,0-1.44S0.25,12.61,0.25,12.13z"/>
		<path fill="#010101" d="M6.01,10.51c0,0.54,0,1.08,0,1.62c-1.92,0-3.84,0-5.76,0c0-0.18,0-0.36,0-0.54c0-0.12,0-0.24,0-0.36
			c0-0.24,0-0.48,0-0.72c0-0.48,0-0.96,0-1.44s0-0.96,0-1.44s0-0.96,0-1.44c1.92,0,3.84,0,5.76,0c0,0.48,0,0.96,0,1.44
			s0,0.96,0,1.44S6.01,10.03,6.01,10.51z"/>
		<path fill="#010101" d="M0.79,18.07c-0.18,0-0.35,0-0.54,0c0-0.05,0-0.1,0-0.15c0-0.48,0-0.96,0-1.44c1.92,0,3.84,0,5.76,0
			c0,0.48,0,0.96,0,1.44c0,0.05,0,0.1,0,0.15c-0.05,0-0.12,0-0.18,0C4.15,18.07,2.48,18.07,0.79,18.07z"/>
	</g>
	<g>
	</g>
</g>
</svg>
