<?xml version="1.0" encoding="utf-8"?>
<!-- Generator: Adobe Illustrator 15.0.0, SVG Export Plug-In  -->
<!DOCTYPE svg PUBLIC "-//W3C//DTD SVG 1.1//EN" "http://www.w3.org/Graphics/SVG/1.1/DTD/svg11.dtd" [
	<!ENTITY ns_flows "http://ns.adobe.com/Flows/1.0/">
]>
<svg version="1.1"
	 xmlns="http://www.w3.org/2000/svg" xmlns:xlink="http://www.w3.org/1999/xlink" xmlns:a="http://ns.adobe.com/AdobeSVGViewerExtensions/3.0/"
	 x="0px" y="0px" width="200px" height="200px" viewBox="-17.01 -24.95 200 200" enable-background="new -17.01 -24.95 200 200"
	 xml:space="preserve">
<defs>
</defs>
<path fill="#E2F4FC" d="M0,80.819c0,7.74,0,15.48,0,23.221c1.92,0,3.84,0,5.76,0c0,1.92,0,3.84,0,5.76c1.91,0,3.83,0,5.75,0
	c0-2.88,0-5.76,0-8.64c0-1.44,0-2.88,0-4.32s0-2.88,0-4.32c0-1.439,0-2.88,0-4.319c0-1.44,0-2.881,0-4.32c0-1.44,0-2.88,0-4.32
	c0-0.72,0-1.439,0-2.16c0-0.779,0-1.56,0-2.34c1.99,0,3.96,0,5.95,0c0-1.92,0-3.84,0-5.76c1.92,0,3.84,0,5.75,0
	c0-1.92,0-3.84,0-5.76c3.84,0,7.68,0,11.53,0c1.92,0,3.84,0,5.76,0c0-3.84,0-7.681,0-11.521c-1.92,0-3.84,0-5.76,0
	c0-1.92,0-3.84,0-5.76c-1.92,0-3.851,0-5.771,0c0,3.84,0,7.68,0,11.521c-3.84,0-7.67,0-11.51,0c0,1.92,0,3.84,0,5.76
	c-0.18,0-0.37,0-0.54,0c-1.62,0-3.25,0-4.87,0c-0.17,0-0.35,0-0.54,0c0,1.92,0,3.84,0,5.76c-0.17,0-0.35,0-0.54,0
	c-1.55,0-3.11,0-4.67,0c-0.18,0-0.37,0-0.54,0c0,3.84,0,7.68,0,11.52C3.84,80.819,1.92,80.819,0,80.819z"/>
<path fill="#E2F4FC" d="M11.51,109.8c0,1.92,0,3.84,0,5.76c1.99,0,3.96,0,5.95,0c0-1.92,0-3.84,0-5.76
	C15.47,109.8,13.5,109.8,11.51,109.8z"/>
<path fill="#CDE9F9" d="M11.51,77.399c0,0.721,0,1.44,0,2.16c0,1.44,0,2.88,0,4.32c0,1.439,0,2.88,0,4.32c0,1.439,0,2.88,0,4.319
	c0,1.44,0,2.88,0,4.32s0,2.88,0,4.32c0,2.88,0,5.76,0,8.64c1.99,0,3.96,0,5.95,0c0,1.92,0,3.84,0,5.76c1.92,0,3.84,0,5.75,0
	c0,1.92,0,3.84,0,5.76c1.92,0,3.84,0,5.76,0c0,1.921,0,3.841,0,5.761c1.92,0,3.851,0,5.771,0c0,1.92,0,3.84,0,5.76
	c1.92,0,3.84,0,5.76,0c0,1.92,0,3.84,0,5.76c7.67,0,15.359,0,23.04,0c0-1.92,0-3.84,0-5.76c1.92,0,3.84,0,5.76,0
	c0-1.92,0-3.84,0-5.76c0.17,0,0.36,0,0.54,0c1.79,0,3.59,0,5.4,0c0.89,0,1.8,0,2.689,0c0.49,0,0.96,0,1.45,0c0.42,0,0.83,0,1.25,0
	c0.07,0,0.13,0,0.19,0c0,1.92,0,3.84,0,5.76c1.979,0,3.96,0,5.939,0c0-1.92,0-3.84,0-5.76c1.91,0,3.83,0,5.75,0
	c0-1.92,0-3.84,0-5.761c0.19,0,0.37,0,0.54,0c5.41,0,10.81,0,16.21,0c0.17,0,0.36,0,0.54,0c0,1.921,0,3.841,0,5.761
	c1.91,0,3.83,0,5.75,0c0,1.92,0,3.84,0,5.76c3.84,0,7.69,0,11.53,0c0-1.92,0-3.84,0-5.76c1.92,0,3.84,0,5.76,0
	c0-1.92,0-3.84,0-5.761c1.92,0,3.83,0,5.75,0c0-1.92,0-3.84,0-5.76c1.92,0,3.84,0,5.77,0c0-1.92,0-3.84,0-5.76
	c1.921,0,3.841,0,5.761,0c0-3.84,0-7.68,0-11.52c1.92,0,3.84,0,5.76,0c0-5.82,0-11.641,0-17.461c-1.92,0-3.84,0-5.76,0
	c0-1.92,0-3.84,0-5.76c-9.61,0-19.2,0-28.8,0c0-3.84,0-7.68,0-11.52c1.92,0,3.84,0,5.76,0c0-1.92,0-3.84,0-5.76
	c1.92,0,3.84,0,5.76,0c0-5.761,0-11.521,0-17.28c-1.92,0-3.84,0-5.76,0c0-1.92,0-3.84,0-5.76c-1.92,0-3.84,0-5.76,0
	c0-1.921,0-3.841,0-5.761c-1.931,0-3.851,0-5.771,0c0-1.92,0-3.84,0-5.76c-5.75,0-11.51,0-17.27,0c0-1.92,0-3.84,0-5.76
	c-3.851,0-7.69,0-11.521,0c0-1.92,0-3.84,0-5.76c-9.67,0-19.33,0-28.979,0c0,1.92,0,3.84,0,5.76c-3.851,0-7.69,0-11.521,0
	c0,1.92,0,3.84,0,5.76c-1.92,0-3.84,0-5.76,0c0,1.92,0,3.84,0,5.76c-1.92,0-3.84,0-5.76,0c0,3.84,0,7.681,0,11.521
	c-1.92,0-3.851,0-5.771,0c0,1.92,0,3.84,0,5.76c1.92,0,3.851,0,5.771,0c0,1.92,0,3.84,0,5.76c1.92,0,3.84,0,5.76,0s3.84,0,5.76,0
	c0-1.92,0-3.84,0-5.76c1.91,0,3.83,0,5.75,0c0-5.76,0-11.52,0-17.28c1.92,0,3.85,0,5.771,0c0-1.92,0-3.84,0-5.76
	c7.68,0,15.35,0,23.04,0c0,1.92,0,3.84,0,5.76c3.89,0,7.8,0,11.689,0c0,1.92,0,3.84,0,5.761c7.69,0,15.37,0,23.04,0
	c0,1.92,0,3.84,0,5.76c1.92,0,3.84,0,5.771,0c0,5.76,0,11.52,0,17.28c-1.931,0-3.851,0-5.771,0c0,5.76,0,11.52,0,17.279
	c-1.92,0-3.84,0-5.75,0c0,1.92,0,3.84,0,5.76c1.91,0,3.83,0,5.75,0c0,3.9,0,7.801,0,11.7c-1.92,0-3.84,0-5.75,0
	c0,3.84,0,7.681,0,11.521c1.91,0,3.83,0,5.75,0c0-1.92,0-3.84,0-5.76c1.92,0,3.84,0,5.771,0c0,0.18,0,0.359,0,0.539
	c0,3.66,0,7.32,0,10.98c-3.851,0-7.69,0-11.521,0c0-1.92,0-3.84,0-5.76c-3.84,0-7.68,0-11.52,0c0,1.92,0,3.84,0,5.76
	c-1.921,0-3.851,0-5.771,0s-3.84,0-5.75,0c0,1.92,0,3.84,0,5.76c-1.979,0-3.96,0-5.939,0c0,1.92,0,3.84,0,5.76
	c-4.811,0-9.61,0-14.4,0c-4.8,0-9.61,0-14.41,0c0-1.92,0-3.84,0-5.76c-1.92,0-3.84,0-5.75,0c0-1.92,0-3.84,0-5.76
	c-1.92,0-3.84,0-5.76,0c0-1.92,0-3.84,0-5.76s0-3.84,0-5.76c-5.76,0-11.53,0-17.29,0c0-3.841,0-7.681,0-11.521c1.92,0,3.84,0,5.76,0
	c0-1.979,0-3.96,0-5.94c1.92,0,3.851,0,5.771,0c0-5.76,0-11.52,0-17.279c-3.851,0-7.69,0-11.53,0c0,1.92,0,3.84,0,5.76
	c-1.91,0-3.83,0-5.75,0c0,1.92,0,3.84,0,5.76c-1.99,0-3.96,0-5.95,0C11.51,75.84,11.51,76.62,11.51,77.399z"/>
<path fill="#A6CDED" d="M23.21,86.76c0,3.84,0,7.68,0,11.521c5.76,0,11.53,0,17.29,0c0-1.921,0-3.841,0-5.761c-1.92,0-3.84,0-5.76,0
	c0-3.899,0-7.8,0-11.7c-1.92,0-3.851,0-5.771,0c0,1.98,0,3.961,0,5.94C27.05,86.76,25.13,86.76,23.21,86.76z"/>
<path fill="#E2F4FC" d="M23.21,28.979c0,5.761,0,11.521,0,17.28c1.92,0,3.84,0,5.76,0c0-1.92,0-3.84,0-5.76c1.92,0,3.851,0,5.771,0
	c0-3.84,0-7.681,0-11.521c1.92,0,3.84,0,5.76,0c0-1.92,0-3.84,0-5.76c1.92,0,3.84,0,5.76,0c0-1.92,0-3.84,0-5.76
	c3.83,0,7.67,0,11.521,0c0-1.92,0-3.84,0-5.76c9.649,0,19.31,0,28.979,0c0,1.92,0,3.84,0,5.76c3.83,0,7.67,0,11.521,0
	c0,1.92,0,3.84,0,5.76c5.76,0,11.52,0,17.27,0c0,1.92,0,3.84,0,5.76c1.92,0,3.84,0,5.771,0c0,1.92,0,3.84,0,5.761
	c1.92,0,3.84,0,5.76,0c0,1.92,0,3.84,0,5.76c1.92,0,3.84,0,5.76,0c0-3.84,0-7.681,0-11.521c-1.92,0-3.84,0-5.76,0
	c0-0.18,0-0.359,0-0.54c0-1.56,0-3.12,0-4.68c0-0.18,0-0.36,0-0.54c-1.92,0-3.84,0-5.76,0c0-0.18,0-0.36,0-0.54
	c0-1.56,0-3.12,0-4.68c0-0.181,0-0.36,0-0.54c-5.771,0-11.521,0-17.28,0c0-1.92,0-3.84,0-5.76c-3.84,0-7.681,0-11.53,0
	c0-1.98,0-3.96,0-5.94c-3.89,0-7.8,0-11.689,0c0-0.18,0-0.36,0-0.54c0-0.36,0-0.72,0-1.08c0-0.42,0-0.84,0-1.26
	c0-0.18,0-0.36,0-0.54s0-0.36,0-0.54c0-0.42,0-0.84,0-1.26c0-0.181,0-0.36,0-0.54c-7.69,0-15.36,0-23.04,0c0,1.92,0,3.84,0,5.76
	c-0.19,0-0.36,0-0.54,0c-0.9,0-1.811,0-2.7,0c-0.91,0-1.8,0-2.7,0c-0.91,0-1.8,0-2.71,0c-0.96,0-1.92,0-2.87,0c0,1.98,0,3.96,0,5.94
	c-0.18,0-0.37,0-0.55,0c-1.79,0-3.59,0-5.39,0c-1.86,0-3.73,0-5.58,0c0,1.92,0,3.84,0,5.76c-0.19,0-0.36,0-0.54,0
	c-1.57,0-3.12,0-4.69,0c-0.17,0-0.35,0-0.54,0c0,3.84,0,7.68,0,11.52c-0.17,0-0.35,0-0.54,0c-1.55,0-3.12,0-4.67,0
	C23.58,28.979,23.39,28.979,23.21,28.979z"/>
<path fill="#232034" d="M34.74,80.819c0,3.9,0,7.801,0,11.7c1.92,0,3.84,0,5.76,0c0-3.899,0-7.8,0-11.7c0-1.92,0-3.84,0-5.76
	s0-3.84,0-5.76s0-3.84,0-5.76c-1.92,0-3.84,0-5.76,0C34.74,69.3,34.74,75.06,34.74,80.819z"/>
<path fill="#232034" d="M40.5,104.04c0,1.92,0,3.84,0,5.76c1.92,0,3.84,0,5.76,0c0-1.92,0-3.84,0-5.76
	C44.34,104.04,42.42,104.04,40.5,104.04z"/>
<path fill="#A6CDED" d="M40.5,98.28c0,1.92,0,3.84,0,5.76c1.92,0,3.84,0,5.76,0c0-1.92,0-3.84,0-5.76
	C44.34,98.28,42.42,98.28,40.5,98.28z"/>
<path fill="#232034" d="M40.5,92.52c0,1.92,0,3.84,0,5.761c1.92,0,3.84,0,5.76,0c0-1.921,0-3.841,0-5.761
	C44.34,92.52,42.42,92.52,40.5,92.52z"/>
<path fill="#90BEE6" d="M40.5,75.06c0,1.92,0,3.84,0,5.76c1.92,0,3.84,0,5.76,0c0-1.92,0-3.84,0-5.76
	C44.34,75.06,42.42,75.06,40.5,75.06z"/>
<path fill="#010101" d="M40.5,69.3c0,1.92,0,3.84,0,5.76c1.92,0,3.84,0,5.76,0c0,1.92,0,3.84,0,5.76c1.91,0,3.83,0,5.75,0
	c0-3.84,0-7.68,0-11.52c-1.92,0-3.84,0-5.75,0C44.34,69.3,42.42,69.3,40.5,69.3z"/>
<path fill="#C0BFBF" d="M40.5,63.54c0,1.92,0,3.84,0,5.76c1.92,0,3.84,0,5.76,0c0-1.92,0-3.84,0-5.76
	C44.34,63.54,42.42,63.54,40.5,63.54z"/>
<path fill="#232034" d="M40.5,52.02c0,3.84,0,7.681,0,11.521c1.92,0,3.84,0,5.76,0c0-1.92,0-3.84,0-5.76c0-1.921,0-3.841,0-5.761
	C44.34,52.02,42.42,52.02,40.5,52.02z"/>
<path fill="#232034" d="M46.26,109.8c0,1.92,0,3.84,0,5.76c1.91,0,3.83,0,5.75,0c0-1.92,0-3.84,0-5.76
	C50.09,109.8,48.17,109.8,46.26,109.8z"/>
<path fill="#F0EFEF" d="M46.26,104.04c0,1.92,0,3.84,0,5.76c1.91,0,3.83,0,5.75,0c0-1.92,0-3.84,0-5.76
	C50.09,104.04,48.17,104.04,46.26,104.04z"/>
<path fill="#232034" d="M46.26,98.28c0,1.92,0,3.84,0,5.76c1.91,0,3.83,0,5.75,0c0-1.92,0-3.84,0-5.76
	C50.09,98.28,48.17,98.28,46.26,98.28z"/>
<path fill="#010101" d="M46.26,92.52c0,1.92,0,3.84,0,5.761c1.91,0,3.83,0,5.75,0c0-1.921,0-3.841,0-5.761
	C50.09,92.52,48.17,92.52,46.26,92.52z"/>
<path fill="#C0BFBF" d="M46.26,52.02c0,1.92,0,3.84,0,5.761c1.91,0,3.83,0,5.75,0c0-1.921,0-3.841,0-5.761
	C50.09,52.02,48.17,52.02,46.26,52.02z"/>
<path fill="#232034" d="M46.26,46.26c0,1.92,0,3.84,0,5.76c1.91,0,3.83,0,5.75,0s3.85,0,5.771,0c0-1.92,0-3.84,0-5.76
	c-1.921,0-3.851,0-5.771,0S48.17,46.26,46.26,46.26z"/>
<path fill="#232034" d="M52.01,115.56c0,1.92,0,3.84,0,5.76c4.8,0,9.61,0,14.41,0c4.79,0,9.59,0,14.4,0c0-1.92,0-3.84,0-5.76
	c-1.931,0-3.851,0-5.771,0C67.38,115.56,59.7,115.56,52.01,115.56z"/>
<path fill="#010101" d="M52.01,80.819c0,1.98,0,3.961,0,5.94c1.75,0,3.49,0,5.23,0c0.18,0,0.35,0,0.54,0c0-1.979,0-3.96,0-5.94
	C55.859,80.819,53.93,80.819,52.01,80.819z"/>
<path fill="#A6CDED" d="M52.01,28.979c0,5.761,0,11.521,0,17.28c1.92,0,3.85,0,5.771,0c0-1.92,0-3.84,0-5.76c1.92,0,3.84,0,5.76,0
	c0-1.92,0-3.84,0-5.76c1.92,0,3.84,0,5.76,0c0,1.92,0,3.84,0,5.76c7.74,0,15.48,0,23.21,0c0,1.92,0,3.84,0,5.76
	c1.92,0,3.85,0,5.771,0c0,1.92,0,3.84,0,5.76c1.92,0,3.84,0,5.76,0c0,1.92,0,3.84,0,5.761c1.92,0,3.84,0,5.76,0
	c0,0.18,0,0.359,0,0.539c0,5.58,0,11.16,0,16.74c1.91,0,3.83,0,5.75,0c0-5.76,0-11.52,0-17.279c1.92,0,3.84,0,5.771,0
	c0-5.761,0-11.521,0-17.28c-1.931,0-3.851,0-5.771,0c0-1.92,0-3.84,0-5.76c-7.67,0-15.35,0-23.04,0c0-1.921,0-3.841,0-5.761
	c-3.89,0-7.8,0-11.689,0c0-1.92,0-3.84,0-5.76c-7.69,0-15.36,0-23.04,0c0,1.92,0,3.84,0,5.76
	C55.859,28.979,53.93,28.979,52.01,28.979z"/>
<path fill="#F0EFEF" d="M68.76,109.8c-5.59,0-11.17,0-16.75,0c0,1.92,0,3.84,0,5.76c7.69,0,15.37,0,23.04,0c0-1.92,0-3.84,0-5.76
	c1.92,0,3.84,0,5.771,0c1.979,0,3.96,0,5.939,0c0-5.76,0-11.52,0-17.28c-1.979,0-3.96,0-5.939,0c0-3.899,0-7.8,0-11.7
	c-1.931,0-3.851,0-5.771,0s-3.84,0-5.75,0c-1.92,0-3.84,0-5.76,0c0-1.92,0-3.84,0-5.76c-1.92,0-3.84,0-5.76,0c0-1.92,0-3.84,0-5.76
	c1.92,0,3.84,0,5.76,0c5.76,0,11.51,0,17.28,0c0,1.92,0,3.84,0,5.76c1.979,0,3.96,0,5.939,0c0-1.92,0-3.84,0-5.76
	c3.83,0,7.67,0,11.521,0c0-1.92,0-3.84,0-5.76c-1.921,0-3.851,0-5.771,0c0-3.84,0-7.681,0-11.521c-1.92,0-3.84,0-5.75,0
	c0-1.92,0-3.84,0-5.76c-7.75,0-15.479,0-23.22,0c0,1.92,0,3.84,0,5.76c-1.92,0-3.84,0-5.76,0c-1.921,0-3.851,0-5.771,0
	c0,1.92,0,3.84,0,5.761c-1.92,0-3.84,0-5.75,0c0,1.92,0,3.84,0,5.76s0,3.84,0,5.76c1.91,0,3.83,0,5.75,0c0,3.84,0,7.68,0,11.52
	c1.92,0,3.85,0,5.771,0c0,1.98,0,3.961,0,5.94c-0.19,0-0.36,0-0.54,0c-1.74,0-3.48,0-5.23,0c0-1.979,0-3.96,0-5.94
	c-1.92,0-3.84,0-5.75,0c-1.92,0-3.84,0-5.76,0c0,3.9,0,7.801,0,11.7c1.92,0,3.84,0,5.76,0c1.91,0,3.83,0,5.75,0
	c0,1.92,0,3.84,0,5.761c1.92,0,3.85,0,5.771,0c0-1.921,0-3.841,0-5.761c1.92,0,3.84,0,5.76,0c0,1.92,0,3.84,0,5.761
	c1.92,0,3.84,0,5.76,0c0-1.921,0-3.841,0-5.761c0.17,0,0.36,0,0.54,0c1.74,0,3.48,0,5.21,0c0,1.92,0,3.84,0,5.761
	c1.92,0,3.84,0,5.771,0c0,1.92,0,3.84,0,5.76c-3.851,0-7.69,0-11.521,0c0,1.92,0,3.84,0,5.76C69.12,109.8,68.93,109.8,68.76,109.8z"
	/>
<path fill="#C0BFBF" d="M57.78,69.3c0,1.92,0,3.84,0,5.76c1.92,0,3.84,0,5.76,0c0-1.92,0-3.84,0-5.76
	C61.62,69.3,59.7,69.3,57.78,69.3z"/>
<path fill="#C0BFBF" d="M57.78,46.26c0,1.92,0,3.84,0,5.76c1.92,0,3.84,0,5.76,0c0-1.92,0-3.84,0-5.76
	C61.62,46.26,59.7,46.26,57.78,46.26z"/>
<path fill="#232034" d="M57.78,40.5c0,1.92,0,3.84,0,5.76c1.92,0,3.84,0,5.76,0c7.74,0,15.47,0,23.22,0c1.91,0,3.83,0,5.75,0
	c0-1.92,0-3.84,0-5.76c-7.729,0-15.47,0-23.21,0c-1.92,0-3.84,0-5.76,0S59.7,40.5,57.78,40.5z"/>
<path fill="#90BEE6" d="M63.54,75.06c0,1.92,0,3.84,0,5.76c1.92,0,3.84,0,5.76,0c0-1.92,0-3.84,0-5.76
	C67.38,75.06,65.46,75.06,63.54,75.06z"/>
<path fill="#010101" d="M63.54,69.3c0,1.92,0,3.84,0,5.76c1.92,0,3.84,0,5.76,0c0,1.92,0,3.84,0,5.76c1.91,0,3.83,0,5.75,0
	c0-1.92,0-3.84,0-5.76c1.92,0,3.84,0,5.771,0c0-1.92,0-3.84,0-5.76C75.05,69.3,69.3,69.3,63.54,69.3z"/>
<path fill="#90BEE6" d="M63.54,34.74c0,1.92,0,3.84,0,5.76c1.92,0,3.84,0,5.76,0c0-1.92,0-3.84,0-5.76
	C67.38,34.74,65.46,34.74,63.54,34.74z"/>
<path fill="#010101" d="M69.3,92.52c0,1.92,0,3.84,0,5.761c-1.92,0-3.84,0-5.76,0c0-1.921,0-3.841,0-5.761c-1.92,0-3.84,0-5.76,0
	c0,1.92,0,3.84,0,5.761c-1.921,0-3.851,0-5.771,0c0,1.92,0,3.84,0,5.76s0,3.84,0,5.76c5.58,0,11.16,0,16.75,0c0.17,0,0.36,0,0.54,0
	c0-1.92,0-3.84,0-5.76c3.83,0,7.67,0,11.521,0c0-1.92,0-3.84,0-5.76c-1.931,0-3.851,0-5.771,0c0-1.921,0-3.841,0-5.761
	c-1.729,0-3.47,0-5.21,0C69.66,92.52,69.47,92.52,69.3,92.52z"/>
<path fill="#E2F4FC" d="M80.63,127.08c-0.42,0-0.83,0-1.25,0c-0.49,0-0.96,0-1.45,0c-0.89,0-1.8,0-2.689,0c-1.811,0-3.61,0-5.4,0
	c-0.18,0-0.37,0-0.54,0c0,1.92,0,3.84,0,5.76c-1.92,0-3.84,0-5.76,0c0,1.92,0,3.84,0,5.76c-7.681,0-15.37,0-23.04,0
	c0-1.92,0-3.84,0-5.76c-1.92,0-3.84,0-5.76,0c0-1.92,0-3.84,0-5.76c-1.92,0-3.851,0-5.771,0c0-1.92,0-3.84,0-5.761
	c-1.92,0-3.84,0-5.76,0c0-1.92,0-3.84,0-5.76c-1.91,0-3.83,0-5.75,0c0,3.84,0,7.681,0,11.521c1.92,0,3.84,0,5.75,0
	c0,0.18,0,0.359,0,0.54c0,1.56,0,3.12,0,4.68c0,0.18,0,0.36,0,0.54c1.92,0,3.84,0,5.76,0c0,1.92,0,3.84,0,5.76
	c1.92,0,3.851,0,5.771,0c0,0.181,0,0.36,0,0.54c0,1.561,0,3.12,0,4.68c0,0.181,0,0.36,0,0.54c1.92,0,3.84,0,5.76,0
	c0,1.921,0,3.841,0,5.761c7.67,0,15.359,0,23.04,0c0-1.92,0-3.84,0-5.761c0.12,0,0.24,0,0.35,0c5.65,0,11.28,0,16.931,0
	c0-1.92,0-3.84,0-5.76c0.18,0,0.35,0,0.539,0c1.61,0,3.23,0,4.851,0c0.18,0,0.37,0,0.55,0c0-1.92,0-3.84,0-5.76
	c-1.979,0-3.96,0-5.939,0c0-1.92,0-3.84,0-5.76C80.76,127.08,80.7,127.08,80.63,127.08z"/>
<path fill="#C0BFBF" d="M75.05,109.8c0,1.92,0,3.84,0,5.76c1.92,0,3.84,0,5.771,0c0-1.92,0-3.84,0-5.76
	C78.89,109.8,76.97,109.8,75.05,109.8z"/>
<path fill="#C0BFBF" d="M75.05,75.06c0,1.92,0,3.84,0,5.76c1.92,0,3.84,0,5.771,0c0,3.9,0,7.801,0,11.7c1.979,0,3.96,0,5.939,0
	c0-1.92,0-3.84,0-5.76c1.91,0,3.83,0,5.75,0c0-1.979,0-3.96,0-5.94c1.92,0,3.85,0,5.771,0c0-1.92,0-3.84,0-5.76
	c1.92,0,3.84,0,5.76,0c0-5.76,0-11.52,0-17.279c-1.92,0-3.84,0-5.76,0c0-1.921,0-3.841,0-5.761c-1.921,0-3.851,0-5.771,0
	c0,3.84,0,7.681,0,11.521c1.92,0,3.85,0,5.771,0c0,1.92,0,3.84,0,5.76c-3.851,0-7.69,0-11.521,0c0,1.92,0,3.84,0,5.76
	c-1.979,0-3.96,0-5.939,0C78.89,75.06,76.97,75.06,75.05,75.06z"/>
<path fill="#232034" d="M80.82,109.8c0,1.92,0,3.84,0,5.76c1.979,0,3.96,0,5.939,0c0-1.92,0-3.84,0-5.76
	C84.78,109.8,82.8,109.8,80.82,109.8z"/>
<path fill="#E2F4FC" d="M86.76,127.08c0,1.92,0,3.84,0,5.76c1.91,0,3.83,0,5.75,0c0-1.92,0-3.84,0-5.76
	C90.59,127.08,88.67,127.08,86.76,127.08z"/>
<path fill="#232034" d="M86.76,92.52c0,5.761,0,11.521,0,17.28c1.91,0,3.83,0,5.75,0c0-3.84,0-7.68,0-11.52c0-1.921,0-3.841,0-5.761
	c1.92,0,3.85,0,5.771,0c0-1.92,0-3.84,0-5.76c1.92,0,3.84,0,5.76,0c0-1.979,0-3.96,0-5.94c1.92,0,3.84,0,5.76,0
	c0-1.92,0-3.84,0-5.76c0-5.58,0-11.16,0-16.74c0-0.18,0-0.359,0-0.539c-1.92,0-3.84,0-5.76,0c0,5.76,0,11.52,0,17.279
	c-1.92,0-3.84,0-5.76,0c0,1.92,0,3.84,0,5.76c-1.921,0-3.851,0-5.771,0c0,1.98,0,3.961,0,5.94c-1.92,0-3.84,0-5.75,0
	C86.76,88.68,86.76,90.6,86.76,92.52z"/>
<path fill="#C0BFBF" d="M86.76,46.26c0,1.92,0,3.84,0,5.76c1.91,0,3.83,0,5.75,0c0-1.92,0-3.84,0-5.76
	C90.59,46.26,88.67,46.26,86.76,46.26z"/>
<path fill="#A6CDED" d="M92.51,98.28c0,3.84,0,7.68,0,11.52c1.92,0,3.85,0,5.771,0c0-1.92,0-3.84,0-5.76c3.84,0,7.68,0,11.52,0
	c0-3.84,0-7.681,0-11.521c1.91,0,3.83,0,5.75,0c0-3.899,0-7.8,0-11.7c-1.92,0-3.84,0-5.75,0c-1.92,0-3.84,0-5.76,0
	c0,1.98,0,3.961,0,5.94c0,1.92,0,3.84,0,5.76c-1.92,0-3.84,0-5.76,0c0,1.92,0,3.84,0,5.761C96.359,98.28,94.43,98.28,92.51,98.28z"
	/>
<path fill="#90BEE6" d="M92.51,92.52c0,1.92,0,3.84,0,5.761c1.92,0,3.85,0,5.771,0c0-1.921,0-3.841,0-5.761
	C96.359,92.52,94.43,92.52,92.51,92.52z"/>
<path fill="#232034" d="M92.51,46.26c0,1.92,0,3.84,0,5.76c1.92,0,3.85,0,5.771,0c0-1.92,0-3.84,0-5.76
	C96.359,46.26,94.43,46.26,92.51,46.26z"/>
<path fill="#E2F4FC" d="M92.51,121.319c0,1.921,0,3.841,0,5.761c1.92,0,3.85,0,5.771,0c0,0.18,0,0.359,0,0.54c0,1.56,0,3.12,0,4.68
	c0,0.18,0,0.36,0,0.54c1.92,0,3.84,0,5.76,0c0,0.18,0,0.36,0,0.54c0,1.56,0,3.12,0,4.68c0,0.181,0,0.36,0,0.54c1.92,0,3.84,0,5.76,0
	c0,0.181,0,0.36,0,0.54c0,1.561,0,3.12,0,4.68c0,0.181,0,0.36,0,0.54c5.75,0,11.521,0,17.28,0c0-1.92,0-3.84,0-5.76
	c0.18,0,0.35,0,0.54,0c3.66,0,7.31,0,10.97,0c0-1.92,0-3.84,0-5.76c0.19,0,0.37,0,0.54,0c1.57,0,3.13,0,4.69,0
	c0.18,0,0.35,0,0.539,0c0-1.92,0-3.84,0-5.76c0.181,0,0.351,0,0.53,0c1.57,0,3.12,0,4.69,0c0.18,0,0.35,0,0.54,0
	c0-3.84,0-7.681,0-11.521c0.18,0,0.35,0,0.54,0c1.55,0,3.12,0,4.68,0c0.17,0,0.36,0,0.54,0c0-3.84,0-7.68,0-11.52
	c1.979,0,3.96,0,5.94,0c0-3.84,0-7.681,0-11.521c1.92,0,3.84,0,5.76,0c0-0.72,0-1.439,0-2.16c0-0.18,0-0.359,0-0.54
	c0-0.18,0-0.359,0-0.539c0-0.181,0-0.36,0-0.54c0-0.181,0-0.36,0-0.54c0-0.181,0-0.36,0-0.54c0-0.181,0-0.36,0-0.54
	c0-0.181,0-0.36,0-0.54c0-0.181,0-0.36,0-0.54c0-0.181,0-0.36,0-0.54c0-0.181,0-0.36,0-0.54s0-0.36,0-0.54s0-0.36,0-0.54
	s0-0.36,0-0.54s0-0.36,0-0.54s0-0.36,0-0.54s0-0.36,0-0.54s0-0.36,0-0.54s0-0.36,0-0.54s0-0.359,0-0.54c0-0.18,0-0.359,0-0.54
	c0-0.18,0-0.359,0-0.54c0-0.18,0-0.359,0-0.54c0-0.359,0-0.72,0-1.08c0-0.359,0-0.72,0-1.08c0-0.18,0-0.359,0-0.539
	c0-0.24,0-0.48,0-0.721c-1.92,0-3.84,0-5.76,0c0-1.92,0-3.84,0-5.76c-3.9,0-7.811,0-11.7,0c0-1.92,0-3.84,0-5.76
	c-5.761,0-11.53,0-17.28,0c0-1.92,0-3.84,0-5.76c-1.92,0-3.84,0-5.76,0c0,1.92,0,3.84,0,5.76c-1.92,0-3.84,0-5.76,0
	c0,3.84,0,7.68,0,11.52c9.6,0,19.189,0,28.8,0c0,1.92,0,3.84,0,5.76c1.92,0,3.84,0,5.76,0c0,5.82,0,11.641,0,17.461
	c-1.92,0-3.84,0-5.76,0c0,3.84,0,7.68,0,11.52c-1.92,0-3.84,0-5.761,0c0,1.92,0,3.84,0,5.76c-1.93,0-3.85,0-5.77,0
	c0,1.92,0,3.84,0,5.76c-1.92,0-3.83,0-5.75,0c0,1.921,0,3.841,0,5.761c-1.92,0-3.84,0-5.76,0c0,1.92,0,3.84,0,5.76
	c-3.84,0-7.69,0-11.53,0c0-1.92,0-3.84,0-5.76c-1.92,0-3.84,0-5.75,0c0-1.92,0-3.84,0-5.761c-0.18,0-0.37,0-0.54,0
	c-5.4,0-10.8,0-16.21,0C92.88,121.319,92.7,121.319,92.51,121.319z"/>
<path fill="#90BEE6" d="M98.28,86.76c0,1.92,0,3.84,0,5.76c1.92,0,3.84,0,5.76,0c0-1.92,0-3.84,0-5.76
	C102.12,86.76,100.2,86.76,98.28,86.76z"/>
<path fill="#232034" d="M98.28,52.02c0,1.92,0,3.84,0,5.761c1.92,0,3.84,0,5.76,0c0-1.921,0-3.841,0-5.761
	C102.12,52.02,100.2,52.02,98.28,52.02z"/>
<path fill="#A6CDED" d="M109.8,104.04c0,1.92,0,3.84,0,5.76c3.83,0,7.67,0,11.521,0c0-3.66,0-7.32,0-10.98c0-0.18,0-0.359,0-0.539
	c-1.931,0-3.851,0-5.771,0c0,1.92,0,3.84,0,5.76C113.63,104.04,111.71,104.04,109.8,104.04z"/>
<path fill="#E2F4FC" d="M132.84,40.5c0,5.76,0,11.52,0,17.28c1.92,0,3.83,0,5.75,0c0-5.761,0-11.521,0-17.28
	C136.67,40.5,134.76,40.5,132.84,40.5z"/>
</svg>
