<?xml version="1.0" encoding="utf-8"?>
<!-- Generator: Adobe Illustrator 15.0.0, SVG Export Plug-In  -->
<!DOCTYPE svg PUBLIC "-//W3C//DTD SVG 1.1//EN" "http://www.w3.org/Graphics/SVG/1.1/DTD/svg11.dtd" [
	<!ENTITY ns_flows "http://ns.adobe.com/Flows/1.0/">
]>
<svg version="1.1"
	 xmlns="http://www.w3.org/2000/svg" xmlns:xlink="http://www.w3.org/1999/xlink" xmlns:a="http://ns.adobe.com/AdobeSVGViewerExtensions/3.0/"
	 x="0px" y="0px" width="200px" height="200px" viewBox="-21.21 -19.03 200 200" enable-background="new -21.21 -19.03 200 200"
	 xml:space="preserve">
<defs>
</defs>
<path fill="#E2F4FC" d="M11.52,25.92c0,2.88,0,5.76,0,8.64c1.92,0,3.84,0,5.76,0c0,0.18,0,0.36,0,0.54c0,0.36,0,0.72,0,1.08
	c0,0.42,0,0.84,0,1.26c0,0.36,0,0.72,0,1.08c0,0.18,0,0.36,0,0.54c0,0.24,0,0.48,0,0.72c0,0.18,0,0.36,0,0.54c1.91,0,3.84,0,5.761,0
	c0-3.84,0-7.68,0-11.52c1.92,0,3.84,0,5.76,0c0-3.84,0-7.68,0-11.52c1.91,0,3.83,0,5.761,0c0-1.92,0-3.84,0-5.76
	c0.18,0,0.359,0,0.539,0c2.881,0,5.76,0,8.641,0c2.82,0,5.64,0,8.449,0c5.711,0,11.41,0,17.11,0c0,1.92,0,3.84,0,5.76
	c3.83,0,7.68,0,11.52,0c0,1.92,0,3.84,0,5.76c3.83,0,7.681,0,11.521,0c0-3.84,0-7.68,0-11.52c-2.88,0-5.76,0-8.65,0
	c-2.87,0-5.75,0-8.629,0c0-1.92,0-3.84,0-5.76c-3.851,0-7.681,0-11.521,0c0-1.92,0-3.84,0-5.76c-3.851,0-7.681,0-11.521,0
	c-1.92,0-3.85,0-5.76,0c-1.98,0-3.96,0-5.939,0c0,1.92,0,3.84,0,5.76c-0.181,0-0.36,0-0.541,0c-3.66,0-7.319,0-10.979,0
	c0,1.92,0,3.84,0,5.76c-0.181,0-0.36,0-0.54,0c-3.66,0-7.32,0-10.98,0c0,1.92,0,3.84,0,5.76c-1.92,0-3.84,0-5.76,0
	C11.52,20.16,11.52,23.04,11.52,25.92z"/>
<path fill="#E2F4FC" d="M17.279,46.08c0,1.92,0,3.84,0,5.76c1.91,0,3.84,0,5.761,0c0-1.92,0-3.84,0-5.76
	C21.119,46.08,19.189,46.08,17.279,46.08z"/>
<path fill="#E2F4FC" d="M23.04,40.32c0,1.92,0,3.84,0,5.76c1.92,0,3.84,0,5.76,0c0-1.92,0-3.84,0-5.76
	C26.88,40.32,24.96,40.32,23.04,40.32z"/>
<path fill="#232034" d="M28.8,92.34c1.91,0,3.83,0,5.761,0c0-3.841,0-7.681,0-11.52c0-1.92,0-3.84,0-5.76c0-0.54,0-1.08,0-1.62
	c0-0.48,0-0.96,0-1.44c0-0.96,0-1.92,0-2.88c0-1.92,0-3.84,0-5.76c-1.931,0-3.851,0-5.761,0c0,0.12,0,0.24,0,0.36
	c0,0.54,0,1.08,0,1.62c0,0.12,0,0.24,0,0.36c0,0.18,0,0.36,0,0.54c0,0.12,0,0.24,0,0.36c0,0.18,0,0.36,0,0.54c0,0.12,0,0.24,0,0.36
	c0,0.18,0,0.36,0,0.54c0,0.12,0,0.24,0,0.36c0,0.18,0,0.36,0,0.54c0,0.12,0,0.24,0,0.36c0,0.18,0,0.36,0,0.54c0,0.12,0,0.24,0,0.36
	c0,0.18,0,0.36,0,0.54c0,0.12,0,0.24,0,0.36c0,0.18,0,0.36,0,0.54c0,0.12,0,0.24,0,0.36c0,0.18,0,0.36,0,0.54c0,0.12,0,0.24,0,0.36
	c0,0.18,0,0.36,0,0.54c0,0.12,0,0.24,0,0.36c0,0.18,0,0.36,0,0.54c0,0.12,0,0.24,0,0.36c0,0.18,0,0.36,0,0.54c0,0.12,0,0.24,0,0.36
	c0,0.18,0,0.36,0,0.54c0,0.12,0,0.24,0,0.36c0,0.18,0,0.36,0,0.54c0,0.12,0,0.24,0,0.36c0,0.18,0,0.36,0,0.54c0,0.12,0,0.24,0,0.36
	c0,0.18,0,0.36,0,0.54c0,0.12,0,0.24,0,0.36c0,0.18,0,0.36,0,0.54c0,0.12,0,0.24,0,0.36c0,0.18,0,0.36,0,0.54c0,0.12,0,0.24,0,0.36
	c0,0.18,0,0.36,0,0.54c0,0.12,0,0.24,0,0.36c0,0.179,0,0.36,0,0.541c0,0.119,0,0.239,0,0.359c0,0.18,0,0.359,0,0.54
	c0,0.12,0,0.239,0,0.36c0,0.18,0,0.359,0,0.539c0,0.121,0,0.24,0,0.36c0,0.181,0,0.36,0,0.54c0,0.12,0,0.24,0,0.359
	c0,0.181,0,0.361,0,0.541c0,0.119,0,0.24,0,0.359c0,0.18,0,0.36,0,0.541c0,0.119,0,0.239,0,0.359c0,0.18,0,0.359,0,0.54
	c0,0.12,0,0.239,0,0.36c0,0.18,0,0.359,0,0.539c0,0.121,0,0.24,0,0.36c0,0.181,0,0.36,0,0.54c0,0.12,0,0.24,0,0.359
	c0,0.181,0,0.361,0,0.541c0,0.119,0,0.24,0,0.359c0,0.18,0,0.36,0,0.541c0,0.119,0,0.239,0,0.359C28.8,91.98,28.8,92.16,28.8,92.34z
	"/>
<path fill="#232034" d="M34.561,103.861c0,1.92,0,3.84,0,5.76c1.92,0,3.84,0,5.76,0c0-1.92,0-3.84,0-5.76
	C38.4,103.861,36.48,103.861,34.561,103.861z"/>
<path fill="#232034" d="M34.561,92.34c0,1.92,0,3.84,0,5.76c1.92,0,3.84,0,5.76,0c0-1.92,0-3.84,0-5.76
	C38.4,92.34,36.48,92.34,34.561,92.34z"/>
<path fill="#90BEE6" d="M34.561,75.06c0,1.92,0,3.84,0,5.76c1.92,0,3.84,0,5.76,0c0-1.92,0-3.84,0-5.76
	C38.4,75.06,36.48,75.06,34.561,75.06z"/>
<path fill="#010101" d="M34.561,75.06c1.92,0,3.84,0,5.76,0c0,1.92,0,3.84,0,5.76c1.92,0,3.83,0,5.76,0c0-1.92,0-3.84,0-5.76
	c0-0.96,0-1.92,0-2.88c0-0.48,0-0.96,0-1.44c0-0.54,0-1.08,0-1.62c-1.93,0-3.84,0-5.76,0s-3.84,0-5.76,0c0,0.96,0,1.92,0,2.88
	c0,0.48,0,0.96,0,1.44C34.561,73.98,34.561,74.52,34.561,75.06z"/>
<path fill="#C0BFBF" d="M34.561,63.36c0,1.92,0,3.84,0,5.76c1.92,0,3.84,0,5.76,0c0-1.92,0-3.84,0-5.76
	C38.4,63.36,36.48,63.36,34.561,63.36z"/>
<path fill="#232034" d="M34.561,51.84c0,3.84,0,7.68,0,11.52c1.92,0,3.84,0,5.76,0c0-1.92,0-3.84,0-5.76s0-3.84,0-5.76
	C38.4,51.84,36.48,51.84,34.561,51.84z"/>
<path fill="#CDE9F9" d="M35.1,11.52c2.881,0,5.76,0,8.641,0c2.82,0,5.64,0,8.449,0c5.711,0,11.41,0,17.11,0c0,1.92,0,3.84,0,5.76
	c3.83,0,7.68,0,11.52,0c0,1.92,0,3.84,0,5.76c3.83,0,7.681,0,11.521,0c0-3.84,0-7.68,0-11.52c7.68,0,15.35,0,23.04,0
	c0,1.92,0,3.84,0,5.76c1.92,0,3.83,0,5.76,0c0,1.92,0,3.84,0,5.76c1.92,0,3.84,0,5.76,0c0,0.6,0,1.2,0,1.8c0,0.12,0,0.24,0,0.36
	c0,0.18,0,0.36,0,0.54c0,0.12,0,0.24,0,0.36c0,0.18,0,0.36,0,0.54c0,0.6,0,1.2,0,1.8c0,0.12,0,0.24,0,0.36c0,0.18,0,0.36,0,0.54
	c0,0.12,0,0.24,0,0.36c0,0.18,0,0.36,0,0.54c0,0.6,0,1.2,0,1.8c0,0.12,0,0.24,0,0.36c0,0.18,0,0.36,0,0.54c0,0.12,0,0.24,0,0.36
	c0,0.18,0,0.36,0,0.54c0,0.6,0,1.2,0,1.8c0,0.12,0,0.24,0,0.36c0,0.18,0,0.36,0,0.54c0,0.12,0,0.24,0,0.36c0,0.18,0,0.36,0,0.54
	c0,0.6,0,1.2,0,1.8c0,0.12,0,0.24,0,0.36c0,0.18,0,0.36,0,0.54c0,0.12,0,0.24,0,0.36c0,0.18,0,0.36,0,0.54c0,0.12,0,0.24,0,0.36
	c0,0.18,0,0.36,0,0.54c0,0.12,0,0.24,0,0.36c0,0.18,0,0.36,0,0.54c0,0.12,0,0.24,0,0.36c0,0.18,0,0.36,0,0.54c0,0.12,0,0.24,0,0.36
	c0,0.18,0,0.36,0,0.54c0,0.12,0,0.24,0,0.36c0,0.18,0,0.36,0,0.54c0,0.12,0,0.24,0,0.36c0,0.18,0,0.36,0,0.54c0,0.12,0,0.24,0,0.36
	c0,0.18,0,0.36,0,0.54c0,0.12,0,0.24,0,0.36c0,0.18,0,0.36,0,0.54c0,0.12,0,0.24,0,0.36c0,0.18,0,0.36,0,0.54c0,0.12,0,0.24,0,0.36
	c0,0.18,0,0.36,0,0.54c0,0.12,0,0.24,0,0.36c0,0.18,0,0.36,0,0.54c0,0.12,0,0.24,0,0.36c0,0.18,0,0.36,0,0.54c0.181,0,0.36,0,0.54,0
	c0.12,0,0.23,0,0.36,0c0.24,0,0.479,0,0.72,0c0.48,0,0.96,0,1.44,0c0.96,0,1.92,0,2.88,0c0,0.18,0,0.36,0,0.54c0,0.12,0,0.24,0,0.36
	c0,0.18,0,0.36,0,0.54s0,0.36,0,0.54c0,0.18,0,0.36,0,0.54c0,0.12,0,0.24,0,0.36c0,0.18,0,0.36,0,0.54s0,0.36,0,0.54
	c0,0.18,0,0.36,0,0.54c0,1.38,0,2.76,0,4.14c0,0.12,0,0.24,0,0.36c0,0.18,0,0.36,0,0.54c0,0.18,0,0.36,0,0.54c0,0.18,0,0.36,0,0.54
	c0,0.12,0,0.24,0,0.36c0,0.18,0,0.36,0,0.54c0,0.18,0,0.36,0,0.54c0,0.18,0,0.36,0,0.54c0,0.12,0,0.24,0,0.36c0,0.18,0,0.36,0,0.54
	c0,0.18,0,0.36,0,0.54c0,0.18,0,0.36,0,0.54c0,0.72,0,1.44,0,2.16c0,0.18,0,0.36,0,0.54c1.92,0,3.83,0,5.76,0c0,1.92,0,3.84,0,5.76
	c0,0.96,0,1.92,0,2.88c0,0.48,0,0.96,0,1.44c0,0.24,0,0.48,0,0.72c0,0.12,0,0.24,0,0.36c0,0.18,0,0.36,0,0.54c-1.93,0-3.84,0-5.76,0
	c0,1.919,0,3.839,0,5.759c1.92,0,3.83,0,5.76,0c0,3.841,0,7.681,0,11.521c1.92,0,3.84,0,5.76,0c0,3.841,0,7.681,0,11.521
	c-1.92,0-3.84,0-5.76,0c0,1.92,0,3.84,0,5.76c-1.93,0-3.84,0-5.76,0c0,1.92,0,3.84,0,5.76c-0.96,0-1.92,0-2.88,0s-1.92,0-2.88,0
	c-0.961,0-1.931,0-2.891,0c-0.479,0-0.95,0-1.43,0c-0.24,0-0.48,0-0.72,0c-0.12,0-0.24,0-0.37,0c-0.17,0-0.351,0-0.53,0
	c0,1.92,0,3.84,0,5.76c-1.93,0-3.84,0-5.76,0c0,1.92,0,3.84,0,5.76c-7.69,0-15.36,0-23.04,0c0,1.92,0,3.84,0,5.761
	c-3.84,0-7.69,0-11.521,0c0,0.96,0,1.92,0,2.88c0,0.48,0,0.96,0,1.439c0,0.541,0,1.08,0,1.621c-1.919,0-3.839,0-5.759,0
	c0,1.92,0,3.84,0,5.76c-3.851,0-7.681,0-11.521,0c0-1.92,0-3.84,0-5.76c-3.91,0-7.8,0-11.7,0c0-1.98,0-3.961,0-5.94
	c-3.84,0-7.689,0-11.52,0c0-1.921,0-3.841,0-5.761c-1.92,0-3.84,0-5.76,0c0-1.92,0-3.84,0-5.76c-1.931,0-3.851,0-5.761,0
	c0-1.92,0-3.84,0-5.76c-1.92,0-3.84,0-5.76,0c0-0.18,0-0.359,0-0.54c0-0.12,0-0.239,0-0.36c0-0.18,0-0.359,0-0.539
	c0-0.36,0-0.721,0-1.08c0-0.721,0-1.44,0-2.16c0-0.12,0-0.24,0-0.36c0-0.18,0-0.36,0-0.54c0-0.359,0-0.72,0-1.08
	c0-0.72,0-1.439,0-2.16c0-1.379,0-2.76,0-4.14c0-1.44,0-2.88,0-4.319c0-0.121,0-0.24,0-0.361c0-0.18,0-0.359,0-0.539
	c0-0.36,0-0.721,0-1.08c0-0.721,0-1.439,0-2.16c0-0.12,0-0.24,0-0.359c0-0.181,0-0.361,0-0.541c0-0.359,0-0.72,0-1.08
	c0-0.72,0-1.439,0-2.16c0-1.379,0-2.76,0-4.139c0-1.441,0-2.881,0-4.32c0-0.18,0-0.36,0-0.541c-1.921,0-3.851,0-5.761,0
	c0-1.92,0-3.84,0-5.759c-1.92,0-3.84,0-5.76,0c0-2.88,0-5.76,0-8.64c0-2.94,0-5.88,0-8.82c1.92,0,3.84,0,5.76,0
	c0-3.84,0-7.68,0-11.52c1.91,0,3.84,0,5.761,0c0-1.92,0-3.84,0-5.76c1.92,0,3.84,0,5.76,0c0-1.92,0-3.84,0-5.76
	c-1.92,0-3.84,0-5.76,0c0-3.84,0-7.68,0-11.52c1.92,0,3.84,0,5.76,0c0-3.84,0-7.68,0-11.52c1.91,0,3.83,0,5.761,0
	c0-1.92,0-3.84,0-5.76C34.74,11.52,34.92,11.52,35.1,11.52z M51.48,121.14c0.119,0,0.229,0,0.359,0c0.18,0,0.35,0,0.54,0
	c0.12,0,0.239,0,0.36,0c0.18,0,0.359,0,0.539,0c1.201,0,2.391,0,3.601,0c0.29,0,0.601,0,0.899,0c0.301,0,0.601,0,0.891,0
	c0.311,0,0.609,0,0.91,0c0.3,0,0.59,0,0.9,0c1.189,0,2.399,0,3.6,0c0.3,0,0.59,0,0.9,0c0.299,0,0.6,0,0.899,0
	c0.29,0,0.601,0,0.899,0c0.301,0,0.601,0,0.891,0c1.21,0,2.41,0,3.609,0c0.601,0,1.201,0,1.801,0c0.66,0,1.32,0,1.98,0
	c1.439,0,2.879,0,4.319,0c1.439,0,2.88,0,4.31,0c1.45,0,2.891,0,4.33,0c1.44,0,2.88,0,4.32,0c0-1.92,0-3.84,0-5.76
	c0.18,0,0.35,0,0.54,0c0.42,0,0.83,0,1.26,0c0.479,0,0.96,0,1.44,0c0.42,0,0.84,0,1.26,0c0.479,0,0.96,0,1.439,0
	c0.061,0,0.12,0,0.181,0c0.12,0,0.229,0,0.359,0c0.24,0,0.48,0,0.721,0c0.479,0,0.96,0,1.439,0c0.96,0,1.92,0,2.88,0
	c0-1.92,0-3.84,0-5.76c1.92,0,3.83,0,5.76,0c0-1.92,0-3.84,0-5.76c1.921,0,3.841,0,5.761,0c0-7.681,0-15.361,0-23.041
	c1.92,0,3.83,0,5.76,0c0-1.92,0-3.84,0-5.76c0-0.96,0-1.92,0-2.88c0-0.48,0-0.96,0-1.44c0-0.54,0-1.08,0-1.62c-1.93,0-3.84,0-5.76,0
	c0-1.92,0-3.84,0-5.76c-1.92,0-3.84,0-5.761,0c0-0.18,0-0.36,0-0.54c0-0.36,0-0.72,0-1.08c0-0.42,0-0.84,0-1.26
	c0-0.36,0-0.72,0-1.08c0-0.18,0-0.36,0-0.54c0-0.24,0-0.48,0-0.72c0-0.18,0-0.36,0-0.54c1.921,0,3.841,0,5.761,0
	c0-1.44,0-2.88,0-4.32s0-2.88,0-4.32c0-1.44,0-2.88,0-4.32s0-2.88,0-4.32c-1.92,0-3.84,0-5.761,0c0,3.84,0,7.68,0,11.52
	c-1.93,0-3.84,0-5.76,0c0,1.92,0,3.84,0,5.76c-1.92,0-3.84,0-5.76,0c0-1.92,0-3.84,0-5.76c-1.93,0-3.84,0-5.76,0
	c0-1.92,0-3.84,0-5.76c-1.92,0-3.84,0-5.76,0c0-1.92,0-3.84,0-5.76c-2.891,0-5.761,0-8.64,0s-5.77,0-8.64,0c-2.88,0-5.76,0-8.649,0
	c-2.94,0-5.871,0-8.811,0c0,1.92,0,3.84,0,5.76c-3.84,0-7.689,0-11.52,0c0,1.92,0,3.84,0,5.76c-1.92,0-3.84,0-5.76,0
	c0,3.84,0,7.68,0,11.52c-1.931,0-3.851,0-5.761,0c0,0.12,0,0.24,0,0.36c0,0.54,0,1.08,0,1.62c0,0.12,0,0.24,0,0.36
	c0,0.18,0,0.36,0,0.54c0,0.12,0,0.24,0,0.36c0,0.18,0,0.36,0,0.54c0,0.12,0,0.24,0,0.36c0,0.18,0,0.36,0,0.54c0,0.12,0,0.24,0,0.36
	c0,0.18,0,0.36,0,0.54c0,0.12,0,0.24,0,0.36c0,0.18,0,0.36,0,0.54c0,0.12,0,0.24,0,0.36c0,0.18,0,0.36,0,0.54c0,0.12,0,0.24,0,0.36
	c0,0.18,0,0.36,0,0.54c0,0.12,0,0.24,0,0.36c0,0.18,0,0.36,0,0.54c0,0.12,0,0.24,0,0.36c0,0.18,0,0.36,0,0.54c0,0.12,0,0.24,0,0.36
	c0,0.18,0,0.36,0,0.54c0,0.12,0,0.24,0,0.36c0,0.18,0,0.36,0,0.54c0,0.12,0,0.24,0,0.36c0,0.18,0,0.36,0,0.54c0,0.12,0,0.24,0,0.36
	c0,0.18,0,0.36,0,0.54c0,0.12,0,0.24,0,0.36c0,0.18,0,0.36,0,0.54c0,0.12,0,0.24,0,0.36c0,0.18,0,0.36,0,0.54c0,0.12,0,0.24,0,0.36
	c0,0.18,0,0.36,0,0.54c0,0.12,0,0.24,0,0.36c0,0.18,0,0.36,0,0.54c0,0.12,0,0.24,0,0.36c0,0.18,0,0.36,0,0.54c0,0.12,0,0.24,0,0.36
	c0,0.179,0,0.36,0,0.541c0,0.119,0,0.239,0,0.359c0,0.18,0,0.359,0,0.54c0,0.12,0,0.239,0,0.36c0,0.18,0,0.359,0,0.539
	c0,0.121,0,0.24,0,0.36c0,0.181,0,0.36,0,0.54c0,0.12,0,0.24,0,0.359c0,0.181,0,0.361,0,0.541c0,0.119,0,0.24,0,0.359
	c0,0.18,0,0.36,0,0.541c0,0.119,0,0.239,0,0.359c0,0.18,0,0.359,0,0.54c0,0.12,0,0.239,0,0.36c0,0.18,0,0.359,0,0.539
	c0,0.121,0,0.24,0,0.36c0,0.181,0,0.36,0,0.54c0,0.12,0,0.24,0,0.359c0,0.181,0,0.361,0,0.541c0,0.119,0,0.24,0,0.359
	c0,0.18,0,0.36,0,0.541c0,0.119,0,0.239,0,0.359c0,0.18,0,0.359,0,0.54c1.91,0,3.83,0,5.761,0c0,1.92,0,3.84,0,5.76
	c1.92,0,3.84,0,5.76,0c0,1.92,0,3.841,0,5.761c-1.92,0-3.84,0-5.76,0c0,1.92,0,3.84,0,5.76c1.92,0,3.84,0,5.76,0
	c0,1.92,0,3.84,0,5.76c1.92,0,3.83,0,5.76,0c0,1.92,0,3.84,0,5.76c1.199,0,2.4,0,3.59,0C50.279,121.14,50.88,121.14,51.48,121.14z"
	/>
<path fill="#232034" d="M40.32,109.621c0,1.92,0,3.84,0,5.76c1.92,0,3.83,0,5.76,0c0-1.92,0-3.84,0-5.76
	C44.15,109.621,42.24,109.621,40.32,109.621z"/>
<path fill="#F0EFEF" d="M40.32,103.861c0,1.92,0,3.84,0,5.76c1.92,0,3.83,0,5.76,0c0-1.92,0-3.84,0-5.76
	C44.15,103.861,42.24,103.861,40.32,103.861z"/>
<path fill="#232034" d="M40.32,98.1c0,1.92,0,3.841,0,5.761c1.92,0,3.83,0,5.76,0c0-1.92,0-3.841,0-5.761
	C44.15,98.1,42.24,98.1,40.32,98.1z"/>
<path fill="#010101" d="M40.32,92.34c0,1.92,0,3.84,0,5.76c1.92,0,3.83,0,5.76,0c0-1.92,0-3.84,0-5.76
	C44.15,92.34,42.24,92.34,40.32,92.34z"/>
<path fill="#C0BFBF" d="M40.32,51.84c0,1.92,0,3.84,0,5.76c1.92,0,3.83,0,5.76,0c0-1.92,0-3.84,0-5.76
	C44.15,51.84,42.24,51.84,40.32,51.84z"/>
<path fill="#232034" d="M40.32,46.08c0,1.92,0,3.84,0,5.76c1.92,0,3.83,0,5.76,0c1.92,0,3.84,0,5.76,0c0-1.92,0-3.84,0-5.76
	C48,46.08,44.15,46.08,40.32,46.08z"/>
<path fill="#010101" d="M46.08,80.82c0,1.919,0,3.839,0,5.759c1.92,0,3.84,0,5.76,0c0-1.92,0-3.84,0-5.759
	C49.92,80.82,48,80.82,46.08,80.82z"/>
<path fill="#F0EFEF" d="M46.08,109.621c0,1.92,0,3.84,0,5.76c0.539,0,1.07,0,1.609,0c0.48,0,0.961,0,1.45,0c0.479,0,0.96,0,1.44,0
	s0.96,0,1.439,0c0.48,0,0.961,0,1.44,0s0.96,0,1.44,0c0.479,0,0.959,0,1.439,0s0.96,0,1.439,0c0.48,0,0.961,0,1.431,0
	c0.479,0,0.96,0,1.44,0c0.489,0,0.969,0,1.449,0s0.961,0,1.44,0s0.96,0,1.44,0c0.479,0,0.959,0,1.439,0s0.96,0,1.439,0
	c0.48,0,0.961,0,1.44,0c0-1.92,0-3.84,0-5.76c1.91,0,3.83,0,5.761,0c1.919,0,3.839,0,5.759,0c0-1.44,0-2.881,0-4.32s0-2.88,0-4.32
	c0-1.439,0-2.88,0-4.32c0-1.439,0-2.879,0-4.319c-1.919,0-3.839,0-5.759,0c0-3.841,0-7.681,0-11.52c-1.931,0-3.851,0-5.761,0
	c-1.92,0-3.84,0-5.76,0c-0.54,0-1.08,0-1.62,0c-0.48,0-0.96,0-1.439,0c-0.48,0-0.961,0-1.44,0s-0.96,0-1.44,0c0-1.92,0-3.84,0-5.76
	c-1.93,0-3.84,0-5.76,0c0-0.96,0-1.92,0-2.88c0-0.48,0-0.96,0-1.44s0-0.96,0-1.44c0-0.06,0-0.12,0-0.18c1.92,0,3.83,0,5.76,0
	c1.5,0,3,0,4.5,0c1.44,0,2.881,0,4.32,0s2.88,0,4.32,0c1.43,0,2.879,0,4.32,0c0,0.54,0,1.08,0,1.62c0,0.48,0,0.96,0,1.44
	c0,0.96,0,1.92,0,2.88c1.919,0,3.839,0,5.759,0c0-0.96,0-1.92,0-2.88s0-1.92,0-2.88c0-0.06,0-0.12,0-0.18c3.83,0,7.681,0,11.521,0
	c0-1.92,0-3.84,0-5.76c-1.92,0-3.84,0-5.76,0c0-3.84,0-7.68,0-11.52c-1.931,0-3.841,0-5.761,0c0-1.92,0-3.84,0-5.76
	c-3.839,0-7.689,0-11.52,0c-3.899,0-7.8,0-11.7,0c0,1.92,0,3.84,0,5.76c-1.93,0-3.84,0-5.76,0s-3.84,0-5.76,0c0,1.92,0,3.84,0,5.76
	c-1.93,0-3.84,0-5.76,0c0,1.92,0,3.84,0,5.76s0,3.84,0,5.76c1.92,0,3.83,0,5.76,0c0,0.54,0,1.08,0,1.62c0,0.48,0,0.96,0,1.44
	c0,0.96,0,1.92,0,2.88c0,1.92,0,3.84,0,5.76c1.92,0,3.84,0,5.76,0c0,1.919,0,3.839,0,5.759c-1.92,0-3.84,0-5.76,0
	c0-1.92,0-3.84,0-5.759c-1.93,0-3.84,0-5.76,0s-3.84,0-5.76,0c0,3.839,0,7.679,0,11.52c1.92,0,3.84,0,5.76,0s3.83,0,5.76,0
	c0,1.92,0,3.84,0,5.76c1.92,0,3.84,0,5.76,0c0-1.92,0-3.84,0-5.76c1.92,0,3.83,0,5.76,0c0,1.92,0,3.84,0,5.76c0.54,0,1.07,0,1.61,0
	c0.479,0,0.96,0,1.44,0c0.489,0,0.969,0,1.449,0s0.961,0,1.44,0c0-1.92,0-3.84,0-5.76c1.92,0,3.84,0,5.76,0c0,1.92,0,3.84,0,5.76
	c1.91,0,3.83,0,5.761,0c0,1.92,0,3.841,0,5.761c-3.851,0-7.681,0-11.521,0c0,1.92,0,3.84,0,5.76c-0.181,0-0.37,0-0.54,0
	c-0.721,0-1.439,0-2.16,0c-0.359,0-0.721,0-1.08,0c-0.18,0-0.359,0-0.55,0c-0.17,0-0.351,0-0.54,0c-0.17,0-0.35,0-0.53,0
	c-0.18,0-0.36,0-0.54,0s-0.359,0-0.539,0c-0.181,0-0.371,0-0.541,0c-0.369,0-0.72,0-1.08,0c-0.18,0-0.359,0-0.539,0
	c-0.121,0-0.25,0-0.36,0c-0.181,0-0.37,0-0.54,0c-0.18,0-0.36,0-0.54,0c-0.181,0-0.36,0-0.54,0s-0.359,0-0.54,0
	c-0.12,0-0.24,0-0.36,0c-0.06,0-0.119,0-0.18,0c-0.13,0-0.24,0-0.359,0c-0.061,0-0.121,0-0.181,0c-0.181,0-0.36,0-0.54,0
	s-0.359,0-0.55,0c-0.11,0-0.229,0-0.351,0c-0.06,0-0.119,0-0.189,0c-0.109,0-0.23,0-0.35,0c-0.061,0-0.131,0-0.181,0
	c-0.12,0-0.239,0-0.36,0c-0.069,0-0.129,0-0.18,0c-0.119,0-0.24,0-0.359,0c-0.07,0-0.121,0-0.18,0c-0.371,0-0.721,0-1.08,0
	c-0.181,0-0.361,0-0.541,0C46.32,109.621,46.189,109.621,46.08,109.621z"/>
<path fill="#232034" d="M46.08,115.38c0,1.92,0,3.84,0,5.76c1.199,0,2.4,0,3.59,0c0.609,0,1.21,0,1.811,0c0.119,0,0.229,0,0.359,0
	c0.18,0,0.35,0,0.54,0c0.12,0,0.239,0,0.36,0c0.18,0,0.359,0,0.539,0c1.201,0,2.391,0,3.601,0c0.29,0,0.601,0,0.899,0
	c0.301,0,0.601,0,0.891,0c0.311,0,0.609,0,0.91,0c0.3,0,0.59,0,0.9,0c1.189,0,2.399,0,3.6,0c0.3,0,0.59,0,0.9,0
	c0.299,0,0.6,0,0.899,0c0.29,0,0.601,0,0.899,0c0.301,0,0.601,0,0.891,0c1.21,0,2.41,0,3.609,0c0.601,0,1.201,0,1.801,0
	c0.66,0,1.32,0,1.98,0c0-1.92,0-3.84,0-5.76c-1.931,0-3.851,0-5.761,0c-0.479,0-0.96,0-1.44,0c-0.479,0-0.959,0-1.439,0
	s-0.96,0-1.439,0c-0.48,0-0.961,0-1.44,0s-0.96,0-1.44,0s-0.96,0-1.449,0c-0.48,0-0.961,0-1.44,0c-0.47,0-0.95,0-1.431,0
	c-0.479,0-0.959,0-1.439,0s-0.96,0-1.439,0c-0.48,0-0.961,0-1.44,0s-0.96,0-1.44,0c-0.479,0-0.959,0-1.439,0s-0.961,0-1.44,0
	c-0.489,0-0.97,0-1.45,0C47.15,115.38,46.619,115.38,46.08,115.38z"/>
<path fill="#C0BFBF" d="M51.84,72.18c0,0.96,0,1.92,0,2.88c1.92,0,3.83,0,5.76,0c0-0.96,0-1.92,0-2.88c0-0.48,0-0.96,0-1.44
	s0-0.96,0-1.44c0-0.06,0-0.12,0-0.18c-1.93,0-3.84,0-5.76,0c0,0.06,0,0.12,0,0.18c0,0.48,0,0.96,0,1.44S51.84,71.7,51.84,72.18z"/>
<path fill="#C0BFBF" d="M51.84,46.08c0,1.92,0,3.84,0,5.76c1.92,0,3.83,0,5.76,0c0-1.92,0-3.84,0-5.76
	C55.67,46.08,53.76,46.08,51.84,46.08z"/>
<path fill="#232034" d="M51.84,40.32c0,1.92,0,3.84,0,5.76c1.92,0,3.83,0,5.76,0c3.9,0,7.801,0,11.7,0c3.83,0,7.68,0,11.52,0
	c1.92,0,3.83,0,5.761,0c0-1.92,0-3.84,0-5.76c-2.891,0-5.761,0-8.64,0s-5.77,0-8.64,0c-2.88,0-5.76,0-8.649,0
	C57.71,40.32,54.779,40.32,51.84,40.32z"/>
<path fill="#010101" d="M57.6,70.74c0,0.48,0,0.96,0,1.44c0,0.96,0,1.92,0,2.88c0.54,0,1.07,0,1.61,0c0.479,0,0.96,0,1.44,0
	c0.489,0,0.969,0,1.449,0s0.961,0,1.44,0c0,1.92,0,3.84,0,5.76c1.92,0,3.84,0,5.76,0c0-1.92,0-3.84,0-5.76c1.91,0,3.83,0,5.761,0
	c0-0.96,0-1.92,0-2.88c0-0.48,0-0.96,0-1.44c0-0.54,0-1.08,0-1.62c-1.441,0-2.891,0-4.32,0c-1.44,0-2.881,0-4.32,0s-2.88,0-4.32,0
	c-1.5,0-3,0-4.5,0c0,0.06,0,0.12,0,0.18C57.6,69.78,57.6,70.26,57.6,70.74z"/>
<path fill="#90BEE6" d="M57.6,75.06c0,1.92,0,3.84,0,5.76c0.48,0,0.961,0,1.44,0s0.96,0,1.44,0c0.479,0,0.959,0,1.439,0
	c0.54,0,1.08,0,1.62,0c0-1.92,0-3.84,0-5.76c-0.479,0-0.96,0-1.44,0s-0.96,0-1.449,0c-0.48,0-0.961,0-1.44,0
	C58.67,75.06,58.14,75.06,57.6,75.06z"/>
<path fill="#010101" d="M63.54,98.1c-0.479,0-0.96,0-1.44,0s-0.96,0-1.449,0c-0.48,0-0.961,0-1.44,0c-0.54,0-1.07,0-1.61,0
	c0-1.92,0-3.84,0-5.76c-1.93,0-3.84,0-5.76,0c0,1.92,0,3.84,0,5.76c-1.92,0-3.84,0-5.76,0c0,1.92,0,3.841,0,5.761s0,3.84,0,5.76
	c0.109,0,0.24,0,0.359,0c0.18,0,0.36,0,0.541,0c0.359,0,0.709,0,1.08,0c0.059,0,0.109,0,0.18,0c0.119,0,0.24,0,0.359,0
	c0.051,0,0.11,0,0.18,0c0.121,0,0.24,0,0.36,0c0.05,0,0.12,0,0.181,0c0.119,0,0.24,0,0.35,0c0.07,0,0.13,0,0.189,0
	c0.121,0,0.24,0,0.351,0c0.19,0,0.37,0,0.55,0s0.359,0,0.54,0c0.06,0,0.12,0,0.181,0c0.119,0,0.229,0,0.359,0c0.061,0,0.12,0,0.18,0
	c0.12,0,0.24,0,0.36,0c0.181,0,0.36,0,0.54,0s0.359,0,0.54,0c0.18,0,0.36,0,0.54,0c0.17,0,0.359,0,0.54,0c0.11,0,0.239,0,0.36,0
	c0.18,0,0.359,0,0.539,0c0.36,0,0.711,0,1.08,0c0.17,0,0.36,0,0.541,0c0.18,0,0.359,0,0.539,0s0.36,0,0.54,0c0.181,0,0.36,0,0.53,0
	c0.189,0,0.37,0,0.54,0c0.19,0,0.37,0,0.55,0c0.359,0,0.721,0,1.08,0c0.721,0,1.439,0,2.16,0c0.17,0,0.359,0,0.54,0
	c0-1.92,0-3.84,0-5.76c3.84,0,7.67,0,11.521,0c0-1.92,0-3.841,0-5.761c-1.931,0-3.851,0-5.761,0c0-1.92,0-3.84,0-5.76
	c-1.92,0-3.84,0-5.76,0C63.54,94.26,63.54,96.18,63.54,98.1z"/>
<path fill="#C0BFBF" d="M69.3,109.621c0,1.92,0,3.84,0,5.76c1.91,0,3.83,0,5.761,0c0-1.92,0-3.84,0-5.76
	C73.13,109.621,71.21,109.621,69.3,109.621z"/>
<path fill="#A6CDED" d="M75.061,115.38c0,1.92,0,3.84,0,5.76c1.439,0,2.879,0,4.319,0c1.439,0,2.88,0,4.31,0c1.45,0,2.891,0,4.33,0
	c1.44,0,2.88,0,4.32,0c0-1.92,0-3.84,0-5.76c0.18,0,0.35,0,0.54,0c0.42,0,0.83,0,1.26,0c0.479,0,0.96,0,1.44,0c0.42,0,0.84,0,1.26,0
	c0.479,0,0.96,0,1.439,0c0.061,0,0.12,0,0.181,0c0.12,0,0.229,0,0.359,0c0.24,0,0.48,0,0.721,0c0.479,0,0.96,0,1.439,0
	c0.96,0,1.92,0,2.88,0c0-1.92,0-3.84,0-5.76c-3.84,0-7.689,0-11.52,0c0-1.92,0-3.84,0-5.76c-1.92,0-3.84,0-5.76,0
	c0,1.92,0,3.84,0,5.76c-1.931,0-3.841,0-5.761,0c0,1.92,0,3.84,0,5.76C78.9,115.38,76.98,115.38,75.061,115.38z"/>
<path fill="#232034" d="M75.061,109.621c0,1.92,0,3.84,0,5.76c1.919,0,3.839,0,5.759,0c0-1.92,0-3.84,0-5.76
	C78.9,109.621,76.98,109.621,75.061,109.621z"/>
<path fill="#E2F4FC" d="M80.819,142.74c0,0.541,0,1.08,0,1.621c-1.919,0-3.839,0-5.759,0c0,1.92,0,3.84,0,5.76
	c-3.851,0-7.681,0-11.521,0c0-1.92,0-3.84,0-5.76c-3.91,0-7.8,0-11.7,0c0-1.98,0-3.961,0-5.94c-3.84,0-7.689,0-11.52,0
	c0-1.921,0-3.841,0-5.761c-1.92,0-3.84,0-5.76,0c0-1.92,0-3.84,0-5.76c-1.931,0-3.851,0-5.761,0c0-1.92,0-3.84,0-5.76
	c-1.92,0-3.84,0-5.76,0c0-0.18,0-0.359,0-0.54c0-0.12,0-0.239,0-0.36c0-0.18,0-0.359,0-0.539c0-0.36,0-0.721,0-1.08
	c0-0.721,0-1.44,0-2.16c0-0.12,0-0.24,0-0.36c0-0.18,0-0.36,0-0.54c0-0.359,0-0.72,0-1.08c0-0.72,0-1.439,0-2.16
	c0-1.379,0-2.76,0-4.14c0-1.44,0-2.88,0-4.319c0-0.121,0-0.24,0-0.361c0-0.18,0-0.359,0-0.539c0-0.36,0-0.721,0-1.08
	c0-0.721,0-1.439,0-2.16c0-0.12,0-0.24,0-0.359c0-0.181,0-0.361,0-0.541c0-0.359,0-0.72,0-1.08c0-0.72,0-1.439,0-2.16
	c0-1.379,0-2.76,0-4.139c0-1.441,0-2.881,0-4.32c0-0.18,0-0.36,0-0.541c-1.921,0-3.851,0-5.761,0c0-1.92,0-3.84,0-5.759
	c-1.92,0-3.84,0-5.76,0c0-2.88,0-5.76,0-8.64c0-2.94,0-5.88,0-8.82c1.92,0,3.84,0,5.76,0c0-3.84,0-7.68,0-11.52
	c-1.92,0-3.84,0-5.76,0c0,1.92,0,3.84,0,5.76c-0.18,0-0.369,0-0.539,0c-0.791,0-1.561,0-2.341,0s-1.56,0-2.34,0
	c-0.181,0-0.36,0-0.54,0c0,3.84,0,7.68,0,11.52c-1.92,0-3.84,0-5.76,0c0,2.88,0,5.76,0,8.64c0,1.44,0,2.88,0,4.319c0,1.5,0,3,0,4.5
	c1.92,0,3.84,0,5.76,0c0,0.181,0,0.361,0,0.541c0,1.8,0,3.6,0,5.399c0,1.86,0,3.72,0,5.58c1.91,0,3.84,0,5.76,0
	c0,1.92,0,3.841,0,5.761c1.92,0,3.84,0,5.76,0c0,0.18,0,0.359,0,0.539c0,1.86,0,3.721,0,5.58c0,1.86,0,3.721,0,5.58
	c0,1.86,0,3.721,0,5.58c0,1.92,0,3.84,0,5.76c1.91,0,3.84,0,5.761,0c0,0.18,0,0.36,0,0.541c0,3.659,0,7.319,0,10.979
	c1.92,0,3.84,0,5.76,0c0,0.96,0,1.92,0,2.88c0,0.48,0,0.96,0,1.439c0,0.541,0,1.08,0,1.621c2.87,0,5.761,0,8.64,0
	c2.881,0,5.75,0,8.641,0c0,1.92,0,3.84,0,5.76c1.92,0,3.84,0,5.76,0c0,1.92,0,3.84,0,5.76c1.92,0,3.83,0,5.76,0
	c0,0.18,0,0.359,0,0.54c0,1.56,0,3.12,0,4.68c0,0.181,0,0.36,0,0.54c5.82,0,11.641,0,17.461,0c0-1.92,0-3.84,0-5.76
	c0.18,0,0.359,0,0.539,0c1.8,0,3.59,0,5.4,0c1.859,0,3.71,0,5.58,0c0-1.92,0-3.84,0-5.76c0.18,0,0.359,0,0.539,0
	c0.78,0,1.551,0,2.341,0c0.779,0,1.56,0,2.34,0c0.18,0,0.35,0,0.54,0c0-1.92,0-3.84,0-5.76c0.18,0,0.35,0,0.54,0
	c1.79,0,3.6,0,5.399,0c1.86,0,3.721,0,5.58,0c0-1.98,0-3.961,0-5.94c0.181,0,0.351,0,0.54,0c3.66,0,7.311,0,10.98,0
	c0-1.921,0-3.841,0-5.761c-7.69,0-15.36,0-23.04,0c0,1.92,0,3.84,0,5.761c-3.84,0-7.69,0-11.521,0c0,0.96,0,1.92,0,2.88
	C80.819,141.781,80.819,142.26,80.819,142.74z"/>
<path fill="#232034" d="M80.819,105.3c0,1.439,0,2.88,0,4.32c1.92,0,3.83,0,5.761,0c0-1.92,0-3.84,0-5.76c0-3.841,0-7.681,0-11.521
	c1.92,0,3.84,0,5.76,0c0-1.92,0-3.841,0-5.761c1.92,0,3.83,0,5.76,0c0-1.92,0-3.84,0-5.759c1.92,0,3.84,0,5.76,0
	c0-3.84,0-7.68,0-11.52c0-1.92,0-3.84,0-5.76c0-0.96,0-1.92,0-2.88c0-0.48,0-0.96,0-1.44c0-0.54,0-1.08,0-1.62
	c-1.92,0-3.84,0-5.76,0c0,2.88,0,5.76,0,8.64c0,2.94,0,5.88,0,8.82c-1.93,0-3.84,0-5.76,0c0,1.92,0,3.84,0,5.76
	c-1.92,0-3.84,0-5.76,0c0,1.919,0,3.839,0,5.759c-1.931,0-3.841,0-5.761,0c0,1.92,0,3.841,0,5.761c0,1.44,0,2.88,0,4.319
	c0,1.44,0,2.881,0,4.32C80.819,102.42,80.819,103.861,80.819,105.3z"/>
<path fill="#C0BFBF" d="M80.819,72.18c0,0.96,0,1.92,0,2.88c-1.919,0-3.839,0-5.759,0c-1.931,0-3.851,0-5.761,0
	c0,1.92,0,3.84,0,5.76c1.91,0,3.83,0,5.761,0c0,3.839,0,7.679,0,11.52c1.919,0,3.839,0,5.759,0c0-1.92,0-3.841,0-5.761
	c1.92,0,3.83,0,5.761,0c0-1.92,0-3.84,0-5.759c1.92,0,3.84,0,5.76,0c0-1.92,0-3.84,0-5.76c1.92,0,3.83,0,5.76,0
	c0-2.94,0-5.88,0-8.82c0-2.88,0-5.76,0-8.64c-1.93,0-3.84,0-5.76,0c0-1.92,0-3.84,0-5.76c-1.92,0-3.84,0-5.76,0
	c0,3.84,0,7.68,0,11.52c1.92,0,3.84,0,5.76,0c0,1.92,0,3.84,0,5.76c-3.84,0-7.69,0-11.521,0c0,0.06,0,0.12,0,0.18
	C80.819,70.26,80.819,71.22,80.819,72.18z"/>
<path fill="#C0BFBF" d="M80.819,46.08c0,1.92,0,3.84,0,5.76c1.92,0,3.83,0,5.761,0c0-1.92,0-3.84,0-5.76
	C84.649,46.08,82.739,46.08,80.819,46.08z"/>
<path fill="#90BEE6" d="M86.58,92.34c0,3.84,0,7.68,0,11.521c1.92,0,3.84,0,5.76,0c0,1.92,0,3.84,0,5.76c3.83,0,7.68,0,11.52,0
	c0-1.92,0-3.84,0-5.76c-1.92,0-3.84,0-5.76,0c0-3.841,0-7.681,0-11.521c1.92,0,3.84,0,5.76,0c0-1.92,0-3.841,0-5.761
	c1.92,0,3.83,0,5.76,0c0-1.92,0-3.84,0-5.759c-1.93,0-3.84,0-5.76,0s-3.84,0-5.76,0c0,1.919,0,3.839,0,5.759c-1.93,0-3.84,0-5.76,0
	c0,1.92,0,3.841,0,5.761C90.42,92.34,88.5,92.34,86.58,92.34z"/>
<path fill="#232034" d="M86.58,46.08c0,1.92,0,3.84,0,5.76c1.92,0,3.84,0,5.76,0c0-1.92,0-3.84,0-5.76
	C90.42,46.08,88.5,46.08,86.58,46.08z"/>
<path fill="#232034" d="M92.34,51.84c0,1.92,0,3.84,0,5.76c1.92,0,3.83,0,5.76,0c0-1.92,0-3.84,0-5.76
	C96.17,51.84,94.26,51.84,92.34,51.84z"/>
<path fill="#E2F4FC" d="M92.34,5.76c0,1.92,0,3.84,0,5.76c7.68,0,15.35,0,23.04,0c0,1.92,0,3.84,0,5.76c1.92,0,3.83,0,5.76,0
	c0,1.92,0,3.84,0,5.76c1.92,0,3.84,0,5.76,0c0-3.84,0-7.68,0-11.52c-1.92,0-3.84,0-5.76,0c0-1.92,0-3.84,0-5.76
	c-1.93,0-3.84,0-5.76,0c0-0.18,0-0.36,0-0.54c0-1.56,0-3.12,0-4.68c0-0.18,0-0.36,0-0.54c-2.88,0-5.761,0-8.641,0s-5.76,0-8.64,0
	c0,1.92,0,3.84,0,5.76C96.17,5.76,94.26,5.76,92.34,5.76z"/>
<path fill="#A6CDED" d="M103.859,60.66c0,0.96,0,1.92,0,2.88c0,1.92,0,3.84,0,5.76c0,3.84,0,7.68,0,11.52c1.92,0,3.83,0,5.76,0
	c0,1.919,0,3.839,0,5.759c-1.93,0-3.84,0-5.76,0c0,1.92,0,3.841,0,5.761c-1.92,0-3.84,0-5.76,0c0,3.84,0,7.68,0,11.521
	c1.92,0,3.84,0,5.76,0c0,1.92,0,3.84,0,5.76c1.92,0,3.83,0,5.76,0c0-1.92,0-3.84,0-5.76c1.921,0,3.841,0,5.761,0
	c0-7.681,0-15.361,0-23.041c1.92,0,3.83,0,5.76,0c0-1.92,0-3.84,0-5.76c0-0.96,0-1.92,0-2.88c0-0.48,0-0.96,0-1.44
	c0-0.54,0-1.08,0-1.62c-1.93,0-3.84,0-5.76,0c0-1.92,0-3.84,0-5.76c-1.92,0-3.84,0-5.761,0c0-0.18,0-0.36,0-0.54
	c0-0.36,0-0.72,0-1.08c0-0.42,0-0.84,0-1.26c0-0.36,0-0.72,0-1.08c0-0.18,0-0.36,0-0.54c0-0.24,0-0.48,0-0.72c0-0.18,0-0.36,0-0.54
	c1.921,0,3.841,0,5.761,0c0-1.44,0-2.88,0-4.32s0-2.88,0-4.32c0-1.44,0-2.88,0-4.32s0-2.88,0-4.32c-1.92,0-3.84,0-5.761,0
	c0,3.84,0,7.68,0,11.52c-1.93,0-3.84,0-5.76,0c0,1.92,0,3.84,0,5.76c0,0.54,0,1.08,0,1.62C103.859,59.7,103.859,60.18,103.859,60.66
	z"/>
<path fill="#E2F4FC" d="M138.6,80.28c0,0.18,0,0.36,0,0.54c-1.93,0-3.84,0-5.76,0c0,1.919,0,3.839,0,5.759c1.92,0,3.83,0,5.76,0
	c0,3.841,0,7.681,0,11.521c1.92,0,3.84,0,5.76,0c0,3.841,0,7.681,0,11.521c-1.92,0-3.84,0-5.76,0c0,1.92,0,3.84,0,5.76
	c-1.93,0-3.84,0-5.76,0c0,1.92,0,3.84,0,5.76c-0.96,0-1.92,0-2.88,0s-1.92,0-2.88,0c-0.961,0-1.931,0-2.891,0
	c-0.479,0-0.95,0-1.43,0c-0.24,0-0.48,0-0.72,0c-0.12,0-0.24,0-0.37,0c-0.17,0-0.351,0-0.53,0c0,1.92,0,3.84,0,5.76
	c-1.93,0-3.84,0-5.76,0c0,1.92,0,3.84,0,5.76c0.72,0,1.439,0,2.16,0c0.17,0,0.359,0,0.54,0c0.18,0,0.359,0,0.539,0
	c0.181,0,0.36,0,0.53,0c0.19,0,0.37,0,0.54,0c0.73,0,1.45,0,2.17,0c0.181,0,0.351,0,0.54,0c0.181,0,0.36,0,0.54,0s0.36,0,0.54,0
	c0.17,0,0.36,0,0.54,0c0.72,0,1.44,0,2.15,0c0.189,0,0.37,0,0.54,0c0.189,0,0.37,0,0.55,0s0.359,0,0.54,0c0.18,0,0.35,0,0.54,0
	c0.18,0,0.35,0,0.54,0c0.18,0,0.359,0,0.54,0c0.359,0,0.72,0,1.08,0c0.359,0,0.71,0,1.08,0c0.42,0,0.84,0,1.26,0
	c0-1.92,0-3.84,0-5.76c1.92,0,3.83,0,5.76,0c0-1.92,0-3.84,0-5.76c1.92,0,3.84,0,5.76,0c0-1.92,0-3.84,0-5.76c1.92,0,3.83,0,5.76,0
	c0-1.92,0-3.84,0-5.76c0.181,0,0.36,0,0.53,0c0.061,0,0.13,0,0.19,0c0.12,0,0.24,0,0.35,0c0.07,0,0.13,0,0.19,0
	c0.12,0,0.239,0,0.359,0c0.181,0,0.36,0,0.54,0c0.24,0,0.48,0,0.721,0c0.06,0,0.119,0,0.17,0c0.13,0,0.25,0,0.37,0
	c0.06,0,0.109,0,0.17,0c0.13,0,0.25,0,0.37,0c0.42,0,0.84,0,1.26,0c0.18,0,0.35,0,0.54,0c0-1.44,0-2.881,0-4.32s0-2.88,0-4.32
	c0-0.18,0-0.359,0-0.539c0-0.181,0-0.361,0-0.541c0-0.359,0-0.72,0-1.08c0-0.18,0-0.359,0-0.539c0-0.181,0-0.36,0-0.541
	c0-0.359,0-0.72,0-1.08c0-1.439,0-2.879,0-4.319c-1.92,0-3.84,0-5.761,0c0-0.181,0-0.36,0-0.54s0-0.359,0-0.54s0-0.36,0-0.54
	c0-0.42,0-0.84,0-1.26c0-0.18,0-0.36,0-0.54c0-0.181,0-0.36,0-0.54s0-0.36,0-0.54c0-0.24,0-0.479,0-0.72c0-0.18,0-0.36,0-0.541
	c-1.93,0-3.84,0-5.76,0c0-0.18,0-0.359,0-0.539c0-1.801,0-3.6,0-5.4c0-0.42,0-0.84,0-1.26c0-0.48,0-0.96,0-1.44
	c0-0.96,0-1.92,0-2.88c1.92,0,3.83,0,5.76,0c0-1.92,0-3.84,0-5.76c0-0.96,0-1.92,0-2.88c0-0.48,0-0.96,0-1.44c0-0.54,0-1.08,0-1.62
	c-1.93,0-3.84,0-5.76,0c0-1.92,0-3.84,0-5.76c-1.92,0-3.84,0-5.76,0c0-0.18,0-0.36,0-0.54c0-3.66,0-7.32,0-10.98
	c-1.93,0-3.84,0-5.76,0c0-0.18,0-0.36,0-0.54c0-3.72,0-7.44,0-11.16c0-1.86,0-3.72,0-5.58c0-1.92,0-3.84,0-5.76c-0.9,0-1.8,0-2.7,0
	c-0.43,0-0.84,0-1.26,0c-0.48,0-0.96,0-1.44,0c-0.18,0-0.359,0-0.54,0c0,0.6,0,1.2,0,1.8c0,0.12,0,0.24,0,0.36c0,0.18,0,0.36,0,0.54
	c0,0.12,0,0.24,0,0.36c0,0.18,0,0.36,0,0.54c0,0.6,0,1.2,0,1.8c0,0.12,0,0.24,0,0.36c0,0.18,0,0.36,0,0.54c0,0.12,0,0.24,0,0.36
	c0,0.18,0,0.36,0,0.54c0,0.6,0,1.2,0,1.8c0,0.12,0,0.24,0,0.36c0,0.18,0,0.36,0,0.54c0,0.12,0,0.24,0,0.36c0,0.18,0,0.36,0,0.54
	c0,0.6,0,1.2,0,1.8c0,0.12,0,0.24,0,0.36c0,0.18,0,0.36,0,0.54c0,0.12,0,0.24,0,0.36c0,0.18,0,0.36,0,0.54c0,0.6,0,1.2,0,1.8
	c0,0.12,0,0.24,0,0.36c0,0.18,0,0.36,0,0.54c0,0.12,0,0.24,0,0.36c0,0.18,0,0.36,0,0.54c0,0.12,0,0.24,0,0.36c0,0.18,0,0.36,0,0.54
	c0,0.12,0,0.24,0,0.36c0,0.18,0,0.36,0,0.54c0,0.12,0,0.24,0,0.36c0,0.18,0,0.36,0,0.54c0,0.12,0,0.24,0,0.36c0,0.18,0,0.36,0,0.54
	c0,0.12,0,0.24,0,0.36c0,0.18,0,0.36,0,0.54c0,0.12,0,0.24,0,0.36c0,0.18,0,0.36,0,0.54c0,0.12,0,0.24,0,0.36c0,0.18,0,0.36,0,0.54
	c0,0.12,0,0.24,0,0.36c0,0.18,0,0.36,0,0.54c0,0.12,0,0.24,0,0.36c0,0.18,0,0.36,0,0.54c0,0.12,0,0.24,0,0.36c0,0.18,0,0.36,0,0.54
	c0,0.12,0,0.24,0,0.36c0,0.18,0,0.36,0,0.54c0,0.12,0,0.24,0,0.36c0,0.18,0,0.36,0,0.54c0.181,0,0.36,0,0.54,0c0.12,0,0.23,0,0.36,0
	c0.24,0,0.479,0,0.72,0c0.48,0,0.96,0,1.44,0c0.96,0,1.92,0,2.88,0c0,0.18,0,0.36,0,0.54c0,0.12,0,0.24,0,0.36c0,0.18,0,0.36,0,0.54
	s0,0.36,0,0.54c0,0.18,0,0.36,0,0.54c0,0.12,0,0.24,0,0.36c0,0.18,0,0.36,0,0.54s0,0.36,0,0.54c0,0.18,0,0.36,0,0.54
	c0,1.38,0,2.76,0,4.14c0,0.12,0,0.24,0,0.36c0,0.18,0,0.36,0,0.54c0,0.18,0,0.36,0,0.54c0,0.18,0,0.36,0,0.54c0,0.12,0,0.24,0,0.36
	c0,0.18,0,0.36,0,0.54c0,0.18,0,0.36,0,0.54c0,0.18,0,0.36,0,0.54c0,0.12,0,0.24,0,0.36c0,0.18,0,0.36,0,0.54c0,0.18,0,0.36,0,0.54
	c0,0.18,0,0.36,0,0.54c0,0.72,0,1.44,0,2.16c0,0.18,0,0.36,0,0.54c1.92,0,3.83,0,5.76,0c0,1.92,0,3.84,0,5.76c0,0.96,0,1.92,0,2.88
	c0,0.48,0,0.96,0,1.44c0,0.24,0,0.48,0,0.72C138.6,80.04,138.6,80.16,138.6,80.28z"/>
</svg>
