<?xml version="1.0" encoding="utf-8"?>
<!-- Generator: Adobe Illustrator 15.0.0, SVG Export Plug-In  -->
<!DOCTYPE svg PUBLIC "-//W3C//DTD SVG 1.1//EN" "http://www.w3.org/Graphics/SVG/1.1/DTD/svg11.dtd" [
	<!ENTITY ns_flows "http://ns.adobe.com/Flows/1.0/">
]>
<svg version="1.1"
	 xmlns="http://www.w3.org/2000/svg" xmlns:xlink="http://www.w3.org/1999/xlink" xmlns:a="http://ns.adobe.com/AdobeSVGViewerExtensions/3.0/"
	 x="0px" y="0px" width="200px" height="200px" viewBox="-10.55 -18.73 200 200" enable-background="new -10.55 -18.73 200 200"
	 xml:space="preserve">
<defs>
</defs>
<path fill="#232034" d="M51.84,69.3c0,7.68,0,15.361,0,23.041c1.92,0,3.84,0,5.75,0c0-3.84,0-7.68,0-11.521c0-1.92,0-3.84,0-5.76
	s0-3.84,0-5.76c0-1.92,0-3.84,0-5.76c-1.91,0-3.83,0-5.75,0C51.84,65.46,51.84,67.38,51.84,69.3z"/>
<path fill="#232034" d="M57.59,92.34c0,3.84,0,7.68,0,11.52c1.92,0,3.84,0,5.76,0c0-1.92,0-3.84,0-5.76s0-3.84,0-5.76
	C61.43,92.34,59.51,92.34,57.59,92.34z"/>
<path fill="#90BEE6" d="M57.59,75.06c0,1.92,0,3.84,0,5.76c1.92,0,3.84,0,5.76,0c0-1.92,0-3.84,0-5.76
	C61.43,75.06,59.51,75.06,57.59,75.06z"/>
<path fill="#C0BFBF" d="M57.59,63.54c0,1.92,0,3.84,0,5.76c1.92,0,3.84,0,5.76,0c0-1.92,0-3.84,0-5.76
	C61.43,63.54,59.51,63.54,57.59,63.54z"/>
<path fill="#232034" d="M57.59,52.02c0,3.84,0,7.68,0,11.52c1.92,0,3.84,0,5.76,0c0-1.92,0-3.84,0-5.76c0-1.92,0-3.84,0-5.76
	C61.43,52.02,59.51,52.02,57.59,52.02z"/>
<path fill="#CDE9F9" d="M138.59,92.34c0.25,0,0.49,0,0.72,0c0.24,0,0.49,0,0.73,0c0.47,0,0.96,0,1.43,0c0.96,0,1.92,0,2.88,0
	c0-1.92,0-3.84,0-5.76c1.92,0,3.851,0,5.771,0c0-1.74,0-3.48,0-5.221c0-0.18,0-0.36,0-0.54c-0.07,0-0.12,0-0.19,0
	c-0.71,0-1.43,0-2.16,0c-0.18,0-0.35,0-0.53,0c-0.189,0-0.359,0-0.539,0c-0.19,0-0.36,0-0.54,0c-0.19,0-0.36,0-0.54,0
	c-1.44,0-2.881,0-4.32,0c-2.88,0-5.76,0-8.64,0c0-1.92,0-3.84,0-5.76c1.92,0,3.84,0,5.76,0c0-1.74,0-3.48,0-5.22
	c0-0.18,0-0.36,0-0.54c-3.84,0-7.681,0-11.53,0c0-3.84,0-7.68,0-11.52c-1.92,0-3.84,0-5.75,0c0-1.92,0-3.84,0-5.76
	c-1.92,0-3.84,0-5.76,0c0-1.92,0-3.84,0-5.76c-1.92,0-3.84,0-5.76,0c0-0.96,0-1.92,0-2.88c0-0.48,0-0.96,0-1.44
	c0-0.54,0-1.08,0-1.62c-1.92,0-3.851,0-5.771,0c0-1.92,0-3.84,0-5.76c-1.92,0-3.84,0-5.76,0c0,1.92,0,3.84,0,5.76
	c-1.37,0-2.75,0-4.13,0c-1.45,0-2.88,0-4.32,0c-1.439,0-2.88,0-4.33,0c-0.17,0-0.35,0-0.54,0c-0.18,0-0.35,0-0.53,0
	c-0.189,0-0.359,0-0.539,0c-0.19,0-0.36,0-0.54,0c-0.19,0-0.36,0-0.54,0c-0.19,0-0.36,0-0.54,0c-0.19,0-0.36,0-0.54,0
	c-0.24,0-0.49,0-0.73,0c0-1.92,0-3.84,0-5.76c-1.92,0-3.84,0-5.76,0c0-0.18,0-0.36,0-0.54c0-1.38,0-2.76,0-4.14
	c0-0.36,0-0.72,0-1.08c0-0.18,0-0.36,0-0.54c0-0.12,0-0.24,0-0.36c0-0.36,0-0.72,0-1.08c0-0.18,0-0.36,0-0.54c0-0.12,0-0.24,0-0.36
	c0-1.38,0-2.76,0-4.14c0-0.36,0-0.72,0-1.08c0-0.18,0-0.36,0-0.54c0-0.12,0-0.24,0-0.36c0-0.36,0-0.72,0-1.08c0-0.18,0-0.36,0-0.54
	c0-0.12,0-0.24,0-0.36c0-0.18,0-0.36,0-0.54c3.84,0,7.689,0,11.53,0c0-1.92,0-3.84,0-5.76c5.76,0,11.51,0,17.27,0
	c0,1.92,0,3.84,0,5.76c1.92,0,3.851,0,5.771,0c0,1.92,0,3.84,0,5.76c5.76,0,11.52,0,17.27,0c0,1.92,0,3.84,0,5.76
	c1.92,0,3.85,0,5.771,0c0,3.84,0,7.68,0,11.52c-1.921,0-3.851,0-5.771,0c0,0.54,0,1.08,0,1.62c0,0.48,0,0.96,0,1.44
	c0,0.96,0,1.92,0,2.88c3.85,0,7.69,0,11.53,0c0,1.92,0,3.84,0,5.76c3.89,0,7.8,0,11.7,0c0,1.92,0,3.84,0,5.76c3.84,0,7.68,0,11.52,0
	c0,1.92,0,3.84,0,5.76c1.91,0,3.83,0,5.75,0c0,3.84,0,7.68,0,11.52c-1.92,0-3.84,0-5.75,0c0,3.84,0,7.681,0,11.521
	c1.91,0,3.83,0,5.75,0c0,1.439,0,2.879,0,4.319s0,2.88,0,4.32s0,2.88,0,4.319c0,1.44,0,2.881,0,4.32c-1.92,0-3.84,0-5.75,0
	c0,1.92,0,3.84,0,5.76c-1.92,0-3.84,0-5.76,0c0,1.92,0,3.84,0,5.76c-0.18,0-0.37,0-0.54,0c-1.45,0-2.88,0-4.33,0
	c-1.37,0-2.75,0-4.13,0s-2.76,0-4.141,0c-0.729,0-1.439,0-2.159,0c-0.36,0-0.73,0-1.08,0c-0.19,0-0.36,0-0.54,0
	c-0.19,0-0.37,0-0.54,0c0-1.92,0-3.84,0-5.76c-3.84,0-7.681,0-11.53,0c0,1.92,0,3.84,0,5.76c1.92,0,3.85,0,5.771,0
	c0,0.181,0,0.361,0,0.541c0,1.439,0,2.879,0,4.32c0,1.379,0,2.76,0,4.139c0,1.381,0,2.761,0,4.141c0,0.721,0,1.439,0,2.16
	c0,0.359,0,0.72,0,1.08c0,0.18,0,0.359,0,0.539c0,0.181,0,0.361,0,0.541c-1.921,0-3.851,0-5.771,0c0,1.92,0,3.84,0,5.76
	c-0.17,0-0.35,0-0.54,0c-0.35,0-0.71,0-1.08,0c-0.18,0-0.35,0-0.53,0c-0.189,0-0.359,0-0.539,0c-0.36,0-0.73,0-1.08,0
	c-0.19,0-0.36,0-0.54,0c-0.12,0-0.24,0-0.36,0c-0.37,0-0.72,0-1.08,0c-0.18,0-0.37,0-0.55,0c-0.12,0-0.24,0-0.351,0
	c-0.189,0-0.359,0-0.539,0c-0.19,0-0.36,0-0.54,0c-0.19,0-0.36,0-0.54,0c-0.12,0-0.24,0-0.36,0c-0.37,0-0.72,0-1.08,0
	c-0.18,0-0.37,0-0.54,0c-0.18,0-0.37,0-0.55,0c-0.351,0-0.71,0-1.08,0c-0.17,0-0.35,0-0.54,0c-0.12,0-0.23,0-0.35,0
	c-0.36,0-0.73,0-1.08,0c-0.19,0-0.36,0-0.54,0c-0.12,0-0.24,0-0.36,0c-0.18,0-0.37,0-0.55,0c-0.17,0-0.351,0-0.54,0
	c-0.17,0-0.35,0-0.54,0c-0.12,0-0.24,0-0.35,0c-0.19,0-0.36,0-0.54,0c0-1.92,0-3.84,0-5.76c-1.92,0-3.851,0-5.771,0
	c0,1.92,0,3.84,0,5.76c-0.71,0-1.43,0-2.149,0c-0.36,0-0.73,0-1.08,0c-0.19,0-0.36,0-0.54,0c-0.19,0-0.36,0-0.54,0
	c-0.36,0-0.73,0-1.08,0c-0.19,0-0.37,0-0.54,0c-0.181,0-0.37,0-0.54,0c-0.37,0-0.72,0-1.08,0c-0.18,0-0.37,0-0.54,0
	c-0.18,0-0.37,0-0.54,0c-0.37,0-0.72,0-1.08,0c-0.18,0-0.37,0-0.55,0c-0.17,0-0.351,0-0.54,0c-0.35,0-0.71,0-1.08,0
	c-0.17,0-0.35,0-0.54,0c-0.17,0-0.35,0-0.54,0c-0.35,0-0.71,0-1.08,0c-0.17,0-0.35,0-0.54,0c-0.18,0-0.35,0-0.53,0
	c-0.359,0-0.729,0-1.079,0c-0.19,0-0.36,0-0.54,0c-0.19,0-0.36,0-0.54,0c0,1.92,0,3.84,0,5.76c-3.841,0-7.69,0-11.53,0
	c0,1.92,0,3.84,0,5.76c-3.89,0-7.79,0-11.7,0c0-1.92,0-3.84,0-5.76c-1.92,0-3.84,0-5.76,0c0-1.92,0-3.84,0-5.76
	c-1.91,0-3.83,0-5.75,0c0-1.92,0-3.84,0-5.76c-1.92,0-3.84,0-5.76,0c0-3.84,0-7.68,0-11.521c-1.92,0-3.841,0-5.771,0
	c0-0.54,0-1.079,0-1.62c0-0.479,0-0.959,0-1.439c0-0.961,0-1.92,0-2.881c-1.92,0-3.84,0-5.76,0c0-1.92,0-3.84,0-5.76
	c-1.91,0-3.83,0-5.75,0c0-1.92,0-3.84,0-5.76c-1.92,0-3.84,0-5.76,0c0-3.84,0-7.68,0-11.52c-1.92,0-3.84,0-5.771,0
	c0-3.84,0-7.68,0-11.521c-1.92,0-3.84,0-5.76,0c0-3.84,0-7.68,0-11.52c1.92,0,3.84,0,5.76,0c0-1.92,0-3.84,0-5.76
	c3.851,0,7.69,0,11.53,0c0-1.92,0-3.84,0-5.76c3.84,0,7.67,0,11.51,0c0-1.92,0-3.84,0-5.76c1.93,0,3.851,0,5.771,0
	c0-3.9,0-7.8,0-11.7c3.84,0,7.68,0,11.51,0c0-1.92,0-3.84,0-5.76c0.55,0,1.09,0,1.63,0c0.48,0,0.96,0,1.44,0c0.96,0,1.92,0,2.88,0
	s1.92,0,2.88,0s1.92,0,2.88,0c0,1.92,0,3.84,0,5.76c1.92,0,3.84,0,5.75,0c0,0.96,0,1.92,0,2.88c0,0.48,0,0.96,0,1.44
	c0,0.54,0,1.08,0,1.62c-1.91,0-3.83,0-5.75,0c-0.96,0-1.92,0-2.88,0c-0.49,0-0.96,0-1.45,0c-0.54,0-1.08,0-1.62,0
	c0,1.92,0,3.84,0,5.76c-1.92,0-3.84,0-5.76,0c0,3.84,0,7.68,0,11.52c-1.91,0-3.83,0-5.75,0c0,1.92,0,3.84,0,5.76
	c-3.84,0-7.68,0-11.53,0c0,1.92,0,3.84,0,5.76c-1.92,0-3.84,0-5.76,0c0,3.84,0,7.681,0,11.521c-1.91,0-3.83,0-5.75,0
	c0,1.92,0,3.84,0,5.76c2.88,0,5.75,0,8.63,0s5.771,0,8.65,0c0,1.92,0,3.84,0,5.76c1.92,0,3.84,0,5.76,0c0,3.84,0,7.68,0,11.52
	c1.92,0,3.84,0,5.75,0c0,0.961,0,1.92,0,2.881c0,0.959,0,1.92,0,2.879c0,0.961,0,1.92,0,2.881c0,0.48,0,0.96,0,1.439
	c0,0.541,0,1.08,0,1.62c1.92,0,3.84,0,5.76,0c0,1.921,0,3.841,0,5.761c3.91,0,7.811,0,11.7,0c0,1.92,0,3.84,0,5.76
	c3.84,0,7.689,0,11.53,0c0-3.84,0-7.68,0-11.521c1.92,0,3.84,0,5.76,0c0-0.96,0-1.92,0-2.88c0-0.48,0-0.96,0-1.439
	c0-0.541,0-1.08,0-1.621c1.92,0,3.84,0,5.75,0c0-1.92,0-3.84,0-5.76c1.92,0,3.84,0,5.76,0c0-1.92,0-3.84,0-5.76
	c1.92,0,3.851,0,5.771,0c0-1.92,0-3.84,0-5.76c1.92,0,3.84,0,5.76,0c0-1.92,0-3.84,0-5.76s0-3.84,0-5.76c1.92,0,3.84,0,5.76,0
	c0-1.92,0-3.84,0-5.761c1.91,0,3.83,0,5.75,0s3.85,0,5.771,0c0,1.921,0,3.841,0,5.761c1.92,0,3.84,0,5.76,0c0,1.92,0,3.84,0,5.76
	C138.47,92.34,138.54,92.34,138.59,92.34z M126.89,98.1c0,1.92,0,3.84,0,5.76c1.92,0,3.85,0,5.771,0c0-3.66,0-7.32,0-10.98
	c0-0.18,0-0.359,0-0.539c-0.07,0-0.12,0-0.19,0c-0.17,0-0.35,0-0.54,0c-0.12,0-0.229,0-0.35,0c-0.24,0-0.49,0-0.73,0
	c-0.229,0-0.47,0-0.71,0c-0.18,0-0.37,0-0.55,0c-0.47,0-0.95,0-1.43,0c-0.421,0-0.851,0-1.271,0c-1.729,0-3.47,0-5.21,0
	c-0.18,0-0.37,0-0.54,0c0,1.92,0,3.84,0,5.76C123.05,98.1,124.97,98.1,126.89,98.1z"/>
<path fill="#232034" d="M69.3,46.26c-0.96,0-1.92,0-2.88,0c-0.49,0-0.96,0-1.45,0c-0.54,0-1.08,0-1.62,0c0,1.92,0,3.84,0,5.76
	c0.54,0,1.08,0,1.62,0c0.49,0,0.96,0,1.45,0c0.96,0,1.92,0,2.88,0c1.92,0,3.84,0,5.75,0c0-1.92,0-3.84,0-5.76
	C73.14,46.26,71.22,46.26,69.3,46.26z"/>
<path fill="#C0BFBF" d="M69.3,52.02c-0.96,0-1.92,0-2.88,0c-0.49,0-0.96,0-1.45,0c-0.54,0-1.08,0-1.62,0c0,1.92,0,3.84,0,5.76
	c0.96,0,1.92,0,2.89,0c0.48,0,0.961,0,1.44,0c0.54,0,1.08,0,1.62,0C69.3,55.86,69.3,53.94,69.3,52.02z"/>
<path fill="#010101" d="M67.68,69.3c-0.479,0-0.96,0-1.44,0c-0.97,0-1.93,0-2.89,0c-1.92,0-3.84,0-5.76,0c0,1.92,0,3.84,0,5.76
	c1.92,0,3.84,0,5.76,0c0,1.92,0,3.84,0,5.76c0.96,0,1.92,0,2.89,0c0.48,0,0.961,0,1.44,0c0.54,0,1.08,0,1.62,0
	c0-3.84,0-7.68,0-11.52c-0.061,0-0.12,0-0.18,0c-0.24,0-0.48,0-0.73,0C68.16,69.3,67.92,69.3,67.68,69.3z"/>
<path fill="#F0EFEF" d="M67.68,57.78c-0.479,0-0.96,0-1.44,0c-0.97,0-1.93,0-2.89,0c0,1.92,0,3.84,0,5.76s0,3.84,0,5.76
	c0.96,0,1.92,0,2.89,0c0.48,0,0.961,0,1.44,0c0.24,0,0.48,0,0.71,0c0.25,0,0.49,0,0.73,0c0.06,0,0.119,0,0.18,0
	c0,3.84,0,7.68,0,11.52c1.92,0,3.84,0,5.75,0c0,1.921,0,3.841,0,5.761c-1.91,0-3.83,0-5.75,0c0-1.92,0-3.84,0-5.761
	c-0.54,0-1.08,0-1.62,0c-0.479,0-0.96,0-1.44,0c-0.97,0-1.93,0-2.89,0c-1.92,0-3.84,0-5.76,0c0,3.841,0,7.681,0,11.521
	c1.92,0,3.84,0,5.76,0c0.54,0,1.08,0,1.62,0c0.49,0,0.96,0,1.45,0c0.96,0,1.92,0,2.88,0c0,1.92,0,3.84,0,5.76c1.92,0,3.84,0,5.75,0
	c0-1.92,0-3.84,0-5.76c1.92,0,3.84,0,5.76,0c0,1.92,0,3.84,0,5.76c1.93,0,3.851,0,5.771,0c0-1.92,0-3.84,0-5.76
	c1.92,0,3.84,0,5.76,0c0,1.92,0,3.84,0,5.76c-1.92,0-3.84,0-5.76,0c0,1.92,0,3.84,0,5.76c-0.19,0-0.36,0-0.54,0
	c-1.74,0-3.49,0-5.23,0c0-1.92,0-3.84,0-5.76c-1.92,0-3.84,0-5.76,0c0,1.92,0,3.84,0,5.76c-1.91,0-3.83,0-5.75,0
	c0,1.92,0,3.84,0,5.76c7.67,0,15.36,0,23.04,0c0-1.92,0-3.84,0-5.76c1.92,0,3.84,0,5.75,0c1.92,0,3.84,0,5.76,0
	c0-3.84,0-7.68,0-11.52c-1.92,0-3.84,0-5.76,0c0-3.84,0-7.68,0-11.521c-1.91,0-3.83,0-5.75,0s-3.84,0-5.76,0s-3.841,0-5.771,0
	c0-1.92,0-3.84,0-5.76c-1.92,0-3.84,0-5.76,0c0-1.92,0-3.84,0-5.76c1.92,0,3.84,0,5.76,0c2.891,0,5.771,0,8.65,0s5.76,0,8.63,0
	c0,1.92,0,3.84,0,5.76c1.92,0,3.84,0,5.76,0c0-1.92,0-3.84,0-5.76c3.851,0,7.69,0,11.53,0c0-1.92,0-3.84,0-5.76
	c-1.92,0-3.84,0-5.76,0c0-3.84,0-7.68,0-11.52c-1.92,0-3.851,0-5.771,0c0-1.92,0-3.84,0-5.76c-7.67,0-15.35,0-23.04,0
	c0,1.92,0,3.84,0,5.76c-1.92,0-3.84,0-5.76,0c-1.91,0-3.83,0-5.75,0c0,1.92,0,3.84,0,5.76C68.76,57.78,68.22,57.78,67.68,57.78z"/>
<path fill="#010101" d="M64.97,92.34c-0.54,0-1.08,0-1.62,0c0,1.92,0,3.84,0,5.76c0.54,0,1.08,0,1.62,0c0.49,0,0.96,0,1.45,0
	c0.96,0,1.92,0,2.88,0c0-1.92,0-3.84,0-5.76c-0.96,0-1.92,0-2.88,0C65.93,92.34,65.46,92.34,64.97,92.34z"/>
<path fill="#F0EFEF" d="M69.3,98.1c-0.96,0-1.92,0-2.88,0c-0.49,0-0.96,0-1.45,0c-0.54,0-1.08,0-1.62,0c0,1.92,0,3.84,0,5.76
	c0.54,0,1.08,0,1.62,0c0.49,0,0.96,0,1.45,0c0.96,0,1.92,0,2.88,0C69.3,101.94,69.3,100.02,69.3,98.1z"/>
<path fill="#232034" d="M69.3,103.86c-0.96,0-1.92,0-2.88,0c-0.49,0-0.96,0-1.45,0c-0.54,0-1.08,0-1.62,0c0,1.92,0,3.84,0,5.76
	c0.54,0,1.08,0,1.62,0c0.49,0,0.96,0,1.45,0c0.96,0,1.92,0,2.88,0C69.3,107.7,69.3,105.78,69.3,103.86z"/>
<path fill="#90BEE6" d="M69.3,109.62c-0.96,0-1.92,0-2.88,0c-0.49,0-0.96,0-1.45,0c-0.54,0-1.08,0-1.62,0c0,1.92,0,3.84,0,5.76
	c0.19,0,0.37,0,0.54,0c0.12,0,0.25,0,0.37,0c0.24,0,0.479,0,0.71,0c0.49,0,0.96,0,1.45,0c0.96,0,1.92,0,2.88,0
	C69.3,113.459,69.3,111.54,69.3,109.62z"/>
<path fill="#A6CDED" d="M57.59,119.7c0,0.541,0,1.08,0,1.62c1.92,0,3.84,0,5.76,0c0,1.921,0,3.841,0,5.761c3.91,0,7.811,0,11.7,0
	c0,1.92,0,3.84,0,5.76c3.84,0,7.689,0,11.53,0c0-3.84,0-7.68,0-11.521c1.92,0,3.84,0,5.76,0c0-0.96,0-1.92,0-2.88
	c0-0.48,0-0.96,0-1.439c0-0.541,0-1.08,0-1.621c-7.68,0-15.37,0-23.04,0c-0.96,0-1.92,0-2.88,0c-0.49,0-0.96,0-1.45,0
	c-0.23,0-0.47,0-0.71,0c-0.12,0-0.25,0-0.37,0c-0.17,0-0.35,0-0.54,0c0-1.92,0-3.84,0-5.76s0-3.84,0-5.76c-1.92,0-3.84,0-5.76,0
	c0-3.84,0-7.68,0-11.52c-1.91,0-3.83,0-5.75,0c0-7.68,0-15.36,0-23.041c-3.84,0-7.68,0-11.53,0c0,1.92,0,3.84,0,5.76
	c-1.92,0-3.84,0-5.76,0c0,3.84,0,7.681,0,11.521c-1.91,0-3.83,0-5.75,0c0,1.92,0,3.84,0,5.76c2.88,0,5.75,0,8.63,0s5.771,0,8.65,0
	c0,1.92,0,3.84,0,5.76c1.92,0,3.84,0,5.76,0c0,3.84,0,7.68,0,11.52c1.92,0,3.84,0,5.75,0c0,0.961,0,1.92,0,2.881
	c0,0.959,0,1.92,0,2.879c0,0.961,0,1.92,0,2.881C57.59,118.741,57.59,119.22,57.59,119.7z"/>
<path fill="#232034" d="M69.3,109.62c0,1.92,0,3.84,0,5.76c7.67,0,15.36,0,23.04,0c1.92,0,3.84,0,5.75,0c0-1.92,0-3.84,0-5.76
	c-1.91,0-3.83,0-5.75,0C84.66,109.62,76.97,109.62,69.3,109.62z"/>
<path fill="#010101" d="M69.3,98.1c0,1.92,0,3.84,0,5.76c1.92,0,3.84,0,5.75,0c0-1.92,0-3.84,0-5.76
	C73.14,98.1,71.22,98.1,69.3,98.1z"/>
<path fill="#010101" d="M69.3,80.82c0,1.921,0,3.841,0,5.761c1.92,0,3.84,0,5.75,0c0-1.92,0-3.84,0-5.761
	C73.14,80.82,71.22,80.82,69.3,80.82z"/>
<path fill="#010101" d="M75.05,92.34c0,1.92,0,3.84,0,5.76c1.92,0,3.84,0,5.76,0c0-1.92,0-3.84,0-5.76
	C78.89,92.34,76.97,92.34,75.05,92.34z"/>
<path fill="#C0BFBF" d="M75.05,69.3c0,1.92,0,3.84,0,5.76c1.92,0,3.84,0,5.76,0c0-1.92,0-3.84,0-5.76
	C78.89,69.3,76.97,69.3,75.05,69.3z"/>
<path fill="#C0BFBF" d="M75.05,46.26c0,1.92,0,3.84,0,5.76c1.92,0,3.84,0,5.76,0c0-1.92,0-3.84,0-5.76
	C78.89,46.26,76.97,46.26,75.05,46.26z"/>
<path fill="#232034" d="M75.05,44.64c0,0.54,0,1.08,0,1.62c1.92,0,3.84,0,5.76,0c7.69,0,15.37,0,23.04,0c1.92,0,3.851,0,5.771,0
	c0-0.96,0-1.92,0-2.88c0-0.48,0-0.96,0-1.44c0-0.54,0-1.08,0-1.62c-1.92,0-3.851,0-5.771,0s-3.84,0-5.76,0c-1.37,0-2.75,0-4.13,0
	c-1.45,0-2.88,0-4.32,0c-1.439,0-2.88,0-4.33,0c-0.17,0-0.35,0-0.54,0c-0.18,0-0.35,0-0.53,0c-0.189,0-0.359,0-0.539,0
	c-0.19,0-0.36,0-0.54,0c-0.19,0-0.36,0-0.54,0c-0.19,0-0.36,0-0.54,0c-0.19,0-0.36,0-0.54,0c-0.24,0-0.49,0-0.73,0
	c-1.92,0-3.84,0-5.76,0c0,0.96,0,1.92,0,2.88C75.05,43.68,75.05,44.16,75.05,44.64z"/>
<path fill="#010101" d="M80.81,98.1c0,1.92,0,3.84,0,5.76c1.74,0,3.49,0,5.23,0c0.18,0,0.35,0,0.54,0c0-1.92,0-3.84,0-5.76
	C84.66,98.1,82.739,98.1,80.81,98.1z"/>
<path fill="#90BEE6" d="M80.81,75.06c0,1.92,0,3.84,0,5.76c1.93,0,3.851,0,5.771,0c0-1.92,0-3.84,0-5.76
	C84.66,75.06,82.739,75.06,80.81,75.06z"/>
<path fill="#010101" d="M80.81,69.3c0,1.92,0,3.84,0,5.76c1.93,0,3.851,0,5.771,0c0,1.92,0,3.84,0,5.76c1.92,0,3.84,0,5.76,0
	c0-1.92,0-3.84,0-5.76c1.92,0,3.84,0,5.75,0c0-1.92,0-3.84,0-5.76c-2.87,0-5.75,0-8.63,0S83.7,69.3,80.81,69.3z"/>
<path fill="#010101" d="M86.58,92.34c0,1.92,0,3.84,0,5.76c1.92,0,3.84,0,5.76,0c0-1.92,0-3.84,0-5.76
	C90.42,92.34,88.5,92.34,86.58,92.34z"/>
<path fill="#C0BFBF" d="M92.34,103.86c0,1.92,0,3.84,0,5.76c1.92,0,3.84,0,5.75,0c0-1.92,0-3.84,0-5.76
	C96.18,103.86,94.26,103.86,92.34,103.86z"/>
<path fill="#C0BFBF" d="M92.34,75.06c0,1.92,0,3.84,0,5.76c1.92,0,3.84,0,5.75,0c0,3.841,0,7.681,0,11.521c1.92,0,3.84,0,5.76,0
	c0-1.92,0-3.84,0-5.76c1.92,0,3.851,0,5.771,0c0-1.92,0-3.84,0-5.761c1.92,0,3.84,0,5.76,0c0-1.92,0-3.84,0-5.76
	c1.92,0,3.84,0,5.76,0c0-5.76,0-11.52,0-17.28c-1.92,0-3.84,0-5.76,0c0-1.92,0-3.84,0-5.76c-1.92,0-3.84,0-5.76,0
	c0,3.84,0,7.68,0,11.52c1.92,0,3.84,0,5.76,0c0,1.92,0,3.84,0,5.76c-3.84,0-7.68,0-11.53,0c0,1.92,0,3.84,0,5.76
	c-1.92,0-3.84,0-5.76,0C96.18,75.06,94.26,75.06,92.34,75.06z"/>
<path fill="#232034" d="M98.09,103.86c0,1.92,0,3.84,0,5.76c1.92,0,3.84,0,5.76,0c0-1.92,0-3.84,0-5.76
	C101.93,103.86,100.01,103.86,98.09,103.86z"/>
<path fill="#A6CDED" d="M98.09,34.56c0,1.92,0,3.84,0,5.76c1.92,0,3.84,0,5.76,0c0-1.92,0-3.84,0-5.76
	C101.93,34.56,100.01,34.56,98.09,34.56z"/>
<path fill="#232034" d="M103.85,92.34c0,3.84,0,7.68,0,11.52c1.92,0,3.851,0,5.771,0c0-1.92,0-3.84,0-5.76s0-3.84,0-5.76
	c1.92,0,3.84,0,5.76,0c0-1.92,0-3.84,0-5.76c1.92,0,3.84,0,5.76,0c0-1.92,0-3.84,0-5.761c1.91,0,3.83,0,5.75,0
	c0-3.84,0-7.68,0-11.52c0-3.84,0-7.68,0-11.52c-1.92,0-3.84,0-5.75,0c0,5.76,0,11.52,0,17.28c-1.92,0-3.84,0-5.76,0
	c0,1.92,0,3.84,0,5.76c-1.92,0-3.84,0-5.76,0c0,1.921,0,3.841,0,5.761c-1.92,0-3.851,0-5.771,0
	C103.85,88.5,103.85,90.42,103.85,92.34z"/>
<path fill="#C0BFBF" d="M103.85,46.26c0,1.92,0,3.84,0,5.76c1.92,0,3.851,0,5.771,0c0-1.92,0-3.84,0-5.76
	C107.7,46.26,105.77,46.26,103.85,46.26z"/>
<path fill="#A6CDED" d="M109.62,92.34c0,1.92,0,3.84,0,5.76c1.92,0,3.84,0,5.76,0c0-1.92,0-3.84,0-5.76
	C113.46,92.34,111.54,92.34,109.62,92.34z"/>
<path fill="#232034" d="M109.62,46.26c0,1.92,0,3.84,0,5.76c1.92,0,3.84,0,5.76,0c0-1.92,0-3.84,0-5.76
	C113.46,46.26,111.54,46.26,109.62,46.26z"/>
<path fill="#232034" d="M115.38,52.02c0,1.92,0,3.84,0,5.76c1.92,0,3.84,0,5.76,0c0-1.92,0-3.84,0-5.76
	C119.22,52.02,117.3,52.02,115.38,52.02z"/>
<path fill="#A6CDED" d="M126.89,69.3c0,3.84,0,7.68,0,11.52c1.92,0,3.85,0,5.771,0c0-1.92,0-3.84,0-5.76c1.92,0,3.84,0,5.76,0
	c0-1.74,0-3.48,0-5.22c0-0.18,0-0.36,0-0.54C134.58,69.3,130.739,69.3,126.89,69.3z"/>
<path fill="#E2F4FC" d="M155.34,115.379c-1.45,0-2.88,0-4.33,0c-1.37,0-2.75,0-4.13,0s-2.76,0-4.141,0c-0.729,0-1.439,0-2.159,0
	c-0.36,0-0.73,0-1.08,0c-0.19,0-0.36,0-0.54,0c-0.19,0-0.37,0-0.54,0c0-1.92,0-3.84,0-5.76c-3.84,0-7.681,0-11.53,0
	c0,1.92,0,3.84,0,5.76c1.92,0,3.85,0,5.771,0c0,0.181,0,0.361,0,0.541c0,1.439,0,2.879,0,4.32c0,1.379,0,2.76,0,4.139
	c0,1.381,0,2.761,0,4.141c0,0.721,0,1.439,0,2.16c0,0.359,0,0.72,0,1.08c0,0.18,0,0.359,0,0.539c0,0.181,0,0.361,0,0.541
	c-1.921,0-3.851,0-5.771,0c0,1.92,0,3.84,0,5.76c-0.17,0-0.35,0-0.54,0c-0.35,0-0.71,0-1.08,0c-0.18,0-0.35,0-0.53,0
	c-0.189,0-0.359,0-0.539,0c-0.36,0-0.73,0-1.08,0c-0.19,0-0.36,0-0.54,0c-0.12,0-0.24,0-0.36,0c-0.37,0-0.72,0-1.08,0
	c-0.18,0-0.37,0-0.55,0c-0.12,0-0.24,0-0.351,0c-0.189,0-0.359,0-0.539,0c-0.19,0-0.36,0-0.54,0c-0.19,0-0.36,0-0.54,0
	c-0.12,0-0.24,0-0.36,0c-0.37,0-0.72,0-1.08,0c-0.18,0-0.37,0-0.54,0c-0.18,0-0.37,0-0.55,0c-0.351,0-0.71,0-1.08,0
	c-0.17,0-0.35,0-0.54,0c-0.12,0-0.23,0-0.35,0c-0.36,0-0.73,0-1.08,0c-0.19,0-0.36,0-0.54,0c-0.12,0-0.24,0-0.36,0
	c-0.18,0-0.37,0-0.55,0c-0.17,0-0.351,0-0.54,0c-0.17,0-0.35,0-0.54,0c-0.12,0-0.24,0-0.35,0c-0.19,0-0.36,0-0.54,0
	c0-1.92,0-3.84,0-5.76c-1.92,0-3.851,0-5.771,0c0,1.92,0,3.84,0,5.76c-0.71,0-1.43,0-2.149,0c-0.36,0-0.73,0-1.08,0
	c-0.19,0-0.36,0-0.54,0c-0.19,0-0.36,0-0.54,0c-0.36,0-0.73,0-1.08,0c-0.19,0-0.37,0-0.54,0c-0.181,0-0.37,0-0.54,0
	c-0.37,0-0.72,0-1.08,0c-0.18,0-0.37,0-0.54,0c-0.18,0-0.37,0-0.54,0c-0.37,0-0.72,0-1.08,0c-0.18,0-0.37,0-0.55,0
	c-0.17,0-0.351,0-0.54,0c-0.35,0-0.71,0-1.08,0c-0.17,0-0.35,0-0.54,0c-0.17,0-0.35,0-0.54,0c-0.35,0-0.71,0-1.08,0
	c-0.17,0-0.35,0-0.54,0c-0.18,0-0.35,0-0.53,0c-0.359,0-0.729,0-1.079,0c-0.19,0-0.36,0-0.54,0c-0.19,0-0.36,0-0.54,0
	c0,1.92,0,3.84,0,5.76c-3.841,0-7.69,0-11.53,0c0,1.92,0,3.84,0,5.76c-3.89,0-7.79,0-11.7,0c0-1.92,0-3.84,0-5.76
	c-1.92,0-3.84,0-5.76,0c0-1.92,0-3.84,0-5.76c-1.91,0-3.83,0-5.75,0c0-1.92,0-3.84,0-5.76c-1.92,0-3.84,0-5.76,0
	c0-3.84,0-7.68,0-11.521c-1.92,0-3.841,0-5.771,0c0-0.54,0-1.079,0-1.62c0-0.479,0-0.959,0-1.439c0-0.961,0-1.92,0-2.881
	c-1.92,0-3.84,0-5.76,0c0-1.92,0-3.84,0-5.76c-1.91,0-3.83,0-5.75,0c0-1.92,0-3.84,0-5.76c-1.92,0-3.84,0-5.76,0
	c0-3.84,0-7.68,0-11.52c-1.92,0-3.84,0-5.771,0c0-3.84,0-7.68,0-11.521c-1.92,0-3.84,0-5.76,0c0-3.84,0-7.68,0-11.52
	c1.92,0,3.84,0,5.76,0c0-1.92,0-3.84,0-5.76c3.851,0,7.69,0,11.53,0c0-1.92,0-3.84,0-5.76c3.84,0,7.67,0,11.51,0
	c0-1.92,0-3.84,0-5.76c1.93,0,3.851,0,5.771,0c0-3.9,0-7.8,0-11.7c3.84,0,7.68,0,11.51,0c0-1.92,0-3.84,0-5.76c0.55,0,1.09,0,1.63,0
	c0.48,0,0.96,0,1.44,0c0.96,0,1.92,0,2.88,0s1.92,0,2.88,0s1.92,0,2.88,0c0,1.92,0,3.84,0,5.76c1.92,0,3.84,0,5.75,0
	c1.92,0,3.84,0,5.76,0c0-1.92,0-3.84,0-5.76c-1.92,0-3.84,0-5.76,0c0-0.18,0-0.36,0-0.54c0-1.38,0-2.76,0-4.14c0-0.36,0-0.72,0-1.08
	c0-0.18,0-0.36,0-0.54c0-0.12,0-0.24,0-0.36c0-0.36,0-0.72,0-1.08c0-0.18,0-0.36,0-0.54c0-0.12,0-0.24,0-0.36c0-1.38,0-2.76,0-4.14
	c0-0.36,0-0.72,0-1.08c0-0.18,0-0.36,0-0.54c0-0.12,0-0.24,0-0.36c0-0.36,0-0.72,0-1.08c0-0.18,0-0.36,0-0.54c0-0.12,0-0.24,0-0.36
	c0-0.18,0-0.36,0-0.54c3.84,0,7.689,0,11.53,0c0-1.92,0-3.84,0-5.76c5.76,0,11.51,0,17.27,0c0,1.92,0,3.84,0,5.76
	c1.92,0,3.851,0,5.771,0c0,1.92,0,3.84,0,5.76c5.76,0,11.52,0,17.27,0c0,1.92,0,3.84,0,5.76c1.92,0,3.85,0,5.771,0
	c0,3.84,0,7.68,0,11.52c-1.921,0-3.851,0-5.771,0c0,0.54,0,1.08,0,1.62c0,0.48,0,0.96,0,1.44c0,0.96,0,1.92,0,2.88
	c3.85,0,7.69,0,11.53,0c0-7.74,0-15.48,0-23.22c-1.92,0-3.84,0-5.76,0c0-0.18,0-0.36,0-0.54c0-1.56,0-3.12,0-4.68
	c0-0.18,0-0.36,0-0.54c-1.921,0-3.851,0-5.771,0c0-0.18,0-0.36,0-0.54c0-1.56,0-3.12,0-4.68c0-0.18,0-0.36,0-0.54
	c-1.92,0-3.84,0-5.75,0c0-0.18,0-0.36,0-0.54c0-1.56,0-3.12,0-4.68c0-0.18,0-0.36,0-0.54c-5.76,0-11.52,0-17.29,0
	c0-1.92,0-3.84,0-5.76C96.18,0,88.5,0,80.81,0c0,1.92,0,3.84,0,5.76c-0.17,0-0.35,0-0.54,0c-3.649,0-7.31,0-10.97,0
	c0,1.92,0,3.84,0,5.76c-0.96,0-1.92,0-2.88,0c-0.49,0-0.96,0-1.45,0c-0.54,0-1.08,0-1.62,0c0,3.84,0,7.68,0,11.52
	c0.96,0,1.92,0,2.89,0c0.48,0,0.961,0,1.44,0c0.54,0,1.08,0,1.62,0c0,1.92,0,3.84,0,5.76c-7.75,0-15.49,0-23.22,0
	c0,1.92,0,3.84,0,5.76c-1.92,0-3.841,0-5.771,0c0,1.92,0,3.84,0,5.76c-0.17,0-0.35,0-0.54,0c-0.77,0-1.55,0-2.34,0
	c-0.17,0-0.35,0-0.54,0c-0.17,0-0.35,0-0.54,0c-0.42,0-0.84,0-1.26,0c-0.17,0-0.351,0-0.54,0c0,3.9,0,7.8,0,11.7
	c-0.12,0-0.24,0-0.35,0c-1.391,0-2.771,0-4.15,0c-1.43,0-2.87,0-4.311,0c-1.39,0-2.77,0-4.149,0c-1.43,0-2.87,0-4.32,0
	c0,1.92,0,3.84,0,5.76c-1.92,0-3.84,0-5.76,0c0,1.92,0,3.84,0,5.76c-0.17,0-0.35,0-0.54,0c-0.17,0-0.35,0-0.54,0
	c-0.17,0-0.35,0-0.54,0c-0.17,0-0.35,0-0.54,0c-0.229,0-0.47,0-0.71,0c-0.18,0-0.37,0-0.55,0c-0.17,0-0.351,0-0.54,0
	c-0.41,0-0.83,0-1.25,0c-0.18,0-0.37,0-0.54,0c0,1.92,0,3.84,0,5.76c-0.18,0-0.37,0-0.54,0c-0.18,0-0.37,0-0.54,0
	c-0.18,0-0.37,0-0.54,0c-0.42,0-0.84,0-1.26,0c-0.18,0-0.37,0-0.54,0c-0.18,0-0.37,0-0.54,0c-0.18,0-0.37,0-0.54,0
	c-0.25,0-0.49,0-0.72,0c-0.19,0-0.36,0-0.54,0c0,7.68,0,15.361,0,23.041c1.92,0,3.84,0,5.76,0c0,0.18,0,0.359,0,0.539
	c0,0.361,0,0.721,0,1.08c0,0.42,0,0.84,0,1.261c0,0.36,0,0.72,0,1.079c0,0.181,0,0.361,0,0.541c0,0.24,0,0.479,0,0.72
	c0,0.181,0,0.36,0,0.54c3.83,0,7.67,0,11.51,0c0,0.18,0,0.359,0,0.54c0,0.84,0,1.68,0,2.521c0,0.42,0,0.84,0,1.26
	c0,0.18,0,0.359,0,0.539c0.01,0.24,0,0.48,0,0.721c0,0.061,0,0.119,0,0.18c-0.18,0-0.35,0-0.53,0c-0.779,0-1.56,0-2.35,0
	c-0.77,0-1.55,0-2.34,0c-0.17,0-0.35,0-0.54,0c0,3.84,0,7.68,0,11.52c1.92,0,3.84,0,5.76,0c0.01,0.961,0,1.92,0,2.881
	c0,0.48,0.01,0.96,0,1.439c0,0.24,0,0.48,0,0.721c0,0.119,0,0.24,0,0.359c0,0.18,0,0.36,0,0.54c1.931,0,3.851,0,5.771,0
	c0,0.181,0,0.36,0,0.54c0,0.36,0,0.721,0,1.08c0,0.42,0,0.84,0,1.26c0,0.36,0,0.721,0,1.08c0,0.18,0,0.36,0,0.54
	c0,0.24,0,0.479,0,0.72c0,0.181,0,0.36,0,0.541c0.18,0,0.35,0,0.54,0c0.18,0,0.35,0,0.54,0c0.18,0,0.35,0,0.54,0
	c0.18,0,0.35,0,0.54,0c0.18,0,0.35,0,0.539,0c0.181,0,0.351,0,0.53,0c0.19,0,0.37,0,0.54,0c0.19,0,0.37,0,0.54,0
	c0.19,0,0.37,0,0.54,0c0.19,0,0.37,0,0.54,0c0.19,0,0.37,0,0.54,0c0.19,0,0.37,0,0.54,0c0.19,0,0.37,0,0.54,0c0.189,0,0.37,0,0.54,0
	c0.18,0,0.37,0,0.55,0c0.17,0,0.36,0,0.54,0c0.17,0,0.36,0,0.54,0c0.17,0,0.36,0,0.54,0c0.17,0,0.36,0,0.54,0c0.17,0,0.36,0,0.54,0
	c0.17,0,0.36,0,0.54,0c0.17,0,0.359,0,0.54,0c0.17,0,0.35,0,0.54,0c0.18,0,0.35,0,0.54,0c0.18,0,0.35,0,0.54,0c0.18,0,0.35,0,0.54,0
	c0.18,0,0.35,0,0.54,0c0.18,0,0.35,0,0.54,0c0.72,0,1.43,0,2.149,0c0,3.84,0,7.68,0,11.52c1.93,0,3.851,0,5.771,0
	c0,3.84,0,7.68,0,11.52c1.92,0,3.84,0,5.76,0c0,1.92,0,3.84,0,5.76c3.84,0,7.67,0,11.51,0c0,0.181,0,0.361,0,0.541
	c0,0.359,0,0.72,0,1.08c0,0.42,0,0.84,0,1.26c0,0.359,0,0.72,0,1.08c0,0.18,0,0.359,0,0.539c0,0.24,0,0.48,0,0.721
	c0,0.18,0,0.359,0,0.54c0.19,0,0.37,0,0.54,0c0.19,0,0.37,0,0.54,0c0.37,0,0.73,0,1.08,0c0.19,0,0.37,0,0.54,0
	c0.189,0,0.37,0,0.54,0c0.37,0,0.72,0,1.09,0c0.17,0,0.36,0,0.54,0c0.17,0,0.36,0,0.54,0c0.36,0,0.71,0,1.08,0c0.17,0,0.36,0,0.54,0
	c0.17,0,0.359,0,0.54,0c0.35,0,0.72,0,1.08,0c0.18,0,0.35,0,0.54,0c0.18,0,0.35,0,0.54,0c0.35,0,0.72,0,1.08,0c0.18,0,0.35,0,0.54,0
	c0.18,0,0.35,0,0.539,0c0.351,0,0.721,0,1.07,0c0.19,0,0.37,0,0.54,0c0.19,0,0.37,0,0.54,0c0.37,0,0.73,0,1.08,0
	c0.37,0,0.73,0,1.08,0c0.189,0,0.37,0,0.54,0c0.25,0,0.49,0,0.72,0c0-1.92,0-3.841,0-5.761c0.19,0,0.37,0,0.54,0
	c0.42,0,0.851,0,1.271,0c0.47,0,0.96,0,1.43,0c0.42,0,0.84,0,1.26,0c0.49,0,0.96,0,1.45,0c0.9,0,1.79,0,2.7,0c0.96,0,1.92,0,2.88,0
	c0-3.84,0-7.68,0-11.52c1.92,0,3.84,0,5.75,0c0,0.18,0,0.36,0,0.54c0,0.78,0,1.56,0,2.341c0,0.18,0,0.359,0,0.539s0,0.36,0,0.54
	c0,0.421,0,0.841,0,1.261c0,0.18,0,0.359,0,0.539c7.68,0,15.37,0,23.05,0c0-1.92,0-3.84,0-5.76c0.17,0,0.36,0,0.54,0
	c0.17,0,0.36,0,0.54,0c0.36,0,0.71,0,1.08,0c0.17,0,0.36,0,0.54,0c0.17,0,0.36,0,0.54,0c0.359,0,0.71,0,1.08,0c0.18,0,0.35,0,0.54,0
	c0.18,0,0.35,0,0.54,0c0.35,0,0.72,0,1.08,0c0.18,0,0.35,0,0.54,0c0.18,0,0.35,0,0.54,0c0.35,0,0.72,0,1.069,0c0.19,0,0.37,0,0.54,0
	c0.19,0,0.37,0,0.54,0c0.37,0,0.73,0,1.08,0c0.19,0,0.37,0,0.54,0c0.19,0,0.37,0,0.54,0c0.37,0,0.729,0,1.08,0c0.18,0,0.37,0,0.55,0
	c0.17,0,0.36,0,0.54,0c0.36,0,0.71,0,1.08,0c0.17,0,0.36,0,0.54,0c0.17,0,0.36,0,0.54,0c0.36,0,0.71,0,1.08,0c0-1.92,0-3.84,0-5.76
	c0.17,0,0.35,0,0.54,0c1.62,0,3.24,0,4.85,0c0.19,0,0.37,0,0.54,0c0-3.84,0-7.68,0-11.52c1.92,0,3.851,0,5.771,0
	c0-1.92,0-3.84,0-5.761c0.18,0,0.35,0,0.54,0c0.42,0,0.84,0,1.26,0c0.47,0,0.96,0,1.43,0c0.42,0,0.851,0,1.271,0
	c0.47,0,0.96,0,1.43,0c1.87,0,3.72,0,5.59,0c0-0.96,0-1.92,0-2.88c0-0.48,0-0.96,0-1.439c0-0.24,0-0.48,0-0.721
	c0-0.119,0-0.24,0-0.359c0-0.18,0-0.36,0-0.541c0.17,0,0.36,0,0.54,0c1.56,0,3.12,0,4.67,0c0.19,0,0.37,0,0.54,0
	c0-3.84,0-7.68,0-11.52c-1.92,0-3.84,0-5.75,0c0,1.92,0,3.84,0,5.76c-1.92,0-3.84,0-5.76,0c0,1.92,0,3.84,0,5.76
	C155.7,115.379,155.51,115.379,155.34,115.379z"/>
<path fill="#E2F4FC" d="M126.89,92.34c-1.729,0-3.47,0-5.21,0c-0.18,0-0.37,0-0.54,0c0,1.92,0,3.84,0,5.76c1.91,0,3.83,0,5.75,0
	c0,1.92,0,3.84,0,5.76c1.92,0,3.85,0,5.771,0c0-3.66,0-7.32,0-10.98c0-0.18,0-0.359,0-0.539c-0.07,0-0.12,0-0.19,0
	c-0.17,0-0.35,0-0.54,0c-0.12,0-0.229,0-0.35,0c-0.24,0-0.49,0-0.73,0c-0.229,0-0.47,0-0.71,0c-0.18,0-0.37,0-0.55,0
	c-0.47,0-0.95,0-1.43,0C127.739,92.34,127.31,92.34,126.89,92.34z"/>
<path fill="#E2F4FC" d="M138.42,46.26c0,1.92,0,3.84,0,5.76c3.89,0,7.8,0,11.7,0c0,1.92,0,3.84,0,5.76c3.84,0,7.68,0,11.52,0
	c0,1.92,0,3.84,0,5.76c1.91,0,3.83,0,5.75,0c0,3.84,0,7.68,0,11.52c-1.92,0-3.84,0-5.75,0c0,3.84,0,7.681,0,11.521
	c1.91,0,3.83,0,5.75,0c0,1.439,0,2.879,0,4.319s0,2.88,0,4.32s0,2.88,0,4.319c0,1.44,0,2.881,0,4.32c1.92,0,3.85,0,5.771,0
	c0-1.92,0-3.84,0-5.76c0.18,0,0.35,0,0.54,0c1.56,0,3.109,0,4.68,0c0.17,0,0.359,0,0.54,0c0-3.84,0-7.68,0-11.52
	c-1.92,0-3.84,0-5.76,0c0-0.121,0-0.24,0-0.36c0-1.38,0-2.761,0-4.14c0-1.44,0-2.88,0-4.32c0-1.38,0-2.76,0-4.14
	c0-1.44,0-2.88,0-4.32c1.92,0,3.84,0,5.76,0c0-3.84,0-7.68,0-11.52c-1.92,0-3.84,0-5.76,0c0-1.92,0-3.84,0-5.76
	c-3.851,0-7.69,0-11.521,0c0-1.92,0-3.84,0-5.76C153.89,46.26,146.16,46.26,138.42,46.26z"/>
<path fill="#A6CDED" d="M145.62,80.82c-1.44,0-2.881,0-4.32,0c-2.88,0-5.76,0-8.64,0c0,1.921,0,3.841,0,5.761c1.92,0,3.84,0,5.76,0
	c0,1.92,0,3.84,0,5.76c0.05,0,0.12,0,0.17,0c0.25,0,0.49,0,0.72,0c0.24,0,0.49,0,0.73,0c0.47,0,0.96,0,1.43,0c0.96,0,1.92,0,2.88,0
	c0-1.92,0-3.84,0-5.76c1.92,0,3.851,0,5.771,0c0-1.74,0-3.48,0-5.221c0-0.18,0-0.36,0-0.54c-0.07,0-0.12,0-0.19,0
	c-0.71,0-1.43,0-2.16,0c-0.18,0-0.35,0-0.53,0c-0.189,0-0.359,0-0.539,0c-0.19,0-0.36,0-0.54,0
	C145.97,80.82,145.8,80.82,145.62,80.82z"/>
</svg>
