<?xml version="1.0" encoding="utf-8"?>
<!-- Generator: Adobe Illustrator 15.0.0, SVG Export Plug-In  -->
<!DOCTYPE svg PUBLIC "-//W3C//DTD SVG 1.1//EN" "http://www.w3.org/Graphics/SVG/1.1/DTD/svg11.dtd" [
	<!ENTITY ns_flows "http://ns.adobe.com/Flows/1.0/">
]>
<svg version="1.1"
	 xmlns="http://www.w3.org/2000/svg" xmlns:xlink="http://www.w3.org/1999/xlink" xmlns:a="http://ns.adobe.com/AdobeSVGViewerExtensions/3.0/"
	 x="0px" y="0px" width="200px" height="200px" viewBox="-9.69 -24.39 200 200" enable-background="new -9.69 -24.39 200 200"
	 xml:space="preserve">
<defs>
</defs>
<path fill="#E2F4FC" d="M11.7,69.3c0,3.84,0,7.68,0,11.52c1.92,0,3.84,0,5.76,0c0-3.84,0-7.68,0-11.52
	C15.54,69.3,13.62,69.3,11.7,69.3z"/>
<path fill="#E2F4FC" d="M17.46,57.78c0,3.84,0,7.68,0,11.52c1.91,0,3.84,0,5.76,0c0-1.92,0-3.84,0-5.76c0.17,0,0.36,0,0.541,0
	c1.379,0,2.76,0,4.129,0c0.371,0,0.73,0,1.09,0c0.181,0,0.36,0,0.541,0c0.119,0,0.24,0,0.35,0c0.37,0,0.73,0,1.09,0
	c0.18,0,0.359,0,0.54,0c0.12,0,0.24,0,0.351,0c1.39,0,2.77,0,4.149,0c0.351,0,0.72,0,1.08,0c0.181,0,0.36,0,0.54,0
	c0.12,0,0.23,0,0.359,0c0.36,0,0.721,0,1.08,0c0.181,0,0.351,0,0.541,0c0.119,0,0.229,0,0.359,0c0.18,0,0.359,0,0.54,0
	c0-1.92,0-3.84,0-5.76c1.91,0,3.83,0,5.761,0c0-4.86,0-9.72,0-14.58c0-1.2,0-2.4,0-3.6c0-0.18,0-0.36,0-0.54c0-0.12,0-0.24,0-0.36
	c0-0.18,0-0.36,0-0.54c0-0.12,0-0.24,0-0.36c0-0.6,0-1.2,0-1.8c0-0.18,0-0.36,0-0.54c0-0.12,0-0.24,0-0.36c0-0.18,0-0.36,0-0.54
	c0-0.12,0-0.24,0-0.36c0-0.6,0-1.2,0-1.8c0-0.18,0-0.36,0-0.54c0-0.12,0-0.24,0-0.36c0-0.18,0-0.36,0-0.54c0-0.12,0-0.24,0-0.36
	c0-0.18,0-0.36,0-0.54c0-0.12,0-0.24,0-0.36c0-0.18,0-0.36,0-0.54c0-0.12,0-0.24,0-0.36c1.92,0,3.84,0,5.76,0c0-1.92,0-3.84,0-5.76
	c1.92,0,3.83,0,5.76,0c0-1.92,0-3.84,0-5.76c1.92,0,3.84,0,5.76,0c0-1.92,0-3.84,0-5.76c0.18,0,0.35,0,0.54,0
	c5.46,0,10.92,0,16.38,0c0.18,0,0.359,0,0.54,0c0-1.92,0-3.84,0-5.76c1.91,0,3.83,0,5.761,0c0-0.96,0-1.92,0-2.88s0-1.92,0-2.88
	C82.91,0,79.08,0,75.24,0c-1.921,0-3.851,0-5.761,0c-0.959,0-1.92,0-2.879,0c-0.48,0-0.961,0-1.44,0c-0.54,0-1.08,0-1.62,0
	c0,0.24,0,0.48,0,0.72c0,0.24,0,0.48,0,0.72c0,0.48,0,0.96,0,1.44c0,0.96,0,1.92,0,2.88c-1.92,0-3.84,0-5.76,0c0,1.92,0,3.84,0,5.76
	c-1.93,0-3.84,0-5.76,0c0,1.92,0,3.84,0,5.76c-3.84,0-7.69,0-11.521,0c0,1.92,0,3.84,0,5.76c-1.92,0-3.84,0-5.76,0
	c0,0.6,0,1.2,0,1.8c0,0.12,0,0.24,0,0.36c0,0.18,0,0.36,0,0.54c0,0.12,0,0.24,0,0.36c0,0.18,0,0.36,0,0.54c0,0.6,0,1.2,0,1.8
	c0,0.12,0,0.24,0,0.36c0,0.18,0,0.36,0,0.54c0,0.12,0,0.24,0,0.36c0,0.18,0,0.36,0,0.54c0,0.12,0,0.24,0,0.36c0,0.18,0,0.36,0,0.54
	c0,0.12,0,0.24,0,0.36c0,0.18,0,0.36,0,0.54c0,0.12,0,0.24,0,0.36c0,0.18,0,0.36,0,0.54c0,0.12,0,0.24,0,0.36c0,0.18,0,0.36,0,0.54
	c0,0.6,0,1.2,0,1.8c0,0.12,0,0.24,0,0.36c0,0.18,0,0.36,0,0.54c0,0.12,0,0.24,0,0.36c0,0.18,0,0.36,0,0.54c0,0.6,0,1.2,0,1.8
	c0,0.12,0,0.24,0,0.36c0,0.18,0,0.36,0,0.54c0,0.3,0,0.6,0,0.9c0,1.2,0,2.4,0,3.6c0,2.46,0,4.92,0,7.38c-1.921,0-3.851,0-5.761,0
	c0,1.92,0,3.84,0,5.76C25.14,57.78,21.3,57.78,17.46,57.78z"/>
<path fill="#CDE9F9" d="M23.22,63.54c0,1.92,0,3.84,0,5.76c-1.92,0-3.85,0-5.76,0c0,3.84,0,7.68,0,11.52c-1.92,0-3.84,0-5.76,0
	c0,2.88,0,5.761,0,8.64c0,2.881,0,5.76,0,8.641c1.92,0,3.84,0,5.76,0c0,3.9,0,7.8,0,11.699c3.84,0,7.68,0,11.52,0
	c0,1.92,0,3.84,0,5.761c1.91,0,3.84,0,5.761,0c0,1.92,0,3.84,0,5.76c3.84,0,7.67,0,11.521,0c0,1.92,0,3.84,0,5.761
	c2.879,0,5.76,0,8.629,0c2.891,0,5.771,0,8.65,0c0,1.92,0,3.84,0,5.76c4.8,0,9.6,0,14.4,0c2.39,0,4.8,0,7.199,0
	c2.34,0,4.68,0,7.021,0c0.12,0,0.229,0,0.359,0c0-3.84,0-7.681,0-11.521c3.83,0,7.681,0,11.521,0c0,1.92,0,3.84,0,5.761
	c2.87,0,5.76,0,8.64,0c1.44,0,2.88,0,4.32,0c0.72,0,1.439,0,2.16,0c0.359,0,0.71,0,1.08,0c0.17,0,0.359,0,0.54,0
	c0.18,0,0.359,0,0.539,0c0,1.92,0,3.84,0,5.76c2.881,0,5.761,0,8.641,0s5.76,0,8.64,0c0-1.92,0-3.84,0-5.76c0.54,0,1.08,0,1.62,0
	c0.48,0,0.96,0,1.44,0c0.96,0,1.92,0,2.88,0c0-1.921,0-3.841,0-5.761c1.92,0,3.83,0,5.76,0c0-3.84,0-7.681,0-11.521
	c1.92,0,3.84,0,5.76,0c0-1.92,0-3.84,0-5.76c1.92,0,3.83,0,5.76,0c0-3.9,0-7.8,0-11.699c1.921,0,3.841,0,5.761,0
	c0-1.92,0-3.84,0-5.76c-1.92,0-3.84,0-5.761,0c0-0.181,0-0.361,0-0.541c0-0.72,0-1.439,0-2.16c0-0.18,0-0.359,0-0.539
	c0-0.181,0-0.36,0-0.541c0-0.18,0-0.359,0-0.539c0-0.121,0-0.24,0-0.36c0-0.181,0-0.36,0-0.54s0-0.359,0-0.54s0-0.36,0-0.54
	c0-0.12,0-0.24,0-0.359c0-0.181,0-0.36,0-0.541c0-0.18,0-0.359,0-0.539c0-0.181,0-0.36,0-0.541c0-0.119,0-0.239,0-0.359
	c0-0.721,0-1.44,0-2.16c0-0.18,0-0.36,0-0.54c0-0.18,0-0.36,0-0.54c0-0.18,0-0.36,0-0.54c0-0.12,0-0.24,0-0.36c0-0.18,0-0.36,0-0.54
	c0-0.18,0-0.36,0-0.54c0-0.18,0-0.36,0-0.54c0-0.12,0-0.24,0-0.36c0-0.18,0-0.36,0-0.54c0-0.18,0-0.36,0-0.54c0-0.18,0-0.36,0-0.54
	c0-0.12,0-0.24,0-0.36c0-0.18,0-0.36,0-0.54c-3.84,0-7.68,0-11.52,0c0,1.92,0,3.84,0,5.76c-0.18,0-0.36,0-0.54,0
	c-1.44,0-2.89,0-4.32,0c-1.38,0-2.76,0-4.14,0c-1.39,0-2.76,0-4.14,0c-0.721,0-1.44,0-2.16,0c-0.36,0-0.72,0-1.09,0
	c-0.17,0-0.351,0-0.54,0c-0.17,0-0.351,0-0.53,0c0-2.88,0-5.76,0-8.64c0-1.44,0-2.88,0-4.32c0-0.72,0-1.44,0-2.16
	c0-0.36,0-0.72,0-1.08c0-0.18,0-0.36,0-0.54s0-0.36,0-0.54c1.92,0,3.84,0,5.76,0c0-2.88,0-5.76,0-8.64c0-2.88,0-5.76,0-8.64
	c-1.92,0-3.84,0-5.76,0c0-0.18,0-0.36,0-0.54c0-0.12,0-0.24,0-0.36c0-0.24,0-0.48,0-0.72c0-0.48,0-0.96,0-1.44c0-0.96,0-1.92,0-2.88
	c0-1.92,0-3.84,0-5.76c-1.93,0-3.84,0-5.76,0c0-1.92,0-3.84,0-5.76c-7.69,0-15.36,0-23.04,0c0-1.92,0-3.84,0-5.76
	c-1.92,0-3.84,0-5.76,0c0-1.92,0-3.84,0-5.76c-3.841,0-7.68,0-11.52,0c0-1.92,0-3.84,0-5.76c-1.931,0-3.851,0-5.761,0
	c0,1.92,0,3.84,0,5.76c-0.181,0-0.36,0-0.54,0c-5.46,0-10.92,0-16.38,0c-0.19,0-0.36,0-0.54,0c0,1.92,0,3.84,0,5.76
	c-1.92,0-3.84,0-5.76,0c0,1.92,0,3.84,0,5.76c-1.93,0-3.84,0-5.76,0c0,1.92,0,3.84,0,5.76c-1.92,0-3.84,0-5.76,0
	c0,0.12,0,0.24,0,0.36c0,0.18,0,0.36,0,0.54c0,0.12,0,0.24,0,0.36c0,0.18,0,0.36,0,0.54c0,0.12,0,0.24,0,0.36c0,0.18,0,0.36,0,0.54
	c0,0.12,0,0.24,0,0.36c0,0.18,0,0.36,0,0.54c0,0.6,0,1.2,0,1.8c0,0.12,0,0.24,0,0.36c0,0.18,0,0.36,0,0.54c0,0.12,0,0.24,0,0.36
	c0,0.18,0,0.36,0,0.54c0,0.6,0,1.2,0,1.8c0,0.12,0,0.24,0,0.36c0,0.18,0,0.36,0,0.54c0,0.12,0,0.24,0,0.36c0,0.18,0,0.36,0,0.54
	c0,1.2,0,2.4,0,3.6c0,4.86,0,9.72,0,14.58c1.92,0,3.84,0,5.76,0c0-3.84,0-7.68,0-11.52c1.92,0,3.83,0,5.76,0c0-1.92,0-3.84,0-5.76
	c1.92,0,3.84,0,5.76,0c0-1.92,0-3.84,0-5.76c0-0.96,0-1.92,0-2.88c0-0.48,0-0.96,0-1.44s0-0.96,0-1.44c0-0.06,0-0.12,0-0.18
	c1.92,0,3.83,0,5.76,0c0-1.92,0-3.84,0-5.76c3.84,0,7.68,0,11.52,0c1.921,0,3.841,0,5.761,0c0.96,0,1.92,0,2.88,0
	c0.48,0,0.95,0,1.43,0c0.25,0,0.48,0,0.73,0c0.229,0,0.479,0,0.72,0c0.05,0,0.12,0,0.18,0c0,1.92,0,3.84,0,5.76
	c1.92,0,3.83,0,5.761,0c0,0.54,0,1.08,0,1.62c0,0.48,0,0.96,0,1.44c0,0.96,0,1.92,0,2.88c1.92,0,3.84,0,5.76,0
	c7.68,0,15.35,0,23.04,0c0,3.84,0,7.68,0,11.52c0,1.92,0,3.84,0,5.76c0,0.96,0,1.92,0,2.88c0,0.48,0,0.96,0,1.44
	c0,0.42,0,0.84,0,1.26c0,0.06,0,0.12,0,0.18c-1.92,0-3.84,0-5.761,0c0,2.88,0,5.76,0,8.64s0,5.76,0,8.64c0,2.88,0,5.76,0,8.64
	c0,2.881,0,5.76,0,8.641c-1.93,0-3.84,0-5.76,0c0,3.899,0,7.799,0,11.699c1.92,0,3.83,0,5.76,0c0-1.979,0-3.959,0-5.939
	c1.921,0,3.841,0,5.761,0c0,1.98,0,3.96,0,5.939c1.92,0,3.83,0,5.76,0c0,0.18,0,0.36,0,0.541c0,1.739,0,3.479,0,5.219
	c-1.93,0-3.84,0-5.76,0c0,1.92,0,3.84,0,5.761c-0.19,0-0.36,0-0.54,0c-1.74,0-3.48,0-5.221,0c0-1.921,0-3.841,0-5.761
	c-1.93,0-3.84,0-5.76,0c0-1.92,0-3.84,0-5.76c-1.92,0-3.84,0-5.76,0c0,1.92,0,3.84,0,5.76c-0.18,0-0.36,0-0.54,0
	c-1.44,0-2.89,0-4.32,0c-0.72,0-1.439,0-2.159,0c-0.66,0-1.32,0-1.98,0c-2.76,0-5.52,0-8.28,0c0,1.92,0,3.84,0,5.761
	c-0.54,0-1.08,0-1.629,0c-0.48,0-0.95,0-1.43,0c-0.96,0-1.92,0-2.88,0c-1.92,0-3.84,0-5.761,0c-3.84,0-7.68,0-11.52,0
	c0,1.92,0,3.84,0,5.76c-1.93,0-3.84,0-5.76,0c0-3.84,0-7.681,0-11.521c-1.92,0-3.84,0-5.76,0c0-1.92,0-3.84,0-5.76
	c0-1.979,0-3.959,0-5.939c-1.93,0-3.84,0-5.76,0c0,1.98,0,3.96,0,5.939c-1.92,0-3.84,0-5.76,0c0-3.9,0-7.8,0-11.699
	c1.92,0,3.84,0,5.76,0c0-1.92,0-3.84,0-5.76c-1.92,0-3.84,0-5.76,0c-3.851,0-7.681,0-11.521,0c0-1.921,0-3.841,0-5.761
	c1.92,0,3.84,0,5.76,0c0-1.92,0-3.84,0-5.76c1.91,0,3.83,0,5.761,0c0-2.88,0-5.76,0-8.64s0-5.76,0-8.64c-1.931,0-3.851,0-5.761,0
	c0,1.92,0,3.84,0,5.76c-0.181,0-0.36,0-0.54,0c-0.13,0-0.24,0-0.359,0c-0.19,0-0.36,0-0.541,0c-0.359,0-0.72,0-1.08,0
	c-0.129,0-0.239,0-0.359,0c-0.18,0-0.359,0-0.54,0c-0.36,0-0.729,0-1.08,0c-1.38,0-2.76,0-4.149,0c-0.11,0-0.23,0-0.351,0
	c-0.181,0-0.36,0-0.54,0c-0.359,0-0.72,0-1.09,0c-0.109,0-0.23,0-0.35,0c-0.181,0-0.36,0-0.541,0c-0.359,0-0.719,0-1.09,0
	c-1.369,0-2.75,0-4.129,0C23.58,63.54,23.39,63.54,23.22,63.54z"/>
<path fill="#A6CDED" d="M34.74,80.82c0,1.92,0,3.84,0,5.761c3.84,0,7.67,0,11.521,0c0-3.841,0-7.681,0-11.521
	c-1.931,0-3.851,0-5.761,0c0,1.92,0,3.84,0,5.76C38.58,80.82,36.66,80.82,34.74,80.82z"/>
<path fill="#A6CDED" d="M46.261,92.34c0,3.899,0,7.799,0,11.699c1.92,0,3.84,0,5.76,0c0-1.979,0-3.959,0-5.939c0-1.92,0-3.84,0-5.76
	C50.101,92.34,48.181,92.34,46.261,92.34z"/>
<path fill="#232034" d="M46.261,75.06c0,3.84,0,7.68,0,11.521c1.92,0,3.84,0,5.76,0c0-3.841,0-7.681,0-11.521c0-1.92,0-3.84,0-5.76
	s0-3.84,0-5.76c0-1.92,0-3.84,0-5.76c-1.92,0-3.84,0-5.76,0c0,2.88,0,5.76,0,8.64S46.261,72.18,46.261,75.06z"/>
<path fill="#232034" d="M52.021,92.34c0,1.92,0,3.84,0,5.76c1.92,0,3.83,0,5.76,0c0-1.92,0-3.84,0-5.76s0-3.84,0-5.76
	c-1.93,0-3.84,0-5.76,0C52.021,88.5,52.021,90.42,52.021,92.34z"/>
<path fill="#90BEE6" d="M52.021,69.3c0,1.92,0,3.84,0,5.76c1.92,0,3.83,0,5.76,0c0-1.92,0-3.84,0-5.76
	C55.851,69.3,53.94,69.3,52.021,69.3z"/>
<path fill="#010101" d="M52.021,63.54c0,1.92,0,3.84,0,5.76c1.92,0,3.83,0,5.76,0c0,1.92,0,3.84,0,5.76c1.92,0,3.84,0,5.76,0
	c0-3.84,0-7.68,0-11.52c-1.92,0-3.84,0-5.76,0C55.851,63.54,53.94,63.54,52.021,63.54z"/>
<path fill="#C0BFBF" d="M52.021,57.78c0,1.92,0,3.84,0,5.76c1.92,0,3.83,0,5.76,0c0-1.92,0-3.84,0-5.76
	C55.851,57.78,53.94,57.78,52.021,57.78z"/>
<path fill="#232034" d="M52.021,46.26c0,3.84,0,7.68,0,11.52c1.92,0,3.83,0,5.76,0c0-1.92,0-3.84,0-5.76s0-3.84,0-5.76
	C55.851,46.26,53.94,46.26,52.021,46.26z"/>
<path fill="#A6CDED" d="M57.78,104.04c0,1.92,0,3.84,0,5.76c1.92,0,3.84,0,5.76,0c0-1.92,0-3.84,0-5.76
	C61.62,104.04,59.7,104.04,57.78,104.04z"/>
<path fill="#232034" d="M57.78,98.1c0,1.98,0,3.96,0,5.939c1.92,0,3.84,0,5.76,0c0-1.979,0-3.959,0-5.939
	C61.62,98.1,59.7,98.1,57.78,98.1z"/>
<path fill="#F0EFEF" d="M57.78,92.34c0,1.92,0,3.84,0,5.76c1.92,0,3.84,0,5.76,0c0-1.92,0-3.84,0-5.76
	C61.62,92.34,59.7,92.34,57.78,92.34z"/>
<path fill="#010101" d="M57.78,86.581c0,1.92,0,3.84,0,5.76c1.92,0,3.84,0,5.76,0c0-1.92,0-3.84,0-5.76
	C61.62,86.581,59.7,86.581,57.78,86.581z"/>
<path fill="#C0BFBF" d="M57.78,46.26c0,1.92,0,3.84,0,5.76c1.92,0,3.84,0,5.76,0c0-1.92,0-3.84,0-5.76
	C61.62,46.26,59.7,46.26,57.78,46.26z"/>
<path fill="#232034" d="M57.78,40.5c0,1.92,0,3.84,0,5.76c1.92,0,3.84,0,5.76,0s3.83,0,5.76,0c0-1.92,0-3.84,0-5.76
	c-1.93,0-3.84,0-5.76,0S59.7,40.5,57.78,40.5z"/>
<path fill="#232034" d="M63.54,104.04c0,1.92,0,3.84,0,5.76c4.85,0,9.721,0,14.58,0c1.199,0,2.4,0,3.6,0c1.19,0,2.4,0,3.6,0
	c0.591,0,1.201,0,1.801,0c0.18,0,0.359,0,0.54,0c0.12,0,0.23,0,0.36,0c0.18,0,0.35,0,0.54,0c0.12,0,0.24,0,0.35,0
	c0.19,0,0.37,0,0.55,0c0.12,0,0.24,0,0.36,0c0.18,0,0.36,0,0.53,0c0.13,0,0.25,0,0.37,0c0.17,0,0.36,0,0.54,0c0.11,0,0.24,0,0.36,0
	c0.18,0,0.359,0,0.54,0c0.12,0,0.229,0,0.359,0c0-1.92,0-3.84,0-5.76c-1.919,0-3.839,0-5.759,0c-3.851,0-7.681,0-11.521,0
	C71.33,104.04,67.44,104.04,63.54,104.04z"/>
<path fill="#010101" d="M63.54,92.34c0,1.92,0,3.84,0,5.76c1.92,0,3.83,0,5.76,0c0-1.92,0-3.84,0-5.76
	C67.37,92.34,65.46,92.34,63.54,92.34z"/>
<path fill="#010101" d="M63.54,75.06c0,1.92,0,3.84,0,5.76c0.24,0,0.48,0,0.721,0c0.239,0,0.479,0,0.719,0c0.41,0,0.84,0,1.261,0
	c0.84,0,1.67,0,2.521,0c0.18,0,0.359,0,0.539,0c0-1.92,0-3.84,0-5.76C67.37,75.06,65.46,75.06,63.54,75.06z"/>
<path fill="#A6CDED" d="M63.54,31.86c0,0.96,0,1.92,0,2.88c0,1.92,0,3.84,0,5.76c1.92,0,3.83,0,5.76,0c0-1.92,0-3.84,0-5.76
	c4.86,0,9.721,0,14.57,0c0.609,0,1.21,0,1.811,0c0.6,0,1.189,0,1.799,0c0.181,0,0.36,0,0.541,0c0.12,0,0.24,0,0.35,0
	c0.19,0,0.37,0,0.54,0c0.13,0,0.25,0,0.37,0c0.18,0,0.36,0,0.54,0c0.12,0,0.24,0,0.36,0c0.17,0,0.36,0,0.54,0c0.12,0,0.24,0,0.36,0
	c0.18,0,0.359,0,0.54,0c0.12,0,0.229,0,0.359,0c0.181,0,0.36,0,0.54,0c0.12,0,0.24,0,0.351,0c0.189,0,0.37,0,0.54,0
	c0.13,0,0.25,0,0.37,0c0.18,0,0.359,0,0.539,0c0.12,0,0.24,0,0.36,0c0.17,0,0.36,0,0.54,0c0.12,0,0.24,0,0.36,0
	c0.18,0,0.359,0,0.54,0c0.12,0,0.229,0,0.359,0c0.181,0,0.36,0,0.54,0c0.12,0,0.24,0,0.351,0c0.189,0,0.37,0,0.54,0
	c0.13,0,0.25,0,0.37,0c0-0.96,0-1.92,0-2.88c0-0.48,0-0.96,0-1.44c0-0.54,0-1.08,0-1.62c-1.931,0-3.841,0-5.761,0
	c0-1.92,0-3.84,0-5.76c-0.06,0-0.13,0-0.18,0c-0.24,0-0.49,0-0.72,0c-0.25,0-0.48,0-0.73,0c-0.48,0-0.95,0-1.43,0
	c-0.96,0-1.92,0-2.88,0c-1.92,0-3.84,0-5.761,0c-3.84,0-7.68,0-11.52,0c0,1.92,0,3.84,0,5.76c-1.93,0-3.84,0-5.76,0
	c0,0.06,0,0.12,0,0.18c0,0.48,0,0.96,0,1.44S63.54,31.38,63.54,31.86z"/>
<path fill="#F0EFEF" d="M63.54,80.82c0-1.92,0-3.84,0-5.76c-1.92,0-3.84,0-5.76,0c-1.93,0-3.84,0-5.76,0c0,3.84,0,7.68,0,11.521
	c1.92,0,3.83,0,5.76,0c1.92,0,3.84,0,5.76,0c0,1.92,0,3.84,0,5.76c1.92,0,3.83,0,5.76,0c0-1.92,0-3.84,0-5.76c1.98,0,3.961,0,5.94,0
	c0,1.92,0,3.84,0,5.76c1.92,0,3.84,0,5.76,0c0-1.92,0-3.84,0-5.76c1.91,0,3.83,0,5.761,0c0,1.92,0,3.84,0,5.76
	c-1.931,0-3.851,0-5.761,0c0,1.92,0,3.84,0,5.76c-1.92,0-3.84,0-5.76,0c0-1.92,0-3.84,0-5.76c-1.979,0-3.96,0-5.94,0
	c0,1.92,0,3.84,0,5.76c-1.93,0-3.84,0-5.76,0c0,1.98,0,3.96,0,5.939c3.9,0,7.79,0,11.7,0c3.84,0,7.67,0,11.521,0
	c0-1.979,0-3.959,0-5.939c1.919,0,3.839,0,5.759,0c1.92,0,3.83,0,5.761,0c0-3.84,0-7.68,0-11.52c-1.931,0-3.841,0-5.761,0
	c0-3.841,0-7.681,0-11.521c-1.919,0-3.839,0-5.759,0c-1.931,0-3.851,0-5.761,0c-1.92,0-3.84,0-5.76,0c0-1.92,0-3.84,0-5.76
	c-0.54,0-1.08,0-1.62,0c-0.48,0-0.96,0-1.439,0c-0.961,0-1.92,0-2.881,0c0-1.92,0-3.84,0-5.76c0.54,0,1.07,0,1.61,0
	c0.479,0,0.96,0,1.44,0c0.969,0,1.93,0,2.89,0c2.88,0,5.76,0,8.63,0c2.891,0,5.77,0,8.649,0c0,1.92,0,3.84,0,5.76
	c1.92,0,3.83,0,5.761,0c0-1.92,0-3.84,0-5.76c3.84,0,7.68,0,11.52,0c0-1.92,0-3.84,0-5.76c-1.93,0-3.84,0-5.76,0
	c0-3.84,0-7.68,0-11.52c-1.92,0-3.84,0-5.76,0c0-1.92,0-3.84,0-5.76c-7.68,0-15.37,0-23.04,0c0,1.92,0,3.84,0,5.76
	c-1.979,0-3.96,0-5.94,0c-1.93,0-3.84,0-5.76,0c0,1.92,0,3.84,0,5.76c-1.92,0-3.84,0-5.76,0c0,1.92,0,3.84,0,5.76s0,3.84,0,5.76
	c1.92,0,3.84,0,5.76,0c0,3.84,0,7.68,0,11.52c1.92,0,3.83,0,5.76,0c0,1.92,0,3.84,0,5.76c-0.18,0-0.359,0-0.539,0
	c-0.851,0-1.681,0-2.521,0c-0.421,0-0.851,0-1.261,0c-0.239,0-0.479,0-0.719,0C64.021,80.82,63.78,80.82,63.54,80.82z"/>
<path fill="#010101" d="M69.3,86.581c0,1.92,0,3.84,0,5.76c1.98,0,3.961,0,5.94,0c0-1.92,0-3.84,0-5.76
	C73.261,86.581,71.28,86.581,69.3,86.581z"/>
<path fill="#C0BFBF" d="M69.3,40.5c0,1.92,0,3.84,0,5.76c1.98,0,3.961,0,5.94,0c0-1.92,0-3.84,0-5.76
	C73.261,40.5,71.28,40.5,69.3,40.5z"/>
<path fill="#C0BFBF" d="M75.24,63.54c-0.96,0-1.921,0-2.89,0c-0.48,0-0.961,0-1.44,0c-0.54,0-1.07,0-1.61,0c0,1.92,0,3.84,0,5.76
	c0.961,0,1.92,0,2.881,0c0.479,0,0.959,0,1.439,0c0.54,0,1.08,0,1.62,0C75.24,67.38,75.24,65.46,75.24,63.54z"/>
<path fill="#010101" d="M75.24,92.34c0,1.92,0,3.84,0,5.76c1.92,0,3.84,0,5.76,0c0-1.92,0-3.84,0-5.76
	C79.08,92.34,77.16,92.34,75.24,92.34z"/>
<path fill="#90BEE6" d="M75.24,69.3c0,1.92,0,3.84,0,5.76c1.92,0,3.84,0,5.76,0c0-1.92,0-3.84,0-5.76
	C79.08,69.3,77.16,69.3,75.24,69.3z"/>
<path fill="#010101" d="M75.24,63.54c0,1.92,0,3.84,0,5.76c1.92,0,3.84,0,5.76,0c0,1.92,0,3.84,0,5.76c1.91,0,3.83,0,5.761,0
	c0-1.92,0-3.84,0-5.76c1.919,0,3.839,0,5.759,0c0-1.92,0-3.84,0-5.76c-2.879,0-5.759,0-8.649,0C81,63.54,78.12,63.54,75.24,63.54z"
	/>
<path fill="#010101" d="M81,86.581c0,1.92,0,3.84,0,5.76c1.91,0,3.83,0,5.761,0c0-1.92,0-3.84,0-5.76
	C84.83,86.581,82.91,86.581,81,86.581z"/>
<path fill="#232034" d="M92.87,34.74c-0.11,0-0.23,0-0.351,0c-0.18,0-0.359,0-0.54,0c-0.13,0-0.239,0-0.359,0
	c-0.181,0-0.36,0-0.54,0c-0.12,0-0.24,0-0.36,0c-0.18,0-0.37,0-0.54,0c-0.12,0-0.24,0-0.36,0c-0.18,0-0.36,0-0.54,0
	c-0.12,0-0.24,0-0.37,0c-0.17,0-0.35,0-0.54,0c-0.11,0-0.23,0-0.35,0c-0.18,0-0.36,0-0.541,0c-0.609,0-1.199,0-1.799,0
	c-0.601,0-1.201,0-1.811,0c-4.85,0-9.71,0-14.57,0c0,1.92,0,3.84,0,5.76c1.98,0,3.961,0,5.94,0c7.67,0,15.36,0,23.04,0
	c1.92,0,3.84,0,5.76,0c0-1.92,0-3.84,0-5.76c-1.92,0-3.84,0-5.76,0c-0.12,0-0.24,0-0.37,0c-0.17,0-0.351,0-0.54,0
	c-0.11,0-0.23,0-0.351,0c-0.18,0-0.359,0-0.54,0c-0.13,0-0.239,0-0.359,0c-0.181,0-0.36,0-0.54,0c-0.12,0-0.24,0-0.36,0
	c-0.18,0-0.37,0-0.54,0c-0.12,0-0.24,0-0.36,0c-0.18,0-0.359,0-0.539,0c-0.12,0-0.24,0-0.37,0C93.24,34.74,93.06,34.74,92.87,34.74z
	"/>
<path fill="#A6CDED" d="M88.02,109.799c-0.13,0-0.24,0-0.36,0c-0.181,0-0.36,0-0.54,0c-0.6,0-1.21,0-1.801,0c-1.199,0-2.409,0-3.6,0
	c-1.199,0-2.4,0-3.6,0c-4.859,0-9.73,0-14.58,0c0,3.84,0,7.681,0,11.521c1.92,0,3.83,0,5.76,0c0-1.92,0-3.84,0-5.76
	c3.84,0,7.68,0,11.52,0c1.921,0,3.841,0,5.761,0c0.96,0,1.92,0,2.88,0c0.48,0,0.95,0,1.43,0c0.549,0,1.089,0,1.629,0
	c0-1.921,0-3.841,0-5.761c-0.13,0-0.239,0-0.359,0c-0.181,0-0.36,0-0.54,0c-0.12,0-0.25,0-0.36,0c-0.18,0-0.37,0-0.54,0
	c-0.12,0-0.24,0-0.37,0c-0.17,0-0.35,0-0.53,0c-0.12,0-0.24,0-0.36,0c-0.18,0-0.36,0-0.55,0c-0.11,0-0.23,0-0.35,0
	C88.37,109.799,88.2,109.799,88.02,109.799z"/>
<path fill="#C0BFBF" d="M86.761,98.1c0,1.98,0,3.96,0,5.939c1.919,0,3.839,0,5.759,0c0-0.959,0-1.92,0-2.88c0-0.479,0-0.96,0-1.44
	c0-0.539,0-1.08,0-1.619C90.6,98.1,88.68,98.1,86.761,98.1z"/>
<path fill="#C0BFBF" d="M86.761,69.3c0,1.92,0,3.84,0,5.76c1.919,0,3.839,0,5.759,0c0,3.84,0,7.68,0,11.521c1.92,0,3.83,0,5.761,0
	c0-1.921,0-3.841,0-5.761c1.92,0,3.84,0,5.76,0c0-1.92,0-3.84,0-5.76c1.92,0,3.83,0,5.76,0c0-1.92,0-3.84,0-5.76
	c1.92,0,3.84,0,5.76,0c0-2.88,0-5.76,0-8.64c0-2.88,0-5.76,0-8.64c-1.92,0-3.84,0-5.76,0c0-1.92,0-3.84,0-5.76
	c-1.93,0-3.84,0-5.76,0c0,3.84,0,7.68,0,11.52c1.92,0,3.83,0,5.76,0c0,1.92,0,3.84,0,5.76c-3.84,0-7.68,0-11.52,0
	c0,1.92,0,3.84,0,5.76c-1.931,0-3.841,0-5.761,0C90.6,69.3,88.68,69.3,86.761,69.3z"/>
<path fill="#E2F4FC" d="M86.761,5.76c0,1.92,0,3.84,0,5.76c3.839,0,7.679,0,11.52,0c0,1.92,0,3.84,0,5.76c1.92,0,3.84,0,5.76,0
	c0,1.92,0,3.84,0,5.76c7.68,0,15.35,0,23.04,0c0-1.92,0-3.84,0-5.76c-1.92,0-3.84,0-5.761,0c0-1.92,0-3.84,0-5.76
	c-2.88,0-5.76,0-8.64,0s-5.77,0-8.64,0c0-1.92,0-3.84,0-5.76c-1.44,0-2.88,0-4.32,0c-0.18,0-0.37,0-0.54,0c-0.18,0-0.36,0-0.54,0
	c-0.359,0-0.729,0-1.08,0c-0.189,0-0.359,0-0.54,0c-0.18,0-0.359,0-0.54,0c-0.359,0-0.72,0-1.09,0c-0.17,0-0.35,0-0.54,0
	c-0.17,0-0.35,0-0.53,0c-0.359,0-0.72,0-1.079,0c-0.181,0-0.37,0-0.54,0c-0.181,0-0.36,0-0.54,0c-0.36,0-0.721,0-1.08,0
	c-0.19,0-0.36,0-0.54,0c-0.19,0-0.36,0-0.54,0c-0.36,0-0.72,0-1.09,0c-0.17,0-0.35,0-0.54,0c-0.17,0-0.35,0-0.53,0
	C87.479,5.76,87.12,5.76,86.761,5.76z"/>
<path fill="#E2F4FC" d="M140.22,127.081c-0.54,0-1.08,0-1.62,0c0,1.92,0,3.84,0,5.76c-2.88,0-5.76,0-8.64,0s-5.76,0-8.641,0
	c0-1.92,0-3.84,0-5.76c-0.18,0-0.359,0-0.539,0c-0.181,0-0.37,0-0.54,0c-0.37,0-0.721,0-1.08,0c-0.721,0-1.44,0-2.16,0
	c-1.44,0-2.88,0-4.32,0c-2.88,0-5.77,0-8.64,0c0-1.921,0-3.841,0-5.761c-3.84,0-7.69,0-11.521,0c0,3.84,0,7.681,0,11.521
	c-0.13,0-0.239,0-0.359,0c-2.34,0-4.681,0-7.021,0c-2.399,0-4.81,0-7.199,0c-4.801,0-9.601,0-14.4,0c0-1.92,0-3.84,0-5.76
	c-2.88,0-5.76,0-8.65,0c-2.869,0-5.75,0-8.629,0c0-1.921,0-3.841,0-5.761c-3.851,0-7.681,0-11.521,0c0-1.92,0-3.84,0-5.76
	c-1.921,0-3.851,0-5.761,0c0-1.921,0-3.841,0-5.761c-3.84,0-7.68,0-11.52,0c0-3.899,0-7.799,0-11.699c-1.92,0-3.84,0-5.76,0
	c0-2.881,0-5.76,0-8.641c0-2.879,0-5.76,0-8.64c-1.92,0-3.85,0-5.76,0c0,1.92,0,3.84,0,5.761c-0.961,0-1.92,0-2.881,0
	c-0.479,0-0.959,0-1.439,0c-0.54,0-1.08,0-1.62,0c0,3.84,0,7.68,0,11.52c0.06,0,0.12,0,0.181,0c0.959,0,1.92,0,2.879,0
	c0.961,0,1.92,0,2.881,0c0,0.96,0,1.92,0,2.88c0,0.479,0,0.96,0,1.44c0,0.539,0,1.08,0,1.619c1.91,0,3.84,0,5.76,0
	c0,3.84,0,7.68,0,11.521c3.84,0,7.67,0,11.52,0c0,3.84,0,7.68,0,11.521c1.92,0,3.84,0,5.76,0c0,1.92,0,3.84,0,5.76
	c3.84,0,7.681,0,11.521,0c0,1.92,0,3.84,0,5.76c3.83,0,7.681,0,11.521,0c0-1.92,0-3.84,0-5.76c1.92,0,3.83,0,5.76,0
	c0,1.92,0,3.84,0,5.76c1.92,0,3.84,0,5.76,0c0,1.92,0,3.84,0,5.76c1.92,0,3.83,0,5.76,0c0,1.92,0,3.84,0,5.76c3.9,0,7.801,0,11.7,0
	c0-1.92,0-3.84,0-5.76c3.83,0,7.68,0,11.52,0c0-1.92,0-3.84,0-5.76c1.92,0,3.83,0,5.761,0c0-1.92,0-3.84,0-5.76
	c2.88,0,5.76,0,8.63,0c2.89,0,5.77,0,8.649,0c0,1.92,0,3.84,0,5.76c0.181,0,0.351,0,0.54,0c0.181,0,0.36,0,0.54,0
	c0.12,0,0.23,0,0.36,0c0.18,0,0.35,0,0.54,0c0.12,0,0.24,0,0.35,0c0.19,0,0.37,0,0.55,0c0.12,0,0.24,0,0.36,0c0.18,0,0.36,0,0.54,0
	c1.2,0,2.4,0,3.6,0c1.2,0,2.4,0,3.601,0s2.399,0,3.6,0c0.601,0,1.19,0,1.8,0c0.301,0,0.601,0,0.9,0c0.12,0,0.24,0,0.36,0
	c0.17,0,0.359,0,0.54,0c0.109,0,0.239,0,0.359,0c0.181,0,0.36,0,0.54,0c0.12,0,0.23,0,0.36,0c0.18,0,0.35,0,0.54,0
	c0.12,0,0.24,0,0.35,0c0.19,0,0.37,0,0.55,0c0.12,0,0.24,0,0.36,0c0.18,0,0.36,0,0.54,0c0.12,0,0.24,0,0.36,0c0.17,0,0.359,0,0.54,0
	c0.109,0,0.239,0,0.359,0c0.181,0,0.36,0,0.54,0c0.12,0,0.23,0,0.36,0c0.18,0,0.35,0,0.54,0c0.12,0,0.24,0,0.35,0
	c0.19,0,0.37,0,0.55,0c0.12,0,0.24,0,0.36,0c0.18,0,0.36,0,0.54,0c0.12,0,0.24,0,0.36,0c0.17,0,0.359,0,0.54,0
	c0.109,0,0.239,0,0.359,0c0.181,0,0.36,0,0.54,0c0.12,0,0.23,0,0.36,0c0.18,0,0.35,0,0.54,0c0-1.92,0-3.84,0-5.76
	c3.83,0,7.68,0,11.52,0c0-0.181,0-0.36,0-0.541c0-0.18,0-0.359,0-0.539c0-0.36,0-0.721,0-1.08c0-0.721,0-1.44,0-2.16
	c0-1.439,0-2.881,0-4.32c0-0.72,0-1.439,0-2.16c0-0.18,0-0.359,0-0.539c0-0.181,0-0.361,0-0.541c0-0.359,0-0.72,0-1.08
	c0-0.72,0-1.439,0-2.16c0-0.18,0-0.359,0-0.539s0-0.36,0-0.541c0-0.359,0-0.719,0-1.079c1.92,0,3.83,0,5.76,0
	c0-3.841,0-7.681,0-11.521c-1.93,0-3.84,0-5.76,0c0,1.92,0,3.84,0,5.76c-1.92,0-3.84,0-5.76,0c0,3.84,0,7.681,0,11.521
	c-1.93,0-3.84,0-5.76,0c0,1.92,0,3.84,0,5.761c-0.96,0-1.92,0-2.88,0C141.18,127.081,140.7,127.081,140.22,127.081z"/>
<path fill="#232034" d="M92.52,104.04c1.92,0,3.83,0,5.761,0c0-0.959,0-1.92,0-2.88c0-0.479,0-0.96,0-1.44c0-0.539,0-1.08,0-1.619
	c-1.931,0-3.841,0-5.761,0c0,0.539,0,1.08,0,1.619c0,0.48,0,0.961,0,1.44C92.52,102.12,92.52,103.081,92.52,104.04z"/>
<path fill="#A6CDED" d="M98.28,101.16c0,0.96,0,1.921,0,2.88c-1.931,0-3.841,0-5.761,0c0,1.92,0,3.84,0,5.76c2.761,0,5.521,0,8.28,0
	c0.66,0,1.32,0,1.98,0c0.72,0,1.439,0,2.159,0c1.431,0,2.88,0,4.32,0c0.18,0,0.36,0,0.54,0c0-1.92,0-3.84,0-5.76
	c1.92,0,3.84,0,5.76,0c0-3.9,0-7.8,0-11.699c1.92,0,3.83,0,5.76,0c0-2.881,0-5.76,0-8.641c0-2.88,0-5.76,0-8.64
	c-1.93,0-3.84,0-5.76,0c0,1.92,0,3.84,0,5.76c-1.92,0-3.84,0-5.76,0c0,1.92,0,3.84,0,5.761c0,3.84,0,7.68,0,11.52
	c-1.93,0-3.84,0-5.76,0s-3.84,0-5.76,0c0,0.539,0,1.08,0,1.619C98.28,100.2,98.28,100.68,98.28,101.16z"/>
<path fill="#232034" d="M98.28,86.581c0,3.84,0,7.68,0,11.52c1.92,0,3.84,0,5.76,0c0-3.84,0-7.68,0-11.52c1.92,0,3.83,0,5.76,0
	c0-1.921,0-3.841,0-5.761c1.92,0,3.84,0,5.76,0c0-1.92,0-3.84,0-5.76c1.92,0,3.83,0,5.76,0c0-2.88,0-5.76,0-8.64s0-5.76,0-8.64
	c0-1.92,0-3.84,0-5.76c-1.93,0-3.84,0-5.76,0c0,2.88,0,5.76,0,8.64c0,2.88,0,5.76,0,8.64c-1.92,0-3.84,0-5.76,0
	c0,1.92,0,3.84,0,5.76c-1.93,0-3.84,0-5.76,0c0,1.92,0,3.84,0,5.76c-1.92,0-3.84,0-5.76,0C98.28,82.74,98.28,84.66,98.28,86.581z"/>
<path fill="#C0BFBF" d="M98.28,40.5c0,1.92,0,3.84,0,5.76c1.92,0,3.84,0,5.76,0c0-1.92,0-3.84,0-5.76
	C102.12,40.5,100.2,40.5,98.28,40.5z"/>
<path fill="#90BEE6" d="M104.04,86.581c0,3.84,0,7.68,0,11.52c1.92,0,3.83,0,5.76,0c0-3.84,0-7.68,0-11.52
	C107.87,86.581,105.96,86.581,104.04,86.581z"/>
<path fill="#232034" d="M104.04,40.5c0,1.92,0,3.84,0,5.76c1.92,0,3.83,0,5.76,0c0-1.92,0-3.84,0-5.76
	C107.87,40.5,105.96,40.5,104.04,40.5z"/>
<path fill="#A6CDED" d="M104.04,34.74c0,1.92,0,3.84,0,5.76c1.92,0,3.83,0,5.76,0c0,1.92,0,3.84,0,5.76c1.92,0,3.84,0,5.76,0
	c0,1.92,0,3.84,0,5.76c1.92,0,3.83,0,5.76,0c0,1.92,0,3.84,0,5.76c1.921,0,3.841,0,5.761,0c0-0.06,0-0.12,0-0.18
	c0-0.42,0-0.84,0-1.26c0-0.48,0-0.96,0-1.44c0-0.96,0-1.92,0-2.88c0-1.92,0-3.84,0-5.76c0-3.84,0-7.68,0-11.52
	C119.39,34.74,111.72,34.74,104.04,34.74z"/>
<path fill="#232034" d="M109.8,46.26c0,1.92,0,3.84,0,5.76c1.92,0,3.84,0,5.76,0c0-1.92,0-3.84,0-5.76
	C113.64,46.26,111.72,46.26,109.8,46.26z"/>
<path fill="#A6CDED" d="M115.56,104.04c0,1.92,0,3.84,0,5.76c1.92,0,3.83,0,5.76,0c0,1.92,0,3.84,0,5.761c1.74,0,3.48,0,5.221,0
	c0.18,0,0.35,0,0.54,0c0-1.921,0-3.841,0-5.761c1.92,0,3.83,0,5.76,0c0-1.739,0-3.479,0-5.219c0-0.181,0-0.361,0-0.541
	c-1.93,0-3.84,0-5.76,0c0-1.979,0-3.959,0-5.939c-1.92,0-3.84,0-5.761,0c0,1.98,0,3.96,0,5.939
	C119.39,104.04,117.479,104.04,115.56,104.04z"/>
<path fill="#E2F4FC" d="M132.84,40.5c1.92,0,3.84,0,5.76,0c0,2.88,0,5.76,0,8.64c0,2.88,0,5.76,0,8.64c-1.92,0-3.84,0-5.76,0
	c0,0.18,0,0.36,0,0.54s0,0.36,0,0.54c0,0.36,0,0.72,0,1.08c0,0.72,0,1.44,0,2.16c0,1.44,0,2.88,0,4.32c0,2.88,0,5.76,0,8.64
	c0.18,0,0.36,0,0.53,0c0.189,0,0.37,0,0.54,0c0.37,0,0.729,0,1.09,0c0.72,0,1.439,0,2.16,0c1.38,0,2.75,0,4.14,0
	c1.38,0,2.76,0,4.14,0c1.431,0,2.88,0,4.32,0c0.18,0,0.36,0,0.54,0c0-1.92,0-3.84,0-5.76c-1.93,0-3.84,0-5.76,0
	c-0.96,0-1.92,0-2.88,0c-0.48,0-0.96,0-1.44,0c-0.54,0-1.08,0-1.62,0c0-1.92,0-3.84,0-5.76c0.96,0,1.92,0,2.88,0
	c0.48,0,0.96,0,1.431,0c0.55,0,1.09,0,1.63,0c0-4.8,0-9.6,0-14.4c0-2.4,0-4.8,0-7.2c0-0.3,0-0.6,0-0.9c0-0.12,0-0.24,0-0.36
	c0-0.18,0-0.36,0-0.54c0-0.12,0-0.24,0-0.36c0-0.18,0-0.36,0-0.54c0-0.12,0-0.24,0-0.36c0-0.18,0-0.36,0-0.54c0-0.12,0-0.24,0-0.36
	c0-0.18,0-0.36,0-0.54c0-0.12,0-0.24,0-0.36c0-0.18,0-0.36,0-0.54c0-0.12,0-0.24,0-0.36c0-0.18,0-0.36,0-0.54c0-0.12,0-0.24,0-0.36
	c0-0.18,0-0.36,0-0.54c-0.061,0-0.13,0-0.19,0c-0.96,0-1.91,0-2.87,0s-1.92,0-2.88,0c0-1.92,0-3.84,0-5.76c0-0.96,0-1.92,0-2.88
	c0-0.48,0-0.96,0-1.44c0-0.54,0-1.08,0-1.62c-3.84,0-7.689,0-11.52,0c0,1.92,0,3.84,0,5.76c1.92,0,3.83,0,5.76,0
	c0,1.92,0,3.84,0,5.76c0,0.96,0,1.92,0,2.88c0,0.48,0,0.96,0,1.44c0,0.24,0,0.48,0,0.72c0,0.12,0,0.24,0,0.36
	C132.84,40.14,132.84,40.32,132.84,40.5z"/>
<path fill="#E2F4FC" d="M161.819,86.04c0,0.18,0,0.36,0,0.541c1.921,0,3.841,0,5.761,0c0,1.92,0,3.84,0,5.76c-1.92,0-3.84,0-5.761,0
	c0,3.899,0,7.799,0,11.699c1.921,0,3.841,0,5.761,0c0-0.06,0-0.119,0-0.18c0-0.48,0-0.96,0-1.439c0-0.48,0-0.961,0-1.44
	c0-0.96,0-1.92,0-2.88c0.96,0,1.92,0,2.88,0c0.95,0,1.91,0,2.88,0c0-3.84,0-7.68,0-11.52c0.96,0,1.92,0,2.88,0s1.92,0,2.88,0
	c0-1.921,0-3.841,0-5.761c-0.96,0-1.92,0-2.88,0s-1.92,0-2.88,0c0-3.84,0-7.68,0-11.52c-0.06,0-0.12,0-0.18,0
	c-0.061,0-0.12,0-0.181,0c-0.13,0-0.239,0-0.359,0c-0.25,0-0.48,0-0.73,0c-0.479,0-0.95,0-1.43,0c-0.96,0-1.92,0-2.88,0
	c0-1.92,0-3.84,0-5.76c-1.44,0-2.88,0-4.32,0s-2.89,0-4.32,0c-2.88,0-5.76,0-8.64,0c0,1.92,0,3.84,0,5.76c3.84,0,7.68,0,11.52,0
	c0,0.18,0,0.36,0,0.54c0,0.12,0,0.24,0,0.36c0,0.18,0,0.36,0,0.54c0,0.18,0,0.36,0,0.54c0,0.18,0,0.36,0,0.54c0,0.12,0,0.24,0,0.36
	c0,0.18,0,0.36,0,0.54c0,0.18,0,0.36,0,0.54c0,0.18,0,0.36,0,0.54c0,0.12,0,0.24,0,0.36c0,0.18,0,0.36,0,0.54c0,0.18,0,0.36,0,0.54
	c0,0.18,0,0.36,0,0.54c0,0.72,0,1.439,0,2.16c0,0.12,0,0.24,0,0.359c0,0.181,0,0.36,0,0.541c0,0.18,0,0.359,0,0.539
	c0,0.181,0,0.36,0,0.541c0,0.119,0,0.239,0,0.359c0,0.18,0,0.359,0,0.54s0,0.36,0,0.54s0,0.359,0,0.54c0,0.12,0,0.239,0,0.36
	c0,0.18,0,0.359,0,0.539c0,0.181,0,0.36,0,0.541c0,0.18,0,0.359,0,0.539C161.819,84.6,161.819,85.32,161.819,86.04z"/>
</svg>
