<?xml version="1.0" encoding="utf-8"?>
<!-- Generator: Adobe Illustrator 15.0.0, SVG Export Plug-In  -->
<!DOCTYPE svg PUBLIC "-//W3C//DTD SVG 1.1//EN" "http://www.w3.org/Graphics/SVG/1.1/DTD/svg11.dtd" [
	<!ENTITY ns_flows "http://ns.adobe.com/Flows/1.0/">
]>
<svg version="1.1"
	 xmlns="http://www.w3.org/2000/svg" xmlns:xlink="http://www.w3.org/1999/xlink" xmlns:a="http://ns.adobe.com/AdobeSVGViewerExtensions/3.0/"
	 x="0px" y="0px" width="120px" height="80px" viewBox="-14.943 -11.221 120 80" enable-background="new -14.943 -11.221 120 80"
	 xml:space="preserve">
<defs>
</defs>
<path fill-rule="evenodd" clip-rule="evenodd" fill="#D54C27" d="M71.718,1.764c0,0.392,0,0.783,0,1.175c2.156,0,4.311,0,6.467,0
	c0,1.176,0,2.353,0,3.527c1.175,0,2.353,0,3.527,0c0,1.175,0,2.353,0,3.527c0.393,0,0.783,0,1.176,0c0.588,0,1.175,0,1.764,0
	c0,0.393,0,0.783,0,1.176c0,0.587,0,1.175,0,1.763c1.176,0,2.352,0,3.527,0c0,0.392,0,0.785,0,1.175c0,1.764,0,3.528,0,5.291
	c0.393,0,0.782,0,1.176,0c0.589,0,1.175,0,1.763,0c0,0.393,0,0.785,0,1.176c0,4.116,0,8.231,0,12.344c0,0.393,0,0.785,0,1.177
	c0,0.587,0,1.177,0,1.765c0,1.177,0,2.35,0,3.527c0,0.393,0,0.784,0,1.178c0,0.586,0,1.173,0,1.763c0,1.174,0,2.349,0,3.524
	c-0.392,0-0.782,0-1.174,0c-0.589,0-1.177,0-1.765,0c0,3.135,0,6.273,0,9.409c-1.176,0-2.352,0-3.527,0c0,1.173,0,2.349,0,3.525
	c-0.392,0-0.783,0-1.176,0c-0.588,0-1.175,0-1.764,0c0,0.589,0,1.175,0,1.762c0,0.393,0,0.783,0,1.176c0,0.587,0,1.178,0,1.764
	c0,0.587,0,1.178,0,1.766c0.589,0,1.176,0,1.764,0c0.393,0,0.784,0,1.176,0c0,0.391,0,0.783,0,1.178c0,0.778,0,1.565,0,2.349
	c-5.879,0-11.758,0-17.636,0c-1.371,0-2.743,0-4.115,0c-1.568,0-3.136,0-4.703,0c-3.135,0-6.271,0-9.405,0c-2.938,0-5.878,0-8.818,0
	s-5.878,0-8.816,0c-1.372,0-2.743,0-4.116,0c-1.567,0-3.135,0-4.703,0c-3.135,0-6.27,0-9.406,0c0-1.177,0-2.349,0-3.526
	c-1.174,0-2.351,0-3.526,0c0-1.179,0-2.352,0-3.529c-0.587,0-1.175,0-1.764,0c-0.393,0-0.783,0-1.175,0c-0.588,0-1.177,0-1.765,0
	c-0.587,0-1.175,0-1.763,0c0-0.393,0-0.783,0-1.176c0-1.762,0-3.525,0-5.287c-0.394,0-0.783,0-1.176,0c-0.59,0-1.176,0-1.764,0
	c0-0.591,0-1.178,0-1.766c0-0.59,0-1.175,0-1.764c0-0.588,0-1.176,0-1.763c0-0.784,0-1.57,0-2.354c0-2.743,0-5.485,0-8.229
	c0.393,0,0.783,0,1.174,0c0.59,0,1.178,0,1.766,0c0-1.178,0-2.351,0-3.527c1.176,0,2.351,0,3.527,0c0-0.588,0-1.178,0-1.765
	c0-0.392,0-0.784,0-1.177c0-0.586,0-1.174,0-1.764c0-0.586,0-1.173,0-1.763c0.392,0,0.782,0,1.175,0c1.764,0,3.527,0,5.29,0
	c0-1.174,0-2.351,0-3.525c0.394,0,0.785,0,1.176,0c1.764,0,3.527,0,5.291,0c0-0.395,0-0.784,0-1.176c0-0.589,0-1.175,0-1.764
	c0.393,0,0.785,0,1.177,0c1.763,0,3.526,0,5.29,0c0-1.175,0-2.352,0-3.528c0.393,0,0.785,0,1.176,0c1.764,0,3.527,0,5.291,0
	c0-0.393,0-0.782,0-1.175c0-0.588,0-1.176,0-1.763c0.391,0,0.785,0,1.176,0c1.764,0,3.525,0,5.29,0c0-1.176,0-2.353,0-3.528
	c0.59,0,1.176,0,1.765,0s1.175,0,1.764,0c0-0.196,0-0.392,0-0.588c0-3.136,0-6.271,0-9.406c0.392,0,0.784,0,1.174,0
	c1.765,0,3.527,0,5.292,0c0-0.392,0-0.783,0-1.175c0-0.588,0-1.175,0-1.764c7.642,0,15.285,0,22.926,0
	C71.718,0.588,71.718,1.175,71.718,1.764z M75.246,12.933c0-2.156,0-4.31,0-6.467c-2.353,0-4.703,0-7.056,0c0,2.157,0,4.311,0,6.467
	c-0.392,0-0.782,0-1.175,0c-0.588,0-1.175,0-1.764,0c0-0.392,0-0.783,0-1.176c0-0.587,0-1.177,0-1.764c-1.175,0-2.352,0-3.527,0
	c-2.156,0-4.311,0-6.466,0c0,0.393,0,0.783,0,1.176c0,0.587,0,1.175,0,1.763c-0.393,0-0.783,0-1.176,0c-0.589,0-1.176,0-1.763,0
	c0,0.392,0,0.785,0,1.175c0,3.92,0,7.84,0,11.759c-0.196,0-0.395,0-0.589,0c-1.567,0-3.136,0-4.704,0c-1.566,0-3.134,0-4.701,0
	c-1.568,0-3.137,0-4.703,0c-1.764,0-3.527,0-5.291,0c0,0.39,0,0.783,0,1.174c0,0.785,0,1.569,0,2.351c-0.393,0-0.783,0-1.175,0
	c-0.589,0-1.177,0-1.765,0c0,0.392,0,0.785,0,1.177c0,0.392,0,0.784,0,1.176c0,0.588,0,1.174,0,1.764c0,0.781,0,1.566,0,2.352
	c-0.392,0-0.785,0-1.175,0c-0.784,0-1.567,0-2.353,0c0,0.393,0,0.784,0,1.177c0,0.587,0,1.173,0,1.764c0,1.174,0,2.351,0,3.527
	c-3.134,0-6.27,0-9.405,0c0,1.174,0,2.349,0,3.524c-1.175,0-2.353,0-3.528,0c0-1.176,0-2.351,0-3.524c-0.391,0-0.783,0-1.174,0
	c-1.764,0-3.527,0-5.291,0c0,1.174,0,2.349,0,3.524c-0.393,0-0.785,0-1.177,0c-0.784,0-1.566,0-2.351,0c0,0.393,0,0.785,0,1.178
	c0,1.762,0,3.526,0,5.291c0.391,0,0.784,0,1.176,0c0.587,0,1.175,0,1.764,0c0.133,0.076,0.469-0.097,0.588,0
	c0.045,0.037,0,0.515,0,0.585c0,0.198,0,0.394,0,0.59c0,0.588,0,1.175,0,1.766c1.566,0,3.135,0,4.702,0c0.589,0,1.175,0,1.763,0
	c0,1.173,0,2.349,0,3.525c1.176,0,2.354,0,3.528,0c0,0.389,0,0.782,0,1.175c0,0.587,0,1.176,0,1.763c3.136,0,6.271,0,9.405,0
	c0,0.394,0,0.785,0,1.178c0,0.782,0,1.565,0,2.352c5.487,0,10.973,0,16.461,0c0-1.179,0-2.352,0-3.529c5.486,0,10.973,0,16.46,0
	c0-0.393,0-0.783,0-1.176c0-0.587,0-1.173,0-1.762c0.393,0,0.782,0,1.174,0c0.59,0,1.176,0,1.765,0c0-1.177,0-2.353,0-3.525
	c0.392,0,0.785,0,1.176,0c0.784,0,1.567,0,2.352,0c0-1.178,0-2.355,0-3.529c0-1.37,0-2.745,0-4.116c0-2.743,0-5.485,0-8.229
	c-1.175,0-2.352,0-3.527,0c0-1.178,0-2.351,0-3.527c-0.393,0-0.782,0-1.175,0c-0.59,0-1.175,0-1.764,0c0-1.178,0-2.352,0-3.527
	c-1.176,0-2.353,0-3.527,0c0-0.393,0-0.785,0-1.178c0-0.586,0-1.173,0-1.763c0.392,0,0.783,0,1.175,0c0.589,0,1.177,0,1.764,0
	c1.178,0,2.353,0,3.527,0c0.392,0,0.785,0,1.176,0c0.588,0,1.177,0,1.763,0c1.178,0,2.353,0,3.527,0c0-1.174,0-2.351,0-3.525
	c1.177,0,2.353,0,3.527,0c0-3.137,0-6.271,0-9.406c-0.392,0-0.784,0-1.175,0c-0.784,0-1.567,0-2.353,0c0-0.393,0-0.785,0-1.176
	c0-0.784,0-1.567,0-2.352C70.543,12.933,72.894,12.933,75.246,12.933z"/>
<path fill-rule="evenodd" clip-rule="evenodd" fill="#5E523B" d="M68.19,12.933c2.353,0,4.703,0,7.056,0c0-2.156,0-4.31,0-6.467
	c-2.353,0-4.703,0-7.056,0C68.19,8.623,68.19,10.776,68.19,12.933z"/>
<path fill-rule="evenodd" clip-rule="evenodd" fill="#5E523B" d="M61.725,9.993c0,0.587,0,1.176,0,1.764c0,0.393,0,0.784,0,1.176
	c1.176,0,2.353,0,3.527,0c0-0.392,0-0.783,0-1.176c0-0.587,0-1.177,0-1.764C64.077,9.993,62.9,9.993,61.725,9.993z"/>
<path fill-rule="evenodd" clip-rule="evenodd" fill="#E96224" d="M61.725,9.993c-2.156,0-4.311,0-6.466,0c0,0.393,0,0.783,0,1.176
	c0,0.587,0,1.175,0,1.763c-0.393,0-0.783,0-1.176,0c-0.589,0-1.176,0-1.763,0c0,0.392,0,0.785,0,1.175c0,3.92,0,7.84,0,11.759
	c0.587,0,1.174,0,1.763,0c0.393,0,0.783,0,1.176,0c0,1.174,0,2.351,0,3.525c0.392,0,0.783,0,1.175,0c0.589,0,1.177,0,1.764,0
	c1.178,0,2.353,0,3.527,0c0.392,0,0.785,0,1.176,0c0.588,0,1.177,0,1.763,0c1.178,0,2.353,0,3.527,0c0-1.174,0-2.351,0-3.525
	c1.177,0,2.353,0,3.527,0c0-3.137,0-6.271,0-9.406c-0.392,0-0.784,0-1.175,0c-0.784,0-1.567,0-2.353,0c0-0.393,0-0.785,0-1.176
	c0-0.784,0-1.567,0-2.352c-0.392,0-0.782,0-1.175,0c-0.588,0-1.175,0-1.764,0c-1.175,0-2.352,0-3.527,0c0-0.392,0-0.783,0-1.176
	C61.725,11.169,61.725,10.58,61.725,9.993z"/>
<path fill-rule="evenodd" clip-rule="evenodd" fill="#D54C27" d="M52.32,25.866c0,1.174,0,2.351,0,3.525c0.391,0,0.782,0,1.174,0
	c0.589,0,1.176,0,1.765,0c0-1.174,0-2.351,0-3.525c-0.393,0-0.783,0-1.176,0C53.494,25.866,52.907,25.866,52.32,25.866z"/>
<path fill-rule="evenodd" clip-rule="evenodd" fill="#E96224" d="M52.32,25.866c-0.196,0-0.395,0-0.589,0c-1.567,0-3.136,0-4.704,0
	c-1.566,0-3.134,0-4.701,0c-1.568,0-3.137,0-4.703,0c-1.764,0-3.527,0-5.291,0c0,0.39,0,0.783,0,1.174c0,0.785,0,1.569,0,2.351
	c-0.393,0-0.783,0-1.175,0c-0.589,0-1.177,0-1.765,0c0,0.392,0,0.785,0,1.177c0,0.392,0,0.784,0,1.176c0,0.588,0,1.174,0,1.764
	c0,0.781,0,1.566,0,2.352c-0.392,0-0.785,0-1.175,0c-0.784,0-1.567,0-2.353,0c0,0.393,0,0.784,0,1.177c0,0.587,0,1.173,0,1.764
	c0,1.174,0,2.351,0,3.527c-3.134,0-6.27,0-9.405,0c0,1.174,0,2.349,0,3.524c0,0.591,0,1.178,0,1.764c0,0.393,0,0.783,0,1.176
	c0,0.587,0,1.178,0,1.765c0,0.588,0,1.176,0,1.765c-1.175,0-2.353,0-3.528,0c0,0.585,0,1.175,0,1.763c0,0.394,0,0.785,0,1.178
	c0,1.173,0,2.349,0,3.525c1.176,0,2.354,0,3.528,0c0,0.389,0,0.782,0,1.175c0,0.587,0,1.176,0,1.763c3.136,0,6.271,0,9.405,0
	c0,0.394,0,0.785,0,1.178c0,0.782,0,1.565,0,2.352c5.487,0,10.973,0,16.461,0c0-1.179,0-2.352,0-3.529c5.486,0,10.973,0,16.46,0
	c0-0.393,0-0.783,0-1.176c0-0.587,0-1.173,0-1.762c0.393,0,0.782,0,1.174,0c0.59,0,1.176,0,1.765,0c0-1.177,0-2.353,0-3.525
	c0.392,0,0.785,0,1.176,0c0.784,0,1.567,0,2.352,0c0-1.178,0-2.355,0-3.529c0-1.37,0-2.745,0-4.116c0-2.743,0-5.485,0-8.229
	c-1.175,0-2.352,0-3.527,0c0-1.178,0-2.351,0-3.527c-0.393,0-0.782,0-1.175,0c-0.59,0-1.175,0-1.764,0c0-1.178,0-2.352,0-3.527
	c-1.176,0-2.353,0-3.527,0c0,1.763,0,3.527,0,5.291c0,1.565,0,3.135,0,4.704c0,1.566,0,3.135,0,4.702c0,1.568,0,3.135,0,4.702
	c0,0.195,0,0.394,0,0.589c-0.589,0-1.176,0-1.765,0c-0.392,0-0.783,0-1.174,0c0,0.585,0,1.175,0,1.763c0,0.394,0,0.785,0,1.178
	c-1.177,0-2.354,0-3.528,0c0,1.173,0,2.349,0,3.525c-0.588,0-1.176,0-1.765,0c-0.588,0-1.174,0-1.763,0c-0.587,0-1.175,0-1.765,0
	c-0.39,0-0.782,0-1.174,0c-0.589,0-1.175,0-1.764,0c-0.393,0-0.784,0-1.175,0c-0.59,0-1.177,0-1.765,0c-0.59,0-1.176,0-1.764,0
	c0-1.177,0-2.353,0-3.525c-0.588,0-1.176,0-1.764,0c-0.393,0-0.782,0-1.176,0c-1.176,0-2.352,0-3.527,0c0-0.591,0-1.178,0-1.766
	c0-0.392,0-0.785,0-1.175c-1.763,0-3.527,0-5.291,0c-0.393,0-0.783,0-1.174,0c0-0.589,0-1.177,0-1.765c0-0.587,0-1.178,0-1.765
	c1.174,0,2.35,0,3.525,0c0.588,0,1.177,0,1.765,0c0.39,0,0.783,0,1.175,0c0-0.587,0-1.176,0-1.762c0-0.393,0-0.785,0-1.178
	c0.588,0,1.176,0,1.765,0c0.392,0,0.782,0,1.175,0c0-0.586,0-1.176,0-1.764c0-0.39,0-0.781,0-1.175c0-0.586,0-1.176,0-1.763
	c0-0.393,0-0.785,0-1.177c0-1.959,0-3.92,0-5.879c0-0.587,0-1.177,0-1.763c0.588,0,1.176,0,1.764,0s1.176,0,1.764,0
	c0-0.588,0-1.178,0-1.764c0-0.393,0-0.785,0-1.177c1.174,0,2.352,0,3.528,0c0.586,0,1.175,0,1.764,0c0.39,0,0.782,0,1.175,0
	c1.764,0,3.527,0,5.29,0c1.567,0,3.136,0,4.704,0C52.32,28.217,52.32,27.041,52.32,25.866z"/>
<path fill-rule="evenodd" clip-rule="evenodd" fill="#E96224" d="M55.259,29.391c-0.589,0-1.176,0-1.765,0c-0.392,0-0.783,0-1.174,0
	c0,0.392,0,0.785,0,1.177c0,0.586,0,1.176,0,1.764c0.391,0,0.782,0,1.174,0c0.589,0,1.176,0,1.765,0c0-0.393,0-0.785,0-1.178
	C55.259,30.568,55.259,29.981,55.259,29.391z"/>
<path fill-rule="evenodd" clip-rule="evenodd" fill="#46150D" d="M52.32,29.391c-1.568,0-3.137,0-4.704,0c-1.763,0-3.526,0-5.29,0
	c0,0.59,0,1.177,0,1.763c0,0.393,0,0.785,0,1.178c-1.175,0-2.353,0-3.528,0c0,1.763,0,3.527,0,5.291c0,1.565,0,3.135,0,4.704
	c1.176,0,2.354,0,3.528,0c0,0.586,0,1.174,0,1.761c0,0.588,0,1.178,0,1.764c1.764,0,3.527,0,5.29,0c1.567,0,3.136,0,4.704,0
	c0-0.586,0-1.176,0-1.764c0-0.587,0-1.175,0-1.761c0.587,0,1.174,0,1.763,0c0.393,0,0.783,0,1.176,0c0-1.569,0-3.139,0-4.704
	c0-1.764,0-3.528,0-5.291c-0.589,0-1.176,0-1.765,0c-0.392,0-0.783,0-1.174,0c0-0.588,0-1.178,0-1.764
	C52.32,30.176,52.32,29.783,52.32,29.391z"/>
<path fill-rule="evenodd" clip-rule="evenodd" fill="#F47920" d="M42.326,29.391c-0.393,0-0.785,0-1.175,0c-0.589,0-1.178,0-1.764,0
	c-1.177,0-2.354,0-3.528,0c0,0.392,0,0.785,0,1.177c0,0.586,0,1.176,0,1.764c-0.588,0-1.176,0-1.764,0s-1.176,0-1.764,0
	c0,0.586,0,1.176,0,1.763c0,1.959,0,3.92,0,5.879c0,0.392,0,0.784,0,1.177c0,0.587,0,1.177,0,1.763c0,0.394,0,0.785,0,1.175
	c0,0.588,0,1.178,0,1.764c1.764,0,3.527,0,5.291,0c0.393,0,0.783,0,1.175,0c0,0.785,0,1.569,0,2.353c0,0.194,0,0.394,0,0.587
	c-3.136,0-6.27,0-9.405,0c0,1.178,0,2.353,0,3.529c0,0.39,0,0.783,0,1.175c0,0.588,0,1.175,0,1.766c1.176,0,2.352,0,3.527,0
	c0.394,0,0.783,0,1.176,0c0.588,0,1.176,0,1.764,0c0,1.173,0,2.349,0,3.525c0.588,0,1.174,0,1.764,0c0.588,0,1.175,0,1.765,0
	c0.391,0,0.782,0,1.175,0c0.589,0,1.175,0,1.764,0c0.392,0,0.784,0,1.174,0c0.59,0,1.178,0,1.765,0c0.589,0,1.175,0,1.763,0
	c0.589,0,1.177,0,1.765,0c0-1.177,0-2.353,0-3.525c1.174,0,2.352,0,3.528,0c0-0.393,0-0.784,0-1.178c0-0.588,0-1.178,0-1.763
	c0.391,0,0.782,0,1.174,0c0.589,0,1.176,0,1.765,0c0-0.195,0-0.394,0-0.589c0-1.567,0-3.134,0-4.702c0-1.567,0-3.136,0-4.702
	c-0.393,0-0.783,0-1.176,0c-0.589,0-1.176,0-1.763,0c0,0.586,0,1.174,0,1.761c0,0.588,0,1.178,0,1.764c-1.568,0-3.137,0-4.704,0
	c-1.763,0-3.526,0-5.29,0c0-0.586,0-1.176,0-1.764c0-0.587,0-1.175,0-1.761c-1.175,0-2.353,0-3.528,0c0-1.569,0-3.139,0-4.704
	c0-1.764,0-3.528,0-5.291c1.176,0,2.354,0,3.528,0c0-0.393,0-0.785,0-1.178C42.326,30.568,42.326,29.981,42.326,29.391z"/>
<path fill-rule="evenodd" clip-rule="evenodd" fill="#46150D" d="M12.932,55.261c0-0.393,0-0.784,0-1.178c0-0.588,0-1.178,0-1.763
	c1.176,0,2.354,0,3.528,0c0-0.589,0-1.177,0-1.765c0-0.587,0-1.178,0-1.765c0-0.393,0-0.783,0-1.176c0-0.586,0-1.173,0-1.764
	c-1.175,0-2.353,0-3.528,0c0-1.176,0-2.351,0-3.524c-0.391,0-0.783,0-1.174,0c-1.764,0-3.527,0-5.291,0c0,1.174,0,2.349,0,3.524
	c-0.393,0-0.785,0-1.177,0c-0.784,0-1.566,0-2.351,0c0,0.393,0,0.785,0,1.178c0,1.762,0,3.526,0,5.291c0.391,0,0.784,0,1.176,0
	c0.587,0,1.175,0,1.764,0c0.133,0.076,0.469-0.097,0.588,0c0.045,0.037,0,0.515,0,0.585c0,0.198,0,0.394,0,0.59
	c0,0.588,0,1.175,0,1.766c1.566,0,3.135,0,4.702,0C11.758,55.261,12.344,55.261,12.932,55.261z"/>
<path fill-rule="evenodd" clip-rule="evenodd" fill="#46150D" d="M32.332,45.852c-0.393,0-0.783,0-1.175,0c-0.589,0-1.177,0-1.765,0
	c0,0.393,0,0.785,0,1.178c0,0.586,0,1.175,0,1.762c3.136,0,6.27,0,9.405,0c0-0.193,0-0.393,0-0.587c0-0.783,0-1.567,0-2.353
	c-0.392,0-0.782,0-1.175,0C35.859,45.852,34.096,45.852,32.332,45.852z"/>
<path fill-rule="evenodd" clip-rule="evenodd" fill="#46150D" d="M29.393,48.791c-0.392,0-0.785,0-1.175,0c-0.588,0-1.177,0-1.765,0
	c-1.176,0-2.352,0-3.525,0c0,0.587,0,1.178,0,1.765c0,0.588,0,1.176,0,1.765c0.391,0,0.781,0,1.174,0c1.764,0,3.528,0,5.291,0
	C29.393,51.144,29.393,49.969,29.393,48.791z"/>
</svg>
