<?xml version="1.0" encoding="utf-8"?>
<!-- Generator: Adobe Illustrator 15.0.0, SVG Export Plug-In  -->
<!DOCTYPE svg PUBLIC "-//W3C//DTD SVG 1.1//EN" "http://www.w3.org/Graphics/SVG/1.1/DTD/svg11.dtd" [
	<!ENTITY ns_flows "http://ns.adobe.com/Flows/1.0/">
]>
<svg version="1.1"
	 xmlns="http://www.w3.org/2000/svg" xmlns:xlink="http://www.w3.org/1999/xlink" xmlns:a="http://ns.adobe.com/AdobeSVGViewerExtensions/3.0/"
	 x="0px" y="0px" width="120px" height="80px" viewBox="-19.246 -24.153 120 80" enable-background="new -19.246 -24.153 120 80"
	 xml:space="preserve">
<defs>
</defs>
<path fill-rule="evenodd" clip-rule="evenodd" fill="#D54C27" d="M35.863,0c0,1.175,0,2.352,0,3.528c0.78,0,1.564,0,2.35,0
	c0.392,0,0.783,0,1.173,0c0,0.782,0,1.567,0,2.35c-0.077,0.118,0.101,0.491,0,0.588c-0.052,0.057-0.5-0.004-0.586,0
	c-0.195,0.01-0.393-0.01-0.587,0c-0.195,0.012-0.396,0-0.588,0c-0.197,0-0.395-0.005-0.59,0c-0.194,0.006-0.392,0-0.586,0
	s-0.391,0-0.586,0c-0.199,0-0.395,0-0.592,0c-0.194,0-0.391-0.003-0.587,0c-0.194,0.004-0.392,0-0.587,0c-0.196,0-0.392,0-0.59,0
	c-0.587,0-1.172,0-1.763,0c-0.782,0-1.567,0-2.352,0c0,0.785,0,1.568,0,2.353c0,0.391,0,0.783,0,1.175c0.393,0,0.784,0,1.177,0
	c0.781,0,1.564,0,2.351,0c0,1.175,0,2.351,0,3.527c0,0.587,0,1.177,0,1.763c0,0.393,0,0.785,0,1.174c0.194,0,0.394,0,0.587,0
	c0.785,0,1.569,0,2.355,0c0-0.781,0-1.565,0-2.351c0-0.392,0-0.785,0-1.174c1.762,0,3.522,0,5.287,0c1.569,0,3.135,0,4.705,0
	c1.566,0,3.135,0,4.702,0c1.565,0,3.136,0,4.702,0c0.194,0,0.393,0,0.586,0c0,1.174,0,2.351,0,3.525c0.394,0,0.785,0,1.177,0
	c0.585,0,1.178,0,1.765,0c0,0.59,0,1.177,0,1.763c0,0.393,0,0.785,0,1.178c1.178,0,2.349,0,3.527,0c0,2.35,0,4.704,0,7.055
	c0.587,0,1.177,0,1.764,0c0.393,0,0.784,0,1.176,0c0,0.784,0,1.566,0,2.351c0,1.176,0,2.351,0,3.528c0,0.586,0,1.177,0,1.764
	c-0.003,0.392,0,0.782,0,1.175c0,1.174,0,2.352,0,3.527c0,0.589,0,1.174,0,1.764c-0.003,0.588,0,1.175,0,1.766
	c-0.591,0-1.176,0-1.763,0c-0.394,0-0.784,0-1.177,0c0,1.173,0,2.349,0,3.525c-1.179,0-2.35,0-3.527,0c0,0.389,0,0.782,0,1.175
	c0,0.587,0,1.176,0,1.763c-0.587,0-1.18,0-1.765,0c-0.392,0-0.783,0-1.177,0c0,1.178,0,2.351,0,3.529c-5.484,0-10.971,0-16.46,0
	c-3.136,0-6.271,0-9.404,0c-3.136,0-6.271,0-9.405,0c-0.195,0-0.393,0-0.587,0c0-1.179,0-2.352,0-3.529c-1.179,0-2.351,0-3.528,0
	s-2.351,0-3.526,0c0-0.587,0-1.176,0-1.763c0-0.393,0-0.786,0-1.175c-0.587,0-1.177,0-1.764,0c-0.394,0-0.787,0-1.178,0
	c0-1.177,0-2.353,0-3.525c-0.587,0-1.175,0-1.762,0c-0.392,0-0.782,0-1.175,0c-0.784,0-1.57,0-2.352,0c-0.199,0-0.393,0-0.589,0
	s-0.394,0-0.586,0c0-0.393,0-0.784,0-1.178c0-0.191,0.021-0.399,0-0.588c-0.024-0.188,0-0.396,0-0.59c0-0.07,0.047-0.548,0-0.585
	c-0.12-0.097-0.458,0.076-0.588,0c-0.198,0-0.392,0-0.588,0c-0.785,0-1.568,0-2.354,0c0,3.135,0,6.268,0,9.403
	c0.394,0,0.786,0,1.177,0c1.766,0,3.528,0,5.293,0c0,0.587,0,1.178,0,1.764c0,0.587,0,1.178,0,1.766c-0.197,0-0.395,0-0.591,0
	c-0.193,0-0.393,0-0.587,0c-0.192,0-0.396-0.022-0.587,0c-0.195,0.022-0.396-0.012-0.589,0c-0.086,0.001-0.534-0.058-0.586,0
	c-0.09,0.087,0.056,0.467,0,0.587c-0.078,0.158,0.059,0.422,0,0.591c0,0.778,0,1.565,0,2.349c3.131,0,6.269,0,9.404,0
	c1.569,0,3.136,0,4.704,0c1.764,0,3.527,0,5.289,0c3.133,0,6.273,0,9.408,0c1.565,0,3.133,0,4.699,0c1.765,0,3.528,0,5.291,0
	c3.137,0,6.271,0,9.405,0c1.569,0,3.135,0,4.704,0c1.765,0,3.529,0,5.293,0c1.564,0,3.134,0,4.7,0c1.764,0,3.526,0,5.291,0
	c1.568,0,3.136,0,4.705,0c1.764,0,3.528,0,5.29,0c0-0.783,0-1.57,0-2.349c-0.008-0.202,0.01-0.395,0-0.591
	c-0.007-0.089,0.055-0.531,0-0.587c-0.088-0.091-0.472,0.055-0.59,0c-0.121-0.059-0.45,0-0.587,0c-0.585,0-1.175,0-1.763,0
	c0-0.393,0-0.786,0-1.179c0-0.391,0-0.779,0-1.173c0-0.591,0-1.178,0-1.765c0-0.784,0-1.568,0-2.351c0.393,0,0.784,0,1.178,0
	c0.585,0,1.172,0,1.762,0c0-3.138-0.003-6.273,0-9.408c0-1.566,0-3.134,0-4.702c0-1.763,0-3.525,0-5.289c-0.394,0-0.785,0-1.177,0
	c-0.585,0-1.175,0-1.763,0c0-3.333,0-6.662,0-9.996c-1.18,0-2.351,0-3.528,0c0-1.174,0-2.351,0-3.525c-0.392,0-0.783,0-1.178,0
	c-0.781,0-1.565,0-2.35,0c0-0.395,0-0.784,0-1.176c0-0.589,0-1.175,0-1.764c-0.392,0-0.784,0-1.178,0c-0.392,0-0.779,0-1.174,0
	c-0.591,0-1.176,0-1.763,0c-0.785,0-1.57,0-2.352,0c0-0.393,0-0.785,0-1.175c0-0.785,0-1.567,0-2.353c-3.132,0-6.271,0-9.408,0
	c0-0.393,0-0.782,0-1.175c0-0.588,0-1.176,0-1.763c-3.329,0-6.66,0-9.99,0c0,0.587,0,1.175,0,1.763c0,0.393,0,0.782,0,1.175
	c-1.177,0-2.354,0-3.529,0c0-0.782,0-1.567,0-2.351c0-0.197,0-0.392,0-0.587c1.175,0,2.353,0,3.529,0c0-1.176,0-2.353,0-3.528
	C42.524,0,39.191,0,35.863,0z"/>
<path fill-rule="evenodd" clip-rule="evenodd" fill="#5E523B" d="M35.863,0c-2.157,0-4.313,0-6.47,0c0,1.175,0,2.352,0,3.528
	c0,0.587,0,1.175,0,1.763c0,0.393,0,0.782,0,1.175c0.784,0,1.569,0,2.352,0c0.591,0,1.176,0,1.763,0c0.198,0,0.394,0,0.59,0
	c0.195,0,0.393,0.004,0.587,0c0.196-0.003,0.393,0,0.587,0c0.197,0,0.393,0,0.592,0c0.195,0,0.392,0,0.586,0s0.392,0.006,0.586,0
	c0.195-0.005,0.393,0,0.59,0c0.192,0,0.393,0.012,0.588,0c0.194-0.01,0.392,0.01,0.587,0c0.086-0.004,0.534,0.057,0.586,0
	c0.101-0.098-0.077-0.47,0-0.588c0-0.783,0-1.568,0-2.35c-0.39,0-0.781,0-1.173,0c-0.785,0-1.569,0-2.35,0
	C35.863,2.352,35.863,1.175,35.863,0z"/>
<path fill-rule="evenodd" clip-rule="evenodd" fill="#D54C27" d="M29.394,0c-5.484,0-10.975,0-16.459,0c0,1.175,0,2.352,0,3.528
	c-2.157,0-4.313,0-6.465,0c0,0.391,0,0.782,0,1.175c0,1.763,0,3.527,0,5.291c0.391,0,0.781,0,1.173,0c0.785,0,1.569,0,2.351,0
	c0,0.392,0,0.783,0,1.175c0,0.589,0,1.176,0,1.765c0.391,0,0.784,0,1.178,0c0.587,0,1.177,0,1.764,0c0,0.39,0,0.783,0,1.174
	c0,0.393,0,0.785,0,1.176c0,0.588,0,1.174,0,1.765c0,0.784,0,1.565,0,2.351c-0.394,0-0.785,0-1.177,0c-0.587,0-1.172,0-1.765,0
	c0,0.586,0,1.176,0,1.763s0,1.177,0,1.765c-0.389,0-0.781,0-1.175,0c-0.587,0-1.176,0-1.762,0c-1.178,0-2.352,0-3.526,0
	c0,0.393,0,0.784,0,1.177c0,1.764,0,3.528,0,5.291c1.564,0,3.131,0,4.701,0c0.587,0,1.175,0,1.762,0c0,1.174,0,2.349,0,3.524
	c0.593,0,1.178,0,1.765,0c0.392,0,0.783,0,1.177,0c0,0.591,0,1.178,0,1.764c0,0.393,0,0.783,0,1.176c2.349,0,4.704,0,7.055,0
	c0.587,0,1.177,0,1.763,0c0.393,0,0.784,0,1.176,0c-0.001-0.587,0-1.176,0-1.762c0-0.393,0-0.785,0-1.178c1.176,0,2.353,0,3.525,0
	c0-0.586,0-1.176,0-1.764c0-0.39,0-0.781,0-1.175c0-0.586,0-1.176,0-1.763c0-0.586,0-1.177,0-1.764c0.591,0,1.178,0,1.762,0
	c0.396,0,0.788,0,1.179,0c0-1.178,0-2.351,0-3.527c0-1.178,0-2.352,0-3.527c-3.135,0-6.271,0-9.404,0c0-0.588,0-1.178,0-1.764
	c0-0.393,0-0.785,0-1.177c-0.587,0-1.179,0-1.766,0c-0.585,0-1.175,0-1.763,0c0-0.586,0-1.174,0-1.76c0-0.59,0-1.177,0-1.765
	c0-0.395,0-0.784,0-1.176c0-0.589,0-1.175,0-1.764c0.588,0,1.178,0,1.763,0c0.587,0,1.179,0,1.766,0c0-1.175,0-2.352,0-3.528
	c3.134,0,6.27,0,9.404,0c0-0.393,0-0.782,0-1.175c0-0.588,0-1.176,0-1.763C29.394,2.352,29.394,1.175,29.394,0z"/>
<path fill-rule="evenodd" clip-rule="evenodd" fill="#5E523B" d="M45.855,3.528c-1.177,0-2.354,0-3.529,0c0,0.196,0,0.391,0,0.587
	c0,0.784,0,1.568,0,2.351c1.175,0,2.353,0,3.529,0c0-0.393,0-0.782,0-1.175C45.855,4.703,45.855,4.115,45.855,3.528z"/>
<path fill-rule="evenodd" clip-rule="evenodd" fill="#E96224" d="M29.394,6.466c-3.135,0-6.271,0-9.404,0c0,1.176,0,2.353,0,3.528
	c-0.587,0-1.179,0-1.766,0c-0.585,0-1.175,0-1.763,0c0,0.588,0,1.175,0,1.764c0,0.392,0,0.782,0,1.176c0,0.587,0,1.174,0,1.765
	c0,0.586,0,1.174,0,1.76c0.588,0,1.178,0,1.763,0c0.587,0,1.179,0,1.766,0c0,0.392,0,0.785,0,1.177c0,0.586,0,1.176,0,1.764
	c3.134,0,6.27,0,9.404,0c0-0.588,0-1.178,0-1.764c0-0.393,0-0.785,0-1.177c1.177,0,2.352,0,3.527,0c0-0.39,0-0.781,0-1.174
	c0-0.586,0-1.176,0-1.763c0-1.176,0-2.353,0-3.527c-0.786,0-1.569,0-2.351,0c-0.393,0-0.784,0-1.177,0c0-0.393,0-0.785,0-1.175
	C29.394,8.034,29.394,7.251,29.394,6.466z"/>
<path fill-rule="evenodd" clip-rule="evenodd" fill="#E96224" d="M32.921,16.458c0,0.197,0,0.392,0,0.59c0,0.784,0,1.565,0,2.351
	c-1.176,0-2.351,0-3.527,0c0,1.176,0,2.35,0,3.527c3.138,0,6.271,0,9.406,0c0.196,0,0.392,0,0.586,0c0,0.587,0,1.177,0,1.764
	c0,0.586,0,1.177,0,1.764c0.592,0,1.178,0,1.765,0c0.393,0,0.785,0,1.176,0c0,3.134,0,6.27,0,9.404c0,0.587,0,1.178,0,1.765
	c0,0.588,0,1.176,0,1.765c0,0.585,0,1.175,0,1.763c0,0.394,0,0.785,0,1.178c0,0.587,0,1.173,0,1.762c0,0.39,0,0.782,0,1.175
	c0,0.589,0,1.178,0,1.764c0,0.587,0,1.176,0,1.763c-0.587,0-1.176,0-1.763,0c-0.395,0-0.785,0-1.178,0c0,1.178,0,2.351,0,3.529
	c5.489,0,10.976,0,16.46,0c0-1.179,0-2.352,0-3.529c0.394,0,0.785,0,1.177,0c0.585,0,1.178,0,1.765,0c0-0.587,0-1.176,0-1.763
	c0-0.393,0-0.786,0-1.175c1.178,0,2.349,0,3.527,0c0-1.177,0-2.353,0-3.525c0.393,0,0.783,0,1.177,0c0.587,0,1.172,0,1.763,0
	c0-0.591-0.003-1.178,0-1.766c0-0.59,0-1.175,0-1.764c0-1.176,0-2.354,0-3.527c0-0.393-0.003-0.783,0-1.175c0-0.587,0-1.178,0-1.764
	c0-1.178,0-2.353,0-3.528c0-0.784,0-1.566,0-2.351c-0.392,0-0.783,0-1.176,0c-0.587,0-1.177,0-1.764,0c0-2.351,0-4.705,0-7.055
	c-1.179,0-2.35,0-3.527,0c0-0.393,0-0.785,0-1.178c0-0.586,0-1.173,0-1.763c-0.587,0-1.18,0-1.765,0c-0.392,0-0.783,0-1.177,0
	c0-1.174,0-2.351,0-3.525c-0.193,0-0.392,0-0.586,0c-1.566,0-3.137,0-4.702,0c-1.567,0-3.136,0-4.702,0c-1.57,0-3.136,0-4.705,0
	c-1.765,0-3.525,0-5.287,0c0,0.39,0,0.783,0,1.174c0,0.785,0,1.569,0,2.351c-0.786,0-1.57,0-2.355,0
	C33.314,16.458,33.115,16.458,32.921,16.458z"/>
<path fill-rule="evenodd" clip-rule="evenodd" fill="#D54C27" d="M32.921,16.458c-1.176,0-2.351,0-3.527,0c0,0.392,0,0.785,0,1.177
	c0,0.586,0,1.176,0,1.764c1.177,0,2.352,0,3.527,0c0-0.785,0-1.566,0-2.351C32.921,16.851,32.921,16.655,32.921,16.458z"/>
<path fill-rule="evenodd" clip-rule="evenodd" fill="#46150D" d="M29.394,22.927c0,1.177,0,2.35,0,3.527c-0.391,0-0.783,0-1.179,0
	c-0.584,0-1.171,0-1.762,0c0,0.587,0,1.178,0,1.764c0,0.587,0,1.177,0,1.763c0,0.394,0,0.785,0,1.175c0,0.588,0,1.178,0,1.764
	c0,0.591,0,1.178,0,1.764c0,0.393,0,0.783,0,1.176c0.591,0,1.178,0,1.762,0c0.396,0,0.788,0,1.179,0c0,1.178,0,2.353,0,3.529
	c1.765,0,3.527,0,5.291,0c1.565,0,3.136,0,4.701,0c0-0.589,0-1.177,0-1.765c0-0.587,0-1.178,0-1.765c0.592,0,1.178,0,1.765,0
	c0.393,0,0.785,0,1.176,0c0-3.135,0-6.271,0-9.404c-0.391,0-0.783,0-1.176,0c-0.587,0-1.173,0-1.765,0c0-0.587,0-1.178,0-1.764
	c0-0.587,0-1.177,0-1.764c-0.194,0-0.39,0-0.586,0C35.664,22.927,32.531,22.927,29.394,22.927z"/>
<path fill-rule="evenodd" clip-rule="evenodd" fill="#46150D" d="M3.53,29.395c0,1.174,0,2.349,0,3.524c-1.176,0-2.354,0-3.53,0
	c0,0.393,0,0.785,0,1.178c0,0.586,0,1.175,0,1.762c0,1.178,0,2.353,0,3.529c0.786,0,1.569,0,2.354,0c0.196,0,0.39,0,0.588,0
	c0.13,0.076,0.468-0.097,0.588,0c0.047,0.037,0,0.515,0,0.585c0,0.193-0.024,0.402,0,0.59c0.021,0.188,0,0.396,0,0.588
	c0,0.394,0,0.785,0,1.178c0.192,0,0.39,0,0.586,0s0.39,0,0.589,0c0.781,0,1.567,0,2.352,0c0.393,0,0.783,0,1.175,0
	c0.587,0,1.175,0,1.762,0c0-0.591,0-1.178,0-1.766c0-0.392,0-0.785,0-1.175c0.593,0,1.178,0,1.765,0c0.392,0,0.783,0,1.177,0
	c0-1.177,0-2.352,0-3.529c0-0.393,0-0.783,0-1.176c0-0.586,0-1.173,0-1.764c-0.394,0-0.785,0-1.177,0c-0.587,0-1.172,0-1.765,0
	c0-1.176,0-2.351,0-3.524c-0.587,0-1.175,0-1.762,0C6.661,29.395,5.095,29.395,3.53,29.395z"/>
<path fill-rule="evenodd" clip-rule="evenodd" fill="#D54C27" d="M3.53,29.395c-1.176,0-2.354,0-3.53,0c0,1.174,0,2.349,0,3.524
	c1.177,0,2.354,0,3.53,0C3.53,31.743,3.53,30.568,3.53,29.395z"/>
<path fill-rule="evenodd" clip-rule="evenodd" fill="#E96224" d="M26.453,32.919c-1.173,0-2.35,0-3.525,0c0,0.393,0,0.785,0,1.178
	c0,0.586-0.001,1.175,0,1.762c1.176,0,2.353,0,3.525,0c0-0.393,0-0.783,0-1.176C26.453,34.097,26.453,33.51,26.453,32.919z"/>
<path fill-rule="evenodd" clip-rule="evenodd" fill="#F47920" d="M42.326,35.858c-0.391,0-0.783,0-1.176,0c-0.587,0-1.173,0-1.765,0
	c0,0.587,0,1.178,0,1.765c0,0.588,0,1.176,0,1.765c-1.565,0-3.136,0-4.701,0c-1.764,0-3.526,0-5.291,0c0-1.177,0-2.352,0-3.529
	c-0.391,0-0.783,0-1.179,0c-0.584,0-1.171,0-1.762,0c0,1.178,0,2.353,0,3.529c-1.173,0-2.35,0-3.525,0c0,0.585,0,1.175,0,1.763
	c0,0.394,0,0.785,0,1.178c-0.59,0-1.176,0-1.762,0c-0.393,0-0.785,0-1.177,0c-1.179,0-2.351,0-3.528,0c0-0.591,0-1.178,0-1.766
	c0-0.392,0-0.785,0-1.175c-1.178,0-2.351,0-3.526,0c0,1.175,0,2.35,0,3.527c0,0.586,0,1.175,0,1.762c0,0.392,0,0.786,0,1.177
	c0,0.389,0,0.782,0,1.175c0,0.587,0,1.176,0,1.763c1.176,0,2.349,0,3.526,0s2.35,0,3.528,0c0,1.178,0,2.351,0,3.529
	c0.194,0,0.392,0,0.587,0c3.134,0,6.27,0,9.405,0c3.134,0,6.269,0,9.404,0c0-1.179,0-2.352,0-3.529c0.393,0,0.783,0,1.178,0
	c0.587,0,1.176,0,1.763,0c0-0.587,0-1.176,0-1.763c0-0.586,0-1.175,0-1.764c0-0.393,0-0.785,0-1.175c0-0.589,0-1.175,0-1.762
	c0-0.393,0-0.784,0-1.178c0-0.588,0-1.178,0-1.763c0-0.589,0-1.177,0-1.765C42.326,37.036,42.326,36.445,42.326,35.858z"/>
<path fill-rule="evenodd" clip-rule="evenodd" fill="#46150D" d="M26.453,35.858c-1.173,0-2.35,0-3.525,0c0,1.178,0,2.353,0,3.529
	c1.176,0,2.353,0,3.525,0C26.453,38.211,26.453,37.036,26.453,35.858z"/>
<path fill-rule="evenodd" clip-rule="evenodd" fill="#F47920" d="M22.928,35.858c-0.392,0-0.783,0-1.176,0c-0.586,0-1.176,0-1.763,0
	c0,1.178,0,2.353,0,3.529c0.392,0,0.784,0,1.177,0c0.586,0,1.172,0,1.762,0C22.928,38.211,22.928,37.036,22.928,35.858z"/>
<path fill-rule="evenodd" clip-rule="evenodd" fill="#E96224" d="M19.989,35.858c-2.351,0-4.706,0-7.055,0c0,1.178,0,2.353,0,3.529
	c1.176,0,2.349,0,3.526,0s2.35,0,3.528,0C19.989,38.211,19.989,37.036,19.989,35.858z"/>
<path fill-rule="evenodd" clip-rule="evenodd" fill="#46150D" d="M22.928,39.388c-0.59,0-1.176,0-1.762,0c-0.393,0-0.785,0-1.177,0
	c-1.179,0-2.351,0-3.528,0c0,0.39,0,0.783,0,1.175c0,0.588,0,1.175,0,1.766c1.178,0,2.35,0,3.528,0c0.392,0,0.784,0,1.177,0
	c0.586,0,1.172,0,1.762,0c0-0.393,0-0.784,0-1.178C22.928,40.563,22.928,39.973,22.928,39.388z"/>
<path fill-rule="evenodd" clip-rule="evenodd" fill="#E96224" d="M12.935,39.388c-0.394,0-0.785,0-1.177,0c-0.587,0-1.172,0-1.765,0
	c0,0.39,0,0.783,0,1.175c0,0.588,0,1.175,0,1.766c0,1.173,0,2.349,0,3.525c0.391,0,0.784,0,1.178,0c0.587,0,1.177,0,1.764,0
	c0-0.391,0-0.785,0-1.177c0-0.587,0-1.176,0-1.762C12.935,41.737,12.935,40.563,12.935,39.388z"/>
</svg>
