<?xml version="1.0" encoding="utf-8"?>
<!-- Generator: Adobe Illustrator 15.0.0, SVG Export Plug-In  -->
<!DOCTYPE svg PUBLIC "-//W3C//DTD SVG 1.1//EN" "http://www.w3.org/Graphics/SVG/1.1/DTD/svg11.dtd" [
	<!ENTITY ns_flows "http://ns.adobe.com/Flows/1.0/">
]>
<svg version="1.1"
	 xmlns="http://www.w3.org/2000/svg" xmlns:xlink="http://www.w3.org/1999/xlink" xmlns:a="http://ns.adobe.com/AdobeSVGViewerExtensions/3.0/"
	 x="0px" y="0px" width="120px" height="80px" viewBox="-9.815 -14.159 120 80" enable-background="new -9.815 -14.159 120 80"
	 xml:space="preserve">
<defs>
</defs>
<path fill-rule="evenodd" clip-rule="evenodd" fill="#D54C27" d="M6.466,16.46c1.173,0,2.354,0,3.527,0c0-0.588,0-1.175,0-1.763
	c0-0.393,0-0.784,0-1.175c0.588,0,1.175,0,1.762,0c0.396,0,0.783,0,1.176,0c0.59,0,1.177,0,1.765,0c0.587,0,1.175,0,1.765,0
	c0,0.587,0,1.175,0,1.763c0,0.196,0,0.393,0,0.586c0,0.07-0.048,0.551,0,0.588c0.117,0.096,0.454-0.076,0.588,0
	c0.587,0,1.176,0,1.764,0c0.391,0,0.782,0,1.174,0c0-0.588,0-1.175,0-1.763c0-0.393,0-0.784,0-1.175c3.724,0,7.446,0,11.171,0
	c0.588,0,1.175,0,1.762,0c0.396,0,0.786,0,1.178,0c0.587,0,1.175,0,1.762,0c0.393,0,0.784,0,1.177,0c0.589,0,1.177,0,1.764,0
	c0.392,0,0.783,0,1.177,0c0.783,0,1.566,0,2.35,0c0.196,0,0.394,0,0.589,0c0,0.587,0,1.175,0,1.763c0,0.393,0,0.782,0,1.175
	c0.588,0,1.176,0,1.764,0c0.392,0,0.782,0,1.174,0c0,1.176,0,2.353,0,3.528c0,0.588,0,1.175,0,1.764c0,0.392,0,0.782,0,1.176
	c1.178,0,2.353,0,3.527,0c0,3.135,0,6.271,0,9.405c0,0.195,0,0.393,0,0.588c-1.175,0-2.35,0-3.527,0c0,1.177,0,2.35,0,3.527
	s0,2.351,0,3.526c0,0.588,0,1.175,0,1.763c0,0.394,0,0.786,0,1.176c1.178,0,2.353,0,3.527,0c0.589,0,1.178,0,1.767,0
	c0.389,0,0.781,0,1.175,0c0-1.176,0-2.351,0-3.524c1.566,0,3.136,0,4.702,0c0.784,0,1.565,0,2.353,0c0.391,0,0.781,0,1.174,0
	c0.589,0,1.176,0,1.764,0c0,0.586,0,1.174,0,1.761c0,0.197,0,0.391,0,0.588c0,0.174-0.039,0.423,0,0.59
	c0.025,0.104-0.07,0.516,0,0.586c0.098,0.098,0.472-0.076,0.589,0c0.784,0,1.567,0,2.352,0c0-1.566,0-3.136,0-4.701
	c0-1.569,0-3.136,0-4.704c0-0.194,0-0.393,0-0.587c0.587,0,1.174,0,1.762,0c0.591,0,1.177,0,1.765,0c0-1.178,0-2.352,0-3.527
	c0.588,0,1.175,0,1.762,0c0.588,0,1.179,0,1.768,0c0.39,0,0.781,0,1.174,0c0.588,0,1.175,0,1.763,0c0,0.586,0,1.176,0,1.763
	s0,1.177,0,1.765c1.177,0,2.353,0,3.527,0c0,1.177,0,2.35,0,3.527c0,0.587,0,1.178,0,1.764c0,0.392,0,0.784,0,1.177
	c0.392,0,0.783,0,1.178,0c0.588,0,1.174,0,1.762,0c0-1.763,0-3.527,0-5.291c0-0.393,0-0.784,0-1.177c1.175,0,2.351,0,3.529,0
	c0.588,0,1.174,0,1.762,0c0.392,0,0.782,0,1.175,0c0-1.178,0-2.352,0-3.527c-0.393,0-0.783,0-1.175,0s-0.784,0-1.174,0
	c-0.588,0-1.176,0-1.767,0c-0.782,0-1.567,0-2.351,0c0-0.393,0-0.785,0-1.178c0-0.586,0-1.173,0-1.763c-3.136,0-6.271,0-9.403,0
	c0-1.174,0-2.351,0-3.525c-0.394,0-0.787,0-1.18,0c-0.781,0-1.563,0-2.35,0c0-0.395,0-0.784,0-1.176c0-0.589,0-1.175,0-1.764
	c-1.174,0-2.353,0-3.526,0c0-0.393,0-0.785,0-1.175c0-1.764,0-3.527,0-5.291c-0.393,0-0.784,0-1.175,0c-0.59,0-1.177,0-1.766,0
	c0-1.176,0-2.353,0-3.528c-0.391,0-0.783,0-1.175,0c-0.784,0-1.567,0-2.351,0c0-0.392,0-0.783,0-1.176c0-0.587,0-1.177,0-1.764
	c-0.395,0-0.784,0-1.176,0c-0.394,0-0.786,0-1.177,0c-0.588,0-1.176,0-1.762,0c-0.786,0-1.569,0-2.353,0c0-0.392,0-0.784,0-1.174
	c0-0.785,0-1.568,0-2.353c-3.136,0-6.272,0-9.406,0c0-0.392,0-0.785,0-1.175c0-0.785,0-1.568,0-2.353c-5.487,0-10.974,0-16.46,0
	c0,1.176,0,2.353,0,3.527c-1.569,0-3.137,0-4.702,0c-1.766,0-3.527,0-5.291,0c0,0.394,0,0.785,0,1.175c0,0.785,0,1.568,0,2.353
	c-0.395,0-0.786,0-1.178,0c-0.587,0-1.175,0-1.762,0c0,0.393,0,0.783,0,1.176c0,0.587,0,1.175,0,1.763c-2.353,0-4.701,0-7.055,0
	c0,1.567,0,3.135,0,4.703C6.466,15.285,6.466,15.872,6.466,16.46z"/>
<path fill-rule="evenodd" clip-rule="evenodd" fill="#E96224" d="M19.985,16.46c0,1.176,0,2.353,0,3.528c0.588,0,1.178,0,1.766,0
	c0.391,0,0.783,0,1.176,0c0-1.175,0-2.352,0-3.528c4.311,0,8.62,0,12.931,0c0,1.176,0,2.353,0,3.528c1.766,0,3.529,0,5.291,0
	c0.588,0,1.176,0,1.765,0c0,0.392,0,0.783,0,1.175c0,0.19-0.023,0.401,0,0.589c0.021,0.188,0,0.397,0,0.587
	c0,0.07-0.046,0.55,0,0.589c0.119,0.094,0.455-0.078,0.588,0c0.391,0,0.783,0,1.176,0c0.392,0,0.782,0,1.174,0
	c0-0.395,0-0.784,0-1.176c0-0.589,0-1.175,0-1.764c0-1.175,0-2.352,0-3.528c-0.392,0-0.782,0-1.174,0c-0.588,0-1.176,0-1.764,0
	c0-0.393,0-0.782,0-1.175c0-0.588,0-1.176,0-1.763c-0.195,0-0.393,0-0.589,0c-0.783,0-1.566,0-2.35,0c-0.394,0-0.785,0-1.177,0
	c-0.587,0-1.175,0-1.764,0c-0.393,0-0.784,0-1.177,0c-0.587,0-1.175,0-1.762,0c-0.392,0-0.782,0-1.178,0c-0.587,0-1.174,0-1.762,0
	c-3.725,0-7.447,0-11.171,0c0,0.391,0,0.782,0,1.175C19.985,15.285,19.985,15.872,19.985,16.46z"/>
<path fill-rule="evenodd" clip-rule="evenodd" fill="#46150D" d="M6.466,16.46c0,1.764,0,3.528,0,5.292c0,0.392,0,0.782,0,1.176
	c1.173,0,2.354,0,3.527,0c0,1.174,0,2.351,0,3.525c1.175,0,2.354,0,3.527,0c0.587,0,1.175,0,1.762,0c0.392,0,0.783,0,1.178,0
	c0-1.174,0-2.351,0-3.525c1.175,0,2.352,0,3.525,0c0-0.589,0-1.176,0-1.765c0-0.392,0-0.783,0-1.175c0-1.175,0-2.352,0-3.528
	c-0.392,0-0.783,0-1.174,0c-0.588,0-1.177,0-1.764,0c-0.134-0.076-0.471,0.096-0.588,0c-0.048-0.038,0-0.519,0-0.588
	c0-0.194,0-0.39,0-0.586c0-0.588,0-1.176,0-1.763c-0.59,0-1.178,0-1.765,0c-0.588,0-1.175,0-1.765,0c-0.393,0-0.78,0-1.176,0
	c-0.587,0-1.174,0-1.762,0c0,0.391,0,0.782,0,1.175c0,0.588,0,1.175,0,1.763C8.819,16.46,7.639,16.46,6.466,16.46z"/>
<path fill-rule="evenodd" clip-rule="evenodd" fill="#F47920" d="M19.985,19.988c0,0.392,0,0.783,0,1.175c0,0.589,0,1.176,0,1.765
	c-1.174,0-2.351,0-3.525,0c0,1.174,0,2.351,0,3.525c0,0.59,0,1.177,0,1.763c0,0.393,0,0.785,0,1.178c0,0.586,0,1.176,0,1.763
	c0,0.393,0,0.786,0,1.177c0,1.959,0,3.917,0,5.879c0,0.392,0,0.784,0,1.177c1.175,0,2.352,0,3.525,0c0,0.586,0,1.174,0,1.761
	c0,0.588,0,1.178,0,1.764c1.178,0,2.354,0,3.528,0c0.587,0,1.176,0,1.765,0c0.392,0,0.782,0,1.175,0c1.174,0,2.351,0,3.528,0
	c0.587,0,1.175,0,1.763,0c0.391,0,0.782,0,1.174,0c0-1.176,0-2.351,0-3.524c-1.174,0-2.35,0-3.523,0c0-0.59,0-1.177,0-1.763
	c0-0.394,0-0.785,0-1.178c-0.591,0-1.179,0-1.768,0c-0.39,0-0.782,0-1.174,0c0-1.178,0-2.351,0-3.527c-1.764,0-3.526,0-5.29,0
	c-0.392,0-0.785,0-1.178,0c0-0.588,0-1.178,0-1.765s0-1.177,0-1.763c1.569,0,3.136,0,4.704,0c1.569,0,3.136,0,4.705,0
	c0,2.35,0,4.704,0,7.055c1.174,0,2.35,0,3.523,0c0.591,0,1.178,0,1.765,0c0.393,0,0.784,0,1.175,0c1.766,0,3.529,0,5.291,0
	c1.569,0,3.136,0,4.702,0c0-1.178,0-2.351,0-3.527c0-1.765,0-3.527,0-5.291c0-1.567,0-3.135,0-4.702c-0.392,0-0.782,0-1.174,0
	c-0.393,0-0.785,0-1.176,0c-0.133-0.078-0.469,0.094-0.588,0c-0.046-0.039,0-0.519,0-0.589c0-0.19,0.021-0.4,0-0.587
	c-0.023-0.188,0-0.399,0-0.589c0-0.392,0-0.783,0-1.175c-0.589,0-1.177,0-1.765,0c-1.762,0-3.525,0-5.291,0c0-1.175,0-2.352,0-3.528
	c-4.311,0-8.62,0-12.931,0c0,1.176,0,2.353,0,3.528c-0.393,0-0.785,0-1.176,0C21.163,19.988,20.573,19.988,19.985,19.988z"/>
<path fill-rule="evenodd" clip-rule="evenodd" fill="#D54C27" d="M6.466,16.46c-0.393,0-0.784,0-1.176,0c-0.588,0-1.174,0-1.764,0
	c0,1.176,0,2.353,0,3.528c-1.176,0-2.352,0-3.526,0c0,0.392,0,0.783,0,1.175c0,0.393,0,0.785,0,1.176c0,0.589,0,1.176,0,1.763
	c0,0.393,0,0.785,0,1.176c0,0.588,0,1.174,0,1.765c0,0.392,0,0.784,0,1.173c0,0.59,0,1.178,0,1.764c0,0.59,0,1.177,0,1.764
	c0,0.59,0,1.178,0,1.765c0,0.392,0,0.784,0,1.177c0,0.586,0,1.177,0,1.764c0,0.393,0,0.784,0,1.178c0,0.586,0,1.173,0,1.763
	c0,0.389,0,0.781,0,1.174c0,0.587,0,1.175,0,1.765c0,1.177,0,2.35,0,3.525c1.175,0,2.351,0,3.526,0c0,0.394,0,0.787,0,1.178
	c0,1.763,0,3.526,0,5.292c0.392,0,0.781,0,1.176,0c0.588,0,1.177,0,1.764,0c0,0.388,0,0.781,0,1.173c0,1.764,0,3.527,0,5.29
	c1.173,0,2.354,0,3.527,0c0,1.178,0,2.351,0,3.529c0.392,0,0.784,0,1.175,0c0.587,0,1.179,0,1.763,0c0.394,0,0.786,0,1.177,0
	c0.784,0,1.566,0,2.353,0c0,0.391,0,0.783,0,1.178c0,0.778,0,1.565,0,2.349c3.525,0,7.054,0,10.582,0c3.526,0,7.054,0,10.581,0
	c3.525,0,7.054,0,10.58,0c3.528,0,7.055,0,10.583,0c3.525,0,7.053,0,10.58,0c3.526,0,7.055,0,10.583,0c3.523,0,7.053,0,10.58,0
	c3.724,0,7.446,0,11.17,0c0-0.783,0-1.57,0-2.349c0-0.395,0-0.787,0-1.178c-0.393,0-0.783,0-1.174,0c-0.788,0-1.569,0-2.354,0
	c0-0.588,0-1.179,0-1.766c0-0.39,0-0.785,0-1.177c0.077-0.129-0.097-0.47,0-0.587c0.038-0.044,0.518,0,0.587,0
	c0.197,0,0.392,0,0.589,0c0.783,0,1.568,0,2.352,0c0-0.393,0-0.783,0-1.176c0-0.587,0-1.173,0-1.762c0-1.177,0-2.353,0-3.525
	c0-0.393,0-0.784,0-1.178c0-1.763,0-3.527,0-5.292c-1.174,0-2.352,0-3.527,0c0-0.393,0-0.783,0-1.176c0-0.586,0-1.173,0-1.764
	c0-1.176,0-2.351,0-3.524c-1.176,0-2.353,0-3.527,0c0,1.174,0,2.349,0,3.524c-0.392,0-0.784,0-1.176,0c-0.587,0-1.173,0-1.766,0
	c0-1.176,0-2.351,0-3.524c0.593,0,1.179,0,1.766,0c0.392,0,0.784,0,1.176,0c0-0.393,0-0.785,0-1.177c0-0.586,0-1.177,0-1.764
	c-0.392,0-0.784,0-1.176,0c-0.587,0-1.173,0-1.766,0c0-0.587,0-1.178,0-1.764c0-0.587,0-1.177,0-1.764c-1.174,0-2.35,0-3.526,0
	c0,0.587,0,1.177,0,1.764c0,0.392,0,0.785,0,1.177c0,0.587,0,1.174,0,1.765c0,0.586,0,1.173,0,1.763c-0.588,0-1.175,0-1.763,0
	c-0.392,0-0.783,0-1.174,0c0,1.566,0,3.135,0,4.702c0,0.586,0,1.175,0,1.762c-0.588,0-1.179,0-1.768,0c-0.587,0-1.173,0-1.762,0
	c0,1.178,0,2.353,0,3.529c-1.174,0-2.35,0-3.526,0c-0.588,0-1.176,0-1.764,0c-0.39,0-0.782,0-1.177,0c-0.588,0-1.175,0-1.763,0
	c-0.393,0-0.784,0-1.174,0c-0.787,0-1.569,0-2.354,0c-0.196,0-0.389,0-0.587,0c-0.195,0-0.39,0-0.588,0c0-0.589,0-1.177,0-1.765
	c0-0.194,0-0.392,0-0.587c0-0.172,0.042-0.42,0-0.591c-0.024-0.101,0.073-0.513,0-0.587c-0.1-0.098-0.469,0.081-0.588,0
	c-0.392,0-0.782,0-1.177,0c-0.588,0-1.175,0-1.762,0c0,1.57,0,3.136,0,4.704c0,0.588,0,1.175,0,1.766c-0.587,0-1.175,0-1.765,0
	c-0.392,0-0.783,0-1.176,0c0,0.587,0,1.173,0,1.762c0,0.587,0,1.175,0,1.764c-0.588,0-1.175,0-1.764,0c-0.588,0-1.174,0-1.762,0
	c-0.591,0-1.176,0-1.765,0c-0.393,0-0.783,0-1.176,0c0,0.589,0,1.175,0,1.762c0,0.393,0,0.783,0,1.176c-1.174,0-2.353,0-3.526,0
	c0,1.178,0,2.351,0,3.529c-3.136,0-6.272,0-9.406,0c-3.135,0-6.271,0-9.404,0c-0.195,0-0.395,0-0.591,0c0-1.179,0-2.352,0-3.529
	c-1.566,0-3.134,0-4.702,0c-0.784,0-1.568,0-2.351,0c-0.392,0-0.782,0-1.176,0c-0.589,0-1.176,0-1.763,0c0-0.587,0-1.176,0-1.763
	c0-0.393,0-0.786,0-1.175c-1.764,0-3.53,0-5.292,0c-0.392,0-0.783,0-1.175,0c0-1.177,0-2.353,0-3.525c0-0.591,0-1.178,0-1.766
	c0-0.392,0-0.785,0-1.175c-0.59,0-1.178,0-1.765,0c-0.392,0-0.783,0-1.175,0c0-1.765,0-3.529,0-5.291c0-0.393,0-0.785,0-1.178
	c-1.174,0-2.353,0-3.527,0c0-5.486,0-10.971,0-16.46c0-1.174,0-2.351,0-3.525c-1.174,0-2.354,0-3.527,0c0-0.395,0-0.784,0-1.176
	C6.466,19.988,6.466,18.224,6.466,16.46z"/>
<path fill-rule="evenodd" clip-rule="evenodd" fill="#E96224" d="M45.851,22.928c0,1.567,0,3.135,0,4.702c0,1.764,0,3.526,0,5.291
	c1.178,0,2.353,0,3.527,0c0-0.195,0-0.393,0-0.588c0-3.135,0-6.27,0-9.405C48.203,22.928,47.028,22.928,45.851,22.928z"/>
<path fill-rule="evenodd" clip-rule="evenodd" fill="#E96224" d="M16.46,26.453c-0.395,0-0.786,0-1.178,0c-0.587,0-1.175,0-1.762,0
	c-1.174,0-2.353,0-3.527,0c0,5.49,0,10.974,0,16.46c1.175,0,2.354,0,3.527,0c0,0.393,0,0.785,0,1.178c0,1.762,0,3.526,0,5.291
	c0.392,0,0.783,0,1.175,0c0.587,0,1.175,0,1.765,0c0,0.39,0,0.783,0,1.175c0,0.588,0,1.175,0,1.766c0,1.173,0,2.349,0,3.525
	c0.392,0,0.783,0,1.175,0c1.762,0,3.528,0,5.292,0c0,0.389,0,0.782,0,1.175c0,0.587,0,1.176,0,1.763c0.587,0,1.174,0,1.763,0
	c0.394,0,0.784,0,1.176,0c0.782,0,1.566,0,2.351,0c1.568,0,3.136,0,4.702,0c0,1.178,0,2.351,0,3.529c0.196,0,0.396,0,0.591,0
	c3.133,0,6.27,0,9.404,0c3.134,0,6.271,0,9.406,0c0-1.179,0-2.352,0-3.529c1.174,0,2.353,0,3.526,0c0-0.393,0-0.783,0-1.176
	c0-0.587,0-1.173,0-1.762c-1.174,0-2.353,0-3.526,0c0-1.177,0-2.353,0-3.525c-0.588,0-1.175,0-1.764,0c-0.394,0-0.784,0-1.178,0
	c0-3.136,0-6.274,0-9.409c-1.175,0-2.35,0-3.527,0c0-0.39,0-0.782,0-1.176c0-0.588,0-1.175,0-1.763c0-1.176,0-2.349,0-3.526
	c-1.566,0-3.133,0-4.702,0c-1.762,0-3.525,0-5.291,0c0,0.784,0,1.566,0,2.351c0,0.197,0,0.393,0,0.59c-0.587,0-1.175,0-1.762,0
	c-0.392,0-0.782,0-1.178,0c0,1.174,0,2.349,0,3.524c-0.392,0-0.783,0-1.174,0c-0.588,0-1.176,0-1.763,0c-1.178,0-2.354,0-3.528,0
	c-0.393,0-0.783,0-1.175,0c-0.589,0-1.178,0-1.765,0c-1.175,0-2.351,0-3.528,0c0-0.586,0-1.176,0-1.764c0-0.587,0-1.175,0-1.761
	c-1.174,0-2.351,0-3.525,0c0-0.393,0-0.785,0-1.177c0-1.962,0-3.92,0-5.879c0-0.391,0-0.784,0-1.177c0-0.587,0-1.177,0-1.763
	c0-0.393,0-0.785,0-1.178C16.46,27.63,16.46,27.043,16.46,26.453z"/>
<path fill-rule="evenodd" clip-rule="evenodd" fill="#E96224" d="M65.252,42.913c0,0.591,0,1.178,0,1.764c0,0.393,0,0.783,0,1.176
	c0.587,0,1.174,0,1.762,0c0.395,0,0.785,0,1.177,0c0.119,0.081,0.488-0.098,0.588,0c0.073,0.074-0.024,0.486,0,0.587
	c0.042,0.171,0,0.419,0,0.591c0,0.195,0,0.393,0,0.587c0,0.588,0,1.176,0,1.765c0.198,0,0.393,0,0.588,0c0.198,0,0.391,0,0.587,0
	c0.785,0,1.567,0,2.354,0c0.39,0,0.781,0,1.174,0c0.588,0,1.175,0,1.763,0c0.395,0,0.787,0,1.177,0c0.588,0,1.176,0,1.764,0
	c1.177,0,2.353,0,3.526,0c0-1.177,0-2.352,0-3.529c0.589,0,1.175,0,1.762,0c0.589,0,1.18,0,1.768,0c0-0.587,0-1.176,0-1.762
	c0-1.567,0-3.136,0-4.702c-1.179,0-2.354,0-3.529,0c-0.588,0-1.174,0-1.762,0c-0.395,0-0.786,0-1.178,0c0-0.393,0-0.785,0-1.177
	c0-0.586,0-1.177,0-1.764c0-1.178,0-2.351,0-3.527c-1.175,0-2.351,0-3.527,0c0-0.588,0-1.178,0-1.765s0-1.177,0-1.763
	c-0.588,0-1.175,0-1.763,0c-0.393,0-0.784,0-1.174,0c-0.589,0-1.18,0-1.768,0c-0.587,0-1.174,0-1.762,0c0,1.176,0,2.35,0,3.527
	c-0.588,0-1.174,0-1.765,0c-0.588,0-1.175,0-1.762,0c0,0.194,0,0.393,0,0.587c0,1.568,0,3.135,0,4.704
	C65.252,39.777,65.252,41.347,65.252,42.913z"/>
<path fill-rule="evenodd" clip-rule="evenodd" fill="#46150D" d="M29.395,36.448c0-2.351,0-4.705,0-7.055c-1.569,0-3.136,0-4.705,0
	c-1.568,0-3.135,0-4.704,0c0,0.586,0,1.176,0,1.763s0,1.177,0,1.765c0.393,0,0.786,0,1.178,0c1.764,0,3.526,0,5.29,0
	c0,1.177,0,2.35,0,3.527c0.392,0,0.784,0,1.174,0C28.216,36.448,28.804,36.448,29.395,36.448z"/>
<path fill-rule="evenodd" clip-rule="evenodd" fill="#5E523B" d="M88.177,32.921c-0.393,0-0.783,0-1.175,0c-0.588,0-1.174,0-1.762,0
	c-1.179,0-2.354,0-3.529,0c0,0.393,0,0.784,0,1.177c0,1.764,0,3.528,0,5.291c1.175,0,2.351,0,3.529,0c0.391,0,0.782,0,1.174,0
	c0.588,0,1.175,0,1.763,0c0-0.59,0-1.177,0-1.763c0-0.591,0-1.178,0-1.765c0-0.392,0-0.785,0-1.177
	C88.177,34.098,88.177,33.508,88.177,32.921z"/>
<path fill-rule="evenodd" clip-rule="evenodd" fill="#46150D" d="M35.857,36.448c-0.391,0-0.782,0-1.175,0c-0.587,0-1.174,0-1.765,0
	c-1.174,0-2.35,0-3.523,0c0,0.393,0,0.784,0,1.178c0,0.586,0,1.173,0,1.763c1.174,0,2.35,0,3.523,0c0.396,0,0.786,0,1.178,0
	c0.587,0,1.175,0,1.762,0c0-0.197,0-0.393,0-0.59C35.857,38.015,35.857,37.232,35.857,36.448z"/>
<path fill-rule="evenodd" clip-rule="evenodd" fill="#5E523B" d="M94.645,39.389c-0.392,0-0.784,0-1.176,0c-0.587,0-1.173,0-1.766,0
	c0,1.174,0,2.349,0,3.524c0.593,0,1.179,0,1.766,0c0.392,0,0.784,0,1.176,0C94.645,41.737,94.645,40.563,94.645,39.389z"/>
<path fill-rule="evenodd" clip-rule="evenodd" fill="#46150D" d="M49.378,42.913c0,3.135,0,6.273,0,9.409c0.394,0,0.784,0,1.178,0
	c0.589,0,1.176,0,1.764,0c0,1.173,0,2.349,0,3.525c1.174,0,2.353,0,3.526,0c0.393,0,0.783,0,1.176,0c0.589,0,1.174,0,1.765,0
	c0.588,0,1.174,0,1.762,0c0.589,0,1.176,0,1.764,0c0-0.589,0-1.177,0-1.764c0-0.589,0-1.175,0-1.762c0.393,0,0.784,0,1.176,0
	c0.59,0,1.178,0,1.765,0c0-0.591,0-1.178,0-1.766c0-1.568,0-3.134,0-4.704c0-0.393,0-0.783,0-1.176c0-0.586,0-1.173,0-1.764
	c-0.784,0-1.567,0-2.352,0c-0.117-0.076-0.491,0.098-0.589,0c-0.07-0.07,0.025-0.482,0-0.586c-0.039-0.167,0-0.416,0-0.59
	c0-0.197,0-0.391,0-0.588c0-0.587,0-1.175,0-1.761c-0.588,0-1.175,0-1.764,0c-0.393,0-0.783,0-1.174,0c-0.787,0-1.568,0-2.353,0
	c-1.566,0-3.136,0-4.702,0c0,1.174,0,2.349,0,3.524c-0.394,0-0.786,0-1.175,0C50.556,42.913,49.967,42.913,49.378,42.913z"/>
</svg>
