<?xml version="1.0" encoding="utf-8"?>
<!-- Generator: Adobe Illustrator 15.0.0, SVG Export Plug-In  -->
<!DOCTYPE svg PUBLIC "-//W3C//DTD SVG 1.1//EN" "http://www.w3.org/Graphics/SVG/1.1/DTD/svg11.dtd" [
	<!ENTITY ns_flows "http://ns.adobe.com/Flows/1.0/">
]>
<svg version="1.1"
	 xmlns="http://www.w3.org/2000/svg" xmlns:xlink="http://www.w3.org/1999/xlink" xmlns:a="http://ns.adobe.com/AdobeSVGViewerExtensions/3.0/"
	 x="0px" y="0px" width="120px" height="80px" viewBox="-14.769 -4.753 120 80" enable-background="new -14.769 -4.753 120 80"
	 xml:space="preserve">
<defs>
</defs>
<path fill-rule="evenodd" clip-rule="evenodd" fill="#D54C27" d="M67.016,6.467c0.389,0,0.782,0,1.175,0c0,3.331,0,6.663,0,9.993
	c-0.588,0-1.175,0-1.763,0c-0.392,0-0.785,0-1.178,0c0,3.137,0,6.271,0,9.405c0.591,0,1.178,0,1.766,0c0.389,0,0.782,0,1.175,0
	c0,1.176,0,2.353,0,3.528c0.785,0,1.569,0,2.352,0c0.393,0,0.784,0,1.175,0c0,0.588,0,1.175,0,1.764c0,0.392,0,0.782,0,1.176
	c0.587,0,1.178,0,1.765,0c0.393,0,0.786,0,1.179,0c0,1.765,0,3.525,0,5.288c0,0.393,0,0.785,0,1.178c1.173,0,2.351,0,3.522,0
	c0,1.176,0,2.35,0,3.527c0.591,0,1.177,0,1.765,0c0.392,0,0.784,0,1.176,0c0,1.764,0,3.527,0,5.291c0,0.392,0,0.784,0,1.177
	c1.18,0,2.352,0,3.528,0c0,5.484,0,10.972,0,16.459c-0.785,0-1.569,0-2.349,0c-0.394,0-0.786,0-1.18,0c0,0.389,0,0.782,0,1.175
	c0,0.392,0,0.783,0,1.176c0.08,0.119-0.099,0.489,0,0.587c0.074,0.073,0.485-0.024,0.589,0c0.169,0.042,0.415,0,0.591,0
	c0.192,0,0.389,0,0.585,0c0.587,0,1.177,0,1.764,0c0,0.785,0,1.571,0,2.351c0,0.393,0,0.786,0,1.179c0.781,0,1.57,0,2.35,0
	c0.59,0,1.178,0,1.765,0c0.391,0,0.783,0,1.176,0c0.392,0,0.785,0,1.178,0c0,1.178,0,2.35,0,3.526c-25.083,0-50.166,0-75.245,0
	c0-0.783,0-1.57,0-2.349c0-0.395,0-0.787,0-1.178c-0.785,0-1.569,0-2.355,0c-0.587,0-1.173,0-1.762,0c-0.394,0-0.782,0-1.176,0
	c-0.392,0-0.781,0-1.177,0c0-1.179,0-2.352,0-3.529c-0.586,0-1.177,0-1.763,0c-0.393,0-0.784,0-1.178,0c0-0.587,0-1.176,0-1.763
	c0-0.393,0-0.786,0-1.175c-0.78,0-1.564,0-2.35,0c-0.393,0-0.784,0-1.175,0c0-1.764,0-3.525,0-5.291c0-1.568,0-3.134,0-4.704
	c-0.59,0-1.175,0-1.762,0c-0.395,0-0.786,0-1.178,0c0-0.587,0-1.176,0-1.762c0-3.528,0-7.056,0-10.583c0-3.528,0-7.055,0-10.58
	c0.587,0,1.178,0,1.765,0c0.393,0,0.781,0,1.175,0c0-0.784,0-1.569,0-2.352c0-0.588,0-1.177,0-1.764c0-0.393,0-0.785,0-1.177
	c0-0.391,0-0.783,0-1.176c0.782,0,1.566,0,2.353,0c0.392,0,0.785,0,1.172,0c0-0.782,0-1.567,0-2.351c0-0.587,0-1.176,0-1.764
	c0-0.393,0-0.784,0-1.177c0-0.39,0-0.783,0-1.175c0.59,0,1.178,0,1.764,0c0.393,0,0.786,0,1.177,0c0-0.196,0-0.392,0-0.588
	c0-0.784,0-1.568,0-2.352c1.177,0,2.353,0,3.527,0c0-1.174,0-2.353,0-3.527c0.587,0,1.178,0,1.765,0c0.393,0,0.784,0,1.178,0
	c0-0.785,0-1.567,0-2.352c0-0.391,0-0.783,0-1.176c3.329,0,6.662,0,9.991,0c0-0.586,0-1.175,0-1.763c0-0.393,0-0.783,0-1.175
	c3.33,0,6.663,0,9.992,0c0-1.175,0-2.352,0-3.527c3.134,0,6.273,0,9.408,0c0-0.589,0-1.176,0-1.764c0-0.392,0-0.783,0-1.176
	c3.331,0,6.663,0,9.992,0c0,0.589,0,1.176,0,1.764c0,0.393,0,0.784,0,1.176c3.33,0,6.662,0,9.992,0c0,1.175,0,2.353,0,3.527
	c-2.152,0-4.309,0-6.465,0c0,2.156,0,4.31,0,6.466c-4.507,0-9.012,0-13.52,0c0,0.588,0,1.175,0,1.764c0,0.589,0,1.176,0,1.763
	c-0.392,0-0.783,0-1.177,0c-0.586,0-1.177,0-1.764,0c0,3.137,0,6.271,0,9.405c2.157,0,4.312,0,6.466,0c0,1.176,0,2.353,0,3.528
	c3.333,0,6.66,0,9.994,0c0-0.588,0-1.175,0-1.764c0-0.588,0-1.175,0-1.764c0.392,0,0.786,0,1.178,0c0.588,0,1.174,0,1.763,0
	c0-0.588,0-1.175,0-1.763c0-1.567,0-3.135,0-4.703c0-0.392,0-0.783,0-1.176c0-0.587,0-1.177,0-1.764c-0.393,0-0.784,0-1.175,0
	c-0.588,0-1.178,0-1.766,0c0-1.174,0-2.353,0-3.527c2.156,0,4.313,0,6.465,0c0-2.156,0-4.31,0-6.466
	C65.841,6.467,66.428,6.467,67.016,6.467z M38.797,25.866c-6.466,0-12.932,0-19.398,0c0,1.176,0,2.353,0,3.528
	c-1.175,0-2.353,0-3.524,0c0,0.783-0.006,1.568,0,2.351c0,0.194,0,0.391,0,0.589c-0.394,0-0.785,0-1.178,0c-0.587,0-1.178,0-1.765,0
	c0,1.174,0,2.351,0,3.525c-0.194,0-0.392,0-0.586,0c-1.371,0-2.747,0-4.118,0c-0.586,0-1.174,0-1.764,0c0,0.392,0,0.785,0,1.177
	c0,0.586,0,1.176,0,1.764c-0.586,0-1.172,0-1.763,0c-0.587,0-1.175,0-1.762,0c0,2.35,0,4.704,0,7.055c0.391,0,0.782,0,1.175,0
	c0.785,0,1.569,0,2.35,0c0,0.393,0,0.784,0,1.178c0,0.586,0,1.173,0,1.763c0.394,0,0.785,0,1.178,0c0.586,0,1.177,0,1.763,0
	c0,3.329,0,6.659,0,9.993c1.177,0,2.353,0,3.527,0c0,0.39,0,0.783,0,1.175c0,0.588,0,1.175,0,1.766c0,1.173,0,2.349,0,3.525
	c0.392,0,0.786,0,1.178,0c0.587,0,1.174,0,1.765,0c0,0.389,0,0.782,0,1.175c0,0.587,0,1.176,0,1.763c1.563,0,3.134,0,4.699,0
	c0.783,0,1.571,0,2.352,0c0.393,0,0.786,0,1.175,0c0.589,0,1.178,0,1.766,0c0,0.394,0,0.785,0,1.178c0,0.782,0,1.565,0,2.352
	c3.134,0,6.27,0,9.405,0c1.569,0,3.135,0,4.704,0c0.782,0,1.567,0,2.351,0c0.392,0,0.783,0,1.178,0c0.586,0,1.173,0,1.763,0
	c0-1.569,0-3.136,0-4.705c0-1.565,0-3.136,0-4.7c0-0.199,0-0.393,0-0.587c0.389,0,0.78,0,1.174,0c0.784,0,1.569,0,2.352,0
	c0-0.393,0-0.784,0-1.178c0-0.588,0-1.178,0-1.763c0.392,0,0.783,0,1.176,0c0.587,0,1.177,0,1.764,0c0-7.645,0-15.284,0-22.929
	c-0.392,0-0.785,0-1.177,0c-0.587,0-1.172,0-1.763,0c0-1.174,0-2.351,0-3.525c-1.174,0-2.352,0-3.525,0c-0.783,0-1.569,0-2.354,0
	c-0.195,0-0.394,0-0.587,0c0-0.395,0-0.784,0-1.176c0-0.589,0-1.175,0-1.764c-1.177,0-2.351,0-3.528,0
	C38.797,28.218,38.797,27.042,38.797,25.866z"/>
<path fill-rule="evenodd" clip-rule="evenodd" fill="#5E523B" d="M65.25,6.467c-2.152,0-4.309,0-6.465,0c0,2.156,0,4.31,0,6.466
	c2.156,0,4.313,0,6.465,0C65.25,10.777,65.25,8.623,65.25,6.467z"/>
<path fill-rule="evenodd" clip-rule="evenodd" fill="#E96224" d="M58.785,12.933c-4.507,0-9.012,0-13.52,0c0,0.588,0,1.175,0,1.764
	c0,0.589,0,1.176,0,1.763c-0.392,0-0.783,0-1.177,0c-0.586,0-1.177,0-1.764,0c0,3.137,0,6.271,0,9.405c2.157,0,4.312,0,6.466,0
	c0,1.176,0,2.353,0,3.528c3.333,0,6.66,0,9.994,0c0-0.588,0-1.175,0-1.764c0-0.588,0-1.175,0-1.764c0.392,0,0.786,0,1.178,0
	c0.588,0,1.174,0,1.763,0c0-0.588,0-1.175,0-1.763c0-1.567,0-3.135,0-4.703c-0.589,0-1.175,0-1.763,0c-0.392,0-0.786,0-1.178,0
	c0-0.588,0-1.176,0-1.763c0-0.393,0-0.784,0-1.176C58.785,15.286,58.785,14.108,58.785,12.933z"/>
<path fill-rule="evenodd" clip-rule="evenodd" fill="#5E523B" d="M58.785,16.46c0,0.393,0,0.783,0,1.176c0,0.587,0,1.175,0,1.763
	c0.392,0,0.786,0,1.178,0c0.588,0,1.174,0,1.763,0c0-0.392,0-0.783,0-1.176c0-0.587,0-1.177,0-1.764c-0.393,0-0.784,0-1.175,0
	C59.963,16.46,59.373,16.46,58.785,16.46z"/>
<path fill-rule="evenodd" clip-rule="evenodd" fill="#E96224" d="M12.932,35.858c0,0.59,0,1.177,0,1.763c0,0.393,0,0.785,0,1.178
	c0.587,0,1.178,0,1.765,0c0.393,0,0.784,0,1.178,0c0-0.588,0-1.178,0-1.764c0-0.393,0-0.785,0-1.177c4.506,0,9.012,0,13.518,0
	c0-0.586,0-1.174,0-1.76c0-0.59,0-1.177,0-1.765c0.394,0,0.787,0,1.178,0c0.587,0,1.173,0,1.762,0c0-0.589,0-1.176,0-1.765
	c0-0.392,0-0.783,0-1.175c2.155,0,4.312,0,6.466,0c0-1.175,0-2.352,0-3.528c-6.466,0-12.932,0-19.398,0c0,1.176,0,2.353,0,3.528
	c-1.175,0-2.353,0-3.524,0c0,0.783-0.006,1.568,0,2.351c0,0.194,0,0.391,0,0.589c-0.394,0-0.785,0-1.178,0c-0.587,0-1.178,0-1.765,0
	C12.932,33.508,12.932,34.684,12.932,35.858z"/>
<path fill-rule="evenodd" clip-rule="evenodd" fill="#46150D" d="M38.797,29.394c-2.154,0-4.311,0-6.466,0c0,0.392,0,0.783,0,1.175
	c0,0.589,0,1.176,0,1.765c-0.589,0-1.175,0-1.762,0c-0.391,0-0.784,0-1.178,0c0,0.587,0,1.174,0,1.765c0,0.586,0,1.174,0,1.76
	c0,1.763,0,3.527,0,5.291c0,0.393,0,0.785,0,1.178c0.587,0,1.178,0,1.765,0c0.392,0,0.786,0,1.175,0c0,0.587,0,1.177,0,1.764
	c0,0.586,0,1.177,0,1.764c1.177,0,2.354,0,3.526,0c0.59,0,1.177,0,1.763,0c0.394,0,0.785,0,1.177,0c1.178,0,2.352,0,3.528,0
	c0-0.587,0-1.178,0-1.764c0-0.587,0-1.177,0-1.764c0.587,0,1.178,0,1.764,0c0.394,0,0.785,0,1.177,0c0-1.765,0-3.527,0-5.291
	c0-1.567,0-3.135,0-4.702c-0.783,0-1.569,0-2.354,0c-0.195,0-0.394,0-0.587,0c0-0.395,0-0.784,0-1.176c0-0.589,0-1.175,0-1.764
	C41.148,29.394,39.975,29.394,38.797,29.394z"/>
<path fill-rule="evenodd" clip-rule="evenodd" fill="#E96224" d="M45.266,32.333c0,1.567,0,3.135,0,4.702c0,1.764,0,3.526,0,5.291
	c-0.392,0-0.783,0-1.177,0c-0.586,0-1.177,0-1.764,0c0,0.587,0,1.177,0,1.764c0,0.586,0,1.177,0,1.764c-1.177,0-2.351,0-3.528,0
	c0,1.566,0,3.134,0,4.701c0,0.588,0,1.178,0,1.764c-0.587,0-1.177,0-1.763,0c-0.392,0-0.783,0-1.177,0c0,0.591,0,1.178,0,1.764
	c0,0.393,0,0.783,0,1.176c0,0.587,0,1.178,0,1.765c0,0.588,0,1.176,0,1.765c-1.172,0-2.35,0-3.526,0c0,0.585,0,1.175,0,1.763
	c0,0.394,0,0.785,0,1.178c-1.175,0-2.353,0-3.526,0c-0.982,0-1.958,0-2.939,0c-0.979,0-1.958,0-2.94,0c-0.587,0-1.174,0-1.765,0
	c-0.587,0-1.172,0-1.762,0c0-0.591,0-1.178,0-1.766c0-0.392,0-0.785,0-1.175c-1.175,0-2.353,0-3.524,0c-0.981,0-1.961,0-2.942,0
	c0,0.39,0,0.783,0,1.175c0,0.588,0,1.175,0,1.766c0,1.173,0,2.349,0,3.525c0.392,0,0.786,0,1.178,0c0.587,0,1.174,0,1.765,0
	c0,0.389,0,0.782,0,1.175c0,0.587,0,1.176,0,1.763c1.563,0,3.134,0,4.699,0c0.783,0,1.571,0,2.352,0c0.393,0,0.786,0,1.175,0
	c0.589,0,1.178,0,1.766,0c0,0.394,0,0.785,0,1.178c0,0.782,0,1.565,0,2.352c3.134,0,6.27,0,9.405,0c1.569,0,3.135,0,4.704,0
	c0.782,0,1.567,0,2.351,0c0.392,0,0.783,0,1.178,0c0.586,0,1.173,0,1.763,0c0-1.569,0-3.136,0-4.705c0-1.565,0-3.136,0-4.7
	c0-0.199,0-0.393,0-0.587c0.389,0,0.78,0,1.174,0c0.784,0,1.569,0,2.352,0c0-0.393,0-0.784,0-1.178c0-0.588,0-1.178,0-1.763
	c0.392,0,0.783,0,1.176,0c0.587,0,1.177,0,1.764,0c0-7.645,0-15.284,0-22.929c-0.392,0-0.785,0-1.177,0c-0.587,0-1.172,0-1.763,0
	c0-1.174,0-2.351,0-3.525C47.617,32.333,46.439,32.333,45.266,32.333z"/>
<path fill-rule="evenodd" clip-rule="evenodd" fill="#F47920" d="M29.392,35.858c-4.506,0-9.012,0-13.518,0c0,0.392,0,0.785,0,1.177
	c0,0.586,0,1.176,0,1.764c0,2.35,0,4.704,0,7.055c1.172,0,2.35,0,3.524,0c0-1.178,0-2.351,0-3.527c1.762,0,3.526,0,5.29,0
	c0.392,0,0.784,0,1.177,0c0,0.393,0,0.784,0,1.177c0,0.781,0,1.566,0,2.351c-1.177,0-2.351,0-3.527,0c-0.981,0-1.958,0-2.939,0
	c0,0.587,0,1.178,0,1.764c0,0.392,0,0.784,0,1.177c-1.175,0-2.353,0-3.524,0c0-0.59,0-1.177,0-1.763c0-0.394,0-0.785,0-1.178
	c-0.591,0-1.178,0-1.765,0c-0.392,0-0.786,0-1.178,0c0,0.587,0,1.178,0,1.764c0,0.392,0,0.784,0,1.177c0,1.761,0,3.524,0,5.288
	c0,1.569,0,3.136,0,4.705c0.981,0,1.961,0,2.942,0c1.172,0,2.35,0,3.524,0c0,0.39,0,0.783,0,1.175c0,0.588,0,1.175,0,1.766
	c0.59,0,1.175,0,1.762,0c0.591,0,1.178,0,1.765,0c0.982,0,1.961,0,2.94,0c0.981,0,1.957,0,2.939,0c1.174,0,2.352,0,3.526,0
	c0-0.393,0-0.784,0-1.178c0-0.588,0-1.178,0-1.763c1.177,0,2.354,0,3.526,0c0-0.589,0-1.177,0-1.765c0-0.587,0-1.178,0-1.765
	c0-0.393,0-0.783,0-1.176c0-0.586,0-1.173,0-1.764c0.394,0,0.785,0,1.177,0c0.586,0,1.176,0,1.763,0c0-0.586,0-1.176,0-1.764
	c0-1.567,0-3.135,0-4.701c-0.392,0-0.783,0-1.177,0c-0.586,0-1.173,0-1.763,0c-1.172,0-2.35,0-3.526,0c0-0.587,0-1.178,0-1.764
	c0-0.587,0-1.177,0-1.764c-0.389,0-0.783,0-1.175,0c-0.587,0-1.178,0-1.765,0c0-0.393,0-0.785,0-1.178
	C29.392,39.385,29.392,37.622,29.392,35.858z"/>
<path fill-rule="evenodd" clip-rule="evenodd" fill="#46150D" d="M12.932,35.858c-0.194,0-0.392,0-0.586,0c-1.371,0-2.747,0-4.118,0
	c-0.586,0-1.174,0-1.764,0c0,0.392,0,0.785,0,1.177c0,0.586,0,1.176,0,1.764c-0.586,0-1.172,0-1.763,0c-0.587,0-1.175,0-1.762,0
	c0,2.35,0,4.704,0,7.055c0.391,0,0.782,0,1.175,0c0.785,0,1.569,0,2.35,0c0,0.393,0,0.784,0,1.178c0,0.586,0,1.173,0,1.763
	c0.394,0,0.785,0,1.178,0c0.586,0,1.177,0,1.763,0c1.177,0,2.353,0,3.527,0c0-0.393,0-0.785,0-1.177c0-0.586,0-1.177,0-1.764
	c0.392,0,0.786,0,1.178,0c0.587,0,1.174,0,1.765,0c0-2.351,0-4.705,0-7.055c-0.394,0-0.785,0-1.178,0c-0.587,0-1.178,0-1.765,0
	c0-0.393,0-0.785,0-1.178C12.932,37.036,12.932,36.449,12.932,35.858z"/>
<path fill-rule="evenodd" clip-rule="evenodd" fill="#46150D" d="M19.398,45.854c0.981,0,1.958,0,2.939,0c1.177,0,2.351,0,3.527,0
	c0-0.784,0-1.569,0-2.351c0-0.393,0-0.784,0-1.177c-0.393,0-0.785,0-1.177,0c-1.764,0-3.528,0-5.29,0
	C19.398,43.503,19.398,44.676,19.398,45.854z"/>
<path fill-rule="evenodd" clip-rule="evenodd" fill="#46150D" d="M19.398,45.854c-1.175,0-2.353,0-3.524,0c0,0.393,0,0.784,0,1.178
	c0,0.586,0,1.173,0,1.763c1.172,0,2.35,0,3.524,0c0-0.393,0-0.785,0-1.177C19.398,47.032,19.398,46.441,19.398,45.854z"/>
<path fill-rule="evenodd" clip-rule="evenodd" fill="#E96224" d="M12.932,48.794c-1.175,0-2.351,0-3.527,0c0,3.329,0,6.659,0,9.993
	c1.177,0,2.353,0,3.527,0c0-1.569,0-3.136,0-4.705C12.932,52.319,12.932,50.555,12.932,48.794z"/>
</svg>
