<?xml version="1.0" encoding="utf-8"?>
<!-- Generator: Adobe Illustrator 15.0.0, SVG Export Plug-In  -->
<!DOCTYPE svg PUBLIC "-//W3C//DTD SVG 1.1//EN" "http://www.w3.org/Graphics/SVG/1.1/DTD/svg11.dtd" [
	<!ENTITY ns_flows "http://ns.adobe.com/Flows/1.0/">
]>
<svg version="1.1"
	 xmlns="http://www.w3.org/2000/svg" xmlns:xlink="http://www.w3.org/1999/xlink" xmlns:a="http://ns.adobe.com/AdobeSVGViewerExtensions/3.0/"
	 x="0px" y="0px" width="120px" height="80px" viewBox="-8.134 -17.687 120 80" enable-background="new -8.134 -17.687 120 80"
	 xml:space="preserve">
<defs>
</defs>
<path fill-rule="evenodd" clip-rule="evenodd" fill="#D54C27" d="M93.471,19.4c0.392,0,0.782,0,1.175,0c0,1.765,0,3.525,0,5.288
	c0,0.393,0,0.785,0,1.178c1.176,0,2.352,0,3.526,0c0,2.35,0,4.704,0,7.055c0.589,0,1.178,0,1.766,0c0.391,0,0.782,0,1.174,0
	c0,0.587,0,1.178,0,1.764c0,0.392,0,0.784,0,1.177c0.785,0,1.569,0,2.353,0c0.392,0,0.784,0,1.175,0c0,5.484,0,10.972,0,16.459
	c-1.175,0-2.352,0-3.527,0c0,0.589,0,1.175,0,1.762c0,0.393,0,0.783,0,1.176c-0.587,0-1.174,0-1.762,0c-0.394,0-0.784,0-1.178,0
	c0,0.587,0,1.178,0,1.764c0,0.587,0,1.178,0,1.766c0.589,0,1.178,0,1.766,0c0.136,0,0.465-0.059,0.587,0
	c0.117,0.055,0.501-0.091,0.587,0c0.058,0.056-0.005,0.498,0,0.587c0.011,0.196-0.007,0.389,0,0.591c0,0.778,0,1.565,0,2.349
	c-3.527,0-7.054,0-10.58,0s-7.055,0-10.582,0s-7.055,0-10.581,0c-3.525,0-7.054,0-10.581,0s-7.055,0-10.584,0
	c-3.523,0-7.052,0-10.579,0s-7.055,0-10.583,0c-3.524,0-7.053,0-10.579,0c0-0.783,0-1.57,0-2.349c0-0.395,0-0.787,0-1.178
	c-0.786,0-1.567,0-2.354,0c-0.39,0-0.782,0-1.175,0c-0.589,0-1.175,0-1.764,0c-0.393,0-0.784,0-1.175,0c0-0.786,0-1.569,0-2.352
	c0-0.393,0-0.784,0-1.178c-0.785,0-1.566,0-2.353,0c-0.391,0-0.783,0-1.177,0c0-1.763,0-3.526,0-5.29c0-0.392,0-0.785,0-1.173
	c-0.587,0-1.174,0-1.762,0c-0.395,0-0.782,0-1.176,0c0-1.766,0-3.529,0-5.292c0-0.391,0-0.784,0-1.178c-1.174,0-2.352,0-3.528,0
	c0-1.176,0-2.349,0-3.525c0-0.59,0-1.178,0-1.765c0-0.393,0-0.785,0-1.174c0-2.156,0-4.313,0-6.468c0-4.313,0-8.622,0-12.933
	c0.786,0,1.567,0,2.354,0c0.389,0,0.781,0,1.174,0c0-0.785,0-1.568,0-2.352c0-0.587,0-1.176,0-1.764c0-0.39,0-0.783,0-1.175
	c0-0.393,0-0.784,0-1.175c0.587,0,1.176,0,1.764,0c0.393,0,0.784,0,1.174,0c0-0.785,0-1.569,0-2.353c0-0.39,0-0.783,0-1.175
	c1.177,0,2.354,0,3.529,0c0-0.588,0-1.176,0-1.763c0-0.393,0-0.784,0-1.176c0.59,0,1.175,0,1.764,0c0.393,0,0.783,0,1.175,0
	c0-0.784,0-1.568,0-2.353c0-0.39,0-0.781,0-1.175c5.487,0,10.973,0,16.461,0c0,0.785,0,1.568,0,2.353c0,0.39,0,0.783,0,1.174
	c0.196,0,0.392,0,0.589,0c3.133,0,6.27,0,9.403,0c0,1.176,0,2.352,0,3.528c0,0.586,0,1.175,0,1.763c0,0.392,0,0.784,0,1.176
	c0.589,0,1.177,0,1.765,0c0.392,0,0.783,0,1.175,0c0,0.587,0,1.175,0,1.763c0,0.393,0,0.782,0,1.175c0.786,0,1.567,0,2.354,0
	c0.391,0,0.781,0,1.175,0c0,1.176,0,2.353,0,3.528c0.589,0,1.175,0,1.763,0c0.394,0,0.783,0,1.175,0c0,0.588,0,1.175,0,1.764
	c0,0.392,0,0.782,0,1.176c0.786,0,1.567,0,2.354,0c0.587,0,1.175,0,1.764,0c0.392,0,0.781,0,1.175,0c0.392,0,0.784,0,1.176,0
	c0,0.783,0,1.567,0,2.351c0,0.393,0,0.785,0,1.174c0.196,0,0.393,0,0.587,0c1.766,0,3.529,0,5.292,0c0.392,0,0.783,0,1.176,0
	c1.763,0,3.528,0,5.291,0c0.392,0,0.784,0,1.175,0c0-1.174,0-2.351,0-3.525c0.588,0,1.174,0,1.764,0c0.392,0,0.783,0,1.177,0
	c0-0.198,0-0.395,0-0.589c0-0.783,0-1.568,0-2.351c1.174,0,2.352,0,3.526,0c0.979,0,1.96,0,2.939,0c0,0.392,0,0.783,0,1.175
	c0,0.589,0,1.176,0,1.765c1.175,0,2.352,0,3.526,0c0-0.589,0-1.176,0-1.765c0-0.392,0-0.783,0-1.175c-1.175,0-2.352,0-3.526,0
	c0-1.175,0-2.352,0-3.528c4.507,0,9.014,0,13.52,0c0,1.176,0,2.353,0,3.528c-2.352,0-4.701,0-7.056,0c0,2.156,0,4.312,0,6.465
	c1.178,0,2.354,0,3.529,0s2.352,0,3.526,0c0-1.174,0-2.351,0-3.525C92.294,19.4,92.883,19.4,93.471,19.4z M39.387,24.688
	c0-0.586,0-1.173,0-1.763c0-1.174,0-2.351,0-3.525c-0.392,0-0.783,0-1.174,0c-0.786,0-1.568,0-2.354,0c0-0.395,0-0.784,0-1.176
	c0-0.589,0-1.175,0-1.764c-0.39,0-0.781,0-1.174,0c-0.588,0-1.177,0-1.764,0c0-1.175,0-2.352,0-3.528c-6.661,0-13.325,0-19.987,0
	c0,1.176,0,2.353,0,3.528c-0.392,0-0.782,0-1.175,0c-0.589,0-1.174,0-1.764,0c0,0.392,0,0.783,0,1.175c0,0.589,0,1.176,0,1.765
	c0,1.174,0,2.351,0,3.525c-1.175,0-2.353,0-3.529,0c0,3.527,0,7.055,0,10.583s0,7.056,0,10.582c0,0.588,0,1.176,0,1.765
	c0.394,0,0.786,0,1.177,0c0.786,0,1.567,0,2.353,0c0,0.39,0,0.783,0,1.175c0,0.588,0,1.175,0,1.766c0.391,0,0.782,0,1.175,0
	c0.589,0,1.175,0,1.764,0c0,1.173,0,2.349,0,3.525c0.393,0,0.785,0,1.175,0c0.393,0,0.786,0,1.178,0c0.587,0,1.176,0,1.764,0
	c0.782,0,1.567,0,2.35,0c0,0.389,0,0.782,0,1.175c0,0.587,0,1.176,0,1.763c0.394,0,0.784,0,1.175,0c0.589,0,1.178,0,1.766,0
	c0.391,0,0.783,0,1.177,0c0.782,0,1.568,0,2.351,0c0,0.394,0,0.785,0,1.178c0,0.782,0,1.565,0,2.352c6.072,0,12.147,0,18.224,0
	c6.073,0,12.149,0,18.224,0c0-0.393,0-0.786,0-1.179c0-0.779,0-1.565,0-2.351c0.392,0,0.783,0,1.174,0c0.589,0,1.177,0,1.765,0
	c0-0.393,0-0.783,0-1.176c0-0.587,0-1.173,0-1.762c1.176,0,2.353,0,3.527,0c0-5.487,0-10.975,0-16.459c-0.391,0-0.783,0-1.175,0
	c-0.784,0-1.568,0-2.353,0c0-0.393,0-0.785,0-1.177c0-0.586,0-1.177,0-1.764c-0.393,0-0.783,0-1.176,0c-0.391,0-0.784,0-1.177,0
	c-0.586,0-1.175,0-1.762,0c-0.783,0-1.567,0-2.352,0c0-0.393,0-0.784,0-1.178c0-0.781,0-1.565,0-2.35c-1.567,0-3.135,0-4.703,0
	c-1.764,0-3.526,0-5.292,0c-0.392,0-0.781,0-1.175,0c-0.588,0-1.174,0-1.763,0c0-1.178,0-2.352,0-3.527c-0.394,0-0.784,0-1.175,0
	c-1.766,0-3.528,0-5.293,0C39.387,25.474,39.387,25.081,39.387,24.688z M88.18,25.866c-3.33,0-6.662,0-9.993,0
	c0,1.763,0,3.527,0,5.291c0,0.586,0,1.177,0,1.764c-0.589,0-1.177,0-1.765,0c-0.391,0-0.782,0-1.175,0c0,0.587,0,1.178,0,1.764
	c0,0.392,0,0.784,0,1.177c-1.175,0-2.353,0-3.526,0c0,1.761,0,3.524,0,5.288c0,1.569,0,3.136,0,4.705c0.588,0,1.174,0,1.763,0
	s1.176,0,1.764,0c0.393,0,0.784,0,1.175,0c0.588,0,1.176,0,1.765,0c0,0.585,0,1.175,0,1.763c0,0.394,0,0.785,0,1.178
	c1.763,0,3.526,0,5.29,0c1.567,0,3.135,0,4.703,0c0-0.591,0-1.178,0-1.766c0-0.392,0-0.785,0-1.175c0.588,0,1.175,0,1.764,0
	c0.588,0,1.174,0,1.763,0c0-5.487,0-10.976,0-16.461c-1.175,0-2.352,0-3.526,0C88.18,28.216,88.18,27.042,88.18,25.866z"/>
<path fill-rule="evenodd" clip-rule="evenodd" fill="#E96224" d="M12.934,16.46c0.785,0,1.567,0,2.353,0c0.782,0,1.566,0,2.351,0
	c0.588,0,1.174,0,1.763,0c0,0.588,0,1.175,0,1.764c0,0.392,0,0.782,0,1.176c0.589,0,1.175,0,1.764,0s1.177,0,1.765,0
	c0,0.587,0,1.174,0,1.765c0,0.586,0,1.174,0,1.76c0,0.392,0,0.785,0,1.177c0,0.586,0,1.176,0,1.764c-0.588,0-1.176,0-1.765,0
	s-1.175,0-1.764,0c0,1.176,0,2.35,0,3.527c-0.589,0-1.175,0-1.763,0c-0.587,0-1.175,0-1.764,0c-0.391,0-0.783,0-1.177,0
	c-0.588,0-1.174,0-1.763,0c0-1.178,0-2.352,0-3.527c-0.782,0-1.567,0-2.349,0c-0.199,0-0.395,0-0.59,0c0-0.588,0-1.178,0-1.764
	c0-0.393,0-0.785,0-1.177c-1.175,0-2.353,0-3.529,0c0,3.527,0,7.055,0,10.583s0,7.056,0,10.582c0,0.588,0,1.176,0,1.765
	c0.394,0,0.786,0,1.177,0c0.786,0,1.567,0,2.353,0c0,0.39,0,0.783,0,1.175c0,0.588,0,1.175,0,1.766c0.391,0,0.782,0,1.175,0
	c0.589,0,1.175,0,1.764,0c0,1.173,0,2.349,0,3.525c0.393,0,0.785,0,1.175,0c0.393,0,0.786,0,1.178,0c0.587,0,1.176,0,1.764,0
	c0.782,0,1.567,0,2.35,0c0,0.389,0,0.782,0,1.175c0,0.587,0,1.176,0,1.763c0.394,0,0.784,0,1.175,0c0.589,0,1.178,0,1.766,0
	c0.391,0,0.783,0,1.177,0c0.782,0,1.568,0,2.351,0c0,0.394,0,0.785,0,1.178c0,0.782,0,1.565,0,2.352c6.072,0,12.147,0,18.224,0
	c6.073,0,12.149,0,18.224,0c0-0.393,0-0.786,0-1.179c0-0.779,0-1.565,0-2.351c0.392,0,0.783,0,1.174,0c0.589,0,1.177,0,1.765,0
	c0-0.393,0-0.783,0-1.176c0-0.587,0-1.173,0-1.762c1.176,0,2.353,0,3.527,0c0-5.487,0-10.975,0-16.459c-0.391,0-0.783,0-1.175,0
	c-0.784,0-1.568,0-2.353,0c0-0.393,0-0.785,0-1.177c0-0.586,0-1.177,0-1.764c-0.393,0-0.783,0-1.176,0c-0.391,0-0.784,0-1.177,0
	c-0.586,0-1.175,0-1.762,0c-0.783,0-1.567,0-2.352,0c0-0.393,0-0.784,0-1.178c0-0.781,0-1.565,0-2.35c-1.567,0-3.135,0-4.703,0
	c-1.764,0-3.526,0-5.292,0c0,1.177,0,2.35,0,3.527c0.589,0,1.178,0,1.766,0c0.391,0,0.784,0,1.175,0c0.588,0,1.177,0,1.764,0
	c0.588,0,1.176,0,1.764,0c0,0.587,0,1.178,0,1.764c0,0.392,0,0.784,0,1.177c0.587,0,1.176,0,1.765,0c0.588,0,1.175,0,1.763,0
	c0,0.586,0,1.174,0,1.761c0,0.588,0,1.178,0,1.764c1.175,0,2.352,0,3.527,0c0,3.135,0,6.273,0,9.409c-0.589,0-1.176,0-1.765,0
	c-0.588,0-1.174,0-1.763,0c0,1.173,0,2.349,0,3.525c-1.763,0-3.527,0-5.291,0c-1.568,0-3.137,0-4.704,0c-3.134,0-6.269,0-9.405,0
	c0-1.177,0-2.353,0-3.525c-0.587,0-1.174,0-1.763,0c-0.393,0-0.785,0-1.175,0c-0.591,0-1.179,0-1.765,0c-0.588,0-1.177,0-1.764,0
	c0-1.178,0-2.355,0-3.529c0-0.588,0-1.176,0-1.763c0-0.391,0-0.784,0-1.178c-1.174,0-2.352,0-3.526,0c0-0.587,0-1.176,0-1.762
	c0-0.393,0-0.785,0-1.178c-0.59,0-1.176,0-1.766,0c-0.391,0-0.781,0-1.174,0c-0.588,0-1.175,0-1.764,0c-0.588,0-1.175,0-1.764,0
	c0-1.176,0-2.351,0-3.524c-1.176,0-2.354,0-3.528,0c0-0.785,0-1.569,0-2.354c0-0.194,0-0.393,0-0.587c1.175,0,2.353,0,3.528,0
	c0,0.587,0,1.178,0,1.764c0,0.392,0,0.784,0,1.177c1.176,0,2.353,0,3.527,0c0.586,0,1.174,0,1.764,0c0.391,0,0.782,0,1.176,0
	c0-0.59,0-1.177,0-1.763c0-0.394,0-0.785,0-1.178c1.175,0,2.353,0,3.526,0c0-2.351,0-4.705,0-7.055c1.176,0,2.35,0,3.528,0
	c0.587,0,1.175,0,1.764,0c0.391,0,0.782,0,1.174,0c0-0.393,0-0.785,0-1.178c0-0.586,0-1.173,0-1.763c0-1.174,0-2.351,0-3.525
	c-0.392,0-0.783,0-1.174,0c-0.786,0-1.568,0-2.354,0c0-0.395,0-0.784,0-1.176c0-0.589,0-1.175,0-1.764c-0.39,0-0.781,0-1.174,0
	c-0.588,0-1.177,0-1.764,0c0-1.175,0-2.352,0-3.528c-6.661,0-13.325,0-19.987,0C12.934,14.108,12.934,15.285,12.934,16.46z"/>
<path fill-rule="evenodd" clip-rule="evenodd" fill="#5E523B" d="M91.706,16.46c-2.352,0-4.701,0-7.056,0c0,2.156,0,4.312,0,6.465
	c1.178,0,2.354,0,3.529,0s2.352,0,3.526,0c0-1.174,0-2.351,0-3.525c0-0.395,0-0.784,0-1.176
	C91.706,17.635,91.706,17.049,91.706,16.46z"/>
<path fill-rule="evenodd" clip-rule="evenodd" fill="#5E523B" d="M78.187,16.46c0,0.392,0,0.783,0,1.175c0,0.589,0,1.176,0,1.765
	c1.175,0,2.352,0,3.526,0c0-0.589,0-1.176,0-1.765c0-0.392,0-0.783,0-1.175C80.538,16.46,79.361,16.46,78.187,16.46z"/>
<path fill-rule="evenodd" clip-rule="evenodd" fill="#46150D" d="M12.934,16.46c0,0.783,0,1.568,0,2.351c0,0.194,0,0.391,0,0.589
	c-0.589,0-1.175,0-1.764,0c-0.393,0-0.784,0-1.175,0c0,1.174,0,2.351,0,3.525c0,0.392,0,0.785,0,1.177c0,0.586,0,1.176,0,1.764
	c0.195,0,0.391,0,0.59,0c0.781,0,1.566,0,2.349,0c0,1.176,0,2.35,0,3.527c0.589,0,1.175,0,1.763,0c0.394,0,0.786,0,1.177,0
	c0.589,0,1.177,0,1.764,0c0.588,0,1.174,0,1.763,0c0-1.178,0-2.352,0-3.527c0.589,0,1.175,0,1.764,0s1.177,0,1.765,0
	c0-0.588,0-1.178,0-1.764c0-0.393,0-0.785,0-1.177c0-0.586,0-1.174,0-1.76c0-0.59,0-1.177,0-1.765c-0.588,0-1.176,0-1.765,0
	s-1.175,0-1.764,0c0-0.395,0-0.784,0-1.176c0-0.589,0-1.175,0-1.764c-0.589,0-1.175,0-1.763,0c-0.784,0-1.568,0-2.351,0
	C14.501,16.46,13.719,16.46,12.934,16.46z"/>
<path fill-rule="evenodd" clip-rule="evenodd" fill="#E96224" d="M12.934,16.46c-0.392,0-0.782,0-1.175,0c-0.589,0-1.174,0-1.764,0
	c0,0.392,0,0.783,0,1.175c0,0.589,0,1.176,0,1.765c0.391,0,0.782,0,1.175,0c0.589,0,1.175,0,1.764,0c0-0.198,0-0.395,0-0.589
	C12.934,18.028,12.934,17.243,12.934,16.46z"/>
<path fill-rule="evenodd" clip-rule="evenodd" fill="#E96224" d="M88.18,25.866c-3.33,0-6.662,0-9.993,0c0,1.763,0,3.527,0,5.291
	c0,0.586,0,1.177,0,1.764c-0.589,0-1.177,0-1.765,0c-0.391,0-0.782,0-1.175,0c0,0.587,0,1.178,0,1.764c0,0.392,0,0.784,0,1.177
	c-1.175,0-2.353,0-3.526,0c0,1.761,0,3.524,0,5.288c0,1.569,0,3.136,0,4.705c0.588,0,1.174,0,1.763,0s1.176,0,1.764,0
	c0.393,0,0.784,0,1.175,0c0.588,0,1.176,0,1.765,0c0,0.585,0,1.175,0,1.763c0,0.394,0,0.785,0,1.178c1.763,0,3.526,0,5.29,0
	c1.567,0,3.135,0,4.703,0c0-0.591,0-1.178,0-1.766c0-0.392,0-0.785,0-1.175c0.588,0,1.175,0,1.764,0c0.588,0,1.174,0,1.763,0
	c0-5.487,0-10.976,0-16.461c-1.175,0-2.352,0-3.526,0C88.18,28.216,88.18,27.042,88.18,25.866z"/>
<path fill-rule="evenodd" clip-rule="evenodd" fill="#F47920" d="M39.387,25.866c-0.392,0-0.783,0-1.174,0c-0.589,0-1.177,0-1.764,0
	c-1.179,0-2.353,0-3.528,0c0,2.35,0,4.704,0,7.055c-1.174,0-2.352,0-3.526,0c0,0.393,0,0.784,0,1.178c0,0.586,0,1.173,0,1.763
	c0,1.174,0,2.349,0,3.524c1.763,0,3.526,0,5.29,0c0.393,0,0.784,0,1.174,0c0,0.785,0,1.569,0,2.353c0,0.194,0,0.394,0,0.587
	c-0.588,0-1.174,0-1.762,0c-0.392,0-0.783,0-1.176,0c0,0.394,0,0.787,0,1.178c0,0.587,0,1.175,0,1.763c0,1.174,0,2.352,0,3.529
	c0.587,0,1.176,0,1.764,0c0.586,0,1.174,0,1.765,0c0.39,0,0.782,0,1.175,0c0.589,0,1.176,0,1.763,0c0,1.173,0,2.349,0,3.525
	c3.137,0,6.271,0,9.405,0c0-1.177,0-2.353,0-3.525c-0.589,0-1.175,0-1.763,0c-0.394,0-0.782,0-1.175,0c0-3.136,0-6.274,0-9.409
	c0.589,0,1.175,0,1.763,0c0.394,0,0.783,0,1.175,0c0-0.586,0-1.176,0-1.764c0-0.587,0-1.175,0-1.761c0.589,0,1.178,0,1.766,0
	s1.175,0,1.763,0c0.589,0,1.176,0,1.764,0c0.392,0,0.784,0,1.176,0c0-0.393,0-0.785,0-1.177c0-0.586,0-1.177,0-1.764
	c-0.588,0-1.176,0-1.764,0c-0.587,0-1.176,0-1.764,0c-0.391,0-0.784,0-1.175,0c-0.588,0-1.177,0-1.766,0c0-1.178,0-2.351,0-3.527
	c-0.392,0-0.781,0-1.175,0c-0.588,0-1.174,0-1.763,0c0-1.178,0-2.352,0-3.527c-0.394,0-0.784,0-1.175,0
	C42.914,25.866,41.151,25.866,39.387,25.866z"/>
<path fill-rule="evenodd" clip-rule="evenodd" fill="#46150D" d="M22.928,35.861c0-0.393,0-0.785,0-1.177c0-0.586,0-1.177,0-1.764
	c-1.176,0-2.354,0-3.528,0c0,0.194,0,0.393,0,0.587c0,0.784,0,1.568,0,2.354C20.574,35.861,21.752,35.861,22.928,35.861z"/>
<path fill-rule="evenodd" clip-rule="evenodd" fill="#46150D" d="M55.26,35.861c-0.392,0-0.784,0-1.176,0c-0.588,0-1.175,0-1.764,0
	c-0.588,0-1.175,0-1.763,0s-1.177,0-1.766,0c0,0.586,0,1.174,0,1.761c0,0.588,0,1.178,0,1.764c-0.392,0-0.781,0-1.175,0
	c-0.588,0-1.174,0-1.763,0c0,3.135,0,6.273,0,9.409c0.393,0,0.781,0,1.175,0c0.588,0,1.174,0,1.763,0c0,1.173,0,2.349,0,3.525
	c1.567,0,3.136,0,4.704,0c1.764,0,3.528,0,5.291,0c0-1.177,0-2.353,0-3.525c0.589,0,1.175,0,1.763,0c0.589,0,1.176,0,1.765,0
	c0-3.136,0-6.274,0-9.409c-1.176,0-2.353,0-3.527,0c0-0.586,0-1.176,0-1.764c0-0.587,0-1.175,0-1.761c-0.588,0-1.175,0-1.763,0
	C56.436,35.861,55.847,35.861,55.26,35.861z"/>
<path fill-rule="evenodd" clip-rule="evenodd" fill="#46150D" d="M29.395,35.861c-0.394,0-0.785,0-1.176,0c-0.59,0-1.178,0-1.764,0
	c-1.175,0-2.352,0-3.527,0c0,1.174,0,2.349,0,3.524c0.589,0,1.176,0,1.764,0c0.589,0,1.176,0,1.764,0c0.393,0,0.783,0,1.174,0
	c0.59,0,1.176,0,1.766,0C29.395,38.21,29.395,37.035,29.395,35.861z"/>
<path fill-rule="evenodd" clip-rule="evenodd" fill="#46150D" d="M29.395,39.386c0,0.393,0,0.785,0,1.178c0,0.586,0,1.175,0,1.762
	c1.175,0,2.353,0,3.526,0c0.393,0,0.784,0,1.176,0c0.588,0,1.174,0,1.762,0c0-0.193,0-0.393,0-0.587c0-0.783,0-1.567,0-2.353
	c-0.39,0-0.781,0-1.174,0C32.921,39.386,31.157,39.386,29.395,39.386z"/>
</svg>
