<?xml version="1.0" encoding="utf-8"?>
<!-- Generator: Adobe Illustrator 15.0.0, SVG Export Plug-In  -->
<!DOCTYPE svg PUBLIC "-//W3C//DTD SVG 1.1//EN" "http://www.w3.org/Graphics/SVG/1.1/DTD/svg11.dtd" [
	<!ENTITY ns_flows "http://ns.adobe.com/Flows/1.0/">
]>
<svg version="1.1"
	 xmlns="http://www.w3.org/2000/svg" xmlns:xlink="http://www.w3.org/1999/xlink" xmlns:a="http://ns.adobe.com/AdobeSVGViewerExtensions/3.0/"
	 x="0px" y="0px" width="120px" height="80px" viewBox="-18.555 -14.159 120 80" enable-background="new -18.555 -14.159 120 80"
	 xml:space="preserve">
<defs>
</defs>
<path fill-rule="evenodd" clip-rule="evenodd" fill="#D54C27" d="M35.856,3.527c2.156,0,4.313,0,6.469,0c1.176,0,2.353,0,3.527,0
	c0,1.175,0,2.353,0,3.527c2.157,0,4.313,0,6.465,0c0-1.174,0-2.353,0-3.527c3.137,0,6.274,0,9.41,0c0-1.175,0-2.352,0-3.527
	c-8.625,0-17.245,0-25.871,0C35.856,1.176,35.856,2.353,35.856,3.527z"/>
<path fill-rule="evenodd" clip-rule="evenodd" fill="#D54C27" d="M61.728,3.527c0,0.785,0,1.568,0,2.353c0,0.39,0,0.783,0,1.174
	c0,0.783-0.006,1.568,0,2.352c0,0.196,0,0.392,0,0.588c-1.572,0-3.136,0-4.707,0c-0.586,0-1.178,0-1.762,0c0-0.392,0-0.783,0-1.176
	c0-0.188,0.022-0.399,0-0.587c-0.023-0.19,0-0.397,0-0.589c0-0.068,0.047-0.549,0-0.587c-0.118-0.096-0.457,0.077-0.587,0
	c-0.393,0-0.786,0-1.178,0s-0.785,0-1.177,0c0,1.568,0,3.137,0,4.703c0,0.588,0,1.176,0,1.765c-0.587,0-1.174,0-1.764,0
	c-0.587,0-1.174,0-1.759,0c0,0.587,0,1.175,0,1.763c0,0.393,0,0.782,0,1.175c-4.313,0-8.626,0-12.938,0c0-0.588,0-1.175,0-1.763
	c0-0.393,0-0.784,0-1.175c-0.587,0-1.174,0-1.76,0c-0.589,0-1.176,0-1.763,0c0-0.589,0-1.176,0-1.765c-0.003-0.588,0-1.175,0-1.763
	c-0.003-0.392,0-0.783,0-1.176c0-0.587,0-1.177,0-1.764c0.587,0,1.174,0,1.763,0c0.586,0,1.173,0,1.76,0c0-1.174,0-2.353,0-3.527
	c-2.152,0-4.307,0-6.465,0c0,1.175,0,2.353,0,3.527c-3.332,0-6.662,0-9.99,0c0,0.393,0,0.783,0,1.176c0,0.587,0,1.175,0,1.763
	c-2.157,0-4.313,0-6.47,0c0,0.392,0,0.785,0,1.175c0,0.784,0,1.568,0,2.353c-0.586,0-1.175,0-1.762,0c-0.195,0-0.394,0-0.59,0
	c-0.17,0-0.42-0.042-0.588,0c-0.102,0.024-0.515-0.072-0.588,0c-0.098,0.096,0.08,0.47,0,0.587c0,0.392,0,0.784,0,1.176
	c0,0.393,0,0.782,0,1.175c0.393,0,0.784,0,1.176,0c0.785,0,1.569,0,2.352,0c0,0.589,0,1.176,0,1.764c0,0.589,0,1.176,0,1.764
	c1.571,0,3.137,0,4.705,0c0.78,0,1.564,0,2.353,0c0.782,0,1.564,0,2.349,0c0.195,0,0.392,0,0.587,0c0,0.392,0,0.783,0,1.175
	c0,0.589,0,1.176,0,1.765c0,0.39,0,0.783,0,1.174c0,0.197,0,0.393,0,0.59c0,0.389,0,0.781,0,1.174c0,0.196,0,0.392,0,0.586
	c-1.174,0-2.352,0-3.523,0c0,0.392,0,0.785,0,1.177c0,0.586,0,1.176,0,1.764c-0.392,0-0.786,0-1.178,0c-1.765,0-3.527,0-5.292,0
	c0,1.176,0,2.35,0,3.527c-0.391,0-0.782,0-1.175,0c-1.765,0-3.528,0-5.292,0c0,1.177,0,2.35,0,3.527c-1.174,0-2.351,0-3.525,0
	c0,0.393,0,0.784,0,1.178c0,0.586,0,1.173,0,1.763c-0.391,0-0.784,0-1.178,0c-0.585,0-1.175,0-1.762,0c0,0.389,0,0.781,0,1.174
	c0,1.765,0,3.528,0,5.29c0.195,0,0.393,0,0.587,0c0.784,0,1.568,0,2.353,0c0-0.587,0-1.176,0-1.762c0-0.393,0-0.785,0-1.178
	c0.589,0,1.175,0,1.766,0c0.586,0,1.173,0,1.76,0c0.393,0,0.784,0,1.177,0c0.587,0,1.176,0,1.763,0c0,0.591,0,1.178,0,1.764
	c0,0.196,0,0.393,0,0.589c0,0.071-0.043,0.551,0,0.587c0.119,0.098,0.456-0.076,0.588,0c0.588,0,1.178,0,1.765,0
	c0.393,0,0.784,0,1.175,0c0-0.587,0-1.176,0-1.762c0-0.393,0-0.785,0-1.178c1.178,0,2.352,0,3.527,0c0.588,0,1.178,0,1.765,0
	c0.392,0,0.786,0,1.178,0c1.172,0,2.35,0,3.523,0c0.591,0,1.179,0,1.765,0c0.392,0,0.783,0,1.177,0c0-1.176,0-2.351,0-3.524
	c1.177,0,2.35,0,3.525,0c0-0.59,0-1.177,0-1.763c0-0.394,0-0.785,0-1.178c0-0.587,0-1.178,0-1.764c0-0.587,0-1.177,0-1.764
	c0.589,0,1.178,0,1.764,0c0.395,0,0.786,0,1.179,0c0-1.178,0-2.352,0-3.527c0-0.393,0-0.785,0-1.178c0-0.586,0-1.173,0-1.763
	c0.587,0,1.174,0,1.763,0c0.586,0,1.173,0,1.76,0c0-0.586,0-1.174,0-1.76c0-0.59,0-1.177,0-1.765c0.591,0,1.178,0,1.768,0
	c0.389,0,0.781,0,1.175,0c0-0.589,0-1.176,0-1.765c0-0.392,0-0.783,0-1.175c1.765,0,3.526,0,5.289,0c1.566,0,3.136,0,4.707,0
	c1.565,0,3.129,0,4.699,0c1.568,0,3.135,0,4.704,0c0.195,0,0.394,0,0.588,0c0,0.588,0,1.175,0,1.764c0,0.392,0,0.782,0,1.176
	c0.588,0,1.177,0,1.763,0c0.392,0,0.786,0,1.179,0c0,1.765,0,3.525,0,5.288c0,0.393,0,0.785,0,1.178c1.174,0,2.349,0,3.523,0
	c0,0.586,0,1.176,0,1.763c0,1.765,0,3.528,0,5.292c0,0.587,0,1.178,0,1.764c0,0.392,0,0.784,0,1.177c0,0.781,0,1.566,0,2.349
	c0,0.59,0,1.176,0,1.767c0,0.391,0,0.783,0,1.173c0,0.783,0,1.569,0,2.354c0,1.566,0,3.135,0,4.701c0,0.198,0,0.394,0,0.591
	c-0.588,0-1.175,0-1.761,0c-0.589,0-1.177,0-1.763,0c0,1.173,0,2.349,0,3.525c-1.765,0-3.529,0-5.293,0c-0.393,0-0.784,0-1.176,0
	c0,0.389,0,0.782,0,1.175c0,0.587,0,1.176,0,1.763c-0.587,0-1.178,0-1.765,0c-0.392,0-0.785,0-1.177,0c0,1.178,0,2.351,0,3.529
	c-5.877,0-11.754,0-17.635,0c-2.938,0-5.876,0-8.816,0c-2.941,0-5.877,0-8.819,0c-0.194,0-0.393,0-0.588,0c0-0.588,0-1.179,0-1.766
	c0-0.586,0-1.177,0-1.764c-1.176,0-2.35,0-3.527,0c0-1.176,0-2.349,0-3.526c0-0.588,0-1.175,0-1.764c0-0.392,0-0.785,0-1.173
	c-1.175,0-2.352,0-3.527,0c0,1.173,0,2.349,0,3.525c-0.587,0-1.176,0-1.763,0c-0.586,0-1.177,0-1.764,0c-0.394,0-0.786,0-1.173,0
	c-0.591,0-1.177,0-1.766,0c0-0.589,0-1.177,0-1.764c0-0.197,0-0.392,0-0.589c0-0.171,0.044-0.422,0-0.586
	c-0.027-0.106,0.071-0.517,0-0.587c-0.098-0.101-0.471,0.075-0.588,0c-0.786,0-1.568,0-2.352,0c0,0.388,0,0.781,0,1.173
	c0,0.589,0,1.176,0,1.764c0,1.178,0,2.351,0,3.526c0.393,0,0.783,0,1.177,0c0.585,0,1.175,0,1.763,0c0,1.178,0,2.351,0,3.529
	c1.175,0,2.352,0,3.525,0c0,1.178,0,2.35,0,3.526c25.085,0,50.164,0,75.245,0c0-1.177,0-2.349,0-3.526c-1.172,0-2.349,0-3.522,0
	c0-0.393,0-0.786,0-1.179c0-0.391,0-0.779,0-1.173c0-0.591,0-1.178,0-1.765c0-0.784,0-1.568,0-2.351c0.388,0,0.781,0,1.174,0
	c0.783,0,1.567,0,2.349,0c0-1.568,0-3.138,0-4.703c0-1.57,0-3.135,0-4.705c0-0.193,0-0.392,0-0.587c0.392,0,0.785,0,1.178,0
	c0.587,0,1.177,0,1.764,0c0-0.393,0-0.783,0-1.176c0-0.586,0-1.173,0-1.764c0-3.722,0-7.443,0-11.17c0-0.393,0-0.781,0-1.174
	c0-0.59,0-1.176,0-1.764c0-0.392,0-0.784,0-1.176c0-0.587,0-1.177,0-1.763c0-0.393,0-0.786,0-1.174c0-0.59,0-1.177,0-1.765
	c0-0.395,0-0.784,0-1.176c0-0.589,0-1.175,0-1.764c-0.392,0-0.783,0-1.177,0c-0.587,0-1.172,0-1.765,0c0-0.393,0-0.785,0-1.175
	c0-0.589,0-1.177,0-1.764c0-1.177,0-2.352,0-3.527c-1.172,0-2.349,0-3.522,0c0-1.176,0-2.353,0-3.528c-0.394,0-0.785,0-1.179,0
	c-0.393,0-0.783,0-1.176,0c-0.587,0-1.173,0-1.762,0c-0.784,0-1.568,0-2.354,0c0-0.392,0-0.783,0-1.176c0-0.587,0-1.177,0-1.764
	c-0.392,0-0.784,0-1.177,0c-0.586,0-1.173,0-1.764,0c-0.391,0-0.782,0-1.173,0c-0.784,0-1.568,0-2.354,0c0-0.392,0-0.784,0-1.174
	c0-0.785,0-1.568,0-2.353C64.076,3.527,62.901,3.527,61.728,3.527z"/>
<path fill-rule="evenodd" clip-rule="evenodd" fill="#5E523B" d="M61.728,3.527c-3.136,0-6.273,0-9.41,0c0,1.175,0,2.353,0,3.527
	c0.392,0,0.785,0,1.177,0s0.785,0,1.178,0c0.13,0.077,0.469-0.096,0.587,0c0.047,0.038,0,0.519,0,0.587c0,0.192-0.023,0.399,0,0.589
	c0.022,0.188,0,0.399,0,0.587c0,0.393,0,0.784,0,1.176c0.584,0,1.176,0,1.762,0c1.571,0,3.135,0,4.707,0c0-0.196,0-0.392,0-0.588
	c-0.006-0.784,0-1.568,0-2.352c0-0.392,0-0.784,0-1.174C61.728,5.095,61.728,4.313,61.728,3.527z"/>
<path fill-rule="evenodd" clip-rule="evenodd" fill="#5E523B" d="M42.325,3.527c0,1.175,0,2.353,0,3.527c1.176,0,2.353,0,3.527,0
	c0-1.174,0-2.353,0-3.527C44.678,3.527,43.501,3.527,42.325,3.527z"/>
<path fill-rule="evenodd" clip-rule="evenodd" fill="#E96224" d="M42.325,3.527c-2.156,0-4.313,0-6.469,0c0,1.175,0,2.353,0,3.527
	c-0.587,0-1.174,0-1.76,0c-0.589,0-1.176,0-1.763,0c0,0.587,0,1.176,0,1.764c0,0.393-0.003,0.784,0,1.176
	c0,0.588-0.003,1.175,0,1.763c0,0.588,0,1.176,0,1.765c0.587,0,1.174,0,1.763,0c0.586,0,1.173,0,1.76,0c0,0.391,0,0.782,0,1.175
	c0,0.588,0,1.175,0,1.763c4.313,0,8.626,0,12.938,0c0-0.393,0-0.782,0-1.175c0-0.588,0-1.176,0-1.763c0.585,0,1.172,0,1.759,0
	c0.59,0,1.177,0,1.764,0c0-0.589,0-1.176,0-1.765c0-1.566,0-3.135,0-4.703c-2.152,0-4.308,0-6.465,0c-1.175,0-2.352,0-3.527,0
	C42.325,5.88,42.325,4.702,42.325,3.527z"/>
<path fill-rule="evenodd" clip-rule="evenodd" fill="#E96224" d="M32.334,29.394c1.174,0,2.349,0,3.522,0c0.591,0,1.178,0,1.768,0
	c0.389,0,0.781,0,1.175,0c0-0.588,0-1.178,0-1.764c0-0.393,0-0.785,0-1.177c3.333,0,6.663,0,9.996,0c0,0.59,0,1.177,0,1.763
	c0,0.393,0,0.785,0,1.178c0.585,0,1.172,0,1.759,0c0.59,0,1.177,0,1.764,0c0,1.763,0,3.527,0,5.291c0,1.565,0,3.135,0,4.704
	c0,1.174,0,2.349,0,3.524c0,0.591,0,1.178,0,1.764c0,0.393,0,0.783,0,1.176c0,0.587,0,1.178,0,1.765c0,0.393,0,0.784,0,1.176
	c0,0.589,0,1.174,0,1.764c0,0.588,0,1.175,0,1.766c-1.174,0-2.351,0-3.522,0c0,0.587,0,1.173,0,1.762c0,0.587,0,1.175,0,1.764
	c-0.591,0-1.178,0-1.765,0c-0.394,0-0.786,0-1.178,0c0,0.589,0,1.175,0,1.762c0,0.393,0,0.783,0,1.176c-1.765,0-3.527,0-5.289,0
	c-1.568,0-3.137,0-4.707,0c-1.566,0-3.133,0-4.701,0c-0.783,0-1.566,0-2.349,0c-0.394,0-0.785,0-1.178,0c-0.586,0-1.177,0-1.763,0
	c0-0.587,0-1.176,0-1.763c0-0.393,0-0.786,0-1.175c-0.588,0-1.177,0-1.763,0c-0.394,0-0.788,0-1.179,0c0-1.177,0-2.353,0-3.525
	c-1.765,0-3.523,0-5.288,0c-0.393,0-0.784,0-1.178,0c0-0.784,0-1.57,0-2.355c0-0.195,0-0.393,0-0.585c1.178,0,2.352,0,3.53,0
	c0.584,0,1.171,0,1.762,0c0.392,0,0.782,0,1.174,0c0-1.177,0-2.352,0-3.529c0.591,0,1.179,0,1.765,0c0.392,0,0.783,0,1.177,0
	c0-0.587,0-1.176,0-1.762c0-0.393,0-0.785,0-1.178c-0.394,0-0.785,0-1.177,0c-0.586,0-1.174,0-1.765,0c-1.174,0-2.352,0-3.523,0
	c-0.392,0-0.786,0-1.178,0c-0.587,0-1.177,0-1.765,0c-1.176,0-2.35,0-3.527,0c0,0.393,0,0.785,0,1.178c0,0.586,0,1.175,0,1.762
	c0,1.178,0,2.353,0,3.529c0,0.585,0,1.175,0,1.763c0,0.394,0,0.785,0,1.178c0,0.388,0,0.781,0,1.173c0,0.589,0,1.176,0,1.764
	c0,1.178,0,2.351,0,3.526c1.178,0,2.352,0,3.527,0c0,0.587,0,1.178,0,1.764c0,0.587,0,1.178,0,1.766c0.195,0,0.394,0,0.588,0
	c2.942,0,5.878,0,8.819,0c2.94,0,5.879,0,8.816,0c5.881,0,11.758,0,17.635,0c0-1.179,0-2.352,0-3.529c0.392,0,0.785,0,1.177,0
	c0.587,0,1.178,0,1.765,0c0-0.587,0-1.176,0-1.763c0-0.393,0-0.786,0-1.175c0.392,0,0.783,0,1.176,0c1.764,0,3.528,0,5.293,0
	c0-1.177,0-2.353,0-3.525c0.586,0,1.174,0,1.763,0c0.586,0,1.173,0,1.761,0c0-0.197,0-0.393,0-0.591c0-1.566,0-3.135,0-4.701
	c0-0.784,0-1.57,0-2.354c0-0.39,0-0.782,0-1.173c0-0.591,0-1.177,0-1.767c0-0.782,0-1.567,0-2.349c0-0.393,0-0.785,0-1.177
	c0-0.586,0-1.177,0-1.764c0-1.764,0-3.527,0-5.292c0-0.587,0-1.177,0-1.763c-1.175,0-2.35,0-3.523,0c0-0.393,0-0.785,0-1.178
	c0-1.763,0-3.523,0-5.288c-0.393,0-0.787,0-1.179,0c-0.586,0-1.175,0-1.763,0c0-0.395,0-0.784,0-1.176c0-0.589,0-1.175,0-1.764
	c-0.194,0-0.393,0-0.588,0c-1.569,0-3.136,0-4.704,0c-1.57,0-3.134,0-4.699,0c-1.571,0-3.141,0-4.707,0c-1.763,0-3.524,0-5.289,0
	c0,0.392,0,0.783,0,1.175c0,0.589,0,1.176,0,1.765c-0.394,0-0.786,0-1.175,0c-0.59,0-1.177,0-1.768,0c0,0.587,0,1.174,0,1.765
	c0,0.586,0,1.174,0,1.76c-0.587,0-1.174,0-1.76,0c-0.589,0-1.176,0-1.763,0c0,0.59,0,1.177,0,1.763
	C32.334,28.608,32.334,29.001,32.334,29.394z"/>
<path fill-rule="evenodd" clip-rule="evenodd" fill="#46150D" d="M35.856,29.394c0,0.197,0,0.393,0,0.586c0,3.136,0,6.271,0,9.409
	c0.591,0,1.178,0,1.768,0c0.389,0,0.781,0,1.175,0c0,0.586,0,1.174,0,1.761c0,0.588,0,1.178,0,1.764c1.765,0,3.526,0,5.289,0
	c1.566,0,3.136,0,4.707,0c0-0.586,0-1.176,0-1.764c0-0.587,0-1.175,0-1.761c0.585,0,1.172,0,1.759,0c0.59,0,1.177,0,1.764,0
	c0-1.569,0-3.139,0-4.704c0-1.764,0-3.528,0-5.291c-0.587,0-1.174,0-1.764,0c-0.587,0-1.174,0-1.759,0c0-0.393,0-0.785,0-1.178
	c0-0.586,0-1.173,0-1.763c-3.333,0-6.663,0-9.996,0c0,0.392,0,0.785,0,1.177c0,0.586,0,1.176,0,1.764c-0.394,0-0.786,0-1.175,0
	C37.034,29.394,36.447,29.394,35.856,29.394z"/>
<path fill-rule="evenodd" clip-rule="evenodd" fill="#F47920" d="M35.856,29.394c-1.174,0-2.349,0-3.522,0c0,1.176,0,2.35,0,3.527
	c-0.393,0-0.784,0-1.179,0c-0.586,0-1.175,0-1.764,0c0,0.587,0,1.177,0,1.764c0,0.586,0,1.177,0,1.764c0,0.393,0,0.784,0,1.178
	c0,0.586,0,1.173,0,1.763c0,1.174,0,2.349,0,3.524c-1.176,0-2.349,0-3.525,0c0,0.393,0,0.785,0,1.178c0,0.586,0,1.175,0,1.762
	c1.177,0,2.35,0,3.525,0c0.589,0,1.178,0,1.764,0c0.395,0,0.786,0,1.179,0c0-0.587,0-1.176,0-1.762c0-0.393,0-0.785,0-1.178
	c1.174,0,2.349,0,3.522,0c0,0.785,0,1.569,0,2.353c0,0.194,0,0.394,0,0.587c-1.174,0-2.349,0-3.522,0c0,1.178,0,2.353,0,3.529
	c-1.179,0-2.354,0-3.527,0c-0.591,0-1.178,0-1.764,0c-0.394,0-0.784,0-1.177,0c0,0.585,0,1.175,0,1.763c0,0.194,0,0.394,0,0.587
	c0,0.198,0,0.394,0,0.591c-0.588,0-1.177,0-1.763,0c-0.394,0-0.788,0-1.179,0c0,1.173,0,2.349,0,3.525c0.391,0,0.785,0,1.179,0
	c0.586,0,1.175,0,1.763,0c0,0.389,0,0.782,0,1.175c0,0.587,0,1.176,0,1.763c0.586,0,1.177,0,1.763,0c0.393,0,0.784,0,1.178,0
	c0.782,0,1.565,0,2.349,0c1.568,0,3.135,0,4.701,0c1.57,0,3.139,0,4.707,0c1.762,0,3.524,0,5.289,0c0-0.393,0-0.783,0-1.176
	c0-0.587,0-1.173,0-1.762c0.392,0,0.784,0,1.178,0c0.587,0,1.174,0,1.765,0c0-0.589,0-1.177,0-1.764c0-0.589,0-1.175,0-1.762
	c1.172,0,2.349,0,3.522,0c0-0.591,0-1.178,0-1.766c0-0.59,0-1.175,0-1.764c0-0.392,0-0.783,0-1.176c0-0.587,0-1.178,0-1.765
	c0-0.393,0-0.783,0-1.176c0-0.586,0-1.173,0-1.764c0-1.176,0-2.351,0-3.524c-0.587,0-1.174,0-1.764,0c-0.587,0-1.174,0-1.759,0
	c0,0.586,0,1.174,0,1.761c0,0.588,0,1.178,0,1.764c-1.571,0-3.141,0-4.707,0c-1.763,0-3.524,0-5.289,0c0-0.586,0-1.176,0-1.764
	c0-0.587,0-1.175,0-1.761c-0.394,0-0.786,0-1.175,0c-0.59,0-1.177,0-1.768,0c0-3.139,0-6.273,0-9.409
	C35.856,29.786,35.856,29.591,35.856,29.394z"/>
<path fill-rule="evenodd" clip-rule="evenodd" fill="#E96224" d="M29.392,39.389c-1.176,0-2.349,0-3.525,0c0,1.174,0,2.349,0,3.524
	c1.177,0,2.35,0,3.525,0C29.392,41.737,29.392,40.563,29.392,39.389z"/>
<path fill-rule="evenodd" clip-rule="evenodd" fill="#46150D" d="M32.334,45.853c1.174,0,2.349,0,3.522,0c0-0.193,0-0.393,0-0.587
	c0-0.783,0-1.567,0-2.353c-1.174,0-2.349,0-3.522,0c0,0.393,0,0.785,0,1.178C32.334,44.677,32.334,45.266,32.334,45.853z"/>
<path fill-rule="evenodd" clip-rule="evenodd" fill="#46150D" d="M0,45.853c0,0.587,0,1.178,0,1.765c0,0.588,0,1.176,0,1.765
	c0,0.39,0,0.783,0,1.175c0,0.588,0,1.175,0,1.766c0.783,0,1.565,0,2.352,0c0.117,0.075,0.49-0.101,0.588,0
	c0.071,0.07-0.027,0.48,0,0.587c0.044,0.164,0,0.415,0,0.586c0,0.197,0,0.392,0,0.589c0,0.587,0,1.175,0,1.764
	c0.589,0,1.175,0,1.766,0c0.387,0,0.779,0,1.173,0c0.587,0,1.178,0,1.764,0c0.587,0,1.176,0,1.763,0c0-1.177,0-2.353,0-3.525
	c1.176,0,2.353,0,3.527,0c0-0.393,0-0.784,0-1.178c0-0.588,0-1.178,0-1.763c0-1.177,0-2.352,0-3.529c-0.391,0-0.782,0-1.175,0
	c-0.587,0-1.177,0-1.765,0c-0.132-0.076-0.469,0.098-0.588,0c-0.043-0.036,0-0.516,0-0.587c0-0.196,0-0.393,0-0.589
	c0-0.586,0-1.173,0-1.764c-0.587,0-1.176,0-1.763,0c-0.393,0-0.784,0-1.177,0c-0.587,0-1.174,0-1.76,0c-0.591,0-1.177,0-1.766,0
	c0,0.393,0,0.785,0,1.178c0,0.586,0,1.175,0,1.762c-0.784,0-1.568,0-2.353,0C0.393,45.853,0.195,45.853,0,45.853z"/>
<path fill-rule="evenodd" clip-rule="evenodd" fill="#46150D" d="M32.334,45.853c-0.393,0-0.784,0-1.179,0c-0.586,0-1.175,0-1.764,0
	c-1.176,0-2.349,0-3.525,0c0,1.178,0,2.353,0,3.529c0.393,0,0.783,0,1.177,0c0.586,0,1.173,0,1.764,0c1.174,0,2.349,0,3.527,0
	C32.334,48.205,32.334,47.03,32.334,45.853z"/>
<path fill-rule="evenodd" clip-rule="evenodd" fill="#F47920" d="M25.866,45.853c-0.394,0-0.785,0-1.177,0c-0.586,0-1.174,0-1.765,0
	c0,1.178,0,2.353,0,3.529c0.391,0,0.785,0,1.179,0c0.586,0,1.175,0,1.763,0C25.866,48.205,25.866,47.03,25.866,45.853z"/>
<path fill-rule="evenodd" clip-rule="evenodd" fill="#46150D" d="M25.866,49.382c-0.588,0-1.177,0-1.763,0c-0.394,0-0.788,0-1.179,0
	c-0.392,0-0.782,0-1.174,0c-0.591,0-1.178,0-1.762,0c-1.179,0-2.353,0-3.53,0c0,0.192,0,0.39,0,0.585c0,0.785,0,1.571,0,2.355
	c0.394,0,0.785,0,1.178,0c1.765,0,3.523,0,5.288,0c0.391,0,0.785,0,1.179,0c0.586,0,1.175,0,1.763,0c0-0.197,0-0.393,0-0.591
	c0-0.193,0-0.393,0-0.587C25.866,50.557,25.866,49.967,25.866,49.382z"/>
</svg>
