<?xml version="1.0" encoding="utf-8"?>
<!-- Generator: Adobe Illustrator 15.0.0, SVG Export Plug-In  -->
<!DOCTYPE svg PUBLIC "-//W3C//DTD SVG 1.1//EN" "http://www.w3.org/Graphics/SVG/1.1/DTD/svg11.dtd" [
	<!ENTITY ns_flows "http://ns.adobe.com/Flows/1.0/">
]>
<svg version="1.1"
	 xmlns="http://www.w3.org/2000/svg" xmlns:xlink="http://www.w3.org/1999/xlink" xmlns:a="http://ns.adobe.com/AdobeSVGViewerExtensions/3.0/"
	 x="0px" y="0px" width="120px" height="80px" viewBox="-14.692 -11.221 120 80" enable-background="new -14.692 -11.221 120 80"
	 xml:space="preserve">
<defs>
</defs>
<path fill-rule="evenodd" clip-rule="evenodd" fill="#D54C27" d="M78.184,6.466c0,0.588,0,1.175,0,1.764c0,0.393,0,0.784,0,1.176
	c0,0.587,0,1.174,0,1.764c0,0.587,0,1.175,0,1.763c-0.588,0-1.174,0-1.763,0c-0.393,0-0.783,0-1.176,0c0,0.785,0,1.567,0,2.352
	c0,0.392,0,0.784,0,1.176c0.587,0,1.176,0,1.765,0c0.392,0,0.782,0,1.174,0c0,0.782,0,1.567,0,2.35c0,3.724,0,7.446,0,11.171
	c0,0.784,0,1.565,0,2.351c-0.588,0-1.174,0-1.763,0c-0.393,0-0.783,0-1.176,0c0,0.586,0,1.176,0,1.763s0,1.177,0,1.765
	c-1.764,0-3.527,0-5.29,0c-1.567,0-3.136,0-4.704,0c0-0.588,0-1.178,0-1.765c0-0.392,0-0.784,0-1.177c0-0.781,0-1.565,0-2.35
	c0-0.393,0-0.785,0-1.177c-1.175,0-2.352,0-3.527,0c-0.979,0-1.959,0-2.938,0c0,0.197,0,0.392,0,0.59c0,0.784,0,1.565,0,2.351
	c0.59,0,1.176,0,1.764,0c0.393,0,0.783,0,1.175,0c0,2.35,0,4.704,0,7.055c1.176,0,2.353,0,3.527,0c0,0.784,0,1.566,0,2.351
	c0,3.725,0,7.447,0,11.168c0,0.785,0,1.571,0,2.355c-1.175,0-2.352,0-3.527,0c0,0.587,0,1.173,0,1.762c0,0.587,0,1.175,0,1.764
	c-0.589,0-1.175,0-1.763,0c-0.392,0-0.783,0-1.176,0c0,0.589,0,1.175,0,1.762c0,0.393,0,0.783,0,1.176c-1.764,0-3.526,0-5.29,0
	c-1.568,0-3.137,0-4.703,0c0,1.178,0,2.351,0,3.529c-3.135,0-6.271,0-9.405,0s-6.271,0-9.405,0c-0.197,0-0.394,0-0.589,0
	c0-1.179,0-2.352,0-3.529c-1.567,0-3.135,0-4.702,0c-0.784,0-1.568,0-2.353,0c-0.392,0-0.783,0-1.176,0c-0.588,0-1.175,0-1.764,0
	c0-0.587,0-1.176,0-1.763c0-0.393,0-0.786,0-1.175c-0.588,0-1.175,0-1.764,0c-0.393,0-0.783,0-1.175,0c-0.589,0-1.175,0-1.765,0
	c-0.588,0-1.174,0-1.764,0c0-1.177,0-2.353,0-3.525c-1.763,0-3.526,0-5.29,0c-0.392,0-0.782,0-1.175,0c0-1.178,0-2.355,0-3.529
	c0-0.588,0-1.176,0-1.763c0-0.391,0-0.784,0-1.178c0-1.565,0-3.135,0-4.703c0-0.587,0-1.175,0-1.761c0.588,0,1.175,0,1.764,0
	c0.391,0,0.782,0,1.175,0c0-0.59,0-1.177,0-1.763c0-0.394,0-0.785,0-1.178c1.175,0,2.353,0,3.526,0c0-1.178,0-2.351,0-3.527
	c1.764,0,3.528,0,5.292,0c1.567,0,3.134,0,4.702,0c0-1.178,0-2.352,0-3.527c1.765,0,3.527,0,5.293,0c0.389,0,0.781,0,1.174,0
	c0-0.588,0-1.178,0-1.764c0-0.393,0-0.785,0-1.177c1.764,0,3.527,0,5.291,0c0.391,0,0.783,0,1.175,0c0-1.174,0-2.351,0-3.525
	c3.137,0,6.271,0,9.407,0c1.566,0,3.133,0,4.702,0s3.135,0,4.702,0c0.196,0,0.393,0,0.59,0c0,0.587,0,1.174,0,1.765
	c0,0.586,0,1.174,0,1.76c1.175,0,2.352,0,3.526,0c0-3.33,0-6.662,0-9.993c0.59,0,1.176,0,1.764,0c0.393,0,0.783,0,1.175,0
	c0-0.588,0-1.175,0-1.763c0-0.393,0-0.784,0-1.175c1.176,0,2.353,0,3.527,0c0-1.176,0-2.353,0-3.528c0-0.588,0-1.176,0-1.763
	c0-0.393,0-0.784,0-1.176c0.59,0,1.177,0,1.765,0c0.392,0,0.783,0,1.176,0c0,0.587,0,1.176,0,1.764c0,0.393,0,0.784,0,1.176
	c1.175,0,2.353,0,3.526,0c0-1.763,0-3.527,0-5.292c0-0.39,0-0.781,0-1.175c1.176,0,2.354,0,3.527,0c0.587,0,1.176,0,1.765,0
	C77.401,6.466,77.792,6.466,78.184,6.466c0-1.175,0-2.352,0-3.527c-0.392,0-0.782,0-1.174,0c-0.589,0-1.178,0-1.765,0
	c0-0.392,0-0.783,0-1.175c0-0.588,0-1.175,0-1.764C68.584,0,61.92,0,55.259,0c0,0.393,0,0.782,0,1.175c0,0.392,0,0.784,0,1.177
	c0,0.586,0,1.174,0,1.762c0,0.784,0,1.567,0,2.352c-0.394,0-0.784,0-1.177,0c-0.587,0-1.174,0-1.764,0c0,0.394,0,0.785,0,1.175
	c0,0.589,0,1.178,0,1.765c0,0.391,0,0.784,0,1.174c0,0.785,0,1.569,0,2.353c-0.392,0-0.783,0-1.175,0c-0.785,0-1.567,0-2.352,0
	c0,1.175,0,2.352,0,3.528c-2.157,0-4.31,0-6.466,0c0,0.391,0,0.782,0,1.175c0,0.588,0,1.175,0,1.763c-1.176,0-2.354,0-3.527,0
	c0,1.176,0,2.353,0,3.528c-6.467,0-12.934,0-19.4,0c0,0.392,0,0.783,0,1.175c0,0.589,0,1.176,0,1.765c-0.393,0-0.783,0-1.175,0
	c-1.764,0-3.528,0-5.292,0c0,1.174,0,2.351,0,3.525c-0.392,0-0.783,0-1.174,0c-1.765,0-3.527,0-5.291,0c0,0.392,0,0.785,0,1.177
	c0,0.586,0,1.176,0,1.764c-0.59,0-1.176,0-1.764,0c-0.589,0-1.176,0-1.764,0c0,2.35,0,4.704,0,7.055c-0.394,0-0.784,0-1.176,0
	c-0.589,0-1.175,0-1.764,0c0,3.134,0,6.27,0,9.404c0,1.57,0,3.136,0,4.704c0,1.766,0,3.527,0,5.291c0.393,0,0.783,0,1.175,0
	c0.589,0,1.175,0,1.765,0c0,0.389,0,0.782,0,1.175c0,0.587,0,1.176,0,1.763c0.392,0,0.783,0,1.175,0s0.786,0,1.177,0
	c0.586,0,1.176,0,1.764,0c0.783,0,1.566,0,2.351,0c0,0.394,0,0.785,0,1.178c0,0.782,0,1.565,0,2.352c1.175,0,2.353,0,3.526,0
	c0,1.178,0,2.35,0,3.526c5.879,0,11.759,0,17.637,0c1.371,0,2.744,0,4.115,0c1.568,0,3.135,0,4.703,0c3.135,0,6.27,0,9.405,0
	c2.939,0,5.877,0,8.818,0c2.938,0,5.877,0,8.817,0c1.371,0,2.744,0,4.116,0c1.567,0,3.134,0,4.701,0c3.136,0,6.271,0,9.405,0
	c0-0.783,0-1.57,0-2.349c-0.008-0.202,0.012-0.395,0-0.591c-0.004-0.089,0.057-0.531,0-0.587c-0.087-0.091-0.47,0.055-0.588,0
	c-0.122-0.059-0.449,0-0.587,0c-0.587,0-1.176,0-1.765,0c0-0.393,0-0.786,0-1.179c0-0.587,0-1.173,0-1.764
	c0.077-0.129-0.096-0.47,0-0.587c0.039-0.044,0.519,0,0.589,0c0.191,0,0.398,0.022,0.589,0c0.188-0.021,0.397,0,0.587,0
	c0.392,0,0.783,0,1.175,0c0-0.393,0-0.783,0-1.176c0-0.587,0-1.173,0-1.762c0-0.391,0-0.785,0-1.177c0-0.784,0-1.567,0-2.349
	c0.393,0,0.785,0,1.176,0c0.783,0,1.567,0,2.353,0c0-3.136,0-6.274,0-9.409c0.391,0,0.782,0,1.175,0c0.588,0,1.175,0,1.765,0
	c0-3.524,0-7.052,0-10.58c0-3.527,0-7.055,0-10.582c0-0.589,0-1.175,0-1.764c-0.394,0-0.783,0-1.177,0c-0.588,0-1.174,0-1.763,0
	c0-1.568,0-3.135,0-4.703c0-0.784,0-1.567,0-2.352c0-0.392,0-0.782,0-1.176c0-0.588,0-1.175,0-1.763c-1.175,0-2.353,0-3.528,0
	c0-0.392,0-0.783,0-1.176c0-0.587,0-1.177,0-1.764c0-1.174,0-2.353,0-3.527c-0.392,0-0.783,0-1.175,0
	C81.711,6.466,79.948,6.466,78.184,6.466z"/>
<path fill-rule="evenodd" clip-rule="evenodd" fill="#5E523B" d="M78.184,6.466c-0.392,0-0.782,0-1.174,0c-0.589,0-1.178,0-1.765,0
	c-1.174,0-2.352,0-3.527,0c0,0.394,0,0.785,0,1.175c0,1.765,0,3.529,0,5.292c1.176,0,2.354,0,3.527,0c0.393,0,0.783,0,1.176,0
	c0.589,0,1.175,0,1.763,0c0-0.588,0-1.176,0-1.763c0-0.589,0-1.176,0-1.764c0-0.392,0-0.783,0-1.176
	C78.184,7.641,78.184,7.054,78.184,6.466z"/>
<path fill-rule="evenodd" clip-rule="evenodd" fill="#5E523B" d="M65.251,12.933c0.394,0,0.782,0,1.177,0c0.588,0,1.177,0,1.764,0
	c0-0.392,0-0.783,0-1.176c0-0.587,0-1.177,0-1.764c-0.393,0-0.784,0-1.176,0c-0.588,0-1.175,0-1.765,0c0,0.393,0,0.783,0,1.176
	C65.251,11.757,65.251,12.345,65.251,12.933z"/>
<path fill-rule="evenodd" clip-rule="evenodd" fill="#E96224" d="M75.245,12.933c-1.174,0-2.352,0-3.527,0c-1.174,0-2.352,0-3.526,0
	c-0.587,0-1.176,0-1.764,0c-0.395,0-0.783,0-1.177,0c0,1.175,0,2.352,0,3.528c-1.175,0-2.352,0-3.527,0c0,0.391,0,0.782,0,1.175
	c0,0.588,0,1.175,0,1.763c-0.392,0-0.782,0-1.175,0c-0.588,0-1.174,0-1.764,0c0,3.331,0,6.663,0,9.993c0.979,0,1.96,0,2.938,0
	c1.176,0,2.353,0,3.527,0c0,0.392,0,0.785,0,1.177c0,0.784,0,1.568,0,2.35c0,0.393,0,0.785,0,1.177c0,0.587,0,1.177,0,1.765
	c1.568,0,3.137,0,4.704,0c1.763,0,3.526,0,5.29,0c0-0.588,0-1.178,0-1.765s0-1.177,0-1.763c0.393,0,0.783,0,1.176,0
	c0.589,0,1.175,0,1.763,0c0-0.785,0-1.566,0-2.351c0-3.726,0-7.448,0-11.171c0-0.783,0-1.568,0-2.35c-0.392,0-0.782,0-1.174,0
	c-0.589,0-1.178,0-1.765,0c0-0.393,0-0.785,0-1.176C75.245,14.5,75.245,13.717,75.245,12.933z"/>
<path fill-rule="evenodd" clip-rule="evenodd" fill="#E96224" d="M12.932,35.859c1.764,0,3.528,0,5.292,0c1.567,0,3.134,0,4.702,0
	c0-1.178,0-2.352,0-3.527c1.765,0,3.527,0,5.293,0c0.389,0,0.781,0,1.174,0c0-0.588,0-1.178,0-1.764c0-0.393,0-0.785,0-1.177
	c1.764,0,3.527,0,5.291,0c0.391,0,0.783,0,1.175,0c0-1.174,0-2.351,0-3.525c3.137,0,6.271,0,9.407,0c1.566,0,3.133,0,4.702,0
	s3.135,0,4.702,0c0.196,0,0.393,0,0.59,0c0,0.587,0,1.174,0,1.765c0,0.586,0,1.174,0,1.76c1.175,0,2.352,0,3.526,0
	c0,0.197,0,0.392,0,0.59c0,0.784,0,1.565,0,2.351c0.59,0,1.176,0,1.764,0c0.393,0,0.783,0,1.175,0c0,2.35,0,4.704,0,7.055
	c1.176,0,2.353,0,3.527,0c0,0.784,0,1.566,0,2.351c0,3.725,0,7.447,0,11.168c0,0.785,0,1.571,0,2.355c-1.175,0-2.352,0-3.527,0
	c0,0.587,0,1.173,0,1.762c0,0.587,0,1.175,0,1.764c-0.589,0-1.175,0-1.763,0c-0.392,0-0.783,0-1.176,0c0,0.589,0,1.175,0,1.762
	c0,0.393,0,0.783,0,1.176c-1.764,0-3.526,0-5.29,0c-1.568,0-3.137,0-4.703,0c0,1.178,0,2.351,0,3.529c-3.135,0-6.271,0-9.405,0
	s-6.271,0-9.405,0c-0.197,0-0.394,0-0.589,0c0-1.179,0-2.352,0-3.529c-1.567,0-3.135,0-4.702,0c-0.784,0-1.568,0-2.353,0
	c-0.392,0-0.783,0-1.176,0c-0.588,0-1.175,0-1.764,0c0-0.587,0-1.176,0-1.763c0-0.393,0-0.786,0-1.175c-0.588,0-1.175,0-1.764,0
	c-0.393,0-0.783,0-1.175,0c-0.589,0-1.175,0-1.765,0c-0.588,0-1.174,0-1.764,0c0-1.177,0-2.353,0-3.525c-1.763,0-3.526,0-5.29,0
	c-0.392,0-0.782,0-1.175,0c0-1.178,0-2.355,0-3.529c0-0.588,0-1.176,0-1.763c0-0.391,0-0.784,0-1.178c0.783,0,1.566,0,2.352,0
	c0.115,0.081,0.49-0.098,0.587,0c0.071,0.074-0.026,0.486,0,0.587c0.042,0.171,0,0.419,0,0.591c0,0.195,0,0.393,0,0.587
	c0,0.588,0,1.176,0,1.765c0.588,0,1.175,0,1.764,0c1.763,0,3.526,0,5.291,0c0-0.589,0-1.177,0-1.765c0-0.587,0-1.178,0-1.765
	c0.392,0,0.782,0,1.175,0c0.589,0,1.176,0,1.764,0c0-0.587,0-1.176,0-1.762c0-0.393,0-0.785,0-1.178c0-0.586,0-1.176,0-1.764
	c0-0.587,0-1.175,0-1.761c-0.393,0-0.783,0-1.175,0c-0.589,0-1.177,0-1.764,0c0-0.59,0-1.177,0-1.763c0-0.394,0-0.785,0-1.178
	c-1.175,0-2.353,0-3.528,0C12.932,38.209,12.932,37.036,12.932,35.859z M58.785,41.15c0-1.764,0-3.527,0-5.291
	c-1.175,0-2.352,0-3.526,0c0-1.178,0-2.352,0-3.527c-3.137,0-6.271,0-9.406,0c-1.175,0-2.353,0-3.527,0c0,1.176,0,2.35,0,3.527
	c-1.176,0-2.354,0-3.527,0c0,1.177,0,2.35,0,3.527c-0.395,0-0.784,0-1.177,0c-0.587,0-1.175,0-1.764,0c-1.175,0-2.353,0-3.526,0
	c0,0.393,0,0.784,0,1.178c0,1.763,0,3.523,0,5.287c0,0.393,0,0.785,0,1.178c0,0.586,0,1.175,0,1.762c-3.136,0-6.27,0-9.406,0
	c0,1.178,0,2.353,0,3.529c3.137,0,6.271,0,9.406,0c1.174,0,2.352,0,3.526,0c0,0.39,0,0.783,0,1.175c0,0.588,0,1.175,0,1.766
	c0.394,0,0.784,0,1.177,0c0.587,0,1.176,0,1.764,0c0,1.173,0,2.349,0,3.525c4.506,0,9.014,0,13.52,0c0-0.391,0-0.785,0-1.177
	c0-0.784,0-1.567,0-2.349c0.393,0,0.783,0,1.177,0c0.587,0,1.174,0,1.764,0c0-0.393,0-0.784,0-1.178c0-0.588,0-1.178,0-1.763
	c1.175,0,2.352,0,3.526,0c0-0.394,0-0.785,0-1.177c0-1.766,0-3.528,0-5.292C58.785,44.285,58.785,42.716,58.785,41.15z"/>
<path fill-rule="evenodd" clip-rule="evenodd" fill="#46150D" d="M45.853,32.332c0,1.176,0,2.35,0,3.527c-1.175,0-2.353,0-3.527,0
	c0,1.764,0,3.527,0,5.291c0,1.565,0,3.135,0,4.701c1.174,0,2.352,0,3.527,0c0,0.591,0,1.178,0,1.764c0,0.393,0,0.783,0,1.176
	c3.134,0,6.269,0,9.406,0c0-0.587,0-1.176,0-1.762c0-0.393,0-0.785,0-1.178c1.175,0,2.352,0,3.526,0c0-1.566,0-3.136,0-4.701
	c0-1.764,0-3.527,0-5.291c-1.175,0-2.352,0-3.526,0c0-1.178,0-2.352,0-3.527C52.122,32.332,48.987,32.332,45.853,32.332z"/>
<path fill-rule="evenodd" clip-rule="evenodd" fill="#F47920" d="M45.853,32.332c-1.175,0-2.353,0-3.527,0c0,1.176,0,2.35,0,3.527
	c1.174,0,2.352,0,3.527,0C45.853,34.682,45.853,33.508,45.853,32.332z"/>
<path fill-rule="evenodd" clip-rule="evenodd" fill="#F47920" d="M42.326,35.859c-1.176,0-2.354,0-3.527,0c0,1.177,0,2.35,0,3.527
	c-0.395,0-0.784,0-1.177,0c-0.587,0-1.175,0-1.764,0c-1.175,0-2.353,0-3.526,0c0,0.393,0,0.784,0,1.178c0,1.763,0,3.523,0,5.287
	c1.763,0,3.526,0,5.29,0c0.393,0,0.782,0,1.177,0c0,0.393,0,0.785,0,1.178c0,0.586,0,1.175,0,1.762c-1.177,0-2.352,0-3.527,0
	c-0.979,0-1.959,0-2.939,0c0,1.178,0,2.353,0,3.529c1.174,0,2.352,0,3.526,0c0,0.39,0,0.783,0,1.175c0,0.588,0,1.175,0,1.766
	c0.394,0,0.784,0,1.177,0c0.587,0,1.176,0,1.764,0c0,1.173,0,2.349,0,3.525c4.506,0,9.014,0,13.52,0c0-0.391,0-0.785,0-1.177
	c0-0.784,0-1.567,0-2.349c0.393,0,0.783,0,1.177,0c0.587,0,1.174,0,1.764,0c0-0.393,0-0.784,0-1.178c0-0.588,0-1.178,0-1.763
	c1.175,0,2.352,0,3.526,0c0-0.394,0-0.785,0-1.177c0-1.766,0-3.528,0-5.292c-1.175,0-2.352,0-3.526,0c0,0.393,0,0.785,0,1.178
	c0,0.586,0,1.175,0,1.762c-3.137,0-6.271,0-9.406,0c0-0.393,0-0.783,0-1.176c0-0.586,0-1.173,0-1.764c-1.175,0-2.353,0-3.527,0
	c0-1.566,0-3.136,0-4.701C42.326,39.387,42.326,37.623,42.326,35.859z"/>
<path fill-rule="evenodd" clip-rule="evenodd" fill="#46150D" d="M12.932,39.387c-1.174,0-2.352,0-3.526,0c0,0.393,0,0.784,0,1.178
	c0,0.586,0,1.173,0,1.763c-0.393,0-0.784,0-1.175,0c-0.589,0-1.176,0-1.764,0c0,0.586,0,1.174,0,1.761c0,1.568,0,3.138,0,4.703
	c0.783,0,1.566,0,2.352,0c0.115,0.081,0.49-0.098,0.587,0c0.071,0.074-0.026,0.486,0,0.587c0.042,0.171,0,0.419,0,0.591
	c0,0.195,0,0.393,0,0.587c0,0.588,0,1.176,0,1.765c0.588,0,1.175,0,1.764,0c1.763,0,3.526,0,5.291,0c0-0.589,0-1.177,0-1.765
	c0-0.587,0-1.178,0-1.765c0.392,0,0.782,0,1.175,0c0.589,0,1.176,0,1.764,0c0-0.587,0-1.176,0-1.762c0-0.393,0-0.785,0-1.178
	c0-0.586,0-1.176,0-1.764c0-0.587,0-1.175,0-1.761c-0.393,0-0.783,0-1.175,0c-0.589,0-1.177,0-1.764,0c0-0.59,0-1.177,0-1.763
	c0-0.394,0-0.785,0-1.178C15.285,39.387,14.107,39.387,12.932,39.387z"/>
<path fill-rule="evenodd" clip-rule="evenodd" fill="#46150D" d="M32.332,45.852c0,0.393,0,0.785,0,1.178c0,0.586,0,1.175,0,1.762
	c0.98,0,1.96,0,2.939,0c1.176,0,2.351,0,3.527,0c0-0.587,0-1.176,0-1.762c0-0.393,0-0.785,0-1.178c-0.395,0-0.784,0-1.177,0
	C35.858,45.852,34.095,45.852,32.332,45.852z"/>
<path fill-rule="evenodd" clip-rule="evenodd" fill="#46150D" d="M32.332,48.791c-3.136,0-6.27,0-9.406,0c0,1.178,0,2.353,0,3.529
	c3.137,0,6.271,0,9.406,0C32.332,51.144,32.332,49.969,32.332,48.791z"/>
</svg>
