<?xml version="1.0" encoding="utf-8"?>
<!-- Generator: Adobe Illustrator 15.0.0, SVG Export Plug-In  -->
<!DOCTYPE svg PUBLIC "-//W3C//DTD SVG 1.1//EN" "http://www.w3.org/Graphics/SVG/1.1/DTD/svg11.dtd" [
	<!ENTITY ns_flows "http://ns.adobe.com/Flows/1.0/">
]>
<svg version="1.1"
	 xmlns="http://www.w3.org/2000/svg" xmlns:xlink="http://www.w3.org/1999/xlink" xmlns:a="http://ns.adobe.com/AdobeSVGViewerExtensions/3.0/"
	 x="0px" y="0px" width="120px" height="80px" viewBox="-9.915 -17.687 120 80" enable-background="new -9.915 -17.687 120 80"
	 xml:space="preserve">
<defs>
</defs>
<path fill-rule="evenodd" clip-rule="evenodd" fill="#D54C27" d="M84.65,3.527c0.588,0,1.174,0,1.763,0c0.394,0,0.783,0,1.176,0
	c0.589,0,1.177,0,1.763,0c0.589,0,1.177,0,1.766,0c0,0.393,0,0.783,0,1.176c0,1.763,0,3.526,0,5.291c1.174,0,2.351,0,3.527,0
	c0,0.391,0,0.782,0,1.175c0,1.763,0,3.527,0,5.291c0.392,0,0.782,0,1.175,0c0.588,0,1.176,0,1.764,0c0,0.392,0,0.783,0,1.175
	c0,1.765,0,3.53,0,5.29c1.174,0,2.352,0,3.527,0c0,5.49,0,10.974,0,16.46c-1.176,0-2.354,0-3.527,0c0,3.135,0,6.273,0,9.409
	c-0.393,0-0.783,0-1.176,0c-0.588,0-1.175,0-1.763,0c0,1.173,0,2.349,0,3.525c-1.177,0-2.354,0-3.527,0c0,0.389,0,0.782,0,1.175
	c0,0.587,0,1.176,0,1.763c-0.393,0-0.783,0-1.177,0c-0.589,0-1.175,0-1.763,0c0,0.587,0,1.178,0,1.764c0,0.587,0,1.178,0,1.766
	c0.588,0,1.174,0,1.763,0c0.394,0,0.784,0,1.177,0c0,0.391,0,0.783,0,1.178c0,0.778,0,1.565,0,2.349c-6.271,0-12.542,0-18.812,0
	c-3.135,0-6.272,0-9.407,0c-1.567,0-3.135,0-4.703,0c-1.764,0-3.526,0-5.291,0c-6.269,0-12.539,0-18.81,0c-3.136,0-6.271,0-9.404,0
	c-1.568,0-3.137,0-4.703,0c-1.765,0-3.527,0-5.291,0c-0.59,0-1.177,0-1.766,0c0-1.177,0-2.349,0-3.526c-1.174,0-2.351,0-3.527,0
	c0-1.179,0-2.352,0-3.529c-0.587,0-1.174,0-1.764,0c-0.391,0-0.781,0-1.175,0c-0.589,0-1.175,0-1.763,0s-1.175,0-1.764,0
	c0-0.393,0-0.783,0-1.176c0-1.762,0-3.525,0-5.287c-0.393,0-0.783,0-1.176,0c-0.588,0-1.176,0-1.763,0c0-3.136,0-6.274,0-9.409
	c0-1.566,0-3.136,0-4.701c0-1.764,0-3.527,0-5.291c0.391,0,0.782,0,1.175,0c0.588,0,1.174,0,1.764,0c0-0.588,0-1.178,0-1.765
	c0-0.392,0-0.784,0-1.177c0-0.586,0-1.174,0-1.764c0-0.586,0-1.173,0-1.763c1.176,0,2.352,0,3.526,0c0-1.174,0-2.351,0-3.525
	c0.394,0,0.784,0,1.175,0c0.59,0,1.177,0,1.764,0c0-0.395,0-0.784,0-1.176c0-0.589,0-1.175,0-1.764c0.393,0,0.785,0,1.177,0
	c1.763,0,3.526,0,5.29,0c0-1.175,0-2.352,0-3.528c1.568,0,3.137,0,4.703,0c1.764,0,3.527,0,5.291,0c1.568,0,3.136,0,4.703,0
	c1.764,0,3.527,0,5.291,0c0,1.176,0,2.353,0,3.528c0.589,0,1.174,0,1.764,0c0.588,0,1.175,0,1.764,0c0.393,0,0.783,0,1.174,0
	c0.59,0,1.177,0,1.766,0c2.156,0,4.311,0,6.466,0c0-1.175,0-2.352,0-3.528c1.567,0,3.135,0,4.702,0c1.765,0,3.527,0,5.292,0
	c0-0.393,0-0.782,0-1.175c0-0.588,0-1.176,0-1.763c0.392,0,0.783,0,1.175,0c1.763,0,3.527,0,5.291,0c0-1.176,0-2.353,0-3.528
	c0.393,0,0.782,0,1.176,0c0.589,0,1.175,0,1.763,0c0-0.196,0-0.392,0-0.588c0-0.784,0-1.568,0-2.352c0.393,0,0.785,0,1.176,0
	c1.763,0,3.527,0,5.291,0c0-1.174,0-2.353,0-3.527c1.567,0,3.136,0,4.703,0c0.784,0,1.566,0,2.352,0c0.783,0,1.567,0,2.351,0
	c0.197,0,0.392,0,0.589,0C84.65,1.175,84.65,2.353,84.65,3.527z M88.178,6.467c-1.765,0-3.527,0-5.292,0c-0.392,0-0.782,0-1.175,0
	c0,1.763,0,3.528,0,5.291c0,0.393,0,0.782,0,1.175c2.156,0,4.31,0,6.467,0c0-1.567,0-3.135,0-4.703
	C88.178,7.642,88.178,7.055,88.178,6.467z M78.184,9.995c-1.176,0-2.352,0-3.527,0c0,0.391,0,0.782,0,1.175c0,0.588,0,1.175,0,1.763
	c1.176,0,2.352,0,3.527,0c0-0.393,0-0.782,0-1.175C78.184,11.169,78.184,10.582,78.184,9.995z M12.931,48.795
	c0.393,0,0.784,0,1.176,0c0.59,0,1.177,0,1.764,0c0,0.587,0,1.173,0,1.762c0,0.587,0,1.175,0,1.764c3.137,0,6.27,0,9.406,0
	c0.196,0,0.392,0,0.588,0c0,0.389,0,0.782,0,1.175c0,0.587,0,1.176,0,1.763c0.392,0,0.785,0,1.174,0c0.591,0,1.179,0,1.766,0
	c0.393,0,0.784,0,1.176,0c0.783,0,1.568,0,2.352,0c0,0.394,0,0.785,0,1.178c0,0.782,0,1.565,0,2.352c2.352,0,4.701,0,7.055,0
	c0.587,0,1.174,0,1.764,0c0.587,0,1.176,0,1.764,0c0.586,0,1.175,0,1.763,0c0.782,0,1.568,0,2.352,0c4.898,0,9.797,0,14.695,0
	c0-1.179,0-2.352,0-3.529c0.394,0,0.784,0,1.176,0c1.764,0,3.528,0,5.291,0c0-0.393,0-0.783,0-1.176c0-0.587,0-1.173,0-1.762
	c0.588,0,1.176,0,1.764,0c0.589,0,1.175,0,1.764,0c0-3.138,0-6.273,0-9.408c0-1.566,0-3.134,0-4.702c0-1.763,0-3.525,0-5.289
	c0.784,0,1.567,0,2.353,0c0.133,0.076,0.471-0.096,0.587,0c0.046,0.038,0,0.517,0,0.587c0,0.191-0.022,0.402,0,0.591
	c0.021,0.188,0,0.394,0,0.586c0,0.392,0,0.784,0,1.177c0.392,0,0.785,0,1.176,0c0.783,0,1.566,0,2.352,0c0,0.389,0,0.781,0,1.174
	c0,0.784,0,1.568,0,2.351c0.392,0,0.784,0,1.176,0c1.763,0,3.526,0,5.291,0c0-1.176,0-2.351,0-3.524c0.392,0,0.784,0,1.174,0
	c0.785,0,1.568,0,2.354,0c0-0.393,0-0.785,0-1.177c0-1.764,0-3.527,0-5.291c0-0.393,0-0.785,0-1.178c0-1.764,0-3.527,0-5.291
	c-1.175,0-2.354,0-3.527,0c0-1.174,0-2.351,0-3.525c-3.331,0-6.663,0-9.994,0c0,0.39,0,0.783,0,1.174c0,0.785,0,1.569,0,2.351
	c-0.392,0-0.783,0-1.175,0c-0.589,0-1.176,0-1.765,0c0,0.392,0,0.785,0,1.177c0,1.764,0,3.526,0,5.291c-0.589,0-1.175,0-1.764,0
	c-0.588,0-1.176,0-1.764,0c0-0.393,0-0.785,0-1.178c0-1.174,0-2.35,0-3.527c0-0.586,0-1.173,0-1.763c-0.392,0-0.782,0-1.174,0
	c-0.395,0-0.786,0-1.178,0c-0.587,0-1.176,0-1.763,0c-0.784,0-1.568,0-2.353,0c0-0.39,0-0.781,0-1.174c0-0.783,0-1.568,0-2.351
	c-0.392,0-0.782,0-1.175,0c-0.588,0-1.175,0-1.763,0c-1.176,0-2.354,0-3.527,0c-0.394,0-0.783,0-1.176,0c-1.764,0-3.527,0-5.291,0
	c0,1.174,0,2.351,0,3.525c-0.392,0-0.785,0-1.177,0c-1.762,0-3.526,0-5.289,0c0,0.392,0,0.785,0,1.177c0,0.586,0,1.176,0,1.764
	c-0.395,0-0.785,0-1.176,0c-1.764,0-3.527,0-5.291,0c0,1.176,0,2.35,0,3.527c-0.392,0-0.785,0-1.176,0c-0.392,0-0.784,0-1.176,0
	c-0.588,0-1.176,0-1.764,0c-0.392,0-0.784,0-1.176,0c-0.588,0-1.175,0-1.764,0c-0.393,0-0.783,0-1.175,0c-0.591,0-1.177,0-1.765,0
	c-0.392,0-0.783,0-1.174,0c-0.59,0-1.178,0-1.766,0c0,1.177,0,2.35,0,3.527c-1.174,0-2.352,0-3.527,0c0-1.178,0-2.351,0-3.527
	c-1.175,0-2.352,0-3.527,0c0-0.393,0-0.785,0-1.178c0-0.781,0-1.565,0-2.35c-0.392,0-0.783,0-1.174,0c-1.766,0-3.529,0-5.293,0
	c0,1.176,0,2.35,0,3.527c-0.391,0-0.782,0-1.174,0c-0.59,0-1.176,0-1.765,0c0,0.393,0,0.784,0,1.177c0,0.587,0,1.173,0,1.764
	c0,1.174,0,2.351,0,3.527c0.394,0,0.784,0,1.175,0c0.59,0,1.177,0,1.764,0c0,1.174,0,2.349,0,3.524c1.177,0,2.354,0,3.527,0
	C12.931,42.521,12.931,45.659,12.931,48.795z"/>
<path fill-rule="evenodd" clip-rule="evenodd" fill="#5E523B" d="M88.178,6.467c-1.765,0-3.527,0-5.292,0c-0.392,0-0.782,0-1.175,0
	c0,1.763,0,3.528,0,5.291c0,0.393,0,0.782,0,1.175c2.156,0,4.31,0,6.467,0c0-1.567,0-3.135,0-4.703
	C88.178,7.642,88.178,7.055,88.178,6.467z"/>
<path fill-rule="evenodd" clip-rule="evenodd" fill="#5E523B" d="M78.184,9.995c-1.176,0-2.352,0-3.527,0c0,0.391,0,0.782,0,1.175
	c0,0.588,0,1.175,0,1.763c1.176,0,2.352,0,3.527,0c0-0.393,0-0.782,0-1.175C78.184,11.169,78.184,10.582,78.184,9.995z"/>
<path fill-rule="evenodd" clip-rule="evenodd" fill="#E96224" d="M22.925,32.921c0-1.178,0-2.351,0-3.527c0.588,0,1.176,0,1.766,0
	c0.391,0,0.782,0,1.174,0c0.588,0,1.174,0,1.765,0c0.392,0,0.782,0,1.175,0c0.589,0,1.176,0,1.764,0c0.392,0,0.784,0,1.176,0
	c0.588,0,1.176,0,1.764,0c0.392,0,0.784,0,1.176,0c0.391,0,0.784,0,1.176,0c0-1.178,0-2.352,0-3.527c1.764,0,3.527,0,5.291,0
	c0.391,0,0.781,0,1.176,0c0-0.588,0-1.178,0-1.764c0-0.393,0-0.785,0-1.177c1.763,0,3.527,0,5.289,0c0.392,0,0.785,0,1.177,0
	c0-1.174,0-2.351,0-3.525c1.764,0,3.527,0,5.291,0c0.393,0,0.782,0,1.176,0c1.174,0,2.352,0,3.527,0c0.588,0,1.175,0,1.763,0
	c0.393,0,0.783,0,1.175,0c0,0.783,0,1.567,0,2.351c0,0.393,0,0.785,0,1.174c0.784,0,1.568,0,2.353,0c0.587,0,1.176,0,1.763,0
	c0.392,0,0.783,0,1.178,0c0.392,0,0.782,0,1.174,0c0,0.59,0,1.177,0,1.763c0,1.178,0,2.354,0,3.527c0,0.393,0,0.785,0,1.178
	c0.588,0,1.176,0,1.764,0c0.589,0,1.175,0,1.764,0c0-1.765,0-3.527,0-5.291c0-0.393,0-0.785,0-1.177c0.589,0,1.176,0,1.765,0
	c0.392,0,0.783,0,1.175,0c0-0.781,0-1.565,0-2.351c0-0.392,0-0.785,0-1.174c3.331,0,6.663,0,9.994,0c0,1.174,0,2.351,0,3.525
	c1.174,0,2.353,0,3.527,0c0,1.763,0,3.527,0,5.291c0,0.393,0,0.785,0,1.178c0,1.764,0,3.527,0,5.291c0,0.392,0,0.784,0,1.177
	c-0.785,0-1.568,0-2.354,0c-0.39,0-0.782,0-1.174,0c0,1.174,0,2.349,0,3.524c-1.765,0-3.528,0-5.291,0c-0.392,0-0.784,0-1.176,0
	c0-0.782,0-1.566,0-2.351c0-0.393,0-0.785,0-1.174c-0.785,0-1.568,0-2.352,0c-0.391,0-0.784,0-1.176,0c0-0.393,0-0.785,0-1.177
	c0-0.192,0.021-0.398,0-0.586c-0.022-0.188,0-0.399,0-0.591c0-0.07,0.046-0.549,0-0.587c-0.116-0.096-0.454,0.076-0.587,0
	c-0.785,0-1.568,0-2.353,0c0,1.764,0,3.526,0,5.289c0,1.568,0,3.136,0,4.702c0,3.135,0,6.271,0,9.408c-0.589,0-1.175,0-1.764,0
	c-0.588,0-1.176,0-1.764,0c0,0.589,0,1.175,0,1.762c0,0.393,0,0.783,0,1.176c-1.763,0-3.527,0-5.291,0c-0.392,0-0.782,0-1.176,0
	c0,1.178,0,2.351,0,3.529c-4.898,0-9.797,0-14.695,0c-0.783,0-1.569,0-2.352,0c-0.588,0-1.177,0-1.763,0c-0.588,0-1.177,0-1.764,0
	c-0.59,0-1.177,0-1.764,0c-2.354,0-4.703,0-7.055,0c0-0.786,0-1.569,0-2.352c0-0.393,0-0.784,0-1.178c-0.783,0-1.568,0-2.352,0
	c-0.392,0-0.783,0-1.176,0c-0.587,0-1.175,0-1.766,0c-0.389,0-0.782,0-1.174,0c0-0.587,0-1.176,0-1.763c0-0.393,0-0.786,0-1.175
	c-0.196,0-0.392,0-0.588,0c-3.137,0-6.27,0-9.406,0c0-0.589,0-1.177,0-1.764c0-0.589,0-1.175,0-1.762c-0.587,0-1.174,0-1.764,0
	c-0.392,0-0.783,0-1.176,0c0-3.136,0-6.274,0-9.409c0.393,0,0.784,0,1.176,0c0.59,0,1.177,0,1.764,0c0-0.586,0-1.176,0-1.764
	c0-0.587,0-1.175,0-1.761c1.176,0,2.353,0,3.527,0c0-0.197,0-0.393,0-0.59c0-0.784,0-1.566,0-2.351
	C20.573,32.921,21.751,32.921,22.925,32.921z M38.797,43.503c0,0.587,0,1.175,0,1.763c0,1.174,0,2.352,0,3.529
	c0.392,0,0.786,0,1.176,0c0.393,0,0.784,0,1.177,0c0.587,0,1.176,0,1.764,0c0.782,0,1.568,0,2.352,0c0,0.388,0,0.781,0,1.173
	c0,0.784,0,1.567,0,2.353c5.487,0,10.971,0,16.458,0c0-1.177,0-2.353,0-3.525c1.176,0,2.353,0,3.528,0c0-0.393,0-0.784,0-1.178
	c0-0.588,0-1.178,0-1.763c0.393,0,0.782,0,1.176,0c0.589,0,1.175,0,1.763,0c0-0.394,0-0.785,0-1.177c0-1.766,0-3.528,0-5.292
	c0-0.39,0-0.782,0-1.176c0-1.763,0-3.525,0-5.289c-0.392,0-0.782,0-1.174,0c-0.395,0-0.786,0-1.178,0c-0.587,0-1.176,0-1.763,0
	c-0.784,0-1.568,0-2.353,0c0-0.393,0-0.784,0-1.178c0-0.781,0-1.565,0-2.35c-5.487,0-10.971,0-16.458,0c0,1.177,0,2.35,0,3.527
	c-0.394,0-0.783,0-1.177,0c-0.589,0-1.175,0-1.763,0c-1.176,0-2.353,0-3.528,0c0,0.393,0,0.784,0,1.178c0,1.763,0,3.523,0,5.287
	c-3.134,0-6.27,0-9.404,0c0-1.176,0-2.351,0-3.524c-0.393,0-0.785,0-1.176,0c-0.588,0-1.179,0-1.765,0c-0.588,0-1.176,0-1.762,0
	c-0.59,0-1.178,0-1.766,0c0,1.174,0,2.349,0,3.524c0.394,0,0.783,0,1.176,0c1.764,0,3.528,0,5.292,0c0,0.196,0,0.393,0,0.591
	c0,0.783,0,1.565,0,2.349c3.135,0,6.271,0,9.404,0C38.797,42.719,38.797,43.112,38.797,43.503z"/>
<path fill-rule="evenodd" clip-rule="evenodd" fill="#46150D" d="M12.931,39.386c0.393,0,0.784,0,1.176,0c0.59,0,1.177,0,1.764,0
	c0-0.586,0-1.176,0-1.764c0-0.587,0-1.175,0-1.761c1.176,0,2.353,0,3.527,0c0-0.197,0-0.393,0-0.59c0-0.784,0-1.566,0-2.351
	c0-1.178,0-2.351,0-3.527c-1.175,0-2.352,0-3.527,0c0-0.393,0-0.785,0-1.178c0-0.781,0-1.565,0-2.35c-0.392,0-0.783,0-1.174,0
	c-1.766,0-3.529,0-5.293,0c0,1.176,0,2.35,0,3.527c-0.391,0-0.782,0-1.174,0c-0.59,0-1.176,0-1.765,0c0,0.393,0,0.784,0,1.177
	c0,0.587,0,1.173,0,1.764c0,1.174,0,2.351,0,3.527c0.394,0,0.784,0,1.175,0c0.59,0,1.177,0,1.764,0c0,1.174,0,2.349,0,3.524
	C10.58,39.386,11.757,39.386,12.931,39.386z"/>
<path fill-rule="evenodd" clip-rule="evenodd" fill="#F47920" d="M38.797,34.099c0-0.394,0-0.785,0-1.178c1.176,0,2.353,0,3.528,0
	c0.588,0,1.174,0,1.763,0c0.394,0,0.783,0,1.177,0c0-1.178,0-2.351,0-3.527c5.487,0,10.971,0,16.458,0c0,0.784,0,1.568,0,2.35
	c0,0.394,0,0.785,0,1.178c0.784,0,1.568,0,2.353,0c0.587,0,1.176,0,1.763,0c0.392,0,0.783,0,1.178,0c0.392,0,0.782,0,1.174,0
	c0,1.764,0,3.526,0,5.289c0,0.394,0,0.786,0,1.176c0,1.764,0,3.526,0,5.292c0,0.392,0,0.783,0,1.177c-0.588,0-1.174,0-1.763,0
	c-0.394,0-0.783,0-1.176,0c0,0.585,0,1.175,0,1.763c0,0.394,0,0.785,0,1.178c-1.176,0-2.353,0-3.528,0c0,1.173,0,2.349,0,3.525
	c-5.487,0-10.971,0-16.458,0c0-0.785,0-1.568,0-2.353c0-0.392,0-0.785,0-1.173c-0.783,0-1.569,0-2.352,0c-0.588,0-1.177,0-1.764,0
	c-0.393,0-0.784,0-1.177,0c-0.39,0-0.784,0-1.176,0c0-1.178,0-2.355,0-3.529c0-0.588,0-1.176,0-1.763c0-0.391,0-0.784,0-1.178
	c0-0.393,0-0.783,0-1.176c0-0.586,0-1.173,0-1.764C38.797,37.622,38.797,35.861,38.797,34.099z M58.785,32.921
	c-0.196,0-0.394,0-0.59,0c-0.782,0-1.565,0-2.35,0c-0.785,0-1.567,0-2.353,0c-1.567,0-3.135,0-4.702,0c0,0.587,0,1.178,0,1.764
	c0,0.392,0,0.784,0,1.177c-0.588,0-1.177,0-1.764,0c-0.589,0-1.175,0-1.763,0c0,1.761,0,3.524,0,5.288c0,1.569,0,3.136,0,4.705
	c1.174,0,2.35,0,3.526,0c0,0.585,0,1.175,0,1.763c0,0.394,0,0.785,0,1.178c1.764,0,3.527,0,5.291,0c1.567,0,3.135,0,4.703,0
	c0-0.784,0-1.57,0-2.355c0-0.195,0-0.393,0-0.585c0.588,0,1.175,0,1.763,0c0.393,0,0.783,0,1.175,0c0-1.765,0-3.529,0-5.291
	c0-1.567,0-3.136,0-4.702c-0.588,0-1.175,0-1.763,0c-0.392,0-0.783,0-1.175,0c0-0.393,0-0.785,0-1.177
	C58.785,34.099,58.785,33.508,58.785,32.921z"/>
<path fill-rule="evenodd" clip-rule="evenodd" fill="#46150D" d="M58.785,32.921c-0.196,0-0.394,0-0.59,0c-0.782,0-1.565,0-2.35,0
	c-0.785,0-1.567,0-2.353,0c-1.567,0-3.135,0-4.702,0c0,0.587,0,1.178,0,1.764c0,0.392,0,0.784,0,1.177c-0.588,0-1.177,0-1.764,0
	c-0.589,0-1.175,0-1.763,0c0,1.761,0,3.524,0,5.288c0,1.569,0,3.136,0,4.705c1.174,0,2.35,0,3.526,0c0,0.585,0,1.175,0,1.763
	c0,0.394,0,0.785,0,1.178c1.764,0,3.527,0,5.291,0c1.567,0,3.135,0,4.703,0c0-0.784,0-1.57,0-2.355c0-0.195,0-0.393,0-0.585
	c0.588,0,1.175,0,1.763,0c0.393,0,0.783,0,1.175,0c0-1.765,0-3.529,0-5.291c0-1.567,0-3.136,0-4.702c-0.588,0-1.175,0-1.763,0
	c-0.392,0-0.783,0-1.175,0c0-0.393,0-0.785,0-1.177C58.785,34.099,58.785,33.508,58.785,32.921z"/>
<path fill-rule="evenodd" clip-rule="evenodd" fill="#46150D" d="M29.393,39.386c0-1.176,0-2.351,0-3.524c-0.393,0-0.785,0-1.176,0
	c-0.588,0-1.179,0-1.765,0c-0.588,0-1.176,0-1.762,0c-0.59,0-1.178,0-1.766,0c0,1.174,0,2.349,0,3.524c0.394,0,0.783,0,1.176,0
	C25.864,39.386,27.629,39.386,29.393,39.386z"/>
<path fill-rule="evenodd" clip-rule="evenodd" fill="#46150D" d="M38.797,39.386c-3.134,0-6.27,0-9.404,0c0,0.196,0,0.393,0,0.591
	c0,0.783,0,1.565,0,2.349c3.135,0,6.271,0,9.404,0c0-0.393,0-0.783,0-1.176C38.797,40.563,38.797,39.977,38.797,39.386z"/>
</svg>
