<?xml version="1.0" encoding="utf-8"?>
<!-- Generator: Adobe Illustrator 15.0.0, SVG Export Plug-In  -->
<!DOCTYPE svg PUBLIC "-//W3C//DTD SVG 1.1//EN" "http://www.w3.org/Graphics/SVG/1.1/DTD/svg11.dtd" [
	<!ENTITY ns_flows "http://ns.adobe.com/Flows/1.0/">
]>
<svg version="1.1"
	 xmlns="http://www.w3.org/2000/svg" xmlns:xlink="http://www.w3.org/1999/xlink" xmlns:a="http://ns.adobe.com/AdobeSVGViewerExtensions/3.0/"
	 x="0px" y="0px" width="120px" height="80px" viewBox="-16.52 -11.221 120 80" enable-background="new -16.52 -11.221 120 80"
	 xml:space="preserve">
<defs>
</defs>
<path fill-rule="evenodd" clip-rule="evenodd" fill="#D54C27" d="M45.852,1.764c0,0.392,0,0.783,0,1.175c0.392,0,0.784,0,1.178,0
	c0.585,0,1.178,0,1.763,0c0,0.588,0,1.176,0,1.765c0,4.311,0,8.621,0,12.932c0,0.588,0,1.175,0,1.763c0.587,0,1.177,0,1.763,0
	c1.764,0,3.529,0,5.291,0c0,1.176,0,2.353,0,3.528c0.589,0,1.178,0,1.765,0s1.177,0,1.762,0c0.394,0,0.787,0,1.178,0
	c0.588,0,1.177,0,1.764,0c0,0.392,0,0.783,0,1.175c0,0.589,0,1.176,0,1.765c0.589,0,1.175,0,1.762,0c0.393,0,0.783,0,1.178,0
	c0.587,0,1.176,0,1.762,0c0.588,0,1.176,0,1.767,0c0,1.174,0,2.351,0,3.525c3.133,0,6.269,0,9.404,0c0,0.392,0,0.785,0,1.177
	c0,0.586,0,1.176,0,1.764c1.176,0,2.349,0,3.525,0c0,2.35,0,4.704,0,7.055c1.179,0,2.353,0,3.527,0c0,0.393,0,0.784,0,1.178
	c0,0.586,0,1.173,0,1.763c0.195,0,0.395,0,0.587,0c0.787,0,1.57,0,2.354,0c0,5.484,0,10.972,0,16.459c-0.392,0-0.784,0-1.176,0
	c-0.587,0-1.179,0-1.766,0c0,0.589,0,1.175,0,1.762c0,0.393,0,0.783,0,1.176c0,0.587,0,1.178,0,1.764c0,0.587,0,1.178,0,1.766
	c0.587,0,1.179,0,1.766,0c0.392,0,0.784,0,1.176,0c0,0.391,0,0.783,0,1.178c0,0.778,0,1.565,0,2.349c-3.138,0-6.274,0-9.407,0
	c-1.568,0-3.136,0-4.703,0c-1.763,0-3.526,0-5.288,0c-3.136,0-6.271,0-9.409,0c-1.567,0-3.133,0-4.701,0c-1.765,0-3.53,0-5.292,0
	c-3.136,0-6.271,0-9.404,0c-1.568,0-3.136,0-4.701,0c-1.765,0-3.528,0-5.293,0c-1.568,0-3.135,0-4.704,0c-1.763,0-3.526,0-5.289,0
	c-3.333,0-6.665,0-9.994,0c0-2.349,0-4.705,0-7.056c-1.177,0-2.35,0-3.526,0c0-0.393,0-0.783,0-1.176c0-0.587,0-1.173,0-1.762
	c-0.195,0-0.393,0-0.588,0c-0.786,0-1.569,0-2.353,0c0-0.391,0-0.785,0-1.177c0-1.762,0-3.526,0-5.289c-1.174,0-2.353,0-3.525,0
	c0-1.569,0-3.136,0-4.705c0-0.782-0.002-1.567,0-2.35c0-0.394,0-0.787,0-1.178c0-0.587,0-1.175,0-1.761c0-1.569,0-3.139,0-4.704
	c0-1.764,0-3.528,0-5.291c1.173,0,2.352,0,3.525,0c0-0.588,0-1.178,0-1.764c0-0.587,0-1.177,0-1.763c0-0.393,0-0.786,0-1.174
	c0-0.59,0-1.177,0-1.765c0.392,0,0.783,0,1.175,0c0.588,0,1.178,0,1.766,0c0-0.589,0-1.176,0-1.765c0-0.392,0-0.783,0-1.175
	c0-0.588,0-1.175,0-1.764c0-0.588,0-1.175,0-1.764c1.177,0,2.35,0,3.526,0c0-0.393,0-0.782,0-1.175c0-0.588,0-1.176,0-1.763
	c0.394,0,0.786,0,1.178,0c0.586,0,1.174,0,1.764,0c0-0.589,0-1.176,0-1.765c0-0.392-0.003-0.784,0-1.175
	c0-0.588-0.003-1.176,0-1.764c0-0.587,0-1.177,0-1.764c1.175,0,2.351,0,3.523,0c0-1.174,0-2.353,0-3.527c0.393,0,0.786,0,1.177,0
	c1.766,0,3.528,0,5.292,0c0-1.175,0-2.352,0-3.527c0.393,0,0.783,0,1.176,0c1.764,0,3.529,0,5.292,0c0-0.392,0-0.783,0-1.175
	c0-0.588,0-1.175,0-1.764c5.484,0,10.973,0,16.457,0C45.852,0.588,45.852,1.175,45.852,1.764z M45.852,12.933
	c0-2.156,0-4.31,0-6.467c-0.388,0-0.782,0-1.173,0c-0.784,0-1.57,0-2.353,0c0-0.197,0-0.392,0-0.588s0-0.39,0-0.586
	s0.008-0.394,0-0.588c-0.008-0.194,0-0.394,0-0.589c0-0.172,0.043-0.419,0-0.587c-0.028-0.105,0.07-0.517,0-0.588
	c-0.096-0.097-0.471,0.078-0.59,0c-0.393,0-0.784,0-1.173,0c-0.391,0-0.784,0-1.178,0c0,0.393,0,0.785,0,1.176
	c0,0.784,0,1.567,0,2.352c-3.331,0-6.661,0-9.991,0c0,1.175,0,2.353,0,3.527c-2.156,0-4.313,0-6.468,0c0,2.156,0,4.311,0,6.467
	c1.176,0,2.35,0,3.524,0c0,0.391,0,0.782,0,1.175c0,0.588,0,1.175,0,1.763c4.313,0,8.623,0,12.935,0c0-0.393,0-0.782,0-1.175
	c0-0.588,0-1.176,0-1.763c0.394,0,0.787,0,1.178,0c0.588,0,1.173,0,1.763,0c0,0.391,0,0.782,0,1.175c0,0.588-0.002,1.175,0,1.763
	c1.174,0,2.353,0,3.525,0c0-0.393,0-0.782,0-1.175c0-0.588,0-1.176,0-1.763c-1.173,0-2.352,0-3.525,0c0-1.176,0-2.353,0-3.528
	C43.5,12.933,44.679,12.933,45.852,12.933z M22.927,65.253c9.798,0,19.595,0,29.392,0c0-0.393,0-0.786,0-1.179
	c0-0.779,0-1.565,0-2.351c0.393,0,0.786,0,1.178,0c0.782,0,1.564,0,2.35,0c0-0.393,0-0.783,0-1.176c0-0.391,0-0.781,0-1.173
	c0-0.589,0-1.178,0-1.766c0-0.784,0-1.567,0-2.349c0.394,0,0.785,0,1.178,0c0.587,0,1.174,0,1.764,0c0-3.136,0-6.274,0-9.409
	c-0.392,0-0.783,0-1.177,0c-0.587,0-1.176,0-1.765,0c0-0.39,0-0.782,0-1.176c0-0.588,0-1.175,0-1.763c0-1.176,0-2.349,0-3.526
	c-0.393,0-0.785,0-1.175,0c-0.783,0-1.566,0-2.353,0c0-0.393,0-0.784,0-1.178c0-0.781,0-1.565,0-2.35c-1.178,0-2.35,0-3.526,0
	c0-0.393,0-0.785,0-1.178c0-1.764,0-3.527,0-5.291c-0.393,0-0.786,0-1.178,0c-0.585,0-1.174,0-1.763,0c0-1.174,0-2.351,0-3.525
	c-0.388,0-0.782,0-1.173,0c-0.784,0-1.57,0-2.353,0c0-0.395,0-0.784,0-1.176c0-0.589,0-1.175,0-1.764c-6.466,0-12.932,0-19.399,0
	c0,0.392,0,0.783,0,1.175c0,0.393,0,0.785,0,1.176c0,0.589,0,1.176,0,1.763c0,0.785,0,1.569,0,2.351c-0.395,0-0.784,0-1.177,0
	c-0.783,0-1.566,0-2.35,0c0,0.785,0,1.569,0,2.353c0,0.195,0,0.393,0,0.588c-0.393,0-0.785,0-1.177,0c-0.589,0-1.177,0-1.766,0
	c0,1.176,0,2.35,0,3.527c0,1.177,0,2.35,0,3.527c-1.173,0-2.349,0-3.523,0c0-1.178,0-2.351,0-3.527c-0.394,0-0.786,0-1.178,0
	c-1.764,0-3.528,0-5.29,0c0,1.177,0,2.35,0,3.527c-0.393,0-0.787,0-1.178,0c-0.588,0-1.173,0-1.763,0c0,0.393,0,0.784,0,1.178
	c0,1.763,0,3.523,0,5.287c0.783,0,1.566,0,2.353,0c0.132,0.081,0.469-0.096,0.588,0c0.047,0.036,0,0.52,0,0.591
	c0,0.194,0,0.391,0,0.587c0,0.586,0,1.175,0,1.762c1.568,0,3.137,0,4.704,0c0.586,0,1.174,0,1.764,0c0,1.178,0,2.353,0,3.529
	c0,0.39,0,0.783,0,1.175c0,1.766-0.003,3.527,0,5.291c1.175,0,2.351,0,3.523,0c0,0.389,0,0.782,0,1.175c0,0.587,0,1.176,0,1.763
	c0.393,0,0.786,0,1.177,0c0.589,0,1.179,0,1.766,0c1.176,0,2.35,0,3.526,0C22.927,62.901,22.927,64.074,22.927,65.253z"/>
<path fill-rule="evenodd" clip-rule="evenodd" fill="#5E523B" d="M39.386,6.466c0,2.157,0,4.311,0,6.467c0.589,0,1.178,0,1.766,0
	c0.391,0,0.783,0,1.175,0c1.174,0,2.353,0,3.525,0c0-2.156,0-4.31,0-6.467c-0.388,0-0.782,0-1.173,0c-0.784,0-1.57,0-2.353,0
	c0-0.197,0-0.392,0-0.588s0-0.39,0-0.586s0.008-0.394,0-0.588c-0.008-0.194,0-0.394,0-0.589c0-0.172,0.043-0.419,0-0.587
	c-0.028-0.105,0.07-0.517,0-0.588c-0.096-0.097-0.471,0.078-0.59,0c-0.393,0-0.784,0-1.173,0c-0.391,0-0.784,0-1.178,0
	c0,0.393,0,0.785,0,1.176C39.386,4.898,39.386,5.681,39.386,6.466z"/>
<path fill-rule="evenodd" clip-rule="evenodd" fill="#E96224" d="M39.386,6.466c-3.331,0-6.661,0-9.991,0c0,1.175,0,2.353,0,3.527
	c-2.156,0-4.313,0-6.468,0c0,2.156,0,4.311,0,6.467c1.176,0,2.35,0,3.524,0c0,0.391,0,0.782,0,1.175c0,0.588,0,1.175,0,1.763
	c4.313,0,8.623,0,12.935,0c0-0.393,0-0.782,0-1.175c0-0.588,0-1.176,0-1.763c0.394,0,0.787,0,1.178,0c0.588,0,1.173,0,1.763,0
	c0-1.176,0-2.353,0-3.528c-0.392,0-0.784,0-1.175,0c-0.588,0-1.177,0-1.766,0C39.386,10.776,39.386,8.623,39.386,6.466z"/>
<path fill-rule="evenodd" clip-rule="evenodd" fill="#5E523B" d="M42.326,16.46c0,0.391,0,0.782,0,1.175
	c0,0.588-0.002,1.175,0,1.763c1.174,0,2.353,0,3.525,0c0-0.393,0-0.782,0-1.175c0-0.588,0-1.176,0-1.763
	C44.679,16.46,43.5,16.46,42.326,16.46z"/>
<path fill-rule="evenodd" clip-rule="evenodd" fill="#E96224" d="M16.458,35.859c0.196,0,0.393,0,0.589,0c3.137,0,6.272,0,9.404,0
	c0-1.57,0-3.135,0-4.705c0-0.586,0-1.173,0-1.763c0.59,0,1.181,0,1.768,0c0.39,0,0.783,0,1.176,0c0-0.586,0-1.174,0-1.76
	c0-0.59,0-1.177,0-1.765c3.33,0,6.66,0,9.991,0c0,0.587,0,1.174,0,1.765c0,0.586,0,1.174,0,1.76c0.589,0,1.178,0,1.766,0
	c0.391,0,0.783,0,1.175,0c0,3.333,0,6.663,0,9.996c-0.59,0-1.175,0-1.763,0c-0.391,0-0.784,0-1.178,0c0,0.587,0,1.178,0,1.764
	c0,0.392,0,0.784,0,1.177c-1.177,0-2.349,0-3.525,0c0,1.174,0,2.349,0,3.524c1.177,0,2.349,0,3.525,0c0,1.178,0,2.353,0,3.526
	c0,0.591,0,1.178,0,1.766c0,0.392,0,0.783,0,1.177c0,0.585,0,1.175,0,1.763c0,0.394,0,0.785,0,1.178c0,0.587,0,1.173,0,1.762
	c0,0.587,0,1.175,0,1.764c-0.587,0-1.177,0-1.764,0c-0.585,0-1.175,0-1.762,0c0,0.589,0,1.175,0,1.762c0,0.393,0,0.783,0,1.176
	c-0.587,0-1.179,0-1.766,0c-0.586,0-1.175,0-1.763,0c-0.587,0-1.178,0-1.765,0c-0.392,0-0.785,0-1.173,0c-0.589,0-1.176,0-1.763,0
	c-0.591,0-1.181,0-1.766,0c-0.59,0-1.177,0-1.764,0c-0.393,0-0.783,0-1.176,0c0,1.178,0,2.351,0,3.529c9.798,0,19.595,0,29.392,0
	c0-0.393,0-0.786,0-1.179c0-0.779,0-1.565,0-2.351c0.393,0,0.786,0,1.178,0c0.782,0,1.564,0,2.35,0c0-0.393,0-0.783,0-1.176
	c0-0.391,0-0.781,0-1.173c0-0.589,0-1.178,0-1.766c0-0.784,0-1.567,0-2.349c0.394,0,0.785,0,1.178,0c0.587,0,1.174,0,1.764,0
	c0-3.136,0-6.274,0-9.409c-0.392,0-0.783,0-1.177,0c-0.587,0-1.176,0-1.765,0c0-0.39,0-0.782,0-1.176c0-0.588,0-1.175,0-1.763
	c0-1.176,0-2.349,0-3.526c-0.393,0-0.785,0-1.175,0c-0.783,0-1.566,0-2.353,0c0-0.393,0-0.784,0-1.178c0-0.781,0-1.565,0-2.35
	c-1.178,0-2.35,0-3.526,0c0-0.393,0-0.785,0-1.178c0-1.764,0-3.527,0-5.291c-0.393,0-0.786,0-1.178,0c-0.585,0-1.174,0-1.763,0
	c0-1.174,0-2.351,0-3.525c-0.388,0-0.782,0-1.173,0c-0.784,0-1.57,0-2.353,0c0-0.395,0-0.784,0-1.176c0-0.589,0-1.175,0-1.764
	c-6.466,0-12.932,0-19.399,0c0,0.392,0,0.783,0,1.175c0,0.393,0,0.785,0,1.176c0,0.589,0,1.176,0,1.763c0,0.785,0,1.569,0,2.351
	c-0.395,0-0.784,0-1.177,0c-0.783,0-1.566,0-2.35,0c0,0.785,0,1.569,0,2.353c0,0.195,0,0.393,0,0.588c-0.393,0-0.785,0-1.177,0
	c-0.589,0-1.177,0-1.766,0C16.458,33.508,16.458,34.682,16.458,35.859z"/>
<path fill-rule="evenodd" clip-rule="evenodd" fill="#46150D" d="M26.451,35.859c0,1.177,0,2.35,0,3.527c0.59,0,1.181,0,1.768,0
	c0.39,0,0.783,0,1.176,0c0,0.587,0,1.178,0,1.764c0,0.392,0,0.784,0,1.177c1.173,0,2.351,0,3.525,0c0.589,0,1.175,0,1.762,0
	c0.393,0,0.784,0,1.179,0c1.177,0,2.349,0,3.525,0c0-0.393,0-0.785,0-1.177c0-0.586,0-1.177,0-1.764c0.394,0,0.787,0,1.178,0
	c0.588,0,1.173,0,1.763,0c0-3.333,0-6.662,0-9.996c-0.392,0-0.784,0-1.175,0c-0.588,0-1.177,0-1.766,0c0-0.586,0-1.174,0-1.76
	c0-0.59,0-1.177,0-1.765c-3.331,0-6.661,0-9.991,0c0,0.587,0,1.174,0,1.765c0,0.586,0,1.174,0,1.76c-0.393,0-0.786,0-1.176,0
	c-0.587,0-1.178,0-1.768,0c0,0.59,0,1.177,0,1.763C26.451,32.725,26.451,34.289,26.451,35.859z"/>
<path fill-rule="evenodd" clip-rule="evenodd" fill="#F47920" d="M26.451,35.859c-3.132,0-6.268,0-9.404,0c-0.196,0-0.393,0-0.589,0
	c0,1.177,0,2.35,0,3.527c0,0.587,0,1.178,0,1.764c0,0.392,0,0.784,0,1.177c0,0.586,0,1.174,0,1.761c0,0.588,0,1.178,0,1.764
	c-1.173,0-2.349,0-3.523,0c0,0.591,0,1.178,0,1.764c0,0.393,0,0.783,0,1.176c0,1.178,0,2.353,0,3.529c1.175,0,2.351,0,3.523,0
	c0,1.175,0,2.35,0,3.527c0,0.586,0,1.175,0,1.762c0,0.392,0,0.786,0,1.177c0.589,0,1.177,0,1.766,0c0.392,0,0.784,0,1.177,0
	c0,0.589,0,1.175,0,1.762c0,0.393,0,0.783,0,1.176c1.176,0,2.35,0,3.526,0c0.393,0,0.783,0,1.176,0c0.587,0,1.174,0,1.764,0
	c0.585,0,1.175,0,1.766,0c0.587,0,1.174,0,1.763,0c0.388,0,0.781,0,1.173,0c0.587,0,1.178,0,1.765,0c0.588,0,1.177,0,1.763,0
	c0.587,0,1.179,0,1.766,0c0-0.393,0-0.783,0-1.176c0-0.587,0-1.173,0-1.762c0.587,0,1.177,0,1.762,0c0.587,0,1.177,0,1.764,0
	c0-0.589,0-1.177,0-1.764c0-0.589,0-1.175,0-1.762c0-0.393,0-0.784,0-1.178c0-0.588,0-1.178,0-1.763c0-0.394,0-0.785,0-1.177
	c0-0.588,0-1.175,0-1.766c0-1.174,0-2.349,0-3.526c-1.177,0-2.349,0-3.525,0c0-1.176,0-2.351,0-3.524c-0.395,0-0.786,0-1.179,0
	c-0.587,0-1.173,0-1.762,0c-1.175,0-2.353,0-3.525,0c0,1.174,0,2.349,0,3.524c-0.589,0-1.176,0-1.763,0c-0.394,0-0.786,0-1.181,0
	c0,0.591,0,1.178,0,1.764c0,0.393,0,0.783,0,1.176c-2.349,0-4.701,0-7.051,0c0-0.783,0-1.565,0-2.349c0-0.198,0-0.395,0-0.591
	c0.587,0,1.176,0,1.763,0c1.764,0,3.526,0,5.288,0c0-1.176,0-2.351,0-3.524c0.59,0,1.181,0,1.768,0c0.39,0,0.783,0,1.176,0
	c0-0.393,0-0.785,0-1.177c0-0.586,0-1.177,0-1.764c-0.393,0-0.786,0-1.176,0c-0.587,0-1.178,0-1.768,0
	C26.451,38.209,26.451,37.036,26.451,35.859z"/>
<path fill-rule="evenodd" clip-rule="evenodd" fill="#46150D" d="M12.935,48.791c0-0.393,0-0.783,0-1.176c0-0.586,0-1.173,0-1.764
	c1.175,0,2.351,0,3.523,0c0-0.586,0-1.176,0-1.764c0-0.587,0-1.175,0-1.761c0-0.393,0-0.785,0-1.177c0-0.586,0-1.177,0-1.764
	c-1.173,0-2.349,0-3.523,0c0-1.178,0-2.351,0-3.527c-0.394,0-0.786,0-1.178,0c-1.764,0-3.528,0-5.29,0c0,1.177,0,2.35,0,3.527
	c-0.393,0-0.787,0-1.178,0c-0.588,0-1.173,0-1.763,0c0,0.393,0,0.784,0,1.178c0,1.763,0,3.523,0,5.287c0.783,0,1.566,0,2.353,0
	c0.132,0.081,0.469-0.096,0.588,0c0.047,0.036,0,0.52,0,0.591c0,0.194,0,0.391,0,0.587c0,0.586,0,1.175,0,1.762
	c1.568,0,3.137,0,4.704,0C11.757,48.791,12.345,48.791,12.935,48.791z"/>
<path fill-rule="evenodd" clip-rule="evenodd" fill="#46150D" d="M29.395,42.327c-0.393,0-0.786,0-1.176,0c-0.587,0-1.178,0-1.768,0
	c0,1.174,0,2.349,0,3.524c0.395,0,0.787,0,1.181,0c0.587,0,1.174,0,1.763,0C29.395,44.676,29.395,43.501,29.395,42.327z"/>
<path fill-rule="evenodd" clip-rule="evenodd" fill="#46150D" d="M26.451,45.852c-1.762,0-3.524,0-5.288,0c-0.587,0-1.176,0-1.763,0
	c0,0.196,0,0.393,0,0.591c0,0.783,0,1.565,0,2.349c2.35,0,4.702,0,7.051,0c0-0.393,0-0.783,0-1.176
	C26.451,47.029,26.451,46.442,26.451,45.852z"/>
<path fill-rule="evenodd" clip-rule="evenodd" fill="#E96224" d="M12.935,52.32c0,0.39,0,0.783,0,1.175c0,1.766-0.003,3.527,0,5.291
	c1.175,0,2.351,0,3.523,0c0-0.391,0-0.785,0-1.177c0-0.587,0-1.176,0-1.762c0-1.178,0-2.353,0-3.527
	C15.285,52.32,14.109,52.32,12.935,52.32z"/>
<path fill-rule="evenodd" clip-rule="evenodd" fill="#E96224" d="M16.458,58.786c0,0.389,0,0.782,0,1.175c0,0.587,0,1.176,0,1.763
	c0.393,0,0.786,0,1.177,0c0.589,0,1.179,0,1.766,0c0-0.393,0-0.783,0-1.176c0-0.587,0-1.173,0-1.762c-0.393,0-0.785,0-1.177,0
	C17.635,58.786,17.047,58.786,16.458,58.786z"/>
</svg>
