<?xml version="1.0" encoding="utf-8"?>
<!-- Generator: Adobe Illustrator 15.0.0, SVG Export Plug-In  -->
<!DOCTYPE svg PUBLIC "-//W3C//DTD SVG 1.1//EN" "http://www.w3.org/Graphics/SVG/1.1/DTD/svg11.dtd" [
	<!ENTITY ns_flows "http://ns.adobe.com/Flows/1.0/">
]>
<svg version="1.1"
	 xmlns="http://www.w3.org/2000/svg" xmlns:xlink="http://www.w3.org/1999/xlink" xmlns:a="http://ns.adobe.com/AdobeSVGViewerExtensions/3.0/"
	 x="0px" y="0px" width="120px" height="80px" viewBox="-13.086 -7.693 120 80" enable-background="new -13.086 -7.693 120 80"
	 xml:space="preserve">
<defs>
</defs>
<path fill-rule="evenodd" clip-rule="evenodd" fill="#D54C27" d="M3.528,16.46c2.157,0,4.312,0,6.464,0c0-0.588,0-1.176,0-1.763
	c0-0.393,0-0.784,0-1.176c0.591,0,1.178,0,1.767,0c0.389,0,0.781,0,1.175,0c0-0.784,0-1.568,0-2.353c0-0.39,0-0.781,0-1.175
	c2.351,0,4.705,0,7.057,0c0-1.175,0-2.352,0-3.527c1.762,0,3.526,0,5.289,0c0.392,0,0.786,0,1.177,0c0-0.586,0-1.175,0-1.763
	c0-0.393,0-0.783,0-1.175c5.288,0,10.58,0,15.869,0c0-1.175,0-2.352,0-3.527c1.766,0,3.527,0,5.294,0c1.565,0,3.133,0,4.703,0
	c1.761,0,3.522,0,5.287,0c1.569,0,3.136,0,4.705,0c0,0.784,0,1.567,0,2.353c0,0.391,0,0.782,0,1.175c3.136,0,6.27,0,9.404,0
	c0,0.588,0,1.175,0,1.764c0,0.392,0,0.783,0,1.175c1.178,0,2.353,0,3.527,0c0,1.176,0,2.353,0,3.527c-0.392,0-0.784,0-1.175,0
	c-0.588,0-1.175,0-1.766,0c-1.173,0-2.349,0-3.525,0c0,0.394,0,0.785,0,1.175c0,0.589,0,1.178,0,1.765c0,1.174,0,2.351,0,3.527
	c0.391,0,0.783,0,1.177,0c0.585,0,1.176,0,1.762,0c1.178,0,2.353,0,3.527,0c0-0.588,0-1.176,0-1.763c0-1.568,0-3.136,0-4.704
	c1.178,0,2.353,0,3.528,0c0,1.175,0,2.353,0,3.527c0.586,0,1.176,0,1.763,0c0.393,0,0.787,0,1.178,0c0,1.764,0,3.528,0,5.291
	c0,0.392,0,0.784,0,1.176c0,1.763,0,3.527,0,5.291c0,0.391,0,0.783,0,1.175c-0.592,0-1.178,0-1.765,0c-0.392,0-0.783,0-1.176,0
	c0,0.588,0,1.175,0,1.764c0,0.392,0,0.782,0,1.176c-0.782,0-1.571,0-2.351,0c-0.393,0-0.786,0-1.178,0c0,0.195,0,0.39,0,0.587
	c0,1.763,0,3.528,0,5.291c0,0.393,0,0.785,0,1.174c0,1.764,0,3.528,0,5.291c0,0.394,0,0.785,0,1.178c1.178,0,2.353,0,3.528,0
	c0,1.764,0,3.526,0,5.289c0,0.394,0,0.786,0,1.176c0.586,0,1.176,0,1.763,0c0.393,0,0.787,0,1.178,0c0,0.591,0,1.178,0,1.764
	c0,0.393,0,0.783,0,1.176c0.782,0,1.565,0,2.352,0c0.39,0,0.783,0,1.172,0c0,0.587,0,1.178,0,1.765c0,0.393,0,0.784,0,1.176
	c0,0.589,0,1.174,0,1.764c0,0.391,0,0.782,0,1.175c0,0.591,0,1.178,0,1.764c0,0.392,0,0.784,0,1.176c0,0.588,0,1.177,0,1.766
	c0,0.392,0,0.782,0,1.173c0,0.393,0,0.783,0,1.176c0.592,0,1.178,0,1.765,0c0.393,0,0.784,0,1.178,0c0,0.785,0,1.571,0,2.351
	c0,0.393,0,0.786,0,1.179c0.784,0,1.569,0,2.35,0c0.591,0,1.177,0,1.765,0c0.392,0,0.783,0,1.175,0c0.394,0,0.786,0,1.178,0
	c0,1.178,0,2.35,0,3.526c-3.526,0-7.055,0-10.581,0c-1.764,0-3.529,0-5.292,0c-1.571,0-3.137,0-4.703,0c-3.529,0-7.053,0-10.58,0
	c-1.764,0-3.526,0-5.292,0c-1.568,0-3.135,0-4.703,0c-3.528,0-7.055,0-10.583,0c-1.763,0-3.526,0-5.288,0c-1.569,0-3.139,0-4.704,0
	c-1.764,0-3.527,0-5.29,0c-1.565,0-3.136,0-4.701,0c-0.59,0-1.178,0-1.765,0c-0.394,0-0.785,0-1.175,0c-0.786,0-1.569,0-2.352,0
	c-1.57,0-3.136,0-4.705,0c0-1.177,0-2.349,0-3.526c-0.586,0-1.175,0-1.764,0c-0.392,0-0.784,0-1.178,0c0-1.179,0-2.352,0-3.529
	c-1.172,0-2.35,0-3.523,0c0-1.763,0-3.526,0-5.29c0-0.392,0-0.785,0-1.173c-0.59,0-1.175,0-1.765,0c-0.392,0-0.783,0-1.176,0
	c0-1.766,0-3.529,0-5.292c0-0.391,0-0.784,0-1.178c-1.177,0-2.349,0-3.528,0c0-1.762,0-3.525,0-5.29c0-1.566,0-3.136,0-4.701
	c0-3.136,0-6.271,0-9.409c1.18,0,2.352,0,3.528,0c0,0.392,0,0.785,0,1.177c0,0.586,0,1.176,0,1.764c0.195,0,0.393,0,0.587,0
	c0.784,0,1.57,0,2.354,0c0,2.155,0,4.312,0,6.468c0,2.351,0,4.701,0,7.052c1.174,0,2.352,0,3.523,0c0,0.393,0,0.785,0,1.178
	c0,1.762,0,3.526,0,5.291c0.394,0,0.786,0,1.178,0c0.589,0,1.178,0,1.764,0c0,0.39,0,0.783,0,1.175c0,1.766,0,3.527,0,5.291
	c0.587,0,1.178,0,1.765,0c0.586,0,1.176,0,1.762,0c0,0.389,0,0.782,0,1.175c0,0.587,0,1.176,0,1.763c0.587,0,1.179,0,1.766,0
	c0.392,0,0.784,0,1.176,0c0.781,0,1.567,0,2.351,0c1.567,0,3.136,0,4.704,0c0,1.178,0,2.351,0,3.529c0.196,0,0.39,0,0.589,0
	c3.132,0,6.269,0,9.404,0s6.27,0,9.403,0c0-1.179,0-2.352,0-3.529c0.394,0,0.785,0,1.177,0c1.766,0,3.529,0,5.293,0
	c0-0.393,0-0.783,0-1.176c0-0.587-0.001-1.173,0-1.762c1.174,0,2.351,0,3.522,0c0-0.589,0-1.177,0-1.764c0-0.392,0-0.783,0-1.175
	c0-0.784,0-1.57,0-2.353c0-1.568,0-3.134,0-4.704c-1.172,0-2.349,0-3.522,0c0-0.393,0-0.783,0-1.176c0-0.586-0.001-1.173,0-1.764
	c-0.591,0-1.177,0-1.764,0c-0.394,0-0.785,0-1.177,0c0-1.176,0-2.351,0-3.524c-1.176,0-2.353,0-3.529,0c0-0.393,0-0.785,0-1.177
	c0-0.586,0-1.177,0-1.764c0-1.569,0-3.135,0-4.705c0-1.764,0-3.527,0-5.291c0-1.174,0-2.351,0-3.525c-1.175,0-2.349,0-3.527,0
	c0-0.395,0-0.784,0-1.176c0-0.589,0-1.175,0-1.764c0-1.175,0-2.352,0-3.528c-0.392,0-0.782,0-1.175,0c-0.587,0-1.175,0-1.764,0
	c0-0.393,0-0.782,0-1.175c0-0.588,0-1.176,0-1.763c-0.196,0-0.388,0-0.589,0c-0.783,0-1.565,0-2.349,0c-0.394,0-0.785,0-1.177,0
	c-0.588,0-1.174,0-1.765,0c-0.392,0-0.781,0-1.175,0c-0.589,0-1.176,0-1.762,0c-0.395,0-0.784,0-1.178,0c-0.587,0-1.176,0-1.763,0
	c-1.764,0-3.529,0-5.291,0c-0.395,0-0.784,0-1.175,0c-0.59,0-1.175,0-1.764,0c-0.392,0-0.784,0-1.176,0c-0.587,0-1.179,0-1.766,0
	c0,0.391,0,0.782,0,1.175c0,0.588,0,1.175,0,1.763c-1.176,0-2.349,0-3.526,0c0,1.176,0,2.353,0,3.528c-0.586,0-1.175,0-1.764,0
	c-0.392,0-0.784,0-1.178,0c0-1.175,0-2.352,0-3.528c-2.152,0-4.307,0-6.464,0C3.528,20.77,3.528,18.617,3.528,16.46z M75.246,19.988
	c-1.175,0-2.35,0-3.527,0c0,0.391,0,0.782,0,1.175c0,0.588,0,1.175,0,1.763c1.178,0,2.353,0,3.527,0c0-0.393,0-0.782,0-1.175
	C75.246,21.163,75.246,20.575,75.246,19.988z M62.314,19.988c-0.196,0-0.393,0-0.587,0c-0.785,0-1.567,0-2.356,0
	c-0.779,0-1.563,0-2.349,0c-1.563,0-3.135,0-4.7,0c0,0.587,0,1.175,0,1.763c-0.001,0.586,0,1.175,0,1.764c0,0.391,0,0.783,0,1.175
	c0,0.589,0,1.176,0,1.764c-0.591,0-1.177,0-1.764,0c-0.394,0-0.785,0-1.177,0c0,3.135,0,6.271,0,9.406c0.586,0,1.177,0,1.764,0
	c0.393,0,0.784,0,1.177,0c0,0.586,0,1.176,0,1.763s0,1.177,0,1.765c1.761,0,3.522,0,5.287,0c1.569,0,3.136,0,4.705,0
	c0-1.178,0-2.352,0-3.527c0.587,0,1.177,0,1.765,0c0.393,0,0.783,0,1.175,0c0-1.178,0-2.351,0-3.527c0-0.588,0-1.174,0-1.765
	c0-0.392,0-0.785,0-1.174c0-1.765,0-3.528,0-5.292c0-0.391,0-0.783,0-1.176c-0.589,0-1.175,0-1.763,0c-0.394,0-0.785,0-1.177,0
	c0-0.393,0-0.782,0-1.175C62.314,21.163,62.314,20.575,62.314,19.988z"/>
<path fill-rule="evenodd" clip-rule="evenodd" fill="#5E523B" d="M75.246,9.993c-0.392,0-0.784,0-1.175,0c-0.588,0-1.175,0-1.766,0
	c-1.173,0-2.349,0-3.525,0c0,0.394,0,0.785,0,1.175c0,0.589,0,1.178,0,1.765c0,1.174,0,2.351,0,3.527c0.391,0,0.783,0,1.177,0
	c0.585,0,1.176,0,1.762,0c1.178,0,2.353,0,3.527,0c0-0.588,0-1.176,0-1.763C75.246,13.129,75.246,11.561,75.246,9.993z"/>
<path fill-rule="evenodd" clip-rule="evenodd" fill="#5E523B" d="M75.246,19.988c-1.175,0-2.35,0-3.527,0c0,0.391,0,0.782,0,1.175
	c0,0.588,0,1.175,0,1.763c1.178,0,2.353,0,3.527,0c0-0.393,0-0.782,0-1.175C75.246,21.163,75.246,20.575,75.246,19.988z"/>
<path fill-rule="evenodd" clip-rule="evenodd" fill="#E96224" d="M62.314,19.988c-0.196,0-0.393,0-0.587,0c-0.785,0-1.567,0-2.356,0
	c-0.779,0-1.563,0-2.349,0c-1.563,0-3.135,0-4.7,0c0,0.587,0,1.175,0,1.763c-0.001,0.586,0,1.175,0,1.764c0,0.391,0,0.783,0,1.175
	c0,0.589,0,1.176,0,1.764c-0.591,0-1.177,0-1.764,0c-0.394,0-0.785,0-1.177,0c0,3.135,0,6.271,0,9.406c0.586,0,1.177,0,1.764,0
	c0.393,0,0.784,0,1.177,0c0,0.586,0,1.176,0,1.763s0,1.177,0,1.765c1.761,0,3.522,0,5.287,0c1.569,0,3.136,0,4.705,0
	c0-1.178,0-2.352,0-3.527c0.587,0,1.177,0,1.765,0c0.393,0,0.783,0,1.175,0c0-1.178,0-2.351,0-3.527c0-0.588,0-1.174,0-1.765
	c0-0.392,0-0.785,0-1.174c0-1.765,0-3.528,0-5.292c0-0.391,0-0.783,0-1.176c-0.589,0-1.175,0-1.763,0c-0.394,0-0.785,0-1.177,0
	c0-0.393,0-0.782,0-1.175C62.314,21.163,62.314,20.575,62.314,19.988z"/>
<path fill-rule="evenodd" clip-rule="evenodd" fill="#E96224" d="M16.46,22.926c0.196,0,0.393,0,0.587,0c0.787,0,1.57,0,2.354,0
	c0.589,0,1.174,0,1.764,0c0.587,0,1.175,0,1.765,0c0.587,0,1.172,0,1.759,0c1.377,0,2.748,0,4.118,0c0.587,0,1.174,0,1.765,0
	c0.782,0,1.565,0,2.35,0c0,1.176,0,2.353,0,3.528c0.587,0,1.178,0,1.764,0c0.392,0,0.784,0,1.178,0c0,0.588,0,1.175,0,1.764
	c0,0.392,0,0.782,0,1.176c1.174,0,2.349,0,3.524,0c0.589,0,1.177,0,1.764,0c0.393,0,0.783,0,1.175,0c0-0.395,0-0.784,0-1.176
	c0-0.589,0-1.175,0-1.764c0-1.175,0-2.352,0-3.528c-0.392,0-0.782,0-1.175,0c-0.587,0-1.175,0-1.764,0c0-0.393,0-0.782,0-1.175
	c0-0.588,0-1.176,0-1.763c-0.196,0-0.388,0-0.589,0c-0.783,0-1.565,0-2.349,0c-0.394,0-0.785,0-1.177,0c-0.588,0-1.174,0-1.765,0
	c-0.392,0-0.781,0-1.175,0c-0.589,0-1.176,0-1.762,0c-0.395,0-0.784,0-1.178,0c-0.587,0-1.176,0-1.763,0c-1.764,0-3.529,0-5.291,0
	c-0.395,0-0.784,0-1.175,0c-0.59,0-1.175,0-1.764,0c-0.392,0-0.784,0-1.176,0c-0.587,0-1.179,0-1.766,0c0,0.391,0,0.782,0,1.175
	C16.46,21.751,16.46,22.337,16.46,22.926z"/>
<path fill-rule="evenodd" clip-rule="evenodd" fill="#F47920" d="M17.047,22.926c0.787,0,1.57,0,2.354,0c0.589,0,1.174,0,1.764,0
	c0.587,0,1.175,0,1.765,0c0.587,0,1.172,0,1.759,0c1.377,0,2.748,0,4.118,0c0.587,0,1.174,0,1.765,0c0.782,0,1.565,0,2.35,0
	c0,1.176,0,2.353,0,3.528c0.587,0,1.178,0,1.764,0c0.392,0,0.784,0,1.178,0c0,0.588,0,1.175,0,1.764c0,0.392,0,0.782,0,1.176
	c-0.394,0-0.786,0-1.178,0c-0.586,0-1.177,0-1.764,0c0,0.587,0,1.174,0,1.765c0,0.586,0,1.174,0,1.76c-1.177,0-2.35,0-3.527,0
	c0,0.197,0,0.392,0,0.59c0,0.784,0,1.565,0,2.351c0,0.784,0,1.568,0,2.35c0,1.57,0,3.136,0,4.705c0,0.393,0,0.784,0,1.178
	c0,0.586,0,1.173,0,1.763c0,1.174,0,2.349,0,3.524c-2.741,0-5.484,0-8.229,0c-1.376,0-2.744,0-4.118,0c-1.369,0-2.742,0-4.113,0
	c0-0.586,0-1.176,0-1.764c0-0.587,0-1.175,0-1.761c-0.394,0-0.786,0-1.175,0c-0.589,0-1.176,0-1.767,0c0-1.569,0-3.139,0-4.704
	c0-1.764,0-3.528,0-5.291c0-0.393,0-0.785,0-1.178c0-0.586,0-1.173,0-1.763c0.394,0,0.786,0,1.178,0c0.589,0,1.178,0,1.764,0
	c0-0.194,0-0.39,0-0.586c0-1.959,0-3.919,0-5.879c1.178,0,2.351,0,3.526,0c0-1.175,0-2.352,0-3.528
	C16.656,22.926,16.853,22.926,17.047,22.926z M22.93,35.859c-3.333,0-6.663,0-9.996,0c0,1.176,0,2.35,0,3.527
	c1.765,0,3.526,0,5.292,0c1.563,0,3.133,0,4.704,0C22.93,38.209,22.93,37.035,22.93,35.859z"/>
<path fill-rule="evenodd" clip-rule="evenodd" fill="#E96224" d="M16.46,22.926c-1.176,0-2.349,0-3.526,0c0,1.176,0,2.353,0,3.528
	c1.178,0,2.351,0,3.526,0C16.46,25.278,16.46,24.102,16.46,22.926z"/>
<path fill-rule="evenodd" clip-rule="evenodd" fill="#46150D" d="M3.528,22.926c0,1.176,0,2.353,0,3.528c-1.177,0-2.349,0-3.528,0
	c0,2.156,0,4.312,0,6.465c1.18,0,2.352,0,3.528,0c0,0.392,0,0.785,0,1.177c0,0.586,0,1.176,0,1.764c0.195,0,0.393,0,0.587,0
	c0.784,0,1.57,0,2.354,0c1.174,0,2.352,0,3.523,0c0-0.393,0-0.785,0-1.178c0-0.586,0-1.173,0-1.763c0.394,0,0.786,0,1.178,0
	c0.589,0,1.178,0,1.764,0c0-0.194,0-0.39,0-0.586c0-1.959,0-3.919,0-5.879c-0.586,0-1.175,0-1.764,0c-0.392,0-0.784,0-1.178,0
	c0-1.175,0-2.352,0-3.528C7.84,22.926,5.686,22.926,3.528,22.926z"/>
<path fill-rule="evenodd" clip-rule="evenodd" fill="#D54C27" d="M3.528,22.926c-1.177,0-2.349,0-3.528,0c0,1.176,0,2.353,0,3.528
	c1.18,0,2.352,0,3.528,0C3.528,25.278,3.528,24.102,3.528,22.926z"/>
<path fill-rule="evenodd" clip-rule="evenodd" fill="#E96224" d="M42.325,29.394c0,1.174,0,2.351,0,3.525c1.179,0,2.353,0,3.527,0
	c0-1.174,0-2.351,0-3.525C44.678,29.394,43.504,29.394,42.325,29.394z"/>
<path fill-rule="evenodd" clip-rule="evenodd" fill="#46150D" d="M42.325,29.394c-0.392,0-0.782,0-1.175,0c-0.587,0-1.175,0-1.764,0
	c-1.176,0-2.351,0-3.524,0c-0.394,0-0.786,0-1.178,0c-0.586,0-1.177,0-1.764,0c0,0.587,0,1.174,0,1.765c0,0.586,0,1.174,0,1.76
	c-1.177,0-2.35,0-3.527,0c0,0.197,0,0.392,0,0.59c0,0.784,0,1.565,0,2.351c0,0.784,0,1.568,0,2.35c0,1.57,0,3.136,0,4.705
	c0.587,0,1.178,0,1.764,0c0.587,0,1.176,0,1.764,0c0,0.587,0,1.178,0,1.764c0,0.392,0,0.784,0,1.177c3.135,0,6.27,0,9.404,0
	c0-0.59,0-1.177,0-1.763c0-0.394,0-0.785,0-1.178c1.179,0,2.353,0,3.527,0c0-1.569,0-3.135,0-4.705c0-1.764,0-3.527,0-5.291
	c-1.175,0-2.349,0-3.527,0C42.325,31.744,42.325,30.568,42.325,29.394z"/>
<path fill-rule="evenodd" clip-rule="evenodd" fill="#46150D" d="M22.93,35.859c-3.333,0-6.663,0-9.996,0c0,1.176,0,2.35,0,3.527
	c1.765,0,3.526,0,5.292,0c1.563,0,3.133,0,4.704,0C22.93,38.209,22.93,37.035,22.93,35.859z"/>
<path fill-rule="evenodd" clip-rule="evenodd" fill="#E96224" d="M9.992,35.859c-1.172,0-2.35,0-3.523,0c0,2.155,0,4.312,0,6.468
	c0,2.351,0,4.701,0,7.052c1.174,0,2.352,0,3.523,0c0,0.393,0,0.785,0,1.178c0,1.762,0,3.526,0,5.291c0.394,0,0.786,0,1.178,0
	c0.589,0,1.178,0,1.764,0c0,0.39,0,0.783,0,1.175c0,1.766,0,3.527,0,5.291c0.587,0,1.178,0,1.765,0c0.586,0,1.176,0,1.762,0
	c0,0.389,0,0.782,0,1.175c0,0.587,0,1.176,0,1.763c0.587,0,1.179,0,1.766,0c0.392,0,0.784,0,1.176,0c0.781,0,1.567,0,2.351,0
	c1.567,0,3.136,0,4.704,0c0,1.178,0,2.351,0,3.529c0.196,0,0.39,0,0.589,0c3.132,0,6.269,0,9.404,0s6.27,0,9.403,0
	c0-1.179,0-2.352,0-3.529c0.394,0,0.785,0,1.177,0c1.766,0,3.529,0,5.293,0c0-0.393,0-0.783,0-1.176c0-0.587-0.001-1.173,0-1.762
	c1.174,0,2.351,0,3.522,0c0-0.589,0-1.177,0-1.764c0-0.392,0-0.783,0-1.175c0-0.784,0-1.57,0-2.353c0-1.568,0-3.134,0-4.704
	c-1.172,0-2.349,0-3.522,0c0-0.393,0-0.783,0-1.176c0-0.586-0.001-1.173,0-1.764c-0.591,0-1.177,0-1.764,0c-0.394,0-0.785,0-1.177,0
	c0-1.176,0-2.351,0-3.524c-1.176,0-2.353,0-3.529,0c0-0.393,0-0.785,0-1.177c0-0.586,0-1.177,0-1.764c-1.175,0-2.349,0-3.527,0
	c0,0.393,0,0.784,0,1.178c0,0.586,0,1.173,0,1.763c-3.135,0-6.27,0-9.404,0c0-0.393,0-0.785,0-1.177c0-0.586,0-1.177,0-1.764
	c-0.588,0-1.177,0-1.764,0c-0.586,0-1.177,0-1.764,0c0,0.393,0,0.784,0,1.178c0,0.586,0,1.173,0,1.763c0,1.174,0,2.349,0,3.524
	c-2.741,0-5.484,0-8.229,0c-1.376,0-2.744,0-4.118,0c-1.369,0-2.742,0-4.113,0c0-0.586,0-1.176,0-1.764c0-0.587,0-1.175,0-1.761
	c-0.394,0-0.786,0-1.175,0c-0.589,0-1.176,0-1.767,0c0-1.569,0-3.139,0-4.704C9.992,39.387,9.992,37.622,9.992,35.859z"/>
</svg>
