<?xml version="1.0" encoding="utf-8"?>
<!-- Generator: Adobe Illustrator 15.0.0, SVG Export Plug-In  -->
<!DOCTYPE svg PUBLIC "-//W3C//DTD SVG 1.1//EN" "http://www.w3.org/Graphics/SVG/1.1/DTD/svg11.dtd" [
	<!ENTITY ns_flows "http://ns.adobe.com/Flows/1.0/">
]>
<svg version="1.1"
	 xmlns="http://www.w3.org/2000/svg" xmlns:xlink="http://www.w3.org/1999/xlink" xmlns:a="http://ns.adobe.com/AdobeSVGViewerExtensions/3.0/"
	 x="0px" y="0px" width="300px" height="300px" viewBox="-42.64 -53.259 300 300" enable-background="new -42.64 -53.259 300 300"
	 xml:space="preserve">
<defs>
</defs>
<path fill="#F2FAFD" d="M110.271,145.639c-0.592,0-1.21,0-1.802,0c-1.21,0-2.42,0-3.63,0c0,2.42,0,4.84,0,7.26
	c-0.239,0-0.454,0-0.681,0c-0.151,0-0.303,0-0.454,0c-0.378,0-0.769,0-1.146,0s-0.743,0-1.121,0s-0.77,0-1.147,0
	c-0.365,0-0.743,0-1.121,0c-0.392,0-0.77,0-1.135,0c-0.378,0-0.77,0-1.147,0s-0.743,0-1.121,0s-0.769,0-1.146,0
	c-0.366,0-0.744,0-1.122,0c-0.391,0-0.769,0-1.135,0c-0.377,0-0.769,0-1.146,0s-0.743,0-1.121,0s-0.77,0-1.147,0
	c-0.365,0-0.743,0-1.121,0c-0.392,0-0.77,0-1.135,0c-0.378,0-0.77,0-1.147,0c-0.377,0-0.743,0-1.121,0s-0.769,0-1.146,0
	c-0.366,0-0.744,0-1.121,0c-0.392,0-0.77,0-1.135,0c-0.378,0-0.77,0-1.147,0s-0.743,0-1.121,0s-0.77,0-1.147,0
	c-0.365,0-0.743,0-1.121,0c-0.392,0-0.77,0-1.135,0c-0.378,0-0.77,0-1.146,0c-0.378,0-0.744,0-1.122,0s-0.769,0-1.146,0
	c-0.366,0-0.743,0-1.121,0c-0.77,0-1.513,0-2.282,0c0-2.42,0-4.84,0-7.26c-2.42,0-4.839,0-7.247,0c0-0.681,0-1.36,0-2.041
	c0-0.605,0-1.21,0-1.814c0-1.211,0-2.421,0-3.631c-2.419,0-4.839,0-7.259,0c0-2.419,0-4.839,0-7.259s0-4.84,0-7.26
	c-2.42,0-4.839,0-7.259,0c0,2.42,0,4.84,0,7.26c-0.24,0-0.454,0-0.681,0c-1.072,0-2.131,0-3.188,0c-1.047,0-2.104,0-3.163,0
	c-0.089,0-0.151,0-0.24,0c0-4.84,0-9.679,0-14.519c-2.42,0-4.84,0-7.259,0c0-2.42,0-4.839,0-7.26c2.419,0,4.839,0,7.259,0
	c0-2.42,0-4.839,0-7.259c2.42,0,4.853,0,7.272,0c0-7.26,0-14.519,0-21.778c-4.853,0-9.692,0-14.531,0c0,2.42,0,4.84,0,7.26
	c-2.407,0-4.827,0-7.247,0c0,4.839,0,9.679,0,14.519c-0.681,0-1.361,0-2.042,0c-0.605,0-1.21,0-1.827,0c-1.21,0-2.42,0-3.63,0
	c0,7.259,0,14.519,0,21.777c1.21,0,2.42,0,3.63,0c0.617,0,1.222,0,1.827,0c0.303,0,0.592,0,0.896,0c0.314,0,0.617,0,0.92,0
	c0.075,0,0.138,0,0.227,0c0,4.84,0,9.68,0,14.519c2.42,0,4.84,0,7.247,0c0,0.681,0,1.361,0,2.042c0,0.605,0,1.21,0,1.814
	c0,1.21,0,2.42,0,3.63c2.419,0,4.839,0,7.259,0c0,2.42,0,4.84,0,7.26c2.42,0,4.853,0,7.272,0c0,4.839,0,9.68,0,14.519
	c2.42,0,4.839,0,7.259,0c0,2.42,0,4.839,0,7.259c2.42,0,4.84,0,7.259,0c0,2.42,0,4.84,0,7.26c4.827,0,9.667,0,14.52,0
	c0-2.42,0-4.84,0-7.26c2.42,0,4.84,0,7.259,0c0-2.42,0-4.839,0-7.259c2.42,0,4.84,0,7.26,0c0-2.42,0-4.839,0-7.26
	c0.983,0,1.965,0,2.937,0c0.466,0,0.919,0,1.361,0c0.226,0,0.466,0,0.692,0c0.214,0,0.454,0,0.681,0c0.454,0,0.895,0,1.361,0
	c0.214,0,0.454,0,0.681,0c0.214,0,0.454,0,0.681,0c0.454,0,0.895,0,1.361,0c0.214,0,0.44,0,0.681,0c0.227,0,0.44,0,0.681,0
	c0.44,0,0.906,0,1.36,0c0.227,0,0.441,0,0.681,0c0.227,0,0.441,0,0.681,0c0.441,0,0.907,0,1.36,0c0.228,0,0.442,0,0.668,0
	c0.24,0,0.467,0,0.681,0c0.467,0,0.921,0,1.361,0c0.24,0,0.467,0,0.681,0c0.24,0,0.467,0,0.681,0c0.921,0,1.828,0,2.734,0
	c0-2.42,0-4.839,0-7.259c0.215,0,0.455,0,0.681,0c1.21,0,2.408,0,3.617,0c0.618,0,1.21,0,1.828,0c0.529,0,1.059,0,1.588,0
	c0.604,0,1.21,0,1.815,0c0.604,0,1.21,0,1.813,0c0.605,0,1.198,0,1.815,0c0.529,0,1.059,0,1.588,0c0.592,0,1.21,0,1.802,0
	c0.618,0,1.223,0,1.828,0c0.592,0,1.21,0,1.815,0c0.529,0,1.059,0,1.587,0c0.593,0,1.21,0,1.802,0c0.618,0,1.21,0,1.828,0
	c0.592,0,1.21,0,1.814,0c0.29,0,0.605,0,0.908,0s0.592,0,0.907,0c0,2.42,0,4.839,0,7.259c2.407,0,4.827,0,7.246,0
	c0,2.421,0,4.84,0,7.26c0.921,0,1.828,0,2.723,0c0.467,0,0.907,0,1.374,0c0.214,0,0.454,0,0.68,0c0.215,0,0.455,0,0.681,0
	c0.454,0,0.896,0,1.361,0c0.215,0,0.454,0,0.681,0c0.215,0,0.453,0,0.681,0c0.44,0,0.907,0,1.361,0c0.227,0,0.44,0,0.681,0
	c0.227,0,0.44,0,0.681,0c0.44,0,0.907,0,1.361,0c0.227,0,0.44,0,0.681,0c0.227,0,0.44,0,0.68,0c0.441,0,0.908,0,1.349,0
	c0.239,0,0.466,0,0.681,0c0.239,0,0.466,0,0.681,0c0.466,0,0.92,0,1.361,0c0.239,0,0.466,0,0.681,0c0.239,0,0.466,0,0.68,0
	c0.907,0,1.828,0,2.735,0c0-2.42,0-4.839,0-7.26c2.42,0,4.827,0,7.246,0c0-2.42,0-4.839,0-7.259c2.42,0,4.84,0,7.271,0
	c0-0.908,0-1.814,0-2.723c0-0.453,0-0.907,0-1.361c0-0.227,0-0.453,0-0.681c0-0.227,0-0.453,0-0.68c0-1.815-0.012-3.63,0-5.445
	c0-1.814-0.012-3.629,0-5.443c0-0.908,0-1.815,0-2.723c0-0.454,0-0.907,0-1.361c0-0.227,0-0.454,0-0.681c0-0.15,0-0.302,0-0.453
	c0-0.076,0-0.152,0-0.228s0-0.15,0-0.227c2.421,0,4.841,0,7.261,0c0-2.42,0-4.84,0-7.26c2.42,0,4.839,0,7.259,0
	c0-4.839,0-9.679,0-14.519c-2.42,0-4.839,0-7.259,0c0-0.227,0-0.453,0-0.681c0-1.663,0-3.326,0-4.99c0-1.739,0-3.479,0-5.218
	c0-1.664,0-3.327,0-4.99c0-1.74,0-3.479,0-5.218c0-0.228,0-0.454,0-0.681c-4.84,0-9.692,0-14.532,0c0,2.42,0,4.839,0,7.259
	c-4.826,0-9.666,0-14.505,0c0-2.42,0-4.839,0-7.259c4.839,0,9.679,0,14.505,0c0-2.42,0-4.84,0-7.26c2.42,0,4.84,0,7.271,0
	c0-7.259,0-14.519,0-21.778c-4.852,0-9.69,0-14.518,0c0-2.419,0-4.839,0-7.259c-2.42,0-4.84,0-7.259,0c0-2.496,0-4.991,0-7.487
	c-4.84,0-9.692,0-14.532,0c0-2.419,0-4.839,0-7.259c-7.246,0-14.506,0-21.765,0c0-2.42,0-4.839,0-7.26c-2.421,0-4.853,0-7.272,0
	c0-2.42,0-4.839,0-7.259c-2.42,0-4.839,0-7.247,0c0-2.42,0-4.839,0-7.26c-12.187,0-24.361,0-36.522,0c0,2.42,0,4.84,0,7.26
	c-2.421,0-4.853,0-7.272,0c0,2.419,0,4.839,0,7.259c-2.42,0-4.839,0-7.247,0c0,2.42,0,4.84,0,7.26c-2.419,0-4.839,0-7.259,0
	c0,4.915,0,9.83,0,14.746c-2.42,0-4.839,0-7.259,0c0,4.839,0,9.679,0,14.518c2.42,0,4.839,0,7.259,0s4.84,0,7.259,0
	c0-2.42,0-4.839,0-7.259c2.408,0,4.827,0,7.247,0c0-4.915,0-9.83,0-14.746c2.42,0,4.852,0,7.272,0c0-4.839,0-9.679,0-14.519
	c9.679,0,19.345,0,29.037,0c0,2.42,0,4.84,0,7.26c4.902,0,9.83,0,14.732,0c0,2.419,0,4.839,0,7.259c4.852,0,9.692,0,14.531,0
	c0,2.496,0,4.991,0,7.487c4.84,0,9.667,0,14.506,0c0,2.419,0,4.839,0,7.259c2.42,0,4.84,0,7.272,0c0,7.259,0,14.519,0,21.778
	c-4.853,0-9.691,0-14.519,0c0,7.26,0,14.519,0,21.778c0,4.839,0,9.68,0,14.519c2.407,0,4.827,0,7.246,0c0,2.42,0,4.84,0,7.259
	c4.84,0,9.692,0,14.532,0c0,4.84,0,9.68,0,14.519c-9.692,0-19.371,0-29.038,0c0-4.839,0-9.679,0-14.519c-2.419,0-4.839,0-7.259,0
	c0,2.42,0,4.84,0,7.26c-2.421,0-4.853,0-7.272,0c0,2.42,0,4.84,0,7.259c-2.42,0-4.839,0-7.247,0c0,1.21,0,2.42,0,3.631
	c0,0.604,0,1.209,0,1.814c0,0.604,0,1.21,0,1.814c0,0.076,0,0.151,0,0.227C111.633,145.639,110.952,145.639,110.271,145.639z"/>
<path fill="#FFFFFF" d="M128.873,152.899c-0.592,0-1.21,0-1.802,0c-0.529,0-1.059,0-1.588,0c-0.617,0-1.21,0-1.815,0
	c-0.604,0-1.21,0-1.813,0c-0.605,0-1.211,0-1.815,0c-0.529,0-1.059,0-1.588,0c-0.618,0-1.21,0-1.828,0c-1.209,0-2.407,0-3.617,0
	c-0.226,0-0.466,0-0.681,0c0,2.42,0,4.839,0,7.259c-0.906,0-1.813,0-2.734,0c-0.214,0-0.44,0-0.681,0c-0.214,0-0.44,0-0.681,0
	c-0.44,0-0.895,0-1.361,0c-0.214,0-0.44,0-0.681,0c-0.226,0-0.44,0-0.668,0c-0.453,0-0.919,0-1.36,0c-0.239,0-0.454,0-0.681,0
	c-0.239,0-0.454,0-0.681,0c-0.454,0-0.92,0-1.36,0c-0.24,0-0.454,0-0.681,0c-0.24,0-0.467,0-0.681,0c-0.467,0-0.907,0-1.361,0
	c-0.227,0-0.467,0-0.681,0c-0.227,0-0.467,0-0.681,0c-0.467,0-0.907,0-1.361,0c-0.227,0-0.467,0-0.681,0c-0.227,0-0.467,0-0.692,0
	c-0.442,0-0.896,0-1.361,0c-0.972,0-1.953,0-2.937,0c0,2.421,0,4.84,0,7.26c-2.42,0-4.84,0-7.26,0c0,2.42,0,4.839,0,7.259
	c-2.419,0-4.839,0-7.259,0c0,2.42,0,4.84,0,7.26c-4.853,0-9.692,0-14.52,0c0-2.42,0-4.84,0-7.26c-2.419,0-4.839,0-7.259,0
	c0-2.42,0-4.839,0-7.259c-2.42,0-4.839,0-7.259,0c0-4.839,0-9.68,0-14.519c-2.42,0-4.853,0-7.272,0c0-2.42,0-4.84,0-7.26
	c-2.42,0-4.84,0-7.259,0c0-1.21,0-2.42,0-3.63c0-0.604,0-1.209,0-1.814c0-0.681,0-1.361,0-2.042c-2.407,0-4.827,0-7.247,0
	c0-4.839,0-9.679,0-14.519c-0.089,0-0.151,0-0.227,0c-0.303,0-0.605,0-0.92,0c-0.304,0-0.593,0-0.896,0c-0.605,0-1.21,0-1.827,0
	c-1.21,0-2.42,0-3.63,0c0-7.259,0-14.519,0-21.777c1.21,0,2.42,0,3.63,0c0.617,0,1.222,0,1.827,0c0.681,0,1.361,0,2.042,0
	c0-4.84,0-9.68,0-14.519c-0.089,0-0.151,0-0.227,0c-0.303,0-0.605,0-0.92,0c-0.304,0-0.593,0-0.896,0c-0.605,0-1.21,0-1.827,0
	c-1.21,0-2.42,0-3.63,0c0,2.42,0,4.839,0,7.259c-2.42,0-4.839,0-7.247,0c0,1.815,0,3.63,0,5.445c0,1.814,0,3.629,0,5.444
	c0,1.814,0,3.629,0,5.443c0,1.815,0,3.631,0,5.445s0,3.63,0,5.444s0,3.63,0,5.444c0,1.815,0,3.63,0,5.444c0,1.815,0,3.63,0,5.444
	c2.408,0,4.827,0,7.247,0c0,1.21,0,2.42,0,3.631c0,0.604,0,1.209,0,1.814c0,0.681,0,1.36,0,2.041c1.21,0,2.42,0,3.63,0
	c0.617,0,1.222,0,1.827,0c0.592,0,1.21,0,1.815,0c0.075,0,0.138,0,0.227,0c0,0.228,0,0.454,0,0.681c0,0.983,0,1.966,0,2.949
	s0,1.967,0,2.949c0,0.228,0,0.453,0,0.681c2.42,0,4.84,0,7.247,0c0,4.839,0,9.68,0,14.519c2.419,0,4.839,0,7.259,0
	c0,2.42,0,4.839,0,7.259c2.42,0,4.853,0,7.272,0c0,2.42,0,4.84,0,7.26c2.42,0,4.839,0,7.259,0c0,2.42,0,4.84,0,7.259
	c9.667,0,19.357,0,29.037,0c0-2.419,0-4.839,0-7.259c2.42,0,4.84,0,7.26,0c0-2.42,0-4.84,0-7.26c0.151,0,0.303,0,0.454,0
	c0.378,0,0.755,0,1.121,0c0.466,0,0.921,0,1.361,0c0.239,0,0.466,0,0.681,0c0.238,0,0.466,0,0.681,0c0.466,0,0.906,0,1.373,0
	c0.214,0,0.454,0,0.681,0c0.214,0,0.454,0,0.681,0c0.454,0,0.895,0,1.361,0c0.214,0,0.454,0,0.681,0c0.214,0,0.453,0,0.681,0
	c0.44,0,0.907,0,1.361,0c0.226,0,0.44,0,0.681,0c0.226,0,0.44,0,0.68,0c0.441,0,0.907,0,1.361,0c0.227,0,0.441,0,0.681,0
	c0.227,0,0.441,0,0.68,0c0.442,0,0.908,0,1.349,0c0.24,0,0.467,0,0.681,0c0.24,0,0.467,0,0.681,0c0.467,0,0.921,0,1.361,0
	c0.24,0,0.467,0,0.681,0c0.24,0,0.467,0,0.681,0c0.467,0,0.907,0,1.373,0c0-2.42,0-4.839,0-7.259c2.408,0,4.827,0,7.247,0
	c0-2.42,0-4.839,0-7.26c4.852,0,9.692,0,14.531,0c0,2.421,0,4.84,0,7.26c2.42,0,4.84,0,7.26,0c0,0.227,0,0.453,0,0.681
	c0,0.982,0,1.966,0,2.949s0,1.966,0,2.948c0,0.228,0,0.454,0,0.681c2.407,0,4.827,0,7.246,0c0,2.42,0,4.84,0,7.26
	c0.921,0,1.828,0,2.723,0c0.227,0,0.467,0,0.693,0c0.214,0,0.454,0,0.681,0c0.214,0,0.454,0,0.68,0c0.215,0,0.455,0,0.681,0
	c0.215,0,0.454,0,0.681,0c0.215,0,0.454,0,0.681,0c0.215,0,0.454,0,0.681,0c0.215,0,0.453,0,0.681,0c0.214,0,0.44,0,0.681,0
	c0.227,0,0.44,0,0.681,0c0.44,0,0.907,0,1.361,0c0.227,0,0.44,0,0.681,0c0.227,0,0.44,0,0.681,0c0.227,0,0.44,0,0.681,0
	c0.227,0,0.44,0,0.68,0c0.228,0,0.441,0,0.668,0c0.24,0,0.466,0,0.681,0c0.239,0,0.466,0,0.681,0c0.239,0,0.466,0,0.681,0
	c0.466,0,0.92,0,1.361,0c0.466,0,0.92,0,1.36,0c0.907,0,1.828,0,2.735,0c0-2.42,0-4.84,0-7.26c2.42,0,4.827,0,7.246,0
	c0-2.42,0-4.839,0-7.259c2.42,0,4.84,0,7.271,0c0-2.42,0-4.839,0-7.26c0.228,0,0.442,0,0.669,0c1.979,0,3.932,0,5.911,0
	c0.227,0,0.44,0,0.681,0c0-4.839,0-9.679,0-14.519c0.227,0,0.44,0,0.681,0c1.953,0,3.932,0,5.897,0c0.214,0,0.454,0,0.681,0
	c0-1.814,0-3.63,0-5.444s0-3.629,0-5.444c0-1.814,0-3.63,0-5.444c0-1.891,0-3.781,0-5.672c-2.42,0-4.839,0-7.259,0
	c0,2.42,0,4.84,0,7.26c-2.42,0-4.84,0-7.261,0c0,0.076,0,0.151,0,0.227s0,0.151,0,0.228c0,0.151,0,0.303,0,0.453
	c0,0.227,0,0.454,0,0.681c0,0.454,0,0.907,0,1.361c0,0.907,0,1.814,0,2.723c-0.012,1.814,0,3.629,0,5.443
	c-0.012,1.815,0,3.63,0,5.445c0,0.227,0,0.453,0,0.68c0,0.228,0,0.454,0,0.681c0,0.454,0,0.908,0,1.361c0,0.908,0,1.814,0,2.723
	c-2.432,0-4.852,0-7.271,0c0,2.42,0,4.839,0,7.259c-2.419,0-4.826,0-7.246,0c0,2.421,0,4.84,0,7.26c-0.907,0-1.828,0-2.735,0
	c-0.214,0-0.44,0-0.68,0c-0.215,0-0.441,0-0.681,0c-0.441,0-0.896,0-1.361,0c-0.215,0-0.441,0-0.681,0c-0.215,0-0.441,0-0.681,0
	c-0.44,0-0.907,0-1.349,0c-0.239,0-0.453,0-0.68,0c-0.24,0-0.454,0-0.681,0c-0.454,0-0.921,0-1.361,0c-0.24,0-0.454,0-0.681,0
	c-0.24,0-0.454,0-0.681,0c-0.454,0-0.921,0-1.361,0c-0.228,0-0.466,0-0.681,0c-0.227,0-0.466,0-0.681,0c-0.466,0-0.907,0-1.361,0
	c-0.226,0-0.466,0-0.681,0c-0.226,0-0.466,0-0.68,0c-0.467,0-0.907,0-1.374,0c-0.895,0-1.802,0-2.723,0c0-2.42,0-4.839,0-7.26
	c-2.419,0-4.839,0-7.246,0c0-2.42,0-4.839,0-7.259c-0.315,0-0.604,0-0.907,0s-0.618,0-0.908,0c-0.604,0-1.223,0-1.814,0
	c-0.618,0-1.21,0-1.828,0c-0.592,0-1.209,0-1.802,0c-0.528,0-1.058,0-1.587,0c-0.605,0-1.224,0-1.815,0
	C130.096,152.899,129.491,152.899,128.873,152.899z"/>
<path fill="#FFFFFF" d="M24.987,72.82c0,4.839,0,9.679,0,14.519c2.42,0,4.84,0,7.247,0c0-2.42,0-4.84,0-7.26
	c4.839,0,9.679,0,14.531,0c2.42,0,4.839,0,7.259,0c0-4.839,0-9.679,0-14.519c-2.42,0-4.839,0-7.259,0c0-4.839,0-9.679,0-14.518
	c2.42,0,4.839,0,7.259,0c0-4.916,0-9.831,0-14.746c2.42,0,4.84,0,7.259,0c0-2.42,0-4.839,0-7.26c2.408,0,4.827,0,7.247,0
	c0-2.42,0-4.839,0-7.259c2.42,0,4.852,0,7.272,0c0-2.42,0-4.839,0-7.26c-7.272,0-14.52,0-21.778,0c0,2.42,0,4.84,0,7.26
	c-2.42,0-4.839,0-7.259,0c0,2.419,0,4.839,0,7.259c-2.42,0-4.853,0-7.272,0c0,4.84,0,9.679,0,14.519c-2.42,0-4.84,0-7.259,0
	c0,4.916,0,9.831,0,14.746c2.419,0,4.839,0,7.259,0c0,0.227,0,0.454,0,0.681c0,4.613,0,9.225,0,13.838
	C34.653,72.82,29.827,72.82,24.987,72.82z"/>
<path fill="#DFF3FD" d="M32.234,109.116c0,2.421,0,4.84,0,7.26c2.419,0,4.839,0,7.259,0c0,4.84,0,9.679,0,14.519
	c0.089,0,0.151,0,0.24,0c1.059,0,2.116,0,3.163,0c1.058,0,2.116,0,3.188,0c0.227,0,0.44,0,0.681,0c0-2.42,0-4.84,0-7.26
	c2.42,0,4.839,0,7.259,0c0-2.419,0-4.839,0-7.259c-2.42,0-4.839,0-7.259,0c0-4.839,0-9.68,0-14.519c-2.42,0-4.853,0-7.272,0
	c0,2.42,0,4.839,0,7.259C37.073,109.116,34.653,109.116,32.234,109.116z"/>
<path fill="#232034" d="M46.766,101.857c0,4.839,0,9.68,0,14.519c2.42,0,4.839,0,7.259,0c0-4.839,0-9.68,0-14.519
	c0-2.42,0-4.84,0-7.26s0-4.839,0-7.259s0-4.84,0-7.26c-2.42,0-4.839,0-7.259,0C46.766,87.338,46.766,94.597,46.766,101.857z"/>
<path fill="#232034" d="M54.024,130.894c0,2.42,0,4.84,0,7.259c2.42,0,4.84,0,7.259,0c0-2.419,0-4.839,0-7.259
	C58.864,130.894,56.444,130.894,54.024,130.894z"/>
<path fill="#DFF3FD" d="M54.024,123.634c0,2.42,0,4.84,0,7.26c2.42,0,4.84,0,7.259,0c0-2.42,0-4.84,0-7.26
	C58.864,123.634,56.444,123.634,54.024,123.634z"/>
<path fill="#232034" d="M54.024,116.375c0,2.42,0,4.84,0,7.259c2.42,0,4.84,0,7.259,0c0-2.419,0-4.839,0-7.259
	C58.864,116.375,56.444,116.375,54.024,116.375z"/>
<path fill="#E7F6FD" d="M54.024,94.597c0,2.42,0,4.84,0,7.26c2.42,0,4.84,0,7.259,0c0-2.42,0-4.84,0-7.26
	C58.864,94.597,56.444,94.597,54.024,94.597z"/>
<path fill="#010101" d="M54.024,87.338c0,2.42,0,4.839,0,7.259c2.42,0,4.84,0,7.259,0c0,2.42,0,4.84,0,7.26c2.408,0,4.827,0,7.247,0
	c0-4.84,0-9.68,0-14.519c-2.42,0-4.839,0-7.247,0C58.864,87.338,56.444,87.338,54.024,87.338z"/>
<path fill="#848484" d="M54.024,80.079c0,2.42,0,4.84,0,7.26c2.42,0,4.84,0,7.259,0c0-2.42,0-4.84,0-7.26
	C58.864,80.079,56.444,80.079,54.024,80.079z"/>
<path fill="#232034" d="M54.024,65.56c0,4.84,0,9.679,0,14.519c2.42,0,4.84,0,7.259,0c0-2.42,0-4.839,0-7.259c0-2.42,0-4.839,0-7.26
	C58.864,65.56,56.444,65.56,54.024,65.56z"/>
<path fill="#232034" d="M61.283,143.598c0,0.681,0,1.36,0,2.041c2.408,0,4.827,0,7.247,0c0-1.21,0-2.42,0-3.63
	c0-0.604,0-1.209,0-1.814c0-0.681,0-1.361,0-2.042c-2.42,0-4.839,0-7.247,0c0,1.21,0,2.42,0,3.631
	C61.283,142.388,61.283,142.993,61.283,143.598z"/>
<path fill="#C3CAD1" d="M61.283,130.894c0,2.42,0,4.84,0,7.259c2.408,0,4.827,0,7.247,0c0-2.419,0-4.839,0-7.259
	C66.11,130.894,63.691,130.894,61.283,130.894z"/>
<path fill="#232034" d="M61.283,123.634c0,2.42,0,4.84,0,7.26c2.408,0,4.827,0,7.247,0c0-2.42,0-4.84,0-7.26
	C66.11,123.634,63.691,123.634,61.283,123.634z"/>
<path fill="#010101" d="M61.283,116.375c0,2.42,0,4.84,0,7.259c2.408,0,4.827,0,7.247,0c0-2.419,0-4.839,0-7.259
	C66.11,116.375,63.691,116.375,61.283,116.375z"/>
<path fill="#848484" d="M61.283,65.56c0,2.42,0,4.84,0,7.26c2.408,0,4.827,0,7.247,0c0-2.42,0-4.839,0-7.26
	C66.11,65.56,63.691,65.56,61.283,65.56z"/>
<path fill="#232034" d="M61.283,58.301c0,2.42,0,4.839,0,7.259c2.408,0,4.827,0,7.247,0s4.852,0,7.272,0c0-2.42,0-4.839,0-7.259
	c-2.421,0-4.853,0-7.272,0S63.691,58.301,61.283,58.301z"/>
<path fill="#232034" d="M68.53,145.639c0,2.42,0,4.84,0,7.26c0.77,0,1.513,0,2.282,0c0.378,0,0.755,0,1.121,0
	c0.378,0,0.769,0,1.146,0s0.744,0,1.122,0c0.377,0,0.769,0,1.146,0c0.365,0,0.743,0,1.135,0c0.378,0,0.756,0,1.121,0
	c0.378,0,0.77,0,1.147,0s0.743,0,1.121,0s0.77,0,1.147,0c0.365,0,0.743,0,1.135,0c0.377,0,0.755,0,1.121,0c0.378,0,0.769,0,1.146,0
	s0.744,0,1.121,0c0.378,0,0.77,0,1.147,0c0.365,0,0.743,0,1.135,0c0.378,0,0.756,0,1.121,0c0.378,0,0.77,0,1.147,0s0.743,0,1.121,0
	s0.77,0,1.146,0c0.366,0,0.744,0,1.135,0c0.378,0,0.756,0,1.122,0c0.378,0,0.769,0,1.146,0s0.743,0,1.121,0s0.77,0,1.147,0
	c0.365,0,0.743,0,1.135,0c0.378,0,0.756,0,1.121,0c0.378,0,0.77,0,1.147,0s0.743,0,1.121,0s0.769,0,1.146,0c0.151,0,0.303,0,0.454,0
	c0.227,0,0.441,0,0.681,0c0-2.42,0-4.84,0-7.26c-2.433,0-4.853,0-7.272,0C87.901,145.639,78.223,145.639,68.53,145.639z"/>
<path fill="#010101" d="M68.53,130.894c0,2.42,0,4.84,0,7.259c3.492,0,6.97,0,10.448,0c1.727,0,3.466,0,5.205,0
	c1.827,0,3.643,0,5.457,0c0.214,0,0.454,0,0.681,0c0-2.419,0-4.839,0-7.259c4.826,0,9.666,0,14.519,0c0-2.42,0-4.84,0-7.26
	c-2.433,0-4.853,0-7.272,0c0-2.419,0-4.839,0-7.259c-2.42,0-4.839,0-7.246,0c0,2.42,0,4.84,0,7.259c-2.42,0-4.84,0-7.26,0
	c0-2.419,0-4.839,0-7.259c-2.419,0-4.839,0-7.259,0c0,2.42,0,4.84,0,7.259c-2.421,0-4.853,0-7.272,0
	C68.53,126.054,68.53,128.474,68.53,130.894z"/>
<path fill="#010101" d="M68.53,101.857c0,2.42,0,4.839,0,7.259c2.206,0,4.398,0,6.592,0c0.227,0,0.44,0,0.681,0
	c0-2.42,0-4.839,0-7.259C73.382,101.857,70.95,101.857,68.53,101.857z"/>
<path fill="#DFF3FD" d="M68.53,43.555c0,4.916,0,9.831,0,14.746c2.42,0,4.852,0,7.272,0c0-2.419,0-4.839,0-7.259
	c2.42,0,4.84,0,7.259,0c0-0.681,0-1.361,0-2.042c0-0.605,0-1.209,0-1.814c0-1.21,0-2.42,0-3.63c2.42,0,4.84,0,7.26,0
	c0-2.419,0-4.839,0-7.259c2.407,0,4.826,0,7.246,0c0,2.419,0,4.839,0,7.259c2.42,0,4.84,0,7.272,0c0,2.496,0,4.991,0,7.487
	c4.902,0,9.83,0,14.732,0c0,2.419,0,4.839,0,7.259c2.42,0,4.852,0,7.272,0c0,2.42,0,4.839,0,7.259c2.42,0,4.84,0,7.259,0
	c0,2.42,0,4.84,0,7.26c2.42,0,4.84,0,7.26,0c0,2.419,0,4.839,0,7.259c4.827,0,9.666,0,14.519,0c0-7.259,0-14.519,0-21.778
	c-2.433,0-4.853,0-7.272,0c0-2.419,0-4.839,0-7.259c-4.839,0-9.666,0-14.506,0c0-2.496,0-4.991,0-7.487c-4.839,0-9.68,0-14.531,0
	c0-2.419,0-4.839,0-7.259c-4.902,0-9.83,0-14.732,0c0-2.42,0-4.839,0-7.26c-9.692,0-19.358,0-29.037,0c0,4.84,0,9.679,0,14.519
	C73.382,43.555,70.95,43.555,68.53,43.555z"/>
<path fill="#C3CAD1" d="M112.325,116.375c-1.209,0-2.419,0-3.629,0c-0.618,0-1.21,0-1.828,0c-0.289,0-0.592,0-0.906,0
	c-0.366,0-0.744,0-1.122,0c0-4.839,0-9.68,0-14.519c-2.433,0-4.853,0-7.272,0s-4.839,0-7.246,0c-2.42,0-4.84,0-7.26,0
	c0-2.42,0-4.84,0-7.26c-2.419,0-4.839,0-7.259,0c0-2.42,0-4.839,0-7.259c2.42,0,4.84,0,7.259,0c7.26,0,14.506,0,21.778,0
	c0,2.42,0,4.839,0,7.259c1.285,0,2.57,0,3.856,0c1.21,0,2.42,0,3.629,0c0-2.42,0-4.839,0-7.259c4.827,0,9.667,0,14.52,0
	c0-2.42,0-4.84,0-7.26c-2.421,0-4.853,0-7.272,0c0-4.839,0-9.679,0-14.519c-2.42,0-4.839,0-7.247,0c0-2.42,0-4.839,0-7.259
	c-9.767,0-19.508,0-29.264,0c0,2.42,0,4.839,0,7.259c-2.419,0-4.839,0-7.259,0c-2.421,0-4.853,0-7.272,0c0,2.42,0,4.84,0,7.26
	c-2.42,0-4.839,0-7.247,0c0,2.419,0,4.839,0,7.259s0,4.84,0,7.26c2.408,0,4.827,0,7.247,0c0,4.839,0,9.679,0,14.519
	c2.42,0,4.852,0,7.272,0c0,2.42,0,4.839,0,7.259c-0.24,0-0.454,0-0.681,0c-2.193,0-4.386,0-6.592,0c0-2.42,0-4.839,0-7.259
	c-2.42,0-4.839,0-7.247,0c-2.419,0-4.839,0-7.259,0c0,4.839,0,9.68,0,14.519c2.42,0,4.84,0,7.259,0c2.408,0,4.827,0,7.247,0
	c0,2.42,0,4.84,0,7.259c2.42,0,4.852,0,7.272,0c0-2.419,0-4.839,0-7.259c2.42,0,4.84,0,7.259,0c0,2.42,0,4.84,0,7.259
	c2.42,0,4.84,0,7.26,0c0-2.419,0-4.839,0-7.259c2.407,0,4.826,0,7.246,0c0,2.42,0,4.84,0,7.259c2.42,0,4.84,0,7.272,0
	c0,2.42,0,4.84,0,7.26c-4.853,0-9.692,0-14.519,0c0,2.42,0,4.84,0,7.259c-0.227,0-0.467,0-0.681,0c-1.814,0-3.63,0-5.457,0
	c-1.739,0-3.479,0-5.205,0c-3.479,0-6.956,0-10.448,0c0,0.681,0,1.361,0,2.042c0,0.605,0,1.21,0,1.814c0,1.21,0,2.42,0,3.63
	c9.692,0,19.371,0,29.037,0c0-1.21,0-2.42,0-3.63c0-0.604,0-1.209,0-1.814c0-0.604,0-1.21,0-1.814c0-0.076,0-0.151,0-0.228
	c2.42,0,4.84,0,7.272,0c0.68,0,1.348,0,2.028,0c0.618,0,1.21,0,1.828,0c1.21,0,2.42,0,3.629,0c0-0.907,0-1.814,0-2.722
	c0-0.454,0-0.907,0-1.361c0-0.227,0-0.454,0-0.681s0-0.453,0-0.681c0-1.814,0-3.629,0-5.444c0-1.814,0-3.63,0-5.444
	S112.325,118.19,112.325,116.375z"/>
<path fill="#848484" d="M75.803,87.338c0,2.42,0,4.839,0,7.259c2.42,0,4.84,0,7.259,0c0-2.42,0-4.839,0-7.259
	C80.643,87.338,78.223,87.338,75.803,87.338z"/>
<path fill="#848484" d="M75.803,58.301c0,2.42,0,4.839,0,7.259c2.42,0,4.84,0,7.259,0c0-2.42,0-4.839,0-7.259
	C80.643,58.301,78.223,58.301,75.803,58.301z"/>
<path fill="#232034" d="M75.803,51.042c0,2.419,0,4.839,0,7.259c2.42,0,4.84,0,7.259,0c9.756,0,19.497,0,29.264,0
	c2.408,0,4.827,0,7.247,0c0-2.419,0-4.839,0-7.259c-4.902,0-9.83,0-14.732,0c-7.272,0-14.519,0-21.778,0
	C80.643,51.042,78.223,51.042,75.803,51.042z"/>
<path fill="#E7F6FD" d="M83.062,94.597c0,2.42,0,4.84,0,7.26c2.42,0,4.84,0,7.26,0c0-2.42,0-4.84,0-7.26
	C87.901,94.597,85.481,94.597,83.062,94.597z"/>
<path fill="#010101" d="M83.062,87.338c0,2.42,0,4.839,0,7.259c2.42,0,4.84,0,7.26,0c0,2.42,0,4.84,0,7.26c2.407,0,4.826,0,7.246,0
	c0-2.42,0-4.84,0-7.26c2.42,0,4.84,0,7.272,0c0-2.42,0-4.839,0-7.259C97.567,87.338,90.321,87.338,83.062,87.338z"/>
<path fill="#E7F6FD" d="M83.062,51.042c7.26,0,14.506,0,21.778,0c0-2.496,0-4.991,0-7.487c-2.433,0-4.853,0-7.272,0
	c0-2.419,0-4.839,0-7.259c-2.42,0-4.839,0-7.246,0c0,2.419,0,4.839,0,7.259c-2.42,0-4.84,0-7.26,0c0,1.21,0,2.42,0,3.63
	c0,0.605,0,1.209,0,1.814C83.062,49.681,83.062,50.361,83.062,51.042z"/>
<path fill="#848484" d="M97.567,145.639c2.42,0,4.84,0,7.272,0c0-1.21,0-2.42,0-3.63c0-0.604,0-1.209,0-1.814
	c0-0.681,0-1.361,0-2.042c-2.433,0-4.853,0-7.272,0c0,0.076,0,0.151,0,0.228c0,0.604,0,1.21,0,1.814c0,0.605,0,1.21,0,1.814
	C97.567,143.219,97.567,144.429,97.567,145.639z"/>
<path fill="#232034" d="M112.325,138.153c-1.209,0-2.419,0-3.629,0c-0.618,0-1.21,0-1.828,0c-0.681,0-1.349,0-2.028,0
	c0,0.681,0,1.361,0,2.042c0,0.605,0,1.21,0,1.814c0,1.21,0,2.42,0,3.63c1.21,0,2.42,0,3.63,0c0.592,0,1.21,0,1.802,0
	c0.681,0,1.361,0,2.054,0c0-0.075,0-0.15,0-0.227c0-0.604,0-1.21,0-1.814c0-0.605,0-1.21,0-1.814
	C112.325,140.573,112.325,139.363,112.325,138.153z"/>
<path fill="#848484" d="M112.325,94.597c-1.209,0-2.419,0-3.629,0c-1.286,0-2.571,0-3.856,0c-2.433,0-4.853,0-7.272,0
	c0,2.42,0,4.84,0,7.26c2.42,0,4.84,0,7.272,0c0,4.839,0,9.68,0,14.519c0.378,0,0.756,0,1.122,0c0.314,0,0.617,0,0.906,0
	c0.618,0,1.21,0,1.828,0c1.21,0,2.42,0,3.629,0c0-2.42,0-4.839,0-7.26c2.408,0,4.827,0,7.247,0c0-2.42,0-4.839,0-7.259
	c2.42,0,4.852,0,7.272,0c0-2.42,0-4.84,0-7.26c2.42,0,4.84,0,7.259,0c0-7.259,0-14.519,0-21.777c-2.419,0-4.839,0-7.259,0
	c0-2.42,0-4.839,0-7.26c-2.421,0-4.853,0-7.272,0c0,4.84,0,9.679,0,14.519c2.42,0,4.852,0,7.272,0c0,2.42,0,4.84,0,7.26
	c-4.853,0-9.692,0-14.52,0C112.325,89.758,112.325,92.177,112.325,94.597z"/>
<path fill="#232034" d="M112.325,135.431c0,0.907,0,1.814,0,2.722c2.408,0,4.827,0,7.247,0c0-2.419,0-4.839,0-7.259s0-4.84,0-7.26
	c0-2.419,0-4.839,0-7.259c2.42,0,4.852,0,7.272,0c0-2.42,0-4.839,0-7.26c2.42,0,4.84,0,7.259,0c0-2.42,0-4.839,0-7.259
	c2.42,0,4.84,0,7.26,0c0-7.26,0-14.519,0-21.778c0-2.42,0-4.839,0-7.259c-2.42,0-4.84,0-7.26,0c0,7.259,0,14.519,0,21.777
	c-2.419,0-4.839,0-7.259,0c0,2.42,0,4.84,0,7.26c-2.421,0-4.853,0-7.272,0c0,2.42,0,4.839,0,7.259c-2.42,0-4.839,0-7.247,0
	c0,2.421,0,4.84,0,7.26c0,1.814,0,3.63,0,5.444s0,3.63,0,5.444c0,1.815,0,3.63,0,5.444c0,0.228,0,0.454,0,0.681s0,0.454,0,0.681
	C112.325,134.524,112.325,134.977,112.325,135.431z"/>
<path fill="#848484" d="M112.325,58.301c0,2.42,0,4.839,0,7.259c2.408,0,4.827,0,7.247,0c0-2.42,0-4.839,0-7.259
	C117.152,58.301,114.733,58.301,112.325,58.301z"/>
<path fill="#DFF3FD" d="M119.572,123.634c0,2.42,0,4.84,0,7.26c2.42,0,4.852,0,7.272,0c0-2.42,0-4.84,0-7.26
	C124.424,123.634,121.992,123.634,119.572,123.634z"/>
<path fill="#E7F6FD" d="M119.572,116.375c0,2.42,0,4.84,0,7.259c2.42,0,4.852,0,7.272,0c0-2.419,0-4.839,0-7.259
	C124.424,116.375,121.992,116.375,119.572,116.375z"/>
<path fill="#232034" d="M119.572,58.301c0,2.42,0,4.839,0,7.259c2.42,0,4.852,0,7.272,0c0-2.42,0-4.839,0-7.259
	C124.424,58.301,121.992,58.301,119.572,58.301z"/>
<path fill="#DFF3FD" d="M126.845,116.375c0,2.42,0,4.84,0,7.259c2.42,0,4.84,0,7.259,0c0,4.84,0,9.68,0,14.519
	c9.667,0,19.346,0,29.038,0c0-4.839,0-9.679,0-14.519c-4.84,0-9.692,0-14.532,0c0-2.419,0-4.839,0-7.259c-2.419,0-4.839,0-7.246,0
	c0-4.839,0-9.68,0-14.519c-2.42,0-4.84,0-7.26,0c0,2.42,0,4.839,0,7.259c0,2.421,0,4.84,0,7.26
	C131.685,116.375,129.265,116.375,126.845,116.375z"/>
<path fill="#E7F6FD" d="M126.845,109.116c0,2.421,0,4.84,0,7.26c2.42,0,4.84,0,7.259,0c0-2.42,0-4.839,0-7.26
	C131.685,109.116,129.265,109.116,126.845,109.116z"/>
<path fill="#232034" d="M126.845,65.56c0,2.42,0,4.84,0,7.26c2.42,0,4.84,0,7.259,0c0-2.42,0-4.839,0-7.26
	C131.685,65.56,129.265,65.56,126.845,65.56z"/>
<path fill="#FFFFFF" d="M163.142,87.338c0,2.42,0,4.839,0,7.259c4.839,0,9.679,0,14.505,0c0-2.42,0-4.839,0-7.259
	C172.82,87.338,167.98,87.338,163.142,87.338z"/>
<path fill="#FFFFFF" d="M192.179,109.116c2.42,0,4.839,0,7.259,0c0,4.84,0,9.68,0,14.519c1.21,0,2.42,0,3.63,0
	c0.605,0,1.197,0,1.814,0c0.681,0,1.361,0,2.042,0c0-4.839,0-9.679,0-14.519c2.42,0,4.84,0,7.26,0c0-0.227,0-0.453,0-0.681
	c0-0.227,0-0.453,0-0.68c0-0.228,0-0.454,0-0.681c0-0.228,0-0.454,0-0.681c0-0.228,0-0.454,0-0.681s0-0.454,0-0.681s0-0.453,0-0.681
	c0-0.227,0-0.453,0-0.681c0-0.227,0-0.453,0-0.681c0-0.227,0-0.453,0-0.681c0-0.227,0-0.453,0-0.681c0-0.227,0-0.453,0-0.681
	c0-0.226,0-0.453,0-0.681c0-0.226,0-0.453,0-0.68s0-0.454,0-0.681s0-0.454,0-0.681s0-0.454,0-0.681s0-0.454,0-0.681s0-0.453,0-0.681
	c0-0.227,0-0.453,0-0.68c0-0.228,0-0.454,0-0.681c0-0.228,0-0.454,0-0.681c0-0.228,0-0.454,0-0.681s0-0.454,0-0.681s0-0.454,0-0.681
	s0-0.454,0-0.681s0-0.454,0-0.68c0-0.228,0-0.454,0-0.681c0-0.908,0-1.815,0-2.723c-2.42,0-4.84,0-7.26,0c0-0.228,0-0.454,0-0.681
	c0-1.966,0-3.933,0-5.898c0-0.227,0-0.454,0-0.681c-4.915,0-9.843,0-14.745,0c0-9.679,0-19.358,0-29.037c-2.42,0-4.84,0-7.261,0
	c0-0.227,0-0.454,0-0.681c0-2.042,0-4.083,0-6.125c0-0.227,0-0.454,0-0.681c-2.432,0-4.852,0-7.271,0c0-0.227,0-0.454,0-0.681
	c0-1.965,0-3.932,0-5.897c0-0.228,0-0.454,0-0.681c-7.246,0-14.505,0-21.765,0c0-2.42,0-4.839,0-7.26c-2.433,0-4.853,0-7.272,0
	c0-0.227,0-0.454,0-0.68c0-1.966,0-3.932,0-5.898c0-0.227,0-0.453,0-0.68c-7.246,0-14.506,0-21.765,0c0-2.42,0-4.839,0-7.26
	c-2.421,0-4.853,0-7.272,0c0-2.42,0-4.839,0-7.259c-2.42,0-4.839,0-7.247,0c0-0.227,0-0.454,0-0.681c0-1.966,0-3.932,0-5.898
	c0-0.227,0-0.454,0-0.68c-9.767,0-19.508,0-29.264,0c0,2.419,0,4.839,0,7.259c-0.228,0-0.466,0-0.681,0c-1.979,0-3.932,0-5.897,0
	c-0.24,0-0.454,0-0.681,0c0,2.42,0,4.839,0,7.259c12.161,0,24.336,0,36.522,0c0,2.42,0,4.84,0,7.26c2.408,0,4.827,0,7.247,0
	c0,2.419,0,4.839,0,7.259c2.42,0,4.852,0,7.272,0c0,2.42,0,4.84,0,7.26c7.259,0,14.519,0,21.765,0c0,2.419,0,4.839,0,7.259
	c4.84,0,9.692,0,14.532,0c0,2.496,0,4.991,0,7.487c2.419,0,4.839,0,7.259,0c0,2.419,0,4.839,0,7.259c4.827,0,9.666,0,14.518,0
	c0,7.259,0,14.519,0,21.778c-2.432,0-4.852,0-7.271,0c0,2.42,0,4.84,0,7.26c4.84,0,9.692,0,14.532,0c0,0.227,0,0.453,0,0.681
	c0,1.739,0,3.478,0,5.218c0,1.663,0,3.326,0,4.99c0,1.739,0,3.479,0,5.218c0,1.664,0,3.327,0,4.99
	C192.179,108.663,192.179,108.889,192.179,109.116z"/>
<g id="XMLID_2_">
	<g>
		<path fill="#232034" d="M116.613,164.046c0,2.33,0,4.67,0,7c2.42,0,4.83,0,7.26,0c0-2.25,0-4.49,0-6.74c-0.09,0-0.17,0-0.26,0
			c0-0.09,0-0.17,0-0.26C121.273,164.046,118.943,164.046,116.613,164.046z"/>
		<path fill="#232034" d="M118.424,171.306c-0.301,0-0.601,0-0.9,0c-0.311,0-0.61,0-0.91,0c0,2.25,0,4.49,0,6.74
			c2.42,0,4.83,0,7.26,0c0-2.25,0-4.49,0-6.74c-0.229,0-0.449,0-0.68,0c-1.07,0-2.12,0-3.18,0
			C119.483,171.306,118.943,171.306,118.424,171.306z"/>
		<path fill="#232034" d="M117.523,178.306c-0.311,0-0.61,0-0.91,0c0,1.45,0,3.78,0,7c0.3,0,0.6,0,0.91,0c0.3,0,0.6,0,0.9,0
			c0.52,0,1.06,0,1.59,0c1.06,0,2.109,0,3.18,0c0.14,0,0.28,0,0.42,0c0-0.09,0-0.17,0-0.26c0.09,0,0.17,0,0.26,0
			c0-2.25,0-4.49,0-6.74c-0.229,0-0.449,0-0.68,0c-1.07,0-2.12,0-3.18,0c-0.53,0-1.07,0-1.59,0
			C118.123,178.306,117.823,178.306,117.523,178.306z"/>
		<path fill="#232034" d="M123.873,178.046c-2.43,0-4.84,0-7.26,0c0,0.08,0,0.17,0,0.26c0.3,0,0.6,0,0.91,0c0.3,0,0.6,0,0.9,0
			c0.52,0,1.06,0,1.59,0c1.06,0,2.109,0,3.18,0c0.23,0,0.45,0,0.68,0C123.873,178.216,123.873,178.136,123.873,178.046z"/>
		<path fill="#232034" d="M123.873,171.046c-2.43,0-4.84,0-7.26,0c0,0.09,0,0.17,0,0.26c0.3,0,0.6,0,0.91,0c0.3,0,0.6,0,0.9,0
			c0.52,0,1.06,0,1.59,0c1.06,0,2.109,0,3.18,0c0.23,0,0.45,0,0.68,0C123.873,171.216,123.873,171.136,123.873,171.046z"/>
		<path fill="#232034" d="M123.613,185.306c0,2.33,0,4.67,0,7c0.3,0,0.6,0,0.91,0c0.3,0,0.6,0,0.9,0c0.52,0,1.06,0,1.59,0
			c1.06,0,2.109,0,3.18,0c0.23,0,0.45,0,0.68,0c0-2.33,0-4.67,0-7c-0.09,0-0.17,0-0.26,0c0-0.09,0-0.17,0-0.26
			c-2.26,0-4.49,0-6.74,0c0,0.09,0,0.17,0,0.26C123.783,185.306,123.703,185.306,123.613,185.306z"/>
		<path fill="#232034" d="M123.613,185.046c0,0.09,0,0.17,0,0.26c0.09,0,0.17,0,0.26,0c0-0.09,0-0.17,0-0.26
			C123.783,185.046,123.703,185.046,123.613,185.046z"/>
		<path fill="#232034" d="M123.613,164.046c0,0.09,0,0.17,0,0.26c0.09,0,0.17,0,0.26,0c0-0.09,0-0.17,0-0.26
			C123.783,164.046,123.703,164.046,123.613,164.046z"/>
		<path fill="#232034" d="M123.613,157.046c0,2.33,0,4.67,0,7c0.09,0,0.17,0,0.26,0c0,0.09,0,0.17,0,0.26c0.21,0,0.431,0,0.65,0
			c0.3,0,0.6,0,0.9,0c0.52,0,1.06,0,1.59,0c1.06,0,2.109,0,3.18,0c0.14,0,0.28,0,0.42,0c0-2.42,0-4.84,0-7.26
			C128.273,157.046,125.943,157.046,123.613,157.046z"/>
		<path fill="#C3CAD1" d="M123.873,164.306c0,2.25,0,4.49,0,6.74c0,0.09,0,0.17,0,0.26c0,2.25,0,4.49,0,6.74c0,0.09,0,0.17,0,0.26
			c0,2.25,0,4.49,0,6.74c2.25,0,4.48,0,6.74,0c0-2.25,0-4.49,0-6.74c0-0.09,0-0.17,0-0.26c0-2.33,0-4.67,0-7c2.42,0,4.83,0,7.26,0
			c0,2.33,0,4.67,0,7c0,0.09,0,0.17,0,0.26c0,2.25,0,4.49,0,6.74c2.25,0,4.48,0,6.74,0c0-2.25,0-4.49,0-6.74c0-0.08,0-0.17,0-0.26
			c0-1.45,0-3.78,0-7c2.42,0,4.83,0,7.26,0c0,2.33,0,4.67,0,7c0,0.09,0,0.17,0,0.26c0,2.25,0,4.49,0,6.74c2.25,0,4.48,0,6.74,0
			c0-2.25,0-4.49,0-6.74c0-0.09,0-0.17,0-0.26c0-2.25,0-4.49,0-6.74c0-0.09,0-0.17,0-0.26c0-2.25,0-4.49,0-6.74
			c-0.14,0-0.28,0-0.42,0c-1.07,0-2.12,0-3.18,0c-0.53,0-1.07,0-1.59,0c-0.301,0-0.601,0-0.9,0c-0.22,0-0.44,0-0.65,0
			c-0.09,0-0.17,0-0.26,0c-0.14,0-0.28,0-0.42,0c-1.07,0-2.12,0-3.18,0c-0.53,0-1.07,0-1.59,0c-0.301,0-0.601,0-0.9,0
			c-0.22,0-0.44,0-0.65,0c-0.09,0-0.17,0-0.26,0c-0.14,0-0.28,0-0.42,0c-1.07,0-2.12,0-3.18,0c-0.53,0-1.07,0-1.59,0
			c-0.301,0-0.601,0-0.9,0c-0.22,0-0.44,0-0.65,0c-0.09,0-0.17,0-0.26,0c-0.14,0-0.28,0-0.42,0c-1.07,0-2.12,0-3.18,0
			c-0.53,0-1.07,0-1.59,0c-0.301,0-0.601,0-0.9,0c-0.22,0-0.44,0-0.65,0c-0.09,0-0.17,0-0.26,0c-0.14,0-0.28,0-0.42,0
			c-1.07,0-2.12,0-3.18,0c-0.53,0-1.07,0-1.59,0c-0.301,0-0.601,0-0.9,0C124.304,164.306,124.083,164.306,123.873,164.306z"/>
		<path fill="#232034" d="M130.613,185.046c0,0.09,0,0.17,0,0.26c0.09,0,0.17,0,0.26,0c0-0.09,0-0.17,0-0.26
			C130.783,185.046,130.703,185.046,130.613,185.046z"/>
		<path fill="#232034" d="M130.613,171.046c0,2.33,0,4.67,0,7c2.42,0,4.83,0,7.26,0c0-2.33,0-4.67,0-7
			C135.443,171.046,133.033,171.046,130.613,171.046z"/>
		<path fill="#232034" d="M130.613,157.046c0,2.42,0,4.84,0,7.26c0.09,0,0.17,0,0.26,0c0-2.42,0-4.84,0-7.26
			C130.783,157.046,130.703,157.046,130.613,157.046z"/>
		<path fill="#232034" d="M130.613,178.306c0,2.25,0,4.49,0,6.74c0.09,0,0.17,0,0.26,0c0,0.09,0,0.17,0,0.26c0.21,0,0.431,0,0.65,0
			c0.3,0,0.6,0,0.9,0c0.52,0,1.06,0,1.59,0c1.06,0,2.109,0,3.18,0c0.14,0,0.28,0,0.42,0c0-0.09,0-0.17,0-0.26c0.09,0,0.17,0,0.26,0
			c0-2.25,0-4.49,0-6.74c-0.229,0-0.449,0-0.68,0c-1.07,0-2.12,0-3.18,0c-0.53,0-1.07,0-1.59,0c-0.301,0-0.601,0-0.9,0
			C131.213,178.306,130.913,178.306,130.613,178.306z"/>
		<path fill="#232034" d="M130.873,157.046c0,2.42,0,4.84,0,7.26c0.21,0,0.431,0,0.65,0c0.3,0,0.6,0,0.9,0c0.52,0,1.06,0,1.59,0
			c1.06,0,2.109,0,3.18,0c0.14,0,0.28,0,0.42,0c0-2.42,0-4.84,0-7.26C135.354,157.046,133.123,157.046,130.873,157.046z"/>
		<path fill="#232034" d="M137.873,178.046c-2.43,0-4.84,0-7.26,0c0,0.09,0,0.17,0,0.26c0.3,0,0.6,0,0.91,0c0.3,0,0.6,0,0.9,0
			c0.52,0,1.06,0,1.59,0c1.06,0,2.109,0,3.18,0c0.23,0,0.45,0,0.68,0C137.873,178.216,137.873,178.136,137.873,178.046z"/>
		<path fill="#232034" d="M137.613,185.306c0,2.33,0,4.67,0,7c0.3,0,0.6,0,0.91,0c0.3,0,0.6,0,0.9,0c0.52,0,1.06,0,1.59,0
			c1.06,0,2.109,0,3.18,0c0.23,0,0.45,0,0.68,0c0-2.33,0-4.67,0-7c-0.09,0-0.17,0-0.26,0c0-0.09,0-0.17,0-0.26
			c-2.26,0-4.49,0-6.74,0c0,0.09,0,0.17,0,0.26C137.783,185.306,137.703,185.306,137.613,185.306z"/>
		<path fill="#232034" d="M137.613,185.046c0,0.09,0,0.17,0,0.26c0.09,0,0.17,0,0.26,0c0-0.09,0-0.17,0-0.26
			C137.783,185.046,137.703,185.046,137.613,185.046z"/>
		<path fill="#232034" d="M137.613,157.046c0,2.42,0,4.84,0,7.26c0.09,0,0.17,0,0.26,0c0-2.42,0-4.84,0-7.26
			C137.783,157.046,137.703,157.046,137.613,157.046z"/>
		<path fill="#232034" d="M137.873,157.046c0,2.42,0,4.84,0,7.26c0.21,0,0.431,0,0.65,0c0.3,0,0.6,0,0.9,0c0.52,0,1.06,0,1.59,0
			c1.06,0,2.109,0,3.18,0c0.14,0,0.28,0,0.42,0c0-2.42,0-4.84,0-7.26C142.354,157.046,140.123,157.046,137.873,157.046z"/>
		<path fill="#232034" d="M144.613,185.046c0,0.09,0,0.17,0,0.26c0.09,0,0.17,0,0.26,0c0-0.09,0-0.17,0-0.26
			C144.783,185.046,144.703,185.046,144.613,185.046z"/>
		<path fill="#232034" d="M144.613,171.046c0,3.22,0,5.55,0,7c2.42,0,4.83,0,7.26,0c0-2.33,0-4.67,0-7
			C149.443,171.046,147.033,171.046,144.613,171.046z"/>
		<path fill="#232034" d="M144.613,157.046c0,2.42,0,4.84,0,7.26c0.09,0,0.17,0,0.26,0c0-2.42,0-4.84,0-7.26
			C144.783,157.046,144.703,157.046,144.613,157.046z"/>
		<path fill="#232034" d="M144.613,178.306c0,2.25,0,4.49,0,6.74c0.09,0,0.17,0,0.26,0c0,0.09,0,0.17,0,0.26c0.21,0,0.431,0,0.65,0
			c0.3,0,0.6,0,0.9,0c0.52,0,1.06,0,1.59,0c1.06,0,2.109,0,3.18,0c0.14,0,0.28,0,0.42,0c0-0.09,0-0.17,0-0.26c0.09,0,0.17,0,0.26,0
			c0-2.25,0-4.49,0-6.74c-0.229,0-0.449,0-0.68,0c-1.07,0-2.12,0-3.18,0c-0.53,0-1.07,0-1.59,0c-0.301,0-0.601,0-0.9,0
			C145.213,178.306,144.913,178.306,144.613,178.306z"/>
		<path fill="#232034" d="M144.873,157.046c0,2.42,0,4.84,0,7.26c0.21,0,0.431,0,0.65,0c0.3,0,0.6,0,0.9,0c0.52,0,1.06,0,1.59,0
			c1.06,0,2.109,0,3.18,0c0.14,0,0.28,0,0.42,0c0-2.42,0-4.84,0-7.26C149.354,157.046,147.123,157.046,144.873,157.046z"/>
		<path fill="#232034" d="M151.873,178.046c-2.43,0-4.84,0-7.26,0c0,0.09,0,0.18,0,0.26c0.3,0,0.6,0,0.91,0c0.3,0,0.6,0,0.9,0
			c0.52,0,1.06,0,1.59,0c1.06,0,2.109,0,3.18,0c0.23,0,0.45,0,0.68,0C151.873,178.216,151.873,178.136,151.873,178.046z"/>
		<path fill="#232034" d="M151.613,185.306c0,2.33,0,4.67,0,7c0.3,0,0.6,0,0.91,0c0.3,0,0.6,0,0.9,0c0.52,0,1.06,0,1.59,0
			c1.06,0,2.109,0,3.18,0c0.23,0,0.45,0,0.68,0c0-2.33,0-4.67,0-7c-0.09,0-0.17,0-0.26,0c0-0.09,0-0.17,0-0.26
			c-2.26,0-4.49,0-6.74,0c0,0.09,0,0.17,0,0.26C151.783,185.306,151.703,185.306,151.613,185.306z"/>
		<path fill="#232034" d="M151.613,185.046c0,0.09,0,0.17,0,0.26c0.09,0,0.17,0,0.26,0c0-0.09,0-0.17,0-0.26
			C151.783,185.046,151.703,185.046,151.613,185.046z"/>
		<path fill="#232034" d="M151.613,157.046c0,2.42,0,4.84,0,7.26c0.09,0,0.17,0,0.26,0c0-2.42,0-4.84,0-7.26
			C151.783,157.046,151.703,157.046,151.613,157.046z"/>
		<path fill="#232034" d="M151.873,157.046c0,2.42,0,4.84,0,7.26c0.21,0,0.431,0,0.65,0c0.3,0,0.6,0,0.9,0c0.52,0,1.06,0,1.59,0
			c1.06,0,2.109,0,3.18,0c0.14,0,0.28,0,0.42,0c0-0.09,0-0.17,0-0.26c0.09,0,0.17,0,0.26,0c0-2.33,0-4.67,0-7
			C156.533,157.046,154.203,157.046,151.873,157.046z"/>
		<path fill="#232034" d="M158.613,185.046c0,0.09,0,0.17,0,0.26c0.09,0,0.17,0,0.26,0c0-0.09,0-0.17,0-0.26
			C158.783,185.046,158.703,185.046,158.613,185.046z"/>
		<path fill="#232034" d="M158.613,164.306c0,2.25,0,4.49,0,6.74c2.42,0,4.83,0,7.26,0c0-2.33,0-4.67,0-7c-2.34,0-4.67,0-7,0
			c0,0.09,0,0.17,0,0.26C158.783,164.306,158.703,164.306,158.613,164.306z"/>
		<path fill="#232034" d="M158.613,164.046c0,0.09,0,0.17,0,0.26c0.09,0,0.17,0,0.26,0c0-0.09,0-0.17,0-0.26
			C158.783,164.046,158.703,164.046,158.613,164.046z"/>
		<path fill="#232034" d="M158.613,171.306c0,2.25,0,4.49,0,6.74c2.42,0,4.83,0,7.26,0c0-2.25,0-4.49,0-6.74
			c-0.229,0-0.449,0-0.68,0c-1.07,0-2.12,0-3.18,0c-0.53,0-1.07,0-1.59,0c-0.301,0-0.601,0-0.9,0
			C159.213,171.306,158.913,171.306,158.613,171.306z"/>
		<path fill="#232034" d="M158.613,178.306c0,2.25,0,4.49,0,6.74c0.09,0,0.17,0,0.26,0c0,0.09,0,0.17,0,0.26c0.21,0,0.431,0,0.65,0
			c0.3,0,0.6,0,0.9,0c0.52,0,1.06,0,1.59,0c1.06,0,2.109,0,3.18,0c0.23,0,0.45,0,0.68,0c0-2.33,0-4.67,0-7c-0.229,0-0.449,0-0.68,0
			c-1.07,0-2.12,0-3.18,0c-0.53,0-1.07,0-1.59,0c-0.301,0-0.601,0-0.9,0C159.213,178.306,158.913,178.306,158.613,178.306z"/>
		<path fill="#232034" d="M165.873,178.046c-2.43,0-4.84,0-7.26,0c0,0.09,0,0.17,0,0.26c0.3,0,0.6,0,0.91,0c0.3,0,0.6,0,0.9,0
			c0.52,0,1.06,0,1.59,0c1.06,0,2.109,0,3.18,0c0.23,0,0.45,0,0.68,0C165.873,178.216,165.873,178.136,165.873,178.046z"/>
		<path fill="#232034" d="M165.873,171.046c-2.43,0-4.84,0-7.26,0c0,0.09,0,0.17,0,0.26c0.3,0,0.6,0,0.91,0c0.3,0,0.6,0,0.9,0
			c0.52,0,1.06,0,1.59,0c1.06,0,2.109,0,3.18,0c0.23,0,0.45,0,0.68,0C165.873,171.216,165.873,171.136,165.873,171.046z"/>
	</g>
	<g>
	</g>
</g>
<g id="XMLID_1_">
	<g>
		<path fill="#232034" d="M0.25,164.046c0,2.33,0,4.67,0,7c2.42,0,4.83,0,7.26,0c0-2.25,0-4.49,0-6.74c-0.09,0-0.17,0-0.26,0
			c0-0.09,0-0.17,0-0.26C4.91,164.046,2.58,164.046,0.25,164.046z"/>
		<path fill="#232034" d="M0.25,171.306c0,2.25,0,4.49,0,6.74c2.42,0,4.83,0,7.26,0c0-2.25,0-4.49,0-6.74c-0.23,0-0.45,0-0.68,0
			c-1.07,0-2.12,0-3.18,0c-0.53,0-1.07,0-1.59,0c-0.3,0-0.6,0-0.9,0C0.85,171.306,0.55,171.306,0.25,171.306z"/>
		<path fill="#232034" d="M0.25,178.306c0,1.45,0,3.78,0,7c0.3,0,0.6,0,0.91,0c0.3,0,0.6,0,0.9,0c0.52,0,1.06,0,1.59,0
			c1.06,0,2.11,0,3.18,0c0.14,0,0.28,0,0.42,0c0-0.09,0-0.17,0-0.26c0.09,0,0.17,0,0.26,0c0-2.25,0-4.49,0-6.74
			c-0.23,0-0.45,0-0.68,0c-1.07,0-2.12,0-3.18,0c-0.53,0-1.07,0-1.59,0c-0.3,0-0.6,0-0.9,0C0.85,178.306,0.55,178.306,0.25,178.306z
			"/>
		<path fill="#232034" d="M7.51,178.046c-2.43,0-4.84,0-7.26,0c0,0.08,0,0.17,0,0.26c0.3,0,0.6,0,0.91,0c0.3,0,0.6,0,0.9,0
			c0.52,0,1.06,0,1.59,0c1.06,0,2.11,0,3.18,0c0.23,0,0.45,0,0.68,0C7.51,178.216,7.51,178.136,7.51,178.046z"/>
		<path fill="#232034" d="M7.51,171.046c-2.43,0-4.84,0-7.26,0c0,0.09,0,0.17,0,0.26c0.3,0,0.6,0,0.91,0c0.3,0,0.6,0,0.9,0
			c0.52,0,1.06,0,1.59,0c1.06,0,2.11,0,3.18,0c0.23,0,0.45,0,0.68,0C7.51,171.216,7.51,171.136,7.51,171.046z"/>
		<path fill="#232034" d="M7.25,185.306c0,2.33,0,4.67,0,7c0.3,0,0.6,0,0.91,0c0.3,0,0.6,0,0.9,0c0.52,0,1.06,0,1.59,0
			c1.06,0,2.11,0,3.18,0c0.23,0,0.45,0,0.68,0c0-2.33,0-4.67,0-7c-0.09,0-0.17,0-0.26,0c0-0.09,0-0.17,0-0.26c-2.26,0-4.49,0-6.74,0
			c0,0.09,0,0.17,0,0.26C7.42,185.306,7.34,185.306,7.25,185.306z"/>
		<path fill="#232034" d="M7.25,185.046c0,0.09,0,0.17,0,0.26c0.09,0,0.17,0,0.26,0c0-0.09,0-0.17,0-0.26
			C7.42,185.046,7.34,185.046,7.25,185.046z"/>
		<path fill="#232034" d="M7.25,164.046c0,0.09,0,0.17,0,0.26c0.09,0,0.17,0,0.26,0c0-0.09,0-0.17,0-0.26
			C7.42,164.046,7.34,164.046,7.25,164.046z"/>
		<path fill="#232034" d="M7.25,157.046c0,2.33,0,4.67,0,7c0.09,0,0.17,0,0.26,0c0,0.09,0,0.17,0,0.26c0.21,0,0.43,0,0.65,0
			c0.3,0,0.6,0,0.9,0c0.52,0,1.06,0,1.59,0c1.06,0,2.11,0,3.18,0c0.14,0,0.28,0,0.42,0c0-2.42,0-4.84,0-7.26
			C11.91,157.046,9.58,157.046,7.25,157.046z"/>
		<path fill="#C3CAD1" d="M7.51,164.306c0,2.25,0,4.49,0,6.74c0,0.09,0,0.17,0,0.26c0,2.25,0,4.49,0,6.74c0,0.09,0,0.17,0,0.26
			c0,2.25,0,4.49,0,6.74c2.25,0,4.48,0,6.74,0c0-2.25,0-4.49,0-6.74c0-0.09,0-0.17,0-0.26c0-2.33,0-4.67,0-7c2.42,0,4.83,0,7.26,0
			c0,2.33,0,4.67,0,7c0,0.09,0,0.17,0,0.26c0,2.25,0,4.49,0,6.74c2.25,0,4.48,0,6.74,0c0-2.25,0-4.49,0-6.74c0-0.08,0-0.17,0-0.26
			c0-1.45,0-3.78,0-7c2.42,0,4.83,0,7.26,0c0,2.33,0,4.67,0,7c0,0.09,0,0.17,0,0.26c0,2.25,0,4.49,0,6.74c2.25,0,4.48,0,6.74,0
			c0-2.25,0-4.49,0-6.74c0-0.09,0-0.17,0-0.26c0-2.25,0-4.49,0-6.74c0-0.09,0-0.17,0-0.26c0-2.25,0-4.49,0-6.74
			c-0.14,0-0.28,0-0.42,0c-1.07,0-2.12,0-3.18,0c-0.53,0-1.07,0-1.59,0c-0.3,0-0.6,0-0.9,0c-0.22,0-0.44,0-0.65,0
			c-0.09,0-0.17,0-0.26,0c-0.14,0-0.28,0-0.42,0c-1.07,0-2.12,0-3.18,0c-0.53,0-1.07,0-1.59,0c-0.3,0-0.6,0-0.9,0
			c-0.22,0-0.44,0-0.65,0c-0.09,0-0.17,0-0.26,0c-0.14,0-0.28,0-0.42,0c-1.07,0-2.12,0-3.18,0c-0.53,0-1.07,0-1.59,0
			c-0.3,0-0.6,0-0.9,0c-0.22,0-0.44,0-0.65,0c-0.09,0-0.17,0-0.26,0c-0.14,0-0.28,0-0.42,0c-1.07,0-2.12,0-3.18,0
			c-0.53,0-1.07,0-1.59,0c-0.3,0-0.6,0-0.9,0c-0.22,0-0.44,0-0.65,0c-0.09,0-0.17,0-0.26,0c-0.14,0-0.28,0-0.42,0
			c-1.07,0-2.12,0-3.18,0c-0.53,0-1.07,0-1.59,0c-0.3,0-0.6,0-0.9,0C7.94,164.306,7.72,164.306,7.51,164.306z"/>
		<path fill="#232034" d="M14.25,185.046c0,0.09,0,0.17,0,0.26c0.09,0,0.17,0,0.26,0c0-0.09,0-0.17,0-0.26
			C14.42,185.046,14.34,185.046,14.25,185.046z"/>
		<path fill="#232034" d="M14.25,171.046c0,2.33,0,4.67,0,7c2.42,0,4.83,0,7.26,0c0-2.33,0-4.67,0-7
			C19.08,171.046,16.67,171.046,14.25,171.046z"/>
		<path fill="#232034" d="M14.25,157.046c0,2.42,0,4.84,0,7.26c0.09,0,0.17,0,0.26,0c0-2.42,0-4.84,0-7.26
			C14.42,157.046,14.34,157.046,14.25,157.046z"/>
		<path fill="#232034" d="M14.25,178.306c0,2.25,0,4.49,0,6.74c0.09,0,0.17,0,0.26,0c0,0.09,0,0.17,0,0.26c0.21,0,0.43,0,0.65,0
			c0.3,0,0.6,0,0.9,0c0.52,0,1.06,0,1.59,0c1.06,0,2.11,0,3.18,0c0.14,0,0.28,0,0.42,0c0-0.09,0-0.17,0-0.26c0.09,0,0.17,0,0.26,0
			c0-2.25,0-4.49,0-6.74c-0.23,0-0.45,0-0.68,0c-1.07,0-2.12,0-3.18,0c-0.53,0-1.07,0-1.59,0c-0.3,0-0.6,0-0.9,0
			C14.85,178.306,14.55,178.306,14.25,178.306z"/>
		<path fill="#232034" d="M14.51,157.046c0,2.42,0,4.84,0,7.26c0.21,0,0.43,0,0.65,0c0.3,0,0.6,0,0.9,0c0.52,0,1.06,0,1.59,0
			c1.06,0,2.11,0,3.18,0c0.14,0,0.28,0,0.42,0c0-2.42,0-4.84,0-7.26C18.99,157.046,16.76,157.046,14.51,157.046z"/>
		<path fill="#232034" d="M21.51,178.046c-2.43,0-4.84,0-7.26,0c0,0.09,0,0.17,0,0.26c0.3,0,0.6,0,0.91,0c0.3,0,0.6,0,0.9,0
			c0.52,0,1.06,0,1.59,0c1.06,0,2.11,0,3.18,0c0.23,0,0.45,0,0.68,0C21.51,178.216,21.51,178.136,21.51,178.046z"/>
		<path fill="#232034" d="M21.25,185.306c0,2.33,0,4.67,0,7c0.3,0,0.6,0,0.91,0c0.3,0,0.6,0,0.9,0c0.52,0,1.06,0,1.59,0
			c1.06,0,2.11,0,3.18,0c0.23,0,0.45,0,0.68,0c0-2.33,0-4.67,0-7c-0.09,0-0.17,0-0.26,0c0-0.09,0-0.17,0-0.26c-2.26,0-4.49,0-6.74,0
			c0,0.09,0,0.17,0,0.26C21.42,185.306,21.34,185.306,21.25,185.306z"/>
		<path fill="#232034" d="M21.25,185.046c0,0.09,0,0.17,0,0.26c0.09,0,0.17,0,0.26,0c0-0.09,0-0.17,0-0.26
			C21.42,185.046,21.34,185.046,21.25,185.046z"/>
		<path fill="#232034" d="M21.25,157.046c0,2.42,0,4.84,0,7.26c0.09,0,0.17,0,0.26,0c0-2.42,0-4.84,0-7.26
			C21.42,157.046,21.34,157.046,21.25,157.046z"/>
		<path fill="#232034" d="M21.51,157.046c0,2.42,0,4.84,0,7.26c0.21,0,0.43,0,0.65,0c0.3,0,0.6,0,0.9,0c0.52,0,1.06,0,1.59,0
			c1.06,0,2.11,0,3.18,0c0.14,0,0.28,0,0.42,0c0-2.42,0-4.84,0-7.26C25.99,157.046,23.76,157.046,21.51,157.046z"/>
		<path fill="#232034" d="M28.25,185.046c0,0.09,0,0.17,0,0.26c0.09,0,0.17,0,0.26,0c0-0.09,0-0.17,0-0.26
			C28.42,185.046,28.34,185.046,28.25,185.046z"/>
		<path fill="#232034" d="M28.25,171.046c0,3.22,0,5.55,0,7c2.42,0,4.83,0,7.26,0c0-2.33,0-4.67,0-7
			C33.08,171.046,30.67,171.046,28.25,171.046z"/>
		<path fill="#232034" d="M28.25,157.046c0,2.42,0,4.84,0,7.26c0.09,0,0.17,0,0.26,0c0-2.42,0-4.84,0-7.26
			C28.42,157.046,28.34,157.046,28.25,157.046z"/>
		<path fill="#232034" d="M28.25,178.306c0,2.25,0,4.49,0,6.74c0.09,0,0.17,0,0.26,0c0,0.09,0,0.17,0,0.26c0.21,0,0.43,0,0.65,0
			c0.3,0,0.6,0,0.9,0c0.52,0,1.06,0,1.59,0c1.06,0,2.11,0,3.18,0c0.14,0,0.28,0,0.42,0c0-0.09,0-0.17,0-0.26c0.09,0,0.17,0,0.26,0
			c0-2.25,0-4.49,0-6.74c-0.23,0-0.45,0-0.68,0c-1.07,0-2.12,0-3.18,0c-0.53,0-1.07,0-1.59,0c-0.3,0-0.6,0-0.9,0
			C28.85,178.306,28.55,178.306,28.25,178.306z"/>
		<path fill="#232034" d="M28.51,157.046c0,2.42,0,4.84,0,7.26c0.21,0,0.43,0,0.65,0c0.3,0,0.6,0,0.9,0c0.52,0,1.06,0,1.59,0
			c1.06,0,2.11,0,3.18,0c0.14,0,0.28,0,0.42,0c0-2.42,0-4.84,0-7.26C32.99,157.046,30.76,157.046,28.51,157.046z"/>
		<path fill="#232034" d="M35.51,178.046c-2.43,0-4.84,0-7.26,0c0,0.09,0,0.18,0,0.26c0.3,0,0.6,0,0.91,0c0.3,0,0.6,0,0.9,0
			c0.52,0,1.06,0,1.59,0c1.06,0,2.11,0,3.18,0c0.23,0,0.45,0,0.68,0C35.51,178.216,35.51,178.136,35.51,178.046z"/>
		<path fill="#232034" d="M35.25,185.306c0,2.33,0,4.67,0,7c0.3,0,0.6,0,0.91,0c0.3,0,0.6,0,0.9,0c0.52,0,1.06,0,1.59,0
			c1.06,0,2.11,0,3.18,0c0.23,0,0.45,0,0.68,0c0-2.33,0-4.67,0-7c-0.09,0-0.17,0-0.26,0c0-0.09,0-0.17,0-0.26c-2.26,0-4.49,0-6.74,0
			c0,0.09,0,0.17,0,0.26C35.42,185.306,35.34,185.306,35.25,185.306z"/>
		<path fill="#232034" d="M35.25,185.046c0,0.09,0,0.17,0,0.26c0.09,0,0.17,0,0.26,0c0-0.09,0-0.17,0-0.26
			C35.42,185.046,35.34,185.046,35.25,185.046z"/>
		<path fill="#232034" d="M35.25,157.046c0,2.42,0,4.84,0,7.26c0.09,0,0.17,0,0.26,0c0-2.42,0-4.84,0-7.26
			C35.42,157.046,35.34,157.046,35.25,157.046z"/>
		<path fill="#232034" d="M35.51,157.046c0,2.42,0,4.84,0,7.26c0.21,0,0.43,0,0.65,0c0.3,0,0.6,0,0.9,0c0.52,0,1.06,0,1.59,0
			c1.06,0,2.11,0,3.18,0c0.14,0,0.28,0,0.42,0c0-0.09,0-0.17,0-0.26c0.09,0,0.17,0,0.26,0c0-2.33,0-4.67,0-7
			C40.17,157.046,37.84,157.046,35.51,157.046z"/>
		<path fill="#232034" d="M42.25,185.046c0,0.09,0,0.17,0,0.26c0.09,0,0.17,0,0.26,0c0-0.09,0-0.17,0-0.26
			C42.42,185.046,42.34,185.046,42.25,185.046z"/>
		<path fill="#232034" d="M42.25,164.306c0,2.25,0,4.49,0,6.74c2.42,0,4.83,0,7.26,0c0-2.33,0-4.67,0-7c-2.34,0-4.67,0-7,0
			c0,0.09,0,0.17,0,0.26C42.42,164.306,42.34,164.306,42.25,164.306z"/>
		<path fill="#232034" d="M42.25,164.046c0,0.09,0,0.17,0,0.26c0.09,0,0.17,0,0.26,0c0-0.09,0-0.17,0-0.26
			C42.42,164.046,42.34,164.046,42.25,164.046z"/>
		<path fill="#232034" d="M42.25,171.306c0,2.25,0,4.49,0,6.74c2.42,0,4.83,0,7.26,0c0-2.25,0-4.49,0-6.74c-0.23,0-0.45,0-0.68,0
			c-1.07,0-2.12,0-3.18,0c-0.53,0-1.07,0-1.59,0c-0.3,0-0.6,0-0.9,0C42.85,171.306,42.55,171.306,42.25,171.306z"/>
		<path fill="#232034" d="M42.25,178.306c0,2.25,0,4.49,0,6.74c0.09,0,0.17,0,0.26,0c0,0.09,0,0.17,0,0.26c0.21,0,0.43,0,0.65,0
			c0.3,0,0.6,0,0.9,0c0.52,0,1.06,0,1.59,0c1.06,0,2.11,0,3.18,0c0.23,0,0.45,0,0.68,0c0-2.33,0-4.67,0-7c-0.23,0-0.45,0-0.68,0
			c-1.07,0-2.12,0-3.18,0c-0.53,0-1.07,0-1.59,0c-0.3,0-0.6,0-0.9,0C42.85,178.306,42.55,178.306,42.25,178.306z"/>
		<path fill="#232034" d="M49.51,178.046c-2.43,0-4.84,0-7.26,0c0,0.09,0,0.17,0,0.26c0.3,0,0.6,0,0.91,0c0.3,0,0.6,0,0.9,0
			c0.52,0,1.06,0,1.59,0c1.06,0,2.11,0,3.18,0c0.23,0,0.45,0,0.68,0C49.51,178.216,49.51,178.136,49.51,178.046z"/>
		<path fill="#232034" d="M49.51,171.046c-2.43,0-4.84,0-7.26,0c0,0.09,0,0.17,0,0.26c0.3,0,0.6,0,0.91,0c0.3,0,0.6,0,0.9,0
			c0.52,0,1.06,0,1.59,0c1.06,0,2.11,0,3.18,0c0.23,0,0.45,0,0.68,0C49.51,171.216,49.51,171.136,49.51,171.046z"/>
	</g>
	<g>
	</g>
</g>
</svg>
