<?xml version="1.0" encoding="utf-8"?>
<!-- Generator: Adobe Illustrator 15.0.0, SVG Export Plug-In  -->
<!DOCTYPE svg PUBLIC "-//W3C//DTD SVG 1.1//EN" "http://www.w3.org/Graphics/SVG/1.1/DTD/svg11.dtd" [
	<!ENTITY ns_flows "http://ns.adobe.com/Flows/1.0/">
]>
<svg version="1.1"
	 xmlns="http://www.w3.org/2000/svg" xmlns:xlink="http://www.w3.org/1999/xlink" xmlns:a="http://ns.adobe.com/AdobeSVGViewerExtensions/3.0/"
	 x="0px" y="0px" width="300px" height="300px" viewBox="-44.318 -49.83 300 300" enable-background="new -44.318 -49.83 300 300"
	 xml:space="preserve">
<defs>
</defs>
<path fill="#F2FAFD" d="M43.328,138.381c-1.121,0-2.268,0-3.39,0c-0.605,0-1.211,0-1.815,0c-0.528,0-1.058,0-1.587,0
	c-0.089,0-0.151,0-0.24,0c0-4.84,0-9.679,0-14.519c-2.42,0-4.839,0-7.259,0c0-0.228,0-0.454,0-0.681c0-0.908,0-1.814,0-2.722
	c0-0.228,0-0.454,0-0.681c0-0.228,0-0.454,0-0.681c0-0.228,0-0.454,0-0.681s0-0.454,0-0.681c0-0.454,0-0.907,0-1.361
	c0-0.227,0-0.454,0-0.681s0-0.454,0-0.681c0-0.454,0-0.907,0-1.361c0-0.378,0-0.756,0-1.133c0-0.454,0-0.909,0-1.361
	c0-0.228,0-0.454,0-0.681c0-0.228,0-0.454,0-0.681c0-0.454,0-0.908,0-1.361c0-0.378,0-0.757,0-1.135c0-0.227,0-0.453,0-0.681
	c0-0.227,0-0.453,0-0.681c0-0.227,0-0.453,0-0.681c0-0.227,0-0.453,0-0.681c0-0.453,0-0.907,0-1.361c0-0.378,0-0.756,0-1.134
	c0-0.076,0-0.151,0-0.228c4.839,0,9.69,0,14.531,0c0-2.419,0-4.839,0-7.259c2.42,0,4.84,0,7.259,0c0-4.839,0-9.679,0-14.518
	c-4.839,0-9.679,0-14.531,0c0,2.419,0,4.839,0,7.259c-2.42,0-4.839,0-7.259,0c0,2.42,0,4.839,0,7.259c-2.407,0-4.827,0-7.247,0
	c0,2.42,0,4.84,0,7.259c-2.42,0-4.839,0-7.259,0c0,0.228,0,0.454,0,0.681c0,0.228,0,0.454,0,0.681c0,0.228,0,0.454,0,0.681
	c0,0.151,0,0.303,0,0.454c0,0.378,0,0.756,0,1.135c0,0.378,0,0.756,0,1.134s0,0.757,0,1.135s0,0.756,0,1.134
	c0,0.379,0,0.757,0,1.135s0,0.755,0,1.135c0,0.378,0,0.755,0,1.133s0,0.757,0,1.135s0,0.756,0,1.134c0,0.379,0,0.757,0,1.135
	s0,0.756,0,1.135c0,0.378,0,0.756,0,1.134s0,0.757,0,1.135s0,0.756,0,1.134c0,0.379,0,0.757,0,1.135c0,0.377,0,0.755,0,1.135
	c0,0.377,0,0.755,0,1.133s0,0.757,0,1.135s0,0.756,0,1.134c0,0.379,0,0.757,0,1.135s0,0.756,0,1.135c0,0.378,0,0.756,0,1.134
	s0,0.757,0,1.135s0,0.756,0,1.133c0,0.38,0,0.758,0,1.135c0,0.378,0,0.756,0,1.135c0,0.378,0,0.756,0,1.134s0,0.757,0,1.135
	s0,0.756,0,1.134c0,0.379,0,0.757,0,1.135c2.42,0,4.839,0,7.259,0c0,2.42,0,4.839,0,7.259c2.42,0,4.84,0,7.247,0
	c0,2.42,0,4.84,0,7.259c3.629,0,7.259,0,10.901,0c3.63,0,7.26,0,10.889,0c0,2.421,0,4.841,0,7.261c4.84,0,9.667,0,14.506,0
	c0-2.42,0-4.84,0-7.261c-2.42,0-4.839,0-7.259,0c0-4.839,0-9.679,0-14.518c2.42,0,4.839,0,7.259,0c0-2.42,0-4.84,0-7.259
	c-2.42,0-4.839,0-7.259,0c-2.407,0-4.827,0-7.247,0c0,2.419,0,4.839,0,7.259c-0.227,0-0.466,0-0.681,0
	C47.879,138.381,45.61,138.381,43.328,138.381z"/>
<path fill="#FFFFFF" d="M14.531,94.598c0,2.42,0,4.84,0,7.259c2.42,0,4.839,0,7.259,0c0-2.419,0-4.839,0-7.259
	C19.37,94.598,16.951,94.598,14.531,94.598z"/>
<path fill="#FFFFFF" d="M21.79,87.339c0,2.42,0,4.839,0,7.259c2.42,0,4.84,0,7.247,0c0-2.42,0-4.839,0-7.259
	C26.63,87.339,24.21,87.339,21.79,87.339z"/>
<path fill="#FFFFFF" d="M21.79,50.362c0,0.226,0,0.452,0,0.681c2.42,0,4.84,0,7.247,0c0,0.226,0,0.452,0,0.68
	c0,0.453,0,0.907,0,1.361c0,0.529,0,1.059,0,1.588c0,0.454,0,0.907,0,1.361c0,0.227,0,0.453,0,0.681c0,0.303,0,0.604,0,0.907
	c0,0.227,0,0.454,0,0.681c2.42,0,4.839,0,7.259,0c0,2.419,0,4.839,0,7.259c2.432,0,4.853,0,7.272,0c0-4.84,0-9.679,0-14.518
	c-2.42,0-4.841,0-7.272,0c0-0.455,0-0.907,0-1.361c0-0.227,0-0.454,0-0.681s0-0.454,0-0.681c0-0.454,0-0.907,0-1.361
	s0-0.907,0-1.361s0-0.907,0-1.361c0-0.453,0-0.907,0-1.361c0-0.453,0-0.907,0-1.361c0-0.453,0-0.907,0-1.361
	c0-0.452,0-0.906,0-1.359c0-0.454,0-0.908,0-1.361c0-0.454,0-0.908,0-1.361c0-0.454,0-0.908,0-1.361c0-0.454,0-0.908,0-1.361
	c0-0.454,0-0.907,0-1.361s0-0.906,0-1.361c0-0.454,0-0.906,0-1.36c2.432,0,4.853,0,7.272,0c0-2.42,0-4.84,0-7.26
	c3.101,0,6.2,0,9.301,0c0.227,0,0.44,0,0.681,0c0.151,0,0.302,0,0.44,0c0.24,0,0.467,0,0.681,0c0.151,0,0.315,0,0.467,0
	c0.743,0,1.513,0,2.256,0c0.239,0,0.467,0,0.681,0c0.164,0,0.315,0,0.467,0c0.226,0,0.44,0,0.68,0c0.152,0,0.302,0,0.441,0
	c0.769,0,1.513,0,2.281,0c0.227,0,0.441,0,0.681,0c0.138,0,0.289,0,0.44,0c0.239,0,0.467,0,0.681,0c0.164,0,0.315,0,0.467,0
	c0.743,0,1.513,0,2.269,0c0.214,0,0.454,0,0.681,0c0.151,0,0.303,0,0.454,0c0.227,0,0.44,0,0.681,0c0.138,0,0.289,0,0.44,0
	c0.77,0,1.524,0,2.269,0c0.239,0,0.466,0,0.681,0c0.151,0,0.314,0,0.466,0c0.214,0,0.454,0,0.681,0c0.151,0,0.303,0,0.454,0
	c0.756,0,1.499,0,2.269,0c0.227,0,0.44,0,0.681,0c0.151,0,0.302,0,0.44,0c0.24,0,0.467,0,0.681,0c0.151,0,0.315,0,0.467,0
	c0.743,0,1.513,0,2.256,0c0-2.419,0-4.839,0-7.259c0.238,0,0.466,0,0.681,0c1.738,0,3.478,0,5.229,0c0.441,0,0.908,0,1.349,0
	c0.24,0,0.467,0,0.681,0c0.151,0,0.303,0,0.467,0c0.832,0,1.663,0,2.495,0c1.739,0,3.479,0,5.218,0c0.454,0,0.895,0,1.361,0
	c0.214,0,0.44,0,0.681,0c0.151,0,0.303,0,0.44,0c0.466,0,0.921,0,1.361,0c0.239,0,0.466,0,0.681,0c0.151,0,0.314,0,0.466,0
	c0.215,0,0.454,0,0.681,0c0,2.42,0,4.84,0,7.259c4.84,0,9.667,0,14.506,0c0,2.42,0,4.84,0,7.26c2.42,0,4.854,0,7.272,0
	c0,4.839,0,9.679,0,14.519c4.84,0,9.679,0,14.519,0c0,2.42,0,4.84,0,7.26c9.755,0,19.51,0,29.251,0c0-2.42,0-4.84,0-7.26
	c2.42,0,4.853,0,7.272,0c0,2.42,0,4.84,0,7.26c2.42,0,4.84,0,7.259,0c0,2.419,0,4.839,0,7.259c2.42,0,4.84,0,7.26,0
	c0,4.839,0,9.679,0,14.519c2.407,0,4.827,0,7.246,0c0,9.679,0,19.357,0,29.036c-2.419,0-4.839,0-7.246,0c0,4.916,0,9.832,0,14.746
	c-2.42,0-4.84,0-7.26,0c0,4.839,0,9.68,0,14.52c-2.419,0-4.839,0-7.259,0c0,4.839,0,9.679,0,14.518c-2.42,0-4.853,0-7.272,0
	c0,4.84,0,9.68,0,14.52c-4.902,0-9.83,0-14.732,0c0,2.42,0,4.839,0,7.259c-2.421,0-4.853,0-7.272,0c0,4.84,0,9.679,0,14.519
	c-4.839,0-9.666,0-14.506,0c0-2.42,0-4.84,0-7.26c-2.419,0-4.839,0-7.259,0c0-4.839,0-9.679,0-14.518c-2.419,0-4.853,0-7.272,0
	c-4.839,0-9.666,0-14.506,0c0,2.42,0,4.839,0,7.259c2.42,0,4.84,0,7.247,0c0,0.227,0,0.454,0,0.681c0,1.966,0,3.933,0,5.897
	c0,0.228,0,0.454,0,0.681c2.42,0,4.839,0,7.259,0c0,2.42,0,4.84,0,7.26c2.42,0,4.854,0,7.272,0c0,0.228,0,0.454,0,0.68
	c0,1.967,0,3.933,0,5.899c0,0.227,0,0.453,0,0.681c2.42,0,4.84,0,7.259,0c0,1.21,0,2.42,0,3.63c0,1.284,0,2.57,0,3.855
	c4.84,0,9.667,0,14.506,0c0-1.21,0-2.42,0-3.629c0-0.604,0-1.21,0-1.814c0-0.303,0-0.605,0-0.908c0-0.302,0-0.604,0-0.907
	c0-0.075,0-0.151,0-0.227c0.24,0,0.467,0,0.681,0c2.281,0,4.551,0,6.818,0c2.345,0,4.676,0,7.033,0c0-2.42,0-4.839,0-7.26
	c2.482,0,4.99,0,7.473,0c0-2.42,0-4.84,0-7.26c2.42,0,4.853,0,7.272,0c0-4.839,0-9.679,0-14.518c0.227,0,0.44,0,0.681,0
	c1.966,0,3.919,0,5.898,0c0.214,0,0.454,0,0.68,0c0-2.42,0-4.84,0-7.261c2.42,0,4.84,0,7.26,0c0-9.679,0-19.357,0-29.036
	c2.407,0,4.827,0,7.246,0c0-4.84,0-9.68,0-14.519c2.42,0,4.852,0,7.272,0c0-2.495,0-4.991,0-7.487c0.227,0,0.441,0,0.681,0
	c1.966,0,3.919,0,5.898,0c0.214,0,0.452,0,0.681,0c0-9.679,0-19.357,0-29.036c-2.42,0-4.84,0-7.26,0c0-0.228,0-0.454,0-0.681
	c0-4.612,0-9.226,0-13.838c-2.421,0-4.853,0-7.272,0c0-0.227,0-0.454,0-0.681c0-1.966,0-3.933,0-5.898c0-0.228,0-0.454,0-0.68
	c-2.419,0-4.839,0-7.246,0c0-4.84,0-9.681,0-14.52c-2.42,0-4.84,0-7.26,0c0-0.227,0-0.453,0-0.681c0-1.966,0-3.933,0-5.897
	c0-0.227,0-0.455,0-0.681c-1.827,0-3.629,0-5.457,0c-1.802,0-3.617,0-5.433,0c-1.813,0-3.642,0-5.443,0c-1.891,0-3.781,0-5.671,0
	c0,2.419,0,4.839,0,7.259c-7.26,0-14.532,0-21.778,0c0-2.42,0-4.84,0-7.259c-2.42,0-4.84,0-7.26,0c0-0.227,0-0.454,0-0.681
	c0-1.966,0-3.933,0-5.898c0-0.228,0-0.454,0-0.681c-2.419,0-4.839,0-7.259,0c0-0.227,0-0.454,0-0.681c0-1.967,0-3.932,0-5.897
	c0-0.228,0-0.454,0-0.681c-2.419,0-4.853,0-7.272,0c0-1.21,0-2.42,0-3.631c0-0.604,0-1.21,0-1.813c0-0.681,0-1.361,0-2.042
	c-4.839,0-9.666,0-14.506,0c0-2.42,0-4.84,0-7.26c-0.227,0-0.466,0-0.681,0c-0.227,0-0.466,0-0.681,0c-0.227,0-0.466,0-0.681,0
	c-0.226,0-0.466,0-0.681,0c-0.226,0-0.466,0-0.68,0C98.24,0,98,0,97.773,0c-0.214,0-0.441,0-0.681,0c-0.214,0-0.44,0-0.681,0
	c-0.214,0-0.44,0-0.681,0c-0.214,0-0.44,0-0.681,0c-0.44,0-0.895,0-1.361,0c-0.214,0-0.44,0-0.681,0c-0.214,0-0.44,0-0.681,0
	c-0.226,0-0.44,0-0.668,0c-0.238,0-0.453,0-0.68,0c-0.239,0-0.454,0-0.68,0c-0.24,0-0.455,0-0.681,0c-0.454,0-0.921,0-1.361,0
	c-0.24,0-0.454,0-0.681,0c-0.24,0-0.454,0-0.681,0c-0.24,0-0.467,0-0.681,0c-0.228,0-0.467,0-0.681,0c-0.227,0-0.467,0-0.681,0
	c-0.227,0-0.467,0-0.681,0c-0.467,0-0.907,0-1.361,0c-0.907,0-1.827,0-2.734,0c0,2.42,0,4.84,0,7.26c-0.215,0-0.44,0-0.681,0
	c-1.046,0-2.104,0-3.163,0c-0.529,0-1.059,0-1.589,0c-0.604,0-1.223,0-1.814,0c-1.146,0-2.269,0-3.415,0c-1.121,0-2.256,0-3.403,0
	c-0.214,0-0.44,0-0.681,0c0,1.21,0,2.419,0,3.629c0,0.605,0,1.21,0,1.815c0,0.604,0,1.21,0,1.814c0,0.076,0,0.151,0,0.228
	c-0.214,0-0.44,0-0.681,0c-2.331,0-4.688,0-7.02,0c-2.344,0-4.701,0-7.032,0c-2.344,0-4.701,0-7.032,0c-2.42,0-4.841,0-7.272,0
	c0,2.42,0,4.84,0,7.259c-2.42,0-4.839,0-7.259,0c0,2.42,0,4.84,0,7.26c-0.215,0-0.44,0-0.681,0c-0.44,0-0.895,0-1.361,0
	c-0.529,0-1.059,0-1.575,0c-0.467,0-0.907,0-1.374,0c-0.517,0-1.046,0-1.575,0c-0.227,0-0.467,0-0.681,0c0,0.226,0,0.454,0,0.681
	c0,0.226,0,0.454,0,0.68c0,0.227,0,0.455,0,0.681c0,0.227,0,0.454,0,0.681c0,0.454,0,0.907,0,1.361c0,0.227,0,0.453,0,0.681
	c0,0.227,0,0.453,0,0.681c0,0.453,0,0.907,0,1.361c0,0.453,0,0.907,0,1.361c0,0.453,0,0.907,0,1.361c0,0.453,0,0.907,0,1.359
	c0,0.454,0,0.908,0,1.361c0,0.228,0,0.454,0,0.681c0,0.228,0,0.454,0,0.681c0,0.454,0,0.908,0,1.361c0,0.454,0,0.907,0,1.361
	c0,0.227,0,0.454,0,0.681s0,0.454,0,0.681c0,0.454,0,0.907,0,1.361c0,0.227,0,0.454,0,0.681s0,0.454,0,0.681
	S21.79,50.136,21.79,50.362z"/>
<path fill="#DFF3FD" d="M29.037,123.862c2.42,0,4.839,0,7.259,0c0,4.84,0,9.679,0,14.519c0.089,0,0.151,0,0.24,0
	c0.529,0,1.059,0,1.587,0c0.604,0,1.21,0,1.815,0c1.122,0,2.269,0,3.39,0c2.282,0,4.551,0,6.818,0c0.215,0,0.454,0,0.681,0
	c0-2.42,0-4.84,0-7.259c0-2.42,0-4.84,0-7.26c-2.419,0-4.839,0-7.259,0c0-0.908,0-1.814,0-2.722c0-0.228,0-0.454,0-0.681
	c0-0.228,0-0.454,0-0.681c0-0.454,0-0.908,0-1.361c0-0.227,0-0.454,0-0.681s0-0.454,0-0.681c0-0.454,0-0.907,0-1.361
	c0-0.227,0-0.454,0-0.681s0-0.454,0-0.681c0-0.454,0-0.907,0-1.361c0-0.227,0-0.452,0-0.681c0-0.226,0-0.452,0-0.681
	c0-0.452,0-0.906,0-1.36c0-0.227,0-0.453,0-0.681c0-0.227,0-0.453,0-0.681c0-0.453,0-0.907,0-1.361c0-0.227,0-0.453,0-0.68
	c0-0.228,0-0.454,0-0.681c0-0.454,0-0.908,0-1.361c0-0.983,0-1.967,0-2.95c-4.841,0-9.692,0-14.531,0c0,0.076,0,0.151,0,0.228
	c0,0.378,0,0.756,0,1.134c0,0.454,0,0.908,0,1.361c0,0.228,0,0.454,0,0.681c0,0.228,0,0.454,0,0.681c0,0.228,0,0.454,0,0.681
	c0,0.228,0,0.454,0,0.681c0,0.378,0,0.757,0,1.135c0,0.453,0,0.907,0,1.361c0,0.227,0,0.453,0,0.681c0,0.227,0,0.453,0,0.681
	c0,0.452,0,0.907,0,1.361c0,0.377,0,0.755,0,1.133c0,0.454,0,0.907,0,1.361c0,0.227,0,0.454,0,0.681s0,0.454,0,0.681
	c0,0.454,0,0.907,0,1.361c0,0.227,0,0.454,0,0.681s0,0.453,0,0.681c0,0.227,0,0.453,0,0.681c0,0.227,0,0.453,0,0.681
	c0,0.907,0,1.813,0,2.722C29.037,123.408,29.037,123.635,29.037,123.862z"/>
<path fill="#FFFFFF" d="M29.037,80.08c0,2.419,0,4.839,0,7.259c2.42,0,4.839,0,7.259,0c0-2.42,0-4.84,0-7.259
	C33.876,80.08,31.457,80.08,29.037,80.08z"/>
<path fill="#FFFFFF" d="M36.296,72.82c0,2.42,0,4.84,0,7.26c4.853,0,9.692,0,14.531,0c2.42,0,4.84,0,7.247,0c0-2.42,0-4.84,0-7.26
	c-2.407,0-4.827,0-7.247,0c0-2.421,0-4.84,0-7.26c-2.419,0-4.839,0-7.259,0c0,2.42,0,4.839,0,7.26c-0.24,0-0.454,0-0.681,0
	c-0.983,0-1.979,0-2.949,0c-0.983,0-1.966,0-2.962,0C36.763,72.82,36.536,72.82,36.296,72.82z"/>
<path fill="#F2FAFD" d="M52.869,22.005c-3.101,0-6.2,0-9.301,0c0,2.42,0,4.84,0,7.26c-2.42,0-4.841,0-7.272,0
	c0,0.454,0,0.906,0,1.36c0,0.455,0,0.907,0,1.361s0,0.907,0,1.361c0,0.453,0,0.907,0,1.361c0,0.453,0,0.907,0,1.361
	c0,0.453,0,0.907,0,1.361c0,0.453,0,0.907,0,1.361c0,0.453,0,0.907,0,1.359c0,0.454,0,0.908,0,1.361c0,0.454,0,0.908,0,1.361
	c0,0.454,0,0.908,0,1.361c0,0.454,0,0.907,0,1.361s0,0.907,0,1.361s0,0.907,0,1.361c0,0.227,0,0.454,0,0.681s0,0.454,0,0.681
	c0,0.454,0,0.906,0,1.361c2.432,0,4.853,0,7.272,0c0,4.839,0,9.678,0,14.518c2.42,0,4.84,0,7.259,0c0,2.42,0,4.839,0,7.26
	c2.42,0,4.84,0,7.247,0c0.692,0,1.373,0,2.054,0c0.605,0,1.21,0,1.815,0c1.21,0,2.42,0,3.63,0c2.42,0,4.839,0,7.259,0
	c0-2.421,0-4.84,0-7.26c-2.42,0-4.839,0-7.259,0c-0.089,0-0.151,0-0.24,0c0-0.227,0-0.453,0-0.681c0-1.134,0-2.269,0-3.401
	c0-1.135,0-2.27,0-3.403c0-0.605,0-1.21,0-1.815c0-0.529,0-1.059,0-1.588c0-0.605,0-1.21,0-1.815c0-0.302,0-0.604,0-0.907
	s0-0.604,0-0.906c0.681,0,1.361,0,2.042,0c0.618,0,1.21,0,1.828,0c1.209,0,2.419,0,3.629,0c0-4.84,0-9.681,0-14.52
	c4.84,0,9.666,0,14.506,0c0-2.42,0-4.84,0-7.259c1.828,0,3.643,0,5.457,0c1.815,0,3.617,0,5.445,0c1.802,0,3.629,0,5.431,0
	c0.921,0,1.828,0,2.723,0c0.467,0,0.921,0,1.361,0c0.24,0,0.467,0,0.681,0c0.238,0,0.467,0,0.681,0c0,2.419,0,4.839,0,7.259
	c2.42,0,4.839,0,7.259,0c0,4.839,0,9.68,0,14.52c4.854,0,9.692,0,14.531,0c0,2.419,0,4.839,0,7.259c4.84,0,9.667,0,14.506,0
	c0,2.419,0,4.839,0,7.259c2.42,0,4.852,0,7.272,0c0,4.839,0,9.68,0,14.52c-4.853,0-9.691,0-14.519,0c0,2.419,0,4.839,0,7.259
	c0,9.755,0,19.51,0,29.264c4.827,0,9.666,0,14.519,0c0,4.839,0,9.68,0,14.52c-2.421,0-4.853,0-7.272,0c0,4.839,0,9.679,0,14.518
	c-2.419,0-4.839,0-7.246,0c0-2.42,0-4.839,0-7.259c-4.84,0-9.679,0-14.519,0c0,4.839,0,9.679,0,14.518c-2.419,0-4.853,0-7.272,0
	c0,2.421,0,4.841,0,7.261c2.42,0,4.854,0,7.272,0c0,4.839,0,9.679,0,14.518c2.42,0,4.84,0,7.259,0c0,2.42,0,4.84,0,7.26
	c4.84,0,9.667,0,14.506,0c0-4.84,0-9.679,0-14.519c2.42,0,4.852,0,7.272,0c0-2.42,0-4.839,0-7.259c4.902,0,9.83,0,14.732,0
	c0-4.84,0-9.68,0-14.52c2.42,0,4.853,0,7.272,0c0-4.839,0-9.679,0-14.518c2.42,0,4.84,0,7.259,0c0-4.84,0-9.681,0-14.52
	c2.42,0,4.84,0,7.26,0c0-4.914,0-9.83,0-14.746c2.407,0,4.827,0,7.246,0c0-9.679,0-19.357,0-29.036c-2.419,0-4.839,0-7.246,0
	c0-4.84,0-9.68,0-14.519c-2.42,0-4.84,0-7.26,0c0-2.42,0-4.84,0-7.259c-2.419,0-4.839,0-7.259,0c0-2.42,0-4.84,0-7.26
	c-2.42,0-4.853,0-7.272,0c0,2.42,0,4.84,0,7.26c-9.741,0-19.496,0-29.251,0c0-2.42,0-4.84,0-7.26c-4.84,0-9.679,0-14.519,0
	c0-4.84,0-9.68,0-14.519c-2.419,0-4.853,0-7.272,0c0-2.42,0-4.84,0-7.26c-4.839,0-9.666,0-14.506,0c0-2.419,0-4.839,0-7.259
	c-0.227,0-0.466,0-0.681,0c-0.151,0-0.314,0-0.466,0c-0.215,0-0.441,0-0.681,0c-0.44,0-0.896,0-1.361,0c-0.138,0-0.289,0-0.44,0
	c-0.24,0-0.467,0-0.681,0c-0.467,0-0.907,0-1.361,0c-1.739,0-3.479,0-5.218,0c-0.832,0-1.663,0-2.495,0c-0.164,0-0.315,0-0.467,0
	c-0.214,0-0.44,0-0.681,0c-0.44,0-0.907,0-1.349,0c-1.752,0-3.491,0-5.229,0c-0.215,0-0.442,0-0.681,0c0,2.42,0,4.84,0,7.259
	c-0.743,0-1.513,0-2.256,0c-0.151,0-0.315,0-0.467,0c-0.214,0-0.44,0-0.681,0c-0.139,0-0.289,0-0.44,0c-0.24,0-0.454,0-0.681,0
	c-0.77,0-1.513,0-2.269,0c-0.151,0-0.303,0-0.454,0c-0.227,0-0.467,0-0.681,0c-0.151,0-0.314,0-0.466,0c-0.215,0-0.441,0-0.681,0
	c-0.744,0-1.499,0-2.269,0c-0.151,0-0.303,0-0.44,0c-0.24,0-0.454,0-0.681,0c-0.151,0-0.303,0-0.454,0c-0.227,0-0.467,0-0.681,0
	c-0.756,0-1.525,0-2.269,0c-0.151,0-0.303,0-0.467,0c-0.214,0-0.441,0-0.681,0c-0.151,0-0.303,0-0.44,0c-0.239,0-0.454,0-0.681,0
	c-0.769,0-1.513,0-2.281,0c-0.14,0-0.289,0-0.441,0c-0.239,0-0.454,0-0.68,0c-0.151,0-0.303,0-0.467,0c-0.214,0-0.441,0-0.681,0
	c-0.743,0-1.513,0-2.256,0c-0.151,0-0.315,0-0.467,0c-0.214,0-0.44,0-0.681,0c-0.139,0-0.289,0-0.44,0
	C53.31,22.005,53.096,22.005,52.869,22.005z"/>
<path fill="#232034" d="M43.568,123.862c2.42,0,4.84,0,7.259,0c0-2.421,0-4.84,0-7.26s0-4.84,0-7.259c0-0.681,0-1.361,0-2.042
	c0-0.604,0-1.21,0-1.814c0-1.21,0-2.42,0-3.631c0-2.419,0-4.839,0-7.259c-2.419,0-4.839,0-7.259,0c0,2.42,0,4.84,0,7.259
	c0,0.983,0,1.967,0,2.95c0,0.453,0,0.907,0,1.361c0,0.227,0,0.453,0,0.681c0,0.227,0,0.453,0,0.68c0,0.454,0,0.908,0,1.361
	c0,0.228,0,0.454,0,0.681c0,0.228,0,0.454,0,0.681c0,0.454,0,0.908,0,1.36c0,0.229,0,0.455,0,0.681c0,0.229,0,0.454,0,0.681
	c0,0.454,0,0.907,0,1.361c0,0.227,0,0.454,0,0.681s0,0.454,0,0.681c0,0.454,0,0.907,0,1.361c0,0.227,0,0.454,0,0.681
	s0,0.454,0,0.681c0,0.453,0,0.907,0,1.361c0,0.227,0,0.453,0,0.681c0,0.227,0,0.453,0,0.681
	C43.568,122.048,43.568,122.954,43.568,123.862z"/>
<path fill="#232034" d="M50.827,123.862c0,2.42,0,4.84,0,7.26c2.42,0,4.84,0,7.247,0c0-2.42,0-4.84,0-7.26
	C55.667,123.862,53.247,123.862,50.827,123.862z"/>
<path fill="#C3CAD1" d="M50.827,116.603c0,2.42,0,4.839,0,7.26c2.42,0,4.84,0,7.247,0c2.42,0,4.839,0,7.259,0c0-2.421,0-4.84,0-7.26
	c-2.42,0-4.839,0-7.259,0C55.667,116.603,53.247,116.603,50.827,116.603z"/>
<path fill="#E7F6FD" d="M50.827,109.344c0,2.419,0,4.839,0,7.259c2.42,0,4.84,0,7.247,0c0-2.42,0-4.84,0-7.259
	C55.667,109.344,53.247,109.344,50.827,109.344z"/>
<path fill="#010101" d="M50.827,109.344c2.42,0,4.84,0,7.247,0c0,2.419,0,4.839,0,7.259c2.42,0,4.839,0,7.259,0
	c0-4.914,0-9.83,0-14.746c-2.42,0-4.839,0-7.259,0c-2.407,0-4.827,0-7.247,0c0,1.211,0,2.421,0,3.631c0,0.604,0,1.21,0,1.814
	C50.827,107.982,50.827,108.663,50.827,109.344z"/>
<path fill="#848484" d="M50.827,94.598c0,2.42,0,4.84,0,7.259c2.42,0,4.84,0,7.247,0c0-2.419,0-4.839,0-7.259
	C55.667,94.598,53.247,94.598,50.827,94.598z"/>
<path fill="#232034" d="M50.827,80.08c0,4.839,0,9.679,0,14.518c2.42,0,4.84,0,7.247,0c0-2.42,0-4.839,0-7.259s0-4.84,0-7.259
	C55.667,80.08,53.247,80.08,50.827,80.08z"/>
<path fill="#232034" d="M58.074,138.381c0,4.839,0,9.679,0,14.518c2.42,0,4.839,0,7.259,0c0-2.419,0-4.839,0-7.259s0-4.839,0-7.259
	C62.913,138.381,60.494,138.381,58.074,138.381z"/>
<path fill="#010101" d="M58.074,123.862c0,2.42,0,4.84,0,7.26c2.42,0,4.839,0,7.259,0c0-2.42,0-4.84,0-7.26
	C62.913,123.862,60.494,123.862,58.074,123.862z"/>
<path fill="#848484" d="M58.074,80.08c0,2.419,0,4.839,0,7.259c2.42,0,4.839,0,7.259,0c0-2.42,0-4.84,0-7.259
	C62.913,80.08,60.494,80.08,58.074,80.08z"/>
<path fill="#232034" d="M58.074,72.82c0,2.42,0,4.84,0,7.26c2.42,0,4.839,0,7.259,0c1.21,0,2.42,0,3.642,0c0.605,0,1.211,0,1.815,0
	c0.681,0,1.361,0,2.042,0c0-2.42,0-4.84,0-7.26c-2.42,0-4.839,0-7.259,0c-1.21,0-2.42,0-3.63,0c-0.605,0-1.21,0-1.815,0
	C59.447,72.82,58.767,72.82,58.074,72.82z"/>
<path fill="#C3CAD1" d="M65.333,145.64c0,2.42,0,4.84,0,7.259c0.681,0,1.361,0,2.042,0c0.618,0,1.21,0,1.828,0
	c1.209,0,2.419,0,3.629,0c0-2.419,0-4.839,0-7.259c-0.076,0-0.151,0-0.227,0C70.186,145.64,67.753,145.64,65.333,145.64z"/>
<path fill="#DFF3FD" d="M65.333,61.479c0,1.133,0,2.268,0,3.401c0,0.228,0,0.454,0,0.681c0.089,0,0.151,0,0.24,0
	c2.42,0,4.839,0,7.259,0s4.84,0,7.247,0c0-1.814,0-3.63,0-5.443c0-1.815,0-3.631,0-5.445c0-1.815,0-3.629,0-5.444
	c0-0.907,0-1.814,0-2.723c0-0.453,0-0.907,0-1.361c0-0.378,0-0.756,0-1.134c0-0.076,0-0.151,0-0.227c9.69,0,19.371,0,29.037,0
	c0,2.42,0,4.84,0,7.26c2.42,0,4.839,0,7.259,0c0-4.84,0-9.681,0-14.52c-2.42,0-4.839,0-7.259,0c0-2.42,0-4.84,0-7.259
	c-0.214,0-0.442,0-0.681,0c-0.214,0-0.44,0-0.681,0c-0.44,0-0.895,0-1.361,0c-0.895,0-1.802,0-2.723,0c-1.802,0-3.629,0-5.431,0
	c-1.828,0-3.63,0-5.445,0c-1.814,0-3.629,0-5.457,0c0,2.419,0,4.839,0,7.259c-4.84,0-9.666,0-14.506,0c0,4.839,0,9.68,0,14.52
	c-1.21,0-2.42,0-3.629,0c-0.618,0-1.21,0-1.828,0c-0.681,0-1.361,0-2.042,0c0,0.303,0,0.604,0,0.906s0,0.605,0,0.907
	c0,0.605,0,1.21,0,1.815c0,0.529,0,1.059,0,1.588c0,0.605,0,1.21,0,1.815C65.333,59.209,65.333,60.344,65.333,61.479z"/>
<path fill="#C3CAD1" d="M72.832,80.08c-0.681,0-1.361,0-2.042,0c-0.604,0-1.21,0-1.815,0c-1.222,0-2.432,0-3.642,0
	c0,2.419,0,4.839,0,7.259c-2.42,0-4.839,0-7.259,0c0,2.42,0,4.839,0,7.259s0,4.84,0,7.259c2.42,0,4.839,0,7.259,0
	c0,4.916,0,9.832,0,14.746c0.681,0,1.361,0,2.042,0c0.618,0,1.21,0,1.828,0c1.209,0,2.419,0,3.629,0c0,2.42,0,4.839,0,7.26
	c2.42,0,4.84,0,7.247,0c0,2.42,0,4.84,0,7.26c2.419,0,4.839,0,7.259,0c0-2.42,0-4.84,0-7.26c2.432,0,4.853,0,7.272,0
	c0,2.42,0,4.84,0,7.26c2.42,0,4.84,0,7.259,0c0-7.26,0-14.52,0-21.778c-2.419,0-4.839,0-7.259,0c0,2.419,0,4.839,0,7.259
	c-2.42,0-4.841,0-7.272,0c-2.42,0-4.84,0-7.259,0c0-2.42,0-4.84,0-7.259c-2.407,0-4.827,0-7.247,0c0-1.21,0-2.42,0-3.63
	c0-0.605,0-1.21,0-1.815c0-0.302,0-0.604,0-0.907c0-0.151,0-0.303,0-0.454c0-0.227,0-0.453,0-0.681c2.42,0,4.84,0,7.247,0
	c0.907,0,1.827,0,2.734,0c0.454,0,0.895,0,1.361,0c0.214,0,0.454,0,0.681,0c0.214,0,0.454,0,0.681,0c0.895,0,1.802,0,2.723,0
	c0.44,0,0.907,0,1.361,0c0.226,0,0.44,0,0.681,0c0.226,0,0.44,0,0.68,0c1.814,0,3.63,0,5.432,0c1.828,0,3.63,0,5.457,0
	c0,0.681,0,1.361,0,2.042c0,0.605,0,1.21,0,1.815c0,1.21,0,2.42,0,3.63c2.42,0,4.84,0,7.247,0c0-2.42,0-4.84,0-7.26
	c0-0.076,0-0.151,0-0.228c4.839,0,9.679,0,14.531,0c0-2.419,0-4.839,0-7.259c-2.419,0-4.853,0-7.272,0c0-4.839,0-9.679,0-14.518
	c-2.42,0-4.839,0-7.259,0c0-2.42,0-4.84,0-7.26c-9.666,0-19.347,0-29.037,0c0,2.42,0,4.84,0,7.26
	C77.672,80.08,75.252,80.08,72.832,80.08z"/>
<path fill="#010101" d="M67.375,116.603c-0.681,0-1.361,0-2.042,0c0,2.42,0,4.839,0,7.26c0.681,0,1.361,0,2.042,0
	c0.618,0,1.21,0,1.828,0c1.209,0,2.419,0,3.629,0c0-2.421,0-4.84,0-7.26c-1.21,0-2.42,0-3.629,0
	C68.585,116.603,67.993,116.603,67.375,116.603z"/>
<path fill="#C3CAD1" d="M72.832,123.862c-1.21,0-2.42,0-3.629,0c-0.618,0-1.21,0-1.828,0c-0.681,0-1.361,0-2.042,0
	c0,2.42,0,4.84,0,7.26c0.681,0,1.361,0,2.042,0c0.618,0,1.21,0,1.828,0c1.209,0,2.419,0,3.629,0
	C72.832,128.702,72.832,126.282,72.832,123.862z"/>
<path fill="#232034" d="M72.832,131.122c-1.21,0-2.42,0-3.629,0c-0.618,0-1.21,0-1.828,0c-0.681,0-1.361,0-2.042,0
	c0,2.419,0,4.839,0,7.259c1.21,0,2.42,0,3.642,0c0.605,0,1.211,0,1.815,0c0.681,0,1.361,0,2.042,0
	C72.832,135.961,72.832,133.541,72.832,131.122z"/>
<path fill="#010101" d="M70.79,138.381c-0.604,0-1.21,0-1.815,0c-1.222,0-2.432,0-3.642,0c0,2.42,0,4.839,0,7.259
	c2.42,0,4.853,0,7.272,0c0.075,0,0.15,0,0.227,0c0,2.42,0,4.84,0,7.259c3.63,0,7.247,0,10.876,0c3.63,0,7.272,0,10.902,0
	c0-2.419,0-4.839,0-7.259c4.84,0,9.679,0,14.506,0c0-2.42,0-4.839,0-7.259c-2.407,0-4.827,0-7.247,0c0-2.42,0-4.84,0-7.259
	c-2.419,0-4.839,0-7.259,0c0-2.42,0-4.84,0-7.26c-2.42,0-4.841,0-7.272,0c0,2.42,0,4.84,0,7.26c-2.42,0-4.84,0-7.259,0
	c0-2.42,0-4.84,0-7.26c-2.407,0-4.827,0-7.247,0c0,2.42,0,4.84,0,7.26c0,2.419,0,4.839,0,7.259
	C72.151,138.381,71.471,138.381,70.79,138.381z"/>
<path fill="#232034" d="M72.832,152.898c-1.21,0-2.42,0-3.629,0c-0.618,0-1.21,0-1.828,0c-0.681,0-1.361,0-2.042,0
	c0,2.421,0,4.841,0,7.261c1.21,0,2.42,0,3.642,0c0.605,0,1.211,0,1.815,0c0.681,0,1.361,0,2.042,0
	C72.832,157.739,72.832,155.319,72.832,152.898z"/>
<path fill="#FFFFFF" d="M72.832,160.159c-0.681,0-1.361,0-2.042,0c-0.604,0-1.21,0-1.815,0c-1.222,0-2.432,0-3.642,0
	c-4.839,0-9.666,0-14.506,0c0-2.42,0-4.84,0-7.261c-3.629,0-7.259,0-10.889,0c-3.643,0-7.272,0-10.901,0c0-2.419,0-4.839,0-7.259
	c-2.407,0-4.827,0-7.247,0c0-2.42,0-4.839,0-7.259c-2.42,0-4.839,0-7.259,0c0-0.378,0-0.756,0-1.135c0-0.378,0-0.756,0-1.134
	s0-0.757,0-1.135s0-0.756,0-1.134c0-0.379,0-0.757,0-1.135c0-0.377,0-0.755,0-1.135c0-0.377,0-0.755,0-1.133s0-0.757,0-1.135
	s0-0.756,0-1.134c0-0.379,0-0.757,0-1.135s0-0.756,0-1.135c0-0.378,0-0.756,0-1.134s0-0.757,0-1.135s0-0.756,0-1.133
	c0-0.38,0-0.758,0-1.135c0-0.378,0-0.756,0-1.135c0-0.378,0-0.756,0-1.134s0-0.757,0-1.135s0-0.756,0-1.134c0-0.379,0-0.757,0-1.135
	s0-0.756,0-1.135c0-0.378,0-0.756,0-1.134s0-0.757,0-1.135s0-0.755,0-1.133c0-0.38,0-0.757,0-1.135s0-0.756,0-1.135
	c0-0.378,0-0.756,0-1.134s0-0.757,0-1.135s0-0.756,0-1.134c0-0.379,0-0.757,0-1.135c0-0.151,0-0.303,0-0.454
	c0-0.227,0-0.453,0-0.681c0-0.227,0-0.453,0-0.681c0-0.227,0-0.453,0-0.681c-2.42,0-4.84,0-7.272,0c0,4.916,0,9.832,0,14.746
	c-2.42,0-4.84,0-7.259,0c0,9.68,0,19.358,0,29.037c2.419,0,4.839,0,7.259,0c0,0.228,0,0.454,0,0.681c0,0.454,0,0.907,0,1.361
	c0.012,0.529,0,1.059,0,1.588c0,0.454,0,0.908,0,1.361c0.012,0.529,0,1.058,0,1.589c0,0.227,0,0.452,0,0.679
	c2.433,0,4.853,0,7.272,0c0,2.421,0,4.841,0,7.261c4.839,0,9.679,0,14.506,0c0,2.42,0,4.839,0,7.259c4.839,0,9.69,0,14.531,0
	c0,2.42,0,4.84,0,7.259c2.42,0,4.84,0,7.259,0c0,0.228,0,0.454,0,0.681c0,1.967,0,3.933,0,5.898c0,0.228,0,0.454,0,0.681
	c9.755,0,19.497,0,29.252,0c0-2.42,0-4.84,0-7.26c2.419,0,4.839,0,7.259,0c0-2.419,0-4.839,0-7.259c-4.84,0-9.666,0-14.506,0
	C72.832,164.998,72.832,162.579,72.832,160.159z"/>
<path fill="#232034" d="M72.832,160.159c0,2.42,0,4.839,0,7.259c4.84,0,9.666,0,14.506,0c4.853,0,9.692,0,14.531,0
	c0-2.42,0-4.839,0-7.259C92.19,160.159,82.498,160.159,72.832,160.159z"/>
<path fill="#C3CAD1" d="M72.832,152.898c0,2.421,0,4.841,0,7.261c9.666,0,19.358,0,29.037,0c0-2.42,0-4.84,0-7.261
	c2.42,0,4.84,0,7.247,0c0-2.419,0-4.839,0-7.259c-4.827,0-9.666,0-14.506,0c0,2.42,0,4.84,0,7.259c-3.63,0-7.272,0-10.902,0
	C80.079,152.898,76.462,152.898,72.832,152.898z"/>
<path fill="#848484" d="M72.832,109.344c2.42,0,4.84,0,7.247,0c0-1.21,0-2.42,0-3.63c0-0.605,0-1.21,0-1.815
	c0-0.302,0-0.604,0-0.907s0-0.604,0-0.907c0-0.076,0-0.151,0-0.228c-2.407,0-4.827,0-7.247,0c0,0.228,0,0.454,0,0.681
	c0,0.151,0,0.303,0,0.454c0,0.303,0,0.605,0,0.907c0,0.605,0,1.21,0,1.815C72.832,106.924,72.832,108.134,72.832,109.344z"/>
<path fill="#848484" d="M72.832,72.82c0,2.42,0,4.84,0,7.26c2.42,0,4.84,0,7.247,0c0-2.42,0-4.84,0-7.26
	C77.672,72.82,75.252,72.82,72.832,72.82z"/>
<path fill="#E7F6FD" d="M80.079,109.344c0,2.419,0,4.839,0,7.259c2.419,0,4.839,0,7.259,0c0-2.42,0-4.84,0-7.259
	C84.918,109.344,82.498,109.344,80.079,109.344z"/>
<path fill="#010101" d="M80.079,105.714c0,1.21,0,2.42,0,3.63c2.419,0,4.839,0,7.259,0c0,2.419,0,4.839,0,7.259
	c2.432,0,4.853,0,7.272,0c0-2.42,0-4.84,0-7.259c2.42,0,4.84,0,7.259,0c0-1.21,0-2.42,0-3.63c0-0.605,0-1.21,0-1.815
	c0-0.681,0-1.361,0-2.042c-1.827,0-3.629,0-5.457,0c-1.802,0-3.617,0-5.432,0c-0.239,0-0.454,0-0.68,0c-0.24,0-0.455,0-0.681,0
	c-0.454,0-0.921,0-1.361,0c-0.921,0-1.828,0-2.723,0c-0.227,0-0.467,0-0.681,0c-0.227,0-0.467,0-0.681,0c-0.467,0-0.907,0-1.361,0
	c-0.907,0-1.827,0-2.734,0c0,0.076,0,0.151,0,0.228c0,0.304,0,0.604,0,0.907s0,0.605,0,0.907
	C80.079,104.504,80.079,105.108,80.079,105.714z"/>
<path fill="#E7F6FD" d="M80.079,46.505c0,0.908,0,1.815,0,2.723c0,1.815,0,3.629,0,5.444c0,1.814,0,3.63,0,5.445
	c0,1.813,0,3.629,0,5.443c0.089,0,0.163,0,0.238,0c12.011,0,24.034,0,36.058,0c0-4.84,0-9.679,0-14.518c-2.42,0-4.839,0-7.259,0
	c0-2.42,0-4.84,0-7.26c-9.666,0-19.347,0-29.037,0c0,0.075,0,0.15,0,0.227c0,0.378,0,0.756,0,1.134
	C80.079,45.598,80.079,46.052,80.079,46.505z"/>
<path fill="#232034" d="M80.079,65.561c-2.407,0-4.827,0-7.247,0c0,2.42,0,4.839,0,7.26c2.42,0,4.84,0,7.247,0
	c9.69,0,19.371,0,29.037,0c2.42,0,4.839,0,7.259,0c0-2.421,0-4.84,0-7.26c-12.023,0-24.047,0-36.058,0
	C80.242,65.561,80.168,65.561,80.079,65.561z"/>
<path fill="#232034" d="M101.869,152.898c0,2.421,0,4.841,0,7.261c4.84,0,9.667,0,14.506,0c0-2.42,0-4.84,0-7.261
	c-2.42,0-4.839,0-7.259,0C106.709,152.898,104.289,152.898,101.869,152.898z"/>
<path fill="#C3CAD1" d="M101.869,131.122c0,2.419,0,4.839,0,7.259c2.42,0,4.84,0,7.247,0c0-2.42,0-4.84,0-7.259
	C106.709,131.122,104.289,131.122,101.869,131.122z"/>
<path fill="#848484" d="M109.116,145.64c0,2.42,0,4.84,0,7.259c2.42,0,4.839,0,7.259,0c0-2.419,0-4.839,0-7.259
	C113.955,145.64,111.536,145.64,109.116,145.64z"/>
<path fill="#C3CAD1" d="M109.116,138.381c0,2.42,0,4.839,0,7.259c2.42,0,4.839,0,7.259,0c0-2.42,0-4.839,0-7.259
	C113.955,138.381,111.536,138.381,109.116,138.381z"/>
<path fill="#232034" d="M109.116,131.122c0,2.419,0,4.839,0,7.259c2.42,0,4.839,0,7.259,0c0-2.42,0-4.84,0-7.259
	c2.42,0,4.854,0,7.272,0c0-2.42,0-4.84,0-7.26c2.42,0,4.84,0,7.259,0c0-2.421,0-4.84,0-7.26c2.42,0,4.84,0,7.26,0
	c0-9.754,0-19.509,0-29.264c-2.42,0-4.84,0-7.26,0c0,7.335,0,14.669,0,22.005c-2.419,0-4.839,0-7.259,0c0,2.419,0,4.839,0,7.259
	c-2.419,0-4.853,0-7.272,0c0,2.42,0,4.839,0,7.26c-2.42,0-4.839,0-7.259,0C109.116,126.282,109.116,128.702,109.116,131.122z"/>
<path fill="#848484" d="M109.116,101.856c0,0.076,0,0.151,0,0.228c0,2.42,0,4.84,0,7.26c-2.407,0-4.827,0-7.247,0
	c0,7.259,0,14.519,0,21.778c2.42,0,4.84,0,7.247,0c0-2.42,0-4.84,0-7.26c2.42,0,4.839,0,7.259,0c0-2.421,0-4.84,0-7.26
	c2.42,0,4.854,0,7.272,0c0-2.42,0-4.84,0-7.259c2.42,0,4.84,0,7.259,0c0-7.336,0-14.67,0-22.005c-2.419,0-4.839,0-7.259,0
	c0-2.42,0-4.84,0-7.259c-2.419,0-4.853,0-7.272,0c0,4.839,0,9.679,0,14.518c2.42,0,4.854,0,7.272,0c0,2.42,0,4.84,0,7.259
	C118.795,101.856,113.955,101.856,109.116,101.856z"/>
<path fill="#848484" d="M109.116,72.82c0,2.42,0,4.84,0,7.26c2.42,0,4.839,0,7.259,0c0-2.42,0-4.84,0-7.26
	C113.955,72.82,111.536,72.82,109.116,72.82z"/>
<path fill="#232034" d="M116.375,145.64c0,2.42,0,4.84,0,7.259c2.42,0,4.854,0,7.272,0c0-4.839,0-9.679,0-14.518
	c-2.419,0-4.853,0-7.272,0C116.375,140.801,116.375,143.22,116.375,145.64z"/>
<path fill="#F2FAFD" d="M116.375,131.122c0,2.419,0,4.839,0,7.259c2.42,0,4.854,0,7.272,0c0-2.42,0-4.84,0-7.259
	C121.229,131.122,118.795,131.122,116.375,131.122z"/>
<path fill="#232034" d="M116.375,72.82c0,2.42,0,4.84,0,7.26c2.42,0,4.854,0,7.272,0c0-2.42,0-4.84,0-7.26
	C121.229,72.82,118.795,72.82,116.375,72.82z"/>
<path fill="#E7F6FD" d="M116.375,65.561c0,2.42,0,4.839,0,7.26c2.42,0,4.854,0,7.272,0c0-2.421,0-4.84,0-7.26
	C121.229,65.561,118.795,65.561,116.375,65.561z"/>
<path fill="#DFF3FD" d="M116.375,51.043c0,4.839,0,9.678,0,14.518c2.42,0,4.854,0,7.272,0c0,2.42,0,4.839,0,7.26
	c2.42,0,4.84,0,7.259,0c0,2.42,0,4.84,0,7.26c0,2.419,0,4.839,0,7.259c2.42,0,4.84,0,7.26,0c0-2.42,0-4.84,0-7.259
	c4.827,0,9.666,0,14.519,0c0-4.84,0-9.681,0-14.52c-2.421,0-4.853,0-7.272,0c0-2.42,0-4.84,0-7.259c-4.839,0-9.666,0-14.506,0
	c0-2.42,0-4.84,0-7.259C126.067,51.043,121.229,51.043,116.375,51.043z"/>
<path fill="#DFF3FD" d="M123.647,131.122c0,2.419,0,4.839,0,7.259c4.84,0,9.679,0,14.519,0c0,2.42,0,4.839,0,7.259
	c2.407,0,4.827,0,7.246,0c0-4.839,0-9.679,0-14.518c2.42,0,4.852,0,7.272,0c0-4.84,0-9.681,0-14.52c-4.853,0-9.691,0-14.519,0
	c-2.42,0-4.84,0-7.26,0c0,2.42,0,4.839,0,7.26c-2.419,0-4.839,0-7.259,0C123.647,126.282,123.647,128.702,123.647,131.122z"/>
<path fill="#232034" d="M123.647,80.08c0,2.419,0,4.839,0,7.259c2.42,0,4.84,0,7.259,0c0-2.42,0-4.84,0-7.259
	C128.487,80.08,126.067,80.08,123.647,80.08z"/>
<path fill="#E7F6FD" d="M123.647,72.82c0,2.42,0,4.84,0,7.26c2.42,0,4.84,0,7.259,0c0-2.42,0-4.84,0-7.26
	C128.487,72.82,126.067,72.82,123.647,72.82z"/>
<g id="XMLID_2_">
	<g>
		<path fill="#232034" d="M117.26,170.529c0,2.33,0,4.67,0,7c2.42,0,4.83,0,7.26,0c0-2.25,0-4.49,0-6.74c-0.09,0-0.17,0-0.26,0
			c0-0.09,0-0.17,0-0.26C121.92,170.529,119.59,170.529,117.26,170.529z"/>
		<path fill="#232034" d="M117.26,177.789c0,2.25,0,4.49,0,6.74c2.42,0,4.83,0,7.26,0c0-2.25,0-4.49,0-6.74c-0.229,0-0.449,0-0.68,0
			c-1.07,0-2.12,0-3.18,0c-0.53,0-1.07,0-1.59,0c-0.301,0-0.601,0-0.9,0C117.859,177.789,117.56,177.789,117.26,177.789z"/>
		<path fill="#232034" d="M117.26,184.789c0,1.45,0,3.78,0,7c0.3,0,0.6,0,0.91,0c0.3,0,0.6,0,0.9,0c0.52,0,1.06,0,1.59,0
			c1.06,0,2.109,0,3.18,0c0.14,0,0.28,0,0.42,0c0-0.09,0-0.17,0-0.26c0.09,0,0.17,0,0.26,0c0-2.25,0-4.49,0-6.74
			c-0.229,0-0.449,0-0.68,0c-1.07,0-2.12,0-3.18,0c-0.53,0-1.07,0-1.59,0c-0.301,0-0.601,0-0.9,0
			C117.859,184.789,117.56,184.789,117.26,184.789z"/>
		<path fill="#232034" d="M124.52,184.529c-2.43,0-4.84,0-7.26,0c0,0.08,0,0.17,0,0.26c0.3,0,0.6,0,0.91,0c0.3,0,0.6,0,0.9,0
			c0.52,0,1.06,0,1.59,0c1.06,0,2.109,0,3.18,0c0.23,0,0.45,0,0.68,0C124.52,184.699,124.52,184.619,124.52,184.529z"/>
		<path fill="#232034" d="M124.52,177.529c-2.43,0-4.84,0-7.26,0c0,0.09,0,0.17,0,0.26c0.3,0,0.6,0,0.91,0c0.3,0,0.6,0,0.9,0
			c0.52,0,1.06,0,1.59,0c1.06,0,2.109,0,3.18,0c0.23,0,0.45,0,0.68,0C124.52,177.699,124.52,177.619,124.52,177.529z"/>
		<path fill="#232034" d="M124.26,191.789c0,2.33,0,4.67,0,7c0.3,0,0.6,0,0.91,0c0.3,0,0.6,0,0.9,0c0.52,0,1.06,0,1.59,0
			c1.06,0,2.109,0,3.18,0c0.23,0,0.45,0,0.68,0c0-2.33,0-4.67,0-7c-0.09,0-0.17,0-0.26,0c0-0.09,0-0.17,0-0.26
			c-2.26,0-4.49,0-6.74,0c0,0.09,0,0.17,0,0.26C124.43,191.789,124.35,191.789,124.26,191.789z"/>
		<path fill="#232034" d="M124.26,191.529c0,0.09,0,0.17,0,0.26c0.09,0,0.17,0,0.26,0c0-0.09,0-0.17,0-0.26
			C124.43,191.529,124.35,191.529,124.26,191.529z"/>
		<path fill="#232034" d="M124.26,170.529c0,0.09,0,0.17,0,0.26c0.09,0,0.17,0,0.26,0c0-0.09,0-0.17,0-0.26
			C124.43,170.529,124.35,170.529,124.26,170.529z"/>
		<path fill="#232034" d="M124.26,163.529c0,2.33,0,4.67,0,7c0.09,0,0.17,0,0.26,0c0,0.09,0,0.17,0,0.26c0.21,0,0.431,0,0.65,0
			c0.3,0,0.6,0,0.9,0c0.52,0,1.06,0,1.59,0c1.06,0,2.109,0,3.18,0c0.14,0,0.28,0,0.42,0c0-2.42,0-4.84,0-7.26
			C128.92,163.529,126.59,163.529,124.26,163.529z"/>
		<path fill="#C3CAD1" d="M125.17,170.789c-0.22,0-0.44,0-0.65,0c0,2.25,0,4.49,0,6.74c0,0.09,0,0.17,0,0.26c0,2.25,0,4.49,0,6.74
			c0,0.09,0,0.17,0,0.26c0,2.25,0,4.49,0,6.74c2.25,0,4.48,0,6.74,0c0-2.25,0-4.49,0-6.74c0-0.09,0-0.17,0-0.26c0-2.33,0-4.67,0-7
			c2.42,0,4.83,0,7.26,0c0,2.33,0,4.67,0,7c0,0.09,0,0.17,0,0.26c0,2.25,0,4.49,0,6.74c2.25,0,4.48,0,6.74,0c0-2.25,0-4.49,0-6.74
			c0-0.08,0-0.17,0-0.26c0-1.45,0-3.78,0-7c2.42,0,4.83,0,7.26,0c0,2.33,0,4.67,0,7c0,0.09,0,0.17,0,0.26c0,2.25,0,4.49,0,6.74
			c2.25,0,4.48,0,6.74,0c0-2.25,0-4.49,0-6.74c0-0.09,0-0.17,0-0.26c0-2.25,0-4.49,0-6.74c0-0.09,0-0.17,0-0.26
			c0-2.25,0-4.49,0-6.74c-0.14,0-0.28,0-0.42,0c-1.07,0-2.12,0-3.18,0c-0.53,0-1.07,0-1.59,0c-0.301,0-0.601,0-0.9,0
			c-0.22,0-0.44,0-0.65,0c-0.09,0-0.17,0-0.26,0c-0.14,0-0.28,0-0.42,0c-1.07,0-2.12,0-3.18,0c-0.53,0-1.07,0-1.59,0
			c-0.301,0-0.601,0-0.9,0c-0.22,0-0.44,0-0.65,0c-0.09,0-0.17,0-0.26,0c-0.14,0-0.28,0-0.42,0c-1.07,0-2.12,0-3.18,0
			c-0.53,0-1.07,0-1.59,0c-0.301,0-0.601,0-0.9,0c-0.22,0-0.44,0-0.65,0c-0.09,0-0.17,0-0.26,0c-0.14,0-0.28,0-0.42,0
			c-1.07,0-2.12,0-3.18,0c-0.53,0-1.07,0-1.59,0c-0.301,0-0.601,0-0.9,0c-0.22,0-0.44,0-0.65,0c-0.09,0-0.17,0-0.26,0
			c-0.14,0-0.28,0-0.42,0c-1.07,0-2.12,0-3.18,0c-0.53,0-1.07,0-1.59,0C125.77,170.789,125.47,170.789,125.17,170.789z"/>
		<path fill="#232034" d="M131.26,191.529c0,0.09,0,0.17,0,0.26c0.09,0,0.17,0,0.26,0c0-0.09,0-0.17,0-0.26
			C131.43,191.529,131.35,191.529,131.26,191.529z"/>
		<path fill="#232034" d="M131.26,177.529c0,2.33,0,4.67,0,7c2.42,0,4.83,0,7.26,0c0-2.33,0-4.67,0-7
			C136.09,177.529,133.68,177.529,131.26,177.529z"/>
		<path fill="#232034" d="M131.26,163.529c0,2.42,0,4.84,0,7.26c0.09,0,0.17,0,0.26,0c0-2.42,0-4.84,0-7.26
			C131.43,163.529,131.35,163.529,131.26,163.529z"/>
		<path fill="#232034" d="M131.26,184.789c0,2.25,0,4.49,0,6.74c0.09,0,0.17,0,0.26,0c0,0.09,0,0.17,0,0.26c0.21,0,0.431,0,0.65,0
			c0.3,0,0.6,0,0.9,0c0.52,0,1.06,0,1.59,0c1.06,0,2.109,0,3.18,0c0.14,0,0.28,0,0.42,0c0-0.09,0-0.17,0-0.26c0.09,0,0.17,0,0.26,0
			c0-2.25,0-4.49,0-6.74c-0.229,0-0.449,0-0.68,0c-1.07,0-2.12,0-3.18,0c-0.53,0-1.07,0-1.59,0c-0.301,0-0.601,0-0.9,0
			C131.859,184.789,131.56,184.789,131.26,184.789z"/>
		<path fill="#232034" d="M131.52,163.529c0,2.42,0,4.84,0,7.26c0.21,0,0.431,0,0.65,0c0.3,0,0.6,0,0.9,0c0.52,0,1.06,0,1.59,0
			c1.06,0,2.109,0,3.18,0c0.14,0,0.28,0,0.42,0c0-2.42,0-4.84,0-7.26C136,163.529,133.77,163.529,131.52,163.529z"/>
		<path fill="#232034" d="M138.52,184.529c-2.43,0-4.84,0-7.26,0c0,0.09,0,0.17,0,0.26c0.3,0,0.6,0,0.91,0c0.3,0,0.6,0,0.9,0
			c0.52,0,1.06,0,1.59,0c1.06,0,2.109,0,3.18,0c0.23,0,0.45,0,0.68,0C138.52,184.699,138.52,184.619,138.52,184.529z"/>
		<path fill="#232034" d="M138.26,191.789c0,2.33,0,4.67,0,7c0.3,0,0.6,0,0.91,0c0.3,0,0.6,0,0.9,0c0.52,0,1.06,0,1.59,0
			c1.06,0,2.109,0,3.18,0c0.23,0,0.45,0,0.68,0c0-2.33,0-4.67,0-7c-0.09,0-0.17,0-0.26,0c0-0.09,0-0.17,0-0.26
			c-2.26,0-4.49,0-6.74,0c0,0.09,0,0.17,0,0.26C138.43,191.789,138.35,191.789,138.26,191.789z"/>
		<path fill="#232034" d="M138.26,191.529c0,0.09,0,0.17,0,0.26c0.09,0,0.17,0,0.26,0c0-0.09,0-0.17,0-0.26
			C138.43,191.529,138.35,191.529,138.26,191.529z"/>
		<path fill="#232034" d="M138.26,163.529c0,2.42,0,4.84,0,7.26c0.09,0,0.17,0,0.26,0c0-2.42,0-4.84,0-7.26
			C138.43,163.529,138.35,163.529,138.26,163.529z"/>
		<path fill="#232034" d="M138.52,163.529c0,2.42,0,4.84,0,7.26c0.21,0,0.431,0,0.65,0c0.3,0,0.6,0,0.9,0c0.52,0,1.06,0,1.59,0
			c1.06,0,2.109,0,3.18,0c0.14,0,0.28,0,0.42,0c0-2.42,0-4.84,0-7.26C143,163.529,140.77,163.529,138.52,163.529z"/>
		<path fill="#232034" d="M145.26,191.529c0,0.09,0,0.17,0,0.26c0.09,0,0.17,0,0.26,0c0-0.09,0-0.17,0-0.26
			C145.43,191.529,145.35,191.529,145.26,191.529z"/>
		<path fill="#232034" d="M145.26,177.529c0,3.22,0,5.55,0,7c2.42,0,4.83,0,7.26,0c0-2.33,0-4.67,0-7
			C150.09,177.529,147.68,177.529,145.26,177.529z"/>
		<path fill="#232034" d="M145.26,163.529c0,2.42,0,4.84,0,7.26c0.09,0,0.17,0,0.26,0c0-2.42,0-4.84,0-7.26
			C145.43,163.529,145.35,163.529,145.26,163.529z"/>
		<path fill="#232034" d="M145.26,184.789c0,2.25,0,4.49,0,6.74c0.09,0,0.17,0,0.26,0c0,0.09,0,0.17,0,0.26c0.21,0,0.431,0,0.65,0
			c0.3,0,0.6,0,0.9,0c0.52,0,1.06,0,1.59,0c1.06,0,2.109,0,3.18,0c0.14,0,0.28,0,0.42,0c0-0.09,0-0.17,0-0.26c0.09,0,0.17,0,0.26,0
			c0-2.25,0-4.49,0-6.74c-0.229,0-0.449,0-0.68,0c-1.07,0-2.12,0-3.18,0c-0.53,0-1.07,0-1.59,0c-0.301,0-0.601,0-0.9,0
			C145.859,184.789,145.56,184.789,145.26,184.789z"/>
		<path fill="#232034" d="M145.52,163.529c0,2.42,0,4.84,0,7.26c0.21,0,0.431,0,0.65,0c0.3,0,0.6,0,0.9,0c0.52,0,1.06,0,1.59,0
			c1.06,0,2.109,0,3.18,0c0.14,0,0.28,0,0.42,0c0-2.42,0-4.84,0-7.26C150,163.529,147.77,163.529,145.52,163.529z"/>
		<path fill="#232034" d="M152.52,184.529c-2.43,0-4.84,0-7.26,0c0,0.09,0,0.18,0,0.26c0.3,0,0.6,0,0.91,0c0.3,0,0.6,0,0.9,0
			c0.52,0,1.06,0,1.59,0c1.06,0,2.109,0,3.18,0c0.23,0,0.45,0,0.68,0C152.52,184.699,152.52,184.619,152.52,184.529z"/>
		<path fill="#232034" d="M152.26,191.789c0,2.33,0,4.67,0,7c0.3,0,0.6,0,0.91,0c0.3,0,0.6,0,0.9,0c0.52,0,1.06,0,1.59,0
			c1.06,0,2.109,0,3.18,0c0.23,0,0.45,0,0.68,0c0-2.33,0-4.67,0-7c-0.09,0-0.17,0-0.26,0c0-0.09,0-0.17,0-0.26
			c-2.26,0-4.49,0-6.74,0c0,0.09,0,0.17,0,0.26C152.43,191.789,152.35,191.789,152.26,191.789z"/>
		<path fill="#232034" d="M152.26,191.529c0,0.09,0,0.17,0,0.26c0.09,0,0.17,0,0.26,0c0-0.09,0-0.17,0-0.26
			C152.43,191.529,152.35,191.529,152.26,191.529z"/>
		<path fill="#232034" d="M152.26,163.529c0,2.42,0,4.84,0,7.26c0.09,0,0.17,0,0.26,0c0-2.42,0-4.84,0-7.26
			C152.43,163.529,152.35,163.529,152.26,163.529z"/>
		<path fill="#232034" d="M152.52,163.529c0,2.42,0,4.84,0,7.26c0.21,0,0.431,0,0.65,0c0.3,0,0.6,0,0.9,0c0.52,0,1.06,0,1.59,0
			c1.06,0,2.109,0,3.18,0c0.14,0,0.28,0,0.42,0c0-0.09,0-0.17,0-0.26c0.09,0,0.17,0,0.26,0c0-2.33,0-4.67,0-7
			C157.18,163.529,154.85,163.529,152.52,163.529z"/>
		<path fill="#232034" d="M159.26,191.529c0,0.09,0,0.17,0,0.26c0.09,0,0.17,0,0.26,0c0-0.09,0-0.17,0-0.26
			C159.43,191.529,159.35,191.529,159.26,191.529z"/>
		<path fill="#232034" d="M159.26,170.789c0,2.25,0,4.49,0,6.74c2.42,0,4.83,0,7.26,0c0-2.33,0-4.67,0-7c-2.34,0-4.67,0-7,0
			c0,0.09,0,0.17,0,0.26C159.43,170.789,159.35,170.789,159.26,170.789z"/>
		<path fill="#232034" d="M159.26,170.529c0,0.09,0,0.17,0,0.26c0.09,0,0.17,0,0.26,0c0-0.09,0-0.17,0-0.26
			C159.43,170.529,159.35,170.529,159.26,170.529z"/>
		<path fill="#232034" d="M159.26,177.789c0,2.25,0,4.49,0,6.74c2.42,0,4.83,0,7.26,0c0-2.25,0-4.49,0-6.74c-0.229,0-0.449,0-0.68,0
			c-1.07,0-2.12,0-3.18,0c-0.53,0-1.07,0-1.59,0c-0.301,0-0.601,0-0.9,0C159.859,177.789,159.56,177.789,159.26,177.789z"/>
		<path fill="#232034" d="M159.26,184.789c0,2.25,0,4.49,0,6.74c0.09,0,0.17,0,0.26,0c0,0.09,0,0.17,0,0.26c0.21,0,0.431,0,0.65,0
			c0.3,0,0.6,0,0.9,0c0.52,0,1.06,0,1.59,0c1.06,0,2.109,0,3.18,0c0.23,0,0.45,0,0.68,0c0-2.33,0-4.67,0-7c-0.229,0-0.449,0-0.68,0
			c-1.07,0-2.12,0-3.18,0c-0.53,0-1.07,0-1.59,0c-0.301,0-0.601,0-0.9,0C159.859,184.789,159.56,184.789,159.26,184.789z"/>
		<path fill="#232034" d="M166.52,184.529c-2.43,0-4.84,0-7.26,0c0,0.09,0,0.17,0,0.26c0.3,0,0.6,0,0.91,0c0.3,0,0.6,0,0.9,0
			c0.52,0,1.06,0,1.59,0c1.06,0,2.109,0,3.18,0c0.23,0,0.45,0,0.68,0C166.52,184.699,166.52,184.619,166.52,184.529z"/>
		<path fill="#232034" d="M166.52,177.529c-2.43,0-4.84,0-7.26,0c0,0.09,0,0.17,0,0.26c0.3,0,0.6,0,0.91,0c0.3,0,0.6,0,0.9,0
			c0.52,0,1.06,0,1.59,0c1.06,0,2.109,0,3.18,0c0.23,0,0.45,0,0.68,0C166.52,177.699,166.52,177.619,166.52,177.529z"/>
	</g>
	<g>
	</g>
</g>
<g id="XMLID_1_">
	<g>
		<path fill="#232034" d="M0.896,170.529c0,2.33,0,4.67,0,7c2.42,0,4.83,0,7.26,0c0-2.25,0-4.49,0-6.74c-0.09,0-0.17,0-0.26,0
			c0-0.09,0-0.17,0-0.26C5.557,170.529,3.227,170.529,0.896,170.529z"/>
		<path fill="#232034" d="M1.807,177.789c-0.31,0-0.61,0-0.91,0c0,2.25,0,4.49,0,6.74c2.42,0,4.83,0,7.26,0c0-2.25,0-4.49,0-6.74
			c-0.23,0-0.45,0-0.68,0c-1.07,0-2.12,0-3.18,0c-0.53,0-1.07,0-1.59,0C2.407,177.789,2.106,177.789,1.807,177.789z"/>
		<path fill="#232034" d="M1.807,184.789c-0.31,0-0.61,0-0.91,0c0,1.45,0,3.78,0,7c0.3,0,0.6,0,0.91,0c0.3,0,0.6,0,0.9,0
			c0.52,0,1.06,0,1.59,0c1.06,0,2.11,0,3.18,0c0.14,0,0.28,0,0.42,0c0-0.09,0-0.17,0-0.26c0.09,0,0.17,0,0.26,0
			c0-2.25,0-4.49,0-6.74c-0.23,0-0.45,0-0.68,0c-1.07,0-2.12,0-3.18,0c-0.53,0-1.07,0-1.59,0
			C2.407,184.789,2.106,184.789,1.807,184.789z"/>
		<path fill="#232034" d="M8.157,184.529c-2.43,0-4.84,0-7.26,0c0,0.08,0,0.17,0,0.26c0.3,0,0.6,0,0.91,0c0.3,0,0.6,0,0.9,0
			c0.52,0,1.06,0,1.59,0c1.06,0,2.11,0,3.18,0c0.23,0,0.45,0,0.68,0C8.157,184.699,8.157,184.619,8.157,184.529z"/>
		<path fill="#232034" d="M8.157,177.529c-2.43,0-4.84,0-7.26,0c0,0.09,0,0.17,0,0.26c0.3,0,0.6,0,0.91,0c0.3,0,0.6,0,0.9,0
			c0.52,0,1.06,0,1.59,0c1.06,0,2.11,0,3.18,0c0.23,0,0.45,0,0.68,0C8.157,177.699,8.157,177.619,8.157,177.529z"/>
		<path fill="#232034" d="M7.896,191.789c0,2.33,0,4.67,0,7c0.3,0,0.6,0,0.91,0c0.3,0,0.6,0,0.9,0c0.52,0,1.06,0,1.59,0
			c1.06,0,2.11,0,3.18,0c0.23,0,0.45,0,0.68,0c0-2.33,0-4.67,0-7c-0.09,0-0.17,0-0.26,0c0-0.09,0-0.17,0-0.26c-2.26,0-4.49,0-6.74,0
			c0,0.09,0,0.17,0,0.26C8.066,191.789,7.986,191.789,7.896,191.789z"/>
		<path fill="#232034" d="M7.896,191.529c0,0.09,0,0.17,0,0.26c0.09,0,0.17,0,0.26,0c0-0.09,0-0.17,0-0.26
			C8.066,191.529,7.986,191.529,7.896,191.529z"/>
		<path fill="#232034" d="M7.896,170.529c0,0.09,0,0.17,0,0.26c0.09,0,0.17,0,0.26,0c0-0.09,0-0.17,0-0.26
			C8.066,170.529,7.986,170.529,7.896,170.529z"/>
		<path fill="#232034" d="M7.896,163.529c0,2.33,0,4.67,0,7c0.09,0,0.17,0,0.26,0c0,0.09,0,0.17,0,0.26c0.21,0,0.43,0,0.65,0
			c0.3,0,0.6,0,0.9,0c0.52,0,1.06,0,1.59,0c1.06,0,2.11,0,3.18,0c0.14,0,0.28,0,0.42,0c0-2.42,0-4.84,0-7.26
			C12.557,163.529,10.227,163.529,7.896,163.529z"/>
		<path fill="#C3CAD1" d="M8.157,170.789c0,2.25,0,4.49,0,6.74c0,0.09,0,0.17,0,0.26c0,2.25,0,4.49,0,6.74c0,0.09,0,0.17,0,0.26
			c0,2.25,0,4.49,0,6.74c2.25,0,4.48,0,6.74,0c0-2.25,0-4.49,0-6.74c0-0.09,0-0.17,0-0.26c0-2.33,0-4.67,0-7c2.42,0,4.83,0,7.26,0
			c0,2.33,0,4.67,0,7c0,0.09,0,0.17,0,0.26c0,2.25,0,4.49,0,6.74c2.25,0,4.48,0,6.74,0c0-2.25,0-4.49,0-6.74c0-0.08,0-0.17,0-0.26
			c0-1.45,0-3.78,0-7c2.42,0,4.83,0,7.26,0c0,2.33,0,4.67,0,7c0,0.09,0,0.17,0,0.26c0,2.25,0,4.49,0,6.74c2.25,0,4.48,0,6.74,0
			c0-2.25,0-4.49,0-6.74c0-0.09,0-0.17,0-0.26c0-2.25,0-4.49,0-6.74c0-0.09,0-0.17,0-0.26c0-2.25,0-4.49,0-6.74
			c-0.14,0-0.28,0-0.42,0c-1.07,0-2.12,0-3.18,0c-0.53,0-1.07,0-1.59,0c-0.3,0-0.6,0-0.9,0c-0.22,0-0.44,0-0.65,0
			c-0.09,0-0.17,0-0.26,0c-0.14,0-0.28,0-0.42,0c-1.07,0-2.12,0-3.18,0c-0.53,0-1.07,0-1.59,0c-0.3,0-0.6,0-0.9,0
			c-0.22,0-0.44,0-0.65,0c-0.09,0-0.17,0-0.26,0c-0.14,0-0.28,0-0.42,0c-1.07,0-2.12,0-3.18,0c-0.53,0-1.07,0-1.59,0
			c-0.3,0-0.6,0-0.9,0c-0.22,0-0.44,0-0.65,0c-0.09,0-0.17,0-0.26,0c-0.14,0-0.28,0-0.42,0c-1.07,0-2.12,0-3.18,0
			c-0.53,0-1.07,0-1.59,0c-0.3,0-0.6,0-0.9,0c-0.22,0-0.44,0-0.65,0c-0.09,0-0.17,0-0.26,0c-0.14,0-0.28,0-0.42,0
			c-1.07,0-2.12,0-3.18,0c-0.53,0-1.07,0-1.59,0c-0.3,0-0.6,0-0.9,0C8.586,170.789,8.367,170.789,8.157,170.789z"/>
		<path fill="#232034" d="M14.896,191.529c0,0.09,0,0.17,0,0.26c0.09,0,0.17,0,0.26,0c0-0.09,0-0.17,0-0.26
			C15.066,191.529,14.986,191.529,14.896,191.529z"/>
		<path fill="#232034" d="M14.896,177.529c0,2.33,0,4.67,0,7c2.42,0,4.83,0,7.26,0c0-2.33,0-4.67,0-7
			C19.727,177.529,17.316,177.529,14.896,177.529z"/>
		<path fill="#232034" d="M14.896,163.529c0,2.42,0,4.84,0,7.26c0.09,0,0.17,0,0.26,0c0-2.42,0-4.84,0-7.26
			C15.066,163.529,14.986,163.529,14.896,163.529z"/>
		<path fill="#232034" d="M14.896,184.789c0,2.25,0,4.49,0,6.74c0.09,0,0.17,0,0.26,0c0,0.09,0,0.17,0,0.26c0.21,0,0.43,0,0.65,0
			c0.3,0,0.6,0,0.9,0c0.52,0,1.06,0,1.59,0c1.06,0,2.11,0,3.18,0c0.14,0,0.28,0,0.42,0c0-0.09,0-0.17,0-0.26c0.09,0,0.17,0,0.26,0
			c0-2.25,0-4.49,0-6.74c-0.23,0-0.45,0-0.68,0c-1.07,0-2.12,0-3.18,0c-0.53,0-1.07,0-1.59,0c-0.3,0-0.6,0-0.9,0
			C15.497,184.789,15.197,184.789,14.896,184.789z"/>
		<path fill="#232034" d="M15.157,163.529c0,2.42,0,4.84,0,7.26c0.21,0,0.43,0,0.65,0c0.3,0,0.6,0,0.9,0c0.52,0,1.06,0,1.59,0
			c1.06,0,2.11,0,3.18,0c0.14,0,0.28,0,0.42,0c0-2.42,0-4.84,0-7.26C19.637,163.529,17.407,163.529,15.157,163.529z"/>
		<path fill="#232034" d="M22.157,184.529c-2.43,0-4.84,0-7.26,0c0,0.09,0,0.17,0,0.26c0.3,0,0.6,0,0.91,0c0.3,0,0.6,0,0.9,0
			c0.52,0,1.06,0,1.59,0c1.06,0,2.11,0,3.18,0c0.23,0,0.45,0,0.68,0C22.157,184.699,22.157,184.619,22.157,184.529z"/>
		<path fill="#232034" d="M21.896,191.789c0,2.33,0,4.67,0,7c0.3,0,0.6,0,0.91,0c0.3,0,0.6,0,0.9,0c0.52,0,1.06,0,1.59,0
			c1.06,0,2.11,0,3.18,0c0.23,0,0.45,0,0.68,0c0-2.33,0-4.67,0-7c-0.09,0-0.17,0-0.26,0c0-0.09,0-0.17,0-0.26c-2.26,0-4.49,0-6.74,0
			c0,0.09,0,0.17,0,0.26C22.066,191.789,21.986,191.789,21.896,191.789z"/>
		<path fill="#232034" d="M21.896,191.529c0,0.09,0,0.17,0,0.26c0.09,0,0.17,0,0.26,0c0-0.09,0-0.17,0-0.26
			C22.066,191.529,21.986,191.529,21.896,191.529z"/>
		<path fill="#232034" d="M21.896,163.529c0,2.42,0,4.84,0,7.26c0.09,0,0.17,0,0.26,0c0-2.42,0-4.84,0-7.26
			C22.066,163.529,21.986,163.529,21.896,163.529z"/>
		<path fill="#232034" d="M22.157,163.529c0,2.42,0,4.84,0,7.26c0.21,0,0.43,0,0.65,0c0.3,0,0.6,0,0.9,0c0.52,0,1.06,0,1.59,0
			c1.06,0,2.11,0,3.18,0c0.14,0,0.28,0,0.42,0c0-2.42,0-4.84,0-7.26C26.637,163.529,24.407,163.529,22.157,163.529z"/>
		<path fill="#232034" d="M28.896,191.529c0,0.09,0,0.17,0,0.26c0.09,0,0.17,0,0.26,0c0-0.09,0-0.17,0-0.26
			C29.066,191.529,28.986,191.529,28.896,191.529z"/>
		<path fill="#232034" d="M28.896,177.529c0,3.22,0,5.55,0,7c2.42,0,4.83,0,7.26,0c0-2.33,0-4.67,0-7
			C33.727,177.529,31.316,177.529,28.896,177.529z"/>
		<path fill="#232034" d="M28.896,163.529c0,2.42,0,4.84,0,7.26c0.09,0,0.17,0,0.26,0c0-2.42,0-4.84,0-7.26
			C29.066,163.529,28.986,163.529,28.896,163.529z"/>
		<path fill="#232034" d="M28.896,184.789c0,2.25,0,4.49,0,6.74c0.09,0,0.17,0,0.26,0c0,0.09,0,0.17,0,0.26c0.21,0,0.43,0,0.65,0
			c0.3,0,0.6,0,0.9,0c0.52,0,1.06,0,1.59,0c1.06,0,2.11,0,3.18,0c0.14,0,0.28,0,0.42,0c0-0.09,0-0.17,0-0.26c0.09,0,0.17,0,0.26,0
			c0-2.25,0-4.49,0-6.74c-0.23,0-0.45,0-0.68,0c-1.07,0-2.12,0-3.18,0c-0.53,0-1.07,0-1.59,0c-0.3,0-0.6,0-0.9,0
			C29.497,184.789,29.197,184.789,28.896,184.789z"/>
		<path fill="#232034" d="M29.157,163.529c0,2.42,0,4.84,0,7.26c0.21,0,0.43,0,0.65,0c0.3,0,0.6,0,0.9,0c0.52,0,1.06,0,1.59,0
			c1.06,0,2.11,0,3.18,0c0.14,0,0.28,0,0.42,0c0-2.42,0-4.84,0-7.26C33.637,163.529,31.407,163.529,29.157,163.529z"/>
		<path fill="#232034" d="M36.157,184.529c-2.43,0-4.84,0-7.26,0c0,0.09,0,0.18,0,0.26c0.3,0,0.6,0,0.91,0c0.3,0,0.6,0,0.9,0
			c0.52,0,1.06,0,1.59,0c1.06,0,2.11,0,3.18,0c0.23,0,0.45,0,0.68,0C36.157,184.699,36.157,184.619,36.157,184.529z"/>
		<path fill="#232034" d="M35.896,191.789c0,2.33,0,4.67,0,7c0.3,0,0.6,0,0.91,0c0.3,0,0.6,0,0.9,0c0.52,0,1.06,0,1.59,0
			c1.06,0,2.11,0,3.18,0c0.23,0,0.45,0,0.68,0c0-2.33,0-4.67,0-7c-0.09,0-0.17,0-0.26,0c0-0.09,0-0.17,0-0.26c-2.26,0-4.49,0-6.74,0
			c0,0.09,0,0.17,0,0.26C36.066,191.789,35.986,191.789,35.896,191.789z"/>
		<path fill="#232034" d="M35.896,191.529c0,0.09,0,0.17,0,0.26c0.09,0,0.17,0,0.26,0c0-0.09,0-0.17,0-0.26
			C36.066,191.529,35.986,191.529,35.896,191.529z"/>
		<path fill="#232034" d="M35.896,163.529c0,2.42,0,4.84,0,7.26c0.09,0,0.17,0,0.26,0c0-2.42,0-4.84,0-7.26
			C36.066,163.529,35.986,163.529,35.896,163.529z"/>
		<path fill="#232034" d="M36.157,163.529c0,2.42,0,4.84,0,7.26c0.21,0,0.43,0,0.65,0c0.3,0,0.6,0,0.9,0c0.52,0,1.06,0,1.59,0
			c1.06,0,2.11,0,3.18,0c0.14,0,0.28,0,0.42,0c0-0.09,0-0.17,0-0.26c0.09,0,0.17,0,0.26,0c0-2.33,0-4.67,0-7
			C40.816,163.529,38.486,163.529,36.157,163.529z"/>
		<path fill="#232034" d="M42.896,191.529c0,0.09,0,0.17,0,0.26c0.09,0,0.17,0,0.26,0c0-0.09,0-0.17,0-0.26
			C43.066,191.529,42.986,191.529,42.896,191.529z"/>
		<path fill="#232034" d="M42.896,170.789c0,2.25,0,4.49,0,6.74c2.42,0,4.83,0,7.26,0c0-2.33,0-4.67,0-7c-2.34,0-4.67,0-7,0
			c0,0.09,0,0.17,0,0.26C43.066,170.789,42.986,170.789,42.896,170.789z"/>
		<path fill="#232034" d="M42.896,170.529c0,0.09,0,0.17,0,0.26c0.09,0,0.17,0,0.26,0c0-0.09,0-0.17,0-0.26
			C43.066,170.529,42.986,170.529,42.896,170.529z"/>
		<path fill="#232034" d="M42.896,177.789c0,2.25,0,4.49,0,6.74c2.42,0,4.83,0,7.26,0c0-2.25,0-4.49,0-6.74c-0.23,0-0.45,0-0.68,0
			c-1.07,0-2.12,0-3.18,0c-0.53,0-1.07,0-1.59,0c-0.3,0-0.6,0-0.9,0C43.497,177.789,43.197,177.789,42.896,177.789z"/>
		<path fill="#232034" d="M42.896,184.789c0,2.25,0,4.49,0,6.74c0.09,0,0.17,0,0.26,0c0,0.09,0,0.17,0,0.26c0.21,0,0.43,0,0.65,0
			c0.3,0,0.6,0,0.9,0c0.52,0,1.06,0,1.59,0c1.06,0,2.11,0,3.18,0c0.23,0,0.45,0,0.68,0c0-2.33,0-4.67,0-7c-0.23,0-0.45,0-0.68,0
			c-1.07,0-2.12,0-3.18,0c-0.53,0-1.07,0-1.59,0c-0.3,0-0.6,0-0.9,0C43.497,184.789,43.197,184.789,42.896,184.789z"/>
		<path fill="#232034" d="M50.157,184.529c-2.43,0-4.84,0-7.26,0c0,0.09,0,0.17,0,0.26c0.3,0,0.6,0,0.91,0c0.3,0,0.6,0,0.9,0
			c0.52,0,1.06,0,1.59,0c1.06,0,2.11,0,3.18,0c0.23,0,0.45,0,0.68,0C50.157,184.699,50.157,184.619,50.157,184.529z"/>
		<path fill="#232034" d="M50.157,177.529c-2.43,0-4.84,0-7.26,0c0,0.09,0,0.17,0,0.26c0.3,0,0.6,0,0.91,0c0.3,0,0.6,0,0.9,0
			c0.52,0,1.06,0,1.59,0c1.06,0,2.11,0,3.18,0c0.23,0,0.45,0,0.68,0C50.157,177.699,50.157,177.619,50.157,177.529z"/>
	</g>
	<g>
	</g>
</g>
</svg>
