<?xml version="1.0" encoding="utf-8"?>
<!-- Generator: Adobe Illustrator 15.0.0, SVG Export Plug-In  -->
<!DOCTYPE svg PUBLIC "-//W3C//DTD SVG 1.1//EN" "http://www.w3.org/Graphics/SVG/1.1/DTD/svg11.dtd" [
	<!ENTITY ns_flows "http://ns.adobe.com/Flows/1.0/">
]>
<svg version="1.1"
	 xmlns="http://www.w3.org/2000/svg" xmlns:xlink="http://www.w3.org/1999/xlink" xmlns:a="http://ns.adobe.com/AdobeSVGViewerExtensions/3.0/"
	 x="0px" y="0px" width="300px" height="300px" viewBox="-48.266 -44 300 300" enable-background="new -48.266 -44 300 300"
	 xml:space="preserve">
<defs>
</defs>
<path fill="#73CEE0" d="M14.519,72.82c0,2.42,0,4.84,0,7.26c2.42,0,4.827,0,7.259,0c0-2.42,0-4.839,0-7.26
	C19.346,72.82,16.938,72.82,14.519,72.82z"/>
<path fill="#73CEE0" d="M21.777,65.561c0,2.42,0,4.839,0,7.259c2.421,0,4.84,0,7.26,0c0-2.42,0-4.839,0-7.259
	C26.617,65.561,24.198,65.561,21.777,65.561z"/>
<path fill="#73CEE0" d="M29.037,64.88c0,0.227,0,0.454,0,0.681c4.915,0,9.818,0,14.746,0c0-4.915,0-9.83,0-14.746
	c2.42,0,4.84,0,7.259,0c0-2.419,0-4.839,0-7.259c0.228,0,0.441,0,0.681,0c1.739,0,3.466,0,5.218,0c0.454,0,0.907,0,1.36,0
	c0.379,0,0.744,0,1.135,0c0.819,0,1.664,0,2.496,0c1.738,0,3.478,0,5.217,0c0.454,0,0.908,0,1.349,0c0.239,0,0.467,0,0.692,0
	c0.152,0,0.304,0,0.454,0c0.454,0,0.907,0,1.349,0c0.24,0,0.467,0,0.682,0c0.163,0,0.314,0,0.466,0c0.227,0,0.454,0,0.681,0
	c0-4.839,0-9.68,0-14.519c2.42,0,4.84,0,7.259,0c0-2.42,0-4.839,0-7.26c2.42,0,4.827,0,7.247,0c0-2.42,0-4.839,0-7.259
	c4.852,0,9.691,0,14.519,0c0,2.42,0,4.839,0,7.259c4.852,0,9.691,0,14.519,0c0-2.42,0-4.839,0-7.259c-2.407,0-4.827,0-7.247,0
	c0-2.419,0-4.839,0-7.259c-4.839,0-9.679,0-14.519,0c0-2.42,0-4.84,0-7.26c-4.839,0-9.691,0-14.519,0c0,2.42,0,4.839,0,7.26
	c-0.239,0-0.453,0-0.681,0c-1.134,0-2.268,0-3.415,0c-0.529,0-1.046,0-1.575,0c-0.605,0-1.21,0-1.814,0c-0.529,0-1.06,0-1.602,0
	c-0.604,0-1.209,0-1.803,0c-1.209,0-2.419,0-3.629,0c0,2.419,0,4.839,0,7.259c-0.239,0-0.453,0-0.681,0c-1.966,0-3.944,0-5.911,0
	c-0.213,0-0.44,0-0.668,0c0,4.839,0,9.68,0,14.519c2.42,0,4.84,0,7.26,0c0,2.419,0,4.839,0,7.259c-0.239,0-0.453,0-0.681,0
	c-1.134,0-2.269,0-3.403,0c-1.222,0-2.432,0-3.629,0c-1.21,0-2.42,0-3.63,0s-2.419,0-3.63,0c-0.529,0-1.07,0-1.6,0
	c-0.593,0-1.198,0-1.803,0c-1.21,0-2.42,0-3.63,0s-2.419,0-3.629,0s-2.421,0-3.643,0c0,2.42,0,4.84,0,7.26c-0.214,0-0.441,0-0.669,0
	c-1.965,0-3.932,0-5.897,0c-0.227,0-0.453,0-0.681,0c0,1.739,0,3.478,0,5.218c0,1.814,0,3.629,0,5.444c0,1.739,0,3.478,0,5.218
	C29.037,61.25,29.037,63.065,29.037,64.88z"/>
<path fill="#73CEE0" d="M36.284,123.635c0-2.42,0-4.839,0-7.26c-4.827,0-9.667,0-14.507,0c0-4.839,0-9.679,0-14.519
	c-2.432,0-4.839,0-7.259,0c0-7.259,0-14.519,0-21.777c-2.42,0-4.839,0-7.26,0c0,2.419,0,4.839,0,7.259c-0.227,0-0.453,0-0.68,0
	c-1.966,0-3.933,0-5.898,0c-0.239,0-0.453,0-0.681,0c0,4.84,0,9.68,0,14.519c2.42,0,4.827,0,7.259,0c0,0.228,0,0.454,0,0.681
	c0,4.613,0,9.226,0,13.838c2.421,0,4.84,0,7.26,0c0,2.421,0,4.84,0,7.26c4.827,0,9.68,0,14.519,0c0,3.63,0,7.259,0,10.889
	s0,7.26,0,10.889c2.42,0,4.827,0,7.247,0c0,0.228,0,0.454,0,0.681c0,2.042,0,4.084,0,6.125c0,0.228,0,0.454,0,0.681
	c4.928,0,9.843,0,14.758,0c0,2.42,0,4.84,0,7.26c2.42,0,4.827,0,7.259,0c0,0.227,0,0.453,0,0.681c0,0.982,0,1.966,0,2.949
	c0,0.453,0,0.907,0,1.36c0,0.228,0,0.454,0,0.681c0,0.303,0,0.605,0,0.907c0,0.228,0,0.454,0,0.681c2.42,0,4.84,0,7.26,0
	c0,4.84,0,9.68,0,14.519c4.827,0,9.68,0,14.519,0c0,2.42,0,4.84,0,7.26c0.228,0,0.454,0,0.681,0s0.453,0,0.681,0
	c0.454,0,0.896,0,1.361,0c0.214,0,0.454,0,0.681,0s0.453,0,0.68,0c0.228,0,0.455,0,0.668,0c0.24,0,0.467,0,0.682,0
	c0.238,0,0.466,0,0.692,0c0.228,0,0.454,0,0.681,0c0.441,0,0.908,0,1.361,0c0.227,0,0.441,0,0.681,0c0.228,0,0.453,0,0.681,0
	c0.227,0,0.453,0,0.68,0c0.215,0,0.454,0,0.682,0c0.214,0,0.453,0,0.68,0s0.454,0,0.681,0c0.228,0,0.454,0,0.668,0
	c0.239,0,0.467,0,0.681,0c0.24,0,0.467,0,0.681,0c0.239,0,0.467,0,0.692,0c0.228,0,0.454,0,0.682,0c0.227,0,0.441,0,0.68,0
	c0.228,0,0.441,0,0.682,0c0.227,0,0.453,0,0.68,0s0.454,0,0.682,0c0.213,0,0.453,0,0.68,0c0.895,0,1.814,0,2.71,0
	c0,2.42,0,4.84,0,7.259c4.852,0,9.691,0,14.519,0c0-2.419,0-4.839,0-7.259c-2.407,0-4.827,0-7.247,0c0-2.42,0-4.84,0-7.26
	c-2.42,0-4.839,0-7.271,0c0-2.42,0-4.839,0-7.259c-2.407,0-4.827,0-7.247,0c0-2.42,0-4.839,0-7.26c-2.42,0-4.839,0-7.271,0
	c0,2.421,0,4.84,0,7.26c-2.42,0-4.827,0-7.247,0c0-2.42,0-4.839,0-7.26c-2.419,0-4.839,0-7.259,0c0-2.42,0-4.839,0-7.259
	c-2.433,0-4.84,0-7.26,0c0-2.42,0-4.84,0-7.26c-2.42,0-4.84,0-7.26,0c0-0.681,0-1.36,0-2.041c0-0.605,0-1.21,0-1.814
	c-0.012-0.605,0-1.211,0-1.815c0-0.605,0-1.21,0-1.815c0-2.419,0-4.839,0-7.259c-2.432,0-4.839,0-7.259,0c0-2.42,0-4.84,0-7.26
	c-2.419,0-4.839,0-7.259,0c0-2.419,0-4.839,0-7.259c-1.211,0-2.433,0-3.643,0c-0.605,0-1.197,0-1.803,0
	C37.646,123.635,36.965,123.635,36.284,123.635z"/>
<path fill="#D6EEF1" d="M43.783,87.338c0,9.68,0,19.358,0,29.037c2.42,0,4.84,0,7.259,0c0-9.679,0-19.357,0-29.037
	C48.623,87.338,46.203,87.338,43.783,87.338z"/>
<path fill="#232034" d="M51.042,116.375c0,2.421,0,4.84,0,7.26c2.42,0,4.827,0,7.259,0c0-4.839,0-9.68,0-14.519
	c0-2.42,0-4.84,0-7.26s0-4.839,0-7.259s0-4.84,0-7.26c-2.432,0-4.839,0-7.259,0C51.042,97.018,51.042,106.697,51.042,116.375z"/>
<path fill="#D6EEF1" d="M51.042,80.08c0,2.419,0,4.839,0,7.259c2.42,0,4.827,0,7.259,0c0-2.42,0-4.839,0-7.259
	C55.869,80.08,53.462,80.08,51.042,80.08z"/>
<path fill="#98D8DF" d="M145.64,29.038c0,2.419,0,4.839,0,7.259c4.84,0,9.68,0,14.519,0c0,9.755,0,19.509,0,29.264
	c-2.42,0-4.839,0-7.271,0c0,2.42,0,4.839,0,7.259c9.691,0,19.37,0,29.037,0c0,2.42,0,4.84,0,7.26c2.432,0,4.853,0,7.271,0
	c0,4.839,0,9.679,0,14.519c-2.419,0-4.84,0-7.271,0c0,0.227,0,0.453,0,0.681c0,0.151,0,0.302,0,0.453c0,0.228,0,0.454,0,0.681
	c0,0.454,0,0.908,0,1.361c0,0.151,0,0.302,0,0.453c0,0.228,0,0.454,0,0.681c0,0.454,0,0.908,0,1.361c0,1.739,0,3.479,0,5.218
	c0,0.151,0,0.303,0,0.454c0,0.227,0,0.453,0,0.681c0,0.453,0,0.906,0,1.361c0,0.15,0,0.302,0,0.453c0,0.227,0,0.453,0,0.681
	c0,0.453,0,0.907,0,1.361c0,1.739,0,3.478,0,5.217c0,0.228,0,0.454,0,0.681c2.432,0,4.853,0,7.271,0c0,2.421,0,4.84,0,7.26
	c-2.419,0-4.84,0-7.271,0c0,4.613,0,9.226,0,13.838c0,0.228,0,0.454,0,0.681c2.432,0,4.853,0,7.271,0c0,2.42,0,4.84,0,7.259
	c0,1.21,0,2.42,0,3.631c0,0.604,0,1.209,0,1.814c0,0.681,0,1.36,0,2.041c-2.419,0-4.84,0-7.271,0c0,2.42,0,4.84,0,7.26
	c-2.407,0-4.827,0-7.247,0c0,2.42,0,4.839,0,7.259c-2.42,0-4.84,0-7.271,0c0,2.421,0,4.84,0,7.26c-2.407,0-4.827,0-7.247,0
	c0,2.42,0,4.839,0,7.259c-2.42,0-4.839,0-7.271,0c0,4.84,0,9.68,0,14.519c-2.407,0-4.827,0-7.247,0c0,2.42,0,4.84,0,7.26
	c-4.839,0-9.691,0-14.519,0c0-2.42,0-4.84,0-7.26c-0.076,0-0.151,0-0.239,0c-0.29,0-0.605,0-0.895,0c-0.303,0-0.605,0-0.908,0
	c-0.604,0-1.21,0-1.814,0c-1.21,0-2.42,0-3.63,0s-2.42,0-3.629,0c-1.211,0-2.433,0-3.643,0c0-2.419,0-4.839,0-7.259
	c-2.407,0-4.827,0-7.247,0c0-2.42,0-4.84,0-7.26c-2.42,0-4.839,0-7.271,0c0-2.42,0-4.839,0-7.259c-2.407,0-4.827,0-7.247,0
	c0-2.42,0-4.839,0-7.26c-2.42,0-4.839,0-7.271,0c0,2.421,0,4.84,0,7.26c-2.42,0-4.827,0-7.247,0c0-2.42,0-4.839,0-7.26
	c-2.419,0-4.839,0-7.259,0c0-2.42,0-4.839,0-7.259c0.743,0,1.512,0,2.268,0c0.152,0,0.291,0,0.454,0c0.228,0,0.441,0,0.681,0
	c0.151,0,0.303,0,0.441,0c0.239,0,0.467,0,0.681,0c0.163,0,0.315,0,0.466,0c0.227,0,0.454,0,0.681,0c0.151,0,0.303,0,0.454,0
	c0.214,0,0.453,0,0.681,0c0.138,0,0.302,0,0.453,0c0.228,0,0.454,0,0.681,0c0.151,0,0.29,0,0.453,0c0.228,0,0.441,0,0.682,0
	c0.15,0,0.303,0,0.441,0c0.238,0,0.466,0,0.68,0c0.164,0,0.315,0,0.467,0c0.227,0,0.453,0,0.68,0c0.151,0,0.303,0,0.455,0
	c0.213,0,0.453,0,0.68,0c0.139,0,0.303,0,0.453,0c0.228,0,0.454,0,0.682,0c0.15,0,0.289,0,0.453,0c0.227,0,0.441,0,0.681,0
	c0.151,0,0.303,0,0.441,0c0.239,0,0.466,0,0.681,0c0.164,0,0.314,0,0.467,0c0.226,0,0.453,0,0.68,0c0.15,0,0.303,0,0.453,0
	c0.215,0,0.454,0,0.682,0c0.139,0,0.302,0,0.453,0c0.227,0,0.453,0,0.681,0c0.151,0,0.29,0,0.454,0c0.227,0,0.44,0,0.68,0
	c0.152,0,0.303,0,0.441,0c0.24,0,0.467,0,0.681,0c0.164,0,0.315,0,0.467,0c0.226,0,0.453,0,0.68,0c0.151,0,0.303,0,0.454,0
	c0.215,0,0.453,0,0.681,0c0.139,0,0.302,0,0.454,0c0.227,0,0.453,0,0.68,0c0.152,0,0.291,0,0.454,0c0.228,0,0.44,0,0.681,0
	c0.151,0,0.303,0,0.441,0c0.239,0,0.467,0,0.68,0c0.164,0,0.315,0,0.467,0c0.227,0,0.453,0,0.68,0c0.151,0,0.303,0,0.454,0
	c0.214,0,0.454,0,0.681,0c0.139,0,0.302,0,0.454,0c0.227,0,0.453,0,0.681,0c0.151,0,0.289,0,0.453,0c0.228,0,0.441,0,0.681,0
	c0.151,0,0.303,0,0.441,0c0.239,0,0.467,0,0.681,0c0.163,0,0.314,0,0.466,0c0.227,0,0.454,0,0.681,0c0.151,0,0.303,0,0.454,0
	c0.214,0,0.453,0,0.681,0c0.139,0,0.302,0,0.453,0c0.228,0,0.454,0,0.681,0c0-2.42,0-4.84,0-7.26c2.42,0,4.84,0,7.247,0
	c0-0.604,0-1.21,0-1.814c0-0.605,0-1.21,0-1.815c0-0.604,0-1.209,0-1.814c0-0.681,0-1.361,0-2.042c2.432,0,4.852,0,7.271,0
	c0-0.227,0-0.453,0-0.681c0-0.227,0-0.453,0-0.681c0-0.226,0-0.453,0-0.68s0-0.454,0-0.681s0-0.454,0-0.681s0-0.454,0-0.681
	s0-0.454,0-0.681s0-0.453,0-0.681c0-0.227,0-0.453,0-0.681c0-0.227,0-0.453,0-0.68c0-0.228,0-0.454,0-0.681s0-0.454,0-0.681
	s0-0.454,0-0.681s0-0.454,0-0.681s0-0.454,0-0.681s0-0.454,0-0.681s0-0.454,0-0.68c0-0.228,0-0.455,0-0.681c0-0.228,0-0.454,0-0.681
	c0-0.228,0-0.454,0-0.681c0-0.228,0-0.454,0-0.681c0-0.228,0-0.454,0-0.681c0-0.228,0-0.454,0-0.681c0-0.228,0-0.454,0-0.681
	s0-0.454,0-0.681s0-0.453,0-0.681c0-0.227,0-0.453,0-0.681c0-0.227,0-0.453,0-0.68c0-0.908,0-1.815,0-2.723c1.21,0,2.42,0,3.63,0
	c0.604,0,1.21,0,1.814,0c0.681,0,1.361,0,2.042,0c0-2.42,0-4.839,0-7.26c2.42,0,4.827,0,7.247,0c0-2.42,0-4.839,0-7.259
	c2.433,0,4.852,0,7.271,0c0,2.42,0,4.839,0,7.259c2.42,0,4.84,0,7.247,0c0,2.421,0,4.84,0,7.26c-2.407,0-4.827,0-7.247,0
	c0,4.84,0,9.679,0,14.519c4.84,0,9.68,0,14.519,0c0,2.42,0,4.84,0,7.259c2.42,0,4.84,0,7.247,0c0-2.419,0-4.839,0-7.259
	c2.432,0,4.852,0,7.271,0c0-4.84,0-9.679,0-14.519c-2.42,0-4.84,0-7.271,0c0-2.42,0-4.839,0-7.26c2.432,0,4.852,0,7.271,0
	c0-7.259,0-14.519,0-21.777c-4.84,0-9.679,0-14.519,0c0-2.42,0-4.84,0-7.26c-4.839,0-9.679,0-14.519,0c0-2.42,0-4.839,0-7.259
	c0-2.42,0-4.839,0-7.26c-2.42,0-4.839,0-7.271,0c-2.42,0-4.827,0-7.247,0c0-2.42,0-4.839,0-7.259c2.42,0,4.827,0,7.247,0
	c0-4.915,0-9.83,0-14.746c-2.42,0-4.827,0-7.247,0c0-2.419,0-4.839,0-7.259c-0.239,0-0.453,0-0.681,0c-0.164,0-0.303,0-0.453,0
	c-0.303,0-0.605,0-0.908,0c-0.604,0-1.21,0-1.814,0c-1.21,0-2.42,0-3.63,0s-2.42,0-3.629,0c-1.211,0-2.433,0-3.643,0
	c0,4.915,0,9.83,0,14.746c-0.139,0-0.29,0-0.441,0c-0.239,0-0.453,0-0.681,0c-0.164,0-0.302,0-0.453,0c-0.228,0-0.454,0-0.681,0
	c-0.151,0-0.315,0-0.454,0c-0.227,0-0.466,0-0.681,0c-0.151,0-0.303,0-0.454,0c-0.227,0-0.453,0-0.68,0c-0.151,0-0.303,0-0.467,0
	c-0.214,0-0.441,0-0.681,0c-0.138,0-0.29,0-0.441,0c-0.239,0-0.453,0-0.68,0c-0.164,0-0.303,0-0.454,0c-0.227,0-0.453,0-0.681,0
	c-0.151,0-0.314,0-0.453,0c-0.228,0-0.467,0-0.681,0c-0.151,0-0.303,0-0.454,0c-0.227,0-0.454,0-0.681,0c-0.151,0-0.303,0-0.466,0
	c-0.214,0-0.441,0-0.681,0c-0.139,0-0.29,0-0.441,0c-0.239,0-0.453,0-0.681,0c-0.164,0-0.302,0-0.453,0c-0.228,0-0.454,0-0.681,0
	c-0.151,0-0.315,0-0.454,0c-0.227,0-0.466,0-0.681,0c-0.151,0-0.303,0-0.454,0c-0.227,0-0.454,0-0.68,0c-0.151,0-0.303,0-0.467,0
	c-0.213,0-0.44,0-0.68,0c-0.139,0-0.29,0-0.441,0c-0.24,0-0.453,0-0.681,0c-0.163,0-0.302,0-0.454,0c-0.227,0-0.453,0-0.68,0
	c-0.152,0-0.315,0-0.454,0c-0.228,0-0.466,0-0.681,0c-0.151,0-0.303,0-0.454,0c-0.227,0-0.454,0-0.68,0c-0.151,0-0.303,0-0.467,0
	c-0.214,0-0.44,0-0.681,0c-0.139,0-0.289,0-0.441,0c-0.239,0-0.453,0-0.68,0c-0.164,0-0.303,0-0.454,0c-0.228,0-0.454,0-0.681,0
	c-0.151,0-0.314,0-0.453,0c-0.228,0-0.467,0-0.682,0c-0.15,0-0.303,0-0.453,0c-0.227,0-0.454,0-0.68,0c-0.152,0-0.303,0-0.467,0
	c-0.215,0-0.441,0-0.681,0c-0.139,0-0.29,0-0.441,0c-0.239,0-0.454,0-0.681,0c-0.164,0-0.303,0-0.453,0c-0.228,0-0.454,0-0.682,0
	c-0.15,0-0.314,0-0.453,0c-0.227,0-0.467,0-0.68,0c-0.152,0-0.304,0-0.455,0c-0.227,0-0.453,0-0.68,0c-0.151,0-0.303,0-0.467,0
	c-0.214,0-0.441,0-0.68,0c-0.139,0-0.291,0-0.441,0c-0.24,0-0.454,0-0.682,0c-0.163,0-0.302,0-0.453,0c-0.227,0-0.453,0-0.681,0
	c0,2.419,0,4.839,0,7.259c-4.839,0-9.691,0-14.519,0c0,2.42,0,4.839,0,7.259c-2.42,0-4.84,0-7.26,0c0,2.42,0,4.84,0,7.26
	c-2.432,0-4.839,0-7.259,0c0,2.419,0,4.839,0,7.259c-2.419,0-4.839,0-7.259,0c0,9.68,0,19.358,0,29.037c2.42,0,4.84,0,7.259,0
	c0,2.421,0,4.84,0,7.26c2.42,0,4.827,0,7.259,0c0,2.42,0,4.84,0,7.259c2.42,0,4.84,0,7.26,0c0,2.42,0,4.84,0,7.26
	c-2.42,0-4.84,0-7.26,0c-2.432,0-4.839,0-7.259,0c0-2.42,0-4.84,0-7.26c-2.419,0-4.839,0-7.259,0c0-2.419,0-4.839,0-7.259
	c-1.211,0-2.433,0-3.643,0c-0.605,0-1.197,0-1.803,0c-0.692,0-1.373,0-2.054,0c0-2.42,0-4.839,0-7.26c-4.827,0-9.667,0-14.507,0
	c0-4.839,0-9.679,0-14.519c-2.432,0-4.839,0-7.259,0c0-7.259,0-14.519,0-21.777c2.42,0,4.827,0,7.259,0c0-2.42,0-4.839,0-7.26
	c2.421,0,4.84,0,7.26,0c0-2.42,0-4.839,0-7.259c4.915,0,9.818,0,14.746,0c0-4.915,0-9.83,0-14.746c2.42,0,4.84,0,7.259,0
	c0-2.419,0-4.839,0-7.259c0.228,0,0.441,0,0.681,0c1.739,0,3.466,0,5.218,0c0.454,0,0.907,0,1.36,0c0.379,0,0.744,0,1.135,0
	c0.819,0,1.664,0,2.496,0c1.738,0,3.478,0,5.217,0c0.454,0,0.908,0,1.349,0c0.239,0,0.467,0,0.692,0c0.152,0,0.304,0,0.454,0
	c0.454,0,0.907,0,1.349,0c0.24,0,0.467,0,0.682,0c0.163,0,0.314,0,0.466,0c0.227,0,0.454,0,0.681,0c0-4.839,0-9.68,0-14.519
	c2.42,0,4.84,0,7.259,0c0-2.42,0-4.839,0-7.26c2.42,0,4.827,0,7.247,0c0-2.42,0-4.839,0-7.259c4.852,0,9.691,0,14.519,0
	c0,2.42,0,4.839,0,7.259c4.852,0,9.691,0,14.519,0c0,2.42,0,4.84,0,7.26c0.681,0,1.373,0,2.054,0c0.605,0,1.21,0,1.814,0
	c1.198,0,2.408,0,3.63,0c1.211,0,2.42,0,3.63,0s2.42,0,3.63,0s2.42,0,3.63,0c1.197,0,2.407,0,3.617,0c1.222,0,2.433,0,3.642,0
	C143.22,29.038,144.43,29.038,145.64,29.038z M138.368,167.417c0-4.612,0-9.225,0-13.838c0-0.227,0-0.453,0-0.681
	c-0.063,0-0.139,0-0.215,0c-0.529,0-1.059,0-1.601,0c-0.29,0-0.604,0-0.895,0c-0.227,0-0.454,0-0.681,0c-1.059,0-2.117,0-3.176,0
	c-0.228,0-0.454,0-0.681,0c0,4.84,0,9.68,0,14.519C133.541,167.417,135.948,167.417,138.368,167.417z"/>
<path fill="#98D8DF" d="M58.301,152.899c2.42,0,4.84,0,7.26,0c0-1.21,0-2.42,0-3.63c0-0.604,0-1.209,0-1.814
	c0-0.681,0-1.361,0-2.042c-2.42,0-4.84,0-7.26,0c0,0.605,0,1.21,0,1.815c0,0.604-0.012,1.21,0,1.815c0,0.604,0,1.209,0,1.814
	C58.301,151.539,58.301,152.218,58.301,152.899z"/>
<path fill="#232034" d="M58.301,138.154c0,2.42,0,4.84,0,7.259c2.42,0,4.84,0,7.26,0c0-2.419,0-4.839,0-7.259
	C63.141,138.154,60.721,138.154,58.301,138.154z"/>
<path fill="#232034" d="M58.301,123.635c0,2.42,0,4.84,0,7.259c2.42,0,4.84,0,7.26,0c0-2.419,0-4.839,0-7.259
	C63.141,123.635,60.721,123.635,58.301,123.635z"/>
<path fill="#FFFFFF" d="M58.301,101.857c0,2.42,0,4.84,0,7.26c2.42,0,4.84,0,7.26,0c0-2.42,0-4.84,0-7.26
	C63.141,101.857,60.721,101.857,58.301,101.857z"/>
<path fill="#010101" d="M58.301,94.598c0,2.42,0,4.839,0,7.259c2.42,0,4.84,0,7.26,0c0,2.42,0,4.84,0,7.26c2.42,0,4.827,0,7.26,0
	c0-4.84,0-9.68,0-14.519c-2.433,0-4.84,0-7.26,0S60.721,94.598,58.301,94.598z"/>
<path fill="#353635" d="M58.301,87.338c0,2.42,0,4.84,0,7.26c2.42,0,4.84,0,7.26,0c0-2.42,0-4.84,0-7.26
	C63.141,87.338,60.721,87.338,58.301,87.338z"/>
<path fill="#232034" d="M58.301,80.08c0,2.419,0,4.839,0,7.259c2.42,0,4.84,0,7.26,0c0-2.42,0-4.839,0-7.259c0-2.42,0-4.839,0-7.26
	c-2.42,0-4.84,0-7.26,0C58.301,75.24,58.301,77.66,58.301,80.08z"/>
<path fill="#98D8DF" d="M65.561,152.899c0,2.42,0,4.84,0,7.26c2.42,0,4.827,0,7.26,0c0-2.42,0-4.84,0-7.26
	C70.388,152.899,67.98,152.899,65.561,152.899z"/>
<path fill="#232034" d="M65.561,152.899c2.42,0,4.827,0,7.26,0c0-0.604,0-1.21,0-1.814c0-0.605,0-1.21,0-1.815
	c0-0.604,0-1.209,0-1.814c0-0.681,0-1.361,0-2.042c-2.433,0-4.84,0-7.26,0c0,0.681,0,1.361,0,2.042c0,0.605,0,1.21,0,1.814
	C65.561,150.479,65.561,151.689,65.561,152.899z"/>
<path fill="#5E5F5F" d="M65.561,138.154c0,2.42,0,4.84,0,7.259c2.42,0,4.827,0,7.26,0c0-2.419,0-4.839,0-7.259
	C70.388,138.154,67.98,138.154,65.561,138.154z"/>
<path fill="#232034" d="M65.561,130.894c0,2.42,0,4.84,0,7.26c2.42,0,4.827,0,7.26,0c0-2.42,0-4.84,0-7.26
	C70.388,130.894,67.98,130.894,65.561,130.894z"/>
<path fill="#010101" d="M65.561,123.635c0,2.42,0,4.84,0,7.259c2.42,0,4.827,0,7.26,0c0-2.419,0-4.839,0-7.259
	C70.388,123.635,67.98,123.635,65.561,123.635z"/>
<path fill="#353635" d="M65.561,72.82c0,2.42,0,4.84,0,7.26c2.42,0,4.827,0,7.26,0c0-2.42,0-4.839,0-7.26
	C70.388,72.82,67.98,72.82,65.561,72.82z"/>
<path fill="#232034" d="M65.561,65.561c0,2.42,0,4.839,0,7.259c2.42,0,4.827,0,7.26,0c2.42,0,4.84,0,7.259,0c0-2.42,0-4.839,0-7.259
	C75.24,65.561,70.388,65.561,65.561,65.561z"/>
<path fill="#232034" d="M72.82,152.899c0,2.42,0,4.84,0,7.26c0.743,0,1.512,0,2.268,0c0.152,0,0.291,0,0.454,0
	c0.228,0,0.441,0,0.681,0c0.151,0,0.303,0,0.441,0c0.239,0,0.467,0,0.681,0c0.163,0,0.315,0,0.466,0c0.227,0,0.454,0,0.681,0
	c0.151,0,0.303,0,0.454,0c0.214,0,0.453,0,0.681,0c0.138,0,0.302,0,0.453,0c0.228,0,0.454,0,0.681,0c0.151,0,0.29,0,0.453,0
	c0.228,0,0.441,0,0.682,0c0.15,0,0.303,0,0.441,0c0.238,0,0.466,0,0.68,0c0.164,0,0.315,0,0.467,0c0.227,0,0.453,0,0.68,0
	c0.151,0,0.303,0,0.455,0c0.213,0,0.453,0,0.68,0c0.139,0,0.303,0,0.453,0c0.228,0,0.454,0,0.682,0c0.15,0,0.289,0,0.453,0
	c0.227,0,0.441,0,0.681,0c0.151,0,0.303,0,0.441,0c0.239,0,0.466,0,0.681,0c0.164,0,0.314,0,0.467,0c0.226,0,0.453,0,0.68,0
	c0.15,0,0.303,0,0.453,0c0.215,0,0.454,0,0.682,0c0.139,0,0.302,0,0.453,0c0.227,0,0.453,0,0.681,0c0.151,0,0.29,0,0.454,0
	c0.227,0,0.44,0,0.68,0c0.152,0,0.303,0,0.441,0c0.24,0,0.467,0,0.681,0c0.164,0,0.315,0,0.467,0c0.226,0,0.453,0,0.68,0
	c0.151,0,0.303,0,0.454,0c0.215,0,0.453,0,0.681,0c0.139,0,0.302,0,0.454,0c0.227,0,0.453,0,0.68,0c0.152,0,0.291,0,0.454,0
	c0.228,0,0.44,0,0.681,0c0.151,0,0.303,0,0.441,0c0.239,0,0.467,0,0.68,0c0.164,0,0.315,0,0.467,0c0.227,0,0.453,0,0.68,0
	c0.151,0,0.303,0,0.454,0c0.214,0,0.454,0,0.681,0c0.139,0,0.302,0,0.454,0c0.227,0,0.453,0,0.681,0c0.151,0,0.289,0,0.453,0
	c0.228,0,0.441,0,0.681,0c0.151,0,0.303,0,0.441,0c0.239,0,0.467,0,0.681,0c0.163,0,0.314,0,0.466,0c0.227,0,0.454,0,0.681,0
	c0.151,0,0.303,0,0.454,0c0.214,0,0.453,0,0.681,0c0.139,0,0.302,0,0.453,0c0.228,0,0.454,0,0.681,0c0-2.42,0-4.84,0-7.26
	c-2.42,0-4.839,0-7.271,0C92.178,152.899,82.499,152.899,72.82,152.899z"/>
<path fill="#010101" d="M72.82,109.117c0,2.42,0,4.839,0,7.259c2.42,0,4.84,0,7.259,0c0-2.42,0-4.839,0-7.259
	C77.66,109.117,75.24,109.117,72.82,109.117z"/>
<path fill="#353635" d="M80.079,101.857c2.42,0,4.827,0,7.247,0c0-2.42,0-4.839,0-7.259c-2.42,0-4.827,0-7.247,0
	c0,0.302,0,0.604,0,0.907s0,0.605,0,0.907c0,0.529,0,1.059,0,1.589c0,1.058,0,2.116,0,3.175
	C80.079,101.404,80.079,101.63,80.079,101.857z"/>
<path fill="#353635" d="M80.079,65.561c0,2.42,0,4.839,0,7.259c2.42,0,4.827,0,7.247,0c0-2.42,0-4.839,0-7.259
	C84.906,65.561,82.499,65.561,80.079,65.561z"/>
<path fill="#232034" d="M97.094,58.302c-0.152,0-0.315,0-0.454,0c-0.228,0-0.466,0-0.681,0c-0.151,0-0.303,0-0.454,0
	c-0.227,0-0.454,0-0.68,0c-0.151,0-0.303,0-0.467,0c-0.214,0-0.44,0-0.681,0c-0.139,0-0.289,0-0.441,0c-0.239,0-0.453,0-0.68,0
	c-0.164,0-0.303,0-0.454,0c-0.228,0-0.454,0-0.681,0c-0.151,0-0.314,0-0.453,0c-0.228,0-0.467,0-0.682,0c-0.15,0-0.303,0-0.453,0
	c-0.227,0-0.454,0-0.68,0c-0.152,0-0.303,0-0.467,0c-0.215,0-0.441,0-0.681,0c-0.139,0-0.29,0-0.441,0c-0.239,0-0.454,0-0.681,0
	c-0.164,0-0.303,0-0.453,0c-0.228,0-0.454,0-0.682,0c-0.15,0-0.314,0-0.453,0c-0.227,0-0.467,0-0.68,0c-0.152,0-0.304,0-0.455,0
	c-0.227,0-0.453,0-0.68,0c-0.151,0-0.303,0-0.467,0c-0.214,0-0.441,0-0.68,0c-0.139,0-0.291,0-0.441,0c-0.24,0-0.454,0-0.682,0
	c-0.163,0-0.302,0-0.453,0c-0.227,0-0.453,0-0.681,0c0,2.419,0,4.839,0,7.259c2.42,0,4.827,0,7.247,0c9.691,0,19.37,0,29.037,0
	c2.432,0,4.852,0,7.271,0c0-2.419,0-4.839,0-7.259c-2.42,0-4.84,0-7.271,0c-0.139,0-0.29,0-0.441,0c-0.239,0-0.453,0-0.681,0
	c-0.164,0-0.302,0-0.453,0c-0.228,0-0.454,0-0.681,0c-0.151,0-0.315,0-0.454,0c-0.227,0-0.466,0-0.681,0c-0.151,0-0.303,0-0.454,0
	c-0.227,0-0.453,0-0.68,0c-0.151,0-0.303,0-0.467,0c-0.214,0-0.441,0-0.681,0c-0.138,0-0.29,0-0.441,0c-0.239,0-0.453,0-0.68,0
	c-0.164,0-0.303,0-0.454,0c-0.227,0-0.453,0-0.681,0c-0.151,0-0.314,0-0.453,0c-0.228,0-0.467,0-0.681,0c-0.151,0-0.303,0-0.454,0
	c-0.227,0-0.454,0-0.681,0c-0.151,0-0.303,0-0.466,0c-0.214,0-0.441,0-0.681,0c-0.139,0-0.29,0-0.441,0c-0.239,0-0.453,0-0.681,0
	c-0.164,0-0.302,0-0.453,0c-0.228,0-0.454,0-0.681,0c-0.151,0-0.315,0-0.454,0c-0.227,0-0.466,0-0.681,0c-0.151,0-0.303,0-0.454,0
	c-0.227,0-0.454,0-0.68,0c-0.151,0-0.303,0-0.467,0c-0.213,0-0.44,0-0.68,0c-0.139,0-0.29,0-0.441,0c-0.24,0-0.453,0-0.681,0
	c-0.163,0-0.302,0-0.454,0C97.547,58.302,97.32,58.302,97.094,58.302z"/>
<path fill="#010101" d="M83.256,123.635c-0.315,0-0.605,0-0.92,0c-0.518,0-1.047,0-1.576,0c-0.227,0-0.453,0-0.681,0
	c0,2.42,0,4.84,0,7.259c-2.419,0-4.839,0-7.259,0c0,2.42,0,4.84,0,7.26s0,4.84,0,7.259c0.15,0,0.303,0,0.453,0
	c0.215,0,0.454,0,0.682,0c0.453,0,0.906,0,1.359,0c0.908,0,1.816,0,2.723,0c0.152,0,0.303,0,0.454,0c0.228,0,0.454,0,0.668,0
	c0.467,0,0.92,0,1.374,0c0.907,0,1.803,0,2.723,0c0.15,0,0.289,0,0.453,0c0.227,0,0.453,0,0.681,0c0.44,0,0.907,0,1.36,0
	c0.908,0,1.815,0,2.723,0c1.814,0,3.63,0,5.445,0c0.227,0,0.44,0,0.68,0c0-2.419,0-4.839,0-7.259c4.84,0,9.68,0,14.519,0
	c0-2.42,0-4.84,0-7.26c-2.42,0-4.839,0-7.271,0c0-2.419,0-4.839,0-7.259c-2.407,0-4.827,0-7.247,0c0,2.42,0,4.84,0,7.259
	c-2.42,0-4.839,0-7.271,0c0-2.419,0-4.839,0-7.259c-0.063,0-0.139,0-0.215,0c-0.529,0-1.059,0-1.6,0c-0.518,0-1.047,0-1.576,0
	C83.709,123.635,83.482,123.635,83.256,123.635z"/>
<path fill="#FFFFFF" d="M87.326,101.857c0,2.42,0,4.84,0,7.26c2.433,0,4.852,0,7.271,0c0-2.42,0-4.84,0-7.26
	C92.178,101.857,89.759,101.857,87.326,101.857z"/>
<path fill="#010101" d="M97.547,94.598c-0.227,0-0.453,0-0.693,0c-0.441,0-0.895,0-1.349,0c-0.907,0-1.827,0-2.722,0
	c-1.814,0-3.629,0-5.457,0c0,2.42,0,4.839,0,7.259c2.433,0,4.852,0,7.271,0c0,2.42,0,4.84,0,7.26c2.42,0,4.84,0,7.247,0
	c0-2.42,0-4.84,0-7.26c2.433,0,4.852,0,7.271,0c0-2.42,0-4.839,0-7.259c-0.227,0-0.453,0-0.681,0c-0.151,0-0.314,0-0.453,0
	c-0.228,0-0.467,0-0.681,0c-0.454,0-0.908,0-1.361,0c-0.92,0-1.814,0-2.723,0c-0.151,0-0.302,0-0.453,0c-0.239,0-0.454,0-0.681,0
	c-0.454,0-0.908,0-1.361,0c-0.906,0-1.814,0-2.723,0C97.85,94.598,97.698,94.598,97.547,94.598z"/>
<path fill="#353635" d="M101.845,151.084c0,0.604,0,1.21,0,1.814c2.433,0,4.852,0,7.271,0c0-0.604,0-1.21,0-1.814
	c0-0.605,0-1.21,0-1.815c0-0.604,0-1.209,0-1.814c0-0.681,0-1.361,0-2.042c-2.42,0-4.839,0-7.271,0c0,0.076,0,0.151,0,0.228
	c0,0.302,0,0.604,0,0.907s0,0.605,0,0.907c0,0.605,0,1.21,0,1.814C101.857,149.875,101.845,150.479,101.845,151.084z"/>
<path fill="#232034" d="M109.116,152.899c2.42,0,4.84,0,7.247,0c0-0.604,0-1.21,0-1.814c0-0.605,0-1.21,0-1.815
	c0-0.604,0-1.209,0-1.814c0-0.681,0-1.361,0-2.042c-2.407,0-4.827,0-7.247,0c0,0.681,0,1.361,0,2.042c0,0.605,0,1.21,0,1.814
	c0,0.605,0,1.21,0,1.815C109.116,151.689,109.116,152.294,109.116,152.899z"/>
<path fill="#232034" d="M131.121,109.117c-1.21,0-2.42,0-3.63,0c-0.604,0-1.21,0-1.814,0c-0.681,0-1.361,0-2.042,0
	c0,2.42,0,4.839,0,7.259c-2.42,0-4.84,0-7.271,0c0,2.421,0,4.84,0,7.26c0,0.227,0,0.453,0,0.681c0,0.227,0,0.453,0,0.681
	c0,0.453,0,0.907,0,1.361c0,0.227,0,0.453,0,0.68c0,0.228,0,0.454,0,0.681c0,0.228,0,0.454,0,0.681s0,0.454,0,0.681s0,0.453,0,0.681
	c0,0.227,0,0.453,0,0.681c0,0.453,0,0.907,0,1.361c0,0.227,0,0.453,0,0.681c0,0.227,0,0.453,0,0.681c0,0.226,0,0.453,0,0.681
	c0,0.226,0,0.453,0,0.68s0,0.454,0,0.681s0,0.454,0,0.681c0,0.454,0,0.907,0,1.361c0,0.227,0,0.454,0,0.681s0,0.453,0,0.681
	c0,0.227,0,0.453,0,0.68c0,0.228,0,0.454,0,0.681c0,0.228,0,0.454,0,0.681s0,0.454,0,0.681c0,0.454,0,0.907,0,1.361
	c0,0.227,0,0.454,0,0.681s0,0.454,0,0.68c0,0.454,0,0.908,0,1.361c2.432,0,4.852,0,7.271,0c0-0.227,0-0.453,0-0.681
	c0-0.227,0-0.453,0-0.681c0-0.226,0-0.453,0-0.68s0-0.454,0-0.681s0-0.454,0-0.681s0-0.454,0-0.681s0-0.454,0-0.681s0-0.453,0-0.681
	c0-0.227,0-0.453,0-0.681c0-0.227,0-0.453,0-0.68c0-0.228,0-0.454,0-0.681s0-0.454,0-0.681s0-0.454,0-0.681s0-0.454,0-0.681
	s0-0.454,0-0.681s0-0.454,0-0.681s0-0.454,0-0.68c0-0.228,0-0.455,0-0.681c0-0.228,0-0.454,0-0.681c0-0.228,0-0.454,0-0.681
	c0-0.228,0-0.454,0-0.681c0-0.228,0-0.454,0-0.681c0-0.228,0-0.454,0-0.681c0-0.228,0-0.454,0-0.681s0-0.454,0-0.681
	s0-0.453,0-0.681c0-0.227,0-0.453,0-0.681c0-0.227,0-0.453,0-0.68c0-0.908,0-1.815,0-2.723c1.21,0,2.42,0,3.63,0
	c0.604,0,1.21,0,1.814,0c0.681,0,1.361,0,2.042,0c0-2.42,0-4.839,0-7.26c2.42,0,4.827,0,7.247,0c0-2.42,0-4.839,0-7.259
	c2.433,0,4.852,0,7.271,0c0-3.63,0-7.26,0-10.89c0-3.629,0-7.259,0-10.889c0-2.42,0-4.839,0-7.259c-2.42,0-4.839,0-7.271,0
	c0,3.629,0,7.259,0,10.889s0,7.259,0,10.889c-2.42,0-4.827,0-7.247,0C131.121,104.277,131.121,106.697,131.121,109.117z"/>
<path fill="#353635" d="M116.363,65.561c0,2.42,0,4.839,0,7.259c2.432,0,4.852,0,7.271,0c0-2.42,0-4.839,0-7.259
	C121.215,65.561,118.795,65.561,116.363,65.561z"/>
<path fill="#73CEE0" d="M116.363,21.778c0,2.42,0,4.84,0,7.26c0.681,0,1.373,0,2.054,0c0.605,0,1.21,0,1.814,0
	c1.198,0,2.408,0,3.63,0c1.211,0,2.42,0,3.63,0s2.42,0,3.63,0s2.42,0,3.63,0c1.197,0,2.407,0,3.617,0c1.222,0,2.433,0,3.642,0
	c1.21,0,2.42,0,3.63,0c0,2.419,0,4.839,0,7.259c4.84,0,9.68,0,14.519,0c0-4.839,0-9.679,0-14.519c-2.42,0-4.839,0-7.271,0
	c0-0.227,0-0.454,0-0.68c0-1.966,0-3.932,0-5.898c0-0.227,0-0.454,0-0.681c-1.815,0-3.617,0-5.433,0c-1.814,0-3.629,0-5.444,0
	c-1.814,0-3.642,0-5.457,0c-1.802,0-3.617,0-5.432,0c0,2.42,0,4.839,0,7.259c-0.151,0-0.315,0-0.453,0
	C125.903,21.778,121.14,21.778,116.363,21.778z"/>
<path fill="#D6EEF1" d="M129.079,43.556c-0.604,0-1.21,0-1.814,0c-1.21,0-2.42,0-3.63,0s-2.42,0-3.629,0c-1.211,0-2.433,0-3.643,0
	c0,4.915,0,9.83,0,14.746c2.432,0,4.852,0,7.271,0c0,2.419,0,4.839,0,7.259c0.681,0,1.361,0,2.042,0c0.604,0,1.21,0,1.814,0
	c1.21,0,2.42,0,3.63,0c2.42,0,4.827,0,7.247,0c0-4.915,0-9.83,0-14.746c-2.42,0-4.827,0-7.247,0c0-2.419,0-4.839,0-7.259
	c-0.239,0-0.453,0-0.681,0c-0.164,0-0.303,0-0.453,0C129.685,43.556,129.382,43.556,129.079,43.556z"/>
<path fill="#353635" d="M131.121,72.82c-1.21,0-2.42,0-3.63,0c-0.604,0-1.21,0-1.814,0c-0.681,0-1.361,0-2.042,0
	c0,4.84,0,9.679,0,14.519c0.076,0,0.151,0,0.227,0c0.303,0,0.605,0,0.908,0s0.604,0,0.907,0c0.604,0,1.21,0,1.814,0
	c1.21,0,2.42,0,3.63,0c0,2.42,0,4.84,0,7.26c-2.42,0-4.84,0-7.26,0c-1.222,0-2.432,0-3.63,0c-0.604,0-1.209,0-1.814,0
	c-0.681,0-1.373,0-2.054,0c0,2.42,0,4.839,0,7.259c-2.407,0-4.827,0-7.247,0s-4.839,0-7.271,0c0,2.42,0,4.84,0,7.26
	c2.433,0,4.852,0,7.271,0c0,4.839,0,9.68,0,14.519c2.42,0,4.84,0,7.247,0c0-2.42,0-4.839,0-7.26c2.432,0,4.852,0,7.271,0
	c0-2.42,0-4.839,0-7.259c0.681,0,1.361,0,2.042,0c0.604,0,1.21,0,1.814,0c1.21,0,2.42,0,3.63,0c0-2.42,0-4.84,0-7.26
	c2.42,0,4.827,0,7.247,0c0-3.63,0-7.259,0-10.889s0-7.259,0-10.889c-2.42,0-4.827,0-7.247,0
	C131.121,77.66,131.121,75.24,131.121,72.82z"/>
<path fill="#73CEE0" d="M129.079,196.455c-0.604,0-1.21,0-1.814,0c-1.21,0-2.42,0-3.63,0s-2.42,0-3.629,0c-1.211,0-2.433,0-3.643,0
	c0,2.42,0,4.84,0,7.26c2.432,0,4.852,0,7.271,0c0,0.227,0,0.454,0,0.681s0,0.454,0,0.681s0,0.453,0,0.681c0,0.227,0,0.453,0,0.68
	c0,0.303,0,0.605,0,0.908c0,0.227,0,0.453,0,0.681c0,0.227,0,0.453,0,0.681c0,0.529,0,1.059,0,1.587c0,0.228,0,0.454,0,0.681
	c0.227,0,0.454,0,0.681,0c0.214,0,0.454,0,0.681,0c0.454,0,0.907,0,1.36,0c0.228,0,0.454,0,0.669,0c0.239,0,0.466,0,0.681,0
	c0.466,0,0.92,0,1.373,0c0.228,0,0.454,0,0.681,0c0.228,0,0.441,0,0.681,0c0.441,0,0.907,0,1.361,0c0.895,0,1.814,0,2.723,0
	c0.227,0,0.453,0,0.68,0c0.228,0,0.454,0,0.668,0c0.467,0,0.92,0,1.374,0c0.227,0,0.453,0,0.681,0c0.227,0,0.441,0,0.681,0
	c0.441,0,0.907,0,1.361,0c0.227,0,0.453,0,0.681,0c0.226,0,0.453,0,0.68,0c0.454,0,0.896,0,1.361,0c0.454,0,0.907,0,1.349,0
	c0.542,0,1.071,0,1.601,0c0-2.419,0-4.839,0-7.259c-4.839,0-9.691,0-14.519,0c0-2.42,0-4.84,0-7.26c-0.076,0-0.151,0-0.239,0
	c-0.29,0-0.605,0-0.895,0C129.685,196.455,129.382,196.455,129.079,196.455z"/>
<path fill="#232034" d="M125.677,65.561c-0.681,0-1.361,0-2.042,0c0,2.42,0,4.839,0,7.259c0.681,0,1.361,0,2.042,0
	c0.604,0,1.21,0,1.814,0c1.21,0,2.42,0,3.63,0c0-2.42,0-4.839,0-7.259c-1.21,0-2.42,0-3.63,0
	C126.887,65.561,126.281,65.561,125.677,65.561z"/>
<path fill="#5E5F5F" d="M123.861,87.338c-0.075,0-0.15,0-0.227,0c0-4.839,0-9.679,0-14.519c-2.42,0-4.84,0-7.271,0
	c0-2.42,0-4.839,0-7.259c-9.667,0-19.346,0-29.037,0c0,2.42,0,4.839,0,7.259c-2.42,0-4.827,0-7.247,0c-2.419,0-4.839,0-7.259,0
	c0,2.42,0,4.84,0,7.26c-2.433,0-4.84,0-7.26,0c0,2.419,0,4.839,0,7.259s0,4.84,0,7.26c2.42,0,4.827,0,7.26,0
	c0,4.839,0,9.679,0,14.519c2.42,0,4.84,0,7.259,0c0,2.42,0,4.839,0,7.259c-2.419,0-4.839,0-7.259,0c0-2.42,0-4.839,0-7.259
	c-2.433,0-4.84,0-7.26,0s-4.84,0-7.26,0c0,4.839,0,9.68,0,14.519c2.42,0,4.84,0,7.26,0s4.827,0,7.26,0c0,2.42,0,4.84,0,7.259
	c2.42,0,4.84,0,7.259,0c0-2.419,0-4.839,0-7.259c0.228,0,0.454,0,0.681,0c0.529,0,1.059,0,1.576,0c0.314,0,0.604,0,0.92,0
	c0.227,0,0.453,0,0.68,0c0.529,0,1.059,0,1.576,0c0.541,0,1.07,0,1.6,0c0.076,0,0.152,0,0.215,0c0,2.42,0,4.84,0,7.259
	c2.433,0,4.852,0,7.271,0c0-2.419,0-4.839,0-7.259c2.42,0,4.84,0,7.247,0c0,2.42,0,4.84,0,7.259c2.433,0,4.852,0,7.271,0
	c0,2.42,0,4.84,0,7.26c-4.839,0-9.679,0-14.519,0c0,2.42,0,4.84,0,7.259c-0.239,0-0.453,0-0.68,0c-1.815,0-3.631,0-5.445,0
	c-0.907,0-1.814,0-2.723,0c-0.453,0-0.92,0-1.36,0c-0.228,0-0.454,0-0.681,0c-0.164,0-0.303,0-0.453,0c-0.92,0-1.815,0-2.723,0
	c-0.454,0-0.907,0-1.374,0c-0.214,0-0.44,0-0.668,0c-0.151,0-0.302,0-0.454,0c-0.906,0-1.814,0-2.723,0c-0.453,0-0.906,0-1.359,0
	c-0.228,0-0.467,0-0.682,0c-0.15,0-0.303,0-0.453,0c0,0.681,0,1.361,0,2.042c0,0.605,0,1.21,0,1.814c0,0.605,0,1.21,0,1.815
	c0,0.604,0,1.21,0,1.814c9.679,0,19.357,0,29.024,0c0-0.604,0-1.21,0-1.814c0-0.605,0.012-1.21,0-1.815c0-0.604,0-1.209,0-1.814
	c0-0.302,0-0.604,0-0.907s0-0.605,0-0.907c0-0.076,0-0.151,0-0.228c2.433,0,4.852,0,7.271,0s4.84,0,7.247,0c0-0.453,0-0.907,0-1.361
	c0-0.226,0-0.453,0-0.68s0-0.454,0-0.681c0-0.454,0-0.907,0-1.361c0-0.227,0-0.454,0-0.681s0-0.453,0-0.681c0-0.227,0-0.453,0-0.681
	c0-0.227,0-0.453,0-0.68c0-0.228,0-0.454,0-0.681s0-0.454,0-0.681c0-0.454,0-0.907,0-1.361c0-0.227,0-0.454,0-0.681s0-0.454,0-0.681
	s0-0.454,0-0.68c0-0.228,0-0.455,0-0.681c0-0.228,0-0.454,0-0.681c0-0.228,0-0.454,0-0.681c0-0.454,0-0.908,0-1.361
	c0-0.228,0-0.454,0-0.681c0-0.228,0-0.454,0-0.681s0-0.454,0-0.681s0-0.453,0-0.681c0-0.227,0-0.453,0-0.681c0-0.227,0-0.453,0-0.68
	c0-0.454,0-0.908,0-1.361c0-0.228,0-0.454,0-0.681c0-0.228,0-0.454,0-0.681c-2.407,0-4.827,0-7.247,0c0-4.839,0-9.68,0-14.519
	c-2.42,0-4.839,0-7.271,0c-2.407,0-4.827,0-7.247,0s-4.839,0-7.271,0c0-2.42,0-4.84,0-7.26c-2.42,0-4.827,0-7.247,0
	c0-0.227,0-0.453,0-0.681c0-1.059,0-2.117,0-3.175c0-0.53,0-1.06,0-1.589c0-0.302,0-0.604,0-0.907s0-0.605,0-0.907
	c2.42,0,4.827,0,7.247,0c1.828,0,3.643,0,5.457,0c0.895,0,1.814,0,2.722,0c0.454,0,0.907,0,1.349,0c0.24,0,0.467,0,0.693,0
	c0.151,0,0.303,0,0.453,0c0.908,0,1.816,0,2.723,0c0.454,0,0.908,0,1.361,0c0.227,0,0.441,0,0.681,0c0.151,0,0.302,0,0.453,0
	c0.908,0,1.803,0,2.723,0c0.453,0,0.907,0,1.361,0c0.214,0,0.453,0,0.681,0c0.139,0,0.302,0,0.453,0c0.228,0,0.454,0,0.681,0
	c0,2.42,0,4.839,0,7.259c2.42,0,4.84,0,7.247,0c0-2.42,0-4.839,0-7.259c0.681,0,1.373,0,2.054,0c0.605,0,1.21,0,1.814,0
	c1.198,0,2.408,0,3.63,0c2.42,0,4.84,0,7.26,0c0-2.42,0-4.84,0-7.26c-1.21,0-2.42,0-3.63,0c-0.604,0-1.21,0-1.814,0
	c-0.303,0-0.604,0-0.907,0S124.164,87.338,123.861,87.338z"/>
<path fill="#232034" d="M131.121,72.82c0,2.42,0,4.84,0,7.26c2.42,0,4.827,0,7.247,0c0-2.42,0-4.839,0-7.26
	C135.948,72.82,133.541,72.82,131.121,72.82z"/>
<path fill="#D6EEF1" d="M131.802,152.899c-0.228,0-0.454,0-0.681,0c0,4.84,0,9.68,0,14.519c2.42,0,4.827,0,7.247,0
	c0-4.612,0-9.225,0-13.838c0-0.227,0-0.453,0-0.681c-0.063,0-0.139,0-0.215,0c-0.529,0-1.059,0-1.601,0c-0.29,0-0.604,0-0.895,0
	c-0.227,0-0.454,0-0.681,0C133.919,152.899,132.86,152.899,131.802,152.899z"/>
<path fill="#D6EEF1" d="M138.368,72.82c0,2.42,0,4.84,0,7.26c2.433,0,4.852,0,7.271,0c0-2.42,0-4.839,0-7.26
	C143.22,72.82,140.801,72.82,138.368,72.82z"/>
<path fill="#D6EEF1" d="M145.64,123.635c0,4.84,0,9.679,0,14.519c4.84,0,9.68,0,14.519,0c0,2.42,0,4.84,0,7.259
	c2.42,0,4.84,0,7.247,0c0-2.419,0-4.839,0-7.259c2.432,0,4.852,0,7.271,0c0-4.84,0-9.679,0-14.519c-2.42,0-4.84,0-7.271,0
	c0-2.42,0-4.839,0-7.26c2.432,0,4.852,0,7.271,0c0-7.259,0-14.519,0-21.777c-4.84,0-9.679,0-14.519,0c0-2.42,0-4.84,0-7.26
	c-4.839,0-9.679,0-14.519,0c0,3.63,0,7.26,0,10.889c0,3.63,0,7.26,0,10.89c0,2.42,0,4.839,0,7.259c2.42,0,4.84,0,7.247,0
	c0,2.421,0,4.84,0,7.26C150.479,123.635,148.06,123.635,145.64,123.635z"/>
<path fill="#73CEE0" d="M181.924,115.695c0,0.228,0,0.454,0,0.681c2.432,0,4.853,0,7.271,0c0,2.421,0,4.84,0,7.26
	c-2.419,0-4.84,0-7.271,0c0,4.613,0,9.226,0,13.838c0,0.228,0,0.454,0,0.681c2.432,0,4.853,0,7.271,0c0,2.42,0,4.84,0,7.259
	c0,1.21,0,2.42,0,3.631c0,0.604,0,1.209,0,1.814c0,0.681,0,1.36,0,2.041c-2.419,0-4.84,0-7.271,0c0,2.42,0,4.84,0,7.26
	c-2.407,0-4.827,0-7.247,0c0,2.42,0,4.839,0,7.259c-2.42,0-4.84,0-7.271,0c0,2.421,0,4.84,0,7.26c-2.407,0-4.827,0-7.247,0
	c0,2.42,0,4.839,0,7.259c-2.42,0-4.839,0-7.271,0c0,4.84,0,9.68,0,14.519c-2.407,0-4.827,0-7.247,0c0,2.42,0,4.84,0,7.26
	c4.84,0,9.68,0,14.519,0c0-2.42,0-4.84,0-7.26c2.42,0,4.84,0,7.247,0c0-2.419,0-4.839,0-7.259c0.239,0,0.466,0,0.681,0
	c0.466,0,0.92,0,1.373,0c0.517,0,1.046,0,1.589,0c0.453,0,0.906,0,1.348,0c0.239,0,0.467,0,0.681,0c0.315,0,0.605,0,0.92,0
	c0.228,0,0.454,0,0.681,0c0-4.84,0-9.68,0-14.519c2.42,0,4.84,0,7.247,0c0-2.42,0-4.839,0-7.26c4.853,0,9.691,0,14.519,0
	c0-2.42,0-4.839,0-7.259c2.42,0,4.853,0,7.271,0c0-3.63,0-7.26,0-10.89c0-1.814,0-3.629,0-5.443c0-1.891,0-3.781,0-5.672
	c-2.419,0-4.852,0-7.271,0c0-0.151,0-0.303,0-0.453c0-1.74,0-3.479,0-5.218c0-1.739,0-3.479,0-5.218c0-1.739,0-3.479,0-5.218
	c0-0.227,0-0.454,0-0.681s0-0.454,0-0.681c0-0.454,0-0.907,0-1.361c0-0.227,0-0.454,0-0.68c0-0.228,0-0.455,0-0.681
	c0-0.228,0-0.454,0-0.681c0-0.303,0-0.605,0-0.908c0.239,0,0.467,0,0.692,0c1.967,0,3.933,0,5.898,0c0.227,0,0.454,0,0.681,0
	c0-4.839,0-9.679,0-14.519c-2.419,0-4.852,0-7.271,0c0-0.227,0-0.453,0-0.681c0-2.192,0-4.386,0-6.578c0.239,0,0.467,0,0.692,0
	c1.967,0,3.933,0,5.898,0c0.227,0,0.454,0,0.681,0c0-4.84,0-9.68,0-14.519c-2.419,0-4.852,0-7.271,0c0-0.228,0-0.454,0-0.681
	c0-2.269,0-4.538,0-6.806c0-2.344,0-4.688,0-7.033c-4.827,0-9.666,0-14.519,0c0-2.419,0-4.839,0-7.259c-4.827,0-9.667,0-14.519,0
	c0-0.151,0-0.303,0-0.454c0-1.739,0-3.478,0-5.217c0-1.815,0-3.63,0-5.445c0-3.629,0-7.259,0-10.889c-2.407,0-4.827,0-7.247,0
	c0,9.755,0,19.509,0,29.264c-2.42,0-4.839,0-7.271,0c0,2.42,0,4.839,0,7.259c9.691,0,19.37,0,29.037,0c0,2.42,0,4.84,0,7.26
	c2.432,0,4.853,0,7.271,0c0,4.839,0,9.679,0,14.519c-2.419,0-4.84,0-7.271,0c0,0.227,0,0.453,0,0.681c0,0.151,0,0.302,0,0.453
	c0,0.228,0,0.454,0,0.681c0,0.454,0,0.908,0,1.361c0,0.151,0,0.302,0,0.453c0,0.228,0,0.454,0,0.681c0,0.454,0,0.908,0,1.361
	c0,1.739,0,3.479,0,5.218c0,0.151,0,0.303,0,0.454c0,0.227,0,0.453,0,0.681c0,0.453,0,0.906,0,1.361c0,0.15,0,0.302,0,0.453
	c0,0.227,0,0.453,0,0.681c0,0.453,0,0.907,0,1.361C181.924,112.217,181.924,113.956,181.924,115.695z"/>
<g id="XMLID_2_">
	<g>
		<path fill="#232034" d="M124.514,167.936c0,2.33,0,4.67,0,7c2.42,0,4.83,0,7.26,0c0-2.25,0-4.49,0-6.74c-0.09,0-0.17,0-0.26,0
			c0-0.09,0-0.17,0-0.26C129.174,167.936,126.844,167.936,124.514,167.936z"/>
		<path fill="#232034" d="M125.424,175.196c-0.311,0-0.61,0-0.91,0c0,2.25,0,4.49,0,6.74c2.42,0,4.83,0,7.26,0c0-2.25,0-4.49,0-6.74
			c-0.229,0-0.449,0-0.68,0c-1.07,0-2.12,0-3.18,0c-0.53,0-1.07,0-1.59,0C126.023,175.196,125.724,175.196,125.424,175.196z"/>
		<path fill="#232034" d="M126.324,182.196c-0.301,0-0.601,0-0.9,0c-0.311,0-0.61,0-0.91,0c0,1.45,0,3.78,0,7c0.3,0,0.6,0,0.91,0
			c0.3,0,0.6,0,0.9,0c0.52,0,1.06,0,1.59,0c1.06,0,2.109,0,3.18,0c0.14,0,0.28,0,0.42,0c0-0.09,0-0.17,0-0.26c0.09,0,0.17,0,0.26,0
			c0-2.25,0-4.49,0-6.74c-0.229,0-0.449,0-0.68,0c-1.07,0-2.12,0-3.18,0C127.384,182.196,126.844,182.196,126.324,182.196z"/>
		<path fill="#232034" d="M126.324,182.196c0.52,0,1.06,0,1.59,0c1.06,0,2.109,0,3.18,0c0.23,0,0.45,0,0.68,0c0-0.09,0-0.17,0-0.26
			c-2.43,0-4.84,0-7.26,0c0,0.08,0,0.17,0,0.26c0.3,0,0.6,0,0.91,0C125.724,182.196,126.023,182.196,126.324,182.196z"/>
		<path fill="#232034" d="M131.773,174.936c-2.43,0-4.84,0-7.26,0c0,0.09,0,0.17,0,0.26c0.3,0,0.6,0,0.91,0c0.3,0,0.6,0,0.9,0
			c0.52,0,1.06,0,1.59,0c1.06,0,2.109,0,3.18,0c0.23,0,0.45,0,0.68,0C131.773,175.106,131.773,175.026,131.773,174.936z"/>
		<path fill="#232034" d="M131.514,189.196c0,2.33,0,4.67,0,7c0.3,0,0.6,0,0.91,0c0.3,0,0.6,0,0.9,0c0.52,0,1.06,0,1.59,0
			c1.06,0,2.109,0,3.18,0c0.23,0,0.45,0,0.68,0c0-2.33,0-4.67,0-7c-0.09,0-0.17,0-0.26,0c0-0.09,0-0.17,0-0.26
			c-2.26,0-4.49,0-6.74,0c0,0.09,0,0.17,0,0.26C131.684,189.196,131.604,189.196,131.514,189.196z"/>
		<path fill="#232034" d="M131.514,188.936c0,0.09,0,0.17,0,0.26c0.09,0,0.17,0,0.26,0c0-0.09,0-0.17,0-0.26
			C131.684,188.936,131.604,188.936,131.514,188.936z"/>
		<path fill="#232034" d="M131.514,167.936c0,0.09,0,0.17,0,0.26c0.09,0,0.17,0,0.26,0c0-0.09,0-0.17,0-0.26
			C131.684,167.936,131.604,167.936,131.514,167.936z"/>
		<path fill="#232034" d="M131.514,160.936c0,2.33,0,4.67,0,7c0.09,0,0.17,0,0.26,0c0,0.09,0,0.17,0,0.26c0.21,0,0.431,0,0.65,0
			c0.3,0,0.6,0,0.9,0c0.52,0,1.06,0,1.59,0c1.06,0,2.109,0,3.18,0c0.14,0,0.28,0,0.42,0c0-2.42,0-4.84,0-7.26
			C136.174,160.936,133.844,160.936,131.514,160.936z"/>
		<path fill="#5E5F5F" d="M131.773,168.196c0,2.25,0,4.49,0,6.74c0,0.09,0,0.17,0,0.26c0,2.25,0,4.49,0,6.74c0,0.09,0,0.17,0,0.26
			c0,2.25,0,4.49,0,6.74c2.25,0,4.48,0,6.74,0c0-2.25,0-4.49,0-6.74c0-0.09,0-0.17,0-0.26c0-2.33,0-4.67,0-7c2.42,0,4.83,0,7.26,0
			c0,2.33,0,4.67,0,7c0,0.09,0,0.17,0,0.26c0,2.25,0,4.49,0,6.74c2.25,0,4.48,0,6.74,0c0-2.25,0-4.49,0-6.74c0-0.08,0-0.17,0-0.26
			c0-1.45,0-3.78,0-7c2.42,0,4.83,0,7.26,0c0,2.33,0,4.67,0,7c0,0.09,0,0.17,0,0.26c0,2.25,0,4.49,0,6.74c2.25,0,4.48,0,6.74,0
			c0-2.25,0-4.49,0-6.74c0-0.09,0-0.17,0-0.26c0-2.25,0-4.49,0-6.74c0-0.09,0-0.17,0-0.26c0-2.25,0-4.49,0-6.74
			c-0.14,0-0.28,0-0.42,0c-1.07,0-2.12,0-3.18,0c-0.53,0-1.07,0-1.59,0c-0.301,0-0.601,0-0.9,0c-0.22,0-0.44,0-0.65,0
			c-0.09,0-0.17,0-0.26,0c-0.14,0-0.28,0-0.42,0c-1.07,0-2.12,0-3.18,0c-0.53,0-1.07,0-1.59,0c-0.301,0-0.601,0-0.9,0
			c-0.22,0-0.44,0-0.65,0c-0.09,0-0.17,0-0.26,0c-0.14,0-0.28,0-0.42,0c-1.07,0-2.12,0-3.18,0c-0.53,0-1.07,0-1.59,0
			c-0.301,0-0.601,0-0.9,0c-0.22,0-0.44,0-0.65,0c-0.09,0-0.17,0-0.26,0c-0.14,0-0.28,0-0.42,0c-1.07,0-2.12,0-3.18,0
			c-0.53,0-1.07,0-1.59,0c-0.301,0-0.601,0-0.9,0c-0.22,0-0.44,0-0.65,0c-0.09,0-0.17,0-0.26,0c-0.14,0-0.28,0-0.42,0
			c-1.07,0-2.12,0-3.18,0c-0.53,0-1.07,0-1.59,0c-0.301,0-0.601,0-0.9,0C132.204,168.196,131.983,168.196,131.773,168.196z"/>
		<path fill="#232034" d="M138.514,188.936c0,0.09,0,0.17,0,0.26c0.09,0,0.17,0,0.26,0c0-0.09,0-0.17,0-0.26
			C138.684,188.936,138.604,188.936,138.514,188.936z"/>
		<path fill="#232034" d="M138.514,174.936c0,2.33,0,4.67,0,7c2.42,0,4.83,0,7.26,0c0-2.33,0-4.67,0-7
			C143.344,174.936,140.934,174.936,138.514,174.936z"/>
		<path fill="#232034" d="M138.514,160.936c0,2.42,0,4.84,0,7.26c0.09,0,0.17,0,0.26,0c0-2.42,0-4.84,0-7.26
			C138.684,160.936,138.604,160.936,138.514,160.936z"/>
		<path fill="#232034" d="M138.514,182.196c0,2.25,0,4.49,0,6.74c0.09,0,0.17,0,0.26,0c0,0.09,0,0.17,0,0.26c0.21,0,0.431,0,0.65,0
			c0.3,0,0.6,0,0.9,0c0.52,0,1.06,0,1.59,0c1.06,0,2.109,0,3.18,0c0.14,0,0.28,0,0.42,0c0-0.09,0-0.17,0-0.26c0.09,0,0.17,0,0.26,0
			c0-2.25,0-4.49,0-6.74c-0.229,0-0.449,0-0.68,0c-1.07,0-2.12,0-3.18,0c-0.53,0-1.07,0-1.59,0c-0.301,0-0.601,0-0.9,0
			C139.113,182.196,138.813,182.196,138.514,182.196z"/>
		<path fill="#232034" d="M138.773,160.936c0,2.42,0,4.84,0,7.26c0.21,0,0.431,0,0.65,0c0.3,0,0.6,0,0.9,0c0.52,0,1.06,0,1.59,0
			c1.06,0,2.109,0,3.18,0c0.14,0,0.28,0,0.42,0c0-2.42,0-4.84,0-7.26C143.254,160.936,141.023,160.936,138.773,160.936z"/>
		<path fill="#232034" d="M145.773,181.936c-2.43,0-4.84,0-7.26,0c0,0.09,0,0.17,0,0.26c0.3,0,0.6,0,0.91,0c0.3,0,0.6,0,0.9,0
			c0.52,0,1.06,0,1.59,0c1.06,0,2.109,0,3.18,0c0.23,0,0.45,0,0.68,0C145.773,182.106,145.773,182.026,145.773,181.936z"/>
		<path fill="#232034" d="M145.514,189.196c0,2.33,0,4.67,0,7c0.3,0,0.6,0,0.91,0c0.3,0,0.6,0,0.9,0c0.52,0,1.06,0,1.59,0
			c1.06,0,2.109,0,3.18,0c0.23,0,0.45,0,0.68,0c0-2.33,0-4.67,0-7c-0.09,0-0.17,0-0.26,0c0-0.09,0-0.17,0-0.26
			c-2.26,0-4.49,0-6.74,0c0,0.09,0,0.17,0,0.26C145.684,189.196,145.604,189.196,145.514,189.196z"/>
		<path fill="#232034" d="M145.514,188.936c0,0.09,0,0.17,0,0.26c0.09,0,0.17,0,0.26,0c0-0.09,0-0.17,0-0.26
			C145.684,188.936,145.604,188.936,145.514,188.936z"/>
		<path fill="#232034" d="M145.514,160.936c0,2.42,0,4.84,0,7.26c0.09,0,0.17,0,0.26,0c0-2.42,0-4.84,0-7.26
			C145.684,160.936,145.604,160.936,145.514,160.936z"/>
		<path fill="#232034" d="M145.773,160.936c0,2.42,0,4.84,0,7.26c0.21,0,0.431,0,0.65,0c0.3,0,0.6,0,0.9,0c0.52,0,1.06,0,1.59,0
			c1.06,0,2.109,0,3.18,0c0.14,0,0.28,0,0.42,0c0-2.42,0-4.84,0-7.26C150.254,160.936,148.023,160.936,145.773,160.936z"/>
		<path fill="#232034" d="M152.514,188.936c0,0.09,0,0.17,0,0.26c0.09,0,0.17,0,0.26,0c0-0.09,0-0.17,0-0.26
			C152.684,188.936,152.604,188.936,152.514,188.936z"/>
		<path fill="#232034" d="M152.514,174.936c0,3.22,0,5.55,0,7c2.42,0,4.83,0,7.26,0c0-2.33,0-4.67,0-7
			C157.344,174.936,154.934,174.936,152.514,174.936z"/>
		<path fill="#232034" d="M152.514,160.936c0,2.42,0,4.84,0,7.26c0.09,0,0.17,0,0.26,0c0-2.42,0-4.84,0-7.26
			C152.684,160.936,152.604,160.936,152.514,160.936z"/>
		<path fill="#232034" d="M154.324,182.196c-0.301,0-0.601,0-0.9,0c-0.311,0-0.61,0-0.91,0c0,2.25,0,4.49,0,6.74
			c0.09,0,0.17,0,0.26,0c0,0.09,0,0.17,0,0.26c0.21,0,0.431,0,0.65,0c0.3,0,0.6,0,0.9,0c0.52,0,1.06,0,1.59,0c1.06,0,2.109,0,3.18,0
			c0.14,0,0.28,0,0.42,0c0-0.09,0-0.17,0-0.26c0.09,0,0.17,0,0.26,0c0-2.25,0-4.49,0-6.74c-0.229,0-0.449,0-0.68,0
			c-1.07,0-2.12,0-3.18,0C155.384,182.196,154.844,182.196,154.324,182.196z"/>
		<path fill="#232034" d="M152.773,160.936c0,2.42,0,4.84,0,7.26c0.21,0,0.431,0,0.65,0c0.3,0,0.6,0,0.9,0c0.52,0,1.06,0,1.59,0
			c1.06,0,2.109,0,3.18,0c0.14,0,0.28,0,0.42,0c0-2.42,0-4.84,0-7.26C157.254,160.936,155.023,160.936,152.773,160.936z"/>
		<path fill="#232034" d="M154.324,182.196c0.52,0,1.06,0,1.59,0c1.06,0,2.109,0,3.18,0c0.23,0,0.45,0,0.68,0c0-0.09,0-0.17,0-0.26
			c-2.43,0-4.84,0-7.26,0c0,0.09,0,0.18,0,0.26c0.3,0,0.6,0,0.91,0C153.724,182.196,154.023,182.196,154.324,182.196z"/>
		<path fill="#232034" d="M159.514,189.196c0,2.33,0,4.67,0,7c0.3,0,0.6,0,0.91,0c0.3,0,0.6,0,0.9,0c0.52,0,1.06,0,1.59,0
			c1.06,0,2.109,0,3.18,0c0.23,0,0.45,0,0.68,0c0-2.33,0-4.67,0-7c-0.09,0-0.17,0-0.26,0c0-0.09,0-0.17,0-0.26
			c-2.26,0-4.49,0-6.74,0c0,0.09,0,0.17,0,0.26C159.684,189.196,159.604,189.196,159.514,189.196z"/>
		<path fill="#232034" d="M159.514,188.936c0,0.09,0,0.17,0,0.26c0.09,0,0.17,0,0.26,0c0-0.09,0-0.17,0-0.26
			C159.684,188.936,159.604,188.936,159.514,188.936z"/>
		<path fill="#232034" d="M159.514,160.936c0,2.42,0,4.84,0,7.26c0.09,0,0.17,0,0.26,0c0-2.42,0-4.84,0-7.26
			C159.684,160.936,159.604,160.936,159.514,160.936z"/>
		<path fill="#232034" d="M159.773,160.936c0,2.42,0,4.84,0,7.26c0.21,0,0.431,0,0.65,0c0.3,0,0.6,0,0.9,0c0.52,0,1.06,0,1.59,0
			c1.06,0,2.109,0,3.18,0c0.14,0,0.28,0,0.42,0c0-0.09,0-0.17,0-0.26c0.09,0,0.17,0,0.26,0c0-2.33,0-4.67,0-7
			C164.434,160.936,162.104,160.936,159.773,160.936z"/>
		<path fill="#232034" d="M166.514,188.936c0,0.09,0,0.17,0,0.26c0.09,0,0.17,0,0.26,0c0-0.09,0-0.17,0-0.26
			C166.684,188.936,166.604,188.936,166.514,188.936z"/>
		<path fill="#232034" d="M166.514,168.196c0,2.25,0,4.49,0,6.74c2.42,0,4.83,0,7.26,0c0-2.33,0-4.67,0-7c-2.34,0-4.67,0-7,0
			c0,0.09,0,0.17,0,0.26C166.684,168.196,166.604,168.196,166.514,168.196z"/>
		<path fill="#232034" d="M166.514,167.936c0,0.09,0,0.17,0,0.26c0.09,0,0.17,0,0.26,0c0-0.09,0-0.17,0-0.26
			C166.684,167.936,166.604,167.936,166.514,167.936z"/>
		<path fill="#232034" d="M168.324,175.196c-0.301,0-0.601,0-0.9,0c-0.311,0-0.61,0-0.91,0c0,2.25,0,4.49,0,6.74
			c2.42,0,4.83,0,7.26,0c0-2.25,0-4.49,0-6.74c-0.229,0-0.449,0-0.68,0c-1.07,0-2.12,0-3.18,0
			C169.384,175.196,168.844,175.196,168.324,175.196z"/>
		<path fill="#232034" d="M168.324,182.196c-0.301,0-0.601,0-0.9,0c-0.311,0-0.61,0-0.91,0c0,2.25,0,4.49,0,6.74
			c0.09,0,0.17,0,0.26,0c0,0.09,0,0.17,0,0.26c0.21,0,0.431,0,0.65,0c0.3,0,0.6,0,0.9,0c0.52,0,1.06,0,1.59,0c1.06,0,2.109,0,3.18,0
			c0.23,0,0.45,0,0.68,0c0-2.33,0-4.67,0-7c-0.229,0-0.449,0-0.68,0c-1.07,0-2.12,0-3.18,0
			C169.384,182.196,168.844,182.196,168.324,182.196z"/>
		<path fill="#232034" d="M173.773,181.936c-2.43,0-4.84,0-7.26,0c0,0.09,0,0.17,0,0.26c0.3,0,0.6,0,0.91,0c0.3,0,0.6,0,0.9,0
			c0.52,0,1.06,0,1.59,0c1.06,0,2.109,0,3.18,0c0.23,0,0.45,0,0.68,0C173.773,182.106,173.773,182.026,173.773,181.936z"/>
		<path fill="#232034" d="M173.773,174.936c-2.43,0-4.84,0-7.26,0c0,0.09,0,0.17,0,0.26c0.3,0,0.6,0,0.91,0c0.3,0,0.6,0,0.9,0
			c0.52,0,1.06,0,1.59,0c1.06,0,2.109,0,3.18,0c0.23,0,0.45,0,0.68,0C173.773,175.106,173.773,175.026,173.773,174.936z"/>
	</g>
	<g>
	</g>
</g>
<g id="XMLID_1_">
	<g>
		<path fill="#232034" d="M8.15,167.936c0,2.33,0,4.67,0,7c2.42,0,4.83,0,7.26,0c0-2.25,0-4.49,0-6.74c-0.09,0-0.17,0-0.26,0
			c0-0.09,0-0.17,0-0.26C12.811,167.936,10.48,167.936,8.15,167.936z"/>
		<path fill="#232034" d="M8.15,175.196c0,2.25,0,4.49,0,6.74c2.42,0,4.83,0,7.26,0c0-2.25,0-4.49,0-6.74c-0.23,0-0.45,0-0.68,0
			c-1.07,0-2.12,0-3.18,0c-0.53,0-1.07,0-1.59,0c-0.3,0-0.6,0-0.9,0C8.75,175.196,8.451,175.196,8.15,175.196z"/>
		<path fill="#232034" d="M8.15,182.196c0,1.45,0,3.78,0,7c0.3,0,0.6,0,0.91,0c0.3,0,0.6,0,0.9,0c0.52,0,1.06,0,1.59,0
			c1.06,0,2.11,0,3.18,0c0.14,0,0.28,0,0.42,0c0-0.09,0-0.17,0-0.26c0.09,0,0.17,0,0.26,0c0-2.25,0-4.49,0-6.74
			c-0.23,0-0.45,0-0.68,0c-1.07,0-2.12,0-3.18,0c-0.53,0-1.07,0-1.59,0c-0.3,0-0.6,0-0.9,0C8.75,182.196,8.451,182.196,8.15,182.196
			z"/>
		<path fill="#232034" d="M11.55,182.196c1.06,0,2.11,0,3.18,0c0.23,0,0.45,0,0.68,0c0-0.09,0-0.17,0-0.26c-2.43,0-4.84,0-7.26,0
			c0,0.08,0,0.17,0,0.26c0.3,0,0.6,0,0.91,0c0.3,0,0.6,0,0.9,0C10.48,182.196,11.021,182.196,11.55,182.196z"/>
		<path fill="#232034" d="M15.411,174.936c-2.43,0-4.84,0-7.26,0c0,0.09,0,0.17,0,0.26c0.3,0,0.6,0,0.91,0c0.3,0,0.6,0,0.9,0
			c0.52,0,1.06,0,1.59,0c1.06,0,2.11,0,3.18,0c0.23,0,0.45,0,0.68,0C15.411,175.106,15.411,175.026,15.411,174.936z"/>
		<path fill="#232034" d="M15.15,189.196c0,2.33,0,4.67,0,7c0.3,0,0.6,0,0.91,0c0.3,0,0.6,0,0.9,0c0.52,0,1.06,0,1.59,0
			c1.06,0,2.11,0,3.18,0c0.23,0,0.45,0,0.68,0c0-2.33,0-4.67,0-7c-0.09,0-0.17,0-0.26,0c0-0.09,0-0.17,0-0.26c-2.26,0-4.49,0-6.74,0
			c0,0.09,0,0.17,0,0.26C15.32,189.196,15.24,189.196,15.15,189.196z"/>
		<path fill="#232034" d="M15.15,188.936c0,0.09,0,0.17,0,0.26c0.09,0,0.17,0,0.26,0c0-0.09,0-0.17,0-0.26
			C15.32,188.936,15.24,188.936,15.15,188.936z"/>
		<path fill="#232034" d="M15.15,167.936c0,0.09,0,0.17,0,0.26c0.09,0,0.17,0,0.26,0c0-0.09,0-0.17,0-0.26
			C15.32,167.936,15.24,167.936,15.15,167.936z"/>
		<path fill="#232034" d="M15.15,160.936c0,2.33,0,4.67,0,7c0.09,0,0.17,0,0.26,0c0,0.09,0,0.17,0,0.26c0.21,0,0.43,0,0.65,0
			c0.3,0,0.6,0,0.9,0c0.52,0,1.06,0,1.59,0c1.06,0,2.11,0,3.18,0c0.14,0,0.28,0,0.42,0c0-2.42,0-4.84,0-7.26
			C19.811,160.936,17.48,160.936,15.15,160.936z"/>
		<path fill="#5E5F5F" d="M15.411,168.196c0,2.25,0,4.49,0,6.74c0,0.09,0,0.17,0,0.26c0,2.25,0,4.49,0,6.74c0,0.09,0,0.17,0,0.26
			c0,2.25,0,4.49,0,6.74c2.25,0,4.48,0,6.74,0c0-2.25,0-4.49,0-6.74c0-0.09,0-0.17,0-0.26c0-2.33,0-4.67,0-7c2.42,0,4.83,0,7.26,0
			c0,2.33,0,4.67,0,7c0,0.09,0,0.17,0,0.26c0,2.25,0,4.49,0,6.74c2.25,0,4.48,0,6.74,0c0-2.25,0-4.49,0-6.74c0-0.08,0-0.17,0-0.26
			c0-1.45,0-3.78,0-7c2.42,0,4.83,0,7.26,0c0,2.33,0,4.67,0,7c0,0.09,0,0.17,0,0.26c0,2.25,0,4.49,0,6.74c2.25,0,4.48,0,6.74,0
			c0-2.25,0-4.49,0-6.74c0-0.09,0-0.17,0-0.26c0-2.25,0-4.49,0-6.74c0-0.09,0-0.17,0-0.26c0-2.25,0-4.49,0-6.74
			c-0.14,0-0.28,0-0.42,0c-1.07,0-2.12,0-3.18,0c-0.53,0-1.07,0-1.59,0c-0.3,0-0.6,0-0.9,0c-0.22,0-0.44,0-0.65,0
			c-0.09,0-0.17,0-0.26,0c-0.14,0-0.28,0-0.42,0c-1.07,0-2.12,0-3.18,0c-0.53,0-1.07,0-1.59,0c-0.3,0-0.6,0-0.9,0
			c-0.22,0-0.44,0-0.65,0c-0.09,0-0.17,0-0.26,0c-0.14,0-0.28,0-0.42,0c-1.07,0-2.12,0-3.18,0c-0.53,0-1.07,0-1.59,0
			c-0.3,0-0.6,0-0.9,0c-0.22,0-0.44,0-0.65,0c-0.09,0-0.17,0-0.26,0c-0.14,0-0.28,0-0.42,0c-1.07,0-2.12,0-3.18,0
			c-0.53,0-1.07,0-1.59,0c-0.3,0-0.6,0-0.9,0c-0.22,0-0.44,0-0.65,0c-0.09,0-0.17,0-0.26,0c-0.14,0-0.28,0-0.42,0
			c-1.07,0-2.12,0-3.18,0c-0.53,0-1.07,0-1.59,0c-0.3,0-0.6,0-0.9,0C15.84,168.196,15.621,168.196,15.411,168.196z"/>
		<path fill="#232034" d="M22.15,188.936c0,0.09,0,0.17,0,0.26c0.09,0,0.17,0,0.26,0c0-0.09,0-0.17,0-0.26
			C22.32,188.936,22.24,188.936,22.15,188.936z"/>
		<path fill="#232034" d="M22.15,174.936c0,2.33,0,4.67,0,7c2.42,0,4.83,0,7.26,0c0-2.33,0-4.67,0-7
			C26.98,174.936,24.57,174.936,22.15,174.936z"/>
		<path fill="#232034" d="M22.15,160.936c0,2.42,0,4.84,0,7.26c0.09,0,0.17,0,0.26,0c0-2.42,0-4.84,0-7.26
			C22.32,160.936,22.24,160.936,22.15,160.936z"/>
		<path fill="#232034" d="M23.061,182.196c-0.31,0-0.61,0-0.91,0c0,2.25,0,4.49,0,6.74c0.09,0,0.17,0,0.26,0c0,0.09,0,0.17,0,0.26
			c0.21,0,0.43,0,0.65,0c0.3,0,0.6,0,0.9,0c0.52,0,1.06,0,1.59,0c1.06,0,2.11,0,3.18,0c0.14,0,0.28,0,0.42,0c0-0.09,0-0.17,0-0.26
			c0.09,0,0.17,0,0.26,0c0-2.25,0-4.49,0-6.74c-0.23,0-0.45,0-0.68,0c-1.07,0-2.12,0-3.18,0c-0.53,0-1.07,0-1.59,0
			C23.661,182.196,23.36,182.196,23.061,182.196z"/>
		<path fill="#232034" d="M22.411,160.936c0,2.42,0,4.84,0,7.26c0.21,0,0.43,0,0.65,0c0.3,0,0.6,0,0.9,0c0.52,0,1.06,0,1.59,0
			c1.06,0,2.11,0,3.18,0c0.14,0,0.28,0,0.42,0c0-2.42,0-4.84,0-7.26C26.891,160.936,24.661,160.936,22.411,160.936z"/>
		<path fill="#232034" d="M25.55,182.196c1.06,0,2.11,0,3.18,0c0.23,0,0.45,0,0.68,0c0-0.09,0-0.17,0-0.26c-2.43,0-4.84,0-7.26,0
			c0,0.09,0,0.17,0,0.26c0.3,0,0.6,0,0.91,0c0.3,0,0.6,0,0.9,0C24.48,182.196,25.021,182.196,25.55,182.196z"/>
		<path fill="#232034" d="M29.15,189.196c0,2.33,0,4.67,0,7c0.3,0,0.6,0,0.91,0c0.3,0,0.6,0,0.9,0c0.52,0,1.06,0,1.59,0
			c1.06,0,2.11,0,3.18,0c0.23,0,0.45,0,0.68,0c0-2.33,0-4.67,0-7c-0.09,0-0.17,0-0.26,0c0-0.09,0-0.17,0-0.26c-2.26,0-4.49,0-6.74,0
			c0,0.09,0,0.17,0,0.26C29.32,189.196,29.24,189.196,29.15,189.196z"/>
		<path fill="#232034" d="M29.15,188.936c0,0.09,0,0.17,0,0.26c0.09,0,0.17,0,0.26,0c0-0.09,0-0.17,0-0.26
			C29.32,188.936,29.24,188.936,29.15,188.936z"/>
		<path fill="#232034" d="M29.15,160.936c0,2.42,0,4.84,0,7.26c0.09,0,0.17,0,0.26,0c0-2.42,0-4.84,0-7.26
			C29.32,160.936,29.24,160.936,29.15,160.936z"/>
		<path fill="#232034" d="M29.411,160.936c0,2.42,0,4.84,0,7.26c0.21,0,0.43,0,0.65,0c0.3,0,0.6,0,0.9,0c0.52,0,1.06,0,1.59,0
			c1.06,0,2.11,0,3.18,0c0.14,0,0.28,0,0.42,0c0-2.42,0-4.84,0-7.26C33.891,160.936,31.661,160.936,29.411,160.936z"/>
		<path fill="#232034" d="M36.15,188.936c0,0.09,0,0.17,0,0.26c0.09,0,0.17,0,0.26,0c0-0.09,0-0.17,0-0.26
			C36.32,188.936,36.24,188.936,36.15,188.936z"/>
		<path fill="#232034" d="M36.15,174.936c0,3.22,0,5.55,0,7c2.42,0,4.83,0,7.26,0c0-2.33,0-4.67,0-7
			C40.98,174.936,38.57,174.936,36.15,174.936z"/>
		<path fill="#232034" d="M36.15,160.936c0,2.42,0,4.84,0,7.26c0.09,0,0.17,0,0.26,0c0-2.42,0-4.84,0-7.26
			C36.32,160.936,36.24,160.936,36.15,160.936z"/>
		<path fill="#232034" d="M36.15,182.196c0,2.25,0,4.49,0,6.74c0.09,0,0.17,0,0.26,0c0,0.09,0,0.17,0,0.26c0.21,0,0.43,0,0.65,0
			c0.3,0,0.6,0,0.9,0c0.52,0,1.06,0,1.59,0c1.06,0,2.11,0,3.18,0c0.14,0,0.28,0,0.42,0c0-0.09,0-0.17,0-0.26c0.09,0,0.17,0,0.26,0
			c0-2.25,0-4.49,0-6.74c-0.23,0-0.45,0-0.68,0c-1.07,0-2.12,0-3.18,0c-0.53,0-1.07,0-1.59,0c-0.3,0-0.6,0-0.9,0
			C36.75,182.196,36.451,182.196,36.15,182.196z"/>
		<path fill="#232034" d="M36.411,160.936c0,2.42,0,4.84,0,7.26c0.21,0,0.43,0,0.65,0c0.3,0,0.6,0,0.9,0c0.52,0,1.06,0,1.59,0
			c1.06,0,2.11,0,3.18,0c0.14,0,0.28,0,0.42,0c0-2.42,0-4.84,0-7.26C40.891,160.936,38.661,160.936,36.411,160.936z"/>
		<path fill="#232034" d="M39.55,182.196c1.06,0,2.11,0,3.18,0c0.23,0,0.45,0,0.68,0c0-0.09,0-0.17,0-0.26c-2.43,0-4.84,0-7.26,0
			c0,0.09,0,0.18,0,0.26c0.3,0,0.6,0,0.91,0c0.3,0,0.6,0,0.9,0C38.48,182.196,39.021,182.196,39.55,182.196z"/>
		<path fill="#232034" d="M43.15,189.196c0,2.33,0,4.67,0,7c0.3,0,0.6,0,0.91,0c0.3,0,0.6,0,0.9,0c0.52,0,1.06,0,1.59,0
			c1.06,0,2.11,0,3.18,0c0.23,0,0.45,0,0.68,0c0-2.33,0-4.67,0-7c-0.09,0-0.17,0-0.26,0c0-0.09,0-0.17,0-0.26c-2.26,0-4.49,0-6.74,0
			c0,0.09,0,0.17,0,0.26C43.32,189.196,43.24,189.196,43.15,189.196z"/>
		<path fill="#232034" d="M43.15,188.936c0,0.09,0,0.17,0,0.26c0.09,0,0.17,0,0.26,0c0-0.09,0-0.17,0-0.26
			C43.32,188.936,43.24,188.936,43.15,188.936z"/>
		<path fill="#232034" d="M43.15,160.936c0,2.42,0,4.84,0,7.26c0.09,0,0.17,0,0.26,0c0-2.42,0-4.84,0-7.26
			C43.32,160.936,43.24,160.936,43.15,160.936z"/>
		<path fill="#232034" d="M43.411,160.936c0,2.42,0,4.84,0,7.26c0.21,0,0.43,0,0.65,0c0.3,0,0.6,0,0.9,0c0.52,0,1.06,0,1.59,0
			c1.06,0,2.11,0,3.18,0c0.14,0,0.28,0,0.42,0c0-0.09,0-0.17,0-0.26c0.09,0,0.17,0,0.26,0c0-2.33,0-4.67,0-7
			C48.07,160.936,45.74,160.936,43.411,160.936z"/>
		<path fill="#232034" d="M50.15,188.936c0,0.09,0,0.17,0,0.26c0.09,0,0.17,0,0.26,0c0-0.09,0-0.17,0-0.26
			C50.32,188.936,50.24,188.936,50.15,188.936z"/>
		<path fill="#232034" d="M50.15,168.196c0,2.25,0,4.49,0,6.74c2.42,0,4.83,0,7.26,0c0-2.33,0-4.67,0-7c-2.34,0-4.67,0-7,0
			c0,0.09,0,0.17,0,0.26C50.32,168.196,50.24,168.196,50.15,168.196z"/>
		<path fill="#232034" d="M50.15,167.936c0,0.09,0,0.17,0,0.26c0.09,0,0.17,0,0.26,0c0-0.09,0-0.17,0-0.26
			C50.32,167.936,50.24,167.936,50.15,167.936z"/>
		<path fill="#232034" d="M51.061,175.196c-0.31,0-0.61,0-0.91,0c0,2.25,0,4.49,0,6.74c2.42,0,4.83,0,7.26,0c0-2.25,0-4.49,0-6.74
			c-0.23,0-0.45,0-0.68,0c-1.07,0-2.12,0-3.18,0c-0.53,0-1.07,0-1.59,0C51.661,175.196,51.36,175.196,51.061,175.196z"/>
		<path fill="#232034" d="M51.96,182.196c-0.3,0-0.6,0-0.9,0c-0.31,0-0.61,0-0.91,0c0,2.25,0,4.49,0,6.74c0.09,0,0.17,0,0.26,0
			c0,0.09,0,0.17,0,0.26c0.21,0,0.43,0,0.65,0c0.3,0,0.6,0,0.9,0c0.52,0,1.06,0,1.59,0c1.06,0,2.11,0,3.18,0c0.23,0,0.45,0,0.68,0
			c0-2.33,0-4.67,0-7c-0.23,0-0.45,0-0.68,0c-1.07,0-2.12,0-3.18,0C53.021,182.196,52.48,182.196,51.96,182.196z"/>
		<path fill="#232034" d="M51.96,182.196c0.52,0,1.06,0,1.59,0c1.06,0,2.11,0,3.18,0c0.23,0,0.45,0,0.68,0c0-0.09,0-0.17,0-0.26
			c-2.43,0-4.84,0-7.26,0c0,0.09,0,0.17,0,0.26c0.3,0,0.6,0,0.91,0C51.36,182.196,51.661,182.196,51.96,182.196z"/>
		<path fill="#232034" d="M53.55,175.196c1.06,0,2.11,0,3.18,0c0.23,0,0.45,0,0.68,0c0-0.09,0-0.17,0-0.26c-2.43,0-4.84,0-7.26,0
			c0,0.09,0,0.17,0,0.26c0.3,0,0.6,0,0.91,0c0.3,0,0.6,0,0.9,0C52.48,175.196,53.021,175.196,53.55,175.196z"/>
	</g>
	<g>
	</g>
</g>
<path fill="#FFFFFF" d="M80.181,80.079c0,2.42,0,4.839,0,7.26c2.42,0,4.84,0,7.259,0c0-2.42,0-4.84,0-7.26
	C85.021,80.079,82.601,80.079,80.181,80.079z"/>
<path fill="#010101" d="M80.181,72.82c0,2.419,0,4.839,0,7.259c2.42,0,4.84,0,7.259,0c0,2.42,0,4.839,0,7.26c2.407,0,4.827,0,7.26,0
	c0-2.42,0-4.84,0-7.26c2.419,0,4.839,0,7.259,0c0-2.419,0-4.839,0-7.259c-3.629,0-7.259,0-10.901,0
	C87.439,72.82,83.81,72.82,80.181,72.82z"/>
</svg>
