<?xml version="1.0" encoding="utf-8"?>
<!-- Generator: Adobe Illustrator 15.0.0, SVG Export Plug-In  -->
<!DOCTYPE svg PUBLIC "-//W3C//DTD SVG 1.1//EN" "http://www.w3.org/Graphics/SVG/1.1/DTD/svg11.dtd" [
	<!ENTITY ns_flows "http://ns.adobe.com/Flows/1.0/">
]>
<svg version="1.1"
	 xmlns="http://www.w3.org/2000/svg" xmlns:xlink="http://www.w3.org/1999/xlink" xmlns:a="http://ns.adobe.com/AdobeSVGViewerExtensions/3.0/"
	 x="0px" y="0px" width="300px" height="300px" viewBox="-37.318 -48 300 300" enable-background="new -37.318 -48 300 300"
	 xml:space="preserve">
<defs>
</defs>
<path fill="#232034" d="M65.333,87.338c0,9.68,0,19.358,0,29.037c2.42,0,4.84,0,7.247,0c0-4.839,0-9.679,0-14.519
	c0-2.42,0-4.839,0-7.259s0-4.84,0-7.26s0-4.839,0-7.259c-2.407,0-4.827,0-7.247,0C65.333,82.499,65.333,84.918,65.333,87.338z"/>
<path fill="#232034" d="M72.58,116.375c0,4.84,0,9.68,0,14.519c2.42,0,4.839,0,7.259,0c0-2.419,0-4.839,0-7.259s0-4.839,0-7.26
	C77.419,116.375,75,116.375,72.58,116.375z"/>
<path fill="#E7F6FD" d="M72.58,94.598c0,2.42,0,4.839,0,7.259c2.42,0,4.839,0,7.259,0c0-2.42,0-4.839,0-7.259
	C77.419,94.598,75,94.598,72.58,94.598z"/>
<path fill="#848484" d="M72.58,80.08c0,2.419,0,4.839,0,7.259c2.42,0,4.839,0,7.259,0c0-2.42,0-4.839,0-7.259
	C77.419,80.08,75,80.08,72.58,80.08z"/>
<path fill="#232034" d="M72.58,65.561c0,4.839,0,9.68,0,14.519c2.42,0,4.839,0,7.259,0c0-2.42,0-4.839,0-7.26
	c0-2.42,0-4.839,0-7.259C77.419,65.561,75,65.561,72.58,65.561z"/>
<path fill="#F2FAFD" d="M174.664,116.375c0.315,0,0.618,0,0.907,0c0.303,0,0.617,0,0.92,0c0.593,0,1.21,0,1.803,0
	c1.209,0,2.419,0,3.629,0c0-2.42,0-4.839,0-7.259c2.42,0,4.853,0,7.272,0c0-2.193,0-4.386,0-6.579c0-0.227,0-0.453,0-0.681
	c-0.088,0-0.151,0-0.24,0c-0.895,0-1.802,0-2.722,0c-0.227,0-0.44,0-0.669,0c-0.238,0-0.452,0-0.679,0c-0.24,0-0.454,0-0.681,0
	c-0.24,0-0.454,0-0.681,0c-1.815,0-3.631,0-5.445,0c-3.629,0-7.259,0-10.889,0c0-2.42,0-4.839,0-7.259c2.42,0,4.84,0,7.26,0
	c0-2.193,0-4.386,0-6.579c0-0.227,0-0.454,0-0.681c-4.84,0-9.681,0-14.532,0c0-4.839,0-9.679,0-14.519c-2.419,0-4.839,0-7.246,0
	c0-2.42,0-4.839,0-7.259c-2.42,0-4.84,0-7.26,0c0-2.419,0-4.839,0-7.259c-2.419,0-4.839,0-7.259,0c0-1.21,0-2.42,0-3.63
	c0-0.604,0-1.209,0-1.814c0-0.681,0-1.361,0-2.042c-2.419,0-4.853,0-7.272,0c0-2.419,0-4.839,0-7.259c-2.42,0-4.839,0-7.259,0
	c0,2.419,0,4.839,0,7.259c-1.727,0-3.466,0-5.205,0c-1.827,0-3.63,0-5.444,0s-3.63,0-5.458,0c-0.214,0-0.44,0-0.681,0
	c-0.226,0-0.44,0-0.668,0c-0.238,0-0.453,0-0.68,0c-0.239,0-0.454,0-0.68,0c-0.24,0-0.455,0-0.681,0c-0.24,0-0.454,0-0.681,0
	c-0.24,0-0.454,0-0.681,0c-0.303,0-0.618,0-0.921,0c0-2.419,0-4.839,0-7.259c-2.42,0-4.84,0-7.259,0c0-0.227,0-0.454,0-0.681
	c0-1.739,0-3.478,0-5.218c0-0.454,0-0.907,0-1.361c0-0.227,0-0.454,0-0.68c0-0.151,0-0.303,0-0.454c0-0.454,0-0.907,0-1.361
	c0-0.226,0-0.453,0-0.68c0-0.151,0-0.302,0-0.454c0-1.739,0-3.478,0-5.218c0-0.454,0-0.907,0-1.361c0-0.227,0-0.454,0-0.681
	c0-0.151,0-0.303,0-0.454c0-0.454,0-0.907,0-1.36c0-0.227,0-0.454,0-0.681c0-0.151,0-0.303,0-0.454c0-0.227,0-0.454,0-0.681
	c4.839,0,9.69,0,14.531,0c0-2.42,0-4.839,0-7.259c7.259,0,14.506,0,21.765,0c0,2.42,0,4.839,0,7.259c2.42,0,4.854,0,7.272,0
	c0,2.42,0,4.84,0,7.26c7.259,0,14.519,0,21.765,0c0,2.419,0,4.839,0,7.259c2.42,0,4.852,0,7.272,0c0,4.84,0,9.679,0,14.519
	c-2.421,0-4.853,0-7.272,0c0,0.681,0,1.361,0,2.042c0,0.605,0,1.21,0,1.814c0,1.21,0,2.42,0,3.63c4.852,0,9.692,0,14.532,0
	c0,2.419,0,4.839,0,7.259c4.901,0,9.83,0,14.745,0c0,2.42,0,4.839,0,7.259c4.84,0,9.679,0,14.519,0c0,2.42,0,4.84,0,7.26
	c2.407,0,4.827,0,7.246,0c0,4.839,0,9.679,0,14.519c-2.419,0-4.839,0-7.246,0c0,4.839,0,9.679,0,14.519c2.407,0,4.827,0,7.246,0
	c0,1.814,0,3.63,0,5.444s0,3.629,0,5.444s0,3.63,0,5.444c0,1.815,0,3.63,0,5.444c-2.419,0-4.839,0-7.246,0c0,2.42,0,4.84,0,7.26
	c-2.42,0-4.84,0-7.26,0c0,2.42,0,4.84,0,7.259c-0.226,0-0.466,0-0.68,0c-1.828,0-3.63,0-5.458,0c-1.727,0-3.466,0-5.204,0
	c-1.739,0-3.479,0-5.219,0c-0.92,0-1.814,0-2.722,0c-0.454,0-0.92,0-1.36,0c-0.24,0-0.455,0-0.681,0c-0.24,0-0.467,0-0.681,0
	c0-2.419,0-4.839,0-7.259c-4.84,0-9.681,0-14.532,0c0,2.42,0,4.84,0,7.259c2.42,0,4.852,0,7.272,0c0,0.228,0,0.454,0,0.681
	c0,1.815,0,3.63,0,5.445c0,1.739,0,3.478,0,5.217c0,1.74,0,3.479,0,5.218c0,0.908,0,1.815,0,2.723c0,0.453,0,0.907,0,1.361
	c0,0.227,0,0.453,0,0.68c0,0.228,0,0.454,0,0.681c-2.421,0-4.853,0-7.272,0c0,2.421,0,4.84,0,7.26c-0.214,0-0.44,0-0.681,0
	c-0.44,0-0.895,0-1.361,0c-0.226,0-0.44,0-0.668,0c-0.238,0-0.453,0-0.68,0c-0.454,0-0.92,0-1.36,0c-0.24,0-0.455,0-0.681,0
	c-0.151,0-0.303,0-0.454,0c-0.467,0-0.907,0-1.361,0c-0.227,0-0.467,0-0.693,0c-0.151,0-0.303,0-0.441,0c-0.239,0-0.453,0-0.68,0
	c-0.24,0-0.454,0-0.681,0c-0.24,0-0.454,0-0.681,0c-0.151,0-0.303,0-0.454,0c-0.467,0-0.907,0-1.361,0c-0.227,0-0.466,0-0.681,0
	c-0.227,0-0.466,0-0.692,0c-0.442,0-0.896,0-1.361,0c-0.214,0-0.44,0-0.681,0c-0.151,0-0.291,0-0.44,0c-0.454,0-0.921,0-1.361,0
	c-0.24,0-0.454,0-0.681,0c-0.151,0-0.303,0-0.454,0c-0.227,0-0.467,0-0.693,0c-0.214,0-0.441,0-0.681,0c-0.214,0-0.44,0-0.681,0
	c-0.151,0-0.303,0-0.44,0c-0.24,0-0.454,0-0.681,0c0-2.42,0-4.839,0-7.26c-2.419,0-4.853,0-7.272,0c0,2.421,0,4.84,0,7.26
	c-0.895,0-1.802,0-2.709,0c-0.454,0-0.92,0-1.361,0c-0.239,0-0.454,0-0.681,0c-0.239,0-0.454,0-0.681,0c-0.454,0-0.92,0-1.36,0
	c-0.24,0-0.467,0-0.681,0c-0.229,0-0.467,0-0.681,0c-0.467,0-0.907,0-1.361,0c-0.227,0-0.467,0-0.681,0c-0.227,0-0.467,0-0.681,0
	c-0.467,0-0.907,0-1.361,0c-0.227,0-0.467,0-0.692,0c-0.215,0-0.442,0-0.681,0c-0.441,0-0.896,0-1.361,0c-0.215,0-0.441,0-0.681,0
	c-0.215,0-0.441,0-0.681,0c-0.44,0-0.896,0-1.361,0c-0.214,0-0.44,0-0.681,0c-0.227,0-0.44,0-0.668,0c-0.453,0-0.92,0-1.36,0
	c-0.24,0-0.454,0-0.681,0c-0.24,0-0.454,0-0.681,0c0,2.42,0,4.839,0,7.259c-4.841,0-9.692,0-14.531,0c0,2.42,0,4.84,0,7.26
	c-4.902,0-9.818,0-14.746,0c0-2.42,0-4.84,0-7.26c-2.42,0-4.839,0-7.259,0c0-2.42,0-4.839,0-7.259c-2.407,0-4.827,0-7.247,0
	c0-2.42,0-4.839,0-7.26c-2.419,0-4.839,0-7.259,0c0-4.839,0-9.679,0-14.519c-2.42,0-4.841,0-7.272,0c0-0.681,0-1.36,0-2.041
	c0-0.605,0-1.21,0-1.814c0-1.211,0-2.421,0-3.631c-2.42,0-4.839,0-7.259,0c0-2.419,0-4.839,0-7.259c-2.407,0-4.827,0-7.247,0
	c0-2.42,0-4.84,0-7.26c-2.42,0-4.839,0-7.259,0c0-4.839,0-9.679,0-14.519c-2.42,0-4.84,0-7.272,0c0-4.839,0-9.679,0-14.519
	c-2.42,0-4.84,0-7.259,0c0-4.839,0-9.679,0-14.519c2.419,0,4.839,0,7.259,0c0-2.42,0-4.839,0-7.259c4.853,0,9.692,0,14.531,0
	c0-2.42,0-4.839,0-7.26c4.84,0,9.667,0,14.506,0c0-2.42,0-4.839,0-7.259c2.432,0,4.853,0,7.272,0c0-4.915,0-9.83,0-14.746
	c4.84,0,9.679,0,14.506,0c0-2.419,0-4.839,0-7.259c0.692,0,1.373,0,2.054,0c0.605,0,1.21,0,1.815,0c1.21,0,2.42,0,3.63,0
	s2.42,0,3.63,0c1.209,0,2.419,0,3.629,0c0,2.419,0,4.839,0,7.259c2.42,0,4.84,0,7.247,0c0,1.21,0,2.42,0,3.63
	c0,0.605,0,1.209,0,1.814c0,0.681,0,1.361,0,2.042c-2.407,0-4.827,0-7.247,0c-1.21,0-2.42,0-3.629,0c-0.618,0-1.21,0-1.828,0
	c-0.681,0-1.361,0-2.042,0c0,2.419,0,4.839,0,7.259c-2.42,0-4.839,0-7.259,0c0,4.839,0,9.68,0,14.519c-2.407,0-4.827,0-7.247,0
	c0,2.419,0,4.839,0,7.259c-4.839,0-9.679,0-14.531,0c0,2.42,0,4.84,0,7.26c-2.42,0-4.839,0-7.259,0c0,4.839,0,9.679,0,14.519
	c-2.407,0-4.827,0-7.247,0c0,2.42,0,4.839,0,7.259c3.63,0,7.247,0,10.876,0c3.63,0,7.272,0,10.902,0c0,2.421,0,4.84,0,7.26
	c2.42,0,4.84,0,7.259,0c0,4.84,0,9.679,0,14.519c2.42,0,4.84,0,7.247,0c0,1.21,0,2.42,0,3.63s0,2.419,0,3.629s0,2.42,0,3.631
	c0,0.604,0,1.209,0,1.814c0,0.681,0,1.36,0,2.041c2.42,0,4.839,0,7.259,0c0,2.42,0,4.84,0,7.26c4.928,0,9.844,0,14.746,0
	c0,2.42,0,4.839,0,7.259c4.839,0,9.69,0,14.531,0c0-4.839,0-9.679,0-14.519c2.42,0,4.84,0,7.259,0c0-1.21,0-2.42,0-3.63
	c0-0.604,0-1.209,0-1.814c0-0.681,0-1.361,0-2.042c2.42,0,4.84,0,7.247,0c0-2.419,0-4.839,0-7.259c2.42,0,4.839,0,7.259,0
	c0-2.42,0-4.84,0-7.26c2.42,0,4.854,0,7.272,0c0-2.419,0-4.839,0-7.259c2.42,0,4.84,0,7.259,0c0-2.42,0-4.839,0-7.26
	c0-2.42,0-4.839,0-7.259c2.42,0,4.84,0,7.26,0c0-2.42,0-4.84,0-7.26c2.407,0,4.827,0,7.246,0c2.42,0,4.852,0,7.272,0
	c0,2.42,0,4.84,0,7.26c2.42,0,4.84,0,7.26,0c0,2.42,0,4.839,0,7.259C174.513,116.375,174.602,116.375,174.664,116.375z
	 M159.918,123.635c0,2.42,0,4.84,0,7.259c2.42,0,4.852,0,7.272,0c0-4.612,0-9.225,0-13.838c0-0.227,0-0.453,0-0.681
	c-0.088,0-0.151,0-0.239,0c-0.215,0-0.441,0-0.681,0c-0.151,0-0.289,0-0.44,0c-0.304,0-0.618,0-0.921,0c-0.289,0-0.592,0-0.895,0
	c-0.227,0-0.467,0-0.693,0c-0.592,0-1.197,0-1.802,0c-0.53,0-1.072,0-1.602,0c-2.18,0-4.373,0-6.565,0c-0.227,0-0.467,0-0.681,0
	c0,2.421,0,4.84,0,7.26C155.079,123.635,157.499,123.635,159.918,123.635z"/>
<path fill="#232034" d="M87.338,58.302c-1.21,0-2.42,0-3.629,0c-0.618,0-1.21,0-1.828,0c-0.681,0-1.361,0-2.042,0
	c0,2.419,0,4.839,0,7.259c0.681,0,1.361,0,2.042,0c0.618,0,1.21,0,1.828,0c1.209,0,2.419,0,3.629,0c2.42,0,4.84,0,7.247,0
	c0-2.419,0-4.839,0-7.259C92.178,58.302,89.758,58.302,87.338,58.302z"/>
<path fill="#848484" d="M87.338,65.561c-1.21,0-2.42,0-3.629,0c-0.618,0-1.21,0-1.828,0c-0.681,0-1.361,0-2.042,0
	c0,2.42,0,4.839,0,7.259c1.21,0,2.42,0,3.642,0c0.605,0,1.211,0,1.815,0c0.681,0,1.361,0,2.042,0
	C87.338,70.4,87.338,67.98,87.338,65.561z"/>
<path fill="#010101" d="M85.296,87.338c-0.604,0-1.21,0-1.815,0c-1.222,0-2.432,0-3.642,0c-2.42,0-4.839,0-7.259,0
	c0,2.42,0,4.84,0,7.26c2.42,0,4.839,0,7.259,0c0,2.42,0,4.839,0,7.259c1.21,0,2.42,0,3.642,0c0.605,0,1.211,0,1.815,0
	c0.681,0,1.361,0,2.042,0c0-4.839,0-9.679,0-14.519c-0.076,0-0.151,0-0.227,0c-0.303,0-0.605,0-0.92,0
	C85.901,87.338,85.599,87.338,85.296,87.338z"/>
<path fill="#C3CAD1" d="M85.296,72.82c-0.604,0-1.21,0-1.815,0c-1.222,0-2.432,0-3.642,0c0,2.42,0,4.84,0,7.26
	c0,2.419,0,4.839,0,7.259c1.21,0,2.42,0,3.642,0c0.605,0,1.211,0,1.815,0c0.303,0,0.605,0,0.896,0c0.314,0,0.617,0,0.92,0
	c0.075,0,0.15,0,0.227,0c0,4.84,0,9.68,0,14.519c2.42,0,4.84,0,7.247,0c0,2.42,0,4.84,0,7.26c-2.407,0-4.827,0-7.247,0
	c0-2.42,0-4.84,0-7.26c-0.681,0-1.361,0-2.042,0c-0.604,0-1.21,0-1.815,0c-1.222,0-2.432,0-3.642,0c-2.42,0-4.839,0-7.259,0
	c0,4.84,0,9.68,0,14.519c2.42,0,4.839,0,7.259,0c0.681,0,1.361,0,2.042,0c0.618,0,1.21,0,1.828,0c1.209,0,2.419,0,3.629,0
	c0,2.421,0,4.84,0,7.26c2.42,0,4.84,0,7.247,0c0-2.42,0-4.839,0-7.26c2.419,0,4.839,0,7.259,0c0,2.421,0,4.84,0,7.26
	c2.432,0,4.853,0,7.272,0c0-2.42,0-4.839,0-7.26c2.42,0,4.84,0,7.259,0c0,2.421,0,4.84,0,7.26c-2.419,0-4.839,0-7.259,0
	c0,2.42,0,4.84,0,7.259c-0.24,0-0.454,0-0.681,0c-2.193,0-4.398,0-6.592,0c0-2.419,0-4.839,0-7.259c-2.42,0-4.84,0-7.259,0
	c0,2.42,0,4.84,0,7.259c-2.407,0-4.827,0-7.247,0c0,2.42,0,4.84,0,7.26c9.666,0,19.358,0,29.037,0c0-2.42,0-4.84,0-7.26
	c2.42,0,4.84,0,7.247,0c2.42,0,4.839,0,7.259,0c0-4.839,0-9.679,0-14.519c-2.42,0-4.839,0-7.259,0c0-4.839,0-9.679,0-14.519
	c-2.407,0-4.827,0-7.247,0c-2.419,0-4.839,0-7.259,0s-4.841,0-7.272,0c0-2.42,0-4.839,0-7.259c-2.42,0-4.84,0-7.259,0
	c0-2.42,0-4.84,0-7.26c2.419,0,4.839,0,7.259,0c3.643,0,7.272,0,10.902,0c3.629,0,7.259,0,10.876,0c0,2.42,0,4.84,0,7.26
	c2.42,0,4.839,0,7.259,0c0-2.42,0-4.84,0-7.26c4.854,0,9.692,0,14.531,0c0-2.42,0-4.839,0-7.259c-2.419,0-4.839,0-7.259,0
	c0-4.839,0-9.68,0-14.519c-2.419,0-4.853,0-7.272,0c0-2.419,0-4.839,0-7.259c-9.666,0-19.345,0-29.037,0c0,2.419,0,4.839,0,7.259
	c-2.42,0-4.84,0-7.259,0c-2.407,0-4.827,0-7.247,0c0,2.42,0,4.839,0,7.259C86.657,72.82,85.977,72.82,85.296,72.82z"/>
<path fill="#010101" d="M81.881,116.375c-0.681,0-1.361,0-2.042,0c0,2.421,0,4.84,0,7.26c0.681,0,1.361,0,2.042,0
	c0.618,0,1.21,0,1.828,0c1.209,0,2.419,0,3.629,0c0-2.42,0-4.839,0-7.26c-1.21,0-2.42,0-3.629,0
	C83.091,116.375,82.499,116.375,81.881,116.375z"/>
<path fill="#C3CAD1" d="M87.338,123.635c-1.21,0-2.42,0-3.629,0c-0.618,0-1.21,0-1.828,0c-0.681,0-1.361,0-2.042,0
	c0,2.42,0,4.84,0,7.259c0.681,0,1.361,0,2.042,0c0.618,0,1.21,0,1.828,0c1.209,0,2.419,0,3.629,0
	C87.338,128.475,87.338,126.055,87.338,123.635z"/>
<path fill="#232034" d="M87.338,130.894c-1.21,0-2.42,0-3.629,0c-0.618,0-1.21,0-1.828,0c-0.681,0-1.361,0-2.042,0
	c0,2.42,0,4.84,0,7.26c0.681,0,1.361,0,2.042,0c0.618,0,1.21,0,1.828,0c1.209,0,2.419,0,3.629,0
	C87.338,135.734,87.338,133.314,87.338,130.894z"/>
<path fill="#E7F6FD" d="M87.338,138.154c-1.21,0-2.42,0-3.629,0c-0.618,0-1.21,0-1.828,0c-0.681,0-1.361,0-2.042,0
	c0,2.42,0,4.84,0,7.259c0.24,0,0.467,0,0.681,0c0.151,0,0.315,0,0.467,0c0.303,0,0.604,0,0.895,0c0.618,0,1.21,0,1.828,0
	c1.209,0,2.419,0,3.629,0C87.338,142.994,87.338,140.574,87.338,138.154z"/>
<path fill="#DFF3FD" d="M72.58,150.858c0,0.681,0,1.36,0,2.041c2.42,0,4.839,0,7.259,0c0,2.42,0,4.84,0,7.26
	c4.928,0,9.844,0,14.746,0c0,2.42,0,4.839,0,7.259c4.839,0,9.69,0,14.531,0c0-4.839,0-9.679,0-14.519c2.42,0,4.84,0,7.259,0
	c0-1.21,0-2.42,0-3.63c0-0.604,0-1.209,0-1.814c0-0.681,0-1.361,0-2.042c-9.679,0-19.371,0-29.037,0c-1.21,0-2.42,0-3.629,0
	c-0.618,0-1.21,0-1.828,0c-0.29,0-0.592,0-0.895,0c-0.151,0-0.315,0-0.467,0c-0.214,0-0.44,0-0.681,0c0-2.419,0-4.839,0-7.259
	s0-4.84,0-7.26c-2.42,0-4.839,0-7.259,0c0-4.839,0-9.679,0-14.519c-2.407,0-4.827,0-7.247,0c0-9.679,0-19.357,0-29.037
	c-4.839,0-9.679,0-14.531,0c0,2.42,0,4.84,0,7.26c-2.42,0-4.839,0-7.259,0c0,4.839,0,9.679,0,14.519c-2.407,0-4.827,0-7.247,0
	c0,2.42,0,4.839,0,7.259c3.63,0,7.247,0,10.876,0c3.63,0,7.272,0,10.902,0c0,2.421,0,4.84,0,7.26c2.42,0,4.84,0,7.259,0
	c0,4.84,0,9.679,0,14.519c2.42,0,4.84,0,7.247,0c0,1.21,0,2.42,0,3.63s0,2.419,0,3.629s0,2.42,0,3.631
	C72.58,149.648,72.58,150.252,72.58,150.858z"/>
<path fill="#232034" d="M87.338,138.154c0,2.42,0,4.84,0,7.259c9.666,0,19.358,0,29.037,0c2.42,0,4.84,0,7.247,0
	c0-2.419,0-4.839,0-7.259c-2.407,0-4.827,0-7.247,0C106.696,138.154,97.004,138.154,87.338,138.154z"/>
<path fill="#010101" d="M87.338,123.635c0,2.42,0,4.84,0,7.259c2.42,0,4.84,0,7.247,0c0-2.419,0-4.839,0-7.259
	C92.178,123.635,89.758,123.635,87.338,123.635z"/>
<path fill="#010101" d="M87.338,101.857c0,2.42,0,4.84,0,7.26c2.42,0,4.84,0,7.247,0c0-2.42,0-4.84,0-7.26
	C92.178,101.857,89.758,101.857,87.338,101.857z"/>
<path fill="#010101" d="M94.585,116.375c0,2.421,0,4.84,0,7.26c2.419,0,4.839,0,7.259,0c0-2.42,0-4.839,0-7.26
	C99.424,116.375,97.004,116.375,94.585,116.375z"/>
<path fill="#848484" d="M94.585,87.338c0,2.42,0,4.84,0,7.26c2.419,0,4.839,0,7.259,0c0-2.42,0-4.84,0-7.26
	C99.424,87.338,97.004,87.338,94.585,87.338z"/>
<path fill="#848484" d="M94.585,58.302c0,2.419,0,4.839,0,7.259c2.419,0,4.839,0,7.259,0c0-2.419,0-4.839,0-7.259
	C99.424,58.302,97.004,58.302,94.585,58.302z"/>
<path fill="#232034" d="M94.585,56.26c0,0.681,0,1.361,0,2.042c2.419,0,4.839,0,7.259,0c9.692,0,19.371,0,29.037,0
	c2.42,0,4.854,0,7.272,0c0-1.21,0-2.42,0-3.63c0-0.604,0-1.209,0-1.814c0-0.681,0-1.361,0-2.042c-2.419,0-4.853,0-7.272,0
	s-4.839,0-7.259,0c-1.727,0-3.466,0-5.205,0c-1.827,0-3.63,0-5.444,0s-3.63,0-5.458,0c-0.214,0-0.44,0-0.681,0
	c-0.226,0-0.44,0-0.668,0c-0.238,0-0.453,0-0.68,0c-0.239,0-0.454,0-0.68,0c-0.24,0-0.455,0-0.681,0c-0.24,0-0.454,0-0.681,0
	c-0.24,0-0.454,0-0.681,0c-0.303,0-0.618,0-0.921,0c-2.42,0-4.84,0-7.259,0c0,1.21,0,2.42,0,3.63
	C94.585,55.05,94.585,55.655,94.585,56.26z"/>
<path fill="#010101" d="M101.844,123.635c0,2.42,0,4.84,0,7.259c2.193,0,4.398,0,6.592,0c0.227,0,0.44,0,0.681,0
	c0-2.419,0-4.839,0-7.259C106.696,123.635,104.275,123.635,101.844,123.635z"/>
<path fill="#E7F6FD" d="M101.844,94.598c0,2.42,0,4.839,0,7.259c2.432,0,4.853,0,7.272,0c0-2.42,0-4.839,0-7.259
	C106.696,94.598,104.275,94.598,101.844,94.598z"/>
<path fill="#010101" d="M101.844,87.338c0,2.42,0,4.84,0,7.26c2.432,0,4.853,0,7.272,0c0,2.42,0,4.839,0,7.259
	c2.42,0,4.84,0,7.259,0c0-2.42,0-4.839,0-7.259c2.42,0,4.84,0,7.247,0c0-2.42,0-4.84,0-7.26c-3.617,0-7.247,0-10.876,0
	C109.116,87.338,105.486,87.338,101.844,87.338z"/>
<path fill="#010101" d="M109.116,116.375c0,2.421,0,4.84,0,7.26c2.42,0,4.84,0,7.259,0c0-2.42,0-4.839,0-7.26
	C113.956,116.375,111.536,116.375,109.116,116.375z"/>
<path fill="#848484" d="M116.375,130.894c0,2.42,0,4.84,0,7.26c2.42,0,4.84,0,7.247,0c0-2.42,0-4.84,0-7.26
	C121.215,130.894,118.795,130.894,116.375,130.894z"/>
<path fill="#848484" d="M116.375,94.598c0,2.42,0,4.839,0,7.259c2.42,0,4.84,0,7.247,0c0,4.84,0,9.68,0,14.519
	c2.42,0,4.839,0,7.259,0c0-2.42,0-4.839,0-7.259c2.42,0,4.854,0,7.272,0c0-2.42,0-4.84,0-7.26c2.42,0,4.84,0,7.259,0
	c0-2.42,0-4.839,0-7.259c2.42,0,4.84,0,7.26,0c0-7.26,0-14.519,0-21.778c-2.42,0-4.84,0-7.26,0c0-2.42,0-4.839,0-7.259
	c-2.419,0-4.839,0-7.259,0c0,4.839,0,9.68,0,14.519c2.42,0,4.84,0,7.259,0c0,2.419,0,4.839,0,7.259c-4.839,0-9.678,0-14.531,0
	c0,2.42,0,4.84,0,7.26c-2.42,0-4.839,0-7.259,0C121.215,94.598,118.795,94.598,116.375,94.598z"/>
<path fill="#232034" d="M123.622,130.894c0,2.42,0,4.84,0,7.26c2.42,0,4.839,0,7.259,0c0-2.42,0-4.84,0-7.26
	C128.461,130.894,126.042,130.894,123.622,130.894z"/>
<path fill="#DFF3FD" d="M123.622,43.556c0,2.419,0,4.839,0,7.259c2.42,0,4.839,0,7.259,0c0-2.419,0-4.839,0-7.259
	C128.461,43.556,126.042,43.556,123.622,43.556z"/>
<path fill="#232034" d="M130.881,116.375c0,4.84,0,9.68,0,14.519c2.42,0,4.854,0,7.272,0c0-2.419,0-4.839,0-7.259s0-4.839,0-7.26
	c2.42,0,4.84,0,7.259,0c0-2.42,0-4.839,0-7.259c2.42,0,4.84,0,7.26,0c0-2.42,0-4.84,0-7.26c2.407,0,4.827,0,7.246,0
	c0-4.839,0-9.679,0-14.519c0-4.839,0-9.679,0-14.519c-2.419,0-4.839,0-7.246,0c0,7.26,0,14.519,0,21.778c-2.42,0-4.84,0-7.26,0
	c0,2.42,0,4.839,0,7.259c-2.419,0-4.839,0-7.259,0c0,2.42,0,4.84,0,7.26c-2.419,0-4.853,0-7.272,0
	C130.881,111.537,130.881,113.956,130.881,116.375z"/>
<path fill="#848484" d="M130.881,58.302c0,2.419,0,4.839,0,7.259c2.42,0,4.854,0,7.272,0c0-2.419,0-4.839,0-7.259
	C135.734,58.302,133.301,58.302,130.881,58.302z"/>
<path fill="#DFF3FD" d="M138.153,116.375c0,2.421,0,4.84,0,7.26c2.42,0,4.84,0,7.259,0c0-2.42,0-4.839,0-7.26
	C142.993,116.375,140.573,116.375,138.153,116.375z"/>
<path fill="#232034" d="M138.153,58.302c0,2.419,0,4.839,0,7.259c2.42,0,4.84,0,7.259,0c0-2.419,0-4.839,0-7.259
	C142.993,58.302,140.573,58.302,138.153,58.302z"/>
<path fill="#232034" d="M145.412,65.561c0,2.42,0,4.839,0,7.259c2.42,0,4.84,0,7.26,0c0-2.42,0-4.839,0-7.259
	C150.252,65.561,147.832,65.561,145.412,65.561z"/>
<path fill="#DFF3FD" d="M159.918,87.338c0,4.84,0,9.68,0,14.519c2.42,0,4.852,0,7.272,0c0-2.42,0-4.839,0-7.259
	c2.42,0,4.84,0,7.26,0c0-2.193,0-4.386,0-6.579c0-0.227,0-0.454,0-0.681C169.61,87.338,164.77,87.338,159.918,87.338z"/>
<path fill="#FFFFFF" d="M195.774,145.413c-1.828,0-3.63,0-5.458,0c-1.727,0-3.466,0-5.204,0c-1.739,0-3.479,0-5.219,0
	c-0.92,0-1.814,0-2.722,0c-0.454,0-0.92,0-1.36,0c-0.24,0-0.455,0-0.681,0c-0.24,0-0.467,0-0.681,0c0-2.419,0-4.839,0-7.259
	c-4.84,0-9.681,0-14.532,0c0,2.42,0,4.84,0,7.259c2.42,0,4.852,0,7.272,0c0,0.228,0,0.454,0,0.681c0,1.815,0,3.63,0,5.445
	c0,1.739,0,3.478,0,5.217c0,1.74,0,3.479,0,5.218c0,0.908,0,1.815,0,2.723c0,0.453,0,0.907,0,1.361c0,0.227,0,0.453,0,0.68
	c0,0.228,0,0.454,0,0.681c-2.421,0-4.853,0-7.272,0c0,2.421,0,4.84,0,7.26c-0.214,0-0.44,0-0.681,0c-0.44,0-0.895,0-1.361,0
	c-0.226,0-0.44,0-0.668,0c-0.238,0-0.453,0-0.68,0c-0.454,0-0.92,0-1.36,0c-0.24,0-0.455,0-0.681,0c-0.151,0-0.303,0-0.454,0
	c-0.467,0-0.907,0-1.361,0c-0.227,0-0.467,0-0.693,0c-0.151,0-0.303,0-0.441,0c-0.239,0-0.453,0-0.68,0c-0.24,0-0.454,0-0.681,0
	c-0.24,0-0.454,0-0.681,0c-0.151,0-0.303,0-0.454,0c-0.467,0-0.907,0-1.361,0c-0.227,0-0.466,0-0.681,0c-0.227,0-0.466,0-0.692,0
	c-0.442,0-0.896,0-1.361,0c-0.214,0-0.44,0-0.681,0c-0.151,0-0.291,0-0.44,0c-0.454,0-0.921,0-1.361,0c-0.24,0-0.454,0-0.681,0
	c-0.151,0-0.303,0-0.454,0c-0.227,0-0.467,0-0.693,0c-0.214,0-0.441,0-0.681,0c-0.214,0-0.44,0-0.681,0c-0.151,0-0.303,0-0.44,0
	c-0.24,0-0.454,0-0.681,0c0-2.42,0-4.839,0-7.26c-2.419,0-4.853,0-7.272,0c0,2.421,0,4.84,0,7.26c-0.895,0-1.802,0-2.709,0
	c-0.454,0-0.92,0-1.361,0c-0.239,0-0.454,0-0.681,0c-0.239,0-0.454,0-0.681,0c-0.454,0-0.92,0-1.36,0c-0.24,0-0.467,0-0.681,0
	c-0.229,0-0.467,0-0.681,0c-0.467,0-0.907,0-1.361,0c-0.227,0-0.467,0-0.681,0c-0.227,0-0.467,0-0.681,0c-0.467,0-0.907,0-1.361,0
	c-0.227,0-0.467,0-0.692,0c-0.215,0-0.442,0-0.681,0c-0.441,0-0.896,0-1.361,0c-0.215,0-0.441,0-0.681,0c-0.215,0-0.441,0-0.681,0
	c-0.44,0-0.896,0-1.361,0c-0.214,0-0.44,0-0.681,0c-0.227,0-0.44,0-0.668,0c-0.453,0-0.92,0-1.36,0c-0.24,0-0.454,0-0.681,0
	c-0.24,0-0.454,0-0.681,0c0,2.42,0,4.839,0,7.259c-4.841,0-9.692,0-14.531,0c0,2.42,0,4.84,0,7.26c-4.902,0-9.818,0-14.746,0
	c0-2.42,0-4.84,0-7.26c-2.42,0-4.839,0-7.259,0c0-2.42,0-4.839,0-7.259c-2.407,0-4.827,0-7.247,0c0-2.42,0-4.839,0-7.26
	c-2.419,0-4.839,0-7.259,0c0-4.839,0-9.679,0-14.519c-2.42,0-4.841,0-7.272,0c0-0.681,0-1.36,0-2.041c0-0.605,0-1.21,0-1.814
	c0-1.211,0-2.421,0-3.631c-2.42,0-4.839,0-7.259,0c0-2.419,0-4.839,0-7.259c-2.407,0-4.827,0-7.247,0c0-2.42,0-4.84,0-7.26
	c-2.42,0-4.839,0-7.259,0c0-4.839,0-9.679,0-14.519c-2.42,0-4.84,0-7.272,0c0-4.839,0-9.679,0-14.519c-2.42,0-4.84,0-7.259,0
	c0-4.839,0-9.679,0-14.519c2.419,0,4.839,0,7.259,0c0-2.42,0-4.839,0-7.259c4.853,0,9.692,0,14.531,0c0-2.42,0-4.839,0-7.26
	c4.84,0,9.667,0,14.506,0c0-2.42,0-4.839,0-7.259c2.432,0,4.853,0,7.272,0c0-4.915,0-9.83,0-14.746c4.84,0,9.679,0,14.506,0
	c0-2.419,0-4.839,0-7.259c0.692,0,1.373,0,2.054,0c0.605,0,1.21,0,1.815,0c1.21,0,2.42,0,3.63,0s2.42,0,3.63,0
	c1.209,0,2.419,0,3.629,0c0,2.419,0,4.839,0,7.259c2.42,0,4.84,0,7.247,0c2.419,0,4.839,0,7.259,0c0-2.419,0-4.839,0-7.259
	c-2.42,0-4.84,0-7.259,0c0-0.227,0-0.454,0-0.681c0-1.739,0-3.478,0-5.218c0-0.454,0-0.907,0-1.361c0-0.227,0-0.454,0-0.68
	c0-0.151,0-0.303,0-0.454c0-0.454,0-0.907,0-1.361c0-0.226,0-0.453,0-0.68c0-0.151,0-0.302,0-0.454c0-1.739,0-3.478,0-5.218
	c0-0.454,0-0.907,0-1.361c0-0.227,0-0.454,0-0.681c0-0.151,0-0.303,0-0.454c0-0.454,0-0.907,0-1.36c0-0.227,0-0.454,0-0.681
	c0-0.151,0-0.303,0-0.454c0-0.227,0-0.454,0-0.681c4.839,0,9.69,0,14.531,0c0-2.42,0-4.839,0-7.259c7.259,0,14.506,0,21.765,0
	c0,2.42,0,4.839,0,7.259c2.42,0,4.854,0,7.272,0c0,2.42,0,4.84,0,7.26c7.259,0,14.519,0,21.765,0c0,2.419,0,4.839,0,7.259
	c2.42,0,4.852,0,7.272,0c0,4.84,0,9.679,0,14.519c-2.421,0-4.853,0-7.272,0c0,0.681,0,1.361,0,2.042c0,0.605,0,1.21,0,1.814
	c0,1.21,0,2.42,0,3.63c4.852,0,9.692,0,14.532,0c0-9.755,0-19.51,0-29.264c-2.42,0-4.84,0-7.26,0c0-0.228,0-0.454,0-0.681
	c0-1.966,0-3.933,0-5.898c0-0.227,0-0.454,0-0.681c-2.421,0-4.853,0-7.272,0c0-0.227,0-0.454,0-0.68c0-1.966,0-3.932,0-5.898
	c0-0.227,0-0.454,0-0.681c-2.419,0-4.839,0-7.246,0c0-0.227,0-0.454,0-0.681c0-1.966,0-3.932,0-5.898c0-0.227,0-0.454,0-0.68
	c-7.26,0-14.519,0-21.791,0c0-2.42,0-4.84,0-7.26c-9.666,0-19.345,0-29.037,0c0,2.42,0,4.839,0,7.26c-0.214,0-0.44,0-0.681,0
	c-4.6,0-9.212,0-13.825,0c0,2.419,0,4.839,0,7.259c-1.21,0-2.42,0-3.629,0c-0.618,0-1.21,0-1.828,0c-0.681,0-1.361,0-2.042,0
	c0,4.839,0,9.68,0,14.519c1.21,0,2.42,0,3.642,0c0.605,0,1.211,0,1.815,0c0.681,0,1.361,0,2.042,0c0,2.419,0,4.839,0,7.259
	c-9.768,0-19.522,0-29.264,0c0,2.42,0,4.84,0,7.26c-2.42,0-4.841,0-7.272,0c0,2.419,0,4.839,0,7.259c-0.214,0-0.44,0-0.681,0
	c-0.97,0-1.953,0-2.949,0c-0.214,0-0.44,0-0.681,0c-0.214,0-0.44,0-0.681,0c-0.528,0-1.058,0-1.587,0c-0.215,0-0.442,0-0.681,0
	c0,4.916,0,9.831,0,14.746c-0.151,0-0.303,0-0.44,0c-1.753,0-3.492,0-5.231,0c-1.802,0-3.617,0-5.433,0c-1.751,0-3.49,0-5.229,0
	c-1.802,0-3.617,0-5.444,0c0,2.42,0,4.839,0,7.259c-2.42,0-4.84,0-7.259,0c0,2.42,0,4.84,0,7.26c-0.215,0-0.441,0-0.681,0
	c-0.215,0-0.441,0-0.681,0c-0.215,0-0.441,0-0.681,0c-0.215,0-0.44,0-0.681,0c-0.289,0-0.592,0-0.895,0c-0.227,0-0.467,0-0.693,0
	c-0.214,0-0.441,0-0.681,0c-0.517,0-1.046,0-1.575,0c-0.227,0-0.467,0-0.681,0c0,2.419,0,4.839,0,7.259c-0.227,0-0.467,0-0.681,0
	c-0.227,0-0.467,0-0.681,0c-0.227,0-0.467,0-0.681,0c-0.529,0-1.059,0-1.588,0c-0.227,0-0.466,0-0.681,0c-0.226,0-0.466,0-0.681,0
	c-0.226,0-0.466,0-0.68,0c-0.315,0-0.618,0-0.907,0c-0.24,0-0.454,0-0.681,0c0,9.68,0,19.358,0,29.037c2.42,0,4.839,0,7.259,0
	c0,0.228,0,0.454,0,0.681c0,0.454,0,0.908,0,1.361c0,0.529,0,1.059,0,1.588c0,0.454,0,0.907,0,1.361c0,0.227,0,0.454,0,0.681
	c0,0.303,0,0.604,0,0.907c0,0.228,0,0.453,0,0.681c4.827,0,9.666,0,14.506,0c0,0.227,0,0.453,0,0.681c0,1.059,0,2.117,0,3.176
	c0,0.529,0,1.059,0,1.588c0,0.227,0,0.453,0,0.681c0.012,0.303,0,0.604,0,0.907c0,0.076,0,0.151,0,0.227c-0.227,0-0.44,0-0.669,0
	c-0.981,0-1.965,0-2.961,0c-0.97,0-1.953,0-2.948,0c-0.215,0-0.441,0-0.681,0c0,4.84,0,9.68,0,14.519c2.419,0,4.839,0,7.259,0
	c0.012,1.21,0,2.42,0,3.631c0,0.604,0.012,1.209,0,1.814c0,0.302,0,0.604,0,0.907c0,0.151,0,0.303,0,0.453c0,0.228,0,0.454,0,0.681
	c2.433,0,4.853,0,7.272,0c0,0.228,0,0.454,0,0.681c0,0.454,0,0.907,0,1.361c0,0.529,0,1.059,0,1.588c0,0.454,0,0.907,0,1.361
	c0,0.227,0,0.454,0,0.681c0,0.303,0,0.604,0,0.907c0,0.228,0,0.453,0,0.681c0.227,0,0.44,0,0.681,0c0.227,0,0.44,0,0.681,0
	c0.227,0,0.44,0,0.681,0c0.227,0,0.44,0,0.681,0c0.227,0,0.44,0,0.679,0c0.228,0,0.442,0,0.669,0c0.239,0,0.466,0,0.681,0
	c0.239,0,0.466,0,0.681,0c0.239,0,0.466,0,0.681,0c0.239,0,0.466,0,0.681,0c0.239,0,0.466,0,0.68,0c0.24,0,0.467,0,0.681,0
	c0.24,0,0.467,0,0.681,0c0.239,0,0.467,0,0.681,0c0.227,0,0.467,0,0.693,0c0.214,0,0.454,0,0.681,0c0.214,0,0.454,0,0.681,0
	c0.214,0,0.454,0,0.681,0c0.214,0,0.454,0,0.681,0c0.214,0,0.454,0,0.681,0c0.214,0,0.454,0,0.68,0c0.215,0,0.453,0,0.681,0
	c0.215,0,0.441,0,0.681,0c0.227,0,0.441,0,0.681,0c0.227,0,0.44,0,0.681,0c0.227,0,0.44,0,0.681,0c0.227,0,0.44,0,0.681,0
	c0.227,0,0.44,0,0.681,0c0.907,0,1.802,0,2.709,0c0,4.839,0,9.68,0,14.519c2.432,0,4.853,0,7.272,0c0,4.839,0,9.679,0,14.519
	c2.42,0,4.84,0,7.259,0c0,2.42,0,4.84,0,7.259c4.84,0,9.667,0,14.506,0c0,0.228,0,0.454,0,0.681c0,0.454,0,0.908,0,1.361
	c0,0.529,0,1.059,0,1.589c0,0.453,0,0.906,0,1.36c0,0.227,0,0.454,0,0.681c0,0.303,0,0.604,0,0.907c0,0.227,0,0.454,0,0.681
	c0.24,0,0.467,0,0.681,0c0.24,0,0.467,0,0.681,0c0.467,0,0.921,0,1.361,0c0.24,0,0.467,0,0.681,0c0.238,0,0.467,0,0.681,0
	c0.466,0,0.907,0,1.373,0c0.215,0,0.454,0,0.681,0c0.215,0,0.454,0,0.681,0c0.454,0,0.895,0,1.361,0c0.214,0,0.454,0,0.681,0
	c0.214,0,0.453,0,0.681,0c0.44,0,0.907,0,1.361,0c0.227,0,0.44,0,0.681,0c0.227,0,0.44,0,0.681,0c0.44,0,0.907,0,1.361,0
	c0.226,0,0.44,0,0.681,0c0.226,0,0.44,0,0.679,0c0.442,0,0.908,0,1.35,0c0.239,0,0.466,0,0.681,0c0.239,0,0.466,0,0.68,0
	c0.467,0,0.921,0,1.361,0c0.467,0,0.921,0,1.361,0c0.239,0,0.467,0,0.681,0c0.315,0,0.618,0,0.907,0c0-2.42,0-4.84,0-7.26
	c0.24,0,0.467,0,0.681,0c0.529,0,1.072,0,1.602,0c0.592,0,1.209,0,1.802,0c0.529,0,1.059,0,1.587,0c0.618,0,1.21,0,1.828,0
	c1.135,0,2.256,0,3.403,0c1.21,0,2.419,0,3.629,0c0-4.839,0-9.679,0-14.519c2.42,0,4.84,0,7.247,0c0,0.228,0,0.454,0,0.681
	c0,0.983,0,1.966,0,2.949c0,0.227,0,0.454,0,0.681s0,0.454,0,0.681c0,0.529,0,1.059,0,1.588c0,0.228,0,0.454,0,0.681
	c9.679,0,19.371,0,29.05,0c0-2.42,0-4.84,0-7.26c0.214,0,0.454,0,0.681,0c0.214,0,0.454,0,0.681,0c0.454,0,0.895,0,1.36,0
	c0.215,0,0.454,0,0.681,0c0.215,0,0.454,0,0.681,0c0.453,0,0.896,0,1.361,0c0.227,0,0.44,0,0.681,0c0.227,0,0.44,0,0.681,0
	c0.44,0,0.907,0,1.361,0c0.227,0,0.44,0,0.681,0c0.227,0,0.44,0,0.681,0c0.44,0,0.907,0,1.348,0c0.24,0,0.467,0,0.681,0
	c0.24,0,0.467,0,0.681,0c0.466,0,0.921,0,1.361,0c0.239,0,0.466,0,0.681,0c0.239,0,0.466,0,0.681,0c0.466,0,0.919,0,1.36,0
	c0.227,0,0.467,0,0.693,0c0.214,0,0.454,0,0.681,0c0.454,0,0.895,0,1.361,0c0.214,0,0.454,0,0.681,0c0.214,0,0.454,0,0.681,0
	c0.454,0,0.895,0,1.361,0c0-2.42,0-4.839,0-7.259c0.214,0,0.44,0,0.681,0c2.041,0,4.083,0,6.111,0c0.24,0,0.467,0,0.681,0
	c0-4.839,0-9.68,0-14.519c2.42,0,4.853,0,7.272,0c0-2.42,0-4.84,0-7.26c0.227,0,0.44,0,0.681,0c0.529,0,1.059,0,1.588,0
	c0.592,0,1.21,0,1.802,0c0.529,0,1.072,0,1.602,0c0.592,0,1.21,0,1.802,0c2.356,0,4.688,0,7.045,0c0-1.21,0-2.42,0-3.63
	c0-0.604,0-1.209,0-1.814c0-0.302,0-0.604,0-0.907c0-0.151,0-0.303,0-0.454c0-0.227,0-0.453,0-0.681c0.214,0,0.454,0,0.681,0
	c1.965,0,3.932,0,5.885,0c0.24,0,0.467,0,0.681,0c0-4.839,0-9.679,0-14.519c-2.419,0-4.839,0-7.246,0c0,2.42,0,4.84,0,7.26
	c-2.42,0-4.84,0-7.26,0c0,2.42,0,4.84,0,7.259C196.229,145.413,195.988,145.413,195.774,145.413z"/>
<path fill="#FFFFFF" d="M159.918,116.375c-2.18,0-4.373,0-6.565,0c-0.227,0-0.467,0-0.681,0c0,2.421,0,4.84,0,7.26
	c2.407,0,4.827,0,7.246,0c0,2.42,0,4.84,0,7.259c2.42,0,4.852,0,7.272,0c0-4.612,0-9.225,0-13.838c0-0.227,0-0.453,0-0.681
	c-0.088,0-0.151,0-0.239,0c-0.215,0-0.441,0-0.681,0c-0.151,0-0.289,0-0.44,0c-0.304,0-0.618,0-0.921,0c-0.289,0-0.592,0-0.895,0
	c-0.227,0-0.467,0-0.693,0c-0.592,0-1.197,0-1.802,0C160.989,116.375,160.447,116.375,159.918,116.375z"/>
<path fill="#FFFFFF" d="M174.45,58.302c0,2.419,0,4.839,0,7.259c4.901,0,9.83,0,14.745,0c0,2.42,0,4.839,0,7.259
	c4.84,0,9.679,0,14.519,0c0,2.42,0,4.84,0,7.26c2.407,0,4.827,0,7.246,0c0,4.839,0,9.679,0,14.519c-2.419,0-4.839,0-7.246,0
	c0,4.839,0,9.679,0,14.519c2.407,0,4.827,0,7.246,0c0,1.814,0,3.63,0,5.444s0,3.629,0,5.444s0,3.63,0,5.444c0,1.815,0,3.63,0,5.444
	c2.42,0,4.852,0,7.272,0c0-2.419,0-4.839,0-7.259c0.227,0,0.441,0,0.681,0c1.966,0,3.919,0,5.898,0c0.214,0,0.452,0,0.681,0
	c0-4.839,0-9.68,0-14.519c-2.42,0-4.84,0-7.26,0c0-0.151,0-0.303,0-0.454c0-1.739,0-3.479,0-5.218c0-1.814,0-3.629,0-5.443
	c0-1.74,0-3.479,0-5.218c0-1.815,0-3.63,0-5.445c2.42,0,4.84,0,7.26,0c0-4.839,0-9.679,0-14.519c-2.42,0-4.84,0-7.26,0
	c0-2.42,0-4.839,0-7.259c-4.853,0-9.691,0-14.519,0c0-2.419,0-4.839,0-7.259C193.946,58.302,184.205,58.302,174.45,58.302z"/>
<path fill="#DFF3FD" d="M183.524,101.857c-1.815,0-3.631,0-5.445,0c-3.629,0-7.259,0-10.889,0c0,2.42,0,4.84,0,7.26
	c2.42,0,4.84,0,7.26,0c0,2.42,0,4.839,0,7.259c0.063,0,0.151,0,0.214,0c0.315,0,0.618,0,0.907,0c0.303,0,0.617,0,0.92,0
	c0.593,0,1.21,0,1.803,0c1.209,0,2.419,0,3.629,0c0-2.42,0-4.839,0-7.259c2.42,0,4.853,0,7.272,0c0-2.193,0-4.386,0-6.579
	c0-0.227,0-0.453,0-0.681c-0.088,0-0.151,0-0.24,0c-0.895,0-1.802,0-2.722,0c-0.227,0-0.44,0-0.669,0c-0.238,0-0.452,0-0.679,0
	c-0.24,0-0.454,0-0.681,0C183.965,101.857,183.751,101.857,183.524,101.857z"/>
<g id="XMLID_2_">
	<g>
		<path fill="#232034" d="M138.911,153.936c0,2.33,0,4.67,0,7c2.42,0,4.83,0,7.26,0c0-2.25,0-4.49,0-6.74c-0.09,0-0.17,0-0.26,0
			c0-0.09,0-0.17,0-0.26C143.571,153.936,141.241,153.936,138.911,153.936z"/>
		<path fill="#232034" d="M138.911,161.196c0,2.25,0,4.49,0,6.74c2.42,0,4.83,0,7.26,0c0-2.25,0-4.49,0-6.74
			c-0.229,0-0.449,0-0.68,0c-1.07,0-2.12,0-3.18,0c-0.53,0-1.07,0-1.59,0c-0.301,0-0.601,0-0.9,0
			C139.511,161.196,139.211,161.196,138.911,161.196z"/>
		<path fill="#232034" d="M138.911,168.196c0,1.45,0,3.78,0,7c0.3,0,0.6,0,0.91,0c0.3,0,0.6,0,0.9,0c0.52,0,1.06,0,1.59,0
			c1.06,0,2.109,0,3.18,0c0.14,0,0.28,0,0.42,0c0-0.09,0-0.17,0-0.26c0.09,0,0.17,0,0.26,0c0-2.25,0-4.49,0-6.74
			c-0.229,0-0.449,0-0.68,0c-1.07,0-2.12,0-3.18,0c-0.53,0-1.07,0-1.59,0c-0.301,0-0.601,0-0.9,0
			C139.511,168.196,139.211,168.196,138.911,168.196z"/>
		<path fill="#232034" d="M146.171,167.936c-2.43,0-4.84,0-7.26,0c0,0.08,0,0.17,0,0.26c0.3,0,0.6,0,0.91,0c0.3,0,0.6,0,0.9,0
			c0.52,0,1.06,0,1.59,0c1.06,0,2.109,0,3.18,0c0.23,0,0.45,0,0.68,0C146.171,168.106,146.171,168.026,146.171,167.936z"/>
		<path fill="#232034" d="M146.171,160.936c-2.43,0-4.84,0-7.26,0c0,0.09,0,0.17,0,0.26c0.3,0,0.6,0,0.91,0c0.3,0,0.6,0,0.9,0
			c0.52,0,1.06,0,1.59,0c1.06,0,2.109,0,3.18,0c0.23,0,0.45,0,0.68,0C146.171,161.106,146.171,161.026,146.171,160.936z"/>
		<path fill="#232034" d="M145.911,175.196c0,2.33,0,4.67,0,7c0.3,0,0.6,0,0.91,0c0.3,0,0.6,0,0.9,0c0.52,0,1.06,0,1.59,0
			c1.06,0,2.109,0,3.18,0c0.23,0,0.45,0,0.68,0c0-2.33,0-4.67,0-7c-0.09,0-0.17,0-0.26,0c0-0.09,0-0.17,0-0.26
			c-2.26,0-4.49,0-6.74,0c0,0.09,0,0.17,0,0.26C146.081,175.196,146.001,175.196,145.911,175.196z"/>
		<path fill="#232034" d="M145.911,174.936c0,0.09,0,0.17,0,0.26c0.09,0,0.17,0,0.26,0c0-0.09,0-0.17,0-0.26
			C146.081,174.936,146.001,174.936,145.911,174.936z"/>
		<path fill="#232034" d="M145.911,153.936c0,0.09,0,0.17,0,0.26c0.09,0,0.17,0,0.26,0c0-0.09,0-0.17,0-0.26
			C146.081,153.936,146.001,153.936,145.911,153.936z"/>
		<path fill="#232034" d="M145.911,146.936c0,2.33,0,4.67,0,7c0.09,0,0.17,0,0.26,0c0,0.09,0,0.17,0,0.26c0.21,0,0.431,0,0.65,0
			c0.3,0,0.6,0,0.9,0c0.52,0,1.06,0,1.59,0c1.06,0,2.109,0,3.18,0c0.14,0,0.28,0,0.42,0c0-2.42,0-4.84,0-7.26
			C150.571,146.936,148.241,146.936,145.911,146.936z"/>
		<path fill="#C3CAD1" d="M146.171,154.196c0,2.25,0,4.49,0,6.74c0,0.09,0,0.17,0,0.26c0,2.25,0,4.49,0,6.74c0,0.09,0,0.17,0,0.26
			c0,2.25,0,4.49,0,6.74c2.25,0,4.48,0,6.74,0c0-2.25,0-4.49,0-6.74c0-0.09,0-0.17,0-0.26c0-2.33,0-4.67,0-7c2.42,0,4.83,0,7.26,0
			c0,2.33,0,4.67,0,7c0,0.09,0,0.17,0,0.26c0,2.25,0,4.49,0,6.74c2.25,0,4.48,0,6.74,0c0-2.25,0-4.49,0-6.74c0-0.08,0-0.17,0-0.26
			c0-1.45,0-3.78,0-7c2.42,0,4.83,0,7.26,0c0,2.33,0,4.67,0,7c0,0.09,0,0.17,0,0.26c0,2.25,0,4.49,0,6.74c2.25,0,4.48,0,6.74,0
			c0-2.25,0-4.49,0-6.74c0-0.09,0-0.17,0-0.26c0-2.25,0-4.49,0-6.74c0-0.09,0-0.17,0-0.26c0-2.25,0-4.49,0-6.74
			c-0.14,0-0.28,0-0.42,0c-1.07,0-2.12,0-3.18,0c-0.53,0-1.07,0-1.59,0c-0.301,0-0.601,0-0.9,0c-0.22,0-0.44,0-0.65,0
			c-0.09,0-0.17,0-0.26,0c-0.14,0-0.28,0-0.42,0c-1.07,0-2.12,0-3.18,0c-0.53,0-1.07,0-1.59,0c-0.301,0-0.601,0-0.9,0
			c-0.22,0-0.44,0-0.65,0c-0.09,0-0.17,0-0.26,0c-0.14,0-0.28,0-0.42,0c-1.07,0-2.12,0-3.18,0c-0.53,0-1.07,0-1.59,0
			c-0.301,0-0.601,0-0.9,0c-0.22,0-0.44,0-0.65,0c-0.09,0-0.17,0-0.26,0c-0.14,0-0.28,0-0.42,0c-1.07,0-2.12,0-3.18,0
			c-0.53,0-1.07,0-1.59,0c-0.301,0-0.601,0-0.9,0c-0.22,0-0.44,0-0.65,0c-0.09,0-0.17,0-0.26,0c-0.14,0-0.28,0-0.42,0
			c-1.07,0-2.12,0-3.18,0c-0.53,0-1.07,0-1.59,0c-0.301,0-0.601,0-0.9,0C146.602,154.196,146.381,154.196,146.171,154.196z"/>
		<path fill="#232034" d="M152.911,174.936c0,0.09,0,0.17,0,0.26c0.09,0,0.17,0,0.26,0c0-0.09,0-0.17,0-0.26
			C153.081,174.936,153.001,174.936,152.911,174.936z"/>
		<path fill="#232034" d="M152.911,160.936c0,2.33,0,4.67,0,7c2.42,0,4.83,0,7.26,0c0-2.33,0-4.67,0-7
			C157.741,160.936,155.331,160.936,152.911,160.936z"/>
		<path fill="#232034" d="M152.911,146.936c0,2.42,0,4.84,0,7.26c0.09,0,0.17,0,0.26,0c0-2.42,0-4.84,0-7.26
			C153.081,146.936,153.001,146.936,152.911,146.936z"/>
		<path fill="#232034" d="M152.911,168.196c0,2.25,0,4.49,0,6.74c0.09,0,0.17,0,0.26,0c0,0.09,0,0.17,0,0.26c0.21,0,0.431,0,0.65,0
			c0.3,0,0.6,0,0.9,0c0.52,0,1.06,0,1.59,0c1.06,0,2.109,0,3.18,0c0.14,0,0.28,0,0.42,0c0-0.09,0-0.17,0-0.26c0.09,0,0.17,0,0.26,0
			c0-2.25,0-4.49,0-6.74c-0.229,0-0.449,0-0.68,0c-1.07,0-2.12,0-3.18,0c-0.53,0-1.07,0-1.59,0c-0.301,0-0.601,0-0.9,0
			C153.511,168.196,153.211,168.196,152.911,168.196z"/>
		<path fill="#232034" d="M153.171,146.936c0,2.42,0,4.84,0,7.26c0.21,0,0.431,0,0.65,0c0.3,0,0.6,0,0.9,0c0.52,0,1.06,0,1.59,0
			c1.06,0,2.109,0,3.18,0c0.14,0,0.28,0,0.42,0c0-2.42,0-4.84,0-7.26C157.651,146.936,155.421,146.936,153.171,146.936z"/>
		<path fill="#232034" d="M160.171,167.936c-2.43,0-4.84,0-7.26,0c0,0.09,0,0.17,0,0.26c0.3,0,0.6,0,0.91,0c0.3,0,0.6,0,0.9,0
			c0.52,0,1.06,0,1.59,0c1.06,0,2.109,0,3.18,0c0.23,0,0.45,0,0.68,0C160.171,168.106,160.171,168.026,160.171,167.936z"/>
		<path fill="#232034" d="M159.911,175.196c0,2.33,0,4.67,0,7c0.3,0,0.6,0,0.91,0c0.3,0,0.6,0,0.9,0c0.52,0,1.06,0,1.59,0
			c1.06,0,2.109,0,3.18,0c0.23,0,0.45,0,0.68,0c0-2.33,0-4.67,0-7c-0.09,0-0.17,0-0.26,0c0-0.09,0-0.17,0-0.26
			c-2.26,0-4.49,0-6.74,0c0,0.09,0,0.17,0,0.26C160.081,175.196,160.001,175.196,159.911,175.196z"/>
		<path fill="#232034" d="M159.911,174.936c0,0.09,0,0.17,0,0.26c0.09,0,0.17,0,0.26,0c0-0.09,0-0.17,0-0.26
			C160.081,174.936,160.001,174.936,159.911,174.936z"/>
		<path fill="#232034" d="M159.911,146.936c0,2.42,0,4.84,0,7.26c0.09,0,0.17,0,0.26,0c0-2.42,0-4.84,0-7.26
			C160.081,146.936,160.001,146.936,159.911,146.936z"/>
		<path fill="#232034" d="M160.171,146.936c0,2.42,0,4.84,0,7.26c0.21,0,0.431,0,0.65,0c0.3,0,0.6,0,0.9,0c0.52,0,1.06,0,1.59,0
			c1.06,0,2.109,0,3.18,0c0.14,0,0.28,0,0.42,0c0-2.42,0-4.84,0-7.26C164.651,146.936,162.421,146.936,160.171,146.936z"/>
		<path fill="#232034" d="M166.911,174.936c0,0.09,0,0.17,0,0.26c0.09,0,0.17,0,0.26,0c0-0.09,0-0.17,0-0.26
			C167.081,174.936,167.001,174.936,166.911,174.936z"/>
		<path fill="#232034" d="M166.911,160.936c0,3.22,0,5.55,0,7c2.42,0,4.83,0,7.26,0c0-2.33,0-4.67,0-7
			C171.741,160.936,169.331,160.936,166.911,160.936z"/>
		<path fill="#232034" d="M166.911,146.936c0,2.42,0,4.84,0,7.26c0.09,0,0.17,0,0.26,0c0-2.42,0-4.84,0-7.26
			C167.081,146.936,167.001,146.936,166.911,146.936z"/>
		<path fill="#232034" d="M167.821,168.196c-0.311,0-0.61,0-0.91,0c0,2.25,0,4.49,0,6.74c0.09,0,0.17,0,0.26,0c0,0.09,0,0.17,0,0.26
			c0.21,0,0.431,0,0.65,0c0.3,0,0.6,0,0.9,0c0.52,0,1.06,0,1.59,0c1.06,0,2.109,0,3.18,0c0.14,0,0.28,0,0.42,0c0-0.09,0-0.17,0-0.26
			c0.09,0,0.17,0,0.26,0c0-2.25,0-4.49,0-6.74c-0.229,0-0.449,0-0.68,0c-1.07,0-2.12,0-3.18,0c-0.53,0-1.07,0-1.59,0
			C168.421,168.196,168.121,168.196,167.821,168.196z"/>
		<path fill="#232034" d="M167.171,146.936c0,2.42,0,4.84,0,7.26c0.21,0,0.431,0,0.65,0c0.3,0,0.6,0,0.9,0c0.52,0,1.06,0,1.59,0
			c1.06,0,2.109,0,3.18,0c0.14,0,0.28,0,0.42,0c0-2.42,0-4.84,0-7.26C171.651,146.936,169.421,146.936,167.171,146.936z"/>
		<path fill="#232034" d="M174.171,167.936c-2.43,0-4.84,0-7.26,0c0,0.09,0,0.18,0,0.26c0.3,0,0.6,0,0.91,0c0.3,0,0.6,0,0.9,0
			c0.52,0,1.06,0,1.59,0c1.06,0,2.109,0,3.18,0c0.23,0,0.45,0,0.68,0C174.171,168.106,174.171,168.026,174.171,167.936z"/>
		<path fill="#232034" d="M173.911,175.196c0,2.33,0,4.67,0,7c0.3,0,0.6,0,0.91,0c0.3,0,0.6,0,0.9,0c0.52,0,1.06,0,1.59,0
			c1.06,0,2.109,0,3.18,0c0.23,0,0.45,0,0.68,0c0-2.33,0-4.67,0-7c-0.09,0-0.17,0-0.26,0c0-0.09,0-0.17,0-0.26
			c-2.26,0-4.49,0-6.74,0c0,0.09,0,0.17,0,0.26C174.081,175.196,174.001,175.196,173.911,175.196z"/>
		<path fill="#232034" d="M173.911,174.936c0,0.09,0,0.17,0,0.26c0.09,0,0.17,0,0.26,0c0-0.09,0-0.17,0-0.26
			C174.081,174.936,174.001,174.936,173.911,174.936z"/>
		<path fill="#232034" d="M173.911,146.936c0,2.42,0,4.84,0,7.26c0.09,0,0.17,0,0.26,0c0-2.42,0-4.84,0-7.26
			C174.081,146.936,174.001,146.936,173.911,146.936z"/>
		<path fill="#232034" d="M174.171,146.936c0,2.42,0,4.84,0,7.26c0.21,0,0.431,0,0.65,0c0.3,0,0.6,0,0.9,0c0.52,0,1.06,0,1.59,0
			c1.06,0,2.109,0,3.18,0c0.14,0,0.28,0,0.42,0c0-0.09,0-0.17,0-0.26c0.09,0,0.17,0,0.26,0c0-2.33,0-4.67,0-7
			C178.831,146.936,176.501,146.936,174.171,146.936z"/>
		<path fill="#232034" d="M180.911,174.936c0,0.09,0,0.17,0,0.26c0.09,0,0.17,0,0.26,0c0-0.09,0-0.17,0-0.26
			C181.081,174.936,181.001,174.936,180.911,174.936z"/>
		<path fill="#232034" d="M180.911,154.196c0,2.25,0,4.49,0,6.74c2.42,0,4.83,0,7.26,0c0-2.33,0-4.67,0-7c-2.34,0-4.67,0-7,0
			c0,0.09,0,0.17,0,0.26C181.081,154.196,181.001,154.196,180.911,154.196z"/>
		<path fill="#232034" d="M180.911,153.936c0,0.09,0,0.17,0,0.26c0.09,0,0.17,0,0.26,0c0-0.09,0-0.17,0-0.26
			C181.081,153.936,181.001,153.936,180.911,153.936z"/>
		<path fill="#232034" d="M180.911,161.196c0,2.25,0,4.49,0,6.74c2.42,0,4.83,0,7.26,0c0-2.25,0-4.49,0-6.74
			c-0.229,0-0.449,0-0.68,0c-1.07,0-2.12,0-3.18,0c-0.53,0-1.07,0-1.59,0c-0.301,0-0.601,0-0.9,0
			C181.511,161.196,181.211,161.196,180.911,161.196z"/>
		<path fill="#232034" d="M180.911,168.196c0,2.25,0,4.49,0,6.74c0.09,0,0.17,0,0.26,0c0,0.09,0,0.17,0,0.26c0.21,0,0.431,0,0.65,0
			c0.3,0,0.6,0,0.9,0c0.52,0,1.06,0,1.59,0c1.06,0,2.109,0,3.18,0c0.23,0,0.45,0,0.68,0c0-2.33,0-4.67,0-7c-0.229,0-0.449,0-0.68,0
			c-1.07,0-2.12,0-3.18,0c-0.53,0-1.07,0-1.59,0c-0.301,0-0.601,0-0.9,0C181.511,168.196,181.211,168.196,180.911,168.196z"/>
		<path fill="#232034" d="M182.722,168.196c0.52,0,1.06,0,1.59,0c1.06,0,2.109,0,3.18,0c0.23,0,0.45,0,0.68,0c0-0.09,0-0.17,0-0.26
			c-2.43,0-4.84,0-7.26,0c0,0.09,0,0.17,0,0.26c0.3,0,0.6,0,0.91,0C182.121,168.196,182.421,168.196,182.722,168.196z"/>
		<path fill="#232034" d="M188.171,160.936c-2.43,0-4.84,0-7.26,0c0,0.09,0,0.17,0,0.26c0.3,0,0.6,0,0.91,0c0.3,0,0.6,0,0.9,0
			c0.52,0,1.06,0,1.59,0c1.06,0,2.109,0,3.18,0c0.23,0,0.45,0,0.68,0C188.171,161.106,188.171,161.026,188.171,160.936z"/>
	</g>
	<g>
	</g>
</g>
<g id="XMLID_1_">
	<g>
		<path fill="#232034" d="M22.548,153.936c0,2.33,0,4.67,0,7c2.42,0,4.83,0,7.26,0c0-2.25,0-4.49,0-6.74c-0.09,0-0.17,0-0.26,0
			c0-0.09,0-0.17,0-0.26C27.208,153.936,24.878,153.936,22.548,153.936z"/>
		<path fill="#232034" d="M22.548,161.196c0,2.25,0,4.49,0,6.74c2.42,0,4.83,0,7.26,0c0-2.25,0-4.49,0-6.74c-0.23,0-0.45,0-0.68,0
			c-1.07,0-2.12,0-3.18,0c-0.53,0-1.07,0-1.59,0c-0.3,0-0.6,0-0.9,0C23.148,161.196,22.848,161.196,22.548,161.196z"/>
		<path fill="#232034" d="M22.548,168.196c0,1.45,0,3.78,0,7c0.3,0,0.6,0,0.91,0c0.3,0,0.6,0,0.9,0c0.52,0,1.06,0,1.59,0
			c1.06,0,2.11,0,3.18,0c0.14,0,0.28,0,0.42,0c0-0.09,0-0.17,0-0.26c0.09,0,0.17,0,0.26,0c0-2.25,0-4.49,0-6.74
			c-0.23,0-0.45,0-0.68,0c-1.07,0-2.12,0-3.18,0c-0.53,0-1.07,0-1.59,0c-0.3,0-0.6,0-0.9,0
			C23.148,168.196,22.848,168.196,22.548,168.196z"/>
		<path fill="#232034" d="M29.808,167.936c-2.43,0-4.84,0-7.26,0c0,0.08,0,0.17,0,0.26c0.3,0,0.6,0,0.91,0c0.3,0,0.6,0,0.9,0
			c0.52,0,1.06,0,1.59,0c1.06,0,2.11,0,3.18,0c0.23,0,0.45,0,0.68,0C29.808,168.106,29.808,168.026,29.808,167.936z"/>
		<path fill="#232034" d="M29.808,160.936c-2.43,0-4.84,0-7.26,0c0,0.09,0,0.17,0,0.26c0.3,0,0.6,0,0.91,0c0.3,0,0.6,0,0.9,0
			c0.52,0,1.06,0,1.59,0c1.06,0,2.11,0,3.18,0c0.23,0,0.45,0,0.68,0C29.808,161.106,29.808,161.026,29.808,160.936z"/>
		<path fill="#232034" d="M29.548,175.196c0,2.33,0,4.67,0,7c0.3,0,0.6,0,0.91,0c0.3,0,0.6,0,0.9,0c0.52,0,1.06,0,1.59,0
			c1.06,0,2.11,0,3.18,0c0.23,0,0.45,0,0.68,0c0-2.33,0-4.67,0-7c-0.09,0-0.17,0-0.26,0c0-0.09,0-0.17,0-0.26c-2.26,0-4.49,0-6.74,0
			c0,0.09,0,0.17,0,0.26C29.718,175.196,29.638,175.196,29.548,175.196z"/>
		<path fill="#232034" d="M29.548,174.936c0,0.09,0,0.17,0,0.26c0.09,0,0.17,0,0.26,0c0-0.09,0-0.17,0-0.26
			C29.718,174.936,29.638,174.936,29.548,174.936z"/>
		<path fill="#232034" d="M29.548,153.936c0,0.09,0,0.17,0,0.26c0.09,0,0.17,0,0.26,0c0-0.09,0-0.17,0-0.26
			C29.718,153.936,29.638,153.936,29.548,153.936z"/>
		<path fill="#232034" d="M29.548,146.936c0,2.33,0,4.67,0,7c0.09,0,0.17,0,0.26,0c0,0.09,0,0.17,0,0.26c0.21,0,0.43,0,0.65,0
			c0.3,0,0.6,0,0.9,0c0.52,0,1.06,0,1.59,0c1.06,0,2.11,0,3.18,0c0.14,0,0.28,0,0.42,0c0-2.42,0-4.84,0-7.26
			C34.208,146.936,31.878,146.936,29.548,146.936z"/>
		<path fill="#C3CAD1" d="M29.808,154.196c0,2.25,0,4.49,0,6.74c0,0.09,0,0.17,0,0.26c0,2.25,0,4.49,0,6.74c0,0.09,0,0.17,0,0.26
			c0,2.25,0,4.49,0,6.74c2.25,0,4.48,0,6.74,0c0-2.25,0-4.49,0-6.74c0-0.09,0-0.17,0-0.26c0-2.33,0-4.67,0-7c2.42,0,4.83,0,7.26,0
			c0,2.33,0,4.67,0,7c0,0.09,0,0.17,0,0.26c0,2.25,0,4.49,0,6.74c2.25,0,4.48,0,6.74,0c0-2.25,0-4.49,0-6.74c0-0.08,0-0.17,0-0.26
			c0-1.45,0-3.78,0-7c2.42,0,4.83,0,7.26,0c0,2.33,0,4.67,0,7c0,0.09,0,0.17,0,0.26c0,2.25,0,4.49,0,6.74c2.25,0,4.48,0,6.74,0
			c0-2.25,0-4.49,0-6.74c0-0.09,0-0.17,0-0.26c0-2.25,0-4.49,0-6.74c0-0.09,0-0.17,0-0.26c0-2.25,0-4.49,0-6.74
			c-0.14,0-0.28,0-0.42,0c-1.07,0-2.12,0-3.18,0c-0.53,0-1.07,0-1.59,0c-0.3,0-0.6,0-0.9,0c-0.22,0-0.44,0-0.65,0
			c-0.09,0-0.17,0-0.26,0c-0.14,0-0.28,0-0.42,0c-1.07,0-2.12,0-3.18,0c-0.53,0-1.07,0-1.59,0c-0.3,0-0.6,0-0.9,0
			c-0.22,0-0.44,0-0.65,0c-0.09,0-0.17,0-0.26,0c-0.14,0-0.28,0-0.42,0c-1.07,0-2.12,0-3.18,0c-0.53,0-1.07,0-1.59,0
			c-0.3,0-0.6,0-0.9,0c-0.22,0-0.44,0-0.65,0c-0.09,0-0.17,0-0.26,0c-0.14,0-0.28,0-0.42,0c-1.07,0-2.12,0-3.18,0
			c-0.53,0-1.07,0-1.59,0c-0.3,0-0.6,0-0.9,0c-0.22,0-0.44,0-0.65,0c-0.09,0-0.17,0-0.26,0c-0.14,0-0.28,0-0.42,0
			c-1.07,0-2.12,0-3.18,0c-0.53,0-1.07,0-1.59,0c-0.3,0-0.6,0-0.9,0C30.238,154.196,30.018,154.196,29.808,154.196z"/>
		<path fill="#232034" d="M36.548,174.936c0,0.09,0,0.17,0,0.26c0.09,0,0.17,0,0.26,0c0-0.09,0-0.17,0-0.26
			C36.718,174.936,36.638,174.936,36.548,174.936z"/>
		<path fill="#232034" d="M36.548,160.936c0,2.33,0,4.67,0,7c2.42,0,4.83,0,7.26,0c0-2.33,0-4.67,0-7
			C41.378,160.936,38.968,160.936,36.548,160.936z"/>
		<path fill="#232034" d="M36.548,146.936c0,2.42,0,4.84,0,7.26c0.09,0,0.17,0,0.26,0c0-2.42,0-4.84,0-7.26
			C36.718,146.936,36.638,146.936,36.548,146.936z"/>
		<path fill="#232034" d="M36.548,168.196c0,2.25,0,4.49,0,6.74c0.09,0,0.17,0,0.26,0c0,0.09,0,0.17,0,0.26c0.21,0,0.43,0,0.65,0
			c0.3,0,0.6,0,0.9,0c0.52,0,1.06,0,1.59,0c1.06,0,2.11,0,3.18,0c0.14,0,0.28,0,0.42,0c0-0.09,0-0.17,0-0.26c0.09,0,0.17,0,0.26,0
			c0-2.25,0-4.49,0-6.74c-0.23,0-0.45,0-0.68,0c-1.07,0-2.12,0-3.18,0c-0.53,0-1.07,0-1.59,0c-0.3,0-0.6,0-0.9,0
			C37.148,168.196,36.848,168.196,36.548,168.196z"/>
		<path fill="#232034" d="M36.808,146.936c0,2.42,0,4.84,0,7.26c0.21,0,0.43,0,0.65,0c0.3,0,0.6,0,0.9,0c0.52,0,1.06,0,1.59,0
			c1.06,0,2.11,0,3.18,0c0.14,0,0.28,0,0.42,0c0-2.42,0-4.84,0-7.26C41.288,146.936,39.058,146.936,36.808,146.936z"/>
		<path fill="#232034" d="M39.948,168.196c1.06,0,2.11,0,3.18,0c0.23,0,0.45,0,0.68,0c0-0.09,0-0.17,0-0.26c-2.43,0-4.84,0-7.26,0
			c0,0.09,0,0.17,0,0.26c0.3,0,0.6,0,0.91,0c0.3,0,0.6,0,0.9,0C38.878,168.196,39.418,168.196,39.948,168.196z"/>
		<path fill="#232034" d="M43.548,175.196c0,2.33,0,4.67,0,7c0.3,0,0.6,0,0.91,0c0.3,0,0.6,0,0.9,0c0.52,0,1.06,0,1.59,0
			c1.06,0,2.11,0,3.18,0c0.23,0,0.45,0,0.68,0c0-2.33,0-4.67,0-7c-0.09,0-0.17,0-0.26,0c0-0.09,0-0.17,0-0.26c-2.26,0-4.49,0-6.74,0
			c0,0.09,0,0.17,0,0.26C43.718,175.196,43.638,175.196,43.548,175.196z"/>
		<path fill="#232034" d="M43.548,174.936c0,0.09,0,0.17,0,0.26c0.09,0,0.17,0,0.26,0c0-0.09,0-0.17,0-0.26
			C43.718,174.936,43.638,174.936,43.548,174.936z"/>
		<path fill="#232034" d="M43.548,146.936c0,2.42,0,4.84,0,7.26c0.09,0,0.17,0,0.26,0c0-2.42,0-4.84,0-7.26
			C43.718,146.936,43.638,146.936,43.548,146.936z"/>
		<path fill="#232034" d="M43.808,146.936c0,2.42,0,4.84,0,7.26c0.21,0,0.43,0,0.65,0c0.3,0,0.6,0,0.9,0c0.52,0,1.06,0,1.59,0
			c1.06,0,2.11,0,3.18,0c0.14,0,0.28,0,0.42,0c0-2.42,0-4.84,0-7.26C48.288,146.936,46.058,146.936,43.808,146.936z"/>
		<path fill="#232034" d="M50.548,174.936c0,0.09,0,0.17,0,0.26c0.09,0,0.17,0,0.26,0c0-0.09,0-0.17,0-0.26
			C50.718,174.936,50.638,174.936,50.548,174.936z"/>
		<path fill="#232034" d="M50.548,160.936c0,3.22,0,5.55,0,7c2.42,0,4.83,0,7.26,0c0-2.33,0-4.67,0-7
			C55.378,160.936,52.968,160.936,50.548,160.936z"/>
		<path fill="#232034" d="M50.548,146.936c0,2.42,0,4.84,0,7.26c0.09,0,0.17,0,0.26,0c0-2.42,0-4.84,0-7.26
			C50.718,146.936,50.638,146.936,50.548,146.936z"/>
		<path fill="#232034" d="M50.548,168.196c0,2.25,0,4.49,0,6.74c0.09,0,0.17,0,0.26,0c0,0.09,0,0.17,0,0.26c0.21,0,0.43,0,0.65,0
			c0.3,0,0.6,0,0.9,0c0.52,0,1.06,0,1.59,0c1.06,0,2.11,0,3.18,0c0.14,0,0.28,0,0.42,0c0-0.09,0-0.17,0-0.26c0.09,0,0.17,0,0.26,0
			c0-2.25,0-4.49,0-6.74c-0.23,0-0.45,0-0.68,0c-1.07,0-2.12,0-3.18,0c-0.53,0-1.07,0-1.59,0c-0.3,0-0.6,0-0.9,0
			C51.148,168.196,50.848,168.196,50.548,168.196z"/>
		<path fill="#232034" d="M50.808,146.936c0,2.42,0,4.84,0,7.26c0.21,0,0.43,0,0.65,0c0.3,0,0.6,0,0.9,0c0.52,0,1.06,0,1.59,0
			c1.06,0,2.11,0,3.18,0c0.14,0,0.28,0,0.42,0c0-2.42,0-4.84,0-7.26C55.288,146.936,53.058,146.936,50.808,146.936z"/>
		<path fill="#232034" d="M57.808,167.936c-2.43,0-4.84,0-7.26,0c0,0.09,0,0.18,0,0.26c0.3,0,0.6,0,0.91,0c0.3,0,0.6,0,0.9,0
			c0.52,0,1.06,0,1.59,0c1.06,0,2.11,0,3.18,0c0.23,0,0.45,0,0.68,0C57.808,168.106,57.808,168.026,57.808,167.936z"/>
		<path fill="#232034" d="M57.548,175.196c0,2.33,0,4.67,0,7c0.3,0,0.6,0,0.91,0c0.3,0,0.6,0,0.9,0c0.52,0,1.06,0,1.59,0
			c1.06,0,2.11,0,3.18,0c0.23,0,0.45,0,0.68,0c0-2.33,0-4.67,0-7c-0.09,0-0.17,0-0.26,0c0-0.09,0-0.17,0-0.26c-2.26,0-4.49,0-6.74,0
			c0,0.09,0,0.17,0,0.26C57.718,175.196,57.638,175.196,57.548,175.196z"/>
		<path fill="#232034" d="M57.548,174.936c0,0.09,0,0.17,0,0.26c0.09,0,0.17,0,0.26,0c0-0.09,0-0.17,0-0.26
			C57.718,174.936,57.638,174.936,57.548,174.936z"/>
		<path fill="#232034" d="M57.548,146.936c0,2.42,0,4.84,0,7.26c0.09,0,0.17,0,0.26,0c0-2.42,0-4.84,0-7.26
			C57.718,146.936,57.638,146.936,57.548,146.936z"/>
		<path fill="#232034" d="M57.808,146.936c0,2.42,0,4.84,0,7.26c0.21,0,0.43,0,0.65,0c0.3,0,0.6,0,0.9,0c0.52,0,1.06,0,1.59,0
			c1.06,0,2.11,0,3.18,0c0.14,0,0.28,0,0.42,0c0-0.09,0-0.17,0-0.26c0.09,0,0.17,0,0.26,0c0-2.33,0-4.67,0-7
			C62.468,146.936,60.138,146.936,57.808,146.936z"/>
		<path fill="#232034" d="M64.548,174.936c0,0.09,0,0.17,0,0.26c0.09,0,0.17,0,0.26,0c0-0.09,0-0.17,0-0.26
			C64.718,174.936,64.638,174.936,64.548,174.936z"/>
		<path fill="#232034" d="M64.548,154.196c0,2.25,0,4.49,0,6.74c2.42,0,4.83,0,7.26,0c0-2.33,0-4.67,0-7c-2.34,0-4.67,0-7,0
			c0,0.09,0,0.17,0,0.26C64.718,154.196,64.638,154.196,64.548,154.196z"/>
		<path fill="#232034" d="M64.548,153.936c0,0.09,0,0.17,0,0.26c0.09,0,0.17,0,0.26,0c0-0.09,0-0.17,0-0.26
			C64.718,153.936,64.638,153.936,64.548,153.936z"/>
		<path fill="#232034" d="M64.548,161.196c0,2.25,0,4.49,0,6.74c2.42,0,4.83,0,7.26,0c0-2.25,0-4.49,0-6.74c-0.23,0-0.45,0-0.68,0
			c-1.07,0-2.12,0-3.18,0c-0.53,0-1.07,0-1.59,0c-0.3,0-0.6,0-0.9,0C65.148,161.196,64.848,161.196,64.548,161.196z"/>
		<path fill="#232034" d="M64.548,168.196c0,2.25,0,4.49,0,6.74c0.09,0,0.17,0,0.26,0c0,0.09,0,0.17,0,0.26c0.21,0,0.43,0,0.65,0
			c0.3,0,0.6,0,0.9,0c0.52,0,1.06,0,1.59,0c1.06,0,2.11,0,3.18,0c0.23,0,0.45,0,0.68,0c0-2.33,0-4.67,0-7c-0.23,0-0.45,0-0.68,0
			c-1.07,0-2.12,0-3.18,0c-0.53,0-1.07,0-1.59,0c-0.3,0-0.6,0-0.9,0C65.148,168.196,64.848,168.196,64.548,168.196z"/>
		<path fill="#232034" d="M71.808,167.936c-2.43,0-4.84,0-7.26,0c0,0.09,0,0.17,0,0.26c0.3,0,0.6,0,0.91,0c0.3,0,0.6,0,0.9,0
			c0.52,0,1.06,0,1.59,0c1.06,0,2.11,0,3.18,0c0.23,0,0.45,0,0.68,0C71.808,168.106,71.808,168.026,71.808,167.936z"/>
		<path fill="#232034" d="M71.808,160.936c-2.43,0-4.84,0-7.26,0c0,0.09,0,0.17,0,0.26c0.3,0,0.6,0,0.91,0c0.3,0,0.6,0,0.9,0
			c0.52,0,1.06,0,1.59,0c1.06,0,2.11,0,3.18,0c0.23,0,0.45,0,0.68,0C71.808,161.106,71.808,161.026,71.808,160.936z"/>
	</g>
	<g>
	</g>
</g>
</svg>
