<?xml version="1.0" encoding="utf-8"?>
<!-- Generator: Adobe Illustrator 15.0.0, SVG Export Plug-In  -->
<!DOCTYPE svg PUBLIC "-//W3C//DTD SVG 1.1//EN" "http://www.w3.org/Graphics/SVG/1.1/DTD/svg11.dtd" [
	<!ENTITY ns_flows "http://ns.adobe.com/Flows/1.0/">
]>
<svg version="1.1"
	 xmlns="http://www.w3.org/2000/svg" xmlns:xlink="http://www.w3.org/1999/xlink" xmlns:a="http://ns.adobe.com/AdobeSVGViewerExtensions/3.0/"
	 x="0px" y="0px" width="300px" height="300px" viewBox="-44.267 -51.63 300 300" enable-background="new -44.267 -51.63 300 300"
	 xml:space="preserve">
<defs>
</defs>
<path fill="#73CEE0" d="M0,123.636c0,4.914,0,9.83,0,14.745c2.42,0,4.839,0,7.259,0c0,2.419,0,4.839,0,7.259c2.42,0,4.827,0,7.259,0
	c0,2.42,0,4.84,0,7.26c4.84,0,9.68,0,14.519,0c0,2.42,0,4.84,0,7.259c2.421,0,4.84,0,7.26,0c0,4.84,0,9.68,0,14.519
	c2.42,0,4.827,0,7.247,0c0,2.42,0,4.84,0,7.26c0.239,0,0.466,0,0.681,0c0.239,0,0.466,0,0.681,0c0.391,0,0.769,0,1.146,0
	c0.743,0,1.513,0,2.269,0s1.512,0,2.256,0c0.769,0,1.525,0,2.281,0c1.5,0,3.025,0,4.537,0c0.744,0,1.512,0,2.269,0s1.512,0,2.256,0
	c1.524,0,3.037,0,4.55,0c0.756,0,1.512,0,2.268,0c0.744,0,1.514,0,2.27,0s1.512,0,2.256,0c0.164,0,0.314,0,0.467,0
	c0.227,0,0.453,0,0.68,0c0.151,0,0.303,0,0.454,0c0.214,0,0.454,0,0.681,0c0.756,0,1.5,0,2.268,0c0.152,0,0.303,0,0.441,0
	c0.24,0,0.467,0,0.682,0c0.163,0,0.314,0,0.466,0c0.227,0,0.454,0,0.681,0c0-2.42,0-4.84,0-7.26c-7.26,0-14.52,0-21.778,0
	c0-2.42,0-4.839,0-7.259c-2.419,0-4.839,0-7.259,0c0-2.42,0-4.84,0-7.26c-2.496,0-4.991,0-7.499,0c0-4.839,0-9.679,0-14.519
	c-4.827,0-9.667,0-14.507,0c0-2.42,0-4.84,0-7.259c-2.432,0-4.839,0-7.259,0c0-2.495,0-4.991,0-7.486c-2.42,0-4.839,0-7.26,0
	c0-4.84,0-9.679,0-14.519c2.421,0,4.84,0,7.26,0c0-4.84,0-9.68,0-14.519c-2.42,0-4.839,0-7.26,0c0,2.42,0,4.839,0,7.259
	c-2.432,0-4.839,0-7.259,0c0,4.84,0,9.68,0,14.52C4.839,123.636,2.42,123.636,0,123.636z"/>
<path fill="#98D8DF" d="M45.597,87.339c0.605,0,1.197,0,1.803,0c1.21,0,2.432,0,3.643,0c0-4.84,0-9.679,0-14.519
	c2.42,0,4.84,0,7.259,0c0-0.681,0-1.361,0-2.042c0-0.605,0-1.21,0-1.814c0-0.605,0-1.21,0-1.815s0-1.21,0-1.815
	c0-0.604,0-1.21,0-1.815c0-0.604,0-1.209,0-1.814s0-1.21,0-1.815s0-1.209,0-1.815c0-0.604,0-1.209,0-1.814s0-1.21,0-1.815
	s0-1.209,0-1.814s0-1.21,0-1.815s0-1.21,0-1.815c0-0.605,0-1.21,0-1.814c0-0.605,0-1.21,0-1.815s0-1.21,0-1.815
	c2.42,0,4.827,0,7.259,0c0-4.839,0-9.679,0-14.519c0.228,0,0.455,0,0.668,0c1.752,0,3.492,0,5.23,0c0.441,0,0.908,0,1.361,0
	c0.227,0,0.441,0,0.681,0c0.151,0,0.29,0,0.454,0c0.453,0,0.907,0,1.361,0c0.227,0,0.44,0,0.68,0c0.152,0,0.303,0,0.453,0
	c0.908,0,1.803,0,2.723,0c0.454,0,0.908,0,1.361,0c0.215,0,0.454,0,0.682,0c0.138,0,0.301,0,0.453,0c0.453,0,0.906,0,1.361,0
	c0.214,0,0.453,0,0.68,0c0.151,0,0.303,0,0.454,0c0.441,0,0.907,0,1.361,0c0.227,0,0.454,0,0.681,0c0.15,0,0.289,0,0.453,0
	c0.228,0,0.441,0,0.681,0c0-2.419,0-4.839,0-7.259c0.228,0,0.454,0,0.681,0c0.895,0,1.814,0,2.723,0c0.227,0,0.453,0,0.68,0
	c0.228,0,0.455,0,0.668,0c0.24,0,0.467,0,0.682,0c0.163,0,0.314,0,0.466,0c0.227,0,0.454,0,0.681,0s0.453,0,0.668,0
	c0.239,0,0.467,0,0.681,0c0.163,0,0.315,0,0.466,0c0.215,0,0.454,0,0.682,0c0.226,0,0.453,0,0.68,0s0.453,0,0.668,0
	c0.164,0,0.314,0,0.467,0c0.906,0,1.814,0,2.709,0c0.24,0,0.467,0,0.681,0c0.239,0,0.467,0,0.692,0c0.228,0,0.454,0,0.682,0
	c0.15,0,0.303,0,0.441,0c0.238,0,0.466,0,0.68,0c0.24,0,0.467,0,0.693,0c0.227,0,0.454,0,0.681,0c0.151,0,0.303,0,0.441,0
	c0.24,0,0.467,0,0.681,0c0.24,0,0.466,0,0.68,0c0.239,0,0.467,0,0.693,0c0.151,0,0.303,0,0.453,0c0.228,0,0.454,0,0.669,0
	c0-2.42,0-4.84,0-7.26c4.852,0,9.691,0,14.519,0c0,2.42,0,4.84,0,7.26c0.681,0,1.373,0,2.054,0c0.605,0,1.21,0,1.814,0
	c1.198,0,2.408,0,3.63,0c2.42,0,4.84,0,7.26,0c0,2.419,0,4.839,0,7.259c9.68,0,19.358,0,29.037,0c0,2.42,0,4.839,0,7.26
	c2.42,0,4.84,0,7.247,0c0,2.42,0,4.839,0,7.259c2.432,0,4.852,0,7.271,0c0,9.755,0,19.51,0,29.265c0,9.679,0,19.358,0,29.037
	c2.42,0,4.84,0,7.247,0c0,0.227,0,0.454,0,0.681c0,1.059,0,2.117,0,3.176s0,2.117,0,3.176c0,2.117,0,4.234,0,6.352
	c0,4.16,0,8.318,0,12.478c0,4.234,0,8.469,0,12.703c0,2.118,0,4.235,0,6.353c0,2.041,0,4.083,0,6.125c-4.827,0-9.667,0-14.519,0
	c0,2.42,0,4.84,0,7.259c-2.407,0-4.827,0-7.247,0c0,2.42,0,4.84,0,7.26c-0.227,0-0.453,0-0.681,0c-1.739,0-3.479,0-5.218,0
	c-0.453,0-0.907,0-1.373,0c-0.215,0-0.441,0-0.669,0c-0.15,0-0.302,0-0.453,0c-0.454,0-0.907,0-1.374,0c-0.214,0-0.44,0-0.681,0
	c-0.138,0-0.289,0-0.44,0c-1.739,0-3.479,0-5.23,0c-0.441,0-0.895,0-1.349,0c-0.227,0-0.466,0-0.681,0c-0.151,0-0.303,0-0.466,0
	c-0.441,0-0.895,0-1.349,0c-0.227,0-0.467,0-0.681,0c-0.151,0-0.303,0-0.466,0c-0.215,0-0.441,0-0.681,0c0,2.42,0,4.839,0,7.259
	c-3.706,0-7.398,0-11.104,0c-3.63,0-7.259,0-10.901,0c0,2.42,0,4.84,0,7.26c-3.617,0-7.247,0-10.876,0c-3.643,0-7.26,0-10.89,0
	c-3.629,0-7.271,0-10.889,0c-3.63,0-7.26,0-10.889,0c0-2.42,0-4.84,0-7.26c-7.26,0-14.52,0-21.778,0c0-2.42,0-4.839,0-7.259
	c-2.419,0-4.839,0-7.259,0c0-2.42,0-4.84,0-7.26c-2.496,0-4.991,0-7.499,0c0-4.839,0-9.679,0-14.519c-4.827,0-9.667,0-14.507,0
	c0-2.42,0-4.84,0-7.259c-2.432,0-4.839,0-7.259,0c0-2.495,0-4.991,0-7.486c-2.42,0-4.839,0-7.26,0c0-4.84,0-9.679,0-14.519
	c2.421,0,4.84,0,7.26,0c0-4.84,0-9.68,0-14.519c3.63,0,7.259,0,10.89,0c3.629,0,7.259,0,10.876,0c0-4.84,0-9.679,0-14.519
	C44.224,87.339,44.904,87.339,45.597,87.339z M167.417,47.413c0-0.605,0-1.21,0-1.815c0-0.681,0-1.361,0-2.042
	c-9.679,0-19.357,0-29.037,0c0,1.21,0,2.42,0,3.63c0,0.604,0,1.209,0,1.814c0,0.681,0,1.361,0,2.042c-0.315,0-0.604,0-0.92,0
	c-0.214,0-0.441,0-0.668,0c-0.454,0-0.907,0-1.361,0c-0.907,0-1.815,0-2.722,0c-1.815,0-3.63,0-5.444,0c-3.643,0-7.26,0-10.89,0
	c0-0.605,0-1.21,0-1.815s0-1.209,0-1.814s0-1.21,0-1.815s0-1.21,0-1.814c0-0.605,0-1.21,0-1.815s0-1.21,0-1.815
	c0-0.605,0-1.21,0-1.815c0-0.681,0-1.36,0-2.041c-4.839,0-9.679,0-14.519,0c0,2.42,0,4.839,0,7.259c-0.239,0-0.453,0-0.68,0
	c-2.27,0-4.538,0-6.807,0c-2.344,0-4.688,0-7.032,0c0,1.134,0,2.269,0,3.403c0,0.605,0,1.21,0,1.814c0,0.605,0,1.21,0,1.815
	c0,0.227,0,0.454,0,0.681c0,0.302,0,0.605,0,0.907c0,0.605,0,1.211,0,1.815c0,0.605,0,1.21,0,1.815s0,1.21,0,1.815
	c0,0.227,0,0.453,0,0.681c-2.419,0-4.839,0-7.259,0c0,2.419,0,4.839,0,7.259c-2.433,0-4.84,0-7.26,0c0,4.84,0,9.679,0,14.519
	c-2.42,0-4.84,0-7.26,0c0,0.681,0,1.361,0,2.042c0,0.151,0,0.302,0,0.454c0,0.227,0,0.454,0,0.681c0,0.151,0,0.303,0,0.454
	c0,0.227,0,0.454,0,0.68c0,0.756,0,1.513,0,2.269c0,0.151,0,0.302,0,0.454c0,0.227,0,0.454,0,0.681c0,0.151,0,0.302,0,0.454
	c0,0.227,0,0.453,0,0.681c0,0.68,0,1.361,0,2.042c0,0.151,0,0.302,0,0.454c0,0.227,0,0.454,0,0.681c0,0.151,0,0.303,0,0.454
	c0,0.227,0,0.454,0,0.681c0,0.151,0,0.303,0,0.454c0,0.226,0,0.454,0,0.68c0,0.151,0,0.303,0,0.455c0,0.226,0,0.453,0,0.68
	c0,0.151,0,0.302,0,0.454c0,0.227,0,0.454,0,0.681c0,0.151,0,0.302,0,0.454c0,0.227,0,0.454,0,0.681c0,0.681,0,1.361,0,2.042
	c0,0.151,0,0.303,0,0.453c0,0.228,0,0.454,0,0.682c0,0.15,0,0.303,0,0.453c0,0.227,0,0.454,0,0.681c0,0.151,0,0.303,0,0.454
	c0,0.227,0,0.453,0,0.68c0,0.152,0,0.303,0,0.455c0,0.226,0,0.453,0,0.68c0,0.15,0,0.303,0,0.454c0,0.227,0,0.453,0,0.681
	c0,0.15,0,0.302,0,0.453c0,0.227,0,0.453,0,0.681c0,0.151,0,0.303,0,0.454c0,0.227,0,0.453,0,0.68c0,0.152,0,0.303,0,0.455
	c0,0.227,0,0.453,0,0.68c0,0.151,0,0.303,0,0.454c0,0.226,0,0.453,0,0.681c0,0.15,0,0.302,0,0.453c0,0.227,0,0.453,0,0.681
	c0,0.151,0,0.302,0,0.454c0,0.227,0,0.453,0,0.68c0,0.152,0,0.303,0,0.454c0,0.228,0,0.454,0,0.681c0,0.151,0,0.303,0,0.454
	c0,0.227,0,0.454,0,0.68c0,0.151,0,0.303,0,0.454c0,0.227,0,0.453,0,0.681c0,0.227,0,0.454,0,0.681c2.42,0,4.84,0,7.26,0
	c0,4.84,0,9.679,0,14.519c2.42,0,4.827,0,7.26,0c0,0.604,0,1.21,0,1.815c0,0.604,0,1.209,0,1.814c0,0.604,0,1.209,0,1.814
	c0,0.681,0,1.361,0,2.042c2.42,0,4.84,0,7.259,0c0,2.419,0,4.839,0,7.259s0,4.84,0,7.26c-0.239,0-0.453,0-0.681,0
	c-0.239,0-0.453,0-0.68,0c-0.228,0-0.454,0-0.682,0c-0.529,0-1.059,0-1.588,0c-0.227,0-0.466,0-0.68,0c-0.228,0-0.455,0-0.682,0
	s-0.453,0-0.68,0c-0.315,0-0.605,0-0.92,0c-0.215,0-0.441,0-0.668,0c0,2.42,0,4.84,0,7.259c4.84,0,9.679,0,14.506,0
	c0-4.839,0-9.679,0-14.519c2.433,0,4.852,0,7.271,0c0,2.42,0,4.84,0,7.26c2.42,0,4.84,0,7.247,0c0,2.42,0,4.84,0,7.259
	c4.852,0,9.691,0,14.519,0c0-2.419,0-4.839,0-7.259c0.239,0,0.466,0,0.681,0c1.071,0,2.13,0,3.188,0c1.122,0,2.27,0,3.403,0
	c2.269,0,4.537,0,6.806,0c0.228,0,0.441,0,0.681,0c0-2.42,0-4.84,0-7.26c0.227,0,0.453,0,0.681,0c4.612,0,9.225,0,13.838,0
	c0-2.42,0-4.84,0-7.259c2.42,0,4.84,0,7.247,0c0-3.63,0-7.26,0-10.89c0-3.705,0-7.41,0-11.115c2.433,0,4.852,0,7.271,0
	c0-9.68,0-19.358,0-29.037c0-9.679,0-19.358,0-29.037c2.42,0,4.84,0,7.247,0c0-2.42,0-4.84,0-7.26c-2.407,0-4.827,0-7.247,0
	C167.417,49.832,167.417,48.622,167.417,47.413z"/>
<path fill="#232034" d="M65.56,116.376c2.42,0,4.84,0,7.26,0c0-4.84,0-9.68,0-14.519c0-2.421,0-4.84,0-7.26c0-2.419,0-4.839,0-7.259
	c0-2.42,0-4.84,0-7.26c-2.42,0-4.84,0-7.26,0c0,0.681,0,1.361,0,2.042c0,0.151,0,0.302,0,0.454c0,0.227,0,0.454,0,0.681
	c0,0.151,0,0.303,0,0.454c0,0.227,0,0.454,0,0.68c0,0.756,0,1.513,0,2.269c0,0.151,0,0.302,0,0.454c0,0.227,0,0.454,0,0.681
	c0,0.151,0,0.302,0,0.454c0,0.227,0,0.453,0,0.681c0,0.68,0,1.361,0,2.042c0,0.151,0,0.302,0,0.454c0,0.227,0,0.454,0,0.681
	c0,0.151,0,0.303,0,0.454c0,0.227,0,0.454,0,0.681c0,0.151,0,0.303,0,0.454c0,0.226,0,0.454,0,0.68c0,0.151,0,0.303,0,0.455
	c0,0.226,0,0.453,0,0.68c0,0.151,0,0.302,0,0.454c0,0.227,0,0.454,0,0.681c0,0.151,0,0.302,0,0.454c0,0.227,0,0.454,0,0.681
	c0,0.681,0,1.361,0,2.042c0,0.151,0,0.303,0,0.453c0,0.228,0,0.454,0,0.682c0,0.15,0,0.303,0,0.453c0,0.227,0,0.454,0,0.681
	c0,0.151,0,0.303,0,0.454c0,0.227,0,0.453,0,0.68c0,0.152,0,0.303,0,0.455c0,0.226,0,0.453,0,0.68c0,0.15,0,0.303,0,0.454
	c0,0.227,0,0.453,0,0.681c0,0.15,0,0.302,0,0.453c0,0.227,0,0.453,0,0.681c0,0.151,0,0.303,0,0.454c0,0.227,0,0.453,0,0.68
	c0,0.152,0,0.303,0,0.455c0,0.227,0,0.453,0,0.68c0,0.151,0,0.303,0,0.454c0,0.226,0,0.453,0,0.681c0,0.15,0,0.302,0,0.453
	c0,0.227,0,0.453,0,0.681c0,0.151,0,0.302,0,0.454c0,0.227,0,0.453,0,0.68c0,0.152,0,0.303,0,0.454c0,0.228,0,0.454,0,0.681
	c0,0.151,0,0.303,0,0.454c0,0.227,0,0.454,0,0.68c0,0.151,0,0.303,0,0.454c0,0.227,0,0.453,0,0.681
	C65.56,115.922,65.56,116.149,65.56,116.376z"/>
<path fill="#232034" d="M72.819,116.376c0,4.84,0,9.679,0,14.519c2.42,0,4.827,0,7.26,0c0-2.42,0-4.84,0-7.259c0-2.42,0-4.84,0-7.26
	C77.646,116.376,75.239,116.376,72.819,116.376z"/>
<path fill="#FFFFFF" d="M72.819,94.598c0,2.42,0,4.839,0,7.26c2.42,0,4.827,0,7.26,0c0-2.421,0-4.84,0-7.26
	C77.646,94.598,75.239,94.598,72.819,94.598z"/>
<path fill="#010101" d="M72.819,87.339c0,2.419,0,4.839,0,7.259c2.42,0,4.827,0,7.26,0c0,2.42,0,4.839,0,7.26c2.42,0,4.84,0,7.259,0
	c0-4.84,0-9.679,0-14.519c-2.419,0-4.839,0-7.259,0C77.646,87.339,75.239,87.339,72.819,87.339z"/>
<path fill="#353635" d="M72.819,80.079c0,2.42,0,4.839,0,7.26c2.42,0,4.827,0,7.26,0c0-2.42,0-4.84,0-7.26
	C77.646,80.079,75.239,80.079,72.819,80.079z"/>
<path fill="#232034" d="M72.819,65.561c0,4.84,0,9.679,0,14.519c2.42,0,4.827,0,7.26,0c0-2.419,0-4.839,0-7.259
	c0-2.42,0-4.84,0-7.26C77.646,65.561,75.239,65.561,72.819,65.561z"/>
<path fill="#232034" d="M80.079,138.381c2.42,0,4.84,0,7.259,0c0-0.604,0-1.21,0-1.815s0-1.21,0-1.814c0-0.605,0-1.21,0-1.814
	c0-0.682,0-1.361,0-2.042c-2.419,0-4.839,0-7.259,0c0,0.604,0,1.21,0,1.815c0,0.604,0,1.209,0,1.814c0,0.604,0,1.209,0,1.814
	C80.079,137.02,80.079,137.7,80.079,138.381z"/>
<path fill="#5E5F5F" d="M80.079,123.636c0,2.419,0,4.839,0,7.259c2.42,0,4.84,0,7.259,0c0-2.42,0-4.84,0-7.259
	C84.919,123.636,82.499,123.636,80.079,123.636z"/>
<path fill="#010101" d="M80.079,116.376c0,2.42,0,4.84,0,7.26c2.42,0,4.84,0,7.259,0c0-2.42,0-4.84,0-7.26
	C84.919,116.376,82.499,116.376,80.079,116.376z"/>
<path fill="#353635" d="M80.079,65.561c0,2.42,0,4.84,0,7.26c2.42,0,4.84,0,7.259,0c0-2.42,0-4.84,0-7.26
	C84.919,65.561,82.499,65.561,80.079,65.561z"/>
<path fill="#232034" d="M80.079,58.302c0,2.419,0,4.839,0,7.259c2.42,0,4.84,0,7.259,0c2.42,0,4.827,0,7.247,0
	c0-2.42,0-4.839,0-7.259c-2.42,0-4.827,0-7.247,0C84.919,58.302,82.499,58.302,80.079,58.302z"/>
<path fill="#D6EEF1" d="M87.338,152.899c-0.239,0-0.453,0-0.681,0c-0.239,0-0.453,0-0.68,0c-0.228,0-0.454,0-0.682,0
	c-0.529,0-1.059,0-1.588,0c-0.227,0-0.466,0-0.68,0c-0.228,0-0.455,0-0.682,0s-0.453,0-0.68,0c-0.315,0-0.605,0-0.92,0
	c-0.215,0-0.441,0-0.668,0c0,2.42,0,4.84,0,7.259c4.84,0,9.679,0,14.506,0c0-4.839,0-9.679,0-14.519c-2.42,0-4.827,0-7.247,0
	C87.338,148.06,87.338,150.479,87.338,152.899z"/>
<path fill="#232034" d="M87.338,138.381c0,2.419,0,4.839,0,7.259c2.42,0,4.827,0,7.247,0c2.433,0,4.852,0,7.271,0
	c0.152,0,0.29,0,0.453,0c0.228,0,0.454,0,0.682,0c0.441,0,0.907,0,1.361,0c0.907,0,1.815,0,2.722,0c0.139,0,0.302,0,0.453,0
	c0.228,0,0.454,0,0.681,0c0.454,0,0.896,0,1.361,0c0.907,0,1.815,0,2.71,0c1.752,0,3.491,0,5.229,0c1.815,0,3.617,0,5.433,0
	c0.239,0,0.466,0,0.681,0c0-2.42,0-4.84,0-7.259c-2.407,0-4.827,0-7.247,0C106.696,138.381,97.018,138.381,87.338,138.381z"/>
<path fill="#010101" d="M87.338,123.636c0,2.419,0,4.839,0,7.259c2.42,0,4.827,0,7.247,0c0-2.42,0-4.84,0-7.259
	C92.165,123.636,89.758,123.636,87.338,123.636z"/>
<path fill="#010101" d="M87.338,101.857c0,2.42,0,4.839,0,7.259c0.302,0,0.604,0,0.907,0s0.605,0,0.908,0c0.529,0,1.046,0,1.588,0
	c1.059,0,2.117,0,3.176,0c0.227,0,0.453,0,0.668,0c0-0.075,0.012-0.151,0-0.227c0-0.075,0-0.15,0-0.227c0-0.151,0-0.303,0-0.453
	c0-0.303,0-0.605,0-0.908c0-0.529,0-1.059,0-1.588s0-1.059,0-1.588s0-1.059,0-1.588c0-0.227,0-0.454,0-0.681
	C92.165,101.857,89.758,101.857,87.338,101.857z"/>
<path fill="#D6EEF1" d="M101.177,43.556c-2.27,0-4.538,0-6.807,0c-2.344,0-4.688,0-7.032,0c0,1.134,0,2.269,0,3.403
	c0,0.605,0,1.21,0,1.814c0,0.605,0,1.21,0,1.815c0,0.227,0,0.454,0,0.681c0,0.302,0,0.605,0,0.907c0,0.605,0,1.211,0,1.815
	c0,0.605,0,1.21,0,1.815s0,1.21,0,1.815c0,0.227,0,0.453,0,0.681c2.42,0,4.827,0,7.247,0c0-2.42,0-4.84,0-7.26
	c0.239,0,0.467,0,0.681,0c1.827,0,3.642,0,5.457,0c0.895,0,1.814,0,2.71,0c0.466,0,0.919,0,1.373,0c0.227,0,0.454,0,0.681,0
	c0.151,0,0.303,0,0.441,0c0.92,0,1.828,0,2.735,0c0.441,0,0.907,0,1.361,0c0.227,0,0.453,0,0.681,0c0.151,0,0.289,0,0.453,0
	c0.908,0,1.803,0,2.723,0c0.453,0,0.895,0,1.361,0c0.214,0,0.453,0,0.681,0c0.138,0,0.302,0,0.453,0c0-0.605,0-1.21,0-1.815
	s0-1.209,0-1.814s0-1.21,0-1.815s0-1.21,0-1.814c0-0.605,0-1.21,0-1.815s0-1.21,0-1.815c0-0.605,0-1.21,0-1.815
	c0-0.681,0-1.36,0-2.041c-4.839,0-9.679,0-14.519,0c0,2.42,0,4.839,0,7.259C101.617,43.556,101.403,43.556,101.177,43.556z"/>
<path fill="#5E5F5F" d="M138.38,65.561c-1.21,0-2.42,0-3.63,0c-0.604,0-1.21,0-1.814,0c-0.681,0-1.361,0-2.042,0
	c0-2.42,0-4.839,0-7.259c-9.679,0-19.357,0-29.037,0c0,2.419,0,4.839,0,7.259c-2.42,0-4.839,0-7.271,0c-2.42,0-4.827,0-7.247,0
	c0,2.42,0,4.84,0,7.26c-2.419,0-4.839,0-7.259,0c0,2.419,0,4.839,0,7.259c0,2.42,0,4.839,0,7.26c2.42,0,4.84,0,7.259,0
	c0,4.839,0,9.679,0,14.519c2.42,0,4.827,0,7.247,0c0,0.227,0,0.454,0,0.681c0,0.529,0,1.059,0,1.588s0,1.059,0,1.588
	s0,1.059,0,1.588c0,0.303,0,0.605,0,0.908c0,0.15,0,0.302,0,0.453c0,0.076,0,0.151,0,0.227c0.012,0.075,0,0.151,0,0.227
	c-0.215,0-0.441,0-0.668,0c-1.059,0-2.117,0-3.176,0c-0.542,0-1.059,0-1.588,0c-0.303,0-0.605,0-0.908,0s-0.605,0-0.907,0
	c0-2.42,0-4.839,0-7.259c-2.419,0-4.839,0-7.259,0c-2.433,0-4.84,0-7.26,0c0,4.839,0,9.679,0,14.519c2.42,0,4.827,0,7.26,0
	c2.42,0,4.84,0,7.259,0c0,2.42,0,4.84,0,7.26c2.42,0,4.827,0,7.247,0c0-2.42,0-4.84,0-7.26c2.433,0,4.852,0,7.271,0
	c0,2.42,0,4.84,0,7.26c2.42,0,4.84,0,7.247,0c0-2.42,0-4.84,0-7.26c2.433,0,4.852,0,7.271,0c0,2.42,0,4.84,0,7.26
	c-2.42,0-4.839,0-7.271,0c0,2.419,0,4.839,0,7.259c-2.407,0-4.827,0-7.247,0c0-2.42,0-4.84,0-7.259c-2.42,0-4.839,0-7.271,0
	c0,2.419,0,4.839,0,7.259c-2.42,0-4.827,0-7.247,0c0,0.681,0,1.36,0,2.042c0,0.604,0,1.209,0,1.814c0,0.604,0,1.209,0,1.814
	s0,1.211,0,1.815c9.68,0,19.358,0,29.037,0c0-0.681,0-1.361,0-2.042c0-0.605,0-1.21,0-1.814c0-0.605,0-1.21,0-1.814
	c0-0.605,0-1.211,0-1.815c2.42,0,4.84,0,7.247,0c2.432,0,4.852,0,7.271,0c0-4.84,0-9.679,0-14.519c-2.42,0-4.84,0-7.271,0
	c0-4.84,0-9.68,0-14.519c-2.407,0-4.827,0-7.247,0s-4.839,0-7.271,0c-2.407,0-4.827,0-7.247,0c0-2.421,0-4.84,0-7.26
	c-2.42,0-4.839,0-7.271,0c0-0.227,0-0.453,0-0.681c0-0.529,0-1.058,0-1.587s0-1.059,0-1.588s0-1.059,0-1.588
	c0-0.303,0-0.604,0-0.907c0-0.151,0-0.302,0-0.454c0-0.076,0-0.151,0-0.227c0.012-0.076,0-0.151,0-0.227c2.433,0,4.852,0,7.271,0
	c3.63,0,7.247,0,10.89,0c3.629,0,7.259,0,10.876,0c0,2.419,0,4.839,0,7.259c2.432,0,4.852,0,7.271,0c0-2.419,0-4.839,0-7.259
	c0.681,0,1.361,0,2.042,0c0.604,0,1.21,0,1.814,0c1.21,0,2.42,0,3.63,0c2.42,0,4.827,0,7.247,0c0-2.42,0-4.84,0-7.26
	c-2.42,0-4.827,0-7.247,0C138.38,75.24,138.38,70.4,138.38,65.561z"/>
<path fill="#010101" d="M94.585,116.376c0,2.42,0,4.84,0,7.26c2.433,0,4.852,0,7.271,0c0-2.42,0-4.84,0-7.26
	C99.437,116.376,97.018,116.376,94.585,116.376z"/>
<path fill="#353635" d="M94.585,94.598c2.433,0,4.852,0,7.271,0c0-2.419,0-4.839,0-7.259c-2.42,0-4.839,0-7.271,0
	c0,0.076,0.012,0.151,0,0.227c0,0.076,0,0.151,0,0.227c0,0.151,0,0.302,0,0.454c0,0.303,0,0.604,0,0.907c0,0.529,0,1.059,0,1.588
	s0,1.059,0,1.588s0,1.059,0,1.587C94.585,94.145,94.585,94.371,94.585,94.598z"/>
<path fill="#353635" d="M94.585,58.302c0,2.419,0,4.839,0,7.259c2.433,0,4.852,0,7.271,0c0-2.42,0-4.839,0-7.259
	C99.437,58.302,97.018,58.302,94.585,58.302z"/>
<path fill="#232034" d="M135.431,51.042c-0.907,0-1.815,0-2.722,0c-1.815,0-3.63,0-5.444,0c-3.643,0-7.26,0-10.89,0
	c-0.151,0-0.315,0-0.453,0c-0.228,0-0.467,0-0.681,0c-0.467,0-0.908,0-1.361,0c-0.92,0-1.814,0-2.723,0c-0.164,0-0.302,0-0.453,0
	c-0.228,0-0.454,0-0.681,0c-0.454,0-0.92,0-1.361,0c-0.907,0-1.814,0-2.735,0c-0.138,0-0.29,0-0.441,0c-0.227,0-0.454,0-0.681,0
	c-0.454,0-0.907,0-1.373,0c-0.896,0-1.815,0-2.71,0c-1.815,0-3.63,0-5.457,0c-0.214,0-0.441,0-0.681,0c0,2.42,0,4.84,0,7.26
	c2.433,0,4.852,0,7.271,0c9.68,0,19.358,0,29.037,0c0.681,0,1.361,0,2.042,0c0.604,0,1.21,0,1.814,0c1.21,0,2.42,0,3.63,0
	c0-2.42,0-4.84,0-7.26c-0.315,0-0.604,0-0.92,0c-0.214,0-0.441,0-0.668,0C136.338,51.042,135.885,51.042,135.431,51.042z"/>
<path fill="#010101" d="M101.856,123.636c0,2.419,0,4.839,0,7.259c2.42,0,4.84,0,7.247,0c0-2.42,0-4.84,0-7.259
	C106.696,123.636,104.276,123.636,101.856,123.636z"/>
<path fill="#FFFFFF" d="M101.856,94.598c0,2.42,0,4.839,0,7.26c2.42,0,4.84,0,7.247,0c0-2.421,0-4.84,0-7.26
	C106.696,94.598,104.276,94.598,101.856,94.598z"/>
<path fill="#010101" d="M101.856,87.339c0,2.419,0,4.839,0,7.259c2.42,0,4.84,0,7.247,0c0,2.42,0,4.839,0,7.26
	c2.433,0,4.852,0,7.271,0c0-2.421,0-4.84,0-7.26c2.42,0,4.84,0,7.247,0c0-2.419,0-4.839,0-7.259c-3.617,0-7.247,0-10.876,0
	C109.104,87.339,105.486,87.339,101.856,87.339z"/>
<path fill="#D6EEF1" d="M107.074,145.64c-0.907,0-1.815,0-2.722,0c-0.454,0-0.919,0-1.361,0c-0.228,0-0.454,0-0.682,0
	c-0.163,0-0.301,0-0.453,0c0,2.42,0,4.84,0,7.26c2.42,0,4.84,0,7.247,0c0,2.42,0,4.84,0,7.259c4.852,0,9.691,0,14.519,0
	c0-2.419,0-4.839,0-7.259c0.239,0,0.466,0,0.681,0c1.071,0,2.13,0,3.188,0c1.122,0,2.27,0,3.403,0c2.269,0,4.537,0,6.806,0
	c0.228,0,0.441,0,0.681,0c0-2.42,0-4.84,0-7.26c0.227,0,0.453,0,0.681,0c4.612,0,9.225,0,13.838,0c0-2.42,0-4.84,0-7.259
	c-3.63,0-7.271,0-10.889,0c-3.706,0-7.411,0-11.116,0c-2.42,0-4.84,0-7.271,0c0,2.419,0,4.839,0,7.259c-0.215,0-0.441,0-0.681,0
	c-1.815,0-3.617,0-5.433,0c-1.738,0-3.478,0-5.229,0c-0.895,0-1.803,0-2.71,0c-0.466,0-0.907,0-1.361,0c-0.227,0-0.453,0-0.681,0
	C107.376,145.64,107.213,145.64,107.074,145.64z"/>
<path fill="#010101" d="M109.104,116.376c0,2.42,0,4.84,0,7.26c2.433,0,4.852,0,7.271,0c0-2.42,0-4.84,0-7.26
	C113.955,116.376,111.536,116.376,109.104,116.376z"/>
<path fill="#353635" d="M116.375,138.381c2.42,0,4.84,0,7.247,0c0-0.604,0-1.21,0-1.815s0-1.21,0-1.814c0-0.605,0-1.21,0-1.814
	c0-0.682,0-1.361,0-2.042c-2.407,0-4.827,0-7.247,0c0,0.604,0,1.21,0,1.815c0,0.604,0,1.209,0,1.814c0,0.604,0,1.209,0,1.814
	C116.375,137.02,116.375,137.7,116.375,138.381z"/>
<path fill="#232034" d="M123.622,138.381c2.432,0,4.852,0,7.271,0c0-0.604,0-1.21,0-1.815s0-1.21,0-1.814c0-0.605,0-1.21,0-1.814
	c0-0.682,0-1.361,0-2.042c-2.42,0-4.84,0-7.271,0c0,0.681,0,1.36,0,2.042c0,0.604,0,1.209,0,1.814c0,0.604,0,1.209,0,1.814
	S123.622,137.776,123.622,138.381z"/>
<path fill="#FFFFFF" d="M130.894,138.381c3.705,0,7.41,0,11.116,0c3.617,0,7.259,0,10.889,0c0-1.21,0-2.421,0-3.63
	c0-0.605,0-1.21,0-1.814c0-0.682,0-1.361,0-2.042c-2.42,0-4.839,0-7.271,0c0-4.84,0-9.679,0-14.519c-2.42,0-4.827,0-7.247,0
	c0,4.84,0,9.679,0,14.519c-1.21,0-2.42,0-3.63,0c-0.604,0-1.21,0-1.814,0c-0.681,0-1.361,0-2.042,0c0,0.681,0,1.36,0,2.042
	c0,0.604,0,1.209,0,1.814c0,0.604,0,1.209,0,1.814S130.894,137.776,130.894,138.381z"/>
<path fill="#353635" d="M138.38,58.302c-1.21,0-2.42,0-3.63,0c-0.604,0-1.21,0-1.814,0c-0.681,0-1.361,0-2.042,0
	c0,2.419,0,4.839,0,7.259c0.681,0,1.361,0,2.042,0c0.604,0,1.21,0,1.814,0c1.21,0,2.42,0,3.63,0
	C138.38,63.141,138.38,60.721,138.38,58.302z"/>
<path fill="#353635" d="M138.38,87.339c-1.21,0-2.42,0-3.63,0c-0.604,0-1.21,0-1.814,0c-0.681,0-1.361,0-2.042,0
	c0,2.419,0,4.839,0,7.259c-2.42,0-4.84,0-7.271,0c-2.407,0-4.827,0-7.247,0c0,2.42,0,4.839,0,7.26c2.42,0,4.84,0,7.247,0
	c0,4.839,0,9.679,0,14.519c2.432,0,4.852,0,7.271,0c0-2.42,0-4.84,0-7.26c0.681,0,1.361,0,2.042,0c0.604,0,1.21,0,1.814,0
	c1.21,0,2.42,0,3.63,0c0-2.42,0-4.839,0-7.259c2.42,0,4.827,0,7.247,0c0-2.421,0-4.84,0-7.26c2.433,0,4.852,0,7.271,0
	c0-3.629,0-7.259,0-10.889s0-7.259,0-10.889c-2.42,0-4.839,0-7.271,0c0-2.42,0-4.84,0-7.26c-2.42,0-4.827,0-7.247,0
	c0,4.84,0,9.679,0,14.519c2.42,0,4.827,0,7.247,0c0,2.42,0,4.839,0,7.26C143.207,87.339,140.8,87.339,138.38,87.339z"/>
<path fill="#232034" d="M138.38,109.116c-1.21,0-2.42,0-3.63,0c-0.604,0-1.21,0-1.814,0c-0.681,0-1.361,0-2.042,0
	c0,2.42,0,4.84,0,7.26c0,4.84,0,9.679,0,14.519c0.681,0,1.361,0,2.042,0c0.604,0,1.21,0,1.814,0c1.21,0,2.42,0,3.63,0
	c0-4.84,0-9.679,0-14.519c2.42,0,4.827,0,7.247,0c0-2.42,0-4.84,0-7.26c2.433,0,4.852,0,7.271,0c0-2.42,0-4.839,0-7.259
	c2.42,0,4.84,0,7.247,0c0-9.679,0-19.358,0-29.037c-2.407,0-4.827,0-7.247,0c0,3.629,0,7.259,0,10.889s0,7.259,0,10.889
	c-2.42,0-4.839,0-7.271,0c0,2.42,0,4.839,0,7.26c-2.42,0-4.827,0-7.247,0C138.38,104.277,138.38,106.696,138.38,109.116z"/>
<path fill="#232034" d="M138.38,58.302c0,2.419,0,4.839,0,7.259c2.42,0,4.827,0,7.247,0c0-2.42,0-4.839,0-7.259
	C143.207,58.302,140.8,58.302,138.38,58.302z"/>
<path fill="#D6EEF1" d="M152.898,138.381c2.42,0,4.84,0,7.247,0c0-3.63,0-7.26,0-10.89c0-3.705,0-7.41,0-11.115
	c2.433,0,4.852,0,7.271,0c0-9.68,0-19.358,0-29.037c0-9.679,0-19.358,0-29.037c2.42,0,4.84,0,7.247,0c0-2.42,0-4.84,0-7.26
	c-2.407,0-4.827,0-7.247,0c0-1.21,0-2.42,0-3.629c0-0.605,0-1.21,0-1.815c0-0.681,0-1.361,0-2.042c-9.679,0-19.357,0-29.037,0
	c0,1.21,0,2.42,0,3.63c0,0.604,0,1.209,0,1.814c0,0.681,0,1.361,0,2.042c0,2.42,0,4.84,0,7.26c2.42,0,4.827,0,7.247,0
	c0,2.419,0,4.839,0,7.259c2.433,0,4.852,0,7.271,0c0,2.42,0,4.84,0,7.26c2.42,0,4.84,0,7.247,0c0,9.679,0,19.358,0,29.037
	c-2.407,0-4.827,0-7.247,0c0,2.42,0,4.839,0,7.259s0,4.84,0,7.26c-2.42,0-4.839,0-7.271,0c0,4.84,0,9.679,0,14.519
	c2.433,0,4.852,0,7.271,0c0,0.681,0,1.36,0,2.042c0,0.604,0,1.209,0,1.814C152.898,135.96,152.898,137.171,152.898,138.381z"/>
<path fill="#FFFFFF" d="M145.627,109.116c0,2.42,0,4.84,0,7.26c2.433,0,4.852,0,7.271,0c0-2.42,0-4.84,0-7.26
	C150.479,109.116,148.06,109.116,145.627,109.116z"/>
<path fill="#232034" d="M145.627,65.561c0,2.42,0,4.84,0,7.26c2.433,0,4.852,0,7.271,0c0-2.42,0-4.84,0-7.26
	C150.479,65.561,148.06,65.561,145.627,65.561z"/>
<path fill="#73CEE0" d="M189.183,105.714c0,1.059,0,2.117,0,3.176c0,2.117,0,4.234,0,6.352c0,4.16,0,8.318,0,12.478
	c0,4.234,0,8.469,0,12.703c0,2.118,0,4.235,0,6.353c0,2.041,0,4.083,0,6.125c-4.827,0-9.667,0-14.519,0c0,2.42,0,4.84,0,7.259
	c-2.407,0-4.827,0-7.247,0c0,2.42,0,4.84,0,7.26c-0.227,0-0.453,0-0.681,0c-1.739,0-3.479,0-5.218,0c-0.453,0-0.907,0-1.373,0
	c-0.215,0-0.441,0-0.669,0c-0.15,0-0.302,0-0.453,0c-0.454,0-0.907,0-1.374,0c-0.214,0-0.44,0-0.681,0c-0.138,0-0.289,0-0.44,0
	c-1.739,0-3.479,0-5.23,0c-0.441,0-0.895,0-1.349,0c-0.227,0-0.466,0-0.681,0c-0.151,0-0.303,0-0.466,0c-0.441,0-0.895,0-1.349,0
	c-0.227,0-0.467,0-0.681,0c-0.151,0-0.303,0-0.466,0c-0.215,0-0.441,0-0.681,0c0,2.42,0,4.839,0,7.259c-3.706,0-7.398,0-11.104,0
	c-3.63,0-7.259,0-10.901,0c0,2.42,0,4.84,0,7.26c-3.617,0-7.247,0-10.876,0c-3.643,0-7.26,0-10.89,0c-3.629,0-7.271,0-10.889,0
	c-3.63,0-7.26,0-10.889,0c0,2.42,0,4.84,0,7.26c2.42,0,4.84,0,7.259,0c0,2.419,0,4.839,0,7.258c1.437,0,2.861,0,4.311,0
	c0.756,0,1.513,0,2.269,0c0.139,0,0.303,0,0.453,0c0.215,0,0.454,0,0.682,0c0.15,0,0.302,0,0.453,0c0.227,0,0.441,0,0.681,0
	c1.437,0,2.86,0,4.31,0c0.757,0,1.514,0,2.269,0c0.151,0,0.303,0,0.454,0c0.215,0,0.453,0,0.681,0c0.139,0,0.302,0,0.454,0
	c0.227,0,0.454,0,0.681,0c5.96,0,11.948,0,17.909,0c0.239,0,0.466,0,0.681,0c0-2.419,0-4.839,0-7.258c2.432,0,4.852,0,7.271,0
	c1.21,0,2.42,0,3.63,0c0.604,0,1.21,0,1.814,0c0.681,0,1.361,0,2.042,0c0-2.42,0-4.84,0-7.26c4.827,0,9.68,0,14.519,0
	c0-2.42,0-4.84,0-7.26c9.68,0,19.358,0,29.037,0c0-2.42,0-4.839,0-7.259c2.42,0,4.84,0,7.247,0c0-2.42,0-4.84,0-7.26
	c2.432,0,4.853,0,7.271,0c0-4.839,0-9.679,0-14.519c4.84,0,9.667,0,14.519,0c0-4.915,0-9.83,0-14.745c-2.419,0-4.852,0-7.271,0
	c0-0.228,0-0.454,0-0.681c0-0.378,0-0.756,0-1.135c0-0.453,0-0.906,0-1.36c0-0.378,0-0.757,0-1.135c0-0.454,0-0.907,0-1.36
	c0-1.74,0-3.479,0-5.218c0-0.379,0-0.757,0-1.134c0-0.455,0-0.908,0-1.361c0-0.379,0-0.757,0-1.135c0-0.454,0-0.908,0-1.361
	c0-1.739,0-3.479,0-5.218c0-0.228,0-0.453,0-0.681c-2.407,0-4.827,0-7.247,0c0-4.839,0-9.68,0-14.519c2.42,0,4.84,0,7.247,0
	c0-0.076,0-0.151,0-0.227c0-0.831,0-1.663,0-2.495c0-0.907,0-1.815,0-2.722c0-1.814,0-3.629,0-5.444c0-3.63,0-7.259,0-10.889
	c-2.407,0-4.827,0-7.247,0c0-4.84,0-9.68,0-14.519c-2.419,0-4.84,0-7.271,0c0-1.815,0-3.63,0-5.445c0-1.814,0-3.629,0-5.444
	c0-1.815,0-3.629,0-5.444c0-1.891,0-3.781,0-5.671c-2.407,0-4.827,0-7.247,0c0-2.42,0-4.84,0-7.26c-2.42,0-4.84,0-7.271,0
	c0-2.419,0-4.839,0-7.259c-2.407,0-4.827,0-7.247,0c0-2.42,0-4.84,0-7.26c-0.151,0-0.315,0-0.453,0c-0.681,0-1.361,0-2.042,0
	c-0.151,0-0.315,0-0.454,0c-0.227,0-0.466,0-0.68,0c-0.152,0-0.304,0-0.467,0c-0.214,0-0.441,0-0.681,0c-0.139,0-0.29,0-0.441,0
	c-0.227,0-0.453,0-0.681,0c-0.151,0-0.302,0-0.453,0c-0.239,0-0.454,0-0.681,0c-0.164,0-0.303,0-0.454,0c-0.227,0-0.454,0-0.681,0
	c-0.151,0-0.314,0-0.453,0c-0.228,0-0.467,0-0.681,0c-0.151,0-0.303,0-0.467,0c-0.214,0-0.44,0-0.681,0c-0.138,0-0.289,0-0.44,0
	c-0.228,0-0.454,0-0.681,0c-0.151,0-0.303,0-0.454,0c-0.239,0-0.453,0-0.681,0c-0.163,0-0.303,0-0.453,0c-0.228,0-0.454,0-0.681,0
	c-0.151,0-0.315,0-0.453,0c-0.228,0-0.467,0-0.681,0c-0.151,0-0.303,0-0.467,0c-0.214,0-0.441,0-0.681,0c-0.139,0-0.29,0-0.441,0
	c-0.227,0-0.453,0-0.681,0c-0.151,0-0.302,0-0.453,0c-0.239,0-0.454,0-0.681,0c-0.164,0-0.303,0-0.454,0c-0.227,0-0.454,0-0.68,0
	c-0.151,0-0.315,0-0.454,0c-0.227,0-0.467,0-0.681,0c-0.151,0-0.303,0-0.466,0c-0.215,0-0.441,0-0.681,0c-0.139,0-0.29,0-0.441,0
	c-0.228,0-0.454,0-0.681,0c-0.151,0-0.303,0-0.454,0c-0.239,0-0.453,0-0.681,0c-0.163,0-0.303,0-0.453,0c-0.227,0-0.454,0-0.681,0
	c-0.151,0-0.315,0-0.453,0c-0.228,0-0.467,0-0.681,0c-0.151,0-0.303,0-0.467,0c-0.214,0-0.441,0-0.681,0c-0.139,0-0.29,0-0.441,0
	c-0.227,0-0.453,0-0.681,0c-0.151,0-0.302,0-0.453,0c-0.239,0-0.453,0-0.681,0c-0.164,0-0.303,0-0.453,0c-0.228,0-0.454,0-0.681,0
	c-0.151,0-0.315,0-0.454,0c-0.227,0-0.466,0-0.681,0c-0.151,0-0.303,0-0.466,0c-0.215,0-0.441,0-0.681,0c-0.139,0-0.29,0-0.441,0
	c-0.228,0-0.454,0-0.681,0c-0.151,0-0.302,0-0.453,0c-0.24,0-0.454,0-0.681,0c-0.164,0-0.303,0-0.454,0c-0.227,0-0.454,0-0.681,0
	c0-0.605,0-1.21,0-1.814c0-0.605,0-1.21,0-1.815s0-1.21,0-1.815s0-1.21,0-1.814c-2.42,0-4.84,0-7.271,0c0-0.228,0-0.454,0-0.681
	c0-0.227,0-0.454,0-0.681c0-0.303,0-0.605,0-0.908c0-0.529,0-1.059,0-1.588c0-0.227,0-0.454,0-0.68c0-0.303,0-0.605,0-0.908
	c0-0.226,0-0.453,0-0.681c0-0.302,0-0.604,0-0.907c0-0.076,0-0.151,0-0.227c-0.076,0-0.139,0-0.215,0c-3.63,0-7.259,0-10.889,0
	c-1.814,0-3.63,0-5.444,0c-1.751,0-3.479,0-5.218,0c0,0.303,0,0.605,0,0.908c0,0.302,0,0.605,0,0.907c0,0.605,0,1.21,0,1.815
	c0,0.605,0,1.21,0,1.815s0,1.21,0,1.815c-4.839,0-9.691,0-14.519,0c0,0.302,0,0.604,0,0.907c0,0.303,0,0.605,0,0.908
	c0,0.605,0,1.21,0,1.815c0,1.209,0,2.419,0,3.629c-0.239,0-0.453,0-0.681,0c-0.164,0-0.303,0-0.453,0c-0.227,0-0.454,0-0.681,0
	c-0.454,0-0.92,0-1.361,0c-0.151,0-0.303,0-0.454,0c-0.227,0-0.466,0-0.68,0c-0.455,0-0.908,0-1.361,0c-0.152,0-0.315,0-0.453,0
	c-0.228,0-0.467,0-0.682,0c-0.453,0-0.907,0-1.361,0c-0.92,0-1.814,0-2.723,0c-0.15,0-0.301,0-0.453,0c-0.239,0-0.453,0-0.68,0
	c-0.454,0-0.908,0-1.361,0c-0.164,0-0.303,0-0.454,0c-0.239,0-0.454,0-0.681,0c-0.453,0-0.92,0-1.361,0c-1.738,0-3.479,0-5.23,0
	c-0.213,0-0.44,0-0.668,0c0,2.42,0,4.84,0,7.26c-2.432,0-4.839,0-7.259,0c0,2.419,0,4.839,0,7.259c-2.419,0-4.839,0-7.259,0
	c0,2.42,0,4.839,0,7.26c-2.496,0-4.991,0-7.499,0c0,1.814,0,3.629,0,5.444c0,1.814,0,3.629,0,5.444c0.012,3.63,0,7.259,0,10.889
	c0.012,3.63,0,7.26,0,10.89c0,1.814,0,3.629,0,5.444c0,1.891,0,3.781,0,5.671c-2.42,0-4.827,0-7.247,0c0,4.839,0,9.679,0,14.519
	c-4.839,0-9.691,0-14.519,0c0,2.42,0,4.839,0,7.26c3.63,0,7.259,0,10.89,0c3.629,0,7.259,0,10.876,0c0-4.84,0-9.679,0-14.519
	c0.681,0,1.361,0,2.054,0c0.605,0,1.197,0,1.803,0c1.21,0,2.432,0,3.643,0c0-4.84,0-9.679,0-14.519c2.42,0,4.84,0,7.259,0
	c0-0.681,0-1.361,0-2.042c0-0.605,0-1.21,0-1.814c0-0.605,0-1.21,0-1.815s0-1.21,0-1.815c0-0.604,0-1.21,0-1.815
	c0-0.604,0-1.209,0-1.814s0-1.21,0-1.815s0-1.209,0-1.815c0-0.604,0-1.209,0-1.814s0-1.21,0-1.815s0-1.209,0-1.814s0-1.21,0-1.815
	s0-1.21,0-1.815c0-0.605,0-1.21,0-1.814c0-0.605,0-1.21,0-1.815s0-1.21,0-1.815c2.42,0,4.827,0,7.259,0c0-4.839,0-9.679,0-14.519
	c0.228,0,0.455,0,0.668,0c1.752,0,3.492,0,5.23,0c0.441,0,0.908,0,1.361,0c0.227,0,0.441,0,0.681,0c0.151,0,0.29,0,0.454,0
	c0.453,0,0.907,0,1.361,0c0.227,0,0.44,0,0.68,0c0.152,0,0.303,0,0.453,0c0.908,0,1.803,0,2.723,0c0.454,0,0.908,0,1.361,0
	c0.215,0,0.454,0,0.682,0c0.138,0,0.301,0,0.453,0c0.453,0,0.906,0,1.361,0c0.214,0,0.453,0,0.68,0c0.151,0,0.303,0,0.454,0
	c0.441,0,0.907,0,1.361,0c0.227,0,0.454,0,0.681,0c0.15,0,0.289,0,0.453,0c0.228,0,0.441,0,0.681,0c0-2.419,0-4.839,0-7.259
	c0.228,0,0.454,0,0.681,0c0.895,0,1.814,0,2.723,0c0.227,0,0.453,0,0.68,0c0.228,0,0.455,0,0.668,0c0.24,0,0.467,0,0.682,0
	c0.163,0,0.314,0,0.466,0c0.227,0,0.454,0,0.681,0s0.453,0,0.668,0c0.239,0,0.467,0,0.681,0c0.163,0,0.315,0,0.466,0
	c0.215,0,0.454,0,0.682,0c0.226,0,0.453,0,0.68,0s0.453,0,0.668,0c0.164,0,0.314,0,0.467,0c0.906,0,1.814,0,2.709,0
	c0.24,0,0.467,0,0.681,0c0.239,0,0.467,0,0.692,0c0.228,0,0.454,0,0.682,0c0.15,0,0.303,0,0.441,0c0.238,0,0.466,0,0.68,0
	c0.24,0,0.467,0,0.693,0c0.227,0,0.454,0,0.681,0c0.151,0,0.303,0,0.441,0c0.24,0,0.467,0,0.681,0c0.24,0,0.466,0,0.68,0
	c0.239,0,0.467,0,0.693,0c0.151,0,0.303,0,0.453,0c0.228,0,0.454,0,0.669,0c0-2.42,0-4.84,0-7.26c4.852,0,9.691,0,14.519,0
	c0,2.42,0,4.84,0,7.26c0.681,0,1.373,0,2.054,0c0.605,0,1.21,0,1.814,0c1.198,0,2.408,0,3.63,0c2.42,0,4.84,0,7.26,0
	c0,2.419,0,4.839,0,7.259c9.68,0,19.358,0,29.037,0c0,2.42,0,4.839,0,7.26c2.42,0,4.84,0,7.247,0c0,2.42,0,4.839,0,7.259
	c2.432,0,4.852,0,7.271,0c0,9.755,0,19.51,0,29.265c0,9.679,0,19.358,0,29.037c2.42,0,4.84,0,7.247,0c0,0.227,0,0.454,0,0.681
	C189.183,103.597,189.183,104.655,189.183,105.714z"/>
<g id="XMLID_2_">
	<g>
		<path fill="#232034" d="M139.923,151.23c0,2.33,0,4.67,0,7c2.42,0,4.83,0,7.26,0c0-2.25,0-4.49,0-6.74c-0.09,0-0.17,0-0.26,0
			c0-0.09,0-0.17,0-0.26C144.582,151.23,142.253,151.23,139.923,151.23z"/>
		<path fill="#232034" d="M141.732,158.49c-0.3,0-0.6,0-0.9,0c-0.31,0-0.609,0-0.909,0c0,2.25,0,4.49,0,6.74c2.42,0,4.83,0,7.26,0
			c0-2.25,0-4.49,0-6.74c-0.23,0-0.45,0-0.68,0c-1.07,0-2.12,0-3.181,0C142.792,158.49,142.253,158.49,141.732,158.49z"/>
		<path fill="#232034" d="M139.923,165.49c0,1.45,0,3.78,0,7c0.3,0,0.6,0,0.909,0c0.301,0,0.601,0,0.9,0c0.521,0,1.06,0,1.59,0
			c1.061,0,2.11,0,3.181,0c0.14,0,0.279,0,0.42,0c0-0.09,0-0.17,0-0.26c0.09,0,0.17,0,0.26,0c0-2.25,0-4.49,0-6.74
			c-0.23,0-0.45,0-0.68,0c-1.07,0-2.12,0-3.181,0c-0.53,0-1.069,0-1.59,0c-0.3,0-0.6,0-0.9,0
			C140.522,165.49,140.223,165.49,139.923,165.49z"/>
		<path fill="#232034" d="M141.732,165.49c0.521,0,1.06,0,1.59,0c1.061,0,2.11,0,3.181,0c0.229,0,0.449,0,0.68,0
			c0-0.09,0-0.17,0-0.26c-2.43,0-4.84,0-7.26,0c0,0.08,0,0.17,0,0.26c0.3,0,0.6,0,0.909,0
			C141.133,165.49,141.433,165.49,141.732,165.49z"/>
		<path fill="#232034" d="M147.183,158.23c-2.43,0-4.84,0-7.26,0c0,0.09,0,0.17,0,0.26c0.3,0,0.6,0,0.909,0c0.301,0,0.601,0,0.9,0
			c0.521,0,1.06,0,1.59,0c1.061,0,2.11,0,3.181,0c0.229,0,0.449,0,0.68,0C147.183,158.4,147.183,158.32,147.183,158.23z"/>
		<path fill="#232034" d="M146.923,172.49c0,2.33,0,4.67,0,7c0.3,0,0.6,0,0.909,0c0.301,0,0.601,0,0.9,0c0.521,0,1.06,0,1.59,0
			c1.061,0,2.11,0,3.181,0c0.229,0,0.449,0,0.68,0c0-2.33,0-4.67,0-7c-0.09,0-0.17,0-0.26,0c0-0.09,0-0.17,0-0.26
			c-2.261,0-4.49,0-6.74,0c0,0.09,0,0.17,0,0.26C147.093,172.49,147.013,172.49,146.923,172.49z"/>
		<path fill="#232034" d="M146.923,172.23c0,0.09,0,0.17,0,0.26c0.09,0,0.17,0,0.26,0c0-0.09,0-0.17,0-0.26
			C147.093,172.23,147.013,172.23,146.923,172.23z"/>
		<path fill="#232034" d="M146.923,151.23c0,0.09,0,0.17,0,0.26c0.09,0,0.17,0,0.26,0c0-0.09,0-0.17,0-0.26
			C147.093,151.23,147.013,151.23,146.923,151.23z"/>
		<path fill="#232034" d="M146.923,144.23c0,2.33,0,4.67,0,7c0.09,0,0.17,0,0.26,0c0,0.09,0,0.17,0,0.26c0.21,0,0.43,0,0.649,0
			c0.301,0,0.601,0,0.9,0c0.521,0,1.06,0,1.59,0c1.061,0,2.11,0,3.181,0c0.14,0,0.279,0,0.42,0c0-2.42,0-4.84,0-7.26
			C151.582,144.23,149.253,144.23,146.923,144.23z"/>
		<path fill="#5E5F5F" d="M148.732,151.49c-0.3,0-0.6,0-0.9,0c-0.22,0-0.439,0-0.649,0c0,2.25,0,4.49,0,6.74c0,0.09,0,0.17,0,0.26
			c0,2.25,0,4.49,0,6.74c0,0.09,0,0.17,0,0.26c0,2.25,0,4.49,0,6.74c2.25,0,4.479,0,6.74,0c0-2.25,0-4.49,0-6.74
			c0-0.09,0-0.17,0-0.26c0-2.33,0-4.67,0-7c2.42,0,4.83,0,7.26,0c0,2.33,0,4.67,0,7c0,0.09,0,0.17,0,0.26c0,2.25,0,4.49,0,6.74
			c2.25,0,4.479,0,6.74,0c0-2.25,0-4.49,0-6.74c0-0.08,0-0.17,0-0.26c0-1.45,0-3.78,0-7c2.42,0,4.83,0,7.26,0c0,2.33,0,4.67,0,7
			c0,0.09,0,0.17,0,0.26c0,2.25,0,4.49,0,6.74c2.25,0,4.479,0,6.74,0c0-2.25,0-4.49,0-6.74c0-0.09,0-0.17,0-0.26
			c0-2.25,0-4.49,0-6.74c0-0.09,0-0.17,0-0.26c0-2.25,0-4.49,0-6.74c-0.141,0-0.28,0-0.42,0c-1.07,0-2.12,0-3.181,0
			c-0.53,0-1.069,0-1.59,0c-0.3,0-0.6,0-0.9,0c-0.22,0-0.439,0-0.649,0c-0.09,0-0.17,0-0.26,0c-0.141,0-0.28,0-0.42,0
			c-1.07,0-2.12,0-3.181,0c-0.53,0-1.069,0-1.59,0c-0.3,0-0.6,0-0.9,0c-0.22,0-0.439,0-0.649,0c-0.09,0-0.17,0-0.26,0
			c-0.141,0-0.28,0-0.42,0c-1.07,0-2.12,0-3.181,0c-0.53,0-1.069,0-1.59,0c-0.3,0-0.6,0-0.9,0c-0.22,0-0.439,0-0.649,0
			c-0.09,0-0.17,0-0.26,0c-0.141,0-0.28,0-0.42,0c-1.07,0-2.12,0-3.181,0c-0.53,0-1.069,0-1.59,0c-0.3,0-0.6,0-0.9,0
			c-0.22,0-0.439,0-0.649,0c-0.09,0-0.17,0-0.26,0c-0.141,0-0.28,0-0.42,0c-1.07,0-2.12,0-3.181,0
			C149.792,151.49,149.253,151.49,148.732,151.49z"/>
		<path fill="#232034" d="M153.923,172.23c0,0.09,0,0.17,0,0.26c0.09,0,0.17,0,0.26,0c0-0.09,0-0.17,0-0.26
			C154.093,172.23,154.013,172.23,153.923,172.23z"/>
		<path fill="#232034" d="M153.923,158.23c0,2.33,0,4.67,0,7c2.42,0,4.83,0,7.26,0c0-2.33,0-4.67,0-7
			C158.753,158.23,156.343,158.23,153.923,158.23z"/>
		<path fill="#232034" d="M153.923,144.23c0,2.42,0,4.84,0,7.26c0.09,0,0.17,0,0.26,0c0-2.42,0-4.84,0-7.26
			C154.093,144.23,154.013,144.23,153.923,144.23z"/>
		<path fill="#232034" d="M155.732,165.49c-0.3,0-0.6,0-0.9,0c-0.31,0-0.609,0-0.909,0c0,2.25,0,4.49,0,6.74c0.09,0,0.17,0,0.26,0
			c0,0.09,0,0.17,0,0.26c0.21,0,0.43,0,0.649,0c0.301,0,0.601,0,0.9,0c0.521,0,1.06,0,1.59,0c1.061,0,2.11,0,3.181,0
			c0.14,0,0.279,0,0.42,0c0-0.09,0-0.17,0-0.26c0.09,0,0.17,0,0.26,0c0-2.25,0-4.49,0-6.74c-0.23,0-0.45,0-0.68,0
			c-1.07,0-2.12,0-3.181,0C156.792,165.49,156.253,165.49,155.732,165.49z"/>
		<path fill="#232034" d="M154.183,144.23c0,2.42,0,4.84,0,7.26c0.21,0,0.43,0,0.649,0c0.301,0,0.601,0,0.9,0c0.521,0,1.06,0,1.59,0
			c1.061,0,2.11,0,3.181,0c0.14,0,0.279,0,0.42,0c0-2.42,0-4.84,0-7.26C158.662,144.23,156.433,144.23,154.183,144.23z"/>
		<path fill="#232034" d="M155.732,165.49c0.521,0,1.06,0,1.59,0c1.061,0,2.11,0,3.181,0c0.229,0,0.449,0,0.68,0
			c0-0.09,0-0.17,0-0.26c-2.43,0-4.84,0-7.26,0c0,0.09,0,0.17,0,0.26c0.3,0,0.6,0,0.909,0
			C155.133,165.49,155.433,165.49,155.732,165.49z"/>
		<path fill="#232034" d="M160.923,172.49c0,2.33,0,4.67,0,7c0.3,0,0.6,0,0.909,0c0.301,0,0.601,0,0.9,0c0.521,0,1.06,0,1.59,0
			c1.061,0,2.11,0,3.181,0c0.229,0,0.449,0,0.68,0c0-2.33,0-4.67,0-7c-0.09,0-0.17,0-0.26,0c0-0.09,0-0.17,0-0.26
			c-2.261,0-4.49,0-6.74,0c0,0.09,0,0.17,0,0.26C161.093,172.49,161.013,172.49,160.923,172.49z"/>
		<path fill="#232034" d="M160.923,172.23c0,0.09,0,0.17,0,0.26c0.09,0,0.17,0,0.26,0c0-0.09,0-0.17,0-0.26
			C161.093,172.23,161.013,172.23,160.923,172.23z"/>
		<path fill="#232034" d="M160.923,144.23c0,2.42,0,4.84,0,7.26c0.09,0,0.17,0,0.26,0c0-2.42,0-4.84,0-7.26
			C161.093,144.23,161.013,144.23,160.923,144.23z"/>
		<path fill="#232034" d="M161.183,144.23c0,2.42,0,4.84,0,7.26c0.21,0,0.43,0,0.649,0c0.301,0,0.601,0,0.9,0c0.521,0,1.06,0,1.59,0
			c1.061,0,2.11,0,3.181,0c0.14,0,0.279,0,0.42,0c0-2.42,0-4.84,0-7.26C165.662,144.23,163.433,144.23,161.183,144.23z"/>
		<path fill="#232034" d="M167.923,172.23c0,0.09,0,0.17,0,0.26c0.09,0,0.17,0,0.26,0c0-0.09,0-0.17,0-0.26
			C168.093,172.23,168.013,172.23,167.923,172.23z"/>
		<path fill="#232034" d="M167.923,158.23c0,3.22,0,5.55,0,7c2.42,0,4.83,0,7.26,0c0-2.33,0-4.67,0-7
			C172.753,158.23,170.343,158.23,167.923,158.23z"/>
		<path fill="#232034" d="M167.923,144.23c0,2.42,0,4.84,0,7.26c0.09,0,0.17,0,0.26,0c0-2.42,0-4.84,0-7.26
			C168.093,144.23,168.013,144.23,167.923,144.23z"/>
		<path fill="#232034" d="M168.832,165.49c-0.31,0-0.609,0-0.909,0c0,2.25,0,4.49,0,6.74c0.09,0,0.17,0,0.26,0c0,0.09,0,0.17,0,0.26
			c0.21,0,0.43,0,0.649,0c0.301,0,0.601,0,0.9,0c0.521,0,1.06,0,1.59,0c1.061,0,2.11,0,3.181,0c0.14,0,0.279,0,0.42,0
			c0-0.09,0-0.17,0-0.26c0.09,0,0.17,0,0.26,0c0-2.25,0-4.49,0-6.74c-0.23,0-0.45,0-0.68,0c-1.07,0-2.12,0-3.181,0
			c-0.53,0-1.069,0-1.59,0C169.433,165.49,169.133,165.49,168.832,165.49z"/>
		<path fill="#232034" d="M168.183,144.23c0,2.42,0,4.84,0,7.26c0.21,0,0.43,0,0.649,0c0.301,0,0.601,0,0.9,0c0.521,0,1.06,0,1.59,0
			c1.061,0,2.11,0,3.181,0c0.14,0,0.279,0,0.42,0c0-2.42,0-4.84,0-7.26C172.662,144.23,170.433,144.23,168.183,144.23z"/>
		<path fill="#232034" d="M175.183,165.23c-2.43,0-4.84,0-7.26,0c0,0.09,0,0.18,0,0.26c0.3,0,0.6,0,0.909,0c0.301,0,0.601,0,0.9,0
			c0.521,0,1.06,0,1.59,0c1.061,0,2.11,0,3.181,0c0.229,0,0.449,0,0.68,0C175.183,165.4,175.183,165.32,175.183,165.23z"/>
		<path fill="#232034" d="M174.923,172.49c0,2.33,0,4.67,0,7c0.3,0,0.6,0,0.909,0c0.301,0,0.601,0,0.9,0c0.521,0,1.06,0,1.59,0
			c1.061,0,2.11,0,3.181,0c0.229,0,0.449,0,0.68,0c0-2.33,0-4.67,0-7c-0.09,0-0.17,0-0.26,0c0-0.09,0-0.17,0-0.26
			c-2.261,0-4.49,0-6.74,0c0,0.09,0,0.17,0,0.26C175.093,172.49,175.013,172.49,174.923,172.49z"/>
		<path fill="#232034" d="M174.923,172.23c0,0.09,0,0.17,0,0.26c0.09,0,0.17,0,0.26,0c0-0.09,0-0.17,0-0.26
			C175.093,172.23,175.013,172.23,174.923,172.23z"/>
		<path fill="#232034" d="M174.923,144.23c0,2.42,0,4.84,0,7.26c0.09,0,0.17,0,0.26,0c0-2.42,0-4.84,0-7.26
			C175.093,144.23,175.013,144.23,174.923,144.23z"/>
		<path fill="#232034" d="M175.183,144.23c0,2.42,0,4.84,0,7.26c0.21,0,0.43,0,0.649,0c0.301,0,0.601,0,0.9,0c0.521,0,1.06,0,1.59,0
			c1.061,0,2.11,0,3.181,0c0.14,0,0.279,0,0.42,0c0-0.09,0-0.17,0-0.26c0.09,0,0.17,0,0.26,0c0-2.33,0-4.67,0-7
			C179.843,144.23,177.513,144.23,175.183,144.23z"/>
		<path fill="#232034" d="M181.923,172.23c0,0.09,0,0.17,0,0.26c0.09,0,0.17,0,0.26,0c0-0.09,0-0.17,0-0.26
			C182.093,172.23,182.013,172.23,181.923,172.23z"/>
		<path fill="#232034" d="M181.923,151.49c0,2.25,0,4.49,0,6.74c2.42,0,4.83,0,7.26,0c0-2.33,0-4.67,0-7c-2.34,0-4.67,0-7,0
			c0,0.09,0,0.17,0,0.26C182.093,151.49,182.013,151.49,181.923,151.49z"/>
		<path fill="#232034" d="M181.923,151.23c0,0.09,0,0.17,0,0.26c0.09,0,0.17,0,0.26,0c0-0.09,0-0.17,0-0.26
			C182.093,151.23,182.013,151.23,181.923,151.23z"/>
		<path fill="#232034" d="M182.832,158.49c-0.31,0-0.609,0-0.909,0c0,2.25,0,4.49,0,6.74c2.42,0,4.83,0,7.26,0c0-2.25,0-4.49,0-6.74
			c-0.23,0-0.45,0-0.68,0c-1.07,0-2.12,0-3.181,0c-0.53,0-1.069,0-1.59,0C183.433,158.49,183.133,158.49,182.832,158.49z"/>
		<path fill="#232034" d="M181.923,165.49c0,2.25,0,4.49,0,6.74c0.09,0,0.17,0,0.26,0c0,0.09,0,0.17,0,0.26c0.21,0,0.43,0,0.649,0
			c0.301,0,0.601,0,0.9,0c0.521,0,1.06,0,1.59,0c1.061,0,2.11,0,3.181,0c0.229,0,0.449,0,0.68,0c0-2.33,0-4.67,0-7
			c-0.23,0-0.45,0-0.68,0c-1.07,0-2.12,0-3.181,0c-0.53,0-1.069,0-1.59,0c-0.3,0-0.6,0-0.9,0
			C182.522,165.49,182.223,165.49,181.923,165.49z"/>
		<path fill="#232034" d="M183.732,165.49c0.521,0,1.06,0,1.59,0c1.061,0,2.11,0,3.181,0c0.229,0,0.449,0,0.68,0
			c0-0.09,0-0.17,0-0.26c-2.43,0-4.84,0-7.26,0c0,0.09,0,0.17,0,0.26c0.3,0,0.6,0,0.909,0
			C183.133,165.49,183.433,165.49,183.732,165.49z"/>
		<path fill="#232034" d="M189.183,158.23c-2.43,0-4.84,0-7.26,0c0,0.09,0,0.17,0,0.26c0.3,0,0.6,0,0.909,0c0.301,0,0.601,0,0.9,0
			c0.521,0,1.06,0,1.59,0c1.061,0,2.11,0,3.181,0c0.229,0,0.449,0,0.68,0C189.183,158.4,189.183,158.32,189.183,158.23z"/>
	</g>
	<g>
	</g>
</g>
<g id="XMLID_1_">
	<g>
		<path fill="#232034" d="M23.56,149.27c0,2.33,0,4.67,0,7c2.42,0,4.83,0,7.26,0c0-2.25,0-4.49,0-6.74c-0.09,0-0.17,0-0.26,0
			c0-0.09,0-0.17,0-0.26C28.22,149.27,25.89,149.27,23.56,149.27z"/>
		<path fill="#232034" d="M25.37,156.529c-0.3,0-0.6,0-0.9,0c-0.31,0-0.61,0-0.91,0c0,2.25,0,4.49,0,6.74c2.42,0,4.83,0,7.26,0
			c0-2.25,0-4.49,0-6.74c-0.23,0-0.45,0-0.68,0c-1.07,0-2.12,0-3.18,0C26.43,156.529,25.89,156.529,25.37,156.529z"/>
		<path fill="#232034" d="M25.37,163.529c-0.3,0-0.6,0-0.9,0c-0.31,0-0.61,0-0.91,0c0,1.45,0,3.78,0,7c0.3,0,0.6,0,0.91,0
			c0.3,0,0.6,0,0.9,0c0.52,0,1.06,0,1.59,0c1.06,0,2.11,0,3.18,0c0.14,0,0.28,0,0.42,0c0-0.09,0-0.17,0-0.26c0.09,0,0.17,0,0.26,0
			c0-2.25,0-4.49,0-6.74c-0.23,0-0.45,0-0.68,0c-1.07,0-2.12,0-3.18,0C26.43,163.529,25.89,163.529,25.37,163.529z"/>
		<path fill="#232034" d="M26.959,163.529c1.06,0,2.11,0,3.18,0c0.23,0,0.45,0,0.68,0c0-0.09,0-0.17,0-0.26c-2.43,0-4.84,0-7.26,0
			c0,0.08,0,0.17,0,0.26c0.3,0,0.6,0,0.91,0c0.3,0,0.6,0,0.9,0C25.89,163.529,26.43,163.529,26.959,163.529z"/>
		<path fill="#232034" d="M30.82,156.27c-2.43,0-4.84,0-7.26,0c0,0.09,0,0.17,0,0.26c0.3,0,0.6,0,0.91,0c0.3,0,0.6,0,0.9,0
			c0.52,0,1.06,0,1.59,0c1.06,0,2.11,0,3.18,0c0.23,0,0.45,0,0.68,0C30.82,156.439,30.82,156.359,30.82,156.27z"/>
		<path fill="#232034" d="M30.56,170.529c0,2.33,0,4.67,0,7c0.3,0,0.6,0,0.91,0c0.3,0,0.6,0,0.9,0c0.52,0,1.06,0,1.59,0
			c1.06,0,2.11,0,3.18,0c0.23,0,0.45,0,0.68,0c0-2.33,0-4.67,0-7c-0.09,0-0.17,0-0.26,0c0-0.09,0-0.17,0-0.26c-2.26,0-4.49,0-6.74,0
			c0,0.09,0,0.17,0,0.26C30.729,170.529,30.649,170.529,30.56,170.529z"/>
		<path fill="#232034" d="M30.56,170.27c0,0.09,0,0.17,0,0.26c0.09,0,0.17,0,0.26,0c0-0.09,0-0.17,0-0.26
			C30.729,170.27,30.649,170.27,30.56,170.27z"/>
		<path fill="#232034" d="M30.56,149.27c0,0.09,0,0.17,0,0.26c0.09,0,0.17,0,0.26,0c0-0.09,0-0.17,0-0.26
			C30.729,149.27,30.649,149.27,30.56,149.27z"/>
		<path fill="#232034" d="M30.56,142.27c0,2.33,0,4.67,0,7c0.09,0,0.17,0,0.26,0c0,0.09,0,0.17,0,0.26c0.21,0,0.43,0,0.65,0
			c0.3,0,0.6,0,0.9,0c0.52,0,1.06,0,1.59,0c1.06,0,2.11,0,3.18,0c0.14,0,0.28,0,0.42,0c0-2.42,0-4.84,0-7.26
			C35.22,142.27,32.89,142.27,30.56,142.27z"/>
		<path fill="#5E5F5F" d="M32.37,149.529c-0.3,0-0.6,0-0.9,0c-0.22,0-0.44,0-0.65,0c0,2.25,0,4.49,0,6.74c0,0.09,0,0.17,0,0.26
			c0,2.25,0,4.49,0,6.74c0,0.09,0,0.17,0,0.26c0,2.25,0,4.49,0,6.74c2.25,0,4.48,0,6.74,0c0-2.25,0-4.49,0-6.74
			c0-0.09,0-0.17,0-0.26c0-2.33,0-4.67,0-7c2.42,0,4.83,0,7.26,0c0,2.33,0,4.67,0,7c0,0.09,0,0.17,0,0.26c0,2.25,0,4.49,0,6.74
			c2.25,0,4.48,0,6.74,0c0-2.25,0-4.49,0-6.74c0-0.08,0-0.17,0-0.26c0-1.45,0-3.78,0-7c2.42,0,4.83,0,7.26,0c0,2.33,0,4.67,0,7
			c0,0.09,0,0.17,0,0.26c0,2.25,0,4.49,0,6.74c2.25,0,4.48,0,6.74,0c0-2.25,0-4.49,0-6.74c0-0.09,0-0.17,0-0.26
			c0-2.25,0-4.49,0-6.74c0-0.09,0-0.17,0-0.26c0-2.25,0-4.49,0-6.74c-0.14,0-0.28,0-0.42,0c-1.07,0-2.12,0-3.18,0
			c-0.53,0-1.07,0-1.59,0c-0.3,0-0.6,0-0.9,0c-0.22,0-0.44,0-0.65,0c-0.09,0-0.17,0-0.26,0c-0.14,0-0.28,0-0.42,0
			c-1.07,0-2.12,0-3.18,0c-0.53,0-1.07,0-1.59,0c-0.3,0-0.6,0-0.9,0c-0.22,0-0.44,0-0.65,0c-0.09,0-0.17,0-0.26,0
			c-0.14,0-0.28,0-0.42,0c-1.07,0-2.12,0-3.18,0c-0.53,0-1.07,0-1.59,0c-0.3,0-0.6,0-0.9,0c-0.22,0-0.44,0-0.65,0
			c-0.09,0-0.17,0-0.26,0c-0.14,0-0.28,0-0.42,0c-1.07,0-2.12,0-3.18,0c-0.53,0-1.07,0-1.59,0c-0.3,0-0.6,0-0.9,0
			c-0.22,0-0.44,0-0.65,0c-0.09,0-0.17,0-0.26,0c-0.14,0-0.28,0-0.42,0c-1.07,0-2.12,0-3.18,0
			C33.43,149.529,32.89,149.529,32.37,149.529z"/>
		<path fill="#232034" d="M37.56,170.27c0,0.09,0,0.17,0,0.26c0.09,0,0.17,0,0.26,0c0-0.09,0-0.17,0-0.26
			C37.729,170.27,37.649,170.27,37.56,170.27z"/>
		<path fill="#232034" d="M37.56,156.27c0,2.33,0,4.67,0,7c2.42,0,4.83,0,7.26,0c0-2.33,0-4.67,0-7
			C42.39,156.27,39.979,156.27,37.56,156.27z"/>
		<path fill="#232034" d="M37.56,142.27c0,2.42,0,4.84,0,7.26c0.09,0,0.17,0,0.26,0c0-2.42,0-4.84,0-7.26
			C37.729,142.27,37.649,142.27,37.56,142.27z"/>
		<path fill="#232034" d="M39.37,163.529c-0.3,0-0.6,0-0.9,0c-0.31,0-0.61,0-0.91,0c0,2.25,0,4.49,0,6.74c0.09,0,0.17,0,0.26,0
			c0,0.09,0,0.17,0,0.26c0.21,0,0.43,0,0.65,0c0.3,0,0.6,0,0.9,0c0.52,0,1.06,0,1.59,0c1.06,0,2.11,0,3.18,0c0.14,0,0.28,0,0.42,0
			c0-0.09,0-0.17,0-0.26c0.09,0,0.17,0,0.26,0c0-2.25,0-4.49,0-6.74c-0.23,0-0.45,0-0.68,0c-1.07,0-2.12,0-3.18,0
			C40.43,163.529,39.89,163.529,39.37,163.529z"/>
		<path fill="#232034" d="M37.82,142.27c0,2.42,0,4.84,0,7.26c0.21,0,0.43,0,0.65,0c0.3,0,0.6,0,0.9,0c0.52,0,1.06,0,1.59,0
			c1.06,0,2.11,0,3.18,0c0.14,0,0.28,0,0.42,0c0-2.42,0-4.84,0-7.26C42.3,142.27,40.07,142.27,37.82,142.27z"/>
		<path fill="#232034" d="M44.82,163.27c-2.43,0-4.84,0-7.26,0c0,0.09,0,0.17,0,0.26c0.3,0,0.6,0,0.91,0c0.3,0,0.6,0,0.9,0
			c0.52,0,1.06,0,1.59,0c1.06,0,2.11,0,3.18,0c0.23,0,0.45,0,0.68,0C44.82,163.439,44.82,163.359,44.82,163.27z"/>
		<path fill="#232034" d="M44.56,170.529c0,2.33,0,4.67,0,7c0.3,0,0.6,0,0.91,0c0.3,0,0.6,0,0.9,0c0.52,0,1.06,0,1.59,0
			c1.06,0,2.11,0,3.18,0c0.23,0,0.45,0,0.68,0c0-2.33,0-4.67,0-7c-0.09,0-0.17,0-0.26,0c0-0.09,0-0.17,0-0.26c-2.26,0-4.49,0-6.74,0
			c0,0.09,0,0.17,0,0.26C44.729,170.529,44.649,170.529,44.56,170.529z"/>
		<path fill="#232034" d="M44.56,170.27c0,0.09,0,0.17,0,0.26c0.09,0,0.17,0,0.26,0c0-0.09,0-0.17,0-0.26
			C44.729,170.27,44.649,170.27,44.56,170.27z"/>
		<path fill="#232034" d="M44.56,142.27c0,2.42,0,4.84,0,7.26c0.09,0,0.17,0,0.26,0c0-2.42,0-4.84,0-7.26
			C44.729,142.27,44.649,142.27,44.56,142.27z"/>
		<path fill="#232034" d="M44.82,142.27c0,2.42,0,4.84,0,7.26c0.21,0,0.43,0,0.65,0c0.3,0,0.6,0,0.9,0c0.52,0,1.06,0,1.59,0
			c1.06,0,2.11,0,3.18,0c0.14,0,0.28,0,0.42,0c0-2.42,0-4.84,0-7.26C49.3,142.27,47.07,142.27,44.82,142.27z"/>
		<path fill="#232034" d="M51.56,170.27c0,0.09,0,0.17,0,0.26c0.09,0,0.17,0,0.26,0c0-0.09,0-0.17,0-0.26
			C51.729,170.27,51.649,170.27,51.56,170.27z"/>
		<path fill="#232034" d="M51.56,156.27c0,3.22,0,5.55,0,7c2.42,0,4.83,0,7.26,0c0-2.33,0-4.67,0-7
			C56.39,156.27,53.979,156.27,51.56,156.27z"/>
		<path fill="#232034" d="M51.56,142.27c0,2.42,0,4.84,0,7.26c0.09,0,0.17,0,0.26,0c0-2.42,0-4.84,0-7.26
			C51.729,142.27,51.649,142.27,51.56,142.27z"/>
		<path fill="#232034" d="M53.37,163.529c-0.3,0-0.6,0-0.9,0c-0.31,0-0.61,0-0.91,0c0,2.25,0,4.49,0,6.74c0.09,0,0.17,0,0.26,0
			c0,0.09,0,0.17,0,0.26c0.21,0,0.43,0,0.65,0c0.3,0,0.6,0,0.9,0c0.52,0,1.06,0,1.59,0c1.06,0,2.11,0,3.18,0c0.14,0,0.28,0,0.42,0
			c0-0.09,0-0.17,0-0.26c0.09,0,0.17,0,0.26,0c0-2.25,0-4.49,0-6.74c-0.23,0-0.45,0-0.68,0c-1.07,0-2.12,0-3.18,0
			C54.43,163.529,53.89,163.529,53.37,163.529z"/>
		<path fill="#232034" d="M51.82,142.27c0,2.42,0,4.84,0,7.26c0.21,0,0.43,0,0.65,0c0.3,0,0.6,0,0.9,0c0.52,0,1.06,0,1.59,0
			c1.06,0,2.11,0,3.18,0c0.14,0,0.28,0,0.42,0c0-2.42,0-4.84,0-7.26C56.3,142.27,54.07,142.27,51.82,142.27z"/>
		<path fill="#232034" d="M58.82,163.27c-2.43,0-4.84,0-7.26,0c0,0.09,0,0.18,0,0.26c0.3,0,0.6,0,0.91,0c0.3,0,0.6,0,0.9,0
			c0.52,0,1.06,0,1.59,0c1.06,0,2.11,0,3.18,0c0.23,0,0.45,0,0.68,0C58.82,163.439,58.82,163.359,58.82,163.27z"/>
		<path fill="#232034" d="M58.56,170.529c0,2.33,0,4.67,0,7c0.3,0,0.6,0,0.91,0c0.3,0,0.6,0,0.9,0c0.52,0,1.06,0,1.59,0
			c1.06,0,2.11,0,3.18,0c0.23,0,0.45,0,0.68,0c0-2.33,0-4.67,0-7c-0.09,0-0.17,0-0.26,0c0-0.09,0-0.17,0-0.26c-2.26,0-4.49,0-6.74,0
			c0,0.09,0,0.17,0,0.26C58.729,170.529,58.649,170.529,58.56,170.529z"/>
		<path fill="#232034" d="M58.56,170.27c0,0.09,0,0.17,0,0.26c0.09,0,0.17,0,0.26,0c0-0.09,0-0.17,0-0.26
			C58.729,170.27,58.649,170.27,58.56,170.27z"/>
		<path fill="#232034" d="M58.56,142.27c0,2.42,0,4.84,0,7.26c0.09,0,0.17,0,0.26,0c0-2.42,0-4.84,0-7.26
			C58.729,142.27,58.649,142.27,58.56,142.27z"/>
		<path fill="#232034" d="M58.82,142.27c0,2.42,0,4.84,0,7.26c0.21,0,0.43,0,0.65,0c0.3,0,0.6,0,0.9,0c0.52,0,1.06,0,1.59,0
			c1.06,0,2.11,0,3.18,0c0.14,0,0.28,0,0.42,0c0-0.09,0-0.17,0-0.26c0.09,0,0.17,0,0.26,0c0-2.33,0-4.67,0-7
			C63.479,142.27,61.149,142.27,58.82,142.27z"/>
		<path fill="#232034" d="M65.56,170.27c0,0.09,0,0.17,0,0.26c0.09,0,0.17,0,0.26,0c0-0.09,0-0.17,0-0.26
			C65.729,170.27,65.649,170.27,65.56,170.27z"/>
		<path fill="#232034" d="M65.56,149.529c0,2.25,0,4.49,0,6.74c2.42,0,4.83,0,7.26,0c0-2.33,0-4.67,0-7c-2.34,0-4.67,0-7,0
			c0,0.09,0,0.17,0,0.26C65.729,149.529,65.649,149.529,65.56,149.529z"/>
		<path fill="#232034" d="M65.56,149.27c0,0.09,0,0.17,0,0.26c0.09,0,0.17,0,0.26,0c0-0.09,0-0.17,0-0.26
			C65.729,149.27,65.649,149.27,65.56,149.27z"/>
		<path fill="#232034" d="M65.56,156.529c0,2.25,0,4.49,0,6.74c2.42,0,4.83,0,7.26,0c0-2.25,0-4.49,0-6.74c-0.23,0-0.45,0-0.68,0
			c-1.07,0-2.12,0-3.18,0c-0.53,0-1.07,0-1.59,0c-0.3,0-0.6,0-0.9,0C66.16,156.529,65.86,156.529,65.56,156.529z"/>
		<path fill="#232034" d="M65.56,163.529c0,2.25,0,4.49,0,6.74c0.09,0,0.17,0,0.26,0c0,0.09,0,0.17,0,0.26c0.21,0,0.43,0,0.65,0
			c0.3,0,0.6,0,0.9,0c0.52,0,1.06,0,1.59,0c1.06,0,2.11,0,3.18,0c0.23,0,0.45,0,0.68,0c0-2.33,0-4.67,0-7c-0.23,0-0.45,0-0.68,0
			c-1.07,0-2.12,0-3.18,0c-0.53,0-1.07,0-1.59,0c-0.3,0-0.6,0-0.9,0C66.16,163.529,65.86,163.529,65.56,163.529z"/>
		<path fill="#232034" d="M68.959,163.529c1.06,0,2.11,0,3.18,0c0.23,0,0.45,0,0.68,0c0-0.09,0-0.17,0-0.26c-2.43,0-4.84,0-7.26,0
			c0,0.09,0,0.17,0,0.26c0.3,0,0.6,0,0.91,0c0.3,0,0.6,0,0.9,0C67.89,163.529,68.43,163.529,68.959,163.529z"/>
		<path fill="#232034" d="M72.82,156.27c-2.43,0-4.84,0-7.26,0c0,0.09,0,0.17,0,0.26c0.3,0,0.6,0,0.91,0c0.3,0,0.6,0,0.9,0
			c0.52,0,1.06,0,1.59,0c1.06,0,2.11,0,3.18,0c0.23,0,0.45,0,0.68,0C72.82,156.439,72.82,156.359,72.82,156.27z"/>
	</g>
	<g>
	</g>
</g>
<path fill="#FFFFFF" d="M94.824,72.82c0,2.42,0,4.839,0,7.26c2.42,0,4.84,0,7.259,0c0-2.42,0-4.84,0-7.26
	C99.664,72.82,97.244,72.82,94.824,72.82z"/>
<path fill="#010101" d="M94.824,65.561c0,2.419,0,4.839,0,7.259c2.42,0,4.84,0,7.259,0c0,2.42,0,4.839,0,7.26
	c2.407,0,4.827,0,7.26,0c0-2.42,0-4.84,0-7.26c2.419,0,4.839,0,7.259,0c0-2.419,0-4.839,0-7.259c-3.629,0-7.259,0-10.901,0
	C102.083,65.561,98.453,65.561,94.824,65.561z"/>
</svg>
