<?xml version="1.0" encoding="utf-8"?>
<!-- Generator: Adobe Illustrator 15.0.0, SVG Export Plug-In  -->
<!DOCTYPE svg PUBLIC "-//W3C//DTD SVG 1.1//EN" "http://www.w3.org/Graphics/SVG/1.1/DTD/svg11.dtd" [
	<!ENTITY ns_flows "http://ns.adobe.com/Flows/1.0/">
]>
<svg version="1.1"
	 xmlns="http://www.w3.org/2000/svg" xmlns:xlink="http://www.w3.org/1999/xlink" xmlns:a="http://ns.adobe.com/AdobeSVGViewerExtensions/3.0/"
	 x="0px" y="0px" width="300px" height="300px" viewBox="-47.958 -47.688 300 300" enable-background="new -47.958 -47.688 300 300"
	 xml:space="preserve">
<defs>
</defs>
<path fill="#FFFFFF" d="M21.245,32.667c0,3.63,0,7.259,0,10.889c2.42,0,4.84,0,7.259,0c0,0.227,0,0.454,0,0.681
	c0,0.454,0,0.908,0,1.361c0,0.529,0,1.058,0,1.588c0,0.454,0,0.907,0,1.361c0,0.227,0,0.454,0,0.681c0,0.303,0,0.605,0,0.908
	c0,0.227,0,0.454,0,0.681c2.407,0,4.839,0,7.26,0c0-4.84,0-9.68,0-14.519c2.419,0,4.839,0,7.259,0c0-4.839,0-9.68,0-14.519
	c2.407,0,4.827,0,7.26,0c0-2.419,0-4.839,0-7.259c0.227,0,0.453,0,0.68,0c3.631,0,7.26,0,10.889,0c3.555,0,7.109,0,10.65,0
	c7.196,0,14.379,0,21.563,0c0,2.42,0,4.84,0,7.259c4.827,0,9.679,0,14.519,0c0,2.42,0,4.839,0,7.259c4.827,0,9.68,0,14.519,0
	c0-4.839,0-9.679,0-14.519c-3.63,0-7.259,0-10.901,0c-3.617,0-7.247,0-10.876,0c0-2.42,0-4.839,0-7.259c-4.853,0-9.679,0-14.519,0
	c0-2.419,0-4.839,0-7.259c-4.853,0-9.68,0-14.519,0c-2.421,0-4.853,0-7.26,0c-2.495,0-4.991,0-7.486,0c0,2.42,0,4.84,0,7.259
	c-0.228,0-0.454,0-0.681,0c-4.613,0-9.225,0-13.838,0c0,2.42,0,4.839,0,7.259c-0.227,0-0.453,0-0.681,0c-4.612,0-9.226,0-13.838,0
	c0,2.42,0,4.84,0,7.259c-2.419,0-4.839,0-7.259,0C21.245,25.408,21.245,29.037,21.245,32.667z"/>
<path fill="#FFFFFF" d="M28.503,58.074c0,2.42,0,4.84,0,7.26c2.407,0,4.839,0,7.26,0c0-2.42,0-4.84,0-7.26
	C33.342,58.074,30.911,58.074,28.503,58.074z"/>
<path fill="#FFFFFF" d="M35.763,50.815c0,2.419,0,4.839,0,7.259c2.419,0,4.839,0,7.259,0c0-2.419,0-4.839,0-7.259
	C40.602,50.815,38.182,50.815,35.763,50.815z"/>
<path fill="#232034" d="M43.022,116.376c2.407,0,4.827,0,7.26,0c0-4.84,0-9.679,0-14.519c0-2.42,0-4.84,0-7.26
	c0-0.681,0-1.361,0-2.041c0-0.605,0-1.21,0-1.815c0-1.21,0-2.42,0-3.63c0-2.419,0-4.839,0-7.259c-2.433,0-4.853,0-7.26,0
	c0,0.151,0,0.302,0,0.454c0,0.681,0,1.361,0,2.042c0,0.152,0,0.302,0,0.454c0,0.227,0,0.454,0,0.681c0,0.151,0,0.302,0,0.454
	c0,0.227,0,0.454,0,0.681c0,0.151,0,0.303,0,0.454c0,0.227,0,0.454,0,0.681c0,0.151,0,0.303,0,0.454c0,0.227,0,0.454,0,0.681
	c0,0.151,0,0.302,0,0.454c0,0.226,0,0.453,0,0.681c0,0.151,0,0.302,0,0.453c0,0.227,0,0.454,0,0.681c0,0.151,0,0.302,0,0.454
	c0,0.227,0,0.454,0,0.681c0,0.151,0,0.303,0,0.454c0,0.227,0,0.454,0,0.681c0,0.151,0,0.303,0,0.454c0,0.227,0,0.453,0,0.681
	c0,0.15,0,0.302,0,0.453c0,0.227,0,0.454,0,0.681c0,0.151,0,0.302,0,0.454c0,0.227,0,0.454,0,0.681c0,0.151,0,0.302,0,0.454
	c0,0.227,0,0.454,0,0.681c0,0.151,0,0.303,0,0.454c0,0.227,0,0.454,0,0.68c0,0.151,0,0.303,0,0.455c0,0.226,0,0.454,0,0.68
	c0,0.151,0,0.302,0,0.454c0,0.227,0,0.454,0,0.681c0,0.151,0,0.302,0,0.454c0,0.227,0,0.454,0,0.681c0,0.151,0,0.302,0,0.454
	c0,0.227,0,0.454,0,0.681c0,0.151,0,0.303,0,0.454c0,0.227,0,0.454,0,0.68c0,0.151,0,0.303,0,0.455c0,0.227,0,0.453,0,0.68
	c0,0.151,0,0.303,0,0.454c0,0.227,0,0.454,0,0.681c0,0.151,0,0.303,0,0.453c0,0.228,0,0.454,0,0.682c0,0.15,0,0.302,0,0.453
	c0,0.227,0,0.454,0,0.681c0,0.151,0,0.303,0,0.453c0,0.228,0,0.454,0,0.681c0,0.151,0,0.303,0,0.454c0,0.227,0,0.454,0,0.681
	c0,0.15,0,0.303,0,0.453c0,0.227,0,0.454,0,0.682c0,0.15,0,0.302,0,0.453c0,0.227,0,0.453,0,0.681c0,0.151,0,0.302,0,0.454
	c0,0.227,0,0.453,0,0.68c0,0.151,0,0.303,0,0.453c0,0.228,0,0.455,0,0.682c0,0.15,0,0.303,0,0.453c0,0.227,0,0.454,0,0.682
	c0,0.15,0,0.302,0,0.453C43.022,115.922,43.022,116.148,43.022,116.376z"/>
<path fill="#232034" d="M50.282,130.895c0,2.42,0,4.84,0,7.259c2.42,0,4.84,0,7.259,0c0-2.419,0-4.839,0-7.259
	C55.122,130.895,52.702,130.895,50.282,130.895z"/>
<path fill="#232034" d="M50.282,116.376c0,2.419,0,4.839,0,7.259c2.42,0,4.84,0,7.259,0c0-2.42,0-4.84,0-7.259
	C55.122,116.376,52.702,116.376,50.282,116.376z"/>
<path fill="#E7F6FD" d="M50.282,94.598c0,2.42,0,4.84,0,7.26c2.42,0,4.84,0,7.259,0c0-2.42,0-4.84,0-7.26
	C55.122,94.598,52.702,94.598,50.282,94.598z"/>
<path fill="#010101" d="M50.282,94.598c2.42,0,4.84,0,7.259,0c0,2.42,0,4.84,0,7.26c2.42,0,4.827,0,7.26,0c0-2.42,0-4.84,0-7.26
	c0-1.21,0-2.42,0-3.629c0-0.605,0-1.21,0-1.815c0-0.681,0-1.361,0-2.042c-2.433,0-4.84,0-7.26,0c-2.419,0-4.839,0-7.259,0
	c0,1.21,0,2.42,0,3.63c0,0.605,0,1.21,0,1.815C50.282,93.236,50.282,93.917,50.282,94.598z"/>
<path fill="#848484" d="M50.282,79.853c0,2.42,0,4.839,0,7.259c2.42,0,4.84,0,7.259,0c0-2.419,0-4.839,0-7.259
	C55.122,79.853,52.702,79.853,50.282,79.853z"/>
<path fill="#232034" d="M50.282,65.334c0,4.839,0,9.679,0,14.519c2.42,0,4.84,0,7.259,0c0-2.419,0-4.84,0-7.26
	c0-2.419,0-4.839,0-7.259C55.122,65.334,52.702,65.334,50.282,65.334z"/>
<path fill="#F2FAFD" d="M50.961,14.519c3.631,0,7.26,0,10.889,0c3.555,0,7.109,0,10.65,0c7.196,0,14.379,0,21.563,0
	c0,2.42,0,4.84,0,7.259c4.827,0,9.679,0,14.519,0c0,2.42,0,4.839,0,7.259c4.827,0,9.68,0,14.519,0c0-4.839,0-9.679,0-14.519
	c9.68,0,19.346,0,29.037,0c0,2.42,0,4.84,0,7.259c2.42,0,4.827,0,7.259,0c0,2.42,0,4.839,0,7.259c2.421,0,4.841,0,7.26,0
	c0,0.756,0,1.513,0,2.269c0,0.152,0,0.302,0,0.454c0,0.227,0,0.454,0,0.681c0,0.151,0,0.302,0,0.454c0,0.227,0,0.454,0,0.681
	c0,0.756,0,1.513,0,2.269c0,0.151,0,0.302,0,0.454c0,0.226,0,0.453,0,0.681c0,0.151,0,0.302,0,0.453c0,0.227,0,0.454,0,0.681
	c0,0.756,0,1.513,0,2.269c0,0.151,0,0.303,0,0.454c0,0.227,0,0.453,0,0.681c0,0.15,0,0.302,0,0.453c0,0.227,0,0.454,0,0.681
	c0,0.756,0,1.512,0,2.269c0,0.151,0,0.303,0,0.454c0,0.227,0,0.454,0,0.68c0,0.151,0,0.303,0,0.455c0,0.226,0,0.454,0,0.68
	c0,0.756,0,1.512,0,2.269c0,0.151,0,0.302,0,0.454c0,0.227,0,0.454,0,0.681c0,0.151,0,0.303,0,0.454c0,0.227,0,0.454,0,0.68
	c0,0.151,0,0.303,0,0.455c0,0.226,0,0.453,0,0.68c0,0.151,0,0.302,0,0.454c0,0.227,0,0.454,0,0.681c0,0.151,0,0.302,0,0.454
	c0,0.227,0,0.454,0,0.681c0,0.151,0,0.302,0,0.454c0,0.227,0,0.454,0,0.681c0,0.151,0,0.303,0,0.453c0,0.228,0,0.454,0,0.681
	c0,0.151,0,0.303,0,0.454c0,0.227,0,0.454,0,0.681c0,0.151,0,0.302,0,0.454c0,0.227,0,0.454,0,0.681c0,0.151,0,0.302,0,0.454
	c0,0.227,0,0.454,0,0.681c0,0.151,0,0.302,0,0.454c0,0.227,0,0.454,0,0.68c0,0.151,0,0.303,0,0.454c0,0.227,0,0.454,0,0.681
	c0,0.151,0,0.303,0,0.454c0,0.227,0,0.454,0,0.681c0,0.151,0,0.302,0,0.454c0,0.227,0,0.454,0,0.681c0.228,0,0.454,0,0.681,0
	c0.151,0,0.29,0,0.454,0c0.303,0,0.604,0,0.907,0c0.605,0,1.21,0,1.814,0c1.21,0,2.42,0,3.63,0c0,0.227,0,0.454,0,0.681
	c0,0.15,0,0.302,0,0.454c0,0.227,0,0.454,0,0.68c0,0.228,0,0.454,0,0.681c0,0.227,0,0.454,0,0.681c0,0.151,0,0.302,0,0.454
	c0,0.227,0,0.454,0,0.681s0,0.454,0,0.681c0,0.227,0,0.454,0,0.681c0,1.739,0,3.478,0,5.217c0,0.151,0,0.303,0,0.454
	c0,0.227,0,0.453,0,0.681c0,0.226,0,0.453,0,0.681c0,0.226,0,0.453,0,0.68c0,0.151,0,0.302,0,0.454c0,0.227,0,0.454,0,0.681
	c0,0.227,0,0.454,0,0.681c0,0.227,0,0.454,0,0.681c0,0.151,0,0.302,0,0.454c0,0.226,0,0.454,0,0.68s0,0.454,0,0.681
	c0,0.227,0,0.454,0,0.681c0,0.907,0,1.815,0,2.722c0,0.227,0,0.454,0,0.68c2.42,0,4.827,0,7.259,0c0,2.42,0,4.84,0,7.26
	c0,1.21,0,2.42,0,3.63c0,0.604,0,1.209,0,1.814c0,0.303,0,0.605,0,0.908c0,0.151,0,0.302,0,0.454c0,0.227,0,0.454,0,0.681
	c-2.432,0-4.839,0-7.259,0c0,2.42,0,4.84,0,7.259c2.42,0,4.827,0,7.259,0c0,4.84,0,9.679,0,14.519c2.421,0,4.84,0,7.26,0
	c0,4.84,0,9.68,0,14.519c-2.42,0-4.839,0-7.26,0c0,2.42,0,4.841,0,7.26c-2.432,0-4.839,0-7.259,0c0,2.42,0,4.839,0,7.259
	c-1.21,0-2.42,0-3.63,0c-1.209,0-2.419,0-3.629,0c-1.211,0-2.433,0-3.643,0c-0.605,0-1.197,0-1.803,0c-0.302,0-0.604,0-0.907,0
	c-0.151,0-0.303,0-0.466,0c-0.215,0-0.441,0-0.669,0c0,2.42,0,4.84,0,7.26c-2.432,0-4.839,0-7.259,0c0,2.42,0,4.84,0,7.26
	c-9.691,0-19.357,0-29.037,0c0,2.419,0,4.839,0,7.259c-4.839,0-9.691,0-14.519,0c0,1.21,0,2.42,0,3.63c0,0.605,0,1.21,0,1.814
	c0,0.681,0,1.361,0,2.042c-2.42,0-4.84,0-7.259,0c0,2.42,0,4.839,0,7.259c-4.853,0-9.679,0-14.519,0c0-2.42,0-4.839,0-7.259
	c-4.928,0-9.831,0-14.746,0c0-2.495,0-4.991,0-7.486c-4.839,0-9.691,0-14.519,0c0-2.42,0-4.84,0-7.259c-2.419,0-4.839,0-7.259,0
	c0-2.42,0-4.84,0-7.26c-2.433,0-4.853,0-7.26,0c0-2.42,0-4.84,0-7.26c-2.42,0-4.84,0-7.259,0c0-0.227,0-0.453,0-0.68
	c0-0.152,0-0.303,0-0.454c0-0.228,0-0.454,0-0.681c0-0.453,0-0.908,0-1.361c0-0.906,0-1.814,0-2.722c0-0.151,0-0.303,0-0.454
	c0-0.227,0-0.453,0-0.681c0-0.454,0-0.907,0-1.361c0-0.907,0-1.814,0-2.722c0-1.739,0-3.479,0-5.218c0-1.815,0-3.63,0-5.444
	c0-0.151,0-0.303,0-0.454c0-0.227,0-0.454,0-0.681c0-0.453,0-0.907,0-1.36c0-0.907,0-1.815,0-2.723c0-0.151,0-0.303,0-0.454
	c0-0.227,0-0.453,0-0.68c0-0.454,0-0.908,0-1.361c0-0.908,0-1.814,0-2.723c0-1.739,0-3.479,0-5.217c0-1.816,0-3.631,0-5.445
	c0-0.227,0-0.453,0-0.681c-2.421,0-4.853,0-7.26,0c0-2.419,0-4.839,0-7.259c-2.419,0-4.839,0-7.259,0c0-3.63,0-7.26,0-10.889
	c0-3.706,0-7.411,0-11.116c2.42,0,4.84,0,7.259,0c0-4.84,0-9.679,0-14.519c2.407,0,4.839,0,7.26,0c0-2.42,0-4.84,0-7.26
	c2.419,0,4.839,0,7.259,0c0-2.419,0-4.839,0-7.259c-2.42,0-4.84,0-7.259,0c0-4.84,0-9.68,0-14.519c2.419,0,4.839,0,7.259,0
	c0-4.839,0-9.68,0-14.519c2.407,0,4.827,0,7.26,0c0-2.419,0-4.839,0-7.259C50.508,14.519,50.735,14.519,50.961,14.519z
	 M71.606,152.672c0.15,0,0.289,0,0.453,0c0.228,0,0.441,0,0.681,0c0.151,0,0.302,0,0.454,0c0.227,0,0.453,0,0.68,0
	c1.514,0,3.013,0,4.537,0c0.366,0,0.757,0,1.135,0c0.379,0,0.756,0,1.122,0c0.391,0,0.769,0,1.147,0c0.377,0,0.742,0,1.133,0
	c1.5,0,3.025,0,4.538,0c0.378,0,0.743,0,1.134,0c0.378,0,0.756,0,1.135,0c0.365,0,0.756,0,1.134,0s0.757,0,1.122,0
	c1.524,0,3.037,0,4.549,0c0.757,0,1.513,0,2.27,0c0.831,0,1.663,0,2.495,0c1.814,0,3.629,0,5.444,0c1.814,0,3.629,0,5.432,0
	c1.827,0,3.643,0,5.457,0s3.63,0,5.444,0c0-2.42,0-4.839,0-7.259c0.228,0,0.441,0,0.681,0c0.529,0,1.046,0,1.588,0
	c0.604,0,1.21,0,1.815,0c0.529,0,1.059,0,1.587,0c0.605,0,1.21,0,1.815,0c0.075,0,0.151,0,0.227,0c0.151,0,0.29,0,0.454,0
	c0.303,0,0.604,0,0.907,0c0.605,0,1.21,0,1.814,0c1.21,0,2.42,0,3.63,0c0-2.419,0-4.84,0-7.26c2.42,0,4.827,0,7.259,0
	c0-2.419,0-4.839,0-7.259c2.421,0,4.84,0,7.26,0c0-9.68,0-19.358,0-29.037c2.42,0,4.827,0,7.259,0c0-2.42,0-4.84,0-7.26
	c0-1.21,0-2.42,0-3.629c0-0.605,0-1.21,0-1.815c0-0.681,0-1.361,0-2.042c-2.432,0-4.839,0-7.259,0c0-2.419,0-4.839,0-7.259
	c-2.42,0-4.839,0-7.26,0c0-0.227,0-0.454,0-0.681c0-0.454,0-0.908,0-1.361c0-0.529,0-1.058,0-1.588c0-0.454,0-0.907,0-1.361
	c0-0.227,0-0.454,0-0.681c0-0.303,0-0.605,0-0.908c0-0.227,0-0.454,0-0.681c2.421,0,4.84,0,7.26,0c0-1.814,0-3.629,0-5.444
	c0-1.814,0-3.629,0-5.444c0-1.815,0-3.63,0-5.445c0-1.815,0-3.63,0-5.444c-2.42,0-4.839,0-7.26,0c0,4.839,0,9.679,0,14.519
	c-2.432,0-4.839,0-7.259,0c0,2.419,0,4.839,0,7.259c-2.42,0-4.839,0-7.26,0c0-2.419,0-4.839,0-7.259c-2.432,0-4.839,0-7.259,0
	c0-2.42,0-4.84,0-7.26c-2.42,0-4.839,0-7.259,0c0-2.419,0-4.839,0-7.259c-3.643,0-7.26,0-10.89,0c-3.629,0-7.271,0-10.889,0
	c-3.63,0-7.259,0-10.901,0c-3.705,0-7.398,0-11.104,0c0,2.419,0,4.839,0,7.259c-4.839,0-9.691,0-14.519,0c0,2.42,0,4.84,0,7.26
	c-2.419,0-4.839,0-7.259,0c0,4.839,0,9.679,0,14.519c-2.433,0-4.853,0-7.26,0c0,0.151,0,0.302,0,0.454c0,0.681,0,1.361,0,2.042
	c0,0.152,0,0.302,0,0.454c0,0.227,0,0.454,0,0.681c0,0.151,0,0.302,0,0.454c0,0.227,0,0.454,0,0.681c0,0.151,0,0.303,0,0.454
	c0,0.227,0,0.454,0,0.681c0,0.151,0,0.303,0,0.454c0,0.227,0,0.454,0,0.681c0,0.151,0,0.302,0,0.454c0,0.226,0,0.453,0,0.681
	c0,0.151,0,0.302,0,0.453c0,0.227,0,0.454,0,0.681c0,0.151,0,0.302,0,0.454c0,0.227,0,0.454,0,0.681c0,0.151,0,0.303,0,0.454
	c0,0.227,0,0.454,0,0.681c0,0.151,0,0.303,0,0.454c0,0.227,0,0.453,0,0.681c0,0.15,0,0.302,0,0.453c0,0.227,0,0.454,0,0.681
	c0,0.151,0,0.302,0,0.454c0,0.227,0,0.454,0,0.681c0,0.151,0,0.302,0,0.454c0,0.227,0,0.454,0,0.681c0,0.151,0,0.303,0,0.454
	c0,0.227,0,0.454,0,0.68c0,0.151,0,0.303,0,0.455c0,0.226,0,0.454,0,0.68c0,0.151,0,0.302,0,0.454c0,0.227,0,0.454,0,0.681
	c0,0.151,0,0.302,0,0.454c0,0.227,0,0.454,0,0.681c0,0.151,0,0.302,0,0.454c0,0.227,0,0.454,0,0.681c0,0.151,0,0.303,0,0.454
	c0,0.227,0,0.454,0,0.68c0,0.151,0,0.303,0,0.455c0,0.227,0,0.453,0,0.68c0,0.151,0,0.303,0,0.454c0,0.227,0,0.454,0,0.681
	c0,0.151,0,0.303,0,0.453c0,0.228,0,0.454,0,0.682c0,0.15,0,0.302,0,0.453c0,0.227,0,0.454,0,0.681c0,0.151,0,0.303,0,0.453
	c0,0.228,0,0.454,0,0.681c0,0.151,0,0.303,0,0.454c0,0.227,0,0.454,0,0.681c0,0.15,0,0.303,0,0.453c0,0.227,0,0.454,0,0.682
	c0,0.15,0,0.302,0,0.453c0,0.227,0,0.453,0,0.681c0,0.151,0,0.302,0,0.454c0,0.227,0,0.453,0,0.68c0,0.151,0,0.303,0,0.453
	c0,0.228,0,0.455,0,0.682c0,0.15,0,0.303,0,0.453c0,0.227,0,0.454,0,0.682c0,0.15,0,0.302,0,0.453c0,0.227,0,0.453,0,0.681
	c2.407,0,4.827,0,7.26,0c0,2.419,0,4.839,0,7.259c2.42,0,4.84,0,7.259,0c0,2.42,0,4.84,0,7.26c-2.419,0-4.839,0-7.259,0
	c0,2.42,0,4.84,0,7.259c2.42,0,4.84,0,7.259,0c0,2.42,0,4.841,0,7.26c2.42,0,4.827,0,7.26,0c0,2.42,0,4.839,0,7.259
	c1.513,0,3.024,0,4.524,0C70.093,152.672,70.85,152.672,71.606,152.672z"/>
<path fill="#232034" d="M57.541,138.153c0,2.42,0,4.841,0,7.26c2.42,0,4.827,0,7.26,0c0-2.419,0-4.84,0-7.26
	C62.368,138.153,59.96,138.153,57.541,138.153z"/>
<path fill="#C3CAD1" d="M57.541,130.895c0,2.42,0,4.84,0,7.259c2.42,0,4.827,0,7.26,0c0-2.419,0-4.839,0-7.259
	C62.368,130.895,59.96,130.895,57.541,130.895z"/>
<path fill="#232034" d="M57.541,123.635c0,2.42,0,4.84,0,7.26c2.42,0,4.827,0,7.26,0c0-2.42,0-4.84,0-7.26
	C62.368,123.635,59.96,123.635,57.541,123.635z"/>
<path fill="#010101" d="M57.541,116.376c0,2.419,0,4.839,0,7.259c2.42,0,4.827,0,7.26,0c0-2.42,0-4.84,0-7.259
	C62.368,116.376,59.96,116.376,57.541,116.376z"/>
<path fill="#848484" d="M57.541,65.334c0,2.419,0,4.839,0,7.259c2.42,0,4.827,0,7.26,0c0-2.419,0-4.839,0-7.259
	C62.368,65.334,59.96,65.334,57.541,65.334z"/>
<path fill="#232034" d="M57.541,58.074c0,2.42,0,4.84,0,7.26c2.42,0,4.827,0,7.26,0c2.42,0,4.839,0,7.259,0c0-2.42,0-4.84,0-7.26
	C67.22,58.074,62.368,58.074,57.541,58.074z"/>
<path fill="#010101" d="M64.8,101.857c0,2.42,0,4.84,0,7.259c2.42,0,4.839,0,7.259,0c0-2.419,0-4.839,0-7.259
	C69.639,101.857,67.22,101.857,64.8,101.857z"/>
<path fill="#C3CAD1" d="M64.8,138.153c0,2.42,0,4.841,0,7.26c0.681,0,1.349,0,2.028,0c0.605,0,1.211,0,1.828,0
	c0.604,0,1.209,0,1.814,0s1.211,0,1.815,0s1.21,0,1.814,0s1.21,0,1.815,0c0.604,0,1.209,0,1.814,0c0.604,0,1.209,0,1.814,0
	s1.21,0,1.803,0c0.604,0,1.209,0,1.814,0c0.617,0,1.223,0,1.827,0c0.605,0,1.21,0,1.815,0s1.209,0,1.814,0s1.21,0,1.814,0
	c0.605,0,1.211,0,1.815,0s1.21,0,1.814,0c0-2.419,0-4.84,0-7.26c2.407,0,4.827,0,7.26,0c2.419,0,4.839,0,7.259,0
	c0-1.814,0-3.63,0-5.444s0-3.629,0-5.444s0-3.63,0-5.444s0-3.63,0-5.444c-2.42,0-4.84,0-7.259,0c0-4.84,0-9.679,0-14.519
	c-2.433,0-4.853,0-7.26,0c-2.419,0-4.839,0-7.259,0c-0.681,0-1.361,0-2.042,0c-0.604,0-1.21,0-1.815,0c-0.604,0-1.209,0-1.814,0
	c-0.604,0-1.209,0-1.814,0c0-2.42,0-4.84,0-7.26c-2.433,0-4.84,0-7.26,0c0-1.21,0-2.42,0-3.629c0-0.605,0-1.21,0-1.815
	s0-1.21,0-1.814c0-0.076,0-0.151,0-0.228c2.42,0,4.827,0,7.26,0c1.891,0,3.78,0,5.671,0c1.815,0,3.63,0,5.444,0
	c1.815,0,3.63,0,5.445,0c1.802,0,3.629,0,5.444,0c0,0.681,0,1.361,0,2.042c0,0.605,0,1.21,0,1.815c0,1.209,0,2.419,0,3.629
	c2.419,0,4.839,0,7.259,0c0-1.21,0-2.42,0-3.629c0-1.21,0-2.42,0-3.629c0-0.076,0-0.151,0-0.228c4.827,0,9.68,0,14.519,0
	c0-2.419,0-4.839,0-7.259c-2.42,0-4.839,0-7.259,0c0-4.84,0-9.679,0-14.519c-2.433,0-4.84,0-7.26,0c0-2.42,0-4.84,0-7.26
	c-4.84,0-9.691,0-14.519,0c-4.915,0-9.83,0-14.745,0c0,2.42,0,4.84,0,7.26c-2.433,0-4.84,0-7.26,0s-4.839,0-7.259,0
	c0,2.419,0,4.839,0,7.259c-2.433,0-4.84,0-7.26,0c0,2.42,0,4.84,0,7.26c0,2.42,0,4.839,0,7.259c2.42,0,4.827,0,7.26,0
	c0,0.681,0,1.361,0,2.042c0,0.605,0,1.21,0,1.815c0,1.209,0,2.419,0,3.629c0,2.42,0,4.84,0,7.26c2.42,0,4.839,0,7.259,0
	c0,2.42,0,4.84,0,7.259c-2.42,0-4.839,0-7.259,0c0-2.419,0-4.839,0-7.259c-2.433,0-4.84,0-7.26,0c-2.419,0-4.839,0-7.259,0
	c0,4.84,0,9.679,0,14.519c2.42,0,4.84,0,7.259,0c2.42,0,4.827,0,7.26,0c0,2.419,0,4.839,0,7.259c2.42,0,4.839,0,7.259,0
	c0-2.42,0-4.84,0-7.259c2.42,0,4.827,0,7.26,0c0,2.419,0,4.839,0,7.259c0.68,0,1.349,0,2.029,0c0.604,0,1.209,0,1.814,0
	c0.617,0,1.223,0,1.827,0c0.605,0,1.21,0,1.815,0c0-2.42,0-4.84,0-7.259c2.42,0,4.84,0,7.259,0c0,2.419,0,4.839,0,7.259
	c2.407,0,4.827,0,7.26,0c0,2.42,0,4.84,0,7.26c-4.853,0-9.679,0-14.519,0c0,2.42,0,4.84,0,7.259c-0.227,0-0.467,0-0.681,0
	c-0.907,0-1.815,0-2.723,0c-0.454,0-0.907,0-1.361,0c-0.226,0-0.453,0-0.692,0c-0.215,0-0.441,0-0.681,0c-0.214,0-0.441,0-0.669,0
	c-0.227,0-0.453,0-0.68,0s-0.454,0-0.681,0c-0.228,0-0.466,0-0.681,0c-0.467,0-0.908,0-1.361,0c-0.227,0-0.453,0-0.68,0
	c-0.152,0-0.315,0-0.454,0c-0.228,0-0.466,0-0.681,0c-0.227,0-0.454,0-0.681,0c-0.228,0-0.454,0-0.681,0s-0.453,0-0.681,0
	c-0.151,0-0.303,0-0.453,0c-0.075,0-0.151,0-0.228,0c-0.164,0-0.303,0-0.453,0c-0.076,0-0.151,0-0.227,0c-0.228,0-0.454,0-0.682,0
	c-0.227,0-0.453,0-0.692,0c-0.14,0-0.29,0-0.441,0c-0.075,0-0.151,0-0.239,0c-0.139,0-0.29,0-0.441,0c-0.076,0-0.164,0-0.227,0
	c-0.151,0-0.303,0-0.454,0c-0.088,0-0.163,0-0.228,0c-0.15,0-0.302,0-0.453,0c-0.088,0-0.151,0-0.227,0c-0.467,0-0.907,0-1.361,0
	c-0.227,0-0.453,0-0.68,0C65.102,138.153,64.939,138.153,64.8,138.153z"/>
<path fill="#232034" d="M64.8,145.413c0,2.42,0,4.839,0,7.259c1.513,0,3.024,0,4.524,0c0.769,0,1.525,0,2.281,0
	c0.15,0,0.289,0,0.453,0c0.228,0,0.441,0,0.681,0c0.151,0,0.302,0,0.454,0c0.227,0,0.453,0,0.68,0c1.514,0,3.013,0,4.537,0
	c0.366,0,0.757,0,1.135,0c0.379,0,0.756,0,1.122,0c0.391,0,0.769,0,1.147,0c0.377,0,0.742,0,1.133,0c1.5,0,3.025,0,4.538,0
	c0.378,0,0.743,0,1.134,0c0.378,0,0.756,0,1.135,0c0.365,0,0.756,0,1.134,0s0.757,0,1.122,0c1.524,0,3.037,0,4.549,0
	c0.757,0,1.513,0,2.27,0c0.831,0,1.663,0,2.495,0c0-2.42,0-4.839,0-7.259c-2.433,0-4.853,0-7.26,0c-0.604,0-1.21,0-1.814,0
	s-1.21,0-1.815,0c-0.604,0-1.209,0-1.814,0s-1.209,0-1.814,0s-1.21,0-1.815,0c-0.604,0-1.21,0-1.827,0c-0.605,0-1.21,0-1.814,0
	c-0.593,0-1.197,0-1.803,0s-1.21,0-1.814,0c-0.605,0-1.21,0-1.814,0c-0.605,0-1.211,0-1.815,0s-1.21,0-1.814,0s-1.21,0-1.815,0
	s-1.21,0-1.814,0c-0.617,0-1.223,0-1.828,0C66.149,145.413,65.481,145.413,64.8,145.413z"/>
<path fill="#848484" d="M72.059,90.968c0,1.209,0,2.419,0,3.629c2.42,0,4.827,0,7.26,0c0-1.21,0-2.42,0-3.629
	c0-0.605,0-1.21,0-1.815s0-1.21,0-1.814c0-0.076,0-0.151,0-0.228c-2.433,0-4.84,0-7.26,0c0,0.076,0,0.151,0,0.228
	c0,0.604,0,1.209,0,1.814S72.059,90.363,72.059,90.968z"/>
<path fill="#848484" d="M72.059,58.074c0,2.42,0,4.84,0,7.26c2.42,0,4.827,0,7.26,0c0-2.42,0-4.84,0-7.26
	C76.886,58.074,74.479,58.074,72.059,58.074z"/>
<path fill="#232034" d="M72.059,50.815c0,2.419,0,4.839,0,7.259c2.42,0,4.827,0,7.26,0c4.915,0,9.83,0,14.745,0
	c4.827,0,9.679,0,14.519,0c2.42,0,4.827,0,7.26,0c0-2.419,0-4.839,0-7.259c-3.643,0-7.26,0-10.89,0c-3.629,0-7.271,0-10.889,0
	c-3.63,0-7.259,0-10.901,0C79.458,50.815,75.764,50.815,72.059,50.815z"/>
<path fill="#010101" d="M79.319,89.153c0,0.605,0,1.21,0,1.815c0,1.209,0,2.419,0,3.629c0.68,0,1.349,0,2.029,0
	c0.604,0,1.209,0,1.814,0c0.617,0,1.223,0,1.827,0c0.605,0,1.21,0,1.815,0c0,2.42,0,4.84,0,7.26c2.42,0,4.84,0,7.259,0
	c0-2.42,0-4.84,0-7.26c2.407,0,4.827,0,7.26,0c0-1.21,0-2.42,0-3.629c0-0.605,0-1.21,0-1.815c0-0.681,0-1.361,0-2.042
	c-1.815,0-3.643,0-5.444,0c-1.815,0-3.63,0-5.445,0c-1.814,0-3.629,0-5.444,0c-1.891,0-3.78,0-5.671,0c0,0.076,0,0.151,0,0.228
	C79.319,87.943,79.319,88.548,79.319,89.153z"/>
<path fill="#E7F6FD" d="M79.319,94.598c0,2.42,0,4.84,0,7.26c0.605,0,1.21,0,1.814,0c0.605,0,1.211,0,1.814,0
	c0.605,0,1.211,0,1.815,0c0.681,0,1.361,0,2.042,0c0-2.42,0-4.84,0-7.26c-0.605,0-1.21,0-1.815,0c-0.604,0-1.21,0-1.827,0
	c-0.605,0-1.21,0-1.814,0C80.667,94.598,79.999,94.598,79.319,94.598z"/>
<path fill="#010101" d="M86.805,123.635c-0.605,0-1.21,0-1.815,0c-0.604,0-1.21,0-1.827,0c-0.605,0-1.21,0-1.814,0
	c-0.681,0-1.35,0-2.029,0c0-2.42,0-4.84,0-7.259c-2.433,0-4.84,0-7.26,0c0,2.419,0,4.839,0,7.259c-2.42,0-4.839,0-7.259,0
	c0,2.42,0,4.84,0,7.26s0,4.84,0,7.259c0.139,0,0.302,0,0.454,0c0.227,0,0.453,0,0.68,0c0.454,0,0.895,0,1.361,0
	c0.075,0,0.139,0,0.227,0c0.151,0,0.303,0,0.453,0c0.064,0,0.14,0,0.228,0c0.151,0,0.303,0,0.454,0c0.063,0,0.15,0,0.227,0
	c0.151,0,0.303,0,0.441,0c0.088,0,0.164,0,0.239,0c0.151,0,0.302,0,0.441,0c0.239,0,0.466,0,0.692,0c0.228,0,0.454,0,0.682,0
	c0.075,0,0.15,0,0.227,0c0.15,0,0.289,0,0.453,0c0.076,0,0.152,0,0.228,0c0.15,0,0.302,0,0.453,0c0.228,0,0.454,0,0.681,0
	s0.453,0,0.681,0c0.227,0,0.454,0,0.681,0c0.215,0,0.453,0,0.681,0c0.139,0,0.302,0,0.454,0c0.227,0,0.453,0,0.68,0
	c0.453,0,0.895,0,1.361,0c0.215,0,0.453,0,0.681,0c0.227,0,0.454,0,0.681,0s0.453,0,0.68,0c0.228,0,0.455,0,0.669,0
	c0.239,0,0.466,0,0.681,0c0.239,0,0.467,0,0.692,0c0.454,0,0.907,0,1.361,0c0.907,0,1.815,0,2.723,0c0.214,0,0.454,0,0.681,0
	c0-2.419,0-4.839,0-7.259c4.84,0,9.666,0,14.519,0c0-2.42,0-4.84,0-7.26c-2.433,0-4.853,0-7.26,0c0-2.42,0-4.84,0-7.259
	c-2.419,0-4.839,0-7.259,0C86.805,118.795,86.805,121.215,86.805,123.635z"/>
<path fill="#848484" d="M94.064,138.153c0,2.42,0,4.841,0,7.26c2.407,0,4.827,0,7.26,0c0-2.419,0-4.84,0-7.26
	C98.891,138.153,96.471,138.153,94.064,138.153z"/>
<path fill="#DFF3FD" d="M101.324,145.413c0,2.42,0,4.839,0,7.259c1.814,0,3.629,0,5.444,0c1.814,0,3.629,0,5.432,0
	c1.827,0,3.643,0,5.457,0s3.63,0,5.444,0c0-2.42,0-4.839,0-7.259c0.228,0,0.441,0,0.681,0c0.529,0,1.046,0,1.588,0
	c0.604,0,1.21,0,1.815,0c0.529,0,1.059,0,1.587,0c0.605,0,1.21,0,1.815,0c0.075,0,0.151,0,0.227,0c0.151,0,0.29,0,0.454,0
	c0.303,0,0.604,0,0.907,0c0.605,0,1.21,0,1.814,0c1.21,0,2.42,0,3.63,0c0-2.419,0-4.84,0-7.26c-4.839,0-9.691,0-14.519,0
	c0-2.419,0-4.839,0-7.259c-2.42,0-4.839,0-7.259,0c0,2.42,0,4.84,0,7.259c-2.433,0-4.84,0-7.26,0c0,2.42,0,4.841,0,7.26
	C106.163,145.413,103.743,145.413,101.324,145.413z"/>
<path fill="#232034" d="M101.324,138.153c0,2.42,0,4.841,0,7.26c2.419,0,4.839,0,7.259,0c0-2.419,0-4.84,0-7.26
	C106.163,138.153,103.743,138.153,101.324,138.153z"/>
<path fill="#FFFFFF" d="M108.583,179.895c0,0.681,0,1.361,0,2.042c-2.42,0-4.84,0-7.259,0c0,2.42,0,4.839,0,7.259
	c-4.853,0-9.679,0-14.519,0c0-2.42,0-4.839,0-7.259c-4.928,0-9.831,0-14.746,0c0-2.495,0-4.991,0-7.486c-4.839,0-9.691,0-14.519,0
	c0-2.42,0-4.84,0-7.259c-2.419,0-4.839,0-7.259,0c0-2.42,0-4.84,0-7.26c-2.433,0-4.853,0-7.26,0c0-2.42,0-4.84,0-7.26
	c-2.42,0-4.84,0-7.259,0c0-0.227,0-0.453,0-0.68c0-0.152,0-0.303,0-0.454c0-0.228,0-0.454,0-0.681c0-0.453,0-0.908,0-1.361
	c0-0.906,0-1.814,0-2.722c0-0.151,0-0.303,0-0.454c0-0.227,0-0.453,0-0.681c0-0.454,0-0.907,0-1.361c0-0.907,0-1.814,0-2.722
	c0-1.739,0-3.479,0-5.218c0-1.815,0-3.63,0-5.444c0-0.151,0-0.303,0-0.454c0-0.227,0-0.454,0-0.681c0-0.453,0-0.907,0-1.36
	c0-0.907,0-1.815,0-2.723c0-0.151,0-0.303,0-0.454c0-0.227,0-0.453,0-0.68c0-0.454,0-0.908,0-1.361c0-0.908,0-1.814,0-2.723
	c0-1.739,0-3.479,0-5.217c0-1.816,0-3.631,0-5.445c0-0.227,0-0.453,0-0.681c-2.421,0-4.853,0-7.26,0c0-2.419,0-4.839,0-7.259
	c-2.419,0-4.839,0-7.259,0c0-3.63,0-7.26,0-10.889c0-3.706,0-7.411,0-11.116c2.42,0,4.84,0,7.259,0c0-4.84,0-9.679,0-14.519
	c-2.419,0-4.839,0-7.259,0c0,2.419,0,4.839,0,7.259c-0.228,0-0.467,0-0.681,0c-0.996,0-1.966,0-2.95,0c-0.982,0-1.965,0-2.948,0
	c-0.228,0-0.454,0-0.681,0c0,4.84,0,9.68,0,14.519c-2.42,0-4.84,0-7.26,0c0,3.63,0,7.26,0,10.89c0,1.814,0,3.629,0,5.444
	c0,1.891,0,3.78,0,5.671c2.42,0,4.84,0,7.26,0c0,0.228,0,0.454,0,0.681c0,2.27,0,4.537,0,6.806c0,2.345,0,4.688,0,7.032
	c2.407,0,4.84,0,7.26,0c0,2.42,0,4.84,0,7.26c2.42,0,4.84,0,7.259,0c0,0.227,0,0.453,0,0.681c0,2.344,0,4.688,0,7.032
	s0,4.688,0,7.032c0,2.345,0,4.688,0,7.032c0,2.42,0,4.84,0,7.26c2.407,0,4.839,0,7.26,0c0,0.227,0,0.453,0,0.681
	c0,4.612,0,9.226,0,13.838c2.419,0,4.839,0,7.259,0c0,1.21,0,2.42,0,3.63c0,0.605,0,1.21,0,1.814c0,0.681,0,1.361,0,2.042
	c3.617,0,7.26,0,10.889,0c3.63,0,7.247,0,10.89,0c0,2.42,0,4.839,0,7.259c2.42,0,4.839,0,7.259,0c0,2.42,0,4.84,0,7.26
	c2.42,0,4.827,0,7.26,0c0,0.227,0,0.453,0,0.681c0,1.966,0,3.932,0,5.897c0,0.228,0,0.455,0,0.682c7.335,0,14.67,0,22.005,0
	c0-2.42,0-4.84,0-7.26c0.227,0,0.454,0,0.68,0c2.269,0,4.524,0,6.806,0c2.345,0,4.676,0,7.033,0c0-2.42,0-4.84,0-7.26
	c0.227,0,0.453,0,0.68,0c0.983,0,1.954,0,2.949,0c0.983,0,1.967,0,2.949,0c0.228,0,0.441,0,0.681,0c0-2.42,0-4.839,0-7.259
	c0.228,0,0.441,0,0.681,0c2.256,0,4.537,0,6.806,0c2.344,0,4.688,0,7.032,0c0-2.495,0-4.991,0-7.486c0.228,0,0.441,0,0.681,0
	c4.613,0,9.213,0,13.838,0c0-2.42,0-4.84,0-7.259c-9.691,0-19.357,0-29.037,0c0,2.419,0,4.839,0,7.259c-4.839,0-9.691,0-14.519,0
	c0,1.21,0,2.42,0,3.63C108.583,178.686,108.583,179.29,108.583,179.895z"/>
<path fill="#232034" d="M108.583,132.709c0,1.814,0,3.63,0,5.444c2.42,0,4.827,0,7.26,0c0-2.419,0-4.839,0-7.259
	c0-4.84,0-9.68,0-14.519c2.42,0,4.839,0,7.259,0c0-2.42,0-4.84,0-7.26c2.42,0,4.827,0,7.259,0c0-2.419,0-4.839,0-7.259
	c2.421,0,4.84,0,7.26,0c0-4.84,0-9.68,0-14.519c0-2.42,0-4.839,0-7.26c0-1.21,0-2.42,0-3.629c0-0.605,0-1.21,0-1.815
	c0-0.681,0-1.361,0-2.042c-2.42,0-4.839,0-7.26,0c0,3.63,0,7.26,0,10.889c0,3.706,0,7.411,0,11.116c-2.432,0-4.839,0-7.259,0
	c0,2.42,0,4.84,0,7.26c-2.42,0-4.839,0-7.259,0c0,2.42,0,4.84,0,7.259c-2.433,0-4.84,0-7.26,0c0,2.42,0,4.84,0,7.26
	c0,1.814,0,3.63,0,5.444s0,3.629,0,5.444S108.583,130.895,108.583,132.709z"/>
<path fill="#848484" d="M108.583,90.968c0,1.209,0,2.419,0,3.629c-2.42,0-4.84,0-7.259,0c-2.433,0-4.853,0-7.26,0
	c0,2.42,0,4.84,0,7.26c2.407,0,4.827,0,7.26,0c0,4.84,0,9.679,0,14.519c2.419,0,4.839,0,7.259,0c0-2.42,0-4.84,0-7.26
	c2.42,0,4.827,0,7.26,0c0-2.419,0-4.839,0-7.259c2.42,0,4.839,0,7.259,0c0-2.42,0-4.84,0-7.26c2.42,0,4.827,0,7.259,0
	c0-3.705,0-7.41,0-11.116c0-3.629,0-7.259,0-10.889c-2.432,0-4.839,0-7.259,0c0-2.419,0-4.839,0-7.259c-2.42,0-4.839,0-7.259,0
	c0,4.839,0,9.679,0,14.519c2.42,0,4.839,0,7.259,0c0,2.42,0,4.839,0,7.259c-4.839,0-9.691,0-14.519,0c0,0.076,0,0.151,0,0.228
	C108.583,88.548,108.583,89.758,108.583,90.968z"/>
<path fill="#848484" d="M108.583,58.074c0,2.42,0,4.84,0,7.26c2.42,0,4.827,0,7.26,0c0-2.42,0-4.84,0-7.26
	C113.41,58.074,111.002,58.074,108.583,58.074z"/>
<path fill="#E7F6FD" d="M115.842,116.376c0,4.839,0,9.679,0,14.519c2.42,0,4.839,0,7.259,0c0,2.42,0,4.84,0,7.259
	c4.827,0,9.68,0,14.519,0c0-2.419,0-4.839,0-7.259c-2.42,0-4.839,0-7.26,0c0-4.84,0-9.68,0-14.519c2.421,0,4.84,0,7.26,0
	c0-2.42,0-4.84,0-7.26c2.42,0,4.827,0,7.259,0c0-2.419,0-4.839,0-7.259c-2.432,0-4.839,0-7.259,0s-4.839,0-7.26,0
	c0,2.42,0,4.84,0,7.259c-2.432,0-4.839,0-7.259,0c0,2.42,0,4.84,0,7.26C120.681,116.376,118.262,116.376,115.842,116.376z"/>
<path fill="#232034" d="M115.842,58.074c0,2.42,0,4.84,0,7.26c2.42,0,4.839,0,7.259,0c0-2.42,0-4.84,0-7.26
	C120.681,58.074,118.262,58.074,115.842,58.074z"/>
<path fill="#232034" d="M123.101,65.334c0,2.419,0,4.839,0,7.259c2.42,0,4.827,0,7.259,0c0-2.419,0-4.839,0-7.259
	C127.928,65.334,125.521,65.334,123.101,65.334z"/>
<path fill="#FFFFFF" d="M123.101,7.259c0,2.42,0,4.839,0,7.259c9.68,0,19.346,0,29.037,0c0,2.42,0,4.84,0,7.259
	c2.42,0,4.827,0,7.259,0c0,2.42,0,4.839,0,7.259c2.421,0,4.841,0,7.26,0c0-4.839,0-9.679,0-14.519c-2.419,0-4.839,0-7.26,0
	c0-2.42,0-4.839,0-7.259c-2.432,0-4.839,0-7.259,0c0-0.227,0-0.454,0-0.681c0-1.966,0-3.932,0-5.898c0-0.226,0-0.454,0-0.68
	c-3.629,0-7.26,0-10.889,0c-3.63,0-7.26,0-10.89,0c0,2.42,0,4.84,0,7.259C127.928,7.259,125.521,7.259,123.101,7.259z"/>
<path fill="#DFF3FD" d="M137.62,76.45c0,1.209,0,2.419,0,3.629c0,2.42,0,4.84,0,7.26c0,4.839,0,9.679,0,14.519
	c2.42,0,4.827,0,7.259,0c0,2.42,0,4.84,0,7.259c-2.432,0-4.839,0-7.259,0c0,2.42,0,4.84,0,7.26c-2.42,0-4.839,0-7.26,0
	c0,4.839,0,9.679,0,14.519c2.421,0,4.84,0,7.26,0c0,2.42,0,4.84,0,7.259c2.42,0,4.827,0,7.259,0c0-2.419,0-4.839,0-7.259
	c2.421,0,4.84,0,7.26,0c0-9.68,0-19.358,0-29.037c2.42,0,4.827,0,7.259,0c0-2.42,0-4.84,0-7.26c0-1.21,0-2.42,0-3.629
	c0-0.605,0-1.21,0-1.815c0-0.681,0-1.361,0-2.042c-2.432,0-4.839,0-7.259,0c0-2.419,0-4.839,0-7.259c-2.42,0-4.839,0-7.26,0
	c0-0.227,0-0.454,0-0.681c0-0.454,0-0.908,0-1.361c0-0.529,0-1.058,0-1.588c0-0.454,0-0.907,0-1.361c0-0.227,0-0.454,0-0.681
	c0-0.303,0-0.605,0-0.908c0-0.227,0-0.454,0-0.681c2.421,0,4.84,0,7.26,0c0-1.814,0-3.629,0-5.444c0-1.814,0-3.629,0-5.444
	c0-1.815,0-3.63,0-5.445c0-1.815,0-3.63,0-5.444c-2.42,0-4.839,0-7.26,0c0,4.839,0,9.679,0,14.519c-2.432,0-4.839,0-7.259,0
	c0,2.419,0,4.839,0,7.259c0,0.681,0,1.361,0,2.042C137.62,75.24,137.62,75.845,137.62,76.45z"/>
<path fill="#FFFFFF" d="M181.402,101.177c0,0.227,0,0.454,0,0.681c-2.432,0-4.839,0-7.259,0c0,2.42,0,4.84,0,7.259
	c2.42,0,4.827,0,7.259,0c0,4.84,0,9.679,0,14.519c2.421,0,4.84,0,7.26,0c0,4.84,0,9.68,0,14.519c-2.42,0-4.839,0-7.26,0
	c0,2.42,0,4.841,0,7.26c-2.432,0-4.839,0-7.259,0c0,2.42,0,4.839,0,7.259c-1.21,0-2.42,0-3.63,0c-1.209,0-2.419,0-3.629,0
	c-1.211,0-2.433,0-3.643,0c-0.605,0-1.197,0-1.803,0c-0.302,0-0.604,0-0.907,0c-0.151,0-0.303,0-0.466,0c-0.215,0-0.441,0-0.669,0
	c0,2.42,0,4.84,0,7.26c-2.432,0-4.839,0-7.259,0c0,2.42,0,4.84,0,7.26c0.907,0,1.814,0,2.723,0c0.214,0,0.453,0,0.681,0
	c0.227,0,0.453,0,0.68,0c0.228,0,0.454,0,0.669,0c0.239,0,0.466,0,0.68,0c0.921,0,1.827,0,2.735,0c0.227,0,0.441,0,0.681,0
	c0.227,0,0.453,0,0.681,0c0.227,0,0.453,0,0.681,0c0.214,0,0.453,0,0.681,0c0.906,0,1.814,0,2.709,0c0.239,0,0.467,0,0.681,0
	c0.239,0,0.467,0,0.693,0s0.453,0,0.681,0c0.227,0,0.44,0,0.681,0c0.227,0,0.44,0,0.681,0c0.227,0,0.453,0,0.68,0
	c0.454,0,0.907,0,1.361,0s0.896,0,1.361,0c0.529,0,1.059,0,1.588,0c0-2.42,0-4.84,0-7.26c2.42,0,4.827,0,7.259,0
	c0-2.42,0-4.84,0-7.26c2.421,0,4.84,0,7.26,0c0-2.42,0-4.839,0-7.259c2.42,0,4.827,0,7.259,0c0-2.419,0-4.84,0-7.26
	c0.228,0,0.454,0,0.669,0c0.075,0,0.163,0,0.239,0c0.151,0,0.303,0,0.441,0c0.088,0,0.163,0,0.239,0c0.151,0,0.302,0,0.453,0
	c0.228,0,0.454,0,0.681,0c0.303,0,0.605,0,0.908,0c0.075,0,0.15,0,0.214,0c0.163,0,0.314,0,0.467,0c0.074,0,0.138,0,0.214,0
	c0.163,0,0.314,0,0.466,0c0.529,0,1.059,0,1.588,0c0.228,0,0.441,0,0.681,0c0-1.814,0-3.63,0-5.444s0-3.629,0-5.444
	c0-0.227,0-0.454,0-0.681s0-0.453,0-0.68c0-0.455,0-0.908,0-1.361c0-0.228,0-0.454,0-0.682c0-0.227,0-0.453,0-0.68
	c0-0.453,0-0.908,0-1.361c0-1.814,0-3.63,0-5.444c-2.42,0-4.839,0-7.26,0c0-0.228,0-0.454,0-0.681s0-0.453,0-0.681s0-0.454,0-0.681
	c0-0.529,0-1.059,0-1.588c0-0.227,0-0.453,0-0.68c0-0.228,0-0.455,0-0.682s0-0.453,0-0.68c0-0.303,0-0.605,0-0.908
	c0-0.227,0-0.453,0-0.681c-2.432,0-4.839,0-7.259,0c0-0.227,0-0.454,0-0.681c0-2.268,0-4.537,0-6.805c0-0.529,0-1.059,0-1.588
	c0-0.605,0-1.21,0-1.815c0-1.21,0-2.42,0-3.63c2.42,0,4.827,0,7.259,0c0-2.42,0-4.839,0-7.259c0-1.21,0-2.42,0-3.63
	c0-0.604,0-1.209,0-1.815c0-0.68,0-1.36,0-2.041c-2.432,0-4.839,0-7.259,0c0-2.419,0-4.84,0-7.26c-2.42,0-4.839,0-7.26,0
	c0-0.227,0-0.453,0-0.681c0-4.612,0-9.225,0-13.838c-2.432,0-4.839,0-7.259,0c0-0.227,0-0.454,0-0.681c0-4.688,0-9.376,0-14.064
	c0-2.345,0-4.688,0-7.032c0-2.42,0-4.839,0-7.26c-1.134,0-2.269,0-3.403,0c-0.541,0-1.059,0-1.587,0c-0.605,0-1.21,0-1.815,0
	c-0.227,0-0.453,0-0.681,0c0,0.756,0,1.513,0,2.269c0,0.152,0,0.302,0,0.454c0,0.227,0,0.454,0,0.681c0,0.151,0,0.302,0,0.454
	c0,0.227,0,0.454,0,0.681c0,0.756,0,1.513,0,2.269c0,0.151,0,0.302,0,0.454c0,0.226,0,0.453,0,0.681c0,0.151,0,0.302,0,0.453
	c0,0.227,0,0.454,0,0.681c0,0.756,0,1.513,0,2.269c0,0.151,0,0.303,0,0.454c0,0.227,0,0.453,0,0.681c0,0.15,0,0.302,0,0.453
	c0,0.227,0,0.454,0,0.681c0,0.756,0,1.512,0,2.269c0,0.151,0,0.303,0,0.454c0,0.227,0,0.454,0,0.68c0,0.151,0,0.303,0,0.455
	c0,0.226,0,0.454,0,0.68c0,0.756,0,1.512,0,2.269c0,0.151,0,0.302,0,0.454c0,0.227,0,0.454,0,0.681c0,0.151,0,0.303,0,0.454
	c0,0.227,0,0.454,0,0.68c0,0.151,0,0.303,0,0.455c0,0.226,0,0.453,0,0.68c0,0.151,0,0.302,0,0.454c0,0.227,0,0.454,0,0.681
	c0,0.151,0,0.302,0,0.454c0,0.227,0,0.454,0,0.681c0,0.151,0,0.302,0,0.454c0,0.227,0,0.454,0,0.681c0,0.151,0,0.303,0,0.453
	c0,0.228,0,0.454,0,0.681c0,0.151,0,0.303,0,0.454c0,0.227,0,0.454,0,0.681c0,0.151,0,0.302,0,0.454c0,0.227,0,0.454,0,0.681
	c0,0.151,0,0.302,0,0.454c0,0.227,0,0.454,0,0.681c0,0.151,0,0.302,0,0.454c0,0.227,0,0.454,0,0.68c0,0.151,0,0.303,0,0.454
	c0,0.227,0,0.454,0,0.681c0,0.151,0,0.303,0,0.454c0,0.227,0,0.454,0,0.681c0,0.151,0,0.302,0,0.454c0,0.227,0,0.454,0,0.681
	c0.228,0,0.454,0,0.681,0c0.151,0,0.29,0,0.454,0c0.303,0,0.604,0,0.907,0c0.605,0,1.21,0,1.814,0c1.21,0,2.42,0,3.63,0
	c0,0.227,0,0.454,0,0.681c0,0.15,0,0.302,0,0.454c0,0.227,0,0.454,0,0.68c0,0.228,0,0.454,0,0.681c0,0.227,0,0.454,0,0.681
	c0,0.151,0,0.302,0,0.454c0,0.227,0,0.454,0,0.681s0,0.454,0,0.681c0,0.227,0,0.454,0,0.681c0,1.739,0,3.478,0,5.217
	c0,0.151,0,0.303,0,0.454c0,0.227,0,0.453,0,0.681c0,0.226,0,0.453,0,0.681c0,0.226,0,0.453,0,0.68c0,0.151,0,0.302,0,0.454
	c0,0.227,0,0.454,0,0.681c0,0.227,0,0.454,0,0.681c0,0.227,0,0.454,0,0.681c0,0.151,0,0.302,0,0.454c0,0.226,0,0.454,0,0.68
	s0,0.454,0,0.681c0,0.227,0,0.454,0,0.681c0,0.907,0,1.815,0,2.722c0,0.227,0,0.454,0,0.68c2.42,0,4.827,0,7.259,0
	c0,2.42,0,4.84,0,7.26c0,1.21,0,2.42,0,3.63c0,0.604,0,1.209,0,1.814c0,0.303,0,0.605,0,0.908
	C181.402,100.874,181.402,101.025,181.402,101.177z"/>
<g id="XMLID_2_">
	<g>
		<path fill="#232034" d="M116.614,156.561c0,2.33,0,4.67,0,7c2.42,0,4.83,0,7.26,0c0-2.25,0-4.49,0-6.74c-0.09,0-0.17,0-0.26,0
			c0-0.09,0-0.17,0-0.26C121.273,156.561,118.944,156.561,116.614,156.561z"/>
		<path fill="#232034" d="M116.614,163.82c0,2.25,0,4.49,0,6.74c2.42,0,4.83,0,7.26,0c0-2.25,0-4.49,0-6.74c-0.23,0-0.45,0-0.68,0
			c-1.07,0-2.12,0-3.181,0c-0.53,0-1.069,0-1.59,0c-0.3,0-0.6,0-0.9,0C117.213,163.82,116.914,163.82,116.614,163.82z"/>
		<path fill="#232034" d="M116.614,170.82c0,1.45,0,3.78,0,7c0.3,0,0.6,0,0.909,0c0.301,0,0.601,0,0.9,0c0.521,0,1.06,0,1.59,0
			c1.061,0,2.11,0,3.181,0c0.14,0,0.279,0,0.42,0c0-0.09,0-0.17,0-0.26c0.09,0,0.17,0,0.26,0c0-2.25,0-4.49,0-6.74
			c-0.23,0-0.45,0-0.68,0c-1.07,0-2.12,0-3.181,0c-0.53,0-1.069,0-1.59,0c-0.3,0-0.6,0-0.9,0
			C117.213,170.82,116.914,170.82,116.614,170.82z"/>
		<path fill="#232034" d="M123.874,170.561c-2.43,0-4.84,0-7.26,0c0,0.08,0,0.17,0,0.26c0.3,0,0.6,0,0.909,0c0.301,0,0.601,0,0.9,0
			c0.521,0,1.06,0,1.59,0c1.061,0,2.11,0,3.181,0c0.229,0,0.449,0,0.68,0C123.874,170.73,123.874,170.65,123.874,170.561z"/>
		<path fill="#232034" d="M123.874,163.561c-2.43,0-4.84,0-7.26,0c0,0.09,0,0.17,0,0.26c0.3,0,0.6,0,0.909,0c0.301,0,0.601,0,0.9,0
			c0.521,0,1.06,0,1.59,0c1.061,0,2.11,0,3.181,0c0.229,0,0.449,0,0.68,0C123.874,163.73,123.874,163.65,123.874,163.561z"/>
		<path fill="#232034" d="M123.614,177.82c0,2.33,0,4.67,0,7c0.3,0,0.6,0,0.909,0c0.301,0,0.601,0,0.9,0c0.521,0,1.06,0,1.59,0
			c1.061,0,2.11,0,3.181,0c0.229,0,0.449,0,0.68,0c0-2.33,0-4.67,0-7c-0.09,0-0.17,0-0.26,0c0-0.09,0-0.17,0-0.26
			c-2.261,0-4.49,0-6.74,0c0,0.09,0,0.17,0,0.26C123.784,177.82,123.704,177.82,123.614,177.82z"/>
		<path fill="#232034" d="M123.614,177.561c0,0.09,0,0.17,0,0.26c0.09,0,0.17,0,0.26,0c0-0.09,0-0.17,0-0.26
			C123.784,177.561,123.704,177.561,123.614,177.561z"/>
		<path fill="#232034" d="M123.614,156.561c0,0.09,0,0.17,0,0.26c0.09,0,0.17,0,0.26,0c0-0.09,0-0.17,0-0.26
			C123.784,156.561,123.704,156.561,123.614,156.561z"/>
		<path fill="#232034" d="M123.614,149.561c0,2.33,0,4.67,0,7c0.09,0,0.17,0,0.26,0c0,0.09,0,0.17,0,0.26c0.21,0,0.43,0,0.649,0
			c0.301,0,0.601,0,0.9,0c0.521,0,1.06,0,1.59,0c1.061,0,2.11,0,3.181,0c0.14,0,0.279,0,0.42,0c0-2.42,0-4.84,0-7.26
			C128.273,149.561,125.944,149.561,123.614,149.561z"/>
		<path fill="#C3CAD1" d="M123.874,156.82c0,2.25,0,4.49,0,6.74c0,0.09,0,0.17,0,0.26c0,2.25,0,4.49,0,6.74c0,0.09,0,0.17,0,0.26
			c0,2.25,0,4.49,0,6.74c2.25,0,4.479,0,6.74,0c0-2.25,0-4.49,0-6.74c0-0.09,0-0.17,0-0.26c0-2.33,0-4.67,0-7c2.42,0,4.83,0,7.26,0
			c0,2.33,0,4.67,0,7c0,0.09,0,0.17,0,0.26c0,2.25,0,4.49,0,6.74c2.25,0,4.479,0,6.74,0c0-2.25,0-4.49,0-6.74c0-0.08,0-0.17,0-0.26
			c0-1.45,0-3.78,0-7c2.42,0,4.83,0,7.26,0c0,2.33,0,4.67,0,7c0,0.09,0,0.17,0,0.26c0,2.25,0,4.49,0,6.74c2.25,0,4.479,0,6.74,0
			c0-2.25,0-4.49,0-6.74c0-0.09,0-0.17,0-0.26c0-2.25,0-4.49,0-6.74c0-0.09,0-0.17,0-0.26c0-2.25,0-4.49,0-6.74
			c-0.141,0-0.28,0-0.42,0c-1.07,0-2.12,0-3.181,0c-0.53,0-1.069,0-1.59,0c-0.3,0-0.6,0-0.9,0c-0.22,0-0.439,0-0.649,0
			c-0.09,0-0.17,0-0.26,0c-0.141,0-0.28,0-0.42,0c-1.07,0-2.12,0-3.181,0c-0.53,0-1.069,0-1.59,0c-0.3,0-0.6,0-0.9,0
			c-0.22,0-0.439,0-0.649,0c-0.09,0-0.17,0-0.26,0c-0.141,0-0.28,0-0.42,0c-1.07,0-2.12,0-3.181,0c-0.53,0-1.069,0-1.59,0
			c-0.3,0-0.6,0-0.9,0c-0.22,0-0.439,0-0.649,0c-0.09,0-0.17,0-0.26,0c-0.141,0-0.28,0-0.42,0c-1.07,0-2.12,0-3.181,0
			c-0.53,0-1.069,0-1.59,0c-0.3,0-0.6,0-0.9,0c-0.22,0-0.439,0-0.649,0c-0.09,0-0.17,0-0.26,0c-0.141,0-0.28,0-0.42,0
			c-1.07,0-2.12,0-3.181,0c-0.53,0-1.069,0-1.59,0c-0.3,0-0.6,0-0.9,0C124.303,156.82,124.083,156.82,123.874,156.82z"/>
		<path fill="#232034" d="M130.614,177.561c0,0.09,0,0.17,0,0.26c0.09,0,0.17,0,0.26,0c0-0.09,0-0.17,0-0.26
			C130.784,177.561,130.704,177.561,130.614,177.561z"/>
		<path fill="#232034" d="M130.614,163.561c0,2.33,0,4.67,0,7c2.42,0,4.83,0,7.26,0c0-2.33,0-4.67,0-7
			C135.444,163.561,133.034,163.561,130.614,163.561z"/>
		<path fill="#232034" d="M130.614,149.561c0,2.42,0,4.84,0,7.26c0.09,0,0.17,0,0.26,0c0-2.42,0-4.84,0-7.26
			C130.784,149.561,130.704,149.561,130.614,149.561z"/>
		<path fill="#232034" d="M131.523,170.82c-0.31,0-0.609,0-0.909,0c0,2.25,0,4.49,0,6.74c0.09,0,0.17,0,0.26,0c0,0.09,0,0.17,0,0.26
			c0.21,0,0.43,0,0.649,0c0.301,0,0.601,0,0.9,0c0.521,0,1.06,0,1.59,0c1.061,0,2.11,0,3.181,0c0.14,0,0.279,0,0.42,0
			c0-0.09,0-0.17,0-0.26c0.09,0,0.17,0,0.26,0c0-2.25,0-4.49,0-6.74c-0.23,0-0.45,0-0.68,0c-1.07,0-2.12,0-3.181,0
			c-0.53,0-1.069,0-1.59,0C132.124,170.82,131.824,170.82,131.523,170.82z"/>
		<path fill="#232034" d="M130.874,149.561c0,2.42,0,4.84,0,7.26c0.21,0,0.43,0,0.649,0c0.301,0,0.601,0,0.9,0
			c0.521,0,1.06,0,1.59,0c1.061,0,2.11,0,3.181,0c0.14,0,0.279,0,0.42,0c0-2.42,0-4.84,0-7.26
			C135.353,149.561,133.124,149.561,130.874,149.561z"/>
		<path fill="#232034" d="M137.874,170.561c-2.43,0-4.84,0-7.26,0c0,0.09,0,0.17,0,0.26c0.3,0,0.6,0,0.909,0c0.301,0,0.601,0,0.9,0
			c0.521,0,1.06,0,1.59,0c1.061,0,2.11,0,3.181,0c0.229,0,0.449,0,0.68,0C137.874,170.73,137.874,170.65,137.874,170.561z"/>
		<path fill="#232034" d="M137.614,177.82c0,2.33,0,4.67,0,7c0.3,0,0.6,0,0.909,0c0.301,0,0.601,0,0.9,0c0.521,0,1.06,0,1.59,0
			c1.061,0,2.11,0,3.181,0c0.229,0,0.449,0,0.68,0c0-2.33,0-4.67,0-7c-0.09,0-0.17,0-0.26,0c0-0.09,0-0.17,0-0.26
			c-2.261,0-4.49,0-6.74,0c0,0.09,0,0.17,0,0.26C137.784,177.82,137.704,177.82,137.614,177.82z"/>
		<path fill="#232034" d="M137.614,177.561c0,0.09,0,0.17,0,0.26c0.09,0,0.17,0,0.26,0c0-0.09,0-0.17,0-0.26
			C137.784,177.561,137.704,177.561,137.614,177.561z"/>
		<path fill="#232034" d="M137.614,149.561c0,2.42,0,4.84,0,7.26c0.09,0,0.17,0,0.26,0c0-2.42,0-4.84,0-7.26
			C137.784,149.561,137.704,149.561,137.614,149.561z"/>
		<path fill="#232034" d="M137.874,149.561c0,2.42,0,4.84,0,7.26c0.21,0,0.43,0,0.649,0c0.301,0,0.601,0,0.9,0
			c0.521,0,1.06,0,1.59,0c1.061,0,2.11,0,3.181,0c0.14,0,0.279,0,0.42,0c0-2.42,0-4.84,0-7.26
			C142.353,149.561,140.124,149.561,137.874,149.561z"/>
		<path fill="#232034" d="M144.614,177.561c0,0.09,0,0.17,0,0.26c0.09,0,0.17,0,0.26,0c0-0.09,0-0.17,0-0.26
			C144.784,177.561,144.704,177.561,144.614,177.561z"/>
		<path fill="#232034" d="M144.614,163.561c0,3.22,0,5.55,0,7c2.42,0,4.83,0,7.26,0c0-2.33,0-4.67,0-7
			C149.444,163.561,147.034,163.561,144.614,163.561z"/>
		<path fill="#232034" d="M144.614,149.561c0,2.42,0,4.84,0,7.26c0.09,0,0.17,0,0.26,0c0-2.42,0-4.84,0-7.26
			C144.784,149.561,144.704,149.561,144.614,149.561z"/>
		<path fill="#232034" d="M144.614,170.82c0,2.25,0,4.49,0,6.74c0.09,0,0.17,0,0.26,0c0,0.09,0,0.17,0,0.26c0.21,0,0.43,0,0.649,0
			c0.301,0,0.601,0,0.9,0c0.521,0,1.06,0,1.59,0c1.061,0,2.11,0,3.181,0c0.14,0,0.279,0,0.42,0c0-0.09,0-0.17,0-0.26
			c0.09,0,0.17,0,0.26,0c0-2.25,0-4.49,0-6.74c-0.23,0-0.45,0-0.68,0c-1.07,0-2.12,0-3.181,0c-0.53,0-1.069,0-1.59,0
			c-0.3,0-0.6,0-0.9,0C145.213,170.82,144.914,170.82,144.614,170.82z"/>
		<path fill="#232034" d="M144.874,149.561c0,2.42,0,4.84,0,7.26c0.21,0,0.43,0,0.649,0c0.301,0,0.601,0,0.9,0
			c0.521,0,1.06,0,1.59,0c1.061,0,2.11,0,3.181,0c0.14,0,0.279,0,0.42,0c0-2.42,0-4.84,0-7.26
			C149.353,149.561,147.124,149.561,144.874,149.561z"/>
		<path fill="#232034" d="M151.874,170.561c-2.43,0-4.84,0-7.26,0c0,0.09,0,0.18,0,0.26c0.3,0,0.6,0,0.909,0c0.301,0,0.601,0,0.9,0
			c0.521,0,1.06,0,1.59,0c1.061,0,2.11,0,3.181,0c0.229,0,0.449,0,0.68,0C151.874,170.73,151.874,170.65,151.874,170.561z"/>
		<path fill="#232034" d="M151.614,177.82c0,2.33,0,4.67,0,7c0.3,0,0.6,0,0.909,0c0.301,0,0.601,0,0.9,0c0.521,0,1.06,0,1.59,0
			c1.061,0,2.11,0,3.181,0c0.229,0,0.449,0,0.68,0c0-2.33,0-4.67,0-7c-0.09,0-0.17,0-0.26,0c0-0.09,0-0.17,0-0.26
			c-2.261,0-4.49,0-6.74,0c0,0.09,0,0.17,0,0.26C151.784,177.82,151.704,177.82,151.614,177.82z"/>
		<path fill="#232034" d="M151.614,177.561c0,0.09,0,0.17,0,0.26c0.09,0,0.17,0,0.26,0c0-0.09,0-0.17,0-0.26
			C151.784,177.561,151.704,177.561,151.614,177.561z"/>
		<path fill="#232034" d="M151.614,149.561c0,2.42,0,4.84,0,7.26c0.09,0,0.17,0,0.26,0c0-2.42,0-4.84,0-7.26
			C151.784,149.561,151.704,149.561,151.614,149.561z"/>
		<path fill="#232034" d="M151.874,149.561c0,2.42,0,4.84,0,7.26c0.21,0,0.43,0,0.649,0c0.301,0,0.601,0,0.9,0
			c0.521,0,1.06,0,1.59,0c1.061,0,2.11,0,3.181,0c0.14,0,0.279,0,0.42,0c0-0.09,0-0.17,0-0.26c0.09,0,0.17,0,0.26,0
			c0-2.33,0-4.67,0-7C156.534,149.561,154.204,149.561,151.874,149.561z"/>
		<path fill="#232034" d="M158.614,177.561c0,0.09,0,0.17,0,0.26c0.09,0,0.17,0,0.26,0c0-0.09,0-0.17,0-0.26
			C158.784,177.561,158.704,177.561,158.614,177.561z"/>
		<path fill="#232034" d="M158.614,156.82c0,2.25,0,4.49,0,6.74c2.42,0,4.83,0,7.26,0c0-2.33,0-4.67,0-7c-2.34,0-4.67,0-7,0
			c0,0.09,0,0.17,0,0.26C158.784,156.82,158.704,156.82,158.614,156.82z"/>
		<path fill="#232034" d="M158.614,156.561c0,0.09,0,0.17,0,0.26c0.09,0,0.17,0,0.26,0c0-0.09,0-0.17,0-0.26
			C158.784,156.561,158.704,156.561,158.614,156.561z"/>
		<path fill="#232034" d="M158.614,163.82c0,2.25,0,4.49,0,6.74c2.42,0,4.83,0,7.26,0c0-2.25,0-4.49,0-6.74c-0.23,0-0.45,0-0.68,0
			c-1.07,0-2.12,0-3.181,0c-0.53,0-1.069,0-1.59,0c-0.3,0-0.6,0-0.9,0C159.213,163.82,158.914,163.82,158.614,163.82z"/>
		<path fill="#232034" d="M158.614,170.82c0,2.25,0,4.49,0,6.74c0.09,0,0.17,0,0.26,0c0,0.09,0,0.17,0,0.26c0.21,0,0.43,0,0.649,0
			c0.301,0,0.601,0,0.9,0c0.521,0,1.06,0,1.59,0c1.061,0,2.11,0,3.181,0c0.229,0,0.449,0,0.68,0c0-2.33,0-4.67,0-7
			c-0.23,0-0.45,0-0.68,0c-1.07,0-2.12,0-3.181,0c-0.53,0-1.069,0-1.59,0c-0.3,0-0.6,0-0.9,0
			C159.213,170.82,158.914,170.82,158.614,170.82z"/>
		<path fill="#232034" d="M165.874,170.561c-2.43,0-4.84,0-7.26,0c0,0.09,0,0.17,0,0.26c0.3,0,0.6,0,0.909,0c0.301,0,0.601,0,0.9,0
			c0.521,0,1.06,0,1.59,0c1.061,0,2.11,0,3.181,0c0.229,0,0.449,0,0.68,0C165.874,170.73,165.874,170.65,165.874,170.561z"/>
		<path fill="#232034" d="M165.874,163.561c-2.43,0-4.84,0-7.26,0c0,0.09,0,0.17,0,0.26c0.3,0,0.6,0,0.909,0c0.301,0,0.601,0,0.9,0
			c0.521,0,1.06,0,1.59,0c1.061,0,2.11,0,3.181,0c0.229,0,0.449,0,0.68,0C165.874,163.73,165.874,163.65,165.874,163.561z"/>
	</g>
	<g>
	</g>
</g>
<g id="XMLID_1_">
	<g>
		<path fill="#232034" d="M0.25,156.561c0,2.33,0,4.67,0,7c2.42,0,4.83,0,7.26,0c0-2.25,0-4.49,0-6.74c-0.09,0-0.17,0-0.26,0
			c0-0.09,0-0.17,0-0.26C4.91,156.561,2.58,156.561,0.25,156.561z"/>
		<path fill="#232034" d="M0.25,163.82c0,2.25,0,4.49,0,6.74c2.42,0,4.83,0,7.26,0c0-2.25,0-4.49,0-6.74c-0.23,0-0.45,0-0.68,0
			c-1.07,0-2.12,0-3.18,0c-0.53,0-1.07,0-1.59,0c-0.3,0-0.6,0-0.9,0C0.85,163.82,0.55,163.82,0.25,163.82z"/>
		<path fill="#232034" d="M2.06,170.82c-0.3,0-0.6,0-0.9,0c-0.31,0-0.61,0-0.91,0c0,1.45,0,3.78,0,7c0.3,0,0.6,0,0.91,0
			c0.3,0,0.6,0,0.9,0c0.52,0,1.06,0,1.59,0c1.06,0,2.11,0,3.18,0c0.14,0,0.28,0,0.42,0c0-0.09,0-0.17,0-0.26c0.09,0,0.17,0,0.26,0
			c0-2.25,0-4.49,0-6.74c-0.23,0-0.45,0-0.68,0c-1.07,0-2.12,0-3.18,0C3.12,170.82,2.58,170.82,2.06,170.82z"/>
		<path fill="#232034" d="M2.06,170.82c0.52,0,1.06,0,1.59,0c1.06,0,2.11,0,3.18,0c0.23,0,0.45,0,0.68,0c0-0.09,0-0.17,0-0.26
			c-2.43,0-4.84,0-7.26,0c0,0.08,0,0.17,0,0.26c0.3,0,0.6,0,0.91,0C1.46,170.82,1.76,170.82,2.06,170.82z"/>
		<path fill="#232034" d="M7.51,163.561c-2.43,0-4.84,0-7.26,0c0,0.09,0,0.17,0,0.26c0.3,0,0.6,0,0.91,0c0.3,0,0.6,0,0.9,0
			c0.52,0,1.06,0,1.59,0c1.06,0,2.11,0,3.18,0c0.23,0,0.45,0,0.68,0C7.51,163.73,7.51,163.65,7.51,163.561z"/>
		<path fill="#232034" d="M7.25,177.82c0,2.33,0,4.67,0,7c0.3,0,0.6,0,0.91,0c0.3,0,0.6,0,0.9,0c0.52,0,1.06,0,1.59,0
			c1.06,0,2.11,0,3.18,0c0.23,0,0.45,0,0.68,0c0-2.33,0-4.67,0-7c-0.09,0-0.17,0-0.26,0c0-0.09,0-0.17,0-0.26c-2.26,0-4.49,0-6.74,0
			c0,0.09,0,0.17,0,0.26C7.42,177.82,7.34,177.82,7.25,177.82z"/>
		<path fill="#232034" d="M7.25,177.561c0,0.09,0,0.17,0,0.26c0.09,0,0.17,0,0.26,0c0-0.09,0-0.17,0-0.26
			C7.42,177.561,7.34,177.561,7.25,177.561z"/>
		<path fill="#232034" d="M7.25,156.561c0,0.09,0,0.17,0,0.26c0.09,0,0.17,0,0.26,0c0-0.09,0-0.17,0-0.26
			C7.42,156.561,7.34,156.561,7.25,156.561z"/>
		<path fill="#232034" d="M7.25,149.561c0,2.33,0,4.67,0,7c0.09,0,0.17,0,0.26,0c0,0.09,0,0.17,0,0.26c0.21,0,0.43,0,0.65,0
			c0.3,0,0.6,0,0.9,0c0.52,0,1.06,0,1.59,0c1.06,0,2.11,0,3.18,0c0.14,0,0.28,0,0.42,0c0-2.42,0-4.84,0-7.26
			C11.91,149.561,9.58,149.561,7.25,149.561z"/>
		<path fill="#C3CAD1" d="M8.16,156.82c-0.22,0-0.44,0-0.65,0c0,2.25,0,4.49,0,6.74c0,0.09,0,0.17,0,0.26c0,2.25,0,4.49,0,6.74
			c0,0.09,0,0.17,0,0.26c0,2.25,0,4.49,0,6.74c2.25,0,4.48,0,6.74,0c0-2.25,0-4.49,0-6.74c0-0.09,0-0.17,0-0.26c0-2.33,0-4.67,0-7
			c2.42,0,4.83,0,7.26,0c0,2.33,0,4.67,0,7c0,0.09,0,0.17,0,0.26c0,2.25,0,4.49,0,6.74c2.25,0,4.48,0,6.74,0c0-2.25,0-4.49,0-6.74
			c0-0.08,0-0.17,0-0.26c0-1.45,0-3.78,0-7c2.42,0,4.83,0,7.26,0c0,2.33,0,4.67,0,7c0,0.09,0,0.17,0,0.26c0,2.25,0,4.49,0,6.74
			c2.25,0,4.48,0,6.74,0c0-2.25,0-4.49,0-6.74c0-0.09,0-0.17,0-0.26c0-2.25,0-4.49,0-6.74c0-0.09,0-0.17,0-0.26
			c0-2.25,0-4.49,0-6.74c-0.14,0-0.28,0-0.42,0c-1.07,0-2.12,0-3.18,0c-0.53,0-1.07,0-1.59,0c-0.3,0-0.6,0-0.9,0
			c-0.22,0-0.44,0-0.65,0c-0.09,0-0.17,0-0.26,0c-0.14,0-0.28,0-0.42,0c-1.07,0-2.12,0-3.18,0c-0.53,0-1.07,0-1.59,0
			c-0.3,0-0.6,0-0.9,0c-0.22,0-0.44,0-0.65,0c-0.09,0-0.17,0-0.26,0c-0.14,0-0.28,0-0.42,0c-1.07,0-2.12,0-3.18,0
			c-0.53,0-1.07,0-1.59,0c-0.3,0-0.6,0-0.9,0c-0.22,0-0.44,0-0.65,0c-0.09,0-0.17,0-0.26,0c-0.14,0-0.28,0-0.42,0
			c-1.07,0-2.12,0-3.18,0c-0.53,0-1.07,0-1.59,0c-0.3,0-0.6,0-0.9,0c-0.22,0-0.44,0-0.65,0c-0.09,0-0.17,0-0.26,0
			c-0.14,0-0.28,0-0.42,0c-1.07,0-2.12,0-3.18,0c-0.53,0-1.07,0-1.59,0C8.76,156.82,8.46,156.82,8.16,156.82z"/>
		<path fill="#232034" d="M14.25,177.561c0,0.09,0,0.17,0,0.26c0.09,0,0.17,0,0.26,0c0-0.09,0-0.17,0-0.26
			C14.42,177.561,14.34,177.561,14.25,177.561z"/>
		<path fill="#232034" d="M14.25,163.561c0,2.33,0,4.67,0,7c2.42,0,4.83,0,7.26,0c0-2.33,0-4.67,0-7
			C19.08,163.561,16.67,163.561,14.25,163.561z"/>
		<path fill="#232034" d="M14.25,149.561c0,2.42,0,4.84,0,7.26c0.09,0,0.17,0,0.26,0c0-2.42,0-4.84,0-7.26
			C14.42,149.561,14.34,149.561,14.25,149.561z"/>
		<path fill="#232034" d="M16.06,170.82c-0.3,0-0.6,0-0.9,0c-0.31,0-0.61,0-0.91,0c0,2.25,0,4.49,0,6.74c0.09,0,0.17,0,0.26,0
			c0,0.09,0,0.17,0,0.26c0.21,0,0.43,0,0.65,0c0.3,0,0.6,0,0.9,0c0.52,0,1.06,0,1.59,0c1.06,0,2.11,0,3.18,0c0.14,0,0.28,0,0.42,0
			c0-0.09,0-0.17,0-0.26c0.09,0,0.17,0,0.26,0c0-2.25,0-4.49,0-6.74c-0.23,0-0.45,0-0.68,0c-1.07,0-2.12,0-3.18,0
			C17.12,170.82,16.58,170.82,16.06,170.82z"/>
		<path fill="#232034" d="M14.51,149.561c0,2.42,0,4.84,0,7.26c0.21,0,0.43,0,0.65,0c0.3,0,0.6,0,0.9,0c0.52,0,1.06,0,1.59,0
			c1.06,0,2.11,0,3.18,0c0.14,0,0.28,0,0.42,0c0-2.42,0-4.84,0-7.26C18.99,149.561,16.76,149.561,14.51,149.561z"/>
		<path fill="#232034" d="M17.65,170.82c1.06,0,2.11,0,3.18,0c0.23,0,0.45,0,0.68,0c0-0.09,0-0.17,0-0.26c-2.43,0-4.84,0-7.26,0
			c0,0.09,0,0.17,0,0.26c0.3,0,0.6,0,0.91,0c0.3,0,0.6,0,0.9,0C16.58,170.82,17.12,170.82,17.65,170.82z"/>
		<path fill="#232034" d="M21.25,177.82c0,2.33,0,4.67,0,7c0.3,0,0.6,0,0.91,0c0.3,0,0.6,0,0.9,0c0.52,0,1.06,0,1.59,0
			c1.06,0,2.11,0,3.18,0c0.23,0,0.45,0,0.68,0c0-2.33,0-4.67,0-7c-0.09,0-0.17,0-0.26,0c0-0.09,0-0.17,0-0.26c-2.26,0-4.49,0-6.74,0
			c0,0.09,0,0.17,0,0.26C21.42,177.82,21.34,177.82,21.25,177.82z"/>
		<path fill="#232034" d="M21.25,177.561c0,0.09,0,0.17,0,0.26c0.09,0,0.17,0,0.26,0c0-0.09,0-0.17,0-0.26
			C21.42,177.561,21.34,177.561,21.25,177.561z"/>
		<path fill="#232034" d="M21.25,149.561c0,2.42,0,4.84,0,7.26c0.09,0,0.17,0,0.26,0c0-2.42,0-4.84,0-7.26
			C21.42,149.561,21.34,149.561,21.25,149.561z"/>
		<path fill="#232034" d="M21.51,149.561c0,2.42,0,4.84,0,7.26c0.21,0,0.43,0,0.65,0c0.3,0,0.6,0,0.9,0c0.52,0,1.06,0,1.59,0
			c1.06,0,2.11,0,3.18,0c0.14,0,0.28,0,0.42,0c0-2.42,0-4.84,0-7.26C25.99,149.561,23.76,149.561,21.51,149.561z"/>
		<path fill="#232034" d="M28.25,177.561c0,0.09,0,0.17,0,0.26c0.09,0,0.17,0,0.26,0c0-0.09,0-0.17,0-0.26
			C28.42,177.561,28.34,177.561,28.25,177.561z"/>
		<path fill="#232034" d="M28.25,163.561c0,3.22,0,5.55,0,7c2.42,0,4.83,0,7.26,0c0-2.33,0-4.67,0-7
			C33.08,163.561,30.67,163.561,28.25,163.561z"/>
		<path fill="#232034" d="M28.25,149.561c0,2.42,0,4.84,0,7.26c0.09,0,0.17,0,0.26,0c0-2.42,0-4.84,0-7.26
			C28.42,149.561,28.34,149.561,28.25,149.561z"/>
		<path fill="#232034" d="M29.16,170.82c-0.31,0-0.61,0-0.91,0c0,2.25,0,4.49,0,6.74c0.09,0,0.17,0,0.26,0c0,0.09,0,0.17,0,0.26
			c0.21,0,0.43,0,0.65,0c0.3,0,0.6,0,0.9,0c0.52,0,1.06,0,1.59,0c1.06,0,2.11,0,3.18,0c0.14,0,0.28,0,0.42,0c0-0.09,0-0.17,0-0.26
			c0.09,0,0.17,0,0.26,0c0-2.25,0-4.49,0-6.74c-0.23,0-0.45,0-0.68,0c-1.07,0-2.12,0-3.18,0c-0.53,0-1.07,0-1.59,0
			C29.76,170.82,29.46,170.82,29.16,170.82z"/>
		<path fill="#232034" d="M28.51,149.561c0,2.42,0,4.84,0,7.26c0.21,0,0.43,0,0.65,0c0.3,0,0.6,0,0.9,0c0.52,0,1.06,0,1.59,0
			c1.06,0,2.11,0,3.18,0c0.14,0,0.28,0,0.42,0c0-2.42,0-4.84,0-7.26C32.99,149.561,30.76,149.561,28.51,149.561z"/>
		<path fill="#232034" d="M35.51,170.561c-2.43,0-4.84,0-7.26,0c0,0.09,0,0.18,0,0.26c0.3,0,0.6,0,0.91,0c0.3,0,0.6,0,0.9,0
			c0.52,0,1.06,0,1.59,0c1.06,0,2.11,0,3.18,0c0.23,0,0.45,0,0.68,0C35.51,170.73,35.51,170.65,35.51,170.561z"/>
		<path fill="#232034" d="M35.25,177.82c0,2.33,0,4.67,0,7c0.3,0,0.6,0,0.91,0c0.3,0,0.6,0,0.9,0c0.52,0,1.06,0,1.59,0
			c1.06,0,2.11,0,3.18,0c0.23,0,0.45,0,0.68,0c0-2.33,0-4.67,0-7c-0.09,0-0.17,0-0.26,0c0-0.09,0-0.17,0-0.26c-2.26,0-4.49,0-6.74,0
			c0,0.09,0,0.17,0,0.26C35.42,177.82,35.34,177.82,35.25,177.82z"/>
		<path fill="#232034" d="M35.25,177.561c0,0.09,0,0.17,0,0.26c0.09,0,0.17,0,0.26,0c0-0.09,0-0.17,0-0.26
			C35.42,177.561,35.34,177.561,35.25,177.561z"/>
		<path fill="#232034" d="M35.25,149.561c0,2.42,0,4.84,0,7.26c0.09,0,0.17,0,0.26,0c0-2.42,0-4.84,0-7.26
			C35.42,149.561,35.34,149.561,35.25,149.561z"/>
		<path fill="#232034" d="M35.51,149.561c0,2.42,0,4.84,0,7.26c0.21,0,0.43,0,0.65,0c0.3,0,0.6,0,0.9,0c0.52,0,1.06,0,1.59,0
			c1.06,0,2.11,0,3.18,0c0.14,0,0.28,0,0.42,0c0-0.09,0-0.17,0-0.26c0.09,0,0.17,0,0.26,0c0-2.33,0-4.67,0-7
			C40.17,149.561,37.84,149.561,35.51,149.561z"/>
		<path fill="#232034" d="M42.25,177.561c0,0.09,0,0.17,0,0.26c0.09,0,0.17,0,0.26,0c0-0.09,0-0.17,0-0.26
			C42.42,177.561,42.34,177.561,42.25,177.561z"/>
		<path fill="#232034" d="M42.25,156.82c0,2.25,0,4.49,0,6.74c2.42,0,4.83,0,7.26,0c0-2.33,0-4.67,0-7c-2.34,0-4.67,0-7,0
			c0,0.09,0,0.17,0,0.26C42.42,156.82,42.34,156.82,42.25,156.82z"/>
		<path fill="#232034" d="M42.25,156.561c0,0.09,0,0.17,0,0.26c0.09,0,0.17,0,0.26,0c0-0.09,0-0.17,0-0.26
			C42.42,156.561,42.34,156.561,42.25,156.561z"/>
		<path fill="#232034" d="M44.06,163.82c-0.3,0-0.6,0-0.9,0c-0.31,0-0.61,0-0.91,0c0,2.25,0,4.49,0,6.74c2.42,0,4.83,0,7.26,0
			c0-2.25,0-4.49,0-6.74c-0.23,0-0.45,0-0.68,0c-1.07,0-2.12,0-3.18,0C45.12,163.82,44.58,163.82,44.06,163.82z"/>
		<path fill="#232034" d="M44.06,170.82c-0.3,0-0.6,0-0.9,0c-0.31,0-0.61,0-0.91,0c0,2.25,0,4.49,0,6.74c0.09,0,0.17,0,0.26,0
			c0,0.09,0,0.17,0,0.26c0.21,0,0.43,0,0.65,0c0.3,0,0.6,0,0.9,0c0.52,0,1.06,0,1.59,0c1.06,0,2.11,0,3.18,0c0.23,0,0.45,0,0.68,0
			c0-2.33,0-4.67,0-7c-0.23,0-0.45,0-0.68,0c-1.07,0-2.12,0-3.18,0C45.12,170.82,44.58,170.82,44.06,170.82z"/>
		<path fill="#232034" d="M45.65,170.82c1.06,0,2.11,0,3.18,0c0.23,0,0.45,0,0.68,0c0-0.09,0-0.17,0-0.26c-2.43,0-4.84,0-7.26,0
			c0,0.09,0,0.17,0,0.26c0.3,0,0.6,0,0.91,0c0.3,0,0.6,0,0.9,0C44.58,170.82,45.12,170.82,45.65,170.82z"/>
		<path fill="#232034" d="M45.65,163.82c1.06,0,2.11,0,3.18,0c0.23,0,0.45,0,0.68,0c0-0.09,0-0.17,0-0.26c-2.43,0-4.84,0-7.26,0
			c0,0.09,0,0.17,0,0.26c0.3,0,0.6,0,0.91,0c0.3,0,0.6,0,0.9,0C44.58,163.82,45.12,163.82,45.65,163.82z"/>
	</g>
	<g>
	</g>
</g>
</svg>
