<?xml version="1.0" encoding="utf-8"?>
<!-- Generator: Adobe Illustrator 15.0.0, SVG Export Plug-In  -->
<!DOCTYPE svg PUBLIC "-//W3C//DTD SVG 1.1//EN" "http://www.w3.org/Graphics/SVG/1.1/DTD/svg11.dtd" [
	<!ENTITY ns_flows "http://ns.adobe.com/Flows/1.0/">
]>
<svg version="1.1"
	 xmlns="http://www.w3.org/2000/svg" xmlns:xlink="http://www.w3.org/1999/xlink" xmlns:a="http://ns.adobe.com/AdobeSVGViewerExtensions/3.0/"
	 x="0px" y="0px" width="300px" height="300px" viewBox="-37.318 -51.688 300 300" enable-background="new -37.318 -51.688 300 300"
	 xml:space="preserve">
<defs>
</defs>
<path fill="#F2FAFD" d="M196.454,101.631c0,0.075,0,0.15,0,0.227c-4.839,0-9.679,0-14.531,0c0,2.42,0,4.84,0,7.259
	c-4.902,0-9.83,0-14.732,0c0-2.419,0-4.839,0-7.259c-2.421,0-4.853,0-7.272,0c0-2.42,0-4.84,0-7.26c-2.419,0-4.839,0-7.246,0
	c0,2.42,0,4.84,0,7.26c-2.42,0-4.84,0-7.26,0c0,2.42,0,4.84,0,7.259c-2.419,0-4.839,0-7.259,0c0,2.42,0,4.84,0,7.26
	c-2.419,0-4.853,0-7.272,0c0,3.63,0,7.259,0,10.889s0,7.259,0,10.889c-2.42,0-4.839,0-7.259,0c0,2.42,0,4.841,0,7.26
	c-2.407,0-4.827,0-7.247,0c0,2.42,0,4.839,0,7.259c-0.227,0-0.466,0-0.681,0c-0.151,0-0.314,0-0.466,0c-0.215,0-0.441,0-0.681,0
	c-0.151,0-0.289,0-0.44,0c-0.24,0-0.455,0-0.681,0c-0.151,0-0.303,0-0.454,0c-0.227,0-0.467,0-0.693,0c-0.151,0-0.303,0-0.441,0
	c-1.512,0-3.024,0-4.537,0c-0.227,0-0.467,0-0.692,0c-0.151,0-0.303,0-0.442,0c-0.238,0-0.453,0-0.68,0c-0.151,0-0.303,0-0.454,0
	c-0.226,0-0.466,0-0.681,0c-0.151,0-0.314,0-0.466,0c-0.214,0-0.44,0-0.681,0c-0.151,0-0.289,0-0.44,0c-1.513,0-3.025,0-4.551,0
	c-0.214,0-0.44,0-0.681,0c-0.151,0-0.289,0-0.44,0c-0.239,0-0.454,0-0.681,0c-0.151,0-0.303,0-0.454,0c-0.227,0-0.466,0-0.692,0
	c-0.151,0-0.303,0-0.442,0c-0.238,0-0.453,0-0.679,0c-0.151,0-0.303,0-0.455,0c-0.226,0-0.466,0-0.68,0c-0.151,0-0.315,0-0.467,0
	c-0.214,0-0.44,0-0.681,0c-0.151,0-0.289,0-0.44,0c-0.24,0-0.454,0-0.681,0c-0.151,0-0.303,0-0.454,0c-0.227,0-0.467,0-0.693,0
	c-0.151,0-0.303,0-0.441,0c-0.239,0-0.453,0-0.68,0c-0.151,0-0.303,0-0.454,0c-0.227,0-0.467,0-0.681,0c-0.151,0-0.314,0-0.467,0
	c-0.214,0-0.44,0-0.68,0c-0.152,0-0.29,0-0.441,0c-0.239,0-0.454,0-0.681,0c-0.151,0-0.303,0-0.454,0c-0.227,0-0.466,0-0.692,0
	c-0.151,0-0.303,0-0.442,0c-0.238,0-0.452,0-0.679,0c-0.151,0-0.303,0-0.454,0c-0.681,0-1.361,0-2.042,0c-0.164,0-0.315,0-0.467,0
	c0-2.42,0-4.839,0-7.259c-2.42,0-4.839,0-7.259,0c0-2.419,0-4.84,0-7.26c-2.407,0-4.827,0-7.247,0c0-2.419,0-4.839,0-7.259
	c2.42,0,4.84,0,7.247,0c0-2.42,0-4.84,0-7.26c-2.407,0-4.827,0-7.247,0c0-2.42,0-4.84,0-7.259c-2.419,0-4.839,0-7.259,0
	c0-2.42,0-4.84,0-7.26c-4.841,0-9.692,0-14.531,0c0-1.21,0-2.419,0-3.63c0-1.209,0-2.419,0-3.629s0-2.42,0-3.63s0-2.42,0-3.63
	s0-2.42,0-3.629c0-1.21,0-2.42,0-3.629c0-1.21,0-2.42,0-3.63c0-0.604,0-1.209,0-1.815c0-0.604,0-1.209,0-1.814
	c0-0.076,0-0.151,0-0.227c4.839,0,9.69,0,14.531,0c0-4.84,0-9.679,0-14.519c2.42,0,4.84,0,7.259,0c2.42,0,4.84,0,7.247,0
	c0-2.42,0-4.84,0-7.26c0.692,0,1.373,0,2.054,0c0.605,0,1.21,0,1.815,0c1.21,0,2.42,0,3.63,0c2.42,0,4.839,0,7.259,0
	c0-2.419,0-4.839,0-7.259c2.42,0,4.84,0,7.247,0c0-2.42,0-4.84,0-7.26c-2.407,0-4.827,0-7.247,0c0-2.42,0-4.839,0-7.259
	c-0.076,0-0.151,0-0.227,0c-0.303,0-0.605,0-0.92,0c-0.29,0-0.593,0-0.896,0c-0.604,0-1.21,0-1.815,0c-1.222,0-2.432,0-3.642,0
	c0-2.42,0-4.839,0-7.26c-1.739,0-3.478,0-5.205,0c-1.827,0-3.629,0-5.457,0c-1.802,0-3.629,0-5.431,0c-0.24,0-0.455,0-0.681,0
	c-0.24,0-0.454,0-0.681,0c-0.454,0-0.921,0-1.361,0c-0.228,0-0.467,0-0.681,0c-0.227,0-0.467,0-0.681,0c-0.227,0-0.467,0-0.681,0
	c-0.315,0-0.618,0-0.907,0c0,2.42,0,4.84,0,7.26c-2.42,0-4.841,0-7.272,0c0,2.419,0,4.839,0,7.259c-2.42,0-4.839,0-7.259,0
	c0,4.84,0,9.679,0,14.519c-2.407,0-4.827,0-7.247,0c0,2.42,0,4.84,0,7.26c-4.839,0-9.679,0-14.531,0c0,2.419,0,4.839,0,7.259
	c-2.42,0-4.84,0-7.259,0c0,0.303,0,0.605,0,0.908c0,0.227,0,0.454,0,0.681c0,0.454,0,0.907,0,1.361c0,0.227,0,0.454,0,0.68
	c0,0.227,0,0.454,0,0.681s0,0.454,0,0.68c0,0.227,0,0.455,0,0.681c0,0.227,0,0.454,0,0.681c0,0.227,0,0.454,0,0.681s0,0.454,0,0.681
	s0,0.454,0,0.681s0,0.454,0,0.681c0,0.226,0,0.454,0,0.68s0,0.454,0,0.681c0,0.227,0,0.454,0,0.681c0,0.227,0,0.454,0,0.681
	c0,0.227,0,0.454,0,0.68c0,0.227,0,0.454,0,0.681c0,0.227,0,0.454,0,0.681c0,0.227,0,0.454,0,0.68c0,0.228,0,0.454,0,0.681
	c0,0.228,0,0.454,0,0.681s0,0.454,0,0.681s0,0.454,0,0.681s0,0.454,0,0.681c0,0.227,0,0.454,0,0.681c0,0.227,0,0.454,0,0.681
	c0,0.227,0,0.453,0,0.681c0,0.226,0,0.453,0,0.68c0,0.227,0,0.454,0,0.681c0,0.227,0,0.454,0,0.681c2.419,0,4.839,0,7.259,0
	c0,4.84,0,9.68,0,14.519c4.853,0,9.692,0,14.531,0c0,4.84,0,9.679,0,14.519c4.84,0,9.667,0,14.506,0c0,0.227,0,0.454,0,0.681
	c0,0.907,0,1.815,0,2.723c0,0.454,0,0.907,0,1.361c0,0.226,0,0.453,0,0.681c0,0.15,0,0.302,0,0.453c0,0.453,0,0.907,0,1.361
	c0,0.227,0,0.453,0,0.681c0,0.151,0,0.302,0,0.454c0,0.453,0,0.906,0,1.36c0,0.227,0,0.454,0,0.681c0,0.15,0,0.303,0,0.453
	c0,0.454,0,0.908,0,1.361c0,0.227,0,0.454,0,0.682c0,0.227,0,0.453,0,0.68c0,0.454,0,0.907,0,1.361c0,0.227,0,0.454,0,0.68
	c0,0.152,0,0.303,0,0.455c0,0.453,0,0.906,0,1.361c0,0.227,0,0.453,0,0.68c0,0.151,0,0.303,0,0.454c0,0.454,0,0.907,0,1.361
	c0,0.226,0,0.453,0,0.68c0,0.151,0,0.303,0,0.454c0,0.227,0,0.453,0,0.681c4.853,0,9.692,0,14.531,0c0,2.42,0,4.839,0,7.259
	c2.42,0,4.84,0,7.247,0c0,4.84,0,9.68,0,14.52c2.42,0,4.839,0,7.259,0c0,2.419,0,4.839,0,7.259c9.755,0,19.522,0,29.277,0
	c0,0.681,0,1.36,0,2.042c0,0.604,0,1.209,0,1.814c0,1.211,0,2.42,0,3.63c7.259,0,14.506,0,21.765,0c0-2.419,0-4.84,0-7.26
	c0-0.075,0-0.151,0-0.227c0.24,0,0.467,0,0.681,0c0.921,0,1.828,0,2.723,0c0.466,0,0.907,0,1.373,0c0.215,0,0.454,0,0.681,0
	c0.151,0,0.303,0,0.454,0c0.832,0,1.65,0,2.482,0c0.467,0,0.92,0,1.361,0c0.227,0,0.467,0,0.693,0c0.151,0,0.303,0,0.454,0
	c0.44,0,0.907,0,1.361,0c0.227,0,0.44,0,0.681,0c0.227,0,0.44,0,0.681,0c0.44,0,0.906,0,1.359,0c0.228,0,0.442,0,0.669,0
	c0.151,0,0.303,0,0.466,0c0.832,0,1.664,0,2.496,0c0.818,0,1.65,0,2.482,0c0.227,0,0.467,0,0.693,0c0-2.42,0-4.84,0-7.259
	c0.214,0,0.454,0,0.681,0c0.895,0,1.815,0,2.722,0c0.454,0,0.896,0,1.361,0c0.215,0,0.44,0,0.681,0c0.151,0,0.303,0,0.44,0
	c0.24,0,0.467,0,0.681,0c0.24,0,0.467,0,0.681,0c0.24,0,0.467,0,0.681,0c0.151,0,0.315,0,0.467,0c0.454,0,0.895,0,1.361,0
	c0.214,0,0.453,0,0.681,0c0.151,0,0.303,0,0.44,0c0.24,0,0.467,0,0.681,0c0.24,0,0.467,0,0.681,0c0.24,0,0.466,0,0.681,0
	c0.24,0,0.466,0,0.681,0c0.466,0,0.92,0,1.361,0c0.239,0,0.466,0,0.681,0c0.163,0,0.314,0,0.466,0c0.214,0,0.44,0,0.681,0
	c0.227,0,0.44,0,0.681,0c0.227,0,0.44,0,0.681,0c0.151,0,0.289,0,0.44,0c0.467,0,0.921,0,1.361,0c0.24,0,0.467,0,0.681,0
	c0.164,0,0.315,0,0.467,0c0.214,0,0.452,0,0.681,0c0-3.555,0-7.109,0-10.662c0-1.74,0-3.479,0-5.219c0-0.906,0-1.814,0-2.721
	c0-0.455,0-0.908,0-1.361c0-0.228,0-0.454,0-0.682c0-0.15,0-0.303,0-0.453c0-0.227,0-0.454,0-0.681c0.681,0,1.361,0,2.041,0
	c0.593,0,1.21,0,1.803,0c0.617,0,1.209,0,1.827,0c0.592,0,1.21,0,1.802,0c0-2.419,0-4.84,0-7.26c2.42,0,4.853,0,7.272,0
	c0-2.419,0-4.839,0-7.259c2.42,0,4.84,0,7.259,0c0-2.42,0-4.84,0-7.26c2.42,0,4.84,0,7.26,0c0-1.814,0-3.629,0-5.444
	c0-0.907,0-1.814,0-2.722c0-0.454,0-0.908,0-1.361c0-0.227,0-0.454,0-0.682c0-0.15,0-0.302,0-0.453c0-0.906,0-1.814,0-2.723
	c0-0.453,0-0.906,0-1.36c0-0.228,0-0.454,0-0.681c0-0.151,0-0.303,0-0.454c0-0.907,0-1.814,0-2.722c0-0.454,0-0.908,0-1.361
	c0-0.227,0-0.453,0-0.681c0-0.151,0-0.303,0-0.453c0-0.228,0-0.454,0-0.681c2.407,0,4.827,0,7.246,0c0-1.891,0-3.781,0-5.671
	c0-1.815,0-3.629,0-5.445c0-1.815,0-3.63,0-5.444c0-1.815,0-3.629,0-5.444c-2.419,0-4.839,0-7.246,0c0-4.84,0-9.679,0-14.519
	c-4.84,0-9.679,0-14.519,0c0-2.42,0-4.84,0-7.26c-4.915,0-9.844,0-14.745,0c0,2.42,0,4.84,0,7.26c-2.42,0-4.84,0-7.26,0
	c0-9.679,0-19.358,0-29.037c-2.421,0-4.853,0-7.272,0c0-4.839,0-9.68,0-14.519c-9.666,0-19.345,0-29.037,0c0-2.419,0-4.839,0-7.259
	c-0.214,0-0.44,0-0.681,0c-0.138,0-0.289,0-0.44,0c-0.24,0-0.467,0-0.681,0c-0.467,0-0.907,0-1.361,0c-0.832,0-1.676,0-2.508,0
	c-1.739,0-3.479,0-5.205,0c-0.164,0-0.315,0-0.467,0c-0.214,0-0.44,0-0.681,0c-0.44,0-0.906,0-1.349,0c-0.831,0-1.663,0-2.495,0
	c-1.738,0-3.478,0-5.217,0c-0.24,0-0.454,0-0.681,0c0,2.42,0,4.84,0,7.259c-4.841,0-9.692,0-14.531,0c0,3.63,0,7.259,0,10.889
	c0,1.815,0,3.63,0,5.444c0,1.815,0,3.629,0,5.444c2.419,0,4.839,0,7.259,0c0,2.42,0,4.84,0,7.26c3.643,0,7.272,0,10.902,0
	c3.629,0,7.259,0,10.876,0c0-2.42,0-4.84,0-7.26c4.839,0,9.679,0,14.531,0c0,4.84,0,9.679,0,14.519c2.42,0,4.84,0,7.259,0
	c0,2.42,0,4.84,0,7.26c2.42,0,4.84,0,7.26,0c0,2.419,0,4.839,0,7.259c0,2.42,0,4.84,0,7.26c2.407,0,4.827,0,7.246,0
	c0-2.419,0-4.84,0-7.26c2.42,0,4.852,0,7.272,0c0,2.42,0,4.84,0,7.26c2.42,0,4.84,0,7.26,0c0,2.42,0,4.839,0,7.259
	c0.681,0,1.361,0,2.041,0c0.593,0,1.21,0,1.803,0c1.209,0,2.419,0,3.629,0c0,0.681,0,1.361,0,2.042c0,0.605,0,1.21,0,1.815
	c0,1.209,0,2.419,0,3.629c4.853,0,9.692,0,14.531,0c0,0.227,0,0.454,0,0.681c0,1.059,0,2.118,0,3.176c0,0.529,0,1.06,0,1.589
	S196.454,101.102,196.454,101.631z"/>
<path fill="#FFFFFF" d="M14.506,65.334c0,2.419,0,4.839,0,7.259c2.419,0,4.839,0,7.259,0c0-2.419,0-4.839,0-7.259
	C19.345,65.334,16.925,65.334,14.506,65.334z"/>
<path fill="#DFF3FD" d="M43.543,109.116c4.839,0,9.69,0,14.531,0c0-1.21,0-2.419,0-3.63c0-1.209,0-2.419,0-3.629s0-2.42,0-3.63
	s0-2.42,0-3.63s0-2.42,0-3.629c0-1.21,0-2.42,0-3.629c0-1.21,0-2.42,0-3.63c0-0.604,0-1.209,0-1.815c0-0.68,0-1.36,0-2.041
	c-4.841,0-9.692,0-14.531,0c0,0.076,0,0.151,0,0.227c0,0.605,0,1.21,0,1.814c0,0.606,0,1.211,0,1.815c0,1.21,0,2.42,0,3.63
	c0,1.209,0,2.419,0,3.629c0,1.209,0,2.419,0,3.629s0,2.42,0,3.63s0,2.42,0,3.63s0,2.42,0,3.629
	C43.543,106.697,43.543,107.906,43.543,109.116z"/>
<path fill="#FFFFFF" d="M58.074,29.037c-0.24,0-0.454,0-0.681,0c-0.24,0-0.454,0-0.681,0c-0.24,0-0.454,0-0.681,0
	c-0.239,0-0.466,0-0.681,0c-0.907,0-1.827,0-2.723,0c-1.827,0-3.629,0-5.457,0c-3.629,0-7.246,0-10.876,0c0,2.42,0,4.84,0,7.26
	c-0.227,0-0.466,0-0.681,0c-0.995,0-1.965,0-2.949,0c-0.982,0-1.979,0-2.948,0c-0.24,0-0.454,0-0.681,0c0,0.226,0,0.453,0,0.681
	c0,0.226,0,0.453,0,0.68c0,0.454,0,0.907,0,1.361c0,0.227,0,0.454,0,0.68c0,0.227,0,0.454,0,0.681c0,0.454,0,0.907,0,1.361
	c0,0.227,0,0.454,0,0.681s0,0.454,0,0.681c0,0.454,0,0.908,0,1.361c0,0.227,0,0.454,0,0.681c0,0.227,0,0.454,0,0.681
	c0,0.454,0,0.907,0,1.361c0,0.227,0,0.454,0,0.68c0,0.227,0,0.454,0,0.681c0,0.454,0,0.908,0,1.361c0,0.227,0,0.454,0,0.681
	c0,0.227,0,0.454,0,0.68c0,0.454,0,0.908,0,1.361c0,0.227,0,0.454,0,0.681c0,0.227,0,0.454,0,0.681c0,0.454,0,0.907,0,1.361
	c0,0.907,0,1.814,0,2.722c-2.42,0-4.84,0-7.272,0c0,2.42,0,4.84,0,7.26c4.853,0,9.692,0,14.531,0c0-2.42,0-4.84,0-7.26
	c2.42,0,4.84,0,7.247,0c0-4.839,0-9.679,0-14.519c2.42,0,4.839,0,7.259,0c0-2.42,0-4.839,0-7.259c2.432,0,4.853,0,7.272,0
	C58.074,33.877,58.074,31.458,58.074,29.037z"/>
<path fill="#232034" d="M58.074,109.116c0,2.42,0,4.84,0,7.26c2.42,0,4.84,0,7.259,0c0-4.84,0-9.679,0-14.519c0-2.42,0-4.84,0-7.26
	c0-0.681,0-1.361,0-2.041c0-0.605,0-1.21,0-1.815c0-1.21,0-2.42,0-3.63c0-2.419,0-4.839,0-7.259c-2.419,0-4.839,0-7.259,0
	c0,0.681,0,1.361,0,2.041c0,0.606,0,1.211,0,1.815c0,1.21,0,2.42,0,3.63c0,1.209,0,2.419,0,3.629c0,1.209,0,2.419,0,3.629
	s0,2.42,0,3.63s0,2.42,0,3.63s0,2.42,0,3.629C58.074,106.697,58.074,107.906,58.074,109.116z"/>
<path fill="#DFF3FD" d="M58.074,65.334c0,4.839,0,9.679,0,14.519c2.42,0,4.84,0,7.259,0c0-4.84,0-9.679,0-14.519
	C62.914,65.334,60.494,65.334,58.074,65.334z"/>
<path fill="#FFFFFF" d="M58.074,21.778c0,2.42,0,4.839,0,7.259c0.289,0,0.592,0,0.907,0c0.214,0,0.454,0,0.681,0
	c0.214,0,0.454,0,0.681,0c0.214,0,0.453,0,0.681,0c0.44,0,0.907,0,1.361,0c0.227,0,0.44,0,0.681,0c0.226,0,0.44,0,0.681,0
	c1.802,0,3.629,0,5.431,0c1.828,0,3.63,0,5.457,0c1.728,0,3.466,0,5.205,0c0,2.42,0,4.84,0,7.26c1.21,0,2.42,0,3.642,0
	c0.605,0,1.211,0,1.815,0c0.303,0,0.605,0,0.896,0c0.314,0,0.617,0,0.92,0c0.075,0,0.15,0,0.227,0c0,2.419,0,4.839,0,7.259
	c2.42,0,4.84,0,7.247,0c0-1.815,0-3.629,0-5.444c0-1.814,0-3.629,0-5.444c0-3.63,0-7.259,0-10.889c4.839,0,9.69,0,14.531,0
	c0-2.419,0-4.839,0-7.259c0.227,0,0.44,0,0.681,0c1.739,0,3.479,0,5.217,0c0.832,0,1.664,0,2.495,0c0.442,0,0.908,0,1.349,0
	c0.24,0,0.467,0,0.681,0c0.151,0,0.303,0,0.467,0c1.727,0,3.466,0,5.205,0c0.832,0,1.676,0,2.508,0c0.454,0,0.895,0,1.361,0
	c0.214,0,0.44,0,0.681,0c0.151,0,0.303,0,0.44,0c0.24,0,0.467,0,0.681,0c0,2.42,0,4.84,0,7.259c9.692,0,19.371,0,29.037,0
	c0-2.419,0-4.839,0-7.259c-2.419,0-4.839,0-7.246,0c0-0.227,0-0.454,0-0.681c0-1.966,0-3.932,0-5.898c0-0.227,0-0.454,0-0.681
	c-9.679,0-19.371,0-29.05,0c0-2.419,0-4.839,0-7.259c-3.617,0-7.247,0-10.876,0c-1.828,0-3.63,0-5.445,0c-1.814,0-3.629,0-5.457,0
	c0,2.42,0,4.84,0,7.259c-0.214,0-0.44,0-0.681,0c-4.6,0-9.212,0-13.825,0c0,2.42,0,4.839,0,7.259c-0.227,0-0.467,0-0.681,0
	c-2.042,0-4.096,0-6.138,0c-0.214,0-0.44,0-0.681,0c0,2.42,0,4.84,0,7.259c-0.139,0-0.289,0-0.44,0c-1.739,0-3.479,0-5.23,0
	c-1.802,0-3.63,0-5.432,0c-1.739,0-3.491,0-5.23,0C61.704,21.778,59.876,21.778,58.074,21.778z"/>
<path fill="#232034" d="M65.333,130.895c0,2.42,0,4.84,0,7.259c2.42,0,4.84,0,7.247,0c0-2.419,0-4.839,0-7.259
	C70.173,130.895,67.753,130.895,65.333,130.895z"/>
<path fill="#232034" d="M65.333,116.376c0,2.419,0,4.839,0,7.259c2.42,0,4.84,0,7.247,0c0-2.42,0-4.84,0-7.259
	C70.173,116.376,67.753,116.376,65.333,116.376z"/>
<path fill="#E7F6FD" d="M65.333,94.598c0,2.42,0,4.84,0,7.26c2.42,0,4.84,0,7.247,0c0-2.42,0-4.84,0-7.26
	C70.173,94.598,67.753,94.598,65.333,94.598z"/>
<path fill="#010101" d="M65.333,94.598c2.42,0,4.84,0,7.247,0c0,2.42,0,4.84,0,7.26c2.42,0,4.839,0,7.259,0c0-2.42,0-4.84,0-7.26
	c0-1.21,0-2.42,0-3.629c0-0.605,0-1.21,0-1.815c0-0.681,0-1.361,0-2.042c-2.42,0-4.839,0-7.259,0c-2.407,0-4.827,0-7.247,0
	c0,1.21,0,2.42,0,3.63c0,0.605,0,1.21,0,1.815C65.333,93.236,65.333,93.917,65.333,94.598z"/>
<path fill="#848484" d="M65.333,79.853c0,2.42,0,4.839,0,7.259c2.42,0,4.84,0,7.247,0c0-2.419,0-4.839,0-7.259
	C70.173,79.853,67.753,79.853,65.333,79.853z"/>
<path fill="#232034" d="M65.333,65.334c0,4.839,0,9.679,0,14.519c2.42,0,4.84,0,7.247,0c0-2.419,0-4.84,0-7.26
	c0-2.419,0-4.839,0-7.259C70.173,65.334,67.753,65.334,65.333,65.334z"/>
<path fill="#232034" d="M72.58,138.153c0,2.42,0,4.841,0,7.26c2.42,0,4.839,0,7.259,0c0-2.419,0-4.84,0-7.26
	C77.419,138.153,75,138.153,72.58,138.153z"/>
<path fill="#C3CAD1" d="M72.58,130.895c0,2.42,0,4.84,0,7.259c2.42,0,4.839,0,7.259,0c0-2.419,0-4.839,0-7.259
	C77.419,130.895,75,130.895,72.58,130.895z"/>
<path fill="#232034" d="M72.58,123.635c0,2.42,0,4.84,0,7.26c2.42,0,4.839,0,7.259,0c0-2.42,0-4.84,0-7.26
	C77.419,123.635,75,123.635,72.58,123.635z"/>
<path fill="#010101" d="M72.58,116.376c0,2.419,0,4.839,0,7.259c2.42,0,4.839,0,7.259,0c0-2.42,0-4.84,0-7.259
	C77.419,116.376,75,116.376,72.58,116.376z"/>
<path fill="#848484" d="M72.58,65.334c0,2.419,0,4.839,0,7.259c2.42,0,4.839,0,7.259,0c0-2.419,0-4.839,0-7.259
	C77.419,65.334,75,65.334,72.58,65.334z"/>
<path fill="#232034" d="M72.58,58.074c0,2.42,0,4.84,0,7.26c2.42,0,4.839,0,7.259,0c1.21,0,2.42,0,3.642,0c0.605,0,1.211,0,1.815,0
	c0.681,0,1.361,0,2.042,0c0-2.42,0-4.84,0-7.26c-2.42,0-4.839,0-7.259,0c-1.21,0-2.42,0-3.63,0c-0.605,0-1.21,0-1.815,0
	C73.953,58.074,73.272,58.074,72.58,58.074z"/>
<path fill="#232034" d="M79.839,145.413c0,2.42,0,4.839,0,7.259c0.151,0,0.303,0,0.467,0c0.681,0,1.361,0,2.042,0
	c0.151,0,0.303,0,0.454,0c0.227,0,0.44,0,0.679,0c0.14,0,0.291,0,0.442,0c0.227,0,0.466,0,0.692,0c0.151,0,0.303,0,0.454,0
	c0.227,0,0.441,0,0.681,0c0.151,0,0.289,0,0.441,0c0.239,0,0.466,0,0.68,0c0.152,0,0.315,0,0.467,0c0.214,0,0.454,0,0.681,0
	c0.151,0,0.303,0,0.454,0c0.227,0,0.44,0,0.68,0c0.139,0,0.29,0,0.441,0c0.227,0,0.467,0,0.693,0c0.151,0,0.303,0,0.454,0
	c0.227,0,0.44,0,0.681,0c0.151,0,0.289,0,0.44,0c0.24,0,0.467,0,0.681,0c0.151,0,0.315,0,0.467,0c0.214,0,0.454,0,0.68,0
	c0.152,0,0.304,0,0.455,0c0.226,0,0.44,0,0.679,0c0.14,0,0.291,0,0.442,0c0.227,0,0.466,0,0.692,0c0.151,0,0.303,0,0.454,0
	c0.227,0,0.441,0,0.681,0c0.151,0,0.289,0,0.44,0c0.24,0,0.467,0,0.681,0c1.525,0,3.038,0,4.551,0c0.151,0,0.289,0,0.44,0
	c0.24,0,0.467,0,0.681,0c0.151,0,0.314,0,0.466,0c0.215,0,0.455,0,0.681,0c0.151,0,0.303,0,0.454,0c0.227,0,0.441,0,0.68,0
	c0.14,0,0.291,0,0.442,0c0.226,0,0.466,0,0.692,0c1.513,0,3.025,0,4.537,0c0.139,0,0.29,0,0.441,0c0.227,0,0.467,0,0.693,0
	c0.151,0,0.303,0,0.454,0c0.226,0,0.44,0,0.681,0c0.151,0,0.289,0,0.44,0c0.239,0,0.466,0,0.681,0c0.151,0,0.314,0,0.466,0
	c0.215,0,0.454,0,0.681,0c0-2.42,0-4.839,0-7.259c-2.419,0-4.839,0-7.259,0C99.361,145.413,89.594,145.413,79.839,145.413z"/>
<path fill="#010101" d="M85.511,101.857c-0.593,0-1.21,0-1.802,0c-0.618,0-1.21,0-1.828,0c-0.681,0-1.361,0-2.042,0
	c0,2.42,0,4.84,0,7.259c0.618,0,1.21,0,1.828,0c0.592,0,1.21,0,1.813,0c0.605,0,1.211,0,1.815,0c0.681,0,1.361,0,2.042,0
	c0-2.419,0-4.839,0-7.259C86.72,101.857,86.128,101.857,85.511,101.857z"/>
<path fill="#C3CAD1" d="M87.792,138.153c-0.151,0-0.303,0-0.454,0c-0.076,0-0.151,0-0.227,0c-0.151,0-0.303,0-0.454,0
	c-0.075,0-0.151,0-0.227,0c-0.151,0-0.303,0-0.454,0c-0.075,0-0.163,0-0.227,0c-0.151,0-0.303,0-0.454,0c-0.075,0-0.163,0-0.227,0
	c-0.239,0-0.454,0-0.681,0c-0.239,0-0.466,0-0.68,0c-0.152,0-0.303,0-0.467,0c-0.063,0-0.151,0-0.214,0c-0.227,0-0.467,0-0.681,0
	c-0.467,0-0.907,0-1.361,0c-0.227,0-0.467,0-0.681,0c-0.164,0-0.315,0-0.467,0c0,2.42,0,4.841,0,7.26c9.755,0,19.522,0,29.277,0
	c0-2.419,0-4.84,0-7.26c2.42,0,4.84,0,7.259,0c2.42,0,4.84,0,7.247,0c0-1.814,0-3.63,0-5.444s0-3.629,0-5.444s0-3.63,0-5.444
	s0-3.63,0-5.444c-2.407,0-4.827,0-7.247,0c0-4.84,0-9.679,0-14.519c-2.419,0-4.839,0-7.259,0s-4.841,0-7.272,0
	c-2.42,0-4.84,0-7.259,0c0-2.42,0-4.84,0-7.26c-2.407,0-4.827,0-7.247,0c0-1.21,0-2.42,0-3.629c0-0.605,0-1.21,0-1.815
	c0-0.303,0-0.605,0-0.908c0-0.151,0-0.302,0-0.454c0-0.227,0-0.453,0-0.681c2.42,0,4.84,0,7.247,0c1.827,0,3.629,0,5.457,0
	c1.802,0,3.63,0,5.444,0s3.63,0,5.432,0c1.828,0,3.63,0,5.457,0c0,0.681,0,1.361,0,2.042c0,0.605,0,1.21,0,1.815
	c0,1.209,0,2.419,0,3.629c2.42,0,4.84,0,7.247,0c0-2.42,0-4.839,0-7.259c0-0.076,0-0.151,0-0.228c4.839,0,9.679,0,14.531,0
	c0-2.419,0-4.839,0-7.259c-2.419,0-4.853,0-7.272,0c0-4.84,0-9.679,0-14.519c-2.42,0-4.839,0-7.259,0c0-2.42,0-4.84,0-7.26
	c-9.666,0-19.347,0-29.037,0c0,2.42,0,4.84,0,7.26c-2.407,0-4.827,0-7.247,0c-0.681,0-1.361,0-2.042,0c-0.604,0-1.21,0-1.815,0
	c-1.222,0-2.432,0-3.642,0c0,2.419,0,4.839,0,7.259c-2.42,0-4.839,0-7.259,0c0,2.42,0,4.84,0,7.26c0,2.42,0,4.839,0,7.259
	c2.42,0,4.839,0,7.259,0c0,0.681,0,1.361,0,2.042c0,0.605,0,1.21,0,1.815c0,1.209,0,2.419,0,3.629c0,2.42,0,4.84,0,7.26
	c0.681,0,1.361,0,2.042,0c0.618,0,1.21,0,1.828,0c0.592,0,1.209,0,1.802,0c0.617,0,1.209,0,1.827,0c0,2.42,0,4.84,0,7.259
	c-0.681,0-1.361,0-2.042,0c-0.604,0-1.21,0-1.815,0c-0.604,0-1.222,0-1.813,0c-0.618,0-1.21,0-1.828,0c0-2.419,0-4.839,0-7.259
	c-2.42,0-4.839,0-7.259,0c-2.407,0-4.827,0-7.247,0c0,4.84,0,9.679,0,14.519c2.42,0,4.84,0,7.247,0c2.42,0,4.839,0,7.259,0
	c0,2.419,0,4.839,0,7.259c0.681,0,1.361,0,2.042,0c0.618,0,1.21,0,1.828,0c0.592,0,1.209,0,1.802,0c0.617,0,1.209,0,1.827,0
	c0-2.42,0-4.84,0-7.259c0.214,0,0.454,0,0.681,0c1.059,0,2.104,0,3.163,0c0.529,0,1.072,0,1.602,0c0.289,0,0.592,0,0.906,0
	c0.152,0,0.304,0,0.455,0c0.074,0,0.149,0,0.226,0c0.063,0,0.151,0,0.215,0c0,2.419,0,4.839,0,7.259c2.419,0,4.839,0,7.259,0
	c0-2.42,0-4.84,0-7.259c2.432,0,4.853,0,7.272,0c0,2.419,0,4.839,0,7.259c2.42,0,4.84,0,7.259,0c0,2.42,0,4.84,0,7.26
	c-4.839,0-9.679,0-14.531,0c0,2.42,0,4.84,0,7.259c-0.214,0-0.44,0-0.681,0c-0.907,0-1.802,0-2.709,0c-0.24,0-0.454,0-0.681,0
	c-0.24,0-0.454,0-0.681,0c-0.151,0-0.303,0-0.454,0c-0.075,0-0.163,0-0.227,0c-0.151,0-0.303,0-0.454,0c-0.075,0-0.163,0-0.227,0
	c-0.239,0-0.466,0-0.681,0c-0.228,0-0.466,0-0.681,0c-0.226,0-0.466,0-0.681,0c-0.226,0-0.466,0-0.68,0c-0.467,0-0.907,0-1.361,0
	c-0.227,0-0.467,0-0.681,0c-0.164,0-0.315,0-0.467,0c-0.138,0-0.289,0-0.44,0c-0.089,0-0.151,0-0.24,0c-0.138,0-0.289,0-0.44,0
	c-0.089,0-0.151,0-0.228,0c-0.239,0-0.453,0-0.68,0C88.232,138.153,88.019,138.153,87.792,138.153z"/>
<path fill="#010101" d="M88.019,116.376c-0.227,0-0.467,0-0.681,0c0,2.419,0,4.839,0,7.259c-0.618,0-1.21,0-1.827,0
	c-0.593,0-1.21,0-1.802,0c-0.618,0-1.21,0-1.828,0c-0.681,0-1.361,0-2.042,0c0,2.42,0,4.84,0,7.26s0,4.84,0,7.259
	c0.151,0,0.303,0,0.467,0c0.214,0,0.454,0,0.681,0c0.454,0,0.895,0,1.361,0c0.214,0,0.454,0,0.681,0c0.063,0,0.151,0,0.214,0
	c0.164,0,0.314,0,0.467,0c0.214,0,0.44,0,0.68,0c0.227,0,0.441,0,0.681,0c0.063,0,0.151,0,0.227,0c0.151,0,0.303,0,0.454,0
	c0.063,0,0.151,0,0.227,0c0.151,0,0.303,0,0.454,0c0.075,0,0.151,0,0.227,0c0.151,0,0.303,0,0.454,0c0.075,0,0.15,0,0.227,0
	c0.151,0,0.303,0,0.454,0c0.227,0,0.44,0,0.681,0c0.227,0,0.44,0,0.68,0c0.076,0,0.139,0,0.228,0c0.151,0,0.303,0,0.44,0
	c0.089,0,0.151,0,0.24,0c0.151,0,0.303,0,0.44,0c0.151,0,0.303,0,0.467,0c0.214,0,0.454,0,0.681,0c0.454,0,0.895,0,1.361,0
	c0.214,0,0.454,0,0.68,0c0.215,0,0.455,0,0.681,0c0.215,0,0.453,0,0.681,0c0.215,0,0.441,0,0.681,0c0.063,0,0.151,0,0.227,0
	c0.151,0,0.303,0,0.454,0c0.063,0,0.151,0,0.227,0c0.151,0,0.303,0,0.454,0c0.227,0,0.44,0,0.681,0c0.227,0,0.44,0,0.681,0
	c0.907,0,1.802,0,2.709,0c0.24,0,0.467,0,0.681,0c0-2.419,0-4.839,0-7.259c4.853,0,9.692,0,14.531,0c0-2.42,0-4.84,0-7.26
	c-2.419,0-4.839,0-7.259,0c0-2.42,0-4.84,0-7.259c-2.42,0-4.841,0-7.272,0c0,2.419,0,4.839,0,7.259c-2.42,0-4.84,0-7.259,0
	c0-2.42,0-4.84,0-7.259c-0.063,0-0.151,0-0.215,0c-0.076,0-0.151,0-0.226,0c-0.151,0-0.303,0-0.455,0c-0.314,0-0.617,0-0.906,0
	c-0.529,0-1.072,0-1.602,0C90.123,116.376,89.077,116.376,88.019,116.376z"/>
<path fill="#848484" d="M87.338,90.968c0,1.209,0,2.419,0,3.629c2.42,0,4.84,0,7.247,0c0-1.21,0-2.42,0-3.629
	c0-0.605,0-1.21,0-1.815c0-0.303,0-0.605,0-0.908c0-0.302,0-0.605,0-0.907c0-0.076,0-0.151,0-0.228c-2.407,0-4.827,0-7.247,0
	c0,0.228,0,0.454,0,0.681c0,0.151,0,0.303,0,0.454c0,0.303,0,0.605,0,0.908C87.338,89.758,87.338,90.363,87.338,90.968z"/>
<path fill="#848484" d="M87.338,58.074c0,2.42,0,4.84,0,7.26c2.42,0,4.84,0,7.247,0c0-2.42,0-4.84,0-7.26
	C92.178,58.074,89.758,58.074,87.338,58.074z"/>
<path fill="#232034" d="M87.338,50.815c0,2.419,0,4.839,0,7.259c2.42,0,4.84,0,7.247,0c9.69,0,19.371,0,29.037,0
	c2.42,0,4.839,0,7.259,0c0-2.419,0-4.839,0-7.259c-2.42,0-4.839,0-7.259,0c-3.617,0-7.247,0-10.876,0c-3.63,0-7.26,0-10.902,0
	c-2.42,0-4.84,0-7.259,0C92.178,50.815,89.758,50.815,87.338,50.815z"/>
<path fill="#E7F6FD" d="M94.585,94.598c0,2.42,0,4.84,0,7.26c2.419,0,4.839,0,7.259,0c0-2.42,0-4.84,0-7.26
	C99.424,94.598,97.004,94.598,94.585,94.598z"/>
<path fill="#010101" d="M94.585,94.598c2.419,0,4.839,0,7.259,0c0,2.42,0,4.84,0,7.26c2.432,0,4.853,0,7.272,0c0-2.42,0-4.84,0-7.26
	c2.42,0,4.84,0,7.259,0c0-1.21,0-2.42,0-3.629c0-0.605,0-1.21,0-1.815c0-0.681,0-1.361,0-2.042c-1.827,0-3.629,0-5.457,0
	c-1.802,0-3.617,0-5.432,0s-3.643,0-5.444,0c-1.828,0-3.63,0-5.457,0c0,0.076,0,0.151,0,0.228c0,0.302,0,0.604,0,0.907
	c0,0.303,0,0.605,0,0.908c0,0.605,0,1.21,0,1.815C94.585,92.178,94.585,93.388,94.585,94.598z"/>
<path fill="#FFFFFF" d="M94.585,43.556c0,2.42,0,4.84,0,7.26c2.419,0,4.839,0,7.259,0c0-2.42,0-4.84,0-7.26
	C99.424,43.556,97.004,43.556,94.585,43.556z"/>
<path fill="#848484" d="M109.116,138.153c0,2.42,0,4.841,0,7.26c2.42,0,4.84,0,7.259,0c0-2.419,0-4.84,0-7.26
	C113.956,138.153,111.536,138.153,109.116,138.153z"/>
<path fill="#232034" d="M116.375,138.153c0,2.42,0,4.841,0,7.26c2.42,0,4.84,0,7.247,0c0-2.419,0-4.84,0-7.26
	C121.215,138.153,118.795,138.153,116.375,138.153z"/>
<path fill="#232034" d="M123.622,132.709c0,1.814,0,3.63,0,5.444c2.42,0,4.839,0,7.259,0c0-3.63,0-7.259,0-10.889s0-7.259,0-10.889
	c2.42,0,4.854,0,7.272,0c0-2.42,0-4.84,0-7.26c2.42,0,4.84,0,7.259,0c0-2.419,0-4.839,0-7.259c2.42,0,4.84,0,7.26,0
	c0-2.42,0-4.84,0-7.26s0-4.839,0-7.259c0-2.42,0-4.839,0-7.26c0-0.076,0-0.151,0-0.227c0-2.419,0-4.84,0-7.26c-2.42,0-4.84,0-7.26,0
	c0,3.63,0,7.26,0,10.889c0,3.706,0,7.411,0,11.116c-2.419,0-4.839,0-7.259,0c0,2.42,0,4.84,0,7.26c-2.419,0-4.853,0-7.272,0
	c0,2.42,0,4.84,0,7.259c-2.42,0-4.839,0-7.259,0c0,2.42,0,4.84,0,7.26c0,1.814,0,3.63,0,5.444s0,3.629,0,5.444
	S123.622,130.895,123.622,132.709z"/>
<path fill="#848484" d="M123.622,87.111c0,0.076,0,0.151,0,0.228c0,2.419,0,4.839,0,7.259c-2.407,0-4.827,0-7.247,0
	c-2.419,0-4.839,0-7.259,0c0,2.42,0,4.84,0,7.26c2.42,0,4.84,0,7.259,0c0,4.84,0,9.679,0,14.519c2.42,0,4.84,0,7.247,0
	c0-2.42,0-4.84,0-7.26c2.42,0,4.839,0,7.259,0c0-2.419,0-4.839,0-7.259c2.42,0,4.854,0,7.272,0c0-2.42,0-4.84,0-7.26
	c2.42,0,4.84,0,7.259,0c0-3.705,0-7.41,0-11.116c0-3.629,0-7.259,0-10.889c-2.419,0-4.839,0-7.259,0c0-2.419,0-4.839,0-7.259
	c-2.419,0-4.853,0-7.272,0c0,4.839,0,9.679,0,14.519c2.42,0,4.854,0,7.272,0c0,2.42,0,4.839,0,7.259
	C133.301,87.111,128.461,87.111,123.622,87.111z"/>
<path fill="#848484" d="M123.622,58.074c0,2.42,0,4.84,0,7.26c2.42,0,4.839,0,7.259,0c0-2.42,0-4.84,0-7.26
	C128.461,58.074,126.042,58.074,123.622,58.074z"/>
<path fill="#DFF3FD" d="M123.622,43.556c0,2.42,0,4.84,0,7.26c2.42,0,4.839,0,7.259,0c0,2.419,0,4.839,0,7.259
	c2.42,0,4.854,0,7.272,0c0-4.839,0-9.679,0-14.519C133.301,43.556,128.461,43.556,123.622,43.556z"/>
<path fill="#FFFFFF" d="M170.82,167.191c-0.24,0-0.454,0-0.681,0c-0.24,0-0.454,0-0.681,0c-0.24,0-0.467,0-0.681,0
	c-0.151,0-0.303,0-0.466,0c-0.215,0-0.441,0-0.681,0c-0.441,0-0.896,0-1.361,0c-0.215,0-0.44,0-0.681,0c-0.215,0-0.44,0-0.681,0
	c-0.214,0-0.44,0-0.681,0c-0.214,0-0.44,0-0.681,0c-0.138,0-0.289,0-0.44,0c-0.228,0-0.467,0-0.681,0c-0.467,0-0.907,0-1.361,0
	c-0.151,0-0.315,0-0.467,0c-0.214,0-0.44,0-0.681,0c-0.214,0-0.44,0-0.681,0c-0.214,0-0.44,0-0.681,0c-0.138,0-0.289,0-0.44,0
	c-0.24,0-0.466,0-0.681,0c-0.466,0-0.907,0-1.361,0c-0.906,0-1.827,0-2.722,0c-0.227,0-0.467,0-0.681,0c0,2.419,0,4.839,0,7.259
	c-0.227,0-0.467,0-0.693,0c-0.832,0-1.664,0-2.482,0c-0.832,0-1.664,0-2.496,0c-0.163,0-0.314,0-0.466,0c-0.227,0-0.441,0-0.669,0
	c-0.453,0-0.919,0-1.359,0c-0.24,0-0.454,0-0.681,0c-0.24,0-0.454,0-0.681,0c-0.454,0-0.921,0-1.361,0c-0.151,0-0.303,0-0.454,0
	c-0.227,0-0.467,0-0.693,0c-0.441,0-0.895,0-1.361,0c-0.832,0-1.65,0-2.482,0c-0.151,0-0.303,0-0.454,0c-0.227,0-0.466,0-0.681,0
	c-0.466,0-0.907,0-1.373,0c-0.895,0-1.802,0-2.723,0c-0.214,0-0.44,0-0.681,0c0,0.075,0,0.151,0,0.227c0,2.42,0,4.841,0,7.26
	c-7.259,0-14.506,0-21.765,0c0-1.21,0-2.419,0-3.63c0-0.605,0-1.21,0-1.814c0-0.682,0-1.361,0-2.042c-9.755,0-19.522,0-29.277,0
	c0-2.42,0-4.84,0-7.259c-2.42,0-4.839,0-7.259,0c0-4.84,0-9.68,0-14.52c-2.407,0-4.827,0-7.247,0c0-2.42,0-4.839,0-7.259
	c-4.839,0-9.679,0-14.531,0c0-0.228,0-0.454,0-0.681c0-0.151,0-0.303,0-0.454c0-0.227,0-0.454,0-0.68c0-0.454,0-0.907,0-1.361
	c0-0.151,0-0.303,0-0.454c0-0.227,0-0.453,0-0.68c0-0.455,0-0.908,0-1.361c0-0.152,0-0.303,0-0.455c0-0.226,0-0.453,0-0.68
	c0-0.454,0-0.907,0-1.361c0-0.227,0-0.453,0-0.68c0-0.228,0-0.455,0-0.682c0-0.453,0-0.907,0-1.361c0-0.15,0-0.303,0-0.453
	c0-0.227,0-0.454,0-0.681c0-0.454,0-0.907,0-1.36c0-0.152,0-0.303,0-0.454c0-0.228,0-0.454,0-0.681c0-0.454,0-0.908,0-1.361
	c0-0.151,0-0.303,0-0.453c0-0.228,0-0.455,0-0.681c0-0.454,0-0.907,0-1.361c0-0.907,0-1.815,0-2.723c0-0.227,0-0.454,0-0.681
	c-4.839,0-9.666,0-14.506,0c0-4.84,0-9.679,0-14.519c-4.839,0-9.679,0-14.531,0c0-4.839,0-9.679,0-14.519c-2.42,0-4.84,0-7.259,0
	c0-0.227,0-0.454,0-0.681c0-0.227,0-0.454,0-0.681c0-0.227,0-0.454,0-0.68c0-0.228,0-0.454,0-0.681c0-0.227,0-0.454,0-0.681
	c0-0.227,0-0.454,0-0.681c0-0.227,0-0.454,0-0.681s0-0.454,0-0.681s0-0.454,0-0.681s0-0.453,0-0.681c0-0.227,0-0.453,0-0.681
	c0-0.226,0-0.453,0-0.68c0-0.227,0-0.454,0-0.681c0-0.227,0-0.454,0-0.681c0-0.227,0-0.454,0-0.68c0-0.227,0-0.454,0-0.681
	c0-0.227,0-0.454,0-0.681c0-0.227,0-0.454,0-0.681s0-0.454,0-0.68c0-0.227,0-0.454,0-0.681s0-0.454,0-0.681s0-0.454,0-0.681
	s0-0.454,0-0.681c0-0.227,0-0.454,0-0.681c0-0.226,0-0.454,0-0.681c0-0.226,0-0.454,0-0.68s0-0.454,0-0.681c0-0.227,0-0.454,0-0.68
	c0-0.454,0-0.908,0-1.361c0-0.227,0-0.454,0-0.681c0-0.303,0-0.605,0-0.908c-2.42,0-4.827,0-7.247,0c0,2.42,0,4.84,0,7.26
	c-0.227,0-0.467,0-0.681,0c-0.227,0-0.467,0-0.681,0c-0.227,0-0.467,0-0.681,0c-0.227,0-0.467,0-0.692,0c-0.303,0-0.593,0-0.896,0
	c-0.227,0-0.466,0-0.681,0c-0.226,0-0.466,0-0.681,0c-0.226,0-0.466,0-0.68,0c-0.315,0-0.618,0-0.907,0c-0.24,0-0.454,0-0.681,0
	c0,1.21,0,2.42,0,3.629c0,1.21,0,2.42,0,3.629c0,1.21,0,2.42,0,3.63c0,0.605,0,1.21,0,1.815c0,0.68,0,1.36,0,2.041
	c2.42,0,4.839,0,7.259,0c0,0.227,0,0.454,0,0.681c0,0.529,0,1.059,0,1.588c0,0.605,0,1.209,0,1.814c0,0.227,0,0.454,0,0.68
	c0,0.303,0,0.605,0,0.908c0,0.604,0,1.209,0,1.814c0,1.135,0,2.269,0,3.402c0,1.211,0,2.42,0,3.63c2.42,0,4.827,0,7.247,0
	c0,2.42,0,4.84,0,7.26c2.419,0,4.839,0,7.259,0c0,0.227,0,0.454,0,0.681s0,0.453,0,0.681c0,0.227,0,0.453,0,0.681
	c0.012,0.529,0,1.059,0,1.588c0,0.227,0,0.453,0,0.68c0,0.228,0,0.454,0,0.682c0.012,0.529,0,1.059,0,1.587c0,0.228,0,0.454,0,0.681
	c2.433,0,4.853,0,7.272,0c0,0.227,0,0.454,0,0.681c0,0.228,0,0.454,0,0.681c0,0.303,0,0.605,0,0.908c0,0.604,0,1.209,0,1.814
	c0,0.227,0,0.453,0,0.681c0,0.302,0,0.604,0,0.907c0,0.604,0,1.209,0,1.814c0,0.227,0,0.454,0,0.681c0,0.303,0,0.604,0,0.907
	c0,0.605,0,1.21,0,1.814c0,1.211,0,2.42,0,3.63c2.42,0,4.839,0,7.259,0c0,2.42,0,4.841,0,7.26c2.42,0,4.84,0,7.247,0
	c0,0.227,0,0.454,0,0.681s0,0.453,0,0.681c0,0.227,0,0.454,0,0.681c0,0.529,0,1.059,0,1.588c0,0.227,0,0.453,0,0.68s0,0.454,0,0.682
	c0,0.227,0,0.453,0,0.68c0,0.303,0,0.605,0,0.908c0,0.227,0,0.453,0,0.68c4.839,0,9.69,0,14.531,0c0,4.84,0,9.68,0,14.52
	c2.42,0,4.84,0,7.259,0c0,0.227,0,0.453,0,0.68c0,1.967,0,3.933,0,5.898c0,0.227,0,0.454,0,0.681c2.42,0,4.84,0,7.247,0
	c0,0.227,0,0.454,0,0.681c0,2.041,0,4.083,0,6.125c0,0.227,0,0.453,0,0.681c2.42,0,4.839,0,7.259,0c0,2.42,0,4.839,0,7.259
	c6.063,0,12.112,0,18.161,0c6.126,0,12.237,0,18.375,0c0,2.42,0,4.84,0,7.26c9.667,0,19.359,0,29.037,0c0-2.42,0-4.84,0-7.26
	c0.215,0,0.453,0,0.681,0c2.269,0,4.524,0,6.793,0c2.356,0,4.701,0,7.032,0c0-2.42,0-4.839,0-7.259c0.151,0,0.315,0,0.467,0
	c1.739,0,3.466,0,5.205,0c1.827,0,3.629,0,5.457,0c3.617,0,7.247,0,10.876,0c0-1.21,0-2.419,0-3.63c0-0.605,0-1.21,0-1.814
	c0-0.303,0-0.605,0-0.908c0-0.15,0-0.303,0-0.453c0-0.227,0-0.454,0-0.681c0.24,0,0.467,0,0.681,0c1.979,0,3.933,0,5.911,0
	c0.227,0,0.44,0,0.681,0c0-4.84,0-9.679,0-14.519c0.227,0,0.44,0,0.681,0c1.966,0,3.919,0,5.898,0c0.214,0,0.454,0,0.68,0
	c0-1.814,0-3.63,0-5.445c0-1.814,0-3.629,0-5.443s0-3.63,0-5.444c0-1.815,0-3.63,0-5.445c2.42,0,4.84,0,7.26,0
	c0-4.839,0-9.679,0-14.519c-2.42,0-4.84,0-7.26,0c0,2.42,0,4.84,0,7.26c-2.419,0-4.839,0-7.259,0c0,2.42,0,4.84,0,7.259
	c-2.42,0-4.853,0-7.272,0c0,2.42,0,4.841,0,7.26c-0.592,0-1.21,0-1.802,0c-0.618,0-1.21,0-1.827,0c-0.593,0-1.21,0-1.803,0
	c-0.68,0-1.36,0-2.041,0c0,0.227,0,0.454,0,0.681c0,0.15,0,0.303,0,0.453c0,0.228,0,0.454,0,0.682c0,0.453,0,0.906,0,1.361
	c0,0.906,0,1.814,0,2.721c0,1.74,0,3.479,0,5.219c0,3.553,0,7.107,0,10.662c-0.229,0-0.467,0-0.681,0c-0.151,0-0.303,0-0.467,0
	c-0.214,0-0.44,0-0.681,0c-0.44,0-0.895,0-1.361,0C171.109,167.191,170.972,167.191,170.82,167.191z"/>
<path fill="#232034" d="M130.881,58.074c0,2.42,0,4.84,0,7.26c2.42,0,4.854,0,7.272,0c0-2.42,0-4.84,0-7.26
	C135.734,58.074,133.301,58.074,130.881,58.074z"/>
<path fill="#232034" d="M138.153,65.334c0,2.419,0,4.839,0,7.259c2.42,0,4.84,0,7.259,0c0-2.419,0-4.839,0-7.259
	C142.993,65.334,140.573,65.334,138.153,65.334z"/>
<path fill="#DFF3FD" d="M138.153,58.074c0,2.42,0,4.84,0,7.26c2.42,0,4.84,0,7.259,0c0-2.42,0-4.84,0-7.26
	C142.993,58.074,140.573,58.074,138.153,58.074z"/>
<path fill="#DFF3FD" d="M145.412,65.334c0,2.419,0,4.839,0,7.259c2.42,0,4.84,0,7.26,0c0-2.419,0-4.839,0-7.259
	C150.252,65.334,147.832,65.334,145.412,65.334z"/>
<path fill="#DFF3FD" d="M174.45,87.111c0-2.419,0-4.839,0-7.259c-2.42,0-4.84,0-7.26,0c0-2.419,0-4.84,0-7.26
	c-2.421,0-4.853,0-7.272,0c0,2.42,0,4.84,0,7.26c-2.419,0-4.839,0-7.246,0c0,0.076,0,0.151,0,0.227c0,2.42,0,4.84,0,7.26
	c0,2.419,0,4.839,0,7.259c2.407,0,4.827,0,7.246,0c0,2.42,0,4.84,0,7.26c2.42,0,4.852,0,7.272,0c0,2.42,0,4.84,0,7.259
	c4.902,0,9.83,0,14.732,0c0-2.419,0-4.839,0-7.259c4.853,0,9.692,0,14.531,0c0-0.076,0-0.151,0-0.227c0-0.529,0-1.059,0-1.588
	s0-1.06,0-1.589c0-1.058,0-2.117,0-3.176c0-0.227,0-0.454,0-0.681c-4.839,0-9.679,0-14.531,0c0-1.21,0-2.42,0-3.629
	c0-0.605,0-1.21,0-1.815c0-0.681,0-1.361,0-2.042c-1.21,0-2.42,0-3.629,0c-0.593,0-1.21,0-1.803,0
	C175.812,87.111,175.131,87.111,174.45,87.111z"/>
<path fill="#FFFFFF" d="M203.714,101.857c0,0.227,0,0.453,0,0.681c0,0.15,0,0.302,0,0.453c0,0.228,0,0.454,0,0.681
	c0,0.453,0,0.907,0,1.361c0,0.907,0,1.814,0,2.722c0,0.151,0,0.303,0,0.454c0,0.227,0,0.453,0,0.681c0,0.454,0,0.907,0,1.36
	c0,0.908,0,1.816,0,2.723c0,0.151,0,0.303,0,0.453c0,0.228,0,0.455,0,0.682c0,0.453,0,0.907,0,1.361c0,0.907,0,1.814,0,2.722
	c0,1.815,0,3.63,0,5.444c2.407,0,4.827,0,7.246,0c0-2.42,0-4.84,0-7.259c0.24,0,0.467,0,0.681,0c0.24,0,0.467,0,0.681,0
	c0.24,0,0.467,0,0.681,0c0.24,0,0.467,0,0.681,0c0.315,0,0.618,0,0.907,0c0.24,0,0.467,0,0.681,0c0.24,0,0.467,0,0.681,0
	c0.529,0,1.072,0,1.601,0c0.227,0,0.441,0,0.681,0c0-1.815,0-3.63,0-5.444c0-1.815,0-3.63,0-5.445c0-1.814,0-3.629,0-5.443
	c0-1.815,0-3.63,0-5.445c2.42,0,4.84,0,7.26,0c0-1.21,0-2.42,0-3.629c0-1.21,0-2.42,0-3.629c0-1.21,0-2.42,0-3.63
	c0-0.604,0-1.209,0-1.815c0-0.68,0-1.36,0-2.041c-2.42,0-4.84,0-7.26,0c0-0.227,0-0.454,0-0.681c0-4.613,0-9.226,0-13.838
	c-2.421,0-4.853,0-7.272,0c0-0.227,0-0.454,0-0.681c0-0.454,0-0.908,0-1.361c0-0.227,0-0.454,0-0.681c0-0.302,0-0.604,0-0.907
	c0-0.227,0-0.454,0-0.681c0-0.227,0-0.454,0-0.681c0-0.529,0-1.059,0-1.588c0-0.227,0-0.454,0-0.681c-4.839,0-9.666,0-14.506,0
	c0-0.227,0-0.454,0-0.681c0-0.453,0-0.907,0-1.36c0-0.53,0-1.059,0-1.588c0-0.454,0-0.908,0-1.361c0-0.227,0-0.454,0-0.681
	c0-0.302,0-0.605,0-0.907c0-0.228,0-0.454,0-0.681c-3.629,0-7.259,0-10.89,0c-1.813,0-3.642,0-5.443,0c-0.907,0-1.827,0-2.723,0
	c-0.227,0-0.466,0-0.681,0c-0.227,0-0.466,0-0.681,0c-0.226,0-0.466,0-0.681,0c-0.314,0-0.604,0-0.906,0c0-0.151,0-0.303,0-0.454
	c0-1.74,0-3.479,0-5.218c0-1.815,0-3.629,0-5.445c0-1.739,0-3.479,0-5.217c0-1.815,0-3.63,0-5.445c-2.42,0-4.84,0-7.26,0
	c0-2.42,0-4.839,0-7.259c-2.421,0-4.853,0-7.272,0c0,4.839,0,9.68,0,14.519c2.42,0,4.852,0,7.272,0c0,9.679,0,19.358,0,29.037
	c2.42,0,4.84,0,7.26,0c0-2.42,0-4.84,0-7.26c4.901,0,9.83,0,14.745,0c0,2.42,0,4.84,0,7.26c4.84,0,9.679,0,14.519,0
	c0,4.839,0,9.679,0,14.519c2.407,0,4.827,0,7.246,0c0,1.815,0,3.629,0,5.444c0,1.814,0,3.629,0,5.444c0,1.815,0,3.63,0,5.445
	c0,1.89,0,3.781,0,5.671C208.541,101.857,206.121,101.857,203.714,101.857z"/>
<g id="XMLID_2_">
	<g>
		<path fill="#232034" d="M131.658,163.561c0,2.33,0,4.67,0,7c2.42,0,4.83,0,7.26,0c0-2.25,0-4.49,0-6.74c-0.09,0-0.17,0-0.26,0
			c0-0.09,0-0.17,0-0.26C136.318,163.561,133.988,163.561,131.658,163.561z"/>
		<path fill="#232034" d="M131.658,170.82c0,2.25,0,4.49,0,6.74c2.42,0,4.83,0,7.26,0c0-2.25,0-4.49,0-6.74c-0.229,0-0.449,0-0.68,0
			c-1.07,0-2.12,0-3.18,0c-0.53,0-1.07,0-1.59,0c-0.301,0-0.601,0-0.9,0C132.258,170.82,131.958,170.82,131.658,170.82z"/>
		<path fill="#232034" d="M131.658,177.82c0,1.45,0,3.78,0,7c0.3,0,0.6,0,0.91,0c0.3,0,0.6,0,0.9,0c0.52,0,1.06,0,1.59,0
			c1.06,0,2.109,0,3.18,0c0.14,0,0.28,0,0.42,0c0-0.09,0-0.17,0-0.26c0.09,0,0.17,0,0.26,0c0-2.25,0-4.49,0-6.74
			c-0.229,0-0.449,0-0.68,0c-1.07,0-2.12,0-3.18,0c-0.53,0-1.07,0-1.59,0c-0.301,0-0.601,0-0.9,0
			C132.258,177.82,131.958,177.82,131.658,177.82z"/>
		<path fill="#232034" d="M138.918,177.561c-2.43,0-4.84,0-7.26,0c0,0.08,0,0.17,0,0.26c0.3,0,0.6,0,0.91,0c0.3,0,0.6,0,0.9,0
			c0.52,0,1.06,0,1.59,0c1.06,0,2.109,0,3.18,0c0.23,0,0.45,0,0.68,0C138.918,177.73,138.918,177.65,138.918,177.561z"/>
		<path fill="#232034" d="M138.918,170.561c-2.43,0-4.84,0-7.26,0c0,0.09,0,0.17,0,0.26c0.3,0,0.6,0,0.91,0c0.3,0,0.6,0,0.9,0
			c0.52,0,1.06,0,1.59,0c1.06,0,2.109,0,3.18,0c0.23,0,0.45,0,0.68,0C138.918,170.73,138.918,170.65,138.918,170.561z"/>
		<path fill="#232034" d="M138.658,184.82c0,2.33,0,4.67,0,7c0.3,0,0.6,0,0.91,0c0.3,0,0.6,0,0.9,0c0.52,0,1.06,0,1.59,0
			c1.06,0,2.109,0,3.18,0c0.23,0,0.45,0,0.68,0c0-2.33,0-4.67,0-7c-0.09,0-0.17,0-0.26,0c0-0.09,0-0.17,0-0.26
			c-2.26,0-4.49,0-6.74,0c0,0.09,0,0.17,0,0.26C138.828,184.82,138.748,184.82,138.658,184.82z"/>
		<path fill="#232034" d="M138.658,184.561c0,0.09,0,0.17,0,0.26c0.09,0,0.17,0,0.26,0c0-0.09,0-0.17,0-0.26
			C138.828,184.561,138.748,184.561,138.658,184.561z"/>
		<path fill="#232034" d="M138.658,163.561c0,0.09,0,0.17,0,0.26c0.09,0,0.17,0,0.26,0c0-0.09,0-0.17,0-0.26
			C138.828,163.561,138.748,163.561,138.658,163.561z"/>
		<path fill="#232034" d="M138.658,156.561c0,2.33,0,4.67,0,7c0.09,0,0.17,0,0.26,0c0,0.09,0,0.17,0,0.26c0.21,0,0.431,0,0.65,0
			c0.3,0,0.6,0,0.9,0c0.52,0,1.06,0,1.59,0c1.06,0,2.109,0,3.18,0c0.14,0,0.28,0,0.42,0c0-2.42,0-4.84,0-7.26
			C143.318,156.561,140.988,156.561,138.658,156.561z"/>
		<path fill="#C3CAD1" d="M138.918,163.82c0,2.25,0,4.49,0,6.74c0,0.09,0,0.17,0,0.26c0,2.25,0,4.49,0,6.74c0,0.09,0,0.17,0,0.26
			c0,2.25,0,4.49,0,6.74c2.25,0,4.48,0,6.74,0c0-2.25,0-4.49,0-6.74c0-0.09,0-0.17,0-0.26c0-2.33,0-4.67,0-7c2.42,0,4.83,0,7.26,0
			c0,2.33,0,4.67,0,7c0,0.09,0,0.17,0,0.26c0,2.25,0,4.49,0,6.74c2.25,0,4.48,0,6.74,0c0-2.25,0-4.49,0-6.74c0-0.08,0-0.17,0-0.26
			c0-1.45,0-3.78,0-7c2.42,0,4.83,0,7.26,0c0,2.33,0,4.67,0,7c0,0.09,0,0.17,0,0.26c0,2.25,0,4.49,0,6.74c2.25,0,4.48,0,6.74,0
			c0-2.25,0-4.49,0-6.74c0-0.09,0-0.17,0-0.26c0-2.25,0-4.49,0-6.74c0-0.09,0-0.17,0-0.26c0-2.25,0-4.49,0-6.74
			c-0.14,0-0.28,0-0.42,0c-1.07,0-2.12,0-3.18,0c-0.53,0-1.07,0-1.59,0c-0.301,0-0.601,0-0.9,0c-0.22,0-0.44,0-0.65,0
			c-0.09,0-0.17,0-0.26,0c-0.14,0-0.28,0-0.42,0c-1.07,0-2.12,0-3.18,0c-0.53,0-1.07,0-1.59,0c-0.301,0-0.601,0-0.9,0
			c-0.22,0-0.44,0-0.65,0c-0.09,0-0.17,0-0.26,0c-0.14,0-0.28,0-0.42,0c-1.07,0-2.12,0-3.18,0c-0.53,0-1.07,0-1.59,0
			c-0.301,0-0.601,0-0.9,0c-0.22,0-0.44,0-0.65,0c-0.09,0-0.17,0-0.26,0c-0.14,0-0.28,0-0.42,0c-1.07,0-2.12,0-3.18,0
			c-0.53,0-1.07,0-1.59,0c-0.301,0-0.601,0-0.9,0c-0.22,0-0.44,0-0.65,0c-0.09,0-0.17,0-0.26,0c-0.14,0-0.28,0-0.42,0
			c-1.07,0-2.12,0-3.18,0c-0.53,0-1.07,0-1.59,0c-0.301,0-0.601,0-0.9,0C139.349,163.82,139.128,163.82,138.918,163.82z"/>
		<path fill="#232034" d="M145.658,184.561c0,0.09,0,0.17,0,0.26c0.09,0,0.17,0,0.26,0c0-0.09,0-0.17,0-0.26
			C145.828,184.561,145.748,184.561,145.658,184.561z"/>
		<path fill="#232034" d="M145.658,170.561c0,2.33,0,4.67,0,7c2.42,0,4.83,0,7.26,0c0-2.33,0-4.67,0-7
			C150.488,170.561,148.078,170.561,145.658,170.561z"/>
		<path fill="#232034" d="M145.658,156.561c0,2.42,0,4.84,0,7.26c0.09,0,0.17,0,0.26,0c0-2.42,0-4.84,0-7.26
			C145.828,156.561,145.748,156.561,145.658,156.561z"/>
		<path fill="#232034" d="M145.658,177.82c0,2.25,0,4.49,0,6.74c0.09,0,0.17,0,0.26,0c0,0.09,0,0.17,0,0.26c0.21,0,0.431,0,0.65,0
			c0.3,0,0.6,0,0.9,0c0.52,0,1.06,0,1.59,0c1.06,0,2.109,0,3.18,0c0.14,0,0.28,0,0.42,0c0-0.09,0-0.17,0-0.26c0.09,0,0.17,0,0.26,0
			c0-2.25,0-4.49,0-6.74c-0.229,0-0.449,0-0.68,0c-1.07,0-2.12,0-3.18,0c-0.53,0-1.07,0-1.59,0c-0.301,0-0.601,0-0.9,0
			C146.258,177.82,145.958,177.82,145.658,177.82z"/>
		<path fill="#232034" d="M145.918,156.561c0,2.42,0,4.84,0,7.26c0.21,0,0.431,0,0.65,0c0.3,0,0.6,0,0.9,0c0.52,0,1.06,0,1.59,0
			c1.06,0,2.109,0,3.18,0c0.14,0,0.28,0,0.42,0c0-2.42,0-4.84,0-7.26C150.398,156.561,148.168,156.561,145.918,156.561z"/>
		<path fill="#232034" d="M152.918,177.561c-2.43,0-4.84,0-7.26,0c0,0.09,0,0.17,0,0.26c0.3,0,0.6,0,0.91,0c0.3,0,0.6,0,0.9,0
			c0.52,0,1.06,0,1.59,0c1.06,0,2.109,0,3.18,0c0.23,0,0.45,0,0.68,0C152.918,177.73,152.918,177.65,152.918,177.561z"/>
		<path fill="#232034" d="M152.658,184.82c0,2.33,0,4.67,0,7c0.3,0,0.6,0,0.91,0c0.3,0,0.6,0,0.9,0c0.52,0,1.06,0,1.59,0
			c1.06,0,2.109,0,3.18,0c0.23,0,0.45,0,0.68,0c0-2.33,0-4.67,0-7c-0.09,0-0.17,0-0.26,0c0-0.09,0-0.17,0-0.26
			c-2.26,0-4.49,0-6.74,0c0,0.09,0,0.17,0,0.26C152.828,184.82,152.748,184.82,152.658,184.82z"/>
		<path fill="#232034" d="M152.658,184.561c0,0.09,0,0.17,0,0.26c0.09,0,0.17,0,0.26,0c0-0.09,0-0.17,0-0.26
			C152.828,184.561,152.748,184.561,152.658,184.561z"/>
		<path fill="#232034" d="M152.658,156.561c0,2.42,0,4.84,0,7.26c0.09,0,0.17,0,0.26,0c0-2.42,0-4.84,0-7.26
			C152.828,156.561,152.748,156.561,152.658,156.561z"/>
		<path fill="#232034" d="M152.918,156.561c0,2.42,0,4.84,0,7.26c0.21,0,0.431,0,0.65,0c0.3,0,0.6,0,0.9,0c0.52,0,1.06,0,1.59,0
			c1.06,0,2.109,0,3.18,0c0.14,0,0.28,0,0.42,0c0-2.42,0-4.84,0-7.26C157.398,156.561,155.168,156.561,152.918,156.561z"/>
		<path fill="#232034" d="M159.658,184.561c0,0.09,0,0.17,0,0.26c0.09,0,0.17,0,0.26,0c0-0.09,0-0.17,0-0.26
			C159.828,184.561,159.748,184.561,159.658,184.561z"/>
		<path fill="#232034" d="M159.658,170.561c0,3.22,0,5.55,0,7c2.42,0,4.83,0,7.26,0c0-2.33,0-4.67,0-7
			C164.488,170.561,162.078,170.561,159.658,170.561z"/>
		<path fill="#232034" d="M159.658,156.561c0,2.42,0,4.84,0,7.26c0.09,0,0.17,0,0.26,0c0-2.42,0-4.84,0-7.26
			C159.828,156.561,159.748,156.561,159.658,156.561z"/>
		<path fill="#232034" d="M159.658,177.82c0,2.25,0,4.49,0,6.74c0.09,0,0.17,0,0.26,0c0,0.09,0,0.17,0,0.26c0.21,0,0.431,0,0.65,0
			c0.3,0,0.6,0,0.9,0c0.52,0,1.06,0,1.59,0c1.06,0,2.109,0,3.18,0c0.14,0,0.28,0,0.42,0c0-0.09,0-0.17,0-0.26c0.09,0,0.17,0,0.26,0
			c0-2.25,0-4.49,0-6.74c-0.229,0-0.449,0-0.68,0c-1.07,0-2.12,0-3.18,0c-0.53,0-1.07,0-1.59,0c-0.301,0-0.601,0-0.9,0
			C160.258,177.82,159.958,177.82,159.658,177.82z"/>
		<path fill="#232034" d="M159.918,156.561c0,2.42,0,4.84,0,7.26c0.21,0,0.431,0,0.65,0c0.3,0,0.6,0,0.9,0c0.52,0,1.06,0,1.59,0
			c1.06,0,2.109,0,3.18,0c0.14,0,0.28,0,0.42,0c0-2.42,0-4.84,0-7.26C164.398,156.561,162.168,156.561,159.918,156.561z"/>
		<path fill="#232034" d="M166.918,177.561c-2.43,0-4.84,0-7.26,0c0,0.09,0,0.18,0,0.26c0.3,0,0.6,0,0.91,0c0.3,0,0.6,0,0.9,0
			c0.52,0,1.06,0,1.59,0c1.06,0,2.109,0,3.18,0c0.23,0,0.45,0,0.68,0C166.918,177.73,166.918,177.65,166.918,177.561z"/>
		<path fill="#232034" d="M166.658,184.82c0,2.33,0,4.67,0,7c0.3,0,0.6,0,0.91,0c0.3,0,0.6,0,0.9,0c0.52,0,1.06,0,1.59,0
			c1.06,0,2.109,0,3.18,0c0.23,0,0.45,0,0.68,0c0-2.33,0-4.67,0-7c-0.09,0-0.17,0-0.26,0c0-0.09,0-0.17,0-0.26
			c-2.26,0-4.49,0-6.74,0c0,0.09,0,0.17,0,0.26C166.828,184.82,166.748,184.82,166.658,184.82z"/>
		<path fill="#232034" d="M166.658,184.561c0,0.09,0,0.17,0,0.26c0.09,0,0.17,0,0.26,0c0-0.09,0-0.17,0-0.26
			C166.828,184.561,166.748,184.561,166.658,184.561z"/>
		<path fill="#232034" d="M166.658,156.561c0,2.42,0,4.84,0,7.26c0.09,0,0.17,0,0.26,0c0-2.42,0-4.84,0-7.26
			C166.828,156.561,166.748,156.561,166.658,156.561z"/>
		<path fill="#232034" d="M166.918,156.561c0,2.42,0,4.84,0,7.26c0.21,0,0.431,0,0.65,0c0.3,0,0.6,0,0.9,0c0.52,0,1.06,0,1.59,0
			c1.06,0,2.109,0,3.18,0c0.14,0,0.28,0,0.42,0c0-0.09,0-0.17,0-0.26c0.09,0,0.17,0,0.26,0c0-2.33,0-4.67,0-7
			C171.578,156.561,169.248,156.561,166.918,156.561z"/>
		<path fill="#232034" d="M173.658,184.561c0,0.09,0,0.17,0,0.26c0.09,0,0.17,0,0.26,0c0-0.09,0-0.17,0-0.26
			C173.828,184.561,173.748,184.561,173.658,184.561z"/>
		<path fill="#232034" d="M173.658,163.82c0,2.25,0,4.49,0,6.74c2.42,0,4.83,0,7.26,0c0-2.33,0-4.67,0-7c-2.34,0-4.67,0-7,0
			c0,0.09,0,0.17,0,0.26C173.828,163.82,173.748,163.82,173.658,163.82z"/>
		<path fill="#232034" d="M173.658,163.561c0,0.09,0,0.17,0,0.26c0.09,0,0.17,0,0.26,0c0-0.09,0-0.17,0-0.26
			C173.828,163.561,173.748,163.561,173.658,163.561z"/>
		<path fill="#232034" d="M173.658,170.82c0,2.25,0,4.49,0,6.74c2.42,0,4.83,0,7.26,0c0-2.25,0-4.49,0-6.74c-0.229,0-0.449,0-0.68,0
			c-1.07,0-2.12,0-3.18,0c-0.53,0-1.07,0-1.59,0c-0.301,0-0.601,0-0.9,0C174.258,170.82,173.958,170.82,173.658,170.82z"/>
		<path fill="#232034" d="M173.658,177.82c0,2.25,0,4.49,0,6.74c0.09,0,0.17,0,0.26,0c0,0.09,0,0.17,0,0.26c0.21,0,0.431,0,0.65,0
			c0.3,0,0.6,0,0.9,0c0.52,0,1.06,0,1.59,0c1.06,0,2.109,0,3.18,0c0.23,0,0.45,0,0.68,0c0-2.33,0-4.67,0-7c-0.229,0-0.449,0-0.68,0
			c-1.07,0-2.12,0-3.18,0c-0.53,0-1.07,0-1.59,0c-0.301,0-0.601,0-0.9,0C174.258,177.82,173.958,177.82,173.658,177.82z"/>
		<path fill="#232034" d="M175.469,177.82c0.52,0,1.06,0,1.59,0c1.06,0,2.109,0,3.18,0c0.23,0,0.45,0,0.68,0c0-0.09,0-0.17,0-0.26
			c-2.43,0-4.84,0-7.26,0c0,0.09,0,0.17,0,0.26c0.3,0,0.6,0,0.91,0C174.868,177.82,175.168,177.82,175.469,177.82z"/>
		<path fill="#232034" d="M177.059,170.82c1.06,0,2.109,0,3.18,0c0.23,0,0.45,0,0.68,0c0-0.09,0-0.17,0-0.26c-2.43,0-4.84,0-7.26,0
			c0,0.09,0,0.17,0,0.26c0.3,0,0.6,0,0.91,0c0.3,0,0.6,0,0.9,0C175.988,170.82,176.528,170.82,177.059,170.82z"/>
	</g>
	<g>
	</g>
</g>
<g id="XMLID_1_">
	<g>
		<path fill="#232034" d="M15.295,163.561c0,2.33,0,4.67,0,7c2.42,0,4.83,0,7.26,0c0-2.25,0-4.49,0-6.74c-0.09,0-0.17,0-0.26,0
			c0-0.09,0-0.17,0-0.26C19.955,163.561,17.625,163.561,15.295,163.561z"/>
		<path fill="#232034" d="M15.295,170.82c0,2.25,0,4.49,0,6.74c2.42,0,4.83,0,7.26,0c0-2.25,0-4.49,0-6.74c-0.23,0-0.45,0-0.68,0
			c-1.07,0-2.12,0-3.18,0c-0.53,0-1.07,0-1.59,0c-0.3,0-0.6,0-0.9,0C15.895,170.82,15.595,170.82,15.295,170.82z"/>
		<path fill="#232034" d="M15.295,177.82c0,1.45,0,3.78,0,7c0.3,0,0.6,0,0.91,0c0.3,0,0.6,0,0.9,0c0.52,0,1.06,0,1.59,0
			c1.06,0,2.11,0,3.18,0c0.14,0,0.28,0,0.42,0c0-0.09,0-0.17,0-0.26c0.09,0,0.17,0,0.26,0c0-2.25,0-4.49,0-6.74
			c-0.23,0-0.45,0-0.68,0c-1.07,0-2.12,0-3.18,0c-0.53,0-1.07,0-1.59,0c-0.3,0-0.6,0-0.9,0
			C15.895,177.82,15.595,177.82,15.295,177.82z"/>
		<path fill="#232034" d="M22.555,177.561c-2.43,0-4.84,0-7.26,0c0,0.08,0,0.17,0,0.26c0.3,0,0.6,0,0.91,0c0.3,0,0.6,0,0.9,0
			c0.52,0,1.06,0,1.59,0c1.06,0,2.11,0,3.18,0c0.23,0,0.45,0,0.68,0C22.555,177.73,22.555,177.65,22.555,177.561z"/>
		<path fill="#232034" d="M22.555,170.561c-2.43,0-4.84,0-7.26,0c0,0.09,0,0.17,0,0.26c0.3,0,0.6,0,0.91,0c0.3,0,0.6,0,0.9,0
			c0.52,0,1.06,0,1.59,0c1.06,0,2.11,0,3.18,0c0.23,0,0.45,0,0.68,0C22.555,170.73,22.555,170.65,22.555,170.561z"/>
		<path fill="#232034" d="M22.295,184.82c0,2.33,0,4.67,0,7c0.3,0,0.6,0,0.91,0c0.3,0,0.6,0,0.9,0c0.52,0,1.06,0,1.59,0
			c1.06,0,2.11,0,3.18,0c0.23,0,0.45,0,0.68,0c0-2.33,0-4.67,0-7c-0.09,0-0.17,0-0.26,0c0-0.09,0-0.17,0-0.26c-2.26,0-4.49,0-6.74,0
			c0,0.09,0,0.17,0,0.26C22.465,184.82,22.385,184.82,22.295,184.82z"/>
		<path fill="#232034" d="M22.295,184.561c0,0.09,0,0.17,0,0.26c0.09,0,0.17,0,0.26,0c0-0.09,0-0.17,0-0.26
			C22.465,184.561,22.385,184.561,22.295,184.561z"/>
		<path fill="#232034" d="M22.295,163.561c0,0.09,0,0.17,0,0.26c0.09,0,0.17,0,0.26,0c0-0.09,0-0.17,0-0.26
			C22.465,163.561,22.385,163.561,22.295,163.561z"/>
		<path fill="#232034" d="M22.295,156.561c0,2.33,0,4.67,0,7c0.09,0,0.17,0,0.26,0c0,0.09,0,0.17,0,0.26c0.21,0,0.43,0,0.65,0
			c0.3,0,0.6,0,0.9,0c0.52,0,1.06,0,1.59,0c1.06,0,2.11,0,3.18,0c0.14,0,0.28,0,0.42,0c0-2.42,0-4.84,0-7.26
			C26.955,156.561,24.625,156.561,22.295,156.561z"/>
		<path fill="#C3CAD1" d="M22.555,163.82c0,2.25,0,4.49,0,6.74c0,0.09,0,0.17,0,0.26c0,2.25,0,4.49,0,6.74c0,0.09,0,0.17,0,0.26
			c0,2.25,0,4.49,0,6.74c2.25,0,4.48,0,6.74,0c0-2.25,0-4.49,0-6.74c0-0.09,0-0.17,0-0.26c0-2.33,0-4.67,0-7c2.42,0,4.83,0,7.26,0
			c0,2.33,0,4.67,0,7c0,0.09,0,0.17,0,0.26c0,2.25,0,4.49,0,6.74c2.25,0,4.48,0,6.74,0c0-2.25,0-4.49,0-6.74c0-0.08,0-0.17,0-0.26
			c0-1.45,0-3.78,0-7c2.42,0,4.83,0,7.26,0c0,2.33,0,4.67,0,7c0,0.09,0,0.17,0,0.26c0,2.25,0,4.49,0,6.74c2.25,0,4.48,0,6.74,0
			c0-2.25,0-4.49,0-6.74c0-0.09,0-0.17,0-0.26c0-2.25,0-4.49,0-6.74c0-0.09,0-0.17,0-0.26c0-2.25,0-4.49,0-6.74
			c-0.14,0-0.28,0-0.42,0c-1.07,0-2.12,0-3.18,0c-0.53,0-1.07,0-1.59,0c-0.3,0-0.6,0-0.9,0c-0.22,0-0.44,0-0.65,0
			c-0.09,0-0.17,0-0.26,0c-0.14,0-0.28,0-0.42,0c-1.07,0-2.12,0-3.18,0c-0.53,0-1.07,0-1.59,0c-0.3,0-0.6,0-0.9,0
			c-0.22,0-0.44,0-0.65,0c-0.09,0-0.17,0-0.26,0c-0.14,0-0.28,0-0.42,0c-1.07,0-2.12,0-3.18,0c-0.53,0-1.07,0-1.59,0
			c-0.3,0-0.6,0-0.9,0c-0.22,0-0.44,0-0.65,0c-0.09,0-0.17,0-0.26,0c-0.14,0-0.28,0-0.42,0c-1.07,0-2.12,0-3.18,0
			c-0.53,0-1.07,0-1.59,0c-0.3,0-0.6,0-0.9,0c-0.22,0-0.44,0-0.65,0c-0.09,0-0.17,0-0.26,0c-0.14,0-0.28,0-0.42,0
			c-1.07,0-2.12,0-3.18,0c-0.53,0-1.07,0-1.59,0c-0.3,0-0.6,0-0.9,0C22.985,163.82,22.765,163.82,22.555,163.82z"/>
		<path fill="#232034" d="M29.295,184.561c0,0.09,0,0.17,0,0.26c0.09,0,0.17,0,0.26,0c0-0.09,0-0.17,0-0.26
			C29.465,184.561,29.385,184.561,29.295,184.561z"/>
		<path fill="#232034" d="M29.295,170.561c0,2.33,0,4.67,0,7c2.42,0,4.83,0,7.26,0c0-2.33,0-4.67,0-7
			C34.125,170.561,31.715,170.561,29.295,170.561z"/>
		<path fill="#232034" d="M29.295,156.561c0,2.42,0,4.84,0,7.26c0.09,0,0.17,0,0.26,0c0-2.42,0-4.84,0-7.26
			C29.465,156.561,29.385,156.561,29.295,156.561z"/>
		<path fill="#232034" d="M29.295,177.82c0,2.25,0,4.49,0,6.74c0.09,0,0.17,0,0.26,0c0,0.09,0,0.17,0,0.26c0.21,0,0.43,0,0.65,0
			c0.3,0,0.6,0,0.9,0c0.52,0,1.06,0,1.59,0c1.06,0,2.11,0,3.18,0c0.14,0,0.28,0,0.42,0c0-0.09,0-0.17,0-0.26c0.09,0,0.17,0,0.26,0
			c0-2.25,0-4.49,0-6.74c-0.23,0-0.45,0-0.68,0c-1.07,0-2.12,0-3.18,0c-0.53,0-1.07,0-1.59,0c-0.3,0-0.6,0-0.9,0
			C29.895,177.82,29.595,177.82,29.295,177.82z"/>
		<path fill="#232034" d="M29.555,156.561c0,2.42,0,4.84,0,7.26c0.21,0,0.43,0,0.65,0c0.3,0,0.6,0,0.9,0c0.52,0,1.06,0,1.59,0
			c1.06,0,2.11,0,3.18,0c0.14,0,0.28,0,0.42,0c0-2.42,0-4.84,0-7.26C34.035,156.561,31.805,156.561,29.555,156.561z"/>
		<path fill="#232034" d="M36.555,177.561c-2.43,0-4.84,0-7.26,0c0,0.09,0,0.17,0,0.26c0.3,0,0.6,0,0.91,0c0.3,0,0.6,0,0.9,0
			c0.52,0,1.06,0,1.59,0c1.06,0,2.11,0,3.18,0c0.23,0,0.45,0,0.68,0C36.555,177.73,36.555,177.65,36.555,177.561z"/>
		<path fill="#232034" d="M36.295,184.82c0,2.33,0,4.67,0,7c0.3,0,0.6,0,0.91,0c0.3,0,0.6,0,0.9,0c0.52,0,1.06,0,1.59,0
			c1.06,0,2.11,0,3.18,0c0.23,0,0.45,0,0.68,0c0-2.33,0-4.67,0-7c-0.09,0-0.17,0-0.26,0c0-0.09,0-0.17,0-0.26c-2.26,0-4.49,0-6.74,0
			c0,0.09,0,0.17,0,0.26C36.465,184.82,36.385,184.82,36.295,184.82z"/>
		<path fill="#232034" d="M36.295,184.561c0,0.09,0,0.17,0,0.26c0.09,0,0.17,0,0.26,0c0-0.09,0-0.17,0-0.26
			C36.465,184.561,36.385,184.561,36.295,184.561z"/>
		<path fill="#232034" d="M36.295,156.561c0,2.42,0,4.84,0,7.26c0.09,0,0.17,0,0.26,0c0-2.42,0-4.84,0-7.26
			C36.465,156.561,36.385,156.561,36.295,156.561z"/>
		<path fill="#232034" d="M36.555,156.561c0,2.42,0,4.84,0,7.26c0.21,0,0.43,0,0.65,0c0.3,0,0.6,0,0.9,0c0.52,0,1.06,0,1.59,0
			c1.06,0,2.11,0,3.18,0c0.14,0,0.28,0,0.42,0c0-2.42,0-4.84,0-7.26C41.035,156.561,38.805,156.561,36.555,156.561z"/>
		<path fill="#232034" d="M43.295,184.561c0,0.09,0,0.17,0,0.26c0.09,0,0.17,0,0.26,0c0-0.09,0-0.17,0-0.26
			C43.465,184.561,43.385,184.561,43.295,184.561z"/>
		<path fill="#232034" d="M43.295,170.561c0,3.22,0,5.55,0,7c2.42,0,4.83,0,7.26,0c0-2.33,0-4.67,0-7
			C48.125,170.561,45.715,170.561,43.295,170.561z"/>
		<path fill="#232034" d="M43.295,156.561c0,2.42,0,4.84,0,7.26c0.09,0,0.17,0,0.26,0c0-2.42,0-4.84,0-7.26
			C43.465,156.561,43.385,156.561,43.295,156.561z"/>
		<path fill="#232034" d="M43.295,177.82c0,2.25,0,4.49,0,6.74c0.09,0,0.17,0,0.26,0c0,0.09,0,0.17,0,0.26c0.21,0,0.43,0,0.65,0
			c0.3,0,0.6,0,0.9,0c0.52,0,1.06,0,1.59,0c1.06,0,2.11,0,3.18,0c0.14,0,0.28,0,0.42,0c0-0.09,0-0.17,0-0.26c0.09,0,0.17,0,0.26,0
			c0-2.25,0-4.49,0-6.74c-0.23,0-0.45,0-0.68,0c-1.07,0-2.12,0-3.18,0c-0.53,0-1.07,0-1.59,0c-0.3,0-0.6,0-0.9,0
			C43.895,177.82,43.595,177.82,43.295,177.82z"/>
		<path fill="#232034" d="M43.555,156.561c0,2.42,0,4.84,0,7.26c0.21,0,0.43,0,0.65,0c0.3,0,0.6,0,0.9,0c0.52,0,1.06,0,1.59,0
			c1.06,0,2.11,0,3.18,0c0.14,0,0.28,0,0.42,0c0-2.42,0-4.84,0-7.26C48.035,156.561,45.805,156.561,43.555,156.561z"/>
		<path fill="#232034" d="M50.555,177.561c-2.43,0-4.84,0-7.26,0c0,0.09,0,0.18,0,0.26c0.3,0,0.6,0,0.91,0c0.3,0,0.6,0,0.9,0
			c0.52,0,1.06,0,1.59,0c1.06,0,2.11,0,3.18,0c0.23,0,0.45,0,0.68,0C50.555,177.73,50.555,177.65,50.555,177.561z"/>
		<path fill="#232034" d="M50.295,184.82c0,2.33,0,4.67,0,7c0.3,0,0.6,0,0.91,0c0.3,0,0.6,0,0.9,0c0.52,0,1.06,0,1.59,0
			c1.06,0,2.11,0,3.18,0c0.23,0,0.45,0,0.68,0c0-2.33,0-4.67,0-7c-0.09,0-0.17,0-0.26,0c0-0.09,0-0.17,0-0.26c-2.26,0-4.49,0-6.74,0
			c0,0.09,0,0.17,0,0.26C50.465,184.82,50.385,184.82,50.295,184.82z"/>
		<path fill="#232034" d="M50.295,184.561c0,0.09,0,0.17,0,0.26c0.09,0,0.17,0,0.26,0c0-0.09,0-0.17,0-0.26
			C50.465,184.561,50.385,184.561,50.295,184.561z"/>
		<path fill="#232034" d="M50.295,156.561c0,2.42,0,4.84,0,7.26c0.09,0,0.17,0,0.26,0c0-2.42,0-4.84,0-7.26
			C50.465,156.561,50.385,156.561,50.295,156.561z"/>
		<path fill="#232034" d="M50.555,156.561c0,2.42,0,4.84,0,7.26c0.21,0,0.43,0,0.65,0c0.3,0,0.6,0,0.9,0c0.52,0,1.06,0,1.59,0
			c1.06,0,2.11,0,3.18,0c0.14,0,0.28,0,0.42,0c0-0.09,0-0.17,0-0.26c0.09,0,0.17,0,0.26,0c0-2.33,0-4.67,0-7
			C55.215,156.561,52.885,156.561,50.555,156.561z"/>
		<path fill="#232034" d="M57.295,184.561c0,0.09,0,0.17,0,0.26c0.09,0,0.17,0,0.26,0c0-0.09,0-0.17,0-0.26
			C57.465,184.561,57.385,184.561,57.295,184.561z"/>
		<path fill="#232034" d="M57.295,163.82c0,2.25,0,4.49,0,6.74c2.42,0,4.83,0,7.26,0c0-2.33,0-4.67,0-7c-2.34,0-4.67,0-7,0
			c0,0.09,0,0.17,0,0.26C57.465,163.82,57.385,163.82,57.295,163.82z"/>
		<path fill="#232034" d="M57.295,163.561c0,0.09,0,0.17,0,0.26c0.09,0,0.17,0,0.26,0c0-0.09,0-0.17,0-0.26
			C57.465,163.561,57.385,163.561,57.295,163.561z"/>
		<path fill="#232034" d="M57.295,170.82c0,2.25,0,4.49,0,6.74c2.42,0,4.83,0,7.26,0c0-2.25,0-4.49,0-6.74c-0.23,0-0.45,0-0.68,0
			c-1.07,0-2.12,0-3.18,0c-0.53,0-1.07,0-1.59,0c-0.3,0-0.6,0-0.9,0C57.895,170.82,57.595,170.82,57.295,170.82z"/>
		<path fill="#232034" d="M57.295,177.82c0,2.25,0,4.49,0,6.74c0.09,0,0.17,0,0.26,0c0,0.09,0,0.17,0,0.26c0.21,0,0.43,0,0.65,0
			c0.3,0,0.6,0,0.9,0c0.52,0,1.06,0,1.59,0c1.06,0,2.11,0,3.18,0c0.23,0,0.45,0,0.68,0c0-2.33,0-4.67,0-7c-0.23,0-0.45,0-0.68,0
			c-1.07,0-2.12,0-3.18,0c-0.53,0-1.07,0-1.59,0c-0.3,0-0.6,0-0.9,0C57.895,177.82,57.595,177.82,57.295,177.82z"/>
		<path fill="#232034" d="M64.555,177.561c-2.43,0-4.84,0-7.26,0c0,0.09,0,0.17,0,0.26c0.3,0,0.6,0,0.91,0c0.3,0,0.6,0,0.9,0
			c0.52,0,1.06,0,1.59,0c1.06,0,2.11,0,3.18,0c0.23,0,0.45,0,0.68,0C64.555,177.73,64.555,177.65,64.555,177.561z"/>
		<path fill="#232034" d="M64.555,170.561c-2.43,0-4.84,0-7.26,0c0,0.09,0,0.17,0,0.26c0.3,0,0.6,0,0.91,0c0.3,0,0.6,0,0.9,0
			c0.52,0,1.06,0,1.59,0c1.06,0,2.11,0,3.18,0c0.23,0,0.45,0,0.68,0C64.555,170.73,64.555,170.65,64.555,170.561z"/>
	</g>
	<g>
	</g>
</g>
</svg>
