<?xml version="1.0" encoding="utf-8"?>
<!-- Generator: Adobe Illustrator 15.0.0, SVG Export Plug-In  -->
<!DOCTYPE svg PUBLIC "-//W3C//DTD SVG 1.1//EN" "http://www.w3.org/Graphics/SVG/1.1/DTD/svg11.dtd" [
	<!ENTITY ns_flows "http://ns.adobe.com/Flows/1.0/">
]>
<svg version="1.1"
	 xmlns="http://www.w3.org/2000/svg" xmlns:xlink="http://www.w3.org/1999/xlink" xmlns:a="http://ns.adobe.com/AdobeSVGViewerExtensions/3.0/"
	 x="0px" y="0px" width="300px" height="300px" viewBox="-48.328 -48.148 300 300" enable-background="new -48.328 -48.148 300 300"
	 xml:space="preserve">
<defs>
</defs>
<path fill="#73CEE0" d="M0.3,58.302c0,4.839,0,9.679,0,14.519c2.419,0,4.839,0,7.259,0c0,0.227,0,0.454,0,0.681
	c0,1.134,0,2.268,0,3.402c0,0.529,0,1.059,0,1.588c0,0.605,0,1.21,0,1.815c0,0.529,0,1.058,0,1.587c0,0.605,0.012,1.21,0,1.815
	c0,1.209,0.012,2.42,0,3.63c2.433,0,4.853,0,7.272,0c0-2.42,0-4.84,0-7.26c2.42,0,4.839,0,7.259,0c0-9.679,0-19.358,0-29.037
	c2.42,0,4.84,0,7.247,0c0-2.42,0-4.839,0-7.259c2.42,0,4.839,0,7.259,0c0-1.21,0-2.42,0-3.63c0-1.209,0-2.419,0-3.629
	s0-2.42,0-3.629c0-0.605,0-1.21,0-1.815s0-1.21,0-1.814c0-0.076,0-0.151,0-0.228c2.432,0,4.853,0,7.272,0c0-2.419,0-4.839,0-7.259
	c0.227,0,0.44,0,0.681,0c1.802,0,3.63,0,5.432,0c1.739,0,3.491,0,5.23,0c1.802,0,3.63,0,5.432,0c1.738,0,3.491,0,5.23,0
	c1.802,0,3.63,0,5.432,0c1.751,0,3.491,0,5.23,0c3.478,0,6.943,0,10.422,0c0.24,0,0.467,0,0.681,0c0-2.42,0-4.84,0-7.26
	c4.853,0,9.692,0,14.531,0c0-2.419,0-4.839,0-7.259c-3.629,0-7.259,0-10.889,0c-3.643,0-7.272,0-10.901,0c0-2.42,0-4.84,0-7.26
	c-0.518,0-1.046,0-1.575,0c-0.618,0-1.21,0-1.828,0c-1.21,0-2.42,0-3.63,0c-0.528,0-1.046,0-1.575,0c-0.605,0-1.21,0-1.827,0
	c-1.21,0-2.42,0-3.63,0c-0.214,0-0.44,0-0.681,0c0,2.42,0,4.84,0,7.26c-2.42,0-4.839,0-7.259,0c0,2.419,0,4.839,0,7.259
	c-0.151,0-0.303,0-0.441,0c-1.752,0-3.491,0-5.23,0c-1.802,0-3.617,0-5.444,0c-1.739,0-3.479,0-5.205,0c-0.227,0-0.466,0-0.692,0
	c-0.215,0-0.442,0-0.681,0c-0.441,0-0.896,0-1.361,0c-0.215,0-0.44,0-0.681,0c-0.215,0-0.44,0-0.681,0c-0.44,0-0.895,0-1.361,0
	c0,2.42,0,4.839,0,7.26c-0.214,0-0.44,0-0.681,0c-4.6,0-9.212,0-13.825,0c0,1.21,0,2.42,0,3.629c0,1.21,0,2.42,0,3.629
	c0,1.21,0,2.42,0,3.63c0,0.604,0,1.209,0,1.814c0,0.681,0,1.361,0,2.042c-2.42,0-4.839,0-7.259,0c0,2.42,0,4.84,0,7.26
	c-2.42,0-4.84,0-7.272,0c0,4.839,0,9.679,0,14.519c-0.227,0-0.44,0-0.669,0c-0.238,0-0.452,0-0.679,0c-0.24,0-0.454,0-0.681,0
	c-0.53,0-1.072,0-1.602,0c-0.214,0-0.44,0-0.681,0c-0.214,0-0.44,0-0.681,0c-0.214,0-0.44,0-0.681,0c-0.289,0-0.592,0-0.906,0
	C0.766,58.302,0.539,58.302,0.3,58.302z"/>
<path fill="#98D8DF" d="M43.868,21.778c0,2.42,0,4.839,0,7.259c-2.42,0-4.841,0-7.272,0c0,0.076,0,0.151,0,0.228
	c0,0.604,0,1.209,0,1.814s0,1.21,0,1.815c0,1.209,0,2.419,0,3.629s0,2.42,0,3.629c0,1.21,0,2.42,0,3.63c-2.42,0-4.839,0-7.259,0
	c0,2.419,0,4.839,0,7.259c-2.407,0-4.827,0-7.247,0c0,9.679,0,19.358,0,29.037c-2.42,0-4.839,0-7.259,0c0,2.42,0,4.839,0,7.26
	c2.42,0,4.839,0,7.259,0c0,2.42,0,4.839,0,7.259c2.42,0,4.84,0,7.247,0c0,2.42,0,4.84,0,7.26c2.42,0,4.839,0,7.259,0
	c0,2.42,0,4.84,0,7.26c2.432,0,4.853,0,7.272,0c0-0.908,0-1.815,0-2.723c0-0.454,0-0.907,0-1.361c0-0.453,0-0.907,0-1.361
	c0-0.453,0-0.907,0-1.361s0-0.908,0-1.361s0-0.908,0-1.361c0-0.227,0-0.454,0-0.681c0-0.227,0-0.454,0-0.681
	c0-0.454,0-0.907,0-1.361c0-0.227,0-0.454,0-0.68c0-0.227,0-0.454,0-0.68c0-0.455,0-0.908,0-1.361c0-0.227,0-0.454,0-0.681
	s0-0.454,0-0.681c0-0.454,0-0.908,0-1.361c0-0.227,0-0.454,0-0.681c0-0.227,0-0.453,0-0.681c0-0.453,0-0.907,0-1.361
	c0-0.227,0-0.454,0-0.68c0-0.227,0-0.454,0-0.681c2.42,0,4.84,0,7.259,0c0-2.42,0-4.84,0-7.26c-2.419,0-4.839,0-7.259,0
	c0-4.839,0-9.679,0-14.519c2.42,0,4.84,0,7.259,0c0-2.419,0-4.839,0-7.259c2.42,0,4.84,0,7.247,0c0-4.84,0-9.68,0-14.519
	c0.227,0,0.467,0,0.692,0c1.047,0,2.105,0,3.177,0c0.529,0,1.059,0,1.588,0s1.059,0,1.588,0c0.063,0,0.151,0,0.214,0
	c0,0.227,0,0.453,0,0.681c0,0.907,0,1.814,0,2.722c0,0.227,0,0.454,0,0.681c0,0.227,0,0.454,0,0.681s0,0.453,0,0.681
	c0,0.227,0,0.453,0,0.68s0,0.454,0,0.681s0,0.454,0,0.681c0,0.227,0,0.454,0,0.681c0,0.227,0,0.454,0,0.681c0,0.454,0,0.907,0,1.361
	c0,0.226,0,0.454,0,0.68c0,0.151,0,0.303,0,0.455c0,0.226,0,0.453,0,0.68c0,0.227,0,0.454,0,0.681c0,0.227,0,0.454,0,0.68
	c0,0.227,0,0.454,0,0.681c0,0.454,0,0.908,0,1.361c0,0.227,0,0.454,0,0.68c0,0.151,0,0.303,0,0.454c0,0.227,0,0.454,0,0.681
	c0,0.227,0,0.454,0,0.681c0,0.227,0,0.454,0,0.681c0,0.227,0,0.454,0,0.681c0,0.454,0,0.908,0,1.361c0,0.227,0,0.453,0,0.68
	c0,0.151,0,0.302,0,0.454c0.681,0,1.361,0,2.042,0c0.618,0,1.21,0,1.828,0c1.209,0,2.419,0,3.629,0c0-2.419,0-4.839,0-7.259
	c2.42,0,4.84,0,7.247,0c0-2.42,0-4.84,0-7.26c-2.407,0-4.827,0-7.247,0c0-2.42,0-4.839,0-7.259c2.42,0,4.84,0,7.247,0
	c0,2.419,0,4.839,0,7.259c2.419,0,4.839,0,7.259,0c0,2.42,0,4.84,0,7.26c4.853,0,9.692,0,14.531,0c0-4.84,0-9.68,0-14.519
	c4.84,0,9.667,0,14.506,0c0,2.419,0,4.839,0,7.259c2.42,0,4.854,0,7.272,0c0-2.42,0-4.839,0-7.259c2.42,0,4.84,0,7.259,0
	c0,0.227,0,0.453,0,0.681c0,2.192,0,4.386,0,6.578c-2.419,0-4.839,0-7.259,0c0,4.84,0,9.679,0,14.519c7.259,0,14.519,0,21.765,0
	c0-2.419,0-4.839,0-7.259c2.42,0,4.852,0,7.272,0c0,2.419,0,4.839,0,7.259c4.902,0,9.83,0,14.732,0c0,2.42,0,4.839,0,7.26
	c2.42,0,4.853,0,7.272,0c0,4.839,0,9.679,0,14.519c-2.42,0-4.853,0-7.272,0c0,4.839,0,9.679,0,14.519c-2.482,0-4.99,0-7.473,0
	c0,4.84,0,9.679,0,14.519c-2.42,0-4.84,0-7.26,0c0,1.21,0,2.42,0,3.63c0,0.604,0,1.209,0,1.814c0,0.303,0,0.605,0,0.907
	c0,0.378,0,0.757,0,1.135c-4.853,0-9.691,0-14.519,0c0,2.419,0,4.839,0,7.259c-2.42,0-4.84,0-7.26,0c0,2.42,0,4.84,0,7.26
	c2.42,0,4.84,0,7.26,0c0,2.42,0,4.84,0,7.259c-4.84,0-9.679,0-14.519,0c0,2.42,0,4.84,0,7.26c-2.419,0-4.853,0-7.272,0
	c0,2.42,0,4.839,0,7.259c-2.42,0-4.839,0-7.259,0c0-2.42,0-4.839,0-7.259c-2.407,0-4.827,0-7.247,0c0,2.42,0,4.839,0,7.259
	c-9.679,0-19.371,0-29.037,0c0-2.42,0-4.839,0-7.259c-1.21,0-2.42,0-3.629,0c-0.618,0-1.21,0-1.828,0c-0.592,0-1.21,0-1.802,0
	c-0.089,0-0.151,0-0.24,0c0-2.42,0-4.84,0-7.26c-2.42,0-4.839,0-7.259,0c0-4.839,0-9.679,0-14.519c2.42,0,4.839,0,7.259,0
	c0-2.42,0-4.84,0-7.259c-2.42,0-4.839,0-7.259,0c-2.407,0-4.827,0-7.247,0c0-0.681,0-1.361,0-2.042c0-0.605,0-1.21,0-1.814
	c0-1.21,0-2.42,0-3.63c-2.419,0-4.839,0-7.259,0s-4.841,0-7.272,0c0,1.21,0,2.42,0,3.63c0,0.604,0,1.209,0,1.814s0,1.21,0,1.814
	c0,0.076,0,0.152,0,0.228c-2.42,0-4.839,0-7.259,0c0,0.907,0,1.814,0,2.722c0,0.227,0,0.454,0,0.681c0,0.228,0,0.454,0,0.681
	s0,0.453,0,0.681s0,0.454,0,0.681c0,0.453,0,0.908,0,1.361c0,0.227,0,0.453,0,0.681c0,0.226,0,0.453,0,0.681c0,0.227,0,0.453,0,0.68
	s0,0.454,0,0.682c0,0.227,0,0.453,0,0.68s0,0.454,0,0.681c0,0.454,0,0.907,0,1.36c0,0.228,0,0.454,0,0.682c0,0.227,0,0.453,0,0.68
	c0,0.228,0,0.454,0,0.682c0,0.227,0,0.453,0,0.68c0,0.228,0,0.454,0,0.682c0,0.227,0,0.453,0,0.68c0,0.454,0,0.907,0,1.361
	c0,0.227,0,0.453,0,0.68c0,0.228,0,0.455,0,0.682c0,0.907,0,1.814,0,2.722c2.42,0,4.839,0,7.259,0c0,2.42,0,4.84,0,7.26
	c2.432,0,4.853,0,7.272,0c0,2.42,0,4.839,0,7.259c4.84,0,9.679,0,14.506,0c0,2.42,0,4.84,0,7.26c2.42,0,4.839,0,7.259,0
	c0,2.42,0,4.84,0,7.26c0.681,0,1.361,0,2.042,0c0.618,0,1.21,0,1.828,0c1.209,0,2.419,0,3.629,0c0,2.419,0,4.839,0,7.258
	c2.42,0,4.84,0,7.247,0c0,2.421,0,4.841,0,7.26c3.629,0,7.259,0,10.901,0c3.63,0,7.26,0,10.889,0c0-2.419,0-4.839,0-7.26
	c3.63,0,7.247,0,10.877,0c3.629,0,7.271,0,10.901,0c0-2.419,0-4.839,0-7.258c0.227,0,0.44,0,0.681,0c1.739,0,3.479,0,5.218,0
	c0.454,0,0.895,0,1.36,0c0.215,0,0.453,0,0.681,0c0.151,0,0.303,0,0.441,0c0.466,0,0.92,0,1.36,0c0.24,0,0.467,0,0.681,0
	c0.151,0,0.315,0,0.467,0c1.739,0,3.466,0,5.205,0c0.466,0,0.921,0,1.361,0c0.239,0,0.466,0,0.681,0c0.163,0,0.314,0,0.466,0
	c0.453,0,0.896,0,1.361,0c0.227,0,0.44,0,0.681,0c0.151,0,0.302,0,0.44,0c0.24,0,0.467,0,0.681,0c0-2.42,0-4.84,0-7.26
	c2.42,0,4.852,0,7.272,0c0-3.63,0-7.26,0-10.889c0-1.814,0-3.63,0-5.445c0-0.906,0-1.814,0-2.722c0-0.454,0-0.907,0-1.361
	c0-0.228,0-0.453,0-0.681c0-0.227,0-0.453,0-0.681c2.42,0,4.84,0,7.26,0c0-2.419,0-4.839,0-7.259c0.681,0,1.361,0,2.041,0
	c0.593,0,1.21,0,1.803,0c1.209,0,2.419,0,3.629,0c0-2.42,0-4.84,0-7.26c2.42,0,4.853,0,7.272,0c0-1.891,0-3.781,0-5.671
	c0-1.815,0-3.63,0-5.444s0-3.63,0-5.445c0-1.814,0-3.629,0-5.443c2.42,0,4.84,0,7.259,0c0-2.42,0-4.84,0-7.26c2.42,0,4.84,0,7.26,0
	c0-2.117,0-4.235,0-6.352c0-0.53,0-1.06,0-1.588c0-0.529,0-1.059,0-1.588c0-1.059,0-2.118,0-3.176c0-2.118,0-4.235,0-6.352
	c0-0.529,0-1.059,0-1.588s0-1.059,0-1.587c0-1.059,0-2.118,0-3.176c0-2.118,0-4.234,0-6.352c0-2.117,0-4.234,0-6.352
	c0-2.118,0-4.234,0-6.352s0-4.234,0-6.352c-4.84,0-9.679,0-14.519,0c0-2.42,0-4.839,0-7.259c-4.915,0-9.844,0-14.745,0
	c0-2.42,0-4.84,0-7.26c0-1.21,0-2.42,0-3.629c0-0.605,0-1.21,0-1.815c0-0.681,0-1.361,0-2.042c-4.84,0-9.681,0-14.532,0
	c0-2.419,0-4.839,0-7.259c-4.839,0-9.666,0-14.506,0c0,2.42,0,4.839,0,7.259c-4.839,0-9.678,0-14.531,0c0-2.419,0-4.839,0-7.259
	c-4.839,0-9.666,0-14.506,0c0-2.42,0-4.84,0-7.26c-4.839,0-9.679,0-14.531,0c0,2.42,0,4.839,0,7.26c-0.214,0-0.44,0-0.681,0
	c-3.479,0-6.944,0-10.422,0c-1.739,0-3.479,0-5.23,0c-1.802,0-3.63,0-5.432,0c-1.739,0-3.492,0-5.23,0c-1.802,0-3.63,0-5.432,0
	c-1.739,0-3.491,0-5.23,0c-1.802,0-3.63,0-5.432,0C44.309,21.778,44.095,21.778,43.868,21.778z"/>
<path fill="#232034" d="M43.868,95.506c0,0.226,0,0.453,0,0.68c0,0.227,0,0.454,0,0.68c0,0.454,0,0.908,0,1.361
	c0,0.227,0,0.454,0,0.681c0,0.227,0,0.454,0,0.681c0,0.453,0,0.907,0,1.361s0,0.908,0,1.361s0,0.908,0,1.361
	c0,0.454,0,0.908,0,1.361c0,0.454,0,0.907,0,1.361c0,0.907,0,1.814,0,2.723c0,2.419,0,4.839,0,7.259c2.42,0,4.84,0,7.259,0
	c0-2.42,0-4.84,0-7.259c0-2.42,0-4.84,0-7.26s0-4.84,0-7.26c0-2.419,0-4.839,0-7.259c-2.419,0-4.839,0-7.259,0
	c0,0.227,0,0.454,0,0.681c0,0.227,0,0.454,0,0.68c0,0.454,0,0.908,0,1.361c0,0.228,0,0.454,0,0.681c0,0.227,0,0.454,0,0.681
	c0,0.454,0,0.908,0,1.361c0,0.227,0,0.454,0,0.681s0,0.454,0,0.681C43.868,94.598,43.868,95.051,43.868,95.506z"/>
<path fill="#232034" d="M51.127,123.862c2.42,0,4.84,0,7.247,0c0-1.21,0-2.421,0-3.63c0-0.605,0-1.21,0-1.814
	c0-0.682,0-1.361,0-2.042c-2.407,0-4.827,0-7.247,0c0,1.21,0,2.42,0,3.63c0,0.604,0,1.209,0,1.814
	C51.127,122.501,51.127,123.182,51.127,123.862z"/>
<path fill="#5E5F5F" d="M51.127,109.117c0,2.419,0,4.839,0,7.259c2.42,0,4.84,0,7.247,0c2.42,0,4.839,0,7.259,0
	c0-2.42,0-4.84,0-7.259c-2.42,0-4.839,0-7.259,0C55.967,109.117,53.547,109.117,51.127,109.117z"/>
<path fill="#FFFFFF" d="M51.127,101.857c0,2.42,0,4.84,0,7.26c2.42,0,4.84,0,7.247,0c0-2.42,0-4.84,0-7.26
	C55.967,101.857,53.547,101.857,51.127,101.857z"/>
<path fill="#010101" d="M51.127,94.598c0,2.42,0,4.84,0,7.26c2.42,0,4.84,0,7.247,0c0,2.42,0,4.84,0,7.26c2.42,0,4.839,0,7.259,0
	c0-4.84,0-9.68,0-14.52c-2.42,0-4.839,0-7.259,0C55.967,94.598,53.547,94.598,51.127,94.598z"/>
<path fill="#353635" d="M51.127,87.339c0,2.42,0,4.839,0,7.259c2.42,0,4.84,0,7.247,0c0-2.419,0-4.839,0-7.259
	C55.967,87.339,53.547,87.339,51.127,87.339z"/>
<path fill="#232034" d="M51.127,80.079c0,2.42,0,4.839,0,7.26c2.42,0,4.84,0,7.247,0c0-2.42,0-4.84,0-7.26c0-2.419,0-4.839,0-7.259
	c-2.407,0-4.827,0-7.247,0C51.127,75.24,51.127,77.66,51.127,80.079z"/>
<path fill="#232034" d="M58.374,131.121c0,4.84,0,9.68,0,14.519c2.42,0,4.839,0,7.259,0c0-2.419,0-4.839,0-7.259s0-4.84,0-7.26
	C63.213,131.121,60.794,131.121,58.374,131.121z"/>
<path fill="#010101" d="M58.374,120.232c0,1.209,0,2.42,0,3.63c2.42,0,4.839,0,7.259,0c0-1.21,0-2.421,0-3.63
	c0-0.605,0-1.21,0-1.814c0-0.682,0-1.361,0-2.042c-2.42,0-4.839,0-7.259,0c0,0.681,0,1.36,0,2.042
	C58.374,119.022,58.374,119.627,58.374,120.232z"/>
<path fill="#353635" d="M58.374,72.82c0,2.419,0,4.839,0,7.259c2.42,0,4.839,0,7.259,0c0-2.419,0-4.839,0-7.259
	C63.213,72.82,60.794,72.82,58.374,72.82z"/>
<path fill="#D6EEF1" d="M58.374,43.783c0,4.839,0,9.679,0,14.519c-2.407,0-4.827,0-7.247,0c0,2.419,0,4.839,0,7.259
	c-2.419,0-4.839,0-7.259,0c0,4.839,0,9.679,0,14.519c2.42,0,4.84,0,7.259,0c0-2.419,0-4.839,0-7.259c2.42,0,4.84,0,7.247,0
	c0-2.42,0-4.84,0-7.26c2.42,0,4.839,0,7.259,0c0-0.151,0-0.302,0-0.454c0-0.227,0-0.454,0-0.68c0-0.454,0-0.908,0-1.361
	c0-0.227,0-0.454,0-0.681c0-0.227,0-0.454,0-0.681c0-0.227,0-0.454,0-0.681c0-0.227,0-0.454,0-0.681c0-0.151,0-0.302,0-0.454
	c0-0.226,0-0.454,0-0.68c0-0.454,0-0.907,0-1.361c0-0.227,0-0.454,0-0.681c0-0.227,0-0.454,0-0.68c0-0.227,0-0.454,0-0.681
	c0-0.227,0-0.454,0-0.68c0-0.152,0-0.303,0-0.455c0-0.226,0-0.454,0-0.68c0-0.455,0-0.908,0-1.361c0-0.227,0-0.454,0-0.681
	c0-0.227,0-0.454,0-0.681c0-0.227,0-0.454,0-0.681s0-0.454,0-0.681s0-0.454,0-0.68c0-0.228,0-0.454,0-0.681s0-0.454,0-0.681
	c0-0.227,0-0.454,0-0.681c0-0.907,0-1.815,0-2.722c0-0.228,0-0.454,0-0.681c-0.063,0-0.151,0-0.214,0c-0.529,0-1.059,0-1.588,0
	s-1.059,0-1.588,0c-1.071,0-2.13,0-3.177,0C58.841,43.783,58.601,43.783,58.374,43.783z"/>
<path fill="#5E5F5F" d="M73.132,116.376c-1.21,0-2.42,0-3.629,0c-0.618,0-1.21,0-1.828,0c-0.681,0-1.361,0-2.042,0
	c0,0.681,0,1.36,0,2.042c0,0.604,0,1.209,0,1.814c0,1.209,0,2.42,0,3.63c0.681,0,1.361,0,2.042,0c0.618,0,1.21,0,1.828,0
	c1.209,0,2.419,0,3.629,0c0-1.21,0-2.421,0-3.63c0-0.605,0-1.21,0-1.814c0-0.303,0-0.605,0-0.908c0-0.15,0-0.303,0-0.453
	C73.132,116.83,73.132,116.603,73.132,116.376z"/>
<path fill="#010101" d="M65.633,109.117c0,2.419,0,4.839,0,7.259c0.681,0,1.361,0,2.042,0c0.618,0,1.21,0,1.828,0
	c1.209,0,2.419,0,3.629,0c0-2.42,0-4.84,0-7.259c-0.076,0-0.151,0-0.227,0C70.485,109.117,68.053,109.117,65.633,109.117z"/>
<path fill="#232034" d="M73.132,65.561c-1.21,0-2.42,0-3.629,0c-0.618,0-1.21,0-1.828,0c-0.681,0-1.361,0-2.042,0
	c-2.42,0-4.839,0-7.259,0c0,2.42,0,4.839,0,7.26c2.42,0,4.839,0,7.259,0c1.21,0,2.42,0,3.642,0c0.605,0,1.211,0,1.815,0
	c0.681,0,1.361,0,2.042,0C73.132,70.4,73.132,67.98,73.132,65.561z"/>
<path fill="#5E5F5F" d="M71.09,72.82c-0.604,0-1.21,0-1.815,0c-1.222,0-2.432,0-3.642,0c0,2.419,0,4.839,0,7.259
	c-2.42,0-4.839,0-7.259,0c0,2.42,0,4.839,0,7.26c0,2.42,0,4.839,0,7.259c2.42,0,4.839,0,7.259,0c0,4.84,0,9.68,0,14.52
	c2.42,0,4.853,0,7.272,0c0.075,0,0.15,0,0.227,0c0,2.419,0,4.839,0,7.259c2.42,0,4.84,0,7.247,0c0,0.681,0,1.36,0,2.042
	c0,0.604,0,1.209,0,1.814c0,1.209,0,2.42,0,3.63c2.419,0,4.839,0,7.259,0c0-0.681,0-1.361,0-2.042c0-0.605,0-1.21,0-1.814
	c0-1.21,0-2.42,0-3.63c2.432,0,4.853,0,7.272,0c0,0.681,0,1.36,0,2.042c0,0.604,0,1.209,0,1.814c0,1.209,0,2.42,0,3.63
	c2.42,0,4.84,0,7.259,0c0-3.705,0-7.411,0-11.116c0-3.629,0-7.259,0-10.889c-2.419,0-4.839,0-7.259,0c0,2.42,0,4.84,0,7.26
	c-2.42,0-4.841,0-7.272,0c-2.42,0-4.84,0-7.259,0c0-2.42,0-4.84,0-7.26c-2.407,0-4.827,0-7.247,0c0-2.42,0-4.84,0-7.26
	c2.42,0,4.84,0,7.247,0c1.827,0,3.629,0,5.457,0c1.802,0,3.63,0,5.444,0s3.63,0,5.432,0c1.828,0,3.63,0,5.457,0
	c0,2.42,0,4.84,0,7.26c2.42,0,4.84,0,7.247,0c0-2.42,0-4.84,0-7.26c4.839,0,9.679,0,14.531,0c0-2.419,0-4.839,0-7.259
	c-2.419,0-4.853,0-7.272,0c0-4.84,0-9.679,0-14.519c-2.42,0-4.839,0-7.259,0c0-2.42,0-4.84,0-7.26c-9.666,0-19.347,0-29.037,0
	c0,2.42,0,4.839,0,7.26c-2.407,0-4.827,0-7.247,0C72.451,72.82,71.771,72.82,71.09,72.82z"/>
<path fill="#232034" d="M73.132,123.862c-1.21,0-2.42,0-3.629,0c-0.618,0-1.21,0-1.828,0c-0.681,0-1.361,0-2.042,0
	c0,2.419,0,4.839,0,7.259c1.21,0,2.42,0,3.642,0c0.605,0,1.211,0,1.815,0c0.681,0,1.361,0,2.042,0
	C73.132,128.701,73.132,126.281,73.132,123.862z"/>
<path fill="#010101" d="M71.09,131.121c-0.604,0-1.21,0-1.815,0c-1.222,0-2.432,0-3.642,0c0,2.42,0,4.84,0,7.26
	c0.681,0,1.361,0,2.042,0c0.618,0,1.21,0,1.828,0c1.209,0,2.419,0,3.629,0c0,2.42,0,4.84,0,7.259c3.63,0,7.247,0,10.876,0
	c3.63,0,7.272,0,10.902,0c0-2.419,0-4.839,0-7.259c4.84,0,9.679,0,14.506,0c0-2.42,0-4.84,0-7.26c-2.407,0-4.827,0-7.247,0
	c0-2.42,0-4.84,0-7.259c-2.419,0-4.839,0-7.259,0c0-1.21,0-2.421,0-3.63c0-0.605,0-1.21,0-1.814c0-0.682,0-1.361,0-2.042
	c-2.42,0-4.841,0-7.272,0c0,1.21,0,2.42,0,3.63c0,0.604,0,1.209,0,1.814c0,0.681,0,1.361,0,2.042c-2.42,0-4.84,0-7.259,0
	c0-1.21,0-2.421,0-3.63c0-0.605,0-1.21,0-1.814c0-0.682,0-1.361,0-2.042c-2.407,0-4.827,0-7.247,0c0,0.227,0,0.454,0,0.681
	c0,0.15,0,0.303,0,0.453c0,0.303,0,0.605,0,0.908c0,0.604,0,1.209,0,1.814c0,1.209,0,2.42,0,3.63c0,2.419,0,4.839,0,7.259
	C72.451,131.121,71.771,131.121,71.09,131.121z"/>
<path fill="#5E5F5F" d="M67.675,138.381c-0.681,0-1.361,0-2.042,0c0,2.42,0,4.84,0,7.259c0.681,0,1.361,0,2.042,0
	c0.618,0,1.21,0,1.828,0c1.209,0,2.419,0,3.629,0c0-2.419,0-4.839,0-7.259c-1.21,0-2.42,0-3.629,0
	C68.885,138.381,68.293,138.381,67.675,138.381z"/>
<path fill="#232034" d="M73.132,145.64c-1.21,0-2.42,0-3.629,0c-0.618,0-1.21,0-1.828,0c-0.681,0-1.361,0-2.042,0
	c0,2.42,0,4.84,0,7.26c0.089,0,0.151,0,0.24,0c0.592,0,1.21,0,1.802,0c0.618,0,1.21,0,1.828,0c1.209,0,2.419,0,3.629,0
	C73.132,150.479,73.132,148.06,73.132,145.64z"/>
<path fill="#73CEE0" d="M160.244,138.381c0,2.42,0,4.84,0,7.259c-2.42,0-4.84,0-7.26,0c0,0.228,0,0.454,0,0.681
	c0,0.228,0,0.453,0,0.681c0,0.454,0,0.907,0,1.361c0,0.907,0,1.815,0,2.722c0,1.815,0,3.631,0,5.445c0,3.629,0,7.259,0,10.889
	c-2.421,0-4.853,0-7.272,0c0,2.42,0,4.84,0,7.26c-0.214,0-0.44,0-0.681,0c-0.139,0-0.289,0-0.44,0c-0.24,0-0.454,0-0.681,0
	c-0.466,0-0.908,0-1.361,0c-0.151,0-0.303,0-0.466,0c-0.215,0-0.441,0-0.681,0c-0.44,0-0.896,0-1.361,0c-1.739,0-3.466,0-5.205,0
	c-0.151,0-0.315,0-0.467,0c-0.214,0-0.44,0-0.681,0c-0.44,0-0.895,0-1.36,0c-0.139,0-0.29,0-0.441,0c-0.228,0-0.466,0-0.681,0
	c-0.466,0-0.906,0-1.36,0c-1.739,0-3.479,0-5.218,0c-0.24,0-0.454,0-0.681,0c0,2.419,0,4.839,0,7.258c-3.631,0-7.272,0-10.901,0
	c-3.63,0-7.247,0-10.877,0c0,2.421,0,4.841,0,7.26c-3.629,0-7.259,0-10.889,0c-3.643,0-7.272,0-10.901,0c0-2.419,0-4.839,0-7.26
	c-2.407,0-4.827,0-7.247,0c0-2.419,0-4.839,0-7.258c-1.21,0-2.42,0-3.629,0c-0.618,0-1.21,0-1.828,0c-0.681,0-1.361,0-2.042,0
	c0-2.42,0-4.84,0-7.26c-2.42,0-4.839,0-7.259,0c0-2.42,0-4.84,0-7.26c-4.827,0-9.666,0-14.506,0c0-2.42,0-4.839,0-7.259
	c-2.42,0-4.841,0-7.272,0c0-2.42,0-4.84,0-7.26c-2.42,0-4.839,0-7.259,0c0-0.907,0-1.814,0-2.722c0-0.227,0-0.454,0-0.682
	c0-0.227,0-0.453,0-0.68c0-0.454,0-0.907,0-1.361c0-0.227,0-0.453,0-0.68c0-0.228,0-0.454,0-0.682c0-0.227,0-0.453,0-0.68
	c0-0.228,0-0.454,0-0.682c0-0.227,0-0.453,0-0.68c0-0.228,0-0.454,0-0.682c0-0.453,0-0.906,0-1.36c0-0.227,0-0.454,0-0.681
	s0-0.453,0-0.68c0-0.228,0-0.455,0-0.682s0-0.453,0-0.68c0-0.228,0-0.455,0-0.681c0-0.228,0-0.454,0-0.681c0-0.453,0-0.908,0-1.361
	c0-0.227,0-0.453,0-0.681s0-0.454,0-0.681s0-0.453,0-0.681c0-0.227,0-0.454,0-0.681c0-0.907,0-1.814,0-2.722c2.42,0,4.839,0,7.259,0
	c0-0.075,0-0.151,0-0.228c0-0.604,0-1.209,0-1.814s0-1.21,0-1.814c0-1.21,0-2.42,0-3.63c2.432,0,4.853,0,7.272,0
	c0-2.42,0-4.84,0-7.259c-2.42,0-4.841,0-7.272,0c0-2.42,0-4.84,0-7.26c-2.42,0-4.839,0-7.259,0c0-2.42,0-4.84,0-7.26
	c-2.407,0-4.827,0-7.247,0c0-2.419,0-4.839,0-7.259c-2.42,0-4.839,0-7.259,0c0,4.839,0,9.679,0,14.519c2.42,0,4.839,0,7.259,0
	c0,0.227,0,0.454,0,0.68c0,0.455,0,0.908,0,1.361c0,0.529,0,1.06,0,1.589c0,0.453,0,0.907,0,1.36c0,0.227,0,0.454,0,0.682
	c0,0.302,0,0.604,0,0.906c0,0.228,0,0.454,0,0.682c2.42,0,4.84,0,7.247,0c0,0.227,0,0.453,0,0.68c0,1.059,0,2.117,0,3.176
	c0,0.529,0,1.059,0,1.588c0,0.228,0,0.455,0,0.681c0,0.303,0,0.604,0,0.907c0,0.076,0,0.152,0,0.228c-0.215,0-0.44,0-0.681,0
	c-0.972,0-1.953,0-2.937,0c-0.996,0-1.966,0-2.949,0c-0.227,0-0.467,0-0.681,0c0,4.915,0,9.83,0,14.745c-0.227,0-0.466,0-0.681,0
	c-0.466,0-0.907,0-1.361,0c-0.529,0-1.059,0-1.588,0c-0.466,0-0.906,0-1.36,0c-0.227,0-0.467,0-0.681,0c-0.315,0-0.618,0-0.907,0
	c-0.24,0-0.454,0-0.681,0c0,0.908,0,1.814,0,2.723c0,0.227,0,0.453,0,0.681c0,0.227,0,0.454,0,0.681c0,0.453,0,0.906,0,1.36
	c0,0.228,0,0.454,0,0.681s0,0.454,0,0.681c0,0.454,0,0.907,0,1.361c0,0.228,0,0.454,0,0.681s0,0.453,0,0.681c0,0.453,0,0.907,0,1.36
	c0,0.227,0,0.454,0,0.682c0,0.227,0,0.453,0,0.68c0,0.454,0,0.908,0,1.361c0,0.227,0,0.454,0,0.681s0,0.454,0,0.681
	c0,0.454,0,0.907,0,1.361c0,0.227,0,0.453,0,0.68c0,0.228,0,0.454,0,0.682c0,0.453,0,0.907,0,1.361c0,0.906,0,1.814,0,2.722
	c2.42,0,4.839,0,7.259,0c0,0.227,0,0.454,0,0.681c0,4.612,0,9.225,0,13.838c4.84,0,9.667,0,14.506,0c0,0.227,0,0.453,0,0.68
	c0,0.455,0,0.908,0,1.361c0,0.228,0,0.455,0,0.682c0,0.303,0,0.604,0,0.907c0,0.453,0,0.907,0,1.361c0,0.528,0,1.058,0,1.587
	c0,0.228,0,0.454,0,0.682c3.643,0,7.272,0,10.902,0c3.629,0,7.259,0,10.876,0c0,2.419,0,4.839,0,7.258c2.42,0,4.839,0,7.259,0
	c0,2.421,0,4.841,0,7.26c1.21,0,2.42,0,3.642,0c0.605,0,1.211,0,1.815,0c0.605,0,1.21,0,1.815,0c0.075,0,0.15,0,0.227,0
	c0,0.228,0,0.454,0,0.682c0,0.227,0,0.453,0,0.68s0,0.454,0,0.682c0,0.529,0,1.058,0,1.587c0,0.228,0,0.454,0,0.681s0,0.453,0,0.681
	s0,0.454,0,0.681c0,0.303,0,0.605,0,0.908c0,0.227,0,0.453,0,0.68c3.63,0,7.247,0,10.876,0c3.63,0,7.272,0,10.902,0
	c0,2.42,0,4.84,0,7.26c3.63,0,7.259,0,10.889,0c3.617,0,7.247,0,10.876,0c0-2.42,0-4.84,0-7.26c0.24,0,0.467,0,0.681,0
	c0.467,0,0.921,0,1.361,0c0.529,0,1.059,0,1.6,0c0.442,0,0.908,0,1.35,0c0.239,0,0.466,0,0.681,0c0.303,0,0.617,0,0.92,0
	c0.227,0,0.441,0,0.681,0c0-2.42,0-4.84,0-7.26c0.15,0,0.289,0,0.44,0c1.739,0,3.491,0,5.231,0c1.802,0,3.629,0,5.431,0
	c1.739,0,3.492,0,5.231,0c1.802,0,3.629,0,5.431,0c0-2.419,0-4.839,0-7.26c2.42,0,4.852,0,7.272,0c0-2.419,0-4.839,0-7.258
	c2.42,0,4.84,0,7.26,0c0-1.74,0-3.479,0-5.219c0-1.814,0-3.629,0-5.443c0-1.815,0-3.63,0-5.445c0-0.907,0-1.814,0-2.722
	c0-0.228,0-0.454,0-0.681s0-0.453,0-0.681s0-0.454,0-0.681c0-0.303,0-0.605,0-0.907c0.214,0,0.44,0,0.681,0c2.041,0,4.083,0,6.111,0
	c0.24,0,0.467,0,0.681,0c0-2.42,0-4.84,0-7.26c2.42,0,4.853,0,7.272,0c0-2.419,0-4.839,0-7.259c2.42,0,4.84,0,7.259,0
	c0-1.815,0-3.63,0-5.445c0-1.814,0-3.629,0-5.443c0-1.815,0-3.63,0-5.445c0-1.89,0-3.78,0-5.671c2.42,0,4.84,0,7.26,0
	c0-4.84,0-9.679,0-14.519c-2.42,0-4.84,0-7.26,0c0,2.42,0,4.84,0,7.26c-2.419,0-4.839,0-7.259,0c0,1.814,0,3.629,0,5.443
	c0,1.815,0,3.631,0,5.445s0,3.629,0,5.444c0,1.89,0,3.78,0,5.671c-2.42,0-4.853,0-7.272,0c0,2.42,0,4.84,0,7.26
	c-1.21,0-2.42,0-3.629,0c-0.593,0-1.21,0-1.803,0C161.605,138.381,160.925,138.381,160.244,138.381z"/>
<path fill="#232034" d="M73.132,152.899c0,2.42,0,4.839,0,7.259c9.666,0,19.358,0,29.037,0c0-2.42,0-4.839,0-7.259
	C92.49,152.899,82.798,152.899,73.132,152.899z"/>
<path fill="#5E5F5F" d="M73.132,145.64c0,2.42,0,4.84,0,7.26c9.666,0,19.358,0,29.037,0c0-2.42,0-4.84,0-7.26c2.42,0,4.84,0,7.247,0
	c0-2.419,0-4.839,0-7.259c-4.827,0-9.666,0-14.506,0c0,2.42,0,4.84,0,7.259c-3.63,0-7.272,0-10.902,0
	C80.379,145.64,76.762,145.64,73.132,145.64z"/>
<path fill="#353635" d="M73.132,94.598c0,2.42,0,4.84,0,7.26c2.42,0,4.84,0,7.247,0c0-2.42,0-4.84,0-7.26
	C77.972,94.598,75.552,94.598,73.132,94.598z"/>
<path fill="#353635" d="M73.132,65.561c0,2.42,0,4.839,0,7.26c2.42,0,4.84,0,7.247,0c0-2.42,0-4.84,0-7.26
	C77.972,65.561,75.552,65.561,73.132,65.561z"/>
<path fill="#232034" d="M73.132,58.302c0,2.419,0,4.839,0,7.259c2.42,0,4.84,0,7.247,0c9.69,0,19.371,0,29.037,0
	c2.42,0,4.839,0,7.259,0c0-2.419,0-4.839,0-7.259c-4.839,0-9.666,0-14.506,0c-4.839,0-9.679,0-14.531,0c-2.42,0-4.84,0-7.259,0
	C77.972,58.302,75.552,58.302,73.132,58.302z"/>
<path fill="#D6EEF1" d="M73.132,43.783c0,2.419,0,4.839,0,7.259c2.42,0,4.84,0,7.247,0c0-2.42,0-4.839,0-7.259
	C77.972,43.783,75.552,43.783,73.132,43.783z"/>
<path fill="#FFFFFF" d="M80.379,101.857c0,2.42,0,4.84,0,7.26c2.419,0,4.839,0,7.259,0c0-2.42,0-4.84,0-7.26
	C85.218,101.857,82.798,101.857,80.379,101.857z"/>
<path fill="#010101" d="M80.379,94.598c0,2.42,0,4.84,0,7.26c2.419,0,4.839,0,7.259,0c0,2.42,0,4.84,0,7.26c2.432,0,4.853,0,7.272,0
	c0-2.42,0-4.84,0-7.26c2.42,0,4.84,0,7.259,0c0-2.42,0-4.84,0-7.26c-1.827,0-3.629,0-5.457,0c-1.802,0-3.617,0-5.432,0
	s-3.643,0-5.444,0C84.008,94.598,82.206,94.598,80.379,94.598z"/>
<path fill="#D6EEF1" d="M80.379,51.042c0,2.42,0,4.84,0,7.26c2.419,0,4.839,0,7.259,0c0-2.42,0-4.84,0-7.26
	C85.218,51.042,82.798,51.042,80.379,51.042z"/>
<path fill="#232034" d="M102.169,145.64c0,2.42,0,4.84,0,7.26c2.42,0,4.84,0,7.247,0c2.42,0,4.839,0,7.259,0c0-2.42,0-4.84,0-7.26
	c-2.42,0-4.839,0-7.259,0C107.009,145.64,104.589,145.64,102.169,145.64z"/>
<path fill="#5E5F5F" d="M102.169,123.862c0,2.419,0,4.839,0,7.259c2.42,0,4.84,0,7.247,0c0-2.42,0-4.84,0-7.259
	C107.009,123.862,104.589,123.862,102.169,123.862z"/>
<path fill="#353635" d="M102.169,112.746c0,3.705,0,7.411,0,11.116c2.42,0,4.84,0,7.247,0c0-0.681,0-1.361,0-2.042
	c0-0.605,0-1.21,0-1.814c0-1.21,0-2.42,0-3.63c2.42,0,4.839,0,7.259,0c0-2.42,0-4.84,0-7.259c2.42,0,4.854,0,7.272,0
	c0-2.42,0-4.84,0-7.26c2.42,0,4.84,0,7.259,0c0-3.63,0-7.26,0-10.889s0-7.259,0-10.889c-2.419,0-4.839,0-7.259,0
	c0-2.419,0-4.839,0-7.259c-2.419,0-4.853,0-7.272,0c0,4.839,0,9.679,0,14.519c2.42,0,4.854,0,7.272,0c0,2.42,0,4.839,0,7.259
	c-4.853,0-9.692,0-14.531,0c0,2.42,0,4.84,0,7.26c-2.407,0-4.827,0-7.247,0C102.169,105.487,102.169,109.117,102.169,112.746z"/>
<path fill="#D6EEF1" d="M102.169,43.783c0,4.839,0,9.679,0,14.519c4.84,0,9.667,0,14.506,0c0,2.419,0,4.839,0,7.259
	c2.42,0,4.854,0,7.272,0c0-4.839,0-9.679,0-14.519c-2.419,0-4.853,0-7.272,0c0-2.42,0-4.839,0-7.259
	C111.836,43.783,107.009,43.783,102.169,43.783z"/>
<path fill="#73CEE0" d="M160.244,32.894c0,1.209,0,2.419,0,3.629c0,2.42,0,4.84,0,7.26c4.901,0,9.83,0,14.745,0
	c0,2.419,0,4.839,0,7.259c4.84,0,9.679,0,14.519,0c0-2.42,0-4.839,0-7.259c-2.42,0-4.84,0-7.26,0c0-0.228,0-0.454,0-0.681
	c0-0.454,0-0.908,0-1.361c0-0.529,0-1.059,0-1.588c0-0.454,0-0.907,0-1.361c0-0.227,0-0.454,0-0.68c0-0.303,0-0.605,0-0.908
	c0-0.227,0-0.454,0-0.681c-4.839,0-9.679,0-14.531,0c0-0.227,0-0.454,0-0.681c0-0.227,0-0.454,0-0.681c0-0.302,0-0.605,0-0.907
	c0-0.227,0-0.453,0-0.681c0-0.303,0-0.604,0-0.907c0-0.227,0-0.454,0-0.681c0-0.302,0-0.605,0-0.907c0-0.605,0-1.21,0-1.814
	c0-0.228,0-0.455,0-0.681c0-0.303,0-0.605,0-0.908c0-0.604,0-1.209,0-1.814c0-1.134,0-2.269,0-3.402c0-0.227,0-0.454,0-0.681
	c-1.21,0-2.42,0-3.629,0c-0.593,0-1.21,0-1.803,0c-0.303,0-0.617,0-0.92,0c-0.138,0-0.289,0-0.44,0c-0.24,0-0.467,0-0.681,0
	c0-2.42,0-4.84,0-7.26c-2.42,0-4.84,0-7.26,0c0-2.419,0-4.839,0-7.259c-7.272,0-14.519,0-21.778,0c0,2.419,0,4.839,0,7.259
	c-0.151,0-0.303,0-0.466,0c-2.256,0-4.524,0-6.793,0c-0.529,0-1.071,0-1.601,0c-0.593,0-1.21,0-1.803,0c-1.209,0-2.419,0-3.629,0
	c-0.529,0-1.059,0-1.602,0c-0.592,0-1.21,0-1.802,0c-1.21,0-2.42,0-3.629,0c-0.529,0-1.059,0-1.588,0c-0.605,0-1.211,0-1.815,0
	c-0.618,0-1.21,0-1.828,0c-0.289,0-0.592,0-0.906,0c-0.304,0-0.593,0-0.896,0c-0.227,0-0.466,0-0.681,0c0,2.42,0,4.839,0,7.26
	c4.84,0,9.667,0,14.506,0c0,2.42,0,4.839,0,7.259c4.854,0,9.692,0,14.531,0c0-2.419,0-4.839,0-7.259c4.84,0,9.667,0,14.506,0
	c0,2.42,0,4.839,0,7.259c4.852,0,9.692,0,14.532,0c0,0.681,0,1.361,0,2.042C160.244,31.684,160.244,32.289,160.244,32.894z"/>
<path fill="#D6EEF1" d="M109.416,152.899c0,2.42,0,4.839,0,7.259c2.42,0,4.839,0,7.259,0c0-2.42,0-4.839,0-7.259
	C114.255,152.899,111.836,152.899,109.416,152.899z"/>
<path fill="#353635" d="M109.416,138.381c0,2.42,0,4.84,0,7.259c2.42,0,4.839,0,7.259,0c0-2.419,0-4.839,0-7.259
	C114.255,138.381,111.836,138.381,109.416,138.381z"/>
<path fill="#5E5F5F" d="M109.416,131.121c0,2.42,0,4.84,0,7.26c2.42,0,4.839,0,7.259,0c0-2.42,0-4.84,0-7.26
	C114.255,131.121,111.836,131.121,109.416,131.121z"/>
<path fill="#232034" d="M109.416,123.862c0,2.419,0,4.839,0,7.259c2.42,0,4.839,0,7.259,0c0-2.42,0-4.84,0-7.259
	c2.42,0,4.854,0,7.272,0c0-1.21,0-2.421,0-3.63c0-1.285,0-2.571,0-3.856c2.42,0,4.84,0,7.259,0c0-2.42,0-4.84,0-7.259
	c2.42,0,4.84,0,7.26,0c0-3.63,0-7.26,0-10.89s0-7.259,0-10.889c0-2.42,0-4.84,0-7.26c-2.42,0-4.84,0-7.26,0c0,3.63,0,7.26,0,10.889
	s0,7.259,0,10.889c-2.419,0-4.839,0-7.259,0c0,2.42,0,4.84,0,7.26c-2.419,0-4.853,0-7.272,0c0,2.419,0,4.839,0,7.259
	c-2.42,0-4.839,0-7.259,0c0,1.21,0,2.42,0,3.63c0,0.604,0,1.209,0,1.814C109.416,122.501,109.416,123.182,109.416,123.862z"/>
<path fill="#353635" d="M109.416,65.561c0,2.42,0,4.839,0,7.26c2.42,0,4.839,0,7.259,0c0-2.42,0-4.84,0-7.26
	C114.255,65.561,111.836,65.561,109.416,65.561z"/>
<path fill="#D6EEF1" d="M116.675,145.64c0,2.42,0,4.84,0,7.26c2.42,0,4.854,0,7.272,0c0-2.42,0-4.84,0-7.26
	C121.528,145.64,119.095,145.64,116.675,145.64z"/>
<path fill="#232034" d="M116.675,138.381c0,2.42,0,4.84,0,7.259c2.42,0,4.854,0,7.272,0c0-4.839,0-9.679,0-14.519
	c-2.419,0-4.853,0-7.272,0C116.675,133.541,116.675,135.961,116.675,138.381z"/>
<path fill="#98D8DF" d="M116.675,123.862c0,2.419,0,4.839,0,7.259c2.42,0,4.854,0,7.272,0c0-2.42,0-4.84,0-7.259
	C121.528,123.862,119.095,123.862,116.675,123.862z"/>
<path fill="#232034" d="M116.675,65.561c0,2.42,0,4.839,0,7.26c2.42,0,4.854,0,7.272,0c0-2.42,0-4.84,0-7.26
	C121.528,65.561,119.095,65.561,116.675,65.561z"/>
<path fill="#D6EEF1" d="M160.244,94.371c0,0.075,0,0.151,0,0.227c-2.42,0-4.84,0-7.26,0c0,2.42,0,4.84,0,7.26
	c-2.421,0-4.853,0-7.272,0c0,4.84,0,9.679,0,14.519c-2.419,0-4.839,0-7.246,0c0-2.42,0-4.84,0-7.259c-2.42,0-4.84,0-7.26,0
	c0,2.419,0,4.839,0,7.259c-2.419,0-4.839,0-7.259,0c0,1.285,0,2.571,0,3.856c0,1.209,0,2.42,0,3.63c0,2.419,0,4.839,0,7.259
	c0,4.84,0,9.68,0,14.519c4.84,0,9.679,0,14.519,0c0-2.419,0-4.839,0-7.259c-2.42,0-4.84,0-7.26,0c0-2.42,0-4.84,0-7.26
	c2.42,0,4.84,0,7.26,0c0-2.42,0-4.84,0-7.259c4.827,0,9.666,0,14.519,0c0-0.378,0-0.757,0-1.135c0-0.302,0-0.604,0-0.907
	c0-0.605,0-1.21,0-1.814c0-1.21,0-2.42,0-3.63c2.42,0,4.84,0,7.26,0c0-4.84,0-9.679,0-14.519c2.482,0,4.99,0,7.473,0
	c0-4.84,0-9.679,0-14.519c2.42,0,4.853,0,7.272,0c0-4.84,0-9.679,0-14.519c-2.42,0-4.853,0-7.272,0c0-2.42,0-4.84,0-7.26
	c-4.902,0-9.83,0-14.732,0c0-2.419,0-4.839,0-7.259c-2.421,0-4.853,0-7.272,0c0,2.419,0,4.839,0,7.259c-7.246,0-14.506,0-21.765,0
	c0,2.42,0,4.839,0,7.26c2.42,0,4.84,0,7.259,0c0,2.419,0,4.839,0,7.259c2.42,0,4.84,0,7.26,0c0,2.42,0,4.839,0,7.26
	c2.407,0,4.827,0,7.246,0c0,2.42,0,4.839,0,7.259c2.42,0,4.852,0,7.272,0c0-2.419,0-4.839,0-7.259c2.42,0,4.84,0,7.26,0
	c0,0.227,0,0.454,0,0.681c0,0.529,0,1.059,0,1.588c0,0.529,0,1.058,0,1.587c0,0.53,0,1.059,0,1.588S160.244,93.842,160.244,94.371z"
	/>
<path fill="#232034" d="M123.947,72.82c0,2.419,0,4.839,0,7.259c2.42,0,4.84,0,7.259,0c0-2.419,0-4.839,0-7.259
	C128.787,72.82,126.367,72.82,123.947,72.82z"/>
<path fill="#D6EEF1" d="M123.947,43.783c0,2.419,0,4.839,0,7.259c2.42,0,4.84,0,7.259,0c0-2.192,0-4.386,0-6.578
	c0-0.228,0-0.454,0-0.681C128.787,43.783,126.367,43.783,123.947,43.783z"/>
<path fill="#FFFFFF" d="M138.466,109.117c0,2.419,0,4.839,0,7.259c2.407,0,4.827,0,7.246,0c0-4.84,0-9.679,0-14.519
	c2.42,0,4.852,0,7.272,0c0-2.42,0-4.84,0-7.26c-2.421,0-4.853,0-7.272,0c0-2.419,0-4.839,0-7.259c-2.419,0-4.839,0-7.246,0
	c0,3.629,0,7.259,0,10.889S138.466,105.487,138.466,109.117z"/>
<path fill="#FFFFFF" d="M152.984,87.339c0,2.42,0,4.839,0,7.259c2.42,0,4.84,0,7.26,0c0-0.075,0-0.151,0-0.227
	c0-0.529,0-1.059,0-1.588s0-1.059,0-1.588c0-0.529,0-1.059,0-1.587c0-0.529,0-1.059,0-1.588c0-0.227,0-0.454,0-0.681
	C157.824,87.339,155.404,87.339,152.984,87.339z"/>
<path fill="#73CEE0" d="M189.508,93.917c0,0.529,0,1.058,0,1.588c0,2.117,0,4.234,0,6.352c2.407,0,4.827,0,7.246,0
	c0-4.84,0-9.679,0-14.519c2.42,0,4.852,0,7.272,0c0-1.815,0-3.63,0-5.445s0-3.629,0-5.444s0-3.629,0-5.444s0-3.63,0-5.445
	c-2.421,0-4.853,0-7.272,0c0-0.227,0-0.454,0-0.681c0-4.612,0-9.225,0-13.838c-2.419,0-4.839,0-7.246,0c0,2.118,0,4.234,0,6.352
	s0,4.234,0,6.352c0,2.117,0,4.234,0,6.352c0,2.118,0,4.234,0,6.352c0,1.059,0,2.118,0,3.176c0,0.529,0,1.058,0,1.587
	s0,1.059,0,1.588c0,2.117,0,4.234,0,6.352c0,1.058,0,2.117,0,3.176C189.508,92.859,189.508,93.388,189.508,93.917z"/>
<g id="XMLID_2_">
	<g>
		<path fill="#232034" d="M116.613,164.442c0,2.33,0,4.67,0,7c2.42,0,4.83,0,7.26,0c0-2.25,0-4.49,0-6.74c-0.09,0-0.17,0-0.26,0
			c0-0.09,0-0.17,0-0.26C121.273,164.442,118.943,164.442,116.613,164.442z"/>
		<path fill="#232034" d="M118.424,171.702c-0.301,0-0.601,0-0.9,0c-0.311,0-0.61,0-0.91,0c0,2.25,0,4.49,0,6.74
			c2.42,0,4.83,0,7.26,0c0-2.25,0-4.49,0-6.74c-0.229,0-0.449,0-0.68,0c-1.07,0-2.12,0-3.18,0
			C119.483,171.702,118.943,171.702,118.424,171.702z"/>
		<path fill="#232034" d="M116.613,178.702c0,1.45,0,3.78,0,7c0.3,0,0.6,0,0.91,0c0.3,0,0.6,0,0.9,0c0.52,0,1.06,0,1.59,0
			c1.06,0,2.109,0,3.18,0c0.14,0,0.28,0,0.42,0c0-0.09,0-0.17,0-0.26c0.09,0,0.17,0,0.26,0c0-2.25,0-4.49,0-6.74
			c-0.229,0-0.449,0-0.68,0c-1.07,0-2.12,0-3.18,0c-0.53,0-1.07,0-1.59,0c-0.301,0-0.601,0-0.9,0
			C117.213,178.702,116.913,178.702,116.613,178.702z"/>
		<path fill="#232034" d="M123.873,178.442c-2.43,0-4.84,0-7.26,0c0,0.08,0,0.17,0,0.26c0.3,0,0.6,0,0.91,0c0.3,0,0.6,0,0.9,0
			c0.52,0,1.06,0,1.59,0c1.06,0,2.109,0,3.18,0c0.23,0,0.45,0,0.68,0C123.873,178.612,123.873,178.532,123.873,178.442z"/>
		<path fill="#232034" d="M123.873,171.442c-2.43,0-4.84,0-7.26,0c0,0.09,0,0.17,0,0.26c0.3,0,0.6,0,0.91,0c0.3,0,0.6,0,0.9,0
			c0.52,0,1.06,0,1.59,0c1.06,0,2.109,0,3.18,0c0.23,0,0.45,0,0.68,0C123.873,171.612,123.873,171.532,123.873,171.442z"/>
		<path fill="#232034" d="M123.613,185.702c0,2.33,0,4.67,0,7c0.3,0,0.6,0,0.91,0c0.3,0,0.6,0,0.9,0c0.52,0,1.06,0,1.59,0
			c1.06,0,2.109,0,3.18,0c0.23,0,0.45,0,0.68,0c0-2.33,0-4.67,0-7c-0.09,0-0.17,0-0.26,0c0-0.09,0-0.17,0-0.26
			c-2.26,0-4.49,0-6.74,0c0,0.09,0,0.17,0,0.26C123.783,185.702,123.703,185.702,123.613,185.702z"/>
		<path fill="#232034" d="M123.613,185.442c0,0.09,0,0.17,0,0.26c0.09,0,0.17,0,0.26,0c0-0.09,0-0.17,0-0.26
			C123.783,185.442,123.703,185.442,123.613,185.442z"/>
		<path fill="#232034" d="M123.613,164.442c0,0.09,0,0.17,0,0.26c0.09,0,0.17,0,0.26,0c0-0.09,0-0.17,0-0.26
			C123.783,164.442,123.703,164.442,123.613,164.442z"/>
		<path fill="#232034" d="M123.613,157.442c0,2.33,0,4.67,0,7c0.09,0,0.17,0,0.26,0c0,0.09,0,0.17,0,0.26c0.21,0,0.431,0,0.65,0
			c0.3,0,0.6,0,0.9,0c0.52,0,1.06,0,1.59,0c1.06,0,2.109,0,3.18,0c0.14,0,0.28,0,0.42,0c0-2.42,0-4.84,0-7.26
			C128.273,157.442,125.943,157.442,123.613,157.442z"/>
		<path fill="#5E5F5F" d="M125.424,164.702c-0.301,0-0.601,0-0.9,0c-0.22,0-0.44,0-0.65,0c0,2.25,0,4.49,0,6.74
			c0,0.09,0,0.17,0,0.26c0,2.25,0,4.49,0,6.74c0,0.09,0,0.17,0,0.26c0,2.25,0,4.49,0,6.74c2.25,0,4.48,0,6.74,0
			c0-2.25,0-4.49,0-6.74c0-0.09,0-0.17,0-0.26c0-2.33,0-4.67,0-7c2.42,0,4.83,0,7.26,0c0,2.33,0,4.67,0,7c0,0.09,0,0.17,0,0.26
			c0,2.25,0,4.49,0,6.74c2.25,0,4.48,0,6.74,0c0-2.25,0-4.49,0-6.74c0-0.08,0-0.17,0-0.26c0-1.45,0-3.78,0-7c2.42,0,4.83,0,7.26,0
			c0,2.33,0,4.67,0,7c0,0.09,0,0.17,0,0.26c0,2.25,0,4.49,0,6.74c2.25,0,4.48,0,6.74,0c0-2.25,0-4.49,0-6.74c0-0.09,0-0.17,0-0.26
			c0-2.25,0-4.49,0-6.74c0-0.09,0-0.17,0-0.26c0-2.25,0-4.49,0-6.74c-0.14,0-0.28,0-0.42,0c-1.07,0-2.12,0-3.18,0
			c-0.53,0-1.07,0-1.59,0c-0.301,0-0.601,0-0.9,0c-0.22,0-0.44,0-0.65,0c-0.09,0-0.17,0-0.26,0c-0.14,0-0.28,0-0.42,0
			c-1.07,0-2.12,0-3.18,0c-0.53,0-1.07,0-1.59,0c-0.301,0-0.601,0-0.9,0c-0.22,0-0.44,0-0.65,0c-0.09,0-0.17,0-0.26,0
			c-0.14,0-0.28,0-0.42,0c-1.07,0-2.12,0-3.18,0c-0.53,0-1.07,0-1.59,0c-0.301,0-0.601,0-0.9,0c-0.22,0-0.44,0-0.65,0
			c-0.09,0-0.17,0-0.26,0c-0.14,0-0.28,0-0.42,0c-1.07,0-2.12,0-3.18,0c-0.53,0-1.07,0-1.59,0c-0.301,0-0.601,0-0.9,0
			c-0.22,0-0.44,0-0.65,0c-0.09,0-0.17,0-0.26,0c-0.14,0-0.28,0-0.42,0c-1.07,0-2.12,0-3.18,0
			C126.483,164.702,125.943,164.702,125.424,164.702z"/>
		<path fill="#232034" d="M130.613,185.442c0,0.09,0,0.17,0,0.26c0.09,0,0.17,0,0.26,0c0-0.09,0-0.17,0-0.26
			C130.783,185.442,130.703,185.442,130.613,185.442z"/>
		<path fill="#232034" d="M130.613,171.442c0,2.33,0,4.67,0,7c2.42,0,4.83,0,7.26,0c0-2.33,0-4.67,0-7
			C135.443,171.442,133.033,171.442,130.613,171.442z"/>
		<path fill="#232034" d="M130.613,157.442c0,2.42,0,4.84,0,7.26c0.09,0,0.17,0,0.26,0c0-2.42,0-4.84,0-7.26
			C130.783,157.442,130.703,157.442,130.613,157.442z"/>
		<path fill="#232034" d="M132.424,178.702c-0.301,0-0.601,0-0.9,0c-0.311,0-0.61,0-0.91,0c0,2.25,0,4.49,0,6.74
			c0.09,0,0.17,0,0.26,0c0,0.09,0,0.17,0,0.26c0.21,0,0.431,0,0.65,0c0.3,0,0.6,0,0.9,0c0.52,0,1.06,0,1.59,0c1.06,0,2.109,0,3.18,0
			c0.14,0,0.28,0,0.42,0c0-0.09,0-0.17,0-0.26c0.09,0,0.17,0,0.26,0c0-2.25,0-4.49,0-6.74c-0.229,0-0.449,0-0.68,0
			c-1.07,0-2.12,0-3.18,0C133.483,178.702,132.943,178.702,132.424,178.702z"/>
		<path fill="#232034" d="M130.873,157.442c0,2.42,0,4.84,0,7.26c0.21,0,0.431,0,0.65,0c0.3,0,0.6,0,0.9,0c0.52,0,1.06,0,1.59,0
			c1.06,0,2.109,0,3.18,0c0.14,0,0.28,0,0.42,0c0-2.42,0-4.84,0-7.26C135.354,157.442,133.123,157.442,130.873,157.442z"/>
		<path fill="#232034" d="M132.424,178.702c0.52,0,1.06,0,1.59,0c1.06,0,2.109,0,3.18,0c0.23,0,0.45,0,0.68,0c0-0.09,0-0.17,0-0.26
			c-2.43,0-4.84,0-7.26,0c0,0.09,0,0.17,0,0.26c0.3,0,0.6,0,0.91,0C131.823,178.702,132.123,178.702,132.424,178.702z"/>
		<path fill="#232034" d="M137.613,185.702c0,2.33,0,4.67,0,7c0.3,0,0.6,0,0.91,0c0.3,0,0.6,0,0.9,0c0.52,0,1.06,0,1.59,0
			c1.06,0,2.109,0,3.18,0c0.23,0,0.45,0,0.68,0c0-2.33,0-4.67,0-7c-0.09,0-0.17,0-0.26,0c0-0.09,0-0.17,0-0.26
			c-2.26,0-4.49,0-6.74,0c0,0.09,0,0.17,0,0.26C137.783,185.702,137.703,185.702,137.613,185.702z"/>
		<path fill="#232034" d="M137.613,185.442c0,0.09,0,0.17,0,0.26c0.09,0,0.17,0,0.26,0c0-0.09,0-0.17,0-0.26
			C137.783,185.442,137.703,185.442,137.613,185.442z"/>
		<path fill="#232034" d="M137.613,157.442c0,2.42,0,4.84,0,7.26c0.09,0,0.17,0,0.26,0c0-2.42,0-4.84,0-7.26
			C137.783,157.442,137.703,157.442,137.613,157.442z"/>
		<path fill="#232034" d="M137.873,157.442c0,2.42,0,4.84,0,7.26c0.21,0,0.431,0,0.65,0c0.3,0,0.6,0,0.9,0c0.52,0,1.06,0,1.59,0
			c1.06,0,2.109,0,3.18,0c0.14,0,0.28,0,0.42,0c0-2.42,0-4.84,0-7.26C142.354,157.442,140.123,157.442,137.873,157.442z"/>
		<path fill="#232034" d="M144.613,185.442c0,0.09,0,0.17,0,0.26c0.09,0,0.17,0,0.26,0c0-0.09,0-0.17,0-0.26
			C144.783,185.442,144.703,185.442,144.613,185.442z"/>
		<path fill="#232034" d="M144.613,171.442c0,3.22,0,5.55,0,7c2.42,0,4.83,0,7.26,0c0-2.33,0-4.67,0-7
			C149.443,171.442,147.033,171.442,144.613,171.442z"/>
		<path fill="#232034" d="M144.613,157.442c0,2.42,0,4.84,0,7.26c0.09,0,0.17,0,0.26,0c0-2.42,0-4.84,0-7.26
			C144.783,157.442,144.703,157.442,144.613,157.442z"/>
		<path fill="#232034" d="M144.613,178.702c0,2.25,0,4.49,0,6.74c0.09,0,0.17,0,0.26,0c0,0.09,0,0.17,0,0.26c0.21,0,0.431,0,0.65,0
			c0.3,0,0.6,0,0.9,0c0.52,0,1.06,0,1.59,0c1.06,0,2.109,0,3.18,0c0.14,0,0.28,0,0.42,0c0-0.09,0-0.17,0-0.26c0.09,0,0.17,0,0.26,0
			c0-2.25,0-4.49,0-6.74c-0.229,0-0.449,0-0.68,0c-1.07,0-2.12,0-3.18,0c-0.53,0-1.07,0-1.59,0c-0.301,0-0.601,0-0.9,0
			C145.213,178.702,144.913,178.702,144.613,178.702z"/>
		<path fill="#232034" d="M144.873,157.442c0,2.42,0,4.84,0,7.26c0.21,0,0.431,0,0.65,0c0.3,0,0.6,0,0.9,0c0.52,0,1.06,0,1.59,0
			c1.06,0,2.109,0,3.18,0c0.14,0,0.28,0,0.42,0c0-2.42,0-4.84,0-7.26C149.354,157.442,147.123,157.442,144.873,157.442z"/>
		<path fill="#232034" d="M148.014,178.702c1.06,0,2.109,0,3.18,0c0.23,0,0.45,0,0.68,0c0-0.09,0-0.17,0-0.26c-2.43,0-4.84,0-7.26,0
			c0,0.09,0,0.18,0,0.26c0.3,0,0.6,0,0.91,0c0.3,0,0.6,0,0.9,0C146.943,178.702,147.483,178.702,148.014,178.702z"/>
		<path fill="#232034" d="M151.613,185.702c0,2.33,0,4.67,0,7c0.3,0,0.6,0,0.91,0c0.3,0,0.6,0,0.9,0c0.52,0,1.06,0,1.59,0
			c1.06,0,2.109,0,3.18,0c0.23,0,0.45,0,0.68,0c0-2.33,0-4.67,0-7c-0.09,0-0.17,0-0.26,0c0-0.09,0-0.17,0-0.26
			c-2.26,0-4.49,0-6.74,0c0,0.09,0,0.17,0,0.26C151.783,185.702,151.703,185.702,151.613,185.702z"/>
		<path fill="#232034" d="M151.613,185.442c0,0.09,0,0.17,0,0.26c0.09,0,0.17,0,0.26,0c0-0.09,0-0.17,0-0.26
			C151.783,185.442,151.703,185.442,151.613,185.442z"/>
		<path fill="#232034" d="M151.613,157.442c0,2.42,0,4.84,0,7.26c0.09,0,0.17,0,0.26,0c0-2.42,0-4.84,0-7.26
			C151.783,157.442,151.703,157.442,151.613,157.442z"/>
		<path fill="#232034" d="M151.873,157.442c0,2.42,0,4.84,0,7.26c0.21,0,0.431,0,0.65,0c0.3,0,0.6,0,0.9,0c0.52,0,1.06,0,1.59,0
			c1.06,0,2.109,0,3.18,0c0.14,0,0.28,0,0.42,0c0-0.09,0-0.17,0-0.26c0.09,0,0.17,0,0.26,0c0-2.33,0-4.67,0-7
			C156.533,157.442,154.203,157.442,151.873,157.442z"/>
		<path fill="#232034" d="M158.613,185.442c0,0.09,0,0.17,0,0.26c0.09,0,0.17,0,0.26,0c0-0.09,0-0.17,0-0.26
			C158.783,185.442,158.703,185.442,158.613,185.442z"/>
		<path fill="#232034" d="M158.613,164.702c0,2.25,0,4.49,0,6.74c2.42,0,4.83,0,7.26,0c0-2.33,0-4.67,0-7c-2.34,0-4.67,0-7,0
			c0,0.09,0,0.17,0,0.26C158.783,164.702,158.703,164.702,158.613,164.702z"/>
		<path fill="#232034" d="M158.613,164.442c0,0.09,0,0.17,0,0.26c0.09,0,0.17,0,0.26,0c0-0.09,0-0.17,0-0.26
			C158.783,164.442,158.703,164.442,158.613,164.442z"/>
		<path fill="#232034" d="M160.424,171.702c-0.301,0-0.601,0-0.9,0c-0.311,0-0.61,0-0.91,0c0,2.25,0,4.49,0,6.74
			c2.42,0,4.83,0,7.26,0c0-2.25,0-4.49,0-6.74c-0.229,0-0.449,0-0.68,0c-1.07,0-2.12,0-3.18,0
			C161.483,171.702,160.943,171.702,160.424,171.702z"/>
		<path fill="#232034" d="M160.424,178.702c-0.301,0-0.601,0-0.9,0c-0.311,0-0.61,0-0.91,0c0,2.25,0,4.49,0,6.74
			c0.09,0,0.17,0,0.26,0c0,0.09,0,0.17,0,0.26c0.21,0,0.431,0,0.65,0c0.3,0,0.6,0,0.9,0c0.52,0,1.06,0,1.59,0c1.06,0,2.109,0,3.18,0
			c0.23,0,0.45,0,0.68,0c0-2.33,0-4.67,0-7c-0.229,0-0.449,0-0.68,0c-1.07,0-2.12,0-3.18,0
			C161.483,178.702,160.943,178.702,160.424,178.702z"/>
		<path fill="#232034" d="M162.014,178.702c1.06,0,2.109,0,3.18,0c0.23,0,0.45,0,0.68,0c0-0.09,0-0.17,0-0.26c-2.43,0-4.84,0-7.26,0
			c0,0.09,0,0.17,0,0.26c0.3,0,0.6,0,0.91,0c0.3,0,0.6,0,0.9,0C160.943,178.702,161.483,178.702,162.014,178.702z"/>
		<path fill="#232034" d="M160.424,171.702c0.52,0,1.06,0,1.59,0c1.06,0,2.109,0,3.18,0c0.23,0,0.45,0,0.68,0c0-0.09,0-0.17,0-0.26
			c-2.43,0-4.84,0-7.26,0c0,0.09,0,0.17,0,0.26c0.3,0,0.6,0,0.91,0C159.823,171.702,160.123,171.702,160.424,171.702z"/>
	</g>
	<g>
	</g>
</g>
<g id="XMLID_1_">
	<g>
		<path fill="#232034" d="M0.25,164.442c0,2.33,0,4.67,0,7c2.42,0,4.83,0,7.26,0c0-2.25,0-4.49,0-6.74c-0.09,0-0.17,0-0.26,0
			c0-0.09,0-0.17,0-0.26C4.91,164.442,2.58,164.442,0.25,164.442z"/>
		<path fill="#232034" d="M2.06,171.702c-0.3,0-0.6,0-0.9,0c-0.31,0-0.61,0-0.91,0c0,2.25,0,4.49,0,6.74c2.42,0,4.83,0,7.26,0
			c0-2.25,0-4.49,0-6.74c-0.23,0-0.45,0-0.68,0c-1.07,0-2.12,0-3.18,0C3.12,171.702,2.58,171.702,2.06,171.702z"/>
		<path fill="#232034" d="M0.25,178.702c0,1.45,0,3.78,0,7c0.3,0,0.6,0,0.91,0c0.3,0,0.6,0,0.9,0c0.52,0,1.06,0,1.59,0
			c1.06,0,2.11,0,3.18,0c0.14,0,0.28,0,0.42,0c0-0.09,0-0.17,0-0.26c0.09,0,0.17,0,0.26,0c0-2.25,0-4.49,0-6.74
			c-0.23,0-0.45,0-0.68,0c-1.07,0-2.12,0-3.18,0c-0.53,0-1.07,0-1.59,0c-0.3,0-0.6,0-0.9,0C0.85,178.702,0.55,178.702,0.25,178.702z
			"/>
		<path fill="#232034" d="M7.51,178.442c-2.43,0-4.84,0-7.26,0c0,0.08,0,0.17,0,0.26c0.3,0,0.6,0,0.91,0c0.3,0,0.6,0,0.9,0
			c0.52,0,1.06,0,1.59,0c1.06,0,2.11,0,3.18,0c0.23,0,0.45,0,0.68,0C7.51,178.612,7.51,178.532,7.51,178.442z"/>
		<path fill="#232034" d="M7.51,171.442c-2.43,0-4.84,0-7.26,0c0,0.09,0,0.17,0,0.26c0.3,0,0.6,0,0.91,0c0.3,0,0.6,0,0.9,0
			c0.52,0,1.06,0,1.59,0c1.06,0,2.11,0,3.18,0c0.23,0,0.45,0,0.68,0C7.51,171.612,7.51,171.532,7.51,171.442z"/>
		<path fill="#232034" d="M7.25,185.702c0,2.33,0,4.67,0,7c0.3,0,0.6,0,0.91,0c0.3,0,0.6,0,0.9,0c0.52,0,1.06,0,1.59,0
			c1.06,0,2.11,0,3.18,0c0.23,0,0.45,0,0.68,0c0-2.33,0-4.67,0-7c-0.09,0-0.17,0-0.26,0c0-0.09,0-0.17,0-0.26c-2.26,0-4.49,0-6.74,0
			c0,0.09,0,0.17,0,0.26C7.42,185.702,7.34,185.702,7.25,185.702z"/>
		<path fill="#232034" d="M7.25,185.442c0,0.09,0,0.17,0,0.26c0.09,0,0.17,0,0.26,0c0-0.09,0-0.17,0-0.26
			C7.42,185.442,7.34,185.442,7.25,185.442z"/>
		<path fill="#232034" d="M7.25,164.442c0,0.09,0,0.17,0,0.26c0.09,0,0.17,0,0.26,0c0-0.09,0-0.17,0-0.26
			C7.42,164.442,7.34,164.442,7.25,164.442z"/>
		<path fill="#232034" d="M7.25,157.442c0,2.33,0,4.67,0,7c0.09,0,0.17,0,0.26,0c0,0.09,0,0.17,0,0.26c0.21,0,0.43,0,0.65,0
			c0.3,0,0.6,0,0.9,0c0.52,0,1.06,0,1.59,0c1.06,0,2.11,0,3.18,0c0.14,0,0.28,0,0.42,0c0-2.42,0-4.84,0-7.26
			C11.91,157.442,9.58,157.442,7.25,157.442z"/>
		<path fill="#5E5F5F" d="M9.06,164.702c-0.3,0-0.6,0-0.9,0c-0.22,0-0.44,0-0.65,0c0,2.25,0,4.49,0,6.74c0,0.09,0,0.17,0,0.26
			c0,2.25,0,4.49,0,6.74c0,0.09,0,0.17,0,0.26c0,2.25,0,4.49,0,6.74c2.25,0,4.48,0,6.74,0c0-2.25,0-4.49,0-6.74
			c0-0.09,0-0.17,0-0.26c0-2.33,0-4.67,0-7c2.42,0,4.83,0,7.26,0c0,2.33,0,4.67,0,7c0,0.09,0,0.17,0,0.26c0,2.25,0,4.49,0,6.74
			c2.25,0,4.48,0,6.74,0c0-2.25,0-4.49,0-6.74c0-0.08,0-0.17,0-0.26c0-1.45,0-3.78,0-7c2.42,0,4.83,0,7.26,0c0,2.33,0,4.67,0,7
			c0,0.09,0,0.17,0,0.26c0,2.25,0,4.49,0,6.74c2.25,0,4.48,0,6.74,0c0-2.25,0-4.49,0-6.74c0-0.09,0-0.17,0-0.26
			c0-2.25,0-4.49,0-6.74c0-0.09,0-0.17,0-0.26c0-2.25,0-4.49,0-6.74c-0.14,0-0.28,0-0.42,0c-1.07,0-2.12,0-3.18,0
			c-0.53,0-1.07,0-1.59,0c-0.3,0-0.6,0-0.9,0c-0.22,0-0.44,0-0.65,0c-0.09,0-0.17,0-0.26,0c-0.14,0-0.28,0-0.42,0
			c-1.07,0-2.12,0-3.18,0c-0.53,0-1.07,0-1.59,0c-0.3,0-0.6,0-0.9,0c-0.22,0-0.44,0-0.65,0c-0.09,0-0.17,0-0.26,0
			c-0.14,0-0.28,0-0.42,0c-1.07,0-2.12,0-3.18,0c-0.53,0-1.07,0-1.59,0c-0.3,0-0.6,0-0.9,0c-0.22,0-0.44,0-0.65,0
			c-0.09,0-0.17,0-0.26,0c-0.14,0-0.28,0-0.42,0c-1.07,0-2.12,0-3.18,0c-0.53,0-1.07,0-1.59,0c-0.3,0-0.6,0-0.9,0
			c-0.22,0-0.44,0-0.65,0c-0.09,0-0.17,0-0.26,0c-0.14,0-0.28,0-0.42,0c-1.07,0-2.12,0-3.18,0
			C10.12,164.702,9.58,164.702,9.06,164.702z"/>
		<path fill="#232034" d="M14.25,185.442c0,0.09,0,0.17,0,0.26c0.09,0,0.17,0,0.26,0c0-0.09,0-0.17,0-0.26
			C14.42,185.442,14.34,185.442,14.25,185.442z"/>
		<path fill="#232034" d="M14.25,171.442c0,2.33,0,4.67,0,7c2.42,0,4.83,0,7.26,0c0-2.33,0-4.67,0-7
			C19.08,171.442,16.67,171.442,14.25,171.442z"/>
		<path fill="#232034" d="M14.25,157.442c0,2.42,0,4.84,0,7.26c0.09,0,0.17,0,0.26,0c0-2.42,0-4.84,0-7.26
			C14.42,157.442,14.34,157.442,14.25,157.442z"/>
		<path fill="#232034" d="M14.25,178.702c0,2.25,0,4.49,0,6.74c0.09,0,0.17,0,0.26,0c0,0.09,0,0.17,0,0.26c0.21,0,0.43,0,0.65,0
			c0.3,0,0.6,0,0.9,0c0.52,0,1.06,0,1.59,0c1.06,0,2.11,0,3.18,0c0.14,0,0.28,0,0.42,0c0-0.09,0-0.17,0-0.26c0.09,0,0.17,0,0.26,0
			c0-2.25,0-4.49,0-6.74c-0.23,0-0.45,0-0.68,0c-1.07,0-2.12,0-3.18,0c-0.53,0-1.07,0-1.59,0c-0.3,0-0.6,0-0.9,0
			C14.85,178.702,14.55,178.702,14.25,178.702z"/>
		<path fill="#232034" d="M14.51,157.442c0,2.42,0,4.84,0,7.26c0.21,0,0.43,0,0.65,0c0.3,0,0.6,0,0.9,0c0.52,0,1.06,0,1.59,0
			c1.06,0,2.11,0,3.18,0c0.14,0,0.28,0,0.42,0c0-2.42,0-4.84,0-7.26C18.99,157.442,16.76,157.442,14.51,157.442z"/>
		<path fill="#232034" d="M21.51,178.442c-2.43,0-4.84,0-7.26,0c0,0.09,0,0.17,0,0.26c0.3,0,0.6,0,0.91,0c0.3,0,0.6,0,0.9,0
			c0.52,0,1.06,0,1.59,0c1.06,0,2.11,0,3.18,0c0.23,0,0.45,0,0.68,0C21.51,178.612,21.51,178.532,21.51,178.442z"/>
		<path fill="#232034" d="M21.25,185.702c0,2.33,0,4.67,0,7c0.3,0,0.6,0,0.91,0c0.3,0,0.6,0,0.9,0c0.52,0,1.06,0,1.59,0
			c1.06,0,2.11,0,3.18,0c0.23,0,0.45,0,0.68,0c0-2.33,0-4.67,0-7c-0.09,0-0.17,0-0.26,0c0-0.09,0-0.17,0-0.26c-2.26,0-4.49,0-6.74,0
			c0,0.09,0,0.17,0,0.26C21.42,185.702,21.34,185.702,21.25,185.702z"/>
		<path fill="#232034" d="M21.25,185.442c0,0.09,0,0.17,0,0.26c0.09,0,0.17,0,0.26,0c0-0.09,0-0.17,0-0.26
			C21.42,185.442,21.34,185.442,21.25,185.442z"/>
		<path fill="#232034" d="M21.25,157.442c0,2.42,0,4.84,0,7.26c0.09,0,0.17,0,0.26,0c0-2.42,0-4.84,0-7.26
			C21.42,157.442,21.34,157.442,21.25,157.442z"/>
		<path fill="#232034" d="M21.51,157.442c0,2.42,0,4.84,0,7.26c0.21,0,0.43,0,0.65,0c0.3,0,0.6,0,0.9,0c0.52,0,1.06,0,1.59,0
			c1.06,0,2.11,0,3.18,0c0.14,0,0.28,0,0.42,0c0-2.42,0-4.84,0-7.26C25.99,157.442,23.76,157.442,21.51,157.442z"/>
		<path fill="#232034" d="M28.25,185.442c0,0.09,0,0.17,0,0.26c0.09,0,0.17,0,0.26,0c0-0.09,0-0.17,0-0.26
			C28.42,185.442,28.34,185.442,28.25,185.442z"/>
		<path fill="#232034" d="M28.25,171.442c0,3.22,0,5.55,0,7c2.42,0,4.83,0,7.26,0c0-2.33,0-4.67,0-7
			C33.08,171.442,30.67,171.442,28.25,171.442z"/>
		<path fill="#232034" d="M28.25,157.442c0,2.42,0,4.84,0,7.26c0.09,0,0.17,0,0.26,0c0-2.42,0-4.84,0-7.26
			C28.42,157.442,28.34,157.442,28.25,157.442z"/>
		<path fill="#232034" d="M28.25,178.702c0,2.25,0,4.49,0,6.74c0.09,0,0.17,0,0.26,0c0,0.09,0,0.17,0,0.26c0.21,0,0.43,0,0.65,0
			c0.3,0,0.6,0,0.9,0c0.52,0,1.06,0,1.59,0c1.06,0,2.11,0,3.18,0c0.14,0,0.28,0,0.42,0c0-0.09,0-0.17,0-0.26c0.09,0,0.17,0,0.26,0
			c0-2.25,0-4.49,0-6.74c-0.23,0-0.45,0-0.68,0c-1.07,0-2.12,0-3.18,0c-0.53,0-1.07,0-1.59,0c-0.3,0-0.6,0-0.9,0
			C28.85,178.702,28.55,178.702,28.25,178.702z"/>
		<path fill="#232034" d="M28.51,157.442c0,2.42,0,4.84,0,7.26c0.21,0,0.43,0,0.65,0c0.3,0,0.6,0,0.9,0c0.52,0,1.06,0,1.59,0
			c1.06,0,2.11,0,3.18,0c0.14,0,0.28,0,0.42,0c0-2.42,0-4.84,0-7.26C32.99,157.442,30.76,157.442,28.51,157.442z"/>
		<path fill="#232034" d="M35.51,178.442c-2.43,0-4.84,0-7.26,0c0,0.09,0,0.18,0,0.26c0.3,0,0.6,0,0.91,0c0.3,0,0.6,0,0.9,0
			c0.52,0,1.06,0,1.59,0c1.06,0,2.11,0,3.18,0c0.23,0,0.45,0,0.68,0C35.51,178.612,35.51,178.532,35.51,178.442z"/>
		<path fill="#232034" d="M35.25,185.702c0,2.33,0,4.67,0,7c0.3,0,0.6,0,0.91,0c0.3,0,0.6,0,0.9,0c0.52,0,1.06,0,1.59,0
			c1.06,0,2.11,0,3.18,0c0.23,0,0.45,0,0.68,0c0-2.33,0-4.67,0-7c-0.09,0-0.17,0-0.26,0c0-0.09,0-0.17,0-0.26c-2.26,0-4.49,0-6.74,0
			c0,0.09,0,0.17,0,0.26C35.42,185.702,35.34,185.702,35.25,185.702z"/>
		<path fill="#232034" d="M35.25,185.442c0,0.09,0,0.17,0,0.26c0.09,0,0.17,0,0.26,0c0-0.09,0-0.17,0-0.26
			C35.42,185.442,35.34,185.442,35.25,185.442z"/>
		<path fill="#232034" d="M35.25,157.442c0,2.42,0,4.84,0,7.26c0.09,0,0.17,0,0.26,0c0-2.42,0-4.84,0-7.26
			C35.42,157.442,35.34,157.442,35.25,157.442z"/>
		<path fill="#232034" d="M35.51,157.442c0,2.42,0,4.84,0,7.26c0.21,0,0.43,0,0.65,0c0.3,0,0.6,0,0.9,0c0.52,0,1.06,0,1.59,0
			c1.06,0,2.11,0,3.18,0c0.14,0,0.28,0,0.42,0c0-0.09,0-0.17,0-0.26c0.09,0,0.17,0,0.26,0c0-2.33,0-4.67,0-7
			C40.17,157.442,37.84,157.442,35.51,157.442z"/>
		<path fill="#232034" d="M42.25,185.442c0,0.09,0,0.17,0,0.26c0.09,0,0.17,0,0.26,0c0-0.09,0-0.17,0-0.26
			C42.42,185.442,42.34,185.442,42.25,185.442z"/>
		<path fill="#232034" d="M42.25,164.702c0,2.25,0,4.49,0,6.74c2.42,0,4.83,0,7.26,0c0-2.33,0-4.67,0-7c-2.34,0-4.67,0-7,0
			c0,0.09,0,0.17,0,0.26C42.42,164.702,42.34,164.702,42.25,164.702z"/>
		<path fill="#232034" d="M42.25,164.442c0,0.09,0,0.17,0,0.26c0.09,0,0.17,0,0.26,0c0-0.09,0-0.17,0-0.26
			C42.42,164.442,42.34,164.442,42.25,164.442z"/>
		<path fill="#232034" d="M43.16,171.702c-0.31,0-0.61,0-0.91,0c0,2.25,0,4.49,0,6.74c2.42,0,4.83,0,7.26,0c0-2.25,0-4.49,0-6.74
			c-0.23,0-0.45,0-0.68,0c-1.07,0-2.12,0-3.18,0c-0.53,0-1.07,0-1.59,0C43.76,171.702,43.46,171.702,43.16,171.702z"/>
		<path fill="#232034" d="M44.06,178.702c-0.3,0-0.6,0-0.9,0c-0.31,0-0.61,0-0.91,0c0,2.25,0,4.49,0,6.74c0.09,0,0.17,0,0.26,0
			c0,0.09,0,0.17,0,0.26c0.21,0,0.43,0,0.65,0c0.3,0,0.6,0,0.9,0c0.52,0,1.06,0,1.59,0c1.06,0,2.11,0,3.18,0c0.23,0,0.45,0,0.68,0
			c0-2.33,0-4.67,0-7c-0.23,0-0.45,0-0.68,0c-1.07,0-2.12,0-3.18,0C45.12,178.702,44.58,178.702,44.06,178.702z"/>
		<path fill="#232034" d="M49.51,178.442c-2.43,0-4.84,0-7.26,0c0,0.09,0,0.17,0,0.26c0.3,0,0.6,0,0.91,0c0.3,0,0.6,0,0.9,0
			c0.52,0,1.06,0,1.59,0c1.06,0,2.11,0,3.18,0c0.23,0,0.45,0,0.68,0C49.51,178.612,49.51,178.532,49.51,178.442z"/>
		<path fill="#232034" d="M49.51,171.442c-2.43,0-4.84,0-7.26,0c0,0.09,0,0.17,0,0.26c0.3,0,0.6,0,0.91,0c0.3,0,0.6,0,0.9,0
			c0.52,0,1.06,0,1.59,0c1.06,0,2.11,0,3.18,0c0.23,0,0.45,0,0.68,0C49.51,171.612,49.51,171.532,49.51,171.442z"/>
	</g>
	<g>
	</g>
</g>
<path fill="#FFFFFF" d="M73.233,80.079c0,2.42,0,4.839,0,7.26c2.42,0,4.84,0,7.259,0c0-2.42,0-4.84,0-7.26
	C78.073,80.079,75.653,80.079,73.233,80.079z"/>
<path fill="#010101" d="M73.233,72.82c0,2.419,0,4.839,0,7.259c2.42,0,4.84,0,7.259,0c0,2.42,0,4.839,0,7.26c2.407,0,4.827,0,7.26,0
	c0-2.42,0-4.84,0-7.26c2.419,0,4.839,0,7.259,0c0-2.419,0-4.839,0-7.259c-3.629,0-7.259,0-10.901,0
	C80.492,72.82,76.862,72.82,73.233,72.82z"/>
</svg>
