<?xml version="1.0" encoding="utf-8"?>
<!-- Generator: Adobe Illustrator 15.0.0, SVG Export Plug-In  -->
<!DOCTYPE svg PUBLIC "-//W3C//DTD SVG 1.1//EN" "http://www.w3.org/Graphics/SVG/1.1/DTD/svg11.dtd" [
	<!ENTITY ns_flows "http://ns.adobe.com/Flows/1.0/">
]>
<svg version="1.1"
	 xmlns="http://www.w3.org/2000/svg" xmlns:xlink="http://www.w3.org/1999/xlink" xmlns:a="http://ns.adobe.com/AdobeSVGViewerExtensions/3.0/"
	 x="0px" y="0px" width="300px" height="300px" viewBox="-44.89 -53.83 300 300" enable-background="new -44.89 -53.83 300 300"
	 xml:space="preserve">
<defs>
</defs>
<path fill="#FFFFFF" d="M0,101.856c0,9.755,0,19.511,0,29.266c2.42,0,4.84,0,7.259,0c0,2.419,0,4.839,0,7.259
	c2.408,0,4.827,0,7.247,0c0-3.63,0-7.259,0-10.889c0-1.815,0-3.63,0-5.444c0-1.815,0-3.63,0-5.445c0-1.814,0-3.63,0-5.443
	c0-1.815,0-3.631,0-5.445c0-1.815,0-3.63,0-5.444c0-0.907,0-1.814,0-2.723c0-0.982,0-1.966,0-2.949c2.509,0,4.991,0,7.499,0
	c0-2.42,0-4.839,0-7.259c2.42,0,4.84,0,7.247,0c0-2.42,0-4.84,0-7.259c4.839,0,9.679,0,14.531,0c2.42,0,4.839,0,7.259,0
	c0-4.84,0-9.681,0-14.52c-2.42,0-4.839,0-7.259,0c0-2.42,0-4.84,0-7.259c-2.42,0-4.853,0-7.272,0c0,4.839,0,9.679,0,14.519
	c-4.84,0-9.666,0-14.506,0c0,2.42,0,4.84,0,7.26c-0.227,0-0.467,0-0.681,0c-2.042,0-4.096,0-6.138,0c-0.214,0-0.44,0-0.681,0
	c0,2.419,0,4.839,0,7.259c-0.214,0-0.44,0-0.681,0c-1.953,0-3.92,0-5.886,0c-0.226,0-0.466,0-0.681,0c0,4.839,0,9.679,0,14.518
	C4.84,101.856,2.42,101.856,0,101.856z"/>
<path fill="#FFFFFF" d="M14.506,138.381c0,2.42,0,4.839,0,7.259c2.509,0,4.991,0,7.499,0c0-2.42,0-4.839,0-7.259
	C19.497,138.381,17.015,138.381,14.506,138.381z"/>
<path fill="#F2FAFD" d="M14.506,97.547c0,0.908,0,1.815,0,2.723c0,1.814,0,3.629,0,5.444c0,1.814,0,3.63,0,5.445
	c0,1.813,0,3.629,0,5.443c0,1.815,0,3.63,0,5.445c0,1.814,0,3.629,0,5.444c0,3.63,0,7.259,0,10.889c2.509,0,4.991,0,7.499,0
	c0,2.42,0,4.839,0,7.259c2.42,0,4.84,0,7.247,0c0,2.42,0,4.84,0,7.259c2.419,0,4.839,0,7.259,0c0,2.421,0,4.841,0,7.261
	c2.42,0,4.853,0,7.272,0c0,2.42,0,4.839,0,7.259c2.42,0,4.839,0,7.259,0c0,2.42,0,4.84,0,7.259c9.667,0,19.357,0,29.037,0
	c0-2.419,0-4.839,0-7.259c2.42,0,4.84,0,7.26,0c0-2.42,0-4.839,0-7.259c0.214,0,0.454,0,0.681,0c2.256,0,4.523,0,6.806,0
	c1.121,0,2.269,0,3.39,0c0.618,0,1.21,0,1.827,0c0.529,0,1.047,0,1.576,0c0.088,0,0.163,0,0.239,0c0,2.42,0,4.839,0,7.259
	c2.495,0,4.991,0,7.485,0c0-2.42,0-4.839,0-7.259c2.408,0,4.827,0,7.247,0c0-2.42,0-4.84,0-7.261c0.24,0,0.467,0,0.681,0
	c6.818,0,13.623,0,20.43,0c0.214,0,0.454,0,0.681,0c0,2.421,0,4.841,0,7.261c2.407,0,4.827,0,7.246,0c0,2.42,0,4.839,0,7.259
	c4.84,0,9.692,0,14.532,0c0-2.42,0-4.839,0-7.259c2.419,0,4.839,0,7.259,0c0-2.42,0-4.84,0-7.261c2.42,0,4.827,0,7.246,0
	c0-2.419,0-4.839,0-7.259c2.42,0,4.84,0,7.271,0c0-2.42,0-4.839,0-7.259c2.421,0,4.841,0,7.261,0c0-4.84,0-9.679,0-14.519
	c2.42,0,4.839,0,7.259,0c0-7.335,0-14.67,0-22.006c-2.42,0-4.839,0-7.259,0c0-2.419,0-4.839,0-7.259c-12.112,0-24.198,0-36.297,0
	c0-4.839,0-9.679,0-14.518c2.42,0,4.84,0,7.26,0c0-2.42,0-4.84,0-7.26c2.419,0,4.839,0,7.259,0c0-7.26,0-14.519,0-21.777
	c-2.42,0-4.84,0-7.259,0c0-2.42,0-4.84,0-7.26c-2.42,0-4.84,0-7.26,0c0-2.421,0-4.84,0-7.26c-2.433,0-4.853,0-7.272,0
	c0-2.42,0-4.84,0-7.259c-7.246,0-14.506,0-21.765,0c0-2.42,0-4.84,0-7.26c-4.853,0-9.692,0-14.52,0c0-2.419,0-4.839,0-7.259
	c-12.187,0-24.361,0-36.522,0c0,2.42,0,4.84,0,7.259c-4.853,0-9.692,0-14.52,0c0,2.42,0,4.84,0,7.26c-2.419,0-4.839,0-7.259,0
	c0,2.419,0,4.839,0,7.259c-2.42,0-4.839,0-7.259,0c0,4.839,0,9.68,0,14.52c-2.42,0-4.853,0-7.272,0c0,2.419,0,4.839,0,7.259
	c2.42,0,4.853,0,7.272,0c0,2.419,0,4.839,0,7.259c2.42,0,4.839,0,7.259,0s4.84,0,7.259,0c0-2.42,0-4.84,0-7.259
	c2.408,0,4.827,0,7.247,0c0-7.259,0-14.519,0-21.778c2.42,0,4.852,0,7.272,0c0-2.42,0-4.84,0-7.259c9.679,0,19.345,0,29.037,0
	c0,2.419,0,4.839,0,7.259c4.902,0,9.83,0,14.732,0c0,2.42,0,4.839,0,7.26c9.692,0,19.371,0,29.037,0c0,2.42,0,4.84,0,7.26
	c2.42,0,4.84,0,7.272,0c0,7.259,0,14.518,0,21.777c-2.433,0-4.853,0-7.272,0c0,7.26,0,14.519,0,21.777c-2.419,0-4.839,0-7.246,0
	c0,2.42,0,4.84,0,7.259c2.407,0,4.827,0,7.246,0c0,4.916,0,9.832,0,14.746c-2.419,0-4.839,0-7.246,0c0,4.839,0,9.68,0,14.52
	c2.407,0,4.827,0,7.246,0c0-2.42,0-4.84,0-7.26c2.42,0,4.84,0,7.272,0c0,0.227,0,0.453,0,0.68c0,4.613,0,9.226,0,13.839
	c-4.853,0-9.691,0-14.519,0c0-2.42,0-4.84,0-7.259c-4.84,0-9.679,0-14.519,0c0,2.419,0,4.839,0,7.259c-2.421,0-4.853,0-7.272,0
	s-4.839,0-7.247,0c0,2.42,0,4.839,0,7.259c-2.494,0-4.99,0-7.485,0c0,2.42,0,4.84,0,7.259c-6.063,0-12.111,0-18.148,0
	c-6.049,0-12.112,0-18.161,0c0-2.419,0-4.839,0-7.259c-2.42,0-4.839,0-7.247,0c0-2.42,0-4.839,0-7.259c-2.419,0-4.839,0-7.259,0
	c0-2.42,0-4.84,0-7.259c0-2.42,0-4.84,0-7.26c-7.259,0-14.531,0-21.79,0c0-4.84,0-9.68,0-14.519c2.419,0,4.839,0,7.259,0
	c0-2.495,0-4.991,0-7.487c2.42,0,4.853,0,7.272,0c0-7.259,0-14.518,0-21.776c-4.853,0-9.692,0-14.531,0c0,2.419,0,4.839,0,7.259
	c-2.407,0-4.827,0-7.247,0c0,2.42,0,4.839,0,7.259c-2.508,0-4.99,0-7.499,0C14.506,95.581,14.506,96.564,14.506,97.547z"/>
<path fill="#DFF3FD" d="M29.252,109.344c0,4.839,0,9.679,0,14.519c7.259,0,14.531,0,21.79,0c0-2.421,0-4.84,0-7.26
	c-2.42,0-4.839,0-7.259,0c0-4.914,0-9.83,0-14.746c-2.42,0-4.853,0-7.272,0c0,2.496,0,4.992,0,7.487
	C34.091,109.344,31.671,109.344,29.252,109.344z"/>
<path fill="#FFFFFF" d="M29.252,36.523c0,7.26,0,14.52,0,21.778c2.419,0,4.839,0,7.259,0c0-2.42,0-4.84,0-7.259
	c2.42,0,4.853,0,7.272,0c0-4.84,0-9.681,0-14.52c2.42,0,4.839,0,7.259,0c0-2.42,0-4.84,0-7.259c2.42,0,4.84,0,7.259,0
	c0-2.42,0-4.84,0-7.26c4.827,0,9.667,0,14.52,0c0-2.419,0-4.839,0-7.259c12.161,0,24.336,0,36.522,0c0,2.42,0,4.84,0,7.259
	c4.827,0,9.667,0,14.52,0c0,2.42,0,4.84,0,7.26c7.259,0,14.519,0,21.765,0c0,2.419,0,4.839,0,7.259c2.42,0,4.84,0,7.272,0
	c0,2.42,0,4.839,0,7.26c2.42,0,4.84,0,7.26,0c0,2.42,0,4.84,0,7.26c2.419,0,4.839,0,7.259,0c0-4.84,0-9.681,0-14.52
	c-2.42,0-4.84,0-7.259,0c0-0.227,0-0.453,0-0.681c0-1.966,0-3.933,0-5.897c0-0.227,0-0.455,0-0.681c-2.42,0-4.84,0-7.26,0
	c0-0.227,0-0.454,0-0.681c0-1.966,0-3.933,0-5.898c0-0.228,0-0.454,0-0.681c-7.272,0-14.519,0-21.778,0c0-2.419,0-4.839,0-7.259
	c-4.839,0-9.68,0-14.531,0c0-2.496,0-4.99,0-7.486c-4.902,0-9.83,0-14.732,0c0-0.227,0-0.454,0-0.681c0-0.454,0-0.907,0-1.361
	c0-0.529,0-1.059,0-1.588c0-0.227,0-0.454,0-0.681s0-0.454,0-0.681c0-0.529,0-1.059,0-1.588c0-0.228,0-0.454,0-0.681
	C92.165,0,82.499,0,72.82,0c0,2.42,0,4.84,0,7.26c-0.24,0-0.454,0-0.681,0c-1.135,0-2.281,0-3.402,0c-1.147,0-2.269,0-3.403,0
	c-1.147,0-2.269,0-3.415,0c-1.21,0-2.42,0-3.618,0c0,2.496,0,4.99,0,7.486c-0.226,0-0.466,0-0.692,0c-2.256,0-4.524,0-6.793,0
	c-2.344,0-4.701,0-7.032,0c0,2.42,0,4.84,0,7.259c-0.24,0-0.454,0-0.681,0c-1.979,0-3.933,0-5.911,0c-0.214,0-0.44,0-0.681,0
	c0,4.84,0,9.679,0,14.519c-0.214,0-0.44,0-0.681,0c-1.953,0-3.933,0-5.886,0C29.718,36.523,29.479,36.523,29.252,36.523z"/>
<path fill="#232034" d="M43.783,101.856c0,4.916,0,9.832,0,14.746c2.42,0,4.839,0,7.259,0c0-4.914,0-9.83,0-14.746
	c0-2.419,0-4.839,0-7.259s0-4.839,0-7.259s0-4.84,0-7.259c-2.42,0-4.839,0-7.259,0C43.783,87.339,43.783,94.598,43.783,101.856z"/>
<path fill="#232034" d="M51.042,131.122c0,2.419,0,4.839,0,7.259c2.42,0,4.84,0,7.259,0c0-2.42,0-4.84,0-7.259
	C55.882,131.122,53.462,131.122,51.042,131.122z"/>
<path fill="#DFF3FD" d="M51.042,123.862c0,2.42,0,4.84,0,7.26c2.42,0,4.84,0,7.259,0c0-2.42,0-4.84,0-7.26
	C55.882,123.862,53.462,123.862,51.042,123.862z"/>
<path fill="#232034" d="M51.042,116.603c0,2.42,0,4.839,0,7.26c2.42,0,4.84,0,7.259,0c0-2.421,0-4.84,0-7.26
	C55.882,116.603,53.462,116.603,51.042,116.603z"/>
<path fill="#E7F6FD" d="M51.042,94.598c0,2.42,0,4.84,0,7.259c2.42,0,4.84,0,7.259,0c0-2.419,0-4.839,0-7.259
	C55.882,94.598,53.462,94.598,51.042,94.598z"/>
<path fill="#010101" d="M51.042,87.339c0,2.42,0,4.839,0,7.259c2.42,0,4.84,0,7.259,0c0,2.42,0,4.84,0,7.259
	c2.408,0,4.827,0,7.247,0c0-4.839,0-9.679,0-14.518c-2.42,0-4.839,0-7.247,0C55.882,87.339,53.462,87.339,51.042,87.339z"/>
<path fill="#848484" d="M51.042,80.08c0,2.419,0,4.839,0,7.259c2.42,0,4.84,0,7.259,0c0-2.42,0-4.84,0-7.259
	C55.882,80.08,53.462,80.08,51.042,80.08z"/>
<path fill="#232034" d="M51.042,65.561c0,4.839,0,9.68,0,14.52c2.42,0,4.84,0,7.259,0c0-2.42,0-4.84,0-7.26c0-2.421,0-4.84,0-7.26
	C55.882,65.561,53.462,65.561,51.042,65.561z"/>
<path fill="#232034" d="M58.301,138.381c0,2.42,0,4.839,0,7.259c2.408,0,4.827,0,7.247,0c0-2.42,0-4.839,0-7.259
	C63.128,138.381,60.709,138.381,58.301,138.381z"/>
<path fill="#C3CAD1" d="M58.301,131.122c0,2.419,0,4.839,0,7.259c2.408,0,4.827,0,7.247,0c0-2.42,0-4.84,0-7.259
	C63.128,131.122,60.709,131.122,58.301,131.122z"/>
<path fill="#232034" d="M58.301,123.862c0,2.42,0,4.84,0,7.26c2.408,0,4.827,0,7.247,0c0-2.42,0-4.84,0-7.26
	C63.128,123.862,60.709,123.862,58.301,123.862z"/>
<path fill="#010101" d="M58.301,116.603c0,2.42,0,4.839,0,7.26c2.408,0,4.827,0,7.247,0c0-2.421,0-4.84,0-7.26
	C63.128,116.603,60.709,116.603,58.301,116.603z"/>
<path fill="#848484" d="M58.301,65.561c0,2.42,0,4.839,0,7.26c2.408,0,4.827,0,7.247,0c0-2.421,0-4.84,0-7.26
	C63.128,65.561,60.709,65.561,58.301,65.561z"/>
<path fill="#232034" d="M58.301,58.302c0,2.419,0,4.839,0,7.259c2.408,0,4.827,0,7.247,0s4.852,0,7.272,0c0-2.42,0-4.84,0-7.259
	c-2.421,0-4.853,0-7.272,0S60.709,58.302,58.301,58.302z"/>
<path fill="#232034" d="M65.548,145.64c0,2.42,0,4.84,0,7.259c6.049,0,12.112,0,18.161,0c6.037,0,12.086,0,18.148,0
	c0-2.419,0-4.839,0-7.259c-2.433,0-4.853,0-7.272,0C84.919,145.64,75.24,145.64,65.548,145.64z"/>
<path fill="#010101" d="M65.548,101.856c0,2.496,0,4.992,0,7.487c2.206,0,4.398,0,6.592,0c0.227,0,0.44,0,0.681,0
	c0-2.495,0-4.991,0-7.487C70.399,101.856,67.968,101.856,65.548,101.856z"/>
<path fill="#DFF3FD" d="M65.548,36.523c0,7.26,0,14.52,0,21.778c2.42,0,4.852,0,7.272,0c0-2.42,0-4.84,0-7.259
	c2.42,0,4.84,0,7.259,0c0-2.42,0-4.84,0-7.26c2.42,0,4.84,0,7.26,0c0,2.42,0,4.84,0,7.26c9.755,0,19.51,0,29.251,0
	c0,2.419,0,4.839,0,7.259c2.42,0,4.852,0,7.272,0c0,2.419,0,4.839,0,7.259c2.42,0,4.84,0,7.259,0c0,2.42,0,4.839,0,7.26
	c2.42,0,4.84,0,7.26,0c0,0.227,0,0.453,0,0.68c0,7.032,0,14.065,0,21.098c2.407,0,4.827,0,7.246,0c0-7.259,0-14.518,0-21.777
	c2.42,0,4.84,0,7.272,0c0-7.26,0-14.519,0-21.777c-2.433,0-4.853,0-7.272,0c0-2.42,0-4.84,0-7.26c-9.666,0-19.345,0-29.037,0
	c0-2.421,0-4.84,0-7.26c-4.902,0-9.83,0-14.732,0c0-2.42,0-4.84,0-7.259c-9.692,0-19.358,0-29.037,0c0,2.419,0,4.839,0,7.259
	C70.399,36.523,67.968,36.523,65.548,36.523z"/>
<path fill="#C3CAD1" d="M86.658,138.381c-7.045,0-14.078,0-21.11,0c0,2.42,0,4.839,0,7.259c9.692,0,19.371,0,29.037,0
	c0-2.42,0-4.839,0-7.259c2.42,0,4.84,0,7.272,0c2.495,0,4.991,0,7.485,0c0-7.259,0-14.519,0-21.778c-2.494,0-4.99,0-7.485,0
	c0-4.914,0-9.83,0-14.746c-2.433,0-4.853,0-7.272,0s-4.839,0-7.246,0c-2.42,0-4.84,0-7.26,0c0-2.419,0-4.839,0-7.259
	c-2.419,0-4.839,0-7.259,0c0-2.42,0-4.839,0-7.259c2.42,0,4.84,0,7.259,0c7.26,0,14.506,0,21.778,0c0,2.42,0,4.839,0,7.259
	c2.495,0,4.991,0,7.485,0c0-2.42,0-4.839,0-7.259c4.827,0,9.667,0,14.52,0c0-2.42,0-4.84,0-7.259c-2.421,0-4.853,0-7.272,0
	c0-4.84,0-9.681,0-14.52c-2.42,0-4.839,0-7.247,0c0-2.42,0-4.84,0-7.259c-9.767,0-19.508,0-29.264,0c0,2.419,0,4.839,0,7.259
	c-2.419,0-4.839,0-7.259,0c-2.421,0-4.853,0-7.272,0c0,2.42,0,4.839,0,7.26c-2.42,0-4.839,0-7.247,0c0,2.42,0,4.84,0,7.26
	c0,2.419,0,4.839,0,7.259c2.408,0,4.827,0,7.247,0c0,4.839,0,9.679,0,14.518c2.42,0,4.852,0,7.272,0c0,2.496,0,4.992,0,7.487
	c-0.24,0-0.454,0-0.681,0c-2.193,0-4.386,0-6.592,0c0-2.495,0-4.991,0-7.487c-2.42,0-4.839,0-7.247,0c-2.419,0-4.839,0-7.259,0
	c0,4.916,0,9.832,0,14.746c2.42,0,4.84,0,7.259,0c2.408,0,4.827,0,7.247,0c0,2.42,0,4.839,0,7.26c2.42,0,4.852,0,7.272,0
	c0-2.421,0-4.84,0-7.26c2.42,0,4.84,0,7.259,0c0,2.42,0,4.839,0,7.26c2.42,0,4.84,0,7.26,0c0-2.421,0-4.84,0-7.26
	c0.214,0,0.454,0,0.681,0c2.192,0,4.386,0,6.565,0c0,2.42,0,4.839,0,7.26c2.42,0,4.84,0,7.272,0c0,2.42,0,4.84,0,7.26
	c-4.853,0-9.692,0-14.519,0c0,2.419,0,4.839,0,7.259C87.112,138.381,86.872,138.381,86.658,138.381z"/>
<path fill="#848484" d="M72.82,87.339c0,2.42,0,4.839,0,7.259c2.42,0,4.84,0,7.259,0c0-2.42,0-4.839,0-7.259
	C77.66,87.339,75.24,87.339,72.82,87.339z"/>
<path fill="#848484" d="M72.82,58.302c0,2.419,0,4.839,0,7.259c2.42,0,4.84,0,7.259,0c0-2.42,0-4.84,0-7.259
	C77.66,58.302,75.24,58.302,72.82,58.302z"/>
<path fill="#232034" d="M72.82,51.043c0,2.419,0,4.839,0,7.259c2.42,0,4.84,0,7.259,0c9.756,0,19.497,0,29.264,0
	c2.408,0,4.827,0,7.247,0c0-2.42,0-4.84,0-7.259c-9.741,0-19.496,0-29.251,0c-2.42,0-4.84,0-7.26,0
	C77.66,51.043,75.24,51.043,72.82,51.043z"/>
<path fill="#E7F6FD" d="M80.079,94.598c0,2.42,0,4.84,0,7.259c2.42,0,4.84,0,7.26,0c0-2.419,0-4.839,0-7.259
	C84.919,94.598,82.499,94.598,80.079,94.598z"/>
<path fill="#010101" d="M80.079,87.339c0,2.42,0,4.839,0,7.259c2.42,0,4.84,0,7.26,0c0,2.42,0,4.84,0,7.259c2.407,0,4.826,0,7.246,0
	c0-2.419,0-4.839,0-7.259c2.42,0,4.84,0,7.272,0c0-2.42,0-4.839,0-7.259C94.585,87.339,87.339,87.339,80.079,87.339z"/>
<path fill="#E7F6FD" d="M80.079,43.783c0,2.42,0,4.84,0,7.26c2.42,0,4.84,0,7.26,0c0-2.42,0-4.84,0-7.26
	C84.919,43.783,82.499,43.783,80.079,43.783z"/>
<path fill="#010101" d="M87.339,116.603c0,2.42,0,4.839,0,7.26c-2.42,0-4.84,0-7.26,0c0-2.421,0-4.84,0-7.26
	c-2.419,0-4.839,0-7.259,0c0,2.42,0,4.839,0,7.26c-2.421,0-4.853,0-7.272,0c0,2.42,0,4.84,0,7.26c0,2.419,0,4.839,0,7.259
	c7.032,0,14.065,0,21.11,0c0.214,0,0.454,0,0.681,0c0-2.42,0-4.84,0-7.259c4.826,0,9.666,0,14.519,0c0-2.42,0-4.84,0-7.26
	c-2.433,0-4.853,0-7.272,0c0-2.421,0-4.84,0-7.26c-2.18,0-4.373,0-6.565,0C87.793,116.603,87.553,116.603,87.339,116.603z"/>
<path fill="#FFFFFF" d="M101.618,160.159c-0.529,0-1.047,0-1.576,0c-0.617,0-1.209,0-1.827,0c-1.121,0-2.269,0-3.39,0
	c-2.282,0-4.55,0-6.806,0c-0.227,0-0.467,0-0.681,0c0,2.42,0,4.839,0,7.259c-2.42,0-4.84,0-7.26,0c0,2.42,0,4.84,0,7.259
	c-9.68,0-19.37,0-29.037,0c0-2.419,0-4.839,0-7.259c-2.42,0-4.839,0-7.259,0c0-2.42,0-4.839,0-7.259c-2.42,0-4.853,0-7.272,0
	c0-2.42,0-4.84,0-7.261c-2.42,0-4.84,0-7.259,0c0-2.419,0-4.839,0-7.259c-2.407,0-4.827,0-7.247,0c0,4.84,0,9.68,0,14.52
	c2.42,0,4.84,0,7.247,0c0,0.227,0,0.453,0,0.681c0,1.965,0,3.932,0,5.897c0,0.227,0,0.454,0,0.681c2.419,0,4.839,0,7.259,0
	c0,2.42,0,4.84,0,7.259c2.42,0,4.853,0,7.272,0c0,0.228,0,0.454,0,0.681c0,1.967,0,3.933,0,5.898c0,0.228,0,0.454,0,0.681
	c2.42,0,4.839,0,7.259,0c0,2.421,0,4.84,0,7.26c9.667,0,19.357,0,29.037,0c0-2.42,0-4.839,0-7.26c0.151,0,0.303,0,0.441,0
	c7.121,0,14.216,0,21.337,0c0-2.42,0-4.84,0-7.26c0.227,0,0.441,0,0.68,0c2.029,0,4.071,0,6.113,0c0.227,0,0.467,0,0.692,0
	c0-2.419,0-4.839,0-7.259c-2.494,0-4.99,0-7.485,0c0-2.42,0-4.839,0-7.259C101.781,160.159,101.706,160.159,101.618,160.159z"/>
<path fill="#848484" d="M94.585,138.381c0,2.42,0,4.839,0,7.259c2.42,0,4.84,0,7.272,0c0-2.42,0-4.839,0-7.259
	C99.425,138.381,97.005,138.381,94.585,138.381z"/>
<path fill="#848484" d="M94.585,94.598c0,2.42,0,4.84,0,7.259c2.42,0,4.84,0,7.272,0c0,4.916,0,9.832,0,14.746
	c2.495,0,4.991,0,7.485,0c0-2.42,0-4.84,0-7.259c2.408,0,4.827,0,7.247,0c0-2.495,0-4.991,0-7.487c2.42,0,4.852,0,7.272,0
	c0-2.419,0-4.839,0-7.259c2.42,0,4.84,0,7.259,0c0-7.259,0-14.518,0-21.777c-2.419,0-4.839,0-7.259,0c0-2.421,0-4.84,0-7.26
	c-2.421,0-4.853,0-7.272,0c0,4.839,0,9.68,0,14.52c2.42,0,4.852,0,7.272,0c0,2.419,0,4.839,0,7.259c-4.853,0-9.692,0-14.52,0
	c0,2.42,0,4.839,0,7.259c-2.494,0-4.99,0-7.485,0C99.425,94.598,97.005,94.598,94.585,94.598z"/>
<path fill="#232034" d="M101.857,138.381c0,2.42,0,4.839,0,7.259c2.495,0,4.991,0,7.485,0c0-2.42,0-4.839,0-7.259
	C106.849,138.381,104.353,138.381,101.857,138.381z"/>
<path fill="#FFFFFF" d="M109.343,160.159c0,2.42,0,4.839,0,7.259c2.408,0,4.827,0,7.247,0c0-2.42,0-4.839,0-7.259
	C114.17,160.159,111.751,160.159,109.343,160.159z"/>
<path fill="#232034" d="M109.343,116.603c0,7.26,0,14.52,0,21.778c2.408,0,4.827,0,7.247,0c0-4.84,0-9.679,0-14.519
	c0-2.421,0-4.84,0-7.26c2.42,0,4.852,0,7.272,0c0-2.42,0-4.84,0-7.259c2.42,0,4.84,0,7.259,0c0-2.495,0-4.991,0-7.487
	c2.42,0,4.84,0,7.26,0c0-2.419,0-4.839,0-7.259c0-7.032,0-14.065,0-21.098c0-0.227,0-0.453,0-0.68c-2.42,0-4.84,0-7.26,0
	c0,7.26,0,14.519,0,21.777c-2.419,0-4.839,0-7.259,0c0,2.42,0,4.84,0,7.259c-2.421,0-4.853,0-7.272,0c0,2.496,0,4.992,0,7.487
	c-2.42,0-4.839,0-7.247,0C109.343,111.763,109.343,114.183,109.343,116.603z"/>
<path fill="#848484" d="M109.343,58.302c0,2.419,0,4.839,0,7.259c2.408,0,4.827,0,7.247,0c0-2.42,0-4.84,0-7.259
	C114.17,58.302,111.751,58.302,109.343,58.302z"/>
<path fill="#DFF3FD" d="M116.59,123.862c0,4.84,0,9.679,0,14.519c2.42,0,4.852,0,7.272,0c0-2.42,0-4.84,0-7.259
	c4.84,0,9.679,0,14.519,0c0-4.84,0-9.681,0-14.52c2.407,0,4.827,0,7.246,0c0-4.914,0-9.83,0-14.746c-2.419,0-4.839,0-7.246,0
	c-2.42,0-4.84,0-7.26,0c0,2.496,0,4.992,0,7.487c0,2.419,0,4.839,0,7.259c-2.419,0-4.839,0-7.259,0c0,2.42,0,4.839,0,7.26
	C121.441,123.862,119.01,123.862,116.59,123.862z"/>
<path fill="#E7F6FD" d="M116.59,116.603c0,2.42,0,4.839,0,7.26c2.42,0,4.852,0,7.272,0c0-2.421,0-4.84,0-7.26
	C121.441,116.603,119.01,116.603,116.59,116.603z"/>
<path fill="#232034" d="M116.59,58.302c0,2.419,0,4.839,0,7.259c2.42,0,4.852,0,7.272,0c0-2.42,0-4.84,0-7.259
	C121.441,58.302,119.01,58.302,116.59,58.302z"/>
<path fill="#FFFFFF" d="M116.59,152.898c0,2.421,0,4.841,0,7.261c2.42,0,4.852,0,7.272,0c0,0.227,0,0.453,0,0.681
	c0,1.965,0,3.932,0,5.897c0,0.227,0,0.454,0,0.681c2.42,0,4.84,0,7.259,0c0,0.227,0,0.454,0,0.681c0,1.966,0,3.933,0,5.897
	c0,0.228,0,0.454,0,0.681c2.42,0,4.84,0,7.26,0c0,0.228,0,0.454,0,0.681c0,1.967,0,3.933,0,5.898c0,0.228,0,0.454,0,0.681
	c7.246,0,14.519,0,21.778,0c0-2.42,0-4.84,0-7.26c0.226,0,0.44,0,0.68,0c4.613,0,9.213,0,13.825,0c0-2.419,0-4.839,0-7.259
	c0.24,0,0.467,0,0.681,0c1.979,0,3.945,0,5.912,0c0.226,0,0.44,0,0.679,0c0-2.42,0-4.839,0-7.259c0.228,0,0.442,0,0.669,0
	c1.979,0,3.932,0,5.911,0c0.227,0,0.44,0,0.681,0c0-4.84,0-9.68,0-14.52c0.227,0,0.44,0,0.681,0c1.953,0,3.932,0,5.897,0
	c0.214,0,0.454,0,0.681,0c0-4.839,0-9.679,0-14.518c2.495,0,4.99,0,7.486,0c0-4.84,0-9.681,0-14.52c2.42,0,4.84,0,7.26,0
	c0-0.907,0-1.814,0-2.723c0-0.227,0-0.453,0-0.681c0-0.227,0-0.453,0-0.679c0-0.229,0-0.454,0-0.681c0-0.229,0-0.454,0-0.681
	c0-0.228,0-0.454,0-0.681c0-0.228,0-0.454,0-0.681c0-0.228,0-0.454,0-0.681c0-0.228,0-0.454,0-0.681c0-0.228,0-0.454,0-0.681
	c0-0.228,0-0.454,0-0.681s0-0.454,0-0.681s0-0.454,0-0.681s0-0.454,0-0.681s0-0.454,0-0.681s0-0.454,0-0.681s0-0.454,0-0.681
	s0-0.454,0-0.681s0-0.454,0-0.681c0-0.226,0-0.452,0-0.68c0-0.227,0-0.453,0-0.681c0-0.227,0-0.453,0-0.681c0-0.227,0-0.453,0-0.681
	c0-0.453,0-0.907,0-1.361c0-0.453,0-0.907,0-1.361c0-0.227,0-0.453,0-0.68c0-0.303,0-0.605,0-0.908c-2.42,0-4.84,0-7.26,0
	c0-2.42,0-4.839,0-7.259c-4.915,0-9.843,0-14.745,0c0-2.42,0-4.84,0-7.259c-7.261,0-14.532,0-21.778,0c0-2.42,0-4.84,0-7.26
	c-2.42,0-4.84,0-7.259,0c0,2.42,0,4.84,0,7.26c-2.42,0-4.84,0-7.26,0c0,4.839,0,9.679,0,14.518c12.099,0,24.185,0,36.297,0
	c0,2.42,0,4.84,0,7.259c2.42,0,4.839,0,7.259,0c0,7.336,0,14.671,0,22.006c-2.42,0-4.839,0-7.259,0c0,4.84,0,9.679,0,14.519
	c-2.42,0-4.84,0-7.261,0c0,2.42,0,4.839,0,7.259c-2.432,0-4.852,0-7.271,0c0,2.42,0,4.84,0,7.259c-2.419,0-4.826,0-7.246,0
	c0,2.421,0,4.841,0,7.261c-2.42,0-4.84,0-7.259,0c0,2.42,0,4.839,0,7.259c-4.84,0-9.692,0-14.532,0c0-2.42,0-4.839,0-7.259
	c-2.419,0-4.839,0-7.246,0c0-2.42,0-4.84,0-7.261c-0.227,0-0.467,0-0.681,0c-6.807,0-13.611,0-20.43,0
	C117.057,152.898,116.83,152.898,116.59,152.898z"/>
<path fill="#E7F6FD" d="M123.862,109.344c0,2.419,0,4.839,0,7.259c2.42,0,4.84,0,7.259,0c0-2.42,0-4.84,0-7.259
	C128.702,109.344,126.282,109.344,123.862,109.344z"/>
<path fill="#232034" d="M123.862,65.561c0,2.42,0,4.839,0,7.26c2.42,0,4.84,0,7.259,0c0-2.421,0-4.84,0-7.26
	C128.702,65.561,126.282,65.561,123.862,65.561z"/>
<path fill="#DFF3FD" d="M138.381,131.122c0,2.419,0,4.839,0,7.259c4.827,0,9.666,0,14.519,0c0-4.613,0-9.226,0-13.839
	c0-0.227,0-0.453,0-0.68c-2.433,0-4.853,0-7.272,0c0,2.42,0,4.84,0,7.26C143.208,131.122,140.788,131.122,138.381,131.122z"/>
<path fill="#FFFFFF" d="M167.418,51.043c0,7.259,0,14.518,0,21.777c2.42,0,4.827,0,7.246,0c0-7.26,0-14.519,0-21.777
	C172.245,51.043,169.838,51.043,167.418,51.043z"/>
<g id="XMLID_2_">
	<g>
		<path fill="#232034" d="M117.255,163.529c0,2.33,0,4.67,0,7c2.42,0,4.83,0,7.26,0c0-2.25,0-4.49,0-6.74c-0.09,0-0.17,0-0.26,0
			c0-0.09,0-0.17,0-0.26C121.915,163.529,119.585,163.529,117.255,163.529z"/>
		<path fill="#232034" d="M117.255,170.789c0,2.25,0,4.49,0,6.74c2.42,0,4.83,0,7.26,0c0-2.25,0-4.49,0-6.74
			c-0.229,0-0.449,0-0.68,0c-1.07,0-2.12,0-3.18,0c-0.53,0-1.07,0-1.59,0c-0.301,0-0.601,0-0.9,0
			C117.854,170.789,117.555,170.789,117.255,170.789z"/>
		<path fill="#232034" d="M117.255,177.789c0,1.45,0,3.78,0,7c0.3,0,0.6,0,0.91,0c0.3,0,0.6,0,0.9,0c0.52,0,1.06,0,1.59,0
			c1.06,0,2.109,0,3.18,0c0.14,0,0.28,0,0.42,0c0-0.09,0-0.17,0-0.26c0.09,0,0.17,0,0.26,0c0-2.25,0-4.49,0-6.74
			c-0.229,0-0.449,0-0.68,0c-1.07,0-2.12,0-3.18,0c-0.53,0-1.07,0-1.59,0c-0.301,0-0.601,0-0.9,0
			C117.854,177.789,117.555,177.789,117.255,177.789z"/>
		<path fill="#232034" d="M124.515,177.529c-2.43,0-4.84,0-7.26,0c0,0.08,0,0.17,0,0.26c0.3,0,0.6,0,0.91,0c0.3,0,0.6,0,0.9,0
			c0.52,0,1.06,0,1.59,0c1.06,0,2.109,0,3.18,0c0.23,0,0.45,0,0.68,0C124.515,177.699,124.515,177.619,124.515,177.529z"/>
		<path fill="#232034" d="M124.515,170.529c-2.43,0-4.84,0-7.26,0c0,0.09,0,0.17,0,0.26c0.3,0,0.6,0,0.91,0c0.3,0,0.6,0,0.9,0
			c0.52,0,1.06,0,1.59,0c1.06,0,2.109,0,3.18,0c0.23,0,0.45,0,0.68,0C124.515,170.699,124.515,170.619,124.515,170.529z"/>
		<path fill="#232034" d="M124.255,184.789c0,2.33,0,4.67,0,7c0.3,0,0.6,0,0.91,0c0.3,0,0.6,0,0.9,0c0.52,0,1.06,0,1.59,0
			c1.06,0,2.109,0,3.18,0c0.23,0,0.45,0,0.68,0c0-2.33,0-4.67,0-7c-0.09,0-0.17,0-0.26,0c0-0.09,0-0.17,0-0.26
			c-2.26,0-4.49,0-6.74,0c0,0.09,0,0.17,0,0.26C124.425,184.789,124.345,184.789,124.255,184.789z"/>
		<path fill="#232034" d="M124.255,184.529c0,0.09,0,0.17,0,0.26c0.09,0,0.17,0,0.26,0c0-0.09,0-0.17,0-0.26
			C124.425,184.529,124.345,184.529,124.255,184.529z"/>
		<path fill="#232034" d="M124.255,163.529c0,0.09,0,0.17,0,0.26c0.09,0,0.17,0,0.26,0c0-0.09,0-0.17,0-0.26
			C124.425,163.529,124.345,163.529,124.255,163.529z"/>
		<path fill="#232034" d="M124.255,156.529c0,2.33,0,4.67,0,7c0.09,0,0.17,0,0.26,0c0,0.09,0,0.17,0,0.26c0.21,0,0.431,0,0.65,0
			c0.3,0,0.6,0,0.9,0c0.52,0,1.06,0,1.59,0c1.06,0,2.109,0,3.18,0c0.14,0,0.28,0,0.42,0c0-2.42,0-4.84,0-7.26
			C128.915,156.529,126.585,156.529,124.255,156.529z"/>
		<path fill="#C3CAD1" d="M124.515,163.789c0,2.25,0,4.49,0,6.74c0,0.09,0,0.17,0,0.26c0,2.25,0,4.49,0,6.74c0,0.09,0,0.17,0,0.26
			c0,2.25,0,4.49,0,6.74c2.25,0,4.48,0,6.74,0c0-2.25,0-4.49,0-6.74c0-0.09,0-0.17,0-0.26c0-2.33,0-4.67,0-7c2.42,0,4.83,0,7.26,0
			c0,2.33,0,4.67,0,7c0,0.09,0,0.17,0,0.26c0,2.25,0,4.49,0,6.74c2.25,0,4.48,0,6.74,0c0-2.25,0-4.49,0-6.74c0-0.08,0-0.17,0-0.26
			c0-1.45,0-3.78,0-7c2.42,0,4.83,0,7.26,0c0,2.33,0,4.67,0,7c0,0.09,0,0.17,0,0.26c0,2.25,0,4.49,0,6.74c2.25,0,4.48,0,6.74,0
			c0-2.25,0-4.49,0-6.74c0-0.09,0-0.17,0-0.26c0-2.25,0-4.49,0-6.74c0-0.09,0-0.17,0-0.26c0-2.25,0-4.49,0-6.74
			c-0.14,0-0.28,0-0.42,0c-1.07,0-2.12,0-3.18,0c-0.53,0-1.07,0-1.59,0c-0.301,0-0.601,0-0.9,0c-0.22,0-0.44,0-0.65,0
			c-0.09,0-0.17,0-0.26,0c-0.14,0-0.28,0-0.42,0c-1.07,0-2.12,0-3.18,0c-0.53,0-1.07,0-1.59,0c-0.301,0-0.601,0-0.9,0
			c-0.22,0-0.44,0-0.65,0c-0.09,0-0.17,0-0.26,0c-0.14,0-0.28,0-0.42,0c-1.07,0-2.12,0-3.18,0c-0.53,0-1.07,0-1.59,0
			c-0.301,0-0.601,0-0.9,0c-0.22,0-0.44,0-0.65,0c-0.09,0-0.17,0-0.26,0c-0.14,0-0.28,0-0.42,0c-1.07,0-2.12,0-3.18,0
			c-0.53,0-1.07,0-1.59,0c-0.301,0-0.601,0-0.9,0c-0.22,0-0.44,0-0.65,0c-0.09,0-0.17,0-0.26,0c-0.14,0-0.28,0-0.42,0
			c-1.07,0-2.12,0-3.18,0c-0.53,0-1.07,0-1.59,0c-0.301,0-0.601,0-0.9,0C124.945,163.789,124.725,163.789,124.515,163.789z"/>
		<path fill="#232034" d="M131.255,184.529c0,0.09,0,0.17,0,0.26c0.09,0,0.17,0,0.26,0c0-0.09,0-0.17,0-0.26
			C131.425,184.529,131.345,184.529,131.255,184.529z"/>
		<path fill="#232034" d="M131.255,170.529c0,2.33,0,4.67,0,7c2.42,0,4.83,0,7.26,0c0-2.33,0-4.67,0-7
			C136.085,170.529,133.675,170.529,131.255,170.529z"/>
		<path fill="#232034" d="M131.255,156.529c0,2.42,0,4.84,0,7.26c0.09,0,0.17,0,0.26,0c0-2.42,0-4.84,0-7.26
			C131.425,156.529,131.345,156.529,131.255,156.529z"/>
		<path fill="#232034" d="M131.255,177.789c0,2.25,0,4.49,0,6.74c0.09,0,0.17,0,0.26,0c0,0.09,0,0.17,0,0.26c0.21,0,0.431,0,0.65,0
			c0.3,0,0.6,0,0.9,0c0.52,0,1.06,0,1.59,0c1.06,0,2.109,0,3.18,0c0.14,0,0.28,0,0.42,0c0-0.09,0-0.17,0-0.26c0.09,0,0.17,0,0.26,0
			c0-2.25,0-4.49,0-6.74c-0.229,0-0.449,0-0.68,0c-1.07,0-2.12,0-3.18,0c-0.53,0-1.07,0-1.59,0c-0.301,0-0.601,0-0.9,0
			C131.854,177.789,131.555,177.789,131.255,177.789z"/>
		<path fill="#232034" d="M131.515,156.529c0,2.42,0,4.84,0,7.26c0.21,0,0.431,0,0.65,0c0.3,0,0.6,0,0.9,0c0.52,0,1.06,0,1.59,0
			c1.06,0,2.109,0,3.18,0c0.14,0,0.28,0,0.42,0c0-2.42,0-4.84,0-7.26C135.995,156.529,133.765,156.529,131.515,156.529z"/>
		<path fill="#232034" d="M138.515,177.529c-2.43,0-4.84,0-7.26,0c0,0.09,0,0.17,0,0.26c0.3,0,0.6,0,0.91,0c0.3,0,0.6,0,0.9,0
			c0.52,0,1.06,0,1.59,0c1.06,0,2.109,0,3.18,0c0.23,0,0.45,0,0.68,0C138.515,177.699,138.515,177.619,138.515,177.529z"/>
		<path fill="#232034" d="M138.255,184.789c0,2.33,0,4.67,0,7c0.3,0,0.6,0,0.91,0c0.3,0,0.6,0,0.9,0c0.52,0,1.06,0,1.59,0
			c1.06,0,2.109,0,3.18,0c0.23,0,0.45,0,0.68,0c0-2.33,0-4.67,0-7c-0.09,0-0.17,0-0.26,0c0-0.09,0-0.17,0-0.26
			c-2.26,0-4.49,0-6.74,0c0,0.09,0,0.17,0,0.26C138.425,184.789,138.345,184.789,138.255,184.789z"/>
		<path fill="#232034" d="M138.255,184.529c0,0.09,0,0.17,0,0.26c0.09,0,0.17,0,0.26,0c0-0.09,0-0.17,0-0.26
			C138.425,184.529,138.345,184.529,138.255,184.529z"/>
		<path fill="#232034" d="M138.255,156.529c0,2.42,0,4.84,0,7.26c0.09,0,0.17,0,0.26,0c0-2.42,0-4.84,0-7.26
			C138.425,156.529,138.345,156.529,138.255,156.529z"/>
		<path fill="#232034" d="M138.515,156.529c0,2.42,0,4.84,0,7.26c0.21,0,0.431,0,0.65,0c0.3,0,0.6,0,0.9,0c0.52,0,1.06,0,1.59,0
			c1.06,0,2.109,0,3.18,0c0.14,0,0.28,0,0.42,0c0-2.42,0-4.84,0-7.26C142.995,156.529,140.765,156.529,138.515,156.529z"/>
		<path fill="#232034" d="M145.255,184.529c0,0.09,0,0.17,0,0.26c0.09,0,0.17,0,0.26,0c0-0.09,0-0.17,0-0.26
			C145.425,184.529,145.345,184.529,145.255,184.529z"/>
		<path fill="#232034" d="M145.255,170.529c0,3.22,0,5.55,0,7c2.42,0,4.83,0,7.26,0c0-2.33,0-4.67,0-7
			C150.085,170.529,147.675,170.529,145.255,170.529z"/>
		<path fill="#232034" d="M145.255,156.529c0,2.42,0,4.84,0,7.26c0.09,0,0.17,0,0.26,0c0-2.42,0-4.84,0-7.26
			C145.425,156.529,145.345,156.529,145.255,156.529z"/>
		<path fill="#232034" d="M146.165,177.789c-0.311,0-0.61,0-0.91,0c0,2.25,0,4.49,0,6.74c0.09,0,0.17,0,0.26,0c0,0.09,0,0.17,0,0.26
			c0.21,0,0.431,0,0.65,0c0.3,0,0.6,0,0.9,0c0.52,0,1.06,0,1.59,0c1.06,0,2.109,0,3.18,0c0.14,0,0.28,0,0.42,0c0-0.09,0-0.17,0-0.26
			c0.09,0,0.17,0,0.26,0c0-2.25,0-4.49,0-6.74c-0.229,0-0.449,0-0.68,0c-1.07,0-2.12,0-3.18,0c-0.53,0-1.07,0-1.59,0
			C146.765,177.789,146.465,177.789,146.165,177.789z"/>
		<path fill="#232034" d="M145.515,156.529c0,2.42,0,4.84,0,7.26c0.21,0,0.431,0,0.65,0c0.3,0,0.6,0,0.9,0c0.52,0,1.06,0,1.59,0
			c1.06,0,2.109,0,3.18,0c0.14,0,0.28,0,0.42,0c0-2.42,0-4.84,0-7.26C149.995,156.529,147.765,156.529,145.515,156.529z"/>
		<path fill="#232034" d="M152.515,177.529c-2.43,0-4.84,0-7.26,0c0,0.09,0,0.18,0,0.26c0.3,0,0.6,0,0.91,0c0.3,0,0.6,0,0.9,0
			c0.52,0,1.06,0,1.59,0c1.06,0,2.109,0,3.18,0c0.23,0,0.45,0,0.68,0C152.515,177.699,152.515,177.619,152.515,177.529z"/>
		<path fill="#232034" d="M152.255,184.789c0,2.33,0,4.67,0,7c0.3,0,0.6,0,0.91,0c0.3,0,0.6,0,0.9,0c0.52,0,1.06,0,1.59,0
			c1.06,0,2.109,0,3.18,0c0.23,0,0.45,0,0.68,0c0-2.33,0-4.67,0-7c-0.09,0-0.17,0-0.26,0c0-0.09,0-0.17,0-0.26
			c-2.26,0-4.49,0-6.74,0c0,0.09,0,0.17,0,0.26C152.425,184.789,152.345,184.789,152.255,184.789z"/>
		<path fill="#232034" d="M152.255,184.529c0,0.09,0,0.17,0,0.26c0.09,0,0.17,0,0.26,0c0-0.09,0-0.17,0-0.26
			C152.425,184.529,152.345,184.529,152.255,184.529z"/>
		<path fill="#232034" d="M152.255,156.529c0,2.42,0,4.84,0,7.26c0.09,0,0.17,0,0.26,0c0-2.42,0-4.84,0-7.26
			C152.425,156.529,152.345,156.529,152.255,156.529z"/>
		<path fill="#232034" d="M152.515,156.529c0,2.42,0,4.84,0,7.26c0.21,0,0.431,0,0.65,0c0.3,0,0.6,0,0.9,0c0.52,0,1.06,0,1.59,0
			c1.06,0,2.109,0,3.18,0c0.14,0,0.28,0,0.42,0c0-0.09,0-0.17,0-0.26c0.09,0,0.17,0,0.26,0c0-2.33,0-4.67,0-7
			C157.175,156.529,154.845,156.529,152.515,156.529z"/>
		<path fill="#232034" d="M159.255,184.529c0,0.09,0,0.17,0,0.26c0.09,0,0.17,0,0.26,0c0-0.09,0-0.17,0-0.26
			C159.425,184.529,159.345,184.529,159.255,184.529z"/>
		<path fill="#232034" d="M159.255,163.789c0,2.25,0,4.49,0,6.74c2.42,0,4.83,0,7.26,0c0-2.33,0-4.67,0-7c-2.34,0-4.67,0-7,0
			c0,0.09,0,0.17,0,0.26C159.425,163.789,159.345,163.789,159.255,163.789z"/>
		<path fill="#232034" d="M159.255,163.529c0,0.09,0,0.17,0,0.26c0.09,0,0.17,0,0.26,0c0-0.09,0-0.17,0-0.26
			C159.425,163.529,159.345,163.529,159.255,163.529z"/>
		<path fill="#232034" d="M159.255,170.789c0,2.25,0,4.49,0,6.74c2.42,0,4.83,0,7.26,0c0-2.25,0-4.49,0-6.74
			c-0.229,0-0.449,0-0.68,0c-1.07,0-2.12,0-3.18,0c-0.53,0-1.07,0-1.59,0c-0.301,0-0.601,0-0.9,0
			C159.854,170.789,159.555,170.789,159.255,170.789z"/>
		<path fill="#232034" d="M159.255,177.789c0,2.25,0,4.49,0,6.74c0.09,0,0.17,0,0.26,0c0,0.09,0,0.17,0,0.26c0.21,0,0.431,0,0.65,0
			c0.3,0,0.6,0,0.9,0c0.52,0,1.06,0,1.59,0c1.06,0,2.109,0,3.18,0c0.23,0,0.45,0,0.68,0c0-2.33,0-4.67,0-7c-0.229,0-0.449,0-0.68,0
			c-1.07,0-2.12,0-3.18,0c-0.53,0-1.07,0-1.59,0c-0.301,0-0.601,0-0.9,0C159.854,177.789,159.555,177.789,159.255,177.789z"/>
		<path fill="#232034" d="M161.065,177.789c0.52,0,1.06,0,1.59,0c1.06,0,2.109,0,3.18,0c0.23,0,0.45,0,0.68,0c0-0.09,0-0.17,0-0.26
			c-2.43,0-4.84,0-7.26,0c0,0.09,0,0.17,0,0.26c0.3,0,0.6,0,0.91,0C160.465,177.789,160.765,177.789,161.065,177.789z"/>
		<path fill="#232034" d="M166.515,170.529c-2.43,0-4.84,0-7.26,0c0,0.09,0,0.17,0,0.26c0.3,0,0.6,0,0.91,0c0.3,0,0.6,0,0.9,0
			c0.52,0,1.06,0,1.59,0c1.06,0,2.109,0,3.18,0c0.23,0,0.45,0,0.68,0C166.515,170.699,166.515,170.619,166.515,170.529z"/>
	</g>
	<g>
	</g>
</g>
<g id="XMLID_1_">
	<g>
		<path fill="#232034" d="M0.892,163.529c0,2.33,0,4.67,0,7c2.42,0,4.83,0,7.26,0c0-2.25,0-4.49,0-6.74c-0.09,0-0.17,0-0.26,0
			c0-0.09,0-0.17,0-0.26C5.552,163.529,3.222,163.529,0.892,163.529z"/>
		<path fill="#232034" d="M0.892,170.789c0,2.25,0,4.49,0,6.74c2.42,0,4.83,0,7.26,0c0-2.25,0-4.49,0-6.74c-0.23,0-0.45,0-0.68,0
			c-1.07,0-2.12,0-3.18,0c-0.53,0-1.07,0-1.59,0c-0.3,0-0.6,0-0.9,0C1.492,170.789,1.192,170.789,0.892,170.789z"/>
		<path fill="#232034" d="M0.892,177.789c0,1.45,0,3.78,0,7c0.3,0,0.6,0,0.91,0c0.3,0,0.6,0,0.9,0c0.52,0,1.06,0,1.59,0
			c1.06,0,2.11,0,3.18,0c0.14,0,0.28,0,0.42,0c0-0.09,0-0.17,0-0.26c0.09,0,0.17,0,0.26,0c0-2.25,0-4.49,0-6.74
			c-0.23,0-0.45,0-0.68,0c-1.07,0-2.12,0-3.18,0c-0.53,0-1.07,0-1.59,0c-0.3,0-0.6,0-0.9,0
			C1.492,177.789,1.192,177.789,0.892,177.789z"/>
		<path fill="#232034" d="M8.152,177.529c-2.43,0-4.84,0-7.26,0c0,0.08,0,0.17,0,0.26c0.3,0,0.6,0,0.91,0c0.3,0,0.6,0,0.9,0
			c0.52,0,1.06,0,1.59,0c1.06,0,2.11,0,3.18,0c0.23,0,0.45,0,0.68,0C8.152,177.699,8.152,177.619,8.152,177.529z"/>
		<path fill="#232034" d="M8.152,170.529c-2.43,0-4.84,0-7.26,0c0,0.09,0,0.17,0,0.26c0.3,0,0.6,0,0.91,0c0.3,0,0.6,0,0.9,0
			c0.52,0,1.06,0,1.59,0c1.06,0,2.11,0,3.18,0c0.23,0,0.45,0,0.68,0C8.152,170.699,8.152,170.619,8.152,170.529z"/>
		<path fill="#232034" d="M7.892,184.789c0,2.33,0,4.67,0,7c0.3,0,0.6,0,0.91,0c0.3,0,0.6,0,0.9,0c0.52,0,1.06,0,1.59,0
			c1.06,0,2.11,0,3.18,0c0.23,0,0.45,0,0.68,0c0-2.33,0-4.67,0-7c-0.09,0-0.17,0-0.26,0c0-0.09,0-0.17,0-0.26c-2.26,0-4.49,0-6.74,0
			c0,0.09,0,0.17,0,0.26C8.062,184.789,7.981,184.789,7.892,184.789z"/>
		<path fill="#232034" d="M7.892,184.529c0,0.09,0,0.17,0,0.26c0.09,0,0.17,0,0.26,0c0-0.09,0-0.17,0-0.26
			C8.062,184.529,7.981,184.529,7.892,184.529z"/>
		<path fill="#232034" d="M7.892,163.529c0,0.09,0,0.17,0,0.26c0.09,0,0.17,0,0.26,0c0-0.09,0-0.17,0-0.26
			C8.062,163.529,7.981,163.529,7.892,163.529z"/>
		<path fill="#232034" d="M7.892,156.529c0,2.33,0,4.67,0,7c0.09,0,0.17,0,0.26,0c0,0.09,0,0.17,0,0.26c0.21,0,0.43,0,0.65,0
			c0.3,0,0.6,0,0.9,0c0.52,0,1.06,0,1.59,0c1.06,0,2.11,0,3.18,0c0.14,0,0.28,0,0.42,0c0-2.42,0-4.84,0-7.26
			C12.552,156.529,10.222,156.529,7.892,156.529z"/>
		<path fill="#C3CAD1" d="M8.152,163.789c0,2.25,0,4.49,0,6.74c0,0.09,0,0.17,0,0.26c0,2.25,0,4.49,0,6.74c0,0.09,0,0.17,0,0.26
			c0,2.25,0,4.49,0,6.74c2.25,0,4.48,0,6.74,0c0-2.25,0-4.49,0-6.74c0-0.09,0-0.17,0-0.26c0-2.33,0-4.67,0-7c2.42,0,4.83,0,7.26,0
			c0,2.33,0,4.67,0,7c0,0.09,0,0.17,0,0.26c0,2.25,0,4.49,0,6.74c2.25,0,4.48,0,6.74,0c0-2.25,0-4.49,0-6.74c0-0.08,0-0.17,0-0.26
			c0-1.45,0-3.78,0-7c2.42,0,4.83,0,7.26,0c0,2.33,0,4.67,0,7c0,0.09,0,0.17,0,0.26c0,2.25,0,4.49,0,6.74c2.25,0,4.48,0,6.74,0
			c0-2.25,0-4.49,0-6.74c0-0.09,0-0.17,0-0.26c0-2.25,0-4.49,0-6.74c0-0.09,0-0.17,0-0.26c0-2.25,0-4.49,0-6.74
			c-0.14,0-0.28,0-0.42,0c-1.07,0-2.12,0-3.18,0c-0.53,0-1.07,0-1.59,0c-0.3,0-0.6,0-0.9,0c-0.22,0-0.44,0-0.65,0
			c-0.09,0-0.17,0-0.26,0c-0.14,0-0.28,0-0.42,0c-1.07,0-2.12,0-3.18,0c-0.53,0-1.07,0-1.59,0c-0.3,0-0.6,0-0.9,0
			c-0.22,0-0.44,0-0.65,0c-0.09,0-0.17,0-0.26,0c-0.14,0-0.28,0-0.42,0c-1.07,0-2.12,0-3.18,0c-0.53,0-1.07,0-1.59,0
			c-0.3,0-0.6,0-0.9,0c-0.22,0-0.44,0-0.65,0c-0.09,0-0.17,0-0.26,0c-0.14,0-0.28,0-0.42,0c-1.07,0-2.12,0-3.18,0
			c-0.53,0-1.07,0-1.59,0c-0.3,0-0.6,0-0.9,0c-0.22,0-0.44,0-0.65,0c-0.09,0-0.17,0-0.26,0c-0.14,0-0.28,0-0.42,0
			c-1.07,0-2.12,0-3.18,0c-0.53,0-1.07,0-1.59,0c-0.3,0-0.6,0-0.9,0C8.582,163.789,8.362,163.789,8.152,163.789z"/>
		<path fill="#232034" d="M14.892,184.529c0,0.09,0,0.17,0,0.26c0.09,0,0.17,0,0.26,0c0-0.09,0-0.17,0-0.26
			C15.062,184.529,14.981,184.529,14.892,184.529z"/>
		<path fill="#232034" d="M14.892,170.529c0,2.33,0,4.67,0,7c2.42,0,4.83,0,7.26,0c0-2.33,0-4.67,0-7
			C19.722,170.529,17.312,170.529,14.892,170.529z"/>
		<path fill="#232034" d="M14.892,156.529c0,2.42,0,4.84,0,7.26c0.09,0,0.17,0,0.26,0c0-2.42,0-4.84,0-7.26
			C15.062,156.529,14.981,156.529,14.892,156.529z"/>
		<path fill="#232034" d="M14.892,177.789c0,2.25,0,4.49,0,6.74c0.09,0,0.17,0,0.26,0c0,0.09,0,0.17,0,0.26c0.21,0,0.43,0,0.65,0
			c0.3,0,0.6,0,0.9,0c0.52,0,1.06,0,1.59,0c1.06,0,2.11,0,3.18,0c0.14,0,0.28,0,0.42,0c0-0.09,0-0.17,0-0.26c0.09,0,0.17,0,0.26,0
			c0-2.25,0-4.49,0-6.74c-0.23,0-0.45,0-0.68,0c-1.07,0-2.12,0-3.18,0c-0.53,0-1.07,0-1.59,0c-0.3,0-0.6,0-0.9,0
			C15.492,177.789,15.192,177.789,14.892,177.789z"/>
		<path fill="#232034" d="M15.152,156.529c0,2.42,0,4.84,0,7.26c0.21,0,0.43,0,0.65,0c0.3,0,0.6,0,0.9,0c0.52,0,1.06,0,1.59,0
			c1.06,0,2.11,0,3.18,0c0.14,0,0.28,0,0.42,0c0-2.42,0-4.84,0-7.26C19.632,156.529,17.402,156.529,15.152,156.529z"/>
		<path fill="#232034" d="M22.152,177.529c-2.43,0-4.84,0-7.26,0c0,0.09,0,0.17,0,0.26c0.3,0,0.6,0,0.91,0c0.3,0,0.6,0,0.9,0
			c0.52,0,1.06,0,1.59,0c1.06,0,2.11,0,3.18,0c0.23,0,0.45,0,0.68,0C22.152,177.699,22.152,177.619,22.152,177.529z"/>
		<path fill="#232034" d="M21.892,184.789c0,2.33,0,4.67,0,7c0.3,0,0.6,0,0.91,0c0.3,0,0.6,0,0.9,0c0.52,0,1.06,0,1.59,0
			c1.06,0,2.11,0,3.18,0c0.23,0,0.45,0,0.68,0c0-2.33,0-4.67,0-7c-0.09,0-0.17,0-0.26,0c0-0.09,0-0.17,0-0.26c-2.26,0-4.49,0-6.74,0
			c0,0.09,0,0.17,0,0.26C22.062,184.789,21.981,184.789,21.892,184.789z"/>
		<path fill="#232034" d="M21.892,184.529c0,0.09,0,0.17,0,0.26c0.09,0,0.17,0,0.26,0c0-0.09,0-0.17,0-0.26
			C22.062,184.529,21.981,184.529,21.892,184.529z"/>
		<path fill="#232034" d="M21.892,156.529c0,2.42,0,4.84,0,7.26c0.09,0,0.17,0,0.26,0c0-2.42,0-4.84,0-7.26
			C22.062,156.529,21.981,156.529,21.892,156.529z"/>
		<path fill="#232034" d="M22.152,156.529c0,2.42,0,4.84,0,7.26c0.21,0,0.43,0,0.65,0c0.3,0,0.6,0,0.9,0c0.52,0,1.06,0,1.59,0
			c1.06,0,2.11,0,3.18,0c0.14,0,0.28,0,0.42,0c0-2.42,0-4.84,0-7.26C26.632,156.529,24.402,156.529,22.152,156.529z"/>
		<path fill="#232034" d="M28.892,184.529c0,0.09,0,0.17,0,0.26c0.09,0,0.17,0,0.26,0c0-0.09,0-0.17,0-0.26
			C29.062,184.529,28.981,184.529,28.892,184.529z"/>
		<path fill="#232034" d="M28.892,170.529c0,3.22,0,5.55,0,7c2.42,0,4.83,0,7.26,0c0-2.33,0-4.67,0-7
			C33.722,170.529,31.312,170.529,28.892,170.529z"/>
		<path fill="#232034" d="M28.892,156.529c0,2.42,0,4.84,0,7.26c0.09,0,0.17,0,0.26,0c0-2.42,0-4.84,0-7.26
			C29.062,156.529,28.981,156.529,28.892,156.529z"/>
		<path fill="#232034" d="M28.892,177.789c0,2.25,0,4.49,0,6.74c0.09,0,0.17,0,0.26,0c0,0.09,0,0.17,0,0.26c0.21,0,0.43,0,0.65,0
			c0.3,0,0.6,0,0.9,0c0.52,0,1.06,0,1.59,0c1.06,0,2.11,0,3.18,0c0.14,0,0.28,0,0.42,0c0-0.09,0-0.17,0-0.26c0.09,0,0.17,0,0.26,0
			c0-2.25,0-4.49,0-6.74c-0.23,0-0.45,0-0.68,0c-1.07,0-2.12,0-3.18,0c-0.53,0-1.07,0-1.59,0c-0.3,0-0.6,0-0.9,0
			C29.492,177.789,29.192,177.789,28.892,177.789z"/>
		<path fill="#232034" d="M29.152,156.529c0,2.42,0,4.84,0,7.26c0.21,0,0.43,0,0.65,0c0.3,0,0.6,0,0.9,0c0.52,0,1.06,0,1.59,0
			c1.06,0,2.11,0,3.18,0c0.14,0,0.28,0,0.42,0c0-2.42,0-4.84,0-7.26C33.632,156.529,31.402,156.529,29.152,156.529z"/>
		<path fill="#232034" d="M36.152,177.529c-2.43,0-4.84,0-7.26,0c0,0.09,0,0.18,0,0.26c0.3,0,0.6,0,0.91,0c0.3,0,0.6,0,0.9,0
			c0.52,0,1.06,0,1.59,0c1.06,0,2.11,0,3.18,0c0.23,0,0.45,0,0.68,0C36.152,177.699,36.152,177.619,36.152,177.529z"/>
		<path fill="#232034" d="M35.892,184.789c0,2.33,0,4.67,0,7c0.3,0,0.6,0,0.91,0c0.3,0,0.6,0,0.9,0c0.52,0,1.06,0,1.59,0
			c1.06,0,2.11,0,3.18,0c0.23,0,0.45,0,0.68,0c0-2.33,0-4.67,0-7c-0.09,0-0.17,0-0.26,0c0-0.09,0-0.17,0-0.26c-2.26,0-4.49,0-6.74,0
			c0,0.09,0,0.17,0,0.26C36.062,184.789,35.981,184.789,35.892,184.789z"/>
		<path fill="#232034" d="M35.892,184.529c0,0.09,0,0.17,0,0.26c0.09,0,0.17,0,0.26,0c0-0.09,0-0.17,0-0.26
			C36.062,184.529,35.981,184.529,35.892,184.529z"/>
		<path fill="#232034" d="M35.892,156.529c0,2.42,0,4.84,0,7.26c0.09,0,0.17,0,0.26,0c0-2.42,0-4.84,0-7.26
			C36.062,156.529,35.981,156.529,35.892,156.529z"/>
		<path fill="#232034" d="M36.152,156.529c0,2.42,0,4.84,0,7.26c0.21,0,0.43,0,0.65,0c0.3,0,0.6,0,0.9,0c0.52,0,1.06,0,1.59,0
			c1.06,0,2.11,0,3.18,0c0.14,0,0.28,0,0.42,0c0-0.09,0-0.17,0-0.26c0.09,0,0.17,0,0.26,0c0-2.33,0-4.67,0-7
			C40.812,156.529,38.481,156.529,36.152,156.529z"/>
		<path fill="#232034" d="M42.892,184.529c0,0.09,0,0.17,0,0.26c0.09,0,0.17,0,0.26,0c0-0.09,0-0.17,0-0.26
			C43.062,184.529,42.981,184.529,42.892,184.529z"/>
		<path fill="#232034" d="M42.892,163.789c0,2.25,0,4.49,0,6.74c2.42,0,4.83,0,7.26,0c0-2.33,0-4.67,0-7c-2.34,0-4.67,0-7,0
			c0,0.09,0,0.17,0,0.26C43.062,163.789,42.981,163.789,42.892,163.789z"/>
		<path fill="#232034" d="M42.892,163.529c0,0.09,0,0.17,0,0.26c0.09,0,0.17,0,0.26,0c0-0.09,0-0.17,0-0.26
			C43.062,163.529,42.981,163.529,42.892,163.529z"/>
		<path fill="#232034" d="M42.892,170.789c0,2.25,0,4.49,0,6.74c2.42,0,4.83,0,7.26,0c0-2.25,0-4.49,0-6.74c-0.23,0-0.45,0-0.68,0
			c-1.07,0-2.12,0-3.18,0c-0.53,0-1.07,0-1.59,0c-0.3,0-0.6,0-0.9,0C43.492,170.789,43.192,170.789,42.892,170.789z"/>
		<path fill="#232034" d="M42.892,177.789c0,2.25,0,4.49,0,6.74c0.09,0,0.17,0,0.26,0c0,0.09,0,0.17,0,0.26c0.21,0,0.43,0,0.65,0
			c0.3,0,0.6,0,0.9,0c0.52,0,1.06,0,1.59,0c1.06,0,2.11,0,3.18,0c0.23,0,0.45,0,0.68,0c0-2.33,0-4.67,0-7c-0.23,0-0.45,0-0.68,0
			c-1.07,0-2.12,0-3.18,0c-0.53,0-1.07,0-1.59,0c-0.3,0-0.6,0-0.9,0C43.492,177.789,43.192,177.789,42.892,177.789z"/>
		<path fill="#232034" d="M50.152,177.529c-2.43,0-4.84,0-7.26,0c0,0.09,0,0.17,0,0.26c0.3,0,0.6,0,0.91,0c0.3,0,0.6,0,0.9,0
			c0.52,0,1.06,0,1.59,0c1.06,0,2.11,0,3.18,0c0.23,0,0.45,0,0.68,0C50.152,177.699,50.152,177.619,50.152,177.529z"/>
		<path fill="#232034" d="M50.152,170.529c-2.43,0-4.84,0-7.26,0c0,0.09,0,0.17,0,0.26c0.3,0,0.6,0,0.91,0c0.3,0,0.6,0,0.9,0
			c0.52,0,1.06,0,1.59,0c1.06,0,2.11,0,3.18,0c0.23,0,0.45,0,0.68,0C50.152,170.699,50.152,170.619,50.152,170.529z"/>
	</g>
	<g>
	</g>
</g>
</svg>
