<?xml version="1.0" encoding="utf-8"?>
<!-- Generator: Adobe Illustrator 15.0.0, SVG Export Plug-In  -->
<!DOCTYPE svg PUBLIC "-//W3C//DTD SVG 1.1//EN" "http://www.w3.org/Graphics/SVG/1.1/DTD/svg11.dtd" [
	<!ENTITY ns_flows "http://ns.adobe.com/Flows/1.0/">
]>
<svg version="1.1"
	 xmlns="http://www.w3.org/2000/svg" xmlns:xlink="http://www.w3.org/1999/xlink" xmlns:a="http://ns.adobe.com/AdobeSVGViewerExtensions/3.0/"
	 x="0px" y="0px" width="300px" height="300px" viewBox="-48.757 -47.688 300 300" enable-background="new -48.757 -47.688 300 300"
	 xml:space="preserve">
<defs>
</defs>
<path fill="#98D8DF" d="M153.619,116.376c0.214,0,0.453,0,0.681,0c0.214,0,0.453,0,0.681,0c0.302,0,0.604,0,0.907,0
	c0.227,0,0.441,0,0.681,0c0.227,0,0.44,0,0.681,0c0.529,0,1.046,0,1.575,0c0.239,0,0.466,0,0.681,0c0-4.84,0-9.679,0-14.519
	c2.432,0,4.852,0,7.271,0c0-3.63,0-7.26,0-10.889c0-3.706,0-7.411,0-11.116c-4.84,0-9.679,0-14.519,0c0-2.419,0-4.84,0-7.26
	c-4.839,0-9.679,0-14.519,0c0-2.419,0-4.839,0-7.259c-2.42,0-4.839,0-7.271,0c-2.42,0-4.827,0-7.247,0c0-2.42,0-4.84,0-7.26
	c-1.059,0-2.13,0-3.176,0c-0.529,0-1.059,0-1.589,0c-0.302,0-0.604,0-0.906,0c-0.315,0-0.605,0-0.921,0c-0.289,0-0.604,0-0.895,0
	c0-2.419,0-4.839,0-7.259c-3.629,0-7.271,0-10.889,0c-3.629,0-7.259,0-10.901,0c-3.617,0-7.247,0-10.876,0c-3.643,0-7.26,0-10.89,0
	c0,2.419,0,4.839,0,7.259c-4.839,0-9.691,0-14.519,0c0,2.42,0,4.84,0,7.26c-2.42,0-4.84,0-7.26,0c0,4.839,0,9.679,0,14.519
	c-2.432,0-4.839,0-7.259,0c0,0.151,0,0.302,0,0.454c0,0.681,0,1.361,0,2.042c0,0.152,0,0.302,0,0.454c0,0.227,0,0.454,0,0.681
	c0,0.151,0,0.302,0,0.454c0,0.227,0,0.454,0,0.681c0,0.151,0,0.303,0,0.454c0,0.227,0,0.454,0,0.681c0,0.151,0,0.303,0,0.454
	c0,0.227,0,0.454,0,0.681c0,0.151,0,0.302,0,0.454c0,0.226,0,0.453,0,0.681c0,0.151,0,0.302,0,0.453c0,0.227,0,0.454,0,0.681
	c0,0.151,0,0.302,0,0.454c0,0.227,0,0.454,0,0.681c0,0.151,0,0.303,0,0.454c0,0.227,0,0.454,0,0.681c0,0.151,0,0.303,0,0.454
	c0,0.227,0,0.453,0,0.681c0,0.15,0,0.302,0,0.453c0,0.227,0,0.454,0,0.681c0,0.151,0,0.302,0,0.454c0,0.227,0,0.454,0,0.681
	c0,0.151,0,0.302,0,0.454c0,0.227,0,0.454,0,0.681c0,0.151,0,0.303,0,0.454c0,0.227,0,0.454,0,0.68c0,0.151,0,0.303,0,0.455
	c0,0.226,0,0.454,0,0.68c0,0.151,0,0.302,0,0.454c0,0.227,0,0.454,0,0.681c0,0.151,0,0.302,0,0.454c0,0.227,0,0.454,0,0.681
	c0,0.151,0,0.302,0,0.454c0,0.227,0,0.454,0,0.681c0,0.151,0,0.303,0,0.454c0,0.227,0,0.454,0,0.68c0,0.151,0,0.303,0,0.455
	c0,0.227,0,0.453,0,0.68c0,0.151,0,0.303,0,0.454c0,0.227,0,0.454,0,0.681c0,0.151,0,0.303,0,0.453c0,0.228,0,0.454,0,0.682
	c0,0.15,0,0.302,0,0.453c0,0.227,0,0.454,0,0.681c0,0.151,0,0.303,0,0.453c0,0.228,0,0.454,0,0.681c0,0.151,0,0.303,0,0.454
	c0,0.227,0,0.454,0,0.681c0,0.15,0,0.303,0,0.453c0,0.227,0,0.454,0,0.682c0,0.15,0,0.302,0,0.453c0,0.227,0,0.453,0,0.681
	c0,0.151,0,0.302,0,0.454c0,0.227,0,0.453,0,0.68c0,0.151,0,0.303,0,0.453c0,0.228,0,0.455,0,0.682c0,0.15,0,0.303,0,0.453
	c0,0.227,0,0.454,0,0.682c0,0.15,0,0.302,0,0.453c0,0.227,0,0.453,0,0.681c2.42,0,4.827,0,7.259,0c0,2.419,0,4.839,0,7.259
	c2.42,0,4.84,0,7.26,0c0,2.42,0,4.84,0,7.26c-2.42,0-4.84,0-7.26,0c0,2.42,0,4.84,0,7.259c2.42,0,4.84,0,7.26,0
	c0,2.42,0,4.841,0,7.26c2.42,0,4.827,0,7.26,0c0,2.42,0,4.839,0,7.259c0.15,0,0.303,0,0.453,0c0.215,0,0.454,0,0.682,0
	c0.138,0,0.301,0,0.453,0c0.227,0,0.453,0,0.68,0c0.152,0,0.291,0,0.454,0c0.228,0,0.441,0,0.681,0c0.151,0,0.303,0,0.441,0
	c0.239,0,0.467,0,0.681,0c0.769,0,1.524,0,2.281,0c0.138,0,0.302,0,0.453,0c0.228,0,0.454,0,0.681,0c0.151,0,0.29,0,0.453,0
	c0.228,0,0.441,0,0.682,0c0.15,0,0.303,0,0.441,0c0.238,0,0.466,0,0.68,0c0.164,0,0.315,0,0.467,0c0.227,0,0.453,0,0.68,0
	c0.151,0,0.303,0,0.455,0c0.213,0,0.453,0,0.68,0c0.139,0,0.303,0,0.453,0c0.228,0,0.454,0,0.682,0c0.15,0,0.289,0,0.453,0
	c0.227,0,0.441,0,0.681,0c0.151,0,0.303,0,0.441,0c0.239,0,0.466,0,0.681,0c0.164,0,0.314,0,0.467,0c0.226,0,0.453,0,0.68,0
	c0.15,0,0.303,0,0.453,0c0.215,0,0.454,0,0.682,0c0.756,0,1.5,0,2.268,0c0.152,0,0.303,0,0.441,0c0.24,0,0.467,0,0.681,0
	c0.164,0,0.315,0,0.467,0c0.226,0,0.453,0,0.68,0c0.151,0,0.303,0,0.454,0c0.215,0,0.453,0,0.681,0c0.139,0,0.302,0,0.454,0
	c0.227,0,0.453,0,0.68,0c0.152,0,0.291,0,0.454,0c0.228,0,0.44,0,0.681,0c0.151,0,0.303,0,0.441,0c0.239,0,0.467,0,0.68,0
	c0.164,0,0.315,0,0.467,0c0.227,0,0.453,0,0.68,0c0.152,0,0.303,0,0.455,0c0.214,0,0.453,0,0.68,0c0.139,0,0.303,0,0.454,0
	c0.228,0,0.454,0,0.681,0c0.151,0,0.289,0,0.453,0c0.228,0,0.441,0,0.682,0c0.15,0,0.303,0,0.44,0c0.239,0,0.467,0,0.681,0
	c0.164,0,0.314,0,0.467,0c0.227,0,0.453,0,0.68,0c0.151,0,0.303,0,0.454,0c0.214,0,0.454,0,0.681,0c0.139,0,0.303,0,0.453,0
	c0.228,0,0.454,0,0.681,0c0,2.42,0,4.84,0,7.26c2.419,0,4.839,0,7.247,0c0,0.227,0,0.453,0,0.681c0,0.454,0,0.907,0,1.36
	c0,0.53,0,1.06,0,1.589c0,0.453,0,0.907,0,1.36c0,0.529,0,1.059,0,1.588c0,0.228,0,0.454,0,0.682c2.432,0,4.852,0,7.271,0
	c0-4.84,0-9.68,0-14.52c0.227,0,0.454,0,0.681,0c0.214,0,0.454,0,0.681,0c0.454,0,0.907,0,1.36,0c0.228,0,0.454,0,0.669,0
	c0.239,0,0.466,0,0.681,0c0.466,0,0.92,0,1.373,0c0.228,0,0.454,0,0.681,0c0.228,0,0.441,0,0.681,0c0.441,0,0.907,0,1.361,0
	c0.227,0,0.453,0,0.681,0c0.214,0,0.453,0,0.681,0c0.453,0,0.895,0,1.361,0c0.227,0,0.453,0,0.68,0c0.228,0,0.454,0,0.668,0
	c0.467,0,0.92,0,1.374,0c0.227,0,0.453,0,0.681,0c0.227,0,0.441,0,0.681,0c0.441,0,0.907,0,1.361,0c0.906,0,1.814,0,2.722,0
	c0.983,0,1.966,0,2.949,0c0-2.42,0-4.839,0-7.259c2.42,0,4.84,0,7.247,0c0-2.419,0-4.84,0-7.26c2.433,0,4.852,0,7.271,0
	c0-2.419,0-4.839,0-7.259c2.42,0,4.84,0,7.247,0c0-2.42,0-4.84,0-7.26c-2.407,0-4.827,0-7.247,0c0-2.42,0-4.84,0-7.259
	c0.227,0,0.454,0,0.681,0C153.152,116.376,153.392,116.376,153.619,116.376z M170.167,65.334c1.071,0,2.13,0,3.176,0
	c0.239,0,0.467,0,0.681,0c0-2.42,0-4.84,0-7.26c2.432,0,4.853,0,7.271,0c0,9.679,0,19.359,0,29.037c2.42,0,4.84,0,7.247,0
	c0,2.42,0,4.84,0,7.26c0,1.21,0,2.42,0,3.63c0,0.604,0,1.209,0,1.814c0,0.681,0,1.361,0,2.042c-2.407,0-4.827,0-7.247,0
	c0,4.84,0,9.679,0,14.519c2.42,0,4.84,0,7.247,0c0,9.679,0,19.358,0,29.037c-2.407,0-4.827,0-7.247,0c0,2.42,0,4.839,0,7.259
	c-0.314,0-0.604,0-0.907,0c-0.227,0-0.454,0-0.693,0c-0.214,0-0.441,0-0.681,0c-0.214,0-0.44,0-0.668,0c-0.453,0-0.907,0-1.36,0
	c-0.228,0-0.467,0-0.681,0c-0.228,0-0.467,0-0.681,0c-1.814,0-3.63,0-5.457,0c-0.441,0-0.896,0-1.349,0c-0.227,0-0.467,0-0.681,0
	c-0.227,0-0.467,0-0.681,0c-0.454,0-0.907,0-1.361,0c-0.239,0-0.453,0-0.681,0c-0.239,0-0.453,0-0.681,0c-0.907,0-1.814,0-2.734,0
	c-0.819,0-1.651,0-2.495,0c0,2.42,0,4.84,0,7.26c-2.407,0-4.827,0-7.247,0c0,2.42,0,4.84,0,7.26c-4.839,0-9.679,0-14.519,0
	c0,2.419,0,4.839,0,7.259c-4.839,0-9.691,0-14.519,0c0,1.21,0,2.42,0,3.63c0,0.605,0,1.21,0,1.814c0,0.303,0,0.605,0,0.908
	c0,0.15,0,0.302,0,0.453c0,0.227,0,0.453,0,0.681c-0.239,0-0.453,0-0.681,0c-3.479,0-6.957,0-10.435,0c-1.752,0-3.479,0-5.218,0
	c-0.454,0-0.921,0-1.361,0c-0.239,0-0.454,0-0.681,0c-0.164,0-0.303,0-0.454,0c-0.453,0-0.92,0-1.361,0c-0.239,0-0.453,0-0.681,0
	c-0.163,0-0.301,0-0.453,0c-0.227,0-0.455,0-0.681,0c0,2.42,0,4.839,0,7.259c-0.227,0-0.454,0-0.681,0c-1.738,0-3.479,0-5.217,0
	c-0.454,0-0.908,0-1.374,0c-0.214,0-0.441,0-0.669,0c-0.15,0-0.302,0-0.453,0c-0.453,0-0.906,0-1.373,0c-0.215,0-0.441,0-0.682,0
	c-0.138,0-0.289,0-0.44,0c-1.739,0-3.478,0-5.23,0c-0.44,0-0.895,0-1.349,0c-0.227,0-0.466,0-0.68,0c-0.152,0-0.303,0-0.467,0
	c-0.441,0-0.895,0-1.348,0c-0.228,0-0.467,0-0.682,0c-0.15,0-0.303,0-0.466,0c-0.214,0-0.441,0-0.681,0c0-2.42,0-4.839,0-7.259
	c-2.42,0-4.827,0-7.247,0c0-0.681,0-1.361,0-2.042c0-0.604,0-1.209,0-1.814s0-1.21,0-1.814c0-0.605,0-1.211,0-1.815
	c-0.239,0-0.453,0-0.681,0c-0.239,0-0.453,0-0.68,0c-0.164,0-0.303,0-0.454,0c-0.228,0-0.454,0-0.681,0c-0.151,0-0.314,0-0.453,0
	c-0.757,0-1.514,0-2.27,0c-0.227,0-0.453,0-0.693,0c-0.138,0-0.289,0-0.44,0c-0.239,0-0.454,0-0.681,0c-0.164,0-0.303,0-0.453,0
	c-0.757,0-1.514,0-2.281,0c-0.215,0-0.441,0-0.669,0c-0.15,0-0.302,0-0.454,0c-0.226,0-0.453,0-0.692,0c-0.138,0-0.29,0-0.44,0
	c-0.24,0-0.454,0-0.682,0c-0.163,0-0.302,0-0.453,0c-0.227,0-0.453,0-0.681,0c-0.151,0-0.315,0-0.454,0c-0.378,0-0.756,0-1.146,0
	c-0.365,0-0.743,0-1.121,0c-0.693,0-1.374,0-2.043,0c-0.377,0-0.756,0-1.146,0c-0.365,0-0.756,0-1.121,0c-0.77,0-1.513,0-2.269,0
	c-0.391,0-0.757,0-1.135,0s-0.756,0-1.146,0c-0.681,0-1.361,0-2.029,0c-0.378,0-0.756,0-1.146,0c-0.366,0-0.757,0-1.122,0
	c-0.769,0-1.513,0-2.268,0c-0.392,0-0.757,0-1.136,0c-0.378,0-0.755,0-1.146,0c-0.681,0-1.349,0-2.028,0c0-2.42,0-4.84,0-7.259
	c-2.496,0-4.991,0-7.499,0c0-19.358,0-38.717,0-58.075c-2.42,0-4.827,0-7.247,0c0-4.839,0-9.679,0-14.519c0-2.42,0-4.839,0-7.259
	c0-1.21,0-2.42,0-3.63c0-0.604,0-1.209,0-1.815c0-0.302,0-0.604,0-0.907c0-0.303,0-0.605,0-0.908c0-0.076,0-0.151,0-0.227
	c2.42,0,4.827,0,7.247,0c0-3.63,0.012-7.26,0-10.889c0-3.629,0-7.259,0-10.889c0.681,0,1.361,0,2.054,0c0.605,0,1.197,0,1.803,0
	c1.21,0,2.432,0,3.643,0c0-0.907,0-1.814,0-2.722c0-0.454,0-0.908,0-1.361c0-0.227,0-0.454,0-0.681c0-0.227,0-0.454,0-0.681
	c0-0.453,0-0.908,0-1.361c0-0.227,0-0.453,0-0.68c0-0.227,0-0.454,0-0.681c0-0.454,0-0.907,0-1.361c0-0.227,0-0.454,0-0.681
	c0-0.227,0-0.454,0-0.68c0-0.454,0-0.907,0-1.361c0-0.227,0-0.454,0-0.681c0-0.227,0-0.454,0-0.681c0-0.454,0-0.908,0-1.361
	c0-0.227,0-0.454,0-0.681s0-0.454,0-0.681c0-0.454,0-0.907,0-1.361c0-0.227,0-0.454,0-0.681c0-0.227,0-0.454,0-0.68
	c0-0.454,0-0.908,0-1.361c0-0.227,0-0.454,0-0.68c0-0.228,0-0.455,0-0.681c-1.211,0-2.433,0-3.643,0c-0.605,0-1.197,0-1.803,0
	c-0.302,0-0.604,0-0.907,0c-0.378,0-0.756,0-1.146,0c0-4.839,0-9.68,0-14.519c4.928,0,9.843,0,14.758,0c0-2.419,0-4.839,0-7.259
	c4.827,0,9.679,0,14.519,0c0,2.42,0,4.84,0,7.259c2.42,0,4.827,0,7.26,0c0,2.42,0,4.839,0,7.259c4.84,0,9.679,0,14.506,0
	c0,2.42,0,4.84,0,7.26c1.891,0,3.781,0,5.671,0c1.828,0,3.643,0,5.458,0c3.629,0,7.246,0,10.888,0c3.63,0,7.26,0,10.889,0
	c3.63,0,7.26,0,10.89,0c0-2.42,0-4.839,0-7.26c2.42,0,4.827,0,7.247,0c0-2.42,0-4.839,0-7.259c0.239,0,0.466,0,0.681,0
	c1.752,0,3.49,0,5.229,0c0.441,0,0.908,0,1.361,0c0.228,0,0.453,0,0.681,0c0.151,0,0.29,0,0.453,0c0.441,0,0.908,0,1.361,0
	c0.228,0,0.454,0,0.681,0c0.151,0,0.29,0,0.454,0c1.727,0,3.479,0,5.218,0c0.453,0,0.895,0,1.361,0c0.214,0,0.453,0,0.681,0
	c0.138,0,0.302,0,0.453,0c0.453,0,0.907,0,1.361,0c0.214,0,0.453,0,0.681,0c0.139,0,0.302,0,0.453,0c0.228,0,0.454,0,0.681,0
	c0,2.42,0,4.839,0,7.259c2.42,0,4.84,0,7.247,0c0,3.63,0,7.26,0,10.889s0,7.259,0,10.889c2.432,0,4.852,0,7.271,0
	c0,4.839,0,9.679,0,14.519c0.076,0,0.151,0,0.227,0c0.063,0,0.151,0,0.228,0c0.151,0,0.303,0,0.44,0c0.315,0,0.605,0,0.921,0
	C169.12,65.334,169.638,65.334,170.167,65.334z"/>
<path fill="#232034" d="M43.142,99.815c0,0.227,0,0.454,0,0.681c0,0.151,0,0.302,0,0.454c0,0.227,0,0.454,0,0.681
	c0,0.151,0,0.303,0,0.454c0,0.227,0,0.454,0,0.68c0,0.151,0,0.303,0,0.455c0,0.227,0,0.453,0,0.68c0,0.151,0,0.303,0,0.454
	c0,0.227,0,0.454,0,0.681c0,0.151,0,0.303,0,0.453c0,0.228,0,0.454,0,0.682c0,0.15,0,0.302,0,0.453c0,0.227,0,0.454,0,0.681
	c0,0.151,0,0.303,0,0.453c0,0.228,0,0.454,0,0.681c0,0.151,0,0.303,0,0.454c0,0.227,0,0.454,0,0.681c0,0.15,0,0.303,0,0.453
	c0,0.227,0,0.454,0,0.682c0,0.15,0,0.302,0,0.453c0,0.227,0,0.453,0,0.681c0,0.151,0,0.302,0,0.454c0,0.227,0,0.453,0,0.68
	c0,0.151,0,0.303,0,0.453c0,0.228,0,0.455,0,0.682c0,0.15,0,0.303,0,0.453c0,0.227,0,0.454,0,0.682c0,0.15,0,0.302,0,0.453
	c0,0.227,0,0.453,0,0.681c2.42,0,4.827,0,7.259,0c0-4.84,0-9.679,0-14.519c0-2.42,0-4.84,0-7.26c0-0.681,0-1.361,0-2.041
	c0-0.605,0-1.21,0-1.815c-0.012-0.605,0-1.21,0-1.815s0-1.21,0-1.815c0-2.419,0-4.839,0-7.259c-2.432,0-4.839,0-7.259,0
	c0,0.151,0,0.302,0,0.454c0,0.681,0,1.361,0,2.042c0,0.152,0,0.302,0,0.454c0,0.227,0,0.454,0,0.681c0,0.151,0,0.302,0,0.454
	c0,0.227,0,0.454,0,0.681c0,0.151,0,0.303,0,0.454c0,0.227,0,0.454,0,0.681c0,0.151,0,0.303,0,0.454c0,0.227,0,0.454,0,0.681
	c0,0.151,0,0.302,0,0.454c0,0.226,0,0.453,0,0.681c0,0.151,0,0.302,0,0.453c0,0.227,0,0.454,0,0.681c0,0.151,0,0.302,0,0.454
	c0,0.227,0,0.454,0,0.681c0,0.151,0,0.303,0,0.454c0,0.227,0,0.454,0,0.681c0,0.151,0,0.303,0,0.454c0,0.227,0,0.453,0,0.681
	c0,0.15,0,0.302,0,0.453c0,0.227,0,0.454,0,0.681c0,0.151,0,0.302,0,0.454c0,0.227,0,0.454,0,0.681c0,0.151,0,0.302,0,0.454
	c0,0.227,0,0.454,0,0.681c0,0.151,0,0.303,0,0.454c0,0.227,0,0.454,0,0.68c0,0.151,0,0.303,0,0.455c0,0.226,0,0.454,0,0.68
	c0,0.151,0,0.302,0,0.454c0,0.227,0,0.454,0,0.681C43.142,99.513,43.142,99.664,43.142,99.815z"/>
<path fill="#232034" d="M50.4,130.895c0,2.42,0,4.84,0,7.259c2.42,0,4.84,0,7.26,0c0-2.419,0-4.839,0-7.259
	C55.24,130.895,52.82,130.895,50.4,130.895z"/>
<path fill="#232034" d="M50.4,116.376c0,2.419,0,4.839,0,7.259c2.42,0,4.84,0,7.26,0c0-2.42,0-4.84,0-7.259
	C55.24,116.376,52.82,116.376,50.4,116.376z"/>
<path fill="#FFFFFF" d="M50.4,94.598c0,2.42,0,4.84,0,7.26c2.42,0,4.84,0,7.26,0c0-2.42,0-4.84,0-7.26
	C55.24,94.598,52.82,94.598,50.4,94.598z"/>
<path fill="#010101" d="M50.4,94.598c2.42,0,4.84,0,7.26,0c0,2.42,0,4.84,0,7.26c2.42,0,4.827,0,7.26,0c0-0.605,0-1.21,0-1.815
	s0-1.21,0-1.815c0-0.604,0-1.21,0-1.815s0-1.21,0-1.815s0-1.21,0-1.815s0-1.209,0-1.814s0-1.21,0-1.815c0-0.681,0-1.361,0-2.042
	c-2.433,0-4.84,0-7.26,0s-4.84,0-7.26,0c0,0.605,0,1.21,0,1.815s-0.012,1.21,0,1.815c0,0.605,0,1.21,0,1.815
	C50.4,93.236,50.4,93.917,50.4,94.598z"/>
<path fill="#353635" d="M50.4,79.853c0,2.42,0,4.839,0,7.259c2.42,0,4.84,0,7.26,0c0-2.419,0-4.839,0-7.259
	C55.24,79.853,52.82,79.853,50.4,79.853z"/>
<path fill="#232034" d="M50.4,65.334c0,4.839,0,9.679,0,14.519c2.42,0,4.84,0,7.26,0c0-2.419,0-4.84,0-7.26c0-2.419,0-4.839,0-7.259
	C55.24,65.334,52.82,65.334,50.4,65.334z"/>
<path fill="#232034" d="M57.66,138.153c0,2.42,0,4.841,0,7.26c2.42,0,4.827,0,7.26,0c0-2.419,0-4.84,0-7.26
	C62.487,138.153,60.08,138.153,57.66,138.153z"/>
<path fill="#5E5F5F" d="M57.66,130.895c0,2.42,0,4.84,0,7.259c2.42,0,4.827,0,7.26,0c0-2.419,0-4.839,0-7.259
	C62.487,130.895,60.08,130.895,57.66,130.895z"/>
<path fill="#232034" d="M57.66,123.635c0,2.42,0,4.84,0,7.26c2.42,0,4.827,0,7.26,0c0-2.42,0-4.84,0-7.26
	C62.487,123.635,60.08,123.635,57.66,123.635z"/>
<path fill="#010101" d="M57.66,116.376c0,2.419,0,4.839,0,7.259c2.42,0,4.827,0,7.26,0c0-2.42,0-4.84,0-7.259
	C62.487,116.376,60.08,116.376,57.66,116.376z"/>
<path fill="#353635" d="M57.66,65.334c0,2.419,0,4.839,0,7.259c2.42,0,4.827,0,7.26,0c0-2.419,0-4.839,0-7.259
	C62.487,65.334,60.08,65.334,57.66,65.334z"/>
<path fill="#232034" d="M57.66,58.074c0,2.42,0,4.84,0,7.26c2.42,0,4.827,0,7.26,0c2.42,0,4.84,0,7.259,0c0-2.42,0-4.84,0-7.26
	C67.34,58.074,62.487,58.074,57.66,58.074z"/>
<path fill="#232034" d="M64.92,145.413c0,2.42,0,4.839,0,7.259c0.15,0,0.303,0,0.453,0c0.215,0,0.454,0,0.682,0
	c0.138,0,0.301,0,0.453,0c0.227,0,0.453,0,0.68,0c0.152,0,0.291,0,0.454,0c0.228,0,0.441,0,0.681,0c0.151,0,0.303,0,0.441,0
	c0.239,0,0.467,0,0.681,0c0.769,0,1.524,0,2.281,0c0.138,0,0.302,0,0.453,0c0.228,0,0.454,0,0.681,0c0.151,0,0.29,0,0.453,0
	c0.228,0,0.441,0,0.682,0c0.15,0,0.303,0,0.441,0c0.238,0,0.466,0,0.68,0c0.164,0,0.315,0,0.467,0c0.227,0,0.453,0,0.68,0
	c0.151,0,0.303,0,0.455,0c0.213,0,0.453,0,0.68,0c0.139,0,0.303,0,0.453,0c0.228,0,0.454,0,0.682,0c0.15,0,0.289,0,0.453,0
	c0.227,0,0.441,0,0.681,0c0.151,0,0.303,0,0.441,0c0.239,0,0.466,0,0.681,0c0.164,0,0.314,0,0.467,0c0.226,0,0.453,0,0.68,0
	c0.15,0,0.303,0,0.453,0c0.215,0,0.454,0,0.682,0c0.756,0,1.5,0,2.268,0c0.152,0,0.303,0,0.441,0c0.24,0,0.467,0,0.681,0
	c0.164,0,0.315,0,0.467,0c0.226,0,0.453,0,0.68,0c0.151,0,0.303,0,0.454,0c0.215,0,0.453,0,0.681,0c0.139,0,0.302,0,0.454,0
	c0.227,0,0.453,0,0.68,0c0.152,0,0.291,0,0.454,0c0.228,0,0.44,0,0.681,0c0.151,0,0.303,0,0.441,0c0.239,0,0.467,0,0.68,0
	c0.164,0,0.315,0,0.467,0c0.227,0,0.453,0,0.68,0c0.152,0,0.303,0,0.455,0c0.214,0,0.453,0,0.68,0c0.139,0,0.303,0,0.454,0
	c0.228,0,0.454,0,0.681,0c0.151,0,0.289,0,0.453,0c0.228,0,0.441,0,0.682,0c0.15,0,0.303,0,0.44,0c0.239,0,0.467,0,0.681,0
	c0.164,0,0.314,0,0.467,0c0.227,0,0.453,0,0.68,0c0.151,0,0.303,0,0.454,0c0.214,0,0.454,0,0.681,0c0.139,0,0.303,0,0.453,0
	c0.228,0,0.454,0,0.681,0c0-2.42,0-4.839,0-7.259c-2.419,0-4.839,0-7.272,0C84.277,145.413,74.599,145.413,64.92,145.413z"/>
<path fill="#010101" d="M64.92,130.895c0,2.42,0,4.84,0,7.259c0.15,0,0.303,0,0.453,0c0.215,0,0.454,0,0.682,0
	c0.453,0,0.906,0,1.359,0c0.228,0,0.455,0,0.669,0c0.239,0,0.466,0,0.681,0c0.239,0,0.467,0,0.681,0c0.239,0,0.466,0,0.692,0
	c0.152,0,0.303,0,0.454,0c0.228,0,0.454,0,0.668,0c0.467,0,0.92,0,1.374,0c0.227,0,0.453,0,0.68,0c0.228,0,0.441,0,0.682,0
	c0.227,0,0.441,0,0.68,0c0.228,0,0.441,0,0.682,0c0.15,0,0.289,0,0.453,0c0.227,0,0.453,0,0.681,0c0.44,0,0.907,0,1.36,0
	c0.228,0,0.454,0,0.682,0c0.227,0,0.453,0,0.68,0c0.076,0,0.152,0,0.215,0c0.164,0,0.314,0,0.467,0c0.075,0,0.138,0,0.214,0
	c0.163,0,0.315,0,0.466,0c0.215,0,0.454,0,0.682,0c0.226,0,0.453,0,0.68,0s0.453,0,0.668,0c0.239,0,0.467,0,0.681,0
	c0.92,0,1.814,0,2.735,0c0.227,0,0.44,0,0.68,0c0-2.419,0-4.839,0-7.259c4.84,0,9.68,0,14.519,0c0-2.42,0-4.84,0-7.26
	c-2.419,0-4.839,0-7.272,0c0-2.42,0-4.84,0-7.259c-2.407,0-4.827,0-7.247,0c0,2.419,0,4.839,0,7.259c-2.42,0-4.839,0-7.271,0
	c0-2.42,0-4.84,0-7.259c-2.42,0-4.827,0-7.247,0c0,2.419,0,4.839,0,7.259c-2.419,0-4.839,0-7.259,0
	C64.92,126.055,64.92,128.475,64.92,130.895z"/>
<path fill="#010101" d="M64.92,101.857c0,2.42,0,4.84,0,7.259c0.063,0,0.15,0,0.227,0c2.117,0,4.223,0,6.352,0
	c0.228,0,0.441,0,0.681,0c0-0.302,0-0.604,0-0.907s0-0.604,0-0.907c0-0.529,0-1.059,0-1.588c0-1.06,0-2.118,0-3.176
	c0-0.228,0-0.454,0-0.681C69.76,101.857,67.34,101.857,64.92,101.857z"/>
<path fill="#5E5F5F" d="M116.415,79.853c-0.227,0-0.454,0-0.681,0c0-4.84,0-9.679,0-14.519c-2.42,0-4.84,0-7.271,0
	c0-2.42,0-4.84,0-7.26c-9.666,0-19.346,0-29.037,0c0,2.42,0,4.84,0,7.26c-2.42,0-4.827,0-7.247,0c-2.419,0-4.839,0-7.259,0
	c0,2.419,0,4.839,0,7.259c-2.433,0-4.84,0-7.26,0c0,2.42,0,4.84,0,7.26c0,2.42,0,4.839,0,7.259c2.42,0,4.827,0,7.26,0
	c0,0.681,0,1.361,0,2.042c0,0.605,0,1.21,0,1.815s0,1.209,0,1.814s0,1.21,0,1.815s0,1.21,0,1.815s0,1.21,0,1.815
	c0,0.605,0,1.21,0,1.815s0,1.21,0,1.815c2.42,0,4.84,0,7.259,0c0,0.227,0,0.453,0,0.681c0,1.058,0,2.116,0,3.176
	c0,0.529,0,1.059,0,1.588c0,0.303,0,0.604,0,0.907s0,0.605,0,0.907c-0.239,0-0.453,0-0.681,0c-2.129,0-4.234,0-6.352,0
	c-0.076,0-0.164,0-0.227,0c0-2.419,0-4.839,0-7.259c-2.433,0-4.84,0-7.26,0s-4.84,0-7.26,0c0,4.84,0,9.679,0,14.519
	c2.42,0,4.84,0,7.26,0s4.827,0,7.26,0c0,2.419,0,4.839,0,7.259c2.42,0,4.84,0,7.259,0c0-2.42,0-4.84,0-7.259c2.42,0,4.827,0,7.247,0
	c0,2.419,0,4.839,0,7.259c2.433,0,4.852,0,7.271,0c0-2.42,0-4.84,0-7.259c2.42,0,4.84,0,7.247,0c0,2.419,0,4.839,0,7.259
	c2.433,0,4.853,0,7.272,0c0,2.42,0,4.84,0,7.26c-4.839,0-9.679,0-14.519,0c0,2.42,0,4.84,0,7.259c-0.239,0-0.453,0-0.68,0
	c-0.921,0-1.815,0-2.735,0c-0.214,0-0.441,0-0.681,0c-0.215,0-0.441,0-0.668,0s-0.454,0-0.68,0c-0.228,0-0.467,0-0.682,0
	c-0.15,0-0.303,0-0.466,0c-0.076,0-0.139,0-0.214,0c-0.152,0-0.303,0-0.467,0c-0.063,0-0.139,0-0.215,0c-0.227,0-0.453,0-0.68,0
	c-0.228,0-0.454,0-0.682,0c-0.453,0-0.92,0-1.36,0c-0.228,0-0.454,0-0.681,0c-0.164,0-0.303,0-0.453,0c-0.24,0-0.454,0-0.682,0
	c-0.238,0-0.453,0-0.68,0c-0.24,0-0.454,0-0.682,0c-0.227,0-0.453,0-0.68,0c-0.454,0-0.907,0-1.374,0c-0.214,0-0.44,0-0.668,0
	c-0.151,0-0.302,0-0.454,0c-0.227,0-0.453,0-0.692,0c-0.214,0-0.441,0-0.681,0c-0.215,0-0.441,0-0.681,0c-0.214,0-0.441,0-0.669,0
	c-0.453,0-0.906,0-1.359,0c-0.228,0-0.467,0-0.682,0c-0.15,0-0.303,0-0.453,0c0,2.42,0,4.841,0,7.26c9.679,0,19.357,0,29.024,0
	c0-2.419,0-4.84,0-7.26c2.433,0,4.853,0,7.272,0s4.839,0,7.247,0c0-0.453,0-0.907,0-1.36c0-0.227,0-0.454,0-0.682
	c0-0.227,0-0.453,0-0.68c0-0.454,0-0.908,0-1.361c0-0.227,0-0.454,0-0.681s0-0.454,0-0.681s0-0.453,0-0.68c0-0.228,0-0.454,0-0.682
	c0-0.227,0-0.453,0-0.68c0-0.228,0-0.454,0-0.682c0-0.453,0-0.906,0-1.361c0-0.226,0-0.453,0-0.68s0-0.453,0-0.681
	c0-0.227,0-0.454,0-0.681s0-0.453,0-0.68c0-0.228,0-0.455,0-0.682s0-0.453,0-0.68c0-0.454,0-0.908,0-1.361c0-0.228,0-0.453,0-0.681
	s0-0.454,0-0.681s0-0.453,0-0.681c0-0.227,0-0.454,0-0.681s0-0.453,0-0.681c0-0.227,0-0.454,0-0.681c0-0.453,0-0.907,0-1.36
	c0-0.228,0-0.454,0-0.681s0-0.454,0-0.681c-2.407,0-4.827,0-7.247,0c0-4.84,0-9.679,0-14.519c-2.419,0-4.839,0-7.272,0
	c-2.407,0-4.827,0-7.247,0s-4.839,0-7.271,0c0-2.42,0-4.84,0-7.26c-2.42,0-4.827,0-7.247,0c0-0.605,0-1.21,0-1.815s0-1.209,0-1.814
	s0-1.21,0-1.815c0-0.303,0-0.605,0-0.908c0-0.151,0-0.302,0-0.454c0-0.227,0-0.453,0-0.681c2.42,0,4.827,0,7.247,0
	c1.828,0,3.643,0,5.457,0s3.629,0,5.444,0c3.617,0,7.26,0,10.889,0c0,0.681,0,1.361,0,2.042c0,0.605,0,1.21,0,1.815s0,1.209,0,1.814
	s0,1.21,0,1.815c2.419,0,4.839,0,7.247,0c0-0.681,0-1.361,0-2.041c0-0.605,0-1.21,0-1.815s0-1.21,0-1.815s0-1.21,0-1.815
	c0.681,0,1.373,0,2.054,0c0.605,0,1.21,0,1.814,0c1.198,0,2.408,0,3.63,0c2.42,0,4.84,0,7.26,0c0-2.419,0-4.839,0-7.259
	c-1.21,0-2.42,0-3.63,0c-0.604,0-1.21,0-1.814,0c-0.303,0-0.604,0-0.907,0C116.705,79.853,116.566,79.853,116.415,79.853z"/>
<path fill="#73CEE0" d="M168.138,152.672c-0.227,0-0.467,0-0.681,0c-0.454,0-0.907,0-1.361,0c-0.239,0-0.453,0-0.681,0
	c-0.239,0-0.453,0-0.681,0c-0.907,0-1.814,0-2.734,0c-0.819,0-1.651,0-2.495,0c0,2.42,0,4.84,0,7.26c-2.407,0-4.827,0-7.247,0
	c0,2.42,0,4.84,0,7.26c-4.839,0-9.679,0-14.519,0c0,2.419,0,4.839,0,7.259c-4.839,0-9.691,0-14.519,0c0,1.21,0,2.42,0,3.63
	c0,0.605,0,1.21,0,1.814c0,0.303,0,0.605,0,0.908c0,0.15,0,0.302,0,0.453c0,0.227,0,0.453,0,0.681c-0.239,0-0.453,0-0.681,0
	c-3.479,0-6.957,0-10.435,0c-1.752,0-3.479,0-5.218,0c-0.454,0-0.921,0-1.361,0c-0.239,0-0.454,0-0.681,0c-0.164,0-0.303,0-0.454,0
	c-0.453,0-0.92,0-1.361,0c-0.239,0-0.453,0-0.681,0c-0.163,0-0.301,0-0.453,0c-0.227,0-0.455,0-0.681,0c0,2.42,0,4.839,0,7.259
	c-0.227,0-0.454,0-0.681,0c-1.738,0-3.479,0-5.217,0c-0.454,0-0.908,0-1.374,0c-0.214,0-0.441,0-0.669,0c-0.15,0-0.302,0-0.453,0
	c-0.453,0-0.906,0-1.373,0c-0.215,0-0.441,0-0.682,0c-0.138,0-0.289,0-0.44,0c-1.739,0-3.478,0-5.23,0c-0.44,0-0.895,0-1.349,0
	c-0.227,0-0.466,0-0.68,0c-0.152,0-0.303,0-0.467,0c-0.441,0-0.895,0-1.348,0c-0.228,0-0.467,0-0.682,0c-0.15,0-0.303,0-0.466,0
	c-0.214,0-0.441,0-0.681,0c0-2.42,0-4.839,0-7.259c-2.42,0-4.827,0-7.247,0c0-0.681,0-1.361,0-2.042c0-0.604,0-1.209,0-1.814
	s0-1.21,0-1.814c0-0.605,0-1.211,0-1.815c-0.239,0-0.453,0-0.681,0c-0.239,0-0.453,0-0.68,0c-0.164,0-0.303,0-0.454,0
	c-0.228,0-0.454,0-0.681,0c-0.151,0-0.314,0-0.453,0c-0.757,0-1.514,0-2.27,0c-0.227,0-0.453,0-0.693,0c-0.138,0-0.289,0-0.44,0
	c-0.239,0-0.454,0-0.681,0c-0.164,0-0.303,0-0.453,0c-0.757,0-1.514,0-2.281,0c-0.215,0-0.441,0-0.669,0c-0.15,0-0.302,0-0.454,0
	c-0.226,0-0.453,0-0.692,0c-0.138,0-0.29,0-0.44,0c-0.24,0-0.454,0-0.682,0c-0.163,0-0.302,0-0.453,0c-0.227,0-0.453,0-0.681,0
	c-0.151,0-0.315,0-0.454,0c-0.378,0-0.756,0-1.146,0c-0.365,0-0.743,0-1.121,0c-0.693,0-1.374,0-2.043,0c-0.377,0-0.756,0-1.146,0
	c-0.365,0-0.756,0-1.121,0c-0.77,0-1.513,0-2.269,0c-0.391,0-0.757,0-1.135,0s-0.756,0-1.146,0c-0.681,0-1.361,0-2.029,0
	c-0.378,0-0.756,0-1.146,0c-0.366,0-0.757,0-1.122,0c-0.769,0-1.513,0-2.268,0c-0.392,0-0.757,0-1.136,0c-0.378,0-0.755,0-1.146,0
	c-0.681,0-1.349,0-2.028,0c0-2.42,0-4.84,0-7.259c-2.496,0-4.991,0-7.499,0c0-19.358,0-38.717,0-58.075c-2.42,0-4.827,0-7.247,0
	c0-4.839,0-9.679,0-14.519c0-2.42,0-4.839,0-7.259c0-1.21,0-2.42,0-3.63c0-0.604,0-1.209,0-1.815c0-0.302,0-0.604,0-0.907
	c0-0.303,0-0.605,0-0.908c0-0.076,0-0.151,0-0.227c2.42,0,4.827,0,7.247,0c0-3.63,0.012-7.26,0-10.889c0-3.629,0-7.259,0-10.889
	c0.681,0,1.361,0,2.054,0c0.605,0,1.197,0,1.803,0c1.21,0,2.432,0,3.643,0c0-0.907,0-1.814,0-2.722c0-0.454,0-0.908,0-1.361
	c0-0.227,0-0.454,0-0.681c0-0.227,0-0.454,0-0.681c0-0.453,0-0.908,0-1.361c0-0.227,0-0.453,0-0.68c0-0.227,0-0.454,0-0.681
	c0-0.454,0-0.907,0-1.361c0-0.227,0-0.454,0-0.681c0-0.227,0-0.454,0-0.68c0-0.454,0-0.907,0-1.361c0-0.227,0-0.454,0-0.681
	c0-0.227,0-0.454,0-0.681c0-0.454,0-0.908,0-1.361c0-0.227,0-0.454,0-0.681s0-0.454,0-0.681c0-0.454,0-0.907,0-1.361
	c0-0.227,0-0.454,0-0.681c0-0.227,0-0.454,0-0.68c0-0.454,0-0.908,0-1.361c0-0.227,0-0.454,0-0.68c0-0.228,0-0.455,0-0.681
	c-1.211,0-2.433,0-3.643,0c-0.605,0-1.197,0-1.803,0c-0.302,0-0.604,0-0.907,0c-0.378,0-0.756,0-1.146,0c0-4.839,0-9.68,0-14.519
	c4.928,0,9.843,0,14.758,0c0-2.419,0-4.839,0-7.259c4.827,0,9.679,0,14.519,0c0,2.42,0,4.84,0,7.259c2.42,0,4.827,0,7.26,0
	c0,2.42,0,4.839,0,7.259c4.84,0,9.679,0,14.506,0c0,2.42,0,4.84,0,7.26c1.891,0,3.781,0,5.671,0c1.828,0,3.643,0,5.458,0
	c3.629,0,7.246,0,10.888,0c3.63,0,7.26,0,10.889,0c3.63,0,7.26,0,10.89,0c0-2.42,0-4.839,0-7.26c2.42,0,4.827,0,7.247,0
	c0-2.42,0-4.839,0-7.259c0.239,0,0.466,0,0.681,0c1.752,0,3.49,0,5.229,0c0.441,0,0.908,0,1.361,0c0.228,0,0.453,0,0.681,0
	c0.151,0,0.29,0,0.453,0c0.441,0,0.908,0,1.361,0c0.228,0,0.454,0,0.681,0c0.151,0,0.29,0,0.454,0c1.727,0,3.479,0,5.218,0
	c0.453,0,0.895,0,1.361,0c0.214,0,0.453,0,0.681,0c0.138,0,0.302,0,0.453,0c0.453,0,0.907,0,1.361,0c0.214,0,0.453,0,0.681,0
	c0.139,0,0.302,0,0.453,0c0.228,0,0.454,0,0.681,0c0,2.42,0,4.839,0,7.259c2.42,0,4.84,0,7.247,0c0,3.63,0,7.26,0,10.889
	s0,7.259,0,10.889c2.432,0,4.852,0,7.271,0c0-4.84,0-9.68,0-14.519c2.42,0,4.84,0,7.247,0c0-4.839,0-9.68,0-14.519
	c-2.407,0-4.827,0-7.247,0c0-2.419,0-4.839,0-7.259c-2.42,0-4.84,0-7.271,0c0-0.227,0-0.454,0-0.681c0-1.966,0-3.932,0-5.898
	c0-0.227,0-0.454,0-0.681c-2.407,0-4.827,0-7.247,0c0-0.227,0-0.454,0-0.681c0-1.966,0-3.932,0-5.898c0-0.226,0-0.454,0-0.68
	c-3.629,0-7.271,0-10.889,0c-1.815,0-3.63,0-5.444,0c-1.815,0-3.63,0-5.457,0c0,2.42,0,4.84,0,7.259c-0.215,0-0.441,0-0.669,0
	c-0.453,0-0.907,0-1.36,0c-0.228,0-0.467,0-0.681,0c-0.303,0-0.604,0-0.907,0c-0.454,0-0.907,0-1.374,0c-0.517,0-1.046,0-1.575,0
	c-0.228,0-0.454,0-0.681,0c0,2.42,0,4.839,0,7.259c-1.21,0-2.42,0-3.63,0c-0.604,0-1.21,0-1.814,0c-0.681,0-1.361,0-2.042,0
	c0,4.84,0,9.679,0,14.519c-3.629,0-7.271,0-10.889,0c-3.629,0-7.259,0-10.901,0c0-2.42,0-4.839,0-7.259c-0.139,0-0.29,0-0.441,0
	c-0.163,0-0.302,0-0.454,0c-0.227,0-0.453,0-0.68,0c-0.453,0-0.92,0-1.361,0c-0.908,0-1.814,0-2.734,0c-0.139,0-0.291,0-0.441,0
	c-0.228,0-0.454,0-0.682,0c-0.453,0-0.906,0-1.373,0c-0.895,0-1.803,0-2.709,0c-0.152,0-0.303,0-0.467,0c-0.215,0-0.441,0-0.668,0
	c-0.454,0-0.907,0-1.361,0c-0.907,0-1.814,0-2.723,0c-0.238,0-0.453,0-0.68,0c-0.24,0-0.453,0-0.681,0c-0.454,0-0.907,0-1.374,0
	c-0.214,0-0.441,0-0.68,0c-0.215,0-0.441,0-0.682,0c-0.214,0-0.441,0-0.668,0c-0.303,0-0.605,0-0.907,0c0-0.227,0-0.454,0-0.68
	c0-1.134,0-2.269,0-3.403c0-0.529,0-1.059,0-1.588c0-0.604,0-1.209,0-1.814c0-0.227,0-0.454,0-0.681c0-0.303,0-0.605,0-0.908
	c0-0.605,0-1.21,0-1.815c0-1.209,0-2.419,0-3.629c-4.839,0-9.691,0-14.519,0c0-0.227,0-0.454,0-0.681c0-1.966,0-3.932,0-5.898
	c0-0.226,0-0.454,0-0.68C50.4,0,43.142,0,35.883,0c0,2.42,0,4.84,0,7.259c-0.228,0-0.467,0-0.681,0c-4.462,0-8.923,0-13.385,0
	c-0.227,0-0.453,0-0.681,0c0,2.42,0,4.839,0,7.259c-2.42,0-4.839,0-7.26,0c0,3.63,0,7.259,0,10.889c0,3.629,0,7.259,0,10.889
	c2.421,0,4.84,0,7.26,0c0,2.419,0,4.839,0,7.259c2.42,0,4.827,0,7.247,0c0,0.227,0,0.454,0,0.681c0,0.454,0,0.908,0,1.361
	c0,0.529,0,1.058,0,1.588c0,0.454,0,0.907,0,1.361c0,0.53,0,1.059,0,1.588c0,0.227,0,0.454,0,0.681c-2.42,0-4.827,0-7.247,0
	c0,2.419,0,4.839,0,7.259c-2.42,0-4.839,0-7.26,0c0,2.42,0,4.84,0,7.26c-2.432,0-4.839,0-7.259,0c0,4.839,0,9.679,0,14.519
	c0,2.42,0,4.839,0,7.259c0,1.21,0,2.42,0,3.63c0,0.605,0,1.21,0,1.815c0,0.68,0,1.36,0,2.041c2.42,0,4.827,0,7.259,0
	c0,2.42,0,4.84,0,7.26c-2.432,0-4.839,0-7.259,0c0,4.84,0,9.679,0,14.519c2.42,0,4.827,0,7.259,0c0,0.227,0,0.454,0,0.681
	c0,2.268,0,4.537,0,6.805c0,2.345,0,4.688,0,7.033c2.421,0,4.84,0,7.26,0c0,0.15,0,0.303,0,0.453c0,0.152,0,0.303,0,0.454
	c0,0.228,0,0.454,0,0.681c0,0.453,0,0.907,0,1.361c0,0.907,0,1.814,0,2.723c0,0.15,0,0.302,0,0.453c0,0.227,0,0.453,0,0.681
	c0,0.453,0,0.907,0,1.361c0,0.907,0,1.814,0,2.722c0,0.151,0,0.303,0,0.454c0,0.227,0,0.454,0,0.681c0,0.453,0,0.906,0,1.36
	c0,0.907,0,1.815,0,2.723c0,0.228,0,0.454,0,0.681s0,0.453,0,0.681c0,0.453,0,0.907,0,1.36c0,0.227,0,0.454,0,0.682
	c0,0.227,0,0.453,0,0.68s0,0.454,0,0.682c0,0.302,0,0.604,0,0.906c-0.239,0-0.453,0-0.681,0c-1.966,0-3.944,0-5.91,0
	c-0.215,0-0.441,0-0.669,0c0,4.84,0,9.68,0,14.52c2.421,0,4.84,0,7.26,0c0,2.419,0,4.839,0,7.259c2.42,0,4.827,0,7.247,0
	c0,0.227,0,0.454,0,0.681c0,2.041,0,4.083,0,6.125c0,0.227,0,0.453,0,0.681c2.508,0,5.003,0,7.499,0c0,2.42,0,4.839,0,7.259
	c5.897,0,11.796,0,17.693,0c1.438,0,2.874,0,4.311,0c0.139,0,0.303,0,0.454,0c0.228,0,0.454,0,0.681,0c0.151,0,0.29,0,0.453,0
	c0.228,0,0.441,0,0.682,0c0.15,0,0.303,0,0.44,0c0.239,0,0.467,0,0.692,0c0.152,0,0.304,0,0.454,0c0.228,0,0.454,0,0.669,0
	c0.768,0,1.524,0,2.281,0c0.15,0,0.289,0,0.453,0c0.227,0,0.441,0,0.681,0c0.151,0,0.303,0,0.44,0c0.24,0,0.467,0,0.693,0
	c0.756,0,1.513,0,2.27,0c0.139,0,0.302,0,0.453,0c0.227,0,0.453,0,0.681,0c0.151,0,0.29,0,0.454,0c0.227,0,0.44,0,0.68,0
	c0.228,0,0.441,0,0.681,0c0,2.42,0,4.84,0,7.26c4.827,0,9.68,0,14.519,0c0,0.227,0,0.453,0,0.681c0,0.454,0,0.907,0,1.36
	c0,0.228,0,0.455,0,0.681c0,0.304,0,0.604,0,0.908c0,0.453,0,0.907,0,1.36c0,0.529,0,1.059,0,1.588c0,0.228,0,0.455,0,0.682
	c9.68,0,19.358,0,29.037,0c0-2.42,0-4.84,0-7.26c0.227,0,0.454,0,0.681,0c2.041,0,4.071,0,6.125,0c0.228,0,0.441,0,0.681,0
	c0-2.42,0-4.84,0-7.26c0.151,0,0.302,0,0.453,0c1.739,0,3.479,0,5.218,0c1.815,0,3.63,0,5.433,0c1.752,0,3.491,0,5.229,0
	c1.815,0,3.617,0,5.433,0c0-2.42,0-4.839,0-7.259c2.433,0,4.852,0,7.271,0c0-1.21,0-2.419,0-3.63c0-0.605,0-1.21,0-1.814
	c0-0.682,0-1.361,0-2.042c2.42,0,4.84,0,7.247,0c0-2.42,0-4.84,0-7.259c0.239,0,0.466,0,0.681,0c0.466,0,0.92,0,1.373,0
	c0.517,0,1.046,0,1.589,0c0.453,0,0.906,0,1.348,0c0.542,0,1.071,0,1.601,0c0.228,0,0.454,0,0.681,0c0-2.42,0-4.84,0-7.26
	c0.227,0,0.454,0,0.681,0c4.612,0,9.226,0,13.838,0c0-2.42,0-4.84,0-7.26c-0.314,0-0.604,0-0.907,0c-0.227,0-0.454,0-0.693,0
	c-0.214,0-0.441,0-0.681,0c-0.214,0-0.44,0-0.668,0c-0.453,0-0.907,0-1.36,0c-0.228,0-0.467,0-0.681,0c-0.228,0-0.467,0-0.681,0
	c-1.814,0-3.63,0-5.457,0c-0.441,0-0.896,0-1.349,0C168.592,152.672,168.352,152.672,168.138,152.672z"/>
<path fill="#353635" d="M72.179,94.598c2.42,0,4.827,0,7.247,0c0-0.605,0-1.21,0-1.815s0-1.209,0-1.814c0.012-0.605,0-1.21,0-1.815
	c0-0.303,0-0.605,0-0.908c0-0.151,0-0.302,0-0.454c0-0.227,0-0.453,0-0.681c-2.42,0-4.827,0-7.247,0c0,0.228,0,0.454,0,0.681
	c0,0.151,0,0.303,0,0.454c0,0.303,0,0.605,0,0.908c0,0.605,0,1.21,0,1.815s0,1.209,0,1.814S72.179,93.993,72.179,94.598z"/>
<path fill="#353635" d="M72.179,58.074c0,2.42,0,4.84,0,7.26c2.42,0,4.827,0,7.247,0c0-2.42,0-4.84,0-7.26
	C77.006,58.074,74.599,58.074,72.179,58.074z"/>
<path fill="#232034" d="M72.179,50.815c0,2.419,0,4.839,0,7.259c2.42,0,4.827,0,7.247,0c9.691,0,19.371,0,29.037,0
	c2.432,0,4.852,0,7.271,0c0-2.419,0-4.839,0-7.259c-3.629,0-7.271,0-10.889,0c-3.629,0-7.259,0-10.901,0c-3.617,0-7.247,0-10.876,0
	C79.426,50.815,75.809,50.815,72.179,50.815z"/>
<path fill="#FFFFFF" d="M79.426,94.598c0,2.42,0,4.84,0,7.26c2.433,0,4.852,0,7.271,0c0-2.42,0-4.84,0-7.26
	C84.277,94.598,81.858,94.598,79.426,94.598z"/>
<path fill="#010101" d="M79.426,94.598c2.433,0,4.852,0,7.271,0c0,2.42,0,4.84,0,7.26c2.42,0,4.84,0,7.247,0c0-2.42,0-4.84,0-7.26
	c2.433,0,4.853,0,7.272,0c0-0.605,0-1.21,0-1.815s0-1.209,0-1.814s0-1.21,0-1.815c0-0.681,0-1.361,0-2.042
	c-3.629,0-7.272,0-10.889,0c-1.815,0-3.63,0-5.444,0s-3.629,0-5.457,0c0,0.228,0,0.454,0,0.681c0,0.151,0,0.303,0,0.454
	c0,0.303,0,0.605,0,0.908c0,0.605,0.012,1.21,0,1.815c0,0.605,0,1.209,0,1.814S79.426,93.993,79.426,94.598z"/>
<path fill="#353635" d="M93.944,138.153c0,2.42,0,4.841,0,7.26c2.433,0,4.853,0,7.272,0c0-2.419,0-4.84,0-7.26
	C98.797,138.153,96.377,138.153,93.944,138.153z"/>
<path fill="#232034" d="M101.216,138.153c0,2.42,0,4.841,0,7.26c2.419,0,4.839,0,7.247,0c0-2.419,0-4.84,0-7.26
	C106.056,138.153,103.636,138.153,101.216,138.153z"/>
<path fill="#232034" d="M121.406,101.857c-0.605,0-1.21,0-1.815,0c-0.604,0-1.21,0-1.814,0c-0.681,0-1.361,0-2.042,0
	c0,2.42,0,4.84,0,7.259c-2.42,0-4.84,0-7.271,0c0,2.42,0,4.84,0,7.26c0,0.227,0,0.454,0,0.681s0,0.453,0,0.681
	c0,0.453,0,0.907,0,1.36c0,0.227,0,0.454,0,0.681c0,0.228,0,0.454,0,0.681s0,0.454,0,0.681c0,0.228,0,0.454,0,0.681s0,0.453,0,0.681
	s0,0.453,0,0.681c0,0.453,0,0.907,0,1.361c0,0.227,0,0.453,0,0.68s0,0.454,0,0.682c0,0.227,0,0.453,0,0.68s0,0.454,0,0.681
	c0,0.228,0,0.454,0,0.681s0,0.454,0,0.68c0,0.455,0,0.908,0,1.361c0,0.228,0,0.454,0,0.682c0,0.227,0,0.453,0,0.68
	c0,0.228,0,0.454,0,0.682c0,0.227,0,0.453,0,0.68s0,0.454,0,0.681s0,0.454,0,0.681c0,0.453,0,0.907,0,1.361c0,0.227,0,0.453,0,0.68
	c0,0.228,0,0.455,0,0.682c0,0.453,0,0.907,0,1.36c2.432,0,4.852,0,7.271,0c0-4.839,0-9.679,0-14.519c0-2.42,0-4.84,0-7.259
	c0.681,0,1.361,0,2.042,0c0.604,0,1.21,0,1.814,0c0.605,0,1.21,0,1.815,0c0.604,0,1.21,0,1.814,0c0-2.42,0-4.84,0-7.26
	c2.42,0,4.827,0,7.247,0c0-2.419,0-4.839,0-7.259c2.433,0,4.852,0,7.271,0c0-4.84,0-9.68,0-14.519c0-2.42,0-4.839,0-7.26
	c0-1.21,0-2.42,0-3.629c0-0.605,0-1.21,0-1.815c0-0.303,0-0.605,0-0.908c0-0.302,0-0.605,0-0.907c0-0.076,0-0.151,0-0.227
	c-2.42,0-4.839,0-7.271,0c0,3.63,0,7.26,0,10.889c0,3.706,0,7.411,0,11.116c-2.42,0-4.827,0-7.247,0c0,2.42,0,4.84,0,7.26
	C122.616,101.857,122.011,101.857,121.406,101.857z"/>
<path fill="#353635" d="M123.221,65.334c-1.21,0-2.42,0-3.63,0c-0.604,0-1.21,0-1.814,0c-0.681,0-1.361,0-2.042,0
	c0,4.839,0,9.679,0,14.519c0.227,0,0.454,0,0.681,0c0.151,0,0.29,0,0.454,0c0.303,0,0.604,0,0.907,0c0.604,0,1.21,0,1.814,0
	c1.21,0,2.42,0,3.63,0c0,2.42,0,4.839,0,7.259c-2.42,0-4.84,0-7.26,0c-1.222,0-2.432,0-3.63,0c-0.604,0-1.209,0-1.814,0
	c-0.681,0-1.373,0-2.054,0c0,0.605,0,1.21,0,1.815s0,1.21,0,1.815s0,1.21,0,1.815c0,0.68,0,1.36,0,2.041c-2.407,0-4.827,0-7.247,0
	s-4.839,0-7.272,0c0,2.42,0,4.84,0,7.26c2.433,0,4.853,0,7.272,0c0,4.84,0,9.679,0,14.519c2.419,0,4.839,0,7.247,0
	c0-2.42,0-4.84,0-7.26c2.432,0,4.852,0,7.271,0c0-2.419,0-4.839,0-7.259c0.681,0,1.361,0,2.042,0c0.604,0,1.21,0,1.814,0
	c0.605,0,1.21,0,1.815,0c0.604,0,1.21,0,1.814,0c0-2.42,0-4.84,0-7.26c2.42,0,4.827,0,7.247,0c0-3.705,0-7.41,0-11.116
	c0-3.629,0-7.259,0-10.889c-2.42,0-4.827,0-7.247,0C123.221,70.173,123.221,67.753,123.221,65.334z"/>
<path fill="#353635" d="M108.463,58.074c0,2.42,0,4.84,0,7.26c2.432,0,4.852,0,7.271,0c0-2.42,0-4.84,0-7.26
	C113.314,58.074,110.895,58.074,108.463,58.074z"/>
<path fill="#232034" d="M120.045,58.074c-0.529,0-1.059,0-1.589,0c-0.302,0-0.604,0-0.906,0c-0.315,0-0.605,0-0.921,0
	c-0.289,0-0.604,0-0.895,0c0,2.42,0,4.84,0,7.26c0.681,0,1.361,0,2.042,0c0.604,0,1.21,0,1.814,0c1.21,0,2.42,0,3.63,0
	c0-2.42,0-4.84,0-7.26C122.162,58.074,121.091,58.074,120.045,58.074z"/>
<path fill="#FFFFFF" d="M121.406,116.376c-0.605,0-1.21,0-1.815,0c-0.604,0-1.21,0-1.814,0c-0.681,0-1.361,0-2.042,0
	c0,2.419,0,4.839,0,7.259c0.605,0,1.21,0,1.815,0c0.604,0,1.209,0,1.814,0c0.604,0,1.21,0,1.814,0c0.605,0,1.197,0,1.803,0
	c0.604,0,1.21,0,1.814,0c0.617,0,1.223,0,1.828,0c0.604,0,1.21,0,1.814,0c0.681,0,1.36,0,2.029,0c0-2.42,0-4.84,0-7.259
	c4.852,0,9.691,0,14.519,0c0-2.42,0-4.84,0-7.26c2.433,0,4.852,0,7.271,0c0-2.419,0-4.839,0-7.259c-4.839,0-9.679,0-14.519,0
	c-2.42,0-4.839,0-7.271,0c0,2.42,0,4.84,0,7.259c-2.42,0-4.827,0-7.247,0c0,2.42,0,4.84,0,7.26
	C122.616,116.376,122.011,116.376,121.406,116.376z"/>
<path fill="#D6EEF1" d="M137.739,76.45c0,1.209,0,2.419,0,3.629c0,2.42,0,4.84,0,7.26c0,4.839,0,9.679,0,14.519
	c4.84,0,9.68,0,14.519,0c0,2.42,0,4.84,0,7.259c-2.42,0-4.839,0-7.271,0c0,2.42,0,4.84,0,7.26c-4.827,0-9.667,0-14.519,0
	c0,2.419,0,4.839,0,7.259c-0.669,0-1.349,0-2.029,0c-0.604,0-1.21,0-1.814,0c-0.605,0-1.211,0-1.828,0c-0.604,0-1.21,0-1.814,0
	c-0.605,0-1.197,0-1.803,0c-0.604,0-1.21,0-1.814,0c-0.605,0-1.21,0-1.814,0c-0.605,0-1.21,0-1.815,0c0,4.84,0,9.68,0,14.519
	c-2.42,0-4.84,0-7.271,0c0,2.42,0,4.841,0,7.26c-2.407,0-4.827,0-7.247,0c0,2.42,0,4.839,0,7.259s0,4.84,0,7.26
	c2.419,0,4.839,0,7.247,0c0,0.227,0,0.453,0,0.681c0,0.454,0,0.907,0,1.36c0,0.53,0,1.06,0,1.589c0,0.453,0,0.907,0,1.36
	c0,0.529,0,1.059,0,1.588c0,0.228,0,0.454,0,0.682c2.432,0,4.852,0,7.271,0c0-4.84,0-9.68,0-14.52c0.227,0,0.454,0,0.681,0
	c0.214,0,0.454,0,0.681,0c0.454,0,0.907,0,1.36,0c0.228,0,0.454,0,0.669,0c0.239,0,0.466,0,0.681,0c0.466,0,0.92,0,1.373,0
	c0.228,0,0.454,0,0.681,0c0.228,0,0.441,0,0.681,0c0.441,0,0.907,0,1.361,0c0.227,0,0.453,0,0.681,0c0.214,0,0.453,0,0.681,0
	c0.453,0,0.895,0,1.361,0c0.227,0,0.453,0,0.68,0c0.228,0,0.454,0,0.668,0c0.467,0,0.92,0,1.374,0c0.227,0,0.453,0,0.681,0
	c0.227,0,0.441,0,0.681,0c0.441,0,0.907,0,1.361,0c0.906,0,1.814,0,2.722,0c0.983,0,1.966,0,2.949,0c0-2.42,0-4.839,0-7.259
	c2.42,0,4.84,0,7.247,0c0-2.419,0-4.84,0-7.26c2.433,0,4.852,0,7.271,0c0-2.419,0-4.839,0-7.259c2.42,0,4.84,0,7.247,0
	c0-2.42,0-4.84,0-7.26c-2.407,0-4.827,0-7.247,0c0-2.42,0-4.84,0-7.259c0.227,0,0.454,0,0.681,0c0.214,0,0.453,0,0.681,0
	c0.214,0,0.453,0,0.681,0c0.214,0,0.453,0,0.681,0c0.302,0,0.604,0,0.907,0c0.227,0,0.441,0,0.681,0c0.227,0,0.44,0,0.681,0
	c0.529,0,1.046,0,1.575,0c0.239,0,0.466,0,0.681,0c0-4.84,0-9.679,0-14.519c2.432,0,4.852,0,7.271,0c0-3.63,0-7.26,0-10.889
	c0-3.706,0-7.411,0-11.116c-4.84,0-9.679,0-14.519,0c0-2.419,0-4.84,0-7.26c-4.839,0-9.679,0-14.519,0c0,0.076,0,0.151,0,0.227
	c0,0.302,0,0.605,0,0.907c0,0.303,0,0.605,0,0.908C137.739,75.24,137.739,75.845,137.739,76.45z"/>
<path fill="#232034" d="M123.221,65.334c0,2.419,0,4.839,0,7.259c2.42,0,4.827,0,7.247,0c0-2.419,0-4.839,0-7.259
	C128.048,65.334,125.641,65.334,123.221,65.334z"/>
<path fill="#D6EEF1" d="M130.468,65.334c0,2.419,0,4.839,0,7.259c2.433,0,4.852,0,7.271,0c0-2.419,0-4.839,0-7.259
	C135.319,65.334,132.9,65.334,130.468,65.334z"/>
<path fill="#73CEE0" d="M166.776,50.815c0,4.839,0,9.679,0,14.519c0.076,0,0.151,0,0.227,0c0.063,0,0.151,0,0.228,0
	c0.151,0,0.303,0,0.44,0c0.315,0,0.605,0,0.921,0c0.528,0,1.046,0,1.575,0c1.071,0,2.13,0,3.176,0c0.239,0,0.467,0,0.681,0
	c0-2.42,0-4.84,0-7.26c2.432,0,4.853,0,7.271,0c0-2.419,0-4.839,0-7.259C176.455,50.815,171.616,50.815,166.776,50.815z"/>
<path fill="#73CEE0" d="M188.542,99.815c0,0.681,0,1.361,0,2.042c-2.407,0-4.827,0-7.247,0c0,4.84,0,9.679,0,14.519
	c2.42,0,4.84,0,7.247,0c0,9.679,0,19.358,0,29.037c-2.407,0-4.827,0-7.247,0c0,2.42,0,4.839,0,7.259c4.84,0,9.667,0,14.519,0
	c0-2.42,0-4.839,0-7.259c2.42,0,4.84,0,7.26,0c0-1.437,0-2.874,0-4.31c0-0.152,0-0.303,0-0.455c0-0.227,0-0.453,0-0.68
	c0-0.151,0-0.303,0-0.454c0-0.228,0-0.453,0-0.681c0-0.151,0-0.302,0-0.453c0-0.228,0-0.453,0-0.681c0-0.151,0-0.303,0-0.454
	c0-0.227,0-0.453,0-0.68c0-1.438,0-2.875,0-4.311c0-0.151,0-0.303,0-0.454c0-0.227,0-0.454,0-0.681c0-0.15,0-0.303,0-0.453
	c0-0.228,0-0.454,0-0.682c0-0.15,0-0.302,0-0.453c0-0.227,0-0.453,0-0.681c0-0.151,0-0.303,0-0.453c0-0.228,0-0.454,0-0.681
	c0-5.975,0-11.947,0-17.922c0-0.227,0-0.453,0-0.681c-2.42,0-4.84,0-7.26,0c0-0.227,0-0.454,0-0.681c0-2.268,0-4.537,0-6.805
	c0-2.344,0-4.688,0-7.033c2.42,0,4.84,0,7.26,0c0-2.42,0-4.839,0-7.259c0-1.21,0-2.42,0-3.63c0-0.604,0-1.209,0-1.815
	c0-0.68,0-1.36,0-2.041c-2.42,0-4.84,0-7.26,0c0-0.227,0-0.454,0-0.681c0-4.613,0-9.226,0-13.838c-2.419,0-4.852,0-7.271,0
	c0-0.227,0-0.454,0-0.681c0-0.983,0-1.966,0-2.949c0-0.983,0-1.966,0-2.95c0-0.227,0-0.454,0-0.681c-2.407,0-4.827,0-7.247,0
	c0,9.679,0,19.359,0,29.037c2.42,0,4.84,0,7.247,0c0,2.42,0,4.84,0,7.26c0,1.21,0,2.42,0,3.63
	C188.542,98.605,188.542,99.21,188.542,99.815z"/>
<g id="XMLID_2_">
	<g>
		<path fill="#232034" d="M116.613,159.931c0,2.33,0,4.67,0,7c2.42,0,4.83,0,7.26,0c0-2.25,0-4.49,0-6.74c-0.09,0-0.17,0-0.26,0
			c0-0.09,0-0.17,0-0.26C121.273,159.931,118.943,159.931,116.613,159.931z"/>
		<path fill="#232034" d="M118.424,167.19c-0.301,0-0.601,0-0.9,0c-0.311,0-0.61,0-0.91,0c0,2.25,0,4.49,0,6.74
			c2.42,0,4.83,0,7.26,0c0-2.25,0-4.49,0-6.74c-0.229,0-0.449,0-0.68,0c-1.07,0-2.12,0-3.18,0
			C119.483,167.19,118.943,167.19,118.424,167.19z"/>
		<path fill="#232034" d="M118.424,174.19c-0.301,0-0.601,0-0.9,0c-0.311,0-0.61,0-0.91,0c0,1.45,0,3.78,0,7c0.3,0,0.6,0,0.91,0
			c0.3,0,0.6,0,0.9,0c0.52,0,1.06,0,1.59,0c1.06,0,2.109,0,3.18,0c0.14,0,0.28,0,0.42,0c0-0.09,0-0.17,0-0.26c0.09,0,0.17,0,0.26,0
			c0-2.25,0-4.49,0-6.74c-0.229,0-0.449,0-0.68,0c-1.07,0-2.12,0-3.18,0C119.483,174.19,118.943,174.19,118.424,174.19z"/>
		<path fill="#232034" d="M118.424,174.19c0.52,0,1.06,0,1.59,0c1.06,0,2.109,0,3.18,0c0.23,0,0.45,0,0.68,0c0-0.09,0-0.17,0-0.26
			c-2.43,0-4.84,0-7.26,0c0,0.08,0,0.17,0,0.26c0.3,0,0.6,0,0.91,0C117.823,174.19,118.123,174.19,118.424,174.19z"/>
		<path fill="#232034" d="M123.873,166.931c-2.43,0-4.84,0-7.26,0c0,0.09,0,0.17,0,0.26c0.3,0,0.6,0,0.91,0c0.3,0,0.6,0,0.9,0
			c0.52,0,1.06,0,1.59,0c1.06,0,2.109,0,3.18,0c0.23,0,0.45,0,0.68,0C123.873,167.101,123.873,167.021,123.873,166.931z"/>
		<path fill="#232034" d="M123.613,181.19c0,2.33,0,4.67,0,7c0.3,0,0.6,0,0.91,0c0.3,0,0.6,0,0.9,0c0.52,0,1.06,0,1.59,0
			c1.06,0,2.109,0,3.18,0c0.23,0,0.45,0,0.68,0c0-2.33,0-4.67,0-7c-0.09,0-0.17,0-0.26,0c0-0.09,0-0.17,0-0.26
			c-2.26,0-4.49,0-6.74,0c0,0.09,0,0.17,0,0.26C123.783,181.19,123.703,181.19,123.613,181.19z"/>
		<path fill="#232034" d="M123.613,180.931c0,0.09,0,0.17,0,0.26c0.09,0,0.17,0,0.26,0c0-0.09,0-0.17,0-0.26
			C123.783,180.931,123.703,180.931,123.613,180.931z"/>
		<path fill="#232034" d="M123.613,159.931c0,0.09,0,0.17,0,0.26c0.09,0,0.17,0,0.26,0c0-0.09,0-0.17,0-0.26
			C123.783,159.931,123.703,159.931,123.613,159.931z"/>
		<path fill="#232034" d="M123.613,152.931c0,2.33,0,4.67,0,7c0.09,0,0.17,0,0.26,0c0,0.09,0,0.17,0,0.26c0.21,0,0.431,0,0.65,0
			c0.3,0,0.6,0,0.9,0c0.52,0,1.06,0,1.59,0c1.06,0,2.109,0,3.18,0c0.14,0,0.28,0,0.42,0c0-2.42,0-4.84,0-7.26
			C128.273,152.931,125.943,152.931,123.613,152.931z"/>
		<path fill="#5E5F5F" d="M123.873,160.19c0,2.25,0,4.49,0,6.74c0,0.09,0,0.17,0,0.26c0,2.25,0,4.49,0,6.74c0,0.09,0,0.17,0,0.26
			c0,2.25,0,4.49,0,6.74c2.25,0,4.48,0,6.74,0c0-2.25,0-4.49,0-6.74c0-0.09,0-0.17,0-0.26c0-2.33,0-4.67,0-7c2.42,0,4.83,0,7.26,0
			c0,2.33,0,4.67,0,7c0,0.09,0,0.17,0,0.26c0,2.25,0,4.49,0,6.74c2.25,0,4.48,0,6.74,0c0-2.25,0-4.49,0-6.74c0-0.08,0-0.17,0-0.26
			c0-1.45,0-3.78,0-7c2.42,0,4.83,0,7.26,0c0,2.33,0,4.67,0,7c0,0.09,0,0.17,0,0.26c0,2.25,0,4.49,0,6.74c2.25,0,4.48,0,6.74,0
			c0-2.25,0-4.49,0-6.74c0-0.09,0-0.17,0-0.26c0-2.25,0-4.49,0-6.74c0-0.09,0-0.17,0-0.26c0-2.25,0-4.49,0-6.74
			c-0.14,0-0.28,0-0.42,0c-1.07,0-2.12,0-3.18,0c-0.53,0-1.07,0-1.59,0c-0.301,0-0.601,0-0.9,0c-0.22,0-0.44,0-0.65,0
			c-0.09,0-0.17,0-0.26,0c-0.14,0-0.28,0-0.42,0c-1.07,0-2.12,0-3.18,0c-0.53,0-1.07,0-1.59,0c-0.301,0-0.601,0-0.9,0
			c-0.22,0-0.44,0-0.65,0c-0.09,0-0.17,0-0.26,0c-0.14,0-0.28,0-0.42,0c-1.07,0-2.12,0-3.18,0c-0.53,0-1.07,0-1.59,0
			c-0.301,0-0.601,0-0.9,0c-0.22,0-0.44,0-0.65,0c-0.09,0-0.17,0-0.26,0c-0.14,0-0.28,0-0.42,0c-1.07,0-2.12,0-3.18,0
			c-0.53,0-1.07,0-1.59,0c-0.301,0-0.601,0-0.9,0c-0.22,0-0.44,0-0.65,0c-0.09,0-0.17,0-0.26,0c-0.14,0-0.28,0-0.42,0
			c-1.07,0-2.12,0-3.18,0c-0.53,0-1.07,0-1.59,0c-0.301,0-0.601,0-0.9,0C124.304,160.19,124.083,160.19,123.873,160.19z"/>
		<path fill="#232034" d="M130.613,180.931c0,0.09,0,0.17,0,0.26c0.09,0,0.17,0,0.26,0c0-0.09,0-0.17,0-0.26
			C130.783,180.931,130.703,180.931,130.613,180.931z"/>
		<path fill="#232034" d="M130.613,166.931c0,2.33,0,4.67,0,7c2.42,0,4.83,0,7.26,0c0-2.33,0-4.67,0-7
			C135.443,166.931,133.033,166.931,130.613,166.931z"/>
		<path fill="#232034" d="M130.613,152.931c0,2.42,0,4.84,0,7.26c0.09,0,0.17,0,0.26,0c0-2.42,0-4.84,0-7.26
			C130.783,152.931,130.703,152.931,130.613,152.931z"/>
		<path fill="#232034" d="M132.424,174.19c-0.301,0-0.601,0-0.9,0c-0.311,0-0.61,0-0.91,0c0,2.25,0,4.49,0,6.74
			c0.09,0,0.17,0,0.26,0c0,0.09,0,0.17,0,0.26c0.21,0,0.431,0,0.65,0c0.3,0,0.6,0,0.9,0c0.52,0,1.06,0,1.59,0c1.06,0,2.109,0,3.18,0
			c0.14,0,0.28,0,0.42,0c0-0.09,0-0.17,0-0.26c0.09,0,0.17,0,0.26,0c0-2.25,0-4.49,0-6.74c-0.229,0-0.449,0-0.68,0
			c-1.07,0-2.12,0-3.18,0C133.483,174.19,132.943,174.19,132.424,174.19z"/>
		<path fill="#232034" d="M130.873,152.931c0,2.42,0,4.84,0,7.26c0.21,0,0.431,0,0.65,0c0.3,0,0.6,0,0.9,0c0.52,0,1.06,0,1.59,0
			c1.06,0,2.109,0,3.18,0c0.14,0,0.28,0,0.42,0c0-2.42,0-4.84,0-7.26C135.354,152.931,133.123,152.931,130.873,152.931z"/>
		<path fill="#232034" d="M134.014,174.19c1.06,0,2.109,0,3.18,0c0.23,0,0.45,0,0.68,0c0-0.09,0-0.17,0-0.26c-2.43,0-4.84,0-7.26,0
			c0,0.09,0,0.17,0,0.26c0.3,0,0.6,0,0.91,0c0.3,0,0.6,0,0.9,0C132.943,174.19,133.483,174.19,134.014,174.19z"/>
		<path fill="#232034" d="M137.613,181.19c0,2.33,0,4.67,0,7c0.3,0,0.6,0,0.91,0c0.3,0,0.6,0,0.9,0c0.52,0,1.06,0,1.59,0
			c1.06,0,2.109,0,3.18,0c0.23,0,0.45,0,0.68,0c0-2.33,0-4.67,0-7c-0.09,0-0.17,0-0.26,0c0-0.09,0-0.17,0-0.26
			c-2.26,0-4.49,0-6.74,0c0,0.09,0,0.17,0,0.26C137.783,181.19,137.703,181.19,137.613,181.19z"/>
		<path fill="#232034" d="M137.613,180.931c0,0.09,0,0.17,0,0.26c0.09,0,0.17,0,0.26,0c0-0.09,0-0.17,0-0.26
			C137.783,180.931,137.703,180.931,137.613,180.931z"/>
		<path fill="#232034" d="M137.613,152.931c0,2.42,0,4.84,0,7.26c0.09,0,0.17,0,0.26,0c0-2.42,0-4.84,0-7.26
			C137.783,152.931,137.703,152.931,137.613,152.931z"/>
		<path fill="#232034" d="M137.873,152.931c0,2.42,0,4.84,0,7.26c0.21,0,0.431,0,0.65,0c0.3,0,0.6,0,0.9,0c0.52,0,1.06,0,1.59,0
			c1.06,0,2.109,0,3.18,0c0.14,0,0.28,0,0.42,0c0-2.42,0-4.84,0-7.26C142.354,152.931,140.123,152.931,137.873,152.931z"/>
		<path fill="#232034" d="M144.613,180.931c0,0.09,0,0.17,0,0.26c0.09,0,0.17,0,0.26,0c0-0.09,0-0.17,0-0.26
			C144.783,180.931,144.703,180.931,144.613,180.931z"/>
		<path fill="#232034" d="M144.613,166.931c0,3.22,0,5.55,0,7c2.42,0,4.83,0,7.26,0c0-2.33,0-4.67,0-7
			C149.443,166.931,147.033,166.931,144.613,166.931z"/>
		<path fill="#232034" d="M144.613,152.931c0,2.42,0,4.84,0,7.26c0.09,0,0.17,0,0.26,0c0-2.42,0-4.84,0-7.26
			C144.783,152.931,144.703,152.931,144.613,152.931z"/>
		<path fill="#232034" d="M144.613,174.19c0,2.25,0,4.49,0,6.74c0.09,0,0.17,0,0.26,0c0,0.09,0,0.17,0,0.26c0.21,0,0.431,0,0.65,0
			c0.3,0,0.6,0,0.9,0c0.52,0,1.06,0,1.59,0c1.06,0,2.109,0,3.18,0c0.14,0,0.28,0,0.42,0c0-0.09,0-0.17,0-0.26c0.09,0,0.17,0,0.26,0
			c0-2.25,0-4.49,0-6.74c-0.229,0-0.449,0-0.68,0c-1.07,0-2.12,0-3.18,0c-0.53,0-1.07,0-1.59,0c-0.301,0-0.601,0-0.9,0
			C145.213,174.19,144.913,174.19,144.613,174.19z"/>
		<path fill="#232034" d="M144.873,152.931c0,2.42,0,4.84,0,7.26c0.21,0,0.431,0,0.65,0c0.3,0,0.6,0,0.9,0c0.52,0,1.06,0,1.59,0
			c1.06,0,2.109,0,3.18,0c0.14,0,0.28,0,0.42,0c0-2.42,0-4.84,0-7.26C149.354,152.931,147.123,152.931,144.873,152.931z"/>
		<path fill="#232034" d="M148.014,174.19c1.06,0,2.109,0,3.18,0c0.23,0,0.45,0,0.68,0c0-0.09,0-0.17,0-0.26c-2.43,0-4.84,0-7.26,0
			c0,0.09,0,0.18,0,0.26c0.3,0,0.6,0,0.91,0c0.3,0,0.6,0,0.9,0C146.943,174.19,147.483,174.19,148.014,174.19z"/>
		<path fill="#232034" d="M151.613,181.19c0,2.33,0,4.67,0,7c0.3,0,0.6,0,0.91,0c0.3,0,0.6,0,0.9,0c0.52,0,1.06,0,1.59,0
			c1.06,0,2.109,0,3.18,0c0.23,0,0.45,0,0.68,0c0-2.33,0-4.67,0-7c-0.09,0-0.17,0-0.26,0c0-0.09,0-0.17,0-0.26
			c-2.26,0-4.49,0-6.74,0c0,0.09,0,0.17,0,0.26C151.783,181.19,151.703,181.19,151.613,181.19z"/>
		<path fill="#232034" d="M151.613,180.931c0,0.09,0,0.17,0,0.26c0.09,0,0.17,0,0.26,0c0-0.09,0-0.17,0-0.26
			C151.783,180.931,151.703,180.931,151.613,180.931z"/>
		<path fill="#232034" d="M151.613,152.931c0,2.42,0,4.84,0,7.26c0.09,0,0.17,0,0.26,0c0-2.42,0-4.84,0-7.26
			C151.783,152.931,151.703,152.931,151.613,152.931z"/>
		<path fill="#232034" d="M151.873,152.931c0,2.42,0,4.84,0,7.26c0.21,0,0.431,0,0.65,0c0.3,0,0.6,0,0.9,0c0.52,0,1.06,0,1.59,0
			c1.06,0,2.109,0,3.18,0c0.14,0,0.28,0,0.42,0c0-0.09,0-0.17,0-0.26c0.09,0,0.17,0,0.26,0c0-2.33,0-4.67,0-7
			C156.533,152.931,154.203,152.931,151.873,152.931z"/>
		<path fill="#232034" d="M158.613,180.931c0,0.09,0,0.17,0,0.26c0.09,0,0.17,0,0.26,0c0-0.09,0-0.17,0-0.26
			C158.783,180.931,158.703,180.931,158.613,180.931z"/>
		<path fill="#232034" d="M158.613,160.19c0,2.25,0,4.49,0,6.74c2.42,0,4.83,0,7.26,0c0-2.33,0-4.67,0-7c-2.34,0-4.67,0-7,0
			c0,0.09,0,0.17,0,0.26C158.783,160.19,158.703,160.19,158.613,160.19z"/>
		<path fill="#232034" d="M158.613,159.931c0,0.09,0,0.17,0,0.26c0.09,0,0.17,0,0.26,0c0-0.09,0-0.17,0-0.26
			C158.783,159.931,158.703,159.931,158.613,159.931z"/>
		<path fill="#232034" d="M158.613,167.19c0,2.25,0,4.49,0,6.74c2.42,0,4.83,0,7.26,0c0-2.25,0-4.49,0-6.74c-0.229,0-0.449,0-0.68,0
			c-1.07,0-2.12,0-3.18,0c-0.53,0-1.07,0-1.59,0c-0.301,0-0.601,0-0.9,0C159.213,167.19,158.913,167.19,158.613,167.19z"/>
		<path fill="#232034" d="M159.523,174.19c-0.311,0-0.61,0-0.91,0c0,2.25,0,4.49,0,6.74c0.09,0,0.17,0,0.26,0c0,0.09,0,0.17,0,0.26
			c0.21,0,0.431,0,0.65,0c0.3,0,0.6,0,0.9,0c0.52,0,1.06,0,1.59,0c1.06,0,2.109,0,3.18,0c0.23,0,0.45,0,0.68,0c0-2.33,0-4.67,0-7
			c-0.229,0-0.449,0-0.68,0c-1.07,0-2.12,0-3.18,0c-0.53,0-1.07,0-1.59,0C160.123,174.19,159.823,174.19,159.523,174.19z"/>
		<path fill="#232034" d="M162.014,174.19c1.06,0,2.109,0,3.18,0c0.23,0,0.45,0,0.68,0c0-0.09,0-0.17,0-0.26c-2.43,0-4.84,0-7.26,0
			c0,0.09,0,0.17,0,0.26c0.3,0,0.6,0,0.91,0c0.3,0,0.6,0,0.9,0C160.943,174.19,161.483,174.19,162.014,174.19z"/>
		<path fill="#232034" d="M165.873,166.931c-2.43,0-4.84,0-7.26,0c0,0.09,0,0.17,0,0.26c0.3,0,0.6,0,0.91,0c0.3,0,0.6,0,0.9,0
			c0.52,0,1.06,0,1.59,0c1.06,0,2.109,0,3.18,0c0.23,0,0.45,0,0.68,0C165.873,167.101,165.873,167.021,165.873,166.931z"/>
	</g>
	<g>
	</g>
</g>
<g id="XMLID_1_">
	<g>
		<path fill="#232034" d="M0.25,159.931c0,2.33,0,4.67,0,7c2.42,0,4.83,0,7.26,0c0-2.25,0-4.49,0-6.74c-0.09,0-0.17,0-0.26,0
			c0-0.09,0-0.17,0-0.26C4.91,159.931,2.58,159.931,0.25,159.931z"/>
		<path fill="#232034" d="M1.16,167.19c-0.31,0-0.61,0-0.91,0c0,2.25,0,4.49,0,6.74c2.42,0,4.83,0,7.26,0c0-2.25,0-4.49,0-6.74
			c-0.23,0-0.45,0-0.68,0c-1.07,0-2.12,0-3.18,0c-0.53,0-1.07,0-1.59,0C1.76,167.19,1.46,167.19,1.16,167.19z"/>
		<path fill="#232034" d="M1.16,174.19c-0.31,0-0.61,0-0.91,0c0,1.45,0,3.78,0,7c0.3,0,0.6,0,0.91,0c0.3,0,0.6,0,0.9,0
			c0.52,0,1.06,0,1.59,0c1.06,0,2.11,0,3.18,0c0.14,0,0.28,0,0.42,0c0-0.09,0-0.17,0-0.26c0.09,0,0.17,0,0.26,0
			c0-2.25,0-4.49,0-6.74c-0.23,0-0.45,0-0.68,0c-1.07,0-2.12,0-3.18,0c-0.53,0-1.07,0-1.59,0C1.76,174.19,1.46,174.19,1.16,174.19z"
			/>
		<path fill="#232034" d="M7.51,173.931c-2.43,0-4.84,0-7.26,0c0,0.08,0,0.17,0,0.26c0.3,0,0.6,0,0.91,0c0.3,0,0.6,0,0.9,0
			c0.52,0,1.06,0,1.59,0c1.06,0,2.11,0,3.18,0c0.23,0,0.45,0,0.68,0C7.51,174.101,7.51,174.021,7.51,173.931z"/>
		<path fill="#232034" d="M2.06,167.19c0.52,0,1.06,0,1.59,0c1.06,0,2.11,0,3.18,0c0.23,0,0.45,0,0.68,0c0-0.09,0-0.17,0-0.26
			c-2.43,0-4.84,0-7.26,0c0,0.09,0,0.17,0,0.26c0.3,0,0.6,0,0.91,0C1.46,167.19,1.76,167.19,2.06,167.19z"/>
		<path fill="#232034" d="M7.25,181.19c0,2.33,0,4.67,0,7c0.3,0,0.6,0,0.91,0c0.3,0,0.6,0,0.9,0c0.52,0,1.06,0,1.59,0
			c1.06,0,2.11,0,3.18,0c0.23,0,0.45,0,0.68,0c0-2.33,0-4.67,0-7c-0.09,0-0.17,0-0.26,0c0-0.09,0-0.17,0-0.26c-2.26,0-4.49,0-6.74,0
			c0,0.09,0,0.17,0,0.26C7.42,181.19,7.34,181.19,7.25,181.19z"/>
		<path fill="#232034" d="M7.25,180.931c0,0.09,0,0.17,0,0.26c0.09,0,0.17,0,0.26,0c0-0.09,0-0.17,0-0.26
			C7.42,180.931,7.34,180.931,7.25,180.931z"/>
		<path fill="#232034" d="M7.25,159.931c0,0.09,0,0.17,0,0.26c0.09,0,0.17,0,0.26,0c0-0.09,0-0.17,0-0.26
			C7.42,159.931,7.34,159.931,7.25,159.931z"/>
		<path fill="#232034" d="M7.25,152.931c0,2.33,0,4.67,0,7c0.09,0,0.17,0,0.26,0c0,0.09,0,0.17,0,0.26c0.21,0,0.43,0,0.65,0
			c0.3,0,0.6,0,0.9,0c0.52,0,1.06,0,1.59,0c1.06,0,2.11,0,3.18,0c0.14,0,0.28,0,0.42,0c0-2.42,0-4.84,0-7.26
			C11.91,152.931,9.58,152.931,7.25,152.931z"/>
		<path fill="#5E5F5F" d="M8.16,160.19c-0.22,0-0.44,0-0.65,0c0,2.25,0,4.49,0,6.74c0,0.09,0,0.17,0,0.26c0,2.25,0,4.49,0,6.74
			c0,0.09,0,0.17,0,0.26c0,2.25,0,4.49,0,6.74c2.25,0,4.48,0,6.74,0c0-2.25,0-4.49,0-6.74c0-0.09,0-0.17,0-0.26c0-2.33,0-4.67,0-7
			c2.42,0,4.83,0,7.26,0c0,2.33,0,4.67,0,7c0,0.09,0,0.17,0,0.26c0,2.25,0,4.49,0,6.74c2.25,0,4.48,0,6.74,0c0-2.25,0-4.49,0-6.74
			c0-0.08,0-0.17,0-0.26c0-1.45,0-3.78,0-7c2.42,0,4.83,0,7.26,0c0,2.33,0,4.67,0,7c0,0.09,0,0.17,0,0.26c0,2.25,0,4.49,0,6.74
			c2.25,0,4.48,0,6.74,0c0-2.25,0-4.49,0-6.74c0-0.09,0-0.17,0-0.26c0-2.25,0-4.49,0-6.74c0-0.09,0-0.17,0-0.26
			c0-2.25,0-4.49,0-6.74c-0.14,0-0.28,0-0.42,0c-1.07,0-2.12,0-3.18,0c-0.53,0-1.07,0-1.59,0c-0.3,0-0.6,0-0.9,0
			c-0.22,0-0.44,0-0.65,0c-0.09,0-0.17,0-0.26,0c-0.14,0-0.28,0-0.42,0c-1.07,0-2.12,0-3.18,0c-0.53,0-1.07,0-1.59,0
			c-0.3,0-0.6,0-0.9,0c-0.22,0-0.44,0-0.65,0c-0.09,0-0.17,0-0.26,0c-0.14,0-0.28,0-0.42,0c-1.07,0-2.12,0-3.18,0
			c-0.53,0-1.07,0-1.59,0c-0.3,0-0.6,0-0.9,0c-0.22,0-0.44,0-0.65,0c-0.09,0-0.17,0-0.26,0c-0.14,0-0.28,0-0.42,0
			c-1.07,0-2.12,0-3.18,0c-0.53,0-1.07,0-1.59,0c-0.3,0-0.6,0-0.9,0c-0.22,0-0.44,0-0.65,0c-0.09,0-0.17,0-0.26,0
			c-0.14,0-0.28,0-0.42,0c-1.07,0-2.12,0-3.18,0c-0.53,0-1.07,0-1.59,0C8.76,160.19,8.46,160.19,8.16,160.19z"/>
		<path fill="#232034" d="M14.25,180.931c0,0.09,0,0.17,0,0.26c0.09,0,0.17,0,0.26,0c0-0.09,0-0.17,0-0.26
			C14.42,180.931,14.34,180.931,14.25,180.931z"/>
		<path fill="#232034" d="M14.25,166.931c0,2.33,0,4.67,0,7c2.42,0,4.83,0,7.26,0c0-2.33,0-4.67,0-7
			C19.08,166.931,16.67,166.931,14.25,166.931z"/>
		<path fill="#232034" d="M14.25,152.931c0,2.42,0,4.84,0,7.26c0.09,0,0.17,0,0.26,0c0-2.42,0-4.84,0-7.26
			C14.42,152.931,14.34,152.931,14.25,152.931z"/>
		<path fill="#232034" d="M15.16,174.19c-0.31,0-0.61,0-0.91,0c0,2.25,0,4.49,0,6.74c0.09,0,0.17,0,0.26,0c0,0.09,0,0.17,0,0.26
			c0.21,0,0.43,0,0.65,0c0.3,0,0.6,0,0.9,0c0.52,0,1.06,0,1.59,0c1.06,0,2.11,0,3.18,0c0.14,0,0.28,0,0.42,0c0-0.09,0-0.17,0-0.26
			c0.09,0,0.17,0,0.26,0c0-2.25,0-4.49,0-6.74c-0.23,0-0.45,0-0.68,0c-1.07,0-2.12,0-3.18,0c-0.53,0-1.07,0-1.59,0
			C15.76,174.19,15.46,174.19,15.16,174.19z"/>
		<path fill="#232034" d="M14.51,152.931c0,2.42,0,4.84,0,7.26c0.21,0,0.43,0,0.65,0c0.3,0,0.6,0,0.9,0c0.52,0,1.06,0,1.59,0
			c1.06,0,2.11,0,3.18,0c0.14,0,0.28,0,0.42,0c0-2.42,0-4.84,0-7.26C18.99,152.931,16.76,152.931,14.51,152.931z"/>
		<path fill="#232034" d="M17.65,174.19c1.06,0,2.11,0,3.18,0c0.23,0,0.45,0,0.68,0c0-0.09,0-0.17,0-0.26c-2.43,0-4.84,0-7.26,0
			c0,0.09,0,0.17,0,0.26c0.3,0,0.6,0,0.91,0c0.3,0,0.6,0,0.9,0C16.58,174.19,17.12,174.19,17.65,174.19z"/>
		<path fill="#232034" d="M21.25,181.19c0,2.33,0,4.67,0,7c0.3,0,0.6,0,0.91,0c0.3,0,0.6,0,0.9,0c0.52,0,1.06,0,1.59,0
			c1.06,0,2.11,0,3.18,0c0.23,0,0.45,0,0.68,0c0-2.33,0-4.67,0-7c-0.09,0-0.17,0-0.26,0c0-0.09,0-0.17,0-0.26c-2.26,0-4.49,0-6.74,0
			c0,0.09,0,0.17,0,0.26C21.42,181.19,21.34,181.19,21.25,181.19z"/>
		<path fill="#232034" d="M21.25,180.931c0,0.09,0,0.17,0,0.26c0.09,0,0.17,0,0.26,0c0-0.09,0-0.17,0-0.26
			C21.42,180.931,21.34,180.931,21.25,180.931z"/>
		<path fill="#232034" d="M21.25,152.931c0,2.42,0,4.84,0,7.26c0.09,0,0.17,0,0.26,0c0-2.42,0-4.84,0-7.26
			C21.42,152.931,21.34,152.931,21.25,152.931z"/>
		<path fill="#232034" d="M21.51,152.931c0,2.42,0,4.84,0,7.26c0.21,0,0.43,0,0.65,0c0.3,0,0.6,0,0.9,0c0.52,0,1.06,0,1.59,0
			c1.06,0,2.11,0,3.18,0c0.14,0,0.28,0,0.42,0c0-2.42,0-4.84,0-7.26C25.99,152.931,23.76,152.931,21.51,152.931z"/>
		<path fill="#232034" d="M28.25,180.931c0,0.09,0,0.17,0,0.26c0.09,0,0.17,0,0.26,0c0-0.09,0-0.17,0-0.26
			C28.42,180.931,28.34,180.931,28.25,180.931z"/>
		<path fill="#232034" d="M28.25,166.931c0,3.22,0,5.55,0,7c2.42,0,4.83,0,7.26,0c0-2.33,0-4.67,0-7
			C33.08,166.931,30.67,166.931,28.25,166.931z"/>
		<path fill="#232034" d="M28.25,152.931c0,2.42,0,4.84,0,7.26c0.09,0,0.17,0,0.26,0c0-2.42,0-4.84,0-7.26
			C28.42,152.931,28.34,152.931,28.25,152.931z"/>
		<path fill="#232034" d="M28.25,174.19c0,2.25,0,4.49,0,6.74c0.09,0,0.17,0,0.26,0c0,0.09,0,0.17,0,0.26c0.21,0,0.43,0,0.65,0
			c0.3,0,0.6,0,0.9,0c0.52,0,1.06,0,1.59,0c1.06,0,2.11,0,3.18,0c0.14,0,0.28,0,0.42,0c0-0.09,0-0.17,0-0.26c0.09,0,0.17,0,0.26,0
			c0-2.25,0-4.49,0-6.74c-0.23,0-0.45,0-0.68,0c-1.07,0-2.12,0-3.18,0c-0.53,0-1.07,0-1.59,0c-0.3,0-0.6,0-0.9,0
			C28.85,174.19,28.55,174.19,28.25,174.19z"/>
		<path fill="#232034" d="M28.51,152.931c0,2.42,0,4.84,0,7.26c0.21,0,0.43,0,0.65,0c0.3,0,0.6,0,0.9,0c0.52,0,1.06,0,1.59,0
			c1.06,0,2.11,0,3.18,0c0.14,0,0.28,0,0.42,0c0-2.42,0-4.84,0-7.26C32.99,152.931,30.76,152.931,28.51,152.931z"/>
		<path fill="#232034" d="M30.06,174.19c0.52,0,1.06,0,1.59,0c1.06,0,2.11,0,3.18,0c0.23,0,0.45,0,0.68,0c0-0.09,0-0.17,0-0.26
			c-2.43,0-4.84,0-7.26,0c0,0.09,0,0.18,0,0.26c0.3,0,0.6,0,0.91,0C29.46,174.19,29.76,174.19,30.06,174.19z"/>
		<path fill="#232034" d="M35.25,181.19c0,2.33,0,4.67,0,7c0.3,0,0.6,0,0.91,0c0.3,0,0.6,0,0.9,0c0.52,0,1.06,0,1.59,0
			c1.06,0,2.11,0,3.18,0c0.23,0,0.45,0,0.68,0c0-2.33,0-4.67,0-7c-0.09,0-0.17,0-0.26,0c0-0.09,0-0.17,0-0.26c-2.26,0-4.49,0-6.74,0
			c0,0.09,0,0.17,0,0.26C35.42,181.19,35.34,181.19,35.25,181.19z"/>
		<path fill="#232034" d="M35.25,180.931c0,0.09,0,0.17,0,0.26c0.09,0,0.17,0,0.26,0c0-0.09,0-0.17,0-0.26
			C35.42,180.931,35.34,180.931,35.25,180.931z"/>
		<path fill="#232034" d="M35.25,152.931c0,2.42,0,4.84,0,7.26c0.09,0,0.17,0,0.26,0c0-2.42,0-4.84,0-7.26
			C35.42,152.931,35.34,152.931,35.25,152.931z"/>
		<path fill="#232034" d="M35.51,152.931c0,2.42,0,4.84,0,7.26c0.21,0,0.43,0,0.65,0c0.3,0,0.6,0,0.9,0c0.52,0,1.06,0,1.59,0
			c1.06,0,2.11,0,3.18,0c0.14,0,0.28,0,0.42,0c0-0.09,0-0.17,0-0.26c0.09,0,0.17,0,0.26,0c0-2.33,0-4.67,0-7
			C40.17,152.931,37.84,152.931,35.51,152.931z"/>
		<path fill="#232034" d="M42.25,180.931c0,0.09,0,0.17,0,0.26c0.09,0,0.17,0,0.26,0c0-0.09,0-0.17,0-0.26
			C42.42,180.931,42.34,180.931,42.25,180.931z"/>
		<path fill="#232034" d="M42.25,160.19c0,2.25,0,4.49,0,6.74c2.42,0,4.83,0,7.26,0c0-2.33,0-4.67,0-7c-2.34,0-4.67,0-7,0
			c0,0.09,0,0.17,0,0.26C42.42,160.19,42.34,160.19,42.25,160.19z"/>
		<path fill="#232034" d="M42.25,159.931c0,0.09,0,0.17,0,0.26c0.09,0,0.17,0,0.26,0c0-0.09,0-0.17,0-0.26
			C42.42,159.931,42.34,159.931,42.25,159.931z"/>
		<path fill="#232034" d="M43.16,167.19c-0.31,0-0.61,0-0.91,0c0,2.25,0,4.49,0,6.74c2.42,0,4.83,0,7.26,0c0-2.25,0-4.49,0-6.74
			c-0.23,0-0.45,0-0.68,0c-1.07,0-2.12,0-3.18,0c-0.53,0-1.07,0-1.59,0C43.76,167.19,43.46,167.19,43.16,167.19z"/>
		<path fill="#232034" d="M43.16,174.19c-0.31,0-0.61,0-0.91,0c0,2.25,0,4.49,0,6.74c0.09,0,0.17,0,0.26,0c0,0.09,0,0.17,0,0.26
			c0.21,0,0.43,0,0.65,0c0.3,0,0.6,0,0.9,0c0.52,0,1.06,0,1.59,0c1.06,0,2.11,0,3.18,0c0.23,0,0.45,0,0.68,0c0-2.33,0-4.67,0-7
			c-0.23,0-0.45,0-0.68,0c-1.07,0-2.12,0-3.18,0c-0.53,0-1.07,0-1.59,0C43.76,174.19,43.46,174.19,43.16,174.19z"/>
		<path fill="#232034" d="M45.65,174.19c1.06,0,2.11,0,3.18,0c0.23,0,0.45,0,0.68,0c0-0.09,0-0.17,0-0.26c-2.43,0-4.84,0-7.26,0
			c0,0.09,0,0.17,0,0.26c0.3,0,0.6,0,0.91,0c0.3,0,0.6,0,0.9,0C44.58,174.19,45.12,174.19,45.65,174.19z"/>
		<path fill="#232034" d="M45.65,167.19c1.06,0,2.11,0,3.18,0c0.23,0,0.45,0,0.68,0c0-0.09,0-0.17,0-0.26c-2.43,0-4.84,0-7.26,0
			c0,0.09,0,0.17,0,0.26c0.3,0,0.6,0,0.91,0c0.3,0,0.6,0,0.9,0C44.58,167.19,45.12,167.19,45.65,167.19z"/>
	</g>
	<g>
	</g>
</g>
<path fill="#FFFFFF" d="M72.28,72.592c0,2.42,0,4.839,0,7.26c2.42,0,4.84,0,7.259,0c0-2.42,0-4.84,0-7.26
	C77.12,72.592,74.7,72.592,72.28,72.592z"/>
<path fill="#010101" d="M72.28,65.333c0,2.419,0,4.839,0,7.259c2.42,0,4.84,0,7.259,0c0,2.42,0,4.839,0,7.26c2.407,0,4.827,0,7.26,0
	c0-2.42,0-4.84,0-7.26c2.419,0,4.839,0,7.259,0c0-2.419,0-4.839,0-7.259c-3.629,0-7.259,0-10.901,0
	C79.539,65.333,75.909,65.333,72.28,65.333z"/>
</svg>
