<?xml version="1.0" encoding="utf-8"?>
<!-- Generator: Adobe Illustrator 15.0.0, SVG Export Plug-In  -->
<!DOCTYPE svg PUBLIC "-//W3C//DTD SVG 1.1//EN" "http://www.w3.org/Graphics/SVG/1.1/DTD/svg11.dtd" [
	<!ENTITY ns_flows "http://ns.adobe.com/Flows/1.0/">
]>
<svg version="1.1"
	 xmlns="http://www.w3.org/2000/svg" xmlns:xlink="http://www.w3.org/1999/xlink" xmlns:a="http://ns.adobe.com/AdobeSVGViewerExtensions/3.0/"
	 x="0px" y="0px" width="300px" height="300px" viewBox="-40.89 -47.63 300 300" enable-background="new -40.89 -47.63 300 300"
	 xml:space="preserve">
<defs>
</defs>
<path fill="#73CEE0" d="M0,123.636c0,4.914,0,9.83,0,14.745c2.42,0,4.84,0,7.259,0c0,2.419,0,4.839,0,7.259c2.42,0,4.84,0,7.259,0
	c0,2.42,0,4.84,0,7.26c2.408,0,4.827,0,7.247,0c0,2.42,0,4.84,0,7.259c4.928,0,9.844,0,14.746,0c0,4.84,0,9.68,0,14.519
	c2.419,0,4.839,0,7.259,0c0,2.42,0,4.84,0,7.26c4.853,0,9.692,0,14.531,0c0-2.42,0-4.84,0-7.26c-2.42,0-4.839,0-7.259,0
	c0-2.42,0-4.839,0-7.259c-2.42,0-4.853,0-7.272,0c0-4.84,0-9.679,0-14.519c-2.42,0-4.84,0-7.259,0c0-2.42,0-4.84,0-7.26
	c-2.407,0-4.827,0-7.247,0c0-2.42,0-4.84,0-7.259c-2.508,0-4.99,0-7.499,0c0-2.495,0-4.991,0-7.486c-2.42,0-4.839,0-7.247,0
	c0-2.42,0-4.84,0-7.259c2.408,0,4.827,0,7.247,0c0-0.303,0-0.605,0-0.908c0-0.227,0-0.453,0-0.68c0-0.53,0-1.06,0-1.589
	s0-1.058,0-1.587c0-0.53,0-1.06,0-1.589c0-2.118,0-4.234,0-6.353c0-2.116,0-4.234,0-6.352c0-1.059,0-2.117,0-3.176
	c0-1.059,0-2.117,0-3.176c0-2.117,0-4.234,0-6.352c0-2.117,0-4.234,0-6.352s0-4.235,0-6.352s0-4.235,0-6.352
	c-2.42,0-4.839,0-7.247,0c0,2.419,0,4.839,0,7.259c-2.419,0-4.839,0-7.259,0c0,2.42,0,4.839,0,7.26c-2.419,0-4.839,0-7.259,0
	c0,4.839,0,9.679,0,14.519c2.42,0,4.84,0,7.259,0c0,2.42,0,4.839,0,7.259c2.42,0,4.84,0,7.259,0c0,2.42,0,4.84,0,7.26
	c-2.419,0-4.839,0-7.259,0c0,2.42,0,4.84,0,7.26C4.84,123.636,2.42,123.636,0,123.636z"/>
<path fill="#98D8DF" d="M116.602,21.778c0-2.42,0-4.84,0-7.26c4.827,0,9.667,0,14.52,0c0,2.42,0,4.84,0,7.26c2.42,0,4.84,0,7.259,0
	c0,2.419,0,4.839,0,7.259c2.42,0,4.84,0,7.26,0c0,2.42,0,4.839,0,7.26c2.407,0,4.827,0,7.246,0c0,2.42,0,4.839,0,7.259
	c0,1.21,0,2.42,0,3.63c0,0.604,0,1.209,0,1.814c0,0.681,0,1.361,0,2.042c2.42,0,4.84,0,7.272,0c0,2.42,0,4.84,0,7.26
	c7.26,0,14.519,0,21.765,0c0,2.419,0,4.839,0,7.259c2.42,0,4.84,0,7.271,0c0,9.679,0,19.358,0,29.037c2.421,0,4.841,0,7.261,0
	c0,2.42,0,4.839,0,7.26c2.42,0,4.839,0,7.259,0c0,4.839,0,9.679,0,14.519c2.495,0,4.99,0,7.486,0c0,2.42,0,4.84,0,7.26
	c-2.496,0-4.991,0-7.486,0c0,4.914,0,9.83,0,14.745c-2.42,0-4.839,0-7.259,0c0,2.419,0,4.839,0,7.259c-7.261,0-14.532,0-21.778,0
	c0-2.42,0-4.84,0-7.259c-7.259,0-14.519,0-21.791,0c0,2.419,0,4.839,0,7.259c2.42,0,4.84,0,7.272,0c0,2.42,0,4.84,0,7.26
	c2.42,0,4.84,0,7.26,0c0,4.84,0,9.679,0,14.519c-2.42,0-4.84,0-7.26,0c0,4.839,0,9.679,0,14.519c-9.691,0-19.358,0-29.037,0
	c0-2.42,0-4.84,0-7.26c-2.421,0-4.853,0-7.272,0c0,2.42,0,4.84,0,7.26c-4.902,0-9.83,0-14.732,0c0,2.42,0,4.84,0,7.26
	c-9.692,0-19.358,0-29.037,0c0,2.419,0,4.839,0,7.258c-2.421,0-4.853,0-7.272,0c0-2.419,0-4.839,0-7.258c-2.42,0-4.839,0-7.247,0
	c0-2.42,0-4.84,0-7.26c-2.419,0-4.839,0-7.259,0c0-2.42,0-4.84,0-7.26c-2.42,0-4.839,0-7.259,0c0-2.42,0-4.839,0-7.259
	c-2.42,0-4.853,0-7.272,0c0-4.84,0-9.679,0-14.519c-2.42,0-4.84,0-7.259,0c0-2.42,0-4.84,0-7.26c-2.407,0-4.827,0-7.247,0
	c0-2.42,0-4.84,0-7.259c-2.508,0-4.99,0-7.499,0c0-2.495,0-4.991,0-7.486c-2.42,0-4.839,0-7.247,0c0-2.42,0-4.84,0-7.259
	c2.408,0,4.827,0,7.247,0c0-0.303,0-0.605,0-0.908c0-0.227,0-0.453,0-0.68c0-0.53,0-1.06,0-1.589s0-1.058,0-1.587
	c0-0.53,0-1.06,0-1.589c0-2.118,0-4.234,0-6.353c0-2.116,0-4.234,0-6.352c0-1.059,0-2.117,0-3.176c0-1.059,0-2.117,0-3.176
	c0-2.117,0-4.234,0-6.352c0-2.117,0-4.234,0-6.352s0-4.235,0-6.352s0-4.235,0-6.352c4.928,0,9.844,0,14.746,0
	c0-4.84,0-9.68,0-14.519c4.839,0,9.679,0,14.531,0c0-0.303,0-0.605,0-0.908c0-0.227,0-0.454,0-0.681c0-0.454,0-0.907,0-1.361
	c0-0.227,0-0.454,0-0.681c0-0.227,0-0.454,0-0.68c0-0.454,0-0.907,0-1.361c0-1.815,0-3.63,0-5.445c0-3.63,0-7.259,0-10.889
	c9.679,0,19.345,0,29.037,0c0,2.42,0,4.839,0,7.259c2.42,0,4.84,0,7.259,0c0,1.21,0,2.42,0,3.63c0,0.604,0,1.209,0,1.814
	c0,0.681,0,1.361,0,2.042c0,2.42,0,4.84,0,7.26c-4.839,0-9.68,0-14.531,0c0,2.419,0,4.839,0,7.259c-2.42,0-4.839,0-7.247,0
	c0,4.84,0,9.679,0,14.519c-2.419,0-4.839,0-7.259,0c0,9.679,0,19.358,0,29.037c-2.42,0-4.839,0-7.259,0c0,4.84,0,9.68,0,14.52
	c0,2.419,0,4.839,0,7.259c0,2.495,0,4.991,0,7.486c2.42,0,4.839,0,7.259,0c0,4.839,0,9.679,0,14.519c2.42,0,4.84,0,7.259,0
	c0,4.84,0,9.679,0,14.519c7.247,0,14.52,0,21.778,0c0,2.42,0,4.839,0,7.259c2.42,0,4.84,0,7.26,0c0-2.42,0-4.839,0-7.259
	c2.407,0,4.826,0,7.246,0c0-3.63,0-7.26,0-10.89c0-3.629,0-7.259,0-10.889c4.928,0,9.843,0,14.758,0c0-2.42,0-4.84,0-7.259
	c2.408,0,4.827,0,7.247,0c0-2.495,0-4.991,0-7.486c2.42,0,4.852,0,7.272,0c2.42,0,4.84,0,7.259,0c0-4.84,0-9.679,0-14.519
	c2.42,0,4.84,0,7.26,0c0-2.42,0-4.84,0-7.26c2.407,0,4.827,0,7.246,0c0-2.42,0-4.839,0-7.259c4.84,0,9.692,0,14.532,0
	c0-0.227,0-0.454,0-0.681c0-0.832,0-1.664,0-2.495c0-0.832,0-1.664,0-2.496c0-1.74,0-3.479,0-5.218c0-0.832,0-1.663,0-2.495
	s0-1.664,0-2.496c0-1.739,0-3.479,0-5.218c0-0.227,0-0.454,0-0.681c-2.42,0-4.84,0-7.26,0c0-2.419,0-4.839,0-7.259
	c-2.433,0-4.853,0-7.272,0c0-2.42,0-4.84,0-7.26c-2.419,0-4.839,0-7.246,0c-2.42,0-4.84,0-7.26,0c0-2.42,0-4.839,0-7.259
	c-2.419,0-4.839,0-7.259,0c0-2.42,0-4.84,0-7.26c-9.755,0-19.51,0-29.277,0c0-1.739,0-3.478,0-5.217c0-1.815,0-3.63,0-5.445
	c0-0.151,0-0.302,0-0.454c0-0.227,0-0.454,0-0.681c0-0.454,0-0.908,0-1.361c0-0.228,0-0.454,0-0.681c0-0.227,0-0.454,0-0.681
	c0-0.454,0-0.907,0-1.361c0-1.815,0-3.629,0-5.444c0-0.227,0-0.454,0-0.681c-2.42,0-4.839,0-7.246,0c0-2.419,0-4.839,0-7.259
	c0.214,0,0.454,0,0.681,0c6.881,0,13.762,0,20.631,0C116.136,21.778,116.376,21.778,116.602,21.778z M167.418,130.895
	c0-4.612,0-9.226,0-13.839c0-0.227,0-0.453,0-0.68c-4.613,0-9.227,0-13.852,0c-0.214,0-0.44,0-0.681,0c0,4.84,0,9.679,0,14.519
	C157.726,130.895,162.578,130.895,167.418,130.895z"/>
<path fill="#D6EEF1" d="M51.042,130.895c0,2.495,0,4.991,0,7.486c2.42,0,4.839,0,7.259,0c0,4.839,0,9.679,0,14.519
	c2.42,0,4.84,0,7.259,0c0,4.84,0,9.679,0,14.519c7.247,0,14.52,0,21.778,0c0,2.42,0,4.839,0,7.259c2.42,0,4.84,0,7.26,0
	c0-2.42,0-4.839,0-7.259c2.407,0,4.826,0,7.246,0c0-3.63,0-7.26,0-10.89c0-3.629,0-7.259,0-10.889c-7.246,0-14.506,0-21.765,0
	c0-2.42,0-4.84,0-7.259c-2.421,0-4.853,0-7.272,0c0-2.495,0-4.991,0-7.486c-2.42,0-4.839,0-7.247,0c0-4.84,0-9.679,0-14.519
	c-2.419,0-4.839,0-7.259,0c0-2.42,0-4.84,0-7.26c-2.42,0-4.839,0-7.259,0c0,4.84,0,9.68,0,14.52
	C51.042,126.055,51.042,128.475,51.042,130.895z"/>
<path fill="#73CEE0" d="M58.301,181.937c0,4.84,0,9.679,0,14.518c4.84,0,9.667,0,14.506,0c0-2.419,0-4.839,0-7.258
	c-2.42,0-4.839,0-7.247,0c0-2.42,0-4.84,0-7.26C63.141,181.937,60.721,181.937,58.301,181.937z"/>
<path fill="#232034" d="M58.301,109.116c0,2.42,0,4.84,0,7.26c2.42,0,4.84,0,7.259,0c0-4.84,0-9.68,0-14.519c0-2.42,0-4.84,0-7.26
	c0-2.419,0-4.839,0-7.259c0-2.42,0-4.84,0-7.26c-2.419,0-4.839,0-7.259,0C58.301,89.758,58.301,99.437,58.301,109.116z"/>
<path fill="#232034" d="M65.56,116.376c0,4.84,0,9.679,0,14.519c2.408,0,4.827,0,7.247,0c0-2.42,0-4.84,0-7.259
	c0-2.42,0-4.84,0-7.26C70.387,116.376,67.968,116.376,65.56,116.376z"/>
<path fill="#FFFFFF" d="M65.56,94.598c0,2.42,0,4.839,0,7.26c2.408,0,4.827,0,7.247,0c0-2.42,0-4.84,0-7.26
	C70.387,94.598,67.968,94.598,65.56,94.598z"/>
<path fill="#010101" d="M65.56,87.339c0,2.419,0,4.839,0,7.259c2.408,0,4.827,0,7.247,0c0,2.42,0,4.839,0,7.26
	c2.42,0,4.852,0,7.272,0c0-4.84,0-9.679,0-14.519c-2.421,0-4.853,0-7.272,0S67.968,87.339,65.56,87.339z"/>
<path fill="#353635" d="M65.56,80.079c0,2.42,0,4.839,0,7.26c2.408,0,4.827,0,7.247,0c0-2.42,0-4.84,0-7.26
	C70.387,80.079,67.968,80.079,65.56,80.079z"/>
<path fill="#232034" d="M65.56,65.561c0,4.84,0,9.679,0,14.519c2.408,0,4.827,0,7.247,0c0-2.419,0-4.839,0-7.259
	c0-2.42,0-4.84,0-7.26C70.387,65.561,67.968,65.561,65.56,65.561z"/>
<path fill="#73CEE0" d="M72.807,196.454c0,2.421,0,4.841,0,7.26c9.692,0,19.371,0,29.037,0c0-2.419,0-4.839,0-7.26
	c9.768,0,19.522,0,29.277,0c0-2.419,0-4.839,0-7.258c0.227,0,0.44,0,0.681,0c3.479,0,6.956,0,10.422,0c1.739,0,3.491,0,5.231,0
	c1.802,0,3.629,0,5.431,0c3.492,0,6.97,0,10.448,0c1.727,0,3.466,0,5.205,0c1.827,0,3.642,0,5.457,0c0.214,0,0.454,0,0.681,0
	c0-2.42,0-4.84,0-7.26c2.42,0,4.827,0,7.246,0c0-9.68,0-19.358,0-29.037c4.84,0,9.692,0,14.532,0c0-2.42,0-4.84,0-7.26
	c-7.261,0-14.532,0-21.778,0c0-2.42,0-4.84,0-7.259c-7.259,0-14.519,0-21.791,0c0,2.419,0,4.839,0,7.259c2.42,0,4.84,0,7.272,0
	c0,2.42,0,4.84,0,7.26c2.42,0,4.84,0,7.26,0c0,4.84,0,9.679,0,14.519c-2.42,0-4.84,0-7.26,0c0,4.839,0,9.679,0,14.519
	c-9.691,0-19.358,0-29.037,0c0-2.42,0-4.84,0-7.26c-2.421,0-4.853,0-7.272,0c0,2.42,0,4.84,0,7.26c-4.902,0-9.83,0-14.732,0
	c0,2.42,0,4.84,0,7.26c-9.692,0-19.358,0-29.037,0c0,2.419,0,4.839,0,7.258C77.658,196.454,75.227,196.454,72.807,196.454z"/>
<path fill="#232034" d="M72.807,130.895c0,2.495,0,4.991,0,7.486c2.42,0,4.852,0,7.272,0c0-2.495,0-4.991,0-7.486
	C77.658,130.895,75.227,130.895,72.807,130.895z"/>
<path fill="#5E5F5F" d="M72.807,123.636c0,2.419,0,4.839,0,7.259c2.42,0,4.852,0,7.272,0c0-2.42,0-4.84,0-7.259
	C77.658,123.636,75.227,123.636,72.807,123.636z"/>
<path fill="#010101" d="M72.807,116.376c0,2.42,0,4.84,0,7.26c2.42,0,4.852,0,7.272,0c0-2.42,0-4.84,0-7.26
	C77.658,116.376,75.227,116.376,72.807,116.376z"/>
<path fill="#353635" d="M72.807,65.561c0,2.42,0,4.84,0,7.26c2.42,0,4.852,0,7.272,0c0-2.42,0-4.84,0-7.26
	C77.658,65.561,75.227,65.561,72.807,65.561z"/>
<path fill="#232034" d="M72.807,58.302c0,2.419,0,4.839,0,7.259c2.42,0,4.852,0,7.272,0c2.42,0,4.84,0,7.259,0
	c0-2.42,0-4.839,0-7.259C82.499,58.302,77.658,58.302,72.807,58.302z"/>
<path fill="#232034" d="M80.079,138.381c0,2.419,0,4.839,0,7.259c7.259,0,14.519,0,21.765,0c4.928,0,9.843,0,14.758,0
	c0-2.42,0-4.84,0-7.259c-2.494,0-4.99,0-7.485,0C99.424,138.381,89.758,138.381,80.079,138.381z"/>
<path fill="#010101" d="M80.079,123.636c0,2.419,0,4.839,0,7.259c2.42,0,4.84,0,7.259,0c0-2.42,0-4.84,0-7.259
	C84.919,123.636,82.499,123.636,80.079,123.636z"/>
<path fill="#010101" d="M80.079,101.857c0,2.42,0,4.839,0,7.259c2.42,0,4.84,0,7.259,0c0-2.42,0-4.839,0-7.259
	C84.919,101.857,82.499,101.857,80.079,101.857z"/>
<path fill="#353635" d="M87.338,87.339c0,2.419,0,4.839,0,7.259c2.42,0,4.84,0,7.26,0c0-2.419,0-4.839,0-7.259
	C92.178,87.339,89.758,87.339,87.338,87.339z"/>
<path fill="#353635" d="M87.338,58.302c0,2.419,0,4.839,0,7.259c2.42,0,4.84,0,7.26,0c0-2.42,0-4.839,0-7.259
	C92.178,58.302,89.758,58.302,87.338,58.302z"/>
<path fill="#232034" d="M87.338,51.042c0,2.42,0,4.84,0,7.26c2.42,0,4.84,0,7.26,0c9.755,0,19.51,0,29.251,0c2.42,0,4.852,0,7.272,0
	c0-2.42,0-4.84,0-7.26c-9.755,0-19.51,0-29.277,0C97.005,51.042,92.178,51.042,87.338,51.042z"/>
<path fill="#73CEE0" d="M87.338,51.042c4.84,0,9.667,0,14.506,0c0-1.739,0-3.478,0-5.217c0-1.815,0-3.63,0-5.445
	c0-0.151,0-0.302,0-0.454c0-0.227,0-0.454,0-0.681c0-0.454,0-0.908,0-1.361c0-0.228,0-0.454,0-0.681c0-0.227,0-0.454,0-0.681
	c0-0.454,0-0.907,0-1.361c0-1.815,0-3.629,0-5.444c0-0.227,0-0.454,0-0.681c-2.42,0-4.839,0-7.246,0c0,2.42,0,4.839,0,7.26
	c-2.42,0-4.84,0-7.26,0c0-2.42,0-4.84,0-7.26c-2.041,0-4.083,0-6.138,0c-0.517,0-1.046,0-1.575,0s-1.059,0-1.588,0
	c-1.059,0-2.13,0-3.188,0c-0.971,0-1.953,0-2.937,0c-0.529,0-1.059,0-1.588,0s-1.059,0-1.588,0c-0.53,0-1.071,0-1.601,0
	s-1.059,0-1.576,0c-1.058,0-2.116,0-3.175,0c-0.983,0-1.979,0-2.963,0c-0.529,0-1.059,0-1.587,0c-0.529,0-1.047,0-1.576,0
	c-0.528,0-1.058,0-1.587,0s-1.059,0-1.589,0c-1.071,0-2.13,0-3.176,0c-0.529,0-1.059,0-1.588,0s-1.059,0-1.588,0
	c-1.071,0-2.13,0-3.176,0c-0.529,0-1.059,0-1.588,0s-1.059,0-1.588,0c-0.53,0-1.072,0-1.602,0c-0.528,0-1.058,0-1.575,0
	c-0.227,0-0.466,0-0.692,0c0,4.839,0,9.68,0,14.519c-2.407,0-4.827,0-7.247,0c0,3.63,0,7.26,0,10.889c0,1.815,0,3.629,0,5.444
	c0,1.891,0,3.781,0,5.671c-2.508,0-4.99,0-7.499,0c0,2.42,0,4.84,0,7.26c4.928,0,9.844,0,14.746,0c0-4.84,0-9.68,0-14.519
	c4.839,0,9.679,0,14.531,0c0-0.303,0-0.605,0-0.908c0-0.227,0-0.454,0-0.681c0-0.454,0-0.907,0-1.361c0-0.227,0-0.454,0-0.681
	c0-0.227,0-0.454,0-0.68c0-0.454,0-0.907,0-1.361c0-1.815,0-3.63,0-5.445c0-3.63,0-7.259,0-10.889c9.679,0,19.345,0,29.037,0
	c0,2.42,0,4.839,0,7.259c2.42,0,4.84,0,7.259,0c0,1.21,0,2.42,0,3.63c0,0.604,0,1.209,0,1.814
	C87.338,49.681,87.338,50.361,87.338,51.042z"/>
<path fill="#73CEE0" d="M87.338,29.037c0,2.42,0,4.839,0,7.26c2.42,0,4.84,0,7.26,0c0-2.42,0-4.84,0-7.26
	C92.178,29.037,89.758,29.037,87.338,29.037z"/>
<path fill="#73CEE0" d="M87.338,14.519c0,4.84,0,9.679,0,14.519c2.42,0,4.84,0,7.26,0c0-2.419,0-4.839,0-7.259
	c0.214,0,0.454,0,0.681,0c6.881,0,13.762,0,20.631,0c0.227,0,0.467,0,0.692,0c0-2.42,0-4.84,0-7.26c4.827,0,9.667,0,14.52,0
	c0-1.21,0-2.42,0-3.629c0-1.21,0-2.42,0-3.629c-2.421,0-4.853,0-7.272,0c0-1.21,0-2.42,0-3.63c0-1.209,0-2.419,0-3.629
	c-7.321,0-14.657,0-22.005,0c0,0.605,0,1.21,0,1.814c0,0.605,0,1.21,0,1.815c0,0.605,0,1.21,0,1.815c0,0.302,0,0.605,0,0.907
	c0,0.303,0,0.605,0,0.908c-2.42,0-4.839,0-7.246,0c0,1.209,0,2.419,0,3.629c0,1.209,0,2.419,0,3.629
	C92.178,14.519,89.758,14.519,87.338,14.519z"/>
<path fill="#010101" d="M88.019,116.376c-0.239,0-0.466,0-0.681,0c0,2.42,0,4.84,0,7.26c2.42,0,4.84,0,7.26,0c0-2.42,0-4.84,0-7.26
	C92.392,116.376,90.198,116.376,88.019,116.376z"/>
<path fill="#010101" d="M94.598,123.636c0,2.419,0,4.839,0,7.259c2.407,0,4.826,0,7.246,0c0-2.42,0-4.84,0-7.259
	C99.424,123.636,97.005,123.636,94.598,123.636z"/>
<path fill="#FFFFFF" d="M94.598,94.598c0,2.42,0,4.839,0,7.26c2.407,0,4.826,0,7.246,0c0-2.42,0-4.84,0-7.26
	C99.424,94.598,97.005,94.598,94.598,94.598z"/>
<path fill="#010101" d="M94.598,87.339c0,2.419,0,4.839,0,7.259c2.407,0,4.826,0,7.246,0c0,2.42,0,4.839,0,7.26
	c2.42,0,4.84,0,7.272,0c0-2.42,0-4.84,0-7.26c1.21,0,2.42,0,3.63,0c0.592,0,1.21,0,1.802,0c0.681,0,1.361,0,2.054,0
	c0-2.419,0-4.839,0-7.259C109.254,87.339,101.933,87.339,94.598,87.339z"/>
<path fill="#010101" d="M101.844,116.376c0,2.42,0,4.84,0,7.26c2.42,0,4.84,0,7.272,0c0-2.42,0-4.84,0-7.26
	C106.684,116.376,104.264,116.376,101.844,116.376z"/>
<path fill="#353635" d="M109.116,130.895c0,2.495,0,4.991,0,7.486c2.495,0,4.991,0,7.485,0c0-2.495,0-4.991,0-7.486
	C114.107,130.895,111.611,130.895,109.116,130.895z"/>
<path fill="#353635" d="M109.116,94.598c0,2.42,0,4.839,0,7.26c1.21,0,2.42,0,3.63,0c0.592,0,1.21,0,1.802,0
	c0.681,0,1.361,0,2.054,0c0,4.839,0,9.679,0,14.519c2.408,0,4.827,0,7.247,0c0-2.42,0-4.84,0-7.26c2.42,0,4.852,0,7.272,0
	c0-2.42,0-4.839,0-7.259c2.42,0,4.84,0,7.259,0c0-2.42,0-4.84,0-7.26c2.42,0,4.84,0,7.26,0c0-1.814,0-3.629,0-5.444
	c0-1.814,0-3.629,0-5.444s0-3.63,0-5.444c0-1.815,0-3.63,0-5.444c-2.42,0-4.84,0-7.26,0c0-2.42,0-4.84,0-7.26
	c-2.419,0-4.839,0-7.259,0c0,4.84,0,9.679,0,14.519c2.42,0,4.84,0,7.259,0c0,2.42,0,4.839,0,7.26c-4.839,0-9.68,0-14.531,0
	c0,2.419,0,4.839,0,7.259c-2.42,0-4.839,0-7.247,0c-0.692,0-1.373,0-2.054,0c-0.592,0-1.21,0-1.802,0
	C111.536,94.598,110.326,94.598,109.116,94.598z"/>
<path fill="#5E5F5F" d="M114.548,101.857c-0.592,0-1.21,0-1.802,0c-1.21,0-2.42,0-3.63,0c-2.433,0-4.853,0-7.272,0s-4.839,0-7.246,0
	c0-2.42,0-4.84,0-7.26c-2.42,0-4.84,0-7.26,0c0-2.419,0-4.839,0-7.259c2.42,0,4.84,0,7.26,0c7.335,0,14.656,0,22.004,0
	c0,2.419,0,4.839,0,7.259c2.408,0,4.827,0,7.247,0c0-2.419,0-4.839,0-7.259c4.852,0,9.692,0,14.531,0c0-2.42,0-4.84,0-7.26
	c-2.419,0-4.839,0-7.259,0c0-4.839,0-9.679,0-14.519c-2.421,0-4.853,0-7.272,0c0-2.42,0-4.839,0-7.259c-9.741,0-19.496,0-29.251,0
	c0,2.419,0,4.839,0,7.259c-2.42,0-4.84,0-7.26,0c-2.419,0-4.839,0-7.259,0c0,2.42,0,4.84,0,7.26c-2.421,0-4.853,0-7.272,0
	c0,2.419,0,4.839,0,7.259c0,2.42,0,4.839,0,7.26c2.42,0,4.852,0,7.272,0c0,4.839,0,9.679,0,14.519c2.42,0,4.84,0,7.259,0
	c0,2.42,0,4.839,0,7.259c-2.419,0-4.839,0-7.259,0c0-2.42,0-4.839,0-7.259c-2.421,0-4.853,0-7.272,0s-4.839,0-7.247,0
	c0,4.839,0,9.679,0,14.519c2.408,0,4.827,0,7.247,0s4.852,0,7.272,0c0,2.42,0,4.84,0,7.26c2.42,0,4.84,0,7.259,0
	c0-2.42,0-4.84,0-7.26c0.215,0,0.441,0,0.681,0c2.18,0,4.373,0,6.579,0c0,2.42,0,4.84,0,7.26c2.407,0,4.826,0,7.246,0
	c0-2.42,0-4.84,0-7.26c2.42,0,4.84,0,7.272,0c0,2.42,0,4.84,0,7.26c-2.433,0-4.853,0-7.272,0c0,2.419,0,4.839,0,7.259
	c-2.42,0-4.839,0-7.246,0c0-2.42,0-4.84,0-7.259c-2.42,0-4.84,0-7.26,0c0,2.419,0,4.839,0,7.259c-2.419,0-4.839,0-7.259,0
	c0,2.495,0,4.991,0,7.486c9.679,0,19.345,0,29.037,0c0-2.495,0-4.991,0-7.486c2.495,0,4.991,0,7.485,0c2.408,0,4.827,0,7.247,0
	c0-4.84,0-9.679,0-14.519c-2.42,0-4.839,0-7.247,0c0-4.84,0-9.68,0-14.519C115.909,101.857,115.229,101.857,114.548,101.857z"/>
<path fill="#232034" d="M116.602,130.895c0,2.495,0,4.991,0,7.486c2.408,0,4.827,0,7.247,0c0-2.495,0-4.991,0-7.486
	C121.429,130.895,119.01,130.895,116.602,130.895z"/>
<path fill="#232034" d="M123.849,116.376c0,4.84,0,9.679,0,14.519c2.42,0,4.852,0,7.272,0c0-4.84,0-9.679,0-14.519
	c2.42,0,4.84,0,7.259,0c0-2.42,0-4.84,0-7.26c2.42,0,4.84,0,7.26,0c0-2.42,0-4.839,0-7.259c2.407,0,4.827,0,7.246,0
	c0-9.679,0-19.358,0-29.037c-2.419,0-4.839,0-7.246,0c0,1.814,0,3.629,0,5.444c0,1.814,0,3.629,0,5.444s0,3.63,0,5.444
	c0,1.815,0,3.63,0,5.444c-2.42,0-4.84,0-7.26,0c0,2.42,0,4.839,0,7.26c-2.419,0-4.839,0-7.259,0c0,2.42,0,4.839,0,7.259
	c-2.421,0-4.853,0-7.272,0C123.849,111.536,123.849,113.956,123.849,116.376z"/>
<path fill="#353635" d="M123.849,58.302c0,2.419,0,4.839,0,7.259c2.42,0,4.852,0,7.272,0c0-2.42,0-4.839,0-7.259
	C128.7,58.302,126.269,58.302,123.849,58.302z"/>
<path fill="#D6EEF1" d="M131.121,116.376c0,4.84,0,9.679,0,14.519c2.42,0,4.84,0,7.259,0c0-4.84,0-9.679,0-14.519
	C135.961,116.376,133.541,116.376,131.121,116.376z"/>
<path fill="#232034" d="M131.121,58.302c0,2.419,0,4.839,0,7.259c2.42,0,4.84,0,7.259,0c0-2.42,0-4.839,0-7.259
	C135.961,58.302,133.541,58.302,131.121,58.302z"/>
<path fill="#73CEE0" d="M131.121,14.519c0,2.42,0,4.84,0,7.26c2.42,0,4.84,0,7.259,0c0-2.42,0-4.84,0-7.26
	C135.961,14.519,133.541,14.519,131.121,14.519z"/>
<path fill="#D6EEF1" d="M138.38,109.116c0,2.42,0,4.84,0,7.26c2.42,0,4.84,0,7.26,0c0-2.42,0-4.84,0-7.26
	C143.22,109.116,140.8,109.116,138.38,109.116z"/>
<path fill="#232034" d="M138.38,65.561c0,2.42,0,4.84,0,7.26c2.42,0,4.84,0,7.26,0c0-2.42,0-4.84,0-7.26
	C143.22,65.561,140.8,65.561,138.38,65.561z"/>
<path fill="#73CEE0" d="M138.38,21.778c0,2.419,0,4.839,0,7.259c2.42,0,4.84,0,7.26,0c0,2.42,0,4.839,0,7.26
	c2.407,0,4.827,0,7.246,0c0-4.84,0-9.679,0-14.519C148.047,21.778,143.22,21.778,138.38,21.778z"/>
<path fill="#D6EEF1" d="M145.64,101.857c0,2.42,0,4.839,0,7.259c2.407,0,4.827,0,7.246,0c0-2.42,0-4.839,0-7.259
	C150.467,101.857,148.047,101.857,145.64,101.857z"/>
<path fill="#D6EEF1" d="M145.64,65.561c0,2.42,0,4.84,0,7.26c2.407,0,4.827,0,7.246,0c0-2.42,0-4.84,0-7.26
	C150.467,65.561,148.047,65.561,145.64,65.561z"/>
<path fill="#D6EEF1" d="M152.886,72.82c0,9.679,0,19.358,0,29.037c4.84,0,9.692,0,14.532,0c0-0.227,0-0.454,0-0.681
	c0-0.832,0-1.664,0-2.495c0-0.832,0-1.664,0-2.496c0-1.74,0-3.479,0-5.218c0-0.832,0-1.663,0-2.495s0-1.664,0-2.496
	c0-1.739,0-3.479,0-5.218c0-0.227,0-0.454,0-0.681c-2.42,0-4.84,0-7.26,0c0-2.419,0-4.839,0-7.259
	C157.726,72.82,155.306,72.82,152.886,72.82z"/>
<path fill="#73CEE0" d="M152.886,49c0,0.681,0,1.361,0,2.042c2.42,0,4.84,0,7.272,0c0,2.42,0,4.84,0,7.26c7.26,0,14.519,0,21.765,0
	c0,2.419,0,4.839,0,7.259c2.42,0,4.84,0,7.271,0c0,9.679,0,19.358,0,29.037c2.421,0,4.841,0,7.261,0c0,2.42,0,4.839,0,7.26
	c2.42,0,4.839,0,7.259,0c0,4.839,0,9.679,0,14.519c2.495,0,4.99,0,7.486,0c0,2.42,0,4.84,0,7.26c-2.496,0-4.991,0-7.486,0
	c0,4.914,0,9.83,0,14.745c2.495,0,4.99,0,7.486,0c0-2.495,0-4.991,0-7.486c2.42,0,4.84,0,7.26,0c0-0.228,0-0.454,0-0.681
	c0-0.68,0-1.361,0-2.041c0-0.152,0-0.303,0-0.454c0-0.228,0-0.454,0-0.681c0-0.151,0-0.303,0-0.454c0-0.227,0-0.454,0-0.681
	c0-0.15,0-0.303,0-0.453c0-0.227,0-0.454,0-0.681c0-0.151,0-0.302,0-0.454c0-0.227,0-0.453,0-0.68c0-0.152,0-0.303,0-0.454
	c0-0.228,0-0.454,0-0.681c0-0.151,0-0.303,0-0.453c0-0.228,0-0.455,0-0.682c0-0.303,0-0.604,0-0.907c0-0.151,0-0.302,0-0.453
	c0-0.228,0-0.454,0-0.681c0-0.151,0-0.303,0-0.453c0-0.228,0-0.455,0-0.682c0-0.15,0-0.303,0-0.453c0-0.227,0-0.454,0-0.682
	c0-0.15,0-0.302,0-0.453c0-0.227,0-0.453,0-0.681c0-0.151,0-0.302,0-0.454c0-0.227,0-0.453,0-0.68c0-0.152,0-0.303,0-0.453
	c0-0.228,0-0.454,0-0.682c0-0.15,0-0.303,0-0.453c0-0.227,0-0.454,0-0.681c0-0.303,0-0.604,0-0.907c0-0.152,0-0.303,0-0.454
	c0-0.228,0-0.454,0-0.681c0-0.151,0-0.303,0-0.453c0-0.228,0-0.455,0-0.681c0-0.151,0-0.303,0-0.454c0-0.227,0-0.453,0-0.68
	c0-0.152,0-0.303,0-0.455c0-0.227,0-0.453,0-0.68c0-0.151,0-0.303,0-0.454c0-0.228,0-0.454,0-0.681c0-0.151,0-0.303,0-0.453
	c0-0.228,0-0.454,0-0.681c0-0.151,0-0.304,0-0.454c0-0.227,0-0.454,0-0.68c0-0.152,0-0.303,0-0.455c0-0.227,0-0.454,0-0.68
	c0-0.151,0-0.303,0-0.454c0-0.227,0-0.454,0-0.681c0-0.151,0-0.302,0-0.454c0-0.227,0-0.454,0-0.681c0-0.151,0-0.302,0-0.454
	c0-0.227,0-0.453,0-0.681c0-0.151,0-0.303,0-0.453c0-0.227,0-0.454,0-0.681c0-0.151,0-0.303,0-0.454c0-0.227,0-0.454,0-0.68
	c0-0.151,0-0.303,0-0.454c0-0.227,0-0.454,0-0.681c0-0.151,0-0.302,0-0.454c0-0.227,0-0.453,0-0.681c-2.42,0-4.84,0-7.26,0
	c0-2.419,0-4.839,0-7.259c-4.915,0-9.843,0-14.745,0c0-2.42,0-4.84,0-7.26c2.42,0,4.839,0,7.259,0c0-4.613,0-9.225,0-13.838
	c0-0.227,0-0.454,0-0.681c-2.42,0-4.839,0-7.259,0c0-2.42,0-4.839,0-7.259c-2.42,0-4.84,0-7.261,0c0-2.42,0-4.84,0-7.26
	c-3.642,0-7.271,0-10.9,0c-3.617,0-7.247,0-10.876,0c0-1.21,0-2.42,0-3.629c0-0.605,0-1.21,0-1.815c0-0.681,0-1.361,0-2.042
	c-2.42,0-4.84,0-7.26,0c0-2.419,0-4.839,0-7.259c-2.433,0-4.853,0-7.272,0c0,2.42,0,4.839,0,7.259c0,1.21,0,2.42,0,3.63
	C152.886,47.79,152.886,48.395,152.886,49z"/>
<path fill="#73CEE0" d="M152.886,116.376c0,4.84,0,9.679,0,14.519c4.84,0,9.692,0,14.532,0c0-4.612,0-9.226,0-13.839
	c0-0.227,0-0.453,0-0.68c-4.613,0-9.227,0-13.852,0C153.353,116.376,153.126,116.376,152.886,116.376z"/>
<path fill="#73CEE0" d="M196.455,138.381c0,2.419,0,4.839,0,7.259c2.42,0,4.839,0,7.259,0c0-2.42,0-4.84,0-7.259
	C201.294,138.381,198.875,138.381,196.455,138.381z"/>
<g id="XMLID_2_">
	<g>
		<path fill="#232034" d="M131.892,151.49c0,2.33,0,4.67,0,7c2.42,0,4.83,0,7.26,0c0-2.25,0-4.49,0-6.74c-0.09,0-0.17,0-0.26,0
			c0-0.09,0-0.17,0-0.26C136.552,151.49,134.222,151.49,131.892,151.49z"/>
		<path fill="#232034" d="M133.702,158.75c-0.301,0-0.601,0-0.9,0c-0.311,0-0.61,0-0.91,0c0,2.25,0,4.49,0,6.74
			c2.42,0,4.83,0,7.26,0c0-2.25,0-4.49,0-6.74c-0.229,0-0.449,0-0.68,0c-1.07,0-2.12,0-3.18,0
			C134.762,158.75,134.222,158.75,133.702,158.75z"/>
		<path fill="#232034" d="M133.702,165.75c-0.301,0-0.601,0-0.9,0c-0.311,0-0.61,0-0.91,0c0,1.45,0,3.78,0,7c0.3,0,0.6,0,0.91,0
			c0.3,0,0.6,0,0.9,0c0.52,0,1.06,0,1.59,0c1.06,0,2.109,0,3.18,0c0.14,0,0.28,0,0.42,0c0-0.09,0-0.17,0-0.26c0.09,0,0.17,0,0.26,0
			c0-2.25,0-4.49,0-6.74c-0.229,0-0.449,0-0.68,0c-1.07,0-2.12,0-3.18,0C134.762,165.75,134.222,165.75,133.702,165.75z"/>
		<path fill="#232034" d="M139.151,165.49c-2.43,0-4.84,0-7.26,0c0,0.08,0,0.17,0,0.26c0.3,0,0.6,0,0.91,0c0.3,0,0.6,0,0.9,0
			c0.52,0,1.06,0,1.59,0c1.06,0,2.109,0,3.18,0c0.23,0,0.45,0,0.68,0C139.151,165.66,139.151,165.58,139.151,165.49z"/>
		<path fill="#232034" d="M139.151,158.49c-2.43,0-4.84,0-7.26,0c0,0.09,0,0.17,0,0.26c0.3,0,0.6,0,0.91,0c0.3,0,0.6,0,0.9,0
			c0.52,0,1.06,0,1.59,0c1.06,0,2.109,0,3.18,0c0.23,0,0.45,0,0.68,0C139.151,158.66,139.151,158.58,139.151,158.49z"/>
		<path fill="#232034" d="M138.892,172.75c0,2.33,0,4.67,0,7c0.3,0,0.6,0,0.91,0c0.3,0,0.6,0,0.9,0c0.52,0,1.06,0,1.59,0
			c1.06,0,2.109,0,3.18,0c0.23,0,0.45,0,0.68,0c0-2.33,0-4.67,0-7c-0.09,0-0.17,0-0.26,0c0-0.09,0-0.17,0-0.26
			c-2.26,0-4.49,0-6.74,0c0,0.09,0,0.17,0,0.26C139.062,172.75,138.981,172.75,138.892,172.75z"/>
		<path fill="#232034" d="M138.892,172.49c0,0.09,0,0.17,0,0.26c0.09,0,0.17,0,0.26,0c0-0.09,0-0.17,0-0.26
			C139.062,172.49,138.981,172.49,138.892,172.49z"/>
		<path fill="#232034" d="M138.892,151.49c0,0.09,0,0.17,0,0.26c0.09,0,0.17,0,0.26,0c0-0.09,0-0.17,0-0.26
			C139.062,151.49,138.981,151.49,138.892,151.49z"/>
		<path fill="#232034" d="M138.892,144.49c0,2.33,0,4.67,0,7c0.09,0,0.17,0,0.26,0c0,0.09,0,0.17,0,0.26c0.21,0,0.431,0,0.65,0
			c0.3,0,0.6,0,0.9,0c0.52,0,1.06,0,1.59,0c1.06,0,2.109,0,3.18,0c0.14,0,0.28,0,0.42,0c0-2.42,0-4.84,0-7.26
			C143.552,144.49,141.222,144.49,138.892,144.49z"/>
		<path fill="#5E5F5F" d="M139.151,151.75c0,2.25,0,4.49,0,6.74c0,0.09,0,0.17,0,0.26c0,2.25,0,4.49,0,6.74c0,0.09,0,0.17,0,0.26
			c0,2.25,0,4.49,0,6.74c2.25,0,4.48,0,6.74,0c0-2.25,0-4.49,0-6.74c0-0.09,0-0.17,0-0.26c0-2.33,0-4.67,0-7c2.42,0,4.83,0,7.26,0
			c0,2.33,0,4.67,0,7c0,0.09,0,0.17,0,0.26c0,2.25,0,4.49,0,6.74c2.25,0,4.48,0,6.74,0c0-2.25,0-4.49,0-6.74c0-0.08,0-0.17,0-0.26
			c0-1.45,0-3.78,0-7c2.42,0,4.83,0,7.26,0c0,2.33,0,4.67,0,7c0,0.09,0,0.17,0,0.26c0,2.25,0,4.49,0,6.74c2.25,0,4.48,0,6.74,0
			c0-2.25,0-4.49,0-6.74c0-0.09,0-0.17,0-0.26c0-2.25,0-4.49,0-6.74c0-0.09,0-0.17,0-0.26c0-2.25,0-4.49,0-6.74
			c-0.14,0-0.28,0-0.42,0c-1.07,0-2.12,0-3.18,0c-0.53,0-1.07,0-1.59,0c-0.301,0-0.601,0-0.9,0c-0.22,0-0.44,0-0.65,0
			c-0.09,0-0.17,0-0.26,0c-0.14,0-0.28,0-0.42,0c-1.07,0-2.12,0-3.18,0c-0.53,0-1.07,0-1.59,0c-0.301,0-0.601,0-0.9,0
			c-0.22,0-0.44,0-0.65,0c-0.09,0-0.17,0-0.26,0c-0.14,0-0.28,0-0.42,0c-1.07,0-2.12,0-3.18,0c-0.53,0-1.07,0-1.59,0
			c-0.301,0-0.601,0-0.9,0c-0.22,0-0.44,0-0.65,0c-0.09,0-0.17,0-0.26,0c-0.14,0-0.28,0-0.42,0c-1.07,0-2.12,0-3.18,0
			c-0.53,0-1.07,0-1.59,0c-0.301,0-0.601,0-0.9,0c-0.22,0-0.44,0-0.65,0c-0.09,0-0.17,0-0.26,0c-0.14,0-0.28,0-0.42,0
			c-1.07,0-2.12,0-3.18,0c-0.53,0-1.07,0-1.59,0c-0.301,0-0.601,0-0.9,0C139.582,151.75,139.361,151.75,139.151,151.75z"/>
		<path fill="#232034" d="M145.892,172.49c0,0.09,0,0.17,0,0.26c0.09,0,0.17,0,0.26,0c0-0.09,0-0.17,0-0.26
			C146.062,172.49,145.981,172.49,145.892,172.49z"/>
		<path fill="#232034" d="M145.892,158.49c0,2.33,0,4.67,0,7c2.42,0,4.83,0,7.26,0c0-2.33,0-4.67,0-7
			C150.722,158.49,148.312,158.49,145.892,158.49z"/>
		<path fill="#232034" d="M145.892,144.49c0,2.42,0,4.84,0,7.26c0.09,0,0.17,0,0.26,0c0-2.42,0-4.84,0-7.26
			C146.062,144.49,145.981,144.49,145.892,144.49z"/>
		<path fill="#232034" d="M146.802,165.75c-0.311,0-0.61,0-0.91,0c0,2.25,0,4.49,0,6.74c0.09,0,0.17,0,0.26,0c0,0.09,0,0.17,0,0.26
			c0.21,0,0.431,0,0.65,0c0.3,0,0.6,0,0.9,0c0.52,0,1.06,0,1.59,0c1.06,0,2.109,0,3.18,0c0.14,0,0.28,0,0.42,0c0-0.09,0-0.17,0-0.26
			c0.09,0,0.17,0,0.26,0c0-2.25,0-4.49,0-6.74c-0.229,0-0.449,0-0.68,0c-1.07,0-2.12,0-3.18,0c-0.53,0-1.07,0-1.59,0
			C147.401,165.75,147.102,165.75,146.802,165.75z"/>
		<path fill="#232034" d="M146.151,144.49c0,2.42,0,4.84,0,7.26c0.21,0,0.431,0,0.65,0c0.3,0,0.6,0,0.9,0c0.52,0,1.06,0,1.59,0
			c1.06,0,2.109,0,3.18,0c0.14,0,0.28,0,0.42,0c0-2.42,0-4.84,0-7.26C150.632,144.49,148.401,144.49,146.151,144.49z"/>
		<path fill="#232034" d="M153.151,165.49c-2.43,0-4.84,0-7.26,0c0,0.09,0,0.17,0,0.26c0.3,0,0.6,0,0.91,0c0.3,0,0.6,0,0.9,0
			c0.52,0,1.06,0,1.59,0c1.06,0,2.109,0,3.18,0c0.23,0,0.45,0,0.68,0C153.151,165.66,153.151,165.58,153.151,165.49z"/>
		<path fill="#232034" d="M152.892,172.75c0,2.33,0,4.67,0,7c0.3,0,0.6,0,0.91,0c0.3,0,0.6,0,0.9,0c0.52,0,1.06,0,1.59,0
			c1.06,0,2.109,0,3.18,0c0.23,0,0.45,0,0.68,0c0-2.33,0-4.67,0-7c-0.09,0-0.17,0-0.26,0c0-0.09,0-0.17,0-0.26
			c-2.26,0-4.49,0-6.74,0c0,0.09,0,0.17,0,0.26C153.062,172.75,152.981,172.75,152.892,172.75z"/>
		<path fill="#232034" d="M152.892,172.49c0,0.09,0,0.17,0,0.26c0.09,0,0.17,0,0.26,0c0-0.09,0-0.17,0-0.26
			C153.062,172.49,152.981,172.49,152.892,172.49z"/>
		<path fill="#232034" d="M152.892,144.49c0,2.42,0,4.84,0,7.26c0.09,0,0.17,0,0.26,0c0-2.42,0-4.84,0-7.26
			C153.062,144.49,152.981,144.49,152.892,144.49z"/>
		<path fill="#232034" d="M153.151,144.49c0,2.42,0,4.84,0,7.26c0.21,0,0.431,0,0.65,0c0.3,0,0.6,0,0.9,0c0.52,0,1.06,0,1.59,0
			c1.06,0,2.109,0,3.18,0c0.14,0,0.28,0,0.42,0c0-2.42,0-4.84,0-7.26C157.632,144.49,155.401,144.49,153.151,144.49z"/>
		<path fill="#232034" d="M159.892,172.49c0,0.09,0,0.17,0,0.26c0.09,0,0.17,0,0.26,0c0-0.09,0-0.17,0-0.26
			C160.062,172.49,159.981,172.49,159.892,172.49z"/>
		<path fill="#232034" d="M159.892,158.49c0,3.22,0,5.55,0,7c2.42,0,4.83,0,7.26,0c0-2.33,0-4.67,0-7
			C164.722,158.49,162.312,158.49,159.892,158.49z"/>
		<path fill="#232034" d="M159.892,144.49c0,2.42,0,4.84,0,7.26c0.09,0,0.17,0,0.26,0c0-2.42,0-4.84,0-7.26
			C160.062,144.49,159.981,144.49,159.892,144.49z"/>
		<path fill="#232034" d="M161.702,165.75c-0.301,0-0.601,0-0.9,0c-0.311,0-0.61,0-0.91,0c0,2.25,0,4.49,0,6.74
			c0.09,0,0.17,0,0.26,0c0,0.09,0,0.17,0,0.26c0.21,0,0.431,0,0.65,0c0.3,0,0.6,0,0.9,0c0.52,0,1.06,0,1.59,0c1.06,0,2.109,0,3.18,0
			c0.14,0,0.28,0,0.42,0c0-0.09,0-0.17,0-0.26c0.09,0,0.17,0,0.26,0c0-2.25,0-4.49,0-6.74c-0.229,0-0.449,0-0.68,0
			c-1.07,0-2.12,0-3.18,0C162.762,165.75,162.222,165.75,161.702,165.75z"/>
		<path fill="#232034" d="M160.151,144.49c0,2.42,0,4.84,0,7.26c0.21,0,0.431,0,0.65,0c0.3,0,0.6,0,0.9,0c0.52,0,1.06,0,1.59,0
			c1.06,0,2.109,0,3.18,0c0.14,0,0.28,0,0.42,0c0-2.42,0-4.84,0-7.26C164.632,144.49,162.401,144.49,160.151,144.49z"/>
		<path fill="#232034" d="M167.151,165.49c-2.43,0-4.84,0-7.26,0c0,0.09,0,0.18,0,0.26c0.3,0,0.6,0,0.91,0c0.3,0,0.6,0,0.9,0
			c0.52,0,1.06,0,1.59,0c1.06,0,2.109,0,3.18,0c0.23,0,0.45,0,0.68,0C167.151,165.66,167.151,165.58,167.151,165.49z"/>
		<path fill="#232034" d="M166.892,172.75c0,2.33,0,4.67,0,7c0.3,0,0.6,0,0.91,0c0.3,0,0.6,0,0.9,0c0.52,0,1.06,0,1.59,0
			c1.06,0,2.109,0,3.18,0c0.23,0,0.45,0,0.68,0c0-2.33,0-4.67,0-7c-0.09,0-0.17,0-0.26,0c0-0.09,0-0.17,0-0.26
			c-2.26,0-4.49,0-6.74,0c0,0.09,0,0.17,0,0.26C167.062,172.75,166.981,172.75,166.892,172.75z"/>
		<path fill="#232034" d="M166.892,172.49c0,0.09,0,0.17,0,0.26c0.09,0,0.17,0,0.26,0c0-0.09,0-0.17,0-0.26
			C167.062,172.49,166.981,172.49,166.892,172.49z"/>
		<path fill="#232034" d="M166.892,144.49c0,2.42,0,4.84,0,7.26c0.09,0,0.17,0,0.26,0c0-2.42,0-4.84,0-7.26
			C167.062,144.49,166.981,144.49,166.892,144.49z"/>
		<path fill="#232034" d="M167.151,144.49c0,2.42,0,4.84,0,7.26c0.21,0,0.431,0,0.65,0c0.3,0,0.6,0,0.9,0c0.52,0,1.06,0,1.59,0
			c1.06,0,2.109,0,3.18,0c0.14,0,0.28,0,0.42,0c0-0.09,0-0.17,0-0.26c0.09,0,0.17,0,0.26,0c0-2.33,0-4.67,0-7
			C171.812,144.49,169.481,144.49,167.151,144.49z"/>
		<path fill="#232034" d="M173.892,172.49c0,0.09,0,0.17,0,0.26c0.09,0,0.17,0,0.26,0c0-0.09,0-0.17,0-0.26
			C174.062,172.49,173.981,172.49,173.892,172.49z"/>
		<path fill="#232034" d="M173.892,151.75c0,2.25,0,4.49,0,6.74c2.42,0,4.83,0,7.26,0c0-2.33,0-4.67,0-7c-2.34,0-4.67,0-7,0
			c0,0.09,0,0.17,0,0.26C174.062,151.75,173.981,151.75,173.892,151.75z"/>
		<path fill="#232034" d="M173.892,151.49c0,0.09,0,0.17,0,0.26c0.09,0,0.17,0,0.26,0c0-0.09,0-0.17,0-0.26
			C174.062,151.49,173.981,151.49,173.892,151.49z"/>
		<path fill="#232034" d="M173.892,158.75c0,2.25,0,4.49,0,6.74c2.42,0,4.83,0,7.26,0c0-2.25,0-4.49,0-6.74c-0.229,0-0.449,0-0.68,0
			c-1.07,0-2.12,0-3.18,0c-0.53,0-1.07,0-1.59,0c-0.301,0-0.601,0-0.9,0C174.491,158.75,174.191,158.75,173.892,158.75z"/>
		<path fill="#232034" d="M173.892,165.75c0,2.25,0,4.49,0,6.74c0.09,0,0.17,0,0.26,0c0,0.09,0,0.17,0,0.26c0.21,0,0.431,0,0.65,0
			c0.3,0,0.6,0,0.9,0c0.52,0,1.06,0,1.59,0c1.06,0,2.109,0,3.18,0c0.23,0,0.45,0,0.68,0c0-2.33,0-4.67,0-7c-0.229,0-0.449,0-0.68,0
			c-1.07,0-2.12,0-3.18,0c-0.53,0-1.07,0-1.59,0c-0.301,0-0.601,0-0.9,0C174.491,165.75,174.191,165.75,173.892,165.75z"/>
		<path fill="#232034" d="M181.151,165.49c-2.43,0-4.84,0-7.26,0c0,0.09,0,0.17,0,0.26c0.3,0,0.6,0,0.91,0c0.3,0,0.6,0,0.9,0
			c0.52,0,1.06,0,1.59,0c1.06,0,2.109,0,3.18,0c0.23,0,0.45,0,0.68,0C181.151,165.66,181.151,165.58,181.151,165.49z"/>
		<path fill="#232034" d="M181.151,158.49c-2.43,0-4.84,0-7.26,0c0,0.09,0,0.17,0,0.26c0.3,0,0.6,0,0.91,0c0.3,0,0.6,0,0.9,0
			c0.52,0,1.06,0,1.59,0c1.06,0,2.109,0,3.18,0c0.23,0,0.45,0,0.68,0C181.151,158.66,181.151,158.58,181.151,158.49z"/>
	</g>
	<g>
	</g>
</g>
<g id="XMLID_1_">
	<g>
		<path fill="#232034" d="M15.528,151.49c0,2.33,0,4.67,0,7c2.42,0,4.83,0,7.26,0c0-2.25,0-4.49,0-6.74c-0.09,0-0.17,0-0.26,0
			c0-0.09,0-0.17,0-0.26C20.188,151.49,17.858,151.49,15.528,151.49z"/>
		<path fill="#232034" d="M15.528,158.75c0,2.25,0,4.49,0,6.74c2.42,0,4.83,0,7.26,0c0-2.25,0-4.49,0-6.74c-0.23,0-0.45,0-0.68,0
			c-1.07,0-2.12,0-3.18,0c-0.53,0-1.07,0-1.59,0c-0.3,0-0.6,0-0.9,0C16.128,158.75,15.829,158.75,15.528,158.75z"/>
		<path fill="#232034" d="M16.438,165.75c-0.31,0-0.61,0-0.91,0c0,1.45,0,3.78,0,7c0.3,0,0.6,0,0.91,0c0.3,0,0.6,0,0.9,0
			c0.52,0,1.06,0,1.59,0c1.06,0,2.11,0,3.18,0c0.14,0,0.28,0,0.42,0c0-0.09,0-0.17,0-0.26c0.09,0,0.17,0,0.26,0
			c0-2.25,0-4.49,0-6.74c-0.23,0-0.45,0-0.68,0c-1.07,0-2.12,0-3.18,0c-0.53,0-1.07,0-1.59,0
			C17.039,165.75,16.738,165.75,16.438,165.75z"/>
		<path fill="#232034" d="M22.789,165.49c-2.43,0-4.84,0-7.26,0c0,0.08,0,0.17,0,0.26c0.3,0,0.6,0,0.91,0c0.3,0,0.6,0,0.9,0
			c0.52,0,1.06,0,1.59,0c1.06,0,2.11,0,3.18,0c0.23,0,0.45,0,0.68,0C22.789,165.66,22.789,165.58,22.789,165.49z"/>
		<path fill="#232034" d="M18.928,158.75c1.06,0,2.11,0,3.18,0c0.23,0,0.45,0,0.68,0c0-0.09,0-0.17,0-0.26c-2.43,0-4.84,0-7.26,0
			c0,0.09,0,0.17,0,0.26c0.3,0,0.6,0,0.91,0c0.3,0,0.6,0,0.9,0C17.858,158.75,18.398,158.75,18.928,158.75z"/>
		<path fill="#232034" d="M22.528,172.75c0,2.33,0,4.67,0,7c0.3,0,0.6,0,0.91,0c0.3,0,0.6,0,0.9,0c0.52,0,1.06,0,1.59,0
			c1.06,0,2.11,0,3.18,0c0.23,0,0.45,0,0.68,0c0-2.33,0-4.67,0-7c-0.09,0-0.17,0-0.26,0c0-0.09,0-0.17,0-0.26c-2.26,0-4.49,0-6.74,0
			c0,0.09,0,0.17,0,0.26C22.698,172.75,22.618,172.75,22.528,172.75z"/>
		<path fill="#232034" d="M22.528,172.49c0,0.09,0,0.17,0,0.26c0.09,0,0.17,0,0.26,0c0-0.09,0-0.17,0-0.26
			C22.698,172.49,22.618,172.49,22.528,172.49z"/>
		<path fill="#232034" d="M22.528,151.49c0,0.09,0,0.17,0,0.26c0.09,0,0.17,0,0.26,0c0-0.09,0-0.17,0-0.26
			C22.698,151.49,22.618,151.49,22.528,151.49z"/>
		<path fill="#232034" d="M22.528,144.49c0,2.33,0,4.67,0,7c0.09,0,0.17,0,0.26,0c0,0.09,0,0.17,0,0.26c0.21,0,0.43,0,0.65,0
			c0.3,0,0.6,0,0.9,0c0.52,0,1.06,0,1.59,0c1.06,0,2.11,0,3.18,0c0.14,0,0.28,0,0.42,0c0-2.42,0-4.84,0-7.26
			C27.188,144.49,24.858,144.49,22.528,144.49z"/>
		<path fill="#5E5F5F" d="M23.438,151.75c-0.22,0-0.44,0-0.65,0c0,2.25,0,4.49,0,6.74c0,0.09,0,0.17,0,0.26c0,2.25,0,4.49,0,6.74
			c0,0.09,0,0.17,0,0.26c0,2.25,0,4.49,0,6.74c2.25,0,4.48,0,6.74,0c0-2.25,0-4.49,0-6.74c0-0.09,0-0.17,0-0.26c0-2.33,0-4.67,0-7
			c2.42,0,4.83,0,7.26,0c0,2.33,0,4.67,0,7c0,0.09,0,0.17,0,0.26c0,2.25,0,4.49,0,6.74c2.25,0,4.48,0,6.74,0c0-2.25,0-4.49,0-6.74
			c0-0.08,0-0.17,0-0.26c0-1.45,0-3.78,0-7c2.42,0,4.83,0,7.26,0c0,2.33,0,4.67,0,7c0,0.09,0,0.17,0,0.26c0,2.25,0,4.49,0,6.74
			c2.25,0,4.48,0,6.74,0c0-2.25,0-4.49,0-6.74c0-0.09,0-0.17,0-0.26c0-2.25,0-4.49,0-6.74c0-0.09,0-0.17,0-0.26
			c0-2.25,0-4.49,0-6.74c-0.14,0-0.28,0-0.42,0c-1.07,0-2.12,0-3.18,0c-0.53,0-1.07,0-1.59,0c-0.3,0-0.6,0-0.9,0
			c-0.22,0-0.44,0-0.65,0c-0.09,0-0.17,0-0.26,0c-0.14,0-0.28,0-0.42,0c-1.07,0-2.12,0-3.18,0c-0.53,0-1.07,0-1.59,0
			c-0.3,0-0.6,0-0.9,0c-0.22,0-0.44,0-0.65,0c-0.09,0-0.17,0-0.26,0c-0.14,0-0.28,0-0.42,0c-1.07,0-2.12,0-3.18,0
			c-0.53,0-1.07,0-1.59,0c-0.3,0-0.6,0-0.9,0c-0.22,0-0.44,0-0.65,0c-0.09,0-0.17,0-0.26,0c-0.14,0-0.28,0-0.42,0
			c-1.07,0-2.12,0-3.18,0c-0.53,0-1.07,0-1.59,0c-0.3,0-0.6,0-0.9,0c-0.22,0-0.44,0-0.65,0c-0.09,0-0.17,0-0.26,0
			c-0.14,0-0.28,0-0.42,0c-1.07,0-2.12,0-3.18,0c-0.53,0-1.07,0-1.59,0C24.039,151.75,23.738,151.75,23.438,151.75z"/>
		<path fill="#232034" d="M29.528,172.49c0,0.09,0,0.17,0,0.26c0.09,0,0.17,0,0.26,0c0-0.09,0-0.17,0-0.26
			C29.698,172.49,29.618,172.49,29.528,172.49z"/>
		<path fill="#232034" d="M29.528,158.49c0,2.33,0,4.67,0,7c2.42,0,4.83,0,7.26,0c0-2.33,0-4.67,0-7
			C34.358,158.49,31.948,158.49,29.528,158.49z"/>
		<path fill="#232034" d="M29.528,144.49c0,2.42,0,4.84,0,7.26c0.09,0,0.17,0,0.26,0c0-2.42,0-4.84,0-7.26
			C29.698,144.49,29.618,144.49,29.528,144.49z"/>
		<path fill="#232034" d="M30.438,165.75c-0.31,0-0.61,0-0.91,0c0,2.25,0,4.49,0,6.74c0.09,0,0.17,0,0.26,0c0,0.09,0,0.17,0,0.26
			c0.21,0,0.43,0,0.65,0c0.3,0,0.6,0,0.9,0c0.52,0,1.06,0,1.59,0c1.06,0,2.11,0,3.18,0c0.14,0,0.28,0,0.42,0c0-0.09,0-0.17,0-0.26
			c0.09,0,0.17,0,0.26,0c0-2.25,0-4.49,0-6.74c-0.23,0-0.45,0-0.68,0c-1.07,0-2.12,0-3.18,0c-0.53,0-1.07,0-1.59,0
			C31.039,165.75,30.738,165.75,30.438,165.75z"/>
		<path fill="#232034" d="M29.789,144.49c0,2.42,0,4.84,0,7.26c0.21,0,0.43,0,0.65,0c0.3,0,0.6,0,0.9,0c0.52,0,1.06,0,1.59,0
			c1.06,0,2.11,0,3.18,0c0.14,0,0.28,0,0.42,0c0-2.42,0-4.84,0-7.26C34.269,144.49,32.039,144.49,29.789,144.49z"/>
		<path fill="#232034" d="M32.928,165.75c1.06,0,2.11,0,3.18,0c0.23,0,0.45,0,0.68,0c0-0.09,0-0.17,0-0.26c-2.43,0-4.84,0-7.26,0
			c0,0.09,0,0.17,0,0.26c0.3,0,0.6,0,0.91,0c0.3,0,0.6,0,0.9,0C31.858,165.75,32.398,165.75,32.928,165.75z"/>
		<path fill="#232034" d="M36.528,172.75c0,2.33,0,4.67,0,7c0.3,0,0.6,0,0.91,0c0.3,0,0.6,0,0.9,0c0.52,0,1.06,0,1.59,0
			c1.06,0,2.11,0,3.18,0c0.23,0,0.45,0,0.68,0c0-2.33,0-4.67,0-7c-0.09,0-0.17,0-0.26,0c0-0.09,0-0.17,0-0.26c-2.26,0-4.49,0-6.74,0
			c0,0.09,0,0.17,0,0.26C36.698,172.75,36.618,172.75,36.528,172.75z"/>
		<path fill="#232034" d="M36.528,172.49c0,0.09,0,0.17,0,0.26c0.09,0,0.17,0,0.26,0c0-0.09,0-0.17,0-0.26
			C36.698,172.49,36.618,172.49,36.528,172.49z"/>
		<path fill="#232034" d="M36.528,144.49c0,2.42,0,4.84,0,7.26c0.09,0,0.17,0,0.26,0c0-2.42,0-4.84,0-7.26
			C36.698,144.49,36.618,144.49,36.528,144.49z"/>
		<path fill="#232034" d="M36.789,144.49c0,2.42,0,4.84,0,7.26c0.21,0,0.43,0,0.65,0c0.3,0,0.6,0,0.9,0c0.52,0,1.06,0,1.59,0
			c1.06,0,2.11,0,3.18,0c0.14,0,0.28,0,0.42,0c0-2.42,0-4.84,0-7.26C41.269,144.49,39.039,144.49,36.789,144.49z"/>
		<path fill="#232034" d="M43.528,172.49c0,0.09,0,0.17,0,0.26c0.09,0,0.17,0,0.26,0c0-0.09,0-0.17,0-0.26
			C43.698,172.49,43.618,172.49,43.528,172.49z"/>
		<path fill="#232034" d="M43.528,158.49c0,3.22,0,5.55,0,7c2.42,0,4.83,0,7.26,0c0-2.33,0-4.67,0-7
			C48.358,158.49,45.948,158.49,43.528,158.49z"/>
		<path fill="#232034" d="M43.528,144.49c0,2.42,0,4.84,0,7.26c0.09,0,0.17,0,0.26,0c0-2.42,0-4.84,0-7.26
			C43.698,144.49,43.618,144.49,43.528,144.49z"/>
		<path fill="#232034" d="M44.438,165.75c-0.31,0-0.61,0-0.91,0c0,2.25,0,4.49,0,6.74c0.09,0,0.17,0,0.26,0c0,0.09,0,0.17,0,0.26
			c0.21,0,0.43,0,0.65,0c0.3,0,0.6,0,0.9,0c0.52,0,1.06,0,1.59,0c1.06,0,2.11,0,3.18,0c0.14,0,0.28,0,0.42,0c0-0.09,0-0.17,0-0.26
			c0.09,0,0.17,0,0.26,0c0-2.25,0-4.49,0-6.74c-0.23,0-0.45,0-0.68,0c-1.07,0-2.12,0-3.18,0c-0.53,0-1.07,0-1.59,0
			C45.039,165.75,44.738,165.75,44.438,165.75z"/>
		<path fill="#232034" d="M43.789,144.49c0,2.42,0,4.84,0,7.26c0.21,0,0.43,0,0.65,0c0.3,0,0.6,0,0.9,0c0.52,0,1.06,0,1.59,0
			c1.06,0,2.11,0,3.18,0c0.14,0,0.28,0,0.42,0c0-2.42,0-4.84,0-7.26C48.269,144.49,46.039,144.49,43.789,144.49z"/>
		<path fill="#232034" d="M46.928,165.75c1.06,0,2.11,0,3.18,0c0.23,0,0.45,0,0.68,0c0-0.09,0-0.17,0-0.26c-2.43,0-4.84,0-7.26,0
			c0,0.09,0,0.18,0,0.26c0.3,0,0.6,0,0.91,0c0.3,0,0.6,0,0.9,0C45.858,165.75,46.398,165.75,46.928,165.75z"/>
		<path fill="#232034" d="M50.528,172.75c0,2.33,0,4.67,0,7c0.3,0,0.6,0,0.91,0c0.3,0,0.6,0,0.9,0c0.52,0,1.06,0,1.59,0
			c1.06,0,2.11,0,3.18,0c0.23,0,0.45,0,0.68,0c0-2.33,0-4.67,0-7c-0.09,0-0.17,0-0.26,0c0-0.09,0-0.17,0-0.26c-2.26,0-4.49,0-6.74,0
			c0,0.09,0,0.17,0,0.26C50.698,172.75,50.618,172.75,50.528,172.75z"/>
		<path fill="#232034" d="M50.528,172.49c0,0.09,0,0.17,0,0.26c0.09,0,0.17,0,0.26,0c0-0.09,0-0.17,0-0.26
			C50.698,172.49,50.618,172.49,50.528,172.49z"/>
		<path fill="#232034" d="M50.528,144.49c0,2.42,0,4.84,0,7.26c0.09,0,0.17,0,0.26,0c0-2.42,0-4.84,0-7.26
			C50.698,144.49,50.618,144.49,50.528,144.49z"/>
		<path fill="#232034" d="M50.789,144.49c0,2.42,0,4.84,0,7.26c0.21,0,0.43,0,0.65,0c0.3,0,0.6,0,0.9,0c0.52,0,1.06,0,1.59,0
			c1.06,0,2.11,0,3.18,0c0.14,0,0.28,0,0.42,0c0-0.09,0-0.17,0-0.26c0.09,0,0.17,0,0.26,0c0-2.33,0-4.67,0-7
			C55.448,144.49,53.118,144.49,50.789,144.49z"/>
		<path fill="#232034" d="M57.528,172.49c0,0.09,0,0.17,0,0.26c0.09,0,0.17,0,0.26,0c0-0.09,0-0.17,0-0.26
			C57.698,172.49,57.618,172.49,57.528,172.49z"/>
		<path fill="#232034" d="M57.528,151.75c0,2.25,0,4.49,0,6.74c2.42,0,4.83,0,7.26,0c0-2.33,0-4.67,0-7c-2.34,0-4.67,0-7,0
			c0,0.09,0,0.17,0,0.26C57.698,151.75,57.618,151.75,57.528,151.75z"/>
		<path fill="#232034" d="M57.528,151.49c0,0.09,0,0.17,0,0.26c0.09,0,0.17,0,0.26,0c0-0.09,0-0.17,0-0.26
			C57.698,151.49,57.618,151.49,57.528,151.49z"/>
		<path fill="#232034" d="M58.438,158.75c-0.31,0-0.61,0-0.91,0c0,2.25,0,4.49,0,6.74c2.42,0,4.83,0,7.26,0c0-2.25,0-4.49,0-6.74
			c-0.23,0-0.45,0-0.68,0c-1.07,0-2.12,0-3.18,0c-0.53,0-1.07,0-1.59,0C59.039,158.75,58.738,158.75,58.438,158.75z"/>
		<path fill="#232034" d="M59.338,165.75c-0.3,0-0.6,0-0.9,0c-0.31,0-0.61,0-0.91,0c0,2.25,0,4.49,0,6.74c0.09,0,0.17,0,0.26,0
			c0,0.09,0,0.17,0,0.26c0.21,0,0.43,0,0.65,0c0.3,0,0.6,0,0.9,0c0.52,0,1.06,0,1.59,0c1.06,0,2.11,0,3.18,0c0.23,0,0.45,0,0.68,0
			c0-2.33,0-4.67,0-7c-0.23,0-0.45,0-0.68,0c-1.07,0-2.12,0-3.18,0C60.398,165.75,59.858,165.75,59.338,165.75z"/>
		<path fill="#232034" d="M64.789,165.49c-2.43,0-4.84,0-7.26,0c0,0.09,0,0.17,0,0.26c0.3,0,0.6,0,0.91,0c0.3,0,0.6,0,0.9,0
			c0.52,0,1.06,0,1.59,0c1.06,0,2.11,0,3.18,0c0.23,0,0.45,0,0.68,0C64.789,165.66,64.789,165.58,64.789,165.49z"/>
		<path fill="#232034" d="M60.928,158.75c1.06,0,2.11,0,3.18,0c0.23,0,0.45,0,0.68,0c0-0.09,0-0.17,0-0.26c-2.43,0-4.84,0-7.26,0
			c0,0.09,0,0.17,0,0.26c0.3,0,0.6,0,0.91,0c0.3,0,0.6,0,0.9,0C59.858,158.75,60.398,158.75,60.928,158.75z"/>
	</g>
	<g>
	</g>
</g>
<path fill="#FFFFFF" d="M87.452,72.819c0,2.42,0,4.839,0,7.26c2.42,0,4.84,0,7.259,0c0-2.42,0-4.84,0-7.26
	C92.292,72.819,89.872,72.819,87.452,72.819z"/>
<path fill="#010101" d="M87.452,65.561c0,2.419,0,4.839,0,7.259c2.42,0,4.84,0,7.259,0c0,2.42,0,4.839,0,7.26
	c2.407,0,4.827,0,7.26,0c0-2.42,0-4.84,0-7.26c2.419,0,4.839,0,7.259,0c0-2.419,0-4.839,0-7.259c-3.629,0-7.259,0-10.901,0
	C94.711,65.561,91.081,65.561,87.452,65.561z"/>
</svg>
