<?xml version="1.0" encoding="utf-8"?>
<!-- Generator: Adobe Illustrator 15.0.0, SVG Export Plug-In  -->
<!DOCTYPE svg PUBLIC "-//W3C//DTD SVG 1.1//EN" "http://www.w3.org/Graphics/SVG/1.1/DTD/svg11.dtd" [
	<!ENTITY ns_flows "http://ns.adobe.com/Flows/1.0/">
]>
<svg version="1.1"
	 xmlns="http://www.w3.org/2000/svg" xmlns:xlink="http://www.w3.org/1999/xlink" xmlns:a="http://ns.adobe.com/AdobeSVGViewerExtensions/3.0/"
	 x="0px" y="0px" width="300px" height="300px" viewBox="-44.498 -47.83 300 300" enable-background="new -44.498 -47.83 300 300"
	 xml:space="preserve">
<defs>
</defs>
<path fill="#98D8DF" d="M170.406,51.043c-1.814,0-3.63,0-5.444,0c-0.228,0-0.467,0-0.681,0c-0.228,0-0.454,0-0.681,0
	c-0.453,0-0.92,0-1.361,0c-0.907,0-1.814,0-2.734,0c0-4.84,0-9.681,0-14.52c-2.407,0-4.827,0-7.247,0c0-4.84,0-9.679,0-14.519
	c-2.42,0-4.839,0-7.271,0c0-2.419,0-4.839,0-7.259c-0.063,0-0.139,0-0.215,0c-0.604,0-1.21,0-1.814,0s-1.21,0-1.815,0
	c-1.222,0-2.432,0-3.642,0c-2.407,0-4.827,0-7.247,0c-4.84,0-9.679,0-14.519,0c0,4.84,0,9.679,0,14.519c-2.723,0-5.444,0-8.166,0
	c-2.723,0-5.457,0-8.167,0c-2.722,0-5.457,0-8.167,0c-2.723,0-5.457,0-8.166,0c-2.723,0-5.457,0-8.167,0c-2.723,0-5.457,0-8.167,0
	c-2.723,0-5.445,0-8.166,0c-2.723,0-5.445,0-8.168,0c0,2.419,0,4.839,0,7.259c-4.839,0-9.678,0-14.518,0c0,2.42,0,4.839,0,7.26
	c-2.496,0-4.991,0-7.499,0c0,1.814,0,3.63,0,5.444c0,1.815,0,3.629,0,5.444c0.012,3.63,0,7.259,0,10.889c0.012,3.63,0,7.26,0,10.89
	c0.012,3.63,0,7.259,0,10.889c-2.42,0-4.827,0-7.247,0c0,2.42,0,4.839,0,7.259c2.42,0,4.827,0,7.247,0c0,7.335,0,14.671,0,22.005
	c-2.42,0-4.827,0-7.247,0c0,4.839,0,9.68,0,14.52c2.42,0,4.827,0,7.247,0c0,2.419,0,4.839,0,7.259c2.508,0,5.003,0,7.499,0
	c0,0.227,0,0.454,0,0.681c0,6.806,0,13.61,0,20.417c0,0.227,0,0.453,0,0.681c2.42,0,4.84,0,7.259,0c0,2.42,0,4.839,0,7.259
	c2.42,0,4.827,0,7.259,0c0,2.42,0,4.84,0,7.259c2.42,0,4.84,0,7.26,0c0-2.419,0-4.839,0-7.259c2.42,0,4.827,0,7.26,0
	c0-4.839,0-9.679,0-14.52c0-2.419,0-4.839,0-7.259c-2.433,0-4.84,0-7.26,0c0-2.42,0-4.839,0-7.259c-2.42,0-4.84,0-7.26,0
	c0-2.42,0-4.84,0-7.259c0-2.42,0-4.84,0-7.26c-2.432,0-4.839,0-7.259,0c0-2.421,0-4.84,0-7.26c0-12.175,0-24.348,0-36.522
	c2.42,0,4.827,0,7.259,0c0-4.84,0-9.681,0-14.52c2.42,0,4.84,0,7.26,0c0-2.42,0-4.84,0-7.259c2.42,0,4.827,0,7.26,0
	c0-2.42,0-4.84,0-7.259c2.42,0,4.84,0,7.259,0c0-2.42,0-4.84,0-7.26c0.228,0,0.454,0,0.681,0c2.344,0,4.676,0,7.033,0
	c2.344,0,4.676,0,7.032,0c2.344,0,4.688,0,7.02,0c1.222,0,2.433,0,3.643,0c0.604,0,1.21,0,1.814,0c0.529,0,1.059,0,1.588,0
	c0.075,0,0.151,0,0.228,0c0,2.42,0,4.84,0,7.26c2.419,0,4.839,0,7.246,0c0-2.42,0-4.84,0-7.26c0.681,0,1.373,0,2.054,0
	c0.605,0,1.21,0,1.814,0c1.198,0,2.408,0,3.63,0c2.42,0,4.84,0,7.26,0c0,2.42,0,4.84,0,7.26c-0.681,0-1.361,0-2.042,0
	c-0.604,0-1.21,0-1.814,0c-1.21,0-2.42,0-3.63,0c0,2.419,0,4.839,0,7.259c1.21,0,2.42,0,3.63,0c0.604,0,1.21,0,1.814,0
	c0.303,0,0.605,0,0.908,0c0.289,0,0.604,0,0.895,0c0.088,0,0.163,0,0.239,0c0,2.419,0,4.839,0,7.259c2.42,0,4.827,0,7.247,0
	c0,2.42,0,4.839,0,7.26c2.433,0,4.852,0,7.271,0c0-2.421,0-4.84,0-7.26c9.68,0,19.358,0,29.037,0c0,7.26,0,14.52,0,21.778
	c-2.42,0-4.84,0-7.271,0c0,2.42,0,4.839,0,7.259c-0.215,0-0.441,0-0.681,0c-0.895,0-1.815,0-2.71,0c-0.454,0-0.907,0-1.361,0
	c-0.239,0-0.453,0-0.681,0c-0.239,0-0.453,0-0.681,0c-1.738,0-3.478,0-5.229,0c-0.895,0-1.803,0-2.71,0c-0.832,0-1.676,0-2.495,0
	c-0.907,0-1.815,0-2.723,0c-0.844,0-1.663,0-2.495,0c0,2.42,0,4.84,0,7.259c0,4.916,0,9.832,0,14.746c2.42,0,4.84,0,7.247,0
	c0,0.228,0,0.454,0,0.681c0,1.059,0.012,2.118,0,3.177c0,0.529,0,1.059,0,1.588c0,0.303,0,0.604,0,0.906c0,0.151,0,0.303,0,0.454
	c0,0.075,0,0.151,0,0.227c0.012,0.076,0,0.151,0,0.228c-2.407,0-4.827,0-7.247,0c0,4.84,0,9.679,0,14.519c-2.42,0-4.839,0-7.271,0
	c0-2.42,0-4.84,0-7.259c-2.42,0-4.827,0-7.247,0c0-2.42,0-4.84,0-7.26c-0.681,0-1.361,0-2.042,0c-0.604,0-1.21,0-1.814,0
	c-1.21,0-2.42,0-3.63,0c0,4.84,0,9.679,0,14.519c-2.42,0-4.84,0-7.271,0c0,2.42,0,4.839,0,7.259c-2.407,0-4.827,0-7.246,0
	c0,2.42,0,4.84,0,7.259c-9.68,0-19.358,0-29.038,0c0,4.841,0,9.681,0,14.52c-2.419,0-4.839,0-7.259,0c0,2.42,0,4.84,0,7.259
	c2.42,0,4.84,0,7.259,0c0,2.42,0,4.84,0,7.26c4.827,0,9.68,0,14.519,0c0,2.421,0,4.84,0,7.26c0.228,0,0.453,0,0.681,0
	c0.227,0,0.454,0,0.681,0c0.453,0,0.895,0,1.361,0c0.907,0,1.814,0,2.709,0c1.815,0,3.643,0,5.458,0c3.63,0,7.259,0,10.876,0
	c0-2.42,0-4.839,0-7.26c1.827,0,3.643,0,5.457,0s3.63,0,5.444,0s3.617,0,5.432,0c1.891,0,3.793,0,5.672,0c0-2.42,0-4.84,0-7.26
	c-2.42,0-4.827,0-7.247,0c0-2.419,0-4.839,0-7.259c4.827,0,9.68,0,14.519,0c0-2.42,0-4.839,0-7.259c2.42,0,4.84,0,7.247,0
	c0-2.42,0-4.84,0-7.261c2.433,0,4.852,0,7.271,0c0-2.419,0-4.839,0-7.259c2.42,0,4.84,0,7.247,0c0-7.259,0-14.518,0-21.777
	c2.432,0,4.852,0,7.271,0c0-3.63,0-7.26,0-10.89c0-3.704,0-7.41,0-11.116c2.42,0,4.84,0,7.247,0c0-2.419,0-4.839,0-7.259
	c2.432,0,4.853,0,7.271,0c0-2.42,0-4.839,0-7.259c2.42,0,4.84,0,7.247,0c0-2.42,0-4.84,0-7.259c2.42,0,4.853,0,7.271,0
	c0-4.84,0-9.681,0-14.52c-2.419,0-4.852,0-7.271,0c0-2.42,0-4.84,0-7.259c-2.407,0-4.827,0-7.247,0c0-2.42,0-4.84,0-7.259
	c-1.814,0-3.629,0-5.457,0c-0.214,0-0.441,0-0.668,0s-0.454,0-0.681,0c-0.466,0-0.907,0-1.36,0c-0.228,0-0.454,0-0.681,0
	c-0.228,0-0.454,0-0.681,0C171.313,51.043,170.848,51.043,170.406,51.043z"/>
<path fill="#D6EEF1" d="M43.142,116.603c0,2.42,0,4.839,0,7.26c2.42,0,4.827,0,7.259,0c0-2.421,0-4.84,0-7.26
	C47.969,116.603,45.562,116.603,43.142,116.603z"/>
<path fill="#232034" d="M43.142,80.08c0,12.175,0,24.348,0,36.522c2.42,0,4.827,0,7.259,0c0-4.914,0-9.83,0-14.746
	c0-2.419,0-4.839,0-7.259s0-4.839,0-7.259s0-4.84,0-7.259C47.969,80.08,45.562,80.08,43.142,80.08z"/>
<path fill="#232034" d="M50.4,131.122c0,2.419,0,4.839,0,7.259c2.42,0,4.84,0,7.26,0c0-2.42,0-4.84,0-7.259
	C55.24,131.122,52.82,131.122,50.4,131.122z"/>
<path fill="#D6EEF1" d="M50.4,123.862c0,2.42,0,4.84,0,7.26c2.42,0,4.84,0,7.26,0c0-2.42,0-4.84,0-7.26
	C55.24,123.862,52.82,123.862,50.4,123.862z"/>
<path fill="#232034" d="M50.4,116.603c0,2.42,0,4.839,0,7.26c2.42,0,4.84,0,7.26,0c0-2.421,0-4.84,0-7.26
	C55.24,116.603,52.82,116.603,50.4,116.603z"/>
<path fill="#FFFFFF" d="M50.4,94.598c0,2.42,0,4.84,0,7.259c2.42,0,4.84,0,7.26,0c0-2.419,0-4.839,0-7.259
	C55.24,94.598,52.82,94.598,50.4,94.598z"/>
<path fill="#010101" d="M50.4,87.339c0,2.42,0,4.839,0,7.259c2.42,0,4.84,0,7.26,0c0,2.42,0,4.84,0,7.259c2.42,0,4.827,0,7.26,0
	c0-4.839,0-9.679,0-14.518c-2.433,0-4.84,0-7.26,0S52.82,87.339,50.4,87.339z"/>
<path fill="#353635" d="M50.4,80.08c0,2.419,0,4.839,0,7.259c2.42,0,4.84,0,7.26,0c0-2.42,0-4.84,0-7.259
	C55.24,80.08,52.82,80.08,50.4,80.08z"/>
<path fill="#232034" d="M50.4,65.561c0,4.839,0,9.68,0,14.52c2.42,0,4.84,0,7.26,0c0-2.42,0-4.84,0-7.26c0-2.421,0-4.84,0-7.26
	C55.24,65.561,52.82,65.561,50.4,65.561z"/>
<path fill="#232034" d="M57.66,138.381c0,2.42,0,4.839,0,7.259c2.42,0,4.827,0,7.26,0c0-2.42,0-4.839,0-7.259
	C62.487,138.381,60.08,138.381,57.66,138.381z"/>
<path fill="#5E5F5F" d="M57.66,131.122c0,2.419,0,4.839,0,7.259c2.42,0,4.827,0,7.26,0c0-2.42,0-4.84,0-7.259
	C62.487,131.122,60.08,131.122,57.66,131.122z"/>
<path fill="#232034" d="M57.66,123.862c0,2.42,0,4.84,0,7.26c2.42,0,4.827,0,7.26,0c0-2.42,0-4.84,0-7.26
	C62.487,123.862,60.08,123.862,57.66,123.862z"/>
<path fill="#010101" d="M57.66,116.603c0,2.42,0,4.839,0,7.26c2.42,0,4.827,0,7.26,0c0-2.421,0-4.84,0-7.26
	C62.487,116.603,60.08,116.603,57.66,116.603z"/>
<path fill="#353635" d="M57.66,65.561c0,2.42,0,4.839,0,7.26c2.42,0,4.827,0,7.26,0c0-2.421,0-4.84,0-7.26
	C62.487,65.561,60.08,65.561,57.66,65.561z"/>
<path fill="#232034" d="M57.66,58.302c0,2.419,0,4.839,0,7.259c2.42,0,4.827,0,7.26,0c2.42,0,4.84,0,7.259,0c0-2.42,0-4.84,0-7.259
	c-2.419,0-4.839,0-7.259,0C62.487,58.302,60.08,58.302,57.66,58.302z"/>
<path fill="#D6EEF1" d="M64.92,152.898c0,4.841,0,9.681,0,14.52c2.42,0,4.84,0,7.259,0c0-4.839,0-9.679,0-14.52
	C69.76,152.898,67.34,152.898,64.92,152.898z"/>
<path fill="#232034" d="M64.92,145.64c0,2.42,0,4.84,0,7.259c2.42,0,4.84,0,7.259,0c9.68,0,19.358,0,29.038,0
	c0-2.419,0-4.839,0-7.259c-2.42,0-4.84,0-7.272,0C84.277,145.64,74.599,145.64,64.92,145.64z"/>
<path fill="#010101" d="M64.92,131.122c0,2.419,0,4.839,0,7.259c0.15,0,0.303,0,0.453,0c0.215,0,0.454,0,0.682,0
	c0.453,0,0.906,0,1.359,0c0.908,0,1.816,0,2.723,0c0.152,0,0.303,0,0.454,0c0.228,0,0.454,0,0.668,0c0.467,0,0.92,0,1.374,0
	c0.907,0,1.803,0,2.723,0c0.15,0,0.289,0,0.453,0c0.227,0,0.453,0,0.681,0c0.44,0,0.907,0,1.36,0c0.908,0,1.815,0,2.723,0
	c1.814,0,3.63,0,5.445,0c0.227,0,0.44,0,0.68,0c0-2.42,0-4.84,0-7.259c4.84,0,9.68,0,14.52,0c0-2.42,0-4.84,0-7.26
	c-2.42,0-4.84,0-7.272,0c0-2.421,0-4.84,0-7.26c-2.407,0-4.827,0-7.247,0c0,2.42,0,4.839,0,7.26c-2.42,0-4.839,0-7.271,0
	c0-2.421,0-4.84,0-7.26c-2.42,0-4.827,0-7.247,0c0,2.42,0,4.839,0,7.26c-2.419,0-4.839,0-7.259,0
	C64.92,126.282,64.92,128.702,64.92,131.122z"/>
<path fill="#010101" d="M65.146,109.344c2.117,0,4.223,0,6.352,0c0.228,0,0.441,0,0.681,0c0-0.227,0-0.454,0-0.681
	c0-0.151,0-0.303,0-0.454c0-0.302,0-0.604,0-0.907c0-0.604,0-1.21,0-1.814c0-0.605,0-1.21,0-1.815c0-0.604,0-1.21,0-1.815
	c-2.419,0-4.839,0-7.259,0c0,0.605,0,1.211,0,1.815c0,0.605,0,1.21,0,1.815c0,0.604,0,1.21,0,1.814c0,0.681,0,1.361,0,2.042
	C64.982,109.344,65.07,109.344,65.146,109.344z"/>
<path fill="#D6EEF1" d="M64.92,51.043c0,2.419,0,4.839,0,7.259c2.42,0,4.84,0,7.259,0c0-2.42,0-4.84,0-7.259
	C69.76,51.043,67.34,51.043,64.92,51.043z"/>
<path fill="#5E5F5F" d="M115.961,80.08c-0.075,0-0.15,0-0.227,0c0-4.84,0-9.681,0-14.52c-2.42,0-4.84,0-7.271,0
	c0-2.42,0-4.84,0-7.259c-9.666,0-19.346,0-29.037,0c0,2.419,0,4.839,0,7.259c-2.42,0-4.827,0-7.247,0c-2.419,0-4.839,0-7.259,0
	c0,2.42,0,4.839,0,7.26c-2.433,0-4.84,0-7.26,0c0,2.42,0,4.84,0,7.26c0,2.419,0,4.839,0,7.259c2.42,0,4.827,0,7.26,0
	c0,4.839,0,9.679,0,14.518c2.42,0,4.84,0,7.259,0c0,0.605,0,1.211,0,1.815c0,0.605,0,1.21,0,1.815c0,0.604,0,1.21,0,1.814
	c0,0.303,0,0.605,0,0.907c0,0.151,0,0.303,0,0.454c0,0.227,0,0.454,0,0.681c-0.239,0-0.453,0-0.681,0c-2.129,0-4.234,0-6.352,0
	c-0.076,0-0.164,0-0.227,0c0-0.681,0-1.361,0-2.042c0-0.604,0-1.21,0-1.814c0-0.605,0-1.21,0-1.815c0-0.604,0-1.21,0-1.815
	c-2.433,0-4.84,0-7.26,0s-4.84,0-7.26,0c0,4.916,0,9.832,0,14.746c2.42,0,4.84,0,7.26,0s4.827,0,7.26,0c0,2.42,0,4.839,0,7.26
	c2.42,0,4.84,0,7.259,0c0-2.421,0-4.84,0-7.26c2.42,0,4.827,0,7.247,0c0,2.42,0,4.839,0,7.26c2.433,0,4.852,0,7.271,0
	c0-2.421,0-4.84,0-7.26c2.42,0,4.84,0,7.247,0c0,2.42,0,4.839,0,7.26c2.433,0,4.853,0,7.272,0c0,2.42,0,4.84,0,7.26
	c-4.84,0-9.68,0-14.52,0c0,2.419,0,4.839,0,7.259c-0.239,0-0.453,0-0.68,0c-1.815,0-3.631,0-5.445,0c-0.907,0-1.814,0-2.723,0
	c-0.453,0-0.92,0-1.36,0c-0.228,0-0.454,0-0.681,0c-0.164,0-0.303,0-0.453,0c-0.92,0-1.815,0-2.723,0c-0.454,0-0.907,0-1.374,0
	c-0.214,0-0.44,0-0.668,0c-0.151,0-0.302,0-0.454,0c-0.906,0-1.814,0-2.723,0c-0.453,0-0.906,0-1.359,0c-0.228,0-0.467,0-0.682,0
	c-0.15,0-0.303,0-0.453,0c0,2.42,0,4.839,0,7.259c9.679,0,19.357,0,29.024,0c0-2.42,0-4.839,0-7.259c2.433,0,4.853,0,7.272,0
	c2.419,0,4.839,0,7.246,0c0-0.454,0-0.907,0-1.361c0-0.227,0-0.454,0-0.681s0-0.454,0-0.681c0-0.453,0-0.907,0-1.361
	c0-0.227,0-0.453,0-0.681c0-0.227,0-0.453,0-0.681c0-0.227,0-0.452,0-0.681c0-0.226,0-0.452,0-0.681c0-0.226,0-0.452,0-0.68
	c0-0.227,0-0.453,0-0.681c0-0.453,0-0.907,0-1.36c0-0.228,0-0.454,0-0.681c0-0.228,0-0.454,0-0.681c0-0.228,0-0.454,0-0.681
	c0-0.228,0-0.454,0-0.681c0-0.228,0-0.454,0-0.681c0-0.228,0-0.454,0-0.681c0-0.454,0-0.907,0-1.361c0-0.227,0-0.454,0-0.681
	c0-0.226,0-0.454,0-0.68c0-0.227,0-0.455,0-0.681c0-0.227,0-0.454,0-0.681s0-0.454,0-0.681s0-0.454,0-0.681c0-0.907,0-1.814,0-2.723
	c-2.407,0-4.827,0-7.246,0c0-4.914,0-9.83,0-14.746c-2.42,0-4.84,0-7.272,0c-2.407,0-4.827,0-7.247,0s-4.839,0-7.271,0
	c0-2.419,0-4.839,0-7.259c-2.42,0-4.827,0-7.247,0c0-2.42,0-4.839,0-7.259c2.42,0,4.827,0,7.247,0c0.92,0,1.828,0,2.734,0
	c0.441,0,0.908,0,1.361,0c0.227,0,0.453,0,0.681,0c0.227,0,0.454,0,0.681,0c1.814,0,3.629,0,5.444,0c1.802,0,3.617,0,5.444,0
	c1.815,0,3.63,0,5.445,0c0,2.42,0,4.839,0,7.259c2.419,0,4.839,0,7.246,0c0-2.42,0-4.839,0-7.259c0.681,0,1.373,0,2.054,0
	c0.605,0,1.21,0,1.814,0c1.198,0,2.408,0,3.63,0c2.42,0,4.84,0,7.26,0c0-2.42,0-4.84,0-7.259c-1.21,0-2.42,0-3.63,0
	S117.172,80.08,115.961,80.08z"/>
<path fill="#353635" d="M72.179,87.339c0,2.42,0,4.839,0,7.259c2.42,0,4.827,0,7.247,0c0-2.42,0-4.839,0-7.259
	C77.006,87.339,74.599,87.339,72.179,87.339z"/>
<path fill="#353635" d="M72.179,58.302c0,2.419,0,4.839,0,7.259c2.42,0,4.827,0,7.247,0c0-2.42,0-4.84,0-7.259
	C77.006,58.302,74.599,58.302,72.179,58.302z"/>
<path fill="#232034" d="M72.179,51.043c0,2.419,0,4.839,0,7.259c2.42,0,4.827,0,7.247,0c9.691,0,19.371,0,29.037,0
	c2.432,0,4.852,0,7.271,0c0-2.42,0-4.84,0-7.259c-2.42,0-4.84,0-7.271,0c-2.407,0-4.827,0-7.246,0
	C91.537,51.043,81.858,51.043,72.179,51.043z"/>
<path fill="#D6EEF1" d="M93.944,43.783c-2.331,0-4.676,0-7.02,0c-2.356,0-4.688,0-7.032,0c-2.357,0-4.689,0-7.033,0
	c-0.227,0-0.453,0-0.681,0c0,2.42,0,4.84,0,7.26c9.68,0,19.358,0,29.038,0c0-2.42,0-4.84,0-7.26c-0.076,0-0.152,0-0.228,0
	c-0.529,0-1.059,0-1.588,0c-0.604,0-1.21,0-1.814,0C96.377,43.783,95.166,43.783,93.944,43.783z"/>
<path fill="#FFFFFF" d="M79.426,94.598c0,2.42,0,4.84,0,7.259c2.433,0,4.852,0,7.271,0c0-2.419,0-4.839,0-7.259
	C84.277,94.598,81.858,94.598,79.426,94.598z"/>
<path fill="#010101" d="M84.883,87.339c-0.227,0-0.454,0-0.681,0c-0.228,0-0.454,0-0.681,0c-0.453,0-0.92,0-1.361,0
	c-0.906,0-1.814,0-2.734,0c0,2.42,0,4.839,0,7.259c2.433,0,4.852,0,7.271,0c0,2.42,0,4.84,0,7.259c2.42,0,4.84,0,7.247,0
	c0-2.419,0-4.839,0-7.259c2.433,0,4.853,0,7.272,0c0-2.42,0-4.839,0-7.259c-1.815,0-3.63,0-5.445,0c-1.827,0-3.643,0-5.444,0
	C88.512,87.339,86.697,87.339,84.883,87.339z"/>
<path fill="#73CEE0" d="M89.42,189.196c-0.467,0-0.908,0-1.361,0c-0.227,0-0.454,0-0.681,0c-0.228,0-0.453,0-0.681,0
	c0-2.42,0-4.839,0-7.26c-4.839,0-9.691,0-14.519,0c0-2.42,0-4.84,0-7.26c-2.419,0-4.839,0-7.259,0c0-2.419,0-4.839,0-7.259
	c-2.433,0-4.84,0-7.26,0c0,2.42,0,4.84,0,7.259c-2.42,0-4.84,0-7.26,0c0-2.419,0-4.839,0-7.259c-2.432,0-4.839,0-7.259,0
	c0-2.42,0-4.839,0-7.259c-2.419,0-4.839,0-7.259,0c0-0.228,0-0.454,0-0.681c0-6.807,0-13.611,0-20.417c0-0.227,0-0.454,0-0.681
	c-2.496,0-4.991,0-7.499,0c0-2.42,0-4.84,0-7.259c-2.42,0-4.827,0-7.247,0c0-4.84,0-9.681,0-14.52c2.42,0,4.827,0,7.247,0
	c0-7.334,0-14.67,0-22.005c-2.42,0-4.827,0-7.247,0c0,2.42,0,4.84,0,7.259c-2.42,0-4.839,0-7.26,0c0,4.916,0,9.832,0,14.746
	c-2.432,0-4.839,0-7.259,0c0,4.839,0,9.68,0,14.52c2.42,0,4.827,0,7.259,0c0,4.839,0,9.679,0,14.518c2.421,0,4.84,0,7.26,0
	c0,2.42,0,4.84,0,7.259c2.42,0,4.827,0,7.247,0c0,4.841,0,9.681,0,14.52c2.508,0,5.003,0,7.499,0c0,2.42,0,4.84,0,7.259
	c2.42,0,4.84,0,7.259,0c0,2.42,0,4.84,0,7.26c4.827,0,9.679,0,14.519,0c0,2.421,0,4.84,0,7.26c3.629,0,7.26,0,10.889,0
	c3.63,0,7.26,0,10.877,0c0,0.604,0,1.21,0,1.814c0,0.605,0,1.21,0,1.815c0,0.303,0,0.604,0,0.906s0,0.606,0,0.907
	c0,0.303,0,0.605,0,0.908c0,0.151,0,0.302,0,0.453c0.012,0.228,0,0.454,0,0.681c4.852,0,9.691,0,14.519,0c0,2.42,0,4.84,0,7.259
	c0.681,0,1.374,0,2.054,0c0.605,0,1.21,0,1.803,0c1.21,0,2.42,0,3.642,0c2.421,0,4.84,0,7.26,0c2.42,0,4.827,0,7.259,0
	c2.42,0,4.84,0,7.26,0c0-2.419,0-4.839,0-7.259c2.42,0,4.827,0,7.247,0c0-1.21,0-2.42,0-3.629c0-0.604,0.012-1.21,0-1.814
	c0-0.303,0-0.605,0-0.908c0-0.151,0-0.302,0-0.453c0-0.228,0-0.454,0-0.681c2.433,0,4.852,0,7.271,0c0-4.839,0-9.68,0-14.52
	c4.84,0,9.68,0,14.519,0c0-2.419,0-4.839,0-7.259c2.42,0,4.84,0,7.247,0c0-2.42,0-4.839,0-7.259c2.432,0,4.852,0,7.271,0
	c0-4.84,0-9.68,0-14.52c2.42,0,4.84,0,7.247,0c0-6.049,0-12.099,0-18.147c0-6.051,0-12.1,0-18.148c2.432,0,4.853,0,7.271,0
	c0-1.21,0-2.42,0-3.63c0-0.605,0-1.21,0-1.815c0-0.681,0-1.361,0-2.042c4.84,0,9.667,0,14.519,0c0-2.419,0-4.839,0-7.259
	c2.42,0,4.84,0,7.26,0c0-4.839,0-9.679,0-14.518c2.407,0,4.84,0,7.259,0c0-7.26,0-14.52,0-21.778c-2.419,0-4.852,0-7.259,0
	c0-2.42,0-4.84,0-7.259c-2.42,0-4.84,0-7.26,0c0-2.42,0-4.84,0-7.26c-4.852,0-9.679,0-14.519,0c0-2.421,0-4.84,0-7.26
	c-4.84,0-9.679,0-14.519,0c0-4.84,0-9.679,0-14.519c-2.42,0-4.84,0-7.271,0c0-4.915,0-9.83,0-14.745c-2.407,0-4.827,0-7.247,0
	c0-2.42,0-4.84,0-7.26c-0.227,0-0.453,0-0.681,0c-0.681,0-1.361,0-2.042,0c-0.151,0-0.302,0-0.453,0c-0.239,0-0.453,0-0.681,0
	c-0.151,0-0.303,0-0.453,0c-0.228,0-0.467,0-0.681,0c-0.151,0-0.315,0-0.454,0c-0.227,0-0.454,0-0.681,0c-0.151,0-0.303,0-0.466,0
	c-0.215,0-0.441,0-0.681,0c-0.139,0-0.29,0-0.441,0c-0.228,0-0.454,0-0.681,0c-0.151,0-0.303,0-0.454,0c-0.239,0-0.453,0-0.68,0
	c-0.151,0-0.304,0-0.454,0c-0.227,0-0.467,0-0.681,0c-0.151,0-0.314,0-0.454,0c-0.227,0-0.453,0-0.68,0c-0.151,0-0.303,0-0.467,0
	c-0.214,0-0.441,0-0.681,0c-0.139,0-0.29,0-0.441,0c-0.227,0-0.453,0-0.681,0c-0.163,0-0.302,0-0.453,0c-0.239,0-0.453,0-0.681,0
	c-0.151,0-0.303,0-0.453,0c-0.228,0-0.467,0-0.681,0c-0.151,0-0.315,0-0.454,0c-0.227,0-0.454,0-0.681,0c-0.151,0-0.303,0-0.466,0
	c-0.215,0-0.441,0-0.681,0c-0.29,0-0.605,0-0.895,0c-0.151,0-0.315,0-0.454,0c-0.227,0-0.467,0-0.681,0c-0.151,0-0.303,0-0.466,0
	c-0.215,0-0.441,0-0.681,0c-0.139,0-0.29,0-0.441,0c-0.228,0-0.454,0-0.681,0c-0.151,0-0.303,0-0.454,0c-0.239,0-0.453,0-0.681,0
	c-0.163,0-0.303,0-0.453,0c-0.227,0-0.454,0-0.681,0c-0.151,0-0.315,0-0.453,0c-0.228,0-0.467,0-0.681,0c-0.151,0-0.303,0-0.467,0
	c-0.214,0-0.441,0-0.681,0c-0.139,0-0.29,0-0.441,0c-0.227,0-0.453,0-0.681,0c-0.151,0-0.302,0-0.453,0c-0.239,0-0.453,0-0.681,0
	c-0.164,0-0.303,0-0.453,0c-0.228,0-0.454,0-0.681,0c-0.151,0-0.315,0-0.454,0c-0.227,0-0.466,0-0.681,0c-0.151,0-0.303,0-0.466,0
	c-0.215,0-0.441,0-0.681,0c-0.139,0-0.29,0-0.441,0c-0.228,0-0.454,0-0.681,0c-0.151,0-0.302,0-0.453,0c-0.24,0-0.454,0-0.681,0
	c-0.164,0-0.303,0-0.454,0c-0.227,0-0.454,0-0.681,0c0,2.42,0,4.84,0,7.26c-2.42,0-4.84,0-7.271,0c0,0.075,0,0.151,0,0.227
	c0,2.419,0,4.84,0,7.26c-3.617,0-7.246,0-10.876,0c-3.643,0-7.26,0-10.89,0c0,2.42,0,4.84,0,7.259c-1.814,0-3.629,0-5.443,0
	c-0.228,0-0.467,0-0.682,0c-0.227,0-0.466,0-0.68,0c-0.467,0-0.908,0-1.361,0c-0.92,0-1.814,0-2.723,0c-1.814,0-3.63,0-5.444,0
	c-1.815,0-3.63,0-5.444,0c0-2.419,0-4.839,0-7.259c-7.26,0-14.52,0-21.778,0c0,2.42,0,4.84,0,7.259c-4.915,0-9.83,0-14.758,0
	c0,2.42,0,4.84,0,7.26c-2.42,0-4.827,0-7.247,0c0,2.419,0,4.839,0,7.259c-2.42,0-4.839,0-7.26,0c0,9.452,0,18.904,0,28.356
	c0,0.228,0,0.454,0,0.681c2.421,0,4.84,0,7.26,0c0,4.839,0,9.68,0,14.52c-2.42,0-4.839,0-7.26,0c0,0.075,0,0.151,0,0.227
	c-0.012,0.528,0,1.058,0,1.587c0,0.605,0,1.21,0,1.815c0,1.134,0,2.269,0,3.403c0,2.269,0,4.536,0,6.805c0,0.228,0,0.454,0,0.681
	c2.421,0,4.84,0,7.26,0c0-2.42,0-4.839,0-7.259c2.42,0,4.827,0,7.247,0c0-3.63,0.012-7.259,0-10.889c0-3.63,0.012-7.26,0-10.89
	c0-3.63,0.012-7.259,0-10.889c0-1.815,0-3.629,0-5.444c0-1.814,0-3.63,0-5.444c2.508,0,5.003,0,7.499,0c0-2.421,0-4.84,0-7.26
	c4.84,0,9.679,0,14.518,0c0-2.42,0-4.84,0-7.259c2.723,0,5.445,0,8.168,0c2.721,0,5.443,0,8.166,0c2.71,0,5.444,0,8.167,0
	c2.71,0,5.444,0,8.167,0c2.709,0,5.443,0,8.166,0c2.71,0,5.445,0,8.167,0c2.71,0,5.444,0,8.167,0c2.722,0,5.443,0,8.166,0
	c0-4.84,0-9.679,0-14.519c4.84,0,9.679,0,14.519,0c2.42,0,4.84,0,7.247,0c1.21,0,2.42,0,3.642,0c0.605,0,1.211,0,1.815,0
	s1.21,0,1.814,0c0.076,0,0.151,0,0.215,0c0,2.42,0,4.84,0,7.259c2.433,0,4.852,0,7.271,0c0,4.84,0,9.679,0,14.519
	c2.42,0,4.84,0,7.247,0c0,4.839,0,9.68,0,14.52c0.92,0,1.827,0,2.734,0c0.441,0,0.908,0,1.361,0c0.227,0,0.453,0,0.681,0
	c0.214,0,0.453,0,0.681,0c1.814,0,3.63,0,5.444,0c0.441,0,0.907,0,1.361,0c0.227,0,0.453,0,0.681,0c0.227,0,0.453,0,0.681,0
	c0.453,0,0.895,0,1.36,0c0.227,0,0.454,0,0.681,0s0.454,0,0.668,0c1.828,0,3.643,0,5.457,0c0,2.419,0,4.839,0,7.259
	c2.42,0,4.84,0,7.247,0c0,2.419,0,4.839,0,7.259c2.42,0,4.853,0,7.271,0c0,4.839,0,9.68,0,14.52c-2.419,0-4.852,0-7.271,0
	c0,2.419,0,4.839,0,7.259c-2.407,0-4.827,0-7.247,0c0,2.42,0,4.839,0,7.259c-2.419,0-4.84,0-7.271,0c0,2.42,0,4.84,0,7.259
	c-2.407,0-4.827,0-7.247,0c0,3.706,0,7.412,0,11.116c0,3.63,0,7.26,0,10.89c-2.42,0-4.84,0-7.271,0c0,7.26,0,14.519,0,21.777
	c-2.407,0-4.827,0-7.247,0c0,2.42,0,4.84,0,7.259c-2.42,0-4.839,0-7.271,0c0,2.421,0,4.841,0,7.261c-2.407,0-4.827,0-7.247,0
	c0,2.42,0,4.839,0,7.259c-4.839,0-9.691,0-14.519,0c0,2.42,0,4.84,0,7.259c2.42,0,4.827,0,7.247,0c0,2.42,0,4.84,0,7.26
	c-1.879,0-3.781,0-5.672,0c-1.814,0-3.617,0-5.432,0s-3.63,0-5.444,0s-3.63,0-5.457,0c0,2.421,0,4.84,0,7.26
	c-3.617,0-7.246,0-10.876,0c-1.815,0-3.643,0-5.458,0C91.234,189.196,90.327,189.196,89.42,189.196z"/>
<path fill="#353635" d="M93.944,138.381c0,2.42,0,4.839,0,7.259c2.433,0,4.853,0,7.272,0c0-2.42,0-4.839,0-7.259
	C98.797,138.381,96.377,138.381,93.944,138.381z"/>
<path fill="#232034" d="M101.217,138.381c0,2.42,0,4.839,0,7.259c2.419,0,4.839,0,7.246,0c0-2.42,0-4.839,0-7.259
	C106.056,138.381,103.636,138.381,101.217,138.381z"/>
<path fill="#232034" d="M123.221,101.856c-1.21,0-2.42,0-3.63,0c-0.604,0-1.21,0-1.814,0c-0.681,0-1.361,0-2.042,0
	c0,0.38,0,0.757,0,1.135c0,0.303,0,0.605,0,0.907c0,0.605,0,1.21,0,1.815c0,0.604,0,1.21,0,1.814c0,0.605,0,1.211,0,1.815
	c-2.42,0-4.84,0-7.271,0c0,2.419,0,4.839,0,7.259c0,0.908,0,1.815,0,2.723c0,0.227,0,0.454,0,0.681s0,0.454,0,0.681s0,0.454,0,0.681
	c0,0.226,0,0.454,0,0.681c0,0.226,0,0.454,0,0.68c0,0.227,0,0.454,0,0.681c0,0.454,0,0.907,0,1.361c0,0.227,0,0.453,0,0.681
	c0,0.227,0,0.453,0,0.681c0,0.227,0,0.453,0,0.681c0,0.227,0,0.453,0,0.681c0,0.227,0,0.453,0,0.681c0,0.227,0,0.453,0,0.681
	c0,0.453,0,0.907,0,1.36c0,0.228,0,0.454,0,0.681c0,0.228,0,0.454,0,0.68c0,0.229,0,0.455,0,0.681c0,0.229,0,0.454,0,0.681
	c0,0.228,0,0.454,0,0.681c0,0.228,0,0.454,0,0.681c0,0.454,0,0.908,0,1.361c0,0.227,0,0.454,0,0.681s0,0.454,0,0.681
	c0,0.454,0,0.907,0,1.361c2.432,0,4.852,0,7.271,0c0-4.84,0-9.679,0-14.519c0-2.421,0-4.84,0-7.26c0.681,0,1.361,0,2.042,0
	c0.604,0,1.21,0,1.814,0c1.21,0,2.42,0,3.63,0c0-2.42,0-4.84,0-7.259c2.42,0,4.827,0,7.247,0c0-0.227,0-0.454,0-0.681
	c0-0.151,0-0.303,0-0.454c0-0.302,0-0.604,0-0.907c0.012-0.604,0-1.21,0-1.814c0-1.21,0-2.42,0-3.631c2.433,0,4.852,0,7.271,0
	c0-2.419,0-4.839,0-7.259s0-4.839,0-7.259s0-4.84,0-7.259c0-2.42,0-4.84,0-7.26c-2.42,0-4.839,0-7.271,0c0,3.63,0,7.26,0,10.889
	c0,3.63,0,7.26,0,10.889c-2.42,0-4.827,0-7.247,0C123.221,97.018,123.221,99.438,123.221,101.856z"/>
<path fill="#353635" d="M108.463,58.302c0,2.419,0,4.839,0,7.259c2.432,0,4.852,0,7.271,0c0-2.42,0-4.84,0-7.259
	C113.314,58.302,110.895,58.302,108.463,58.302z"/>
<path fill="#D6EEF1" d="M115.961,43.783c-1.222,0-2.432,0-3.63,0c-0.604,0-1.209,0-1.814,0c-0.681,0-1.373,0-2.054,0
	c0,2.42,0,4.84,0,7.26c2.432,0,4.852,0,7.271,0c1.21,0,2.42,0,3.63,0c0.604,0,1.21,0,1.814,0c0.681,0,1.361,0,2.042,0
	c0-2.42,0-4.84,0-7.26C120.801,43.783,118.381,43.783,115.961,43.783z"/>
<path fill="#353635" d="M123.221,65.561c-1.21,0-2.42,0-3.63,0c-0.604,0-1.21,0-1.814,0c-0.681,0-1.361,0-2.042,0
	c0,4.839,0,9.68,0,14.52c0.076,0,0.151,0,0.227,0c1.211,0,2.42,0,3.63,0s2.42,0,3.63,0c0,2.419,0,4.839,0,7.259
	c-2.42,0-4.84,0-7.26,0c-1.222,0-2.432,0-3.63,0c-0.604,0-1.209,0-1.814,0c-0.681,0-1.373,0-2.054,0c0,2.42,0,4.839,0,7.259
	c-2.407,0-4.827,0-7.246,0c-2.42,0-4.84,0-7.272,0c0,2.42,0,4.84,0,7.259c2.433,0,4.853,0,7.272,0c0,4.916,0,9.832,0,14.746
	c2.419,0,4.839,0,7.246,0c0-2.42,0-4.84,0-7.259c2.432,0,4.852,0,7.271,0c0-0.604,0-1.21,0-1.815c0-0.604,0-1.21,0-1.814
	c0-0.605,0-1.21,0-1.815c0-0.302,0-0.604,0-0.907c0-0.378,0-0.755,0-1.135c0.681,0,1.361,0,2.042,0c0.604,0,1.21,0,1.814,0
	c1.21,0,2.42,0,3.63,0c0-2.419,0-4.839,0-7.259c2.42,0,4.827,0,7.247,0c0-3.629,0-7.259,0-10.889c0-3.629,0-7.259,0-10.889
	c-2.42,0-4.827,0-7.247,0C123.221,70.399,123.221,67.98,123.221,65.561z"/>
<path fill="#232034" d="M121.179,58.302c-0.604,0-1.21,0-1.814,0c-1.21,0-2.42,0-3.63,0c0,2.419,0,4.839,0,7.259
	c0.681,0,1.361,0,2.042,0c0.604,0,1.21,0,1.814,0c1.21,0,2.42,0,3.63,0c0-2.42,0-4.84,0-7.259c-0.076,0-0.151,0-0.239,0
	c-0.29,0-0.605,0-0.895,0C121.784,58.302,121.481,58.302,121.179,58.302z"/>
<path fill="#D6EEF1" d="M130.468,108.663c0,0.227,0,0.454,0,0.681c-2.42,0-4.827,0-7.247,0c0,2.419,0,4.839,0,7.259
	c-1.21,0-2.42,0-3.63,0c-0.604,0-1.21,0-1.814,0c-0.681,0-1.361,0-2.042,0c0,2.42,0,4.839,0,7.26c1.21,0,2.42,0,3.63,0
	c0.604,0,1.21,0,1.814,0c0.681,0,1.361,0,2.042,0c0,2.42,0,4.84,0,7.26c2.42,0,4.827,0,7.247,0c0,2.419,0,4.839,0,7.259
	c2.433,0,4.852,0,7.271,0c0-4.84,0-9.679,0-14.519c2.42,0,4.84,0,7.247,0c0-0.076,0.012-0.151,0-0.228c0-0.075,0-0.151,0-0.227
	c0-0.151,0-0.303,0-0.454c0-0.303,0-0.604,0-0.906c0-0.529,0-1.059,0-1.588c0.012-1.059,0-2.118,0-3.177c0-0.227,0-0.453,0-0.681
	c-2.407,0-4.827,0-7.247,0c0-4.914,0-9.83,0-14.746c-2.42,0-4.839,0-7.271,0c0,1.211,0,2.421,0,3.631c0,0.604,0.012,1.21,0,1.814
	c0,0.303,0,0.605,0,0.907C130.468,108.36,130.468,108.512,130.468,108.663z"/>
<path fill="#232034" d="M123.221,65.561c0,2.42,0,4.839,0,7.26c2.42,0,4.827,0,7.247,0c0-2.421,0-4.84,0-7.26
	C128.048,65.561,125.641,65.561,123.221,65.561z"/>
<path fill="#D6EEF1" d="M137.739,87.339c0,2.42,0,4.839,0,7.259c0.832,0,1.651,0,2.495,0c0.907,0,1.815,0,2.723,0
	c0.819,0,1.663,0,2.495,0c0.907,0,1.815,0,2.71,0c1.752,0,3.491,0,5.229,0c0.228,0,0.441,0,0.681,0c0.228,0,0.441,0,0.681,0
	c0.454,0,0.907,0,1.361,0c0.895,0,1.815,0,2.71,0c0.239,0,0.466,0,0.681,0c0-2.42,0-4.839,0-7.259c2.432,0,4.852,0,7.271,0
	c0-7.259,0-14.519,0-21.778c-9.679,0-19.357,0-29.037,0c0,2.42,0,4.839,0,7.26c0,2.42,0,4.84,0,7.26c2.42,0,4.84,0,7.247,0
	c0,2.419,0,4.839,0,7.259C142.579,87.339,140.159,87.339,137.739,87.339z"/>
<path fill="#98D8DF" d="M137.739,80.08c0,2.419,0,4.839,0,7.259c2.42,0,4.84,0,7.247,0c0-2.42,0-4.84,0-7.259
	C142.579,80.08,140.159,80.08,137.739,80.08z"/>
<g id="XMLID_2_">
	<g>
		<path fill="#232034" d="M116.613,145.899c0,2.33,0,4.67,0,7c2.42,0,4.83,0,7.26,0c0-2.25,0-4.49,0-6.74c-0.09,0-0.17,0-0.26,0
			c0-0.09,0-0.17,0-0.26C121.273,145.899,118.943,145.899,116.613,145.899z"/>
		<path fill="#232034" d="M118.424,153.159c-0.301,0-0.601,0-0.9,0c-0.311,0-0.61,0-0.91,0c0,2.25,0,4.49,0,6.74
			c2.42,0,4.83,0,7.26,0c0-2.25,0-4.49,0-6.74c-0.229,0-0.449,0-0.68,0c-1.07,0-2.12,0-3.18,0
			C119.483,153.159,118.943,153.159,118.424,153.159z"/>
		<path fill="#232034" d="M118.424,160.159c-0.301,0-0.601,0-0.9,0c-0.311,0-0.61,0-0.91,0c0,1.45,0,3.78,0,7c0.3,0,0.6,0,0.91,0
			c0.3,0,0.6,0,0.9,0c0.52,0,1.06,0,1.59,0c1.06,0,2.109,0,3.18,0c0.14,0,0.28,0,0.42,0c0-0.09,0-0.17,0-0.26c0.09,0,0.17,0,0.26,0
			c0-2.25,0-4.49,0-6.74c-0.229,0-0.449,0-0.68,0c-1.07,0-2.12,0-3.18,0C119.483,160.159,118.943,160.159,118.424,160.159z"/>
		<path fill="#232034" d="M123.873,159.899c-2.43,0-4.84,0-7.26,0c0,0.08,0,0.17,0,0.26c0.3,0,0.6,0,0.91,0c0.3,0,0.6,0,0.9,0
			c0.52,0,1.06,0,1.59,0c1.06,0,2.109,0,3.18,0c0.23,0,0.45,0,0.68,0C123.873,160.069,123.873,159.989,123.873,159.899z"/>
		<path fill="#232034" d="M123.873,152.899c-2.43,0-4.84,0-7.26,0c0,0.09,0,0.17,0,0.26c0.3,0,0.6,0,0.91,0c0.3,0,0.6,0,0.9,0
			c0.52,0,1.06,0,1.59,0c1.06,0,2.109,0,3.18,0c0.23,0,0.45,0,0.68,0C123.873,153.069,123.873,152.989,123.873,152.899z"/>
		<path fill="#232034" d="M123.613,167.159c0,2.33,0,4.67,0,7c0.3,0,0.6,0,0.91,0c0.3,0,0.6,0,0.9,0c0.52,0,1.06,0,1.59,0
			c1.06,0,2.109,0,3.18,0c0.23,0,0.45,0,0.68,0c0-2.33,0-4.67,0-7c-0.09,0-0.17,0-0.26,0c0-0.09,0-0.17,0-0.26
			c-2.26,0-4.49,0-6.74,0c0,0.09,0,0.17,0,0.26C123.783,167.159,123.703,167.159,123.613,167.159z"/>
		<path fill="#232034" d="M123.613,166.899c0,0.09,0,0.17,0,0.26c0.09,0,0.17,0,0.26,0c0-0.09,0-0.17,0-0.26
			C123.783,166.899,123.703,166.899,123.613,166.899z"/>
		<path fill="#232034" d="M123.613,145.899c0,0.09,0,0.17,0,0.26c0.09,0,0.17,0,0.26,0c0-0.09,0-0.17,0-0.26
			C123.783,145.899,123.703,145.899,123.613,145.899z"/>
		<path fill="#232034" d="M123.613,138.899c0,2.33,0,4.67,0,7c0.09,0,0.17,0,0.26,0c0,0.09,0,0.17,0,0.26c0.21,0,0.431,0,0.65,0
			c0.3,0,0.6,0,0.9,0c0.52,0,1.06,0,1.59,0c1.06,0,2.109,0,3.18,0c0.14,0,0.28,0,0.42,0c0-2.42,0-4.84,0-7.26
			C128.273,138.899,125.943,138.899,123.613,138.899z"/>
		<path fill="#5E5F5F" d="M125.424,146.159c-0.301,0-0.601,0-0.9,0c-0.22,0-0.44,0-0.65,0c0,2.25,0,4.49,0,6.74
			c0,0.09,0,0.17,0,0.26c0,2.25,0,4.49,0,6.74c0,0.09,0,0.17,0,0.26c0,2.25,0,4.49,0,6.74c2.25,0,4.48,0,6.74,0
			c0-2.25,0-4.49,0-6.74c0-0.09,0-0.17,0-0.26c0-2.33,0-4.67,0-7c2.42,0,4.83,0,7.26,0c0,2.33,0,4.67,0,7c0,0.09,0,0.17,0,0.26
			c0,2.25,0,4.49,0,6.74c2.25,0,4.48,0,6.74,0c0-2.25,0-4.49,0-6.74c0-0.08,0-0.17,0-0.26c0-1.45,0-3.78,0-7c2.42,0,4.83,0,7.26,0
			c0,2.33,0,4.67,0,7c0,0.09,0,0.17,0,0.26c0,2.25,0,4.49,0,6.74c2.25,0,4.48,0,6.74,0c0-2.25,0-4.49,0-6.74c0-0.09,0-0.17,0-0.26
			c0-2.25,0-4.49,0-6.74c0-0.09,0-0.17,0-0.26c0-2.25,0-4.49,0-6.74c-0.14,0-0.28,0-0.42,0c-1.07,0-2.12,0-3.18,0
			c-0.53,0-1.07,0-1.59,0c-0.301,0-0.601,0-0.9,0c-0.22,0-0.44,0-0.65,0c-0.09,0-0.17,0-0.26,0c-0.14,0-0.28,0-0.42,0
			c-1.07,0-2.12,0-3.18,0c-0.53,0-1.07,0-1.59,0c-0.301,0-0.601,0-0.9,0c-0.22,0-0.44,0-0.65,0c-0.09,0-0.17,0-0.26,0
			c-0.14,0-0.28,0-0.42,0c-1.07,0-2.12,0-3.18,0c-0.53,0-1.07,0-1.59,0c-0.301,0-0.601,0-0.9,0c-0.22,0-0.44,0-0.65,0
			c-0.09,0-0.17,0-0.26,0c-0.14,0-0.28,0-0.42,0c-1.07,0-2.12,0-3.18,0c-0.53,0-1.07,0-1.59,0c-0.301,0-0.601,0-0.9,0
			c-0.22,0-0.44,0-0.65,0c-0.09,0-0.17,0-0.26,0c-0.14,0-0.28,0-0.42,0c-1.07,0-2.12,0-3.18,0
			C126.483,146.159,125.943,146.159,125.424,146.159z"/>
		<path fill="#232034" d="M130.613,166.899c0,0.09,0,0.17,0,0.26c0.09,0,0.17,0,0.26,0c0-0.09,0-0.17,0-0.26
			C130.783,166.899,130.703,166.899,130.613,166.899z"/>
		<path fill="#232034" d="M130.613,152.899c0,2.33,0,4.67,0,7c2.42,0,4.83,0,7.26,0c0-2.33,0-4.67,0-7
			C135.443,152.899,133.033,152.899,130.613,152.899z"/>
		<path fill="#232034" d="M130.613,138.899c0,2.42,0,4.84,0,7.26c0.09,0,0.17,0,0.26,0c0-2.42,0-4.84,0-7.26
			C130.783,138.899,130.703,138.899,130.613,138.899z"/>
		<path fill="#232034" d="M132.424,160.159c-0.301,0-0.601,0-0.9,0c-0.311,0-0.61,0-0.91,0c0,2.25,0,4.49,0,6.74
			c0.09,0,0.17,0,0.26,0c0,0.09,0,0.17,0,0.26c0.21,0,0.431,0,0.65,0c0.3,0,0.6,0,0.9,0c0.52,0,1.06,0,1.59,0c1.06,0,2.109,0,3.18,0
			c0.14,0,0.28,0,0.42,0c0-0.09,0-0.17,0-0.26c0.09,0,0.17,0,0.26,0c0-2.25,0-4.49,0-6.74c-0.229,0-0.449,0-0.68,0
			c-1.07,0-2.12,0-3.18,0C133.483,160.159,132.943,160.159,132.424,160.159z"/>
		<path fill="#232034" d="M130.873,138.899c0,2.42,0,4.84,0,7.26c0.21,0,0.431,0,0.65,0c0.3,0,0.6,0,0.9,0c0.52,0,1.06,0,1.59,0
			c1.06,0,2.109,0,3.18,0c0.14,0,0.28,0,0.42,0c0-2.42,0-4.84,0-7.26C135.354,138.899,133.123,138.899,130.873,138.899z"/>
		<path fill="#232034" d="M137.873,159.899c-2.43,0-4.84,0-7.26,0c0,0.09,0,0.17,0,0.26c0.3,0,0.6,0,0.91,0c0.3,0,0.6,0,0.9,0
			c0.52,0,1.06,0,1.59,0c1.06,0,2.109,0,3.18,0c0.23,0,0.45,0,0.68,0C137.873,160.069,137.873,159.989,137.873,159.899z"/>
		<path fill="#232034" d="M137.613,167.159c0,2.33,0,4.67,0,7c0.3,0,0.6,0,0.91,0c0.3,0,0.6,0,0.9,0c0.52,0,1.06,0,1.59,0
			c1.06,0,2.109,0,3.18,0c0.23,0,0.45,0,0.68,0c0-2.33,0-4.67,0-7c-0.09,0-0.17,0-0.26,0c0-0.09,0-0.17,0-0.26
			c-2.26,0-4.49,0-6.74,0c0,0.09,0,0.17,0,0.26C137.783,167.159,137.703,167.159,137.613,167.159z"/>
		<path fill="#232034" d="M137.613,166.899c0,0.09,0,0.17,0,0.26c0.09,0,0.17,0,0.26,0c0-0.09,0-0.17,0-0.26
			C137.783,166.899,137.703,166.899,137.613,166.899z"/>
		<path fill="#232034" d="M137.613,138.899c0,2.42,0,4.84,0,7.26c0.09,0,0.17,0,0.26,0c0-2.42,0-4.84,0-7.26
			C137.783,138.899,137.703,138.899,137.613,138.899z"/>
		<path fill="#232034" d="M137.873,138.899c0,2.42,0,4.84,0,7.26c0.21,0,0.431,0,0.65,0c0.3,0,0.6,0,0.9,0c0.52,0,1.06,0,1.59,0
			c1.06,0,2.109,0,3.18,0c0.14,0,0.28,0,0.42,0c0-2.42,0-4.84,0-7.26C142.354,138.899,140.123,138.899,137.873,138.899z"/>
		<path fill="#232034" d="M144.613,166.899c0,0.09,0,0.17,0,0.26c0.09,0,0.17,0,0.26,0c0-0.09,0-0.17,0-0.26
			C144.783,166.899,144.703,166.899,144.613,166.899z"/>
		<path fill="#232034" d="M144.613,152.899c0,3.22,0,5.55,0,7c2.42,0,4.83,0,7.26,0c0-2.33,0-4.67,0-7
			C149.443,152.899,147.033,152.899,144.613,152.899z"/>
		<path fill="#232034" d="M144.613,138.899c0,2.42,0,4.84,0,7.26c0.09,0,0.17,0,0.26,0c0-2.42,0-4.84,0-7.26
			C144.783,138.899,144.703,138.899,144.613,138.899z"/>
		<path fill="#232034" d="M145.523,160.159c-0.311,0-0.61,0-0.91,0c0,2.25,0,4.49,0,6.74c0.09,0,0.17,0,0.26,0c0,0.09,0,0.17,0,0.26
			c0.21,0,0.431,0,0.65,0c0.3,0,0.6,0,0.9,0c0.52,0,1.06,0,1.59,0c1.06,0,2.109,0,3.18,0c0.14,0,0.28,0,0.42,0c0-0.09,0-0.17,0-0.26
			c0.09,0,0.17,0,0.26,0c0-2.25,0-4.49,0-6.74c-0.229,0-0.449,0-0.68,0c-1.07,0-2.12,0-3.18,0c-0.53,0-1.07,0-1.59,0
			C146.123,160.159,145.823,160.159,145.523,160.159z"/>
		<path fill="#232034" d="M144.873,138.899c0,2.42,0,4.84,0,7.26c0.21,0,0.431,0,0.65,0c0.3,0,0.6,0,0.9,0c0.52,0,1.06,0,1.59,0
			c1.06,0,2.109,0,3.18,0c0.14,0,0.28,0,0.42,0c0-2.42,0-4.84,0-7.26C149.354,138.899,147.123,138.899,144.873,138.899z"/>
		<path fill="#232034" d="M151.873,159.899c-2.43,0-4.84,0-7.26,0c0,0.09,0,0.18,0,0.26c0.3,0,0.6,0,0.91,0c0.3,0,0.6,0,0.9,0
			c0.52,0,1.06,0,1.59,0c1.06,0,2.109,0,3.18,0c0.23,0,0.45,0,0.68,0C151.873,160.069,151.873,159.989,151.873,159.899z"/>
		<path fill="#232034" d="M151.613,167.159c0,2.33,0,4.67,0,7c0.3,0,0.6,0,0.91,0c0.3,0,0.6,0,0.9,0c0.52,0,1.06,0,1.59,0
			c1.06,0,2.109,0,3.18,0c0.23,0,0.45,0,0.68,0c0-2.33,0-4.67,0-7c-0.09,0-0.17,0-0.26,0c0-0.09,0-0.17,0-0.26
			c-2.26,0-4.49,0-6.74,0c0,0.09,0,0.17,0,0.26C151.783,167.159,151.703,167.159,151.613,167.159z"/>
		<path fill="#232034" d="M151.613,166.899c0,0.09,0,0.17,0,0.26c0.09,0,0.17,0,0.26,0c0-0.09,0-0.17,0-0.26
			C151.783,166.899,151.703,166.899,151.613,166.899z"/>
		<path fill="#232034" d="M151.613,138.899c0,2.42,0,4.84,0,7.26c0.09,0,0.17,0,0.26,0c0-2.42,0-4.84,0-7.26
			C151.783,138.899,151.703,138.899,151.613,138.899z"/>
		<path fill="#232034" d="M151.873,138.899c0,2.42,0,4.84,0,7.26c0.21,0,0.431,0,0.65,0c0.3,0,0.6,0,0.9,0c0.52,0,1.06,0,1.59,0
			c1.06,0,2.109,0,3.18,0c0.14,0,0.28,0,0.42,0c0-0.09,0-0.17,0-0.26c0.09,0,0.17,0,0.26,0c0-2.33,0-4.67,0-7
			C156.533,138.899,154.203,138.899,151.873,138.899z"/>
		<path fill="#232034" d="M158.613,166.899c0,0.09,0,0.17,0,0.26c0.09,0,0.17,0,0.26,0c0-0.09,0-0.17,0-0.26
			C158.783,166.899,158.703,166.899,158.613,166.899z"/>
		<path fill="#232034" d="M158.613,146.159c0,2.25,0,4.49,0,6.74c2.42,0,4.83,0,7.26,0c0-2.33,0-4.67,0-7c-2.34,0-4.67,0-7,0
			c0,0.09,0,0.17,0,0.26C158.783,146.159,158.703,146.159,158.613,146.159z"/>
		<path fill="#232034" d="M158.613,145.899c0,0.09,0,0.17,0,0.26c0.09,0,0.17,0,0.26,0c0-0.09,0-0.17,0-0.26
			C158.783,145.899,158.703,145.899,158.613,145.899z"/>
		<path fill="#232034" d="M158.613,153.159c0,2.25,0,4.49,0,6.74c2.42,0,4.83,0,7.26,0c0-2.25,0-4.49,0-6.74
			c-0.229,0-0.449,0-0.68,0c-1.07,0-2.12,0-3.18,0c-0.53,0-1.07,0-1.59,0c-0.301,0-0.601,0-0.9,0
			C159.213,153.159,158.913,153.159,158.613,153.159z"/>
		<path fill="#232034" d="M158.613,160.159c0,2.25,0,4.49,0,6.74c0.09,0,0.17,0,0.26,0c0,0.09,0,0.17,0,0.26c0.21,0,0.431,0,0.65,0
			c0.3,0,0.6,0,0.9,0c0.52,0,1.06,0,1.59,0c1.06,0,2.109,0,3.18,0c0.23,0,0.45,0,0.68,0c0-2.33,0-4.67,0-7c-0.229,0-0.449,0-0.68,0
			c-1.07,0-2.12,0-3.18,0c-0.53,0-1.07,0-1.59,0c-0.301,0-0.601,0-0.9,0C159.213,160.159,158.913,160.159,158.613,160.159z"/>
		<path fill="#232034" d="M160.424,160.159c0.52,0,1.06,0,1.59,0c1.06,0,2.109,0,3.18,0c0.23,0,0.45,0,0.68,0c0-0.09,0-0.17,0-0.26
			c-2.43,0-4.84,0-7.26,0c0,0.09,0,0.17,0,0.26c0.3,0,0.6,0,0.91,0C159.823,160.159,160.123,160.159,160.424,160.159z"/>
		<path fill="#232034" d="M160.424,153.159c0.52,0,1.06,0,1.59,0c1.06,0,2.109,0,3.18,0c0.23,0,0.45,0,0.68,0c0-0.09,0-0.17,0-0.26
			c-2.43,0-4.84,0-7.26,0c0,0.09,0,0.17,0,0.26c0.3,0,0.6,0,0.91,0C159.823,153.159,160.123,153.159,160.424,153.159z"/>
	</g>
	<g>
	</g>
</g>
<g id="XMLID_1_">
	<g>
		<path fill="#232034" d="M0.25,145.899c0,2.33,0,4.67,0,7c2.42,0,4.83,0,7.26,0c0-2.25,0-4.49,0-6.74c-0.09,0-0.17,0-0.26,0
			c0-0.09,0-0.17,0-0.26C4.91,145.899,2.58,145.899,0.25,145.899z"/>
		<path fill="#232034" d="M2.06,153.159c-0.3,0-0.6,0-0.9,0c-0.31,0-0.61,0-0.91,0c0,2.25,0,4.49,0,6.74c2.42,0,4.83,0,7.26,0
			c0-2.25,0-4.49,0-6.74c-0.23,0-0.45,0-0.68,0c-1.07,0-2.12,0-3.18,0C3.12,153.159,2.58,153.159,2.06,153.159z"/>
		<path fill="#232034" d="M2.06,160.159c-0.3,0-0.6,0-0.9,0c-0.31,0-0.61,0-0.91,0c0,1.45,0,3.78,0,7c0.3,0,0.6,0,0.91,0
			c0.3,0,0.6,0,0.9,0c0.52,0,1.06,0,1.59,0c1.06,0,2.11,0,3.18,0c0.14,0,0.28,0,0.42,0c0-0.09,0-0.17,0-0.26c0.09,0,0.17,0,0.26,0
			c0-2.25,0-4.49,0-6.74c-0.23,0-0.45,0-0.68,0c-1.07,0-2.12,0-3.18,0C3.12,160.159,2.58,160.159,2.06,160.159z"/>
		<path fill="#232034" d="M3.65,160.159c1.06,0,2.11,0,3.18,0c0.23,0,0.45,0,0.68,0c0-0.09,0-0.17,0-0.26c-2.43,0-4.84,0-7.26,0
			c0,0.08,0,0.17,0,0.26c0.3,0,0.6,0,0.91,0c0.3,0,0.6,0,0.9,0C2.58,160.159,3.12,160.159,3.65,160.159z"/>
		<path fill="#232034" d="M7.51,152.899c-2.43,0-4.84,0-7.26,0c0,0.09,0,0.17,0,0.26c0.3,0,0.6,0,0.91,0c0.3,0,0.6,0,0.9,0
			c0.52,0,1.06,0,1.59,0c1.06,0,2.11,0,3.18,0c0.23,0,0.45,0,0.68,0C7.51,153.069,7.51,152.989,7.51,152.899z"/>
		<path fill="#232034" d="M7.25,167.159c0,2.33,0,4.67,0,7c0.3,0,0.6,0,0.91,0c0.3,0,0.6,0,0.9,0c0.52,0,1.06,0,1.59,0
			c1.06,0,2.11,0,3.18,0c0.23,0,0.45,0,0.68,0c0-2.33,0-4.67,0-7c-0.09,0-0.17,0-0.26,0c0-0.09,0-0.17,0-0.26c-2.26,0-4.49,0-6.74,0
			c0,0.09,0,0.17,0,0.26C7.42,167.159,7.34,167.159,7.25,167.159z"/>
		<path fill="#232034" d="M7.25,166.899c0,0.09,0,0.17,0,0.26c0.09,0,0.17,0,0.26,0c0-0.09,0-0.17,0-0.26
			C7.42,166.899,7.34,166.899,7.25,166.899z"/>
		<path fill="#232034" d="M7.25,145.899c0,0.09,0,0.17,0,0.26c0.09,0,0.17,0,0.26,0c0-0.09,0-0.17,0-0.26
			C7.42,145.899,7.34,145.899,7.25,145.899z"/>
		<path fill="#232034" d="M7.25,138.899c0,2.33,0,4.67,0,7c0.09,0,0.17,0,0.26,0c0,0.09,0,0.17,0,0.26c0.21,0,0.43,0,0.65,0
			c0.3,0,0.6,0,0.9,0c0.52,0,1.06,0,1.59,0c1.06,0,2.11,0,3.18,0c0.14,0,0.28,0,0.42,0c0-2.42,0-4.84,0-7.26
			C11.91,138.899,9.58,138.899,7.25,138.899z"/>
		<path fill="#5E5F5F" d="M7.51,146.159c0,2.25,0,4.49,0,6.74c0,0.09,0,0.17,0,0.26c0,2.25,0,4.49,0,6.74c0,0.09,0,0.17,0,0.26
			c0,2.25,0,4.49,0,6.74c2.25,0,4.48,0,6.74,0c0-2.25,0-4.49,0-6.74c0-0.09,0-0.17,0-0.26c0-2.33,0-4.67,0-7c2.42,0,4.83,0,7.26,0
			c0,2.33,0,4.67,0,7c0,0.09,0,0.17,0,0.26c0,2.25,0,4.49,0,6.74c2.25,0,4.48,0,6.74,0c0-2.25,0-4.49,0-6.74c0-0.08,0-0.17,0-0.26
			c0-1.45,0-3.78,0-7c2.42,0,4.83,0,7.26,0c0,2.33,0,4.67,0,7c0,0.09,0,0.17,0,0.26c0,2.25,0,4.49,0,6.74c2.25,0,4.48,0,6.74,0
			c0-2.25,0-4.49,0-6.74c0-0.09,0-0.17,0-0.26c0-2.25,0-4.49,0-6.74c0-0.09,0-0.17,0-0.26c0-2.25,0-4.49,0-6.74
			c-0.14,0-0.28,0-0.42,0c-1.07,0-2.12,0-3.18,0c-0.53,0-1.07,0-1.59,0c-0.3,0-0.6,0-0.9,0c-0.22,0-0.44,0-0.65,0
			c-0.09,0-0.17,0-0.26,0c-0.14,0-0.28,0-0.42,0c-1.07,0-2.12,0-3.18,0c-0.53,0-1.07,0-1.59,0c-0.3,0-0.6,0-0.9,0
			c-0.22,0-0.44,0-0.65,0c-0.09,0-0.17,0-0.26,0c-0.14,0-0.28,0-0.42,0c-1.07,0-2.12,0-3.18,0c-0.53,0-1.07,0-1.59,0
			c-0.3,0-0.6,0-0.9,0c-0.22,0-0.44,0-0.65,0c-0.09,0-0.17,0-0.26,0c-0.14,0-0.28,0-0.42,0c-1.07,0-2.12,0-3.18,0
			c-0.53,0-1.07,0-1.59,0c-0.3,0-0.6,0-0.9,0c-0.22,0-0.44,0-0.65,0c-0.09,0-0.17,0-0.26,0c-0.14,0-0.28,0-0.42,0
			c-1.07,0-2.12,0-3.18,0c-0.53,0-1.07,0-1.59,0c-0.3,0-0.6,0-0.9,0C7.94,146.159,7.72,146.159,7.51,146.159z"/>
		<path fill="#232034" d="M14.25,166.899c0,0.09,0,0.17,0,0.26c0.09,0,0.17,0,0.26,0c0-0.09,0-0.17,0-0.26
			C14.42,166.899,14.34,166.899,14.25,166.899z"/>
		<path fill="#232034" d="M14.25,152.899c0,2.33,0,4.67,0,7c2.42,0,4.83,0,7.26,0c0-2.33,0-4.67,0-7
			C19.08,152.899,16.67,152.899,14.25,152.899z"/>
		<path fill="#232034" d="M14.25,138.899c0,2.42,0,4.84,0,7.26c0.09,0,0.17,0,0.26,0c0-2.42,0-4.84,0-7.26
			C14.42,138.899,14.34,138.899,14.25,138.899z"/>
		<path fill="#232034" d="M15.16,160.159c-0.31,0-0.61,0-0.91,0c0,2.25,0,4.49,0,6.74c0.09,0,0.17,0,0.26,0c0,0.09,0,0.17,0,0.26
			c0.21,0,0.43,0,0.65,0c0.3,0,0.6,0,0.9,0c0.52,0,1.06,0,1.59,0c1.06,0,2.11,0,3.18,0c0.14,0,0.28,0,0.42,0c0-0.09,0-0.17,0-0.26
			c0.09,0,0.17,0,0.26,0c0-2.25,0-4.49,0-6.74c-0.23,0-0.45,0-0.68,0c-1.07,0-2.12,0-3.18,0c-0.53,0-1.07,0-1.59,0
			C15.76,160.159,15.46,160.159,15.16,160.159z"/>
		<path fill="#232034" d="M14.51,138.899c0,2.42,0,4.84,0,7.26c0.21,0,0.43,0,0.65,0c0.3,0,0.6,0,0.9,0c0.52,0,1.06,0,1.59,0
			c1.06,0,2.11,0,3.18,0c0.14,0,0.28,0,0.42,0c0-2.42,0-4.84,0-7.26C18.99,138.899,16.76,138.899,14.51,138.899z"/>
		<path fill="#232034" d="M17.65,160.159c1.06,0,2.11,0,3.18,0c0.23,0,0.45,0,0.68,0c0-0.09,0-0.17,0-0.26c-2.43,0-4.84,0-7.26,0
			c0,0.09,0,0.17,0,0.26c0.3,0,0.6,0,0.91,0c0.3,0,0.6,0,0.9,0C16.58,160.159,17.12,160.159,17.65,160.159z"/>
		<path fill="#232034" d="M21.25,167.159c0,2.33,0,4.67,0,7c0.3,0,0.6,0,0.91,0c0.3,0,0.6,0,0.9,0c0.52,0,1.06,0,1.59,0
			c1.06,0,2.11,0,3.18,0c0.23,0,0.45,0,0.68,0c0-2.33,0-4.67,0-7c-0.09,0-0.17,0-0.26,0c0-0.09,0-0.17,0-0.26c-2.26,0-4.49,0-6.74,0
			c0,0.09,0,0.17,0,0.26C21.42,167.159,21.34,167.159,21.25,167.159z"/>
		<path fill="#232034" d="M21.25,166.899c0,0.09,0,0.17,0,0.26c0.09,0,0.17,0,0.26,0c0-0.09,0-0.17,0-0.26
			C21.42,166.899,21.34,166.899,21.25,166.899z"/>
		<path fill="#232034" d="M21.25,138.899c0,2.42,0,4.84,0,7.26c0.09,0,0.17,0,0.26,0c0-2.42,0-4.84,0-7.26
			C21.42,138.899,21.34,138.899,21.25,138.899z"/>
		<path fill="#232034" d="M21.51,138.899c0,2.42,0,4.84,0,7.26c0.21,0,0.43,0,0.65,0c0.3,0,0.6,0,0.9,0c0.52,0,1.06,0,1.59,0
			c1.06,0,2.11,0,3.18,0c0.14,0,0.28,0,0.42,0c0-2.42,0-4.84,0-7.26C25.99,138.899,23.76,138.899,21.51,138.899z"/>
		<path fill="#232034" d="M28.25,166.899c0,0.09,0,0.17,0,0.26c0.09,0,0.17,0,0.26,0c0-0.09,0-0.17,0-0.26
			C28.42,166.899,28.34,166.899,28.25,166.899z"/>
		<path fill="#232034" d="M28.25,152.899c0,3.22,0,5.55,0,7c2.42,0,4.83,0,7.26,0c0-2.33,0-4.67,0-7
			C33.08,152.899,30.67,152.899,28.25,152.899z"/>
		<path fill="#232034" d="M28.25,138.899c0,2.42,0,4.84,0,7.26c0.09,0,0.17,0,0.26,0c0-2.42,0-4.84,0-7.26
			C28.42,138.899,28.34,138.899,28.25,138.899z"/>
		<path fill="#232034" d="M28.25,160.159c0,2.25,0,4.49,0,6.74c0.09,0,0.17,0,0.26,0c0,0.09,0,0.17,0,0.26c0.21,0,0.43,0,0.65,0
			c0.3,0,0.6,0,0.9,0c0.52,0,1.06,0,1.59,0c1.06,0,2.11,0,3.18,0c0.14,0,0.28,0,0.42,0c0-0.09,0-0.17,0-0.26c0.09,0,0.17,0,0.26,0
			c0-2.25,0-4.49,0-6.74c-0.23,0-0.45,0-0.68,0c-1.07,0-2.12,0-3.18,0c-0.53,0-1.07,0-1.59,0c-0.3,0-0.6,0-0.9,0
			C28.85,160.159,28.55,160.159,28.25,160.159z"/>
		<path fill="#232034" d="M28.51,138.899c0,2.42,0,4.84,0,7.26c0.21,0,0.43,0,0.65,0c0.3,0,0.6,0,0.9,0c0.52,0,1.06,0,1.59,0
			c1.06,0,2.11,0,3.18,0c0.14,0,0.28,0,0.42,0c0-2.42,0-4.84,0-7.26C32.99,138.899,30.76,138.899,28.51,138.899z"/>
		<path fill="#232034" d="M31.65,160.159c1.06,0,2.11,0,3.18,0c0.23,0,0.45,0,0.68,0c0-0.09,0-0.17,0-0.26c-2.43,0-4.84,0-7.26,0
			c0,0.09,0,0.18,0,0.26c0.3,0,0.6,0,0.91,0c0.3,0,0.6,0,0.9,0C30.58,160.159,31.12,160.159,31.65,160.159z"/>
		<path fill="#232034" d="M35.25,167.159c0,2.33,0,4.67,0,7c0.3,0,0.6,0,0.91,0c0.3,0,0.6,0,0.9,0c0.52,0,1.06,0,1.59,0
			c1.06,0,2.11,0,3.18,0c0.23,0,0.45,0,0.68,0c0-2.33,0-4.67,0-7c-0.09,0-0.17,0-0.26,0c0-0.09,0-0.17,0-0.26c-2.26,0-4.49,0-6.74,0
			c0,0.09,0,0.17,0,0.26C35.42,167.159,35.34,167.159,35.25,167.159z"/>
		<path fill="#232034" d="M35.25,166.899c0,0.09,0,0.17,0,0.26c0.09,0,0.17,0,0.26,0c0-0.09,0-0.17,0-0.26
			C35.42,166.899,35.34,166.899,35.25,166.899z"/>
		<path fill="#232034" d="M35.25,138.899c0,2.42,0,4.84,0,7.26c0.09,0,0.17,0,0.26,0c0-2.42,0-4.84,0-7.26
			C35.42,138.899,35.34,138.899,35.25,138.899z"/>
		<path fill="#232034" d="M35.51,138.899c0,2.42,0,4.84,0,7.26c0.21,0,0.43,0,0.65,0c0.3,0,0.6,0,0.9,0c0.52,0,1.06,0,1.59,0
			c1.06,0,2.11,0,3.18,0c0.14,0,0.28,0,0.42,0c0-0.09,0-0.17,0-0.26c0.09,0,0.17,0,0.26,0c0-2.33,0-4.67,0-7
			C40.17,138.899,37.84,138.899,35.51,138.899z"/>
		<path fill="#232034" d="M42.25,166.899c0,0.09,0,0.17,0,0.26c0.09,0,0.17,0,0.26,0c0-0.09,0-0.17,0-0.26
			C42.42,166.899,42.34,166.899,42.25,166.899z"/>
		<path fill="#232034" d="M42.25,146.159c0,2.25,0,4.49,0,6.74c2.42,0,4.83,0,7.26,0c0-2.33,0-4.67,0-7c-2.34,0-4.67,0-7,0
			c0,0.09,0,0.17,0,0.26C42.42,146.159,42.34,146.159,42.25,146.159z"/>
		<path fill="#232034" d="M42.25,145.899c0,0.09,0,0.17,0,0.26c0.09,0,0.17,0,0.26,0c0-0.09,0-0.17,0-0.26
			C42.42,145.899,42.34,145.899,42.25,145.899z"/>
		<path fill="#232034" d="M42.25,153.159c0,2.25,0,4.49,0,6.74c2.42,0,4.83,0,7.26,0c0-2.25,0-4.49,0-6.74c-0.23,0-0.45,0-0.68,0
			c-1.07,0-2.12,0-3.18,0c-0.53,0-1.07,0-1.59,0c-0.3,0-0.6,0-0.9,0C42.85,153.159,42.55,153.159,42.25,153.159z"/>
		<path fill="#232034" d="M42.25,160.159c0,2.25,0,4.49,0,6.74c0.09,0,0.17,0,0.26,0c0,0.09,0,0.17,0,0.26c0.21,0,0.43,0,0.65,0
			c0.3,0,0.6,0,0.9,0c0.52,0,1.06,0,1.59,0c1.06,0,2.11,0,3.18,0c0.23,0,0.45,0,0.68,0c0-2.33,0-4.67,0-7c-0.23,0-0.45,0-0.68,0
			c-1.07,0-2.12,0-3.18,0c-0.53,0-1.07,0-1.59,0c-0.3,0-0.6,0-0.9,0C42.85,160.159,42.55,160.159,42.25,160.159z"/>
		<path fill="#232034" d="M49.51,159.899c-2.43,0-4.84,0-7.26,0c0,0.09,0,0.17,0,0.26c0.3,0,0.6,0,0.91,0c0.3,0,0.6,0,0.9,0
			c0.52,0,1.06,0,1.59,0c1.06,0,2.11,0,3.18,0c0.23,0,0.45,0,0.68,0C49.51,160.069,49.51,159.989,49.51,159.899z"/>
		<path fill="#232034" d="M49.51,152.899c-2.43,0-4.84,0-7.26,0c0,0.09,0,0.17,0,0.26c0.3,0,0.6,0,0.91,0c0.3,0,0.6,0,0.9,0
			c0.52,0,1.06,0,1.59,0c1.06,0,2.11,0,3.18,0c0.23,0,0.45,0,0.68,0C49.51,153.069,49.51,152.989,49.51,152.899z"/>
	</g>
	<g>
	</g>
</g>
<path fill="#FFFFFF" d="M72.28,72.819c0,2.42,0,4.839,0,7.26c2.419,0,4.839,0,7.259,0c0-2.421,0-4.84,0-7.26
	C77.119,72.819,74.699,72.819,72.28,72.819z"/>
<path fill="#010101" d="M72.28,65.561c0,2.42,0,4.84,0,7.259c2.419,0,4.839,0,7.259,0c0,2.42,0,4.839,0,7.26c2.407,0,4.827,0,7.26,0
	c0-2.421,0-4.84,0-7.26c2.42,0,4.84,0,7.259,0c0-2.419,0-4.839,0-7.259c-3.63,0-7.259,0-10.901,0
	C79.539,65.561,75.91,65.561,72.28,65.561z"/>
</svg>
