<?xml version="1.0" encoding="utf-8"?>
<!-- Generator: Adobe Illustrator 15.0.0, SVG Export Plug-In  -->
<!DOCTYPE svg PUBLIC "-//W3C//DTD SVG 1.1//EN" "http://www.w3.org/Graphics/SVG/1.1/DTD/svg11.dtd" [
	<!ENTITY ns_flows "http://ns.adobe.com/Flows/1.0/">
]>
<svg version="1.1"
	 xmlns="http://www.w3.org/2000/svg" xmlns:xlink="http://www.w3.org/1999/xlink" xmlns:a="http://ns.adobe.com/AdobeSVGViewerExtensions/3.0/"
	 x="0px" y="0px" width="300px" height="300px" viewBox="-55.728 -49.259 300 300" enable-background="new -55.728 -49.259 300 300"
	 xml:space="preserve">
<defs>
</defs>
<path fill="#73CEE0" d="M0,80.079c0,4.84,0,9.68,0,14.519c2.407,0,4.84,0,7.259,0c0,4.84,0,9.68,0,14.519c2.42,0,4.84,0,7.26,0
	c0,0.228,0,0.454,0,0.681c0,0.454,0,0.908,0,1.361c0,0.529,0,1.059,0,1.588c0,0.454,0,0.907,0,1.361c0,0.227,0,0.454,0,0.681
	c0,0.303,0,0.604,0,0.907c0,0.228,0,0.453,0,0.681c2.407,0,4.84,0,7.26,0c0,2.42,0,4.84,0,7.259c2.42,0,4.84,0,7.259,0
	c0,2.42,0,4.84,0,7.26c2.407,0,4.839,0,7.26,0c0-2.42,0-4.84,0-7.26c2.419,0,4.839,0,7.259,0c0-2.419,0-4.839,0-7.259
	c-4.84,0-9.68,0-14.519,0c0-2.42,0-4.839,0-7.26c-2.419,0-4.839,0-7.259,0c0-4.839,0-9.679,0-14.519c-2.42,0-4.853,0-7.26,0
	c0-4.839,0-9.679,0-14.519c2.407,0,4.84,0,7.26,0c0-2.42,0-4.839,0-7.259c2.42,0,4.84,0,7.259,0c0-6.125,0-12.25,0-18.375
	c0-0.227,0-0.454,0-0.681c0-0.151,0-0.302,0-0.454c0-0.227,0-0.453,0-0.681c0-0.151,0-0.303,0-0.453c0-0.756,0-1.513,0-2.269
	c0-0.227,0-0.454,0-0.681c0-0.151,0-0.302,0-0.454c0-0.227,0-0.454,0-0.681c0-0.151,0-0.302,0-0.454c0-0.756,0-1.512,0-2.268
	c0-1.513,0-3.025,0-4.537c0-1.513,0-3.024,0-4.537c2.407,0,4.839,0,7.26,0c0-2.42,0-4.839,0-7.26c4.839,0,9.666,0,14.519,0
	c0-2.42,0-4.839,0-7.259c0.227,0,0.453,0,0.68,0c1.74,0,3.479,0,5.219,0c0.453,0,0.906,0,1.36,0c0.228,0,0.441,0,0.681,0
	c0.151,0,0.303,0,0.441,0c0.844,0,1.676,0,2.495,0c1.752,0,3.491,0,5.23,0c0.44,0,0.907,0,1.36,0c0.227,0,0.454,0,0.682,0
	c0.15,0,0.289,0,0.453,0c0.832,0,1.65,0,2.496,0c0.227,0,0.44,0,0.68,0c0-2.42,0-4.839,0-7.26c0.228,0,0.441,0,0.681,0
	c1.815,0,3.63,0,5.433,0c1.752,0,3.49,0,5.229,0c1.728,0,3.478,0,5.218,0c0.453,0,0.895,0,1.361,0c0.227,0,0.453,0,0.68,0
	c0.228,0,0.455,0,0.682,0s0.453,0,0.668,0c0.239,0,0.467,0,0.68,0c0.391,0,0.769,0,1.147,0c0.063,0,0.151,0,0.227,0
	c0,2.42,0,4.84,0,7.26c4.827,0,9.679,0,14.519,0c0-2.42,0-4.839,0-7.26c-2.42,0-4.84,0-7.259,0c0-2.42,0-4.839,0-7.259
	c-2.433,0-4.853,0-7.26,0c0-0.227,0-0.454,0-0.681c0-1.966,0-3.932,0-5.898c0-0.227,0-0.454,0-0.68c-1.21,0-2.419,0-3.63,0
	c-1.209,0-2.42,0-3.629,0c-1.21,0-2.42,0-3.643,0c-1.21,0-2.407,0-3.617,0s-2.42,0-3.629,0c-1.211,0-2.42,0-3.63,0s-2.421,0-3.63,0
	c-0.617,0-1.223,0-1.828,0c-0.68,0-1.348,0-2.028,0c0,2.419,0,4.839,0,7.259c-2.433,0-4.84,0-7.26,0c0,2.42,0,4.839,0,7.259
	c-0.228,0-0.454,0-0.681,0c-4.613,0-9.225,0-13.838,0c0,2.42,0,4.84,0,7.26c-0.164,0-0.303,0-0.453,0c-1.739,0-3.491,0-5.219,0
	c-1.814,0-3.629,0-5.443,0c-1.74,0-3.491,0-5.219,0c-1.814,0-3.629,0-5.443,0c0,4.839,0,9.679,0,14.519c-2.42,0-4.853,0-7.26,0
	c0,3.629,0,7.259,0,10.889c0,3.705,0,7.41,0,11.115c2.407,0,4.84,0,7.26,0c0,2.42,0,4.839,0,7.259c-2.42,0-4.853,0-7.26,0
	c0,2.42,0,4.84,0,7.26c-0.227,0-0.453,0-0.693,0c-0.971,0-1.966,0-2.936,0c-0.24,0-0.454,0-0.682,0c-0.239,0-0.453,0-0.68,0
	c-0.529,0-1.059,0-1.588,0c-0.228,0-0.467,0-0.682,0c0,2.419,0,4.839,0,7.259c-0.227,0-0.453,0-0.68,0c-0.228,0-0.455,0-0.681,0
	c-0.228,0-0.454,0-0.681,0c-0.529,0-1.059,0-1.588,0c-0.227,0-0.454,0-0.681,0c-0.228,0-0.466,0-0.681,0c-0.227,0-0.467,0-0.681,0
	c-0.303,0-0.604,0-0.907,0C0.453,80.079,0.228,80.079,0,80.079z"/>
<path fill="#98D8DF" d="M29.037,142.009c0,3.63,0,7.26,0,10.89c2.407,0,4.839,0,7.26,0c0,2.42,0,4.839,0,7.259
	c0.907,0,1.814,0,2.71,0c0.466,0,0.92,0,1.373,0c0.227,0,0.453,0,0.681,0s0.44,0,0.681,0c0.441,0,0.907,0,1.361,0
	c0.227,0,0.453,0,0.68,0c0.215,0,0.454,0,0.682,0c0.453,0,0.906,0,1.36,0c0.228,0,0.454,0,0.681,0s0.454,0,0.668,0
	c0.467,0,0.92,0,1.373,0c0.228,0,0.454,0,0.682,0c0.227,0,0.441,0,0.68,0c0.441,0,0.908,0,1.361,0c0.227,0,0.454,0,0.682,0
	c0.226,0,0.453,0,0.68,0c0.453,0,0.895,0,1.361,0c0.227,0,0.453,0,0.68,0c0.228,0,0.455,0,0.669,0c0.92,0,1.827,0,2.734,0
	c0-2.42,0-4.839,0-7.259c0-0.681,0-1.361,0-2.042c0-0.604,0-1.21,0-1.814c0-1.21,0-2.42,0-3.63c0-2.42,0-4.84,0-7.26
	c2.42,0,4.827,0,7.26,0c0-2.419,0-4.839,0-7.259c-2.433,0-4.84,0-7.26,0c-2.419,0-4.839,0-7.259,0c0-2.42,0-4.84,0-7.26
	c-2.433,0-4.853,0-7.26,0c-2.42,0-4.84,0-7.259,0c0,2.42,0,4.84,0,7.26c-2.421,0-4.853,0-7.26,0c0,1.891,0,3.781,0,5.672
	C29.037,138.38,29.037,140.195,29.037,142.009z"/>
<path fill="#98D8DF" d="M29.037,53.764c0,0.227,0,0.454,0,0.681c0,6.125,0,12.25,0,18.375c-2.419,0-4.839,0-7.259,0
	c0,2.419,0,4.839,0,7.259c-2.42,0-4.853,0-7.26,0c0,4.84,0,9.68,0,14.519c2.407,0,4.84,0,7.26,0c0,4.84,0,9.68,0,14.519
	c2.42,0,4.84,0,7.259,0c0,2.421,0,4.84,0,7.26c4.839,0,9.679,0,14.519,0c0-7.26,0-14.519,0-21.778c0-2.42,0-4.839,0-7.259
	c2.407,0,4.827,0,7.26,0c0-2.42,0-4.84,0-7.26s0-4.839,0-7.259c2.42,0,4.84,0,7.259,0c2.42,0,4.827,0,7.26,0c0-2.42,0-4.839,0-7.26
	c-4.84,0-9.679,0-14.519,0c0-4.839,0-9.679,0-14.518c3.629,0,7.259,0,10.876,0c3.643,0,7.272,0,10.901,0c0,2.419,0,4.839,0,7.259
	c-2.42,0-4.839,0-7.259,0c0,2.42,0,4.839,0,7.259c2.42,0,4.839,0,7.259,0c4.915,0,9.818,0,14.746,0c4.84,0,9.666,0,14.519,0
	c0-4.839,0-9.679,0-14.518c2.419,0,4.839,0,7.259,0c0-1.21,0-2.42,0-3.63c0-1.209,0-2.419,0-3.629c0-0.076,0-0.151,0-0.227
	c9.68,0,19.346,0,29.037,0c0,2.496,0,4.991,0,7.487c-4.839,0-9.691,0-14.519,0c0,2.419,0,4.839,0,7.259c2.42,0,4.827,0,7.259,0
	c0,0.227,0,0.454,0,0.681c0,1.815,0,3.629,0,5.444c0,1.74,0,3.479,0,5.218c0,1.739,0,3.478,0,5.218c0,1.739,0,3.478,0,5.217
	c4.84,0,9.68,0,14.519,0c0,2.42,0,4.84,0,7.26c1.815,0,3.631,0,5.445,0s3.629,0,5.444,0c3.629,0,7.26,0,10.889,0
	c0,2.42,0,4.839,0,7.259c0.681,0,1.361,0,2.042,0c0.605,0,1.21,0,1.814,0c1.21,0,2.42,0,3.63,0c2.42,0,4.827,0,7.259,0
	c0-7.259,0-14.519,0-21.777c-2.432,0-4.839,0-7.259,0c0-2.42,0-4.839,0-7.26c-2.42,0-4.839,0-7.259,0c-1.211,0-2.433,0-3.643,0
	c-0.605,0-1.197,0-1.803,0c-0.302,0-0.604,0-0.907,0s-0.604,0-0.907,0c-0.076,0-0.164,0-0.228,0c0-4.839,0-9.679,0-14.518
	c2.421,0,4.841,0,7.26,0c0-3.706,0-7.411,0-11.116c0-3.629,0-7.259,0-10.889c-4.839,0-9.691,0-14.519,0c0-2.42,0-4.839,0-7.259
	c-0.239,0-0.453,0-0.681,0c-0.378,0-0.756,0-1.134,0c-0.454,0-0.92,0-1.361,0c-0.151,0-0.303,0-0.453,0c-0.228,0-0.454,0-0.681,0
	c-0.454,0-0.908,0-1.361,0c-1.739,0-3.479,0-5.218,0c-0.151,0-0.303,0-0.454,0c-0.239,0-0.453,0-0.681,0c-0.453,0-0.907,0-1.361,0
	c-0.151,0-0.302,0-0.453,0c-0.239,0-0.453,0-0.681,0c-0.453,0-0.907,0-1.361,0c-1.739,0-3.478,0-5.218,0c-0.227,0-0.453,0-0.681,0
	c0,2.419,0,4.839,0,7.259c-1.827,0-3.642,0-5.444,0c-1.814,0-3.629,0-5.444,0c-1.814,0-3.629,0-5.444,0c-1.827,0-3.63,0-5.444,0
	c0-2.42,0-4.839,0-7.259c-4.84,0-9.691,0-14.519,0c0-2.42,0-4.839,0-7.26c-0.076,0-0.164,0-0.227,0c-0.378,0-0.756,0-1.147,0
	c-0.213,0-0.44,0-0.68,0c-0.215,0-0.441,0-0.668,0s-0.454,0-0.682,0c-0.227,0-0.453,0-0.68,0c-0.467,0-0.908,0-1.361,0
	c-1.74,0-3.49,0-5.218,0c-1.739,0-3.478,0-5.229,0c-1.803,0-3.617,0-5.433,0c-0.239,0-0.453,0-0.681,0c0,2.42,0,4.84,0,7.26
	c-0.239,0-0.453,0-0.68,0c-0.846,0-1.664,0-2.496,0c-0.164,0-0.303,0-0.453,0c-0.228,0-0.455,0-0.682,0c-0.453,0-0.92,0-1.36,0
	c-1.739,0-3.479,0-5.23,0c-0.819,0-1.651,0-2.495,0c-0.139,0-0.29,0-0.441,0c-0.239,0-0.453,0-0.681,0c-0.454,0-0.907,0-1.36,0
	c-1.74,0-3.479,0-5.219,0c-0.227,0-0.453,0-0.68,0c0,2.419,0,4.839,0,7.259c-4.853,0-9.68,0-14.519,0c0,2.42,0,4.84,0,7.26
	c-2.421,0-4.853,0-7.26,0c0,1.513,0,3.024,0,4.537c0,1.512,0,3.024,0,4.537c0,0.756,0,1.512,0,2.268c0,0.152,0,0.302,0,0.454
	c0,0.227,0,0.454,0,0.681c0,0.151,0,0.303,0,0.454c0,0.227,0,0.454,0,0.681c0,0.756,0,1.513,0,2.269c0,0.15,0,0.302,0,0.453
	c0,0.228,0,0.454,0,0.681C29.037,53.461,29.037,53.612,29.037,53.764z"/>
<path fill="#73CEE0" d="M58.074,160.158c-0.907,0-1.814,0-2.734,0c-0.214,0-0.441,0-0.669,0c-0.227,0-0.453,0-0.68,0
	c-0.467,0-0.908,0-1.361,0c-0.227,0-0.454,0-0.68,0c-0.228,0-0.455,0-0.682,0c-0.453,0-0.92,0-1.361,0c-0.238,0-0.453,0-0.68,0
	c-0.228,0-0.454,0-0.682,0c-0.453,0-0.906,0-1.373,0c-0.214,0-0.441,0-0.668,0s-0.453,0-0.681,0c-0.454,0-0.907,0-1.36,0
	c-0.228,0-0.467,0-0.682,0c-0.227,0-0.453,0-0.68,0c-0.454,0-0.92,0-1.361,0c-0.24,0-0.453,0-0.681,0s-0.454,0-0.681,0
	c-0.453,0-0.907,0-1.373,0c-0.896,0-1.803,0-2.71,0c0-2.42,0-4.839,0-7.259c-2.421,0-4.853,0-7.26,0c0-3.63,0-7.26,0-10.89
	c0-1.814,0-3.629,0-5.443c0-1.891,0-3.781,0-5.672c-2.419,0-4.839,0-7.259,0c0,2.42,0,4.84,0,7.259c-2.42,0-4.853,0-7.26,0
	c0,2.42,0,4.84,0,7.26c0,1.21,0,2.42,0,3.63c0,0.604,0,1.21,0,1.814c0,0.681,0,1.361,0,2.042c2.407,0,4.84,0,7.26,0
	c0,0.227,0,0.453,0,0.681c0,4.612,0,9.225,0,13.838c4.84,0,9.666,0,14.519,0c0,2.42,0,4.839,0,7.259c0.214,0,0.454,0,0.681,0
	s0.453,0,0.68,0c0.454,0,0.908,0,1.35,0c0.238,0,0.466,0,0.692,0c0.228,0,0.454,0,0.681,0c0.453,0,0.908,0,1.361,0
	c0.227,0,0.441,0,0.68,0c0.228,0,0.454,0,0.682,0c0.453,0,0.895,0,1.361,0c0.214,0,0.453,0,0.68,0s0.454,0,0.681,0
	c0.454,0,0.907,0,1.349,0c0.239,0,0.467,0,0.681,0c0.239,0,0.466,0,0.692,0c0.454,0,0.908,0,1.361,0c0.228,0,0.441,0,0.682,0
	c0.227,0,0.453,0,0.68,0c0.454,0,0.907,0,1.361,0c0.215,0,0.453,0,0.681,0c0.214,0,0.454,0,0.681,0c0.453,0,0.907,0,1.349,0
	c0.239,0,0.466,0,0.681,0c0.239,0,0.467,0,0.693,0c0.453,0,0.906,0,1.36,0c0-2.42,0-4.839,0-7.259c0.228,0,0.441,0,0.681,0
	c1.967,0,3.933,0,5.898,0c0.215,0,0.453,0,0.681,0c0-2.42,0-4.839,0-7.26c0-2.42,0-4.839,0-7.259c-2.433,0-4.84,0-7.26,0
	C58.074,155.319,58.074,157.738,58.074,160.158z"/>
<path fill="#232034" d="M43.556,116.375c0,2.42,0,4.84,0,7.259c2.407,0,4.827,0,7.26,0c0-2.419,0-4.839,0-7.259s0-4.839,0-7.26
	c0-2.42,0-4.839,0-7.259s0-4.84,0-7.26c-2.433,0-4.853,0-7.26,0C43.556,101.857,43.556,109.116,43.556,116.375z"/>
<path fill="#D6EEF1" d="M43.556,87.338c0,2.42,0,4.839,0,7.259c2.407,0,4.827,0,7.26,0c0-2.42,0-4.839,0-7.259
	C48.383,87.338,45.963,87.338,43.556,87.338z"/>
<path fill="#232034" d="M50.815,123.634c0,2.42,0,4.84,0,7.26c2.42,0,4.84,0,7.259,0c0-2.42,0-4.84,0-7.26
	C55.655,123.634,53.235,123.634,50.815,123.634z"/>
<path fill="#5E5F5F" d="M50.815,116.375c0,2.42,0,4.84,0,7.259c2.42,0,4.84,0,7.259,0c2.42,0,4.827,0,7.26,0
	c0-2.419,0-4.839,0-7.259c-2.433,0-4.84,0-7.26,0C55.655,116.375,53.235,116.375,50.815,116.375z"/>
<path fill="#FFFFFF" d="M50.815,109.116c0,2.421,0,4.84,0,7.26c2.42,0,4.84,0,7.259,0c0-2.42,0-4.839,0-7.26
	C55.655,109.116,53.235,109.116,50.815,109.116z"/>
<path fill="#010101" d="M50.815,101.857c0,2.42,0,4.839,0,7.259c2.42,0,4.84,0,7.259,0c0,2.421,0,4.84,0,7.26c2.42,0,4.827,0,7.26,0
	c0-4.839,0-9.68,0-14.519c-2.433,0-4.84,0-7.26,0C55.655,101.857,53.235,101.857,50.815,101.857z"/>
<path fill="#353635" d="M50.815,94.597c0,2.42,0,4.84,0,7.26c2.42,0,4.84,0,7.259,0c0-2.42,0-4.84,0-7.26
	C55.655,94.597,53.235,94.597,50.815,94.597z"/>
<path fill="#232034" d="M50.815,87.338c0,2.42,0,4.839,0,7.259c2.42,0,4.84,0,7.259,0c0-2.42,0-4.839,0-7.259s0-4.84,0-7.26
	c-2.419,0-4.839,0-7.259,0C50.815,82.499,50.815,84.918,50.815,87.338z"/>
<path fill="#D6EEF1" d="M50.815,72.82c0,2.419,0,4.839,0,7.259c2.42,0,4.84,0,7.259,0c0-2.42,0-4.839,0-7.259
	C55.655,72.82,53.235,72.82,50.815,72.82z"/>
<path fill="#D6EEF1" d="M50.815,51.042c0,4.839,0,9.679,0,14.518c4.84,0,9.679,0,14.519,0c0-2.42,0-4.839,0-7.259
	c2.42,0,4.839,0,7.259,0c0-2.419,0-4.839,0-7.259c-3.629,0-7.259,0-10.901,0C58.074,51.042,54.444,51.042,50.815,51.042z"/>
<path fill="#232034" d="M58.074,150.857c0,0.681,0,1.361,0,2.042c2.42,0,4.827,0,7.26,0c0-2.42,0-4.84,0-7.26c0-1.21,0-2.42,0-3.63
	c0-0.604,0-1.209,0-1.814c0-0.681,0-1.361,0-2.042c-2.433,0-4.84,0-7.26,0c0,2.42,0,4.84,0,7.26c0,1.21,0,2.42,0,3.63
	C58.074,149.647,58.074,150.252,58.074,150.857z"/>
<path fill="#010101" d="M58.074,123.634c0,2.42,0,4.84,0,7.26c2.42,0,4.827,0,7.26,0c0-2.42,0-4.84,0-7.26
	C62.901,123.634,60.494,123.634,58.074,123.634z"/>
<path fill="#353635" d="M58.074,80.079c0,2.42,0,4.84,0,7.26c2.42,0,4.827,0,7.26,0c0-2.42,0-4.84,0-7.26
	C62.901,80.079,60.494,80.079,58.074,80.079z"/>
<path fill="#232034" d="M58.074,72.82c0,2.419,0,4.839,0,7.259c2.42,0,4.827,0,7.26,0c2.42,0,4.839,0,7.259,0
	c0-2.42,0-4.839,0-7.259c-2.42,0-4.839,0-7.259,0C62.901,72.82,60.494,72.82,58.074,72.82z"/>
<path fill="#232034" d="M65.334,152.899c0,2.42,0,4.839,0,7.259c2.42,0,4.839,0,7.259,0c0-2.42,0-4.839,0-7.259
	C70.173,152.899,67.754,152.899,65.334,152.899z"/>
<path fill="#5E5F5F" d="M65.334,145.639c0,2.42,0,4.84,0,7.26c2.42,0,4.839,0,7.259,0c0-2.42,0-4.84,0-7.26
	C70.173,145.639,67.754,145.639,65.334,145.639z"/>
<path fill="#010101" d="M65.334,145.639c2.42,0,4.839,0,7.259,0c0,2.42,0,4.84,0,7.26c0.303,0,0.605,0,0.908,0
	c0.227,0,0.453,0,0.68,0c0.454,0,0.908,0,1.35,0c0.466,0,0.92,0,1.373,0c0.227,0,0.453,0,0.68,0c0.229,0,0.441,0,0.682,0
	c0.441,0,0.907,0,1.361,0c0.227,0,0.453,0,0.68,0s0.454,0,0.682,0c0.214,0,0.453,0,0.68,0c0.215,0,0.454,0,0.682,0
	c0.226,0,0.453,0,0.68,0s0.453,0,0.668,0c0.467,0,0.92,0,1.373,0c0.228,0,0.454,0,0.682,0c0.227,0,0.453,0,0.68,0
	c0.228,0,0.441,0,0.682,0c0.227,0,0.44,0,0.68,0c0.228,0,0.453,0,0.681,0c0.227,0,0.454,0,0.681,0c0.453,0,0.895,0,1.361,0
	c0.227,0,0.453,0,0.68,0c0.228,0,0.455,0,0.682,0c0.907,0,1.814,0,2.722,0c0-2.42,0-4.84,0-7.26c4.827,0,9.679,0,14.519,0
	c0-0.681,0-1.36,0-2.041c0-0.605,0-1.21,0-1.814c0-1.211,0-2.421,0-3.631c-2.42,0-4.84,0-7.259,0c0-2.419,0-4.839,0-7.259
	c-2.433,0-4.853,0-7.26,0c0-2.42,0-4.84,0-7.26c-2.192,0-4.386,0-6.578,0c-0.228,0-0.467,0-0.681,0c0,2.42,0,4.84,0,7.26
	c-1.21,0-2.42,0-3.643,0c-0.605,0-1.21,0-1.814,0c-0.681,0-1.35,0-2.029,0c0-2.42,0-4.84,0-7.26c-2.433,0-4.84,0-7.26,0
	c0,2.42,0,4.84,0,7.26s0,4.84,0,7.259c-2.42,0-4.839,0-7.259,0c0,0.681,0,1.361,0,2.042c0,0.605,0,1.21,0,1.814
	C65.334,143.219,65.334,144.429,65.334,145.639z"/>
<path fill="#232034" d="M65.334,130.894c0,2.42,0,4.84,0,7.259c2.42,0,4.839,0,7.259,0c0-2.419,0-4.839,0-7.259
	C70.173,130.894,67.754,130.894,65.334,130.894z"/>
<path fill="#5E5F5F" d="M65.334,123.634c0,2.42,0,4.84,0,7.26c2.42,0,4.839,0,7.259,0c0-2.42,0-4.84,0-7.26
	C70.173,123.634,67.754,123.634,65.334,123.634z"/>
<path fill="#010101" d="M65.334,116.375c0,2.42,0,4.84,0,7.259c2.42,0,4.839,0,7.259,0c0-2.419,0-4.839,0-7.259
	C70.173,116.375,67.754,116.375,65.334,116.375z"/>
<path fill="#D6EEF1" d="M65.334,65.56c0,2.42,0,4.84,0,7.26c2.42,0,4.839,0,7.259,0c0-2.42,0-4.839,0-7.26
	C70.173,65.56,67.754,65.56,65.334,65.56z"/>
<path fill="#353635" d="M72.593,108.435c0,0.228,0,0.454,0,0.681c2.42,0,4.827,0,7.26,0c0-2.42,0-4.839,0-7.259
	c-2.433,0-4.84,0-7.26,0c0,0.302,0,0.604,0,0.907s0,0.604,0,0.907c0,0.529,0,1.059,0,1.588
	C72.593,106.319,72.593,107.376,72.593,108.435z"/>
<path fill="#353635" d="M72.593,72.82c0,2.419,0,4.839,0,7.259c2.42,0,4.827,0,7.26,0c0-2.42,0-4.839,0-7.259
	C77.42,72.82,75.013,72.82,72.593,72.82z"/>
<path fill="#232034" d="M72.593,65.56c0,2.42,0,4.84,0,7.26c2.42,0,4.827,0,7.26,0c0.68,0,1.349,0,2.029,0c0.604,0,1.209,0,1.814,0
	c1.223,0,2.433,0,3.643,0c2.42,0,4.84,0,7.259,0c4.827,0,9.679,0,14.519,0c2.42,0,4.827,0,7.26,0c0-2.42,0-4.839,0-7.26
	c-4.84,0-9.68,0-14.519,0c-4.853,0-9.679,0-14.519,0C82.411,65.56,77.508,65.56,72.593,65.56z"/>
<path fill="#5E5F5F" d="M94.598,152.899c-0.907,0-1.814,0-2.722,0c-0.227,0-0.454,0-0.682,0c-0.227,0-0.453,0-0.68,0
	c-0.467,0-0.908,0-1.361,0c-0.227,0-0.454,0-0.681,0c-0.228,0-0.453,0-0.681,0c-0.239,0-0.453,0-0.68,0c-0.24,0-0.454,0-0.682,0
	c-0.227,0-0.453,0-0.68,0c-0.228,0-0.454,0-0.682,0c-0.453,0-0.906,0-1.373,0c-0.215,0-0.441,0-0.668,0s-0.454,0-0.68,0
	c-0.228,0-0.467,0-0.682,0c-0.227,0-0.466,0-0.68,0c-0.228,0-0.455,0-0.682,0s-0.453,0-0.68,0c-0.454,0-0.92,0-1.361,0
	c-0.24,0-0.453,0-0.682,0c-0.227,0-0.453,0-0.68,0c-0.453,0-0.907,0-1.373,0c-0.441,0-0.896,0-1.35,0c-0.227,0-0.453,0-0.68,0
	c-0.303,0-0.605,0-0.908,0c0,2.42,0,4.839,0,7.259c0.681,0,1.361,0,2.042,0c0.604,0,1.21,0,1.815,0c1.209,0,2.419,0,3.629,0
	s2.407,0,3.617,0c1.223,0,2.433,0,3.643,0c1.209,0,2.42,0,3.629,0c1.211,0,2.42,0,3.63,0s2.407,0,3.617,0s2.432,0,3.643,0
	c0-2.42,0-4.839,0-7.259c2.419,0,4.839,0,7.259,0c0-2.42,0-4.84,0-7.26c-4.84,0-9.691,0-14.519,0
	C94.598,148.059,94.598,150.479,94.598,152.899z"/>
<path fill="#232034" d="M94.598,160.158c-1.21,0-2.419,0-3.63,0c-1.209,0-2.42,0-3.629,0c-1.21,0-2.42,0-3.643,0
	c-1.21,0-2.407,0-3.617,0s-2.42,0-3.629,0c-0.605,0-1.211,0-1.815,0c-0.681,0-1.361,0-2.042,0c0,2.421,0,4.84,0,7.26
	c2.42,0,4.827,0,7.26,0c0.982,0,1.953,0,2.949,0c0.453,0,0.895,0,1.361,0c0.214,0,0.453,0,0.68,0s0.454,0,0.681,0
	c0.454,0,0.907,0,1.349,0c0.24,0,0.467,0,0.681,0c0.239,0,0.467,0,0.692,0c0.454,0,0.908,0,1.361,0c0.228,0,0.441,0,0.682,0
	c0.227,0,0.453,0,0.68,0c0.454,0,0.908,0,1.361,0c0.215,0,0.454,0,0.682,0c0.213,0,0.453,0,0.68,0c0.454,0,0.907,0,1.349,0
	c0.239,0,0.466,0,0.681,0c0.239,0,0.466,0,0.692,0c0.454,0,0.908,0,1.361,0c0.228,0,0.441,0,0.681,0c0.227,0,0.441,0,0.681,0
	c0.907,0,1.814,0,2.723,0c0-2.42,0-4.839,0-7.26c-1.211,0-2.433,0-3.643,0S95.808,160.158,94.598,160.158z"/>
<path fill="#010101" d="M79.853,101.857c0,2.42,0,4.839,0,7.259c0.68,0,1.349,0,2.029,0c0.604,0,1.209,0,1.814,0
	c1.223,0,2.433,0,3.643,0c0,2.421,0,4.84,0,7.26c2.42,0,4.84,0,7.259,0c0-2.42,0-4.839,0-7.26c2.407,0,4.827,0,7.26,0
	c0-2.42,0-4.839,0-7.259c-1.815,0-3.643,0-5.445,0c-1.814,0-3.629,0-5.444,0c-1.814,0-3.629,0-5.444,0
	C83.633,101.857,81.743,101.857,79.853,101.857z"/>
<path fill="#5E5F5F" d="M87.339,72.82c-1.21,0-2.42,0-3.643,0c-0.605,0-1.21,0-1.814,0c-0.681,0-1.35,0-2.029,0
	c0,2.419,0,4.839,0,7.259c-2.433,0-4.84,0-7.26,0s-4.839,0-7.259,0c0,2.42,0,4.84,0,7.26c-2.433,0-4.84,0-7.26,0
	c0,2.42,0,4.839,0,7.259s0,4.84,0,7.26c2.42,0,4.827,0,7.26,0c0,4.839,0,9.68,0,14.519c2.42,0,4.839,0,7.259,0
	c0,2.42,0,4.84,0,7.259c2.42,0,4.827,0,7.26,0c0,2.42,0,4.84,0,7.26c0.68,0,1.349,0,2.029,0c0.604,0,1.209,0,1.814,0
	c1.223,0,2.433,0,3.643,0c0-2.42,0-4.84,0-7.26c0.214,0,0.453,0,0.681,0c2.192,0,4.386,0,6.578,0c0,2.42,0,4.84,0,7.26
	c2.407,0,4.827,0,7.26,0c0-1.814,0-3.63,0-5.444c0-1.815,0-3.63,0-5.444c0-1.815,0-3.63,0-5.444c0-1.815,0-3.631,0-5.445
	c-2.433,0-4.853,0-7.26,0c0,2.421,0,4.84,0,7.26c-2.419,0-4.839,0-7.259,0c-0.681,0-1.361,0-2.042,0c-0.604,0-1.21,0-1.815,0
	c-1.209,0-2.419,0-3.629,0c0-2.42,0-4.839,0-7.26c-2.433,0-4.84,0-7.26,0c0-0.227,0-0.453,0-0.681c0-1.059,0-2.116,0-3.176
	c0-0.529,0-1.059,0-1.588c0-0.303,0-0.604,0-0.907s0-0.605,0-0.907c2.42,0,4.827,0,7.26,0c1.891,0,3.78,0,5.671,0
	c1.815,0,3.63,0,5.444,0c1.815,0,3.63,0,5.444,0c1.803,0,3.63,0,5.445,0c0,2.42,0,4.839,0,7.259c2.419,0,4.839,0,7.259,0
	c0-2.42,0-4.839,0-7.259c4.827,0,9.68,0,14.519,0c0-2.42,0-4.84,0-7.26c-2.42,0-4.839,0-7.259,0c0-4.839,0-9.679,0-14.519
	c-2.433,0-4.84,0-7.26,0c0-2.42,0-4.839,0-7.259c-4.84,0-9.691,0-14.519,0C92.179,72.82,89.759,72.82,87.339,72.82z"/>
<path fill="#FFFFFF" d="M79.853,109.116c0,2.421,0,4.84,0,7.26c1.21,0,2.42,0,3.629,0c0.605,0,1.211,0,1.815,0
	c0.681,0,1.361,0,2.042,0c0-2.42,0-4.839,0-7.26c-1.21,0-2.42,0-3.643,0c-0.605,0-1.21,0-1.814,0
	C81.201,109.116,80.532,109.116,79.853,109.116z"/>
<path fill="#73CEE0" d="M95.039,167.417c-0.441,0-0.895,0-1.349,0c-0.227,0-0.467,0-0.68,0c-0.228,0-0.467,0-0.682,0
	c-0.453,0-0.907,0-1.361,0c-0.227,0-0.453,0-0.68,0c-0.24,0-0.454,0-0.682,0c-0.453,0-0.907,0-1.361,0c-0.226,0-0.453,0-0.692,0
	c-0.214,0-0.44,0-0.681,0c-0.441,0-0.895,0-1.349,0c-0.227,0-0.454,0-0.681,0s-0.466,0-0.68,0c-0.467,0-0.908,0-1.361,0
	c-0.996,0-1.967,0-2.949,0c0,2.42,0,4.839,0,7.259c4.915,0,9.83,0,14.745,0c0,2.42,0,4.84,0,7.26c2.407,0,4.827,0,7.26,0
	c0-4.84,0-9.68,0-14.519c-0.908,0-1.815,0-2.723,0c-0.239,0-0.454,0-0.681,0c-0.239,0-0.453,0-0.681,0c-0.453,0-0.907,0-1.361,0
	c-0.227,0-0.453,0-0.692,0C95.505,167.417,95.278,167.417,95.039,167.417z"/>
<path fill="#73CEE0" d="M101.857,181.936c0,2.42,0,4.84,0,7.259c2.419,0,4.839,0,7.259,0c0-2.419,0-4.839,0-7.259
	C106.696,181.936,104.276,181.936,101.857,181.936z"/>
<path fill="#232034" d="M101.857,152.899c0,2.42,0,4.839,0,7.259c4.839,0,9.679,0,14.519,0c0-2.42,0-4.839,0-7.259
	c-2.433,0-4.84,0-7.26,0S104.276,152.899,101.857,152.899z"/>
<path fill="#5E5F5F" d="M101.857,130.894c0,2.42,0,4.84,0,7.259c2.419,0,4.839,0,7.259,0c0-2.419,0-4.839,0-7.259
	C106.696,130.894,104.276,130.894,101.857,130.894z"/>
<path fill="#353635" d="M101.857,125.45c0,1.814,0,3.63,0,5.444c2.419,0,4.839,0,7.259,0c0-2.42,0-4.84,0-7.26
	c2.42,0,4.827,0,7.26,0c0-2.419,0-4.839,0-7.259c2.42,0,4.839,0,7.259,0c0-2.42,0-4.839,0-7.26c2.42,0,4.827,0,7.259,0
	c0-7.259,0-14.519,0-21.777c-2.432,0-4.839,0-7.259,0c0-2.42,0-4.84,0-7.26c-2.42,0-4.839,0-7.259,0c0,4.84,0,9.68,0,14.519
	c2.42,0,4.839,0,7.259,0c0,2.42,0,4.84,0,7.26c-4.839,0-9.691,0-14.519,0c0,2.42,0,4.839,0,7.259c-2.42,0-4.84,0-7.259,0
	c0,1.814,0,3.63,0,5.445c0,1.814,0,3.629,0,5.444C101.857,121.82,101.857,123.634,101.857,125.45z"/>
<path fill="#353635" d="M109.116,145.639c0,2.42,0,4.84,0,7.26c2.42,0,4.827,0,7.26,0c0-2.42,0-4.84,0-7.26
	C113.943,145.639,111.536,145.639,109.116,145.639z"/>
<path fill="#5E5F5F" d="M109.116,145.639c2.42,0,4.827,0,7.26,0c0-1.21,0-2.42,0-3.63c0-0.604,0-1.209,0-1.814
	c0-0.604,0-1.21,0-1.814c0-0.076,0-0.151,0-0.228c-2.433,0-4.84,0-7.26,0c0,1.21,0,2.42,0,3.631c0,0.604,0,1.209,0,1.814
	C109.116,144.279,109.116,144.958,109.116,145.639z"/>
<path fill="#232034" d="M109.116,130.894c0,2.42,0,4.84,0,7.259c2.42,0,4.827,0,7.26,0c0-2.419,0-4.839,0-7.259
	c2.42,0,4.839,0,7.259,0c0-2.42,0-4.84,0-7.26c2.42,0,4.827,0,7.259,0c0-2.419,0-4.839,0-7.259c2.421,0,4.84,0,7.26,0
	c0-4.839,0-9.68,0-14.519c0-4.84,0-9.68,0-14.519c-2.42,0-4.839,0-7.26,0c0,7.259,0,14.519,0,21.777c-2.432,0-4.839,0-7.259,0
	c0,2.421,0,4.84,0,7.26c-2.42,0-4.839,0-7.259,0c0,2.42,0,4.84,0,7.259c-2.433,0-4.84,0-7.26,0
	C109.116,126.054,109.116,128.474,109.116,130.894z"/>
<path fill="#353635" d="M109.116,72.82c0,2.419,0,4.839,0,7.259c2.42,0,4.827,0,7.26,0c0-2.42,0-4.839,0-7.259
	C113.943,72.82,111.536,72.82,109.116,72.82z"/>
<path fill="#D6EEF1" d="M109.116,47.412c0,1.21,0,2.42,0,3.63c-2.42,0-4.84,0-7.259,0c0,4.839,0,9.679,0,14.518
	c4.839,0,9.679,0,14.519,0c0,2.42,0,4.84,0,7.26c2.42,0,4.839,0,7.259,0c0,2.419,0,4.839,0,7.259c2.42,0,4.827,0,7.259,0
	c0-1.739,0-3.478,0-5.217c0-1.74,0-3.479,0-5.218c0-1.739,0-3.478,0-5.218c0-1.815,0-3.629,0-5.444c0-0.227,0-0.454,0-0.681
	c-2.432,0-4.839,0-7.259,0c0-2.419,0-4.839,0-7.259c4.827,0,9.68,0,14.519,0c0-2.496,0-4.991,0-7.487c-9.691,0-19.357,0-29.037,0
	c0,0.076,0,0.151,0,0.227C109.116,44.992,109.116,46.202,109.116,47.412z"/>
<path fill="#73CEE0" d="M109.797,21.778c-0.239,0-0.454,0-0.681,0c0,2.419,0,4.839,0,7.259c1.814,0,3.617,0,5.444,0
	c1.815,0,3.63,0,5.444,0c1.815,0,3.63,0,5.444,0c1.803,0,3.617,0,5.444,0c0-2.42,0-4.839,0-7.259c0.228,0,0.454,0,0.681,0
	c1.74,0,3.479,0,5.218,0c0.454,0,0.908,0,1.361,0c0.228,0,0.441,0,0.681,0c0.151,0,0.302,0,0.453,0c0.454,0,0.908,0,1.361,0
	c0.228,0,0.441,0,0.681,0c0.151,0,0.303,0,0.454,0c1.738,0,3.479,0,5.218,0c0.453,0,0.907,0,1.361,0c0.227,0,0.453,0,0.681,0
	c0.15,0,0.302,0,0.453,0c0.441,0,0.907,0,1.361,0c0.378,0,0.756,0,1.134,0c0.228,0,0.441,0,0.681,0c0,2.419,0,4.839,0,7.259
	c4.827,0,9.68,0,14.519,0c0-4.839,0-9.679,0-14.519c-2.419,0-4.839,0-7.26,0c0-0.227,0-0.454,0-0.68c0-1.966,0-3.932,0-5.898
	c0-0.227,0-0.454,0-0.681c-9.679,0-19.357,0-29.037,0c0,2.42,0,4.839,0,7.259c-0.227,0-0.453,0-0.68,0c-0.53,0-1.071,0-1.588,0
	c-0.605,0-1.21,0-1.815,0c-0.529,0-1.059,0-1.588,0c-0.605,0-1.21,0-1.827,0c-0.517,0-1.046,0-1.575,0c-0.605,0-1.21,0-1.815,0
	c-1.209,0-2.419,0-3.629,0c0,2.42,0,4.84,0,7.26c-0.151,0-0.303,0-0.467,0c-0.214,0-0.441,0-0.681,0c-0.214,0-0.441,0-0.668,0
	s-0.454,0-0.681,0c-0.303,0-0.605,0-0.907,0c-0.239,0-0.453,0-0.681,0c-0.303,0-0.604,0-0.907,0c-0.227,0-0.454,0-0.681,0
	C110.401,21.778,110.099,21.778,109.797,21.778z"/>
<path fill="#73CEE0" d="M140.876,189.195c-0.151,0-0.303,0-0.467,0c-0.214,0-0.441,0-0.668,0c-0.151,0-0.303,0-0.454,0
	c-0.226,0-0.453,0-0.692,0c-0.14,0-0.29,0-0.441,0c-0.239,0-0.453,0-0.681,0c-0.163,0-0.302,0-0.453,0c-0.228,0-0.454,0-0.681,0
	c-0.151,0-0.315,0-0.454,0c-0.227,0-0.466,0-0.681,0c-0.151,0-0.303,0-0.466,0c-0.215,0-0.441,0-0.669,0c-0.15,0-0.302,0-0.453,0
	c-0.227,0-0.453,0-0.693,0c-0.139,0-0.289,0-0.44,0c-0.239,0-0.454,0-0.681,0c-0.164,0-0.303,0-0.454,0c-0.227,0-0.454,0-0.681,0
	c-0.151,0-0.314,0-0.453,0c-0.228,0-0.467,0-0.681,0c-0.151,0-0.303,0-0.467,0c-0.214,0-0.44,0-0.668,0c-0.15,0-0.302,0-0.453,0
	c-0.227,0-0.454,0-0.693,0c-0.139,0-0.29,0-0.441,0c-0.239,0-0.453,0-0.681,0c-0.163,0-0.302,0-0.453,0c-0.228,0-0.454,0-0.681,0
	c-0.151,0-0.315,0-0.454,0c-0.227,0-0.466,0-0.68,0c-0.151,0-0.304,0-0.467,0c-0.214,0-0.441,0-0.668,0c-0.151,0-0.303,0-0.454,0
	c-0.227,0-0.453,0-0.692,0c-0.14,0-0.29,0-0.441,0c-0.239,0-0.454,0-0.681,0c-0.164,0-0.303,0-0.454,0c-0.227,0-0.454,0-0.681,0
	c-0.151,0-0.314,0-0.453,0c-0.228,0-0.467,0-0.681,0c-0.151,0-0.303,0-0.467,0c-0.214,0-0.44,0-0.668,0c-0.15,0-0.302,0-0.453,0
	c-0.227,0-0.454,0-0.693,0c-0.139,0-0.29,0-0.441,0c-0.239,0-0.453,0-0.681,0c-0.163,0-0.302,0-0.453,0c-0.228,0-0.454,0-0.681,0
	c-0.151,0-0.315,0-0.453,0c-0.228,0-0.467,0-0.681,0c-0.151,0-0.303,0-0.467,0c-0.214,0-0.441,0-0.668,0c-0.151,0-0.303,0-0.454,0
	c-0.227,0-0.453,0-0.692,0c-0.14,0-0.29,0-0.441,0c-0.239,0-0.454,0-0.681,0c0,2.42,0,4.84,0,7.26c0.227,0,0.441,0,0.681,0
	c0.227,0,0.441,0,0.681,0c0.453,0,0.907,0,1.361,0c0.214,0,0.453,0,0.681,0c0.214,0,0.453,0,0.681,0c0.453,0,0.906,0,1.36,0
	c0.227,0,0.454,0,0.668,0c0.239,0,0.467,0,0.681,0c0.467,0,0.92,0,1.374,0c0.227,0,0.44,0,0.681,0c0.227,0,0.44,0,0.68,0
	c0.454,0,0.907,0,1.361,0c0.227,0,0.454,0,0.681,0c0.215,0,0.454,0,0.681,0c0.454,0,0.907,0,1.361,0c0.227,0,0.454,0,0.668,0
	c0.239,0,0.467,0,0.681,0c0.466,0,0.92,0,1.373,0c0.228,0,0.454,0,0.681,0c0.228,0,0.441,0,0.681,0c0.441,0,0.908,0,1.361,0
	c0.227,0,0.454,0,0.681,0c0.214,0,0.453,0,0.681,0c0.453,0,0.907,0,1.36,0c0.228,0,0.454,0,0.681,0c0.228,0,0.454,0,0.669,0
	c0.466,0,0.92,0,1.373,0c0.228,0,0.453,0,0.681,0c0.227,0,0.441,0,0.681,0c0.441,0,0.907,0,1.361,0c0.227,0,0.453,0,0.681,0
	c0.227,0,0.453,0,0.681,0c0.453,0,0.895,0,1.361,0c0.226,0,0.453,0,0.68,0s0.454,0,0.668,0c0.467,0,0.92,0,1.374,0
	c0.227,0,0.453,0,0.681,0c0.227,0,0.453,0,0.681,0c0.44,0,0.907,0,1.36,0c0.228,0,0.454,0,0.681,0s0.454,0,0.681,0
	c0.454,0,0.896,0,1.361,0c0.227,0,0.454,0,0.681,0s0.454,0,0.681,0c0.454,0,0.907,0,1.349,0c0.92,0,1.814,0,2.734,0
	c0-2.42,0-4.84,0-7.26c0.228,0,0.454,0,0.681,0c0.454,0,0.907,0,1.361,0c0.529,0,1.059,0,1.588,0c0.453,0,0.907,0,1.361,0
	c0.227,0,0.44,0,0.681,0c0.302,0,0.604,0,0.906,0c0.228,0,0.454,0,0.681,0c0-9.679,0-19.357,0-29.037c-2.432,0-4.839,0-7.259,0
	c0,1.814,0,3.63,0,5.445c0,1.814,0,3.629,0,5.444c0,1.814,0,3.629,0,5.444c0,1.814,0,3.63,0,5.444c-2.42,0-4.839,0-7.26,0
	c0,2.42,0,4.84,0,7.259c-0.756,0-1.512,0-2.268,0c-0.164,0-0.303,0-0.454,0c-0.227,0-0.454,0-0.681,0c-0.151,0-0.314,0-0.453,0
	C141.329,189.195,141.09,189.195,140.876,189.195z"/>
<path fill="#D6EEF1" d="M116.376,152.899c0,2.42,0,4.839,0,7.259c0.139,0,0.302,0,0.453,0c0.227,0,0.454,0,0.681,0
	c0.454,0,0.895,0,1.361,0c0.227,0,0.453,0,0.68,0c0.228,0,0.454,0,0.681,0c0.454,0,0.908,0,1.35,0c0.163,0,0.314,0,0.466,0
	c0.227,0,0.454,0,0.681,0c0.454,0,0.907,0,1.349,0c0.239,0,0.466,0,0.692,0c0.228,0,0.454,0,0.681,0c0.454,0,0.908,0,1.361,0
	c0.151,0,0.303,0,0.441,0c0.239,0,0.467,0,0.693,0c0.453,0,0.907,0,1.36,0c0.228,0,0.441,0,0.681,0c0.228,0,0.454,0,0.681,0
	c0.454,0,0.907,0,1.361,0c0.215,0,0.454,0,0.681,0c0.214,0,0.454,0,0.681,0c0.454,0,0.907,0,1.349,0c0.92,0,1.827,0,2.734,0
	c0.228,0,0.441,0,0.681,0c0-2.192,0-4.386,0-6.578c0-0.228,0-0.454,0-0.681c-2.42,0-4.839,0-7.26,0c0-2.42,0-4.84,0-7.26
	c-2.432,0-4.839,0-7.259,0c0,2.42,0,4.84,0,7.26C121.215,152.899,118.796,152.899,116.376,152.899z"/>
<path fill="#232034" d="M116.376,145.639c0,2.42,0,4.84,0,7.26c2.42,0,4.839,0,7.259,0c0-2.42,0-4.84,0-7.26c0-1.21,0-2.42,0-3.63
	c0-0.604,0-1.209,0-1.814c0-0.681,0-1.361,0-2.042c-2.42,0-4.839,0-7.259,0c0,0.076,0,0.151,0,0.228c0,0.604,0,1.21,0,1.814
	c0,0.605,0,1.21,0,1.814C116.376,143.219,116.376,144.429,116.376,145.639z"/>
<path fill="#232034" d="M116.376,72.82c0,2.419,0,4.839,0,7.259c2.42,0,4.839,0,7.259,0c0-2.42,0-4.839,0-7.259
	C121.215,72.82,118.796,72.82,116.376,72.82z"/>
<path fill="#98D8DF" d="M169.232,101.857c-0.681,0-1.361,0-2.042,0c0,3.63,0,7.259,0,10.889s0,7.26,0,10.889
	c-2.419,0-4.839,0-7.26,0c0,4.84,0,9.68,0,14.519c-3.629,0-7.259,0-10.888,0c-3.631,0-7.26,0-10.89,0c0-2.419,0-4.839,0-7.259
	c-2.42,0-4.839,0-7.26,0c0-2.42,0-4.84,0-7.26c-2.432,0-4.839,0-7.259,0c0,2.42,0,4.84,0,7.26c-2.42,0-4.839,0-7.259,0
	c0,2.42,0,4.84,0,7.259c2.42,0,4.839,0,7.259,0c0,0.681,0,1.361,0,2.042c0,0.605,0,1.21,0,1.814c0,1.21,0,2.42,0,3.63
	c2.42,0,4.827,0,7.259,0c0,2.42,0,4.84,0,7.26c2.421,0,4.84,0,7.26,0c0,0.227,0,0.453,0,0.681c0,2.192,0,4.386,0,6.578
	c-0.239,0-0.453,0-0.681,0c-0.907,0-1.814,0-2.734,0c-0.441,0-0.895,0-1.349,0c-0.227,0-0.467,0-0.681,0c-0.227,0-0.466,0-0.681,0
	c-0.454,0-0.907,0-1.361,0c-0.227,0-0.453,0-0.681,0c-0.239,0-0.453,0-0.681,0c-0.453,0-0.907,0-1.36,0c-0.227,0-0.454,0-0.693,0
	c-0.139,0-0.29,0-0.441,0c-0.453,0-0.907,0-1.361,0c-0.227,0-0.453,0-0.681,0c-0.227,0-0.453,0-0.692,0c-0.441,0-0.895,0-1.349,0
	c-0.227,0-0.454,0-0.681,0c-0.151,0-0.303,0-0.466,0c-0.441,0-0.896,0-1.35,0c-0.227,0-0.453,0-0.681,0c-0.227,0-0.453,0-0.68,0
	c-0.467,0-0.907,0-1.361,0c-0.227,0-0.454,0-0.681,0c-0.151,0-0.314,0-0.453,0c-4.84,0-9.68,0-14.519,0c0,2.421,0,4.84,0,7.26
	c0,4.839,0,9.679,0,14.519c2.419,0,4.839,0,7.259,0c0,2.42,0,4.84,0,7.259c0.227,0,0.441,0,0.681,0c0.151,0,0.302,0,0.441,0
	c0.239,0,0.466,0,0.692,0c0.151,0,0.303,0,0.454,0c0.227,0,0.454,0,0.668,0c0.164,0,0.315,0,0.467,0c0.214,0,0.453,0,0.681,0
	c0.138,0,0.302,0,0.453,0c0.227,0,0.453,0,0.681,0c0.151,0,0.29,0,0.453,0c0.228,0,0.441,0,0.681,0c0.151,0,0.303,0,0.441,0
	c0.239,0,0.467,0,0.693,0c0.151,0,0.303,0,0.453,0c0.228,0,0.454,0,0.668,0c0.164,0,0.315,0,0.467,0c0.214,0,0.453,0,0.681,0
	c0.139,0,0.302,0,0.453,0c0.227,0,0.454,0,0.681,0c0.151,0,0.29,0,0.454,0c0.227,0,0.441,0,0.681,0c0.151,0,0.302,0,0.441,0
	c0.239,0,0.466,0,0.692,0c0.151,0,0.303,0,0.454,0c0.227,0,0.454,0,0.668,0c0.163,0,0.315,0,0.467,0c0.214,0,0.453,0,0.68,0
	c0.139,0,0.303,0,0.454,0c0.227,0,0.453,0,0.681,0c0.151,0,0.29,0,0.453,0c0.228,0,0.441,0,0.681,0c0.151,0,0.303,0,0.441,0
	c0.239,0,0.467,0,0.693,0c0.151,0,0.303,0,0.453,0c0.228,0,0.454,0,0.668,0c0.164,0,0.315,0,0.467,0c0.214,0,0.453,0,0.681,0
	c0.139,0,0.302,0,0.453,0c0.227,0,0.454,0,0.681,0c0.151,0,0.29,0,0.454,0c0.227,0,0.441,0,0.681,0c0.151,0,0.302,0,0.44,0
	c0.24,0,0.467,0,0.693,0c0.151,0,0.303,0,0.453,0c0.228,0,0.454,0,0.669,0c0.163,0,0.314,0,0.466,0c0.215,0,0.454,0,0.681,0
	c0.139,0,0.303,0,0.454,0c0.227,0,0.453,0,0.681,0c0.151,0,0.29,0,0.453,0c0.228,0,0.441,0,0.681,0c0.151,0,0.302,0,0.441,0
	c0.239,0,0.467,0,0.692,0c0.151,0,0.303,0,0.454,0c0.227,0,0.454,0,0.668,0c0.164,0,0.315,0,0.467,0c0.214,0,0.453,0,0.681,0
	c0.139,0,0.302,0,0.453,0c0.227,0,0.454,0,0.681,0c0.151,0,0.29,0,0.454,0c0.756,0,1.512,0,2.268,0c0-2.419,0-4.839,0-7.259
	c2.421,0,4.84,0,7.26,0c0-1.814,0-3.63,0-5.444c0-1.815,0-3.63,0-5.444c0-1.815,0-3.63,0-5.444c0-1.815,0-3.631,0-5.445
	c2.42,0,4.827,0,7.259,0c0-2.42,0-4.839,0-7.259c2.421,0,4.841,0,7.26,0c0-2.42,0-4.84,0-7.26c1.21,0,2.42,0,3.63,0
	c0.604,0,1.21,0,1.803,0c0.692,0,1.373,0,2.054,0c0-1.21,0-2.42,0-3.63c0-0.604,0-1.209,0-1.814c0-0.681,0-1.361,0-2.042
	c2.42,0,4.827,0,7.259,0c0-5.974,0-11.947,0-17.921c0-1.513,0-3.024,0-4.537c0-0.151,0-0.303,0-0.453c0-0.228,0-0.454,0-0.681
	c0-0.151,0-0.303,0-0.454c0-0.227,0-0.454,0-0.681c0-0.151,0-0.303,0-0.454c0-0.227,0-0.453,0-0.681c0-0.15,0-0.302,0-0.453
	c0-0.228,0-0.453,0-0.681c0-1.512,0-3.024,0-4.537c0-0.151,0-0.302,0-0.454c0-0.227,0-0.453,0-0.68c0-0.152,0-0.303,0-0.454
	c0-0.227,0-0.453,0-0.681c0-0.151,0-0.303,0-0.453c0-0.228,0-0.454,0-0.681c0-0.151,0-0.303,0-0.454c0-0.303,0-0.605,0-0.907
	c-2.432,0-4.839,0-7.259,0c-1.21,0-2.42,0-3.63,0C170.442,101.857,169.838,101.857,169.232,101.857z"/>
<path fill="#232034" d="M123.635,80.079c0,2.42,0,4.84,0,7.26c2.42,0,4.827,0,7.259,0c0-2.42,0-4.84,0-7.26
	C128.462,80.079,126.055,80.079,123.635,80.079z"/>
<path fill="#FFFFFF" d="M138.153,101.857c0,4.839,0,9.68,0,14.519c2.42,0,4.827,0,7.259,0c0-4.839,0-9.68,0-14.519
	C142.98,101.857,140.573,101.857,138.153,101.857z"/>
<path fill="#73CEE0" d="M159.931,51.042c0,4.839,0,9.679,0,14.518c0.063,0,0.151,0,0.228,0c0.303,0,0.604,0,0.907,0s0.605,0,0.907,0
	c0.605,0,1.197,0,1.803,0c1.21,0,2.432,0,3.643,0c2.42,0,4.839,0,7.259,0c0-6.049,0-12.099,0-18.148c0-6.125,0-12.25,0-18.375
	c-1.134,0-2.269,0-3.403,0c-0.541,0-1.059,0-1.587,0c-0.304,0-0.605,0-0.921,0c-0.289,0-0.604,0-0.895,0c-0.227,0-0.453,0-0.681,0
	c0,3.63,0,7.26,0,10.889c0,3.705,0,7.41,0,11.116C164.771,51.042,162.352,51.042,159.931,51.042z"/>
<path fill="#D6EEF1" d="M169.232,94.597c-0.681,0-1.361,0-2.042,0c0-2.42,0-4.839,0-7.259c-3.629,0-7.26,0-10.889,0
	c-1.815,0-3.63,0-5.444,0s-3.63,0-5.445,0c0-2.42,0-4.84,0-7.26c-4.839,0-9.679,0-14.519,0c0,2.42,0,4.84,0,7.26
	c2.421,0,4.84,0,7.26,0c0,4.839,0,9.679,0,14.519c2.42,0,4.827,0,7.259,0c0,4.839,0,9.68,0,14.519c-2.432,0-4.839,0-7.259,0
	s-4.839,0-7.26,0c0,2.42,0,4.84,0,7.259c0,2.42,0,4.84,0,7.26c2.421,0,4.84,0,7.26,0c0,2.42,0,4.84,0,7.259c3.63,0,7.259,0,10.89,0
	c3.629,0,7.259,0,10.888,0c0-4.839,0-9.679,0-14.519c2.421,0,4.841,0,7.26,0c0-3.629,0-7.259,0-10.889s0-7.259,0-10.889
	c0.681,0,1.361,0,2.042,0c0.605,0,1.21,0,1.814,0c1.21,0,2.42,0,3.63,0c0-2.42,0-4.84,0-7.26c-1.21,0-2.42,0-3.63,0
	C170.442,94.597,169.838,94.597,169.232,94.597z"/>
<path fill="#73CEE0" d="M181.936,115.242c0,0.15,0,0.302,0,0.453c0,1.513,0,3.024,0,4.537c0,5.974,0,11.947,0,17.921
	c-2.432,0-4.839,0-7.259,0c0,0.681,0,1.361,0,2.042c0,0.605,0,1.21,0,1.814c0,1.21,0,2.42,0,3.63c-0.681,0-1.361,0-2.054,0
	c-0.593,0-1.198,0-1.803,0c-1.21,0-2.42,0-3.63,0c0,2.42,0,4.84,0,7.26c-2.419,0-4.839,0-7.26,0c0,2.42,0,4.839,0,7.259
	c1.21,0,2.421,0,3.631,0s2.419,0,3.629,0s2.42,0,3.63,0c0.604,0,1.21,0,1.803,0c0.692,0,1.373,0,2.054,0c0-2.42,0-4.839,0-7.259
	c0.228,0,0.441,0,0.681,0c1.134,0,2.256,0,3.403,0c0.529,0,1.059,0,1.587,0c0.605,0,1.21,0,1.815,0c0.517,0,1.059,0,1.588,0
	c0.605,0,1.21,0,1.814,0c1.21,0,2.42,0,3.63,0c0-2.117,0-4.234,0-6.352c0-0.529,0-1.059,0-1.589c0-0.227,0-0.453,0-0.68
	c0-0.303,0-0.605,0-0.908c0-1.059,0-2.117,0-3.176c0-0.529,0-1.059,0-1.588c0-0.227,0-0.454,0-0.681c0-0.303,0-0.604,0-0.907
	c0-1.059,0-2.117,0-3.176c0-0.529,0-1.059,0-1.588c0-0.228,0-0.454,0-0.681c0-0.303,0-0.604,0-0.907c0-1.059,0-2.117,0-3.177
	c0-0.529,0-1.059,0-1.587c0-0.228,0-0.454,0-0.681c0-0.303,0-0.605,0-0.908c0-1.059,0-2.117,0-3.176c0-0.529,0-1.059,0-1.588
	c0-0.227,0-0.453,0-0.681c0-0.303,0-0.604,0-0.907c0-1.059,0-2.117,0-3.176c0-0.529,0-1.059,0-1.588c0-0.228,0-0.454,0-0.681
	c0-0.303,0-0.605,0-0.908c0-1.058,0-2.116,0-3.176c0-1.059,0-2.116,0-3.176c0-1.134,0-2.269,0-3.402c-2.42,0-4.839,0-7.26,0
	c0,0.302,0,0.604,0,0.907c0,0.151,0,0.303,0,0.454c0,0.227,0,0.453,0,0.681c0,0.15,0,0.302,0,0.453c0,0.228,0,0.454,0,0.681
	c0,0.151,0,0.302,0,0.454c0,0.227,0,0.453,0,0.68c0,0.152,0,0.303,0,0.454c0,1.513,0,3.025,0,4.537c0,0.228,0,0.453,0,0.681
	c0,0.151,0,0.303,0,0.453c0,0.228,0,0.454,0,0.681c0,0.151,0,0.303,0,0.454c0,0.227,0,0.454,0,0.681c0,0.151,0,0.303,0,0.454
	C181.936,114.788,181.936,115.014,181.936,115.242z"/>
<path fill="#73CEE0" d="M174.677,94.597c0,2.42,0,4.84,0,7.26c2.42,0,4.827,0,7.259,0c0-2.42,0-4.84,0-7.26
	C179.504,94.597,177.097,94.597,174.677,94.597z"/>
<path fill="#73CEE0" d="M174.677,65.56c0,2.42,0,4.84,0,7.26c2.42,0,4.827,0,7.259,0c0-2.42,0-4.839,0-7.26
	C179.504,65.56,177.097,65.56,174.677,65.56z"/>
<path fill="#73CEE0" d="M181.936,72.82c0,7.259,0,14.519,0,21.777c2.421,0,4.84,0,7.26,0c0-7.259,0-14.519,0-21.777
	C186.775,72.82,184.356,72.82,181.936,72.82z"/>
<g id="XMLID_2_">
	<g>
		<path fill="#232034" d="M120.776,171.306c0,2.33,0,4.67,0,7c2.42,0,4.83,0,7.26,0c0-2.25,0-4.49,0-6.74c-0.09,0-0.17,0-0.26,0
			c0-0.09,0-0.17,0-0.26C125.437,171.306,123.106,171.306,120.776,171.306z"/>
		<path fill="#232034" d="M120.776,178.566c0,2.25,0,4.49,0,6.74c2.42,0,4.83,0,7.26,0c0-2.25,0-4.49,0-6.74
			c-0.229,0-0.449,0-0.68,0c-1.07,0-2.12,0-3.18,0c-0.53,0-1.07,0-1.59,0c-0.301,0-0.601,0-0.9,0
			C121.376,178.566,121.076,178.566,120.776,178.566z"/>
		<path fill="#232034" d="M122.587,185.566c-0.301,0-0.601,0-0.9,0c-0.311,0-0.61,0-0.91,0c0,1.45,0,3.78,0,7c0.3,0,0.6,0,0.91,0
			c0.3,0,0.6,0,0.9,0c0.52,0,1.06,0,1.59,0c1.06,0,2.109,0,3.18,0c0.14,0,0.28,0,0.42,0c0-0.09,0-0.17,0-0.26c0.09,0,0.17,0,0.26,0
			c0-2.25,0-4.49,0-6.74c-0.229,0-0.449,0-0.68,0c-1.07,0-2.12,0-3.18,0C123.646,185.566,123.106,185.566,122.587,185.566z"/>
		<path fill="#232034" d="M122.587,185.566c0.52,0,1.06,0,1.59,0c1.06,0,2.109,0,3.18,0c0.23,0,0.45,0,0.68,0c0-0.09,0-0.17,0-0.26
			c-2.43,0-4.84,0-7.26,0c0,0.08,0,0.17,0,0.26c0.3,0,0.6,0,0.91,0C121.986,185.566,122.286,185.566,122.587,185.566z"/>
		<path fill="#232034" d="M122.587,178.566c0.52,0,1.06,0,1.59,0c1.06,0,2.109,0,3.18,0c0.23,0,0.45,0,0.68,0c0-0.09,0-0.17,0-0.26
			c-2.43,0-4.84,0-7.26,0c0,0.09,0,0.17,0,0.26c0.3,0,0.6,0,0.91,0C121.986,178.566,122.286,178.566,122.587,178.566z"/>
		<path fill="#232034" d="M127.776,192.566c0,2.33,0,4.67,0,7c0.3,0,0.6,0,0.91,0c0.3,0,0.6,0,0.9,0c0.52,0,1.06,0,1.59,0
			c1.06,0,2.109,0,3.18,0c0.23,0,0.45,0,0.68,0c0-2.33,0-4.67,0-7c-0.09,0-0.17,0-0.26,0c0-0.09,0-0.17,0-0.26
			c-2.26,0-4.49,0-6.74,0c0,0.09,0,0.17,0,0.26C127.946,192.566,127.866,192.566,127.776,192.566z"/>
		<path fill="#232034" d="M127.776,192.306c0,0.09,0,0.17,0,0.26c0.09,0,0.17,0,0.26,0c0-0.09,0-0.17,0-0.26
			C127.946,192.306,127.866,192.306,127.776,192.306z"/>
		<path fill="#232034" d="M127.776,171.306c0,0.09,0,0.17,0,0.26c0.09,0,0.17,0,0.26,0c0-0.09,0-0.17,0-0.26
			C127.946,171.306,127.866,171.306,127.776,171.306z"/>
		<path fill="#232034" d="M127.776,164.306c0,2.33,0,4.67,0,7c0.09,0,0.17,0,0.26,0c0,0.09,0,0.17,0,0.26c0.21,0,0.431,0,0.65,0
			c0.3,0,0.6,0,0.9,0c0.52,0,1.06,0,1.59,0c1.06,0,2.109,0,3.18,0c0.14,0,0.28,0,0.42,0c0-2.42,0-4.84,0-7.26
			C132.437,164.306,130.106,164.306,127.776,164.306z"/>
		<path fill="#5E5F5F" d="M128.036,171.566c0,2.25,0,4.49,0,6.74c0,0.09,0,0.17,0,0.26c0,2.25,0,4.49,0,6.74c0,0.09,0,0.17,0,0.26
			c0,2.25,0,4.49,0,6.74c2.25,0,4.48,0,6.74,0c0-2.25,0-4.49,0-6.74c0-0.09,0-0.17,0-0.26c0-2.33,0-4.67,0-7c2.42,0,4.83,0,7.26,0
			c0,2.33,0,4.67,0,7c0,0.09,0,0.17,0,0.26c0,2.25,0,4.49,0,6.74c2.25,0,4.48,0,6.74,0c0-2.25,0-4.49,0-6.74c0-0.08,0-0.17,0-0.26
			c0-1.45,0-3.78,0-7c2.42,0,4.83,0,7.26,0c0,2.33,0,4.67,0,7c0,0.09,0,0.17,0,0.26c0,2.25,0,4.49,0,6.74c2.25,0,4.48,0,6.74,0
			c0-2.25,0-4.49,0-6.74c0-0.09,0-0.17,0-0.26c0-2.25,0-4.49,0-6.74c0-0.09,0-0.17,0-0.26c0-2.25,0-4.49,0-6.74
			c-0.14,0-0.28,0-0.42,0c-1.07,0-2.12,0-3.18,0c-0.53,0-1.07,0-1.59,0c-0.301,0-0.601,0-0.9,0c-0.22,0-0.44,0-0.65,0
			c-0.09,0-0.17,0-0.26,0c-0.14,0-0.28,0-0.42,0c-1.07,0-2.12,0-3.18,0c-0.53,0-1.07,0-1.59,0c-0.301,0-0.601,0-0.9,0
			c-0.22,0-0.44,0-0.65,0c-0.09,0-0.17,0-0.26,0c-0.14,0-0.28,0-0.42,0c-1.07,0-2.12,0-3.18,0c-0.53,0-1.07,0-1.59,0
			c-0.301,0-0.601,0-0.9,0c-0.22,0-0.44,0-0.65,0c-0.09,0-0.17,0-0.26,0c-0.14,0-0.28,0-0.42,0c-1.07,0-2.12,0-3.18,0
			c-0.53,0-1.07,0-1.59,0c-0.301,0-0.601,0-0.9,0c-0.22,0-0.44,0-0.65,0c-0.09,0-0.17,0-0.26,0c-0.14,0-0.28,0-0.42,0
			c-1.07,0-2.12,0-3.18,0c-0.53,0-1.07,0-1.59,0c-0.301,0-0.601,0-0.9,0C128.467,171.566,128.246,171.566,128.036,171.566z"/>
		<path fill="#232034" d="M134.776,192.306c0,0.09,0,0.17,0,0.26c0.09,0,0.17,0,0.26,0c0-0.09,0-0.17,0-0.26
			C134.946,192.306,134.866,192.306,134.776,192.306z"/>
		<path fill="#232034" d="M134.776,178.306c0,2.33,0,4.67,0,7c2.42,0,4.83,0,7.26,0c0-2.33,0-4.67,0-7
			C139.606,178.306,137.196,178.306,134.776,178.306z"/>
		<path fill="#232034" d="M134.776,164.306c0,2.42,0,4.84,0,7.26c0.09,0,0.17,0,0.26,0c0-2.42,0-4.84,0-7.26
			C134.946,164.306,134.866,164.306,134.776,164.306z"/>
		<path fill="#232034" d="M135.687,185.566c-0.311,0-0.61,0-0.91,0c0,2.25,0,4.49,0,6.74c0.09,0,0.17,0,0.26,0c0,0.09,0,0.17,0,0.26
			c0.21,0,0.431,0,0.65,0c0.3,0,0.6,0,0.9,0c0.52,0,1.06,0,1.59,0c1.06,0,2.109,0,3.18,0c0.14,0,0.28,0,0.42,0c0-0.09,0-0.17,0-0.26
			c0.09,0,0.17,0,0.26,0c0-2.25,0-4.49,0-6.74c-0.229,0-0.449,0-0.68,0c-1.07,0-2.12,0-3.18,0c-0.53,0-1.07,0-1.59,0
			C136.286,185.566,135.986,185.566,135.687,185.566z"/>
		<path fill="#232034" d="M135.036,164.306c0,2.42,0,4.84,0,7.26c0.21,0,0.431,0,0.65,0c0.3,0,0.6,0,0.9,0c0.52,0,1.06,0,1.59,0
			c1.06,0,2.109,0,3.18,0c0.14,0,0.28,0,0.42,0c0-2.42,0-4.84,0-7.26C139.517,164.306,137.286,164.306,135.036,164.306z"/>
		<path fill="#232034" d="M142.036,185.306c-2.43,0-4.84,0-7.26,0c0,0.09,0,0.17,0,0.26c0.3,0,0.6,0,0.91,0c0.3,0,0.6,0,0.9,0
			c0.52,0,1.06,0,1.59,0c1.06,0,2.109,0,3.18,0c0.23,0,0.45,0,0.68,0C142.036,185.476,142.036,185.396,142.036,185.306z"/>
		<path fill="#232034" d="M141.776,192.566c0,2.33,0,4.67,0,7c0.3,0,0.6,0,0.91,0c0.3,0,0.6,0,0.9,0c0.52,0,1.06,0,1.59,0
			c1.06,0,2.109,0,3.18,0c0.23,0,0.45,0,0.68,0c0-2.33,0-4.67,0-7c-0.09,0-0.17,0-0.26,0c0-0.09,0-0.17,0-0.26
			c-2.26,0-4.49,0-6.74,0c0,0.09,0,0.17,0,0.26C141.946,192.566,141.866,192.566,141.776,192.566z"/>
		<path fill="#232034" d="M141.776,192.306c0,0.09,0,0.17,0,0.26c0.09,0,0.17,0,0.26,0c0-0.09,0-0.17,0-0.26
			C141.946,192.306,141.866,192.306,141.776,192.306z"/>
		<path fill="#232034" d="M141.776,164.306c0,2.42,0,4.84,0,7.26c0.09,0,0.17,0,0.26,0c0-2.42,0-4.84,0-7.26
			C141.946,164.306,141.866,164.306,141.776,164.306z"/>
		<path fill="#232034" d="M142.036,164.306c0,2.42,0,4.84,0,7.26c0.21,0,0.431,0,0.65,0c0.3,0,0.6,0,0.9,0c0.52,0,1.06,0,1.59,0
			c1.06,0,2.109,0,3.18,0c0.14,0,0.28,0,0.42,0c0-2.42,0-4.84,0-7.26C146.517,164.306,144.286,164.306,142.036,164.306z"/>
		<path fill="#232034" d="M148.776,192.306c0,0.09,0,0.17,0,0.26c0.09,0,0.17,0,0.26,0c0-0.09,0-0.17,0-0.26
			C148.946,192.306,148.866,192.306,148.776,192.306z"/>
		<path fill="#232034" d="M148.776,178.306c0,3.22,0,5.55,0,7c2.42,0,4.83,0,7.26,0c0-2.33,0-4.67,0-7
			C153.606,178.306,151.196,178.306,148.776,178.306z"/>
		<path fill="#232034" d="M148.776,164.306c0,2.42,0,4.84,0,7.26c0.09,0,0.17,0,0.26,0c0-2.42,0-4.84,0-7.26
			C148.946,164.306,148.866,164.306,148.776,164.306z"/>
		<path fill="#232034" d="M148.776,185.566c0,2.25,0,4.49,0,6.74c0.09,0,0.17,0,0.26,0c0,0.09,0,0.17,0,0.26c0.21,0,0.431,0,0.65,0
			c0.3,0,0.6,0,0.9,0c0.52,0,1.06,0,1.59,0c1.06,0,2.109,0,3.18,0c0.14,0,0.28,0,0.42,0c0-0.09,0-0.17,0-0.26c0.09,0,0.17,0,0.26,0
			c0-2.25,0-4.49,0-6.74c-0.229,0-0.449,0-0.68,0c-1.07,0-2.12,0-3.18,0c-0.53,0-1.07,0-1.59,0c-0.301,0-0.601,0-0.9,0
			C149.376,185.566,149.076,185.566,148.776,185.566z"/>
		<path fill="#232034" d="M149.036,164.306c0,2.42,0,4.84,0,7.26c0.21,0,0.431,0,0.65,0c0.3,0,0.6,0,0.9,0c0.52,0,1.06,0,1.59,0
			c1.06,0,2.109,0,3.18,0c0.14,0,0.28,0,0.42,0c0-2.42,0-4.84,0-7.26C153.517,164.306,151.286,164.306,149.036,164.306z"/>
		<path fill="#232034" d="M156.036,185.306c-2.43,0-4.84,0-7.26,0c0,0.09,0,0.18,0,0.26c0.3,0,0.6,0,0.91,0c0.3,0,0.6,0,0.9,0
			c0.52,0,1.06,0,1.59,0c1.06,0,2.109,0,3.18,0c0.23,0,0.45,0,0.68,0C156.036,185.476,156.036,185.396,156.036,185.306z"/>
		<path fill="#232034" d="M155.776,192.566c0,2.33,0,4.67,0,7c0.3,0,0.6,0,0.91,0c0.3,0,0.6,0,0.9,0c0.52,0,1.06,0,1.59,0
			c1.06,0,2.109,0,3.18,0c0.23,0,0.45,0,0.68,0c0-2.33,0-4.67,0-7c-0.09,0-0.17,0-0.26,0c0-0.09,0-0.17,0-0.26
			c-2.26,0-4.49,0-6.74,0c0,0.09,0,0.17,0,0.26C155.946,192.566,155.866,192.566,155.776,192.566z"/>
		<path fill="#232034" d="M155.776,192.306c0,0.09,0,0.17,0,0.26c0.09,0,0.17,0,0.26,0c0-0.09,0-0.17,0-0.26
			C155.946,192.306,155.866,192.306,155.776,192.306z"/>
		<path fill="#232034" d="M155.776,164.306c0,2.42,0,4.84,0,7.26c0.09,0,0.17,0,0.26,0c0-2.42,0-4.84,0-7.26
			C155.946,164.306,155.866,164.306,155.776,164.306z"/>
		<path fill="#232034" d="M156.036,164.306c0,2.42,0,4.84,0,7.26c0.21,0,0.431,0,0.65,0c0.3,0,0.6,0,0.9,0c0.52,0,1.06,0,1.59,0
			c1.06,0,2.109,0,3.18,0c0.14,0,0.28,0,0.42,0c0-0.09,0-0.17,0-0.26c0.09,0,0.17,0,0.26,0c0-2.33,0-4.67,0-7
			C160.696,164.306,158.366,164.306,156.036,164.306z"/>
		<path fill="#232034" d="M162.776,192.306c0,0.09,0,0.17,0,0.26c0.09,0,0.17,0,0.26,0c0-0.09,0-0.17,0-0.26
			C162.946,192.306,162.866,192.306,162.776,192.306z"/>
		<path fill="#232034" d="M162.776,171.566c0,2.25,0,4.49,0,6.74c2.42,0,4.83,0,7.26,0c0-2.33,0-4.67,0-7c-2.34,0-4.67,0-7,0
			c0,0.09,0,0.17,0,0.26C162.946,171.566,162.866,171.566,162.776,171.566z"/>
		<path fill="#232034" d="M162.776,171.306c0,0.09,0,0.17,0,0.26c0.09,0,0.17,0,0.26,0c0-0.09,0-0.17,0-0.26
			C162.946,171.306,162.866,171.306,162.776,171.306z"/>
		<path fill="#232034" d="M162.776,178.566c0,2.25,0,4.49,0,6.74c2.42,0,4.83,0,7.26,0c0-2.25,0-4.49,0-6.74
			c-0.229,0-0.449,0-0.68,0c-1.07,0-2.12,0-3.18,0c-0.53,0-1.07,0-1.59,0c-0.301,0-0.601,0-0.9,0
			C163.376,178.566,163.076,178.566,162.776,178.566z"/>
		<path fill="#232034" d="M163.687,185.566c-0.311,0-0.61,0-0.91,0c0,2.25,0,4.49,0,6.74c0.09,0,0.17,0,0.26,0c0,0.09,0,0.17,0,0.26
			c0.21,0,0.431,0,0.65,0c0.3,0,0.6,0,0.9,0c0.52,0,1.06,0,1.59,0c1.06,0,2.109,0,3.18,0c0.23,0,0.45,0,0.68,0c0-2.33,0-4.67,0-7
			c-0.229,0-0.449,0-0.68,0c-1.07,0-2.12,0-3.18,0c-0.53,0-1.07,0-1.59,0C164.286,185.566,163.986,185.566,163.687,185.566z"/>
		<path fill="#232034" d="M170.036,185.306c-2.43,0-4.84,0-7.26,0c0,0.09,0,0.17,0,0.26c0.3,0,0.6,0,0.91,0c0.3,0,0.6,0,0.9,0
			c0.52,0,1.06,0,1.59,0c1.06,0,2.109,0,3.18,0c0.23,0,0.45,0,0.68,0C170.036,185.476,170.036,185.396,170.036,185.306z"/>
		<path fill="#232034" d="M170.036,178.306c-2.43,0-4.84,0-7.26,0c0,0.09,0,0.17,0,0.26c0.3,0,0.6,0,0.91,0c0.3,0,0.6,0,0.9,0
			c0.52,0,1.06,0,1.59,0c1.06,0,2.109,0,3.18,0c0.23,0,0.45,0,0.68,0C170.036,178.476,170.036,178.396,170.036,178.306z"/>
	</g>
	<g>
	</g>
</g>
<g id="XMLID_1_">
	<g>
		<path fill="#232034" d="M4.413,171.306c0,2.33,0,4.67,0,7c2.42,0,4.83,0,7.26,0c0-2.25,0-4.49,0-6.74c-0.09,0-0.17,0-0.26,0
			c0-0.09,0-0.17,0-0.26C9.073,171.306,6.743,171.306,4.413,171.306z"/>
		<path fill="#232034" d="M4.413,178.566c0,2.25,0,4.49,0,6.74c2.42,0,4.83,0,7.26,0c0-2.25,0-4.49,0-6.74c-0.23,0-0.45,0-0.68,0
			c-1.07,0-2.12,0-3.18,0c-0.53,0-1.07,0-1.59,0c-0.3,0-0.6,0-0.9,0C5.013,178.566,4.713,178.566,4.413,178.566z"/>
		<path fill="#232034" d="M4.413,185.566c0,1.45,0,3.78,0,7c0.3,0,0.6,0,0.91,0c0.3,0,0.6,0,0.9,0c0.52,0,1.06,0,1.59,0
			c1.06,0,2.11,0,3.18,0c0.14,0,0.28,0,0.42,0c0-0.09,0-0.17,0-0.26c0.09,0,0.17,0,0.26,0c0-2.25,0-4.49,0-6.74
			c-0.23,0-0.45,0-0.68,0c-1.07,0-2.12,0-3.18,0c-0.53,0-1.07,0-1.59,0c-0.3,0-0.6,0-0.9,0
			C5.013,185.566,4.713,185.566,4.413,185.566z"/>
		<path fill="#232034" d="M6.223,185.566c0.52,0,1.06,0,1.59,0c1.06,0,2.11,0,3.18,0c0.23,0,0.45,0,0.68,0c0-0.09,0-0.17,0-0.26
			c-2.43,0-4.84,0-7.26,0c0,0.08,0,0.17,0,0.26c0.3,0,0.6,0,0.91,0C5.623,185.566,5.923,185.566,6.223,185.566z"/>
		<path fill="#232034" d="M11.673,178.306c-2.43,0-4.84,0-7.26,0c0,0.09,0,0.17,0,0.26c0.3,0,0.6,0,0.91,0c0.3,0,0.6,0,0.9,0
			c0.52,0,1.06,0,1.59,0c1.06,0,2.11,0,3.18,0c0.23,0,0.45,0,0.68,0C11.673,178.476,11.673,178.396,11.673,178.306z"/>
		<path fill="#232034" d="M11.413,192.566c0,2.33,0,4.67,0,7c0.3,0,0.6,0,0.91,0c0.3,0,0.6,0,0.9,0c0.52,0,1.06,0,1.59,0
			c1.06,0,2.11,0,3.18,0c0.23,0,0.45,0,0.68,0c0-2.33,0-4.67,0-7c-0.09,0-0.17,0-0.26,0c0-0.09,0-0.17,0-0.26c-2.26,0-4.49,0-6.74,0
			c0,0.09,0,0.17,0,0.26C11.583,192.566,11.503,192.566,11.413,192.566z"/>
		<path fill="#232034" d="M11.413,192.306c0,0.09,0,0.17,0,0.26c0.09,0,0.17,0,0.26,0c0-0.09,0-0.17,0-0.26
			C11.583,192.306,11.503,192.306,11.413,192.306z"/>
		<path fill="#232034" d="M11.413,171.306c0,0.09,0,0.17,0,0.26c0.09,0,0.17,0,0.26,0c0-0.09,0-0.17,0-0.26
			C11.583,171.306,11.503,171.306,11.413,171.306z"/>
		<path fill="#232034" d="M11.413,164.306c0,2.33,0,4.67,0,7c0.09,0,0.17,0,0.26,0c0,0.09,0,0.17,0,0.26c0.21,0,0.43,0,0.65,0
			c0.3,0,0.6,0,0.9,0c0.52,0,1.06,0,1.59,0c1.06,0,2.11,0,3.18,0c0.14,0,0.28,0,0.42,0c0-2.42,0-4.84,0-7.26
			C16.073,164.306,13.743,164.306,11.413,164.306z"/>
		<path fill="#5E5F5F" d="M12.323,171.566c-0.22,0-0.44,0-0.65,0c0,2.25,0,4.49,0,6.74c0,0.09,0,0.17,0,0.26c0,2.25,0,4.49,0,6.74
			c0,0.09,0,0.17,0,0.26c0,2.25,0,4.49,0,6.74c2.25,0,4.48,0,6.74,0c0-2.25,0-4.49,0-6.74c0-0.09,0-0.17,0-0.26c0-2.33,0-4.67,0-7
			c2.42,0,4.83,0,7.26,0c0,2.33,0,4.67,0,7c0,0.09,0,0.17,0,0.26c0,2.25,0,4.49,0,6.74c2.25,0,4.48,0,6.74,0c0-2.25,0-4.49,0-6.74
			c0-0.08,0-0.17,0-0.26c0-1.45,0-3.78,0-7c2.42,0,4.83,0,7.26,0c0,2.33,0,4.67,0,7c0,0.09,0,0.17,0,0.26c0,2.25,0,4.49,0,6.74
			c2.25,0,4.48,0,6.74,0c0-2.25,0-4.49,0-6.74c0-0.09,0-0.17,0-0.26c0-2.25,0-4.49,0-6.74c0-0.09,0-0.17,0-0.26
			c0-2.25,0-4.49,0-6.74c-0.14,0-0.28,0-0.42,0c-1.07,0-2.12,0-3.18,0c-0.53,0-1.07,0-1.59,0c-0.3,0-0.6,0-0.9,0
			c-0.22,0-0.44,0-0.65,0c-0.09,0-0.17,0-0.26,0c-0.14,0-0.28,0-0.42,0c-1.07,0-2.12,0-3.18,0c-0.53,0-1.07,0-1.59,0
			c-0.3,0-0.6,0-0.9,0c-0.22,0-0.44,0-0.65,0c-0.09,0-0.17,0-0.26,0c-0.14,0-0.28,0-0.42,0c-1.07,0-2.12,0-3.18,0
			c-0.53,0-1.07,0-1.59,0c-0.3,0-0.6,0-0.9,0c-0.22,0-0.44,0-0.65,0c-0.09,0-0.17,0-0.26,0c-0.14,0-0.28,0-0.42,0
			c-1.07,0-2.12,0-3.18,0c-0.53,0-1.07,0-1.59,0c-0.3,0-0.6,0-0.9,0c-0.22,0-0.44,0-0.65,0c-0.09,0-0.17,0-0.26,0
			c-0.14,0-0.28,0-0.42,0c-1.07,0-2.12,0-3.18,0c-0.53,0-1.07,0-1.59,0C12.923,171.566,12.623,171.566,12.323,171.566z"/>
		<path fill="#232034" d="M18.413,192.306c0,0.09,0,0.17,0,0.26c0.09,0,0.17,0,0.26,0c0-0.09,0-0.17,0-0.26
			C18.583,192.306,18.503,192.306,18.413,192.306z"/>
		<path fill="#232034" d="M18.413,178.306c0,2.33,0,4.67,0,7c2.42,0,4.83,0,7.26,0c0-2.33,0-4.67,0-7
			C23.243,178.306,20.833,178.306,18.413,178.306z"/>
		<path fill="#232034" d="M18.413,164.306c0,2.42,0,4.84,0,7.26c0.09,0,0.17,0,0.26,0c0-2.42,0-4.84,0-7.26
			C18.583,164.306,18.503,164.306,18.413,164.306z"/>
		<path fill="#232034" d="M18.413,185.566c0,2.25,0,4.49,0,6.74c0.09,0,0.17,0,0.26,0c0,0.09,0,0.17,0,0.26c0.21,0,0.43,0,0.65,0
			c0.3,0,0.6,0,0.9,0c0.52,0,1.06,0,1.59,0c1.06,0,2.11,0,3.18,0c0.14,0,0.28,0,0.42,0c0-0.09,0-0.17,0-0.26c0.09,0,0.17,0,0.26,0
			c0-2.25,0-4.49,0-6.74c-0.23,0-0.45,0-0.68,0c-1.07,0-2.12,0-3.18,0c-0.53,0-1.07,0-1.59,0c-0.3,0-0.6,0-0.9,0
			C19.013,185.566,18.713,185.566,18.413,185.566z"/>
		<path fill="#232034" d="M18.673,164.306c0,2.42,0,4.84,0,7.26c0.21,0,0.43,0,0.65,0c0.3,0,0.6,0,0.9,0c0.52,0,1.06,0,1.59,0
			c1.06,0,2.11,0,3.18,0c0.14,0,0.28,0,0.42,0c0-2.42,0-4.84,0-7.26C23.153,164.306,20.923,164.306,18.673,164.306z"/>
		<path fill="#232034" d="M25.673,185.306c-2.43,0-4.84,0-7.26,0c0,0.09,0,0.17,0,0.26c0.3,0,0.6,0,0.91,0c0.3,0,0.6,0,0.9,0
			c0.52,0,1.06,0,1.59,0c1.06,0,2.11,0,3.18,0c0.23,0,0.45,0,0.68,0C25.673,185.476,25.673,185.396,25.673,185.306z"/>
		<path fill="#232034" d="M25.413,192.566c0,2.33,0,4.67,0,7c0.3,0,0.6,0,0.91,0c0.3,0,0.6,0,0.9,0c0.52,0,1.06,0,1.59,0
			c1.06,0,2.11,0,3.18,0c0.23,0,0.45,0,0.68,0c0-2.33,0-4.67,0-7c-0.09,0-0.17,0-0.26,0c0-0.09,0-0.17,0-0.26c-2.26,0-4.49,0-6.74,0
			c0,0.09,0,0.17,0,0.26C25.583,192.566,25.503,192.566,25.413,192.566z"/>
		<path fill="#232034" d="M25.413,192.306c0,0.09,0,0.17,0,0.26c0.09,0,0.17,0,0.26,0c0-0.09,0-0.17,0-0.26
			C25.583,192.306,25.503,192.306,25.413,192.306z"/>
		<path fill="#232034" d="M25.413,164.306c0,2.42,0,4.84,0,7.26c0.09,0,0.17,0,0.26,0c0-2.42,0-4.84,0-7.26
			C25.583,164.306,25.503,164.306,25.413,164.306z"/>
		<path fill="#232034" d="M25.673,164.306c0,2.42,0,4.84,0,7.26c0.21,0,0.43,0,0.65,0c0.3,0,0.6,0,0.9,0c0.52,0,1.06,0,1.59,0
			c1.06,0,2.11,0,3.18,0c0.14,0,0.28,0,0.42,0c0-2.42,0-4.84,0-7.26C30.153,164.306,27.923,164.306,25.673,164.306z"/>
		<path fill="#232034" d="M32.413,192.306c0,0.09,0,0.17,0,0.26c0.09,0,0.17,0,0.26,0c0-0.09,0-0.17,0-0.26
			C32.583,192.306,32.503,192.306,32.413,192.306z"/>
		<path fill="#232034" d="M32.413,178.306c0,3.22,0,5.55,0,7c2.42,0,4.83,0,7.26,0c0-2.33,0-4.67,0-7
			C37.243,178.306,34.833,178.306,32.413,178.306z"/>
		<path fill="#232034" d="M32.413,164.306c0,2.42,0,4.84,0,7.26c0.09,0,0.17,0,0.26,0c0-2.42,0-4.84,0-7.26
			C32.583,164.306,32.503,164.306,32.413,164.306z"/>
		<path fill="#232034" d="M33.323,185.566c-0.31,0-0.61,0-0.91,0c0,2.25,0,4.49,0,6.74c0.09,0,0.17,0,0.26,0c0,0.09,0,0.17,0,0.26
			c0.21,0,0.43,0,0.65,0c0.3,0,0.6,0,0.9,0c0.52,0,1.06,0,1.59,0c1.06,0,2.11,0,3.18,0c0.14,0,0.28,0,0.42,0c0-0.09,0-0.17,0-0.26
			c0.09,0,0.17,0,0.26,0c0-2.25,0-4.49,0-6.74c-0.23,0-0.45,0-0.68,0c-1.07,0-2.12,0-3.18,0c-0.53,0-1.07,0-1.59,0
			C33.923,185.566,33.623,185.566,33.323,185.566z"/>
		<path fill="#232034" d="M32.673,164.306c0,2.42,0,4.84,0,7.26c0.21,0,0.43,0,0.65,0c0.3,0,0.6,0,0.9,0c0.52,0,1.06,0,1.59,0
			c1.06,0,2.11,0,3.18,0c0.14,0,0.28,0,0.42,0c0-2.42,0-4.84,0-7.26C37.153,164.306,34.923,164.306,32.673,164.306z"/>
		<path fill="#232034" d="M35.813,185.566c1.06,0,2.11,0,3.18,0c0.23,0,0.45,0,0.68,0c0-0.09,0-0.17,0-0.26c-2.43,0-4.84,0-7.26,0
			c0,0.09,0,0.18,0,0.26c0.3,0,0.6,0,0.91,0c0.3,0,0.6,0,0.9,0C34.743,185.566,35.283,185.566,35.813,185.566z"/>
		<path fill="#232034" d="M39.413,192.566c0,2.33,0,4.67,0,7c0.3,0,0.6,0,0.91,0c0.3,0,0.6,0,0.9,0c0.52,0,1.06,0,1.59,0
			c1.06,0,2.11,0,3.18,0c0.23,0,0.45,0,0.68,0c0-2.33,0-4.67,0-7c-0.09,0-0.17,0-0.26,0c0-0.09,0-0.17,0-0.26c-2.26,0-4.49,0-6.74,0
			c0,0.09,0,0.17,0,0.26C39.583,192.566,39.503,192.566,39.413,192.566z"/>
		<path fill="#232034" d="M39.413,192.306c0,0.09,0,0.17,0,0.26c0.09,0,0.17,0,0.26,0c0-0.09,0-0.17,0-0.26
			C39.583,192.306,39.503,192.306,39.413,192.306z"/>
		<path fill="#232034" d="M39.413,164.306c0,2.42,0,4.84,0,7.26c0.09,0,0.17,0,0.26,0c0-2.42,0-4.84,0-7.26
			C39.583,164.306,39.503,164.306,39.413,164.306z"/>
		<path fill="#232034" d="M39.673,164.306c0,2.42,0,4.84,0,7.26c0.21,0,0.43,0,0.65,0c0.3,0,0.6,0,0.9,0c0.52,0,1.06,0,1.59,0
			c1.06,0,2.11,0,3.18,0c0.14,0,0.28,0,0.42,0c0-0.09,0-0.17,0-0.26c0.09,0,0.17,0,0.26,0c0-2.33,0-4.67,0-7
			C44.333,164.306,42.003,164.306,39.673,164.306z"/>
		<path fill="#232034" d="M46.413,192.306c0,0.09,0,0.17,0,0.26c0.09,0,0.17,0,0.26,0c0-0.09,0-0.17,0-0.26
			C46.583,192.306,46.503,192.306,46.413,192.306z"/>
		<path fill="#232034" d="M46.413,171.566c0,2.25,0,4.49,0,6.74c2.42,0,4.83,0,7.26,0c0-2.33,0-4.67,0-7c-2.34,0-4.67,0-7,0
			c0,0.09,0,0.17,0,0.26C46.583,171.566,46.503,171.566,46.413,171.566z"/>
		<path fill="#232034" d="M46.413,171.306c0,0.09,0,0.17,0,0.26c0.09,0,0.17,0,0.26,0c0-0.09,0-0.17,0-0.26
			C46.583,171.306,46.503,171.306,46.413,171.306z"/>
		<path fill="#232034" d="M47.323,178.566c-0.31,0-0.61,0-0.91,0c0,2.25,0,4.49,0,6.74c2.42,0,4.83,0,7.26,0c0-2.25,0-4.49,0-6.74
			c-0.23,0-0.45,0-0.68,0c-1.07,0-2.12,0-3.18,0c-0.53,0-1.07,0-1.59,0C47.923,178.566,47.623,178.566,47.323,178.566z"/>
		<path fill="#232034" d="M47.323,185.566c-0.31,0-0.61,0-0.91,0c0,2.25,0,4.49,0,6.74c0.09,0,0.17,0,0.26,0c0,0.09,0,0.17,0,0.26
			c0.21,0,0.43,0,0.65,0c0.3,0,0.6,0,0.9,0c0.52,0,1.06,0,1.59,0c1.06,0,2.11,0,3.18,0c0.23,0,0.45,0,0.68,0c0-2.33,0-4.67,0-7
			c-0.23,0-0.45,0-0.68,0c-1.07,0-2.12,0-3.18,0c-0.53,0-1.07,0-1.59,0C47.923,185.566,47.623,185.566,47.323,185.566z"/>
		<path fill="#232034" d="M48.223,185.566c0.52,0,1.06,0,1.59,0c1.06,0,2.11,0,3.18,0c0.23,0,0.45,0,0.68,0c0-0.09,0-0.17,0-0.26
			c-2.43,0-4.84,0-7.26,0c0,0.09,0,0.17,0,0.26c0.3,0,0.6,0,0.91,0C47.623,185.566,47.923,185.566,48.223,185.566z"/>
		<path fill="#232034" d="M49.813,178.566c1.06,0,2.11,0,3.18,0c0.23,0,0.45,0,0.68,0c0-0.09,0-0.17,0-0.26c-2.43,0-4.84,0-7.26,0
			c0,0.09,0,0.17,0,0.26c0.3,0,0.6,0,0.91,0c0.3,0,0.6,0,0.9,0C48.743,178.566,49.283,178.566,49.813,178.566z"/>
	</g>
	<g>
	</g>
</g>
<path fill="#FFFFFF" d="M72.706,87.337c0,2.42,0,4.839,0,7.26c2.42,0,4.84,0,7.26,0c0-2.421,0-4.84,0-7.26
	C77.546,87.337,75.126,87.337,72.706,87.337z"/>
<path fill="#010101" d="M72.706,80.079c0,2.42,0,4.84,0,7.259c2.42,0,4.84,0,7.26,0c0,2.42,0,4.839,0,7.26c2.406,0,4.826,0,7.26,0
	c0-2.421,0-4.84,0-7.26c2.419,0,4.839,0,7.258,0c0-2.419,0-4.839,0-7.259c-3.629,0-7.258,0-10.901,0
	C79.966,80.079,76.336,80.079,72.706,80.079z"/>
</svg>
