<?xml version="1.0" encoding="utf-8"?>
<!-- Generator: Adobe Illustrator 15.0.0, SVG Export Plug-In  -->
<!DOCTYPE svg PUBLIC "-//W3C//DTD SVG 1.1//EN" "http://www.w3.org/Graphics/SVG/1.1/DTD/svg11.dtd" [
	<!ENTITY ns_flows "http://ns.adobe.com/Flows/1.0/">
]>
<svg version="1.1"
	 xmlns="http://www.w3.org/2000/svg" xmlns:xlink="http://www.w3.org/1999/xlink" xmlns:a="http://ns.adobe.com/AdobeSVGViewerExtensions/3.0/"
	 x="0px" y="0px" width="300px" height="300px" viewBox="-48.636 -48.688 300 300" enable-background="new -48.636 -48.688 300 300"
	 xml:space="preserve">
<defs>
</defs>
<path fill="#F2FAFD" d="M145.64,89.153c0-0.681,0-1.361,0-2.042c2.407,0,4.827,0,7.246,0c0-4.839,0-9.678,0-14.519
	c-2.419,0-4.839,0-7.246,0c0-2.419,0-4.839,0-7.259c-4.84,0-9.679,0-14.519,0c0-4.84,0-9.679,0-14.519c-2.421,0-4.853,0-7.272,0
	c0-2.42,0-4.84,0-7.26c-4.902,0-9.83,0-14.732,0c0-2.42,0-4.839,0-7.259c-0.239,0-0.454,0-0.681,0c-0.391,0-0.769,0-1.135,0
	c-0.466,0-0.906,0-1.361,0c-0.377,0-0.755,0-1.146,0c-0.44,0-0.907,0-1.348,0c-1.753,0-3.492,0-5.23,0c-0.366,0-0.744,0-1.121,0
	c-0.455,0-0.921,0-1.361,0c-0.392,0-0.77,0-1.135,0c-0.467,0-0.907,0-1.374,0c-1.727,0-3.466,0-5.205,0c-0.239,0-0.466,0-0.681,0
	c0,2.419,0,4.839,0,7.259c-2.419,0-4.839,0-7.259,0c0,0.227,0,0.454,0,0.681c0,0.227,0,0.454,0,0.681c0,0.454,0,0.908,0,1.361
	c0,0.907,0,1.814,0,2.722c0,1.815,0,3.629,0,5.444c0,3.629,0,7.26,0,10.889c0,2.419,0,4.839,0,7.259c-4.853,0-9.692,0-14.52,0
	c0,2.42,0,4.84,0,7.26c-2.419,0-4.839,0-7.259,0c0,0.076,0,0.151,0,0.227c0,0.303,0,0.605,0,0.908c0,0.302,0,0.605,0,0.907
	c0,0.606,0,1.211,0,1.815c0,1.21,0,2.42,0,3.63c0,2.419,0,4.839,0,7.259c-2.42,0-4.839,0-7.259,0c0,2.42,0,4.84,0,7.26
	c-2.42,0-4.853,0-7.272,0c0,0.227,0,0.453,0,0.681c0,0.15,0,0.302,0,0.453c0,0.228,0,0.454,0,0.681c0,0.453,0,0.907,0,1.361
	c0,0.151,0,0.303,0,0.453c0,0.228,0,0.454,0,0.682c0,0.453,0,0.907,0,1.361c0,0.15,0,0.301,0,0.453c0,0.227,0,0.453,0,0.68
	c0,0.454,0,0.908,0,1.361c0,0.227,0,0.454,0,0.682c0,0.227,0,0.453,0,0.68c0,0.454,0,0.908,0,1.361c0,0.15,0,0.303,0,0.454
	c0,0.226,0,0.453,0,0.681c0,0.453,0,0.906,0,1.361c0,0.15,0,0.302,0,0.453c0,0.227,0,0.453,0,0.681c0,0.454,0,0.907,0,1.361
	c0,0.15,0,0.302,0,0.453c0,0.228,0,0.454,0,0.681c0,0.453,0,0.907,0,1.361c0,0.227,0,0.453,0,0.681c0,0.227,0,0.454,0,0.681
	c0,0.453,0,0.907,0,1.36c0,0.228,0,0.454,0,0.681c2.42,0,4.853,0,7.272,0c0,4.84,0,9.68,0,14.519c2.42,0,4.839,0,7.259,0
	c0,2.42,0,4.841,0,7.26c2.42,0,4.84,0,7.259,0c0,2.42,0,4.839,0,7.259s0,4.84,0,7.26c2.408,0,4.827,0,7.247,0s4.852,0,7.272,0
	c0,2.42,0,4.84,0,7.26c7.259,0,14.519,0,21.765,0c0,2.419,0,4.839,0,7.259c-0.214,0-0.44,0-0.681,0c-6.792,0-13.61,0-20.403,0
	c-0.24,0-0.454,0-0.681,0c0,2.495,0,4.991,0,7.486c-4.853,0-9.692,0-14.52,0c0-2.495,0-4.991,0-7.486c-4.839,0-9.679,0-14.518,0
	c0-2.42,0-4.84,0-7.259c-2.42,0-4.853,0-7.272,0c0-4.84,0-9.68,0-14.52c-2.42,0-4.84,0-7.259,0c0-4.839,0-9.678,0-14.519
	c-2.407,0-4.827,0-7.247,0c0-2.419,0-4.839,0-7.259c-0.227,0-0.467,0-0.681,0c-0.151,0-0.315,0-0.466,0c-0.304,0-0.593,0-0.896,0
	c-0.605,0-1.21,0-1.827,0c-0.592,0-1.21,0-1.802,0c-0.618,0-1.21,0-1.828,0c0-3.63,0-7.26,0-10.889c0-3.63,0-7.26,0-10.89
	c0-1.814,0-3.63,0-5.444s0-3.629,0-5.444s0-3.63,0-5.445c0-0.907,0-1.814,0-2.722c0-0.983,0-1.966,0-2.95c1.21,0,2.42,0,3.63,0
	c0.617,0,1.222,0,1.827,0c0.681,0,1.361,0,2.042,0c0-2.419,0-4.839,0-7.259c0.214,0,0.454,0,0.681,0c0.151,0,0.303,0,0.453,0
	c0.228,0,0.441,0,0.668,0c0.467,0,0.921,0,1.361,0c0.151,0,0.303,0,0.467,0c0.214,0,0.454,0,0.681,0c0.454,0,0.895,0,1.361,0
	c1.738,0,3.465,0,5.204,0c0.151,0,0.315,0,0.467,0c0.214,0,0.454,0,0.681,0c0.453,0,0.895,0,1.361,0c0.151,0,0.303,0,0.44,0
	c0.24,0,0.467,0,0.681,0c0.467,0,0.921,0,1.361,0c1.739,0,3.491,0,5.23,0c0.227,0,0.44,0,0.681,0c0-2.419,0-4.84,0-7.26
	c2.42,0,4.839,0,7.259,0c0-4.839,0-9.679,0-14.519c-4.839,0-9.679,0-14.531,0c0-2.419,0-4.839,0-7.259c2.42,0,4.853,0,7.272,0
	c0-4.84,0-9.68,0-14.519c2.42,0,4.839,0,7.259,0c0-2.42,0-4.839,0-7.26c0.215,0,0.453,0,0.681,0c1.739,0,3.479,0,5.205,0
	c0.239,0,0.467,0,0.681,0c0.227,0,0.467,0,0.692,0c0.366,0,0.744,0,1.135,0c0.227,0,0.441,0,0.681,0c0.227,0,0.441,0,0.681,0
	c0.378,0,0.756,0,1.122,0c1.738,0,3.478,0,5.23,0c0.227,0,0.44,0,0.681,0c0.227,0,0.44,0,0.679,0c0.38,0,0.757,0,1.135,0
	c0.215,0,0.454,0,0.681,0c0.215,0,0.454,0,0.681,0c0.366,0,0.743,0,1.135,0c0.227,0,0.44,0,0.681,0c0-2.42,0-4.839,0-7.259
	c12.161,0,24.336,0,36.522,0c0,2.42,0,4.839,0,7.259c2.408,0,4.827,0,7.247,0c0-2.42,0-4.839,0-7.259c2.42,0,4.852,0,7.272,0
	c0-2.419,0-4.839,0-7.259c7.259,0,14.519,0,21.765,0c0,2.42,0,4.84,0,7.259c2.42,0,4.84,0,7.272,0c0,4.839,0,9.68,0,14.519
	c2.42,0,4.84,0,7.26,0c0,4.839,0,9.679,0,14.519c4.839,0,9.679,0,14.505,0c0,4.839,0,9.679,0,14.519c2.42,0,4.84,0,7.271,0
	c0,0.151,0,0.302,0,0.454c0,0.681,0,1.361,0,2.042c0,0.151,0,0.302,0,0.454c0,0.227,0,0.454,0,0.681c0,0.151,0,0.303,0,0.454
	c0,0.227,0,0.454,0,0.681c0,0.151,0,0.303,0,0.454c0,0.227,0,0.454,0,0.681c0,0.151,0,0.303,0,0.454c0,0.226,0,0.454,0,0.68
	c0,0.151,0,0.302,0,0.454c0,0.227,0,0.454,0,0.681c0,0.151,0,0.302,0,0.454c0,0.227,0,0.454,0,0.681c0,0.151,0,0.303,0,0.454
	c0,0.227,0,0.454,0,0.681c0,0.151,0,0.303,0,0.454c0,0.227,0,0.454,0,0.681c0,0.151,0,0.303,0,0.454c0,0.226,0,0.453,0,0.681
	c0,0.15,0,0.302,0,0.453c0,0.227,0,0.454,0,0.681c0,0.151,0,0.302,0,0.454c0,0.227,0,0.454,0,0.681c0,0.151,0,0.303,0,0.454
	c0,0.227,0,0.454,0,0.681c0,0.151,0,0.303,0,0.453c0,0.228,0,0.454,0,0.681c0,0.151,0,0.303,0,0.454c0,0.227,0,0.454,0,0.681
	c0,0.151,0,0.302,0,0.454c0,0.227,0,0.454,0,0.681c0,0.151,0,0.302,0,0.454c0,0.227,0,0.454,0,0.681c0,0.151,0,0.303,0,0.454
	c0,0.227,0,0.454,0,0.68c0,0.151,0,0.303,0,0.454c0,0.227,0,0.455,0,0.681c0,0.151,0,0.303,0,0.454c0,0.227,0,0.454,0,0.681
	c0,0.151,0,0.302,0,0.454c0,0.227,0,0.454,0,0.681c0,0.151,0,0.302,0,0.454c0,0.227,0,0.454,0,0.681c0,0.151,0,0.303,0,0.454
	c0,0.227,0,0.454,0,0.68c0,0.151,0,0.303,0,0.454c0,0.227,0,0.454,0,0.681c0,0.151,0,0.303,0,0.454c0,0.227,0,0.454,0,0.681
	c0,0.151,0,0.302,0,0.454c0,0.227,0,0.454,0,0.681c0,0.151,0,0.302,0,0.454c0,0.227,0,0.453,0,0.681c0,0.151,0,0.303,0,0.453
	c0,0.228,0,0.454,0,0.681c0,0.151,0,0.303,0,0.454c0,0.227,0,0.454,0,0.681c0,0.151,0,0.303,0,0.454c0,0.227,0,0.454,0,0.681
	c0,0.151,0,0.302,0,0.454c0,0.227,0,0.454,0,0.681c-2.432,0-4.852,0-7.271,0c0,9.679,0,19.357,0,29.037c-2.419,0-4.826,0-7.246,0
	c0,1.814,0,3.629,0,5.444c0,1.814,0,3.63,0,5.444c0,1.815,0,3.63,0,5.445c0,1.814,0,3.629,0,5.443c-4.84,0-9.679,0-14.519,0
	c0,2.42,0,4.84,0,7.26c-2.433,0-4.853,0-7.272,0c0,4.84,0,9.679,0,14.519c-7.246,0-14.506,0-21.765,0c0-2.42,0-4.84,0-7.259
	c-2.421,0-4.853,0-7.272,0c0-2.42,0-4.84,0-7.26s0-4.84,0-7.26c2.42,0,4.852,0,7.272,0c0-4.839,0-9.678,0-14.519
	c-2.421,0-4.853,0-7.272,0c0-2.419,0-4.839,0-7.259c2.42,0,4.852,0,7.272,0c0-2.42,0-4.84,0-7.26c2.42,0,4.84,0,7.259,0
	c4.84,0,9.667,0,14.506,0c0-0.076,0-0.151,0-0.227c0-2.117,0-4.234,0-6.352c0-0.227,0-0.454,0-0.681c-2.419,0-4.839,0-7.246,0
	c0-2.42,0-4.84,0-7.26c0-2.419,0-4.839,0-7.259s0-4.84,0-7.26c0-1.21,0-2.42,0-3.629C145.64,90.363,145.64,89.758,145.64,89.153z
	 M145.64,131.575c0-0.228,0-0.454,0-0.681c-0.089,0-0.164,0-0.227,0c-0.24,0-0.454,0-0.681,0c-0.378,0-0.77,0-1.147,0
	c-0.517,0-1.046,0-1.575,0c-0.315,0-0.618,0-0.907,0c-0.24,0-0.454,0-0.681,0c-0.24,0-0.454,0-0.681,0c-0.239,0-0.454,0-0.681,0
	c-0.239,0-0.466,0-0.681,0c0,2.42,0,4.84,0,7.259c2.42,0,4.84,0,7.26,0c0-1.134,0-2.269,0-3.402
	C145.64,133.691,145.64,132.634,145.64,131.575z"/>
<path fill="#FFFFFF" d="M23.593,130.895c-0.618,0-1.21,0-1.828,0c0-3.63,0-7.26,0-10.889c0-3.63,0-7.26,0-10.89
	c0-1.814,0-3.63,0-5.444s0-3.629,0-5.444s0-3.63,0-5.445c0-0.907,0-1.814,0-2.722c0-0.983,0-1.966,0-2.95c1.21,0,2.42,0,3.63,0
	c0.617,0,1.222,0,1.827,0c0.681,0,1.361,0,2.042,0c0-2.419,0-4.839,0-7.259c0.214,0,0.454,0,0.681,0c0.151,0,0.303,0,0.453,0
	c0.228,0,0.441,0,0.668,0c0.467,0,0.921,0,1.361,0c0.151,0,0.303,0,0.467,0c0.214,0,0.454,0,0.681,0c0.454,0,0.895,0,1.361,0
	c1.738,0,3.465,0,5.204,0c0.151,0,0.315,0,0.467,0c0.214,0,0.454,0,0.681,0c0.453,0,0.895,0,1.361,0c0.151,0,0.303,0,0.44,0
	c0.24,0,0.467,0,0.681,0c0.467,0,0.921,0,1.361,0c1.739,0,3.491,0,5.23,0c0.227,0,0.44,0,0.681,0c0-2.419,0-4.84,0-7.26
	c2.42,0,4.839,0,7.259,0c0-4.839,0-9.679,0-14.519c-4.839,0-9.679,0-14.531,0c0,2.42,0,4.84,0,7.26c-2.42,0-4.84,0-7.259,0
	c0,2.419,0,4.839,0,7.259c-4.902,0-9.818,0-14.746,0c0,2.42,0,4.84,0,7.26c-2.42,0-4.839,0-7.247,0c0,2.42,0,4.839,0,7.259
	c0,1.21,0,2.42,0,3.63c0,0.605,0,1.21,0,1.815c0,0.68,0,1.36,0,2.041c-2.419,0-4.839,0-7.259,0c0,2.42,0,4.84,0,7.26
	c-2.419,0-4.839,0-7.259,0c0,4.84,0,9.679,0,14.519c2.42,0,4.84,0,7.259,0c0,2.419,0,4.839,0,7.259c2.42,0,4.84,0,7.259,0
	c0,0.227,0,0.454,0,0.681c0,0.151,0,0.303,0,0.454c0,0.227,0,0.453,0,0.68c0,0.228,0,0.455,0,0.682s0,0.453,0,0.68
	c0,0.152,0,0.303,0,0.454c0,0.228,0,0.454,0,0.681c0,0.454,0,0.907,0,1.361c0,0.15,0,0.303,0,0.453c0,0.227,0,0.454,0,0.681
	c0,0.454,0,0.907,0,1.361c0,0.907,0,1.814,0,2.722c0,0.152,0,0.303,0,0.454c0,0.228,0,0.454,0,0.681s0,0.453,0,0.681
	s0,0.454,0,0.681c0,0.151,0,0.303,0,0.453c0,0.228,0,0.455,0,0.681c0,0.454,0,0.908,0,1.361c0,0.151,0,0.303,0,0.454
	c0,0.227,0,0.453,0,0.68c0,0.455,0,0.908,0,1.361c0,0.908,0,1.814,0,2.723c0,0.227,0,0.453,0,0.681c2.408,0,4.827,0,7.247,0
	c0,2.42,0,4.839,0,7.259c2.509,0,4.991,0,7.499,0c0,2.42,0,4.84,0,7.26c2.42,0,4.84,0,7.247,0c0,4.84,0,9.679,0,14.519
	c2.419,0,4.839,0,7.259,0c0,4.915,0,9.83,0,14.745c7.272,0,14.531,0,21.79,0c0,2.42,0,4.84,0,7.26c7.247,0,14.52,0,21.778,0
	c0-2.42,0-4.84,0-7.26c0.215,0,0.441,0,0.681,0c6.793,0,13.611,0,20.417,0c0.227,0,0.441,0,0.681,0c0-4.915,0-9.83,0-14.745
	c7.322,0,14.67,0,22.005,0c0-2.42,0-4.84,0-7.259c-2.421,0-4.853,0-7.272,0c-4.902,0-9.83,0-14.732,0c-2.433,0-4.853,0-7.272,0
	c0,2.419,0,4.839,0,7.259c-0.214,0-0.44,0-0.681,0c-6.792,0-13.61,0-20.403,0c-0.24,0-0.454,0-0.681,0c0,2.495,0,4.991,0,7.486
	c-4.853,0-9.692,0-14.52,0c0-2.495,0-4.991,0-7.486c-4.839,0-9.679,0-14.518,0c0-2.42,0-4.84,0-7.259c-2.42,0-4.853,0-7.272,0
	c0-4.84,0-9.68,0-14.52c-2.42,0-4.84,0-7.259,0c0-4.839,0-9.678,0-14.519c-2.407,0-4.827,0-7.247,0c0-2.419,0-4.839,0-7.259
	c-0.227,0-0.467,0-0.681,0c-0.151,0-0.315,0-0.466,0c-0.304,0-0.593,0-0.896,0c-0.605,0-1.21,0-1.827,0
	C24.803,130.895,24.185,130.895,23.593,130.895z"/>
<path fill="#FFFFFF" d="M29.264,50.135c0,0.227,0,0.454,0,0.681c2.42,0,4.84,0,7.247,0c0,2.419,0,4.839,0,7.259
	c2.419,0,4.839,0,7.259,0c0-2.419,0-4.839,0-7.259c2.42,0,4.853,0,7.272,0c0-4.84,0-9.68,0-14.519c2.42,0,4.839,0,7.259,0
	c0-2.42,0-4.839,0-7.26c0.215,0,0.453,0,0.681,0c1.739,0,3.479,0,5.205,0c0.239,0,0.467,0,0.681,0c0.227,0,0.467,0,0.692,0
	c0.366,0,0.744,0,1.135,0c0.227,0,0.441,0,0.681,0c0.227,0,0.441,0,0.681,0c0.378,0,0.756,0,1.122,0c1.738,0,3.478,0,5.23,0
	c0.227,0,0.44,0,0.681,0c0.227,0,0.44,0,0.679,0c0.38,0,0.757,0,1.135,0c0.215,0,0.454,0,0.681,0c0.215,0,0.454,0,0.681,0
	c0.366,0,0.743,0,1.135,0c0.227,0,0.44,0,0.681,0c0-2.42,0-4.839,0-7.259c12.161,0,24.336,0,36.522,0c0,2.42,0,4.839,0,7.259
	c2.408,0,4.827,0,7.247,0c0-2.42,0-4.839,0-7.259c2.42,0,4.852,0,7.272,0c0-2.419,0-4.839,0-7.259c7.259,0,14.519,0,21.765,0
	c0,2.42,0,4.84,0,7.259c2.42,0,4.84,0,7.272,0c0-4.839,0-9.679,0-14.519c-2.433,0-4.853,0-7.272,0c0-2.419,0-4.839,0-7.259
	c-7.246,0-14.506,0-21.765,0c0,2.42,0,4.84,0,7.259c-2.421,0-4.853,0-7.272,0c0,2.42,0,4.839,0,7.259c-4.902,0-9.83,0-14.732,0
	c0-2.42,0-4.839,0-7.259c-0.303,0-0.605,0-0.92,0c-0.291,0-0.593,0-0.896,0c-0.617,0-1.209,0-1.827,0c-1.121,0-2.269,0-3.39,0
	c-2.282,0-4.55,0-6.806,0c-0.227,0-0.467,0-0.681,0c0,2.42,0,4.839,0,7.259c-7.26,0-14.519,0-21.791,0c0,2.42,0,4.84,0,7.259
	c-6.049,0-12.086,0-18.135,0c-6.05,0-12.112,0-18.161,0c0,4.839,0,9.68,0,14.519c-2.407,0-4.827,0-7.247,0
	C29.264,40.91,29.264,45.522,29.264,50.135z"/>
<path fill="#DFF3FD" d="M43.77,110.705c0,0.227,0,0.453,0,0.68c0,0.454,0,0.908,0,1.361c0,0.15,0,0.303,0,0.454
	c0,0.226,0,0.453,0,0.681c0,0.453,0,0.906,0,1.361c0,0.15,0,0.302,0,0.453c0,0.227,0,0.453,0,0.681c0,0.454,0,0.907,0,1.361
	c0,0.15,0,0.302,0,0.453c0,0.228,0,0.454,0,0.681c0,0.453,0,0.907,0,1.361c0,0.227,0,0.453,0,0.681c0,0.227,0,0.454,0,0.681
	c0,0.453,0,0.907,0,1.36c0,0.228,0,0.454,0,0.681c2.42,0,4.853,0,7.272,0c0-3.629,0-7.259,0-10.889s0-7.26,0-10.889
	c-2.42,0-4.853,0-7.272,0c0,0.227,0,0.453,0,0.681c0,0.15,0,0.302,0,0.453c0,0.228,0,0.454,0,0.681c0,0.453,0,0.907,0,1.361
	c0,0.151,0,0.303,0,0.453c0,0.228,0,0.454,0,0.682c0,0.453,0,0.907,0,1.361c0,0.15,0,0.301,0,0.453c0,0.227,0,0.453,0,0.68
	c0,0.454,0,0.908,0,1.361C43.77,110.25,43.77,110.478,43.77,110.705z"/>
<path fill="#DFF3FD" d="M51.042,123.635c0,4.84,0,9.68,0,14.519c2.42,0,4.839,0,7.259,0c0,2.42,0,4.841,0,7.26
	c2.42,0,4.84,0,7.259,0c0-2.419,0-4.84,0-7.26c2.408,0,4.827,0,7.247,0c0-2.419,0-4.839,0-7.259c-2.42,0-4.839,0-7.247,0
	c-2.419,0-4.839,0-7.259,0c0-2.42,0-4.84,0-7.26C55.881,123.635,53.462,123.635,51.042,123.635z"/>
<path fill="#232034" d="M51.042,112.746c0,3.63,0,7.26,0,10.889c2.42,0,4.839,0,7.259,0c0-2.42,0-4.84,0-7.259c0-2.42,0-4.84,0-7.26
	c0-2.419,0-4.839,0-7.259s0-4.84,0-7.26c-2.42,0-4.839,0-7.259,0c0,2.42,0,4.84,0,7.26
	C51.042,105.486,51.042,109.116,51.042,112.746z"/>
<path fill="#232034" d="M58.301,123.635c0,2.42,0,4.84,0,7.26c2.42,0,4.84,0,7.259,0c0-2.42,0-4.84,0-7.26
	C63.141,123.635,60.721,123.635,58.301,123.635z"/>
<path fill="#C3CAD1" d="M58.301,116.376c0,2.419,0,4.839,0,7.259c2.42,0,4.84,0,7.259,0c2.408,0,4.827,0,7.247,0
	c0-2.42,0-4.84,0-7.259c-2.42,0-4.839,0-7.247,0C63.141,116.376,60.721,116.376,58.301,116.376z"/>
<path fill="#E7F6FD" d="M58.301,109.116c0,2.42,0,4.84,0,7.26c2.42,0,4.84,0,7.259,0c0-2.42,0-4.84,0-7.26
	C63.141,109.116,60.721,109.116,58.301,109.116z"/>
<path fill="#010101" d="M58.301,101.857c0,2.42,0,4.84,0,7.259c2.42,0,4.84,0,7.259,0c0,2.42,0,4.84,0,7.26c2.408,0,4.827,0,7.247,0
	c0-4.84,0-9.679,0-14.519c-2.42,0-4.839,0-7.247,0C63.141,101.857,60.721,101.857,58.301,101.857z"/>
<path fill="#848484" d="M58.301,94.598c0,2.42,0,4.84,0,7.26c2.42,0,4.84,0,7.259,0c0-2.42,0-4.84,0-7.26
	C63.141,94.598,60.721,94.598,58.301,94.598z"/>
<path fill="#232034" d="M58.301,81.894c0,0.606,0,1.211,0,1.815c0,1.21,0,2.42,0,3.63c0,2.419,0,4.839,0,7.259
	c2.42,0,4.84,0,7.259,0c0-1.21,0-2.42,0-3.629c0-0.605,0-1.21,0-1.815c0-0.681,0-1.361,0-2.042c0-2.419,0-4.839,0-7.259
	c-2.419,0-4.839,0-7.259,0c0,0.076,0,0.151,0,0.227c0,0.303,0,0.605,0,0.908C58.301,81.289,58.301,81.592,58.301,81.894z"/>
<path fill="#DFF3FD" d="M65.56,152.672c0,2.42,0,4.84,0,7.26c2.408,0,4.827,0,7.247,0c0-2.42,0-4.84,0-7.26
	C70.387,152.672,67.968,152.672,65.56,152.672z"/>
<path fill="#232034" d="M65.56,145.413c0,2.42,0,4.839,0,7.259c2.408,0,4.827,0,7.247,0c0-2.42,0-4.839,0-7.259
	c0-2.419,0-4.84,0-7.26c-2.42,0-4.839,0-7.247,0C65.56,140.573,65.56,142.994,65.56,145.413z"/>
<path fill="#010101" d="M65.56,123.635c0,2.42,0,4.84,0,7.26c2.408,0,4.827,0,7.247,0c0-2.42,0-4.84,0-7.26
	C70.387,123.635,67.968,123.635,65.56,123.635z"/>
<path fill="#C3CAD1" d="M65.56,94.598c0,2.42,0,4.84,0,7.26c2.408,0,4.827,0,7.247,0c0,4.84,0,9.679,0,14.519
	c2.42,0,4.852,0,7.272,0c0,2.419,0,4.839,0,7.259c2.42,0,4.84,0,7.259,0c0,2.42,0,4.84,0,7.26c2.42,0,4.84,0,7.26,0
	c0-2.42,0-4.84,0-7.26c2.407,0,4.826,0,7.246,0c0,2.42,0,4.84,0,7.26c2.42,0,4.84,0,7.272,0c0-3.63,0-7.26,0-10.889
	c0-3.63,0-7.26,0-10.89c-2.433,0-4.853,0-7.272,0c0,2.42,0,4.84,0,7.26c-2.42,0-4.839,0-7.246,0c-2.42,0-4.84,0-7.26,0
	c0-2.42,0-4.84,0-7.26c-2.419,0-4.839,0-7.259,0c0-2.419,0-4.839,0-7.259c2.42,0,4.84,0,7.259,0c0.907,0,1.803,0,2.723,0
	c0.44,0,0.907,0,1.361,0c0.227,0,0.44,0,0.681,0c0.227,0,0.44,0,0.68,0c0.228,0,0.441,0,0.668,0c0.24,0,0.467,0,0.681,0
	c0.24,0,0.467,0,0.681,0c0.24,0,0.467,0,0.681,0c0.467,0,0.921,0,1.361,0c0.24,0,0.466,0,0.681,0c0.239,0,0.466,0,0.681,0
	c0.238,0,0.466,0,0.681,0c0.226,0,0.466,0,0.692,0c0.214,0,0.454,0,0.681,0c0.214,0,0.454,0,0.681,0c0.454,0,0.895,0,1.361,0
	c0.214,0,0.454,0,0.681,0c0.214,0,0.454,0,0.681,0c0.214,0,0.453,0,0.681,0c0.214,0,0.44,0,0.681,0c0.227,0,0.44,0,0.681,0
	c0.226,0,0.44,0,0.681,0c0.44,0,0.906,0,1.36,0c0.378,0,0.756,0,1.122,0c0.088,0,0.163,0,0.239,0c0,2.42,0,4.84,0,7.259
	c0.68,0,1.348,0,2.028,0c0.618,0,1.21,0,1.828,0c0.604,0,1.21,0,1.815,0c0.604,0,1.21,0,1.813,0c0-2.419,0-4.839,0-7.259
	c4.827,0,9.667,0,14.52,0c0-2.42,0-4.84,0-7.26c-2.421,0-4.853,0-7.272,0c0-0.681,0-1.361,0-2.041c0-0.605,0-1.21,0-1.815
	c0-1.21,0-2.42,0-3.63c0-2.419,0-4.839,0-7.259c-2.42,0-4.839,0-7.247,0c0-2.419,0-4.84,0-7.26c-9.767,0-19.508,0-29.264,0
	c0,2.42,0,4.84,0,7.26c-2.419,0-4.839,0-7.259,0c-2.421,0-4.853,0-7.272,0c0,2.42,0,4.839,0,7.259c-2.42,0-4.839,0-7.247,0
	c0,0.681,0,1.361,0,2.042c0,0.605,0,1.21,0,1.815C65.56,92.178,65.56,93.388,65.56,94.598z"/>
<path fill="#848484" d="M65.56,79.853c0,2.42,0,4.839,0,7.259c2.408,0,4.827,0,7.247,0c0-2.419,0-4.839,0-7.259
	C70.387,79.853,67.968,79.853,65.56,79.853z"/>
<path fill="#232034" d="M65.56,72.593c0,2.42,0,4.84,0,7.26c2.408,0,4.827,0,7.247,0s4.852,0,7.272,0c0-2.419,0-4.84,0-7.26
	C75.227,72.593,70.387,72.593,65.56,72.593z"/>
<path fill="#232034" d="M72.807,152.672c0,2.42,0,4.84,0,7.26c2.42,0,4.852,0,7.272,0c0-2.42,0-4.84,0-7.26
	C77.658,152.672,75.227,152.672,72.807,152.672z"/>
<path fill="#C3CAD1" d="M72.807,145.413c0,2.42,0,4.839,0,7.259c2.42,0,4.852,0,7.272,0c0-2.42,0-4.839,0-7.259
	C77.658,145.413,75.227,145.413,72.807,145.413z"/>
<path fill="#232034" d="M72.807,130.895c0,2.42,0,4.84,0,7.259c2.42,0,4.852,0,7.272,0c0-2.419,0-4.839,0-7.259
	C77.658,130.895,75.227,130.895,72.807,130.895z"/>
<path fill="#C3CAD1" d="M72.807,123.635c0,2.42,0,4.84,0,7.26c2.42,0,4.852,0,7.272,0c0-2.42,0-4.84,0-7.26
	C77.658,123.635,75.227,123.635,72.807,123.635z"/>
<path fill="#010101" d="M72.807,116.376c0,2.419,0,4.839,0,7.259c2.42,0,4.852,0,7.272,0c0-2.42,0-4.84,0-7.259
	C77.658,116.376,75.227,116.376,72.807,116.376z"/>
<path fill="#232034" d="M80.079,159.932c0,2.42,0,4.84,0,7.26c7.259,0,14.519,0,21.765,0c2.42,0,4.84,0,7.272,0
	c0-2.42,0-4.84,0-7.26C99.424,159.932,89.758,159.932,80.079,159.932z"/>
<path fill="#848484" d="M80.079,101.857c0,2.42,0,4.84,0,7.259c2.42,0,4.84,0,7.259,0c0-2.419,0-4.839,0-7.259
	C84.919,101.857,82.499,101.857,80.079,101.857z"/>
<path fill="#848484" d="M80.079,72.593c0,2.42,0,4.84,0,7.26c2.42,0,4.84,0,7.259,0c0-2.419,0-4.84,0-7.26
	C84.919,72.593,82.499,72.593,80.079,72.593z"/>
<path fill="#DFF3FD" d="M108.436,36.297c-0.391,0-0.769,0-1.135,0c-0.466,0-0.906,0-1.361,0c-0.377,0-0.755,0-1.146,0
	c-0.44,0-0.907,0-1.348,0c-1.753,0-3.492,0-5.23,0c-0.366,0-0.744,0-1.121,0c-0.455,0-0.921,0-1.361,0c-0.392,0-0.77,0-1.135,0
	c-0.467,0-0.907,0-1.374,0c-1.727,0-3.466,0-5.205,0c-0.239,0-0.466,0-0.681,0c0,2.419,0,4.839,0,7.259c-2.419,0-4.839,0-7.259,0
	c0,0.227,0,0.454,0,0.681c0,0.227,0,0.454,0,0.681c0,0.454,0,0.908,0,1.361c0,0.907,0,1.814,0,2.722c0,1.815,0,3.629,0,5.444
	c0,3.629,0,7.26,0,10.889c2.42,0,4.84,0,7.259,0c0-4.84,0-9.679,0-14.519c9.756,0,19.497,0,29.264,0c0,2.419,0,4.839,0,7.259
	c2.408,0,4.827,0,7.247,0c0,2.42,0,4.84,0,7.26c0,2.419,0,4.839,0,7.259c2.42,0,4.852,0,7.272,0c0,2.42,0,4.84,0,7.26
	c2.42,0,4.84,0,7.259,0c0,2.42,0,4.839,0,7.259c2.42,0,4.84,0,7.26,0c2.407,0,4.827,0,7.246,0c0-4.839,0-9.678,0-14.519
	c-2.419,0-4.839,0-7.246,0c0-2.419,0-4.839,0-7.259c-4.84,0-9.679,0-14.519,0c0-4.84,0-9.679,0-14.519c-2.421,0-4.853,0-7.272,0
	c0-2.42,0-4.84,0-7.26c-4.902,0-9.83,0-14.732,0c0-2.42,0-4.839,0-7.259C108.877,36.297,108.662,36.297,108.436,36.297z"/>
<path fill="#E7F6FD" d="M87.338,109.116c0,2.42,0,4.84,0,7.26c2.42,0,4.84,0,7.26,0c0-2.42,0-4.84,0-7.26
	C92.178,109.116,89.758,109.116,87.338,109.116z"/>
<path fill="#E7F6FD" d="M87.338,50.815c0,4.839,0,9.679,0,14.519c0.303,0,0.593,0,0.907,0c0.151,0,0.303,0,0.454,0
	c0.378,0,0.744,0,1.121,0c0.77,0,1.513,0,2.282,0c1.499,0,3.012,0,4.536,0c0.744,0,1.513,0,2.257,0c0.769,0,1.524,0,2.268,0
	c1.513,0,3.038,0,4.551,0c0.743,0,1.499,0,2.268,0c0.744,0,1.513,0,2.257,0c1.524,0,3.037,0,4.55,0c0.756,0,1.499,0,2.269,0
	c0.743,0,1.499,0,2.268,0c1.513,0,3.025,0,4.524,0c0-2.42,0-4.84,0-7.26c-2.42,0-4.839,0-7.247,0c0-2.419,0-4.839,0-7.259
	C106.835,50.815,97.094,50.815,87.338,50.815z"/>
<path fill="#232034" d="M114.788,65.334c-1.513,0-3.025,0-4.55,0c-0.744,0-1.513,0-2.257,0c-0.769,0-1.524,0-2.268,0
	c-1.513,0-3.038,0-4.551,0c-0.743,0-1.499,0-2.268,0c-0.744,0-1.513,0-2.257,0c-1.524,0-3.037,0-4.536,0c-0.77,0-1.513,0-2.282,0
	c-0.377,0-0.743,0-1.121,0c-0.151,0-0.303,0-0.454,0c-0.314,0-0.604,0-0.907,0c-2.419,0-4.839,0-7.259,0c0,2.419,0,4.839,0,7.259
	c2.42,0,4.84,0,7.259,0c9.756,0,19.497,0,29.264,0c2.408,0,4.827,0,7.247,0c0-2.419,0-4.839,0-7.259c-1.499,0-3.012,0-4.524,0
	c-0.769,0-1.524,0-2.268,0C116.287,65.334,115.544,65.334,114.788,65.334z"/>
<path fill="#010101" d="M108.877,101.857c-0.366,0-0.744,0-1.122,0c-0.454,0-0.92,0-1.36,0c-0.24,0-0.455,0-0.681,0
	c-0.24,0-0.454,0-0.681,0c-0.24,0-0.467,0-0.681,0c-0.228,0-0.467,0-0.681,0c-0.227,0-0.467,0-0.681,0c-0.227,0-0.467,0-0.681,0
	c-0.467,0-0.907,0-1.361,0c-0.227,0-0.467,0-0.681,0c-0.227,0-0.467,0-0.681,0c-0.227,0-0.467,0-0.692,0c-0.215,0-0.442,0-0.681,0
	c-0.215,0-0.441,0-0.681,0c-0.215,0-0.44,0-0.681,0c-0.44,0-0.895,0-1.361,0c-0.214,0-0.44,0-0.681,0c-0.214,0-0.44,0-0.681,0
	c-0.214,0-0.44,0-0.681,0c-0.227,0-0.44,0-0.668,0c-0.239,0-0.453,0-0.68,0c-0.24,0-0.454,0-0.681,0c-0.454,0-0.921,0-1.361,0
	c-0.92,0-1.815,0-2.723,0c0,2.42,0,4.84,0,7.259c2.42,0,4.84,0,7.26,0c0,2.42,0,4.84,0,7.26c2.407,0,4.826,0,7.246,0
	c0-2.42,0-4.84,0-7.26c2.42,0,4.84,0,7.272,0c0-2.419,0-4.839,0-7.259C109.04,101.857,108.965,101.857,108.877,101.857z"/>
<path fill="#C3CAD1" d="M114.788,145.413c-0.605,0-1.211,0-1.815,0c-0.618,0-1.21,0-1.828,0c-0.592,0-1.21,0-1.802,0
	c-0.617,0-1.21,0-1.827,0c-0.592,0-1.21,0-1.802,0c-0.618,0-1.21,0-1.828,0c-0.681,0-1.361,0-2.042,0c0,2.42,0,4.839,0,7.259
	c-7.246,0-14.506,0-21.765,0c0,2.42,0,4.84,0,7.26c9.679,0,19.345,0,29.037,0c0-2.42,0-4.84,0-7.26c2.495,0,4.991,0,7.485,0
	c0-2.42,0-4.839,0-7.259C115.998,145.413,115.393,145.413,114.788,145.413z"/>
<path fill="#DFF3FD" d="M109.116,159.932c0,2.42,0,4.84,0,7.26c4.902,0,9.83,0,14.732,0c0-2.42,0-4.84,0-7.26
	C118.946,159.932,114.019,159.932,109.116,159.932z"/>
<path fill="#232034" d="M109.116,152.672c0,2.42,0,4.84,0,7.26c4.902,0,9.83,0,14.732,0c0-2.42,0-4.84,0-7.26
	c-2.42,0-4.839,0-7.247,0C114.107,152.672,111.611,152.672,109.116,152.672z"/>
<path fill="#848484" d="M123.849,94.598c2.42,0,4.852,0,7.272,0c0,2.42,0,4.84,0,7.26c-4.853,0-9.692,0-14.52,0
	c0,2.42,0,4.84,0,7.259c-0.604,0-1.209,0-1.813,0c-0.605,0-1.211,0-1.815,0c-0.618,0-1.21,0-1.828,0c-0.681,0-1.349,0-2.028,0
	c0,3.63,0,7.26,0,10.89c0,3.629,0,7.259,0,10.889c0.227,0,0.441,0,0.68,0c0.139,0,0.29,0,0.442,0c0.314,0,0.617,0,0.906,0
	c0.303,0,0.618,0,0.921,0c0.289,0,0.592,0,0.907,0c0.604,0,1.21,0,1.815,0c0.604,0,1.21,0,1.813,0c0-2.42,0-4.84,0-7.26
	c2.408,0,4.827,0,7.247,0c0-2.42,0-4.84,0-7.259c2.42,0,4.852,0,7.272,0c0-2.42,0-4.84,0-7.26c2.42,0,4.84,0,7.259,0
	c0-1.891,0-3.78,0-5.671c0-1.815,0-3.63,0-5.444c0-1.815,0-3.63,0-5.444c0-1.815,0-3.63,0-5.445c-2.419,0-4.839,0-7.259,0
	c0-2.419,0-4.839,0-7.259c-2.421,0-4.853,0-7.272,0c0,2.42,0,4.839,0,7.259c0,1.21,0,2.42,0,3.63c0,0.605,0,1.21,0,1.815
	C123.849,93.236,123.849,93.917,123.849,94.598z"/>
<path fill="#C3CAD1" d="M114.788,130.895c-0.605,0-1.211,0-1.815,0c-0.315,0-0.618,0-0.907,0c-0.303,0-0.618,0-0.921,0
	c-0.289,0-0.592,0-0.906,0c-0.152,0-0.304,0-0.442,0c-0.238,0-0.453,0-0.68,0c0,2.42,0,4.84,0,7.259c0.227,0,0.441,0,0.68,0
	c0.139,0,0.29,0,0.442,0c0.314,0,0.617,0,0.906,0c0.618,0,1.21,0,1.828,0c0.604,0,1.21,0,1.815,0c0.604,0,1.21,0,1.813,0
	c0-2.419,0-4.839,0-7.259C115.998,130.895,115.393,130.895,114.788,130.895z"/>
<path fill="#010101" d="M114.788,138.153c-0.605,0-1.211,0-1.815,0c-0.618,0-1.21,0-1.828,0c-0.289,0-0.592,0-0.906,0
	c-0.152,0-0.304,0-0.442,0c-0.238,0-0.453,0-0.68,0c0-2.419,0-4.839,0-7.259c-2.433,0-4.853,0-7.272,0c0-2.42,0-4.84,0-7.26
	c-2.42,0-4.839,0-7.246,0c0,2.42,0,4.84,0,7.26c-2.42,0-4.84,0-7.26,0c0-2.42,0-4.84,0-7.26c-2.419,0-4.839,0-7.259,0
	c0,2.42,0,4.84,0,7.26s0,4.84,0,7.259c-2.421,0-4.853,0-7.272,0c0,2.42,0,4.841,0,7.26c2.42,0,4.852,0,7.272,0
	c0,2.42,0,4.839,0,7.259c7.259,0,14.519,0,21.765,0c0-2.42,0-4.839,0-7.259c0.681,0,1.361,0,2.042,0c0.618,0,1.21,0,1.828,0
	c0.592,0,1.21,0,1.802,0c0.617,0,1.21,0,1.827,0c0.592,0,1.21,0,1.802,0c0.618,0,1.21,0,1.828,0c0.604,0,1.21,0,1.815,0
	c0.604,0,1.21,0,1.813,0c0-2.419,0-4.84,0-7.26C115.998,138.153,115.393,138.153,114.788,138.153z"/>
<path fill="#848484" d="M116.602,145.413c0,2.42,0,4.839,0,7.259c2.408,0,4.827,0,7.247,0c0-2.42,0-4.839,0-7.259
	C121.429,145.413,119.01,145.413,116.602,145.413z"/>
<path fill="#C3CAD1" d="M116.602,138.153c0,2.42,0,4.841,0,7.26c2.408,0,4.827,0,7.247,0c0-2.419,0-4.84,0-7.26
	C121.429,138.153,119.01,138.153,116.602,138.153z"/>
<path fill="#232034" d="M116.602,130.895c0,2.42,0,4.84,0,7.259c2.408,0,4.827,0,7.247,0c0-2.419,0-4.839,0-7.259
	c2.42,0,4.852,0,7.272,0c0-2.42,0-4.84,0-7.26c2.42,0,4.84,0,7.259,0c0-2.42,0-4.84,0-7.259c2.42,0,4.84,0,7.26,0
	c0-2.42,0-4.84,0-7.26c0-2.419,0-4.839,0-7.259s0-4.84,0-7.26c0-1.21,0-2.42,0-3.629c0-0.605,0-1.21,0-1.815
	c0-0.681,0-1.361,0-2.042c-2.42,0-4.84,0-7.26,0c0,1.815,0,3.63,0,5.445c0,1.814,0,3.629,0,5.444c0,1.814,0,3.629,0,5.444
	c0,1.891,0,3.78,0,5.671c-2.419,0-4.839,0-7.259,0c0,2.42,0,4.84,0,7.26c-2.421,0-4.853,0-7.272,0c0,2.419,0,4.839,0,7.259
	c-2.42,0-4.839,0-7.247,0C116.602,126.055,116.602,128.475,116.602,130.895z"/>
<path fill="#848484" d="M116.602,72.593c0,2.42,0,4.84,0,7.26c2.408,0,4.827,0,7.247,0c0-2.419,0-4.84,0-7.26
	C121.429,72.593,119.01,72.593,116.602,72.593z"/>
<path fill="#232034" d="M123.849,145.413c0,2.42,0,4.839,0,7.259c2.42,0,4.852,0,7.272,0c0-4.839,0-9.678,0-14.519
	c-2.421,0-4.853,0-7.272,0C123.849,140.573,123.849,142.994,123.849,145.413z"/>
<path fill="#232034" d="M123.849,72.593c0,2.42,0,4.84,0,7.26c2.42,0,4.852,0,7.272,0c0-2.419,0-4.84,0-7.26
	C128.7,72.593,126.269,72.593,123.849,72.593z"/>
<path fill="#232034" d="M131.121,79.853c0,2.42,0,4.839,0,7.259c2.42,0,4.84,0,7.259,0c0-2.419,0-4.839,0-7.259
	C135.961,79.853,133.541,79.853,131.121,79.853z"/>
<path fill="#DFF3FD" d="M138.38,116.376c0,2.419,0,4.839,0,7.259c4.84,0,9.667,0,14.506,0c0-0.076,0-0.151,0-0.227
	c0-2.117,0-4.234,0-6.352c0-0.227,0-0.454,0-0.681c-2.419,0-4.839,0-7.246,0C143.22,116.376,140.8,116.376,138.38,116.376z"/>
<path fill="#DFF3FD" d="M138.38,130.895c0,2.42,0,4.84,0,7.259c2.42,0,4.84,0,7.26,0c0-1.134,0-2.269,0-3.402
	c0-1.06,0-2.117,0-3.176c0-0.228,0-0.454,0-0.681c-0.089,0-0.164,0-0.227,0c-0.24,0-0.454,0-0.681,0c-0.378,0-0.77,0-1.147,0
	c-0.517,0-1.046,0-1.575,0c-0.315,0-0.618,0-0.907,0c-0.24,0-0.454,0-0.681,0c-0.24,0-0.454,0-0.681,0c-0.239,0-0.454,0-0.681,0
	C138.821,130.895,138.595,130.895,138.38,130.895z"/>
<path fill="#FFFFFF" d="M189.194,101.177c0,0.227,0,0.454,0,0.681c-2.432,0-4.852,0-7.271,0c0,9.679,0,19.357,0,29.037
	c-2.419,0-4.826,0-7.246,0c0,1.814,0,3.629,0,5.444c0,1.814,0,3.63,0,5.444c0,1.815,0,3.63,0,5.445c0,1.814,0,3.629,0,5.443
	c-4.84,0-9.679,0-14.519,0c0,2.42,0,4.84,0,7.26c-2.433,0-4.853,0-7.272,0c0,4.84,0,9.679,0,14.519c-7.246,0-14.506,0-21.765,0
	c0,2.495,0,4.991,0,7.486c4.84,0,9.679,0,14.519,0c0,2.42,0,4.839,0,7.259c4.827,0,9.666,0,14.519,0c0-2.42,0-4.839,0-7.259
	c2.42,0,4.84,0,7.26,0c0-4.915,0-9.831,0-14.745c2.419,0,4.839,0,7.259,0c0-2.42,0-4.84,0-7.26c2.42,0,4.827,0,7.246,0
	c0-2.42,0-4.84,0-7.26c2.42,0,4.84,0,7.271,0c0-0.377,0-0.756,0-1.134c0-0.151,0-0.303,0-0.454c0-0.227,0-0.453,0-0.68
	c0-0.152,0-0.303,0-0.455c0-0.227,0-0.453,0-0.68c0-0.151,0-0.303,0-0.454c0-0.226,0-0.453,0-0.681c0-0.756,0-1.512,0-2.268
	c0-0.152,0-0.303,0-0.454c0-0.228,0-0.454,0-0.681c0-0.151,0-0.303,0-0.454c0-0.227,0-0.454,0-0.68c0-1.437,0-2.874,0-4.312
	c0-0.755,0-1.512,0-2.268c0-0.151,0-0.303,0-0.453c0-0.228,0-0.455,0-0.682c0-0.15,0-0.303,0-0.453c0-0.227,0-0.454,0-0.681
	c0-1.437,0-2.874,0-4.311c0-0.756,0-1.513,0-2.269c0-0.151,0-0.302,0-0.453c0-0.227,0-0.454,0-0.681c0-0.151,0-0.303,0-0.454
	c0-0.227,0-0.453,0-0.68c0-1.438,0-2.874,0-4.311c0-0.756,0-1.513,0-2.27c0-0.15,0-0.302,0-0.453c0-0.227,0-0.453,0-0.681
	c0-0.151,0-0.303,0-0.453c0-0.228,0-0.454,0-0.681s0-0.454,0-0.681c2.421,0,4.841,0,7.261,0c0-2.42,0-4.84,0-7.26
	c2.42,0,4.839,0,7.259,0c0-4.839,0-9.679,0-14.519c-2.42,0-4.839,0-7.259,0c0-1.815,0-3.629,0-5.444c0-1.814,0-3.629,0-5.444
	c0-1.815,0-3.63,0-5.445c0-1.89,0-3.781,0-5.671c2.42,0,4.839,0,7.259,0c0-0.227,0-0.453,0-0.681c0-0.226,0-0.453,0-0.68
	c0-0.454,0-0.907,0-1.361c0-0.908,0-1.815,0-2.723c0-1.814,0-3.629,0-5.444c0-1.815,0-3.63,0-5.445c0-1.815,0-3.63,0-5.444
	c-2.42,0-4.839,0-7.259,0c0-2.42,0-4.84,0-7.26c-7.261,0-14.532,0-21.778,0c0-4.839,0-9.679,0-14.519c-2.42,0-4.84,0-7.259,0
	c0-2.42,0-4.839,0-7.259c-2.42,0-4.84,0-7.26,0c0,4.839,0,9.68,0,14.519c2.42,0,4.84,0,7.26,0c0,4.839,0,9.679,0,14.519
	c4.839,0,9.679,0,14.505,0c0,4.839,0,9.679,0,14.519c2.42,0,4.84,0,7.271,0c0,0.151,0,0.302,0,0.454c0,0.681,0,1.361,0,2.042
	c0,0.151,0,0.302,0,0.454c0,0.227,0,0.454,0,0.681c0,0.151,0,0.303,0,0.454c0,0.227,0,0.454,0,0.681c0,0.151,0,0.303,0,0.454
	c0,0.227,0,0.454,0,0.681c0,0.151,0,0.303,0,0.454c0,0.226,0,0.454,0,0.68c0,0.151,0,0.302,0,0.454c0,0.227,0,0.454,0,0.681
	c0,0.151,0,0.302,0,0.454c0,0.227,0,0.454,0,0.681c0,0.151,0,0.303,0,0.454c0,0.227,0,0.454,0,0.681c0,0.151,0,0.303,0,0.454
	c0,0.227,0,0.454,0,0.681c0,0.151,0,0.303,0,0.454c0,0.226,0,0.453,0,0.681c0,0.15,0,0.302,0,0.453c0,0.227,0,0.454,0,0.681
	c0,0.151,0,0.302,0,0.454c0,0.227,0,0.454,0,0.681c0,0.151,0,0.303,0,0.454c0,0.227,0,0.454,0,0.681c0,0.151,0,0.303,0,0.453
	c0,0.228,0,0.454,0,0.681c0,0.151,0,0.303,0,0.454c0,0.227,0,0.454,0,0.681c0,0.151,0,0.302,0,0.454c0,0.227,0,0.454,0,0.681
	c0,0.151,0,0.302,0,0.454c0,0.227,0,0.454,0,0.681c0,0.151,0,0.303,0,0.454c0,0.227,0,0.454,0,0.68c0,0.151,0,0.303,0,0.454
	c0,0.227,0,0.455,0,0.681c0,0.151,0,0.303,0,0.454c0,0.227,0,0.454,0,0.681c0,0.151,0,0.302,0,0.454c0,0.227,0,0.454,0,0.681
	c0,0.151,0,0.302,0,0.454c0,0.227,0,0.454,0,0.681c0,0.151,0,0.303,0,0.454c0,0.227,0,0.454,0,0.68c0,0.151,0,0.303,0,0.454
	c0,0.227,0,0.454,0,0.681c0,0.151,0,0.303,0,0.454c0,0.227,0,0.454,0,0.681c0,0.151,0,0.302,0,0.454c0,0.227,0,0.454,0,0.681
	c0,0.151,0,0.302,0,0.454c0,0.227,0,0.453,0,0.681c0,0.151,0,0.303,0,0.453c0,0.228,0,0.454,0,0.681c0,0.151,0,0.303,0,0.454
	c0,0.227,0,0.454,0,0.681c0,0.151,0,0.303,0,0.454c0,0.227,0,0.454,0,0.681C189.194,100.874,189.194,101.025,189.194,101.177z"/>
<g id="XMLID_2_">
	<g>
		<path fill="#232034" d="M124.52,173.931c0,2.33,0,4.67,0,7c2.42,0,4.83,0,7.26,0c0-2.25,0-4.49,0-6.74c-0.09,0-0.17,0-0.26,0
			c0-0.09,0-0.17,0-0.26C129.18,173.931,126.85,173.931,124.52,173.931z"/>
		<path fill="#232034" d="M124.52,181.19c0,2.25,0,4.49,0,6.74c2.42,0,4.83,0,7.26,0c0-2.25,0-4.49,0-6.74c-0.229,0-0.449,0-0.68,0
			c-1.07,0-2.12,0-3.18,0c-0.53,0-1.07,0-1.59,0c-0.301,0-0.601,0-0.9,0C125.119,181.19,124.819,181.19,124.52,181.19z"/>
		<path fill="#232034" d="M124.52,188.19c0,1.45,0,3.78,0,7c0.3,0,0.6,0,0.91,0c0.3,0,0.6,0,0.9,0c0.52,0,1.06,0,1.59,0
			c1.06,0,2.109,0,3.18,0c0.14,0,0.28,0,0.42,0c0-0.09,0-0.17,0-0.26c0.09,0,0.17,0,0.26,0c0-2.25,0-4.49,0-6.74
			c-0.229,0-0.449,0-0.68,0c-1.07,0-2.12,0-3.18,0c-0.53,0-1.07,0-1.59,0c-0.301,0-0.601,0-0.9,0
			C125.119,188.19,124.819,188.19,124.52,188.19z"/>
		<path fill="#232034" d="M131.779,187.931c-2.43,0-4.84,0-7.26,0c0,0.08,0,0.17,0,0.26c0.3,0,0.6,0,0.91,0c0.3,0,0.6,0,0.9,0
			c0.52,0,1.06,0,1.59,0c1.06,0,2.109,0,3.18,0c0.23,0,0.45,0,0.68,0C131.779,188.101,131.779,188.021,131.779,187.931z"/>
		<path fill="#232034" d="M131.779,180.931c-2.43,0-4.84,0-7.26,0c0,0.09,0,0.17,0,0.26c0.3,0,0.6,0,0.91,0c0.3,0,0.6,0,0.9,0
			c0.52,0,1.06,0,1.59,0c1.06,0,2.109,0,3.18,0c0.23,0,0.45,0,0.68,0C131.779,181.101,131.779,181.021,131.779,180.931z"/>
		<path fill="#232034" d="M131.52,195.19c0,2.33,0,4.67,0,7c0.3,0,0.6,0,0.91,0c0.3,0,0.6,0,0.9,0c0.52,0,1.06,0,1.59,0
			c1.06,0,2.109,0,3.18,0c0.23,0,0.45,0,0.68,0c0-2.33,0-4.67,0-7c-0.09,0-0.17,0-0.26,0c0-0.09,0-0.17,0-0.26
			c-2.26,0-4.49,0-6.74,0c0,0.09,0,0.17,0,0.26C131.689,195.19,131.609,195.19,131.52,195.19z"/>
		<path fill="#232034" d="M131.52,194.931c0,0.09,0,0.17,0,0.26c0.09,0,0.17,0,0.26,0c0-0.09,0-0.17,0-0.26
			C131.689,194.931,131.609,194.931,131.52,194.931z"/>
		<path fill="#232034" d="M131.52,173.931c0,0.09,0,0.17,0,0.26c0.09,0,0.17,0,0.26,0c0-0.09,0-0.17,0-0.26
			C131.689,173.931,131.609,173.931,131.52,173.931z"/>
		<path fill="#232034" d="M131.52,166.931c0,2.33,0,4.67,0,7c0.09,0,0.17,0,0.26,0c0,0.09,0,0.17,0,0.26c0.21,0,0.431,0,0.65,0
			c0.3,0,0.6,0,0.9,0c0.52,0,1.06,0,1.59,0c1.06,0,2.109,0,3.18,0c0.14,0,0.28,0,0.42,0c0-2.42,0-4.84,0-7.26
			C136.18,166.931,133.85,166.931,131.52,166.931z"/>
		<path fill="#C3CAD1" d="M131.779,174.19c0,2.25,0,4.49,0,6.74c0,0.09,0,0.17,0,0.26c0,2.25,0,4.49,0,6.74c0,0.09,0,0.17,0,0.26
			c0,2.25,0,4.49,0,6.74c2.25,0,4.48,0,6.74,0c0-2.25,0-4.49,0-6.74c0-0.09,0-0.17,0-0.26c0-2.33,0-4.67,0-7c2.42,0,4.83,0,7.26,0
			c0,2.33,0,4.67,0,7c0,0.09,0,0.17,0,0.26c0,2.25,0,4.49,0,6.74c2.25,0,4.48,0,6.74,0c0-2.25,0-4.49,0-6.74c0-0.08,0-0.17,0-0.26
			c0-1.45,0-3.78,0-7c2.42,0,4.83,0,7.26,0c0,2.33,0,4.67,0,7c0,0.09,0,0.17,0,0.26c0,2.25,0,4.49,0,6.74c2.25,0,4.48,0,6.74,0
			c0-2.25,0-4.49,0-6.74c0-0.09,0-0.17,0-0.26c0-2.25,0-4.49,0-6.74c0-0.09,0-0.17,0-0.26c0-2.25,0-4.49,0-6.74
			c-0.14,0-0.28,0-0.42,0c-1.07,0-2.12,0-3.18,0c-0.53,0-1.07,0-1.59,0c-0.301,0-0.601,0-0.9,0c-0.22,0-0.44,0-0.65,0
			c-0.09,0-0.17,0-0.26,0c-0.14,0-0.28,0-0.42,0c-1.07,0-2.12,0-3.18,0c-0.53,0-1.07,0-1.59,0c-0.301,0-0.601,0-0.9,0
			c-0.22,0-0.44,0-0.65,0c-0.09,0-0.17,0-0.26,0c-0.14,0-0.28,0-0.42,0c-1.07,0-2.12,0-3.18,0c-0.53,0-1.07,0-1.59,0
			c-0.301,0-0.601,0-0.9,0c-0.22,0-0.44,0-0.65,0c-0.09,0-0.17,0-0.26,0c-0.14,0-0.28,0-0.42,0c-1.07,0-2.12,0-3.18,0
			c-0.53,0-1.07,0-1.59,0c-0.301,0-0.601,0-0.9,0c-0.22,0-0.44,0-0.65,0c-0.09,0-0.17,0-0.26,0c-0.14,0-0.28,0-0.42,0
			c-1.07,0-2.12,0-3.18,0c-0.53,0-1.07,0-1.59,0c-0.301,0-0.601,0-0.9,0C132.21,174.19,131.989,174.19,131.779,174.19z"/>
		<path fill="#232034" d="M138.52,194.931c0,0.09,0,0.17,0,0.26c0.09,0,0.17,0,0.26,0c0-0.09,0-0.17,0-0.26
			C138.689,194.931,138.609,194.931,138.52,194.931z"/>
		<path fill="#232034" d="M138.52,180.931c0,2.33,0,4.67,0,7c2.42,0,4.83,0,7.26,0c0-2.33,0-4.67,0-7
			C143.35,180.931,140.939,180.931,138.52,180.931z"/>
		<path fill="#232034" d="M138.52,166.931c0,2.42,0,4.84,0,7.26c0.09,0,0.17,0,0.26,0c0-2.42,0-4.84,0-7.26
			C138.689,166.931,138.609,166.931,138.52,166.931z"/>
		<path fill="#232034" d="M138.52,188.19c0,2.25,0,4.49,0,6.74c0.09,0,0.17,0,0.26,0c0,0.09,0,0.17,0,0.26c0.21,0,0.431,0,0.65,0
			c0.3,0,0.6,0,0.9,0c0.52,0,1.06,0,1.59,0c1.06,0,2.109,0,3.18,0c0.14,0,0.28,0,0.42,0c0-0.09,0-0.17,0-0.26c0.09,0,0.17,0,0.26,0
			c0-2.25,0-4.49,0-6.74c-0.229,0-0.449,0-0.68,0c-1.07,0-2.12,0-3.18,0c-0.53,0-1.07,0-1.59,0c-0.301,0-0.601,0-0.9,0
			C139.119,188.19,138.819,188.19,138.52,188.19z"/>
		<path fill="#232034" d="M138.779,166.931c0,2.42,0,4.84,0,7.26c0.21,0,0.431,0,0.65,0c0.3,0,0.6,0,0.9,0c0.52,0,1.06,0,1.59,0
			c1.06,0,2.109,0,3.18,0c0.14,0,0.28,0,0.42,0c0-2.42,0-4.84,0-7.26C143.26,166.931,141.029,166.931,138.779,166.931z"/>
		<path fill="#232034" d="M145.779,187.931c-2.43,0-4.84,0-7.26,0c0,0.09,0,0.17,0,0.26c0.3,0,0.6,0,0.91,0c0.3,0,0.6,0,0.9,0
			c0.52,0,1.06,0,1.59,0c1.06,0,2.109,0,3.18,0c0.23,0,0.45,0,0.68,0C145.779,188.101,145.779,188.021,145.779,187.931z"/>
		<path fill="#232034" d="M145.52,195.19c0,2.33,0,4.67,0,7c0.3,0,0.6,0,0.91,0c0.3,0,0.6,0,0.9,0c0.52,0,1.06,0,1.59,0
			c1.06,0,2.109,0,3.18,0c0.23,0,0.45,0,0.68,0c0-2.33,0-4.67,0-7c-0.09,0-0.17,0-0.26,0c0-0.09,0-0.17,0-0.26
			c-2.26,0-4.49,0-6.74,0c0,0.09,0,0.17,0,0.26C145.689,195.19,145.609,195.19,145.52,195.19z"/>
		<path fill="#232034" d="M145.52,194.931c0,0.09,0,0.17,0,0.26c0.09,0,0.17,0,0.26,0c0-0.09,0-0.17,0-0.26
			C145.689,194.931,145.609,194.931,145.52,194.931z"/>
		<path fill="#232034" d="M145.52,166.931c0,2.42,0,4.84,0,7.26c0.09,0,0.17,0,0.26,0c0-2.42,0-4.84,0-7.26
			C145.689,166.931,145.609,166.931,145.52,166.931z"/>
		<path fill="#232034" d="M145.779,166.931c0,2.42,0,4.84,0,7.26c0.21,0,0.431,0,0.65,0c0.3,0,0.6,0,0.9,0c0.52,0,1.06,0,1.59,0
			c1.06,0,2.109,0,3.18,0c0.14,0,0.28,0,0.42,0c0-2.42,0-4.84,0-7.26C150.26,166.931,148.029,166.931,145.779,166.931z"/>
		<path fill="#232034" d="M152.52,194.931c0,0.09,0,0.17,0,0.26c0.09,0,0.17,0,0.26,0c0-0.09,0-0.17,0-0.26
			C152.689,194.931,152.609,194.931,152.52,194.931z"/>
		<path fill="#232034" d="M152.52,180.931c0,3.22,0,5.55,0,7c2.42,0,4.83,0,7.26,0c0-2.33,0-4.67,0-7
			C157.35,180.931,154.939,180.931,152.52,180.931z"/>
		<path fill="#232034" d="M152.52,166.931c0,2.42,0,4.84,0,7.26c0.09,0,0.17,0,0.26,0c0-2.42,0-4.84,0-7.26
			C152.689,166.931,152.609,166.931,152.52,166.931z"/>
		<path fill="#232034" d="M152.52,188.19c0,2.25,0,4.49,0,6.74c0.09,0,0.17,0,0.26,0c0,0.09,0,0.17,0,0.26c0.21,0,0.431,0,0.65,0
			c0.3,0,0.6,0,0.9,0c0.52,0,1.06,0,1.59,0c1.06,0,2.109,0,3.18,0c0.14,0,0.28,0,0.42,0c0-0.09,0-0.17,0-0.26c0.09,0,0.17,0,0.26,0
			c0-2.25,0-4.49,0-6.74c-0.229,0-0.449,0-0.68,0c-1.07,0-2.12,0-3.18,0c-0.53,0-1.07,0-1.59,0c-0.301,0-0.601,0-0.9,0
			C153.119,188.19,152.819,188.19,152.52,188.19z"/>
		<path fill="#232034" d="M152.779,166.931c0,2.42,0,4.84,0,7.26c0.21,0,0.431,0,0.65,0c0.3,0,0.6,0,0.9,0c0.52,0,1.06,0,1.59,0
			c1.06,0,2.109,0,3.18,0c0.14,0,0.28,0,0.42,0c0-2.42,0-4.84,0-7.26C157.26,166.931,155.029,166.931,152.779,166.931z"/>
		<path fill="#232034" d="M159.779,187.931c-2.43,0-4.84,0-7.26,0c0,0.09,0,0.18,0,0.26c0.3,0,0.6,0,0.91,0c0.3,0,0.6,0,0.9,0
			c0.52,0,1.06,0,1.59,0c1.06,0,2.109,0,3.18,0c0.23,0,0.45,0,0.68,0C159.779,188.101,159.779,188.021,159.779,187.931z"/>
		<path fill="#232034" d="M159.52,195.19c0,2.33,0,4.67,0,7c0.3,0,0.6,0,0.91,0c0.3,0,0.6,0,0.9,0c0.52,0,1.06,0,1.59,0
			c1.06,0,2.109,0,3.18,0c0.23,0,0.45,0,0.68,0c0-2.33,0-4.67,0-7c-0.09,0-0.17,0-0.26,0c0-0.09,0-0.17,0-0.26
			c-2.26,0-4.49,0-6.74,0c0,0.09,0,0.17,0,0.26C159.689,195.19,159.609,195.19,159.52,195.19z"/>
		<path fill="#232034" d="M159.52,194.931c0,0.09,0,0.17,0,0.26c0.09,0,0.17,0,0.26,0c0-0.09,0-0.17,0-0.26
			C159.689,194.931,159.609,194.931,159.52,194.931z"/>
		<path fill="#232034" d="M159.52,166.931c0,2.42,0,4.84,0,7.26c0.09,0,0.17,0,0.26,0c0-2.42,0-4.84,0-7.26
			C159.689,166.931,159.609,166.931,159.52,166.931z"/>
		<path fill="#232034" d="M159.779,166.931c0,2.42,0,4.84,0,7.26c0.21,0,0.431,0,0.65,0c0.3,0,0.6,0,0.9,0c0.52,0,1.06,0,1.59,0
			c1.06,0,2.109,0,3.18,0c0.14,0,0.28,0,0.42,0c0-0.09,0-0.17,0-0.26c0.09,0,0.17,0,0.26,0c0-2.33,0-4.67,0-7
			C164.439,166.931,162.109,166.931,159.779,166.931z"/>
		<path fill="#232034" d="M166.52,194.931c0,0.09,0,0.17,0,0.26c0.09,0,0.17,0,0.26,0c0-0.09,0-0.17,0-0.26
			C166.689,194.931,166.609,194.931,166.52,194.931z"/>
		<path fill="#232034" d="M166.52,174.19c0,2.25,0,4.49,0,6.74c2.42,0,4.83,0,7.26,0c0-2.33,0-4.67,0-7c-2.34,0-4.67,0-7,0
			c0,0.09,0,0.17,0,0.26C166.689,174.19,166.609,174.19,166.52,174.19z"/>
		<path fill="#232034" d="M166.52,173.931c0,0.09,0,0.17,0,0.26c0.09,0,0.17,0,0.26,0c0-0.09,0-0.17,0-0.26
			C166.689,173.931,166.609,173.931,166.52,173.931z"/>
		<path fill="#232034" d="M166.52,181.19c0,2.25,0,4.49,0,6.74c2.42,0,4.83,0,7.26,0c0-2.25,0-4.49,0-6.74c-0.229,0-0.449,0-0.68,0
			c-1.07,0-2.12,0-3.18,0c-0.53,0-1.07,0-1.59,0c-0.301,0-0.601,0-0.9,0C167.119,181.19,166.819,181.19,166.52,181.19z"/>
		<path fill="#232034" d="M166.52,188.19c0,2.25,0,4.49,0,6.74c0.09,0,0.17,0,0.26,0c0,0.09,0,0.17,0,0.26c0.21,0,0.431,0,0.65,0
			c0.3,0,0.6,0,0.9,0c0.52,0,1.06,0,1.59,0c1.06,0,2.109,0,3.18,0c0.23,0,0.45,0,0.68,0c0-2.33,0-4.67,0-7c-0.229,0-0.449,0-0.68,0
			c-1.07,0-2.12,0-3.18,0c-0.53,0-1.07,0-1.59,0c-0.301,0-0.601,0-0.9,0C167.119,188.19,166.819,188.19,166.52,188.19z"/>
		<path fill="#232034" d="M173.779,187.931c-2.43,0-4.84,0-7.26,0c0,0.09,0,0.17,0,0.26c0.3,0,0.6,0,0.91,0c0.3,0,0.6,0,0.9,0
			c0.52,0,1.06,0,1.59,0c1.06,0,2.109,0,3.18,0c0.23,0,0.45,0,0.68,0C173.779,188.101,173.779,188.021,173.779,187.931z"/>
		<path fill="#232034" d="M173.779,180.931c-2.43,0-4.84,0-7.26,0c0,0.09,0,0.17,0,0.26c0.3,0,0.6,0,0.91,0c0.3,0,0.6,0,0.9,0
			c0.52,0,1.06,0,1.59,0c1.06,0,2.109,0,3.18,0c0.23,0,0.45,0,0.68,0C173.779,181.101,173.779,181.021,173.779,180.931z"/>
	</g>
	<g>
	</g>
</g>
<g id="XMLID_1_">
	<g>
		<path fill="#232034" d="M8.156,173.931c0,2.33,0,4.67,0,7c2.42,0,4.83,0,7.26,0c0-2.25,0-4.49,0-6.74c-0.09,0-0.17,0-0.26,0
			c0-0.09,0-0.17,0-0.26C12.816,173.931,10.486,173.931,8.156,173.931z"/>
		<path fill="#232034" d="M8.156,181.19c0,2.25,0,4.49,0,6.74c2.42,0,4.83,0,7.26,0c0-2.25,0-4.49,0-6.74c-0.23,0-0.45,0-0.68,0
			c-1.07,0-2.12,0-3.18,0c-0.53,0-1.07,0-1.59,0c-0.3,0-0.6,0-0.9,0C8.756,181.19,8.457,181.19,8.156,181.19z"/>
		<path fill="#232034" d="M8.156,188.19c0,1.45,0,3.78,0,7c0.3,0,0.6,0,0.91,0c0.3,0,0.6,0,0.9,0c0.52,0,1.06,0,1.59,0
			c1.06,0,2.11,0,3.18,0c0.14,0,0.28,0,0.42,0c0-0.09,0-0.17,0-0.26c0.09,0,0.17,0,0.26,0c0-2.25,0-4.49,0-6.74
			c-0.23,0-0.45,0-0.68,0c-1.07,0-2.12,0-3.18,0c-0.53,0-1.07,0-1.59,0c-0.3,0-0.6,0-0.9,0C8.756,188.19,8.457,188.19,8.156,188.19z
			"/>
		<path fill="#232034" d="M15.417,187.931c-2.43,0-4.84,0-7.26,0c0,0.08,0,0.17,0,0.26c0.3,0,0.6,0,0.91,0c0.3,0,0.6,0,0.9,0
			c0.52,0,1.06,0,1.59,0c1.06,0,2.11,0,3.18,0c0.23,0,0.45,0,0.68,0C15.417,188.101,15.417,188.021,15.417,187.931z"/>
		<path fill="#232034" d="M15.417,180.931c-2.43,0-4.84,0-7.26,0c0,0.09,0,0.17,0,0.26c0.3,0,0.6,0,0.91,0c0.3,0,0.6,0,0.9,0
			c0.52,0,1.06,0,1.59,0c1.06,0,2.11,0,3.18,0c0.23,0,0.45,0,0.68,0C15.417,181.101,15.417,181.021,15.417,180.931z"/>
		<path fill="#232034" d="M15.156,195.19c0,2.33,0,4.67,0,7c0.3,0,0.6,0,0.91,0c0.3,0,0.6,0,0.9,0c0.52,0,1.06,0,1.59,0
			c1.06,0,2.11,0,3.18,0c0.23,0,0.45,0,0.68,0c0-2.33,0-4.67,0-7c-0.09,0-0.17,0-0.26,0c0-0.09,0-0.17,0-0.26c-2.26,0-4.49,0-6.74,0
			c0,0.09,0,0.17,0,0.26C15.326,195.19,15.246,195.19,15.156,195.19z"/>
		<path fill="#232034" d="M15.156,194.931c0,0.09,0,0.17,0,0.26c0.09,0,0.17,0,0.26,0c0-0.09,0-0.17,0-0.26
			C15.326,194.931,15.246,194.931,15.156,194.931z"/>
		<path fill="#232034" d="M15.156,173.931c0,0.09,0,0.17,0,0.26c0.09,0,0.17,0,0.26,0c0-0.09,0-0.17,0-0.26
			C15.326,173.931,15.246,173.931,15.156,173.931z"/>
		<path fill="#232034" d="M15.156,166.931c0,2.33,0,4.67,0,7c0.09,0,0.17,0,0.26,0c0,0.09,0,0.17,0,0.26c0.21,0,0.43,0,0.65,0
			c0.3,0,0.6,0,0.9,0c0.52,0,1.06,0,1.59,0c1.06,0,2.11,0,3.18,0c0.14,0,0.28,0,0.42,0c0-2.42,0-4.84,0-7.26
			C19.816,166.931,17.486,166.931,15.156,166.931z"/>
		<path fill="#C3CAD1" d="M15.417,174.19c0,2.25,0,4.49,0,6.74c0,0.09,0,0.17,0,0.26c0,2.25,0,4.49,0,6.74c0,0.09,0,0.17,0,0.26
			c0,2.25,0,4.49,0,6.74c2.25,0,4.48,0,6.74,0c0-2.25,0-4.49,0-6.74c0-0.09,0-0.17,0-0.26c0-2.33,0-4.67,0-7c2.42,0,4.83,0,7.26,0
			c0,2.33,0,4.67,0,7c0,0.09,0,0.17,0,0.26c0,2.25,0,4.49,0,6.74c2.25,0,4.48,0,6.74,0c0-2.25,0-4.49,0-6.74c0-0.08,0-0.17,0-0.26
			c0-1.45,0-3.78,0-7c2.42,0,4.83,0,7.26,0c0,2.33,0,4.67,0,7c0,0.09,0,0.17,0,0.26c0,2.25,0,4.49,0,6.74c2.25,0,4.48,0,6.74,0
			c0-2.25,0-4.49,0-6.74c0-0.09,0-0.17,0-0.26c0-2.25,0-4.49,0-6.74c0-0.09,0-0.17,0-0.26c0-2.25,0-4.49,0-6.74
			c-0.14,0-0.28,0-0.42,0c-1.07,0-2.12,0-3.18,0c-0.53,0-1.07,0-1.59,0c-0.3,0-0.6,0-0.9,0c-0.22,0-0.44,0-0.65,0
			c-0.09,0-0.17,0-0.26,0c-0.14,0-0.28,0-0.42,0c-1.07,0-2.12,0-3.18,0c-0.53,0-1.07,0-1.59,0c-0.3,0-0.6,0-0.9,0
			c-0.22,0-0.44,0-0.65,0c-0.09,0-0.17,0-0.26,0c-0.14,0-0.28,0-0.42,0c-1.07,0-2.12,0-3.18,0c-0.53,0-1.07,0-1.59,0
			c-0.3,0-0.6,0-0.9,0c-0.22,0-0.44,0-0.65,0c-0.09,0-0.17,0-0.26,0c-0.14,0-0.28,0-0.42,0c-1.07,0-2.12,0-3.18,0
			c-0.53,0-1.07,0-1.59,0c-0.3,0-0.6,0-0.9,0c-0.22,0-0.44,0-0.65,0c-0.09,0-0.17,0-0.26,0c-0.14,0-0.28,0-0.42,0
			c-1.07,0-2.12,0-3.18,0c-0.53,0-1.07,0-1.59,0c-0.3,0-0.6,0-0.9,0C15.846,174.19,15.626,174.19,15.417,174.19z"/>
		<path fill="#232034" d="M22.156,194.931c0,0.09,0,0.17,0,0.26c0.09,0,0.17,0,0.26,0c0-0.09,0-0.17,0-0.26
			C22.326,194.931,22.246,194.931,22.156,194.931z"/>
		<path fill="#232034" d="M22.156,180.931c0,2.33,0,4.67,0,7c2.42,0,4.83,0,7.26,0c0-2.33,0-4.67,0-7
			C26.986,180.931,24.576,180.931,22.156,180.931z"/>
		<path fill="#232034" d="M22.156,166.931c0,2.42,0,4.84,0,7.26c0.09,0,0.17,0,0.26,0c0-2.42,0-4.84,0-7.26
			C22.326,166.931,22.246,166.931,22.156,166.931z"/>
		<path fill="#232034" d="M22.156,188.19c0,2.25,0,4.49,0,6.74c0.09,0,0.17,0,0.26,0c0,0.09,0,0.17,0,0.26c0.21,0,0.43,0,0.65,0
			c0.3,0,0.6,0,0.9,0c0.52,0,1.06,0,1.59,0c1.06,0,2.11,0,3.18,0c0.14,0,0.28,0,0.42,0c0-0.09,0-0.17,0-0.26c0.09,0,0.17,0,0.26,0
			c0-2.25,0-4.49,0-6.74c-0.23,0-0.45,0-0.68,0c-1.07,0-2.12,0-3.18,0c-0.53,0-1.07,0-1.59,0c-0.3,0-0.6,0-0.9,0
			C22.756,188.19,22.457,188.19,22.156,188.19z"/>
		<path fill="#232034" d="M22.417,166.931c0,2.42,0,4.84,0,7.26c0.21,0,0.43,0,0.65,0c0.3,0,0.6,0,0.9,0c0.52,0,1.06,0,1.59,0
			c1.06,0,2.11,0,3.18,0c0.14,0,0.28,0,0.42,0c0-2.42,0-4.84,0-7.26C26.896,166.931,24.667,166.931,22.417,166.931z"/>
		<path fill="#232034" d="M29.417,187.931c-2.43,0-4.84,0-7.26,0c0,0.09,0,0.17,0,0.26c0.3,0,0.6,0,0.91,0c0.3,0,0.6,0,0.9,0
			c0.52,0,1.06,0,1.59,0c1.06,0,2.11,0,3.18,0c0.23,0,0.45,0,0.68,0C29.417,188.101,29.417,188.021,29.417,187.931z"/>
		<path fill="#232034" d="M29.156,195.19c0,2.33,0,4.67,0,7c0.3,0,0.6,0,0.91,0c0.3,0,0.6,0,0.9,0c0.52,0,1.06,0,1.59,0
			c1.06,0,2.11,0,3.18,0c0.23,0,0.45,0,0.68,0c0-2.33,0-4.67,0-7c-0.09,0-0.17,0-0.26,0c0-0.09,0-0.17,0-0.26c-2.26,0-4.49,0-6.74,0
			c0,0.09,0,0.17,0,0.26C29.326,195.19,29.246,195.19,29.156,195.19z"/>
		<path fill="#232034" d="M29.156,194.931c0,0.09,0,0.17,0,0.26c0.09,0,0.17,0,0.26,0c0-0.09,0-0.17,0-0.26
			C29.326,194.931,29.246,194.931,29.156,194.931z"/>
		<path fill="#232034" d="M29.156,166.931c0,2.42,0,4.84,0,7.26c0.09,0,0.17,0,0.26,0c0-2.42,0-4.84,0-7.26
			C29.326,166.931,29.246,166.931,29.156,166.931z"/>
		<path fill="#232034" d="M29.417,166.931c0,2.42,0,4.84,0,7.26c0.21,0,0.43,0,0.65,0c0.3,0,0.6,0,0.9,0c0.52,0,1.06,0,1.59,0
			c1.06,0,2.11,0,3.18,0c0.14,0,0.28,0,0.42,0c0-2.42,0-4.84,0-7.26C33.896,166.931,31.667,166.931,29.417,166.931z"/>
		<path fill="#232034" d="M36.156,194.931c0,0.09,0,0.17,0,0.26c0.09,0,0.17,0,0.26,0c0-0.09,0-0.17,0-0.26
			C36.326,194.931,36.246,194.931,36.156,194.931z"/>
		<path fill="#232034" d="M36.156,180.931c0,3.22,0,5.55,0,7c2.42,0,4.83,0,7.26,0c0-2.33,0-4.67,0-7
			C40.986,180.931,38.576,180.931,36.156,180.931z"/>
		<path fill="#232034" d="M36.156,166.931c0,2.42,0,4.84,0,7.26c0.09,0,0.17,0,0.26,0c0-2.42,0-4.84,0-7.26
			C36.326,166.931,36.246,166.931,36.156,166.931z"/>
		<path fill="#232034" d="M36.156,188.19c0,2.25,0,4.49,0,6.74c0.09,0,0.17,0,0.26,0c0,0.09,0,0.17,0,0.26c0.21,0,0.43,0,0.65,0
			c0.3,0,0.6,0,0.9,0c0.52,0,1.06,0,1.59,0c1.06,0,2.11,0,3.18,0c0.14,0,0.28,0,0.42,0c0-0.09,0-0.17,0-0.26c0.09,0,0.17,0,0.26,0
			c0-2.25,0-4.49,0-6.74c-0.23,0-0.45,0-0.68,0c-1.07,0-2.12,0-3.18,0c-0.53,0-1.07,0-1.59,0c-0.3,0-0.6,0-0.9,0
			C36.756,188.19,36.457,188.19,36.156,188.19z"/>
		<path fill="#232034" d="M36.417,166.931c0,2.42,0,4.84,0,7.26c0.21,0,0.43,0,0.65,0c0.3,0,0.6,0,0.9,0c0.52,0,1.06,0,1.59,0
			c1.06,0,2.11,0,3.18,0c0.14,0,0.28,0,0.42,0c0-2.42,0-4.84,0-7.26C40.896,166.931,38.667,166.931,36.417,166.931z"/>
		<path fill="#232034" d="M43.417,187.931c-2.43,0-4.84,0-7.26,0c0,0.09,0,0.18,0,0.26c0.3,0,0.6,0,0.91,0c0.3,0,0.6,0,0.9,0
			c0.52,0,1.06,0,1.59,0c1.06,0,2.11,0,3.18,0c0.23,0,0.45,0,0.68,0C43.417,188.101,43.417,188.021,43.417,187.931z"/>
		<path fill="#232034" d="M43.156,195.19c0,2.33,0,4.67,0,7c0.3,0,0.6,0,0.91,0c0.3,0,0.6,0,0.9,0c0.52,0,1.06,0,1.59,0
			c1.06,0,2.11,0,3.18,0c0.23,0,0.45,0,0.68,0c0-2.33,0-4.67,0-7c-0.09,0-0.17,0-0.26,0c0-0.09,0-0.17,0-0.26c-2.26,0-4.49,0-6.74,0
			c0,0.09,0,0.17,0,0.26C43.326,195.19,43.246,195.19,43.156,195.19z"/>
		<path fill="#232034" d="M43.156,194.931c0,0.09,0,0.17,0,0.26c0.09,0,0.17,0,0.26,0c0-0.09,0-0.17,0-0.26
			C43.326,194.931,43.246,194.931,43.156,194.931z"/>
		<path fill="#232034" d="M43.156,166.931c0,2.42,0,4.84,0,7.26c0.09,0,0.17,0,0.26,0c0-2.42,0-4.84,0-7.26
			C43.326,166.931,43.246,166.931,43.156,166.931z"/>
		<path fill="#232034" d="M43.417,166.931c0,2.42,0,4.84,0,7.26c0.21,0,0.43,0,0.65,0c0.3,0,0.6,0,0.9,0c0.52,0,1.06,0,1.59,0
			c1.06,0,2.11,0,3.18,0c0.14,0,0.28,0,0.42,0c0-0.09,0-0.17,0-0.26c0.09,0,0.17,0,0.26,0c0-2.33,0-4.67,0-7
			C48.076,166.931,45.746,166.931,43.417,166.931z"/>
		<path fill="#232034" d="M50.156,194.931c0,0.09,0,0.17,0,0.26c0.09,0,0.17,0,0.26,0c0-0.09,0-0.17,0-0.26
			C50.326,194.931,50.246,194.931,50.156,194.931z"/>
		<path fill="#232034" d="M50.156,174.19c0,2.25,0,4.49,0,6.74c2.42,0,4.83,0,7.26,0c0-2.33,0-4.67,0-7c-2.34,0-4.67,0-7,0
			c0,0.09,0,0.17,0,0.26C50.326,174.19,50.246,174.19,50.156,174.19z"/>
		<path fill="#232034" d="M50.156,173.931c0,0.09,0,0.17,0,0.26c0.09,0,0.17,0,0.26,0c0-0.09,0-0.17,0-0.26
			C50.326,173.931,50.246,173.931,50.156,173.931z"/>
		<path fill="#232034" d="M50.156,181.19c0,2.25,0,4.49,0,6.74c2.42,0,4.83,0,7.26,0c0-2.25,0-4.49,0-6.74c-0.23,0-0.45,0-0.68,0
			c-1.07,0-2.12,0-3.18,0c-0.53,0-1.07,0-1.59,0c-0.3,0-0.6,0-0.9,0C50.756,181.19,50.457,181.19,50.156,181.19z"/>
		<path fill="#232034" d="M50.156,188.19c0,2.25,0,4.49,0,6.74c0.09,0,0.17,0,0.26,0c0,0.09,0,0.17,0,0.26c0.21,0,0.43,0,0.65,0
			c0.3,0,0.6,0,0.9,0c0.52,0,1.06,0,1.59,0c1.06,0,2.11,0,3.18,0c0.23,0,0.45,0,0.68,0c0-2.33,0-4.67,0-7c-0.23,0-0.45,0-0.68,0
			c-1.07,0-2.12,0-3.18,0c-0.53,0-1.07,0-1.59,0c-0.3,0-0.6,0-0.9,0C50.756,188.19,50.457,188.19,50.156,188.19z"/>
		<path fill="#232034" d="M57.417,187.931c-2.43,0-4.84,0-7.26,0c0,0.09,0,0.17,0,0.26c0.3,0,0.6,0,0.91,0c0.3,0,0.6,0,0.9,0
			c0.52,0,1.06,0,1.59,0c1.06,0,2.11,0,3.18,0c0.23,0,0.45,0,0.68,0C57.417,188.101,57.417,188.021,57.417,187.931z"/>
		<path fill="#232034" d="M53.556,181.19c1.06,0,2.11,0,3.18,0c0.23,0,0.45,0,0.68,0c0-0.09,0-0.17,0-0.26c-2.43,0-4.84,0-7.26,0
			c0,0.09,0,0.17,0,0.26c0.3,0,0.6,0,0.91,0c0.3,0,0.6,0,0.9,0C52.486,181.19,53.026,181.19,53.556,181.19z"/>
	</g>
	<g>
	</g>
</g>
</svg>
