<?xml version="1.0" encoding="utf-8"?>
<!-- Generator: Adobe Illustrator 15.0.0, SVG Export Plug-In  -->
<!DOCTYPE svg PUBLIC "-//W3C//DTD SVG 1.1//EN" "http://www.w3.org/Graphics/SVG/1.1/DTD/svg11.dtd" [
	<!ENTITY ns_flows "http://ns.adobe.com/Flows/1.0/">
]>
<svg version="1.1"
	 xmlns="http://www.w3.org/2000/svg" xmlns:xlink="http://www.w3.org/1999/xlink" xmlns:a="http://ns.adobe.com/AdobeSVGViewerExtensions/3.0/"
	 x="0px" y="0px" width="300px" height="300px" viewBox="-37.69 -54.89 300 300" enable-background="new -37.69 -54.89 300 300"
	 xml:space="preserve">
<defs>
</defs>
<path fill="#FFFFFF" d="M14.745,87.338c0,4.839,0,9.68,0,14.519c2.42,0,4.84,0,7.26,0c0-4.839,0-9.679,0-14.519
	C19.585,87.338,17.165,87.338,14.745,87.338z"/>
<path fill="#FFFFFF" d="M22.005,72.819c0,4.839,0,9.679,0,14.519c2.407,0,4.84,0,7.26,0c0-2.419,0-4.839,0-7.259
	c0.214,0,0.453,0,0.68,0c1.74,0,3.479,0,5.205,0c0.467,0,0.92,0,1.374,0c0.228,0,0.454,0,0.681,0c0.151,0,0.303,0,0.441,0
	c0.467,0,0.92,0,1.373,0c0.228,0,0.453,0,0.681,0c0.151,0,0.303,0,0.441,0c1.752,0,3.491,0,5.229,0c0.441,0,0.908,0,1.361,0
	c0.228,0,0.454,0,0.682,0c0.15,0,0.289,0,0.453,0c0.453,0,0.908,0,1.361,0c0.227,0,0.441,0,0.68,0c0.152,0,0.291,0,0.454,0
	c0.228,0,0.454,0,0.681,0c0-2.42,0-4.84,0-7.26c2.407,0,4.827,0,7.26,0c0-6.125,0-12.25,0-18.375c0-1.512,0-3.024,0-4.537
	c0-0.227,0-0.454,0-0.681c0-0.151,0-0.303,0-0.454c0-0.227,0-0.454,0-0.681c0-0.151,0-0.302,0-0.454c0-0.756,0-1.512,0-2.268
	c0-0.227,0-0.455,0-0.681c0-0.151,0-0.303,0-0.454c0-0.227,0-0.454,0-0.681c0-0.151,0-0.303,0-0.454c0-0.756,0-1.512,0-2.269
	c0-0.227,0-0.453,0-0.68c0-0.151,0-0.303,0-0.454c0-0.227,0-0.454,0-0.681c0-0.151,0-0.303,0-0.454c0-0.227,0-0.454,0-0.681
	c0-0.151,0-0.303,0-0.454c0-0.227,0-0.454,0-0.681c0-0.151,0-0.302,0-0.454c2.42,0,4.84,0,7.259,0c0-2.419,0-4.839,0-7.259
	c2.42,0,4.827,0,7.26,0c0-2.42,0-4.84,0-7.26c2.42,0,4.839,0,7.259,0c0-2.419,0-4.839,0-7.259c0.228,0,0.441,0,0.681,0
	c6.882,0,13.763,0,20.644,0c0.227,0,0.453,0,0.681,0c0-2.42,0-4.84,0-7.26c2.407,0,4.827,0,7.26,0c0-1.21,0-2.42,0-3.629
	c0-1.21,0-2.42,0-3.629c-4.853,0-9.679,0-14.519,0c-2.42,0-4.853,0-7.26,0c-1.21,0-2.42,0-3.629,0c-0.605,0-1.211,0-1.815,0
	c-0.681,0-1.361,0-2.042,0c0,0.302,0,0.604,0,0.907c0,0.303,0,0.605,0,0.908c0,0.605,0,1.21,0,1.815c0,1.209,0,2.419,0,3.629
	c-2.42,0-4.839,0-7.259,0c0,2.42,0,4.84,0,7.26c-2.433,0-4.84,0-7.26,0c0,2.419,0,4.839,0,7.259c-4.839,0-9.691,0-14.519,0
	c0,2.42,0,4.839,0,7.26c-2.42,0-4.84,0-7.259,0c0,0.756,0,1.512,0,2.269c0,0.151,0,0.303,0,0.453c0,0.227,0,0.454,0,0.681
	c0,0.151,0,0.303,0,0.454c0,0.227,0,0.454,0,0.68c0,0.756,0,1.513,0,2.269c0,0.151,0,0.302,0,0.453c0,0.228,0,0.454,0,0.681
	c0,0.151,0,0.303,0,0.454c0,0.227,0,0.454,0,0.681c0,0.151,0,0.303,0,0.454c0,0.227,0,0.454,0,0.68c0,0.151,0,0.303,0,0.454
	c0,0.227,0,0.454,0,0.681c0,0.15,0,0.302,0,0.453c0,0.228,0,0.454,0,0.681c0,0.151,0,0.302,0,0.454c0,0.227,0,0.454,0,0.681
	c0,0.756,0,1.513,0,2.268c0,0.152,0,0.303,0,0.455c0,0.226,0,0.454,0,0.68c0,0.151,0,0.303,0,0.454c0,0.227,0,0.453,0,0.68
	c0,0.756,0,1.512,0,2.269c0,0.151,0,0.303,0,0.454c0,0.227,0,0.454,0,0.68c0,0.378,0,0.756,0,1.135c0,1.512,0,3.024,0,4.536
	c0,3.101,0,6.201,0,9.302c-2.421,0-4.853,0-7.26,0c0,2.419,0,4.839,0,7.259C31.685,72.819,26.845,72.819,22.005,72.819z"/>
<path fill="#F2FAFD" d="M29.265,80.079c0,2.419,0,4.839,0,7.259c-2.42,0-4.853,0-7.26,0c0,4.839,0,9.68,0,14.519
	c-2.42,0-4.84,0-7.26,0c0,3.63,0,7.26,0,10.89s0,7.259,0,10.889c2.42,0,4.84,0,7.26,0c0,4.915,0,9.83,0,14.745
	c4.84,0,9.68,0,14.519,0c0,2.42,0,4.84,0,7.26c2.407,0,4.839,0,7.26,0c0,2.42,0,4.84,0,7.259c4.839,0,9.666,0,14.519,0
	c0,2.42,0,4.84,0,7.26c3.629,0,7.259,0,10.876,0c3.643,0,7.272,0,10.901,0c0,2.42,0,4.839,0,7.259c6.049,0,12.1,0,18.148,0
	c3.012,0,6.05,0,9.074,0c2.949,0,5.898,0,8.847,0c0.152,0,0.29,0,0.454,0c0-4.839,0-9.679,0-14.519c4.827,0,9.68,0,14.519,0
	c0,2.42,0,4.84,0,7.26c3.617,0,7.259,0,10.889,0c1.815,0,3.63,0,5.444,0c0.908,0,1.815,0,2.723,0c0.454,0,0.895,0,1.361,0
	c0.214,0,0.453,0,0.681,0c0.227,0,0.453,0,0.68,0c0,2.42,0,4.839,0,7.259c3.631,0,7.26,0,10.89,0c3.629,0,7.26,0,10.889,0
	c0-2.42,0-4.839,0-7.259c0.681,0,1.361,0,2.042,0c0.605,0,1.21,0,1.814,0c1.21,0,2.42,0,3.63,0c0-2.42,0-4.84,0-7.26
	c2.42,0,4.827,0,7.259,0c0-4.839,0-9.679,0-14.519c2.421,0,4.84,0,7.26,0c0-2.42,0-4.84,0-7.259c2.42,0,4.827,0,7.259,0
	c0-4.915,0-9.831,0-14.745c2.421,0,4.84,0,7.26,0c0-2.42,0-4.84,0-7.26c-2.42,0-4.839,0-7.26,0c0-0.227,0-0.454,0-0.681
	c0-0.907,0-1.814,0-2.722c0-0.228,0-0.454,0-0.682c0-0.227,0-0.453,0-0.68c0-0.228,0-0.454,0-0.682c0-0.15,0-0.302,0-0.453
	c0-0.227,0-0.453,0-0.681s0-0.453,0-0.681c0-0.227,0-0.453,0-0.68c0-0.152,0-0.303,0-0.454c0-0.228,0-0.454,0-0.681s0-0.453,0-0.681
	s0-0.454,0-0.681c0-0.151,0-0.303,0-0.453c0-0.908,0-1.814,0-2.723c0-0.227,0-0.454,0-0.681c0-0.227,0-0.454,0-0.681
	c0-0.227,0-0.454,0-0.681c0-0.151,0-0.302,0-0.454c0-0.227,0-0.454,0-0.681c0-0.226,0-0.454,0-0.68s0-0.454,0-0.681
	c0-0.151,0-0.302,0-0.454c0-0.227,0-0.454,0-0.681c0-0.227,0-0.454,0-0.681c0-0.227,0-0.454,0-0.681c0-0.151,0-0.302,0-0.454
	c0-0.227,0-0.453,0-0.681c-4.839,0-9.679,0-14.519,0c0,2.42,0,4.839,0,7.26c-0.227,0-0.453,0-0.68,0c-1.815,0-3.643,0-5.445,0
	c-1.738,0-3.478,0-5.218,0c-1.751,0-3.478,0-5.217,0c-0.908,0-1.814,0-2.723,0c-0.453,0-0.907,0-1.373,0c-0.215,0-0.441,0-0.681,0
	c-0.215,0-0.441,0-0.669,0c0-3.63,0-7.26,0-10.889c0-1.815,0-3.629,0-5.444c0-0.908,0-1.815,0-2.722c0-0.454,0-0.908,0-1.361
	c0-0.227,0-0.454,0-0.681s0-0.454,0-0.681c2.421,0,4.841,0,7.26,0c0-3.629,0-7.259,0-10.889c0-3.629,0-7.259,0-10.888
	c-2.419,0-4.839,0-7.26,0c0-0.228,0-0.454,0-0.681c0-0.151,0-0.303,0-0.454c0-0.303,0-0.605,0-0.908c0-0.605,0-1.21,0-1.815
	c0-1.209,0-2.419,0-3.629c0-2.42,0-4.84,0-7.26c-2.432,0-4.839,0-7.259,0c0-2.419,0-4.839,0-7.259c-9.691,0-19.357,0-29.037,0
	c0-2.42,0-4.84,0-7.26c-2.42,0-4.839,0-7.259,0c0-2.419,0-4.839,0-7.259c-4.84,0-9.68,0-14.519,0c0-2.42,0-4.84,0-7.26
	c-2.433,0-4.853,0-7.26,0c0,2.42,0,4.84,0,7.26c-0.228,0-0.454,0-0.681,0c-6.881,0-13.762,0-20.644,0c-0.239,0-0.453,0-0.681,0
	c0,2.419,0,4.839,0,7.259c-2.42,0-4.839,0-7.259,0c0,2.42,0,4.839,0,7.26c-2.433,0-4.84,0-7.26,0c0,2.42,0,4.839,0,7.259
	c-2.419,0-4.839,0-7.259,0c0,0.151,0,0.303,0,0.454c0,0.227,0,0.454,0,0.681c0,0.151,0,0.303,0,0.454c0,0.227,0,0.454,0,0.681
	c0,0.151,0,0.302,0,0.454c0,0.227,0,0.454,0,0.681c0,0.15,0,0.302,0,0.454c0,0.227,0,0.454,0,0.68c0,0.757,0,1.513,0,2.269
	c0,0.151,0,0.303,0,0.454c0,0.227,0,0.454,0,0.681c0,0.151,0,0.302,0,0.454c0,0.226,0,0.454,0,0.681c0,0.756,0,1.512,0,2.268
	c0,0.151,0,0.303,0,0.454c0,0.227,0,0.454,0,0.681c0,0.151,0,0.303,0,0.454c0,0.227,0,0.454,0,0.681c0,1.512,0,3.024,0,4.537
	c0,6.125,0,12.25,0,18.375c2.42,0,4.84,0,7.259,0c0-4.839,0-9.679,0-14.519c2.42,0,4.827,0,7.26,0c0-2.42,0-4.839,0-7.259
	c2.42,0,4.839,0,7.259,0c0-2.42,0-4.84,0-7.26c0-1.21,0-2.42,0-3.629c0-0.605,0-1.21,0-1.815s0-1.21,0-1.814
	c0-0.076,0-0.151,0-0.228c2.42,0,4.827,0,7.26,0c0-2.419,0-4.839,0-7.259c4.84,0,9.679,0,14.518,0c2.421,0,4.84,0,7.26,0
	c1.211,0,2.42,0,3.63,0c0.604,0,1.197,0,1.802,0c0.315,0,0.605,0,0.921,0c0.289,0,0.604,0,0.906,0c0.063,0,0.151,0,0.228,0
	c0,2.42,0,4.839,0,7.259c2.42,0,4.827,0,7.26,0c0,0.681,0,1.361,0,2.042c0,0.605,0,1.21,0,1.815c0,1.209,0,2.419,0,3.629
	c2.42,0,4.839,0,7.259,0c9.68,0,19.346,0,29.037,0c0,4.84,0,9.679,0,14.519c0,2.42,0,4.84,0,7.26c0,1.21,0,2.419,0,3.629
	c0,0.605,0,1.21,0,1.815c0,0.529,0,1.058,0,1.588c0,0.075,0,0.151,0,0.227c-2.42,0-4.839,0-7.26,0c0,3.63,0,7.26,0,10.889
	s0,7.259,0,10.889s0,7.259,0,10.889s0,7.26,0,10.89c-2.432,0-4.839,0-7.259,0c0,4.914,0,9.83,0,14.745c2.42,0,4.827,0,7.259,0
	c0-2.495,0-4.991,0-7.486c2.421,0,4.84,0,7.26,0c0,2.495,0,4.991,0,7.486c2.42,0,4.827,0,7.259,0c0,0.227,0,0.454,0,0.681
	c0,2.192,0,4.386,0,6.578c-2.432,0-4.839,0-7.259,0c0,2.42,0,4.84,0,7.26c-0.239,0-0.453,0-0.681,0c-2.193,0-4.386,0-6.579,0
	c0-2.42,0-4.84,0-7.26c-2.432,0-4.839,0-7.259,0c0-2.42,0-4.84,0-7.259c-2.42,0-4.839,0-7.26,0c0,2.419,0,4.839,0,7.259
	c-0.227,0-0.453,0-0.68,0c-1.815,0-3.643,0-5.445,0c-0.906,0-1.814,0-2.722,0c-0.832,0-1.664,0-2.496,0c-3.478,0-6.956,0-10.435,0
	c0,2.42,0,4.84,0,7.26c-0.681,0-1.361,0-2.055,0c-0.604,0-1.197,0-1.802,0c-1.21,0-2.419,0-3.63,0c-2.42,0-4.839,0-7.26,0
	c-4.839,0-9.678,0-14.518,0c0,2.42,0,4.84,0,7.259c-2.433,0-4.84,0-7.26,0c0-4.839,0-9.679,0-14.519c-2.42,0-4.839,0-7.259,0
	c0-2.42,0-4.84,0-7.259c0-2.495,0-4.991,0-7.486c-2.433,0-4.84,0-7.26,0c0,2.495,0,4.991,0,7.486c-2.419,0-4.839,0-7.259,0
	c0-4.915,0-9.831,0-14.745c2.42,0,4.84,0,7.259,0c0-2.42,0-4.84,0-7.26c-2.419,0-4.839,0-7.259,0c-4.853,0-9.68,0-14.519,0
	c0-2.42,0-4.84,0-7.26c2.419,0,4.839,0,7.259,0c0-2.42,0-4.839,0-7.259c2.407,0,4.827,0,7.26,0c0-3.63,0-7.26,0-10.889
	s0-7.259,0-10.889c-2.433,0-4.853,0-7.26,0c0,2.42,0,4.839,0,7.26c-0.227,0-0.453,0-0.681,0c-0.163,0-0.302,0-0.454,0
	c-0.238,0-0.453,0-0.68,0c-0.453,0-0.908,0-1.361,0c-0.164,0-0.303,0-0.453,0c-0.228,0-0.454,0-0.682,0c-0.453,0-0.92,0-1.361,0
	c-1.738,0-3.478,0-5.229,0c-0.139,0-0.29,0-0.441,0c-0.228,0-0.453,0-0.681,0c-0.453,0-0.906,0-1.373,0c-0.139,0-0.29,0-0.441,0
	c-0.227,0-0.453,0-0.681,0c-0.454,0-0.907,0-1.374,0c-1.727,0-3.465,0-5.205,0C29.718,80.079,29.479,80.079,29.265,80.079z"/>
<path fill="#DFF3FD" d="M43.783,101.856c0,2.42,0,4.84,0,7.26c4.839,0,9.666,0,14.519,0c0-4.84,0-9.68,0-14.519
	c-2.433,0-4.853,0-7.26,0c0,2.42,0,4.839,0,7.259C48.622,101.856,46.202,101.856,43.783,101.856z"/>
<path fill="#DFF3FD" d="M58.302,116.376c0,4.914,0,9.83,0,14.745c2.42,0,4.84,0,7.259,0c0-2.495,0-4.991,0-7.486
	c0-2.42,0-4.84,0-7.259C63.142,116.376,60.722,116.376,58.302,116.376z"/>
<path fill="#232034" d="M58.302,94.598c0,4.839,0,9.679,0,14.519c2.42,0,4.84,0,7.259,0c0-4.84,0-9.68,0-14.519
	c0-2.42,0-4.84,0-7.26c0-2.419,0-4.839,0-7.259c0-2.42,0-4.84,0-7.26c-2.419,0-4.839,0-7.259,0c0,3.63,0,7.26,0,10.889
	S58.302,90.968,58.302,94.598z"/>
<path fill="#232034" d="M65.561,116.376c0,2.419,0,4.839,0,7.259c2.42,0,4.827,0,7.26,0c0-2.42,0-4.84,0-7.259c0-2.42,0-4.84,0-7.26
	c-2.433,0-4.84,0-7.26,0C65.561,111.536,65.561,113.956,65.561,116.376z"/>
<path fill="#E7F6FD" d="M65.561,87.338c0,2.42,0,4.839,0,7.26c2.42,0,4.827,0,7.26,0c0-2.42,0-4.84,0-7.26
	C70.388,87.338,67.98,87.338,65.561,87.338z"/>
<path fill="#010101" d="M65.561,80.079c0,2.419,0,4.839,0,7.259c2.42,0,4.827,0,7.26,0c0,2.42,0,4.839,0,7.26
	c2.42,0,4.839,0,7.259,0c0-4.84,0-9.679,0-14.519c-2.42,0-4.839,0-7.259,0C70.388,80.079,67.98,80.079,65.561,80.079z"/>
<path fill="#848484" d="M65.561,72.819c0,2.42,0,4.839,0,7.26c2.42,0,4.827,0,7.26,0c0-2.42,0-4.84,0-7.26
	C70.388,72.819,67.98,72.819,65.561,72.819z"/>
<path fill="#232034" d="M65.561,58.301c0,4.84,0,9.679,0,14.519c2.42,0,4.827,0,7.26,0c0-2.419,0-4.839,0-7.259
	c0-2.42,0-4.84,0-7.26C70.388,58.301,67.98,58.301,65.561,58.301z"/>
<path fill="#DFF3FD" d="M72.82,131.121c0,2.419,0,4.839,0,7.259c2.42,0,4.839,0,7.259,0c0-2.42,0-4.84,0-7.259
	C77.659,131.121,75.24,131.121,72.82,131.121z"/>
<path fill="#232034" d="M72.82,123.635c0,2.495,0,4.991,0,7.486c2.42,0,4.839,0,7.259,0c0-2.495,0-4.991,0-7.486
	C77.659,123.635,75.24,123.635,72.82,123.635z"/>
<path fill="#C3CAD1" d="M72.82,116.376c0,2.419,0,4.839,0,7.259c2.42,0,4.839,0,7.259,0c0-2.42,0-4.84,0-7.259
	C77.659,116.376,75.24,116.376,72.82,116.376z"/>
<path fill="#010101" d="M72.82,109.116c0,2.42,0,4.84,0,7.26c2.42,0,4.839,0,7.259,0c0-2.42,0-4.84,0-7.26
	C77.659,109.116,75.24,109.116,72.82,109.116z"/>
<path fill="#848484" d="M72.82,58.301c0,2.42,0,4.84,0,7.26c2.42,0,4.839,0,7.259,0c0-2.42,0-4.84,0-7.26
	C77.659,58.301,75.24,58.301,72.82,58.301z"/>
<path fill="#232034" d="M72.82,51.042c0,2.419,0,4.839,0,7.259c2.42,0,4.839,0,7.259,0s4.827,0,7.26,0c0-2.42,0-4.839,0-7.259
	c-2.433,0-4.84,0-7.26,0S75.24,51.042,72.82,51.042z"/>
<path fill="#232034" d="M80.079,131.121c0,2.419,0,4.839,0,7.259c6.113,0,12.25,0,18.375,0c1.512,0,3.025,0,4.537,0
	c1.5,0,3.025,0,4.537,0c0.744,0,1.513,0,2.27,0c0.226,0,0.453,0,0.68,0c0.152,0,0.29,0,0.453,0c0.228,0,0.441,0,0.682,0
	c0.15,0,0.302,0,0.441,0c0.238,0,0.466,0,0.692,0c0.151,0,0.303,0,0.454,0c0.227,0,0.454,0,0.668,0c0.163,0,0.314,0,0.466,0
	c0.214,0,0.454,0,0.681,0c0.139,0,0.303,0,0.454,0c0.226,0,0.453,0,0.68,0c0.152,0,0.29,0,0.454,0c0-2.42,0-4.84,0-7.259
	c-2.42,0-4.84,0-7.259,0c-4.853,0-9.679,0-14.519,0C89.897,131.121,84.994,131.121,80.079,131.121z"/>
<path fill="#010101" d="M80.079,116.376c0,2.419,0,4.839,0,7.259c2.42,0,4.827,0,7.26,0c0-2.42,0-4.84,0-7.259
	C84.906,116.376,82.499,116.376,80.079,116.376z"/>
<path fill="#010101" d="M80.079,94.598c0,2.42,0,4.839,0,7.259c0.303,0,0.605,0,0.908,0c0.302,0,0.604,0,0.906,0
	c0.518,0,1.059,0,1.589,0c1.059,0,2.104,0,3.176,0c0.227,0,0.454,0,0.681,0c0-2.42,0-4.839,0-7.259
	C84.906,94.598,82.499,94.598,80.079,94.598z"/>
<path fill="#DFF3FD" d="M80.079,40.153c0,1.209,0,2.419,0,3.629c0,2.42,0,4.84,0,7.26c2.42,0,4.827,0,7.26,0c0-2.42,0-4.84,0-7.26
	c6.125,0,12.25,0,18.362,0c0.769,0,1.524,0,2.281,0s1.499,0,2.269,0c0.227,0,0.453,0,0.68,0c0.152,0,0.304,0,0.441,0
	c0.24,0,0.467,0,0.682,0c0.163,0,0.314,0,0.466,0c0.227,0,0.454,0,0.68,0c0.151,0,0.302,0,0.454,0c0.215,0,0.454,0,0.681,0
	c0.151,0,0.303,0,0.454,0c0.227,0,0.453,0,0.681,0c0.151,0,0.289,0,0.453,0c0.227,0,0.453,0,0.681,0c0.151,0,0.303,0,0.441,0
	c0.239,0,0.466,0,0.681,0c0.163,0,0.314,0,0.466,0c0.227,0,0.454,0,0.681,0c0.151,0,0.303,0,0.454,0c0.214,0,0.453,0,0.681,0
	c0.15,0,0.302,0,0.453,0c0.228,0,0.453,0,0.681,0c0.151,0,0.29,0,0.453,0c0.228,0,0.454,0,0.681,0c0.151,0,0.303,0,0.441,0
	c0.239,0,0.467,0,0.681,0c0.164,0,0.315,0,0.467,0c0-1.21,0-2.42,0-3.629c0-0.605,0-1.21,0-1.815c0-0.681,0-1.361,0-2.042
	c-2.433,0-4.84,0-7.26,0c0-2.419,0-4.839,0-7.259c-0.076,0-0.164,0-0.228,0c-0.302,0-0.617,0-0.906,0c-0.315,0-0.605,0-0.921,0
	c-0.604,0-1.197,0-1.802,0c-1.21,0-2.419,0-3.63,0c-2.42,0-4.839,0-7.26,0c-4.839,0-9.678,0-14.518,0c0,2.42,0,4.839,0,7.259
	c-2.433,0-4.84,0-7.26,0c0,0.076,0,0.151,0,0.228c0,0.604,0,1.209,0,1.814S80.079,39.548,80.079,40.153z"/>
<path fill="#C3CAD1" d="M80.079,101.856c0-2.42,0-4.839,0-7.259c-2.42,0-4.839,0-7.259,0c-2.433,0-4.84,0-7.26,0
	c0,4.839,0,9.679,0,14.519c2.42,0,4.827,0,7.26,0c2.42,0,4.839,0,7.259,0c0,2.42,0,4.84,0,7.26c2.42,0,4.827,0,7.26,0
	c0-2.42,0-4.84,0-7.26c2.496,0,4.99,0,7.486,0c0,2.42,0,4.84,0,7.26c2.42,0,4.84,0,7.259,0c0-2.42,0-4.84,0-7.26
	c2.407,0,4.827,0,7.26,0c0,2.42,0,4.84,0,7.26c-2.433,0-4.853,0-7.26,0c0,2.419,0,4.839,0,7.259c-2.419,0-4.839,0-7.259,0
	c0-2.42,0-4.84,0-7.259c-2.496,0-4.99,0-7.486,0c0,2.419,0,4.839,0,7.259c-2.433,0-4.84,0-7.26,0c0,2.495,0,4.991,0,7.486
	c4.915,0,9.818,0,14.746,0c4.84,0,9.666,0,14.519,0c0-2.495,0-4.991,0-7.486c2.419,0,4.839,0,7.259,0s4.827,0,7.26,0
	c0-4.84,0-9.679,0-14.519c-2.433,0-4.84,0-7.26,0c0-4.84,0-9.68,0-14.519c-2.42,0-4.84,0-7.259,0c-2.433,0-4.853,0-7.26,0
	c-2.419,0-4.839,0-7.259,0c0-2.42,0-4.84,0-7.26c-0.681,0-1.361,0-2.042,0c-0.604,0-1.21,0-1.815,0c-1.209,0-2.419,0-3.629,0
	c0-2.419,0-4.839,0-7.259c0.68,0,1.349,0,2.029,0c0.604,0,1.209,0,1.814,0c1.223,0,2.433,0,3.643,0c3.629,0,7.259,0,10.876,0
	c3.643,0,7.272,0,10.901,0c0,2.419,0,4.839,0,7.259c2.42,0,4.827,0,7.26,0c0-2.419,0-4.839,0-7.259c4.839,0,9.679,0,14.518,0
	c0-2.42,0-4.84,0-7.26c-2.432,0-4.839,0-7.259,0c0-4.839,0-9.679,0-14.519c-2.42,0-4.839,0-7.259,0c0-2.42,0-4.839,0-7.259
	c-9.68,0-19.371,0-29.037,0c0,2.419,0,4.839,0,7.259c-2.496,0-4.99,0-7.486,0c-2.433,0-4.84,0-7.26,0c0,2.42,0,4.84,0,7.26
	c-2.42,0-4.839,0-7.259,0c0,2.419,0,4.839,0,7.259c0,2.42,0,4.839,0,7.26c2.42,0,4.839,0,7.259,0c0,4.839,0,9.679,0,14.519
	c2.42,0,4.827,0,7.26,0c0,2.42,0,4.839,0,7.259c-0.227,0-0.454,0-0.681,0c-1.071,0-2.117,0-3.176,0c-0.53,0-1.071,0-1.589,0
	c-0.302,0-0.604,0-0.906,0C80.685,101.856,80.382,101.856,80.079,101.856z"/>
<path fill="#010101" d="M87.339,109.116c0,2.42,0,4.84,0,7.26c2.496,0,4.99,0,7.486,0c0-2.42,0-4.84,0-7.26
	C92.329,109.116,89.835,109.116,87.339,109.116z"/>
<path fill="#848484" d="M87.339,51.042c0,2.419,0,4.839,0,7.259c2.496,0,4.99,0,7.486,0c0-2.42,0-4.839,0-7.259
	C92.329,51.042,89.835,51.042,87.339,51.042z"/>
<path fill="#848484" d="M94.825,80.079c-1.21,0-2.42,0-3.643,0c-0.605,0-1.21,0-1.814,0c-0.681,0-1.35,0-2.029,0
	c0,2.419,0,4.839,0,7.259c1.21,0,2.42,0,3.629,0c0.605,0,1.211,0,1.815,0c0.681,0,1.361,0,2.042,0
	C94.825,84.918,94.825,82.499,94.825,80.079z"/>
<path fill="#010101" d="M94.825,116.376c0,2.419,0,4.839,0,7.259c2.42,0,4.84,0,7.259,0c0-2.42,0-4.84,0-7.259
	C99.665,116.376,97.245,116.376,94.825,116.376z"/>
<path fill="#E7F6FD" d="M94.825,87.338c0,2.42,0,4.839,0,7.26c2.42,0,4.84,0,7.259,0c0-2.42,0-4.84,0-7.26
	C99.665,87.338,97.245,87.338,94.825,87.338z"/>
<path fill="#010101" d="M94.825,80.079c0,2.419,0,4.839,0,7.259c2.42,0,4.84,0,7.259,0c0,2.42,0,4.839,0,7.26
	c2.407,0,4.827,0,7.26,0c0-2.42,0-4.84,0-7.26c2.419,0,4.839,0,7.259,0c0-2.419,0-4.839,0-7.259c-3.629,0-7.259,0-10.901,0
	C102.084,80.079,98.454,80.079,94.825,80.079z"/>
<path fill="#010101" d="M102.084,109.116c0,2.42,0,4.84,0,7.26c2.407,0,4.827,0,7.26,0c0-2.42,0-4.84,0-7.26
	C106.911,109.116,104.491,109.116,102.084,109.116z"/>
<path fill="#232034" d="M117.044,43.782c-0.139,0-0.29,0-0.441,0c-0.228,0-0.454,0-0.681,0c-0.164,0-0.302,0-0.453,0
	c-0.228,0-0.454,0-0.681,0c-0.151,0-0.303,0-0.454,0c-0.227,0-0.466,0-0.681,0c-0.151,0-0.303,0-0.454,0c-0.227,0-0.454,0-0.68,0
	c-0.151,0-0.303,0-0.466,0c-0.215,0-0.441,0-0.682,0c-0.138,0-0.289,0-0.441,0c-0.227,0-0.453,0-0.68,0c-0.77,0-1.512,0-2.269,0
	s-1.513,0-2.281,0c-6.112,0-12.237,0-18.362,0c0,2.42,0,4.84,0,7.26c2.496,0,4.99,0,7.486,0c9.666,0,19.357,0,29.037,0
	c2.42,0,4.839,0,7.259,0c0-2.42,0-4.84,0-7.26c-2.42,0-4.839,0-7.259,0c-0.151,0-0.303,0-0.467,0c-0.214,0-0.441,0-0.681,0
	c-0.139,0-0.29,0-0.441,0c-0.227,0-0.453,0-0.681,0c-0.163,0-0.302,0-0.453,0c-0.228,0-0.453,0-0.681,0c-0.151,0-0.303,0-0.453,0
	c-0.228,0-0.467,0-0.681,0c-0.151,0-0.303,0-0.454,0c-0.227,0-0.454,0-0.681,0c-0.151,0-0.303,0-0.466,0
	C117.51,43.782,117.283,43.782,117.044,43.782z"/>
<path fill="#DFF3FD" d="M110.931,138.38c-0.163,0-0.301,0-0.453,0c-0.227,0-0.454,0-0.68,0c-0.757,0-1.525,0-2.27,0
	c-1.512,0-3.037,0-4.537,0c-1.512,0-3.025,0-4.537,0c-6.125,0-12.262,0-18.375,0c0,4.84,0,9.68,0,14.519c2.42,0,4.827,0,7.26,0
	c0-2.419,0-4.839,0-7.259c4.84,0,9.679,0,14.518,0c2.421,0,4.84,0,7.26,0c1.211,0,2.42,0,3.63,0c0.604,0,1.197,0,1.802,0
	c0.693,0,1.374,0,2.055,0c0-2.42,0-4.84,0-7.26c-0.164,0-0.302,0-0.454,0c-0.227,0-0.454,0-0.68,0c-0.151,0-0.315,0-0.454,0
	c-0.227,0-0.467,0-0.681,0c-0.151,0-0.303,0-0.466,0c-0.215,0-0.441,0-0.668,0c-0.151,0-0.302,0-0.454,0c-0.227,0-0.454,0-0.692,0
	c-0.14,0-0.291,0-0.441,0C111.372,138.38,111.158,138.38,110.931,138.38z"/>
<path fill="#848484" d="M109.344,123.635c0,2.495,0,4.991,0,7.486c2.419,0,4.839,0,7.259,0c0-1.21,0-2.421,0-3.63
	c0-0.605,0-1.21,0-1.814c0-0.682,0-1.361,0-2.042C114.183,123.635,111.763,123.635,109.344,123.635z"/>
<path fill="#848484" d="M109.344,87.338c0,2.42,0,4.839,0,7.26c2.419,0,4.839,0,7.259,0c0,4.839,0,9.679,0,14.519
	c2.42,0,4.827,0,7.26,0c0-2.42,0-4.84,0-7.26c2.42,0,4.839,0,7.259,0c0-2.42,0-4.839,0-7.259c2.42,0,4.827,0,7.259,0
	c0-2.42,0-4.84,0-7.26c2.421,0,4.84,0,7.26,0c0-3.629,0-7.259,0-10.889s0-7.259,0-10.889c-2.42,0-4.839,0-7.26,0
	c0-2.42,0-4.84,0-7.26c-2.432,0-4.839,0-7.259,0c0,4.84,0,9.679,0,14.519c2.42,0,4.827,0,7.259,0c0,2.42,0,4.839,0,7.26
	c-4.839,0-9.679,0-14.518,0c0,2.419,0,4.839,0,7.259c-2.433,0-4.84,0-7.26,0S111.763,87.338,109.344,87.338z"/>
<path fill="#FFFFFF" d="M109.344,7.259c0,2.42,0,4.84,0,7.26c4.839,0,9.679,0,14.519,0c0,2.419,0,4.839,0,7.259
	c2.42,0,4.839,0,7.259,0c0,2.42,0,4.839,0,7.26c9.68,0,19.346,0,29.037,0c0-2.42,0-4.84,0-7.26c-2.42,0-4.839,0-7.26,0
	c0-2.419,0-4.839,0-7.259c-3.629,0-7.259,0-10.889,0s-7.271,0-10.889,0c0-2.42,0-4.84,0-7.26c-1.814,0-3.63,0-5.444,0
	c-0.227,0-0.467,0-0.681,0c-0.227,0-0.454,0-0.681,0c-0.453,0-0.92,0-1.361,0c-0.239,0-0.453,0-0.681,0c-0.227,0-0.453,0-0.681,0
	c-0.453,0-0.906,0-1.373,0c-0.214,0-0.441,0-0.681,0c-0.214,0-0.441,0-0.668,0c-0.454,0-0.907,0-1.361,0c-0.227,0-0.466,0-0.681,0
	c-0.227,0-0.454,0-0.681,0c-0.454,0-0.907,0-1.36,0c-0.24,0-0.454,0-0.681,0c-0.239,0-0.454,0-0.681,0c-0.454,0-0.907,0-1.373,0
	c-0.215,0-0.441,0-0.682,0c-0.214,0-0.441,0-0.668,0C110.251,7.259,109.798,7.259,109.344,7.259z"/>
<path fill="#FFFFFF" d="M176.719,160.158c-0.681,0-1.361,0-2.042,0c0,2.42,0,4.839,0,7.259c-3.629,0-7.26,0-10.889,0
	c-3.63,0-7.259,0-10.89,0c0-2.42,0-4.839,0-7.259c-0.227,0-0.453,0-0.68,0c-0.228,0-0.467,0-0.681,0c-0.467,0-0.907,0-1.361,0
	c-0.907,0-1.814,0-2.723,0c-1.814,0-3.629,0-5.444,0c-3.63,0-7.271,0-10.889,0c0-2.42,0-4.84,0-7.26c-4.839,0-9.691,0-14.519,0
	c0,4.84,0,9.68,0,14.519c-0.164,0-0.302,0-0.454,0c-2.949,0-5.897,0-8.847,0c-3.024,0-6.063,0-9.074,0c-6.049,0-12.1,0-18.148,0
	c0-2.42,0-4.839,0-7.259c-3.629,0-7.259,0-10.901,0c-3.617,0-7.247,0-10.876,0c0-2.42,0-4.84,0-7.26c-4.853,0-9.68,0-14.519,0
	c0-2.419,0-4.839,0-7.259c-2.421,0-4.853,0-7.26,0c0-2.42,0-4.84,0-7.26c-4.839,0-9.679,0-14.519,0c0-4.915,0-9.83,0-14.745
	c-2.42,0-4.84,0-7.26,0c0-3.63,0-7.259,0-10.889s0-7.26,0-10.89c-2.419,0-4.852,0-7.259,0c0,2.42,0,4.84,0,7.26
	c-1.21,0-2.42,0-3.63,0c-0.604,0-1.209,0-1.814,0c-0.681,0-1.361,0-2.042,0c0,4.84,0,9.679,0,14.519c0.075,0,0.151,0,0.228,0
	c1.209,0,2.42,0,3.629,0c1.21,0,2.42,0,3.63,0c0,1.21,0,2.42,0,3.63c0,0.604,0,1.209,0,1.814c0,0.681,0,1.361,0,2.042
	c2.407,0,4.84,0,7.259,0c0,4.839,0,9.679,0,14.519c4.84,0,9.667,0,14.52,0c0,4.84,0,9.679,0,14.519c2.42,0,4.84,0,7.259,0
	c0,2.42,0,4.839,0,7.259c4.839,0,9.679,0,14.519,0c0,2.42,0,4.84,0,7.26c4.827,0,9.68,0,14.519,0c0-2.42,0-4.84,0-7.26
	c2.42,0,4.827,0,7.26,0c0,2.42,0,4.84,0,7.26c2.42,0,4.839,0,7.259,0c0,2.42,0,4.84,0,7.26c2.42,0,4.827,0,7.26,0
	c0,2.419,0,4.839,0,7.258c4.915,0,9.83,0,14.745,0c0-2.419,0-4.839,0-7.258c4.827,0,9.679,0,14.519,0c0-2.42,0-4.84,0-7.26
	c2.42,0,4.827,0,7.26,0c0-2.42,0-4.84,0-7.26c3.629,0,7.259,0,10.876,0c3.642,0,7.271,0,10.901,0c0,2.42,0,4.84,0,7.26
	c0.228,0,0.441,0,0.681,0c0.228,0,0.453,0,0.681,0c0.151,0,0.29,0,0.453,0c0.228,0,0.441,0,0.681,0c0.151,0,0.303,0,0.441,0
	c0.239,0,0.467,0,0.693,0c0.151,0,0.303,0,0.453,0c0.228,0,0.454,0,0.681,0c1.513,0,3.025,0,4.537,0c1.513,0,3.024,0,4.537,0
	s3.024,0,4.537,0c0.757,0,1.5,0,2.269,0c0.379,0,0.756,0,1.134,0c0.151,0,0.303,0,0.454,0c0.215,0,0.454,0,0.681,0
	c0.139,0,0.303,0,0.454,0c0.227,0,0.453,0,0.681,0c0.151,0,0.29,0,0.453,0c0.228,0,0.441,0,0.681,0c0.151,0,0.303,0,0.441,0
	c0.239,0,0.467,0,0.692,0c0.151,0,0.304,0,0.454,0c0.227,0,0.454,0,0.681,0c0.151,0,0.303,0,0.454,0c0.214,0,0.453,0,0.681,0
	c0.139,0,0.302,0,0.453,0c0.228,0,0.454,0,0.681,0c0.151,0,0.29,0,0.454,0c0.227,0,0.44,0,0.681,0c0.151,0,0.303,0,0.44,0
	c0.24,0,0.467,0,0.693,0c0.151,0,0.303,0,0.453,0c0.228,0,0.454,0,0.681,0c0.151,0,0.303,0,0.454,0c0.215,0,0.454,0,0.681,0
	c0.139,0,0.303,0,0.454,0c0.227,0,0.453,0,0.681,0c0.151,0,0.289,0,0.453,0c0.228,0,0.441,0,0.681,0c0-2.42,0-4.84,0-7.26
	c4.827,0,9.68,0,14.519,0c0-0.227,0-0.453,0-0.68c0-0.228,0-0.454,0-0.682c0-0.453,0-0.906,0-1.361c0-0.906,0-1.814,0-2.721
	c0-1.815,0-3.631,0-5.445c0-0.907,0-1.814,0-2.722c0-0.228,0-0.454,0-0.681c0-0.228,0-0.454,0-0.681c0-0.454,0-0.907,0-1.361
	c0-0.907,0-1.815,0-2.723c0-0.226,0-0.453,0-0.681c0-0.227,0-0.453,0-0.68c0-0.454,0-0.908,0-1.361c2.42,0,4.827,0,7.259,0
	c0-4.84,0-9.68,0-14.519c-2.432,0-4.839,0-7.259,0c0,2.419,0,4.839,0,7.259c-2.42,0-4.839,0-7.26,0c0,4.84,0,9.68,0,14.519
	c-2.432,0-4.839,0-7.259,0c0,2.42,0,4.84,0,7.26c-1.21,0-2.42,0-3.63,0C177.929,160.158,177.324,160.158,176.719,160.158z"/>
<path fill="#232034" d="M116.603,131.121c2.42,0,4.827,0,7.26,0c0-1.21,0-2.421,0-3.63c0-0.605,0-1.21,0-1.814
	c0-0.682,0-1.361,0-2.042c-2.433,0-4.84,0-7.26,0c0,0.681,0,1.36,0,2.042c0,0.604,0,1.209,0,1.814
	C116.603,128.7,116.603,129.911,116.603,131.121z"/>
<path fill="#DFF3FD" d="M123.862,127.491c0,1.209,0,2.42,0,3.63c-2.433,0-4.84,0-7.26,0c0,2.419,0,4.839,0,7.259
	c3.479,0,6.957,0,10.435,0c0.832,0,1.664,0,2.496,0c0.907,0,1.815,0,2.722,0c1.803,0,3.63,0,5.445,0c0.227,0,0.453,0,0.68,0
	c0-2.42,0-4.84,0-7.259c2.421,0,4.84,0,7.26,0c0-4.915,0-9.831,0-14.745c2.42,0,4.827,0,7.259,0c0-3.63,0-7.26,0-10.89
	s0-7.259,0-10.889c-2.432,0-4.839,0-7.259,0c0,2.42,0,4.839,0,7.259c-2.42,0-4.839,0-7.26,0c0,2.42,0,4.84,0,7.26
	c0,4.84,0,9.679,0,14.519c-2.432,0-4.839,0-7.259,0s-4.839,0-7.259,0c0,0.681,0,1.36,0,2.042
	C123.862,126.281,123.862,126.886,123.862,127.491z"/>
<path fill="#232034" d="M123.862,109.116c0,4.84,0,9.679,0,14.519c2.42,0,4.839,0,7.259,0c0-4.84,0-9.679,0-14.519
	c2.42,0,4.827,0,7.259,0c0-2.42,0-4.84,0-7.26c2.421,0,4.84,0,7.26,0c0-2.42,0-4.839,0-7.259c2.42,0,4.827,0,7.259,0
	c0-3.63,0-7.26,0-10.889s0-7.259,0-10.889c0-2.419,0-4.839,0-7.259c-2.432,0-4.839,0-7.259,0c0,3.629,0,7.259,0,10.889
	s0,7.259,0,10.889c-2.42,0-4.839,0-7.26,0c0,2.42,0,4.839,0,7.26c-2.432,0-4.839,0-7.259,0c0,2.42,0,4.839,0,7.259
	c-2.42,0-4.839,0-7.259,0C123.862,104.276,123.862,106.696,123.862,109.116z"/>
<path fill="#848484" d="M123.862,51.042c0,2.419,0,4.839,0,7.259c2.42,0,4.839,0,7.259,0c0-2.42,0-4.839,0-7.259
	C128.701,51.042,126.282,51.042,123.862,51.042z"/>
<path fill="#E7F6FD" d="M131.121,109.116c0,4.84,0,9.679,0,14.519c2.42,0,4.827,0,7.259,0c0-4.84,0-9.679,0-14.519
	C135.948,109.116,133.541,109.116,131.121,109.116z"/>
<path fill="#232034" d="M131.121,51.042c0,2.419,0,4.839,0,7.259c2.42,0,4.827,0,7.259,0c0-2.42,0-4.839,0-7.259
	C135.948,51.042,133.541,51.042,131.121,51.042z"/>
<path fill="#DFF3FD" d="M131.121,43.782c0,2.42,0,4.84,0,7.26c2.42,0,4.827,0,7.259,0c0,2.419,0,4.839,0,7.259
	c2.421,0,4.84,0,7.26,0c0,2.42,0,4.84,0,7.26c2.42,0,4.827,0,7.259,0c0,2.419,0,4.839,0,7.259c2.421,0,4.84,0,7.26,0
	c0-0.076,0-0.151,0-0.227c0-0.53,0-1.059,0-1.588c0-0.605,0-1.21,0-1.815c0-1.21,0-2.419,0-3.629c0-2.42,0-4.84,0-7.26
	c0-4.839,0-9.679,0-14.519C150.467,43.782,140.801,43.782,131.121,43.782z"/>
<path fill="#232034" d="M138.38,58.301c0,2.42,0,4.84,0,7.26c2.421,0,4.84,0,7.26,0c0-2.42,0-4.84,0-7.26
	C143.22,58.301,140.801,58.301,138.38,58.301z"/>
<path fill="#DFF3FD" d="M145.64,131.121c0,2.419,0,4.839,0,7.259c2.42,0,4.827,0,7.259,0c0,2.42,0,4.84,0,7.26
	c2.193,0,4.386,0,6.579,0c0.228,0,0.441,0,0.681,0c0-2.42,0-4.84,0-7.26c2.42,0,4.827,0,7.259,0c0-2.192,0-4.386,0-6.578
	c0-0.227,0-0.454,0-0.681c-2.432,0-4.839,0-7.259,0c0-2.495,0-4.991,0-7.486c-2.42,0-4.839,0-7.26,0c0,2.495,0,4.991,0,7.486
	C150.467,131.121,148.06,131.121,145.64,131.121z"/>
<path fill="#FFFFFF" d="M167.417,51.042c2.421,0,4.841,0,7.26,0c0,3.629,0,7.259,0,10.888c0,3.63,0,7.26,0,10.889
	c-2.419,0-4.839,0-7.26,0c0,0.227,0,0.454,0,0.681s0,0.454,0,0.681c0,0.454,0,0.908,0,1.361c0,0.907,0,1.814,0,2.722
	c0,1.815,0,3.629,0,5.444c0,3.629,0,7.259,0,10.889c0.228,0,0.454,0,0.669,0c0.239,0,0.466,0,0.681,0c0.466,0,0.92,0,1.373,0
	c0.908,0,1.814,0,2.723,0c1.739,0,3.466,0,5.217,0c1.74,0,3.479,0,5.218,0c1.803,0,3.63,0,5.445,0c0.227,0,0.453,0,0.68,0
	c0-2.42,0-4.84,0-7.26c-2.432,0-4.839,0-7.259,0c-1.21,0-2.42,0-3.63,0c-0.604,0-1.209,0-1.814,0c-0.681,0-1.361,0-2.042,0
	c0-2.419,0-4.839,0-7.259c1.21,0,2.42,0,3.63,0c0.604,0,1.21,0,1.803,0c0.692,0,1.373,0,2.054,0c0-6.05,0-12.099,0-18.149
	c0-3.024,0-6.049,0-9.074c0-0.378,0-0.756,0-1.134c0-0.151,0-0.303,0-0.454c0-0.227,0-0.454,0-0.681c0-0.151,0-0.302,0-0.454
	c0-0.227,0-0.454,0-0.681c0-0.151,0-0.302,0-0.454c0-0.227,0-0.454,0-0.681c0-0.151,0-0.302,0-0.454c0-0.227,0-0.454,0-0.681
	c0-0.151,0-0.303,0-0.454c0-0.227,0-0.454,0-0.681c0-0.151,0-0.303,0-0.454c0-0.226,0-0.453,0-0.681c0-0.15,0-0.302,0-0.453
	c0-0.227,0-0.454,0-0.681c-0.076,0-0.164,0-0.239,0c-1.21,0-2.407,0-3.617,0s-2.42,0-3.63,0c0-2.42,0-4.839,0-7.259
	c0-1.21,0-2.42,0-3.63c0-0.605,0-1.21,0-1.815c0-0.681,0-1.36,0-2.041c-4.839,0-9.691,0-14.519,0c0,2.42,0,4.839,0,7.259
	c2.42,0,4.827,0,7.259,0c0,2.42,0,4.839,0,7.26c0,1.21,0,2.42,0,3.629c0,0.605,0,1.21,0,1.815c0,0.302,0,0.605,0,0.908
	c0,0.151,0,0.302,0,0.454C167.417,50.588,167.417,50.814,167.417,51.042z"/>
<path fill="#FFFFFF" d="M203.94,108.436c0,0.227,0,0.454,0,0.681c2.421,0,4.84,0,7.26,0c0,2.42,0,4.84,0,7.26
	c-2.42,0-4.839,0-7.26,0c0,4.914,0,9.83,0,14.745c2.421,0,4.84,0,7.26,0c0-0.075,0-0.151,0-0.228c0-0.604,0-1.209,0-1.814
	s0-1.21,0-1.814c0-1.21,0-2.42,0-3.63c1.21,0,2.42,0,3.63,0c1.197,0,2.407,0,3.629,0c0-4.84,0-9.679,0-14.519
	c1.21,0,2.421,0,3.631,0s2.419,0,3.629,0c0-2.42,0-4.84,0-7.26c-1.21,0-2.419,0-3.629,0s-2.421,0-3.631,0c0-4.839,0-9.679,0-14.519
	c-0.074,0-0.15,0-0.226,0c-0.076,0-0.152,0-0.228,0c-0.164,0-0.302,0-0.453,0c-0.315,0-0.605,0-0.921,0c-0.604,0-1.197,0-1.802,0
	c-1.21,0-2.42,0-3.63,0c0-2.419,0-4.839,0-7.259c-1.814,0-3.629,0-5.444,0s-3.643,0-5.444,0c-3.63,0-7.26,0-10.89,0
	c0,2.419,0,4.839,0,7.259c4.84,0,9.68,0,14.519,0c0,0.228,0,0.454,0,0.681c0,0.151,0,0.303,0,0.454c0,0.227,0,0.454,0,0.681
	c0,0.227,0,0.454,0,0.681c0,0.227,0,0.454,0,0.681c0,0.151,0,0.303,0,0.454c0,0.227,0,0.454,0,0.681s0,0.454,0,0.68
	c0,0.227,0,0.454,0,0.681c0,0.151,0,0.303,0,0.454c0,0.227,0,0.454,0,0.681c0,0.227,0,0.454,0,0.681c0,0.227,0,0.454,0,0.681
	c0,0.908,0,1.814,0,2.723c0,0.15,0,0.302,0,0.453c0,0.227,0,0.453,0,0.681s0,0.454,0,0.681s0,0.453,0,0.681c0,0.151,0,0.302,0,0.454
	c0,0.227,0,0.453,0,0.68c0,0.228,0,0.453,0,0.681s0,0.454,0,0.681c0,0.151,0,0.303,0,0.453c0,0.228,0,0.454,0,0.682
	c0,0.227,0,0.453,0,0.68c0,0.228,0,0.454,0,0.682C203.94,106.621,203.94,107.528,203.94,108.436z"/>
<g id="XMLID_2_">
	<g>
		<path fill="#232034" d="M15.523,138.64c0,2.33,0,4.67,0,7c2.42,0,4.83,0,7.26,0c0-2.25,0-4.49,0-6.74c-0.09,0-0.17,0-0.26,0
			c0-0.09,0-0.17,0-0.26C20.183,138.64,17.853,138.64,15.523,138.64z"/>
		<path fill="#232034" d="M16.433,145.899c-0.31,0-0.61,0-0.91,0c0,2.25,0,4.49,0,6.74c2.42,0,4.83,0,7.26,0c0-2.25,0-4.49,0-6.74
			c-0.23,0-0.45,0-0.68,0c-1.07,0-2.12,0-3.18,0c-0.53,0-1.07,0-1.59,0C17.033,145.899,16.733,145.899,16.433,145.899z"/>
		<path fill="#232034" d="M17.333,152.899c-0.3,0-0.6,0-0.9,0c-0.31,0-0.61,0-0.91,0c0,1.45,0,3.78,0,7c0.3,0,0.6,0,0.91,0
			c0.3,0,0.6,0,0.9,0c0.52,0,1.06,0,1.59,0c1.06,0,2.11,0,3.18,0c0.14,0,0.28,0,0.42,0c0-0.09,0-0.17,0-0.26c0.09,0,0.17,0,0.26,0
			c0-2.25,0-4.49,0-6.74c-0.23,0-0.45,0-0.68,0c-1.07,0-2.12,0-3.18,0C18.393,152.899,17.853,152.899,17.333,152.899z"/>
		<path fill="#232034" d="M17.333,152.899c0.52,0,1.06,0,1.59,0c1.06,0,2.11,0,3.18,0c0.23,0,0.45,0,0.68,0c0-0.09,0-0.17,0-0.26
			c-2.43,0-4.84,0-7.26,0c0,0.08,0,0.17,0,0.26c0.3,0,0.6,0,0.91,0C16.733,152.899,17.033,152.899,17.333,152.899z"/>
		<path fill="#232034" d="M22.783,145.64c-2.43,0-4.84,0-7.26,0c0,0.09,0,0.17,0,0.26c0.3,0,0.6,0,0.91,0c0.3,0,0.6,0,0.9,0
			c0.52,0,1.06,0,1.59,0c1.06,0,2.11,0,3.18,0c0.23,0,0.45,0,0.68,0C22.783,145.81,22.783,145.729,22.783,145.64z"/>
		<path fill="#232034" d="M22.523,159.899c0,2.33,0,4.67,0,7c0.3,0,0.6,0,0.91,0c0.3,0,0.6,0,0.9,0c0.52,0,1.06,0,1.59,0
			c1.06,0,2.11,0,3.18,0c0.23,0,0.45,0,0.68,0c0-2.33,0-4.67,0-7c-0.09,0-0.17,0-0.26,0c0-0.09,0-0.17,0-0.26c-2.26,0-4.49,0-6.74,0
			c0,0.09,0,0.17,0,0.26C22.693,159.899,22.613,159.899,22.523,159.899z"/>
		<path fill="#232034" d="M22.523,159.64c0,0.09,0,0.17,0,0.26c0.09,0,0.17,0,0.26,0c0-0.09,0-0.17,0-0.26
			C22.693,159.64,22.613,159.64,22.523,159.64z"/>
		<path fill="#232034" d="M22.523,138.64c0,0.09,0,0.17,0,0.26c0.09,0,0.17,0,0.26,0c0-0.09,0-0.17,0-0.26
			C22.693,138.64,22.613,138.64,22.523,138.64z"/>
		<path fill="#232034" d="M22.523,131.64c0,2.33,0,4.67,0,7c0.09,0,0.17,0,0.26,0c0,0.09,0,0.17,0,0.26c0.21,0,0.43,0,0.65,0
			c0.3,0,0.6,0,0.9,0c0.52,0,1.06,0,1.59,0c1.06,0,2.11,0,3.18,0c0.14,0,0.28,0,0.42,0c0-2.42,0-4.84,0-7.26
			C27.183,131.64,24.853,131.64,22.523,131.64z"/>
		<path fill="#C3CAD1" d="M24.333,138.899c-0.3,0-0.6,0-0.9,0c-0.22,0-0.44,0-0.65,0c0,2.25,0,4.49,0,6.74c0,0.09,0,0.17,0,0.26
			c0,2.25,0,4.49,0,6.74c0,0.09,0,0.17,0,0.26c0,2.25,0,4.49,0,6.74c2.25,0,4.48,0,6.74,0c0-2.25,0-4.49,0-6.74
			c0-0.09,0-0.17,0-0.26c0-2.33,0-4.67,0-7c2.42,0,4.83,0,7.26,0c0,2.33,0,4.67,0,7c0,0.09,0,0.17,0,0.26c0,2.25,0,4.49,0,6.74
			c2.25,0,4.48,0,6.74,0c0-2.25,0-4.49,0-6.74c0-0.08,0-0.17,0-0.26c0-1.45,0-3.78,0-7c2.42,0,4.83,0,7.26,0c0,2.33,0,4.67,0,7
			c0,0.09,0,0.17,0,0.26c0,2.25,0,4.49,0,6.74c2.25,0,4.48,0,6.74,0c0-2.25,0-4.49,0-6.74c0-0.09,0-0.17,0-0.26
			c0-2.25,0-4.49,0-6.74c0-0.09,0-0.17,0-0.26c0-2.25,0-4.49,0-6.74c-0.14,0-0.28,0-0.42,0c-1.07,0-2.12,0-3.18,0
			c-0.53,0-1.07,0-1.59,0c-0.3,0-0.6,0-0.9,0c-0.22,0-0.44,0-0.65,0c-0.09,0-0.17,0-0.26,0c-0.14,0-0.28,0-0.42,0
			c-1.07,0-2.12,0-3.18,0c-0.53,0-1.07,0-1.59,0c-0.3,0-0.6,0-0.9,0c-0.22,0-0.44,0-0.65,0c-0.09,0-0.17,0-0.26,0
			c-0.14,0-0.28,0-0.42,0c-1.07,0-2.12,0-3.18,0c-0.53,0-1.07,0-1.59,0c-0.3,0-0.6,0-0.9,0c-0.22,0-0.44,0-0.65,0
			c-0.09,0-0.17,0-0.26,0c-0.14,0-0.28,0-0.42,0c-1.07,0-2.12,0-3.18,0c-0.53,0-1.07,0-1.59,0c-0.3,0-0.6,0-0.9,0
			c-0.22,0-0.44,0-0.65,0c-0.09,0-0.17,0-0.26,0c-0.14,0-0.28,0-0.42,0c-1.07,0-2.12,0-3.18,0
			C25.393,138.899,24.853,138.899,24.333,138.899z"/>
		<path fill="#232034" d="M29.523,159.64c0,0.09,0,0.17,0,0.26c0.09,0,0.17,0,0.26,0c0-0.09,0-0.17,0-0.26
			C29.693,159.64,29.613,159.64,29.523,159.64z"/>
		<path fill="#232034" d="M29.523,145.64c0,2.33,0,4.67,0,7c2.42,0,4.83,0,7.26,0c0-2.33,0-4.67,0-7
			C34.353,145.64,31.943,145.64,29.523,145.64z"/>
		<path fill="#232034" d="M29.523,131.64c0,2.42,0,4.84,0,7.26c0.09,0,0.17,0,0.26,0c0-2.42,0-4.84,0-7.26
			C29.693,131.64,29.613,131.64,29.523,131.64z"/>
		<path fill="#232034" d="M29.523,152.899c0,2.25,0,4.49,0,6.74c0.09,0,0.17,0,0.26,0c0,0.09,0,0.17,0,0.26c0.21,0,0.43,0,0.65,0
			c0.3,0,0.6,0,0.9,0c0.52,0,1.06,0,1.59,0c1.06,0,2.11,0,3.18,0c0.14,0,0.28,0,0.42,0c0-0.09,0-0.17,0-0.26c0.09,0,0.17,0,0.26,0
			c0-2.25,0-4.49,0-6.74c-0.23,0-0.45,0-0.68,0c-1.07,0-2.12,0-3.18,0c-0.53,0-1.07,0-1.59,0c-0.3,0-0.6,0-0.9,0
			C30.123,152.899,29.823,152.899,29.523,152.899z"/>
		<path fill="#232034" d="M29.783,131.64c0,2.42,0,4.84,0,7.26c0.21,0,0.43,0,0.65,0c0.3,0,0.6,0,0.9,0c0.52,0,1.06,0,1.59,0
			c1.06,0,2.11,0,3.18,0c0.14,0,0.28,0,0.42,0c0-2.42,0-4.84,0-7.26C34.263,131.64,32.033,131.64,29.783,131.64z"/>
		<path fill="#232034" d="M32.923,152.899c1.06,0,2.11,0,3.18,0c0.23,0,0.45,0,0.68,0c0-0.09,0-0.17,0-0.26c-2.43,0-4.84,0-7.26,0
			c0,0.09,0,0.17,0,0.26c0.3,0,0.6,0,0.91,0c0.3,0,0.6,0,0.9,0C31.853,152.899,32.393,152.899,32.923,152.899z"/>
		<path fill="#232034" d="M36.523,159.899c0,2.33,0,4.67,0,7c0.3,0,0.6,0,0.91,0c0.3,0,0.6,0,0.9,0c0.52,0,1.06,0,1.59,0
			c1.06,0,2.11,0,3.18,0c0.23,0,0.45,0,0.68,0c0-2.33,0-4.67,0-7c-0.09,0-0.17,0-0.26,0c0-0.09,0-0.17,0-0.26c-2.26,0-4.49,0-6.74,0
			c0,0.09,0,0.17,0,0.26C36.693,159.899,36.613,159.899,36.523,159.899z"/>
		<path fill="#232034" d="M36.523,159.64c0,0.09,0,0.17,0,0.26c0.09,0,0.17,0,0.26,0c0-0.09,0-0.17,0-0.26
			C36.693,159.64,36.613,159.64,36.523,159.64z"/>
		<path fill="#232034" d="M36.523,131.64c0,2.42,0,4.84,0,7.26c0.09,0,0.17,0,0.26,0c0-2.42,0-4.84,0-7.26
			C36.693,131.64,36.613,131.64,36.523,131.64z"/>
		<path fill="#232034" d="M36.783,131.64c0,2.42,0,4.84,0,7.26c0.21,0,0.43,0,0.65,0c0.3,0,0.6,0,0.9,0c0.52,0,1.06,0,1.59,0
			c1.06,0,2.11,0,3.18,0c0.14,0,0.28,0,0.42,0c0-2.42,0-4.84,0-7.26C41.263,131.64,39.033,131.64,36.783,131.64z"/>
		<path fill="#232034" d="M43.523,159.64c0,0.09,0,0.17,0,0.26c0.09,0,0.17,0,0.26,0c0-0.09,0-0.17,0-0.26
			C43.693,159.64,43.613,159.64,43.523,159.64z"/>
		<path fill="#232034" d="M43.523,145.64c0,3.22,0,5.55,0,7c2.42,0,4.83,0,7.26,0c0-2.33,0-4.67,0-7
			C48.353,145.64,45.943,145.64,43.523,145.64z"/>
		<path fill="#232034" d="M43.523,131.64c0,2.42,0,4.84,0,7.26c0.09,0,0.17,0,0.26,0c0-2.42,0-4.84,0-7.26
			C43.693,131.64,43.613,131.64,43.523,131.64z"/>
		<path fill="#232034" d="M43.523,152.899c0,2.25,0,4.49,0,6.74c0.09,0,0.17,0,0.26,0c0,0.09,0,0.17,0,0.26c0.21,0,0.43,0,0.65,0
			c0.3,0,0.6,0,0.9,0c0.52,0,1.06,0,1.59,0c1.06,0,2.11,0,3.18,0c0.14,0,0.28,0,0.42,0c0-0.09,0-0.17,0-0.26c0.09,0,0.17,0,0.26,0
			c0-2.25,0-4.49,0-6.74c-0.23,0-0.45,0-0.68,0c-1.07,0-2.12,0-3.18,0c-0.53,0-1.07,0-1.59,0c-0.3,0-0.6,0-0.9,0
			C44.123,152.899,43.823,152.899,43.523,152.899z"/>
		<path fill="#232034" d="M43.783,131.64c0,2.42,0,4.84,0,7.26c0.21,0,0.43,0,0.65,0c0.3,0,0.6,0,0.9,0c0.52,0,1.06,0,1.59,0
			c1.06,0,2.11,0,3.18,0c0.14,0,0.28,0,0.42,0c0-2.42,0-4.84,0-7.26C48.263,131.64,46.033,131.64,43.783,131.64z"/>
		<path fill="#232034" d="M45.333,152.899c0.52,0,1.06,0,1.59,0c1.06,0,2.11,0,3.18,0c0.23,0,0.45,0,0.68,0c0-0.09,0-0.17,0-0.26
			c-2.43,0-4.84,0-7.26,0c0,0.09,0,0.18,0,0.26c0.3,0,0.6,0,0.91,0C44.733,152.899,45.033,152.899,45.333,152.899z"/>
		<path fill="#232034" d="M50.523,159.899c0,2.33,0,4.67,0,7c0.3,0,0.6,0,0.91,0c0.3,0,0.6,0,0.9,0c0.52,0,1.06,0,1.59,0
			c1.06,0,2.11,0,3.18,0c0.23,0,0.45,0,0.68,0c0-2.33,0-4.67,0-7c-0.09,0-0.17,0-0.26,0c0-0.09,0-0.17,0-0.26c-2.26,0-4.49,0-6.74,0
			c0,0.09,0,0.17,0,0.26C50.693,159.899,50.613,159.899,50.523,159.899z"/>
		<path fill="#232034" d="M50.523,159.64c0,0.09,0,0.17,0,0.26c0.09,0,0.17,0,0.26,0c0-0.09,0-0.17,0-0.26
			C50.693,159.64,50.613,159.64,50.523,159.64z"/>
		<path fill="#232034" d="M50.523,131.64c0,2.42,0,4.84,0,7.26c0.09,0,0.17,0,0.26,0c0-2.42,0-4.84,0-7.26
			C50.693,131.64,50.613,131.64,50.523,131.64z"/>
		<path fill="#232034" d="M50.783,131.64c0,2.42,0,4.84,0,7.26c0.21,0,0.43,0,0.65,0c0.3,0,0.6,0,0.9,0c0.52,0,1.06,0,1.59,0
			c1.06,0,2.11,0,3.18,0c0.14,0,0.28,0,0.42,0c0-0.09,0-0.17,0-0.26c0.09,0,0.17,0,0.26,0c0-2.33,0-4.67,0-7
			C55.443,131.64,53.113,131.64,50.783,131.64z"/>
		<path fill="#232034" d="M57.523,159.64c0,0.09,0,0.17,0,0.26c0.09,0,0.17,0,0.26,0c0-0.09,0-0.17,0-0.26
			C57.693,159.64,57.613,159.64,57.523,159.64z"/>
		<path fill="#232034" d="M57.523,138.899c0,2.25,0,4.49,0,6.74c2.42,0,4.83,0,7.26,0c0-2.33,0-4.67,0-7c-2.34,0-4.67,0-7,0
			c0,0.09,0,0.17,0,0.26C57.693,138.899,57.613,138.899,57.523,138.899z"/>
		<path fill="#232034" d="M57.523,138.64c0,0.09,0,0.17,0,0.26c0.09,0,0.17,0,0.26,0c0-0.09,0-0.17,0-0.26
			C57.693,138.64,57.613,138.64,57.523,138.64z"/>
		<path fill="#232034" d="M58.433,145.899c-0.31,0-0.61,0-0.91,0c0,2.25,0,4.49,0,6.74c2.42,0,4.83,0,7.26,0c0-2.25,0-4.49,0-6.74
			c-0.23,0-0.45,0-0.68,0c-1.07,0-2.12,0-3.18,0c-0.53,0-1.07,0-1.59,0C59.033,145.899,58.733,145.899,58.433,145.899z"/>
		<path fill="#232034" d="M58.433,152.899c-0.31,0-0.61,0-0.91,0c0,2.25,0,4.49,0,6.74c0.09,0,0.17,0,0.26,0c0,0.09,0,0.17,0,0.26
			c0.21,0,0.43,0,0.65,0c0.3,0,0.6,0,0.9,0c0.52,0,1.06,0,1.59,0c1.06,0,2.11,0,3.18,0c0.23,0,0.45,0,0.68,0c0-2.33,0-4.67,0-7
			c-0.23,0-0.45,0-0.68,0c-1.07,0-2.12,0-3.18,0c-0.53,0-1.07,0-1.59,0C59.033,152.899,58.733,152.899,58.433,152.899z"/>
		<path fill="#232034" d="M60.923,152.899c1.06,0,2.11,0,3.18,0c0.23,0,0.45,0,0.68,0c0-0.09,0-0.17,0-0.26c-2.43,0-4.84,0-7.26,0
			c0,0.09,0,0.17,0,0.26c0.3,0,0.6,0,0.91,0c0.3,0,0.6,0,0.9,0C59.853,152.899,60.393,152.899,60.923,152.899z"/>
		<path fill="#232034" d="M59.333,145.899c0.52,0,1.06,0,1.59,0c1.06,0,2.11,0,3.18,0c0.23,0,0.45,0,0.68,0c0-0.09,0-0.17,0-0.26
			c-2.43,0-4.84,0-7.26,0c0,0.09,0,0.17,0,0.26c0.3,0,0.6,0,0.91,0C58.733,145.899,59.033,145.899,59.333,145.899z"/>
	</g>
	<g>
	</g>
</g>
<g id="XMLID_1_">
	<g>
		<path fill="#232034" d="M131.899,137.23c0,2.33,0,4.67,0,7c2.42,0,4.83,0,7.26,0c0-2.25,0-4.49,0-6.74c-0.09,0-0.17,0-0.26,0
			c0-0.09,0-0.17,0-0.26C136.559,137.23,134.229,137.23,131.899,137.23z"/>
		<path fill="#232034" d="M131.899,144.49c0,2.25,0,4.49,0,6.74c2.42,0,4.83,0,7.26,0c0-2.25,0-4.49,0-6.74c-0.23,0-0.45,0-0.68,0
			c-1.07,0-2.12,0-3.181,0c-0.53,0-1.069,0-1.59,0c-0.3,0-0.6,0-0.9,0C132.499,144.49,132.199,144.49,131.899,144.49z"/>
		<path fill="#232034" d="M131.899,151.49c0,1.45,0,3.78,0,7c0.3,0,0.6,0,0.909,0c0.301,0,0.601,0,0.9,0c0.521,0,1.06,0,1.59,0
			c1.061,0,2.11,0,3.181,0c0.14,0,0.279,0,0.42,0c0-0.09,0-0.17,0-0.26c0.09,0,0.17,0,0.26,0c0-2.25,0-4.49,0-6.74
			c-0.23,0-0.45,0-0.68,0c-1.07,0-2.12,0-3.181,0c-0.53,0-1.069,0-1.59,0c-0.3,0-0.6,0-0.9,0
			C132.499,151.49,132.199,151.49,131.899,151.49z"/>
		<path fill="#232034" d="M135.299,151.49c1.061,0,2.11,0,3.181,0c0.229,0,0.449,0,0.68,0c0-0.09,0-0.17,0-0.26
			c-2.43,0-4.84,0-7.26,0c0,0.08,0,0.17,0,0.26c0.3,0,0.6,0,0.909,0c0.301,0,0.601,0,0.9,0
			C134.229,151.49,134.769,151.49,135.299,151.49z"/>
		<path fill="#232034" d="M139.159,144.23c-2.43,0-4.84,0-7.26,0c0,0.09,0,0.17,0,0.26c0.3,0,0.6,0,0.909,0c0.301,0,0.601,0,0.9,0
			c0.521,0,1.06,0,1.59,0c1.061,0,2.11,0,3.181,0c0.229,0,0.449,0,0.68,0C139.159,144.4,139.159,144.32,139.159,144.23z"/>
		<path fill="#232034" d="M138.899,158.49c0,2.33,0,4.67,0,7c0.3,0,0.6,0,0.909,0c0.301,0,0.601,0,0.9,0c0.521,0,1.06,0,1.59,0
			c1.061,0,2.11,0,3.181,0c0.229,0,0.449,0,0.68,0c0-2.33,0-4.67,0-7c-0.09,0-0.17,0-0.26,0c0-0.09,0-0.17,0-0.26
			c-2.261,0-4.49,0-6.74,0c0,0.09,0,0.17,0,0.26C139.069,158.49,138.989,158.49,138.899,158.49z"/>
		<path fill="#232034" d="M138.899,158.23c0,0.09,0,0.17,0,0.26c0.09,0,0.17,0,0.26,0c0-0.09,0-0.17,0-0.26
			C139.069,158.23,138.989,158.23,138.899,158.23z"/>
		<path fill="#232034" d="M138.899,137.23c0,0.09,0,0.17,0,0.26c0.09,0,0.17,0,0.26,0c0-0.09,0-0.17,0-0.26
			C139.069,137.23,138.989,137.23,138.899,137.23z"/>
		<path fill="#232034" d="M138.899,130.23c0,2.33,0,4.67,0,7c0.09,0,0.17,0,0.26,0c0,0.09,0,0.17,0,0.26c0.21,0,0.43,0,0.649,0
			c0.301,0,0.601,0,0.9,0c0.521,0,1.06,0,1.59,0c1.061,0,2.11,0,3.181,0c0.14,0,0.279,0,0.42,0c0-2.42,0-4.84,0-7.26
			C143.559,130.23,141.229,130.23,138.899,130.23z"/>
		<path fill="#C3CAD1" d="M139.159,137.49c0,2.25,0,4.49,0,6.74c0,0.09,0,0.17,0,0.26c0,2.25,0,4.49,0,6.74c0,0.09,0,0.17,0,0.26
			c0,2.25,0,4.49,0,6.74c2.25,0,4.479,0,6.74,0c0-2.25,0-4.49,0-6.74c0-0.09,0-0.17,0-0.26c0-2.33,0-4.67,0-7c2.42,0,4.83,0,7.26,0
			c0,2.33,0,4.67,0,7c0,0.09,0,0.17,0,0.26c0,2.25,0,4.49,0,6.74c2.25,0,4.479,0,6.74,0c0-2.25,0-4.49,0-6.74c0-0.08,0-0.17,0-0.26
			c0-1.45,0-3.78,0-7c2.42,0,4.83,0,7.26,0c0,2.33,0,4.67,0,7c0,0.09,0,0.17,0,0.26c0,2.25,0,4.49,0,6.74c2.25,0,4.479,0,6.74,0
			c0-2.25,0-4.49,0-6.74c0-0.09,0-0.17,0-0.26c0-2.25,0-4.49,0-6.74c0-0.09,0-0.17,0-0.26c0-2.25,0-4.49,0-6.74
			c-0.141,0-0.28,0-0.42,0c-1.07,0-2.12,0-3.181,0c-0.53,0-1.069,0-1.59,0c-0.3,0-0.6,0-0.9,0c-0.22,0-0.439,0-0.649,0
			c-0.09,0-0.17,0-0.26,0c-0.141,0-0.28,0-0.42,0c-1.07,0-2.12,0-3.181,0c-0.53,0-1.069,0-1.59,0c-0.3,0-0.6,0-0.9,0
			c-0.22,0-0.439,0-0.649,0c-0.09,0-0.17,0-0.26,0c-0.141,0-0.28,0-0.42,0c-1.07,0-2.12,0-3.181,0c-0.53,0-1.069,0-1.59,0
			c-0.3,0-0.6,0-0.9,0c-0.22,0-0.439,0-0.649,0c-0.09,0-0.17,0-0.26,0c-0.141,0-0.28,0-0.42,0c-1.07,0-2.12,0-3.181,0
			c-0.53,0-1.069,0-1.59,0c-0.3,0-0.6,0-0.9,0c-0.22,0-0.439,0-0.649,0c-0.09,0-0.17,0-0.26,0c-0.141,0-0.28,0-0.42,0
			c-1.07,0-2.12,0-3.181,0c-0.53,0-1.069,0-1.59,0c-0.3,0-0.6,0-0.9,0C139.589,137.49,139.369,137.49,139.159,137.49z"/>
		<path fill="#232034" d="M145.899,158.23c0,0.09,0,0.17,0,0.26c0.09,0,0.17,0,0.26,0c0-0.09,0-0.17,0-0.26
			C146.069,158.23,145.989,158.23,145.899,158.23z"/>
		<path fill="#232034" d="M145.899,144.23c0,2.33,0,4.67,0,7c2.42,0,4.83,0,7.26,0c0-2.33,0-4.67,0-7
			C150.729,144.23,148.319,144.23,145.899,144.23z"/>
		<path fill="#232034" d="M145.899,130.23c0,2.42,0,4.84,0,7.26c0.09,0,0.17,0,0.26,0c0-2.42,0-4.84,0-7.26
			C146.069,130.23,145.989,130.23,145.899,130.23z"/>
		<path fill="#232034" d="M145.899,151.49c0,2.25,0,4.49,0,6.74c0.09,0,0.17,0,0.26,0c0,0.09,0,0.17,0,0.26c0.21,0,0.43,0,0.649,0
			c0.301,0,0.601,0,0.9,0c0.521,0,1.06,0,1.59,0c1.061,0,2.11,0,3.181,0c0.14,0,0.279,0,0.42,0c0-0.09,0-0.17,0-0.26
			c0.09,0,0.17,0,0.26,0c0-2.25,0-4.49,0-6.74c-0.23,0-0.45,0-0.68,0c-1.07,0-2.12,0-3.181,0c-0.53,0-1.069,0-1.59,0
			c-0.3,0-0.6,0-0.9,0C146.499,151.49,146.199,151.49,145.899,151.49z"/>
		<path fill="#232034" d="M146.159,130.23c0,2.42,0,4.84,0,7.26c0.21,0,0.43,0,0.649,0c0.301,0,0.601,0,0.9,0c0.521,0,1.06,0,1.59,0
			c1.061,0,2.11,0,3.181,0c0.14,0,0.279,0,0.42,0c0-2.42,0-4.84,0-7.26C150.639,130.23,148.409,130.23,146.159,130.23z"/>
		<path fill="#232034" d="M147.709,151.49c0.521,0,1.06,0,1.59,0c1.061,0,2.11,0,3.181,0c0.229,0,0.449,0,0.68,0
			c0-0.09,0-0.17,0-0.26c-2.43,0-4.84,0-7.26,0c0,0.09,0,0.17,0,0.26c0.3,0,0.6,0,0.909,0
			C147.109,151.49,147.409,151.49,147.709,151.49z"/>
		<path fill="#232034" d="M152.899,158.49c0,2.33,0,4.67,0,7c0.3,0,0.6,0,0.909,0c0.301,0,0.601,0,0.9,0c0.521,0,1.06,0,1.59,0
			c1.061,0,2.11,0,3.181,0c0.229,0,0.449,0,0.68,0c0-2.33,0-4.67,0-7c-0.09,0-0.17,0-0.26,0c0-0.09,0-0.17,0-0.26
			c-2.261,0-4.49,0-6.74,0c0,0.09,0,0.17,0,0.26C153.069,158.49,152.989,158.49,152.899,158.49z"/>
		<path fill="#232034" d="M152.899,158.23c0,0.09,0,0.17,0,0.26c0.09,0,0.17,0,0.26,0c0-0.09,0-0.17,0-0.26
			C153.069,158.23,152.989,158.23,152.899,158.23z"/>
		<path fill="#232034" d="M152.899,130.23c0,2.42,0,4.84,0,7.26c0.09,0,0.17,0,0.26,0c0-2.42,0-4.84,0-7.26
			C153.069,130.23,152.989,130.23,152.899,130.23z"/>
		<path fill="#232034" d="M153.159,130.23c0,2.42,0,4.84,0,7.26c0.21,0,0.43,0,0.649,0c0.301,0,0.601,0,0.9,0c0.521,0,1.06,0,1.59,0
			c1.061,0,2.11,0,3.181,0c0.14,0,0.279,0,0.42,0c0-2.42,0-4.84,0-7.26C157.639,130.23,155.409,130.23,153.159,130.23z"/>
		<path fill="#232034" d="M159.899,158.23c0,0.09,0,0.17,0,0.26c0.09,0,0.17,0,0.26,0c0-0.09,0-0.17,0-0.26
			C160.069,158.23,159.989,158.23,159.899,158.23z"/>
		<path fill="#232034" d="M159.899,144.23c0,3.22,0,5.55,0,7c2.42,0,4.83,0,7.26,0c0-2.33,0-4.67,0-7
			C164.729,144.23,162.319,144.23,159.899,144.23z"/>
		<path fill="#232034" d="M159.899,130.23c0,2.42,0,4.84,0,7.26c0.09,0,0.17,0,0.26,0c0-2.42,0-4.84,0-7.26
			C160.069,130.23,159.989,130.23,159.899,130.23z"/>
		<path fill="#232034" d="M160.809,151.49c-0.31,0-0.609,0-0.909,0c0,2.25,0,4.49,0,6.74c0.09,0,0.17,0,0.26,0c0,0.09,0,0.17,0,0.26
			c0.21,0,0.43,0,0.649,0c0.301,0,0.601,0,0.9,0c0.521,0,1.06,0,1.59,0c1.061,0,2.11,0,3.181,0c0.14,0,0.279,0,0.42,0
			c0-0.09,0-0.17,0-0.26c0.09,0,0.17,0,0.26,0c0-2.25,0-4.49,0-6.74c-0.23,0-0.45,0-0.68,0c-1.07,0-2.12,0-3.181,0
			c-0.53,0-1.069,0-1.59,0C161.409,151.49,161.109,151.49,160.809,151.49z"/>
		<path fill="#232034" d="M160.159,130.23c0,2.42,0,4.84,0,7.26c0.21,0,0.43,0,0.649,0c0.301,0,0.601,0,0.9,0c0.521,0,1.06,0,1.59,0
			c1.061,0,2.11,0,3.181,0c0.14,0,0.279,0,0.42,0c0-2.42,0-4.84,0-7.26C164.639,130.23,162.409,130.23,160.159,130.23z"/>
		<path fill="#232034" d="M163.299,151.49c1.061,0,2.11,0,3.181,0c0.229,0,0.449,0,0.68,0c0-0.09,0-0.17,0-0.26
			c-2.43,0-4.84,0-7.26,0c0,0.09,0,0.18,0,0.26c0.3,0,0.6,0,0.909,0c0.301,0,0.601,0,0.9,0
			C162.229,151.49,162.769,151.49,163.299,151.49z"/>
		<path fill="#232034" d="M166.899,158.49c0,2.33,0,4.67,0,7c0.3,0,0.6,0,0.909,0c0.301,0,0.601,0,0.9,0c0.521,0,1.06,0,1.59,0
			c1.061,0,2.11,0,3.181,0c0.229,0,0.449,0,0.68,0c0-2.33,0-4.67,0-7c-0.09,0-0.17,0-0.26,0c0-0.09,0-0.17,0-0.26
			c-2.261,0-4.49,0-6.74,0c0,0.09,0,0.17,0,0.26C167.069,158.49,166.989,158.49,166.899,158.49z"/>
		<path fill="#232034" d="M166.899,158.23c0,0.09,0,0.17,0,0.26c0.09,0,0.17,0,0.26,0c0-0.09,0-0.17,0-0.26
			C167.069,158.23,166.989,158.23,166.899,158.23z"/>
		<path fill="#232034" d="M166.899,130.23c0,2.42,0,4.84,0,7.26c0.09,0,0.17,0,0.26,0c0-2.42,0-4.84,0-7.26
			C167.069,130.23,166.989,130.23,166.899,130.23z"/>
		<path fill="#232034" d="M167.159,130.23c0,2.42,0,4.84,0,7.26c0.21,0,0.43,0,0.649,0c0.301,0,0.601,0,0.9,0c0.521,0,1.06,0,1.59,0
			c1.061,0,2.11,0,3.181,0c0.14,0,0.279,0,0.42,0c0-0.09,0-0.17,0-0.26c0.09,0,0.17,0,0.26,0c0-2.33,0-4.67,0-7
			C171.819,130.23,169.489,130.23,167.159,130.23z"/>
		<path fill="#232034" d="M173.899,158.23c0,0.09,0,0.17,0,0.26c0.09,0,0.17,0,0.26,0c0-0.09,0-0.17,0-0.26
			C174.069,158.23,173.989,158.23,173.899,158.23z"/>
		<path fill="#232034" d="M173.899,137.49c0,2.25,0,4.49,0,6.74c2.42,0,4.83,0,7.26,0c0-2.33,0-4.67,0-7c-2.34,0-4.67,0-7,0
			c0,0.09,0,0.17,0,0.26C174.069,137.49,173.989,137.49,173.899,137.49z"/>
		<path fill="#232034" d="M173.899,137.23c0,0.09,0,0.17,0,0.26c0.09,0,0.17,0,0.26,0c0-0.09,0-0.17,0-0.26
			C174.069,137.23,173.989,137.23,173.899,137.23z"/>
		<path fill="#232034" d="M175.709,144.49c-0.3,0-0.6,0-0.9,0c-0.31,0-0.609,0-0.909,0c0,2.25,0,4.49,0,6.74c2.42,0,4.83,0,7.26,0
			c0-2.25,0-4.49,0-6.74c-0.23,0-0.45,0-0.68,0c-1.07,0-2.12,0-3.181,0C176.769,144.49,176.229,144.49,175.709,144.49z"/>
		<path fill="#232034" d="M175.709,151.49c-0.3,0-0.6,0-0.9,0c-0.31,0-0.609,0-0.909,0c0,2.25,0,4.49,0,6.74c0.09,0,0.17,0,0.26,0
			c0,0.09,0,0.17,0,0.26c0.21,0,0.43,0,0.649,0c0.301,0,0.601,0,0.9,0c0.521,0,1.06,0,1.59,0c1.061,0,2.11,0,3.181,0
			c0.229,0,0.449,0,0.68,0c0-2.33,0-4.67,0-7c-0.23,0-0.45,0-0.68,0c-1.07,0-2.12,0-3.181,0
			C176.769,151.49,176.229,151.49,175.709,151.49z"/>
		<path fill="#232034" d="M175.709,151.49c0.521,0,1.06,0,1.59,0c1.061,0,2.11,0,3.181,0c0.229,0,0.449,0,0.68,0
			c0-0.09,0-0.17,0-0.26c-2.43,0-4.84,0-7.26,0c0,0.09,0,0.17,0,0.26c0.3,0,0.6,0,0.909,0
			C175.109,151.49,175.409,151.49,175.709,151.49z"/>
		<path fill="#232034" d="M177.299,144.49c1.061,0,2.11,0,3.181,0c0.229,0,0.449,0,0.68,0c0-0.09,0-0.17,0-0.26
			c-2.43,0-4.84,0-7.26,0c0,0.09,0,0.17,0,0.26c0.3,0,0.6,0,0.909,0c0.301,0,0.601,0,0.9,0
			C176.229,144.49,176.769,144.49,177.299,144.49z"/>
	</g>
	<g>
	</g>
</g>
</svg>
