<?xml version="1.0" encoding="utf-8"?>
<!-- Generator: Adobe Illustrator 15.0.0, SVG Export Plug-In  -->
<!DOCTYPE svg PUBLIC "-//W3C//DTD SVG 1.1//EN" "http://www.w3.org/Graphics/SVG/1.1/DTD/svg11.dtd" [
	<!ENTITY ns_flows "http://ns.adobe.com/Flows/1.0/">
]>
<svg version="1.1"
	 xmlns="http://www.w3.org/2000/svg" xmlns:xlink="http://www.w3.org/1999/xlink" xmlns:a="http://ns.adobe.com/AdobeSVGViewerExtensions/3.0/"
	 x="0px" y="0px" width="300px" height="300px" viewBox="-44.208 -55.09 300 300" enable-background="new -44.208 -55.09 300 300"
	 xml:space="preserve">
<defs>
</defs>
<path fill="#D6EEF1" d="M43.783,102.084c0,2.419,0,4.839,0,7.259c2.419,0,4.839,0,7.259,0c0-2.42,0-4.84,0-7.259
	C48.622,102.084,46.202,102.084,43.783,102.084z"/>
<path fill="#D6EEF1" d="M51.042,116.603c0,7.26,0,14.519,0,21.777c2.407,0,4.827,0,7.26,0c0,0.228,0,0.454,0,0.681
	c0,2.269,0,4.538,0,6.807c0,2.343,0,4.688,0,7.032c3.629,0,7.259,0,10.876,0c1.827,0,3.643,0,5.458,0c1.814,0,3.629,0,5.443,0
	c0,2.42,0,4.839,0,7.259c2.42,0,4.827,0,7.26,0c0-2.42,0-4.839,0-7.259c2.496,0,4.99,0,7.486,0c0-2.42,0-4.84,0-7.261
	c-3.706,0-7.424,0-11.129,0c-3.617,0-7.246,0-10.876,0c0-2.419,0-4.839,0-7.259c-2.433,0-4.84,0-7.26,0c0-2.42,0-4.839,0-7.259
	c-2.419,0-4.839,0-7.259,0c0-2.42,0-4.84,0-7.259c2.42,0,4.84,0,7.259,0c0-2.42,0-4.84,0-7.26c-2.419,0-4.839,0-7.259,0
	C55.869,116.603,53.449,116.603,51.042,116.603z"/>
<path fill="#232034" d="M51.042,102.084c0,2.419,0,4.839,0,7.259c2.407,0,4.827,0,7.26,0c0-4.914,0-9.83,0-14.746
	c0-2.419,0-4.839,0-7.259s0-4.839,0-7.259s0-4.84,0-7.259c-2.433,0-4.853,0-7.26,0C51.042,82.575,51.042,92.329,51.042,102.084z"/>
<path fill="#232034" d="M58.302,123.862c0,2.419,0,4.839,0,7.259c2.42,0,4.84,0,7.259,0c0-2.42,0-4.84,0-7.259
	C63.142,123.862,60.722,123.862,58.302,123.862z"/>
<path fill="#232034" d="M58.302,109.343c0,2.42,0,4.839,0,7.26c2.42,0,4.84,0,7.259,0c0-2.421,0-4.84,0-7.26
	C63.142,109.343,60.722,109.343,58.302,109.343z"/>
<path fill="#FFFFFF" d="M58.302,87.338c0,2.42,0,4.84,0,7.259c2.42,0,4.84,0,7.259,0c0-2.419,0-4.839,0-7.259
	C63.142,87.338,60.722,87.338,58.302,87.338z"/>
<path fill="#010101" d="M58.302,80.079c0,2.42,0,4.839,0,7.259c2.42,0,4.84,0,7.259,0c0,2.42,0,4.84,0,7.259c2.42,0,4.827,0,7.26,0
	c0-4.839,0-9.679,0-14.518c-2.433,0-4.84,0-7.26,0C63.142,80.079,60.722,80.079,58.302,80.079z"/>
<path fill="#353635" d="M58.302,72.82c0,2.419,0,4.839,0,7.259c2.42,0,4.84,0,7.259,0c0-2.42,0-4.84,0-7.259
	C63.142,72.82,60.722,72.82,58.302,72.82z"/>
<path fill="#232034" d="M58.302,58.301c0,4.839,0,9.68,0,14.52c2.42,0,4.84,0,7.259,0c0-2.42,0-4.84,0-7.26c0-2.421,0-4.84,0-7.26
	C63.142,58.301,60.722,58.301,58.302,58.301z"/>
<path fill="#232034" d="M65.561,131.121c0,2.42,0,4.839,0,7.259c2.42,0,4.827,0,7.26,0c0-2.42,0-4.839,0-7.259
	C70.388,131.121,67.98,131.121,65.561,131.121z"/>
<path fill="#5E5F5F" d="M65.561,123.862c0,2.419,0,4.839,0,7.259c2.42,0,4.827,0,7.26,0c0-2.42,0-4.84,0-7.259
	C70.388,123.862,67.98,123.862,65.561,123.862z"/>
<path fill="#232034" d="M65.561,116.603c0,2.42,0,4.84,0,7.26c2.42,0,4.827,0,7.26,0c0-2.42,0-4.84,0-7.26
	C70.388,116.603,67.98,116.603,65.561,116.603z"/>
<path fill="#010101" d="M65.561,109.343c0,2.42,0,4.839,0,7.26c2.42,0,4.827,0,7.26,0c0-2.421,0-4.84,0-7.26
	C70.388,109.343,67.98,109.343,65.561,109.343z"/>
<path fill="#353635" d="M65.561,58.301c0,2.42,0,4.839,0,7.26c2.42,0,4.827,0,7.26,0c0-2.421,0-4.84,0-7.26
	C70.388,58.301,67.98,58.301,65.561,58.301z"/>
<path fill="#232034" d="M65.561,51.042c0,2.419,0,4.839,0,7.259c2.42,0,4.827,0,7.26,0c2.42,0,4.839,0,7.259,0
	c0-2.42,0-4.84,0-7.259C75.24,51.042,70.388,51.042,65.561,51.042z"/>
<path fill="#98D8DF" d="M153.567,87.338c4.625,0,9.237,0,13.85,0c0-2.42,0-4.839,0-7.259c2.421,0,4.841,0,7.26,0
	c0-3.63,0-7.259,0-10.889s0-7.26,0-10.89c-1.814,0-3.629,0-5.444,0s-3.643,0-5.444,0c-0.907,0-1.815,0-2.723,0s-1.827,0-2.722,0
	c-0.92,0-1.814,0-2.723,0c-0.907,0-1.814,0-2.723,0c0-2.42,0-4.84,0-7.259c-2.432,0-4.839,0-7.259,0c0,2.419,0,4.839,0,7.259
	c-2.42,0-4.839,0-7.26,0c-2.432,0-4.839,0-7.259,0c0-2.42,0-4.84,0-7.259c0-2.42,0-4.84,0-7.259c-2.42,0-4.839,0-7.259,0
	c-0.076,0-0.151,0-0.228,0c-0.075,0-0.151,0-0.239,0c-0.139,0-0.29,0-0.441,0c-0.239,0-0.453,0-0.681,0c-0.453,0-0.907,0-1.361,0
	c-0.226,0-0.453,0-0.692,0c-0.214,0-0.441,0-0.681,0c-0.441,0-0.895,0-1.349,0c-1.815,0-3.643,0-5.444,0c-1.815,0-3.63,0-5.444,0
	s-3.629,0-5.445,0c-0.906,0-1.826,0-2.721,0c-0.228,0-0.455,0-0.682,0s-0.453,0-0.68,0c-0.454,0-0.92,0-1.361,0
	c-0.907,0-1.814,0-2.723,0c-0.227,0-0.453,0-0.681,0c-0.227,0-0.454,0-0.681,0c-0.466,0-0.907,0-1.361,0c-1.814,0-3.629,0-5.457,0
	c-0.895,0-1.814,0-2.709,0c-0.908,0-1.814,0-2.723,0c0,2.419,0,4.839,0,7.259c-4.839,0-9.691,0-14.519,0c0,2.419,0,4.839,0,7.259
	c-2.419,0-4.839,0-7.259,0c0,4.839,0,9.68,0,14.52c-2.433,0-4.853,0-7.26,0c0,9.755,0,19.509,0,29.264c-2.42,0-4.84,0-7.259,0
	c0,2.419,0,4.839,0,7.259c2.419,0,4.839,0,7.259,0c2.407,0,4.827,0,7.26,0c0,2.42,0,4.839,0,7.26c-2.433,0-4.853,0-7.26,0
	c0,7.26,0,14.519,0,21.777c2.407,0,4.827,0,7.26,0c0,0.228,0,0.454,0,0.681c0,2.269,0,4.538,0,6.807c0,2.343,0,4.688,0,7.032
	c3.629,0,7.259,0,10.876,0c1.827,0,3.643,0,5.458,0c1.814,0,3.629,0,5.443,0c0,2.42,0,4.839,0,7.259c2.42,0,4.827,0,7.26,0
	c0-2.42,0-4.839,0-7.259c2.496,0,4.99,0,7.486,0c0-2.42,0-4.84,0-7.261c4.84,0,9.666,0,14.519,0c0-2.419,0-4.839,0-7.259
	c2.419,0,4.839,0,7.259,0c0-2.42,0-4.839,0-7.259c2.42,0,4.827,0,7.26,0c0-2.42,0-4.84,0-7.259c4.839,0,9.679,0,14.518,0
	c0-2.42,0-4.84,0-7.26c0.228,0,0.454,0,0.681,0c0.983,0,1.954,0,2.949,0c0.983,0,1.967,0,2.949,0c0.228,0,0.441,0,0.681,0
	c0-7.335,0-14.67,0-22.006c2.42,0,4.827,0,7.259,0c0-2.419,0-4.839,0-7.259C153.126,87.338,153.353,87.338,153.567,87.338z
	 M22.005,98.228c0-1.21,0-2.42,0-3.631c-2.42,0-4.84,0-7.26,0c0-9.679,0-19.357,0-29.036c2.42,0,4.84,0,7.26,0
	c0-2.421,0-4.84,0-7.26c2.407,0,4.84,0,7.26,0c0-2.42,0-4.84,0-7.259c4.84,0,9.666,0,14.519,0c0-2.42,0-4.84,0-7.259
	c2.419,0,4.839,0,7.259,0c0-2.42,0-4.84,0-7.26c4.827,0,9.68,0,14.519,0c0-2.421,0-4.84,0-7.26c0.228,0,0.441,0,0.681,0
	c1.814,0,3.629,0,5.432,0c1.828,0,3.643,0,5.457,0c1.815,0,3.63,0,5.445,0c1.727,0,3.479,0,5.217,0c1.815,0,3.63,0,5.445,0
	c1.802,0,3.617,0,5.443,0c1.816,0,3.631,0,5.445,0c1.739,0,3.466,0,5.218,0c0-2.42,0-4.84,0-7.259c2.419,0,4.839,0,7.259,0
	c0-2.42,0-4.84,0-7.26c4.827,0,9.68,0,14.519,0c0-2.419,0-4.839,0-7.259c4.827,0,9.68,0,14.519,0c0,2.42,0,4.84,0,7.259
	c2.42,0,4.827,0,7.259,0c0,4.84,0,9.679,0,14.519c2.421,0,4.84,0,7.26,0c0,2.42,0,4.839,0,7.26c2.42,0,4.827,0,7.259,0
	c0,2.42,0,4.84,0,7.26c0.53,0,1.06,0,1.589,0c0.227,0,0.453,0,0.681,0c0.227,0,0.453,0,0.681,0c0.895,0,1.814,0,2.722,0
	c1.815,0,3.63,0,5.444,0c1.815,0,3.63,0,5.444,0c1.803,0,3.617,0,5.444,0c0,2.419,0,4.839,0,7.259c2.421,0,4.84,0,7.26,0
	c0,0.227,0,0.454,0,0.681c0,0.378,0,0.755,0,1.135c0,0.378,0,0.755,0,1.133s0,0.757,0,1.135s0,0.756,0,1.134
	c0,0.379,0,0.757,0,1.135s0,0.756,0,1.135c0,0.378,0,0.756,0,1.134s0,0.757,0,1.135s0,0.756,0,1.134c0,0.379,0,0.757,0,1.135
	c0,0.377,0,0.755,0,1.135c0,0.377,0,0.755,0,1.133s0,0.757,0,1.135s0,0.756,0,1.134c0,0.379,0,0.757,0,1.135s0,0.756,0,1.135
	c0,0.378,0,0.756,0,1.134s0,0.757,0,1.135s0,0.756,0,1.133c0,0.38,0,0.758,0,1.135c0,0.378,0,0.756,0,1.135c0,0.378,0,0.756,0,1.134
	s0,0.757,0,1.135s0,0.756,0,1.134c0,0.379,0,0.757,0,1.135s0,0.756,0,1.135c0,0.378,0,0.756,0,1.134s0,0.757,0,1.135
	s0,0.755,0,1.133c0,0.38,0,0.757,0,1.135s0,0.756,0,1.135c0,0.15,0,0.302,0,0.453c-2.42,0-4.839,0-7.26,0c0,2.42,0,4.84,0,7.259
	c-2.432,0-4.839,0-7.259,0c0-2.419,0-4.839,0-7.259c-0.076,0-0.164,0-0.239,0c-2.407,0-4.827,0-7.247,0c0,2.42,0,4.84,0,7.259
	c-2.419,0-4.839,0-7.26,0c0,4.916,0,9.832,0,14.746c-2.432,0-4.839,0-7.259,0c0,9.68,0,19.358,0,29.037c2.42,0,4.827,0,7.259,0
	c0,2.42,0,4.84,0,7.259c2.421,0,4.841,0,7.26,0c0,2.421,0,4.841,0,7.261c-2.419,0-4.839,0-7.26,0c0,4.839,0,9.679,0,14.518
	c-2.432,0-4.839,0-7.259,0c0,2.42,0,4.84,0,7.26c-3.629,0-7.26,0-10.889,0c-3.63,0-7.26,0-10.89,0c0-2.42,0-4.84,0-7.26
	c-0.227,0-0.453,0-0.68,0c-0.228,0-0.467,0-0.681,0c-0.467,0-0.907,0-1.361,0c-0.227,0-0.453,0-0.681,0c-0.239,0-0.453,0-0.681,0
	c-0.453,0-0.907,0-1.361,0c-1.814,0-3.629,0-5.444,0c-3.629,0-7.271,0-10.889,0c0,2.42,0,4.84,0,7.26c-0.302,0-0.605,0-0.908,0
	c-0.15,0-0.302,0-0.453,0c-0.227,0-0.453,0-0.693,0c-0.138,0-0.289,0-0.44,0c-0.757,0-1.513,0-2.269,0c-0.228,0-0.467,0-0.681,0
	c-0.151,0-0.303,0-0.454,0c-0.227,0-0.453,0-0.681,0c-0.15,0-0.302,0-0.453,0c-0.757,0-1.513,0-2.269,0c-3.024,0-6.063,0-9.074,0
	c-3.024,0-6.049,0-9.074,0s-6.049,0-9.074,0c0,2.421,0,4.84,0,7.26c-4.839,0-9.691,0-14.519,0c0-2.42,0-4.839,0-7.26
	c-2.419,0-4.839,0-7.259,0c0-2.42,0-4.84,0-7.26c-2.433,0-4.853,0-7.26,0c0-2.419,0-4.839,0-7.259c-2.42,0-4.84,0-7.259,0
	c0-0.227,0-0.454,0-0.681c0-1.739,0-3.478,0-5.217c0-0.454,0-0.908,0-1.361c0-0.378,0-0.757,0-1.135c0-0.454,0-0.907,0-1.361
	c0-0.378,0-0.756,0-1.134c0-1.74,0-3.479,0-5.218c0-0.453,0-0.907,0-1.361c0-0.378,0-0.756,0-1.134c0-0.454,0-0.908,0-1.361
	c0-0.378,0-0.757,0-1.135c0-0.227,0-0.453,0-0.681c-2.421,0-4.853,0-7.26,0c0-9.679,0-19.357,0-29.037c-2.419,0-4.839,0-7.259,0
	c0-2.42,0-4.84,0-7.259c-2.42,0-4.853,0-7.26,0c0-0.681,0-1.361,0-2.042C22.005,99.438,22.005,98.832,22.005,98.228z"/>
<path fill="#232034" d="M72.82,138.38c0,2.42,0,4.84,0,7.259c3.63,0,7.259,0,10.876,0c3.705,0,7.423,0,11.129,0
	c4.84,0,9.666,0,14.519,0c0-2.419,0-4.839,0-7.259c-2.433,0-4.853,0-7.26,0c-4.839,0-9.679,0-14.519,0c-2.42,0-4.84,0-7.259,0
	C77.812,138.38,75.315,138.38,72.82,138.38z"/>
<path fill="#010101" d="M72.82,123.862c0,2.419,0,4.839,0,7.259c7.095,0,14.216,0,21.324,0c0.214,0,0.454,0,0.681,0
	c0-2.42,0-4.84,0-7.259c4.84,0,9.666,0,14.519,0c0-2.42,0-4.84,0-7.26c-2.433,0-4.853,0-7.26,0c0-2.421,0-4.84,0-7.26
	c-2.419,0-4.839,0-7.259,0c0,2.42,0,4.839,0,7.26c-2.496,0-4.99,0-7.486,0c0-2.421,0-4.84,0-7.26c-2.433,0-4.84,0-7.26,0
	c0,2.42,0,4.839,0,7.26c-2.42,0-4.839,0-7.259,0C72.82,119.022,72.82,121.442,72.82,123.862z"/>
<path fill="#010101" d="M72.82,94.597c0,2.496,0,4.992,0,7.487c2.42,0,4.839,0,7.259,0c0-2.495,0-4.991,0-7.487
	C77.659,94.597,75.24,94.597,72.82,94.597z"/>
<path fill="#353635" d="M80.079,86.657c0,0.228,0,0.454,0,0.681c2.42,0,4.827,0,7.26,0c0-2.42,0-4.839,0-7.259
	c-2.433,0-4.84,0-7.26,0C80.079,82.272,80.079,84.466,80.079,86.657z"/>
<path fill="#353635" d="M80.079,51.042c0,2.419,0,4.839,0,7.259c2.42,0,4.827,0,7.26,0c0-2.42,0-4.84,0-7.259
	C84.906,51.042,82.499,51.042,80.079,51.042z"/>
<path fill="#232034" d="M123.862,43.783c-0.076,0-0.151,0-0.228,0c-0.075,0-0.151,0-0.239,0c-0.139,0-0.29,0-0.441,0
	c-0.239,0-0.453,0-0.681,0c-0.453,0-0.907,0-1.361,0c-0.226,0-0.453,0-0.692,0c-0.214,0-0.441,0-0.681,0c-0.441,0-0.895,0-1.349,0
	c-1.815,0-3.643,0-5.444,0c-1.815,0-3.63,0-5.444,0s-3.629,0-5.445,0c-0.906,0-1.826,0-2.721,0c-0.228,0-0.455,0-0.682,0
	s-0.453,0-0.68,0c-0.454,0-0.92,0-1.361,0c-0.907,0-1.814,0-2.723,0c-0.227,0-0.453,0-0.681,0c-0.227,0-0.454,0-0.681,0
	c-0.466,0-0.907,0-1.361,0c-1.814,0-3.629,0-5.457,0c-0.895,0-1.814,0-2.709,0c-0.908,0-1.814,0-2.723,0c0,2.419,0,4.839,0,7.259
	c2.42,0,4.827,0,7.26,0c2.496,0,4.99,0,7.486,0c2.42,0,4.84,0,7.259,0c2.407,0,4.827,0,7.26,0c2.419,0,4.839,0,7.259,0
	s4.827,0,7.26,0C123.862,48.622,123.862,46.202,123.862,43.783z"/>
<path fill="#FFFFFF" d="M87.339,87.338c0,2.42,0,4.84,0,7.259c2.496,0,4.99,0,7.486,0c0-2.419,0-4.839,0-7.259
	C92.329,87.338,89.835,87.338,87.339,87.338z"/>
<path fill="#010101" d="M95.731,80.079c-0.906,0-1.814,0-2.722,0c-1.891,0-3.78,0-5.671,0c0,2.42,0,4.839,0,7.259
	c2.496,0,4.99,0,7.486,0c0,2.42,0,4.84,0,7.259c2.42,0,4.84,0,7.259,0c0-2.419,0-4.839,0-7.259c2.407,0,4.827,0,7.26,0
	c0-2.42,0-4.839,0-7.259c-1.815,0-3.643,0-5.444,0c-1.815,0-3.63,0-5.445,0C97.534,80.079,96.64,80.079,95.731,80.079z"/>
<path fill="#5E5F5F" d="M94.145,131.121c-7.108,0-14.229,0-21.324,0c0,2.42,0,4.839,0,7.259c2.495,0,4.991,0,7.486,0
	c2.419,0,4.839,0,7.259,0c4.84,0,9.68,0,14.519,0c0-2.42,0-4.839,0-7.259c2.407,0,4.827,0,7.26,0c2.419,0,4.839,0,7.259,0
	c0-1.815,0-3.63,0-5.445c0-1.813,0-3.629,0-5.443c0-3.63,0-7.26,0-10.89c-2.42,0-4.84,0-7.259,0c0-4.914,0-9.83,0-14.746
	c-2.433,0-4.853,0-7.26,0c-2.419,0-4.839,0-7.259,0c-2.496,0-4.99,0-7.486,0c0-2.419,0-4.839,0-7.259c-2.433,0-4.84,0-7.26,0
	c0-0.227,0-0.453,0-0.681c0-2.191,0-4.385,0-6.578c2.42,0,4.827,0,7.26,0c1.891,0,3.78,0,5.671,0c0.907,0,1.815,0,2.722,0
	c0.908,0,1.803,0,2.723,0c1.815,0,3.63,0,5.445,0c1.802,0,3.629,0,5.444,0c0,2.42,0,4.839,0,7.259c2.419,0,4.839,0,7.259,0
	c0-2.42,0-4.839,0-7.259c4.827,0,9.68,0,14.519,0c0-2.42,0-4.84,0-7.259c-2.42,0-4.839,0-7.259,0c0-4.84,0-9.681,0-14.52
	c-2.433,0-4.84,0-7.26,0c0-2.42,0-4.84,0-7.259c-2.42,0-4.84,0-7.259,0c-2.433,0-4.853,0-7.26,0c-2.419,0-4.839,0-7.259,0
	c-2.496,0-4.99,0-7.486,0c0,2.419,0,4.839,0,7.259c-2.433,0-4.84,0-7.26,0s-4.839,0-7.259,0c0,2.42,0,4.839,0,7.26
	c-2.433,0-4.84,0-7.26,0c0,2.42,0,4.84,0,7.26c0,2.419,0,4.839,0,7.259c2.42,0,4.827,0,7.26,0c0,4.839,0,9.679,0,14.518
	c2.42,0,4.839,0,7.259,0c0,2.496,0,4.992,0,7.487c-2.42,0-4.839,0-7.259,0c0-2.495,0-4.991,0-7.487c-2.433,0-4.84,0-7.26,0
	c-2.419,0-4.839,0-7.259,0c0,4.916,0,9.832,0,14.746c2.42,0,4.84,0,7.259,0c2.42,0,4.827,0,7.26,0c0,2.42,0,4.839,0,7.26
	c2.42,0,4.839,0,7.259,0c0-2.421,0-4.84,0-7.26c2.42,0,4.827,0,7.26,0c0,2.42,0,4.839,0,7.26c2.496,0,4.99,0,7.486,0
	c0-2.421,0-4.84,0-7.26c2.42,0,4.84,0,7.259,0c0,2.42,0,4.839,0,7.26c2.407,0,4.827,0,7.26,0c0,2.42,0,4.84,0,7.26
	c-4.853,0-9.679,0-14.519,0c0,2.419,0,4.839,0,7.259C94.599,131.121,94.358,131.121,94.145,131.121z"/>
<path fill="#353635" d="M102.084,131.121c0,2.42,0,4.839,0,7.259c2.407,0,4.827,0,7.26,0c0-2.42,0-4.839,0-7.259
	C106.911,131.121,104.491,131.121,102.084,131.121z"/>
<path fill="#353635" d="M102.084,87.338c0,2.42,0,4.84,0,7.259c2.407,0,4.827,0,7.26,0c0,4.916,0,9.832,0,14.746
	c2.419,0,4.839,0,7.259,0c0-2.42,0-4.84,0-7.259c2.42,0,4.827,0,7.26,0c0-2.42,0-4.84,0-7.26c0-0.076,0-0.151,0-0.228
	c2.42,0,4.839,0,7.259,0c0-2.419,0-4.839,0-7.259c2.42,0,4.827,0,7.259,0c0-7.259,0-14.518,0-21.777c-2.432,0-4.839,0-7.259,0
	c0-2.421,0-4.84,0-7.26c-2.42,0-4.839,0-7.259,0c0,4.839,0,9.68,0,14.52c2.42,0,4.839,0,7.259,0c0,2.419,0,4.839,0,7.259
	c-4.839,0-9.691,0-14.519,0c0,2.42,0,4.839,0,7.259c-2.42,0-4.84,0-7.259,0C106.911,87.338,104.491,87.338,102.084,87.338z"/>
<path fill="#232034" d="M109.344,131.121c0,2.42,0,4.839,0,7.259c2.419,0,4.839,0,7.259,0c0-2.42,0-4.839,0-7.259
	C114.183,131.121,111.763,131.121,109.344,131.121z"/>
<path fill="#353635" d="M116.603,51.042c0,2.419,0,4.839,0,7.259c2.42,0,4.827,0,7.26,0c0-2.42,0-4.84,0-7.259
	C121.43,51.042,119.022,51.042,116.603,51.042z"/>
<path fill="#232034" d="M123.862,94.597c0,0.076,0,0.151,0,0.228c0,2.42,0,4.84,0,7.26c-2.433,0-4.84,0-7.26,0
	c0,2.419,0,4.839,0,7.259c0,3.63,0,7.26,0,10.89c0,1.814,0,3.63,0,5.443c0,1.815,0,3.63,0,5.445c2.42,0,4.827,0,7.26,0
	c0-2.42,0-4.84,0-7.259c0-4.84,0-9.681,0-14.52c2.42,0,4.839,0,7.259,0c0-2.42,0-4.84,0-7.259c2.42,0,4.827,0,7.259,0
	c0-1.285,0-2.571,0-3.856c0-1.21,0-2.42,0-3.631c2.421,0,4.84,0,7.26,0c0-9.679,0-19.357,0-29.036c-2.42,0-4.839,0-7.26,0
	c0,7.26,0,14.519,0,21.777c-2.432,0-4.839,0-7.259,0c0,2.42,0,4.84,0,7.259C128.701,94.597,126.282,94.597,123.862,94.597z"/>
<path fill="#232034" d="M123.862,51.042c0,2.419,0,4.839,0,7.259c2.42,0,4.839,0,7.259,0c0-2.42,0-4.84,0-7.259
	C128.701,51.042,126.282,51.042,123.862,51.042z"/>
<path fill="#D6EEF1" d="M123.862,43.783c0,2.419,0,4.839,0,7.259c2.42,0,4.839,0,7.259,0c0-2.42,0-4.84,0-7.259
	C128.701,43.783,126.282,43.783,123.862,43.783z"/>
<path fill="#232034" d="M131.121,58.301c0,2.42,0,4.839,0,7.26c2.42,0,4.827,0,7.259,0c0-2.421,0-4.84,0-7.26
	C135.948,58.301,133.541,58.301,131.121,58.301z"/>
<path fill="#73CEE0" d="M132.936,167.417c-1.814,0-3.629,0-5.444,0c-3.629,0-7.271,0-10.889,0c0,2.42,0,4.84,0,7.26
	c4.827,0,9.68,0,14.519,0c0,2.421,0,4.84,0,7.26c7.259,0,14.519,0,21.777,0c3.631,0,7.26,0,10.89,0c3.629,0,7.26,0,10.889,0
	c0-2.42,0-4.839,0-7.26c1.21,0,2.42,0,3.63,0c0.604,0,1.21,0,1.803,0c0.692,0,1.373,0,2.054,0c0-2.42,0-4.84,0-7.26
	c0.228,0,0.441,0,0.681,0c0.453,0,0.907,0,1.361,0c0.529,0,1.059,0,1.575,0c0.467,0,0.92,0,1.374,0c0.227,0,0.44,0,0.68,0
	c0.303,0,0.605,0,0.908,0c0.227,0,0.453,0,0.68,0c0-7.259,0-14.518,0-21.778c-2.432,0-4.839,0-7.259,0c0-0.227,0-0.452,0-0.679
	c0-1.967,0-3.933,0-5.899c0-0.227,0-0.453,0-0.681c-2.344,0-4.688,0-7.032,0c-1.135,0-2.269,0-3.402,0c-0.605,0-1.211,0-1.815,0
	c-0.617,0-1.223,0-1.827,0c-0.215,0-0.441,0-0.669,0c0,2.42,0,4.84,0,7.259c2.421,0,4.841,0,7.26,0c0,2.421,0,4.841,0,7.261
	c-2.419,0-4.839,0-7.26,0c0,4.839,0,9.679,0,14.518c-2.432,0-4.839,0-7.259,0c0,2.42,0,4.84,0,7.26c-3.629,0-7.26,0-10.889,0
	c-3.63,0-7.26,0-10.89,0c0-2.42,0-4.84,0-7.26c-0.227,0-0.453,0-0.68,0c-0.228,0-0.467,0-0.681,0c-0.467,0-0.907,0-1.361,0
	c-0.227,0-0.453,0-0.681,0c-0.239,0-0.453,0-0.681,0C133.844,167.417,133.39,167.417,132.936,167.417z"/>
<path fill="#D6EEF1" d="M138.38,94.597c0,1.211,0,2.421,0,3.631c0,1.285,0,2.571,0,3.856c-2.432,0-4.839,0-7.259,0
	c0,2.419,0,4.839,0,7.259c-2.42,0-4.839,0-7.259,0c0,4.839,0,9.68,0,14.52c4.839,0,9.679,0,14.518,0c0-2.42,0-4.84,0-7.26
	c0.228,0,0.454,0,0.681,0c0.983,0,1.954,0,2.949,0c0.983,0,1.967,0,2.949,0c0.228,0,0.441,0,0.681,0c0-7.335,0-14.67,0-22.006
	C143.22,94.597,140.801,94.597,138.38,94.597z"/>
<path fill="#D6EEF1" d="M161.065,58.301c-0.907,0-1.827,0-2.722,0c-0.92,0-1.814,0-2.723,0c-0.907,0-1.814,0-2.723,0
	c0-2.42,0-4.84,0-7.259c-2.432,0-4.839,0-7.259,0c0,2.419,0,4.839,0,7.259c-2.42,0-4.839,0-7.26,0c0,2.42,0,4.839,0,7.26
	c2.421,0,4.84,0,7.26,0c0,9.679,0,19.357,0,29.036c2.42,0,4.827,0,7.259,0c0-2.419,0-4.839,0-7.259c0.228,0,0.454,0,0.669,0
	c4.625,0,9.237,0,13.85,0c0-2.42,0-4.839,0-7.259c2.421,0,4.841,0,7.26,0c0-3.63,0-7.259,0-10.889s0-7.26,0-10.89
	c-1.814,0-3.629,0-5.444,0s-3.643,0-5.444,0C162.881,58.301,161.973,58.301,161.065,58.301z"/>
<path fill="#73CEE0" d="M160.158,109.343c0,9.68,0,19.358,0,29.037c2.42,0,4.827,0,7.259,0c0-4.839,0-9.679,0-14.518
	c2.421,0,4.841,0,7.26,0c0-1.739,0-3.479,0-5.219c0-1.814,0-3.63,0-5.443c0-1.815,0-3.63,0-5.445s0-3.629,0-5.444
	c0-0.075,0-0.151,0-0.227c0.228,0,0.454,0,0.681,0c2.181,0,4.386,0,6.566,0c1.146,0,2.281,0,3.415,0c1.135,0,2.256,0,3.403,0
	c0.227,0,0.453,0,0.68,0c0-2.495,0-4.991,0-7.487c-2.432,0-4.839,0-7.259,0c0-2.419,0-4.839,0-7.259c-0.076,0-0.164,0-0.239,0
	c-2.407,0-4.827,0-7.247,0c0,2.42,0,4.84,0,7.259c-2.419,0-4.839,0-7.26,0c0,4.916,0,9.832,0,14.746
	C164.985,109.343,162.578,109.343,160.158,109.343z"/>
<path fill="#73CEE0" d="M189.422,87.338c0,2.42,0,4.84,0,7.259c2.421,0,4.84,0,7.26,0c0-2.419,0-4.839,0-7.259
	C194.262,87.338,191.843,87.338,189.422,87.338z"/>
<path fill="#73CEE0" d="M196.682,86.885c0,0.15,0,0.302,0,0.453c2.42,0,4.827,0,7.259,0c0-2.42,0-4.839,0-7.259
	c2.421,0,4.84,0,7.26,0c0-9.679,0-19.358,0-29.037c-2.42,0-4.839,0-7.26,0c0-2.42,0-4.84,0-7.259c-2.432,0-4.839,0-7.259,0
	c0-0.229,0-0.455,0-0.681c0-1.967,0-3.933,0-5.898c0-0.228,0-0.454,0-0.681c-1.814,0-3.63,0-5.444,0c-1.815,0-3.643,0-5.457,0
	c-1.803,0-3.617,0-5.432,0c-0.239,0-0.454,0-0.681,0c-0.239,0-0.454,0-0.681,0c-0.454,0-0.908,0-1.361,0c-0.227,0-0.453,0-0.693,0
	c-0.214,0-0.44,0-0.681,0c-0.44,0-0.895,0-1.348,0c-0.076,0-0.151,0-0.228,0c0-0.228,0-0.454,0-0.681c0-0.454,0-0.908,0-1.361
	c0-0.528,0-1.058,0-1.589c0-0.452,0-0.906,0-1.359c0-0.228,0-0.454,0-0.681c0-0.303,0-0.605,0-0.908c0-0.227,0-0.453,0-0.681
	c-2.419,0-4.839,0-7.26,0c0-4.84,0-9.679,0-14.519c-2.432,0-4.839,0-7.259,0c0-0.227,0-0.454,0-0.681c0-1.967,0-3.932,0-5.897
	c0-0.228,0-0.454,0-0.681c-2.42,0-4.839,0-7.26,0c0-2.496,0-4.99,0-7.486c-0.68,0-1.36,0-2.041,0c-0.151,0-0.303,0-0.454,0
	c-0.227,0-0.453,0-0.681,0c-0.15,0-0.302,0-0.453,0c-0.227,0-0.454,0-0.693,0c-1.5,0-3.012,0-4.524,0c-0.681,0-1.361,0-2.042,0
	c-0.151,0-0.303,0-0.454,0c-0.226,0-0.453,0-0.68,0c-0.151,0-0.303,0-0.467,0c-0.214,0-0.44,0-0.68,0c-1.5,0-3.013,0-4.524,0
	c-0.681,0-1.361,0-2.042,0c-0.151,0-0.315,0-0.454,0c-0.227,0-0.454,0-0.681,0c-0.151,0-0.303,0-0.466,0c-0.214,0-0.441,0-0.681,0
	c-0.139,0-0.29,0-0.441,0c-0.227,0-0.453,0-0.681,0c-0.151,0-0.302,0-0.453,0c-0.239,0-0.454,0-0.681,0c-0.151,0-0.303,0-0.454,0
	c-0.227,0-0.454,0-0.681,0c-0.151,0-0.314,0-0.454,0c-0.227,0-0.453,0-0.68,0c-0.151,0-0.303,0-0.467,0c-0.214,0-0.44,0-0.681,0
	c-0.138,0-0.289,0-0.44,0c-0.228,0-0.454,0-0.681,0c-0.151,0-0.303,0-0.454,0c-0.239,0-0.453,0-0.681,0c-0.151,0-0.303,0-0.453,0
	c-0.228,0-0.454,0-0.681,0c-0.151,0-0.315,0-0.454,0c-0.227,0-0.454,0-0.68,0c-0.151,0-0.303,0-0.467,0c-0.214,0-0.441,0-0.681,0
	c-0.139,0-0.29,0-0.441,0c-0.227,0-0.453,0-0.681,0c-0.151,0-0.302,0-0.453,0c-0.239,0-0.454,0-0.681,0c-0.239,0-0.454,0-0.681,0
	c0,1.21,0,2.419,0,3.629c0,0.605,0,1.21,0,1.815c0,0.681,0,1.361,0,2.042c-2.42,0-4.84,0-7.259,0c0,2.42,0,4.84,0,7.259
	c-0.228,0-0.467,0-0.681,0c-1.135,0-2.281,0-3.403,0c-1.21,0-2.419,0-3.63,0c-2.419,0-4.84,0-7.271,0c-2.332,0-4.676,0-7.02,0
	c-2.433,0-4.84,0-7.26,0c0,2.42,0,4.84,0,7.26c-0.239,0-0.453,0-0.68,0c-4.688,0-9.377,0-14.066,0c-1.133,0-2.268,0-3.402,0
	c-1.209,0-2.419,0-3.629,0c-2.433,0-4.853,0-7.26,0c0,2.419,0,4.839,0,7.259c-0.227,0-0.453,0-0.681,0c-4.612,0-9.226,0-13.838,0
	c0,2.42,0,4.839,0,7.26c-2.419,0-4.839,0-7.259,0c0,2.42,0,4.84,0,7.26c-2.42,0-4.853,0-7.26,0c0,2.419,0,4.839,0,7.259
	c-0.227,0-0.453,0-0.693,0c-2.256,0-4.524,0-6.793,0c-2.344,0-4.688,0-7.032,0c0,2.419,0,4.839,0,7.259c-0.227,0-0.454,0-0.692,0
	c-2.029,0-4.071,0-6.113,0c-0.239,0-0.453,0-0.681,0c0,0.151,0,0.303,0,0.454c0,1.437,0,2.874,0,4.311c0,0.303,0,0.605,0,0.906
	c0,0.151,0,0.303,0,0.454c0,0.227,0,0.454,0,0.681c0,0.151,0,0.303,0,0.454c0,0.227,0,0.453,0,0.68c0,0.151,0,0.303,0,0.454
	c0,0.227,0,0.454,0,0.681c0,1.437,0,2.874,0,4.311c0,0.151,0,0.303,0,0.454c0,0.227,0,0.453,0,0.681c0,0.151,0,0.303,0,0.452
	c0,0.229,0,0.455,0,0.681c0,0.151,0,0.303,0,0.454c0,0.227,0,0.454,0,0.681c0,0.151,0,0.303,0,0.454c0,0.227,0,0.453,0,0.681
	c0,1.437,0,2.873,0,4.311c0,0.151,0,0.302,0,0.453c0,0.228,0,0.454,0,0.681c0,0.151,0,0.303,0,0.454c0,0.227,0,0.454,0,0.681
	c0,0.151,0,0.303,0,0.452c0,0.229,0,0.455,0,0.681c0,0.151,0,0.303,0,0.454c0,0.227,0,0.455,0,0.681c0,1.437,0,2.874,0,4.311
	c0,0.151,0,0.303,0,0.454c0,0.227,0,0.453,0,0.681c0,0.151,0,0.302,0,0.453c0,0.228,0,0.454,0,0.681c0,0.151,0,0.303,0,0.454
	c0,0.227,0,0.454,0,0.681c0,0.151,0,0.303,0,0.454c0,0.227,0,0.453,0,0.681c0,0.227,0,0.452,0,0.679c1.21,0,2.407,0,3.617,0
	c0.604,0,1.21,0,1.827,0c0.605,0,1.211,0,1.815,0c0.075,0,0.138,0,0.227,0c0,0.228,0,0.454,0,0.681c0,2.042,0,4.084,0,6.126
	c0,0.227,0,0.454,0,0.681c2.407,0,4.84,0,7.259,0c0,0.227,0,0.454,0,0.681c0,0.454,0,0.907,0,1.361c0,0.528,0,1.058,0,1.587
	c0,0.454,0,0.907,0,1.361c0,0.227,0,0.454,0,0.681c0,0.303,0,0.605,0,0.907c0,0.228,0,0.454,0,0.681c2.42,0,4.84,0,7.26,0
	c0,0.228,0,0.454,0,0.681c0,2.345,0,4.689,0,7.032c0,2.345,0,4.688,0,7.033c0,2.344,0,4.688,0,7.032c0,2.42,0,4.839,0,7.259
	c2.407,0,4.84,0,7.26,0c0,0.228,0,0.454,0,0.681c0,2.269,0,4.538,0,6.807c0,2.343,0,4.688,0,7.032c2.42,0,4.84,0,7.259,0
	c0,0.227,0,0.453,0,0.681c0,2.269,0,4.536,0,6.805c0,2.345,0,4.689,0,7.032c2.407,0,4.839,0,7.26,0c0,0.228,0,0.454,0,0.681
	c0,1.967,0,3.933,0,5.898c0,0.228,0,0.454,0,0.681c2.419,0,4.839,0,7.259,0c0,0.228,0,0.454,0,0.68c0,1.967,0,3.933,0,5.899
	c0,0.227,0,0.453,0,0.681c2.407,0,4.827,0,7.26,0c0,1.21,0,2.42,0,3.63c0,1.284,0,2.57,0,3.855c9.679,0,19.357,0,29.037,0
	c0-2.494,0-4.99,0-7.485c0.227,0,0.453,0,0.68,0c4.765,0,9.516,0,14.293,0c2.344,0,4.675,0,7.032,0c2.419,0,4.839,0,7.259,0
	c0-2.42,0-4.839,0-7.26c-0.302,0-0.605,0-0.908,0c-0.15,0-0.302,0-0.453,0c-0.227,0-0.453,0-0.693,0c-0.138,0-0.289,0-0.44,0
	c-0.757,0-1.513,0-2.269,0c-0.228,0-0.467,0-0.681,0c-0.151,0-0.303,0-0.454,0c-0.227,0-0.453,0-0.681,0c-0.15,0-0.302,0-0.453,0
	c-0.757,0-1.513,0-2.269,0c-3.024,0-6.063,0-9.074,0c-3.024,0-6.049,0-9.074,0s-6.049,0-9.074,0c0,2.421,0,4.84,0,7.26
	c-4.839,0-9.691,0-14.519,0c0-2.42,0-4.839,0-7.26c-2.419,0-4.839,0-7.259,0c0-2.42,0-4.84,0-7.26c-2.433,0-4.853,0-7.26,0
	c0-2.419,0-4.839,0-7.259c-2.42,0-4.84,0-7.259,0c0-0.227,0-0.454,0-0.681c0-1.739,0-3.478,0-5.217c0-0.454,0-0.908,0-1.361
	c0-0.378,0-0.757,0-1.135c0-0.454,0-0.907,0-1.361c0-0.378,0-0.756,0-1.134c0-1.74,0-3.479,0-5.218c0-0.453,0-0.907,0-1.361
	c0-0.378,0-0.756,0-1.134c0-0.454,0-0.908,0-1.361c0-0.378,0-0.757,0-1.135c0-0.227,0-0.453,0-0.681c-2.421,0-4.853,0-7.26,0
	c0-9.679,0-19.357,0-29.037c-2.419,0-4.839,0-7.259,0c0-2.42,0-4.84,0-7.259c-2.42,0-4.853,0-7.26,0c0-0.681,0-1.361,0-2.042
	c0-0.604,0-1.21,0-1.814c0-1.21,0-2.42,0-3.631c-2.42,0-4.84,0-7.26,0c0-9.679,0-19.357,0-29.036c2.42,0,4.84,0,7.26,0
	c0-2.421,0-4.84,0-7.26c2.407,0,4.84,0,7.26,0c0-2.42,0-4.84,0-7.259c4.84,0,9.666,0,14.519,0c0-2.42,0-4.84,0-7.259
	c2.419,0,4.839,0,7.259,0c0-2.42,0-4.84,0-7.26c4.827,0,9.68,0,14.519,0c0-2.421,0-4.84,0-7.26c0.228,0,0.441,0,0.681,0
	c1.814,0,3.629,0,5.432,0c1.828,0,3.643,0,5.457,0c1.815,0,3.63,0,5.445,0c1.727,0,3.479,0,5.217,0c1.815,0,3.63,0,5.445,0
	c1.802,0,3.617,0,5.443,0c1.816,0,3.631,0,5.445,0c1.739,0,3.466,0,5.218,0c0-2.42,0-4.84,0-7.259c2.419,0,4.839,0,7.259,0
	c0-2.42,0-4.84,0-7.26c4.827,0,9.68,0,14.519,0c0-2.419,0-4.839,0-7.259c4.827,0,9.68,0,14.519,0c0,2.42,0,4.84,0,7.259
	c2.42,0,4.827,0,7.259,0c0,4.84,0,9.679,0,14.519c2.421,0,4.84,0,7.26,0c0,2.42,0,4.839,0,7.26c2.42,0,4.827,0,7.259,0
	c0,2.42,0,4.84,0,7.26c0.53,0,1.06,0,1.589,0c0.227,0,0.453,0,0.681,0c0.227,0,0.453,0,0.681,0c0.895,0,1.814,0,2.722,0
	c1.815,0,3.63,0,5.444,0c1.815,0,3.63,0,5.444,0c1.803,0,3.617,0,5.444,0c0,2.419,0,4.839,0,7.259c2.421,0,4.84,0,7.26,0
	c0,0.227,0,0.454,0,0.681c0,0.378,0,0.755,0,1.135c0,0.378,0,0.755,0,1.133s0,0.757,0,1.135s0,0.756,0,1.134
	c0,0.379,0,0.757,0,1.135s0,0.756,0,1.135c0,0.378,0,0.756,0,1.134s0,0.757,0,1.135s0,0.756,0,1.134c0,0.379,0,0.757,0,1.135
	c0,0.377,0,0.755,0,1.135c0,0.377,0,0.755,0,1.133s0,0.757,0,1.135s0,0.756,0,1.134c0,0.379,0,0.757,0,1.135s0,0.756,0,1.135
	c0,0.378,0,0.756,0,1.134s0,0.757,0,1.135s0,0.756,0,1.133c0,0.38,0,0.758,0,1.135c0,0.378,0,0.756,0,1.135c0,0.378,0,0.756,0,1.134
	s0,0.757,0,1.135s0,0.756,0,1.134c0,0.379,0,0.757,0,1.135s0,0.756,0,1.135c0,0.378,0,0.756,0,1.134s0,0.757,0,1.135
	s0,0.755,0,1.133c0,0.38,0,0.757,0,1.135S196.682,86.506,196.682,86.885z"/>
<g id="XMLID_2_">
	<g>
		<path fill="#232034" d="M124.634,156.27c0,2.33,0,4.67,0,7c2.42,0,4.83,0,7.26,0c0-2.25,0-4.49,0-6.74c-0.09,0-0.17,0-0.26,0
			c0-0.09,0-0.17,0-0.26C129.293,156.27,126.964,156.27,124.634,156.27z"/>
		<path fill="#232034" d="M125.543,163.529c-0.31,0-0.609,0-0.909,0c0,2.25,0,4.49,0,6.74c2.42,0,4.83,0,7.26,0
			c0-2.25,0-4.49,0-6.74c-0.23,0-0.45,0-0.68,0c-1.07,0-2.12,0-3.181,0c-0.53,0-1.069,0-1.59,0
			C126.144,163.529,125.844,163.529,125.543,163.529z"/>
		<path fill="#232034" d="M124.634,170.529c0,1.45,0,3.78,0,7c0.3,0,0.6,0,0.909,0c0.301,0,0.601,0,0.9,0c0.521,0,1.06,0,1.59,0
			c1.061,0,2.11,0,3.181,0c0.14,0,0.279,0,0.42,0c0-0.09,0-0.17,0-0.26c0.09,0,0.17,0,0.26,0c0-2.25,0-4.49,0-6.74
			c-0.23,0-0.45,0-0.68,0c-1.07,0-2.12,0-3.181,0c-0.53,0-1.069,0-1.59,0c-0.3,0-0.6,0-0.9,0
			C125.233,170.529,124.934,170.529,124.634,170.529z"/>
		<path fill="#232034" d="M126.443,170.529c0.521,0,1.06,0,1.59,0c1.061,0,2.11,0,3.181,0c0.229,0,0.449,0,0.68,0
			c0-0.09,0-0.17,0-0.26c-2.43,0-4.84,0-7.26,0c0,0.08,0,0.17,0,0.26c0.3,0,0.6,0,0.909,0
			C125.844,170.529,126.144,170.529,126.443,170.529z"/>
		<path fill="#232034" d="M128.033,163.529c1.061,0,2.11,0,3.181,0c0.229,0,0.449,0,0.68,0c0-0.09,0-0.17,0-0.26
			c-2.43,0-4.84,0-7.26,0c0,0.09,0,0.17,0,0.26c0.3,0,0.6,0,0.909,0c0.301,0,0.601,0,0.9,0
			C126.964,163.529,127.503,163.529,128.033,163.529z"/>
		<path fill="#232034" d="M131.634,177.529c0,2.33,0,4.67,0,7c0.3,0,0.6,0,0.909,0c0.301,0,0.601,0,0.9,0c0.521,0,1.06,0,1.59,0
			c1.061,0,2.11,0,3.181,0c0.229,0,0.449,0,0.68,0c0-2.33,0-4.67,0-7c-0.09,0-0.17,0-0.26,0c0-0.09,0-0.17,0-0.26
			c-2.261,0-4.49,0-6.74,0c0,0.09,0,0.17,0,0.26C131.804,177.529,131.724,177.529,131.634,177.529z"/>
		<path fill="#232034" d="M131.634,177.27c0,0.09,0,0.17,0,0.26c0.09,0,0.17,0,0.26,0c0-0.09,0-0.17,0-0.26
			C131.804,177.27,131.724,177.27,131.634,177.27z"/>
		<path fill="#232034" d="M131.634,156.27c0,0.09,0,0.17,0,0.26c0.09,0,0.17,0,0.26,0c0-0.09,0-0.17,0-0.26
			C131.804,156.27,131.724,156.27,131.634,156.27z"/>
		<path fill="#232034" d="M131.634,149.27c0,2.33,0,4.67,0,7c0.09,0,0.17,0,0.26,0c0,0.09,0,0.17,0,0.26c0.21,0,0.43,0,0.649,0
			c0.301,0,0.601,0,0.9,0c0.521,0,1.06,0,1.59,0c1.061,0,2.11,0,3.181,0c0.14,0,0.279,0,0.42,0c0-2.42,0-4.84,0-7.26
			C136.293,149.27,133.964,149.27,131.634,149.27z"/>
		<path fill="#5E5F5F" d="M133.443,156.529c-0.3,0-0.6,0-0.9,0c-0.22,0-0.439,0-0.649,0c0,2.25,0,4.49,0,6.74c0,0.09,0,0.17,0,0.26
			c0,2.25,0,4.49,0,6.74c0,0.09,0,0.17,0,0.26c0,2.25,0,4.49,0,6.74c2.25,0,4.479,0,6.74,0c0-2.25,0-4.49,0-6.74
			c0-0.09,0-0.17,0-0.26c0-2.33,0-4.67,0-7c2.42,0,4.83,0,7.26,0c0,2.33,0,4.67,0,7c0,0.09,0,0.17,0,0.26c0,2.25,0,4.49,0,6.74
			c2.25,0,4.479,0,6.74,0c0-2.25,0-4.49,0-6.74c0-0.08,0-0.17,0-0.26c0-1.45,0-3.78,0-7c2.42,0,4.83,0,7.26,0c0,2.33,0,4.67,0,7
			c0,0.09,0,0.17,0,0.26c0,2.25,0,4.49,0,6.74c2.25,0,4.479,0,6.74,0c0-2.25,0-4.49,0-6.74c0-0.09,0-0.17,0-0.26
			c0-2.25,0-4.49,0-6.74c0-0.09,0-0.17,0-0.26c0-2.25,0-4.49,0-6.74c-0.141,0-0.28,0-0.42,0c-1.07,0-2.12,0-3.181,0
			c-0.53,0-1.069,0-1.59,0c-0.3,0-0.6,0-0.9,0c-0.22,0-0.439,0-0.649,0c-0.09,0-0.17,0-0.26,0c-0.141,0-0.28,0-0.42,0
			c-1.07,0-2.12,0-3.181,0c-0.53,0-1.069,0-1.59,0c-0.3,0-0.6,0-0.9,0c-0.22,0-0.439,0-0.649,0c-0.09,0-0.17,0-0.26,0
			c-0.141,0-0.28,0-0.42,0c-1.07,0-2.12,0-3.181,0c-0.53,0-1.069,0-1.59,0c-0.3,0-0.6,0-0.9,0c-0.22,0-0.439,0-0.649,0
			c-0.09,0-0.17,0-0.26,0c-0.141,0-0.28,0-0.42,0c-1.07,0-2.12,0-3.181,0c-0.53,0-1.069,0-1.59,0c-0.3,0-0.6,0-0.9,0
			c-0.22,0-0.439,0-0.649,0c-0.09,0-0.17,0-0.26,0c-0.141,0-0.28,0-0.42,0c-1.07,0-2.12,0-3.181,0
			C134.503,156.529,133.964,156.529,133.443,156.529z"/>
		<path fill="#232034" d="M138.634,177.27c0,0.09,0,0.17,0,0.26c0.09,0,0.17,0,0.26,0c0-0.09,0-0.17,0-0.26
			C138.804,177.27,138.724,177.27,138.634,177.27z"/>
		<path fill="#232034" d="M138.634,163.27c0,2.33,0,4.67,0,7c2.42,0,4.83,0,7.26,0c0-2.33,0-4.67,0-7
			C143.464,163.27,141.054,163.27,138.634,163.27z"/>
		<path fill="#232034" d="M138.634,149.27c0,2.42,0,4.84,0,7.26c0.09,0,0.17,0,0.26,0c0-2.42,0-4.84,0-7.26
			C138.804,149.27,138.724,149.27,138.634,149.27z"/>
		<path fill="#232034" d="M138.634,170.529c0,2.25,0,4.49,0,6.74c0.09,0,0.17,0,0.26,0c0,0.09,0,0.17,0,0.26c0.21,0,0.43,0,0.649,0
			c0.301,0,0.601,0,0.9,0c0.521,0,1.06,0,1.59,0c1.061,0,2.11,0,3.181,0c0.14,0,0.279,0,0.42,0c0-0.09,0-0.17,0-0.26
			c0.09,0,0.17,0,0.26,0c0-2.25,0-4.49,0-6.74c-0.23,0-0.45,0-0.68,0c-1.07,0-2.12,0-3.181,0c-0.53,0-1.069,0-1.59,0
			c-0.3,0-0.6,0-0.9,0C139.233,170.529,138.934,170.529,138.634,170.529z"/>
		<path fill="#232034" d="M138.894,149.27c0,2.42,0,4.84,0,7.26c0.21,0,0.43,0,0.649,0c0.301,0,0.601,0,0.9,0c0.521,0,1.06,0,1.59,0
			c1.061,0,2.11,0,3.181,0c0.14,0,0.279,0,0.42,0c0-2.42,0-4.84,0-7.26C143.373,149.27,141.144,149.27,138.894,149.27z"/>
		<path fill="#232034" d="M140.443,170.529c0.521,0,1.06,0,1.59,0c1.061,0,2.11,0,3.181,0c0.229,0,0.449,0,0.68,0
			c0-0.09,0-0.17,0-0.26c-2.43,0-4.84,0-7.26,0c0,0.09,0,0.17,0,0.26c0.3,0,0.6,0,0.909,0
			C139.844,170.529,140.144,170.529,140.443,170.529z"/>
		<path fill="#232034" d="M145.634,177.529c0,2.33,0,4.67,0,7c0.3,0,0.6,0,0.909,0c0.301,0,0.601,0,0.9,0c0.521,0,1.06,0,1.59,0
			c1.061,0,2.11,0,3.181,0c0.229,0,0.449,0,0.68,0c0-2.33,0-4.67,0-7c-0.09,0-0.17,0-0.26,0c0-0.09,0-0.17,0-0.26
			c-2.261,0-4.49,0-6.74,0c0,0.09,0,0.17,0,0.26C145.804,177.529,145.724,177.529,145.634,177.529z"/>
		<path fill="#232034" d="M145.634,177.27c0,0.09,0,0.17,0,0.26c0.09,0,0.17,0,0.26,0c0-0.09,0-0.17,0-0.26
			C145.804,177.27,145.724,177.27,145.634,177.27z"/>
		<path fill="#232034" d="M145.634,149.27c0,2.42,0,4.84,0,7.26c0.09,0,0.17,0,0.26,0c0-2.42,0-4.84,0-7.26
			C145.804,149.27,145.724,149.27,145.634,149.27z"/>
		<path fill="#232034" d="M145.894,149.27c0,2.42,0,4.84,0,7.26c0.21,0,0.43,0,0.649,0c0.301,0,0.601,0,0.9,0c0.521,0,1.06,0,1.59,0
			c1.061,0,2.11,0,3.181,0c0.14,0,0.279,0,0.42,0c0-2.42,0-4.84,0-7.26C150.373,149.27,148.144,149.27,145.894,149.27z"/>
		<path fill="#232034" d="M152.634,177.27c0,0.09,0,0.17,0,0.26c0.09,0,0.17,0,0.26,0c0-0.09,0-0.17,0-0.26
			C152.804,177.27,152.724,177.27,152.634,177.27z"/>
		<path fill="#232034" d="M152.634,163.27c0,3.22,0,5.55,0,7c2.42,0,4.83,0,7.26,0c0-2.33,0-4.67,0-7
			C157.464,163.27,155.054,163.27,152.634,163.27z"/>
		<path fill="#232034" d="M152.634,149.27c0,2.42,0,4.84,0,7.26c0.09,0,0.17,0,0.26,0c0-2.42,0-4.84,0-7.26
			C152.804,149.27,152.724,149.27,152.634,149.27z"/>
		<path fill="#232034" d="M152.634,170.529c0,2.25,0,4.49,0,6.74c0.09,0,0.17,0,0.26,0c0,0.09,0,0.17,0,0.26c0.21,0,0.43,0,0.649,0
			c0.301,0,0.601,0,0.9,0c0.521,0,1.06,0,1.59,0c1.061,0,2.11,0,3.181,0c0.14,0,0.279,0,0.42,0c0-0.09,0-0.17,0-0.26
			c0.09,0,0.17,0,0.26,0c0-2.25,0-4.49,0-6.74c-0.23,0-0.45,0-0.68,0c-1.07,0-2.12,0-3.181,0c-0.53,0-1.069,0-1.59,0
			c-0.3,0-0.6,0-0.9,0C153.233,170.529,152.934,170.529,152.634,170.529z"/>
		<path fill="#232034" d="M152.894,149.27c0,2.42,0,4.84,0,7.26c0.21,0,0.43,0,0.649,0c0.301,0,0.601,0,0.9,0c0.521,0,1.06,0,1.59,0
			c1.061,0,2.11,0,3.181,0c0.14,0,0.279,0,0.42,0c0-2.42,0-4.84,0-7.26C157.373,149.27,155.144,149.27,152.894,149.27z"/>
		<path fill="#232034" d="M154.443,170.529c0.521,0,1.06,0,1.59,0c1.061,0,2.11,0,3.181,0c0.229,0,0.449,0,0.68,0
			c0-0.09,0-0.17,0-0.26c-2.43,0-4.84,0-7.26,0c0,0.09,0,0.18,0,0.26c0.3,0,0.6,0,0.909,0
			C153.844,170.529,154.144,170.529,154.443,170.529z"/>
		<path fill="#232034" d="M159.634,177.529c0,2.33,0,4.67,0,7c0.3,0,0.6,0,0.909,0c0.301,0,0.601,0,0.9,0c0.521,0,1.06,0,1.59,0
			c1.061,0,2.11,0,3.181,0c0.229,0,0.449,0,0.68,0c0-2.33,0-4.67,0-7c-0.09,0-0.17,0-0.26,0c0-0.09,0-0.17,0-0.26
			c-2.261,0-4.49,0-6.74,0c0,0.09,0,0.17,0,0.26C159.804,177.529,159.724,177.529,159.634,177.529z"/>
		<path fill="#232034" d="M159.634,177.27c0,0.09,0,0.17,0,0.26c0.09,0,0.17,0,0.26,0c0-0.09,0-0.17,0-0.26
			C159.804,177.27,159.724,177.27,159.634,177.27z"/>
		<path fill="#232034" d="M159.634,149.27c0,2.42,0,4.84,0,7.26c0.09,0,0.17,0,0.26,0c0-2.42,0-4.84,0-7.26
			C159.804,149.27,159.724,149.27,159.634,149.27z"/>
		<path fill="#232034" d="M159.894,149.27c0,2.42,0,4.84,0,7.26c0.21,0,0.43,0,0.649,0c0.301,0,0.601,0,0.9,0c0.521,0,1.06,0,1.59,0
			c1.061,0,2.11,0,3.181,0c0.14,0,0.279,0,0.42,0c0-0.09,0-0.17,0-0.26c0.09,0,0.17,0,0.26,0c0-2.33,0-4.67,0-7
			C164.554,149.27,162.224,149.27,159.894,149.27z"/>
		<path fill="#232034" d="M166.634,177.27c0,0.09,0,0.17,0,0.26c0.09,0,0.17,0,0.26,0c0-0.09,0-0.17,0-0.26
			C166.804,177.27,166.724,177.27,166.634,177.27z"/>
		<path fill="#232034" d="M166.634,156.529c0,2.25,0,4.49,0,6.74c2.42,0,4.83,0,7.26,0c0-2.33,0-4.67,0-7c-2.34,0-4.67,0-7,0
			c0,0.09,0,0.17,0,0.26C166.804,156.529,166.724,156.529,166.634,156.529z"/>
		<path fill="#232034" d="M166.634,156.27c0,0.09,0,0.17,0,0.26c0.09,0,0.17,0,0.26,0c0-0.09,0-0.17,0-0.26
			C166.804,156.27,166.724,156.27,166.634,156.27z"/>
		<path fill="#232034" d="M166.634,163.529c0,2.25,0,4.49,0,6.74c2.42,0,4.83,0,7.26,0c0-2.25,0-4.49,0-6.74c-0.23,0-0.45,0-0.68,0
			c-1.07,0-2.12,0-3.181,0c-0.53,0-1.069,0-1.59,0c-0.3,0-0.6,0-0.9,0C167.233,163.529,166.934,163.529,166.634,163.529z"/>
		<path fill="#232034" d="M166.634,170.529c0,2.25,0,4.49,0,6.74c0.09,0,0.17,0,0.26,0c0,0.09,0,0.17,0,0.26c0.21,0,0.43,0,0.649,0
			c0.301,0,0.601,0,0.9,0c0.521,0,1.06,0,1.59,0c1.061,0,2.11,0,3.181,0c0.229,0,0.449,0,0.68,0c0-2.33,0-4.67,0-7
			c-0.23,0-0.45,0-0.68,0c-1.07,0-2.12,0-3.181,0c-0.53,0-1.069,0-1.59,0c-0.3,0-0.6,0-0.9,0
			C167.233,170.529,166.934,170.529,166.634,170.529z"/>
		<path fill="#232034" d="M168.443,170.529c0.521,0,1.06,0,1.59,0c1.061,0,2.11,0,3.181,0c0.229,0,0.449,0,0.68,0
			c0-0.09,0-0.17,0-0.26c-2.43,0-4.84,0-7.26,0c0,0.09,0,0.17,0,0.26c0.3,0,0.6,0,0.909,0
			C167.844,170.529,168.144,170.529,168.443,170.529z"/>
		<path fill="#232034" d="M173.894,163.27c-2.43,0-4.84,0-7.26,0c0,0.09,0,0.17,0,0.26c0.3,0,0.6,0,0.909,0c0.301,0,0.601,0,0.9,0
			c0.521,0,1.06,0,1.59,0c1.061,0,2.11,0,3.181,0c0.229,0,0.449,0,0.68,0C173.894,163.439,173.894,163.359,173.894,163.27z"/>
	</g>
	<g>
	</g>
</g>
<g id="XMLID_1_">
	<g>
		<path fill="#232034" d="M8.27,156.27c0,2.33,0,4.67,0,7c2.42,0,4.83,0,7.26,0c0-2.25,0-4.49,0-6.74c-0.09,0-0.17,0-0.26,0
			c0-0.09,0-0.17,0-0.26C12.93,156.27,10.6,156.27,8.27,156.27z"/>
		<path fill="#232034" d="M9.18,163.529c-0.31,0-0.61,0-0.91,0c0,2.25,0,4.49,0,6.74c2.42,0,4.83,0,7.26,0c0-2.25,0-4.49,0-6.74
			c-0.23,0-0.45,0-0.68,0c-1.07,0-2.12,0-3.18,0c-0.53,0-1.07,0-1.59,0C9.78,163.529,9.48,163.529,9.18,163.529z"/>
		<path fill="#232034" d="M10.08,170.529c-0.3,0-0.6,0-0.9,0c-0.31,0-0.61,0-0.91,0c0,1.45,0,3.78,0,7c0.3,0,0.6,0,0.91,0
			c0.3,0,0.6,0,0.9,0c0.52,0,1.06,0,1.59,0c1.06,0,2.11,0,3.18,0c0.14,0,0.28,0,0.42,0c0-0.09,0-0.17,0-0.26c0.09,0,0.17,0,0.26,0
			c0-2.25,0-4.49,0-6.74c-0.23,0-0.45,0-0.68,0c-1.07,0-2.12,0-3.18,0C11.14,170.529,10.6,170.529,10.08,170.529z"/>
		<path fill="#232034" d="M11.67,170.529c1.06,0,2.11,0,3.18,0c0.23,0,0.45,0,0.68,0c0-0.09,0-0.17,0-0.26c-2.43,0-4.84,0-7.26,0
			c0,0.08,0,0.17,0,0.26c0.3,0,0.6,0,0.91,0c0.3,0,0.6,0,0.9,0C10.6,170.529,11.14,170.529,11.67,170.529z"/>
		<path fill="#232034" d="M10.08,163.529c0.52,0,1.06,0,1.59,0c1.06,0,2.11,0,3.18,0c0.23,0,0.45,0,0.68,0c0-0.09,0-0.17,0-0.26
			c-2.43,0-4.84,0-7.26,0c0,0.09,0,0.17,0,0.26c0.3,0,0.6,0,0.91,0C9.48,163.529,9.78,163.529,10.08,163.529z"/>
		<path fill="#232034" d="M15.27,177.529c0,2.33,0,4.67,0,7c0.3,0,0.6,0,0.91,0c0.3,0,0.6,0,0.9,0c0.52,0,1.06,0,1.59,0
			c1.06,0,2.11,0,3.18,0c0.23,0,0.45,0,0.68,0c0-2.33,0-4.67,0-7c-0.09,0-0.17,0-0.26,0c0-0.09,0-0.17,0-0.26c-2.26,0-4.49,0-6.74,0
			c0,0.09,0,0.17,0,0.26C15.44,177.529,15.36,177.529,15.27,177.529z"/>
		<path fill="#232034" d="M15.27,177.27c0,0.09,0,0.17,0,0.26c0.09,0,0.17,0,0.26,0c0-0.09,0-0.17,0-0.26
			C15.44,177.27,15.36,177.27,15.27,177.27z"/>
		<path fill="#232034" d="M15.27,156.27c0,0.09,0,0.17,0,0.26c0.09,0,0.17,0,0.26,0c0-0.09,0-0.17,0-0.26
			C15.44,156.27,15.36,156.27,15.27,156.27z"/>
		<path fill="#232034" d="M15.27,149.27c0,2.33,0,4.67,0,7c0.09,0,0.17,0,0.26,0c0,0.09,0,0.17,0,0.26c0.21,0,0.43,0,0.65,0
			c0.3,0,0.6,0,0.9,0c0.52,0,1.06,0,1.59,0c1.06,0,2.11,0,3.18,0c0.14,0,0.28,0,0.42,0c0-2.42,0-4.84,0-7.26
			C19.93,149.27,17.6,149.27,15.27,149.27z"/>
		<path fill="#5E5F5F" d="M16.18,156.529c-0.22,0-0.44,0-0.65,0c0,2.25,0,4.49,0,6.74c0,0.09,0,0.17,0,0.26c0,2.25,0,4.49,0,6.74
			c0,0.09,0,0.17,0,0.26c0,2.25,0,4.49,0,6.74c2.25,0,4.48,0,6.74,0c0-2.25,0-4.49,0-6.74c0-0.09,0-0.17,0-0.26c0-2.33,0-4.67,0-7
			c2.42,0,4.83,0,7.26,0c0,2.33,0,4.67,0,7c0,0.09,0,0.17,0,0.26c0,2.25,0,4.49,0,6.74c2.25,0,4.48,0,6.74,0c0-2.25,0-4.49,0-6.74
			c0-0.08,0-0.17,0-0.26c0-1.45,0-3.78,0-7c2.42,0,4.83,0,7.26,0c0,2.33,0,4.67,0,7c0,0.09,0,0.17,0,0.26c0,2.25,0,4.49,0,6.74
			c2.25,0,4.48,0,6.74,0c0-2.25,0-4.49,0-6.74c0-0.09,0-0.17,0-0.26c0-2.25,0-4.49,0-6.74c0-0.09,0-0.17,0-0.26
			c0-2.25,0-4.49,0-6.74c-0.14,0-0.28,0-0.42,0c-1.07,0-2.12,0-3.18,0c-0.53,0-1.07,0-1.59,0c-0.3,0-0.6,0-0.9,0
			c-0.22,0-0.44,0-0.65,0c-0.09,0-0.17,0-0.26,0c-0.14,0-0.28,0-0.42,0c-1.07,0-2.12,0-3.18,0c-0.53,0-1.07,0-1.59,0
			c-0.3,0-0.6,0-0.9,0c-0.22,0-0.44,0-0.65,0c-0.09,0-0.17,0-0.26,0c-0.14,0-0.28,0-0.42,0c-1.07,0-2.12,0-3.18,0
			c-0.53,0-1.07,0-1.59,0c-0.3,0-0.6,0-0.9,0c-0.22,0-0.44,0-0.65,0c-0.09,0-0.17,0-0.26,0c-0.14,0-0.28,0-0.42,0
			c-1.07,0-2.12,0-3.18,0c-0.53,0-1.07,0-1.59,0c-0.3,0-0.6,0-0.9,0c-0.22,0-0.44,0-0.65,0c-0.09,0-0.17,0-0.26,0
			c-0.14,0-0.28,0-0.42,0c-1.07,0-2.12,0-3.18,0c-0.53,0-1.07,0-1.59,0C16.78,156.529,16.48,156.529,16.18,156.529z"/>
		<path fill="#232034" d="M22.27,177.27c0,0.09,0,0.17,0,0.26c0.09,0,0.17,0,0.26,0c0-0.09,0-0.17,0-0.26
			C22.44,177.27,22.36,177.27,22.27,177.27z"/>
		<path fill="#232034" d="M22.27,163.27c0,2.33,0,4.67,0,7c2.42,0,4.83,0,7.26,0c0-2.33,0-4.67,0-7
			C27.1,163.27,24.69,163.27,22.27,163.27z"/>
		<path fill="#232034" d="M22.27,149.27c0,2.42,0,4.84,0,7.26c0.09,0,0.17,0,0.26,0c0-2.42,0-4.84,0-7.26
			C22.44,149.27,22.36,149.27,22.27,149.27z"/>
		<path fill="#232034" d="M22.27,170.529c0,2.25,0,4.49,0,6.74c0.09,0,0.17,0,0.26,0c0,0.09,0,0.17,0,0.26c0.21,0,0.43,0,0.65,0
			c0.3,0,0.6,0,0.9,0c0.52,0,1.06,0,1.59,0c1.06,0,2.11,0,3.18,0c0.14,0,0.28,0,0.42,0c0-0.09,0-0.17,0-0.26c0.09,0,0.17,0,0.26,0
			c0-2.25,0-4.49,0-6.74c-0.23,0-0.45,0-0.68,0c-1.07,0-2.12,0-3.18,0c-0.53,0-1.07,0-1.59,0c-0.3,0-0.6,0-0.9,0
			C22.87,170.529,22.57,170.529,22.27,170.529z"/>
		<path fill="#232034" d="M22.53,149.27c0,2.42,0,4.84,0,7.26c0.21,0,0.43,0,0.65,0c0.3,0,0.6,0,0.9,0c0.52,0,1.06,0,1.59,0
			c1.06,0,2.11,0,3.18,0c0.14,0,0.28,0,0.42,0c0-2.42,0-4.84,0-7.26C27.01,149.27,24.78,149.27,22.53,149.27z"/>
		<path fill="#232034" d="M29.53,170.27c-2.43,0-4.84,0-7.26,0c0,0.09,0,0.17,0,0.26c0.3,0,0.6,0,0.91,0c0.3,0,0.6,0,0.9,0
			c0.52,0,1.06,0,1.59,0c1.06,0,2.11,0,3.18,0c0.23,0,0.45,0,0.68,0C29.53,170.439,29.53,170.359,29.53,170.27z"/>
		<path fill="#232034" d="M29.27,177.529c0,2.33,0,4.67,0,7c0.3,0,0.6,0,0.91,0c0.3,0,0.6,0,0.9,0c0.52,0,1.06,0,1.59,0
			c1.06,0,2.11,0,3.18,0c0.23,0,0.45,0,0.68,0c0-2.33,0-4.67,0-7c-0.09,0-0.17,0-0.26,0c0-0.09,0-0.17,0-0.26c-2.26,0-4.49,0-6.74,0
			c0,0.09,0,0.17,0,0.26C29.44,177.529,29.36,177.529,29.27,177.529z"/>
		<path fill="#232034" d="M29.27,177.27c0,0.09,0,0.17,0,0.26c0.09,0,0.17,0,0.26,0c0-0.09,0-0.17,0-0.26
			C29.44,177.27,29.36,177.27,29.27,177.27z"/>
		<path fill="#232034" d="M29.27,149.27c0,2.42,0,4.84,0,7.26c0.09,0,0.17,0,0.26,0c0-2.42,0-4.84,0-7.26
			C29.44,149.27,29.36,149.27,29.27,149.27z"/>
		<path fill="#232034" d="M29.53,149.27c0,2.42,0,4.84,0,7.26c0.21,0,0.43,0,0.65,0c0.3,0,0.6,0,0.9,0c0.52,0,1.06,0,1.59,0
			c1.06,0,2.11,0,3.18,0c0.14,0,0.28,0,0.42,0c0-2.42,0-4.84,0-7.26C34.01,149.27,31.78,149.27,29.53,149.27z"/>
		<path fill="#232034" d="M36.27,177.27c0,0.09,0,0.17,0,0.26c0.09,0,0.17,0,0.26,0c0-0.09,0-0.17,0-0.26
			C36.44,177.27,36.36,177.27,36.27,177.27z"/>
		<path fill="#232034" d="M36.27,163.27c0,3.22,0,5.55,0,7c2.42,0,4.83,0,7.26,0c0-2.33,0-4.67,0-7
			C41.1,163.27,38.69,163.27,36.27,163.27z"/>
		<path fill="#232034" d="M36.27,149.27c0,2.42,0,4.84,0,7.26c0.09,0,0.17,0,0.26,0c0-2.42,0-4.84,0-7.26
			C36.44,149.27,36.36,149.27,36.27,149.27z"/>
		<path fill="#232034" d="M38.08,170.529c-0.3,0-0.6,0-0.9,0c-0.31,0-0.61,0-0.91,0c0,2.25,0,4.49,0,6.74c0.09,0,0.17,0,0.26,0
			c0,0.09,0,0.17,0,0.26c0.21,0,0.43,0,0.65,0c0.3,0,0.6,0,0.9,0c0.52,0,1.06,0,1.59,0c1.06,0,2.11,0,3.18,0c0.14,0,0.28,0,0.42,0
			c0-0.09,0-0.17,0-0.26c0.09,0,0.17,0,0.26,0c0-2.25,0-4.49,0-6.74c-0.23,0-0.45,0-0.68,0c-1.07,0-2.12,0-3.18,0
			C39.14,170.529,38.6,170.529,38.08,170.529z"/>
		<path fill="#232034" d="M36.53,149.27c0,2.42,0,4.84,0,7.26c0.21,0,0.43,0,0.65,0c0.3,0,0.6,0,0.9,0c0.52,0,1.06,0,1.59,0
			c1.06,0,2.11,0,3.18,0c0.14,0,0.28,0,0.42,0c0-2.42,0-4.84,0-7.26C41.01,149.27,38.78,149.27,36.53,149.27z"/>
		<path fill="#232034" d="M43.53,170.27c-2.43,0-4.84,0-7.26,0c0,0.09,0,0.18,0,0.26c0.3,0,0.6,0,0.91,0c0.3,0,0.6,0,0.9,0
			c0.52,0,1.06,0,1.59,0c1.06,0,2.11,0,3.18,0c0.23,0,0.45,0,0.68,0C43.53,170.439,43.53,170.359,43.53,170.27z"/>
		<path fill="#232034" d="M43.27,177.529c0,2.33,0,4.67,0,7c0.3,0,0.6,0,0.91,0c0.3,0,0.6,0,0.9,0c0.52,0,1.06,0,1.59,0
			c1.06,0,2.11,0,3.18,0c0.23,0,0.45,0,0.68,0c0-2.33,0-4.67,0-7c-0.09,0-0.17,0-0.26,0c0-0.09,0-0.17,0-0.26c-2.26,0-4.49,0-6.74,0
			c0,0.09,0,0.17,0,0.26C43.44,177.529,43.36,177.529,43.27,177.529z"/>
		<path fill="#232034" d="M43.27,177.27c0,0.09,0,0.17,0,0.26c0.09,0,0.17,0,0.26,0c0-0.09,0-0.17,0-0.26
			C43.44,177.27,43.36,177.27,43.27,177.27z"/>
		<path fill="#232034" d="M43.27,149.27c0,2.42,0,4.84,0,7.26c0.09,0,0.17,0,0.26,0c0-2.42,0-4.84,0-7.26
			C43.44,149.27,43.36,149.27,43.27,149.27z"/>
		<path fill="#232034" d="M43.53,149.27c0,2.42,0,4.84,0,7.26c0.21,0,0.43,0,0.65,0c0.3,0,0.6,0,0.9,0c0.52,0,1.06,0,1.59,0
			c1.06,0,2.11,0,3.18,0c0.14,0,0.28,0,0.42,0c0-0.09,0-0.17,0-0.26c0.09,0,0.17,0,0.26,0c0-2.33,0-4.67,0-7
			C48.19,149.27,45.86,149.27,43.53,149.27z"/>
		<path fill="#232034" d="M50.27,177.27c0,0.09,0,0.17,0,0.26c0.09,0,0.17,0,0.26,0c0-0.09,0-0.17,0-0.26
			C50.44,177.27,50.36,177.27,50.27,177.27z"/>
		<path fill="#232034" d="M50.27,156.529c0,2.25,0,4.49,0,6.74c2.42,0,4.83,0,7.26,0c0-2.33,0-4.67,0-7c-2.34,0-4.67,0-7,0
			c0,0.09,0,0.17,0,0.26C50.44,156.529,50.36,156.529,50.27,156.529z"/>
		<path fill="#232034" d="M50.27,156.27c0,0.09,0,0.17,0,0.26c0.09,0,0.17,0,0.26,0c0-0.09,0-0.17,0-0.26
			C50.44,156.27,50.36,156.27,50.27,156.27z"/>
		<path fill="#232034" d="M52.08,163.529c-0.3,0-0.6,0-0.9,0c-0.31,0-0.61,0-0.91,0c0,2.25,0,4.49,0,6.74c2.42,0,4.83,0,7.26,0
			c0-2.25,0-4.49,0-6.74c-0.23,0-0.45,0-0.68,0c-1.07,0-2.12,0-3.18,0C53.14,163.529,52.6,163.529,52.08,163.529z"/>
		<path fill="#232034" d="M50.27,170.529c0,2.25,0,4.49,0,6.74c0.09,0,0.17,0,0.26,0c0,0.09,0,0.17,0,0.26c0.21,0,0.43,0,0.65,0
			c0.3,0,0.6,0,0.9,0c0.52,0,1.06,0,1.59,0c1.06,0,2.11,0,3.18,0c0.23,0,0.45,0,0.68,0c0-2.33,0-4.67,0-7c-0.23,0-0.45,0-0.68,0
			c-1.07,0-2.12,0-3.18,0c-0.53,0-1.07,0-1.59,0c-0.3,0-0.6,0-0.9,0C50.87,170.529,50.57,170.529,50.27,170.529z"/>
		<path fill="#232034" d="M52.08,170.529c0.52,0,1.06,0,1.59,0c1.06,0,2.11,0,3.18,0c0.23,0,0.45,0,0.68,0c0-0.09,0-0.17,0-0.26
			c-2.43,0-4.84,0-7.26,0c0,0.09,0,0.17,0,0.26c0.3,0,0.6,0,0.91,0C51.48,170.529,51.78,170.529,52.08,170.529z"/>
		<path fill="#232034" d="M57.53,163.27c-2.43,0-4.84,0-7.26,0c0,0.09,0,0.17,0,0.26c0.3,0,0.6,0,0.91,0c0.3,0,0.6,0,0.9,0
			c0.52,0,1.06,0,1.59,0c1.06,0,2.11,0,3.18,0c0.23,0,0.45,0,0.68,0C57.53,163.439,57.53,163.359,57.53,163.27z"/>
	</g>
	<g>
	</g>
</g>
<path fill="#FFFFFF" d="M80.192,65.561c0,2.42,0,4.839,0,7.26c2.42,0,4.84,0,7.26,0c0-2.421,0-4.84,0-7.26
	C85.032,65.561,82.612,65.561,80.192,65.561z"/>
<path fill="#010101" d="M80.192,58.302c0,2.42,0,4.84,0,7.259c2.42,0,4.84,0,7.26,0c0,2.42,0,4.839,0,7.26c2.406,0,4.826,0,7.26,0
	c0-2.421,0-4.84,0-7.26c2.419,0,4.839,0,7.258,0c0-2.419,0-4.839,0-7.259c-3.629,0-7.258,0-10.9,0
	C87.452,58.302,83.822,58.302,80.192,58.302z"/>
</svg>
