<?xml version="1.0" encoding="utf-8"?>
<!-- Generator: Adobe Illustrator 15.0.0, SVG Export Plug-In  -->
<!DOCTYPE svg PUBLIC "-//W3C//DTD SVG 1.1//EN" "http://www.w3.org/Graphics/SVG/1.1/DTD/svg11.dtd" [
	<!ENTITY ns_flows "http://ns.adobe.com/Flows/1.0/">
]>
<svg version="1.1"
	 xmlns="http://www.w3.org/2000/svg" xmlns:xlink="http://www.w3.org/1999/xlink" xmlns:a="http://ns.adobe.com/AdobeSVGViewerExtensions/3.0/"
	 x="0px" y="0px" width="104px" height="144px" viewBox="-12.11 -12.12 104 144" enable-background="new -12.11 -12.12 104 144"
	 xml:space="preserve">
<defs>
</defs>
<g id="XMLID_2_">
	<g>
		<path fill="#311531" d="M70.81,47.23c0.78,0,1.561,0,2.34,0c0.36,0,0.721,0,1.08,0c0.18,0,0.36,0,0.54,0c0.24,0,0.48,0,0.72,0
			c0-0.18,0-0.36,0-0.54c0-0.36,0-0.72,0-1.08c0-0.18,0-0.36,0-0.54s0-0.36,0-0.54c0-0.36,0-0.72,0-1.08c0-0.18,0-0.36,0-0.54
			c0-0.12,0-0.24,0-0.36c0.181,0,0.36,0,0.54,0c0.181,0,0.36,0,0.54,0c0.181,0,0.36,0,0.54,0c0.24,0,0.48,0,0.721,0
			c0.18,0,0.359,0,0.54,0c0.18,0,0.359,0,0.539,0c0.421,0,0.841,0,1.261,0c0,0.54,0,1.08,0,1.62c0,0.48,0,0.96,0,1.44
			c0,0.96,0,1.92,0,2.88c0,0.54,0,1.08,0,1.62c0,0.48,0,0.96,0,1.44c0,0.96,0,1.92,0,2.88c0,0.54,0,1.08,0,1.62
			c0,0.48,0,0.96,0,1.44c0,0.96,0,1.92,0,2.88c0,1.92,0,3.84,0,5.76c-0.42,0-0.84,0-1.261,0c-0.18,0-0.359,0-0.539,0
			c-0.181,0-0.36,0-0.54,0c-0.24,0-0.48,0-0.721,0c-0.18,0-0.359,0-0.54,0c-0.359,0-0.72,0-1.08,0c0-1.56,0-3.12,0-4.68
			c-0.18,0-0.359,0-0.54,0c-0.18,0-0.359,0-0.54,0c-0.119,0-0.239,0-0.359,0c-0.18,0-0.36,0-0.54,0c-0.12,0-0.24,0-0.36,0
			c-0.18,0-0.359,0-0.54,0c-0.12,0-0.239,0-0.359,0c-0.181,0-0.36,0-0.54,0c-0.12,0-0.24,0-0.36,0c-0.18,0-0.36,0-0.54,0
			c0-0.69,0-3.63,0-4.86c0-0.31,0-0.51,0-0.54c0-1.5,0-3,0-4.5C70.81,50.11,70.81,48.67,70.81,47.23z"/>
		<path fill="#311531" d="M75.49,66.13c0,0.42,0,0.84,0,1.26c0,0.36,0,0.721,0,1.08c0,0.42,0,0.84,0,1.26c0,0.36,0,0.721,0,1.08
			c0,0.42,0,0.84,0,1.261c0,0.359,0,0.72,0,1.079c0,0.421,0,0.841,0,1.261c0,0.359,0,0.72,0,1.08c-0.779,0-1.56,0-2.34,0
			c-0.779,0-1.56,0-2.34,0c0-0.78,0-1.561,0-2.341c0-0.779,0-1.56,0-2.34c0-0.779,0-1.56,0-2.34s0-1.56,0-2.34c0.72,0,1.44,0,2.16,0
			c0.18,0,0.36,0,0.54,0s0.36,0,0.54,0s0.359,0,0.54,0c0.12,0,0.24,0,0.359,0C75.13,66.13,75.31,66.13,75.49,66.13z"/>
		<path fill="#311531" d="M70.81,94.21c0.78,0,1.561,0,2.34,0c0.78,0,1.561,0,2.34,0c0,0.12,0,0.24,0,0.36c0,1.14,0,2.279,0,3.42
			c0,1.14,0,2.279,0,3.42c0,1.14,0,2.279,0,3.42c0,1.2,0,2.399,0,3.6c-0.06,0-0.119,0-0.18,0c-0.06,0-0.12,0-0.18,0
			c-0.12,0-0.24,0-0.36,0c-0.18,0-0.36,0-0.54,0c-0.359,0-0.72,0-1.08,0c-0.359,0-0.72,0-1.08,0c-0.18,0-0.359,0-0.54,0
			c-0.239,0-0.479,0-0.72,0c0-2.34,0-4.68,0-7.02c0-1.2,0-2.4,0-3.601c0-0.6,0-1.199,0-1.8c0-0.3,0-0.6,0-0.899
			c0-0.12,0-0.24,0-0.36C70.81,94.57,70.81,94.39,70.81,94.21z"/>
		<path fill="#BA6A5B" d="M71.89,42.55c0.18,0,0.36,0,0.54,0c0.24,0,0.479,0,0.72,0c0.181,0,0.36,0,0.54,0c0.181,0,0.36,0,0.54,0
			c0.42,0,0.84,0,1.26,0c0,0.12,0,0.24,0,0.36c0,0.18,0,0.36,0,0.54c0,0.36,0,0.72,0,1.08c0,0.18,0,0.36,0,0.54s0,0.36,0,0.54
			c0,0.36,0,0.72,0,1.08c0,0.18,0,0.36,0,0.54c-0.239,0-0.479,0-0.72,0c-0.18,0-0.36,0-0.54,0c-0.359,0-0.72,0-1.08,0
			c-0.779,0-1.56,0-2.34,0c0-0.36,0-0.72,0-1.08c0-0.42,0-0.84,0-1.26c0-0.36,0-0.72,0-1.08c0-0.18,0-0.36,0-0.54
			c0-0.24,0-0.48,0-0.72c0.18,0,0.36,0,0.54,0S71.71,42.55,71.89,42.55z"/>
		<path fill="#311531" d="M71.89,33.19c0.18,0,0.36,0,0.54,0c0.24,0,0.479,0,0.72,0c0.181,0,0.36,0,0.54,0c0.181,0,0.36,0,0.54,0
			c0.42,0,0.84,0,1.26,0c0,0.78,0,1.56,0,2.34c0,0.18,0,0.36,0,0.54s0,0.36,0,0.54c0,0.42,0,0.84,0,1.26c0,1.56,0,3.12,0,4.68
			c-0.42,0-0.84,0-1.26,0c-0.18,0-0.359,0-0.54,0c-0.18,0-0.359,0-0.54,0c-0.24,0-0.479,0-0.72,0c-0.18,0-0.36,0-0.54,0
			s-0.36,0-0.54,0s-0.36,0-0.54,0c0-0.36,0-0.72,0-1.08c0-0.42,0-0.84,0-1.26c0-0.36,0-0.72,0-1.08c0-0.42,0-0.84,0-1.26
			c0-0.36,0-0.72,0-1.08c0-0.42,0-0.84,0-1.26c0-0.36,0-0.72,0-1.08c0-0.18,0-0.36,0-0.54c0-0.24,0-0.48,0-0.72
			C71.17,33.19,71.53,33.19,71.89,33.19z"/>
		<path fill="#BA6A5B" d="M71.71,61.45c0.18,0,0.359,0,0.54,0c0.12,0,0.239,0,0.359,0c0.181,0,0.36,0,0.54,0c0.12,0,0.24,0,0.36,0
			c0.18,0,0.36,0,0.54,0c0.12,0,0.24,0,0.359,0c0.181,0,0.36,0,0.54,0c0.181,0,0.36,0,0.54,0c0,1.56,0,3.12,0,4.68
			c-0.18,0-0.359,0-0.54,0c-0.119,0-0.239,0-0.359,0c-0.181,0-0.36,0-0.54,0s-0.36,0-0.54,0s-0.36,0-0.54,0c-0.72,0-1.44,0-2.16,0
			c0-1.51,0-3.03,0-4.54c0-0.05,0-0.09,0-0.14c0.18,0,0.36,0,0.54,0C71.47,61.45,71.59,61.45,71.71,61.45z"/>
		<path fill="#311531" d="M70.81,108.43c0,1.561,0,3.12,0,4.681c-0.36,0-0.72,0-1.08,0c-0.42,0-0.84,0-1.26,0c-0.36,0-0.72,0-1.08,0
			c-0.18,0-0.36,0-0.54,0c-0.24,0-0.479,0-0.72,0c0,0.18,0,0.359,0,0.539c0,2.761,0,5.521,0,8.28c0,0.181,0,0.36,0,0.54
			c-1.561,0-3.12,0-4.681,0c0-2.28,0-4.56,0-6.84c0-1.14,0-2.28,0-3.42c0-0.6,0-1.2,0-1.8c0-0.3,0-0.601,0-0.9c0-0.12,0-0.24,0-0.36
			c0-0.239,0-0.479,0-0.72c1.561,0,3.12,0,4.681,0C67.69,108.43,69.25,108.43,70.81,108.43z"/>
		<path fill="#BA6A5B" d="M55.331,75.49c1.199,0,2.399,0,3.6,0s2.4,0,3.6,0c0.601,0,1.2,0,1.801,0c0.119,0,0.239,0,0.359,0
			c0.181,0,0.36,0,0.54,0c0.12,0,0.24,0,0.36,0c0.18,0,0.359,0,0.54,0c0,0.42,0,0.84,0,1.26c0,0.18,0,0.36,0,0.54s0,0.359,0,0.54
			c0,0.24,0,0.479,0,0.72c0,0.18,0,0.36,0,0.54c0,0.36,0,0.72,0,1.08c-0.42,0-0.84,0-1.26,0c-0.181,0-0.36,0-0.54,0
			c-0.181,0-0.36,0-0.54,0c-0.36,0-0.721,0-1.08,0c-0.181,0-0.36,0-0.54,0c-0.12,0-0.24,0-0.36,0c-0.06,0-0.12,0-0.18,0
			c-0.061,0-0.12,0-0.181,0c0,0.18,0,0.36,0,0.54s0,0.36,0,0.54c0,0.12,0,0.24,0,0.36c0,0.18,0,0.359,0,0.539c0,0.12,0,0.24,0,0.36
			c0,0.18,0,0.36,0,0.54c0,0.12,0,0.24,0,0.36c0,0.18,0,0.359,0,0.54c0,0.12,0,0.239,0,0.359c0,0.181,0,0.36,0,0.54
			c0.421,0,0.841,0,1.261,0c0.18,0,0.359,0,0.54,0c0.18,0,0.359,0,0.54,0c0.239,0,0.479,0,0.72,0c0.18,0,0.36,0,0.54,0
			s0.359,0,0.54,0c0.18,0,0.359,0,0.54,0c0,0.42,0,0.84,0,1.261c0,0.18,0,0.359,0,0.539c0,0.181,0,0.36,0,0.54
			c0,0.24,0,0.48,0,0.721c0,0.18,0,0.359,0,0.54c0,0.18,0,0.359,0,0.54c0,0.18,0,0.359,0,0.54c0,0.239,0,0.479,0,0.72
			c0,0.18,0,0.36,0,0.54s0,0.359,0,0.54c0,0.18,0,0.359,0,0.54c0,0.24,0,0.479,0,0.72c0,0.18,0,0.36,0,0.54c0,0.36,0,0.72,0,1.08
			c0.779,0,1.56,0,2.34,0s1.56,0,2.34,0c0,0.18,0,0.36,0,0.54c0,0.12,0,0.24,0,0.36c0,0.3,0,0.6,0,0.899c0,0.601,0,1.2,0,1.8
			c0,1.2,0,2.4,0,3.601c0,2.34,0,4.68,0,7.02c-1.56,0-3.12,0-4.68,0c-1.561,0-3.12,0-4.681,0c0-3.06,0-6.12,0-9.18
			c0-0.78,0-1.561,0-2.34c0-0.78,0-1.561,0-2.34c0-1.5,0-3,0-4.5c0-0.181,0-0.36,0-0.54c-1.439,0-2.88,0-4.319,0
			c-0.181,0-0.36,0-0.54,0c0-0.24,0-0.48,0-0.721c0-0.18,0-0.359,0-0.54c0-0.18,0-0.359,0-0.54c0-0.18,0-0.359,0-0.54
			c0-0.42,0-0.84,0-1.26c0-0.18,0-0.359,0-0.54c0-0.18,0-0.359,0-0.54c0-1.56,0-3.12,0-4.68c-0.42,0-0.84,0-1.26,0
			c-0.181,0-0.36,0-0.54,0c-0.181,0-0.36,0-0.54,0c-0.24,0-0.48,0-0.721,0c-0.18,0-0.359,0-0.54,0c-0.18,0-0.359,0-0.54,0
			c-0.18,0-0.359,0-0.54,0c0-0.78,0-1.56,0-2.34s0-1.561,0-2.34c0.24,0,0.48,0,0.721,0c0.3,0,0.6,0,0.899,0c0.301,0,0.601,0,0.9,0
			c0.12,0,0.24,0,0.36,0C54.97,75.49,55.15,75.49,55.331,75.49z"/>
		<path fill="#311531" d="M70.81,91.87c0,0.779,0,1.56,0,2.34c-0.78,0-1.56,0-2.34,0s-1.561,0-2.34,0c0-0.36,0-0.72,0-1.08
			c0-0.18,0-0.36,0-0.54c0-0.24,0-0.479,0-0.72c0-0.181,0-0.36,0-0.54c0-0.181,0-0.36,0-0.54s0-0.36,0-0.54c0-0.24,0-0.48,0-0.72
			c0-0.181,0-0.36,0-0.54c0-0.181,0-0.36,0-0.54c0-0.181,0-0.36,0-0.54c0-0.24,0-0.48,0-0.721c0-0.18,0-0.359,0-0.54
			c0-0.18,0-0.359,0-0.539c0-0.421,0-0.841,0-1.261c1.38,0,2.76,0,4.14,0c0.18,0,0.36,0,0.54,0c0,0.24,0,0.48,0,0.721
			c0,0.18,0,0.359,0,0.54c0,0.359,0,0.72,0,1.079c0,0.181,0,0.36,0,0.54c0,0.181,0,0.36,0,0.54c0,0.42,0,0.841,0,1.261
			c0,0.18,0,0.359,0,0.54c0,0.18,0,0.359,0,0.54C70.81,91.03,70.81,91.45,70.81,91.87z"/>
		<path fill="#311531" d="M70.81,75.49c0,0.359,0,0.72,0,1.08c0,0.42,0,0.84,0,1.26c0,0.18,0,0.359,0,0.54c0,0.18,0,0.359,0,0.54
			c0,0.18,0,0.359,0,0.54c0,0.239,0,0.479,0,0.72c-0.18,0-0.36,0-0.54,0s-0.36,0-0.54,0s-0.359,0-0.54,0c-0.24,0-0.479,0-0.72,0
			c-0.18,0-0.36,0-0.54,0s-0.36,0-0.54,0c-0.42,0-0.84,0-1.26,0c0-0.36,0-0.72,0-1.08c0-0.18,0-0.36,0-0.54c0-0.24,0-0.479,0-0.72
			c0-0.181,0-0.36,0-0.54s0-0.36,0-0.54c0-0.42,0-0.84,0-1.26c0.359,0,0.72,0,1.08,0c0.42,0,0.84,0,1.26,0c0.36,0,0.72,0,1.08,0
			C69.97,75.49,70.39,75.49,70.81,75.49z"/>
		<path fill="#FDFEFF" d="M70.81,56.59c0,1.23,0,4.17,0,4.86c0,0.05,0,0.09,0,0.14h-4.68c0-0.15,0-3.63,0-5c0.779,0,1.56,0,2.34,0
			c0.36,0,0.72,0,1.08,0c0.18,0,0.359,0,0.54,0C70.331,56.59,70.57,56.59,70.81,56.59z"/>
		<path fill="#311531" d="M66.13,23.83c0.779,0,1.56,0,2.34,0s1.56,0,2.34,0c0,0.78,0,1.56,0,2.34c0,0.36,0,0.72,0,1.08
			c0,0.42,0,0.84,0,1.26c0,1.56,0,3.12,0,4.68c-0.36,0-0.72,0-1.08,0c-0.18,0-0.359,0-0.54,0c-0.24,0-0.479,0-0.72,0
			c-0.18,0-0.36,0-0.54,0s-0.36,0-0.54,0c-0.42,0-0.84,0-1.26,0c0-0.36,0-0.72,0-1.08c0-0.18,0-0.36,0-0.54c0-0.24,0-0.48,0-0.72
			c0-0.18,0-0.36,0-0.54c0-0.18,0-0.36,0-0.54c0-0.18,0-0.36,0-0.54c0-0.24,0-0.48,0-0.72C66.13,26.95,66.13,25.39,66.13,23.83z"/>
		<path fill="#FDFEFF" d="M68.47,56.59c-0.78,0-1.561,0-2.34,0c0-0.31,0-0.51,0-0.54c0-1.38,0-2.76,0-4.14c0-1.38,0-2.76,0-4.14
			c0-0.18,0-0.36,0-0.54c0.24,0,0.479,0,0.72,0c0.18,0,0.36,0,0.54,0c0.36,0,0.72,0,1.08,0c0.78,0,1.56,0,2.34,0
			c0,1.44,0,2.88,0,4.32c0,1.5,0,3,0,4.5c0,0.03,0,0.23,0,0.54c-0.24,0-0.479,0-0.72,0c-0.181,0-0.36,0-0.54,0
			C69.19,56.59,68.831,56.59,68.47,56.59z"/>
		<path fill="#BA6A5B" d="M66.13,71.35c0-0.18,0-0.359,0-0.54c0.24,0,0.479,0,0.72,0c0.18,0,0.36,0,0.54,0c0.36,0,0.72,0,1.08,0
			s0.72,0,1.08,0c0.18,0,0.359,0,0.54,0c0.24,0,0.479,0,0.72,0c0,0.78,0,1.561,0,2.34c0,0.78,0,1.561,0,2.341c-0.42,0-0.84,0-1.26,0
			c-0.36,0-0.72,0-1.08,0c-0.42,0-0.84,0-1.26,0c-0.36,0-0.721,0-1.08,0c0-0.12,0-0.24,0-0.36c0-0.18,0-0.36,0-0.54s0-0.36,0-0.54
			s0-0.36,0-0.54C66.13,72.79,66.13,72.07,66.13,71.35z"/>
		<path fill="#311531" d="M66.13,18.97c0,1.62,0,3.24,0,4.86c-1.561,0-3.12,0-4.681,0c0-1.56,0-3.12,0-4.68c0-1.62,0-3.24,0-4.86
			c1.561,0,3.12,0,4.681,0c0,0.36,0,0.72,0,1.08c0,0.18,0,0.36,0,0.54c0,0.24,0,0.48,0,0.72c0,0.18,0,0.36,0,0.54s0,0.36,0,0.54
			c0,0.18,0,0.36,0,0.54C66.13,18.49,66.13,18.73,66.13,18.97z"/>
		<path fill="#311531" d="M61.45,47.23c0-0.18,0-0.36,0-0.54c0-0.12,0-0.24,0-0.36c0-0.18,0-0.36,0-0.54c0-0.12,0-0.24,0-0.36
			c0-0.18,0-0.36,0-0.54c0-0.12,0-0.24,0-0.36c0-0.18,0-0.36,0-0.54c0-0.12,0-0.24,0-0.36c0-0.18,0-0.36,0-0.54s0-0.36,0-0.54
			c0.061,0,0.12,0,0.181,0c0.06,0,0.12,0,0.18,0c0.12,0,0.24,0,0.36,0c0.18,0,0.359,0,0.54,0c0.18,0,0.359,0,0.54,0
			c0.18,0,0.359,0,0.54,0c0.18,0,0.359,0,0.54,0c0.18,0,0.359,0,0.54,0c0.42,0,0.84,0,1.26,0c0.18,0,0.359,0,0.54,0
			c0.18,0,0.359,0,0.54,0c0.18,0,0.359,0,0.54,0c0.239,0,0.479,0,0.72,0c0.18,0,0.36,0,0.54,0s0.36,0,0.54,0c0.42,0,0.84,0,1.26,0
			c0,0.24,0,0.48,0,0.72c0,0.18,0,0.36,0,0.54c0,0.36,0,0.72,0,1.08c0,0.42,0,0.84,0,1.26c0,0.36,0,0.72,0,1.08
			c-0.78,0-1.56,0-2.34,0c-0.36,0-0.72,0-1.08,0c-0.18,0-0.36,0-0.54,0c-0.24,0-0.479,0-0.72,0c0,0.18,0,0.36,0,0.54
			c0,1.38,0,2.76,0,4.14c0,1.38,0,2.76,0,4.14c0,0.03,0,0.23,0,0.54c0,1.37,0,4.85,0,5h4.68c0,1.51,0,3.03,0,4.54
			c-1.439,0-2.88,0-4.32,0c-1.5,0-3,0-4.5,0c-0.18,0-0.359,0-0.54,0c0-1.56,0-3.12,0-4.68c-1.619,0-3.239,0-4.859,0
			c0-0.12,0-0.24,0-0.36c0-2.28,0-4.56,0-6.84c0-2.34,0-4.68,0-7.02c0.24,0,0.479,0,0.72,0c0.18,0,0.36,0,0.54,0
			c0.42,0,0.84,0,1.26,0C59.89,47.23,60.67,47.23,61.45,47.23z"/>
		<path fill="#311531" d="M61.45,80.71c0-0.18,0-0.36,0-0.54c0.061,0,0.12,0,0.181,0c0.06,0,0.12,0,0.18,0c0.12,0,0.24,0,0.36,0
			c0.18,0,0.359,0,0.54,0c0.359,0,0.72,0,1.08,0c0.18,0,0.359,0,0.54,0c0.18,0,0.359,0,0.54,0c0.42,0,0.84,0,1.26,0
			c0,0.18,0,0.36,0,0.54s0,0.36,0,0.54s0,0.36,0,0.54c0,0.24,0,0.479,0,0.72c0,0.18,0,0.36,0,0.54s0,0.36,0,0.54
			c0,0.42,0,0.84,0,1.26c-0.181,0-0.36,0-0.54,0c-0.181,0-0.36,0-0.54,0s-0.36,0-0.54,0c-0.24,0-0.48,0-0.72,0
			c-0.181,0-0.36,0-0.54,0c-0.181,0-0.36,0-0.54,0c-0.42,0-0.84,0-1.261,0c0-0.18,0-0.359,0-0.54c0-0.12,0-0.239,0-0.359
			c0-0.181,0-0.36,0-0.54c0-0.12,0-0.24,0-0.36c0-0.18,0-0.36,0-0.54c0-0.12,0-0.24,0-0.36c0-0.18,0-0.359,0-0.539
			c0-0.12,0-0.24,0-0.36C61.45,81.07,61.45,80.89,61.45,80.71z"/>
		<path fill="#311531" d="M61.45,122.47c0,1.561,0,3.12,0,4.68c0,1.561,0,3.12,0,4.681c-1.619,0-3.239,0-4.859,0
			c0-2.94,0-5.88,0-8.82c0-0.18,0-0.36,0-0.54c0.06,0,0.12,0,0.18,0c0.36,0,0.72,0,1.08,0c0.42,0,0.84,0,1.26,0
			C59.89,122.47,60.67,122.47,61.45,122.47z"/>
		<path fill="#311531" d="M61.45,13.03c0,0.42,0,0.84,0,1.26c-1.619,0-3.239,0-4.859,0c0-0.78,0-1.56,0-2.34c0-0.78,0-1.56,0-2.34
			c0-0.36,0-0.72,0-1.08c0-0.42,0-0.84,0-1.26c0-0.78,0-1.56,0-2.34c0.78,0,1.56,0,2.34,0c0.84,0,1.68,0,2.52,0
			c0,0.18,0,0.36,0,0.54c0,1.44,0,2.88,0,4.32c0,0.18,0,0.36,0,0.54c0,0.18,0,0.36,0,0.54c0,0.36,0,0.72,0,1.08
			C61.45,12.31,61.45,12.67,61.45,13.03z"/>
		<path fill="#BA6A5B" d="M44.89,117.79c0.24,0,0.48,0,0.72,0c0.181,0,0.36,0,0.54,0c0.181,0,0.36,0,0.54,0c0.181,0,0.36,0,0.54,0
			c1.561,0,3.12,0,4.68,0c0-1.561,0-3.12,0-4.68c1.561,0,3.12,0,4.681,0c0-0.181,0-0.36,0-0.54c0-0.601,0-1.2,0-1.801
			c0-0.3,0-0.6,0-0.899c0-0.12,0-0.24,0-0.36c0-0.18,0-0.36,0-0.54s0-0.359,0-0.54c0.06,0,0.12,0,0.18,0c0.061,0,0.12,0,0.18,0
			c0.12,0,0.24,0,0.36,0c0.18,0,0.36,0,0.54,0c0.42,0,0.84,0,1.26,0c0.78,0,1.561,0,2.34,0c0,0.24,0,0.48,0,0.72
			c0,0.12,0,0.24,0,0.36c0,0.3,0,0.601,0,0.9c0,0.6,0,1.2,0,1.8c0,1.14,0,2.28,0,3.42c0,2.28,0,4.56,0,6.84c-0.779,0-1.56,0-2.34,0
			c-0.42,0-0.84,0-1.26,0c-0.36,0-0.72,0-1.08,0c-0.06,0-0.12,0-0.18,0c0,0.18,0,0.36,0,0.54c0,2.94,0,5.88,0,8.82
			c-2.34,0-4.681,0-7.021,0c-1.14,0-2.279,0-3.42,0c-0.12,0-0.24,0-0.359,0c-0.181,0-0.36,0-0.54,0c-0.12,0-0.24,0-0.36,0
			c-0.18,0-0.36,0-0.54,0c-0.12,0-0.24,0-0.36,0c-0.18,0-0.359,0-0.54,0c-0.119,0-0.239,0-0.359,0c-0.181,0-0.36,0-0.54,0
			c0-0.181,0-0.36,0-0.54c0-0.12,0-0.24,0-0.36c0-0.18,0-0.359,0-0.54c0-0.12,0-0.24,0-0.359c0-0.181,0-0.36,0-0.54
			c0-0.12,0-0.24,0-0.36c0-0.18,0-0.36,0-0.54c0-0.12,0-0.24,0-0.36c0-1.14,0-2.279,0-3.42c0-0.18,0-0.359,0-0.54
			c0-0.12,0-0.239,0-0.359c0-0.181,0-0.36,0-0.54c0-0.12,0-0.24,0-0.36c0-0.18,0-0.36,0-0.54c0-0.12,0-0.24,0-0.359
			c0-0.181,0-0.36,0-0.54c0-0.12,0-0.24,0-0.36c0-1.14,0-2.28,0-3.42c0.42,0,0.84,0,1.26,0c0.18,0,0.36,0,0.54,0
			S44.71,117.79,44.89,117.79z"/>
		<path fill="#311531" d="M56.59,4.93c-1.561,0-3.12,0-4.681,0c-1.56,0-3.119,0-4.68,0c0-0.36,0-0.72,0-1.08c0-0.42,0-0.84,0-1.26
			c0-0.36,0-0.72,0-1.08c0-0.18,0-0.36,0-0.54c0-0.24,0-0.48,0-0.72c0.061,0,0.12,0,0.18,0c3.061,0,6.12,0,9.181,0
			c0,0.24,0,0.48,0,0.72c0,0.18,0,0.36,0,0.54c0,0.36,0,0.72,0,1.08c0,0.42,0,0.84,0,1.26C56.59,4.21,56.59,4.57,56.59,4.93z"/>
		<path fill="#311531" d="M51.91,47.23c0,0.12,0,0.24,0,0.36c0,2.28,0,4.56,0,6.84c0,2.34,0,4.68,0,7.021c-1.56,0-3.119,0-4.68,0
			c0-0.89,0-2.89,0-4.86c0-1.98,0-3.92,0-4.68c0-1.56,0-3.12,0-4.68C48.791,47.23,50.35,47.23,51.91,47.23z"/>
		<path fill="#D97761" d="M41.291,75.49c0.6,0,1.199,0,1.8,0c0.12,0,0.24,0,0.359,0c0.181,0,0.36,0,0.54,0c0.12,0,0.24,0,0.36,0
			c0.18,0,0.36,0,0.54,0c0.24,0,0.48,0,0.72,0c0.12,0,0.24,0,0.36,0c0.18,0,0.36,0,0.54,0c0.3,0,0.6,0,0.899,0
			c0.301,0,0.601,0,0.9,0c1.2,0,2.4,0,3.6,0c0,0.779,0,1.56,0,2.34s0,1.56,0,2.34c-0.42,0-0.84,0-1.26,0c-0.18,0-0.359,0-0.54,0
			c-0.18,0-0.359,0-0.54,0c-0.239,0-0.479,0-0.72,0c-0.18,0-0.36,0-0.54,0s-0.36,0-0.54,0s-0.36,0-0.54,0c-0.24,0-0.479,0-0.72,0
			c-0.18,0-0.36,0-0.54,0s-0.36,0-0.54,0s-0.36,0-0.54,0c-0.24,0-0.48,0-0.72,0c-0.181,0-0.36,0-0.54,0c-0.181,0-0.36,0-0.54,0
			c-0.181,0-0.36,0-0.54,0s-0.36,0-0.54,0s-0.36,0-0.54,0s-0.36,0-0.54,0c-0.24,0-0.48,0-0.72,0c-0.18,0-0.36,0-0.54,0
			c-0.18,0-0.36,0-0.54,0c-0.42,0-0.84,0-1.26,0c0-0.36,0-0.72,0-1.08c0-0.42,0-0.84,0-1.26c0-0.36,0-0.72,0-1.08
			c0-0.42,0-0.84,0-1.26C39.01,75.49,40.15,75.49,41.291,75.49z"/>
		<path fill="#FDFEFF" d="M47.23,61.45c0,0.05,0,0.1,0,0.14h-9.36c0-0.8,0-2.92,0-5h9.36C47.23,58.56,47.23,60.56,47.23,61.45z"/>
		<path fill="#311531" d="M29.77,47.23c0.36,0,0.72,0,1.08,0c0.78,0,1.56,0,2.34,0c0-0.36,0-0.72,0-1.08c0-0.18,0-0.36,0-0.54
			c0-0.24,0-0.48,0-0.72c0-0.18,0-0.36,0-0.54c0-0.18,0-0.36,0-0.54c0-0.42,0-0.84,0-1.26c1.14,0,2.28,0,3.42,0
			c0.12,0,0.24,0,0.36,0c0.18,0,0.36,0,0.54,0c0.12,0,0.24,0,0.36,0c0.18,0,0.36,0,0.54,0c0.12,0,0.24,0,0.36,0
			c0.18,0,0.36,0,0.54,0c0.12,0,0.24,0,0.36,0c0.18,0,0.36,0,0.54,0c1.14,0,2.28,0,3.42,0c0.12,0,0.24,0,0.359,0
			c0.181,0,0.36,0,0.54,0c0.12,0,0.24,0,0.36,0c0.18,0,0.36,0,0.54,0c0.12,0,0.24,0,0.36,0c0.18,0,0.359,0,0.54,0
			c0.119,0,0.239,0,0.359,0c0.181,0,0.36,0,0.54,0c0,0.24,0,0.48,0,0.72c0,0.18,0,0.36,0,0.54c0,0.36,0,0.72,0,1.08
			c0,0.18,0,0.36,0,0.54c0,0.18,0,0.36,0,0.54c0,0.42,0,0.84,0,1.26c-0.3,0-0.6,0-0.899,0c-0.181,0-0.36,0-0.54,0
			c-0.181,0-0.36,0-0.54,0c-0.181,0-0.36,0-0.54,0c-0.42,0-0.84,0-1.261,0c-0.18,0-0.359,0-0.54,0c-0.18,0-0.359,0-0.539,0
			c-1.5,0-3,0-4.5,0c0,1.56,0,3.12,0,4.68c0,0.76,0,2.7,0,4.68c0,2.08,0,4.2,0,5h9.36c0,1.51,0,3.03,0,4.54c-1.14,0-2.28,0-3.42,0
			c-0.12,0-0.24,0-0.36,0c-0.18,0-0.359,0-0.54,0c-0.119,0-0.239,0-0.359,0c-0.18,0-0.36,0-0.54,0c-0.12,0-0.24,0-0.36,0
			c-0.18,0-0.359,0-0.54,0c-0.12,0-0.24,0-0.36,0c-0.18,0-0.36,0-0.54,0c-2.34,0-4.68,0-7.02,0c0-1.56,0-3.12,0-4.68
			c-0.36,0-0.72,0-1.08,0c-0.42,0-0.84,0-1.26,0c-0.36,0-0.72,0-1.08,0c-0.42,0-0.84,0-1.26,0c0-2.34,0-4.68,0-7.021
			c0-2.4,0-4.8,0-7.2c0.24,0,0.48,0,0.72,0C29.41,47.23,29.59,47.23,29.77,47.23z"/>
		<path fill="#FDFEFF" d="M42.371,47.23c0.18,0,0.359,0,0.539,0c0.181,0,0.36,0,0.54,0c0.421,0,0.841,0,1.261,0
			c0.18,0,0.359,0,0.54,0c0.18,0,0.359,0,0.54,0c0.18,0,0.359,0,0.54,0c0.3,0,0.6,0,0.899,0c0,1.56,0,3.12,0,4.68
			c0,0.76,0,2.7,0,4.68h-9.36c0-1.98,0-3.92,0-4.68c0-1.56,0-3.12,0-4.68C39.37,47.23,40.87,47.23,42.371,47.23z"/>
		<path fill="#311531" d="M42.55,5.47c0-0.18,0-0.36,0-0.54c0.24,0,0.479,0,0.72,0c0.18,0,0.36,0,0.54,0c0.36,0,0.72,0,1.08,0
			c0.18,0,0.36,0,0.54,0s0.36,0,0.54,0c0.42,0,0.84,0,1.26,0c0,0.06,0,0.12,0,0.18c0,0.24,0,0.48,0,0.72c0,0.18,0,0.36,0,0.54
			c0,0.36,0,0.72,0,1.08c0,0.72,0,1.44,0,2.16c-0.42,0-0.84,0-1.26,0c-0.18,0-0.36,0-0.54,0s-0.36,0-0.54,0c-0.24,0-0.48,0-0.72,0
			c-0.181,0-0.36,0-0.54,0c-0.181,0-0.36,0-0.54,0c-0.181,0-0.36,0-0.54,0c0-0.12,0-0.24,0-0.36c0-0.18,0-0.36,0-0.54
			c0-0.36,0-0.72,0-1.08C42.55,6.91,42.55,6.19,42.55,5.47z"/>
		<path fill="#D97761" d="M42.19,113.11c0.12,0,0.24,0,0.36,0c0.18,0,0.359,0,0.54,0c0.12,0,0.24,0,0.359,0c0.181,0,0.36,0,0.54,0
			c0.12,0,0.24,0,0.36,0c0.18,0,0.36,0,0.54,0c2.34,0,4.68,0,7.02,0c0,1.56,0,3.119,0,4.68c-1.56,0-3.119,0-4.68,0
			c-0.18,0-0.359,0-0.54,0c-0.18,0-0.359,0-0.54,0c-0.18,0-0.359,0-0.54,0c-0.239,0-0.479,0-0.72,0c-0.18,0-0.36,0-0.54,0
			s-0.36,0-0.54,0c-0.42,0-0.84,0-1.26,0c-0.78,0-1.561,0-2.34,0s-1.56,0-2.34,0c0-1.561,0-3.12,0-4.68c1.14,0,2.28,0,3.42,0
			c0.119,0,0.239,0,0.359,0C41.831,113.11,42.01,113.11,42.19,113.11z"/>
		<path fill="#BA6A5B" d="M44.89,9.61c0.18,0,0.36,0,0.54,0s0.36,0,0.54,0c0.42,0,0.84,0,1.26,0c0-0.72,0-1.44,0-2.16
			c0-0.36,0-0.72,0-1.08c0-0.18,0-0.36,0-0.54c0-0.24,0-0.48,0-0.72c0-0.06,0-0.12,0-0.18c1.561,0,3.12,0,4.68,0
			c1.561,0,3.12,0,4.681,0c0,0.78,0,1.56,0,2.34c0,0.42,0,0.84,0,1.26c0,0.36,0,0.72,0,1.08c0,0.78,0,1.56,0,2.34
			c0,0.78,0,1.56,0,2.34c1.62,0,3.24,0,4.859,0c0,1.62,0,3.24,0,4.86c0,1.56,0,3.12,0,4.68c1.561,0,3.12,0,4.681,0
			c0,1.56,0,3.12,0,4.68c0,0.24,0,0.48,0,0.72c0,0.18,0,0.36,0,0.54c0,0.18,0,0.36,0,0.54c0,0.18,0,0.36,0,0.54
			c0,0.24,0,0.48,0,0.72c0,0.18,0,0.36,0,0.54c0,0.36,0,0.72,0,1.08c0.42,0,0.84,0,1.26,0c0.18,0,0.36,0,0.54,0s0.36,0,0.54,0
			c0.24,0,0.479,0,0.72,0c0.181,0,0.36,0,0.54,0c0.36,0,0.72,0,1.08,0c0,0.24,0,0.48,0,0.72c0,0.18,0,0.36,0,0.54
			c0,0.36,0,0.72,0,1.08c0,0.42,0,0.84,0,1.26c0,0.36,0,0.72,0,1.08c0,0.42,0,0.84,0,1.26c0,0.36,0,0.72,0,1.08
			c0,0.42,0,0.84,0,1.26c0,0.36,0,0.72,0,1.08c-0.42,0-0.84,0-1.26,0c-0.18,0-0.36,0-0.54,0s-0.36,0-0.54,0c-0.24,0-0.48,0-0.72,0
			c-0.181,0-0.36,0-0.54,0c-0.181,0-0.36,0-0.54,0c-0.181,0-0.36,0-0.54,0c0-0.42,0-0.84,0-1.26c0-0.18,0-0.36,0-0.54
			c0-0.18,0-0.36,0-0.54c0-0.24,0-0.48,0-0.72c0-0.18,0-0.36,0-0.54c0-0.18,0-0.36,0-0.54c0-0.18,0-0.36,0-0.54
			c-1.561,0-3.12,0-4.681,0c0-0.78,0-1.56,0-2.34c0-0.78,0-1.56,0-2.34c0-0.78,0-1.56,0-2.34c0-0.78,0-1.56,0-2.34
			c-0.84,0-1.68,0-2.52,0c-0.78,0-1.56,0-2.34,0c0-0.78,0-1.56,0-2.34c0-0.36,0-0.72,0-1.08c0-0.18,0-0.36,0-0.54
			c0-0.24,0-0.48,0-0.72c-0.181,0-0.36,0-0.54,0c-1.38,0-2.76,0-4.141,0c-1.38,0-2.76,0-4.14,0c-0.18,0-0.36,0-0.54,0
			c0-0.84,0-1.68,0-2.52c0-0.78,0-1.56,0-2.34c-0.42,0-0.84,0-1.26,0c-0.18,0-0.36,0-0.54,0s-0.36,0-0.54,0c-0.24,0-0.48,0-0.72,0
			c-0.181,0-0.36,0-0.54,0c-0.181,0-0.36,0-0.54,0c-0.181,0-0.36,0-0.54,0c0-0.42,0-0.84,0-1.26c0-0.18,0-0.36,0-0.54s0-0.36,0-0.54
			c0-0.24,0-0.48,0-0.72c0-0.18,0-0.36,0-0.54c0-0.18,0-0.36,0-0.54c0-0.18,0-0.36,0-0.54c0-0.24,0-0.48,0-0.72
			c0-0.18,0-0.36,0-0.54c0-0.18,0-0.36,0-0.54c0-0.18,0-0.36,0-0.54c0-0.24,0-0.48,0-0.72c0-0.18,0-0.36,0-0.54s0-0.36,0-0.54
			s0-0.36,0-0.54c0.18,0,0.359,0,0.54,0c0.18,0,0.359,0,0.54,0c0.18,0,0.359,0,0.54,0C44.41,9.61,44.65,9.61,44.89,9.61z"/>
		<path fill="#FDFEFF" d="M35.53,94.21c0.78,0,1.56,0,2.34,0c0-0.18,0-0.36,0-0.54c0-0.3,0-0.6,0-0.9c0-0.359,0-0.72,0-1.08
			c0-0.18,0-0.359,0-0.54c0-0.18,0-0.359,0-0.539c0-0.36,0-0.721,0-1.08c0-0.12,0-0.24,0-0.36c0-0.18,0-0.36,0-0.54
			c0-0.36,0-0.72,0-1.08c0-0.18,0-0.36,0-0.54s0-0.36,0-0.54c0-0.359,0-0.72,0-1.08c0-0.18,0-0.359,0-0.54c0.06,0,0.12,0,0.18,0
			s0.12,0,0.18,0c0.12,0,0.24,0,0.36,0c0.18,0,0.36,0,0.54,0c0.18,0,0.36,0,0.54,0c0.18,0,0.36,0,0.54,0c0.18,0,0.36,0,0.54,0
			c0.18,0,0.36,0,0.541,0c0.42,0,0.84,0,1.26,0c0-0.18,0-0.359,0-0.54c0-0.18,0-0.359,0-0.54c0-0.18,0-0.359,0-0.54
			c0-0.239,0-0.479,0-0.72c0-0.18,0-0.36,0-0.54s0-0.359,0-0.54c0-0.42,0-0.84,0-1.26c0.18,0,0.359,0,0.54,0c0.18,0,0.359,0,0.54,0
			c0.18,0,0.359,0,0.54,0c0.239,0,0.479,0,0.72,0c0.18,0,0.36,0,0.54,0s0.36,0,0.54,0s0.36,0,0.54,0c0.24,0,0.479,0,0.72,0
			c0.18,0,0.36,0,0.54,0s0.36,0,0.54,0s0.36,0,0.54,0c0.24,0,0.48,0,0.72,0c0.181,0,0.36,0,0.54,0c0.181,0,0.36,0,0.54,0
			c0.42,0,0.84,0,1.26,0c0.181,0,0.36,0,0.54,0c0.181,0,0.36,0,0.54,0c0.181,0,0.36,0,0.54,0c0.24,0,0.48,0,0.721,0
			c0.18,0,0.359,0,0.54,0c0.18,0,0.359,0,0.54,0c0.42,0,0.84,0,1.26,0c0,1.56,0,3.12,0,4.68c0,0.181,0,0.36,0,0.54
			c0,0.181,0,0.36,0,0.54c0,0.42,0,0.84,0,1.26c0,0.181,0,0.36,0,0.54c0,0.181,0,0.36,0,0.54c0,0.181,0,0.36,0,0.54
			c0,0.24,0,0.48,0,0.721c0.18,0,0.359,0,0.54,0c1.439,0,2.88,0,4.319,0c0,0.18,0,0.359,0,0.54c0,1.5,0,3,0,4.5
			c0,0.779,0,1.56,0,2.34c0,0.779,0,1.56,0,2.34c0,3.06,0,6.12,0,9.18c-0.779,0-1.56,0-2.34,0c-0.42,0-0.84,0-1.26,0
			c-0.18,0-0.36,0-0.54,0c-0.12,0-0.24,0-0.36,0c-0.06,0-0.119,0-0.18,0c-0.06,0-0.12,0-0.18,0c0,0.181,0,0.36,0,0.54s0,0.36,0,0.54
			c0,0.12,0,0.24,0,0.36c0,0.3,0,0.6,0,0.899c0,0.601,0,1.2,0,1.801c0,0.18,0,0.359,0,0.54c-1.561,0-3.12,0-4.681,0
			c-2.34,0-4.68,0-7.02,0c-0.18,0-0.36,0-0.54,0c-0.12,0-0.24,0-0.36,0c-0.18,0-0.359,0-0.54,0c-0.119,0-0.239,0-0.359,0
			c-0.181,0-0.36,0-0.54,0c-0.12,0-0.24,0-0.36,0c-0.18,0-0.359,0-0.54,0c-0.12,0-0.24,0-0.359,0c-1.141,0-2.28,0-3.42,0
			c0-1.561,0-3.12,0-4.681c-0.78,0-1.56,0-2.34,0c-0.78,0-1.56,0-2.34,0c0-1.56,0-3.12,0-4.68c0-3.18,0-6.36,0-9.54
			C33.97,94.21,34.75,94.21,35.53,94.21z"/>
		<path fill="#E0B49C" d="M18.97,117.79c1.62,0,3.24,0,4.86,0c0-0.18,0-0.36,0-0.54c0-0.601,0-1.2,0-1.8c0-0.601,0-1.2,0-1.801
			c0-0.18,0-0.359,0-0.539c0.06,0,0.12,0,0.18,0c0.72,0,1.44,0,2.16,0c0.36,0,0.72,0,1.08,0c0.18,0,0.36,0,0.54,0
			c0.24,0,0.48,0,0.72,0c0-3.12,0-6.24,0-9.36c0.78,0,1.56,0,2.34,0c0.78,0,1.56,0,2.34,0c0,1.56,0,3.12,0,4.68
			c0.78,0,1.56,0,2.34,0c0.78,0,1.56,0,2.34,0c0,1.561,0,3.12,0,4.681c0,1.56,0,3.119,0,4.68c-0.42,0-0.84,0-1.26,0
			c-0.18,0-0.36,0-0.54,0c-0.18,0-0.36,0-0.54,0c-0.36,0-0.72,0-1.08,0c-0.18,0-0.36,0-0.54,0c-0.12,0-0.24,0-0.36,0
			c-0.06,0-0.12,0-0.18,0s-0.12,0-0.18,0c0,0.18,0,0.359,0,0.54c0,2.939,0,5.88,0,8.819c-0.24,0-0.48,0-0.72,0
			c-0.18,0-0.36,0-0.54,0s-0.36,0-0.54,0s-0.36,0-0.54,0c-0.24,0-0.48,0-0.72,0c-0.18,0-0.36,0-0.54,0c-0.36,0-0.72,0-1.08,0
			c0,1.561,0,3.12,0,4.681c-1.14,0-2.28,0-3.42,0c-0.6,0-1.2,0-1.8,0c-0.12,0-0.24,0-0.36,0c-0.18,0-0.36,0-0.54,0
			c-0.12,0-0.24,0-0.36,0c-0.18,0-0.36,0-0.54,0c-0.6,0-1.2,0-1.8,0c-0.12,0-0.24,0-0.36,0c-0.18,0-0.36,0-0.54,0
			c-0.12,0-0.24,0-0.36,0c-0.18,0-0.36,0-0.54,0c-0.6,0-1.2,0-1.8,0c-0.12,0-0.24,0-0.36,0c-0.18,0-0.36,0-0.54,0
			c-0.12,0-0.24,0-0.36,0c-0.18,0-0.36,0-0.54,0c0-2.34,0-4.681,0-7.021s0-4.68,0-7.02c0.36,0,0.72,0,1.08,0c0.18,0,0.36,0,0.54,0
			c0.24,0,0.48,0,0.72,0C17.41,117.79,18.19,117.79,18.97,117.79z"/>
		<path fill="#D97761" d="M35.17,70.81c0.72,0,1.44,0,2.16,0c0.18,0,0.36,0,0.54,0c0,0.24,0,0.48,0,0.721c0,0.18,0,0.359,0,0.54
			c0,0.359,0,0.72,0,1.079c0,0.36,0,0.721,0,1.08c0,0.42,0,0.841,0,1.261c-0.36,0-0.72,0-1.08,0c-0.42,0-0.84,0-1.26,0
			c-0.36,0-0.72,0-1.08,0c-0.42,0-0.84,0-1.26,0c0-0.36,0-0.721,0-1.08c0-0.181,0-0.36,0-0.54c0-0.24,0-0.48,0-0.721
			c0-0.18,0-0.359,0-0.539c0-0.181,0-0.36,0-0.54c0-0.421,0-0.841,0-1.261c0.12,0,0.24,0,0.36,0c0.18,0,0.36,0,0.54,0
			C34.45,70.81,34.81,70.81,35.17,70.81z"/>
		<path fill="#311531" d="M35.53,14.29c0.18,0,0.36,0,0.54,0c0.18,0,0.36,0,0.54,0c0.42,0,0.84,0,1.26,0c0-0.18,0-0.36,0-0.54
			c0-0.6,0-1.2,0-1.8c0-0.12,0-0.24,0-0.36c0-0.18,0-0.36,0-0.54c0-0.12,0-0.24,0-0.36c0-0.18,0-0.36,0-0.54s0-0.36,0-0.54
			c0.24,0,0.48,0,0.72,0c0.18,0,0.36,0,0.54,0c0.36,0,0.72,0,1.08,0c0.78,0,1.56,0,2.34,0c0,0.18,0,0.36,0,0.54s0,0.36,0,0.54
			s0,0.36,0,0.54c0,0.24,0,0.48,0,0.72c0,0.18,0,0.36,0,0.54c0,0.18,0,0.36,0,0.54c0,0.18,0,0.36,0,0.54c0,0.24,0,0.48,0,0.72
			c0,0.18,0,0.36,0,0.54c0,0.18,0,0.36,0,0.54c0,0.18,0,0.36,0,0.54c0,0.24,0,0.48,0,0.72c0,0.18,0,0.36,0,0.54s0,0.36,0,0.54
			c0,0.42,0,0.84,0,1.26c-1.561,0-3.12,0-4.68,0c-0.78,0-1.56,0-2.34,0c-0.78,0-1.56,0-2.34,0c0-0.36,0-0.72,0-1.08
			c0-0.18,0-0.36,0-0.54c0-0.24,0-0.48,0-0.72c0-0.18,0-0.36,0-0.54s0-0.36,0-0.54c0-0.42,0-0.84,0-1.26c0.36,0,0.72,0,1.08,0
			c0.18,0,0.36,0,0.54,0C35.05,14.29,35.29,14.29,35.53,14.29z"/>
		<path fill="#311531" d="M36.61,117.79c0.42,0,0.84,0,1.26,0c0.78,0,1.56,0,2.34,0s1.56,0,2.34,0c0,1.14,0,2.28,0,3.42
			c0,0.12,0,0.24,0,0.36c0,0.18,0,0.359,0,0.54c0,0.119,0,0.239,0,0.359c0,0.18,0,0.36,0,0.54c0,0.12,0,0.24,0,0.36
			c0,0.18,0,0.359,0,0.54c0,0.12,0,0.239,0,0.359c0,0.181,0,0.36,0,0.54c0,1.141,0,2.28,0,3.42c0,0.12,0,0.24,0,0.36
			c0,0.18,0,0.36,0,0.54c0,0.12,0,0.24,0,0.36c0,0.18,0,0.359,0,0.54c0,0.119,0,0.239,0,0.359c0,0.181,0,0.36,0,0.54
			c0,0.12,0,0.24,0,0.36c0,0.18,0,0.359,0,0.54c-0.12,0-0.24,0-0.36,0c-0.18,0-0.359,0-0.54,0c-0.359,0-0.72,0-1.08,0
			c-0.72,0-1.44,0-2.16,0c-0.18,0-0.36,0-0.54,0c0-1.561,0-3.12,0-4.681c-0.36,0-0.72,0-1.08,0c-0.18,0-0.36,0-0.54,0
			c-0.24,0-0.48,0-0.72,0c-0.18,0-0.36,0-0.54,0c-0.18,0-0.36,0-0.54,0s-0.36,0-0.54,0c-0.24,0-0.48,0-0.72,0
			c0-2.939,0-5.88,0-8.819c0-0.181,0-0.36,0-0.54c0.06,0,0.12,0,0.18,0s0.12,0,0.18,0c0.12,0,0.24,0,0.36,0c0.18,0,0.36,0,0.54,0
			c0.36,0,0.72,0,1.08,0c0.18,0,0.36,0,0.54,0C36.25,117.79,36.43,117.79,36.61,117.79z"/>
		<path fill="#D97761" d="M30.67,94.21c0.36,0,0.72,0,1.08,0c0.18,0,0.36,0,0.54,0c0.24,0,0.48,0,0.72,0c0.06,0,0.12,0,0.18,0
			c0,3.18,0,6.36,0,9.54c-0.78,0-1.56,0-2.34,0c-0.78,0-1.56,0-2.34,0c0-3.18,0-6.36,0-9.54C29.23,94.21,29.95,94.21,30.67,94.21z"
			/>
		<path fill="#311531" d="M30.13,127.149c0.24,0,0.48,0,0.72,0c0.18,0,0.36,0,0.54,0s0.36,0,0.54,0s0.36,0,0.54,0
			c0.24,0,0.48,0,0.72,0c0,0.12,0,0.24,0,0.36c0,0.18,0,0.36,0,0.54s0,0.36,0,0.54s0,0.36,0,0.54c0,0.72,0,1.44,0,2.16
			c0,0.18,0,0.359,0,0.54c-0.06,0-0.12,0-0.18,0s-0.12,0-0.18,0c-0.12,0-0.24,0-0.36,0c-0.18,0-0.36,0-0.54,0c-0.36,0-0.72,0-1.08,0
			s-0.72,0-1.08,0c-0.42,0-0.84,0-1.26,0c0-1.561,0-3.12,0-4.681c0.36,0,0.72,0,1.08,0C29.77,127.149,29.95,127.149,30.13,127.149z"
			/>
		<path fill="#311531" d="M28.51,9.61c0.78,0,1.56,0,2.34,0c0.78,0,1.56,0,2.34,0c0,0.18,0,0.36,0,0.54c0,0.12,0,0.24,0,0.36
			c0,0.18,0,0.36,0,0.54c0,0.18,0,0.36,0,0.54s0,0.36,0,0.54c0,0.72,0,1.44,0,2.16c-0.36,0-0.72,0-1.08,0c-0.18,0-0.36,0-0.54,0
			c-0.24,0-0.48,0-0.72,0c-0.18,0-0.36,0-0.54,0c-0.18,0-0.36,0-0.54,0c-0.42,0-0.84,0-1.26,0c0-0.78,0-1.56,0-2.34
			C28.51,11.17,28.51,10.39,28.51,9.61z"/>
		<path fill="#D97761" d="M29.77,18.97c0.36,0,0.72,0,1.08,0c0.78,0,1.56,0,2.34,0c0.78,0,1.56,0,2.34,0c0.78,0,1.56,0,2.34,0
			c1.56,0,3.12,0,4.68,0c0.18,0,0.359,0,0.54,0c0.18,0,0.359,0,0.54,0c0.18,0,0.359,0,0.54,0c0.239,0,0.479,0,0.72,0
			c0.18,0,0.36,0,0.54,0s0.36,0,0.54,0c0.42,0,0.84,0,1.26,0c0,0.78,0,1.56,0,2.34c0,0.84,0,1.68,0,2.52c0.18,0,0.36,0,0.54,0
			c1.38,0,2.76,0,4.14,0c1.381,0,2.761,0,4.141,0c0.18,0,0.359,0,0.54,0c0,0.24,0,0.48,0,0.72c0,0.18,0,0.36,0,0.54
			c0,0.36,0,0.72,0,1.08c0,0.78,0,1.56,0,2.34c0.78,0,1.56,0,2.34,0c0.84,0,1.68,0,2.52,0c0,0.78,0,1.56,0,2.34
			c0,0.78,0,1.56,0,2.34c-0.18,0-0.359,0-0.54,0c-0.119,0-0.239,0-0.359,0c-0.18,0-0.36,0-0.54,0c-0.12,0-0.24,0-0.36,0
			c-0.6,0-1.2,0-1.8,0c-1.2,0-2.4,0-3.6,0c-2.341,0-4.681,0-7.021,0c0-0.36,0-0.72,0-1.08c0-0.42,0-0.84,0-1.26
			c0-0.36,0-0.72,0-1.08c0-0.42,0-0.84,0-1.26c-0.18,0-0.359,0-0.54,0c-0.12,0-0.24,0-0.359,0c-0.181,0-0.36,0-0.54,0
			c-0.12,0-0.24,0-0.36,0c-0.18,0-0.36,0-0.54,0c-0.12,0-0.24,0-0.36,0c-0.18,0-0.359,0-0.54,0c-0.119,0-0.239,0-0.359,0
			c-0.181,0-0.36,0-0.54,0c-0.181,0-0.36,0-0.54,0c0-0.06,0-0.12,0-0.18c0-0.06,0-0.12,0-0.18c0-0.12,0-0.24,0-0.36
			c0-0.18,0-0.36,0-0.54c0-0.18,0-0.36,0-0.54c0-0.18,0-0.36,0-0.54s0-0.36,0-0.54s0-0.36,0-0.54c0-0.42,0-0.84,0-1.26
			c-2.34,0-4.68,0-7.02,0c-2.34,0-4.68,0-7.02,0c0-0.18,0-0.36,0-0.54c0-0.18,0-0.36,0-0.54c0-0.36,0-0.72,0-1.08
			c0-0.72,0-1.44,0-2.16c0-0.18,0-0.36,0-0.54c0.24,0,0.48,0,0.72,0C29.41,18.97,29.59,18.97,29.77,18.97z"/>
		<path fill="#BA6A5B" d="M29.95,84.85c0.36,0,0.72,0,1.08,0c0.72,0,1.44,0,2.16,0c0,0.181,0,0.36,0,0.54c0,1.44,0,2.88,0,4.32
			c0,0.72,0,1.439,0,2.16c0,0.18,0,0.359,0,0.54c0,0.18,0,0.359,0,0.54c0,0.42,0,0.84,0,1.26c-0.06,0-0.12,0-0.18,0
			c-0.24,0-0.48,0-0.72,0c-0.18,0-0.36,0-0.54,0c-0.36,0-0.72,0-1.08,0c-0.72,0-1.44,0-2.16,0c0-0.36,0-0.72,0-1.08
			c0-0.42,0-0.84,0-1.26c0-0.181,0-0.36,0-0.54c0-0.181,0-0.36,0-0.54c0-0.42,0-0.84,0-1.26c0-0.181,0-0.36,0-0.54
			c0-0.181,0-0.36,0-0.54c0-0.42,0-0.84,0-1.261c0-0.359,0-0.72,0-1.079c0-0.181,0-0.36,0-0.54c0-0.24,0-0.48,0-0.721
			c0.18,0,0.36,0,0.54,0c0.12,0,0.24,0,0.36,0C29.59,84.85,29.77,84.85,29.95,84.85z"/>
		<path fill="#D97761" d="M21.31,108.43c0.84,0,1.68,0,2.52,0c0-1.56,0-3.12,0-4.68c0.78,0,1.56,0,2.34,0c0.78,0,1.56,0,2.34,0
			c0,3.12,0,6.24,0,9.36c-0.24,0-0.48,0-0.72,0c-0.18,0-0.36,0-0.54,0c-0.36,0-0.72,0-1.08,0c-0.72,0-1.44,0-2.16,0
			c-0.06,0-0.12,0-0.18,0c0,0.18,0,0.359,0,0.539c0,0.601,0,1.2,0,1.801c0,0.6,0,1.199,0,1.8c0,0.18,0,0.36,0,0.54
			c-1.62,0-3.24,0-4.86,0c-0.78,0-1.56,0-2.34,0c-0.24,0-0.48,0-0.72,0c-0.18,0-0.36,0-0.54,0c-0.36,0-0.72,0-1.08,0
			c0-1.561,0-3.12,0-4.68c0.24,0,0.48,0,0.72,0c0.18,0,0.36,0,0.54,0c0.36,0,0.72,0,1.08,0c0.42,0,0.84,0,1.26,0
			c0.36,0,0.72,0,1.08,0c0-1.561,0-3.12,0-4.681C19.75,108.43,20.53,108.43,21.31,108.43z"/>
		<path fill="#311531" d="M23.83,4.93c0.78,0,1.56,0,2.34,0c0.78,0,1.56,0,2.34,0c0,0.18,0,0.36,0,0.54c0,0.12,0,0.24,0,0.36
			c0,0.18,0,0.36,0,0.54c0,0.36,0,0.72,0,1.08c0,0.72,0,1.44,0,2.16c-0.36,0-0.72,0-1.08,0c-0.18,0-0.36,0-0.54,0
			c-0.24,0-0.48,0-0.72,0c-0.78,0-1.56,0-2.34,0c0-0.36,0-0.72,0-1.08c0-0.42,0-0.84,0-1.26C23.83,6.49,23.83,5.71,23.83,4.93z"/>
		<path fill="#BA6A5B" d="M28.51,94.21c0,3.18,0,6.36,0,9.54c-0.78,0-1.56,0-2.34,0c-0.78,0-1.56,0-2.34,0c0-1.5,0-3,0-4.5
			s0-3,0-4.5c0-0.18,0-0.36,0-0.54c0.24,0,0.48,0,0.72,0c0.18,0,0.36,0,0.54,0c0.36,0,0.72,0,1.08,0
			C26.95,94.21,27.73,94.21,28.51,94.21z"/>
		<path fill="#FDFEFF" d="M23.83,43.09c0-0.18,0-0.36,0-0.54c0.06,0,0.12,0,0.18,0s0.12,0,0.18,0c0.12,0,0.24,0,0.36,0
			c0.18,0,0.36,0,0.54,0c0.18,0,0.36,0,0.54,0c0.18,0,0.36,0,0.54,0c0.18,0,0.36,0,0.54,0c0.18,0,0.36,0,0.54,0
			c0.42,0,0.84,0,1.26,0c0-0.36,0-0.72,0-1.08c0-0.42,0-0.84,0-1.26c0-0.36,0-0.72,0-1.08c0-0.18,0-0.36,0-0.54
			c0-0.24,0-0.48,0-0.72c0.78,0,1.56,0,2.34,0c0.78,0,1.56,0,2.34,0c0-0.36,0-0.72,0-1.08c0-0.18,0-0.36,0-0.54
			c0-0.24,0-0.48,0-0.72c0-0.18,0-0.36,0-0.54c0-0.18,0-0.36,0-0.54c0-0.42,0-0.84,0-1.26c1.14,0,2.28,0,3.42,0c0.6,0,1.2,0,1.8,0
			c0.12,0,0.24,0,0.36,0c0.18,0,0.36,0,0.54,0c0.12,0,0.24,0,0.36,0c0.18,0,0.36,0,0.54,0c1.14,0,2.28,0,3.42,0c0.6,0,1.2,0,1.8,0
			c0.12,0,0.24,0,0.36,0c0.18,0,0.359,0,0.54,0c0.119,0,0.239,0,0.359,0c0.181,0,0.36,0,0.54,0c2.34,0,4.68,0,7.021,0
			c1.199,0,2.399,0,3.6,0c0.6,0,1.2,0,1.8,0c0.12,0,0.24,0,0.36,0c0.18,0,0.36,0,0.54,0c0.12,0,0.24,0,0.359,0
			c0.181,0,0.36,0,0.54,0c0,0.78,0,1.56,0,2.34c0,0.78,0,1.56,0,2.34c1.561,0,3.12,0,4.681,0c0,0.18,0,0.36,0,0.54
			c0,0.18,0,0.36,0,0.54c0,0.18,0,0.36,0,0.54c0,0.24,0,0.48,0,0.72c0,0.18,0,0.36,0,0.54c0,0.18,0,0.36,0,0.54
			c0,0.42,0,0.84,0,1.26c-0.42,0-0.84,0-1.26,0c-0.181,0-0.36,0-0.54,0c-0.181,0-0.36,0-0.54,0c-0.181,0-0.36,0-0.54,0
			c-0.181,0-0.36,0-0.54,0c-0.181,0-0.36,0-0.54,0c-0.12,0-0.24,0-0.36,0c-0.06,0-0.12,0-0.18,0c-0.061,0-0.12,0-0.181,0
			c0,0.18,0,0.36,0,0.54s0,0.36,0,0.54c0,0.12,0,0.24,0,0.36c0,0.18,0,0.36,0,0.54c0,0.12,0,0.24,0,0.36c0,0.18,0,0.36,0,0.54
			c0,0.12,0,0.24,0,0.36c0,0.18,0,0.36,0,0.54c0,0.12,0,0.24,0,0.36c0,0.18,0,0.36,0,0.54c-0.779,0-1.56,0-2.34,0
			c-0.42,0-0.84,0-1.26,0c-0.18,0-0.36,0-0.54,0c-0.24,0-0.479,0-0.72,0c0,2.34,0,4.68,0,7.02c0,2.28,0,4.56,0,6.84
			c0,0.12,0,0.24,0,0.36c1.62,0,3.24,0,4.859,0c0,1.56,0,3.12,0,4.68c0.181,0,0.36,0,0.54,0c1.5,0,3,0,4.5,0c1.44,0,2.881,0,4.32,0
			c0,0.78,0,1.56,0,2.34s0,1.561,0,2.34c-0.24,0-0.479,0-0.72,0c-0.181,0-0.36,0-0.54,0c-0.36,0-0.72,0-1.08,0s-0.72,0-1.08,0
			c-0.18,0-0.36,0-0.54,0c-0.24,0-0.479,0-0.72,0c0,0.181,0,0.36,0,0.54c0,0.721,0,1.44,0,2.16c0,0.18,0,0.36,0,0.54s0,0.36,0,0.54
			s0,0.36,0,0.54c0,0.12,0,0.24,0,0.36c-0.181,0-0.36,0-0.54,0c-0.12,0-0.24,0-0.36,0c-0.18,0-0.359,0-0.54,0
			c-0.12,0-0.24,0-0.359,0c-0.601,0-1.2,0-1.801,0c-1.199,0-2.399,0-3.6,0s-2.4,0-3.6,0c-0.181,0-0.36,0-0.54,0
			c-0.12,0-0.24,0-0.36,0c-0.3,0-0.6,0-0.9,0c-0.3,0-0.6,0-0.899,0c-0.24,0-0.48,0-0.721,0c-1.199,0-2.399,0-3.6,0
			c-0.3,0-0.6,0-0.9,0c-0.3,0-0.6,0-0.899,0c-0.18,0-0.36,0-0.54,0c-0.12,0-0.24,0-0.36,0c-0.239,0-0.479,0-0.72,0
			c-0.18,0-0.36,0-0.54,0c-0.12,0-0.24,0-0.36,0c-0.18,0-0.359,0-0.54,0c-0.119,0-0.239,0-0.359,0c-0.601,0-1.2,0-1.8,0
			c-1.141,0-2.28,0-3.42,0c0-0.42,0-0.841,0-1.261c0-0.359,0-0.72,0-1.08c0-0.359,0-0.72,0-1.079c0-0.181,0-0.36,0-0.54
			c0-0.24,0-0.48,0-0.721c-0.18,0-0.36,0-0.54,0c-0.72,0-1.44,0-2.16,0c-0.36,0-0.72,0-1.08,0c-0.18,0-0.36,0-0.54,0
			c-0.12,0-0.24,0-0.36,0c-0.36,0-0.72,0-1.08,0c-0.42,0-0.84,0-1.26,0c-0.36,0-0.72,0-1.08,0c-0.18,0-0.36,0-0.54,0
			c-0.24,0-0.48,0-0.72,0c0-0.779,0-1.56,0-2.34s0-1.56,0-2.34s0-1.56,0-2.34s0-1.561,0-2.34c0.42,0,0.84,0,1.26,0
			c0.36,0,0.72,0,1.08,0c0.42,0,0.84,0,1.26,0c0.36,0,0.72,0,1.08,0c0,1.56,0,3.12,0,4.68c2.34,0,4.68,0,7.02,0
			c0.18,0,0.36,0,0.54,0c0.12,0,0.24,0,0.36,0c0.181,0,0.36,0,0.54,0c0.12,0,0.24,0,0.36,0c0.18,0,0.36,0,0.54,0
			c0.12,0,0.24,0,0.359,0c0.181,0,0.36,0,0.54,0c0.12,0,0.24,0,0.36,0c1.14,0,2.28,0,3.42,0c0-1.51,0-3.03,0-4.54
			c0-0.04,0-0.09,0-0.14c1.561,0,3.12,0,4.68,0c0-2.34,0-4.68,0-7.021c0-2.28,0-4.56,0-6.84c0-0.12,0-0.24,0-0.36
			c-1.56,0-3.119,0-4.68,0c0-0.42,0-0.84,0-1.26c0-0.18,0-0.36,0-0.54c0-0.18,0-0.36,0-0.54c0-0.36,0-0.72,0-1.08
			c0-0.18,0-0.36,0-0.54c0-0.24,0-0.48,0-0.72c-0.18,0-0.359,0-0.54,0c-0.12,0-0.24,0-0.359,0c-0.181,0-0.36,0-0.54,0
			c-0.12,0-0.24,0-0.36,0c-0.18,0-0.36,0-0.54,0c-0.12,0-0.24,0-0.36,0c-0.18,0-0.359,0-0.54,0c-0.119,0-0.239,0-0.359,0
			c-1.141,0-2.28,0-3.42,0c-0.18,0-0.36,0-0.54,0c-0.12,0-0.24,0-0.36,0c-0.18,0-0.36,0-0.54,0c-0.12,0-0.24,0-0.36,0
			c-0.18,0-0.36,0-0.54,0c-0.12,0-0.24,0-0.36,0c-0.18,0-0.36,0-0.54,0c-0.12,0-0.24,0-0.36,0c-1.14,0-2.28,0-3.42,0
			c0,0.42,0,0.84,0,1.26c0,0.18,0,0.36,0,0.54c0,0.18,0,0.36,0,0.54c0,0.24,0,0.48,0,0.72c0,0.18,0,0.36,0,0.54
			c0,0.36,0,0.72,0,1.08c-0.78,0-1.56,0-2.34,0c-0.36,0-0.72,0-1.08,0c-0.18,0-0.36,0-0.54,0c-0.24,0-0.48,0-0.72,0
			c0,2.4,0,4.8,0,7.2c0,2.34,0,4.68,0,7.021c-0.36,0-0.72,0-1.08,0c-0.42,0-0.84,0-1.26,0c-0.78,0-1.56,0-2.34,0c0-1.5,0-3,0-4.5
			c0-1.56,0-3.12,0-4.68c0-1.5,0-3,0-4.5c0-0.36,0-0.72,0-1.08c0-0.42,0-0.84,0-1.26c0-0.36,0-0.72,0-1.08c0-0.18,0-0.36,0-0.54
			C23.83,43.57,23.83,43.33,23.83,43.09z"/>
		<path fill="#311531" d="M23.83,3.85c0,0.36,0,0.72,0,1.08c-1.62,0-3.24,0-4.86,0c-0.78,0-1.56,0-2.34,0c-0.24,0-0.48,0-0.72,0
			c-0.18,0-0.36,0-0.54,0c-0.36,0-0.72,0-1.08,0c0-0.18,0-0.36,0-0.54c0-0.18,0-0.36,0-0.54c0-0.18,0-0.36,0-0.54
			c0-0.18,0-0.36,0-0.54c0-0.18,0-0.36,0-0.54c0-0.18,0-0.36,0-0.54s0-0.36,0-0.54c0-0.24,0-0.48,0-0.72c0-0.06,0-0.12,0-0.18
			c0.06,0,0.12,0,0.18,0c0.78,0,1.56,0,2.34,0c0.42,0,0.84,0,1.26,0c0.36,0,0.72,0,1.08,0c0.42,0,0.84,0,1.26,0
			c0.36,0,0.72,0,1.08,0c0.42,0,0.84,0,1.26,0c0.36,0,0.72,0,1.08,0c0,0.24,0,0.48,0,0.72c0,0.18,0,0.36,0,0.54
			c0,0.36,0,0.72,0,1.08C23.83,3.01,23.83,3.43,23.83,3.85z"/>
		<path fill="#BA6A5B" d="M23.83,103.75c0,1.56,0,3.12,0,4.68c-0.84,0-1.68,0-2.52,0c-0.78,0-1.56,0-2.34,0c0-1.38,0-2.76,0-4.14
			c0-0.18,0-0.36,0-0.54c0.24,0,0.48,0,0.72,0c0.18,0,0.36,0,0.54,0c0.18,0,0.36,0,0.54,0c0.24,0,0.48,0,0.72,0
			C22.27,103.75,23.05,103.75,23.83,103.75z"/>
		<path fill="#D97761" d="M18.97,27.97c0,0.18,0,0.36,0,0.54c-0.06,0-0.12,0-0.18,0c-1.5,0-3,0-4.5,0c0-0.36,0-0.72,0-1.08
			c0-0.18,0-0.36,0-0.54c0-0.24,0-0.48,0-0.72c0-0.18,0-0.36,0-0.54s0-0.36,0-0.54c0-0.42,0-0.84,0-1.26c0.36,0,0.72,0,1.08,0
			c0.42,0,0.84,0,1.26,0c0.78,0,1.56,0,2.34,0c0,0.18,0,0.36,0,0.54C18.97,25.57,18.97,26.77,18.97,27.97z"/>
		<path fill="#BA6A5B" d="M11.95,108.43c0.78,0,1.56,0,2.34,0c0.36,0,0.72,0,1.08,0c0.42,0,0.84,0,1.26,0c0.78,0,1.56,0,2.34,0
			c0,1.561,0,3.12,0,4.681c-0.36,0-0.72,0-1.08,0c-0.42,0-0.84,0-1.26,0c-0.36,0-0.72,0-1.08,0c-0.18,0-0.36,0-0.54,0
			c-0.24,0-0.48,0-0.72,0c-0.24,0-0.48,0-0.72,0c-0.18,0-0.36,0-0.54,0c-0.36,0-0.72,0-1.08,0c-0.42,0-0.84,0-1.26,0
			c-0.18,0-0.36,0-0.54,0c-0.18,0-0.36,0-0.54,0c0-1.561,0-3.12,0-4.681c0.18,0,0.36,0,0.54,0c0.18,0,0.36,0,0.54,0
			C11.11,108.43,11.53,108.43,11.95,108.43z"/>
		<path fill="#D97761" d="M11.95,70.81c0.78,0,1.56,0,2.34,0c0,0.36,0,0.721,0,1.08c0,0.181,0,0.36,0,0.54c0,0.24,0,0.48,0,0.72
			c0,0.181,0,0.36,0,0.54c0,0.181,0,0.36,0,0.54c0,0.42,0,0.841,0,1.261c-0.42,0-0.84,0-1.26,0c-0.36,0-0.72,0-1.08,0
			c-0.42,0-0.84,0-1.26,0c-0.18,0-0.36,0-0.54,0c-0.18,0-0.36,0-0.54,0c0-0.78,0-1.561,0-2.341c0-0.779,0-1.56,0-2.34
			c0.18,0,0.36,0,0.54,0c0.18,0,0.36,0,0.54,0C11.11,70.81,11.53,70.81,11.95,70.81z"/>
		<path fill="#311531" d="M11.95,18.97c0.78,0,1.56,0,2.34,0c0,0.78,0,1.56,0,2.34c0,0.84,0,1.68,0,2.52c0,0.42,0,0.84,0,1.26
			c0,0.18,0,0.36,0,0.54s0,0.36,0,0.54c0,0.24,0,0.48,0,0.72c0,0.18,0,0.36,0,0.54c0,0.36,0,0.72,0,1.08c-0.78,0-1.56,0-2.34,0
			c-0.42,0-0.84,0-1.26,0c-0.18,0-0.36,0-0.54,0c-0.18,0-0.36,0-0.54,0c0-0.36,0-0.72,0-1.08c0-0.18,0-0.36,0-0.54
			c0-0.24,0-0.48,0-0.72c0-0.78,0-1.56,0-2.34c0-1.62,0-3.24,0-4.86c0.18,0,0.36,0,0.54,0c0.18,0,0.36,0,0.54,0
			c0.18,0,0.36,0,0.54,0C11.47,18.97,11.71,18.97,11.95,18.97z"/>
		<path fill="#311531" d="M13.03,4.93c0.42,0,0.84,0,1.26,0c0,0.06,0,0.12,0,0.18c0,0.24,0,0.48,0,0.72c0,0.18,0,0.36,0,0.54
			c0,0.18,0,0.36,0,0.54c0,0.18,0,0.36,0,0.54c0,0.72,0,1.44,0,2.16c-0.78,0-1.56,0-2.34,0c-0.24,0-0.48,0-0.72,0
			c-0.18,0-0.36,0-0.54,0c-0.18,0-0.36,0-0.54,0c-0.18,0-0.36,0-0.54,0c0-0.12,0-0.24,0-0.36c0-0.18,0-0.36,0-0.54
			c0-0.36,0-0.72,0-1.08c0-0.72,0-1.44,0-2.16c0-0.18,0-0.36,0-0.54c0.24,0,0.48,0,0.72,0c0.18,0,0.36,0,0.54,0
			c0.36,0,0.72,0,1.08,0S12.67,4.93,13.03,4.93z"/>
		<path fill="#311531" d="M13.03,75.49c0.42,0,0.84,0,1.26,0c0,1.439,0,2.88,0,4.319c0,1.5,0,3,0,4.5c0,0.181,0,0.36,0,0.54
			c-0.06,0-0.12,0-0.18,0c-0.06,0-0.12,0-0.18,0c-0.12,0-0.24,0-0.36,0c-0.18,0-0.36,0-0.54,0c-0.18,0-0.36,0-0.54,0
			c-0.18,0-0.36,0-0.54,0s-0.36,0-0.54,0s-0.36,0-0.54,0c-0.42,0-0.84,0-1.26,0c0-0.359,0-0.72,0-1.08c0-0.18,0-0.359,0-0.54
			c0-0.239,0-0.479,0-0.72c0-0.78,0-1.56,0-2.34s0-1.56,0-2.34s0-1.561,0-2.34c0.18,0,0.36,0,0.54,0c0.18,0,0.36,0,0.54,0
			c0.42,0,0.84,0,1.26,0C12.31,75.49,12.67,75.49,13.03,75.49z"/>
		<path fill="#311531" d="M13.57,113.11c0.24,0,0.48,0,0.72,0c0,1.56,0,3.119,0,4.68c0,2.34,0,4.68,0,7.02s0,4.681,0,7.021
			c-0.78,0-1.56,0-2.34,0c-0.78,0-1.56,0-2.34,0c0-1.561,0-3.12,0-4.681c0-1.56,0-3.119,0-4.68c0-1.56,0-3.12,0-4.68
			c0-1.561,0-3.12,0-4.68c0.18,0,0.36,0,0.54,0c0.18,0,0.36,0,0.54,0c0.42,0,0.84,0,1.26,0c0.36,0,0.72,0,1.08,0
			C13.21,113.11,13.39,113.11,13.57,113.11z"/>
		<path fill="#D97761" d="M11.95,28.51c0.78,0,1.56,0,2.34,0c0,0.36,0,0.72,0,1.08c0,0.18,0,0.36,0,0.54c0,0.24,0,0.48,0,0.72
			c0,0.18,0,0.36,0,0.54c0,0.18,0,0.36,0,0.54c0,0.42,0,0.84,0,1.26c-0.36,0-0.72,0-1.08,0c-0.18,0-0.36,0-0.54,0
			c-0.24,0-0.48,0-0.72,0c-0.18,0-0.36,0-0.54,0s-0.36,0-0.54,0c-0.42,0-0.84,0-1.26,0c0-0.72,0-1.44,0-2.16c0-0.36,0-0.72,0-1.08
			c0-0.18,0-0.36,0-0.54c0-0.24,0-0.48,0-0.72c0-0.06,0-0.12,0-0.18c0.18,0,0.36,0,0.54,0c0.18,0,0.36,0,0.54,0
			C11.11,28.51,11.53,28.51,11.95,28.51z"/>
		<path fill="#311531" d="M8.35,66.13c0.42,0,0.84,0,1.26,0c0,0.78,0,1.56,0,2.34s0,1.561,0,2.34c0,0.78,0,1.561,0,2.34
			c0,0.78,0,1.561,0,2.341c-0.36,0-0.72,0-1.08,0c-0.42,0-0.84,0-1.26,0c-0.36,0-0.72,0-1.08,0c-0.42,0-0.84,0-1.26,0
			c0-0.78,0-1.561,0-2.341c0-0.779,0-1.56,0-2.34c0-0.779,0-1.56,0-2.34s0-1.56,0-2.34c0.36,0,0.72,0,1.08,0c0.18,0,0.36,0,0.54,0
			c0.24,0,0.48,0,0.72,0c0.18,0,0.36,0,0.54,0C7.99,66.13,8.17,66.13,8.35,66.13z"/>
		<path fill="#D97761" d="M8.35,37.87c0.42,0,0.84,0,1.26,0c0,0.12,0,0.24,0,0.36c0,0.18,0,0.36,0,0.54c0,0.36,0,0.72,0,1.08
			c0,0.72,0,1.44,0,2.16c0,0.18,0,0.36,0,0.54c-0.06,0-0.12,0-0.18,0s-0.12,0-0.18,0c-0.12,0-0.24,0-0.36,0c-0.18,0-0.36,0-0.54,0
			s-0.36,0-0.54,0c-0.18,0-0.36,0-0.54,0c-0.18,0-0.36,0-0.54,0c-0.18,0-0.36,0-0.54,0c-0.42,0-0.84,0-1.26,0c0-0.36,0-0.72,0-1.08
			c0-0.18,0-0.36,0-0.54c0-0.24,0-0.48,0-0.72c0-0.36,0-0.72,0-1.08c0-0.42,0-0.84,0-1.26c0.36,0,0.72,0,1.08,0
			c0.42,0,0.84,0,1.26,0C7.63,37.87,7.99,37.87,8.35,37.87z"/>
		<path fill="#311531" d="M9.61,33.19c0,0.78,0,1.56,0,2.34c0,0.78,0,1.56,0,2.34c-0.42,0-0.84,0-1.26,0c-0.36,0-0.72,0-1.08,0
			c-0.42,0-0.84,0-1.26,0c-0.36,0-0.72,0-1.08,0c0-1.44,0-2.88,0-4.32c0-1.5,0-3,0-4.5c0-0.18,0-0.36,0-0.54c0.06,0,0.12,0,0.18,0
			c1.5,0,3,0,4.5,0c0,0.06,0,0.12,0,0.18c0,0.24,0,0.48,0,0.72c0,0.18,0,0.36,0,0.54c0,0.36,0,0.72,0,1.08
			C9.61,31.75,9.61,32.47,9.61,33.19z"/>
		<path fill="#311531" d="M7.27,9.61c0.78,0,1.56,0,2.34,0c0,0.18,0,0.36,0,0.54s0,0.36,0,0.54s0,0.36,0,0.54c0,0.24,0,0.48,0,0.72
			c0,0.78,0,1.56,0,2.34c0,0.36,0,0.72,0,1.08c0,0.18,0,0.36,0,0.54c0,0.24,0,0.48,0,0.72c0,0.78,0,1.56,0,2.34
			c-0.36,0-0.72,0-1.08,0c-0.18,0-0.36,0-0.54,0c-0.24,0-0.48,0-0.72,0c-0.78,0-1.56,0-2.34,0c0-0.18,0-0.36,0-0.54
			c0-1.38,0-2.76,0-4.14c0-1.38,0-2.76,0-4.14c0-0.18,0-0.36,0-0.54c0.06,0,0.12,0,0.18,0c0.36,0,0.72,0,1.08,0
			C6.55,9.61,6.91,9.61,7.27,9.61z"/>
		<path fill="#D97761" d="M8.35,61.45c0.42,0,0.84,0,1.26,0c0,1.56,0,3.12,0,4.68c-0.42,0-0.84,0-1.26,0c-0.18,0-0.36,0-0.54,0
			c-0.18,0-0.36,0-0.54,0c-0.24,0-0.48,0-0.72,0c-0.18,0-0.36,0-0.54,0c-0.36,0-0.72,0-1.08,0c0-1.56,0-3.12,0-4.68
			c0.36,0,0.72,0,1.08,0c0.42,0,0.84,0,1.26,0C7.63,61.45,7.99,61.45,8.35,61.45z"/>
		<path fill="#311531" d="M8.89,108.43c0.24,0,0.48,0,0.72,0c0,1.561,0,3.12,0,4.681c-0.66,0-1.32,0-1.98,0c-0.72,0-1.44,0-2.16,0
			c-0.18,0-0.36,0-0.54,0c0-1.561,0-3.12,0-4.681c0.36,0,0.72,0,1.08,0c0.42,0,0.84,0,1.26,0c0.36,0,0.72,0,1.08,0
			C8.53,108.43,8.71,108.43,8.89,108.43z"/>
		<path fill="#E0B49C" d="M8.89,42.55c0.12,0,0.24,0,0.36,0c0.06,0,0.12,0,0.18,0s0.12,0,0.18,0c0-0.18,0-0.36,0-0.54
			c0-0.72,0-1.44,0-2.16c0-0.36,0-0.72,0-1.08c0-0.18,0-0.36,0-0.54c0-0.12,0-0.24,0-0.36c0-0.78,0-1.56,0-2.34
			c0-0.78,0-1.56,0-2.34c0.42,0,0.84,0,1.26,0c0.18,0,0.36,0,0.54,0s0.36,0,0.54,0c0.24,0,0.48,0,0.72,0c0.18,0,0.36,0,0.54,0
			c0.36,0,0.72,0,1.08,0c0-0.42,0-0.84,0-1.26c0-0.18,0-0.36,0-0.54c0-0.18,0-0.36,0-0.54c0-0.24,0-0.48,0-0.72
			c0-0.18,0-0.36,0-0.54c0-0.36,0-0.72,0-1.08c1.5,0,3,0,4.5,0c0.06,0,0.12,0,0.18,0c0-0.18,0-0.36,0-0.54c0-1.2,0-2.4,0-3.6
			c0-0.18,0-0.36,0-0.54c-0.78,0-1.56,0-2.34,0c-0.42,0-0.84,0-1.26,0c-0.36,0-0.72,0-1.08,0c0-0.84,0-1.68,0-2.52
			c0-0.78,0-1.56,0-2.34c-0.78,0-1.56,0-2.34,0c-0.24,0-0.48,0-0.72,0c-0.18,0-0.36,0-0.54,0c-0.18,0-0.36,0-0.54,0
			c-0.18,0-0.36,0-0.54,0c0-0.78,0-1.56,0-2.34c0-0.24,0-0.48,0-0.72c0-0.18,0-0.36,0-0.54c0-0.36,0-0.72,0-1.08
			c0-0.78,0-1.56,0-2.34c0-0.24,0-0.48,0-0.72c0-0.18,0-0.36,0-0.54s0-0.36,0-0.54s0-0.36,0-0.54c0.18,0,0.36,0,0.54,0
			c0.18,0,0.36,0,0.54,0c0.18,0,0.36,0,0.54,0c0.24,0,0.48,0,0.72,0c0.78,0,1.56,0,2.34,0c0-0.72,0-1.44,0-2.16
			c0-0.18,0-0.36,0-0.54c0-0.18,0-0.36,0-0.54c0-0.18,0-0.36,0-0.54c0-0.24,0-0.48,0-0.72c0-0.06,0-0.12,0-0.18
			c0.36,0,0.72,0,1.08,0c0.18,0,0.36,0,0.54,0c0.24,0,0.48,0,0.72,0c0.78,0,1.56,0,2.34,0c1.62,0,3.24,0,4.86,0
			c0,0.78,0,1.56,0,2.34c0,0.42,0,0.84,0,1.26c0,0.36,0,0.72,0,1.08c0.78,0,1.56,0,2.34,0c0.24,0,0.48,0,0.72,0
			c0.18,0,0.36,0,0.54,0c0.36,0,0.72,0,1.08,0c0,0.78,0,1.56,0,2.34c0,0.78,0,1.56,0,2.34c0.42,0,0.84,0,1.26,0
			c0.18,0,0.36,0,0.54,0c0.18,0,0.36,0,0.54,0c0.24,0,0.48,0,0.72,0c0.18,0,0.36,0,0.54,0c0.36,0,0.72,0,1.08,0
			c0,0.42,0,0.84,0,1.26c0,0.18,0,0.36,0,0.54s0,0.36,0,0.54c0,0.24,0,0.48,0,0.72c0,0.18,0,0.36,0,0.54c0,0.36,0,0.72,0,1.08
			c-0.78,0-1.56,0-2.34,0c-0.36,0-0.72,0-1.08,0c-0.18,0-0.36,0-0.54,0c-0.24,0-0.48,0-0.72,0c0,0.18,0,0.36,0,0.54
			c0,0.72,0,1.44,0,2.16c0,0.36,0,0.72,0,1.08c0,0.18,0,0.36,0,0.54c0,0.18,0,0.36,0,0.54c2.34,0,4.68,0,7.02,0
			c2.34,0,4.68,0,7.02,0c0,0.42,0,0.84,0,1.26c0,0.18,0,0.36,0,0.54s0,0.36,0,0.54s0,0.36,0,0.54c0,0.18,0,0.36,0,0.54
			c0,0.18,0,0.36,0,0.54c0,0.12,0,0.24,0,0.36c0,0.06,0,0.12,0,0.18c0,0.06,0,0.12,0,0.18c0.18,0,0.359,0,0.54,0
			c0.18,0,0.359,0,0.54,0c0.12,0,0.24,0,0.359,0c0.181,0,0.36,0,0.54,0c0.12,0,0.24,0,0.36,0c0.18,0,0.36,0,0.54,0
			c0.12,0,0.24,0,0.36,0c0.18,0,0.359,0,0.54,0c0.119,0,0.239,0,0.359,0c0.181,0,0.36,0,0.54,0c0,0.42,0,0.84,0,1.26
			c0,0.36,0,0.72,0,1.08c0,0.42,0,0.84,0,1.26c0,0.36,0,0.72,0,1.08c-0.18,0-0.359,0-0.54,0c-0.12,0-0.24,0-0.359,0
			c-0.181,0-0.36,0-0.54,0c-0.12,0-0.24,0-0.36,0c-0.6,0-1.2,0-1.8,0c-1.141,0-2.28,0-3.42,0c-0.18,0-0.36,0-0.54,0
			c-0.12,0-0.24,0-0.36,0c-0.18,0-0.36,0-0.54,0c-0.12,0-0.24,0-0.36,0c-0.6,0-1.2,0-1.8,0c-1.14,0-2.28,0-3.42,0
			c0,0.42,0,0.84,0,1.26c0,0.18,0,0.36,0,0.54c0,0.18,0,0.36,0,0.54c0,0.24,0,0.48,0,0.72c0,0.18,0,0.36,0,0.54
			c0,0.36,0,0.72,0,1.08c-0.78,0-1.56,0-2.34,0c-0.78,0-1.56,0-2.34,0c0,0.24,0,0.48,0,0.72c0,0.18,0,0.36,0,0.54
			c0,0.36,0,0.72,0,1.08c0,0.42,0,0.84,0,1.26c0,0.36,0,0.72,0,1.08c-0.42,0-0.84,0-1.26,0c-0.18,0-0.36,0-0.54,0
			c-0.18,0-0.36,0-0.54,0c-0.18,0-0.36,0-0.54,0c-0.18,0-0.36,0-0.54,0c-0.18,0-0.36,0-0.54,0c-0.12,0-0.24,0-0.36,0
			c-0.06,0-0.12,0-0.18,0s-0.12,0-0.18,0c0,0.18,0,0.36,0,0.54c0,0.24,0,0.48,0,0.72c0,0.18,0,0.36,0,0.54c0,0.36,0,0.72,0,1.08
			c0,0.42,0,0.84,0,1.26c0,0.36,0,0.72,0,1.08c0,1.5,0,3,0,4.5c0,1.56,0,3.12,0,4.68c0,1.5,0,3,0,4.5c0.78,0,1.56,0,2.34,0
			c0.42,0,0.84,0,1.26,0c0.36,0,0.72,0,1.08,0c0,0.779,0,1.56,0,2.34s0,1.56,0,2.34s0,1.56,0,2.34s0,1.561,0,2.34
			c0.24,0,0.48,0,0.72,0c0.18,0,0.36,0,0.54,0c0.36,0,0.72,0,1.08,0c0.42,0,0.84,0,1.26,0c0.36,0,0.72,0,1.08,0
			c0,0.42,0,0.84,0,1.261c0,0.18,0,0.359,0,0.54c0,0.18,0,0.359,0,0.539c0,0.24,0,0.48,0,0.721c0,0.18,0,0.359,0,0.54
			c0,0.359,0,0.72,0,1.08c0.42,0,0.84,0,1.26,0c0.36,0,0.72,0,1.08,0c0.42,0,0.84,0,1.26,0c0.36,0,0.72,0,1.08,0
			c0,0.42,0,0.84,0,1.26c0,0.36,0,0.72,0,1.08c0,0.42,0,0.84,0,1.26c0,0.36,0,0.72,0,1.08c0.42,0,0.84,0,1.26,0
			c0.18,0,0.36,0,0.54,0c0.18,0,0.36,0,0.54,0c0.24,0,0.48,0,0.72,0c0.18,0,0.36,0,0.54,0s0.36,0,0.54,0s0.36,0,0.54,0
			c0,0.42,0,0.84,0,1.26c0,0.181,0,0.36,0,0.54s0,0.36,0,0.54c0,0.24,0,0.48,0,0.72c0,0.181,0,0.36,0,0.54c0,0.181,0,0.36,0,0.54
			c0,0.181,0,0.36,0,0.54c-0.42,0-0.84,0-1.26,0c-0.181,0-0.36,0-0.541,0c-0.18,0-0.36,0-0.54,0c-0.18,0-0.36,0-0.54,0
			c-0.18,0-0.36,0-0.54,0c-0.18,0-0.36,0-0.54,0c-0.12,0-0.24,0-0.36,0c-0.06,0-0.12,0-0.18,0s-0.12,0-0.18,0c0,0.181,0,0.36,0,0.54
			c0,0.36,0,0.721,0,1.08c0,0.18,0,0.36,0,0.54s0,0.36,0,0.54c0,0.36,0,0.72,0,1.08c0,0.18,0,0.36,0,0.54c0,0.12,0,0.24,0,0.36
			c0,0.359,0,0.72,0,1.08c0,0.18,0,0.359,0,0.539c0,0.181,0,0.36,0,0.54c0,0.36,0,0.721,0,1.08c0,0.301,0,0.601,0,0.9
			c0,0.18,0,0.36,0,0.54c-0.78,0-1.56,0-2.34,0c-0.78,0-1.56,0-2.34,0c0-0.42,0-0.84,0-1.26c0-0.181,0-0.36,0-0.54
			c0-0.181,0-0.36,0-0.54c0-0.721,0-1.44,0-2.16c0-1.44,0-2.88,0-4.32c0-0.18,0-0.359,0-0.54c-0.72,0-1.44,0-2.16,0
			c-0.36,0-0.72,0-1.08,0c-0.18,0-0.36,0-0.54,0c-0.12,0-0.24,0-0.36,0c-0.18,0-0.36,0-0.54,0c0,0.24,0,0.48,0,0.721
			c0,0.18,0,0.359,0,0.54c0,0.359,0,0.72,0,1.079c0,0.421,0,0.841,0,1.261c0,0.18,0,0.359,0,0.54c0,0.18,0,0.359,0,0.54
			c0,0.42,0,0.84,0,1.26c0,0.18,0,0.359,0,0.54c0,0.18,0,0.359,0,0.54c0,0.42,0,0.84,0,1.26c0,0.36,0,0.72,0,1.08
			c-0.78,0-1.56,0-2.34,0c-0.36,0-0.72,0-1.08,0c-0.18,0-0.36,0-0.54,0c-0.24,0-0.48,0-0.72,0c0,0.18,0,0.36,0,0.54c0,1.5,0,3,0,4.5
			s0,3,0,4.5c-0.78,0-1.56,0-2.34,0c-0.24,0-0.48,0-0.72,0c-0.18,0-0.36,0-0.54,0c-0.18,0-0.36,0-0.54,0c-0.24,0-0.48,0-0.72,0
			c0,0.18,0,0.36,0,0.54c0,1.38,0,2.76,0,4.14c-0.78,0-1.56,0-2.34,0c-0.42,0-0.84,0-1.26,0c-0.36,0-0.72,0-1.08,0
			c-0.78,0-1.56,0-2.34,0c-0.42,0-0.84,0-1.26,0c-0.18,0-0.36,0-0.54,0c-0.18,0-0.36,0-0.54,0c-0.24,0-0.48,0-0.72,0
			c-0.18,0-0.36,0-0.54,0c-0.36,0-0.72,0-1.08,0c-0.42,0-0.84,0-1.26,0c-0.36,0-0.72,0-1.08,0c0-1.2,0-2.399,0-3.6s0-2.4,0-3.601
			c0-1.199,0-2.399,0-3.6c0-1.14,0-2.28,0-3.42c0.42,0,0.84,0,1.26,0c0.36,0,0.72,0,1.08,0c0.36,0,0.72,0,1.08,0
			c0.18,0,0.36,0,0.54,0c0.24,0,0.48,0,0.72,0c0-0.18,0-0.36,0-0.54c0-1.5,0-3,0-4.5c0-1.44,0-2.88,0-4.32c0.42,0,0.84,0,1.26,0
			c0.18,0,0.36,0,0.54,0s0.36,0,0.54,0s0.36,0,0.54,0c0.18,0,0.36,0,0.54,0c0.18,0,0.36,0,0.54,0c0.12,0,0.24,0,0.36,0
			c0.06,0,0.12,0,0.18,0c0.06,0,0.12,0,0.18,0c0-0.18,0-0.359,0-0.54c0-1.5,0-3,0-4.5c0-1.439,0-2.88,0-4.319
			c0-0.42,0-0.841,0-1.261c0-0.18,0-0.359,0-0.54c0-0.18,0-0.359,0-0.54c0-0.239,0-0.479,0-0.72c0-0.18,0-0.359,0-0.54
			c0-0.359,0-0.72,0-1.08c-0.78,0-1.56,0-2.34,0c-0.42,0-0.84,0-1.26,0c-0.18,0-0.36,0-0.54,0c-0.18,0-0.36,0-0.54,0
			c0-0.779,0-1.56,0-2.34s0-1.56,0-2.34c0-1.56,0-3.12,0-4.68c-0.42,0-0.84,0-1.26,0c-0.36,0-0.72,0-1.08,0c-0.42,0-0.84,0-1.26,0
			c-0.36,0-0.72,0-1.08,0c0-3.18,0-6.36,0-9.541c0-1.56,0-3.12,0-4.68c0-0.24,0-0.48,0-0.72c0-0.18,0-0.36,0-0.54
			c0-0.18,0-0.36,0-0.54c0-0.18,0-0.36,0-0.54c0-0.24,0-0.48,0-0.72c0-0.18,0-0.36,0-0.54s0-0.36,0-0.54s0-0.36,0-0.54
			c0.42,0,0.84,0,1.26,0c0.18,0,0.36,0,0.54,0c0.18,0,0.36,0,0.54,0c0.18,0,0.36,0,0.54,0c0.18,0,0.36,0,0.54,0
			S8.71,42.55,8.89,42.55z"/>
		<path fill="#311531" d="M8.35,84.85c0.42,0,0.84,0,1.26,0c0,1.44,0,2.88,0,4.32c0,1.5,0,3,0,4.5c0,0.18,0,0.36,0,0.54
			c-0.24,0-0.48,0-0.72,0c-0.18,0-0.36,0-0.54,0c-0.36,0-0.72,0-1.08,0c-0.36,0-0.72,0-1.08,0c-0.42,0-0.84,0-1.26,0
			c0-1.44,0-2.88,0-4.32c0-1.5,0-3,0-4.5c0-0.18,0-0.359,0-0.54c0.06,0,0.12,0,0.18,0c0.06,0,0.12,0,0.18,0c0.12,0,0.24,0,0.36,0
			c0.18,0,0.36,0,0.54,0c0.18,0,0.36,0,0.54,0c0.18,0,0.36,0,0.54,0c0.18,0,0.36,0,0.54,0C7.99,84.85,8.17,84.85,8.35,84.85z"/>
		<path fill="#311531" d="M4.93,46.51c0,0.24,0,0.48,0,0.72c0,1.56,0,3.12,0,4.68c0,3.18,0,6.36,0,9.541c0,1.56,0,3.12,0,4.68
			c-0.42,0-0.84,0-1.26,0c-0.18,0-0.36,0-0.54,0c-0.18,0-0.36,0-0.54,0c-0.24,0-0.48,0-0.72,0c-0.18,0-0.36,0-0.54,0s-0.36,0-0.54,0
			c-0.12,0-0.24,0-0.36,0c-0.06,0-0.12,0-0.18,0c0-2.34,0-4.68,0-7.02c0-2.28,0-4.56,0-6.84c0-2.34,0-4.68,0-7.02
			c0-1.14,0-2.28,0-3.42c0-1.14,0-2.28,0-3.42c0-0.18,0-0.36,0-0.54c0.06,0,0.12,0,0.18,0c0.12,0,0.24,0,0.36,0
			c0.18,0,0.36,0,0.54,0s0.36,0,0.54,0c0.24,0,0.48,0,0.72,0c0.36,0,0.72,0,1.08,0c0.42,0,0.84,0,1.26,0c0,0.42,0,0.84,0,1.26
			c0,0.36,0,0.72,0,1.08c0,0.24,0,0.48,0,0.72c0,0.18,0,0.36,0,0.54c0,0.36,0,0.72,0,1.08c0,0.18,0,0.36,0,0.54s0,0.36,0,0.54
			s0,0.36,0,0.54c0,0.24,0,0.48,0,0.72c0,0.18,0,0.36,0,0.54c0,0.18,0,0.36,0,0.54C4.93,46.15,4.93,46.33,4.93,46.51z"/>
		<path fill="#311531" d="M2.59,94.21c0.36,0,0.72,0,1.08,0c0.42,0,0.84,0,1.26,0c0,1.14,0,2.28,0,3.42c0,1.2,0,2.4,0,3.6
			c0,1.2,0,2.4,0,3.601s0,2.399,0,3.6c-0.36,0-0.72,0-1.08,0c-0.42,0-0.84,0-1.26,0c-0.36,0-0.72,0-1.08,0c-0.18,0-0.36,0-0.54,0
			c-0.24,0-0.48,0-0.72,0c0-4.56,0-9.12,0-13.68c0-0.18,0-0.36,0-0.54c0.06,0,0.12,0,0.18,0c0.12,0,0.24,0,0.36,0
			c0.18,0,0.36,0,0.54,0s0.36,0,0.54,0C2.11,94.21,2.35,94.21,2.59,94.21z"/>
	</g>
	<g>
	</g>
</g>
</svg>
