<?xml version="1.0" encoding="utf-8"?>
<!-- Generator: Adobe Illustrator 15.0.0, SVG Export Plug-In  -->
<!DOCTYPE svg PUBLIC "-//W3C//DTD SVG 1.1//EN" "http://www.w3.org/Graphics/SVG/1.1/DTD/svg11.dtd" [
	<!ENTITY ns_flows "http://ns.adobe.com/Flows/1.0/">
]>
<svg version="1.1"
	 xmlns="http://www.w3.org/2000/svg" xmlns:xlink="http://www.w3.org/1999/xlink" xmlns:a="http://ns.adobe.com/AdobeSVGViewerExtensions/3.0/"
	 x="0px" y="0px" width="100px" height="150px" viewBox="-17.456 -23.1 100 150" enable-background="new -17.456 -23.1 100 150"
	 xml:space="preserve">
<defs>
</defs>
<path fill-rule="evenodd" clip-rule="evenodd" fill="#0A1A3E" d="M32.76,4.681c-0.24,0-0.48,0-0.72,0c-0.12,0-0.24,0-0.36,0
	c-0.18,0-0.36,0-0.54,0c-0.12,0-0.24,0-0.36,0c-0.18,0-0.359,0-0.54,0c-0.119,0-0.239,0-0.359,0c-0.181,0-0.36,0-0.54,0
	c-0.12,0-0.24,0-0.36,0c-0.18,0-0.359,0-0.54,0c-0.12,0-0.24,0-0.359,0c-0.181,0-0.36,0-0.54,0c-0.12,0-0.24,0-0.36,0
	c-0.54,0-1.08,0-1.62,0c-1.2,0-2.4,0-3.6,0c-0.181,0-0.36,0-0.54,0c-0.12,0-0.24,0-0.36,0c-0.18,0-0.36,0-0.54,0
	c-0.12,0-0.24,0-0.36,0c-0.539,0-1.079,0-1.619,0c-1.2,0-2.4,0-3.601,0c-0.18,0-0.359,0-0.54,0c-0.12,0-0.24,0-0.359,0
	c-0.181,0-0.36,0-0.54,0c-0.12,0-0.24,0-0.36,0c-0.54,0-1.08,0-1.62,0c-1.14,0-2.28,0-3.42,0s-2.28,0-3.42,0c0-0.36,0-0.721,0-1.08
	c0-0.181,0-0.36,0-0.54c0-0.24,0-0.48,0-0.721c0-0.18,0-0.359,0-0.539c0-0.181,0-0.36,0-0.54c0-0.181,0-0.36,0-0.54
	c0-0.24,0-0.48,0-0.721C5.22,0,5.76,0,6.3,0c0.12,0,0.24,0,0.359,0c0.181,0,0.36,0,0.54,0c0.12,0,0.24,0,0.36,0
	c0.18,0,0.36,0,0.54,0c1.2,0,2.4,0,3.6,0c0.54,0,1.08,0,1.62,0c0.12,0,0.24,0,0.36,0c0.18,0,0.36,0,0.54,0c0.12,0,0.24,0,0.36,0
	c0.18,0,0.359,0,0.54,0c1.199,0,2.399,0,3.6,0c0.54,0,1.08,0,1.62,0c0.12,0,0.24,0,0.359,0c0.181,0,0.36,0,0.54,0
	c0.12,0,0.24,0,0.36,0c0.18,0,0.36,0,0.54,0c1.2,0,2.4,0,3.6,0c0.54,0,1.08,0,1.62,0c0.12,0,0.24,0,0.36,0c0.18,0,0.36,0,0.54,0
	c0.12,0,0.24,0,0.36,0c0.18,0,0.359,0,0.539,0c1.2,0,2.4,0,3.601,0c0,0.12,0,0.24,0,0.36s0,0.24,0,0.36c0,0.18,0,0.359,0,0.54
	c0,0.119,0,0.239,0,0.359c0,0.181,0,0.36,0,0.54c0,0.12,0,0.24,0,0.36c0,0.18,0,0.359,0,0.54c0,0.18,0,0.359,0,0.54
	c0,0.18,0,0.359,0,0.54C32.76,4.32,32.76,4.5,32.76,4.681z"/>
<path fill-rule="evenodd" clip-rule="evenodd" fill="#0A1A3E" d="M51.659,4.681c-0.239,0-0.479,0-0.72,0c-0.12,0-0.24,0-0.359,0
	c-0.181,0-0.36,0-0.54,0c-0.12,0-0.24,0-0.36,0c-0.18,0-0.36,0-0.54,0c-0.12,0-0.24,0-0.36,0c-0.18,0-0.359,0-0.54,0
	c-0.119,0-0.239,0-0.359,0c-0.181,0-0.36,0-0.54,0c-0.12,0-0.24,0-0.36,0c-0.18,0-0.359,0-0.54,0c-0.12,0-0.24,0-0.359,0
	c-0.54,0-1.08,0-1.62,0c-1.141,0-2.28,0-3.42,0c-1.141,0-2.28,0-3.42,0c0-0.36,0-0.721,0-1.08c0-0.42,0-0.84,0-1.261
	c0-0.359,0-0.72,0-1.079c0-0.421,0-0.841,0-1.261c2.22,0,4.439,0,6.659,0c1.141,0,2.28,0,3.42,0c0.54,0,1.08,0,1.62,0
	c0.12,0,0.24,0,0.36,0c0.18,0,0.36,0,0.54,0c0.12,0,0.24,0,0.36,0c0.18,0,0.359,0,0.54,0c0.18,0,0.359,0,0.539,0
	c0,0.12,0,0.24,0,0.36s0,0.24,0,0.36c0,0.18,0,0.359,0,0.54c0,0.119,0,0.239,0,0.359c0,0.181,0,0.36,0,0.54c0,0.12,0,0.24,0,0.36
	c0,0.18,0,0.359,0,0.54c0,0.18,0,0.359,0,0.54c0,0.18,0,0.359,0,0.54C51.659,4.32,51.659,4.5,51.659,4.681z"/>
<path fill-rule="evenodd" clip-rule="evenodd" fill="#0A1A3E" d="M4.68,4.681c0,0.18,0,0.359,0,0.54c0,0.119,0,0.239,0,0.359
	c0,0.181,0,0.36,0,0.54c0,0.181,0,0.36,0,0.54s0,0.36,0,0.54c0,0.24,0,0.48,0,0.72c0,0.181,0,0.36,0,0.54c0,0.36,0,0.721,0,1.08
	c0,0.42,0,0.84,0,1.261c0,0.359,0,0.72,0,1.079c0,0.721,0,1.44,0,2.16c-0.78,0-1.56,0-2.34,0s-1.561,0-2.34,0c0-0.359,0-0.72,0-1.08
	c0-0.42,0-0.84,0-1.26c0-0.36,0-0.72,0-1.08c0-0.42,0-0.84,0-1.26C0,9,0,8.641,0,8.28c0-0.42,0-0.84,0-1.26c0-0.36,0-0.72,0-1.08
	c0-0.42,0-0.84,0-1.26c0.12,0,0.239,0,0.359,0c0.181,0,0.36,0,0.54,0c0.36,0,0.721,0,1.08,0c0.18,0,0.36,0,0.54,0s0.36,0,0.54,0
	c0.36,0,0.72,0,1.08,0C4.319,4.681,4.5,4.681,4.68,4.681z"/>
<path fill-rule="evenodd" clip-rule="evenodd" fill="#E0B49C" d="M4.68,4.681c1.14,0,2.28,0,3.42,0s2.28,0,3.42,0
	c0.54,0,1.08,0,1.62,0c0.12,0,0.24,0,0.36,0c0.18,0,0.359,0,0.54,0c0.119,0,0.239,0,0.359,0c0.181,0,0.36,0,0.54,0
	c1.2,0,2.4,0,3.601,0c0.54,0,1.08,0,1.619,0c0.12,0,0.24,0,0.36,0c0.18,0,0.36,0,0.54,0c0.12,0,0.24,0,0.36,0c0.18,0,0.359,0,0.54,0
	c1.199,0,2.399,0,3.6,0c0.54,0,1.08,0,1.62,0c0.12,0,0.24,0,0.36,0c0.18,0,0.359,0,0.54,0c0.119,0,0.239,0,0.359,0
	c0.181,0,0.36,0,0.54,0c0.12,0,0.24,0,0.36,0c0.18,0,0.359,0,0.54,0c0.12,0,0.24,0,0.359,0c0.181,0,0.36,0,0.54,0
	c0.12,0,0.24,0,0.36,0c0.18,0,0.36,0,0.54,0c0.12,0,0.24,0,0.36,0c0.239,0,0.479,0,0.72,0c0,0.779,0,1.56,0,2.34s0,1.56,0,2.34
	c-0.42,0-0.84,0-1.26,0c-0.181,0-0.36,0-0.54,0c-0.181,0-0.36,0-0.54,0c-0.181,0-0.36,0-0.54,0c-0.181,0-0.36,0-0.54,0
	c-0.181,0-0.36,0-0.54,0c-0.24,0-0.48,0-0.72,0c0,0.18,0,0.36,0,0.54s0,0.36,0,0.54c0,0.12,0,0.24,0,0.36c0,0.18,0,0.359,0,0.539
	c0,0.12,0,0.24,0,0.36c0,0.18,0,0.36,0,0.54c0,0.12,0,0.24,0,0.36c0,0.18,0,0.359,0,0.54c0,0.12,0,0.239,0,0.359
	c0,0.181,0,0.36,0,0.54c0.18,0,0.359,0,0.54,0c1.14,0,2.279,0,3.42,0c0.18,0,0.359,0,0.54,0c0.119,0,0.239,0,0.359,0
	c0.181,0,0.36,0,0.54,0c0.12,0,0.24,0,0.36,0c0.54,0,1.08,0,1.62,0c1.14,0,2.279,0,3.42,0c0.18,0,0.359,0,0.54,0
	c0.12,0,0.24,0,0.359,0c0.181,0,0.36,0,0.54,0c0.12,0,0.24,0,0.36,0c0.54,0,1.08,0,1.62,0c0,0.84,0,1.681,0,2.521
	c0,0.42,0,0.84,0,1.26c0,0.36,0,0.72,0,1.08c0.78,0,1.56,0,2.34,0s1.56,0,2.34,0c0,0.24,0,0.479,0,0.72c0,0.181,0,0.36,0,0.54
	c0,0.36,0,0.72,0,1.08c0,0.42,0,0.84,0,1.26c0,0.36,0,0.721,0,1.08c-0.18,0-0.359,0-0.54,0c-0.12,0-0.24,0-0.359,0
	c-0.181,0-0.36,0-0.54,0c-0.12,0-0.24,0-0.36,0c-0.18,0-0.36,0-0.54,0c-0.12,0-0.24,0-0.36,0c-0.18,0-0.359,0-0.54,0
	c-0.119,0-0.239,0-0.359,0c-0.181,0-0.36,0-0.54,0c-0.12,0-0.24,0-0.36,0c-0.18,0-0.359,0-0.54,0c-0.12,0-0.24,0-0.359,0
	c-0.181,0-0.36,0-0.54,0c-0.12,0-0.24,0-0.36,0c-0.18,0-0.36,0-0.54,0c-0.12,0-0.24,0-0.36,0c-0.18,0-0.359,0-0.54,0
	c-0.119,0-0.239,0-0.359,0c-0.181,0-0.36,0-0.54,0c-0.12,0-0.24,0-0.36,0c-0.18,0-0.359,0-0.54,0c-0.12,0-0.24,0-0.359,0
	c-0.181,0-0.36,0-0.54,0c-0.12,0-0.24,0-0.36,0c-0.18,0-0.36,0-0.54,0c-0.12,0-0.24,0-0.36,0c-0.18,0-0.359,0-0.54,0
	c-0.119,0-0.239,0-0.359,0c-0.54,0-1.08,0-1.62,0c0,0.42,0,0.84,0,1.26c0,0.181,0,0.36,0,0.54c0,0.181,0,0.36,0,0.54
	c0,0.24,0,0.48,0,0.721c0,0.18,0,0.359,0,0.54c0,0.18,0,0.359,0,0.54c0,0.18,0,0.359,0,0.54c-0.42,0-0.84,0-1.26,0
	c-0.181,0-0.36,0-0.54,0c-0.181,0-0.36,0-0.54,0c-0.181,0-0.36,0-0.54,0c-0.181,0-0.36,0-0.54,0c-0.181,0-0.36,0-0.54,0
	c-0.24,0-0.48,0-0.72,0c0,0.18,0,0.359,0,0.54c0,0.18,0,0.359,0,0.539c0,0.12,0,0.24,0,0.36c0,0.18,0,0.36,0,0.54
	c0,0.12,0,0.24,0,0.36c0,0.18,0,0.359,0,0.54c0,0.12,0,0.239,0,0.359c0,0.181,0,0.36,0,0.54c0,0.12,0,0.24,0,0.36
	c0,0.18,0,0.36,0,0.54c-0.42,0-0.841,0-1.261,0c-0.359,0-0.72,0-1.08,0c-0.359,0-0.72,0-1.08,0c-0.18,0-0.359,0-0.539,0
	c-0.24,0-0.48,0-0.721,0c0,0.18,0,0.36,0,0.54c0,0.24,0,0.479,0,0.72c0,0.18,0,0.36,0,0.54c0,0.36,0,0.72,0,1.08
	c0,0.42,0,0.84,0,1.26c0,0.181,0,0.36,0,0.54c0,0.181,0,0.36,0,0.54c0,0.24,0,0.48,0,0.72c0,0.181,0,0.36,0,0.54
	c0,0.36,0,0.721,0,1.08c0,0.36,0,0.721,0,1.08c0,0.181,0,0.36,0,0.54c0,0.181,0,0.36,0,0.54c0,0.24,0,0.48,0,0.72
	c0,0.181,0,0.36,0,0.54c0,0.36,0,0.721,0,1.08c0,0.36,0,0.721,0,1.08c0,0.181,0,0.36,0,0.54c0,0.181,0,0.36,0,0.54
	c0,0.24,0,0.48,0,0.72c0,0.181,0,0.36,0,0.54c0,0.36,0,0.721,0,1.08c0,0.721,0,1.44,0,2.16c-0.24,0-0.479,0-0.72,0
	c-0.18,0-0.36,0-0.54,0c-0.36,0-0.72,0-1.08,0s-0.72,0-1.08,0c-0.18,0-0.359,0-0.54,0c-0.24,0-0.479,0-0.72,0c0,0.18,0,0.36,0,0.54
	c0,1.44,0,2.88,0,4.32c-0.42,0-0.84,0-1.26,0c-0.36,0-0.721,0-1.08,0c-0.78,0-1.561,0-2.34,0c0,1.56,0,3.12,0,4.68
	c-0.42,0-0.841,0-1.261,0c-0.18,0-0.359,0-0.54,0c-0.18,0-0.359,0-0.54,0c-0.239,0-0.479,0-0.72,0c-0.18,0-0.359,0-0.54,0
	c-0.359,0-0.72,0-1.08,0c0-1.56,0-3.12,0-4.68c0-0.84,0-1.681,0-2.521c0-0.779,0-1.56,0-2.34c-0.779,0-1.56,0-2.34,0s-1.56,0-2.34,0
	c0-0.24,0-0.479,0-0.72c0-0.18,0-0.36,0-0.54s0-0.36,0-0.54s0-0.36,0-0.54c0-0.24,0-0.48,0-0.72c0-0.181,0-0.36,0-0.54
	c0-0.36,0-0.721,0-1.08c0-0.42,0-0.84,0-1.26c0-0.181,0-0.36,0-0.54c0-0.181,0-0.36,0-0.54c0-0.24,0-0.48,0-0.721
	c0-0.18,0-0.359,0-0.54c0-0.359,0-0.72,0-1.079c0-0.421,0-0.841,0-1.261c0-0.18,0-0.359,0-0.54c0-0.18,0-0.359,0-0.54
	c0-0.239,0-0.479,0-0.72c0-0.18,0-0.36,0-0.54s0-0.36,0-0.54s0-0.359,0-0.54c0-0.42,0-0.84,0-1.26c0-0.18,0-0.36,0-0.54
	s0-0.36,0-0.54c0-0.24,0-0.479,0-0.72c0-0.181,0-0.36,0-0.54c0-0.181,0-0.36,0-0.54s0-0.36,0-0.54c0.78,0,1.56,0,2.34,0
	c0.36,0,0.72,0,1.08,0c0.18,0,0.36,0,0.54,0c0.24,0,0.48,0,0.72,0c0-0.18,0-0.36,0-0.54c0-0.72,0-1.44,0-2.16c0-0.36,0-0.72,0-1.08
	c0-0.18,0-0.359,0-0.54c0-0.12,0-0.24,0-0.359c0-0.24,0-0.48,0-0.721c0-0.18,0-0.359,0-0.54c0-0.359,0-0.72,0-1.08
	c0-0.42,0-0.84,0-1.26c0-0.359,0-0.72,0-1.08c1.5,0,3,0,4.5,0c0.061,0,0.12,0,0.181,0c0-0.18,0-0.359,0-0.54c0-0.72,0-1.439,0-2.16
	c0-0.18,0-0.359,0-0.54c0-0.18,0-0.359,0-0.539c0-0.301,0-0.601,0-0.9c3.12,0,6.239,0,9.359,0c0-0.18,0-0.36,0-0.54
	c0-1.26,0-2.521,0-3.78c0-0.18,0-0.359,0-0.54c-3.12,0-6.239,0-9.359,0s-6.24,0-9.36,0c0-0.72,0-1.439,0-2.16
	c0-0.359,0-0.72,0-1.079c0-0.421,0-0.841,0-1.261c0-0.359,0-0.72,0-1.08c0-0.18,0-0.359,0-0.54c0-0.239,0-0.479,0-0.72
	c0-0.18,0-0.36,0-0.54s0-0.359,0-0.54c0-0.18,0-0.359,0-0.54c0-0.12,0-0.24,0-0.359C4.68,5.04,4.68,4.86,4.68,4.681z"/>
<path fill-rule="evenodd" clip-rule="evenodd" fill="#0A1A3E" d="M32.76,4.681c1.62,0,3.24,0,4.86,0c0,0.42,0,0.84,0,1.26
	c0,0.36,0,0.72,0,1.08c0,0.78,0,1.56,0,2.34c-1.62,0-3.24,0-4.86,0c0-0.78,0-1.56,0-2.34S32.76,5.46,32.76,4.681z"/>
<path fill-rule="evenodd" clip-rule="evenodd" fill="#BB6B5C" d="M37.62,4.681c1.14,0,2.279,0,3.42,0c1.14,0,2.279,0,3.42,0
	c0.54,0,1.08,0,1.62,0c0.119,0,0.239,0,0.359,0c0.181,0,0.36,0,0.54,0c0.12,0,0.24,0,0.36,0c0.18,0,0.359,0,0.54,0
	c0.12,0,0.24,0,0.359,0c0.181,0,0.36,0,0.54,0c0.12,0,0.24,0,0.36,0c0.18,0,0.36,0,0.54,0c0.12,0,0.24,0,0.36,0
	c0.18,0,0.359,0,0.54,0c0.119,0,0.239,0,0.359,0c0.24,0,0.48,0,0.72,0c0,0.239,0,0.479,0,0.72c0,0.18,0,0.36,0,0.54
	c0,0.36,0,0.72,0,1.08c0,0.359,0,0.72,0,1.08c0,0.18,0,0.359,0,0.54c0,0.239,0,0.479,0,0.72c0.181,0,0.36,0,0.54,0
	c1.5,0,3.001,0,4.5,0c1.44,0,2.881,0,4.32,0c0,0.42,0,0.84,0,1.26c0,0.181,0,0.36,0,0.54s0,0.36,0,0.54c0,0.24,0,0.48,0,0.72
	c0,0.181,0,0.36,0,0.54c0,0.181,0,0.36,0,0.54c0,0.181,0,0.36,0,0.54c0.78,0,1.561,0,2.34,0c0.78,0,1.561,0,2.34,0
	c0,0.24,0,0.48,0,0.721c0,0.18,0,0.359,0,0.54c0,0.359,0,0.72,0,1.079c0,0.36,0,0.721,0,1.08c0,0.181,0,0.36,0,0.54
	c0,0.181,0,0.36,0,0.54c0,1.5,0,3,0,4.5c0,0.181,0,0.36,0,0.54c0.24,0,0.48,0,0.721,0c0.18,0,0.359,0,0.54,0c0.359,0,0.72,0,1.08,0
	c0.42,0,0.84,0,1.26,0c0.18,0,0.359,0,0.54,0c0.18,0,0.359,0,0.54,0c0,0.24,0,0.48,0,0.721c0,0.18,0,0.359,0,0.539
	c0,0.36,0,0.721,0,1.08c0,0.42,0,0.841,0,1.261c0,0.359,0,0.72,0,1.08c0,0.42,0,0.84,0,1.26c0,0.359,0,0.72,0,1.08
	c0,0.42,0,0.84,0,1.26c0,0.36,0,0.72,0,1.08c-0.42,0-0.84,0-1.26,0c-0.181,0-0.36,0-0.54,0c-0.181,0-0.36,0-0.54,0
	c-0.42,0-0.841,0-1.261,0c-0.18,0-0.359,0-0.54,0c-0.18,0-0.359,0-0.54,0c0-0.72,0-1.44,0-2.16c0-0.18,0-0.36,0-0.54s0-0.36,0-0.54
	s0-0.36,0-0.54c0-0.12,0-0.24,0-0.359c0-0.181,0-0.36,0-0.54c-0.72,0-1.439,0-2.159,0c-0.181,0-0.36,0-0.54,0
	c-0.181,0-0.36,0-0.54,0c-0.181,0-0.36,0-0.54,0c-0.12,0-0.24,0-0.36,0c-0.18,0-0.36,0-0.54,0c0-0.421,0-0.841,0-1.261
	c0-0.18,0-0.359,0-0.54c0-0.18,0-0.359,0-0.54c0-0.239,0-0.479,0-0.72c0-0.18,0-0.36,0-0.54s0-0.359,0-0.54c0-0.18,0-0.359,0-0.54
	c0-0.42,0-0.84,0-1.26c0-0.18,0-0.36,0-0.54s0-0.36,0-0.54c0-0.24,0-0.479,0-0.72c0-0.181,0-0.36,0-0.54s0-0.36,0-0.54
	s0-0.36,0-0.54c-0.24,0-0.479,0-0.72,0c-0.18,0-0.36,0-0.54,0s-0.36,0-0.54,0s-0.36,0-0.54,0c-0.42,0-0.84,0-1.26,0
	c-0.36,0-0.721,0-1.08,0c0-0.42,0-0.84,0-1.26c0-0.181,0-0.36,0-0.54c0-0.181,0-0.36,0-0.54c0-0.24,0-0.48,0-0.721
	c0-0.18,0-0.359,0-0.539c0-0.181,0-0.36,0-0.54c0-0.12,0-0.24,0-0.36c0-0.061,0-0.12,0-0.18c0-0.061,0-0.12,0-0.181
	c-0.181,0-0.36,0-0.54,0c-0.72,0-1.44,0-2.16,0c-0.36,0-0.72,0-1.08,0c-0.18,0-0.36,0-0.54,0c-0.12,0-0.24,0-0.36,0
	c-0.72,0-1.439,0-2.159,0c-0.36,0-0.721,0-1.08,0c-0.181,0-0.36,0-0.54,0c-0.12,0-0.24,0-0.36,0c-0.18,0-0.36,0-0.54,0
	c0-0.239,0-0.479,0-0.72c0-0.18,0-0.36,0-0.54s0-0.36,0-0.54s0-0.36,0-0.54c0-0.36,0-0.72,0-1.08c0-0.18,0-0.359,0-0.54
	c0-0.12,0-0.24,0-0.359c0-0.061,0-0.12,0-0.181c0-0.06,0-0.12,0-0.18c-0.18,0-0.359,0-0.54,0c-1.5,0-3,0-4.5,0
	c-1.439,0-2.88,0-4.319,0c0-0.78,0-1.56,0-2.34c0-0.36,0-0.72,0-1.08C37.62,5.521,37.62,5.101,37.62,4.681z"/>
<path fill-rule="evenodd" clip-rule="evenodd" fill="#0A1A3E" d="M51.659,4.681c0.24,0,0.48,0,0.721,0c0.18,0,0.359,0,0.54,0
	c0.359,0,0.72,0,1.08,0c0.359,0,0.72,0,1.08,0c0.18,0,0.359,0,0.54,0c0.239,0,0.479,0,0.72,0c0.359,0,0.72,0,1.08,0
	c0.18,0,0.359,0,0.54,0c0.239,0,0.479,0,0.72,0c0.18,0,0.36,0,0.54,0s0.36,0,0.54,0c0.42,0,0.84,0,1.26,0c0,0.18,0,0.359,0,0.54
	c0,0.119,0,0.239,0,0.359c0,0.181,0,0.36,0,0.54c0,0.36,0,0.72,0,1.08c0,0.72,0,1.44,0,2.16c-1.439,0-2.88,0-4.32,0
	c-1.499,0-3,0-4.5,0c-0.18,0-0.359,0-0.54,0c0-0.24,0-0.48,0-0.72c0-0.181,0-0.36,0-0.54c0-0.36,0-0.721,0-1.08
	c0-0.36,0-0.72,0-1.08c0-0.18,0-0.36,0-0.54C51.659,5.16,51.659,4.92,51.659,4.681z"/>
<path fill-rule="evenodd" clip-rule="evenodd" fill="#D97761" d="M32.76,9.36c1.62,0,3.24,0,4.86,0c1.439,0,2.88,0,4.319,0
	c1.5,0,3,0,4.5,0c0.181,0,0.36,0,0.54,0c0,0.06,0,0.12,0,0.18c0,0.061,0,0.12,0,0.181c0,0.119,0,0.239,0,0.359
	c0,0.181,0,0.36,0,0.54c0,0.36,0,0.72,0,1.08c0,0.18,0,0.36,0,0.54s0,0.36,0,0.54s0,0.36,0,0.54c0,0.24,0,0.48,0,0.72
	c0.18,0,0.36,0,0.54,0c0.12,0,0.24,0,0.36,0c0.18,0,0.359,0,0.54,0c0.359,0,0.72,0,1.08,0c0.72,0,1.439,0,2.159,0
	c0.12,0,0.24,0,0.36,0c0.18,0,0.36,0,0.54,0c0.36,0,0.72,0,1.08,0c0.72,0,1.44,0,2.16,0c0.18,0,0.359,0,0.54,0
	c0,0.061,0,0.12,0,0.181c0,0.06,0,0.119,0,0.18c0,0.12,0,0.24,0,0.36c0,0.18,0,0.359,0,0.54c0,0.18,0,0.359,0,0.539
	c0,0.24,0,0.48,0,0.721c0,0.18,0,0.359,0,0.54c0,0.18,0,0.359,0,0.54c0,0.42,0,0.84,0,1.26c0.359,0,0.72,0,1.08,0
	c0.42,0,0.84,0,1.26,0c0.18,0,0.36,0,0.54,0s0.36,0,0.54,0s0.36,0,0.54,0c0.24,0,0.479,0,0.72,0c0,0.18,0,0.36,0,0.54s0,0.36,0,0.54
	s0,0.359,0,0.54c0,0.24,0,0.479,0,0.72c0,0.18,0,0.36,0,0.54s0,0.36,0,0.54c0,0.42,0,0.84,0,1.26c-0.18,0-0.36,0-0.54,0
	c-0.12,0-0.24,0-0.359,0c-0.181,0-0.36,0-0.54,0c-0.12,0-0.24,0-0.36,0c-0.18,0-0.36,0-0.54,0c-0.12,0-0.24,0-0.36,0
	c-0.18,0-0.359,0-0.54,0c-0.119,0-0.239,0-0.359,0c-0.181,0-0.36,0-0.54,0c-0.12,0-0.24,0-0.36,0c-0.18,0-0.36,0-0.54,0
	c-0.12,0-0.24,0-0.359,0c-0.54,0-1.08,0-1.62,0c-0.181,0-0.36,0-0.54,0c-0.12,0-0.24,0-0.36,0c-0.18,0-0.36,0-0.54,0
	c-0.12,0-0.24,0-0.36,0c-0.18,0-0.359,0-0.54,0c-0.119,0-0.239,0-0.359,0c-0.18,0-0.36,0-0.54,0c-0.12,0-0.24,0-0.36,0
	c-0.18,0-0.359,0-0.54,0c-0.12,0-0.239,0-0.359,0c-0.181,0-0.36,0-0.54,0c-0.12,0-0.24,0-0.36,0c-0.54,0-1.08,0-1.62,0
	c0-0.359,0-0.72,0-1.08c0-0.42,0-0.84,0-1.26c0-0.36,0-0.72,0-1.08c0-0.18,0-0.359,0-0.54c0-0.24,0-0.479,0-0.72
	c-0.78,0-1.56,0-2.34,0s-1.56,0-2.34,0c0-0.36,0-0.72,0-1.08c0-0.42,0-0.84,0-1.26c0-0.84,0-1.681,0-2.521c-0.54,0-1.08,0-1.62,0
	c-0.12,0-0.24,0-0.36,0c-0.18,0-0.359,0-0.54,0c-0.119,0-0.239,0-0.359,0c-0.181,0-0.36,0-0.54,0c-1.141,0-2.28,0-3.42,0
	c-0.54,0-1.08,0-1.62,0c-0.12,0-0.24,0-0.36,0c-0.18,0-0.359,0-0.54,0c-0.12,0-0.24,0-0.359,0c-0.181,0-0.36,0-0.54,0
	c-1.141,0-2.28,0-3.42,0c-0.181,0-0.36,0-0.54,0c0-0.18,0-0.359,0-0.54c0-0.12,0-0.239,0-0.359c0-0.181,0-0.36,0-0.54
	c0-0.12,0-0.24,0-0.36c0-0.18,0-0.36,0-0.54c0-0.12,0-0.24,0-0.36c0-0.18,0-0.359,0-0.539c0-0.12,0-0.24,0-0.36
	c0-0.18,0-0.36,0-0.54s0-0.36,0-0.54c0.239,0,0.479,0,0.72,0c0.18,0,0.359,0,0.54,0c0.18,0,0.359,0,0.54,0c0.18,0,0.359,0,0.54,0
	c0.18,0,0.359,0,0.54,0c0.18,0,0.359,0,0.54,0C31.92,9.36,32.34,9.36,32.76,9.36z"/>
<path fill-rule="evenodd" clip-rule="evenodd" fill="#0A1A3E" d="M61.02,9.36c0.24,0,0.48,0,0.72,0c0.181,0,0.36,0,0.54,0
	c0.181,0,0.36,0,0.54,0c0.181,0,0.36,0,0.54,0c0.181,0,0.36,0,0.54,0c0.181,0,0.36,0,0.54,0c0.42,0,0.84,0,1.26,0
	c0,0.18,0,0.36,0,0.54c0,0.12,0,0.24,0,0.36c0,0.18,0,0.359,0,0.54c0,0.18,0,0.359,0,0.539c0,0.181,0,0.36,0,0.54
	c0,0.721,0,1.44,0,2.16c-0.779,0-1.56,0-2.34,0c-0.779,0-1.56,0-2.34,0c0-0.18,0-0.359,0-0.54c0-0.18,0-0.359,0-0.54
	c0-0.18,0-0.359,0-0.54c0-0.239,0-0.479,0-0.72c0-0.18,0-0.36,0-0.54s0-0.359,0-0.54C61.02,10.2,61.02,9.78,61.02,9.36z"/>
<path fill-rule="evenodd" clip-rule="evenodd" fill="#0A1A3E" d="M4.68,14.04c3.12,0,6.24,0,9.36,0c0,0.84,0,1.681,0,2.521
	c0,0.24,0,0.479,0,0.72c0,0.18,0,0.36,0,0.54s0,0.36,0,0.54s0,0.36,0,0.54c-0.78,0-1.561,0-2.341,0c-0.72,0-1.439,0-2.159,0
	c-0.061,0-0.12,0-0.181,0c0,0.18,0,0.36,0,0.54c0,0.72,0,1.439,0,2.16c0,0.359,0,0.72,0,1.08c0,0.3,0,0.6,0,0.899
	c0,0.36,0,0.721,0,1.08c0,0.42,0,0.84,0,1.26c0,0.36,0,0.721,0,1.08c0,0.181,0,0.36,0,0.54c0,0.24,0,0.48,0,0.721
	c-0.42,0-0.84,0-1.26,0c-0.18,0-0.36,0-0.54,0s-0.36,0-0.54,0c-0.24,0-0.479,0-0.72,0c-0.18,0-0.36,0-0.54,0c-0.36,0-0.72,0-1.08,0
	c0-0.54,0-1.08,0-1.62c0-0.12,0-0.24,0-0.36c0-0.18,0-0.36,0-0.54c0-0.12,0-0.24,0-0.36c0-0.18,0-0.359,0-0.54
	c0-0.539,0-1.079,0-1.619c0-0.301,0-0.601,0-0.9s0-0.6,0-0.9c0-0.54,0-1.08,0-1.619c0-0.301,0-0.601,0-0.9c0-0.12,0-0.24,0-0.36
	c0-0.18,0-0.359,0-0.54c0-0.54,0-1.08,0-1.62c0-0.119,0-0.239,0-0.359c0-0.181,0-0.36,0-0.54c0-0.12,0-0.24,0-0.36
	c0-0.18,0-0.359,0-0.54C4.68,14.4,4.68,14.221,4.68,14.04z"/>
<path fill-rule="evenodd" clip-rule="evenodd" fill="#D97761" d="M14.04,14.04c3.12,0,6.239,0,9.359,0c0,0.181,0,0.36,0,0.54
	c0,1.26,0,2.521,0,3.78c0,0.18,0,0.36,0,0.54c-3.12,0-6.239,0-9.359,0c0-0.18,0-0.36,0-0.54s0-0.36,0-0.54s0-0.36,0-0.54
	c0-0.24,0-0.479,0-0.72C14.04,15.721,14.04,14.88,14.04,14.04z"/>
<path fill-rule="evenodd" clip-rule="evenodd" fill="#0A1A3E" d="M65.699,14.04c0.24,0,0.48,0,0.721,0c0.18,0,0.359,0,0.54,0
	c0.359,0,0.72,0,1.08,0c0.18,0,0.359,0,0.54,0c0.18,0,0.359,0,0.54,0c0.42,0,0.84,0,1.26,0c0,0.181,0,0.36,0,0.54
	c0,0.181,0,0.36,0,0.54c0,0.181,0,0.36,0,0.54c0,0.36,0,0.72,0,1.08s0,0.72,0,1.08c0,0.42,0,0.84,0,1.26c0,0.721,0,1.44,0,2.16
	c0,0.36,0,0.72,0,1.08c0,0.18,0,0.36,0,0.54c0,0.24,0,0.479,0,0.72c-0.181,0-0.36,0-0.54,0c-0.181,0-0.36,0-0.54,0
	c-0.42,0-0.84,0-1.26,0c-0.36,0-0.721,0-1.08,0c-0.181,0-0.36,0-0.54,0c-0.24,0-0.48,0-0.721,0c0-0.18,0-0.359,0-0.54
	c0-1.5,0-3,0-4.5c0-0.18,0-0.359,0-0.54c0-0.18,0-0.359,0-0.54c0-0.359,0-0.72,0-1.08c0-0.359,0-0.72,0-1.079c0-0.181,0-0.36,0-0.54
	C65.699,14.521,65.699,14.28,65.699,14.04z"/>
<path fill-rule="evenodd" clip-rule="evenodd" fill="#D97761" d="M14.04,18.9c0,0.3,0,0.6,0,0.9c0,0.18,0,0.359,0,0.539
	c0,0.181,0,0.36,0,0.54c0,0.721,0,1.44,0,2.16c0,0.181,0,0.36,0,0.54c-0.061,0-0.12,0-0.181,0c-1.5,0-3,0-4.5,0c0-0.3,0-0.6,0-0.899
	c0-0.36,0-0.721,0-1.08c0-0.721,0-1.44,0-2.16c0-0.18,0-0.36,0-0.54c0.061,0,0.12,0,0.181,0c0.72,0,1.439,0,2.159,0
	C12.479,18.9,13.26,18.9,14.04,18.9z"/>
<path fill-rule="evenodd" clip-rule="evenodd" fill="#FDFEFF" d="M46.979,23.58c0.54,0,1.08,0,1.62,0c0.12,0,0.24,0,0.36,0
	c0.18,0,0.359,0,0.54,0c0.12,0,0.239,0,0.359,0c0.181,0,0.36,0,0.54,0c0.12,0,0.24,0,0.36,0c0.18,0,0.36,0,0.54,0
	c0.12,0,0.24,0,0.359,0c0.181,0,0.36,0,0.54,0c0.12,0,0.24,0,0.36,0c0.18,0,0.36,0,0.54,0c0.12,0,0.24,0,0.36,0
	c0.18,0,0.359,0,0.54,0c0.54,0,1.08,0,1.62,0c0.119,0,0.239,0,0.359,0c0.18,0,0.36,0,0.54,0c0.12,0,0.24,0,0.36,0
	c0.18,0,0.359,0,0.54,0c0.12,0,0.24,0,0.359,0c0.181,0,0.36,0,0.54,0c0.12,0,0.24,0,0.36,0c0.18,0,0.36,0,0.54,0
	c0.12,0,0.24,0,0.36,0c0.18,0,0.359,0,0.54,0c0.119,0,0.239,0,0.359,0c0.18,0,0.36,0,0.54,0c0,0.181,0,0.36,0,0.54
	c0,0.181,0,0.36,0,0.54s0,0.36,0,0.54c0,0.24,0,0.48,0,0.72c0,0.181,0,0.36,0,0.54c0,0.181,0,0.36,0,0.54c0,0.42,0,0.84,0,1.261
	c0.18,0,0.36,0,0.54,0c0.12,0,0.24,0,0.36,0c0.18,0,0.359,0,0.54,0c0.18,0,0.359,0,0.54,0c0.18,0,0.359,0,0.54,0
	c0.72,0,1.439,0,2.159,0c0,0.18,0,0.359,0,0.54c0,0.119,0,0.239,0,0.359c0,0.18,0,0.36,0,0.54s0,0.36,0,0.54s0,0.36,0,0.54
	c0,0.72,0,1.44,0,2.16c-0.359,0-0.72,0-1.079,0c-0.181,0-0.36,0-0.54,0c-0.181,0-0.36,0-0.54,0c-0.36,0-0.721,0-1.08,0
	c-0.181,0-0.36,0-0.54,0c-0.12,0-0.24,0-0.36,0c-0.18,0-0.36,0-0.54,0c0,0.42,0,0.84,0,1.26c0,0.18,0,0.36,0,0.54s0,0.36,0,0.54
	c0,0.24,0,0.48,0,0.72c0,0.181,0,0.36,0,0.54c0,0.181,0,0.36,0,0.54c0,0.181,0,0.36,0,0.54c-0.72,0-1.439,0-2.16,0
	c-0.359,0-0.72,0-1.08,0c-0.18,0-0.359,0-0.54,0c-0.119,0-0.239,0-0.359,0c-0.181,0-0.36,0-0.54,0c0,0.42,0,0.84,0,1.26
	c0,0.181,0,0.36,0,0.54c0,0.181,0,0.36,0,0.54c0,0.24,0,0.48,0,0.721c0,0.18,0,0.359,0,0.54c0,0.18,0,0.359,0,0.54
	c0,0.18,0,0.359,0,0.54c-0.42,0-0.84,0-1.26,0c-0.36,0-0.721,0-1.08,0c-0.42,0-0.84,0-1.261,0c-0.359,0-0.72,0-1.08,0
	c0-0.24,0-0.48,0-0.721c0-0.18,0-0.359,0-0.54c0-0.18,0-0.359,0-0.54c0-0.18,0-0.359,0-0.54c0-0.359,0-0.72,0-1.08
	c0-0.18,0-0.359,0-0.54c0-0.239,0-0.479,0-0.72c-0.18,0-0.359,0-0.539,0c-0.721,0-1.44,0-2.16,0c-0.36,0-0.721,0-1.08,0
	c-0.181,0-0.36,0-0.54,0c-0.12,0-0.24,0-0.36,0c0-0.78,0-1.56,0-2.34c0-0.36,0-0.72,0-1.08c0-0.18,0-0.36,0-0.54
	c0-0.12,0-0.24,0-0.359c0-0.061,0-0.12,0-0.181c0-0.06,0-0.12,0-0.18c-0.18,0-0.359,0-0.54,0c-0.12,0-0.24,0-0.359,0
	c-0.181,0-0.36,0-0.54,0c-0.12,0-0.24,0-0.36,0c-0.18,0-0.36,0-0.54,0c-0.12,0-0.24,0-0.36,0c-0.18,0-0.359,0-0.54,0
	c-0.119,0-0.239,0-0.359,0c-0.181,0-0.36,0-0.54,0c-0.12,0-0.24,0-0.36,0c-0.18,0-0.359,0-0.54,0c-0.12,0-0.24,0-0.359,0
	c-0.181,0-0.36,0-0.54,0c-0.12,0-0.24,0-0.36,0c-0.24,0-0.48,0-0.72,0c-1.141,0-2.28,0-3.42,0c-1.141,0-2.28,0-3.42,0
	c-0.12,0-0.24,0-0.36,0c0,0.42,0,0.84,0,1.26c0,0.18,0,0.36,0,0.54s0,0.36,0,0.54c0,0.24,0,0.48,0,0.72c0,0.181,0,0.36,0,0.54
	c0,0.181,0,0.36,0,0.54c0,0.181,0,0.36,0,0.54c-0.42,0-0.84,0-1.26,0c-0.181,0-0.36,0-0.54,0c-0.181,0-0.36,0-0.54,0
	c-0.181,0-0.36,0-0.54,0c-0.181,0-0.36,0-0.54,0c-0.181,0-0.36,0-0.54,0c-0.12,0-0.24,0-0.36,0c-0.06,0-0.12,0-0.18,0
	c-0.061,0-0.12,0-0.18,0c0,0.181,0,0.36,0,0.54c0,0.42,0,0.84,0,1.26c0,0.181,0,0.36,0,0.54c0,0.181,0,0.36,0,0.54
	c0,0.36,0,0.721,0,1.08c0,0.181,0,0.36,0,0.54c0,0.181,0,0.36,0,0.54c0,0.72,0,1.44,0,2.16s0,1.44,0,2.16c0,1.56,0,3.12,0,4.68
	c-0.24,0-0.48,0-0.721,0c-0.18,0-0.359,0-0.54,0c-0.359,0-0.72,0-1.08,0c-0.42,0-0.84,0-1.26,0c-0.359,0-0.72,0-1.08,0
	c0-0.72,0-1.439,0-2.16c0-0.359,0-0.72,0-1.08c0-0.18,0-0.359,0-0.54c0-0.239,0-0.479,0-0.72c0-0.18,0-0.359,0-0.54
	c0-0.18,0-0.359,0-0.54c0-0.359,0-0.72,0-1.08c0-0.359,0-0.72,0-1.08c0-0.18,0-0.359,0-0.54c0-0.239,0-0.479,0-0.72
	c0-0.18,0-0.359,0-0.54c0-0.18,0-0.359,0-0.54c0-0.359,0-0.72,0-1.08c0-0.359,0-0.72,0-1.08c0-0.18,0-0.359,0-0.54
	c0-0.239,0-0.479,0-0.72c0-0.18,0-0.359,0-0.54c0-0.18,0-0.359,0-0.54c0-0.42,0-0.84,0-1.26c0-0.36,0-0.72,0-1.08
	c0-0.18,0-0.36,0-0.54c0-0.24,0-0.479,0-0.72c0-0.18,0-0.36,0-0.54c0.24,0,0.48,0,0.721,0c0.18,0,0.359,0,0.539,0
	c0.36,0,0.721,0,1.08,0c0.36,0,0.721,0,1.08,0c0.42,0,0.841,0,1.261,0c0-0.18,0-0.36,0-0.54c0-0.12,0-0.24,0-0.36
	c0-0.18,0-0.359,0-0.54c0-0.12,0-0.239,0-0.359c0-0.181,0-0.36,0-0.54c0-0.12,0-0.24,0-0.36c0-0.18,0-0.36,0-0.54
	c0-0.12,0-0.24,0-0.36c0-0.18,0-0.359,0-0.539c0-0.181,0-0.36,0-0.54c0.239,0,0.479,0,0.72,0c0.18,0,0.359,0,0.54,0
	c0.18,0,0.359,0,0.54,0c0.18,0,0.359,0,0.54,0c0.18,0,0.359,0,0.54,0c0.18,0,0.359,0,0.54,0c0.42,0,0.84,0,1.26,0
	c0-0.181,0-0.36,0-0.54c0-0.181,0-0.36,0-0.54c0-0.181,0-0.36,0-0.54c0-0.24,0-0.48,0-0.721c0-0.18,0-0.359,0-0.54
	c0-0.18,0-0.359,0-0.54c0-0.42,0-0.84,0-1.26c0.54,0,1.08,0,1.62,0c0.12,0,0.24,0,0.359,0c0.181,0,0.36,0,0.54,0
	c0.12,0,0.24,0,0.36,0c0.18,0,0.36,0,0.54,0c0.12,0,0.24,0,0.36,0c0.18,0,0.359,0,0.54,0c0.119,0,0.239,0,0.359,0
	c0.181,0,0.36,0,0.54,0c0.12,0,0.24,0,0.36,0c0.18,0,0.359,0,0.54,0c0.12,0,0.24,0,0.359,0c0.181,0,0.36,0,0.54,0
	c0.12,0,0.24,0,0.36,0c0.18,0,0.36,0,0.54,0c0.12,0,0.24,0,0.36,0c0.18,0,0.359,0,0.54,0c0.119,0,0.239,0,0.359,0
	c0.181,0,0.36,0,0.54,0c0.12,0,0.24,0,0.36,0c0.18,0,0.359,0,0.54,0c0.12,0,0.24,0,0.359,0c0.181,0,0.36,0,0.54,0
	c0.12,0,0.24,0,0.36,0c0.18,0,0.36,0,0.54,0c0.12,0,0.24,0,0.36,0c0.18,0,0.359,0,0.54,0c0.119,0,0.239,0,0.359,0
	C46.62,23.58,46.8,23.58,46.979,23.58z"/>
<path fill-rule="evenodd" clip-rule="evenodd" fill="#0A1A3E" d="M70.38,23.58c0.06,0,0.12,0,0.18,0c1.5,0,3,0,4.5,0
	c0,0.181,0,0.36,0,0.54c0,1.44,0,2.88,0,4.32c0,1.5,0,3,0,4.5c-0.42,0-0.84,0-1.26,0c-0.18,0-0.36,0-0.54,0s-0.36,0-0.54,0
	c-0.42,0-0.84,0-1.26,0c-0.181,0-0.36,0-0.54,0c-0.181,0-0.36,0-0.54,0c0-0.36,0-0.72,0-1.08c0-0.42,0-0.84,0-1.26
	c0-0.36,0-0.721,0-1.08c0-0.42,0-0.84,0-1.26c0-0.36,0-0.721,0-1.08c0-0.42,0-0.841,0-1.261c0-0.359,0-0.72,0-1.08
	c0-0.18,0-0.359,0-0.539C70.38,24.061,70.38,23.82,70.38,23.58z"/>
<path fill-rule="evenodd" clip-rule="evenodd" fill="#0A1A3E" d="M4.68,28.261c0,0.18,0,0.359,0,0.54c0,0.119,0,0.239,0,0.359
	c0,0.18,0,0.36,0,0.54c0,0.36,0,0.72,0,1.08c0,0.72,0,1.44,0,2.16c0,0.18,0,0.36,0,0.54s0,0.359,0,0.54c0,0.18,0,0.359,0,0.54
	c0,0.24,0,0.479,0,0.72c0,0.18,0,0.36,0,0.54s0,0.36,0,0.54c0,0.42,0,0.84,0,1.26c0,0.181,0,0.36,0,0.54s0,0.36,0,0.54
	s0,0.36,0,0.54c0,0.24,0,0.48,0,0.72c0,0.181,0,0.36,0,0.54c0,0.181,0,0.36,0,0.54c0,0.42,0,0.84,0,1.261c0,0.359,0,0.72,0,1.079
	c0,0.181,0,0.36,0,0.54c0,0.24,0,0.48,0,0.721c0,0.18,0,0.359,0,0.54c0,0.18,0,0.359,0,0.54c0,0.42,0,0.84,0,1.26
	c0,0.359,0,0.72,0,1.08c0,0.18,0,0.359,0,0.54c0,0.239,0,0.479,0,0.72c0,0.18,0,0.36,0,0.54s0,0.36,0,0.54s0,0.36,0,0.54
	c0,0.24,0,0.479,0,0.72c0,1.62,0,3.24,0,4.86c-0.78,0-1.56,0-2.34,0s-1.561,0-2.34,0c0-2.28,0-4.561,0-6.84C0,47.34,0,45,0,42.66
	c0-0.54,0-1.08,0-1.62c0-0.12,0-0.239,0-0.359c0-0.181,0-0.36,0-0.54c0-0.12,0-0.24,0-0.36c0-0.18,0-0.36,0-0.54
	c0-0.54,0-1.08,0-1.62c0-0.12,0-0.24,0-0.359c0-0.181,0-0.36,0-0.54c0-0.12,0-0.24,0-0.36c0-0.18,0-0.36,0-0.54
	c0-1.14,0-2.28,0-3.42c0-0.12,0-0.24,0-0.36c0-0.18,0-0.359,0-0.54c0-0.12,0-0.239,0-0.359c0-0.181,0-0.36,0-0.54
	c0-0.12,0-0.24,0-0.36c0-0.18,0-0.36,0-0.54c0-0.12,0-0.24,0-0.36c0-0.18,0-0.359,0-0.539c0-0.181,0-0.36,0-0.54
	c0.12,0,0.239,0,0.359,0c0.181,0,0.36,0,0.54,0c0.181,0,0.36,0,0.54,0c0.181,0,0.36,0,0.54,0s0.36,0,0.54,0s0.36,0,0.54,0
	s0.36,0,0.54,0c0.24,0,0.48,0,0.72,0C4.439,28.261,4.56,28.261,4.68,28.261z"/>
<path fill-rule="evenodd" clip-rule="evenodd" fill="#D97761" d="M4.68,28.261c0.36,0,0.72,0,1.08,0c0.18,0,0.36,0,0.54,0
	c0.24,0,0.479,0,0.72,0c0.18,0,0.36,0,0.54,0s0.36,0,0.54,0c0.42,0,0.84,0,1.26,0c0,0.119,0,0.239,0,0.359c0,0.181,0,0.36,0,0.54
	c0,0.36,0,0.72,0,1.08c0,0.72,0,1.44,0,2.16c0,0.18,0,0.36,0,0.54c-0.239,0-0.479,0-0.72,0c-0.18,0-0.36,0-0.54,0
	c-0.36,0-0.72,0-1.08,0c-0.78,0-1.56,0-2.34,0c0-0.72,0-1.44,0-2.16c0-0.36,0-0.72,0-1.08c0-0.18,0-0.36,0-0.54
	c0-0.12,0-0.24,0-0.359C4.68,28.62,4.68,28.44,4.68,28.261z"/>
<path fill-rule="evenodd" clip-rule="evenodd" fill="#0A1A3E" d="M46.979,37.62c-0.18,0-0.359,0-0.54,0c-0.12,0-0.24,0-0.359,0
	c-0.181,0-0.36,0-0.54,0c-0.181,0-0.36,0-0.54,0c-0.181,0-0.36,0-0.54,0c-0.24,0-0.48,0-0.721,0c-0.18,0-0.359,0-0.54,0
	c-0.18,0-0.359,0-0.54,0c-0.18,0-0.359,0-0.539,0c-1.5,0-3,0-4.5,0c0,0.42,0,0.84,0,1.26c0,0.36,0,0.721,0,1.08
	c0,0.42,0,0.841,0,1.261c0,0.359,0,0.72,0,1.08c0,1.56,0,3.119,0,4.68c-3.181,0-6.36,0-9.54,0c0-0.72,0-1.44,0-2.16s0-1.44,0-2.16
	c0-0.18,0-0.359,0-0.54c0-0.18,0-0.359,0-0.54c0-0.359,0-0.72,0-1.08c0-0.18,0-0.359,0-0.54c0-0.18,0-0.359,0-0.54
	c0-0.42,0-0.84,0-1.26c0-0.18,0-0.359,0-0.54c0.06,0,0.119,0,0.18,0c0.06,0,0.12,0,0.18,0c0.12,0,0.24,0,0.36,0
	c0.18,0,0.359,0,0.54,0c0.18,0,0.359,0,0.54,0c0.18,0,0.359,0,0.54,0c0.18,0,0.359,0,0.54,0c0.18,0,0.359,0,0.54,0
	c0.42,0,0.84,0,1.26,0c0-0.18,0-0.359,0-0.54c0-0.18,0-0.359,0-0.54c0-0.18,0-0.359,0-0.54c0-0.239,0-0.479,0-0.72
	c0-0.18,0-0.36,0-0.54s0-0.36,0-0.54c0-0.42,0-0.84,0-1.26c0.12,0,0.24,0,0.36,0c1.14,0,2.279,0,3.42,0c1.14,0,2.279,0,3.42,0
	c0.239,0,0.479,0,0.72,0c0.12,0,0.24,0,0.36,0c0.18,0,0.359,0,0.54,0c0.119,0,0.239,0,0.359,0c0.181,0,0.36,0,0.54,0
	c0.12,0,0.24,0,0.36,0c0.18,0,0.359,0,0.54,0c0.12,0,0.24,0,0.359,0c0.181,0,0.36,0,0.54,0c0.12,0,0.24,0,0.36,0
	c0.18,0,0.36,0,0.54,0c0.12,0,0.24,0,0.36,0c0.18,0,0.359,0,0.54,0c0.119,0,0.239,0,0.359,0c0.181,0,0.36,0,0.54,0
	c0,0.06,0,0.12,0,0.18c0,0.061,0,0.12,0,0.181c0,0.119,0,0.239,0,0.359c0,0.18,0,0.36,0,0.54c0,0.36,0,0.72,0,1.08
	C46.979,36.061,46.979,36.84,46.979,37.62z"/>
<path fill-rule="evenodd" clip-rule="evenodd" fill="#0A1A3E" d="M65.699,32.94c0.181,0,0.36,0,0.54,0c0.181,0,0.36,0,0.54,0
	c0.42,0,0.841,0,1.261,0c0.18,0,0.359,0,0.54,0c0.18,0,0.359,0,0.54,0c0.42,0,0.84,0,1.26,0c0,0.24,0,0.479,0,0.72
	c0,0.18,0,0.36,0,0.54c0,0.36,0,0.72,0,1.08c0,0.42,0,0.84,0,1.26c0,0.36,0,0.721,0,1.08c-0.42,0-0.84,0-1.26,0
	c-0.181,0-0.36,0-0.54,0c-0.181,0-0.36,0-0.54,0c-0.181,0-0.36,0-0.54,0c-0.181,0-0.36,0-0.54,0c-0.181,0-0.36,0-0.54,0
	c-0.12,0-0.24,0-0.36,0c-0.06,0-0.12,0-0.18,0c-0.061,0-0.12,0-0.181,0c0,0.181,0,0.36,0,0.54c0,0.72,0,1.44,0,2.16
	c0,0.18,0,0.36,0,0.54s0,0.36,0,0.54c0,0.3,0,0.6,0,0.9c-1.56,0-3.119,0-4.68,0c-1.56,0-3.12,0-4.68,0c0-0.181,0-0.36,0-0.54
	c0-0.181,0-0.36,0-0.54c0-0.181,0-0.36,0-0.54c0-0.24,0-0.48,0-0.721c0-0.18,0-0.359,0-0.54c0-0.18,0-0.359,0-0.54
	c0-0.42,0-0.84,0-1.26c0.18,0,0.359,0,0.54,0c0.12,0,0.24,0,0.359,0c0.181,0,0.36,0,0.54,0c0.36,0,0.721,0,1.08,0
	c0.721,0,1.44,0,2.16,0c0-0.18,0-0.359,0-0.54c0-0.18,0-0.359,0-0.54c0-0.18,0-0.359,0-0.54c0-0.239,0-0.479,0-0.72
	c0-0.18,0-0.36,0-0.54s0-0.36,0-0.54c0-0.42,0-0.84,0-1.26c0.18,0,0.36,0,0.54,0c0.12,0,0.24,0,0.36,0c0.18,0,0.359,0,0.54,0
	c0.359,0,0.72,0,1.08,0c0.18,0,0.359,0,0.54,0c0.18,0,0.359,0,0.54,0C64.979,32.94,65.34,32.94,65.699,32.94z"/>
<path fill-rule="evenodd" clip-rule="evenodd" fill="#BB6B5C" d="M70.38,32.94c0.18,0,0.359,0,0.54,0c0.18,0,0.359,0,0.54,0
	c0.42,0,0.84,0,1.26,0c0.18,0,0.36,0,0.54,0s0.36,0,0.54,0c0.42,0,0.84,0,1.26,0c0,0.72,0,1.439,0,2.16c0,0.359,0,0.72,0,1.08
	c0,0.18,0,0.359,0,0.54c0,0.119,0,0.239,0,0.359c0,0.181,0,0.36,0,0.54c-0.42,0-0.84,0-1.26,0c-0.18,0-0.36,0-0.54,0s-0.36,0-0.54,0
	c-0.24,0-0.48,0-0.72,0c-0.181,0-0.36,0-0.54,0c-0.181,0-0.36,0-0.54,0c-0.181,0-0.36,0-0.54,0c0-0.359,0-0.72,0-1.08
	c0-0.42,0-0.84,0-1.26c0-0.36,0-0.72,0-1.08c0-0.18,0-0.36,0-0.54C70.38,33.42,70.38,33.181,70.38,32.94z"/>
<path fill-rule="evenodd" clip-rule="evenodd" fill="#0A1A3E" d="M75.06,32.94c1.62,0,3.24,0,4.86,0c0,0.12,0,0.24,0,0.36
	c0,0.119,0,0.239,0,0.359c0,0.18,0,0.36,0,0.54c0,0.36,0,0.72,0,1.08c0,0.12,0,0.24,0,0.36c0,0.18,0,0.359,0,0.54
	c0,0.18,0,0.359,0,0.54c0,0.18,0,0.359,0,0.54c0,0.119,0,0.239,0,0.359c0,0.181,0,0.36,0,0.54c0,0.36,0,0.72,0,1.08
	c0,0.18,0,0.36,0,0.54s0,0.36,0,0.54s0,0.36,0,0.54s0,0.36,0,0.54c0,0.12,0,0.24,0,0.36c0,0.18,0,0.359,0,0.54
	c0,0.359,0,0.72,0,1.079c0,0.301,0,0.601,0,0.9c0,0.18,0,0.36,0,0.54c0,0.3,0,0.6,0,0.9c0,0.18,0,0.359,0,0.54
	c0,0.359,0,0.72,0,1.079c0,0.181,0,0.36,0,0.54c0,0.181,0,0.36,0,0.54c0,0.181,0,0.36,0,0.54c0,0.301,0,0.601,0,0.9
	c0,0.18,0,0.36,0,0.54c0,0.36,0,0.72,0,1.08c0,0.12,0,0.24,0,0.359c0,0.181,0,0.36,0,0.54c0,0.181,0,0.36,0,0.54
	c0,0.181,0,0.36,0,0.54c0,0.12,0,0.24,0,0.36c0,0.18,0,0.36,0,0.54c0,0.36,0,0.72,0,1.08c0,0.18,0,0.36,0,0.54s0,0.359,0,0.54
	c0,0.18,0,0.359,0,0.54c0,0.18,0,0.359,0,0.54c0,0.12,0,0.239,0,0.359c0,0.181,0,0.36,0,0.54c0,0.36,0,0.721,0,1.08
	c0,0.181,0,0.36,0,0.54c0,0.181,0,0.36,0,0.54s0,0.36,0,0.54s0,0.36,0,0.54c0,0.12,0,0.24,0,0.36c0,0.18,0,0.359,0,0.54
	c0,0.359,0,0.72,0,1.08c0,0.72,0,1.439,0,2.159c-1.62,0-3.24,0-4.86,0c0-0.18,0-0.359,0-0.54c0-0.119,0-0.239,0-0.359
	c0-0.18,0-0.36,0-0.54c0-0.12,0-0.24,0-0.36c0-0.18,0-0.359,0-0.54c0-0.12,0-0.239,0-0.359c0-0.181,0-0.36,0-0.54
	c0-0.12,0-0.24,0-0.36c0-0.18,0-0.36,0-0.54c0-0.12,0-0.24,0-0.36c0-0.18,0-0.359,0-0.54c0-0.119,0-0.239,0-0.359
	c0-0.18,0-0.36,0-0.54c0-0.12,0-0.24,0-0.36c0-0.18,0-0.359,0-0.54c0-0.12,0-0.239,0-0.359c0-0.181,0-0.36,0-0.54
	c0-0.12,0-0.24,0-0.36c0-0.18,0-0.36,0-0.54c0-0.12,0-0.24,0-0.36c0-0.18,0-0.359,0-0.54c0-0.119,0-0.239,0-0.359
	c0-0.18,0-0.36,0-0.54c0-0.12,0-0.24,0-0.36c0-0.6,0-1.2,0-1.8c0-0.54,0-1.08,0-1.62c-0.24,0-0.479,0-0.72,0c-0.181,0-0.36,0-0.54,0
	s-0.36,0-0.54,0s-0.36,0-0.54,0c-0.42,0-0.84,0-1.26,0c-0.181,0-0.36,0-0.54,0c-0.181,0-0.36,0-0.54,0c0-0.24,0-0.479,0-0.72
	c0-0.18,0-0.36,0-0.54c0-0.36,0-0.72,0-1.08c0-0.42,0-0.84,0-1.26c0-0.36,0-0.721,0-1.08c0-0.24,0-0.48,0-0.72
	c0-0.181,0-0.36,0-0.54c0-0.36,0-0.721,0-1.08c0-0.42,0-0.84,0-1.261c0-0.359,0-0.72,0-1.079c0-0.421,0-0.841,0-1.261
	c0-0.18,0-0.359,0-0.54c0-0.18,0-0.359,0-0.54c0-0.42,0-0.84,0-1.26c0-0.18,0-0.36,0-0.54s0-0.359,0-0.54c0.18,0,0.359,0,0.54,0
	c0.18,0,0.359,0,0.54,0c0.18,0,0.359,0,0.54,0c0.239,0,0.479,0,0.72,0c0.18,0,0.36,0,0.54,0s0.36,0,0.54,0c0.42,0,0.84,0,1.26,0
	c0-0.18,0-0.359,0-0.54c0-0.12,0-0.24,0-0.359c0-0.181,0-0.36,0-0.54c0-0.36,0-0.721,0-1.08C75.06,34.38,75.06,33.66,75.06,32.94z"
	/>
<path fill-rule="evenodd" clip-rule="evenodd" fill="#FDFEFF" d="M46.979,37.62c0,0.181,0,0.36,0,0.54c0,0.12,0,0.24,0,0.36
	c0,0.18,0,0.359,0,0.54c0,0.359,0,0.72,0,1.08c0,0.72,0,1.439,0,2.16c-1.56,0-3.12,0-4.68,0c-1.561,0-3.12,0-4.68,0
	c0-0.36,0-0.721,0-1.08c0-0.42,0-0.841,0-1.261c0-0.359,0-0.72,0-1.08c0-0.42,0-0.84,0-1.26c1.5,0,3,0,4.5,0c0.18,0,0.359,0,0.539,0
	c0.181,0,0.36,0,0.54,0c0.181,0,0.36,0,0.54,0c0.24,0,0.48,0,0.721,0c0.18,0,0.359,0,0.54,0c0.18,0,0.359,0,0.54,0
	c0.18,0,0.359,0,0.54,0c0.119,0,0.239,0,0.359,0C46.62,37.62,46.8,37.62,46.979,37.62z"/>
<path fill-rule="evenodd" clip-rule="evenodd" fill="#0A1A3E" d="M46.979,37.62c0.12,0,0.24,0,0.36,0c0.18,0,0.359,0,0.54,0
	c0.359,0,0.72,0,1.08,0c0.72,0,1.439,0,2.16,0c0.18,0,0.359,0,0.539,0c0,0.24,0,0.48,0,0.72c0,0.181,0,0.36,0,0.54
	c0,0.36,0,0.721,0,1.08c0,0.181,0,0.36,0,0.54c0,0.181,0,0.36,0,0.54c0,0.181,0,0.36,0,0.54c0,0.24,0,0.48,0,0.721
	c-0.42,0-0.84,0-1.26,0c-0.359,0-0.72,0-1.08,0c-0.42,0-0.84,0-1.26,0c-0.36,0-0.72,0-1.08,0c0-0.721,0-1.44,0-2.16
	c0-0.36,0-0.721,0-1.08c0-0.181,0-0.36,0-0.54c0-0.12,0-0.24,0-0.36C46.979,37.98,46.979,37.801,46.979,37.62z"/>
<path fill-rule="evenodd" clip-rule="evenodd" fill="#FDFEFF" d="M70.38,37.62c0,0.181,0,0.36,0,0.54s0,0.36,0,0.54
	c0,0.42,0,0.84,0,1.26c0,0.181,0,0.36,0,0.54c0,0.181,0,0.36,0,0.54c0,0.42,0,0.84,0,1.261c0,0.359,0,0.72,0,1.079
	c0,0.421,0,0.841,0,1.261c0,0.359,0,0.72,0,1.08c0,0.18,0,0.359,0,0.54c0,0.239,0,0.479,0,0.72c-0.24,0-0.48,0-0.721,0
	c-0.18,0-0.359,0-0.539,0c-0.181,0-0.36,0-0.54,0c-0.181,0-0.36,0-0.54,0c-0.42,0-0.841,0-1.261,0c-0.18,0-0.359,0-0.54,0
	c-0.18,0-0.359,0-0.54,0c0-0.24,0-0.48,0-0.72c0-0.181,0-0.36,0-0.54c0-0.36,0-0.721,0-1.08c0-0.42,0-0.84,0-1.261
	c0-0.359,0-0.72,0-1.079c0-0.301,0-0.601,0-0.9c0-0.18,0-0.36,0-0.54s0-0.36,0-0.54c0-0.72,0-1.44,0-2.16c0-0.18,0-0.359,0-0.54
	c0.061,0,0.12,0,0.181,0c0.06,0,0.12,0,0.18,0c0.12,0,0.24,0,0.36,0c0.18,0,0.359,0,0.54,0c0.18,0,0.359,0,0.54,0
	c0.18,0,0.359,0,0.54,0c0.18,0,0.359,0,0.54,0c0.18,0,0.359,0,0.54,0C69.54,37.62,69.96,37.62,70.38,37.62z"/>
<path fill-rule="evenodd" clip-rule="evenodd" fill="#D97761" d="M37.62,42.301c1.56,0,3.119,0,4.68,0c1.56,0,3.12,0,4.68,0
	c0.36,0,0.72,0,1.08,0c0.42,0,0.84,0,1.26,0c0.36,0,0.721,0,1.08,0c0.42,0,0.84,0,1.26,0c0.36,0,0.721,0,1.08,0
	c0.421,0,0.841,0,1.261,0c0.359,0,0.72,0,1.08,0c0.42,0,0.84,0,1.26,0c1.56,0,3.12,0,4.68,0c1.561,0,3.12,0,4.68,0
	c0,0.359,0,0.72,0,1.079c0,0.421,0,0.841,0,1.261c0,0.359,0,0.72,0,1.08c0,0.18,0,0.359,0,0.54c0,0.239,0,0.479,0,0.72
	c-0.18,0-0.359,0-0.54,0c-0.119,0-0.239,0-0.359,0c-0.18,0-0.36,0-0.54,0c-0.12,0-0.24,0-0.36,0c-0.18,0-0.359,0-0.54,0
	c-0.12,0-0.239,0-0.359,0c-0.181,0-0.36,0-0.54,0c-0.12,0-0.24,0-0.36,0c-0.18,0-0.36,0-0.54,0c-0.12,0-0.24,0-0.36,0
	c-0.18,0-0.359,0-0.54,0c-0.119,0-0.239,0-0.359,0c-0.54,0-1.08,0-1.62,0c-0.18,0-0.36,0-0.54,0c-0.12,0-0.24,0-0.36,0
	c-0.18,0-0.359,0-0.54,0c-0.119,0-0.239,0-0.359,0c-0.181,0-0.36,0-0.54,0c-0.12,0-0.24,0-0.36,0c-0.18,0-0.359,0-0.54,0
	c-0.12,0-0.24,0-0.359,0c-0.181,0-0.36,0-0.54,0c-0.12,0-0.24,0-0.36,0c-0.18,0-0.36,0-0.54,0c-0.12,0-0.24,0-0.36,0
	c-0.54,0-1.08,0-1.62,0c-0.18,0-0.359,0-0.539,0c-0.12,0-0.24,0-0.36,0c-0.18,0-0.36,0-0.54,0c-0.12,0-0.24,0-0.36,0
	c-0.18,0-0.359,0-0.54,0c-0.12,0-0.239,0-0.359,0c-0.181,0-0.36,0-0.54,0c-0.12,0-0.24,0-0.36,0c-0.18,0-0.36,0-0.54,0
	c-0.12,0-0.24,0-0.36,0c-0.18,0-0.359,0-0.539,0c-0.12,0-0.24,0-0.36,0c-0.54,0-1.08,0-1.62,0c-0.18,0-0.36,0-0.54,0
	c-0.12,0-0.24,0-0.36,0c-0.18,0-0.359,0-0.54,0c-0.119,0-0.239,0-0.359,0c-0.181,0-0.36,0-0.54,0c-0.12,0-0.24,0-0.36,0
	c-0.18,0-0.359,0-0.54,0c-0.12,0-0.24,0-0.359,0c-0.181,0-0.36,0-0.54,0c-0.12,0-0.24,0-0.36,0c-0.18,0-0.36,0-0.54,0
	c-0.12,0-0.24,0-0.36,0c-0.54,0-1.08,0-1.619,0C37.62,45.42,37.62,43.86,37.62,42.301z"/>
<path fill-rule="evenodd" clip-rule="evenodd" fill="#D97761" d="M28.08,46.98c3.18,0,6.359,0,9.54,0c0,1.56,0,3.12,0,4.68
	c-3.181,0-6.36,0-9.54,0C28.08,50.101,28.08,48.54,28.08,46.98z"/>
<path fill-rule="evenodd" clip-rule="evenodd" fill="#E0B49C" d="M37.62,46.98c0.539,0,1.079,0,1.619,0c0.12,0,0.24,0,0.36,0
	c0.18,0,0.36,0,0.54,0c0.12,0,0.24,0,0.36,0c0.18,0,0.359,0,0.54,0c0.119,0,0.239,0,0.359,0c0.181,0,0.36,0,0.54,0
	c0.12,0,0.24,0,0.36,0c0.18,0,0.359,0,0.54,0c0.12,0,0.24,0,0.359,0c0.181,0,0.36,0,0.54,0c0.12,0,0.24,0,0.36,0
	c0.18,0,0.36,0,0.54,0c0.54,0,1.08,0,1.62,0c0.12,0,0.24,0,0.36,0c0.18,0,0.359,0,0.539,0c0.12,0,0.24,0,0.36,0
	c0.18,0,0.36,0,0.54,0c0.12,0,0.24,0,0.36,0c0.18,0,0.359,0,0.54,0c0.12,0,0.239,0,0.359,0c0.181,0,0.36,0,0.54,0
	c0.12,0,0.24,0,0.36,0c0.18,0,0.36,0,0.54,0c0.12,0,0.24,0,0.36,0c0.18,0,0.359,0,0.539,0c0.54,0,1.08,0,1.62,0
	c0.12,0,0.24,0,0.36,0c0.18,0,0.36,0,0.54,0c0.12,0,0.24,0,0.36,0c0.18,0,0.359,0,0.54,0c0.119,0,0.239,0,0.359,0
	c0.181,0,0.36,0,0.54,0c0.12,0,0.24,0,0.36,0c0.18,0,0.359,0,0.54,0c0.12,0,0.24,0,0.359,0c0.181,0,0.36,0,0.54,0
	c0.12,0,0.24,0,0.36,0c0.18,0,0.36,0,0.54,0c0.54,0,1.08,0,1.62,0c0.12,0,0.24,0,0.359,0c0.181,0,0.36,0,0.54,0
	c0.12,0,0.24,0,0.36,0c0.18,0,0.36,0,0.54,0c0.12,0,0.24,0,0.36,0c0.18,0,0.359,0,0.54,0c0.12,0,0.239,0,0.359,0
	c0.181,0,0.36,0,0.54,0c0.12,0,0.24,0,0.36,0c0.18,0,0.36,0,0.54,0c0.12,0,0.24,0,0.359,0c0.181,0,0.36,0,0.54,0
	c0,0.24,0,0.479,0,0.72c0,0.18,0,0.36,0,0.54c0,0.36,0,0.72,0,1.08s0,0.72,0,1.08c0,0.18,0,0.36,0,0.54c0,0.24,0,0.479,0,0.72
	c0.181,0,0.36,0,0.54,0c0.721,0,1.44,0,2.16,0c0.181,0,0.36,0,0.54,0c0.181,0,0.36,0,0.54,0s0.36,0,0.54,0c0.12,0,0.24,0,0.36,0
	c0,0.18,0,0.36,0,0.54c0,0.12,0,0.24,0,0.36c0,0.18,0,0.359,0,0.54c0,0.12,0,0.239,0,0.359c0,0.601,0,1.2,0,1.801
	c0,0.18,0,0.359,0,0.54c0,0.119,0,0.239,0,0.359c0,0.18,0,0.36,0,0.54c0,0.12,0,0.24,0,0.36c0,0.6,0,1.2,0,1.8c0,0.18,0,0.36,0,0.54
	c0,0.12,0,0.24,0,0.36c0,0.18,0,0.359,0,0.54c0,0.119,0,0.239,0,0.359c0,0.601,0,1.2,0,1.8c0,1.141,0,2.28,0,3.42
	c-0.24,0-0.48,0-0.721,0c-0.18,0-0.359,0-0.539,0c-0.181,0-0.36,0-0.54,0c-0.181,0-0.36,0-0.54,0c-0.36,0-0.721,0-1.08,0
	c-0.181,0-0.36,0-0.54,0c-0.24,0-0.48,0-0.721,0c0,0.181,0,0.36,0,0.54c0,0.721,0,1.44,0,2.16c0,0.181,0,0.36,0,0.54
	c0,0.181,0,0.36,0,0.54s0,0.36,0,0.54c0,0.12,0,0.24,0,0.36c-0.359,0-0.72,0-1.079,0c-0.181,0-0.36,0-0.54,0c-0.181,0-0.36,0-0.54,0
	c-0.36,0-0.721,0-1.08,0c-0.181,0-0.36,0-0.54,0c-0.12,0-0.24,0-0.36,0c-0.18,0-0.36,0-0.54,0c0,0.42,0,0.84,0,1.26
	c0,0.18,0,0.36,0,0.54s0,0.36,0,0.54c0,0.24,0,0.479,0,0.72c0,0.181,0,0.36,0,0.54s0,0.36,0,0.54s0,0.36,0,0.54
	c-0.42,0-0.84,0-1.26,0c-0.18,0-0.36,0-0.54,0s-0.36,0-0.54,0c-0.24,0-0.48,0-0.72,0c-0.181,0-0.36,0-0.54,0c-0.181,0-0.36,0-0.54,0
	c-0.181,0-0.36,0-0.54,0c0,0.42,0,0.84,0,1.26c0,0.181,0,0.36,0,0.54c0,0.181,0,0.36,0,0.54c0,0.24,0,0.48,0,0.721
	c0,0.18,0,0.359,0,0.539c0,0.181,0,0.36,0,0.54c0,0.181,0,0.36,0,0.54c-1.5,0-3,0-4.5,0c-1.44,0-2.88,0-4.32,0
	c-0.18,0-0.36,0-0.54,0c0,0.721,0,1.44,0,2.16c0,0.36,0,0.721,0,1.08c0,0.18,0,0.36,0,0.54c0,0.12,0,0.24,0,0.36
	c0,0.18,0,0.359,0,0.54c-0.18,0-0.359,0-0.54,0c-1.14,0-2.28,0-3.42,0s-2.28,0-3.42,0s-2.28,0-3.42,0s-2.28,0-3.42,0
	c-0.42,0-0.84,0-1.26,0c-0.181,0-0.36,0-0.54,0c-0.181,0-0.36,0-0.54,0c-0.24,0-0.48,0-0.721,0c-0.18,0-0.359,0-0.54,0
	c-0.18,0-0.359,0-0.539,0c-0.181,0-0.36,0-0.54,0c-0.24,0-0.48,0-0.721,0c-0.18,0-0.359,0-0.54,0c-0.18,0-0.359,0-0.54,0
	c-0.18,0-0.359,0-0.54,0c-0.239,0-0.479,0-0.72,0c-0.18,0-0.36,0-0.54,0s-0.359,0-0.54,0c-0.18,0-0.359,0-0.54,0
	c-0.42,0-0.84,0-1.26,0c-0.18,0-0.36,0-0.54,0s-0.36,0-0.54,0c-0.24,0-0.479,0-0.72,0c-0.181,0-0.36,0-0.54,0s-0.36,0-0.54,0
	s-0.36,0-0.54,0c-0.24,0-0.48,0-0.72,0c-0.181,0-0.36,0-0.54,0c-0.181,0-0.36,0-0.54,0c-0.181,0-0.36,0-0.54,0
	c-0.24,0-0.48,0-0.721,0c-0.18,0-0.359,0-0.539,0c-0.181,0-0.36,0-0.54,0c-0.181,0-0.36,0-0.54,0c0-0.42,0-0.84,0-1.261
	c0-0.18,0-0.359,0-0.539c0-0.181,0-0.36,0-0.54c0-0.24,0-0.48,0-0.721c0-0.18,0-0.359,0-0.54c0-0.18,0-0.359,0-0.54
	c0-0.18,0-0.359,0-0.54c0-0.239,0-0.479,0-0.72c0-0.18,0-0.36,0-0.54s0-0.359,0-0.54c0-0.18,0-0.359,0-0.54c0-0.24,0-0.479,0-0.72
	c0-0.18,0-0.36,0-0.54s0-0.36,0-0.54s0-0.36,0-0.54c0-0.24,0-0.479,0-0.72c0-0.181,0-0.36,0-0.54s0-0.36,0-0.54s0-0.36,0-0.54
	c0-0.24,0-0.48,0-0.72c0-0.181,0-0.36,0-0.54c0-0.181,0-0.36,0-0.54c0-0.181,0-0.36,0-0.54c0-0.24,0-0.48,0-0.721
	c0-0.18,0-0.359,0-0.539c0-0.181,0-0.36,0-0.54c0-0.181,0-0.36,0-0.54c0-0.24,0-0.48,0-0.721c0-0.18,0-0.359,0-0.54
	c0-0.18,0-0.359,0-0.54c0-0.18,0-0.359,0-0.54c0-0.42,0-0.84,0-1.26c0-0.18,0-0.359,0-0.54c0-0.18,0-0.359,0-0.54
	c0-0.239,0-0.479,0-0.72c0-0.18,0-0.36,0-0.54s0-0.36,0-0.54s0-0.36,0-0.54c0.42,0,0.84,0,1.26,0c0.18,0,0.359,0,0.54,0
	c0.18,0,0.359,0,0.54,0c0.18,0,0.359,0,0.54,0c0.18,0,0.359,0,0.54,0c0.18,0,0.359,0,0.54,0c0.239,0,0.479,0,0.72,0
	c0-0.18,0-0.36,0-0.54c0-1.38,0-2.76,0-4.14c3.12,0,6.24,0,9.36,0c0-0.84,0-1.681,0-2.521c0-0.779,0-1.56,0-2.34
	c3.18,0,6.359,0,9.54,0C37.62,50.101,37.62,48.54,37.62,46.98z"/>
<path fill-rule="evenodd" clip-rule="evenodd" fill="#D97761" d="M65.699,46.98c0.181,0,0.36,0,0.54,0c0.181,0,0.36,0,0.54,0
	c0.42,0,0.841,0,1.261,0c0.18,0,0.359,0,0.54,0c0.18,0,0.359,0,0.54,0c0.18,0,0.359,0,0.539,0c0.24,0,0.48,0,0.721,0
	c0,0.359,0,0.72,0,1.08c0,0.42,0,0.84,0,1.26c0,0.36,0,0.72,0,1.08c0,0.18,0,0.36,0,0.54c0,0.24,0,0.479,0,0.72
	c-0.12,0-0.24,0-0.36,0c-0.18,0-0.36,0-0.54,0s-0.359,0-0.54,0c-0.18,0-0.359,0-0.54,0c-0.72,0-1.439,0-2.16,0
	c-0.18,0-0.359,0-0.54,0c0-0.24,0-0.479,0-0.72c0-0.18,0-0.36,0-0.54c0-0.36,0-0.72,0-1.08s0-0.72,0-1.08c0-0.18,0-0.36,0-0.54
	C65.699,47.46,65.699,47.221,65.699,46.98z"/>
<path fill-rule="evenodd" clip-rule="evenodd" fill="#D97761" d="M4.68,51.66c0.78,0,1.56,0,2.34,0s1.561,0,2.34,0
	c0,0.78,0,1.561,0,2.34c0,0.84,0,1.681,0,2.521c-0.779,0-1.56,0-2.34,0s-1.56,0-2.34,0C4.68,54.9,4.68,53.28,4.68,51.66z"/>
<path fill-rule="evenodd" clip-rule="evenodd" fill="#D97761" d="M23.399,51.66c0.36,0,0.721,0,1.08,0c0.42,0,0.84,0,1.26,0
	c0.36,0,0.721,0,1.08,0c0.181,0,0.36,0,0.54,0c0.24,0,0.48,0,0.721,0c0,0.78,0,1.561,0,2.34c0,0.84,0,1.681,0,2.521
	c-3.12,0-6.24,0-9.36,0c0-1.44,0-2.88,0-4.32c0-0.18,0-0.36,0-0.54c0.24,0,0.479,0,0.72,0c0.181,0,0.36,0,0.54,0
	c0.36,0,0.72,0,1.08,0s0.72,0,1.08,0c0.18,0,0.36,0,0.54,0C22.92,51.66,23.159,51.66,23.399,51.66z"/>
<path fill-rule="evenodd" clip-rule="evenodd" fill="#D97761" d="M70.38,51.66c0.18,0,0.359,0,0.54,0c0.18,0,0.359,0,0.54,0
	c0.42,0,0.84,0,1.26,0c0.18,0,0.36,0,0.54,0s0.36,0,0.54,0s0.359,0,0.54,0c0.24,0,0.479,0,0.72,0c0,0.54,0,1.08,0,1.62
	c0,0.6,0,1.2,0,1.8c0,0.12,0,0.24,0,0.36c0,0.18,0,0.36,0,0.54c0,0.12,0,0.24,0,0.359c0,0.181,0,0.36,0,0.54c0,0.12,0,0.24,0,0.36
	c0,0.18,0,0.36,0,0.54c0,0.12,0,0.24,0,0.36c0,0.18,0,0.359,0,0.54c0,0.12,0,0.239,0,0.359c0,0.181,0,0.36,0,0.54
	c0,0.12,0,0.24,0,0.36c0,0.18,0,0.36,0,0.54c0,0.12,0,0.24,0,0.359c0,0.181,0,0.36,0,0.54c0,0.12,0,0.24,0,0.36
	c0,0.18,0,0.36,0,0.54c0,0.12,0,0.24,0,0.36c0,0.18,0,0.359,0,0.54c0,0.12,0,0.239,0,0.359c0,0.181,0,0.36,0,0.54
	c0,0.12,0,0.24,0,0.36c0,0.18,0,0.36,0,0.54c0,0.12,0,0.24,0,0.359c0,0.181,0,0.36,0,0.54c-0.24,0-0.479,0-0.72,0
	c-0.181,0-0.36,0-0.54,0s-0.36,0-0.54,0s-0.36,0-0.54,0c-0.42,0-0.84,0-1.26,0c-0.181,0-0.36,0-0.54,0c-0.181,0-0.36,0-0.54,0
	c0-1.14,0-2.279,0-3.42c0-0.6,0-1.199,0-1.8c0-0.12,0-0.24,0-0.359c0-0.181,0-0.36,0-0.54c0-0.12,0-0.24,0-0.36
	c0-0.18,0-0.36,0-0.54c0-0.6,0-1.2,0-1.8c0-0.12,0-0.24,0-0.36c0-0.18,0-0.36,0-0.54c0-0.12,0-0.24,0-0.359c0-0.181,0-0.36,0-0.54
	c0-0.601,0-1.2,0-1.801c0-0.12,0-0.239,0-0.359c0-0.181,0-0.36,0-0.54c0-0.12,0-0.24,0-0.36C70.38,52.021,70.38,51.84,70.38,51.66z"
	/>
<path fill-rule="evenodd" clip-rule="evenodd" fill="#0A1A3E" d="M4.68,56.521c0.78,0,1.56,0,2.34,0s1.561,0,2.34,0
	c0,1.56,0,3.12,0,4.68c0,0.24,0,0.48,0,0.72c0,0.181,0,0.36,0,0.54c0,0.36,0,0.721,0,1.08c0,0.42,0,0.84,0,1.261
	c0,0.359,0,0.72,0,1.079c-0.779,0-1.56,0-2.34,0s-1.56,0-2.34,0c0-1.439,0-2.88,0-4.319c0-0.181,0-0.36,0-0.54
	c0-0.181,0-0.36,0-0.54c0-0.36,0-0.72,0-1.08s0-0.72,0-1.08c0-0.18,0-0.36,0-0.54c0-0.24,0-0.479,0-0.72
	C4.68,56.88,4.68,56.7,4.68,56.521z"/>
<path fill-rule="evenodd" clip-rule="evenodd" fill="#D97761" d="M18.72,56.521c0,1.38,0,2.76,0,4.14c0,0.18,0,0.36,0,0.54
	c-0.24,0-0.48,0-0.72,0c-0.181,0-0.36,0-0.54,0c-0.181,0-0.36,0-0.54,0c-0.181,0-0.36,0-0.54,0c-0.181,0-0.36,0-0.54,0
	c-0.181,0-0.36,0-0.54,0c-0.42,0-0.84,0-1.26,0c0-1.56,0-3.12,0-4.68c0.779,0,1.56,0,2.34,0c0.359,0,0.72,0,1.08,0
	C17.88,56.521,18.3,56.521,18.72,56.521z"/>
<path fill-rule="evenodd" clip-rule="evenodd" fill="#D97761" d="M9.359,61.2c0.36,0,0.721,0,1.08,0c0.181,0,0.36,0,0.54,0
	c0.24,0,0.48,0,0.72,0c0.181,0,0.36,0,0.54,0c0.181,0,0.36,0,0.54,0c0.42,0,0.841,0,1.261,0c0,0.18,0,0.36,0,0.54s0,0.36,0,0.54
	s0,0.36,0,0.54c0,0.24,0,0.48,0,0.72c0,0.181,0,0.36,0,0.54c0,0.181,0,0.36,0,0.54c0,0.42,0,0.84,0,1.26c-0.78,0-1.561,0-2.341,0
	c-0.779,0-1.56,0-2.34,0c0-0.359,0-0.72,0-1.079c0-0.421,0-0.841,0-1.261c0-0.359,0-0.72,0-1.08c0-0.18,0-0.359,0-0.54
	C9.359,61.681,9.359,61.44,9.359,61.2z"/>
<path fill-rule="evenodd" clip-rule="evenodd" fill="#0A1A3E" d="M9.359,65.88c0.78,0,1.561,0,2.34,0c0.78,0,1.561,0,2.341,0
	c0,0.181,0,0.36,0,0.54c0,0.181,0,0.36,0,0.54c0,0.181,0,0.36,0,0.54c0,0.24,0,0.48,0,0.721c0,0.18,0,0.359,0,0.54
	c0,0.18,0,0.359,0,0.54c0,0.18,0,0.359,0,0.539c0,0.24,0,0.48,0,0.721c0,0.18,0,0.359,0,0.54c0,0.18,0,0.359,0,0.54
	c0,0.18,0,0.359,0,0.54c0,0.239,0,0.479,0,0.72c0,0.18,0,0.36,0,0.54s0,0.36,0,0.54s0,0.359,0,0.54c0,0.24,0,0.479,0,0.72
	c0,0.18,0,0.36,0,0.54s0,0.36,0,0.54s0,0.36,0,0.54c0,0.24,0,0.479,0,0.72c0,0.181,0,0.36,0,0.54c0,0.181,0,0.36,0,0.54
	s0,0.36,0,0.54c0,0.24,0,0.48,0,0.72c0,0.181,0,0.36,0,0.54c0,0.181,0,0.36,0,0.54c0,0.181,0,0.36,0,0.54c0,0.24,0,0.48,0,0.721
	c0,0.18,0,0.359,0,0.54c0,0.18,0,0.359,0,0.539c0,0.421,0,0.841,0,1.261s0,0.84,0,1.26c0,0.18,0,0.36,0,0.54s0,0.36,0,0.54
	c0,0.24,0,0.479,0,0.72c0,0.18,0,0.36,0,0.54s0,0.36,0,0.54s0,0.36,0,0.54c0,1.56,0,3.12,0,4.68c0,0.181,0,0.36,0,0.54
	c0,0.12,0,0.24,0,0.36c0,0.3,0,0.6,0,0.9c0,0.6,0,1.199,0,1.8c0,0.3,0,0.6,0,0.899c0,0.301,0,0.601,0,0.9c0,0.6,0,1.2,0,1.8
	c0,0.3,0,0.601,0,0.9s0,0.6,0,0.899c0,0.601,0,1.2,0,1.801c0,0.3,0,0.6,0,0.899c0,0.18,0,0.36,0,0.54c0,0.12,0,0.24,0,0.36
	c0,0.54,0,1.08,0,1.62c-0.24,0-0.48,0-0.721,0c-0.18,0-0.359,0-0.54,0c-0.359,0-0.72,0-1.08,0c-0.42,0-0.84,0-1.26,0
	c-0.359,0-0.72,0-1.08,0c0-0.841,0-1.681,0-2.521c0-0.18,0-0.359,0-0.54c0-0.24,0-0.479,0-0.72c0-0.48,0-0.96,0-1.44
	c0-0.84,0-1.68,0-2.52c0-0.18,0-0.36,0-0.54c0-0.24,0-0.48,0-0.72c0-0.48,0-0.96,0-1.44c0-0.84,0-1.68,0-2.52c0-0.181,0-0.36,0-0.54
	c0-0.24,0-0.48,0-0.721c0-0.479,0-0.96,0-1.439c0-0.84,0-1.681,0-2.521c0-0.18,0-0.359,0-0.54c0-0.239,0-0.479,0-0.72
	c0-0.479,0-0.96,0-1.439c0-0.841,0-1.681,0-2.521c0-0.18,0-0.36,0-0.54c0-0.24,0-0.479,0-0.72c0-0.48,0-0.96,0-1.44
	c0-0.84,0-1.68,0-2.52c0-0.181,0-0.36,0-0.54c0-0.24,0-0.48,0-0.72c0-0.48,0-0.961,0-1.44c0-0.84,0-1.68,0-2.521
	c0-0.18,0-0.359,0-0.539c0-0.24,0-0.48,0-0.721c0-0.479,0-0.96,0-1.439c0-0.84,0-1.681,0-2.521c0-0.18,0-0.359,0-0.54
	c0-0.24,0-0.479,0-0.72s0-0.48,0-0.72c0-0.24,0-0.48,0-0.721C9.359,66.24,9.359,66.061,9.359,65.88z"/>
<path fill-rule="evenodd" clip-rule="evenodd" fill="#D97761" d="M70.38,65.88c0,0.061,0,0.12,0,0.181c0,0.24,0,0.479,0,0.72
	c0,0.18,0,0.36,0,0.54c0,0.36,0,0.72,0,1.08c0,0.72,0,1.439,0,2.16c-0.42,0-0.84,0-1.26,0c-0.181,0-0.36,0-0.54,0
	c-0.181,0-0.36,0-0.54,0c-0.42,0-0.841,0-1.261,0c-0.18,0-0.359,0-0.54,0c-0.18,0-0.359,0-0.54,0c0-0.12,0-0.24,0-0.36
	c0-0.18,0-0.36,0-0.54s0-0.359,0-0.54c0-0.18,0-0.359,0-0.54c0-0.72,0-1.439,0-2.16c0-0.18,0-0.359,0-0.54c0.24,0,0.48,0,0.721,0
	c0.18,0,0.359,0,0.54,0c0.359,0,0.72,0,1.08,0c0.18,0,0.359,0,0.54,0c0.18,0,0.359,0,0.54,0c0.18,0,0.359,0,0.539,0
	C69.899,65.88,70.14,65.88,70.38,65.88z"/>
<path fill-rule="evenodd" clip-rule="evenodd" fill="#0A1A3E" d="M70.38,65.88c0.18,0,0.359,0,0.54,0c0.18,0,0.359,0,0.54,0
	c0.42,0,0.84,0,1.26,0c0.18,0,0.36,0,0.54,0s0.36,0,0.54,0s0.359,0,0.54,0c0.24,0,0.479,0,0.72,0c0,0.181,0,0.36,0,0.54
	c0,0.181,0,0.36,0,0.54c0,0.181,0,0.36,0,0.54c0,0.24,0,0.48,0,0.721c0,0.18,0,0.359,0,0.54c0,0.18,0,0.359,0,0.54
	c0,0.42,0,0.84,0,1.26c-0.18,0-0.36,0-0.54,0c-0.12,0-0.24,0-0.36,0c-0.18,0-0.359,0-0.539,0c-0.36,0-0.721,0-1.08,0
	c-0.181,0-0.36,0-0.54,0c-0.181,0-0.36,0-0.54,0c-0.36,0-0.721,0-1.08,0c0-0.721,0-1.44,0-2.16c0-0.36,0-0.72,0-1.08
	c0-0.18,0-0.36,0-0.54c0-0.24,0-0.479,0-0.72C70.38,66,70.38,65.94,70.38,65.88z"/>
<path fill-rule="evenodd" clip-rule="evenodd" fill="#D97761" d="M65.699,70.561c0,0.06,0,0.12,0,0.18c0,0.24,0,0.48,0,0.72
	c0,0.181,0,0.36,0,0.54c0,0.36,0,0.721,0,1.08c0,0.721,0.001,1.44,0,2.16c-0.42,0-0.84,0-1.26,0c-0.18,0-0.359,0-0.54,0
	c-0.18,0-0.359,0-0.54,0c-0.239,0-0.479,0-0.72,0c-0.18,0-0.36,0-0.54,0s-0.36,0-0.54,0s-0.36,0-0.54,0c0-0.18,0-0.36,0-0.54
	s0-0.36,0-0.54s0-0.359,0-0.54c0-0.24,0-0.479,0-0.72c0-0.18,0-0.36,0-0.54s0-0.36,0-0.54c0-0.42,0-0.84,0-1.26
	c0.18,0,0.36,0,0.54,0c0.12,0,0.24,0,0.36,0c0.18,0,0.359,0,0.54,0c0.359,0,0.72,0,1.08,0c0.18,0,0.359,0,0.54,0
	c0.18,0,0.359,0,0.54,0C64.979,70.561,65.34,70.561,65.699,70.561z"/>
<path fill-rule="evenodd" clip-rule="evenodd" fill="#0A1A3E" d="M65.699,70.561c0.181,0,0.36,0,0.54,0c0.181,0,0.36,0,0.54,0
	c0.42,0,0.841,0,1.261,0c0.18,0,0.359,0,0.54,0c0.18,0,0.359,0,0.54,0c0.42,0,0.84,0,1.26,0c0,0.359,0,0.72,0,1.08
	c0,0.42,0,0.84,0,1.26c0,0.18,0,0.36,0,0.54s0,0.36,0,0.54s0,0.359,0,0.54c0,0.24,0,0.479,0,0.72c-0.181,0-0.36,0-0.54,0
	c-0.12,0-0.24,0-0.36,0c-0.18,0-0.359,0-0.54,0c-0.359,0-0.72,0-1.08,0c-0.72,0-1.439,0-2.16,0c0.001-0.72,0-1.439,0-2.16
	c0-0.359,0-0.72,0-1.08c0-0.18,0-0.359,0-0.54c0-0.239,0-0.479,0-0.72C65.699,70.681,65.699,70.62,65.699,70.561z"/>
<path fill-rule="evenodd" clip-rule="evenodd" fill="#BB6B5C" d="M61.02,75.24c0,0.061,0,0.12,0,0.18c0,0.24,0,0.48,0,0.721
	c0,0.18,0,0.359,0,0.54c0,0.18,0,0.359,0,0.54c0,0.18,0,0.359,0,0.54c0,0.72,0,1.439,0,2.159c-0.42,0-0.84,0-1.26,0
	c-0.18,0-0.36,0-0.54,0s-0.36,0-0.54,0c-0.24,0-0.48,0-0.72,0c-0.181,0-0.36,0-0.54,0c-0.181,0-0.36,0-0.54,0
	c-0.181,0-0.36,0-0.54,0c0-0.18,0-0.359,0-0.54c0-0.18,0-0.359,0-0.54c0-0.18,0-0.359,0-0.539c0-0.24,0-0.48,0-0.721
	c0-0.18,0-0.359,0-0.54c0-0.18,0-0.359,0-0.54c0-0.42,0-0.84,0-1.26c0.18,0,0.359,0,0.54,0c0.18,0,0.359,0,0.54,0
	c0.18,0,0.359,0,0.54,0c0.239,0,0.479,0,0.72,0c0.18,0,0.36,0,0.54,0s0.36,0,0.54,0C60.18,75.24,60.6,75.24,61.02,75.24z"/>
<path fill-rule="evenodd" clip-rule="evenodd" fill="#0A1A3E" d="M61.02,75.24c0.18,0,0.36,0,0.54,0s0.36,0,0.54,0s0.36,0,0.54,0
	c0.24,0,0.48,0,0.72,0c0.181,0,0.36,0,0.54,0c0.181,0,0.36,0,0.54,0c0.42,0,0.84,0,1.26,0c0,0.18,0,0.36,0,0.54s0,0.36,0,0.54
	c0,0.42,0,0.84,0,1.26c0,0.181,0,0.36,0,0.54c0,0.181,0,0.36,0,0.54c0,0.42,0,0.84,0,1.26c0,0.181,0,0.36,0,0.54
	c0,0.181,0,0.36,0,0.54c0,0.42,0,0.84,0,1.261c0,0.18,0,0.359,0,0.54c0,0.18,0,0.359,0,0.539c0,0.421,0,0.841,0,1.261
	c0,0.18,0,0.359,0,0.54c0,0.18,0,0.359,0,0.54c0,0.42,0,0.84,0,1.26c0,0.36,0,0.72,0,1.08c0,0.42,0,0.84,0,1.26
	c0,0.36,0,0.72,0,1.08c0,0.42,0,0.84,0,1.26c0,0.36,0,0.72,0,1.08c0,0.42,0,0.84,0,1.26c0,0.36,0,0.721,0,1.08
	c0,0.42,0,0.84,0,1.261c0,0.359,0,0.72,0,1.079c0,0.421,0,0.841,0,1.261c0,0.359,0,0.72,0,1.08c0,0.42,0,0.84,0,1.26
	c0,0.359,0,0.72,0,1.08c0,0.42,0,0.84,0,1.26c0,0.36,0,0.72,0,1.08c0,0.42,0,0.84,0,1.26c0,0.36,0,0.72,0,1.08c0,0.42,0,0.84,0,1.26
	c0,1.62,0,3.24,0,4.86c-0.779,0-1.56,0-2.34,0c-0.779,0-1.56,0-2.34,0c0-0.42,0-0.84,0-1.26c0-0.181,0-0.36,0-0.54
	c0-0.181,0-0.36,0-0.54c0-0.24,0-0.48,0-0.72c0-0.181,0-0.36,0-0.54c0-0.181,0-0.36,0-0.54c0-0.181,0-0.36,0-0.54
	c0-0.24,0-0.48,0-0.721c0-0.18,0-0.359,0-0.54c0-0.18,0-0.359,0-0.54c0-0.18,0-0.359,0-0.54c0-0.239,0-0.479,0-0.72
	c0-0.18,0-0.359,0-0.54c0-0.18,0-0.359,0-0.54c0-0.18,0-0.359,0-0.54c0-0.54,0-1.08,0-1.62c0-0.479,0-0.96,0-1.439
	c0-0.96,0-1.92,0-2.88c0-0.54,0-1.08,0-1.62c0-0.48,0-0.96,0-1.44c0-0.96,0-1.92,0-2.88c0-3.899,0-7.8,0-11.7
	c0-0.72,0-1.439,0-2.159c0-0.181,0-0.36,0-0.54c0-0.181,0-0.36,0-0.54c0-0.181,0-0.36,0-0.54c0-0.24,0-0.48,0-0.721
	C61.02,75.36,61.02,75.301,61.02,75.24z"/>
<path fill-rule="evenodd" clip-rule="evenodd" fill="#FDFEFF" d="M56.34,79.92c0.18,0,0.359,0,0.54,0c0.18,0,0.359,0,0.54,0
	c0.18,0,0.359,0,0.54,0c0.239,0,0.479,0,0.72,0c0.18,0,0.36,0,0.54,0s0.36,0,0.54,0c0.42,0,0.84,0,1.26,0c0,3.9,0,7.801,0,11.7
	c0,0.96,0,1.92,0,2.88c0,0.48,0,0.96,0,1.44c0,0.54,0,1.08,0,1.62c0,0.96,0,1.92,0,2.88c0,0.479,0,0.96,0,1.439
	c0,0.54,0,1.08,0,1.62c-0.24,0-0.479,0-0.72,0c-0.18,0-0.36,0-0.54,0s-0.36,0-0.54,0s-0.36,0-0.54,0c-0.42,0-0.84,0-1.26,0
	c-0.36,0-0.721,0-1.08,0c0,0.42,0,0.84,0,1.261c0,0.18,0,0.359,0,0.54c0,0.18,0,0.359,0,0.539c0,0.24,0,0.48,0,0.721
	c0,0.18,0,0.359,0,0.54c0,0.18,0,0.359,0,0.54c0,0.18,0,0.359,0,0.54c-0.24,0-0.48,0-0.72,0c-0.181,0-0.36,0-0.54,0
	c-0.36,0-0.721,0-1.08,0c-0.42,0-0.84,0-1.261,0c-0.359,0-0.72,0-1.08,0c-0.18,0-0.359,0-0.539,0c-0.12,0-0.24,0-0.36,0
	c-0.18,0-0.36,0-0.54,0c-0.12,0-0.24,0-0.36,0c-0.18,0-0.359,0-0.54,0c-0.12,0-0.239,0-0.359,0c-0.181,0-0.36,0-0.54,0
	c-0.12,0-0.24,0-0.36,0c-0.18,0-0.36,0-0.54,0c-0.12,0-0.24,0-0.36,0c-0.18,0-0.359,0-0.539,0c-0.12,0-0.24,0-0.36,0
	c-0.54,0-1.08,0-1.62,0c-0.18,0-0.36,0-0.54,0c-0.12,0-0.24,0-0.36,0c-0.18,0-0.359,0-0.54,0c-0.119,0-0.239,0-0.359,0
	c-0.181,0-0.36,0-0.54,0c-0.12,0-0.24,0-0.36,0c-0.18,0-0.359,0-0.54,0c-0.12,0-0.24,0-0.359,0c-0.181,0-0.36,0-0.54,0
	c-0.12,0-0.24,0-0.36,0c-0.18,0-0.36,0-0.54,0c-0.12,0-0.24,0-0.36,0c-0.54,0-1.08,0-1.619,0c0-1.561,0-3.12,0-4.681
	c-1.62,0-3.24,0-4.86,0c0-0.18,0-0.359,0-0.54c0-0.12,0-0.239,0-0.359c0-0.181,0-0.36,0-0.54c0-0.12,0-0.24,0-0.36
	c0-0.18,0-0.36,0-0.54c0-0.12,0-0.24,0-0.359c0-0.181,0-0.36,0-0.54c0-0.301,0-0.601,0-0.9c0-0.12,0-0.24,0-0.36
	c0-0.3,0-0.6,0-0.899s0-0.601,0-0.9c0-0.18,0-0.36,0-0.54c0-0.3,0-0.6,0-0.899c0-0.12,0-0.24,0-0.36c0-0.3,0-0.6,0-0.9
	c0-0.3,0-0.6,0-0.899c0-0.181,0-0.36,0-0.54c0-0.3,0-0.601,0-0.9c0-0.12,0-0.24,0-0.359c0-0.301,0-0.601,0-0.9c0-0.54,0-1.08,0-1.62
	c0-0.78,0-1.56,0-2.34c0-0.24,0-0.48,0-0.72c0-0.181,0-0.36,0-0.54c0-0.181,0-0.36,0-0.54c0-0.181,0-0.36,0-0.54
	c1.14,0,2.28,0,3.42,0s2.28,0,3.42,0s2.28,0,3.42,0s2.28,0,3.42,0c0.181,0,0.36,0,0.54,0c0-0.181,0-0.36,0-0.54
	c0-0.12,0-0.24,0-0.36c0-0.18,0-0.36,0-0.54c0-0.359,0-0.72,0-1.08c0-0.72,0-1.439,0-2.16c0.18,0,0.36,0,0.54,0
	c1.44,0,2.88,0,4.32,0C53.34,79.92,54.84,79.92,56.34,79.92z"/>
<path fill-rule="evenodd" clip-rule="evenodd" fill="#BB6B5C" d="M14.04,84.601c0.18,0,0.359,0,0.54,0c0.18,0,0.359,0,0.54,0
	c0.18,0,0.359,0,0.539,0c0.24,0,0.48,0,0.721,0c0.18,0,0.359,0,0.54,0c0.18,0,0.359,0,0.54,0c0.18,0,0.359,0,0.54,0
	c0.239,0,0.479,0,0.72,0c0.18,0,0.36,0,0.54,0s0.36,0,0.54,0s0.359,0,0.54,0c0.24,0,0.479,0,0.72,0c0.18,0,0.36,0,0.54,0
	s0.36,0,0.54,0c0.42,0,0.84,0,1.26,0c0,0.239,0,0.479,0,0.72c0,0.18,0,0.36,0,0.54s0,0.36,0,0.54s0,0.36,0,0.54
	c0,0.42,0,0.84,0,1.26c0,0.36,0,0.72,0,1.08c-3.12,0-6.239,0-9.359,0c0-0.18,0-0.36,0-0.54s0-0.36,0-0.54s0-0.36,0-0.54
	c0-0.24,0-0.479,0-0.72c0-0.18,0-0.36,0-0.54s0-0.36,0-0.54C14.04,85.44,14.04,85.021,14.04,84.601z"/>
<path fill-rule="evenodd" clip-rule="evenodd" fill="#D97761" d="M23.399,84.601c0.181,0,0.36,0,0.54,0c0.181,0,0.36,0,0.54,0
	s0.36,0,0.54,0c0.24,0,0.48,0,0.72,0c0.181,0,0.36,0,0.54,0c0.181,0,0.36,0,0.54,0c0.181,0,0.36,0,0.54,0c0.24,0,0.48,0,0.721,0
	c0.18,0,0.359,0,0.54,0c0.18,0,0.359,0,0.539,0c0.181,0,0.36,0,0.54,0c0.24,0,0.48,0,0.721,0c0.18,0,0.359,0,0.54,0
	c0.18,0,0.359,0,0.54,0c0.42,0,0.84,0,1.26,0c0,0.18,0,0.359,0,0.54c0,0.18,0,0.359,0,0.54c0,0.18,0,0.359,0,0.54
	c0,0.239,0,0.479,0,0.72c0,0.78,0,1.56,0,2.34c-3.12,0-6.24,0-9.36,0c0-0.36,0-0.72,0-1.08c0-0.42,0-0.84,0-1.26
	c0-0.18,0-0.36,0-0.54s0-0.36,0-0.54s0-0.36,0-0.54C23.399,85.08,23.399,84.84,23.399,84.601z"/>
<path fill-rule="evenodd" clip-rule="evenodd" fill="#D97761" d="M14.04,89.28c3.12,0,6.239,0,9.359,0c0,1.56,0,3.12,0,4.68
	c-3.12,0-6.239,0-9.359,0C14.04,92.4,14.04,90.84,14.04,89.28z"/>
<path fill-rule="evenodd" clip-rule="evenodd" fill="#E0B49C" d="M23.399,89.28c3.12,0,6.24,0,9.36,0c0,0.54,0,1.08,0,1.62
	c0,0.3,0,0.6,0,0.9c0,0.119,0,0.239,0,0.359c0,0.3,0,0.601,0,0.9c0,0.18,0,0.359,0,0.54c0,0.3,0,0.6,0,0.899c0,0.301,0,0.601,0,0.9
	c0,0.12,0,0.24,0,0.36c0,0.3,0,0.6,0,0.899c0,0.18,0,0.36,0,0.54c0,0.3,0,0.601,0,0.9s0,0.6,0,0.899c0,0.12,0,0.24,0,0.36
	c0,0.3,0,0.6,0,0.9c0,0.18,0,0.359,0,0.54c0,0.119,0,0.239,0,0.359c0,0.18,0,0.36,0,0.54c0,0.12,0,0.24,0,0.36
	c0,0.18,0,0.359,0,0.54c0,0.12,0,0.239,0,0.359c0,0.181,0,0.36,0,0.54c1.62,0,3.24,0,4.86,0c0,1.561,0,3.12,0,4.681
	c0,1.56,0,3.12,0,4.68c-3.181,0-6.36,0-9.54,0c0,1.56,0,3.12,0,4.68c-0.24,0-0.48,0-0.721,0c-0.18,0-0.359,0-0.54,0
	c-0.359,0-0.72,0-1.08,0c-0.72,0-1.439,0-2.159,0c-0.061,0-0.12,0-0.181,0c0,0.181,0,0.36,0,0.54c0,1.38,0,2.76,0,4.141
	c-0.24,0-0.479,0-0.72,0c-0.18,0-0.36,0-0.54,0c-0.36,0-0.72,0-1.08,0c-0.18,0-0.36,0-0.54,0s-0.36,0-0.54,0s-0.359,0-0.54,0
	c-0.24,0-0.479,0-0.72,0c0,0.18,0,0.359,0,0.54c0,1.38,0,2.76,0,4.14c-2.34,0-4.68,0-7.021,0c-2.34,0-4.68,0-7.02,0
	c0-0.24,0-0.48,0-0.72c0-0.181,0-0.36,0-0.54c0-0.181,0-0.36,0-0.54c0-0.181,0-0.36,0-0.54c0-0.24,0-0.48,0-0.721
	c0-0.18,0-0.359,0-0.539c0-0.36,0-0.721,0-1.08c0-0.42,0-0.841,0-1.261c0-0.18,0-0.359,0-0.54c0-0.18,0-0.359,0-0.54
	c0-0.239,0-0.479,0-0.72c0-0.18,0-0.359,0-0.54c0-0.359,0-0.72,0-1.08c0.24,0,0.479,0,0.72,0c0.181,0,0.36,0,0.54,0
	c0.36,0,0.72,0,1.08,0c0.72,0,1.44,0,2.16,0c0.06,0,0.12,0,0.18,0c0-0.18,0-0.359,0-0.54c0-2.939,0-5.88,0-8.819
	c0.36,0,0.721,0,1.08,0c0.42,0,0.84,0,1.26,0c0.36,0,0.721,0,1.08,0c0.181,0,0.36,0,0.54,0c0.24,0,0.48,0,0.721,0
	c0-0.54,0-1.08,0-1.62c0-0.12,0-0.24,0-0.36c0-0.18,0-0.36,0-0.54c0-0.3,0-0.6,0-0.899c0-0.601,0-1.2,0-1.801c0-0.3,0-0.6,0-0.899
	s0-0.601,0-0.9c0-0.6,0-1.2,0-1.8c0-0.3,0-0.6,0-0.9c0-0.3,0-0.6,0-0.899c0-0.601,0-1.2,0-1.8c0-0.301,0-0.601,0-0.9
	c0-0.12,0-0.24,0-0.36c0-0.18,0-0.359,0-0.54c3.12,0,6.239,0,9.359,0C23.399,92.4,23.399,90.84,23.399,89.28z"/>
<path fill-rule="evenodd" clip-rule="evenodd" fill="#BB6B5C" d="M61.02,103.5c0,0.181,0,0.36,0,0.54c0,0.181,0,0.36,0,0.54
	c0,0.181,0,0.36,0,0.54c0,0.24,0,0.48,0,0.72c0,0.181,0,0.36,0,0.54c0,0.181,0,0.36,0,0.54c0,0.181,0,0.36,0,0.54
	c0,0.24,0,0.48,0,0.721c0,0.18,0,0.359,0,0.54c0,0.18,0,0.359,0,0.54c0,0.18,0,0.359,0,0.54c0,0.239,0,0.479,0,0.72
	c0,0.18,0,0.359,0,0.54c0,0.18,0,0.359,0,0.54c0,0.42,0,0.84,0,1.26c-0.42,0-0.84,0-1.26,0c-0.18,0-0.36,0-0.54,0s-0.36,0-0.54,0
	c-0.36,0-0.72,0-1.08,0c-0.18,0-0.36,0-0.54,0c-0.12,0-0.24,0-0.36,0c-0.06,0-0.119,0-0.18,0c-0.06,0-0.12,0-0.18,0
	c0,0.18,0,0.36,0,0.54c0,2.939,0,5.88,0,8.82c-0.24,0-0.48,0-0.72,0c-0.181,0-0.36,0-0.54,0c-0.36,0-0.721,0-1.08,0
	c-0.181,0-0.36,0-0.54,0c-0.181,0-0.36,0-0.54,0c-0.181,0-0.36,0-0.54,0c-0.24,0-0.48,0-0.721,0c0,0.18,0,0.359,0,0.54
	c0,1.38,0,2.76,0,4.14c-1.14,0-2.279,0-3.42,0c-0.6,0-1.199,0-1.8,0c-0.12,0-0.24,0-0.359,0c-0.181,0-0.36,0-0.54,0
	c-0.12,0-0.24,0-0.36,0c-0.18,0-0.36,0-0.54,0c-1.14,0-2.28,0-3.42,0c-0.6,0-1.2,0-1.8,0c-0.12,0-0.24,0-0.36,0
	c-0.18,0-0.36,0-0.54,0c-0.12,0-0.24,0-0.36,0c-0.18,0-0.359,0-0.539,0c0-1.561,0-3.12,0-4.68c0-1.561,0-3.12,0-4.681
	c0.239,0,0.479,0,0.72,0c0.18,0,0.359,0,0.54,0c0.359,0,0.72,0,1.08,0c0.72,0,1.439,0,2.16,0c0.06,0,0.119,0,0.18,0
	c0-0.18,0-0.359,0-0.54c0-0.72,0-1.439,0-2.16c0-0.359,0-0.72,0-1.079c0-0.181,0-0.36,0-0.54c0-0.12,0-0.24,0-0.36
	c0.78,0,1.56,0,2.34,0s1.56,0,2.34,0s1.561,0,2.34,0c0.78,0,1.561,0,2.34,0c0-0.24,0-0.48,0-0.72c0-0.181,0-0.36,0-0.54
	c0-0.36,0-0.721,0-1.08c0-0.42,0-0.84,0-1.26c0-0.36,0-0.721,0-1.08c0.36,0,0.721,0,1.08,0c0.421,0,0.841,0,1.261,0
	c0.359,0,0.72,0,1.08,0c0.18,0,0.359,0,0.54,0c0.239,0,0.479,0,0.72,0c0-0.181,0-0.36,0-0.54c0-0.181,0-0.36,0-0.54
	c0-0.181,0-0.36,0-0.54c0-0.24,0-0.48,0-0.721c0-0.18,0-0.359,0-0.539c0-0.181,0-0.36,0-0.54c0-0.421,0-0.841,0-1.261
	c0.359,0,0.72,0,1.08,0c0.42,0,0.84,0,1.26,0c0.18,0,0.36,0,0.54,0s0.36,0,0.54,0s0.36,0,0.54,0
	C60.54,103.5,60.779,103.5,61.02,103.5z"/>
<path fill-rule="evenodd" clip-rule="evenodd" fill="#0A1A3E" d="M9.359,108.181c0,2.939,0,5.88,0,8.819c0,0.181,0,0.36,0,0.54
	c-0.06,0-0.12,0-0.18,0c-0.72,0-1.44,0-2.16,0c-0.36,0-0.72,0-1.08,0c-0.18,0-0.359,0-0.54,0c-0.24,0-0.479,0-0.72,0
	c0-3.12,0-6.239,0-9.359c1.38,0,2.76,0,4.14,0C9,108.181,9.18,108.181,9.359,108.181z"/>
<path fill-rule="evenodd" clip-rule="evenodd" fill="#D97761" d="M37.62,108.181c0.539,0,1.079,0,1.619,0c0.12,0,0.24,0,0.36,0
	c0.18,0,0.36,0,0.54,0c0.12,0,0.24,0,0.36,0c0.18,0,0.359,0,0.54,0c0.119,0,0.239,0,0.359,0c0.181,0,0.36,0,0.54,0
	c0.12,0,0.24,0,0.36,0c0.18,0,0.359,0,0.54,0c0.12,0,0.24,0,0.359,0c0.181,0,0.36,0,0.54,0c0.12,0,0.24,0,0.36,0
	c0.18,0,0.36,0,0.54,0c0.54,0,1.08,0,1.62,0c0.12,0,0.24,0,0.36,0c0.18,0,0.359,0,0.539,0c0.12,0,0.24,0,0.36,0
	c0.18,0,0.36,0,0.54,0c0.12,0,0.24,0,0.36,0c0.18,0,0.359,0,0.54,0c0.12,0,0.239,0,0.359,0c0.181,0,0.36,0,0.54,0
	c0.12,0,0.24,0,0.36,0c0.18,0,0.36,0,0.54,0c0.12,0,0.24,0,0.36,0c0.18,0,0.359,0,0.539,0c0,0.359,0,0.72,0,1.08
	c0,0.42,0,0.84,0,1.26c0,0.359,0,0.72,0,1.08c0,0.18,0,0.359,0,0.54c0,0.239,0,0.479,0,0.72c-0.779,0-1.56,0-2.34,0
	c-0.779,0-1.56,0-2.34,0s-1.56,0-2.34,0s-1.56,0-2.34,0c-0.42,0-0.84,0-1.26,0c-0.181,0-0.36,0-0.54,0c-0.181,0-0.36,0-0.54,0
	c-0.24,0-0.48,0-0.721,0c-0.18,0-0.359,0-0.54,0c-0.359,0-0.72,0-1.079,0C37.62,111.301,37.62,109.74,37.62,108.181z"/>
<path fill-rule="evenodd" clip-rule="evenodd" fill="#0A1A3E" d="M37.62,112.86c0.359,0,0.72,0,1.079,0c0.181,0,0.36,0,0.54,0
	c0.24,0,0.48,0,0.721,0c0.18,0,0.359,0,0.54,0c0.18,0,0.359,0,0.54,0c0.42,0,0.84,0,1.26,0c0,0.12,0,0.24,0,0.36
	c0,0.18,0,0.359,0,0.54c0,0.359,0,0.72,0,1.079c0,0.721,0,1.44,0,2.16c0,0.181,0,0.36,0,0.54c-0.061,0-0.12,0-0.18,0
	c-0.721,0-1.44,0-2.16,0c-0.36,0-0.721,0-1.08,0c-0.181,0-0.36,0-0.54,0c-0.24,0-0.48,0-0.72,0c0,1.561,0,3.12,0,4.681
	c0,1.56,0,3.119,0,4.68c-1.62,0-3.24,0-4.86,0c0-0.78,0-1.561,0-2.34c0-0.181,0-0.36,0-0.54c0-0.181,0-0.36,0-0.54
	c0-0.42,0-0.84,0-1.26c0-0.181,0-0.36,0-0.54c0-0.181,0-0.36,0-0.54c0-0.181,0-0.36,0-0.54c0-0.24,0-0.48,0-0.721
	c0-0.779,0-1.56,0-2.34c-0.36,0-0.72,0-1.08,0c-0.42,0-0.84,0-1.26,0c-0.36,0-0.721,0-1.08,0c-0.181,0-0.36,0-0.54,0
	c-0.24,0-0.48,0-0.72,0c0-1.56,0-3.12,0-4.68C31.26,112.86,34.439,112.86,37.62,112.86z"/>
<path fill-rule="evenodd" clip-rule="evenodd" fill="#0A1A3E" d="M61.02,112.86c0,0.24,0,0.479,0,0.72c0,0.181,0,0.36,0,0.54
	c0,0.36,0,0.72,0,1.08c0,0.18,0,0.36,0,0.54s0,0.36,0,0.54s0,0.36,0,0.54c0,0.24,0,0.48,0,0.72c0,0.181,0,0.36,0,0.54
	c0,0.181,0,0.36,0,0.54c0,0.181,0,0.36,0,0.54c0,0.24,0,0.48,0,0.72c0,0.181,0,0.36,0,0.54c0,0.181,0,0.36,0,0.54
	c0,0.42,0,0.841,0,1.261c-0.36,0-0.72,0-1.08,0c-0.18,0-0.359,0-0.54,0c-0.24,0-0.479,0-0.72,0c-0.18,0-0.36,0-0.54,0
	s-0.36,0-0.54,0s-0.36,0-0.54,0c-0.24,0-0.479,0-0.72,0c0-2.94,0-5.881,0-8.82c0-0.18,0-0.36,0-0.54c0.06,0,0.12,0,0.18,0
	c0.061,0,0.12,0,0.18,0c0.12,0,0.24,0,0.36,0c0.18,0,0.36,0,0.54,0c0.36,0,0.72,0,1.08,0c0.18,0,0.36,0,0.54,0s0.36,0,0.54,0
	C60.18,112.86,60.6,112.86,61.02,112.86z"/>
<path fill-rule="evenodd" clip-rule="evenodd" fill="#0A1A3E" d="M4.68,117.54c0,0.36,0,0.721,0,1.08c0,0.181,0,0.36,0,0.54
	c0,0.24,0,0.48,0,0.72c0,0.181,0,0.36,0,0.54c0,0.181,0,0.36,0,0.54c0,0.42,0,0.841,0,1.261c0,0.359,0,0.72,0,1.08
	c0,0.18,0,0.359,0,0.539c0,0.24,0,0.48,0,0.721c0,0.18,0,0.359,0,0.54c0,0.18,0,0.359,0,0.54c0,0.18,0,0.359,0,0.54
	c0,0.239,0,0.479,0,0.72c-0.78,0-1.56,0-2.34,0s-1.561,0-2.34,0c0-1.561,0-3.12,0-4.68c0-1.561,0-3.12,0-4.681
	c0.12,0,0.239,0,0.359,0c0.181,0,0.36,0,0.54,0c0.181,0,0.36,0,0.54,0c0.181,0,0.36,0,0.54,0s0.36,0,0.54,0s0.36,0,0.54,0
	s0.36,0,0.54,0s0.36,0,0.54,0S4.5,117.54,4.68,117.54z"/>
<path fill-rule="evenodd" clip-rule="evenodd" fill="#0A1A3E" d="M28.08,117.54c0,1.561,0,3.12,0,4.681c-0.36,0-0.721,0-1.08,0
	c-0.181,0-0.36,0-0.54,0c-0.24,0-0.48,0-0.721,0c-0.18,0-0.359,0-0.54,0c-0.18,0-0.359,0-0.54,0c-0.18,0-0.359,0-0.539,0
	c-0.24,0-0.48,0-0.721,0c0-1.381,0-2.761,0-4.141c0-0.18,0-0.359,0-0.54c0.061,0,0.12,0,0.181,0c0.72,0,1.439,0,2.159,0
	c0.36,0,0.721,0,1.08,0c0.181,0,0.36,0,0.54,0C27.6,117.54,27.84,117.54,28.08,117.54z"/>
<path fill-rule="evenodd" clip-rule="evenodd" fill="#0A1A3E" d="M23.399,122.221c0,1.56,0,3.119,0,4.68c-0.779,0-1.56,0-2.34,0
	s-1.56,0-2.34,0c0-1.38,0-2.76,0-4.14c0-0.181,0-0.36,0-0.54c0.24,0,0.479,0,0.72,0c0.181,0,0.36,0,0.54,0s0.36,0,0.54,0
	s0.36,0,0.54,0c0.36,0,0.72,0,1.08,0c0.18,0,0.36,0,0.54,0C22.92,122.221,23.159,122.221,23.399,122.221z"/>
<path fill-rule="evenodd" clip-rule="evenodd" fill="#0A1A3E" d="M56.34,122.221c0,0.06,0,0.12,0,0.18s0,0.12,0,0.18
	c0,0.12,0,0.24,0,0.36c0,0.18,0,0.36,0,0.54c0,0.359,0,0.72,0,1.08c0,0.18,0,0.359,0,0.54c0,0.18,0,0.359,0,0.54
	c0,0.42,0,0.84,0,1.26c-0.78,0-1.561,0-2.34,0c-0.78,0-1.561,0-2.341,0c0-1.38,0-2.76,0-4.14c0-0.181,0-0.36,0-0.54
	c0.24,0,0.48,0,0.721,0c0.18,0,0.359,0,0.54,0c0.18,0,0.359,0,0.54,0c0.18,0,0.359,0,0.54,0c0.359,0,0.72,0,1.08,0
	c0.18,0,0.359,0,0.54,0C55.859,122.221,56.1,122.221,56.34,122.221z"/>
</svg>
