<?xml version="1.0" encoding="utf-8"?>
<!-- Generator: Adobe Illustrator 15.0.0, SVG Export Plug-In  -->
<!DOCTYPE svg PUBLIC "-//W3C//DTD SVG 1.1//EN" "http://www.w3.org/Graphics/SVG/1.1/DTD/svg11.dtd" [
	<!ENTITY ns_flows "http://ns.adobe.com/Flows/1.0/">
]>
<svg version="1.1"
	 xmlns="http://www.w3.org/2000/svg" xmlns:xlink="http://www.w3.org/1999/xlink" xmlns:a="http://ns.adobe.com/AdobeSVGViewerExtensions/3.0/"
	 x="0px" y="0px" width="100px" height="150px" viewBox="-13.036 -18.42 100 150" enable-background="new -13.036 -18.42 100 150"
	 xml:space="preserve">
<defs>
</defs>
<path fill-rule="evenodd" clip-rule="evenodd" fill="#0A1A3E" d="M9.359,0c6.3,0,12.601,0,18.9,0c0,0.24,0,0.48,0,0.72
	c0,0.181,0,0.36,0,0.54c0,0.36,0,0.721,0,1.08c0,0.42,0,0.84,0,1.26c0,0.36,0,0.721,0,1.08c-6.3,0-12.601,0-18.9,0
	c0-0.359,0-0.72,0-1.08c0-0.42,0-0.84,0-1.26c0-0.359,0-0.72,0-1.08c0-0.18,0-0.359,0-0.54C9.359,0.48,9.359,0.24,9.359,0z"/>
<path fill-rule="evenodd" clip-rule="evenodd" fill="#0A1A3E" d="M42.3,0c0.06,0,0.12,0,0.18,0c4.62,0,9.24,0,13.86,0
	c0,0.24,0,0.48,0,0.72c0,0.181,0,0.36,0,0.54c0,0.36,0,0.721,0,1.08c0,0.42,0,0.84,0,1.26c0,0.36,0,0.721,0,1.08
	c-1.2,0-2.4,0-3.601,0c-1.14,0-2.279,0-3.42,0c-1.2,0-2.399,0-3.6,0c-1.14,0-2.28,0-3.42,0c0-0.359,0-0.72,0-1.08
	c0-0.42,0-0.84,0-1.26c0-0.359,0-0.72,0-1.08c0-0.18,0-0.359,0-0.54C42.3,0.48,42.3,0.24,42.3,0z"/>
<path fill-rule="evenodd" clip-rule="evenodd" fill="#0A1A3E" d="M9.359,4.68c0,0.24,0,0.48,0,0.721c0,0.119,0,0.239,0,0.359
	c0,0.181,0,0.36,0,0.54c0,0.12,0,0.24,0,0.36c0,0.6,0,1.2,0,1.8c0,1.14,0,2.28,0,3.42s0,2.28,0,3.42c0,1.141,0,2.28,0,3.42
	c-1.56,0-3.12,0-4.68,0c0-2.22,0-4.439,0-6.66c0-0.239,0-0.479,0-0.72c0-0.12,0-0.24,0-0.359c0-0.181,0-0.36,0-0.54
	c0-0.601,0-1.2,0-1.801c0-1.14,0-2.279,0-3.42c0-0.18,0-0.359,0-0.54C6.239,4.68,7.8,4.68,9.359,4.68z"/>
<path fill-rule="evenodd" clip-rule="evenodd" fill="#E0B49C" d="M9.359,4.68c6.3,0,12.601,0,18.9,0c0,0.24,0,0.48,0,0.721
	c0,0.18,0,0.359,0,0.54c0,0.359,0,0.72,0,1.079c0,0.36,0,0.721,0,1.08c0,0.181,0,0.36,0,0.54c0,0.24,0,0.48,0,0.721
	c0.18,0,0.359,0,0.54,0c1.38,0,2.76,0,4.14,0c0,0.779,0,1.56,0,2.34s0,1.56,0,2.34c-1.56,0-3.12,0-4.68,0c0,0.18,0,0.36,0,0.54
	s0,0.36,0,0.54c0,0.12,0,0.24,0,0.36c0,0.18,0,0.359,0,0.539c0,0.12,0,0.24,0,0.36c0,0.18,0,0.36,0,0.54c0,0.12,0,0.24,0,0.36
	c0,0.18,0,0.359,0,0.54c0,0.12,0,0.239,0,0.359c0,0.181,0,0.36,0,0.54c1.2,0,2.399,0,3.6,0c1.141,0,2.28,0,3.42,0
	c1.2,0,2.4,0,3.601,0c1.14,0,2.279,0,3.42,0c0,0.24,0,0.48,0,0.721c0,0.18,0,0.359,0,0.54c0,0.359,0,0.72,0,1.079
	c0,0.421,0,0.841,0,1.261c0,0.18,0,0.359,0,0.54c0,0.239,0,0.479,0,0.72c0.18,0,0.359,0,0.54,0c0.6,0,1.2,0,1.8,0s1.2,0,1.8,0
	c0.18,0,0.36,0,0.54,0c0,0.24,0,0.479,0,0.72c0,0.181,0,0.36,0,0.54c0,0.36,0,0.72,0,1.08c0,0.42,0,0.84,0,1.26
	c0,0.36,0,0.721,0,1.08c-2.34,0-4.68,0-7.02,0c-2.341,0-4.681,0-7.021,0c0,0.42,0,0.84,0,1.26c0,0.181,0,0.36,0,0.54
	c0,0.181,0,0.36,0,0.54c0,0.24,0,0.48,0,0.721c0,0.18,0,0.359,0,0.54c0,0.18,0,0.359,0,0.54c0,0.18,0,0.359,0,0.54
	c-1.56,0-3.12,0-4.68,0c0,0.239,0,0.479,0,0.72c0,0.18,0,0.359,0,0.54c0,0.359,0,0.72,0,1.08c0,0.42,0,0.84,0,1.26
	c0,0.36,0,0.72,0,1.08c-1.62,0-3.24,0-4.86,0c0,0.18,0,0.36,0,0.54c0,0.24,0,0.479,0,0.72c0,0.18,0,0.36,0,0.54
	c0,0.36,0,0.72,0,1.08c0,0.42,0,0.84,0,1.26c0,0.36,0,0.721,0,1.08c0,1.5,0,3,0,4.5s0,3,0,4.5s0,3,0,4.5c1.62,0,3.24,0,4.86,0
	c0,0.84,0,1.68,0,2.521c0,0.42,0,0.84,0,1.26c0,0.36,0,0.72,0,1.08c0,0.24,0,0.479,0,0.72c0,0.18,0,0.36,0,0.54
	c0,0.36,0,0.72,0,1.08c0,0.42,0,0.84,0,1.26c0,0.36,0,0.72,0,1.08c1.56,0,3.12,0,4.68,0c0,0.78,0,1.561,0,2.34
	c0,0.721,0,1.44,0,2.16c0,0.061,0,0.12,0,0.18c0.18,0,0.36,0,0.54,0c1.38,0,2.76,0,4.14,0c0,1.5,0,3,0,4.5c0,0.061,0,0.12,0,0.181
	c0.181,0,0.36,0,0.54,0c1.381,0,2.761,0,4.141,0c0,0.24,0,0.479,0,0.72c0,0.18,0,0.36,0,0.54c0,0.36,0,0.72,0,1.08
	c0,0.42,0,0.84,0,1.26c0,0.36,0,0.72,0,1.08c-0.42,0-0.84,0-1.26,0c-0.181,0-0.36,0-0.54,0c-0.181,0-0.36,0-0.54,0
	c-0.181,0-0.36,0-0.54,0c-0.181,0-0.36,0-0.54,0c-0.181,0-0.36,0-0.54,0c-0.12,0-0.24,0-0.36,0c-0.06,0-0.12,0-0.18,0
	c-0.061,0-0.12,0-0.181,0c0,0.18,0,0.36,0,0.54s0,0.36,0,0.54c0,0.12,0,0.24,0,0.36c0,0.18,0,0.359,0,0.54c0,0.119,0,0.239,0,0.359
	c0,0.601,0,1.2,0,1.8c0,0.181,0,0.36,0,0.54c1.381,0,2.761,0,4.141,0c0.18,0,0.359,0,0.54,0c0,0.24,0,0.48,0,0.721
	c0,0.18,0,0.359,0,0.54c0,0.359,0,0.72,0,1.08c0,0.42,0,0.84,0,1.26c0,0.18,0,0.359,0,0.54c0,0.18,0,0.359,0,0.54
	c0,0.239,0,0.479,0,0.72c0,0.18,0,0.36,0,0.54s0,0.36,0,0.54s0,0.36,0,0.54c0,0.42,0,0.84,0,1.26c0,0.36,0,0.72,0,1.08
	c1.56,0,3.12,0,4.68,0c0,0.18,0,0.36,0,0.54c0,0.12,0,0.24,0,0.36c0,0.3,0,0.6,0,0.899s0,0.601,0,0.9s0,0.6,0,0.899
	c0,0.301,0,0.601,0,0.9s0,0.6,0,0.9c0,0.3,0,0.6,0,0.899s0,0.601,0,0.9s0,0.6,0,0.899c0,0.301,0,0.601,0,0.9s0,0.6,0,0.9
	c0,0.3,0,0.6,0,0.899s0,0.601,0,0.9s0,0.6,0,0.899c0,0.54,0,1.08,0,1.62c-1.56,0-3.12,0-4.68,0c0,1.561,0,3.12,0,4.681
	c-6.3,0-12.601,0-18.9,0c0-1.561,0-3.12,0-4.681c-1.56,0-3.12,0-4.68,0c0-2.399,0-4.8,0-7.199c0-2.341,0-4.681,0-7.021
	c-1.561,0-3.12,0-4.68,0c0-0.54,0-1.08,0-1.62c0-0.479,0-0.96,0-1.439c0-0.96,0-1.92,0-2.881c0-1.92,0-3.84,0-5.76
	c0-3.899,0-7.8,0-11.7c0-0.42,0-0.84,0-1.26c0-0.359,0-0.72,0-1.08c0-0.239,0-0.479,0-0.72c0-0.18,0-0.36,0-0.54
	c0-0.36,0-0.72,0-1.08c-1.561,0-3.12,0-4.681,0c0-1.56,0-3.12,0-4.68c0-0.84,0-1.681,0-2.521c0-0.779,0-1.56,0-2.34
	c-1.56,0-3.12,0-4.68,0c0-1.56,0-3.12,0-4.68c0-1.561,0-3.12,0-4.68c0-0.421,0-0.841,0-1.261c0-0.18,0-0.359,0-0.54
	c0-0.18,0-0.359,0-0.54c0-0.42,0-0.84,0-1.26c0-0.18,0-0.36,0-0.54s0-0.359,0-0.54c0-0.42,0-0.84,0-1.26c0-0.18,0-0.36,0-0.54
	s0-0.36,0-0.54c0-0.78,0-1.56,0-2.34c1.56,0,3.12,0,4.68,0c0-0.18,0-0.36,0-0.54c0-0.72,0-1.44,0-2.16c0-0.66,0-1.32,0-1.979
	c0-0.78,0-1.561,0-2.341c0-0.779,0-1.56,0-2.34c1.561,0,3.12,0,4.681,0c0-0.779,0-1.56,0-2.34s0-1.56,0-2.34c1.56,0,3.119,0,4.68,0
	c0-0.18,0-0.36,0-0.54c0-1.26,0-2.521,0-3.78c0-0.18,0-0.359,0-0.54c-1.561,0-3.12,0-4.68,0c-1.561,0-3.12,0-4.681,0
	c0-1.14,0-2.279,0-3.42c0-1.14,0-2.28,0-3.42s0-2.28,0-3.42c0-0.6,0-1.2,0-1.8c0-0.12,0-0.24,0-0.36c0-0.18,0-0.359,0-0.54
	c0-0.12,0-0.24,0-0.359C9.359,5.16,9.359,4.92,9.359,4.68z"/>
<path fill-rule="evenodd" clip-rule="evenodd" fill="#0A1A3E" d="M28.26,4.68c1.56,0,3.12,0,4.68,0c0,0.181,0,0.36,0,0.54
	c0,0.12,0,0.24,0,0.36c0,0.18,0,0.36,0,0.54c0,0.36,0,0.72,0,1.08c0,0.72,0,1.439,0,2.16c-1.38,0-2.76,0-4.14,0
	c-0.181,0-0.36,0-0.54,0c0-0.24,0-0.48,0-0.721c0-0.18,0-0.359,0-0.54c0-0.359,0-0.72,0-1.08c0-0.359,0-0.72,0-1.079
	c0-0.181,0-0.36,0-0.54C28.26,5.16,28.26,4.92,28.26,4.68z"/>
<path fill-rule="evenodd" clip-rule="evenodd" fill="#0A1A3E" d="M42.3,4.68c0,0.061,0,0.12,0,0.181c0,0.42,0,0.84,0,1.26
	c0,0.36,0,0.72,0,1.08c0,0.72,0,1.439,0,2.16c-1.561,0-3.12,0-4.681,0c0-0.36,0-0.721,0-1.08c0-0.42,0-0.84,0-1.261
	c0-0.779,0-1.56,0-2.34C39.18,4.68,40.739,4.68,42.3,4.68z"/>
<path fill-rule="evenodd" clip-rule="evenodd" fill="#BB6B5C" d="M42.3,4.68c1.14,0,2.28,0,3.42,0c1.2,0,2.399,0,3.6,0
	c1.141,0,2.28,0,3.42,0c1.2,0,2.4,0,3.601,0c0,0.24,0,0.48,0,0.721c0,0.18,0,0.359,0,0.54c0,0.359,0,0.72,0,1.079
	c0,0.36,0,0.721,0,1.08c0,0.181,0,0.36,0,0.54c0,0.24,0,0.48,0,0.721c0.18,0,0.359,0,0.54,0c1.38,0,2.76,0,4.14,0
	c0,0.779,0,1.56,0,2.34c0,0.24,0,0.479,0,0.72c0,0.18,0,0.36,0,0.54c0,0.36,0,0.72,0,1.08c0,0.42,0,0.84,0,1.26
	c0,0.181,0,0.36,0,0.54s0,0.36,0,0.54c0,0.24,0,0.48,0,0.72c0,0.181,0,0.36,0,0.54c0,0.181,0,0.36,0,0.54c0,0.181,0,0.36,0,0.54
	c1.62,0,3.24,0,4.86,0c0,1.62,0,3.24,0,4.86c0,0.24,0,0.479,0,0.72c0,0.181,0,0.36,0,0.54s0,0.36,0,0.54s0,0.36,0,0.54
	c0,0.24,0,0.48,0,0.72c0,0.181,0,0.36,0,0.54c0,0.36,0,0.721,0,1.08c1.56,0,3.12,0,4.68,0c0,0.42,0,0.84,0,1.26
	c0,0.181,0,0.36,0,0.54c0,0.181,0,0.36,0,0.54c0,0.24,0,0.48,0,0.721c0,0.18,0,0.359,0,0.54c0,0.18,0,0.359,0,0.54
	c0,0.18,0,0.359,0,0.54c0,0.239,0,0.479,0,0.72c0,0.18,0,0.359,0,0.54c0,0.18,0,0.359,0,0.54c0,0.18,0,0.359,0,0.54
	c0,0.239,0,0.479,0,0.72c0,0.18,0,0.36,0,0.54c0,0.36,0,0.72,0,1.08c-1.56,0-3.12,0-4.68,0c0-0.78,0-1.561,0-2.34
	c0-0.36,0-0.721,0-1.08c0-0.181,0-0.36,0-0.54c0-0.12,0-0.24,0-0.36c0-0.06,0-0.12,0-0.18c0-0.061,0-0.12,0-0.18
	c-0.181,0-0.36,0-0.54,0c-1.26,0-2.521,0-3.78,0c-0.18,0-0.36,0-0.54,0c0-0.78,0-1.561,0-2.341c0-0.779,0-1.56,0-2.34
	c0-0.779,0-1.56,0-2.34s0-1.56,0-2.34c-1.56,0-3.12,0-4.68,0c0-0.78,0-1.561,0-2.34c0-0.42,0-0.84,0-1.26c0-0.181,0-0.36,0-0.54
	c0-0.24,0-0.48,0-0.721c-0.181,0-0.36,0-0.54,0c-2.76,0-5.521,0-8.28,0c-0.18,0-0.36,0-0.54,0c0-0.239,0-0.479,0-0.72
	c0-0.18,0-0.36,0-0.54s0-0.36,0-0.54s0-0.36,0-0.54c0-0.36,0-0.72,0-1.08c0-0.18,0-0.359,0-0.54c0-0.24,0-0.479,0-0.72
	c-0.18,0-0.36,0-0.54,0c-2.939,0-5.88,0-8.82,0c0-0.78,0-1.56,0-2.34c0-0.42,0-0.84,0-1.26c0-0.181,0-0.36,0-0.54
	c0-0.181,0-0.36,0-0.54c1.561,0,3.12,0,4.681,0c0-0.721,0-1.44,0-2.16c0-0.36,0-0.72,0-1.08c0-0.42,0-0.84,0-1.26
	C42.3,4.8,42.3,4.74,42.3,4.68z"/>
<path fill-rule="evenodd" clip-rule="evenodd" fill="#0A1A3E" d="M56.34,4.68c0.12,0,0.239,0,0.359,0c0.181,0,0.36,0,0.54,0
	c0.36,0,0.721,0,1.08,0c0.721,0,1.44,0,2.16,0c0.18,0,0.36,0,0.54,0c0,0.061,0,0.12,0,0.181c0,0.06,0,0.12,0,0.18
	c0,0.12,0,0.24,0,0.36c0,0.18,0,0.359,0,0.54c0,0.359,0,0.72,0,1.079c0,0.78,0,1.561,0,2.341c-1.38,0-2.76,0-4.14,0
	c-0.181,0-0.36,0-0.54,0c0-0.24,0-0.48,0-0.721c0-0.18,0-0.359,0-0.54c0-0.359,0-0.72,0-1.08c0-0.359,0-0.72,0-1.079
	c0-0.181,0-0.36,0-0.54C56.34,5.16,56.34,4.92,56.34,4.68z"/>
<path fill-rule="evenodd" clip-rule="evenodd" fill="#0A1A3E" d="M32.939,9.36c1.561,0,3.12,0,4.68,0c0,0.18,0,0.359,0,0.54
	c0,0.18,0,0.359,0,0.54c0,0.42,0,0.84,0,1.26c0,0.78,0,1.56,0,2.34c-1.56,0-3.119,0-4.68,0c0-0.78,0-1.56,0-2.34
	S32.939,10.14,32.939,9.36z"/>
<path fill-rule="evenodd" clip-rule="evenodd" fill="#0A1A3E" d="M61.02,9.36c1.62,0,3.24,0,4.86,0c0,0.18,0,0.359,0,0.54
	c0,0.72,0,1.439,0,2.159c0,0.721,0,1.44,0,2.16c0,1.5,0,3,0,4.5c-1.62,0-3.24,0-4.86,0c0-0.18,0-0.359,0-0.54c0-0.18,0-0.359,0-0.54
	c0-0.18,0-0.359,0-0.54c0-0.239,0-0.479,0-0.72c0-0.18,0-0.36,0-0.54s0-0.359,0-0.54c0-0.42,0-0.84,0-1.26c0-0.36,0-0.72,0-1.08
	c0-0.18,0-0.36,0-0.54c0-0.24,0-0.479,0-0.72C61.02,10.92,61.02,10.14,61.02,9.36z"/>
<path fill-rule="evenodd" clip-rule="evenodd" fill="#D97761" d="M32.939,14.04c1.561,0,3.12,0,4.68,0c2.94,0,5.881,0,8.82,0
	c0.18,0,0.36,0,0.54,0c0,0.24,0,0.479,0,0.72c0,0.181,0,0.36,0,0.54c0,0.36,0,0.72,0,1.08c0,0.18,0,0.36,0,0.54s0,0.36,0,0.54
	s0,0.36,0,0.54c0,0.24,0,0.48,0,0.72c0.18,0,0.36,0,0.54,0c2.76,0,5.521,0,8.28,0c0.18,0,0.359,0,0.54,0c0,0.24,0,0.48,0,0.721
	c0,0.18,0,0.359,0,0.54c0,0.42,0,0.84,0,1.26c0,0.779,0,1.56,0,2.34c1.56,0,3.12,0,4.68,0c0,0.78,0,1.56,0,2.34s0,1.561,0,2.34
	c-2.34,0-4.68,0-7.02,0c-2.341,0-4.681,0-7.021,0c0-0.359,0-0.72,0-1.08c0-0.42,0-0.84,0-1.26c0-0.36,0-0.72,0-1.08
	c0-0.18,0-0.359,0-0.54c0-0.24,0-0.479,0-0.72c-0.18,0-0.36,0-0.54,0c-0.6,0-1.2,0-1.8,0s-1.2,0-1.8,0c-0.181,0-0.36,0-0.54,0
	c0-0.24,0-0.48,0-0.72c0-0.181,0-0.36,0-0.54c0-0.42,0-0.84,0-1.261c0-0.359,0-0.72,0-1.079c0-0.181,0-0.36,0-0.54
	c0-0.24,0-0.48,0-0.721c-1.141,0-2.28,0-3.42,0c-1.2,0-2.4,0-3.601,0c-1.14,0-2.279,0-3.42,0c-1.2,0-2.399,0-3.6,0
	c0-0.18,0-0.359,0-0.54c0-0.12,0-0.239,0-0.359c0-0.181,0-0.36,0-0.54c0-0.12,0-0.24,0-0.36c0-0.18,0-0.36,0-0.54
	c0-0.12,0-0.24,0-0.36c0-0.18,0-0.359,0-0.539c0-0.12,0-0.24,0-0.36c0-0.18,0-0.36,0-0.54s0-0.36,0-0.54
	C29.819,14.04,31.38,14.04,32.939,14.04z"/>
<path fill-rule="evenodd" clip-rule="evenodd" fill="#0A1A3E" d="M9.359,18.72c1.561,0,3.12,0,4.681,0c0,0.42,0,0.84,0,1.261
	c0,0.42,0,0.84,0,1.26c0,0.24,0,0.479,0,0.72c0,0.18,0,0.36,0,0.54c0,0.36,0,0.72,0,1.08c-1.561,0-3.12,0-4.681,0
	c0-0.36,0-0.72,0-1.08c0-0.42,0-0.84,0-1.26C9.359,20.4,9.359,19.56,9.359,18.72z"/>
<path fill-rule="evenodd" clip-rule="evenodd" fill="#D97761" d="M14.04,18.72c1.56,0,3.119,0,4.68,0c0,0.181,0,0.36,0,0.54
	c0,1.26,0,2.521,0,3.78c0,0.18,0,0.36,0,0.54c-1.561,0-3.12,0-4.68,0c0-0.36,0-0.72,0-1.08c0-0.18,0-0.36,0-0.54
	c0-0.24,0-0.479,0-0.72c0-0.42,0-0.84,0-1.26C14.04,19.56,14.04,19.14,14.04,18.72z"/>
<path fill-rule="evenodd" clip-rule="evenodd" fill="#0A1A3E" d="M65.88,18.72c1.56,0,3.12,0,4.68,0c0,0.181,0,0.36,0,0.54
	c0,0.181,0,0.36,0,0.54c0,0.181,0,0.36,0,0.54s0,0.36,0,0.54s0,0.36,0,0.54s0,0.36,0,0.54s0,0.36,0,0.54s0,0.36,0,0.54
	c0,0.24,0,0.479,0,0.72c0,0.721,0,1.44,0,2.16c0,0.18,0,0.36,0,0.54s0,0.36,0,0.54c0,0.42,0,0.84,0,1.26c-1.56,0-3.12,0-4.68,0
	c0-0.359,0-0.72,0-1.08c0-0.18,0-0.359,0-0.54c0-0.239,0-0.479,0-0.72c0-0.18,0-0.36,0-0.54s0-0.36,0-0.54s0-0.359,0-0.54
	c0-0.24,0-0.479,0-0.72C65.88,21.96,65.88,20.34,65.88,18.72z"/>
<path fill-rule="evenodd" clip-rule="evenodd" fill="#0A1A3E" d="M9.359,23.58c0,0.06,0,0.12,0,0.18c0,0.42,0,0.84,0,1.26
	c0,0.36,0,0.721,0,1.08c0,0.721,0,1.44,0,2.16c0,0.78,0,1.561,0,2.34c0,0.78,0,1.561,0,2.341c-1.56,0-3.12,0-4.68,0
	c0-0.36,0-0.721,0-1.08c0-0.42,0-0.841,0-1.261c0-0.359,0-0.72,0-1.08c0-0.42,0-0.84,0-1.26c0-1.56,0-3.12,0-4.68
	C6.239,23.58,7.8,23.58,9.359,23.58z"/>
<path fill-rule="evenodd" clip-rule="evenodd" fill="#D97761" d="M9.359,23.58c1.561,0,3.12,0,4.681,0c0,0.78,0,1.56,0,2.34
	s0,1.561,0,2.34c-1.561,0-3.12,0-4.681,0c0-0.72,0-1.439,0-2.16c0-0.359,0-0.72,0-1.08c0-0.42,0-0.84,0-1.26
	C9.359,23.7,9.359,23.64,9.359,23.58z"/>
<path fill-rule="evenodd" clip-rule="evenodd" fill="#FDFEFF" d="M46.979,28.26c2.34,0,4.68,0,7.021,0c2.34,0,4.68,0,7.02,0
	c0,0.78,0,1.561,0,2.34c0,0.78,0,1.561,0,2.341c0.18,0,0.36,0,0.54,0c1.26,0,2.521,0,3.78,0c0.18,0,0.359,0,0.54,0
	c0,0.06,0,0.119,0,0.18c0,0.06,0,0.12,0,0.18c0,0.12,0,0.24,0,0.36c0,0.18,0,0.359,0,0.54c0,0.359,0,0.72,0,1.08
	c0,0.779,0,1.56,0,2.34c-1.62,0-3.24,0-4.86,0c0,0.42,0,0.84,0,1.26c0,0.18,0,0.36,0,0.54s0,0.36,0,0.54c0,0.24,0,0.48,0,0.72
	c0,0.181,0,0.36,0,0.54c0,0.181,0,0.36,0,0.54c0,0.181,0,0.36,0,0.54c-0.42,0-0.84,0-1.26,0c-0.18,0-0.36,0-0.54,0s-0.36,0-0.54,0
	s-0.36,0-0.54,0s-0.36,0-0.54,0s-0.36,0-0.54,0c-0.12,0-0.24,0-0.36,0c-0.06,0-0.12,0-0.18,0s-0.12,0-0.18,0c0,0.181,0,0.36,0,0.54
	c0,0.12,0,0.24,0,0.36c0,0.18,0,0.359,0,0.54c0,0.12,0,0.24,0,0.359c0,0.181,0,0.36,0,0.54c0,0.12,0,0.24,0,0.36
	c0,0.18,0,0.36,0,0.54c0,0.12,0,0.24,0,0.36c0,1.14,0,2.279,0,3.42c0,0.3,0,0.6,0,0.899s0,0.601,0,0.9s0,0.6,0,0.899
	c0,0.301,0,0.601,0,0.9c0,1.14,0,2.28,0,3.42c1.56,0,3.12,0,4.68,0c0,1.62,0,3.24,0,4.86c0.18,0,0.36,0,0.54,0c3,0,6,0,9,0
	c0,1.56,0,3.12,0,4.68c-1.56,0-3.12,0-4.68,0c0,0.18,0,0.36,0,0.54c0,0.72,0,1.44,0,2.16c0,0.66,0,1.32,0,1.979
	c-4.74,0-9.48,0-14.221,0c-2.34,0-4.68,0-7.02,0s-4.68,0-7.021,0c0-1.5,0-3,0-4.5c0-0.06,0-0.119,0-0.18c-0.18,0-0.359,0-0.539,0
	c-1.381,0-2.761,0-4.141,0c-1.56,0-3.12,0-4.68,0c0-0.36,0-0.72,0-1.08c0-0.42,0-0.84,0-1.26c0-0.36,0-0.72,0-1.08
	c0-0.18,0-0.36,0-0.54c0-0.24,0-0.479,0-0.72c0-0.36,0-0.72,0-1.08c0-0.42,0-0.84,0-1.26c0-0.841,0-1.681,0-2.521
	c1.56,0,3.12,0,4.68,0c0,1.62,0,3.24,0,4.86c2.34,0,4.68,0,7.021,0c2.34,0,4.68,0,7.02,0c0-0.84,0-1.681,0-2.521
	c0-0.779,0-1.56,0-2.34c1.561,0,3.12,0,4.68,0c0-0.18,0-0.359,0-0.54c0-0.12,0-0.24,0-0.359c0-0.181,0-0.36,0-0.54
	c0-0.12,0-0.24,0-0.36c0-0.6,0-1.2,0-1.8c0-0.601,0-1.2,0-1.8c0-0.54,0-1.08,0-1.62c0-0.301,0-0.601,0-0.9s0-0.6,0-0.9
	c0-0.6,0-1.199,0-1.8c0-0.18,0-0.359,0-0.54c0-0.12,0-0.239,0-0.359c0-0.181,0-0.36,0-0.54c0-0.12,0-0.24,0-0.36
	c0-0.54,0-1.08,0-1.62c-0.42,0-0.84,0-1.26,0c-0.18,0-0.359,0-0.54,0c-0.18,0-0.359,0-0.54,0c-0.239,0-0.479,0-0.72,0
	c-0.18,0-0.36,0-0.54,0s-0.36,0-0.54,0s-0.36,0-0.54,0c0-0.24,0-0.479,0-0.72c0-0.18,0-0.36,0-0.54s0-0.36,0-0.54s0-0.36,0-0.54
	c0-0.36,0-0.72,0-1.08c0-0.18,0-0.36,0-0.54c0-0.24,0-0.479,0-0.72c-1.2,0-2.399,0-3.6,0c-1.141,0-2.28,0-3.42,0
	c-1.2,0-2.4,0-3.601,0c-1.14,0-2.28,0-3.42,0c0,0.42,0,0.84,0,1.26c0,0.18,0,0.36,0,0.54s0,0.36,0,0.54c0,0.24,0,0.48,0,0.72
	c0,0.181,0,0.36,0,0.54c0,0.181,0,0.36,0,0.54c0,0.181,0,0.36,0,0.54c-0.42,0-0.84,0-1.26,0c-0.18,0-0.36,0-0.54,0s-0.36,0-0.54,0
	s-0.36,0-0.54,0s-0.36,0-0.54,0s-0.36,0-0.54,0c-0.12,0-0.24,0-0.36,0c-0.06,0-0.119,0-0.18,0c-0.06,0-0.12,0-0.18,0
	c0,0.181,0,0.36,0,0.54c0,0.12,0,0.24,0,0.36c0,0.18,0,0.359,0,0.54c0,0.12,0,0.24,0,0.359c0,0.181,0,0.36,0,0.54
	c0,0.12,0,0.24,0,0.36c0,0.18,0,0.36,0,0.54c0,0.12,0,0.24,0,0.36c0,1.14,0,2.279,0,3.42c0,0.3,0,0.6,0,0.899s0,0.601,0,0.9
	s0,0.6,0,0.899c0,0.301,0,0.601,0,0.9c0,1.14,0,2.28,0,3.42c-1.62,0-3.24,0-4.86,0c0-1.5,0-3,0-4.5s0-3,0-4.5s0-3,0-4.5
	c0-0.359,0-0.72,0-1.08c0-0.42,0-0.84,0-1.26c0-0.36,0-0.72,0-1.08c0-0.18,0-0.36,0-0.54c0-0.24,0-0.479,0-0.72
	c0-0.18,0-0.36,0-0.54c1.62,0,3.24,0,4.86,0c0-0.36,0-0.72,0-1.08c0-0.42,0-0.84,0-1.26c0-0.36,0-0.721,0-1.08
	c0-0.181,0-0.36,0-0.54c0-0.24,0-0.48,0-0.72c1.56,0,3.12,0,4.68,0c0-0.181,0-0.36,0-0.54c0-0.181,0-0.36,0-0.54
	c0-0.181,0-0.36,0-0.54c0-0.24,0-0.48,0-0.721c0-0.18,0-0.359,0-0.54c0-0.18,0-0.359,0-0.54c0-0.42,0-0.84,0-1.26
	c2.34,0,4.68,0,7.021,0C42.3,28.26,44.64,28.26,46.979,28.26z"/>
<path fill-rule="evenodd" clip-rule="evenodd" fill="#0A1A3E" d="M70.56,28.26c1.561,0,3.12,0,4.68,0c0,0.78,0,1.561,0,2.34
	c0,0.78,0,1.561,0,2.341c0,1.56,0,3.119,0,4.68c-1.56,0-3.119,0-4.68,0c0-0.36,0-0.72,0-1.08c0-0.18,0-0.36,0-0.54
	c0-0.24,0-0.48,0-0.72c0-0.181,0-0.36,0-0.54c0-0.181,0-0.36,0-0.54c0-0.181,0-0.36,0-0.54c0-0.24,0-0.48,0-0.72
	c0-0.181,0-0.36,0-0.54c0-0.181,0-0.36,0-0.54c0-0.181,0-0.36,0-0.54c0-0.24,0-0.48,0-0.721c0-0.18,0-0.359,0-0.54
	c0-0.18,0-0.359,0-0.54C70.56,29.1,70.56,28.68,70.56,28.26z"/>
<path fill-rule="evenodd" clip-rule="evenodd" fill="#0A1A3E" d="M4.68,32.94c0,0.06,0,0.119,0,0.18c0,0.24,0,0.479,0,0.72
	c0,0.18,0,0.36,0,0.54c0,0.36,0,0.72,0,1.08c0,0.72,0,1.44,0,2.16c0,0.78,0,1.56,0,2.34c0,0.18,0,0.36,0,0.54s0,0.36,0,0.54
	c0,0.42,0,0.84,0,1.26c0,0.181,0,0.36,0,0.54s0,0.36,0,0.54c0,0.42,0,0.84,0,1.26c0,0.181,0,0.36,0,0.54c0,0.181,0,0.36,0,0.54
	c0,0.42,0,0.84,0,1.261c0,1.56,0,3.119,0,4.68c0,1.56,0,3.12,0,4.68c0,1.62,0,3.24,0,4.86c-1.38,0-2.76,0-4.14,0
	c-0.181,0-0.36,0-0.54,0c0-0.061,0-0.12,0-0.181c0-0.239,0-0.479,0-0.72c0-0.12,0-0.24,0-0.359c0-0.181,0-0.36,0-0.54
	c0-0.12,0-0.24,0-0.36c0-0.18,0-0.36,0-0.54c0-0.12,0-0.24,0-0.36c0-0.18,0-0.359,0-0.54C0,56.4,0,55.2,0,54c0-2.34,0-4.68,0-7.02
	c0-1.141,0-2.28,0-3.421C0,43.44,0,43.32,0,43.2c0-0.181,0-0.36,0-0.54c0-0.12,0-0.24,0-0.36c0-0.18,0-0.359,0-0.54
	c0-0.12,0-0.24,0-0.359c0-0.181,0-0.36,0-0.54c0-0.12,0-0.24,0-0.36c0-0.18,0-0.36,0-0.54c0-2.34,0-4.68,0-7.02
	C1.56,32.94,3.119,32.94,4.68,32.94z"/>
<path fill-rule="evenodd" clip-rule="evenodd" fill="#D97761" d="M4.68,32.94c1.56,0,3.12,0,4.68,0c0,0.659,0,1.319,0,1.979
	c0,0.72,0,1.44,0,2.16c0,0.18,0,0.36,0,0.54c-1.56,0-3.12,0-4.68,0c0-0.72,0-1.44,0-2.16c0-0.36,0-0.72,0-1.08c0-0.18,0-0.36,0-0.54
	c0-0.24,0-0.479,0-0.72C4.68,33.06,4.68,33,4.68,32.94z"/>
<path fill-rule="evenodd" clip-rule="evenodd" fill="#0A1A3E" d="M46.979,42.3c-0.18,0-0.36,0-0.54,0c-0.12,0-0.24,0-0.359,0
	c-0.181,0-0.36,0-0.54,0c-0.181,0-0.36,0-0.54,0c-0.181,0-0.36,0-0.54,0c-0.24,0-0.48,0-0.721,0c-0.18,0-0.359,0-0.54,0
	c-0.18,0-0.359,0-0.54,0c-0.18,0-0.359,0-0.54,0c-1.5,0-3,0-4.5,0c0,0.181,0,0.36,0,0.54c0,1.141,0.001,2.28,0,3.42
	c0,1.08,0.001,2.16,0,3.24c0,1.14,0.001,2.28,0,3.42c0,0.3,0,0.6,0,0.9c0,0.239,0,0.479,0,0.72c0,0.3,0,0.6,0,0.9
	c0,0.239,0,0.479,0,0.72c0,0.06,0,0.12,0,0.18c0.181,0,0.36,0,0.54,0c2.94,0,5.881,0,8.82,0c0,0.78,0,1.561,0,2.34
	c0,0.84,0,1.681,0,2.521c-2.34,0-4.68,0-7.02,0c-2.341,0-4.681,0-7.021,0c0-1.62,0-3.24,0-4.86c-1.56,0-3.12,0-4.68,0
	c0-1.14,0-2.28,0-3.42c0-0.3,0-0.6,0-0.9c0-0.3,0-0.6,0-0.899s0-0.601,0-0.9s0-0.6,0-0.899c0-1.141,0-2.28,0-3.42
	c0-0.12,0-0.24,0-0.36c0-0.18,0-0.36,0-0.54c0-0.12,0-0.24,0-0.36c0-0.18,0-0.359,0-0.54c0-0.119,0-0.239,0-0.359
	c0-0.181,0-0.36,0-0.54c0-0.12,0-0.24,0-0.36c0-0.18,0-0.359,0-0.54c0.06,0,0.12,0,0.18,0c0.061,0,0.12,0,0.18,0
	c0.12,0,0.24,0,0.36,0c0.18,0,0.36,0,0.54,0s0.36,0,0.54,0s0.36,0,0.54,0s0.36,0,0.54,0s0.36,0,0.54,0c0.42,0,0.84,0,1.26,0
	c0-0.18,0-0.359,0-0.54c0-0.18,0-0.359,0-0.54c0-0.18,0-0.359,0-0.54c0-0.239,0-0.479,0-0.72c0-0.18,0-0.36,0-0.54s0-0.36,0-0.54
	c0-0.42,0-0.84,0-1.26c1.14,0,2.28,0,3.42,0c1.2,0,2.4,0,3.601,0c1.14,0,2.279,0,3.42,0c1.2,0,2.399,0,3.6,0c0,0.24,0,0.479,0,0.72
	c0,0.18,0,0.36,0,0.54c0,0.36,0,0.72,0,1.08c0,0.18,0,0.36,0,0.54s0,0.36,0,0.54s0,0.36,0,0.54
	C46.979,41.82,46.979,42.06,46.979,42.3z"/>
<path fill-rule="evenodd" clip-rule="evenodd" fill="#0A1A3E" d="M65.88,37.62c1.56,0,3.12,0,4.68,0c0,0.42,0,0.84,0,1.26
	c0,0.18,0,0.36,0,0.54s0,0.36,0,0.54c0,0.24,0,0.48,0,0.72c0,0.181,0,0.36,0,0.54c0,0.36,0,0.721,0,1.08c-0.42,0-0.84,0-1.26,0
	c-0.181,0-0.36,0-0.54,0s-0.36,0-0.54,0s-0.36,0-0.54,0s-0.36,0-0.54,0s-0.36,0-0.54,0c-0.12,0-0.24,0-0.36,0c-0.06,0-0.12,0-0.18,0
	s-0.12,0-0.18,0c0,0.181,0,0.36,0,0.54c0,0.12,0,0.24,0,0.36c0,0.18,0,0.359,0,0.54c0,0.12,0,0.24,0,0.359c0,0.181,0,0.36,0,0.54
	c0,0.12,0,0.24,0,0.36c0,0.18,0,0.36,0,0.54c0,0.12,0,0.24,0,0.36c0,1.14,0,2.279,0,3.42c0,2.34,0,4.68,0,7.02c1.56,0,3.12,0,4.68,0
	c0,1.62,0,3.24,0,4.86c-3,0-6,0-9,0c-0.18,0-0.36,0-0.54,0c0-1.62,0-3.24,0-4.86c-1.56,0-3.12,0-4.68,0c0-1.14,0-2.28,0-3.42
	c0-0.3,0-0.6,0-0.9c0-0.3,0-0.6,0-0.899s0-0.601,0-0.9s0-0.6,0-0.899c0-1.141,0-2.28,0-3.42c0-0.12,0-0.24,0-0.36
	c0-0.18,0-0.36,0-0.54c0-0.12,0-0.24,0-0.36c0-0.18,0-0.359,0-0.54c0-0.119,0-0.239,0-0.359c0-0.181,0-0.36,0-0.54
	c0-0.12,0-0.24,0-0.36c0-0.18,0-0.359,0-0.54c0.06,0,0.12,0,0.18,0s0.12,0,0.18,0c0.12,0,0.24,0,0.36,0c0.18,0,0.36,0,0.54,0
	s0.36,0,0.54,0s0.36,0,0.54,0s0.36,0,0.54,0s0.36,0,0.54,0c0.42,0,0.84,0,1.26,0c0-0.18,0-0.359,0-0.54c0-0.18,0-0.359,0-0.54
	c0-0.18,0-0.359,0-0.54c0-0.239,0-0.479,0-0.72c0-0.18,0-0.36,0-0.54s0-0.36,0-0.54c0-0.42,0-0.84,0-1.26
	C62.64,37.62,64.26,37.62,65.88,37.62z"/>
<path fill-rule="evenodd" clip-rule="evenodd" fill="#BB6B5C" d="M70.56,37.62c1.561,0,3.12,0,4.68,0c0,0.42,0,0.84,0,1.26
	c0,0.18,0,0.36,0,0.54s0,0.36,0,0.54c0,0.24,0,0.48,0,0.72c0,0.181,0,0.36,0,0.54c0,0.36,0,0.721,0,1.08c-0.42,0-0.84,0-1.26,0
	c-0.18,0-0.359,0-0.54,0c-0.18,0-0.36,0-0.54,0c-0.24,0-0.479,0-0.72,0c-0.18,0-0.36,0-0.54,0s-0.36,0-0.54,0s-0.36,0-0.54,0
	c0-0.359,0-0.72,0-1.08c0-0.18,0-0.359,0-0.54c0-0.239,0-0.479,0-0.72c0-0.18,0-0.36,0-0.54s0-0.36,0-0.54
	C70.56,38.46,70.56,38.04,70.56,37.62z"/>
<path fill-rule="evenodd" clip-rule="evenodd" fill="#0A1A3E" d="M75.239,37.62c1.561,0,3.12,0,4.681,0c0,0.54,0,1.08,0,1.62
	c0,0.479,0,0.96,0,1.439c0,0.96,0,1.92,0,2.88c0,0.54,0,1.08,0,1.62c0,0.48,0,0.96,0,1.44c0,0.96,0,1.92,0,2.88
	c0,1.98,0,3.96,0,5.94c0,1.92,0,3.84,0,5.76c-1.561,0-3.12,0-4.681,0c0-0.84,0-1.681,0-2.521c0-0.779,0-1.56,0-2.34
	c-1.56,0-3.119,0-4.68,0c0-1.2,0-2.399,0-3.6c0-0.601,0-1.2,0-1.8c0-0.54,0-1.08,0-1.62c0-1.2,0-2.4,0-3.601c0-1.14,0-2.279,0-3.42
	c0.18,0,0.36,0,0.54,0s0.36,0,0.54,0s0.36,0,0.54,0c0.24,0,0.479,0,0.72,0c0.18,0,0.36,0,0.54,0c0.181,0,0.36,0,0.54,0
	c0.42,0,0.84,0,1.26,0c0-0.359,0-0.72,0-1.08c0-0.18,0-0.359,0-0.54c0-0.239,0-0.479,0-0.72c0-0.18,0-0.36,0-0.54s0-0.36,0-0.54
	C75.239,38.46,75.239,38.04,75.239,37.62z"/>
<path fill-rule="evenodd" clip-rule="evenodd" fill="#FDFEFF" d="M46.979,42.3c0,0.181,0,0.36,0,0.54c0,0.12,0,0.24,0,0.36
	c0,0.18,0,0.359,0,0.54c0,0.12,0,0.24,0,0.359c0,0.181,0,0.36,0,0.54c0,0.12,0,0.24,0,0.36c0,0.18,0,0.36,0,0.54
	c0,0.12,0,0.24,0,0.36c0,0.18,0,0.359,0,0.54c0,0.119,0,0.239,0,0.359c0,0.3,0,0.601,0,0.9s0,0.6,0,0.899c0,0.24,0,0.48,0,0.721
	c0,0.3,0,0.6,0,0.899s0,0.601,0,0.9s0,0.6,0,0.899c0,0.301,0,0.601,0,0.9s0,0.6,0,0.9c0,0.3,0,0.6,0,0.899c0,0.54,0,1.08,0,1.62
	c-2.939,0-5.88,0-8.82,0c-0.18,0-0.359,0-0.54,0c0-0.06,0-0.12,0-0.18c0-0.24,0-0.48,0-0.72c0-0.301,0-0.601,0-0.9
	c0-0.24,0-0.48,0-0.72c0-0.301,0-0.601,0-0.9c0.001-1.14,0-2.28,0-3.42c0.001-1.08,0-2.16,0-3.24c0.001-1.14,0-2.279,0-3.42
	c0-0.18,0-0.359,0-0.54c1.5,0,3,0,4.5,0c0.181,0,0.36,0,0.54,0c0.181,0,0.36,0,0.54,0c0.181,0,0.36,0,0.54,0c0.24,0,0.48,0,0.721,0
	c0.18,0,0.359,0,0.54,0c0.18,0,0.359,0,0.54,0c0.18,0,0.359,0,0.54,0c0.119,0,0.239,0,0.359,0C46.619,42.3,46.8,42.3,46.979,42.3z"
	/>
<path fill-rule="evenodd" clip-rule="evenodd" fill="#0A1A3E" d="M46.979,42.3c0.18,0,0.36,0,0.54,0s0.36,0,0.54,0s0.36,0,0.54,0
	c0.24,0,0.48,0,0.72,0c0.181,0,0.36,0,0.54,0c0.181,0,0.36,0,0.54,0c0.42,0,0.84,0,1.26,0c0,0.54,0,1.08,0,1.62
	c0,0.12,0,0.24,0,0.36c0,0.18,0,0.359,0,0.54c0,0.12,0,0.239,0,0.359c0,0.181,0,0.36,0,0.54c0,0.601,0,1.2,0,1.8
	c0,0.301,0,0.601,0,0.9s0,0.6,0,0.9c0,0.54,0,1.08,0,1.62c0,0.6,0,1.199,0,1.8c0,0.6,0,1.2,0,1.8c0,0.12,0,0.24,0,0.36
	c0,0.18,0,0.359,0,0.54c0,0.119,0,0.239,0,0.359c0,0.181,0,0.36,0,0.54c-1.56,0-3.119,0-4.68,0c0-0.54,0-1.08,0-1.62
	c0-0.3,0-0.6,0-0.899c0-0.301,0-0.601,0-0.9s0-0.6,0-0.9c0-0.3,0-0.6,0-0.899s0-0.601,0-0.9s0-0.6,0-0.899c0-0.24,0-0.48,0-0.721
	c0-0.3,0-0.6,0-0.899s0-0.601,0-0.9c0-0.12,0-0.24,0-0.359c0-0.181,0-0.36,0-0.54c0-0.12,0-0.24,0-0.36c0-0.18,0-0.36,0-0.54
	c0-0.12,0-0.24,0-0.36c0-0.18,0-0.359,0-0.54c0-0.119,0-0.239,0-0.359c0-0.181,0-0.36,0-0.54c0-0.12,0-0.24,0-0.36
	C46.979,42.66,46.979,42.48,46.979,42.3z"/>
<path fill-rule="evenodd" clip-rule="evenodd" fill="#FDFEFF" d="M70.56,42.3c0,1.141,0,2.28,0,3.42c0,1.2,0,2.4,0,3.601
	c0,0.54,0,1.08,0,1.62c0,0.6,0,1.199,0,1.8c0,1.2,0,2.399,0,3.6c-1.56,0-3.12,0-4.68,0c0-2.34,0-4.68,0-7.02c0-1.141,0-2.28,0-3.42
	c0-0.12,0-0.24,0-0.36c0-0.18,0-0.36,0-0.54c0-0.12,0-0.24,0-0.36c0-0.18,0-0.359,0-0.54c0-0.119,0-0.239,0-0.359
	c0-0.181,0-0.36,0-0.54c0-0.12,0-0.24,0-0.36c0-0.18,0-0.359,0-0.54c0.06,0,0.12,0,0.18,0s0.12,0,0.18,0c0.12,0,0.24,0,0.36,0
	c0.18,0,0.36,0,0.54,0s0.36,0,0.54,0s0.36,0,0.54,0s0.36,0,0.54,0s0.359,0,0.54,0C69.72,42.3,70.14,42.3,70.56,42.3z"/>
<path fill-rule="evenodd" clip-rule="evenodd" fill="#D97761" d="M4.68,56.34c1.56,0,3.12,0,4.68,0c0,0.78,0,1.561,0,2.34
	c0,0.84,0,1.681,0,2.521c-1.56,0-3.12,0-4.68,0C4.68,59.58,4.68,57.96,4.68,56.34z"/>
<path fill-rule="evenodd" clip-rule="evenodd" fill="#BB6B5C" d="M70.56,56.34c1.561,0,3.12,0,4.68,0c0,0.78,0,1.561,0,2.34
	c0,0.84,0,1.681,0,2.521c-1.56,0-3.119,0-4.68,0C70.56,59.58,70.56,57.96,70.56,56.34z"/>
<path fill-rule="evenodd" clip-rule="evenodd" fill="#0A1A3E" d="M4.68,61.2c1.56,0,3.12,0,4.68,0c0,1.56,0,3.12,0,4.68
	c0,0.78,0,1.561,0,2.34c0,0.78,0,1.561,0,2.34c-1.56,0-3.12,0-4.68,0c0-0.779,0-1.56,0-2.34c0-0.779,0-1.56,0-2.34s0-1.56,0-2.34
	S4.68,61.98,4.68,61.2z"/>
<path fill-rule="evenodd" clip-rule="evenodd" fill="#0A1A3E" d="M70.56,61.2c1.561,0,3.12,0,4.68,0c0,1.56,0,3.12,0,4.68
	c0,1.561,0,3.12,0,4.68c-1.56,0-3.119,0-4.68,0c0-0.42,0-0.84,0-1.26c0-0.18,0-0.359,0-0.54c0-0.18,0-0.359,0-0.54
	c0-0.239,0-0.479,0-0.72c0-0.18,0-0.36,0-0.54c0-0.36,0-0.72,0-1.08C70.56,64.32,70.56,62.76,70.56,61.2z"/>
<path fill-rule="evenodd" clip-rule="evenodd" fill="#D97761" d="M9.359,65.88c1.561,0,3.12,0,4.681,0c0,0.36,0,0.72,0,1.08
	c0,0.18,0,0.36,0,0.54c0,0.24,0,0.48,0,0.72c0,0.36,0,0.721,0,1.08c0,0.42,0,0.84,0,1.26c-1.561,0-3.12,0-4.681,0
	c0-0.779,0-1.56,0-2.34C9.359,67.44,9.359,66.66,9.359,65.88z"/>
<path fill-rule="evenodd" clip-rule="evenodd" fill="#D97761" d="M32.939,65.88c1.38,0,2.76,0,4.141,0c0.18,0,0.359,0,0.539,0
	c0,0.061,0,0.12,0,0.18c0,1.5,0,3,0,4.5c-1.38,0-2.76,0-4.14,0c-0.18,0-0.36,0-0.54,0c0-0.06,0-0.119,0-0.18c0-0.72,0-1.439,0-2.16
	C32.939,67.44,32.939,66.66,32.939,65.88z"/>
<path fill-rule="evenodd" clip-rule="evenodd" fill="#BB6B5C" d="M70.56,65.88c0,0.36,0,0.72,0,1.08c0,0.18,0,0.36,0,0.54
	c0,0.24,0,0.48,0,0.72c0,0.181,0,0.36,0,0.54c0,0.181,0,0.36,0,0.54c0,0.42,0,0.84,0,1.26c-1.56,0-3.12,0-4.68,0
	c0-0.659,0-1.319,0-1.979c0-0.72,0-1.44,0-2.16c0-0.18,0-0.36,0-0.54C67.439,65.88,69,65.88,70.56,65.88z"/>
<path fill-rule="evenodd" clip-rule="evenodd" fill="#0A1A3E" d="M9.359,70.56c1.561,0,3.12,0,4.681,0c0,3.9,0,7.801,0,11.7
	c0,1.92,0,3.84,0,5.76c0,0.961,0,1.921,0,2.881c0,0.479,0,0.96,0,1.439c0,0.54,0,1.08,0,1.62c0,2.4,0,4.8,0,7.2
	c0,2.34,0,4.68,0,7.02c0,1.561,0,3.12,0,4.681c0,1.56,0,3.12,0,4.68s0,3.12,0,4.68c0,1.561,0,3.12,0,4.681c0,1.56,0,3.119,0,4.68
	c-1.561,0-3.12,0-4.681,0c0-2.521,0-5.04,0-7.561c0-2.52,0-5.039,0-7.56c0-2.52,0-5.04,0-7.56c0-2.58,0-5.16,0-7.74
	c0-2.521,0-5.04,0-7.561c0-1.26,0-2.52,0-3.779c0-0.12,0-0.24,0-0.36c0-0.18,0-0.36,0-0.54c0-0.36,0-0.72,0-1.08
	c0-0.12,0-0.24,0-0.359c0-0.181,0-0.36,0-0.54c0-0.36,0-0.721,0-1.08c0-2.521,0-5.04,0-7.561C9.359,75.72,9.359,73.14,9.359,70.56z"
	/>
<path fill-rule="evenodd" clip-rule="evenodd" fill="#D97761" d="M37.619,70.56c2.341,0,4.681,0,7.021,0s4.68,0,7.02,0
	c0,0.78,0,1.561,0,2.341c0,0.779,0,1.56,0,2.34c-3.119,0-6.239,0-9.359,0c-1.38,0-2.76,0-4.141,0c-0.18,0-0.359,0-0.54,0
	c0-0.061,0-0.12,0-0.181C37.619,73.56,37.619,72.06,37.619,70.56z"/>
<path fill-rule="evenodd" clip-rule="evenodd" fill="#BB6B5C" d="M51.659,70.56c4.74,0,9.48,0,14.221,0c0,2.341,0,4.681,0,7.021
	c0,0.18,0,0.36,0,0.54c0,0.12,0,0.24,0,0.36c0,0.18,0,0.359,0,0.539c0,0.12,0,0.24,0,0.36c0,0.18,0,0.36,0,0.54
	c0,0.12,0,0.24,0,0.36c0,0.18,0,0.359,0,0.54c0,0.12,0,0.239,0,0.359c0,1.141,0,2.28,0,3.42c0.42,0,0.84,0,1.26,0
	c0.18,0,0.36,0,0.54,0s0.36,0,0.54,0c0.24,0,0.479,0,0.72,0c0.18,0,0.36,0,0.54,0s0.36,0,0.54,0s0.36,0,0.54,0c0,0.54,0,1.08,0,1.62
	c0,0.48,0,0.96,0,1.44c0,0.96,0,1.92,0,2.88c0,0.54,0,1.08,0,1.62c0,0.479,0,0.96,0,1.439c0,0.96,0,1.92,0,2.881
	c0,1.02,0,2.039,0,3.06c0,0.96,0,1.92,0,2.88c0,1.92,0,3.84,0,5.76c-1.56,0-3.12,0-4.68,0c0-1.56,0-3.12,0-4.68
	c-0.181,0-0.36,0-0.54,0c-1.44,0-2.88,0-4.32,0c0-0.78,0-1.56,0-2.34c0-0.24,0-0.48,0-0.72c0-0.181,0-0.36,0-0.54
	c0-0.36,0-0.721,0-1.08c0-0.42,0-0.84,0-1.261c0-0.18,0-0.359,0-0.54c0-0.18,0-0.359,0-0.539c0-0.36,0-0.721,0-1.08
	c0-0.181,0-0.36,0-0.54c0-0.181,0-0.36,0-0.54c0-0.42,0-0.84,0-1.261c0-0.18,0-0.359,0-0.54c0-0.18,0-0.359,0-0.539
	c0-0.24,0-0.48,0-0.721c0-0.18,0-0.359,0-0.54c0-0.18,0-0.359,0-0.54c0-0.18,0-0.359,0-0.54c0-0.42,0-0.84,0-1.26
	c0-0.18,0-0.36,0-0.54s0-0.359,0-0.54c0-0.72,0-1.439,0-2.16c0-0.18,0-0.359,0-0.54c-0.72,0-1.439,0-2.16,0c-0.359,0-0.72,0-1.08,0
	c-0.18,0-0.359,0-0.54,0c-0.12,0-0.239,0-0.359,0c-0.181,0-0.36,0-0.54,0c0-0.239,0-0.479,0-0.72c0-0.18,0-0.36,0-0.54
	s0-0.359,0-0.54c0-0.18,0-0.359,0-0.54c0-0.42,0-0.84,0-1.26c0-0.18,0-0.36,0-0.54s0-0.36,0-0.54c0-0.24,0-0.479,0-0.72
	c0-0.181,0-0.36,0-0.54s0-0.36,0-0.54s0-0.36,0-0.54c0-0.42,0-0.84,0-1.26c0-0.36,0-0.721,0-1.08c-1.561,0-3.12,0-4.681,0
	c0-0.78,0-1.561,0-2.34C51.659,72.12,51.659,71.34,51.659,70.56z"/>
<path fill-rule="evenodd" clip-rule="evenodd" fill="#0A1A3E" d="M65.88,70.56c1.56,0,3.12,0,4.68,0c0,1.141,0,2.28,0,3.421
	c0,0.119,0,0.239,0,0.359c0,0.18,0,0.36,0,0.54c0,0.12,0,0.24,0,0.36c0,0.18,0,0.359,0,0.54c0,0.12,0,0.239,0,0.359
	c0,0.181,0,0.36,0,0.54c0,0.12,0,0.24,0,0.36c0,0.18,0,0.36,0,0.54c0,0.54,0,1.08,0,1.62c0,0.12,0,0.24,0,0.359
	c0,0.181,0,0.36,0,0.54c0,0.12,0,0.24,0,0.36c0,0.18,0,0.36,0,0.54c0,0.12,0,0.24,0,0.36c0,0.18,0,0.359,0,0.54
	c0,0.119,0,0.239,0,0.359c0,0.181,0,0.36,0,0.54c0,0.12,0,0.24,0,0.36c0,0.18,0,0.359,0,0.54c0,0.12,0,0.24,0,0.359
	c0,0.181,0,0.36,0,0.54c-0.18,0-0.36,0-0.54,0s-0.36,0-0.54,0s-0.36,0-0.54,0c-0.24,0-0.479,0-0.72,0c-0.18,0-0.36,0-0.54,0
	s-0.36,0-0.54,0c-0.42,0-0.84,0-1.26,0c0-1.14,0-2.279,0-3.42c0-0.12,0-0.239,0-0.359c0-0.181,0-0.36,0-0.54c0-0.12,0-0.24,0-0.36
	c0-0.18,0-0.36,0-0.54c0-0.12,0-0.24,0-0.36c0-0.18,0-0.359,0-0.539c0-0.12,0-0.24,0-0.36c0-0.18,0-0.36,0-0.54
	C65.88,75.24,65.88,72.9,65.88,70.56z"/>
<path fill-rule="evenodd" clip-rule="evenodd" fill="#FDFEFF" d="M42.3,75.24c3.12,0,6.24,0,9.359,0c1.561,0,3.12,0,4.681,0
	c0,0.359,0,0.72,0,1.08c0,0.42,0,0.84,0,1.26c0,0.18,0,0.36,0,0.54s0,0.36,0,0.54s0,0.359,0,0.54c0,0.24,0,0.479,0,0.72
	c0,0.18,0,0.36,0,0.54s0,0.36,0,0.54c0,0.42,0,0.84,0,1.26c0,0.181,0,0.36,0,0.54c0,0.181,0,0.36,0,0.54s0,0.36,0,0.54
	c0,0.24,0,0.48,0,0.72c0.18,0,0.359,0,0.54,0c0.12,0,0.239,0,0.359,0c0.181,0,0.36,0,0.54,0c0.36,0,0.721,0,1.08,0
	c0.721,0,1.44,0,2.16,0c0,0.181,0,0.36,0,0.54c0,0.721,0,1.44,0,2.16c0,0.181,0,0.36,0,0.54s0,0.36,0,0.54c0,0.42,0,0.84,0,1.26
	c0,0.181,0,0.36,0,0.54c0,0.181,0,0.36,0,0.54c0,0.181,0,0.36,0,0.54c0,0.24,0,0.48,0,0.721c0,0.18,0,0.359,0,0.539
	c0,0.181,0,0.36,0,0.54c0,0.421,0,0.841,0,1.261c0,0.18,0,0.359,0,0.54c0,0.18,0,0.359,0,0.54c0,0.359,0,0.72,0,1.08
	c0,0.18,0,0.359,0,0.539c0,0.181,0,0.36,0,0.54c0,0.421,0,0.841,0,1.261c0,0.359,0,0.72,0,1.08c0,0.18,0,0.359,0,0.54
	c0,0.239,0,0.479,0,0.72c0,0.78,0,1.56,0,2.34c0,1.56,0,3.12,0,4.68c-1.56,0-3.12,0-4.68,0c0,0.181,0,0.36,0,0.54
	c0,0.181,0,0.36,0,0.54c0,0.12,0,0.24,0,0.36c0,0.3,0,0.6,0,0.899c0,0.601,0,1.2,0,1.801c0,0.18,0,0.359,0,0.54
	c-1.561,0-3.12,0-4.681,0c-3.119,0-6.239,0-9.359,0c0-1.561,0-3.12,0-4.681c1.56,0,3.12,0,4.68,0c0-0.54,0-1.08,0-1.62
	c0-0.3,0-0.6,0-0.899s0-0.601,0-0.9s0-0.6,0-0.899c0-0.301,0-0.601,0-0.9s0-0.6,0-0.9c0-0.3,0-0.6,0-0.899s0-0.601,0-0.9
	s0-0.6,0-0.899c0-0.301,0-0.601,0-0.9s0-0.6,0-0.9c0-0.3,0-0.6,0-0.899s0-0.601,0-0.9s0-0.6,0-0.899c0-0.12,0-0.24,0-0.36
	c0-0.18,0-0.36,0-0.54c-1.56,0-3.12,0-4.68,0c0-0.36,0-0.72,0-1.08c0-0.42,0-0.84,0-1.26c0-0.18,0-0.36,0-0.54s0-0.36,0-0.54
	s0-0.36,0-0.54c0-0.24,0-0.48,0-0.72c0-0.181,0-0.36,0-0.54c0-0.181,0-0.36,0-0.54c0-0.42,0-0.84,0-1.26c0-0.36,0-0.721,0-1.08
	c0-0.181,0-0.36,0-0.54c0-0.24,0-0.48,0-0.721c-0.181,0-0.36,0-0.54,0c-1.38,0-2.76,0-4.141,0c0-0.18,0-0.359,0-0.54
	c0-0.6,0-1.199,0-1.8c0-0.12,0-0.24,0-0.359c0-0.181,0-0.36,0-0.54c0-0.12,0-0.24,0-0.36c0-0.18,0-0.36,0-0.54s0-0.36,0-0.54
	c0.061,0,0.12,0,0.181,0c0.06,0,0.12,0,0.18,0c0.12,0,0.24,0,0.36,0c0.18,0,0.359,0,0.54,0c0.18,0,0.359,0,0.54,0
	c0.18,0,0.359,0,0.54,0c0.18,0,0.359,0,0.54,0c0.18,0,0.359,0,0.54,0c0.42,0,0.84,0,1.26,0c0-0.36,0-0.72,0-1.08
	c0-0.42,0-0.84,0-1.26c0-0.36,0-0.72,0-1.08c0-0.18,0-0.36,0-0.54C42.3,75.72,42.3,75.48,42.3,75.24z"/>
<path fill-rule="evenodd" clip-rule="evenodd" fill="#0A1A3E" d="M70.56,84.6c0.18,0,0.36,0,0.54,0s0.36,0,0.54,0s0.36,0,0.54,0
	c0.24,0,0.479,0,0.72,0c0.18,0,0.36,0,0.54,0c0.181,0,0.36,0,0.54,0c0.42,0,0.84,0,1.26,0c0,3.9,0,7.801,0,11.7
	c0,3.96,0,7.92,0,11.88c-1.56,0-3.119,0-4.68,0c0-1.92,0-3.84,0-5.76c0-0.96,0-1.92,0-2.88c0-1.021,0-2.04,0-3.06
	c0-0.961,0-1.921,0-2.881c0-0.479,0-0.96,0-1.439c0-0.54,0-1.08,0-1.62c0-0.96,0-1.92,0-2.88c0-0.48,0-0.96,0-1.44
	C70.56,85.68,70.56,85.14,70.56,84.6z"/>
<path fill-rule="evenodd" clip-rule="evenodd" fill="#BB6B5C" d="M14.04,93.96c1.56,0,3.119,0,4.68,0c0,2.34,0,4.68,0,7.021
	c0,2.399,0,4.8,0,7.199c-1.561,0-3.12,0-4.68,0c0-2.34,0-4.68,0-7.02C14.04,98.76,14.04,96.36,14.04,93.96z"/>
<path fill-rule="evenodd" clip-rule="evenodd" fill="#0A1A3E" d="M61.02,103.5c1.44,0,2.88,0,4.32,0c0.18,0,0.359,0,0.54,0
	c0,1.56,0,3.12,0,4.68c1.56,0,3.12,0,4.68,0c0,1.561,0,3.12,0,4.681c-1.56,0-3.12,0-4.68,0c0,1.56,0,3.12,0,4.68s0,3.12,0,4.68
	c-1.62,0-3.24,0-4.86,0c0-0.18,0-0.359,0-0.54c0-0.12,0-0.239,0-0.359c0-0.181,0-0.36,0-0.54c0-0.12,0-0.24,0-0.36
	c0-0.18,0-0.36,0-0.54c0-0.12,0-0.24,0-0.36c0-0.18,0-0.359,0-0.539c0-0.12,0-0.24,0-0.36c0-0.18,0-0.36,0-0.54
	c0-0.12,0-0.24,0-0.36c0-0.18,0-0.359,0-0.54c0-0.12,0-0.239,0-0.359c0-0.54,0-1.08,0-1.62c0-0.181,0-0.36,0-0.54
	c0-0.12,0-0.24,0-0.36c0-0.18,0-0.359,0-0.54c0-0.12,0-0.24,0-0.359c0-0.181,0-0.36,0-0.54c0-0.12,0-0.24,0-0.36
	c0-0.18,0-0.36,0-0.54c0-0.12,0-0.24,0-0.36c0-0.18,0-0.359,0-0.54c0-0.119,0-0.239,0-0.359c0-0.181,0-0.36,0-0.54
	c0-0.12,0-0.24,0-0.36c0-0.54,0-1.08,0-1.62C61.02,106.62,61.02,105.06,61.02,103.5z"/>
<path fill-rule="evenodd" clip-rule="evenodd" fill="#D97761" d="M14.04,108.18c1.56,0,3.119,0,4.68,0c0,1.561,0,3.12,0,4.681
	c-1.561,0-3.12,0-4.68,0C14.04,111.3,14.04,109.74,14.04,108.18z"/>
<path fill-rule="evenodd" clip-rule="evenodd" fill="#BB6B5C" d="M18.72,108.18c1.56,0,3.12,0,4.68,0c0,1.561,0,3.12,0,4.681
	c-1.56,0-3.12,0-4.68,0C18.72,111.3,18.72,109.74,18.72,108.18z"/>
<path fill-rule="evenodd" clip-rule="evenodd" fill="#BB6B5C" d="M61.02,108.18c0,0.54,0,1.08,0,1.62c0,0.12,0,0.24,0,0.36
	c0,0.18,0,0.359,0,0.54c0,0.12,0,0.24,0,0.359c0,0.181,0,0.36,0,0.54c0,0.12,0,0.24,0,0.36c0,0.18,0,0.36,0,0.54
	c0,0.12,0,0.24,0,0.36c0,0.18,0,0.359,0,0.54c0,0.119,0,0.239,0,0.359c0,0.181,0,0.36,0,0.54c0,0.12,0,0.24,0,0.36
	c0,0.18,0,0.359,0,0.54c0,0.54,0,1.08,0,1.62c0,0.12,0,0.239,0,0.359c0,0.181,0,0.36,0,0.54c0,0.12,0,0.24,0,0.36
	c0,0.18,0,0.36,0,0.54c0,0.12,0,0.24,0,0.36c0,0.18,0,0.359,0,0.539c0,0.12,0,0.24,0,0.36c0,0.18,0,0.36,0,0.54
	c0,0.12,0,0.24,0,0.36c0,0.18,0,0.359,0,0.54c0,0.12,0,0.239,0,0.359c0,0.181,0,0.36,0,0.54c-1.56,0-3.12,0-4.68,0
	c0,0.181,0,0.36,0,0.54c0,2.94,0,5.88,0,8.82c-2.34,0-4.681,0-7.021,0s-4.68,0-7.02,0c0-0.18,0-0.36,0-0.54c0-0.12,0-0.24,0-0.36
	c0-0.18,0-0.359,0-0.54c0-0.12,0-0.239,0-0.359c0-0.601,0-1.2,0-1.8c0-0.181,0-0.36,0-0.54c0-0.12,0-0.24,0-0.36
	c0-0.18,0-0.36,0-0.54c0-0.12,0-0.24,0-0.36c0-0.54,0-1.08,0-1.62c0-0.18,0-0.359,0-0.54c0-0.119,0-0.239,0-0.359
	c0-0.18,0-0.36,0-0.54c0-0.12,0-0.24,0-0.36c0-0.6,0-1.2,0-1.8c0-0.18,0-0.36,0-0.54c0-0.12,0-0.24,0-0.36c0-0.18,0-0.359,0-0.54
	c0-0.119,0-0.239,0-0.359c0-0.54,0-1.08,0-1.62c3.12,0,6.24,0,9.359,0c0-1.56,0-3.12,0-4.68c1.561,0,3.12,0,4.681,0
	c0-0.181,0-0.36,0-0.54c0-0.601,0-1.2,0-1.801c0-0.3,0-0.6,0-0.899c0-0.12,0-0.24,0-0.36c0-0.18,0-0.359,0-0.54
	c0-0.18,0-0.359,0-0.54C57.899,108.18,59.46,108.18,61.02,108.18z"/>
<path fill-rule="evenodd" clip-rule="evenodd" fill="#E0B49C" d="M14.04,112.86c1.56,0,3.119,0,4.68,0c0,1.56,0,3.12,0,4.68
	c1.56,0,3.12,0,4.68,0c0,1.56,0,3.12,0,4.68c0.181,0,0.36,0,0.54,0c3,0,6,0,9,0c0,1.561,0,3.12,0,4.681c-1.56,0-3.12,0-4.68,0
	c0,1.56,0,3.119,0,4.68c-4.74,0-9.48,0-14.22,0c0-1.561,0-3.12,0-4.68c0-1.561,0-3.12,0-4.681c0-1.56,0-3.12,0-4.68
	S14.04,114.42,14.04,112.86z"/>
<path fill-rule="evenodd" clip-rule="evenodd" fill="#D97761" d="M18.72,112.86c1.56,0,3.12,0,4.68,0c0,1.56,0,3.12,0,4.68
	c-1.56,0-3.12,0-4.68,0C18.72,115.98,18.72,114.42,18.72,112.86z"/>
<path fill-rule="evenodd" clip-rule="evenodd" fill="#BB6B5C" d="M23.399,112.86c6.3,0,12.601,0,18.9,0c0,1.56,0,3.12,0,4.68
	c-3.12,0-6.24,0-9.36,0c-1.62,0-3.24,0-4.859,0c-1.561,0-3.12,0-4.681,0C23.399,115.98,23.399,114.42,23.399,112.86z"/>
<path fill-rule="evenodd" clip-rule="evenodd" fill="#D97761" d="M42.3,112.86c3.12,0,6.24,0,9.359,0c0,1.56,0,3.12,0,4.68
	c-3.119,0-6.239,0-9.359,0C42.3,115.98,42.3,114.42,42.3,112.86z"/>
<path fill-rule="evenodd" clip-rule="evenodd" fill="#D97761" d="M23.399,117.54c1.561,0,3.12,0,4.681,0c1.619,0,3.239,0,4.859,0
	c0,1.56,0,3.12,0,4.68c-3,0-6,0-9,0c-0.18,0-0.359,0-0.54,0C23.399,120.66,23.399,119.1,23.399,117.54z"/>
<path fill-rule="evenodd" clip-rule="evenodd" fill="#0A1A3E" d="M32.939,117.54c3.12,0,6.24,0,9.36,0c0,0.54,0,1.08,0,1.62
	c0,0.12,0,0.24,0,0.359c0,0.181,0,0.36,0,0.54c0,0.12,0,0.24,0,0.36c0,0.18,0,0.36,0,0.54c0,0.6,0,1.2,0,1.8c0,0.12,0,0.24,0,0.36
	c0,0.18,0,0.36,0,0.54c0,0.12,0,0.24,0,0.359c0,0.181,0,0.36,0,0.54c0,0.54,0,1.08,0,1.62c0,0.12,0,0.24,0,0.36
	c0,0.18,0,0.36,0,0.54c0,0.12,0,0.24,0,0.36c0,0.18,0,0.359,0,0.54c0,0.6,0,1.199,0,1.8c0,0.12,0,0.239,0,0.359
	c0,0.181,0,0.36,0,0.54c0,0.12,0,0.24,0,0.36c0,0.18,0,0.36,0,0.54c-1.38,0-2.76,0-4.141,0c-0.18,0-0.359,0-0.54,0
	c0-1.561,0-3.12,0-4.68c-1.56,0-3.119,0-4.68,0c0-1.561,0-3.12,0-4.681C32.939,120.66,32.939,119.1,32.939,117.54z"/>
<path fill-rule="evenodd" clip-rule="evenodd" fill="#0A1A3E" d="M61.02,122.22c0,2.94,0,5.88,0,8.82c0,0.18,0,0.36,0,0.54
	c-1.56,0-3.12,0-4.68,0c0-2.94,0-5.88,0-8.82c0-0.18,0-0.359,0-0.54C57.899,122.22,59.46,122.22,61.02,122.22z"/>
<path fill-rule="evenodd" clip-rule="evenodd" fill="#0A1A3E" d="M32.939,126.9c0,1.56,0,3.119,0,4.68c-1.56,0-3.12,0-4.68,0
	c0-1.561,0-3.12,0-4.68C29.819,126.9,31.38,126.9,32.939,126.9z"/>
<path fill-rule="evenodd" clip-rule="evenodd" fill="#FDFEFF" d="M42.3,75.24c0,0.36,0,0.72,0,1.08c0,0.18,0,0.36,0,0.54
	c0,0.24,0,0.48,0,0.72c0,0.181,0,0.36,0,0.54c0,0.181,0,0.36,0,0.54c0,0.42,0,0.84,0,1.26c-1.561,0-3.121,0-4.68,0
	c0-0.659,0-1.319,0-1.979c0-0.72,0-1.44,0-2.16c0-0.18,0-0.36,0-0.54C39.179,75.24,40.739,75.24,42.3,75.24z"/>
</svg>
