<?xml version="1.0" encoding="utf-8"?>
<!-- Generator: Adobe Illustrator 15.0.0, SVG Export Plug-In  -->
<!DOCTYPE svg PUBLIC "-//W3C//DTD SVG 1.1//EN" "http://www.w3.org/Graphics/SVG/1.1/DTD/svg11.dtd" [
	<!ENTITY ns_flows "http://ns.adobe.com/Flows/1.0/">
]>
<svg version="1.1"
	 xmlns="http://www.w3.org/2000/svg" xmlns:xlink="http://www.w3.org/1999/xlink" xmlns:a="http://ns.adobe.com/AdobeSVGViewerExtensions/3.0/"
	 x="0px" y="0px" width="104px" height="144px" viewBox="-11.87 -12.12 104 144" enable-background="new -11.87 -12.12 104 144"
	 xml:space="preserve">
<defs>
</defs>
<g id="XMLID_2_">
	<g>
		<path fill="#311531" d="M72.43,42.55c0.24,0,0.48,0,0.72,0c0.181,0,0.36,0,0.54,0c0.181,0,0.36,0,0.54,0c0.42,0,0.841,0,1.261,0
			c0-0.36,0-0.72,0-1.08c0-0.42,0-0.84,0-1.26c0-0.36,0-0.72,0-1.08c0-0.42,0-0.84,0-1.26c0.359,0,0.72,0,1.08,0
			c0.42,0,0.84,0,1.26,0c0.18,0,0.359,0,0.54,0c0.18,0,0.359,0,0.54,0c0.42,0,0.84,0,1.26,0c0,0.54,0,1.08,0,1.62
			c0,0.48,0,0.96,0,1.44c0,0.96,0,1.92,0,2.88c0,0.54,0,1.08,0,1.62c0,0.48,0,0.96,0,1.44c0,0.96,0,1.92,0,2.88c0,3.9,0,7.8,0,11.7
			c-0.42,0-0.84,0-1.26,0c-0.181,0-0.36,0-0.54,0c-0.181,0-0.36,0-0.54,0c-0.42,0-0.84,0-1.26,0c-0.36,0-0.721,0-1.08,0
			c0-0.84,0-1.68,0-2.521c0-0.78,0-1.56,0-2.34c-0.78,0-1.561,0-2.341,0c-0.779,0-1.56,0-2.34,0c0-2.34,0-4.68,0-7.02s0-4.68,0-7.02
			c0.181,0,0.36,0,0.54,0c0.181,0,0.36,0,0.54,0C72.07,42.55,72.25,42.55,72.43,42.55z"/>
		<path fill="#311531" d="M75.49,61.45c0,0.42,0,0.84,0,1.26c0,0.36,0,0.72,0,1.08c0,0.42,0,0.84,0,1.26c0,0.36,0,0.72,0,1.08
			c0,0.42,0,0.84,0,1.26c0,0.36,0,0.721,0,1.08c0,0.42,0,0.84,0,1.26c0,0.36,0,0.721,0,1.08c-0.78,0-1.561,0-2.341,0
			c-0.779,0-1.56,0-2.34,0c0-0.779,0-1.56,0-2.34s0-1.56,0-2.34s0-1.56,0-2.34s0-1.561,0-2.34c0.78,0,1.561,0,2.34,0
			C73.93,61.45,74.71,61.45,75.49,61.45z"/>
		<path fill="#BA6A5B" d="M70.81,56.59c0.78,0,1.561,0,2.34,0c0.78,0,1.561,0,2.341,0c0,0.78,0,1.56,0,2.34c0,0.84,0,1.68,0,2.521
			c-0.78,0-1.561,0-2.341,0c-0.779,0-1.56,0-2.34,0C70.81,59.83,70.81,58.21,70.81,56.59z"/>
		<path fill="#BA6A5B" d="M73.149,42.55c-0.239,0-0.479,0-0.72,0c-0.18,0-0.359,0-0.54,0c-0.18,0-0.359,0-0.54,0
			c-0.18,0-0.359,0-0.54,0c0-0.36,0-0.72,0-1.08c0-0.42,0-0.84,0-1.26c0-0.36,0-0.72,0-1.08c0-0.18,0-0.36,0-0.54
			c0-0.24,0-0.48,0-0.72c0.78,0,1.561,0,2.34,0c0.78,0,1.561,0,2.341,0c0,0.42,0,0.84,0,1.26c0,0.36,0,0.72,0,1.08
			c0,0.42,0,0.84,0,1.26c0,0.36,0,0.72,0,1.08c-0.42,0-0.841,0-1.261,0c-0.18,0-0.359,0-0.54,0
			C73.51,42.55,73.33,42.55,73.149,42.55z"/>
		<path fill="#311531" d="M70.81,28.51c0.78,0,1.561,0,2.34,0c0.78,0,1.561,0,2.341,0c0,0.78,0,1.56,0,2.34c0,0.78,0,1.56,0,2.34
			c0,1.56,0,3.12,0,4.68c-0.78,0-1.561,0-2.341,0c-0.779,0-1.56,0-2.34,0c0-0.36,0-0.72,0-1.08c0-0.42,0-0.84,0-1.26
			c0-0.36,0-0.72,0-1.08c0-0.42,0-0.84,0-1.26C70.81,31.63,70.81,30.07,70.81,28.51z"/>
		<path fill="#311531" d="M70.81,94.21c0.78,0,1.561,0,2.34,0c0.78,0,1.561,0,2.341,0c0,0.12,0,0.24,0,0.36c0,1.14,0,2.279,0,3.42
			c0,1.14,0,2.279,0,3.42c0,1.14,0,2.279,0,3.42c0,1.2,0,2.399,0,3.6c-0.061,0-0.12,0-0.181,0c-0.06,0-0.12,0-0.18,0
			c-0.12,0-0.24,0-0.36,0c-0.18,0-0.359,0-0.54,0c-0.359,0-0.72,0-1.08,0c-0.359,0-0.72,0-1.079,0c-0.181,0-0.36,0-0.54,0
			c-0.24,0-0.48,0-0.721,0c0-2.34,0-4.68,0-7.02c0-1.2,0-2.4,0-3.601c0-0.6,0-1.199,0-1.8c0-0.3,0-0.6,0-0.899c0-0.12,0-0.24,0-0.36
			C70.81,94.57,70.81,94.39,70.81,94.21z"/>
		<path fill="#311531" d="M70.81,112.57c0,0.18,0,0.359,0,0.54c-0.06,0-0.12,0-0.18,0c-0.72,0-1.44,0-2.16,0c-0.359,0-0.72,0-1.08,0
			c-0.18,0-0.359,0-0.54,0c-0.239,0-0.479,0-0.72,0c0,0.18,0,0.359,0,0.539c0,1.2,0,2.4,0,3.601c0,0.18,0,0.36,0,0.54
			c-1.56,0-3.12,0-4.68,0c0-3.12,0-6.24,0-9.36c1.56,0,3.12,0,4.68,0s3.12,0,4.68,0c0,0.12,0,0.24,0,0.36c0,0.18,0,0.359,0,0.54
			c0,0.359,0,0.72,0,1.08C70.81,111.13,70.81,111.85,70.81,112.57z"/>
		<path fill="#BA6A5B" d="M70.81,66.13c0,0.78,0,1.56,0,2.34s0,1.561,0,2.34c-0.779,0-1.56,0-2.34,0s-1.56,0-2.34,0
			c0-0.359,0-0.72,0-1.08c0-0.18,0-0.359,0-0.54c0-0.239,0-0.479,0-0.72c0-0.18,0-0.359,0-0.54c0-0.18,0-0.359,0-0.54
			c0-0.18,0-0.359,0-0.54c0-0.239,0-0.479,0-0.72c0-0.18,0-0.36,0-0.54s0-0.36,0-0.54s0-0.36,0-0.54c0-0.24,0-0.479,0-0.72
			c0-0.18,0-0.36,0-0.54s0-0.36,0-0.54c0-0.42,0-0.84,0-1.26c0.78,0,1.56,0,2.34,0s1.561,0,2.34,0c0,0.779,0,1.56,0,2.34
			S70.81,65.35,70.81,66.13z"/>
		<path fill="#BA6A5B" d="M41.29,4.93c0.6,0,1.2,0,1.8,0c0.12,0,0.24,0,0.36,0c0.18,0,0.359,0,0.54,0c0.12,0,0.239,0,0.359,0
			c0.181,0,0.36,0,0.54,0c0.54,0,1.08,0,1.62,0c0.3,0,0.601,0,0.9,0s0.6,0,0.899,0c1.2,0,2.4,0,3.601,0c0,0.24,0,0.48,0,0.72
			c0,0.18,0,0.36,0,0.54c0,0.36,0,0.72,0,1.08c0,0.18,0,0.36,0,0.54c0,0.18,0,0.36,0,0.54c0,0.18,0,0.36,0,0.54
			c0,0.12,0,0.24,0,0.36c0,0.06,0,0.12,0,0.18c0,0.06,0,0.12,0,0.18c0.18,0,0.359,0,0.54,0c3,0,6,0,9,0c0,0.78,0,1.56,0,2.34
			c0,0.78,0,1.56,0,2.34c0,0.78,0,1.56,0,2.34c0,0.42,0,0.84,0,1.26c0,0.36,0,0.72,0,1.08c1.56,0,3.12,0,4.68,0
			c0,1.62,0,3.24,0,4.86c0,0.24,0,0.48,0,0.72c0,0.18,0,0.36,0,0.54s0,0.36,0,0.54s0,0.36,0,0.54c0,0.24,0,0.48,0,0.72
			c0,0.18,0,0.36,0,0.54c0,0.36,0,0.72,0,1.08c0.78,0,1.56,0,2.34,0s1.561,0,2.34,0c0,1.56,0,3.12,0,4.68c0,0.42,0,0.84,0,1.26
			c0,0.36,0,0.72,0,1.08c0,0.42,0,0.84,0,1.26c0,0.36,0,0.72,0,1.08c-0.42,0-0.84,0-1.26,0c-0.36,0-0.72,0-1.08,0
			c-0.42,0-0.84,0-1.26,0c-0.36,0-0.72,0-1.08,0c0-0.42,0-0.84,0-1.26c0-0.18,0-0.36,0-0.54s0-0.36,0-0.54c0-0.18,0-0.36,0-0.54
			c0-0.18,0-0.36,0-0.54c0-0.18,0-0.36,0-0.54c0-0.24,0-0.48,0-0.72c-0.18,0-0.36,0-0.54,0s-0.36,0-0.54,0c-0.12,0-0.24,0-0.36,0
			c-0.18,0-0.359,0-0.54,0c-0.119,0-0.239,0-0.359,0c-0.601,0-1.2,0-1.8,0c-0.181,0-0.36,0-0.54,0c0-0.78,0-1.56,0-2.34
			c0-0.78,0-1.56,0-2.34c0-0.78,0-1.56,0-2.34c0-0.78,0-1.56,0-2.34c-0.84,0-1.681,0-2.521,0c-0.78,0-1.56,0-2.34,0
			c0-0.78,0-1.56,0-2.34c0-0.42,0-0.84,0-1.26c0-0.18,0-0.36,0-0.54c0-0.24,0-0.48,0-0.72c-0.18,0-0.36,0-0.54,0
			c-1.38,0-2.76,0-4.14,0s-2.761,0-4.141,0c-0.18,0-0.359,0-0.54,0c0-0.42,0-0.84,0-1.26c0-0.18,0-0.36,0-0.54s0-0.36,0-0.54
			c0-0.36,0-0.72,0-1.08c0-0.18,0-0.36,0-0.54c0-0.24,0-0.48,0-0.72c-0.18,0-0.359,0-0.54,0c-0.42,0-0.84,0-1.26,0
			c-0.18,0-0.359,0-0.54,0c-0.18,0-0.359,0-0.54,0c-0.72,0-1.439,0-2.16,0c-1.439,0-2.879,0-4.319,0c0-0.78,0-1.56,0-2.34
			c0-0.36,0-0.72,0-1.08c0-0.42,0-0.84,0-1.26c0-0.36,0-0.72,0-1.08c0-0.42,0-0.84,0-1.26c0-0.36,0-0.72,0-1.08
			c0-0.42,0-0.84,0-1.26C39.01,4.93,40.15,4.93,41.29,4.93z"/>
		<path fill="#311531" d="M70.81,70.81c0,0.78,0,1.561,0,2.34c0,0.78,0,1.561,0,2.341c-0.359,0-0.72,0-1.08,0c-0.42,0-0.84,0-1.26,0
			c-0.359,0-0.72,0-1.08,0c-0.42,0-0.84,0-1.26,0c0-0.36,0-0.721,0-1.08c0-0.181,0-0.36,0-0.54c0-0.24,0-0.48,0-0.721
			c0-0.18,0-0.359,0-0.539c0-0.181,0-0.36,0-0.54c0-0.421,0-0.841,0-1.261c0.78,0,1.56,0,2.34,0S70.03,70.81,70.81,70.81z"/>
		<path fill="#311531" d="M66.13,18.97c0.78,0,1.56,0,2.34,0s1.561,0,2.34,0c0,0.18,0,0.36,0,0.54c0,1.5,0,3,0,4.5s0,3,0,4.5
			c-0.779,0-1.56,0-2.34,0s-1.56,0-2.34,0c0-0.36,0-0.72,0-1.08c0-0.18,0-0.36,0-0.54c0-0.24,0-0.48,0-0.72c0-0.18,0-0.36,0-0.54
			s0-0.36,0-0.54s0-0.36,0-0.54c0-0.24,0-0.48,0-0.72C66.13,22.21,66.13,20.59,66.13,18.97z"/>
		<path fill="#FDFEFF" d="M66.13,43.09c0-0.18,0-0.36,0-0.54c0.06,0,0.12,0,0.18,0c0.061,0,0.12,0,0.181,0c0.12,0,0.239,0,0.359,0
			c0.181,0,0.36,0,0.54,0c0.181,0,0.36,0,0.54,0c0.181,0,0.36,0,0.54,0s0.36,0,0.54,0s0.36,0,0.54,0c0.42,0,0.84,0,1.26,0
			c0,2.34,0,4.68,0,7.02s0,4.68,0,7.02c-0.779,0-1.56,0-2.34,0s-1.56,0-2.34,0c0-2.34,0-4.68,0-7.02c0-1.14,0-2.28,0-3.42
			c0-0.12,0-0.24,0-0.36c0-0.18,0-0.36,0-0.54c0-0.12,0-0.24,0-0.36c0-0.18,0-0.36,0-0.54c0-0.12,0-0.24,0-0.36
			c0-0.18,0-0.36,0-0.54C66.13,43.33,66.13,43.21,66.13,43.09z"/>
		<path fill="#311531" d="M68.47,84.85c0.18,0,0.36,0,0.54,0s0.36,0,0.54,0c0.42,0,0.84,0,1.26,0c0,0.181,0,0.36,0,0.54
			c0,1.44,0,2.88,0,4.32c0,0.72,0,1.439,0,2.16c0,0.359,0,0.72,0,1.08c0,0.18,0,0.359,0,0.54c0,0.239,0,0.479,0,0.72
			c-0.779,0-1.56,0-2.34,0s-1.56,0-2.34,0c0-0.36,0-0.72,0-1.08c0-0.18,0-0.36,0-0.54c0-0.24,0-0.479,0-0.72c0-0.181,0-0.36,0-0.54
			c0-0.181,0-0.36,0-0.54s0-0.36,0-0.54c0-0.24,0-0.48,0-0.72c0-0.181,0-0.36,0-0.54c0-0.181,0-0.36,0-0.54c0-0.181,0-0.36,0-0.54
			c0-0.24,0-0.48,0-0.721c0-0.18,0-0.359,0-0.54c0-0.18,0-0.359,0-0.539c0-0.421,0-0.841,0-1.261c0.18,0,0.36,0,0.54,0
			s0.36,0,0.54,0s0.36,0,0.54,0C67.99,84.85,68.229,84.85,68.47,84.85z"/>
		<path fill="#311531" d="M66.13,80.17c0,1.56,0,3.12,0,4.68c-0.42,0-0.84,0-1.26,0c-0.181,0-0.36,0-0.54,0c-0.181,0-0.36,0-0.54,0
			c-0.24,0-0.48,0-0.72,0c-0.181,0-0.36,0-0.54,0c-0.181,0-0.36,0-0.54,0c-0.181,0-0.36,0-0.54,0c0-1.439,0-2.88,0-4.319
			c0-1.5,0-3,0-4.5c0-0.181,0-0.36,0-0.54c1.56,0,3.12,0,4.68,0C66.13,77.05,66.13,78.61,66.13,80.17z"/>
		<path fill="#BA6A5B" d="M65.59,70.81c0.18,0,0.36,0,0.54,0c0,0.42,0,0.84,0,1.261c0,0.18,0,0.359,0,0.54c0,0.18,0,0.359,0,0.539
			c0,0.24,0,0.48,0,0.721c0,0.18,0,0.359,0,0.54c0,0.359,0,0.72,0,1.08c-1.56,0-3.12,0-4.68,0c0,0.18,0,0.359,0,0.54
			c0,1.5,0,3,0,4.5c0,1.439,0,2.88,0,4.319c-1.44,0-2.88,0-4.32,0c-0.18,0-0.36,0-0.54,0c0-1.56,0-3.12,0-4.68s0-3.12,0-4.68
			c-1.56,0-3.12,0-4.68,0c0-0.78,0-1.561,0-2.341c0-0.779,0-1.56,0-2.34c2.34,0,4.68,0,7.02,0c1.2,0,2.4,0,3.601,0
			c0.6,0,1.199,0,1.8,0c0.12,0,0.24,0,0.359,0c0.181,0,0.36,0,0.54,0C65.35,70.81,65.47,70.81,65.59,70.81z"/>
		<path fill="#311531" d="M66.13,14.47c0,1.5,0,3,0,4.5c-1.56,0-3.12,0-4.68,0c0-0.36,0-0.72,0-1.08c0-0.42,0-0.84,0-1.26
			c0-0.78,0-1.56,0-2.34c0-0.78,0-1.56,0-2.34c0-0.78,0-1.56,0-2.34c1.56,0,3.12,0,4.68,0c0,0.18,0,0.36,0,0.54
			c0,0.72,0,1.44,0,2.16c0,0.18,0,0.36,0,0.54c0,0.18,0,0.36,0,0.54c0,0.18,0,0.36,0,0.54C66.13,14.11,66.13,14.29,66.13,14.47z"/>
		<path fill="#BA6A5B" d="M64.87,84.85c0.42,0,0.84,0,1.26,0c0,0.42,0,0.84,0,1.261c0,0.18,0,0.359,0,0.539c0,0.181,0,0.36,0,0.54
			c0,0.24,0,0.48,0,0.721c0,0.18,0,0.359,0,0.54c0,0.18,0,0.359,0,0.54c0,0.18,0,0.359,0,0.54c0,0.239,0,0.479,0,0.72
			c0,0.18,0,0.36,0,0.54s0,0.359,0,0.54c0,0.18,0,0.359,0,0.54c0,0.24,0,0.479,0,0.72c0,0.18,0,0.36,0,0.54c0,0.36,0,0.72,0,1.08
			c0.78,0,1.56,0,2.34,0s1.561,0,2.34,0c0,0.18,0,0.36,0,0.54c0,0.12,0,0.24,0,0.36c0,0.3,0,0.6,0,0.899c0,0.601,0,1.2,0,1.8
			c0,1.2,0,2.4,0,3.601c0,2.34,0,4.68,0,7.02c-1.56,0-3.12,0-4.68,0s-3.12,0-4.68,0c0-3.899,0-7.8,0-11.7c0-1.979,0-3.96,0-5.939
			c0-0.96,0-1.92,0-2.88c0-0.48,0-0.96,0-1.44c0-0.54,0-1.08,0-1.62c0.18,0,0.359,0,0.54,0c0.18,0,0.359,0,0.54,0
			c0.18,0,0.359,0,0.54,0c0.239,0,0.479,0,0.72,0c0.18,0,0.359,0,0.54,0C64.51,84.85,64.689,84.85,64.87,84.85z"/>
		<path fill="#311531" d="M61.45,9.61c-3,0-6,0-9,0c-0.181,0-0.36,0-0.54,0c0-0.06,0-0.12,0-0.18c0-0.06,0-0.12,0-0.18
			c0-0.12,0-0.24,0-0.36c0-0.18,0-0.36,0-0.54c0-0.18,0-0.36,0-0.54c0-0.18,0-0.36,0-0.54c0-0.36,0-0.72,0-1.08
			c0-0.18,0-0.36,0-0.54c0-0.24,0-0.48,0-0.72c1.5,0,3,0,4.5,0s3,0,4.5,0c0.18,0,0.359,0,0.54,0c0,0.06,0,0.12,0,0.18s0,0.12,0,0.18
			c0,0.12,0,0.24,0,0.36c0,0.18,0,0.36,0,0.54c0,0.36,0,0.72,0,1.08C61.45,8.05,61.45,8.83,61.45,9.61z"/>
		<path fill="#311531" d="M59.11,117.79c0.779,0,1.56,0,2.34,0c0,2.34,0,4.68,0,7.02s0,4.681,0,7.021c-1.62,0-3.24,0-4.86,0
			c0-2.34,0-4.681,0-7.021s0-4.68,0-7.02c0.06,0,0.12,0,0.18,0c0.061,0,0.12,0,0.181,0c0.12,0,0.239,0,0.359,0
			c0.181,0,0.36,0,0.54,0c0.181,0,0.36,0,0.54,0C58.63,117.79,58.87,117.79,59.11,117.79z"/>
		<path fill="#311531" d="M60.189,42.55c0.421,0,0.841,0,1.261,0c0-0.18,0-0.36,0-0.54c0-0.12,0-0.24,0-0.36c0-0.18,0-0.36,0-0.54
			c0-0.12,0-0.24,0-0.36c0-0.18,0-0.36,0-0.54c0-0.12,0-0.24,0-0.36c0-0.18,0-0.36,0-0.54c0-0.12,0-0.24,0-0.36
			c0-0.18,0-0.36,0-0.54c0-0.18,0-0.36,0-0.54c1.56,0,3.12,0,4.68,0c0.36,0,0.72,0,1.08,0c0.42,0,0.84,0,1.26,0
			c0.36,0,0.72,0,1.08,0c0.42,0,0.84,0,1.26,0c0,0.24,0,0.48,0,0.72c0,0.18,0,0.36,0,0.54c0,0.36,0,0.72,0,1.08
			c0,0.42,0,0.84,0,1.26c0,0.36,0,0.72,0,1.08c-0.42,0-0.84,0-1.26,0c-0.18,0-0.36,0-0.54,0s-0.36,0-0.54,0s-0.359,0-0.54,0
			c-0.18,0-0.359,0-0.54,0c-0.18,0-0.359,0-0.54,0c-0.12,0-0.239,0-0.359,0c-0.061,0-0.12,0-0.181,0c-0.06,0-0.12,0-0.18,0
			c0,0.18,0,0.36,0,0.54c0,0.12,0,0.24,0,0.36c0,0.18,0,0.36,0,0.54c0,0.12,0,0.24,0,0.36c0,0.18,0,0.36,0,0.54
			c0,0.12,0,0.24,0,0.36c0,0.18,0,0.36,0,0.54c0,0.12,0,0.24,0,0.36c0,1.14,0,2.28,0,3.42c0,2.34,0,4.68,0,7.02
			c0.78,0,1.56,0,2.34,0s1.561,0,2.34,0c0,1.62,0,3.24,0,4.86c-0.779,0-1.56,0-2.34,0s-1.56,0-2.34,0c-1.56,0-3.12,0-4.68,0
			c0-1.62,0-3.24,0-4.86c-1.62,0-3.24,0-4.86,0c0-2.34,0-4.68,0-7.02c0-1.14,0-2.28,0-3.42c0-0.12,0-0.24,0-0.36
			c0-0.18,0-0.36,0-0.54c0-0.12,0-0.24,0-0.36c0-0.18,0-0.36,0-0.54c0-0.12,0-0.24,0-0.36c0-0.18,0-0.36,0-0.54
			c0-0.12,0-0.24,0-0.36c0-0.18,0-0.36,0-0.54c0.06,0,0.12,0,0.18,0c0.061,0,0.12,0,0.181,0c0.12,0,0.239,0,0.359,0
			c0.181,0,0.36,0,0.54,0c0.181,0,0.36,0,0.54,0c0.24,0,0.48,0,0.721,0c0.18,0,0.359,0,0.539,0
			C59.83,42.55,60.01,42.55,60.189,42.55z"/>
		<path fill="#BA6A5B" d="M42.55,117.79c0.42,0,0.84,0,1.26,0c0.181,0,0.36,0,0.54,0c0.181,0,0.36,0,0.54,0c0.24,0,0.48,0,0.721,0
			c0.18,0,0.359,0,0.539,0c0.181,0,0.36,0,0.54,0c0.181,0,0.36,0,0.54,0c1.561,0,3.12,0,4.681,0c0-1.561,0-3.12,0-4.68
			c1.56,0,3.12,0,4.68,0c0-0.181,0-0.36,0-0.54c0-0.601,0-1.2,0-1.801c0-0.3,0-0.6,0-0.899c0-0.12,0-0.24,0-0.36
			c0-0.18,0-0.36,0-0.54s0-0.359,0-0.54c0.06,0,0.12,0,0.18,0c0.061,0,0.12,0,0.181,0c0.12,0,0.239,0,0.359,0c0.181,0,0.36,0,0.54,0
			c0.42,0,0.84,0,1.261,0c0.779,0,1.56,0,2.34,0c0,3.12,0,6.24,0,9.36c-0.78,0-1.561,0-2.34,0c-0.24,0-0.48,0-0.721,0
			c-0.18,0-0.359,0-0.54,0c-0.18,0-0.359,0-0.54,0c-0.12,0-0.239,0-0.359,0c-0.061,0-0.12,0-0.181,0c-0.06,0-0.12,0-0.18,0
			c0,2.34,0,4.68,0,7.02s0,4.681,0,7.021c-2.34,0-4.68,0-7.02,0c-1.141,0-2.28,0-3.421,0c-0.119,0-0.239,0-0.359,0
			c-0.18,0-0.36,0-0.54,0c-0.12,0-0.24,0-0.36,0c-0.18,0-0.359,0-0.54,0c-0.12,0-0.239,0-0.359,0c-0.181,0-0.36,0-0.54,0
			c-0.12,0-0.24,0-0.36,0c-0.18,0-0.36,0-0.54,0c0-0.181,0-0.36,0-0.54c0-0.12,0-0.24,0-0.36c0-0.18,0-0.359,0-0.54
			c0-0.12,0-0.24,0-0.359c0-0.181,0-0.36,0-0.54c0-0.12,0-0.24,0-0.36c0-0.18,0-0.36,0-0.54c0-0.12,0-0.24,0-0.36
			c0-1.14,0-2.279,0-3.42c0-0.18,0-0.359,0-0.54c0-0.12,0-0.239,0-0.359c0-0.181,0-0.36,0-0.54c0-0.12,0-0.24,0-0.36
			c0-0.18,0-0.36,0-0.54c0-0.12,0-0.24,0-0.359c0-0.181,0-0.36,0-0.54c0-0.12,0-0.24,0-0.36C42.55,120.07,42.55,118.93,42.55,117.79
			z"/>
		<path fill="#311531" d="M51.91,3.85c0,0.36,0,0.72,0,1.08c-1.2,0-2.4,0-3.601,0c-0.3,0-0.6,0-0.899,0s-0.601,0-0.9,0
			c-0.54,0-1.08,0-1.62,0c-0.18,0-0.359,0-0.54,0c-0.12,0-0.239,0-0.359,0c-0.181,0-0.36,0-0.54,0c-0.12,0-0.24,0-0.36,0
			c-0.6,0-1.2,0-1.8,0c-1.14,0-2.28,0-3.42,0c0-0.36,0-0.72,0-1.08c0-0.42,0-0.84,0-1.26c0-0.36,0-0.72,0-1.08c0-0.18,0-0.36,0-0.54
			c0-0.24,0-0.48,0-0.72c0.06,0,0.12,0,0.18,0c4.62,0,9.24,0,13.86,0c0,0.24,0,0.48,0,0.72c0,0.18,0,0.36,0,0.54
			c0,0.36,0,0.72,0,1.08C51.91,3.01,51.91,3.43,51.91,3.85z"/>
		<path fill="#311531" d="M47.77,42.55c0.181,0,0.36,0,0.54,0c0.181,0,0.36,0,0.54,0c0.24,0,0.48,0,0.721,0c0.18,0,0.359,0,0.54,0
			c0.18,0,0.359,0,0.539,0c0.421,0,0.841,0,1.261,0c0,2.34,0,4.68,0,7.02s0,4.68,0,7.02c-1.561,0-3.12,0-4.681,0
			c0-2.34,0-4.68,0-7.02c0-1.14,0-2.28,0-3.42c0-0.12,0-0.24,0-0.36c0-0.18,0-0.36,0-0.54c0-0.12,0-0.24,0-0.36
			c0-0.18,0-0.36,0-0.54c0-0.12,0-0.24,0-0.36c0-0.18,0-0.36,0-0.54c0-0.12,0-0.24,0-0.36c0-0.18,0-0.36,0-0.54
			C47.41,42.55,47.59,42.55,47.77,42.55z"/>
		<path fill="#FDFEFF" d="M42.91,42.55c0.18,0,0.359,0,0.54,0c0.18,0,0.359,0,0.54,0c0.239,0,0.479,0,0.72,0c0.18,0,0.36,0,0.54,0
			s0.36,0,0.54,0s0.359,0,0.54,0c0.12,0,0.24,0,0.359,0c0.181,0,0.36,0,0.54,0c0,0.18,0,0.36,0,0.54c0,0.12,0,0.24,0,0.36
			c0,0.18,0,0.36,0,0.54c0,0.12,0,0.24,0,0.36c0,0.18,0,0.36,0,0.54c0,0.12,0,0.24,0,0.36c0,0.18,0,0.36,0,0.54
			c0,0.12,0,0.24,0,0.36c0,1.14,0,2.28,0,3.42c0,2.34,0,4.68,0,7.02c-1.439,0-2.88,0-4.319,0c-1.5,0-3,0-4.5,0
			c-0.18,0-0.36,0-0.54,0c0-0.06,0-0.12,0-0.18c0-0.24,0-0.48,0-0.72c0-0.3,0-0.6,0-0.9c0-0.54,0-1.08,0-1.62c0-1.14,0-2.28,0-3.42
			c0-1.08,0-2.16,0-3.24c0-1.14,0-2.28,0-3.42c0-0.18,0-0.36,0-0.54c1.5,0,3,0,4.5,0C42.55,42.55,42.729,42.55,42.91,42.55z"/>
		<path fill="#D97761" d="M43.09,70.81c0.12,0,0.24,0,0.36,0c0.18,0,0.359,0,0.54,0c0.12,0,0.239,0,0.359,0c0.181,0,0.36,0,0.54,0
			c2.34,0,4.681,0,7.021,0c0,0.78,0,1.561,0,2.34c0,0.78,0,1.561,0,2.341c-1.561,0-3.12,0-4.681,0c-0.42,0-0.84,0-1.26,0
			c-0.18,0-0.359,0-0.54,0c-0.18,0-0.359,0-0.54,0c-0.42,0-0.84,0-1.26,0c-0.18,0-0.36,0-0.54,0s-0.36,0-0.54,0
			c-0.12,0-0.24,0-0.36,0c-0.18,0-0.359,0-0.54,0c-0.359,0-0.72,0-1.08,0c-0.18,0-0.36,0-0.54,0c-0.18,0-0.36,0-0.54,0
			c-0.36,0-0.72,0-1.08,0c-0.18,0-0.36,0-0.54,0c0-0.24,0-0.48,0-0.721c0-0.18,0-0.359,0-0.54c0-0.359,0-0.72,0-1.08
			c0-0.779,0-1.56,0-2.34c1.14,0,2.28,0,3.42,0C41.89,70.81,42.49,70.81,43.09,70.81z"/>
		<path fill="#D97761" d="M43.09,113.11c0.12,0,0.24,0,0.36,0c0.18,0,0.359,0,0.54,0c0.12,0,0.239,0,0.359,0c0.181,0,0.36,0,0.54,0
			c2.34,0,4.681,0,7.021,0c0,1.56,0,3.119,0,4.68c-1.561,0-3.12,0-4.681,0c-0.18,0-0.359,0-0.54,0c-0.18,0-0.359,0-0.54,0
			c-0.18,0-0.359,0-0.539,0c-0.24,0-0.48,0-0.721,0c-0.18,0-0.359,0-0.54,0c-0.18,0-0.359,0-0.54,0c-0.42,0-0.84,0-1.26,0
			c-0.78,0-1.56,0-2.34,0c-0.78,0-1.56,0-2.34,0c0-1.561,0-3.12,0-4.68c1.14,0,2.28,0,3.42,0c0.12,0,0.24,0,0.359,0
			c0.181,0,0.36,0,0.54,0c0.12,0,0.24,0,0.36,0C42.729,113.11,42.91,113.11,43.09,113.11z"/>
		<path fill="#311531" d="M37.87,117.79c0.78,0,1.56,0,2.34,0c0.78,0,1.56,0,2.34,0c0,1.14,0,2.28,0,3.42c0,0.12,0,0.24,0,0.36
			c0,0.18,0,0.359,0,0.54c0,0.119,0,0.239,0,0.359c0,0.18,0,0.36,0,0.54c0,0.12,0,0.24,0,0.36c0,0.18,0,0.359,0,0.54
			c0,0.12,0,0.239,0,0.359c0,0.181,0,0.36,0,0.54c0,1.141,0,2.28,0,3.42c0,0.12,0,0.24,0,0.36c0,0.18,0,0.36,0,0.54
			c0,0.12,0,0.24,0,0.36c0,0.18,0,0.359,0,0.54c0,0.119,0,0.239,0,0.359c0,0.181,0,0.36,0,0.54c0,0.12,0,0.24,0,0.36
			c0,0.18,0,0.359,0,0.54c-0.12,0-0.24,0-0.36,0c-0.18,0-0.359,0-0.54,0c-0.359,0-0.72,0-1.08,0c-0.72,0-1.44,0-2.16,0
			c-0.18,0-0.36,0-0.54,0c0-0.24,0-0.48,0-0.72c0-0.181,0-0.36,0-0.54c0-0.36,0-0.721,0-1.08c0-0.78,0-1.561,0-2.341
			c0-0.359,0-0.72,0-1.079c0-0.421,0-0.841,0-1.261c0-0.359,0-0.72,0-1.08c0-0.42,0-0.84,0-1.26c-0.36,0-0.72,0-1.08,0
			c-0.42,0-0.84,0-1.26,0c-0.36,0-0.72,0-1.08,0c-0.18,0-0.36,0-0.54,0c-0.24,0-0.48,0-0.72,0c0-1.56,0-3.12,0-4.68
			c0.78,0,1.56,0,2.34,0C36.31,117.79,37.09,117.79,37.87,117.79z"/>
		<path fill="#311531" d="M37.87,10.87c0,0.36,0,0.72,0,1.08c0,0.78,0,1.56,0,2.34c-0.42,0-0.84,0-1.26,0c-0.18,0-0.36,0-0.54,0
			s-0.36,0-0.54,0c-0.24,0-0.48,0-0.72,0c-0.18,0-0.36,0-0.54,0c-0.36,0-0.72,0-1.08,0c0-0.36,0-0.72,0-1.08c0-0.18,0-0.36,0-0.54
			c0-0.24,0-0.48,0-0.72c0-0.18,0-0.36,0-0.54c0-0.18,0-0.36,0-0.54c0-0.42,0-0.84,0-1.26c-0.18,0-0.36,0-0.54,0
			c-2.76,0-5.52,0-8.28,0c-0.18,0-0.36,0-0.54,0c0-0.24,0-0.48,0-0.72c0-0.18,0-0.36,0-0.54c0-0.36,0-0.72,0-1.08
			c0-0.36,0-0.72,0-1.08c0-0.18,0-0.36,0-0.54c0-0.24,0-0.48,0-0.72c1.14,0,2.28,0,3.42,0c0.6,0,1.2,0,1.8,0c0.12,0,0.24,0,0.36,0
			c0.18,0,0.36,0,0.54,0c0.12,0,0.24,0,0.36,0c0.18,0,0.36,0,0.54,0c1.14,0,2.28,0,3.42,0c0.6,0,1.2,0,1.8,0c0.12,0,0.24,0,0.36,0
			c0.18,0,0.36,0,0.54,0c0.12,0,0.24,0,0.36,0c0.18,0,0.36,0,0.54,0c0,0.42,0,0.84,0,1.26c0,0.36,0,0.72,0,1.08
			c0,0.42,0,0.84,0,1.26c0,0.36,0,0.72,0,1.08C37.87,10.03,37.87,10.45,37.87,10.87z"/>
		<path fill="#E0B49C" d="M23.65,117.79c0.06,0,0.12,0,0.18,0c0-0.18,0-0.36,0-0.54c0-2.94,0-5.88,0-8.82c0.78,0,1.56,0,2.34,0
			c0.78,0,1.56,0,2.34,0c0-3.18,0-6.359,0-9.54c0.78,0,1.56,0,2.34,0c0.78,0,1.56,0,2.34,0c0,3.181,0,6.36,0,9.54
			c0.18,0,0.36,0,0.54,0c0.6,0,1.2,0,1.8,0c0.12,0,0.24,0,0.36,0c0.18,0,0.36,0,0.54,0c0.12,0,0.24,0,0.36,0c0.18,0,0.36,0,0.54,0
			c0.18,0,0.36,0,0.54,0c0,1.561,0,3.12,0,4.681c0,1.56,0,3.119,0,4.68c-0.78,0-1.56,0-2.34,0c-0.78,0-1.56,0-2.34,0
			c0,1.56,0,3.12,0,4.68c-0.24,0-0.48,0-0.72,0c-0.18,0-0.36,0-0.54,0c-0.36,0-0.72,0-1.08,0c-0.72,0-1.44,0-2.16,0
			c-0.06,0-0.12,0-0.18,0c0,0.18,0,0.36,0,0.54c0,2.94,0,5.88,0,8.82c-1.14,0-2.28,0-3.42,0c-0.6,0-1.2,0-1.8,0
			c-0.12,0-0.24,0-0.36,0c-0.18,0-0.36,0-0.54,0c-0.12,0-0.24,0-0.36,0c-0.18,0-0.36,0-0.54,0c-0.6,0-1.2,0-1.8,0
			c-0.12,0-0.24,0-0.36,0c-0.18,0-0.36,0-0.54,0c-0.12,0-0.24,0-0.36,0c-0.18,0-0.36,0-0.54,0c-0.6,0-1.2,0-1.8,0
			c-0.12,0-0.24,0-0.36,0c-0.18,0-0.36,0-0.54,0c-0.12,0-0.24,0-0.36,0c-0.18,0-0.36,0-0.54,0c0-2.34,0-4.681,0-7.021s0-4.68,0-7.02
			c0.78,0,1.56,0,2.34,0c0.24,0,0.48,0,0.72,0c0.18,0,0.36,0,0.54,0c0.18,0,0.36,0,0.54,0c0.18,0,0.36,0,0.54,0
			c0.24,0,0.48,0,0.72,0c0.18,0,0.36,0,0.54,0c0.18,0,0.36,0,0.54,0c0.18,0,0.36,0,0.54,0c0.24,0,0.48,0,0.72,0
			c0.18,0,0.36,0,0.54,0s0.36,0,0.54,0c0.12,0,0.24,0,0.36,0C23.53,117.79,23.59,117.79,23.65,117.79z"/>
		<path fill="#D97761" d="M33.19,67.39c0-0.42,0-0.84,0-1.26c0.12,0,0.24,0,0.36,0c0.18,0,0.36,0,0.54,0s0.36,0,0.54,0
			s0.36,0,0.54,0c0.72,0,1.44,0,2.16,0c0.18,0,0.36,0,0.54,0c0,0.24,0,0.48,0,0.72c0,0.181,0,0.36,0,0.54c0,0.36,0,0.721,0,1.08
			c0,0.78,0,1.561,0,2.34c-0.12,0-0.24,0-0.36,0c-0.18,0-0.36,0-0.54,0c-0.36,0-0.72,0-1.08,0c-0.72,0-1.44,0-2.16,0
			c-0.18,0-0.36,0-0.54,0c0-0.239,0-0.479,0-0.72c0-0.18,0-0.36,0-0.54s0-0.36,0-0.54s0-0.36,0-0.54s0-0.359,0-0.54
			C33.19,67.75,33.19,67.57,33.19,67.39z"/>
		<path fill="#FDFEFF" d="M37.87,80.71c0-0.18,0-0.36,0-0.54c0.06,0,0.12,0,0.18,0s0.12,0,0.18,0c0.12,0,0.24,0,0.36,0
			c0.18,0,0.36,0,0.54,0c0.36,0,0.72,0,1.08,0c0.18,0,0.36,0,0.54,0c0.18,0,0.36,0,0.54,0c0.42,0,0.84,0,1.26,0
			c0-0.18,0-0.36,0-0.54s0-0.36,0-0.54s0-0.36,0-0.54c0-0.24,0-0.479,0-0.72c0-0.181,0-0.36,0-0.54s0-0.36,0-0.54
			c0-0.42,0-0.84,0-1.26c0.18,0,0.36,0,0.54,0s0.36,0,0.54,0c0.42,0,0.84,0,1.26,0c0.181,0,0.36,0,0.54,0c0.181,0,0.36,0,0.54,0
			c0.42,0,0.84,0,1.26,0c1.561,0,3.12,0,4.681,0c1.56,0,3.12,0,4.68,0c0,1.56,0,3.12,0,4.68s0,3.12,0,4.68c0.18,0,0.36,0,0.54,0
			c1.44,0,2.88,0,4.32,0c0,0.54,0,1.08,0,1.62c0,0.48,0,0.96,0,1.44c0,0.96,0,1.92,0,2.88c0,1.979,0,3.96,0,5.939
			c0,3.9,0,7.801,0,11.7c-0.78,0-1.561,0-2.34,0c-0.421,0-0.841,0-1.261,0c-0.18,0-0.359,0-0.54,0c-0.12,0-0.239,0-0.359,0
			c-0.061,0-0.12,0-0.181,0c-0.06,0-0.12,0-0.18,0c0,0.181,0,0.36,0,0.54s0,0.36,0,0.54c0,0.12,0,0.24,0,0.36c0,0.3,0,0.6,0,0.899
			c0,0.601,0,1.2,0,1.801c0,0.18,0,0.359,0,0.54c-1.56,0-3.12,0-4.68,0c-2.34,0-4.681,0-7.021,0c-0.18,0-0.359,0-0.54,0
			c-0.12,0-0.239,0-0.359,0c-0.181,0-0.36,0-0.54,0c-0.12,0-0.24,0-0.36,0c-0.18,0-0.36,0-0.54,0c-0.12,0-0.24,0-0.36,0
			c-0.18,0-0.359,0-0.54,0c-0.119,0-0.239,0-0.359,0c-1.14,0-2.28,0-3.42,0c0-1.561,0-3.12,0-4.681c-0.18,0-0.36,0-0.54,0
			c-0.18,0-0.36,0-0.54,0c-0.12,0-0.24,0-0.36,0c-0.18,0-0.36,0-0.54,0c-0.12,0-0.24,0-0.36,0c-0.6,0-1.2,0-1.8,0
			c-0.18,0-0.36,0-0.54,0c0-3.18,0-6.359,0-9.54c0-1.56,0-3.12,0-4.68c0-0.24,0-0.48,0-0.72c0-0.181,0-0.36,0-0.54
			c0-0.181,0-0.36,0-0.54c0-0.181,0-0.36,0-0.54c0-0.24,0-0.48,0-0.721c0-0.18,0-0.359,0-0.539c0-0.181,0-0.36,0-0.54
			c0-0.181,0-0.36,0-0.54c0.18,0,0.36,0,0.54,0c0.18,0,0.36,0,0.54,0c0.18,0,0.36,0,0.54,0c0.24,0,0.48,0,0.72,0
			c0.18,0,0.36,0,0.54,0s0.36,0,0.54,0c0.42,0,0.84,0,1.26,0c0-0.181,0-0.36,0-0.54c0-0.12,0-0.24,0-0.36c0-0.18,0-0.36,0-0.54
			c0-0.36,0-0.72,0-1.08c0-0.18,0-0.36,0-0.54s0-0.359,0-0.54c0-0.359,0-0.72,0-1.08c0-0.12,0-0.239,0-0.359c0-0.181,0-0.36,0-0.54
			c0-0.36,0-0.721,0-1.08c0-0.181,0-0.36,0-0.54c0-0.181,0-0.36,0-0.54C37.87,81.43,37.87,81.07,37.87,80.71z"/>
		<path fill="#D97761" d="M32.65,89.53c0.18,0,0.36,0,0.54,0c0,0.18,0,0.359,0,0.54c0,0.18,0,0.359,0,0.54c0,0.18,0,0.359,0,0.539
			c0,0.24,0,0.48,0,0.721c0,0.18,0,0.359,0,0.54c0,0.18,0,0.359,0,0.54c0,0.18,0,0.359,0,0.54c0,0.239,0,0.479,0,0.72
			c0,1.56,0,3.12,0,4.68c-0.78,0-1.56,0-2.34,0c-0.78,0-1.56,0-2.34,0c0-1.5,0-3,0-4.5c0-0.779,0-1.56,0-2.34c0-0.18,0-0.36,0-0.54
			s0-0.36,0-0.54c0-0.42,0-0.84,0-1.26c0-0.061,0-0.12,0-0.18c0.72,0,1.44,0,2.16,0c0.18,0,0.36,0,0.54,0c0.18,0,0.36,0,0.54,0
			c0.18,0,0.36,0,0.54,0C32.41,89.53,32.53,89.53,32.65,89.53z"/>
		<path fill="#311531" d="M28.69,122.47c0.72,0,1.44,0,2.16,0c0.36,0,0.72,0,1.08,0c0.18,0,0.36,0,0.54,0c0.24,0,0.48,0,0.72,0
			c0,2.94,0,5.88,0,8.82c0,0.18,0,0.359,0,0.54c-0.06,0-0.12,0-0.18,0s-0.12,0-0.18,0c-0.12,0-0.24,0-0.36,0c-0.18,0-0.36,0-0.54,0
			c-0.36,0-0.72,0-1.08,0c-0.36,0-0.72,0-1.08,0c-0.42,0-0.84,0-1.26,0c0-2.94,0-5.88,0-8.82c0-0.18,0-0.36,0-0.54
			C28.57,122.47,28.63,122.47,28.69,122.47z"/>
		<path fill="#D97761" d="M29.23,14.29c0.18,0,0.36,0,0.54,0c0.18,0,0.36,0,0.54,0c0.18,0,0.36,0,0.54,0c0.78,0,1.56,0,2.34,0
			c0.36,0,0.72,0,1.08,0c0.18,0,0.36,0,0.54,0c0.24,0,0.48,0,0.72,0c0.18,0,0.36,0,0.54,0s0.36,0,0.54,0c0.42,0,0.84,0,1.26,0
			c1.44,0,2.88,0,4.319,0c0.721,0,1.44,0,2.16,0c0.181,0,0.36,0,0.54,0c0.181,0,0.36,0,0.54,0c0.42,0,0.84,0,1.26,0
			c0.181,0,0.36,0,0.54,0c0,0.24,0,0.48,0,0.72c0,0.18,0,0.36,0,0.54c0,0.36,0,0.72,0,1.08c0,0.18,0,0.36,0,0.54s0,0.36,0,0.54
			c0,0.42,0,0.84,0,1.26c0.181,0,0.36,0,0.54,0c1.38,0,2.761,0,4.141,0s2.76,0,4.14,0c0.18,0,0.36,0,0.54,0c0,0.24,0,0.48,0,0.72
			c0,0.18,0,0.36,0,0.54c0,0.42,0,0.84,0,1.26c0,0.78,0,1.56,0,2.34c0.78,0,1.56,0,2.34,0c0.84,0,1.681,0,2.521,0
			c0,0.78,0,1.56,0,2.34c0,0.78,0,1.56,0,2.34c-0.181,0-0.36,0-0.54,0c-0.12,0-0.24,0-0.36,0c-0.18,0-0.36,0-0.54,0
			c-0.12,0-0.24,0-0.36,0c-0.18,0-0.359,0-0.539,0c-0.12,0-0.24,0-0.36,0c-0.18,0-0.36,0-0.54,0c-0.12,0-0.24,0-0.36,0
			c-1.2,0-2.399,0-3.6,0c-2.34,0-4.68,0-7.021,0c0-0.36,0-0.72,0-1.08c0-0.42,0-0.84,0-1.26c0-0.78,0-1.56,0-2.34
			c-0.18,0-0.359,0-0.54,0c-0.119,0-0.239,0-0.359,0c-0.181,0-0.36,0-0.54,0c-0.12,0-0.24,0-0.36,0c-0.18,0-0.359,0-0.54,0
			c-0.12,0-0.24,0-0.359,0c-0.181,0-0.36,0-0.54,0c-0.12,0-0.24,0-0.36,0c-0.18,0-0.36,0-0.54,0s-0.36,0-0.54,0
			c0-0.06,0-0.12,0-0.18s0-0.12,0-0.18c0-0.12,0-0.24,0-0.36c0-0.18,0-0.36,0-0.54s0-0.36,0-0.54c0-0.24,0-0.48,0-0.72
			c0-0.18,0-0.36,0-0.54c0-0.18,0-0.36,0-0.54c0-0.42,0-0.84,0-1.26c-2.22,0-4.44,0-6.66,0c-1.14,0-2.28,0-3.42,0
			c-1.14,0-2.28,0-3.42,0c-0.18,0-0.36,0-0.54,0c0-0.18,0-0.36,0-0.54c0-0.12,0-0.24,0-0.36c0-0.18,0-0.36,0-0.54
			c0-0.12,0-0.24,0-0.36c0-0.18,0-0.36,0-0.54c0-0.12,0-0.24,0-0.36c0-0.18,0-0.36,0-0.54c0-0.12,0-0.24,0-0.36
			c0-0.18,0-0.36,0-0.54c0-0.18,0-0.36,0-0.54C28.75,14.29,28.99,14.29,29.23,14.29z"/>
		<path fill="#BA6A5B" d="M29.05,80.17c0.12,0,0.24,0,0.36,0c0.18,0,0.36,0,0.54,0c0.12,0,0.24,0,0.36,0c0.18,0,0.36,0,0.54,0
			c0.12,0,0.24,0,0.36,0c0.18,0,0.36,0,0.54,0c0.12,0,0.24,0,0.36,0c0.18,0,0.36,0,0.54,0s0.36,0,0.54,0c0,0.24,0,0.479,0,0.72
			c0,0.181,0,0.36,0,0.54c0,0.181,0,0.36,0,0.54s0,0.36,0,0.54s0,0.36,0,0.54s0,0.36,0,0.54s0,0.36,0,0.54c0,0.24,0,0.48,0,0.72
			c0,0.181,0,0.36,0,0.54c0,0.181,0,0.36,0,0.54c0,0.181,0,0.36,0,0.54c0,0.24,0,0.48,0,0.72c0,0.181,0,0.36,0,0.54
			c0,0.181,0,0.36,0,0.54c0,0.42,0,0.841,0,1.261c-0.18,0-0.36,0-0.54,0c-0.12,0-0.24,0-0.36,0c-0.18,0-0.36,0-0.54,0
			c-0.18,0-0.36,0-0.54,0c-0.18,0-0.36,0-0.54,0c-0.72,0-1.44,0-2.16,0c0-0.181,0-0.36,0-0.54c0-0.181,0-0.36,0-0.54
			c0-0.42,0-0.84,0-1.261c0-0.359,0-0.72,0-1.079c0-0.421,0-0.841,0-1.261c0-0.359,0-0.72,0-1.08c0-0.42,0-0.84,0-1.26
			c0-0.78,0-1.56,0-2.34C28.69,80.17,28.87,80.17,29.05,80.17z"/>
		<path fill="#311531" d="M29.23,42.55c0.18,0,0.36,0,0.54,0c0.18,0,0.36,0,0.54,0c0.18,0,0.36,0,0.54,0c0.18,0,0.36,0,0.54,0
			c0.18,0,0.36,0,0.54,0c0.42,0,0.84,0,1.26,0c0-0.36,0-0.72,0-1.08c0-0.18,0-0.36,0-0.54c0-0.24,0-0.48,0-0.72
			c0-0.18,0-0.36,0-0.54s0-0.36,0-0.54c0-0.42,0-0.84,0-1.26c1.14,0,2.28,0,3.42,0c0.6,0,1.2,0,1.8,0c0.12,0,0.24,0,0.36,0
			c0.18,0,0.36,0,0.54,0c0.12,0,0.24,0,0.36,0c0.18,0,0.36,0,0.54,0c1.14,0,2.28,0,3.42,0c0.6,0,1.2,0,1.8,0c0.12,0,0.24,0,0.36,0
			c0.18,0,0.359,0,0.54,0c0.12,0,0.24,0,0.359,0c0.181,0,0.36,0,0.54,0c0,0.24,0,0.48,0,0.72c0,0.18,0,0.36,0,0.54
			c0,0.36,0,0.72,0,1.08c0,0.78,0,1.56,0,2.34c-0.18,0-0.359,0-0.54,0c-0.119,0-0.239,0-0.359,0c-0.181,0-0.36,0-0.54,0
			s-0.36,0-0.54,0s-0.36,0-0.54,0c-0.24,0-0.48,0-0.72,0c-0.181,0-0.36,0-0.54,0c-0.181,0-0.36,0-0.54,0c-0.181,0-0.36,0-0.54,0
			c-1.5,0-3,0-4.5,0c0,0.18,0,0.36,0,0.54c0,1.14,0,2.28,0,3.42c0,1.08,0,2.16,0,3.24c0,1.14,0,2.28,0,3.42c0,0.54,0,1.08,0,1.62
			c0,0.3,0,0.6,0,0.9c0,0.24,0,0.48,0,0.72c0,0.06,0,0.12,0,0.18c0.18,0,0.36,0,0.54,0c1.5,0,3,0,4.5,0c1.439,0,2.88,0,4.319,0
			c0,0.78,0,1.56,0,2.34c0,0.84,0,1.68,0,2.521c-1.14,0-2.279,0-3.42,0c-0.12,0-0.239,0-0.359,0c-0.181,0-0.36,0-0.54,0
			c-0.12,0-0.24,0-0.36,0c-0.18,0-0.36,0-0.54,0c-0.12,0-0.24,0-0.36,0c-0.18,0-0.359,0-0.54,0c-0.12,0-0.24,0-0.36,0
			c-0.18,0-0.36,0-0.54,0c-2.34,0-4.68,0-7.02,0c0-1.62,0-3.24,0-4.86c-0.36,0-0.72,0-1.08,0c-0.42,0-0.84,0-1.26,0
			c-0.36,0-0.72,0-1.08,0c-0.18,0-0.36,0-0.54,0c-0.24,0-0.48,0-0.72,0c0-2.34,0-4.68,0-7.02c0-1.14,0-2.28,0-3.42
			c0-0.12,0-0.24,0-0.36c0-0.18,0-0.36,0-0.54c0-0.12,0-0.24,0-0.36c0-0.18,0-0.36,0-0.54c0-0.12,0-0.24,0-0.36
			c0-0.18,0-0.36,0-0.54c0-0.12,0-0.24,0-0.36c0-0.18,0-0.36,0-0.54c0.06,0,0.12,0,0.18,0s0.12,0,0.18,0
			C28.99,42.55,29.11,42.55,29.23,42.55z"/>
		<path fill="#D97761" d="M28.51,98.89c0,3.181,0,6.36,0,9.54c-0.78,0-1.56,0-2.34,0c-0.78,0-1.56,0-2.34,0c0-3.18,0-6.359,0-9.54
			c0.78,0,1.56,0,2.34,0C26.95,98.89,27.73,98.89,28.51,98.89z"/>
		<path fill="#FDFEFF" d="M23.83,38.41c0-0.18,0-0.36,0-0.54c0.24,0,0.48,0,0.72,0c0.18,0,0.36,0,0.54,0c0.36,0,0.72,0,1.08,0
			c0.78,0,1.56,0,2.34,0c0-0.18,0-0.36,0-0.54c0-0.12,0-0.24,0-0.36c0-0.18,0-0.36,0-0.54c0-0.12,0-0.24,0-0.36
			c0-0.18,0-0.36,0-0.54c0-0.12,0-0.24,0-0.36c0-0.18,0-0.36,0-0.54c0-0.12,0-0.24,0-0.36c0-0.18,0-0.36,0-0.54
			c0-0.18,0-0.36,0-0.54c0.24,0,0.48,0,0.72,0c0.18,0,0.36,0,0.54,0c0.18,0,0.36,0,0.54,0c0.18,0,0.36,0,0.54,0
			c0.18,0,0.36,0,0.54,0c0.18,0,0.36,0,0.54,0c0.42,0,0.84,0,1.26,0c0-0.36,0-0.72,0-1.08c0-0.18,0-0.36,0-0.54
			c0-0.24,0-0.48,0-0.72c0-0.18,0-0.36,0-0.54c0-0.18,0-0.36,0-0.54c0-0.42,0-0.84,0-1.26c1.14,0,2.28,0,3.42,0
			c0.12,0,0.24,0,0.36,0c0.18,0,0.36,0,0.54,0c0.12,0,0.24,0,0.36,0c0.18,0,0.36,0,0.54,0c0.12,0,0.24,0,0.36,0
			c0.18,0,0.36,0,0.54,0c0.12,0,0.24,0,0.36,0c0.18,0,0.36,0,0.54,0c1.14,0,2.28,0,3.42,0c0.12,0,0.24,0,0.36,0
			c0.18,0,0.359,0,0.54,0c0.119,0,0.239,0,0.359,0c0.181,0,0.36,0,0.54,0c0.12,0,0.24,0,0.36,0c0.18,0,0.359,0,0.54,0
			c0.3,0,0.6,0,0.899,0c2.341,0,4.681,0,7.021,0c1.2,0,2.399,0,3.6,0c0.12,0,0.24,0,0.36,0c0.18,0,0.36,0,0.54,0
			c0.12,0,0.24,0,0.36,0c0.18,0,0.359,0,0.539,0c0.12,0,0.24,0,0.36,0c0.18,0,0.36,0,0.54,0c0.12,0,0.24,0,0.36,0
			c0.18,0,0.359,0,0.54,0c0,0.78,0,1.56,0,2.34c0,0.78,0,1.56,0,2.34c0.18,0,0.359,0,0.54,0c0.6,0,1.199,0,1.8,0
			c0.12,0,0.24,0,0.359,0c0.181,0,0.36,0,0.54,0c0.12,0,0.24,0,0.36,0c0.18,0,0.36,0,0.54,0s0.36,0,0.54,0c0,0.24,0,0.48,0,0.72
			c0,0.18,0,0.36,0,0.54c0,0.18,0,0.36,0,0.54c0,0.18,0,0.36,0,0.54c0,0.18,0,0.36,0,0.54s0,0.36,0,0.54c0,0.42,0,0.84,0,1.26
			c-1.56,0-3.12,0-4.68,0c0,0.18,0,0.36,0,0.54c0,0.18,0,0.36,0,0.54c0,0.12,0,0.24,0,0.36c0,0.18,0,0.36,0,0.54
			c0,0.12,0,0.24,0,0.36c0,0.18,0,0.36,0,0.54c0,0.12,0,0.24,0,0.36c0,0.18,0,0.36,0,0.54c0,0.12,0,0.24,0,0.36
			c0,0.18,0,0.36,0,0.54c-0.42,0-0.84,0-1.261,0c-0.18,0-0.359,0-0.54,0c-0.18,0-0.359,0-0.539,0c-0.24,0-0.48,0-0.721,0
			c-0.18,0-0.359,0-0.54,0c-0.18,0-0.359,0-0.54,0c-0.12,0-0.239,0-0.359,0c-0.061,0-0.12,0-0.181,0c-0.06,0-0.12,0-0.18,0
			c0,0.18,0,0.36,0,0.54c0,0.12,0,0.24,0,0.36c0,0.18,0,0.36,0,0.54c0,0.12,0,0.24,0,0.36c0,0.18,0,0.36,0,0.54
			c0,0.12,0,0.24,0,0.36c0,0.18,0,0.36,0,0.54c0,0.12,0,0.24,0,0.36c0,1.14,0,2.28,0,3.42c0,2.34,0,4.68,0,7.02
			c1.62,0,3.24,0,4.86,0c0,1.62,0,3.24,0,4.86c1.56,0,3.12,0,4.68,0c0,0.42,0,0.84,0,1.26c0,0.18,0,0.36,0,0.54s0,0.36,0,0.54
			c0,0.24,0,0.479,0,0.72c0,0.18,0,0.36,0,0.54s0,0.36,0,0.54s0,0.36,0,0.54c0,0.24,0,0.48,0,0.72c0,0.181,0,0.36,0,0.54
			c0,0.181,0,0.36,0,0.54c0,0.181,0,0.36,0,0.54c0,0.24,0,0.48,0,0.72c0,0.181,0,0.36,0,0.54c0,0.36,0,0.721,0,1.08
			c-0.18,0-0.36,0-0.54,0c-0.12,0-0.24,0-0.36,0c-0.18,0-0.359,0-0.54,0c-0.119,0-0.239,0-0.359,0c-0.601,0-1.2,0-1.8,0
			c-1.2,0-2.4,0-3.601,0c-2.34,0-4.68,0-7.02,0s-4.681,0-7.021,0c-0.18,0-0.359,0-0.54,0c-0.12,0-0.239,0-0.359,0
			c-0.181,0-0.36,0-0.54,0c-0.12,0-0.24,0-0.36,0c-0.6,0-1.2,0-1.8,0c-1.14,0-2.28,0-3.42,0c0-0.779,0-1.56,0-2.34
			c0-0.359,0-0.72,0-1.08c0-0.18,0-0.359,0-0.54c0-0.239,0-0.479,0-0.72c-0.18,0-0.36,0-0.54,0c-0.72,0-1.44,0-2.16,0
			c-0.18,0-0.36,0-0.54,0s-0.36,0-0.54,0s-0.36,0-0.54,0c-0.12,0-0.24,0-0.36,0c-0.36,0-0.72,0-1.08,0c-0.18,0-0.36,0-0.54,0
			c-0.24,0-0.48,0-0.72,0c-0.18,0-0.36,0-0.54,0c-0.18,0-0.36,0-0.54,0c-0.42,0-0.84,0-1.26,0c0-0.78,0-1.56,0-2.34s0-1.561,0-2.34
			c0-1.62,0-3.24,0-4.86c0.24,0,0.48,0,0.72,0c0.18,0,0.36,0,0.54,0c0.36,0,0.72,0,1.08,0c0.42,0,0.84,0,1.26,0
			c0.36,0,0.72,0,1.08,0c0,1.62,0,3.24,0,4.86c2.34,0,4.68,0,7.02,0c0.18,0,0.36,0,0.54,0c0.12,0,0.24,0,0.36,0
			c0.18,0,0.36,0,0.54,0c0.12,0,0.24,0,0.36,0c0.18,0,0.36,0,0.54,0c0.12,0,0.24,0,0.36,0c0.18,0,0.359,0,0.54,0
			c0.12,0,0.239,0,0.359,0c1.141,0,2.28,0,3.42,0c0-0.84,0-1.68,0-2.521c0-0.78,0-1.56,0-2.34c1.561,0,3.12,0,4.681,0
			c0-2.34,0-4.68,0-7.02s0-4.68,0-7.02c-0.42,0-0.84,0-1.261,0c-0.18,0-0.359,0-0.539,0c-0.181,0-0.36,0-0.54,0
			c-0.24,0-0.48,0-0.721,0c-0.18,0-0.359,0-0.54,0c-0.18,0-0.359,0-0.54,0c-0.18,0-0.359,0-0.54,0c0-0.78,0-1.56,0-2.34
			c0-0.36,0-0.72,0-1.08c0-0.18,0-0.36,0-0.54c0-0.24,0-0.48,0-0.72c-0.18,0-0.359,0-0.54,0c-0.119,0-0.239,0-0.359,0
			c-0.181,0-0.36,0-0.54,0c-0.12,0-0.24,0-0.36,0c-0.6,0-1.2,0-1.8,0c-1.14,0-2.28,0-3.42,0c-0.18,0-0.36,0-0.54,0
			c-0.12,0-0.24,0-0.36,0c-0.18,0-0.36,0-0.54,0c-0.12,0-0.24,0-0.36,0c-0.6,0-1.2,0-1.8,0c-1.14,0-2.28,0-3.42,0
			c0,0.42,0,0.84,0,1.26c0,0.18,0,0.36,0,0.54s0,0.36,0,0.54c0,0.24,0,0.48,0,0.72c0,0.18,0,0.36,0,0.54c0,0.36,0,0.72,0,1.08
			c-0.42,0-0.84,0-1.26,0c-0.18,0-0.36,0-0.54,0c-0.18,0-0.36,0-0.54,0c-0.18,0-0.36,0-0.54,0c-0.18,0-0.36,0-0.54,0
			c-0.18,0-0.36,0-0.54,0c-0.12,0-0.24,0-0.36,0c-0.06,0-0.12,0-0.18,0s-0.12,0-0.18,0c0,0.18,0,0.36,0,0.54c0,0.12,0,0.24,0,0.36
			c0,0.18,0,0.36,0,0.54c0,0.12,0,0.24,0,0.36c0,0.18,0,0.36,0,0.54c0,0.12,0,0.24,0,0.36c0,0.18,0,0.36,0,0.54
			c0,0.12,0,0.24,0,0.36c0,1.14,0,2.28,0,3.42c0,2.34,0,4.68,0,7.02c-0.36,0-0.72,0-1.08,0c-0.42,0-0.84,0-1.26,0
			c-0.78,0-1.56,0-2.34,0c0-1.5,0-3,0-4.5s0-3,0-4.5s0-3,0-4.5c0-0.36,0-0.72,0-1.08c0-0.42,0-0.84,0-1.26c0-0.36,0-0.72,0-1.08
			c0-0.18,0-0.36,0-0.54C23.83,38.89,23.83,38.65,23.83,38.41z"/>
		<path fill="#BA6A5B" d="M24.01,89.53c0.06,0,0.12,0,0.18,0c0.12,0,0.24,0,0.36,0c0.18,0,0.36,0,0.54,0s0.36,0,0.54,0
			s0.36,0,0.54,0s0.36,0,0.54,0c0.18,0,0.36,0,0.54,0c0.42,0,0.84,0,1.26,0c0,0.06,0,0.119,0,0.18c0,0.42,0,0.84,0,1.26
			c0,0.18,0,0.36,0,0.54s0,0.36,0,0.54c0,0.78,0,1.561,0,2.34c0,1.5,0,3,0,4.5c-0.78,0-1.56,0-2.34,0c-0.78,0-1.56,0-2.34,0
			c0-1.439,0-2.88,0-4.319c0-1.5,0-3,0-4.5c0-0.181,0-0.36,0-0.54C23.89,89.53,23.95,89.53,24.01,89.53z"/>
		<path fill="#D97761" d="M14.29,113.11c0.36,0,0.72,0,1.08,0c0.42,0,0.84,0,1.26,0c0.18,0,0.36,0,0.54,0s0.36,0,0.54,0
			c0.18,0,0.36,0,0.54,0c0.24,0,0.48,0,0.72,0c0-1.561,0-3.12,0-4.681c0.78,0,1.56,0,2.34,0c0.84,0,1.68,0,2.52,0
			c0,2.94,0,5.88,0,8.82c0,0.18,0,0.36,0,0.54c-0.06,0-0.12,0-0.18,0s-0.12,0-0.18,0c-0.12,0-0.24,0-0.36,0c-0.18,0-0.36,0-0.54,0
			s-0.36,0-0.54,0c-0.24,0-0.48,0-0.72,0c-0.18,0-0.36,0-0.54,0c-0.18,0-0.36,0-0.54,0c-0.18,0-0.36,0-0.54,0c-0.24,0-0.48,0-0.72,0
			c-0.18,0-0.36,0-0.54,0c-0.18,0-0.36,0-0.54,0c-0.18,0-0.36,0-0.54,0c-0.24,0-0.48,0-0.72,0c-0.78,0-1.56,0-2.34,0
			C14.29,116.229,14.29,114.67,14.29,113.11z"/>
		<path fill="#BA6A5B" d="M23.83,98.89c0,3.181,0,6.36,0,9.54c-0.84,0-1.68,0-2.52,0c-0.78,0-1.56,0-2.34,0c0-1.5,0-3,0-4.5
			s0-3,0-4.5c0-0.18,0-0.359,0-0.54c0.06,0,0.12,0,0.18,0s0.12,0,0.18,0c0.12,0,0.24,0,0.36,0c0.18,0,0.36,0,0.54,0
			c0.42,0,0.84,0,1.26,0C22.27,98.89,23.05,98.89,23.83,98.89z"/>
		<path fill="#D97761" d="M16.63,23.83c-0.78,0-1.56,0-2.34,0c0-0.36,0-0.72,0-1.08c0-0.18,0-0.36,0-0.54c0-0.24,0-0.48,0-0.72
			c0-0.84,0-1.68,0-2.52c0.36,0,0.72,0,1.08,0c0.18,0,0.36,0,0.54,0c0.24,0,0.48,0,0.72,0c0.78,0,1.56,0,2.34,0
			c0,0.18,0,0.36,0,0.54c0,1.26,0,2.52,0,3.78c0,0.18,0,0.36,0,0.54c-0.06,0-0.12,0-0.18,0C18.07,23.83,17.35,23.83,16.63,23.83z"/>
		<path fill="#BA6A5B" d="M9.61,108.43c0.18,0,0.36,0,0.54,0s0.36,0,0.54,0c0.42,0,0.84,0,1.26,0c0.78,0,1.56,0,2.34,0
			c0.36,0,0.72,0,1.08,0c0.42,0,0.84,0,1.26,0c0.78,0,1.56,0,2.34,0c0,1.561,0,3.12,0,4.681c-0.24,0-0.48,0-0.72,0
			c-0.18,0-0.36,0-0.54,0c-0.18,0-0.36,0-0.54,0s-0.36,0-0.54,0c-0.42,0-0.84,0-1.26,0c-0.36,0-0.72,0-1.08,0c-0.24,0-0.48,0-0.72,0
			c-0.18,0-0.36,0-0.54,0c-0.36,0-0.72,0-1.08,0c-0.42,0-0.84,0-1.26,0c-0.18,0-0.36,0-0.54,0s-0.36,0-0.54,0
			C9.61,111.55,9.61,109.99,9.61,108.43z"/>
		<path fill="#311531" d="M14.29,113.11c0,1.56,0,3.119,0,4.68c0,2.34,0,4.68,0,7.02s0,4.681,0,7.021c-1.38,0-2.76,0-4.14,0
			c-0.18,0-0.36,0-0.54,0c0-0.24,0-0.48,0-0.72c0-0.181,0-0.36,0-0.54c0-0.36,0-0.721,0-1.08c0-0.78,0-1.561,0-2.341
			c0-0.779,0-1.56,0-2.34c0-0.779,0-1.56,0-2.34c0-1.56,0-3.12,0-4.68c0-1.561,0-3.12,0-4.68c0.18,0,0.36,0,0.54,0s0.36,0,0.54,0
			c0.42,0,0.84,0,1.26,0c0.36,0,0.72,0,1.08,0c0.18,0,0.36,0,0.54,0C13.81,113.11,14.05,113.11,14.29,113.11z"/>
		<path fill="#E0B49C" d="M9.61,84.85c0.42,0,0.84,0,1.26,0c0.18,0,0.36,0,0.54,0c0.18,0,0.36,0,0.54,0c0.18,0,0.36,0,0.54,0
			c0.18,0,0.36,0,0.54,0c0.18,0,0.36,0,0.54,0c0.12,0,0.24,0,0.36,0c0.06,0,0.12,0,0.18,0s0.12,0,0.18,0c0-0.18,0-0.359,0-0.54
			c0-0.12,0-0.239,0-0.359c0-0.181,0-0.36,0-0.54c0-0.12,0-0.24,0-0.36c0-0.18,0-0.36,0-0.54c0-0.12,0-0.24,0-0.36
			c0-0.18,0-0.359,0-0.539c0-0.12,0-0.24,0-0.36c0-0.18,0-0.36,0-0.54c0-0.12,0-0.24,0-0.36c0-0.18,0-0.359,0-0.54
			c0-0.12,0-0.239,0-0.359c0-0.54,0-1.08,0-1.62c0-0.181,0-0.36,0-0.54c0-0.12,0-0.24,0-0.36c0-0.18,0-0.359,0-0.54
			c0-0.12,0-0.24,0-0.359c0-0.181,0-0.36,0-0.54c0-0.12,0-0.24,0-0.36c0-0.18,0-0.36,0-0.54c0-0.12,0-0.24,0-0.36
			c0-1.14,0-2.279,0-3.42c0-0.42,0-0.84,0-1.26c0-0.18,0-0.36,0-0.54s0-0.36,0-0.54c0-0.24,0-0.479,0-0.72c0-0.18,0-0.36,0-0.54
			c0-0.36,0-0.72,0-1.08c-0.42,0-0.84,0-1.26,0c-0.18,0-0.36,0-0.54,0c-0.18,0-0.36,0-0.54,0c-0.24,0-0.48,0-0.72,0
			c-0.18,0-0.36,0-0.54,0s-0.36,0-0.54,0s-0.36,0-0.54,0c0-1.56,0-3.12,0-4.68c0-0.84,0-1.68,0-2.521c0-0.78,0-1.56,0-2.34
			c-0.24,0-0.48,0-0.72,0c-0.18,0-0.36,0-0.54,0c-0.36,0-0.72,0-1.08,0c-0.42,0-0.84,0-1.26,0c-0.36,0-0.72,0-1.08,0
			c0-1.56,0-3.12,0-4.68c0-1.56,0-3.12,0-4.68c0-0.24,0-0.48,0-0.72c0-0.18,0-0.36,0-0.54c0-0.18,0-0.36,0-0.54
			c0-0.18,0-0.36,0-0.54c0-0.24,0-0.48,0-0.72c0-0.18,0-0.36,0-0.54s0-0.36,0-0.54s0-0.36,0-0.54c0-0.24,0-0.48,0-0.72
			c0-0.18,0-0.36,0-0.54c0-0.18,0-0.36,0-0.54c0-0.18,0-0.36,0-0.54c0-0.78,0-1.56,0-2.34c0.42,0,0.84,0,1.26,0
			c0.36,0,0.72,0,1.08,0c0.36,0,0.72,0,1.08,0c0.18,0,0.36,0,0.54,0c0.24,0,0.48,0,0.72,0c0-0.18,0-0.36,0-0.54
			c0-0.72,0-1.44,0-2.16c0-0.36,0-0.72,0-1.08c0-0.18,0-0.36,0-0.54c0-0.12,0-0.24,0-0.36c0-0.78,0-1.56,0-2.34
			c0-0.78,0-1.56,0-2.34c0.78,0,1.56,0,2.34,0c0.72,0,1.44,0,2.16,0c0.06,0,0.12,0,0.18,0c0-0.18,0-0.36,0-0.54
			c0-0.72,0-1.44,0-2.16c0-0.66,0-1.32,0-1.98c0.78,0,1.56,0,2.34,0c0.72,0,1.44,0,2.16,0c0.06,0,0.12,0,0.18,0
			c0-0.18,0-0.36,0-0.54c0-1.26,0-2.52,0-3.78c0-0.18,0-0.36,0-0.54c-0.78,0-1.56,0-2.34,0c-0.24,0-0.48,0-0.72,0
			c-0.18,0-0.36,0-0.54,0c-0.36,0-0.72,0-1.08,0c-0.78,0-1.56,0-2.34,0c-0.24,0-0.48,0-0.72,0c-0.18,0-0.36,0-0.54,0s-0.36,0-0.54,0
			s-0.36,0-0.54,0c0-1.14,0-2.28,0-3.42s0-2.28,0-3.42s0-2.28,0-3.42c0-0.6,0-1.2,0-1.8c0-0.12,0-0.24,0-0.36c0-0.18,0-0.36,0-0.54
			c0-0.12,0-0.24,0-0.36c0-0.24,0-0.48,0-0.72c0.54,0,1.08,0,1.62,0c0.12,0,0.24,0,0.36,0c0.18,0,0.36,0,0.54,0c0.3,0,0.6,0,0.9,0
			c1.2,0,2.4,0,3.6,0c0.12,0,0.24,0,0.36,0c0.18,0,0.36,0,0.54,0c0.12,0,0.24,0,0.36,0c0.18,0,0.36,0,0.54,0c0.12,0,0.24,0,0.36,0
			c0.18,0,0.36,0,0.54,0c0.12,0,0.24,0,0.36,0c0.18,0,0.36,0,0.54,0c1.2,0,2.4,0,3.6,0c0,0.24,0,0.48,0,0.72c0,0.18,0,0.36,0,0.54
			c0,0.36,0,0.72,0,1.08c0,0.36,0,0.72,0,1.08c0,0.18,0,0.36,0,0.54c0,0.24,0,0.48,0,0.72c0.18,0,0.36,0,0.54,0
			c2.76,0,5.52,0,8.28,0c0.18,0,0.36,0,0.54,0c0,0.42,0,0.84,0,1.26c0,0.18,0,0.36,0,0.54c0,0.18,0,0.36,0,0.54
			c0,0.24,0,0.48,0,0.72c0,0.18,0,0.36,0,0.54c0,0.36,0,0.72,0,1.08c-0.78,0-1.56,0-2.34,0c-0.18,0-0.36,0-0.54,0
			c-0.18,0-0.36,0-0.54,0c-0.18,0-0.36,0-0.54,0c-0.24,0-0.48,0-0.72,0c0,0.18,0,0.36,0,0.54c0,0.18,0,0.36,0,0.54
			c0,0.12,0,0.24,0,0.36c0,0.18,0,0.36,0,0.54c0,0.12,0,0.24,0,0.36c0,0.18,0,0.36,0,0.54c0,0.12,0,0.24,0,0.36
			c0,0.18,0,0.36,0,0.54c0,0.12,0,0.24,0,0.36c0,0.18,0,0.36,0,0.54c0.18,0,0.36,0,0.54,0c1.14,0,2.28,0,3.42,0
			c1.14,0,2.28,0,3.42,0c2.22,0,4.44,0,6.66,0c0,0.42,0,0.84,0,1.26c0,0.18,0,0.36,0,0.54c0,0.18,0,0.36,0,0.54
			c0,0.24,0,0.48,0,0.72c0,0.18,0,0.36,0,0.54s0,0.36,0,0.54c0,0.12,0,0.24,0,0.36c0,0.06,0,0.12,0,0.18s0,0.12,0,0.18
			c0.18,0,0.36,0,0.54,0s0.36,0,0.54,0c0.12,0,0.24,0,0.36,0c0.18,0,0.359,0,0.54,0c0.119,0,0.239,0,0.359,0c0.181,0,0.36,0,0.54,0
			c0.12,0,0.24,0,0.36,0c0.18,0,0.359,0,0.54,0c0.12,0,0.24,0,0.359,0c0.181,0,0.36,0,0.54,0c0,0.78,0,1.56,0,2.34
			c0,0.42,0,0.84,0,1.26c0,0.36,0,0.72,0,1.08c-0.3,0-0.6,0-0.899,0c-0.181,0-0.36,0-0.54,0c-0.12,0-0.24,0-0.36,0
			c-0.18,0-0.359,0-0.54,0c-0.12,0-0.24,0-0.359,0c-0.181,0-0.36,0-0.54,0c-0.12,0-0.24,0-0.36,0c-1.14,0-2.28,0-3.42,0
			c-0.18,0-0.36,0-0.54,0c-0.12,0-0.24,0-0.36,0c-0.18,0-0.36,0-0.54,0c-0.12,0-0.24,0-0.36,0c-0.18,0-0.36,0-0.54,0
			c-0.12,0-0.24,0-0.36,0c-0.18,0-0.36,0-0.54,0c-0.12,0-0.24,0-0.36,0c-1.14,0-2.28,0-3.42,0c0,0.42,0,0.84,0,1.26
			c0,0.18,0,0.36,0,0.54c0,0.18,0,0.36,0,0.54c0,0.24,0,0.48,0,0.72c0,0.18,0,0.36,0,0.54c0,0.36,0,0.72,0,1.08
			c-0.42,0-0.84,0-1.26,0c-0.18,0-0.36,0-0.54,0c-0.18,0-0.36,0-0.54,0c-0.18,0-0.36,0-0.54,0c-0.18,0-0.36,0-0.54,0
			c-0.18,0-0.36,0-0.54,0c-0.24,0-0.48,0-0.72,0c0,0.18,0,0.36,0,0.54c0,0.18,0,0.36,0,0.54c0,0.12,0,0.24,0,0.36
			c0,0.18,0,0.36,0,0.54c0,0.12,0,0.24,0,0.36c0,0.18,0,0.36,0,0.54c0,0.12,0,0.24,0,0.36c0,0.18,0,0.36,0,0.54
			c0,0.12,0,0.24,0,0.36c0,0.18,0,0.36,0,0.54c-0.78,0-1.56,0-2.34,0c-0.36,0-0.72,0-1.08,0c-0.18,0-0.36,0-0.54,0
			c-0.24,0-0.48,0-0.72,0c0,0.18,0,0.36,0,0.54c0,0.24,0,0.48,0,0.72c0,0.18,0,0.36,0,0.54c0,0.36,0,0.72,0,1.08
			c0,0.42,0,0.84,0,1.26c0,0.36,0,0.72,0,1.08c0,1.5,0,3,0,4.5s0,3,0,4.5s0,3,0,4.5c0.78,0,1.56,0,2.34,0c0.42,0,0.84,0,1.26,0
			c0.36,0,0.72,0,1.08,0c0,1.62,0,3.24,0,4.86c0,0.779,0,1.56,0,2.34s0,1.56,0,2.34c0.42,0,0.84,0,1.26,0c0.18,0,0.36,0,0.54,0
			c0.18,0,0.36,0,0.54,0c0.24,0,0.48,0,0.72,0c0.18,0,0.36,0,0.54,0c0.36,0,0.72,0,1.08,0c0,0.42,0,0.84,0,1.26
			c0,0.181,0,0.36,0,0.54c0,0.181,0,0.36,0,0.54s0,0.36,0,0.54s0,0.36,0,0.54s0,0.36,0,0.54c0,0.24,0,0.48,0,0.72
			c0.18,0,0.36,0,0.54,0c0.72,0,1.44,0,2.16,0c0.36,0,0.72,0,1.08,0c0.18,0,0.36,0,0.54,0c0.12,0,0.24,0,0.36,0
			c0,0.78,0,1.561,0,2.34c0,0.36,0,0.721,0,1.08c0,0.181,0,0.36,0,0.54c0,0.24,0,0.48,0,0.721c0.18,0,0.36,0,0.54,0
			c0.36,0,0.72,0,1.08,0c0.18,0,0.36,0,0.54,0c0.18,0,0.36,0,0.54,0c0.36,0,0.72,0,1.08,0c0.181,0,0.36,0,0.54,0
			c0.12,0,0.24,0,0.36,0c0,0.42,0,0.84,0,1.26c0,0.18,0,0.36,0,0.54s0,0.359,0,0.54c0,0.24,0,0.479,0,0.72c0,0.18,0,0.36,0,0.54
			s0,0.36,0,0.54s0,0.36,0,0.54c-0.42,0-0.84,0-1.26,0c-0.18,0-0.36,0-0.54,0c-0.18,0-0.36,0-0.54,0c-0.36,0-0.72,0-1.08,0
			c-0.18,0-0.36,0-0.54,0c-0.12,0-0.24,0-0.36,0c-0.06,0-0.12,0-0.18,0s-0.12,0-0.18,0c0,0.18,0,0.36,0,0.54c0,0.36,0,0.72,0,1.08
			c0,0.18,0,0.359,0,0.54c0,0.18,0,0.359,0,0.54c0,0.359,0,0.72,0,1.08c0,0.18,0,0.359,0,0.54c0,0.12,0,0.239,0,0.359
			c0,0.36,0,0.721,0,1.08c0,0.181,0,0.36,0,0.54s0,0.36,0,0.54c0,0.36,0,0.72,0,1.08c0,0.18,0,0.36,0,0.54c0,0.12,0,0.24,0,0.36
			c0,0.18,0,0.359,0,0.54c-0.42,0-0.84,0-1.26,0c-0.18,0-0.36,0-0.54,0s-0.36,0-0.54,0c-0.24,0-0.48,0-0.72,0c-0.18,0-0.36,0-0.54,0
			c-0.18,0-0.36,0-0.54,0c-0.18,0-0.36,0-0.54,0c0-0.42,0-0.841,0-1.261c0-0.18,0-0.359,0-0.54c0-0.18,0-0.359,0-0.54
			c0-0.239,0-0.479,0-0.72c0-0.18,0-0.359,0-0.54c0-0.18,0-0.359,0-0.54c0-0.18,0-0.359,0-0.54c0-0.239,0-0.479,0-0.72
			c0-0.18,0-0.36,0-0.54s0-0.36,0-0.54s0-0.36,0-0.54s0-0.36,0-0.54s0-0.359,0-0.54c0-0.18,0-0.359,0-0.54c0-0.24,0-0.479,0-0.72
			c-0.18,0-0.36,0-0.54,0s-0.36,0-0.54,0c-0.12,0-0.24,0-0.36,0c-0.18,0-0.36,0-0.54,0c-0.12,0-0.24,0-0.36,0c-0.18,0-0.36,0-0.54,0
			c-0.12,0-0.24,0-0.36,0c-0.18,0-0.36,0-0.54,0c-0.12,0-0.24,0-0.36,0c-0.18,0-0.36,0-0.54,0c0,0.78,0,1.56,0,2.34
			c0,0.42,0,0.84,0,1.26c0,0.36,0,0.721,0,1.08c0,0.42,0,0.84,0,1.261c0,0.359,0,0.72,0,1.079c0,0.421,0,0.841,0,1.261
			c0,0.18,0,0.359,0,0.54c0,0.18,0,0.359,0,0.54c-0.42,0-0.84,0-1.26,0c-0.18,0-0.36,0-0.54,0c-0.18,0-0.36,0-0.54,0s-0.36,0-0.54,0
			s-0.36,0-0.54,0s-0.36,0-0.54,0c-0.12,0-0.24,0-0.36,0c-0.06,0-0.12,0-0.18,0s-0.12,0-0.18,0c0,0.18,0,0.359,0,0.54
			c0,1.5,0,3,0,4.5c0,1.439,0,2.88,0,4.319c-0.78,0-1.56,0-2.34,0c-0.42,0-0.84,0-1.26,0c-0.18,0-0.36,0-0.54,0
			c-0.12,0-0.24,0-0.36,0c-0.06,0-0.12,0-0.18,0s-0.12,0-0.18,0c0,0.181,0,0.36,0,0.54c0,1.5,0,3,0,4.5s0,3,0,4.5
			c-0.78,0-1.56,0-2.34,0c-0.42,0-0.84,0-1.26,0c-0.36,0-0.72,0-1.08,0c-0.78,0-1.56,0-2.34,0c-0.42,0-0.84,0-1.26,0
			c-0.18,0-0.36,0-0.54,0s-0.36,0-0.54,0c-0.24,0-0.48,0-0.72,0c-0.18,0-0.36,0-0.54,0c-0.36,0-0.72,0-1.08,0c-0.42,0-0.84,0-1.26,0
			c-0.36,0-0.72,0-1.08,0c0-1.2,0-2.399,0-3.6s0-2.4,0-3.601c0-1.199,0-2.399,0-3.6c0-1.14,0-2.28,0-3.42c0.42,0,0.84,0,1.26,0
			c0.36,0,0.72,0,1.08,0c0.36,0,0.72,0,1.08,0c0.18,0,0.36,0,0.54,0c0.24,0,0.48,0,0.72,0c0-0.18,0-0.36,0-0.54c0-1.5,0-3,0-4.5
			C9.61,87.729,9.61,86.29,9.61,84.85z"/>
		<path fill="#D97761" d="M14.29,25.81c0,0.72,0,1.44,0,2.16c0,0.18,0,0.36,0,0.54c-0.06,0-0.12,0-0.18,0c-0.72,0-1.44,0-2.16,0
			c-0.78,0-1.56,0-2.34,0c0-0.72,0-1.44,0-2.16c0-0.36,0-0.72,0-1.08c0-0.18,0-0.36,0-0.54c0-0.24,0-0.48,0-0.72
			c0-0.06,0-0.12,0-0.18c0.18,0,0.36,0,0.54,0s0.36,0,0.54,0c0.42,0,0.84,0,1.26,0c0.78,0,1.56,0,2.34,0
			C14.29,24.49,14.29,25.15,14.29,25.81z"/>
		<path fill="#311531" d="M9.61,71.35c0-0.18,0-0.359,0-0.54c0.18,0,0.36,0,0.54,0s0.36,0,0.54,0c0.42,0,0.84,0,1.26,0
			c0.78,0,1.56,0,2.34,0c0,1.141,0,2.28,0,3.42c0,0.12,0,0.24,0,0.36c0,0.18,0,0.36,0,0.54c0,0.12,0,0.24,0,0.36
			c0,0.18,0,0.359,0,0.54c0,0.119,0,0.239,0,0.359c0,0.181,0,0.36,0,0.54c0,0.12,0,0.24,0,0.36c0,0.18,0,0.359,0,0.54
			c0,0.54,0,1.08,0,1.62c0,0.12,0,0.239,0,0.359c0,0.181,0,0.36,0,0.54c0,0.12,0,0.24,0,0.36c0,0.18,0,0.36,0,0.54
			c0,0.12,0,0.24,0,0.36c0,0.18,0,0.359,0,0.539c0,0.12,0,0.24,0,0.36c0,0.18,0,0.36,0,0.54c0,0.12,0,0.24,0,0.36
			c0,0.18,0,0.359,0,0.54c0,0.12,0,0.239,0,0.359c0,0.181,0,0.36,0,0.54c-0.06,0-0.12,0-0.18,0s-0.12,0-0.18,0
			c-0.12,0-0.24,0-0.36,0c-0.18,0-0.36,0-0.54,0c-0.18,0-0.36,0-0.54,0c-0.18,0-0.36,0-0.54,0c-0.18,0-0.36,0-0.54,0
			c-0.18,0-0.36,0-0.54,0c-0.42,0-0.84,0-1.26,0c0-1.14,0-2.279,0-3.42c0-0.12,0-0.24,0-0.359c0-0.181,0-0.36,0-0.54
			c0-0.12,0-0.24,0-0.36c0-0.18,0-0.36,0-0.54c0-0.12,0-0.24,0-0.36c0-0.18,0-0.359,0-0.54c0-0.119,0-0.239,0-0.359
			c0-0.181,0-0.36,0-0.54c0-1.141,0-2.28,0-3.42c0-0.12,0-0.24,0-0.36c0-0.18,0-0.36,0-0.54c0-0.12,0-0.24,0-0.36
			c0-0.18,0-0.359,0-0.539c0-0.12,0-0.24,0-0.36c0-0.18,0-0.36,0-0.54C9.61,71.59,9.61,71.47,9.61,71.35z"/>
		<path fill="#311531" d="M9.61,0.43c0-0.06,0-0.12,0-0.18c0.24,0,0.48,0,0.72,0c0.12,0,0.24,0,0.36,0c0.18,0,0.36,0,0.54,0
			c0.12,0,0.24,0,0.36,0c0.6,0,1.2,0,1.8,0c1.14,0,2.28,0,3.42,0c0.18,0,0.36,0,0.54,0c0.12,0,0.24,0,0.36,0c0.18,0,0.36,0,0.54,0
			c0.12,0,0.24,0,0.36,0c0.6,0,1.2,0,1.8,0c1.14,0,2.28,0,3.42,0c0,0.24,0,0.48,0,0.72c0,0.18,0,0.36,0,0.54c0,0.36,0,0.72,0,1.08
			c0,0.42,0,0.84,0,1.26c0,0.36,0,0.72,0,1.08c-1.2,0-2.4,0-3.6,0c-0.18,0-0.36,0-0.54,0c-0.12,0-0.24,0-0.36,0
			c-0.18,0-0.36,0-0.54,0c-0.12,0-0.24,0-0.36,0c-0.18,0-0.36,0-0.54,0c-0.12,0-0.24,0-0.36,0c-0.18,0-0.36,0-0.54,0
			c-0.12,0-0.24,0-0.36,0c-1.2,0-2.4,0-3.6,0c-0.3,0-0.6,0-0.9,0c-0.18,0-0.36,0-0.54,0c-0.12,0-0.24,0-0.36,0
			c-0.54,0-1.08,0-1.62,0c0-0.36,0-0.72,0-1.08c0-0.36,0-0.72,0-1.08c0-0.36,0-0.72,0-1.08c0-0.18,0-0.36,0-0.54
			C9.61,0.91,9.61,0.67,9.61,0.43z"/>
		<path fill="#311531" d="M9.61,21.49c0-0.84,0-1.68,0-2.52c0.18,0,0.36,0,0.54,0s0.36,0,0.54,0s0.36,0,0.54,0c0.24,0,0.48,0,0.72,0
			c0.78,0,1.56,0,2.34,0c0,0.84,0,1.68,0,2.52c0,0.24,0,0.48,0,0.72c0,0.18,0,0.36,0,0.54c0,0.36,0,0.72,0,1.08
			c-0.78,0-1.56,0-2.34,0c-0.42,0-0.84,0-1.26,0c-0.18,0-0.36,0-0.54,0s-0.36,0-0.54,0c0-0.36,0-0.72,0-1.08c0-0.18,0-0.36,0-0.54
			C9.61,21.97,9.61,21.73,9.61,21.49z"/>
		<path fill="#D97761" d="M9.61,66.13c0.18,0,0.36,0,0.54,0s0.36,0,0.54,0s0.36,0,0.54,0c0.24,0,0.48,0,0.72,0c0.18,0,0.36,0,0.54,0
			c0.18,0,0.36,0,0.54,0c0.42,0,0.84,0,1.26,0c0,0.36,0,0.72,0,1.08c0,0.18,0,0.36,0,0.54c0,0.24,0,0.479,0,0.72
			c0,0.18,0,0.36,0,0.54s0,0.36,0,0.54c0,0.42,0,0.84,0,1.26c-0.78,0-1.56,0-2.34,0c-0.42,0-0.84,0-1.26,0c-0.18,0-0.36,0-0.54,0
			s-0.36,0-0.54,0c0-0.779,0-1.56,0-2.34S9.61,66.91,9.61,66.13z"/>
		<path fill="#D97761" d="M9.61,58.93c0,0.84,0,1.68,0,2.521c-0.42,0-0.84,0-1.26,0c-0.36,0-0.72,0-1.08,0c-0.42,0-0.84,0-1.26,0
			c-0.36,0-0.72,0-1.08,0c0-1.62,0-3.24,0-4.86c0.36,0,0.72,0,1.08,0c0.42,0,0.84,0,1.26,0c0.36,0,0.72,0,1.08,0
			c0.18,0,0.36,0,0.54,0c0.24,0,0.48,0,0.72,0C9.61,57.37,9.61,58.15,9.61,58.93z"/>
		<path fill="#311531" d="M7.27,23.83c0.78,0,1.56,0,2.34,0c0,0.06,0,0.12,0,0.18c0,0.24,0,0.48,0,0.72c0,0.18,0,0.36,0,0.54
			c0,0.36,0,0.72,0,1.08c0,0.72,0,1.44,0,2.16c0,0.78,0,1.56,0,2.34c0,0.78,0,1.56,0,2.34c-0.42,0-0.84,0-1.26,0
			c-0.18,0-0.36,0-0.54,0c-0.18,0-0.36,0-0.54,0c-0.24,0-0.48,0-0.72,0c-0.18,0-0.36,0-0.54,0c-0.36,0-0.72,0-1.08,0
			c0-1.44,0-2.88,0-4.32c0-1.5,0-3,0-4.5c0-0.18,0-0.36,0-0.54c0.06,0,0.12,0,0.18,0c0.36,0,0.72,0,1.08,0S6.91,23.83,7.27,23.83z"
			/>
		<path fill="#311531" d="M7.27,4.93c0.78,0,1.56,0,2.34,0c0,0.24,0,0.48,0,0.72c0,0.12,0,0.24,0,0.36c0,0.18,0,0.36,0,0.54
			c0,0.12,0,0.24,0,0.36c0,0.6,0,1.2,0,1.8c0,1.14,0,2.28,0,3.42s0,2.28,0,3.42s0,2.28,0,3.42c-0.36,0-0.72,0-1.08,0
			c-0.18,0-0.36,0-0.54,0c-0.24,0-0.48,0-0.72,0c-0.78,0-1.56,0-2.34,0c0-1.14,0-2.28,0-3.42c0-0.12,0-0.24,0-0.36
			c0-0.18,0-0.36,0-0.54c0-0.3,0-0.6,0-0.9c0-0.6,0-1.2,0-1.8c0-1.14,0-2.28,0-3.42c0-0.6,0-1.2,0-1.8c0-0.12,0-0.24,0-0.36
			c0-0.18,0-0.36,0-0.54c0-0.12,0-0.24,0-0.36c0-0.18,0-0.36,0-0.54c0.06,0,0.12,0,0.18,0c0.36,0,0.72,0,1.08,0S6.91,4.93,7.27,4.93
			z"/>
		<path fill="#311531" d="M9.61,61.45c0,1.56,0,3.12,0,4.68c0,0.78,0,1.56,0,2.34s0,1.561,0,2.34c-0.36,0-0.72,0-1.08,0
			c-0.42,0-0.84,0-1.26,0c-0.78,0-1.56,0-2.34,0c0-0.779,0-1.56,0-2.34s0-1.56,0-2.34s0-1.56,0-2.34s0-1.561,0-2.34
			c0.36,0,0.72,0,1.08,0c0.42,0,0.84,0,1.26,0c0.36,0,0.72,0,1.08,0C8.77,61.45,9.19,61.45,9.61,61.45z"/>
		<path fill="#311531" d="M4.93,108.43c0.36,0,0.72,0,1.08,0c0.42,0,0.84,0,1.26,0c0.36,0,0.72,0,1.08,0c0.18,0,0.36,0,0.54,0
			c0.24,0,0.48,0,0.72,0c0,1.561,0,3.12,0,4.681c-0.66,0-1.32,0-1.98,0c-0.72,0-1.44,0-2.16,0c-0.18,0-0.36,0-0.54,0
			C4.93,111.55,4.93,109.99,4.93,108.43z"/>
		<path fill="#D97761" d="M9.61,33.19c0,0.12,0,0.24,0,0.36c0,0.18,0,0.36,0,0.54c0,0.36,0,0.72,0,1.08c0,0.72,0,1.44,0,2.16
			c0,0.18,0,0.36,0,0.54c-0.24,0-0.48,0-0.72,0c-0.18,0-0.36,0-0.54,0c-0.36,0-0.72,0-1.08,0c-0.36,0-0.72,0-1.08,0
			c-0.42,0-0.84,0-1.26,0c0-0.36,0-0.72,0-1.08c0-0.18,0-0.36,0-0.54c0-0.24,0-0.48,0-0.72c0-0.36,0-0.72,0-1.08
			c0-0.42,0-0.84,0-1.26c0.36,0,0.72,0,1.08,0c0.18,0,0.36,0,0.54,0c0.24,0,0.48,0,0.72,0c0.18,0,0.36,0,0.54,0
			c0.18,0,0.36,0,0.54,0C8.77,33.19,9.19,33.19,9.61,33.19z"/>
		<path fill="#311531" d="M9.61,93.67c0,0.18,0,0.36,0,0.54c-0.24,0-0.48,0-0.72,0c-0.18,0-0.36,0-0.54,0c-0.36,0-0.72,0-1.08,0
			c-0.36,0-0.72,0-1.08,0c-0.42,0-0.84,0-1.26,0c0-1.44,0-2.88,0-4.32c0-1.5,0-3,0-4.5c0-0.18,0-0.359,0-0.54c0.06,0,0.12,0,0.18,0
			s0.12,0,0.18,0c0.12,0,0.24,0,0.36,0c0.18,0,0.36,0,0.54,0s0.36,0,0.54,0c0.18,0,0.36,0,0.54,0c0.18,0,0.36,0,0.54,0
			c0.18,0,0.36,0,0.54,0c0.42,0,0.84,0,1.26,0c0,1.44,0,2.88,0,4.32C9.61,90.67,9.61,92.17,9.61,93.67z"/>
		<path fill="#311531" d="M3.67,33.19c0.42,0,0.84,0,1.26,0c0,0.42,0,0.84,0,1.26c0,0.36,0,0.72,0,1.08c0,0.24,0,0.48,0,0.72
			c0,0.18,0,0.36,0,0.54c0,0.36,0,0.72,0,1.08c0,0.78,0,1.56,0,2.34c0,0.18,0,0.36,0,0.54c0,0.18,0,0.36,0,0.54
			c0,0.18,0,0.36,0,0.54c0,0.24,0,0.48,0,0.72c0,0.18,0,0.36,0,0.54s0,0.36,0,0.54s0,0.36,0,0.54c0,0.24,0,0.48,0,0.72
			c0,0.18,0,0.36,0,0.54c0,0.18,0,0.36,0,0.54c0,0.18,0,0.36,0,0.54c0,0.24,0,0.48,0,0.72c0,1.56,0,3.12,0,4.68
			c0,1.56,0,3.12,0,4.68c0,1.62,0,3.24,0,4.86c-0.42,0-0.84,0-1.26,0c-0.36,0-0.72,0-1.08,0c-0.24,0-0.48,0-0.72,0
			c-0.18,0-0.36,0-0.54,0c-0.18,0-0.36,0-0.54,0c-0.12,0-0.24,0-0.36,0c-0.06,0-0.12,0-0.18,0c0-4.62,0-9.24,0-13.86
			c0-0.3,0-0.6,0-0.9c0-0.18,0-0.36,0-0.54c0-0.12,0-0.24,0-0.36c0-0.18,0-0.36,0-0.54c0-0.12,0-0.24,0-0.36c0-0.18,0-0.36,0-0.54
			c0-0.12,0-0.24,0-0.36c0-1.14,0-2.28,0-3.42s0-2.28,0-3.42s0-2.28,0-3.42c0-0.18,0-0.36,0-0.54c0.06,0,0.12,0,0.18,0
			c0.12,0,0.24,0,0.36,0c0.18,0,0.36,0,0.54,0c0.18,0,0.36,0,0.54,0c0.24,0,0.48,0,0.72,0c0.18,0,0.36,0,0.54,0
			S3.49,33.19,3.67,33.19z"/>
		<path fill="#311531" d="M2.59,94.21c0.36,0,0.72,0,1.08,0c0.42,0,0.84,0,1.26,0c0,1.14,0,2.28,0,3.42c0,1.2,0,2.4,0,3.6
			c0,1.2,0,2.4,0,3.601s0,2.399,0,3.6c-0.36,0-0.72,0-1.08,0c-0.42,0-0.84,0-1.26,0c-0.36,0-0.72,0-1.08,0c-0.18,0-0.36,0-0.54,0
			c-0.24,0-0.48,0-0.72,0c0-4.56,0-9.12,0-13.68c0-0.18,0-0.36,0-0.54c0.06,0,0.12,0,0.18,0c0.12,0,0.24,0,0.36,0
			c0.18,0,0.36,0,0.54,0c0.18,0,0.36,0,0.54,0C2.11,94.21,2.35,94.21,2.59,94.21z"/>
	</g>
	<g>
	</g>
</g>
</svg>
