<?xml version="1.0" encoding="utf-8"?>
<!-- Generator: Adobe Illustrator 15.0.0, SVG Export Plug-In  -->
<!DOCTYPE svg PUBLIC "-//W3C//DTD SVG 1.1//EN" "http://www.w3.org/Graphics/SVG/1.1/DTD/svg11.dtd" [
	<!ENTITY ns_flows "http://ns.adobe.com/Flows/1.0/">
]>
<svg version="1.1"
	 xmlns="http://www.w3.org/2000/svg" xmlns:xlink="http://www.w3.org/1999/xlink" xmlns:a="http://ns.adobe.com/AdobeSVGViewerExtensions/3.0/"
	 x="0px" y="0px" width="100px" height="150px" viewBox="-3.336 -23.1 100 150" enable-background="new -3.336 -23.1 100 150"
	 xml:space="preserve">
<defs>
</defs>
<path fill-rule="evenodd" clip-rule="evenodd" fill="#0A1A3E" d="M32.94,4.681c-0.24,0-0.48,0-0.72,0c-0.12,0-0.24,0-0.36,0
	c-0.18,0-0.36,0-0.54,0c-0.12,0-0.24,0-0.36,0c-0.6,0-1.2,0-1.8,0c-1.14,0-2.28,0-3.42,0s-2.28,0-3.42,0s-2.28,0-3.42,0
	c0-0.36,0-0.721,0-1.08c0-0.42,0-0.84,0-1.261c0-0.779,0-1.56,0-2.34c2.22,0,4.44,0,6.66,0c1.14,0,2.28,0,3.42,0
	c1.14,0,2.28,0,3.42,0c0.18,0,0.36,0,0.54,0c0,0.12,0,0.24,0,0.36s0,0.24,0,0.36c0,0.18,0,0.359,0,0.54c0,0.119,0,0.239,0,0.359
	c0,0.181,0,0.36,0,0.54c0,0.12,0,0.24,0,0.36c0,0.18,0,0.359,0,0.54c0,0.18,0,0.359,0,0.54c0,0.18,0,0.359,0,0.54
	C32.94,4.32,32.94,4.5,32.94,4.681z"/>
<path fill-rule="evenodd" clip-rule="evenodd" fill="#0A1A3E" d="M65.88,4.681c-0.24,0-0.479,0-0.72,0c-0.12,0-0.24,0-0.36,0
	c-0.3,0-0.601,0-0.899,0c-0.601,0-1.201,0-1.801,0c-1.14,0-2.279,0-3.42,0c-0.18,0-0.359,0-0.54,0c-0.12,0-0.239,0-0.36,0
	c-0.18,0-0.359,0-0.539,0c-0.121,0-0.24,0-0.36,0c-0.601,0-1.2,0-1.8,0c-1.141,0-2.28,0-3.42,0c0-0.181,0-0.36,0-0.54
	c0-0.181,0-0.36,0-0.54c0-0.42,0-0.84,0-1.261c0-0.18,0-0.359,0-0.539c0-0.181,0-0.36,0-0.54c0-0.421,0-0.841,0-1.261
	c0.539,0,1.08,0,1.619,0c0.121,0,0.24,0,0.36,0C53.82,0,54,0,54.18,0c0.12,0,0.24,0,0.36,0c0.18,0,0.36,0,0.54,0
	c1.14,0,2.279,0,3.42,0c0.54,0,1.08,0,1.619,0c0.121,0,0.24,0,0.361,0c0.18,0,0.359,0,0.539,0c0.12,0,0.24,0,0.36,0
	c0.18,0,0.36,0,0.54,0c0.54,0,1.08,0,1.62,0c0.3,0,0.6,0,0.899,0c0.12,0,0.24,0,0.36,0c0.181,0,0.36,0,0.54,0s0.359,0,0.54,0
	c0,0.12,0,0.24,0,0.36s0,0.24,0,0.36c0,0.18,0,0.359,0,0.54c0,0.119,0,0.239,0,0.359c0,0.181,0,0.36,0,0.54c0,0.66,0,1.32,0,1.98
	C65.88,4.32,65.88,4.5,65.88,4.681z"/>
<path fill-rule="evenodd" clip-rule="evenodd" fill="#0A1A3E" d="M18.9,4.681c0,0.06,0,0.12,0,0.18c0,0.24,0,0.479,0,0.72
	c0,0.181,0,0.36,0,0.54c0,0.36,0,0.72,0,1.08c0,0.78,0,1.561,0,2.34c0,0.78,0,1.561,0,2.34c0,0.421,0,0.841,0,1.261
	c0,0.359,0,0.72,0,1.08c0,1.56,0,3.119,0,4.68c0,0.78,0,1.56,0,2.34c0,0.42,0,0.84,0,1.26c0,0.36,0,0.721,0,1.08
	c0,0.24,0,0.48,0,0.721c0,0.18,0,0.359,0,0.539c0,0.36,0,0.721,0,1.08c0,0.42,0,0.841,0,1.261c0,0.359,0,0.72,0,1.08
	c-1.62,0-3.24,0-4.86,0c0-1.921,0-3.841,0-5.761c0-0.96,0-1.92,0-2.88c0-0.479,0-0.96,0-1.439c0-0.54,0-1.08,0-1.62
	c0-0.96,0-1.92,0-2.88c0-0.48,0-0.96,0-1.44c0-0.54,0-1.08,0-1.62c0-0.96,0-1.92,0-2.88c0-0.479,0-0.96,0-1.439
	c0-0.54,0-1.08,0-1.62C15.66,4.681,17.28,4.681,18.9,4.681z"/>
<path fill-rule="evenodd" clip-rule="evenodd" fill="#E0B49C" d="M18.9,4.681c1.14,0,2.28,0,3.42,0s2.28,0,3.42,0s2.28,0,3.42,0
	c0.6,0,1.2,0,1.8,0c0.12,0,0.24,0,0.36,0c0.18,0,0.36,0,0.54,0c0.12,0,0.24,0,0.36,0c0.24,0,0.48,0,0.72,0c0,0.239,0,0.479,0,0.72
	c0,0.18,0,0.36,0,0.54c0,0.36,0,0.72,0,1.08c0,0.42,0,0.84,0,1.26c0,0.36,0,0.72,0,1.08c0,0.42,0,0.84,0,1.26c0,0.36,0,0.72,0,1.08
	c0,0.42,0,0.84,0,1.26c0,0.36,0,0.721,0,1.08c1.56,0,3.12,0,4.68,0c0,0.84,0,1.681,0,2.521c0,0.24,0,0.479,0,0.72
	c0,0.18,0,0.36,0,0.54s0,0.36,0,0.54s0,0.36,0,0.54c-0.78,0-1.56,0-2.34,0c-0.72,0-1.44,0-2.16,0c-0.06,0-0.12,0-0.18,0
	c0,0.18,0,0.36,0,0.54s0,0.36,0,0.54c0,0.12,0,0.24,0,0.359c0,0.301,0,0.601,0,0.9c0,0.6,0,1.2,0,1.8c0,0.181,0,0.36,0,0.54
	c0.18,0,0.36,0,0.54,0c2.28,0,4.56,0,6.84,0c2.22,0,4.44,0,6.66,0c0,0.42,0,0.84,0,1.26c0,0.181,0,0.36,0,0.54
	c0,0.181,0,0.36,0,0.54c0,0.181,0,0.36,0,0.54c0,0.181,0,0.36,0,0.54c0,0.181,0,0.36,0,0.54c0,0.12,0,0.24,0,0.36
	c0,0.06,0,0.12,0,0.18c0,0.061,0,0.12,0,0.181c0.18,0,0.36,0,0.54,0c0.179,0,0.36,0,0.54,0c0.12,0,0.24,0,0.36,0
	c0.18,0,0.359,0,0.54,0c0.12,0,0.239,0,0.36,0c0.18,0,0.359,0,0.539,0c0.121,0,0.24,0,0.36,0c0.181,0,0.36,0,0.54,0
	c0.12,0,0.24,0,0.359,0c0.181,0,0.361,0,0.541,0c0,0.42,0,0.84,0,1.26c0,0.18,0,0.359,0,0.54c0,0.18,0,0.359,0,0.54
	c0,0.42,0,0.84,0,1.26c0,0.18,0,0.36,0,0.54s0,0.36,0,0.54c-0.18,0-0.36,0-0.541,0c-0.119,0-0.239,0-0.359,0c-0.18,0-0.359,0-0.54,0
	c-0.12,0-0.239,0-0.36,0c-0.6,0-1.199,0-1.8,0c-1.14,0-2.28,0-3.42,0c-0.18,0-0.36,0-0.54,0c-0.12,0-0.24,0-0.36,0
	c-0.18,0-0.36,0-0.54,0c-0.12,0-0.24,0-0.36,0c-0.6,0-1.2,0-1.8,0c-1.14,0-2.28,0-3.42,0c0,0.42,0,0.84,0,1.26c0,0.18,0,0.36,0,0.54
	s0,0.36,0,0.54c0,0.24,0,0.48,0,0.72c0,0.181,0,0.36,0,0.54c0,0.181,0,0.36,0,0.54c0,0.181,0,0.36,0,0.54c-0.72,0-1.44,0-2.16,0
	c-0.36,0-0.72,0-1.08,0c-0.18,0-0.36,0-0.54,0c-0.12,0-0.24,0-0.36,0c-0.18,0-0.36,0-0.54,0c0,0.24,0,0.48,0,0.72
	c0,0.181,0,0.36,0,0.54c0,0.36,0,0.721,0,1.08c0,0.42,0,0.841,0,1.261c0,0.359,0,0.72,0,1.08c-0.78,0-1.56,0-2.34,0
	c-0.36,0-0.72,0-1.08,0c-0.18,0-0.36,0-0.54,0c-0.24,0-0.48,0-0.72,0c0,0.18,0,0.359,0,0.539c0,1.561,0,3.12,0,4.681
	c0,1.5,0,3,0,4.5c0,0.78,0,1.56,0,2.34s0,1.56,0,2.34c0,1.5,0,3,0,4.5c1.56,0,3.12,0,4.68,0c0,0.24,0,0.48,0,0.72
	c0,0.181,0,0.36,0,0.54c0,0.36,0,0.721,0,1.08c0,0.42,0,0.84,0,1.261c0,0.359,0,0.72,0,1.079c0,0.421,0,0.841,0,1.261
	c0,0.359,0,0.72,0,1.08c0,0.42,0,0.84,0,1.26c0,0.359,0,0.72,0,1.08c-0.78,0-1.56,0-2.34,0c-0.78,0-1.56,0-2.34,0
	c0-0.78,0-1.561,0-2.34c0-0.78,0-1.561,0-2.341c-1.56,0-3.12,0-4.68,0c0-1.56,0-3.119,0-4.68c0-1.56,0-3.12,0-4.68
	c-1.56,0-3.12,0-4.68,0c0-0.78,0-1.561,0-2.34c0-0.42,0-0.841,0-1.261c0-0.359,0-0.72,0-1.08c0-0.06,0-0.119,0-0.18
	c-0.18,0-0.36,0-0.54,0c-1.5,0-3,0-4.5,0s-3,0-4.5,0c0-1.56,0-3.12,0-4.68c0-1.561,0-3.12,0-4.68c1.56,0,3.12,0,4.68,0
	c0-0.181,0-0.36,0-0.54c0-0.721,0-1.44,0-2.16c0-0.36,0-0.721,0-1.08c0-0.181,0-0.36,0-0.54c0-0.12,0-0.24,0-0.36
	c0-0.78,0-1.56,0-2.34s0-1.56,0-2.34c1.62,0,3.24,0,4.86,0c0-0.78,0-1.561,0-2.34c0-0.78,0-1.561,0-2.34c1.56,0,3.12,0,4.68,0
	c0-0.181,0-0.36,0-0.54c0-1.2,0-2.4,0-3.601c0-0.18,0-0.359,0-0.54c-1.56,0-3.12,0-4.68,0c0-0.359,0-0.72,0-1.08
	c0-0.42,0-0.84,0-1.26c0-0.78,0-1.56,0-2.34c0-1.561,0-3.12,0-4.68c0-0.36,0-0.721,0-1.08c0-0.42,0-0.84,0-1.261
	c0-0.779,0-1.56,0-2.34c0-0.779,0-1.56,0-2.34c0-0.36,0-0.72,0-1.08c0-0.18,0-0.359,0-0.54c0-0.24,0-0.479,0-0.72
	C18.9,4.801,18.9,4.74,18.9,4.681z"/>
<path fill-rule="evenodd" clip-rule="evenodd" fill="#0A1A3E" d="M32.94,4.681c0.24,0,0.48,0,0.72,0c0.18,0,0.36,0,0.54,0
	c0.36,0,0.72,0,1.08,0c0.78,0,1.56,0,2.34,0c0,0.18,0,0.359,0,0.54c0,0.18,0,0.359,0,0.54c0,0.18,0,0.359,0,0.54
	c0,0.359,0,0.72,0,1.079c0,0.181,0,0.36,0,0.54c0,0.181,0,0.36,0,0.54c0,0.181,0,0.36,0,0.54c0,0.181,0,0.36,0,0.54c0,1.5,0,3,0,4.5
	c-1.56,0-3.12,0-4.68,0c0-0.359,0-0.72,0-1.08c0-0.42,0-0.84,0-1.26c0-0.36,0-0.72,0-1.08c0-0.42,0-0.84,0-1.26
	c0-0.36,0-0.72,0-1.08c0-0.42,0-0.84,0-1.26c0-0.36,0-0.72,0-1.08c0-0.18,0-0.36,0-0.54C32.94,5.16,32.94,4.92,32.94,4.681z"/>
<path fill-rule="evenodd" clip-rule="evenodd" fill="#0A1A3E" d="M51.66,4.681c0,0.239,0,0.479,0,0.72c0,0.12,0,0.24,0,0.36
	c0,0.18,0,0.359,0,0.54c0,0.119,0,0.239,0,0.359c0,0.601,0,1.2,0,1.8c0,1.141,0,2.28,0,3.42c0,0.181,0,0.36,0,0.54
	c0,0.12,0,0.24,0,0.36c0,0.18,0,0.36,0,0.54c0,0.12,0,0.24,0,0.36c0,0.6,0,1.199,0,1.8c0,1.14,0,2.28,0,3.42c-0.18,0-0.36,0-0.541,0
	c-0.119,0-0.239,0-0.359,0c-0.18,0-0.359,0-0.54,0c-0.12,0-0.239,0-0.36,0c-0.6,0-1.199,0-1.8,0c-1.14,0-2.28,0-3.42,0
	c-0.18,0-0.36,0-0.54,0c-0.12,0-0.24,0-0.36,0c-0.18,0-0.36,0-0.54,0c-0.12,0-0.24,0-0.36,0c-0.6,0-1.2,0-1.8,0
	c-1.14,0-2.28,0-3.42,0c0-0.18,0-0.36,0-0.54s0-0.36,0-0.54s0-0.36,0-0.54c0-0.24,0-0.479,0-0.72c0-0.84,0-1.681,0-2.521
	c1.5,0,3,0,4.5,0c0.18,0,0.36,0,0.54,0c0.18,0,0.36,0,0.54,0c0.18,0,0.36,0,0.54,0c0.24,0,0.48,0,0.72,0c0.18,0,0.36,0,0.54,0
	c0.18,0,0.36,0,0.54,0c0.18,0,0.36,0,0.54,0c0.12,0,0.24,0,0.36,0c0.18,0,0.36,0,0.54,0c0-0.12,0-0.239,0-0.359
	c0-0.721,0-1.44,0-2.16c0-0.181,0-0.36,0-0.54s0-0.36,0-0.54s0-0.36,0-0.54c0-0.24,0-0.48,0-0.72c0-0.721,0-1.44,0-2.16
	c0-0.181,0-0.36,0-0.54s0-0.36,0-0.54c0-0.42,0-0.84,0-1.26c0.12,0,0.24,0,0.36,0c0.18,0,0.359,0,0.54,0c0.36,0,0.72,0,1.08,0
	c0.18,0,0.36,0,0.54,0s0.359,0,0.54,0c0.36,0,0.72,0,1.079,0C51.3,4.681,51.48,4.681,51.66,4.681z"/>
<path fill-rule="evenodd" clip-rule="evenodd" fill="#BB6B5C" d="M51.66,4.681c1.14,0,2.279,0,3.42,0c0.6,0,1.199,0,1.8,0
	c0.12,0,0.239,0,0.36,0c0.18,0,0.359,0,0.539,0c0.121,0,0.24,0,0.36,0c0.181,0,0.36,0,0.54,0c1.141,0,2.28,0,3.42,0
	c0.6,0,1.2,0,1.801,0c0.299,0,0.6,0,0.899,0c0.12,0,0.24,0,0.36,0c0.24,0,0.479,0,0.72,0c0,0.18,0,0.359,0,0.54
	c0,0.119,0,0.239,0,0.359c0,0.181,0,0.36,0,0.54c0,0.12,0,0.24,0,0.36c0,0.6,0,1.2,0,1.8s0,1.2,0,1.8c0,0.601,0,1.2,0,1.8
	c0,0.181,0,0.36,0,0.54c0,0.12,0,0.24,0,0.36c0,0.18,0,0.36,0,0.54c0,0.12,0,0.24,0,0.36c0,0.6,0,1.199,0,1.8c0,1.14,0,2.28,0,3.42
	c1.56,0,3.12,0,4.68,0c0,2.34,0,4.68,0,7.02c0,2.341,0,4.681,0,7.021c1.56,0,3.12,0,4.681,0c0,0.24,0,0.479,0,0.72
	c0,0.18,0,0.36,0,0.54c0,0.36,0,0.72,0,1.08c0,0.42,0,0.84,0,1.26c0,0.36,0,0.721,0,1.08c0,0.42,0,0.84,0,1.26
	c0,0.36,0,0.721,0,1.08c0,0.42,0,0.841,0,1.261c0,0.359,0,0.72,0,1.08c-1.561,0-3.121,0-4.681,0c0-0.721,0-1.44,0-2.16
	c0-0.36,0-0.721,0-1.08c0-0.181,0-0.36,0-0.54c0-0.12,0-0.24,0-0.36c0-0.18,0-0.359,0-0.54c-1.38,0-2.76,0-4.14,0
	c-0.18,0-0.36,0-0.54,0c0-0.78,0-1.56,0-2.34s0-1.56,0-2.34s0-1.561,0-2.34c0-0.78,0-1.561,0-2.34c-1.56,0-3.12,0-4.681,0
	c0-0.24,0-0.48,0-0.721c0-0.18,0-0.359,0-0.54c0-0.359,0-0.72,0-1.08c0-0.18,0-0.359,0-0.54c0-0.18,0-0.359,0-0.54
	c0-0.119,0-0.239,0-0.359c0-0.18,0-0.36,0-0.54c0-0.061,0-0.12,0-0.18c0-0.061,0-0.12,0-0.181c-0.18,0-0.359,0-0.539,0
	c-1.44,0-2.881,0-4.32,0c-1.38,0-2.76,0-4.141,0c-0.18,0-0.359,0-0.539,0c0-0.42,0-0.84,0-1.26c0-0.18,0-0.36,0-0.54s0-0.36,0-0.54
	c0-0.42,0-0.84,0-1.26c0-0.18,0-0.36,0-0.54s0-0.36,0-0.54c0-1.14,0-2.28,0-3.42c0-0.601,0-1.2,0-1.8c0-0.12,0-0.24,0-0.36
	c0-0.18,0-0.36,0-0.54c0-0.12,0-0.24,0-0.36c0-0.18,0-0.359,0-0.54c0-1.14,0-2.279,0-3.42c0-0.6,0-1.199,0-1.8
	c0-0.12,0-0.24,0-0.359c0-0.181,0-0.36,0-0.54c0-0.12,0-0.24,0-0.36C51.66,5.16,51.66,4.92,51.66,4.681z"/>
<path fill-rule="evenodd" clip-rule="evenodd" fill="#0A1A3E" d="M65.88,4.681c1.56,0,3.12,0,4.68,0c0,2.34,0,4.68,0,7.02
	c0,0.12,0,0.24,0,0.36c0,0.18,0,0.359,0,0.54c0,0.12,0,0.239,0,0.359c0,0.181,0,0.36,0,0.54c0,0.12,0,0.24,0,0.36
	c0,0.18,0,0.36,0,0.54c0,0.12,0,0.24,0,0.36c0,0.18,0,0.359,0,0.54c0,1.199,0,2.399,0,3.6c-1.56,0-3.12,0-4.68,0
	c0-1.14,0-2.28,0-3.42c0-0.601,0-1.2,0-1.8c0-0.12,0-0.24,0-0.36c0-0.18,0-0.36,0-0.54c0-0.12,0-0.24,0-0.36c0-0.18,0-0.359,0-0.54
	c0-0.6,0-1.199,0-1.8c0-0.6,0-1.2,0-1.8s0-1.2,0-1.8c0-0.12,0-0.24,0-0.36c0-0.18,0-0.359,0-0.54c0-0.12,0-0.24,0-0.359
	C65.88,5.04,65.88,4.86,65.88,4.681z"/>
<path fill-rule="evenodd" clip-rule="evenodd" fill="#D97761" d="M37.62,18.9c1.14,0,2.28,0,3.42,0c0.6,0,1.2,0,1.8,0
	c0.12,0,0.24,0,0.36,0c0.18,0,0.36,0,0.54,0c0.12,0,0.24,0,0.36,0c0.18,0,0.36,0,0.54,0c1.14,0,2.28,0,3.42,0c0.601,0,1.2,0,1.8,0
	c0.121,0,0.24,0,0.36,0c0.181,0,0.36,0,0.54,0c0.12,0,0.24,0,0.359,0c0.181,0,0.361,0,0.541,0c0,0.18,0,0.36,0,0.54s0,0.36,0,0.54
	c0,0.42,0,0.84,0,1.26c0,0.18,0,0.36,0,0.54s0,0.36,0,0.54c0,0.42,0,0.84,0,1.26c0.18,0,0.359,0,0.539,0c1.381,0,2.761,0,4.141,0
	c1.439,0,2.88,0,4.32,0c0.18,0,0.359,0,0.539,0c0,0.061,0,0.12,0,0.181c0,0.06,0,0.119,0,0.18c0,0.18,0,0.36,0,0.54
	c0,0.12,0,0.24,0,0.359c0,0.181,0,0.36,0,0.54c0,0.181,0,0.36,0,0.54c0,0.36,0,0.721,0,1.08c0,0.181,0,0.36,0,0.54
	c0,0.24,0,0.48,0,0.721c1.561,0,3.121,0,4.681,0c0,0.779,0,1.56,0,2.34c0,0.779,0,1.56,0,2.34c-0.181,0-0.36,0-0.54,0
	c-0.12,0-0.24,0-0.359,0c-0.301,0-0.601,0-0.9,0c-0.6,0-1.2,0-1.801,0c-0.18,0-0.359,0-0.539,0c-0.121,0-0.24,0-0.36,0
	c-0.181,0-0.36,0-0.54,0c-0.12,0-0.24,0-0.359,0c-0.601,0-1.201,0-1.801,0c-0.18,0-0.359,0-0.54,0c-0.12,0-0.239,0-0.36,0
	c-0.18,0-0.359,0-0.539,0c-0.121,0-0.24,0-0.36,0c-0.601,0-1.2,0-1.8,0c-1.141,0-2.28,0-3.42,0c0-0.18,0-0.36,0-0.54s0-0.36,0-0.54
	c0-0.42,0-0.84,0-1.26c0-0.181,0-0.36,0-0.54c0-0.181,0-0.36,0-0.54c0-0.42,0-0.84,0-1.26c-0.18,0-0.36,0-0.541,0
	c-0.119,0-0.239,0-0.359,0c-0.18,0-0.359,0-0.54,0c-0.12,0-0.239,0-0.36,0c-0.18,0-0.359,0-0.539,0c-0.121,0-0.24,0-0.36,0
	c-0.181,0-0.36,0-0.54,0c-0.12,0-0.24,0-0.36,0c-0.18,0-0.36,0-0.54,0c-0.18,0-0.36,0-0.54,0c0-0.061,0-0.12,0-0.181
	c0-0.06,0-0.12,0-0.18c0-0.12,0-0.24,0-0.36c0-0.18,0-0.359,0-0.54c0-0.18,0-0.359,0-0.54c0-0.18,0-0.359,0-0.54
	c0-0.18,0-0.359,0-0.54c0-0.18,0-0.359,0-0.54c0-0.42,0-0.84,0-1.26c-2.22,0-4.44,0-6.66,0c-2.28,0-4.56,0-6.84,0
	c-0.18,0-0.36,0-0.54,0c0-0.18,0-0.359,0-0.54c0-0.6,0-1.2,0-1.8c0-0.3,0-0.6,0-0.9c0-0.119,0-0.239,0-0.359c0-0.18,0-0.36,0-0.54
	s0-0.36,0-0.54c0.06,0,0.12,0,0.18,0c0.72,0,1.44,0,2.16,0C36.06,18.9,36.84,18.9,37.62,18.9z"/>
<path fill-rule="evenodd" clip-rule="evenodd" fill="#0A1A3E" d="M70.56,18.9c1.56,0,3.12,0,4.681,0c0,2.34,0,4.68,0,7.02
	c0,1.141,0,2.28,0,3.42c0,0.601,0,1.2,0,1.801c0,0.12,0,0.239,0,0.359c0,0.181,0,0.36,0,0.54c0,0.12,0,0.24,0,0.36
	c0,0.18,0,0.36,0,0.54c-1.561,0-3.121,0-4.681,0c0-2.34,0-4.68,0-7.021C70.56,23.58,70.56,21.24,70.56,18.9z"/>
<path fill-rule="evenodd" clip-rule="evenodd" fill="#D97761" d="M18.9,23.58c1.56,0,3.12,0,4.68,0c0,0.181,0,0.36,0,0.54
	c0,1.2,0,2.4,0,3.601c0,0.18,0,0.359,0,0.54c-1.56,0-3.12,0-4.68,0c0-0.36,0-0.721,0-1.08c0-0.42,0-0.841,0-1.261
	c0-0.359,0-0.72,0-1.08c0-0.18,0-0.359,0-0.539C18.9,24.061,18.9,23.82,18.9,23.58z"/>
<path fill-rule="evenodd" clip-rule="evenodd" fill="#0A1A3E" d="M14.04,28.261c0,0.06,0,0.119,0,0.18c0,0.24,0,0.479,0,0.72
	c0,0.18,0,0.36,0,0.54c0,0.36,0,0.72,0,1.08c0,0.72,0,1.44,0,2.16c0,0.78,0,1.56,0,2.34s0,1.56,0,2.34c-0.42,0-0.84,0-1.26,0
	c-0.18,0-0.36,0-0.54,0s-0.36,0-0.54,0c-0.24,0-0.48,0-0.72,0c-0.18,0-0.36,0-0.54,0c-0.18,0-0.36,0-0.54,0c-0.18,0-0.36,0-0.54,0
	c0-0.359,0-0.72,0-1.08c0-0.18,0-0.359,0-0.54c0-0.239,0-0.479,0-0.72c0-0.36,0-0.72,0-1.08c0-0.18,0-0.36,0-0.54
	c0-0.24,0-0.479,0-0.72c0-0.36,0-0.72,0-1.08c0-0.18,0-0.36,0-0.54c0-0.24,0-0.48,0-0.72c0-0.36,0-0.721,0-1.08
	c0-0.42,0-0.84,0-1.26C10.92,28.261,12.48,28.261,14.04,28.261z"/>
<path fill-rule="evenodd" clip-rule="evenodd" fill="#D97761" d="M14.04,28.261c1.62,0,3.24,0,4.86,0c0,0.779,0,1.56,0,2.34
	c0,0.779,0,1.56,0,2.34c-1.62,0-3.24,0-4.86,0c0-0.72,0-1.44,0-2.16c0-0.36,0-0.72,0-1.08c0-0.18,0-0.36,0-0.54
	c0-0.24,0-0.479,0-0.72C14.04,28.38,14.04,28.32,14.04,28.261z"/>
<path fill-rule="evenodd" clip-rule="evenodd" fill="#FDFEFF" d="M51.66,32.94c1.14,0,2.279,0,3.42,0c0.6,0,1.199,0,1.8,0
	c0.12,0,0.239,0,0.36,0c0.18,0,0.359,0,0.539,0c0.121,0,0.24,0,0.36,0c0.181,0,0.36,0,0.54,0c0.6,0,1.2,0,1.801,0
	c0.119,0,0.239,0,0.359,0c0.18,0,0.359,0,0.54,0c0.12,0,0.239,0,0.36,0c0.18,0,0.359,0,0.539,0c0.601,0,1.201,0,1.801,0
	c0.3,0,0.6,0,0.9,0c0.119,0,0.239,0,0.359,0c0.18,0,0.359,0,0.54,0c0,0.78,0,1.56,0,2.34s0,1.56,0,2.34c0.18,0,0.36,0,0.54,0
	c1.38,0,2.76,0,4.14,0c0,0.181,0,0.36,0,0.54c0,0.12,0,0.24,0,0.36c0,0.18,0,0.359,0,0.54c0,0.359,0,0.72,0,1.08
	c0,0.72,0,1.439,0,2.16c-1.56,0-3.12,0-4.68,0c0,1.56,0,3.119,0,4.68c-1.56,0-3.12,0-4.681,0c0,0.18,0,0.359,0,0.54
	c0,0.12,0,0.24,0,0.359c0,0.181,0,0.36,0,0.54c0,0.12,0,0.24,0,0.36c0,0.18,0,0.36,0,0.54c0,0.12,0,0.24,0,0.36
	c0,0.18,0,0.359,0,0.54c0,0.119,0,0.239,0,0.359c0,1.141,0,2.28,0,3.42c0,1.141,0,2.28,0,3.42c0,0.181,0,0.36,0,0.54
	c0,0.12,0,0.24,0,0.36c0,0.18,0,0.36,0,0.54c0,0.12,0,0.24,0,0.36c0,0.18,0,0.359,0,0.54c0,0.119,0,0.239,0,0.359
	c0,0.24,0,0.48,0,0.72c0,0.12,0,0.24,0,0.36c1.561,0,3.121,0,4.681,0c0,0.78,0,1.561,0,2.34c0,0.36,0,0.721,0,1.08
	c0,0.181,0,0.36,0,0.54c0,0.24,0,0.48,0,0.72c0.18,0,0.36,0,0.54,0c1.5,0,3,0,4.5,0c1.439,0,2.88,0,4.32,0c0,0.24,0,0.48,0,0.721
	c0,0.18,0,0.359,0,0.54c0,0.359,0,0.72,0,1.08c0,0.42,0,0.84,0,1.26c0,0.359,0,0.72,0,1.08c-1.561,0-3.121,0-4.681,0
	c0,0.18,0,0.359,0,0.54c0,0.72,0,1.439,0,2.16c0,0.659,0,1.319,0,1.979c-0.18,0-0.36,0-0.54,0c-0.119,0-0.24,0-0.359,0
	c-0.301,0-0.601,0-0.9,0s-0.6,0-0.9,0c-0.3,0-0.6,0-0.899,0s-0.601,0-0.9,0s-0.6,0-0.899,0c-0.301,0-0.601,0-0.9,0s-0.6,0-0.9,0
	c-0.3,0-0.6,0-0.899,0s-0.601,0-0.9,0c-0.18,0-0.36,0-0.54,0c-0.119,0-0.24,0-0.359,0c-0.18,0-0.36,0-0.541,0
	c-0.119,0-0.239,0-0.359,0c-1.141,0-2.279,0-3.42,0c-0.18,0-0.359,0-0.54,0c-0.12,0-0.24,0-0.36,0c-0.18,0-0.359,0-0.539,0
	c-0.121,0-0.24,0-0.36,0c-0.181,0-0.36,0-0.54,0c-0.12,0-0.24,0-0.36,0c-0.18,0-0.36,0-0.54,0c-0.119,0-0.24,0-0.359,0
	c-1.141,0-2.28,0-3.42,0c-0.181,0-0.36,0-0.541,0c-0.119,0-0.239,0-0.359,0c-0.18,0-0.36,0-0.54,0c-0.12,0-0.24,0-0.36,0
	c-0.18,0-0.36,0-0.54,0c-0.12,0-0.24,0-0.36,0c-0.18,0-0.36,0-0.54,0c-0.12,0-0.24,0-0.36,0c-1.14,0-2.28,0-3.42,0
	c0-0.24,0-0.479,0-0.72c0-0.181,0-0.36,0-0.54s0-0.36,0-0.54s0-0.36,0-0.54c0-0.36,0-0.72,0-1.08c0-0.18,0-0.36,0-0.54
	c0-0.24,0-0.479,0-0.72c-0.18,0-0.36,0-0.54,0c-2.94,0-5.88,0-8.82,0c0-0.36,0-0.721,0-1.08c0-0.42,0-0.84,0-1.26
	c0-0.36,0-0.721,0-1.08c0-0.42,0-0.84,0-1.261c0-0.359,0-0.72,0-1.079c0-0.421,0-0.841,0-1.261c0-0.359,0-0.72,0-1.08
	c0-0.18,0-0.359,0-0.54c0-0.239,0-0.479,0-0.72c1.56,0,3.12,0,4.68,0c0,0.42,0,0.84,0,1.26c0,0.181,0,0.36,0,0.54
	c0,0.181,0,0.36,0,0.54c0,0.181,0,0.36,0,0.54c0,0.181,0,0.36,0,0.54c0,0.181,0,0.36,0,0.54c0,0.12,0,0.24,0,0.36
	c0,0.06,0,0.12,0,0.18c0,0.061,0,0.12,0,0.18c0.18,0,0.36,0,0.54,0c0.12,0,0.24,0,0.36,0c0.18,0,0.36,0,0.54,0c0.12,0,0.24,0,0.36,0
	c0.18,0,0.36,0,0.54,0c0.12,0,0.24,0,0.36,0c0.18,0,0.36,0,0.54,0c0.12,0,0.24,0,0.36,0c0.18,0,0.36,0,0.54,0c0.12,0,0.24,0,0.36,0
	c0.18,0,0.36,0,0.54,0c0.12,0,0.24,0,0.36,0c0.54,0,1.08,0,1.62,0c0.18,0,0.36,0,0.54,0c0.12,0,0.24,0,0.36,0c0.18,0,0.36,0,0.54,0
	c0.12,0,0.24,0,0.36,0c0.18,0,0.36,0,0.54,0c0.12,0,0.24,0,0.36,0c0.18,0,0.359,0,0.54,0c0.12,0,0.239,0,0.36,0
	c1.14,0,2.279,0,3.42,0c0-0.42,0-0.84,0-1.26c0-0.18,0-0.359,0-0.54c0-0.18,0-0.359,0-0.54c0-0.42,0-0.84,0-1.26
	c0-0.18,0-0.36,0-0.54s0-0.36,0-0.54c0.42,0,0.84,0,1.26,0c0.18,0,0.359,0,0.54,0c0.18,0,0.36,0,0.54,0s0.359,0,0.54,0
	c0.18,0,0.36,0,0.54,0s0.359,0,0.539,0c0.24,0,0.48,0,0.721,0c0-0.18,0-0.36,0-0.54c0-0.12,0-0.24,0-0.359c0-0.181,0-0.36,0-0.54
	c0-0.12,0-0.24,0-0.36c0-0.18,0-0.36,0-0.54c0-0.12,0-0.24,0-0.36c0-0.18,0-0.359,0-0.54c0-0.12,0-0.239,0-0.359
	c0-1.141,0-2.28,0-3.42c0-1.141,0-2.28,0-3.42c0-1.141,0-2.28,0-3.421c0-0.119,0-0.239,0-0.359c-0.24,0-0.48,0-0.721,0
	c-0.18,0-0.359,0-0.539,0s-0.36,0-0.54,0c-0.181,0-0.36,0-0.54,0c-0.42,0-0.84,0-1.26,0c-0.181,0-0.36,0-0.541,0
	c-0.18,0-0.359,0-0.539,0c0-0.42,0-0.84,0-1.26c0-0.181,0-0.36,0-0.54c0-0.181,0-0.36,0-0.54c0-0.721,0-1.44,0-2.16
	c0-0.061,0-0.12,0-0.18c-0.18,0-0.36,0-0.541,0c-0.119,0-0.239,0-0.359,0c-0.18,0-0.359,0-0.54,0c-0.12,0-0.239,0-0.36,0
	c-0.6,0-1.199,0-1.8,0c-1.14,0-2.28,0-3.42,0c-0.18,0-0.36,0-0.54,0c-0.12,0-0.24,0-0.36,0c-0.18,0-0.36,0-0.54,0
	c-0.12,0-0.24,0-0.36,0c-0.18,0-0.36,0-0.54,0c-0.12,0-0.24,0-0.36,0c-0.18,0-0.36,0-0.54,0c-0.12,0-0.24,0-0.36,0
	c-1.14,0-2.28,0-3.42,0c0,0.42,0,0.84,0,1.26c0,0.18,0,0.359,0,0.54c0,0.18,0,0.359,0,0.54c0,0.239,0,0.479,0,0.72
	c0,0.18,0,0.36,0,0.54s0,0.36,0,0.54s0,0.36,0,0.54c-0.24,0-0.48,0-0.72,0c-0.18,0-0.36,0-0.54,0c-0.36,0-0.72,0-1.08,0
	s-0.72,0-1.08,0c-0.18,0-0.36,0-0.54,0c-0.12,0-0.24,0-0.36,0c-0.06,0-0.12,0-0.18,0s-0.12,0-0.18,0c0,1.2,0,2.399,0,3.6
	s0,2.4,0,3.601c0,1.199,0,2.399,0,3.6c0,1.14,0,2.28,0,3.42c-1.56,0-3.12,0-4.68,0c0-1.5,0-3,0-4.5c0-0.78,0-1.56,0-2.34
	s0-1.56,0-2.34c0-1.5,0-3,0-4.5c0-1.561,0-3.12,0-4.681c0-0.18,0-0.359,0-0.539c0.24,0,0.48,0,0.72,0c0.18,0,0.36,0,0.54,0
	c0.36,0,0.72,0,1.08,0c0.78,0,1.56,0,2.34,0c0-0.36,0-0.721,0-1.08c0-0.42,0-0.841,0-1.261c0-0.359,0-0.72,0-1.08
	c0-0.18,0-0.359,0-0.54c0-0.239,0-0.479,0-0.72c0.18,0,0.36,0,0.54,0c0.12,0,0.24,0,0.36,0c0.18,0,0.36,0,0.54,0
	c0.36,0,0.72,0,1.08,0c0.72,0,1.44,0,2.16,0c0-0.18,0-0.359,0-0.54c0-0.18,0-0.359,0-0.54c0-0.18,0-0.359,0-0.54
	c0-0.239,0-0.479,0-0.72c0-0.18,0-0.36,0-0.54s0-0.36,0-0.54c0-0.42,0-0.84,0-1.26c1.14,0,2.28,0,3.42,0c0.6,0,1.2,0,1.8,0
	c0.12,0,0.24,0,0.36,0c0.18,0,0.36,0,0.54,0c0.12,0,0.24,0,0.36,0c0.18,0,0.36,0,0.54,0c1.14,0,2.28,0,3.42,0c0.601,0,1.2,0,1.8,0
	c0.121,0,0.24,0,0.36,0c0.181,0,0.36,0,0.54,0c0.12,0,0.24,0,0.359,0C51.3,32.94,51.48,32.94,51.66,32.94z"/>
<path fill-rule="evenodd" clip-rule="evenodd" fill="#0A1A3E" d="M75.24,32.94c1.56,0,3.119,0,4.68,0c0,0.78,0,1.56,0,2.34
	c0,0.18,0,0.36,0,0.54s0,0.36,0,0.54c0,0.42,0,0.84,0,1.26c0,0.181,0,0.36,0,0.54s0,0.36,0,0.54c0,0.42,0,0.84,0,1.26
	c0,0.181,0,0.36,0,0.54c0,0.181,0,0.36,0,0.54c0,0.42,0,0.84,0,1.261c-1.561,0-3.12,0-4.68,0c0-0.36,0-0.721,0-1.08
	c0-0.42,0-0.841,0-1.261c0-0.359,0-0.72,0-1.08c0-0.42,0-0.84,0-1.26c0-0.359,0-0.72,0-1.08c0-0.42,0-0.84,0-1.26
	c0-0.36,0-0.72,0-1.08c0-0.18,0-0.36,0-0.54C75.24,33.42,75.24,33.181,75.24,32.94z"/>
<path fill-rule="evenodd" clip-rule="evenodd" fill="#0A1A3E" d="M9.36,37.62c0,0.061,0,0.12,0,0.181c0,0.239,0,0.479,0,0.72
	c0,0.18,0,0.359,0,0.54c0,0.359,0,0.72,0,1.08c0,0.72,0,1.439,0,2.16c0,1.56,0,3.119,0,4.68c0,1.56,0,3.12,0,4.68
	c0,1.62,0,3.24,0,4.86c-1.56,0-3.12,0-4.68,0c0-0.36,0-0.72,0-1.08c0-0.18,0-0.36,0-0.54c0-0.24,0-0.48,0-0.72
	c0-0.181,0-0.36,0-0.54c0-0.181,0-0.36,0-0.54c0-0.42,0-0.84,0-1.261c0-1.56,0-3.119,0-4.68c0-1.56,0-3.12,0-4.68
	c0-1.62,0-3.24,0-4.86c0.12,0,0.24,0,0.36,0c0.18,0,0.36,0,0.54,0c0.36,0,0.72,0,1.08,0c0.72,0,1.44,0,2.16,0
	C9,37.62,9.18,37.62,9.36,37.62z"/>
<path fill-rule="evenodd" clip-rule="evenodd" fill="#D97761" d="M9.36,37.62c0.18,0,0.36,0,0.54,0c0.18,0,0.36,0,0.54,0
	c0.18,0,0.36,0,0.54,0c0.24,0,0.48,0,0.72,0c0.18,0,0.36,0,0.54,0s0.36,0,0.54,0c0.42,0,0.84,0,1.26,0c0,0.12,0,0.24,0,0.36
	c0,0.18,0,0.359,0,0.54c0,0.359,0,0.72,0,1.08c0,0.72,0,1.439,0,2.16c0,0.18,0,0.359,0,0.54c-1.56,0-3.12,0-4.68,0
	c0-0.721,0-1.44,0-2.16c0-0.36,0-0.721,0-1.08c0-0.181,0-0.36,0-0.54c0-0.24,0-0.48,0-0.72C9.36,37.74,9.36,37.681,9.36,37.62z"/>
<path fill-rule="evenodd" clip-rule="evenodd" fill="#0A1A3E" d="M51.66,46.98c-0.061,0-0.121,0-0.18,0c-0.24,0-0.48,0-0.721,0
	c-0.18,0-0.359,0-0.54,0c-0.18,0-0.36,0-0.54,0s-0.359,0-0.54,0c-0.72,0-1.44,0-2.16,0c-0.42,0-0.84,0-1.26,0c-0.18,0-0.36,0-0.54,0
	c-0.18,0-0.36,0-0.54,0c-0.36,0-0.72,0-1.08,0c-0.18,0-0.36,0-0.54,0c-0.12,0-0.24,0-0.36,0c-0.06,0-0.12,0-0.18,0
	c-0.06,0-0.12,0-0.18,0c0,0.18,0,0.359,0,0.54c0,0.12,0,0.24,0,0.359c0,0.301,0,0.601,0,0.9s0,0.6,0,0.9c0,0.18,0,0.359,0,0.54
	c0,0.119,0,0.239,0,0.359c0,1.141,0,2.28,0,3.42c0,0.181,0,0.36,0,0.54c0,0.12,0,0.24,0,0.36c0,0.18,0,0.36,0,0.54
	c0,0.12,0,0.24,0,0.36c0,0.18,0,0.359,0,0.539c0,0.12,0,0.24,0,0.36c0,0.18,0,0.36,0,0.54c0,0.12,0,0.24,0,0.36
	c0,0.18,0,0.359,0,0.54c0,0.12,0,0.239,0,0.359c0,0.181,0,0.36,0,0.54c0,0.12,0,0.24,0,0.36c0,0.18,0,0.36,0,0.54
	c0,0.12,0,0.24,0,0.36c0,0.239,0,0.479,0,0.72c0,0.06,0,0.12,0,0.18c0.18,0,0.36,0,0.54,0c1.5,0,3,0,4.5,0c1.439,0,2.88,0,4.32,0
	c0,0.18,0,0.36,0,0.54s0,0.36,0,0.54c0,0.42,0,0.84,0,1.26c0,0.181,0,0.36,0,0.54c0,0.181,0,0.36,0,0.54c0,0.42,0,0.84,0,1.26
	c-1.141,0-2.28,0-3.42,0c-0.121,0-0.24,0-0.36,0c-0.181,0-0.36,0-0.54,0c-0.12,0-0.24,0-0.36,0c-0.18,0-0.36,0-0.54,0
	c-0.12,0-0.24,0-0.36,0c-0.18,0-0.36,0-0.54,0c-0.12,0-0.24,0-0.36,0c-0.18,0-0.36,0-0.54,0c-0.54,0-1.08,0-1.62,0
	c-0.12,0-0.24,0-0.36,0c-0.18,0-0.36,0-0.54,0c-0.12,0-0.24,0-0.36,0c-0.18,0-0.36,0-0.54,0c-0.12,0-0.24,0-0.36,0
	c-0.18,0-0.36,0-0.54,0c-0.12,0-0.24,0-0.36,0c-0.18,0-0.36,0-0.54,0c-0.12,0-0.24,0-0.36,0c-0.18,0-0.36,0-0.54,0
	c-0.12,0-0.24,0-0.36,0c-0.18,0-0.36,0-0.54,0c0-0.06,0-0.119,0-0.18c0-0.06,0-0.12,0-0.18c0-0.12,0-0.24,0-0.36
	c0-0.18,0-0.359,0-0.54c0-0.18,0-0.359,0-0.54c0-0.18,0-0.359,0-0.54c0-0.18,0-0.359,0-0.54c0-0.18,0-0.359,0-0.54
	c0-0.42,0-0.84,0-1.26c-1.56,0-3.12,0-4.68,0c0-1.14,0-2.28,0-3.42c0-1.2,0-2.4,0-3.6c0-1.2,0-2.4,0-3.601s0-2.399,0-3.6
	c0.06,0,0.12,0,0.18,0s0.12,0,0.18,0c0.12,0,0.24,0,0.36,0c0.18,0,0.36,0,0.54,0c0.36,0,0.72,0,1.08,0s0.72,0,1.08,0
	c0.18,0,0.36,0,0.54,0c0.24,0,0.48,0,0.72,0c0-0.18,0-0.36,0-0.54s0-0.36,0-0.54s0-0.36,0-0.54c0-0.24,0-0.48,0-0.72
	c0-0.181,0-0.36,0-0.54c0-0.181,0-0.36,0-0.54c0-0.42,0-0.84,0-1.26c1.14,0,2.28,0,3.42,0c0.12,0,0.24,0,0.36,0
	c0.18,0,0.36,0,0.54,0c0.12,0,0.24,0,0.36,0c0.18,0,0.36,0,0.54,0c0.12,0,0.24,0,0.36,0c0.18,0,0.36,0,0.54,0c0.12,0,0.24,0,0.36,0
	c0.18,0,0.36,0,0.54,0c1.14,0,2.28,0,3.42,0c0.601,0,1.2,0,1.8,0c0.121,0,0.24,0,0.36,0c0.181,0,0.36,0,0.54,0
	c0.12,0,0.24,0,0.359,0c0.181,0,0.361,0,0.541,0c0,0.06,0,0.119,0,0.18c0,0.72,0,1.439,0,2.16c0,0.18,0,0.359,0,0.54
	c0,0.18,0,0.359,0,0.54C51.66,46.141,51.66,46.561,51.66,46.98z"/>
<path fill-rule="evenodd" clip-rule="evenodd" fill="#0A1A3E" d="M70.56,42.301c1.56,0,3.12,0,4.681,0c0,1.56,0,3.119,0,4.68
	c-1.561,0-3.121,0-4.681,0c0,2.34,0,4.68,0,7.02c0,2.28,0,4.561,0,6.84c0,0.12,0,0.24,0,0.36c1.56,0,3.12,0,4.681,0
	c0,0.24,0,0.48,0,0.72c0,0.181,0,0.36,0,0.54c0,0.36,0,0.721,0,1.08c0,0.42,0,0.84,0,1.261c0,0.359,0,0.72,0,1.079
	c-1.44,0-2.881,0-4.32,0c-1.5,0-3,0-4.5,0c-0.18,0-0.36,0-0.54,0c0-0.239,0-0.479,0-0.72c0-0.18,0-0.359,0-0.54
	c0-0.359,0-0.72,0-1.08c0-0.779,0-1.56,0-2.34c-1.56,0-3.12,0-4.681,0c0-0.12,0-0.24,0-0.36c0-0.239,0-0.479,0-0.72
	c0-0.12,0-0.24,0-0.359c0-0.181,0-0.36,0-0.54c0-0.12,0-0.24,0-0.36c0-0.18,0-0.36,0-0.54c0-0.12,0-0.24,0-0.36
	c0-0.18,0-0.359,0-0.54c0-1.14,0-2.279,0-3.42c0-1.14,0-2.279,0-3.42c0-0.12,0-0.24,0-0.359c0-0.181,0-0.36,0-0.54
	c0-0.12,0-0.24,0-0.36c0-0.18,0-0.36,0-0.54c0-0.12,0-0.24,0-0.36c0-0.18,0-0.359,0-0.54c0-0.119,0-0.239,0-0.359
	c0-0.181,0-0.36,0-0.54c1.561,0,3.121,0,4.681,0c0-1.561,0-3.12,0-4.68C67.439,42.301,69,42.301,70.56,42.301z"/>
<path fill-rule="evenodd" clip-rule="evenodd" fill="#BB6B5C" d="M75.24,42.301c1.56,0,3.119,0,4.68,0c0,1.56,0,3.119,0,4.68
	c-1.561,0-3.12,0-4.68,0C75.24,45.42,75.24,43.86,75.24,42.301z"/>
<path fill-rule="evenodd" clip-rule="evenodd" fill="#0A1A3E" d="M79.92,42.301c1.561,0,3.12,0,4.68,0c0,1.92,0,3.84,0,5.76
	c0,1.979,0,3.96,0,5.939c0,0.96,0,1.92,0,2.88c0,0.48,0,0.96,0,1.44c0,0.54,0,1.08,0,1.62c0,0.96,0,1.92,0,2.88
	c0,0.48,0,0.96,0,1.44c0,0.54,0,1.079,0,1.619c-1.56,0-3.119,0-4.68,0c0-0.779,0-1.56,0-2.34c0-0.359,0-0.72,0-1.08
	c0-0.18,0-0.359,0-0.54c0-0.239,0-0.479,0-0.72c-0.18,0-0.36,0-0.54,0c-1.38,0-2.761,0-4.14,0c0-0.18,0-0.36,0-0.54
	c0-0.12,0-0.24,0-0.359c0-0.181,0-0.36,0-0.54c0-0.12,0-0.24,0-0.36c0-0.6,0-1.2,0-1.8c0-1.2,0-2.4,0-3.601c0-2.34,0-4.68,0-7.02
	c1.56,0,3.119,0,4.68,0C79.92,45.42,79.92,43.86,79.92,42.301z"/>
<path fill-rule="evenodd" clip-rule="evenodd" fill="#FDFEFF" d="M51.66,46.98c0,0.06,0,0.12,0,0.18c0,0.3,0,0.601,0,0.9
	s0,0.6,0,0.899c0,0.181,0,0.36,0,0.54c0,0.12,0,0.24,0,0.36c0,0.18,0,0.36,0,0.54c0,0.12,0,0.24,0,0.36c0,1.14,0,2.279,0,3.42
	c0,0.18,0,0.359,0,0.54c0,0.119,0,0.239,0,0.359c0,0.181,0,0.36,0,0.54c0,0.12,0,0.24,0,0.36c0,0.18,0,0.359,0,0.54
	c0,0.12,0,0.24,0,0.359c0,0.181,0,0.36,0,0.54c0,0.12,0,0.24,0,0.36c0,1.14,0,2.28,0,3.42c-1.44,0-2.881,0-4.32,0c-1.5,0-3,0-4.5,0
	c-0.18,0-0.36,0-0.54,0c0-0.06,0-0.12,0-0.18c0-0.24,0-0.48,0-0.72c0-0.12,0-0.24,0-0.36c0-0.18,0-0.36,0-0.54c0-0.12,0-0.24,0-0.36
	c0-0.18,0-0.359,0-0.54c0-0.12,0-0.239,0-0.359c0-0.181,0-0.36,0-0.54c0-0.12,0-0.24,0-0.36c0-0.18,0-0.36,0-0.54
	c0-0.12,0-0.24,0-0.36c0-0.18,0-0.359,0-0.539c0-0.12,0-0.24,0-0.36c0-0.18,0-0.36,0-0.54c0-0.12,0-0.24,0-0.36
	c0-0.18,0-0.359,0-0.54c0-1.14,0-2.279,0-3.42c0-0.12,0-0.24,0-0.359c0-0.181,0-0.36,0-0.54c0-0.301,0-0.601,0-0.9s0-0.6,0-0.9
	c0-0.119,0-0.239,0-0.359c0-0.181,0-0.36,0-0.54c0.06,0,0.12,0,0.18,0c0.06,0,0.12,0,0.18,0c0.12,0,0.24,0,0.36,0
	c0.18,0,0.36,0,0.54,0c0.36,0,0.72,0,1.08,0c0.18,0,0.36,0,0.54,0c0.18,0,0.36,0,0.54,0c0.42,0,0.84,0,1.26,0c0.719,0,1.44,0,2.16,0
	c0.181,0,0.36,0,0.54,0s0.36,0,0.54,0c0.181,0,0.36,0,0.54,0c0.24,0,0.48,0,0.721,0C51.539,46.98,51.6,46.98,51.66,46.98z"/>
<path fill-rule="evenodd" clip-rule="evenodd" fill="#0A1A3E" d="M51.66,46.98c0.18,0,0.359,0,0.539,0c0.181,0,0.36,0,0.541,0
	c0.42,0,0.84,0,1.26,0c0.18,0,0.359,0,0.54,0c0.18,0,0.36,0,0.54,0s0.359,0,0.539,0c0.24,0,0.48,0,0.721,0c0,0.12,0,0.24,0,0.359
	c0,1.141,0,2.28,0,3.421c0,1.14,0,2.279,0,3.42c0,1.14,0,2.279,0,3.42c0,0.12,0,0.239,0,0.359c0,0.181,0,0.36,0,0.54
	c0,0.12,0,0.24,0,0.36c0,0.18,0,0.36,0,0.54c0,0.12,0,0.24,0,0.36c0,0.18,0,0.359,0,0.54c0,0.119,0,0.239,0,0.359
	c0,0.18,0,0.36,0,0.54c-0.24,0-0.48,0-0.721,0c-0.18,0-0.359,0-0.539,0s-0.36,0-0.54,0c-0.181,0-0.36,0-0.54,0s-0.36,0-0.54,0
	c-0.181,0-0.36,0-0.54,0c-0.42,0-0.84,0-1.26,0c0-1.14,0-2.28,0-3.42c0-0.12,0-0.24,0-0.36c0-0.18,0-0.359,0-0.54
	c0-0.119,0-0.239,0-0.359c0-0.181,0-0.36,0-0.54c0-0.12,0-0.24,0-0.36c0-0.18,0-0.359,0-0.54c0-0.12,0-0.24,0-0.359
	c0-0.181,0-0.36,0-0.54c0-1.141,0-2.28,0-3.42c0-0.12,0-0.24,0-0.36c0-0.18,0-0.36,0-0.54c0-0.12,0-0.24,0-0.36
	c0-0.18,0-0.359,0-0.54c0-0.3,0-0.6,0-0.899s0-0.601,0-0.9C51.66,47.101,51.66,47.04,51.66,46.98z"/>
<path fill-rule="evenodd" clip-rule="evenodd" fill="#FDFEFF" d="M75.24,46.98c0,2.34,0,4.68,0,7.02c0,1.2,0,2.4,0,3.601
	c0,0.6,0,1.2,0,1.8c0,0.12,0,0.24,0,0.36c0,0.18,0,0.359,0,0.54c0,0.119,0,0.239,0,0.359c0,0.18,0,0.36,0,0.54
	c-1.561,0-3.121,0-4.681,0c0-0.12,0-0.24,0-0.36c0-2.279,0-4.56,0-6.84c0-2.34,0-4.68,0-7.02C72.119,46.98,73.68,46.98,75.24,46.98z
	"/>
<path fill-rule="evenodd" clip-rule="evenodd" fill="#D97761" d="M9.36,51.66c1.5,0,3,0,4.5,0s3,0,4.5,0c0.18,0,0.36,0,0.54,0
	c0,0.061,0,0.12,0,0.18c0,0.36,0,0.721,0,1.08c0,0.42,0,0.841,0,1.261c0,0.779,0,1.56,0,2.34c-1.62,0-3.24,0-4.86,0
	c-1.56,0-3.12,0-4.68,0C9.36,54.9,9.36,53.28,9.36,51.66z"/>
<path fill-rule="evenodd" clip-rule="evenodd" fill="#0A1A3E" d="M4.68,56.521c0,0.24,0,0.479,0,0.72c0,0.18,0,0.36,0,0.54
	s0,0.36,0,0.54s0,0.36,0,0.54c0,0.24,0,0.479,0,0.72c0,0.181,0,0.36,0,0.54c0,0.36,0,0.72,0,1.08c0,0.42,0,0.84,0,1.26
	c0,0.181,0,0.36,0,0.54c0,0.181,0,0.36,0,0.54c0,0.24,0,0.48,0,0.721c0,0.18,0,0.359,0,0.54c0,0.359,0,0.72,0,1.079
	c0,0.421,0,0.841,0,1.261c0,0.18,0,0.359,0,0.54c0,0.18,0,0.359,0,0.54c0,0.239,0,0.479,0,0.72c0,0.18,0,0.36,0,0.54
	c0,0.359,0,0.72,0,1.08c0,0.42,0,0.84,0,1.26c0,0.18,0,0.36,0,0.54s0,0.36,0,0.54c0,0.24,0,0.479,0,0.72c0,0.181,0,0.36,0,0.54
	c0,0.36,0,0.72,0,1.08c-0.18,0-0.36,0-0.54,0c-0.18,0-0.36,0-0.54,0c-0.18,0-0.36,0-0.54,0c-0.24,0-0.48,0-0.72,0
	c-0.18,0-0.36,0-0.54,0s-0.36,0-0.54,0c-0.42,0-0.84,0-1.26,0c0-0.36,0-0.72,0-1.08c0-0.42,0-0.84,0-1.26c0-0.36,0-0.72,0-1.08
	c0-0.42,0-0.84,0-1.26c0-0.36,0-0.721,0-1.08c0-0.42,0-0.84,0-1.26c0-0.36,0-0.721,0-1.08c0-0.42,0-0.84,0-1.261
	c0-0.359,0-0.72,0-1.079c0-0.421,0-0.841,0-1.261c0-0.359,0-0.72,0-1.08c0-0.42,0-0.84,0-1.26c0-0.36,0-0.72,0-1.08
	c0-0.42,0-0.84,0-1.26c0-0.36,0-0.72,0-1.08c0-0.18,0-0.36,0-0.54c0-0.24,0-0.479,0-0.72C1.56,56.521,3.12,56.521,4.68,56.521z"/>
<path fill-rule="evenodd" clip-rule="evenodd" fill="#E0B49C" d="M4.68,56.521c1.56,0,3.12,0,4.68,0s3.12,0,4.68,0
	c1.62,0,3.24,0,4.86,0c0,0.78,0,1.56,0,2.34s0,1.56,0,2.34s0,1.561,0,2.34c0,0.78,0,1.561,0,2.34c1.56,0,3.12,0,4.68,0
	c0,0.421,0,0.841,0,1.261c0,0.18,0,0.359,0,0.54c0,0.18,0,0.359,0,0.54c0,0.359,0,0.72,0,1.08c0,0.18,0,0.359,0,0.539
	c0,0.12,0,0.24,0,0.36c0,0.061,0,0.12,0,0.18c0,0.061,0,0.12,0,0.181c0.18,0,0.36,0,0.54,0c1.38,0,2.76,0,4.14,0
	c0,0.779,0,1.56,0,2.34c0,0.36,0,0.72,0,1.08c0,0.18,0,0.359,0,0.54c0,0.24,0,0.479,0,0.72c0.18,0,0.36,0,0.54,0
	c0.12,0,0.24,0,0.36,0c0.18,0,0.36,0,0.54,0c0.12,0,0.24,0,0.36,0c0.18,0,0.36,0,0.54,0c0.12,0,0.24,0,0.36,0c0.18,0,0.36,0,0.54,0
	c0.12,0,0.24,0,0.36,0c1.14,0,2.28,0,3.42,0c0.18,0,0.36,0,0.54,0c0.12,0,0.24,0,0.36,0c0.18,0,0.36,0,0.54,0c0.12,0,0.24,0,0.36,0
	c0.18,0,0.36,0,0.54,0c0.12,0,0.24,0,0.36,0c0.18,0,0.36,0,0.54,0c0.12,0,0.24,0,0.36,0c0.18,0,0.36,0,0.54,0c0.12,0,0.24,0,0.36,0
	c0.18,0,0.36,0,0.54,0c0.12,0,0.24,0,0.36,0c0.54,0,1.08,0,1.62,0c0,0.24,0,0.48,0,0.72c0,0.181,0,0.36,0,0.54
	c0,0.36,0,0.721,0,1.08c0,0.42,0,0.84,0,1.26c0,0.36,0,0.721,0,1.08c0,1.5,0,3,0,4.5c0,1.44,0,2.881,0,4.32c0,0.18,0,0.36,0,0.54
	c-0.78,0-1.56,0-2.34,0c-0.36,0-0.72,0-1.08,0c-0.18,0-0.36,0-0.54,0c-0.24,0-0.48,0-0.72,0c0,0.18,0,0.36,0,0.54
	c0,0.12,0,0.24,0,0.36c0,0.3,0,0.6,0,0.899s0,0.601,0,0.9s0,0.6,0,0.899c0,1.141,0,2.28,0,3.421c0,0.6,0,1.199,0,1.8
	c0,0.54,0,1.08,0,1.62c0,1.14,0,2.279,0,3.42c0,0.12,0,0.239,0,0.359c1.56,0,3.12,0,4.68,0c0,0.24,0,0.48,0,0.721
	c0,0.18,0,0.359,0,0.54c0,0.359,0,0.72,0,1.079c0,0.421,0,0.841,0,1.261c0,0.359,0,0.72,0,1.08c0,0.239,0,0.479,0,0.72
	c0,0.18,0,0.36,0,0.54c0,0.36,0,0.72,0,1.08c0,0.42,0,0.84,0,1.26c0,0.36,0,0.72,0,1.08c-0.78,0-1.56,0-2.34,0
	c-0.78,0-1.56,0-2.34,0c0,0.42,0,0.84,0,1.26c0,0.181,0,0.36,0,0.54s0,0.36,0,0.54c0,0.24,0,0.48,0,0.72c0,0.181,0,0.36,0,0.54
	c0,0.181,0,0.36,0,0.54c0,0.181,0,0.36,0,0.54c-0.24,0-0.48,0-0.72,0c-0.18,0-0.36,0-0.54,0c-0.36,0-0.72,0-1.08,0
	c-0.72,0-1.44,0-2.16,0c-0.06,0-0.12,0-0.18,0c0,0.181,0,0.36,0,0.54c0,2.94,0,5.88,0,8.82c-1.14,0-2.28,0-3.42,0
	c-1.2,0-2.4,0-3.6,0c-2.34,0-4.68,0-7.02,0c0-1.62,0-3.24,0-4.86c0-1.56,0-3.12,0-4.68s0-3.12,0-4.68c0-1.561,0-3.12,0-4.681
	c0-1.56,0-3.12,0-4.68s0-3.12,0-4.68c0-1.561,0-3.12,0-4.681c0-1.56,0-3.12,0-4.68c-1.62,0-3.24,0-4.86,0c0-0.78,0-1.56,0-2.34
	c0-0.36,0-0.72,0-1.08c0-0.18,0-0.36,0-0.54c0-0.24,0-0.48,0-0.72c-0.18,0-0.36,0-0.54,0c-0.18,0-0.36,0-0.54,0
	c-0.18,0-0.36,0-0.54,0c-0.18,0-0.36,0-0.54,0c-0.18,0-0.36,0-0.54,0s-0.36,0-0.54,0c-0.12,0-0.24,0-0.36,0c-0.18,0-0.36,0-0.54,0
	c-0.18,0-0.36,0-0.54,0c0-0.42,0-0.84,0-1.261c0-0.18,0-0.359,0-0.539c0-0.181,0-0.36,0-0.54c0-0.24,0-0.48,0-0.721
	c0-0.18,0-0.359,0-0.54c0-0.18,0-0.359,0-0.54c0-0.18,0-0.359,0-0.54c0-1.56,0-3.119,0-4.68c-0.42,0-0.84,0-1.26,0
	c-0.18,0-0.36,0-0.54,0c-0.18,0-0.36,0-0.54,0c-0.24,0-0.48,0-0.72,0c-0.18,0-0.36,0-0.54,0s-0.36,0-0.54,0c-0.18,0-0.36,0-0.54,0
	c0-0.36,0-0.72,0-1.08c0-0.18,0-0.359,0-0.54c0-0.24,0-0.479,0-0.72c0-0.18,0-0.36,0-0.54s0-0.36,0-0.54c0-0.42,0-0.84,0-1.26
	c0-0.36,0-0.721,0-1.08c0-0.18,0-0.36,0-0.54c0-0.24,0-0.48,0-0.72c0-0.181,0-0.36,0-0.54c0-0.181,0-0.36,0-0.54
	c0-0.42,0-0.84,0-1.261c0-0.359,0-0.72,0-1.079c0-0.181,0-0.36,0-0.54c0-0.24,0-0.48,0-0.721c0-0.18,0-0.359,0-0.54
	c0-0.18,0-0.359,0-0.54c0-0.42,0-0.84,0-1.26c0-0.36,0-0.72,0-1.08c0-0.18,0-0.359,0-0.54c0-0.24,0-0.479,0-0.72
	c0-0.18,0-0.36,0-0.54s0-0.36,0-0.54s0-0.36,0-0.54C4.68,57,4.68,56.761,4.68,56.521z"/>
<path fill-rule="evenodd" clip-rule="evenodd" fill="#D97761" d="M18.9,56.521c1.56,0,3.12,0,4.68,0c0,1.56,0,3.12,0,4.68
	c0,1.561,0,3.12,0,4.68c-1.56,0-3.12,0-4.68,0c0-0.779,0-1.56,0-2.34c0-0.779,0-1.56,0-2.34s0-1.56,0-2.34S18.9,57.301,18.9,56.521z
	"/>
<path fill-rule="evenodd" clip-rule="evenodd" fill="#BB6B5C" d="M75.24,61.2c1.379,0,2.76,0,4.14,0c0.18,0,0.36,0,0.54,0
	c0,0.24,0,0.48,0,0.72c0,0.181,0,0.36,0,0.54c0,0.36,0,0.721,0,1.08c0,0.78,0,1.561,0,2.34c-1.561,0-3.12,0-4.68,0
	c0-0.359,0-0.72,0-1.079c0-0.421,0-0.841,0-1.261c0-0.359,0-0.72,0-1.08c0-0.18,0-0.359,0-0.54C75.24,61.681,75.24,61.44,75.24,61.2
	z"/>
<path fill-rule="evenodd" clip-rule="evenodd" fill="#D97761" d="M23.58,65.88c1.56,0,3.12,0,4.68,0c0,0.78,0,1.561,0,2.341
	c0,0.779,0,1.56,0,2.34c-1.38,0-2.76,0-4.14,0c-0.18,0-0.36,0-0.54,0c0-0.061,0-0.12,0-0.181c0-0.06,0-0.119,0-0.18
	c0-0.12,0-0.24,0-0.36c0-0.18,0-0.359,0-0.539c0-0.36,0-0.721,0-1.08c0-0.181,0-0.36,0-0.54c0-0.181,0-0.36,0-0.54
	C23.58,66.721,23.58,66.301,23.58,65.88z"/>
<path fill-rule="evenodd" clip-rule="evenodd" fill="#0A1A3E" d="M75.24,65.88c1.56,0,3.119,0,4.68,0c0,1.561,0,3.12,0,4.681
	c0,0.359,0,0.72,0,1.08c0,0.42,0,0.84,0,1.26c0,0.18,0,0.36,0,0.54s0,0.36,0,0.54c0,0.42,0,0.84,0,1.26c-0.18,0-0.36,0-0.54,0
	c-0.181,0-0.36,0-0.54,0s-0.359,0-0.54,0c-0.24,0-0.479,0-0.72,0c-0.18,0-0.36,0-0.54,0c-0.181,0-0.36,0-0.54,0
	c-0.42,0-0.84,0-1.26,0c0-0.24,0-0.479,0-0.72c0-0.181,0-0.36,0-0.54s0-0.36,0-0.54s0-0.36,0-0.54c0-0.42,0-0.84,0-1.26
	c0-0.36,0-0.721,0-1.08c0-0.36,0-0.721,0-1.08c0-0.42,0-0.84,0-1.26c0-0.36,0-0.721,0-1.08c0-0.181,0-0.36,0-0.54
	C75.24,66.36,75.24,66.12,75.24,65.88z"/>
<path fill-rule="evenodd" clip-rule="evenodd" fill="#D97761" d="M28.26,70.561c0.78,0,1.56,0,2.34,0c0.78,0,1.56,0,2.34,0
	c2.94,0,5.88,0,8.82,0c0.18,0,0.36,0,0.54,0c0,0.24,0,0.479,0,0.72c0,0.18,0,0.36,0,0.54c0,0.36,0,0.72,0,1.08c0,0.18,0,0.36,0,0.54
	s0,0.36,0,0.54s0,0.359,0,0.54c0,0.24,0,0.479,0,0.72c-0.54,0-1.08,0-1.62,0c-0.12,0-0.24,0-0.36,0c-0.18,0-0.36,0-0.54,0
	c-0.12,0-0.24,0-0.36,0c-0.18,0-0.36,0-0.54,0c-0.12,0-0.24,0-0.36,0c-0.18,0-0.36,0-0.54,0c-0.12,0-0.24,0-0.36,0
	c-0.18,0-0.36,0-0.54,0c-0.12,0-0.24,0-0.36,0c-0.18,0-0.36,0-0.54,0c-0.12,0-0.24,0-0.36,0c-0.18,0-0.36,0-0.54,0
	c-1.14,0-2.28,0-3.42,0c-0.12,0-0.24,0-0.36,0c-0.18,0-0.36,0-0.54,0c-0.12,0-0.24,0-0.36,0c-0.18,0-0.36,0-0.54,0
	c-0.12,0-0.24,0-0.36,0c-0.18,0-0.36,0-0.54,0c-0.12,0-0.24,0-0.36,0c-0.18,0-0.36,0-0.54,0c0-0.24,0-0.479,0-0.72
	c0-0.181,0-0.36,0-0.54c0-0.36,0-0.72,0-1.08C28.26,72.12,28.26,71.34,28.26,70.561z"/>
<path fill-rule="evenodd" clip-rule="evenodd" fill="#BB6B5C" d="M75.24,70.561c0,0.359,0,0.72,0,1.08c0,0.42,0,0.84,0,1.26
	c0,0.18,0,0.36,0,0.54s0,0.36,0,0.54s0,0.359,0,0.54c0,0.24,0,0.479,0,0.72c-0.42,0-0.84,0-1.26,0c-0.181,0-0.361,0-0.541,0
	s-0.359,0-0.539,0c-0.24,0-0.48,0-0.721,0c-0.18,0-0.359,0-0.54,0c-0.18,0-0.36,0-0.54,0s-0.359,0-0.54,0c0-0.66,0-1.32,0-1.979
	c0-0.721,0-1.44,0-2.16c0-0.181,0-0.36,0-0.54C72.119,70.561,73.68,70.561,75.24,70.561z"/>
<path fill-rule="evenodd" clip-rule="evenodd" fill="#0A1A3E" d="M4.68,75.24c0.18,0,0.36,0,0.54,0c0.18,0,0.36,0,0.54,0
	s0.36,0,0.54,0c0.24,0,0.48,0,0.72,0c0.18,0,0.36,0,0.54,0c0.18,0,0.36,0,0.54,0c0.42,0,0.84,0,1.26,0c0,1.561,0,3.12,0,4.68
	c0,0.181,0,0.36,0,0.54c0,0.181,0,0.36,0,0.54c0,0.181,0,0.36,0,0.54c0,0.24,0,0.48,0,0.721c0,0.18,0,0.359,0,0.54
	c0,0.18,0,0.359,0,0.539c0,0.421,0,0.841,0,1.261c-0.18,0-0.36,0-0.54,0s-0.36,0-0.54,0s-0.36,0-0.54,0c-0.24,0-0.48,0-0.72,0
	c-0.18,0-0.36,0-0.54,0c-0.18,0-0.36,0-0.54,0c-0.42,0-0.84,0-1.26,0c0-1.44,0-2.88,0-4.32c0-0.72,0-1.44,0-2.16
	c0-0.359,0-0.72,0-1.08c0-0.18,0-0.359,0-0.54c0-0.239,0-0.479,0-0.72c0-0.06,0-0.12,0-0.18C4.68,75.48,4.68,75.36,4.68,75.24z"/>
<path fill-rule="evenodd" clip-rule="evenodd" fill="#D97761" d="M42.3,75.24c1.14,0,2.28,0,3.42,0c0.12,0,0.24,0,0.36,0
	c0.18,0,0.36,0,0.54,0c0.12,0,0.24,0,0.36,0c0.18,0,0.36,0,0.54,0c0.12,0,0.24,0,0.36,0c0.18,0,0.36,0,0.54,0c0.12,0,0.24,0,0.359,0
	c0.181,0,0.36,0,0.541,0c1.14,0,2.279,0,3.42,0c0.119,0,0.24,0,0.359,0c0.18,0,0.36,0,0.54,0c0.12,0,0.24,0,0.36,0
	c0.18,0,0.359,0,0.54,0c0.12,0,0.239,0,0.36,0c0.18,0,0.359,0,0.539,0c0.12,0,0.24,0,0.36,0c0.181,0,0.36,0,0.54,0
	c0,0.42,0,0.84,0,1.26c0,0.181,0,0.36,0,0.54c0,0.181,0,0.36,0,0.54c0,0.24,0,0.48,0,0.721c0,0.18,0,0.359,0,0.539
	c0,0.181,0,0.36,0,0.54c0,0.181,0,0.36,0,0.54c-0.18,0-0.359,0-0.54,0c-0.12,0-0.24,0-0.36,0c-0.18,0-0.359,0-0.539,0
	c-0.121,0-0.24,0-0.36,0c-0.181,0-0.36,0-0.54,0c-0.12,0-0.24,0-0.36,0c-0.18,0-0.36,0-0.54,0c-0.119,0-0.24,0-0.359,0
	c-1.141,0-2.28,0-3.42,0c-0.181,0-0.36,0-0.541,0c-0.119,0-0.239,0-0.359,0c-0.18,0-0.36,0-0.54,0c-0.12,0-0.24,0-0.36,0
	c-0.18,0-0.36,0-0.54,0c-0.12,0-0.24,0-0.36,0c-0.18,0-0.36,0-0.54,0c-0.12,0-0.24,0-0.36,0c-1.14,0-2.28,0-3.42,0
	c0-0.359,0-0.72,0-1.08c0-0.42,0-0.84,0-1.26c0-0.359,0-0.72,0-1.08c0-0.18,0-0.359,0-0.54C42.3,75.721,42.3,75.48,42.3,75.24z"/>
<path fill-rule="evenodd" clip-rule="evenodd" fill="#BB6B5C" d="M56.34,75.24c1.141,0,2.279,0,3.42,0c0.12,0,0.24,0,0.359,0
	c0.181,0,0.361,0,0.541,0c0.119,0,0.24,0,0.359,0c0.18,0,0.36,0,0.54,0c0.3,0,0.601,0,0.9,0s0.6,0,0.899,0c0.301,0,0.601,0,0.9,0
	s0.6,0,0.9,0c0.3,0,0.6,0,0.899,0s0.601,0,0.9,0s0.6,0,0.899,0c0.301,0,0.601,0,0.9,0s0.6,0,0.9,0c0.119,0,0.24,0,0.359,0
	c0.18,0,0.36,0,0.54,0c0,0.42,0,0.84,0,1.26c0,0.36,0,0.721,0,1.08c0,0.42,0,0.84,0,1.26c0,0.36,0,0.721,0,1.08
	c0.421,0,0.841,0,1.261,0c0.18,0,0.359,0,0.539,0c0.181,0,0.36,0,0.541,0c0.239,0,0.479,0,0.719,0c0.181,0,0.361,0,0.541,0
	s0.359,0,0.539,0c0.181,0,0.36,0,0.541,0c0,0.721,0,1.44,0,2.16c0,0.36,0,0.721,0,1.08c0,0.18,0,0.36,0,0.54c0,0.12,0,0.24,0,0.36
	c0,0.18,0,0.359,0,0.54c0.42,0,0.84,0,1.26,0c0.18,0,0.359,0,0.54,0c0.18,0,0.36,0,0.54,0c0.24,0,0.479,0,0.72,0
	c0.181,0,0.36,0,0.54,0s0.359,0,0.54,0c0.18,0,0.36,0,0.54,0c0,0.42,0,0.84,0,1.26c0,0.18,0,0.36,0,0.54s0,0.36,0,0.54
	c0,0.36,0,0.72,0,1.08c0,0.18,0,0.359,0,0.54c0,0.24,0,0.479,0,0.72c0.18,0,0.359,0,0.54,0c1.38,0,2.76,0,4.14,0
	c0,1.56,0,3.12,0,4.68c0.18,0,0.36,0,0.54,0c0.72,0,1.44,0,2.16,0c0.66,0,1.319,0,1.979,0c0,0.181,0,0.36,0,0.54
	c0,0.12,0,0.24,0,0.36c0,0.3,0,0.6,0,0.9c0,0.3,0,0.6,0,0.899s0,0.601,0,0.9c0,1.2,0,2.399,0,3.6s0,2.4,0,3.601
	c0,1.14,0,2.279,0,3.42c-2.34,0-4.68,0-7.02,0s-4.68,0-7.02,0c0-1.561,0-3.12,0-4.681c-1.561,0-3.121,0-4.681,0
	c0-1.56,0-3.12,0-4.68c-0.18,0-0.36,0-0.54,0c-1.38,0-2.76,0-4.14,0c0-2.4,0-4.8,0-7.2c0-2.34,0-4.68,0-7.02c-1.38,0-2.761,0-4.14,0
	c-0.181,0-0.36,0-0.541,0c0-0.24,0-0.48,0-0.721c0-0.18,0-0.359,0-0.54c0-0.18,0-0.359,0-0.539c0-0.181,0-0.36,0-0.54
	c0-0.12,0-0.24,0-0.36c0-0.24,0-0.48,0-0.72c0-0.12,0-0.24,0-0.36c0-0.18,0-0.36,0-0.54c0-0.06,0-0.12,0-0.18
	c0-0.061,0-0.12,0-0.181c-0.18,0-0.359,0-0.539,0c-1.44,0-2.881,0-4.32,0c0-0.18,0-0.359,0-0.54c0-0.18,0-0.359,0-0.54
	c0-0.18,0-0.359,0-0.539c0-0.24,0-0.48,0-0.721c0-0.18,0-0.359,0-0.54c0-0.18,0-0.359,0-0.54C56.34,76.08,56.34,75.66,56.34,75.24z"
	/>
<path fill-rule="evenodd" clip-rule="evenodd" fill="#0A1A3E" d="M70.56,75.24c0.181,0,0.36,0,0.54,0s0.36,0,0.54,0
	c0.181,0,0.36,0,0.54,0c0.24,0,0.48,0,0.721,0c0.18,0,0.359,0,0.539,0s0.36,0,0.541,0c0.42,0,0.84,0,1.26,0c0,0.18,0,0.36,0,0.54
	s0,0.36,0,0.54c0,0.42,0,0.84,0,1.26c0,0.181,0,0.36,0,0.54c0,0.181,0,0.36,0,0.54s0,0.36,0,0.54c0,0.24,0,0.48,0,0.72
	c-0.181,0-0.36,0-0.541,0c-0.18,0-0.359,0-0.539,0s-0.36,0-0.541,0c-0.239,0-0.479,0-0.719,0c-0.181,0-0.36,0-0.541,0
	c-0.18,0-0.359,0-0.539,0c-0.42,0-0.84,0-1.261,0c0-0.359,0-0.72,0-1.08c0-0.42,0-0.84,0-1.26c0-0.359,0-0.72,0-1.08
	C70.56,76.08,70.56,75.66,70.56,75.24z"/>
<path fill-rule="evenodd" clip-rule="evenodd" fill="#FDFEFF" d="M42.3,79.92c1.14,0,2.28,0,3.42,0c0.12,0,0.24,0,0.36,0
	c0.18,0,0.36,0,0.54,0c0.12,0,0.24,0,0.36,0c0.18,0,0.36,0,0.54,0c0.12,0,0.24,0,0.36,0c0.18,0,0.36,0,0.54,0c0.12,0,0.24,0,0.359,0
	c0.181,0,0.36,0,0.541,0c1.14,0,2.279,0,3.42,0c0.119,0,0.24,0,0.359,0c0.18,0,0.36,0,0.54,0c0.12,0,0.24,0,0.36,0
	c0.18,0,0.359,0,0.54,0c0.12,0,0.239,0,0.36,0c0.18,0,0.359,0,0.539,0c0.12,0,0.24,0,0.36,0c0.181,0,0.36,0,0.54,0
	c1.439,0,2.88,0,4.32,0c0.18,0,0.359,0,0.539,0c0,0.061,0,0.12,0,0.181c0,0.06,0,0.12,0,0.18c0,0.18,0,0.36,0,0.54
	c0,0.12,0,0.24,0,0.36c0,0.239,0,0.479,0,0.72c0,0.12,0,0.24,0,0.36c0,0.18,0,0.359,0,0.54c0,0.18,0,0.359,0,0.539
	c0,0.181,0,0.36,0,0.54c0,0.24,0,0.48,0,0.721c0.181,0,0.36,0,0.541,0c1.379,0,2.76,0,4.14,0c0,2.34,0,4.68,0,7.02
	c0,2.4,0,4.8,0,7.2c0,1.56,0,3.12,0,4.68c-1.56,0-3.12,0-4.681,0c0,1.38,0,2.761,0,4.141c0,0.18,0,0.359,0,0.54
	c-0.84,0-1.68,0-2.52,0c-0.42,0-0.84,0-1.26,0c-0.18,0-0.36,0-0.54,0c-0.181,0-0.36,0-0.54,0s-0.359,0-0.54,0c-0.12,0-0.24,0-0.36,0
	c-0.18,0-0.359,0-0.539,0c-0.121,0-0.24,0-0.36,0c-0.181,0-0.36,0-0.54,0c-0.12,0-0.24,0-0.36,0c-0.18,0-0.36,0-0.54,0
	c-0.119,0-0.24,0-0.359,0c-1.141,0-2.28,0-3.42,0c-0.181,0-0.36,0-0.541,0c-0.119,0-0.239,0-0.359,0c-0.18,0-0.36,0-0.54,0
	c-0.12,0-0.24,0-0.36,0c-0.18,0-0.36,0-0.54,0c-0.12,0-0.24,0-0.36,0c-0.18,0-0.36,0-0.54,0c-0.12,0-0.24,0-0.36,0
	c-1.14,0-2.28,0-3.42,0c0-0.36,0-0.721,0-1.08c0-0.42,0-0.84,0-1.261c0-0.359,0-0.72,0-1.079c0-0.181,0-0.36,0-0.54
	c0-0.24,0-0.48,0-0.721c-1.56,0-3.12,0-4.68,0c0-0.12,0-0.239,0-0.359c0-1.141,0-2.28,0-3.42c0-0.54,0-1.08,0-1.62
	c0-0.601,0-1.2,0-1.8c0-1.141,0-2.28,0-3.421c0-0.3,0-0.6,0-0.899s0-0.601,0-0.9s0-0.6,0-0.899c0-0.12,0-0.24,0-0.36
	c0-0.18,0-0.36,0-0.54c0.24,0,0.48,0,0.72,0c0.18,0,0.36,0,0.54,0c0.36,0,0.72,0,1.08,0c0.78,0,1.56,0,2.34,0c0-0.18,0-0.36,0-0.54
	c0-1.439,0-2.88,0-4.32C42.3,82.92,42.3,81.42,42.3,79.92z"/>
<path fill-rule="evenodd" clip-rule="evenodd" fill="#0A1A3E" d="M75.24,79.92c0.06,0,0.119,0,0.18,0s0.119,0,0.18,0
	c0.12,0,0.24,0,0.36,0c0.18,0,0.36,0,0.54,0s0.359,0,0.54,0c0.18,0,0.36,0,0.54,0s0.359,0,0.539,0c0.181,0,0.361,0,0.541,0
	c0.42,0,0.84,0,1.26,0c0,0.181,0,0.36,0,0.54c0,0.12,0,0.24,0,0.36c0,0.18,0,0.36,0,0.54c0,0.36,0,0.72,0,1.08
	c0,0.72,0,1.439,0,2.16c-0.18,0-0.36,0-0.54,0c-0.181,0-0.36,0-0.54,0s-0.359,0-0.54,0c-0.24,0-0.479,0-0.72,0
	c-0.18,0-0.36,0-0.54,0c-0.181,0-0.36,0-0.54,0c-0.42,0-0.84,0-1.26,0c0-0.181,0-0.36,0-0.54c0-0.12,0-0.24,0-0.36
	c0-0.18,0-0.36,0-0.54c0-0.359,0-0.72,0-1.08C75.24,81.36,75.24,80.641,75.24,79.92z"/>
<path fill-rule="evenodd" clip-rule="evenodd" fill="#0A1A3E" d="M9.36,84.601c0.18,0,0.36,0,0.54,0c0.18,0,0.36,0,0.54,0
	c0.12,0,0.24,0,0.36,0c0.18,0,0.36,0,0.54,0s0.36,0,0.54,0c0.18,0,0.36,0,0.54,0c0.18,0,0.36,0,0.54,0c0.18,0,0.36,0,0.54,0
	c0.18,0,0.36,0,0.54,0c0,0.239,0,0.479,0,0.72c0,0.18,0,0.36,0,0.54c0,0.36,0,0.72,0,1.08c0,0.78,0,1.56,0,2.34
	c-1.56,0-3.12,0-4.68,0c0-0.3,0-0.6,0-0.9c0-0.359,0-0.72,0-1.079c0-0.181,0-0.36,0-0.54c0-0.181,0-0.36,0-0.54
	c0-0.181,0-0.36,0-0.54c0-0.181,0-0.36,0-0.54C9.36,84.96,9.36,84.78,9.36,84.601z"/>
<path fill-rule="evenodd" clip-rule="evenodd" fill="#0A1A3E" d="M79.92,84.601c0.061,0,0.119,0,0.18,0s0.12,0,0.18,0
	c0.121,0,0.24,0,0.36,0c0.181,0,0.36,0,0.54,0s0.36,0,0.54,0c0.181,0,0.36,0,0.54,0s0.359,0,0.54,0s0.36,0,0.54,0
	c0.42,0,0.84,0,1.26,0c0,0.18,0,0.359,0,0.54c0,0.12,0,0.239,0,0.359c0,0.181,0,0.36,0,0.54c0,0.36,0,0.721,0,1.08
	c0,0.72,0,1.44,0,2.16c-1.38,0-2.76,0-4.14,0c-0.181,0-0.36,0-0.54,0c0-0.24,0-0.479,0-0.72c0-0.181,0-0.36,0-0.54
	c0-0.36,0-0.72,0-1.08c0-0.18,0-0.36,0-0.54s0-0.36,0-0.54C79.92,85.44,79.92,85.021,79.92,84.601z"/>
<path fill-rule="evenodd" clip-rule="evenodd" fill="#0A1A3E" d="M14.04,89.28c1.62,0,3.24,0,4.86,0c0,1.56,0,3.12,0,4.68
	c0,1.561,0,3.12,0,4.681c0,1.56,0,3.12,0,4.68s0,3.12,0,4.68c0,1.561,0,3.12,0,4.681c0,1.56,0,3.12,0,4.68s0,3.12,0,4.68
	c0,1.62,0,3.24,0,4.86c-1.62,0-3.24,0-4.86,0c0-1.5,0-3,0-4.5c0-0.78,0-1.561,0-2.34c0-0.78,0-1.561,0-2.34c0-1.561,0-3.12,0-4.681
	c0-1.56,0-3.12,0-4.68c0-1.5,0-3,0-4.5c0-0.78,0-1.56,0-2.34s0-1.561,0-2.34c0-1.561,0-3.12,0-4.681c0-0.779,0-1.56,0-2.34
	c0-0.359,0-0.72,0-1.08c0-0.42,0-0.84,0-1.26C14.04,89.641,14.04,89.46,14.04,89.28z"/>
<path fill-rule="evenodd" clip-rule="evenodd" fill="#0A1A3E" d="M84.6,89.28c1.561,0,3.12,0,4.68,0c0,1.56,0,3.12,0,4.68
	c-0.66,0-1.319,0-1.979,0c-0.72,0-1.44,0-2.16,0c-0.18,0-0.36,0-0.54,0C84.6,92.4,84.6,90.84,84.6,89.28z"/>
<path fill-rule="evenodd" clip-rule="evenodd" fill="#0A1A3E" d="M89.279,93.96c0.061,0,0.121,0,0.181,0s0.12,0,0.18,0
	c0.3,0,0.601,0,0.9,0c0.36,0,0.72,0,1.079,0c0.781,0,1.561,0,2.341,0c0,2.341,0,4.681,0,7.021c0,2.399,0,4.8,0,7.2
	c-1.56,0-3.12,0-4.681,0c0-1.141,0-2.28,0-3.42c0-1.2,0-2.4,0-3.601s0-2.399,0-3.6c0-0.3,0-0.601,0-0.9s0-0.6,0-0.899
	c0-0.301,0-0.601,0-0.9c0-0.12,0-0.24,0-0.36C89.279,94.32,89.279,94.141,89.279,93.96z"/>
<path fill-rule="evenodd" clip-rule="evenodd" fill="#0A1A3E" d="M65.88,98.82c1.38,0,2.76,0,4.14,0c0.18,0,0.36,0,0.54,0
	c0,1.56,0,3.12,0,4.68c1.56,0,3.12,0,4.681,0c0,1.561,0,3.12,0,4.681c-1.561,0-3.121,0-4.681,0c0,0.12,0,0.239,0,0.359
	c0,3.061,0,6.12,0,9.181c0,3.06,0,6.119,0,9.18c-1.56,0-3.12,0-4.68,0c0-0.54,0-1.08,0-1.62c0-0.479,0-0.96,0-1.44
	c0-0.96,0-1.92,0-2.88c0-1.92,0-3.84,0-5.76c0-1.979,0-3.96,0-5.939c0-1.921,0-3.841,0-5.761C65.88,101.94,65.88,100.38,65.88,98.82
	z"/>
<path fill-rule="evenodd" clip-rule="evenodd" fill="#BB6B5C" d="M65.88,103.5c0,1.92,0,3.84,0,5.761c0,1.979,0,3.96,0,5.939
	c0,1.92,0,3.84,0,5.76c0,0.96,0,1.92,0,2.88c0,0.48,0,0.961,0,1.44c0,0.54,0,1.08,0,1.62c-1.14,0-2.28,0-3.42,0
	c-0.12,0-0.24,0-0.36,0c-0.18,0-0.359,0-0.54,0c-0.12,0-0.239,0-0.36,0c-0.18,0-0.359,0-0.539,0c-0.12,0-0.24,0-0.36,0
	c-0.181,0-0.36,0-0.54,0c-0.12,0-0.24,0-0.359,0c-0.181,0-0.36,0-0.541,0c-0.119,0-0.24,0-0.359,0c-0.18,0-0.36,0-0.54,0
	c-0.12,0-0.24,0-0.36,0c-0.18,0-0.359,0-0.54,0c-0.12,0-0.239,0-0.36,0c-0.18,0-0.359,0-0.539,0c-0.12,0-0.24,0-0.36,0
	c-0.181,0-0.36,0-0.54,0c-0.12,0-0.24,0-0.359,0c-0.181,0-0.36,0-0.541,0c-0.119,0-0.24,0-0.359,0c-0.18,0-0.36,0-0.54,0
	c-0.12,0-0.24,0-0.36,0c-0.18,0-0.359,0-0.54,0c-0.12,0-0.239,0-0.36,0c-0.18,0-0.359,0-0.539,0c0-2.94,0-5.88,0-8.82
	c0-0.18,0-0.359,0-0.54c-0.24,0-0.48,0-0.721,0c-0.18,0-0.359,0-0.539,0c-0.181,0-0.36,0-0.541,0c-0.18,0-0.359,0-0.539,0
	c-0.42,0-0.84,0-1.261,0c-0.18,0-0.36,0-0.54,0c-0.18,0-0.36,0-0.54,0c0-0.42,0-0.84,0-1.26c0-0.18,0-0.36,0-0.54s0-0.36,0-0.54
	c0-0.24,0-0.479,0-0.72c0-0.18,0-0.36,0-0.54s0-0.36,0-0.54s0-0.36,0-0.54c1.5,0,3,0,4.5,0c1.439,0,2.879,0,4.319,0
	c0.181,0,0.36,0,0.54,0c0-0.42,0-0.84,0-1.26c0-0.181,0-0.36,0-0.54c0-0.181,0-0.36,0-0.54c0-0.24,0-0.48,0-0.72
	c0-0.181,0-0.36,0-0.54c0-0.181,0-0.36,0-0.54c0-0.181,0-0.36,0-0.54c0.18,0,0.359,0,0.54,0c0.18,0,0.36,0,0.54,0
	c0.42,0,0.84,0,1.26,0c0.84,0,1.68,0,2.52,0c0-0.181,0-0.36,0-0.54c0-1.38,0-2.761,0-4.141C62.76,103.5,64.32,103.5,65.88,103.5z"/>
<path fill-rule="evenodd" clip-rule="evenodd" fill="#D97761" d="M42.3,108.181c1.14,0,2.28,0,3.42,0c0.12,0,0.24,0,0.36,0
	c0.18,0,0.36,0,0.54,0c0.12,0,0.24,0,0.36,0c0.18,0,0.36,0,0.54,0c0.12,0,0.24,0,0.36,0c0.18,0,0.36,0,0.54,0c0.12,0,0.24,0,0.359,0
	c0.181,0,0.36,0,0.541,0c1.14,0,2.279,0,3.42,0c0.119,0,0.24,0,0.359,0c0.18,0,0.36,0,0.54,0c0.12,0,0.24,0,0.36,0
	c0.18,0,0.359,0,0.54,0c0.12,0,0.239,0,0.36,0c0.18,0,0.359,0,0.539,0c0.12,0,0.24,0,0.36,0c0.181,0,0.36,0,0.54,0
	c0,0.18,0,0.359,0,0.54c0,0.18,0,0.359,0,0.54c0,0.18,0,0.359,0,0.54c0,0.239,0,0.479,0,0.72c0,0.18,0,0.359,0,0.54
	c0,0.18,0,0.359,0,0.54c0,0.42,0,0.84,0,1.26c-0.18,0-0.359,0-0.54,0c-1.44,0-2.88,0-4.319,0c-1.5,0-3,0-4.5,0
	c-0.42,0-0.84,0-1.26,0c-0.18,0-0.36,0-0.54,0c-0.18,0-0.36,0-0.54,0c-0.24,0-0.48,0-0.72,0c-0.18,0-0.36,0-0.54,0
	c-0.18,0-0.36,0-0.54,0s-0.36,0-0.54,0c0-0.36,0-0.72,0-1.08c0-0.42,0-0.84,0-1.26c0-0.36,0-0.72,0-1.08c0-0.18,0-0.36,0-0.54
	C42.3,108.66,42.3,108.42,42.3,108.181z"/>
<path fill-rule="evenodd" clip-rule="evenodd" fill="#0A1A3E" d="M75.24,108.181c2.34,0,4.68,0,7.02,0s4.68,0,7.02,0
	c0,1.56,0,3.12,0,4.68c-2.34,0-4.68,0-7.02,0s-4.68,0-7.02,0C75.24,111.301,75.24,109.74,75.24,108.181z"/>
<path fill-rule="evenodd" clip-rule="evenodd" fill="#0A1A3E" d="M42.3,112.86c0.18,0,0.36,0,0.54,0s0.36,0,0.54,0
	c0.18,0,0.36,0,0.54,0c0.24,0,0.48,0,0.72,0c0.18,0,0.36,0,0.54,0c0.18,0,0.36,0,0.54,0c0.42,0,0.84,0,1.26,0c0,0.18,0,0.36,0,0.54
	s0,0.36,0,0.54s0,0.36,0,0.54c0,0.24,0,0.479,0,0.72c0,0.18,0,0.36,0,0.54s0,0.36,0,0.54c0,0.42,0,0.84,0,1.26
	c-0.36,0-0.72,0-1.08,0c-0.42,0-0.84,0-1.26,0c-0.36,0-0.72,0-1.08,0c-0.42,0-0.84,0-1.26,0c-1.56,0-3.12,0-4.68,0
	c0-0.18,0-0.359,0-0.54c0-0.18,0-0.359,0-0.54c0-0.18,0-0.359,0-0.54c0-0.239,0-0.479,0-0.72c0-0.18,0-0.36,0-0.54s0-0.359,0-0.54
	c0-0.42,0-0.84,0-1.26c0.78,0,1.56,0,2.34,0C40.74,112.86,41.52,112.86,42.3,112.86z"/>
<path fill-rule="evenodd" clip-rule="evenodd" fill="#0A1A3E" d="M37.62,117.54c0,0.061,0,0.12,0,0.181c0,0.06,0,0.12,0,0.18
	c0,0.12,0,0.24,0,0.36c0,0.18,0,0.359,0,0.54c0,0.359,0,0.72,0,1.079c0,0.181,0,0.36,0,0.54c0,0.181,0,0.36,0,0.54
	c0,0.181,0,0.36,0,0.54c0,0.24,0,0.48,0,0.721c0,0.18,0,0.359,0,0.54c0,0.18,0,0.359,0,0.54c0,0.18,0,0.359,0,0.539
	c0,0.24,0,0.48,0,0.721c0,0.18,0,0.359,0,0.54c0,0.18,0,0.359,0,0.54c0,0.42,0,0.84,0,1.26c-1.56,0-3.12,0-4.68,0
	c0-2.94,0-5.88,0-8.82c0-0.18,0-0.359,0-0.54c0.06,0,0.12,0,0.18,0c0.72,0,1.44,0,2.16,0c0.36,0,0.72,0,1.08,0c0.18,0,0.36,0,0.54,0
	C37.14,117.54,37.38,117.54,37.62,117.54z"/>
<path fill-rule="evenodd" clip-rule="evenodd" fill="#0A1A3E" d="M46.98,117.54c0.18,0,0.36,0,0.54,0c0.179,0,0.36,0,0.54,0
	c0.421,0,0.841,0,1.261,0c0.18,0,0.359,0,0.539,0c0.181,0,0.36,0,0.541,0c0.18,0,0.359,0,0.539,0c0.24,0,0.48,0,0.721,0
	c0,0.181,0,0.36,0,0.54c0,2.94,0,5.88,0,8.82c-0.18,0-0.36,0-0.541,0c-0.18,0-0.359,0-0.539,0s-0.36,0-0.54,0c-0.24,0-0.48,0-0.72,0
	c-0.181,0-0.36,0-0.541,0c-0.18,0-0.359,0-0.539,0c-0.42,0-0.84,0-1.26,0c0-1.44,0-2.88,0-4.32c0-0.72,0-1.439,0-2.16
	c0-0.18,0-0.359,0-0.54c0-0.18,0-0.359,0-0.54c0-0.18,0-0.359,0-0.539c0-0.24,0-0.48,0-0.721
	C46.98,117.9,46.98,117.721,46.98,117.54z"/>
</svg>
