<?xml version="1.0" encoding="utf-8"?>
<!-- Generator: Adobe Illustrator 15.0.0, SVG Export Plug-In  -->
<!DOCTYPE svg PUBLIC "-//W3C//DTD SVG 1.1//EN" "http://www.w3.org/Graphics/SVG/1.1/DTD/svg11.dtd" [
	<!ENTITY ns_flows "http://ns.adobe.com/Flows/1.0/">
]>
<svg version="1.1"
	 xmlns="http://www.w3.org/2000/svg" xmlns:xlink="http://www.w3.org/1999/xlink" xmlns:a="http://ns.adobe.com/AdobeSVGViewerExtensions/3.0/"
	 x="0px" y="0px" width="100px" height="150px" viewBox="-12.116 -18.42 100 150" enable-background="new -12.116 -18.42 100 150"
	 xml:space="preserve">
<defs>
</defs>
<path fill-rule="evenodd" clip-rule="evenodd" fill="#0A1A3E" d="M14.04,0c0.06,0,0.12,0,0.18,0c0.78,0,1.56,0,2.34,0
	c0.42,0,0.84,0,1.26,0c0.36,0,0.72,0,1.08,0c0.42,0,0.84,0,1.26,0c0.36,0,0.72,0,1.08,0c0.42,0,0.84,0,1.26,0c0.36,0,0.72,0,1.08,0
	c0,0.24,0,0.48,0,0.72c0,0.181,0,0.36,0,0.54c0,0.36,0,0.721,0,1.08c0,0.42,0,0.84,0,1.26c0,0.36,0,0.721,0,1.08
	c-1.62,0-3.24,0-4.86,0c-0.78,0-1.56,0-2.34,0c-0.24,0-0.48,0-0.72,0c-0.18,0-0.36,0-0.54,0c-0.36,0-0.72,0-1.08,0
	c0-0.18,0-0.359,0-0.54c0-0.18,0-0.359,0-0.54c0-0.18,0-0.359,0-0.54c0-0.18,0-0.359,0-0.54c0-0.18,0-0.359,0-0.539
	c0-0.181,0-0.36,0-0.54c0-0.181,0-0.36,0-0.54c0-0.24,0-0.48,0-0.721C14.04,0.12,14.04,0.06,14.04,0z"/>
<path fill-rule="evenodd" clip-rule="evenodd" fill="#0A1A3E" d="M46.98,0c0.061,0,0.12,0,0.18,0c3.061,0,6.12,0,9.18,0
	c0,0.24,0,0.48,0,0.72c0,0.181,0,0.36,0,0.54c0,0.36,0,0.721,0,1.08c0,0.42,0,0.84,0,1.26c0,0.36,0,0.721,0,1.08
	c-1.56,0-3.119,0-4.68,0c-1.56,0-3.119,0-4.68,0c0-0.359,0-0.72,0-1.08c0-0.42,0-0.84,0-1.26c0-0.359,0-0.72,0-1.08
	c0-0.18,0-0.359,0-0.54C46.98,0.48,46.98,0.24,46.98,0z"/>
<path fill-rule="evenodd" clip-rule="evenodd" fill="#0A1A3E" d="M14.04,4.68c0,0.061,0,0.12,0,0.181c0,0.239,0,0.479,0,0.72
	c0,0.18,0,0.36,0,0.54s0,0.36,0,0.54s0,0.359,0,0.54c0,0.72,0,1.439,0,2.16c-0.78,0-1.56,0-2.34,0c-0.24,0-0.48,0-0.72,0
	c-0.18,0-0.36,0-0.54,0s-0.36,0-0.54,0c-0.18,0-0.36,0-0.54,0c0-0.12,0-0.24,0-0.36c0-0.18,0-0.36,0-0.54c0-0.36,0-0.72,0-1.08
	c0-0.72,0-1.439,0-2.16c0-0.18,0-0.359,0-0.54c0.24,0,0.48,0,0.72,0c0.18,0,0.36,0,0.54,0c0.36,0,0.72,0,1.08,0
	c0.36,0,0.72,0,1.08,0C13.2,4.68,13.62,4.68,14.04,4.68z"/>
<path fill-rule="evenodd" clip-rule="evenodd" fill="#E0B49C" d="M14.04,4.68c0.36,0,0.72,0,1.08,0c0.18,0,0.36,0,0.54,0
	c0.24,0,0.48,0,0.72,0c0.78,0,1.56,0,2.34,0c1.62,0,3.24,0,4.86,0c0,0.24,0,0.48,0,0.721c0,0.18,0,0.359,0,0.54
	c0,0.359,0,0.72,0,1.079c0,0.36,0,0.721,0,1.08c0,0.181,0,0.36,0,0.54c0,0.24,0,0.48,0,0.721c0.18,0,0.36,0,0.54,0
	c0.72,0,1.44,0,2.16,0c0.36,0,0.72,0,1.08,0c0.3,0,0.6,0,0.9,0c0,0.779,0,1.56,0,2.34c0,0.72,0,1.439,0,2.16c0,0.06,0,0.12,0,0.18
	c0.18,0,0.36,0,0.54,0c0.72,0,1.44,0,2.16,0c0.36,0,0.72,0,1.08,0c0.18,0,0.36,0,0.54,0c0.12,0,0.24,0,0.36,0c0,0.42,0,0.84,0,1.26
	c0,0.181,0,0.36,0,0.54s0,0.36,0,0.54c0,0.24,0,0.48,0,0.72c0,0.181,0,0.36,0,0.54c0,0.36,0,0.721,0,1.08c-0.78,0-1.56,0-2.34,0
	c-0.36,0-0.72,0-1.08,0c-0.18,0-0.36,0-0.54,0c-0.24,0-0.48,0-0.72,0c0,0.181,0,0.36,0,0.54c0,1.26,0,2.521,0,3.78
	c0,0.18,0,0.36,0,0.54c2.34,0,4.68,0,7.02,0c2.34,0,4.681,0,7.021,0c0,0.42,0,0.84,0,1.26c0,0.18,0,0.36,0,0.54s0,0.36,0,0.54
	c0,0.24,0,0.48,0,0.72c0,0.181,0,0.36,0,0.54c0,0.181,0,0.36,0,0.54c0,0.181,0,0.36,0,0.54c0.24,0,0.479,0,0.72,0
	c0.181,0,0.36,0,0.54,0c0.359,0,0.72,0,1.08,0c0.42,0,0.84,0,1.26,0c0.359,0,0.721,0,1.08,0c0,0.42,0,0.84,0,1.26
	c0,0.36,0,0.721,0,1.08c0,0.42,0,0.841,0,1.261c0,0.359,0,0.72,0,1.08c-0.18,0-0.359,0-0.54,0c-0.12,0-0.239,0-0.36,0
	c-0.18,0-0.359,0-0.539,0c-0.121,0-0.24,0-0.36,0c-0.601,0-1.2,0-1.8,0c-1.141,0-2.28,0-3.42,0c-0.181,0-0.36,0-0.541,0
	c-0.119,0-0.239,0-0.359,0c-0.18,0-0.36,0-0.54,0c-0.12,0-0.24,0-0.36,0c-0.6,0-1.2,0-1.8,0c-1.14,0-2.28,0-3.42,0
	c0,0.42,0,0.84,0,1.26c0,0.18,0,0.359,0,0.54c0,0.18,0,0.359,0,0.54c0,0.239,0,0.479,0,0.72c0,0.18,0,0.36,0,0.54
	c0,0.36,0,0.72,0,1.08c-0.78,0-1.56,0-2.34,0c-0.36,0-0.72,0-1.08,0c-0.18,0-0.36,0-0.54,0c-0.24,0-0.48,0-0.72,0
	c0,0.18,0,0.36,0,0.54s0,0.359,0,0.54c0,0.12,0,0.24,0,0.359c0,0.181,0,0.36,0,0.54c0,0.12,0,0.24,0,0.36c0,0.18,0,0.36,0,0.54
	c0,0.12,0,0.24,0,0.36c0,0.18,0,0.359,0,0.54c0,0.119,0,0.239,0,0.359c0,0.181,0,0.36,0,0.54c-0.42,0-0.84,0-1.26,0
	c-0.18,0-0.36,0-0.54,0s-0.36,0-0.54,0c-0.18,0-0.36,0-0.54,0c-0.18,0-0.36,0-0.54,0c-0.18,0-0.36,0-0.54,0c-0.12,0-0.24,0-0.36,0
	c-0.06,0-0.12,0-0.18,0c-0.06,0-0.12,0-0.18,0c0,0.181,0,0.36,0,0.54c0,0.24,0,0.48,0,0.72c0,0.181,0,0.36,0,0.54
	c0,0.36,0,0.721,0,1.08c0,0.42,0,0.84,0,1.261c0,0.359,0,0.72,0,1.079c0,1.5,0,3,0,4.5c0,1.561,0,3.12,0,4.681c0,1.5,0,3,0,4.5
	c0.78,0,1.56,0,2.34,0c0.42,0,0.84,0,1.26,0c0.36,0,0.72,0,1.08,0c0,0.78,0,1.56,0,2.34s0,1.56,0,2.34s0,1.561,0,2.34
	c0,0.78,0,1.561,0,2.34c-0.78,0-1.56,0-2.34,0c-0.78,0-1.56,0-2.34,0c0,0.78,0,1.561,0,2.341c0,0.779,0,1.56,0,2.34
	c-1.62,0-3.24,0-4.86,0c-0.78,0-1.56,0-2.34,0c-0.42,0-0.84,0-1.26,0c-0.36,0-0.72,0-1.08,0c0-0.42,0-0.84,0-1.26
	c0-0.181,0-0.36,0-0.54c0-0.181,0-0.36,0-0.54c0-0.181,0-0.36,0-0.54c0-0.181,0-0.36,0-0.54c0-0.181,0-0.36,0-0.54
	c0-0.24,0-0.48,0-0.721c-0.18,0-0.36,0-0.54,0c-0.72,0-1.44,0-2.16,0c-0.36,0-0.72,0-1.08,0c-0.18,0-0.36,0-0.54,0
	c-0.12,0-0.24,0-0.36,0c0-0.779,0-1.56,0-2.34c0-0.779,0-1.56,0-2.34c0-1.56,0-3.12,0-4.68c-0.42,0-0.84,0-1.26,0
	c-0.36,0-0.72,0-1.08,0c-0.42,0-0.84,0-1.26,0c-0.36,0-0.72,0-1.08,0c0-3.181,0-6.36,0-9.54c0-1.561,0-3.12,0-4.68
	c0-0.24,0-0.48,0-0.721c0-0.18,0-0.359,0-0.54c0-0.18,0-0.359,0-0.54c0-0.18,0-0.359,0-0.54c0-0.239,0-0.479,0-0.72
	c0-0.18,0-0.36,0-0.54s0-0.36,0-0.54s0-0.359,0-0.54c0.42,0,0.84,0,1.26,0c0.18,0,0.36,0,0.54,0s0.36,0,0.54,0s0.36,0,0.54,0
	s0.36,0,0.54,0c0.18,0,0.36,0,0.54,0c0.12,0,0.24,0,0.36,0c0.06,0,0.12,0,0.18,0s0.12,0,0.18,0c0-0.18,0-0.359,0-0.54
	c0-0.72,0-1.439,0-2.16c0-0.359,0-0.72,0-1.08c0-0.18,0-0.359,0-0.539c0-0.12,0-0.24,0-0.36c0-0.78,0-1.561,0-2.34
	c0-0.78,0-1.561,0-2.34c0.42,0,0.84,0,1.26,0c0.18,0,0.36,0,0.54,0c0.18,0,0.36,0,0.54,0c0.18,0,0.36,0,0.54,0c0.18,0,0.36,0,0.54,0
	c0.36,0,0.72,0,1.08,0c0.06,0,0.12,0,0.18,0c0-0.181,0-0.36,0-0.54c0-0.721,0-1.44,0-2.16c0-0.66,0-1.32,0-1.98c1.5,0,3,0,4.5,0
	c0.06,0,0.12,0,0.18,0c0-0.18,0-0.359,0-0.54c0-1.2,0-2.399,0-3.6c0-0.18,0-0.36,0-0.54c-0.78,0-1.56,0-2.34,0
	c-0.42,0-0.84,0-1.26,0c-0.36,0-0.72,0-1.08,0c0-0.84,0-1.68,0-2.521c0-0.779,0-1.56,0-2.34c-0.78,0-1.56,0-2.34,0
	c-0.24,0-0.48,0-0.72,0c-0.18,0-0.36,0-0.54,0s-0.36,0-0.54,0c-0.18,0-0.36,0-0.54,0c0-0.779,0-1.56,0-2.34c0-0.24,0-0.479,0-0.72
	c0-0.18,0-0.36,0-0.54c0-0.36,0-0.72,0-1.08c0-0.78,0-1.56,0-2.34c0-0.24,0-0.48,0-0.72c0-0.181,0-0.36,0-0.54
	c0-0.181,0-0.36,0-0.54c0-0.181,0-0.36,0-0.54c0.18,0,0.36,0,0.54,0c0.18,0,0.36,0,0.54,0s0.36,0,0.54,0c0.24,0,0.48,0,0.72,0
	c0.78,0,1.56,0,2.34,0c0-0.721,0-1.44,0-2.16c0-0.181,0-0.36,0-0.54s0-0.36,0-0.54s0-0.36,0-0.54c0-0.24,0-0.48,0-0.72
	C14.04,4.8,14.04,4.74,14.04,4.68z"/>
<path fill-rule="evenodd" clip-rule="evenodd" fill="#0A1A3E" d="M23.58,4.68c0.78,0,1.56,0,2.34,0c0.78,0,1.56,0,2.34,0
	c0,0.181,0,0.36,0,0.54c0,0.12,0,0.24,0,0.36c0,0.18,0,0.36,0,0.54c0,0.36,0,0.72,0,1.08c0,0.72,0,1.439,0,2.16c-0.3,0-0.6,0-0.9,0
	c-0.36,0-0.72,0-1.08,0c-0.72,0-1.44,0-2.16,0c-0.18,0-0.36,0-0.54,0c0-0.24,0-0.48,0-0.721c0-0.18,0-0.359,0-0.54
	c0-0.359,0-0.72,0-1.08c0-0.359,0-0.72,0-1.079c0-0.181,0-0.36,0-0.54C23.58,5.16,23.58,4.92,23.58,4.68z"/>
<path fill-rule="evenodd" clip-rule="evenodd" fill="#0A1A3E" d="M46.98,4.68c0,0.061,0,0.12,0,0.181c0,0.239,0,0.479,0,0.72
	c0,0.18,0,0.36,0,0.54c0,0.36,0,0.72,0,1.08c0,0.72,0,1.439,0,2.16c-0.42,0-0.84,0-1.26,0c-0.18,0-0.36,0-0.54,0
	c-0.181,0-0.36,0-0.54,0c-0.24,0-0.48,0-0.721,0c-0.18,0-0.359,0-0.539,0s-0.36,0-0.541,0c-0.18,0-0.359,0-0.539,0
	c0-0.12,0-0.24,0-0.36c0-0.18,0-0.36,0-0.54c0-0.36,0-0.72,0-1.08c0-0.72,0-1.439,0-2.16c0-0.18,0-0.359,0-0.54
	c0.24,0,0.479,0,0.72,0c0.181,0,0.36,0,0.54,0c0.359,0,0.72,0,1.08,0c0.18,0,0.359,0,0.54,0c0.18,0,0.36,0,0.54,0
	C46.14,4.68,46.56,4.68,46.98,4.68z"/>
<path fill-rule="evenodd" clip-rule="evenodd" fill="#BB6B5C" d="M46.98,4.68c1.561,0,3.12,0,4.68,0c1.561,0,3.12,0,4.68,0
	c0,0.78,0,1.561,0,2.34c0,0.421,0,0.841,0,1.261c0,0.359,0,0.72,0,1.08c0,0.779,0,1.56,0,2.34s0,1.56,0,2.34c1.621,0,3.24,0,4.861,0
	c0,1.62,0,3.24,0,4.86c0,1.56,0,3.119,0,4.68c1.56,0,3.119,0,4.68,0c0,1.56,0,3.12,0,4.68c0,0.24,0,0.48,0,0.721
	c0,0.18,0,0.359,0,0.539c0,0.181,0,0.36,0,0.54c0,0.181,0,0.36,0,0.54c0,0.24,0,0.48,0,0.721c0,0.18,0,0.359,0,0.54
	c0,0.359,0,0.72,0,1.08c0.42,0,0.84,0,1.26,0c0.18,0,0.359,0,0.54,0c0.18,0,0.36,0,0.54,0c0.24,0,0.48,0,0.72,0
	c0.181,0,0.36,0,0.54,0c0.359,0,0.721,0,1.08,0c0,0.239,0,0.479,0,0.72c0,0.18,0,0.359,0,0.54c0,0.359,0,0.72,0,1.08
	c0,0.42,0,0.84,0,1.26c0,0.36,0,0.72,0,1.08c0,0.42,0,0.84,0,1.26c0,0.36,0,0.72,0,1.08c0,0.42,0,0.84,0,1.26c0,0.36,0,0.721,0,1.08
	c-0.42,0-0.84,0-1.26,0c-0.18,0-0.36,0-0.541,0c-0.18,0-0.359,0-0.539,0c-0.24,0-0.48,0-0.721,0c-0.18,0-0.359,0-0.539,0
	c-0.181,0-0.36,0-0.541,0c-0.18,0-0.359,0-0.539,0c0-0.42,0-0.84,0-1.26c0-0.18,0-0.36,0-0.54s0-0.36,0-0.54c0-0.24,0-0.479,0-0.72
	c0-0.181,0-0.36,0-0.54c0-0.181,0-0.36,0-0.54s0-0.36,0-0.54c-1.561,0-3.12,0-4.68,0c0-0.78,0-1.561,0-2.34c0-0.78,0-1.561,0-2.34
	c0-0.78,0-1.561,0-2.341c0-0.779,0-1.56,0-2.34c-0.841,0-1.681,0-2.521,0c-0.78,0-1.56,0-2.341,0c0-0.779,0-1.56,0-2.34
	c0-0.36,0-0.72,0-1.08c0-0.18,0-0.359,0-0.54c0-0.24,0-0.479,0-0.72c-0.18,0-0.359,0-0.539,0c-1.381,0-2.76,0-4.141,0
	c-1.38,0-2.76,0-4.14,0c-0.181,0-0.36,0-0.54,0c0-0.84,0-1.68,0-2.521c0-0.779,0-1.56,0-2.34c-0.42,0-0.84,0-1.26,0
	c-0.18,0-0.36,0-0.54,0c-0.181,0-0.36,0-0.54,0c-0.24,0-0.48,0-0.721,0c-0.18,0-0.359,0-0.539,0s-0.36,0-0.541,0
	c-0.18,0-0.359,0-0.539,0c0-0.42,0-0.84,0-1.26c0-0.18,0-0.36,0-0.54s0-0.36,0-0.54c0-0.24,0-0.479,0-0.72c0-0.18,0-0.36,0-0.54
	s0-0.36,0-0.54s0-0.36,0-0.54c0-0.24,0-0.48,0-0.72c0-0.181,0-0.36,0-0.54c0-0.181,0-0.36,0-0.54c0-0.181,0-0.36,0-0.54
	c0-0.24,0-0.48,0-0.72c0-0.181,0-0.36,0-0.54c0-0.181,0-0.36,0-0.54c0-0.181,0-0.36,0-0.54c0.18,0,0.359,0,0.539,0
	c0.181,0,0.361,0,0.541,0s0.359,0,0.539,0c0.24,0,0.48,0,0.721,0c0.18,0,0.359,0,0.54,0c0.18,0,0.36,0,0.54,0c0.42,0,0.84,0,1.26,0
	c0-0.721,0-1.44,0-2.16c0-0.36,0-0.72,0-1.08c0-0.18,0-0.36,0-0.54c0-0.24,0-0.48,0-0.72C46.98,4.8,46.98,4.74,46.98,4.68z"/>
<path fill-rule="evenodd" clip-rule="evenodd" fill="#0A1A3E" d="M56.339,4.68c1.44,0,2.881,0,4.32,0c0.18,0,0.36,0,0.541,0
	c0,0.061,0,0.12,0,0.181c0,0.06,0,0.12,0,0.18c0,0.12,0,0.24,0,0.36c0,0.18,0,0.359,0,0.54c0,0.359,0,0.72,0,1.079
	c0,0.78,0,1.561,0,2.341c0,0.18,0,0.359,0,0.54c0,0.18,0,0.359,0,0.54c0,0.42,0,0.84,0,1.26c0,0.78,0,1.56,0,2.34
	c-1.621,0-3.24,0-4.861,0c0-0.78,0-1.56,0-2.34s0-1.561,0-2.34c0-0.36,0-0.721,0-1.08c0-0.42,0-0.84,0-1.261
	C56.339,6.24,56.339,5.46,56.339,4.68z"/>
<path fill-rule="evenodd" clip-rule="evenodd" fill="#0A1A3E" d="M9.36,9.36c0,0.18,0,0.359,0,0.54c0,0.18,0,0.359,0,0.54
	c0,0.18,0,0.359,0,0.54c0,0.239,0,0.479,0,0.72c0,0.78,0,1.56,0,2.34c0,0.36,0,0.72,0,1.08c0,0.18,0,0.36,0,0.54
	c0,0.24,0,0.479,0,0.72c0,0.78,0,1.561,0,2.34c-0.36,0-0.72,0-1.08,0c-0.18,0-0.36,0-0.54,0c-0.24,0-0.48,0-0.72,0
	c-0.78,0-1.56,0-2.34,0c0-0.18,0-0.359,0-0.54c0-1.38,0-2.76,0-4.14s0-2.76,0-4.14c0-0.181,0-0.36,0-0.54c0.06,0,0.12,0,0.18,0
	c0.36,0,0.72,0,1.08,0s0.72,0,1.08,0C7.8,9.36,8.58,9.36,9.36,9.36z"/>
<path fill-rule="evenodd" clip-rule="evenodd" fill="#0A1A3E" d="M28.26,9.36c0.78,0,1.56,0,2.34,0c0.78,0,1.56,0,2.34,0
	c0,0.18,0,0.359,0,0.54c0,0.119,0,0.239,0,0.359c0,0.181,0,0.36,0,0.54c0,0.181,0,0.36,0,0.54s0,0.36,0,0.54c0,0.72,0,1.44,0,2.16
	c-0.12,0-0.24,0-0.36,0c-0.18,0-0.36,0-0.54,0c-0.36,0-0.72,0-1.08,0c-0.72,0-1.44,0-2.16,0c-0.18,0-0.36,0-0.54,0
	c0-0.06,0-0.12,0-0.18c0-0.721,0-1.44,0-2.16C28.26,10.92,28.26,10.14,28.26,9.36z"/>
<path fill-rule="evenodd" clip-rule="evenodd" fill="#0A1A3E" d="M42.3,9.36c0,0.18,0,0.359,0,0.54c0,0.18,0,0.359,0,0.54
	c0,0.18,0,0.359,0,0.54c0,0.239,0,0.479,0,0.72c0,0.18,0,0.359,0,0.54c0,0.18,0,0.359,0,0.54c0,0.18,0,0.359,0,0.54
	c0,0.239,0,0.479,0,0.72c0,0.18,0,0.36,0,0.54s0,0.36,0,0.54s0,0.36,0,0.54c0,0.24,0,0.479,0,0.72c0,0.18,0,0.36,0,0.54
	s0,0.36,0,0.54c0,0.42,0,0.84,0,1.26c-1.561,0-3.12,0-4.68,0c-0.78,0-1.56,0-2.34,0c-0.78,0-1.56,0-2.34,0c0-0.359,0-0.72,0-1.08
	c0-0.18,0-0.359,0-0.54c0-0.239,0-0.479,0-0.72c0-0.18,0-0.36,0-0.54s0-0.359,0-0.54c0-0.42,0-0.84,0-1.26c0.36,0,0.72,0,1.08,0
	c0.18,0,0.36,0,0.54,0c0.24,0,0.48,0,0.72,0c0.18,0,0.36,0,0.54,0c0.18,0,0.36,0,0.54,0c0.42,0,0.84,0,1.26,0c0-0.18,0-0.36,0-0.54
	c0-0.6,0-1.2,0-1.8c0-0.12,0-0.24,0-0.36c0-0.18,0-0.359,0-0.54c0-0.12,0-0.24,0-0.359c0-0.181,0-0.36,0-0.54c0-0.181,0-0.36,0-0.54
	c0.24,0,0.48,0,0.72,0c0.18,0,0.36,0,0.54,0c0.36,0,0.72,0,1.081,0C40.74,9.36,41.52,9.36,42.3,9.36z"/>
<path fill-rule="evenodd" clip-rule="evenodd" fill="#0A1A3E" d="M61.201,14.04c1.379,0,2.76,0,4.139,0c0.181,0,0.361,0,0.541,0
	c0,0.06,0,0.12,0,0.18c0,0.36,0,0.721,0,1.08c0,0.181,0,0.36,0,0.54c0,0.24,0,0.48,0,0.72c0,0.181,0,0.36,0,0.54
	c0,0.181,0,0.36,0,0.54c0,0.181,0,0.36,0,0.54c0,0.24,0,0.48,0,0.721c0,0.18,0,0.359,0,0.54c0,0.18,0,0.359,0,0.54
	c0,0.18,0,0.359,0,0.539c0,0.24,0,0.48,0,0.721c0,0.18,0,0.359,0,0.54c0,0.18,0,0.359,0,0.54c0,0.42,0,0.84,0,1.26
	c-1.561,0-3.12,0-4.68,0c0-1.561,0-3.12,0-4.68C61.201,17.28,61.201,15.66,61.201,14.04z"/>
<path fill-rule="evenodd" clip-rule="evenodd" fill="#0A1A3E" d="M9.36,18.72c0.18,0,0.36,0,0.54,0c0.18,0,0.36,0,0.54,0
	s0.36,0,0.54,0c0.24,0,0.48,0,0.72,0c0.78,0,1.56,0,2.34,0c0,0.78,0,1.561,0,2.34c0,0.841,0,1.681,0,2.521c0,0.42,0,0.84,0,1.26
	c0,0.18,0,0.36,0,0.54s0,0.36,0,0.54c0,0.24,0,0.48,0,0.72c0,0.181,0,0.36,0,0.54c0,0.36,0,0.721,0,1.08c-0.78,0-1.56,0-2.34,0
	c-0.42,0-0.84,0-1.26,0c-0.18,0-0.36,0-0.54,0c-0.18,0-0.36,0-0.54,0c0-0.359,0-0.72,0-1.08c0-0.18,0-0.359,0-0.54
	c0-0.239,0-0.479,0-0.72c0-0.78,0-1.56,0-2.34C9.36,21.96,9.36,20.34,9.36,18.72z"/>
<path fill-rule="evenodd" clip-rule="evenodd" fill="#D97761" d="M32.94,18.72c0.78,0,1.56,0,2.34,0c0.78,0,1.56,0,2.34,0
	c1.56,0,3.12,0,4.68,0c0.18,0,0.359,0,0.539,0c0.181,0,0.361,0,0.541,0s0.359,0,0.539,0c0.24,0,0.48,0,0.721,0
	c0.18,0,0.359,0,0.54,0c0.18,0,0.36,0,0.54,0c0.42,0,0.84,0,1.26,0c0,0.78,0,1.561,0,2.34c0,0.841,0,1.681,0,2.521
	c0.18,0,0.359,0,0.54,0c1.38,0,2.76,0,4.14,0c1.381,0,2.76,0,4.141,0c0.18,0,0.359,0,0.539,0c0,0.24,0,0.479,0,0.72
	c0,0.181,0,0.36,0,0.54c0,0.36,0,0.72,0,1.08c0,0.78,0,1.561,0,2.34c0.781,0,1.561,0,2.341,0c0.84,0,1.68,0,2.521,0
	c0,0.78,0,1.561,0,2.34c0,0.78,0,1.561,0,2.341c-0.181,0-0.361,0-0.541,0c-0.119,0-0.24,0-0.359,0c-0.18,0-0.36,0-0.541,0
	c-0.119,0-0.239,0-0.359,0c-0.6,0-1.199,0-1.8,0c-1.2,0-2.399,0-3.601,0c-2.34,0-4.68,0-7.02,0c0-0.36,0-0.721,0-1.08
	c0-0.42,0-0.841,0-1.261c0-0.359,0-0.72,0-1.08c0-0.42,0-0.84,0-1.26c-0.359,0-0.721,0-1.08,0c-0.42,0-0.84,0-1.26,0
	c-0.36,0-0.721,0-1.08,0c-0.18,0-0.359,0-0.54,0c-0.24,0-0.479,0-0.72,0c0-0.18,0-0.359,0-0.54c0-0.18,0-0.359,0-0.54
	c0-0.18,0-0.359,0-0.54c0-0.239,0-0.479,0-0.72c0-0.18,0-0.36,0-0.54s0-0.36,0-0.54c0-0.42,0-0.84,0-1.26c-2.34,0-4.68,0-7.021,0
	c-2.34,0-4.68,0-7.02,0c0-0.18,0-0.36,0-0.54c0-1.26,0-2.521,0-3.78c0-0.18,0-0.359,0-0.54c0.24,0,0.48,0,0.72,0
	c0.18,0,0.36,0,0.54,0c0.36,0,0.72,0,1.08,0C31.38,18.72,32.16,18.72,32.94,18.72z"/>
<path fill-rule="evenodd" clip-rule="evenodd" fill="#D97761" d="M14.04,23.58c0.36,0,0.72,0,1.08,0c0.42,0,0.84,0,1.26,0
	c0.78,0,1.56,0,2.34,0c0,0.18,0,0.36,0,0.54c0,1.2,0,2.399,0,3.6c0,0.181,0,0.36,0,0.54c-0.06,0-0.12,0-0.18,0c-1.5,0-3,0-4.5,0
	c0-0.359,0-0.72,0-1.08c0-0.18,0-0.359,0-0.54c0-0.239,0-0.479,0-0.72c0-0.18,0-0.36,0-0.54s0-0.36,0-0.54
	C14.04,24.42,14.04,24,14.04,23.58z"/>
<path fill-rule="evenodd" clip-rule="evenodd" fill="#0A1A3E" d="M65.88,23.58c0.779,0,1.56,0,2.34,0c0.779,0,1.56,0,2.34,0
	c0,0.78,0,1.56,0,2.34c0,0.36,0,0.72,0,1.08c0,0.42,0,0.84,0,1.26c0,1.561,0,3.12,0,4.681c-0.359,0-0.721,0-1.08,0
	c-0.18,0-0.359,0-0.54,0c-0.239,0-0.479,0-0.72,0c-0.18,0-0.36,0-0.54,0c-0.181,0-0.36,0-0.54,0c-0.42,0-0.84,0-1.26,0
	c0-0.36,0-0.721,0-1.08c0-0.181,0-0.36,0-0.54c0-0.24,0-0.48,0-0.721c0-0.18,0-0.359,0-0.54c0-0.18,0-0.359,0-0.54
	c0-0.18,0-0.359,0-0.539c0-0.24,0-0.48,0-0.721C65.88,26.7,65.88,25.14,65.88,23.58z"/>
<path fill-rule="evenodd" clip-rule="evenodd" fill="#0A1A3E" d="M9.36,28.26c0,0.061,0,0.12,0,0.181c0,0.239,0,0.479,0,0.72
	c0,0.18,0,0.359,0,0.54c0,0.359,0,0.72,0,1.08c0,0.72,0,1.439,0,2.16c0,0.779,0,1.56,0,2.34c0,0.779,0,1.56,0,2.34
	c-0.42,0-0.84,0-1.26,0c-0.36,0-0.72,0-1.08,0c-0.42,0-0.84,0-1.26,0c-0.36,0-0.72,0-1.08,0c0-1.44,0-2.88,0-4.32c0-1.5,0-3,0-4.5
	c0-0.18,0-0.359,0-0.54c0.06,0,0.12,0,0.18,0C6.36,28.26,7.86,28.26,9.36,28.26z"/>
<path fill-rule="evenodd" clip-rule="evenodd" fill="#D97761" d="M9.36,28.26c0.18,0,0.36,0,0.54,0c0.18,0,0.36,0,0.54,0
	c0.42,0,0.84,0,1.26,0c0.78,0,1.56,0,2.34,0c0,0.66,0,1.32,0,1.98c0,0.72,0,1.439,0,2.16c0,0.18,0,0.359,0,0.54
	c-0.06,0-0.12,0-0.18,0c-0.36,0-0.72,0-1.08,0c-0.18,0-0.36,0-0.54,0c-0.18,0-0.36,0-0.54,0c-0.18,0-0.36,0-0.54,0
	c-0.18,0-0.36,0-0.54,0c-0.42,0-0.84,0-1.26,0c0-0.721,0-1.44,0-2.16c0-0.36,0-0.721,0-1.08c0-0.181,0-0.36,0-0.54
	c0-0.24,0-0.48,0-0.72C9.36,28.38,9.36,28.32,9.36,28.26z"/>
<path fill-rule="evenodd" clip-rule="evenodd" fill="#FDFEFF" d="M46.98,32.94c2.34,0,4.68,0,7.02,0c1.201,0,2.4,0,3.601,0
	c0.601,0,1.2,0,1.8,0c0.12,0,0.24,0,0.359,0c0.181,0,0.361,0,0.541,0c0.119,0,0.24,0,0.359,0c0.18,0,0.36,0,0.541,0
	c0,0.779,0,1.56,0,2.34c0,0.779,0,1.56,0,2.34c1.56,0,3.119,0,4.68,0c0,0.18,0,0.36,0,0.54s0,0.359,0,0.54c0,0.18,0,0.359,0,0.54
	c0,0.24,0,0.479,0,0.72c0,0.18,0,0.36,0,0.54s0,0.36,0,0.54c0,0.42,0,0.84,0,1.26c-0.42,0-0.84,0-1.26,0c-0.181,0-0.361,0-0.541,0
	s-0.359,0-0.539,0c-0.181,0-0.36,0-0.541,0c-0.18,0-0.359,0-0.539,0c-0.181,0-0.36,0-0.541,0c-0.119,0-0.239,0-0.359,0
	c-0.061,0-0.12,0-0.18,0c-0.061,0-0.12,0-0.18,0c0,0.181,0,0.36,0,0.54s0,0.36,0,0.54c0,0.12,0,0.24,0,0.36c0,0.18,0,0.359,0,0.54
	c0,0.12,0,0.239,0,0.359c0,0.181,0,0.36,0,0.54c0,0.12,0,0.24,0,0.36c0,0.18,0,0.36,0,0.54c0,0.12,0,0.24,0,0.36
	c0,0.18,0,0.359,0,0.54c-0.781,0-1.561,0-2.341,0c-0.42,0-0.84,0-1.26,0c-0.181,0-0.36,0-0.54,0c-0.24,0-0.48,0-0.721,0
	c0,2.34,0,4.68,0,7.02c0,2.28,0,4.56,0,6.84c0,0.12,0,0.24,0,0.36c1.621,0,3.24,0,4.861,0c0,1.56,0,3.12,0,4.68
	c0.18,0,0.359,0,0.539,0c1.5,0,3,0,4.5,0c1.44,0,2.881,0,4.32,0c0,0.78,0,1.561,0,2.34c0,0.78,0,1.561,0,2.34
	c-0.24,0-0.48,0-0.721,0c-0.18,0-0.359,0-0.539,0c-0.36,0-0.721,0-1.08,0c-0.36,0-0.721,0-1.08,0c-0.18,0-0.36,0-0.54,0
	c-0.24,0-0.479,0-0.72,0c0,0.181,0,0.36,0,0.54c0,0.721,0,1.44,0,2.16c0,0.181,0,0.36,0,0.54c0,0.181,0,0.36,0,0.54s0,0.36,0,0.54
	c0,0.12,0,0.24,0,0.36c-0.18,0-0.36,0-0.541,0c-0.119,0-0.239,0-0.359,0c-0.18,0-0.359,0-0.54,0c-0.12,0-0.239,0-0.36,0
	c-0.6,0-1.199,0-1.8,0c-1.2,0-2.399,0-3.6,0s-2.4,0-3.601,0c-0.18,0-0.359,0-0.539,0c-0.121,0-0.24,0-0.36,0c-0.3,0-0.601,0-0.9,0
	s-0.6,0-0.899,0c-0.24,0-0.48,0-0.721,0c-1.56,0-3.119,0-4.68,0c-0.42,0-0.84,0-1.26,0c-0.18,0-0.36,0-0.54,0
	c-0.181,0-0.36,0-0.54,0c-0.42,0-0.84,0-1.26,0c-0.18,0-0.36,0-0.541,0c-0.18,0-0.359,0-0.539,0c-0.42,0-0.84,0-1.26,0
	c-0.181,0-0.36,0-0.541,0c-0.18,0-0.359,0-0.539,0c-0.78,0-1.561,0-2.34,0c0-0.42,0-0.84,0-1.26c0-0.36,0-0.721,0-1.08
	c0-0.36,0-0.721,0-1.08c0-0.181,0-0.36,0-0.54c0-0.24,0-0.48,0-0.721c-0.18,0-0.36,0-0.54,0c-1.5,0-3,0-4.5,0c-1.44,0-2.88,0-4.32,0
	c0-0.779,0-1.56,0-2.34c0-0.779,0-1.56,0-2.34s0-1.56,0-2.34s0-1.56,0-2.34c0.42,0,0.84,0,1.26,0c0.36,0,0.72,0,1.08,0
	c0.42,0,0.84,0,1.26,0c0.36,0,0.72,0,1.08,0c0,1.56,0,3.12,0,4.68c2.34,0,4.68,0,7.021,0c0.18,0,0.359,0,0.539,0
	c0.121,0,0.24,0,0.36,0c0.181,0,0.36,0,0.54,0c0.12,0,0.24,0,0.359,0c0.181,0,0.361,0,0.541,0c0.119,0,0.24,0,0.359,0
	c0.18,0,0.36,0,0.541,0c0.119,0,0.239,0,0.359,0c1.141,0,2.279,0,3.42,0c0-1.56,0-3.12,0-4.68c1.561,0,3.12,0,4.68,0
	c0-2.34,0-4.681,0-7.021c0-2.279,0-4.56,0-6.84c0-0.12,0-0.24,0-0.359c-1.56,0-3.119,0-4.68,0c0-0.421,0-0.841,0-1.261
	c0-0.18,0-0.359,0-0.54c0-0.18,0-0.359,0-0.54c0-0.359,0-0.72,0-1.08c0-0.18,0-0.359,0-0.54c0-0.239,0-0.479,0-0.72
	c-0.18,0-0.359,0-0.54,0c-0.12,0-0.239,0-0.36,0c-0.18,0-0.359,0-0.539,0c-0.121,0-0.24,0-0.36,0c-0.181,0-0.36,0-0.54,0
	c-0.12,0-0.24,0-0.36,0c-0.18,0-0.36,0-0.54,0c-0.119,0-0.24,0-0.359,0c-1.141,0-2.28,0-3.42,0c-0.181,0-0.36,0-0.541,0
	c-0.119,0-0.239,0-0.359,0c-0.18,0-0.36,0-0.54,0c-0.12,0-0.24,0-0.36,0c-0.18,0-0.36,0-0.54,0c-0.12,0-0.24,0-0.36,0
	c-0.18,0-0.36,0-0.54,0c-0.12,0-0.24,0-0.36,0c-1.14,0-2.28,0-3.42,0c0,0.42,0,0.84,0,1.26c0,0.181,0,0.36,0,0.54
	c0,0.181,0,0.36,0,0.54c0,0.24,0,0.48,0,0.721c0,0.18,0,0.359,0,0.54c0,0.359,0,0.72,0,1.08c-0.78,0-1.56,0-2.34,0
	c-0.36,0-0.72,0-1.08,0c-0.18,0-0.36,0-0.54,0c-0.24,0-0.48,0-0.72,0c0,2.399,0,4.8,0,7.199c0,2.34,0,4.681,0,7.021
	c-0.36,0-0.72,0-1.08,0c-0.42,0-0.84,0-1.26,0c-0.78,0-1.56,0-2.34,0c0-1.5,0-3,0-4.5c0-1.561,0-3.12,0-4.681c0-1.5,0-3,0-4.5
	c0-0.359,0-0.72,0-1.079c0-0.421,0-0.841,0-1.261c0-0.359,0-0.72,0-1.08c0-0.18,0-0.359,0-0.54c0-0.239,0-0.479,0-0.72
	c0-0.18,0-0.359,0-0.54c0.06,0,0.12,0,0.18,0c0.06,0,0.12,0,0.18,0c0.12,0,0.24,0,0.36,0c0.18,0,0.36,0,0.54,0c0.18,0,0.36,0,0.54,0
	c0.18,0,0.36,0,0.54,0c0.18,0,0.36,0,0.54,0s0.36,0,0.54,0c0.42,0,0.84,0,1.26,0c0-0.18,0-0.359,0-0.54c0-0.12,0-0.24,0-0.359
	c0-0.181,0-0.36,0-0.54c0-0.12,0-0.24,0-0.36c0-0.18,0-0.36,0-0.54c0-0.12,0-0.24,0-0.36c0-0.18,0-0.359,0-0.54
	c0-0.119,0-0.239,0-0.359c0-0.181,0-0.36,0-0.54s0-0.36,0-0.54c0.24,0,0.48,0,0.72,0c0.18,0,0.36,0,0.54,0c0.36,0,0.72,0,1.08,0
	c0.78,0,1.56,0,2.34,0c0-0.36,0-0.72,0-1.08c0-0.18,0-0.36,0-0.54c0-0.24,0-0.48,0-0.72c0-0.181,0-0.36,0-0.54
	c0-0.181,0-0.36,0-0.54c0-0.42,0-0.84,0-1.26c1.14,0,2.28,0,3.42,0c0.6,0,1.2,0,1.8,0c0.12,0,0.24,0,0.36,0c0.18,0,0.36,0,0.54,0
	c0.12,0,0.24,0,0.359,0c0.181,0,0.36,0,0.541,0c1.14,0,2.279,0,3.42,0c0.6,0,1.199,0,1.8,0c0.12,0,0.239,0,0.36,0
	c0.18,0,0.359,0,0.539,0c0.121,0,0.24,0,0.36,0C46.621,32.94,46.8,32.94,46.98,32.94z"/>
<path fill-rule="evenodd" clip-rule="evenodd" fill="#0A1A3E" d="M70.56,32.94c0.359,0,0.72,0,1.08,0c0.18,0,0.359,0,0.54,0
	c0.239,0,0.479,0,0.72,0c0.18,0,0.359,0,0.54,0s0.36,0,0.54,0c0.42,0,0.84,0,1.26,0c0,0.779,0,1.56,0,2.34c0,0.18,0,0.359,0,0.54
	c0,0.18,0,0.359,0,0.54c0,0.42,0,0.84,0,1.26c0,1.56,0,3.12,0,4.68c-0.42,0-0.84,0-1.26,0c-0.18,0-0.359,0-0.54,0s-0.36,0-0.54,0
	c-0.24,0-0.48,0-0.72,0c-0.181,0-0.36,0-0.54,0s-0.36,0-0.54,0c-0.181,0-0.36,0-0.54,0c0-0.359,0-0.72,0-1.08c0-0.42,0-0.84,0-1.26
	c0-0.36,0-0.72,0-1.08c0-0.42,0-0.84,0-1.26c0-0.36,0-0.72,0-1.08c0-0.42,0-0.84,0-1.26c0-0.36,0-0.721,0-1.08
	c0-0.181,0-0.36,0-0.54C70.56,33.42,70.56,33.18,70.56,32.94z"/>
<path fill-rule="evenodd" clip-rule="evenodd" fill="#0A1A3E" d="M0,37.62c0.06,0,0.12,0,0.18,0c0.12,0,0.24,0,0.36,0
	c0.18,0,0.36,0,0.54,0c0.18,0,0.36,0,0.54,0c0.24,0,0.48,0,0.72,0c0.36,0,0.72,0,1.08,0c0.42,0,0.84,0,1.26,0c0,0.42,0,0.84,0,1.26
	c0,0.36,0,0.72,0,1.08c0,0.24,0,0.48,0,0.72c0,0.181,0,0.36,0,0.54c0,0.36,0,0.721,0,1.08c0,0.181,0,0.36,0,0.54s0,0.36,0,0.54
	s0,0.36,0,0.54c0,0.24,0,0.48,0,0.72c0,0.181,0,0.36,0,0.54c0,0.181,0,0.36,0,0.54c0,0.181,0,0.36,0,0.54c0,0.24,0,0.48,0,0.721
	c0,1.56,0,3.119,0,4.68c0,3.18,0,6.359,0,9.54c0,1.56,0,3.12,0,4.68c-0.36,0-0.72,0-1.08,0c-0.18,0-0.36,0-0.54,0
	c-0.24,0-0.48,0-0.72,0c-0.18,0-0.36,0-0.54,0c-0.18,0-0.36,0-0.54,0c-0.18,0-0.36,0-0.54,0c-0.24,0-0.48,0-0.72,0
	c0-2.34,0-4.68,0-7.02c0-2.28,0-4.561,0-6.841c0-2.34,0-4.68,0-7.02c0-1.14,0-2.28,0-3.42s0-2.28,0-3.42C0,37.98,0,37.8,0,37.62z"/>
<path fill-rule="evenodd" clip-rule="evenodd" fill="#D97761" d="M4.68,37.62c0.36,0,0.72,0,1.08,0c0.42,0,0.84,0,1.26,0
	c0.36,0,0.72,0,1.08,0c0.42,0,0.84,0,1.26,0c0,0.12,0,0.24,0,0.36c0,0.18,0,0.359,0,0.539c0,0.36,0,0.721,0,1.08
	c0,0.721,0,1.44,0,2.16c0,0.181,0,0.36,0,0.54c-0.06,0-0.12,0-0.18,0s-0.12,0-0.18,0c-0.12,0-0.24,0-0.36,0c-0.18,0-0.36,0-0.54,0
	c-0.18,0-0.36,0-0.54,0s-0.36,0-0.54,0s-0.36,0-0.54,0s-0.36,0-0.54,0c-0.42,0-0.84,0-1.26,0c0-0.359,0-0.72,0-1.08
	c0-0.18,0-0.359,0-0.54c0-0.239,0-0.479,0-0.72c0-0.36,0-0.72,0-1.08C4.68,38.46,4.68,38.04,4.68,37.62z"/>
<path fill-rule="evenodd" clip-rule="evenodd" fill="#0A1A3E" d="M46.98,46.98c-0.3,0-0.6,0-0.9,0c-0.18,0-0.359,0-0.539,0
	c-0.181,0-0.36,0-0.541,0c-0.18,0-0.359,0-0.539,0c-0.721,0-1.44,0-2.16,0c-0.78,0-1.561,0-2.34,0c-0.36,0-0.721,0-1.081,0
	c-0.18,0-0.36,0-0.54,0c-0.24,0-0.48,0-0.72,0c0,1.199,0,2.399,0,3.6c0,1.14,0,2.28,0,3.42c0,1.2,0,2.4,0,3.6c0,0.181,0,0.36,0,0.54
	c0,0.12,0,0.24,0,0.36c0,0.18,0,0.36,0,0.54c0,0.12,0,0.24,0,0.36c0,0.18,0,0.359,0,0.54c0,0.119,0,0.239,0,0.359
	c0,0.24,0,0.48,0,0.72c0,0.061,0,0.12,0,0.181c0.18,0,0.36,0,0.54,0c1.5,0,3,0,4.5,0c1.44,0,2.881,0,4.32,0c0,1.56,0,3.12,0,4.68
	c-1.141,0-2.279,0-3.42,0c-0.12,0-0.24,0-0.359,0c-0.181,0-0.361,0-0.541,0c-0.119,0-0.24,0-0.359,0c-0.18,0-0.36,0-0.541,0
	c-0.119,0-0.239,0-0.359,0c-0.18,0-0.359,0-0.54,0c-0.12,0-0.239,0-0.36,0c-0.18,0-0.359,0-0.539,0c-2.34,0-4.681,0-7.021,0
	c0-1.56,0-3.12,0-4.68c-0.36,0-0.72,0-1.08,0c-0.42,0-0.84,0-1.26,0c-0.36,0-0.72,0-1.08,0c-0.42,0-0.84,0-1.26,0
	c0-2.34,0-4.681,0-7.021c0-2.399,0-4.8,0-7.199c0.24,0,0.48,0,0.72,0c0.18,0,0.36,0,0.54,0c0.36,0,0.72,0,1.08,0
	c0.78,0,1.56,0,2.34,0c0-0.36,0-0.721,0-1.08c0-0.181,0-0.36,0-0.54c0-0.24,0-0.48,0-0.721c0-0.18,0-0.359,0-0.54
	c0-0.18,0-0.359,0-0.54c0-0.42,0-0.84,0-1.26c1.14,0,2.28,0,3.42,0c0.12,0,0.24,0,0.36,0c0.18,0,0.36,0,0.54,0c0.12,0,0.24,0,0.36,0
	c0.18,0,0.36,0,0.54,0c0.12,0,0.24,0,0.36,0c0.18,0,0.36,0,0.54,0c0.12,0,0.24,0,0.359,0c0.181,0,0.36,0,0.541,0
	c1.14,0,2.279,0,3.42,0c0.119,0,0.24,0,0.359,0c0.18,0,0.36,0,0.54,0c0.12,0,0.24,0,0.36,0c0.18,0,0.359,0,0.54,0
	c0.12,0,0.239,0,0.36,0c0.18,0,0.359,0,0.539,0c0.121,0,0.24,0,0.36,0c0.181,0,0.36,0,0.54,0c0,0.24,0,0.48,0,0.72
	c0,0.181,0,0.36,0,0.54c0,0.36,0,0.721,0,1.08c0,0.181,0,0.36,0,0.54c0,0.181,0,0.36,0,0.54C46.98,46.14,46.98,46.56,46.98,46.98z"
	/>
<path fill-rule="evenodd" clip-rule="evenodd" fill="#0A1A3E" d="M65.88,42.3c0.18,0,0.359,0,0.539,0c0.181,0,0.36,0,0.541,0
	c0.18,0,0.359,0,0.539,0c0.24,0,0.48,0,0.721,0c0.18,0,0.359,0,0.539,0c0.181,0,0.361,0,0.541,0c0.42,0,0.84,0,1.26,0
	c0,0.24,0,0.48,0,0.72c0,0.181,0,0.36,0,0.54c0,0.36,0,0.721,0,1.08c0,0.42,0,0.841,0,1.261c0,0.359,0,0.72,0,1.08
	c-0.78,0-1.561,0-2.34,0c-0.36,0-0.721,0-1.08,0c-0.18,0-0.36,0-0.54,0c-0.24,0-0.479,0-0.72,0c0,2.34,0,4.68,0,7.02
	c0,2.28,0,4.56,0,6.84c0,0.12,0,0.24,0,0.36c0.779,0,1.56,0,2.34,0c0.779,0,1.56,0,2.34,0c0,1.56,0,3.12,0,4.68
	c-1.439,0-2.88,0-4.32,0c-1.5,0-3,0-4.5,0c-0.18,0-0.359,0-0.539,0c0-1.56,0-3.12,0-4.68c-1.621,0-3.24,0-4.861,0
	c0-0.12,0-0.24,0-0.36c0-2.28,0-4.56,0-6.84c0-2.34,0-4.68,0-7.02c0.24,0,0.48,0,0.721,0c0.18,0,0.359,0,0.54,0
	c0.42,0,0.84,0,1.26,0c0.78,0,1.56,0,2.341,0c0-0.181,0-0.36,0-0.54c0-0.12,0-0.24,0-0.36c0-0.18,0-0.36,0-0.54
	c0-0.12,0-0.24,0-0.36c0-0.18,0-0.359,0-0.54c0-0.12,0-0.239,0-0.359c0-0.181,0-0.36,0-0.54c0-0.12,0-0.24,0-0.36
	c0-0.18,0-0.36,0-0.54s0-0.359,0-0.54c0.06,0,0.119,0,0.18,0c0.06,0,0.119,0,0.18,0c0.12,0,0.24,0,0.359,0c0.181,0,0.36,0,0.541,0
	c0.18,0,0.359,0,0.539,0c0.181,0,0.36,0,0.541,0c0.18,0,0.359,0,0.539,0s0.36,0,0.541,0C65.041,42.3,65.46,42.3,65.88,42.3z"/>
<path fill-rule="evenodd" clip-rule="evenodd" fill="#BB6B5C" d="M70.56,42.3c0.18,0,0.359,0,0.54,0c0.18,0,0.36,0,0.54,0
	s0.359,0,0.54,0c0.239,0,0.479,0,0.72,0c0.18,0,0.359,0,0.54,0s0.36,0,0.54,0c0.42,0,0.84,0,1.26,0c0,0.42,0,0.84,0,1.26
	c0,0.36,0,0.721,0,1.08c0,0.42,0,0.841,0,1.261c0,0.359,0,0.72,0,1.08c-0.779,0-1.56,0-2.34,0c-0.779,0-1.561,0-2.34,0
	c0-0.36,0-0.721,0-1.08c0-0.42,0-0.841,0-1.261c0-0.359,0-0.72,0-1.08c0-0.18,0-0.359,0-0.54C70.56,42.78,70.56,42.54,70.56,42.3z"
	/>
<path fill-rule="evenodd" clip-rule="evenodd" fill="#0A1A3E" d="M75.24,42.3c0.12,0,0.24,0,0.36,0c0.18,0,0.36,0,0.54,0
	c0.359,0,0.72,0,1.08,0c0.72,0,1.439,0,2.16,0c0.18,0,0.359,0,0.539,0c0,0.181,0,0.36,0,0.54c0,0.12,0,0.24,0,0.36
	c0,0.24,0,0.479,0,0.72c0,0.48,0,0.96,0,1.44c0,0.96,0,1.92,0,2.88s0,1.92,0,2.88c0,0.479,0,0.96,0,1.439c0,0.54,0,1.08,0,1.62
	c0,1.92,0,3.84,0,5.761c0,0.96,0,1.92,0,2.88c0,0.479,0,0.96,0,1.439c0,0.54,0,1.08,0,1.62c-0.359,0-0.719,0-1.08,0
	c-0.18,0-0.359,0-0.539,0c-0.24,0-0.48,0-0.721,0c-0.18,0-0.359,0-0.539,0c-0.181,0-0.36,0-0.541,0c-0.42,0-0.84,0-1.26,0
	c0-1.56,0-3.12,0-4.68c-0.18,0-0.359,0-0.539,0c-1.381,0-2.761,0-4.141,0c0-0.181,0-0.36,0-0.54c0-0.12,0-0.24,0-0.36
	c0-0.18,0-0.359,0-0.54c0-0.12,0-0.24,0-0.359c0-0.601,0-1.2,0-1.801c0-1.199,0-2.399,0-3.6c0-2.34,0-4.68,0-7.02
	c0.779,0,1.561,0,2.34,0c0.78,0,1.561,0,2.34,0c0-0.36,0-0.721,0-1.08c0-0.42,0-0.841,0-1.261c0-0.359,0-0.72,0-1.08
	C75.24,43.14,75.24,42.72,75.24,42.3z"/>
<path fill-rule="evenodd" clip-rule="evenodd" fill="#FDFEFF" d="M46.98,46.98c0,0.239,0,0.479,0,0.72c0,0.12,0,0.24,0,0.359
	c0,0.301,0,0.601,0,0.9s0,0.6,0,0.9c0,0.3,0,0.6,0,0.899c0,1.141,0,2.28,0,3.42c0,2.34,0,4.681,0,7.021c-1.439,0-2.88,0-4.32,0
	c-1.5,0-3,0-4.5,0c-0.18,0-0.36,0-0.54,0c0-0.061,0-0.12,0-0.181c0-0.239,0-0.479,0-0.72c0-0.12,0-0.24,0-0.359
	c0-0.181,0-0.36,0-0.54c0-0.12,0-0.24,0-0.36c0-0.18,0-0.36,0-0.54c0-0.12,0-0.24,0-0.36c0-0.18,0-0.359,0-0.54
	c0-1.199,0-2.399,0-3.6c0-1.14,0-2.28,0-3.42c0-1.2,0-2.4,0-3.6c0.24,0,0.48,0,0.72,0c0.18,0,0.36,0,0.54,0c0.36,0,0.72,0,1.081,0
	c0.779,0,1.56,0,2.34,0c0.72,0,1.439,0,2.16,0c0.18,0,0.359,0,0.539,0c0.181,0,0.36,0,0.541,0c0.18,0,0.359,0,0.539,0
	C46.38,46.98,46.68,46.98,46.98,46.98z"/>
<path fill-rule="evenodd" clip-rule="evenodd" fill="#0A1A3E" d="M46.98,46.98c1.561,0,3.12,0,4.68,0c0,0.119,0,0.239,0,0.359
	c0,2.28,0,4.561,0,6.84c0,2.34,0,4.681,0,7.021c-1.56,0-3.119,0-4.68,0c0-2.34,0-4.681,0-7.021c0-1.14,0-2.279,0-3.42
	c0-0.3,0-0.6,0-0.899c0-0.301,0-0.601,0-0.9s0-0.6,0-0.9c0-0.119,0-0.239,0-0.359C46.98,47.46,46.98,47.22,46.98,46.98z"/>
<path fill-rule="evenodd" clip-rule="evenodd" fill="#FDFEFF" d="M70.56,46.98c0,2.34,0,4.68,0,7.02c0,1.2,0,2.4,0,3.6
	c0,0.601,0,1.2,0,1.801c0,0.119,0,0.239,0,0.359c0,0.181,0,0.36,0,0.54c0,0.12,0,0.24,0,0.36c0,0.18,0,0.359,0,0.54
	c-0.78,0-1.561,0-2.34,0c-0.78,0-1.561,0-2.34,0c0-0.12,0-0.24,0-0.36c0-2.28,0-4.56,0-6.84c0-2.34,0-4.68,0-7.02
	c0.24,0,0.479,0,0.72,0c0.18,0,0.36,0,0.54,0c0.359,0,0.72,0,1.08,0C69,46.98,69.78,46.98,70.56,46.98z"/>
<path fill-rule="evenodd" clip-rule="evenodd" fill="#D97761" d="M4.68,61.2c0.36,0,0.72,0,1.08,0c0.42,0,0.84,0,1.26,0
	c0.36,0,0.72,0,1.08,0c0.42,0,0.84,0,1.26,0c0,1.56,0,3.12,0,4.68c-0.42,0-0.84,0-1.26,0c-0.18,0-0.36,0-0.54,0s-0.36,0-0.54,0
	c-0.24,0-0.48,0-0.72,0c-0.18,0-0.36,0-0.54,0c-0.36,0-0.72,0-1.08,0C4.68,64.32,4.68,62.76,4.68,61.2z"/>
<path fill-rule="evenodd" clip-rule="evenodd" fill="#BB6B5C" d="M70.56,61.2c1.38,0,2.76,0,4.141,0c0.18,0,0.359,0,0.539,0
	c0,1.56,0,3.12,0,4.68c-0.42,0-0.84,0-1.26,0c-0.18,0-0.359,0-0.54,0s-0.36,0-0.54,0c-0.24,0-0.48,0-0.72,0c-0.181,0-0.36,0-0.54,0
	c-0.36,0-0.721,0-1.08,0C70.56,64.32,70.56,62.76,70.56,61.2z"/>
<path fill-rule="evenodd" clip-rule="evenodd" fill="#0A1A3E" d="M4.68,65.88c0.36,0,0.72,0,1.08,0c0.18,0,0.36,0,0.54,0
	c0.24,0,0.48,0,0.72,0c0.18,0,0.36,0,0.54,0s0.36,0,0.54,0c0.42,0,0.84,0,1.26,0c0,0.78,0,1.561,0,2.34c0,0.78,0,1.561,0,2.34
	c0,0.78,0,1.561,0,2.341c0,0.779,0,1.56,0,2.34c-0.12,0-0.24,0-0.36,0c-0.18,0-0.36,0-0.54,0c-0.36,0-0.72,0-1.08,0
	c-0.36,0-0.72,0-1.08,0c-0.36,0-0.72,0-1.08,0c-0.18,0-0.36,0-0.54,0c0-0.24,0-0.48,0-0.721c0-0.18,0-0.359,0-0.539
	c0-0.36,0-0.721,0-1.08c0-0.78,0-1.561,0-2.341c0-0.779,0-1.56,0-2.34C4.68,67.44,4.68,66.66,4.68,65.88z"/>
<path fill-rule="evenodd" clip-rule="evenodd" fill="#0A1A3E" d="M70.56,65.88c0.359,0,0.72,0,1.08,0c0.18,0,0.359,0,0.54,0
	c0.239,0,0.479,0,0.72,0c0.18,0,0.359,0,0.54,0s0.36,0,0.54,0c0.42,0,0.84,0,1.26,0c0,1.561,0,3.12,0,4.68c0,1.561,0,3.12,0,4.681
	c-0.359,0-0.72,0-1.08,0c-0.42,0-0.84,0-1.26,0c-0.359,0-0.72,0-1.08,0c-0.42,0-0.84,0-1.26,0c0-0.78,0-1.561,0-2.34
	c0-0.78,0-1.561,0-2.341c0-0.779,0-1.56,0-2.34C70.56,67.44,70.56,66.66,70.56,65.88z"/>
<path fill-rule="evenodd" clip-rule="evenodd" fill="#D97761" d="M9.36,70.56c0.12,0,0.24,0,0.36,0c0.18,0,0.36,0,0.54,0
	c0.36,0,0.72,0,1.08,0c0.72,0,1.44,0,2.16,0c0.18,0,0.36,0,0.54,0c0,0.24,0,0.48,0,0.721c0,0.18,0,0.359,0,0.54
	c0,0.18,0,0.359,0,0.54c0,0.18,0,0.359,0,0.54c0,0.18,0,0.359,0,0.54c0,0.18,0,0.359,0,0.54c0,0.42,0,0.84,0,1.26
	c-0.42,0-0.84,0-1.26,0c-0.36,0-0.72,0-1.08,0c-0.42,0-0.84,0-1.26,0c-0.18,0-0.36,0-0.54,0c-0.18,0-0.36,0-0.54,0
	c0-0.78,0-1.561,0-2.34C9.36,72.12,9.36,71.34,9.36,70.56z"/>
<path fill-rule="evenodd" clip-rule="evenodd" fill="#D97761" d="M28.26,70.56c1.44,0,2.88,0,4.32,0c1.5,0,3,0,4.5,0
	c0.18,0,0.36,0,0.54,0c0,0.24,0,0.48,0,0.721c0,0.18,0,0.359,0,0.54c0,0.359,0,0.72,0,1.08c0,0.359,0,0.72,0,1.08
	c0,0.42,0,0.84,0,1.26c-0.18,0-0.36,0-0.54,0c-0.12,0-0.24,0-0.36,0c-0.18,0-0.36,0-0.54,0c-0.12,0-0.24,0-0.36,0
	c-0.6,0-1.2,0-1.8,0c-1.14,0-2.28,0-3.42,0c-0.18,0-0.36,0-0.54,0c-0.12,0-0.24,0-0.36,0c-0.18,0-0.36,0-0.54,0
	c-0.12,0-0.24,0-0.36,0c-0.6,0-1.2,0-1.8,0c-1.14,0-2.28,0-3.42,0c0-0.78,0-1.561,0-2.34c0-0.78,0-1.561,0-2.341
	c0.78,0,1.56,0,2.34,0C26.7,70.56,27.48,70.56,28.26,70.56z"/>
<path fill-rule="evenodd" clip-rule="evenodd" fill="#BB6B5C" d="M70.56,70.56c0,0.78,0,1.561,0,2.341c0,0.779,0,1.56,0,2.34
	c-0.42,0-0.84,0-1.26,0c-0.36,0-0.721,0-1.08,0c-0.42,0-0.84,0-1.26,0c-0.36,0-0.721,0-1.08,0c0-0.12,0-0.24,0-0.36
	c0-0.18,0-0.36,0-0.54s0-0.359,0-0.54c0-0.18,0-0.359,0-0.54c0-0.72,0-1.439,0-2.16c0-0.18,0-0.359,0-0.54c0.24,0,0.479,0,0.72,0
	c0.18,0,0.36,0,0.54,0c0.359,0,0.72,0,1.08,0c0.359,0,0.72,0,1.08,0c0.18,0,0.359,0,0.539,0C70.08,70.56,70.32,70.56,70.56,70.56z"
	/>
<path fill-rule="evenodd" clip-rule="evenodd" fill="#0A1A3E" d="M9.36,75.24c0.18,0,0.36,0,0.54,0c0.18,0,0.36,0,0.54,0
	c0.42,0,0.84,0,1.26,0c0.36,0,0.72,0,1.08,0c0.42,0,0.84,0,1.26,0c0,0.42,0,0.84,0,1.26c0,0.18,0,0.36,0,0.54s0,0.36,0,0.54
	c0,0.24,0,0.479,0,0.72c0,0.181,0,0.36,0,0.54c0,0.36,0,0.72,0,1.08c-0.42,0-0.84,0-1.26,0c-0.18,0-0.36,0-0.54,0
	c-0.18,0-0.36,0-0.54,0c-0.24,0-0.48,0-0.72,0c-0.18,0-0.36,0-0.54,0s-0.36,0-0.54,0c-0.18,0-0.36,0-0.54,0c0-0.78,0-1.56,0-2.34
	S9.36,76.02,9.36,75.24z"/>
<path fill-rule="evenodd" clip-rule="evenodd" fill="#D97761" d="M14.04,75.24c0.36,0,0.72,0,1.08,0c0.42,0,0.84,0,1.26,0
	c0.78,0,1.56,0,2.34,0c1.62,0,3.24,0,4.86,0c0,0.779,0,1.56,0,2.34s0,1.56,0,2.34c-1.62,0-3.24,0-4.86,0c-0.24,0-0.48,0-0.72,0
	c-0.18,0-0.36,0-0.54,0s-0.36,0-0.54,0c-0.18,0-0.36,0-0.54,0c-0.24,0-0.48,0-0.72,0c-0.18,0-0.36,0-0.54,0c-0.18,0-0.36,0-0.54,0
	c-0.18,0-0.36,0-0.54,0c0-0.36,0-0.72,0-1.08c0-0.18,0-0.359,0-0.54c0-0.24,0-0.479,0-0.72c0-0.18,0-0.36,0-0.54s0-0.36,0-0.54
	C14.04,76.08,14.04,75.66,14.04,75.24z"/>
<path fill-rule="evenodd" clip-rule="evenodd" fill="#E0B49C" d="M23.58,75.24c1.14,0,2.28,0,3.42,0c0.6,0,1.2,0,1.8,0
	c0.12,0,0.24,0,0.36,0c0.18,0,0.36,0,0.54,0c0.12,0,0.24,0,0.36,0c0.18,0,0.36,0,0.54,0c1.14,0,2.28,0,3.42,0c0.6,0,1.2,0,1.8,0
	c0.12,0,0.24,0,0.36,0c0.18,0,0.36,0,0.54,0c0.12,0,0.24,0,0.36,0c0.18,0,0.36,0,0.54,0c0.78,0,1.56,0,2.34,0
	c0.18,0,0.359,0,0.539,0c0.181,0,0.36,0,0.541,0c0.42,0,0.84,0,1.26,0c0,0.42,0,0.84,0,1.26c0,0.18,0,0.36,0,0.54s0,0.36,0,0.54
	c0,0.24,0,0.479,0,0.72c0,0.181,0,0.36,0,0.54s0,0.36,0,0.54s0,0.36,0,0.54c0.42,0,0.84,0,1.26,0c0.18,0,0.359,0,0.54,0
	c0.18,0,0.36,0,0.54,0c0.24,0,0.48,0,0.72,0c0.181,0,0.36,0,0.54,0s0.359,0,0.54,0s0.36,0,0.54,0c0,0.54,0,1.08,0,1.62
	c0,0.479,0,0.96,0,1.44c0,0.96,0,1.92,0,2.88c0,0.54,0,1.08,0,1.62c0,0.479,0,0.96,0,1.439c0,0.96,0,1.92,0,2.88c0,3.9,0,7.8,0,11.7
	c-0.42,0-0.84,0-1.26,0c-0.18,0-0.36,0-0.54,0c-0.181,0-0.36,0-0.54,0c-0.721,0-1.439,0-2.16,0c-0.061,0-0.12,0-0.18,0
	c0,0.18,0,0.36,0,0.54s0,0.36,0,0.54c0,0.12,0,0.24,0,0.36c0,0.3,0,0.6,0,0.899s0,0.601,0,0.9s0,0.6,0,0.899c0,0.181,0,0.36,0,0.54
	c-0.78,0-1.561,0-2.34,0c-0.78,0-1.561,0-2.34,0c-0.18,0-0.36,0-0.54,0c-0.12,0-0.24,0-0.36,0c-0.18,0-0.36,0-0.54,0
	c-0.12,0-0.24,0-0.36,0c-0.6,0-1.2,0-1.8,0c-1.14,0-2.28,0-3.42,0c-2.34,0-4.68,0-7.02,0c0-1.56,0-3.12,0-4.68
	c-0.18,0-0.36,0-0.54,0c-1.5,0-3,0-4.5,0s-3,0-4.5,0c0-1.62,0-3.24,0-4.86c-0.42,0-0.84,0-1.26,0c-0.36,0-0.72,0-1.08,0
	c-0.42,0-0.84,0-1.26,0c-0.18,0-0.36,0-0.54,0c-0.18,0-0.36,0-0.54,0c0-1.199,0-2.399,0-3.6c0-1.14,0-2.28,0-3.42
	c0-0.18,0-0.36,0-0.54c0-0.12,0-0.24,0-0.36c0-0.18,0-0.359,0-0.54c0-0.12,0-0.239,0-0.359c0-0.181,0-0.36,0-0.54
	c0-0.12,0-0.24,0-0.36c0-0.18,0-0.36,0-0.54c0-0.12,0-0.24,0-0.36c0-0.18,0-0.359,0-0.539c0-0.12,0-0.24,0-0.36
	c0-0.18,0-0.36,0-0.54c0-0.12,0-0.24,0-0.36c0-0.54,0-1.08,0-1.62c0.42,0,0.84,0,1.26,0c0.18,0,0.36,0,0.54,0c0.18,0,0.36,0,0.54,0
	c0.18,0,0.36,0,0.54,0c0.18,0,0.36,0,0.54,0c0.18,0,0.36,0,0.54,0c0.12,0,0.24,0,0.36,0c0.06,0,0.12,0,0.18,0s0.12,0,0.18,0
	c0-0.18,0-0.359,0-0.54c0-0.72,0-1.439,0-2.159c0-0.36,0-0.721,0-1.08c0-0.181,0-0.36,0-0.54c0-0.12,0-0.24,0-0.36
	c0.18,0,0.36,0,0.54,0c0.18,0,0.36,0,0.54,0c0.18,0,0.36,0,0.54,0c0.24,0,0.48,0,0.72,0c0.18,0,0.36,0,0.54,0c0.18,0,0.36,0,0.54,0
	s0.36,0,0.54,0c0.24,0,0.48,0,0.72,0c1.62,0,3.24,0,4.86,0c0-0.78,0-1.56,0-2.34S23.58,76.02,23.58,75.24z"/>
<path fill-rule="evenodd" clip-rule="evenodd" fill="#D97761" d="M42.3,75.24c0.18,0,0.359,0,0.539,0c0.181,0,0.361,0,0.541,0
	c0.42,0,0.84,0,1.26,0c0.18,0,0.359,0,0.54,0c0.18,0,0.36,0,0.54,0c0.42,0,0.84,0,1.26,0c1.561,0,3.12,0,4.68,0
	c0,0.779,0,1.56,0,2.34s0,1.56,0,2.34c-0.42,0-0.84,0-1.26,0c-0.18,0-0.359,0-0.54,0c-0.18,0-0.36,0-0.54,0c-0.24,0-0.48,0-0.72,0
	c-0.181,0-0.36,0-0.54,0s-0.359,0-0.54,0s-0.36,0-0.54,0s-0.359,0-0.54,0s-0.36,0-0.54,0s-0.359,0-0.54,0c-0.239,0-0.479,0-0.72,0
	c-0.18,0-0.36,0-0.54,0c-0.181,0-0.36,0-0.54,0c-0.42,0-0.84,0-1.26,0c0-0.18,0-0.36,0-0.54s0-0.36,0-0.54s0-0.359,0-0.54
	c0-0.24,0-0.479,0-0.72c0-0.18,0-0.36,0-0.54s0-0.36,0-0.54C42.3,76.08,42.3,75.66,42.3,75.24z"/>
<path fill-rule="evenodd" clip-rule="evenodd" fill="#BB6B5C" d="M51.66,75.24c0.24,0,0.48,0,0.721,0c0.3,0,0.6,0,0.899,0
	s0.601,0,0.9,0c0.12,0,0.239,0,0.36,0c0.18,0,0.359,0,0.539,0c1.2,0,2.4,0,3.601,0s2.399,0,3.6,0c0.601,0,1.2,0,1.8,0
	c0.121,0,0.24,0,0.36,0c0.181,0,0.36,0,0.54,0c0.12,0,0.24,0,0.359,0c0.181,0,0.361,0,0.541,0c0,0.42,0,0.84,0,1.26
	c0,0.18,0,0.36,0,0.54s0,0.36,0,0.54c0,0.24,0,0.479,0,0.72c0,0.181,0,0.36,0,0.54c0,0.36,0,0.72,0,1.08c-0.42,0-0.84,0-1.26,0
	c-0.181,0-0.361,0-0.541,0s-0.359,0-0.539,0c-0.36,0-0.721,0-1.08,0c-0.181,0-0.36,0-0.541,0c-0.119,0-0.239,0-0.359,0
	c-0.061,0-0.12,0-0.18,0c-0.061,0-0.12,0-0.18,0c0,0.18,0,0.36,0,0.54s0,0.36,0,0.54c0,0.12,0,0.24,0,0.36c0,0.18,0,0.359,0,0.54
	c0,0.119,0,0.239,0,0.359c0,0.181,0,0.36,0,0.54c0,0.12,0,0.24,0,0.36c0,0.18,0,0.359,0,0.54c0,0.12,0,0.24,0,0.359
	c0,0.181,0,0.36,0,0.54c0.42,0,0.84,0,1.26,0c0.18,0,0.359,0,0.539,0c0.181,0,0.36,0,0.541,0c0.239,0,0.479,0,0.719,0
	c0.181,0,0.361,0,0.541,0s0.359,0,0.539,0c0.181,0,0.361,0,0.541,0c0,0.42,0,0.841,0,1.261c0,0.18,0,0.359,0,0.54
	c0,0.18,0,0.359,0,0.54c0,0.239,0,0.479,0,0.72c0,0.18,0,0.359,0,0.54c0,0.18,0,0.359,0,0.54c0,0.18,0,0.359,0,0.54
	c0,0.239,0,0.479,0,0.72c0,0.18,0,0.36,0,0.54s0,0.36,0,0.54s0,0.36,0,0.54c0,0.24,0,0.479,0,0.72c0,0.18,0,0.36,0,0.54
	c0,0.36,0,0.72,0,1.08c0.779,0,1.56,0,2.34,0c0.779,0,1.56,0,2.34,0c0,0.18,0,0.36,0,0.54c0,0.12,0,0.24,0,0.36c0,0.3,0,0.6,0,0.899
	c0,0.601,0,1.2,0,1.8c0,1.2,0,2.4,0,3.601c0,2.34,0,4.68,0,7.02c-1.561,0-3.12,0-4.68,0c-1.561,0-3.121,0-4.68,0
	c0-3.06,0-6.12,0-9.18c0-0.78,0-1.56,0-2.34s0-1.561,0-2.34c0-1.5,0-3,0-4.5c0-0.181,0-0.36,0-0.54c-1.441,0-2.881,0-4.32,0
	c-0.18,0-0.36,0-0.541,0c0-0.24,0-0.48,0-0.721c0-0.18,0-0.359,0-0.54c0-0.18,0-0.359,0-0.539c0-0.181,0-0.36,0-0.54
	c0-0.421,0-0.841,0-1.261c0-0.18,0-0.359,0-0.54c0-0.18,0-0.359,0-0.54c0-1.56,0-3.119,0-4.68c-0.42,0-0.84,0-1.26,0
	c-0.18,0-0.359,0-0.539,0c-0.181,0-0.36,0-0.541,0c-0.24,0-0.479,0-0.72,0c-0.18,0-0.36,0-0.54,0s-0.359,0-0.539,0
	c-0.181,0-0.361,0-0.541,0c0-0.78,0-1.56,0-2.34S51.66,76.02,51.66,75.24z"/>
<path fill-rule="evenodd" clip-rule="evenodd" fill="#0A1A3E" d="M65.88,75.24c0.359,0,0.72,0,1.08,0c0.42,0,0.84,0,1.26,0
	c0.359,0,0.72,0,1.08,0c0.42,0,0.84,0,1.26,0c0,0.12,0,0.24,0,0.359c0,0.181,0,0.36,0,0.54c0,0.36,0,0.721,0,1.08
	c0,0.721,0,1.44,0,2.16c0,0.18,0,0.36,0,0.54c-0.061,0-0.12,0-0.18,0c-0.061,0-0.12,0-0.18,0c-0.121,0-0.24,0-0.361,0
	c-0.18,0-0.359,0-0.539,0s-0.36,0-0.541,0c-0.18,0-0.359,0-0.539,0s-0.36,0-0.54,0c-0.181,0-0.36,0-0.54,0c-0.42,0-0.84,0-1.26,0
	c0-0.36,0-0.72,0-1.08c0-0.18,0-0.359,0-0.54c0-0.24,0-0.479,0-0.72c0-0.18,0-0.36,0-0.54s0-0.36,0-0.54
	C65.88,76.08,65.88,75.66,65.88,75.24z"/>
<path fill-rule="evenodd" clip-rule="evenodd" fill="#0A1A3E" d="M9.36,79.92c0,0.78,0,1.561,0,2.34c0,0.24,0,0.48,0,0.721
	c0,0.18,0,0.359,0,0.539c0,0.36,0,0.721,0,1.08c0,0.54,0,1.08,0,1.62c0,0.12,0,0.24,0,0.36c0,0.18,0,0.36,0,0.54
	c0,0.12,0,0.24,0,0.36c0,0.18,0,0.359,0,0.539c0,0.12,0,0.24,0,0.36c0,0.18,0,0.36,0,0.54c0,0.12,0,0.24,0,0.36
	c0,0.18,0,0.359,0,0.54c0,0.12,0,0.239,0,0.359c0,0.181,0,0.36,0,0.54c0,0.12,0,0.24,0,0.36c0,0.18,0,0.36,0,0.54
	c0,1.14,0,2.28,0,3.42c0,1.2,0,2.4,0,3.6c-0.66,0-1.32,0-1.98,0c-0.72,0-1.44,0-2.16,0c-0.18,0-0.36,0-0.54,0
	c0-0.239,0-0.479,0-0.72c0-0.18,0-0.36,0-0.54c0-0.36,0-0.72,0-1.08c0-0.78,0-1.56,0-2.34c0-0.36,0-0.72,0-1.08
	c0-0.18,0-0.36,0-0.54c0-0.24,0-0.479,0-0.72c0-0.18,0-0.36,0-0.54s0-0.36,0-0.54s0-0.36,0-0.54c0-0.24,0-0.48,0-0.72
	c0-0.181,0-0.36,0-0.54c0-0.181,0-0.36,0-0.54c0-0.181,0-0.36,0-0.54c0-0.24,0-0.48,0-0.72c0-0.36,0-0.721,0-1.08
	c0-0.181,0-0.36,0-0.54c0-0.24,0-0.48,0-0.721c0-0.359,0-0.72,0-1.08c0-0.18,0-0.359,0-0.539c0-0.24,0-0.48,0-0.721
	c0-0.779,0-1.56,0-2.34c0.18,0,0.36,0,0.54,0c0.12,0,0.24,0,0.36,0c0.18,0,0.36,0,0.54,0c0.36,0,0.72,0,1.08,0
	C7.92,79.92,8.64,79.92,9.36,79.92z"/>
<path fill-rule="evenodd" clip-rule="evenodd" fill="#D97761" d="M9.36,79.92c0.18,0,0.36,0,0.54,0c0.18,0,0.36,0,0.54,0
	s0.36,0,0.54,0c0.24,0,0.48,0,0.72,0c0.18,0,0.36,0,0.54,0c0.18,0,0.36,0,0.54,0c0.42,0,0.84,0,1.26,0c0,0.12,0,0.24,0,0.36
	c0,0.18,0,0.359,0,0.54c0,0.359,0,0.72,0,1.08c0,0.72,0,1.439,0,2.159c0,0.181,0,0.36,0,0.54c-0.06,0-0.12,0-0.18,0s-0.12,0-0.18,0
	c-0.12,0-0.24,0-0.36,0c-0.18,0-0.36,0-0.54,0c-0.18,0-0.36,0-0.54,0c-0.18,0-0.36,0-0.54,0c-0.18,0-0.36,0-0.54,0
	c-0.18,0-0.36,0-0.54,0c-0.42,0-0.84,0-1.26,0c0-0.359,0-0.72,0-1.08c0-0.18,0-0.359,0-0.539c0-0.24,0-0.48,0-0.721
	C9.36,81.48,9.36,80.7,9.36,79.92z"/>
<path fill-rule="evenodd" clip-rule="evenodd" fill="#FDFEFF" d="M46.98,79.92c0.18,0,0.359,0,0.54,0s0.36,0,0.54,0s0.359,0,0.54,0
	c0.239,0,0.479,0,0.72,0c0.18,0,0.36,0,0.54,0c0.181,0,0.36,0,0.54,0c0.42,0,0.84,0,1.26,0c0.18,0,0.36,0,0.541,0
	c0.18,0,0.359,0,0.539,0s0.36,0,0.54,0c0.24,0,0.479,0,0.72,0c0.181,0,0.36,0,0.541,0c0.18,0,0.359,0,0.539,0c0.42,0,0.84,0,1.26,0
	c0,1.561,0,3.12,0,4.68c0,0.181,0,0.36,0,0.54c0,0.181,0,0.36,0,0.54c0,0.42,0,0.84,0,1.261c0,0.18,0,0.359,0,0.54
	c0,0.18,0,0.359,0,0.539c0,0.181,0,0.36,0,0.54c0,0.24,0,0.48,0,0.721c0.181,0,0.361,0,0.541,0c1.439,0,2.879,0,4.32,0
	c0,0.18,0,0.359,0,0.54c0,1.5,0,3,0,4.5c0,0.779,0,1.56,0,2.34s0,1.56,0,2.34c0,3.06,0,6.12,0,9.18c-0.781,0-1.561,0-2.341,0
	c-0.42,0-0.84,0-1.26,0c-0.181,0-0.36,0-0.54,0c-0.12,0-0.24,0-0.359,0c-0.061,0-0.121,0-0.181,0s-0.12,0-0.181,0
	c0,0.181,0,0.36,0,0.54c0,0.181,0,0.36,0,0.54c0,0.12,0,0.24,0,0.36c0,0.3,0,0.6,0,0.899c0,0.601,0,1.2,0,1.801
	c0,0.18,0,0.359,0,0.54c-1.56,0-3.119,0-4.68,0c-2.34,0-4.68,0-7.02,0c-0.18,0-0.36,0-0.54,0c-0.12,0-0.24,0-0.36,0
	c-0.18,0-0.359,0-0.539,0c-0.121,0-0.24,0-0.361,0c-0.18,0-0.359,0-0.539,0c-0.12,0-0.24,0-0.36,0c-0.181,0-0.36,0-0.54,0
	c-0.12,0-0.24,0-0.359,0c-1.141,0-2.281,0-3.42,0c0-1.561,0-3.12,0-4.681c0.78,0,1.56,0,2.34,0c0.779,0,1.56,0,2.34,0
	c0-0.18,0-0.359,0-0.54c0-0.3,0-0.6,0-0.899s0-0.601,0-0.9s0-0.6,0-0.899c0-0.12,0-0.24,0-0.36c0-0.18,0-0.36,0-0.54s0-0.36,0-0.54
	c0.06,0,0.119,0,0.18,0c0.721,0,1.439,0,2.16,0c0.18,0,0.359,0,0.54,0c0.18,0,0.36,0,0.54,0c0.42,0,0.84,0,1.26,0
	c0-3.9,0-7.8,0-11.7c0-0.96,0-1.92,0-2.88c0-0.479,0-0.96,0-1.439c0-0.54,0-1.08,0-1.62c0-0.96,0-1.92,0-2.88c0-0.48,0-0.961,0-1.44
	C46.98,81,46.98,80.46,46.98,79.92z"/>
<path fill-rule="evenodd" clip-rule="evenodd" fill="#0A1A3E" d="M65.88,79.92c0,0.18,0,0.36,0,0.54s0,0.36,0,0.54s0,0.36,0,0.54
	c0,0.24,0,0.479,0,0.72c0,0.181,0,0.36,0,0.54c0,0.181,0,0.36,0,0.54c0,0.42,0,0.84,0,1.26c-0.18,0-0.36,0-0.541,0
	c-0.18,0-0.359,0-0.539,0s-0.36,0-0.541,0c-0.239,0-0.479,0-0.719,0c-0.181,0-0.36,0-0.541,0c-0.18,0-0.359,0-0.539,0
	c-0.42,0-0.84,0-1.26,0c0-0.18,0-0.359,0-0.54c0-0.119,0-0.239,0-0.359c0-0.181,0-0.36,0-0.54c0-0.12,0-0.24,0-0.36
	c0-0.18,0-0.359,0-0.54c0-0.12,0-0.24,0-0.359c0-0.181,0-0.36,0-0.54c0-0.12,0-0.24,0-0.36c0-0.18,0-0.36,0-0.54s0-0.36,0-0.54
	c0.06,0,0.119,0,0.18,0c0.06,0,0.119,0,0.18,0c0.12,0,0.24,0,0.359,0c0.181,0,0.36,0,0.541,0c0.359,0,0.72,0,1.08,0
	c0.18,0,0.359,0,0.539,0s0.36,0,0.541,0C65.041,79.92,65.46,79.92,65.88,79.92z"/>
<path fill-rule="evenodd" clip-rule="evenodd" fill="#0A1A3E" d="M65.88,84.6c1.379,0,2.76,0,4.14,0c0.181,0,0.36,0,0.54,0
	c0,0.24,0,0.48,0,0.721c0,0.18,0,0.359,0,0.54c0,0.359,0,0.72,0,1.08c0,0.18,0,0.359,0,0.54c0,0.18,0,0.359,0,0.539
	c0,0.421,0,0.841,0,1.261c0,0.18,0,0.359,0,0.54c0,0.18,0,0.359,0,0.54c0,0.42,0,0.84,0,1.26c0,0.78,0,1.56,0,2.34
	c-0.78,0-1.561,0-2.34,0c-0.78,0-1.561,0-2.34,0c0-0.36,0-0.72,0-1.08c0-0.18,0-0.36,0-0.54c0-0.24,0-0.479,0-0.72
	c0-0.18,0-0.36,0-0.54s0-0.36,0-0.54s0-0.36,0-0.54c0-0.24,0-0.48,0-0.72c0-0.181,0-0.36,0-0.54c0-0.181,0-0.36,0-0.54
	c0-0.181,0-0.36,0-0.54c0-0.24,0-0.48,0-0.72c0-0.181,0-0.36,0-0.54c0-0.181,0-0.36,0-0.54C65.88,85.44,65.88,85.02,65.88,84.6z"/>
<path fill-rule="evenodd" clip-rule="evenodd" fill="#0A1A3E" d="M70.56,93.96c1.38,0,2.76,0,4.141,0c0.18,0,0.359,0,0.539,0
	c0,0.06,0,0.12,0,0.18c0,0.24,0,0.48,0,0.721c0,0.3,0,0.6,0,0.899s0,0.601,0,0.9s0,0.6,0,0.899c0,1.2,0,2.4,0,3.601
	c0,1.14,0,2.28,0,3.42c0,1.2,0,2.4,0,3.6c-0.779,0-1.56,0-2.34,0c-0.779,0-1.561,0-2.34,0c0-2.34,0-4.68,0-7.02c0-1.2,0-2.4,0-3.601
	c0-0.6,0-1.199,0-1.8c0-0.3,0-0.6,0-0.899c0-0.12,0-0.24,0-0.36C70.56,94.32,70.56,94.14,70.56,93.96z"/>
<path fill-rule="evenodd" clip-rule="evenodd" fill="#0A1A3E" d="M9.36,98.64c0.18,0,0.36,0,0.54,0c0.18,0,0.36,0,0.54,0
	c0.42,0,0.84,0,1.26,0c0.36,0,0.72,0,1.08,0c0.42,0,0.84,0,1.26,0c0,1.62,0,3.24,0,4.86c0,1.56,0,3.12,0,4.68
	c0,1.561,0,3.12,0,4.681c0,1.56,0,3.12,0,4.68s0,3.12,0,4.68c0,1.561,0,3.12,0,4.681c0,1.56,0,3.119,0,4.68c-1.38,0-2.76,0-4.14,0
	c-0.18,0-0.36,0-0.54,0c0-0.18,0-0.36,0-0.54c0-0.12,0-0.24,0-0.36c0-0.18,0-0.359,0-0.54c0-0.359,0-0.72,0-1.08
	c0-0.119,0-0.239,0-0.359c0-0.181,0-0.36,0-0.54c0-0.36,0-0.72,0-1.08c0-1.38,0-2.76,0-4.14c0-0.12,0-0.24,0-0.36
	c0-0.18,0-0.36,0-0.54c0-0.36,0-0.72,0-1.08c0-0.12,0-0.24,0-0.36c0-0.18,0-0.359,0-0.54c0-0.359,0-0.72,0-1.079
	c0-1.381,0-2.761,0-4.141c0-0.12,0-0.24,0-0.359c0-0.181,0-0.36,0-0.54c0-0.36,0-0.721,0-1.08c0-0.12,0-0.24,0-0.36
	c0-0.18,0-0.36,0-0.54c0-0.36,0-0.72,0-1.08c0-1.38,0-2.76,0-4.14c0-0.3,0-0.601,0-0.9c0-0.359,0-0.72,0-1.08c0-0.3,0-0.6,0-0.899
	c0-0.36,0-0.721,0-1.08C9.36,101.4,9.36,100.02,9.36,98.64z"/>
<path fill-rule="evenodd" clip-rule="evenodd" fill="#BB6B5C" d="M14.04,103.5c1.5,0,3,0,4.5,0s3,0,4.5,0c0.18,0,0.36,0,0.54,0
	c0,1.56,0,3.12,0,4.68c-1.62,0-3.24,0-4.86,0c-0.78,0-1.56,0-2.34,0c-0.42,0-0.84,0-1.26,0c-0.36,0-0.72,0-1.08,0
	C14.04,106.62,14.04,105.06,14.04,103.5z"/>
<path fill-rule="evenodd" clip-rule="evenodd" fill="#D97761" d="M14.04,108.18c0.36,0,0.72,0,1.08,0c0.42,0,0.84,0,1.26,0
	c0.78,0,1.56,0,2.34,0c1.62,0,3.24,0,4.86,0c0,1.561,0,3.12,0,4.681c-1.62,0-3.24,0-4.86,0c-0.42,0-0.84,0-1.26,0
	c-0.18,0-0.36,0-0.54,0c-0.18,0-0.36,0-0.54,0c-0.42,0-0.84,0-1.26,0c-0.36,0-0.72,0-1.08,0C14.04,111.3,14.04,109.74,14.04,108.18z
	"/>
<path fill-rule="evenodd" clip-rule="evenodd" fill="#BB6B5C" d="M23.58,108.18c2.34,0,4.68,0,7.02,0c1.14,0,2.28,0,3.42,0
	c0.6,0,1.2,0,1.8,0c0.12,0,0.24,0,0.36,0c0.18,0,0.36,0,0.54,0c0.12,0,0.24,0,0.36,0c0.18,0,0.36,0,0.54,0c0,1.561,0,3.12,0,4.681
	c-0.24,0-0.48,0-0.72,0c-0.18,0-0.36,0-0.54,0c-0.18,0-0.36,0-0.54,0c-0.18,0-0.36,0-0.54,0c-0.42,0-0.84,0-1.26,0
	c-0.36,0-0.72,0-1.08,0c-1.56,0-3.12,0-4.68,0c-0.42,0-0.84,0-1.26,0c-0.36,0-0.72,0-1.08,0c-0.42,0-0.84,0-1.26,0
	c-0.36,0-0.72,0-1.08,0C23.58,111.3,23.58,109.74,23.58,108.18z"/>
<path fill-rule="evenodd" clip-rule="evenodd" fill="#BB6B5C" d="M61.201,108.18c0,0.24,0,0.48,0,0.721c0,0.119,0,0.239,0,0.359
	c0,0.3,0,0.601,0,0.9c0,0.6,0,1.2,0,1.8c0,1.14,0,2.28,0,3.42c0,2.28,0,4.561,0,6.84c-0.781,0-1.561,0-2.341,0
	c-0.42,0-0.84,0-1.26,0c-0.36,0-0.72,0-1.08,0c-0.06,0-0.12,0-0.181,0c0,0.181,0,0.36,0,0.54c0,2.94,0,5.88,0,8.82
	c-2.34,0-4.68,0-7.02,0c-1.14,0-2.279,0-3.42,0c-0.12,0-0.24,0-0.359,0c-0.181,0-0.36,0-0.541,0c-0.119,0-0.24,0-0.359,0
	c-0.18,0-0.36,0-0.54,0c-0.12,0-0.24,0-0.36,0c-0.18,0-0.359,0-0.539,0c-0.121,0-0.24,0-0.361,0c-0.18,0-0.359,0-0.539,0
	c0-0.18,0-0.36,0-0.54c0-0.12,0-0.24,0-0.36c0-0.18,0-0.359,0-0.54c0-0.12,0-0.239,0-0.359c0-0.181,0-0.36,0-0.54
	c0-0.12,0-0.24,0-0.36c0-0.18,0-0.36,0-0.54c0-0.12,0-0.24,0-0.359c0-1.141,0-2.28,0-3.421c0-0.18,0-0.359,0-0.54
	c0-0.119,0-0.239,0-0.359c0-0.18,0-0.36,0-0.54c0-0.12,0-0.24,0-0.36c0-0.18,0-0.359,0-0.54c0-0.12,0-0.239,0-0.359
	c0-0.181,0-0.36,0-0.54c0-0.12,0-0.24,0-0.36c0-1.14,0-2.28,0-3.42c0.42,0,0.84,0,1.26,0c0.18,0,0.359,0,0.54,0
	c0.18,0,0.36,0,0.54,0c0.24,0,0.48,0,0.72,0c0.181,0,0.36,0,0.54,0s0.359,0,0.54,0s0.36,0,0.54,0c1.561,0,3.12,0,4.68,0
	c0-1.56,0-3.12,0-4.68c1.561,0,3.12,0,4.68,0c0-0.181,0-0.36,0-0.54c0-0.601,0-1.2,0-1.801c0-0.3,0-0.6,0-0.899
	c0-0.12,0-0.24,0-0.36c0-0.18,0-0.359,0-0.54c0-0.18,0-0.359,0-0.54c0.061,0,0.121,0,0.181,0s0.12,0,0.181,0
	c0.119,0,0.239,0,0.359,0c0.18,0,0.359,0,0.54,0c0.42,0,0.84,0,1.26,0C59.64,108.18,60.419,108.18,61.201,108.18z"/>
<path fill-rule="evenodd" clip-rule="evenodd" fill="#0A1A3E" d="M61.201,108.18c1.559,0,3.119,0,4.68,0c1.56,0,3.119,0,4.68,0
	c0,0.12,0,0.24,0,0.36c0,0.18,0,0.36,0,0.54c0,0.36,0,0.72,0,1.08c0,0.72,0,1.439,0,2.16c0,0.18,0,0.359,0,0.54
	c-0.061,0-0.12,0-0.18,0c-0.721,0-1.44,0-2.16,0c-0.36,0-0.721,0-1.08,0c-0.18,0-0.36,0-0.54,0c-0.24,0-0.479,0-0.72,0
	c0,1.56,0,3.12,0,4.68s0,3.12,0,4.68c-1.561,0-3.12,0-4.68,0c0-2.279,0-4.56,0-6.84c0-1.14,0-2.28,0-3.42c0-0.6,0-1.2,0-1.8
	c0-0.3,0-0.601,0-0.9c0-0.12,0-0.24,0-0.359C61.201,108.66,61.201,108.42,61.201,108.18z"/>
<path fill-rule="evenodd" clip-rule="evenodd" fill="#E0B49C" d="M14.04,112.86c0.36,0,0.72,0,1.08,0c0.42,0,0.84,0,1.26,0
	c0.18,0,0.36,0,0.54,0c0.18,0,0.36,0,0.54,0c0.42,0,0.84,0,1.26,0c1.62,0,3.24,0,4.86,0c0,1.56,0,3.12,0,4.68c0.18,0,0.36,0,0.54,0
	c1.5,0,3,0,4.5,0c1.44,0,2.88,0,4.32,0c0,1.56,0,3.12,0,4.68c0,1.561,0,3.12,0,4.681c-0.24,0-0.48,0-0.72,0c-0.18,0-0.36,0-0.54,0
	c-0.36,0-0.72,0-1.08,0c-0.18,0-0.36,0-0.54,0s-0.36,0-0.54,0s-0.36,0-0.54,0c-0.24,0-0.48,0-0.72,0c0,0.18,0,0.359,0,0.54
	c0,1.38,0,2.76,0,4.14c-1.14,0-2.28,0-3.42,0c-0.6,0-1.2,0-1.8,0c-0.12,0-0.24,0-0.36,0c-0.18,0-0.36,0-0.54,0
	c-0.12,0-0.24,0-0.36,0c-0.18,0-0.36,0-0.54,0c-0.6,0-1.2,0-1.8,0c-0.12,0-0.24,0-0.36,0c-0.18,0-0.36,0-0.54,0
	c-0.12,0-0.24,0-0.36,0c-0.18,0-0.36,0-0.54,0c-0.6,0-1.2,0-1.8,0c-0.12,0-0.24,0-0.36,0c-0.18,0-0.36,0-0.54,0
	c-0.12,0-0.24,0-0.36,0c-0.18,0-0.36,0-0.54,0c0-1.561,0-3.12,0-4.68c0-1.561,0-3.12,0-4.681c0-1.56,0-3.12,0-4.68
	S14.04,114.42,14.04,112.86z"/>
<path fill-rule="evenodd" clip-rule="evenodd" fill="#D97761" d="M23.58,112.86c0.36,0,0.72,0,1.08,0c0.42,0,0.84,0,1.26,0
	c0.36,0,0.72,0,1.08,0c0.42,0,0.84,0,1.26,0c1.56,0,3.12,0,4.68,0c0,1.56,0,3.12,0,4.68c-1.44,0-2.88,0-4.32,0c-1.5,0-3,0-4.5,0
	c-0.18,0-0.36,0-0.54,0C23.58,115.98,23.58,114.42,23.58,112.86z"/>
<path fill-rule="evenodd" clip-rule="evenodd" fill="#E0B49C" d="M32.94,112.86c0.36,0,0.72,0,1.08,0c0.42,0,0.84,0,1.26,0
	c0.18,0,0.36,0,0.54,0c0.18,0,0.36,0,0.54,0c0.18,0,0.36,0,0.54,0c0.24,0,0.48,0,0.72,0c0,1.56,0,3.12,0,4.68c-0.78,0-1.56,0-2.34,0
	c-0.78,0-1.56,0-2.34,0C32.94,115.98,32.94,114.42,32.94,112.86z"/>
<path fill-rule="evenodd" clip-rule="evenodd" fill="#D97761" d="M37.62,112.86c1.14,0,2.28,0,3.42,0c0.119,0,0.239,0,0.359,0
	c0.18,0,0.359,0,0.54,0c0.12,0,0.24,0,0.36,0c0.18,0,0.359,0,0.539,0c0.121,0,0.24,0,0.361,0c0.18,0,0.359,0,0.539,0
	c0.12,0,0.24,0,0.36,0c0.18,0,0.36,0,0.54,0c2.34,0,4.68,0,7.02,0c0,1.56,0,3.12,0,4.68c-1.56,0-3.119,0-4.68,0
	c-0.18,0-0.359,0-0.54,0s-0.36,0-0.54,0s-0.359,0-0.54,0c-0.239,0-0.479,0-0.72,0c-0.18,0-0.36,0-0.54,0c-0.181,0-0.36,0-0.54,0
	c-0.42,0-0.84,0-1.26,0c-0.78,0-1.561,0-2.34,0c-0.78,0-1.561,0-2.34,0C37.62,115.98,37.62,114.42,37.62,112.86z"/>
<path fill-rule="evenodd" clip-rule="evenodd" fill="#0A1A3E" d="M32.94,117.54c0.78,0,1.56,0,2.34,0c0.78,0,1.56,0,2.34,0
	c0.78,0,1.56,0,2.34,0c0.779,0,1.56,0,2.34,0c0,1.14,0,2.28,0,3.42c0,0.12,0,0.24,0,0.36c0,0.18,0,0.359,0,0.54
	c0,0.12,0,0.239,0,0.359c0,0.181,0,0.36,0,0.54c0,0.12,0,0.24,0,0.36c0,0.18,0,0.36,0,0.54c0,0.12,0,0.24,0,0.359
	c0,0.181,0,0.36,0,0.54c0,1.141,0,2.28,0,3.421c0,0.119,0,0.239,0,0.359c0,0.18,0,0.36,0,0.54c0,0.12,0,0.24,0,0.36
	c0,0.18,0,0.359,0,0.54c0,0.12,0,0.239,0,0.359c0,0.181,0,0.36,0,0.54c0,0.12,0,0.24,0,0.36c0,0.18,0,0.36,0,0.54
	c-0.36,0-0.721,0-1.08,0c-0.18,0-0.36,0-0.54,0c-0.24,0-0.479,0-0.72,0c-0.36,0-0.721,0-1.081,0c-0.42,0-0.84,0-1.26,0
	c0-1.561,0-3.12,0-4.68c-0.36,0-0.72,0-1.08,0c-0.18,0-0.36,0-0.54,0c-0.24,0-0.48,0-0.72,0c-0.18,0-0.36,0-0.54,0
	c-0.18,0-0.36,0-0.54,0c-0.18,0-0.36,0-0.54,0c-0.24,0-0.48,0-0.72,0c0-1.561,0-3.12,0-4.681C32.94,120.66,32.94,119.1,32.94,117.54
	z"/>
<path fill-rule="evenodd" clip-rule="evenodd" fill="#0A1A3E" d="M61.201,122.22c0,1.561,0,3.12,0,4.681c0,1.56,0,3.119,0,4.68
	c-1.621,0-3.24,0-4.861,0c0-2.94,0-5.88,0-8.82c0-0.18,0-0.359,0-0.54c0.061,0,0.121,0,0.181,0c0.36,0,0.72,0,1.08,0
	c0.42,0,0.84,0,1.26,0C59.64,122.22,60.419,122.22,61.201,122.22z"/>
<path fill-rule="evenodd" clip-rule="evenodd" fill="#0A1A3E" d="M32.94,126.9c0,0.119,0,0.239,0,0.359c0,0.181,0,0.36,0,0.54
	c0,0.181,0,0.36,0,0.54s0,0.36,0,0.54c0,0.72,0,1.44,0,2.16c0,0.18,0,0.36,0,0.54c-0.06,0-0.12,0-0.18,0c-0.06,0-0.12,0-0.18,0
	c-0.12,0-0.24,0-0.36,0c-0.18,0-0.36,0-0.54,0c-0.36,0-0.72,0-1.08,0s-0.72,0-1.08,0c-0.42,0-0.84,0-1.26,0c0-1.38,0-2.76,0-4.14
	c0-0.181,0-0.36,0-0.54c0.24,0,0.48,0,0.72,0c0.18,0,0.36,0,0.54,0s0.36,0,0.54,0s0.36,0,0.54,0c0.36,0,0.72,0,1.08,0
	c0.18,0,0.36,0,0.54,0C32.46,126.9,32.7,126.9,32.94,126.9z"/>
</svg>
