<?xml version="1.0" encoding="utf-8"?>
<!-- Generator: Adobe Illustrator 15.0.0, SVG Export Plug-In  -->
<!DOCTYPE svg PUBLIC "-//W3C//DTD SVG 1.1//EN" "http://www.w3.org/Graphics/SVG/1.1/DTD/svg11.dtd" [
	<!ENTITY ns_flows "http://ns.adobe.com/Flows/1.0/">
]>
<svg version="1.1"
	 xmlns="http://www.w3.org/2000/svg" xmlns:xlink="http://www.w3.org/1999/xlink" xmlns:a="http://ns.adobe.com/AdobeSVGViewerExtensions/3.0/"
	 x="0px" y="0px" width="104px" height="144px" viewBox="-4.56 -7.42 104 144" enable-background="new -4.56 -7.42 104 144"
	 xml:space="preserve">
<defs>
</defs>
<g id="XMLID_2_">
	<g>
		<path fill="#311531" d="M94.39,106.09c0,2.34,0,4.681,0,7.021c-1.62,0-3.24,0-4.86,0c0-1.141,0-2.28,0-3.42c0-0.301,0-0.601,0-0.9
			s0-0.6,0-0.9c0-0.3,0-0.6,0-0.899s0-0.601,0-0.9s0-0.6,0-0.899c0-0.301,0-0.601,0-0.9s0-0.6,0-0.9c0-0.3,0-0.6,0-0.899
			s0-0.601,0-0.9s0-0.6,0-0.899c0-0.301,0-0.601,0-0.9c0-0.12,0-0.24,0-0.36c0-0.18,0-0.359,0-0.54c1.62,0,3.24,0,4.86,0
			C94.39,101.29,94.39,103.69,94.39,106.09z"/>
		<path fill="#311531" d="M89.53,117.25c0,0.18,0,0.36,0,0.54c-0.18,0-0.359,0-0.54,0c-1.14,0-2.28,0-3.42,0c-1.08,0-2.16,0-3.24,0
			c-1.14,0-2.279,0-3.42,0c-0.54,0-1.08,0-1.62,0c-0.18,0-0.359,0-0.54,0c-0.119,0-0.239,0-0.359,0c-0.24,0-0.48,0-0.72,0
			c-0.061,0-0.12,0-0.181,0c0,0.18,0,0.36,0,0.54c0,2.76,0,5.52,0,8.28c0,0.18,0,0.359,0,0.54c-0.24,0-0.479,0-0.72,0
			c-0.18,0-0.36,0-0.54,0s-0.36,0-0.54,0s-0.36,0-0.54,0c-0.24,0-0.479,0-0.72,0c-0.181,0-0.36,0-0.54,0c-0.36,0-0.72,0-1.08,0
			c0-2.34,0-4.681,0-7.021s0-4.68,0-7.02c0-1.561,0-3.12,0-4.681c0.78,0,1.56,0,2.34,0s1.56,0,2.34,0c0,1.561,0,3.12,0,4.681
			c0.54,0,1.08,0,1.62,0c0.12,0,0.24,0,0.36,0c0.18,0,0.359,0,0.54,0c0.12,0,0.239,0,0.359,0c0.181,0,0.36,0,0.54,0
			c0.12,0,0.24,0,0.36,0c0.18,0,0.36,0,0.54,0c0.12,0,0.24,0,0.36,0c0.18,0,0.359,0,0.539,0c0.12,0,0.24,0,0.36,0
			c0.18,0,0.36,0,0.54,0c0.12,0,0.24,0,0.36,0c0.18,0,0.359,0,0.54,0c0.54,0,1.08,0,1.62,0c0.119,0,0.239,0,0.359,0
			c0.181,0,0.36,0,0.54,0c0.12,0,0.24,0,0.36,0c0.18,0,0.359,0,0.54,0c0.12,0,0.24,0,0.359,0c0.181,0,0.36,0,0.54,0
			c0.12,0,0.24,0,0.36,0c0.18,0,0.36,0,0.54,0c0.12,0,0.24,0,0.36,0c0.18,0,0.359,0,0.54,0c0.119,0,0.239,0,0.359,0
			c0.181,0,0.36,0,0.54,0C89.53,114.49,89.53,115.87,89.53,117.25z"/>
		<path fill="#BA6A5B" d="M89.53,109.69c0,1.14,0,2.279,0,3.42c-0.18,0-0.359,0-0.54,0c-0.12,0-0.24,0-0.359,0
			c-0.181,0-0.36,0-0.54,0c-0.12,0-0.24,0-0.36,0c-0.18,0-0.36,0-0.54,0c-0.12,0-0.24,0-0.36,0c-0.18,0-0.359,0-0.54,0
			c-0.119,0-0.239,0-0.359,0c-0.181,0-0.36,0-0.54,0c-0.12,0-0.24,0-0.36,0c-0.18,0-0.359,0-0.54,0c-0.12,0-0.24,0-0.359,0
			c-0.54,0-1.08,0-1.62,0c-0.181,0-0.36,0-0.54,0c-0.12,0-0.24,0-0.36,0c-0.18,0-0.36,0-0.54,0c-0.12,0-0.24,0-0.36,0
			c-0.18,0-0.359,0-0.539,0c-0.12,0-0.24,0-0.36,0c-0.18,0-0.36,0-0.54,0c-0.12,0-0.24,0-0.36,0c-0.18,0-0.359,0-0.54,0
			c-0.12,0-0.239,0-0.359,0c-0.181,0-0.36,0-0.54,0c-0.12,0-0.24,0-0.36,0c-0.54,0-1.08,0-1.62,0c0-1.561,0-3.12,0-4.681
			c-0.78,0-1.56,0-2.34,0s-1.56,0-2.34,0c0-1.199,0-2.399,0-3.6s0-2.4,0-3.6c0-2.341,0-4.681,0-7.021c-0.78,0-1.561,0-2.34,0
			c-0.78,0-1.561,0-2.34,0c0-0.42,0-0.84,0-1.26c0-0.18,0-0.36,0-0.54s0-0.36,0-0.54c0-0.72,0-1.44,0-2.16c0-1.439,0-2.88,0-4.32
			c0-0.18,0-0.359,0-0.54c-0.421,0-0.841,0-1.261,0c-0.18,0-0.359,0-0.54,0c-0.18,0-0.359,0-0.54,0c-0.239,0-0.479,0-0.72,0
			c-0.18,0-0.36,0-0.54,0s-0.359,0-0.54,0c-0.18,0-0.359,0-0.54,0c0-0.359,0-0.72,0-1.079c0-0.421,0-0.841,0-1.261
			c0-0.779,0-1.56,0-2.34c0.54,0,1.08,0,1.62,0c0.601,0,1.2,0,1.8,0c0.12,0,0.24,0,0.36,0c0.18,0,0.36,0,0.54,0
			c0.12,0,0.24,0,0.36,0c0.18,0,0.359,0,0.54,0c0.119,0,0.239,0,0.359,0c0.18,0,0.36,0,0.54,0c0.12,0,0.24,0,0.36,0
			c0.18,0,0.359,0,0.54,0c0.54,0,1.08,0,1.62,0c0.6,0,1.199,0,1.8,0c0.12,0,0.24,0,0.359,0c0.181,0,0.36,0,0.54,0
			c0.12,0,0.24,0,0.36,0c0.18,0,0.36,0,0.54,0c0.12,0,0.24,0,0.36,0c0.18,0,0.359,0,0.54,0c0.119,0,0.239,0,0.359,0
			c0.181,0,0.36,0,0.54,0c0,0.42,0,0.84,0,1.26c0,0.36,0,0.721,0,1.08c0,0.42,0,0.84,0,1.261c0,0.359,0,0.72,0,1.079
			c-0.42,0-0.84,0-1.26,0c-0.18,0-0.36,0-0.54,0s-0.36,0-0.54,0s-0.36,0-0.54,0s-0.36,0-0.54,0s-0.36,0-0.54,0
			c-0.12,0-0.24,0-0.359,0c-0.061,0-0.12,0-0.181,0c-0.06,0-0.12,0-0.18,0c0,0.181,0,0.36,0,0.54c0,0.181,0,0.36,0,0.54
			c0,0.12,0,0.24,0,0.36c0,0.18,0,0.36,0,0.54c0,0.12,0,0.24,0,0.36c0,0.6,0,1.199,0,1.8c0,0.18,0,0.359,0,0.54
			c0.42,0,0.84,0,1.26,0c0.18,0,0.36,0,0.54,0s0.36,0,0.54,0c0.24,0,0.48,0,0.72,0c0.181,0,0.36,0,0.54,0c0.181,0,0.36,0,0.54,0
			c0.181,0,0.36,0,0.54,0c0,0.42,0,0.84,0,1.26c0,0.18,0,0.36,0,0.54s0,0.36,0,0.54c0,0.42,0,0.84,0,1.26c0,0.36,0,0.72,0,1.08
			c0.78,0,1.561,0,2.34,0c0.78,0,1.561,0,2.341,0c0,0.42,0,0.84,0,1.26c0,0.181,0,0.36,0,0.54c0,0.181,0,0.36,0,0.54
			c0,0.36,0,0.721,0,1.08c0,0.181,0,0.36,0,0.54c0,0.12,0,0.24,0,0.36c0,0.06,0,0.12,0,0.18c0,0.061,0,0.12,0,0.18
			c0.18,0,0.359,0,0.539,0c1.5,0,3,0,4.5,0c1.44,0,2.881,0,4.32,0c0,0.181,0,0.36,0,0.54c0,0.12,0,0.24,0,0.36c0,0.3,0,0.6,0,0.9
			c0,0.3,0,0.6,0,0.899s0,0.601,0,0.9s0,0.6,0,0.899c0,0.301,0,0.601,0,0.9s0,0.6,0,0.9c0,0.3,0,0.6,0,0.899s0,0.601,0,0.9
			s0,0.6,0,0.899c0,0.301,0,0.601,0,0.9S89.53,109.39,89.53,109.69z"/>
		<path fill="#311531" d="M89.53,97.63c0,0.42,0,0.84,0,1.26c-1.439,0-2.88,0-4.32,0c-1.5,0-3,0-4.5,0c-0.18,0-0.359,0-0.539,0
			c0-0.06,0-0.119,0-0.18c0-0.06,0-0.12,0-0.18c0-0.12,0-0.24,0-0.36c0-0.18,0-0.359,0-0.54c0-0.359,0-0.72,0-1.08
			c0-0.18,0-0.359,0-0.54c0-0.18,0-0.359,0-0.54c0-0.42,0-0.84,0-1.26c1.439,0,2.88,0,4.319,0c1.5,0,3,0,4.5,0
			c0.181,0,0.36,0,0.54,0c0,0.061,0,0.12,0,0.18c0,0.061,0,0.12,0,0.181c0,0.12,0,0.24,0,0.359c0,0.181,0,0.36,0,0.54
			c0,0.181,0,0.36,0,0.54c0,0.181,0,0.36,0,0.54c0,0.181,0,0.36,0,0.54C89.53,97.271,89.53,97.45,89.53,97.63z"/>
		<path fill="#311531" d="M89.53,69.19c0,0.54,0,1.08,0,1.62c-0.24,0-0.479,0-0.72,0c-0.18,0-0.36,0-0.54,0c-0.36,0-0.72,0-1.08,0
			s-0.72,0-1.08,0c-0.18,0-0.36,0-0.54,0c-0.24,0-0.479,0-0.72,0c0-0.421,0-0.841,0-1.261c0-0.18,0-0.359,0-0.54
			c0-0.18,0-0.359,0-0.54c0-0.18,0-0.359,0-0.54c0-0.18,0-0.359,0-0.54c0-0.18,0-0.359,0-0.54c0-0.119,0-0.239,0-0.359
			c0-0.061,0-0.12,0-0.18c0-0.061,0-0.12,0-0.181c-0.18,0-0.36,0-0.54,0s-0.36,0-0.54,0c-0.12,0-0.24,0-0.36,0
			c-0.18,0-0.359,0-0.54,0c-0.12,0-0.239,0-0.359,0c-0.181,0-0.36,0-0.54,0c-0.12,0-0.24,0-0.36,0c-0.18,0-0.36,0-0.54,0
			c-0.12,0-0.24,0-0.36,0c-0.18,0-0.359,0-0.539,0v-0.54c0-0.33,0-6.32,0-9c0-0.7,0-1.17,0-1.26c0-0.18,0-0.36,0-0.54s0-0.36,0-0.54
			c0-0.24,0-0.48,0-0.72c0-0.18,0-0.36,0-0.54c0-0.18,0-0.36,0-0.54c0-0.18,0-0.36,0-0.54c0.779,0,1.56,0,2.34,0
			c0.42,0,0.84,0,1.26,0c0.36,0,0.72,0,1.08,0c0-0.42,0-0.84,0-1.26c0-0.18,0-0.36,0-0.54c0-0.18,0-0.36,0-0.54
			c0-0.24,0-0.48,0-0.72c0-0.18,0-0.36,0-0.54s0-0.36,0-0.54s0-0.36,0-0.54c0.18,0,0.359,0,0.54,0c0.18,0,0.359,0,0.54,0
			c0.42,0,0.84,0,1.26,0c0.18,0,0.36,0,0.54,0s0.36,0,0.54,0c0.42,0,0.84,0,1.26,0c0,1.92,0,3.84,0,5.76c0,0.96,0,1.92,0,2.88
			c0,0.48,0,0.96,0,1.44c0,0.54,0,1.08,0,1.62c0,0.96,0,1.92,0,2.88c0,0.48,0,0.96,0,1.44c0,0.54,0,1.08,0,1.62
			c0,0.96,0,1.92,0,2.88C89.53,68.23,89.53,68.71,89.53,69.19z"/>
		<path fill="#311531" d="M84.85,79.63c0,0.181,0,0.36,0,0.54c-0.061,0-0.12,0-0.18,0c-0.061,0-0.12,0-0.181,0
			c-0.12,0-0.24,0-0.359,0c-0.181,0-0.36,0-0.54,0c-0.36,0-0.721,0-1.08,0c-0.181,0-0.36,0-0.54,0c-0.181,0-0.36,0-0.54,0
			c-0.42,0-0.84,0-1.26,0c0-0.42,0-0.84,0-1.26c0-0.18,0-0.36,0-0.54s0-0.36,0-0.54c0-0.24,0-0.48,0-0.72c0-0.181,0-0.36,0-0.54
			c0-0.181,0-0.36,0-0.54c0-0.181,0-0.36,0-0.54s0-0.36,0-0.54s0-0.36,0-0.54s0-0.36,0-0.54c0-0.24,0-0.48,0-0.72
			c0-0.181,0-0.36,0-0.54c0-0.181,0-0.36,0-0.54c0-0.42,0-0.84,0-1.26c0.72,0,1.439,0,2.159,0c0.181,0,0.36,0,0.54,0
			c0.181,0,0.36,0,0.54,0c0.181,0,0.36,0,0.54,0c0.24,0,0.48,0,0.721,0c0.06,0,0.119,0,0.18,0c0,1.439,0,2.88,0,4.319
			C84.85,76.63,84.85,78.13,84.85,79.63z"/>
		<path fill="#BA6A5B" d="M84.85,69.55c0,0.42,0,0.84,0,1.261c-0.061,0-0.12,0-0.18,0c-0.24,0-0.48,0-0.721,0
			c-0.18,0-0.359,0-0.54,0c-0.18,0-0.359,0-0.54,0c-0.18,0-0.359,0-0.54,0c-0.72,0-1.439,0-2.159,0c0-0.181,0-0.36,0-0.54
			c0-0.181,0-0.36,0-0.54c0-0.181,0-0.36,0-0.54c0-0.24,0-0.48,0-0.721c0-0.18,0-0.359,0-0.54c0-0.18,0-0.359,0-0.54
			c0-0.42,0-0.84,0-1.26c0.18,0,0.359,0,0.539,0c0.12,0,0.24,0,0.36,0c0.18,0,0.36,0,0.54,0c0.12,0,0.24,0,0.36,0
			c0.18,0,0.359,0,0.54,0c0.12,0,0.239,0,0.359,0c0.181,0,0.36,0,0.54,0c0.12,0,0.24,0,0.36,0c0.18,0,0.36,0,0.54,0s0.36,0,0.54,0
			c0,0.061,0,0.12,0,0.181c0,0.06,0,0.119,0,0.18c0,0.12,0,0.24,0,0.359c0,0.181,0,0.36,0,0.54c0,0.181,0,0.36,0,0.54
			c0,0.181,0,0.36,0,0.54c0,0.181,0,0.36,0,0.54C84.85,69.19,84.85,69.37,84.85,69.55z"/>
		<path fill="#BA6A5B" d="M84.85,50.65c0,0.42,0,0.84,0,1.26c-0.36,0-0.72,0-1.08,0c-0.42,0-0.84,0-1.26,0c-0.78,0-1.561,0-2.34,0
			c0-0.18,0-0.36,0-0.54s0-0.36,0-0.54s0-0.36,0-0.54c0-0.24,0-0.48,0-0.72c0-0.18,0-0.36,0-0.54c0-0.18,0-0.36,0-0.54
			c0-0.42,0-0.84,0-1.26c0.18,0,0.359,0,0.539,0c0.181,0,0.36,0,0.54,0c0.421,0,0.841,0,1.261,0c0.18,0,0.359,0,0.54,0
			c0.18,0,0.359,0,0.54,0c0.42,0,0.84,0,1.26,0c0,0.18,0,0.36,0,0.54s0,0.36,0,0.54s0,0.36,0,0.54c0,0.24,0,0.48,0,0.72
			c0,0.18,0,0.36,0,0.54C84.85,50.29,84.85,50.47,84.85,50.65z"/>
		<path fill="#311531" d="M84.85,45.97c0,0.42,0,0.84,0,1.26c-0.42,0-0.84,0-1.26,0c-0.181,0-0.36,0-0.54,0c-0.181,0-0.36,0-0.54,0
			c-0.42,0-0.84,0-1.261,0c-0.18,0-0.359,0-0.54,0c-0.18,0-0.359,0-0.539,0c0-0.18,0-0.36,0-0.54c0-0.18,0-0.36,0-0.54
			c0-0.18,0-0.36,0-0.54c0-0.24,0-0.48,0-0.72c0-0.18,0-0.36,0-0.54s0-0.36,0-0.54s0-0.36,0-0.54c0-0.24,0-0.48,0-0.72
			c0-0.18,0-0.36,0-0.54c0-0.18,0-0.36,0-0.54c0-0.18,0-0.36,0-0.54c0-0.24,0-0.48,0-0.72c0-0.18,0-0.36,0-0.54
			c0-0.18,0-0.36,0-0.54c0-0.42,0-0.84,0-1.26c0.18,0,0.359,0,0.539,0c0.181,0,0.36,0,0.54,0c0.421,0,0.841,0,1.261,0
			c0.18,0,0.359,0,0.54,0c0.18,0,0.359,0,0.54,0c0.42,0,0.84,0,1.26,0c0,0.18,0,0.36,0,0.54c0,1.44,0,2.88,0,4.32
			c0,0.72,0,1.44,0,2.16c0,0.18,0,0.36,0,0.54C84.85,45.61,84.85,45.79,84.85,45.97z"/>
		<path fill="#311531" d="M80.17,92.05c0,0.721,0,1.44,0,2.16c-0.78,0-1.561,0-2.341,0c-0.779,0-1.56,0-2.34,0c0-0.36,0-0.72,0-1.08
			c0-0.42,0-0.84,0-1.26c0-0.18,0-0.36,0-0.54s0-0.36,0-0.54c0-0.42,0-0.84,0-1.26c0.181,0,0.36,0,0.54,0s0.36,0,0.54,0
			s0.36,0,0.54,0c0.24,0,0.48,0,0.72,0c0.181,0,0.36,0,0.54,0c0.181,0,0.36,0,0.54,0c0.42,0,0.84,0,1.261,0c0,0.18,0,0.359,0,0.54
			c0,0.12,0,0.24,0,0.359c0,0.181,0,0.36,0,0.54C80.17,91.33,80.17,91.69,80.17,92.05z"/>
		<path fill="#311531" d="M80.17,84.311c0,0.18,0,0.359,0,0.539c-0.061,0-0.12,0-0.181,0c-0.06,0-0.12,0-0.18,0
			c-0.12,0-0.24,0-0.36,0c-0.18,0-0.359,0-0.54,0c-0.18,0-0.359,0-0.54,0c-0.18,0-0.359,0-0.54,0c-0.18,0-0.359,0-0.54,0
			c-0.18,0-0.359,0-0.54,0c-0.42,0-0.84,0-1.26,0c0-0.359,0-0.72,0-1.079c0-0.421,0-0.841,0-1.261c0-0.359,0-0.72,0-1.08
			c0-0.42,0-0.84,0-1.26c0.181,0,0.36,0,0.54,0s0.36,0,0.54,0s0.36,0,0.54,0c0.24,0,0.48,0,0.72,0c0.181,0,0.36,0,0.54,0
			c0.181,0,0.36,0,0.54,0c0.42,0,0.84,0,1.261,0c0,0.12,0,0.24,0,0.36c0,0.18,0,0.359,0,0.54c0,0.359,0,0.72,0,1.08
			C80.17,82.87,80.17,83.59,80.17,84.311z"/>
		<path fill="#BA6A5B" d="M80.17,78.91c0,0.42,0,0.84,0,1.26c-0.421,0-0.841,0-1.261,0c-0.18,0-0.359,0-0.54,0
			c-0.18,0-0.359,0-0.54,0c-0.239,0-0.479,0-0.72,0c-0.18,0-0.36,0-0.54,0s-0.36,0-0.54,0s-0.359,0-0.54,0c0-0.359,0-0.72,0-1.08
			c0-0.42,0-0.84,0-1.26c0-0.36,0-0.72,0-1.08c0-0.42,0-0.84,0-1.26c0.36,0,0.72,0,1.08,0c0.42,0,0.84,0,1.26,0
			c0.181,0,0.36,0,0.54,0c0.181,0,0.36,0,0.54,0c0.42,0,0.84,0,1.261,0c0,0.18,0,0.359,0,0.54c0,0.18,0,0.359,0,0.54
			c0,0.18,0,0.359,0,0.54c0,0.239,0,0.479,0,0.72c0,0.18,0,0.36,0,0.54S80.17,78.73,80.17,78.91z"/>
		<path fill="#FDFEFF" d="M80.17,74.95c0,0.18,0,0.36,0,0.54c-0.421,0-0.841,0-1.261,0c-0.18,0-0.359,0-0.54,0
			c-0.18,0-0.359,0-0.54,0c-0.42,0-0.84,0-1.26,0c-0.36,0-0.72,0-1.08,0c0,0.42,0,0.84,0,1.26c0,0.36,0,0.72,0,1.08
			c0,0.42,0,0.84,0,1.26c0,0.36,0,0.721,0,1.08c-0.18,0-0.359,0-0.54,0c-0.12,0-0.24,0-0.359,0c-0.181,0-0.36,0-0.54,0
			c-0.12,0-0.24,0-0.36,0c-0.18,0-0.36,0-0.54,0c-0.12,0-0.24,0-0.36,0c-0.18,0-0.359,0-0.54,0c-0.119,0-0.239,0-0.359,0
			c-0.601,0-1.2,0-1.8,0c-0.54,0-1.08,0-1.62,0c-0.181,0-0.36,0-0.54,0c-0.12,0-0.24,0-0.36,0c-0.18,0-0.36,0-0.54,0
			c-0.12,0-0.24,0-0.359,0c-0.181,0-0.36,0-0.54,0c-0.12,0-0.24,0-0.36,0c-0.18,0-0.36,0-0.54,0c-0.12,0-0.24,0-0.36,0
			c-0.6,0-1.199,0-1.8,0c-0.54,0-1.08,0-1.62,0c-0.18,0-0.359,0-0.54,0c-0.12,0-0.239,0-0.359,0c-0.181,0-0.36,0-0.54,0
			c-0.12,0-0.24,0-0.36,0c-0.18,0-0.36,0-0.54,0c-0.12,0-0.24,0-0.36,0c-0.18,0-0.359,0-0.54,0c-0.119,0-0.239,0-0.359,0
			c-0.18,0-0.36,0-0.54,0c-0.12,0-0.24,0-0.36,0c-0.18,0-0.359,0-0.54,0c-0.12,0-0.239,0-0.359,0c-0.181,0-0.36,0-0.54,0
			c-0.12,0-0.24,0-0.36,0c-0.3,0-0.6,0-0.9,0c-0.3,0-0.6,0-0.899,0s-0.601,0-0.9,0s-0.6,0-0.899,0c-0.301,0-0.601,0-0.9,0
			c-0.6,0-1.2,0-1.8,0c-0.54,0-1.08,0-1.62,0c0-0.42,0-0.84,0-1.26c0-0.18,0-0.36,0-0.54s0-0.36,0-0.54c0-0.36,0-0.72,0-1.08
			c0-0.18,0-0.36,0-0.54c0-0.24,0-0.479,0-0.72c-0.18,0-0.36,0-0.54,0c-0.36,0-0.72,0-1.08,0c-0.18,0-0.36,0-0.54,0
			c-0.18,0-0.36,0-0.54,0c-0.36,0-0.72,0-1.08,0c-0.18,0-0.36,0-0.54,0c-0.12,0-0.24,0-0.36,0c-0.36,0-0.72,0-1.08,0
			c-0.42,0-0.84,0-1.26,0c-0.36,0-0.72,0-1.08,0c-0.42,0-0.84,0-1.26,0c0-0.36,0-0.72,0-1.08c0-0.42,0-0.84,0-1.26
			c0-0.36,0-0.721,0-1.08c0-0.42,0-0.84,0-1.26c0-0.36,0-0.721,0-1.08c0-0.42,0-0.841,0-1.261c0-0.359,0-0.72,0-1.08
			c0-0.42,0-0.84,0-1.26c0.42,0,0.84,0,1.26,0c0.18,0,0.36,0,0.54,0s0.36,0,0.54,0c0.24,0,0.48,0,0.72,0c0.18,0,0.36,0,0.54,0
			c0.36,0,0.72,0,1.08,0c0,0.42,0,0.84,0,1.26c0,0.181,0,0.36,0,0.54c0,0.181,0,0.36,0,0.54c0,0.181,0,0.36,0,0.54
			c0,0.181,0,0.36,0,0.54c0,0.181,0,0.36,0,0.54c0,0.12,0,0.24,0,0.36c0,0.06,0,0.12,0,0.18c0,0.061,0,0.12,0,0.181
			c0.18,0,0.36,0,0.54,0c0.12,0,0.24,0,0.36,0c0.18,0,0.36,0,0.54,0c0.12,0,0.24,0,0.36,0c0.18,0,0.36,0,0.54,0
			c0.12,0,0.24,0,0.36,0c0.18,0,0.36,0,0.54,0c0.12,0,0.24,0,0.36,0c1.14,0,2.28,0,3.42,0c2.34,0,4.68,0,7.021,0
			c0-0.78,0-1.561,0-2.341c0-0.779,0-1.56,0-2.34c1.619,0,3.239,0,4.859,0c0-2.34,0-4.68,0-7.02c0-2.28,0-4.56,0-6.84
			c0-0.12,0-0.24,0-0.36c-0.84,0-1.68,0-2.52,0c-0.78,0-1.561,0-2.34,0c0-1.56,0-3.12,0-4.68c-2.341,0-4.681,0-7.021,0
			s-4.68,0-7.02,0c0,0.42,0,0.84,0,1.26c0,0.18,0,0.36,0,0.54c0,0.18,0,0.36,0,0.54c0,0.24,0,0.48,0,0.72c0,0.18,0,0.36,0,0.54
			s0,0.36,0,0.54s0,0.36,0,0.54c-0.24,0-0.48,0-0.72,0c-0.18,0-0.36,0-0.54,0c-0.18,0-0.36,0-0.54,0s-0.36,0-0.54,0
			c-0.36,0-0.72,0-1.08,0c-0.18,0-0.36,0-0.54,0c-0.12,0-0.24,0-0.36,0c-0.06,0-0.12,0-0.18,0s-0.12,0-0.18,0c0,1.2,0,2.4,0,3.6
			c0,1.2,0,2.4,0,3.6c0,1.2,0,2.4,0,3.6c0,1.14,0,2.28,0,3.42c-0.36,0-0.72,0-1.08,0c-0.18,0-0.36,0-0.54,0c-0.24,0-0.48,0-0.72,0
			c-0.18,0-0.36,0-0.54,0c-0.18,0-0.36,0-0.54,0c-0.42,0-0.84,0-1.26,0c0-3.06,0-6.12,0-9.18s0-6.12,0-9.18c0-0.18,0-0.36,0-0.54
			c0.24,0,0.48,0,0.72,0c0.18,0,0.36,0,0.54,0c0.36,0,0.72,0,1.08,0c0.78,0,1.56,0,2.34,0c0-0.36,0-0.72,0-1.08
			c0-0.42,0-0.84,0-1.26c0-0.36,0-0.72,0-1.08c0-0.42,0-0.84,0-1.26c0.18,0,0.36,0,0.54,0c0.12,0,0.24,0,0.36,0
			c0.18,0,0.36,0,0.54,0c0.36,0,0.72,0,1.08,0c0.72,0,1.44,0,2.16,0c0-0.18,0-0.36,0-0.54c0-0.18,0-0.36,0-0.54
			c0-0.18,0-0.36,0-0.54c0-0.24,0-0.48,0-0.72c0-0.18,0-0.36,0-0.54c0-0.18,0-0.36,0-0.54c0-0.42,0-0.84,0-1.26
			c1.14,0,2.28,0,3.42,0c1.2,0,2.4,0,3.6,0c0.24,0,0.48,0,0.72,0c0.301,0,0.601,0,0.9,0s0.6,0,0.9,0c0.3,0,0.6,0,0.899,0
			c1.2,0,2.4,0,3.601,0c0.239,0,0.479,0,0.72,0c0.12,0,0.24,0,0.36,0c0.18,0,0.359,0,0.539,0c0.12,0,0.24,0,0.36,0
			c0.18,0,0.36,0,0.54,0c0.12,0,0.24,0,0.36,0c0.18,0,0.359,0,0.54,0c1.199,0,2.399,0,3.6,0s2.4,0,3.6,0c0.601,0,1.2,0,1.801,0
			c0.12,0,0.239,0,0.359,0c0.181,0,0.36,0,0.54,0c0.12,0,0.24,0,0.36,0c0.18,0,0.36,0,0.54,0c0,0.78,0,1.56,0,2.34
			c0,0.78,0,1.56,0,2.34c0.18,0,0.36,0,0.54,0c1.38,0,2.76,0,4.14,0c0,0.18,0,0.36,0,0.54c0,0.12,0,0.24,0,0.36
			c0,0.18,0,0.36,0,0.54c0,0.36,0,0.72,0,1.08c0,0.18,0,0.36,0,0.54c0,0.18,0,0.36,0,0.54c0,0.36,0,0.72,0,1.08
			c-0.42,0-0.84,0-1.26,0c-0.36,0-0.72,0-1.08,0s-0.72,0-1.08,0c-0.18,0-0.36,0-0.54,0c-0.24,0-0.479,0-0.72,0c0,0.18,0,0.36,0,0.54
			c0,1.2,0,2.4,0,3.6c0,0.18,0,0.36,0,0.54c-0.24,0-0.48,0-0.72,0c-0.181,0-0.36,0-0.54,0c-0.36,0-0.721,0-1.08,0
			c-0.36,0-0.721,0-1.08,0c-0.181,0-0.36,0-0.54,0c-0.12,0-0.24,0-0.36,0c-0.06,0-0.12,0-0.18,0c-0.061,0-0.12,0-0.18,0
			c0,2.34,0,4.68,0,7.02c0,2.28,0,4.56,0,6.84c0,0.119,0,0.239,0,0.359c0.42,0,0.84,0,1.26,0c0.18,0,0.359,0,0.54,0
			c0.18,0,0.359,0,0.54,0c0.239,0,0.479,0,0.72,0c0.18,0,0.36,0,0.54,0c0.36,0,0.72,0,1.08,0c0,0.24,0,0.48,0,0.72
			c0,0.181,0,0.36,0,0.54c0,0.36,0,0.721,0,1.08c0,0.36,0,0.721,0,1.08c0,0.181,0,0.36,0,0.54c0,0.24,0,0.48,0,0.721
			c0.18,0,0.36,0,0.54,0c1.5,0,3,0,4.5,0c1.439,0,2.88,0,4.32,0c0,0.42,0,0.84,0,1.26c0,0.18,0,0.359,0,0.54c0,0.18,0,0.359,0,0.54
			c0,0.239,0,0.479,0,0.72c0,0.18,0,0.36,0,0.54S80.17,74.771,80.17,74.95z"/>
		<path fill="#311531" d="M80.17,70.271c0,0.18,0,0.359,0,0.54c-1.44,0-2.881,0-4.32,0c-1.5,0-3,0-4.5,0c-0.18,0-0.36,0-0.54,0
			c0-0.24,0-0.48,0-0.721c0-0.18,0-0.359,0-0.54c0-0.359,0-0.72,0-1.08c0-0.359,0-0.72,0-1.08c0-0.18,0-0.359,0-0.54
			c0-0.239,0-0.479,0-0.72c-0.36,0-0.72,0-1.08,0c-0.18,0-0.36,0-0.54,0c-0.24,0-0.48,0-0.72,0c-0.181,0-0.36,0-0.54,0
			c-0.181,0-0.36,0-0.54,0c-0.42,0-0.84,0-1.26,0c0-0.12,0-0.24,0-0.359c0-2.28,0-4.561,0-6.84c0-2.34,0-4.68,0-7.02
			c0.06,0,0.119,0,0.18,0c0.06,0,0.12,0,0.18,0c0.12,0,0.24,0,0.36,0c0.18,0,0.359,0,0.54,0c0.359,0,0.72,0,1.08,0
			c0.359,0,0.72,0,1.08,0c0.18,0,0.359,0,0.54,0c0.239,0,0.479,0,0.72,0c0-0.18,0-0.36,0-0.54c0-1.2,0-2.4,0-3.6
			c0-0.18,0-0.36,0-0.54c0.24,0,0.479,0,0.72,0c0.18,0,0.36,0,0.54,0c0.36,0,0.72,0,1.08,0s0.72,0,1.08,0c0.42,0,0.84,0,1.26,0
			c0.36,0,0.72,0,1.08,0c0.42,0,0.84,0,1.26,0c0.181,0,0.36,0,0.54,0c0.181,0,0.36,0,0.54,0c0.42,0,0.84,0,1.261,0
			c0,0.42,0,0.84,0,1.26c0,0.18,0,0.36,0,0.54c0,0.18,0,0.36,0,0.54c0,0.24,0,0.48,0,0.72c0,0.18,0,0.36,0,0.54s0,0.36,0,0.54
			s0,0.36,0,0.54c-0.24,0-0.48,0-0.721,0c-0.18,0-0.359,0-0.54,0c-0.18,0-0.359,0-0.54,0c-0.18,0-0.359,0-0.54,0
			c-0.359,0-0.72,0-1.08,0c-0.18,0-0.359,0-0.54,0c-0.119,0-0.239,0-0.359,0c-0.061,0-0.12,0-0.18,0c-0.061,0-0.12,0-0.181,0
			c0,0.18,0,0.36,0,0.54c0,0.36,0,0.72,0,1.08c0,0.3,0,0.6,0,0.9c0,0.36,0,0.72,0,1.08c0,0.18,0,0.36,0,0.54c0,0.02,0,0.22,0,0.54
			c0,2,0,8.84,0,9h4.681v0.54c0,0.42,0,0.84,0,1.26c0,0.181,0,0.36,0,0.54c0,0.181,0,0.36,0,0.54c0,0.24,0,0.48,0,0.721
			c0,0.18,0,0.359,0,0.54C80.17,69.91,80.17,70.09,80.17,70.271z"/>
		<path fill="#FDFEFF" d="M80.17,56.59c0,2.68,0,8.67,0,9H75.49c0-0.16,0-7,0-9c0.181,0,0.36,0,0.54,0s0.36,0,0.54,0
			c0.12,0,0.24,0,0.36,0c0.18,0,0.359,0,0.54,0c0.12,0,0.239,0,0.359,0c0.601,0,1.2,0,1.801,0C79.81,56.59,79.99,56.59,80.17,56.59z
			"/>
		<path fill="#FDFEFF" d="M80.17,55.33c0,0.09,0,0.56,0,1.26c-0.181,0-0.36,0-0.54,0c-0.601,0-1.2,0-1.801,0
			c-0.12,0-0.239,0-0.359,0c-0.181,0-0.36,0-0.54,0c-0.12,0-0.24,0-0.36,0c-0.18,0-0.36,0-0.54,0s-0.359,0-0.54,0
			c0-0.32,0-0.52,0-0.54c0-0.18,0-0.36,0-0.54c0-0.36,0-0.72,0-1.08c0-0.3,0-0.6,0-0.9c0-0.36,0-0.72,0-1.08c0-0.18,0-0.36,0-0.54
			c0.061,0,0.12,0,0.181,0c0.06,0,0.119,0,0.18,0c0.12,0,0.24,0,0.359,0c0.181,0,0.36,0,0.54,0c0.36,0,0.721,0,1.08,0
			c0.181,0,0.36,0,0.54,0c0.181,0,0.36,0,0.54,0c0.181,0,0.36,0,0.54,0c0.24,0,0.48,0,0.721,0c0,0.18,0,0.36,0,0.54
			c0,0.18,0,0.36,0,0.54c0,0.18,0,0.36,0,0.54c0,0.24,0,0.48,0,0.72c0,0.18,0,0.36,0,0.54S80.17,55.15,80.17,55.33z"/>
		<path fill="#BA6A5B" d="M80.17,46.69c0,0.18,0,0.36,0,0.54c-0.421,0-0.841,0-1.261,0c-0.18,0-0.359,0-0.54,0
			c-0.18,0-0.359,0-0.54,0c-0.42,0-0.84,0-1.26,0c-0.36,0-0.72,0-1.08,0c0-0.36,0-0.72,0-1.08c0-0.18,0-0.36,0-0.54
			c0-0.18,0-0.36,0-0.54c0-0.36,0-0.72,0-1.08c0-0.18,0-0.36,0-0.54c0-0.12,0-0.24,0-0.36c0-0.18,0-0.36,0-0.54
			c-1.38,0-2.76,0-4.14,0c-0.18,0-0.36,0-0.54,0c0-0.78,0-1.56,0-2.34c0-0.78,0-1.56,0-2.34c0-0.78,0-1.56,0-2.34
			c0-0.78,0-1.56,0-2.34c-0.42,0-0.84,0-1.26,0c-0.181,0-0.36,0-0.54,0c-0.181,0-0.36,0-0.54,0c-0.24,0-0.48,0-0.721,0
			c-0.18,0-0.359,0-0.54,0c-0.359,0-0.72,0-1.079,0c0-0.42,0-0.84,0-1.26c0-0.18,0-0.36,0-0.54s0-0.36,0-0.54s0-0.36,0-0.54
			s0-0.36,0-0.54s0-0.36,0-0.54c0-0.24,0-0.48,0-0.72c-0.181,0-0.36,0-0.54,0c-1.44,0-2.881,0-4.32,0c-1.38,0-2.76,0-4.14,0
			c-0.181,0-0.36,0-0.54,0c0-0.78,0-1.56,0-2.34c0-0.78,0-1.56,0-2.34c0-1.14,0-2.28,0-3.42c0-0.6,0-1.2,0-1.8c0-0.12,0-0.24,0-0.36
			c0-0.18,0-0.36,0-0.54c0-0.12,0-0.24,0-0.36c0-0.18,0-0.36,0-0.54c0-1.14,0-2.28,0-3.42c0-0.6,0-1.2,0-1.8c0-0.12,0-0.24,0-0.36
			c0-0.18,0-0.36,0-0.54c0-0.12,0-0.24,0-0.36c0-0.24,0-0.48,0-0.72c0.54,0,1.08,0,1.619,0c0.12,0,0.24,0,0.36,0
			c0.18,0,0.36,0,0.54,0c0.12,0,0.24,0,0.36,0c0.18,0,0.359,0,0.54,0c1.199,0,2.399,0,3.6,0c0.54,0,1.08,0,1.62,0
			c0.12,0,0.24,0,0.36,0c0.18,0,0.359,0,0.54,0c0.119,0,0.239,0,0.359,0c0.181,0,0.36,0,0.54,0c0.12,0,0.24,0,0.36,0
			c0.18,0,0.359,0,0.54,0c0.12,0,0.24,0,0.359,0c0.181,0,0.36,0,0.54,0c0.12,0,0.24,0,0.36,0c0.18,0,0.36,0,0.54,0
			c0.12,0,0.24,0,0.36,0c0.239,0,0.479,0,0.72,0c0,0.18,0,0.36,0,0.54c0,0.12,0,0.24,0,0.36c0,0.18,0,0.36,0,0.54
			c0,0.12,0,0.24,0,0.36c0,0.6,0,1.2,0,1.8s0,1.2,0,1.8c0,0.6,0,1.2,0,1.8c0,0.18,0,0.36,0,0.54c0,0.12,0,0.24,0,0.36
			c0,0.18,0,0.36,0,0.54c0,0.12,0,0.24,0,0.36c0,0.6,0,1.2,0,1.8c0,1.14,0,2.28,0,3.42c0.78,0,1.56,0,2.34,0s1.56,0,2.34,0
			c0,0.18,0,0.36,0,0.54c0,0.12,0,0.24,0,0.36c0,0.3,0,0.6,0,0.9c0,0.6,0,1.2,0,1.8c0,1.14,0,2.28,0,3.42c0,0.6,0,1.2,0,1.8
			c0,0.6,0,1.2,0,1.8c0,1.14,0,2.28,0,3.42c0.42,0,0.84,0,1.26,0c0.36,0,0.721,0,1.08,0c0.42,0,0.841,0,1.261,0
			c0.359,0,0.72,0,1.08,0c0,0.42,0,0.84,0,1.26c0,0.18,0,0.36,0,0.54c0,0.18,0,0.36,0,0.54c0,0.24,0,0.48,0,0.72
			c0,0.18,0,0.36,0,0.54c0,0.18,0,0.36,0,0.54c0,0.18,0,0.36,0,0.54c0,0.24,0,0.48,0,0.72c0,0.18,0,0.36,0,0.54s0,0.36,0,0.54
			s0,0.36,0,0.54c0,0.24,0,0.48,0,0.72c0,0.18,0,0.36,0,0.54C80.17,46.33,80.17,46.51,80.17,46.69z"/>
		<path fill="#311531" d="M80.17,37.33c0,0.18,0,0.36,0,0.54c-0.36,0-0.721,0-1.08,0c-0.42,0-0.841,0-1.261,0
			c-0.359,0-0.72,0-1.08,0c-0.42,0-0.84,0-1.26,0c0-1.14,0-2.28,0-3.42c0-0.6,0-1.2,0-1.8c0-0.6,0-1.2,0-1.8c0-1.14,0-2.28,0-3.42
			c0-0.6,0-1.2,0-1.8c0-0.3,0-0.6,0-0.9c0-0.12,0-0.24,0-0.36c0-0.18,0-0.36,0-0.54c0.36,0,0.72,0,1.08,0c0.42,0,0.84,0,1.26,0
			c0.181,0,0.36,0,0.54,0c0.181,0,0.36,0,0.54,0c0.181,0,0.36,0,0.54,0c0.24,0,0.48,0,0.721,0c0,1.14,0,2.28,0,3.42
			c0,0.12,0,0.24,0,0.36c0,0.18,0,0.36,0,0.54c0,0.12,0,0.24,0,0.36c0,0.18,0,0.36,0,0.54c0,0.12,0,0.24,0,0.36
			c0,0.18,0,0.36,0,0.54c0,0.12,0,0.24,0,0.36c0,0.18,0,0.36,0,0.54c0,1.14,0,2.28,0,3.42c0,0.12,0,0.24,0,0.36
			c0,0.18,0,0.36,0,0.54c0,0.12,0,0.24,0,0.36c0,0.18,0,0.36,0,0.54c0,0.12,0,0.24,0,0.36c0,0.18,0,0.36,0,0.54
			C80.17,37.09,80.17,37.21,80.17,37.33z"/>
		<path fill="#311531" d="M75.49,88.271c0,0.42,0,0.84,0,1.26c-0.18,0-0.359,0-0.54,0c-0.18,0-0.359,0-0.54,0
			c-0.18,0-0.359,0-0.54,0c-0.239,0-0.479,0-0.72,0c-0.18,0-0.36,0-0.54,0s-0.36,0-0.54,0c-0.42,0-0.84,0-1.26,0
			c0-0.181,0-0.36,0-0.54c0-0.601,0-1.2,0-1.8c0-0.12,0-0.24,0-0.36c0-0.18,0-0.36,0-0.54c0-0.12,0-0.24,0-0.36
			c0-0.18,0-0.359,0-0.54c0-0.18,0-0.359,0-0.54c0.06,0,0.12,0,0.18,0c0.061,0,0.12,0,0.181,0c0.119,0,0.239,0,0.359,0
			c0.18,0,0.36,0,0.54,0s0.36,0,0.54,0s0.36,0,0.54,0s0.36,0,0.54,0s0.36,0,0.54,0c0.42,0,0.84,0,1.26,0c0,0.181,0,0.36,0,0.54
			c0,0.181,0,0.36,0,0.54c0,0.42,0,0.841,0,1.261c0,0.18,0,0.359,0,0.54C75.49,87.91,75.49,88.09,75.49,88.271z"/>
		<path fill="#311531" d="M75.49,20.23c0,1.2,0,2.4,0,3.6c-0.78,0-1.56,0-2.34,0s-1.56,0-2.34,0c0-1.14,0-2.28,0-3.42
			c0-0.6,0-1.2,0-1.8c0-0.12,0-0.24,0-0.36c0-0.18,0-0.36,0-0.54c0-0.12,0-0.24,0-0.36c0-0.18,0-0.36,0-0.54c0-0.6,0-1.2,0-1.8
			c0-0.6,0-1.2,0-1.8s0-1.2,0-1.8c0-0.12,0-0.24,0-0.36c0-0.18,0-0.36,0-0.54c0-0.12,0-0.24,0-0.36c0-0.18,0-0.36,0-0.54
			c0.78,0,1.56,0,2.34,0s1.56,0,2.34,0c0,0.24,0,0.48,0,0.72c0,0.12,0,0.24,0,0.36c0,0.18,0,0.36,0,0.54c0,0.12,0,0.24,0,0.36
			c0,0.18,0,0.36,0,0.54c0,0.3,0,0.6,0,0.9c0,1.2,0,2.4,0,3.6c0,0.12,0,0.24,0,0.36c0,0.18,0,0.36,0,0.54c0,0.12,0,0.24,0,0.36
			c0,0.18,0,0.36,0,0.54c0,0.12,0,0.24,0,0.36c0,0.18,0,0.36,0,0.54c0,0.12,0,0.24,0,0.36C75.49,19.87,75.49,20.05,75.49,20.23z"/>
		<path fill="#311531" d="M70.81,131.83c0,1.62,0,3.24,0,4.86c-0.78,0-1.561,0-2.34,0c-0.78,0-1.561,0-2.34,0c0-1.5,0-3,0-4.5
			s0-3,0-4.5c0-0.181,0-0.36,0-0.54c0.239,0,0.479,0,0.72,0c0.18,0,0.359,0,0.54,0c0.18,0,0.359,0,0.54,0c0.18,0,0.359,0,0.54,0
			c0.359,0,0.72,0,1.08,0c0.18,0,0.359,0,0.54,0c0.239,0,0.479,0,0.72,0C70.81,128.71,70.81,130.271,70.81,131.83z"/>
		<path fill="#BA6A5B" d="M70.81,120.13c0,2.34,0,4.681,0,7.021c-0.24,0-0.48,0-0.72,0c-0.181,0-0.36,0-0.54,0
			c-0.36,0-0.721,0-1.08,0c-0.181,0-0.36,0-0.54,0c-0.181,0-0.36,0-0.54,0c-0.181,0-0.36,0-0.54,0c-0.24,0-0.48,0-0.72,0
			c0,0.18,0,0.359,0,0.54c0,1.5,0,3,0,4.5s0,3,0,4.5c-0.181,0-0.36,0-0.54,0c-0.12,0-0.24,0-0.36,0c-0.18,0-0.36,0-0.54,0
			c-0.12,0-0.24,0-0.36,0c-0.6,0-1.199,0-1.8,0c-1.2,0-2.399,0-3.6,0c-2.34,0-4.681,0-7.021,0c0-2.4,0-4.801,0-7.2
			c0-2.34,0-4.68,0-7.021c1.62,0,3.24,0,4.86,0c0.78,0,1.56,0,2.34,0s1.561,0,2.34,0c0-1.56,0-3.12,0-4.68c1.561,0,3.12,0,4.681,0
			c0-1.56,0-3.12,0-4.68c0.359,0,0.72,0,1.079,0c0.421,0,0.841,0,1.261,0c0.359,0,0.72,0,1.08,0c0.18,0,0.359,0,0.54,0
			c0.239,0,0.479,0,0.72,0C70.81,115.45,70.81,117.79,70.81,120.13z"/>
		<path fill="#FDFEFF" d="M70.81,108.43c0,1.561,0,3.12,0,4.681c-0.24,0-0.48,0-0.72,0c-0.181,0-0.36,0-0.54,0
			c-0.36,0-0.721,0-1.08,0c-0.42,0-0.84,0-1.261,0c-0.359,0-0.72,0-1.079,0c0,1.56,0,3.12,0,4.68c-1.561,0-3.12,0-4.681,0
			c-0.18,0-0.359,0-0.54,0c-0.12,0-0.239,0-0.359,0c-0.181,0-0.36,0-0.54,0c-0.12,0-0.24,0-0.36,0c-0.6,0-1.2,0-1.8,0
			c-1.2,0-2.4,0-3.601,0c-2.34,0-4.68,0-7.02,0c0-1.56,0-3.12,0-4.68c-0.18,0-0.36,0-0.54,0s-0.36,0-0.54,0c-0.12,0-0.24,0-0.36,0
			c-0.18,0-0.36,0-0.54,0c-0.12,0-0.24,0-0.36,0c-0.18,0-0.36,0-0.54,0c-0.12,0-0.24,0-0.36,0c-0.18,0-0.36,0-0.54,0
			c-0.12,0-0.24,0-0.36,0c-0.18,0-0.36,0-0.54,0c0-0.181,0-0.36,0-0.54c0-1.141,0-2.28,0-3.42c0-1.141,0-2.28,0-3.42
			c0-1.141,0-2.28,0-3.42c0-1.141,0-2.28,0-3.421c0.18,0,0.36,0,0.54,0c0.18,0,0.36,0,0.54,0c0.42,0,0.84,0,1.26,0
			c0.18,0,0.36,0,0.54,0c0.18,0,0.36,0,0.54,0c0.42,0,0.84,0,1.26,0c0-0.18,0-0.359,0-0.54c0-1.38,0-2.76,0-4.14s0-2.76,0-4.14
			c0-0.181,0-0.36,0-0.54c0.06,0,0.12,0,0.18,0c0.06,0,0.12,0,0.18,0c0.12,0,0.24,0,0.36,0c0.18,0,0.36,0,0.54,0
			c0.181,0,0.36,0,0.54,0s0.36,0,0.54,0s0.36,0,0.54,0s0.36,0,0.54,0c0.42,0,0.84,0,1.26,0c0-0.181,0-0.36,0-0.54
			c0-0.12,0-0.24,0-0.36c0-0.18,0-0.359,0-0.54c0-0.359,0-0.72,0-1.08c0-0.18,0-0.359,0-0.54c0-0.18,0-0.359,0-0.54
			c0-0.359,0-0.72,0-1.08c0.181,0,0.36,0,0.54,0c0.181,0,0.36,0,0.54,0c0.181,0,0.36,0,0.54,0c0.24,0,0.48,0,0.72,0
			c0.181,0,0.36,0,0.54,0c0.181,0,0.36,0,0.54,0c0.181,0,0.36,0,0.54,0c0.24,0,0.48,0,0.721,0c1.619,0,3.239,0,4.859,0
			c0.181,0,0.36,0,0.54,0c0.181,0,0.36,0,0.54,0s0.36,0,0.54,0c0.24,0,0.48,0,0.72,0c0.181,0,0.36,0,0.54,0c0.181,0,0.36,0,0.54,0
			c0.42,0,0.84,0,1.261,0c0,0.181,0,0.36,0,0.54c0,1.44,0,2.881,0,4.32c0,0.72,0,1.44,0,2.16c0,0.18,0,0.36,0,0.54s0,0.36,0,0.54
			c0,0.42,0,0.84,0,1.26c0.779,0,1.56,0,2.34,0c0.779,0,1.56,0,2.34,0c0,2.34,0,4.68,0,7.021c0,1.199,0,2.399,0,3.6
			S70.81,107.23,70.81,108.43z"/>
		<path fill="#D97761" d="M70.81,35.53c0,0.78,0,1.56,0,2.34c-0.18,0-0.36,0-0.54,0c-0.12,0-0.24,0-0.36,0c-0.18,0-0.359,0-0.54,0
			c-0.12,0-0.239,0-0.359,0c-0.601,0-1.2,0-1.801,0c-1.199,0-2.399,0-3.6,0s-2.4,0-3.6,0c-0.181,0-0.36,0-0.54,0
			c-0.12,0-0.24,0-0.36,0c-0.18,0-0.36,0-0.54,0c-0.12,0-0.24,0-0.36,0c-0.18,0-0.359,0-0.539,0c-0.12,0-0.24,0-0.36,0
			c-0.24,0-0.48,0-0.72,0c0-0.36,0-0.72,0-1.08c0-0.42,0-0.84,0-1.26c0-0.36,0-0.72,0-1.08c0-0.18,0-0.36,0-0.54
			c0-0.24,0-0.48,0-0.72c-0.181,0-0.36,0-0.54,0c-1.2,0-2.4,0-3.601,0c-0.18,0-0.359,0-0.54,0c0-0.06,0-0.12,0-0.18s0-0.12,0-0.18
			c0-0.12,0-0.24,0-0.36c0-0.18,0-0.36,0-0.54c0-0.18,0-0.36,0-0.54s0-0.36,0-0.54c0-0.36,0-0.72,0-1.08c0-0.18,0-0.36,0-0.54
			c0-0.24,0-0.48,0-0.72c-2.22,0-4.44,0-6.66,0c-2.28,0-4.56,0-6.84,0c-0.18,0-0.36,0-0.54,0c0-0.18,0-0.36,0-0.54
			c0-0.6,0-1.2,0-1.8c0-0.3,0-0.6,0-0.9c0-0.12,0-0.24,0-0.36c0-0.18,0-0.36,0-0.54s0-0.36,0-0.54c0.06,0,0.12,0,0.18,0
			c0.72,0,1.44,0,2.16,0c0.78,0,1.56,0,2.34,0c2.34,0,4.68,0,7.02,0s4.68,0,7.021,0c0,0.78,0,1.56,0,2.34c0,0.78,0,1.56,0,2.34
			c0.18,0,0.359,0,0.54,0c1.38,0,2.76,0,4.14,0c1.439,0,2.88,0,4.32,0c0.18,0,0.359,0,0.54,0c0,0.24,0,0.48,0,0.72
			c0,0.18,0,0.36,0,0.54s0,0.36,0,0.54s0,0.36,0,0.54s0,0.36,0,0.54s0,0.36,0,0.54c0,0.42,0,0.84,0,1.26c0.359,0,0.72,0,1.079,0
			c0.181,0,0.36,0,0.54,0c0.24,0,0.48,0,0.721,0c0.18,0,0.359,0,0.54,0c0.18,0,0.359,0,0.54,0c0.42,0,0.84,0,1.26,0
			C70.81,33.97,70.81,34.75,70.81,35.53z"/>
		<path fill="#311531" d="M70.81,8.89c0,0.24,0,0.48,0,0.72c-0.24,0-0.48,0-0.72,0c-0.12,0-0.24,0-0.36,0c-0.18,0-0.36,0-0.54,0
			c-0.12,0-0.24,0-0.36,0c-0.18,0-0.359,0-0.54,0c-0.119,0-0.239,0-0.359,0c-0.181,0-0.36,0-0.54,0c-0.12,0-0.24,0-0.36,0
			c-0.18,0-0.359,0-0.54,0c-0.12,0-0.24,0-0.359,0c-0.181,0-0.36,0-0.54,0c-0.12,0-0.24,0-0.36,0c-0.54,0-1.08,0-1.62,0
			c-1.2,0-2.4,0-3.6,0c-0.181,0-0.36,0-0.54,0c-0.12,0-0.24,0-0.36,0c-0.18,0-0.36,0-0.54,0c-0.12,0-0.24,0-0.36,0
			c-0.539,0-1.079,0-1.619,0c0-0.36,0-0.72,0-1.08c0-0.42,0-0.84,0-1.26c0-0.78,0-1.56,0-2.34c0.119,0,0.239,0,0.359,0
			c1.141,0,2.28,0,3.42,0c1.141,0,2.28,0,3.42,0c0.54,0,1.08,0,1.62,0c0.12,0,0.24,0,0.36,0c0.18,0,0.36,0,0.54,0
			c0.12,0,0.24,0,0.36,0c0.18,0,0.359,0,0.539,0c1.2,0,2.4,0,3.601,0c0,0.06,0,0.12,0,0.18c0,0.36,0,0.72,0,1.08
			c0,0.36,0,0.72,0,1.08c0,0.18,0,0.36,0,0.54s0,0.36,0,0.54S70.81,8.71,70.81,8.89z"/>
		<path fill="#D97761" d="M61.45,117.79c0,1.56,0,3.12,0,4.68c-0.779,0-1.56,0-2.34,0s-1.56,0-2.34,0c-1.62,0-3.24,0-4.86,0
			c-1.56,0-3.12,0-4.68,0c0-1.56,0-3.12,0-4.68c2.34,0,4.68,0,7.02,0c1.2,0,2.4,0,3.601,0c0.6,0,1.2,0,1.8,0c0.12,0,0.24,0,0.36,0
			c0.18,0,0.359,0,0.54,0c0.12,0,0.239,0,0.359,0C61.09,117.79,61.27,117.79,61.45,117.79z"/>
		<path fill="#D97761" d="M61.45,83.771c0,0.359,0,0.72,0,1.079c-1.62,0-3.24,0-4.859,0c-0.24,0-0.48,0-0.721,0
			c-0.18,0-0.359,0-0.54,0c-0.18,0-0.359,0-0.54,0c-0.18,0-0.359,0-0.54,0c-0.239,0-0.479,0-0.72,0c-0.18,0-0.359,0-0.54,0
			c-0.18,0-0.359,0-0.54,0c-0.18,0-0.359,0-0.54,0c-0.18,0-0.359,0-0.54,0c-0.18,0-0.359,0-0.54,0c-0.18,0-0.359,0-0.54,0
			c-0.239,0-0.479,0-0.72,0c-0.18,0-0.36,0-0.54,0s-0.359,0-0.54,0c-0.42,0-0.84,0-1.26,0c0-0.359,0-0.72,0-1.079
			c0-0.421,0-0.841,0-1.261c0-0.779,0-1.56,0-2.34c0.54,0,1.08,0,1.62,0c0.6,0,1.2,0,1.8,0c0.3,0,0.6,0,0.9,0c0.3,0,0.6,0,0.899,0
			s0.601,0,0.9,0s0.6,0,0.899,0c0.301,0,0.601,0,0.9,0c0.12,0,0.24,0,0.36,0c0.18,0,0.359,0,0.54,0c0.12,0,0.239,0,0.359,0
			c0.181,0,0.36,0,0.54,0c0.12,0,0.24,0,0.36,0c0.18,0,0.36,0,0.54,0c0.12,0,0.24,0,0.359,0c0.181,0,0.36,0,0.54,0
			c0.12,0,0.24,0,0.36,0c0.18,0,0.36,0,0.54,0c0.12,0,0.24,0,0.36,0c0.18,0,0.359,0,0.54,0c0.12,0,0.239,0,0.359,0
			c0.181,0,0.36,0,0.54,0c0,0.78,0,1.561,0,2.34C61.45,82.93,61.45,83.35,61.45,83.771z"/>
		<path fill="#311531" d="M61.45,59.11c0,2.34,0,4.68,0,7.02c-1.62,0-3.24,0-4.859,0v-0.54c0-0.97,0-5.4,0-9c0-2.2,0-4.09,0-4.68
			c0.779,0,1.56,0,2.34,0c0.84,0,1.68,0,2.52,0c0,0.12,0,0.24,0,0.36C61.45,54.55,61.45,56.83,61.45,59.11z"/>
		<path fill="#311531" d="M56.59,68.47c0,0.78,0,1.561,0,2.341c-2.341,0-4.681,0-7.021,0c-1.14,0-2.28,0-3.42,0
			c-0.12,0-0.24,0-0.36,0c-0.18,0-0.36,0-0.54,0c-0.12,0-0.24,0-0.36,0c-0.18,0-0.36,0-0.54,0c-0.12,0-0.24,0-0.36,0
			c-0.18,0-0.36,0-0.54,0c-0.12,0-0.24,0-0.36,0c-0.18,0-0.36,0-0.54,0c0-0.061,0-0.12,0-0.181c0-0.06,0-0.12,0-0.18
			c0-0.12,0-0.24,0-0.36c0-0.18,0-0.359,0-0.54c0-0.18,0-0.359,0-0.54c0-0.18,0-0.359,0-0.54c0-0.18,0-0.359,0-0.54
			c0-0.18,0-0.359,0-0.54c0-0.42,0-0.84,0-1.26c-0.36,0-0.72,0-1.08,0c-0.18,0-0.36,0-0.54,0c-0.24,0-0.48,0-0.72,0
			c-0.18,0-0.36,0-0.54,0s-0.36,0-0.54,0c-0.42,0-0.84,0-1.26,0c0-1.14,0-2.28,0-3.42c0-1.2,0-2.4,0-3.6c0-1.2,0-2.4,0-3.6
			c0-1.2,0-2.4,0-3.6c0.06,0,0.12,0,0.18,0s0.12,0,0.18,0c0.12,0,0.24,0,0.36,0c0.18,0,0.36,0,0.54,0c0.36,0,0.72,0,1.08,0
			c0.18,0,0.36,0,0.54,0s0.36,0,0.54,0c0.18,0,0.36,0,0.54,0c0.24,0,0.48,0,0.72,0c0-0.18,0-0.36,0-0.54s0-0.36,0-0.54
			s0-0.36,0-0.54c0-0.24,0-0.48,0-0.72c0-0.18,0-0.36,0-0.54c0-0.18,0-0.36,0-0.54c0-0.42,0-0.84,0-1.26c2.34,0,4.68,0,7.02,0
			s4.68,0,7.021,0c0,1.56,0,3.12,0,4.68c-0.061,0-0.12,0-0.181,0c-0.239,0-0.479,0-0.72,0c-0.18,0-0.36,0-0.54,0
			c-0.36,0-0.72,0-1.08,0c-0.72,0-1.439,0-2.16,0c-0.42,0-0.84,0-1.26,0c-0.36,0-0.72,0-1.08,0s-0.72,0-1.08,0
			c-0.18,0-0.36,0-0.54,0c-0.12,0-0.24,0-0.36,0c-0.06,0-0.12,0-0.18,0c-0.06,0-0.12,0-0.18,0c0,0.18,0,0.36,0,0.54
			c0,1.2,0,2.4,0,3.6c0,0.02,0,0.22,0,0.54c0,2,0,8.84,0,9h9.36v0.54C56.59,66.91,56.59,67.69,56.59,68.47z"/>
		<path fill="#FDFEFF" d="M56.59,56.59c0,3.6,0,8.03,0,9h-9.36c0-0.16,0-7,0-9c1.56,0,3.12,0,4.68,0
			C53.47,56.59,55.03,56.59,56.59,56.59z"/>
		<path fill="#FDFEFF" d="M56.59,51.91c0,0.59,0,2.48,0,4.68c-1.561,0-3.12,0-4.681,0c-1.56,0-3.12,0-4.68,0c0-0.32,0-0.52,0-0.54
			c0-1.2,0-2.4,0-3.6c0-0.18,0-0.36,0-0.54c0.06,0,0.12,0,0.18,0c0.06,0,0.12,0,0.18,0c0.12,0,0.24,0,0.36,0c0.18,0,0.36,0,0.54,0
			c0.36,0,0.72,0,1.08,0s0.72,0,1.08,0c0.42,0,0.84,0,1.26,0c0.721,0,1.44,0,2.16,0c0.36,0,0.72,0,1.08,0c0.18,0,0.36,0,0.54,0
			c0.24,0,0.48,0,0.72,0C56.47,51.91,56.53,51.91,56.59,51.91z"/>
		<path fill="#E0B49C" d="M56.59,36.79c0,0.36,0,0.72,0,1.08c-1.2,0-2.4,0-3.601,0c-0.3,0-0.6,0-0.899,0c-0.301,0-0.601,0-0.9,0
			s-0.6,0-0.9,0c-0.239,0-0.479,0-0.72,0c-1.2,0-2.4,0-3.6,0c-1.14,0-2.28,0-3.42,0c0,0.42,0,0.84,0,1.26c0,0.18,0,0.36,0,0.54
			c0,0.18,0,0.36,0,0.54c0,0.24,0,0.48,0,0.72c0,0.18,0,0.36,0,0.54c0,0.18,0,0.36,0,0.54c0,0.18,0,0.36,0,0.54
			c-0.72,0-1.44,0-2.16,0c-0.36,0-0.72,0-1.08,0c-0.18,0-0.36,0-0.54,0c-0.12,0-0.24,0-0.36,0c-0.18,0-0.36,0-0.54,0
			c0,0.42,0,0.84,0,1.26c0,0.36,0,0.72,0,1.08c0,0.42,0,0.84,0,1.26c0,0.36,0,0.72,0,1.08c-0.78,0-1.56,0-2.34,0
			c-0.36,0-0.72,0-1.08,0c-0.18,0-0.36,0-0.54,0c-0.24,0-0.48,0-0.72,0c0,0.18,0,0.36,0,0.54c0,3.06,0,6.12,0,9.18s0,6.12,0,9.18
			c0.42,0,0.84,0,1.26,0c0.18,0,0.36,0,0.54,0c0.18,0,0.36,0,0.54,0c0.24,0,0.48,0,0.72,0c0.18,0,0.36,0,0.54,0
			c0.36,0,0.72,0,1.08,0c0,0.42,0,0.84,0,1.26c0,0.36,0,0.721,0,1.08c0,0.42,0,0.841,0,1.261c0,0.359,0,0.72,0,1.08
			c0,0.42,0,0.84,0,1.26c0,0.359,0,0.72,0,1.08c0,0.42,0,0.84,0,1.26c0,0.36,0,0.72,0,1.08c0.42,0,0.84,0,1.26,0
			c0.36,0,0.72,0,1.08,0c0.42,0,0.84,0,1.26,0c0.36,0,0.72,0,1.08,0c0,0.42,0,0.84,0,1.26c0,0.18,0,0.36,0,0.54s0,0.36,0,0.54
			c0,0.24,0,0.48,0,0.72c0,0.181,0,0.36,0,0.54c0,0.181,0,0.36,0,0.54c0,0.181,0,0.36,0,0.54c0.42,0,0.84,0,1.26,0
			c0.18,0,0.36,0,0.54,0c0.18,0,0.36,0,0.54,0c0.24,0,0.48,0,0.72,0c0.18,0,0.36,0,0.54,0s0.36,0,0.54,0s0.36,0,0.54,0
			c0,0.78,0,1.561,0,2.34c0,0.42,0,0.84,0,1.261c0,0.359,0,0.72,0,1.079c0.42,0,0.84,0,1.26,0c0.181,0,0.36,0,0.54,0s0.36,0,0.54,0
			c0.24,0,0.48,0,0.72,0c0.181,0,0.36,0,0.54,0c0.181,0,0.36,0,0.54,0c0.181,0,0.36,0,0.54,0c0,0.36,0,0.721,0,1.08
			c0,0.181,0,0.36,0,0.54c0,0.181,0,0.36,0,0.54c0,0.36,0,0.721,0,1.08c0,0.181,0,0.36,0,0.54c0,0.12,0,0.24,0,0.36
			c0,0.18,0,0.359,0,0.54c-0.42,0-0.84,0-1.26,0c-0.18,0-0.36,0-0.54,0s-0.36,0-0.54,0s-0.36,0-0.54,0s-0.359,0-0.54,0
			c-0.18,0-0.36,0-0.54,0c-0.12,0-0.24,0-0.36,0c-0.06,0-0.12,0-0.18,0c-0.06,0-0.12,0-0.18,0c0,0.18,0,0.359,0,0.54
			c0,1.38,0,2.76,0,4.14s0,2.76,0,4.14c0,0.181,0,0.36,0,0.54c-0.42,0-0.84,0-1.26,0c-0.18,0-0.36,0-0.54,0c-0.18,0-0.36,0-0.54,0
			c-0.42,0-0.84,0-1.26,0c-0.18,0-0.36,0-0.54,0c-0.18,0-0.36,0-0.54,0c0-0.42,0-0.84,0-1.26c0-0.18,0-0.359,0-0.54
			c0-0.18,0-0.359,0-0.54c0-0.239,0-0.479,0-0.72c0-0.18,0-0.36,0-0.54s0-0.36,0-0.54s0-0.36,0-0.54c0-0.42,0-0.84,0-1.26
			c0-0.18,0-0.36,0-0.54s0-0.36,0-0.54s0-0.36,0-0.54s0-0.36,0-0.54s0-0.36,0-0.54c0-0.12,0-0.24,0-0.36c0-0.06,0-0.119,0-0.18
			c0-0.06,0-0.12,0-0.18c-0.18,0-0.36,0-0.54,0c-0.18,0-0.36,0-0.54,0c-0.12,0-0.24,0-0.36,0c-0.18,0-0.36,0-0.54,0
			c-0.12,0-0.24,0-0.36,0c-0.18,0-0.36,0-0.54,0c-0.12,0-0.24,0-0.36,0c-0.18,0-0.36,0-0.54,0c-0.12,0-0.24,0-0.36,0
			c-0.18,0-0.36,0-0.54,0c0,0.42,0,0.84,0,1.26c0,0.18,0,0.36,0,0.54s0,0.36,0,0.54c0,0.42,0,0.84,0,1.26c0,0.36,0,0.72,0,1.08
			c-0.78,0-1.56,0-2.34,0c-0.78,0-1.56,0-2.34,0c0,1.561,0,3.12,0,4.68c-0.78,0-1.56,0-2.34,0c-0.78,0-1.56,0-2.34,0
			c0,1.62,0,3.24,0,4.86c-1.5,0-3,0-4.5,0c-0.06,0-0.12,0-0.18,0c0,0.18,0,0.36,0,0.54c0,1.38,0,2.76,0,4.14c-0.84,0-1.68,0-2.52,0
			c-0.78,0-1.56,0-2.34,0c-1.2,0-2.4,0-3.6,0c-0.6,0-1.2,0-1.8,0c-0.54,0-1.08,0-1.62,0c-0.18,0-0.36,0-0.54,0
			c-0.12,0-0.24,0-0.36,0c-0.18,0-0.36,0-0.54,0c-0.12,0-0.24,0-0.36,0c-0.18,0-0.36,0-0.54,0c-0.12,0-0.24,0-0.36,0
			c-0.18,0-0.36,0-0.54,0c-0.12,0-0.24,0-0.36,0c-0.18,0-0.36,0-0.54,0c-0.12,0-0.24,0-0.36,0c-0.18,0-0.36,0-0.54,0
			c-0.12,0-0.24,0-0.36,0c-0.54,0-1.08,0-1.62,0c0-1.199,0-2.399,0-3.6s0-2.4,0-3.6c0-1.2,0-2.4,0-3.601c0-1.14,0-2.28,0-3.42
			c0.78,0,1.56,0,2.34,0c0.42,0,0.84,0,1.26,0c0.36,0,0.72,0,1.08,0c0.78,0,1.56,0,2.34,0c0.78,0,1.56,0,2.34,0
			c0-0.42,0-0.84,0-1.26c0-0.18,0-0.36,0-0.54s0-0.36,0-0.54c0-0.24,0-0.48,0-0.72c0-0.181,0-0.36,0-0.54c0-0.181,0-0.36,0-0.54
			c0-0.181,0-0.36,0-0.54c0.42,0,0.84,0,1.26,0c0.18,0,0.36,0,0.54,0c0.18,0,0.36,0,0.54,0s0.36,0,0.54,0s0.36,0,0.54,0
			s0.36,0,0.54,0c0.12,0,0.24,0,0.36,0c0.06,0,0.12,0,0.18,0s0.12,0,0.18,0c0-0.181,0-0.36,0-0.54c0-0.72,0-1.44,0-2.16
			c0-0.36,0-0.72,0-1.08c0-0.18,0-0.36,0-0.54c0-0.12,0-0.24,0-0.36c0.42,0,0.84,0,1.26,0c0.18,0,0.36,0,0.54,0
			c0.18,0,0.36,0,0.54,0c0.24,0,0.48,0,0.72,0c0.18,0,0.36,0,0.54,0c0.18,0,0.36,0,0.54,0c0.12,0,0.24,0,0.36,0
			c0.06,0,0.12,0,0.18,0s0.12,0,0.18,0c0-0.18,0-0.359,0-0.539c0-0.36,0-0.721,0-1.08c0-0.181,0-0.36,0-0.54c0-0.181,0-0.36,0-0.54
			c0-0.36,0-0.721,0-1.08c0-0.181,0-0.36,0-0.54c0-0.12,0-0.24,0-0.36c0-0.24,0-0.479,0-0.72c0-0.18,0-0.36,0-0.54s0-0.36,0-0.54
			s0-0.36,0-0.54c0-0.42,0-0.84,0-1.26c0-0.36,0-0.721,0-1.08c-0.84,0-1.68,0-2.52,0c-0.78,0-1.56,0-2.34,0c0-0.78,0-1.561,0-2.34
			c0-0.78,0-1.561,0-2.34c0-0.78,0-1.561,0-2.341c0-0.779,0-1.56,0-2.34c-0.42,0-0.84,0-1.26,0c-0.18,0-0.36,0-0.54,0
			s-0.36,0-0.54,0c-0.24,0-0.48,0-0.72,0c-0.18,0-0.36,0-0.54,0c-0.36,0-0.72,0-1.08,0c0-6.3,0-12.6,0-18.9c0.78,0,1.56,0,2.34,0
			c0.36,0,0.72,0,1.08,0c0.18,0,0.36,0,0.54,0c0.24,0,0.48,0,0.72,0c0-0.18,0-0.36,0-0.54c0-0.72,0-1.44,0-2.16
			c0-0.36,0-0.72,0-1.08c0-0.18,0-0.36,0-0.54c0-0.12,0-0.24,0-0.36c0-0.78,0-1.56,0-2.34c0-0.78,0-1.56,0-2.34
			c0.42,0,0.84,0,1.26,0c0.36,0,0.72,0,1.08,0c0.42,0,0.84,0,1.26,0c0.18,0,0.36,0,0.54,0c0.24,0,0.48,0,0.72,0
			c0-0.18,0-0.36,0-0.54c0-0.36,0-0.72,0-1.08c0-0.18,0-0.36,0-0.54c0-0.18,0-0.36,0-0.54c0-0.36,0-0.72,0-1.08
			c0-0.18,0-0.36,0-0.54c0-0.12,0-0.24,0-0.36c0.42,0,0.84,0,1.26,0c0.18,0,0.36,0,0.54,0s0.36,0,0.54,0s0.36,0,0.54,0
			s0.36,0,0.54,0s0.36,0,0.54,0c0.24,0,0.48,0,0.72,0c0-0.18,0-0.36,0-0.54c0-1.2,0-2.4,0-3.6c0-0.18,0-0.36,0-0.54
			c-0.78,0-1.56,0-2.34,0s-1.56,0-2.34,0c0-1.92,0-3.84,0-5.76c0-0.96,0-1.92,0-2.88c0-0.48,0-0.96,0-1.44c0-0.54,0-1.08,0-1.62
			c0-0.96,0-1.92,0-2.88s0-1.92,0-2.88c0-0.96,0-1.92,0-2.88c0-0.48,0-0.96,0-1.44c0-0.24,0-0.48,0-0.72c0-0.12,0-0.24,0-0.36
			c0-0.24,0-0.48,0-0.72c1.14,0,2.28,0,3.42,0c0.6,0,1.2,0,1.8,0c0.12,0,0.24,0,0.36,0c0.18,0,0.36,0,0.54,0c0.12,0,0.24,0,0.36,0
			c0.18,0,0.36,0,0.54,0c1.14,0,2.28,0,3.42,0c0.6,0,1.2,0,1.8,0c0.12,0,0.24,0,0.36,0c0.18,0,0.36,0,0.54,0c0.12,0,0.24,0,0.36,0
			c0.18,0,0.36,0,0.54,0c0,0.42,0,0.84,0,1.26c0,0.36,0,0.72,0,1.08c0,0.42,0,0.84,0,1.26c0,0.36,0,0.72,0,1.08
			c0,0.42,0,0.84,0,1.26c0,0.36,0,0.72,0,1.08c0,0.78,0,1.56,0,2.34c0.42,0,0.84,0,1.26,0c0.18,0,0.36,0,0.54,0s0.36,0,0.54,0
			c0.24,0,0.48,0,0.72,0c0.18,0,0.36,0,0.54,0c0.36,0,0.72,0,1.08,0c0,1.62,0,3.24,0,4.86c0,0.24,0,0.48,0,0.72
			c0,0.18,0,0.36,0,0.54c0,0.18,0,0.36,0,0.54c0,0.18,0,0.36,0,0.54c0,0.24,0,0.48,0,0.72c0,0.18,0,0.36,0,0.54
			c0,0.18,0,0.36,0,0.54s0,0.36,0,0.54c-0.78,0-1.56,0-2.34,0c-0.72,0-1.44,0-2.16,0c-0.06,0-0.12,0-0.18,0c0,0.18,0,0.36,0,0.54
			s0,0.36,0,0.54c0,0.12,0,0.24,0,0.36c0,0.3,0,0.6,0,0.9c0,0.6,0,1.2,0,1.8c0,0.18,0,0.36,0,0.54c0.18,0,0.36,0,0.54,0
			c2.28,0,4.56,0,6.84,0c2.22,0,4.44,0,6.66,0c0,0.24,0,0.48,0,0.72c0,0.18,0,0.36,0,0.54c0,0.36,0,0.72,0,1.08
			c0,0.18,0,0.36,0,0.54s0,0.36,0,0.54c0,0.18,0,0.36,0,0.54c0,0.12,0,0.24,0,0.36c0,0.06,0,0.12,0,0.18s0,0.12,0,0.18
			c0.181,0,0.36,0,0.54,0c1.2,0,2.4,0,3.601,0c0.18,0,0.359,0,0.54,0c0,0.24,0,0.48,0,0.72c0,0.18,0,0.36,0,0.54
			c0,0.36,0,0.72,0,1.08C56.59,35.95,56.59,36.37,56.59,36.79z"/>
		<path fill="#311531" d="M56.59,20.41c0,1.14,0,2.28,0,3.42c-2.341,0-4.681,0-7.021,0s-4.68,0-7.02,0c0-0.18,0-0.36,0-0.54
			s0-0.36,0-0.54c0-0.18,0-0.36,0-0.54c0-0.24,0-0.48,0-0.72c0-0.18,0-0.36,0-0.54c0-0.18,0-0.36,0-0.54c0-0.18,0-0.36,0-0.54
			c0-0.24,0-0.48,0-0.72c0-1.62,0-3.24,0-4.86c0.18,0,0.36,0,0.54,0c0.18,0,0.36,0,0.54,0s0.36,0,0.54,0c0.24,0,0.48,0,0.72,0
			c0.18,0,0.36,0,0.54,0c0.18,0,0.36,0,0.54,0c0.42,0,0.84,0,1.26,0c0,0.36,0,0.72,0,1.08c0,0.42,0,0.84,0,1.26
			c0,0.78,0,1.56,0,2.34c1.56,0,3.12,0,4.68,0c0-0.18,0-0.36,0-0.54c0-1.38,0-2.76,0-4.14s0-2.76,0-4.14c0-0.18,0-0.36,0-0.54
			c1.561,0,3.12,0,4.681,0c0,0.24,0,0.48,0,0.72c0,0.12,0,0.24,0,0.36c0,0.18,0,0.36,0,0.54c0,0.12,0,0.24,0,0.36c0,0.6,0,1.2,0,1.8
			c0,1.14,0,2.28,0,3.42c0,0.18,0,0.36,0,0.54c0,0.12,0,0.24,0,0.36c0,0.18,0,0.36,0,0.54c0,0.12,0,0.24,0,0.36
			C56.59,19.21,56.59,19.81,56.59,20.41z"/>
		<path fill="#311531" d="M51.91,129.49c0,2.399,0,4.8,0,7.2c-1.56,0-3.12,0-4.68,0c0-1.62,0-3.24,0-4.86c-0.42,0-0.84,0-1.26,0
			c-0.18,0-0.36,0-0.54,0c-0.18,0-0.36,0-0.54,0c-0.24,0-0.48,0-0.72,0c-0.18,0-0.36,0-0.54,0s-0.36,0-0.54,0c-0.18,0-0.36,0-0.54,0
			c0-2.94,0-5.88,0-8.82c0-0.18,0-0.359,0-0.54c0.06,0,0.12,0,0.18,0c0.72,0,1.44,0,2.16,0c0.18,0,0.36,0,0.54,0
			c0.18,0,0.36,0,0.54,0c0.18,0,0.36,0,0.54,0c0.24,0,0.48,0,0.72,0c1.56,0,3.12,0,4.68,0C51.91,124.811,51.91,127.15,51.91,129.49z
			"/>
		<path fill="#E0B49C" d="M47.23,117.79c0,1.56,0,3.12,0,4.68c-0.24,0-0.48,0-0.72,0c-0.18,0-0.36,0-0.54,0c-0.18,0-0.36,0-0.54,0
			c-0.18,0-0.36,0-0.54,0c-0.72,0-1.44,0-2.16,0c-0.06,0-0.12,0-0.18,0c0,0.181,0,0.36,0,0.54c0,2.94,0,5.88,0,8.82
			c-0.78,0-1.56,0-2.34,0c-0.36,0-0.72,0-1.08,0c-0.18,0-0.36,0-0.54,0c-0.12,0-0.24,0-0.36,0c-0.06,0-0.12,0-0.18,0s-0.12,0-0.18,0
			c0,0.18,0,0.36,0,0.54c0,1.44,0,2.88,0,4.32c-0.18,0-0.36,0-0.54,0c-0.12,0-0.24,0-0.36,0c-0.18,0-0.36,0-0.54,0
			c-0.12,0-0.24,0-0.36,0c-0.6,0-1.2,0-1.8,0c-1.14,0-2.28,0-3.42,0c-2.34,0-4.68,0-7.02,0c0-6.301,0-12.601,0-18.9
			c0.42,0,0.84,0,1.26,0c0.18,0,0.36,0,0.54,0s0.36,0,0.54,0c0.36,0,0.72,0,1.08,0c0.18,0,0.36,0,0.54,0c0.12,0,0.24,0,0.36,0
			c0.06,0,0.12,0,0.18,0s0.12,0,0.18,0c0-0.18,0-0.36,0-0.54c0-1.2,0-2.4,0-3.6c0-0.181,0-0.36,0-0.54c0.24,0,0.48,0,0.72,0
			c0.18,0,0.36,0,0.54,0c0.36,0,0.72,0,1.08,0c0.72,0,1.44,0,2.16,0c0.06,0,0.12,0,0.18,0c0-0.181,0-0.36,0-0.54
			c0-2.94,0-5.88,0-8.82c0.78,0,1.56,0,2.34,0c0.78,0,1.56,0,2.34,0c0-1.62,0-3.24,0-4.86c0.78,0,1.56,0,2.34,0
			c0.18,0,0.36,0,0.54,0s0.36,0,0.54,0c0.42,0,0.84,0,1.26,0c0,1.141,0,2.28,0,3.421c0,1.14,0,2.279,0,3.42c0,1.14,0,2.279,0,3.42
			c0,1.14,0,2.279,0,3.42c0,0.18,0,0.359,0,0.54c0.18,0,0.36,0,0.54,0c0.12,0,0.24,0,0.36,0c0.18,0,0.36,0,0.54,0
			c0.12,0,0.24,0,0.36,0c0.18,0,0.36,0,0.54,0c0.12,0,0.24,0,0.36,0c0.18,0,0.36,0,0.54,0c0.12,0,0.24,0,0.36,0
			c0.18,0,0.36,0,0.54,0s0.36,0,0.54,0C47.23,114.67,47.23,116.23,47.23,117.79z"/>
		<path fill="#D97761" d="M47.23,78.91c0,0.42,0,0.84,0,1.26c-0.18,0-0.36,0-0.54,0s-0.36,0-0.54,0s-0.36,0-0.54,0
			c-0.24,0-0.48,0-0.72,0c-0.18,0-0.36,0-0.54,0c-0.18,0-0.36,0-0.54,0c-0.42,0-0.84,0-1.26,0c0-0.18,0-0.359,0-0.54
			c0-0.18,0-0.359,0-0.54c0-0.18,0-0.359,0-0.54c0-0.239,0-0.479,0-0.72c0-0.18,0-0.36,0-0.54s0-0.36,0-0.54c0-0.42,0-0.84,0-1.26
			c0.12,0,0.24,0,0.36,0c0.18,0,0.36,0,0.54,0c0.36,0,0.72,0,1.08,0c0.18,0,0.36,0,0.54,0c0.18,0,0.36,0,0.54,0
			c0.36,0,0.72,0,1.08,0c0.18,0,0.36,0,0.54,0c0,0.24,0,0.479,0,0.72c0,0.18,0,0.36,0,0.54c0,0.36,0,0.72,0,1.08
			c0,0.18,0,0.36,0,0.54S47.23,78.73,47.23,78.91z"/>
		<path fill="#311531" d="M42.55,131.83c0,1.62,0,3.24,0,4.86c-0.78,0-1.56,0-2.34,0s-1.56,0-2.34,0c0-1.44,0-2.88,0-4.32
			c0-0.18,0-0.36,0-0.54c0.06,0,0.12,0,0.18,0s0.12,0,0.18,0c0.12,0,0.24,0,0.36,0c0.18,0,0.36,0,0.54,0c0.36,0,0.72,0,1.08,0
			C40.99,131.83,41.77,131.83,42.55,131.83z"/>
		<path fill="#D97761" d="M42.55,97.63c0,0.42,0,0.84,0,1.26c-0.42,0-0.84,0-1.26,0c-0.18,0-0.36,0-0.54,0s-0.36,0-0.54,0
			c-0.78,0-1.56,0-2.34,0c0-1.56,0-3.119,0-4.68c0.72,0,1.44,0,2.16,0c0.18,0,0.36,0,0.54,0c0.18,0,0.36,0,0.54,0
			c0.18,0,0.36,0,0.54,0c0.24,0,0.48,0,0.72,0c0.06,0,0.12,0,0.18,0c0,0.18,0,0.36,0,0.54s0,0.36,0,0.54s0,0.36,0,0.54
			c0,0.24,0,0.48,0,0.72c0,0.181,0,0.36,0,0.54C42.55,97.271,42.55,97.45,42.55,97.63z"/>
		<path fill="#BA6A5B" d="M42.55,92.95c0,0.42,0,0.84,0,1.26c-0.06,0-0.12,0-0.18,0c-0.24,0-0.48,0-0.72,0c-0.18,0-0.36,0-0.54,0
			c-0.18,0-0.36,0-0.54,0c-0.18,0-0.36,0-0.54,0c-0.72,0-1.44,0-2.16,0c0-0.36,0-0.72,0-1.08c0-0.42,0-0.84,0-1.26
			c0-0.18,0-0.36,0-0.54s0-0.36,0-0.54c0-0.42,0-0.84,0-1.26c0.18,0,0.36,0,0.54,0c0.12,0,0.24,0,0.36,0c0.18,0,0.36,0,0.54,0
			c0.12,0,0.24,0,0.36,0c0.18,0,0.36,0,0.54,0c0.12,0,0.24,0,0.36,0c0.18,0,0.36,0,0.54,0c0.12,0,0.24,0,0.36,0
			c0.18,0,0.36,0,0.54,0c0.18,0,0.36,0,0.54,0c0,0.06,0,0.12,0,0.18c0,0.061,0,0.12,0,0.18c0,0.12,0,0.24,0,0.36
			c0,0.18,0,0.36,0,0.54s0,0.36,0,0.54s0,0.36,0,0.54s0,0.36,0,0.54S42.55,92.771,42.55,92.95z"/>
		<path fill="#311531" d="M42.55,13.03c0,0.42,0,0.84,0,1.26c-0.36,0-0.72,0-1.08,0c-0.18,0-0.36,0-0.54,0c-0.24,0-0.48,0-0.72,0
			c-0.18,0-0.36,0-0.54,0s-0.36,0-0.54,0c-0.42,0-0.84,0-1.26,0c0-0.78,0-1.56,0-2.34c0-0.36,0-0.72,0-1.08c0-0.42,0-0.84,0-1.26
			c0-0.36,0-0.72,0-1.08c0-0.42,0-0.84,0-1.26c0-0.36,0-0.72,0-1.08c0-0.42,0-0.84,0-1.26c0.78,0,1.56,0,2.34,0s1.56,0,2.34,0
			c0,0.18,0,0.36,0,0.54c0,1.44,0,2.88,0,4.32c0,0.18,0,0.36,0,0.54s0,0.36,0,0.54s0,0.36,0,0.54c0,0.18,0,0.36,0,0.54
			c0,0.18,0,0.36,0,0.54C42.55,12.67,42.55,12.85,42.55,13.03z"/>
		<path fill="#D97761" d="M37.87,98.89c0,1.62,0,3.24,0,4.86c-0.78,0-1.56,0-2.34,0c-0.78,0-1.56,0-2.34,0c0-1.62,0-3.24,0-4.86
			c0.78,0,1.56,0,2.34,0c0.18,0,0.36,0,0.54,0c0.18,0,0.36,0,0.54,0C37.03,98.89,37.45,98.89,37.87,98.89z"/>
		<path fill="#BA6A5B" d="M37.87,94.21c0,1.561,0,3.12,0,4.68c-0.42,0-0.84,0-1.26,0c-0.18,0-0.36,0-0.54,0c-0.18,0-0.36,0-0.54,0
			c-0.78,0-1.56,0-2.34,0c0-1.56,0-3.119,0-4.68c0.78,0,1.56,0,2.34,0C36.31,94.21,37.09,94.21,37.87,94.21z"/>
		<path fill="#311531" d="M37.87,3.85c0,0.36,0,0.72,0,1.08c-0.18,0-0.36,0-0.54,0c-0.12,0-0.24,0-0.36,0c-0.18,0-0.36,0-0.54,0
			c-0.12,0-0.24,0-0.36,0c-0.6,0-1.2,0-1.8,0c-1.14,0-2.28,0-3.42,0c-0.18,0-0.36,0-0.54,0c-0.12,0-0.24,0-0.36,0
			c-0.18,0-0.36,0-0.54,0c-0.12,0-0.24,0-0.36,0c-0.6,0-1.2,0-1.8,0c-1.14,0-2.28,0-3.42,0c0-0.36,0-0.72,0-1.08s0-0.72,0-1.08
			s0-0.72,0-1.08c0-0.18,0-0.36,0-0.54c0-0.24,0-0.48,0-0.72c0-0.06,0-0.12,0-0.18c0.06,0,0.12,0,0.18,0c0.6,0,1.2,0,1.8,0
			s1.2,0,1.8,0c1.14,0,2.28,0,3.42,0c2.28,0,4.56,0,6.84,0c0,0.24,0,0.48,0,0.72c0,0.18,0,0.36,0,0.54c0,0.36,0,0.72,0,1.08
			C37.87,3.01,37.87,3.43,37.87,3.85z"/>
		<path fill="#D97761" d="M33.19,112.57c0,0.18,0,0.359,0,0.54c-0.06,0-0.12,0-0.18,0c-0.72,0-1.44,0-2.16,0c-0.36,0-0.72,0-1.08,0
			c-0.18,0-0.36,0-0.54,0c-0.24,0-0.48,0-0.72,0c0,0.18,0,0.359,0,0.54c0,1.199,0,2.399,0,3.6c0,0.18,0,0.36,0,0.54
			c-0.06,0-0.12,0-0.18,0s-0.12,0-0.18,0c-0.12,0-0.24,0-0.36,0c-0.18,0-0.36,0-0.54,0c-0.36,0-0.72,0-1.08,0c-0.18,0-0.36,0-0.54,0
			s-0.36,0-0.54,0c-0.42,0-0.84,0-1.26,0c0-1.56,0-3.12,0-4.68c0-1.561,0-3.12,0-4.681c0.78,0,1.56,0,2.34,0s1.56,0,2.34,0
			c0-1.56,0-3.119,0-4.68c0.78,0,1.56,0,2.34,0c0.78,0,1.56,0,2.34,0C33.19,106.69,33.19,109.63,33.19,112.57z"/>
		<path fill="#BA6A5B" d="M33.19,98.89c0,1.62,0,3.24,0,4.86c-0.78,0-1.56,0-2.34,0c-0.78,0-1.56,0-2.34,0c0-1.62,0-3.24,0-4.86
			c0.78,0,1.56,0,2.34,0C31.63,98.89,32.41,98.89,33.19,98.89z"/>
		<path fill="#BA6A5B" d="M28.51,103.75c0,1.561,0,3.12,0,4.68c-0.78,0-1.56,0-2.34,0s-1.56,0-2.34,0c0-1.38,0-2.76,0-4.14
			c0-0.18,0-0.36,0-0.54c0.06,0,0.12,0,0.18,0C25.51,103.75,27.01,103.75,28.51,103.75z"/>
		<path fill="#D97761" d="M28.51,32.65c0,0.18,0,0.36,0,0.54c-0.24,0-0.48,0-0.72,0c-0.18,0-0.36,0-0.54,0s-0.36,0-0.54,0
			s-0.36,0-0.54,0s-0.36,0-0.54,0s-0.36,0-0.54,0c-0.42,0-0.84,0-1.26,0c0-0.36,0-0.72,0-1.08c0-0.42,0-0.84,0-1.26
			c0-0.36,0-0.72,0-1.08c0-0.18,0-0.36,0-0.54c0-0.24,0-0.48,0-0.72c0.78,0,1.56,0,2.34,0s1.56,0,2.34,0c0,0.18,0,0.36,0,0.54
			C28.51,30.25,28.51,31.45,28.51,32.65z"/>
		<path fill="#311531" d="M23.83,117.79c0,6.3,0,12.6,0,18.9c-0.84,0-1.68,0-2.52,0c-0.78,0-1.56,0-2.34,0c0-3.9,0-7.801,0-11.7
			c0-0.96,0-1.92,0-2.88c0-0.48,0-0.96,0-1.44c0-0.54,0-1.08,0-1.62c0-0.96,0-1.92,0-2.88c0-0.479,0-0.96,0-1.439
			c0-0.24,0-0.48,0-0.721c0-0.12,0-0.239,0-0.359c0-0.181,0-0.36,0-0.54c0.18,0,0.36,0,0.54,0c0.18,0,0.36,0,0.54,0
			c0.42,0,0.84,0,1.26,0c0.84,0,1.68,0,2.52,0C23.83,114.67,23.83,116.23,23.83,117.79z"/>
		<path fill="#BA6A5B" d="M23.83,108.43c0,1.561,0,3.12,0,4.681c-0.84,0-1.68,0-2.52,0c-0.42,0-0.84,0-1.26,0c-0.18,0-0.36,0-0.54,0
			c-0.18,0-0.36,0-0.54,0c0-1.561,0-3.12,0-4.681c0.78,0,1.56,0,2.34,0C22.15,108.43,22.99,108.43,23.83,108.43z"/>
		<path fill="#311531" d="M23.83,84.311c0,0.18,0,0.359,0,0.539c-0.06,0-0.12,0-0.18,0s-0.12,0-0.18,0c-0.12,0-0.24,0-0.36,0
			c-0.18,0-0.36,0-0.54,0c-0.18,0-0.36,0-0.54,0c-0.24,0-0.48,0-0.72,0c-0.18,0-0.36,0-0.54,0c-0.18,0-0.36,0-0.54,0
			c-0.42,0-0.84,0-1.26,0c0-0.359,0-0.72,0-1.079c0-0.181,0-0.36,0-0.54c0-0.24,0-0.48,0-0.721c0-0.779,0-1.56,0-2.34
			c0.18,0,0.36,0,0.54,0c0.18,0,0.36,0,0.54,0c0.18,0,0.36,0,0.54,0c0.24,0,0.48,0,0.72,0c0.84,0,1.68,0,2.52,0
			c0,0.12,0,0.24,0,0.36c0,0.18,0,0.359,0,0.54c0,0.359,0,0.72,0,1.08c0,0.18,0,0.359,0,0.54c0,0.18,0,0.359,0,0.54
			C23.83,83.59,23.83,83.95,23.83,84.311z"/>
		<path fill="#D97761" d="M23.83,79.45c0,0.24,0,0.479,0,0.72c-0.84,0-1.68,0-2.52,0c-0.24,0-0.48,0-0.72,0c-0.18,0-0.36,0-0.54,0
			c-0.18,0-0.36,0-0.54,0c-0.18,0-0.36,0-0.54,0c0-0.78,0-1.56,0-2.34s0-1.56,0-2.34c0.78,0,1.56,0,2.34,0c0.84,0,1.68,0,2.52,0
			c0,0.359,0,0.72,0,1.08c0,0.42,0,0.84,0,1.26c0,0.18,0,0.36,0,0.54s0,0.36,0,0.54S23.83,79.271,23.83,79.45z"/>
		<path fill="#D97761" d="M23.83,37.33c0,0.18,0,0.36,0,0.54c-0.24,0-0.48,0-0.72,0c-0.18,0-0.36,0-0.54,0c-0.42,0-0.84,0-1.26,0
			c-0.36,0-0.72,0-1.08,0c-0.42,0-0.84,0-1.26,0c0-0.72,0-1.44,0-2.16c0-0.36,0-0.72,0-1.08c0-0.18,0-0.36,0-0.54
			c0-0.24,0-0.48,0-0.72c0-0.06,0-0.12,0-0.18c0.18,0,0.36,0,0.54,0c0.18,0,0.36,0,0.54,0c0.18,0,0.36,0,0.54,0
			c0.24,0,0.48,0,0.72,0c0.84,0,1.68,0,2.52,0c0,0.12,0,0.24,0,0.36c0,0.18,0,0.36,0,0.54c0,0.36,0,0.72,0,1.08
			c0,0.18,0,0.36,0,0.54c0,0.18,0,0.36,0,0.54C23.83,36.61,23.83,36.97,23.83,37.33z"/>
		<path fill="#311531" d="M23.83,32.11c0,0.36,0,0.72,0,1.08c-0.84,0-1.68,0-2.52,0c-0.24,0-0.48,0-0.72,0c-0.18,0-0.36,0-0.54,0
			c-0.18,0-0.36,0-0.54,0c-0.18,0-0.36,0-0.54,0c0-1.14,0-2.28,0-3.42c0-0.12,0-0.24,0-0.36c0-0.18,0-0.36,0-0.54
			c0-0.12,0-0.24,0-0.36c0-0.18,0-0.36,0-0.54c0-0.3,0-0.6,0-0.9c0-0.3,0-0.6,0-0.9c0-1.14,0-2.28,0-3.42c0-0.12,0-0.24,0-0.36
			c0-0.18,0-0.36,0-0.54c0-0.12,0-0.24,0-0.36c0-0.18,0-0.36,0-0.54c0-0.12,0-0.24,0-0.36c0-0.18,0-0.36,0-0.54
			c0-0.12,0-0.24,0-0.36c0-0.18,0-0.36,0-0.54c0-1.14,0-2.28,0-3.42c0-0.6,0-1.2,0-1.8s0-1.2,0-1.8c0-0.12,0-0.24,0-0.36
			c0-0.18,0-0.36,0-0.54c0-0.12,0-0.24,0-0.36c0-0.18,0-0.36,0-0.54c0-0.6,0-1.2,0-1.8c0-0.6,0-1.2,0-1.8c0-0.12,0-0.24,0-0.36
			c0-0.18,0-0.36,0-0.54c0-0.12,0-0.24,0-0.36c0-0.18,0-0.36,0-0.54c0.24,0,0.48,0,0.72,0c0.18,0,0.36,0,0.54,0s0.36,0,0.54,0
			c0.24,0,0.48,0,0.72,0c0.78,0,1.56,0,2.34,0c0,0.24,0,0.48,0,0.72c0,0.12,0,0.24,0,0.36c0,0.24,0,0.48,0,0.72
			c0,0.48,0,0.96,0,1.44c0,0.96,0,1.92,0,2.88c0,0.96,0,1.92,0,2.88s0,1.92,0,2.88c0,0.54,0,1.08,0,1.62c0,0.48,0,0.96,0,1.44
			c0,0.96,0,1.92,0,2.88c0,1.92,0,3.84,0,5.76c0,0.24,0,0.48,0,0.72c0,0.18,0,0.36,0,0.54c0,0.36,0,0.72,0,1.08
			C23.83,31.27,23.83,31.69,23.83,32.11z"/>
		<path fill="#311531" d="M18.97,108.43c0,1.561,0,3.12,0,4.681c-1.14,0-2.28,0-3.42,0c-0.12,0-0.24,0-0.36,0c-0.18,0-0.36,0-0.54,0
			c-0.3,0-0.6,0-0.9,0c-0.12,0-0.24,0-0.36,0c-0.18,0-0.36,0-0.54,0c-0.3,0-0.6,0-0.9,0c-1.14,0-2.28,0-3.42,0
			c-0.12,0-0.24,0-0.36,0c-0.18,0-0.36,0-0.54,0c-0.12,0-0.24,0-0.36,0c-0.18,0-0.36,0-0.54,0c-0.12,0-0.24,0-0.36,0
			c-0.18,0-0.36,0-0.54,0c-0.12,0-0.24,0-0.36,0c-0.18,0-0.36,0-0.54,0c0-1.561,0-3.12,0-4.681c0.54,0,1.08,0,1.62,0
			c0.12,0,0.24,0,0.36,0c0.18,0,0.36,0,0.54,0c0.12,0,0.24,0,0.36,0c0.18,0,0.36,0,0.54,0c0.12,0,0.24,0,0.36,0
			c0.18,0,0.36,0,0.54,0c0.12,0,0.24,0,0.36,0c0.18,0,0.36,0,0.54,0c0.12,0,0.24,0,0.36,0c0.18,0,0.36,0,0.54,0
			c0.12,0,0.24,0,0.36,0c0.18,0,0.36,0,0.54,0c0.54,0,1.08,0,1.62,0c0.6,0,1.2,0,1.8,0C16.57,108.43,17.77,108.43,18.97,108.43z"/>
		<path fill="#311531" d="M18.97,88.99c0,0.18,0,0.359,0,0.54c-0.06,0-0.12,0-0.18,0s-0.12,0-0.18,0c-0.12,0-0.24,0-0.36,0
			c-0.18,0-0.36,0-0.54,0s-0.36,0-0.54,0s-0.36,0-0.54,0s-0.36,0-0.54,0c-0.18,0-0.36,0-0.54,0c-0.42,0-0.84,0-1.26,0
			c0-0.181,0-0.36,0-0.54s0-0.36,0-0.54s0-0.36,0-0.54c0-0.24,0-0.48,0-0.72c0-0.181,0-0.36,0-0.54c0-0.181,0-0.36,0-0.54
			c0-0.42,0-0.84,0-1.261c0.18,0,0.36,0,0.54,0c0.12,0,0.24,0,0.36,0c0.18,0,0.36,0,0.54,0c0.36,0,0.72,0,1.08,0
			c0.72,0,1.44,0,2.16,0c0,0.12,0,0.24,0,0.36c0,0.18,0,0.36,0,0.54c0,0.36,0,0.72,0,1.08C18.97,87.55,18.97,88.271,18.97,88.99z"/>
		<path fill="#311531" d="M18.97,77.83c0,0.78,0,1.56,0,2.34c-0.18,0-0.36,0-0.54,0c-0.18,0-0.36,0-0.54,0c-0.18,0-0.36,0-0.54,0
			c-0.24,0-0.48,0-0.72,0c-0.18,0-0.36,0-0.54,0c-0.18,0-0.36,0-0.54,0c-0.42,0-0.84,0-1.26,0c0-0.359,0-0.72,0-1.08
			c0-0.18,0-0.359,0-0.54c0-0.239,0-0.479,0-0.72c0-0.18,0-0.36,0-0.54s0-0.36,0-0.54s0-0.36,0-0.54c0-0.24,0-0.479,0-0.72
			c0-0.18,0-0.36,0-0.54s0-0.36,0-0.54s0-0.36,0-0.54c0-0.24,0-0.48,0-0.72c0-0.181,0-0.36,0-0.54c0-0.181,0-0.36,0-0.54
			c0-0.42,0-0.84,0-1.26c0.36,0,0.72,0,1.08,0c0.42,0,0.84,0,1.26,0c0.78,0,1.56,0,2.34,0c0,0.779,0,1.56,0,2.34
			c0,0.779,0,1.56,0,2.34S18.97,77.05,18.97,77.83z"/>
		<path fill="#D97761" d="M18.97,68.47c0,0.78,0,1.561,0,2.341c-0.78,0-1.56,0-2.34,0c-0.42,0-0.84,0-1.26,0c-0.36,0-0.72,0-1.08,0
			c0-0.36,0-0.721,0-1.08c0-0.181,0-0.36,0-0.54c0-0.24,0-0.48,0-0.721c0-0.18,0-0.359,0-0.54c0-0.18,0-0.359,0-0.54
			c0-0.42,0-0.84,0-1.26c0.36,0,0.72,0,1.08,0c0.18,0,0.36,0,0.54,0c0.24,0,0.48,0,0.72,0c0.18,0,0.36,0,0.54,0s0.36,0,0.54,0
			c0.42,0,0.84,0,1.26,0C18.97,66.91,18.97,67.69,18.97,68.47z"/>
		<path fill="#D97761" d="M18.97,46.69c0,0.18,0,0.36,0,0.54c-0.24,0-0.48,0-0.72,0c-0.18,0-0.36,0-0.54,0c-0.36,0-0.72,0-1.08,0
			c-0.78,0-1.56,0-2.34,0c0-0.72,0-1.44,0-2.16c0-0.18,0-0.36,0-0.54c0-0.18,0-0.36,0-0.54c0-0.18,0-0.36,0-0.54
			c0-0.24,0-0.48,0-0.72c0-0.06,0-0.12,0-0.18c0.18,0,0.36,0,0.54,0c0.18,0,0.36,0,0.54,0c0.18,0,0.36,0,0.54,0
			c0.24,0,0.48,0,0.72,0c0.18,0,0.36,0,0.54,0s0.36,0,0.54,0c0.42,0,0.84,0,1.26,0c0,0.12,0,0.24,0,0.36c0,0.18,0,0.36,0,0.54
			c0,0.36,0,0.72,0,1.08C18.97,45.25,18.97,45.97,18.97,46.69z"/>
		<path fill="#311531" d="M18.97,40.21c0,0.78,0,1.56,0,2.34c-0.42,0-0.84,0-1.26,0c-0.18,0-0.36,0-0.54,0s-0.36,0-0.54,0
			c-0.24,0-0.48,0-0.72,0c-0.18,0-0.36,0-0.54,0c-0.18,0-0.36,0-0.54,0c-0.18,0-0.36,0-0.54,0c0-1.44,0-2.88,0-4.32c0-1.5,0-3,0-4.5
			c0-0.18,0-0.36,0-0.54c0.24,0,0.48,0,0.72,0c0.18,0,0.36,0,0.54,0c0.18,0,0.36,0,0.54,0c0.18,0,0.36,0,0.54,0s0.36,0,0.54,0
			s0.36,0,0.54,0c0.42,0,0.84,0,1.26,0c0,0.06,0,0.12,0,0.18c0,0.24,0,0.48,0,0.72c0,0.18,0,0.36,0,0.54c0,0.36,0,0.72,0,1.08
			c0,0.72,0,1.44,0,2.16C18.97,38.65,18.97,39.43,18.97,40.21z"/>
		<path fill="#311531" d="M14.29,92.95c0,0.42,0,0.84,0,1.26c-0.78,0-1.56,0-2.34,0c-0.78,0-1.56,0-2.34,0c-0.36,0-0.72,0-1.08,0
			c-0.42,0-0.84,0-1.26,0c-0.78,0-1.56,0-2.34,0c0-0.36,0-0.72,0-1.08c0-0.18,0-0.359,0-0.54c0-0.24,0-0.479,0-0.72
			c0-0.18,0-0.36,0-0.54s0-0.36,0-0.54c0-0.42,0-0.84,0-1.26c0.18,0,0.36,0,0.54,0c1.44,0,2.88,0,4.32,0c0.18,0,0.36,0,0.54,0
			c0.18,0,0.36,0,0.54,0c0.18,0,0.36,0,0.54,0c0.18,0,0.36,0,0.54,0c0.18,0,0.36,0,0.54,0c0.18,0,0.36,0,0.54,0
			c0.42,0,0.84,0,1.26,0c0,0.18,0,0.359,0,0.54c0,0.18,0,0.359,0,0.54c0,0.18,0,0.359,0,0.54c0,0.239,0,0.479,0,0.72
			c0,0.18,0,0.36,0,0.54S14.29,92.771,14.29,92.95z"/>
		<path fill="#311531" d="M14.29,69.73c0,0.359,0,0.72,0,1.08c-0.78,0-1.56,0-2.34,0c-0.78,0-1.56,0-2.34,0c0-1.141,0-2.28,0-3.421
			c0-0.119,0-0.239,0-0.359c0-0.181,0-0.36,0-0.54c0-0.12,0-0.24,0-0.36c0-0.18,0-0.359,0-0.54c0-0.12,0-0.24,0-0.36
			c0-0.18,0-0.36,0-0.54c0-0.12,0-0.24,0-0.36c0-0.18,0-0.36,0-0.54c0-1.14,0-2.28,0-3.42c0-1.2,0-2.4,0-3.6c0-1.14,0-2.28,0-3.42
			c0-1.2,0-2.4,0-3.6c0-1.2,0-2.4,0-3.6c0-0.12,0-0.24,0-0.36c0-0.18,0-0.36,0-0.54c0-0.12,0-0.24,0-0.36c0-0.18,0-0.36,0-0.54
			c0-0.12,0-0.24,0-0.36c0-0.18,0-0.36,0-0.54c0-0.12,0-0.24,0-0.36c0-0.18,0-0.36,0-0.54c0.06,0,0.12,0,0.18,0s0.12,0,0.18,0
			c0.12,0,0.24,0,0.36,0c0.18,0,0.36,0,0.54,0c0.18,0,0.36,0,0.54,0c0.18,0,0.36,0,0.54,0c0.18,0,0.36,0,0.54,0
			c0.18,0,0.36,0,0.54,0c0.42,0,0.84,0,1.26,0c0,0.06,0,0.12,0,0.18c0,0.24,0,0.48,0,0.72c0,0.18,0,0.36,0,0.54
			c0,0.18,0,0.36,0,0.54c0,0.18,0,0.36,0,0.54c0,0.72,0,1.44,0,2.16c0,6.3,0,12.6,0,18.9c0,0.42,0,0.84,0,1.26
			c0,0.181,0,0.36,0,0.54c0,0.181,0,0.36,0,0.54c0,0.24,0,0.48,0,0.721C14.29,69.37,14.29,69.55,14.29,69.73z"/>
		<path fill="#311531" d="M4.93,104.83c0,1.2,0,2.4,0,3.6c-0.24,0-0.48,0-0.72,0c-0.18,0-0.36,0-0.54,0c-0.36,0-0.72,0-1.08,0
			c-0.24,0-0.48,0-0.72,0c-0.18,0-0.36,0-0.54,0c-0.18,0-0.36,0-0.54,0c-0.12,0-0.24,0-0.36,0c-0.06,0-0.12,0-0.18,0
			c0-4.56,0-9.119,0-13.68c0-0.18,0-0.36,0-0.54c0.06,0,0.12,0,0.18,0c0.12,0,0.24,0,0.36,0c0.18,0,0.36,0,0.54,0
			c0.18,0,0.36,0,0.54,0c0.24,0,0.48,0,0.72,0c0.36,0,0.72,0,1.08,0c0.42,0,0.84,0,1.26,0c0,1.14,0,2.28,0,3.42c0,1.2,0,2.4,0,3.601
			C4.93,102.43,4.93,103.63,4.93,104.83z"/>
	</g>
	<g>
	</g>
</g>
</svg>
