<?xml version="1.0" encoding="utf-8"?>
<!-- Generator: Adobe Illustrator 15.0.0, SVG Export Plug-In  -->
<!DOCTYPE svg PUBLIC "-//W3C//DTD SVG 1.1//EN" "http://www.w3.org/Graphics/SVG/1.1/DTD/svg11.dtd" [
	<!ENTITY ns_flows "http://ns.adobe.com/Flows/1.0/">
]>
<svg version="1.1"
	 xmlns="http://www.w3.org/2000/svg" xmlns:xlink="http://www.w3.org/1999/xlink" xmlns:a="http://ns.adobe.com/AdobeSVGViewerExtensions/3.0/"
	 x="0px" y="0px" width="104px" height="144px" viewBox="-9.81 -7.42 104 144" enable-background="new -9.81 -7.42 104 144"
	 xml:space="preserve">
<defs>
</defs>
<g id="XMLID_2_">
	<g>
		<path fill="#311531" d="M84.85,107.89c0,0.181,0,0.36,0,0.54c-0.061,0-0.12,0-0.18,0c-0.061,0-0.12,0-0.181,0
			c-0.12,0-0.24,0-0.359,0c-0.181,0-0.36,0-0.54,0c-0.36,0-0.721,0-1.08,0c-0.36,0-0.721,0-1.08,0c-0.181,0-0.36,0-0.54,0
			c-0.24,0-0.48,0-0.72,0c0-1.14,0-2.279,0-3.42c0-0.3,0-0.6,0-0.899s0-0.601,0-0.9s0-0.6,0-0.899c0-0.301,0-0.601,0-0.9
			s0-0.6,0-0.9c0-0.3,0-0.6,0-0.899s0-0.601,0-0.9s0-0.6,0-0.899c0-0.301,0-0.601,0-0.9s0-0.6,0-0.9c0-0.3,0-0.6,0-0.899
			c0-0.12,0-0.24,0-0.36c0-0.18,0-0.36,0-0.54c0.18,0,0.359,0,0.539,0c0.181,0,0.36,0,0.54,0c0.421,0,0.841,0,1.261,0
			c0.18,0,0.359,0,0.54,0c0.18,0,0.359,0,0.54,0c0.42,0,0.84,0,1.26,0c0,0.12,0,0.24,0,0.36c0,1.14,0,2.279,0,3.42
			c0,1.14,0,2.28,0,3.42s0,2.28,0,3.42c0,0.3,0,0.6,0,0.9c0,0.119,0,0.239,0,0.359c0,0.181,0,0.36,0,0.54c0,0.12,0,0.24,0,0.36
			c0,0.18,0,0.359,0,0.54C84.85,107.65,84.85,107.771,84.85,107.89z"/>
		<path fill="#311531" d="M84.85,64.51c0,0.54,0,1.08,0,1.62c-0.24,0-0.48,0-0.72,0c-0.181,0-0.36,0-0.54,0c-0.181,0-0.36,0-0.54,0
			c-0.181,0-0.36,0-0.54,0c-0.181,0-0.36,0-0.54,0c-0.181,0-0.36,0-0.54,0c-0.42,0-0.84,0-1.26,0c0-0.42,0-0.84,0-1.26
			c0-0.18,0-0.36,0-0.54s0-0.36,0-0.54c0-0.36,0-0.72,0-1.08c0-0.18,0-0.36,0-0.54c0-0.12,0-0.24,0-0.36c0-0.06,0-0.12,0-0.18
			c0-0.06,0-0.12,0-0.18c-0.181,0-0.36,0-0.54,0c-0.181,0-0.36,0-0.54,0c-0.12,0-0.24,0-0.36,0c-0.18,0-0.36,0-0.54,0
			c-0.12,0-0.24,0-0.36,0c-0.18,0-0.359,0-0.54,0c-0.119,0-0.239,0-0.359,0c-0.181,0-0.36,0-0.54,0c-0.12,0-0.24,0-0.36,0
			c-0.18,0-0.359,0-0.54,0v-0.86c0-0.73,0-2.34,0-4c0-1.89,0-3.85,0-4.68c0-1.56,0-3.12,0-4.68c0.78,0,1.561,0,2.34,0
			c0.36,0,0.721,0,1.08,0c0.181,0,0.36,0,0.54,0c0.24,0,0.48,0,0.721,0c0-0.18,0-0.36,0-0.54c0-0.72,0-1.44,0-2.16
			c0-0.36,0-0.72,0-1.08c0-0.18,0-0.36,0-0.54c0-0.12,0-0.24,0-0.36c0.18,0,0.359,0,0.539,0c0.181,0,0.36,0,0.54,0
			c0.181,0,0.36,0,0.54,0c0.24,0,0.48,0,0.721,0c0.18,0,0.359,0,0.54,0c0.18,0,0.359,0,0.54,0c0.42,0,0.84,0,1.26,0
			c0,1.92,0,3.84,0,5.76c0,0.96,0,1.92,0,2.88c0,0.48,0,0.96,0,1.44c0,0.54,0,1.08,0,1.62c0,0.96,0,1.92,0,2.88
			c0,0.48,0,0.96,0,1.44c0,0.54,0,1.08,0,1.62c0,0.96,0,1.92,0,2.88C84.85,63.55,84.85,64.03,84.85,64.51z"/>
		<path fill="#311531" d="M80.17,111.85c0,0.421,0,0.841,0,1.261c-0.36,0-0.721,0-1.08,0c-0.42,0-0.841,0-1.261,0
			c-0.359,0-0.72,0-1.08,0c-0.42,0-0.84,0-1.26,0c-0.359,0-0.72,0-1.08,0c-0.42,0-0.84,0-1.26,0c-0.36,0-0.72,0-1.08,0
			c-0.18,0-0.36,0-0.54,0c-0.24,0-0.479,0-0.72,0c0,0.18,0,0.359,0,0.54c0,2.76,0,5.52,0,8.279c0,0.181,0,0.36,0,0.54
			c-0.061,0-0.12,0-0.18,0c-0.721,0-1.44,0-2.16,0c-0.36,0-0.721,0-1.08,0c-0.181,0-0.36,0-0.54,0c-0.24,0-0.48,0-0.72,0
			c0-2.34,0-4.68,0-7.02s0-4.68,0-7.021c0-1.56,0-3.119,0-4.68c0.779,0,1.56,0,2.34,0c0.779,0,1.56,0,2.34,0c0,1.561,0,3.12,0,4.68
			c1.56,0,3.12,0,4.68,0c0.36,0,0.72,0,1.08,0c0.42,0,0.84,0,1.26,0c0.181,0,0.36,0,0.54,0c0.181,0,0.36,0,0.54,0
			c0.181,0,0.36,0,0.54,0c0.24,0,0.48,0,0.721,0c0,0.181,0,0.36,0,0.54c0,0.181,0,0.36,0,0.54c0,0.181,0,0.36,0,0.54
			c0,0.24,0,0.48,0,0.721c0,0.18,0,0.359,0,0.54C80.17,111.49,80.17,111.67,80.17,111.85z"/>
		<path fill="#BA6A5B" d="M80.17,105.01c0,1.141,0,2.28,0,3.42c-0.24,0-0.48,0-0.721,0c-0.18,0-0.359,0-0.54,0
			c-0.18,0-0.359,0-0.54,0c-0.18,0-0.359,0-0.54,0c-0.42,0-0.84,0-1.26,0c-0.36,0-0.72,0-1.08,0c-1.56,0-3.12,0-4.68,0
			c0-1.56,0-3.119,0-4.68c-0.78,0-1.561,0-2.34,0c-0.78,0-1.561,0-2.34,0c0-2.4,0-4.8,0-7.2c0-2.34,0-4.68,0-7.02
			c-1.381,0-2.761,0-4.141,0c-0.18,0-0.359,0-0.54,0c0-0.42,0-0.84,0-1.26c0-0.181,0-0.36,0-0.54c0-0.181,0-0.36,0-0.54
			c0-0.42,0-0.841,0-1.261c0-0.18,0-0.359,0-0.54c0-0.18,0-0.359,0-0.54c0-1.56,0-3.119,0-4.68c-0.84,0-1.68,0-2.52,0
			c-0.24,0-0.48,0-0.721,0c-0.18,0-0.359,0-0.539,0c-0.181,0-0.36,0-0.54,0c-0.181,0-0.36,0-0.54,0c0-0.78,0-1.56,0-2.34
			s0-1.56,0-2.34c0.239,0,0.479,0,0.72,0c0.12,0,0.24,0,0.36,0c0.18,0,0.359,0,0.539,0c0.12,0,0.24,0,0.36,0c0.18,0,0.36,0,0.54,0
			c0.12,0,0.24,0,0.36,0c0.18,0,0.359,0,0.54,0c1.199,0,2.399,0,3.6,0s2.4,0,3.6,0c0.601,0,1.2,0,1.801,0c0.12,0,0.239,0,0.359,0
			c0.181,0,0.36,0,0.54,0c0.12,0,0.24,0,0.36,0c0.18,0,0.36,0,0.54,0c0,0.78,0,1.56,0,2.34s0,1.56,0,2.34c-0.42,0-0.84,0-1.26,0
			c-0.181,0-0.36,0-0.54,0c-0.181,0-0.36,0-0.54,0c-0.36,0-0.721,0-1.08,0c-0.181,0-0.36,0-0.54,0c-0.12,0-0.24,0-0.36,0
			c-0.06,0-0.12,0-0.18,0c-0.061,0-0.12,0-0.18,0c0,0.18,0,0.36,0,0.54s0,0.36,0,0.54c0,0.12,0,0.24,0,0.36c0,0.18,0,0.359,0,0.54
			c0,0.12,0,0.239,0,0.359c0,0.601,0,1.2,0,1.801c0,0.18,0,0.359,0,0.539c0.42,0,0.84,0,1.26,0c0.18,0,0.359,0,0.54,0
			c0.18,0,0.359,0,0.54,0c0.239,0,0.479,0,0.72,0c0.18,0,0.36,0,0.54,0s0.36,0,0.54,0s0.36,0,0.54,0c0,0.24,0,0.48,0,0.721
			c0,0.18,0,0.359,0,0.54c0,0.359,0,0.72,0,1.08c0,0.359,0,0.72,0,1.08c0,0.18,0,0.359,0,0.54c0,0.239,0,0.479,0,0.72
			c0.18,0,0.36,0,0.54,0s0.359,0,0.54,0c0.18,0,0.359,0,0.54,0c0.18,0,0.359,0,0.54,0c0.18,0,0.359,0,0.54,0c0.18,0,0.359,0,0.54,0
			c0.12,0,0.239,0,0.359,0c0.181,0,0.36,0,0.54,0c0.181,0,0.36,0,0.54,0c0,0.42,0,0.84,0,1.26c0,0.18,0,0.36,0,0.54s0,0.36,0,0.54
			c0,0.42,0,0.84,0,1.26c0,0.36,0,0.72,0,1.08c0.78,0,1.561,0,2.34,0c0.78,0,1.561,0,2.341,0c0,0.18,0,0.36,0,0.54
			c0,0.12,0,0.24,0,0.36c0,0.3,0,0.6,0,0.899c0,0.301,0,0.601,0,0.9s0,0.6,0,0.9c0,0.3,0,0.6,0,0.899s0,0.601,0,0.9s0,0.6,0,0.899
			c0,0.301,0,0.601,0,0.9s0,0.6,0,0.9c0,0.3,0,0.6,0,0.899s0,0.601,0,0.9S80.17,104.71,80.17,105.01z"/>
		<path fill="#311531" d="M80.17,92.95c0,0.42,0,0.84,0,1.26c-0.78,0-1.561,0-2.341,0c-0.779,0-1.56,0-2.34,0c0-0.36,0-0.72,0-1.08
			c0-0.42,0-0.84,0-1.26c0-0.18,0-0.36,0-0.54s0-0.36,0-0.54c0-0.42,0-0.84,0-1.26c0.181,0,0.36,0,0.54,0s0.36,0,0.54,0
			c0.12,0,0.24,0,0.36,0c0.18,0,0.359,0,0.54,0c0.18,0,0.359,0,0.54,0c0.18,0,0.359,0,0.54,0c0.18,0,0.359,0,0.54,0
			c0.18,0,0.359,0,0.54,0c0.18,0,0.359,0,0.54,0c0,0.06,0,0.12,0,0.18c0,0.061,0,0.12,0,0.18c0,0.12,0,0.24,0,0.36
			c0,0.18,0,0.36,0,0.54s0,0.36,0,0.54s0,0.36,0,0.54s0,0.36,0,0.54S80.17,92.771,80.17,92.95z"/>
		<path fill="#311531" d="M80.17,74.95c0,0.18,0,0.36,0,0.54c-0.24,0-0.48,0-0.721,0c-0.18,0-0.359,0-0.54,0c-0.359,0-0.72,0-1.08,0
			c-0.779,0-1.56,0-2.34,0c0-0.78,0-1.561,0-2.34c0-0.78,0-1.561,0-2.34c0-0.36,0-0.721,0-1.08c0-0.42,0-0.841,0-1.261
			c0-0.359,0-0.72,0-1.08c0-0.42,0-0.84,0-1.26c0.72,0,1.44,0,2.16,0c0.18,0,0.36,0,0.54,0s0.36,0,0.54,0s0.36,0,0.54,0
			c0.12,0,0.24,0,0.36,0c0.18,0,0.359,0,0.54,0c0,1.44,0,2.88,0,4.32C80.17,71.95,80.17,73.45,80.17,74.95z"/>
		<path fill="#BA6A5B" d="M80.17,64.87c0,0.42,0,0.84,0,1.26c-0.181,0-0.36,0-0.54,0c-0.12,0-0.24,0-0.36,0c-0.18,0-0.36,0-0.54,0
			s-0.36,0-0.54,0s-0.36,0-0.54,0c-0.72,0-1.44,0-2.16,0c0-1.56,0-3.12,0-4.68c0.181,0,0.36,0,0.54,0c0.12,0,0.24,0,0.36,0
			c0.18,0,0.359,0,0.54,0c0.12,0,0.24,0,0.359,0c0.181,0,0.36,0,0.54,0c0.12,0,0.24,0,0.36,0c0.18,0,0.36,0,0.54,0
			c0.12,0,0.24,0,0.36,0c0.18,0,0.359,0,0.54,0c0.18,0,0.359,0,0.54,0c0,0.06,0,0.12,0,0.18c0,0.06,0,0.12,0,0.18
			c0,0.12,0,0.24,0,0.36c0,0.18,0,0.36,0,0.54c0,0.36,0,0.72,0,1.08c0,0.18,0,0.36,0,0.54S80.17,64.69,80.17,64.87z"/>
		<path fill="#BA6A5B" d="M80.17,46.69c0,0.18,0,0.36,0,0.54c-0.24,0-0.48,0-0.721,0c-0.18,0-0.359,0-0.54,0c-0.359,0-0.72,0-1.08,0
			c-0.779,0-1.56,0-2.34,0c0-0.36,0-0.72,0-1.08c0-0.42,0-0.84,0-1.26c0-0.36,0-0.72,0-1.08c0-0.42,0-0.84,0-1.26
			c0.181,0,0.36,0,0.54,0s0.36,0,0.54,0s0.36,0,0.54,0c0.24,0,0.48,0,0.72,0c0.181,0,0.36,0,0.54,0c0.181,0,0.36,0,0.54,0
			c0.42,0,0.84,0,1.261,0c0,0.12,0,0.24,0,0.36c0,0.18,0,0.36,0,0.54c0,0.36,0,0.72,0,1.08C80.17,45.25,80.17,45.97,80.17,46.69z"/>
		<path fill="#311531" d="M80.17,41.29c0,0.42,0,0.84,0,1.26c-0.421,0-0.841,0-1.261,0c-0.18,0-0.359,0-0.54,0
			c-0.18,0-0.359,0-0.54,0c-0.239,0-0.479,0-0.72,0c-0.18,0-0.36,0-0.54,0s-0.36,0-0.54,0s-0.359,0-0.54,0c0-0.36,0-0.72,0-1.08
			c0-0.42,0-0.84,0-1.26c0-0.36,0-0.72,0-1.08c0-0.42,0-0.84,0-1.26c0-0.36,0-0.72,0-1.08c0-0.42,0-0.84,0-1.26
			c0-0.36,0-0.72,0-1.08c0-0.42,0-0.84,0-1.26c0.36,0,0.72,0,1.08,0c0.18,0,0.36,0,0.54,0c0.24,0,0.48,0,0.72,0
			c0.181,0,0.36,0,0.54,0c0.181,0,0.36,0,0.54,0c0.42,0,0.84,0,1.261,0c0,0.18,0,0.36,0,0.54c0,0.18,0,0.36,0,0.54s0,0.36,0,0.54
			c0,0.24,0,0.48,0,0.72c0,0.18,0,0.36,0,0.54c0,0.18,0,0.36,0,0.54c0,0.18,0,0.36,0,0.54c0,0.24,0,0.48,0,0.72
			c0,0.18,0,0.36,0,0.54c0,0.18,0,0.36,0,0.54c0,0.18,0,0.36,0,0.54c0,0.24,0,0.48,0,0.72c0,0.18,0,0.36,0,0.54
			C80.17,40.93,80.17,41.11,80.17,41.29z"/>
		<path fill="#311531" d="M75.49,88.271c0,0.42,0,0.84,0,1.26c-0.18,0-0.359,0-0.54,0c-0.18,0-0.359,0-0.54,0
			c-0.12,0-0.239,0-0.359,0c-0.181,0-0.36,0-0.54,0c-0.181,0-0.36,0-0.54,0c-0.181,0-0.36,0-0.54,0c-0.181,0-0.36,0-0.54,0
			c-0.181,0-0.36,0-0.54,0s-0.36,0-0.54,0c0-0.24,0-0.48,0-0.72c0-0.181,0-0.36,0-0.54c0-0.36,0-0.721,0-1.08c0-0.36,0-0.721,0-1.08
			c0-0.181,0-0.36,0-0.54c0-0.24,0-0.48,0-0.721c1.38,0,2.76,0,4.14,0c0.181,0,0.36,0,0.54,0c0,0.24,0,0.48,0,0.721
			c0,0.18,0,0.359,0,0.54c0,0.359,0,0.72,0,1.08c0,0.18,0,0.359,0,0.54C75.49,87.91,75.49,88.09,75.49,88.271z"/>
		<path fill="#311531" d="M75.49,79.63c0,0.181,0,0.36,0,0.54c-0.06,0-0.12,0-0.18,0c-0.061,0-0.12,0-0.18,0c-0.12,0-0.24,0-0.36,0
			c-0.18,0-0.36,0-0.54,0s-0.36,0-0.54,0s-0.36,0-0.54,0s-0.36,0-0.54,0s-0.36,0-0.54,0c-0.42,0-0.84,0-1.26,0c0-0.78,0-1.56,0-2.34
			s0-1.56,0-2.34c0.78,0,1.56,0,2.34,0s1.56,0,2.34,0c0,0.12,0,0.24,0,0.359c0,0.181,0,0.36,0,0.54c0,0.36,0,0.721,0,1.08
			c0,0.181,0,0.36,0,0.54c0,0.181,0,0.36,0,0.54C75.49,78.91,75.49,79.271,75.49,79.63z"/>
		<path fill="#BA6A5B" d="M75.49,73.15c0,0.779,0,1.56,0,2.34c-0.78,0-1.56,0-2.34,0s-1.56,0-2.34,0c0-0.12,0-0.24,0-0.36
			c0-0.18,0-0.359,0-0.54c0-0.359,0-0.72,0-1.08c0-0.72,0-1.439,0-2.16c0-0.18,0-0.359,0-0.539c0.24,0,0.479,0,0.72,0
			c0.18,0,0.36,0,0.54,0c0.36,0,0.72,0,1.08,0s0.72,0,1.08,0c0.18,0,0.36,0,0.54,0c0.24,0,0.479,0,0.72,0
			C75.49,71.59,75.49,72.37,75.49,73.15z"/>
		<path fill="#FDFEFF" d="M75.49,69.73c0,0.359,0,0.72,0,1.08c-0.24,0-0.479,0-0.72,0c-0.18,0-0.36,0-0.54,0c-0.36,0-0.72,0-1.08,0
			s-0.72,0-1.08,0c-0.18,0-0.36,0-0.54,0c-0.24,0-0.479,0-0.72,0c0,0.18,0,0.359,0,0.539c0,0.721,0,1.44,0,2.16
			c0,0.36,0,0.721,0,1.08c0,0.181,0,0.36,0,0.54c0,0.12,0,0.24,0,0.36c-0.18,0-0.36,0-0.54,0c-0.12,0-0.24,0-0.36,0
			c-0.18,0-0.359,0-0.54,0c-0.12,0-0.239,0-0.359,0c-0.601,0-1.2,0-1.801,0c-1.199,0-2.399,0-3.6,0s-2.4,0-3.6,0
			c-0.181,0-0.36,0-0.54,0c-0.12,0-0.24,0-0.36,0c-0.18,0-0.36,0-0.54,0c-0.12,0-0.24,0-0.36,0c-0.18,0-0.359,0-0.539,0
			c-0.12,0-0.24,0-0.36,0c-0.24,0-0.48,0-0.72,0c-1.2,0-2.4,0-3.601,0c-0.3,0-0.6,0-0.899,0c-0.301,0-0.601,0-0.9,0s-0.6,0-0.9,0
			c-0.239,0-0.479,0-0.72,0c-1.2,0-2.399,0-3.6,0c-1.141,0-2.28,0-3.42,0c0-0.42,0-0.84,0-1.26c0-0.181,0-0.36,0-0.54
			c0-0.181,0-0.36,0-0.54c0-0.181,0-0.36,0-0.54c0-0.181,0-0.36,0-0.54c0-0.181,0-0.36,0-0.54c0-0.12,0-0.24,0-0.36
			c0-0.06,0-0.12,0-0.18c0-0.061,0-0.12,0-0.18c-0.18,0-0.36,0-0.54,0c-0.72,0-1.44,0-2.16,0c-0.36,0-0.72,0-1.08,0
			c-0.18,0-0.36,0-0.54,0c-0.12,0-0.24,0-0.36,0c-0.36,0-0.72,0-1.08,0c-0.42,0-0.84,0-1.26,0c-0.36,0-0.72,0-1.08,0
			c-0.18,0-0.36,0-0.54,0c-0.24,0-0.48,0-0.72,0c0-0.36,0-0.721,0-1.08c0-0.181,0-0.36,0-0.54c0-0.24,0-0.48,0-0.721
			c0-0.18,0-0.359,0-0.54c0-0.18,0-0.359,0-0.54c0-0.18,0-0.359,0-0.54c0-0.239,0-0.479,0-0.72c0-0.18,0-0.359,0-0.54
			c0-0.18,0-0.36,0-0.54c0-0.18,0-0.36,0-0.54c0-0.24,0-0.48,0-0.72c0-0.18,0-0.36,0-0.54c0-0.18,0-0.36,0-0.54
			c0-0.09,0-0.17,0-0.26c0.42,0,0.84,0,1.26,0c0.36,0,0.72,0,1.08,0c0.42,0,0.84,0,1.26,0c0.36,0,0.72,0,1.08,0
			c0,1.23,0,2.45,0,3.68c0,0.33,0,0.67,0,1c0.18,0,0.36,0,0.54,0c0.12,0,0.24,0,0.36,0c0.18,0,0.36,0,0.54,0c0.12,0,0.24,0,0.36,0
			c0.18,0,0.36,0,0.54,0c0.12,0,0.24,0,0.36,0c0.18,0,0.36,0,0.54,0c0.12,0,0.24,0,0.36,0c1.14,0,2.28,0,3.42,0
			c0.18,0,0.359,0,0.54,0c0.12,0,0.24,0,0.359,0c0.181,0,0.36,0,0.54,0c0.12,0,0.24,0,0.36,0c0.6,0,1.2,0,1.8,0
			c1.141,0,2.28,0,3.42,0c0-0.33,0-0.67,0-1c0-1.18,0-2.36,0-3.54c0-0.05,0-0.09,0-0.14c1.561,0,3.12,0,4.681,0c0-0.33,0-0.67,0-1
			c0-2.34,0-4.68,0-7.02c0-2.28,0-4.56,0-6.84c0-0.12,0-0.24,0-0.36c-1.561,0-3.12,0-4.681,0c0-0.24,0-0.48,0-0.72
			c0-0.18,0-0.36,0-0.54c0-0.18,0-0.36,0-0.54c0-0.18,0-0.36,0-0.54c0-0.36,0-0.72,0-1.08c0-0.09,0-0.17,0-0.26
			c0-0.09,0-0.19,0-0.28c0-0.12,0-0.24,0-0.36c0-0.06,0-0.12,0-0.18s0-0.12,0-0.18c-0.18,0-0.359,0-0.54,0c-0.3,0-0.6,0-0.899,0
			s-0.601,0-0.9,0c-0.12,0-0.24,0-0.36,0c-0.3,0-0.6,0-0.899,0c-0.601,0-1.2,0-1.8,0c-0.54,0-1.08,0-1.62,0c-0.181,0-0.36,0-0.54,0
			c-0.12,0-0.24,0-0.36,0c-0.18,0-0.359,0-0.54,0c-0.12,0-0.24,0-0.36,0c-0.18,0-0.36,0-0.54,0c-0.12,0-0.24,0-0.36,0
			c-0.18,0-0.36,0-0.54,0c-0.12,0-0.24,0-0.36,0c-1.14,0-2.28,0-3.42,0c0,0.33,0,0.67,0,1c0,0.09,0,0.17,0,0.26
			c0,0.36,0,0.72,0,1.08c0,0.42,0,0.84,0,1.26c0,0.36,0,0.72,0,1.08c-0.78,0-1.56,0-2.34,0c-0.36,0-0.72,0-1.08,0
			c-0.18,0-0.36,0-0.54,0c-0.24,0-0.48,0-0.72,0c0,0.33,0,0.67,0,1c0,2.07,0,4.13,0,6.2c0,2.34,0,4.68,0,7.02c-0.36,0-0.72,0-1.08,0
			c-0.42,0-0.84,0-1.26,0c-0.36,0-0.72,0-1.08,0c-0.42,0-0.84,0-1.26,0c0-1.5,0-3,0-4.5c0-1.56,0-3.12,0-4.68c0-1.5,0-3,0-4.5
			c0-0.36,0-0.72,0-1.08c0-0.42,0-0.84,0-1.26c0-0.36,0-0.72,0-1.08c0-0.18,0-0.36,0-0.54c0-0.24,0-0.48,0-0.72
			c0-0.18,0-0.36,0-0.54c0.06,0,0.12,0,0.18,0s0.12,0,0.18,0c0.12,0,0.24,0,0.36,0c0.18,0,0.36,0,0.54,0c0.18,0,0.36,0,0.54,0
			c0.18,0,0.36,0,0.54,0c0.18,0,0.36,0,0.54,0c0.18,0,0.36,0,0.54,0c0.42,0,0.84,0,1.26,0c0-0.18,0-0.36,0-0.54
			c0-0.12,0-0.24,0-0.36c0-0.18,0-0.36,0-0.54c0-0.12,0-0.24,0-0.36c0-0.18,0-0.36,0-0.54c0-0.12,0-0.24,0-0.36
			c0-0.18,0-0.36,0-0.54c0-0.12,0-0.24,0-0.36c0-0.18,0-0.36,0-0.54c0-0.18,0-0.36,0-0.54c0.24,0,0.48,0,0.72,0
			c0.18,0,0.36,0,0.54,0c0.36,0,0.72,0,1.08,0c0.78,0,1.56,0,2.34,0c0-0.36,0-0.72,0-1.08c0-0.42,0-0.84,0-1.26
			c0-0.36,0-0.72,0-1.08c0-0.42,0-0.84,0-1.26c1.14,0,2.28,0,3.42,0c0.6,0,1.2,0,1.8,0c0.12,0,0.24,0,0.36,0c0.181,0,0.36,0,0.54,0
			c0.12,0,0.24,0,0.36,0c0.18,0,0.359,0,0.54,0c2.34,0,4.68,0,7.02,0s4.681,0,7.021,0c1.2,0,2.399,0,3.6,0c0.601,0,1.2,0,1.8,0
			c0.12,0,0.24,0,0.36,0c0.18,0,0.36,0,0.54,0c0.12,0,0.24,0,0.36,0c0.18,0,0.359,0,0.54,0c0,0.36,0,0.72,0,1.08
			c0,0.18,0,0.36,0,0.54c0,0.24,0,0.48,0,0.72c0,0.18,0,0.36,0,0.54c0,0.18,0,0.36,0,0.54c0,0.42,0,0.84,0,1.26
			c0.359,0,0.72,0,1.079,0c0.421,0,0.841,0,1.261,0c0.359,0,0.72,0,1.08,0c0.42,0,0.84,0,1.26,0c0,0.78,0,1.56,0,2.34
			c0,0.78,0,1.56,0,2.34c-1.38,0-2.76,0-4.14,0c-0.181,0-0.36,0-0.54,0c0,0.42,0,0.84,0,1.26c0,0.18,0,0.36,0,0.54s0,0.36,0,0.54
			c0,0.24,0,0.48,0,0.72c0,0.18,0,0.36,0,0.54c0,0.36,0,0.72,0,1.08c-1.561,0-3.12,0-4.681,0c0,2.34,0,4.68,0,7.02
			c0,2.28,0,4.56,0,6.84c0,0.12,0,0.24,0,0.36c1.561,0,3.12,0,4.681,0c0,1.56,0,3.12,0,4.68c0.18,0,0.359,0,0.54,0c1.5,0,3,0,4.5,0
			c1.439,0,2.88,0,4.319,0c0,0.42,0,0.84,0,1.26c0,0.36,0,0.721,0,1.08C75.49,68.89,75.49,69.311,75.49,69.73z"/>
		<path fill="#311531" d="M75.49,61.45c0,1.56,0,3.12,0,4.68c-1.439,0-2.88,0-4.319,0c-1.5,0-3,0-4.5,0c-0.181,0-0.36,0-0.54,0
			c0-1.56,0-3.12,0-4.68c-1.561,0-3.12,0-4.681,0c0-0.12,0-0.24,0-0.36c0-2.28,0-4.56,0-6.84c0-2.34,0-4.68,0-7.02
			c1.561,0,3.12,0,4.681,0c0-0.36,0-0.72,0-1.08c0-0.18,0-0.36,0-0.54c0-0.24,0-0.48,0-0.72c0-0.18,0-0.36,0-0.54s0-0.36,0-0.54
			c0-0.42,0-0.84,0-1.26c0.18,0,0.359,0,0.54,0c1.38,0,2.76,0,4.14,0c0.18,0,0.36,0,0.54,0s0.359,0,0.54,0c0.18,0,0.359,0,0.54,0
			c0.24,0,0.479,0,0.72,0c0.18,0,0.36,0,0.54,0s0.36,0,0.54,0c0.42,0,0.84,0,1.26,0c0,0.42,0,0.84,0,1.26c0,0.36,0,0.72,0,1.08
			c0,0.42,0,0.84,0,1.26c0,0.36,0,0.72,0,1.08c-0.42,0-0.84,0-1.26,0c-0.36,0-0.72,0-1.08,0s-0.72,0-1.08,0c-0.18,0-0.36,0-0.54,0
			c-0.24,0-0.479,0-0.72,0c0,0.18,0,0.36,0,0.54c0,1.38,0,2.76,0,4.14s0,2.76,0,4.14c0,0.04,0,0.24,0,0.54c0,1.18,0,3.86,0,4h4.68
			V61.45z"/>
		<path fill="#FDFEFF" d="M75.49,56.59c0,1.66,0,3.27,0,4h-4.68c0-0.14,0-2.82,0-4c0.78,0,1.56,0,2.34,0S74.709,56.59,75.49,56.59z"
			/>
		<path fill="#FDFEFF" d="M75.49,51.91c0,0.83,0,2.79,0,4.68c-0.78,0-1.56,0-2.34,0s-1.56,0-2.34,0c0-0.3,0-0.5,0-0.54
			c0-1.38,0-2.76,0-4.14s0-2.76,0-4.14c0-0.18,0-0.36,0-0.54c0.24,0,0.479,0,0.72,0c0.18,0,0.36,0,0.54,0c0.36,0,0.72,0,1.08,0
			s0.72,0,1.08,0c0.42,0,0.84,0,1.26,0C75.49,48.79,75.49,50.35,75.49,51.91z"/>
		<path fill="#BA6A5B" d="M75.49,41.47c0,0.36,0,0.72,0,1.08c-0.42,0-0.84,0-1.26,0c-0.18,0-0.36,0-0.54,0s-0.36,0-0.54,0
			c-0.24,0-0.479,0-0.72,0c-0.181,0-0.36,0-0.54,0c-0.181,0-0.36,0-0.54,0s-0.36,0-0.54,0c0-0.78,0-1.56,0-2.34
			c0-0.78,0-1.56,0-2.34c-0.42,0-0.84,0-1.26,0c-0.36,0-0.721,0-1.08,0c-0.42,0-0.84,0-1.261,0c-0.359,0-0.72,0-1.079,0
			c0-0.42,0-0.84,0-1.26c0-0.18,0-0.36,0-0.54c0-0.18,0-0.36,0-0.54c0-0.24,0-0.48,0-0.72c0-0.18,0-0.36,0-0.54
			c0-0.36,0-0.72,0-1.08c0-0.42,0-0.84,0-1.26c0-0.18,0-0.36,0-0.54s0-0.36,0-0.54c0-0.24,0-0.48,0-0.72c0-0.18,0-0.36,0-0.54
			c0-0.36,0-0.72,0-1.08c-1.561,0-3.12,0-4.681,0c0-0.78,0-1.56,0-2.34c0-0.36,0-0.72,0-1.08c0-0.3,0-0.6,0-0.9
			c0-0.06,0-0.12,0-0.18s0-0.12,0-0.18c-0.18,0-0.359,0-0.54,0c-2.819,0-5.64,0-8.46,0c-0.18,0-0.359,0-0.54,0c0-0.78,0-1.56,0-2.34
			c0-0.42,0-0.84,0-1.26c0-0.18,0-0.36,0-0.54c0-0.12,0-0.24,0-0.36c0-0.06,0-0.12,0-0.18s0-0.12,0-0.18c-0.18,0-0.359,0-0.54,0
			c-1.5,0-3,0-4.5,0c-0.72,0-1.439,0-2.16,0c-0.359,0-0.72,0-1.079,0c-0.181,0-0.36,0-0.541,0c-0.18,0-0.36,0-0.54,0
			c0-0.42,0-0.84,0-1.26c0-0.18,0-0.36,0-0.54c0-0.18,0-0.36,0-0.54c0-0.24,0-0.48,0-0.72c0-0.18,0-0.36,0-0.54s0-0.36,0-0.54
			s0-0.36,0-0.54c0.18,0,0.36,0,0.54,0c0.18,0,0.36,0,0.541,0c0.18,0,0.359,0,0.54,0c0.239,0,0.479,0,0.72,0c0.18,0,0.359,0,0.54,0
			c0.18,0,0.359,0,0.54,0c0.42,0,0.84,0,1.26,0c0-0.72,0-1.44,0-2.16c0-0.36,0-0.72,0-1.08c0-0.18,0-0.36,0-0.54
			c0-0.24,0-0.48,0-0.72c0-0.06,0-0.12,0-0.18c1.5,0,3,0,4.5,0c0.78,0,1.56,0,2.34,0c0.36,0,0.72,0,1.08,0c0.18,0,0.36,0,0.54,0
			c0.12,0,0.24,0,0.36,0c0.18,0,0.359,0,0.54,0c0,0.78,0,1.56,0,2.34c0,0.36,0,0.72,0,1.08c0,0.18,0,0.36,0,0.54
			c0,0.24,0,0.48,0,0.72c0.18,0,0.359,0,0.54,0c3,0,6,0,9,0c0,1.62,0,3.24,0,4.86c0,1.56,0,3.12,0,4.68c0.779,0,1.56,0,2.34,0
			c0.779,0,1.56,0,2.34,0c0,1.56,0,3.12,0,4.68c0,0.42,0,0.84,0,1.26c0,0.36,0,0.72,0,1.08c0,0.42,0,0.84,0,1.26
			c0,0.36,0,0.72,0,1.08c0.42,0,0.84,0,1.26,0c0.18,0,0.36,0,0.54,0s0.36,0,0.54,0c0.24,0,0.48,0,0.72,0c0.181,0,0.36,0,0.54,0
			c0.36,0,0.721,0,1.08,0c0,0.42,0,0.84,0,1.26c0,0.36,0,0.72,0,1.08c0,0.42,0,0.84,0,1.26c0,0.36,0,0.72,0,1.08
			c0,0.42,0,0.84,0,1.26c0,0.36,0,0.72,0,1.08C75.49,40.63,75.49,41.05,75.49,41.47z"/>
		<path fill="#311531" d="M75.49,28.51c0,1.56,0,3.12,0,4.68c-0.359,0-0.72,0-1.08,0c-0.18,0-0.359,0-0.54,0
			c-0.239,0-0.479,0-0.72,0c-0.18,0-0.36,0-0.54,0s-0.36,0-0.54,0c-0.42,0-0.84,0-1.26,0c0-0.36,0-0.72,0-1.08c0-0.42,0-0.84,0-1.26
			c0-0.36,0-0.72,0-1.08c0-0.42,0-0.84,0-1.26c0-1.56,0-3.12,0-4.68c0.78,0,1.56,0,2.34,0s1.56,0,2.34,0c0,0.78,0,1.56,0,2.34
			c0,0.36,0,0.72,0,1.08C75.49,27.67,75.49,28.09,75.49,28.51z"/>
		<path fill="#311531" d="M70.81,84.13c0,0.24,0,0.48,0,0.72c-0.18,0-0.36,0-0.54,0s-0.36,0-0.54,0s-0.36,0-0.54,0
			c-0.24,0-0.48,0-0.72,0c-0.181,0-0.36,0-0.54,0c-0.181,0-0.36,0-0.54,0c-0.42,0-0.84,0-1.26,0c0-0.18,0-0.359,0-0.539
			c0-0.601,0-1.2,0-1.801c0-0.12,0-0.239,0-0.359c0-0.181,0-0.36,0-0.54c0-0.12,0-0.24,0-0.36c0-0.18,0-0.36,0-0.54s0-0.36,0-0.54
			c0.06,0,0.119,0,0.18,0c0.06,0,0.12,0,0.18,0c0.12,0,0.24,0,0.36,0c0.18,0,0.359,0,0.54,0c0.359,0,0.72,0,1.08,0
			c0.18,0,0.359,0,0.54,0c0.18,0,0.359,0,0.54,0c0.42,0,0.84,0,1.26,0c0,0.18,0,0.36,0,0.54s0,0.36,0,0.54c0,0.42,0,0.84,0,1.26
			c0,0.181,0,0.36,0,0.54c0,0.181,0,0.36,0,0.54C70.81,83.771,70.81,83.95,70.81,84.13z"/>
		<path fill="#311531" d="M70.81,18.97c0,1.62,0,3.24,0,4.86c-0.78,0-1.561,0-2.34,0c-0.78,0-1.561,0-2.34,0c0-1.56,0-3.12,0-4.68
			c0-1.62,0-3.24,0-4.86c0.359,0,0.72,0,1.079,0c0.181,0,0.36,0,0.54,0c0.24,0,0.48,0,0.721,0c0.18,0,0.359,0,0.54,0
			c0.18,0,0.359,0,0.54,0c0.42,0,0.84,0,1.26,0c0,0.36,0,0.72,0,1.08c0,0.42,0,0.84,0,1.26C70.81,17.41,70.81,18.19,70.81,18.97z"/>
		<path fill="#311531" d="M66.13,129.49c0,2.399,0,4.8,0,7.2c-1.561,0-3.12,0-4.681,0c0-2.341,0-4.681,0-7.021c0-1.2,0-2.399,0-3.6
			c0-0.12,0-0.24,0-0.36c0-0.18,0-0.36,0-0.54c0-0.12,0-0.24,0-0.359c0-0.181,0-0.36,0-0.54c0-0.12,0-0.24,0-0.36
			c0-0.18,0-0.36,0-0.54c0-0.12,0-0.24,0-0.36c0-0.18,0-0.359,0-0.54c1.561,0,3.12,0,4.681,0
			C66.13,124.811,66.13,127.15,66.13,129.49z"/>
		<path fill="#BA6A5B" d="M66.13,115.45c0,2.34,0,4.68,0,7.02c-1.561,0-3.12,0-4.681,0c0,0.181,0,0.36,0,0.54c0,0.12,0,0.24,0,0.36
			c0,0.18,0,0.36,0,0.54c0,0.12,0,0.24,0,0.36c0,0.18,0,0.359,0,0.54c0,0.119,0,0.239,0,0.359c0,0.18,0,0.36,0,0.54
			c0,0.12,0,0.24,0,0.36c0,1.2,0,2.399,0,3.6c0,2.34,0,4.68,0,7.021c-0.18,0-0.359,0-0.54,0c-0.12,0-0.239,0-0.359,0
			c-0.181,0-0.36,0-0.54,0c-0.12,0-0.24,0-0.36,0c-0.6,0-1.2,0-1.8,0c-1.2,0-2.4,0-3.601,0c-2.34,0-4.68,0-7.02,0
			c0-6.301,0-12.601,0-18.9c1.56,0,3.12,0,4.68,0c1.561,0,3.12,0,4.681,0c0-1.56,0-3.12,0-4.68c0.779,0,1.56,0,2.34,0
			c0.84,0,1.68,0,2.52,0c0-1.561,0-3.12,0-4.681c1.561,0,3.12,0,4.681,0C66.13,110.771,66.13,113.11,66.13,115.45z"/>
		<path fill="#FDFEFF" d="M66.13,103.75c0,1.561,0,3.12,0,4.68c-1.561,0-3.12,0-4.681,0c0,1.561,0,3.12,0,4.681
			c-0.84,0-1.68,0-2.52,0c-0.78,0-1.561,0-2.34,0c-2.341,0-4.681,0-7.021,0s-4.68,0-7.02,0c0-0.42,0-0.84,0-1.261
			c0-0.18,0-0.359,0-0.539c0-0.181,0-0.36,0-0.54c0-0.181,0-0.36,0-0.54c0-0.181,0-0.36,0-0.54c0-0.181,0-0.36,0-0.54
			c0-0.12,0-0.24,0-0.36c0-0.06,0-0.12,0-0.18c0-0.061,0-0.12,0-0.181c-0.18,0-0.36,0-0.54,0c-0.18,0-0.36,0-0.54,0
			c-0.12,0-0.24,0-0.36,0c-0.18,0-0.36,0-0.54,0c-0.12,0-0.24,0-0.36,0c-0.6,0-1.2,0-1.8,0c-0.18,0-0.36,0-0.54,0
			c0-1.199,0-2.399,0-3.6s0-2.4,0-3.6c0-1.2,0-2.4,0-3.601c0-1.14,0-2.28,0-3.42c0.78,0,1.56,0,2.34,0s1.56,0,2.34,0
			c0-0.18,0-0.36,0-0.54c0-0.3,0-0.6,0-0.899c0-0.36,0-0.721,0-1.08c0-0.721,0-1.44,0-2.16c0-0.12,0-0.24,0-0.36
			c0-0.18,0-0.359,0-0.54c0-0.359,0-0.72,0-1.08c0-0.72,0-1.439,0-2.16c0-0.18,0-0.359,0-0.54c0.06,0,0.12,0,0.18,0s0.12,0,0.18,0
			c0.12,0,0.24,0,0.36,0c0.18,0,0.36,0,0.54,0s0.36,0,0.54,0s0.359,0,0.54,0c0.18,0,0.359,0,0.54,0c0.18,0,0.359,0,0.54,0
			c0.42,0,0.84,0,1.26,0c0-0.359,0-0.72,0-1.079c0-0.421,0-0.841,0-1.261c0-0.779,0-1.56,0-2.34c0.18,0,0.36,0,0.54,0s0.36,0,0.54,0
			s0.36,0,0.54,0c0.24,0,0.479,0,0.72,0c0.18,0,0.36,0,0.54,0s0.36,0,0.54,0s0.36,0,0.54,0c0.24,0,0.48,0,0.72,0
			c0.181,0,0.36,0,0.54,0c0.181,0,0.36,0,0.54,0c0.181,0,0.36,0,0.54,0c0.24,0,0.48,0,0.72,0c0.181,0,0.36,0,0.54,0
			c0.181,0,0.36,0,0.54,0c0.42,0,0.841,0,1.261,0c0.18,0,0.359,0,0.54,0c0.18,0,0.359,0,0.54,0c0.18,0,0.359,0,0.539,0
			c0.24,0,0.48,0,0.721,0c0.84,0,1.68,0,2.52,0c0,1.561,0,3.12,0,4.68c0,0.181,0,0.36,0,0.54c0,0.181,0,0.36,0,0.54
			c0,0.42,0,0.841,0,1.261c0,0.18,0,0.359,0,0.54c0,0.18,0,0.359,0,0.54c0,0.42,0,0.84,0,1.26c0.181,0,0.36,0,0.54,0
			c1.38,0,2.76,0,4.141,0c0,2.34,0,4.68,0,7.02C66.13,98.95,66.13,101.35,66.13,103.75z"/>
		<path fill="#D97761" d="M66.13,31.93c0,0.42,0,0.84,0,1.26c-0.181,0-0.36,0-0.54,0c-0.12,0-0.24,0-0.36,0c-0.18,0-0.36,0-0.54,0
			c-0.12,0-0.24,0-0.36,0c-0.6,0-1.199,0-1.8,0c-1.2,0-2.399,0-3.6,0c-2.34,0-4.681,0-7.021,0c0-0.36,0-0.72,0-1.08
			c0-0.42,0-0.84,0-1.26c0-0.36,0-0.72,0-1.08c0-0.18,0-0.36,0-0.54c0-0.24,0-0.48,0-0.72c-1.56,0-3.12,0-4.68,0
			c0-0.36,0-0.72,0-1.08c0-0.42,0-0.84,0-1.26c0-0.78,0-1.56,0-2.34c-1.14,0-2.28,0-3.42,0c-0.12,0-0.24,0-0.36,0
			c-0.18,0-0.36,0-0.54,0c-0.12,0-0.24,0-0.36,0c-0.18,0-0.36,0-0.54,0c-0.12,0-0.24,0-0.36,0c-0.18,0-0.36,0-0.54,0
			c-0.12,0-0.24,0-0.36,0c-0.18,0-0.36,0-0.54,0c-2.34,0-4.68,0-7.02,0c0-0.18,0-0.36,0-0.54s0-0.36,0-0.54c0-0.18,0-0.36,0-0.54
			c0-0.18,0-0.36,0-0.54c0-0.72,0-1.44,0-2.16c0-0.18,0-0.36,0-0.54c0.24,0,0.48,0,0.72,0c0.18,0,0.36,0,0.54,0
			c0.36,0,0.72,0,1.08,0c0.78,0,1.56,0,2.34,0c0.78,0,1.56,0,2.34,0s1.56,0,2.34,0c0.18,0,0.36,0,0.54,0c0.18,0,0.36,0,0.541,0
			c0.359,0,0.72,0,1.079,0c0.721,0,1.44,0,2.16,0c1.5,0,3,0,4.5,0c0.181,0,0.36,0,0.54,0c0,0.06,0,0.12,0,0.18s0,0.12,0,0.18
			c0,0.12,0,0.24,0,0.36c0,0.18,0,0.36,0,0.54c0,0.42,0,0.84,0,1.26c0,0.78,0,1.56,0,2.34c0.181,0,0.36,0,0.54,0
			c2.82,0,5.641,0,8.46,0c0.181,0,0.36,0,0.54,0c0,0.06,0,0.12,0,0.18s0,0.12,0,0.18c0,0.3,0,0.6,0,0.9c0,0.36,0,0.72,0,1.08
			c0,0.78,0,1.56,0,2.34c1.561,0,3.12,0,4.681,0c0,0.36,0,0.72,0,1.08c0,0.18,0,0.36,0,0.54c0,0.24,0,0.48,0,0.72
			c0,0.18,0,0.36,0,0.54S66.13,31.75,66.13,31.93z"/>
		<path fill="#311531" d="M66.13,13.03c0,0.42,0,0.84,0,1.26c-3,0-6,0-9,0c-0.181,0-0.36,0-0.54,0c0-0.24,0-0.48,0-0.72
			c0-0.18,0-0.36,0-0.54c0-0.36,0-0.72,0-1.08c0-0.78,0-1.56,0-2.34c1.5,0,3,0,4.5,0s3,0,4.5,0c0.18,0,0.359,0,0.54,0
			c0,0.24,0,0.48,0,0.72c0,0.18,0,0.36,0,0.54s0,0.36,0,0.54c0,0.18,0,0.36,0,0.54c0,0.18,0,0.36,0,0.54
			C66.13,12.67,66.13,12.85,66.13,13.03z"/>
		<path fill="#D97761" d="M56.59,113.11c0,1.56,0,3.12,0,4.68c-1.561,0-3.12,0-4.681,0c-1.56,0-3.12,0-4.68,0c-0.42,0-0.84,0-1.26,0
			c-0.181,0-0.36,0-0.54,0c-0.181,0-0.36,0-0.54,0c-0.24,0-0.48,0-0.72,0c-0.181,0-0.36,0-0.54,0c-0.181,0-0.36,0-0.541,0
			c-0.18,0-0.36,0-0.54,0c0-0.18,0-0.36,0-0.54s0-0.36,0-0.54s0-0.36,0-0.54c0-0.24,0-0.479,0-0.72c0-0.18,0-0.36,0-0.54
			s0-0.36,0-0.54c0-0.42,0-0.84,0-1.26c2.34,0,4.68,0,7.02,0S54.25,113.11,56.59,113.11z"/>
		<path fill="#D97761" d="M56.59,77.83c0,0.78,0,1.56,0,2.34c-0.42,0-0.841,0-1.261,0c-0.18,0-0.359,0-0.54,0
			c-0.18,0-0.359,0-0.54,0c-0.239,0-0.479,0-0.72,0c-0.18,0-0.359,0-0.54,0c-0.18,0-0.359,0-0.54,0c-0.18,0-0.359,0-0.54,0
			c-0.239,0-0.479,0-0.72,0c-0.18,0-0.36,0-0.54,0s-0.36,0-0.54,0s-0.36,0-0.54,0c-0.24,0-0.479,0-0.72,0c-0.18,0-0.36,0-0.54,0
			s-0.36,0-0.54,0s-0.36,0-0.54,0s-0.36,0-0.54,0s-0.36,0-0.54,0s-0.36,0-0.54,0c-0.24,0-0.479,0-0.72,0c-0.181,0-0.36,0-0.54,0
			s-0.36,0-0.54,0c-0.42,0-0.84,0-1.26,0c0-0.18,0-0.359,0-0.54c0-0.18,0-0.359,0-0.54c0-0.18,0-0.359,0-0.54
			c0-0.239,0-0.479,0-0.72c0-0.18,0-0.36,0-0.54s0-0.36,0-0.54c0-0.42,0-0.84,0-1.26c1.14,0,2.28,0,3.42,0c1.2,0,2.399,0,3.6,0
			c0.24,0,0.48,0,0.72,0c0.301,0,0.601,0,0.9,0s0.6,0,0.9,0c0.3,0,0.6,0,0.899,0c1.2,0,2.4,0,3.601,0
			C56.59,76.271,56.59,77.05,56.59,77.83z"/>
		<path fill="#311531" d="M56.59,61.45c0,0.33,0,0.67,0,1c-1.561,0-3.12,0-4.681,0c0-0.33,0-0.67,0-1
			C53.47,61.45,55.03,61.45,56.59,61.45z"/>
		<path fill="#311531" d="M56.59,54.43c0,2.34,0,4.68,0,7.02c-1.561,0-3.12,0-4.681,0c0-2.18,0-4.36,0-6.54c0-2.23,0-4.45,0-6.68
			c0-0.33,0-0.67,0-1c1.561,0,3.12,0,4.681,0c0,0.12,0,0.24,0,0.36C56.59,49.87,56.59,52.15,56.59,54.43z"/>
		<path fill="#311531" d="M56.59,7.27c0,0.78,0,1.56,0,2.34c-0.181,0-0.36,0-0.54,0c-0.12,0-0.24,0-0.36,0c-0.18,0-0.36,0-0.54,0
			c-0.36,0-0.72,0-1.08,0c-0.78,0-1.56,0-2.34,0c-1.5,0-3,0-4.5,0c0-0.36,0-0.72,0-1.08c0-0.42,0-0.84,0-1.26c0-0.78,0-1.56,0-2.34
			c0.18,0,0.36,0,0.54,0c1.38,0,2.76,0,4.14,0s2.761,0,4.141,0c0.18,0,0.359,0,0.54,0c0,0.24,0,0.48,0,0.72c0,0.18,0,0.36,0,0.54
			C56.59,6.55,56.59,6.91,56.59,7.27z"/>
		<path fill="#311531" d="M51.91,66.13c0,0.33,0,0.67,0,1c-1.14,0-2.279,0-3.42,0c-0.6,0-1.2,0-1.8,0c-0.12,0-0.24,0-0.36,0
			c-0.18,0-0.359,0-0.54,0c-0.119,0-0.239,0-0.359,0c-0.181,0-0.36,0-0.54,0c-1.141,0-2.28,0-3.42,0c-0.12,0-0.24,0-0.36,0
			c-0.18,0-0.36,0-0.54,0c-0.12,0-0.24,0-0.36,0c-0.18,0-0.36,0-0.54,0c-0.12,0-0.24,0-0.36,0c-0.18,0-0.36,0-0.54,0
			c-0.12,0-0.24,0-0.36,0c-0.18,0-0.36,0-0.54,0c0-0.33,0-0.67,0-1c0.18,0,0.36,0,0.54,0c0.12,0,0.24,0,0.36,0c0.18,0,0.36,0,0.54,0
			c0.12,0,0.24,0,0.36,0c0.18,0,0.36,0,0.54,0c0.12,0,0.24,0,0.36,0c0.18,0,0.36,0,0.54,0c0.12,0,0.24,0,0.36,0
			c1.14,0,2.28,0,3.42,0c0.18,0,0.359,0,0.54,0c0.12,0,0.24,0,0.359,0c0.181,0,0.36,0,0.54,0c0.12,0,0.24,0,0.36,0
			c0.6,0,1.2,0,1.8,0C49.63,66.13,50.77,66.13,51.91,66.13z"/>
		<path fill="#311531" d="M51.91,62.59c0,1.18,0,2.36,0,3.54c-1.14,0-2.279,0-3.42,0c-0.6,0-1.2,0-1.8,0c-0.12,0-0.24,0-0.36,0
			c-0.18,0-0.359,0-0.54,0c-0.119,0-0.239,0-0.359,0c-0.181,0-0.36,0-0.54,0c-1.141,0-2.28,0-3.42,0c-0.12,0-0.24,0-0.36,0
			c-0.18,0-0.36,0-0.54,0c-0.12,0-0.24,0-0.36,0c-0.18,0-0.36,0-0.54,0c-0.12,0-0.24,0-0.36,0c-0.18,0-0.36,0-0.54,0
			c-0.12,0-0.24,0-0.36,0c-0.18,0-0.36,0-0.54,0c0-1.23,0-2.45,0-3.68c0-0.33,0-0.67,0-1c-0.36,0-0.72,0-1.08,0
			c-0.42,0-0.84,0-1.26,0c-0.36,0-0.72,0-1.08,0c-0.42,0-0.84,0-1.26,0c0-2.34,0-4.68,0-7.02c0-2.07,0-4.13,0-6.2
			c0.24,0,0.48,0,0.72,0c0.18,0,0.36,0,0.54,0c0.36,0,0.72,0,1.08,0c0.78,0,1.56,0,2.34,0c0-0.33,0-0.67,0-1c0-0.36,0-0.72,0-1.08
			c0-0.42,0-0.84,0-1.26c0-0.36,0-0.72,0-1.08c0-0.09,0-0.17,0-0.26c1.14,0,2.28,0,3.42,0c0.12,0,0.24,0,0.36,0
			c0.18,0,0.36,0,0.54,0c0.12,0,0.24,0,0.36,0c0.18,0,0.36,0,0.54,0c0.12,0,0.24,0,0.36,0c0.181,0,0.36,0,0.54,0
			c0.12,0,0.24,0,0.36,0c0.18,0,0.359,0,0.54,0c0.54,0,1.08,0,1.62,0c0.6,0,1.199,0,1.8,0c0.3,0,0.6,0,0.899,0c0.12,0,0.24,0,0.36,0
			c0.3,0,0.601,0,0.9,0s0.6,0,0.899,0c0.181,0,0.36,0,0.54,0c0,0.09,0,0.17,0,0.26c0,0.36,0,0.72,0,1.08c0,0.18,0,0.36,0,0.54
			c0,0.18,0,0.36,0,0.54c0,0.18,0,0.36,0,0.54c0,0.24,0,0.48,0,0.72c-0.3,0-0.6,0-0.899,0c-0.181,0-0.36,0-0.54,0
			c-0.36,0-0.721,0-1.08,0c-0.78,0-1.561,0-2.34,0c-1.5,0-3,0-4.5,0c0,0.33,0,0.67,0,1c0,0.36,0,0.71,0,1.07c0,0.29,0,0.59,0,0.88
			c0,0.3,0,0.59,0,0.89c0,0.39,0,0.78,0,1.18c0,0.29,0,0.59,0,0.88c0,0.3,0,0.6,0,0.89c0,0.3,0,0.59,0,0.89c0,0.39,0,0.78,0,1.18
			c0,0.29,0,0.59,0,0.88c0,0.3,0,0.6,0,0.89c0,0.3,0,0.59,0,0.89c0,0.39,0,0.78,0,1.18c0,0.29,0,0.59,0,0.88c0,0.3,0,0.6,0,0.89
			c0,0.5,0,0.85,0,0.89H51.91z"/>
		<path fill="#FDFEFF" d="M51.91,62.45c0,0.05,0,0.09,0,0.14l-9.36-0.89c0-0.29,0-0.59,0-0.89c0-0.29,0-0.59,0-0.88
			c0-0.4,0-0.79,0-1.18c0-0.3,0-0.59,0-0.89c0-0.29,0-0.59,0-0.89c0-0.29,0-0.59,0-0.88c0-0.4,0-0.79,0-1.18c0-0.3,0-0.59,0-0.89
			c0-0.29,0-0.59,0-0.89c0-0.29,0-0.59,0-0.88c0-0.4,0-0.79,0-1.18c0-0.3,0-0.59,0-0.89c0-0.29,0-0.59,0-0.88c0-0.36,0-0.71,0-1.07
			c1.5,0,3,0,4.5,0c0.779,0,1.56,0,2.34,0c0.359,0,0.72,0,1.08,0c0.18,0,0.359,0,0.54,0c0.3,0,0.6,0,0.899,0c0,2.23,0,4.45,0,6.68
			c0,2.18,0,4.36,0,6.54C51.91,61.78,51.91,62.12,51.91,62.45z"/>
		<path fill="#FDFEFF" d="M51.91,47.23c0,0.33,0,0.67,0,1c-0.3,0-0.6,0-0.899,0c-0.181,0-0.36,0-0.54,0c-0.36,0-0.721,0-1.08,0
			c-0.78,0-1.561,0-2.34,0c-1.5,0-3,0-4.5,0c0-0.33,0-0.67,0-1c1.5,0,3,0,4.5,0c0.779,0,1.56,0,2.34,0c0.359,0,0.72,0,1.08,0
			c0.18,0,0.359,0,0.54,0C51.31,47.23,51.61,47.23,51.91,47.23z"/>
		<path fill="#E0B49C" d="M51.91,32.11c0,0.36,0,0.72,0,1.08c-2.34,0-4.68,0-7.02,0c-0.181,0-0.36,0-0.54,0c-0.12,0-0.24,0-0.36,0
			c-0.18,0-0.359,0-0.54,0c-0.12,0-0.24,0-0.36,0c-0.6,0-1.2,0-1.8,0c-1.14,0-2.28,0-3.42,0c0,0.42,0,0.84,0,1.26
			c0,0.36,0,0.72,0,1.08c0,0.42,0,0.84,0,1.26c0,0.36,0,0.72,0,1.08c-0.78,0-1.56,0-2.34,0c-0.36,0-0.72,0-1.08,0
			c-0.18,0-0.36,0-0.54,0c-0.24,0-0.48,0-0.72,0c0,0.18,0,0.36,0,0.54c0,0.18,0,0.36,0,0.54c0,0.12,0,0.24,0,0.36
			c0,0.18,0,0.36,0,0.54c0,0.12,0,0.24,0,0.36c0,0.18,0,0.36,0,0.54c0,0.12,0,0.24,0,0.36c0,0.18,0,0.36,0,0.54
			c0,0.12,0,0.24,0,0.36c0,0.18,0,0.36,0,0.54c-0.42,0-0.84,0-1.26,0c-0.18,0-0.36,0-0.54,0c-0.18,0-0.36,0-0.54,0
			c-0.18,0-0.36,0-0.54,0c-0.18,0-0.36,0-0.54,0c-0.18,0-0.36,0-0.54,0c-0.12,0-0.24,0-0.36,0c-0.06,0-0.12,0-0.18,0s-0.12,0-0.18,0
			c0,0.18,0,0.36,0,0.54c0,0.24,0,0.48,0,0.72c0,0.18,0,0.36,0,0.54c0,0.36,0,0.72,0,1.08c0,0.42,0,0.84,0,1.26
			c0,0.36,0,0.72,0,1.08c0,1.5,0,3,0,4.5c0,1.56,0,3.12,0,4.68c0,1.5,0,3,0,4.5c0.42,0,0.84,0,1.26,0c0.36,0,0.72,0,1.08,0
			c0.42,0,0.84,0,1.26,0c0.36,0,0.72,0,1.08,0c0,0.33,0,0.67,0,1c0,0.09,0,0.17,0,0.26c0,0.18,0,0.36,0,0.54c0,0.18,0,0.36,0,0.54
			c0,0.24,0,0.48,0,0.72c0,0.18,0,0.36,0,0.54c0,0.18,0,0.36,0,0.54c0,0.181,0,0.36,0,0.54c0,0.24,0,0.48,0,0.72
			c0,0.181,0,0.36,0,0.54c0,0.181,0,0.36,0,0.54c0,0.181,0,0.36,0,0.54c0,0.24,0,0.48,0,0.721c0,0.18,0,0.359,0,0.54
			c0,0.359,0,0.72,0,1.08c0.24,0,0.48,0,0.72,0c0.18,0,0.36,0,0.54,0c0.36,0,0.72,0,1.08,0c0.42,0,0.84,0,1.26,0
			c0.36,0,0.72,0,1.08,0c0,0.42,0,0.84,0,1.26c0,0.359,0,0.72,0,1.08c0,0.42,0,0.84,0,1.26c0,0.36,0,0.72,0,1.08
			c0.42,0,0.84,0,1.26,0c0.36,0,0.72,0,1.08,0c0.42,0,0.84,0,1.26,0c0.36,0,0.72,0,1.08,0c0,0.42,0,0.84,0,1.26
			c0,0.18,0,0.36,0,0.54s0,0.36,0,0.54c0,0.24,0,0.48,0,0.72c0,0.181,0,0.36,0,0.54c0,0.181,0,0.36,0,0.54c0,0.181,0,0.36,0,0.54
			c0.42,0,0.84,0,1.26,0c0.18,0,0.36,0,0.54,0s0.359,0,0.54,0c0.24,0,0.479,0,0.72,0c0.18,0,0.36,0,0.54,0s0.36,0,0.54,0
			s0.36,0,0.54,0c0,0.78,0,1.561,0,2.34c0,0.42,0,0.84,0,1.261c0,0.359,0,0.72,0,1.079c-0.42,0-0.84,0-1.26,0
			c-0.181,0-0.36,0-0.54,0c-0.181,0-0.36,0-0.54,0c-0.181,0-0.36,0-0.54,0s-0.36,0-0.54,0s-0.36,0-0.54,0c-0.12,0-0.24,0-0.36,0
			c-0.06,0-0.12,0-0.18,0s-0.12,0-0.18,0c0,0.181,0,0.36,0,0.54c0,0.721,0,1.44,0,2.16c0,0.36,0,0.721,0,1.08c0,0.181,0,0.36,0,0.54
			c0,0.12,0,0.24,0,0.36c0,0.72,0,1.439,0,2.16c0,0.359,0,0.72,0,1.08c0,0.3,0,0.6,0,0.899c0,0.18,0,0.36,0,0.54
			c-0.78,0-1.56,0-2.34,0s-1.56,0-2.34,0c0-0.78,0-1.56,0-2.34c0-0.42,0-0.84,0-1.26c0-0.181,0-0.36,0-0.54c0-0.181,0-0.36,0-0.54
			c0-0.36,0-0.72,0-1.08c0-0.18,0-0.36,0-0.54s0-0.36,0-0.54c0-0.36,0-0.72,0-1.08c0-0.18,0-0.36,0-0.54c0-0.12,0-0.24,0-0.36
			c0-0.18,0-0.359,0-0.54c-0.72,0-1.44,0-2.16,0c-0.36,0-0.72,0-1.08,0c-0.18,0-0.36,0-0.54,0c-0.12,0-0.24,0-0.36,0
			c-0.18,0-0.36,0-0.54,0c0,0.421,0,0.841,0,1.261c0,0.18,0,0.359,0,0.54c0,0.18,0,0.359,0,0.54c0,0.239,0,0.479,0,0.72
			c0,0.18,0,0.36,0,0.54s0,0.36,0,0.54s0,0.359,0,0.54c-0.42,0-0.84,0-1.26,0c-0.18,0-0.36,0-0.54,0c-0.18,0-0.36,0-0.54,0
			c-0.18,0-0.36,0-0.54,0c-0.18,0-0.36,0-0.54,0c-0.18,0-0.36,0-0.54,0c-0.12,0-0.24,0-0.36,0c-0.06,0-0.12,0-0.18,0s-0.12,0-0.18,0
			c0,0.18,0,0.359,0,0.54c0,1.38,0,2.76,0,4.14c-0.78,0-1.56,0-2.34,0c-0.36,0-0.72,0-1.08,0c-0.18,0-0.36,0-0.54,0
			c-0.24,0-0.48,0-0.72,0c0,0.18,0,0.36,0,0.54c0,1.5,0,3,0,4.5s0,3,0,4.5c-0.84,0-1.68,0-2.52,0c-0.78,0-1.56,0-2.34,0
			c0,1.561,0,3.12,0,4.68c-0.78,0-1.56,0-2.34,0c-0.42,0-0.84,0-1.26,0c-0.36,0-0.72,0-1.08,0c-0.78,0-1.56,0-2.34,0
			c-0.42,0-0.84,0-1.26,0c-0.18,0-0.36,0-0.54,0s-0.36,0-0.54,0c-0.42,0-0.84,0-1.26,0c-0.36,0-0.72,0-1.08,0c-0.42,0-0.84,0-1.26,0
			c-0.36,0-0.72,0-1.08,0c0-1.199,0-2.399,0-3.6s0-2.4,0-3.6c0-1.2,0-2.4,0-3.601c0-1.14,0-2.28,0-3.42c0.78,0,1.56,0,2.34,0
			c0.42,0,0.84,0,1.26,0c0.36,0,0.72,0,1.08,0c0-0.78,0-1.56,0-2.34c0-0.24,0-0.48,0-0.72c0-0.181,0-0.36,0-0.54
			c0-0.181,0-0.36,0-0.54c0-0.181,0-0.36,0-0.54c0.18,0,0.36,0,0.54,0s0.36,0,0.54,0s0.36,0,0.54,0s0.36,0,0.54,0
			c0.18,0,0.36,0,0.54,0c0.12,0,0.24,0,0.36,0c0.18,0,0.36,0,0.54,0s0.36,0,0.54,0s0.36,0,0.54,0c0-0.42,0-0.84,0-1.26
			c0-0.181,0-0.36,0-0.54c0-0.181,0-0.36,0-0.54c0-0.24,0-0.48,0-0.721c0-0.18,0-0.359,0-0.54c0-0.18,0-0.359,0-0.54
			c0-0.18,0-0.359,0-0.54c0.42,0,0.84,0,1.26,0c0.18,0,0.36,0,0.54,0c0.18,0,0.36,0,0.54,0s0.36,0,0.54,0s0.36,0,0.54,0
			s0.36,0,0.54,0c0.12,0,0.24,0,0.36,0c0.06,0,0.12,0,0.18,0s0.12,0,0.18,0c0-0.18,0-0.359,0-0.539c0-1.5,0-3,0-4.5
			c0-1.44,0-2.881,0-4.32c0-0.78,0-1.561,0-2.34c0-0.78,0-1.561,0-2.34c-0.78,0-1.56,0-2.34,0c-0.42,0-0.84,0-1.26,0
			c-0.36,0-0.72,0-1.08,0c0-0.421,0-0.841,0-1.261c0-0.18,0-0.359,0-0.54c0-0.18,0-0.359,0-0.54c0-0.239,0-0.479,0-0.72
			c0-0.18,0-0.36,0-0.54c0-0.36,0-0.72,0-1.08c0-1.56,0-3.12,0-4.68c-0.78,0-1.56,0-2.34,0c-0.42,0-0.84,0-1.26,0
			c-0.18,0-0.36,0-0.54,0s-0.36,0-0.54,0c0-3.18,0-6.36,0-9.54c0-1.56,0-3.12,0-4.68c0-0.24,0-0.48,0-0.72c0-0.18,0-0.36,0-0.54
			c0-0.18,0-0.36,0-0.54c0-0.18,0-0.36,0-0.54c0-0.24,0-0.48,0-0.72c0-0.18,0-0.36,0-0.54c0-0.18,0-0.36,0-0.54
			c0-0.18,0-0.36,0-0.54c0.42,0,0.84,0,1.26,0c0.18,0,0.36,0,0.54,0c0.18,0,0.36,0,0.54,0c0.18,0,0.36,0,0.54,0
			c0.18,0,0.36,0,0.54,0c0.18,0,0.36,0,0.54,0c0.12,0,0.24,0,0.36,0c0.06,0,0.12,0,0.18,0s0.12,0,0.18,0c0-0.18,0-0.36,0-0.54
			c0-0.72,0-1.44,0-2.16c0-0.36,0-0.72,0-1.08c0-0.18,0-0.36,0-0.54c0-0.12,0-0.24,0-0.36c0-0.42,0-0.84,0-1.26
			c0-0.18,0-0.36,0-0.54c0-0.18,0-0.36,0-0.54c0-0.24,0-0.48,0-0.72c0-0.18,0-0.36,0-0.54c0-0.36,0-0.72,0-1.08
			c0.42,0,0.84,0,1.26,0c0.18,0,0.36,0,0.54,0c0.18,0,0.36,0,0.54,0s0.36,0,0.54,0s0.36,0,0.54,0s0.36,0,0.54,0
			c0.24,0,0.48,0,0.72,0c0-0.18,0-0.36,0-0.54c0-0.72,0-1.44,0-2.16c0-0.36,0-0.72,0-1.08c0-0.18,0-0.36,0-0.54
			c0-0.12,0-0.24,0-0.36c0.24,0,0.48,0,0.72,0c0.18,0,0.36,0,0.54,0c0.36,0,0.72,0,1.08,0c0.42,0,0.84,0,1.26,0
			c0.36,0,0.72,0,1.08,0c0.06,0,0.12,0,0.18,0c0-0.18,0-0.36,0-0.54c0-1.2,0-2.4,0-3.6c0-0.18,0-0.36,0-0.54c-0.84,0-1.68,0-2.52,0
			c-0.78,0-1.56,0-2.34,0c-0.78,0-1.56,0-2.34,0c-0.42,0-0.84,0-1.26,0c-0.36,0-0.72,0-1.08,0c0-1.2,0-2.4,0-3.6
			c0-0.18,0-0.36,0-0.54c0-0.12,0-0.24,0-0.36c0-0.18,0-0.36,0-0.54c0-0.12,0-0.24,0-0.36c0-0.18,0-0.36,0-0.54
			c0-0.12,0-0.24,0-0.36c0-0.18,0-0.36,0-0.54c0-0.12,0-0.24,0-0.36c0-2.34,0-4.68,0-7.02c0.36,0,0.72,0,1.08,0
			c0.18,0,0.36,0,0.54,0c0.24,0,0.48,0,0.72,0c0.78,0,1.56,0,2.34,0c0-0.72,0-1.44,0-2.16c0-0.36,0-0.72,0-1.08
			c0-0.18,0-0.36,0-0.54c0-0.12,0-0.24,0-0.36c0-0.18,0-0.36,0-0.54c0.78,0,1.56,0,2.34,0c0.78,0,1.56,0,2.34,0
			c1.62,0,3.24,0,4.86,0c0,1.5,0,3,0,4.5c0,0.06,0,0.12,0,0.18c0.18,0,0.36,0,0.54,0c0.72,0,1.44,0,2.16,0c0.36,0,0.72,0,1.08,0
			c0.18,0,0.36,0,0.54,0c0.12,0,0.24,0,0.36,0c0,0.42,0,0.84,0,1.26c0,0.18,0,0.36,0,0.54c0,0.18,0,0.36,0,0.54
			c0,0.24,0,0.48,0,0.72c0,0.18,0,0.36,0,0.54c0,0.36,0,0.72,0,1.08c0.42,0,0.84,0,1.26,0c0.18,0,0.36,0,0.54,0
			c0.18,0,0.36,0,0.54,0c0.24,0,0.48,0,0.72,0c0.18,0,0.36,0,0.54,0c0.36,0,0.72,0,1.08,0c0,0.42,0,0.84,0,1.26
			c0,0.36,0,0.72,0,1.08c0,0.42,0,0.84,0,1.26c0,0.36,0,0.72,0,1.08c-0.78,0-1.56,0-2.34,0c-0.36,0-0.72,0-1.08,0
			c-0.18,0-0.36,0-0.54,0c-0.24,0-0.48,0-0.72,0c0,0.18,0,0.36,0,0.54c0,0.72,0,1.44,0,2.16c0,0.18,0,0.36,0,0.54
			c0,0.18,0,0.36,0,0.54c0,0.18,0,0.36,0,0.54s0,0.36,0,0.54c2.34,0,4.68,0,7.02,0c0.18,0,0.36,0,0.54,0c0.12,0,0.24,0,0.36,0
			c0.18,0,0.36,0,0.54,0c0.12,0,0.24,0,0.36,0c0.18,0,0.36,0,0.54,0c0.12,0,0.24,0,0.36,0c0.18,0,0.36,0,0.54,0
			c0.12,0,0.24,0,0.36,0c1.14,0,2.28,0,3.42,0c0,0.78,0,1.56,0,2.34c0,0.42,0,0.84,0,1.26c0,0.36,0,0.72,0,1.08
			c1.56,0,3.12,0,4.68,0c0,0.24,0,0.48,0,0.72c0,0.18,0,0.36,0,0.54c0,0.36,0,0.72,0,1.08C51.91,31.27,51.91,31.69,51.91,32.11z"/>
		<path fill="#FDFEFF" d="M51.91,62.59h-9.36c0-0.04,0-0.39,0-0.89L51.91,62.59z"/>
		<path fill="#311531" d="M47.23,117.79c0,6.3,0,12.6,0,18.9c-0.42,0-0.84,0-1.26,0c-0.181,0-0.36,0-0.54,0c-0.181,0-0.36,0-0.54,0
			c-0.24,0-0.48,0-0.72,0c-0.181,0-0.36,0-0.54,0c-0.181,0-0.36,0-0.541,0c-0.18,0-0.36,0-0.54,0c0-1.62,0-3.24,0-4.86
			c0-0.24,0-0.48,0-0.72c0-0.181,0-0.36,0-0.54c0-0.181,0-0.36,0-0.54c0-0.181,0-0.36,0-0.54c0-0.24,0-0.48,0-0.72
			c0-0.181,0-0.36,0-0.54c0-0.181,0-0.36,0-0.54c0-0.181,0-0.36,0-0.54c-0.24,0-0.48,0-0.72,0c-0.18,0-0.36,0-0.54,0
			c-0.18,0-0.36,0-0.54,0s-0.36,0-0.54,0c-0.24,0-0.48,0-0.72,0c-0.18,0-0.36,0-0.54,0c-0.18,0-0.36,0-0.54,0c-0.18,0-0.36,0-0.54,0
			c0-2.94,0-5.88,0-8.82c0-0.18,0-0.36,0-0.54c0.06,0,0.12,0,0.18,0s0.12,0,0.18,0c0.12,0,0.24,0,0.36,0c0.18,0,0.36,0,0.54,0
			c0.36,0,0.72,0,1.08,0c0.18,0,0.36,0,0.54,0s0.36,0,0.54,0c0.42,0,0.84,0,1.26,0c0.18,0,0.36,0,0.54,0c0.18,0,0.36,0,0.541,0
			c0.18,0,0.359,0,0.54,0c0.239,0,0.479,0,0.72,0c0.18,0,0.359,0,0.54,0c0.18,0,0.359,0,0.54,0
			C46.39,117.79,46.81,117.79,47.23,117.79z"/>
		<path fill="#311531" d="M47.23,12.13c0,0.72,0,1.44,0,2.16c-0.42,0-0.84,0-1.26,0c-0.181,0-0.36,0-0.54,0c-0.181,0-0.36,0-0.54,0
			c-0.24,0-0.48,0-0.72,0c-0.181,0-0.36,0-0.54,0c-0.181,0-0.36,0-0.541,0c-0.18,0-0.36,0-0.54,0c0-0.18,0-0.36,0-0.54
			c0-0.18,0-0.36,0-0.54c0-0.18,0-0.36,0-0.54c0-0.24,0-0.48,0-0.72c0-0.18,0-0.36,0-0.54c0-0.18,0-0.36,0-0.54
			c0-0.42,0-0.84,0-1.26c0.18,0,0.36,0,0.54,0c0.12,0,0.24,0,0.36,0c0.181,0,0.36,0,0.54,0c0.36,0,0.72,0,1.08,0
			c0.72,0,1.44,0,2.16,0c0,0.06,0,0.12,0,0.18c0,0.24,0,0.48,0,0.72c0,0.18,0,0.36,0,0.54C47.23,11.41,47.23,11.77,47.23,12.13z"/>
		<path fill="#E0B49C" d="M42.55,117.25c0,0.18,0,0.36,0,0.54c-0.42,0-0.84,0-1.26,0c-0.18,0-0.36,0-0.54,0s-0.36,0-0.54,0
			c-0.36,0-0.72,0-1.08,0c-0.18,0-0.36,0-0.54,0c-0.12,0-0.24,0-0.36,0c-0.06,0-0.12,0-0.18,0s-0.12,0-0.18,0c0,0.18,0,0.36,0,0.54
			c0,2.94,0,5.88,0,8.82c-0.24,0-0.48,0-0.72,0c-0.18,0-0.36,0-0.54,0c-0.18,0-0.36,0-0.54,0c-0.18,0-0.36,0-0.54,0
			c-0.18,0-0.36,0-0.54,0c-0.18,0-0.36,0-0.54,0c-0.18,0-0.36,0-0.54,0c-0.24,0-0.48,0-0.72,0c0,0.18,0,0.359,0,0.54
			c0,1.5,0,3,0,4.5s0,3,0,4.5c-2.4,0-4.8,0-7.2,0c-2.34,0-4.68,0-7.02,0c0-0.181,0-0.36,0-0.54c0-0.12,0-0.24,0-0.36
			c0-0.24,0-0.479,0-0.72c0-0.48,0-0.96,0-1.44c0-0.96,0-1.92,0-2.88c0-0.54,0-1.08,0-1.62c0-0.479,0-0.96,0-1.439
			c0-0.96,0-1.92,0-2.88c0-3.9,0-7.801,0-11.7c1.56,0,3.12,0,4.68,0c0.42,0,0.84,0,1.26,0c0.36,0,0.72,0,1.08,0
			c0.42,0,0.84,0,1.26,0c0.36,0,0.72,0,1.08,0c0.06,0,0.12,0,0.18,0c0-0.181,0-0.36,0-0.54c0-2.94,0-5.88,0-8.82
			c0.78,0,1.56,0,2.34,0c0.78,0,1.56,0,2.34,0c0-3.18,0-6.36,0-9.54c0.78,0,1.56,0,2.34,0c0.78,0,1.56,0,2.34,0
			c0,1.14,0,2.28,0,3.42c0,1.2,0,2.4,0,3.601c0,1.199,0,2.399,0,3.6s0,2.4,0,3.6c0.18,0,0.36,0,0.54,0c0.6,0,1.2,0,1.8,0
			c0.12,0,0.24,0,0.36,0c0.18,0,0.36,0,0.54,0c0.12,0,0.24,0,0.36,0c0.18,0,0.36,0,0.54,0c0.18,0,0.36,0,0.54,0
			c0,0.061,0,0.12,0,0.181c0,0.06,0,0.12,0,0.18c0,0.12,0,0.24,0,0.36c0,0.18,0,0.359,0,0.54c0,0.18,0,0.359,0,0.54
			c0,0.18,0,0.359,0,0.54c0,0.18,0,0.359,0,0.54c0,0.18,0,0.359,0,0.539c0,0.421,0,0.841,0,1.261s0,0.84,0,1.26
			c0,0.18,0,0.36,0,0.54s0,0.36,0,0.54c0,0.24,0,0.479,0,0.72c0,0.18,0,0.36,0,0.54S42.55,117.07,42.55,117.25z"/>
		<path fill="#D97761" d="M42.55,74.23c0,0.42,0,0.84,0,1.26c-0.36,0-0.72,0-1.08,0c-0.42,0-0.84,0-1.26,0c-0.36,0-0.72,0-1.08,0
			c-0.42,0-0.84,0-1.26,0c0-0.36,0-0.72,0-1.08c0-0.42,0-0.84,0-1.26c0-0.36,0-0.721,0-1.08c0-0.42,0-0.84,0-1.26
			c0.12,0,0.24,0,0.36,0c0.18,0,0.36,0,0.54,0c0.36,0,0.72,0,1.08,0c0.72,0,1.44,0,2.16,0c0.18,0,0.36,0,0.54,0
			c0,0.06,0,0.119,0,0.18c0,0.06,0,0.12,0,0.18c0,0.12,0,0.24,0,0.36c0,0.18,0,0.359,0,0.54c0,0.18,0,0.359,0,0.54
			c0,0.18,0,0.359,0,0.54c0,0.18,0,0.359,0,0.54C42.55,73.87,42.55,74.05,42.55,74.23z"/>
		<path fill="#311531" d="M42.55,17.71c0,0.42,0,0.84,0,1.26c-0.78,0-1.56,0-2.34,0s-1.56,0-2.34,0c0-0.36,0-0.72,0-1.08
			c0-0.42,0-0.84,0-1.26c0-0.36,0-0.72,0-1.08c0-0.42,0-0.84,0-1.26c0.18,0,0.36,0,0.54,0c0.18,0,0.36,0,0.54,0
			c0.18,0,0.36,0,0.54,0c0.24,0,0.48,0,0.72,0c0.18,0,0.36,0,0.54,0s0.36,0,0.54,0c0.42,0,0.84,0,1.26,0c0,0.18,0,0.36,0,0.54
			s0,0.36,0,0.54s0,0.36,0,0.54c0,0.24,0,0.48,0,0.72c0,0.18,0,0.36,0,0.54C42.55,17.35,42.55,17.53,42.55,17.71z"/>
		<path fill="#311531" d="M37.87,127.15c0,3.18,0,6.359,0,9.54c-0.78,0-1.56,0-2.34,0c-0.78,0-1.56,0-2.34,0c0-1.5,0-3,0-4.5
			s0-3,0-4.5c0-0.181,0-0.36,0-0.54c0.24,0,0.48,0,0.72,0c0.18,0,0.36,0,0.54,0c0.18,0,0.36,0,0.54,0c0.18,0,0.36,0,0.54,0
			c0.18,0,0.36,0,0.54,0c0.18,0,0.36,0,0.54,0c0.18,0,0.36,0,0.54,0C37.39,127.15,37.63,127.15,37.87,127.15z"/>
		<path fill="#D97761" d="M37.87,91.87c0,0.78,0,1.56,0,2.34c-0.78,0-1.56,0-2.34,0c-0.78,0-1.56,0-2.34,0c0-0.72,0-1.439,0-2.16
			c0-0.18,0-0.359,0-0.54c0-0.18,0-0.359,0-0.54c0-0.18,0-0.359,0-0.54c0-0.119,0-0.239,0-0.359c0-0.181,0-0.36,0-0.54
			c0.72,0,1.44,0,2.16,0c0.18,0,0.36,0,0.54,0c0.18,0,0.36,0,0.54,0c0.18,0,0.36,0,0.54,0c0.12,0,0.24,0,0.36,0
			c0.18,0,0.36,0,0.54,0c0,0.18,0,0.359,0,0.54c0,0.18,0,0.359,0,0.54C37.87,91.03,37.87,91.45,37.87,91.87z"/>
		<path fill="#BA6A5B" d="M37.87,88.45c0,0.36,0,0.72,0,1.08c-0.18,0-0.36,0-0.54,0c-0.12,0-0.24,0-0.36,0c-0.18,0-0.36,0-0.54,0
			c-0.18,0-0.36,0-0.54,0c-0.18,0-0.36,0-0.54,0c-0.72,0-1.44,0-2.16,0c0-0.181,0-0.36,0-0.54s0-0.36,0-0.54s0-0.36,0-0.54
			c0-0.24,0-0.48,0-0.72c0-0.181,0-0.36,0-0.54c0-0.181,0-0.36,0-0.54c0-0.42,0-0.84,0-1.261c0.18,0,0.36,0,0.54,0
			c0.12,0,0.24,0,0.36,0c0.18,0,0.36,0,0.54,0c0.36,0,0.72,0,1.08,0c0.72,0,1.44,0,2.16,0c0,0.181,0,0.36,0,0.54
			c0,0.12,0,0.24,0,0.36c0,0.18,0,0.36,0,0.54c0,0.36,0,0.72,0,1.08c0,0.18,0,0.36,0,0.54S37.87,88.271,37.87,88.45z"/>
		<path fill="#311531" d="M37.87,61.45c0,0.33,0,0.67,0,1c-0.36,0-0.72,0-1.08,0c-0.42,0-0.84,0-1.26,0c-0.36,0-0.72,0-1.08,0
			c-0.42,0-0.84,0-1.26,0c0-0.33,0-0.67,0-1c0.42,0,0.84,0,1.26,0c0.36,0,0.72,0,1.08,0c0.42,0,0.84,0,1.26,0
			C37.15,61.45,37.51,61.45,37.87,61.45z"/>
		<path fill="#311531" d="M37.87,13.21c0,0.36,0,0.72,0,1.08c-0.36,0-0.72,0-1.08,0c-0.18,0-0.36,0-0.54,0c-0.24,0-0.48,0-0.72,0
			c-0.18,0-0.36,0-0.54,0c-0.18,0-0.36,0-0.54,0c-0.42,0-0.84,0-1.26,0c0-0.36,0-0.72,0-1.08c0-0.18,0-0.36,0-0.54
			c0-0.24,0-0.48,0-0.72c0-0.18,0-0.36,0-0.54c0-0.18,0-0.36,0-0.54c0-0.42,0-0.84,0-1.26c0.78,0,1.56,0,2.34,0
			c0.78,0,1.56,0,2.34,0c0,0.18,0,0.36,0,0.54c0,0.12,0,0.24,0,0.36c0,0.18,0,0.36,0,0.54c0,0.36,0,0.72,0,1.08
			c0,0.18,0,0.36,0,0.54C37.87,12.85,37.87,13.03,37.87,13.21z"/>
		<path fill="#D97761" d="M33.19,94.21c0,3.18,0,6.36,0,9.54c-0.78,0-1.56,0-2.34,0c-0.78,0-1.56,0-2.34,0c0-3.18,0-6.36,0-9.54
			c0.78,0,1.56,0,2.34,0C31.63,94.21,32.41,94.21,33.19,94.21z"/>
		<path fill="#BA6A5B" d="M33.19,92.05c0,0.721,0,1.44,0,2.16c-0.78,0-1.56,0-2.34,0c-0.78,0-1.56,0-2.34,0c0-1.38,0-2.76,0-4.14
			c0-0.181,0-0.36,0-0.54c0.06,0,0.12,0,0.18,0s0.12,0,0.18,0c0.12,0,0.24,0,0.36,0c0.18,0,0.36,0,0.54,0c0.18,0,0.36,0,0.54,0
			c0.18,0,0.36,0,0.54,0c0.18,0,0.36,0,0.54,0c0.18,0,0.36,0,0.54,0c0.42,0,0.84,0,1.26,0c0,0.18,0,0.359,0,0.54
			c0,0.12,0,0.24,0,0.359c0,0.181,0,0.36,0,0.54c0,0.181,0,0.36,0,0.54C33.19,91.69,33.19,91.87,33.19,92.05z"/>
		<path fill="#311531" d="M33.19,8.35c0,0.42,0,0.84,0,1.26c-0.12,0-0.24,0-0.36,0c-0.18,0-0.36,0-0.54,0c-0.36,0-0.72,0-1.08,0
			c-0.72,0-1.44,0-2.16,0c-0.18,0-0.36,0-0.54,0c0-0.06,0-0.12,0-0.18c0-1.5,0-3,0-4.5c0.12,0,0.24,0,0.36,0c0.18,0,0.36,0,0.54,0
			c0.36,0,0.72,0,1.08,0c0.72,0,1.44,0,2.16,0c0.18,0,0.36,0,0.54,0c0,0.06,0,0.12,0,0.18c0,0.36,0,0.72,0,1.08
			c0,0.18,0,0.36,0,0.54c0,0.18,0,0.36,0,0.54s0,0.36,0,0.54S33.19,8.17,33.19,8.35z"/>
		<path fill="#D97761" d="M28.51,112.57c0,0.18,0,0.359,0,0.54c-0.06,0-0.12,0-0.18,0c-0.36,0-0.72,0-1.08,0c-0.42,0-0.84,0-1.26,0
			c-0.36,0-0.72,0-1.08,0c-0.42,0-0.84,0-1.26,0c-1.56,0-3.12,0-4.68,0c0-1.561,0-3.12,0-4.681c0.78,0,1.56,0,2.34,0
			c0.84,0,1.68,0,2.52,0c0-1.56,0-3.119,0-4.68c0.78,0,1.56,0,2.34,0s1.56,0,2.34,0C28.51,106.69,28.51,109.63,28.51,112.57z"/>
		<path fill="#BA6A5B" d="M28.51,94.21c0,3.18,0,6.36,0,9.54c-0.78,0-1.56,0-2.34,0s-1.56,0-2.34,0c0-1.5,0-3,0-4.5s0-3,0-4.5
			c0-0.18,0-0.36,0-0.54c0.24,0,0.48,0,0.72,0c0.18,0,0.36,0,0.54,0c0.36,0,0.72,0,1.08,0C26.95,94.21,27.73,94.21,28.51,94.21z"/>
		<path fill="#311531" d="M28.51,3.85c0,0.36,0,0.72,0,1.08c-1.62,0-3.24,0-4.86,0c-0.78,0-1.56,0-2.34,0c-0.78,0-1.56,0-2.34,0
			c0-0.36,0-0.72,0-1.08s0-0.72,0-1.08s0-0.72,0-1.08c0-0.18,0-0.36,0-0.54c0-0.24,0-0.48,0-0.72c0-0.06,0-0.12,0-0.18
			c0.06,0,0.12,0,0.18,0c1.56,0,3.12,0,4.68,0c0.78,0,1.56,0,2.34,0c0.42,0,0.84,0,1.26,0c0.36,0,0.72,0,1.08,0
			c0,0.24,0,0.48,0,0.72c0,0.18,0,0.36,0,0.54c0,0.36,0,0.72,0,1.08C28.51,3.01,28.51,3.43,28.51,3.85z"/>
		<path fill="#BA6A5B" d="M23.83,103.75c0,1.561,0,3.12,0,4.68c-0.84,0-1.68,0-2.52,0c-0.78,0-1.56,0-2.34,0c0-1.56,0-3.119,0-4.68
			c0.78,0,1.56,0,2.34,0C22.15,103.75,22.99,103.75,23.83,103.75z"/>
		<path fill="#D97761" d="M23.83,27.97c0,0.18,0,0.36,0,0.54c-0.06,0-0.12,0-0.18,0c-0.36,0-0.72,0-1.08,0c-0.42,0-0.84,0-1.26,0
			c-0.36,0-0.72,0-1.08,0c-0.18,0-0.36,0-0.54,0c-0.24,0-0.48,0-0.72,0c0-0.36,0-0.72,0-1.08c0-0.18,0-0.36,0-0.54
			c0-0.24,0-0.48,0-0.72c0-0.78,0-1.56,0-2.34c0.78,0,1.56,0,2.34,0c0.84,0,1.68,0,2.52,0c0,0.18,0,0.36,0,0.54
			C23.83,25.57,23.83,26.77,23.83,27.97z"/>
		<path fill="#311531" d="M18.97,136.15c0,0.18,0,0.359,0,0.54c-0.78,0-1.56,0-2.34,0c-0.24,0-0.48,0-0.72,0c-0.18,0-0.36,0-0.54,0
			c-0.18,0-0.36,0-0.54,0c-0.18,0-0.36,0-0.54,0c0-3.9,0-7.801,0-11.7c0-3.96,0-7.92,0-11.88c0.36,0,0.72,0,1.08,0
			c0.42,0,0.84,0,1.26,0c0.18,0,0.36,0,0.54,0s0.36,0,0.54,0s0.36,0,0.54,0c0.24,0,0.48,0,0.72,0c0,3.899,0,7.8,0,11.7
			c0,0.96,0,1.92,0,2.88c0,0.479,0,0.96,0,1.439c0,0.54,0,1.08,0,1.62c0,0.96,0,1.92,0,2.88c0,0.48,0,0.96,0,1.44
			c0,0.24,0,0.479,0,0.72C18.97,135.91,18.97,136.03,18.97,136.15z"/>
		<path fill="#BA6A5B" d="M18.97,108.43c0,1.561,0,3.12,0,4.681c-0.24,0-0.48,0-0.72,0c-0.18,0-0.36,0-0.54,0s-0.36,0-0.54,0
			s-0.36,0-0.54,0c-0.42,0-0.84,0-1.26,0c-0.36,0-0.72,0-1.08,0c0-1.561,0-3.12,0-4.681c0.36,0,0.72,0,1.08,0c0.42,0,0.84,0,1.26,0
			C17.41,108.43,18.19,108.43,18.97,108.43z"/>
		<path fill="#311531" d="M18.97,84.311c0,0.18,0,0.359,0,0.539c-0.06,0-0.12,0-0.18,0s-0.12,0-0.18,0c-0.12,0-0.24,0-0.36,0
			c-0.18,0-0.36,0-0.54,0s-0.36,0-0.54,0s-0.36,0-0.54,0s-0.36,0-0.54,0c-0.18,0-0.36,0-0.54,0c-0.42,0-0.84,0-1.26,0
			c0-0.359,0-0.72,0-1.079c0-0.181,0-0.36,0-0.54c0-0.24,0-0.48,0-0.721c0-0.18,0-0.359,0-0.54c0-0.18,0-0.359,0-0.54
			c0-0.18,0-0.359,0-0.54c0-0.239,0-0.479,0-0.72c0-0.18,0-0.359,0-0.54c0-0.18,0-0.359,0-0.54c0-0.18,0-0.359,0-0.54
			c0-0.239,0-0.479,0-0.72c0-0.18,0-0.36,0-0.54s0-0.36,0-0.54c0-0.42,0-0.84,0-1.26c0.36,0,0.72,0,1.08,0c0.42,0,0.84,0,1.26,0
			c0.78,0,1.56,0,2.34,0c0,1.439,0,2.88,0,4.32C18.97,81.311,18.97,82.811,18.97,84.311z"/>
		<path fill="#D97761" d="M18.97,73.15c0,0.779,0,1.56,0,2.34c-0.78,0-1.56,0-2.34,0c-0.42,0-0.84,0-1.26,0c-0.36,0-0.72,0-1.08,0
			c0-0.36,0-0.72,0-1.08c0-0.18,0-0.36,0-0.54c0-0.24,0-0.48,0-0.72c0-0.181,0-0.36,0-0.54c0-0.181,0-0.36,0-0.54
			c0-0.42,0-0.84,0-1.26c0.36,0,0.72,0,1.08,0c0.42,0,0.84,0,1.26,0c0.78,0,1.56,0,2.34,0C18.97,71.59,18.97,72.37,18.97,73.15z"/>
		<path fill="#D97761" d="M18.97,32.65c0,0.18,0,0.36,0,0.54c-0.24,0-0.48,0-0.72,0c-0.18,0-0.36,0-0.54,0s-0.36,0-0.54,0
			s-0.36,0-0.54,0s-0.36,0-0.54,0c-0.18,0-0.36,0-0.54,0c-0.42,0-0.84,0-1.26,0c0-0.72,0-1.44,0-2.16c0-0.18,0-0.36,0-0.54
			c0-0.18,0-0.36,0-0.54c0-0.18,0-0.36,0-0.54c0-0.24,0-0.48,0-0.72c0-0.06,0-0.12,0-0.18c0.36,0,0.72,0,1.08,0
			c0.42,0,0.84,0,1.26,0c0.78,0,1.56,0,2.34,0c0,0.12,0,0.24,0,0.36c0,0.18,0,0.36,0,0.54c0,0.36,0,0.72,0,1.08
			C18.97,31.21,18.97,31.93,18.97,32.65z"/>
		<path fill="#311531" d="M18.97,27.43c0,0.36,0,0.72,0,1.08c-0.78,0-1.56,0-2.34,0c-0.42,0-0.84,0-1.26,0c-0.36,0-0.72,0-1.08,0
			c0-0.36,0-0.72,0-1.08c0-0.18,0-0.36,0-0.54c0-0.24,0-0.48,0-0.72c0-0.18,0-0.36,0-0.54c0-0.18,0-0.36,0-0.54
			c0-0.42,0-0.84,0-1.26c0.36,0,0.72,0,1.08,0c0.42,0,0.84,0,1.26,0c0.78,0,1.56,0,2.34,0c0,0.78,0,1.56,0,2.34
			c0,0.24,0,0.48,0,0.72C18.97,27.07,18.97,27.25,18.97,27.43z"/>
		<path fill="#311531" d="M18.97,7.45c0,0.72,0,1.44,0,2.16c-0.78,0-1.56,0-2.34,0c-0.24,0-0.48,0-0.72,0c-0.18,0-0.36,0-0.54,0
			c-0.36,0-0.72,0-1.08,0c0-0.66,0-1.32,0-1.98c0-0.72,0-1.44,0-2.16c0-0.18,0-0.36,0-0.54c0.24,0,0.48,0,0.72,0
			c0.18,0,0.36,0,0.54,0c0.36,0,0.72,0,1.08,0c0.18,0,0.36,0,0.54,0s0.36,0,0.54,0c0.42,0,0.84,0,1.26,0c0,0.18,0,0.36,0,0.54
			c0,0.12,0,0.24,0,0.36c0,0.18,0,0.36,0,0.54C18.97,6.73,18.97,7.09,18.97,7.45z"/>
		<path fill="#311531" d="M14.29,108.43c0,1.561,0,3.12,0,4.681c-0.18,0-0.36,0-0.54,0s-0.36,0-0.54,0c-0.36,0-0.72,0-1.08,0
			c-0.18,0-0.36,0-0.54,0c-0.18,0-0.36,0-0.54,0c-0.36,0-0.72,0-1.08,0c-0.72,0-1.44,0-2.16,0c-0.36,0-0.72,0-1.08,0
			c-0.18,0-0.36,0-0.54,0c-0.24,0-0.48,0-0.72,0c-0.18,0-0.36,0-0.54,0c0-1.561,0-3.12,0-4.681c0.36,0,0.72,0,1.08,0
			c0.42,0,0.84,0,1.26,0c0.36,0,0.72,0,1.08,0c0.42,0,0.84,0,1.26,0c0.18,0,0.36,0,0.54,0s0.36,0,0.54,0c0.42,0,0.84,0,1.26,0
			C12.73,108.43,13.51,108.43,14.29,108.43z"/>
		<path fill="#311531" d="M14.29,88.271c0,0.42,0,0.84,0,1.26c-0.18,0-0.36,0-0.54,0s-0.36,0-0.54,0s-0.36,0-0.54,0
			c-0.12,0-0.24,0-0.36,0c-0.18,0-0.36,0-0.54,0c-0.18,0-0.36,0-0.54,0s-0.36,0-0.54,0s-0.36,0-0.54,0s-0.36,0-0.54,0
			c0-0.12,0-0.24,0-0.36c0-0.18,0-0.359,0-0.54c0-0.359,0-0.72,0-1.08c0-0.72,0-1.439,0-2.16c0-0.18,0-0.359,0-0.54
			c0.06,0,0.12,0,0.18,0s0.12,0,0.18,0c0.12,0,0.24,0,0.36,0c0.18,0,0.36,0,0.54,0c0.18,0,0.36,0,0.54,0c0.18,0,0.36,0,0.54,0
			c0.18,0,0.36,0,0.54,0c0.18,0,0.36,0,0.54,0c0.42,0,0.84,0,1.26,0c0,0.181,0,0.36,0,0.54c0,0.181,0,0.36,0,0.54
			c0,0.181,0,0.36,0,0.54c0,0.24,0,0.48,0,0.721c0,0.18,0,0.359,0,0.54C14.29,87.91,14.29,88.09,14.29,88.271z"/>
		<path fill="#311531" d="M14.29,74.41c0,0.36,0,0.72,0,1.08c-0.78,0-1.56,0-2.34,0c-0.36,0-0.72,0-1.08,0c-0.42,0-0.84,0-1.26,0
			c0-0.78,0-1.561,0-2.34c0-0.78,0-1.561,0-2.34c0-0.78,0-1.561,0-2.341c0-0.779,0-1.56,0-2.34c0.18,0,0.36,0,0.54,0s0.36,0,0.54,0
			s0.36,0,0.54,0c0.24,0,0.48,0,0.72,0c0.18,0,0.36,0,0.54,0c0.18,0,0.36,0,0.54,0c0.42,0,0.84,0,1.26,0c0,0.36,0,0.72,0,1.08
			c0,0.18,0,0.36,0,0.54c0,0.24,0,0.48,0,0.72c0,0.181,0,0.36,0,0.54c0,0.181,0,0.36,0,0.54c0,0.42,0,0.84,0,1.261
			c0,0.42,0,0.84,0,1.26c0,0.18,0,0.359,0,0.54c0,0.18,0,0.359,0,0.54c0,0.239,0,0.479,0,0.72C14.29,74.05,14.29,74.23,14.29,74.41z
			"/>
		<path fill="#D97761" d="M14.29,61.45c0,1.56,0,3.12,0,4.68c-0.42,0-0.84,0-1.26,0c-0.18,0-0.36,0-0.54,0c-0.18,0-0.36,0-0.54,0
			c-0.24,0-0.48,0-0.72,0c-0.18,0-0.36,0-0.54,0s-0.36,0-0.54,0s-0.36,0-0.54,0c0-1.56,0-3.12,0-4.68c0.18,0,0.36,0,0.54,0
			s0.36,0,0.54,0c0.42,0,0.84,0,1.26,0C12.73,61.45,13.51,61.45,14.29,61.45z"/>
		<path fill="#D97761" d="M14.29,42.01c0,0.18,0,0.36,0,0.54c-0.06,0-0.12,0-0.18,0s-0.12,0-0.18,0c-0.12,0-0.24,0-0.36,0
			c-0.18,0-0.36,0-0.54,0c-0.18,0-0.36,0-0.54,0c-0.18,0-0.36,0-0.54,0c-0.18,0-0.36,0-0.54,0c-0.18,0-0.36,0-0.54,0
			c-0.42,0-0.84,0-1.26,0c0-0.72,0-1.44,0-2.16c0-0.36,0-0.72,0-1.08c0-0.18,0-0.36,0-0.54c0-0.24,0-0.48,0-0.72
			c0-0.06,0-0.12,0-0.18c0.18,0,0.36,0,0.54,0s0.36,0,0.54,0c0.42,0,0.84,0,1.26,0c0.36,0,0.72,0,1.08,0c0.42,0,0.84,0,1.26,0
			c0,0.12,0,0.24,0,0.36c0,0.18,0,0.36,0,0.54c0,0.36,0,0.72,0,1.08C14.29,40.57,14.29,41.29,14.29,42.01z"/>
		<path fill="#311531" d="M14.29,36.61c0,0.42,0,0.84,0,1.26c-0.42,0-0.84,0-1.26,0c-0.36,0-0.72,0-1.08,0c-0.42,0-0.84,0-1.26,0
			c-0.18,0-0.36,0-0.54,0s-0.36,0-0.54,0c0-1.44,0-2.88,0-4.32c0-1.5,0-3,0-4.5c0-0.18,0-0.36,0-0.54c0.06,0,0.12,0,0.18,0
			c1.5,0,3,0,4.5,0c0,0.06,0,0.12,0,0.18c0,0.24,0,0.48,0,0.72c0,0.18,0,0.36,0,0.54c0,0.18,0,0.36,0,0.54c0,0.18,0,0.36,0,0.54
			c0,0.72,0,1.44,0,2.16c0,0.36,0,0.72,0,1.08c0,0.18,0,0.36,0,0.54c0,0.24,0,0.48,0,0.72c0,0.18,0,0.36,0,0.54
			C14.29,36.25,14.29,36.43,14.29,36.61z"/>
		<path fill="#311531" d="M14.29,20.23c0,1.2,0,2.4,0,3.6c-0.78,0-1.56,0-2.34,0c-0.78,0-1.56,0-2.34,0c0-0.12,0-0.24,0-0.36
			c0-1.14,0-2.28,0-3.42c0-1.14,0-2.28,0-3.42c0-1.14,0-2.28,0-3.42c0-0.6,0-1.2,0-1.8c0-0.12,0-0.24,0-0.36c0-0.18,0-0.36,0-0.54
			c0-0.12,0-0.24,0-0.36c0-0.18,0-0.36,0-0.54c0.24,0,0.48,0,0.72,0c0.18,0,0.36,0,0.54,0c0.36,0,0.72,0,1.08,0
			c0.36,0,0.72,0,1.08,0c0.42,0,0.84,0,1.26,0c0,2.34,0,4.68,0,7.02c0,0.12,0,0.24,0,0.36c0,0.18,0,0.36,0,0.54
			c0,0.12,0,0.24,0,0.36c0,0.18,0,0.36,0,0.54c0,0.12,0,0.24,0,0.36c0,0.18,0,0.36,0,0.54c0,0.12,0,0.24,0,0.36
			C14.29,19.87,14.29,20.05,14.29,20.23z"/>
		<path fill="#311531" d="M9.61,91.87c0,0.78,0,1.56,0,2.34c-0.36,0-0.72,0-1.08,0c-0.42,0-0.84,0-1.26,0c-0.78,0-1.56,0-2.34,0
			c0-0.36,0-0.72,0-1.08c0-0.18,0-0.359,0-0.54c0-0.24,0-0.479,0-0.72c0-0.18,0-0.36,0-0.54s0-0.36,0-0.54c0-0.42,0-0.84,0-1.26
			c0.18,0,0.36,0,0.54,0c0.18,0,0.36,0,0.54,0c0.18,0,0.36,0,0.54,0c0.12,0,0.24,0,0.36,0c0.18,0,0.36,0,0.54,0
			c0.18,0,0.36,0,0.54,0c0.18,0,0.36,0,0.54,0c0.18,0,0.36,0,0.54,0c0.18,0,0.36,0,0.54,0c0,0.18,0,0.359,0,0.54
			c0,0.18,0,0.359,0,0.54c0,0.18,0,0.359,0,0.54C9.61,91.39,9.61,91.63,9.61,91.87z"/>
		<path fill="#311531" d="M9.61,61.45c0,1.56,0,3.12,0,4.68c-0.36,0-0.72,0-1.08,0c-0.18,0-0.36,0-0.54,0c-0.24,0-0.48,0-0.72,0
			c-0.18,0-0.36,0-0.54,0s-0.36,0-0.54,0c-0.42,0-0.84,0-1.26,0c0-1.14,0-2.28,0-3.42c0-1.2,0-2.4,0-3.6c0-1.14,0-2.28,0-3.42
			c0-1.2,0-2.4,0-3.6c0-1.14,0-2.28,0-3.42c0-0.3,0-0.6,0-0.9c0-0.3,0-0.6,0-0.9c0-0.12,0-0.24,0-0.36c0-0.18,0-0.36,0-0.54
			c0-0.12,0-0.24,0-0.36c0-0.18,0-0.36,0-0.54c0-0.12,0-0.24,0-0.36c0-0.18,0-0.36,0-0.54c0-0.12,0-0.24,0-0.36
			c0-0.18,0-0.36,0-0.54c0-0.12,0-0.24,0-0.36c0-0.18,0-0.36,0-0.54c0-0.12,0-0.24,0-0.36c0-0.18,0-0.36,0-0.54
			c0-0.12,0-0.24,0-0.36c0-0.18,0-0.36,0-0.54c0-0.12,0-0.24,0-0.36c0-0.18,0-0.36,0-0.54c0-0.12,0-0.24,0-0.36
			c0-0.18,0-0.36,0-0.54c0-0.12,0-0.24,0-0.36c0-0.18,0-0.36,0-0.54c0.24,0,0.48,0,0.72,0c0.18,0,0.36,0,0.54,0
			c0.36,0,0.72,0,1.08,0c0.78,0,1.56,0,2.34,0c0,0.06,0,0.12,0,0.18c0,0.24,0,0.48,0,0.72c0,0.18,0,0.36,0,0.54
			c0,0.36,0,0.72,0,1.08c0,0.72,0,1.44,0,2.16c0,0.18,0,0.36,0,0.54c0,0.18,0,0.36,0,0.54c0,0.18,0,0.36,0,0.54
			c0,0.24,0,0.48,0,0.72c0,0.18,0,0.36,0,0.54c0,0.18,0,0.36,0,0.54c0,0.18,0,0.36,0,0.54c0,0.24,0,0.48,0,0.72
			c0,1.56,0,3.12,0,4.68C9.61,55.09,9.61,58.27,9.61,61.45z"/>
		<path fill="#311531" d="M4.93,104.83c0,1.2,0,2.4,0,3.6c-0.24,0-0.48,0-0.72,0c-0.18,0-0.36,0-0.54,0c-0.36,0-0.72,0-1.08,0
			c-0.24,0-0.48,0-0.72,0c-0.18,0-0.36,0-0.54,0c-0.18,0-0.36,0-0.54,0c-0.12,0-0.24,0-0.36,0c-0.06,0-0.12,0-0.18,0
			c0-4.56,0-9.119,0-13.68c0-0.18,0-0.36,0-0.54c0.06,0,0.12,0,0.18,0c0.12,0,0.24,0,0.36,0c0.18,0,0.36,0,0.54,0
			c0.18,0,0.36,0,0.54,0c0.24,0,0.48,0,0.72,0c0.36,0,0.72,0,1.08,0c0.42,0,0.84,0,1.26,0c0,1.14,0,2.28,0,3.42c0,1.2,0,2.4,0,3.601
			C4.93,102.43,4.93,103.63,4.93,104.83z"/>
	</g>
	<g>
	</g>
</g>
</svg>
