<?xml version="1.0" encoding="utf-8"?>
<!-- Generator: Adobe Illustrator 15.0.0, SVG Export Plug-In  -->
<!DOCTYPE svg PUBLIC "-//W3C//DTD SVG 1.1//EN" "http://www.w3.org/Graphics/SVG/1.1/DTD/svg11.dtd" [
	<!ENTITY ns_flows "http://ns.adobe.com/Flows/1.0/">
]>
<svg version="1.1"
	 xmlns="http://www.w3.org/2000/svg" xmlns:xlink="http://www.w3.org/1999/xlink" xmlns:a="http://ns.adobe.com/AdobeSVGViewerExtensions/3.0/"
	 x="0px" y="0px" width="200px" height="200px" viewBox="-16.21 -24.71 200 200" enable-background="new -16.21 -24.71 200 200"
	 xml:space="preserve">
<defs>
</defs>
<path fill="#D42C41" d="M0,74.521c0,0.18,0,0.359,0,0.539c0.96,0,1.91,0,2.87,0c0.48,0,0.96,0,1.449,0c0.48,0,0.961,0,1.441,0
	c0.059,0,0.109,0,0.18,0c0,0.181,0,0.36,0,0.54c0,1.62,0,3.24,0,4.86c0,0.18,0,0.36,0,0.54c1.91,0,3.84,0,5.76,0
	c0,0.18,0,0.36,0,0.54c0,0.36,0,0.72,0,1.08c0,0.42,0,0.84,0,1.26c0,0.36,0,0.72,0,1.08c0,0.18,0,0.36,0,0.54c0,0.24,0,0.48,0,0.72
	c0,0.181,0,0.36,0,0.54c1.92,0,3.84,0,5.76,0c0,0.181,0,0.36,0,0.54c0,1.86,0,3.721,0,5.58c0,1.86,0,3.72,0,5.58s0,3.72,0,5.58
	c0,1.92,0,3.84,0,5.76c1.91,0,3.84,0,5.76,0c0,0.181,0,0.36,0,0.54c0,1.8,0,3.601,0,5.4c0,1.859,0,3.72,0,5.58c1.92,0,3.84,0,5.76,0
	c0,0.18,0,0.359,0,0.54c0,1.8,0,3.6,0,5.399c0,1.86,0,3.721,0,5.58c1.91,0,3.84,0,5.761,0c0,0.181,0,0.36,0,0.54
	c0,1.561,0,3.12,0,4.68c0,0.181,0,0.36,0,0.54c1.92,0,3.84,0,5.76,0c0,0.181,0,0.36,0,0.54c0,1.561,0,3.12,0,4.681
	c0,0.18,0,0.359,0,0.54c1.91,0,3.83,0,5.761,0c0,0.96,0,1.92,0,2.88c0,1.02,0,2.04,0,3.06c7.68,0,15.359,0,23.039,0
	c0-1.979,0-3.96,0-5.939c0.18,0,0.36,0,0.54,0c3.78,0,7.55,0,11.341,0c1.859,0,3.709,0,5.579,0c1.92,0,3.84,0,5.76,0
	c0-1.92,0-3.84,0-5.761c-0.239,0-0.479,0-0.72,0c-0.12,0-0.24,0-0.36,0c-0.18,0-0.359,0-0.55,0c-0.109,0-0.229,0-0.35,0
	c-0.601,0-1.2,0-1.8,0c-0.181,0-0.37,0-0.54,0c-0.12,0-0.24,0-0.36,0c-0.18,0-0.36,0-0.54,0c-0.12,0-0.24,0-0.36,0
	c-0.6,0-1.199,0-1.8,0c-2.399,0-4.81,0-7.199,0c-2.4,0-4.801,0-7.2,0c-2.4,0-4.8,0-7.2,0c0,1.921,0,3.841,0,5.761
	c-3.84,0-7.689,0-11.52,0c0-1.92,0-3.84,0-5.761c-1.92,0-3.84,0-5.76,0c0-1.92,0-3.84,0-5.76c-1.931,0-3.851,0-5.761,0
	c0-1.92,0-3.84,0-5.76c-1.92,0-3.84,0-5.76,0c0-0.18,0-0.36,0-0.54c0-1.38,0-2.76,0-4.14c0-0.36,0-0.721,0-1.08c0-0.3,0-0.601,0-0.9
	c0-0.36,0-0.72,0-1.08c0-0.3,0-0.6,0-0.899c0-1.381,0-2.761,0-4.141c0-0.359,0-0.72,0-1.08c0-0.3,0-0.6,0-0.899
	c0-0.36,0-0.721,0-1.08c0-0.3,0-0.601,0-0.9c0-0.18,0-0.359,0-0.54c-1.921,0-3.851,0-5.761,0c0-7.68,0-15.359,0-23.04
	c-1.92,0-3.84,0-5.76,0c0-1.92,0-3.84,0-5.76c-1.92,0-3.85,0-5.76,0c0-0.54,0-1.08,0-1.62c0-0.479,0-0.96,0-1.439
	c0-0.96,0-1.92,0-2.881c-1.92,0-3.84,0-5.76,0c0-7.68,0-15.359,0-23.039c1.92,0,3.84,0,5.76,0c0-1.921,0-3.841,0-5.761
	c1.91,0,3.84,0,5.76,0c0-1.92,0-3.84,0-5.76c3.84,0,7.67,0,11.521,0c0-1.92,0-3.84,0-5.76c1.92,0,3.84,0,5.76,0
	c0-1.92,0-3.84,0-5.76c3.83,0,7.681,0,11.521,0c0-1.921,0-3.841,0-5.761c0.18,0,0.35,0,0.539,0c1.44,0,2.881,0,4.311,0
	c1.449,0,2.891,0,4.33,0s2.88,0,4.32,0c1.369,0,2.76,0,4.14,0c1.44,0,2.88,0,4.319,0c1.431,0,2.871,0,4.32,0c1.44,0,2.881,0,4.32,0
	c1.38,0,2.75,0,4.14,0c0-1.92,0-3.84,0-5.76c1.92,0,3.84,0,5.76,0c0-1.92,0-3.84,0-5.76c3.83,0,7.681,0,11.521,0
	c0-1.92,0-3.84,0-5.76c3.83,0,7.68,0,11.52,0c0,1.92,0,3.84,0,5.76c1.92,0,3.83,0,5.76,0c0,3.84,0,7.68,0,11.52
	c1.921,0,3.841,0,5.761,0c0,1.92,0,3.84,0,5.761c1.92,0,3.83,0,5.76,0c0,1.92,0,3.84,0,5.76c0.42,0,0.84,0,1.26,0
	c0.181,0,0.36,0,0.54,0s0.36,0,0.54,0c0.71,0,1.44,0,2.16,0c1.44,0,2.88,0,4.32,0c1.439,0,2.88,0,4.319,0c1.431,0,2.87,0,4.32,0
	c0,1.92,0,3.84,0,5.76c1.92,0,3.84,0,5.76,0c0,0.18,0,0.36,0,0.54c0,0.3,0,0.6,0,0.9c0,0.3,0,0.6,0,0.899s0,0.601,0,0.9
	s0,0.6,0,0.899c0,0.301,0,0.601,0,0.9s0,0.6,0,0.9c0,0.3,0,0.6,0,0.899s0,0.601,0,0.9s0,0.6,0,0.899c0,0.301,0,0.601,0,0.9
	s0,0.6,0,0.9c0,0.3,0,0.6,0,0.899s0,0.601,0,0.9s0,0.6,0,0.899c0,0.301,0,0.601,0,0.9s0,0.6,0,0.9c0,0.3,0,0.6,0,0.899
	s0,0.601,0,0.9s0,0.6,0,0.899c0,0.301,0,0.601,0,0.9s0,0.6,0,0.9c0,0.3,0,0.6,0,0.899s0,0.601,0,0.9s0,0.6,0,0.899
	c0,0.301,0,0.601,0,0.9s0,0.6,0,0.9c0,0.3,0,0.6,0,0.899s0,0.601,0,0.9s0,0.6,0,0.899c0,0.301,0,0.601,0,0.9s0,0.6,0,0.9
	c0,0.119,0,0.239,0,0.359c1.92,0,3.83,0,5.76,0c0-1.92,0-3.84,0-5.76c1.921,0,3.841,0,5.761,0c0-7.68,0-15.36,0-23.04
	c-1.92,0-3.84,0-5.761,0c0-1.92,0-3.84,0-5.76c-1.93,0-3.84,0-5.76,0c0-0.181,0-0.36,0-0.54c0-1.561,0-3.12,0-4.68
	c0-0.181,0-0.36,0-0.54c-1.439,0-2.88,0-4.319,0c-1.44,0-2.891,0-4.33,0c-1.431,0-2.87,0-4.311,0c-0.189,0-0.359,0-0.54,0
	c-0.189,0-0.359,0-0.54,0c-0.359,0-0.72,0-1.08,0c-0.18,0-0.359,0-0.55,0c-0.17,0-0.35,0-0.54,0c-0.35,0-0.71,0-1.069,0
	c-0.061,0-0.12,0-0.181,0c0-0.181,0-0.36,0-0.54c0-0.36,0-0.721,0-1.08c0-0.42,0-0.84,0-1.261c0-0.359,0-0.72,0-1.079
	c0-0.181,0-0.36,0-0.54c0-0.24,0-0.48,0-0.721c0-0.18,0-0.359,0-0.54c-1.92,0-3.84,0-5.76,0c0-3.84,0-7.68,0-11.52
	c-1.93,0-3.84,0-5.76,0c0-0.18,0-0.36,0-0.54c0-1.561,0-3.12,0-4.68c0-0.181,0-0.36,0-0.54c-1.92,0-3.84,0-5.761,0
	c0-1.98,0-3.96,0-5.94c-0.539,0-1.079,0-1.619,0c-0.12,0-0.24,0-0.36,0c-0.18,0-0.36,0-0.54,0c-0.12,0-0.24,0-0.36,0
	c-0.18,0-0.359,0-0.55,0c-1.189,0-2.39,0-3.59,0c-0.54,0-1.08,0-1.62,0c-0.12,0-0.24,0-0.36,0c-0.18,0-0.359,0-0.539,0
	c-0.12,0-0.24,0-0.37,0c-0.17,0-0.351,0-0.54,0c-1.19,0-2.391,0-3.59,0c-0.54,0-1.08,0-1.62,0c-0.12,0-0.25,0-0.36,0
	c-0.18,0-0.36,0-0.54,0c-0.12,0-0.24,0-0.37,0c-0.17,0-0.35,0-0.54,0c-0.109,0-0.229,0-0.35,0c-0.181,0-0.36,0-0.54,0
	c-0.12,0-0.24,0-0.36,0c-0.189,0-0.359,0-0.54,0c-0.12,0-0.24,0-0.359,0c-0.181,0-0.36,0-0.54,0c-0.12,0-0.25,0-0.36,0
	c-0.18,0-0.36,0-0.54,0c-0.12,0-0.24,0-0.37,0c-0.17,0-0.35,0-0.54,0C99.24,0,99.12,0,99,0c-0.181,0-0.36,0-0.54,0
	c-0.12,0-0.24,0-0.36,0c-0.189,0-0.359,0-0.54,0c-0.12,0-0.24,0-0.359,0c-0.181,0-0.36,0-0.54,0c-0.12,0-0.25,0-0.36,0
	c-0.18,0-0.36,0-0.54,0c-0.12,0-0.24,0-0.37,0c-0.17,0-0.35,0-0.54,0C94.74,0,94.62,0,94.5,0c-0.181,0-0.36,0-0.54,0
	c-0.12,0-0.24,0-0.36,0c-0.189,0-0.359,0-0.54,0C92.87,0,92.7,0,92.52,0c0,0.96,0,1.92,0,2.88c0,0.48,0,0.96,0,1.44
	c0,0.54,0,1.08,0,1.62c-1.92,0-3.84,0-5.76,0c0,1.92,0,3.84,0,5.76c-0.18,0-0.37,0-0.54,0c-0.9,0-1.81,0-2.7,0
	c-0.96,0-1.919,0-2.88,0c-1.92,0-3.84,0-5.77,0c-1.85,0-3.71,0-5.57,0c-1.93,0-3.84,0-5.76,0c0,1.92,0,3.84,0,5.76
	c-0.189,0-0.359,0-0.54,0c-3.72,0-7.44,0-11.16,0c-0.899,0-1.8,0-2.7,0c-0.959,0-1.92,0-2.879,0c-1.931,0-3.851,0-5.761,0
	c0,1.92,0,3.84,0,5.76c-0.181,0-0.36,0-0.54,0c-3.66,0-7.32,0-10.98,0c0,1.92,0,3.84,0,5.761c-1.92,0-3.84,0-5.76,0
	c0,1.92,0,3.84,0,5.76c-1.92,0-3.85,0-5.76,0c0,1.92,0,3.84,0,5.76c-0.18,0-0.359,0-0.55,0c-1.79,0-3.591,0-5.39,0
	c-1.86,0-3.721,0-5.58,0c0,1.92,0,3.84,0,5.76c-0.18,0-0.36,0-0.551,0c-1.609,0-3.229,0-4.85,0c-0.189,0-0.359,0-0.54,0
	c0,0.12,0,0.24,0,0.36c0,1.14,0,2.28,0,3.42c0,0.24,0,0.48,0,0.72c0,0.12,0,0.24,0,0.36c0,0.18,0,0.36,0,0.54c0,0.12,0,0.24,0,0.36
	c0,0.18,0,0.359,0,0.539c0,0.12,0,0.24,0,0.36c0,0.18,0,0.36,0,0.54c0,1.14,0,2.28,0,3.42c0,0.12,0,0.24,0,0.36
	c0,0.18,0,0.359,0,0.54c0,0.12,0,0.24,0,0.359c0,0.181,0,0.36,0,0.54c0,0.12,0,0.24,0,0.36c0,0.18,0,0.36,0,0.54
	c0,0.12,0,0.24,0,0.36c0,0.18,0,0.359,0,0.54c0,1.14,0,2.279,0,3.42c0,0.12,0,0.239,0,0.359c0,0.181,0,0.36,0,0.54
	c0,0.12,0,0.24,0,0.36c0,0.18,0,0.36,0,0.54c0,0.12,0,0.24,0,0.359c0,0.181,0,0.36,0,0.54c0,0.12,0,0.24,0,0.36
	c0,0.18,0,0.36,0,0.54c0,1.14,0,2.28,0,3.42c0,0.12,0,0.24,0,0.36c0,0.18,0,0.359,0,0.54c0,0.12,0,0.239,0,0.359
	c0,0.181,0,0.36,0,0.54c0,0.12,0,0.24,0,0.36c0,0.18,0,0.36,0,0.54c0,0.12,0,0.24,0,0.36C0,74.16,0,74.34,0,74.521z"/>
<path fill="#F15A46" d="M17.46,52.021c0-1.921,0-3.841,0-5.761c1.91,0,3.84,0,5.76,0c0-1.92,0-3.84,0-5.76c3.84,0,7.67,0,11.521,0
	c0-1.92,0-3.84,0-5.76c1.92,0,3.84,0,5.76,0c0-1.92,0-3.84,0-5.76c3.83,0,7.681,0,11.521,0c0-1.921,0-3.841,0-5.761
	c0.18,0,0.35,0,0.539,0c1.44,0,2.881,0,4.311,0c1.449,0,2.891,0,4.33,0s2.88,0,4.32,0c1.369,0,2.76,0,4.14,0c1.44,0,2.88,0,4.319,0
	c1.431,0,2.871,0,4.32,0c1.44,0,2.881,0,4.32,0c1.38,0,2.75,0,4.14,0c0-1.92,0-3.84,0-5.76c1.92,0,3.84,0,5.76,0
	c0-1.92,0-3.84,0-5.76c3.83,0,7.681,0,11.521,0c0-1.92,0-3.84,0-5.76c3.83,0,7.68,0,11.52,0c0,1.92,0,3.84,0,5.76
	c1.92,0,3.83,0,5.76,0c0,3.84,0,7.68,0,11.52c1.921,0,3.841,0,5.761,0c0,1.92,0,3.84,0,5.761c1.92,0,3.83,0,5.76,0
	c0,1.92,0,3.84,0,5.76c0.42,0,0.84,0,1.26,0c0.181,0,0.36,0,0.54,0s0.36,0,0.54,0c0.71,0,1.44,0,2.16,0c1.44,0,2.88,0,4.32,0
	c1.439,0,2.88,0,4.319,0c1.431,0,2.87,0,4.32,0c0,1.92,0,3.84,0,5.76c1.92,0,3.84,0,5.76,0c0,0.18,0,0.36,0,0.54c0,0.3,0,0.6,0,0.9
	c0,0.3,0,0.6,0,0.899s0,0.601,0,0.9s0,0.6,0,0.899c0,0.301,0,0.601,0,0.9s0,0.6,0,0.9c0,0.3,0,0.6,0,0.899s0,0.601,0,0.9
	s0,0.6,0,0.899c0,0.301,0,0.601,0,0.9s0,0.6,0,0.9c0,0.3,0,0.6,0,0.899s0,0.601,0,0.9s0,0.6,0,0.899c0,0.301,0,0.601,0,0.9
	s0,0.6,0,0.9c0,0.3,0,0.6,0,0.899s0,0.601,0,0.9s0,0.6,0,0.899c0,0.301,0,0.601,0,0.9s0,0.6,0,0.9c0,0.3,0,0.6,0,0.899
	s0,0.601,0,0.9s0,0.6,0,0.899c0,0.301,0,0.601,0,0.9s0,0.6,0,0.9c0,0.3,0,0.6,0,0.899s0,0.601,0,0.9s0,0.6,0,0.899
	c0,0.301,0,0.601,0,0.9s0,0.6,0,0.9c0,0.119,0,0.239,0,0.359c-1.92,0-3.84,0-5.76,0c0,1.92,0,3.84,0,5.76c-1.93,0-3.84,0-5.76,0
	c0-1.92,0-3.84,0-5.76c-0.061,0-0.13,0-0.19,0c-1.91,0-3.83,0-5.75,0c0,1.92,0,3.84,0,5.76c-1.92,0-3.84,0-5.76,0
	c0,3.9,0,7.801,0,11.7c-1.93,0-3.84,0-5.76,0c0,7.681,0,15.36,0,23.04c1.92,0,3.83,0,5.76,0c0,1.92,0,3.84,0,5.76
	c1.92,0,3.84,0,5.76,0c0,1.921,0,3.841,0,5.761c-1.92,0-3.84,0-5.76,0c0,3.84,0,7.68,0,11.52c-1.93,0-3.84,0-5.76,0
	c0,1.92,0,3.84,0,5.76c-2.88,0-5.761,0-8.641,0s-5.76,0-8.64,0c0-1.92,0-3.84,0-5.76c-0.18,0-0.36,0-0.54,0s-0.37,0-0.54,0
	c-0.37,0-0.72,0-1.08,0c-0.18,0-0.359,0-0.54,0c-0.189,0-0.359,0-0.54,0c-0.359,0-0.72,0-1.08,0c-1.439,0-2.88,0-4.319,0
	c-2.88,0-5.771,0-8.641,0c0,1.92,0,3.84,0,5.76c-0.239,0-0.479,0-0.72,0c-0.12,0-0.24,0-0.36,0c-0.18,0-0.359,0-0.55,0
	c-0.109,0-0.229,0-0.35,0c-0.601,0-1.2,0-1.8,0c-0.181,0-0.37,0-0.54,0c-0.12,0-0.24,0-0.36,0c-0.18,0-0.36,0-0.54,0
	c-0.12,0-0.24,0-0.36,0c-0.6,0-1.199,0-1.8,0c-2.399,0-4.81,0-7.199,0c-2.4,0-4.801,0-7.2,0c-2.4,0-4.8,0-7.2,0
	c0,1.921,0,3.841,0,5.761c-3.84,0-7.689,0-11.52,0c0-1.92,0-3.84,0-5.761c-1.92,0-3.84,0-5.76,0c0-1.92,0-3.84,0-5.76
	c-1.931,0-3.851,0-5.761,0c0-1.92,0-3.84,0-5.76c-1.92,0-3.84,0-5.76,0c0-0.18,0-0.36,0-0.54c0-1.38,0-2.76,0-4.14
	c0-0.36,0-0.721,0-1.08c0-0.3,0-0.601,0-0.9c0-0.36,0-0.72,0-1.08c0-0.3,0-0.6,0-0.899c0-1.381,0-2.761,0-4.141
	c0-0.359,0-0.72,0-1.08c0-0.3,0-0.6,0-0.899c0-0.36,0-0.721,0-1.08c0-0.3,0-0.601,0-0.9c0-0.18,0-0.359,0-0.54
	c-1.921,0-3.851,0-5.761,0c0-7.68,0-15.359,0-23.04c-1.92,0-3.84,0-5.76,0c0-1.92,0-3.84,0-5.76c-1.92,0-3.85,0-5.76,0
	c0-0.54,0-1.08,0-1.62c0-0.479,0-0.96,0-1.439c0-0.96,0-1.92,0-2.881c-1.92,0-3.84,0-5.76,0c0-7.68,0-15.359,0-23.039
	C13.62,52.021,15.54,52.021,17.46,52.021z M40.5,86.76c1.91,0,3.83,0,5.761,0c0,1.92,0,3.84,0,5.761c-1.931,0-3.851,0-5.761,0
	c0,5.76,0,11.52,0,17.279c1.91,0,3.83,0,5.761,0c0,0.181,0,0.36,0,0.54c0,1.8,0,3.601,0,5.4c0,1.859,0,3.72,0,5.58
	c2.879,0,5.76,0,8.629,0c1.45,0,2.891,0,4.33,0c1.44,0,2.881,0,4.32,0c0,1.92,0,3.84,0,5.76c1.92,0,3.83,0,5.76,0
	c0-1.92,0-3.84,0-5.76c1.98,0,3.961,0,5.94,0c0-1.92,0-3.84,0-5.761c3.84,0,7.67,0,11.52,0c0-1.92,0-3.84,0-5.76
	c1.92,0,3.84,0,5.76,0c0-1.92,0-3.84,0-5.76c1.92,0,3.83,0,5.761,0c0-1.92,0-3.84,0-5.76c3.84,0,7.68,0,11.52,0
	c0-1.92,0-3.84,0-5.76c0.18,0,0.36,0,0.54,0c0.78,0,1.55,0,2.34,0c0.78,0,1.561,0,2.34,0c0.181,0,0.351,0,0.54,0
	c0-5.82,0-11.641,0-17.461c1.92,0,3.83,0,5.76,0c0-1.92,0-3.84,0-5.76c0.181,0,0.36,0,0.53,0c3.67,0,7.33,0,10.99,0
	c0-1.92,0-3.84,0-5.76c1.92,0,3.84,0,5.76,0c0-2.88,0-5.76,0-8.64s0-5.761,0-8.641c-1.439,0-2.88,0-4.319,0c-1.44,0-2.891,0-4.32,0
	c-0.72,0-1.44,0-2.16,0s-1.45,0-2.16,0c-0.729,0-1.439,0-2.16,0c-0.72,0-1.439,0-2.16,0c0-1.92,0-3.84,0-5.76c-1.93,0-3.84,0-5.76,0
	c0,1.92,0,3.84,0,5.76c-1.92,0-3.84,0-5.76,0c-1.93,0-3.84,0-5.76,0c0-1.92,0-3.84,0-5.76s0-3.84,0-5.76c-1.92,0-3.84,0-5.76,0
	c-0.061,0-0.12,0-0.181,0c-0.06,0-0.12,0-0.189,0c-0.11,0-0.23,0-0.351,0c-0.189,0-0.359,0-0.54,0c-0.359,0-0.72,0-1.08,0
	c-0.18,0-0.359,0-0.55,0c-0.17,0-0.35,0-0.54,0c-0.35,0-0.71,0-1.069,0c-1.44,0-2.891,0-4.32,0c-1.44,0-2.88,0-4.32,0
	c-1.439,0-2.879,0-4.32,0c-0.719,0-1.449,0-2.159,0c-0.181,0-0.36,0-0.54,0s-0.359,0-0.54,0c-0.36,0-0.729,0-1.08,0
	c-0.72,0-1.44,0-2.16,0c-0.18,0-0.36,0-0.54,0s-0.359,0-0.539,0c-0.371,0-0.721,0-1.08,0c-1.44,0-2.881,0-4.33,0
	c-0.711,0-1.44,0-2.15,0c-0.721,0-1.439,0-2.16,0c0,1.92,0,3.84,0,5.76c-3.84,0-7.689,0-11.52,0c0,1.92,0,3.84,0,5.76
	c-1.92,0-3.84,0-5.76,0c0,3.84,0,7.681,0,11.521c-1.931,0-3.851,0-5.761,0c0,7.74,0,15.479,0,23.22c-1.92,0-3.84,0-5.76,0
	c0,1.92,0,3.84,0,5.76C36.66,86.76,38.58,86.76,40.5,86.76z"/>
<path fill="#F79C7F" d="M34.74,81c0,1.92,0,3.84,0,5.76c1.92,0,3.84,0,5.76,0c0-1.92,0-3.84,0-5.76C38.58,81,36.66,81,34.74,81z"/>
<path fill="#F79C7F" d="M40.5,92.521c0,5.76,0,11.52,0,17.279c1.91,0,3.83,0,5.761,0c0,0.181,0,0.36,0,0.54c0,1.8,0,3.601,0,5.4
	c0,1.859,0,3.72,0,5.58c2.879,0,5.76,0,8.629,0c1.45,0,2.891,0,4.33,0c1.44,0,2.881,0,4.32,0c0,1.92,0,3.84,0,5.76
	c1.92,0,3.83,0,5.76,0c0-1.92,0-3.84,0-5.76c1.98,0,3.961,0,5.94,0c0-1.92,0-3.84,0-5.761c-2.94,0-5.89,0-8.83,0
	c-2.87,0-5.75,0-8.63,0c0-1.92,0-3.84,0-5.76c-1.93,0-3.84,0-5.76,0c0-1.92,0-3.84,0-5.76c-1.92,0-3.84,0-5.76,0
	c0-1.92,0-3.84,0-5.76c1.92,0,3.84,0,5.76,0c0-1.92,0-3.84,0-5.76c-1.92,0-3.84,0-5.76,0C44.33,92.521,42.41,92.521,40.5,92.521z"/>
<path fill="#232034" d="M40.5,81c0,1.92,0,3.84,0,5.76c1.91,0,3.83,0,5.761,0c0-3.899,0-7.8,0-11.7c0-1.92,0-3.84,0-5.76
	s0-3.84,0-5.76s0-3.84,0-5.76c-1.931,0-3.851,0-5.761,0C40.5,65.521,40.5,73.26,40.5,81z"/>
<path fill="#232034" d="M46.261,98.28c0,1.92,0,3.84,0,5.76c1.92,0,3.84,0,5.76,0c0-1.92,0-3.84,0-5.76
	C50.101,98.28,48.181,98.28,46.261,98.28z"/>
<path fill="#232034" d="M46.261,86.76c0,1.92,0,3.84,0,5.761c1.92,0,3.84,0,5.76,0c0-1.921,0-3.841,0-5.761
	C50.101,86.76,48.181,86.76,46.261,86.76z"/>
<path fill="#AAAAAB" d="M46.261,75.06c0,3.9,0,7.801,0,11.7c1.92,0,3.84,0,5.76,0s3.83,0,5.76,0c0,1.92,0,3.84,0,5.761
	c1.92,0,3.84,0,5.76,0c0-1.921,0-3.841,0-5.761c1.92,0,3.83,0,5.76,0c0,1.92,0,3.84,0,5.761c1.98,0,3.961,0,5.94,0
	c0-1.921,0-3.841,0-5.761c1.92,0,3.84,0,5.76,0c0,1.92,0,3.84,0,5.761c1.91,0,3.83,0,5.76,0c0,1.92,0,3.84,0,5.76
	c-3.85,0-7.68,0-11.52,0c0,1.92,0,3.84,0,5.76c-0.181,0-0.37,0-0.54,0c-5.641,0-11.29,0-16.92,0c0,1.92,0,3.84,0,5.76
	c1.98,0,3.96,0,5.939,0c1.92,0,3.84,0,5.76,0c3.84,0,7.681,0,11.521,0c0-1.92,0-3.84,0-5.76c1.91,0,3.83,0,5.76,0
	c1.92,0,3.84,0,5.76,0c0-1.44,0-2.88,0-4.32c0-1.439,0-2.88,0-4.319c0-2.88,0-5.761,0-8.641c-1.92,0-3.84,0-5.76,0
	c0-3.899,0-7.8,0-11.7c-1.93,0-3.85,0-5.76,0c-1.92,0-3.84,0-5.76,0c-1.979,0-3.96,0-5.94,0c0-1.92,0-3.84,0-5.76
	c-1.93,0-3.84,0-5.76,0c0-0.18,0-0.359,0-0.54c0-1.739,0-3.479,0-5.22c1.92,0,3.83,0,5.76,0c1.5,0,3,0,4.5,0c0.721,0,1.44,0,2.16,0
	c0.721,0,1.43,0,2.16,0c1.439,0,2.88,0,4.32,0c1.43,0,2.879,0,4.319,0c0,1.92,0,3.84,0,5.76c1.92,0,3.84,0,5.76,0
	c0-1.92,0-3.84,0-5.76c3.83,0,7.681,0,11.521,0c0-1.92,0-3.84,0-5.76c-1.92,0-3.84,0-5.76,0c0-3.84,0-7.681,0-11.521
	c-1.931,0-3.841,0-5.761,0c0-1.92,0-3.84,0-5.76c-1.92,0-3.84,0-5.76,0c-1.93,0-3.85,0-5.76,0c-1.92,0-3.84,0-5.76,0
	c-1.979,0-3.96,0-5.94,0c0,1.92,0,3.84,0,5.76c-1.93,0-3.84,0-5.76,0s-3.84,0-5.76,0c0,1.92,0,3.84,0,5.761c-1.93,0-3.84,0-5.76,0
	c0,1.92,0,3.84,0,5.76s0,3.84,0,5.76c1.92,0,3.83,0,5.76,0c0,3.84,0,7.68,0,11.52c1.92,0,3.84,0,5.76,0c0,1.98,0,3.961,0,5.94
	c-1.92,0-3.84,0-5.76,0c0-1.979,0-3.96,0-5.94c-1.93,0-3.84,0-5.76,0S48.181,75.06,46.261,75.06z"/>
<path fill="#F15A46" d="M46.261,69.3c0,1.92,0,3.84,0,5.76c1.92,0,3.84,0,5.76,0c0-1.92,0-3.84,0-5.76
	C50.101,69.3,48.181,69.3,46.261,69.3z"/>
<path fill="#010101" d="M46.261,63.54c0,1.92,0,3.84,0,5.76c1.92,0,3.84,0,5.76,0c0,1.92,0,3.84,0,5.76c1.92,0,3.83,0,5.76,0
	c0-3.84,0-7.68,0-11.52c-1.93,0-3.84,0-5.76,0S48.181,63.54,46.261,63.54z"/>
<path fill="#7B7B7B" d="M46.261,57.78c0,1.92,0,3.84,0,5.76c1.92,0,3.84,0,5.76,0c0-1.92,0-3.84,0-5.76
	C50.101,57.78,48.181,57.78,46.261,57.78z"/>
<path fill="#232034" d="M46.261,46.26c0,3.84,0,7.681,0,11.521c1.92,0,3.84,0,5.76,0c0-1.92,0-3.84,0-5.76c0-1.921,0-3.841,0-5.761
	C50.101,46.26,48.181,46.26,46.261,46.26z"/>
<path fill="#232034" d="M52.021,104.04c0,1.92,0,3.84,0,5.76c1.92,0,3.83,0,5.76,0c0-1.92,0-3.84,0-5.76
	C55.851,104.04,53.94,104.04,52.021,104.04z"/>
<path fill="#AAAAAB" d="M52.021,98.28c0,1.92,0,3.84,0,5.76c1.92,0,3.83,0,5.76,0c0-1.92,0-3.84,0-5.76
	C55.851,98.28,53.94,98.28,52.021,98.28z"/>
<path fill="#232034" d="M52.021,92.521c0,1.92,0,3.84,0,5.76c1.92,0,3.83,0,5.76,0c0-1.92,0-3.84,0-5.76
	C55.851,92.521,53.94,92.521,52.021,92.521z"/>
<path fill="#010101" d="M52.021,86.76c0,1.92,0,3.84,0,5.761c1.92,0,3.83,0,5.76,0c0-1.921,0-3.841,0-5.761
	C55.851,86.76,53.94,86.76,52.021,86.76z"/>
<path fill="#7B7B7B" d="M52.021,46.26c0,1.92,0,3.84,0,5.761c1.92,0,3.83,0,5.76,0c0-1.921,0-3.841,0-5.761
	C55.851,46.26,53.94,46.26,52.021,46.26z"/>
<path fill="#232034" d="M52.021,40.5c0,1.92,0,3.84,0,5.76c1.92,0,3.83,0,5.76,0c1.92,0,3.84,0,5.76,0c0-1.92,0-3.84,0-5.76
	C59.7,40.5,55.851,40.5,52.021,40.5z"/>
<path fill="#232034" d="M57.78,109.8c0,1.92,0,3.84,0,5.76c2.88,0,5.76,0,8.63,0c2.94,0,5.89,0,8.83,0c3.84,0,7.67,0,11.52,0
	c0-1.92,0-3.84,0-5.76c-1.93,0-3.85,0-5.76,0c-3.84,0-7.681,0-11.521,0c-1.92,0-3.84,0-5.76,0C61.74,109.8,59.761,109.8,57.78,109.8
	z"/>
<path fill="#010101" d="M57.78,98.28c0,1.92,0,3.84,0,5.76c5.63,0,11.279,0,16.92,0c0.17,0,0.359,0,0.54,0c0-1.92,0-3.84,0-5.76
	c3.84,0,7.67,0,11.52,0c0-1.92,0-3.84,0-5.76c-1.93,0-3.85,0-5.76,0c0-1.921,0-3.841,0-5.761c-1.92,0-3.84,0-5.76,0
	c0,1.92,0,3.84,0,5.761c-1.979,0-3.96,0-5.94,0c0-1.921,0-3.841,0-5.761c-1.93,0-3.84,0-5.76,0c0,1.92,0,3.84,0,5.761
	c-1.92,0-3.84,0-5.76,0C57.78,94.44,57.78,96.36,57.78,98.28z"/>
<path fill="#010101" d="M57.78,75.06c0,1.98,0,3.961,0,5.94c1.92,0,3.84,0,5.76,0c0-1.979,0-3.96,0-5.94
	C61.62,75.06,59.7,75.06,57.78,75.06z"/>
<path fill="#7B7B7B" d="M63.54,68.76c0,0.181,0,0.36,0,0.54c1.92,0,3.83,0,5.76,0c0-1.92,0-3.84,0-5.76c-1.93,0-3.84,0-5.76,0
	C63.54,65.28,63.54,67.021,63.54,68.76z"/>
<path fill="#7B7B7B" d="M63.54,40.5c0,1.92,0,3.84,0,5.76c1.92,0,3.83,0,5.76,0c0-1.92,0-3.84,0-5.76
	C67.37,40.5,65.46,40.5,63.54,40.5z"/>
<path fill="#232034" d="M63.54,34.74c0,1.92,0,3.84,0,5.76c1.92,0,3.83,0,5.76,0c1.98,0,3.961,0,5.94,0c1.92,0,3.84,0,5.76,0
	c1.91,0,3.83,0,5.76,0c1.92,0,3.84,0,5.76,0s3.83,0,5.761,0c0-1.92,0-3.84,0-5.76c-0.061,0-0.12,0-0.181,0c-0.06,0-0.12,0-0.189,0
	c-0.11,0-0.23,0-0.351,0c-0.189,0-0.359,0-0.54,0c-0.359,0-0.72,0-1.08,0c-0.18,0-0.359,0-0.55,0c-0.17,0-0.35,0-0.54,0
	c-0.35,0-0.71,0-1.069,0c-1.44,0-2.891,0-4.32,0c-1.44,0-2.88,0-4.32,0c-1.439,0-2.879,0-4.32,0c-0.719,0-1.449,0-2.159,0
	c-0.181,0-0.36,0-0.54,0s-0.359,0-0.54,0c-0.36,0-0.729,0-1.08,0c-0.72,0-1.44,0-2.16,0c-0.18,0-0.36,0-0.54,0s-0.359,0-0.539,0
	c-0.371,0-0.721,0-1.08,0c-1.44,0-2.881,0-4.33,0c-0.711,0-1.44,0-2.15,0C64.979,34.74,64.261,34.74,63.54,34.74z"/>
<path fill="#F15A46" d="M69.3,69.3c0,1.92,0,3.84,0,5.76c1.98,0,3.961,0,5.94,0c0-1.92,0-3.84,0-5.76
	C73.261,69.3,71.28,69.3,69.3,69.3z"/>
<path fill="#010101" d="M69.3,63.54c0,1.92,0,3.84,0,5.76c1.98,0,3.961,0,5.94,0c0,1.92,0,3.84,0,5.76c1.92,0,3.84,0,5.76,0
	c0-1.92,0-3.84,0-5.76c1.91,0,3.83,0,5.76,0c0-1.92,0-3.84,0-5.76c-1.44,0-2.89,0-4.319,0c-1.44,0-2.881,0-4.32,0
	c-0.73,0-1.439,0-2.16,0c-0.72,0-1.439,0-2.16,0C72.3,63.54,70.8,63.54,69.3,63.54z"/>
<path fill="#7B7B7B" d="M81,104.04c0,1.92,0,3.84,0,5.76c1.91,0,3.83,0,5.76,0c0-1.92,0-3.84,0-5.76
	C84.83,104.04,82.91,104.04,81,104.04z"/>
<path fill="#7B7B7B" d="M81,69.3c0,1.92,0,3.84,0,5.76c1.91,0,3.83,0,5.76,0c0,3.9,0,7.801,0,11.7c1.92,0,3.84,0,5.76,0
	c0-1.92,0-3.84,0-5.76c1.92,0,3.83,0,5.761,0c0-1.92,0-3.84,0-5.76c0-0.061,0-0.12,0-0.181c1.92,0,3.84,0,5.76,0
	c0-1.92,0-3.84,0-5.76c1.92,0,3.83,0,5.76,0c0-5.76,0-11.52,0-17.279c-1.93,0-3.84,0-5.76,0c0-1.921,0-3.841,0-5.761
	c-1.92,0-3.84,0-5.76,0c0,3.84,0,7.681,0,11.521c1.92,0,3.84,0,5.76,0c0,1.92,0,3.84,0,5.76c-3.84,0-7.69,0-11.521,0
	c0,1.92,0,3.84,0,5.76c-1.92,0-3.84,0-5.76,0C84.83,69.3,82.91,69.3,81,69.3z"/>
<path fill="#232034" d="M86.76,104.04c0,1.92,0,3.84,0,5.76c1.92,0,3.84,0,5.76,0c0-1.92,0-3.84,0-5.76
	C90.6,104.04,88.68,104.04,86.76,104.04z"/>
<path fill="#D42C41" d="M92.52,132.84c0,1.92,0,3.84,0,5.76c3.83,0,7.681,0,11.521,0c0,1.921,0,3.841,0,5.761
	c5.76,0,11.52,0,17.279,0c2.881,0,5.761,0,8.641,0s5.76,0,8.64,0c0-1.92,0-3.84,0-5.761c0.96,0,1.92,0,2.88,0c0.48,0,0.96,0,1.431,0
	c0.55,0,1.09,0,1.63,0c0-1.92,0-3.84,0-5.76c0.18,0,0.35,0,0.54,0c0.359,0,0.72,0,1.08,0c0.42,0,0.84,0,1.25,0
	c0.37,0,0.729,0,1.09,0c0.18,0,0.35,0,0.54,0c0.24,0,0.479,0,0.72,0c0.18,0,0.36,0,0.54,0c0-5.76,0-11.52,0-17.28
	c-1.93,0-3.84,0-5.76,0c0-0.18,0-0.359,0-0.539c0-1.561,0-3.12,0-4.681c0-0.18,0-0.359,0-0.54c-1.86,0-3.721,0-5.58,0
	c-0.9,0-1.8,0-2.7,0c-0.479,0-0.96,0-1.44,0c-0.489,0-0.97,0-1.449,0c-0.17,0-0.351,0-0.53,0c0,1.92,0,3.84,0,5.76
	c1.92,0,3.84,0,5.76,0c0,1.921,0,3.841,0,5.761c-1.92,0-3.84,0-5.76,0c0,3.84,0,7.68,0,11.52c-1.93,0-3.84,0-5.76,0
	c0,1.92,0,3.84,0,5.76c-2.88,0-5.761,0-8.641,0s-5.76,0-8.64,0c0-1.92,0-3.84,0-5.76c-0.18,0-0.36,0-0.54,0s-0.37,0-0.54,0
	c-0.37,0-0.72,0-1.08,0c-0.18,0-0.359,0-0.54,0c-0.189,0-0.359,0-0.54,0c-0.359,0-0.72,0-1.08,0c-1.439,0-2.88,0-4.319,0
	C98.28,132.84,95.39,132.84,92.52,132.84z"/>
<path fill="#232034" d="M92.52,99.72c0,1.44,0,2.88,0,4.32c1.92,0,3.83,0,5.761,0c0-1.92,0-3.84,0-5.76c0-3.84,0-7.681,0-11.521
	c1.92,0,3.84,0,5.76,0c0-1.92,0-3.84,0-5.76c1.92,0,3.83,0,5.76,0c0-1.02,0-2.04,0-3.06c0-0.96,0-1.92,0-2.881c1.92,0,3.84,0,5.76,0
	c0-7.68,0-15.359,0-23.039c-1.92,0-3.84,0-5.76,0c0,5.76,0,11.52,0,17.279c-1.93,0-3.84,0-5.76,0c0,1.92,0,3.84,0,5.76
	c-1.92,0-3.84,0-5.76,0c0,0.061,0,0.12,0,0.181c0,1.92,0,3.84,0,5.76c-1.931,0-3.841,0-5.761,0c0,1.92,0,3.84,0,5.76
	c0,2.88,0,5.761,0,8.641C92.52,96.84,92.52,98.28,92.52,99.72z"/>
<path fill="#7B7B7B" d="M92.52,40.5c0,1.92,0,3.84,0,5.76c1.92,0,3.83,0,5.761,0c0-1.92,0-3.84,0-5.76
	C96.35,40.5,94.439,40.5,92.52,40.5z"/>
<path fill="#F79C7F" d="M98.28,86.76c0,3.84,0,7.681,0,11.521c3.84,0,7.68,0,11.52,0c0-1.92,0-3.84,0-5.76c0.18,0,0.36,0,0.54,0
	c0.78,0,1.55,0,2.34,0c0.78,0,1.561,0,2.34,0c0.181,0,0.351,0,0.54,0c0-5.82,0-11.641,0-17.461c-1.92,0-3.84,0-5.76,0
	c0,0.961,0,1.921,0,2.881c0,1.02,0,2.04,0,3.06c-1.93,0-3.84,0-5.76,0c0,1.92,0,3.84,0,5.76C102.12,86.76,100.2,86.76,98.28,86.76z"
	/>
<path fill="#232034" d="M98.28,40.5c0,1.92,0,3.84,0,5.76c1.92,0,3.84,0,5.76,0c0-1.92,0-3.84,0-5.76
	C102.12,40.5,100.2,40.5,98.28,40.5z"/>
<path fill="#F79C7F" d="M98.28,34.74c0,1.92,0,3.84,0,5.76c1.92,0,3.84,0,5.76,0c0-1.92,0-3.84,0-5.76
	C102.12,34.74,100.2,34.74,98.28,34.74z"/>
<path fill="#232034" d="M104.04,46.26c0,1.92,0,3.84,0,5.761c1.92,0,3.83,0,5.76,0c0-1.921,0-3.841,0-5.761
	C107.87,46.26,105.96,46.26,104.04,46.26z"/>
<path fill="#F79C7F" d="M109.8,46.26c0,1.92,0,3.84,0,5.761c1.92,0,3.84,0,5.76,0c0,7.68,0,15.359,0,23.039c1.92,0,3.83,0,5.76,0
	c0-1.92,0-3.84,0-5.76c0.181,0,0.36,0,0.53,0c3.67,0,7.33,0,10.99,0c0-1.92,0-3.84,0-5.76c1.92,0,3.84,0,5.76,0
	c0-2.88,0-5.76,0-8.64s0-5.761,0-8.641c-1.439,0-2.88,0-4.319,0c-1.44,0-2.891,0-4.32,0c-0.72,0-1.44,0-2.16,0s-1.45,0-2.16,0
	c-0.729,0-1.439,0-2.16,0c-0.72,0-1.439,0-2.16,0c0-1.92,0-3.84,0-5.76c-1.93,0-3.84,0-5.76,0c0,1.92,0,3.84,0,5.76
	C113.64,46.26,111.72,46.26,109.8,46.26z"/>
<path fill="#D42C41" d="M127.08,86.76c0,7.681,0,15.36,0,23.04c1.92,0,3.83,0,5.76,0c0-3.84,0-7.68,0-11.52c1.92,0,3.84,0,5.76,0
	c0-1.38,0-2.76,0-4.141c0-1.439,0-2.88,0-4.319c0-1.44,0-2.88,0-4.32s0-2.88,0-4.32c0-0.06,0-0.12,0-0.18c0.181,0,0.36,0,0.54,0
	c1.73,0,3.48,0,5.21,0c0.91,0,1.811,0,2.71,0c0.9,0,1.79,0,2.7,0c0.18,0,0.36,0,0.54,0c0-1.979,0-3.96,0-5.94c-1.93,0-3.84,0-5.76,0
	c0-1.92,0-3.84,0-5.76c-0.061,0-0.13,0-0.19,0c-1.91,0-3.83,0-5.75,0c0,1.92,0,3.84,0,5.76c-1.92,0-3.84,0-5.76,0
	c0,3.9,0,7.801,0,11.7C130.91,86.76,129,86.76,127.08,86.76z"/>
<path fill="#D42C41" d="M150.3,69.3c0,1.92,0,3.84,0,5.76c1.92,0,3.84,0,5.76,0c0-1.92,0-3.84,0-5.76
	C154.14,69.3,152.22,69.3,150.3,69.3z"/>
</svg>
