<?xml version="1.0" encoding="utf-8"?>
<!-- Generator: Adobe Illustrator 15.0.0, SVG Export Plug-In  -->
<!DOCTYPE svg PUBLIC "-//W3C//DTD SVG 1.1//EN" "http://www.w3.org/Graphics/SVG/1.1/DTD/svg11.dtd" [
	<!ENTITY ns_flows "http://ns.adobe.com/Flows/1.0/">
]>
<svg version="1.1"
	 xmlns="http://www.w3.org/2000/svg" xmlns:xlink="http://www.w3.org/1999/xlink" xmlns:a="http://ns.adobe.com/AdobeSVGViewerExtensions/3.0/"
	 x="0px" y="0px" width="200px" height="200px" viewBox="-10.55 -22.03 200 200" enable-background="new -10.55 -22.03 200 200"
	 xml:space="preserve">
<defs>
</defs>
<path fill="#D42C41" d="M0,73.44c0,0.54,0,1.08,0,1.62c1.92,0,3.84,0,5.76,0c0,0.18,0,0.36,0,0.54c0,0.42,0,0.84,0,1.26
	c0,0.48,0,0.96,0,1.44c0,0.18,0,0.36,0,0.54c0,0.239,0,0.479,0,0.72c0,0.48,0,0.96,0,1.439c0,0.9,0,1.801,0,2.701
	c0,0.959,0,1.92,0,2.879c1.92,0,3.83,0,5.75,0c0,1.92,0,3.841,0,5.761c1.92,0,3.84,0,5.76,0c0,0.18,0,0.36,0,0.54s0,0.359,0,0.54
	c0,0.18,0,0.36,0,0.54c0.01,0.42,0,0.84,0,1.26c0,0.18,0,0.359,0,0.54s0,0.36,0,0.54c0.01,0.42,0,0.84,0,1.26c0,0.18,0,0.36,0,0.54
	c1.931,0,3.851,0,5.771,0c0,0.181,0,0.36,0,0.54s0,0.359,0,0.54c0,0.24,0,0.479,0,0.72c0,0.48,0,0.961,0,1.44c0,0.18,0,0.36,0,0.54
	c0,0.24,0,0.48,0,0.72c0,0.479,0,0.96,0,1.44c0,0.18,0,0.359,0,0.539c0,0.24,0,0.48,0,0.721c0,0.48,0,0.96,0,1.439
	c0,0.961,0,1.92,0,2.881c1.92,0,3.84,0,5.76,0c0,1.92,0,3.84,0,5.76c1.92,0,3.84,0,5.75,0c0,0.18,0,0.359,0,0.54
	c0,0.18,0,0.36,0,0.54s0,0.359,0,0.539c0,0.421,0,0.841,0,1.261c0,0.181,0,0.36,0,0.54s0,0.359,0,0.54c0,0.18,0,0.36,0,0.54
	c0,0.24,0,0.48,0,0.72c0,0.181,0,0.36,0,0.54c3.84,0,7.689,0,11.53,0c0,3.84,0,7.68,0,11.52c1.92,0,3.84,0,5.76,0
	c0,0.181,0,0.36,0,0.541c0,1.56,0,3.119,0,4.68c0,0.18,0,0.359,0,0.54c1.92,0,3.84,0,5.75,0c0,0.18,0,0.36,0,0.54
	c0,1.619,0,3.24,0,4.859c0,0.18,0,0.36,0,0.541c1.92,0,3.84,0,5.76,0c0,1.92,0,3.84,0,5.76c4.811,0,9.61,0,14.41,0
	c4.86,0,9.71,0,14.58,0c0,1.92,0,3.84,0,5.76c7.67,0,15.36,0,23.04,0c0-1.92,0-3.84,0-5.76c0.17,0,0.359,0,0.54,0
	c1.8,0,3.59,0,5.39,0c1.87,0,3.73,0,5.58,0c0-1.92,0-3.84,0-5.76c0.12,0,0.25,0,0.37,0c1.38,0,2.75,0,4.13,0c1.45,0,2.88,0,4.33,0
	c2.87,0,5.75,0,8.63,0c0-0.961,0-1.92,0-2.881c0-0.48,0-0.96,0-1.439c0-0.24,0-0.48,0-0.721c0-0.119,0-0.24,0-0.359
	c0-0.18,0-0.36,0-0.54c0.19,0,0.37,0,0.54,0c1.57,0,3.12,0,4.69,0c0.18,0,0.35,0,0.54,0c0-3.841,0-7.681,0-11.521
	c0.18,0,0.35,0,0.54,0c1.56,0,3.109,0,4.68,0c0.17,0,0.36,0,0.54,0c0-1.439,0-2.88,0-4.32c0-1.439,0-2.879,0-4.319s0-2.88,0-4.319
	c0-1.441,0-2.881,0-4.32c1.92,0,3.84,0,5.76,0c0-3.84,0-7.68,0-11.521c-1.92,0-3.84,0-5.76,0c0,1.92,0,3.841,0,5.761
	c-1.92,0-3.84,0-5.76,0c0,1.92,0,3.84,0,5.76c-1.92,0-3.851,0-5.771,0c0,1.92,0,3.84,0,5.76c-0.47,0-0.96,0-1.43,0
	c-0.49,0-0.96,0-1.45,0c-0.47,0-0.96,0-1.43,0c-0.54,0-1.08,0-1.62,0c0,0.18,0,0.359,0,0.54c0,0.12,0,0.239,0,0.36
	c0,0.18,0,0.359,0,0.539c0,0.36,0,0.721,0,1.08c0,0.721,0,1.44,0,2.16c0,1.381,0,2.76,0,4.141c0,2.819,0,5.64,0,8.459
	c-0.181,0-0.37,0-0.54,0c-0.12,0-0.24,0-0.37,0c-0.17,0-0.35,0-0.54,0c-0.35,0-0.71,0-1.08,0c-0.12,0-0.229,0-0.35,0
	c-0.19,0-0.36,0-0.54,0c-0.19,0-0.36,0-0.54,0c-0.19,0-0.37,0-0.54,0c-0.12,0-0.24,0-0.37,0c-0.17,0-0.35,0-0.54,0
	c-0.35,0-0.71,0-1.08,0c-0.17,0-0.35,0-0.54,0c-0.17,0-0.35,0-0.54,0c-0.17,0-0.35,0-0.54,0c-0.17,0-0.35,0-0.54,0
	c-0.109,0-0.229,0-0.35,0c-0.181,0-0.37,0-0.54,0c-0.37,0-0.72,0-1.08,0c-0.12,0-0.25,0-0.37,0c-0.17,0-0.35,0-0.54,0
	c-0.17,0-0.35,0-0.54,0c-0.17,0-0.35,0-0.54,0c-0.109,0-0.229,0-0.35,0c-0.19,0-0.37,0-0.54,0c-0.37,0-0.72,0-1.08,0
	c-0.72,0-1.45,0-2.16,0c-0.18,0-0.37,0-0.54,0c0,1.92,0,3.84,0,5.761c-0.18,0-0.37,0-0.55,0c-0.66,0-1.32,0-1.97,0
	c-0.66,0-1.32,0-1.98,0c-0.13,0-0.25,0-0.37,0c-0.18,0-0.35,0-0.53,0c-0.359,0-0.729,0-1.079,0c-0.19,0-0.36,0-0.54,0
	c-0.19,0-0.36,0-0.54,0c-0.36,0-0.73,0-1.08,0c-0.12,0-0.24,0-0.36,0c-0.18,0-0.37,0-0.55,0c-0.351,0-0.71,0-1.08,0
	c-0.66,0-1.31,0-1.97,0c-0.12,0-0.24,0-0.36,0c-0.18,0-0.37,0-0.54,0c-0.37,0-0.72,0-1.09,0c-0.71,0-1.43,0-2.16,0
	c-0.17,0-0.35,0-0.54,0c0,0.06,0,0.12,0,0.18c0,1.92,0,3.841,0,5.761c-5.76,0-11.51,0-17.27,0c0-0.961,0-1.92,0-2.881
	c0-0.48,0-0.96,0-1.439c0-0.541,0-1.08,0-1.62c-7.74,0-15.49,0-23.23,0c0-1.921,0-3.841,0-5.761c-1.92,0-3.84,0-5.76,0
	c0-3.84,0-7.68,0-11.52c-1.91,0-3.83,0-5.75,0c0-1.92,0-3.84,0-5.76c-3.84,0-7.68,0-11.53,0c0-0.18,0-0.36,0-0.54
	c0-0.12,0-0.24,0-0.36c0-0.18,0-0.359,0-0.539c0-0.361,0-0.721,0-1.08c0-0.121,0-0.24,0-0.361c0-0.18,0-0.359,0-0.539
	c0-0.36,0-0.721,0-1.08c0-0.12,0-0.24,0-0.36c0-0.18,0-0.36,0-0.54c0-0.359,0-0.72,0-1.08c0-0.18,0-0.359,0-0.539
	c0-0.181,0-0.361,0-0.541c0-0.359,0-0.72,0-1.08c0-0.119,0-0.24,0-0.359c0-0.18,0-0.36,0-0.54c0-0.36,0-0.72,0-1.08
	c0-0.12,0-0.24,0-0.36c0-0.18,0-0.359,0-0.539c0-0.361,0-0.721,0-1.08c0-0.121,0-0.24,0-0.36c0-0.181,0-0.36,0-0.54
	c0-0.36,0-0.721,0-1.08c0-0.721,0-1.439,0-2.16c0-0.18,0-0.359,0-0.54c-3.84,0-7.67,0-11.51,0c0-3.84,0-7.68,0-11.521
	c-3.84,0-7.68,0-11.53,0c0-3.84,0-7.679,0-11.52c-1.92,0-3.84,0-5.76,0c0-0.18,0-0.36,0-0.54c0-0.18,0-0.36,0-0.54
	c0-0.18,0-0.36,0-0.54c0-0.18,0-0.36,0-0.54c0-0.18,0-0.36,0-0.54c0-0.18,0-0.36,0-0.54c0-0.18,0-0.36,0-0.54s0-0.36,0-0.54
	s0-0.36,0-0.54s0-0.36,0-0.54s0-0.36,0-0.54c0-0.18,0-0.36,0-0.54c0-0.18,0-0.36,0-0.54c0-0.18,0-0.36,0-0.54c0-0.18,0-0.36,0-0.54
	c0-0.18,0-0.36,0-0.54c0-0.18,0-0.36,0-0.54c0-0.18,0-0.36,0-0.54c0-0.18,0-0.36,0-0.54c0-0.18,0-0.36,0-0.54s0-0.36,0-0.54
	s0-0.36,0-0.54s0-0.36,0-0.54c0-0.18,0-0.36,0-0.54c0-0.18,0-0.36,0-0.54c0-0.18,0-0.36,0-0.54c0-0.18,0-0.36,0-0.54
	c0-0.18,0-0.36,0-0.54c0-0.36,0-0.72,0-1.08c0-0.18,0-0.36,0-0.54c0-0.24,0-0.48,0-0.72c-1.92,0-3.83,0-5.75,0c0,1.92,0,3.84,0,5.76
	c-0.18,0-0.37,0-0.54,0c-0.18,0-0.37,0-0.54,0c-0.18,0-0.37,0-0.54,0c-0.18,0-0.37,0-0.55,0c-0.24,0-0.47,0-0.71,0
	c-0.18,0-0.37,0-0.54,0c-0.18,0-0.37,0-0.54,0c-0.18,0-0.37,0-0.54,0c-0.25,0-0.49,0-0.72,0c-0.19,0-0.36,0-0.54,0
	c0,0.96,0,1.92,0,2.88s0,1.92,0,2.88S0,71.04,0,72C0,72.48,0,72.96,0,73.44z"/>
<path fill="#F15A46" d="M11.51,74.52c0,0.18,0,0.36,0,0.54c1.92,0,3.84,0,5.76,0c0,3.84,0,7.68,0,11.52c3.851,0,7.69,0,11.53,0
	c0,3.841,0,7.681,0,11.521c3.84,0,7.67,0,11.51,0c0,0.181,0,0.36,0,0.54c0,0.721,0,1.439,0,2.16c0,0.359,0,0.72,0,1.08
	c0,0.18,0,0.359,0,0.54c0,0.12,0,0.239,0,0.36c0,0.359,0,0.719,0,1.08c0,0.18,0,0.359,0,0.539c0,0.12,0,0.24,0,0.36
	c0,0.36,0,0.72,0,1.08c0,0.18,0,0.36,0,0.54c0,0.119,0,0.24,0,0.359c0,0.36,0,0.721,0,1.08c0,0.18,0,0.36,0,0.541
	c0,0.18,0,0.359,0,0.539c0,0.36,0,0.721,0,1.08c0,0.18,0,0.36,0,0.54c0,0.12,0,0.24,0,0.36c0,0.359,0,0.72,0,1.08
	c0,0.18,0,0.359,0,0.539c0,0.121,0,0.24,0,0.361c0,0.359,0,0.719,0,1.08c0,0.18,0,0.359,0,0.539c0,0.12,0,0.24,0,0.36
	c0,0.18,0,0.36,0,0.54c3.851,0,7.69,0,11.53,0c0,1.92,0,3.84,0,5.76c1.92,0,3.84,0,5.75,0c0,3.84,0,7.68,0,11.52
	c1.92,0,3.84,0,5.76,0c0,1.92,0,3.84,0,5.761c7.74,0,15.49,0,23.23,0c0,0.54,0,1.079,0,1.62c0,0.479,0,0.959,0,1.439
	c0,0.961,0,1.92,0,2.881c5.76,0,11.51,0,17.27,0c0-1.92,0-3.841,0-5.761c0-0.06,0-0.12,0-0.18c0.19,0,0.37,0,0.54,0
	c0.73,0,1.45,0,2.16,0c0.37,0,0.72,0,1.09,0c0.17,0,0.36,0,0.54,0c0.12,0,0.24,0,0.36,0c0.66,0,1.31,0,1.97,0c0.37,0,0.729,0,1.08,0
	c0.18,0,0.37,0,0.55,0c0.12,0,0.24,0,0.36,0c0.35,0,0.72,0,1.08,0c0.18,0,0.35,0,0.54,0c0.18,0,0.35,0,0.54,0c0.35,0,0.72,0,1.079,0
	c0.181,0,0.351,0,0.53,0c0.12,0,0.24,0,0.37,0c0.66,0,1.32,0,1.98,0c0.649,0,1.31,0,1.97,0c0.18,0,0.37,0,0.55,0
	c0-1.921,0-3.841,0-5.761c0.17,0,0.36,0,0.54,0c0.71,0,1.44,0,2.16,0c0.36,0,0.71,0,1.08,0c0.17,0,0.35,0,0.54,0
	c0.12,0,0.24,0,0.35,0c0.19,0,0.37,0,0.54,0c0.19,0,0.37,0,0.54,0c0.19,0,0.37,0,0.54,0c0.12,0,0.25,0,0.37,0c0.36,0,0.71,0,1.08,0
	c0.17,0,0.359,0,0.54,0c0.12,0,0.24,0,0.35,0c0.19,0,0.37,0,0.54,0c0.19,0,0.37,0,0.54,0c0.19,0,0.37,0,0.54,0c0.19,0,0.37,0,0.54,0
	c0.37,0,0.73,0,1.08,0c0.19,0,0.37,0,0.54,0c0.13,0,0.25,0,0.37,0c0.17,0,0.35,0,0.54,0c0.18,0,0.35,0,0.54,0c0.18,0,0.35,0,0.54,0
	c0.12,0,0.229,0,0.35,0c0.37,0,0.73,0,1.08,0c0.19,0,0.37,0,0.54,0c0.13,0,0.25,0,0.37,0c0.17,0,0.359,0,0.54,0
	c0-2.819,0-5.64,0-8.459c0-1.381,0-2.76,0-4.141c0-0.72,0-1.439,0-2.16c0-0.359,0-0.72,0-1.08c0-0.18,0-0.359,0-0.539
	c0-0.121,0-0.24,0-0.36c0-0.181,0-0.36,0-0.54c0.54,0,1.08,0,1.62,0c0.47,0,0.96,0,1.43,0c0.49,0,0.96,0,1.45,0
	c0.47,0,0.96,0,1.43,0c0-1.92,0-3.84,0-5.76c1.92,0,3.851,0,5.771,0c0-1.92,0-3.84,0-5.76c1.92,0,3.84,0,5.76,0
	c0-1.92,0-3.841,0-5.761c1.92,0,3.84,0,5.76,0c0-1.44,0-2.88,0-4.319c0-0.721,0-1.44,0-2.16c0-0.36,0-0.721,0-1.08
	c0-0.18,0-0.36,0-0.541c0-0.119,0-0.239,0-0.359c0-0.72,0-1.439,0-2.16c0-0.359,0-0.72,0-1.08c0-0.18,0-0.359,0-0.539
	c0-0.121,0-0.24,0-0.361c0-0.719,0-1.439,0-2.159c0-0.36,0-0.72,0-1.08c0-0.181,0-0.36,0-0.54c0-0.12,0-0.24,0-0.359
	c0-0.181,0-0.361,0-0.541c1.91,0,3.83,0,5.75,0c0-1.5,0-3,0-4.5c0-1.44,0-2.88,0-4.32c0-1.44,0-2.88,0-4.32s0-2.88,0-4.32
	c-1.92,0-3.84,0-5.75,0c0-3.84,0-7.68,0-11.52c-3.84,0-7.68,0-11.52,0c0-1.92,0-3.84,0-5.76c-3.9,0-7.811,0-11.7,0
	c0,1.92,0,3.84,0,5.76c-1.92,0-3.84,0-5.76,0c0-7.68,0-15.36,0-23.04c-1.921,0-3.851,0-5.771,0c0-3.84,0-7.68,0-11.52
	c-7.67,0-15.35,0-23.04,0c0-1.92,0-3.84,0-5.76c-0.17,0-0.35,0-0.54,0c-0.109,0-0.229,0-0.35,0c-0.19,0-0.37,0-0.54,0
	c-0.37,0-0.72,0-1.08,0c-0.66,0-1.33,0-1.99,0c-1.38,0-2.76,0-4.13,0c-0.13,0-0.25,0-0.37,0c-0.17,0-0.35,0-0.54,0
	c-0.35,0-0.72,0-1.07,0c-0.659,0-1.319,0-1.979,0c-1.38,0-2.76,0-4.14,0c-0.19,0-0.36,0-0.54,0c0,1.92,0,3.84,0,5.76
	c-3.841,0-7.69,0-11.53,0c0,2.88,0,5.76,0,8.64c0,1.44,0,2.88,0,4.32s0,2.88,0,4.32c1.92,0,3.84,0,5.76,0c0,1.92,0,3.84,0,5.76
	c2.891,0,5.771,0,8.65,0s5.76,0,8.63,0c0-1.92,0-3.84,0-5.76c3.84,0,7.68,0,11.53,0c0,3.84,0,7.68,0,11.52c1.92,0,3.84,0,5.76,0
	c0,1.92,0,3.84,0,5.76c1.92,0,3.84,0,5.76,0c0,1.92,0,3.84,0,5.76s0,3.84,0,5.76c1.91,0,3.83,0,5.75,0c0-1.92,0-3.84,0-5.76
	c1.92,0,3.85,0,5.771,0c0,1.92,0,3.84,0,5.76c1.92,0,3.84,0,5.76,0c0,1.92,0,3.84,0,5.76c0.54,0,1.08,0,1.62,0c0.47,0,0.96,0,1.43,0
	c0.96,0,1.92,0,2.88,0c0,0.54,0,1.08,0,1.62c0,0.48,0,0.96,0,1.44c0,0.96,0,1.92,0,2.88c3.851,0,7.69,0,11.53,0
	c0,0.18,0,0.36,0,0.54c0,0.84,0,1.68,0,2.52c0,0.42,0,0.84,0,1.26s0,0.84,0,1.26c0,0.061,0,0.12,0,0.18c-3.84,0-7.68,0-11.53,0
	c0,1.92,0,3.84,0,5.76c-3.89,0-7.8,0-11.689,0c0-1.92,0-3.84,0-5.76c-1.921,0-3.851,0-5.771,0c0-1.919,0-3.84,0-5.76
	c-1.92,0-3.84,0-5.75,0c0,1.92,0,3.84,0,5.76c-1.92,0-3.84,0-5.76,0c0,1.92,0,3.84,0,5.76c-1.92,0-3.84,0-5.76,0
	c0,1.92,0,3.841,0,5.761c-1.92,0-3.851,0-5.771,0c0,2.88,0,5.76,0,8.64c0,2.881,0,5.76,0,8.641c-1.92,0-3.84,0-5.76,0
	c0,1.92,0,3.84,0,5.76c-1.91,0-3.83,0-5.75,0c0,1.92,0,3.84,0,5.76c-0.18,0-0.37,0-0.54,0c-0.12,0-0.25,0-0.37,0
	c-0.17,0-0.35,0-0.54,0c-0.12,0-0.229,0-0.35,0c-0.19,0-0.36,0-0.54,0c-0.12,0-0.24,0-0.36,0c-0.18,0-0.37,0-0.55,0
	c-0.12,0-0.24,0-0.351,0c-1.199,0-2.399,0-3.6,0c-0.18,0-0.37,0-0.55,0c-0.12,0-0.24,0-0.351,0c-0.189,0-0.359,0-0.539,0
	c-0.12,0-0.24,0-0.36,0c-0.18,0-0.37,0-0.54,0c-0.12,0-0.25,0-0.37,0c-0.17,0-0.35,0-0.54,0c-0.12,0-0.229,0-0.35,0
	c-1.2,0-2.4,0-3.61,0c-0.17,0-0.35,0-0.54,0c-0.12,0-0.229,0-0.35,0c-0.19,0-0.36,0-0.54,0c-0.12,0-0.24,0-0.36,0
	c-0.18,0-0.37,0-0.55,0c-0.12,0-0.24,0-0.351,0c-0.189,0-0.359,0-0.539,0c-0.12,0-0.24,0-0.36,0c-0.18,0-0.37,0-0.54,0
	c-0.12,0-0.25,0-0.37,0c-0.17,0-0.35,0-0.54,0c-0.12,0-0.229,0-0.35,0c-0.19,0-0.36,0-0.54,0c-0.12,0-0.24,0-0.36,0
	c-0.18,0-0.37,0-0.55,0c-0.12,0-0.24,0-0.351,0c-0.189,0-0.359,0-0.539,0c-0.12,0-0.24,0-0.36,0c-0.18,0-0.37,0-0.54,0
	c-0.12,0-0.25,0-0.37,0c-0.17,0-0.35,0-0.54,0c-0.12,0-0.229,0-0.35,0c-0.19,0-0.36,0-0.54,0c-0.12,0-0.24,0-0.36,0
	c-0.18,0-0.37,0-0.55,0c-0.12,0-0.24,0-0.351,0c-0.189,0-0.359,0-0.539,0c-0.12,0-0.24,0-0.36,0c-0.54,0-1.08,0-1.62,0
	c-0.13,0-0.25,0-0.37,0c0-1.92,0-3.84,0-5.76c-1.92,0-3.84,0-5.76,0c0-1.92,0-3.84,0-5.76c-1.91,0-3.83,0-5.75,0
	c0-1.92,0-3.84,0-5.76c1.92,0,3.84,0,5.75,0c0-1.92,0-3.841,0-5.761c-1.91,0-3.83,0-5.75,0c0-1.92,0-3.84,0-5.76
	c-1.92,0-3.84,0-5.76,0c0-1.92,0-3.841,0-5.761c-3.841,0-7.69,0-11.53,0c0-0.959,0-1.92,0-2.879c0-0.961,0-1.92,0-2.881
	c0-0.959,0-1.919,0-2.879c0-0.96,0-1.92,0-2.88s0-1.92,0-2.88s0-1.92,0-2.88s0-1.92,0-2.88c0-0.48,0-0.96,0-1.44
	c0-0.48,0-0.96,0-1.44c0-0.06,0-0.12,0-0.18c3.84,0,7.689,0,11.53,0c0-3.84,0-7.68,0-11.52c1.92,0,3.84,0,5.76,0s3.84,0,5.75,0
	c0-1.92,0-3.84,0-5.76c0.55,0,1.09,0,1.63,0c0.48,0,0.96,0,1.44,0c0.96,0,1.92,0,2.88,0c1.92,0,3.84,0,5.76,0c0-1.92,0-3.84,0-5.76
	c1.92,0,3.84,0,5.75,0c0-1.92,0-3.84,0-5.76c-1.91,0-3.83,0-5.75,0c0-1.92,0-3.84,0-5.76c-0.061,0-0.12,0-0.18,0
	c-0.24,0-0.48,0-0.73,0c-0.229,0-0.47,0-0.71,0c-0.479,0-0.96,0-1.44,0c-0.97,0-1.93,0-2.89,0c0-1.92,0-3.84,0-5.76
	c-1.38,0-2.76,0-4.13,0c-1.45,0-2.88,0-4.33,0c-1.43,0-2.88,0-4.31,0c-0.19,0-0.36,0-0.54,0c-0.19,0-0.36,0-0.54,0
	c-0.36,0-0.73,0-1.08,0c-0.181,0-0.37,0-0.54,0c-0.18,0-0.37,0-0.54,0c-0.18,0-0.37,0-0.54,0c-0.25,0-0.49,0-0.72,0
	c0,1.92,0,3.84,0,5.76c-1.92,0-3.841,0-5.771,0c0,1.92,0,3.84,0,5.76c-1.92,0-3.84,0-5.76,0c0,3.84,0,7.68,0,11.52
	c-1.91,0-3.83,0-5.75,0c0,1.92,0,3.84,0,5.76c-3.84,0-7.68,0-11.53,0c0,1.92,0,3.84,0,5.76c-1.92,0-3.84,0-5.76,0
	c0,0.24,0,0.48,0,0.72c0,0.18,0,0.36,0,0.54c0,0.36,0,0.72,0,1.08c0,0.18,0,0.36,0,0.54c0,0.18,0,0.36,0,0.54c0,0.18,0,0.36,0,0.54
	c0,0.18,0,0.36,0,0.54c0,0.18,0,0.36,0,0.54c0,0.18,0,0.36,0,0.54s0,0.36,0,0.54s0,0.36,0,0.54s0,0.36,0,0.54c0,0.18,0,0.36,0,0.54
	c0,0.18,0,0.36,0,0.54c0,0.18,0,0.36,0,0.54c0,0.18,0,0.36,0,0.54c0,0.18,0,0.36,0,0.54c0,0.18,0,0.36,0,0.54c0,0.18,0,0.36,0,0.54
	c0,0.18,0,0.36,0,0.54c0,0.18,0,0.36,0,0.54s0,0.36,0,0.54s0,0.36,0,0.54s0,0.36,0,0.54s0,0.36,0,0.54c0,0.18,0,0.36,0,0.54
	c0,0.18,0,0.36,0,0.54c0,0.18,0,0.36,0,0.54c0,0.18,0,0.36,0,0.54C11.51,74.16,11.51,74.34,11.51,74.52z"/>
<path fill="#D42C41" d="M11.51,51.84c0,1.92,0,3.84,0,5.76c1.92,0,3.84,0,5.76,0c0-1.92,0-3.84,0-5.76
	C15.35,51.84,13.43,51.84,11.51,51.84z"/>
<path fill="#D42C41" d="M17.27,46.08c0,1.92,0,3.84,0,5.76c3.851,0,7.69,0,11.53,0c0-1.92,0-3.84,0-5.76c1.92,0,3.84,0,5.75,0
	c0-3.84,0-7.68,0-11.52c1.92,0,3.84,0,5.76,0c0-1.92,0-3.84,0-5.76c1.93,0,3.851,0,5.771,0c0-1.92,0-3.84,0-5.76
	c-0.19,0-0.36,0-0.54,0c-0.19,0-0.36,0-0.54,0c-0.19,0-0.36,0-0.54,0c-0.19,0-0.37,0-0.54,0c-0.72,0-1.45,0-2.16,0
	c-1.45,0-2.88,0-4.33,0c-2.88,0-5.75,0-8.63,0c0,1.92,0,3.84,0,5.76c-0.18,0-0.37,0-0.54,0c-0.79,0-1.56,0-2.34,0s-1.57,0-2.34,0
	c-0.19,0-0.36,0-0.54,0c0,0.18,0,0.36,0,0.54c0,0.18,0,0.36,0,0.54c0,0.36,0,0.72,0,1.08c0,0.18,0,0.36,0,0.54c0,0.18,0,0.36,0,0.54
	c0,0.36,0,0.72,0,1.08c0,0.18,0,0.36,0,0.54s0,0.36,0,0.54c0,0.36,0,0.72,0,1.08c0,0.18,0,0.36,0,0.54c0,0.18,0,0.36,0,0.54
	c0,0.36,0,0.72,0,1.08c0,0.18,0,0.36,0,0.54c0,0.18,0,0.36,0,0.54c0,0.36,0,0.72,0,1.08c0,0.18,0,0.36,0,0.54c0,0.18,0,0.36,0,0.54
	c0,0.36,0,0.72,0,1.08c0,0.18,0,0.36,0,0.54c0,0.18,0,0.36,0,0.54c0,0.36,0,0.72,0,1.08c0,0.72,0,1.44,0,2.16
	C21.12,46.08,19.2,46.08,17.27,46.08z"/>
<path fill="#F79C7F" d="M34.55,83.701c0,0.959,0,1.92,0,2.879c3.84,0,7.689,0,11.53,0c0-0.959,0-1.92,0-2.879
	c0-0.961,0-1.92,0-2.881c0-0.959,0-1.919,0-2.879c0-0.96,0-1.92,0-2.88s0-1.92,0-2.88s0-1.92,0-2.88s0-1.92,0-2.88
	c0-0.48,0-0.96,0-1.44c0-0.54,0-1.08,0-1.62c-3.841,0-7.69,0-11.53,0c0,0.06,0,0.12,0,0.18c0,0.48,0,0.96,0,1.44
	c0,0.48,0,0.96,0,1.44c0,0.96,0,1.92,0,2.88s0,1.92,0,2.88s0,1.92,0,2.88s0,1.92,0,2.88c0,0.96,0,1.92,0,2.879
	C34.55,81.781,34.55,82.74,34.55,83.701z"/>
<path fill="#232034" d="M46.08,86.58c0,1.92,0,3.841,0,5.761c1.92,0,3.84,0,5.76,0c0-3.841,0-7.681,0-11.521c0-1.919,0-3.84,0-5.76
	c0-0.54,0-1.08,0-1.62c0-0.48,0-0.96,0-1.44c0-0.96,0-1.92,0-2.88c0-1.92,0-3.84,0-5.76c-1.92,0-3.84,0-5.76,0c0,0.54,0,1.08,0,1.62
	c0,0.48,0,0.96,0,1.44c0,0.96,0,1.92,0,2.88s0,1.92,0,2.88s0,1.92,0,2.88s0,1.92,0,2.88c0,0.96,0,1.92,0,2.879
	c0,0.961,0,1.92,0,2.881C46.08,84.66,46.08,85.621,46.08,86.58z"/>
<path fill="#F79C7F" d="M46.08,51.84c0,3.84,0,7.68,0,11.52c1.92,0,3.84,0,5.76,0c0-3.84,0-7.68,0-11.52
	C49.92,51.84,48,51.84,46.08,51.84z"/>
<path fill="#D42C41" d="M46.08,17.28c0,1.92,0,3.84,0,5.76c0.229,0,0.47,0,0.72,0c0.17,0,0.36,0,0.54,0c0.17,0,0.36,0,0.54,0
	c0.17,0,0.359,0,0.54,0c0.35,0,0.72,0,1.08,0c0.18,0,0.35,0,0.54,0c0.18,0,0.35,0,0.54,0c1.43,0,2.88,0,4.31,0c1.45,0,2.88,0,4.33,0
	c1.37,0,2.75,0,4.13,0c0,1.92,0,3.84,0,5.76c0.96,0,1.92,0,2.89,0c0.48,0,0.961,0,1.44,0c0.24,0,0.48,0,0.71,0c0.25,0,0.49,0,0.73,0
	c0.06,0,0.119,0,0.18,0c0,1.92,0,3.84,0,5.76c1.92,0,3.84,0,5.75,0c0-1.44,0-2.88,0-4.32s0-2.88,0-4.32c0-2.88,0-5.76,0-8.64
	c3.84,0,7.689,0,11.53,0c0-1.92,0-3.84,0-5.76c0.18,0,0.35,0,0.54,0c1.38,0,2.76,0,4.14,0c0.66,0,1.32,0,1.979,0
	c0.351,0,0.721,0,1.07,0c0.19,0,0.37,0,0.54,0c0.12,0,0.24,0,0.37,0c1.37,0,2.75,0,4.13,0c0.66,0,1.33,0,1.99,0
	c0.36,0,0.71,0,1.08,0c0.17,0,0.35,0,0.54,0c0.12,0,0.24,0,0.35,0c0.19,0,0.37,0,0.54,0c0,1.92,0,3.84,0,5.76
	c7.69,0,15.37,0,23.04,0c0-1.92,0-3.84,0-5.76c-1.92,0-3.84,0-5.75,0c0-0.18,0-0.36,0-0.54c0-1.56,0-3.12,0-4.68
	c0-0.18,0-0.36,0-0.54c-7.68,0-15.37,0-23.05,0c0-1.92,0-3.84,0-5.76c-2.87,0-5.75,0-8.63,0c-1.45,0-2.88,0-4.32,0
	c-1.439,0-2.88,0-4.33,0c0,1.92,0,3.84,0,5.76c-0.17,0-0.35,0-0.54,0c-3.649,0-7.31,0-10.97,0c0,1.92,0,3.84,0,5.76
	c-0.18,0-0.37,0-0.54,0c-1.62,0-3.25,0-4.87,0c-0.17,0-0.35,0-0.54,0c0,1.92,0,3.84,0,5.76c-0.11,0-0.229,0-0.35,0
	c-1.38,0-2.761,0-4.15,0c-1.43,0-2.88,0-4.31,0c-1.38,0-2.771,0-4.15,0C48.96,17.28,47.51,17.28,46.08,17.28z"/>
<path fill="#232034" d="M51.84,103.861c0,1.92,0,3.84,0,5.76c1.92,0,3.84,0,5.75,0c0-1.92,0-3.84,0-5.76
	C55.68,103.861,53.76,103.861,51.84,103.861z"/>
<path fill="#232034" d="M51.84,92.34c0,1.92,0,3.84,0,5.76c1.92,0,3.84,0,5.75,0c0-1.92,0-3.84,0-5.76
	C55.68,92.34,53.76,92.34,51.84,92.34z"/>
<path fill="#AAAAAB" d="M51.84,80.82c0,3.84,0,7.68,0,11.521c1.92,0,3.84,0,5.75,0c1.92,0,3.84,0,5.76,0c0,1.92,0,3.84,0,5.76
	c0.54,0,1.08,0,1.62,0c0.49,0,0.96,0,1.45,0c0.47,0,0.96,0,1.43,0c0.49,0,0.96,0,1.45,0c0-1.92,0-3.84,0-5.76c0.17,0,0.36,0,0.54,0
	c0.84,0,1.67,0,2.51,0c0.42,0,0.851,0,1.271,0c0.229,0,0.47,0,0.72,0c0.12,0,0.24,0,0.36,0c0.06,0,0.119,0,0.18,0
	c0.05,0,0.12,0,0.17,0c0,1.92,0,3.84,0,5.76c1.92,0,3.84,0,5.76,0c0-1.92,0-3.84,0-5.76c1.93,0,3.851,0,5.771,0
	c0,1.92,0,3.84,0,5.76c1.92,0,3.84,0,5.76,0c0,1.92,0,3.841,0,5.761c-3.84,0-7.68,0-11.53,0c0,1.92,0,3.84,0,5.76
	c-0.17,0-0.35,0-0.54,0c-0.72,0-1.43,0-2.149,0c-0.19,0-0.36,0-0.54,0c-0.19,0-0.36,0-0.54,0c-0.12,0-0.24,0-0.36,0
	c-0.06,0-0.13,0-0.18,0c-0.12,0-0.24,0-0.36,0c-0.06,0-0.13,0-0.18,0c-0.19,0-0.37,0-0.54,0c-0.181,0-0.37,0-0.54,0
	c-0.18,0-0.37,0-0.54,0c-0.18,0-0.37,0-0.54,0c-0.37,0-0.72,0-1.08,0c-0.18,0-0.37,0-0.54,0c-0.13,0-0.25,0-0.37,0
	c-0.109,0-0.229,0-0.35,0c-0.07,0-0.12,0-0.19,0c-0.109,0-0.229,0-0.35,0c-0.07,0-0.12,0-0.181,0c-0.189,0-0.359,0-0.539,0
	c-0.19,0-0.36,0-0.54,0c-0.12,0-0.24,0-0.36,0c-0.061,0-0.12,0-0.18,0c-0.12,0-0.24,0-0.36,0c-0.06,0-0.12,0-0.18,0
	c-0.12,0-0.24,0-0.36,0c-0.06,0-0.13,0-0.18,0c-0.12,0-0.24,0-0.36,0c-0.06,0-0.13,0-0.18,0c-0.19,0-0.36,0-0.54,0
	c-0.19,0-0.37,0-0.54,0c-0.12,0-0.24,0-0.37,0c-0.05,0-0.12,0-0.17,0c-0.18,0-0.37,0-0.54,0c-0.37,0-0.72,0-1.08,0
	c-0.18,0-0.37,0-0.54,0c-0.13,0-0.25,0-0.37,0c0,1.92,0,3.84,0,5.76c7.74,0,15.49,0,23.23,0c0-1.92,0-3.84,0-5.76
	c1.92,0,3.84,0,5.76,0s3.84,0,5.75,0c0-1.44,0-2.881,0-4.32s0-2.88,0-4.32c0-1.439,0-2.88,0-4.32c0-1.439,0-2.879,0-4.319
	c-1.91,0-3.83,0-5.75,0c0-3.841,0-7.681,0-11.521c-1.92,0-3.84,0-5.76,0s-3.841,0-5.771,0c-1.92,0-3.84,0-5.76,0
	c0-1.919,0-3.84,0-5.76c-1.91,0-3.83,0-5.75,0c0-0.96,0-1.92,0-2.88c0-0.48,0-0.96,0-1.44c0-0.24,0-0.48,0-0.72
	c0-0.12,0-0.24,0-0.36c0-0.18,0-0.36,0-0.54c1.92,0,3.84,0,5.75,0c1.45,0,2.88,0,4.33,0c1.43,0,2.88,0,4.32,0c1.439,0,2.88,0,4.31,0
	c1.45,0,2.88,0,4.33,0c0,0.54,0,1.08,0,1.62c0,0.48,0,0.96,0,1.44c0,0.96,0,1.92,0,2.88c1.92,0,3.84,0,5.75,0c0-1.92,0-3.84,0-5.76
	c0-0.06,0-0.12,0-0.18c3.84,0,7.68,0,11.53,0c0-1.92,0-3.84,0-5.76c-1.92,0-3.851,0-5.771,0c0-3.84,0-7.68,0-11.52
	c-1.92,0-3.84,0-5.76,0c0-1.92,0-3.84,0-5.76c-7.67,0-15.351,0-23.04,0c0,1.92,0,3.84,0,5.76c-1.91,0-3.83,0-5.75,0
	c-0.54,0-1.08,0-1.62,0c-0.479,0-0.96,0-1.44,0c-0.97,0-1.93,0-2.89,0c0,1.92,0,3.84,0,5.76c-1.92,0-3.84,0-5.76,0
	c0,1.92,0,3.84,0,5.76s0,3.84,0,5.76c1.92,0,3.84,0,5.76,0c0,0.54,0,1.08,0,1.62c0,0.48,0,0.96,0,1.44c0,0.96,0,1.92,0,2.88
	c0,1.92,0,3.84,0,5.76c0.54,0,1.08,0,1.62,0c0.49,0,0.96,0,1.45,0c0.47,0,0.96,0,1.43,0c0.49,0,0.96,0,1.45,0c0,1.92,0,3.84,0,5.76
	c-0.54,0-1.08,0-1.62,0c-0.479,0-0.96,0-1.44,0c-0.479,0-0.97,0-1.439,0c-0.49,0-0.96,0-1.45,0c0-1.92,0-3.84,0-5.76
	c-1.92,0-3.84,0-5.76,0C55.68,80.82,53.76,80.82,51.84,80.82z"/>
<path fill="#F15A46" d="M51.84,75.06c0,1.92,0,3.84,0,5.76c1.92,0,3.84,0,5.75,0c0-1.919,0-3.84,0-5.76
	C55.68,75.06,53.76,75.06,51.84,75.06z"/>
<path fill="#010101" d="M51.84,73.44c0,0.54,0,1.08,0,1.62c1.92,0,3.84,0,5.75,0c0,1.92,0,3.84,0,5.76c1.92,0,3.84,0,5.76,0
	c0-1.919,0-3.84,0-5.76c0-0.96,0-1.92,0-2.88c0-0.48,0-0.96,0-1.44c0-0.54,0-1.08,0-1.62c-1.92,0-3.84,0-5.76,0
	c-1.91,0-3.83,0-5.75,0c0,0.96,0,1.92,0,2.88C51.84,72.48,51.84,72.96,51.84,73.44z"/>
<path fill="#7B7B7B" d="M51.84,63.36c0,1.92,0,3.84,0,5.76c1.92,0,3.84,0,5.75,0c0-1.92,0-3.84,0-5.76
	C55.68,63.36,53.76,63.36,51.84,63.36z"/>
<path fill="#232034" d="M51.84,51.84c0,3.84,0,7.68,0,11.52c1.92,0,3.84,0,5.75,0c0-1.92,0-3.84,0-5.76s0-3.84,0-5.76
	C55.68,51.84,53.76,51.84,51.84,51.84z"/>
<path fill="#232034" d="M57.59,109.621c0,1.92,0,3.84,0,5.76c1.92,0,3.84,0,5.76,0c0-1.92,0-3.84,0-5.76
	C61.43,109.621,59.51,109.621,57.59,109.621z"/>
<path fill="#AAAAAB" d="M57.59,103.861c0,1.92,0,3.84,0,5.76c1.92,0,3.84,0,5.76,0c0-1.92,0-3.84,0-5.76
	C61.43,103.861,59.51,103.861,57.59,103.861z"/>
<path fill="#232034" d="M57.59,98.1c0,1.92,0,3.841,0,5.761c1.92,0,3.84,0,5.76,0c0-1.92,0-3.841,0-5.761
	C61.43,98.1,59.51,98.1,57.59,98.1z"/>
<path fill="#010101" d="M57.59,92.34c0,1.92,0,3.84,0,5.76c1.92,0,3.84,0,5.76,0c0-1.92,0-3.84,0-5.76
	C61.43,92.34,59.51,92.34,57.59,92.34z"/>
<path fill="#7B7B7B" d="M57.59,51.84c0,1.92,0,3.84,0,5.76c1.92,0,3.84,0,5.76,0c0-1.92,0-3.84,0-5.76
	C61.43,51.84,59.51,51.84,57.59,51.84z"/>
<path fill="#232034" d="M57.59,46.08c0,1.92,0,3.84,0,5.76c1.92,0,3.84,0,5.76,0c0.96,0,1.92,0,2.89,0c0.48,0,0.961,0,1.44,0
	c0.54,0,1.08,0,1.62,0c0-1.92,0-3.84,0-5.76c-1.92,0-3.84,0-5.76,0c-0.96,0-1.92,0-2.88,0c-0.48,0-0.96,0-1.44,0
	C58.68,46.08,58.14,46.08,57.59,46.08z"/>
<path fill="#232034" d="M63.35,115.38c0,1.92,0,3.84,0,5.76c0.12,0,0.24,0,0.37,0c0.54,0,1.08,0,1.62,0c0.12,0,0.24,0,0.36,0
	c0.18,0,0.35,0,0.539,0c0.11,0,0.23,0,0.351,0c0.18,0,0.37,0,0.55,0c0.12,0,0.24,0,0.36,0c0.18,0,0.35,0,0.54,0
	c0.12,0,0.229,0,0.35,0c0.19,0,0.37,0,0.54,0c0.12,0,0.25,0,0.37,0c0.17,0,0.36,0,0.54,0c0.12,0,0.24,0,0.36,0
	c0.18,0,0.35,0,0.539,0c0.11,0,0.23,0,0.351,0c0.18,0,0.37,0,0.55,0c0.12,0,0.24,0,0.36,0c0.18,0,0.35,0,0.54,0
	c0.12,0,0.229,0,0.35,0c0.19,0,0.37,0,0.54,0c0.12,0,0.25,0,0.37,0c0.17,0,0.36,0,0.54,0c0.12,0,0.24,0,0.36,0
	c0.18,0,0.35,0,0.539,0c0.11,0,0.23,0,0.351,0c0.18,0,0.37,0,0.55,0c0.12,0,0.24,0,0.36,0c0.18,0,0.35,0,0.54,0
	c0.12,0,0.229,0,0.35,0c0.19,0,0.37,0,0.54,0c1.21,0,2.41,0,3.61,0c0.12,0,0.229,0,0.35,0c0.19,0,0.37,0,0.54,0
	c0.12,0,0.25,0,0.37,0c0.17,0,0.36,0,0.54,0c0.12,0,0.24,0,0.36,0c0.18,0,0.35,0,0.539,0c0.11,0,0.23,0,0.351,0
	c0.18,0,0.37,0,0.55,0c1.2,0,2.4,0,3.6,0c0.11,0,0.23,0,0.351,0c0.18,0,0.37,0,0.55,0c0.12,0,0.24,0,0.36,0c0.18,0,0.35,0,0.54,0
	c0.12,0,0.229,0,0.35,0c0.19,0,0.37,0,0.54,0c0.12,0,0.25,0,0.37,0c0.17,0,0.36,0,0.54,0c0-1.92,0-3.84,0-5.76
	c-1.92,0-3.84,0-5.76,0C78.84,115.38,71.09,115.38,63.35,115.38z"/>
<path fill="#010101" d="M63.35,103.861c0,1.92,0,3.84,0,5.76c0.12,0,0.24,0,0.37,0c0.17,0,0.36,0,0.54,0c0.36,0,0.71,0,1.08,0
	c0.17,0,0.36,0,0.54,0c0.05,0,0.12,0,0.17,0c0.13,0,0.25,0,0.37,0c0.17,0,0.35,0,0.54,0c0.18,0,0.35,0,0.54,0c0.05,0,0.12,0,0.18,0
	c0.12,0,0.24,0,0.36,0c0.05,0,0.12,0,0.18,0c0.12,0,0.24,0,0.36,0c0.06,0,0.12,0,0.18,0c0.12,0,0.24,0,0.36,0c0.06,0,0.119,0,0.18,0
	c0.12,0,0.24,0,0.36,0c0.18,0,0.35,0,0.54,0c0.18,0,0.35,0,0.539,0c0.061,0,0.11,0,0.181,0c0.12,0,0.24,0,0.35,0
	c0.07,0,0.12,0,0.19,0c0.12,0,0.24,0,0.35,0c0.12,0,0.24,0,0.37,0c0.17,0,0.36,0,0.54,0c0.36,0,0.71,0,1.08,0c0.17,0,0.36,0,0.54,0
	c0.17,0,0.36,0,0.54,0c0.17,0,0.359,0,0.54,0c0.17,0,0.35,0,0.54,0c0.05,0,0.12,0,0.18,0c0.12,0,0.24,0,0.36,0c0.05,0,0.12,0,0.18,0
	c0.12,0,0.24,0,0.36,0c0.18,0,0.35,0,0.54,0c0.18,0,0.35,0,0.54,0c0.72,0,1.43,0,2.149,0c0.19,0,0.37,0,0.54,0c0-1.92,0-3.84,0-5.76
	c3.851,0,7.69,0,11.53,0c0-1.92,0-3.841,0-5.761c-1.92,0-3.84,0-5.76,0c0-1.92,0-3.84,0-5.76c-1.92,0-3.841,0-5.771,0
	c0,1.92,0,3.84,0,5.76c-1.92,0-3.84,0-5.76,0c0-1.92,0-3.84,0-5.76c-0.05,0-0.12,0-0.17,0c-0.061,0-0.12,0-0.18,0
	c-0.12,0-0.24,0-0.36,0c-0.25,0-0.49,0-0.72,0c-0.42,0-0.851,0-1.271,0c-0.84,0-1.67,0-2.51,0c-0.18,0-0.37,0-0.54,0
	c0,1.92,0,3.84,0,5.76c-0.49,0-0.96,0-1.45,0c-0.47,0-0.96,0-1.43,0c-0.49,0-0.96,0-1.45,0c-0.54,0-1.08,0-1.62,0
	C63.35,100.02,63.35,101.941,63.35,103.861z"/>
<path fill="#010101" d="M63.35,80.82c0,1.92,0,3.84,0,5.76c0.49,0,0.96,0,1.45,0c0.47,0,0.96,0,1.439,0c0.48,0,0.961,0,1.44,0
	c0.54,0,1.08,0,1.62,0c0-1.92,0-3.84,0-5.76c-0.49,0-0.96,0-1.45,0c-0.47,0-0.96,0-1.43,0c-0.49,0-0.96,0-1.45,0
	C64.43,80.82,63.89,80.82,63.35,80.82z"/>
<path fill="#7B7B7B" d="M69.3,72.18c0,0.96,0,1.92,0,2.88c1.92,0,3.84,0,5.75,0c0-0.96,0-1.92,0-2.88c0-0.48,0-0.96,0-1.44
	c0-0.24,0-0.48,0-0.72c0-0.24,0-0.48,0-0.72c0-0.06,0-0.12,0-0.18c-1.91,0-3.83,0-5.75,0c0,0.18,0,0.36,0,0.54c0,0.12,0,0.24,0,0.36
	c0,0.24,0,0.48,0,0.72C69.3,71.22,69.3,71.7,69.3,72.18z"/>
<path fill="#7B7B7B" d="M69.3,46.08c0,1.92,0,3.84,0,5.76c1.92,0,3.84,0,5.75,0c0-1.92,0-3.84,0-5.76
	C73.14,46.08,71.22,46.08,69.3,46.08z"/>
<path fill="#232034" d="M69.3,40.32c0,1.92,0,3.84,0,5.76c1.92,0,3.84,0,5.75,0c7.689,0,15.37,0,23.04,0c1.92,0,3.84,0,5.76,0
	c0-1.92,0-3.84,0-5.76c-1.92,0-3.84,0-5.76,0c-2.87,0-5.75,0-8.63,0s-5.76,0-8.65,0c-1.92,0-3.84,0-5.76,0
	C73.14,40.32,71.22,40.32,69.3,40.32z"/>
<path fill="#F15A46" d="M75.05,75.06c0,1.92,0,3.84,0,5.76c1.92,0,3.84,0,5.76,0c0-1.919,0-3.84,0-5.76
	C78.89,75.06,76.97,75.06,75.05,75.06z"/>
<path fill="#010101" d="M75.05,72.18c0,0.96,0,1.92,0,2.88c1.92,0,3.84,0,5.76,0c0,1.92,0,3.84,0,5.76c1.93,0,3.851,0,5.771,0
	c0-1.919,0-3.84,0-5.76c1.92,0,3.84,0,5.76,0c0-0.96,0-1.92,0-2.88c0-0.48,0-0.96,0-1.44c0-0.54,0-1.08,0-1.62
	c-1.45,0-2.88,0-4.33,0c-1.43,0-2.87,0-4.31,0c-1.44,0-2.891,0-4.32,0c-1.45,0-2.88,0-4.33,0c0,0.06,0,0.12,0,0.18
	c0,0.24,0,0.48,0,0.72c0,0.24,0,0.48,0,0.72C75.05,71.22,75.05,71.7,75.05,72.18z"/>
<path fill="#D42C41" d="M75.05,34.56c0,1.92,0,3.84,0,5.76c1.92,0,3.84,0,5.76,0c0-1.92,0-3.84,0-5.76
	C78.89,34.56,76.97,34.56,75.05,34.56z"/>
<path fill="#7B7B7B" d="M86.58,109.621c0,1.92,0,3.84,0,5.76c1.92,0,3.84,0,5.76,0c0-1.92,0-3.84,0-5.76
	C90.42,109.621,88.5,109.621,86.58,109.621z"/>
<path fill="#7B7B7B" d="M86.58,75.06c0,1.92,0,3.84,0,5.76c1.92,0,3.84,0,5.76,0c0,3.84,0,7.68,0,11.521c1.92,0,3.84,0,5.75,0
	c0-1.92,0-3.841,0-5.761c1.92,0,3.84,0,5.76,0c0-1.92,0-3.84,0-5.76c1.92,0,3.851,0,5.771,0c0-1.919,0-3.84,0-5.76
	c1.92,0,3.84,0,5.76,0c0-2.94,0-5.88,0-8.82c0-2.88,0-5.76,0-8.64c-1.92,0-3.84,0-5.76,0c0-1.92,0-3.84,0-5.76
	c-1.92,0-3.851,0-5.771,0c0,3.84,0,7.68,0,11.52c1.92,0,3.851,0,5.771,0c0,1.92,0,3.84,0,5.76c-3.851,0-7.69,0-11.53,0
	c0,0.06,0,0.12,0,0.18c0,1.92,0,3.84,0,5.76c-1.91,0-3.83,0-5.75,0S88.5,75.06,86.58,75.06z"/>
<path fill="#232034" d="M92.34,109.621c0,1.92,0,3.84,0,5.76c1.92,0,3.84,0,5.75,0c0-1.92,0-3.84,0-5.76
	C96.18,109.621,94.26,109.621,92.34,109.621z"/>
<path fill="#232034" d="M98.09,105.3c0,1.439,0,2.88,0,4.32c1.92,0,3.84,0,5.76,0c0-2.881,0-5.76,0-8.641c0-2.88,0-5.76,0-8.64
	c1.92,0,3.851,0,5.771,0c0-1.92,0-3.841,0-5.761c1.92,0,3.84,0,5.76,0c0-1.92,0-3.84,0-5.76c1.92,0,3.84,0,5.76,0
	c0-1.919,0-3.84,0-5.76s0-3.84,0-5.76s0-3.84,0-5.76c0-0.06,0-0.12,0-0.18c0-1.92,0-3.84,0-5.76c-1.92,0-3.84,0-5.76,0
	c0,2.88,0,5.76,0,8.64c0,2.94,0,5.88,0,8.82c-1.92,0-3.84,0-5.76,0c0,1.92,0,3.84,0,5.76c-1.92,0-3.851,0-5.771,0
	c0,1.92,0,3.84,0,5.76c-1.92,0-3.84,0-5.76,0c0,1.92,0,3.841,0,5.761c0,1.44,0,2.88,0,4.319c0,1.44,0,2.881,0,4.32
	C98.09,102.42,98.09,103.861,98.09,105.3z"/>
<path fill="#7B7B7B" d="M98.09,46.08c0,1.92,0,3.84,0,5.76c1.92,0,3.84,0,5.76,0c0-1.92,0-3.84,0-5.76
	C101.93,46.08,100.01,46.08,98.09,46.08z"/>
<path fill="#F79C7F" d="M98.09,34.56c0,1.92,0,3.84,0,5.76c1.92,0,3.84,0,5.76,0c0,1.92,0,3.84,0,5.76c1.92,0,3.851,0,5.771,0
	c0-3.84,0-7.68,0-11.52C105.77,34.56,101.93,34.56,98.09,34.56z"/>
<path fill="#232034" d="M103.85,46.08c0,1.92,0,3.84,0,5.76c1.92,0,3.851,0,5.771,0c0-1.92,0-3.84,0-5.76
	C107.7,46.08,105.77,46.08,103.85,46.08z"/>
<path fill="#232034" d="M109.62,51.84c0,1.92,0,3.84,0,5.76c1.92,0,3.84,0,5.76,0c0-1.92,0-3.84,0-5.76
	C113.46,51.84,111.54,51.84,109.62,51.84z"/>
<path fill="#F79C7F" d="M109.62,46.08c0,1.92,0,3.84,0,5.76c1.92,0,3.84,0,5.76,0c0-1.92,0-3.84,0-5.76
	C113.46,46.08,111.54,46.08,109.62,46.08z"/>
<path fill="#F79C7F" d="M115.38,51.84c0,1.92,0,3.84,0,5.76c1.92,0,3.84,0,5.76,0c0-1.92,0-3.84,0-5.76
	C119.22,51.84,117.3,51.84,115.38,51.84z"/>
<path fill="#F79C7F" d="M121.14,69.3c0,1.92,0,3.84,0,5.76c1.91,0,3.83,0,5.75,0c0,1.92,0,3.84,0,5.76c1.92,0,3.85,0,5.771,0
	c0,1.92,0,3.84,0,5.76c3.89,0,7.8,0,11.689,0c0-1.92,0-3.84,0-5.76c3.851,0,7.69,0,11.53,0c0-0.06,0-0.119,0-0.18
	c0-0.42,0-0.84,0-1.26s0-0.84,0-1.26c0-0.84,0-1.68,0-2.52c0-0.18,0-0.36,0-0.54c-3.84,0-7.68,0-11.53,0c0-0.96,0-1.92,0-2.88
	c0-0.48,0-0.96,0-1.44c0-0.54,0-1.08,0-1.62c-0.96,0-1.92,0-2.88,0c-0.47,0-0.96,0-1.43,0c-0.54,0-1.08,0-1.62,0
	c0-1.92,0-3.84,0-5.76c-1.92,0-3.84,0-5.76,0c0-1.92,0-3.84,0-5.76c-1.921,0-3.851,0-5.771,0c0,1.92,0,3.84,0,5.76
	c-1.92,0-3.84,0-5.75,0c0,0.06,0,0.12,0,0.18C121.14,65.46,121.14,67.38,121.14,69.3z"/>
<path fill="#D42C41" d="M126.89,17.28c0,3.84,0,7.68,0,11.52c1.92,0,3.85,0,5.771,0c0,7.68,0,15.36,0,23.04c1.92,0,3.84,0,5.76,0
	c0-1.92,0-3.84,0-5.76c3.89,0,7.8,0,11.7,0c0,1.92,0,3.84,0,5.76c3.84,0,7.68,0,11.52,0c0,3.84,0,7.68,0,11.52c1.91,0,3.83,0,5.75,0
	c0,1.44,0,2.88,0,4.32s0,2.88,0,4.32c0,1.44,0,2.88,0,4.32c0,1.5,0,3,0,4.5c-1.92,0-3.84,0-5.75,0c0,0.18,0,0.36,0,0.541
	c0,0.119,0,0.239,0,0.359c0,0.18,0,0.359,0,0.54c0,0.36,0,0.72,0,1.08c0,0.72,0,1.44,0,2.159c0,0.121,0,0.24,0,0.361
	c0,0.18,0,0.359,0,0.539c0,0.36,0,0.721,0,1.08c0,0.721,0,1.44,0,2.16c0,0.12,0,0.24,0,0.359c0,0.181,0,0.361,0,0.541
	c0,0.359,0,0.72,0,1.08c0,0.72,0,1.439,0,2.16c0,1.439,0,2.879,0,4.319c1.91,0,3.83,0,5.75,0c0-1.92,0-3.84,0-5.76
	c0.19,0,0.37,0,0.54,0c0.19,0,0.37,0,0.54,0c0.19,0,0.37,0,0.54,0c0.19,0,0.37,0,0.54,0c0.25,0,0.49,0,0.72,0c0.19,0,0.37,0,0.54,0
	c0.19,0,0.37,0,0.54,0c0.42,0,0.851,0,1.271,0c0.18,0,0.35,0,0.54,0c0-1.44,0-2.88,0-4.32s0-2.88,0-4.319c0-1.44,0-2.881,0-4.32
	c0-1.44,0-2.88,0-4.32c1.92,0,3.84,0,5.76,0c0-0.96,0-1.92,0-2.88s0-1.92,0-2.88s0-1.92,0-2.88c0-0.48,0-0.96,0-1.44
	c0-0.54,0-1.08,0-1.62c-1.92,0-3.84,0-5.76,0c0-0.18,0-0.36,0-0.54c0-3.66,0-7.32,0-10.98c-1.921,0-3.851,0-5.771,0
	c0-0.18,0-0.36,0-0.54c0-0.36,0-0.72,0-1.08c0-0.18,0-0.36,0-0.54c0-0.24,0-0.48,0-0.72c0-0.18,0-0.36,0-0.54c0-0.18,0-0.36,0-0.54
	c0-0.42,0-0.84,0-1.26c0-0.18,0-0.36,0-0.54c-3.84,0-7.67,0-11.51,0c0-0.18,0-0.36,0-0.54c0-0.36,0-0.72,0-1.08
	c0-0.42,0-0.84,0-1.26c0-0.36,0-0.72,0-1.08c0-0.18,0-0.36,0-0.54c0-0.24,0-0.48,0-0.72c0-0.18,0-0.36,0-0.54
	c-2.88,0-5.76,0-8.641,0c-1.439,0-2.89,0-4.319,0c-0.72,0-1.45,0-2.16,0c-0.18,0-0.37,0-0.54,0c-0.18,0-0.37,0-0.54,0
	c-0.18,0-0.37,0-0.54,0c-0.25,0-0.479,0-0.72,0c0-0.12,0-0.24,0-0.36c0-1.38,0-2.76,0-4.14c0-1.44,0-2.88,0-4.32
	c0-1.38,0-2.76,0-4.14c0-1.44,0-2.88,0-4.32c-1.92,0-3.84,0-5.76,0c0-1.92,0-3.84,0-5.76C130.739,17.28,128.81,17.28,126.89,17.28z"
	/>
</svg>
