<?xml version="1.0" encoding="utf-8"?>
<!-- Generator: Adobe Illustrator 15.0.0, SVG Export Plug-In  -->
<!DOCTYPE svg PUBLIC "-//W3C//DTD SVG 1.1//EN" "http://www.w3.org/Graphics/SVG/1.1/DTD/svg11.dtd" [
	<!ENTITY ns_flows "http://ns.adobe.com/Flows/1.0/">
]>
<svg version="1.1"
	 xmlns="http://www.w3.org/2000/svg" xmlns:xlink="http://www.w3.org/1999/xlink" xmlns:a="http://ns.adobe.com/AdobeSVGViewerExtensions/3.0/"
	 x="0px" y="0px" width="200px" height="200px" viewBox="-19.09 -18.95 200 200" enable-background="new -19.09 -18.95 200 200"
	 xml:space="preserve">
<defs>
</defs>
<path fill="#D42C41" d="M0,92.52c0,3.84,0,7.681,0,11.521c1.92,0,3.83,0,5.76,0c0,3.84,0,7.68,0,11.52c1.921,0,3.841,0,5.761,0
	c0,1.92,0,3.84,0,5.76c1.92,0,3.83,0,5.75,0c0,3.841,0,7.681,0,11.521c1.989,0,3.97,0,5.95,0c0,1.92,0,3.84,0,5.76
	c1.92,0,3.84,0,5.76,0c0,1.92,0,3.84,0,5.76c3.83,0,7.68,0,11.52,0c0,1.921,0,3.841,0,5.761c2.881,0,5.76,0,8.641,0
	c2.88,0,5.76,0,8.63,0c0,0.479,0,0.96,0,1.439c0,0.48,0,0.96,0,1.44c0,0.24,0,0.479,0,0.72s0,0.48,0,0.72c0,0.24,0,0.48,0,0.721
	c0,0.12,0,0.239,0,0.359c0.01,0.181,0,0.36,0,0.54c3.851,0,7.69,0,11.521,0c0,1.92,0,3.84,0,5.76c0.539,0,1.09,0,1.629,0
	c0.48,0,0.961,0,1.431,0c0.96,0,1.92,0,2.89,0c1.92,0,3.84,0,5.76,0c1.919,0,3.83,0,5.759,0c1.921,0,3.841,0,5.761,0
	c0-1.92,0-3.84,0-5.76c1.92,0,3.83,0,5.75,0c0-0.96,0-1.92,0-2.88c0-0.479,0.01-0.96,0-1.439c0-0.24,0-0.48,0-0.721
	c0-0.12,0-0.239,0-0.359c0-0.181,0-0.36,0-0.54c1.93,0,3.85,0,5.77,0c0-3.84,0-7.681,0-11.521c3.84,0,7.681,0,11.521,0
	c0-1.92,0-3.84,0-5.76c1.92,0,3.84,0,5.75,0c0-1.92,0-3.84,0-5.76c1.93,0,3.85,0,5.77,0c0-3.84,0-7.681,0-11.521
	c1.92,0,3.84,0,5.75,0c0-4.8,0-9.6,0-14.399c0-4.801,0-9.601,0-14.4c1.93,0,3.851,0,5.771,0c0-0.96,0-1.92,0-2.88
	c0-0.48,0-0.96,0-1.44c0-0.54,0-1.08,0-1.62c3.84,0,7.67,0,11.52,0c0-1.92,0-3.84,0-5.76c1.92,0,3.84,0,5.76,0
	c0-3.84,0-7.68,0-11.52c1.91,0,3.841,0,5.761,0c0-5.76,0-11.521,0-17.28c-1.92,0-3.851,0-5.761,0c0-1.92,0-3.84,0-5.76
	c-1.92,0-3.84,0-5.76,0c0-1.92,0-3.84,0-5.76c-3.85,0-7.68,0-11.52,0c0-1.921,0-3.841,0-5.761c-3.841,0-7.681,0-11.521,0
	c0-3.84,0-7.68,0-11.52c-1.92,0-3.84,0-5.77,0c0-3.9,0-7.8,0-11.7c-1.91,0-3.83,0-5.75,0c0-1.92,0-3.84,0-5.76
	c-0.181,0-0.36,0-0.54,0c-0.54,0-1.08,0-1.62,0c-0.12,0-0.24,0-0.36,0c-0.189,0-0.359,0-0.54,0c-0.12,0-0.24,0-0.359,0
	c-0.181,0-0.37,0-0.54,0c-0.12,0-0.25,0-0.36,0c-0.18,0-0.36,0-0.54,0c-0.12,0-0.24,0-0.37,0c-0.17,0-0.35,0-0.54,0
	c-0.109,0-0.229,0-0.35,0c-0.181,0-0.36,0-0.54,0c-0.12,0-0.24,0-0.36,0c-0.189,0-0.359,0-0.54,0c-0.12,0-0.24,0-0.359,0
	c-0.181,0-0.37,0-0.54,0c-0.12,0-0.25,0-0.36,0c-0.18,0-0.36,0-0.54,0c-0.12,0-0.24,0-0.37,0c-0.17,0-0.35,0-0.54,0
	c-0.109,0-0.229,0-0.35,0c-0.181,0-0.36,0-0.54,0c-0.13,0-0.24,0-0.36,0c-0.189,0-0.359,0-0.54,0c-0.12,0-0.24,0-0.359,0
	c-0.181,0-0.37,0-0.54,0c-0.12,0-0.25,0-0.36,0c-0.18,0-0.36,0-0.54,0c-0.12,0-0.24,0-0.37,0c-0.17,0-0.35,0-0.54,0
	c-0.229,0-0.479,0-0.71,0c-0.12,0-0.25,0-0.359,0c-0.181,0-0.37,0-0.54,0c-0.12,0-0.24,0-0.37,0c-0.17,0-0.351,0-0.54,0
	c-0.11,0-0.23,0-0.351,0c-0.18,0-0.359,0-0.54,0c-0.12,0-0.239,0-0.359,0c-0.19,0-0.36,0-0.54,0c-0.13,0-0.24,0-0.36,0
	c-0.18,0-0.36,0-0.54,0c-0.12,0-0.25,0-0.359,0c-0.181,0-0.37,0-0.54,0c-0.12,0-0.24,0-0.37,0c-0.17,0-0.351,0-0.54,0
	c-0.11,0-0.23,0-0.351,0c-0.18,0-0.359,0-0.54,0c-0.12,0-0.239,0-0.359,0c-0.19,0-0.36,0-0.54,0c-0.13,0-0.24,0-0.36,0
	c-0.18,0-0.36,0-0.54,0c-0.12,0-0.25,0-0.359,0c-0.181,0-0.37,0-0.54,0c-0.12,0-0.24,0-0.37,0c-0.17,0-0.351,0-0.54,0
	c-0.11,0-0.23,0-0.351,0c-0.18,0-0.359,0-0.54,0c-0.12,0-0.239,0-0.359,0c-0.19,0-0.36,0-0.54,0c-0.13,0-0.24,0-0.36,0
	c-0.18,0-0.36,0-0.54,0c0,1.92,0,3.84,0,5.76c-1.92,0-3.84,0-5.77,0c0,0.06,0,0.12,0,0.18c0,1.92,0,3.841,0,5.761
	c-2.87,0-5.75,0-8.63,0c-2.89,0-5.761,0-8.64,0c0,1.92,0,3.84,0,5.76c-1.44,0-2.881,0-4.32,0c-0.18,0-0.37,0-0.54,0
	c-0.181,0-0.37,0-0.54,0c-0.37,0-0.721,0-1.08,0c-0.73,0-1.439,0-2.16,0c-1.439,0-2.88,0-4.32,0c-1.439,0-2.879,0-4.32,0
	c0-1.92,0-3.84,0-5.76c-5.76,0-11.52,0-17.279,0c0,1.92,0,3.84,0,5.76c-3.9,0-7.8,0-11.71,0c0,1.92,0,3.84,0,5.76
	c-1.92,0-3.83,0-5.75,0c0,1.92,0,3.84,0,5.76c-1.92,0-3.84,0-5.761,0c0,7.5,0,15,0,22.5c0,0.181,0,0.36,0,0.54
	c1.921,0,3.841,0,5.761,0c0,3.84,0,7.681,0,11.521c-1.92,0-3.84,0-5.761,0c0,0.06,0,0.12,0,0.18c-0.01,0.42,0,0.84,0,1.26
	c0,0.48,0,0.96,0,1.44c0,0.899,0,1.8,0,2.7c0,1.8,0,3.6,0,5.399c0,0.181,0,0.36,0,0.54c1.921,0,3.841,0,5.761,0
	c0-1.92,0-3.84,0-5.76c1.92,0,3.83,0,5.75,0c0-2.88,0.01-5.76,0-8.64c0-2.88,0.01-5.761,0-8.641c0-2.88,0.01-5.76,0-8.64
	c0-1.44,0-2.88,0-4.32c0-1.439,0-2.88,0-4.319c1.989,0,3.97,0,5.95,0c0-1.921,0-3.841,0-5.761c3.84,0,7.68,0,11.52,0
	c0-1.92,0-3.84,0-5.76c2.16,0,4.32,0,6.48,0s4.32,0,6.48,0c2.149,0,4.319,0,6.479,0c2.149,0,4.319,0,6.479,0c2.15,0,4.32,0,6.48,0
	c2.15,0,4.32,0,6.48,0c2.149,0,4.319,0,6.479,0c2.159,0,4.319,0,6.479,0c0-3.84,0-7.68,0-11.52c3.84,0,7.68,0,11.521,0
	c1.92,0,3.84,0,5.75,0c0.96,0,1.92,0,2.89,0c0.48,0,0.96,0,1.44,0c0.479,0,0.96,0,1.439,0c0.061,0,0.12,0,0.17,0
	c0,1.92,0,3.84,0,5.76c1.931,0,3.851,0,5.771,0c0,3.84,0,7.68,0,11.52c1.92,0,3.84,0,5.75,0c0,3.84,0,7.681,0,11.521
	c0.729,0,1.449,0,2.17,0c0.35,0,0.72,0,1.08,0c0.18,0,0.359,0,0.54,0c0.17,0,0.359,0,0.54,0c1.439,0,2.88,0,4.319,0
	c0.351,0,0.721,0,1.08,0c0.181,0,0.36,0,0.54,0s0.36,0,0.54,0c0.36,0,0.71,0,1.08,0c0.18,0,0.36,0,0.54,0s0.36,0,0.53,0
	c1.45,0,2.89,0,4.33,0c0,1.92,0,3.84,0,5.76c1.92,0,3.84,0,5.75,0c0,1.92,0,3.84,0,5.76c1.92,0,3.85,0,5.77,0
	c0,3.84,0,7.681,0,11.521c-1.92,0-3.85,0-5.77,0c0,1.92,0,3.84,0,5.76c-1.91,0-3.83,0-5.75,0c0,1.92,0,3.84,0,5.76
	c-1.92,0-3.841,0-5.771,0c0,1.92,0,3.84,0,5.76c-1.91,0-3.83,0-5.75,0c0,2.94,0,5.881,0,8.82c0,2.88,0,5.76,0,8.641
	c-1.92,0-3.84,0-5.77,0c0,5.76,0,11.52,0,17.279c-1.91,0-3.83,0-5.75,0c0,1.92,0,3.84,0,5.76c-1.92,0-3.84,0-5.771,0
	c0,1.921,0,3.841,0,5.761c-1.91,0-3.83,0-5.75,0c0,1.92,0,3.84,0,5.76c-3.84,0-7.689,0-11.52,0c0,1.92,0,3.84,0,5.76
	c1.92,0,3.83,0,5.75,0c0,1.92,0,3.84,0,5.76c-1.49,0-3,0-4.5,0c-1.44,0-2.87,0-4.311,0c-1.439,0-2.88,0-4.319,0
	c-1.44,0-2.881,0-4.33,0c0,1.921,0,3.841,0,5.761c-2.87,0-5.75,0-8.63,0c-1.44,0-2.89,0-4.33,0c-0.71,0-1.431,0-2.149,0
	c-0.371,0-0.721,0-1.08,0c-0.181,0-0.361,0-0.541,0s-0.359,0-0.539,0c0-1.92,0-3.84,0-5.761c-3.84,0-7.69,0-11.521,0
	c0-1.92,0-3.84,0-5.76c-1.92,0-3.84,0-5.761,0c0-1.92,0-3.84,0-5.76c-1.93,0-3.84,0-5.76,0c0,1.92,0,3.84,0,5.76
	c-1.92,0-3.84,0-5.76,0c0-1.92,0-3.84,0-5.76c-1.93,0-3.84,0-5.76,0c0-1.92,0-3.84,0-5.76c-1.92,0-3.84,0-5.76,0
	c0-0.181,0-0.36,0-0.54c0-5.4,0-10.8,0-16.2c0-0.18,0-0.36,0-0.54c-1.98,0-3.961,0-5.95,0c0-1.92,0-3.84,0-5.76
	c-1.92,0-3.83,0-5.75,0c0-3.84,0-7.681,0-11.521c1.92,0,3.83,0,5.75,0c0-5.819,0-11.64,0-17.46c-1.92,0-3.83,0-5.75,0
	c0,1.92,0,3.84,0,5.76c-1.92,0-3.84,0-5.761,0c0,3.9,0,7.801,0,11.7C3.83,92.52,1.92,92.52,0,92.52z"/>
<path fill="#F15A46" d="M11.521,92.52c0,3.84,0,7.681,0,11.521c1.92,0,3.83,0,5.75,0c0,1.92,0,3.84,0,5.76c1.989,0,3.97,0,5.95,0
	c0,0.18,0,0.36,0,0.54c0,5.4,0,10.8,0,16.2c0,0.18,0,0.359,0,0.54c1.92,0,3.84,0,5.76,0c0,1.92,0,3.84,0,5.76c1.92,0,3.83,0,5.76,0
	c0,1.92,0,3.84,0,5.76c1.92,0,3.84,0,5.76,0c0-1.92,0-3.84,0-5.76c1.92,0,3.83,0,5.76,0c0-3.84,0-7.68,0-11.521
	c0-1.92,0-3.84,0-5.76c-1.93,0-3.84,0-5.76,0c0-1.92,0-3.84,0-5.76c-1.92,0-3.84,0-5.76,0c0-1.92,0-3.84,0-5.76s0-3.84,0-5.76
	c-1.93,0-3.84,0-5.76,0c0-1.921,0-3.841,0-5.761c0-9.66,0-19.319,0-28.979c1.92,0,3.83,0,5.76,0c0-3.84,0-7.681,0-11.521
	c1.92,0,3.84,0,5.76,0c0-1.92,0-3.84,0-5.76c1.92,0,3.83,0,5.76,0c0-1.92,0-3.84,0-5.76c1.921,0,3.841,0,5.761,0
	c0-1.92,0-3.84,0-5.76c0.181,0,0.36,0,0.54,0c1.859,0,3.71,0,5.58,0c1.859,0,3.71,0,5.58,0c1.859,0,3.72,0,5.57,0
	c0.969,0,1.93,0,2.89,0c0.479,0,0.96,0,1.44,0c0.42,0,0.84,0,1.26,0c0.06,0,0.119,0,0.18,0c0,1.92,0,3.84,0,5.76
	c1.92,0,3.84,0,5.75,0c0-1.92,0-3.84,0-5.76c0.54,0,1.09,0,1.63,0c0.479,0,0.96,0,1.439,0c0.95,0,1.91,0,2.88,0
	c1.921,0,3.841,0,5.761,0c0,1.92,0,3.84,0,5.76c-0.54,0-1.08,0-1.62,0c-0.48,0-0.96,0-1.44,0c-0.96,0-1.92,0-2.88,0
	c0,1.92,0,3.84,0,5.76c0.96,0,1.92,0,2.88,0c0.48,0,0.96,0,1.44,0c0.24,0,0.479,0,0.72,0c0.23,0,0.48,0,0.71,0c0.07,0,0.13,0,0.19,0
	c0,1.92,0,3.84,0,5.76c1.92,0,3.83,0,5.75,0c0,1.92,0,3.84,0,5.761c1.93,0,3.85,0,5.77,0c0-1.921,0-3.841,0-5.761
	c7.681,0,15.36,0,23.04,0c0,5.761,0,11.521,0,17.28c-1.92,0-3.84,0-5.77,0c0,1.92,0,3.84,0,5.76c-0.17,0-0.351,0-0.54,0
	c-0.71,0-1.44,0-2.15,0c-0.36,0-0.72,0-1.08,0c-0.189,0-0.359,0-0.54,0c-0.189,0-0.359,0-0.54,0c-1.38,0-2.76,0-4.149,0
	c-0.71,0-1.431,0-2.15,0c-0.66,0-1.33,0-1.979,0c-0.721,0-1.44,0-2.16,0c-0.67,0-1.32,0-1.98,0c0,1.92,0,3.84,0,5.76
	c0,3.9,0,7.801,0,11.7c1.92,0,3.84,0,5.75,0c0,0.181,0,0.36,0,0.54c0,0.84,0.01,1.681,0,2.521c0,0.42,0,0.84,0,1.26
	c0,0.24,0,0.479,0,0.72c0,0.12,0,0.24,0,0.36c0,0.06,0,0.12,0,0.18c0.01,0.061,0,0.12,0,0.181c-1.91,0-3.83,0-5.75,0
	c0,3.84,0,7.68,0,11.52c-1.92,0-3.84,0-5.77,0c0-1.92,0-3.84,0-5.76c-1.92,0-3.83,0-5.75,0c0-1.92,0-3.84,0-5.76
	c-0.54,0-1.08,0-1.62,0c-0.48,0-0.96,0-1.44,0c-0.96,0-1.92,0-2.88,0c0,3.84,0,7.68,0,11.52c-1.92,0-3.84,0-5.77,0
	c0,1.92,0,3.84,0,5.76c-1.91,0-3.83,0-5.75,0c0,1.92,0,3.84,0,5.76c-7.68,0-15.359,0-23.04,0c0,3.841,0,7.681,0,11.521
	c-1.92,0-3.84,0-5.761,0c0,1.92,0,3.84,0,5.76c1.921,0,3.841,0,5.761,0c0,1.92,0,3.84,0,5.76c3.83,0,7.681,0,11.521,0
	c0,1.921,0,3.841,0,5.761c0.18,0,0.359,0,0.539,0s0.36,0,0.541,0c0.359,0,0.709,0,1.08,0c0.719,0,1.439,0,2.149,0
	c1.44,0,2.89,0,4.33,0c2.88,0,5.76,0,8.63,0c0-1.92,0-3.84,0-5.761c1.449,0,2.89,0,4.33,0c1.439,0,2.88,0,4.319,0
	c1.44,0,2.87,0,4.311,0c1.5,0,3.01,0,4.5,0c0-1.92,0-3.84,0-5.76c-1.92,0-3.83,0-5.75,0c0-1.92,0-3.84,0-5.76c3.83,0,7.68,0,11.52,0
	c0-1.92,0-3.84,0-5.76c1.92,0,3.84,0,5.75,0c0-1.92,0-3.84,0-5.761c1.931,0,3.851,0,5.771,0c0-1.92,0-3.84,0-5.76
	c1.92,0,3.84,0,5.75,0c0-5.76,0-11.52,0-17.279c1.93,0,3.85,0,5.77,0c0-2.881,0-5.761,0-8.641c0-2.939,0-5.88,0-8.82
	c1.92,0,3.84,0,5.75,0c0-1.92,0-3.84,0-5.76c1.93,0,3.851,0,5.771,0c0-1.92,0-3.84,0-5.76c1.92,0,3.84,0,5.75,0
	c0-1.92,0-3.84,0-5.76c1.92,0,3.85,0,5.77,0c0-3.84,0-7.681,0-11.521c-1.92,0-3.85,0-5.77,0c0-1.92,0-3.84,0-5.76
	c-1.91,0-3.83,0-5.75,0c0-1.92,0-3.84,0-5.76c-1.44,0-2.88,0-4.33,0c-0.17,0-0.351,0-0.53,0s-0.36,0-0.54,0c-0.37,0-0.72,0-1.08,0
	c-0.18,0-0.36,0-0.54,0s-0.359,0-0.54,0c-0.359,0-0.729,0-1.08,0c-1.439,0-2.88,0-4.319,0c-0.181,0-0.37,0-0.54,0
	c-0.181,0-0.36,0-0.54,0c-0.36,0-0.73,0-1.08,0c-0.721,0-1.44,0-2.17,0c0-3.84,0-7.681,0-11.521c-1.91,0-3.83,0-5.75,0
	c0-3.84,0-7.68,0-11.52c-1.92,0-3.84,0-5.771,0c0-1.92,0-3.84,0-5.76c-0.05,0-0.109,0-0.17,0c-0.479,0-0.96,0-1.439,0
	c-0.48,0-0.96,0-1.44,0c-0.97,0-1.93,0-2.89,0c-1.91,0-3.83,0-5.75,0c-3.841,0-7.681,0-11.521,0c0,3.84,0,7.68,0,11.52
	c-2.16,0-4.32,0-6.479,0c-2.16,0-4.33,0-6.479,0c-2.16,0-4.33,0-6.48,0c-2.16,0-4.33,0-6.48,0c-2.16,0-4.33,0-6.479,0
	c-2.16,0-4.33,0-6.479,0c-2.16,0-4.32,0-6.48,0s-4.32,0-6.48,0c0,1.92,0,3.84,0,5.76c-3.84,0-7.68,0-11.52,0c0,1.92,0,3.84,0,5.761
	c-1.98,0-3.961,0-5.95,0c0,1.439,0,2.88,0,4.319c0,1.44,0,2.88,0,4.32c0.01,2.88,0,5.76,0,8.64c0.01,2.88,0,5.761,0,8.641
	c0.01,2.88,0,5.76,0,8.64c-1.92,0-3.83,0-5.75,0c0,1.92,0,3.84,0,5.76c1.92,0,3.83,0,5.75,0c0,5.82,0,11.641,0,17.46
	C15.351,92.52,13.44,92.52,11.521,92.52z"/>
<path fill="#F79C7F" d="M28.98,92.52c0,1.92,0,3.84,0,5.761c1.92,0,3.83,0,5.76,0c0-1.921,0-3.841,0-5.761
	C32.811,92.52,30.9,92.52,28.98,92.52z"/>
<path fill="#232034" d="M28.98,63.54c0,9.66,0,19.319,0,28.979c1.92,0,3.83,0,5.76,0c0-3.899,0-7.8,0-11.7c0-1.92,0-3.84,0-5.76
	s0-3.84,0-5.76s0-3.84,0-5.76C32.811,63.54,30.9,63.54,28.98,63.54z"/>
<path fill="#232034" d="M34.74,104.04c0,1.92,0,3.84,0,5.76c1.92,0,3.84,0,5.76,0c0-1.92,0-3.84,0-5.76
	C38.58,104.04,36.66,104.04,34.74,104.04z"/>
<path fill="#F79C7F" d="M34.74,98.28c0,1.92,0,3.84,0,5.76c1.92,0,3.84,0,5.76,0c0-1.92,0-3.84,0-5.76
	C38.58,98.28,36.66,98.28,34.74,98.28z"/>
<path fill="#232034" d="M34.74,92.52c0,1.92,0,3.84,0,5.761c1.92,0,3.84,0,5.76,0c0-1.921,0-3.841,0-5.761
	C38.58,92.52,36.66,92.52,34.74,92.52z"/>
<path fill="#AAAAAB" d="M34.74,80.819c0,3.9,0,7.801,0,11.7c1.92,0,3.84,0,5.76,0s3.83,0,5.76,0c0,1.92,0,3.84,0,5.761
	c1.921,0,3.841,0,5.761,0c0-1.921,0-3.841,0-5.761c1.92,0,3.83,0,5.75,0c0,1.92,0,3.84,0,5.761c1.931,0,3.851,0,5.771,0
	c0-1.921,0-3.841,0-5.761c1.92,0,3.84,0,5.75,0c0,1.92,0,3.84,0,5.761c1.93,0,3.85,0,5.77,0c0,1.92,0,3.84,0,5.76
	c-3.84,0-7.68,0-11.52,0c0,1.92,0,3.84,0,5.76c-0.19,0-0.36,0-0.541,0c-1.439,0-2.879,0-4.319,0c-0.72,0-1.44,0-2.16,0
	c-0.36,0-0.729,0-1.08,0c-0.181,0-0.36,0-0.54,0c-0.13,0-0.24,0-0.359,0c-0.73,0-1.44,0-2.16,0c-0.36,0-0.721,0-1.09,0
	c-0.17,0-0.351,0-0.531,0c-0.119,0-0.239,0-0.359,0c-0.72,0-1.439,0-2.16,0c-0.359,0-0.72,0-1.08,0c-0.18,0-0.369,0-0.539,0
	c-0.121,0-0.24,0-0.361,0c0,1.92,0,3.84,0,5.76c7.681,0,15.361,0,23.031,0c0-1.92,0-3.84,0-5.76c1.93,0,3.85,0,5.77,0s3.84,0,5.75,0
	c0-0.36,0-0.72,0-1.08c0-0.18,0-0.36,0-0.54s0-0.36,0-0.54c0-0.359,0-0.72,0-1.08c0-0.18,0-0.359,0-0.54c0-0.18,0-0.359,0-0.54
	c0-0.18,0-0.359,0-0.54c0-0.18,0-0.359,0-0.54c0-0.18,0-0.359,0-0.54c0-0.18,0-0.359,0-0.54c0-0.359,0-0.72,0-1.079
	c0-0.181,0-0.36,0-0.54c0-0.181,0-0.36,0-0.54c0-0.181,0-0.36,0-0.54c0-0.181,0-0.36,0-0.54c0-0.181,0-0.36,0-0.54
	c0-0.181,0-0.36,0-0.54c0-0.36,0-0.72,0-1.08c0-0.18,0-0.36,0-0.54s0-0.36,0-0.54s0-0.36,0-0.54s0-0.36,0-0.54s0-0.36,0-0.54
	s0-0.36,0-0.54c0-0.72,0-1.439,0-2.16c-1.91,0-3.83,0-5.75,0c0-3.899,0-7.8,0-11.7c-1.92,0-3.84,0-5.77,0c-1.91,0-3.83,0-5.75,0
	s-3.84,0-5.771,0c0-1.92,0-3.84,0-5.76c-1.92,0-3.83,0-5.75,0c0-1.92,0-3.84,0-5.76c1.92,0,3.83,0,5.75,0c0.729,0,1.45,0,2.17,0
	c0.351,0,0.72,0,1.08,0c0.181,0,0.36,0,0.54,0s0.359,0,0.54,0c1.44,0,2.88,0,4.319,0c1.431,0,2.871,0,4.32,0c1.44,0,2.881,0,4.32,0
	c0,1.92,0,3.84,0,5.76c1.92,0,3.84,0,5.75,0c0-1.92,0-3.84,0-5.76c0.54,0,1.09,0,1.63,0c0.479,0,0.96,0,1.439,0
	c0.95,0,1.91,0,2.88,0c1.921,0,3.841,0,5.761,0c0-1.92,0-3.84,0-5.76c-0.96,0-1.92,0-2.88,0s-1.92,0-2.881,0c-0.06,0-0.119,0-0.18,0
	c0-3.84,0-7.681,0-11.521c-1.92,0-3.84,0-5.77,0c0-1.92,0-3.84,0-5.76c-7.67,0-15.35,0-23.04,0c0,1.92,0,3.84,0,5.76
	c-1.92,0-3.83,0-5.75,0s-3.84,0-5.761,0c0,1.92,0,3.84,0,5.761c-1.93,0-3.84,0-5.76,0c0,1.92,0,3.84,0,5.76s0,3.84,0,5.76
	c1.92,0,3.83,0,5.76,0c0,3.84,0,7.68,0,11.52c1.921,0,3.841,0,5.761,0c0,0.48,0,0.961,0,1.44c0,0.48,0,0.96,0,1.44
	c0,0.479,0,0.96,0,1.439c0,0.24,0,0.48,0,0.72c0,0.12,0,0.24,0,0.36c0,0.18,0,0.36,0,0.54c-0.19,0-0.36,0-0.54,0
	c-1.689,0-3.359,0-5.04,0c-0.06,0-0.13,0-0.181,0c0-0.54,0-1.08,0-1.62c0-0.479,0-0.96,0-1.439c0-0.48,0-0.96,0-1.44
	c0-0.479,0-0.96,0-1.44c-1.93,0-3.84,0-5.76,0S36.66,80.819,34.74,80.819z"/>
<path fill="#F15A46" d="M34.74,75.06c0,1.92,0,3.84,0,5.76c1.92,0,3.84,0,5.76,0c0-1.92,0-3.84,0-5.76
	C38.58,75.06,36.66,75.06,34.74,75.06z"/>
<path fill="#010101" d="M34.74,69.3c0,1.92,0,3.84,0,5.76c1.92,0,3.84,0,5.76,0c0,1.92,0,3.84,0,5.76c1.92,0,3.83,0,5.76,0
	c0-3.84,0-7.68,0-11.52c-1.93,0-3.84,0-5.76,0S36.66,69.3,34.74,69.3z"/>
<path fill="#7B7B7B" d="M34.74,63.54c0,1.92,0,3.84,0,5.76c1.92,0,3.84,0,5.76,0c0-1.92,0-3.84,0-5.76
	C38.58,63.54,36.66,63.54,34.74,63.54z"/>
<path fill="#232034" d="M34.74,52.02c0,3.84,0,7.681,0,11.521c1.92,0,3.84,0,5.76,0c0-1.92,0-3.84,0-5.76c0-1.921,0-3.841,0-5.761
	C38.58,52.02,36.66,52.02,34.74,52.02z"/>
<path fill="#232034" d="M40.5,109.8c0,1.92,0,3.84,0,5.76c1.92,0,3.83,0,5.76,0c0-1.92,0-3.84,0-5.76
	C44.33,109.8,42.42,109.8,40.5,109.8z"/>
<path fill="#AAAAAB" d="M40.5,104.04c0,1.92,0,3.84,0,5.76c1.92,0,3.83,0,5.76,0c0-1.92,0-3.84,0-5.76
	C44.33,104.04,42.42,104.04,40.5,104.04z"/>
<path fill="#232034" d="M40.5,98.28c0,1.92,0,3.84,0,5.76c1.92,0,3.83,0,5.76,0c0-1.92,0-3.84,0-5.76
	C44.33,98.28,42.42,98.28,40.5,98.28z"/>
<path fill="#010101" d="M40.5,92.52c0,1.92,0,3.84,0,5.761c1.92,0,3.83,0,5.76,0c0-1.921,0-3.841,0-5.761
	C44.33,92.52,42.42,92.52,40.5,92.52z"/>
<path fill="#7B7B7B" d="M40.5,52.02c0,1.92,0,3.84,0,5.761c1.92,0,3.83,0,5.76,0c0-1.921,0-3.841,0-5.761
	C44.33,52.02,42.42,52.02,40.5,52.02z"/>
<path fill="#232034" d="M40.5,46.26c0,1.92,0,3.84,0,5.76c1.92,0,3.83,0,5.76,0c1.921,0,3.841,0,5.761,0c0-1.92,0-3.84,0-5.76
	c-1.92,0-3.84,0-5.761,0C44.33,46.26,42.42,46.26,40.5,46.26z"/>
<path fill="#F79C7F" d="M46.26,121.319c0,3.841,0,7.681,0,11.521c1.921,0,3.841,0,5.761,0c0-3.84,0-7.68,0-11.521
	C50.101,121.319,48.181,121.319,46.26,121.319z"/>
<path fill="#232034" d="M46.26,115.56c0,1.92,0,3.84,0,5.76c1.921,0,3.841,0,5.761,0c7.681,0,15.36,0,23.04,0c0-1.92,0-3.84,0-5.76
	c-1.92,0-3.84,0-5.77,0C61.621,115.56,53.94,115.56,46.26,115.56z"/>
<path fill="#010101" d="M46.26,104.04c0,1.92,0,3.84,0,5.76c0.121,0,0.24,0,0.361,0c0.17,0,0.359,0,0.539,0c0.36,0,0.721,0,1.08,0
	c0.721,0,1.44,0,2.16,0c0.12,0,0.24,0,0.359,0c0.181,0,0.361,0,0.531,0c0.369,0,0.729,0,1.09,0c0.72,0,1.43,0,2.16,0
	c0.119,0,0.229,0,0.359,0c0.18,0,0.359,0,0.54,0c0.351,0,0.72,0,1.08,0c0.72,0,1.44,0,2.16,0c1.44,0,2.88,0,4.319,0
	c0.181,0,0.351,0,0.541,0c0-1.92,0-3.84,0-5.76c3.84,0,7.68,0,11.52,0c0-1.92,0-3.84,0-5.76c-1.92,0-3.84,0-5.77,0
	c0-1.921,0-3.841,0-5.761c-1.91,0-3.83,0-5.75,0c0,1.92,0,3.84,0,5.761c-1.92,0-3.84,0-5.771,0c0-1.921,0-3.841,0-5.761
	c-1.92,0-3.83,0-5.75,0c0,1.92,0,3.84,0,5.761c-1.92,0-3.84,0-5.761,0C46.26,100.2,46.26,102.12,46.26,104.04z"/>
<path fill="#010101" d="M46.26,85.14c0,0.54,0,1.08,0,1.62c0.051,0,0.121,0,0.181,0c1.681,0,3.351,0,5.04,0c0.18,0,0.35,0,0.54,0
	c0-0.18,0-0.36,0-0.54c0-0.12,0-0.24,0-0.36c0-0.239,0-0.479,0-0.72c0-0.479,0-0.96,0-1.439c0-0.48,0-0.96,0-1.44
	c0-0.479,0-0.96,0-1.44c-1.92,0-3.84,0-5.761,0c0,0.48,0,0.961,0,1.44c0,0.48,0,0.96,0,1.44C46.26,84.18,46.26,84.66,46.26,85.14z"
	/>
<path fill="#F79C7F" d="M46.26,40.5c0,1.92,0,3.84,0,5.76c1.921,0,3.841,0,5.761,0c0-1.92,0-3.84,0-5.76
	C50.101,40.5,48.181,40.5,46.26,40.5z"/>
<path fill="#7B7B7B" d="M52.021,69.3c0,1.92,0,3.84,0,5.76c1.92,0,3.83,0,5.75,0c0-1.92,0-3.84,0-5.76
	C55.851,69.3,53.94,69.3,52.021,69.3z"/>
<path fill="#7B7B7B" d="M52.021,46.26c0,1.92,0,3.84,0,5.76c1.92,0,3.83,0,5.75,0c0-1.92,0-3.84,0-5.76
	C55.851,46.26,53.94,46.26,52.021,46.26z"/>
<path fill="#232034" d="M52.021,40.5c0,1.92,0,3.84,0,5.76c1.92,0,3.83,0,5.75,0c7.69,0,15.37,0,23.04,0c1.93,0,3.85,0,5.77,0
	c0-1.92,0-3.84,0-5.76c-1.92,0-3.84,0-5.77,0c-1.91,0-3.83,0-5.75,0C67.381,40.5,59.701,40.5,52.021,40.5z"/>
<path fill="#F79C7F" d="M52.021,34.74c0,1.92,0,3.84,0,5.76c7.681,0,15.36,0,23.04,0c0-1.92,0-3.84,0-5.76c-0.061,0-0.12,0-0.18,0
	c-0.42,0-0.84,0-1.26,0c-0.48,0-0.961,0-1.44,0c-0.96,0-1.921,0-2.89,0c-1.851,0-3.711,0-5.57,0c-1.87,0-3.721,0-5.58,0
	c-1.87,0-3.721,0-5.58,0C52.381,34.74,52.201,34.74,52.021,34.74z"/>
<path fill="#F15A46" d="M57.771,75.06c0,1.92,0,3.84,0,5.76c1.931,0,3.851,0,5.771,0c0-1.92,0-3.84,0-5.76
	C61.621,75.06,59.701,75.06,57.771,75.06z"/>
<path fill="#010101" d="M57.771,69.3c0,1.92,0,3.84,0,5.76c1.931,0,3.851,0,5.771,0c0,1.92,0,3.84,0,5.76c1.92,0,3.84,0,5.75,0
	c0-1.92,0-3.84,0-5.76c1.93,0,3.85,0,5.77,0c0-1.92,0-3.84,0-5.76c-1.439,0-2.88,0-4.32,0c-1.449,0-2.89,0-4.32,0
	c-1.439,0-2.879,0-4.319,0c-0.181,0-0.36,0-0.54,0s-0.359,0-0.54,0c-0.36,0-0.729,0-1.08,0C59.221,69.3,58.5,69.3,57.771,69.3z"/>
<path fill="#7B7B7B" d="M69.291,109.8c0,1.92,0,3.84,0,5.76c1.93,0,3.85,0,5.77,0c0-1.92,0-3.84,0-5.76
	C73.141,109.8,71.221,109.8,69.291,109.8z"/>
<path fill="#7B7B7B" d="M69.291,75.06c0,1.92,0,3.84,0,5.76c1.93,0,3.85,0,5.77,0c0,3.9,0,7.801,0,11.7c1.92,0,3.84,0,5.75,0
	c0-1.92,0-3.84,0-5.76c1.93,0,3.85,0,5.77,0c0-0.479,0-0.96,0-1.44c0-0.479,0-0.96,0-1.439c0-0.48,0-0.96,0-1.44
	c0-0.239,0-0.479,0-0.72c0-0.3,0-0.6,0-0.9c0.54,0,1.08,0,1.62,0c0.48,0,0.96,0,1.44,0c0.96,0,1.92,0,2.88,0c0-1.92,0-3.84,0-5.76
	c1.92,0,3.83,0,5.75,0c0-2.88,0-5.76,0-8.64s0-5.76,0-8.64c-1.92,0-3.83,0-5.75,0c0-1.921,0-3.841,0-5.761c-0.96,0-1.92,0-2.88,0
	c-0.48,0-0.96,0-1.44,0c-0.54,0-1.08,0-1.62,0c0,3.84,0,7.681,0,11.521c0.061,0,0.12,0,0.18,0c0.961,0,1.921,0,2.881,0
	s1.92,0,2.88,0c0,1.92,0,3.84,0,5.76c-1.92,0-3.84,0-5.761,0c-0.97,0-1.93,0-2.88,0c-0.479,0-0.96,0-1.439,0c-0.54,0-1.09,0-1.63,0
	c0,1.92,0,3.84,0,5.76c-1.91,0-3.83,0-5.75,0S71.221,75.06,69.291,75.06z"/>
<path fill="#232034" d="M75.061,109.8c0,1.92,0,3.84,0,5.76c1.92,0,3.84,0,5.75,0c0-1.92,0-3.84,0-5.76
	C78.9,109.8,76.98,109.8,75.061,109.8z"/>
<path fill="#232034" d="M80.811,108.72c0,0.36,0,0.72,0,1.08c1.93,0,3.85,0,5.77,0c0-3.84,0-7.68,0-11.52c0-1.921,0-3.841,0-5.761
	c0.54,0,1.08,0,1.62,0c0.48,0,0.96,0,1.44,0c0.96,0,1.92,0,2.88,0c0-1.92,0-3.84,0-5.76c1.92,0,3.83,0,5.75,0c0-0.18,0-0.36,0-0.54
	c0-0.12,0-0.24,0-0.36c0-0.239,0-0.479,0-0.72c0.01-0.479,0-0.96,0-1.439c0-0.96,0-1.92,0-2.881c1.93,0,3.85,0,5.77,0
	c0-1.92,0-3.84,0-5.76s0-3.84,0-5.76s0-3.84,0-5.76s0-3.84,0-5.76c-1.92,0-3.84,0-5.77,0c0,2.88,0,5.76,0,8.64s0,5.76,0,8.64
	c-1.92,0-3.83,0-5.75,0c0,1.92,0,3.84,0,5.76c-0.96,0-1.92,0-2.88,0c-0.48,0-0.96,0-1.44,0c-0.54,0-1.08,0-1.62,0
	c0,0.301,0,0.601,0,0.9c0,0.24,0,0.48,0,0.72c0,0.48,0,0.96,0,1.44c0,0.479,0,0.96,0,1.439c0,0.48,0,0.961,0,1.44
	c-1.92,0-3.84,0-5.77,0c0,1.92,0,3.84,0,5.76c0,0.721,0,1.44,0,2.16c0,0.18,0,0.36,0,0.54s0,0.36,0,0.54s0,0.36,0,0.54
	s0,0.36,0,0.54s0,0.36,0,0.54s0,0.36,0,0.54c0,0.36,0,0.72,0,1.08c0,0.18,0,0.359,0,0.54c0,0.18,0,0.359,0,0.54
	c0,0.18,0,0.359,0,0.54c0,0.18,0,0.359,0,0.54c0,0.18,0,0.359,0,0.54c0,0.18,0,0.359,0,0.54c0,0.359,0,0.72,0,1.079
	c0,0.181,0,0.36,0,0.54c0,0.181,0,0.36,0,0.54c0,0.181,0,0.36,0,0.54c0,0.181,0,0.36,0,0.54c0,0.181,0,0.36,0,0.54
	c0,0.181,0,0.36,0,0.54c0,0.36,0,0.721,0,1.08c0,0.18,0,0.36,0,0.54S80.811,108.54,80.811,108.72z"/>
<path fill="#7B7B7B" d="M80.811,46.26c0,1.92,0,3.84,0,5.76c1.93,0,3.85,0,5.77,0c0-1.92,0-3.84,0-5.76
	C84.66,46.26,82.74,46.26,80.811,46.26z"/>
<path fill="#F79C7F" d="M80.811,34.74c0,1.92,0,3.84,0,5.76c1.93,0,3.85,0,5.77,0c0.96,0,1.92,0,2.88,0c0.48,0,0.96,0,1.44,0
	c0.54,0,1.08,0,1.62,0c0-1.92,0-3.84,0-5.76c-1.92,0-3.84,0-5.761,0c-0.97,0-1.93,0-2.88,0c-0.479,0-0.96,0-1.439,0
	C81.9,34.74,81.351,34.74,80.811,34.74z"/>
<path fill="#F79C7F" d="M86.58,92.52c0,1.92,0,3.84,0,5.761c0.96,0,1.92,0,2.88,0c0.48,0,0.96,0,1.44,0c0.54,0,1.08,0,1.62,0
	c0,1.92,0,3.84,0,5.76c1.92,0,3.83,0,5.75,0c0,1.92,0,3.84,0,5.76c1.93,0,3.85,0,5.77,0c0-3.84,0-7.68,0-11.52c1.92,0,3.84,0,5.75,0
	c0-0.061,0.01-0.12,0-0.181c0-0.06,0-0.12,0-0.18c0-0.12,0-0.24,0-0.36c0-0.24,0-0.479,0-0.72c0-0.42,0-0.84,0-1.26
	c0.01-0.84,0-1.681,0-2.521c0-0.18,0-0.359,0-0.54c-1.91,0-3.83,0-5.75,0c0-3.899,0-7.8,0-11.7c-1.92,0-3.84,0-5.77,0
	c0,0.961,0,1.921,0,2.881c0,0.479,0.01,0.96,0,1.439c0,0.24,0,0.48,0,0.72c0,0.12,0,0.24,0,0.36c0,0.18,0,0.36,0,0.54
	c-1.92,0-3.83,0-5.75,0c0,1.92,0,3.84,0,5.76c-0.96,0-1.92,0-2.88,0c-0.48,0-0.96,0-1.44,0C87.66,92.52,87.12,92.52,86.58,92.52z"/>
<path fill="#232034" d="M86.58,46.26c0,1.92,0,3.84,0,5.76c0.54,0,1.08,0,1.62,0c0.48,0,0.96,0,1.44,0c0.96,0,1.92,0,2.88,0
	c0-1.92,0-3.84,0-5.76c-0.061,0-0.12,0-0.19,0c-0.229,0-0.479,0-0.71,0c-0.24,0-0.479,0-0.72,0c-0.48,0-0.96,0-1.44,0
	C88.5,46.26,87.54,46.26,86.58,46.26z"/>
<path fill="#232034" d="M92.521,52.02c0,1.92,0,3.84,0,5.761c1.92,0,3.83,0,5.75,0c0-1.921,0-3.841,0-5.761
	C96.351,52.02,94.44,52.02,92.521,52.02z"/>
<path fill="#F79C7F" d="M104.04,69.3c0,1.92,0,3.84,0,5.76c0.66,0,1.311,0,1.98,0c0.72,0,1.439,0,2.16,0c0.649,0,1.319,0,1.979,0
	c0.72,0,1.44,0,2.15,0c1.39,0,2.77,0,4.149,0c0.181,0,0.351,0,0.54,0c0.181,0,0.351,0,0.54,0c0.36,0,0.72,0,1.08,0
	c0.71,0,1.44,0,2.15,0c0.189,0,0.37,0,0.54,0c0-1.92,0-3.84,0-5.76c1.93,0,3.85,0,5.77,0c0-5.76,0-11.52,0-17.28
	c-7.68,0-15.359,0-23.04,0c0,1.92,0,3.84,0,5.761c0,1.92,0,3.84,0,5.76c1.92,0,3.84,0,5.75,0c0,1.92,0,3.84,0,5.76
	C107.88,69.3,105.96,69.3,104.04,69.3z"/>
<path fill="#F15A46" d="M104.04,63.54c0,1.92,0,3.84,0,5.76c1.92,0,3.84,0,5.75,0c0-1.92,0-3.84,0-5.76
	C107.88,63.54,105.96,63.54,104.04,63.54z"/>
</svg>
