<?xml version="1.0" encoding="utf-8"?>
<!-- Generator: Adobe Illustrator 15.0.0, SVG Export Plug-In  -->
<!DOCTYPE svg PUBLIC "-//W3C//DTD SVG 1.1//EN" "http://www.w3.org/Graphics/SVG/1.1/DTD/svg11.dtd" [
	<!ENTITY ns_flows "http://ns.adobe.com/Flows/1.0/">
]>
<svg version="1.1"
	 xmlns="http://www.w3.org/2000/svg" xmlns:xlink="http://www.w3.org/1999/xlink" xmlns:a="http://ns.adobe.com/AdobeSVGViewerExtensions/3.0/"
	 x="0px" y="0px" width="200px" height="200px" viewBox="-19.01 -24.49 200 200" enable-background="new -19.01 -24.49 200 200"
	 xml:space="preserve">
<defs>
</defs>
<path fill="#D42C41" d="M0,105.3c0,1.44,0,2.88,0,4.319c1.91,0,3.83,0,5.75,0c0,0.961,0,1.92,0,2.881c0,0.48,0,0.96,0,1.439
	c0,0.541,0,1.08,0,1.62c0.96,0,1.92,0,2.88,0c0.49,0,0.97,0,1.45,0c0.47,0,0.96,0,1.44,0c0.06,0,0.109,0,0.18,0
	c0,0.181,0,0.36,0,0.54c0,0.78,0,1.561,0,2.34c0,0.78,0,1.561,0,2.34c0,0.181,0,0.36,0,0.541c1.92,0,3.84,0,5.75,0
	c0,3.84,0,7.68,0,11.52c1.92,0,3.84,0,5.76,0c0,1.92,0,3.84,0,5.76c1.92,0,3.851,0,5.771,0c0,1.92,0,3.84,0,5.76
	c1.92,0,3.84,0,5.76,0c0,1.92,0,3.84,0,5.76c7.67,0,15.359,0,23.04,0c0-1.92,0-3.84,0-5.76c1.92,0,3.84,0,5.76,0
	c0-1.92,0-3.84,0-5.76c0.12,0,0.24,0,0.36,0c0.3,0,0.6,0,0.89,0c0.37,0,0.73,0,1.08,0c0.19,0,0.37,0,0.54,0c0.189,0,0.37,0,0.54,0
	c0.37,0,0.72,0,1.09,0c0.17,0,0.36,0,0.54,0c0.17,0,0.36,0,0.54,0c0.36,0,0.71,0,1.08,0c0.17,0,0.36,0,0.54,0c0.17,0,0.359,0,0.54,0
	c0.35,0,0.72,0,1.08,0c0.18,0,0.35,0,0.54,0c0.18,0,0.35,0,0.54,0c0.35,0,0.72,0,1.08,0c0.18,0,0.35,0,0.54,0c0.18,0,0.35,0,0.539,0
	c0.351,0,0.721,0,1.07,0c0.19,0,0.37,0,0.54,0c0.19,0,0.37,0,0.54,0c0.37,0,0.73,0,1.08,0c0.19,0,0.37,0,0.54,0
	c0.19,0,0.37,0,0.54,0c0.37,0,0.72,0,1.09,0c0-1.92,0-3.84,0-5.76c1.91,0,3.83,0,5.75,0c0-1.92,0-3.84,0-5.76c3.85,0,7.69,0,11.53,0
	c0,1.92,0,3.84,0,5.76c1.92,0,3.84,0,5.76,0c0,0.18,0,0.359,0,0.54c0,0.78,0,1.56,0,2.34s0,1.56,0,2.34c0,0.181,0,0.36,0,0.54
	c1.91,0,3.83,0,5.75,0c0,1.92,0,3.84,0,5.76c0.73,0,1.45,0,2.16,0c0.18,0,0.37,0,0.55,0c0.17,0,0.36,0,0.54,0c0.17,0,0.36,0,0.54,0
	c0.17,0,0.36,0,0.54,0c0.17,0,0.36,0,0.54,0c0.17,0,0.36,0,0.54,0c0.17,0,0.36,0,0.54,0c0.17,0,0.359,0,0.54,0c0.17,0,0.35,0,0.54,0
	c0.18,0,0.35,0,0.54,0c0.35,0,0.72,0,1.08,0c0.18,0,0.35,0,0.54,0c0.18,0,0.35,0,0.54,0c0.18,0,0.35,0,0.54,0c0.18,0,0.35,0,0.539,0
	c0.181,0,0.351,0,0.53,0c0.19,0,0.37,0,0.54,0c0.19,0,0.37,0,0.54,0c0.19,0,0.37,0,0.54,0c0.37,0,0.73,0,1.08,0
	c0.37,0,0.73,0,1.08,0c0.72,0,1.45,0,2.17,0c0-1.92,0-3.84,0-5.76c1.92,0,3.83,0,5.75,0c0-1.92,0-3.84,0-5.76c1.92,0,3.84,0,5.77,0
	c0-1.92,0-3.84,0-5.76c0.181,0,0.351,0,0.53,0c1.57,0,3.12,0,4.69,0c0.18,0,0.35,0,0.54,0c0-3.84,0-7.68,0-11.521
	c0.18,0,0.35,0,0.54,0c1.55,0,3.12,0,4.68,0c0.17,0,0.36,0,0.54,0c0-1.44,0-2.88,0-4.319c0-1.44,0-2.881,0-4.32s0-2.881,0-4.32
	c0-1.5,0-3,0-4.5c-1.92,0-3.84,0-5.76,0c0,1.92,0,3.84,0,5.76c-1.92,0-3.84,0-5.761,0c0,0.061,0,0.121,0,0.18
	c0,0.061,0,0.121,0,0.181c0,0.12,0,0.24,0,0.36c0,0.18,0,0.359,0,0.539c0,0.361,0,0.721,0,1.08c0,0.721,0,1.44,0,2.16
	c-0.01,1.44,0,2.881,0,4.32c-0.01,1.439,0,2.88,0,4.32c0,0.18,0,0.359,0,0.539c0,0.181,0,0.361,0,0.541c0,0.359,0,0.72,0,1.08
	c0,0.72,0,1.439,0,2.16c-1.93,0-3.85,0-5.77,0c0,1.92,0,3.84,0,5.76c-1.92,0-3.83,0-5.75,0c0,1.92,0,3.84,0,5.76
	c-0.72,0-1.45,0-2.17,0c-0.17,0-0.35,0-0.54,0c-0.17,0-0.35,0-0.54,0c-0.35,0-0.71,0-1.08,0c-0.17,0-0.35,0-0.54,0
	c-0.17,0-0.35,0-0.54,0c-0.35,0-0.72,0-1.07,0c-0.189,0-0.359,0-0.539,0c-0.19,0-0.36,0-0.54,0c-0.36,0-0.73,0-1.08,0
	c-0.19,0-0.36,0-0.54,0c-0.19,0-0.36,0-0.54,0c-0.36,0-0.73,0-1.08,0c-0.181,0-0.37,0-0.54,0c-0.18,0-0.37,0-0.54,0
	c-0.37,0-0.72,0-1.08,0c-0.18,0-0.37,0-0.54,0c-0.18,0-0.37,0-0.54,0c-0.37,0-0.72,0-1.09,0c-0.71,0-1.43,0-2.16,0
	c0-1.92,0-3.84,0-5.76c-1.92,0-3.84,0-5.75,0c0-1.92,0-3.84,0-5.76c-0.25,0-0.479,0-0.72,0s-0.49,0-0.721,0c-0.479,0-0.97,0-1.439,0
	c-0.49,0-0.96,0-1.45,0c-0.47,0-0.96,0-1.43,0c-0.42,0-0.84,0-1.26,0c-0.48,0-0.971,0-1.44,0c-0.48,0-0.96,0-1.45,0
	c-0.47,0-0.96,0-1.43,0c-0.42,0-0.84,0-1.26,0c-0.49,0-0.96,0-1.44,0c-0.479,0-0.96,0-1.439,0c-0.48,0-0.961,0-1.44,0
	c-0.42,0-0.84,0-1.26,0c-0.49,0-0.96,0-1.45,0c-0.96,0-1.91,0-2.87,0c-0.18,0-0.37,0-0.54,0c0,1.92,0,3.84,0,5.76
	c-0.72,0-1.439,0-2.17,0c-0.17,0-0.35,0-0.54,0c-0.17,0-0.35,0-0.54,0c-0.35,0-0.71,0-1.08,0c-0.17,0-0.35,0-0.54,0
	c-0.18,0-0.35,0-0.53,0c-0.359,0-0.729,0-1.079,0c-0.19,0-0.36,0-0.54,0c-0.19,0-0.36,0-0.54,0c-0.36,0-0.73,0-1.08,0
	c-0.19,0-0.36,0-0.54,0c-0.19,0-0.37,0-0.54,0c-0.37,0-0.72,0-1.08,0c-0.18,0-0.37,0-0.54,0c-0.18,0-0.37,0-0.54,0
	c-0.37,0-0.72,0-1.08,0c-0.18,0-0.37,0-0.54,0c-0.18,0-0.37,0-0.55,0c-0.351,0-0.71,0-1.08,0c-0.771,0-1.55,0-2.33,0
	c0,1.92,0,3.84,0,5.76c-1.92,0-3.84,0-5.76,0c0,1.92,0,3.84,0,5.76c-1.92,0-3.84,0-5.76,0c0,1.92,0,3.84,0,5.76
	c-3.851,0-7.69,0-11.521,0c0-1.92,0-3.84,0-5.76c-1.92,0-3.84,0-5.76,0c0-1.92,0-3.84,0-5.76c-1.92,0-3.84,0-5.76,0
	c0-3.84,0-7.68,0-11.52c-1.92,0-3.851,0-5.771,0c0-1.92,0-3.84,0-5.761c-1.92,0-3.84,0-5.76,0c0-0.96,0-1.92,0-2.88
	c0-0.48,0-0.96,0-1.439c0-0.541,0-1.08,0-1.621c-1.91,0-3.83,0-5.75,0c0-3.84,0-7.68,0-11.52c-0.07,0-0.12,0-0.18,0
	c-0.24,0-0.48,0-0.73,0c-0.24,0-0.47,0-0.71,0c-0.48,0-0.96,0-1.45,0c-0.96,0-1.92,0-2.88,0c0-5.76,0-11.52,0-17.279
	c0.96,0,1.92,0,2.88,0c0.49,0,0.97,0,1.45,0c0.54,0,1.08,0,1.62,0c0-3.84,0-7.681,0-11.521c-0.07,0-0.12,0-0.18,0
	c-0.24,0-0.48,0-0.73,0c-0.24,0-0.47,0-0.71,0c-0.48,0-0.96,0-1.45,0c-0.96,0-1.92,0-2.88,0c0,1.92,0,3.84,0,5.76
	c-1.92,0-3.84,0-5.75,0c0,1.44,0,2.88,0,4.32s0,2.88,0,4.319c0,1.44,0,2.881,0,4.32c0,1.44,0,2.881,0,4.32s0,2.88,0,4.32
	c0,1.439,0,2.879,0,4.32C0,102.42,0,103.859,0,105.3z"/>
<path fill="#F15A46" d="M5.75,80.82c0,5.76,0,11.52,0,17.279c0.96,0,1.92,0,2.88,0c0.49,0,0.97,0,1.45,0c0.24,0,0.47,0,0.71,0
	c0.25,0,0.49,0,0.73,0c0.06,0,0.109,0,0.18,0c0,3.84,0,7.68,0,11.52c1.92,0,3.84,0,5.75,0c0,0.541,0,1.08,0,1.621
	c0,0.479,0,0.959,0,1.439c0,0.96,0,1.92,0,2.88c1.92,0,3.84,0,5.76,0c0,1.921,0,3.841,0,5.761c1.92,0,3.851,0,5.771,0
	c0,3.84,0,7.68,0,11.52c1.92,0,3.84,0,5.76,0c0,1.92,0,3.84,0,5.76c1.92,0,3.84,0,5.76,0c0,1.92,0,3.84,0,5.76
	c3.83,0,7.67,0,11.521,0c0-1.92,0-3.84,0-5.76c1.92,0,3.84,0,5.76,0c0-1.92,0-3.84,0-5.76c1.92,0,3.84,0,5.76,0
	c0-1.92,0-3.84,0-5.76c0.78,0,1.56,0,2.33,0c0.37,0,0.729,0,1.08,0c0.18,0,0.37,0,0.55,0c0.17,0,0.36,0,0.54,0c0.36,0,0.71,0,1.08,0
	c0.17,0,0.36,0,0.54,0c0.17,0,0.36,0,0.54,0c0.36,0,0.71,0,1.08,0c0.17,0,0.35,0,0.54,0c0.18,0,0.35,0,0.54,0c0.35,0,0.72,0,1.08,0
	c0.18,0,0.35,0,0.54,0c0.18,0,0.35,0,0.54,0c0.35,0,0.72,0,1.079,0c0.181,0,0.351,0,0.53,0c0.19,0,0.37,0,0.54,0
	c0.37,0,0.73,0,1.08,0c0.19,0,0.37,0,0.54,0c0.19,0,0.37,0,0.54,0c0.73,0,1.45,0,2.17,0c0-1.92,0-3.84,0-5.76c0.17,0,0.36,0,0.54,0
	c0.96,0,1.91,0,2.87,0c0.49,0,0.96,0,1.45,0c0.42,0,0.84,0,1.26,0c0.479,0,0.96,0,1.44,0c0.479,0,0.96,0,1.439,0
	c0.48,0,0.95,0,1.44,0c0.42,0,0.84,0,1.26,0c0.47,0,0.96,0,1.43,0c0.49,0,0.97,0,1.45,0c0.47,0,0.96,0,1.44,0c0.42,0,0.84,0,1.26,0
	c0.47,0,0.96,0,1.43,0c0.49,0,0.96,0,1.45,0c0.47,0,0.96,0,1.439,0c0.23,0,0.48,0,0.721,0s0.47,0,0.72,0c0,1.92,0,3.84,0,5.76
	c1.91,0,3.83,0,5.75,0c0,1.92,0,3.84,0,5.76c0.73,0,1.45,0,2.16,0c0.37,0,0.72,0,1.09,0c0.17,0,0.36,0,0.54,0c0.17,0,0.36,0,0.54,0
	c0.36,0,0.71,0,1.08,0c0.17,0,0.36,0,0.54,0c0.17,0,0.359,0,0.54,0c0.35,0,0.72,0,1.08,0c0.18,0,0.35,0,0.54,0c0.18,0,0.35,0,0.54,0
	c0.35,0,0.72,0,1.08,0c0.18,0,0.35,0,0.54,0c0.18,0,0.35,0,0.539,0c0.351,0,0.721,0,1.07,0c0.19,0,0.37,0,0.54,0
	c0.19,0,0.37,0,0.54,0c0.37,0,0.73,0,1.08,0c0.19,0,0.37,0,0.54,0c0.19,0,0.37,0,0.54,0c0.72,0,1.45,0,2.17,0c0-1.92,0-3.84,0-5.76
	c1.92,0,3.83,0,5.75,0c0-1.92,0-3.84,0-5.76c1.92,0,3.84,0,5.77,0c0-0.721,0-1.44,0-2.16c0-0.36,0-0.721,0-1.08
	c0-0.18,0-0.36,0-0.541c0-0.18,0-0.359,0-0.539c0-1.44-0.01-2.881,0-4.32c0-1.439-0.01-2.88,0-4.32c0-0.72,0-1.439,0-2.16
	c0-0.359,0-0.719,0-1.08c0-0.18,0-0.359,0-0.539c0-0.12,0-0.24,0-0.36c0-0.06,0-0.12,0-0.181c0-0.059,0-0.119,0-0.18
	c1.921,0,3.841,0,5.761,0c0-1.92,0-3.84,0-5.76c1.92,0,3.84,0,5.76,0c0-3.84,0-7.68,0-11.52c-1.92,0-3.84,0-5.76,0
	c0-0.18,0-0.36,0-0.541c0-1.319,0-2.639,0-3.959c0-1.381,0-2.76,0-4.141c0-1.32,0-2.64,0-3.959c0-1.38,0-2.76,0-4.14
	c0-0.18,0-0.36,0-0.54c-3.84,0-7.69,0-11.53,0c0,1.92,0,3.84,0,5.76c-3.83,0-7.67,0-11.51,0c0-1.92,0-3.84,0-5.76
	c3.84,0,7.68,0,11.51,0c0-1.92,0-3.84,0-5.76c1.92,0,3.84,0,5.77,0c0-5.76,0-11.52,0-17.28c-3.85,0-7.689,0-11.52,0
	c0-1.92,0-3.84,0-5.76c-1.92,0-3.84,0-5.76,0c0-1.98,0-3.96,0-5.94c-3.84,0-7.69,0-11.53,0c0-1.92,0-3.84,0-5.76
	c-5.75,0-11.51,0-17.27,0c0-1.92,0-3.84,0-5.76c-1.921,0-3.851,0-5.771,0c0-1.92,0-3.84,0-5.76c-1.92,0-3.84,0-5.75,0
	c0-1.92,0-3.84,0-5.76c-9.67,0-19.33,0-28.979,0c0,1.92,0,3.84,0,5.76c-1.921,0-3.851,0-5.771,0c0,1.92,0,3.84,0,5.76
	c-1.92,0-3.84,0-5.75,0c0,1.92,0,3.84,0,5.76c-1.92,0-3.84,0-5.76,0c0,3.9,0,7.8,0,11.7c-1.92,0-3.84,0-5.76,0
	c0,3.84,0,7.68,0,11.52c1.92,0,3.84,0,5.76,0s3.84,0,5.76,0c0-1.92,0-3.84,0-5.76c1.91,0,3.83,0,5.75,0c0-3.9,0-7.8,0-11.7
	c1.92,0,3.85,0,5.771,0c0-3.84,0-7.68,0-11.52c7.68,0,15.35,0,23.04,0c0,1.92,0,3.84,0,5.76c3.89,0,7.8,0,11.689,0
	c0,1.92,0,3.84,0,5.76c3.85,0,7.69,0,11.53,0c0,1.98,0,3.96,0,5.94c3.84,0,7.67,0,11.51,0c0,1.92,0,3.84,0,5.76
	c1.92,0,3.84,0,5.771,0c0,5.76,0,11.52,0,17.28c-3.851,0-7.69,0-11.521,0c0,5.76,0,11.52,0,17.281c0,3.84,0,7.68,0,11.52
	c1.91,0,3.83,0,5.75,0c0,1.92,0,3.84,0,5.76c3.84,0,7.69,0,11.53,0c0,3.84,0,7.68,0,11.52c-7.69,0-15.37,0-23.04,0
	c0-3.84,0-7.68,0-11.52c-1.92,0-3.84,0-5.76,0c0,1.92,0,3.84,0,5.76c-1.921,0-3.851,0-5.771,0c0,1.92,0,3.84,0,5.76
	c-1.92,0-3.84,0-5.75,0c0,0.961,0,1.92,0,2.881c0,0.48,0,0.96,0,1.439c0,0.48,0,0.961,0,1.44c0,0.06,0,0.12,0,0.18
	c-0.55,0-1.09,0-1.63,0c-0.47,0-0.96,0-1.43,0c-0.96,0-1.92,0-2.88,0c0,1.921,0,3.841,0,5.761c-0.19,0-0.36,0-0.54,0
	c-0.12,0-0.24,0-0.36,0c-0.3,0-0.61,0-0.91,0s-0.59,0-0.89,0s-0.61,0-0.91,0c-0.29,0-0.59,0-0.89,0c-0.311,0-0.61,0-0.9,0
	c-0.3,0-0.61,0-0.91,0s-0.59,0-0.89,0s-0.61,0-0.91,0c-0.29,0-0.59,0-0.89,0c-0.311,0-0.61,0-0.9,0c-0.3,0-0.61,0-0.91,0
	s-0.59,0-0.89,0s-0.61,0-0.91,0c-0.29,0-0.59,0-0.89,0c-0.311,0-0.61,0-0.9,0c-0.3,0-0.61,0-0.91,0s-0.59,0-0.89,0s-0.61,0-0.91,0
	c-0.29,0-0.59,0-0.89,0c-0.311,0-0.61,0-0.9,0c-0.3,0-0.61,0-0.91,0s-0.59,0-0.89,0s-0.61,0-0.91,0c-0.29,0-0.59,0-0.89,0
	c-0.311,0-0.61,0-0.9,0c-0.3,0-0.61,0-0.91,0s-0.59,0-0.89,0s-0.61,0-0.91,0c-0.29,0-0.59,0-0.89,0c-0.61,0-1.2,0-1.811,0
	c0-1.92,0-3.84,0-5.761c-1.92,0-3.84,0-5.75,0c0-0.54,0-1.079,0-1.62c0-0.479,0-0.959,0-1.439c0-0.961,0-1.92,0-2.881
	c-1.92,0-3.84,0-5.76,0c0-1.92,0-3.84,0-5.76s0-3.84,0-5.76c-1.92,0-3.84,0-5.76,0c0,1.92,0,3.84,0,5.76c-0.19,0-0.36,0-0.54,0
	c-0.851,0-1.69,0-2.53,0c-0.83,0-1.67,0-2.51,0c-0.07,0-0.12,0-0.19,0c0-3.84,0-7.68,0-11.52c-1.92,0-3.84,0-5.76,0
	c0-1.92,0-3.84,0-5.76c1.92,0,3.84,0,5.76,0c0-1.92,0-3.84,0-5.76c1.92,0,3.851,0,5.771,0c0-5.761,0-11.521,0-17.281
	c-3.851,0-7.69,0-11.53,0c0,1.92,0,3.84,0,5.76c-1.91,0-3.83,0-5.75,0c0,3.84,0,7.681,0,11.521c-0.54,0-1.08,0-1.62,0
	c-0.48,0-0.96,0-1.45,0C7.67,80.82,6.71,80.82,5.75,80.82z"/>
<path fill="#D42C41" d="M11.7,57.78c0,3.84,0,7.68,0,11.52c1.92,0,3.84,0,5.75,0c0-1.92,0-3.84,0-5.76c3.84,0,7.68,0,11.53,0
	c1.92,0,3.84,0,5.76,0c0-3.84,0-7.68,0-11.52c-1.92,0-3.84,0-5.76,0c0-3.84,0-7.68,0-11.52c1.92,0,3.84,0,5.76,0c0-3.9,0-7.8,0-11.7
	c1.92,0,3.84,0,5.76,0c0-1.92,0-3.84,0-5.76c1.91,0,3.83,0,5.75,0c0-1.92,0-3.84,0-5.76c1.92,0,3.85,0,5.771,0c0-1.92,0-3.84,0-5.76
	c-5.771,0-11.521,0-17.28,0c0,1.92,0,3.84,0,5.76c-1.92,0-3.84,0-5.76,0c0,1.92,0,3.84,0,5.76c-1.92,0-3.851,0-5.771,0
	c0,3.84,0,7.68,0,11.52c-1.92,0-3.84,0-5.76,0c0,3.9,0,7.8,0,11.7c1.92,0,3.84,0,5.76,0c0,0.18,0,0.36,0,0.54c0,3.66,0,7.32,0,10.98
	C19.37,57.78,15.54,57.78,11.7,57.78z"/>
<path fill="#F79C7F" d="M17.45,86.58c0,1.92,0,3.84,0,5.76c1.92,0,3.84,0,5.76,0c0,3.84,0,7.68,0,11.52c0.07,0,0.12,0,0.19,0
	c0.84,0,1.68,0,2.51,0c0.84,0,1.68,0,2.53,0c0.18,0,0.35,0,0.54,0c0-1.92,0-3.84,0-5.76c1.92,0,3.84,0,5.76,0c0-1.92,0-3.84,0-5.76
	c-1.92,0-3.84,0-5.76,0c0-3.84,0-7.68,0-11.52c-1.92,0-3.851,0-5.771,0c0,1.92,0,3.84,0,5.76C21.29,86.58,19.37,86.58,17.45,86.58z"
	/>
<path fill="#232034" d="M28.98,80.82c0,3.84,0,7.68,0,11.52c1.92,0,3.84,0,5.76,0c0-3.84,0-7.68,0-11.52c0-1.92,0-3.84,0-5.761
	c0-1.92,0-3.84,0-5.76s0-3.84,0-5.76c-1.92,0-3.84,0-5.76,0C28.98,69.3,28.98,75.06,28.98,80.82z"/>
<path fill="#232034" d="M34.74,103.859c0,1.92,0,3.84,0,5.76c1.92,0,3.84,0,5.76,0c0-1.92,0-3.84,0-5.76
	C38.58,103.859,36.66,103.859,34.74,103.859z"/>
<path fill="#F79C7F" d="M34.74,98.1c0,1.92,0,3.84,0,5.76c1.92,0,3.84,0,5.76,0c0-1.92,0-3.84,0-5.76
	C38.58,98.1,36.66,98.1,34.74,98.1z"/>
<path fill="#232034" d="M34.74,92.34c0,1.92,0,3.84,0,5.76c1.92,0,3.84,0,5.76,0c0-1.92,0-3.84,0-5.76
	C38.58,92.34,36.66,92.34,34.74,92.34z"/>
<path fill="#AAAAAB" d="M34.74,80.82c0,3.84,0,7.68,0,11.52c1.92,0,3.84,0,5.76,0c1.91,0,3.83,0,5.75,0c0,1.92,0,3.84,0,5.76
	c1.92,0,3.85,0,5.771,0c0-1.92,0-3.84,0-5.76c1.92,0,3.84,0,5.76,0c0,1.92,0,3.84,0,5.76c1.92,0,3.84,0,5.76,0c0-1.92,0-3.84,0-5.76
	c1.91,0,3.83,0,5.75,0c0,1.92,0,3.84,0,5.76c1.92,0,3.84,0,5.771,0c0,1.92,0,3.84,0,5.76c-3.851,0-7.69,0-11.521,0
	c0,1.92,0,3.84,0,5.76c-0.18,0-0.37,0-0.54,0c-1.439,0-2.88,0-4.33,0c-1.38,0-2.76,0-4.13,0c-2.76,0-5.52,0-8.29,0
	c0,0.541,0,1.08,0,1.621c0,0.479,0,0.959,0,1.439c0,0.96,0,1.92,0,2.88c7.69,0,15.37,0,23.04,0c0-0.96,0-1.92,0-2.88
	c0-0.48,0-0.96,0-1.439c0-0.48,0-0.961,0-1.44c0-0.06,0-0.12,0-0.181c1.92,0,3.84,0,5.771,0c0.539,0,1.069,0,1.609,0
	c0.49,0,0.96,0,1.45,0c0.96,0,1.92,0,2.88,0c0-0.719,0-1.439,0-2.159c0-0.36,0-0.72,0-1.08c0-0.181,0-0.36,0-0.54s0-0.359,0-0.54
	c0-1.44,0-2.88,0-4.319c0-1.441,0-2.881,0-4.32c0-1.44,0-2.881,0-4.32c-0.96,0-1.92,0-2.88,0c-0.49,0-0.96,0-1.45,0
	c-0.229,0-0.47,0-0.72,0c-0.29,0-0.59,0-0.89,0c0-3.84,0-7.68,0-11.52c-1.931,0-3.851,0-5.771,0s-3.84,0-5.75,0
	c-1.92,0-3.84,0-5.76,0c0-1.92,0-3.84,0-5.761c-1.92,0-3.84,0-5.76,0c0-1.92,0-3.84,0-5.76c1.92,0,3.84,0,5.76,0
	c5.76,0,11.51,0,17.28,0c0,1.92,0,3.84,0,5.76c1.02,0,2.039,0,3.06,0c0.96,0,1.92,0,2.88,0c0-1.92,0-3.84,0-5.76
	c3.83,0,7.67,0,11.521,0c0-1.92,0-3.84,0-5.76c-1.921,0-3.851,0-5.771,0c0-3.84,0-7.68,0-11.52c-1.92,0-3.84,0-5.75,0
	c0-1.92,0-3.84,0-5.76c-7.75,0-15.479,0-23.22,0c0,1.92,0,3.84,0,5.76c-1.92,0-3.84,0-5.76,0c-1.921,0-3.851,0-5.771,0
	c0,1.92,0,3.84,0,5.76c-1.92,0-3.84,0-5.75,0c0,1.92,0,3.84,0,5.76c0,1.92,0,3.84,0,5.76c1.91,0,3.83,0,5.75,0
	c0,3.84,0,7.681,0,11.521c1.92,0,3.85,0,5.771,0c0,1.92,0,3.84,0,5.76c-0.19,0-0.36,0-0.54,0c-1.74,0-3.48,0-5.23,0
	c0-1.92,0-3.84,0-5.76c-1.92,0-3.84,0-5.75,0C38.58,80.82,36.66,80.82,34.74,80.82z"/>
<path fill="#F15A46" d="M34.74,75.06c0,1.921,0,3.841,0,5.761c1.92,0,3.84,0,5.76,0c0-1.92,0-3.84,0-5.761
	C38.58,75.06,36.66,75.06,34.74,75.06z"/>
<path fill="#010101" d="M34.74,69.3c0,1.92,0,3.84,0,5.76c1.92,0,3.84,0,5.76,0c0,1.921,0,3.841,0,5.761c1.91,0,3.83,0,5.75,0
	c0-3.84,0-7.681,0-11.521c-1.92,0-3.84,0-5.75,0C38.58,69.3,36.66,69.3,34.74,69.3z"/>
<path fill="#7B7B7B" d="M34.74,63.54c0,1.92,0,3.84,0,5.76c1.92,0,3.84,0,5.76,0c0-1.92,0-3.84,0-5.76
	C38.58,63.54,36.66,63.54,34.74,63.54z"/>
<path fill="#232034" d="M34.74,52.02c0,3.84,0,7.68,0,11.52c1.92,0,3.84,0,5.76,0c0-1.92,0-3.84,0-5.76s0-3.84,0-5.76
	C38.58,52.02,36.66,52.02,34.74,52.02z"/>
<path fill="#232034" d="M40.5,113.939c0,0.541,0,1.08,0,1.62c1.91,0,3.83,0,5.75,0c0-0.96,0-1.92,0-2.88c0-0.48,0-0.96,0-1.439
	c0-0.541,0-1.08,0-1.621c-1.92,0-3.84,0-5.75,0c0,0.961,0,1.92,0,2.881C40.5,112.98,40.5,113.46,40.5,113.939z"/>
<path fill="#AAAAAB" d="M40.5,103.859c0,1.92,0,3.84,0,5.76c1.91,0,3.83,0,5.75,0c0-1.92,0-3.84,0-5.76
	C44.33,103.859,42.41,103.859,40.5,103.859z"/>
<path fill="#232034" d="M40.5,98.1c0,1.92,0,3.84,0,5.76c1.91,0,3.83,0,5.75,0c0-1.92,0-3.84,0-5.76
	C44.33,98.1,42.41,98.1,40.5,98.1z"/>
<path fill="#010101" d="M40.5,92.34c0,1.92,0,3.84,0,5.76c1.91,0,3.83,0,5.75,0c0-1.92,0-3.84,0-5.76
	C44.33,92.34,42.41,92.34,40.5,92.34z"/>
<path fill="#7B7B7B" d="M40.5,52.02c0,1.92,0,3.84,0,5.76c1.91,0,3.83,0,5.75,0c0-1.92,0-3.84,0-5.76
	C44.33,52.02,42.41,52.02,40.5,52.02z"/>
<path fill="#232034" d="M40.5,46.26c0,1.92,0,3.84,0,5.76c1.91,0,3.83,0,5.75,0s3.85,0,5.771,0c0-1.92,0-3.84,0-5.76
	c-1.921,0-3.851,0-5.771,0S42.41,46.26,40.5,46.26z"/>
<path fill="#232034" d="M46.25,115.56c0,1.921,0,3.841,0,5.761c0.61,0,1.2,0,1.811,0c0.3,0,0.6,0,0.89,0c0.3,0,0.61,0,0.91,0
	s0.59,0,0.89,0s0.61,0,0.91,0c0.29,0,0.59,0,0.9,0c0.3,0,0.6,0,0.89,0c0.3,0,0.61,0,0.91,0s0.59,0,0.89,0s0.61,0,0.91,0
	c0.29,0,0.59,0,0.9,0c0.3,0,0.6,0,0.89,0c0.3,0,0.61,0,0.91,0s0.59,0,0.89,0s0.61,0,0.91,0c0.29,0,0.59,0,0.9,0c0.3,0,0.6,0,0.89,0
	c0.3,0,0.61,0,0.91,0s0.59,0,0.89,0s0.61,0,0.91,0c0.29,0,0.59,0,0.9,0c0.3,0,0.6,0,0.89,0c0.3,0,0.61,0,0.91,0s0.59,0,0.89,0
	s0.61,0,0.91,0c0.29,0,0.59,0,0.9,0c0.3,0,0.6,0,0.89,0c0.3,0,0.61,0,0.91,0s0.59,0,0.89,0s0.61,0,0.91,0c0.12,0,0.24,0,0.36,0
	c0.18,0,0.35,0,0.54,0c0-1.92,0-3.84,0-5.761c-1.931,0-3.851,0-5.771,0C61.62,115.56,53.94,115.56,46.25,115.56z"/>
<path fill="#010101" d="M46.25,103.859c0,1.92,0,3.84,0,5.76c2.771,0,5.53,0,8.29,0c1.37,0,2.75,0,4.13,0c1.45,0,2.891,0,4.33,0
	c0.17,0,0.36,0,0.54,0c0-1.92,0-3.84,0-5.76c3.83,0,7.67,0,11.521,0c0-1.92,0-3.84,0-5.76c-1.931,0-3.851,0-5.771,0
	c0-1.92,0-3.84,0-5.76c-1.92,0-3.84,0-5.75,0c0,1.92,0,3.84,0,5.76c-1.92,0-3.84,0-5.76,0c0-1.92,0-3.84,0-5.76
	c-1.92,0-3.84,0-5.76,0c0,1.92,0,3.84,0,5.76c-1.921,0-3.851,0-5.771,0C46.25,100.02,46.25,101.939,46.25,103.859z"/>
<path fill="#010101" d="M46.25,80.82c0,1.92,0,3.84,0,5.76c1.75,0,3.49,0,5.23,0c0.18,0,0.35,0,0.54,0c0-1.92,0-3.84,0-5.76
	C50.1,80.82,48.17,80.82,46.25,80.82z"/>
<path fill="#F79C7F" d="M46.25,34.56c0,3.9,0,7.8,0,11.7c1.92,0,3.85,0,5.771,0c0-1.92,0-3.84,0-5.76c1.92,0,3.84,0,5.76,0
	c0-0.54,0-1.08,0-1.62c0-0.48,0-0.96,0-1.44c0-0.96,0-1.92,0-2.88c1.92,0,3.84,0,5.76,0c0-1.92,0-3.84,0-5.76c1.91,0,3.83,0,5.75,0
	c0,1.92,0,3.84,0,5.76c1.92,0,3.84,0,5.771,0c0,1.98,0,3.96,0,5.94c3.89,0,7.8,0,11.689,0c0,1.92,0,3.84,0,5.76
	c1.92,0,3.85,0,5.771,0c0,1.92,0,3.84,0,5.76c1.92,0,3.84,0,5.76,0c0,1.92,0,3.84,0,5.76c1.92,0,3.84,0,5.76,0c0,1.92,0,3.84,0,5.76
	c3.83,0,7.67,0,11.521,0c0-5.76,0-11.52,0-17.28c-1.931,0-3.851,0-5.771,0c0-1.92,0-3.84,0-5.76c-3.84,0-7.67,0-11.51,0
	c0-1.98,0-3.96,0-5.94c-3.84,0-7.681,0-11.53,0c0-1.92,0-3.84,0-5.76c-3.89,0-7.8,0-11.689,0c0-1.92,0-3.84,0-5.76
	c-7.69,0-15.36,0-23.04,0c0,3.84,0,7.68,0,11.52C50.1,34.56,48.17,34.56,46.25,34.56z"/>
<path fill="#7B7B7B" d="M52.021,69.3c0,1.92,0,3.84,0,5.76c1.92,0,3.84,0,5.76,0c0-1.92,0-3.84,0-5.76
	C55.86,69.3,53.94,69.3,52.021,69.3z"/>
<path fill="#7B7B7B" d="M52.021,46.26c0,1.92,0,3.84,0,5.76c1.92,0,3.84,0,5.76,0c0-1.92,0-3.84,0-5.76
	C55.86,46.26,53.94,46.26,52.021,46.26z"/>
<path fill="#232034" d="M52.021,40.5c0,1.92,0,3.84,0,5.76c1.92,0,3.84,0,5.76,0c7.74,0,15.47,0,23.22,0c1.91,0,3.83,0,5.75,0
	c0-1.92,0-3.84,0-5.76c-3.89,0-7.8,0-11.689,0c-5.771,0-11.521,0-17.28,0C55.86,40.5,53.94,40.5,52.021,40.5z"/>
<path fill="#D42C41" d="M52.021,5.76c0,1.92,0,3.84,0,5.76c9.649,0,19.31,0,28.979,0c0,1.92,0,3.84,0,5.76c1.91,0,3.83,0,5.75,0
	c0,1.92,0,3.84,0,5.76c1.92,0,3.85,0,5.771,0c0,1.92,0,3.84,0,5.76c5.76,0,11.52,0,17.27,0c0,1.92,0,3.84,0,5.76
	c3.84,0,7.69,0,11.53,0c0,1.98,0,3.96,0,5.94c1.92,0,3.84,0,5.76,0c0,1.92,0,3.84,0,5.76c3.83,0,7.67,0,11.52,0
	c0,5.76,0,11.52,0,17.28c-1.93,0-3.85,0-5.77,0c0,1.92,0,3.84,0,5.76c3.84,0,7.69,0,11.53,0c0,0.18,0,0.36,0,0.54
	c0,1.38,0,2.76,0,4.14c0,1.32,0,2.639,0,3.959c0,1.381,0,2.76,0,4.141c0,1.32,0,2.64,0,3.959c0,0.181,0,0.361,0,0.541
	c1.92,0,3.84,0,5.76,0c0,3.84,0,7.68,0,11.52c0.96,0,1.92,0,2.88,0c0.48,0,0.95,0,1.44,0c0.54,0,1.08,0,1.62,0
	c0-3.84,0-7.68,0-11.52c1.92,0,3.84,0,5.76,0c0-0.18,0-0.36,0-0.541c0-0.18,0-0.359,0-0.539s0-0.36,0-0.54c0-0.181,0-0.36,0-0.54
	s0-0.36,0-0.54c0-0.181,0-0.36,0-0.54s0-0.359,0-0.54s0-0.36,0-0.54s0-0.359,0-0.54s0-0.36,0-0.54s0-0.359,0-0.54
	c0-0.18,0-0.36,0-0.54s0-0.359,0-0.54c0-0.18,0-0.36,0-0.54s0-0.359,0-0.539c0-0.181,0-0.361,0-0.541s0-0.359,0-0.539
	c0-0.181,0-0.361,0-0.541s0-0.359,0-0.54s0-0.36,0-0.54s0-0.36,0-0.54s0-0.36,0-0.54s0-0.36,0-0.54c0-0.18,0-0.36,0-0.54
	c0-0.18,0-0.36,0-0.54c0-0.18,0-0.36,0-0.54c0-0.18,0-0.36,0-0.54c0-0.18,0-0.36,0-0.54c0-0.72,0-1.44,0-2.16c-1.92,0-3.84,0-5.76,0
	c0-0.18,0-0.36,0-0.54c0-1.56,0-3.12,0-4.68c0-0.18,0-0.36,0-0.54c-3.9,0-7.811,0-11.7,0c0-7.68,0-15.36,0-23.04
	c-1.92,0-3.84,0-5.761,0c0-0.18,0-0.36,0-0.54c0-1.62,0-3.24,0-4.86c0-0.18,0-0.36,0-0.54c-1.93,0-3.85,0-5.77,0
	c0-0.18,0-0.36,0-0.54c0-1.56,0-3.12,0-4.68c0-0.18,0-0.36,0-0.54c-5.75,0-11.51,0-17.27,0c0-1.92,0-3.84,0-5.76
	c-1.931,0-3.851,0-5.771,0c0-0.18,0-0.36,0-0.54c0-1.56,0-3.12,0-4.68c0-0.18,0-0.36,0-0.54c-5.75,0-11.51,0-17.27,0
	c0-1.92,0-3.84,0-5.76c-1.921,0-3.851,0-5.771,0c0-1.92,0-3.84,0-5.76c-1.92,0-3.84,0-5.75,0c0-0.18,0-0.36,0-0.54
	c0-1.56,0-3.12,0-4.68c0-0.18,0-0.36,0-0.54c-7.75,0-15.479,0-23.22,0c0,1.92,0,3.84,0,5.76c-0.181,0-0.37,0-0.54,0
	c-1.57,0-3.12,0-4.68,0C52.37,5.76,52.2,5.76,52.021,5.76z"/>
<path fill="#F15A46" d="M57.78,75.06c0,1.921,0,3.841,0,5.761c1.92,0,3.84,0,5.76,0c0-1.92,0-3.84,0-5.761
	C61.62,75.06,59.7,75.06,57.78,75.06z"/>
<path fill="#010101" d="M57.78,69.3c0,1.92,0,3.84,0,5.76c1.92,0,3.84,0,5.76,0c0,1.921,0,3.841,0,5.761c1.91,0,3.83,0,5.75,0
	c0-1.92,0-3.84,0-5.761c1.92,0,3.84,0,5.771,0c0-1.92,0-3.84,0-5.76C69.29,69.3,63.54,69.3,57.78,69.3z"/>
<path fill="#FFFFFF" d="M57.78,38.88c0,0.54,0,1.08,0,1.62c5.76,0,11.51,0,17.28,0c0-1.98,0-3.96,0-5.94c-1.931,0-3.851,0-5.771,0
	c0-1.92,0-3.84,0-5.76c-1.92,0-3.84,0-5.75,0c0,1.92,0,3.84,0,5.76c-1.92,0-3.84,0-5.76,0c0,0.96,0,1.92,0,2.88
	C57.78,37.92,57.78,38.4,57.78,38.88z"/>
<path fill="#7B7B7B" d="M69.29,112.68c0,0.96,0,1.92,0,2.88c1.92,0,3.84,0,5.771,0c0-0.96,0-1.92,0-2.88c0-0.48,0-0.96,0-1.439
	c0-0.541,0-1.08,0-1.621c-1.931,0-3.851,0-5.771,0c0,0.061,0,0.121,0,0.181c0,0.479,0,0.96,0,1.44
	C69.29,111.72,69.29,112.199,69.29,112.68z"/>
<path fill="#7B7B7B" d="M69.29,75.06c0,1.921,0,3.841,0,5.761c1.92,0,3.84,0,5.771,0c0,3.84,0,7.68,0,11.52c0.3,0,0.6,0,0.89,0
	c0.25,0,0.49,0,0.72,0c0.49,0,0.96,0,1.45,0c0.96,0,1.92,0,2.88,0c0-1.92,0-3.84,0-5.76c1.91,0,3.83,0,5.75,0c0-1.92,0-3.84,0-5.76
	c1.92,0,3.85,0,5.771,0c0-1.92,0-3.84,0-5.761c1.92,0,3.84,0,5.76,0c0-5.76,0-11.52,0-17.28c-1.92,0-3.84,0-5.76,0
	c0-1.92,0-3.84,0-5.76c-1.921,0-3.851,0-5.771,0c0,3.84,0,7.68,0,11.52c1.92,0,3.85,0,5.771,0c0,1.92,0,3.84,0,5.76
	c-3.851,0-7.69,0-11.521,0c0,1.92,0,3.84,0,5.76c-0.96,0-1.92,0-2.88,0c-1.021,0-2.04,0-3.06,0C73.13,75.06,71.21,75.06,69.29,75.06
	z"/>
<path fill="#232034" d="M75.061,112.68c0,0.96,0,1.92,0,2.88c0.96,0,1.92,0,2.88,0c0.47,0,0.96,0,1.43,0c0.54,0,1.08,0,1.63,0
	c0-0.06,0-0.12,0-0.18c0-0.479,0-0.96,0-1.44c0-0.479,0-0.959,0-1.439c0-0.961,0-1.92,0-2.881c-0.96,0-1.92,0-2.88,0
	c-0.49,0-0.96,0-1.45,0c-0.54,0-1.07,0-1.609,0c0,0.541,0,1.08,0,1.621C75.061,111.72,75.061,112.199,75.061,112.68z"/>
<path fill="#232034" d="M81,107.46c0,0.72,0,1.44,0,2.159c1.91,0,3.83,0,5.75,0c0-1.92,0-3.84,0-5.76s0-3.84,0-5.76s0-3.84,0-5.76
	c1.92,0,3.85,0,5.771,0c0-1.92,0-3.84,0-5.76c1.92,0,3.84,0,5.76,0c0-1.92,0-3.84,0-5.76c1.92,0,3.84,0,5.76,0
	c0-5.761,0-11.521,0-17.281c0-1.92,0-3.84,0-5.76c-1.92,0-3.84,0-5.76,0c0,5.76,0,11.52,0,17.28c-1.92,0-3.84,0-5.76,0
	c0,1.921,0,3.841,0,5.761c-1.921,0-3.851,0-5.771,0c0,1.92,0,3.84,0,5.76c-1.92,0-3.84,0-5.75,0c0,1.92,0,3.84,0,5.76
	c0,1.439,0,2.88,0,4.32c0,1.439,0,2.879,0,4.32c0,1.439,0,2.879,0,4.319c0,0.181,0,0.36,0,0.54s0,0.359,0,0.54
	C81,106.74,81,107.1,81,107.46z"/>
<path fill="#7B7B7B" d="M81,46.26c0,1.92,0,3.84,0,5.76c1.91,0,3.83,0,5.75,0c0-1.92,0-3.84,0-5.76
	C84.83,46.26,82.91,46.26,81,46.26z"/>
<path fill="#F79C7F" d="M86.75,98.1c0,1.92,0,3.84,0,5.76c1.92,0,3.85,0,5.771,0c0-1.92,0-3.84,0-5.76
	C90.6,98.1,88.67,98.1,86.75,98.1z"/>
<path fill="#FFFFFF" d="M86.75,92.34c0,1.92,0,3.84,0,5.76c1.92,0,3.85,0,5.771,0c0-1.92,0-3.84,0-5.76
	C90.6,92.34,88.67,92.34,86.75,92.34z"/>
<path fill="#232034" d="M86.75,46.26c0,1.92,0,3.84,0,5.76c1.92,0,3.85,0,5.771,0c0-1.92,0-3.84,0-5.76
	C90.6,46.26,88.67,46.26,86.75,46.26z"/>
<path fill="#F79C7F" d="M92.521,92.34c0,1.92,0,3.84,0,5.76c1.92,0,3.84,0,5.76,0c0,3.84,0,7.68,0,11.52c7.67,0,15.35,0,23.04,0
	c0-3.84,0-7.68,0-11.52c-3.84,0-7.69,0-11.53,0c0-1.92,0-3.84,0-5.76c-1.92,0-3.84,0-5.75,0c0-3.84,0-7.68,0-11.52
	c-1.92,0-3.84,0-5.76,0c0,1.92,0,3.84,0,5.76s0,3.84,0,5.76C96.36,92.34,94.44,92.34,92.521,92.34z"/>
<path fill="#FFFFFF" d="M92.521,86.58c0,1.92,0,3.84,0,5.76c1.92,0,3.84,0,5.76,0c0-1.92,0-3.84,0-5.76
	C96.36,86.58,94.44,86.58,92.521,86.58z"/>
<path fill="#232034" d="M92.521,52.02c0,1.92,0,3.84,0,5.76c1.92,0,3.84,0,5.76,0c0-1.92,0-3.84,0-5.76
	C96.36,52.02,94.44,52.02,92.521,52.02z"/>
<path fill="#D42C41" d="M121.32,69.3c0,1.92,0,3.84,0,5.76c3.84,0,7.68,0,11.51,0c0-1.92,0-3.84,0-5.76
	C129,69.3,125.16,69.3,121.32,69.3z"/>
</svg>
