<?xml version="1.0" encoding="utf-8"?>
<!-- Generator: Adobe Illustrator 15.0.0, SVG Export Plug-In  -->
<!DOCTYPE svg PUBLIC "-//W3C//DTD SVG 1.1//EN" "http://www.w3.org/Graphics/SVG/1.1/DTD/svg11.dtd" [
	<!ENTITY ns_flows "http://ns.adobe.com/Flows/1.0/">
]>
<svg version="1.1"
	 xmlns="http://www.w3.org/2000/svg" xmlns:xlink="http://www.w3.org/1999/xlink" xmlns:a="http://ns.adobe.com/AdobeSVGViewerExtensions/3.0/"
	 x="0px" y="0px" width="200px" height="200px" viewBox="-18.71 -22.03 200 200" enable-background="new -18.71 -22.03 200 200"
	 xml:space="preserve">
<defs>
</defs>
<path fill="#D42C41" d="M0,80.82c0,3.84,0,7.68,0,11.521c1.92,0,3.84,0,5.76,0c0,1.92,0,3.84,0,5.76c1.92,0,3.84,0,5.76,0
	c0,0.181,0,0.36,0,0.54c0,0.12,0,0.24,0,0.359c0,0.181,0,0.361,0,0.541s0,0.359,0,0.539c0,0.181,0,0.361,0,0.541
	c0,0.119,0,0.24,0,0.359c0,0.18,0,0.36,0,0.54c0,0.36,0,0.72,0,1.08c0,0.12,0,0.24,0,0.36c0,0.18,0,0.359,0,0.539
	c0,0.361,0,0.721,0,1.08c0,0.721,0,1.44,0,2.16c0,0.121,0,0.24,0,0.36c0,0.181,0,0.36,0,0.54s0,0.359,0,0.54s0,0.36,0,0.54
	c0,0.12,0,0.24,0,0.359c0,0.181,0,0.361,0,0.541c0,0.359,0,0.72,0,1.08c0,0.119,0,0.24,0,0.359c0,0.18,0,0.36,0,0.54
	c0,0.36,0,0.72,0,1.08c0,0.72,0,1.44,0,2.16c0,0.18,0,0.36,0,0.54c1.91,0,3.83,0,5.75,0c0,1.92,0,3.84,0,5.76c1.99,0,3.96,0,5.95,0
	c0,1.92,0,3.84,0,5.76c1.92,0,3.84,0,5.75,0c0,3.84,0,7.68,0,11.521c1.92,0,3.84,0,5.76,0c0,3.899,0,7.8,0,11.7
	c5.771,0,11.53,0,17.29,0c0,1.92,0,3.84,0,5.76c5.75,0,11.521,0,17.28,0c0-1.92,0-3.84,0-5.76c0.17,0,0.35,0,0.54,0
	c5.39,0,10.8,0,16.2,0c0.18,0,0.35,0,0.54,0c0-3.9,0-7.801,0-11.7c5.81,0,11.64,0,17.46,0c0-1.921,0-3.841,0-5.761
	c-1.921,0-3.851,0-5.771,0c-3.89,0-7.8,0-11.689,0c-1.931,0-3.851,0-5.771,0c0,1.92,0,3.84,0,5.761c-0.17,0-0.35,0-0.54,0
	c-5.39,0-10.8,0-16.189,0c-0.19,0-0.36,0-0.54,0c0,1.979,0,3.96,0,5.94c-3.851,0-7.69,0-11.521,0c0-1.98,0-3.961,0-5.94
	c-3.84,0-7.68,0-11.52,0c0-1.921,0-3.841,0-5.761c-1.92,0-3.851,0-5.771,0c0-3.84,0-7.68,0-11.52c-1.92,0-3.84,0-5.76,0
	c0-3.84,0-7.68,0-11.52c-1.91,0-3.83,0-5.75,0c0-1.92,0-3.84,0-5.76c-0.18,0-0.37,0-0.54,0c-0.12,0-0.25,0-0.37,0
	c-0.24,0-0.47,0-0.71,0c-0.48,0-0.96,0-1.45,0c-0.47,0-0.96,0-1.43,0c-0.49,0-0.96,0-1.45,0c0-2.881,0-5.761,0-8.641s0-5.76,0-8.641
	c0-1.439,0-2.879,0-4.319s0-2.88,0-4.32c0-1.44,0-2.88,0-4.32c0-0.72,0-1.44,0-2.16c0-0.78,0-1.56,0-2.34c0.96,0,1.92,0,2.88,0
	c0.49,0,0.97,0,1.45,0c0.54,0,1.08,0,1.62,0c0-1.92,0-3.84,0-5.76c0.17,0,0.36,0,0.54,0c0.12,0,0.24,0,0.359,0
	c0.181,0,0.351,0,0.53,0c0.37,0,0.73,0,1.08,0c0.12,0,0.24,0,0.37,0c0.17,0,0.36,0,0.54,0c0.36,0,0.71,0,1.08,0
	c1.38,0,2.75,0,4.13,0c0.12,0,0.25,0,0.37,0c0.17,0,0.36,0,0.54,0c0.359,0,0.71,0,1.08,0c0.12,0,0.24,0,0.35,0c0.19,0,0.37,0,0.54,0
	c0.37,0,0.73,0,1.08,0c1.38,0,2.771,0,4.15,0c0.18,0,0.35,0,0.54,0c0-1.92,0-3.84,0-5.76c1.92,0,3.84,0,5.76,0
	c0-3.84,0-7.68,0-11.52c-3.84,0-7.68,0-11.53,0c0,1.92,0,3.84,0,5.76c-1.92,0-3.84,0-5.76,0c0,1.92,0,3.84,0,5.76
	c-3.89,0-7.79,0-11.7,0c0,1.92,0,3.84,0,5.76c-1.92,0-3.84,0-5.75,0c0,1.92,0,3.84,0,5.76c0,0.96,0,1.92,0,2.88
	c0,0.48,0,0.96,0,1.44c0,0.54,0,1.08,0,1.62c-1.92,0-3.84,0-5.76,0c0,1.92,0,3.84,0,5.76C3.84,80.82,1.92,80.82,0,80.82z"/>
<path fill="#F15A46" d="M17.27,86.58c0-1.439,0-2.879,0-4.319s0-2.88,0-4.32c0-1.44,0-2.88,0-4.32c0-0.72,0-1.44,0-2.16
	c0-0.78,0-1.56,0-2.34c0.96,0,1.92,0,2.88,0c0.49,0,0.97,0,1.45,0c0.54,0,1.08,0,1.62,0c0-1.92,0-3.84,0-5.76c0.17,0,0.36,0,0.54,0
	c0.12,0,0.24,0,0.359,0c0.181,0,0.351,0,0.53,0c0.37,0,0.73,0,1.08,0c0.12,0,0.24,0,0.37,0c0.17,0,0.36,0,0.54,0
	c0.36,0,0.71,0,1.08,0c1.38,0,2.75,0,4.13,0c0.12,0,0.25,0,0.37,0c0.17,0,0.36,0,0.54,0c0.359,0,0.71,0,1.08,0c0.12,0,0.24,0,0.35,0
	c0.19,0,0.37,0,0.54,0c0.37,0,0.73,0,1.08,0c1.38,0,2.771,0,4.15,0c0.18,0,0.35,0,0.54,0c0-1.92,0-3.84,0-5.76c1.92,0,3.84,0,5.76,0
	c0-3.84,0-7.68,0-11.52c-3.84,0-7.68,0-11.53,0c0-1.92,0-3.84,0-5.76c1.92,0,3.851,0,5.771,0c0-3.84,0-7.68,0-11.52
	c1.92,0,3.84,0,5.76,0c0-1.92,0-3.84,0-5.76c0.17,0,0.359,0,0.54,0c1.38,0,2.76,0,4.13,0c0.189,0,0.37,0,0.54,0
	c0.18,0,0.37,0,0.55,0c0.29,0,0.59,0,0.9,0c0.18,0,0.35,0,0.54,0c0.18,0,0.35,0,0.54,0c0.3,0,0.6,0,0.89,0c1.38,0,2.76,0,4.15,0
	c0.18,0,0.35,0,0.54,0c0.18,0,0.35,0,0.539,0c0.301,0,0.601,0,0.9,0c0.17,0,0.36,0,0.54,0c0.17,0,0.36,0,0.54,0c0.29,0,0.59,0,0.9,0
	c0.18,0,0.35,0,0.54,0c0-1.92,0-3.84,0-5.76c9.649,0,19.31,0,28.979,0c0,1.92,0,3.84,0,5.76c1.91,0,3.83,0,5.75,0
	c0-1.92,0-3.84,0-5.76c1.92,0,3.85,0,5.771,0c0-1.92,0-3.84,0-5.76c5.76,0,11.52,0,17.27,0c0,1.92,0,3.84,0,5.76
	c1.92,0,3.84,0,5.771,0c0,3.84,0,7.68,0,11.52c1.92,0,3.84,0,5.76,0c0,3.84,0,7.68,0,11.52c3.84,0,7.68,0,11.51,0
	c0,3.84,0,7.68,0,11.52c1.92,0,3.84,0,5.77,0c0,0.12,0,0.24,0,0.36c0,0.54,0,1.08,0,1.62c0,0.12,0,0.24,0,0.36c0,0.18,0,0.36,0,0.54
	c0,0.12,0,0.24,0,0.36c0,0.18,0,0.36,0,0.54c0,0.12,0,0.24,0,0.36c0,0.18,0,0.36,0,0.54c0,0.12,0,0.24,0,0.36c0,0.18,0,0.36,0,0.54
	c0,0.12,0,0.24,0,0.36c0,0.18,0,0.36,0,0.54c0,0.12,0,0.24,0,0.36c0,0.18,0,0.36,0,0.54c0,0.12,0,0.24,0,0.36c0,0.18,0,0.36,0,0.54
	c0,0.12,0,0.24,0,0.36c0,0.18,0,0.36,0,0.54c0,0.12,0,0.24,0,0.36c0,0.18,0,0.36,0,0.54c0,0.12,0,0.24,0,0.36c0,0.18,0,0.36,0,0.54
	c0,0.12,0,0.24,0,0.36c0,0.18,0,0.36,0,0.54c0,0.12,0,0.24,0,0.36c0,0.18,0,0.36,0,0.54c0,0.12,0,0.24,0,0.36c0,0.18,0,0.36,0,0.54
	c0,0.12,0,0.24,0,0.36c0,0.18,0,0.36,0,0.54c0,0.12,0,0.24,0,0.36c0,0.18,0,0.36,0,0.54c0,0.12,0,0.24,0,0.36c0,0.18,0,0.36,0,0.54
	c0,0.12,0,0.24,0,0.36c0,0.18,0,0.36,0,0.54c0,0.12,0,0.24,0,0.36c0,0.18,0,0.36,0,0.54c0,0.12,0,0.24,0,0.36c0,0.18,0,0.36,0,0.54
	c0,0.12,0,0.24,0,0.36c0,0.18,0,0.36,0,0.54c0,0.12,0,0.24,0,0.36c0,0.18,0,0.36,0,0.54c0,0.12,0,0.24,0,0.36c0,0.18,0,0.36,0,0.54
	c0,0.12,0,0.24,0,0.36c0,0.18,0,0.36,0,0.54c0,0.12,0,0.24,0,0.36c0,0.18,0,0.36,0,0.54c0,0.12,0,0.24,0,0.36c0,0.18,0,0.36,0,0.54
	c0,0.12,0,0.24,0,0.36c0,0.18,0,0.36,0,0.54c0,0.12,0,0.24,0,0.36c0,0.18,0,0.36,0,0.54c0,0.12,0,0.24,0,0.36c0,0.18,0,0.36,0,0.54
	c0,0.12,0,0.24,0,0.36c0,0.18,0,0.359,0,0.54c0,0.12,0,0.239,0,0.36c0,0.18,0,0.359,0,0.539c-1.93,0-3.85,0-5.77,0
	c0,7.68,0,15.36,0,23.041c-1.92,0-3.83,0-5.75,0c0,1.439,0,2.879,0,4.319s0,2.88,0,4.319c0,1.441,0,2.881,0,4.32
	c0,1.44,0,2.881,0,4.32c-3.84,0-7.68,0-11.52,0c0,1.92,0,3.84,0,5.76c-1.931,0-3.851,0-5.771,0c0,3.84,0,7.68,0,11.521
	c-5.75,0-11.51,0-17.27,0c0-1.921,0-3.841,0-5.761c-1.921,0-3.851,0-5.771,0c0-1.92,0-3.84,0-5.76s0-3.84,0-5.76
	c1.92,0,3.85,0,5.771,0c0-3.84,0-7.68,0-11.52c-1.921,0-3.851,0-5.771,0c0-1.92,0-3.84,0-5.76c1.92,0,3.85,0,5.771,0
	c0-1.92,0-3.841,0-5.761c1.92,0,3.84,0,5.76,0c3.84,0,7.67,0,11.51,0c0-0.06,0-0.12,0-0.18c0-1.681,0-3.36,0-5.04
	c0-0.18,0-0.36,0-0.54c-1.92,0-3.84,0-5.75,0c0-1.92,0-3.841,0-5.761s0-3.84,0-5.76c0-1.919,0-3.84,0-5.76c0-0.96,0-1.92,0-2.88
	c0-0.48,0-0.96,0-1.44c0-0.54,0-1.08,0-1.62c1.91,0,3.83,0,5.75,0c0-3.84,0-7.68,0-11.52c-1.92,0-3.84,0-5.75,0
	c0-1.92,0-3.84,0-5.76c-3.84,0-7.68,0-11.52,0c0-3.84,0-7.68,0-11.52c-1.921,0-3.851,0-5.771,0c0-1.92,0-3.84,0-5.76
	c-3.89,0-7.8,0-11.689,0c0-1.92,0-3.84,0-5.76c-0.19,0-0.36,0-0.54,0c-0.311,0-0.61,0-0.9,0c-0.37,0-0.72,0-1.08,0
	c-0.3,0-0.6,0-0.91,0c-0.35,0-0.72,0-1.069,0c-1.391,0-2.771,0-4.15,0c-0.29,0-0.59,0-0.89,0c-0.36,0-0.73,0-1.08,0
	c-0.311,0-0.61,0-0.9,0c-0.37,0-0.72,0-1.09,0c-1.37,0-2.75,0-4.13,0c-0.19,0-0.37,0-0.54,0c0,1.92,0,3.84,0,5.76
	c-1.92,0-3.84,0-5.76,0c0,0.18,0,0.36,0,0.54c0,0.18,0,0.36,0,0.54c0,0.36,0,0.72,0,1.08c0,0.72,0,1.44,0,2.16c0,1.44,0,2.88,0,4.32
	c0,2.88,0,5.76,0,8.64c0,1.92,0,3.84,0,5.76c-3.851,0-7.69,0-11.521,0c0,1.92,0,3.84,0,5.76c-1.92,0-3.84,0-5.76,0
	c0,0.06,0,0.12,0,0.18c0,0.24,0,0.48,0,0.72c0,0.24,0,0.48,0,0.72c0,0.48,0,0.96,0,1.44c0,0.96,0,1.92,0,2.88c0,1.92,0,3.84,0,5.76
	c-1.92,0-3.84,0-5.76,0c0,1.92,0,3.84,0,5.76c-1.92,0-3.851,0-5.771,0c0,0.18,0,0.36,0,0.541c0,0.119,0,0.239,0,0.359
	c0,0.18,0,0.359,0,0.54c0,0.36,0,0.72,0,1.08c0,0.12,0,0.239,0,0.36c0,0.18,0,0.359,0,0.539c0,0.36,0,0.721,0,1.08
	c0,0.121,0,0.24,0,0.36c0,0.181,0,0.36,0,0.54c0,0.359,0,0.721,0,1.08c0,0.18,0,0.359,0,0.54c0,0.18,0,0.36,0,0.54
	c0,0.359,0,0.72,0,1.08c0,0.119,0,0.24,0,0.359c0,0.18,0,0.36,0,0.541c0,0.359,0,0.719,0,1.08c0,0.119,0,0.239,0,0.359
	c0,0.18,0,0.359,0,0.54c0,0.36,0,0.72,0,1.08c0,0.12,0,0.239,0,0.36c0,0.18,0,0.359,0,0.539c0,0.36,0,0.721,0,1.08
	c0,0.18,0,0.36,0,0.541c0,0.18,0,0.359,0,0.539c0,0.36,0,0.721,0,1.08c0,0.18,0,0.36,0,0.54c1.92,0,3.851,0,5.771,0
	c0,3.841,0,7.681,0,11.521c1.92,0,3.84,0,5.76,0c0,1.92,0,3.84,0,5.76c1.92,0,3.84,0,5.76,0c0,1.92,0,3.84,0,5.76s0,3.84,0,5.76
	c1.91,0,3.83,0,5.75,0s3.85,0,5.771,0c0,1.92,0,3.84,0,5.76c5.76,0,11.52,0,17.27,0c0,1.92,0,3.84,0,5.761c-0.17,0-0.35,0-0.54,0
	c-5.39,0-10.8,0-16.189,0c-0.19,0-0.36,0-0.54,0c0,1.979,0,3.96,0,5.94c-3.851,0-7.69,0-11.521,0c0-1.98,0-3.961,0-5.94
	c-3.84,0-7.68,0-11.52,0c0-1.921,0-3.841,0-5.761c-1.92,0-3.851,0-5.771,0c0-3.84,0-7.68,0-11.52c-1.92,0-3.84,0-5.76,0
	c0-3.84,0-7.68,0-11.52c-1.91,0-3.83,0-5.75,0c0-1.92,0-3.84,0-5.76c-0.18,0-0.37,0-0.54,0c-0.12,0-0.25,0-0.37,0
	c-0.24,0-0.47,0-0.71,0c-0.48,0-0.96,0-1.45,0c-0.47,0-0.96,0-1.43,0c-0.49,0-0.96,0-1.45,0c0-2.881,0-5.761,0-8.641
	S17.27,89.46,17.27,86.58z M115.56,109.621c0-0.9,0-1.801,0-2.7c0-0.841,0-1.681,0-2.521c0-0.18,0-0.359,0-0.539
	c-0.07,0-0.13,0-0.18,0c-0.19,0-0.36,0-0.54,0c-0.3,0-0.61,0-0.91,0c-0.41,0-0.83,0-1.25,0c-0.25,0-0.49,0-0.72,0
	c-0.19,0-0.36,0-0.54,0c-0.19,0-0.36,0-0.54,0c-0.19,0-0.36,0-0.54,0c-0.19,0-0.37,0-0.54,0c0,1.92,0,3.84,0,5.76
	C111.72,109.621,113.64,109.621,115.56,109.621z"/>
<path fill="#D42C41" d="M23.22,39.78c0,0.18,0,0.36,0,0.54c1.92,0,3.84,0,5.75,0c0,1.92,0,3.84,0,5.76c1.92,0,3.84,0,5.76,0
	c0-1.92,0-3.84,0-5.76c1.92,0,3.851,0,5.771,0c0-3.84,0-7.68,0-11.52c1.92,0,3.84,0,5.76,0c0-1.92,0-3.84,0-5.76
	c0.17,0,0.359,0,0.54,0c1.38,0,2.76,0,4.13,0c0.189,0,0.37,0,0.54,0c0.18,0,0.37,0,0.55,0c0.29,0,0.59,0,0.9,0c0.18,0,0.35,0,0.54,0
	c0.18,0,0.35,0,0.54,0c0.3,0,0.6,0,0.89,0c1.38,0,2.76,0,4.15,0c0.18,0,0.35,0,0.54,0c0.18,0,0.35,0,0.539,0c0.301,0,0.601,0,0.9,0
	c0.17,0,0.36,0,0.54,0c0.17,0,0.36,0,0.54,0c0.29,0,0.59,0,0.9,0c0.18,0,0.35,0,0.54,0c0-1.92,0-3.84,0-5.76
	c9.649,0,19.31,0,28.979,0c0,1.92,0,3.84,0,5.76c1.91,0,3.83,0,5.75,0c0-1.92,0-3.84,0-5.76c1.92,0,3.85,0,5.771,0
	c0-1.92,0-3.84,0-5.76c5.76,0,11.52,0,17.27,0c0,1.92,0,3.84,0,5.76c1.92,0,3.84,0,5.771,0c0-3.84,0-7.68,0-11.52
	c-1.931,0-3.851,0-5.771,0c0-1.92,0-3.84,0-5.76c-5.75,0-11.51,0-17.27,0c0,1.92,0,3.84,0,5.76c-1.921,0-3.851,0-5.771,0
	c0,1.92,0,3.84,0,5.76c-3.89,0-7.8,0-11.689,0c0-1.92,0-3.84,0-5.76c-0.24,0-0.48,0-0.73,0c-0.23,0-0.47,0-0.71,0
	c-0.49,0-0.96,0-1.45,0c-0.89,0-1.8,0-2.689,0c-1.811,0-3.61,0-5.4,0c-0.18,0-0.37,0-0.54,0c0,1.92,0,3.84,0,5.76
	c-5.76,0-11.52,0-17.29,0c0,1.92,0,3.84,0,5.76c-4.8,0-9.59,0-14.39,0s-9.61,0-14.41,0c0,3.84,0,7.68,0,11.52c-1.91,0-3.83,0-5.75,0
	C23.22,32.46,23.22,36.12,23.22,39.78z"/>
<path fill="#F79C7F" d="M34.729,97.56c0,0.18,0,0.36,0,0.54c1.92,0,3.851,0,5.771,0c0-2.88,0-5.76,0-8.64c0-2.881,0-5.76,0-8.641
	c-1.92,0-3.851,0-5.771,0c0,0.18,0,0.36,0,0.541c0,0.119,0,0.239,0,0.359c0,0.18,0,0.359,0,0.54c0,0.36,0,0.72,0,1.08
	c0,0.12,0,0.239,0,0.36c0,0.18,0,0.359,0,0.539c0,0.36,0,0.721,0,1.08c0,0.121,0,0.24,0,0.36c0,0.181,0,0.36,0,0.54
	c0,0.359,0,0.721,0,1.08c0,0.18,0,0.359,0,0.54c0,0.18,0,0.36,0,0.54c0,0.359,0,0.72,0,1.08c0,0.119,0,0.24,0,0.359
	c0,0.18,0,0.36,0,0.541c0,0.359,0,0.719,0,1.08c0,0.119,0,0.239,0,0.359c0,0.18,0,0.359,0,0.54c0,0.36,0,0.72,0,1.08
	c0,0.12,0,0.239,0,0.36c0,0.18,0,0.359,0,0.539c0,0.36,0,0.721,0,1.08c0,0.18,0,0.36,0,0.541c0,0.18,0,0.359,0,0.539
	C34.729,96.84,34.729,97.201,34.729,97.56z"/>
<path fill="#F79C7F" d="M40.5,98.1c0,3.841,0,7.681,0,11.521c1.92,0,3.84,0,5.76,0c0,1.92,0,3.84,0,5.76c1.92,0,3.84,0,5.76,0
	c0-1.92,0-3.84,0-5.76c1.91,0,3.83,0,5.75,0c0-1.92,0-3.84,0-5.76c-1.92,0-3.84,0-5.75,0c-1.92,0-3.84,0-5.76,0
	c0-1.92,0-3.841,0-5.761C44.34,98.1,42.42,98.1,40.5,98.1z"/>
<path fill="#232034" d="M40.5,89.46c0,2.88,0,5.76,0,8.64c1.92,0,3.84,0,5.76,0c0-1.92,0-3.84,0-5.76s0-3.841,0-5.761s0-3.84,0-5.76
	c0-1.919,0-3.84,0-5.76c-1.92,0-3.84,0-5.76,0c0,1.92,0,3.84,0,5.76C40.5,83.701,40.5,86.58,40.5,89.46z"/>
<path fill="#232034" d="M46.26,98.1c0,1.92,0,3.841,0,5.761c1.92,0,3.84,0,5.76,0c0-1.92,0-3.841,0-5.761
	C50.1,98.1,48.18,98.1,46.26,98.1z"/>
<path fill="#AAAAAB" d="M46.26,92.34c0,1.92,0,3.84,0,5.76c1.92,0,3.84,0,5.76,0c1.91,0,3.83,0,5.75,0c0-1.92,0-3.84,0-5.76
	c-1.92,0-3.84,0-5.75,0C50.1,92.34,48.18,92.34,46.26,92.34z"/>
<path fill="#F15A46" d="M46.26,86.58c0,1.92,0,3.841,0,5.761c1.92,0,3.84,0,5.76,0c0-1.92,0-3.841,0-5.761
	C50.1,86.58,48.18,86.58,46.26,86.58z"/>
<path fill="#010101" d="M46.26,80.82c0,1.92,0,3.84,0,5.76c1.92,0,3.84,0,5.76,0c0,1.92,0,3.841,0,5.761c1.91,0,3.83,0,5.75,0
	c0-3.841,0-7.681,0-11.521c-1.92,0-3.84,0-5.75,0C50.1,80.82,48.18,80.82,46.26,80.82z"/>
<path fill="#7B7B7B" d="M46.26,75.06c0,1.92,0,3.84,0,5.76c1.92,0,3.84,0,5.76,0c0-1.919,0-3.84,0-5.76
	C50.1,75.06,48.18,75.06,46.26,75.06z"/>
<path fill="#232034" d="M46.26,69.3c0,1.92,0,3.84,0,5.76c1.92,0,3.84,0,5.76,0c0-0.96,0-1.92,0-2.88c0-0.48,0-0.96,0-1.44
	c0-0.54,0-1.08,0-1.62c0-1.92,0-3.84,0-5.76c-1.92,0-3.84,0-5.76,0c0,0.06,0,0.12,0,0.18c0,0.24,0,0.48,0,0.72c0,0.24,0,0.48,0,0.72
	c0,0.48,0,0.96,0,1.44C46.26,67.38,46.26,68.34,46.26,69.3z"/>
<path fill="#F79C7F" d="M52.02,121.14c0,1.92,0,3.84,0,5.76c1.91,0,3.83,0,5.75,0c0-1.92,0-3.84,0-5.76
	C55.85,121.14,53.93,121.14,52.02,121.14z"/>
<path fill="#232034" d="M52.02,115.38c0,1.92,0,3.84,0,5.76c1.91,0,3.83,0,5.75,0c0-1.92,0-3.84,0-5.76s0-3.84,0-5.76
	c-1.92,0-3.84,0-5.75,0C52.02,111.541,52.02,113.46,52.02,115.38z"/>
<path fill="#010101" d="M52.02,98.1c0,1.92,0,3.841,0,5.761c1.91,0,3.83,0,5.75,0c0-1.92,0-3.841,0-5.761
	C55.85,98.1,53.93,98.1,52.02,98.1z"/>
<path fill="#AAAAAB" d="M52.02,75.06c0,1.92,0,3.84,0,5.76c1.91,0,3.83,0,5.75,0c0,3.84,0,7.68,0,11.521c1.92,0,3.85,0,5.771,0
	c0,1.92,0,3.84,0,5.76c1.92,0,3.84,0,5.76,0c0,1.92,0,3.841,0,5.761c1.92,0,3.84,0,5.76,0c0-1.92,0-3.841,0-5.761
	c1.91,0,3.83,0,5.75,0c0,1.92,0,3.841,0,5.761c1.92,0,3.84,0,5.771,0c0-2.881,0-5.761,0-8.641s0-5.76,0-8.641
	c-1.931,0-3.851,0-5.771,0c0,1.92,0,3.841,0,5.761c-1.92,0-3.84,0-5.75,0c-1.92,0-3.84,0-5.76,0c0-1.92,0-3.841,0-5.761
	c-1.92,0-3.84,0-5.76,0c0-1.92,0-3.84,0-5.76c1.92,0,3.84,0,5.76,0c0.72,0,1.43,0,2.16,0c0.35,0,0.72,0,1.08,0c0.18,0,0.35,0,0.54,0
	c0.18,0,0.35,0,0.539,0c0.181,0,0.351,0,0.53,0c0.19,0,0.37,0,0.54,0c0.19,0,0.37,0,0.54,0c0.19,0,0.37,0,0.54,0
	c0.37,0,0.73,0,1.08,0c0.19,0,0.37,0,0.54,0c0.19,0,0.37,0,0.54,0c0.189,0,0.37,0,0.54,0c0.18,0,0.37,0,0.55,0c0.17,0,0.36,0,0.54,0
	c0.17,0,0.36,0,0.54,0c0.36,0,0.71,0,1.08,0c0.17,0,0.36,0,0.54,0c0.17,0,0.36,0,0.54,0c0.17,0,0.359,0,0.54,0c0.17,0,0.35,0,0.54,0
	c0.18,0,0.35,0,0.54,0c0.18,0,0.35,0,0.54,0c0.35,0,0.72,0,1.08,0c0.3,0,0.6,0,0.89,0c0.07,0,0.13,0,0.19,0c0,1.92,0,3.84,0,5.76
	c0.539,0,1.069,0,1.609,0c0.49,0,0.96,0,1.45,0c0.479,0,0.96,0,1.44,0c0.479,0,0.96,0,1.439,0c0-1.92,0-3.84,0-5.76
	c3.83,0,7.67,0,11.521,0c0-1.919,0-3.84,0-5.76c-1.921,0-3.851,0-5.771,0c0-0.54,0-1.08,0-1.62c0-0.48,0-0.96,0-1.44
	c0-0.96,0-1.92,0-2.88c0-1.92,0-3.84,0-5.76c-1.92,0-3.84,0-5.75,0c0-1.92,0-3.84,0-5.76c-7.75,0-15.479,0-23.22,0
	c0,1.92,0,3.84,0,5.76c-1.92,0-3.84,0-5.76,0c-1.921,0-3.851,0-5.771,0c0,1.92,0,3.84,0,5.76c-1.92,0-3.84,0-5.75,0
	c0,0.54,0,1.08,0,1.62c0,0.48,0,0.96,0,1.44C52.02,73.14,52.02,74.1,52.02,75.06z"/>
<path fill="#7B7B7B" d="M52.02,63.36c0,1.92,0,3.84,0,5.76c1.91,0,3.83,0,5.75,0c0-1.92,0-3.84,0-5.76
	C55.85,63.36,53.93,63.36,52.02,63.36z"/>
<path fill="#232034" d="M52.02,57.6c0,1.92,0,3.84,0,5.76c1.91,0,3.83,0,5.75,0s3.85,0,5.771,0c0-1.92,0-3.84,0-5.76
	C59.689,57.6,55.85,57.6,52.02,57.6z"/>
<path fill="#232034" d="M57.77,121.14c0,1.92,0,3.84,0,5.76c1.92,0,3.85,0,5.771,0c0-1.92,0-3.84,0-5.76
	C61.619,121.14,59.689,121.14,57.77,121.14z"/>
<path fill="#AAAAAB" d="M57.77,115.38c0,1.92,0,3.84,0,5.76c1.92,0,3.85,0,5.771,0c0-1.92,0-3.84,0-5.76
	C61.619,115.38,59.689,115.38,57.77,115.38z"/>
<path fill="#010101" d="M57.77,109.621c0,1.92,0,3.84,0,5.76c1.92,0,3.85,0,5.771,0c0,1.92,0,3.84,0,5.76c5.76,0,11.52,0,17.27,0
	c0-1.92,0-3.84,0-5.76c0.54,0,1.08,0,1.62,0c0.49,0,0.96,0,1.45,0c0.47,0,0.96,0,1.43,0c0.49,0,0.96,0,1.45,0c0.47,0,0.96,0,1.43,0
	c0.49,0,0.96,0,1.45,0c0.479,0,0.96,0,1.44,0c0.479,0,0.96,0,1.439,0c0-1.92,0-3.84,0-5.76c-0.479,0-0.96,0-1.439,0
	c-0.48,0-0.961,0-1.44,0c-0.49,0-0.96,0-1.45,0c-0.229,0-0.47,0-0.72,0c-0.12,0-0.24,0-0.351,0c-0.189,0-0.359,0-0.539,0
	c0-1.92,0-3.84,0-5.76c-1.931,0-3.851,0-5.771,0c0-1.92,0-3.841,0-5.761c-1.92,0-3.84,0-5.75,0c0,1.92,0,3.841,0,5.761
	c-1.92,0-3.84,0-5.76,0c0-1.92,0-3.841,0-5.761c-1.92,0-3.84,0-5.76,0c0,1.92,0,3.841,0,5.761s0,3.84,0,5.76
	C61.619,109.621,59.689,109.621,57.77,109.621z"/>
<path fill="#232034" d="M57.77,103.861c0,1.92,0,3.84,0,5.76c1.92,0,3.85,0,5.771,0c0-1.92,0-3.84,0-5.76
	C61.619,103.861,59.689,103.861,57.77,103.861z"/>
<path fill="#AAAAAB" d="M57.77,98.1c0,1.92,0,3.841,0,5.761c1.92,0,3.85,0,5.771,0c0-1.92,0-3.841,0-5.761
	C61.619,98.1,59.689,98.1,57.77,98.1z"/>
<path fill="#010101" d="M57.77,92.34c0,1.92,0,3.84,0,5.76c1.92,0,3.85,0,5.771,0c0-1.92,0-3.84,0-5.76
	C61.619,92.34,59.689,92.34,57.77,92.34z"/>
<path fill="#232034" d="M63.54,126.9c0,1.92,0,3.84,0,5.76c5.76,0,11.52,0,17.27,0c1.92,0,3.84,0,5.771,0c0-1.92,0-3.84,0-5.76
	C78.89,126.9,71.22,126.9,63.54,126.9z"/>
<path fill="#AAAAAB" d="M63.54,121.14c0,1.92,0,3.84,0,5.76c7.68,0,15.35,0,23.04,0c0-1.92,0-3.84,0-5.76c1.979,0,3.96,0,5.939,0
	c0-1.92,0-3.84,0-5.76c-0.479,0-0.96,0-1.439,0c-0.48,0-0.961,0-1.44,0c-0.49,0-0.96,0-1.45,0c-0.47,0-0.96,0-1.43,0
	c-0.49,0-0.96,0-1.45,0c-0.47,0-0.96,0-1.43,0c-0.49,0-0.96,0-1.45,0c-0.54,0-1.08,0-1.62,0c0,1.92,0,3.84,0,5.76
	C75.06,121.14,69.3,121.14,63.54,121.14z"/>
<path fill="#7B7B7B" d="M63.54,80.82c0,1.92,0,3.84,0,5.76c1.92,0,3.84,0,5.76,0c0-1.92,0-3.84,0-5.76
	C67.38,80.82,65.46,80.82,63.54,80.82z"/>
<path fill="#7B7B7B" d="M63.54,57.6c0,1.92,0,3.84,0,5.76c1.92,0,3.84,0,5.76,0c0-1.92,0-3.84,0-5.76
	C67.38,57.6,65.46,57.6,63.54,57.6z"/>
<path fill="#232034" d="M63.54,51.84c0,1.92,0,3.84,0,5.76c1.92,0,3.84,0,5.76,0c7.74,0,15.47,0,23.22,0c1.91,0,3.83,0,5.75,0
	c0-1.92,0-3.84,0-5.76c-1.189,0-2.39,0-3.59,0c-0.61,0-1.21,0-1.8,0c-0.61,0-1.2,0-1.8,0c-1.2,0-2.4,0-3.61,0c-0.59,0-1.2,0-1.79,0
	c-0.61,0-1.21,0-1.8,0c-1.2,0-2.41,0-3.61,0c-0.59,0-1.189,0-1.8,0c-0.59,0-1.2,0-1.79,0c-1.21,0-2.41,0-3.6,0
	c-0.61,0-1.2,0-1.811,0c-0.3,0-0.59,0-0.89,0c-0.12,0-0.24,0-0.36,0c-0.25,0-0.479,0-0.72,0C67.38,51.84,65.46,51.84,63.54,51.84z"
	/>
<path fill="#F79C7F" d="M63.54,43.2c0,2.88,0,5.76,0,8.64c1.92,0,3.84,0,5.76,0c0-3.84,0-7.68,0-11.52c7.74,0,15.47,0,23.22,0
	c0,1.92,0,3.84,0,5.76c1.91,0,3.83,0,5.75,0c0,1.92,0,3.84,0,5.76s0,3.84,0,5.76c1.92,0,3.85,0,5.771,0c0,1.92,0,3.84,0,5.76
	c1.92,0,3.84,0,5.76,0c0,1.92,0,3.84,0,5.76c1.92,0,3.84,0,5.76,0c1.91,0,3.83,0,5.75,0c0-3.84,0-7.68,0-11.52
	c-1.92,0-3.84,0-5.75,0c0-1.92,0-3.84,0-5.76c-3.84,0-7.68,0-11.52,0c0-3.84,0-7.68,0-11.52c-1.921,0-3.851,0-5.771,0
	c0-1.92,0-3.84,0-5.76c-3.89,0-7.8,0-11.689,0c0-1.92,0-3.84,0-5.76c-0.19,0-0.36,0-0.54,0c-0.311,0-0.61,0-0.9,0
	c-0.37,0-0.72,0-1.08,0c-0.3,0-0.6,0-0.91,0c-0.35,0-0.72,0-1.069,0c-1.391,0-2.771,0-4.15,0c-0.29,0-0.59,0-0.89,0
	c-0.36,0-0.73,0-1.08,0c-0.311,0-0.61,0-0.9,0c-0.37,0-0.72,0-1.09,0c-1.37,0-2.75,0-4.13,0c-0.19,0-0.37,0-0.54,0
	c0,1.92,0,3.84,0,5.76c-1.92,0-3.84,0-5.76,0c0,0.18,0,0.36,0,0.54c0,0.18,0,0.36,0,0.54c0,0.36,0,0.72,0,1.08c0,0.72,0,1.44,0,2.16
	C63.54,40.32,63.54,41.76,63.54,43.2z"/>
<path fill="#F15A46" d="M69.3,86.58c0,1.92,0,3.841,0,5.761c1.92,0,3.84,0,5.76,0c0-1.92,0-3.841,0-5.761
	C73.14,86.58,71.22,86.58,69.3,86.58z"/>
<path fill="#010101" d="M69.3,80.82c0,1.92,0,3.84,0,5.76c1.92,0,3.84,0,5.76,0c0,1.92,0,3.841,0,5.761c1.91,0,3.83,0,5.75,0
	c0-1.92,0-3.841,0-5.761c1.92,0,3.84,0,5.771,0c0-1.92,0-3.84,0-5.76c-0.061,0-0.12,0-0.19,0c-0.29,0-0.59,0-0.89,0
	c-0.36,0-0.73,0-1.08,0c-0.19,0-0.36,0-0.54,0c-0.19,0-0.36,0-0.54,0c-0.19,0-0.37,0-0.54,0c-0.181,0-0.37,0-0.54,0
	c-0.18,0-0.37,0-0.54,0c-0.18,0-0.37,0-0.54,0c-0.37,0-0.72,0-1.08,0c-0.18,0-0.37,0-0.54,0c-0.18,0-0.37,0-0.54,0
	c-0.18,0-0.37,0-0.55,0c-0.17,0-0.351,0-0.54,0c-0.17,0-0.35,0-0.54,0c-0.17,0-0.35,0-0.54,0c-0.35,0-0.71,0-1.08,0
	c-0.17,0-0.35,0-0.54,0c-0.17,0-0.35,0-0.54,0c-0.17,0-0.35,0-0.54,0c-0.18,0-0.35,0-0.53,0c-0.189,0-0.359,0-0.539,0
	c-0.19,0-0.36,0-0.54,0c-0.36,0-0.73,0-1.08,0C70.729,80.82,70.02,80.82,69.3,80.82z"/>
<path fill="#FFFFFF" d="M69.3,40.32c0,3.84,0,7.68,0,11.52c0.24,0,0.47,0,0.72,0c0.12,0,0.24,0,0.36,0c0.3,0,0.59,0,0.89,0
	c0.61,0,1.2,0,1.811,0c1.189,0,2.39,0,3.6,0c0.59,0,1.2,0,1.79,0c0.61,0,1.21,0,1.8,0c1.2,0,2.41,0,3.61,0c0.59,0,1.189,0,1.8,0
	c0.59,0,1.2,0,1.79,0c1.21,0,2.41,0,3.61,0c0.6,0,1.189,0,1.8,0c0.59,0,1.189,0,1.8,0c1.2,0,2.4,0,3.59,0c0-1.92,0-3.84,0-5.76
	c-1.92,0-3.84,0-5.75,0c0-1.92,0-3.84,0-5.76C84.77,40.32,77.04,40.32,69.3,40.32z"/>
<path fill="#F79C7F" d="M86.58,126.9c0,1.92,0,3.84,0,5.76c3.89,0,7.8,0,11.689,0c0-1.92,0-3.84,0-5.76
	C94.38,126.9,90.47,126.9,86.58,126.9z"/>
<path fill="#232034" d="M86.58,121.14c0,1.92,0,3.84,0,5.76c3.89,0,7.8,0,11.689,0c0-1.92,0-3.84,0-5.76c-1.92,0-3.84,0-5.75,0
	C90.54,121.14,88.56,121.14,86.58,121.14z"/>
<path fill="#AAAAAB" d="M86.58,103.861c0,1.92,0,3.84,0,5.76c0.18,0,0.35,0,0.539,0c0.11,0,0.23,0,0.351,0c0.25,0,0.49,0,0.72,0
	c0.49,0,0.96,0,1.45,0c0.479,0,0.96,0,1.44,0c0.479,0,0.96,0,1.439,0c0-1.92,0-3.84,0-5.76c-0.479,0-0.96,0-1.439,0
	c-0.48,0-0.961,0-1.44,0c-0.25,0-0.49,0-0.72,0c-0.24,0-0.49,0-0.73,0c-0.229,0-0.47,0-0.72,0c-0.12,0-0.24,0-0.351,0
	C86.93,103.861,86.76,103.861,86.58,103.861z"/>
<path fill="#7B7B7B" d="M86.58,95.22c0,2.88,0,5.76,0,8.641c0.18,0,0.35,0,0.539,0c0.11,0,0.23,0,0.351,0c0.25,0,0.49,0,0.72,0
	c0.24,0,0.49,0,0.73,0c0.229,0,0.47,0,0.72,0c0.479,0,0.96,0,1.44,0c0.479,0,0.96,0,1.439,0c0-1.92,0-3.841,0-5.761
	c1.91,0,3.83,0,5.75,0c0-1.92,0-3.84,0-5.76c1.92,0,3.85,0,5.771,0c0-1.92,0-3.841,0-5.761c1.92,0,3.84,0,5.76,0c0-1.5,0-3,0-4.5
	c0-1.439,0-2.879,0-4.319c0-1.44,0-2.88,0-4.32c0-1.44,0-2.88,0-4.32c-1.92,0-3.84,0-5.76,0c0-1.92,0-3.84,0-5.76
	c-1.921,0-3.851,0-5.771,0c0,1.92,0,3.84,0,5.76c0,0.96,0,1.92,0,2.88c0,0.48,0,0.96,0,1.44c0,0.54,0,1.08,0,1.62
	c1.92,0,3.85,0,5.771,0c0,1.92,0,3.84,0,5.76c-3.851,0-7.69,0-11.521,0c0,1.92,0,3.84,0,5.76c-0.479,0-0.96,0-1.439,0
	c-0.48,0-0.961,0-1.44,0c-0.49,0-0.96,0-1.45,0c-0.54,0-1.07,0-1.609,0C86.58,89.46,86.58,92.34,86.58,95.22z"/>
<path fill="#7B7B7B" d="M92.52,115.38c0,1.92,0,3.84,0,5.76c1.91,0,3.83,0,5.75,0c0-1.92,0-3.84,0-5.76
	C96.35,115.38,94.43,115.38,92.52,115.38z"/>
<path fill="#AAAAAB" d="M92.52,109.621c0,1.92,0,3.84,0,5.76c1.91,0,3.83,0,5.75,0c0-1.92,0-3.84,0-5.76
	C96.35,109.621,94.43,109.621,92.52,109.621z"/>
<path fill="#232034" d="M92.52,103.861c0,1.92,0,3.84,0,5.76c1.91,0,3.83,0,5.75,0c0-1.92,0-3.84,0-5.76c1.92,0,3.85,0,5.771,0
	c0-1.92,0-3.841,0-5.761c1.92,0,3.84,0,5.76,0c0-1.92,0-3.84,0-5.76c1.92,0,3.84,0,5.76,0c0-1.92,0-3.841,0-5.761s0-3.84,0-5.76
	c0-1.919,0-3.84,0-5.76c0-0.96,0-1.92,0-2.88c0-0.48,0-0.96,0-1.44c0-0.54,0-1.08,0-1.62c-1.92,0-3.84,0-5.76,0
	c0,1.44,0,2.88,0,4.32c0,1.44,0,2.88,0,4.32c0,1.44,0,2.88,0,4.319c0,1.5,0,3,0,4.5c-1.92,0-3.84,0-5.76,0c0,1.92,0,3.841,0,5.761
	c-1.921,0-3.851,0-5.771,0c0,1.92,0,3.84,0,5.76c-1.92,0-3.84,0-5.75,0C92.52,100.02,92.52,101.941,92.52,103.861z"/>
<path fill="#7B7B7B" d="M92.52,57.6c0,1.92,0,3.84,0,5.76c1.91,0,3.83,0,5.75,0c0-1.92,0-3.84,0-5.76
	C96.35,57.6,94.43,57.6,92.52,57.6z"/>
<path fill="#232034" d="M98.27,115.38c0,1.92,0,3.84,0,5.76c1.92,0,3.85,0,5.771,0c0-3.84,0-7.68,0-11.52c-1.921,0-3.851,0-5.771,0
	C98.27,111.541,98.27,113.46,98.27,115.38z"/>
<path fill="#232034" d="M98.27,57.6c0,1.92,0,3.84,0,5.76c1.92,0,3.85,0,5.771,0c0-1.92,0-3.84,0-5.76
	C102.119,57.6,100.189,57.6,98.27,57.6z"/>
<path fill="#D42C41" d="M104.04,138.42c0,1.979,0,3.96,0,5.94c3.84,0,7.68,0,11.52,0c0,1.92,0,3.84,0,5.76c3.83,0,7.67,0,11.521,0
	c0-1.92,0-3.84,0-5.76c1.92,0,3.84,0,5.76,0c0-3.9,0-7.801,0-11.701c1.92,0,3.84,0,5.76,0c0-1.92,0-3.84,0-5.76
	c1.92,0,3.83,0,5.75,0c0-1.92,0-3.84,0-5.76c1.92,0,3.84,0,5.77,0c0-0.3,0-0.6,0-0.9c0-0.119,0-0.24,0-0.359c0-0.18,0-0.36,0-0.54
	c0-0.12,0-0.24,0-0.36c0-0.18,0-0.359,0-0.539c0-0.121,0-0.24,0-0.361c0-0.18,0-0.359,0-0.539c0-0.6,0-1.2,0-1.801
	c0-0.119,0-0.24,0-0.359c0-0.18,0-0.36,0-0.54c0-0.12,0-0.24,0-0.36c0-0.18,0-0.359,0-0.539c0-1.141,0-2.281,0-3.421
	c0-0.6,0-1.2,0-1.8c0-0.12,0-0.24,0-0.359c0-0.181,0-0.361,0-0.541c0-0.119,0-0.24,0-0.359c0-0.18,0-0.36,0-0.54
	c0-1.14,0-2.28,0-3.421c0-0.6,0-1.199,0-1.799c0-0.121,0-0.24,0-0.36c0-0.181,0-0.36,0-0.54c0-0.12,0-0.24,0-0.359
	c0-0.181,0-0.361,0-0.541c0-1.14,0-2.279,0-3.42c0-0.6,0-1.199,0-1.8c0-0.12,0-0.239,0-0.36c0-0.18,0-0.359,0-0.539
	c0-0.121,0-0.24,0-0.36c0-0.181,0-0.36,0-0.54s0-0.36,0-0.54c1.921,0,3.841,0,5.761,0c0-1.92,0-3.841,0-5.761c1.92,0,3.84,0,5.76,0
	c0-3.84,0-7.679,0-11.52c-1.92,0-3.84,0-5.76,0c0-1.44,0-2.88,0-4.32s0-2.88,0-4.32c0-1.44,0-2.88,0-4.32c0-1.5,0-3,0-4.5
	c1.92,0,3.84,0,5.76,0c0-0.18,0-0.36,0-0.54c0-0.18,0-0.36,0-0.54c0-0.36,0-0.72,0-1.08c0-0.72,0-1.44,0-2.16c0-1.44,0-2.88,0-4.32
	c0-1.44,0-2.88,0-4.32s0-2.88,0-4.32c-1.92,0-3.84,0-5.76,0c0-1.92,0-3.84,0-5.76c-5.761,0-11.53,0-17.28,0c0-3.84,0-7.68,0-11.52
	c-1.92,0-3.84,0-5.76,0c0-1.92,0-3.84,0-5.76c-1.92,0-3.84,0-5.76,0c0,3.84,0,7.68,0,11.52c1.92,0,3.84,0,5.76,0
	c0,3.84,0,7.68,0,11.52c3.84,0,7.68,0,11.51,0c0,3.84,0,7.68,0,11.52c1.92,0,3.84,0,5.77,0c0,0.12,0,0.24,0,0.36
	c0,0.54,0,1.08,0,1.62c0,0.12,0,0.24,0,0.36c0,0.18,0,0.36,0,0.54c0,0.12,0,0.24,0,0.36c0,0.18,0,0.36,0,0.54c0,0.12,0,0.24,0,0.36
	c0,0.18,0,0.36,0,0.54c0,0.12,0,0.24,0,0.36c0,0.18,0,0.36,0,0.54c0,0.12,0,0.24,0,0.36c0,0.18,0,0.36,0,0.54c0,0.12,0,0.24,0,0.36
	c0,0.18,0,0.36,0,0.54c0,0.12,0,0.24,0,0.36c0,0.18,0,0.36,0,0.54c0,0.12,0,0.24,0,0.36c0,0.18,0,0.36,0,0.54c0,0.12,0,0.24,0,0.36
	c0,0.18,0,0.36,0,0.54c0,0.12,0,0.24,0,0.36c0,0.18,0,0.36,0,0.54c0,0.12,0,0.24,0,0.36c0,0.18,0,0.36,0,0.54c0,0.12,0,0.24,0,0.36
	c0,0.18,0,0.36,0,0.54c0,0.12,0,0.24,0,0.36c0,0.18,0,0.36,0,0.54c0,0.12,0,0.24,0,0.36c0,0.18,0,0.36,0,0.54c0,0.12,0,0.24,0,0.36
	c0,0.18,0,0.36,0,0.54c0,0.12,0,0.24,0,0.36c0,0.18,0,0.36,0,0.54c0,0.12,0,0.24,0,0.36c0,0.18,0,0.36,0,0.54c0,0.12,0,0.24,0,0.36
	c0,0.18,0,0.36,0,0.54c0,0.12,0,0.24,0,0.36c0,0.18,0,0.36,0,0.54c0,0.12,0,0.24,0,0.36c0,0.18,0,0.36,0,0.54c0,0.12,0,0.24,0,0.36
	c0,0.18,0,0.36,0,0.54c0,0.12,0,0.24,0,0.36c0,0.18,0,0.36,0,0.54c0,0.12,0,0.24,0,0.36c0,0.18,0,0.36,0,0.54c0,0.12,0,0.24,0,0.36
	c0,0.18,0,0.36,0,0.54c0,0.12,0,0.24,0,0.36c0,0.18,0,0.36,0,0.54c0,0.12,0,0.24,0,0.36c0,0.18,0,0.36,0,0.54c0,0.12,0,0.24,0,0.36
	c0,0.18,0,0.36,0,0.54c0,0.12,0,0.24,0,0.36c0,0.18,0,0.36,0,0.54c0,0.12,0,0.24,0,0.36c0,0.18,0,0.359,0,0.54
	c0,0.12,0,0.239,0,0.36c0,0.18,0,0.359,0,0.539c-1.93,0-3.85,0-5.77,0c0,7.68,0,15.36,0,23.041c-1.92,0-3.83,0-5.75,0
	c0,1.439,0,2.879,0,4.319s0,2.88,0,4.319c0,1.441,0,2.881,0,4.32c0,1.44,0,2.881,0,4.32c-3.84,0-7.68,0-11.52,0
	c0,1.92,0,3.84,0,5.76c-1.931,0-3.851,0-5.771,0c0,3.84,0,7.68,0,11.521C115.56,138.42,109.8,138.42,104.04,138.42z"/>
<path fill="#232034" d="M104.04,63.36c0,1.92,0,3.84,0,5.76c1.92,0,3.84,0,5.76,0c0-1.92,0-3.84,0-5.76
	C107.88,63.36,105.96,63.36,104.04,63.36z"/>
<path fill="#F79C7F" d="M109.8,103.861c0,1.92,0,3.84,0,5.76c1.92,0,3.84,0,5.76,0c0-0.9,0-1.801,0-2.7c0-0.841,0-1.681,0-2.521
	c0-0.18,0-0.359,0-0.539c-0.07,0-0.13,0-0.18,0c-0.19,0-0.36,0-0.54,0c-0.3,0-0.61,0-0.91,0c-0.41,0-0.83,0-1.25,0
	c-0.25,0-0.49,0-0.72,0c-0.19,0-0.36,0-0.54,0c-0.19,0-0.36,0-0.54,0c-0.19,0-0.36,0-0.54,0
	C110.149,103.861,109.97,103.861,109.8,103.861z"/>
<path fill="#F79C7F" d="M109.8,92.34c0,1.92,0,3.84,0,5.76c3.84,0,7.67,0,11.51,0c0-0.06,0-0.12,0-0.18c0-1.681,0-3.36,0-5.04
	c0-0.18,0-0.36,0-0.54c-1.92,0-3.84,0-5.75,0C113.64,92.34,111.72,92.34,109.8,92.34z"/>
</svg>
