<?xml version="1.0" encoding="utf-8"?>
<!-- Generator: Adobe Illustrator 15.0.0, SVG Export Plug-In  -->
<!DOCTYPE svg PUBLIC "-//W3C//DTD SVG 1.1//EN" "http://www.w3.org/Graphics/SVG/1.1/DTD/svg11.dtd" [
	<!ENTITY ns_flows "http://ns.adobe.com/Flows/1.0/">
]>
<svg version="1.1"
	 xmlns="http://www.w3.org/2000/svg" xmlns:xlink="http://www.w3.org/1999/xlink" xmlns:a="http://ns.adobe.com/AdobeSVGViewerExtensions/3.0/"
	 x="0px" y="0px" width="200px" height="200px" viewBox="-13.01 -18.63 200 200" enable-background="new -13.01 -18.63 200 200"
	 xml:space="preserve">
<defs>
</defs>
<path fill="#D42C41" d="M0,98.101C0,102,0,105.899,0,109.8c1.92,0,3.84,0,5.76,0c0,1.92,0,3.84,0,5.76c1.92,0,3.84,0,5.76,0
	c0,1.92,0,3.84,0,5.761c1.91,0,3.83,0,5.75,0c0,1.92,0,3.84,0,5.76c3.91,0,7.811,0,11.7,0c0,3.84,0,7.681,0,11.521
	c1.92,0,3.84,0,5.76,0c0,1.92,0,3.84,0,5.76c3.851,0,7.69,0,11.53,0c0-1.92,0-3.84,0-5.76c-1.92,0-3.84,0-5.76,0
	c0-1.92,0-3.84,0-5.76c-1.92,0-3.851,0-5.771,0c0-3.841,0-7.681,0-11.521c-1.92,0-3.84,0-5.76,0c0-1.921,0-3.841,0-5.761
	c-1.91,0-3.83,0-5.75,0c0-1.92,0-3.84,0-5.76c-1.99,0-3.96,0-5.95,0c0-1.979,0-3.959,0-5.939c-1.92,0-3.84,0-5.75,0
	c0-1.92,0-3.84,0-5.76c1.91,0,3.83,0,5.75,0c0-0.24,0-0.48,0-0.721c0-0.18,0-0.359,0-0.539c0-0.421,0-0.841,0-1.261s0-0.84,0-1.26
	c0-0.421,0-0.841,0-1.261c0-1.68,0-3.359,0-5.039s0-3.36,0-5.041c0-0.839,0-1.679,0-2.52c0-0.84,0-1.68,0-2.52c0-1.68,0-3.36,0-5.04
	c0-1.68,0-3.36,0-5.04c0-1.68,0-3.36,0-5.04c0-1.68,0-3.36,0-5.04c-1.92,0-3.84,0-5.75,0c0,1.92,0,3.84,0,5.76
	c-1.92,0-3.84,0-5.76,0c0,1.92,0,3.84,0,5.76c-1.92,0-3.84,0-5.76,0c0,3.84,0,7.68,0,11.52c1.92,0,3.84,0,5.76,0
	c0,1.92,0,3.84,0,5.76c1.92,0,3.84,0,5.76,0c0,1.92,0,3.84,0,5.761c-1.92,0-3.84,0-5.76,0c0,1.92,0,3.84,0,5.76
	C3.84,98.101,1.92,98.101,0,98.101z"/>
<path fill="#F15A46" d="M17.27,98.101c0-0.24,0-0.48,0-0.721c0-0.18,0-0.359,0-0.539c0-0.421,0-0.841,0-1.261s0-0.84,0-1.26
	c0-0.421,0-0.841,0-1.261c0-1.68,0-3.359,0-5.039s0-3.36,0-5.041c0-0.839,0-1.679,0-2.52c0-0.84,0-1.68,0-2.52c0-1.68,0-3.36,0-5.04
	c0-1.68,0-3.36,0-5.04c0-1.68,0-3.36,0-5.04c0-1.68,0-3.36,0-5.04c3.91,0,7.811,0,11.7,0c0-3.84,0-7.68,0-11.52
	c3.84,0,7.68,0,11.53,0c0-0.24,0-0.48,0-0.72c0-0.18,0-0.36,0-0.54c0-0.36,0-0.72,0-1.08c0-0.18,0-0.36,0-0.54c0-0.18,0-0.36,0-0.54
	c0-0.36,0-0.72,0-1.08c0-1.44,0-2.88,0-4.32c0-2.88,0-5.76,0-8.64c7.68,0,15.35,0,23.04,0c0,1.92,0,3.84,0,5.76
	c1.92,0,3.84,0,5.76,0c0,0.96,0,1.92,0,2.88c0,0.48,0,0.96,0,1.44c0,0.54,0,1.08,0,1.62c0,1.92,0,3.84,0,5.76
	c-3.84,0-7.681,0-11.53,0c0,1.92,0,3.84,0,5.76c-1.92,0-3.84,0-5.75,0c0,3.84,0,7.68,0,11.52c-1.92,0-3.84,0-5.76,0
	c0,7.68,0,15.36,0,23.04c-1.92,0-3.84,0-5.76,0c0,3.84,0,7.681,0,11.521c0,1.92,0,3.84,0,5.76c0,1.98,0,3.96,0,5.939
	c1.92,0,3.84,0,5.76,0c0,3.84,0,7.68,0,11.521c1.92,0,3.84,0,5.76,0c0,3.84,0,7.68,0,11.521c5.75,0,11.521,0,17.28,0
	c0,1.92,0,3.84,0,5.76c1.92,0,3.84,0,5.76,0c0-1.92,0-3.84,0-5.76c1.91,0,3.83,0,5.75,0c0-2.881,0-5.761,0-8.641s0-5.76,0-8.641
	c3.91,0,7.81,0,11.71,0c0-1.92,0-3.84,0-5.76c1.91,0,3.83,0,5.75,0c0-1.979,0-3.959,0-5.939c1.92,0,3.85,0,5.771,0
	c1.92,0,3.84,0,5.76,0c0-3.84,0-7.68,0-11.52c1.92,0,3.84,0,5.76,0c0-1.921,0-3.841,0-5.761c1.91,0,3.83,0,5.75,0
	c0-1.92,0-3.84,0-5.76c3.84,0,7.69,0,11.53,0c0-0.18,0-0.36,0-0.54c0-0.66,0-1.32,0-1.98c0-0.66,0-1.32,0-1.98c0-1.38,0-2.76,0-4.14
	c0-0.66,0-1.32,0-1.98s0-1.32,0-1.98c0-1.38,0-2.76,0-4.14c0-0.18,0-0.36,0-0.54c-1.92,0-3.84,0-5.76,0c0-1.92,0-3.84,0-5.76
	c-1.931,0-3.851,0-5.771,0c0-1.92,0-3.84,0-5.76c-1.92,0-3.84,0-5.75,0c-1.92,0-3.84,0-5.76,0c0-1.92,0-3.84,0-5.76
	c-1.92,0-3.84,0-5.76,0c0-1.92,0-3.84,0-5.76c-7.74,0-15.48,0-23.23,0c0-1.38,0-2.76,0-4.14c0-1.44,0-2.88,0-4.32
	c0-0.12,0-0.24,0-0.36c0-0.18,0-0.36,0-0.54c0-0.36,0-0.72,0-1.08c0-0.18,0-0.36,0-0.54c0-0.18,0-0.36,0-0.54c0-0.36,0-0.72,0-1.08
	c0-1.44,0-2.88,0-4.32c0-0.18,0-0.36,0-0.54c-1.92,0-3.84,0-5.75,0c0-1.92,0-3.84,0-5.76c0.17,0,0.36,0,0.54,0
	c5.46,0,10.92,0,16.37,0c0.18,0,0.37,0,0.55,0c0-1.92,0-3.84,0-5.76c3.83,0,7.67,0,11.521,0c0,1.92,0,3.84,0,5.76
	c1.92,0,3.84,0,5.76,0c0,1.92,0,3.84,0,5.76c1.92,0,3.84,0,5.76,0c0,1.92,0,3.84,0,5.76c1.91,0,3.83,0,5.75,0c0,1.92,0,3.84,0,5.76
	c0,0.96,0,1.92,0,2.88c0,0.48,0,0.96,0,1.44c0,0.54,0,1.08,0,1.62c1.92,0,3.84,0,5.771,0c0,1.92,0,3.84,0,5.76
	c5.76,0,11.52,0,17.27,0c0,1.92,0,3.84,0,5.76c1.92,0,3.84,0,5.77,0c0,7.68,0,15.36,0,23.04c1.921,0,3.841,0,5.761,0
	c0,1.92,0,3.84,0,5.76c1.92,0,3.84,0,5.76,0c0,3.84,0,7.68,0,11.521c1.979,0,3.96,0,5.94,0c0,1.92,0,3.84,0,5.76
	c-1.98,0-3.961,0-5.94,0c0,3.899,0,7.799,0,11.699c-1.92,0-3.84,0-5.76,0c0,1.92,0,3.84,0,5.76c-5.761,0-11.53,0-17.28,0
	c0-1.92,0-3.84,0-5.76c-5.76,0-11.52,0-17.29,0c0,1.92,0,3.84,0,5.76c1.92,0,3.84,0,5.771,0c0,1.92,0,3.84,0,5.761
	c1.92,0,3.84,0,5.76,0c0,3.84,0,7.68,0,11.521c-1.92,0-3.84,0-5.76,0c0,3.84,0,7.68,0,11.52c-7.69,0-15.36,0-23.04,0
	c0-1.92,0-3.84,0-5.76c-1.921,0-3.851,0-5.771,0c0,1.92,0,3.84,0,5.76c-3.89,0-7.8,0-11.689,0c0,1.92,0,3.84,0,5.76
	c-7.69,0-15.36,0-23.04,0c0,1.92,0,3.84,0,5.76c-1.921,0-3.851,0-5.771,0c0-1.92,0-3.84,0-5.76c-1.92,0-3.84,0-5.75,0
	c0-1.92,0-3.84,0-5.76c-1.92,0-3.84,0-5.76,0c0-1.92,0-3.84,0-5.76c-1.92,0-3.84,0-5.76,0c0-1.92,0-3.84,0-5.76
	c-1.92,0-3.851,0-5.771,0c0-3.841,0-7.681,0-11.521c-1.92,0-3.84,0-5.76,0c0-1.921,0-3.841,0-5.761c-1.91,0-3.83,0-5.75,0
	c0-1.92,0-3.84,0-5.76c-1.99,0-3.96,0-5.95,0c0-1.979,0-3.959,0-5.939c-1.92,0-3.84,0-5.75,0c0-1.92,0-3.84,0-5.76
	C13.43,98.101,15.35,98.101,17.27,98.101z M132.84,103.86c0-3.66,0-7.32,0-10.98c0-0.18,0-0.359,0-0.539c-3.66,0-7.32,0-10.99,0
	c-0.17,0-0.35,0-0.54,0c0,3.84,0,7.68,0,11.52C125.149,103.86,129,103.86,132.84,103.86z"/>
<path fill="#D42C41" d="M17.27,52.02c0,1.92,0,3.84,0,5.76c3.91,0,7.811,0,11.7,0c0-3.84,0-7.68,0-11.52c3.84,0,7.68,0,11.53,0
	c0-0.24,0-0.48,0-0.72c0-0.18,0-0.36,0-0.54c0-0.36,0-0.72,0-1.08c0-0.18,0-0.36,0-0.54c0-0.18,0-0.36,0-0.54c0-0.36,0-0.72,0-1.08
	c0-1.44,0-2.88,0-4.32c0-2.88,0-5.76,0-8.64c7.68,0,15.35,0,23.04,0c0,1.92,0,3.84,0,5.76c1.92,0,3.84,0,5.76,0
	c0,0.96,0,1.92,0,2.88c0,0.48,0,0.96,0,1.44c0,0.54,0,1.08,0,1.62c3.84,0,7.67,0,11.51,0c0-1.38,0-2.76,0-4.14c0-1.44,0-2.88,0-4.32
	c0-0.12,0-0.24,0-0.36c0-0.18,0-0.36,0-0.54c0-0.36,0-0.72,0-1.08c0-0.18,0-0.36,0-0.54c0-0.18,0-0.36,0-0.54c0-0.36,0-0.72,0-1.08
	c0-1.44,0-2.88,0-4.32c0-0.18,0-0.36,0-0.54c-1.92,0-3.84,0-5.75,0c0,1.92,0,3.84,0,5.76c-1.92,0-3.84,0-5.76,0
	c0-1.92,0-3.84,0-5.76c-1.62,0-3.24,0-4.87,0c-0.41,0-0.83,0-1.25,0s-0.84,0-1.26,0c-0.84,0-1.69,0-2.53,0c-0.771,0-1.55,0-2.33,0
	c-0.42,0-0.84,0-1.26,0s-0.84,0-1.26,0c-0.421,0-0.851,0-1.271,0s-0.84,0-1.25,0c-0.84,0-1.68,0-2.52,0c-0.78,0-1.57,0-2.351,0
	c-0.42,0-0.84,0-1.26,0s-0.83,0-1.25,0s-0.84,0-1.26,0s-0.84,0-1.261,0c-0.85,0-1.689,0-2.52,0c-0.42,0-0.84,0-1.26,0
	s-0.84,0-1.26,0c-0.851,0-1.69,0-2.521,0c-0.42,0-0.84,0-1.26,0s-0.84,0-1.26,0c-0.421,0-0.851,0-1.271,0s-0.84,0-1.25,0
	c-0.18,0-0.37,0-0.55,0c0,3.84,0,7.68,0,11.52c-1.91,0-3.83,0-5.75,0c0,2.88,0,5.76,0,8.64c0,1.44,0,2.88,0,4.32c0,1.5,0,3,0,4.5
	C21.229,52.02,19.26,52.02,17.27,52.02z"/>
<path fill="#F79C7F" d="M40.5,103.86c0,1.98,0,3.96,0,5.939c1.92,0,3.84,0,5.76,0c0,3.84,0,7.68,0,11.521c1.92,0,3.84,0,5.76,0
	c0,3.84,0,7.68,0,11.521c5.75,0,11.521,0,17.28,0c0,1.92,0,3.84,0,5.76c1.92,0,3.84,0,5.76,0c0-1.92,0-3.84,0-5.76
	c1.91,0,3.83,0,5.75,0c0-2.881,0-5.761,0-8.641s0-5.76,0-8.641c-5.75,0-11.51,0-17.27,0c0-1.92,0-3.84,0-5.76
	c-1.921,0-3.851,0-5.771,0c0-1.979,0-3.959,0-5.939c-1.92,0-3.84,0-5.75,0c0-3.84,0-7.68,0-11.52c-1.92,0-3.84,0-5.76,0
	c0-1.921,0-3.841,0-5.761c-1.92,0-3.84,0-5.76,0c0,3.84,0,7.681,0,11.521C40.5,100.021,40.5,101.94,40.5,103.86z"/>
<path fill="#D42C41" d="M46.26,144.36c0,3.84,0,7.68,0,11.52c3.84,0,7.67,0,11.51,0c0-1.92,0-3.84,0-5.76c-1.92,0-3.84,0-5.75,0
	c0-1.92,0-3.84,0-5.76C50.1,144.36,48.18,144.36,46.26,144.36z"/>
<path fill="#232034" d="M46.26,86.58c0,1.92,0,3.84,0,5.761c1.92,0,3.84,0,5.76,0c0-3.841,0-7.681,0-11.521c0-1.92,0-3.84,0-5.76
	s0-3.84,0-5.76c0-1.92,0-3.84,0-5.76c-1.92,0-3.84,0-5.76,0C46.26,71.22,46.26,78.9,46.26,86.58z"/>
<path fill="#232034" d="M52.02,92.341c0,3.84,0,7.68,0,11.52c1.91,0,3.83,0,5.75,0c0-1.92,0-3.84,0-5.76s0-3.84,0-5.76
	C55.85,92.341,53.93,92.341,52.02,92.341z"/>
<path fill="#AAAAAB" d="M52.02,80.82c0,3.84,0,7.68,0,11.521c1.91,0,3.83,0,5.75,0s3.85,0,5.771,0c0,1.92,0,3.84,0,5.76
	c1.92,0,3.84,0,5.76,0c0-1.92,0-3.84,0-5.76c0.17,0,0.35,0,0.54,0c1.729,0,3.47,0,5.22,0c0,1.92,0,3.84,0,5.76c1.91,0,3.83,0,5.75,0
	c0-1.92,0-3.84,0-5.76c1.92,0,3.84,0,5.771,0c0,1.92,0,3.84,0,5.76c-1.931,0-3.851,0-5.771,0c0,1.92,0,3.84,0,5.76
	c-1.92,0-3.84,0-5.75,0c0-1.92,0-3.84,0-5.76c-1.92,0-3.84,0-5.76,0c0,1.92,0,3.84,0,5.76c-1.92,0-3.84,0-5.76,0
	c0,1.98,0,3.96,0,5.939c7.68,0,15.35,0,23.04,0c0-1.979,0-3.959,0-5.939c1.979,0,3.96,0,5.939,0c1.91,0,3.83,0,5.75,0
	c0-3.84,0-7.68,0-11.52c-1.92,0-3.84,0-5.75,0c0-3.841,0-7.681,0-11.521c-0.55,0-1.09,0-1.63,0c-0.47,0-0.96,0-1.43,0
	c-0.96,0-1.92,0-2.88,0c-1.931,0-3.851,0-5.771,0s-3.84,0-5.75,0c0-1.92,0-3.84,0-5.76c-1.92,0-3.84,0-5.76,0c0-1.92,0-3.84,0-5.76
	c1.92,0,3.84,0,5.76,0c5.82,0,11.63,0,17.46,0c0,1.92,0,3.84,0,5.76c1.91,0,3.83,0,5.75,0c0-1.92,0-3.84,0-5.76
	c3.85,0,7.69,0,11.53,0c0-1.92,0-3.84,0-5.76c-1.92,0-3.84,0-5.76,0c0-3.84,0-7.68,0-11.52c-1.921,0-3.851,0-5.771,0
	c0-1.92,0-3.84,0-5.76c-7.729,0-15.47,0-23.21,0c0,1.92,0,3.84,0,5.76c-1.92,0-3.84,0-5.76,0s-3.84,0-5.76,0c0,1.92,0,3.84,0,5.76
	c-1.921,0-3.851,0-5.771,0c0,1.92,0,3.84,0,5.76s0,3.84,0,5.76c1.92,0,3.85,0,5.771,0c0,3.84,0,7.68,0,11.52c1.92,0,3.84,0,5.76,0
	c0,1.92,0,3.84,0,5.76c-1.92,0-3.84,0-5.76,0c0-1.92,0-3.84,0-5.76c-1.921,0-3.851,0-5.771,0S53.93,80.82,52.02,80.82z"/>
<path fill="#F15A46" d="M52.02,75.06c0,1.92,0,3.84,0,5.76c1.91,0,3.83,0,5.75,0c0-1.92,0-3.84,0-5.76
	C55.85,75.06,53.93,75.06,52.02,75.06z"/>
<path fill="#010101" d="M52.02,69.3c0,1.92,0,3.84,0,5.76c1.91,0,3.83,0,5.75,0c0,1.92,0,3.84,0,5.76c1.92,0,3.85,0,5.771,0
	c0-3.84,0-7.68,0-11.52c-1.921,0-3.851,0-5.771,0S53.93,69.3,52.02,69.3z"/>
<path fill="#7B7B7B" d="M52.02,63.54c0,1.92,0,3.84,0,5.76c1.91,0,3.83,0,5.75,0c0-1.92,0-3.84,0-5.76
	C55.85,63.54,53.93,63.54,52.02,63.54z"/>
<path fill="#232034" d="M52.02,52.02c0,3.84,0,7.68,0,11.52c1.91,0,3.83,0,5.75,0c0-1.92,0-3.84,0-5.76s0-3.84,0-5.76
	C55.85,52.02,53.93,52.02,52.02,52.02z"/>
<path fill="#D42C41" d="M57.77,155.88c0,1.92,0,3.84,0,5.76c7.69,0,15.37,0,23.04,0c0-1.92,0-3.84,0-5.76c7.75,0,15.49,0,23.23,0
	c0-1.92,0-3.84,0-5.76c0.18,0,0.35,0,0.54,0c2.76,0,5.52,0,8.27,0c1.38,0,2.77,0,4.15,0c1.43,0,2.88,0,4.31,0c2.771,0,5.53,0,8.29,0
	c1.37,0,2.75,0,4.13,0c1.45,0,2.89,0,4.33,0c0.17,0,0.36,0,0.54,0c0-1.92,0-3.84,0-5.76c1.92,0,3.83,0,5.75,0
	c0-7.68,0-15.36,0-23.04c3.84,0,7.69,0,11.53,0c0-1.921,0-3.841,0-5.761c-5.761,0-11.53,0-17.28,0c0-1.92,0-3.84,0-5.76
	c-5.76,0-11.52,0-17.29,0c0,1.92,0,3.84,0,5.76c1.92,0,3.84,0,5.771,0c0,1.92,0,3.84,0,5.761c1.92,0,3.84,0,5.76,0
	c0,3.84,0,7.68,0,11.521c-1.92,0-3.84,0-5.76,0c0,3.84,0,7.68,0,11.52c-7.69,0-15.36,0-23.04,0c0-1.92,0-3.84,0-5.76
	c-1.921,0-3.851,0-5.771,0c0,1.92,0,3.84,0,5.76c-3.89,0-7.8,0-11.689,0c0,1.92,0,3.84,0,5.76c-7.69,0-15.36,0-23.04,0
	c0,1.92,0,3.84,0,5.76C61.619,155.88,59.689,155.88,57.77,155.88z"/>
<path fill="#232034" d="M57.77,103.86c0,1.98,0,3.96,0,5.939c1.92,0,3.85,0,5.771,0c0-1.979,0-3.959,0-5.939
	C61.619,103.86,59.689,103.86,57.77,103.86z"/>
<path fill="#AAAAAB" d="M57.77,98.101c0,1.92,0,3.84,0,5.76c1.92,0,3.85,0,5.771,0c0-1.92,0-3.84,0-5.76
	C61.619,98.101,59.689,98.101,57.77,98.101z"/>
<path fill="#010101" d="M57.77,92.341c0,1.92,0,3.84,0,5.76c1.92,0,3.85,0,5.771,0c0-1.92,0-3.84,0-5.76
	C61.619,92.341,59.689,92.341,57.77,92.341z"/>
<path fill="#7B7B7B" d="M57.77,52.02c0,1.92,0,3.84,0,5.76c1.92,0,3.85,0,5.771,0c0-1.92,0-3.84,0-5.76
	C61.619,52.02,59.689,52.02,57.77,52.02z"/>
<path fill="#232034" d="M57.77,46.26c0,1.92,0,3.84,0,5.76c1.92,0,3.85,0,5.771,0c1.92,0,3.84,0,5.76,0c0-1.92,0-3.84,0-5.76
	C65.46,46.26,61.619,46.26,57.77,46.26z"/>
<path fill="#232034" d="M63.54,109.8c0,1.92,0,3.84,0,5.76c5.76,0,11.52,0,17.27,0c3.91,0,7.81,0,11.71,0c0-1.92,0-3.84,0-5.76
	c-1.979,0-3.96,0-5.939,0C78.89,109.8,71.22,109.8,63.54,109.8z"/>
<path fill="#010101" d="M63.54,98.101c0,1.92,0,3.84,0,5.76c1.92,0,3.84,0,5.76,0c0-1.92,0-3.84,0-5.76
	C67.38,98.101,65.46,98.101,63.54,98.101z"/>
<path fill="#010101" d="M63.54,80.82c0,1.92,0,3.84,0,5.76c1.92,0,3.84,0,5.76,0c0-1.92,0-3.84,0-5.76
	C67.38,80.82,65.46,80.82,63.54,80.82z"/>
<path fill="#010101" d="M69.3,92.341c0,1.92,0,3.84,0,5.76c1.92,0,3.84,0,5.76,0c0-1.92,0-3.84,0-5.76c-1.75,0-3.49,0-5.22,0
	C69.649,92.341,69.47,92.341,69.3,92.341z"/>
<path fill="#7B7B7B" d="M69.3,69.3c0,1.92,0,3.84,0,5.76c1.92,0,3.84,0,5.76,0c0-1.92,0-3.84,0-5.76
	C73.14,69.3,71.22,69.3,69.3,69.3z"/>
<path fill="#7B7B7B" d="M69.3,46.26c0,1.92,0,3.84,0,5.76c1.92,0,3.84,0,5.76,0c0-1.92,0-3.84,0-5.76
	C73.14,46.26,71.22,46.26,69.3,46.26z"/>
<path fill="#232034" d="M69.3,40.5c0,1.92,0,3.84,0,5.76c1.92,0,3.84,0,5.76,0c7.74,0,15.48,0,23.21,0c1.92,0,3.85,0,5.771,0
	c0-1.92,0-3.84,0-5.76c-7.74,0-15.48,0-23.23,0C76.97,40.5,73.14,40.5,69.3,40.5z"/>
<path fill="#D42C41" d="M69.3,11.52c0,3.84,0,7.68,0,11.52c1.92,0,3.84,0,5.76,0c0-1.92,0-3.84,0-5.76c0.17,0,0.36,0,0.54,0
	c5.46,0,10.92,0,16.37,0c0.18,0,0.37,0,0.55,0c0-1.92,0-3.84,0-5.76c3.83,0,7.67,0,11.521,0c0-0.96,0-1.92,0-2.88s0-1.92,0-2.88
	c-1.921,0-3.851,0-5.771,0c0-0.96,0-1.92,0-2.88c0-0.96,0-1.92,0-2.88c-5.81,0-11.63,0-17.46,0c0,0.48,0,0.96,0,1.44s0,0.96,0,1.44
	c0,0.48,0,0.96,0,1.44c0,0.24,0,0.48,0,0.72c0,0.24,0,0.48,0,0.72c-1.92,0-3.84,0-5.75,0c0,0.96,0,1.92,0,2.88s0,1.92,0,2.88
	C73.14,11.52,71.22,11.52,69.3,11.52z"/>
<path fill="#010101" d="M75.06,98.101c0,1.92,0,3.84,0,5.76c1.91,0,3.83,0,5.75,0c0-1.92,0-3.84,0-5.76
	C78.89,98.101,76.97,98.101,75.06,98.101z"/>
<path fill="#F15A46" d="M75.06,75.06c0,1.92,0,3.84,0,5.76c1.91,0,3.83,0,5.75,0c0-1.92,0-3.84,0-5.76
	C78.89,75.06,76.97,75.06,75.06,75.06z"/>
<path fill="#010101" d="M75.06,69.3c0,1.92,0,3.84,0,5.76c1.91,0,3.83,0,5.75,0c0,1.92,0,3.84,0,5.76c1.92,0,3.84,0,5.771,0
	c0-1.92,0-3.84,0-5.76c0.96,0,1.92,0,2.88,0c0.47,0,0.96,0,1.43,0c0.54,0,1.08,0,1.63,0c0-1.92,0-3.84,0-5.76
	C86.689,69.3,80.88,69.3,75.06,69.3z"/>
<path fill="#010101" d="M80.81,92.341c0,1.92,0,3.84,0,5.76c1.92,0,3.84,0,5.771,0c0-1.92,0-3.84,0-5.76
	C84.649,92.341,82.729,92.341,80.81,92.341z"/>
<path fill="#7B7B7B" d="M86.58,103.86c0,1.98,0,3.96,0,5.939c1.979,0,3.96,0,5.939,0c0-1.979,0-3.959,0-5.939
	C90.54,103.86,88.56,103.86,86.58,103.86z"/>
<path fill="#7B7B7B" d="M86.58,75.06c0,1.92,0,3.84,0,5.76c0.96,0,1.92,0,2.88,0c0.47,0,0.96,0,1.43,0c0.54,0,1.08,0,1.63,0
	c0,3.84,0,7.68,0,11.521c1.91,0,3.83,0,5.75,0c0-1.921,0-3.841,0-5.761c1.92,0,3.85,0,5.771,0c0-1.92,0-3.84,0-5.76
	c1.92,0,3.84,0,5.76,0c0-1.92,0-3.84,0-5.76c1.92,0,3.84,0,5.76,0c0-1.44,0-2.88,0-4.32s0-2.88,0-4.32c0-1.44,0-2.88,0-4.32
	s0-2.88,0-4.32c-1.92,0-3.84,0-5.76,0c0-1.92,0-3.84,0-5.76c-1.92,0-3.84,0-5.76,0c0,3.84,0,7.68,0,11.52c1.92,0,3.84,0,5.76,0
	c0,1.92,0,3.84,0,5.76c-3.84,0-7.681,0-11.53,0c0,1.92,0,3.84,0,5.76c-1.92,0-3.84,0-5.75,0c-0.55,0-1.09,0-1.63,0
	c-0.47,0-0.96,0-1.43,0C88.5,75.06,87.54,75.06,86.58,75.06z"/>
<path fill="#232034" d="M92.52,103.86c0,1.98,0,3.96,0,5.939c1.91,0,3.83,0,5.75,0c0-1.979,0-3.959,0-5.939
	C96.35,103.86,94.43,103.86,92.52,103.86z"/>
<path fill="#232034" d="M98.27,92.341c0,3.84,0,7.68,0,11.52c1.92,0,3.85,0,5.771,0c0-3.84,0-7.68,0-11.52c1.92,0,3.84,0,5.76,0
	c0-1.921,0-3.841,0-5.761c1.92,0,3.84,0,5.76,0c0-1.92,0-3.84,0-5.76c1.91,0,3.83,0,5.75,0c0-7.68,0-15.36,0-23.04
	c-1.92,0-3.84,0-5.75,0c0,1.44,0,2.88,0,4.32s0,2.88,0,4.32c0,1.44,0,2.88,0,4.32s0,2.88,0,4.32c-1.92,0-3.84,0-5.76,0
	c0,1.92,0,3.84,0,5.76c-1.92,0-3.84,0-5.76,0c0,1.92,0,3.84,0,5.76c-1.921,0-3.851,0-5.771,0C98.27,88.5,98.27,90.42,98.27,92.341z"
	/>
<path fill="#7B7B7B" d="M98.27,46.26c0,1.92,0,3.84,0,5.76c1.92,0,3.85,0,5.771,0c0-1.92,0-3.84,0-5.76
	C102.119,46.26,100.189,46.26,98.27,46.26z"/>
<path fill="#F79C7F" d="M104.04,92.341c0,3.84,0,7.68,0,11.52c1.92,0,3.84,0,5.76,0c0-3.84,0-7.68,0-11.52
	C107.88,92.341,105.96,92.341,104.04,92.341z"/>
<path fill="#232034" d="M104.04,46.26c0,1.92,0,3.84,0,5.76c1.92,0,3.84,0,5.76,0c0-1.92,0-3.84,0-5.76
	C107.88,46.26,105.96,46.26,104.04,46.26z"/>
<path fill="#D42C41" d="M104.04,11.52c0,1.92,0,3.84,0,5.76c1.92,0,3.84,0,5.76,0c0-1.92,0-3.84,0-5.76
	C107.88,11.52,105.96,11.52,104.04,11.52z"/>
<path fill="#F79C7F" d="M109.8,86.58c0,1.92,0,3.84,0,5.761c1.92,0,3.84,0,5.76,0c0-1.921,0-3.841,0-5.761
	C113.64,86.58,111.72,86.58,109.8,86.58z"/>
<path fill="#232034" d="M109.8,52.02c0,1.92,0,3.84,0,5.76c1.92,0,3.84,0,5.76,0c0-1.92,0-3.84,0-5.76
	C113.64,52.02,111.72,52.02,109.8,52.02z"/>
<path fill="#D42C41" d="M109.8,17.28c0,1.92,0,3.84,0,5.76c1.92,0,3.84,0,5.76,0c0,1.92,0,3.84,0,5.76c1.91,0,3.83,0,5.75,0
	c0-3.84,0-7.68,0-11.52C117.47,17.28,113.64,17.28,109.8,17.28z"/>
<path fill="#F79C7F" d="M115.56,80.82c0,1.92,0,3.84,0,5.76c1.91,0,3.83,0,5.75,0c0-1.92,0-3.84,0-5.76
	C119.39,80.82,117.47,80.82,115.56,80.82z"/>
<path fill="#F79C7F" d="M115.56,52.02c0,1.92,0,3.84,0,5.76c1.91,0,3.83,0,5.75,0c0-1.92,0-3.84,0-5.76
	C119.39,52.02,117.47,52.02,115.56,52.02z"/>
<path fill="#D42C41" d="M121.31,92.341c0,3.84,0,7.68,0,11.52c3.84,0,7.69,0,11.53,0c0-3.66,0-7.32,0-10.98c0-0.18,0-0.359,0-0.539
	c-3.66,0-7.32,0-10.99,0C121.68,92.341,121.5,92.341,121.31,92.341z"/>
<path fill="#F79C7F" d="M121.31,57.78c0,7.68,0,15.36,0,23.04c3.84,0,7.69,0,11.53,0c0-0.18,0-0.36,0-0.54c0-0.66,0-1.32,0-1.98
	c0-0.66,0-1.32,0-1.98c0-1.38,0-2.76,0-4.14c0-0.66,0-1.32,0-1.98s0-1.32,0-1.98c0-1.38,0-2.76,0-4.14c0-0.18,0-0.36,0-0.54
	c-1.92,0-3.84,0-5.76,0c0-1.92,0-3.84,0-5.76C125.149,57.78,123.229,57.78,121.31,57.78z"/>
<path fill="#D42C41" d="M121.31,38.88c0,0.54,0,1.08,0,1.62c1.92,0,3.84,0,5.771,0c0,1.92,0,3.84,0,5.76c5.76,0,11.52,0,17.27,0
	c0,1.92,0,3.84,0,5.76c1.92,0,3.84,0,5.77,0c0,7.68,0,15.36,0,23.04c1.921,0,3.841,0,5.761,0c0,1.92,0,3.84,0,5.76
	c1.92,0,3.84,0,5.76,0c0,3.84,0,7.68,0,11.521c1.979,0,3.96,0,5.94,0c0,1.92,0,3.84,0,5.76c-1.98,0-3.961,0-5.94,0
	c0,3.899,0,7.799,0,11.699c1.979,0,3.96,0,5.94,0c0-1.979,0-3.959,0-5.939c1.92,0,3.84,0,5.76,0c0-0.18,0-0.36,0-0.54
	c0-0.54,0-1.08,0-1.62c0-0.12,0-0.24,0-0.359c0-0.181,0-0.361,0-0.541c0-0.119,0-0.24,0-0.359c0-0.18,0-0.36,0-0.541
	c0-0.119,0-0.239,0-0.359c0-0.18,0-0.359,0-0.54c0-0.12,0-0.239,0-0.36c0-0.18,0-0.359,0-0.539c0-0.121,0-0.24,0-0.36
	c0-0.181,0-0.36,0-0.54c0-0.12,0-0.24,0-0.359c0-0.181,0-0.361,0-0.541c0-0.24,0-0.479,0-0.72c0-0.12,0-0.239,0-0.36
	c0-0.18,0-0.359,0-0.539c0-0.121,0-0.24,0-0.36c0-0.181,0-0.36,0-0.54c0-0.12,0-0.24,0-0.36c0-0.18,0-0.36,0-0.54
	c0-0.119,0-0.24,0-0.359c0-0.18,0-0.36,0-0.541c0-0.119,0-0.239,0-0.359c0-0.18,0-0.359,0-0.54c0-0.12,0-0.239,0-0.36
	c0-0.18,0-0.359,0-0.539c0-0.121,0-0.24,0-0.36c0-0.181,0-0.36,0-0.54c0-0.24,0-0.48,0-0.721c0-0.119,0-0.239,0-0.359
	c0-0.18,0-0.359,0-0.54c0-0.12,0-0.24,0-0.36c0-0.18,0-0.359,0-0.539c0-0.121,0-0.24,0-0.361c0-0.18,0-0.359,0-0.539
	c0-0.12,0-0.24,0-0.36c0-0.18,0-0.36,0-0.54c0-0.119,0-0.24,0-0.359c0-0.181,0-0.36,0-0.541c0-0.119,0-0.239,0-0.359
	c0-0.18,0-0.359,0-0.54c0-0.12,0-0.24,0-0.36c0-0.18,0-0.359,0-0.54c0-0.12,0-0.24,0-0.36c0-0.18,0-0.36,0-0.54
	c0-0.12,0-0.24,0-0.36c0-0.18,0-0.36,0-0.54c0-0.12,0-0.24,0-0.36c0-0.18,0-0.36,0-0.54c0-0.12,0-0.24,0-0.36c0-0.18,0-0.36,0-0.54
	c0-0.12,0-0.24,0-0.36c0-0.18,0-0.36,0-0.54c0-0.12,0-0.24,0-0.36c0-0.18,0-0.36,0-0.54c0-0.12,0-0.24,0-0.36c0-0.18,0-0.36,0-0.54
	c0-0.12,0-0.24,0-0.36c0-0.18,0-0.36,0-0.54c-1.92,0-3.84,0-5.76,0c0-1.92,0-3.84,0-5.76c-3.9,0-7.811,0-11.7,0
	c0-1.92,0-3.84,0-5.76c1.92,0,3.84,0,5.76,0c0-3.66,0-7.32,0-10.98c0-0.18,0-0.36,0-0.54c-1.92,0-3.84,0-5.76,0
	c0-1.92,0-3.84,0-5.76c-1.92,0-3.84,0-5.761,0c0-1.92,0-3.84,0-5.76c-2.89,0-5.77,0-8.649,0c-2.87,0-5.75,0-8.63,0
	c0-0.96,0-1.92,0-2.88c0-0.48,0-0.96,0-1.44c0-0.54,0-1.08,0-1.62c-1.92,0-3.84,0-5.76,0c0-1.92,0-3.84,0-5.76
	c-1.931,0-3.851,0-5.771,0c0,1.92,0,3.84,0,5.76c0,0.96,0,1.92,0,2.88C121.31,37.92,121.31,38.4,121.31,38.88z"/>
<path fill="#D42C41" d="M155.88,109.8c0,1.92,0,3.84,0,5.76c1.92,0,3.84,0,5.76,0c0-1.92,0-3.84,0-5.76
	C159.72,109.8,157.8,109.8,155.88,109.8z"/>
</svg>
