<?xml version="1.0" encoding="utf-8"?>
<!-- Generator: Adobe Illustrator 15.0.0, SVG Export Plug-In  -->
<!DOCTYPE svg PUBLIC "-//W3C//DTD SVG 1.1//EN" "http://www.w3.org/Graphics/SVG/1.1/DTD/svg11.dtd" [
	<!ENTITY ns_flows "http://ns.adobe.com/Flows/1.0/">
]>
<svg version="1.1"
	 xmlns="http://www.w3.org/2000/svg" xmlns:xlink="http://www.w3.org/1999/xlink" xmlns:a="http://ns.adobe.com/AdobeSVGViewerExtensions/3.0/"
	 x="0px" y="0px" width="200px" height="200px" viewBox="-15.55 -21.95 200 200" enable-background="new -15.55 -21.95 200 200"
	 xml:space="preserve">
<defs>
</defs>
<path fill="#D42C41" d="M0,92.52c0,7.681,0,15.36,0,23.04c1.92,0,3.84,0,5.76,0c0,0.181,0,0.36,0,0.54c0,0.36,0,0.72,0,1.08
	c0.01,0.42,0,0.84,0,1.26c0,0.36,0,0.721,0,1.08c0.01,0.42,0,0.84,0,1.261c0,0.18,0,0.359,0,0.539c1.931,0,3.851,0,5.771,0
	c0,1.921,0,3.841,0,5.761c3.84,0,7.68,0,11.51,0c0,1.92,0,3.84,0,5.76c3.84,0,7.689,0,11.53,0c0,1.92,0,3.84,0,5.76
	c1.92,0,3.84,0,5.76,0c0,0.181,0,0.36,0,0.54c0,1.561,0,3.12,0,4.68c0,0.181,0,0.36,0,0.54c7.74,0,15.47,0,23.21,0
	c0-1.92,0-3.84,0-5.76c1.92,0,3.84,0,5.76,0c0-1.92,0-3.84,0-5.76c-3.84,0-7.67,0-11.51,0c0-1.92,0-3.84,0-5.76
	c-0.54,0-1.08,0-1.62,0c-0.479,0-0.96,0-1.44,0c-0.97,0-1.93,0-2.89,0c-3.84,0-7.67,0-11.51,0c0-1.92,0-3.84,0-5.761
	c-2.88,0-5.76,0-8.64,0c-2.891,0-5.771,0-8.65,0c0-1.92,0-3.84,0-5.76c-1.91,0-3.83,0-5.75,0c0-1.92,0-3.84,0-5.76
	c-1.92,0-3.84,0-5.76,0c0-0.3,0-0.6,0-0.9c0-0.3,0-0.6,0-0.899s0-0.601,0-0.9s0-0.6,0-0.899c0-0.301,0-0.601,0-0.9s0-0.6,0-0.9
	c0-0.3,0-0.6,0-0.899s0-0.601,0-0.9s0-0.6,0-0.899c0-0.301,0-0.601,0-0.9s0-0.6,0-0.9c0-0.3,0-0.6,0-0.899s0-0.601,0-0.9
	s0-0.6,0-0.899c0-0.301,0-0.601,0-0.9s0-0.6,0-0.9c0-0.3,0-0.6,0-0.899s0-0.601,0-0.9s0-0.6,0-0.899c0-0.301,0-0.601,0-0.9
	s0-0.6,0-0.9c0-0.3,0-0.6,0-0.899s0-0.601,0-0.9s0-0.6,0-0.899c0-0.301,0-0.601,0-0.9s0-0.6,0-0.9c0-0.3,0-0.6,0-0.899
	s0-0.601,0-0.9s0-0.6,0-0.899c0-0.301,0-0.601,0-0.9c0-0.12,0-0.24,0-0.36c0-0.18,0-0.359,0-0.54c0-0.18,0-0.359,0-0.54
	c0-0.18,0-0.359,0-0.54c-1.92,0-3.84,0-5.771,0c0,3.9,0,7.801,0,11.7C3.84,92.52,1.92,92.52,0,92.52z"/>
<path fill="#F15A46" d="M11.53,108.899c0,0.301,0,0.601,0,0.9c1.92,0,3.84,0,5.76,0c0,1.92,0,3.84,0,5.76c1.92,0,3.84,0,5.75,0
	c0,1.92,0,3.84,0,5.76c2.88,0,5.76,0,8.65,0c2.88,0,5.76,0,8.64,0c0,1.921,0,3.841,0,5.761c3.84,0,7.67,0,11.51,0
	c0-1.92,0-3.84,0-5.761c-1.92,0-3.84,0-5.76,0c0-3.84,0-7.68,0-11.52c1.92,0,3.84,0,5.76,0c0-1.92,0-3.84,0-5.76
	c-1.92,0-3.84,0-5.76,0c-1.91,0-3.83,0-5.75,0c0,1.92,0,3.84,0,5.76c-0.18,0-0.37,0-0.54,0c-1.8,0-3.6,0-5.41,0
	c-0.89,0-1.8,0-2.689,0c-0.48,0-0.961,0-1.44,0c-0.42,0-0.84,0-1.26,0c-0.07,0-0.12,0-0.19,0c0-3.84,0-7.68,0-11.52
	c-1.92,0-3.84,0-5.76,0c0-0.181,0-0.36,0-0.54c0-0.721,0-1.44,0-2.16c0-0.181,0-0.36,0-0.54c0-0.181,0-0.36,0-0.54
	c0-0.181,0-0.36,0-0.54s0-0.36,0-0.54c0-0.36,0-0.72,0-1.08c0-0.18,0-0.36,0-0.54s0-0.36,0-0.54c0-0.36,0-0.72,0-1.08
	c0-0.3,0-0.6,0-0.899c0-0.36,0-0.721,0-1.08c0-0.181,0-0.36,0-0.54c0-0.181,0-0.36,0-0.54c0-0.36,0-0.721,0-1.08
	c0-0.3,0-0.601,0-0.9c0-0.18,0-0.359,0-0.54c0-0.18,0-0.359,0-0.54c0-0.18,0-0.359,0-0.54c0-0.18,0-0.359,0-0.54
	c0-0.359,0-0.72,0-1.08c0-0.3,0-0.6,0-0.899c0-0.061,0-0.12,0-0.181c3.84,0,7.689,0,11.53,0c0-1.92,0-3.84,0-5.76
	c1.92,0,3.84,0,5.76,0c0-3.84,0-7.68,0-11.52c-3.84,0-7.68,0-11.53,0c0,1.92,0,3.84,0,5.76c-1.92,0-3.84,0-5.76,0
	c0,1.92,0,3.84,0,5.76c-1.91,0-3.83,0-5.75,0c0,1.92,0,3.84,0,5.76c-1.92,0-3.84,0-5.76,0c0,0.181,0,0.36,0,0.54
	c0,0.181,0,0.36,0,0.54c0,0.181,0,0.36,0,0.54c0,0.12,0,0.24,0,0.36c0,0.3,0,0.6,0,0.9c0,0.3,0,0.6,0,0.899s0,0.601,0,0.9
	s0,0.6,0,0.899c0,0.301,0,0.601,0,0.9s0,0.6,0,0.9c0,0.3,0,0.6,0,0.899s0,0.601,0,0.9s0,0.6,0,0.899c0,0.301,0,0.601,0,0.9
	s0,0.6,0,0.9c0,0.3,0,0.6,0,0.899s0,0.601,0,0.9s0,0.6,0,0.899c0,0.301,0,0.601,0,0.9s0,0.6,0,0.9c0,0.3,0,0.6,0,0.899
	s0,0.601,0,0.9s0,0.6,0,0.899c0,0.301,0,0.601,0,0.9s0,0.6,0,0.9c0,0.3,0,0.6,0,0.899s0,0.601,0,0.9s0,0.6,0,0.899
	c0,0.301,0,0.601,0,0.9s0,0.6,0,0.9c0,0.3,0,0.6,0,0.899s0,0.601,0,0.9S11.53,108.6,11.53,108.899z"/>
<path fill="#D42C41" d="M11.53,75.06c0,1.92,0,3.84,0,5.76c1.92,0,3.84,0,5.76,0c0-1.92,0-3.84,0-5.76
	C15.37,75.06,13.45,75.06,11.53,75.06z"/>
<path fill="#D42C41" d="M17.29,69.3c0,1.92,0,3.84,0,5.76c1.92,0,3.84,0,5.75,0c0-1.92,0-3.84,0-5.76
	C21.13,69.3,19.21,69.3,17.29,69.3z"/>
<path fill="#D42C41" d="M17.29,39.96c0,0.18,0,0.359,0,0.54c1.92,0,3.84,0,5.75,0c0,0.18,0,0.359,0,0.54c0,0.359,0,0.72,0,1.08
	c0,0.42,0,0.84,0,1.26c0,0.36,0,0.72,0,1.08c0,0.18,0,0.359,0,0.54c0,0.24,0,0.479,0,0.72c0,0.18,0,0.36,0,0.54
	c1.92,0,3.84,0,5.76,0c0,1.92,0,3.84,0,5.76c1.93,0,3.851,0,5.771,0c0-3.84,0-7.68,0-11.52c-1.92,0-3.841,0-5.771,0
	c0-0.36,0-0.72,0-1.08c0-0.18,0-0.36,0-0.54s0-0.36,0-0.54c0-0.36,0-0.72,0-1.08s0-0.72,0-1.08s0-0.72,0-1.08c0-0.359,0-0.72,0-1.08
	c0-0.359,0-0.72,0-1.08c0-0.359,0-0.72,0-1.08c0-0.359,0-0.72,0-1.079c0-0.36,0-0.721,0-1.08c0-0.36,0-0.721,0-1.08
	c0-0.36,0-0.721,0-1.08c0-0.36,0-0.721,0-1.08c0-0.36,0-0.72,0-1.08s0-0.72,0-1.08s0-0.72,0-1.08c1.93,0,3.851,0,5.771,0
	c0-1.92,0-3.84,0-5.76c2.46,0,4.92,0,7.38,0c0.18,0,0.35,0,0.54,0c0.12,0,0.239,0,0.35,0c0.19,0,0.37,0,0.54,0c0.12,0,0.25,0,0.37,0
	c0.59,0,1.2,0,1.79,0c0.189,0,0.37,0,0.54,0c0.13,0,0.25,0,0.37,0c0.18,0,0.35,0,0.54,0c0.12,0,0.239,0,0.35,0c0.61,0,1.2,0,1.811,0
	c0.18,0,0.35,0,0.54,0c0.109,0,0.229,0,0.35,0c0.189,0,0.37,0,0.54,0c0.13,0,0.25,0,0.37,0c0.59,0,1.2,0,1.8,0c0.17,0,0.36,0,0.54,0
	c0.12,0,0.24,0,0.36,0c0.18,0,0.35,0,0.54,0c0.109,0,0.229,0,0.35,0c0.61,0,1.21,0,1.8,0c0.19,0,0.37,0,0.54,0c0.12,0,0.25,0,0.37,0
	c0.17,0,0.36,0,0.54,0c0.12,0,0.24,0,0.36,0c0.6,0,1.189,0,1.8,0c0.18,0,0.35,0,0.54,0c0.12,0,0.239,0,0.35,0c0.19,0,0.37,0,0.54,0
	c0.12,0,0.25,0,0.37,0c0.59,0,1.2,0,1.79,0c0-1.92,0-3.84,0-5.76c0.189,0,0.37,0,0.54,0c1.38,0,2.76,0,4.149,0
	c0.351,0,0.721,0,1.07,0c0.19,0,0.37,0,0.54,0c0.12,0,0.24,0,0.37,0c0.66,0,1.32,0,1.98,0c1.38,0,2.76,0,4.14,0
	c0.36,0,0.71,0,1.08,0c0.17,0,0.35,0,0.54,0c0.12,0,0.24,0,0.35,0c0.37,0,0.73,0,1.08,0c0.19,0,0.37,0,0.54,0c0.12,0,0.25,0,0.37,0
	c0.17,0,0.36,0,0.54,0c0,1.92,0,3.84,0,5.76c3.84,0,7.67,0,11.51,0c0,1.92,0,3.84,0,5.76c1.92,0,3.851,0,5.771,0
	c0,3.84,0,7.68,0,11.521c3.84,0,7.68,0,11.52,0c0,1.92,0,3.84,0,5.76c7.74,0,15.48,0,23.21,0c0-1.92,0-3.84,0-5.76
	c1.92,0,3.851,0,5.771,0c0,1.92,0,3.84,0,5.76c1.92,0,3.84,0,5.76,0c0,1.92,0,3.84,0,5.76c1.92,0,3.84,0,5.76,0
	c0,3.84,0,7.68,0,11.521c1.91,0,3.83,0,5.75,0c0,7.68,0,15.359,0,23.039c-1.92,0-3.84,0-5.75,0c0,3.9,0,7.801,0,11.7
	c-1.92,0-3.84,0-5.76,0c0,3.84,0,7.681,0,11.521c-1.92,0-3.84,0-5.76,0c0,3.84,0,7.68,0,11.52c-1.92,0-3.851,0-5.771,0
	c0,3.84,0,7.681,0,11.521c-3.89,0-7.8,0-11.689,0c0,1.92,0,3.84,0,5.76c-1.921,0-3.851,0-5.771,0c0,3.84,0,7.68,0,11.52
	c-3.84,0-7.67,0-11.51,0c0-1.92,0-3.84,0-5.76c-1.92,0-3.84,0-5.76,0c0-3.84,0-7.68,0-11.52c-1.92,0-3.851,0-5.771,0
	c-3.84,0-7.67,0-11.51,0c0,1.92,0,3.84,0,5.76c1.92,0,3.84,0,5.75,0c0,0.18,0,0.36,0,0.54c0,1.56,0,3.12,0,4.68
	c0,0.181,0,0.36,0,0.54c1.92,0,3.84,0,5.76,0c0,1.92,0,3.84,0,5.76c1.92,0,3.851,0,5.771,0c0,0.181,0,0.36,0,0.54
	c0,1.561,0,3.12,0,4.681c0,0.18,0,0.359,0,0.54c1.92,0,3.84,0,5.76,0c0,0.96,0,1.92,0,2.88c0,1.02,0,2.04,0,3.06
	c3.84,0,7.67,0,11.51,0c0-0.96,0-1.92,0-2.88c0-0.479,0-0.96,0-1.439c0-0.24,0-0.48,0-0.721c0-0.239,0-0.479,0-0.72
	c0-0.06,0-0.12,0-0.18c0.19,0,0.37,0,0.54,0c1.81,0,3.61,0,5.41,0c1.86,0,3.71,0,5.58,0c0-1.92,0-3.84,0-5.761c1.97,0,3.96,0,5.93,0
	c0-1.92,0-3.84,0-5.76c1.92,0,3.851,0,5.771,0c0-3.84,0-7.68,0-11.52c0.18,0,0.35,0,0.54,0c1.56,0,3.109,0,4.68,0
	c0.17,0,0.36,0,0.54,0c0-1.92,0-3.84,0-5.761c1.92,0,3.84,0,5.76,0c0-7.68,0-15.359,0-23.039c1.91,0,3.83,0,5.75,0
	c0-3.841,0-7.681,0-11.521c1.92,0,3.85,0,5.771,0c0-1.979,0-3.96,0-5.94c0.18,0,0.35,0,0.54,0c1.56,0,3.109,0,4.68,0
	c0.17,0,0.359,0,0.54,0c0-7.68,0-15.359,0-23.039c-1.92,0-3.84,0-5.76,0c0-0.181,0-0.36,0-0.54c0-3.66,0-7.32,0-10.98
	c-1.921,0-3.851,0-5.771,0c0-0.18,0-0.36,0-0.54c0-1.56,0-3.12,0-4.68c0-0.181,0-0.36,0-0.54c-1.92,0-3.84,0-5.75,0
	c0-3.84,0-7.681,0-11.521c-1.92,0-3.84,0-5.76,0c0-0.18,0-0.359,0-0.54c0-1.56,0-3.12,0-4.68c0-0.18,0-0.36,0-0.54
	c-1.45,0-2.88,0-4.33,0c-1.43,0-2.87,0-4.311,0c-1.439,0-2.89,0-4.319,0c-1.5,0-3,0-4.5,0c0,1.92,0,3.84,0,5.76
	c-5.76,0-11.53,0-17.28,0c0-1.92,0-3.84,0-5.76c-1.92,0-3.84,0-5.76,0c0-0.18,0-0.36,0-0.54c0-1.56,0-3.12,0-4.68
	c0-0.181,0-0.36,0-0.54c-1.92,0-3.84,0-5.76,0c0-0.18,0-0.36,0-0.54c0-1.561,0-3.12,0-4.68c0-0.181,0-0.36,0-0.54
	c-1.92,0-3.851,0-5.771,0c0-0.96,0-1.92,0-2.881c0-0.479,0-0.96,0-1.439c0-0.54,0-1.08,0-1.62c-3.84,0-7.67,0-11.51,0
	c0-1.92,0-3.84,0-5.76c-0.18,0-0.37,0-0.54,0c-0.18,0-0.37,0-0.54,0c-0.18,0-0.37,0-0.54,0c-0.18,0-0.37,0-0.54,0
	c-0.18,0-0.37,0-0.54,0c-0.18,0-0.37,0-0.55,0c-0.17,0-0.351,0-0.54,0c-0.17,0-0.35,0-0.54,0c-0.17,0-0.35,0-0.54,0
	c-0.17,0-0.35,0-0.54,0c-0.35,0-0.71,0-1.08,0c-0.17,0-0.35,0-0.54,0c-0.17,0-0.35,0-0.54,0c-0.18,0-0.35,0-0.53,0
	C72.54,0,72.37,0,72.19,0C72,0,71.83,0,71.65,0c-0.19,0-0.36,0-0.54,0c-0.36,0-0.73,0-1.08,0c-0.19,0-0.36,0-0.54,0
	c-0.19,0-0.36,0-0.54,0c-0.19,0-0.37,0-0.54,0c-0.181,0-0.37,0-0.54,0c-0.18,0-0.37,0-0.54,0c-0.18,0-0.37,0-0.54,0
	c-0.37,0-0.72,0-1.08,0c-0.72,0-1.45,0-2.17,0c0,1.92,0,3.84,0,5.76c-0.17,0-0.35,0-0.54,0c-0.83,0-1.67,0-2.51,0
	c-0.42,0-0.84,0-1.261,0c-0.479,0-0.97,0-1.439,0c-0.91,0-1.8,0-2.71,0c-0.89,0-1.79,0-2.7,0c-0.17,0-0.35,0-0.54,0
	c0,0.96,0,1.92,0,2.88c0,0.48,0,0.96,0,1.44c0,0.479,0,0.96,0,1.439c0,0.061,0,0.12,0,0.181c-0.17,0-0.35,0-0.54,0
	c-1.85,0-3.72,0-5.57,0c-1.859,0-3.729,0-5.579,0c-1.86,0-3.73,0-5.58,0c-1.92,0-3.841,0-5.771,0c0,1.92,0,3.84,0,5.76
	c-1.92,0-3.84,0-5.76,0c0,1.92,0,3.84,0,5.76c-0.17,0-0.35,0-0.54,0c-0.35,0-0.71,0-1.08,0c-0.42,0-0.84,0-1.25,0
	c-0.37,0-0.72,0-1.09,0c-0.41,0-0.83,0-1.25,0c-0.18,0-0.37,0-0.54,0c0,0.18,0,0.36,0,0.54s0,0.36,0,0.54s0,0.36,0,0.54
	s0,0.36,0,0.54c0,0.36,0,0.72,0,1.08c0,0.18,0,0.359,0,0.54c0,0.18,0,0.359,0,0.54c0,0.359,0,0.72,0,1.08c0,0.359,0,0.72,0,1.08
	c0,0.359,0,0.72,0,1.08c0,0.359,0,0.72,0,1.079c0,0.36,0,0.721,0,1.08c0,0.181,0,0.36,0,0.54c0,0.181,0,0.36,0,0.54
	c0,0.36,0,0.721,0,1.08c0,0.36,0,0.72,0,1.08c0,0.18,0,0.36,0,0.54s0,0.36,0,0.54c0,0.36,0,0.72,0,1.08c0,0.18,0,0.36,0,0.54
	s0,0.36,0,0.54S17.29,39.78,17.29,39.96z"/>
<path fill="#F79C7F" d="M23.04,97.74c0,0.18,0,0.359,0,0.54c1.92,0,3.84,0,5.76,0c0,3.84,0,7.68,0,11.52c0.07,0,0.12,0,0.19,0
	c0.42,0,0.84,0,1.26,0c0.479,0,0.96,0,1.44,0c0.89,0,1.8,0,2.689,0c1.811,0,3.61,0,5.41,0c0.17,0,0.36,0,0.54,0
	c0-1.92,0-3.84,0-5.76s0-3.84,0-5.76c-1.92,0-3.84,0-5.76,0c0-0.721,0-1.44,0-2.16c0-0.181,0-0.36,0-0.54c0-0.181,0-0.36,0-0.54
	c0-0.36,0-0.721,0-1.08c0-0.18,0-0.36,0-0.54s0-0.36,0-0.54c0-0.36,0-0.72,0-1.08c0-0.18,0-0.36,0-0.54s0-0.36,0-0.54
	c0-0.36,0-0.72,0-1.08c0-0.18,0-0.359,0-0.54c0-0.18,0-0.359,0-0.54c0-0.359,0-0.72,0-1.08c0-0.18,0-0.359,0-0.54
	c0-0.18,0-0.359,0-0.54c0-0.359,0-0.72,0-1.08c0-0.18,0-0.359,0-0.539c0-0.181,0-0.36,0-0.54c0-0.36,0-0.721,0-1.08
	c0-0.78,0-1.561,0-2.341c-3.841,0-7.69,0-11.53,0c0,0.061,0,0.12,0,0.181c0,0.3,0,0.6,0,0.899c0,0.36,0,0.721,0,1.08
	c0,0.181,0,0.36,0,0.54c0,0.181,0,0.36,0,0.54c0,0.181,0,0.36,0,0.54c0,0.181,0,0.36,0,0.54c0,0.3,0,0.601,0,0.9
	c0,0.359,0,0.72,0,1.08c0,0.18,0,0.359,0,0.54c0,0.18,0,0.359,0,0.54c0,0.359,0,0.72,0,1.08c0,0.3,0,0.6,0,0.899
	c0,0.36,0,0.72,0,1.08c0,0.18,0,0.36,0,0.54s0,0.36,0,0.54c0,0.36,0,0.72,0,1.08c0,0.18,0,0.36,0,0.54s0,0.359,0,0.54
	c0,0.18,0,0.359,0,0.54c0,0.18,0,0.359,0,0.54C23.04,96.3,23.04,97.02,23.04,97.74z"/>
<path fill="#D42C41" d="M23.04,63.54c0,1.92,0,3.84,0,5.76c1.92,0,3.84,0,5.76,0c0-1.92,0-3.84,0-5.76
	C26.88,63.54,24.96,63.54,23.04,63.54z"/>
<path fill="#D42C41" d="M28.8,57.78c0,1.92,0,3.84,0,5.76c3.851,0,7.69,0,11.53,0c1.92,0,3.84,0,5.75,0c0-1.92,0-3.84,0-5.76
	c-1.91,0-3.83,0-5.75,0c0-1.921,0-3.841,0-5.761c-1.92,0-3.84,0-5.76,0c0,1.92,0,3.84,0,5.761c-0.19,0-0.36,0-0.54,0
	c-0.78,0-1.57,0-2.34,0c-0.78,0-1.561,0-2.351,0C29.17,57.78,28.99,57.78,28.8,57.78z"/>
<path fill="#F15A46" d="M28.8,39.42c0,0.36,0,0.72,0,1.08c1.93,0,3.851,0,5.771,0c0,3.84,0,7.68,0,11.52c1.92,0,3.84,0,5.76,0
	c0,1.92,0,3.84,0,5.761c1.92,0,3.84,0,5.75,0c0.55,0,1.09,0,1.63,0c0.48,0,0.96,0,1.44,0c0.96,0,1.92,0,2.88,0c1.92,0,3.84,0,5.76,0
	c0-1.921,0-3.841,0-5.761c-1.92,0-3.84,0-5.76,0c-0.07,0-0.12,0-0.19,0c0-0.18,0-0.359,0-0.54c0-0.899,0-1.8,0-2.699
	c0-0.9,0-1.801,0-2.7c0-0.48,0-0.96,0-1.44c0-0.42,0-0.84,0-1.26c0-0.48,0-0.96,0-1.44c0-0.239,0-0.479,0-0.72s0-0.479,0-0.72
	c0.54,0,1.08,0,1.62,0c0.49,0,0.96,0,1.45,0c0.96,0,1.92,0,2.88,0c0-3.84,0-7.681,0-11.521c3.84,0,7.67,0,11.51,0
	c0-1.92,0-3.84,0-5.76c1.45,0,2.891,0,4.33,0c1.44,0,2.87,0,4.32,0c1.43,0,2.88,0,4.31,0c0.73,0,1.45,0,2.16,0c0.37,0,0.73,0,1.08,0
	c0.19,0,0.37,0,0.54,0c0.189,0,0.37,0,0.54,0c0,1.92,0,3.84,0,5.76c1.92,0,3.84,0,5.76,0c0,3.84,0,7.681,0,11.521
	c3.851,0,7.69,0,11.53,0c0,1.92,0,3.84,0,5.76c3.84,0,7.67,0,11.51,0c0,1.92,0,3.84,0,5.76c1.92,0,3.85,0,5.771,0
	c0,3.84,0,7.681,0,11.521c-3.851,0-7.69,0-11.521,0c0,1.92,0,3.84,0,5.76c0,7.74,0,15.48,0,23.22c3.83,0,7.67,0,11.521,0
	c0,3.84,0,7.681,0,11.521c-1.921,0-3.851,0-5.771,0c0,3.84,0,7.68,0,11.52c-1.92,0-3.84,0-5.75,0c0-1.92,0-3.84,0-5.76
	c-3.84,0-7.68,0-11.52,0c0,3.84,0,7.68,0,11.52c-1.92,0-3.851,0-5.771,0c0,1.921,0,3.841,0,5.761c1.92,0,3.851,0,5.771,0
	c0,3.84,0,7.68,0,11.52c1.92,0,3.84,0,5.76,0c0,1.92,0,3.84,0,5.76c3.84,0,7.67,0,11.51,0c0-3.84,0-7.68,0-11.52
	c1.92,0,3.85,0,5.771,0c0-1.92,0-3.84,0-5.76c3.89,0,7.8,0,11.689,0c0-3.84,0-7.681,0-11.521c1.92,0,3.851,0,5.771,0
	c0-3.84,0-7.68,0-11.52c1.92,0,3.84,0,5.76,0c0-3.84,0-7.681,0-11.521c1.92,0,3.84,0,5.76,0c0-3.899,0-7.8,0-11.7
	c1.91,0,3.83,0,5.75,0c0-7.68,0-15.359,0-23.039c-1.92,0-3.84,0-5.75,0c0-3.841,0-7.681,0-11.521c-1.92,0-3.84,0-5.76,0
	c0-1.92,0-3.84,0-5.76c-1.92,0-3.84,0-5.76,0c0-1.92,0-3.84,0-5.76c-1.92,0-3.851,0-5.771,0c0,1.92,0,3.84,0,5.76
	c-7.729,0-15.47,0-23.21,0c0-1.92,0-3.84,0-5.76c-3.84,0-7.68,0-11.52,0c0-3.841,0-7.681,0-11.521c-1.92,0-3.851,0-5.771,0
	c0-1.92,0-3.84,0-5.76c-3.84,0-7.67,0-11.51,0c0-1.92,0-3.84,0-5.76c-0.18,0-0.37,0-0.54,0c-0.12,0-0.25,0-0.37,0
	c-0.17,0-0.35,0-0.54,0c-0.35,0-0.71,0-1.08,0c-0.109,0-0.229,0-0.35,0c-0.19,0-0.37,0-0.54,0c-0.37,0-0.72,0-1.08,0
	c-1.38,0-2.76,0-4.14,0c-0.66,0-1.32,0-1.98,0c-0.13,0-0.25,0-0.37,0c-0.17,0-0.35,0-0.54,0c-0.35,0-0.72,0-1.07,0
	c-1.39,0-2.77,0-4.149,0c-0.17,0-0.351,0-0.54,0c0,1.92,0,3.84,0,5.76c-0.59,0-1.2,0-1.79,0c-0.12,0-0.25,0-0.37,0
	c-0.17,0-0.35,0-0.54,0c-0.11,0-0.229,0-0.35,0c-0.19,0-0.36,0-0.54,0c-0.61,0-1.2,0-1.8,0c-0.12,0-0.24,0-0.36,0
	c-0.18,0-0.37,0-0.54,0c-0.12,0-0.25,0-0.37,0c-0.17,0-0.35,0-0.54,0c-0.59,0-1.189,0-1.8,0c-0.12,0-0.24,0-0.35,0
	c-0.19,0-0.36,0-0.54,0c-0.12,0-0.24,0-0.36,0c-0.18,0-0.37,0-0.54,0c-0.6,0-1.21,0-1.8,0c-0.12,0-0.24,0-0.37,0
	c-0.17,0-0.351,0-0.54,0c-0.12,0-0.24,0-0.35,0c-0.19,0-0.36,0-0.54,0c-0.61,0-1.2,0-1.811,0c-0.11,0-0.229,0-0.35,0
	c-0.19,0-0.36,0-0.54,0c-0.12,0-0.24,0-0.37,0c-0.17,0-0.351,0-0.54,0c-0.59,0-1.2,0-1.79,0c-0.12,0-0.25,0-0.37,0
	c-0.17,0-0.35,0-0.54,0c-0.11,0-0.229,0-0.35,0c-0.19,0-0.36,0-0.54,0c-2.46,0-4.92,0-7.38,0c0,1.92,0,3.84,0,5.76
	c-1.92,0-3.841,0-5.771,0c0,0.36,0,0.72,0,1.08s0,0.72,0,1.08s0,0.72,0,1.08c0,0.359,0,0.72,0,1.08c0,0.359,0,0.72,0,1.08
	c0,0.359,0,0.72,0,1.08c0,0.359,0,0.72,0,1.08c0,0.359,0,0.72,0,1.079c0,0.36,0,0.721,0,1.08c0,0.36,0,0.721,0,1.08
	c0,0.36,0,0.721,0,1.08c0,0.36,0,0.72,0,1.08s0,0.72,0,1.08s0,0.72,0,1.08c0,0.18,0,0.36,0,0.54S28.8,39.24,28.8,39.42z"/>
<path fill="#232034" d="M34.57,96.12c0,0.72,0,1.439,0,2.16c1.92,0,3.84,0,5.76,0c0-1.921,0-3.841,0-5.761s0-3.84,0-5.76
	c0-0.54,0-1.08,0-1.62c0-0.479,0-0.96,0-1.439c0-0.96,0-1.92,0-2.881c0-1.92,0-3.84,0-5.76c-1.92,0-3.84,0-5.76,0
	c0,1.92,0,3.84,0,5.76c0,0.78,0,1.561,0,2.341c0,0.359,0,0.72,0,1.08c0,0.18,0,0.359,0,0.54c0,0.18,0,0.359,0,0.539
	c0,0.36,0,0.721,0,1.08c0,0.181,0,0.36,0,0.54c0,0.181,0,0.36,0,0.54c0,0.36,0,0.721,0,1.08c0,0.181,0,0.36,0,0.54
	c0,0.181,0,0.36,0,0.54c0,0.36,0,0.72,0,1.08c0,0.18,0,0.36,0,0.54s0,0.36,0,0.54c0,0.36,0,0.72,0,1.08c0,0.18,0,0.36,0,0.54
	s0,0.36,0,0.54c0,0.359,0,0.72,0,1.08c0,0.18,0,0.359,0,0.54C34.57,95.76,34.57,95.939,34.57,96.12z"/>
<path fill="#232034" d="M40.33,98.28c0,1.92,0,3.84,0,5.76c1.92,0,3.84,0,5.75,0c0-1.92,0-3.84,0-5.76
	C44.17,98.28,42.25,98.28,40.33,98.28z"/>
<path fill="#AAAAAB" d="M40.33,92.52c0,1.92,0,3.84,0,5.761c1.92,0,3.84,0,5.75,0c1.92,0,3.84,0,5.76,0c0-1.921,0-3.841,0-5.761
	c-1.92,0-3.84,0-5.76,0C44.17,92.52,42.25,92.52,40.33,92.52z"/>
<path fill="#F15A46" d="M40.33,86.76c0,1.92,0,3.84,0,5.76c1.92,0,3.84,0,5.75,0c0-1.92,0-3.84,0-5.76
	C44.17,86.76,42.25,86.76,40.33,86.76z"/>
<path fill="#010101" d="M40.33,85.14c0,0.54,0,1.08,0,1.62c1.92,0,3.84,0,5.75,0c0,1.92,0,3.84,0,5.76c1.92,0,3.84,0,5.76,0
	c0-3.899,0-7.8,0-11.7c-1.92,0-3.84,0-5.76,0c-1.91,0-3.83,0-5.75,0c0,0.961,0,1.921,0,2.881C40.33,84.18,40.33,84.66,40.33,85.14z"
	/>
<path fill="#7B7B7B" d="M40.33,75.06c0,1.92,0,3.84,0,5.76c1.92,0,3.84,0,5.75,0c0-1.92,0-3.84,0-5.76
	C44.17,75.06,42.25,75.06,40.33,75.06z"/>
<path fill="#232034" d="M40.33,63.54c0,3.84,0,7.68,0,11.52c1.92,0,3.84,0,5.75,0c0-1.92,0-3.84,0-5.76s0-3.84,0-5.76
	C44.17,63.54,42.25,63.54,40.33,63.54z"/>
<path fill="#232034" d="M46.08,109.8c0,3.84,0,7.68,0,11.52c1.92,0,3.84,0,5.76,0c0-1.92,0-3.84,0-5.76s0-3.84,0-5.76
	C49.92,109.8,48,109.8,46.08,109.8z"/>
<path fill="#010101" d="M46.08,98.28c0,1.92,0,3.84,0,5.76c1.92,0,3.84,0,5.76,0c0-1.92,0-3.84,0-5.76
	C49.92,98.28,48,98.28,46.08,98.28z"/>
<path fill="#AAAAAB" d="M46.08,75.06c0,1.92,0,3.84,0,5.76c1.92,0,3.84,0,5.76,0c0,3.9,0,7.801,0,11.7c0.54,0,1.08,0,1.62,0
	c0.49,0,0.96,0,1.45,0c0.96,0,1.92,0,2.88,0c0,1.92,0,3.84,0,5.761c1.92,0,3.84,0,5.75,0c0,1.92,0,3.84,0,5.76c1.92,0,3.84,0,5.76,0
	c0-1.92,0-3.84,0-5.76c1.93,0,3.851,0,5.771,0c0,1.92,0,3.84,0,5.76c1.92,0,3.84,0,5.76,0c0-5.76,0-11.521,0-17.28
	c-1.92,0-3.84,0-5.76,0c0,1.92,0,3.84,0,5.76c-1.92,0-3.841,0-5.771,0c-1.92,0-3.84,0-5.76,0c0-1.92,0-3.84,0-5.76
	c-1.91,0-3.83,0-5.75,0c0-0.96,0-1.92,0-2.88c0-0.48,0-0.96,0-1.44c0-0.239,0-0.479,0-0.72c0-0.12,0-0.24,0-0.36
	c0-0.18,0-0.359,0-0.54c1.92,0,3.84,0,5.75,0c0.72,0,1.45,0,2.17,0c0.36,0,0.71,0,1.08,0c0.17,0,0.36,0,0.54,0c0.17,0,0.36,0,0.54,0
	c0.71,0,1.43,0,2.16,0c0.35,0,0.72,0,1.08,0c0.18,0,0.35,0,0.54,0c0.18,0,0.35,0,0.54,0c1.439,0,2.88,0,4.31,0c1.45,0,2.88,0,4.33,0
	c0,0.54,0,1.08,0,1.62c0,0.48,0,0.96,0,1.44c0,0.96,0,1.92,0,2.88c1.92,0,3.84,0,5.75,0c0-1.92,0-3.84,0-5.76
	c0-0.061,0-0.12,0-0.181c3.84,0,7.68,0,11.53,0c0-1.92,0-3.84,0-5.76c-1.92,0-3.851,0-5.771,0c0-3.84,0-7.68,0-11.52
	c-1.92,0-3.84,0-5.76,0c0-1.92,0-3.84,0-5.76c-7.67,0-15.351,0-23.04,0c0,1.92,0,3.84,0,5.76c-1.91,0-3.83,0-5.75,0
	c-0.54,0-1.08,0-1.62,0c-0.479,0-0.96,0-1.44,0c-0.97,0-1.93,0-2.89,0c0,1.92,0,3.84,0,5.76c-1.92,0-3.84,0-5.76,0
	C46.08,71.22,46.08,73.14,46.08,75.06z"/>
<path fill="#7B7B7B" d="M46.08,63.54c0,1.92,0,3.84,0,5.76c1.92,0,3.84,0,5.76,0c0-1.92,0-3.84,0-5.76
	C49.92,63.54,48,63.54,46.08,63.54z"/>
<path fill="#232034" d="M46.08,57.78c0,1.92,0,3.84,0,5.76c1.92,0,3.84,0,5.76,0c0.96,0,1.92,0,2.89,0c0.48,0,0.961,0,1.44,0
	c0.54,0,1.08,0,1.62,0c0-1.92,0-3.84,0-5.76c-1.92,0-3.84,0-5.76,0c-0.96,0-1.92,0-2.88,0c-0.48,0-0.96,0-1.44,0
	C47.17,57.78,46.63,57.78,46.08,57.78z"/>
<path fill="#232034" d="M51.84,121.319c0,1.921,0,3.841,0,5.761c0.96,0,1.92,0,2.89,0c0.48,0,0.961,0,1.44,0c0.54,0,1.08,0,1.62,0
	c0-1.92,0-3.84,0-5.761c-0.96,0-1.92,0-2.88,0c-0.49,0-0.96,0-1.45,0C52.92,121.319,52.38,121.319,51.84,121.319z"/>
<path fill="#AAAAAB" d="M51.84,115.56c0,1.92,0,3.84,0,5.76c0.54,0,1.08,0,1.62,0c0.49,0,0.96,0,1.45,0c0.96,0,1.92,0,2.88,0
	c0-1.92,0-3.84,0-5.76c-0.061,0-0.12,0-0.18,0C55.69,115.56,53.76,115.56,51.84,115.56z"/>
<path fill="#010101" d="M51.84,109.8c0,1.92,0,3.84,0,5.76c1.92,0,3.851,0,5.771,0c0.06,0,0.119,0,0.18,0c0,1.92,0,3.84,0,5.76
	c2.88,0,5.75,0,8.63,0s5.771,0,8.65,0c0-1.92,0-3.84,0-5.76c3.84,0,7.68,0,11.51,0c0-1.92,0-3.84,0-5.76c-1.91,0-3.83,0-5.75,0
	c0-1.92,0-3.84,0-5.76c-1.92,0-3.84,0-5.76,0c0-1.92,0-3.84,0-5.76c-1.92,0-3.841,0-5.771,0c0,1.92,0,3.84,0,5.76
	c-1.92,0-3.84,0-5.76,0c0-1.92,0-3.84,0-5.76c-1.91,0-3.83,0-5.75,0c0,1.92,0,3.84,0,5.76s0,3.84,0,5.76c-0.54,0-1.08,0-1.62,0
	c-0.479,0-0.96,0-1.44,0C53.76,109.8,52.8,109.8,51.84,109.8z"/>
<path fill="#232034" d="M51.84,104.04c0,1.92,0,3.84,0,5.76c0.96,0,1.92,0,2.89,0c0.48,0,0.961,0,1.44,0c0.54,0,1.08,0,1.62,0
	c0-1.92,0-3.84,0-5.76c-0.96,0-1.92,0-2.88,0c-0.49,0-0.96,0-1.45,0C52.92,104.04,52.38,104.04,51.84,104.04z"/>
<path fill="#AAAAAB" d="M51.84,98.28c0,1.92,0,3.84,0,5.76c0.54,0,1.08,0,1.62,0c0.49,0,0.96,0,1.45,0c0.96,0,1.92,0,2.88,0
	c0-1.92,0-3.84,0-5.76c-0.96,0-1.92,0-2.88,0c-0.49,0-0.96,0-1.45,0C52.92,98.28,52.38,98.28,51.84,98.28z"/>
<path fill="#010101" d="M51.84,92.52c0,1.92,0,3.84,0,5.761c0.54,0,1.08,0,1.62,0c0.49,0,0.96,0,1.45,0c0.96,0,1.92,0,2.88,0
	c0-1.921,0-3.841,0-5.761c-0.96,0-1.92,0-2.88,0c-0.49,0-0.96,0-1.45,0C52.92,92.52,52.38,92.52,51.84,92.52z"/>
<path fill="#F79C7F" d="M51.84,51.479c0,0.181,0,0.36,0,0.54c0.07,0,0.12,0,0.19,0c1.92,0,3.84,0,5.76,0s3.84,0,5.75,0
	c0-1.439,0-2.88,0-4.319c0-1.44,0-2.881,0-4.32c0-1.44,0-2.88,0-4.32c0-0.72,0-1.439,0-2.16c0-0.359,0-0.72,0-1.08
	c0-0.3,0-0.6,0-0.899c0-0.061,0-0.12,0-0.18c7.689,0,15.37,0,23.04,0c0,1.92,0,3.84,0,5.76c1.92,0,3.84,0,5.76,0
	c0-3.84,0-7.681,0-11.521c-1.92,0-3.84,0-5.76,0c0-1.92,0-3.84,0-5.76c-0.17,0-0.351,0-0.54,0c-0.17,0-0.35,0-0.54,0
	c-0.35,0-0.71,0-1.08,0c-0.71,0-1.43,0-2.16,0c-1.43,0-2.88,0-4.31,0c-1.45,0-2.88,0-4.32,0c-1.439,0-2.88,0-4.33,0
	c0,1.92,0,3.84,0,5.76c-3.84,0-7.67,0-11.51,0c0,3.84,0,7.681,0,11.521c-0.96,0-1.92,0-2.88,0c-0.49,0-0.96,0-1.45,0
	c-0.54,0-1.08,0-1.62,0c0,0.24,0,0.479,0,0.72s0,0.48,0,0.72c0,0.48,0,0.96,0,1.44c0,0.42,0,0.84,0,1.26c0,0.48,0,0.96,0,1.44
	c0,0.899,0,1.8,0,2.7C51.84,49.68,51.84,50.58,51.84,51.479z"/>
<path fill="#232034" d="M57.79,127.08c0,1.92,0,3.84,0,5.76c3.84,0,7.67,0,11.51,0c3.851,0,7.69,0,11.53,0c0-1.92,0-3.84,0-5.76
	C73.15,127.08,65.46,127.08,57.79,127.08z"/>
<path fill="#AAAAAB" d="M57.79,121.319c0,1.921,0,3.841,0,5.761c7.67,0,15.36,0,23.04,0c0-1.92,0-3.84,0-5.761c1.92,0,3.84,0,5.75,0
	c0-1.92,0-3.84,0-5.76c-3.83,0-7.67,0-11.51,0c0,1.92,0,3.84,0,5.76c-2.88,0-5.771,0-8.65,0S60.67,121.319,57.79,121.319z"/>
<path fill="#7B7B7B" d="M57.79,83.88c0,0.96,0,1.92,0,2.88c1.92,0,3.84,0,5.75,0c0-0.96,0-1.92,0-2.88c0-0.48,0-0.96,0-1.44
	c0-0.239,0-0.479,0-0.72s0-0.479,0-0.72c0-0.061,0-0.12,0-0.181c-1.91,0-3.83,0-5.75,0c0,0.181,0,0.36,0,0.54c0,0.12,0,0.24,0,0.36
	c0,0.24,0,0.48,0,0.72C57.79,82.92,57.79,83.399,57.79,83.88z"/>
<path fill="#7B7B7B" d="M57.79,57.78c0,1.92,0,3.84,0,5.76c1.92,0,3.84,0,5.75,0c0-1.92,0-3.84,0-5.76
	C61.63,57.78,59.71,57.78,57.79,57.78z"/>
<path fill="#232034" d="M57.79,52.02c0,1.92,0,3.84,0,5.761c1.92,0,3.84,0,5.75,0c7.689,0,15.37,0,23.04,0c1.92,0,3.84,0,5.76,0
	c0-1.921,0-3.841,0-5.761c-9.54,0-19.08,0-28.61,0c-0.06,0-0.119,0-0.189,0C61.63,52.02,59.71,52.02,57.79,52.02z"/>
<path fill="#F15A46" d="M63.54,86.76c0,1.92,0,3.84,0,5.76c1.92,0,3.84,0,5.76,0c0-1.92,0-3.84,0-5.76
	C67.38,86.76,65.46,86.76,63.54,86.76z"/>
<path fill="#010101" d="M63.54,83.88c0,0.96,0,1.92,0,2.88c1.92,0,3.84,0,5.76,0c0,1.92,0,3.84,0,5.76c1.93,0,3.851,0,5.771,0
	c0-1.92,0-3.84,0-5.76c1.92,0,3.84,0,5.76,0c0-0.96,0-1.92,0-2.88c0-0.48,0-0.96,0-1.44c0-0.54,0-1.08,0-1.62c-1.45,0-2.88,0-4.33,0
	c-1.43,0-2.87,0-4.31,0c-0.19,0-0.36,0-0.54,0c-0.19,0-0.36,0-0.54,0c-0.36,0-0.73,0-1.08,0c-0.73,0-1.45,0-2.16,0
	c-0.18,0-0.37,0-0.54,0c-0.18,0-0.37,0-0.54,0c-0.37,0-0.72,0-1.08,0c-0.72,0-1.45,0-2.17,0c0,0.061,0,0.12,0,0.181
	c0,0.24,0,0.479,0,0.72s0,0.48,0,0.72C63.54,82.92,63.54,83.399,63.54,83.88z"/>
<path fill="#FFFFFF" d="M63.54,47.7c0,1.439,0,2.88,0,4.319c0.07,0,0.13,0,0.189,0c9.53,0,19.07,0,28.61,0c0-3.84,0-7.68,0-11.52
	c-1.92,0-3.84,0-5.76,0c0-1.92,0-3.84,0-5.76c-7.67,0-15.351,0-23.04,0c0,0.06,0,0.119,0,0.18c0,0.3,0,0.6,0,0.899
	c0,0.36,0,0.721,0,1.08c0,0.721,0,1.44,0,2.16c0,1.44,0,2.88,0,4.32C63.54,44.819,63.54,46.26,63.54,47.7z"/>
<path fill="#232034" d="M80.83,121.319c0,1.921,0,3.841,0,5.761c3.84,0,7.67,0,11.51,0c0-1.92,0-3.84,0-5.761c-1.92,0-3.84,0-5.76,0
	C84.67,121.319,82.75,121.319,80.83,121.319z"/>
<path fill="#AAAAAB" d="M80.83,104.04c0,1.92,0,3.84,0,5.76c1.92,0,3.84,0,5.75,0c0-1.92,0-3.84,0-5.76
	C84.67,104.04,82.75,104.04,80.83,104.04z"/>
<path fill="#7B7B7B" d="M80.83,86.76c0,5.76,0,11.521,0,17.28c1.92,0,3.84,0,5.75,0c0-1.92,0-3.84,0-5.76c1.92,0,3.84,0,5.76,0
	c0-1.921,0-3.841,0-5.761c1.92,0,3.851,0,5.771,0c0-1.92,0-3.84,0-5.76c1.92,0,3.84,0,5.76,0c0-5.82,0-11.64,0-17.46
	c-1.92,0-3.84,0-5.76,0c0-1.92,0-3.84,0-5.76c-1.92,0-3.851,0-5.771,0c0,3.84,0,7.68,0,11.52c1.92,0,3.851,0,5.771,0
	c0,1.92,0,3.84,0,5.76c-3.851,0-7.69,0-11.53,0c0,0.061,0,0.12,0,0.181c0,1.92,0,3.84,0,5.76C84.67,86.76,82.75,86.76,80.83,86.76z"
	/>
<path fill="#7B7B7B" d="M86.58,115.56c0,1.92,0,3.84,0,5.76c1.92,0,3.84,0,5.76,0c0-1.92,0-3.84,0-5.76
	C90.42,115.56,88.5,115.56,86.58,115.56z"/>
<path fill="#AAAAAB" d="M86.58,109.8c0,1.92,0,3.84,0,5.76c1.92,0,3.84,0,5.76,0c0-1.92,0-3.84,0-5.76
	C90.42,109.8,88.5,109.8,86.58,109.8z"/>
<path fill="#232034" d="M86.58,104.04c0,1.92,0,3.84,0,5.76c1.92,0,3.84,0,5.76,0c0-1.92,0-3.84,0-5.76c1.92,0,3.851,0,5.771,0
	c0-1.92,0-3.84,0-5.76c1.92,0,3.84,0,5.76,0c0-1.921,0-3.841,0-5.761c1.92,0,3.84,0,5.76,0c0-7.739,0-15.479,0-23.22
	c-1.92,0-3.84,0-5.76,0c0,5.82,0,11.64,0,17.46c-1.92,0-3.84,0-5.76,0c0,1.92,0,3.84,0,5.76c-1.92,0-3.851,0-5.771,0
	c0,1.92,0,3.84,0,5.761c-1.92,0-3.84,0-5.76,0C86.58,100.2,86.58,102.12,86.58,104.04z"/>
<path fill="#7B7B7B" d="M86.58,57.78c0,1.92,0,3.84,0,5.76c1.92,0,3.84,0,5.76,0c0-1.92,0-3.84,0-5.76
	C90.42,57.78,88.5,57.78,86.58,57.78z"/>
<path fill="#232034" d="M92.34,115.56c0,1.92,0,3.84,0,5.76c1.92,0,3.851,0,5.771,0c0-3.84,0-7.68,0-11.52c-1.92,0-3.851,0-5.771,0
	C92.34,111.72,92.34,113.64,92.34,115.56z"/>
<path fill="#F15A46" d="M92.34,104.04c0,1.92,0,3.84,0,5.76c1.92,0,3.851,0,5.771,0c0-1.92,0-3.84,0-5.76
	C96.19,104.04,94.26,104.04,92.34,104.04z"/>
<path fill="#232034" d="M92.34,57.78c0,1.92,0,3.84,0,5.76c1.92,0,3.851,0,5.771,0c0-1.92,0-3.84,0-5.76
	C96.19,57.78,94.26,57.78,92.34,57.78z"/>
<path fill="#FFFFFF" d="M92.34,52.02c0,1.92,0,3.84,0,5.761c1.92,0,3.851,0,5.771,0c0-1.921,0-3.841,0-5.761
	C96.19,52.02,94.26,52.02,92.34,52.02z"/>
<path fill="#F79C7F" d="M92.34,40.5c0,3.84,0,7.68,0,11.52c1.92,0,3.851,0,5.771,0c0,1.92,0,3.84,0,5.761c1.92,0,3.84,0,5.76,0
	c0,1.92,0,3.84,0,5.76s0,3.84,0,5.76c1.92,0,3.84,0,5.76,0c0-1.92,0-3.84,0-5.76c3.83,0,7.67,0,11.521,0c0-3.84,0-7.681,0-11.521
	c-1.921,0-3.851,0-5.771,0c0-1.92,0-3.84,0-5.76c-3.84,0-7.67,0-11.51,0c0-1.92,0-3.84,0-5.76C100.03,40.5,96.19,40.5,92.34,40.5z"
	/>
<path fill="#F79C7F" d="M98.11,104.04c0,1.92,0,3.84,0,5.76c3.84,0,7.68,0,11.52,0c0,1.92,0,3.84,0,5.76c1.91,0,3.83,0,5.75,0
	c0-3.84,0-7.68,0-11.52c1.92,0,3.85,0,5.771,0c0-3.84,0-7.681,0-11.521c-3.851,0-7.69,0-11.521,0c-1.92,0-3.84,0-5.76,0
	c0,1.92,0,3.84,0,5.761c-1.92,0-3.84,0-5.76,0C98.11,100.2,98.11,102.12,98.11,104.04z"/>
<path fill="#232034" d="M98.11,63.54c0,1.92,0,3.84,0,5.76c1.92,0,3.84,0,5.76,0c0-1.92,0-3.84,0-5.76
	C101.95,63.54,100.03,63.54,98.11,63.54z"/>
<path fill="#FFFFFF" d="M98.11,57.78c0,1.92,0,3.84,0,5.76c1.92,0,3.84,0,5.76,0c0-1.92,0-3.84,0-5.76
	C101.95,57.78,100.03,57.78,98.11,57.78z"/>
</svg>
