<?xml version="1.0" encoding="utf-8"?>
<!-- Generator: Adobe Illustrator 15.0.0, SVG Export Plug-In  -->
<!DOCTYPE svg PUBLIC "-//W3C//DTD SVG 1.1//EN" "http://www.w3.org/Graphics/SVG/1.1/DTD/svg11.dtd" [
	<!ENTITY ns_flows "http://ns.adobe.com/Flows/1.0/">
]>
<svg version="1.1"
	 xmlns="http://www.w3.org/2000/svg" xmlns:xlink="http://www.w3.org/1999/xlink" xmlns:a="http://ns.adobe.com/AdobeSVGViewerExtensions/3.0/"
	 x="0px" y="0px" width="200px" height="200px" viewBox="-21.85 -19.03 200 200" enable-background="new -21.85 -19.03 200 200"
	 xml:space="preserve">
<defs>
</defs>
<path fill="#D42C41" d="M0,80.82C0,84.66,0,88.5,0,92.34c1.92,0,3.83,0,5.76,0c0,0.18,0,0.36,0,0.54c0,1.8,0,3.6,0,5.4
	c0,1.859,0,3.719,0,5.58c1.921,0,3.841,0,5.761,0c0,0.119,0,0.239,0,0.359s0,0.24,0,0.359c0,0.181,0,0.361,0,0.541
	c0,0.359,0,0.72,0,1.08c0,0.72,0,1.439,0,2.16c0,0.119,0,0.239,0,0.359c0,0.18,0,0.359,0,0.54c0,0.36,0,0.72,0,1.08
	c0,0.72,0,1.44,0,2.159c0,0.121,0,0.24,0,0.361c0,0.18,0,0.359,0,0.539c0,0.36,0,0.721,0,1.08c0,0.721,0,1.44,0,2.16
	c0,0.18,0,0.359,0,0.54s0,0.36,0,0.54c0,0.359,0,0.721,0,1.08c0,0.18,0,0.359,0,0.54c0,0.18,0,0.36,0,0.54s0,0.359,0,0.54
	c0,0.239,0,0.479,0,0.72c-0.19,0-0.36,0-0.54,0c-1.561,0-3.13,0-4.689,0c-0.17,0-0.351,0-0.531,0c0,3.84,0,7.68,0,11.52
	c1.921,0,3.841,0,5.761,0c0,1.92,0,3.84,0,5.761c1.92,0,3.83,0,5.75,0c0,0.18,0,0.36,0,0.54c0,1.619,0,3.24,0,4.859
	c0,0.18,0,0.36,0,0.541c1.989,0,3.97,0,5.95,0c0,1.92,0,3.84,0,5.76c4.68,0,9.359,0,14.039,0c1.141,0,2.281,0,3.421,0
	c0.11,0,0.239,0,0.36,0c0.18,0,0.359,0,0.539,0c0.121,0,0.23,0,0.36,0c0.181,0,0.351,0,0.54,0c0.12,0,0.24,0,0.35,0
	c0.19,0,0.371,0,0.551,0c0.119,0,0.24,0,0.359,0c0.18,0,0.36,0,0.53,0c0.61,0,1.21,0,1.81,0c0.121,0,0.23,0,0.36,0
	c0.181,0,0.351,0,0.54,0c0.12,0,0.24,0,0.35,0c0.19,0,0.371,0,0.551,0c0.6,0,1.199,0,1.8,0c0.11,0,0.239,0,0.36,0
	c0.18,0,0.359,0,0.539,0c0.121,0,0.23,0,0.36,0c0.181,0,0.351,0,0.54,0c0.18,0,0.35,0,0.54,0c0,1.92,0,3.84,0,5.76
	c3.83,0,7.681,0,11.521,0c0,0.18,0,0.359,0,0.54c0,0.36,0,0.72,0,1.079c0,0.181,0,0.361,0,0.541c0,0.24,0,0.479,0,0.72
	c0,0.36,0,0.72,0,1.08c0,0.42,0,0.84,0,1.26c0,0.181,0,0.36,0,0.54c7.68,0,15.359,0,23.039,0c0-1.92,0-3.84,0-5.76
	c0.18,0,0.36,0,0.54,0c1.62,0,3.23,0,4.86,0c0.18,0,0.35,0,0.54,0c0-1.92,0-3.84,0-5.76c0.12,0,0.239,0,0.359,0
	c1.38,0,2.761,0,4.141,0c1.439,0,2.88,0,4.31,0c1.391,0,2.771,0,4.15,0c1.439,0,2.87,0,4.31,0c0-1.92,0-3.84,0-5.76
	c1.931,0,3.851,0,5.771,0c0-0.961,0-1.92,0-2.881c0-0.48,0-0.96,0-1.439c0-0.541,0-1.08,0-1.62c1.92,0,3.84,0,5.75,0
	c0-1.921,0-3.841,0-5.761c0.189,0,0.37,0,0.54,0c0.37,0,0.729,0,1.09,0c0.41,0,0.83,0,1.26,0c0.36,0,0.72,0,1.07,0
	c0.43,0,0.85,0,1.27,0c0.181,0,0.36,0,0.54,0c0-1.92,0-3.84,0-5.76c0.18,0,0.36,0,0.54,0c3.66,0,7.32,0,10.98,0
	c0-1.92,0-3.84,0-5.76c-0.25,0-0.48,0-0.721,0c-0.18,0-0.359,0-0.55,0c-0.17,0-0.35,0-0.54,0c-0.17,0-0.35,0-0.53,0
	c-0.359,0-0.72,0-1.079,0c-0.181,0-0.37,0-0.54,0c-0.181,0-0.37,0-0.54,0c-1.44,0-2.88,0-4.33,0c-0.351,0-0.71,0-1.07,0
	c-0.18,0-0.37,0-0.54,0c-0.18,0-0.37,0-0.54,0c-0.36,0-0.72,0-1.08,0c-0.189,0-0.359,0-0.54,0c-0.189,0-0.359,0-0.54,0
	c-0.72,0-1.439,0-2.17,0c-0.649,0-1.31,0-1.979,0c0,1.92,0,3.84,0,5.76c-1.91,0-3.83,0-5.75,0c0,1.92,0,3.84,0,5.76
	c-3.84,0-7.681,0-11.521,0c0,1.92,0,3.84,0,5.761c-3.84,0-7.689,0-11.52,0c0,0.96,0,1.92,0,2.88c0,0.48,0,0.96,0,1.439
	c0,0.24,0,0.48,0,0.721c0,0.119,0,0.24,0,0.359c0,0.18,0,0.36,0,0.541c-0.19,0-0.36,0-0.54,0c-2.76,0-5.521,0-8.28,0
	c-1.39,0-2.76,0-4.14,0c-0.36,0-0.73,0-1.08,0c-0.19,0-0.36,0-0.54,0c-0.13,0-0.24,0-0.36,0c-0.36,0-0.73,0-1.081,0
	c-0.189,0-0.359,0-0.539,0c-0.131,0-0.24,0-0.36,0c-0.181,0-0.36,0-0.54,0c0,1.92,0,3.84,0,5.76c-0.18,0-0.359,0-0.54,0
	c-1.38,0-2.761,0-4.14,0c-0.36,0-0.721,0-1.09,0c-0.17,0-0.351,0-0.531,0c-0.119,0-0.239,0-0.359,0c-0.359,0-0.72,0-1.09,0
	c-0.17,0-0.35,0-0.54,0c-0.11,0-0.229,0-0.351,0c-1.379,0-2.76,0-4.149,0c-0.351,0-0.71,0-1.069,0c-0.181,0-0.371,0-0.541,0
	c-0.119,0-0.24,0-0.369,0c-0.351,0-0.711,0-1.07,0c-0.18,0-0.37,0-0.54,0c-0.12,0-0.24,0-0.37,0c-0.17,0-0.35,0-0.54,0
	c0-1.92,0-3.84,0-5.76c-1.92,0-3.83,0-5.75,0c0-0.541,0-1.08,0-1.621c0-0.479,0-0.959,0-1.439s0-0.96,0-1.439c0-0.48,0-0.961,0-1.44
	c-0.19,0-0.36,0-0.54,0c-0.189,0-0.359,0-0.54,0c-0.13,0-0.239,0-0.36,0c-0.18,0-0.359,0-0.539,0c-0.121,0-0.25,0-0.36,0
	c-0.601,0-1.2,0-1.8,0c-0.18,0-0.36,0-0.551,0c-0.109,0-0.229,0-0.35,0c-0.189,0-0.359,0-0.54,0c-0.13,0-0.239,0-0.36,0
	c-0.6,0-1.199,0-1.81,0c-0.17,0-0.351,0-0.53,0c-0.119,0-0.24,0-0.359,0c-0.18,0-0.36,0-0.551,0c-0.109,0-0.229,0-0.35,0
	c-0.189,0-0.359,0-0.54,0c-0.13,0-0.239,0-0.36,0c-0.18,0-0.359,0-0.539,0c-0.121,0-0.25,0-0.36,0c-0.3,0-0.601,0-0.91,0
	c-0.29,0-0.59,0-0.89,0c-0.551,0-1.09,0-1.621,0c-0.299,0-0.6,0-0.909,0c-0.29,0-0.601,0-0.89,0c-0.61,0-1.201,0-1.801,0
	c-0.31,0-0.6,0-0.9,0c-0.299,0-0.6,0-0.909,0c-0.54,0-1.08,0-1.61,0c-0.3,0-0.6,0-0.91,0c-0.289,0-0.6,0-0.89,0c-0.61,0-1.2,0-1.8,0
	c-0.311,0-0.6,0-0.9,0c-0.3,0-0.6,0-0.91,0c-0.539,0-1.07,0-1.609,0c0-1.921,0-3.841,0-5.761c-1.98,0-3.961,0-5.95,0
	c0-15.359,0-30.719,0-46.08c-1.92,0-3.83,0-5.75,0c0-3.84,0-7.679,0-11.52c0-1.92,0-3.84,0-5.76c0-0.96,0-1.92,0-2.88
	c0-0.48,0-0.96,0-1.44c0-0.24,0-0.48,0-0.72c0-0.24,0-0.48,0-0.72c0-0.06,0-0.12,0-0.18c1.92,0,3.83,0,5.75,0
	c0-2.88,0.01-5.76,0-8.64c0-2.88,0-5.76,0-8.64c0.54,0,1.08,0,1.63,0c0.48,0,0.95,0,1.43,0c0.961,0,1.93,0,2.891,0
	c0-0.72,0-1.44,0-2.16c0-0.36,0-0.72,0-1.08c0-0.18,0-0.36,0-0.54c0-0.18,0-0.36,0-0.54c0-0.36,0-0.72,0-1.08c0-0.18,0-0.36,0-0.54
	c0-0.18,0-0.36,0-0.54c0-0.36,0-0.72,0-1.08c0-0.18,0-0.36,0-0.54c0-0.18,0-0.36,0-0.54c0-0.36,0-0.72,0-1.08c0-0.18,0-0.36,0-0.54
	c0-0.18,0-0.36,0-0.54c0-0.36,0-0.72,0-1.08c0-0.18,0-0.36,0-0.54s0-0.36,0-0.54c0-0.36,0-0.72,0-1.08c0-0.18,0-0.36,0-0.54
	c0-0.18,0-0.36,0-0.54c0-0.36,0-0.72,0-1.08c0-0.18,0-0.36,0-0.54c0-0.18,0-0.36,0-0.54c-0.961,0-1.93,0-2.891,0
	c-0.479,0-0.949,0-1.43,0c-0.24,0-0.48,0-0.72,0c-0.3,0-0.601,0-0.91,0c0-3.84,0-7.68,0-11.52c3.91,0,7.81,0,11.71,0
	c0-1.92,0-3.84,0-5.76c3.83,0,7.68,0,11.52,0c0,1.92,0,3.84,0,5.76c1.92,0,3.83,0,5.76,0c0,1.92,0,3.84,0,5.76
	c3.841,0,7.681,0,11.511,0c0,1.92,0,3.84,0,5.76c1.5,0,3,0,4.5,0c1.45,0,2.89,0,4.33,0c2.88,0,5.75,0,8.64,0c2.88,0,5.76,0,8.64,0
	s5.761,0,8.641,0c0-1.92,0-3.84,0-5.76c1.92,0,3.83,0,5.75,0c0-1.92,0-3.84,0-5.76c0.189,0,0.37,0,0.54,0c1.39,0,2.77,0,4.149,0
	c0.351,0,0.721,0,1.08,0c0.181,0,0.36,0,0.54,0c0.12,0,0.23,0,0.36,0c0.35,0,0.72,0,1.08,0c0.18,0,0.359,0,0.54,0
	c0.12,0,0.229,0,0.359,0c1.37,0,2.761,0,4.141,0c0.359,0,0.71,0,1.08,0c0.17,0,0.359,0,0.54,0c0.109,0,0.239,0,0.359,0
	c0.36,0,0.72,0,1.08,0c0.17,0,0.36,0,0.54,0c0.11,0,0.24,0,0.36,0c0.18,0,0.359,0,0.54,0c0,1.92,0,3.84,0,5.76c1.92,0,3.84,0,5.75,0
	c0,2.88,0,5.76,0,8.64s0,5.76,0,8.64c1.93,0,3.85,0,5.77,0c0-3.84,0-7.68,0-11.52c1.92,0,3.84,0,5.75,0c0-3.84,0-7.68,0-11.52
	c-1.91,0-3.83,0-5.75,0c0-1.92,0-3.84,0-5.76c-1.92,0-3.84,0-5.77,0c0-0.18,0-0.36,0-0.54c0-1.56,0-3.12,0-4.68
	c0-0.18,0-0.36,0-0.54c-1.91,0-3.83,0-5.75,0c0-0.18,0-0.36,0-0.54c0-1.56,0-3.12,0-4.68c0-0.18,0-0.36,0-0.54
	c-2.88,0-5.771,0-8.641,0c-1.439,0-2.88,0-4.319,0c-1.44,0-2.88,0-4.33,0c0,1.92,0,3.84,0,5.76c-0.17,0-0.351,0-0.53,0
	c-0.36,0-0.72,0-1.08,0c-0.18,0-0.37,0-0.54,0c-0.24,0-0.479,0-0.72,0c-0.36,0-0.72,0-1.09,0c-0.41,0-0.83,0-1.25,0
	c-0.181,0-0.36,0-0.54,0c0,1.92,0,3.84,0,5.76c-0.96,0-1.92,0-2.88,0c-0.48,0-0.96,0-1.44,0c-0.54,0-1.08,0-1.62,0
	c0,3.84,0,7.68,0,11.52c-2.88,0-5.77,0-8.64,0c-2.88,0-5.76,0-8.649,0c0-1.92,0-3.84,0-5.76c-0.11,0-0.23,0-0.351,0
	c-0.13,0-0.239,0-0.36,0c-0.18,0-0.359,0-0.539,0c-0.36,0-0.73,0-1.08,0c-0.721,0-1.44,0-2.17,0c-0.11,0-0.23,0-0.351,0
	c-0.181,0-0.36,0-0.54,0c-0.359,0-0.72,0-1.09,0c-0.71,0-1.43,0-2.15,0c-0.119,0-0.24,0-0.369,0c-0.17,0-0.351,0-0.531,0
	c-0.359,0-0.719,0-1.079,0c-0.72,0-1.44,0-2.16,0c-0.19,0-0.36,0-0.54,0c-0.189,0-0.359,0-0.54,0c-0.36,0-0.72,0-1.09,0
	c-0.17,0-0.351,0-0.54,0c-0.17,0-0.35,0-0.54,0c-0.17,0-0.351,0-0.53,0c-0.24,0-0.48,0-0.72,0c0-0.18,0-0.36,0-0.54
	c0-0.9,0-1.8,0-2.7c0-0.42,0-0.84,0-1.26c0-0.48,0-0.96,0-1.44c0-0.18,0-0.36,0-0.54c0-0.24,0-0.48,0-0.72c0-0.48,0-0.96,0-1.44
	c0-0.96,0-1.92,0-2.88c-3.84,0-7.69,0-11.521,0c0-0.18,0-0.36,0-0.54c0-1.56,0-3.12,0-4.68c0-0.18,0-0.36,0-0.54
	c-5.76,0-11.52,0-17.279,0c0,1.92,0,3.84,0,5.76c-0.18,0-0.37,0-0.54,0c-3.54,0-7.08,0-10.62,0c-0.18,0-0.359,0-0.54,0
	c0,1.92,0,3.84,0,5.76c-1.92,0-3.84,0-5.761,0c0,2.88,0,5.76,0,8.64s0,5.76,0,8.64c1.921,0,3.841,0,5.761,0c0,1.92,0,3.84,0,5.76
	c1.92,0,3.83,0,5.75,0c0,0.18,0,0.36,0,0.54c0,0.36,0,0.72,0,1.08c0,0.42,0,0.84,0,1.26c0,0.36,0,0.72,0,1.08c0,0.42,0,0.84,0,1.26
	c0,0.18,0,0.36,0,0.54c-1.92,0-3.83,0-5.75,0c0,1.92,0,3.84,0,5.76c-1.92,0-3.84,0-5.761,0c0,1.92,0,3.84,0,5.76
	c-1.93,0-3.84,0-5.76,0c0,3.84,0,7.68,0,11.52c0,1.92,0,3.84,0,5.76c0,0.96,0,1.92,0,2.88c0,0.48,0,0.96,0,1.44
	c0,0.54,0,1.08,0,1.62c1.92,0,3.83,0,5.76,0c0,1.92,0,3.84,0,5.76C3.83,80.82,1.92,80.82,0,80.82z"/>
<path fill="#F15A46" d="M11.521,69.3c0-0.96,0-1.92,0-2.88c0-0.48,0-0.96,0-1.44c0-0.24,0-0.48,0-0.72c0-0.24,0-0.48,0-0.72
	c0-0.06,0-0.12,0-0.18c1.92,0,3.83,0,5.75,0c0-2.88,0.01-5.76,0-8.64c0-2.88,0-5.76,0-8.64c0.54,0,1.08,0,1.63,0
	c0.48,0,0.95,0,1.43,0c0.961,0,1.93,0,2.891,0c0-0.72,0-1.44,0-2.16c0-0.36,0-0.72,0-1.08c0-0.18,0-0.36,0-0.54
	c0-0.18,0-0.36,0-0.54c0-0.36,0-0.72,0-1.08c0-0.18,0-0.36,0-0.54c0-0.18,0-0.36,0-0.54c0-0.36,0-0.72,0-1.08c0-0.18,0-0.36,0-0.54
	c0-0.18,0-0.36,0-0.54c0-0.36,0-0.72,0-1.08c0-0.18,0-0.36,0-0.54c0-0.18,0-0.36,0-0.54c0-0.36,0-0.72,0-1.08c0-0.18,0-0.36,0-0.54
	s0-0.36,0-0.54c0-0.36,0-0.72,0-1.08c0-0.18,0-0.36,0-0.54c0-0.18,0-0.36,0-0.54c0-0.36,0-0.72,0-1.08c0-0.18,0-0.36,0-0.54
	c0-0.18,0-0.36,0-0.54c-0.961,0-1.93,0-2.891,0c-0.479,0-0.949,0-1.43,0c-0.24,0-0.48,0-0.72,0c-0.3,0-0.601,0-0.91,0
	c0-3.84,0-7.68,0-11.52c3.91,0,7.81,0,11.71,0c0-1.92,0-3.84,0-5.76c3.83,0,7.68,0,11.52,0c0,1.92,0,3.84,0,5.76
	c1.92,0,3.83,0,5.76,0c0,1.92,0,3.84,0,5.76c3.841,0,7.681,0,11.511,0c0,1.92,0,3.84,0,5.76c1.5,0,3,0,4.5,0c1.45,0,2.89,0,4.33,0
	c2.88,0,5.75,0,8.64,0c2.88,0,5.76,0,8.64,0s5.761,0,8.641,0c0-1.92,0-3.84,0-5.76c1.92,0,3.83,0,5.75,0c0-1.92,0-3.84,0-5.76
	c0.189,0,0.37,0,0.54,0c1.39,0,2.77,0,4.149,0c0.351,0,0.721,0,1.08,0c0.181,0,0.36,0,0.54,0c0.12,0,0.23,0,0.36,0
	c0.35,0,0.72,0,1.08,0c0.18,0,0.359,0,0.54,0c0.12,0,0.229,0,0.359,0c1.37,0,2.761,0,4.141,0c0.359,0,0.71,0,1.08,0
	c0.17,0,0.359,0,0.54,0c0.109,0,0.239,0,0.359,0c0.36,0,0.72,0,1.08,0c0.17,0,0.36,0,0.54,0c0.11,0,0.24,0,0.36,0
	c0.18,0,0.359,0,0.54,0c0,1.92,0,3.84,0,5.76c1.92,0,3.84,0,5.75,0c0,2.88,0,5.76,0,8.64s0,5.76,0,8.64c1.93,0,3.85,0,5.77,0
	c0,3.84,0,7.68,0,11.52c0.061,0,0.12,0,0.18,0c0.051,0,0.12,0,0.181,0c0.12,0,0.24,0,0.35,0c0.25,0,0.48,0,0.73,0
	c0.42,0,0.83,0,1.25,0c0.85,0,1.689,0,2.52,0c0.19,0,0.37,0,0.54,0c0-1.92,0-3.84,0-5.76c1.93,0,3.851,0,5.771,0
	c0,7.68,0,15.36,0,23.04c1.92,0,3.84,0,5.75,0c0,1.92,0,3.84,0,5.76c0,0.96,0,1.92,0,2.88c0,0.48,0,0.96,0,1.44
	c0,0.54,0,1.08,0,1.62c-1.91,0-3.83,0-5.75,0c0,3.839,0,7.679,0,11.52c1.92,0,3.84,0,5.75,0c0,7.68,0,15.36,0,23.04
	c-1.91,0-3.83,0-5.75,0c0,1.92,0,3.84,0,5.76c-0.25,0-0.48,0-0.721,0c-0.18,0-0.359,0-0.55,0c-0.17,0-0.35,0-0.54,0
	c-0.17,0-0.35,0-0.53,0c-0.359,0-0.72,0-1.079,0c-0.181,0-0.37,0-0.54,0c-0.181,0-0.37,0-0.54,0c-1.44,0-2.88,0-4.33,0
	c-0.351,0-0.71,0-1.07,0c-0.18,0-0.37,0-0.54,0c-0.18,0-0.37,0-0.54,0c-0.36,0-0.72,0-1.08,0c-0.189,0-0.359,0-0.54,0
	c-0.189,0-0.359,0-0.54,0c-0.72,0-1.439,0-2.17,0c-0.649,0-1.31,0-1.979,0c0,1.92,0,3.84,0,5.76c-1.91,0-3.83,0-5.75,0
	c0,1.92,0,3.84,0,5.76c-3.84,0-7.681,0-11.521,0c0,1.92,0,3.84,0,5.761c-3.84,0-7.689,0-11.52,0c0,0.96,0,1.92,0,2.88
	c0,0.48,0,0.96,0,1.439c0,0.24,0,0.48,0,0.721c0,0.119,0,0.24,0,0.359c0,0.18,0,0.36,0,0.541c-0.19,0-0.36,0-0.54,0
	c-2.76,0-5.521,0-8.28,0c-1.39,0-2.76,0-4.14,0c-0.36,0-0.73,0-1.08,0c-0.19,0-0.36,0-0.54,0c-0.13,0-0.24,0-0.36,0
	c-0.36,0-0.73,0-1.081,0c-0.189,0-0.359,0-0.539,0c-0.131,0-0.24,0-0.36,0c-0.181,0-0.36,0-0.54,0c0,1.92,0,3.84,0,5.76
	c-0.18,0-0.359,0-0.54,0c-1.38,0-2.761,0-4.14,0c-0.36,0-0.721,0-1.09,0c-0.17,0-0.351,0-0.531,0c-0.119,0-0.239,0-0.359,0
	c-0.359,0-0.72,0-1.09,0c-0.17,0-0.35,0-0.54,0c-0.11,0-0.229,0-0.351,0c-1.379,0-2.76,0-4.149,0c-0.351,0-0.71,0-1.069,0
	c-0.181,0-0.371,0-0.541,0c-0.119,0-0.24,0-0.369,0c-0.351,0-0.711,0-1.07,0c-0.18,0-0.37,0-0.54,0c-0.12,0-0.24,0-0.37,0
	c-0.17,0-0.35,0-0.54,0c0-1.92,0-3.84,0-5.76c-1.92,0-3.83,0-5.75,0c0-0.541,0-1.08,0-1.621c0-0.479,0-0.959,0-1.439s0-0.96,0-1.439
	c0-0.48,0-0.961,0-1.44c-0.19,0-0.36,0-0.54,0c-0.189,0-0.359,0-0.54,0c-0.13,0-0.239,0-0.36,0c-0.18,0-0.359,0-0.539,0
	c-0.121,0-0.25,0-0.36,0c-0.601,0-1.2,0-1.8,0c-0.18,0-0.36,0-0.551,0c-0.109,0-0.229,0-0.35,0c-0.189,0-0.359,0-0.54,0
	c-0.13,0-0.239,0-0.36,0c-0.6,0-1.199,0-1.81,0c-0.17,0-0.351,0-0.53,0c-0.119,0-0.24,0-0.359,0c-0.18,0-0.36,0-0.551,0
	c-0.109,0-0.229,0-0.35,0c-0.189,0-0.359,0-0.54,0c-0.13,0-0.239,0-0.36,0c-0.18,0-0.359,0-0.539,0c-0.121,0-0.25,0-0.36,0
	c-0.3,0-0.601,0-0.91,0c-0.29,0-0.59,0-0.89,0c-0.551,0-1.09,0-1.621,0c-0.299,0-0.6,0-0.909,0c-0.29,0-0.601,0-0.89,0
	c-0.61,0-1.201,0-1.801,0c-0.31,0-0.6,0-0.9,0c-0.299,0-0.6,0-0.909,0c-0.54,0-1.08,0-1.61,0c-0.3,0-0.6,0-0.91,0
	c-0.289,0-0.6,0-0.89,0c-0.61,0-1.2,0-1.8,0c-0.311,0-0.6,0-0.9,0c-0.3,0-0.6,0-0.91,0c-0.539,0-1.07,0-1.609,0
	c0-1.921,0-3.841,0-5.761c-1.98,0-3.961,0-5.95,0c0-15.359,0-30.719,0-46.08c-1.92,0-3.83,0-5.75,0c0-3.84,0-7.679,0-11.52
	C11.521,73.14,11.521,71.22,11.521,69.3z M34.74,92.34c0,1.92,0,3.84,0,5.76c1.92,0,3.84,0,5.76,0c0,1.92,0,3.841,0,5.761
	c-1.92,0-3.84,0-5.76,0c0,1.92,0,3.84,0,5.76c1.92,0,3.84,0,5.76,0c0,1.92,0,3.84,0,5.76c1.92,0,3.83,0,5.76,0c0,1.92,0,3.84,0,5.76
	c0.121,0,0.24,0,0.361,0c0.17,0,0.359,0,0.539,0c0.11,0,0.24,0,0.36,0c0.181,0,0.36,0,0.54,0c0.12,0,0.23,0,0.359,0
	c0.181,0,0.351,0,0.541,0c0.119,0,0.24,0,0.35,0c0.189,0,0.37,0,0.54,0c0.61,0,1.21,0,1.81,0c0.11,0,0.24,0,0.36,0
	c0.181,0,0.36,0,0.54,0c0.12,0,0.23,0,0.359,0c0.181,0,0.351,0,0.541,0c0.119,0,0.24,0,0.35,0c0.189,0,0.37,0,0.54,0
	c0.13,0,0.25,0,0.37,0c0.18,0,0.359,0,0.539,0c0.121,0,0.24,0,0.361,0c0.17,0,0.359,0,0.539,0c0.11,0,0.24,0,0.36,0
	c0.181,0,0.36,0,0.54,0c0.12,0,0.23,0,0.359,0c0.181,0,0.351,0,0.541,0c0.119,0,0.24,0,0.35,0c0.189,0,0.37,0,0.54,0
	c0.13,0,0.25,0,0.37,0c0.18,0,0.359,0,0.539,0c0.121,0,0.24,0,0.361,0c0.17,0,0.359,0,0.539,0c0.6,0,1.19,0,1.801,0
	c0.119,0,0.24,0,0.35,0c0.189,0,0.37,0,0.54,0c0.13,0,0.25,0,0.37,0c0.18,0,0.359,0,0.539,0c0.121,0,0.24,0,0.361,0
	c0.17,0,0.359,0,0.539,0c0.11,0,0.24,0,0.36,0c0.181,0,0.36,0,0.54,0c0.12,0,0.23,0,0.359,0c0.181,0,0.351,0,0.541,0
	c0.119,0,0.24,0,0.35,0c0.189,0,0.37,0,0.54,0c0.13,0,0.25,0,0.37,0c0.18,0,0.359,0,0.539,0c0.121,0,0.24,0,0.361,0
	c0.17,0,0.359,0,0.539,0c0.11,0,0.24,0,0.36,0c0.181,0,0.36,0,0.54,0c0.12,0,0.23,0,0.359,0c0.181,0,0.351,0,0.541,0
	c0.119,0,0.24,0,0.35,0c0.189,0,0.37,0,0.54,0c0.13,0,0.25,0,0.37,0c0.18,0,0.359,0,0.539,0c0.121,0,0.24,0,0.361,0
	c0.17,0,0.359,0,0.539,0c0.11,0,0.24,0,0.36,0c0.181,0,0.36,0,0.54,0c0,1.92,0,3.84,0,5.76c1.92,0,3.84,0,5.75,0
	c0,0.18,0,0.36,0,0.541c0,0.359,0,0.719,0,1.079c0,0.421,0,0.841,0,1.261c0,0.359,0,0.719,0,1.08c0,0.42,0,0.84,0,1.26
	c0,0.18,0,0.359,0,0.539c1.93,0,3.85,0,5.77,0c0-3.84,0-7.68,0-11.52c0.18,0,0.36,0,0.54,0c0.17,0,0.36,0,0.54,0
	c0.36,0,0.72,0,1.08,0c0.18,0,0.36,0,0.53,0c0.189,0,0.37,0,0.54,0c0.37,0,0.729,0,1.09,0c0.18,0,0.359,0,0.54,0
	c0.18,0,0.35,0,0.54,0c0.35,0,0.72,0,1.08,0c0.18,0,0.359,0,0.54,0c0.17,0,0.359,0,0.54,0c0.359,0,0.71,0,1.08,0
	c0.18,0,0.359,0,0.539,0c0.181,0,0.36,0,0.53,0c0.37,0,0.73,0,1.09,0c0.181,0,0.36,0,0.54,0c0.181,0,0.351,0,0.54,0
	c0.351,0,0.721,0,1.08,0c0.72,0,1.44,0,2.16,0c0.78,0,1.56,0,2.34,0c0-1.92,0-3.84,0-5.76c1.92,0,3.84,0,5.75,0
	c0-1.92,0-3.84,0-5.76c1.931,0,3.851,0,5.771,0c0-1.92,0-3.84,0-5.76c1.92,0,3.84,0,5.75,0c0-1.92,0-3.841,0-5.761
	c-1.91,0-3.83,0-5.75,0c0-1.92,0-3.84,0-5.76c0.18,0,0.359,0,0.54,0c0.17,0,0.359,0,0.54,0c0.17,0,0.359,0,0.54,0
	c0.17,0,0.359,0,0.54,0c0.239,0,0.479,0,0.72,0c0.18,0,0.35,0,0.54,0c0.18,0,0.35,0,0.54,0c0.42,0,0.83,0,1.25,0
	c0.189,0,0.37,0,0.54,0c0-3.841,0-7.681,0-11.52c1.93,0,3.85,0,5.77,0c0-2.88,0-5.76,0-8.64c0-2.94,0-5.88,0-8.82
	c-3.84,0-7.68,0-11.52,0c0-1.92,0-3.84,0-5.76c-3.84,0-7.681,0-11.521,0c0-1.92,0-3.84,0-5.76c-1.92,0-3.84,0-5.77,0
	c-1.92,0-3.83,0-5.75,0c0-1.92,0-3.84,0-5.76c-0.84,0-1.69,0-2.521,0c-0.42,0-0.84,0-1.26,0c-0.24,0-0.48,0-0.72,0
	c-0.25,0-0.48,0-0.73,0c-0.229,0-0.479,0-0.71,0c0-1.92,0-3.84,0-5.76c-2.88,0-5.77,0-8.64,0c-2.88,0-5.76,0-8.649,0
	c-2.871,0-5.75,0-8.631,0c-2.89,0-5.76,0-8.64,0c0,1.92,0,3.84,0,5.76c-3.84,0-7.69,0-11.521,0c0,1.92,0,3.84,0,5.76
	c-1.92,0-3.84,0-5.76,0c0,3.84,0,7.68,0,11.52c-1.93,0-3.84,0-5.76,0c0,0.12,0,0.24,0,0.36c0,0.54,0,1.08,0,1.62
	c0,0.12,0,0.24,0,0.36c0,0.18,0,0.36,0,0.54c0,0.12,0,0.24,0,0.36c0,0.18,0,0.36,0,0.54c0,0.12,0,0.24,0,0.36c0,0.18,0,0.36,0,0.54
	c0,0.12,0,0.24,0,0.36c0,0.18,0,0.36,0,0.54c0,0.12,0,0.24,0,0.36c0,0.18,0,0.36,0,0.54c0,0.12,0,0.24,0,0.36c0,0.18,0,0.36,0,0.54
	c0,0.12,0,0.24,0,0.36c0,0.18,0,0.36,0,0.54c0,0.12,0,0.24,0,0.36c0,0.18,0,0.36,0,0.54c0,0.12,0,0.24,0,0.36c0,0.18,0,0.36,0,0.54
	c0,0.12,0,0.24,0,0.36c0,0.18,0,0.36,0,0.54c0,0.12,0,0.24,0,0.36c0,0.18,0,0.36,0,0.54c0,0.12,0,0.24,0,0.36c0,0.18,0,0.36,0,0.54
	c0,0.12,0,0.24,0,0.36c0,0.18,0,0.36,0,0.54c0,0.12,0,0.24,0,0.36c0,0.18,0,0.36,0,0.54c0,0.12,0,0.24,0,0.36c0,0.18,0,0.36,0,0.54
	c0,0.12,0,0.24,0,0.36c0,0.18,0,0.36,0,0.54c0,0.12,0,0.24,0,0.36c0,0.18,0,0.36,0,0.54c0,0.12,0,0.24,0,0.36c0,0.18,0,0.36,0,0.54
	c0,0.12,0,0.24,0,0.36c0,0.179,0,0.36,0,0.541c0,0.119,0,0.239,0,0.359c0,0.18,0,0.359,0,0.54c0,0.12,0,0.239,0,0.36
	c0,0.18,0,0.359,0,0.539c0,0.121,0,0.24,0,0.36c0,0.181,0,0.36,0,0.54c0,0.12,0,0.24,0,0.359c0,0.181,0,0.361,0,0.541
	c0,0.119,0,0.24,0,0.359c0,0.18,0,0.36,0,0.541c0,0.119,0,0.239,0,0.359c0,0.18,0,0.359,0,0.54c0,0.12,0,0.239,0,0.36
	c0,0.18,0,0.359,0,0.539c0,0.121,0,0.24,0,0.36c0,0.181,0,0.36,0,0.54c0,0.12,0,0.24,0,0.359c0,0.181,0,0.361,0,0.541
	c0,0.119,0,0.24,0,0.359c0,0.18,0,0.36,0,0.541c0,0.119,0,0.239,0,0.359c0,0.18,0,0.359,0,0.54C30.9,92.34,32.811,92.34,34.74,92.34
	z"/>
<path fill="#232034" d="M28.98,91.8c0,0.18,0,0.359,0,0.54c1.92,0,3.83,0,5.76,0c0-3.841,0-7.681,0-11.52c0-1.92,0-3.84,0-5.76
	c0-0.54,0-1.08,0-1.62c0-0.48,0-0.96,0-1.44c-0.01-0.48,0-0.96,0-1.44s0-0.96,0-1.44c0-1.92,0-3.84,0-5.76c-1.93,0-3.84,0-5.76,0
	c0,0.12,0,0.24,0,0.36c0,0.54,0,1.08,0,1.62c0,0.12,0,0.24,0,0.36c0,0.18,0,0.36,0,0.54c0,0.12,0,0.24,0,0.36c0,0.18,0,0.36,0,0.54
	c0,0.12,0,0.24,0,0.36c0,0.18,0,0.36,0,0.54c0,0.12,0,0.24,0,0.36c0,0.18,0,0.36,0,0.54c0,0.12,0,0.24,0,0.36c0,0.18,0,0.36,0,0.54
	c0,0.12,0,0.24,0,0.36c0,0.18,0,0.36,0,0.54c0,0.12,0,0.24,0,0.36c0,0.18,0,0.36,0,0.54c0,0.12,0,0.24,0,0.36c0,0.18,0,0.36,0,0.54
	c0,0.12,0,0.24,0,0.36c0,0.18,0,0.36,0,0.54c0,0.12,0,0.24,0,0.36c0,0.18,0,0.36,0,0.54c0,0.12,0,0.24,0,0.36c0,0.18,0,0.36,0,0.54
	c0,0.12,0,0.24,0,0.36c0,0.18,0,0.36,0,0.54c0,0.12,0,0.24,0,0.36c0,0.18,0,0.36,0,0.54c0,0.12,0,0.24,0,0.36c0,0.18,0,0.36,0,0.54
	c0,0.12,0,0.24,0,0.36c0,0.18,0,0.36,0,0.54c0,0.12,0,0.24,0,0.36c0,0.18,0,0.36,0,0.54c0,0.12,0,0.24,0,0.36c0,0.18,0,0.36,0,0.54
	c0,0.12,0,0.24,0,0.36c0,0.18,0,0.36,0,0.54c0,0.12,0,0.24,0,0.36c0,0.179,0,0.36,0,0.541c0,0.119,0,0.239,0,0.359
	c0,0.18,0,0.359,0,0.54c0,0.12,0,0.239,0,0.36c0,0.18,0,0.359,0,0.539c0,0.121,0,0.24,0,0.36c0,0.181,0,0.36,0,0.54
	c0,0.12,0,0.24,0,0.359c0,0.181,0,0.361,0,0.541c0,0.119,0,0.24,0,0.359c0,0.18,0,0.36,0,0.541c0,0.119,0,0.239,0,0.359
	c0,0.18,0,0.359,0,0.54c0,0.12,0,0.239,0,0.36c0,0.18,0,0.359,0,0.539c0,0.121,0,0.24,0,0.36c0,0.181,0,0.36,0,0.54
	c0,0.12,0,0.24,0,0.359c0,0.181,0,0.361,0,0.541c0,0.119,0,0.24,0,0.359c0,0.18,0,0.36,0,0.541C28.98,91.56,28.98,91.68,28.98,91.8z
	"/>
<path fill="#232034" d="M34.74,103.861c0,1.92,0,3.84,0,5.76c1.92,0,3.84,0,5.76,0c0-1.92,0-3.84,0-5.76
	C38.58,103.861,36.66,103.861,34.74,103.861z"/>
<path fill="#232034" d="M34.74,92.34c0,1.92,0,3.84,0,5.76c1.92,0,3.84,0,5.76,0c0-1.92,0-3.84,0-5.76
	C38.58,92.34,36.66,92.34,34.74,92.34z"/>
<path fill="#AAAAAB" d="M34.74,80.82c0,3.839,0,7.679,0,11.52c1.92,0,3.84,0,5.76,0s3.83,0,5.76,0c0,1.92,0,3.84,0,5.76
	c1.921,0,3.841,0,5.761,0c0-1.92,0-3.84,0-5.76c1.92,0,3.83,0,5.75,0c0,1.92,0,3.84,0,5.76c1.931,0,3.851,0,5.771,0
	c0-1.92,0-3.84,0-5.76c1.92,0,3.84,0,5.75,0c0,1.92,0,3.84,0,5.76c1.93,0,3.85,0,5.77,0c0,1.92,0,3.841,0,5.761
	c-3.84,0-7.68,0-11.52,0c0,1.92,0,3.84,0,5.76c-0.19,0-0.36,0-0.541,0c-0.729,0-1.439,0-2.17,0c-0.17,0-0.35,0-0.539,0
	c-0.17,0-0.351,0-0.531,0c-0.18,0-0.359,0-0.539,0s-0.37,0-0.54,0c-0.12,0-0.24,0-0.37,0c-0.061,0-0.109,0-0.17,0
	c-0.12,0-0.24,0-0.37,0c-0.05,0-0.11,0-0.17,0c-0.181,0-0.36,0-0.54,0s-0.359,0-0.54,0c-0.36,0-0.729,0-1.08,0
	c-0.181,0-0.36,0-0.54,0c-0.13,0-0.24,0-0.359,0c-0.19,0-0.36,0-0.541,0c-0.189,0-0.359,0-0.539,0c-0.19,0-0.36,0-0.541,0
	c-0.18,0-0.359,0-0.539,0c-0.36,0-0.721,0-1.09,0c-0.17,0-0.351,0-0.531,0c-0.119,0-0.239,0-0.359,0c-0.18,0-0.359,0-0.55,0
	c-0.17,0-0.351,0-0.54,0c-0.17,0-0.35,0-0.54,0c-0.17,0-0.351,0-0.53,0c-0.359,0-0.72,0-1.08,0c-0.18,0-0.369,0-0.539,0
	c-0.121,0-0.24,0-0.361,0c0,1.92,0,3.84,0,5.76c7.681,0,15.361,0,23.031,0c0-1.92,0-3.84,0-5.76c1.93,0,3.85,0,5.77,0s3.84,0,5.75,0
	c0-0.36,0-0.721,0-1.08c0-0.18,0-0.36,0-0.541c0-0.18,0-0.359,0-0.539c0-0.36,0-0.721,0-1.08c0-0.18,0-0.36,0-0.54
	c0-0.181,0-0.36,0-0.54s0-0.359,0-0.54s0-0.36,0-0.54s0-0.359,0-0.54s0-0.36,0-0.54c0-0.359,0-0.72,0-1.08c0-0.18,0-0.359,0-0.54
	c0-0.18,0-0.36,0-0.54s0-0.359,0-0.539c0-0.181,0-0.361,0-0.541s0-0.359,0-0.539c0-0.181,0-0.361,0-0.541c0-0.359,0-0.72,0-1.08
	c0-0.18,0-0.359,0-0.539c0-0.181,0-0.36,0-0.541c0-0.18,0-0.359,0-0.539s0-0.36,0-0.541c0-0.18,0-0.359,0-0.539s0-0.36,0-0.541
	c0-0.359,0-0.719,0-1.079c0-0.181,0-0.36,0-0.54s0-0.36,0-0.54c-1.91,0-3.83,0-5.75,0c0-3.841,0-7.681,0-11.52
	c-1.92,0-3.84,0-5.77,0c-1.91,0-3.83,0-5.75,0s-3.84,0-5.771,0c0-1.92,0-3.84,0-5.76c-1.92,0-3.83,0-5.75,0c0-0.48,0-0.96,0-1.44
	s0-0.96,0-1.44s0-0.96,0-1.44c0-0.24,0-0.48,0-0.72c0-0.12,0-0.24,0-0.36c0-0.18,0-0.36,0-0.54c1.92,0,3.83,0,5.75,0
	c1.45,0,2.89,0,4.33,0s2.88,0,4.319,0c2.871,0,5.761,0,8.641,0c0,0.54,0,1.08,0,1.62c0,0.48,0,0.96,0,1.44s0,0.96,0,1.44
	s0,0.96,0,1.44c1.92,0,3.84,0,5.75,0c0-0.54,0-1.08,0-1.62c0-0.48,0-0.96,0-1.44s0-0.96,0-1.44s0-0.96,0-1.44c0.54,0,1.09,0,1.63,0
	c0.479,0,0.96,0,1.439,0c0.95,0,1.91,0,2.88,0c1.921,0,3.841,0,5.761,0c0-1.92,0-3.84,0-5.76c-0.96,0-1.92,0-2.88,0
	c-0.48,0-0.96,0-1.44,0c-0.24,0-0.479,0-0.72,0c-0.13,0-0.24,0-0.36,0c-0.18,0-0.36,0-0.54,0c0-3.84,0-7.68,0-11.52
	c-1.92,0-3.84,0-5.77,0c0-1.92,0-3.84,0-5.76c-7.67,0-15.35,0-23.04,0c0,1.92,0,3.84,0,5.76c-1.92,0-3.83,0-5.75,0s-3.84,0-5.761,0
	c0,1.92,0,3.84,0,5.76c-1.93,0-3.84,0-5.76,0c0,1.92,0,3.84,0,5.76s0,3.84,0,5.76c1.92,0,3.83,0,5.76,0c0,0.54,0,1.08,0,1.62
	c0,0.48,0,0.96,0,1.44s0,0.96,0,1.44s0,0.96,0,1.44s0,0.96,0,1.44s0,0.96,0,1.44s0,0.96,0,1.44s0,0.96,0,1.44
	c1.921,0,3.841,0,5.761,0c0,0.18,0,0.36,0,0.54c0,0.84,0,1.68,0,2.52c0,0.42,0,0.84,0,1.26c0,0.24,0,0.48,0,0.721
	c0,0.239,0,0.479,0,0.719c-0.19,0-0.36,0-0.54,0c-1.689,0-3.359,0-5.04,0c-0.06,0-0.13,0-0.181,0c0-1.92,0-3.84,0-5.759
	c-1.93,0-3.84,0-5.76,0S36.66,80.82,34.74,80.82z"/>
<path fill="#F15A46" d="M34.74,75.06c0,1.92,0,3.84,0,5.76c1.92,0,3.84,0,5.76,0c0-1.92,0-3.84,0-5.76
	C38.58,75.06,36.66,75.06,34.74,75.06z"/>
<path fill="#010101" d="M34.74,73.44c0,0.54,0,1.08,0,1.62c1.92,0,3.84,0,5.76,0c0,1.92,0,3.84,0,5.76c1.92,0,3.83,0,5.76,0
	c0-0.48,0-0.96,0-1.44s0-0.96,0-1.44s0-0.96,0-1.44s0-0.96,0-1.44s0-0.96,0-1.44s0-0.96,0-1.44s0-0.96,0-1.44c0-0.54,0-1.08,0-1.62
	c-1.93,0-3.84,0-5.76,0s-3.84,0-5.76,0c0,0.48,0,0.96,0,1.44s-0.01,0.96,0,1.44C34.74,72.48,34.74,72.96,34.74,73.44z"/>
<path fill="#7B7B7B" d="M34.74,63.36c0,1.92,0,3.84,0,5.76c1.92,0,3.84,0,5.76,0c0-1.92,0-3.84,0-5.76
	C38.58,63.36,36.66,63.36,34.74,63.36z"/>
<path fill="#232034" d="M34.74,51.84c0,3.84,0,7.68,0,11.52c1.92,0,3.84,0,5.76,0c0-1.92,0-3.84,0-5.76s0-3.84,0-5.76
	C38.58,51.84,36.66,51.84,34.74,51.84z"/>
<path fill="#232034" d="M40.5,109.621c0,1.92,0,3.84,0,5.76c1.92,0,3.83,0,5.76,0c0-1.92,0-3.84,0-5.76
	C44.33,109.621,42.42,109.621,40.5,109.621z"/>
<path fill="#AAAAAB" d="M40.5,103.861c0,1.92,0,3.84,0,5.76c1.92,0,3.83,0,5.76,0c0-1.92,0-3.84,0-5.76
	C44.33,103.861,42.42,103.861,40.5,103.861z"/>
<path fill="#232034" d="M40.5,98.1c0,1.92,0,3.841,0,5.761c1.92,0,3.83,0,5.76,0c0-1.92,0-3.841,0-5.761
	C44.33,98.1,42.42,98.1,40.5,98.1z"/>
<path fill="#010101" d="M40.5,92.34c0,1.92,0,3.84,0,5.76c1.92,0,3.83,0,5.76,0c0-1.92,0-3.84,0-5.76
	C44.33,92.34,42.42,92.34,40.5,92.34z"/>
<path fill="#7B7B7B" d="M40.5,51.84c0,1.92,0,3.84,0,5.76c1.92,0,3.83,0,5.76,0c0-1.92,0-3.84,0-5.76
	C44.33,51.84,42.42,51.84,40.5,51.84z"/>
<path fill="#232034" d="M40.5,46.08c0,1.92,0,3.84,0,5.76c1.92,0,3.83,0,5.76,0c1.921,0,3.841,0,5.761,0c0-1.92,0-3.84,0-5.76
	C48.181,46.08,44.33,46.08,40.5,46.08z"/>
<path fill="#232034" d="M46.26,115.38c0,1.92,0,3.84,0,5.76c0.121,0,0.24,0,0.361,0c0.17,0,0.359,0,0.539,0c0.11,0,0.24,0,0.36,0
	c0.181,0,0.36,0,0.54,0c0.12,0,0.23,0,0.359,0c0.181,0,0.351,0,0.541,0c0.119,0,0.24,0,0.35,0c0.189,0,0.37,0,0.54,0
	c0.61,0,1.21,0,1.81,0c0.11,0,0.24,0,0.36,0c0.181,0,0.36,0,0.54,0c0.12,0,0.23,0,0.359,0c0.181,0,0.351,0,0.541,0
	c0.119,0,0.24,0,0.35,0c0.189,0,0.37,0,0.54,0c0.13,0,0.25,0,0.37,0c0.18,0,0.359,0,0.539,0c0.121,0,0.24,0,0.361,0
	c0.17,0,0.359,0,0.539,0c0.11,0,0.24,0,0.36,0c0.181,0,0.36,0,0.54,0c0.12,0,0.23,0,0.359,0c0.181,0,0.351,0,0.541,0
	c0.119,0,0.24,0,0.35,0c0.189,0,0.37,0,0.54,0c0.13,0,0.25,0,0.37,0c0.18,0,0.359,0,0.539,0c0.121,0,0.24,0,0.361,0
	c0.17,0,0.359,0,0.539,0c0.6,0,1.19,0,1.801,0c0.119,0,0.24,0,0.35,0c0.189,0,0.37,0,0.54,0c0.13,0,0.25,0,0.37,0
	c0.18,0,0.359,0,0.539,0c0.121,0,0.24,0,0.361,0c0.17,0,0.359,0,0.539,0c0.11,0,0.24,0,0.36,0c0.181,0,0.36,0,0.54,0
	c0.12,0,0.23,0,0.359,0c0.181,0,0.351,0,0.541,0c0.119,0,0.24,0,0.35,0c0.189,0,0.37,0,0.54,0c0.13,0,0.25,0,0.37,0
	c0.18,0,0.359,0,0.539,0c0.121,0,0.24,0,0.361,0c0.17,0,0.359,0,0.539,0c0.11,0,0.24,0,0.36,0c0.181,0,0.36,0,0.54,0
	c0.12,0,0.23,0,0.359,0c0.181,0,0.351,0,0.541,0c0.119,0,0.24,0,0.35,0c0.189,0,0.37,0,0.54,0c0.13,0,0.25,0,0.37,0
	c0.18,0,0.359,0,0.539,0c0.121,0,0.24,0,0.361,0c0.17,0,0.359,0,0.539,0c0.11,0,0.24,0,0.36,0c0.181,0,0.36,0,0.54,0
	c0-1.92,0-3.84,0-5.76c-1.92,0-3.84,0-5.77,0C61.621,115.38,53.94,115.38,46.26,115.38z"/>
<path fill="#010101" d="M46.26,103.861c0,1.92,0,3.84,0,5.76c0.121,0,0.24,0,0.361,0c0.17,0,0.359,0,0.539,0c0.36,0,0.721,0,1.08,0
	c0.18,0,0.36,0,0.53,0c0.19,0,0.37,0,0.54,0c0.189,0,0.37,0,0.54,0c0.19,0,0.37,0,0.55,0c0.12,0,0.24,0,0.359,0
	c0.181,0,0.361,0,0.531,0c0.369,0,0.729,0,1.09,0c0.18,0,0.359,0,0.539,0c0.181,0,0.351,0,0.541,0c0.18,0,0.35,0,0.539,0
	c0.181,0,0.351,0,0.541,0c0.119,0,0.229,0,0.359,0c0.18,0,0.359,0,0.54,0c0.351,0,0.72,0,1.08,0c0.181,0,0.36,0,0.54,0
	s0.359,0,0.54,0c0.06,0,0.12,0,0.17,0c0.13,0,0.25,0,0.37,0c0.061,0,0.109,0,0.17,0c0.13,0,0.25,0,0.37,0c0.17,0,0.36,0,0.54,0
	s0.359,0,0.539,0c0.181,0,0.361,0,0.531,0c0.189,0,0.369,0,0.539,0c0.73,0,1.44,0,2.17,0c0.181,0,0.351,0,0.541,0
	c0-1.92,0-3.84,0-5.76c3.84,0,7.68,0,11.52,0c0-1.92,0-3.841,0-5.761c-1.92,0-3.84,0-5.77,0c0-1.92,0-3.84,0-5.76
	c-1.91,0-3.83,0-5.75,0c0,1.92,0,3.84,0,5.76c-1.92,0-3.84,0-5.771,0c0-1.92,0-3.84,0-5.76c-1.92,0-3.83,0-5.75,0
	c0,1.92,0,3.84,0,5.76c-1.92,0-3.84,0-5.761,0C46.26,100.02,46.26,101.941,46.26,103.861z"/>
<path fill="#010101" d="M46.26,80.82c0,1.919,0,3.839,0,5.759c0.051,0,0.121,0,0.181,0c1.681,0,3.351,0,5.04,0c0.18,0,0.35,0,0.54,0
	c0-0.239,0-0.479,0-0.719c0-0.24,0-0.48,0-0.721c0-0.42,0-0.84,0-1.26c0-0.84,0-1.68,0-2.52c0-0.18,0-0.36,0-0.54
	C50.101,80.82,48.181,80.82,46.26,80.82z"/>
<path fill="#7B7B7B" d="M52.021,73.62c0,0.48,0,0.96,0,1.44c1.92,0,3.83,0,5.75,0c0-0.48,0-0.96,0-1.44s0-0.96,0-1.44
	c0.01-0.48,0-0.96,0-1.44c0-0.24,0-0.48,0-0.72c0-0.12,0-0.24,0-0.36c0-0.18,0-0.36,0-0.54c-1.92,0-3.83,0-5.75,0
	c0,0.18,0,0.36,0,0.54c0,0.12,0,0.24,0,0.36c0,0.24,0,0.48,0,0.72c0,0.48,0,0.96,0,1.44S52.021,73.14,52.021,73.62z"/>
<path fill="#7B7B7B" d="M52.021,46.08c0,1.92,0,3.84,0,5.76c1.92,0,3.83,0,5.75,0c0-1.92,0-3.84,0-5.76
	C55.851,46.08,53.94,46.08,52.021,46.08z"/>
<path fill="#232034" d="M52.021,40.32c0,1.92,0,3.84,0,5.76c1.92,0,3.83,0,5.75,0c7.69,0,15.37,0,23.04,0c1.93,0,3.85,0,5.77,0
	c0-1.92,0-3.84,0-5.76c-2.88,0-5.77,0-8.64,0c-2.88,0-5.76,0-8.649,0c-2.871,0-5.75,0-8.631,0C57.771,40.32,54.9,40.32,52.021,40.32
	z"/>
<path fill="#F15A46" d="M57.771,75.06c0,1.92,0,3.84,0,5.76c1.931,0,3.851,0,5.771,0c0-1.92,0-3.84,0-5.76
	C61.621,75.06,59.701,75.06,57.771,75.06z"/>
<path fill="#010101" d="M57.771,73.62c0,0.48,0,0.96,0,1.44c1.931,0,3.851,0,5.771,0c0,1.92,0,3.84,0,5.76c1.92,0,3.84,0,5.75,0
	c0-1.92,0-3.84,0-5.76c1.93,0,3.85,0,5.77,0c0-0.48,0-0.96,0-1.44s0-0.96,0-1.44s0-0.96,0-1.44c0-0.54,0-1.08,0-1.62
	c-2.88,0-5.77,0-8.641,0c-1.439,0-2.879,0-4.319,0s-2.88,0-4.33,0c0,0.18,0,0.36,0,0.54c0,0.12,0,0.24,0,0.36c0,0.24,0,0.48,0,0.72
	c0,0.48,0.01,0.96,0,1.44C57.771,72.66,57.771,73.14,57.771,73.62z"/>
<path fill="#7B7B7B" d="M69.291,109.621c0,1.92,0,3.84,0,5.76c1.93,0,3.85,0,5.77,0c0-1.92,0-3.84,0-5.76
	C73.141,109.621,71.221,109.621,69.291,109.621z"/>
<path fill="#7B7B7B" d="M69.291,75.06c0,1.92,0,3.84,0,5.76c1.93,0,3.85,0,5.77,0c0,3.839,0,7.679,0,11.52c1.92,0,3.84,0,5.75,0
	c0-1.92,0-3.841,0-5.761c1.93,0,3.85,0,5.77,0c0-1.92,0-3.84,0-5.759c0.54,0,1.08,0,1.62,0c0.48,0,0.96,0,1.44,0
	c0.479,0,0.96,0,1.439,0c0.48,0,0.96,0,1.44,0c0-1.92,0-3.84,0-5.76c1.92,0,3.83,0,5.75,0c0-2.94,0-5.88,0-8.82
	c0-2.88,0-5.76,0-8.64c-1.92,0-3.83,0-5.75,0c0-1.92,0-3.84,0-5.76c-0.96,0-1.92,0-2.88,0c-0.48,0-0.96,0-1.44,0
	c-0.54,0-1.08,0-1.62,0c0,3.84,0,7.68,0,11.52c0.18,0,0.36,0,0.54,0c0.12,0,0.23,0,0.36,0c0.24,0,0.479,0,0.72,0
	c0.48,0,0.96,0,1.44,0c0.96,0,1.92,0,2.88,0c0,1.92,0,3.84,0,5.76c-1.92,0-3.84,0-5.761,0c-0.97,0-1.93,0-2.88,0
	c-0.479,0-0.96,0-1.439,0c-0.54,0-1.09,0-1.63,0c0,0.48,0,0.96,0,1.44s0,0.96,0,1.44s0,0.96,0,1.44c0,0.54,0,1.08,0,1.62
	c-1.91,0-3.83,0-5.75,0S71.221,75.06,69.291,75.06z"/>
<path fill="#F79C7F" d="M75.061,121.14c0,1.92,0,3.84,0,5.76c1.92,0,3.84,0,5.75,0c0,0.18,0,0.36,0,0.541c0,0.359,0,0.719,0,1.079
	c0,0.421,0,0.841,0,1.261c0,0.359,0,0.719,0,1.08c0,0.42,0,0.84,0,1.26c0,0.18,0,0.359,0,0.539c1.93,0,3.85,0,5.77,0
	c0-3.84,0-7.68,0-11.52c0.18,0,0.36,0,0.54,0c0.17,0,0.36,0,0.54,0c0.36,0,0.72,0,1.08,0c0.18,0,0.36,0,0.53,0
	c0.189,0,0.37,0,0.54,0c0.37,0,0.729,0,1.09,0c0.18,0,0.359,0,0.54,0c0.18,0,0.35,0,0.54,0c0.35,0,0.72,0,1.08,0
	c0.18,0,0.359,0,0.54,0c0.17,0,0.359,0,0.54,0c0.359,0,0.71,0,1.08,0c0.18,0,0.359,0,0.539,0c0.181,0,0.36,0,0.53,0
	c0.37,0,0.73,0,1.09,0c0.181,0,0.36,0,0.54,0c0.181,0,0.351,0,0.54,0c0.351,0,0.721,0,1.08,0c0.72,0,1.44,0,2.16,0
	c0.78,0,1.56,0,2.34,0c0-1.92,0-3.84,0-5.76c1.92,0,3.84,0,5.75,0c0-1.92,0-3.84,0-5.76c1.931,0,3.851,0,5.771,0
	c0-1.92,0-3.84,0-5.76c1.92,0,3.84,0,5.75,0c0-1.92,0-3.841,0-5.761c-1.91,0-3.83,0-5.75,0c0-1.92,0-3.84,0-5.76
	c0.18,0,0.359,0,0.54,0c0.17,0,0.359,0,0.54,0c0.17,0,0.359,0,0.54,0c0.17,0,0.359,0,0.54,0c0.239,0,0.479,0,0.72,0
	c0.18,0,0.35,0,0.54,0c0.18,0,0.35,0,0.54,0c0.42,0,0.83,0,1.25,0c0.189,0,0.37,0,0.54,0c0-3.841,0-7.681,0-11.52
	c1.93,0,3.85,0,5.77,0c0-2.88,0-5.76,0-8.64c0-2.94,0-5.88,0-8.82c-3.84,0-7.68,0-11.52,0c0-1.92,0-3.84,0-5.76
	c-3.84,0-7.681,0-11.521,0c0,0.06,0,0.12,0,0.18c0,0.24,0,0.48,0,0.72c0,0.24,0,0.48,0,0.72c0,0.48,0,0.96,0,1.44
	c0,0.96,0,1.92,0,2.88c0,1.92,0,3.84,0,5.76c0,3.84,0,7.68,0,11.52c3.84,0,7.681,0,11.521,0c0,1.919,0,3.839,0,5.759
	c-1.92,0-3.84,0-5.771,0c0,1.92,0,3.841,0,5.761c-3.83,0-7.67,0-11.52,0c0,1.92,0,3.84,0,5.76c-0.53,0-1.07,0-1.61,0
	c-0.479,0-0.96,0-1.439,0c-0.48,0-0.961,0-1.45,0c-0.48,0-0.96,0-1.44,0c-0.479,0-0.95,0-1.43,0c-0.48,0-0.96,0-1.44,0
	c-0.479,0-0.96,0-1.439,0c-0.48,0-0.96,0-1.44,0c0,3.841,0,7.681,0,11.521c-1.92,0-3.84,0-5.77,0c0,1.92,0,3.84,0,5.76
	c-1.91,0-3.83,0-5.75,0C75.061,117.3,75.061,119.22,75.061,121.14z"/>
<path fill="#232034" d="M75.061,109.621c0,1.92,0,3.84,0,5.76c1.92,0,3.84,0,5.75,0c0-1.92,0-3.84,0-5.76
	C78.9,109.621,76.98,109.621,75.061,109.621z"/>
<path fill="#232034" d="M80.811,108.541c0,0.359,0,0.72,0,1.08c1.93,0,3.85,0,5.77,0c0-3.84,0-7.68,0-11.521c0-1.92,0-3.84,0-5.76
	c0.54,0,1.08,0,1.62,0c0.48,0,0.96,0,1.44,0c0.479,0,0.96,0,1.439,0c0.48,0,0.96,0,1.44,0c0-1.92,0-3.841,0-5.761
	c1.92,0,3.83,0,5.75,0c0-1.92,0-3.84,0-5.759c1.93,0,3.85,0,5.77,0c0-3.84,0-7.68,0-11.52c0-1.92,0-3.84,0-5.76
	c0-0.96,0-1.92,0-2.88c0-0.48,0-0.96,0-1.44c0-0.24,0-0.48,0-0.72c0-0.24,0-0.48,0-0.72c0-0.06,0-0.12,0-0.18c-1.92,0-3.84,0-5.77,0
	c0,2.88,0,5.76,0,8.64c0,2.94,0,5.88,0,8.82c-1.92,0-3.83,0-5.75,0c0,1.92,0,3.84,0,5.76c-0.48,0-0.96,0-1.44,0
	c-0.479,0-0.96,0-1.439,0c-0.48,0-0.96,0-1.44,0c-0.54,0-1.08,0-1.62,0c0,1.919,0,3.839,0,5.759c-1.92,0-3.84,0-5.77,0
	c0,1.92,0,3.841,0,5.761c0,0.18,0,0.36,0,0.54s0,0.359,0,0.54c0,0.36,0,0.72,0,1.079c0,0.181,0,0.361,0,0.541s0,0.359,0,0.539
	c0,0.181,0,0.361,0,0.541s0,0.359,0,0.539c0,0.181,0,0.36,0,0.541c0,0.18,0,0.359,0,0.539c0,0.36,0,0.721,0,1.08
	c0,0.18,0,0.36,0,0.541c0,0.18,0,0.359,0,0.539s0,0.36,0,0.541c0,0.18,0,0.359,0,0.539s0,0.36,0,0.54c0,0.181,0,0.36,0,0.54
	c0,0.36,0,0.721,0,1.08c0,0.18,0,0.359,0,0.54s0,0.36,0,0.54s0,0.359,0,0.54s0,0.36,0,0.54s0,0.359,0,0.54c0,0.18,0,0.36,0,0.54
	c0,0.359,0,0.72,0,1.08c0,0.18,0,0.359,0,0.539C80.811,108.18,80.811,108.361,80.811,108.541z"/>
<path fill="#7B7B7B" d="M80.811,46.08c0,1.92,0,3.84,0,5.76c1.93,0,3.85,0,5.77,0c0-1.92,0-3.84,0-5.76
	C84.66,46.08,82.74,46.08,80.811,46.08z"/>
<path fill="#FFFFFF" d="M86.58,92.34c0,1.92,0,3.84,0,5.76c0.48,0,0.96,0,1.44,0c0.479,0,0.96,0,1.439,0c0.48,0,0.96,0,1.44,0
	c0.479,0,0.95,0,1.43,0c0.48,0,0.96,0,1.44,0c0.489,0,0.97,0,1.45,0c0.479,0,0.96,0,1.439,0c0.54,0,1.08,0,1.61,0
	c0-1.92,0-3.84,0-5.76c3.85,0,7.689,0,11.52,0c0-1.92,0-3.841,0-5.761c1.931,0,3.851,0,5.771,0c0-1.92,0-3.84,0-5.759
	c-3.84,0-7.681,0-11.521,0c-1.92,0-3.84,0-5.77,0c0,1.919,0,3.839,0,5.759c-1.92,0-3.83,0-5.75,0c0,1.92,0,3.841,0,5.761
	c-0.48,0-0.96,0-1.44,0c-0.479,0-0.96,0-1.439,0c-0.48,0-0.96,0-1.44,0C87.66,92.34,87.12,92.34,86.58,92.34z"/>
<path fill="#232034" d="M86.58,46.08c0,1.92,0,3.84,0,5.76c0.54,0,1.08,0,1.62,0c0.48,0,0.96,0,1.44,0c0.96,0,1.92,0,2.88,0
	c0-1.92,0-3.84,0-5.76c-0.84,0-1.69,0-2.521,0c-0.42,0-0.84,0-1.26,0c-0.24,0-0.48,0-0.72,0c-0.25,0-0.48,0-0.73,0
	C87.061,46.08,86.811,46.08,86.58,46.08z"/>
<path fill="#232034" d="M92.521,51.84c0,1.92,0,3.84,0,5.76c1.92,0,3.83,0,5.75,0c0-1.92,0-3.84,0-5.76
	C96.351,51.84,94.44,51.84,92.521,51.84z"/>
<path fill="#F79C7F" d="M98.271,51.84c0,1.92,0,3.84,0,5.76c1.93,0,3.85,0,5.77,0c0-1.92,0-3.84,0-5.76
	C102.12,51.84,100.2,51.84,98.271,51.84z"/>
<path fill="#D42C41" d="M127.08,40.32c0,3.84,0,7.68,0,11.52c0.061,0,0.12,0,0.18,0c0.051,0,0.12,0,0.181,0c0.12,0,0.24,0,0.35,0
	c0.25,0,0.48,0,0.73,0c0.42,0,0.83,0,1.25,0c0.85,0,1.689,0,2.52,0c0.19,0,0.37,0,0.54,0c0-1.92,0-3.84,0-5.76
	c1.93,0,3.851,0,5.771,0c0-1.92,0-3.84,0-5.76C134.76,40.32,130.92,40.32,127.08,40.32z"/>
<path fill="#D42C41" d="M138.601,115.38c0,1.92,0,3.84,0,5.76c3.84,0,7.67,0,11.52,0c0-1.92,0-3.84,0-5.76c1.92,0,3.84,0,5.76,0
	c0-1.141,0-2.28,0-3.42c0-0.12,0-0.24,0-0.36c0-0.18,0-0.36,0-0.54c0-0.119,0-0.24,0-0.359c0-0.181,0-0.36,0-0.541
	c0-0.119,0-0.239,0-0.359c0-0.18,0-0.359,0-0.54c0-0.12,0-0.24,0-0.36c0-0.18,0-0.359,0-0.539c0-1.141,0-2.281,0-3.42
	c0-0.121,0-0.24,0-0.361c0-0.18,0-0.359,0-0.539c0-0.12,0-0.24,0-0.36c0-0.181,0-0.36,0-0.54c0-0.12,0-0.24,0-0.359
	c0-0.181,0-0.36,0-0.541c0-0.119,0-0.24,0-0.359c0-0.18,0-0.36,0-0.54c0-4.74,0-9.479,0-14.22c0-0.18,0-0.36,0-0.541
	c-1.92,0-3.84,0-5.76,0c0-0.18,0-0.359,0-0.539c0-1.801,0-3.6,0-5.4c0-1.86,0-3.72,0-5.58c1.92,0,3.84,0,5.76,0
	c0-1.92,0-3.84,0-5.76c0-0.96,0-1.92,0-2.88c0-0.48,0-0.96,0-1.44c0-0.54,0-1.08,0-1.62c-1.92,0-3.84,0-5.76,0c0-0.18,0-0.36,0-0.54
	c0-3.66,0-7.32,0-10.98c-1.92,0-3.85,0-5.77,0c0-0.18,0-0.36,0-0.54c0-0.78,0-1.56,0-2.34c0-0.78,0-1.56,0-2.34
	c0-0.18,0-0.36,0-0.54c-1.91,0-3.83,0-5.75,0c0,7.68,0,15.36,0,23.04c1.92,0,3.84,0,5.75,0c0,1.92,0,3.84,0,5.76
	c0,0.96,0,1.92,0,2.88c0,0.48,0,0.96,0,1.44c0,0.54,0,1.08,0,1.62c-1.91,0-3.83,0-5.75,0c0,3.839,0,7.679,0,11.52
	c1.92,0,3.84,0,5.75,0c0,7.68,0,15.36,0,23.04C142.44,115.38,140.521,115.38,138.601,115.38z"/>
</svg>
