<?xml version="1.0" encoding="utf-8"?>
<!-- Generator: Adobe Illustrator 15.0.0, SVG Export Plug-In  -->
<!DOCTYPE svg PUBLIC "-//W3C//DTD SVG 1.1//EN" "http://www.w3.org/Graphics/SVG/1.1/DTD/svg11.dtd" [
	<!ENTITY ns_flows "http://ns.adobe.com/Flows/1.0/">
]>
<svg version="1.1"
	 xmlns="http://www.w3.org/2000/svg" xmlns:xlink="http://www.w3.org/1999/xlink" xmlns:a="http://ns.adobe.com/AdobeSVGViewerExtensions/3.0/"
	 x="0px" y="0px" width="200px" height="200px" viewBox="-18.31 -19.15 200 200" enable-background="new -18.31 -19.15 200 200"
	 xml:space="preserve">
<defs>
</defs>
<path fill="#D42C41" d="M0,46.26c0,3.84,0,7.68,0,11.52c1.92,0,3.84,0,5.76,0c0,0.18,0,0.36,0,0.54c0,0.9,0,1.8,0,2.7
	c0,0.42,0,0.84,0,1.26c0,0.48,0,0.96,0,1.44c0,0.42,0,0.84,0,1.26c0,0.48,0.01,0.96,0,1.44c0,0.96,0.01,1.92,0,2.88
	c1.931,0,3.851,0,5.771,0c0-1.92,0-3.84,0-5.76c1.92,0,3.84,0,5.76,0c0-7.68,0-15.36,0-23.04c1.92,0,3.84,0,5.75,0
	c0-1.92,0-3.84,0-5.76c1.92,0,3.84,0,5.76,0c0-0.96,0-1.92,0-2.88c0-0.96,0-1.92,0-2.88s0-1.92,0-2.88c0-0.48,0-0.96,0-1.44
	s0-0.96,0-1.44c0-0.06,0-0.12,0-0.18c1.93,0,3.851,0,5.771,0c0-1.92,0-3.84,0-5.76c0.18,0,0.35,0,0.54,0c1.43,0,2.88,0,4.31,0
	c1.38,0,2.771,0,4.15,0c1.43,0,2.88,0,4.31,0c1.38,0,2.771,0,4.15,0c1.43,0,2.88,0,4.31,0c1.39,0,2.771,0,4.15,0
	c2.76,0,5.51,0,8.27,0c0.19,0,0.37,0,0.54,0c0-1.92,0-3.84,0-5.76c3.851,0,7.69,0,11.53,0c0-1.92,0-3.84,0-5.76
	c-2.88,0-5.76,0-8.64,0c-2.891,0-5.771,0-8.65,0c0-1.92,0-3.84,0-5.76c-0.41,0-0.83,0-1.25,0c-0.49,0-0.96,0-1.45,0
	c-0.96,0-1.92,0-2.88,0c-0.42,0-0.83,0-1.25,0c-0.48,0-0.96,0-1.45,0c-0.96,0-1.92,0-2.88,0c-0.17,0-0.35,0-0.54,0
	c0,1.92,0,3.84,0,5.76c-1.92,0-3.84,0-5.76,0c0,1.92,0,3.84,0,5.76c-0.12,0-0.24,0-0.351,0c-1.39,0-2.77,0-4.149,0
	c-1.43,0-2.87,0-4.32,0c-1.38,0-2.76,0-4.13,0c-0.18,0-0.37,0-0.55,0c-0.17,0-0.351,0-0.54,0c-0.35,0-0.71,0-1.08,0
	c-0.17,0-0.35,0-0.54,0c-0.17,0-0.35,0-0.54,0c-0.35,0-0.71,0-1.08,0c0,1.92,0,3.84,0,5.76c-0.17,0-0.35,0-0.54,0
	c-3.649,0-7.31,0-10.97,0c0,0.96,0,1.92,0,2.88s0,1.92,0,2.88s0,1.92,0,2.88c0,0.48,0,0.96,0,1.44c0,0.54,0,1.08,0,1.62
	c-1.92,0-3.84,0-5.76,0c0,1.92,0,3.84,0,5.76c-1.92,0-3.84,0-5.771,0c0,3.84,0,7.68,0,11.52c-0.18,0-0.35,0-0.53,0
	c-0.189,0-0.359,0-0.539,0c-0.19,0-0.36,0-0.54,0c-0.421,0-0.851,0-1.271,0c-0.17,0-0.35,0-0.54,0c-0.17,0-0.35,0-0.54,0
	c-0.17,0-0.35,0-0.54,0c-0.229,0-0.47,0-0.72,0C0.37,46.26,0.19,46.26,0,46.26z"/>
<path fill="#D42C41" d="M11.53,119.161c0,0.719,0,1.439,0,2.16c1.92,0,3.84,0,5.76,0c0,0.18,0,0.359,0,0.539c0,3.66,0,7.32,0,10.98
	c3.84,0,7.67,0,11.51,0c0,0.18,0,0.359,0,0.539c0,0.361,0,0.721,0,1.08c0,0.181,0,0.361,0,0.541c0,0.24,0,0.479,0,0.72
	c0,0.36,0,0.72,0,1.08c0,0.42,0,0.84,0,1.26c0,0.181,0,0.36,0,0.54c2.891,0,5.771,0,8.65,0s5.76,0,8.63,0c0,1.92,0,3.84,0,5.76
	c1.92,0,3.84,0,5.76,0c0,1.92,0,3.84,0,5.76c0.96,0,1.92,0,2.89,0c0.48,0,0.961,0,1.44,0c0.48,0,0.96,0,1.44,0
	c0.06,0,0.119,0,0.18,0c0,0.181,0,0.36,0,0.541c0,0.18,0,0.359,0,0.539s0,0.36,0,0.541c0,0.42,0,0.84,0,1.26c0,0.18,0,0.359,0,0.539
	c0,0.181,0,0.36,0,0.541c0,0.18,0,0.359,0,0.539c0,0.24,0,0.48,0,0.721c0,0.18,0,0.359,0,0.539c2.88,0,5.75,0,8.63,0s5.771,0,8.65,0
	c0,1.921,0,3.841,0,5.761c2.88,0,5.76,0,8.64,0c2.87,0,5.75,0,8.63,0c0-1.92,0-3.84,0-5.761c0.19,0,0.37,0,0.54,0
	c0.37,0,0.73,0,1.08,0c0.42,0,0.84,0,1.27,0c0.351,0,0.721,0,1.07,0c0.19,0,0.37,0,0.54,0c0.24,0,0.49,0,0.73,0
	c0.18,0,0.35,0,0.54,0c0-1.92,0-3.84,0-5.76c0.119,0,0.229,0,0.35,0c1.38,0,2.77,0,4.15,0c1.43,0,2.88,0,4.31,0
	c1.38,0,2.771,0,4.15,0c1.43,0,2.88,0,4.31,0c0-1.92,0-3.84,0-5.76c1.92,0,3.85,0,5.771,0c0-1.92,0-3.84,0-5.76
	c1.92,0,3.84,0,5.76,0c0-1.38,0-2.76,0-4.141c0-1.439,0-2.879,0-4.319s0-2.88,0-4.319c0-0.721,0-1.441,0-2.16
	c0-0.181,0-0.36,0-0.541c0-0.18,0-0.359,0-0.539c0-0.181,0-0.36,0-0.541c0-0.239,0-0.479,0-0.719c0.17,0,0.35,0,0.54,0
	c1.62,0,3.24,0,4.85,0c0.19,0,0.37,0,0.54,0c0-1.921,0-3.841,0-5.761c1.92,0,3.851,0,5.771,0c0-1.92,0-3.84,0-5.76
	c1.92,0,3.84,0,5.76,0c0-1.44,0-2.88,0-4.32s0-2.88,0-4.319c0-1.44,0-2.881,0-4.32c0-1.5,0-3,0-4.5c1.92,0,3.84,0,5.76,0
	c0-3.84,0-7.68,0-11.52c-1.92,0-3.84,0-5.76,0c0,1.92,0,3.84,0,5.76c-1.92,0-3.84,0-5.76,0c0,1.439,0,2.879,0,4.319s0,2.88,0,4.32
	s0,2.88,0,4.319c0,1.5,0,3,0,4.5c-1.92,0-3.851,0-5.771,0c0,1.92,0,3.84,0,5.761c-0.96,0-1.92,0-2.88,0c-0.47,0-0.96,0-1.43,0
	c-0.54,0-1.08,0-1.62,0c0,1.92,0,3.84,0,5.76c-1.92,0-3.84,0-5.76,0c0,0.181,0,0.36,0,0.54s0,0.359,0,0.54c0,0.36,0,0.72,0,1.08
	c0,0.72,0,1.44,0,2.159c0,1.441,0,2.881,0,4.32c0,2.881,0,5.76,0,8.641c-1.921,0-3.851,0-5.771,0c0,1.92,0,3.84,0,5.76
	c-0.17,0-0.35,0-0.54,0c-0.11,0-0.229,0-0.35,0c-0.19,0-0.36,0-0.54,0c-0.37,0-0.721,0-1.08,0c-0.12,0-0.24,0-0.37,0
	c-0.17,0-0.35,0-0.54,0c-0.35,0-0.71,0-1.08,0c-1.38,0-2.75,0-4.13,0c-0.12,0-0.25,0-0.37,0c-0.17,0-0.35,0-0.54,0
	c-0.35,0-0.71,0-1.08,0c-0.109,0-0.229,0-0.35,0c-0.181,0-0.37,0-0.54,0c-0.37,0-0.72,0-1.08,0c-1.38,0-2.76,0-4.14,0
	c-0.19,0-0.36,0-0.54,0c0,1.92,0,3.84,0,5.76c-2.881,0-5.771,0-8.65,0s-5.75,0-8.63,0c0,1.92,0,3.84,0,5.76c-2.88,0-5.76,0-8.64,0
	c-2.891,0-5.771,0-8.65,0c0-1.92,0-3.84,0-5.76c-1.91,0-3.83,0-5.75,0c0-1.92,0-3.84,0-5.76c-0.96,0-1.92,0-2.88,0
	c-0.49,0-0.96,0-1.45,0c-0.54,0-1.08,0-1.62,0c0-1.92,0-3.84,0-5.76c-1.92,0-3.84,0-5.76,0c0-1.92,0-3.84,0-5.76
	c-3.83,0-7.67,0-11.51,0c0-1.92,0-3.84,0-5.76c-1.92,0-3.841,0-5.771,0c0-1.921,0-3.841,0-5.761c-1.92,0-3.84,0-5.76,0
	c0-0.72,0-1.44,0-2.16c0-0.18,0-0.36,0-0.54s0-0.359,0-0.539c0-0.361,0-0.721,0-1.08c0-0.181,0-0.361,0-0.541s0-0.359,0-0.539
	c0-0.181,0-0.36,0-0.541c0-0.18,0-0.359,0-0.539c0-0.181,0-0.36,0-0.541c0-0.18,0-0.359,0-0.539c0-0.36,0-0.721,0-1.08
	c0-0.18,0-0.36,0-0.541c0-0.18,0-0.359,0-0.539s0-0.36,0-0.54c0-0.181,0-0.36,0-0.54s0-0.36,0-0.54c0-0.181,0-0.36,0-0.54
	c0-0.359,0-0.721,0-1.08c0-0.18,0-0.359,0-0.54s0-0.36,0-0.54s0-0.359,0-0.54c0-0.18,0-0.36,0-0.54c0-0.72,0-1.439,0-2.16
	c1.92,0,3.84,0,5.76,0c0-0.06,0-0.119,0-0.18c0-0.48,0-0.96,0-1.439c0-0.48,0-0.961,0-1.44c0-0.96,0-1.92,0-2.88
	c1.93,0,3.851,0,5.771,0c0-1.92,0-3.84,0-5.76c-1.92,0-3.841,0-5.771,0c0-1.92,0-3.84,0-5.76c-1.92,0-3.84,0-5.76,0
	c0-1.92,0-3.84,0-5.76c-1.91,0-3.83,0-5.75,0c0-1.92,0-3.84,0-5.76c-1.92,0-3.84,0-5.76,0c0,3.84,0,7.68,0,11.52
	c1.92,0,3.84,0,5.76,0c0,0.18,0,0.36,0,0.54c0,0.36,0,0.721,0,1.08c0,0.42,0,0.84,0,1.26c0,0.36,0,0.721,0,1.08
	c0,0.18,0,0.36,0,0.541c0,0.239,0,0.479,0,0.719c0,0.181,0,0.36,0,0.541c1.92,0,3.84,0,5.75,0c0,0.18,0,0.359,0,0.539
	c0,0.84,0,1.681,0,2.521c0,0.42,0,0.84,0,1.26c0,0.181,0,0.36,0,0.54c0,0.24,0,0.48,0,0.721c0,0.06,0,0.119,0,0.18
	c-0.17,0-0.35,0-0.54,0c-0.771,0-1.55,0-2.33,0c-0.79,0-1.56,0-2.34,0c-0.18,0-0.37,0-0.54,0c0,3.9,0,7.8,0,11.699
	c-0.18,0-0.37,0-0.54,0c-0.37,0-0.72,0-1.08,0c-0.42,0-0.84,0-1.26,0c-0.37,0-0.72,0-1.08,0c-0.18,0-0.37,0-0.54,0
	c-0.25,0-0.49,0-0.72,0c-0.19,0-0.36,0-0.54,0c0,0.721,0,1.44,0,2.16c0,0.18,0,0.36,0,0.541c0,0.18,0,0.359,0,0.539
	c0,0.36,0,0.721,0,1.08c0,0.18,0,0.36,0,0.54c0,0.181,0,0.36,0,0.54c0,0.36,0,0.721,0,1.08c0,0.18,0,0.359,0,0.54s0,0.36,0,0.54
	c0,0.359,0,0.721,0,1.08c0,0.18,0,0.359,0,0.54c0,0.18,0,0.36,0,0.54c0,0.359,0,0.72,0,1.08c0,0.18,0,0.359,0,0.539
	c0,0.181,0,0.361,0,0.541c0,0.359,0,0.72,0,1.08c0,0.18,0,0.359,0,0.539c0,0.181,0,0.36,0,0.541
	C11.53,118.44,11.53,118.8,11.53,119.161z"/>
<path fill="#F15A46" d="M11.53,63.54c0,1.92,0,3.84,0,5.76c1.92,0,3.84,0,5.76,0c0,1.92,0,3.84,0,5.76c1.92,0,3.84,0,5.75,0
	c0,1.92,0,3.84,0,5.76c1.92,0,3.84,0,5.76,0c0,1.92,0,3.84,0,5.76c1.93,0,3.851,0,5.771,0c0-0.721,0-1.44,0-2.16
	c0-0.36,0-0.721,0-1.08c0-0.36,0-0.721,0-1.08c0-0.36,0-0.72,0-1.08s0-0.72,0-1.08s0-0.72,0-1.08c0-0.18,0-0.36,0-0.54
	c0-0.18,0-0.36,0-0.54c0-0.36,0-0.72,0-1.08c0-0.18,0-0.36,0-0.54c0-0.18,0-0.36,0-0.54c0-0.36,0-0.72,0-1.08c0-0.18,0-0.36,0-0.54
	s0-0.36,0-0.54c0-0.36,0-0.72,0-1.08c0-0.18,0-0.36,0-0.54c0-0.18,0-0.36,0-0.54c0-0.36,0-0.72,0-1.08c0-0.18,0-0.36,0-0.54
	c0-0.18,0-0.36,0-0.54c1.92,0,3.84,0,5.76,0c0-1.92,0-3.84,0-5.76c-1.92,0-3.84,0-5.76,0c0-3.84,0-7.68,0-11.52
	c1.92,0,3.84,0,5.76,0c0-1.92,0-3.84,0-5.76c1.92,0,3.84,0,5.75,0c0-3.84,0-7.68,0-11.52c0.18,0,0.37,0,0.55,0
	c0.83,0,1.67,0,2.521,0c0.42,0,0.84,0,1.26,0s0.84,0,1.26,0c0.05,0,0.12,0,0.17,0c0,0.18,0,0.36,0,0.54c0,0.72,0,1.44,0,2.16
	c0,0.18,0,0.36,0,0.54c0,0.18,0,0.36,0,0.54c0,0.18,0,0.36,0,0.54s0,0.36,0,0.54s0,0.36,0,0.54s0,0.36,0,0.54c0,0.18,0,0.36,0,0.54
	c0,0.18,0,0.36,0,0.54c0,0.36,0,0.72,0,1.08c0,0.18,0,0.36,0,0.54c0,0.12,0,0.24,0,0.36c0,0.18,0,0.36,0,0.54c0,0.18,0,0.36,0,0.54
	c0,0.18,0,0.36,0,0.54c0,0.18,0,0.36,0,0.54c0,0.36,0,0.72,0,1.08c0,0.18,0,0.36,0,0.54c0,0.12,0,0.24,0,0.36c0,0.18,0,0.36,0,0.54
	c0,0.18,0,0.36,0,0.54c0,0.18,0,0.36,0,0.54c0,0.18,0,0.36,0,0.54c0,0.36,0,0.72,0,1.08c0,0.18,0,0.36,0,0.54c0,0.12,0,0.24,0,0.36
	c0.54,0,1.08,0,1.62,0c0.49,0,0.96,0,1.45,0c0.96,0,1.92,0,2.88,0c0-1.92,0-3.84,0-5.76c1.92,0,3.84,0,5.75,0c0-1.92,0-3.84,0-5.76
	c-1.91,0-3.83,0-5.75,0c0-1.92,0-3.84,0-5.76c1.92,0,3.84,0,5.75,0c0,1.92,0,3.84,0,5.76c1.92,0,3.84,0,5.76,0c0,1.92,0,3.84,0,5.76
	c3.851,0,7.69,0,11.53,0c0-3.84,0-7.68,0-11.52c3.84,0,7.67,0,11.51,0c0,1.92,0,3.84,0,5.76c1.92,0,3.851,0,5.771,0
	c0-1.92,0-3.84,0-5.76c1.92,0,3.84,0,5.76,0c0,0.18,0,0.36,0,0.54c0,1.74,0,3.48,0,5.22c-1.92,0-3.84,0-5.76,0
	c0,3.84,0,7.68,0,11.52c5.76,0,11.52,0,17.27,0c0-1.92,0-3.84,0-5.76c1.92,0,3.85,0,5.771,0c0,1.92,0,3.84,0,5.76
	c3.89,0,7.8,0,11.689,0c0,1.92,0,3.84,0,5.76c1.92,0,3.851,0,5.771,0c0,3.84,0,7.68,0,11.52c-1.92,0-3.851,0-5.771,0
	c0,3.84,0,7.68,0,11.52c-1.97,0-3.96,0-5.93,0c0,3.84,0,7.68,0,11.52c-1.92,0-3.84,0-5.76,0c0,0.96,0,1.92,0,2.88
	c0,0.479,0,0.96,0,1.44c0,0.239,0,0.479,0,0.719c0,0.301,0,0.601,0,0.9c-3.851,0-7.69,0-11.521,0c0,1.92,0,3.84,0,5.76
	c-1.92,0-3.84,0-5.76,0c0,1.92,0,3.84,0,5.761c1.92,0,3.84,0,5.76,0c0,1.92,0,3.84,0,5.76c-3.84,0-7.68,0-11.52,0
	c0,1.92,0,3.84,0,5.761c-1.92,0-3.851,0-5.771,0c0,1.92,0,3.84,0,5.76c-1.92,0-3.84,0-5.76,0c0-1.92,0-3.84,0-5.76
	c-1.91,0-3.83,0-5.75,0c0,1.92,0,3.84,0,5.76c-7.68,0-15.37,0-23.04,0c0-1.92,0-3.84,0-5.76c-0.96,0-1.92,0-2.88,0
	c-0.49,0-0.96,0-1.45,0c-0.47,0-0.96,0-1.43,0c-0.07,0-0.12,0-0.19,0c0-1.921,0-3.841,0-5.761c-1.92,0-3.84,0-5.76,0
	c0-3.84,0-7.681,0-11.521c1.92,0,3.84,0,5.76,0c0-1.92,0-3.84,0-5.76c-1.92,0-3.84,0-5.76,0c-1.91,0-3.83,0-5.75,0
	c0-0.539,0-1.08,0-1.619c0-0.48,0-0.961,0-1.44c0-0.96,0-1.92,0-2.88c-1.92,0-3.84,0-5.76,0s-3.841,0-5.771,0c0,0.96,0,1.92,0,2.88
	c0,0.479,0,0.96,0,1.44c0,0.479,0,0.959,0,1.439c0,0.061,0,0.12,0,0.18c-1.92,0-3.84,0-5.76,0c0,0.721,0,1.44,0,2.16
	c0,0.18,0,0.36,0,0.54c0,0.181,0,0.36,0,0.54s0,0.359,0,0.54s0,0.36,0,0.54c0,0.359,0,0.721,0,1.08c0,0.18,0,0.359,0,0.54
	c0,0.18,0,0.36,0,0.54s0,0.359,0,0.54c0,0.18,0,0.36,0,0.54s0,0.359,0,0.539c0,0.181,0,0.361,0,0.541c0,0.359,0,0.72,0,1.08
	c0,0.18,0,0.359,0,0.539c0,0.181,0,0.36,0,0.541c0,0.18,0,0.359,0,0.539c0,0.181,0,0.36,0,0.541c0,0.18,0,0.359,0,0.539
	s0,0.36,0,0.541c0,0.359,0,0.719,0,1.08c0,0.18,0,0.359,0,0.539s0,0.36,0,0.54c0,0.72,0,1.44,0,2.16c1.92,0,3.84,0,5.76,0
	c0,1.92,0,3.84,0,5.761c1.93,0,3.851,0,5.771,0c0,1.92,0,3.84,0,5.76c3.84,0,7.68,0,11.51,0c0,1.92,0,3.84,0,5.76
	c1.92,0,3.84,0,5.76,0c0,1.92,0,3.84,0,5.76c0.54,0,1.08,0,1.62,0c0.49,0,0.96,0,1.45,0c0.96,0,1.92,0,2.88,0c0,1.92,0,3.84,0,5.76
	c1.92,0,3.84,0,5.75,0c0,1.92,0,3.84,0,5.76c2.88,0,5.76,0,8.65,0c2.88,0,5.76,0,8.64,0c0-1.92,0-3.84,0-5.76c2.88,0,5.75,0,8.63,0
	s5.77,0,8.65,0c0-1.92,0-3.84,0-5.76c0.18,0,0.35,0,0.54,0c1.38,0,2.76,0,4.14,0c0.36,0,0.71,0,1.08,0c0.17,0,0.359,0,0.54,0
	c0.12,0,0.24,0,0.35,0c0.37,0,0.73,0,1.08,0c0.19,0,0.37,0,0.54,0c0.12,0,0.25,0,0.37,0c1.38,0,2.75,0,4.13,0c0.37,0,0.73,0,1.08,0
	c0.19,0,0.37,0,0.54,0c0.13,0,0.25,0,0.37,0c0.359,0,0.71,0,1.08,0c0.18,0,0.35,0,0.54,0c0.12,0,0.239,0,0.35,0
	c0.19,0,0.37,0,0.54,0c0-1.92,0-3.84,0-5.76c1.92,0,3.85,0,5.771,0c0-2.881,0-5.76,0-8.641c0-1.439,0-2.879,0-4.32
	c0-0.719,0-1.439,0-2.159c0-0.36,0-0.72,0-1.08c0-0.181,0-0.36,0-0.54s0-0.359,0-0.54c1.92,0,3.84,0,5.76,0c0-1.92,0-3.84,0-5.76
	c0.54,0,1.08,0,1.62,0c0.47,0,0.96,0,1.43,0c0.96,0,1.92,0,2.88,0c0-1.921,0-3.841,0-5.761c1.92,0,3.851,0,5.771,0c0-1.5,0-3,0-4.5
	c0-1.439,0-2.879,0-4.319s0-2.88,0-4.32s0-2.88,0-4.319c1.92,0,3.84,0,5.76,0c0-1.92,0-3.84,0-5.76c1.92,0,3.84,0,5.76,0
	c0-1.68,0-3.36,0-5.04c0-0.42,0-0.84,0-1.26s0-0.84,0-1.26c0-0.84,0-1.68,0-2.52c0-1.68,0-3.36,0-5.04c0-0.42,0-0.84,0-1.26
	s0-0.84,0-1.26c0-0.84,0-1.68,0-2.52c0-1.68,0-3.36,0-5.04s0-3.36,0-5.04s0-3.36,0-5.04s0-3.36,0-5.04c-3.84,0-7.68,0-11.52,0
	c0-1.92,0-3.84,0-5.76c-3.9,0-7.811,0-11.7,0c0-1.92,0-3.84,0-5.76c0-0.96,0-1.92,0-2.88c0-0.48,0-0.96,0-1.44c0-0.54,0-1.08,0-1.62
	c-3.84,0-7.681,0-11.53,0c0-1.92,0-3.84,0-5.76c-3.84,0-7.67,0-11.51,0c0,1.92,0,3.84,0,5.76c-3.84,0-7.68,0-11.53,0
	c0-1.92,0-3.84,0-5.76c-3.84,0-7.67,0-11.51,0c0-1.92,0-3.84,0-5.76c-3.84,0-7.68,0-11.53,0c0,1.92,0,3.84,0,5.76
	c-0.17,0-0.35,0-0.54,0c-2.76,0-5.51,0-8.27,0c-1.38,0-2.761,0-4.15,0c-1.43,0-2.88,0-4.31,0c-1.38,0-2.771,0-4.15,0
	c-1.43,0-2.88,0-4.31,0c-1.38,0-2.771,0-4.15,0c-1.43,0-2.88,0-4.31,0c-0.19,0-0.36,0-0.54,0c0,1.92,0,3.84,0,5.76
	c-1.92,0-3.841,0-5.771,0c0,0.06,0,0.12,0,0.18c0,0.48,0,0.96,0,1.44s0,0.96,0,1.44c0,0.96,0,1.92,0,2.88s0,1.92,0,2.88
	c0,0.96,0,1.92,0,2.88c-1.92,0-3.84,0-5.76,0c0,1.92,0,3.84,0,5.76c-1.91,0-3.83,0-5.75,0c0,7.68,0,15.36,0,23.04
	C15.37,63.54,13.45,63.54,11.53,63.54z"/>
<path fill="#232034" d="M34.57,86.581c0,1.92,0,3.84,0,5.76c1.92,0,3.84,0,5.76,0c0-1.92,0-3.84,0-5.76s0-3.84,0-5.76s0-3.84,0-5.76
	s0-3.84,0-5.76c-1.92,0-3.84,0-5.76,0c0,0.18,0,0.36,0,0.54c0,0.18,0,0.36,0,0.54c0,0.36,0,0.72,0,1.08c0,0.18,0,0.36,0,0.54
	c0,0.18,0,0.36,0,0.54c0,0.36,0,0.72,0,1.08c0,0.18,0,0.36,0,0.54s0,0.36,0,0.54c0,0.36,0,0.72,0,1.08c0,0.18,0,0.36,0,0.54
	c0,0.18,0,0.36,0,0.54c0,0.36,0,0.72,0,1.08c0,0.18,0,0.36,0,0.54c0,0.18,0,0.36,0,0.54c0,0.36,0,0.72,0,1.08s0,0.72,0,1.08
	s0,0.72,0,1.08c0,0.359,0,0.72,0,1.08c0,0.359,0,0.72,0,1.08C34.57,85.14,34.57,85.86,34.57,86.581z"/>
<path fill="#F79C7F" d="M34.57,52.02c0,3.84,0,7.68,0,11.52c1.92,0,3.84,0,5.76,0c0-1.92,0-3.84,0-5.76c1.92,0,3.84,0,5.75,0
	c0-1.92,0-3.84,0-5.76c1.92,0,3.84,0,5.76,0c0-0.12,0-0.24,0-0.36c0-0.18,0-0.36,0-0.54c0-0.36,0-0.72,0-1.08c0-0.18,0-0.36,0-0.54
	c0-0.18,0-0.36,0-0.54c0-0.18,0-0.36,0-0.54c0-0.18,0-0.36,0-0.54c0-0.12,0-0.24,0-0.36c0-0.18,0-0.36,0-0.54c0-0.36,0-0.72,0-1.08
	c0-0.18,0-0.36,0-0.54c0-0.18,0-0.36,0-0.54c0-0.18,0-0.36,0-0.54c0-0.18,0-0.36,0-0.54c0-0.12,0-0.24,0-0.36c0-0.18,0-0.36,0-0.54
	c0-0.36,0-0.72,0-1.08c0-0.18,0-0.36,0-0.54c0-0.18,0-0.36,0-0.54c0-0.18,0-0.36,0-0.54s0-0.36,0-0.54s0-0.36,0-0.54s0-0.36,0-0.54
	c0-0.18,0-0.36,0-0.54c0-0.18,0-0.36,0-0.54c0-0.72,0-1.44,0-2.16c0-0.18,0-0.36,0-0.54c-0.05,0-0.12,0-0.17,0
	c-0.42,0-0.84,0-1.26,0s-0.84,0-1.26,0c-0.851,0-1.69,0-2.521,0c-0.18,0-0.37,0-0.55,0c0,3.84,0,7.68,0,11.52c-1.91,0-3.83,0-5.75,0
	c0,1.92,0,3.84,0,5.76C38.41,52.02,36.49,52.02,34.57,52.02z"/>
<path fill="#232034" d="M40.33,96.661c0,0.539,0,1.08,0,1.619c1.92,0,3.84,0,5.75,0c0-0.959,0-1.92,0-2.88c0-0.479,0-0.96,0-1.44
	c0-0.539,0-1.08,0-1.619c-1.91,0-3.83,0-5.75,0c0,0.96,0,1.92,0,2.88C40.33,95.7,40.33,96.18,40.33,96.661z"/>
<path fill="#AAAAAB" d="M40.33,86.581c0,1.92,0,3.84,0,5.76c1.92,0,3.84,0,5.75,0c1.92,0,3.84,0,5.76,0c0-1.92,0-3.84,0-5.76
	c-1.92,0-3.84,0-5.76,0C44.17,86.581,42.25,86.581,40.33,86.581z"/>
<path fill="#F15A46" d="M40.33,80.82c0,1.92,0,3.84,0,5.76c1.92,0,3.84,0,5.75,0c0-1.92,0-3.84,0-5.76
	C44.17,80.82,42.25,80.82,40.33,80.82z"/>
<path fill="#010101" d="M40.33,75.06c0,1.92,0,3.84,0,5.76c1.92,0,3.84,0,5.75,0c0,1.92,0,3.84,0,5.76c1.92,0,3.84,0,5.76,0
	c0-3.84,0-7.681,0-11.521c-1.92,0-3.84,0-5.76,0C44.17,75.06,42.25,75.06,40.33,75.06z"/>
<path fill="#7B7B7B" d="M40.33,69.3c0,1.92,0,3.84,0,5.76c1.92,0,3.84,0,5.75,0c0-1.92,0-3.84,0-5.76
	C44.17,69.3,42.25,69.3,40.33,69.3z"/>
<path fill="#232034" d="M40.33,63.54c0,1.92,0,3.84,0,5.76c1.92,0,3.84,0,5.75,0c0-1.92,0-3.84,0-5.76s0-3.84,0-5.76
	c-1.91,0-3.83,0-5.75,0C40.33,59.7,40.33,61.62,40.33,63.54z"/>
<path fill="#232034" d="M46.08,104.04c0,3.84,0,7.681,0,11.521c1.92,0,3.84,0,5.76,0c0-1.92,0-3.84,0-5.76c0-1.921,0-3.841,0-5.761
	C49.92,104.04,48,104.04,46.08,104.04z"/>
<path fill="#010101" d="M46.08,95.4c0,0.96,0,1.921,0,2.88c1.92,0,3.84,0,5.76,0c0-0.959,0-1.92,0-2.88c0-0.479,0-0.96,0-1.44
	c0-0.539,0-1.08,0-1.619c-1.92,0-3.84,0-5.76,0c0,0.539,0,1.08,0,1.619C46.08,94.44,46.08,94.92,46.08,95.4z"/>
<path fill="#AAAAAB" d="M46.08,69.3c0,1.92,0,3.84,0,5.76c1.92,0,3.84,0,5.76,0c0,3.84,0,7.681,0,11.521c1.92,0,3.851,0,5.771,0
	c0.06,0,0.119,0,0.18,0c0,1.92,0,3.84,0,5.76c1.92,0,3.84,0,5.75,0c0,0.539,0,1.08,0,1.619c0,0.48,0,0.961,0,1.44
	c0,0.96,0,1.921,0,2.88c1.92,0,3.84,0,5.76,0c0-0.539,0-1.08,0-1.619c0-0.48,0-0.961,0-1.44c0-0.96,0-1.92,0-2.88
	c1.93,0,3.851,0,5.771,0c0,0.539,0,1.08,0,1.619c0,0.48,0,0.961,0,1.44c0,0.96,0,1.921,0,2.88c1.92,0,3.84,0,5.76,0
	c0-2.939,0-5.88,0-8.82c0-2.879,0-5.76,0-8.639c-1.92,0-3.84,0-5.76,0c0,1.92,0,3.84,0,5.76c-1.92,0-3.841,0-5.771,0
	c-1.92,0-3.84,0-5.76,0c0-1.92,0-3.84,0-5.76c-1.91,0-3.83,0-5.75,0c0-1.92,0-3.84,0-5.76c1.92,0,3.84,0,5.75,0
	c1.45,0,2.88,0,4.33,0c1.43,0,2.88,0,4.32,0c1.439,0,2.88,0,4.31,0c1.45,0,2.88,0,4.33,0c0,1.92,0,3.84,0,5.76c1.92,0,3.84,0,5.75,0
	c0-1.92,0-3.84,0-5.76c3.84,0,7.68,0,11.53,0c0-1.92,0-3.84,0-5.76c-1.92,0-3.851,0-5.771,0c0-3.84,0-7.68,0-11.52
	c-1.92,0-3.84,0-5.76,0c0-1.92,0-3.84,0-5.76c-7.67,0-15.351,0-23.04,0c0,1.92,0,3.84,0,5.76c-1.91,0-3.83,0-5.75,0
	c-0.54,0-1.08,0-1.62,0c-0.479,0-0.96,0-1.44,0c-0.97,0-1.93,0-2.89,0c0,1.92,0,3.84,0,5.76c-1.92,0-3.84,0-5.76,0
	C46.08,65.46,46.08,67.38,46.08,69.3z"/>
<path fill="#7B7B7B" d="M46.08,57.78c0,1.92,0,3.84,0,5.76c1.92,0,3.84,0,5.76,0c0-1.92,0-3.84,0-5.76
	C49.92,57.78,48,57.78,46.08,57.78z"/>
<path fill="#232034" d="M46.08,52.02c0,1.92,0,3.84,0,5.76c1.92,0,3.84,0,5.76,0c0.96,0,1.92,0,2.89,0c0.48,0,0.961,0,1.44,0
	c0.54,0,1.08,0,1.62,0c0-1.92,0-3.84,0-5.76c-0.96,0-1.92,0-2.88,0c-0.49,0-0.96,0-1.45,0c-0.54,0-1.08,0-1.62,0
	C49.92,52.02,48,52.02,46.08,52.02z"/>
<path fill="#232034" d="M51.84,115.56c0,1.92,0,3.84,0,5.761c0.07,0,0.12,0,0.19,0c0.47,0,0.96,0,1.43,0c0.49,0,0.96,0,1.45,0
	c0.96,0,1.92,0,2.88,0c0-1.921,0-3.841,0-5.761c-0.96,0-1.92,0-2.88,0c-0.49,0-0.96,0-1.45,0
	C52.92,115.56,52.38,115.56,51.84,115.56z"/>
<path fill="#AAAAAB" d="M51.84,109.8c0,1.92,0,3.84,0,5.76c0.54,0,1.08,0,1.62,0c0.49,0,0.96,0,1.45,0c0.96,0,1.92,0,2.88,0
	c0-1.92,0-3.84,0-5.76c-0.96,0-1.92,0-2.88,0c-0.49,0-0.96,0-1.45,0C52.92,109.8,52.38,109.8,51.84,109.8z"/>
<path fill="#010101" d="M51.84,104.04c0,1.92,0,3.84,0,5.761c0.54,0,1.08,0,1.62,0c0.49,0,0.96,0,1.45,0c0.96,0,1.92,0,2.88,0
	c0,1.92,0,3.84,0,5.76c2.88,0,5.75,0,8.63,0s5.771,0,8.65,0c0-1.92,0-3.84,0-5.76c3.84,0,7.68,0,11.51,0c0-1.921,0-3.841,0-5.761
	c-1.91,0-3.83,0-5.75,0c0-1.92,0-3.84,0-5.76c-1.92,0-3.84,0-5.76,0c0-0.959,0-1.92,0-2.88c0-0.479,0-0.96,0-1.44
	c0-0.539,0-1.08,0-1.619c-1.92,0-3.841,0-5.771,0c0,0.96,0,1.92,0,2.88c0,0.479,0,0.96,0,1.44c0,0.539,0,1.08,0,1.619
	c-1.92,0-3.84,0-5.76,0c0-0.959,0-1.92,0-2.88c0-0.479,0-0.96,0-1.44c0-0.539,0-1.08,0-1.619c-1.91,0-3.83,0-5.75,0
	c0,0.18,0,0.359,0,0.539c0,0.121,0,0.24,0,0.361c0,0.239,0,0.479,0,0.719c0,0.48,0,0.961,0,1.44c0,0.96,0,1.921,0,2.88
	c0,1.92,0,3.84,0,5.76c-0.54,0-1.08,0-1.62,0c-0.479,0-0.96,0-1.44,0C53.76,104.04,52.8,104.04,51.84,104.04z"/>
<path fill="#232034" d="M51.84,98.28c0,1.92,0,3.84,0,5.76c0.96,0,1.92,0,2.89,0c0.48,0,0.961,0,1.44,0c0.54,0,1.08,0,1.62,0
	c0-1.92,0-3.84,0-5.76c-0.96,0-1.92,0-2.88,0c-0.49,0-0.96,0-1.45,0C52.92,98.28,52.38,98.28,51.84,98.28z"/>
<path fill="#AAAAAB" d="M51.84,95.4c0,0.96,0,1.921,0,2.88c0.54,0,1.08,0,1.62,0c0.49,0,0.96,0,1.45,0c0.96,0,1.92,0,2.88,0
	c0-0.959,0-1.92,0-2.88c0-0.479,0-0.96,0-1.44c0-0.239,0-0.479,0-0.719c0-0.121,0-0.24,0-0.361c0-0.18,0-0.359,0-0.539
	c-0.96,0-1.92,0-2.88,0c-0.49,0-0.96,0-1.45,0c-0.54,0-1.08,0-1.62,0c0,0.539,0,1.08,0,1.619C51.84,94.44,51.84,94.92,51.84,95.4z"
	/>
<path fill="#010101" d="M51.84,86.581c0,1.92,0,3.84,0,5.76c0.54,0,1.08,0,1.62,0c0.49,0,0.96,0,1.45,0c0.96,0,1.92,0,2.88,0
	c0-1.92,0-3.84,0-5.76c-0.061,0-0.12,0-0.18,0C55.69,86.581,53.76,86.581,51.84,86.581z"/>
<path fill="#232034" d="M57.79,121.321c0,1.92,0,3.84,0,5.76c7.67,0,15.36,0,23.04,0c0-1.92,0-3.84,0-5.76
	C73.15,121.321,65.46,121.321,57.79,121.321z"/>
<path fill="#AAAAAB" d="M57.79,115.56c0,1.92,0,3.84,0,5.761c7.67,0,15.36,0,23.04,0c0-1.921,0-3.841,0-5.761c1.92,0,3.84,0,5.75,0
	c0-1.92,0-3.84,0-5.76c-3.83,0-7.67,0-11.51,0c0,1.92,0,3.84,0,5.76c-2.88,0-5.771,0-8.65,0S60.67,115.56,57.79,115.56z"/>
<path fill="#7B7B7B" d="M57.79,75.06c0,1.92,0,3.84,0,5.76c1.92,0,3.84,0,5.75,0c0-1.92,0-3.84,0-5.76
	C61.63,75.06,59.71,75.06,57.79,75.06z"/>
<path fill="#7B7B7B" d="M57.79,52.02c0,1.92,0,3.84,0,5.76c1.92,0,3.84,0,5.75,0c0-1.92,0-3.84,0-5.76
	C61.63,52.02,59.71,52.02,57.79,52.02z"/>
<path fill="#232034" d="M57.79,46.26c0,1.92,0,3.84,0,5.76c1.92,0,3.84,0,5.75,0c7.689,0,15.37,0,23.04,0c1.92,0,3.84,0,5.76,0
	c0-1.92,0-3.84,0-5.76c-3.84,0-7.67,0-11.51,0s-7.68,0-11.53,0c-1.92,0-3.84,0-5.76,0C61.63,46.26,59.71,46.26,57.79,46.26z"/>
<path fill="#F79C7F" d="M57.79,34.74c0,1.92,0,3.84,0,5.76c1.92,0,3.84,0,5.75,0c0-1.92,0-3.84,0-5.76
	C61.63,34.74,59.71,34.74,57.79,34.74z"/>
<path fill="#F15A46" d="M63.54,80.82c0,1.92,0,3.84,0,5.76c1.92,0,3.84,0,5.76,0c0-1.92,0-3.84,0-5.76
	C67.38,80.82,65.46,80.82,63.54,80.82z"/>
<path fill="#010101" d="M63.54,75.06c0,1.92,0,3.84,0,5.76c1.92,0,3.84,0,5.76,0c0,1.92,0,3.84,0,5.76c1.93,0,3.851,0,5.771,0
	c0-1.92,0-3.84,0-5.76c1.92,0,3.84,0,5.76,0c0-1.92,0-3.84,0-5.76c-1.45,0-2.88,0-4.33,0c-1.43,0-2.87,0-4.31,0
	c-1.44,0-2.891,0-4.32,0C66.42,75.06,64.99,75.06,63.54,75.06z"/>
<path fill="#F79C7F" d="M63.54,40.5c0,1.92,0,3.84,0,5.76c1.92,0,3.84,0,5.76,0c0-1.92,0-3.84,0-5.76
	C67.38,40.5,65.46,40.5,63.54,40.5z"/>
<path fill="#232034" d="M80.83,115.56c0,1.92,0,3.84,0,5.761c1.92,0,3.84,0,5.75,0c1.92,0,3.84,0,5.76,0c0-1.921,0-3.841,0-5.761
	c-1.92,0-3.84,0-5.76,0C84.67,115.56,82.75,115.56,80.83,115.56z"/>
<path fill="#AAAAAB" d="M80.83,98.28c0,1.92,0,3.84,0,5.76c1.92,0,3.84,0,5.75,0c0-1.92,0-3.84,0-5.76
	C84.67,98.28,82.75,98.28,80.83,98.28z"/>
<path fill="#7B7B7B" d="M80.83,89.459c0,2.94,0,5.881,0,8.82c1.92,0,3.84,0,5.75,0c0-0.539,0-1.08,0-1.619c0-0.48,0-0.961,0-1.44
	c0-0.96,0-1.92,0-2.88c1.92,0,3.84,0,5.76,0c0-1.92,0-3.84,0-5.76c1.92,0,3.851,0,5.771,0c0-1.92,0-3.84,0-5.76
	c1.92,0,3.84,0,5.76,0c0-2.88,0-5.76,0-8.64s0-5.76,0-8.64c-1.92,0-3.84,0-5.76,0c0-1.92,0-3.84,0-5.76c-1.92,0-3.851,0-5.771,0
	c0,3.84,0,7.68,0,11.52c1.92,0,3.851,0,5.771,0c0,1.92,0,3.84,0,5.76c-3.851,0-7.69,0-11.53,0c0,1.92,0,3.84,0,5.76
	c-1.91,0-3.83,0-5.75,0C80.83,83.7,80.83,86.581,80.83,89.459z"/>
<path fill="#F79C7F" d="M80.83,34.74c0,3.84,0,7.68,0,11.52c3.84,0,7.67,0,11.51,0c0,1.92,0,3.84,0,5.76c1.92,0,3.851,0,5.771,0
	c0-3.84,0-7.68,0-11.52c-1.92,0-3.851,0-5.771,0c0-1.92,0-3.84,0-5.76C88.5,34.74,84.67,34.74,80.83,34.74z"/>
<path fill="#D42C41" d="M80.83,11.52c0,1.92,0,3.84,0,5.76c3.84,0,7.67,0,11.51,0c0,1.92,0,3.84,0,5.76c3.851,0,7.69,0,11.53,0
	c0-1.92,0-3.84,0-5.76c3.84,0,7.67,0,11.51,0c0,1.92,0,3.84,0,5.76c3.85,0,7.69,0,11.53,0c0,0.54,0,1.08,0,1.62
	c0,0.48,0,0.96,0,1.44c0,0.96,0,1.92,0,2.88c0,1.92,0,3.84,0,5.76c3.89,0,7.8,0,11.7,0c0,1.92,0,3.84,0,5.76c3.84,0,7.68,0,11.52,0
	c0-1.92,0-3.84,0-5.76c-1.92,0-3.84,0-5.76,0c0-0.18,0-0.36,0-0.54c0-0.36,0-0.72,0-1.08c0-0.42,0-0.84,0-1.26c0-0.36,0-0.72,0-1.08
	c0-0.18,0-0.36,0-0.54c0-0.24,0-0.48,0-0.72c0-0.18,0-0.36,0-0.54c-3.84,0-7.68,0-11.53,0c0-0.18,0-0.36,0-0.54
	c0-0.18,0-0.36,0-0.54c0-0.24,0-0.48,0-0.72c0-0.18,0-0.36,0-0.54c0-0.24,0-0.48,0-0.72c0-0.18,0-0.36,0-0.54c0-0.24,0-0.48,0-0.72
	c0-0.48,0-0.96,0-1.44c0-0.18,0-0.36,0-0.54c0-0.24,0-0.48,0-0.72c0-0.48,0-0.96,0-1.44c0-0.9,0-1.8,0-2.7c0-0.18,0-0.36,0-0.54
	c-0.96,0-1.92,0-2.88,0c-0.47,0-0.96,0-1.43,0c-0.24,0-0.49,0-0.73,0c-0.109,0-0.229,0-0.35,0c-0.19,0-0.37,0-0.54,0
	c0-1.92,0-3.84,0-5.76c-1.92,0-3.84,0-5.76,0c0-1.92,0-3.84,0-5.76c-5.771,0-11.521,0-17.28,0c0,1.92,0,3.84,0,5.76
	c-0.12,0-0.24,0-0.37,0c-1.79,0-3.59,0-5.39,0c-0.42,0-0.851,0-1.271,0c-0.47,0-0.96,0-1.43,0c-0.96,0-1.92,0-2.88,0
	c-0.42,0-0.84,0-1.271,0c-0.47,0-0.96,0-1.43,0c-0.96,0-1.92,0-2.88,0c-0.42,0-0.84,0-1.26,0c-0.48,0-0.961,0-1.44,0
	c-0.49,0-0.96,0-1.45,0c-0.229,0-0.47,0-0.72,0c-0.24,0-0.47,0-0.71,0C81.19,11.52,81,11.52,80.83,11.52z"/>
<path fill="#F79C7F" d="M86.58,121.321c0,1.92,0,3.84,0,5.76c1.92,0,3.84,0,5.76,0c0-1.92,0-3.84,0-5.76
	C90.42,121.321,88.5,121.321,86.58,121.321z"/>
<path fill="#7B7B7B" d="M86.58,109.8c0,1.92,0,3.84,0,5.76c1.92,0,3.84,0,5.76,0c0-1.92,0-3.84,0-5.76
	C90.42,109.8,88.5,109.8,86.58,109.8z"/>
<path fill="#AAAAAB" d="M86.58,104.04c0,1.92,0,3.84,0,5.761c1.92,0,3.84,0,5.76,0c0-1.921,0-3.841,0-5.761
	C90.42,104.04,88.5,104.04,86.58,104.04z"/>
<path fill="#232034" d="M86.58,98.28c0,1.92,0,3.84,0,5.76c1.92,0,3.84,0,5.76,0c0-1.92,0-3.84,0-5.76c1.92,0,3.851,0,5.771,0
	c0-0.959,0-1.92,0-2.88c0-1.021,0-2.04,0-3.06c1.92,0,3.84,0,5.76,0c0-1.92,0-3.84,0-5.76c1.92,0,3.84,0,5.76,0
	c0-2.881,0-5.76,0-8.641c0-2.88,0-5.76,0-8.64c0-1.92,0-3.84,0-5.76c-1.92,0-3.84,0-5.76,0c0,2.88,0,5.76,0,8.64s0,5.76,0,8.64
	c-1.92,0-3.84,0-5.76,0c0,1.92,0,3.84,0,5.76c-1.92,0-3.851,0-5.771,0c0,1.92,0,3.84,0,5.76c-1.92,0-3.84,0-5.76,0
	c0,0.96,0,1.92,0,2.88c0,0.479,0,0.96,0,1.44C86.58,97.2,86.58,97.741,86.58,98.28z"/>
<path fill="#7B7B7B" d="M86.58,52.02c0,1.92,0,3.84,0,5.76c1.92,0,3.84,0,5.76,0c0-1.92,0-3.84,0-5.76
	C90.42,52.02,88.5,52.02,86.58,52.02z"/>
<path fill="#F79C7F" d="M92.34,115.56c0,1.92,0,3.84,0,5.761c1.92,0,3.851,0,5.771,0c0-1.921,0-3.841,0-5.761
	C96.19,115.56,94.26,115.56,92.34,115.56z"/>
<path fill="#232034" d="M92.34,109.8c0,1.92,0,3.84,0,5.76c1.92,0,3.851,0,5.771,0c0-3.84,0-7.681,0-11.521c-1.92,0-3.851,0-5.771,0
	C92.34,105.959,92.34,107.879,92.34,109.8z"/>
<path fill="#F15A46" d="M92.34,98.28c0,1.92,0,3.84,0,5.76c1.92,0,3.851,0,5.771,0c0-1.92,0-3.84,0-5.76
	C96.19,98.28,94.26,98.28,92.34,98.28z"/>
<path fill="#232034" d="M92.34,52.02c0,1.92,0,3.84,0,5.76c1.92,0,3.851,0,5.771,0c0-1.92,0-3.84,0-5.76
	C96.19,52.02,94.26,52.02,92.34,52.02z"/>
<path fill="#F79C7F" d="M98.11,104.04c0,3.84,0,7.681,0,11.521c3.84,0,7.68,0,11.52,0c0-1.92,0-3.84,0-5.76c-1.92,0-3.84,0-5.76,0
	c0-1.921,0-3.841,0-5.761c1.92,0,3.84,0,5.76,0c0-1.92,0-3.84,0-5.76c3.83,0,7.67,0,11.521,0c0-0.3,0-0.6,0-0.9
	c0-0.239,0-0.479,0-0.719c0-0.48,0-0.961,0-1.44c0-0.96,0-1.92,0-2.88c1.92,0,3.84,0,5.76,0c0-3.84,0-7.68,0-11.52
	c1.97,0,3.96,0,5.93,0c0-3.84,0-7.68,0-11.52c1.92,0,3.851,0,5.771,0c0-3.84,0-7.68,0-11.52c-1.92,0-3.851,0-5.771,0
	c0-1.92,0-3.84,0-5.76c-3.89,0-7.8,0-11.689,0c0-1.92,0-3.84,0-5.76c-1.921,0-3.851,0-5.771,0c0,1.92,0,3.84,0,5.76
	c-5.75,0-11.51,0-17.27,0c0,1.92,0,3.84,0,5.76c1.92,0,3.84,0,5.76,0c0,1.92,0,3.84,0,5.76c1.92,0,3.84,0,5.76,0
	c0,1.92,0,3.84,0,5.76c1.91,0,3.83,0,5.75,0c0,1.92,0,3.84,0,5.76c1.92,0,3.85,0,5.771,0c0-1.92,0-3.84,0-5.76c1.92,0,3.84,0,5.76,0
	c0,0.18,0,0.36,0,0.54c0,0.42,0,0.84,0,1.26s0,0.84,0,1.26c0,0.42,0,0.84,0,1.26s0,0.84,0,1.26c0,0.06,0,0.12,0,0.18
	c-1.92,0-3.84,0-5.76,0c0,1.92,0,3.84,0,5.76c-1.921,0-3.851,0-5.771,0c0,3.84,0,7.68,0,11.52c-1.92,0-3.84,0-5.75,0
	c0-1.92,0-3.84,0-5.76c-1.92,0-3.84,0-5.76,0c0,1.92,0,3.84,0,5.76c-1.92,0-3.84,0-5.76,0c0,1.02,0,2.039,0,3.06
	c0,0.96,0,1.921,0,2.88C98.11,100.2,98.11,102.12,98.11,104.04z"/>
<path fill="#232034" d="M98.11,57.78c0,1.92,0,3.84,0,5.76c1.92,0,3.84,0,5.76,0c0-1.92,0-3.84,0-5.76
	C101.95,57.78,100.03,57.78,98.11,57.78z"/>
<path fill="#F79C7F" d="M98.11,34.74c0,1.92,0,3.84,0,5.76c1.92,0,3.84,0,5.76,0c0-1.74,0-3.48,0-5.22c0-0.18,0-0.36,0-0.54
	C101.95,34.74,100.03,34.74,98.11,34.74z"/>
<path fill="#FFFFFF" d="M109.63,86.581c0,1.92,0,3.84,0,5.76c1.91,0,3.83,0,5.75,0c0-3.84,0-7.68,0-11.52c1.92,0,3.85,0,5.771,0
	c0-1.92,0-3.84,0-5.76c-1.921,0-3.851,0-5.771,0c0-1.92,0-3.84,0-5.76c-1.92,0-3.84,0-5.75,0c0,2.88,0,5.76,0,8.64
	C109.63,80.82,109.63,83.7,109.63,86.581z"/>
<path fill="#FFFFFF" d="M121.15,69.3c0,1.92,0,3.84,0,5.76c1.92,0,3.84,0,5.76,0c0-0.06,0-0.12,0-0.18c0-0.42,0-0.84,0-1.26
	s0-0.84,0-1.26c0-0.42,0-0.84,0-1.26s0-0.84,0-1.26c0-0.18,0-0.36,0-0.54C124.99,69.3,123.07,69.3,121.15,69.3z"/>
<path fill="#D42C41" d="M150.13,75.78c0,1.68,0,3.36,0,5.04c1.91,0,3.83,0,5.75,0c0-3.84,0-7.68,0-11.52c1.92,0,3.85,0,5.771,0
	c0-1.44,0-2.88,0-4.32s0-2.88,0-4.32s0-2.88,0-4.32c0-1.44,0-2.88,0-4.32c-1.921,0-3.851,0-5.771,0c0-0.18,0-0.36,0-0.54
	c0-3.66,0-7.32,0-10.98c-1.92,0-3.84,0-5.75,0c0,1.68,0,3.36,0,5.04s0,3.36,0,5.04s0,3.36,0,5.04s0,3.36,0,5.04
	c0,0.84,0,1.68,0,2.52c0,0.42,0,0.84,0,1.26s0,0.84,0,1.26c0,1.68,0,3.36,0,5.04c0,0.84,0,1.68,0,2.52c0,0.42,0,0.84,0,1.26
	S150.13,75.36,150.13,75.78z"/>
</svg>
