<?xml version="1.0" encoding="utf-8"?>
<!-- Generator: Adobe Illustrator 15.0.0, SVG Export Plug-In  -->
<!DOCTYPE svg PUBLIC "-//W3C//DTD SVG 1.1//EN" "http://www.w3.org/Graphics/SVG/1.1/DTD/svg11.dtd" [
	<!ENTITY ns_flows "http://ns.adobe.com/Flows/1.0/">
]>
<svg version="1.1"
	 xmlns="http://www.w3.org/2000/svg" xmlns:xlink="http://www.w3.org/1999/xlink" xmlns:a="http://ns.adobe.com/AdobeSVGViewerExtensions/3.0/"
	 x="0px" y="0px" width="200px" height="200px" viewBox="-24.73 -21.49 200 200" enable-background="new -24.73 -21.49 200 200"
	 xml:space="preserve">
<defs>
</defs>
<path fill="#D42C41" d="M0,63.54c0,3.84,0,7.68,0,11.52c1.91,0,3.84,0,5.76,0c0,3.84,0,7.681,0,11.521c1.92,0,3.84,0,5.76,0
	c0,0.18,0,0.359,0,0.539c0,0.361,0,0.721,0,1.08c0,0.42,0,0.84,0,1.261c0,0.36,0,0.72,0,1.079c0,0.181,0,0.361,0,0.541
	c0,0.24,0,0.479,0,0.72c0,0.181,0,0.36,0,0.54c1.91,0,3.84,0,5.76,0c0,1.92,0,3.84,0,5.76c1.92,0,3.84,0,5.76,0
	c0,1.92,0,3.84,0,5.76c1.91,0,3.84,0,5.761,0c0-1.92,0-3.84,0-5.76c1.92,0,3.84,0,5.76,0c0-1.92,0-3.84,0-5.76
	c-3.84,0-7.681,0-11.521,0c0-1.92,0-3.84,0-5.76c-1.92,0-3.84,0-5.76,0c0-3.84,0-7.68,0-11.521c-1.92,0-3.85,0-5.76,0
	c0-3.84,0-7.68,0-11.52c1.91,0,3.84,0,5.76,0c0-1.92,0-3.84,0-5.76c1.92,0,3.84,0,5.76,0c0-4.86,0-9.72,0-14.58
	c0-0.18,0-0.36,0-0.54c0-0.12,0-0.24,0-0.36c0-0.18,0-0.36,0-0.54c0-0.12,0-0.24,0-0.36c0-0.6,0-1.2,0-1.8c0-0.18,0-0.36,0-0.54
	c0-0.12,0-0.24,0-0.36c0-0.18,0-0.36,0-0.54c0-0.12,0-0.24,0-0.36c0-0.6,0-1.2,0-1.8c0-1.2,0-2.4,0-3.6c0-1.2,0-2.4,0-3.6
	c1.91,0,3.84,0,5.761,0c0-1.92,0-3.84,0-5.76c3.84,0,7.67,0,11.521,0c0-1.92,0-3.84,0-5.76c0.18,0,0.359,0,0.539,0
	c1.381,0,2.76,0,4.141,0c0.359,0,0.72,0,1.08,0c0.18,0,0.35,0,0.539,0c0.121,0,0.24,0,0.351,0c0.67,0,1.33,0,1.979,0
	c1.391,0,2.771,0,4.15,0c0.35,0,0.721,0,1.08,0c0.18,0,0.359,0,0.54,0c0.12,0,0.229,0,0.36,0c0.66,0,1.31,0,1.979,0
	c0.181,0,0.351,0,0.54,0c0-1.92,0-3.84,0-5.76c0.18,0,0.35,0,0.54,0c1.44,0,2.88,0,4.31,0c1.391,0,2.771,0,4.15,0
	c1.37,0,2.76,0,4.141,0c0.359,0,0.709,0,1.08,0c0.18,0,0.359,0,0.539,0s0.36,0,0.54,0c0.181,0,0.36,0,0.53,0c0.189,0,0.37,0,0.54,0
	c0.31,0,0.61,0,0.91,0c0.05,0,0.12,0,0.18,0c0,1.92,0,3.84,0,5.76c3.83,0,7.68,0,11.52,0c0-1.92,0-3.84,0-5.76
	c-1.92,0-3.84,0-5.76,0c0-1.92,0-3.84,0-5.76c-1.93,0-3.85,0-5.76,0c0-0.18,0-0.36,0-0.54c0-1.56,0-3.12,0-4.68
	c0-0.18,0-0.36,0-0.54c-0.96,0-1.92,0-2.88,0s-1.92,0-2.88,0s-1.921,0-2.89,0c-0.961,0-1.91,0-2.871,0c-0.959,0-1.92,0-2.879,0
	c-0.961,0-1.92,0-2.881,0c-0.959,0-1.92,0-2.88,0c-0.489,0-0.97,0-1.45,0c-0.539,0-1.07,0-1.609,0c0,1.92,0,3.84,0,5.76
	c-1.93,0-3.84,0-5.76,0c0,1.92,0,3.84,0,5.76c-0.181,0-0.36,0-0.541,0c-3.66,0-7.319,0-10.979,0c0,1.92,0,3.84,0,5.76
	c-0.13,0-0.239,0-0.36,0c-1.379,0-2.77,0-4.14,0c-1.44,0-2.88,0-4.319,0c-1.381,0-2.771,0-4.141,0c-1.439,0-2.88,0-4.32,0
	c0,3.84,0,7.68,0,11.52c-1.92,0-3.85,0-5.76,0c0,2.88,0,5.76,0,8.64c0,2.94,0,5.88,0,8.82c1.91,0,3.84,0,5.76,0
	c0,1.92,0,3.84,0,5.76c-1.92,0-3.85,0-5.76,0c0,1.92,0,3.84,0,5.76c-0.18,0-0.359,0-0.55,0c-0.771,0-1.56,0-2.33,0
	c-0.19,0-0.36,0-0.54,0c-0.189,0-0.359,0-0.54,0c-0.42,0-0.84,0-1.26,0c-0.181,0-0.37,0-0.54,0c0,1.92,0,3.84,0,5.76
	c-0.18,0-0.36,0-0.54,0c-0.181,0-0.36,0-0.54,0s-0.359,0-0.54,0c-0.42,0-0.84,0-1.261,0c-0.18,0-0.359,0-0.539,0s-0.37,0-0.54,0
	c-0.181,0-0.37,0-0.54,0c-0.24,0-0.48,0-0.721,0C0.359,63.54,0.18,63.54,0,63.54z"/>
<path fill="#D42C41" d="M11.52,119.699c0,0.541,0,1.08,0,1.621c1.91,0,3.84,0,5.76,0c0,0.18,0,0.359,0,0.539c0,3.66,0,7.32,0,10.98
	c3.84,0,7.67,0,11.521,0c0,1.92,0,3.84,0,5.76c0.17,0,0.36,0,0.54,0s0.359,0,0.539,0c0.361,0,0.721,0,1.07,0c0.19,0,0.371,0,0.551,0
	s0.359,0,0.539,0c0.36,0,0.721,0,1.08,0c0.181,0,0.351,0,0.541,0c0.18,0,0.359,0,0.539,0c0.36,0,0.711,0,1.08,0
	c0.17,0,0.36,0,0.541,0c0.18,0,0.359,0,0.539,0c0.36,0,0.721,0,1.07,0c0.189,0,0.37,0,0.54,0c0.19,0,0.37,0,0.55,0
	c0.359,0,0.721,0,1.08,0c0.18,0,0.35,0,0.54,0c0.181,0,0.36,0,0.54,0c0.359,0,0.72,0,1.08,0c0.17,0,0.359,0,0.54,0
	c0.17,0,0.36,0,0.54,0c0.359,0,0.72,0,1.07,0c0.189,0,0.369,0,0.539,0c0.19,0,0.371,0,0.551,0c0.359,0,0.72,0,1.08,0
	c0-1.92,0-3.84,0-5.76c0.18,0,0.35,0,0.539,0c1.561,0,3.121,0,4.681,0c0.17,0,0.36,0,0.54,0c0-1.92,0-3.84,0-5.76s0-3.84,0-5.76
	c-1.93,0-3.84,0-5.76,0c0,1.92,0,3.84,0,5.76c-0.721,0-1.44,0-2.17,0c-0.17,0-0.351,0-0.531,0c-0.18,0-0.359,0-0.539,0
	c-0.37,0-0.721,0-1.08,0c-0.18,0-0.36,0-0.54,0c-0.181,0-0.36,0-0.54,0c-0.359,0-0.73,0-1.08,0c-0.189,0-0.359,0-0.54,0
	s-0.36,0-0.54,0c-0.359,0-0.72,0-1.09,0c-0.17,0-0.35,0-0.53,0c-0.18,0-0.36,0-0.54,0c-0.359,0-0.72,0-1.08,0
	c-0.18,0-0.369,0-0.539,0c-0.181,0-0.361,0-0.541,0c-0.359,0-0.729,0-1.08,0c-0.189,0-0.359,0-0.539,0c-0.181,0-0.36,0-0.541,0
	c-0.359,0-0.719,0-1.09,0c-0.709,0-1.43,0-2.149,0c0-1.92,0-3.84,0-5.76c-1.921,0-3.851,0-5.761,0c0-2.881,0-5.761,0-8.641
	c0-1.439,0-2.88,0-4.32c0-1.5,0-3,0-4.5c-1.92,0-3.84,0-5.76,0c0,1.92,0,3.84,0,5.76c-1.92,0-3.85,0-5.76,0c0,1.92,0,3.841,0,5.761
	c0,0.96,0,1.92,0,2.88C11.52,118.74,11.52,119.22,11.52,119.699z"/>
<path fill="#F15A46" d="M11.52,63.54c0,3.84,0,7.68,0,11.52c1.91,0,3.84,0,5.76,0c0,3.84,0,7.681,0,11.521c1.92,0,3.84,0,5.76,0
	c0,1.92,0,3.84,0,5.76c3.84,0,7.681,0,11.521,0c0-5.76,0-11.52,0-17.28c0-1.92,0-3.84,0-5.76c1.91,0,3.83,0,5.761,0
	c0-1.92,0-3.84,0-5.76c0-1.92,0-3.84,0-5.76c1.92,0,3.84,0,5.76,0s3.83,0,5.76,0c0-1.92,0-3.84,0-5.76c-3.84,0-7.68,0-11.52,0
	c0-3.84,0-7.68,0-11.52c2.879,0,5.76,0,8.629,0c2.891,0,5.771,0,8.65,0c0,1.92,0,3.84,0,5.76c-1.92,0-3.84,0-5.76,0
	c0,1.92,0,3.84,0,5.76c1.92,0,3.84,0,5.76,0c3.9,0,7.79,0,11.7,0c3.84,0,7.67,0,11.52,0c0-3.84,0-7.68,0-11.52c1.92,0,3.84,0,5.76,0
	c0-0.96,0-1.92,0-2.88s0-1.92,0-2.88c0-0.06,0-0.12,0-0.18c7.681,0,15.351,0,23.04,0c0,1.98,0,3.96,0,5.94c-3.84,0-7.689,0-11.52,0
	c0,1.92,0,3.84,0,5.76c1.92,0,3.83,0,5.76,0c0,0.18,0,0.36,0,0.54c0,1.44,0,2.88,0,4.32c0,1.38,0,2.76,0,4.14s0,2.76,0,4.14
	c0,1.38,0,2.76,0,4.14c3.84,0,7.68,0,11.52,0c0,1.92,0,3.84,0,5.76c1.44,0,2.881,0,4.32,0c1.44,0,2.88,0,4.32,0
	c2.88,0,5.76,0,8.64,0c0,1.92,0,3.84,0,5.76c0.54,0,1.08,0,1.62,0c0.48,0,0.96,0,1.44,0c0.96,0,1.92,0,2.88,0c1.92,0,3.83,0,5.76,0
	c0-5.76,0-11.52,0-17.28c-1.93,0-3.84,0-5.76,0c0-1.92,0-3.84,0-5.76c-1.92,0-3.84,0-5.76,0c-0.961,0-1.931,0-2.891,0
	c-0.479,0-0.95,0-1.43,0c-0.24,0-0.48,0-0.72,0c-0.24,0-0.48,0-0.721,0c-0.06,0-0.13,0-0.18,0c0-3.84,0-7.68,0-11.52
	c1.92,0,3.84,0,5.76,0c0-2.94,0-5.88,0-8.82c0-2.88,0-5.76,0-8.64c-3.84,0-7.689,0-11.52,0c0-1.92,0-3.84,0-5.76
	c-0.19,0-0.36,0-0.54,0c-0.3,0-0.601,0-0.9,0c-0.359,0-0.729,0-1.08,0c-0.12,0-0.24,0-0.359,0c-0.181,0-0.36,0-0.54,0
	c-0.36,0-0.721,0-1.08,0c-1.38,0-2.761,0-4.141,0c-0.12,0-0.239,0-0.359,0c-0.19,0-0.36,0-0.54,0c-0.36,0-0.721,0-1.08,0
	c-0.12,0-0.24,0-0.36,0c-0.189,0-0.359,0-0.54,0c-0.359,0-0.72,0-1.08,0c-1.38,0-2.76,0-4.14,0c-0.18,0-0.36,0-0.54,0
	c0,1.92,0,3.84,0,5.76c-1.45,0-2.89,0-4.32,0c-1.439,0-2.88,0-4.319,0c-1.44,0-2.88,0-4.32,0c-1.45,0-2.88,0-4.32,0
	c0-1.92,0-3.84,0-5.76c-3.84,0-7.689,0-11.52,0c0-1.92,0-3.84,0-5.76c-0.06,0-0.13,0-0.18,0c-0.3,0-0.6,0-0.91,0
	c-0.17,0-0.351,0-0.54,0c-0.17,0-0.35,0-0.53,0c-0.18,0-0.36,0-0.54,0s-0.359,0-0.539,0c-0.371,0-0.721,0-1.08,0
	c-1.381,0-2.771,0-4.141,0c-1.38,0-2.76,0-4.15,0c-1.43,0-2.869,0-4.31,0c-0.19,0-0.36,0-0.54,0c0,1.92,0,3.84,0,5.76
	c-0.189,0-0.359,0-0.54,0c-0.67,0-1.319,0-1.979,0c-0.131,0-0.24,0-0.36,0c-0.181,0-0.36,0-0.54,0c-0.359,0-0.73,0-1.08,0
	c-1.38,0-2.76,0-4.15,0c-0.649,0-1.31,0-1.979,0c-0.11,0-0.229,0-0.351,0c-0.189,0-0.359,0-0.539,0c-0.36,0-0.721,0-1.08,0
	c-1.381,0-2.76,0-4.141,0c-0.18,0-0.359,0-0.539,0c0,1.92,0,3.84,0,5.76c-3.851,0-7.681,0-11.521,0c0,1.92,0,3.84,0,5.76
	c-1.921,0-3.851,0-5.761,0c0,1.2,0,2.4,0,3.6c0,1.2,0,2.4,0,3.6c0,0.6,0,1.2,0,1.8c0,0.12,0,0.24,0,0.36c0,0.18,0,0.36,0,0.54
	c0,0.12,0,0.24,0,0.36c0,0.18,0,0.36,0,0.54c0,0.6,0,1.2,0,1.8c0,0.12,0,0.24,0,0.36c0,0.18,0,0.36,0,0.54c0,0.12,0,0.24,0,0.36
	c0,0.18,0,0.36,0,0.54c0,4.86,0,9.72,0,14.58c-1.92,0-3.84,0-5.76,0c0,1.92,0,3.84,0,5.76C15.359,63.54,13.43,63.54,11.52,63.54z"/>
<path fill="#F15A46" d="M23.039,112.68c0,2.88,0,5.76,0,8.641c1.91,0,3.84,0,5.761,0c0,1.92,0,3.84,0,5.76c0.72,0,1.44,0,2.149,0
	c0.371,0,0.73,0,1.09,0c0.181,0,0.36,0,0.541,0c0.18,0,0.35,0,0.539,0c0.351,0,0.721,0,1.08,0c0.18,0,0.36,0,0.541,0
	c0.17,0,0.359,0,0.539,0c0.36,0,0.721,0,1.08,0c0.18,0,0.36,0,0.54,0c0.181,0,0.36,0,0.53,0c0.37,0,0.73,0,1.09,0
	c0.18,0,0.359,0,0.54,0s0.351,0,0.54,0c0.35,0,0.721,0,1.08,0c0.18,0,0.359,0,0.54,0c0.18,0,0.36,0,0.54,0c0.359,0,0.71,0,1.08,0
	c0.18,0,0.359,0,0.539,0c0.181,0,0.361,0,0.531,0c0.729,0,1.449,0,2.17,0c0-1.92,0-3.84,0-5.76c0-0.541,0-1.08,0-1.621
	c0-0.479,0-0.959,0-1.439c0-0.96,0-1.92,0-2.88c0-1.92,0-3.841,0-5.761c1.92,0,3.83,0,5.76,0c0-1.92,0-3.84,0-5.76
	c-1.93,0-3.84,0-5.76,0s-3.84,0-5.76,0c0-1.92,0-3.84,0-5.76c-1.931,0-3.851,0-5.761,0c-1.92,0-3.84,0-5.76,0c0,1.92,0,3.84,0,5.76
	c-1.921,0-3.851,0-5.761,0c0,1.5,0,3,0,4.5C23.039,109.8,23.039,111.24,23.039,112.68z"/>
<path fill="#232034" d="M34.56,92.34c0,1.92,0,3.84,0,5.76c1.91,0,3.83,0,5.761,0c0-1.92,0-3.84,0-5.76s0-3.84,0-5.76s0-3.84,0-5.76
	c0-1.92,0-3.84,0-5.761c-1.931,0-3.851,0-5.761,0C34.56,80.82,34.56,86.58,34.56,92.34z"/>
<path fill="#F79C7F" d="M34.56,69.3c0,1.92,0,3.84,0,5.76c1.91,0,3.83,0,5.761,0c0-1.92,0-3.84,0-5.76
	C38.39,69.3,36.47,69.3,34.56,69.3z"/>
<path fill="#232034" d="M40.32,98.1c0,1.92,0,3.84,0,5.76c1.92,0,3.84,0,5.76,0c0-1.92,0-3.84,0-5.76
	C44.16,98.1,42.24,98.1,40.32,98.1z"/>
<path fill="#AAAAAB" d="M40.32,92.34c0,1.92,0,3.84,0,5.76c1.92,0,3.84,0,5.76,0s3.83,0,5.76,0c0-1.92,0-3.84,0-5.76
	c-1.93,0-3.84,0-5.76,0S42.24,92.34,40.32,92.34z"/>
<path fill="#F15A46" d="M40.32,86.58c0,1.92,0,3.84,0,5.76c1.92,0,3.84,0,5.76,0c0-1.92,0-3.84,0-5.76
	C44.16,86.58,42.24,86.58,40.32,86.58z"/>
<path fill="#010101" d="M40.32,80.82c0,1.92,0,3.84,0,5.76c1.92,0,3.84,0,5.76,0c0,1.92,0,3.84,0,5.76c1.92,0,3.83,0,5.76,0
	c0-3.84,0-7.68,0-11.52c-1.93,0-3.84,0-5.76,0S42.24,80.82,40.32,80.82z"/>
<path fill="#7B7B7B" d="M40.32,75.06c0,1.92,0,3.84,0,5.761c1.92,0,3.84,0,5.76,0c0-1.92,0-3.84,0-5.761
	C44.16,75.06,42.24,75.06,40.32,75.06z"/>
<path fill="#232034" d="M40.32,69.3c0,1.92,0,3.84,0,5.76c1.92,0,3.84,0,5.76,0c0-1.92,0-3.84,0-5.76s0-3.84,0-5.76
	c-1.92,0-3.84,0-5.76,0C40.32,65.46,40.32,67.38,40.32,69.3z"/>
<path fill="#F79C7F" d="M40.32,57.78c0,1.92,0,3.84,0,5.76c1.92,0,3.84,0,5.76,0c0-1.92,0-3.84,0-5.76
	C44.16,57.78,42.24,57.78,40.32,57.78z"/>
<path fill="#F79C7F" d="M40.32,40.5c0,3.84,0,7.68,0,11.52c3.84,0,7.68,0,11.52,0c0-1.92,0-3.84,0-5.76c1.92,0,3.84,0,5.76,0
	c0-1.92,0-3.84,0-5.76c-2.88,0-5.76,0-8.65,0C46.08,40.5,43.199,40.5,40.32,40.5z"/>
<path fill="#232034" d="M46.08,119.699c0,0.541,0,1.08,0,1.621c1.92,0,3.83,0,5.76,0c0-1.92,0-3.84,0-5.761c0-0.96,0-1.92,0-2.88
	c0-0.48,0-0.96,0-1.439c0-0.541,0-1.08,0-1.621c-1.93,0-3.84,0-5.76,0c0,1.92,0,3.841,0,5.761c0,0.96,0,1.92,0,2.88
	C46.08,118.74,46.08,119.22,46.08,119.699z"/>
<path fill="#010101" d="M46.08,98.1c0,1.92,0,3.84,0,5.76c1.92,0,3.83,0,5.76,0c0-1.92,0-3.84,0-5.76C49.91,98.1,48,98.1,46.08,98.1
	z"/>
<path fill="#AAAAAB" d="M46.08,75.06c0,1.92,0,3.84,0,5.761c1.92,0,3.83,0,5.76,0c0,3.84,0,7.68,0,11.52c1.92,0,3.84,0,5.76,0
	c0,1.92,0,3.84,0,5.76c1.92,0,3.83,0,5.76,0c0,1.92,0,3.84,0,5.76c0.54,0,1.07,0,1.61,0c0.479,0,0.96,0,1.44,0
	c0.969,0,1.93,0,2.89,0c0-1.92,0-3.84,0-5.76c0.17,0,0.36,0,0.54,0c1.74,0,3.48,0,5.22,0c0,1.92,0,3.84,0,5.76c1.91,0,3.83,0,5.76,0
	c0-1.439,0-2.879,0-4.32c0-1.439,0-2.879,0-4.319s0-2.88,0-4.319c0-1.44,0-2.881,0-4.32c-1.93,0-3.85,0-5.76,0c0,1.92,0,3.84,0,5.76
	c-1.92,0-3.84,0-5.76,0c-0.54,0-1.08,0-1.62,0c-0.48,0-0.96,0-1.439,0c-0.961,0-1.92,0-2.881,0c0-1.92,0-3.84,0-5.76
	c-1.93,0-3.84,0-5.76,0c0-0.18,0-0.36,0-0.541c0-0.84,0-1.68,0-2.52c0-0.42,0-0.84,0-1.26c0-0.24,0-0.48,0-0.721
	c0-0.239,0-0.479,0-0.719c1.92,0,3.83,0,5.76,0c1.5,0,3,0,4.5,0c1.44,0,2.881,0,4.32,0s2.88,0,4.319,0c1.431,0,2.88,0,4.32,0
	c0,1.92,0,3.84,0,5.76c1.92,0,3.84,0,5.76,0c0-1.92,0-3.84,0-5.76c3.83,0,7.681,0,11.521,0c0-1.92,0-3.84,0-5.761
	c-1.92,0-3.84,0-5.76,0c0-3.84,0-7.68,0-11.52c-1.931,0-3.841,0-5.761,0c0-1.92,0-3.84,0-5.76c-3.84,0-7.689,0-11.52,0
	c-1.92,0-3.84,0-5.76,0c-0.96,0-1.921,0-2.89,0c-0.48,0-0.961,0-1.44,0c-0.54,0-1.07,0-1.61,0c0,1.92,0,3.84,0,5.76
	c-1.93,0-3.84,0-5.76,0s-3.84,0-5.76,0c0,1.92,0,3.84,0,5.76c-1.93,0-3.84,0-5.76,0C46.08,71.22,46.08,73.14,46.08,75.06z"/>
<path fill="#7B7B7B" d="M46.08,63.54c0,1.92,0,3.84,0,5.76c1.92,0,3.83,0,5.76,0c0-1.92,0-3.84,0-5.76
	C49.91,63.54,48,63.54,46.08,63.54z"/>
<path fill="#232034" d="M46.08,57.78c0,1.92,0,3.84,0,5.76c1.92,0,3.83,0,5.76,0c1.92,0,3.84,0,5.76,0c0-1.92,0-3.84,0-5.76
	c-1.92,0-3.84,0-5.76,0C49.91,57.78,48,57.78,46.08,57.78z"/>
<path fill="#232034" d="M51.84,121.32c0,1.92,0,3.84,0,5.76c1.92,0,3.84,0,5.76,0c0-1.92,0-3.84,0-5.76
	C55.68,121.32,53.76,121.32,51.84,121.32z"/>
<path fill="#AAAAAB" d="M51.84,115.56c0,1.921,0,3.841,0,5.761c1.92,0,3.84,0,5.76,0c0-1.92,0-3.84,0-5.761
	C55.68,115.56,53.76,115.56,51.84,115.56z"/>
<path fill="#010101" d="M51.84,112.68c0,0.96,0,1.92,0,2.88c1.92,0,3.84,0,5.76,0c0,1.921,0,3.841,0,5.761c0.24,0,0.48,0,0.721,0
	c0.18,0,0.359,0,0.539,0c0.36,0,0.721,0,1.07,0c0.37,0,0.73,0,1.09,0c0.18,0,0.359,0,0.54,0s0.351,0,0.54,0c0.35,0,0.721,0,1.08,0
	c0.18,0,0.359,0,0.54,0c0.18,0,0.36,0,0.54,0c0.17,0,0.359,0,0.54,0c0.17,0,0.36,0,0.54,0s0.359,0,0.539,0c0.181,0,0.361,0,0.531,0
	c0.369,0,0.729,0,1.09,0c0.18,0,0.359,0,0.539,0c0.181,0,0.36,0,0.541,0c0.18,0,0.35,0,0.539,0c0.181,0,0.351,0,0.541,0
	c0.18,0,0.359,0,0.539,0s0.36,0,0.541,0c0.359,0,0.709,0,1.08,0c0.18,0,0.359,0,0.539,0s0.36,0,0.54,0c0.72,0,1.44,0,2.16,0
	c0-1.92,0-3.84,0-5.761c3.83,0,7.68,0,11.52,0c0-0.54,0-1.079,0-1.62c0-0.479,0-0.959,0-1.439c0-0.961,0-1.92,0-2.881
	c-1.92,0-3.84,0-5.76,0c0-1.92,0-3.84,0-5.76c-1.93,0-3.85,0-5.76,0c0-1.92,0-3.84,0-5.76c-1.739,0-3.479,0-5.22,0
	c-0.18,0-0.37,0-0.54,0c0,1.92,0,3.84,0,5.76c-0.96,0-1.921,0-2.89,0c-0.48,0-0.961,0-1.44,0c-0.54,0-1.07,0-1.61,0
	c0-1.92,0-3.84,0-5.76c-1.93,0-3.84,0-5.76,0c0,1.92,0,3.84,0,5.76s0,3.84,0,5.76c-1.92,0-3.84,0-5.76,0c0,0.541,0,1.08,0,1.621
	C51.84,111.72,51.84,112.199,51.84,112.68z"/>
<path fill="#232034" d="M51.84,103.859c0,1.92,0,3.84,0,5.76c1.92,0,3.84,0,5.76,0c0-1.92,0-3.84,0-5.76
	C55.68,103.859,53.76,103.859,51.84,103.859z"/>
<path fill="#AAAAAB" d="M51.84,98.1c0,1.92,0,3.84,0,5.76c1.92,0,3.84,0,5.76,0c0-1.92,0-3.84,0-5.76
	C55.68,98.1,53.76,98.1,51.84,98.1z"/>
<path fill="#010101" d="M51.84,92.34c0,1.92,0,3.84,0,5.76c1.92,0,3.84,0,5.76,0c0-1.92,0-3.84,0-5.76
	C55.68,92.34,53.76,92.34,51.84,92.34z"/>
<path fill="#F79C7F" d="M51.84,52.02c0,1.92,0,3.84,0,5.76c1.92,0,3.84,0,5.76,0c0-1.92,0-3.84,0-5.76
	C55.68,52.02,53.76,52.02,51.84,52.02z"/>
<path fill="#232034" d="M57.6,127.08c0,1.92,0,3.84,0,5.76c1.92,0,3.83,0,5.76,0c0.78,0,1.551,0,2.34,0c0.36,0,0.711,0,1.08,0
	c0.17,0,0.36,0,0.541,0c0.18,0,0.359,0,0.539,0c0.36,0,0.721,0,1.07,0c0.189,0,0.37,0,0.54,0c0.19,0,0.37,0,0.55,0
	c0.359,0,0.721,0,1.08,0c0.18,0,0.35,0,0.54,0c0.181,0,0.36,0,0.54,0c0.359,0,0.72,0,1.08,0c0.17,0,0.359,0,0.54,0
	c0.17,0,0.36,0,0.54,0c0.36,0,0.72,0,1.07,0c0.19,0,0.37,0,0.54,0c0.19,0,0.37,0,0.549,0c0.36,0,0.721,0,1.08,0
	c0.181,0,0.351,0,0.54,0c0.181,0,0.351,0,0.54,0c0.72,0,1.44,0,2.16,0c0-1.92,0-3.84,0-5.76c-0.96,0-1.93,0-2.89,0s-1.91,0-2.87,0
	s-1.92,0-2.88,0s-1.92,0-2.88,0s-1.921,0-2.89,0c-0.961,0-1.91,0-2.871,0c-0.959,0-1.92,0-2.879,0c-0.48,0-0.961,0-1.44,0
	C58.68,127.08,58.14,127.08,57.6,127.08z"/>
<path fill="#AAAAAB" d="M57.6,121.32c0,1.92,0,3.84,0,5.76c0.54,0,1.08,0,1.62,0c0.479,0,0.96,0,1.44,0c0.959,0,1.92,0,2.879,0
	c0.961,0,1.91,0,2.871,0c0.969,0,1.93,0,2.89,0s1.92,0,2.88,0s1.92,0,2.88,0s1.91,0,2.87,0s1.93,0,2.89,0c0-1.92,0-3.84,0-5.76
	c1.92,0,3.84,0,5.76,0c0-1.92,0-3.84,0-5.761c-3.84,0-7.689,0-11.52,0c0,1.921,0,3.841,0,5.761c-0.72,0-1.44,0-2.16,0
	c-0.18,0-0.36,0-0.54,0s-0.359,0-0.539,0c-0.371,0-0.721,0-1.08,0c-0.181,0-0.361,0-0.541,0s-0.359,0-0.539,0
	c-0.19,0-0.36,0-0.541,0c-0.189,0-0.359,0-0.539,0c-0.181,0-0.36,0-0.541,0c-0.18,0-0.359,0-0.539,0c-0.36,0-0.721,0-1.09,0
	c-0.17,0-0.351,0-0.531,0c-0.18,0-0.359,0-0.539,0s-0.37,0-0.54,0c-0.181,0-0.37,0-0.54,0c-0.18,0-0.36,0-0.54,0
	c-0.181,0-0.36,0-0.54,0c-0.359,0-0.73,0-1.08,0c-0.189,0-0.359,0-0.54,0s-0.36,0-0.54,0c-0.359,0-0.72,0-1.09,0
	c-0.35,0-0.71,0-1.07,0c-0.18,0-0.359,0-0.539,0C58.08,121.32,57.84,121.32,57.6,121.32z"/>
<path fill="#7B7B7B" d="M57.6,86.039c0,0.181,0,0.361,0,0.541c1.92,0,3.83,0,5.76,0c0-1.92,0-3.84,0-5.76c-1.93,0-3.84,0-5.76,0
	c0,0.239,0,0.479,0,0.719c0,0.24,0,0.48,0,0.721c0,0.42,0,0.84,0,1.26C57.6,84.359,57.6,85.199,57.6,86.039z"/>
<path fill="#7B7B7B" d="M57.6,57.78c0,1.92,0,3.84,0,5.76c1.92,0,3.83,0,5.76,0c0-1.92,0-3.84,0-5.76
	C61.43,57.78,59.52,57.78,57.6,57.78z"/>
<path fill="#232034" d="M57.6,52.02c0,1.92,0,3.84,0,5.76c1.92,0,3.83,0,5.76,0c0.54,0,1.07,0,1.61,0c0.479,0,0.96,0,1.44,0
	c0.969,0,1.93,0,2.89,0c1.92,0,3.84,0,5.76,0c3.83,0,7.68,0,11.52,0c1.92,0,3.83,0,5.761,0c0-1.92,0-3.84,0-5.76
	c-3.841,0-7.681,0-11.521,0c-3.85,0-7.68,0-11.52,0C65.39,52.02,61.5,52.02,57.6,52.02z"/>
<path fill="#D42C41" d="M63.359,132.84c0,1.92,0,3.84,0,5.76c3.9,0,7.801,0,11.7,0c0,1.92,0,3.84,0,5.76c1.91,0,3.83,0,5.76,0
	c0-3.84,0-7.68,0-11.52c-0.72,0-1.44,0-2.16,0c-0.189,0-0.359,0-0.54,0c-0.189,0-0.359,0-0.54,0c-0.359,0-0.72,0-1.08,0
	c-0.18,0-0.359,0-0.549,0c-0.17,0-0.35,0-0.54,0c-0.35,0-0.71,0-1.07,0c-0.18,0-0.37,0-0.54,0c-0.181,0-0.37,0-0.54,0
	c-0.36,0-0.721,0-1.08,0c-0.18,0-0.359,0-0.54,0c-0.19,0-0.36,0-0.54,0c-0.359,0-0.721,0-1.08,0c-0.18,0-0.359,0-0.55,0
	c-0.17,0-0.351,0-0.54,0c-0.35,0-0.71,0-1.07,0c-0.18,0-0.359,0-0.539,0c-0.181,0-0.371,0-0.541,0c-0.369,0-0.72,0-1.08,0
	C64.91,132.84,64.14,132.84,63.359,132.84z"/>
<path fill="#F15A46" d="M63.359,86.58c0,1.92,0,3.84,0,5.76c0.961,0,1.92,0,2.881,0c0.479,0,0.959,0,1.439,0c0.54,0,1.08,0,1.62,0
	c0-1.92,0-3.84,0-5.76c-0.96,0-1.921,0-2.89,0c-0.48,0-0.961,0-1.44,0C64.43,86.58,63.899,86.58,63.359,86.58z"/>
<path fill="#010101" d="M63.359,80.82c0,1.92,0,3.84,0,5.76c0.54,0,1.07,0,1.61,0c0.479,0,0.96,0,1.44,0c0.969,0,1.93,0,2.89,0
	c0,1.92,0,3.84,0,5.76c1.92,0,3.84,0,5.76,0c0-1.92,0-3.84,0-5.76c1.91,0,3.83,0,5.76,0c0-1.92,0-3.84,0-5.76c-1.44,0-2.89,0-4.32,0
	c-1.439,0-2.88,0-4.319,0s-2.88,0-4.32,0C66.359,80.82,64.859,80.82,63.359,80.82z"/>
<path fill="#D42C41" d="M80.819,144.359c0,1.92,0,3.84,0,5.76c1.92,0,3.84,0,5.76,0c0-1.92,0-3.84,0-5.76
	C84.659,144.359,82.739,144.359,80.819,144.359z"/>
<path fill="#F15A46" d="M80.819,132.84c0,3.84,0,7.68,0,11.52c1.92,0,3.84,0,5.76,0c0,1.92,0,3.84,0,5.76c0.181,0,0.351,0,0.54,0
	c0.12,0,0.24,0,0.351,0c0.189,0,0.37,0,0.55,0c0.12,0,0.24,0,0.359,0c0.181,0,0.36,0,0.53,0c0.13,0,0.25,0,0.37,0
	c0.17,0,0.36,0,0.54,0c0.11,0,0.24,0,0.36,0c0.18,0,0.359,0,0.54,0c0.12,0,0.229,0,0.359,0c0.181,0,0.351,0,0.54,0
	c0.12,0,0.24,0,0.351,0c0.189,0,0.37,0,0.55,0c0.12,0,0.24,0,0.359,0c0.181,0,0.36,0,0.53,0c0.13,0,0.25,0,0.37,0
	c0.17,0,0.36,0,0.54,0c0.11,0,0.24,0,0.36,0c0.18,0,0.359,0,0.54,0c0.12,0,0.229,0,0.359,0c0.181,0,0.351,0,0.54,0
	c0.12,0,0.24,0,0.351,0c0.189,0,0.37,0,0.55,0c0.12,0,0.24,0,0.359,0c0.181,0,0.36,0,0.53,0c0.13,0,0.25,0,0.37,0
	c0.17,0,0.36,0,0.54,0c0.11,0,0.24,0,0.36,0c0.18,0,0.359,0,0.54,0c0.12,0,0.229,0,0.359,0c0.181,0,0.351,0,0.54,0
	c0.12,0,0.24,0,0.351,0c0.189,0,0.37,0,0.55,0c0.12,0,0.24,0,0.359,0c0.181,0,0.36,0,0.53,0c0.13,0,0.25,0,0.37,0
	c0.17,0,0.36,0,0.54,0c0.11,0,0.24,0,0.36,0c0.18,0,0.359,0,0.54,0c0.12,0,0.229,0,0.359,0c0.181,0,0.351,0,0.54,0
	c0.12,0,0.24,0,0.351,0c0.189,0,0.37,0,0.55,0c0.12,0,0.24,0,0.359,0c0.181,0,0.36,0,0.53,0c0.13,0,0.25,0,0.37,0
	c0.17,0,0.36,0,0.54,0c0.11,0,0.24,0,0.36,0c0.18,0,0.359,0,0.54,0c0.12,0,0.229,0,0.359,0c0.181,0,0.351,0,0.54,0
	c0.12,0,0.24,0,0.351,0c0.189,0,0.37,0,0.55,0c0.12,0,0.24,0,0.359,0c0.181,0,0.36,0,0.53,0c0.13,0,0.25,0,0.37,0
	c0.17,0,0.36,0,0.54,0c0.11,0,0.24,0,0.36,0c0.18,0,0.359,0,0.54,0c0.12,0,0.229,0,0.359,0c0.601,0,1.2,0,1.8,0
	c0-1.92,0-3.84,0-5.76c1.921,0,3.841,0,5.761,0c0-1.439,0-2.879,0-4.32c0-1.439,0-2.879,0-4.319s0-2.88,0-4.319
	c0-1.44,0-2.881,0-4.32c1.92,0,3.83,0,5.76,0c0-1.92,0-3.84,0-5.76c1.92,0,3.84,0,5.76,0c0-1.92,0-3.84,0-5.761
	c0.96,0,1.92,0,2.88,0c0.48,0,0.96,0,1.431,0c0.55,0,1.09,0,1.63,0c0-0.96,0-1.92,0-2.88c0-0.48,0-0.96,0-1.439
	c0-0.541,0-1.08,0-1.621c1.92,0,3.83,0,5.76,0c0-4.739,0-9.479,0-14.219c0-1.201,0-2.4,0-3.601c0-0.12,0-0.24,0-0.36
	c0-0.18,0-0.359,0-0.539c0-0.121,0-0.24,0-0.361c0-0.18,0-0.359,0-0.539c0-0.12,0-0.24,0-0.36c0-0.18,0-0.36,0-0.54
	c0-0.119,0-0.24,0-0.359c0-0.181,0-0.36,0-0.541c0-1.199,0-2.399,0-3.6c0-0.119,0-0.24,0-0.359c0-0.181,0-0.36,0-0.541
	c0-0.119,0-0.239,0-0.359c0-0.18,0-0.359,0-0.54c0-0.12,0-0.24,0-0.36c0-0.18,0-0.359,0-0.539c0-0.121,0-0.24,0-0.361
	c0-0.239,0-0.479,0-0.719c-1.93,0-3.84,0-5.76,0c-0.96,0-1.92,0-2.88,0c-0.48,0-0.96,0-1.44,0c-0.54,0-1.08,0-1.62,0
	c0,2.879,0,5.76,0,8.64s0,5.76,0,8.64c-1.92,0-3.84,0-5.76,0c0,3.84,0,7.68,0,11.52c-2.88,0-5.76,0-8.64,0c-2.881,0-5.761,0-8.641,0
	c0-1.92,0-3.84,0-5.76c-1.92,0-3.84,0-5.76,0c0-1.92,0-3.84,0-5.76c-1.93,0-3.84,0-5.76,0c0,1.92,0,3.84,0,5.76
	c-1.92,0-3.84,0-5.76,0c0,1.92,0,3.84,0,5.76c1.92,0,3.84,0,5.76,0c0,0.541,0,1.08,0,1.621c0,0.479,0,0.959,0,1.439
	c0,0.96,0,1.92,0,2.88c1.92,0,3.83,0,5.76,0c0,1.921,0,3.841,0,5.761c1.92,0,3.84,0,5.76,0c0,0.18,0,0.359,0,0.539
	c0,1.74,0,3.48,0,5.221c-0.189,0-0.359,0-0.54,0c-0.72,0-1.439,0-2.17,0c-0.35,0-0.71,0-1.069,0c-0.181,0-0.37,0-0.54,0
	c-0.181,0-0.37,0-0.54,0c-0.36,0-0.721,0-1.08,0c-0.181,0-0.36,0-0.54,0c-0.19,0-0.36,0-0.54,0c-0.36,0-0.721,0-1.08,0
	c-0.18,0-0.36,0-0.55,0c-0.11,0-0.23,0-0.351,0c-0.359,0-0.72,0-1.08,0c-0.18,0-0.359,0-0.54,0c-0.18,0-0.359,0-0.55,0
	c-0.35,0-0.71,0-1.07,0c-0.18,0-0.359,0-0.539,0c-0.12,0-0.24,0-0.37,0c-0.351,0-0.71,0-1.07,0c-0.18,0-0.36,0-0.54,0
	s-0.36,0-0.54,0c-0.37,0-0.72,0-1.08,0c-0.18,0-0.36,0-0.54,0c-0.12,0-0.25,0-0.359,0c-3.841,0-7.681,0-11.521,0
	C80.819,129,80.819,130.92,80.819,132.84z"/>
<path fill="#232034" d="M80.819,121.32c0,1.92,0,3.84,0,5.76c3.84,0,7.68,0,11.521,0c0-1.92,0-3.84,0-5.76c-1.931,0-3.841,0-5.761,0
	S82.739,121.32,80.819,121.32z"/>
<path fill="#AAAAAB" d="M80.819,103.859c0,1.92,0,3.84,0,5.76c1.92,0,3.84,0,5.76,0c0-1.92,0-3.84,0-5.76
	C84.659,103.859,82.739,103.859,80.819,103.859z"/>
<path fill="#7B7B7B" d="M80.819,99.539c0,1.441,0,2.881,0,4.32c1.92,0,3.84,0,5.76,0c0-1.92,0-3.84,0-5.76c1.92,0,3.83,0,5.761,0
	c0-1.92,0-3.84,0-5.76c1.92,0,3.84,0,5.76,0c0-1.92,0-3.84,0-5.76c1.92,0,3.83,0,5.76,0c0-5.76,0-11.521,0-17.28
	c-1.93,0-3.84,0-5.76,0c0-1.92,0-3.84,0-5.76c-1.92,0-3.84,0-5.76,0c0,3.84,0,7.68,0,11.52c1.92,0,3.84,0,5.76,0
	c0,1.92,0,3.84,0,5.761c-3.84,0-7.69,0-11.521,0c0,1.92,0,3.84,0,5.76c-1.92,0-3.84,0-5.76,0c0,1.439,0,2.88,0,4.32
	c0,1.439,0,2.879,0,4.319S80.819,98.1,80.819,99.539z"/>
<path fill="#F79C7F" d="M80.819,40.5c0,3.84,0,7.68,0,11.52c3.84,0,7.68,0,11.521,0c0,1.92,0,3.84,0,5.76c1.92,0,3.84,0,5.76,0
	c0,1.92,0,3.84,0,5.76c1.92,0,3.83,0,5.76,0c0-1.38,0-2.76,0-4.14c0-1.38,0-2.76,0-4.14s0-2.76,0-4.14c0-1.44,0-2.88,0-4.32
	c0-0.18,0-0.36,0-0.54c-1.93,0-3.84,0-5.76,0c0-1.92,0-3.84,0-5.76c3.83,0,7.68,0,11.52,0c0-1.98,0-3.96,0-5.94
	c-7.689,0-15.359,0-23.04,0c0,0.06,0,0.12,0,0.18c0,0.96,0,1.92,0,2.88s0,1.92,0,2.88C84.659,40.5,82.739,40.5,80.819,40.5z"/>
<path fill="#D42C41" d="M86.579,150.119c0,1.92,0,3.841,0,5.761c0.181,0,0.351,0,0.54,0c0.181,0,0.351,0,0.54,0
	c0.36,0,0.72,0,1.08,0c0.17,0,0.36,0,0.54,0c0.17,0,0.36,0,0.54,0c0.36,0,0.72,0,1.08,0c0.18,0,0.36,0,0.53,0c0.189,0,0.37,0,0.54,0
	c0.37,0,0.729,0,1.09,0c0.18,0,0.35,0,0.54,0c0.18,0,0.35,0,0.54,0c0.359,0,0.72,0,1.08,0c0.18,0,0.359,0,0.54,0
	c0.17,0,0.359,0,0.54,0c0.359,0,0.72,0,1.079,0c0.181,0,0.36,0,0.53,0c0.19,0,0.37,0,0.54,0c0.37,0,0.73,0,1.09,0
	c0.181,0,0.36,0,0.54,0c0.181,0,0.351,0,0.54,0c0.351,0,0.721,0,1.08,0c0.18,0,0.36,0,0.54,0c0.17,0,0.36,0,0.54,0
	c0.36,0,0.72,0,1.08,0c0.18,0,0.36,0,0.54,0s0.36,0,0.53,0c0.37,0,0.729,0,1.09,0c0.18,0,0.359,0,0.54,0c0.18,0,0.35,0,0.54,0
	c0.35,0,0.72,0,1.08,0c0.18,0,0.359,0,0.54,0c0.18,0,0.359,0,0.54,0c0.359,0,0.71,0,1.08,0c0.18,0,0.359,0,0.539,0
	c0.181,0,0.36,0,0.53,0c0.37,0,0.73,0,1.09,0c0.181,0,0.36,0,0.54,0c0.181,0,0.36,0,0.54,0c0.351,0,0.721,0,1.08,0
	c0.181,0,0.36,0,0.54,0s0.36,0,0.54,0c0.36,0,0.71,0,1.08,0c0.18,0,0.36,0,0.54,0s0.36,0,0.54,0c0.36,0,0.72,0,1.07,0
	c0.729,0,1.439,0,2.17,0c0-1.92,0-3.841,0-5.761c0.18,0,0.359,0,0.54,0c0.359,0,0.72,0,1.08,0c0.42,0,0.84,0,1.26,0
	c0.359,0,0.72,0,1.08,0c0.18,0,0.35,0,0.54,0c0.239,0,0.479,0,0.72,0c0.18,0,0.36,0,0.54,0c0-7.68,0-15.359,0-23.039
	c-1.93,0-3.84,0-5.76,0c0,1.439,0,2.88,0,4.32c0,1.439,0,2.879,0,4.319s0,2.88,0,4.319c0,1.441,0,2.881,0,4.32
	c-1.92,0-3.84,0-5.761,0c0,1.92,0,3.84,0,5.76c-0.6,0-1.199,0-1.8,0c-0.13,0-0.239,0-0.359,0c-0.181,0-0.36,0-0.54,0
	c-0.12,0-0.25,0-0.36,0c-0.18,0-0.37,0-0.54,0c-0.12,0-0.24,0-0.37,0c-0.17,0-0.35,0-0.53,0c-0.119,0-0.239,0-0.359,0
	c-0.18,0-0.36,0-0.55,0c-0.11,0-0.23,0-0.351,0c-0.189,0-0.359,0-0.54,0c-0.13,0-0.239,0-0.359,0c-0.181,0-0.36,0-0.54,0
	c-0.12,0-0.25,0-0.36,0c-0.18,0-0.37,0-0.54,0c-0.12,0-0.24,0-0.37,0c-0.17,0-0.35,0-0.53,0c-0.119,0-0.239,0-0.359,0
	c-0.18,0-0.36,0-0.55,0c-0.11,0-0.23,0-0.351,0c-0.189,0-0.359,0-0.54,0c-0.13,0-0.239,0-0.359,0c-0.181,0-0.36,0-0.54,0
	c-0.12,0-0.25,0-0.36,0c-0.18,0-0.37,0-0.54,0c-0.12,0-0.24,0-0.37,0c-0.17,0-0.35,0-0.53,0c-0.119,0-0.239,0-0.359,0
	c-0.18,0-0.36,0-0.55,0c-0.11,0-0.23,0-0.351,0c-0.189,0-0.359,0-0.54,0c-0.13,0-0.239,0-0.359,0c-0.181,0-0.36,0-0.54,0
	c-0.12,0-0.25,0-0.36,0c-0.18,0-0.37,0-0.54,0c-0.12,0-0.24,0-0.37,0c-0.17,0-0.35,0-0.53,0c-0.119,0-0.239,0-0.359,0
	c-0.18,0-0.36,0-0.55,0c-0.11,0-0.23,0-0.351,0c-0.189,0-0.359,0-0.54,0c-0.13,0-0.239,0-0.359,0c-0.181,0-0.36,0-0.54,0
	c-0.12,0-0.25,0-0.36,0c-0.18,0-0.37,0-0.54,0c-0.12,0-0.24,0-0.37,0c-0.17,0-0.35,0-0.53,0c-0.119,0-0.239,0-0.359,0
	c-0.18,0-0.36,0-0.55,0c-0.11,0-0.23,0-0.351,0c-0.189,0-0.359,0-0.54,0c-0.13,0-0.239,0-0.359,0c-0.181,0-0.36,0-0.54,0
	c-0.12,0-0.25,0-0.36,0c-0.18,0-0.37,0-0.54,0c-0.12,0-0.24,0-0.37,0c-0.17,0-0.35,0-0.53,0c-0.119,0-0.239,0-0.359,0
	c-0.18,0-0.36,0-0.55,0c-0.11,0-0.23,0-0.351,0C86.93,150.119,86.76,150.119,86.579,150.119z"/>
<path fill="#7B7B7B" d="M86.579,115.56c0,1.921,0,3.841,0,5.761c1.92,0,3.83,0,5.761,0c0-1.92,0-3.84,0-5.761
	C90.409,115.56,88.499,115.56,86.579,115.56z"/>
<path fill="#AAAAAB" d="M86.579,113.939c0,0.541,0,1.08,0,1.62c1.92,0,3.83,0,5.761,0c0-0.96,0-1.92,0-2.88c0-0.48,0-0.96,0-1.439
	c0-0.48,0-0.961,0-1.44c0-0.06,0-0.12,0-0.181c-1.931,0-3.841,0-5.761,0c0,0.961,0,1.92,0,2.881
	C86.579,112.98,86.579,113.46,86.579,113.939z"/>
<path fill="#232034" d="M86.579,103.859c0,1.92,0,3.84,0,5.76c1.92,0,3.83,0,5.761,0c0-1.92,0-3.84,0-5.76c1.92,0,3.84,0,5.76,0
	c0-1.92,0-3.84,0-5.76c1.92,0,3.83,0,5.76,0c0-1.92,0-3.84,0-5.76c1.92,0,3.84,0,5.76,0c0-3.84,0-7.68,0-11.52
	c0-3.84,0-7.681,0-11.521c-1.92,0-3.84,0-5.76,0c0,5.76,0,11.521,0,17.28c-1.93,0-3.84,0-5.76,0c0,1.92,0,3.84,0,5.76
	c-1.92,0-3.84,0-5.76,0c0,1.92,0,3.84,0,5.76c-1.931,0-3.841,0-5.761,0C86.579,100.02,86.579,101.939,86.579,103.859z"/>
<path fill="#7B7B7B" d="M86.579,57.78c0,1.92,0,3.84,0,5.76c1.92,0,3.83,0,5.761,0c0-1.92,0-3.84,0-5.76
	C90.409,57.78,88.499,57.78,86.579,57.78z"/>
<path fill="#D42C41" d="M86.579,17.28c0,1.92,0,3.84,0,5.76c1.44,0,2.87,0,4.32,0c1.44,0,2.88,0,4.32,0c1.439,0,2.88,0,4.319,0
	c1.431,0,2.87,0,4.32,0c0-1.92,0-3.84,0-5.76c0.18,0,0.36,0,0.54,0c1.38,0,2.76,0,4.14,0c0.36,0,0.721,0,1.08,0
	c0.181,0,0.351,0,0.54,0c0.12,0,0.24,0,0.36,0c0.359,0,0.72,0,1.08,0c0.18,0,0.35,0,0.54,0c0.12,0,0.239,0,0.359,0
	c1.38,0,2.761,0,4.141,0c0.359,0,0.72,0,1.08,0c0.18,0,0.359,0,0.54,0c0.119,0,0.239,0,0.359,0c0.351,0,0.721,0,1.08,0
	c0.3,0,0.601,0,0.9,0c0.18,0,0.35,0,0.54,0c0,1.92,0,3.84,0,5.76c3.83,0,7.68,0,11.52,0c0-3.84,0-7.68,0-11.52
	c-1.92,0-3.84,0-5.76,0c0-0.18,0-0.36,0-0.54c0-1.56,0-3.12,0-4.68c0-0.18,0-0.36,0-0.54c-7.68,0-15.36,0-23.04,0
	c0,1.92,0,3.84,0,5.76c-0.18,0-0.36,0-0.54,0c-0.42,0-0.85,0-1.26,0c-0.48,0-0.96,0-1.44,0c-0.42,0-0.84,0-1.26,0
	c-0.48,0-0.96,0-1.45,0c-0.41,0-0.83,0-1.25,0c-0.479,0-0.96,0-1.439,0c-0.96,0-1.92,0-2.88,0c0,1.92,0,3.84,0,5.76
	c-0.12,0-0.24,0-0.37,0c-0.17,0-0.351,0-0.54,0c-0.17,0-0.351,0-0.53,0s-0.36,0-0.54,0c-0.24,0-0.48,0-0.72,0c-0.19,0-0.36,0-0.54,0
	c-0.24,0-0.48,0-0.721,0c-0.18,0-0.359,0-0.539,0c-0.24,0-0.48,0-0.721,0C86.93,17.28,86.76,17.28,86.579,17.28z"/>
<path fill="#F79C7F" d="M92.34,121.32c0,1.92,0,3.84,0,5.76c0.109,0,0.239,0,0.359,0c0.18,0,0.36,0,0.54,0c0.36,0,0.71,0,1.08,0
	c0.18,0,0.36,0,0.54,0s0.36,0,0.54,0c0.36,0,0.72,0,1.07,0c0.13,0,0.25,0,0.37,0c0.18,0,0.359,0,0.539,0c0.36,0,0.721,0,1.07,0
	c0.19,0,0.37,0,0.55,0c0.181,0,0.36,0,0.54,0c0.36,0,0.721,0,1.08,0c0.12,0,0.24,0,0.351,0c0.189,0,0.37,0,0.55,0
	c0.359,0,0.72,0,1.08,0c0.18,0,0.35,0,0.54,0c0.18,0,0.359,0,0.54,0c0.359,0,0.72,0,1.08,0c0.17,0,0.359,0,0.54,0
	c0.17,0,0.359,0,0.54,0c0.359,0,0.72,0,1.069,0c0.73,0,1.45,0,2.17,0c0.181,0,0.351,0,0.54,0c0-1.74,0-3.48,0-5.221
	c0-0.18,0-0.359,0-0.539c-1.92,0-3.84,0-5.76,0c0-1.92,0-3.84,0-5.761c-1.93,0-3.84,0-5.76,0c0,1.921,0,3.841,0,5.761
	C96.18,121.32,94.26,121.32,92.34,121.32z"/>
<path fill="#232034" d="M92.34,115.56c0,1.921,0,3.841,0,5.761c1.92,0,3.84,0,5.76,0c0-1.92,0-3.84,0-5.761c0-0.96,0-1.92,0-2.88
	c0-0.48,0-0.96,0-1.439c0-0.541,0-1.08,0-1.621c-1.92,0-3.84,0-5.76,0c0,0.061,0,0.121,0,0.181c0,0.479,0,0.96,0,1.44
	c0,0.479,0,0.959,0,1.439C92.34,113.64,92.34,114.6,92.34,115.56z"/>
<path fill="#232034" d="M92.34,57.78c0,1.92,0,3.84,0,5.76c1.92,0,3.84,0,5.76,0c0-1.92,0-3.84,0-5.76
	C96.18,57.78,94.26,57.78,92.34,57.78z"/>
<path fill="#232034" d="M98.1,63.54c0,1.92,0,3.84,0,5.76c1.92,0,3.83,0,5.76,0c0-1.92,0-3.84,0-5.76
	C101.93,63.54,100.02,63.54,98.1,63.54z"/>
<path fill="#F79C7F" d="M103.859,98.1c0,1.92,0,3.84,0,5.76c1.92,0,3.84,0,5.76,0c0,1.92,0,3.84,0,5.76c2.88,0,5.76,0,8.641,0
	c2.88,0,5.76,0,8.64,0c0-3.84,0-7.68,0-11.52c1.92,0,3.84,0,5.76,0c0-2.88,0-5.76,0-8.64s0-5.761,0-8.64c0.54,0,1.08,0,1.62,0
	c0.48,0,0.96,0,1.44,0c0.96,0,1.92,0,2.88,0c0-1.92,0-3.84,0-5.761c-0.96,0-1.92,0-2.88,0c-0.48,0-0.96,0-1.44,0
	c-0.54,0-1.08,0-1.62,0c0-1.92,0-3.84,0-5.76c-2.88,0-5.76,0-8.64,0c-1.44,0-2.88,0-4.32,0c-1.439,0-2.88,0-4.32,0
	c0-1.92,0-3.84,0-5.76c-3.84,0-7.68,0-11.52,0c0,1.92,0,3.84,0,5.76c1.92,0,3.84,0,5.76,0c0,3.84,0,7.68,0,11.521
	c1.92,0,3.83,0,5.76,0c0,3.84,0,7.68,0,11.52c-1.93,0-3.84,0-5.76,0s-3.84,0-5.76,0C103.859,94.26,103.859,96.18,103.859,98.1z"/>
<path fill="#FFFFFF" d="M109.619,80.82c0,3.84,0,7.68,0,11.52c1.92,0,3.83,0,5.76,0c0-3.84,0-7.68,0-11.52
	C113.449,80.82,111.539,80.82,109.619,80.82z"/>
<path fill="#D42C41" d="M126.899,121.32c0,1.92,0,3.84,0,5.76c0.96,0,1.92,0,2.88,0s1.92,0,2.88,0s1.92,0,2.88,0
	c0.48,0,0.96,0,1.431,0c0.55,0,1.09,0,1.63,0c0-1.92,0-3.84,0-5.76c0.18,0,0.35,0,0.54,0c0.899,0,1.79,0,2.7,0c0.42,0,0.84,0,1.26,0
	c0.479,0,0.96,0,1.439,0c0.41,0,0.84,0,1.261,0c0.479,0,0.96,0,1.439,0c0.96,0,1.92,0,2.88,0c0-1.681,0-3.36,0-5.041
	c0-0.42,0-0.84,0-1.26c0-0.18,0-0.359,0-0.539c0-0.24,0-0.48,0-0.721c0-0.84,0-1.68,0-2.52c0-0.42,0-0.84,0-1.26
	c0-0.181,0-0.361,0-0.541c0-0.24,0-0.479,0-0.72c0-0.84,0-1.681,0-2.521c0-0.42,0-0.84,0-1.26c0-0.18,0-0.359,0-0.539
	c0-0.24,0-0.48,0-0.721c0-0.84,0-1.68,0-2.52c0-0.42,0-0.84,0-1.26c0-0.181,0-0.361,0-0.541c0-0.24,0-0.479,0-0.72
	c0-0.84,0-1.68,0-2.521c0-0.42,0-0.84,0-1.26c0-0.18,0-0.359,0-0.539c0-0.24,0-0.48,0-0.721c0-0.84,0-1.68,0-2.52
	c0-0.42,0-0.84,0-1.26c0-0.181,0-0.36,0-0.541c0-0.24,0-0.479,0-0.72c0-0.84,0-1.68,0-2.521c0-0.84,0-1.68,0-2.52
	c0-0.9,0-1.8,0-2.699c-1.92,0-3.84,0-5.76,0c0,0.239,0,0.479,0,0.719c0,0.121,0,0.24,0,0.361c0,0.18,0,0.359,0,0.539
	c0,0.12,0,0.24,0,0.36c0,0.181,0,0.36,0,0.54c0,0.12,0,0.24,0,0.359c0,0.181,0,0.36,0,0.541c0,0.119,0,0.24,0,0.359
	c0,1.2,0,2.4,0,3.6c0,0.181,0,0.36,0,0.541c0,0.119,0,0.24,0,0.359c0,0.18,0,0.36,0,0.54c0,0.12,0,0.24,0,0.36
	c0,0.18,0,0.359,0,0.539c0,0.121,0,0.24,0,0.361c0,0.18,0,0.359,0,0.539c0,0.12,0,0.24,0,0.36c0,1.2,0,2.399,0,3.601
	c0,4.739,0,9.479,0,14.219c-1.93,0-3.84,0-5.76,0c0,0.541,0,1.08,0,1.621c0,0.479,0,0.959,0,1.439c0,0.96,0,1.92,0,2.88
	c-0.54,0-1.08,0-1.63,0c-0.471,0-0.95,0-1.431,0c-0.96,0-1.92,0-2.88,0c0,1.921,0,3.841,0,5.761
	C130.739,121.32,128.819,121.32,126.899,121.32z"/>
<path fill="#D42C41" d="M126.899,40.5c0,3.84,0,7.68,0,11.52c0.05,0,0.12,0,0.18,0c0.24,0,0.48,0,0.721,0c0.239,0,0.479,0,0.72,0
	c0.479,0,0.95,0,1.43,0c0.96,0,1.93,0,2.891,0c1.92,0,3.84,0,5.76,0c0-4.8,0-9.6,0-14.4c0-4.86,0-9.72,0-14.58c-0.9,0-1.8,0-2.7,0
	c-0.43,0-0.84,0-1.26,0c-0.24,0-0.48,0-0.73,0c-0.229,0-0.479,0-0.71,0c-0.18,0-0.359,0-0.54,0c0,2.88,0,5.76,0,8.64
	c0,2.94,0,5.88,0,8.82C130.739,40.5,128.819,40.5,126.899,40.5z"/>
<path fill="#D42C41" d="M138.6,75.06c0,1.92,0,3.84,0,5.761c1.92,0,3.83,0,5.76,0c0-1.92,0-3.84,0-5.761
	C142.43,75.06,140.52,75.06,138.6,75.06z"/>
<path fill="#D42C41" d="M138.6,52.02c0,1.92,0,3.84,0,5.76c1.92,0,3.83,0,5.76,0c0-1.92,0-3.84,0-5.76
	C142.43,52.02,140.52,52.02,138.6,52.02z"/>
<path fill="#D42C41" d="M144.359,57.78c0,5.76,0,11.52,0,17.28c1.92,0,3.84,0,5.76,0c0-5.76,0-11.52,0-17.28
	C148.199,57.78,146.279,57.78,144.359,57.78z"/>
</svg>
