<?xml version="1.0" encoding="utf-8"?>
<!-- Generator: Adobe Illustrator 15.0.0, SVG Export Plug-In  -->
<!DOCTYPE svg PUBLIC "-//W3C//DTD SVG 1.1//EN" "http://www.w3.org/Graphics/SVG/1.1/DTD/svg11.dtd" [
	<!ENTITY ns_flows "http://ns.adobe.com/Flows/1.0/">
]>
<svg version="1.1"
	 xmlns="http://www.w3.org/2000/svg" xmlns:xlink="http://www.w3.org/1999/xlink" xmlns:a="http://ns.adobe.com/AdobeSVGViewerExtensions/3.0/"
	 x="0px" y="0px" width="200px" height="200px" viewBox="-18.609 -15.73 200 200" enable-background="new -18.609 -15.73 200 200"
	 xml:space="preserve">
<defs>
</defs>
<path fill="#D42C41" d="M0,69.3c0,3.84,0,7.68,0,11.52c1.92,0,3.83,0,5.76,0c0,0.18,0,0.36,0,0.54c0,3.66,0,7.32,0,10.98
	c1.92,0,3.84,0,5.76,0c0,1.92,0,3.84,0,5.76c3.83,0,7.681,0,11.521,0c0,2.88,0,5.76,0,8.641c0,2.879,0,5.76,0,8.639
	c1.92,0,3.83,0,5.75,0c0,0.181,0,0.361,0,0.541c0,1.619,0,3.24,0,4.859c0,0.18,0,0.36,0,0.54c3.91,0,7.81,0,11.71,0
	c0,1.921,0,3.841,0,5.761c1.92,0,3.83,0,5.76,0c0,0.18,0,0.359,0,0.539c0,0.78,0,1.561,0,2.34c0,0.36,0,0.721,0,1.08
	c0,0.181,0,0.36,0,0.541c0,0.239,0,0.479,0,0.719c0,0.181,0,0.361,0,0.541c1.92,0,3.84,0,5.76,0c0,3.84,0,7.68,0,11.52
	c3.83,0,7.681,0,11.521,0c0,1.92,0,3.84,0,5.76c0.181,0,0.36,0,0.54,0s0.359,0,0.54,0c0.36,0,0.71,0,1.08,0c0.17,0,0.36,0,0.54,0
	s0.359,0,0.539,0c0.181,0,0.361,0,0.531,0c0.189,0,0.369,0,0.539,0c0.19,0,0.371,0,0.551,0s0.359,0,0.539,0c0.351,0,0.721,0,1.08,0
	c0.181,0,0.351,0,0.541,0c0.18,0,0.359,0,0.539,0s0.36,0,0.541,0c0.17,0,0.359,0,0.539,0c0.17,0,0.36,0,0.541,0
	c0.18,0,0.359,0,0.539,0s0.36,0,0.53,0c0.19,0,0.37,0,0.54,0c0.189,0,0.37,0,0.54,0c0.19,0,0.37,0,0.55,0s0.359,0,0.54,0
	s0.351,0,0.54,0c0.18,0,0.35,0,0.54,0c0.181,0,0.36,0,0.54,0s0.359,0,0.54,0c0.17,0,0.36,0,0.54,0c0.71,0,1.44,0,2.15,0
	c0,1.92,0,3.84,0,5.76c3.85,0,7.69,0,11.52,0c0-1.92,0-3.84,0-5.76c-1.91,0-3.83,0-5.75,0c0-1.92,0-3.84,0-5.76
	c-1.92,0-3.84,0-5.77,0c0-1.92,0-3.84,0-5.76c-1.91,0-3.83,0-5.75,0c0-1.92,0-3.84,0-5.76c-1.92,0-3.84,0-5.771,0
	c0,1.92,0,3.84,0,5.76c-1.92,0-3.83,0-5.75,0c0-1.92,0-3.84,0-5.76c-1.92,0-3.84,0-5.761,0c0-1.92,0-3.84,0-5.76
	c-1.93,0-3.84,0-5.76,0c0-1.92,0-3.84,0-5.761c-1.92,0-3.84,0-5.76,0c0-0.54,0-1.079,0-1.62c0-0.479,0-0.959,0-1.439
	c-0.01-0.48,0-0.961,0-1.44s0-0.96,0-1.44c0-1.92,0-3.84,0-5.76c-1.93,0-3.84,0-5.76,0c0-1.92,0-3.84,0-5.76c-1.92,0-3.84,0-5.76,0
	c0-1.92,0-3.84,0-5.76c-0.961,0-1.93,0-2.891,0c-0.479,0-0.949,0-1.43,0c-0.55,0-1.09,0-1.63,0c0-1.92,0-3.84,0-5.76
	c-3.83,0-7.67,0-11.511,0c0-3.84,0-7.68,0-11.521c-1.93,0-3.84,0-5.76,0c0-5.76,0-11.52,0-17.28c-1.92,0-3.84,0-5.76,0
	c0,1.92,0,3.84,0,5.76c-0.18,0-0.359,0-0.539,0c-1.561,0-3.121,0-4.681,0C0.35,69.3,0.18,69.3,0,69.3z"/>
<path fill="#F15A46" d="M17.279,63.54c0-1.92,0-3.84,0-5.76c1.921,0,3.841,0,5.761,0c0-1.92,0-3.84,0-5.76c3.899,0,7.79,0,11.7,0
	c0-3.9,0-7.8,0-11.7c1.92,0,3.84,0,5.76,0c0-1.92,0-3.84,0-5.76c0.18,0,0.35,0,0.54,0c1.38,0,2.75,0,4.14,0c0.36,0,0.721,0,1.08,0
	c0.301,0,0.59,0,0.9,0c0.65,0,1.32,0,1.98,0c1.379,0,2.76,0,4.139,0c0.361,0,0.721,0,1.07,0c0.19,0,0.371,0,0.551,0
	c0.119,0,0.24,0,0.359,0c0.36,0,0.721,0,1.07,0c0.189,0,0.37,0,0.54,0c0.13,0,0.25,0,0.37,0c0.18,0,0.359,0,0.539,0
	c0-3.84,0-7.68,0-11.52c1.921,0,3.841,0,5.761,0c0-1.92,0-3.84,0-5.76c1.92,0,3.83,0,5.75,0c0-1.92,0-3.84,0-5.76
	c3.851,0,7.69,0,11.52,0c0,1.92,0,3.84,0,5.76c3.85,0,7.69,0,11.52,0c0,1.92,0,3.84,0,5.76c0.54,0,1.09,0,1.63,0
	c0.479,0,0.96,0,1.439,0c0.95,0,1.91,0,2.88,0c0.961,0,1.921,0,2.881,0s1.92,0,2.88,0s1.92,0,2.88,0c0.95,0,1.91,0,2.87,0
	c0.97,0,1.93,0,2.89,0s1.92,0,2.88,0c0,1.92,0,3.84,0,5.76c3.84,0,7.681,0,11.521,0c0,7.74,0,15.48,0,23.22c-1.92,0-3.84,0-5.771,0
	c0,1.92,0,3.84,0,5.76c7.69,0,15.37,0,23.04,0c0,1.92,0,3.84,0,5.76c1.93,0,3.851,0,5.771,0c0,3.84,0,7.68,0,11.52
	c-1.92,0-3.841,0-5.771,0c0,0.18,0,0.36,0,0.54c0,0.12,0,0.24,0,0.36c0,0.18,0,0.36,0,0.54c0,0.36,0,0.72,0,1.08
	c0,0.12,0,0.24,0,0.36c0,0.18,0,0.36,0,0.54c0,0.36,0,0.72,0,1.08c0,1.38,0,2.76,0,4.14c0,0.12,0,0.24,0,0.36c0,0.18,0,0.36,0,0.54
	c0,0.36,0,0.72,0,1.08c0,0.119,0,0.24,0,0.359c0,0.181,0,0.36,0,0.541c0,0.359,0,0.719,0,1.08c0,1.379,0,2.76,0,4.139
	c0,0.181,0,0.361,0,0.541c1.93,0,3.851,0,5.771,0c0,1.92,0,3.84,0,5.76c-1.92,0-3.841,0-5.771,0c0,3.66,0,7.32,0,10.98
	c0,0.18,0,0.359,0,0.539c1.93,0,3.851,0,5.771,0c0,1.92,0,3.84,0,5.76c0,0.961,0,1.92,0,2.881c0,0.48,0,0.96,0,1.439
	c0,0.541,0,1.08,0,1.62c-1.92,0-3.841,0-5.771,0c0,1.921,0,3.841,0,5.761c-1.91,0-3.83,0-5.75,0c0,1.92,0,3.84,0,5.76
	c-1.92,0-3.84,0-5.77,0c0,1.92,0,3.84,0,5.76c-1.91,0-3.83,0-5.75,0c0,1.92,0,3.84,0,5.76c-1.92,0-3.84,0-5.771,0
	c0,3.84,0,7.68,0,11.52c-1.91,0-3.83,0-5.75,0c0,1.92,0,3.841,0,5.761c-3.84,0-7.689,0-11.52,0c0-1.92,0-3.841,0-5.761
	c-0.061,0-0.12,0-0.19,0c-0.229,0-0.479,0-0.71,0c-0.24,0-0.479,0-0.72,0c-0.48,0-0.96,0-1.44,0c-0.96,0-1.92,0-2.88,0
	s-1.92,0-2.88,0s-1.93,0-2.89,0c0-1.92,0-3.84,0-5.76c-1.91,0-3.83,0-5.75,0c0-1.92,0-3.84,0-5.76c-1.92,0-3.84,0-5.77,0
	c0-1.92,0-3.84,0-5.76c-1.91,0-3.83,0-5.75,0c0-1.92,0-3.84,0-5.76c-1.92,0-3.84,0-5.771,0c0,1.92,0,3.84,0,5.76
	c-1.92,0-3.83,0-5.75,0c0-1.92,0-3.84,0-5.76c-1.92,0-3.84,0-5.761,0c0-1.92,0-3.84,0-5.76c0.591,0,1.201,0,1.801,0
	c0.12,0,0.23,0,0.359,0c0.181,0,0.351,0,0.541,0c0.119,0,0.24,0,0.35,0c0.189,0,0.37,0,0.54,0c0.13,0,0.25,0,0.37,0
	c0.18,0,0.359,0,0.539,0c0.121,0,0.24,0,0.361,0c0.17,0,0.359,0,0.539,0c0.11,0,0.24,0,0.36,0c0.181,0,0.36,0,0.54,0
	c0.12,0,0.23,0,0.359,0c0.181,0,0.351,0,0.541,0c0.119,0,0.24,0,0.35,0c0.189,0,0.37,0,0.54,0c0.13,0,0.25,0,0.37,0
	c0.18,0,0.359,0,0.539,0c0.121,0,0.24,0,0.361,0c0.17,0,0.359,0,0.539,0c0.11,0,0.24,0,0.36,0c0.181,0,0.36,0,0.54,0
	c0.12,0,0.23,0,0.359,0c0.181,0,0.351,0,0.541,0c0.119,0,0.24,0,0.35,0c0.189,0,0.37,0,0.54,0c0.13,0,0.25,0,0.37,0
	c0.18,0,0.359,0,0.539,0c0.121,0,0.24,0,0.361,0c0.17,0,0.359,0,0.539,0c0.11,0,0.24,0,0.36,0c0.181,0,0.36,0,0.54,0
	c0.12,0,0.23,0,0.359,0c0.181,0,0.351,0,0.541,0c0.119,0,0.24,0,0.35,0c0.189,0,0.37,0,0.54,0c0.13,0,0.25,0,0.37,0
	c0.18,0,0.359,0,0.539,0c0.121,0,0.24,0,0.361,0c0.17,0,0.359,0,0.539,0c0.11,0,0.24,0,0.36,0c0.181,0,0.36,0,0.54,0
	c0.12,0,0.23,0,0.359,0c0.181,0,0.351,0,0.541,0c0.119,0,0.24,0,0.35,0c0.189,0,0.37,0,0.54,0c0.13,0,0.25,0,0.37,0
	c0.18,0,0.36,0,0.54,0c0.12,0,0.24,0,0.36,0c0.17,0,0.36,0,0.54,0c0.11,0,0.24,0,0.36,0c0.18,0,0.36,0,0.54,0c0.12,0,0.23,0,0.359,0
	c0.181,0,0.351,0,0.54,0c0.12,0,0.24,0,0.351,0c0.189,0,0.37,0,0.54,0c0.13,0,0.25,0,0.37,0c0.18,0,0.359,0,0.539,0
	c0.12,0,0.24,0,0.36,0c0.17,0,0.36,0,0.54,0c0.11,0,0.24,0,0.36,0c0.18,0,0.359,0,0.54,0c0-1.92,0-3.84,0-5.761
	c1.92,0,3.84,0,5.75,0c0-0.479,0-0.96,0-1.44c0-0.479,0-0.959,0-1.439s0-0.96,0-1.439c0-0.541,0-1.08,0-1.621c1.93,0,3.85,0,5.77,0
	c0-0.18,0-0.359,0-0.539s0-0.36,0-0.541c0-0.18,0-0.359,0-0.539s0-0.36,0-0.54c0-0.181,0-0.36,0-0.54s0-0.36,0-0.54
	c0-0.181,0-0.36,0-0.54s0-0.359,0-0.54s0-0.36,0-0.54s0-0.359,0-0.54s0-0.36,0-0.54s0-0.359,0-0.54c0-0.18,0-0.36,0-0.54
	s0-0.359,0-0.54c0-0.18,0-0.36,0-0.54s0-0.359,0-0.539c0-0.181,0-0.361,0-0.541s0-0.359,0-0.539c0-0.181,0-0.361,0-0.541
	s0-0.359,0-0.539c0-0.181,0-0.36,0-0.541c0-0.18,0-0.359,0-0.539c0-0.181,0-0.36,0-0.541c0-0.18,0-0.359,0-0.539s0-0.36,0-0.541
	c0-0.18,0-0.359,0-0.539s0-0.36,0-0.541c0-0.18,0-0.359,0-0.539c0-0.721,0-1.44,0-2.16c0.96,0,1.92,0,2.88,0c0.48,0,0.96,0,1.44,0
	c0.54,0,1.08,0,1.62,0c0-1.92,0-3.84,0-5.76c1.92,0,3.83,0,5.75,0c0-1.92,0-3.84,0-5.76c1.93,0,3.85,0,5.77,0c0,1.92,0,3.84,0,5.76
	c1.92,0,3.84,0,5.75,0c0,1.92,0,3.84,0,5.76c-1.91,0-3.83,0-5.75,0c0,3.84,0,7.68,0,11.52c3.84,0,7.681,0,11.521,0
	c0,1.92,0,3.84,0,5.76c1.92,0,3.84,0,5.75,0c0-1.92,0-3.84,0-5.76c1.93,0,3.85,0,5.77,0c0-3.84,0-7.68,0-11.52
	c-1.92,0-3.84,0-5.77,0c0-1.92,0-3.84,0-5.76c1.93,0,3.85,0,5.77,0c0-5.76,0-11.521,0-17.28c-3.84,0-7.68,0-11.52,0
	c0-1.92,0-3.84,0-5.76c-3.84,0-7.681,0-11.521,0c0-1.92,0-3.84,0-5.76s0-3.84,0-5.76c-1.92,0-3.84,0-5.77,0c-1.92,0-3.83,0-5.75,0
	c0-1.92,0-3.84,0-5.76c1.92,0,3.83,0,5.75,0c0-3.9,0-7.8,0-11.7c-1.92,0-3.83,0-5.75,0c0-1.92,0-3.84,0-5.76c-0.19,0-0.36,0-0.54,0
	c-0.13,0-0.24,0-0.36,0c-0.24,0-0.479,0-0.72,0c-0.48,0-0.96,0-1.44,0c-0.96,0-1.92,0-2.88,0s-1.92,0-2.88,0s-1.93,0-2.89,0
	c0,3.9,0,7.8,0,11.7c-0.11,0-0.23,0-0.351,0c-0.189,0-0.359,0-0.54,0c-0.13,0-0.239,0-0.359,0c-0.181,0-0.36,0-0.54,0
	c-0.12,0-0.25,0-0.36,0c-0.18,0-0.37,0-0.54,0c-0.12,0-0.24,0-0.36,0c-0.18,0-0.359,0-0.539,0c-0.12,0-0.24,0-0.37,0
	c-0.17,0-0.351,0-0.54,0c-0.11,0-0.23,0-0.351,0c-0.189,0-0.359,0-0.54,0c-0.13,0-0.239,0-0.359,0c-0.181,0-0.36,0-0.54,0
	c-0.12,0-0.25,0-0.36,0c-0.18,0-0.37,0-0.54,0c-0.12,0-0.24,0-0.36,0c-0.18,0-0.359,0-0.539,0c-0.12,0-0.24,0-0.37,0
	c-0.17,0-0.351,0-0.54,0c-0.11,0-0.23,0-0.351,0c-0.189,0-0.359,0-0.54,0c-0.129,0-0.239,0-0.359,0c-0.18,0-0.36,0-0.54,0
	c-0.12,0-0.25,0-0.36,0c-0.18,0-0.37,0-0.54,0c-0.12,0-0.24,0-0.36,0c-0.18,0-0.36,0-0.54,0c-0.12,0-0.24,0-0.37,0
	c-0.17,0-0.351,0-0.54,0c-0.109,0-0.23,0-0.35,0c-0.19,0-0.36,0-0.541,0c-0.129,0-0.239,0-0.359,0c-0.18,0-0.359,0-0.54,0
	c-0.12,0-0.25,0-0.36,0c-0.18,0-0.369,0-0.539,0c-0.121,0-0.24,0-0.361,0c-0.18,0-0.359,0-0.539,0c-0.12,0-0.24,0-0.37,0
	c-0.17,0-0.351,0-0.54,0c-0.109,0-0.23,0-0.35,0c-0.19,0-0.36,0-0.541,0c-0.129,0-0.239,0-0.359,0c-0.18,0-0.359,0-0.54,0
	c-0.12,0-0.25,0-0.36,0c-0.18,0-0.369,0-0.539,0c-0.121,0-0.24,0-0.361,0c-0.18,0-0.359,0-0.539,0c-0.12,0-0.24,0-0.37,0
	c-0.17,0-0.351,0-0.54,0c-0.109,0-0.23,0-0.35,0c-0.19,0-0.36,0-0.541,0c-0.129,0-0.239,0-0.359,0c-0.18,0-0.359,0-0.54,0
	c-0.12,0-0.25,0-0.36,0c-0.18,0-0.369,0-0.539,0c-0.121,0-0.24,0-0.361,0c-0.18,0-0.359,0-0.539,0c-0.12,0-0.24,0-0.37,0
	c-0.17,0-0.351,0-0.54,0c-0.109,0-0.23,0-0.35,0c-0.19,0-0.36,0-0.541,0c-0.129,0-0.239,0-0.359,0c-0.18,0-0.359,0-0.54,0
	c0,1.92,0,3.84,0,5.76c-3.84,0-7.69,0-11.521,0c0,1.92,0,3.84,0,5.76c-1.92,0-3.84,0-5.76,0c0,1.92,0,3.84,0,5.76
	c-1.93,0-3.84,0-5.76,0c0,1.92,0,3.84,0,5.76c-1.92,0-3.84,0-5.76,0c0,7.68,0,15.36,0,23.041c1.92,0,3.84,0,5.76,0
	c0,1.92,0,3.84,0,5.76c1.92,0,3.83,0,5.76,0c0,1.92,0,3.84,0,5.76c1.92,0,3.84,0,5.76,0c0,1.92,0,3.84,0,5.76c-1.92,0-3.84,0-5.76,0
	c-1.93,0-3.84,0-5.76,0c0-1.92,0-3.84,0-5.76c-1.92,0-3.84,0-5.76,0c0-1.92,0-3.84,0-5.76c-0.961,0-1.93,0-2.891,0
	c-0.479,0-0.949,0-1.43,0c-0.55,0-1.09,0-1.63,0c0-1.92,0-3.84,0-5.76c-3.83,0-7.67,0-11.511,0c0-3.84,0-7.68,0-11.521
	c-1.93,0-3.84,0-5.76,0c0-5.76,0-11.52,0-17.28C13.439,63.54,15.35,63.54,17.279,63.54z M109.79,132.84c0-3.66,0-7.32,0-10.98
	c0-0.18,0-0.359,0-0.54c-0.05,0-0.11,0-0.17,0c-0.42,0-0.841,0-1.271,0c-0.229,0-0.479,0-0.71,0c-0.18,0-0.36,0-0.54,0
	c-0.84,0-1.68,0-2.52,0c-0.181,0-0.36,0-0.54,0c0,3.841,0,7.681,0,11.521C105.96,132.84,107.87,132.84,109.79,132.84z"/>
<path fill="#D42C41" d="M11.52,57.78c0,1.92,0,3.84,0,5.76c1.92,0,3.83,0,5.76,0c0-1.92,0-3.84,0-5.76
	C15.35,57.78,13.439,57.78,11.52,57.78z"/>
<path fill="#D42C41" d="M17.279,52.02c0,1.92,0,3.84,0,5.76c1.921,0,3.841,0,5.761,0c0-1.92,0-3.84,0-5.76
	C21.12,52.02,19.2,52.02,17.279,52.02z"/>
<path fill="#D42C41" d="M23.04,51.48c0,0.18,0,0.36,0,0.54c3.899,0,7.79,0,11.7,0c0-3.9,0-7.8,0-11.7c1.92,0,3.84,0,5.76,0
	c0-1.92,0-3.84,0-5.76c0.18,0,0.35,0,0.54,0c1.38,0,2.75,0,4.14,0c0.36,0,0.721,0,1.08,0c0.301,0,0.59,0,0.9,0c0.65,0,1.32,0,1.98,0
	c1.379,0,2.76,0,4.139,0c0.361,0,0.721,0,1.07,0c0.19,0,0.371,0,0.551,0c0.119,0,0.24,0,0.359,0c0.36,0,0.721,0,1.07,0
	c0.189,0,0.37,0,0.54,0c0.13,0,0.25,0,0.37,0c0.18,0,0.359,0,0.539,0c0-3.84,0-7.68,0-11.52c1.921,0,3.841,0,5.761,0
	c0-1.92,0-3.84,0-5.76c1.92,0,3.83,0,5.75,0c0-1.92,0-3.84,0-5.76c3.851,0,7.69,0,11.52,0c0,1.92,0,3.84,0,5.76
	c3.85,0,7.69,0,11.52,0c0-1.92,0-3.84,0-5.76c-1.91,0-3.83,0-5.75,0c0-1.92,0-3.84,0-5.76c-3.84,0-7.68,0-11.52,0
	c0-1.92,0-3.84,0-5.76c-3.84,0-7.69,0-11.521,0c0,1.92,0,3.84,0,5.76c-0.19,0-0.36,0-0.54,0c-0.9,0-1.8,0-2.71,0
	c-0.42,0-0.83,0-1.25,0c-0.479,0-0.96,0-1.44,0c-0.42,0-0.84,0-1.27,0c-0.48,0-0.96,0-1.43,0c-0.961,0-1.92,0-2.881,0
	c0,1.92,0,3.84,0,5.76c-0.189,0-0.359,0-0.539,0c-1.561,0-3.131,0-4.69,0c-0.17,0-0.351,0-0.53,0c0,3.84,0,7.68,0,11.52
	c1.92,0,3.84,0,5.76,0c0,1.92,0,3.84,0,5.76c-0.189,0-0.359,0-0.539,0c-0.9,0-1.801,0-2.701,0c-0.969,0-1.93,0-2.879,0
	c-0.961,0-1.92,0-2.881,0c-0.959,0-1.92,0-2.879,0c-0.42,0-0.851,0-1.271,0c-0.47,0-0.95,0-1.431,0c-0.959,0-1.92,0-2.879,0
	c-0.961,0-1.92,0-2.881,0c-0.959,0-1.92,0-2.89,0c0,1.92,0,3.84,0,5.76c-0.17,0-0.351,0-0.53,0c-1.56,0-3.119,0-4.68,0
	c-0.18,0-0.359,0-0.54,0c0,1.38,0,2.76,0,4.14c0,1.44,0,2.88,0,4.32c0,1.38,0,2.76,0,4.14C23.04,48.6,23.04,50.04,23.04,51.48z"/>
<path fill="#F79C7F" d="M34.74,69.3c0,7.68,0,15.36,0,23.041c1.92,0,3.84,0,5.76,0c0-7.68,0-15.36,0-23.041
	C38.58,69.3,36.66,69.3,34.74,69.3z"/>
<path fill="#232034" d="M40.5,92.34c0,1.92,0,3.84,0,5.76c1.92,0,3.83,0,5.76,0c0-3.84,0-7.68,0-11.52c0-1.92,0-3.84,0-5.761
	c0-1.92,0-3.84,0-5.76s0-3.84,0-5.76c-1.93,0-3.84,0-5.76,0C40.5,76.98,40.5,84.66,40.5,92.34z"/>
<path fill="#F79C7F" d="M40.5,63.54c0,1.92,0,3.84,0,5.76c1.92,0,3.83,0,5.76,0c0-1.92,0-3.84,0-5.76
	C44.33,63.54,42.42,63.54,40.5,63.54z"/>
<path fill="#F15A46" d="M46.26,119.7c0,0.541,0,1.08,0,1.62c1.92,0,3.84,0,5.76,0c0-0.96,0-1.92,0-2.88c0-0.48,0-0.96,0-1.439
	c0-0.541,0-1.08,0-1.621c-1.92,0-3.84,0-5.76,0c0,0.48,0,0.961,0,1.44s-0.01,0.96,0,1.44C46.26,118.741,46.26,119.22,46.26,119.7z"
	/>
<path fill="#232034" d="M46.26,109.62c0,1.92,0,3.84,0,5.76c1.92,0,3.84,0,5.76,0c0-1.92,0-3.84,0-5.76
	C50.1,109.62,48.18,109.62,46.26,109.62z"/>
<path fill="#232034" d="M46.26,98.1c0,1.92,0,3.84,0,5.76c1.92,0,3.84,0,5.76,0c0-1.92,0-3.84,0-5.76
	C50.1,98.1,48.18,98.1,46.26,98.1z"/>
<path fill="#AAAAAB" d="M46.26,86.581c0,3.84,0,7.68,0,11.52c1.92,0,3.84,0,5.76,0s3.83,0,5.76,0c0,1.92,0,3.84,0,5.76
	c1.921,0,3.841,0,5.761,0c0-1.92,0-3.84,0-5.76c0.181,0,0.36,0,0.54,0c0.42,0,0.84,0,1.25,0c0.25,0,0.48,0,0.73,0
	c0.18,0,0.359,0,0.539,0c0.42,0,0.84,0,1.25,0c0.43,0,0.851,0,1.271,0c0.06,0,0.12,0,0.17,0c0,1.92,0,3.84,0,5.76
	c1.931,0,3.851,0,5.771,0c0-1.92,0-3.84,0-5.76c1.92,0,3.84,0,5.75,0c0,1.92,0,3.84,0,5.76c1.93,0,3.85,0,5.77,0
	c0,1.92,0,3.84,0,5.76c-3.84,0-7.68,0-11.52,0c0,1.92,0,3.84,0,5.76c-0.19,0-0.36,0-0.541,0c-1.439,0-2.879,0-4.319,0
	c-0.72,0-1.44,0-2.16,0c-0.36,0-0.729,0-1.08,0c-0.181,0-0.36,0-0.54,0c-0.13,0-0.24,0-0.359,0c-0.73,0-1.44,0-2.16,0
	c-0.36,0-0.721,0-1.09,0c-0.17,0-0.351,0-0.531,0c-0.119,0-0.239,0-0.359,0c-0.72,0-1.439,0-2.16,0c-0.359,0-0.72,0-1.08,0
	c-0.18,0-0.369,0-0.539,0c-0.121,0-0.24,0-0.361,0c0,0.541,0,1.08,0,1.621c0,0.479,0,0.959,0,1.439s0,0.96,0,1.439
	c0,0.48,0,0.961,0,1.44c7.681,0,15.361,0,23.031,0c0-0.479,0-0.96,0-1.44c0-0.479,0.01-0.959,0-1.439c0-0.48,0-0.96,0-1.439
	c0-0.24,0-0.48,0-0.721s0-0.48,0-0.72c0-0.06,0-0.12,0-0.181c1.93,0,3.85,0,5.77,0s3.84,0,5.75,0c0-0.359,0-0.719,0-1.08
	c0-0.18,0-0.359,0-0.539s0-0.36,0-0.54c0-0.36,0-0.72,0-1.08c0-0.181,0-0.36,0-0.54s0-0.359,0-0.54s0-0.36,0-0.54s0-0.359,0-0.54
	s0-0.36,0-0.54s0-0.359,0-0.54c0-0.36,0-0.72,0-1.08c0-0.18,0-0.36,0-0.54s0-0.359,0-0.539c0-0.181,0-0.361,0-0.541s0-0.359,0-0.539
	c0-0.181,0-0.361,0-0.541s0-0.359,0-0.539c0-0.36,0-0.721,0-1.08c0-0.181,0-0.36,0-0.541c0-0.18,0-0.359,0-0.539s0-0.36,0-0.541
	c0-0.18,0-0.359,0-0.539s0-0.36,0-0.541c0-0.18,0-0.359,0-0.539c0-0.36,0-0.721,0-1.08c0-0.18,0-0.36,0-0.54c0-0.181,0-0.36,0-0.54
	c-1.91,0-3.83,0-5.75,0c0-3.84,0-7.68,0-11.52c-1.92,0-3.84,0-5.77,0c-1.91,0-3.83,0-5.75,0s-3.84,0-5.771,0c0-1.92,0-3.84,0-5.761
	c-1.92,0-3.83,0-5.75,0c0-0.18,0-0.36,0-0.54c0-0.84,0-1.68,0-2.52c0-0.42,0-0.84,0-1.26c0-0.24,0-0.48,0-0.72c0-0.24,0-0.48,0-0.72
	c1.92,0,3.83,0,5.75,0c1.45,0,2.89,0,4.33,0c0.71,0,1.44,0,2.159,0c0.361,0,0.721,0,1.07,0c0.19,0,0.371,0,0.551,0
	c0.119,0,0.24,0,0.359,0c0.721,0,1.44,0,2.16,0c0.36,0,0.72,0,1.08,0c0.18,0,0.35,0,0.54,0c0.12,0,0.24,0,0.36,0
	c0.72,0,1.43,0,2.16,0c0.36,0,0.72,0,1.08,0c0.17,0,0.36,0,0.54,0c0.11,0,0.24,0,0.36,0c0.18,0,0.359,0,0.54,0c0,1.92,0,3.84,0,5.76
	c1.92,0,3.84,0,5.75,0c0-1.92,0-3.84,0-5.76c0.54,0,1.09,0,1.63,0c0.479,0,0.96,0,1.439,0c0.95,0,1.91,0,2.88,0
	c1.921,0,3.841,0,5.761,0c0-1.92,0-3.84,0-5.76c-0.96,0-1.92,0-2.88,0c-0.48,0-0.96,0-1.44,0c-0.24,0-0.479,0-0.72,0
	s-0.48,0-0.721,0c-0.06,0-0.119,0-0.18,0c0-3.84,0-7.68,0-11.52c-1.92,0-3.84,0-5.77,0c0-1.92,0-3.84,0-5.76
	c-7.67,0-15.35,0-23.04,0c0,1.92,0,3.84,0,5.76c-1.92,0-3.83,0-5.75,0s-3.84,0-5.761,0c0,1.92,0,3.84,0,5.76c-1.93,0-3.84,0-5.76,0
	c0,1.92,0,3.84,0,5.76c0,1.92,0,3.84,0,5.76c1.92,0,3.83,0,5.76,0c0,3.84,0,7.68,0,11.521c1.921,0,3.841,0,5.761,0
	c0,1.92,0,3.84,0,5.76c-1.92,0-3.84,0-5.761,0c0-1.92,0-3.84,0-5.76c-1.93,0-3.84,0-5.76,0S48.18,86.581,46.26,86.581z"/>
<path fill="#F15A46" d="M46.26,80.82c0,1.92,0,3.84,0,5.761c1.92,0,3.84,0,5.76,0c0-1.92,0-3.84,0-5.761
	C50.1,80.82,48.18,80.82,46.26,80.82z"/>
<path fill="#010101" d="M46.26,75.06c0,1.92,0,3.84,0,5.76c1.92,0,3.84,0,5.76,0c0,1.92,0,3.84,0,5.761c1.92,0,3.83,0,5.76,0
	c0-3.84,0-7.681,0-11.521c-1.93,0-3.84,0-5.76,0S48.18,75.06,46.26,75.06z"/>
<path fill="#7B7B7B" d="M46.26,69.3c0,1.92,0,3.84,0,5.76c1.92,0,3.84,0,5.76,0c0-1.92,0-3.84,0-5.76
	C50.1,69.3,48.18,69.3,46.26,69.3z"/>
<path fill="#232034" d="M46.26,63.54c0,1.92,0,3.84,0,5.76c1.92,0,3.84,0,5.76,0c0-1.92,0-3.84,0-5.76s0-3.84,0-5.76
	c-1.92,0-3.84,0-5.76,0C46.26,59.7,46.26,61.62,46.26,63.54z"/>
<path fill="#F15A46" d="M52.02,121.32c0,1.921,0,3.841,0,5.761c1.92,0,3.83,0,5.76,0c0-1.92,0-3.84,0-5.761
	C55.85,121.32,53.939,121.32,52.02,121.32z"/>
<path fill="#232034" d="M52.02,118.44c0,0.96,0,1.92,0,2.88c1.92,0,3.83,0,5.76,0c0-0.479,0-0.96,0-1.44c0-0.479,0-0.959,0-1.439
	s0-0.96,0-1.439c0-0.541,0-1.08,0-1.621c-1.93,0-3.84,0-5.76,0c0,0.541,0,1.08,0,1.621C52.02,117.48,52.02,117.959,52.02,118.44z"/>
<path fill="#AAAAAB" d="M52.02,109.62c0,1.92,0,3.84,0,5.76c1.92,0,3.83,0,5.76,0c0-1.92,0-3.84,0-5.76
	C55.85,109.62,53.939,109.62,52.02,109.62z"/>
<path fill="#232034" d="M52.02,103.86c0,1.92,0,3.84,0,5.76c1.92,0,3.83,0,5.76,0c0-1.92,0-3.84,0-5.76
	C55.85,103.86,53.939,103.86,52.02,103.86z"/>
<path fill="#010101" d="M52.02,98.1c0,1.92,0,3.84,0,5.76c1.92,0,3.83,0,5.76,0c0-1.92,0-3.84,0-5.76
	C55.85,98.1,53.939,98.1,52.02,98.1z"/>
<path fill="#7B7B7B" d="M52.02,57.78c0,1.92,0,3.84,0,5.76c1.92,0,3.83,0,5.76,0c0-1.92,0-3.84,0-5.76
	C55.85,57.78,53.939,57.78,52.02,57.78z"/>
<path fill="#232034" d="M52.02,52.02c0,1.92,0,3.84,0,5.76c1.92,0,3.83,0,5.76,0c1.921,0,3.841,0,5.761,0c0-1.92,0-3.84,0-5.76
	C59.7,52.02,55.85,52.02,52.02,52.02z"/>
<path fill="#232034" d="M57.779,121.32c0,1.921,0,3.841,0,5.761c0.591,0,1.201,0,1.801,0c0.12,0,0.23,0,0.359,0
	c0.181,0,0.351,0,0.541,0c0.119,0,0.24,0,0.35,0c0.189,0,0.37,0,0.54,0c0.13,0,0.25,0,0.37,0c0.18,0,0.359,0,0.539,0
	c0.121,0,0.24,0,0.361,0c0.17,0,0.359,0,0.539,0c0.11,0,0.24,0,0.36,0c0.181,0,0.36,0,0.54,0c0.12,0,0.23,0,0.359,0
	c0.181,0,0.351,0,0.541,0c0.119,0,0.24,0,0.35,0c0.189,0,0.37,0,0.54,0c0.13,0,0.25,0,0.37,0c0.18,0,0.359,0,0.539,0
	c0.121,0,0.24,0,0.361,0c0.17,0,0.359,0,0.539,0c0.11,0,0.24,0,0.36,0c0.181,0,0.36,0,0.54,0c0.12,0,0.23,0,0.359,0
	c0.181,0,0.351,0,0.541,0c0.119,0,0.24,0,0.35,0c0.189,0,0.37,0,0.54,0c0.13,0,0.25,0,0.37,0c0.18,0,0.359,0,0.539,0
	c0.121,0,0.24,0,0.361,0c0.17,0,0.359,0,0.539,0c0.11,0,0.24,0,0.36,0c0.181,0,0.36,0,0.54,0c0.12,0,0.23,0,0.359,0
	c0.181,0,0.351,0,0.541,0c0.119,0,0.24,0,0.35,0c0.189,0,0.37,0,0.54,0c0.13,0,0.25,0,0.37,0c0.18,0,0.359,0,0.539,0
	c0.121,0,0.24,0,0.361,0c0.17,0,0.359,0,0.539,0c0.11,0,0.24,0,0.36,0c0.181,0,0.36,0,0.54,0c0.12,0,0.23,0,0.359,0
	c0.181,0,0.351,0,0.541,0c0.119,0,0.24,0,0.35,0c0.189,0,0.37,0,0.54,0c0.13,0,0.25,0,0.37,0c0.18,0,0.36,0,0.54,0
	c0.12,0,0.24,0,0.36,0c0.17,0,0.36,0,0.54,0c0.11,0,0.24,0,0.36,0c0.18,0,0.36,0,0.54,0c0.12,0,0.23,0,0.359,0
	c0.181,0,0.351,0,0.54,0c0.12,0,0.24,0,0.351,0c0.189,0,0.37,0,0.54,0c0.13,0,0.25,0,0.37,0c0.18,0,0.359,0,0.539,0
	c0.12,0,0.24,0,0.36,0c0.17,0,0.36,0,0.54,0c0.11,0,0.24,0,0.36,0c0.18,0,0.359,0,0.54,0c0-1.92,0-3.84,0-5.761
	c-1.92,0-3.84,0-5.77,0C73.141,121.32,65.46,121.32,57.779,121.32z"/>
<path fill="#010101" d="M57.779,109.62c0,1.92,0,3.84,0,5.76c0.121,0,0.24,0,0.361,0c0.17,0,0.359,0,0.539,0c0.36,0,0.721,0,1.08,0
	c0.721,0,1.44,0,2.16,0c0.12,0,0.24,0,0.359,0c0.181,0,0.361,0,0.531,0c0.369,0,0.729,0,1.09,0c0.72,0,1.43,0,2.16,0
	c0.119,0,0.229,0,0.359,0c0.18,0,0.359,0,0.54,0c0.351,0,0.72,0,1.08,0c0.72,0,1.44,0,2.16,0c1.44,0,2.88,0,4.319,0
	c0.181,0,0.351,0,0.541,0c0-1.92,0-3.84,0-5.76c3.84,0,7.68,0,11.52,0c0-1.92,0-3.84,0-5.76c-1.92,0-3.84,0-5.77,0
	c0-1.92,0-3.84,0-5.76c-1.91,0-3.83,0-5.75,0c0,1.92,0,3.84,0,5.76c-1.92,0-3.84,0-5.771,0c0-1.92,0-3.84,0-5.76
	c-0.05,0-0.11,0-0.17,0c-0.42,0-0.841,0-1.271,0c-0.41,0-0.83,0-1.25,0c-0.18,0-0.359,0-0.539,0c-0.25,0-0.48,0-0.73,0
	c-0.41,0-0.83,0-1.25,0c-0.18,0-0.359,0-0.54,0c0,1.92,0,3.84,0,5.76c-1.92,0-3.84,0-5.761,0
	C57.779,105.78,57.779,107.7,57.779,109.62z"/>
<path fill="#010101" d="M57.779,86.581c0,1.92,0,3.84,0,5.76c1.921,0,3.841,0,5.761,0c0-1.92,0-3.84,0-5.76
	C61.62,86.581,59.7,86.581,57.779,86.581z"/>
<path fill="#7B7B7B" d="M63.54,80.28c0,0.18,0,0.36,0,0.54c1.92,0,3.83,0,5.75,0c0-1.92,0-3.84,0-5.76c-1.92,0-3.83,0-5.75,0
	c0,0.24,0,0.48,0,0.72c0,0.24,0,0.48,0,0.72c0,0.42,0,0.84,0,1.26C63.54,78.6,63.54,79.44,63.54,80.28z"/>
<path fill="#7B7B7B" d="M63.54,52.02c0,1.92,0,3.84,0,5.76c1.92,0,3.83,0,5.75,0c0-1.92,0-3.84,0-5.76
	C67.37,52.02,65.46,52.02,63.54,52.02z"/>
<path fill="#232034" d="M63.54,46.26c0,1.92,0,3.84,0,5.76c1.92,0,3.83,0,5.75,0c7.69,0,15.37,0,23.04,0c1.93,0,3.85,0,5.77,0
	c0-1.92,0-3.84,0-5.76c-1.92,0-3.84,0-5.77,0c-0.11,0-0.23,0-0.351,0c-0.189,0-0.359,0-0.54,0c-0.13,0-0.239,0-0.359,0
	c-0.181,0-0.36,0-0.54,0c-0.12,0-0.25,0-0.36,0c-0.18,0-0.37,0-0.54,0c-0.12,0-0.24,0-0.36,0c-0.18,0-0.359,0-0.539,0
	c-0.12,0-0.24,0-0.37,0c-0.17,0-0.351,0-0.54,0c-0.11,0-0.23,0-0.351,0c-0.189,0-0.359,0-0.54,0c-0.13,0-0.239,0-0.359,0
	c-0.181,0-0.36,0-0.54,0c-0.12,0-0.25,0-0.36,0c-0.18,0-0.37,0-0.54,0c-0.12,0-0.24,0-0.36,0c-0.18,0-0.359,0-0.539,0
	c-0.12,0-0.24,0-0.37,0c-0.17,0-0.351,0-0.54,0c-0.11,0-0.23,0-0.351,0c-0.189,0-0.359,0-0.54,0c-0.129,0-0.239,0-0.359,0
	c-0.18,0-0.36,0-0.54,0c-0.12,0-0.25,0-0.36,0c-0.18,0-0.37,0-0.54,0c-0.12,0-0.24,0-0.36,0c-0.18,0-0.36,0-0.54,0
	c-0.12,0-0.24,0-0.37,0c-0.17,0-0.351,0-0.54,0c-0.109,0-0.23,0-0.35,0c-0.19,0-0.36,0-0.541,0c-0.129,0-0.239,0-0.359,0
	c-0.18,0-0.359,0-0.54,0c-0.12,0-0.25,0-0.36,0c-0.18,0-0.369,0-0.539,0c-0.121,0-0.24,0-0.361,0c-0.18,0-0.359,0-0.539,0
	c-0.12,0-0.24,0-0.37,0c-0.17,0-0.351,0-0.54,0c-0.109,0-0.23,0-0.35,0c-0.19,0-0.36,0-0.541,0c-0.129,0-0.239,0-0.359,0
	c-0.18,0-0.359,0-0.54,0c-0.12,0-0.25,0-0.36,0c-0.18,0-0.369,0-0.539,0c-0.121,0-0.24,0-0.361,0c-0.18,0-0.359,0-0.539,0
	c-0.12,0-0.24,0-0.37,0c-0.17,0-0.351,0-0.54,0c-0.109,0-0.23,0-0.35,0c-0.19,0-0.36,0-0.541,0c-0.129,0-0.239,0-0.359,0
	c-0.18,0-0.359,0-0.54,0c-0.12,0-0.25,0-0.36,0c-0.18,0-0.369,0-0.539,0c-0.121,0-0.24,0-0.361,0c-0.18,0-0.359,0-0.539,0
	c-0.12,0-0.24,0-0.37,0c-0.17,0-0.351,0-0.54,0c-0.109,0-0.23,0-0.35,0c-0.19,0-0.36,0-0.541,0c-0.129,0-0.239,0-0.359,0
	C63.9,46.26,63.721,46.26,63.54,46.26z"/>
<path fill="#F15A46" d="M69.29,80.82c0,1.92,0,3.84,0,5.761c1.931,0,3.851,0,5.771,0c0-1.92,0-3.84,0-5.761
	C73.141,80.82,71.221,80.82,69.29,80.82z"/>
<path fill="#010101" d="M69.29,75.06c0,1.92,0,3.84,0,5.76c1.931,0,3.851,0,5.771,0c0,1.92,0,3.84,0,5.761c1.92,0,3.84,0,5.75,0
	c0-1.92,0-3.84,0-5.761c1.93,0,3.85,0,5.77,0c0-1.92,0-3.84,0-5.76c-0.181,0-0.36,0-0.54,0c-0.12,0-0.25,0-0.36,0
	c-0.18,0-0.37,0-0.54,0c-0.36,0-0.72,0-1.08,0c-0.729,0-1.439,0-2.16,0c-0.12,0-0.24,0-0.36,0c-0.19,0-0.36,0-0.54,0
	c-0.36,0-0.72,0-1.08,0c-0.72,0-1.439,0-2.16,0c-0.119,0-0.24,0-0.359,0c-0.18,0-0.36,0-0.551,0c-0.35,0-0.709,0-1.07,0
	c-0.719,0-1.449,0-2.159,0C72.18,75.06,70.74,75.06,69.29,75.06z"/>
<path fill="#7B7B7B" d="M80.81,119.879c0,0.48,0,0.961,0,1.44c1.93,0,3.85,0,5.77,0c0-0.479,0-0.96,0-1.44c0-0.479,0-0.959,0-1.439
	s0-0.96,0-1.439c0-0.541,0-1.08,0-1.621c-1.92,0-3.84,0-5.77,0c0,0.061,0,0.121,0,0.181c0,0.239,0,0.479,0,0.72s0,0.48,0,0.721
	c0,0.479,0,0.959,0,1.439C80.82,118.92,80.81,119.4,80.81,119.879z"/>
<path fill="#7B7B7B" d="M80.81,80.82c0,1.92,0,3.84,0,5.761c1.93,0,3.85,0,5.77,0c0,3.84,0,7.68,0,11.52c1.92,0,3.84,0,5.75,0
	c0-1.92,0-3.84,0-5.76c1.93,0,3.85,0,5.77,0c0-1.92,0-3.84,0-5.76c0.54,0,1.08,0,1.62,0c0.48,0,0.96,0,1.44,0c0.96,0,1.92,0,2.88,0
	c0-1.92,0-3.84,0-5.761c1.92,0,3.83,0,5.75,0c0-2.88,0-5.76,0-8.64c0-2.88,0-5.76,0-8.64c-1.92,0-3.83,0-5.75,0
	c0-1.92,0-3.84,0-5.76c-0.96,0-1.92,0-2.88,0c-0.48,0-0.96,0-1.44,0c-0.54,0-1.08,0-1.62,0c0,3.84,0,7.68,0,11.52
	c0.061,0,0.12,0,0.18,0c0.24,0,0.48,0,0.721,0s0.479,0,0.72,0c0.48,0,0.96,0,1.44,0c0.96,0,1.92,0,2.88,0c0,1.92,0,3.84,0,5.76
	c-1.92,0-3.84,0-5.761,0c-0.97,0-1.93,0-2.88,0c-0.479,0-0.96,0-1.439,0c-0.54,0-1.09,0-1.63,0c0,1.92,0,3.84,0,5.76
	c-1.91,0-3.83,0-5.75,0S82.74,80.82,80.81,80.82z"/>
<path fill="#232034" d="M86.58,119.879c0,0.48,0,0.961,0,1.44c1.92,0,3.84,0,5.75,0c0-0.479,0-0.96,0-1.44c0-0.479,0-0.959,0-1.439
	s0-0.96,0-1.439c0-0.541,0-1.08,0-1.621c-1.91,0-3.83,0-5.75,0c0,0.541,0,1.08,0,1.621c0,0.479,0,0.959,0,1.439
	S86.58,119.4,86.58,119.879z"/>
<path fill="#D42C41" d="M92.33,155.879c0,1.92,0,3.841,0,5.761c1.93,0,3.85,0,5.77,0c0,0.18,0,0.36,0,0.54s0,0.359,0,0.54
	c0,0.18,0,0.36,0,0.54s0,0.359,0,0.539c0,0.24,0,0.48,0,0.721c0,0.18,0,0.359,0,0.54s0,0.36,0,0.54c0,0.42,0,0.84,0,1.26
	c0,0.18,0,0.36,0,0.54c0.18,0,0.36,0,0.54,0c0.17,0,0.36,0,0.54,0c0.36,0,0.72,0,1.08,0c0.18,0,0.36,0,0.53,0c0.189,0,0.37,0,0.54,0
	c0.37,0,0.729,0,1.09,0c0.18,0,0.359,0,0.54,0c0.18,0,0.35,0,0.54,0c0.35,0,0.72,0,1.08,0c0.71,0,1.439,0,2.16,0
	c0.18,0,0.359,0,0.539,0c0.181,0,0.36,0,0.53,0c0.37,0,0.73,0,1.09,0c0.181,0,0.36,0,0.54,0c0.181,0,0.351,0,0.54,0
	c0.351,0,0.721,0,1.08,0c0.181,0,0.36,0,0.54,0s0.36,0,0.54,0c0.36,0,0.71,0,1.08,0c0.36,0,0.72,0,1.07,0c0.43,0,0.85,0,1.27,0
	c0-1.92,0-3.84,0-5.76c-3.84,0-7.689,0-11.52,0c0-1.92,0-3.841,0-5.761c-0.061,0-0.12,0-0.19,0c-0.229,0-0.479,0-0.71,0
	c-0.24,0-0.479,0-0.72,0c-0.48,0-0.96,0-1.44,0c-0.96,0-1.92,0-2.88,0s-1.92,0-2.88,0S93.29,155.879,92.33,155.879z"/>
<path fill="#232034" d="M92.33,114.299c0,0.361,0,0.721,0,1.08c1.93,0,3.85,0,5.77,0c0-0.18,0-0.359,0-0.539s0-0.36,0-0.541
	c0-0.18,0-0.359,0-0.539s0-0.36,0-0.54c0-0.181,0-0.36,0-0.54s0-0.36,0-0.54c0-0.181,0-0.36,0-0.54s0-0.359,0-0.54s0-0.36,0-0.54
	s0-0.359,0-0.54s0-0.36,0-0.54s0-0.359,0-0.54c0-0.18,0-0.36,0-0.54s0-0.359,0-0.54c0-0.18,0-0.36,0-0.54s0-0.359,0-0.539
	c0-0.181,0-0.361,0-0.541s0-0.359,0-0.539c0-0.181,0-0.361,0-0.541s0-0.359,0-0.539c0-0.181,0-0.36,0-0.541c0-0.18,0-0.359,0-0.539
	c0-0.181,0-0.36,0-0.541c0-0.18,0-0.359,0-0.539s0-0.36,0-0.541c0-0.18,0-0.359,0-0.539s0-0.36,0-0.541c0-0.18,0-0.359,0-0.539
	c0-0.721,0-1.44,0-2.16c0.96,0,1.92,0,2.88,0c0.48,0,0.96,0,1.44,0c0.54,0,1.08,0,1.62,0c0-1.92,0-3.84,0-5.76c1.92,0,3.83,0,5.75,0
	c0-1.92,0-3.84,0-5.76c1.93,0,3.85,0,5.77,0c0-2.88,0-5.761,0-8.641s0-5.76,0-8.64c0-1.92,0-3.84,0-5.76c-1.92,0-3.84,0-5.77,0
	c0,2.88,0,5.76,0,8.64c0,2.88,0,5.76,0,8.64c-1.92,0-3.83,0-5.75,0c0,1.92,0,3.84,0,5.761c-0.96,0-1.92,0-2.88,0
	c-0.48,0-0.96,0-1.44,0c-0.54,0-1.08,0-1.62,0c0,1.92,0,3.84,0,5.76c-1.92,0-3.84,0-5.77,0c0,1.92,0,3.84,0,5.76
	c0,0.18,0,0.359,0,0.54c0,0.18,0,0.36,0,0.54c0,0.359,0,0.72,0,1.08c0,0.18,0,0.359,0,0.539c0,0.181,0,0.361,0,0.541
	s0,0.359,0,0.539c0,0.181,0,0.361,0,0.541s0,0.359,0,0.539c0,0.181,0,0.36,0,0.541c0,0.359,0,0.72,0,1.08c0,0.18,0,0.359,0,0.539
	s0,0.36,0,0.541c0,0.18,0,0.359,0,0.539s0,0.36,0,0.541c0,0.18,0,0.359,0,0.539s0,0.36,0,0.54c0,0.36,0,0.72,0,1.08
	c0,0.181,0,0.36,0,0.54s0,0.359,0,0.54s0,0.36,0,0.54s0,0.359,0,0.54s0,0.36,0,0.54s0,0.359,0,0.54c0,0.36,0,0.72,0,1.08
	c0,0.18,0,0.36,0,0.54S92.33,114.12,92.33,114.299z"/>
<path fill="#7B7B7B" d="M92.33,52.02c0,1.92,0,3.84,0,5.76c1.93,0,3.85,0,5.77,0c0-1.92,0-3.84,0-5.76
	C96.18,52.02,94.26,52.02,92.33,52.02z"/>
<path fill="#F79C7F" d="M92.33,34.56c0,3.9,0,7.8,0,11.7c1.93,0,3.85,0,5.77,0c0,1.92,0,3.84,0,5.76c0.54,0,1.08,0,1.62,0
	c0.48,0,0.96,0,1.44,0c0.96,0,1.92,0,2.88,0c1.92,0,3.83,0,5.75,0c0-3.9,0-7.8,0-11.7c-1.92,0-3.83,0-5.75,0c0-1.92,0-3.84,0-5.76
	c-0.19,0-0.36,0-0.54,0c-0.13,0-0.24,0-0.36,0c-0.24,0-0.479,0-0.72,0c-0.48,0-0.96,0-1.44,0c-0.96,0-1.92,0-2.88,0s-1.92,0-2.88,0
	S93.29,34.56,92.33,34.56z"/>
<path fill="#D42C41" d="M92.33,17.28c0,1.92,0,3.84,0,5.76c0.54,0,1.09,0,1.63,0c0.479,0,0.96,0,1.439,0c0.95,0,1.91,0,2.88,0
	c0.961,0,1.921,0,2.881,0s1.92,0,2.88,0s1.92,0,2.88,0c0.95,0,1.91,0,2.87,0c0.97,0,1.93,0,2.89,0s1.92,0,2.88,0
	c0,1.92,0,3.84,0,5.76c3.84,0,7.681,0,11.521,0c0-3.84,0-7.68,0-11.52c-1.92,0-3.84,0-5.771,0c0-0.18,0-0.36,0-0.54
	c0-1.56,0-3.12,0-4.68c0-0.18,0-0.36,0-0.54c-1.439,0-2.87,0-4.31,0c-1.44,0-2.88,0-4.32,0c-1.439,0-2.89,0-4.33,0
	c-1.43,0-2.87,0-4.31,0c0,1.92,0,3.84,0,5.76c-0.12,0-0.25,0-0.36,0C99.899,17.28,96.12,17.28,92.33,17.28z"/>
<path fill="#232034" d="M98.1,52.02c0,1.92,0,3.84,0,5.76c0.54,0,1.08,0,1.62,0c0.48,0,0.96,0,1.44,0c0.96,0,1.92,0,2.88,0
	c0-1.92,0-3.84,0-5.76c-0.96,0-1.92,0-2.88,0c-0.48,0-0.96,0-1.44,0C99.18,52.02,98.64,52.02,98.1,52.02z"/>
<path fill="#F79C7F" d="M104.04,121.32c0,3.841,0,7.681,0,11.521c1.92,0,3.83,0,5.75,0c0-3.66,0-7.32,0-10.98c0-0.18,0-0.359,0-0.54
	c-0.05,0-0.11,0-0.17,0c-0.42,0-0.841,0-1.271,0c-0.229,0-0.479,0-0.71,0c-0.18,0-0.36,0-0.54,0c-0.84,0-1.68,0-2.52,0
	C104.399,121.32,104.22,121.32,104.04,121.32z"/>
<path fill="#232034" d="M104.04,57.78c0,1.92,0,3.84,0,5.76c1.92,0,3.83,0,5.75,0c0-1.92,0-3.84,0-5.76
	C107.87,57.78,105.96,57.78,104.04,57.78z"/>
<path fill="#F79C7F" d="M109.79,57.78c0,1.92,0,3.84,0,5.76c1.93,0,3.85,0,5.77,0c0-1.92,0-3.84,0-5.76
	C113.64,57.78,111.72,57.78,109.79,57.78z"/>
<path fill="#D42C41" d="M115.56,155.879c0,1.92,0,3.841,0,5.761c3.84,0,7.681,0,11.521,0c0-1.92,0-3.841,0-5.761
	c1.92,0,3.84,0,5.75,0c0-1.92,0-3.84,0-5.76c0.189,0,0.37,0,0.54,0c0.37,0,0.729,0,1.09,0c0.41,0,0.83,0,1.26,0
	c0.36,0,0.72,0,1.07,0c0.189,0,0.37,0,0.54,0c0.25,0,0.479,0,0.729,0c0.181,0,0.36,0,0.54,0c0-3.84,0-7.68,0-11.52
	c1.92,0,3.84,0,5.75,0c0-1.92,0-3.84,0-5.76c3.851,0,7.69,0,11.521,0c0-1.92,0-3.84,0-5.76c1.92,0,3.85,0,5.77,0
	c0-2.881,0-5.761,0-8.641c0-1.439,0-2.88,0-4.32c0-1.5,0-3,0-4.5c-1.92,0-3.85,0-5.77,0c0-0.119,0-0.24,0-0.359
	c0-1.381,0-2.76,0-4.141c0-1.379,0-2.76,0-4.14s0-2.76,0-4.14c0-0.18,0-0.36,0-0.541c0-0.18,0-0.359,0-0.539c0-0.36,0-0.721,0-1.08
	c0-0.18,0-0.36,0-0.54c0-0.181,0-0.36,0-0.54s0-0.359,0-0.54c0-0.24,0-0.479,0-0.72c0.189,0,0.37,0,0.55,0c1.56,0,3.12,0,4.68,0
	c0.18,0,0.36,0,0.54,0c0-3.84,0-7.68,0-11.521c-1.92,0-3.85,0-5.77,0c0-0.18,0-0.36,0-0.54c0-1.74,0-3.48,0-5.22
	c0.189,0,0.37,0,0.55,0c1.56,0,3.12,0,4.68,0c0.18,0,0.36,0,0.54,0c0-3.84,0-7.68,0-11.52c-1.92,0-3.85,0-5.77,0
	c0-0.18,0-0.36,0-0.54c0-1.8,0-3.6,0-5.4c0-1.86,0-3.72,0-5.58c-3.83,0-7.67,0-11.521,0c0-1.92,0-3.84,0-5.76
	c-3.83,0-7.67,0-11.52,0c0-0.12,0-0.24,0-0.36c0-1.38,0-2.76,0-4.14c0-1.44,0-2.88,0-4.32c0-2.88,0-5.76,0-8.64
	c-1.91,0-3.83,0-5.75,0c0,7.74,0,15.48,0,23.22c-1.92,0-3.84,0-5.771,0c0,1.92,0,3.84,0,5.76c7.69,0,15.37,0,23.04,0
	c0,1.92,0,3.84,0,5.76c1.93,0,3.851,0,5.771,0c0,3.84,0,7.68,0,11.52c-1.92,0-3.841,0-5.771,0c0,0.18,0,0.36,0,0.54
	c0,0.12,0,0.24,0,0.36c0,0.18,0,0.36,0,0.54c0,0.36,0,0.72,0,1.08c0,0.12,0,0.24,0,0.36c0,0.18,0,0.36,0,0.54c0,0.36,0,0.72,0,1.08
	c0,1.38,0,2.76,0,4.14c0,0.12,0,0.24,0,0.36c0,0.18,0,0.36,0,0.54c0,0.36,0,0.72,0,1.08c0,0.119,0,0.24,0,0.359
	c0,0.181,0,0.36,0,0.541c0,0.359,0,0.719,0,1.08c0,1.379,0,2.76,0,4.139c0,0.181,0,0.361,0,0.541c1.93,0,3.851,0,5.771,0
	c0,1.92,0,3.84,0,5.76c-1.92,0-3.841,0-5.771,0c0,3.66,0,7.32,0,10.98c0,0.18,0,0.359,0,0.539c1.93,0,3.851,0,5.771,0
	c0,1.92,0,3.84,0,5.76c0,0.961,0,1.92,0,2.881c0,0.48,0,0.96,0,1.439c0,0.541,0,1.08,0,1.62c-1.92,0-3.841,0-5.771,0
	c0,1.921,0,3.841,0,5.761c-1.91,0-3.83,0-5.75,0c0,1.92,0,3.84,0,5.76c-1.92,0-3.84,0-5.77,0c0,1.92,0,3.84,0,5.76
	c-1.91,0-3.83,0-5.75,0c0,1.92,0,3.84,0,5.76c-1.92,0-3.84,0-5.771,0c0,3.84,0,7.68,0,11.52
	C119.399,155.879,117.479,155.879,115.56,155.879z"/>
<path fill="#F79C7F" d="M115.56,98.1c0,3.84,0,7.68,0,11.52c3.84,0,7.681,0,11.521,0c0,1.92,0,3.84,0,5.76c1.92,0,3.84,0,5.75,0
	c0-1.92,0-3.84,0-5.76c1.93,0,3.85,0,5.77,0c0-3.84,0-7.68,0-11.52c-1.92,0-3.84,0-5.77,0c0-1.92,0-3.84,0-5.76
	c1.93,0,3.85,0,5.77,0c0-5.76,0-11.521,0-17.28c-3.84,0-7.68,0-11.52,0c0-1.92,0-3.84,0-5.76c-3.84,0-7.681,0-11.521,0
	c0,2.88,0,5.76,0,8.64s0,5.76,0,8.641c0,1.92,0,3.84,0,5.76c1.92,0,3.84,0,5.75,0c0,1.92,0,3.84,0,5.76
	C119.399,98.1,117.479,98.1,115.56,98.1z"/>
</svg>
