<?xml version="1.0" encoding="utf-8"?>
<!-- Generator: Adobe Illustrator 15.0.0, SVG Export Plug-In  -->
<!DOCTYPE svg PUBLIC "-//W3C//DTD SVG 1.1//EN" "http://www.w3.org/Graphics/SVG/1.1/DTD/svg11.dtd" [
	<!ENTITY ns_flows "http://ns.adobe.com/Flows/1.0/">
]>
<svg version="1.1"
	 xmlns="http://www.w3.org/2000/svg" xmlns:xlink="http://www.w3.org/1999/xlink" xmlns:a="http://ns.adobe.com/AdobeSVGViewerExtensions/3.0/"
	 x="0px" y="0px" width="200px" height="200px" viewBox="-15.609 -21.63 200 200" enable-background="new -15.609 -21.63 200 200"
	 xml:space="preserve">
<defs>
</defs>
<path fill="#D42C41" d="M0,98.101C0,102,0,105.899,0,109.8c1.92,0,3.84,0,5.76,0c0,1.92,0,3.84,0,5.76c1.92,0,3.83,0,5.76,0
	c0,1.92,0,3.84,0,5.761c3.84,0,7.68,0,11.52,0c0,1.92,0,3.84,0,5.76c1.921,0,3.841,0,5.761,0c0,3.84,0,7.681,0,11.521
	c1.92,0,3.83,0,5.75,0c0,1.92,0,3.84,0,5.76c0.19,0,0.37,0,0.54,0c0.189,0,0.37,0,0.54,0c0.31,0,0.61,0,0.909,0
	c0.591,0,1.201,0,1.801,0s1.199,0,1.79,0c0.61,0,1.21,0,1.81,0c1.19,0,2.4,0,3.6,0c0.591,0,1.201,0,1.801,0s1.199,0,1.79,0
	c1.21,0,2.409,0,3.61,0c0.6,0,1.199,0,1.799,0c0.591,0,1.201,0,1.801,0s1.199,0,1.79,0c0.13,0,0.25,0,0.37,0c0.18,0,0.359,0,0.539,0
	c0.121,0,0.24,0,0.361,0c0.17,0,0.359,0,0.539,0c0.6,0,1.19,0,1.801,0c0.119,0,0.24,0,0.35,0c0.189,0,0.37,0,0.54,0
	c0.13,0,0.25,0,0.37,0c0.18,0,0.359,0,0.539,0c0-1.92,0-3.84,0-5.76c-5.76,0-11.52,0-17.279,0c0-1.92,0-3.84,0-5.76
	c-1.92,0-3.84,0-5.76,0c0-1.921,0-3.841,0-5.761c-1.98,0-3.961,0-5.95,0c0-3.84,0-7.681,0-11.521c-3.83,0-7.67,0-11.511,0
	c0-1.92,0-3.84,0-5.76c-1.93,0-3.84,0-5.76,0c0-1.979,0-3.959,0-5.939c-1.92,0-3.84,0-5.76,0c0-3.84,0-7.68,0-11.52
	c1.92,0,3.84,0,5.76,0c0-3.841,0-7.681,0-11.521c-1.92,0-3.84,0-5.76,0c0,1.92,0,3.84,0,5.76c-1.93,0-3.84,0-5.76,0
	c0,3.84,0,7.681,0,11.521C3.84,98.101,1.92,98.101,0,98.101z"/>
<path fill="#F15A46" d="M17.279,92.341c0-3.841,0-7.681,0-11.521c2.881,0,5.76,0,8.641,0c2.88,0,5.76,0,8.63,0
	c0-3.84,0-7.68,0-11.52c0.54,0,1.08,0,1.63,0c0.48,0,0.95,0,1.43,0c0.961,0,1.93,0,2.891,0c0-3.84,0-7.68,0-11.52
	c1.92,0,3.84,0,5.76,0c0-0.54,0-1.08,0-1.62c0-0.48,0-0.96,0-1.44s0-0.96,0-1.44s0-0.96,0-1.44s0-0.96,0-1.44s0-0.96,0-1.44
	s0-0.96,0-1.44s0-0.96,0-1.44s0-0.96,0-1.44s0-0.96,0-1.44s0-0.96,0-1.44s0-0.96,0-1.44s0-0.96,0-1.44c0-0.48,0-0.96,0-1.44
	s0-0.96,0-1.44s0-0.96,0-1.44c1.92,0,3.83,0,5.76,0c0-3.84,0-7.68,0-11.52c0.18,0,0.36,0,0.53,0c1.39,0,2.771,0,4.149,0
	c0.351,0,0.721,0,1.08,0c0.181,0,0.351,0,0.541,0c0.119,0,0.229,0,0.359,0c0.359,0,0.721,0,1.08,0c0.18,0,0.35,0,0.54,0
	c0.12,0,0.239,0,0.36,0c0.72,0,1.43,0,2.16,0c0.359,0,0.719,0,1.08,0c0.17,0,0.359,0,0.539,0c0.11,0,0.24,0,0.36,0
	c0.36,0,0.72,0,1.08,0c0.17,0,0.36,0,0.54,0c0.119,0,0.24,0,0.359,0c0.351,0,0.721,0,1.08,0c0.18,0,0.36,0,0.541,0
	c0.119,0,0.229,0,0.359,0c0.18,0,0.35,0,0.54,0c0-1.92,0-3.84,0-5.76c0.181,0,0.36,0,0.54,0c0.71,0,1.439,0,2.16,0
	c0.18,0,0.359,0,0.539,0c0.181,0,0.361,0,0.531,0c0.189,0,0.369,0,0.539,0c0.131,0,0.25,0,0.371,0c0.18,0,0.359,0,0.539,0
	s0.36,0,0.53,0c0.19,0,0.37,0,0.54,0c0.13,0,0.25,0,0.37,0c0.17,0,0.36,0,0.54,0s0.359,0,0.539,0c0.181,0,0.361,0,0.531,0
	c0.129,0,0.25,0,0.369,0c0.721,0,1.44,0,2.15,0c0.189,0,0.37,0,0.54,0c0.19,0,0.37,0,0.55,0s0.359,0,0.54,0c0.12,0,0.24,0,0.35,0
	c0.19,0,0.37,0,0.54,0c0.19,0,0.37,0,0.55,0c0.18,0,0.36,0,0.54,0c0.12,0,0.24,0,0.35,0c0.19,0,0.37,0,0.54,0c0.19,0,0.37,0,0.54,0
	c0.19,0,0.37,0,0.55,0c0.12,0,0.24,0,0.359,0c0.181,0,0.36,0,0.53,0c0-1.92,0-3.84,0-5.76c3.851,0,7.69,0,11.521,0
	c0,1.92,0,3.84,0,5.76c0.54,0,1.09,0,1.63,0c0.479,0,0.96,0,1.439,0c0.95,0,1.91,0,2.88,0c1.921,0,3.841,0,5.761,0
	c0,1.92,0,3.84,0,5.76c7.68,0,15.359,0,23.04,0c0,1.92,0,3.84,0,5.76c1.92,0,3.84,0,5.75,0c0,1.92,0,3.84,0,5.76
	c1.93,0,3.85,0,5.77,0c0,7.74,0,15.48,0,23.22c0,7.68,0,15.36,0,23.04c1.92,0,3.84,0,5.75,0c0,0.18,0,0.36,0,0.54
	c0,0.84,0,1.68,0,2.52s0,1.68,0,2.52c0,1.681,0,3.361,0,5.041c0,3.3,0,6.6,0,9.9c0,3.359,0,6.719,0,10.079c0,1.681,0,3.36,0,5.04
	c0,1.62,0,3.24,0,4.86c-3.83,0-7.67,0-11.52,0c0,1.92,0,3.84,0,5.76c-1.91,0-3.83,0-5.75,0c0,1.92,0,3.84,0,5.761
	c-0.181,0-0.36,0-0.54,0c-1.38,0-2.761,0-4.141,0c-0.359,0-0.72,0-1.09,0c-0.17,0-0.35,0-0.53,0c-0.119,0-0.239,0-0.359,0
	c-0.36,0-0.72,0-1.09,0c-0.17,0-0.351,0-0.54,0c-0.11,0-0.23,0-0.351,0c-1.38,0-2.76,0-4.149,0c-0.351,0-0.71,0-1.07,0
	c-0.18,0-0.37,0-0.54,0c-0.12,0-0.24,0-0.37,0c-0.35,0-0.71,0-1.069,0c-0.181,0-0.37,0-0.54,0c-0.12,0-0.24,0-0.37,0
	c-0.17,0-0.351,0-0.54,0c0,1.92,0,3.84,0,5.76c-2.94,0-5.87,0-8.811,0c-2.88,0-5.76,0-8.649,0c0,1.92,0,3.84,0,5.76
	c-2.87,0-5.75,0-8.63,0c-2.891,0-5.76,0-8.64,0c-2.881,0-5.771,0-8.641,0c-2.88,0-5.76,0-8.641,0c0-1.92,0-3.84,0-5.76
	c-5.76,0-11.52,0-17.279,0c0-1.92,0-3.84,0-5.76c-1.92,0-3.84,0-5.76,0c0-1.921,0-3.841,0-5.761c-1.98,0-3.961,0-5.95,0
	c0-3.84,0-7.681,0-11.521c-3.83,0-7.67,0-11.511,0c0-1.92,0-3.84,0-5.76c-1.93,0-3.84,0-5.76,0c0-1.979,0-3.959,0-5.939
	c-1.92,0-3.84,0-5.76,0c0-3.84,0-7.68,0-11.52C13.439,92.341,15.359,92.341,17.279,92.341z M57.779,92.341c0,3.84,0,7.68,0,11.52
	c1.92,0,3.83,0,5.76,0c0,0.48,0,0.96,0,1.439c0,0.48,0,0.961,0,1.44s0,0.96,0,1.44c0,0.539,0,1.08,0,1.619c1.921,0,3.841,0,5.761,0
	c0,1.92,0,3.84,0,5.76s0,3.84,0,5.761c-0.19,0-0.36,0-0.54,0c-0.189,0-0.359,0-0.54,0s-0.36,0-0.54,0c-0.42,0-0.84,0-1.26,0
	c-0.18,0-0.37,0-0.54,0c-0.181,0-0.36,0-0.54,0s-0.359,0-0.54,0c-0.25,0-0.479,0-0.729,0c-0.17,0-0.351,0-0.531,0
	c0,1.92,0,3.84,0,5.76c3.841,0,7.681,0,11.511,0c0-3.84,0-7.681,0-11.521c1.931,0,3.851,0,5.771,0c0,1.92,0,3.84,0,5.761
	c1.919,0,3.839,0,5.749,0c0,1.92,0,3.84,0,5.76c3.851,0,7.69,0,11.521,0c0-1.92,0-3.84,0-5.76c0.189,0,0.37,0,0.54,0
	c0.85,0,1.689,0,2.529,0c0.891,0,1.801,0,2.7,0c1.8,0,3.601,0,5.4,0c0.18,0,0.35,0,0.54,0c0-1.921,0-3.841,0-5.761
	c0.18,0,0.359,0,0.54,0c3.66,0,7.319,0,10.979,0c0-1.92,0-3.84,0-5.76c1.92,0,3.84,0,5.75,0c0-2.88,0-5.76,0-8.64
	c0-2.94,0-5.88,0-8.819c1.931,0,3.851,0,5.771,0c0-7.681,0-15.361,0-23.041c0-7.68,0-15.36,0-23.04c1.92,0,3.84,0,5.75,0
	c0-1.92,0-3.84,0-5.76c-1.91,0-3.83,0-5.75,0c0-0.96,0-1.92,0-2.88c0-0.48,0-0.96,0-1.44c0-0.54,0-1.08,0-1.62
	c-7.681,0-15.36,0-23.04,0c0,0.96,0,1.92,0,2.88c0,0.48,0,0.96,0,1.44c0,0.54,0,1.08,0,1.62c-0.25,0-0.48,0-0.73,0
	c-0.17,0-0.35,0-0.53,0c-0.359,0-0.72,0-1.079,0c-0.721,0-1.44,0-2.16,0c-1.44,0-2.88,0-4.32,0c-2.89,0-5.76,0-8.64,0
	c0-0.48,0-0.96,0-1.44s0-0.96,0-1.44s0-0.96,0-1.44s0-0.96,0-1.44s0-0.96,0-1.44s0-0.96,0-1.44c0-0.48,0-0.96,0-1.44
	c0-0.54,0-1.08,0-1.62c-3.84,0-7.68,0-11.52,0c0,1.92,0,3.84,0,5.76c-0.19,0-0.36,0-0.541,0c-1.799,0-3.6,0-5.399,0
	c-1.86,0-3.72,0-5.58,0c0,0.9,0,1.8,0,2.7c0,0.48,0,0.96,0,1.44s0,0.96,0,1.44c0,0.18,0,0.36,0,0.54c0,0.24,0,0.48,0,0.72
	c0,0.48,0,0.96,0,1.44s0,0.96,0,1.44s0,0.96,0,1.44c0,0.18,0,0.36,0,0.54c-1.92,0-3.84,0-5.761,0c0,1.92,0,3.84,0,5.76
	c-1.93,0-3.84,0-5.76,0c0,3.84,0,7.68,0,11.52c-1.92,0-3.84,0-5.76,0c0,0.54,0,1.08,0,1.62c0,0.12,0,0.24,0,0.36
	c0,0.18,0,0.36,0,0.54c0,0.12,0,0.24,0,0.36c0,0.18,0,0.36,0,0.54c0,0.6,0,1.2,0,1.8c0,0.12,0,0.24,0,0.36c0,0.18,0,0.36,0,0.54
	c0,0.12,0,0.24,0,0.36c0,0.18,0,0.36,0,0.54c0,0.54,0,1.08,0,1.62c0,0.12,0,0.24,0,0.36c0,0.18,0,0.36,0,0.54c0,0.12,0,0.24,0,0.36
	c0,0.18,0,0.36,0,0.54c0,0.12,0,0.24,0,0.36c0,0.18,0,0.36,0,0.54c0,0.12,0,0.24,0,0.36c0,0.18,0,0.36,0,0.54c0,0.12,0,0.24,0,0.36
	c0,0.18,0,0.36,0,0.54c0,0.12,0,0.24,0,0.36c0,0.18,0,0.36,0,0.54c0,0.54,0,1.08,0,1.62c0,0.12,0,0.24,0,0.359
	c0,0.181,0,0.36,0,0.541c0,0.119,0,0.24,0,0.359c0,0.18,0,0.36,0,0.54c0,0.12,0,0.24,0,0.36c0,0.18,0,0.359,0,0.539
	c0,0.121,0,0.24,0,0.361c0,0.18,0,0.359,0,0.539c0,0.12,0,0.24,0,0.36c0,0.181,0,0.36,0,0.54c0,0.12,0,0.24,0,0.359
	c0,0.181,0,0.36,0,0.541c0,0.119,0,0.24,0,0.359c0,0.18,0,0.36,0,0.54c0,0.12,0,0.24,0,0.36c0,0.18,0,0.359,0,0.539
	c0,0.121,0,0.24,0,0.361c0,0.18,0,0.359,0,0.539c0,0.12,0,0.24,0,0.36c0,0.181,0,0.36,0,0.54c0,0.12,0,0.24,0,0.359
	c0,0.181,0,0.36,0,0.541c0,0.119,0,0.24,0,0.359c0,0.18,0,0.36,0,0.54c0,0.12,0,0.24,0,0.36c0,0.18,0,0.359,0,0.539
	c0,0.121,0,0.24,0,0.361c0,0.18,0,0.359,0,0.539s0,0.36,0,0.541C53.939,92.341,55.859,92.341,57.779,92.341z"/>
<path fill="#D42C41" d="M17.279,75.06c0,1.92,0,3.84,0,5.76c2.881,0,5.76,0,8.641,0c2.88,0,5.76,0,8.63,0c0-3.84,0-7.68,0-11.52
	c0.54,0,1.08,0,1.63,0c0.48,0,0.95,0,1.43,0c0.961,0,1.93,0,2.891,0c0-3.84,0-7.68,0-11.52c1.92,0,3.84,0,5.76,0
	c0-0.54,0-1.08,0-1.62c0-0.48,0-0.96,0-1.44s0-0.96,0-1.44s0-0.96,0-1.44s0-0.96,0-1.44s0-0.96,0-1.44s0-0.96,0-1.44s0-0.96,0-1.44
	s0-0.96,0-1.44s0-0.96,0-1.44s0-0.96,0-1.44s0-0.96,0-1.44s0-0.96,0-1.44c0-0.48,0-0.96,0-1.44s0-0.96,0-1.44s0-0.96,0-1.44
	c1.92,0,3.83,0,5.76,0c0-3.84,0-7.68,0-11.52c0.18,0,0.36,0,0.53,0c1.39,0,2.771,0,4.149,0c0.351,0,0.721,0,1.08,0
	c0.181,0,0.351,0,0.541,0c0.119,0,0.229,0,0.359,0c0.359,0,0.721,0,1.08,0c0.18,0,0.35,0,0.54,0c0.12,0,0.239,0,0.36,0
	c0.72,0,1.43,0,2.16,0c0.359,0,0.719,0,1.08,0c0.17,0,0.359,0,0.539,0c0.11,0,0.24,0,0.36,0c0.36,0,0.72,0,1.08,0
	c0.17,0,0.36,0,0.54,0c0.119,0,0.24,0,0.359,0c0.351,0,0.721,0,1.08,0c0.18,0,0.36,0,0.541,0c0.119,0,0.229,0,0.359,0
	c0.18,0,0.35,0,0.54,0c0-1.92,0-3.84,0-5.76c0.181,0,0.36,0,0.54,0c0.71,0,1.439,0,2.16,0c0.18,0,0.359,0,0.539,0
	c0.181,0,0.361,0,0.531,0c0.189,0,0.369,0,0.539,0c0.131,0,0.25,0,0.371,0c0.18,0,0.359,0,0.539,0s0.36,0,0.53,0
	c0.19,0,0.37,0,0.54,0c0.13,0,0.25,0,0.37,0c0.17,0,0.36,0,0.54,0s0.359,0,0.539,0c0.181,0,0.361,0,0.531,0c0.129,0,0.25,0,0.369,0
	c0.721,0,1.44,0,2.15,0c0.189,0,0.37,0,0.54,0c0.19,0,0.37,0,0.55,0s0.359,0,0.54,0c0.12,0,0.24,0,0.35,0c0.19,0,0.37,0,0.54,0
	c0.19,0,0.37,0,0.55,0c0.18,0,0.36,0,0.54,0c0.12,0,0.24,0,0.35,0c0.19,0,0.37,0,0.54,0c0.19,0,0.37,0,0.54,0c0.19,0,0.37,0,0.55,0
	c0.12,0,0.24,0,0.359,0c0.181,0,0.36,0,0.53,0c0-1.92,0-3.84,0-5.76c3.851,0,7.69,0,11.521,0c0,1.92,0,3.84,0,5.76
	c0.54,0,1.09,0,1.63,0c0.479,0,0.96,0,1.439,0c0.95,0,1.91,0,2.88,0c1.921,0,3.841,0,5.761,0c0,1.92,0,3.84,0,5.76
	c7.68,0,15.359,0,23.04,0c0,1.92,0,3.84,0,5.76c1.92,0,3.84,0,5.75,0c0,1.92,0,3.84,0,5.76c1.93,0,3.85,0,5.77,0
	c0,7.74,0,15.48,0,23.22c0,7.68,0,15.36,0,23.04c1.92,0,3.84,0,5.75,0c0,0.18,0,0.36,0,0.54c0,0.84,0,1.68,0,2.52s0,1.68,0,2.52
	c0,1.681,0,3.361,0,5.041c0,3.3,0,6.6,0,9.9c0,3.359,0,6.719,0,10.079c0,1.681,0,3.36,0,5.04c0,1.62,0,3.24,0,4.86
	c-3.83,0-7.67,0-11.52,0c0,1.92,0,3.84,0,5.76c-1.91,0-3.83,0-5.75,0c0,1.92,0,3.84,0,5.761c-0.181,0-0.36,0-0.54,0
	c-1.38,0-2.761,0-4.141,0c-0.359,0-0.72,0-1.09,0c-0.17,0-0.35,0-0.53,0c-0.119,0-0.239,0-0.359,0c-0.36,0-0.72,0-1.09,0
	c-0.17,0-0.351,0-0.54,0c-0.11,0-0.23,0-0.351,0c-1.38,0-2.76,0-4.149,0c-0.351,0-0.71,0-1.07,0c-0.18,0-0.37,0-0.54,0
	c-0.12,0-0.24,0-0.37,0c-0.35,0-0.71,0-1.069,0c-0.181,0-0.37,0-0.54,0c-0.12,0-0.24,0-0.37,0c-0.17,0-0.351,0-0.54,0
	c0,1.92,0,3.84,0,5.76c-2.94,0-5.87,0-8.811,0c-2.88,0-5.76,0-8.649,0c0,1.92,0,3.84,0,5.76c-2.87,0-5.75,0-8.63,0
	c-2.891,0-5.76,0-8.64,0c-2.881,0-5.771,0-8.641,0c-2.88,0-5.76,0-8.641,0c0,1.92,0,3.84,0,5.76c1.921,0,3.841,0,5.761,0
	c0,1.92,0,3.84,0,5.76c1.14,0,2.271,0,3.42,0c0.601,0,1.2,0,1.8,0c0.11,0,0.24,0,0.36,0c0.17,0,0.36,0,0.54,0
	c0.119,0,0.24,0,0.359,0c0.181,0,0.351,0,0.541,0c1.14,0,2.27,0,3.42,0c0.6,0,1.199,0,1.799,0c0.121,0,0.24,0,0.361,0
	c0.169,0,0.359,0,0.54,0c0.11,0,0.24,0,0.36,0c0.18,0,0.36,0,0.54,0c4.729,0,9.479,0,14.21,0c0.189,0,0.37,0,0.54,0
	c0-1.92,0-3.84,0-5.76c1.93,0,3.85,0,5.77,0c0.96,0,1.92,0,2.88,0c0.48,0,0.96,0,1.44,0c0.54,0,1.08,0,1.62,0c0-1.92,0-3.84,0-5.76
	c3.83,0,7.68,0,11.52,0c0-1.92,0-3.84,0-5.76c7.681,0,15.36,0,23.04,0c0-1.92,0-3.84,0-5.76c1.92,0,3.84,0,5.75,0
	c0-1.921,0-3.841,0-5.761c1.93,0,3.851,0,5.771,0c0-3.84,0-7.681,0-11.521c3.84,0,7.67,0,11.52,0c0-3.899,0-7.799,0-11.699
	c-1.92,0-3.85,0-5.77,0c0-0.18,0-0.36,0-0.54c0-0.3,0-0.601,0-0.9c0-0.36,0-0.72,0-1.079c0-0.301,0-0.601,0-0.9
	c0-0.36,0-0.721,0-1.08c0-1.381,0-2.76,0-4.141c0-0.3,0-0.6,0-0.899c0-0.36,0-0.72,0-1.08c0-0.3,0-0.601,0-0.899
	c0-0.361,0-0.721,0-1.08c0-1.381,0-2.761,0-4.141c0-0.18,0-0.359,0-0.54c-1.91,0-3.83,0-5.75,0c0-3.84,0-7.68,0-11.52
	c1.92,0,3.84,0,5.75,0c0-0.06,0-0.12,0-0.18c0-0.66,0-1.32,0-1.98c0-0.72,0-1.44,0-2.16c0-1.44,0-2.88,0-4.32c0-2.88,0-5.76,0-8.64
	c-1.91,0-3.83,0-5.75,0c0-3.84,0-7.68,0-11.52c-1.92,0-3.841,0-5.771,0c0-1.44,0-2.88,0-4.32s0-2.88,0-4.32s0-2.88,0-4.32
	c0-1.5,0-3,0-4.5c-1.91,0-3.83,0-5.75,0c0-1.92,0-3.84,0-5.76c-1.92,0-3.84,0-5.77,0c0-1.92,0-3.84,0-5.76c-1.91,0-3.83,0-5.75,0
	c0-1.92,0-3.84,0-5.76c-0.12,0-0.25,0-0.36,0c-0.54,0-1.08,0-1.62,0c-0.12,0-0.25,0-0.359,0c-0.181,0-0.37,0-0.54,0
	c-0.12,0-0.24,0-0.37,0c-0.17,0-0.351,0-0.54,0c-0.11,0-0.23,0-0.351,0c-0.18,0-0.359,0-0.54,0c-0.12,0-0.239,0-0.359,0
	c-0.19,0-0.36,0-0.54,0c-0.13,0-0.24,0-0.36,0c-0.18,0-0.36,0-0.54,0c-0.12,0-0.25,0-0.359,0c-0.181,0-0.37,0-0.54,0
	c-0.12,0-0.24,0-0.37,0c-0.17,0-0.351,0-0.54,0c-0.11,0-0.23,0-0.351,0c-0.18,0-0.359,0-0.54,0c-0.12,0-0.239,0-0.359,0
	c-0.19,0-0.36,0-0.54,0c-0.13,0-0.24,0-0.36,0c-0.18,0-0.36,0-0.54,0c-0.12,0-0.25,0-0.359,0c-0.181,0-0.37,0-0.54,0
	c-0.12,0-0.24,0-0.37,0c-0.17,0-0.351,0-0.54,0c-0.11,0-0.23,0-0.351,0c-0.18,0-0.359,0-0.54,0c-0.12,0-0.239,0-0.359,0
	c-0.19,0-0.36,0-0.54,0c-0.13,0-0.24,0-0.36,0c-0.18,0-0.36,0-0.54,0c-0.12,0-0.25,0-0.359,0c-0.181,0-0.37,0-0.54,0
	c-0.12,0-0.24,0-0.37,0c-0.17,0-0.351,0-0.54,0c-0.11,0-0.23,0-0.351,0c-0.18,0-0.359,0-0.54,0c-0.12,0-0.239,0-0.359,0
	c-0.19,0-0.36,0-0.54,0c-0.13,0-0.24,0-0.36,0c-0.18,0-0.36,0-0.54,0c-0.12,0-0.25,0-0.359,0c-0.181,0-0.37,0-0.54,0
	c-0.12,0-0.24,0-0.37,0c-0.17,0-0.351,0-0.54,0c-0.11,0-0.23,0-0.351,0c-0.18,0-0.359,0-0.54,0c-0.12,0-0.239,0-0.359,0
	c-0.19,0-0.36,0-0.54,0c-0.13,0-0.24,0-0.36,0c-0.18,0-0.36,0-0.54,0c-0.12,0-0.25,0-0.359,0c-0.181,0-0.37,0-0.54,0
	c-0.12,0-0.24,0-0.37,0c-0.17,0-0.351,0-0.54,0c-0.11,0-0.23,0-0.351,0c-0.18,0-0.359,0-0.54,0c-0.12,0-0.239,0-0.359,0
	c-0.19,0-0.36,0-0.54,0c-0.13,0-0.24,0-0.36,0c-0.18,0-0.36,0-0.54,0c0-0.48,0-0.96,0-1.44s0-0.96,0-1.44s0-0.96,0-1.44
	s0-0.96,0-1.44c-1.92,0-3.84,0-5.77,0c0-0.18,0-0.36,0-0.54c0-0.18,0-0.36,0-0.54c0-0.24,0-0.48,0-0.72c0-0.42,0-0.84,0-1.26
	c0-0.18,0-0.36,0-0.54c0-0.24,0-0.48,0-0.72c0-0.18,0-0.36,0-0.54c0-0.24,0-0.48,0-0.72c0-0.06,0-0.12,0-0.18
	c-0.061,0-0.11,0-0.17,0c-2.881,0-5.761,0-8.641,0c-1.439,0-2.88,0-4.319,0c-1.39,0-2.76,0-4.14,0c0,0.24,0,0.48,0,0.72
	c0,0.24,0,0.48,0,0.72c0,0.48,0,0.96,0,1.44c0,0.48,0,0.96,0,1.44s0,0.96,0,1.44c-3.84,0-7.69,0-11.521,0c0,0.24,0,0.48,0,0.72
	c0,0.24,0,0.48,0,0.72c0,0.48,0,0.96,0,1.44c0,0.96,0,1.92,0,2.88c-0.19,0-0.36,0-0.54,0c-0.13,0-0.24,0-0.359,0
	c-0.181,0-0.361,0-0.541,0c-0.359,0-0.729,0-1.08,0c-0.119,0-0.24,0-0.359,0c-0.18,0-0.37,0-0.54,0c-0.36,0-0.72,0-1.08,0
	c-0.12,0-0.25,0-0.36,0c-0.18,0-0.369,0-0.539,0c-0.361,0-0.721,0-1.08,0c-0.73,0-1.44,0-2.16,0c-0.121,0-0.24,0-0.36,0
	c-0.19,0-0.36,0-0.54,0c-0.359,0-0.721,0-1.08,0c-0.13,0-0.24,0-0.359,0c-0.19,0-0.36,0-0.541,0c-0.359,0-0.729,0-1.08,0
	c-1.379,0-2.76,0-4.149,0c-0.17,0-0.351,0-0.53,0c0,1.92,0,3.84,0,5.76c-1.93,0-3.84,0-5.76,0c0,1.92,0,3.84,0,5.76
	c-1.92,0-3.84,0-5.76,0c0,1.92,0,3.84,0,5.76c-1.98,0-3.961,0-5.95,0c0,1.44,0,2.88,0,4.32s0,2.88,0,4.32c0.01,2.88,0,5.76,0,8.64
	c0.01,2.88,0,5.76,0,8.64c0,1.44,0,2.88,0,4.32c0,1.5,0,3,0,4.5c-1.92,0-3.83,0-5.75,0c0,3.84,0,7.68,0,11.52
	C24.96,75.06,21.109,75.06,17.279,75.06z"/>
<path fill="#232034" d="M52.02,91.8c0,0.18,0,0.36,0,0.541c1.92,0,3.84,0,5.76,0c0-3.841,0-7.681,0-11.521c0-1.92,0-3.84,0-5.76
	s0-3.84,0-5.76c0-1.92,0-3.84,0-5.76c-1.92,0-3.84,0-5.76,0c0,0.54,0,1.08,0,1.62c0,0.12,0,0.24,0,0.36c0,0.18,0,0.36,0,0.54
	c0,0.12,0,0.24,0,0.36c0,0.18,0,0.36,0,0.54c0,0.6,0,1.2,0,1.8c0,0.12,0,0.24,0,0.36c0,0.18,0,0.36,0,0.54c0,0.12,0,0.24,0,0.36
	c0,0.18,0,0.36,0,0.54c0,0.54,0,1.08,0,1.62c0,0.12,0,0.24,0,0.36c0,0.18,0,0.36,0,0.54c0,0.12,0,0.24,0,0.36c0,0.18,0,0.36,0,0.54
	c0,0.12,0,0.24,0,0.36c0,0.18,0,0.36,0,0.54c0,0.12,0,0.24,0,0.36c0,0.18,0,0.36,0,0.54c0,0.12,0,0.24,0,0.36c0,0.18,0,0.36,0,0.54
	c0,0.12,0,0.24,0,0.36c0,0.18,0,0.36,0,0.54c0,0.54,0,1.08,0,1.62c0,0.12,0,0.24,0,0.359c0,0.181,0,0.36,0,0.541
	c0,0.119,0,0.24,0,0.359c0,0.18,0,0.36,0,0.54c0,0.12,0,0.24,0,0.36c0,0.18,0,0.359,0,0.539c0,0.121,0,0.24,0,0.361
	c0,0.18,0,0.359,0,0.539c0,0.12,0,0.24,0,0.36c0,0.181,0,0.36,0,0.54c0,0.12,0,0.24,0,0.359c0,0.181,0,0.36,0,0.541
	c0,0.119,0,0.24,0,0.359c0,0.18,0,0.36,0,0.54c0,0.12,0,0.24,0,0.36c0,0.18,0,0.359,0,0.539c0,0.121,0,0.24,0,0.361
	c0,0.18,0,0.359,0,0.539c0,0.12,0,0.24,0,0.36c0,0.181,0,0.36,0,0.54c0,0.12,0,0.24,0,0.359c0,0.181,0,0.36,0,0.541
	c0,0.119,0,0.24,0,0.359c0,0.18,0,0.36,0,0.54c0,0.12,0,0.24,0,0.36c0,0.18,0,0.359,0,0.539c0,0.121,0,0.24,0,0.361
	C52.02,91.44,52.02,91.62,52.02,91.8z"/>
<path fill="#232034" d="M57.779,92.341c0,3.84,0,7.68,0,11.52c1.92,0,3.83,0,5.76,0c0-1.92,0-3.84,0-5.76s0-3.84,0-5.76
	C61.609,92.341,59.699,92.341,57.779,92.341z"/>
<path fill="#AAAAAB" d="M57.779,80.82c0,3.84,0,7.68,0,11.521c1.92,0,3.83,0,5.76,0c1.921,0,3.841,0,5.761,0c0,1.92,0,3.84,0,5.76
	c1.92,0,3.83,0,5.75,0c0-1.92,0-3.84,0-5.76c1.931,0,3.851,0,5.771,0c0,1.92,0,3.84,0,5.76c1.919,0,3.839,0,5.749,0
	c0-1.92,0-3.84,0-5.76c1.931,0,3.851,0,5.771,0c0,1.92,0,3.84,0,5.76c-1.92,0-3.84,0-5.771,0c0,1.92,0,3.84,0,5.76
	c-1.91,0-3.83,0-5.749,0c0-1.92,0-3.84,0-5.76c-1.92,0-3.84,0-5.771,0c0,1.92,0,3.84,0,5.76c-1.92,0-3.83,0-5.75,0
	c0,0.539,0,1.08,0,1.619c0,0.48,0,0.961,0,1.44s0,0.96,0,1.44s0,0.96,0,1.439c7.681,0,15.36,0,23.04,0c0-0.539,0-1.08,0-1.619
	c0-0.48,0-0.961,0-1.44s0-0.96,0-1.44c0-0.479,0-0.959,0-1.439c1.92,0,3.84,0,5.75,0c1.93,0,3.85,0,5.77,0c0-3.84,0-7.68,0-11.52
	c-1.92,0-3.84,0-5.77,0c0-3.841,0-7.681,0-11.521c-1.91,0-3.83,0-5.75,0s-3.84,0-5.771,0c-1.91,0-3.83,0-5.749,0
	c0-1.92,0-3.84,0-5.76c-1.92,0-3.84,0-5.771,0c0-0.18,0-0.36,0-0.54c0-0.42,0-0.84,0-1.26s0-0.84,0-1.26s0-0.84,0-1.26
	c0-0.24,0-0.48,0-0.72c0-0.12,0-0.24,0-0.36c0-0.06,0-0.12,0-0.18c0.01-0.06,0-0.12,0-0.18c1.931,0,3.851,0,5.771,0
	c2.879,0,5.749,0,8.64,0c2.88,0,5.76,0,8.63,0c0,1.92,0,3.84,0,5.76c1.93,0,3.85,0,5.77,0c0-1.92,0-3.84,0-5.76
	c0.54,0,1.08,0,1.62,0c0.48,0,0.96,0,1.44,0c0.96,0,1.92,0,2.88,0c1.92,0,3.83,0,5.75,0c0-1.92,0-3.84,0-5.76c-1.92,0-3.83,0-5.75,0
	c0-3.84,0-7.68,0-11.52c-0.96,0-1.92,0-2.88,0c-0.48,0-0.96,0-1.44,0c-0.54,0-1.08,0-1.62,0c0-1.92,0-3.84,0-5.76
	c-7.68,0-15.359,0-23.039,0c0,1.92,0,3.84,0,5.76c-1.92,0-3.84,0-5.771,0c-1.92,0-3.83,0-5.75,0c0,1.92,0,3.84,0,5.76
	c-1.92,0-3.84,0-5.761,0c0,1.92,0,3.84,0,5.76s0,3.84,0,5.76c1.921,0,3.841,0,5.761,0c0,3.84,0,7.68,0,11.52c1.92,0,3.83,0,5.75,0
	c0,0.18,0,0.36,0,0.54c0,0.42,0,0.84,0,1.26s0,0.84,0,1.26s0,0.84,0,1.26c0,0.24,0,0.48,0,0.721c0,0.119,0,0.24,0,0.359
	c0,0.061,0,0.121,0,0.18c0.01,0.061,0,0.121,0,0.181c-0.17,0-0.351,0-0.53,0c-0.84,0-1.68,0-2.52,0c-0.43,0-0.84,0-1.26,0
	c-0.24,0-0.48,0-0.721,0s-0.48,0-0.72,0c0-1.92,0-3.84,0-5.76c-1.92,0-3.84,0-5.761,0C61.609,80.82,59.699,80.82,57.779,80.82z"/>
<path fill="#F15A46" d="M57.779,75.06c0,1.92,0,3.84,0,5.76c1.92,0,3.83,0,5.76,0c0-1.92,0-3.84,0-5.76
	C61.609,75.06,59.699,75.06,57.779,75.06z"/>
<path fill="#010101" d="M57.779,69.3c0,1.92,0,3.84,0,5.76c1.92,0,3.83,0,5.76,0c0,1.92,0,3.84,0,5.76c1.921,0,3.841,0,5.761,0
	c0-3.84,0-7.68,0-11.52c-1.92,0-3.84,0-5.761,0C61.609,69.3,59.699,69.3,57.779,69.3z"/>
<path fill="#7B7B7B" d="M57.779,63.54c0,1.92,0,3.84,0,5.76c1.92,0,3.83,0,5.76,0c0-1.92,0-3.84,0-5.76
	C61.609,63.54,59.699,63.54,57.779,63.54z"/>
<path fill="#232034" d="M57.779,52.02c0,3.84,0,7.68,0,11.52c1.92,0,3.83,0,5.76,0c0-1.92,0-3.84,0-5.76s0-3.84,0-5.76
	C61.609,52.02,59.699,52.02,57.779,52.02z"/>
<path fill="#F79C7F" d="M63.539,121.32c0,1.92,0,3.84,0,5.76c3.841,0,7.681,0,11.511,0c0-3.84,0-7.681,0-11.521
	c-1.92,0-3.83,0-5.75,0c0,1.92,0,3.84,0,5.761c-0.19,0-0.36,0-0.54,0c-0.189,0-0.359,0-0.54,0s-0.36,0-0.54,0c-0.42,0-0.84,0-1.26,0
	c-0.18,0-0.37,0-0.54,0c-0.181,0-0.36,0-0.54,0s-0.359,0-0.54,0c-0.25,0-0.479,0-0.729,0C63.9,121.32,63.72,121.32,63.539,121.32z"
	/>
<path fill="#232034" d="M63.539,108.181c0,0.539,0,1.08,0,1.619c1.921,0,3.841,0,5.761,0c0-0.479,0-0.959,0-1.439s0-0.961,0-1.44
	s0-0.96,0-1.44c0-0.539,0-1.08,0-1.619c-1.92,0-3.84,0-5.761,0c0,0.48,0,0.96,0,1.439c0,0.48,0,0.961,0,1.44
	S63.539,107.7,63.539,108.181z"/>
<path fill="#AAAAAB" d="M63.539,98.101c0,1.92,0,3.84,0,5.76c1.921,0,3.841,0,5.761,0c0-1.92,0-3.84,0-5.76
	C67.38,98.101,65.46,98.101,63.539,98.101z"/>
<path fill="#010101" d="M63.539,92.341c0,1.92,0,3.84,0,5.76c1.921,0,3.841,0,5.761,0c0-1.92,0-3.84,0-5.76
	C67.38,92.341,65.46,92.341,63.539,92.341z"/>
<path fill="#7B7B7B" d="M63.539,52.02c0,1.92,0,3.84,0,5.76c1.921,0,3.841,0,5.761,0c0-1.92,0-3.84,0-5.76
	C67.38,52.02,65.46,52.02,63.539,52.02z"/>
<path fill="#232034" d="M63.539,46.26c0,1.92,0,3.84,0,5.76c1.921,0,3.841,0,5.761,0s3.83,0,5.75,0c0-1.92,0-3.84,0-5.76
	c-1.92,0-3.83,0-5.75,0S65.46,46.26,63.539,46.26z"/>
<path fill="#232034" d="M69.3,109.8c0,1.92,0,3.84,0,5.76c1.92,0,3.83,0,5.75,0c1.931,0,3.851,0,5.771,0c0.119,0,0.229,0,0.359,0
	c0.18,0,0.359,0,0.54,0c0.35,0,0.72,0,1.08,0c0.72,0,1.44,0,2.16,0c0.11,0,0.24,0,0.36,0c0.18,0,0.36,0,0.54,0c0.36,0,0.71,0,1.08,0
	c0.72,0,1.44,0,2.15,0c1.39,0,2.77,0,4.149,0c1.44,0,2.87,0,4.311,0c0.189,0,0.37,0,0.54,0c0-1.92,0-3.84,0-5.76
	c-1.91,0-3.83,0-5.75,0C84.66,109.8,76.98,109.8,69.3,109.8z"/>
<path fill="#010101" d="M69.3,98.101c0,1.92,0,3.84,0,5.76c1.92,0,3.83,0,5.75,0c0-1.92,0-3.84,0-5.76
	C73.13,98.101,71.22,98.101,69.3,98.101z"/>
<path fill="#010101" d="M69.3,80.82c0,1.92,0,3.84,0,5.76c0.239,0,0.479,0,0.72,0s0.48,0,0.721,0c0.42,0,0.83,0,1.26,0
	c0.84,0,1.68,0,2.52,0c0.18,0,0.36,0,0.53,0c0-0.06,0.01-0.12,0-0.181c0-0.059,0-0.119,0-0.18c0-0.119,0-0.24,0-0.359
	c0-0.24,0-0.48,0-0.721c0-0.42,0-0.84,0-1.26s0-0.84,0-1.26s0-0.84,0-1.26c0-0.18,0-0.36,0-0.54C73.13,80.82,71.22,80.82,69.3,80.82
	z"/>
<path fill="#F79C7F" d="M69.3,45.72c0,0.18,0,0.36,0,0.54c1.92,0,3.83,0,5.75,0c0-1.92,0-3.84,0-5.76c0.19,0,0.37,0,0.54,0
	c1.449,0,2.891,0,4.33,0c0.71,0,1.439,0,2.15,0c0.37,0,0.73,0,1.09,0c0.18,0,0.36,0,0.54,0c0.12,0,0.24,0,0.35,0
	c0.73,0,1.45,0,2.17,0c0.35,0,0.72,0,1.08,0c0.18,0,0.359,0,0.54,0c0.12,0,0.229,0,0.359,0c0.721,0,1.431,0,2.16,0
	c0.36,0,0.71,0,1.08,0c0.17,0,0.36,0,0.54,0c0.11,0,0.24,0,0.36,0c0-0.48,0-0.96,0-1.44s0-0.96,0-1.44s0-0.96,0-1.44s0-0.96,0-1.44
	s0-0.96,0-1.44s0-0.96,0-1.44c0-0.48,0-0.96,0-1.44c0-0.54,0-1.08,0-1.62c-3.84,0-7.68,0-11.52,0c0,1.92,0,3.84,0,5.76
	c-0.19,0-0.36,0-0.541,0c-1.799,0-3.6,0-5.399,0c-1.86,0-3.72,0-5.58,0c0,0.9,0,1.8,0,2.7c0,0.48,0,0.96,0,1.44s0,0.96,0,1.44
	c0,0.18,0,0.36,0,0.54c0,0.24,0,0.48,0,0.72c0,0.48,0,0.96,0,1.44s0,0.96,0,1.44S69.3,45.24,69.3,45.72z"/>
<path fill="#010101" d="M75.05,92.341c0,1.92,0,3.84,0,5.76c1.931,0,3.851,0,5.771,0c0-1.92,0-3.84,0-5.76
	C78.9,92.341,76.98,92.341,75.05,92.341z"/>
<path fill="#7B7B7B" d="M75.05,74.52c0,0.18,0,0.36,0,0.54c1.931,0,3.851,0,5.771,0c0-1.92,0-3.84,0-5.76c-1.92,0-3.84,0-5.771,0
	c0,0.06,0.01,0.12,0,0.18c0,0.06,0,0.12,0,0.18c0,0.12,0,0.24,0,0.36c0,0.24,0,0.48,0,0.72c0,0.42,0,0.84,0,1.26s0,0.84,0,1.26
	S75.05,74.1,75.05,74.52z"/>
<path fill="#7B7B7B" d="M75.05,46.26c0,1.92,0,3.84,0,5.76c1.931,0,3.851,0,5.771,0c0-1.92,0-3.84,0-5.76
	C78.9,46.26,76.98,46.26,75.05,46.26z"/>
<path fill="#232034" d="M75.05,40.5c0,1.92,0,3.84,0,5.76c1.931,0,3.851,0,5.771,0c7.68,0,15.359,0,23.039,0c0.54,0,1.08,0,1.62,0
	c0.48,0,0.96,0,1.44,0c0.96,0,1.92,0,2.88,0c0-1.92,0-3.84,0-5.76c-0.25,0-0.48,0-0.73,0c-0.17,0-0.35,0-0.53,0
	c-0.359,0-0.72,0-1.079,0c-0.721,0-1.44,0-2.16,0c-1.44,0-2.88,0-4.32,0c-2.89,0-5.76,0-8.64,0c-0.12,0-0.25,0-0.36,0
	c-0.18,0-0.37,0-0.54,0c-0.37,0-0.72,0-1.08,0c-0.729,0-1.439,0-2.16,0c-0.13,0-0.239,0-0.359,0c-0.181,0-0.36,0-0.54,0
	c-0.36,0-0.73,0-1.08,0c-0.72,0-1.44,0-2.17,0c-0.11,0-0.23,0-0.35,0c-0.18,0-0.36,0-0.54,0c-0.36,0-0.72,0-1.09,0
	c-0.71,0-1.44,0-2.15,0c-1.439,0-2.881,0-4.33,0C75.42,40.5,75.24,40.5,75.05,40.5z"/>
<path fill="#F79C7F" d="M80.82,115.56c0,1.92,0,3.84,0,5.761c1.919,0,3.839,0,5.749,0c0,1.92,0,3.84,0,5.76c3.851,0,7.69,0,11.521,0
	c0-1.92,0-3.84,0-5.76c0.189,0,0.37,0,0.54,0c0.85,0,1.689,0,2.529,0c0.891,0,1.801,0,2.7,0c1.8,0,3.601,0,5.4,0
	c0.18,0,0.35,0,0.54,0c0-1.921,0-3.841,0-5.761c0.18,0,0.359,0,0.54,0c3.66,0,7.319,0,10.979,0c0-1.92,0-3.84,0-5.76
	c-2.88,0-5.77,0-8.64,0c-2.94,0-5.88,0-8.82,0c-1.92,0-3.84,0-5.77,0c0,1.92,0,3.84,0,5.76c-0.17,0-0.351,0-0.54,0
	c-1.44,0-2.87,0-4.311,0c-1.38,0-2.76,0-4.149,0c-0.71,0-1.431,0-2.15,0c-0.37,0-0.72,0-1.08,0c-0.18,0-0.359,0-0.54,0
	c-0.12,0-0.25,0-0.36,0c-0.72,0-1.44,0-2.16,0c-0.36,0-0.73,0-1.08,0c-0.181,0-0.36,0-0.54,0
	C81.05,115.56,80.939,115.56,80.82,115.56z"/>
<path fill="#010101" d="M80.82,98.101c0,1.92,0,3.84,0,5.76c1.919,0,3.839,0,5.749,0c0-1.92,0-3.84,0-5.76
	C84.66,98.101,82.74,98.101,80.82,98.101z"/>
<path fill="#F15A46" d="M80.82,75.06c0,1.92,0,3.84,0,5.76c1.919,0,3.839,0,5.749,0c0-1.92,0-3.84,0-5.76
	C84.66,75.06,82.74,75.06,80.82,75.06z"/>
<path fill="#010101" d="M80.82,69.3c0,1.92,0,3.84,0,5.76c1.919,0,3.839,0,5.749,0c0,1.92,0,3.84,0,5.76c1.931,0,3.851,0,5.771,0
	c0-1.92,0-3.84,0-5.76c1.92,0,3.84,0,5.75,0c0-1.92,0-3.84,0-5.76c-2.87,0-5.75,0-8.63,0C86.569,69.3,83.7,69.3,80.82,69.3z"/>
<path fill="#010101" d="M86.569,92.341c0,1.92,0,3.84,0,5.76c1.931,0,3.851,0,5.771,0c0-1.92,0-3.84,0-5.76
	C90.42,92.341,88.5,92.341,86.569,92.341z"/>
<path fill="#7B7B7B" d="M92.34,108.181c0,0.539,0,1.08,0,1.619c1.92,0,3.84,0,5.75,0c0-0.479,0-0.959,0-1.439s0-0.961,0-1.44
	s0-0.96,0-1.44c0-0.539,0-1.08,0-1.619c-1.91,0-3.83,0-5.75,0c0,0.48,0,0.96,0,1.439c0,0.48,0,0.961,0,1.44
	S92.34,107.7,92.34,108.181z"/>
<path fill="#7B7B7B" d="M92.34,75.06c0,1.92,0,3.84,0,5.76c1.92,0,3.84,0,5.75,0c0,3.84,0,7.68,0,11.521c1.93,0,3.85,0,5.77,0
	c0-1.921,0-3.841,0-5.761c0.54,0,1.08,0,1.62,0c0.48,0,0.96,0,1.44,0c0.96,0,1.92,0,2.88,0c0-1.92,0-3.84,0-5.76
	c1.92,0,3.83,0,5.75,0c0-1.92,0-3.84,0-5.76c1.93,0,3.85,0,5.77,0c0-2.88,0-5.76,0-8.64c0-2.88,0-5.76,0-8.64c-1.92,0-3.84,0-5.77,0
	c0-1.92,0-3.84,0-5.76c-1.92,0-3.83,0-5.75,0c0,3.84,0,7.68,0,11.52c1.92,0,3.83,0,5.75,0c0,1.92,0,3.84,0,5.76
	c-1.92,0-3.83,0-5.75,0c-0.96,0-1.92,0-2.88,0c-0.48,0-0.96,0-1.44,0c-0.54,0-1.08,0-1.62,0c0,1.92,0,3.84,0,5.76
	c-1.92,0-3.84,0-5.77,0C96.18,75.06,94.26,75.06,92.34,75.06z"/>
<path fill="#232034" d="M98.09,108.36c0,0.48,0,0.96,0,1.439c1.93,0,3.85,0,5.77,0c0-0.479,0-0.959,0-1.439s0-0.961,0-1.44
	s0-0.96,0-1.44c0-0.539,0-1.08,0-1.619c-1.92,0-3.84,0-5.77,0c0,0.539,0,1.08,0,1.619c0,0.48,0,0.961,0,1.44
	S98.09,107.88,98.09,108.36z"/>
<path fill="#FFFFFF" d="M103.859,108.36c0,0.48,0,0.96,0,1.439c2.94,0,5.88,0,8.82,0c2.87,0,5.76,0,8.64,0c0-0.959,0-1.92,0-2.88
	c0-0.479,0-0.96,0-1.44c0-0.539,0-1.08,0-1.619c-1.92,0-3.84,0-5.77,0c0-3.84,0-7.68,0-11.52c-1.92,0-3.83,0-5.75,0
	c0,3.84,0,7.68,0,11.52c-0.96,0-1.92,0-2.88,0c-0.48,0-0.96,0-1.44,0c-0.54,0-1.08,0-1.62,0c0,0.539,0,1.08,0,1.619
	c0,0.48,0,0.961,0,1.44S103.859,107.88,103.859,108.36z"/>
<path fill="#232034" d="M103.859,92.341c0,3.84,0,7.68,0,11.52c0.54,0,1.08,0,1.62,0c0.48,0,0.96,0,1.44,0c0.96,0,1.92,0,2.88,0
	c0-3.84,0-7.68,0-11.52c1.92,0,3.83,0,5.75,0c0-1.921,0-3.841,0-5.761c1.93,0,3.85,0,5.77,0c0-1.92,0-3.84,0-5.76
	c1.92,0,3.84,0,5.75,0c0-7.68,0-15.36,0-23.04c-1.91,0-3.83,0-5.75,0c0,2.88,0,5.76,0,8.64c0,2.88,0,5.76,0,8.64
	c-1.92,0-3.84,0-5.77,0c0,1.92,0,3.84,0,5.76c-1.92,0-3.83,0-5.75,0c0,1.92,0,3.84,0,5.76c-0.96,0-1.92,0-2.88,0
	c-0.48,0-0.96,0-1.44,0c-0.54,0-1.08,0-1.62,0C103.859,88.5,103.859,90.42,103.859,92.341z"/>
<path fill="#7B7B7B" d="M103.859,46.26c0,1.92,0,3.84,0,5.76c0.54,0,1.08,0,1.62,0c0.48,0,0.96,0,1.44,0c0.96,0,1.92,0,2.88,0
	c0-1.92,0-3.84,0-5.76c-0.96,0-1.92,0-2.88,0c-0.48,0-0.96,0-1.44,0C104.939,46.26,104.399,46.26,103.859,46.26z"/>
<path fill="#232034" d="M109.8,46.26c0,1.92,0,3.84,0,5.76c1.92,0,3.83,0,5.75,0c0-1.92,0-3.84,0-5.76
	C113.63,46.26,111.72,46.26,109.8,46.26z"/>
<path fill="#F79C7F" d="M109.8,40.5c0,1.92,0,3.84,0,5.76c1.92,0,3.83,0,5.75,0c0,1.92,0,3.84,0,5.76c1.93,0,3.85,0,5.77,0
	c0,1.92,0,3.84,0,5.76c1.92,0,3.84,0,5.75,0c0,7.68,0,15.36,0,23.04c-1.91,0-3.83,0-5.75,0c0,1.92,0,3.84,0,5.76s0,3.84,0,5.761
	c-1.92,0-3.84,0-5.77,0c0,3.84,0,7.68,0,11.52c1.93,0,3.85,0,5.77,0c0,0.539,0,1.08,0,1.619c0,0.48,0,0.961,0,1.44
	c0,0.96,0,1.921,0,2.88c1.92,0,3.84,0,5.75,0c0-2.88,0-5.76,0-8.64c0-2.94,0-5.88,0-8.819c1.931,0,3.851,0,5.771,0
	c0-7.681,0-15.361,0-23.041c0-7.68,0-15.36,0-23.04c1.92,0,3.84,0,5.75,0c0-1.92,0-3.84,0-5.76c-1.91,0-3.83,0-5.75,0
	c0-0.96,0-1.92,0-2.88c0-0.48,0-0.96,0-1.44c0-0.54,0-1.08,0-1.62c-7.681,0-15.36,0-23.04,0c0,0.96,0,1.92,0,2.88
	c0,0.48,0,0.96,0,1.44C109.8,39.42,109.8,39.96,109.8,40.5z"/>
<path fill="#FFFFFF" d="M115.55,86.58c0,1.92,0,3.84,0,5.761c1.93,0,3.85,0,5.77,0c0-1.921,0-3.841,0-5.761
	C119.399,86.58,117.479,86.58,115.55,86.58z"/>
<path fill="#232034" d="M115.55,52.02c0,1.92,0,3.84,0,5.76c1.93,0,3.85,0,5.77,0c0-1.92,0-3.84,0-5.76
	C119.399,52.02,117.479,52.02,115.55,52.02z"/>
</svg>
