<?xml version="1.0" encoding="utf-8"?>
<!-- Generator: Adobe Illustrator 15.0.0, SVG Export Plug-In  -->
<!DOCTYPE svg PUBLIC "-//W3C//DTD SVG 1.1//EN" "http://www.w3.org/Graphics/SVG/1.1/DTD/svg11.dtd" [
	<!ENTITY ns_flows "http://ns.adobe.com/Flows/1.0/">
]>
<svg version="1.1"
	 xmlns="http://www.w3.org/2000/svg" xmlns:xlink="http://www.w3.org/1999/xlink" xmlns:a="http://ns.adobe.com/AdobeSVGViewerExtensions/3.0/"
	 x="0px" y="0px" width="110px" height="70px" viewBox="-16.288 -25.027 110 70" enable-background="new -16.288 -25.027 110 70"
	 xml:space="preserve">
<defs>
</defs>
<path fill-rule="evenodd" clip-rule="evenodd" fill="#211F30" d="M49.682,2.143c-0.144,0-0.285,0-0.427,0c-3.855,0-7.711,0-11.565,0
	s-7.708,0-11.563,0c0-0.286,0-0.572,0-0.857c0-0.429,0-0.855,0-1.285c0.57,0,1.143,0,1.714,0c0.428,0,0.856,0,1.283,0
	c0.43,0,0.858,0,1.285,0c0.572,0,1.142,0,1.714,0c1.998,0,3.998,0,5.996,0c3.855,0,7.708,0,11.563,0c0,0.286,0,0.572,0,0.856
	C49.682,1.285,49.682,1.714,49.682,2.143z"/>
<path fill-rule="evenodd" clip-rule="evenodd" fill="#211F30" d="M26.126,2.143c0,0.856,0,1.713,0,2.569c-1.285,0-2.57,0-3.854,0
	c-1.142,0-2.284,0-3.426,0c0-0.856,0-1.713,0-2.569c0.143,0,0.286,0,0.429,0c1.142,0,2.284,0,3.426,0
	C23.842,2.143,24.984,2.143,26.126,2.143z"/>
<path fill-rule="evenodd" clip-rule="evenodd" fill="#D6412C" d="M26.126,2.143c3.855,0,7.709,0,11.563,0s7.71,0,11.565,0
	c0.142,0,0.283,0,0.427,0c0,0.856,0,1.713,0,2.569c1.715,0,3.427,0,5.14,0c0.857,0,1.713,0,2.57,0c0.428,0,0.856,0,1.285,0
	c0.285,0,0.57,0,0.856,0c0,0.857,0,1.713,0,2.57c0.856,0,1.712,0,2.569,0c0.428,0,0.856,0,1.285,0c0.285,0,0.57,0,0.856,0
	c0,0.286,0,0.57,0,0.856c0,0.429,0,0.855,0,1.286c0.43,0,0.856,0,1.284,0c0.287,0,0.571,0,0.857,0c0,0.855,0,1.712,0,2.568
	c0.855,0,1.713,0,2.57,0c0,0.429,0,0.856,0,1.284c0,0.286,0,0.572,0,0.856c0.428,0,0.855,0,1.285,0c0.285,0,0.57,0,0.855,0
	c0,1.426,0,2.856,0,4.283c0,0.144,0,0.286,0,0.43c0.856,0,1.714,0,2.57,0c0,0.855,0,1.713,0,2.567c0,0.431,0,0.857,0,1.284
	c0,0.287,0,0.573,0,0.859c0,2.995,0,5.996,0,8.995c0,0.284,0,0.57,0,0.853c-0.856,0-1.714,0-2.57,0c0,1.286,0,2.57,0,3.856
	c0,0.286,0,0.572,0,0.857c-0.428,0-0.855,0-1.285,0c-0.285,0-0.57,0-0.855,0c0,0.429,0,0.856,0,1.285c0,0.285,0,0.571,0,0.857
	c-1.285,0-2.57,0-3.855,0c-0.285,0-0.57,0-0.856,0c0-0.43,0-0.857,0-1.286c0-0.284,0-0.57,0-0.856c-0.856,0-1.714,0-2.569,0
	c0-0.428,0-0.857,0-1.284c0-0.286,0-0.573,0-0.859c0-0.427,0-0.854,0-1.284c0-0.427,0-0.854,0-1.286c-0.43,0-0.857,0-1.285,0
	c-0.285,0-0.57,0-0.856,0c0-0.853,0-1.711,0-2.565c-0.856,0-1.714,0-2.569,0c0-0.572,0-1.144,0-1.716c0-0.141,0-0.284,0-0.427
	c-0.43,0-0.857,0-1.285,0c-0.287,0-0.57,0-0.857,0c0-0.857,0-1.713,0-2.57c-0.855,0-1.713,0-2.57,0c-0.854,0-1.713,0-2.569,0
	c0-0.859,0-1.713,0-2.569c-0.427,0-0.855,0-1.284,0c-0.286,0-0.57,0-0.857,0c-1.284,0-2.569,0-3.854,0c-1.143,0-2.285,0-3.428,0
	c-2.283,0-4.567,0-6.851,0c-1.285,0-2.57,0-3.855,0c-1.143,0-2.284,0-3.427,0c-1.142,0-2.284,0-3.426,0c-0.572,0-1.142,0-1.713,0
	c-0.571,0-1.142,0-1.712,0c-0.143,0-0.286,0-0.429,0c0,0.426,0,0.856,0,1.284c0,0.426,0,0.857,0,1.285c-1.428,0-2.856,0-4.282,0
	c-0.143,0-0.286,0-0.429,0c0,0.857,0,1.713,0,2.57c-0.429,0-0.856,0-1.285,0c-0.285,0-0.57,0-0.856,0c0,0.427,0,0.856,0,1.284
	c0,0.286,0,0.572,0,0.858c-0.856,0-1.713,0-2.57,0c0,0.854,0,1.713,0,2.565c-0.856,0-1.713,0-2.569,0c0,0.859,0,1.717,0,2.57
	c0,0.431,0,0.859,0,1.286c0,0.286,0,0.572,0,0.857c-0.286,0-0.571,0-0.856,0c-0.429,0-0.856,0-1.285,0c0,0.429,0,0.856,0,1.285
	c0,0.285,0,0.571,0,0.857c-0.856,0-1.714,0-2.57,0c0-2.856,0-5.712,0-8.567c0-0.428,0-0.854,0-1.284c0-0.286,0-0.574,0-0.856
	c0-0.43,0-0.856,0-1.285c0-0.285,0-0.571,0-0.857c0-1.284,0-2.569,0-3.854c0.856,0,1.714,0,2.57,0c0-0.859,0-1.713,0-2.571
	c0-0.427,0-0.854,0-1.284c0-0.286,0-0.571,0-0.855c0.429,0,0.856,0,1.285,0c0.285,0,0.57,0,0.856,0c0-0.857,0-1.714,0-2.57
	c0-0.43,0-0.856,0-1.285c0-0.285,0-0.571,0-0.857c0.856,0,1.713,0,2.569,0c0-0.427,0-0.856,0-1.284c0-0.286,0-0.572,0-0.856
	c0.856,0,1.713,0,2.57,0c0-0.856,0-1.713,0-2.568c0.427,0,0.856,0,1.285,0c0.286,0,0.571,0,0.856,0c0-0.431,0-0.857,0-1.286
	c0-0.286,0-0.57,0-0.856c0.429,0,0.856,0,1.285,0c0.286,0,0.57,0,0.856,0c0.429,0,0.857,0,1.285,0s0.855,0,1.285,0
	c0-0.857,0-1.713,0-2.57c1.142,0,2.284,0,3.426,0c1.285,0,2.57,0,3.854,0C26.126,3.855,26.126,2.999,26.126,2.143z M18.845,11.993
	c-0.286,0-0.571,0-0.856,0c-0.428,0-0.856,0-1.285,0c0,0.284,0,0.57,0,0.856c0,1.284,0,2.57,0,3.854c0.285,0,0.569,0,0.856,0
	c0.428,0,0.855,0,1.285,0c0,0.141,0,0.286,0,0.429c0,0.57,0,1.143,0,1.714c0.286,0,0.572,0,0.856,0c1.285,0,2.57,0,3.854,0
	c0-0.286,0-0.571,0-0.857c0-0.429,0-0.856,0-1.285c0.856,0,1.713,0,2.57,0c0-1.57,0-3.141,0-4.711c-0.856,0-1.714,0-2.57,0
	c0-0.856,0-1.713,0-2.568c-0.286,0-0.57,0-0.856,0c-1.285,0-2.569,0-3.854,0C18.845,10.28,18.845,11.137,18.845,11.993z
	 M28.268,13.277c0,0.286,0,0.572,0,0.856c0.855,0,1.713,0,2.57,0c0-0.427,0-0.856,0-1.284c0-0.286,0-0.572,0-0.856
	c-0.856,0-1.715,0-2.57,0C28.268,12.422,28.268,12.85,28.268,13.277z M11.992,20.132c0,1.141,0,2.284,0,3.426
	c0.286,0,0.571,0,0.856,0c1.285,0,2.57,0,3.855,0c0-1.571,0-3.142,0-4.711c-1.571,0-3.141,0-4.712,0
	C11.992,19.275,11.992,19.702,11.992,20.132z M66.386,28.697c0.855,0,1.713,0,2.57,0c0-0.857,0-1.713,0-2.57
	c-0.857,0-1.715,0-2.57,0C66.386,26.984,66.386,27.84,66.386,28.697z M64.244,32.121c0,0.572,0,1.145,0,1.716s0,1.139,0,1.712
	c0.286,0,0.571,0,0.856,0c1.285,0,2.57,0,3.855,0c0-0.285,0-0.573,0-0.857c0-1.286,0-2.57,0-3.852c-0.287,0-0.572,0-0.857,0
	c-1.284,0-2.57,0-3.854,0C64.244,31.267,64.244,31.694,64.244,32.121z"/>
<path fill-rule="evenodd" clip-rule="evenodd" fill="#211F30" d="M49.682,2.143c3.284,0,6.569,0,9.852,0c0,0.856,0,1.713,0,2.569
	c-0.286,0-0.571,0-0.856,0c-0.429,0-0.857,0-1.285,0c-0.857,0-1.713,0-2.57,0c-1.713,0-3.425,0-5.14,0
	C49.682,3.855,49.682,2.999,49.682,2.143z"/>
<path fill-rule="evenodd" clip-rule="evenodd" fill="#211F30" d="M14.134,4.712c0.286,0,0.571,0,0.856,0c0.429,0,0.857,0,1.285,0
	c0.857,0,1.713,0,2.57,0c0,0.857,0,1.713,0,2.57c-0.43,0-0.856,0-1.285,0s-0.856,0-1.285,0c-0.287,0-0.571,0-0.856,0
	c-0.429,0-0.856,0-1.285,0C14.134,6.425,14.134,5.569,14.134,4.712z"/>
<path fill-rule="evenodd" clip-rule="evenodd" fill="#211F30" d="M59.533,4.712c0.286,0,0.571,0,0.856,0c0.428,0,0.855,0,1.285,0
	c0.855,0,1.713,0,2.569,0c0,0.857,0,1.713,0,2.57c-0.286,0-0.571,0-0.856,0c-0.429,0-0.857,0-1.285,0c-0.857,0-1.713,0-2.569,0
	C59.533,6.425,59.533,5.569,59.533,4.712z"/>
<path fill-rule="evenodd" clip-rule="evenodd" fill="#211F30" d="M11.992,7.282c0.427,0,0.856,0,1.285,0c0.286,0,0.571,0,0.856,0
	c0,0.286,0,0.57,0,0.856c0,0.429,0,0.855,0,1.286c-0.286,0-0.57,0-0.856,0c-0.429,0-0.858,0-1.285,0c0-0.286,0-0.572,0-0.857
	C11.992,8.139,11.992,7.709,11.992,7.282z"/>
<path fill-rule="evenodd" clip-rule="evenodd" fill="#211F30" d="M64.244,7.282c0.43,0,0.856,0,1.284,0c0.287,0,0.571,0,0.857,0
	c0,0.286,0,0.57,0,0.856c0,0.429,0,0.855,0,1.286c-0.286,0-0.57,0-0.857,0c-0.428,0-0.854,0-1.284,0c0-0.431,0-0.857,0-1.286
	C64.244,7.853,64.244,7.568,64.244,7.282z"/>
<path fill-rule="evenodd" clip-rule="evenodd" fill="#211F30" d="M9.422,9.425c0.856,0,1.713,0,2.57,0c0,0.855,0,1.712,0,2.568
	c-0.856,0-1.713,0-2.57,0C9.422,11.137,9.422,10.28,9.422,9.425z"/>
<path fill-rule="evenodd" clip-rule="evenodd" fill="#3A160D" d="M18.845,9.425c1.285,0,2.57,0,3.854,0c0.286,0,0.57,0,0.856,0
	c0,0.855,0,1.712,0,2.568c0.856,0,1.713,0,2.57,0c0,1.57,0,3.141,0,4.711c-0.856,0-1.714,0-2.57,0c0,0.429,0,0.856,0,1.285
	c0,0.286,0,0.571,0,0.857c-1.285,0-2.57,0-3.854,0c-0.285,0-0.571,0-0.856,0c0-0.571,0-1.144,0-1.714c0-0.143,0-0.288,0-0.429
	c-0.43,0-0.856,0-1.285,0c-0.287,0-0.571,0-0.856,0c0-1.284,0-2.57,0-3.854c0-0.286,0-0.572,0-0.856c0.428,0,0.856,0,1.285,0
	c0.286,0,0.57,0,0.856,0C18.845,11.137,18.845,10.28,18.845,9.425z"/>
<path fill-rule="evenodd" clip-rule="evenodd" fill="#211F30" d="M66.386,9.425c0.855,0,1.713,0,2.57,0c0,0.855,0,1.712,0,2.568
	c-0.857,0-1.715,0-2.57,0C66.386,11.137,66.386,10.28,66.386,9.425z"/>
<path fill-rule="evenodd" clip-rule="evenodd" fill="#211F30" d="M6.853,11.993c0.856,0,1.713,0,2.569,0c0,0.284,0,0.57,0,0.856
	c0,0.428,0,0.857,0,1.284c-0.856,0-1.713,0-2.569,0c0-0.427,0-0.856,0-1.284C6.853,12.563,6.853,12.277,6.853,11.993z"/>
<path fill-rule="evenodd" clip-rule="evenodd" fill="#3A160D" d="M28.268,11.993c0.855,0,1.713,0,2.57,0c0,0.284,0,0.57,0,0.856
	c0,0.428,0,0.857,0,1.284c-0.856,0-1.715,0-2.57,0c0-0.284,0-0.57,0-0.856C28.268,12.85,28.268,12.422,28.268,11.993z"/>
<path fill-rule="evenodd" clip-rule="evenodd" fill="#211F30" d="M68.956,11.993c0.428,0,0.855,0,1.285,0c0.285,0,0.57,0,0.855,0
	c0,0.284,0,0.57,0,0.856c0,0.428,0,0.857,0,1.284c-0.285,0-0.57,0-0.855,0c-0.43,0-0.857,0-1.285,0c0-0.284,0-0.57,0-0.856
	C68.956,12.85,68.956,12.422,68.956,11.993z"/>
<path fill-rule="evenodd" clip-rule="evenodd" fill="#211F30" d="M4.711,14.134c0.429,0,0.856,0,1.285,0c0.285,0,0.57,0,0.856,0
	c0,0.286,0,0.572,0,0.857c0,0.429,0,0.855,0,1.285c0,0.856,0,1.713,0,2.57c-0.286,0-0.571,0-0.856,0c-0.429,0-0.856,0-1.285,0
	C4.711,17.276,4.711,15.706,4.711,14.134z"/>
<path fill-rule="evenodd" clip-rule="evenodd" fill="#211F30" d="M71.097,14.134c0.856,0,1.714,0,2.57,0c0,0.286,0,0.572,0,0.857
	c0,0.429,0,0.855,0,1.285c0,0.856,0,1.713,0,2.57c-0.856,0-1.714,0-2.57,0c0-0.144,0-0.286,0-0.43
	C71.097,16.99,71.097,15.56,71.097,14.134z"/>
<path fill-rule="evenodd" clip-rule="evenodd" fill="#211F30" d="M4.711,18.847c0,0.284,0,0.569,0,0.855c0,0.43,0,0.857,0,1.284
	c0,0.858,0,1.712,0,2.571c-0.856,0-1.714,0-2.57,0c0-1.571,0-3.142,0-4.711C2.998,18.847,3.855,18.847,4.711,18.847z"/>
<path fill-rule="evenodd" clip-rule="evenodd" fill="#3A160D" d="M11.992,18.847c1.571,0,3.141,0,4.712,0c0,1.569,0,3.14,0,4.711
	c-1.285,0-2.57,0-3.855,0c-0.285,0-0.57,0-0.856,0c0-1.142,0-2.285,0-3.426C11.992,19.702,11.992,19.275,11.992,18.847z"/>
<path fill-rule="evenodd" clip-rule="evenodd" fill="#211F30" d="M73.667,18.847c0.855,0,1.713,0,2.569,0c0,0.143,0,0.284,0,0.429
	c0,1.426,0,2.854,0,4.282c-0.856,0-1.714,0-2.569,0c0-0.286,0-0.572,0-0.859c0-0.427,0-0.854,0-1.284
	C73.667,20.56,73.667,19.702,73.667,18.847z"/>
<path fill-rule="evenodd" clip-rule="evenodd" fill="#211F30" d="M2.141,23.558c0,1.284,0,2.569,0,3.854c0,0.286,0,0.572,0,0.857
	c0,0.429,0,0.855,0,1.285c0,0.282,0,0.57,0,0.856c0,0.43,0,0.856,0,1.284c0,2.855,0,5.711,0,8.567c0,0.855,0,1.713,0,2.567
	c-0.286,0-0.57,0-0.856,0c-0.428,0-0.856,0-1.285,0c0-0.142,0-0.284,0-0.428c0-0.713,0-1.427,0-2.14c0-0.857,0-1.714,0-2.57
	c0-0.286,0-0.572,0-0.856c0-0.429,0-0.859,0-1.286c0-0.857,0-1.712,0-2.569c0-1.57,0-3.144,0-4.711c0-1.57,0-3.141,0-4.711
	c0.286,0,0.571,0,0.856,0C1.285,23.558,1.713,23.558,2.141,23.558z"/>
<path fill-rule="evenodd" clip-rule="evenodd" fill="#211F30" d="M47.54,23.558c0,0.856,0,1.71,0,2.569c-1.284,0-2.569,0-3.854,0
	c-1.143,0-2.285,0-3.428,0c-1.285,0-2.569,0-3.854,0c-1.142,0-2.284,0-3.426,0c-1.285,0-2.57,0-3.855,0c-1.142,0-2.284,0-3.426,0
	c-2.284,0-4.567,0-6.852,0c0-0.428,0-0.859,0-1.285c0-0.428,0-0.858,0-1.284c0.143,0,0.286,0,0.429,0c0.571,0,1.142,0,1.712,0
	c0.572,0,1.142,0,1.713,0c1.143,0,2.285,0,3.426,0c1.143,0,2.284,0,3.427,0c1.285,0,2.57,0,3.855,0c2.284,0,4.568,0,6.851,0
	c1.143,0,2.285,0,3.428,0C44.971,23.558,46.256,23.558,47.54,23.558z"/>
<path fill-rule="evenodd" clip-rule="evenodd" fill="#A73123" d="M47.54,23.558c0.287,0,0.571,0,0.857,0c0.429,0,0.857,0,1.284,0
	c0,0.856,0,1.71,0,2.569c-0.285,0-0.569,0-0.855,0c-0.429,0-0.856,0-1.286,0C47.54,25.268,47.54,24.414,47.54,23.558z"/>
<path fill-rule="evenodd" clip-rule="evenodd" fill="#A73123" d="M73.667,23.558c0.855,0,1.713,0,2.569,0c0,3.283,0,6.566,0,9.848
	c0,0.859,0,1.717,0,2.57c0,0.431,0,0.859,0,1.286c0,0.286,0,0.572,0,0.857c0,0.856,0,1.713,0,2.569c0,0.715,0,1.426,0,2.141
	c-4.854,0-9.708,0-14.562,0c0-0.428,0-0.854,0-1.282c0-0.43,0-0.858,0-1.285c0-0.717,0-1.43,0-2.143c0.855,0,1.713,0,2.569,0
	c0,0.286,0,0.572,0,0.856c0,0.429,0,0.856,0,1.286c0.286,0,0.571,0,0.856,0c1.285,0,2.57,0,3.855,0c0-0.286,0-0.572,0-0.857
	c0-0.429,0-0.856,0-1.285c0.285,0,0.57,0,0.855,0c0.43,0,0.857,0,1.285,0c0-0.285,0-0.571,0-0.857c0-1.286,0-2.57,0-3.856
	c0.856,0,1.714,0,2.57,0c0-0.282,0-0.568,0-0.853C73.667,29.554,73.667,26.553,73.667,23.558z"/>
<path fill-rule="evenodd" clip-rule="evenodd" fill="#211F30" d="M76.236,23.558c0.286,0,0.571,0,0.856,0c0.429,0,0.856,0,1.285,0
	c0,0.426,0,0.856,0,1.284c0,0.426,0,0.857,0,1.285c0,0.857,0,1.713,0,2.57c0,0.286,0,0.57,0,0.856c0,0.428,0,0.856,0,1.286
	c0,0.854,0,1.713,0,2.565c0,0.286,0,0.573,0,0.859c0,0.427,0,0.857,0,1.284c0,0.857,0,1.713,0,2.57c0,0.713,0,1.426,0,2.143
	c0,0.855,0,1.713,0,2.567c-0.285,0-0.57,0-0.856,0c-0.429,0-0.856,0-1.285,0c0-0.715,0-1.426,0-2.141c0-0.856,0-1.713,0-2.569
	c0-0.285,0-0.571,0-0.857c0-0.427,0-0.855,0-1.286c0-0.854,0-1.711,0-2.57C76.236,30.124,76.236,26.841,76.236,23.558z"/>
<path fill-rule="evenodd" clip-rule="evenodd" fill="#211F30" d="M18.845,26.127c0,0.857,0,1.713,0,2.57c-0.856,0-1.713,0-2.57,0
	c-0.428,0-0.856,0-1.285,0c-0.285,0-0.57,0-0.856,0c0-0.857,0-1.713,0-2.57c0.143,0,0.286,0,0.429,0
	C15.989,26.127,17.417,26.127,18.845,26.127z"/>
<path fill-rule="evenodd" clip-rule="evenodd" fill="#D98249" d="M18.845,26.127c2.284,0,4.568,0,6.852,0c1.143,0,2.285,0,3.426,0
	c1.285,0,2.57,0,3.855,0c1.142,0,2.284,0,3.426,0c1.285,0,2.57,0,3.854,0c1.143,0,2.285,0,3.428,0c1.284,0,2.569,0,3.854,0
	c0,0.857,0,1.713,0,2.57c-0.428,0-0.855,0-1.284,0c-0.286,0-0.57,0-0.856,0c-0.572,0-1.141,0-1.713,0c-1.143,0-2.285,0-3.428,0
	c-0.428,0-0.855,0-1.285,0c-0.285,0-0.569,0-0.855,0c-0.572,0-1.142,0-1.714,0c-1.142,0-2.284,0-3.426,0c-0.427,0-0.856,0-1.285,0
	c-0.284,0-0.57,0-0.855,0c-0.572,0-1.143,0-1.715,0c-1.142,0-2.284,0-3.426,0c-2.284,0-4.567,0-6.852,0
	C18.845,27.84,18.845,26.984,18.845,26.127z"/>
<path fill-rule="evenodd" clip-rule="evenodd" fill="#211F30" d="M47.54,26.127c0.43,0,0.857,0,1.286,0c0.286,0,0.57,0,0.855,0
	c0.856,0,1.715,0,2.569,0c0,0.857,0,1.713,0,2.57c-0.854,0-1.713,0-2.569,0c-0.427,0-0.855,0-1.284,0c-0.286,0-0.57,0-0.857,0
	C47.54,27.84,47.54,26.984,47.54,26.127z"/>
<path fill-rule="evenodd" clip-rule="evenodd" fill="#A73123" d="M52.251,26.127c0.857,0,1.715,0,2.57,0c0,0.857,0,1.713,0,2.57
	c-0.855,0-1.713,0-2.57,0C52.251,27.84,52.251,26.984,52.251,26.127z"/>
<path fill-rule="evenodd" clip-rule="evenodd" fill="#A73123" d="M66.386,26.127c0.855,0,1.713,0,2.57,0c0,0.857,0,1.713,0,2.57
	c-0.857,0-1.715,0-2.57,0C66.386,27.84,66.386,26.984,66.386,26.127z"/>
<path fill-rule="evenodd" clip-rule="evenodd" fill="#211F30" d="M14.134,28.697c0,0.286,0,0.57,0,0.856c0,0.428,0,0.856,0,1.286
	c-0.286,0-0.57,0-0.856,0c-0.429,0-0.858,0-1.285,0c0-0.286,0-0.572,0-0.858c0-0.428,0-0.857,0-1.284c0.286,0,0.571,0,0.856,0
	C13.277,28.697,13.705,28.697,14.134,28.697z"/>
<path fill-rule="evenodd" clip-rule="evenodd" fill="#D98249" d="M14.134,28.697c0.286,0,0.571,0,0.856,0c0.429,0,0.857,0,1.285,0
	c0.857,0,1.713,0,2.57,0c0,0.286,0,0.57,0,0.856c0,0.428,0,0.856,0,1.286c-0.856,0-1.713,0-2.57,0c-0.428,0-0.856,0-1.285,0
	c-0.285,0-0.57,0-0.856,0c0-0.43,0-0.858,0-1.286C14.134,29.268,14.134,28.983,14.134,28.697z"/>
<path fill-rule="evenodd" clip-rule="evenodd" fill="#211F30" d="M18.845,28.697c2.284,0,4.568,0,6.852,0c1.143,0,2.285,0,3.426,0
	c0.572,0,1.143,0,1.715,0c0.285,0,0.571,0,0.855,0c0.429,0,0.858,0,1.285,0c1.142,0,2.284,0,3.426,0c0.572,0,1.142,0,1.714,0
	c0.286,0,0.57,0,0.855,0c0.43,0,0.857,0,1.285,0c1.143,0,2.285,0,3.428,0c0.572,0,1.141,0,1.713,0c0.286,0,0.57,0,0.856,0
	c0.429,0,0.856,0,1.284,0c0,0.286,0,0.57,0,0.856c0,0.428,0,0.856,0,1.286c-1.284,0-2.569,0-3.854,0c-1.143,0-2.285,0-3.428,0
	c-1.285,0-2.569,0-3.854,0c-1.142,0-2.284,0-3.426,0c-1.285,0-2.57,0-3.855,0c-1.142,0-2.284,0-3.426,0c-2.284,0-4.567,0-6.852,0
	c0-0.43,0-0.858,0-1.286C18.845,29.268,18.845,28.983,18.845,28.697z"/>
<path fill-rule="evenodd" clip-rule="evenodd" fill="#D98249" d="M47.54,28.697c0.287,0,0.571,0,0.857,0c0.429,0,0.857,0,1.284,0
	c0.856,0,1.715,0,2.569,0c0,0.286,0,0.57,0,0.856c0,0.428,0,0.856,0,1.286c-0.854,0-1.713,0-2.569,0c-0.427,0-0.855,0-1.284,0
	c-0.286,0-0.57,0-0.857,0c0-0.43,0-0.858,0-1.286C47.54,29.268,47.54,28.983,47.54,28.697z"/>
<path fill-rule="evenodd" clip-rule="evenodd" fill="#211F30" d="M52.251,28.697c0.857,0,1.715,0,2.57,0c0,0.286,0,0.57,0,0.856
	c0,0.428,0,0.856,0,1.286c-0.855,0-1.713,0-2.57,0c0-0.43,0-0.858,0-1.286C52.251,29.268,52.251,28.983,52.251,28.697z"/>
<path fill-rule="evenodd" clip-rule="evenodd" fill="#A73123" d="M54.821,28.697c0.287,0,0.57,0,0.857,0c0.428,0,0.855,0,1.285,0
	c0,0.143,0,0.286,0,0.427c0,0.572,0,1.144,0,1.716c-0.287,0-0.57,0-0.857,0c-0.428,0-0.857,0-1.285,0c0-0.43,0-0.858,0-1.286
	C54.821,29.268,54.821,28.983,54.821,28.697z"/>
<path fill-rule="evenodd" clip-rule="evenodd" fill="#211F30" d="M11.992,30.84c0,0.854,0,1.713,0,2.565c-0.856,0-1.713,0-2.57,0
	c0-0.853,0-1.711,0-2.565C10.279,30.84,11.136,30.84,11.992,30.84z"/>
<path fill-rule="evenodd" clip-rule="evenodd" fill="#D98249" d="M11.992,30.84c0.427,0,0.856,0,1.285,0c0.286,0,0.571,0,0.856,0
	c0,0.854,0,1.713,0,2.565c-0.286,0-0.57,0-0.856,0c-0.429,0-0.858,0-1.285,0C11.992,32.553,11.992,31.694,11.992,30.84z"/>
<path fill-rule="evenodd" clip-rule="evenodd" fill="#211F30" d="M14.134,30.84c0.286,0,0.571,0,0.856,0c0.429,0,0.857,0,1.285,0
	c0.857,0,1.713,0,2.57,0c0,0.854,0,1.713,0,2.565c-0.856,0-1.713,0-2.57,0c-0.428,0-0.856,0-1.285,0c-0.285,0-0.57,0-0.856,0
	C14.134,32.553,14.134,31.694,14.134,30.84z"/>
<path fill-rule="evenodd" clip-rule="evenodd" fill="#34343D" d="M18.845,30.84c2.284,0,4.568,0,6.852,0c1.143,0,2.285,0,3.426,0
	c1.285,0,2.57,0,3.855,0c1.142,0,2.284,0,3.426,0c1.285,0,2.57,0,3.854,0c1.143,0,2.285,0,3.428,0c1.284,0,2.569,0,3.854,0
	c0,0.854,0,1.713,0,2.565c-0.855,0-1.713,0-2.569,0c-1.998,0-3.997,0-5.997,0c-0.569,0-1.142,0-1.712,0c-0.429,0-0.858,0-1.285,0
	c-0.428,0-0.857,0-1.285,0c-0.429,0-0.857,0-1.285,0c-0.856,0-1.714,0-2.57,0c-3.999,0-7.995,0-11.993,0
	C18.845,32.553,18.845,31.694,18.845,30.84z"/>
<path fill-rule="evenodd" clip-rule="evenodd" fill="#211F30" d="M47.54,30.84c0.287,0,0.571,0,0.857,0c0.429,0,0.857,0,1.284,0
	c0.856,0,1.715,0,2.569,0c0,0.854,0,1.713,0,2.565c-0.854,0-1.713,0-2.569,0c-0.427,0-0.855,0-1.284,0c-0.286,0-0.57,0-0.857,0
	C47.54,32.553,47.54,31.694,47.54,30.84z"/>
<path fill-rule="evenodd" clip-rule="evenodd" fill="#D98249" d="M52.251,30.84c0.857,0,1.715,0,2.57,0c0,0.854,0,1.713,0,2.565
	c-0.855,0-1.713,0-2.57,0C52.251,32.553,52.251,31.694,52.251,30.84z"/>
<path fill-rule="evenodd" clip-rule="evenodd" fill="#211F30" d="M54.821,30.84c0.428,0,0.857,0,1.285,0c0.287,0,0.57,0,0.857,0
	c0,0.854,0,1.713,0,2.565c-0.287,0-0.57,0-0.857,0c-0.428,0-0.857,0-1.285,0C54.821,32.553,54.821,31.694,54.821,30.84z"/>
<path fill-rule="evenodd" clip-rule="evenodd" fill="#A73123" d="M56.964,30.84c0.855,0,1.713,0,2.569,0c0,0.854,0,1.713,0,2.565
	c-0.856,0-1.714,0-2.569,0C56.964,32.553,56.964,31.694,56.964,30.84z"/>
<path fill-rule="evenodd" clip-rule="evenodd" fill="#A73123" d="M64.244,30.84c1.284,0,2.57,0,3.854,0c0.285,0,0.57,0,0.857,0
	c0,1.281,0,2.565,0,3.852c0,0.284,0,0.572,0,0.857c-1.285,0-2.57,0-3.855,0c-0.285,0-0.57,0-0.856,0c0-0.573,0-1.141,0-1.712
	s0-1.144,0-1.716C64.244,31.694,64.244,31.267,64.244,30.84z"/>
<path fill-rule="evenodd" clip-rule="evenodd" fill="#211F30" d="M9.422,33.405c0,0.286,0,0.573,0,0.859c0,0.427,0,0.857,0,1.284
	c0,0.286,0,0.572,0,0.857c0,0.568,0,1.142,0,1.713c-0.856,0-1.713,0-2.569,0c0-0.285,0-0.571,0-0.857c0-0.427,0-0.855,0-1.286
	c0-0.854,0-1.711,0-2.57C7.709,33.405,8.566,33.405,9.422,33.405z"/>
<path fill-rule="evenodd" clip-rule="evenodd" fill="#D98249" d="M9.422,33.405c0.856,0,1.713,0,2.57,0c0,0.859,0,1.717,0,2.57
	c0,0.431,0,0.859,0,1.286c0,0.286,0,0.572,0,0.857c-0.856,0-1.713,0-2.57,0c0-0.571,0-1.145,0-1.713c0-0.285,0-0.571,0-0.857
	c0-0.427,0-0.857,0-1.284C9.422,33.979,9.422,33.691,9.422,33.405z"/>
<path fill-rule="evenodd" clip-rule="evenodd" fill="#211F30" d="M11.992,33.405c0.427,0,0.856,0,1.285,0c0.286,0,0.571,0,0.856,0
	c0,0.859,0,1.717,0,2.57c0,0.431,0,0.859,0,1.286c0,0.286,0,0.572,0,0.857c-0.286,0-0.57,0-0.856,0c-0.429,0-0.858,0-1.285,0
	c0-0.285,0-0.571,0-0.857c0-0.427,0-0.855,0-1.286C11.992,35.122,11.992,34.265,11.992,33.405z"/>
<path fill-rule="evenodd" clip-rule="evenodd" fill="#34343D" d="M14.134,33.405c0.286,0,0.571,0,0.856,0c0.429,0,0.857,0,1.285,0
	c0.857,0,1.713,0,2.57,0c0,0.859,0,1.717,0,2.57c0,0.431,0,0.859,0,1.286c0,0.286,0,0.572,0,0.857c-0.43,0-0.856,0-1.285,0
	c-0.287,0-0.571,0-0.856,0c0,1.57,0,3.142,0,4.71c-1.285,0-2.57,0-3.855,0c-0.285,0-0.57,0-0.856,0c0-1.568,0-3.14,0-4.71
	c0.427,0,0.856,0,1.285,0c0.286,0,0.571,0,0.856,0c0-0.285,0-0.571,0-0.857c0-0.427,0-0.855,0-1.286
	C14.134,35.122,14.134,34.265,14.134,33.405z"/>
<path fill-rule="evenodd" clip-rule="evenodd" fill="#211F30" d="M18.845,33.405c3.998,0,7.994,0,11.993,0c0,2.285,0,4.572,0,6.856
	c-0.856,0-1.715,0-2.57,0c0-1.286,0-2.57,0-3.855c0-0.285,0-0.571,0-0.857c-2.285,0-4.569,0-6.853,0c0,0.857,0,1.713,0,2.57
	c0,0.713,0,1.426,0,2.143c-0.856,0-1.713,0-2.57,0c0-0.43,0-0.857,0-1.286c0-0.284,0-0.57,0-0.856c0-0.285,0-0.571,0-0.857
	c0-0.427,0-0.855,0-1.286C18.845,35.122,18.845,34.265,18.845,33.405z"/>
<path fill-rule="evenodd" clip-rule="evenodd" fill="#3E4049" d="M30.838,33.405c0.855,0,1.713,0,2.57,0c0,2.285,0,4.572,0,6.856
	c0,0.855,0,1.713,0,2.567c-0.856,0-1.714,0-2.57,0c0-0.854,0-1.712,0-2.567C30.838,37.978,30.838,35.69,30.838,33.405z"/>
<path fill-rule="evenodd" clip-rule="evenodd" fill="#211F30" d="M33.408,33.405c0.427,0,0.856,0,1.285,0c0.427,0,0.856,0,1.285,0
	c0.427,0,0.856,0,1.285,0c0.57,0,1.143,0,1.712,0c2,0,3.999,0,5.997,0c0,2.285,0,4.572,0,6.856c-0.286,0-0.57,0-0.855,0
	c-0.429,0-0.856,0-1.285,0c0-1.286,0-2.57,0-3.855c0-0.285,0-0.571,0-0.857c-1.143,0-2.284,0-3.426,0c-0.572,0-1.142,0-1.714,0
	c-0.286,0-0.57,0-0.856,0c-0.429,0-0.856,0-1.285,0c0,0.857,0,1.713,0,2.57c0,0.713,0,1.426,0,2.143c-0.286,0-0.57,0-0.856,0
	c-0.429,0-0.857,0-1.285,0C33.408,37.978,33.408,35.69,33.408,33.405z"/>
<path fill-rule="evenodd" clip-rule="evenodd" fill="#3E4049" d="M44.971,33.405c0.856,0,1.714,0,2.569,0c0,0.432,0,0.859,0,1.286
	c0,0.284,0,0.572,0,0.857c0.43,0,0.857,0,1.286,0s0.855,0,1.284,0c0.428,0,0.856,0,1.286,0c0.284,0,0.569,0,0.854,0
	c0,0.857,0,1.713,0,2.57c0,0.572,0,1.141,0,1.713c0,0.144,0,0.286,0,0.43c0.857,0,1.715,0,2.57,0c0,0.855,0,1.713,0,2.567
	c-3.282,0-6.567,0-9.851,0c0-0.854,0-1.712,0-2.567C44.971,37.978,44.971,35.69,44.971,33.405z"/>
<path fill-rule="evenodd" clip-rule="evenodd" fill="#34343D" d="M47.54,33.405c0.287,0,0.571,0,0.857,0c0.429,0,0.857,0,1.284,0
	c0.856,0,1.715,0,2.569,0c0,0.286,0,0.573,0,0.859c0,0.427,0,0.857,0,1.284c-0.285,0-0.57,0-0.854,0c-0.43,0-0.858,0-1.286,0
	c-0.429,0-0.855,0-1.284,0s-0.856,0-1.286,0c0-0.285,0-0.573,0-0.857C47.54,34.265,47.54,33.837,47.54,33.405z"/>
<path fill-rule="evenodd" clip-rule="evenodd" fill="#211F30" d="M52.251,33.405c0.857,0,1.715,0,2.57,0c0,0.432,0,0.859,0,1.286
	c0,0.431,0,0.857,0,1.284c0,0.431,0,0.859,0,1.286c0,0.286,0,0.572,0,0.857c-0.855,0-1.713,0-2.57,0c0-0.857,0-1.713,0-2.57
	c0-0.427,0-0.857,0-1.284C52.251,33.979,52.251,33.691,52.251,33.405z"/>
<path fill-rule="evenodd" clip-rule="evenodd" fill="#D98249" d="M54.821,33.405c0.428,0,0.857,0,1.285,0c0.287,0,0.57,0,0.857,0
	c0,0.859,0,1.717,0,2.57c0,0.431,0,0.859,0,1.286c0,0.286,0,0.572,0,0.857c-0.287,0-0.57,0-0.857,0c-0.428,0-0.857,0-1.285,0
	c0-0.285,0-0.571,0-0.857c0-0.427,0-0.855,0-1.286c0-0.427,0-0.854,0-1.284C54.821,34.265,54.821,33.837,54.821,33.405z"/>
<path fill-rule="evenodd" clip-rule="evenodd" fill="#211F30" d="M56.964,33.405c0.855,0,1.713,0,2.569,0c0,0.859,0,1.717,0,2.57
	c0,0.431,0,0.859,0,1.286c0,0.286,0,0.572,0,0.857c-0.856,0-1.714,0-2.569,0c0-0.285,0-0.571,0-0.857c0-0.427,0-0.855,0-1.286
	C56.964,35.122,56.964,34.265,56.964,33.405z"/>
<path fill-rule="evenodd" clip-rule="evenodd" fill="#A73123" d="M59.533,33.405c0.286,0,0.571,0,0.856,0c0.428,0,0.855,0,1.285,0
	c0,0.432,0,0.859,0,1.286c0,0.431,0,0.857,0,1.284c0,0.286,0,0.573,0,0.859c0,0.427,0,0.856,0,1.284c-0.286,0-0.57,0-0.857,0
	c-0.428,0-0.855,0-1.284,0c0-0.285,0-0.571,0-0.857c0-0.427,0-0.855,0-1.286C59.533,35.122,59.533,34.265,59.533,33.405z"/>
<path fill-rule="evenodd" clip-rule="evenodd" fill="#FFFFFF" d="M28.268,40.262c-2.285,0-4.569,0-6.853,0c0-0.717,0-1.43,0-2.143
	c0-0.857,0-1.713,0-2.57c2.284,0,4.568,0,6.853,0c0,0.286,0,0.572,0,0.857C28.268,37.691,28.268,38.976,28.268,40.262z"/>
<path fill-rule="evenodd" clip-rule="evenodd" fill="#FFFFFF" d="M42.83,40.262c-0.144,0-0.286,0-0.43,0c-0.569,0-1.142,0-1.712,0
	c-0.572,0-1.142,0-1.714,0c-1.142,0-2.284,0-3.425,0c0-0.717,0-1.43,0-2.143c0-0.857,0-1.713,0-2.57c0.428,0,0.855,0,1.285,0
	c0.286,0,0.57,0,0.856,0c0.572,0,1.143,0,1.714,0c1.142,0,2.284,0,3.426,0c0,0.286,0,0.572,0,0.857
	C42.83,37.691,42.83,38.976,42.83,40.262z"/>
<path fill-rule="evenodd" clip-rule="evenodd" fill="#211F30" d="M6.853,38.119c0,1.57,0,3.142,0,4.71c0.285,0,0.571,0,0.856,0
	c0.572,0,1.142,0,1.713,0c0-1.568,0-3.14,0-4.71c0.856,0,1.713,0,2.57,0c0,1.57,0,3.142,0,4.71c0.286,0,0.571,0,0.856,0
	c1.285,0,2.57,0,3.855,0c0.428,0,0.856,0,1.285,0c0.286,0,0.57,0,0.856,0c0.856,0,1.713,0,2.57,0c0-0.854,0-1.712,0-2.567
	c2.284,0,4.568,0,6.853,0c0,0.855,0,1.713,0,2.567c0.855,0,1.713,0,2.57,0c0.855,0,1.713,0,2.57,0c0.285,0,0.569,0,0.856,0
	c0.429,0,0.856,0,1.285,0c0-0.854,0-1.712,0-2.567c1.141,0,2.284,0,3.425,0c0.572,0,1.142,0,1.714,0c0.57,0,1.143,0,1.712,0
	c0.144,0,0.286,0,0.43,0c0,0.855,0,1.713,0,2.567c0.429,0,0.856,0,1.285,0c0.285,0,0.569,0,0.855,0c3.283,0,6.568,0,9.851,0
	c0-0.854,0-1.712,0-2.567c0-0.43,0-0.857,0-1.286c0-0.284,0-0.57,0-0.856c0.428,0,0.857,0,1.285,0c0.287,0,0.57,0,0.857,0
	c0,1.285,0,2.569,0,3.855c0,0.286,0,0.57,0,0.854c0.428,0,0.855,0,1.284,0s0.856,0,1.285,0c0-0.854,0-1.712,0-2.567
	c0-0.717,0-1.43,0-2.143c0.429,0,0.856,0,1.284,0c0.287,0,0.571,0,0.857,0c0,0.713,0,1.426,0,2.143c0,0.427,0,0.855,0,1.285
	c0,0.428,0,0.854,0,1.282c4.854,0,9.707,0,14.562,0c0,0.284,0,0.57,0,0.858c0,0.426,0,0.856,0,1.285c-2.998,0-5.995,0-8.995,0
	c-1.569,0-3.14,0-4.711,0c-0.285,0-0.57,0-0.855,0c-0.43,0-0.857,0-1.285,0c-0.856,0-1.713,0-2.57,0c-2.998,0-5.996,0-8.993,0
	c-1.571,0-3.141,0-4.711,0c-0.287,0-0.572,0-0.856,0c-0.429,0-0.858,0-1.285,0c-0.857,0-1.715,0-2.57,0c-6.139,0-12.278,0-18.417,0
	c-1.569,0-3.141,0-4.711,0c-0.287,0-0.571,0-0.856,0c-0.429,0-0.856,0-1.285,0c-0.856,0-1.714,0-2.57,0c-3.141,0-6.282,0-9.423,0
	c0-0.287,0-0.573,0-0.859c0-0.426,0-0.854,0-1.284c0.856,0,1.714,0,2.57,0c0-0.854,0-1.712,0-2.567c0-0.286,0-0.572,0-0.857
	c0-0.429,0-0.856,0-1.285c0.429,0,0.856,0,1.285,0C6.282,38.119,6.567,38.119,6.853,38.119z"/>
<path fill-rule="evenodd" clip-rule="evenodd" fill="#D98249" d="M6.853,38.119c0.856,0,1.713,0,2.569,0c0,1.57,0,3.142,0,4.71
	c-0.571,0-1.142,0-1.713,0c-0.285,0-0.571,0-0.856,0C6.853,41.261,6.853,39.689,6.853,38.119z"/>
<path fill-rule="evenodd" clip-rule="evenodd" fill="#3E4049" d="M18.845,38.119c0,0.286,0,0.572,0,0.856c0,0.429,0,0.856,0,1.286
	c0,0.855,0,1.713,0,2.567c-0.286,0-0.571,0-0.856,0c-0.428,0-0.856,0-1.285,0c0-1.568,0-3.14,0-4.71c0.285,0,0.569,0,0.856,0
	C17.989,38.119,18.416,38.119,18.845,38.119z"/>
<path fill-rule="evenodd" clip-rule="evenodd" fill="#34343D" d="M52.251,38.119c0.857,0,1.715,0,2.57,0c0,0.286,0,0.572,0,0.856
	c0,0.429,0,0.856,0,1.286c-0.855,0-1.713,0-2.57,0c0-0.144,0-0.286,0-0.43C52.251,39.26,52.251,38.691,52.251,38.119z"/>
<path fill-rule="evenodd" clip-rule="evenodd" fill="#D98249" d="M56.964,38.119c0.855,0,1.713,0,2.569,0c0,0.713,0,1.426,0,2.143
	c0,0.855,0,1.713,0,2.567c-0.429,0-0.856,0-1.285,0s-0.856,0-1.284,0c0-0.284,0-0.568,0-0.854
	C56.964,40.688,56.964,39.404,56.964,38.119z"/>
<path fill-rule="evenodd" clip-rule="evenodd" fill="#A73123" d="M2.141,40.262c0.856,0,1.714,0,2.57,0c0,0.855,0,1.713,0,2.567
	c-0.856,0-1.714,0-2.57,0C2.141,41.975,2.141,41.117,2.141,40.262z"/>
<path fill-rule="evenodd" clip-rule="evenodd" fill="#34343D" d="M18.845,40.262c0.856,0,1.713,0,2.57,0c0,0.855,0,1.713,0,2.567
	c-0.856,0-1.713,0-2.57,0C18.845,41.975,18.845,41.117,18.845,40.262z"/>
<path fill-rule="evenodd" clip-rule="evenodd" fill="#34343D" d="M28.268,40.262c0.855,0,1.713,0,2.57,0c0,0.855,0,1.713,0,2.567
	c-0.856,0-1.715,0-2.57,0C28.268,41.975,28.268,41.117,28.268,40.262z"/>
<path fill-rule="evenodd" clip-rule="evenodd" fill="#34343D" d="M33.408,40.262c0.427,0,0.856,0,1.285,0c0.286,0,0.57,0,0.856,0
	c0,0.855,0,1.713,0,2.567c-0.429,0-0.856,0-1.285,0c-0.287,0-0.571,0-0.856,0C33.408,41.975,33.408,41.117,33.408,40.262z"/>
<path fill-rule="evenodd" clip-rule="evenodd" fill="#34343D" d="M42.83,40.262c0.429,0,0.856,0,1.285,0c0.285,0,0.569,0,0.855,0
	c0,0.855,0,1.713,0,2.567c-0.286,0-0.57,0-0.855,0c-0.429,0-0.856,0-1.285,0C42.83,41.975,42.83,41.117,42.83,40.262z"/>
</svg>
