<?xml version="1.0" encoding="utf-8"?>
<!-- Generator: Adobe Illustrator 15.0.0, SVG Export Plug-In  -->
<!DOCTYPE svg PUBLIC "-//W3C//DTD SVG 1.1//EN" "http://www.w3.org/Graphics/SVG/1.1/DTD/svg11.dtd" [
	<!ENTITY ns_flows "http://ns.adobe.com/Flows/1.0/">
]>
<svg version="1.1"
	 xmlns="http://www.w3.org/2000/svg" xmlns:xlink="http://www.w3.org/1999/xlink" xmlns:a="http://ns.adobe.com/AdobeSVGViewerExtensions/3.0/"
	 x="0px" y="0px" width="110px" height="70px" viewBox="-17.24 -20.32 110 70" enable-background="new -17.24 -20.32 110 70"
	 xml:space="preserve">
<defs>
</defs>
<path fill="#34343D" d="M47.54,38.12c0,0.569,0,1.14,0,1.71c0,0.14,0,0.29,0,0.43c0.43,0,0.85,0,1.279,0c0.29,0,0.57,0,0.86,0
	c0,0.43,0,0.86,0,1.29c0,0.28,0,0.57,0,0.85c0,0.57,0,1.141,0,1.721c0,1.14,0,2.279,0,3.42c-2.86,0-5.71,0-8.57,0
	c-1.43,0-2.85,0-4.279,0c-1.29,0-2.57,0-3.86,0c-5.56,0-11.13,0-16.7,0c0-0.28,0-0.57,0-0.851c0-0.43,0-0.859,0-1.29
	c0-0.43,0-0.859,0-1.279c0-0.431,0-0.86,0-1.29c0-0.28,0-0.57,0-0.86c0-0.42,0-0.85,0-1.28c0-0.43,0-0.859,0-1.29
	c0-0.42,0-0.85,0-1.279c0.86,0,1.71,0,2.57,0c0-0.86,0-1.71,0-2.57c0.86,0,1.71,0,2.57,0c0-0.29,0-0.57,0-0.86
	c0-0.43,0-0.85,0-1.279c0.43,0,0.859,0,1.29,0c0.42,0,0.85,0,1.279,0c0.28,0,0.57,0,0.86,0c0.43,0,0.85,0,1.28,0
	c2.279,0,4.569,0,6.85,0c0,0.14,0,0.279,0,0.43c0,0.57,0,1.14,0,1.71c0.29,0,0.58,0,0.86,0c0.43,0,0.859,0,1.29,0
	c0.85,0,1.71,0,2.569,0c0-0.29,0-0.57,0-0.86c0-0.43,0-0.85,0-1.279c1.71,0,3.42,0,5.141,0c0,0.43,0,0.85,0,1.279
	c0,0.29,0,0.57,0,0.86c0.85,0,1.71,0,2.56,0c0.43,0,0.86,0,1.29,0c0.28,0,0.57,0,0.86,0C47.54,36.41,47.54,37.26,47.54,38.12z"/>
<path fill="#211F30" d="M73.66,27.41c0,0.43,0,0.859,0,1.279c0,0.29,0,0.58,0,0.86c0,0.43,0,0.86,0,1.29c0,0.28,0,0.57,0,0.859
	c0,0.421,0,0.851,0,1.28c0,0.431,0,0.86,0,1.28c0,0.43,0,0.86,0,1.29c0,0.28,0,0.57,0,0.86c0,0.42,0,0.85,0,1.279
	c0,0.431,0,0.86,0,1.29c0,0.42,0,0.851,0,1.28c0,0.29,0,0.57,0,0.86c0,0.43,0,0.85,0,1.279c0,0.431,0,0.86,0,1.29
	c0,0.431,0,0.851,0,1.28c-0.851,0-1.71,0-2.57,0c0-0.71,0-1.43,0-2.14c0-0.86,0-1.71,0-2.57c0-0.29,0-0.57,0-0.86
	c0-0.42,0-0.85,0-1.279c0-0.86,0-1.71,0-2.57c0-0.29,0-0.57,0-0.86c0-0.43,0-0.85,0-1.279c0-0.86,0-1.711,0-2.57
	c0-0.29,0-0.57,0-0.86c0-0.43,0-0.85,0-1.29c0-0.85,0-1.71,0-2.56c0.43,0,0.86,0,1.29,0s0.85,0,1.28,0
	C73.66,26.56,73.66,26.979,73.66,27.41z"/>
<path fill="#211F30" d="M71.09,19.27c0,2.29,0,4.57,0,6.86c-0.43,0-0.85,0-1.28,0c-0.29,0-0.569,0-0.859,0c0-1.15,0-2.29,0-3.431
	c0-1.279,0-2.569,0-3.85c0.29,0,0.569,0,0.859,0c0.431,0,0.851,0,1.28,0C71.09,18.989,71.09,19.13,71.09,19.27z"/>
<path fill="#211F30" d="M68.95,14.14c0,0.28,0,0.57,0,0.85c0,0.431,0,0.86,0,1.29c0,0.42,0,0.851,0,1.28s0,0.86,0,1.29
	c-0.851,0-1.71,0-2.57,0c0-0.43,0-0.86,0-1.29c0-0.71,0-1.43,0-2.14c0-0.431,0-0.86,0-1.28C67.24,14.14,68.1,14.14,68.95,14.14z"/>
<path fill="#211F30" d="M71.09,44.97c0,0.86,0,1.72,0,2.57c-1.57,0-3.14,0-4.71,0c0-0.851,0-1.71,0-2.57c0.43,0,0.86,0,1.29,0
	s0.85,0,1.28,0c0.29,0,0.569,0,0.859,0C70.24,44.97,70.66,44.97,71.09,44.97z"/>
<path fill="#211F30" d="M66.38,12.85c0,0.43,0,0.86,0,1.29c-0.28,0-0.57,0-0.851,0c-0.43,0-0.859,0-1.289,0c0-0.29,0-0.58,0-0.86
	c0-0.43,0-0.859,0-1.29c0.43,0,0.859,0,1.289,0c0.28,0,0.57,0,0.851,0C66.38,12.279,66.38,12.56,66.38,12.85z"/>
<path fill="#A73123" d="M62.96,38.12c-1.29,0-2.57,0-3.86,0c0-0.29,0-0.57,0-0.86c0-0.43,0-0.85,0-1.28c0-0.859,0-1.72,0-2.569
	c1.71,0,3.43,0,5.141,0c0,0.279,0,0.569,0,0.85c0,0.43,0,0.86,0,1.29c0,0.86,0,1.71,0,2.57C63.81,38.12,63.38,38.12,62.96,38.12z"/>
<path fill="#A73123" d="M64.24,28.27c0,0.86,0,1.71,0,2.57c-0.86,0-1.711,0-2.57,0c0-0.86,0-1.71,0-2.57
	C62.529,28.27,63.38,28.27,64.24,28.27z"/>
<path fill="#211F30" d="M61.67,9.42c0.859,0,1.71,0,2.57,0c0,0.859,0,1.72,0,2.569c-0.86,0-1.711,0-2.57,0
	C61.67,11.14,61.67,10.279,61.67,9.42z"/>
<path fill="#211F30" d="M61.67,6.85c0,0.86,0,1.72,0,2.57c-0.86,0-1.71,0-2.57,0c0-0.851,0-1.71,0-2.57
	C59.96,6.85,60.81,6.85,61.67,6.85z"/>
<path fill="#A73123" d="M59.1,38.12c0,0.279,0,0.569,0,0.859c0,0.42,0,0.851,0,1.28c0,0.86,0,1.71,0,2.57c1.71,0,3.43,0,5.141,0
	c0-0.431,0-0.86,0-1.28c0-0.43,0-0.86,0-1.29c0.289,0,0.569,0,0.859,0c0.43,0,0.851,0,1.28,0c0-0.29,0-0.57,0-0.86
	c0-1.279,0-2.569,0-3.85c0.86,0,1.72,0,2.57,0c0-0.29,0-0.57,0-0.86c0-0.279,0-0.569,0-0.85c0-0.43,0-0.86,0-1.29
	c0-0.29,0-0.57,0-0.851c0-0.439,0-0.859,0-1.289c0-0.28,0-0.57,0-0.86c0-0.42,0-0.86,0-1.28c0-0.29,0-0.57,0-0.859
	c0-0.431,0-0.851,0-1.28c0.29,0,0.569,0,0.859,0c0.431,0,0.851,0,1.28,0c0,0.85,0,1.71,0,2.56c0,0.44,0,0.86,0,1.29
	c0,0.29,0,0.57,0,0.86c0,0.859,0,1.71,0,2.57c0,0.43,0,0.85,0,1.279c0,0.29,0,0.57,0,0.86c0,0.86,0,1.71,0,2.57
	c0,0.43,0,0.859,0,1.279c0,0.29,0,0.57,0,0.86c0,0.86,0,1.71,0,2.57c0,0.71,0,1.43,0,2.14c-0.43,0-0.85,0-1.28,0
	c-0.29,0-0.569,0-0.859,0c-0.431,0-0.851,0-1.28,0s-0.86,0-1.29,0c0,0.86,0,1.72,0,2.57c-3.14,0-6.28,0-9.42,0
	c0-0.851,0-1.71,0-2.57c0-0.71,0-1.43,0-2.14c0-0.86,0-1.71,0-2.57c0-0.43,0-0.86,0-1.28c0-0.29,0-0.58,0-0.859
	c0.43,0,0.859,0,1.28,0C58.529,38.12,58.81,38.12,59.1,38.12z"/>
<path fill="#211F30" d="M59.1,5.569c0,0.431,0,0.86,0,1.28c-1.57,0-3.14,0-4.71,0c0-0.28,0-0.57,0-0.85c0-0.431,0-0.86,0-1.29
	c0.29,0,0.57,0,0.86,0c0.42,0,0.85,0,1.279,0c0.86,0,1.711,0,2.57,0C59.1,5,59.1,5.279,59.1,5.569z"/>
<path fill="#A73123" d="M56.96,36.83c0,0.43,0,0.859,0,1.29c-0.86,0-1.71,0-2.57,0c0-0.29,0-0.57,0-0.86c0-0.43,0-0.85,0-1.28
	c0-0.859,0-1.72,0-2.569c0.86,0,1.71,0,2.57,0c0,0.43,0,0.85,0,1.279c0,0.431,0,0.86,0,1.29C56.96,36.26,56.96,36.55,56.96,36.83z"
	/>
<path fill="#211F30" d="M54.39,4.71c-2.29,0-4.57,0-6.85,0c0-0.851,0-1.71,0-2.57c2.279,0,4.56,0,6.85,0
	C54.39,3,54.39,3.859,54.39,4.71z"/>
<path fill="#211F30" d="M54.39,37.26c0,0.29,0,0.57,0,0.86c-0.29,0-0.57,0-0.86,0c-0.43,0-0.85,0-1.279,0c0-0.29,0-0.57,0-0.86
	c0-0.43,0-0.85,0-1.28c0-0.859,0-1.72,0-2.569c0.43,0,0.85,0,1.279,0c0.29,0,0.57,0,0.86,0c0,0.85,0,1.71,0,2.569
	C54.39,36.41,54.39,36.83,54.39,37.26z"/>
<path fill="#A73123" d="M54.39,30.84c0,0.859,0,1.71,0,2.57c-0.29,0-0.57,0-0.86,0c-0.43,0-0.85,0-1.279,0c0-0.86,0-1.711,0-2.57
	c0.279,0,0.569,0,0.85,0C53.529,30.84,53.96,30.84,54.39,30.84z"/>
<path fill="#D98249" d="M54.39,44.97c0,0.86,0,1.72,0,2.57c-0.43,0-0.86,0-1.29,0c-0.28,0-0.57,0-0.85,0c0-0.71,0-1.431,0-2.141
	c0-0.859,0-1.71,0-2.569c0-0.28,0-0.57,0-0.86c0-0.42,0-0.85,0-1.28c0-0.859,0-1.71,0-2.569c0.43,0,0.85,0,1.279,0
	c0.29,0,0.57,0,0.86,0c0,0.279,0,0.569,0,0.859c0,0.42,0,0.851,0,1.28c0,0.86,0,1.71,0,2.57C54.39,43.54,54.39,44.26,54.39,44.97z"
	/>
<path fill="#A73123" d="M52.25,28.27c0,0.86,0,1.71,0,2.57c-0.86,0-1.721,0-2.57,0c0-0.86,0-1.71,0-2.57
	C50.529,28.27,51.39,28.27,52.25,28.27z"/>
<path fill="#211F30" d="M52.25,30.84c0,0.859,0,1.71,0,2.57c-0.86,0-1.721,0-2.57,0c0-0.86,0-1.711,0-2.57
	C50.529,30.84,51.39,30.84,52.25,30.84z"/>
<path fill="#D98249" d="M49.68,37.26c0-0.43,0-0.85,0-1.28c0-0.859,0-1.72,0-2.569c0.85,0,1.71,0,2.57,0c0,0.85,0,1.71,0,2.569
	c0,0.431,0,0.851,0,1.28c0,0.29,0,0.57,0,0.86c-0.86,0-1.721,0-2.57,0C49.68,37.83,49.68,37.55,49.68,37.26z"/>
<path fill="#211F30" d="M48.819,28.27c0.29,0,0.57,0,0.86,0c0,0.86,0,1.71,0,2.57c-0.29,0-0.57,0-0.86,0c-0.43,0-0.85,0-1.279,0
	c0-0.86,0-1.71,0-2.57C47.97,28.27,48.39,28.27,48.819,28.27z"/>
<path fill="#D98249" d="M48.819,30.84c0.29,0,0.57,0,0.86,0c0,0.859,0,1.71,0,2.57c-0.29,0-0.57,0-0.86,0c-0.43,0-0.85,0-1.279,0
	c0-0.86,0-1.711,0-2.57C47.97,30.84,48.39,30.84,48.819,30.84z"/>
<path fill="#211F30" d="M49.68,33.41c0,0.85,0,1.71,0,2.569c0,0.431,0,0.851,0,1.28c0,0.29,0,0.57,0,0.86c-0.29,0-0.57,0-0.86,0
	c-0.43,0-0.85,0-1.279,0c0-0.86,0-1.71,0-2.57c0-0.43,0-0.86,0-1.29c0-0.28,0-0.57,0-0.85c0.43,0,0.85,0,1.279,0
	C49.109,33.41,49.39,33.41,49.68,33.41z"/>
<path fill="#34343D" d="M49.68,38.979c0,0.42,0,0.851,0,1.28c-0.29,0-0.57,0-0.86,0c-0.43,0-0.85,0-1.279,0c0-0.14,0-0.29,0-0.43
	c0-0.57,0-1.141,0-1.71c0.43,0,0.85,0,1.279,0c0.29,0,0.57,0,0.86,0C49.68,38.399,49.68,38.689,49.68,38.979z"/>
<path fill="#A73123" d="M48.39,26.13c0.43,0,0.86,0,1.29,0c0,0.28,0,0.569,0,0.85c0,0.431,0,0.86,0,1.29c-0.29,0-0.57,0-0.86,0
	c-0.43,0-0.85,0-1.279,0c0-0.43,0-0.859,0-1.29c0-0.28,0-0.569,0-0.85C47.819,26.13,48.109,26.13,48.39,26.13z"/>
<path fill="#211F30" d="M47.54,2.14c-8,0-15.99,0-23.99,0c0-0.28,0-0.57,0-0.85c0-0.431,0-0.86,0-1.29c8,0,15.99,0,23.99,0
	c0,0.29,0,0.569,0,0.859C47.54,1.29,47.54,1.71,47.54,2.14z"/>
<path fill="#211F30" d="M47.54,30.84c0,0.859,0,1.71,0,2.57c-0.86,0-1.721,0-2.57,0c-0.43,0-0.86,0-1.29,0c-0.29,0-0.57,0-0.85,0
	c0-0.86,0-1.711,0-2.57c0.279,0,0.56,0,0.85,0c0.43,0,0.86,0,1.29,0C45.819,30.84,46.68,30.84,47.54,30.84z"/>
<path fill="#D98249" d="M47.54,28.27c0,0.86,0,1.71,0,2.57c-0.86,0-1.721,0-2.57,0c-0.43,0-0.86,0-1.29,0c-0.29,0-0.57,0-0.85,0
	c0-0.86,0-1.71,0-2.57c0.279,0,0.56,0,0.85,0c0.43,0,0.86,0,1.29,0c0.42,0,0.85,0,1.28,0C46.68,28.27,47.109,28.27,47.54,28.27z"/>
<path fill="#34343D" d="M47.54,34.26c0,0.43,0,0.86,0,1.29c-0.29,0-0.58,0-0.86,0c-0.43,0-0.86,0-1.29,0c-0.85,0-1.71,0-2.56,0
	c0-0.29,0-0.57,0-0.86c0-0.43,0-0.85,0-1.279c0.279,0,0.56,0,0.85,0c0.43,0,0.86,0,1.29,0c0.85,0,1.71,0,2.57,0
	C47.54,33.689,47.54,33.979,47.54,34.26z"/>
<path fill="#211F30" d="M47.54,26.979c0,0.431,0,0.86,0,1.29c-0.431,0-0.86,0-1.29,0c-0.431,0-0.86,0-1.28,0c-0.43,0-0.86,0-1.29,0
	c-0.29,0-0.57,0-0.85,0c0-0.43,0-0.859,0-1.29c0-0.28,0-0.569,0-0.85c0.42,0,0.85,0,1.279,0c0.29,0,0.57,0,0.86,0
	c0.85,0,1.71,0,2.57,0C47.54,26.41,47.54,26.699,47.54,26.979z"/>
<path fill="#A73123" d="M44.97,23.56c0,0.851,0,1.71,0,2.57c-0.29,0-0.57,0-0.86,0c-0.43,0-0.859,0-1.279,0c0-0.86,0-1.72,0-2.57
	c0.279,0,0.56,0,0.85,0C44.109,23.56,44.54,23.56,44.97,23.56z"/>
<path fill="#211F30" d="M42.83,28.27c0,0.86,0,1.71,0,2.57c-8,0-16,0-23.99,0c0-0.86,0-1.71,0-2.57
	C26.83,28.27,34.83,28.27,42.83,28.27z"/>
<path fill="#D98249" d="M42.83,28.27c-8,0-16,0-23.99,0c0-0.29,0-0.57,0-0.859c0-0.431,0-0.851,0-1.28c7.99,0,15.99,0,23.99,0
	c0,0.28,0,0.569,0,0.85C42.83,27.41,42.83,27.84,42.83,28.27z"/>
<path fill="#211F30" d="M42.83,26.13c-8,0-16,0-23.99,0c0-0.431,0-0.86,0-1.29s0-0.851,0-1.28c7.99,0,15.99,0,23.99,0
	C42.83,24.41,42.83,25.27,42.83,26.13z"/>
<path fill="#34343D" d="M37.689,33.41c0,0.43,0,0.85,0,1.279c0,0.29,0,0.57,0,0.86c-0.859,0-1.72,0-2.569,0c-0.431,0-0.86,0-1.29,0
	c-0.28,0-0.57,0-0.86,0c0-0.57,0-1.14,0-1.71c0-0.15,0-0.29,0-0.43c0.29,0,0.58,0,0.86,0c0.43,0,0.859,0,1.29,0
	C35.97,33.41,36.83,33.41,37.689,33.41z"/>
<path fill="#3A160D" d="M30.83,11.989c0,0.29,0,0.57,0,0.86c0,0.43,0,0.86,0,1.29c-0.851,0-1.71,0-2.57,0c0-0.29,0-0.58,0-0.86
	c0-0.43,0-0.859,0-1.29C29.12,11.989,29.979,11.989,30.83,11.989z"/>
<path fill="#3A160D" d="M26.12,15.85c0,0.28,0,0.57,0,0.85c-0.851,0-1.71,0-2.57,0c0,0.431,0,0.86,0,1.29c0,0.28,0,0.57,0,0.86
	c-1.28,0-2.57,0-3.85,0c-0.29,0-0.57,0-0.86,0c0-0.43,0-0.86,0-1.29c0-0.29,0-0.57,0-0.86c-0.43,0-0.86,0-1.28,0
	c-0.43,0-0.859,0-1.29,0c0-1.279,0-2.56,0-3.85c0-0.29,0-0.57,0-0.86c0.86,0,1.71,0,2.57,0c0-0.85,0-1.71,0-2.569
	c1.29,0,2.57,0,3.86,0c0.279,0,0.569,0,0.85,0c0,0.859,0,1.72,0,2.569c0.86,0,1.72,0,2.57,0C26.12,13.279,26.12,14.56,26.12,15.85z"
	/>
<path fill="#211F30" d="M23.55,2.14c0,0.86,0,1.72,0,2.57c-0.85,0-1.71,0-2.57,0c-0.43,0-0.85,0-1.279,0c-0.29,0-0.57,0-0.86,0
	c0-0.851,0-1.71,0-2.57c0.43,0,0.86,0,1.29,0c0.42,0,0.85,0,1.28,0c0.29,0,0.569,0,0.859,0C22.7,2.14,23.12,2.14,23.55,2.14z"/>
<path fill="#211F30" d="M18.84,30.84c0,0.859,0,1.71,0,2.57c-0.86,0-1.71,0-2.57,0c-0.43,0-0.859,0-1.279,0c-0.29,0-0.58,0-0.86,0
	c0-0.86,0-1.711,0-2.57c0.28,0,0.57,0,0.86,0c0.42,0,0.85,0,1.279,0C17.13,30.84,17.979,30.84,18.84,30.84z"/>
<path fill="#D6412C" d="M64.24,30.84c0-0.86,0-1.71,0-2.57c-0.86,0-1.711,0-2.57,0c0,0.86,0,1.71,0,2.57
	C62.529,30.84,63.38,30.84,64.24,30.84z M26.12,15.85c0-1.29,0-2.57,0-3.86c-0.851,0-1.71,0-2.57,0c0-0.85,0-1.71,0-2.569
	c-0.28,0-0.57,0-0.85,0c-1.29,0-2.57,0-3.86,0V6.85c0-0.42,0-0.85,0-1.28c0-0.29,0-0.569,0-0.859c0.29,0,0.57,0,0.86,0
	c0.43,0,0.85,0,1.279,0c0.86,0,1.721,0,2.57,0c0-0.851,0-1.71,0-2.57c8,0,15.99,0,23.99,0c0,0.86,0,1.72,0,2.57
	c2.279,0,4.56,0,6.85,0c0,0.43,0,0.859,0,1.29c0,0.279,0,0.569,0,0.85c1.57,0,3.14,0,4.71,0c0,0.86,0,1.72,0,2.57
	c0.86,0,1.71,0,2.57,0c0,0.859,0,1.72,0,2.569c0.859,0,1.71,0,2.57,0c0,0.431,0,0.86,0,1.29c0,0.28,0,0.57,0,0.86
	c0.43,0,0.859,0,1.289,0c0.28,0,0.57,0,0.851,0c0,0.42,0,0.85,0,1.28c0,0.71,0,1.43,0,2.14c0,0.43,0,0.86,0,1.29
	c0.86,0,1.72,0,2.57,0c0,1.28,0,2.57,0,3.85c0,1.141,0,2.28,0,3.431c0,0.43,0,0.85,0,1.28c0,0.289,0,0.569,0,0.859
	c0,0.42,0,0.86,0,1.28c0,0.29,0,0.58,0,0.86c0,0.43,0,0.85,0,1.289c0,0.28,0,0.561,0,0.851c0,0.43,0,0.86,0,1.29
	c0,0.28,0,0.57,0,0.85c0,0.29,0,0.57,0,0.86c-0.851,0-1.71,0-2.57,0c0,1.28,0,2.57,0,3.85c0,0.29,0,0.57,0,0.86
	c-0.43,0-0.851,0-1.28,0c-0.29,0-0.57,0-0.859,0c0,0.43,0,0.86,0,1.29c0,0.42,0,0.85,0,1.28c-1.711,0-3.431,0-5.141,0
	c0-0.86,0-1.71,0-2.57c0-0.43,0-0.86,0-1.28c0-0.29,0-0.58,0-0.859c1.29,0,2.57,0,3.86,0c0.42,0,0.85,0,1.28,0c0-0.86,0-1.71,0-2.57
	c0-0.43,0-0.86,0-1.29c0-0.28,0-0.57,0-0.85c-1.711,0-3.431,0-5.141,0c0,0.85,0,1.71,0,2.569c0,0.431,0,0.851,0,1.28
	c0,0.29,0,0.57,0,0.86c-0.29,0-0.57,0-0.859,0c-0.421,0-0.851,0-1.28,0c0-0.431,0-0.86,0-1.29c0-0.28,0-0.57,0-0.851
	c0-0.43,0-0.859,0-1.29c0-0.43,0-0.85,0-1.279c-0.86,0-1.71,0-2.57,0c0-0.86,0-1.711,0-2.57c-0.43,0-0.86,0-1.29,0
	c-0.28,0-0.57,0-0.85,0c0-0.86,0-1.71,0-2.57c-0.86,0-1.721,0-2.57,0c0-0.43,0-0.859,0-1.29c0-0.28,0-0.569,0-0.85
	c-0.43,0-0.86,0-1.29,0c-0.28,0-0.57,0-0.85,0c-0.86,0-1.721,0-2.57,0c0-0.86,0-1.72,0-2.57c-0.43,0-0.86,0-1.29,0
	c-0.29,0-0.57,0-0.85,0c-8,0-16,0-23.99,0h-2.57c0-0.29,0-0.57,0-0.86c0-1.279,0-2.569,0-3.85v-2.15c0.431,0,0.86,0,1.29,0
	c0.42,0,0.851,0,1.28,0c0,0.29,0,0.57,0,0.86c0,0.43,0,0.86,0,1.29c0.29,0,0.57,0,0.86,0c1.279,0,2.569,0,3.85,0
	c0-0.29,0-0.58,0-0.86c0-0.43,0-0.859,0-1.29c0.86,0,1.72,0,2.57,0C26.12,16.42,26.12,16.13,26.12,15.85z M28.26,11.989
	c0,0.431,0,0.86,0,1.29c0,0.28,0,0.57,0,0.86c0.86,0,1.72,0,2.57,0c0-0.43,0-0.86,0-1.29c0-0.29,0-0.57,0-0.86
	C29.979,11.989,29.12,11.989,28.26,11.989z"/>
<path fill="#D98249" d="M18.84,28.27c0,0.86,0,1.71,0,2.57c-0.86,0-1.71,0-2.57,0c-0.43,0-0.859,0-1.279,0c-0.29,0-0.58,0-0.86,0
	c0-0.86,0-1.71,0-2.57c0.28,0,0.57,0,0.86,0c0.42,0,0.85,0,1.279,0c0.431,0,0.86,0,1.29,0C17.979,28.27,18.41,28.27,18.84,28.27z"/>
<path fill="#3A160D" d="M16.27,22.699c0,0.29,0,0.57,0,0.86c-1.279,0-2.569,0-3.85,0c-0.29,0-0.58,0-0.86,0c0-0.57,0-1.149,0-1.72
	s0-1.141,0-1.71c0-0.431,0-0.86,0-1.28c1.57,0,3.141,0,4.71,0C16.27,20.13,16.27,21.42,16.27,22.699z"/>
<path fill="#34343D" d="M18.84,30.84c7.99,0,15.99,0,23.99,0c0,0.859,0,1.71,0,2.57c-1.721,0-3.431,0-5.141,0
	c-0.859,0-1.72,0-2.569,0c-0.431,0-0.86,0-1.29,0c-0.28,0-0.57,0-0.86,0c-2.28,0-4.57,0-6.85,0c-0.431,0-0.851,0-1.28,0
	c-0.29,0-0.58,0-0.86,0c-0.43,0-0.859,0-1.279,0c-0.431,0-0.86,0-1.29,0c0,0.43,0,0.85,0,1.279c0,0.29,0,0.57,0,0.86
	c-0.86,0-1.71,0-2.57,0c0,0.86,0,1.71,0,2.57c-0.86,0-1.71,0-2.57,0c0,0.43,0,0.859,0,1.279c0,0.431,0,0.86,0,1.29
	c0,0.431,0,0.86,0,1.28c0,0.29,0,0.58,0,0.86c0,0.43,0,0.859,0,1.29c0,0.42,0,0.85,0,1.279c0,0.431,0,0.86,0,1.29
	c0,0.28,0,0.57,0,0.851c-1.279,0-2.569,0-3.85,0c-0.29,0-0.58,0-0.86,0c0-0.851,0-1.71,0-2.57c0-0.71,0-1.43,0-2.14
	c0-0.86,0-1.71,0-2.57c0-0.43,0-0.86,0-1.28c0-0.29,0-0.58,0-0.859c0.86,0,1.71,0,2.57,0c0-0.86,0-1.71,0-2.57c0-0.43,0-0.86,0-1.29
	c0-0.28,0-0.57,0-0.85c0.28,0,0.57,0,0.86,0c0.42,0,0.85,0,1.279,0c0.86,0,1.71,0,2.57,0C18.84,32.55,18.84,31.699,18.84,30.84z"/>
<path fill="#211F30" d="M18.84,26.13c0,0.43,0,0.85,0,1.28c0,0.289,0,0.569,0,0.859c-0.43,0-0.86,0-1.28,0c-0.43,0-0.859,0-1.29,0
	c-0.43,0-0.859,0-1.279,0c-0.29,0-0.58,0-0.86,0c0-0.29,0-0.57,0-0.859c0-0.431,0-0.851,0-1.28c0.43,0,0.86,0,1.28,0
	c0.43,0,0.859,0,1.29,0c0.279,0,0.569,0,0.859,0C17.979,26.13,18.41,26.13,18.84,26.13z"/>
<path fill="#211F30" d="M18.84,5.569c0,0.431,0,0.86,0,1.28c-1.57,0-3.14,0-4.71,0c0-0.28,0-0.57,0-0.85c0-0.431,0-0.86,0-1.29
	c0.28,0,0.57,0,0.86,0c0.42,0,0.85,0,1.279,0c0.86,0,1.71,0,2.57,0C18.84,5,18.84,5.279,18.84,5.569z"/>
<path fill="#211F30" d="M14.13,6.85c0,0.86,0,1.72,0,2.57c-0.86,0-1.71,0-2.57,0c0-0.851,0-1.71,0-2.57
	C12.42,6.85,13.27,6.85,14.13,6.85z"/>
<path fill="#211F30" d="M14.13,28.27c0,0.86,0,1.71,0,2.57c-0.86,0-1.71,0-2.57,0c0-0.86,0-1.71,0-2.57
	C12.42,28.27,13.27,28.27,14.13,28.27z"/>
<path fill="#D98249" d="M14.13,30.84c0,0.859,0,1.71,0,2.57c-0.86,0-1.71,0-2.57,0c0-0.86,0-1.711,0-2.57
	C12.42,30.84,13.27,30.84,14.13,30.84z"/>
<path fill="#211F30" d="M14.13,34.26c0,0.43,0,0.86,0,1.29c0,0.86,0,1.71,0,2.57c-0.86,0-1.71,0-2.57,0c0-0.29,0-0.57,0-0.86
	c0-0.43,0-0.85,0-1.28c0-0.859,0-1.72,0-2.569c0.86,0,1.71,0,2.57,0C14.13,33.689,14.13,33.979,14.13,34.26z"/>
<path fill="#D6412C" d="M18.84,24.84c0,0.43,0,0.859,0,1.29c-0.43,0-0.86,0-1.28,0c-0.29,0-0.58,0-0.859,0c-0.431,0-0.86,0-1.29,0
	c-0.42,0-0.851,0-1.28,0c0,0.43,0,0.85,0,1.28c0,0.289,0,0.569,0,0.859c-0.86,0-1.71,0-2.57,0c0,0.86,0,1.71,0,2.57
	c-0.43,0-0.859,0-1.29,0c-0.279,0-0.569,0-0.85,0c0,0.859,0,1.71,0,2.57c-0.86,0-1.72,0-2.57,0c0,0.85,0,1.71,0,2.569
	c0,0.431,0,0.851,0,1.28c0,0.29,0,0.57,0,0.86c-0.43,0-0.859,0-1.29,0c-0.28,0-0.569,0-0.85,0c0,0.859,0,1.71,0,2.569
	c0,0.431,0,0.86,0,1.28c0,0.29,0,0.58,0,0.86c-0.86,0-1.72,0-2.57,0c0-0.431,0-0.86,0-1.28c0-0.29,0-0.58,0-0.86
	c0-0.43,0-0.859,0-1.29c0-0.279,0-0.569,0-0.85c0-0.43,0-0.86,0-1.29c0-0.28,0-0.57,0-0.85c0-0.431,0-0.86,0-1.29
	c0-0.28,0-0.57,0-0.86c0-0.42,0-0.85,0-1.28c0-0.29,0-0.569,0-0.859c0-0.421,0-0.86,0-1.28c0-0.29,0-0.57,0-0.86
	c0-1.29,0-2.569,0-3.85c0.851,0,1.71,0,2.57,0c0-1.29,0-2.57,0-3.86c0-1.14,0-2.28,0-3.42c0.43,0,0.85,0,1.28,0
	c0.289,0,0.569,0,0.859,0c0-0.86,0-1.72,0-2.57c0-0.43,0-0.859,0-1.29c0-0.279,0-0.569,0-0.85c0.851,0,1.71,0,2.57,0
	c0-0.43,0-0.86,0-1.29c0-0.29,0-0.57,0-0.86c0.43,0,0.85,0,1.28,0c0.29,0,0.569,0,0.859,0c0-0.85,0-1.71,0-2.569
	c0.86,0,1.71,0,2.57,0c0-0.851,0-1.71,0-2.57c1.57,0,3.14,0,4.71,0v2.57c0,0.859,0,1.72,0,2.569c-0.86,0-1.71,0-2.57,0
	c0,0.29,0,0.57,0,0.86c0,1.29,0,2.57,0,3.85v2.15c-1.569,0-3.14,0-4.71,0c0,0.42,0,0.85,0,1.28c0,0.569,0,1.14,0,1.71
	s0,1.149,0,1.72c0.28,0,0.57,0,0.86,0c1.28,0,2.57,0,3.85,0h2.57C18.84,23.989,18.84,24.41,18.84,24.84z"/>
<path fill="#D98249" d="M11.56,35.979c0,0.431,0,0.851,0,1.28c0,0.29,0,0.57,0,0.86c-0.29,0-0.569,0-0.859,0
	c-0.431,0-0.851,0-1.28,0c0-0.57,0-1.141,0-1.71c0-0.29,0-0.58,0-0.86c0-0.43,0-0.86,0-1.29c0-0.28,0-0.57,0-0.85
	c0.43,0,0.85,0,1.28,0c0.29,0,0.569,0,0.859,0C11.56,34.26,11.56,35.12,11.56,35.979z"/>
<path fill="#211F30" d="M10.7,9.42c0.29,0,0.569,0,0.859,0c0,0.859,0,1.72,0,2.569c-0.29,0-0.569,0-0.859,0c-0.431,0-0.851,0-1.28,0
	c0-0.85,0-1.71,0-2.569C9.85,9.42,10.27,9.42,10.7,9.42z"/>
<path fill="#211F30" d="M11.56,30.84c0,0.859,0,1.71,0,2.57c-0.29,0-0.569,0-0.859,0c-0.431,0-0.851,0-1.28,0c0-0.86,0-1.711,0-2.57
	c0.28,0,0.57,0,0.85,0C10.7,30.84,11.13,30.84,11.56,30.84z"/>
<path fill="#211F30" d="M9.42,11.989c0,0.29,0,0.57,0,0.86c0,0.43,0,0.86,0,1.29c-0.86,0-1.72,0-2.57,0c0-0.43,0-0.86,0-1.29
	c0-0.29,0-0.57,0-0.86C7.7,11.989,8.56,11.989,9.42,11.989z"/>
<path fill="#211F30" d="M6.85,33.41c0.851,0,1.71,0,2.57,0c0,0.279,0,0.569,0,0.85c0,0.43,0,0.86,0,1.29c0,0.28,0,0.57,0,0.86
	c0,0.569,0,1.14,0,1.71c-0.86,0-1.72,0-2.57,0c0-0.29,0-0.57,0-0.86c0-0.43,0-0.85,0-1.28C6.85,35.12,6.85,34.26,6.85,33.41z"/>
<path fill="#D98249" d="M9.42,45.399c0,0.71,0,1.431,0,2.141c-0.86,0-1.72,0-2.57,0c0-1.431,0-2.851,0-4.28c0-0.29,0-0.57,0-0.86
	c0-0.43,0-0.85,0-1.279c0-0.29,0-0.57,0-0.86c0-0.43,0-0.86,0-1.28c0-0.29,0-0.58,0-0.859c0.851,0,1.71,0,2.57,0
	c0,0.43,0,0.859,0,1.279c0,0.431,0,0.86,0,1.29c0,0.431,0,0.86,0,1.28c0,0.29,0,0.58,0,0.86c0,0.43,0,0.859,0,1.29
	C9.42,44.54,9.42,44.97,9.42,45.399z"/>
<path fill="#211F30" d="M16.27,47.54c5.57,0,11.141,0,16.7,0c1.29,0,2.57,0,3.86,0c1.43,0,2.85,0,4.279,0c2.86,0,5.71,0,8.57,0
	c0-1.141,0-2.28,0-3.42c0-0.58,0-1.15,0-1.721c0-0.279,0-0.569,0-0.85c0-0.43,0-0.86,0-1.29s0-0.86,0-1.28c0-0.29,0-0.58,0-0.859
	c0.85,0,1.71,0,2.57,0c0,0.859,0,1.71,0,2.569c0,0.431,0,0.86,0,1.28c0,0.29,0,0.58,0,0.86c0,0.859,0,1.71,0,2.569
	c0,0.71,0,1.431,0,2.141c0.279,0,0.569,0,0.85,0c0.43,0,0.86,0,1.29,0c0-0.851,0-1.71,0-2.57c0-0.71,0-1.43,0-2.14
	c0-0.86,0-1.71,0-2.57c0-0.43,0-0.86,0-1.28c0-0.29,0-0.58,0-0.859c0.86,0,1.71,0,2.57,0c0,0.279,0,0.569,0,0.859
	c0,0.42,0,0.851,0,1.28c0,0.86,0,1.71,0,2.57c0,0.71,0,1.43,0,2.14c0,0.86,0,1.72,0,2.57c3.14,0,6.28,0,9.42,0
	c0,0.43,0,0.859,0,1.279c0,0.29,0,0.58,0,0.86c-9.851,0-19.7,0-29.55,0c-5,0-10,0-14.99,0c-5,0-10,0-14.99,0c0-0.42,0-0.86,0-1.28
	c0-0.29,0-0.58,0-0.859c0.851,0,1.71,0,2.57,0c0-0.71,0-1.431,0-2.141c0-0.43,0-0.859,0-1.279c0-0.431,0-0.86,0-1.29
	c0-0.28,0-0.57,0-0.86c0-0.42,0-0.85,0-1.28c0-0.43,0-0.859,0-1.29c0-0.42,0-0.85,0-1.279c0.43,0,0.85,0,1.28,0
	c0.29,0,0.569,0,0.859,0c0,0.279,0,0.569,0,0.859c0,0.42,0,0.851,0,1.28c0,0.86,0,1.71,0,2.57c0,0.71,0,1.43,0,2.14
	c0,0.86,0,1.72,0,2.57c0.28,0,0.57,0,0.86,0C13.7,47.54,14.99,47.54,16.27,47.54z"/>
<path fill="#211F30" d="M4.71,17.989c0-0.43,0-0.859,0-1.29c0-0.42,0-0.85,0-1.279c0-0.431,0-0.86,0-1.28c0.43,0,0.85,0,1.28,0
	c0.289,0,0.569,0,0.859,0c0,0.28,0,0.57,0,0.85c0,0.431,0,0.86,0,1.29c0,0.851,0,1.71,0,2.57c-0.29,0-0.57,0-0.859,0
	c-0.431,0-0.851,0-1.28,0C4.71,18.56,4.71,18.27,4.71,17.989z"/>
<path fill="#211F30" d="M4.71,44.97c0-0.43,0-0.85,0-1.28c0-0.29,0-0.569,0-0.859c0-0.28,0-0.57,0-0.86c0-0.42,0-0.85,0-1.28
	c0-0.859,0-1.71,0-2.569c0.28,0,0.569,0,0.85,0c0.431,0,0.86,0,1.29,0c0,0.279,0,0.569,0,0.859c0,0.42,0,0.851,0,1.28
	c0,0.29,0,0.57,0,0.86c0,0.43,0,0.85,0,1.279c0,0.29,0,0.57,0,0.86c0,1.43,0,2.85,0,4.28c-1.57,0-3.14,0-4.71,0
	c0-0.851,0-1.71,0-2.57C2.99,44.97,3.85,44.97,4.71,44.97z"/>
<path fill="#211F30" d="M4.71,18.85c0,1.14,0,2.28,0,3.42c0,1.29,0,2.57,0,3.86c-0.86,0-1.72,0-2.57,0c0-2.431,0-4.86,0-7.28
	C2.99,18.85,3.85,18.85,4.71,18.85z"/>
<path fill="#A73123" d="M4.71,43.689c0,0.431,0,0.851,0,1.28c-0.86,0-1.72,0-2.57,0c0-0.28,0-0.57,0-0.85c0-0.431,0-0.86,0-1.29
	c0.851,0,1.71,0,2.57,0C4.71,43.12,4.71,43.399,4.71,43.689z"/>
<path fill="#211F30" d="M2.14,44.12c0,0.279,0,0.569,0,0.85c-0.29,0-0.57,0-0.86,0c-0.43,0-0.859,0-1.279,0c0-0.14,0-0.28,0-0.43
	c0-2.99,0-5.99,0-8.99c0-0.29,0-0.57,0-0.86c0-0.43,0-0.85,0-1.279c0-0.86,0-1.711,0-2.57c0-0.29,0-0.57,0-0.86
	c0-0.43,0-0.85,0-1.29c0-0.85,0-1.71,0-2.56c0.279,0,0.569,0,0.85,0c0.43,0,0.86,0,1.29,0c0,1.28,0,2.56,0,3.85
	c0,0.29,0,0.57,0,0.86c0,0.42,0,0.859,0,1.28c0,0.29,0,0.569,0,0.859c0,0.431,0,0.86,0,1.28c0,0.29,0,0.58,0,0.86
	c0,0.43,0,0.859,0,1.29c0,0.279,0,0.569,0,0.85c0,0.43,0,0.86,0,1.29c0,0.28,0,0.57,0,0.85c0,0.431,0,0.86,0,1.29
	c0,0.28,0,0.57,0,0.86c0,0.42,0,0.85,0,1.28C2.14,43.26,2.14,43.689,2.14,44.12z"/>
</svg>
