<?xml version="1.0" encoding="utf-8"?>
<!-- Generator: Adobe Illustrator 15.0.0, SVG Export Plug-In  -->
<!DOCTYPE svg PUBLIC "-//W3C//DTD SVG 1.1//EN" "http://www.w3.org/Graphics/SVG/1.1/DTD/svg11.dtd" [
	<!ENTITY ns_flows "http://ns.adobe.com/Flows/1.0/">
]>
<svg version="1.1"
	 xmlns="http://www.w3.org/2000/svg" xmlns:xlink="http://www.w3.org/1999/xlink" xmlns:a="http://ns.adobe.com/AdobeSVGViewerExtensions/3.0/"
	 x="0px" y="0px" width="110px" height="70px" viewBox="-17.3 -22.46 110 70" enable-background="new -17.3 -22.46 110 70"
	 xml:space="preserve">
<defs>
</defs>
<path fill="#34343D" d="M21.42,35.98c0-0.86,0-1.71,0-2.57c0.141,0,0.28,0,0.431,0c1.42,0,2.85,0,4.279,0c1.141,0,2.28,0,3.431,0
	c1.279,0,2.56,0,3.85,0c0.29,0,0.57,0,0.86,0c0.43,0,0.85,0,1.279,0c0.86,0,1.721,0,2.57,0c0.29,0,0.57,0,0.86,0
	c0.43,0,0.859,0,1.279,0c0.86,0,1.721,0,2.57,0c0,0.86,0,1.71,0,2.57c0.86,0,1.72,0,2.57,0c0.43,0,0.859,0,1.29,0
	c0.279,0,0.569,0,0.85,0c0,0.43,0,0.859,0,1.279c0,0.29,0,0.57,0,0.86c0,0.86,0,1.71,0,2.57c0.86,0,1.72,0,2.57,0
	c0,1.569,0,3.14,0,4.71c-3.141,0-6.28,0-9.42,0c-0.851,0-1.71,0-2.57,0c0-0.851,0-1.71,0-2.57c-0.85,0-1.71,0-2.57,0
	c-0.43,0-0.85,0-1.279,0c-0.29,0-0.57,0-0.86,0c0,0.86,0,1.72,0,2.57c-0.86,0-1.71,0-2.57,0c-0.43,0-0.859,0-1.279,0
	c-0.29,0-0.58,0-0.86,0c-0.86,0-1.71,0-2.57,0c0-0.851,0-1.71,0-2.57c-0.859,0-1.71,0-2.569,0c-0.431,0-0.86,0-1.29,0
	c-0.28,0-0.57,0-0.851,0c0,0.86,0,1.72,0,2.57c-0.43,0-0.859,0-1.29,0c-0.279,0-0.569,0-0.85,0c-0.86,0-1.72,0-2.57,0
	c0-2.42,0-4.851,0-7.28c0.851,0,1.71,0,2.57,0c0-0.29,0-0.57,0-0.86c0-0.42,0-0.85,0-1.279c0.14,0,0.28,0,0.42,0
	C20.28,35.98,20.851,35.98,21.42,35.98z"/>
<path fill="#211F30" d="M73.67,27.41c0,0.43,0,0.86,0,1.29c0,0.42,0,0.859,0,1.28c0,0.43,0,0.859,0,1.29c0,0.279,0,0.569,0,0.85
	c0,0.43,0,0.86,0,1.29s0,0.86,0,1.28c0,0.43,0,0.859,0,1.29c0,0.279,0,0.569,0,0.859c0,0.42,0,0.851,0,1.28s0,0.86,0,1.29
	c0,0.42,0,0.85,0,1.28c0,0.29,0,0.569,0,0.859c0,0.431,0,0.851,0,1.28s0,0.86,0,1.29s0,0.85,0,1.28c-0.29,0-0.569,0-0.859,0
	c-0.42,0-0.851,0-1.28,0c0-0.71,0-1.431,0-2.141c0-0.859,0-1.71,0-2.569c0-0.28,0-0.57,0-0.86c0-0.42,0-0.85,0-1.28
	c0-0.859,0-1.71,0-2.569c0-3.28,0-6.57,0-9.851c0.28,0,0.57,0,0.86,0c0.42,0,0.85,0,1.279,0C73.67,26.55,73.67,26.99,73.67,27.41z"
	/>
<path fill="#211F30" d="M71.53,19.28c0,2.279,0,4.56,0,6.85c-0.86,0-1.71,0-2.57,0c0-2.29,0-4.57,0-6.85
	C69.82,19.28,70.67,19.28,71.53,19.28z"/>
<path fill="#211F30" d="M68.96,16.71c0,0.85,0,1.71,0,2.57c-0.29,0-0.569,0-0.859,0c-0.431,0-0.851,0-1.28,0c0-1.57,0-3.15,0-4.721
	c0.43,0,0.85,0,1.28,0c0.29,0,0.569,0,0.859,0C68.96,15.28,68.96,15.99,68.96,16.71z"/>
<path fill="#211F30" d="M66.82,12c0,0.85,0,1.71,0,2.56c-0.86,0-1.72,0-2.57,0c0-0.85,0-1.71,0-2.56C65.101,12,65.96,12,66.82,12z"
	/>
<path fill="#A73123" d="M61.681,33.41c0.85,0,1.71,0,2.569,0c0,0.14,0,0.28,0,0.43c0,0.141,0,0.28,0,0.431c0,0.569,0,1.14,0,1.71
	c0,0.279,0,0.569,0,0.859c0,0.42,0,0.851,0,1.28c-0.43,0-0.859,0-1.29,0c-1.14,0-2.279,0-3.42,0c0-1.57,0-3.14,0-4.71
	c0.28,0,0.57,0,0.851,0C60.82,33.41,61.25,33.41,61.681,33.41z"/>
<path fill="#A73123" d="M64.25,28.7c0,0.859,0,1.71,0,2.57c-0.29,0-0.569,0-0.859,0c-0.431,0-0.86,0-1.28,0c0-0.86,0-1.711,0-2.57
	c0.42,0,0.85,0,1.28,0C63.681,28.7,63.96,28.7,64.25,28.7z"/>
<path fill="#211F30" d="M64.25,10.71c0,0.43,0,0.86,0,1.29c-0.29,0-0.569,0-0.859,0c-0.431,0-0.86,0-1.28,0c0-0.29,0-0.58,0-0.86
	c0-0.43,0-0.859,0-1.29c0.42,0,0.85,0,1.28,0c0.29,0,0.569,0,0.859,0C64.25,10.14,64.25,10.42,64.25,10.71z"/>
<path fill="#211F30" d="M59.54,7.28c0.851,0,1.71,0,2.57,0c0,0.859,0,1.72,0,2.569c-0.86,0-1.72,0-2.57,0
	C59.54,9,59.54,8.14,59.54,7.28z"/>
<path fill="#A73123" d="M60.391,42.83c1.29,0,2.569,0,3.859,0c0-0.28,0-0.57,0-0.85c0-0.431,0-0.86,0-1.29c0.851,0,1.71,0,2.57,0
	c0-0.28,0-0.57,0-0.86c0-1.28,0-2.57,0-3.85c0.28,0,0.57,0,0.85,0c0.431,0,0.86,0,1.29,0c0-1.57,0-3.141,0-4.71
	c0-0.431,0-0.86,0-1.29c0-0.421,0-0.86,0-1.28c0-0.86,0-1.71,0-2.57c0.86,0,1.71,0,2.57,0c0,3.28,0,6.57,0,9.851
	c0,0.859,0,1.71,0,2.569c0,0.431,0,0.86,0,1.28c0,0.29,0,0.58,0,0.86c0,0.859,0,1.71,0,2.569c0,0.71,0,1.431,0,2.141
	c-4.86,0-9.71,0-14.561,0c0-1.28,0-2.57,0-3.851c0-1.14,0-2.29,0-3.43c0.851,0,1.711,0,2.57,0c0,0.29,0,0.57,0,0.86
	c0,0.43,0,0.85,0,1.279c0,0.86,0,1.721,0,2.57C59.82,42.83,60.11,42.83,60.391,42.83z"/>
<path fill="#A73123" d="M56.97,35.98c0,0.279,0,0.569,0,0.859c0,0.42,0,0.851,0,1.28c-0.289,0-0.569,0-0.859,0
	c-0.43,0-0.86,0-1.29,0c0-1.57,0-3.14,0-4.71c0.29,0,0.58,0,0.86,0c0.43,0,0.859,0,1.289,0c0,0.43,0,0.86,0,1.28
	C56.97,35.12,56.97,35.55,56.97,35.98z"/>
<path fill="#211F30" d="M56.97,4.71c0.851,0,1.711,0,2.57,0c0,0.86,0,1.72,0,2.57c-0.29,0-0.58,0-0.859,0c-0.431,0-0.86,0-1.28,0
	c-0.86,0-1.72,0-2.58,0c0-0.851,0-1.71,0-2.57c0.29,0,0.58,0,0.86,0C56.11,4.71,56.54,4.71,56.97,4.71z"/>
<path fill="#A73123" d="M54.82,31.271c0,0.279,0,0.569,0,0.85c0,0.43,0,0.86,0,1.29c-0.851,0-1.71,0-2.561,0c0-0.43,0-0.86,0-1.29
	c0-0.28,0-0.57,0-0.85C53.11,31.271,53.97,31.271,54.82,31.271z"/>
<path fill="#211F30" d="M54.82,33.41c0,1.57,0,3.14,0,4.71c-0.851,0-1.71,0-2.561,0c0-1.57,0-3.14,0-4.71
	C53.11,33.41,53.97,33.41,54.82,33.41z"/>
<path fill="#D98249" d="M54.82,41.55c0,1.28,0,2.57,0,3.851c-0.57,0-1.14,0-1.71,0c-0.28,0-0.57,0-0.851,0c0-2.42,0-4.851,0-7.28
	c0.851,0,1.71,0,2.561,0C54.82,39.26,54.82,40.41,54.82,41.55z"/>
<path fill="#211F30" d="M52.26,31.271c0,0.279,0,0.569,0,0.85c0,0.43,0,0.86,0,1.29c-0.29,0-0.579,0-0.859,0c-0.431,0-0.86,0-1.29,0
	c0-0.43,0-0.86,0-1.29c0-0.28,0-0.57,0-0.85c0.43,0,0.859,0,1.29,0C51.681,31.271,51.97,31.271,52.26,31.271z"/>
<path fill="#D98249" d="M52.26,33.41c0,1.57,0,3.14,0,4.71c-0.29,0-0.579,0-0.859,0c-0.431,0-0.86,0-1.29,0c0-1.57,0-3.14,0-4.71
	c0.43,0,0.859,0,1.29,0C51.681,33.41,51.97,33.41,52.26,33.41z"/>
<path fill="#211F30" d="M54.82,3.43c0,0.431,0,0.86,0,1.28c-2.42,0-4.851,0-7.28,0c0-0.28,0-0.57,0-0.85c0-0.431,0-0.86,0-1.29
	c1.15,0,2.29,0,3.43,0c1.29,0,2.57,0,3.851,0C54.82,2.86,54.82,3.14,54.82,3.43z"/>
<path fill="#A73123" d="M52.26,28.7c0,0.859,0,1.71,0,2.57c-0.29,0-0.579,0-0.859,0c-0.431,0-0.86,0-1.29,0c0-0.86,0-1.711,0-2.57
	c0.29,0,0.57,0,0.859,0C51.4,28.7,51.83,28.7,52.26,28.7z"/>
<path fill="#A73123" d="M50.11,26.13c0,0.86,0,1.71,0,2.57c-0.851,0-1.71,0-2.57,0c0-0.86,0-1.71,0-2.57
	C48.4,26.13,49.26,26.13,50.11,26.13z"/>
<path fill="#211F30" d="M50.11,28.7c0,0.859,0,1.71,0,2.57c-0.851,0-1.71,0-2.57,0c0-0.86,0-1.711,0-2.57
	C48.4,28.7,49.26,28.7,50.11,28.7z"/>
<path fill="#D98249" d="M50.11,32.12c0,0.43,0,0.86,0,1.29c-0.851,0-1.71,0-2.57,0c0-0.43,0-0.86,0-1.29c0-0.28,0-0.57,0-0.85
	c0.86,0,1.72,0,2.57,0C50.11,31.55,50.11,31.84,50.11,32.12z"/>
<path fill="#211F30" d="M47.54,33.41c0.86,0,1.72,0,2.57,0c0,1.57,0,3.14,0,4.71c-0.851,0-1.71,0-2.57,0c0-0.29,0-0.57,0-0.86
	c0-0.42,0-0.85,0-1.279C47.54,35.12,47.54,34.271,47.54,33.41z"/>
<path fill="#34343D" d="M50.11,38.12c0,0.86,0,1.71,0,2.57c-0.851,0-1.71,0-2.57,0c0-0.86,0-1.71,0-2.57
	C48.4,38.12,49.26,38.12,50.11,38.12z"/>
<path fill="#211F30" d="M47.54,2.57c-7.85,0-15.7,0-23.55,0c0-0.431,0-0.851,0-1.28s0-0.86,0-1.29c7.85,0,15.7,0,23.55,0
	C47.54,0.86,47.54,1.72,47.54,2.57z"/>
<path fill="#D98249" d="M44.97,28.7c0.86,0,1.721,0,2.57,0c0,0.859,0,1.71,0,2.57c-0.85,0-1.71,0-2.57,0c-0.42,0-0.85,0-1.279,0
	c-0.29,0-0.57,0-0.86,0c0-0.86,0-1.711,0-2.57c0.29,0,0.57,0,0.86,0C44.12,28.7,44.55,28.7,44.97,28.7z"/>
<path fill="#211F30" d="M44.97,31.271c0.86,0,1.721,0,2.57,0c0,0.279,0,0.569,0,0.85c0,0.43,0,0.86,0,1.29c-0.85,0-1.71,0-2.57,0
	c-0.42,0-0.85,0-1.279,0c-0.29,0-0.57,0-0.86,0c0-0.43,0-0.86,0-1.29c0-0.28,0-0.57,0-0.85c0.29,0,0.57,0,0.86,0
	C44.12,31.271,44.55,31.271,44.97,31.271z"/>
<path fill="#A73123" d="M45.4,23.99c0,0.28,0,0.569,0,0.85c0,0.431,0,0.86,0,1.29c-0.851,0-1.71,0-2.57,0c0-0.29,0-0.57,0-0.859
	c0-0.431,0-0.851,0-1.28C43.69,23.99,44.55,23.99,45.4,23.99z"/>
<path fill="#34343D" d="M44.97,33.41c0.86,0,1.721,0,2.57,0c0,0.86,0,1.71,0,2.57c-0.28,0-0.57,0-0.85,0c-0.431,0-0.86,0-1.29,0
	c-0.851,0-1.71,0-2.57,0c0-0.86,0-1.71,0-2.57c0.29,0,0.57,0,0.86,0C44.12,33.41,44.55,33.41,44.97,33.41z"/>
<path fill="#211F30" d="M46.26,26.13c0.431,0,0.86,0,1.28,0c0,0.86,0,1.71,0,2.57c-0.85,0-1.71,0-2.57,0c-0.42,0-0.85,0-1.279,0
	c-0.29,0-0.57,0-0.86,0c0-0.86,0-1.71,0-2.57c0.86,0,1.72,0,2.57,0C45.69,26.13,45.97,26.13,46.26,26.13z"/>
<path fill="#211F30" d="M42.83,28.7c0,0.859,0,1.71,0,2.57c-7.85,0-15.7,0-23.55,0c0-0.86,0-1.711,0-2.57
	C27.13,28.7,34.98,28.7,42.83,28.7z"/>
<path fill="#D98249" d="M42.83,28.7c-7.85,0-15.7,0-23.55,0c0-0.86,0-1.71,0-2.57c7.85,0,15.7,0,23.55,0
	C42.83,26.99,42.83,27.84,42.83,28.7z"/>
<path fill="#211F30" d="M42.83,26.13c-7.85,0-15.7,0-23.55,0c0-0.29,0-0.57,0-0.859c0-0.431,0-0.851,0-1.28c7.85,0,15.7,0,23.55,0
	c0,0.43,0,0.85,0,1.28C42.83,25.56,42.83,25.84,42.83,26.13z"/>
<path fill="#3A160D" d="M30.84,12c0,0.85,0,1.71,0,2.56c-0.29,0-0.569,0-0.859,0c-0.42,0-0.851,0-1.28,0c0-0.85,0-1.71,0-2.56
	c0.43,0,0.86,0,1.28,0C30.271,12,30.55,12,30.84,12z"/>
<path fill="#3A160D" d="M23.99,19.28c-1.29,0-2.57,0-3.86,0c-0.279,0-0.569,0-0.85,0c0-0.431,0-0.86,0-1.29c0-0.431,0-0.86,0-1.28
	c-0.43,0-0.86,0-1.29,0s-0.86,0-1.28,0c0-1.58,0-3.15,0-4.71c0.851,0,1.71,0,2.57,0c0-0.29,0-0.58,0-0.86c0-0.29,0-0.569,0-0.859
	c0-0.061-0.04-0.38,0-0.431c0.01-0.02,0.04-0.02,0.07-0.02c0.109,0,0.29,0.07,0.35,0.02c1.15,0,2.29,0,3.43,0c0.29,0,0.57,0,0.86,0
	c0,0.431,0,0.86,0,1.29c0,0.28,0,0.57,0,0.86c0.43,0,0.85,0,1.28,0c0.29,0,0.569,0,0.859,0c0,0.42,0,0.85,0,1.28
	c0,0.279,0,0.569,0,0.859c0,0.57,0,1.141,0,1.71c0,0.28,0,0.57,0,0.86c-0.43,0-0.859,0-1.29,0c-0.279,0-0.569,0-0.85,0
	c0,0.42,0,0.85,0,1.28C23.99,18.42,23.99,18.85,23.99,19.28z"/>
<path fill="#D6412C" d="M64.25,31.271c0-0.86,0-1.711,0-2.57c-0.29,0-0.569,0-0.859,0c-0.431,0-0.86,0-1.28,0c0,0.859,0,1.71,0,2.57
	c0.42,0,0.85,0,1.28,0C63.681,31.271,63.96,31.271,64.25,31.271z M30.84,14.56c0-0.85,0-1.71,0-2.56c-0.29,0-0.569,0-0.859,0
	c-0.42,0-0.851,0-1.28,0c0,0.85,0,1.71,0,2.56c0.43,0,0.86,0,1.28,0C30.271,14.56,30.55,14.56,30.84,14.56z M21.42,4.71
	c0.851,0,1.71,0,2.57,0c0-0.28,0-0.57,0-0.85c0-0.431,0-0.86,0-1.29c7.85,0,15.7,0,23.55,0c0,0.43,0,0.859,0,1.29
	c0,0.279,0,0.569,0,0.85c2.43,0,4.86,0,7.28,0c0,0.86,0,1.72,0,2.57c0.86,0,1.72,0,2.58,0c0.42,0,0.85,0,1.28,0
	c0.279,0,0.569,0,0.859,0c0,0.859,0,1.72,0,2.569c0.851,0,1.71,0,2.57,0c0,0.431,0,0.86,0,1.29c0,0.28,0,0.57,0,0.86
	c0.42,0,0.85,0,1.28,0c0.29,0,0.569,0,0.859,0c0,0.85,0,1.71,0,2.56c0.851,0,1.71,0,2.57,0c0,1.57,0,3.15,0,4.721
	c0.43,0,0.85,0,1.28,0c0.29,0,0.569,0,0.859,0c0,2.279,0,4.56,0,6.85c0,0.86,0,1.71,0,2.57c0,0.42,0,0.859,0,1.28
	c0,0.43,0,0.859,0,1.29c0,1.569,0,3.14,0,4.71c-0.43,0-0.859,0-1.29,0c-0.279,0-0.569,0-0.85,0c0,1.279,0,2.569,0,3.85
	c0,0.29,0,0.58,0,0.86c-0.86,0-1.72,0-2.57,0c0,0.43,0,0.859,0,1.29c0,0.279,0,0.569,0,0.85c-1.29,0-2.569,0-3.859,0
	c-0.28,0-0.57,0-0.851,0c0-0.85,0-1.71,0-2.57c0-0.43,0-0.85,0-1.279c0-0.29,0-0.57,0-0.86c1.141,0,2.28,0,3.42,0
	c0.431,0,0.86,0,1.29,0c0-0.43,0-0.86,0-1.28c0-0.29,0-0.58,0-0.859c0-0.57,0-1.141,0-1.71c0-0.15,0-0.29,0-0.431
	c0-0.149,0-0.29,0-0.43c-0.859,0-1.72,0-2.569,0c-0.431,0-0.86,0-1.29,0c-0.28,0-0.57,0-0.851,0c0,1.57,0,3.14,0,4.71
	c-0.859,0-1.72,0-2.57,0c0-0.43,0-0.86,0-1.28c0-0.29,0-0.58,0-0.859c0-0.431,0-0.86,0-1.29c0-0.42,0-0.851,0-1.28
	c-0.43,0-0.859,0-1.289,0c-0.28,0-0.57,0-0.86,0c0-0.43,0-0.86,0-1.29c0-0.28,0-0.57,0-0.85c-0.851,0-1.71,0-2.561,0
	c0-0.86,0-1.711,0-2.57c-0.43,0-0.859,0-1.29,0c-0.289,0-0.569,0-0.859,0c0-0.86,0-1.71,0-2.57c-0.851,0-1.71,0-2.57,0
	c-0.42,0-0.85,0-1.28,0c-0.29,0-0.569,0-0.859,0c0-0.43,0-0.859,0-1.29c0-0.28,0-0.569,0-0.85c-0.851,0-1.71,0-2.57,0
	c-7.85,0-15.7,0-23.55,0c0,0.43,0,0.85,0,1.28c0,0.289,0,0.569,0,0.859c-1.72,0-3.43,0-5.14,0v-2.14c0.859,0,1.71,0,2.569,0
	c0-1.57,0-3.141,0-4.71h2.57c0.28,0,0.57,0,0.85,0c1.29,0,2.57,0,3.86,0c0-0.431,0-0.86,0-1.29c0-0.431,0-0.86,0-1.28
	c0.28,0,0.57,0,0.85,0c0.431,0,0.86,0,1.29,0c0-0.29,0-0.58,0-0.86c0-0.569,0-1.14,0-1.71c0-0.29,0-0.58,0-0.859
	c0-0.431,0-0.86,0-1.28c-0.29,0-0.569,0-0.859,0c-0.431,0-0.851,0-1.28,0c0-0.29,0-0.58,0-0.86c0-0.43,0-0.859,0-1.29
	c-0.29,0-0.57,0-0.86,0c-1.14,0-2.279,0-3.43,0c-0.06,0.051-0.24-0.02-0.35-0.02l-0.07-2.55c0-0.851,0-1.71,0-2.57
	c0.28,0,0.57,0,0.85,0C20.561,4.71,20.99,4.71,21.42,4.71z"/>
<path fill="#211F30" d="M23.99,4.71c-0.86,0-1.72,0-2.57,0c-0.43,0-0.859,0-1.29,0c-0.279,0-0.569,0-0.85,0c0-0.28,0-0.57,0-0.85
	c0-0.431,0-0.86,0-1.29c0.42,0,0.85,0,1.28,0c0.43,0,0.859,0,1.29,0c0.279,0,0.569,0,0.85,0c0.43,0,0.86,0,1.29,0
	c0,0.43,0,0.859,0,1.29C23.99,4.14,23.99,4.43,23.99,4.71z"/>
<path fill="#211F30" d="M19.28,32.55c0,0.29,0,0.57,0,0.86c-1.72,0-3.43,0-5.14,0c0-0.43,0-0.86,0-1.29c0-0.28,0-0.57,0-0.85
	c1.71,0,3.42,0,5.14,0C19.28,31.7,19.28,32.12,19.28,32.55z"/>
<path fill="#D98249" d="M19.28,28.7c0,0.859,0,1.71,0,2.57c-1.72,0-3.43,0-5.14,0c0-0.86,0-1.711,0-2.57
	C15.851,28.7,17.561,28.7,19.28,28.7z"/>
<path fill="#211F30" d="M19.28,26.13c0,0.86,0,1.71,0,2.57c-1.72,0-3.43,0-5.14,0c0-0.86,0-1.71,0-2.57
	C15.851,26.13,17.561,26.13,19.28,26.13z"/>
<path fill="#211F30" d="M19.28,4.71c0,0.86,0,1.72,0,2.57c-1.72,0-3.43,0-5.14,0c0-0.851,0-1.71,0-2.57
	C15.851,4.71,17.561,4.71,19.28,4.71z"/>
<path fill="#3A160D" d="M16.71,19.28c0,1.569,0,3.14,0,4.71c-0.859,0-1.71,0-2.569,0c-0.431,0-0.86,0-1.29,0c-0.28,0-0.57,0-0.86,0
	c0-1.15,0-2.29,0-3.431c0-0.43,0-0.859,0-1.279C13.57,19.28,15.141,19.28,16.71,19.28z"/>
<path fill="#D6412C" d="M9.431,32.55c0,0.29,0,0.57,0,0.86c-0.431,0-0.86,0-1.29,0c-0.28,0-0.57,0-0.86,0c0,1.57,0,3.14,0,4.71
	c-0.85,0-1.71,0-2.57,0c0,0.86,0,1.71,0,2.57c0,0.71,0,1.43,0,2.14c-0.279,0-0.569,0-0.85,0c-0.43,0-0.86,0-1.29,0
	c0-2.85,0-5.71,0-8.56c0-0.431,0-0.86,0-1.29c0-0.28,0-0.57,0-0.86c0-0.42,0-0.85,0-1.28c0-0.29,0-0.569,0-0.859
	c0-1.28,0-2.57,0-3.851c0.43,0,0.86,0,1.29,0c0.28,0,0.57,0,0.85,0c0-2.29,0-4.57,0-6.85c0.86,0,1.721,0,2.57,0
	c0-0.86,0-1.721,0-2.57c0-0.72,0-1.43,0-2.15c0.43,0,0.86,0,1.29,0c0.28,0,0.57,0,0.86,0c0-0.85,0-1.71,0-2.56c0.85,0,1.71,0,2.56,0
	c0-0.43,0-0.86,0-1.29c0-0.29,0-0.57,0-0.86c0.43,0,0.86,0,1.29,0c0.29,0,0.57,0,0.86,0c0-0.85,0-1.71,0-2.569c1.71,0,3.42,0,5.14,0
	l0.07,2.55c-0.03,0-0.061,0-0.07,0.02c-0.04,0.051,0,0.37,0,0.431c0,0.29,0,0.569,0,0.859c0,0.28,0,0.57,0,0.86
	c-0.86,0-1.72,0-2.57,0c0,1.56,0,3.13,0,4.71c0.42,0,0.851,0,1.28,0s0.86,0,1.29,0c0,0.42,0,0.85,0,1.28c0,0.43,0,0.859,0,1.29
	h-2.57c-1.569,0-3.14,0-4.72,0c0,0.42,0,0.85,0,1.279c0,1.141,0,2.28,0,3.431c0.29,0,0.58,0,0.86,0c0.43,0,0.859,0,1.29,0v2.14
	c0,0.86,0,1.71,0,2.57c-0.431,0-0.86,0-1.29,0c-0.28,0-0.57,0-0.86,0c0,0.859,0,1.71,0,2.57c-0.85,0-1.71,0-2.56,0
	C9.431,31.7,9.431,32.12,9.431,32.55z"/>
<path fill="#D98249" d="M14.141,31.271c0,0.279,0,0.569,0,0.85c0,0.43,0,0.86,0,1.29c-0.29,0-0.57,0-0.86,0c-0.43,0-0.86,0-1.29,0
	c0-0.29,0-0.57,0-0.86c0-0.43,0-0.85,0-1.279c0.43,0,0.86,0,1.29,0C13.57,31.271,13.851,31.271,14.141,31.271z"/>
<path fill="#211F30" d="M14.141,33.41c0,0.28,0,0.57,0,0.86c0,0.42,0,0.85,0,1.279c0,0.86,0,1.71,0,2.57c-0.29,0-0.57,0-0.86,0
	c-0.43,0-0.86,0-1.29,0c0-1.57,0-3.14,0-4.71c0.43,0,0.86,0,1.29,0C13.57,33.41,13.851,33.41,14.141,33.41z"/>
<path fill="#34343D" d="M21.851,33.41c-0.15,0-0.29,0-0.431,0c0,0.86,0,1.71,0,2.57c-0.569,0-1.14,0-1.72,0c-0.14,0-0.28,0-0.42,0
	c0,0.43,0,0.859,0,1.279c0,0.29,0,0.57,0,0.86c-0.86,0-1.72,0-2.57,0c0,2.43,0,4.86,0,7.28c-1.29,0-2.569,0-3.859,0
	c-0.28,0-0.57,0-0.86,0c0-1.28,0-2.57,0-3.851c0-1.14,0-2.29,0-3.43c0.43,0,0.86,0,1.29,0c0.29,0,0.57,0,0.86,0
	c0-0.86,0-1.71,0-2.57c0-0.43,0-0.859,0-1.279c0-0.29,0-0.58,0-0.86c1.71,0,3.42,0,5.14,0c0-0.29,0-0.57,0-0.86
	c0-0.43,0-0.85,0-1.279c7.85,0,15.7,0,23.55,0c0,0.279,0,0.569,0,0.85c0,0.43,0,0.86,0,1.29c-0.85,0-1.71,0-2.57,0
	c-0.42,0-0.85,0-1.279,0c-0.29,0-0.57,0-0.86,0c-0.85,0-1.71,0-2.57,0c-0.43,0-0.85,0-1.279,0c-0.29,0-0.57,0-0.86,0
	c-1.29,0-2.57,0-3.85,0c-1.15,0-2.29,0-3.431,0C24.7,33.41,23.271,33.41,21.851,33.41z"/>
<path fill="#211F30" d="M13.28,7.28c0.29,0,0.57,0,0.86,0c0,0.859,0,1.72,0,2.569c-0.29,0-0.57,0-0.86,0c-0.43,0-0.86,0-1.29,0
	c0-0.85,0-1.71,0-2.569C12.42,7.28,12.851,7.28,13.28,7.28z"/>
<path fill="#211F30" d="M14.141,28.7c0,0.859,0,1.71,0,2.57c-0.29,0-0.57,0-0.86,0c-0.43,0-0.86,0-1.29,0c0-0.86,0-1.711,0-2.57
	c0.29,0,0.58,0,0.86,0C13.28,28.7,13.71,28.7,14.141,28.7z"/>
<path fill="#211F30" d="M9.431,12c0-0.43,0-0.86,0-1.29c0-0.29,0-0.57,0-0.86c0.85,0,1.71,0,2.56,0c0,0.29,0,0.57,0,0.86
	c0,0.43,0,0.86,0,1.29C11.141,12,10.28,12,9.431,12z"/>
<path fill="#211F30" d="M9.431,33.41c0-0.29,0-0.57,0-0.86c0-0.43,0-0.85,0-1.279c0.85,0,1.71,0,2.56,0c0,0.43,0,0.85,0,1.279
	c0,0.29,0,0.57,0,0.86C11.141,33.41,10.28,33.41,9.431,33.41z"/>
<path fill="#D98249" d="M9.431,33.41c0.85,0,1.71,0,2.56,0c0,1.57,0,3.14,0,4.71c-0.85,0-1.71,0-2.56,0
	C9.431,36.55,9.431,34.98,9.431,33.41z"/>
<path fill="#211F30" d="M9.431,33.41c0,1.57,0,3.14,0,4.71c-0.29,0-0.58,0-0.86,0c-0.43,0-0.86,0-1.29,0c0-1.57,0-3.14,0-4.71
	c0.29,0,0.58,0,0.86,0C8.57,33.41,9,33.41,9.431,33.41z"/>
<path fill="#D98249" d="M9.431,38.12c0,1,0,2,0,3s0,2,0,3c0,0.43,0,0.85,0,1.28c-0.29,0-0.58,0-0.86,0c-0.43,0-0.86,0-1.29,0
	c0-0.431,0-0.851,0-1.28c0-2,0-4,0-6c0.43,0,0.86,0,1.29,0C8.851,38.12,9.141,38.12,9.431,38.12z"/>
<path fill="#211F30" d="M8.57,12c0.28,0,0.57,0,0.86,0c0,0.85,0,1.71,0,2.56c-0.29,0-0.58,0-0.86,0c-0.43,0-0.86,0-1.29,0
	c0-0.85,0-1.71,0-2.56C7.71,12,8.141,12,8.57,12z"/>
<path fill="#211F30" d="M7.28,14.56c0,0.721,0,1.431,0,2.15c0,0.85,0,1.71,0,2.57c-0.85,0-1.71,0-2.57,0c0-1.57,0-3.15,0-4.721
	C5.57,14.56,6.431,14.56,7.28,14.56z"/>
<path fill="#211F30" d="M4.71,19.28c0,2.279,0,4.56,0,6.85c-0.279,0-0.569,0-0.85,0c-0.43,0-0.86,0-1.29,0c0-2.29,0-4.57,0-6.85
	c0.29,0,0.57,0,0.86,0C3.86,19.28,4.29,19.28,4.71,19.28z"/>
<path fill="#A73123" d="M4.71,42.83c0,0.86,0,1.72,0,2.57c-0.279,0-0.569,0-0.85,0c-0.43,0-0.86,0-1.29,0c0-0.851,0-1.71,0-2.57
	c0.43,0,0.86,0,1.29,0C4.141,42.83,4.431,42.83,4.71,42.83z"/>
<path fill="#211F30" d="M9.431,45.4c0-0.431,0-0.851,0-1.28c0-1,0-2,0-3s0-2,0-3c0.85,0,1.71,0,2.56,0c0,1.14,0,2.29,0,3.43
	c0,1.28,0,2.57,0,3.851c0.29,0,0.58,0,0.86,0c1.29,0,2.569,0,3.859,0c0.851,0,1.71,0,2.57,0c0.28,0,0.57,0,0.85,0
	c0.431,0,0.86,0,1.29,0c0-0.851,0-1.71,0-2.57c0.28,0,0.57,0,0.851,0c0.43,0,0.859,0,1.29,0c0.859,0,1.71,0,2.569,0
	c0,0.86,0,1.72,0,2.57c0.86,0,1.71,0,2.57,0c0.28,0,0.57,0,0.86,0c0.42,0,0.85,0,1.279,0c0.86,0,1.71,0,2.57,0
	c0-0.851,0-1.71,0-2.57c0.29,0,0.57,0,0.86,0c0.43,0,0.85,0,1.279,0c0.86,0,1.721,0,2.57,0c0,0.86,0,1.72,0,2.57
	c0.86,0,1.72,0,2.57,0c3.14,0,6.279,0,9.42,0c0-1.57,0-3.141,0-4.71c0-0.86,0-1.71,0-2.57c0.43,0,0.859,0,1.29,0
	c0.28,0,0.569,0,0.859,0c0,2.43,0,4.86,0,7.28c0.28,0,0.57,0,0.851,0c0.57,0,1.14,0,1.71,0c0-1.28,0-2.57,0-3.851
	c0-1.14,0-2.29,0-3.43c0.43,0,0.86,0,1.29,0c0.29,0,0.57,0,0.859,0c0,1.14,0,2.29,0,3.43c0,1.28,0,2.57,0,3.851
	c4.851,0,9.7,0,14.561,0c0,0.569,0,1.14,0,1.72c0,0.14,0,0.28,0,0.42c-2.86,0-5.71,0-8.57,0c-2.85,0-5.71,0-8.56,0
	c-2.86,0-5.71,0-8.57,0c-2.85,0-5.71,0-8.56,0c-5.71,0-11.431,0-17.141,0c-5.85,0-11.699,0-17.56,0c0-0.28,0-0.57,0-0.86
	c0-0.42,0-0.85,0-1.279c0.43,0,0.86,0,1.29,0c0.28,0,0.57,0,0.85,0c0-0.851,0-1.71,0-2.57c0-0.71,0-1.43,0-2.14
	c0-0.86,0-1.71,0-2.57c0.86,0,1.721,0,2.57,0c0,2,0,4,0,6c0,0.43,0,0.85,0,1.28c0.43,0,0.86,0,1.29,0
	C8.851,45.4,9.141,45.4,9.431,45.4z"/>
<path fill="#211F30" d="M2.57,42.83c0,0.86,0,1.72,0,2.57c-0.43,0-0.851,0-1.28,0s-0.859,0-1.29,0c0-0.431,0-0.851,0-1.28
	s0-0.86,0-1.29c0-0.85,0-1.71,0-2.57c0-0.279,0-0.569,0-0.85c0-0.43,0-0.86,0-1.29c0-0.86,0-1.71,0-2.57c0-1.569,0-3.14,0-4.71
	c0-1.569,0-3.14,0-4.71c0.86,0,1.72,0,2.57,0c0,1.28,0,2.57,0,3.851c0,0.29,0,0.569,0,0.859c0,0.431,0,0.86,0,1.28
	c0,0.29,0,0.58,0,0.86c0,0.43,0,0.859,0,1.29C2.57,37.12,2.57,39.98,2.57,42.83z"/>
</svg>
