<?xml version="1.0" encoding="utf-8"?>
<!-- Generator: Adobe Illustrator 15.0.0, SVG Export Plug-In  -->
<!DOCTYPE svg PUBLIC "-//W3C//DTD SVG 1.1//EN" "http://www.w3.org/Graphics/SVG/1.1/DTD/svg11.dtd" [
	<!ENTITY ns_flows "http://ns.adobe.com/Flows/1.0/">
]>
<svg version="1.1"
	 xmlns="http://www.w3.org/2000/svg" xmlns:xlink="http://www.w3.org/1999/xlink" xmlns:a="http://ns.adobe.com/AdobeSVGViewerExtensions/3.0/"
	 x="0px" y="0px" width="110px" height="70px" viewBox="-17.8 -25.03 110 70" enable-background="new -17.8 -25.03 110 70"
	 xml:space="preserve">
<defs>
</defs>
<path fill="#34343D" d="M47.54,35.55c0,0.86,0,1.71,0,2.57c0.43,0,0.86,0,1.28,0c0.29,0,0.58,0,0.86,0c0,1.569,0,3.14,0,4.71
	c-3.141,0-6.28,0-9.421,0c-0.29,0-0.569,0-0.859,0c-0.431,0-0.851,0-1.28,0c0-0.851,0-1.71,0-2.57c-1.72,0-3.43,0-5.14,0
	c0,0.86,0,1.72,0,2.57c-0.431,0-0.86,0-1.29,0c-0.28,0-0.57,0-0.851,0c-0.859,0-1.72,0-2.569,0c-0.29,0-0.57,0-0.86,0
	c-0.43,0-0.86,0-1.28,0c0-0.851,0-1.71,0-2.57c-1.58,0-3.14,0-4.72,0c0,0.86,0,1.72,0,2.57c-0.85,0-1.71,0-2.57,0
	c-0.279,0-0.569,0-0.85,0c-0.43,0-0.86,0-1.29,0c0-2.42,0-4.851,0-7.28c0.29,0,0.57,0,0.86,0c0.43,0,0.859,0,1.279,0
	c0-0.29,0-0.57,0-0.86c0-0.42,0-0.85,0-1.279c0.86,0,1.721,0,2.57,0c0-0.86,0-1.71,0-2.57c0.15,0,0.29,0,0.43,0
	c1.431,0,2.86,0,4.29,0c2.28,0,4.561,0,6.851,0c1.71,0,3.42,0,5.14,0c0.71,0,1.43,0,2.14,0c0.86,0,1.71,0,2.57,0
	c0,0.86,0,1.71,0,2.57c0.851,0,1.71,0,2.57,0c0.71,0,1.43,0,2.14,0c0,0.43,0,0.859,0,1.279C47.54,34.979,47.54,35.26,47.54,35.55z"
	/>
<path fill="#211F30" d="M73.66,24.84c0,0.43,0,0.86,0,1.29c0,0.859,0,1.71,0,2.57c0,0.279,0,0.569,0,0.85c0,0.43,0,0.86,0,1.29
	c0,0.86,0,1.71,0,2.57c0,0.279,0,0.569,0,0.859c0,0.42,0,0.851,0,1.28c0,0.86,0,1.71,0,2.57c0,1.569,0,3.14,0,4.71
	c-0.85,0-1.71,0-2.56,0c0-0.28,0-0.57,0-0.851c0-0.43,0-0.859,0-1.29c0-0.43,0-0.859,0-1.279c0-0.431,0-0.86,0-1.29
	c0-0.28,0-0.57,0-0.86c0-0.42,0-0.85,0-1.28c0-0.43,0-0.859,0-1.29c0-0.42,0-0.85,0-1.279c0-3.28,0-6.57,0-9.851
	c0.43,0,0.85,0,1.279,0c0.431,0,0.86,0,1.28,0C73.66,23.979,73.66,24.42,73.66,24.84z"/>
<path fill="#211F30" d="M69.811,16.71c0.43,0,0.859,0,1.29,0c0,2.279,0,4.56,0,6.85c-0.431,0-0.86,0-1.29,0c-0.28,0-0.57,0-0.86,0
	c0-2.29,0-4.57,0-6.85C69.24,16.71,69.53,16.71,69.811,16.71z"/>
<path fill="#211F30" d="M66.391,14.14c0.85,0,1.71,0,2.56,0c0,0.85,0,1.71,0,2.57c-0.85,0-1.71,0-2.56,0
	C66.391,15.85,66.391,14.989,66.391,14.14z"/>
<path fill="#211F30" d="M66.391,12.85c0,0.43,0,0.86,0,1.29c-0.29,0-0.58,0-0.86,0c-0.43,0-0.86,0-1.29,0c0-0.15,0-0.29,0-0.43
	c0-0.57,0-1.15,0-1.721c0.43,0,0.86,0,1.29,0c0.28,0,0.57,0,0.86,0C66.391,12.279,66.391,12.56,66.391,12.85z"/>
<path fill="#A73123" d="M64.24,34.27c0,0.42,0,0.851,0,1.28c-0.42,0-0.85,0-1.28,0c-1.14,0-2.29,0-3.43,0c0-1.57,0-3.14,0-4.71
	c0.72,0,1.43,0,2.14,0c0.86,0,1.721,0,2.57,0c0,0.43,0,0.86,0,1.28c0,0.43,0,0.859,0,1.29C64.24,33.689,64.24,33.979,64.24,34.27z"
	/>
<path fill="#A73123" d="M64.24,26.13c0,0.859,0,1.71,0,2.57c-0.85,0-1.71,0-2.57,0c0-0.86,0-1.711,0-2.57
	C62.53,26.13,63.391,26.13,64.24,26.13z"/>
<path fill="#211F30" d="M64.24,9.43c0,0.85,0,1.71,0,2.56c-0.85,0-1.71,0-2.57,0c0-0.85,0-1.71,0-2.56
	C62.53,9.43,63.391,9.43,64.24,9.43z"/>
<path fill="#211F30" d="M61.67,8.14c0,0.43,0,0.86,0,1.29c-0.279,0-0.569,0-0.85,0c-0.43,0-0.86,0-1.29,0c0-0.43,0-0.86,0-1.29
	c0-0.29,0-0.57,0-0.86c0.43,0,0.86,0,1.29,0c0.28,0,0.57,0,0.85,0C61.67,7.569,61.67,7.85,61.67,8.14z"/>
<path fill="#211F30" d="M59.53,4.71c0,0.859,0,1.72,0,2.569c-1.71,0-3.42,0-5.14,0c0-0.85,0-1.71,0-2.569
	C56.11,4.71,57.82,4.71,59.53,4.71z"/>
<path fill="#A73123" d="M66.391,38.12c0-0.28,0-0.57,0-0.86c0-1.28,0-2.57,0-3.85c0.85,0,1.71,0,2.56,0c0-1.57,0-3.141,0-4.71
	c0-1.711,0-3.431,0-5.141c0.29,0,0.58,0,0.86,0c0.43,0,0.859,0,1.29,0c0,3.28,0,6.57,0,9.851c0,0.43,0,0.859,0,1.279
	c0,0.431,0,0.86,0,1.29c0,0.431,0,0.86,0,1.28c0,0.29,0,0.58,0,0.86c0,0.43,0,0.859,0,1.29c0,0.42,0,0.85,0,1.279
	c0,0.431,0,0.86,0,1.29c0,0.28,0,0.57,0,0.851c-4.71,0-9.431,0-14.141,0c0-1.28,0-2.57,0-3.851c0-1.14,0-2.29,0-3.43
	c0.86,0,1.71,0,2.57,0c0,0.29,0,0.57,0,0.86c0,0.43,0,0.85,0,1.279c0,0.86,0,1.721,0,2.57c1.57,0,3.14,0,4.71,0
	c0-0.28,0-0.57,0-0.85c0-0.431,0-0.86,0-1.29c0.29,0,0.58,0,0.86,0C65.53,38.12,65.96,38.12,66.391,38.12z"/>
<path fill="#A73123" d="M56.96,33.41c0,0.279,0,0.569,0,0.859c0,0.42,0,0.851,0,1.28c-0.85,0-1.71,0-2.569,0c0-1.57,0-3.14,0-4.71
	c0.859,0,1.72,0,2.569,0c0,0.43,0,0.86,0,1.28C56.96,32.55,56.96,32.979,56.96,33.41z"/>
<path fill="#211F30" d="M54.391,4.71c-2.28,0-4.57,0-6.851,0c0-0.851,0-1.71,0-2.57c2.28,0,4.57,0,6.851,0
	C54.391,3,54.391,3.859,54.391,4.71z"/>
<path fill="#211F30" d="M54.391,30.84c0,1.57,0,3.14,0,4.71c-0.28,0-0.57,0-0.86,0c-0.42,0-0.85,0-1.28,0c0-1.57,0-3.14,0-4.71
	c0.431,0,0.86,0,1.28,0C53.82,30.84,54.11,30.84,54.391,30.84z"/>
<path fill="#D98249" d="M52.25,41.55c0-2,0-4,0-6c0.431,0,0.86,0,1.28,0c0.29,0,0.58,0,0.86,0c0,1,0,2,0,3s0,2,0,3
	c0,0.43,0,0.85,0,1.28c-0.28,0-0.57,0-0.86,0c-0.42,0-0.85,0-1.28,0C52.25,42.399,52.25,41.979,52.25,41.55z"/>
<path fill="#A73123" d="M53.53,30.84c-0.42,0-0.85,0-1.28,0c0-0.43,0-0.86,0-1.29c0-0.28,0-0.57,0-0.85c0.29,0,0.57,0,0.86,0
	c0.42,0,0.85,0,1.28,0c0,0.279,0,0.569,0,0.85c0,0.43,0,0.86,0,1.29C54.11,30.84,53.82,30.84,53.53,30.84z"/>
<path fill="#A73123" d="M52.25,26.13c0,0.859,0,1.71,0,2.57c-0.85,0-1.71,0-2.569,0c0-0.86,0-1.711,0-2.57
	C50.54,26.13,51.4,26.13,52.25,26.13z"/>
<path fill="#211F30" d="M52.25,28.7c0,0.279,0,0.569,0,0.85c0,0.43,0,0.86,0,1.29c-0.85,0-1.71,0-2.569,0c0-0.43,0-0.86,0-1.29
	c0-0.28,0-0.57,0-0.85C50.54,28.7,51.4,28.7,52.25,28.7z"/>
<path fill="#D98249" d="M52.25,30.84c0,1.57,0,3.14,0,4.71c-0.85,0-1.71,0-2.569,0c0-1.57,0-3.14,0-4.71
	C50.54,30.84,51.4,30.84,52.25,30.84z"/>
<path fill="#211F30" d="M49.681,26.13c0,0.859,0,1.71,0,2.57c-0.28,0-0.57,0-0.86,0c-0.42,0-0.851,0-1.28,0c0-0.86,0-1.711,0-2.57
	c0.43,0,0.86,0,1.28,0C49.11,26.13,49.4,26.13,49.681,26.13z"/>
<path fill="#D98249" d="M49.681,28.7c0,0.279,0,0.569,0,0.85c0,0.43,0,0.86,0,1.29c-0.28,0-0.57,0-0.86,0c-0.42,0-0.851,0-1.28,0
	c0-0.43,0-0.86,0-1.29c0-0.28,0-0.57,0-0.85c0.43,0,0.86,0,1.28,0C49.11,28.7,49.4,28.7,49.681,28.7z"/>
<path fill="#211F30" d="M49.681,30.84c0,1.57,0,3.14,0,4.71c-0.28,0-0.57,0-0.86,0c-0.42,0-0.851,0-1.28,0c0-0.29,0-0.57,0-0.86
	c0-0.42,0-0.85,0-1.279c0-0.86,0-1.71,0-2.57c0.43,0,0.86,0,1.28,0C49.11,30.84,49.4,30.84,49.681,30.84z"/>
<path fill="#34343D" d="M49.681,35.55c0,0.86,0,1.71,0,2.57c-0.28,0-0.57,0-0.86,0c-0.42,0-0.851,0-1.28,0c0-0.86,0-1.71,0-2.57
	c0.43,0,0.86,0,1.28,0C49.11,35.55,49.4,35.55,49.681,35.55z"/>
<path fill="#A73123" d="M49.681,23.56c0,0.86,0,1.71,0,2.57c-0.28,0-0.57,0-0.86,0c-0.42,0-0.851,0-1.28,0c0-0.86,0-1.71,0-2.57
	c0.29,0,0.57,0,0.86,0C48.82,23.56,49.25,23.56,49.681,23.56z"/>
<path fill="#211F30" d="M47.54,2.14c-7.99,0-15.99,0-23.979,0c0-0.28,0-0.57,0-0.85c0-0.431,0-0.86,0-1.29C31.55,0,39.55,0,47.54,0
	c0,0.29,0,0.569,0,0.859C47.54,1.29,47.54,1.72,47.54,2.14z"/>
<path fill="#D98249" d="M47.54,26.13c0,0.859,0,1.71,0,2.57c-0.859,0-1.71,0-2.57,0c-0.71,0-1.43,0-2.14,0c0-0.86,0-1.711,0-2.57
	c0.71,0,1.43,0,2.14,0C45.83,26.13,46.681,26.13,47.54,26.13z"/>
<path fill="#211F30" d="M47.54,29.55c0,0.43,0,0.86,0,1.29c-0.859,0-1.71,0-2.57,0c-0.71,0-1.43,0-2.14,0c0-0.43,0-0.86,0-1.29
	c0-0.28,0-0.57,0-0.85c0.71,0,1.43,0,2.14,0c0.86,0,1.711,0,2.57,0C47.54,28.979,47.54,29.27,47.54,29.55z"/>
<path fill="#34343D" d="M47.54,30.84c0,0.86,0,1.71,0,2.57c-0.71,0-1.43,0-2.14,0c-0.86,0-1.72,0-2.57,0c0-0.86,0-1.71,0-2.57
	c0.71,0,1.43,0,2.14,0C45.83,30.84,46.681,30.84,47.54,30.84z"/>
<path fill="#211F30" d="M47.54,23.56c0,0.86,0,1.71,0,2.57c-0.859,0-1.71,0-2.57,0c-0.71,0-1.43,0-2.14,0c0-0.86,0-1.71,0-2.57
	c0.43,0,0.851,0,1.28,0c0.29,0,0.57,0,0.859,0C45.83,23.56,46.681,23.56,47.54,23.56z"/>
<path fill="#A73123" d="M44.97,21.42c0,0.28,0,0.569,0,0.85c0,0.431,0,0.86,0,1.29c-0.289,0-0.569,0-0.859,0c-0.43,0-0.851,0-1.28,0
	c0-0.29,0-0.57,0-0.859c0-0.431,0-0.851,0-1.28c0.29,0,0.57,0,0.851,0C44.11,21.42,44.54,21.42,44.97,21.42z"/>
<path fill="#211F30" d="M42.83,26.13c0,0.859,0,1.71,0,2.57c-8,0-15.99,0-23.99,0c0-0.86,0-1.711,0-2.57
	C26.84,26.13,34.83,26.13,42.83,26.13z"/>
<path fill="#D98249" d="M42.83,26.13c-8,0-15.99,0-23.99,0c0-0.86,0-1.71,0-2.57c8,0,15.99,0,23.99,0
	C42.83,24.42,42.83,25.27,42.83,26.13z"/>
<path fill="#211F30" d="M42.83,23.56c-8,0-15.99,0-23.99,0c0-0.29,0-0.57,0-0.859c0-0.431,0-0.851,0-1.28c8,0,15.99,0,23.99,0
	c0,0.43,0,0.85,0,1.28C42.83,22.989,42.83,23.27,42.83,23.56z"/>
<path fill="#3A160D" d="M30.84,11.989c0,0.29,0,0.57,0,0.86c0,0.43,0,0.86,0,1.29c-0.859,0-1.72,0-2.569,0c0-0.29,0-0.58,0-0.86
	c0-0.43,0-0.859,0-1.29C29.12,11.989,29.98,11.989,30.84,11.989z"/>
<path fill="#211F30" d="M18.84,2.14c1.57,0,3.15,0,4.721,0c0,0.86,0,1.72,0,2.57c-0.86,0-1.721,0-2.57,0c-0.72,0-1.43,0-2.15,0
	C18.84,3.859,18.84,3,18.84,2.14z"/>
<path fill="#3A160D" d="M26.13,11.989c0,1.57,0,3.15,0,4.721c-0.859,0-1.72,0-2.569,0c0,0.42,0,0.85,0,1.279c0,0.29,0,0.57,0,0.86
	c-1.57,0-3.15,0-4.721,0c0-0.57,0-1.149,0-1.72c0-0.141,0-0.28,0-0.42c-0.42,0-0.85,0-1.279,0c-0.29,0-0.57,0-0.86,0
	c0-1.29,0-2.57,0-3.86c0-0.29,0-0.57,0-0.86c0.43,0,0.86,0,1.29,0c0.28,0,0.57,0,0.85,0c0-0.85,0-1.71,0-2.56c1.29,0,2.57,0,3.86,0
	c0.29,0,0.57,0,0.86,0c0,0.85,0,1.71,0,2.56C24.41,11.989,25.271,11.989,26.13,11.989z"/>
<path fill="#D6412C" d="M64.24,28.7c0-0.86,0-1.711,0-2.57c-0.85,0-1.71,0-2.57,0c0,0.859,0,1.71,0,2.57
	C62.53,28.7,63.391,28.7,64.24,28.7z M30.84,14.14c0-0.43,0-0.86,0-1.29c0-0.29,0-0.57,0-0.86c-0.859,0-1.72,0-2.569,0
	c0,0.431,0,0.86,0,1.29c0,0.28,0,0.57,0,0.86C29.12,14.14,29.98,14.14,30.84,14.14z M26.13,16.71c0-1.57,0-3.15,0-4.721
	c-0.859,0-1.72,0-2.569,0c0-0.85,0-1.71,0-2.56c-0.29,0-0.57,0-0.86,0c-1.29,0-2.57,0-3.86,0v-2.15c0-0.85,0-1.71,0-2.569
	c0.721,0,1.431,0,2.15,0c0.85,0,1.71,0,2.57,0c0-0.851,0-1.71,0-2.57c7.989,0,15.989,0,23.979,0c0,0.86,0,1.72,0,2.57
	c2.28,0,4.57,0,6.851,0c0,0.859,0,1.72,0,2.569c1.72,0,3.43,0,5.14,0c0,0.29,0,0.57,0,0.86c0,0.43,0,0.86,0,1.29
	c0.43,0,0.86,0,1.29,0c0.28,0,0.57,0,0.85,0c0,0.85,0,1.71,0,2.56c0.86,0,1.721,0,2.57,0c0,0.57,0,1.15,0,1.721
	c0,0.14,0,0.279,0,0.43c0.43,0,0.86,0,1.29,0c0.28,0,0.57,0,0.86,0c0,0.85,0,1.71,0,2.57c0.85,0,1.71,0,2.56,0
	c0,2.279,0,4.56,0,6.85c0,1.71,0,3.43,0,5.141c0,1.569,0,3.14,0,4.71c-0.85,0-1.71,0-2.56,0c0,1.279,0,2.569,0,3.85
	c0,0.29,0,0.58,0,0.86c-0.431,0-0.86,0-1.29,0c-0.28,0-0.57,0-0.86,0c0,0.43,0,0.859,0,1.29c0,0.279,0,0.569,0,0.85
	c-1.57,0-3.14,0-4.71,0c0-0.85,0-1.71,0-2.57c0-0.43,0-0.85,0-1.279c0-0.29,0-0.57,0-0.86c1.14,0,2.29,0,3.43,0
	c0.431,0,0.86,0,1.28,0c0-0.43,0-0.86,0-1.28c0-0.29,0-0.58,0-0.859c0-0.431,0-0.86,0-1.29c0-0.42,0-0.851,0-1.28
	c-0.85,0-1.71,0-2.57,0c-0.71,0-1.42,0-2.14,0c0,1.57,0,3.14,0,4.71c-0.86,0-1.71,0-2.57,0c0-0.43,0-0.86,0-1.28
	c0-0.29,0-0.58,0-0.859c0-0.431,0-0.86,0-1.29c0-0.42,0-0.851,0-1.28c-0.85,0-1.71,0-2.569,0c0-0.43,0-0.86,0-1.29
	c0-0.28,0-0.57,0-0.85c-0.431,0-0.86,0-1.28,0c-0.29,0-0.57,0-0.86,0c0-0.86,0-1.711,0-2.57c-0.85,0-1.71,0-2.569,0
	c0-0.86,0-1.71,0-2.57c-0.431,0-0.86,0-1.28,0c-0.29,0-0.57,0-0.86,0c-0.859,0-1.71,0-2.57,0c0-0.43,0-0.859,0-1.29
	c0-0.28,0-0.569,0-0.85c-0.43,0-0.859,0-1.289,0c-0.28,0-0.561,0-0.851,0c-8,0-15.99,0-23.99,0c0,0.43,0,0.85,0,1.28
	c0,0.289,0,0.569,0,0.859c-0.42,0-0.85,0-1.279,0c-0.29,0-0.57,0-0.86,0c0-1.14,0-2.29,0-3.43c0-0.43,0-0.851,0-1.28h2.14
	c1.57,0,3.15,0,4.721,0c0-0.29,0-0.57,0-0.86c0-0.43,0-0.859,0-1.279C24.41,16.71,25.271,16.71,26.13,16.71z"/>
<path fill="#D98249" d="M18.84,26.13c0,0.859,0,1.71,0,2.57c-0.85,0-1.71,0-2.569,0c-0.71,0-1.42,0-2.141,0c0-0.86,0-1.711,0-2.57
	c0.721,0,1.431,0,2.141,0C17.13,26.13,17.99,26.13,18.84,26.13z"/>
<path fill="#211F30" d="M18.84,28.7c0,0.279,0,0.569,0,0.85c0,0.43,0,0.86,0,1.29c-0.85,0-1.71,0-2.569,0c-0.71,0-1.42,0-2.141,0
	c0-0.43,0-0.86,0-1.29c0-0.28,0-0.57,0-0.85c0.721,0,1.431,0,2.141,0C17.13,28.7,17.99,28.7,18.84,28.7z"/>
<path fill="#211F30" d="M18.84,4.71c0,0.859,0,1.72,0,2.569c-0.14,0-0.279,0-0.42,0c-1.43,0-2.859,0-4.29,0c0-0.85,0-1.71,0-2.569
	c0.721,0,1.431,0,2.141,0C17.13,4.71,17.99,4.71,18.84,4.71z"/>
<path fill="#3A160D" d="M16.7,20.13c0,1.14,0,2.29,0,3.43c-0.85,0-1.71,0-2.57,0c-0.43,0-0.85,0-1.279,0c-0.431,0-0.86,0-1.29,0
	c0-1.57,0-3.14,0-4.71c1.72,0,3.43,0,5.14,0C16.7,19.279,16.7,19.7,16.7,20.13z"/>
<path fill="#211F30" d="M18.84,23.56c0,0.86,0,1.71,0,2.57c-0.85,0-1.71,0-2.569,0c-0.71,0-1.42,0-2.141,0c0-0.86,0-1.71,0-2.57
	c0.86,0,1.721,0,2.57,0c0.29,0,0.57,0,0.86,0C17.99,23.56,18.42,23.56,18.84,23.56z"/>
<path fill="#211F30" d="M11.561,9.43c0-0.43,0-0.86,0-1.29c0-0.29,0-0.57,0-0.86c0.859,0,1.72,0,2.569,0c0,0.29,0,0.57,0,0.86
	c0,0.43,0,0.86,0,1.29C13.28,9.43,12.42,9.43,11.561,9.43z"/>
<path fill="#211F30" d="M14.13,26.13c0,0.859,0,1.71,0,2.57c-0.85,0-1.71,0-2.569,0c0-0.86,0-1.711,0-2.57
	C12.42,26.13,13.28,26.13,14.13,26.13z"/>
<path fill="#D98249" d="M11.561,28.7c0.859,0,1.72,0,2.569,0c0,0.279,0,0.569,0,0.85c0,0.43,0,0.86,0,1.29c-0.85,0-1.71,0-2.569,0
	c0-0.43,0-0.86,0-1.29C11.561,29.27,11.561,28.979,11.561,28.7z"/>
<path fill="#211F30" d="M11.561,30.84c0.859,0,1.72,0,2.569,0c0,0.28,0,0.57,0,0.86c0,0.42,0,0.85,0,1.279c0,0.86,0,1.71,0,2.57
	c-0.85,0-1.71,0-2.569,0C11.561,33.979,11.561,32.41,11.561,30.84z"/>
<path fill="#34343D" d="M11.561,35.55c0.859,0,1.72,0,2.569,0c0-0.86,0-1.71,0-2.57c0-0.43,0-0.859,0-1.279c0-0.29,0-0.58,0-0.86
	c0.721,0,1.431,0,2.141,0c0.859,0,1.72,0,2.569,0c0-0.43,0-0.86,0-1.29c0-0.28,0-0.57,0-0.85c8,0,15.99,0,23.99,0
	c0,0.279,0,0.569,0,0.85c0,0.43,0,0.86,0,1.29c-0.86,0-1.71,0-2.57,0c-0.71,0-1.43,0-2.14,0c-1.72,0-3.43,0-5.14,0
	c-2.29,0-4.57,0-6.851,0c-1.43,0-2.859,0-4.29,0c-0.14,0-0.279,0-0.43,0c0,0.86,0,1.71,0,2.57c-0.85,0-1.71,0-2.57,0
	c0,0.43,0,0.859,0,1.279c0,0.29,0,0.57,0,0.86c-0.42,0-0.85,0-1.279,0c-0.29,0-0.57,0-0.86,0c0,2.43,0,4.86,0,7.28
	c-1.71,0-3.42,0-5.14,0c0-1.28,0-2.57,0-3.851C11.561,37.84,11.561,36.689,11.561,35.55z"/>
<path fill="#D6412C" d="M11.561,9.43c0.859,0,1.72,0,2.569,0c0-0.43,0-0.86,0-1.29c0-0.29,0-0.57,0-0.86c1.431,0,2.86,0,4.29,0
	c0.141,0,0.28,0,0.42,0v2.15c0,0.85,0,1.71,0,2.56c-0.279,0-0.569,0-0.85,0c-0.43,0-0.86,0-1.29,0c0,0.29,0,0.57,0,0.86
	c0,1.29,0,2.57,0,3.86c0.29,0,0.57,0,0.86,0c0.43,0,0.859,0,1.279,0c0,0.14,0,0.279,0,0.42c0,0.57,0,1.149,0,1.72H16.7
	c-1.71,0-3.42,0-5.14,0c0,1.57,0,3.14,0,4.71c0.43,0,0.859,0,1.29,0c0.43,0,0.85,0,1.279,0c0,0.86,0,1.71,0,2.57
	c-0.85,0-1.71,0-2.569,0c0,0.859,0,1.71,0,2.57c-0.28,0-0.57,0-0.851,0c-0.43,0-0.859,0-1.29,0c0,0.43,0,0.85,0,1.279
	c0,0.29,0,0.57,0,0.86c-0.85,0-1.71,0-2.569,0c0,1.57,0,3.14,0,4.71c-0.431,0-0.86,0-1.28,0c-0.29,0-0.57,0-0.86,0
	c0,0.86,0,1.71,0,2.57c0,0.71,0,1.43,0,2.14c-0.859,0-1.71,0-2.569,0c0-0.43,0-0.85,0-1.28c0-0.29,0-0.569,0-0.859
	c0-0.431,0-0.86,0-1.28c0-0.29,0-0.58,0-0.86c0-0.43,0-0.859,0-1.29c0-0.279,0-0.569,0-0.85c0-0.43,0-0.86,0-1.29
	c0-0.28,0-0.57,0-0.85c0-0.431,0-0.86,0-1.29c0-0.28,0-0.57,0-0.86c0-0.42,0-0.85,0-1.28c0-0.29,0-0.569,0-0.859
	c0-1.28,0-2.57,0-3.851c0.859,0,1.71,0,2.569,0c0-2.29,0-4.57,0-6.85c0.431,0,0.86,0,1.28,0c0.29,0,0.58,0,0.86,0
	c0-0.86,0-1.721,0-2.57c0.859,0,1.72,0,2.569,0c0-0.43,0-0.86,0-1.29c0-0.29,0-0.57,0-0.86c0.431,0,0.86,0,1.29,0
	c0.28,0,0.57,0,0.851,0C11.561,11.14,11.561,10.279,11.561,9.43z"/>
<path fill="#211F30" d="M11.561,29.55c0,0.43,0,0.86,0,1.29c-0.28,0-0.57,0-0.851,0c-0.43,0-0.859,0-1.29,0c0-0.29,0-0.57,0-0.86
	c0-0.43,0-0.85,0-1.279c0.431,0,0.86,0,1.29,0c0.28,0,0.57,0,0.851,0C11.561,28.979,11.561,29.27,11.561,29.55z"/>
<path fill="#D98249" d="M10.71,30.84c0.28,0,0.57,0,0.851,0c0,1.57,0,3.14,0,4.71c-0.28,0-0.57,0-0.851,0c-0.43,0-0.859,0-1.29,0
	c0-1.57,0-3.14,0-4.71C9.851,30.84,10.28,30.84,10.71,30.84z"/>
<path fill="#211F30" d="M10.71,9.43c0.28,0,0.57,0,0.851,0c0,0.85,0,1.71,0,2.56c-0.28,0-0.57,0-0.851,0c-0.43,0-0.859,0-1.29,0
	c0-0.85,0-1.71,0-2.56C9.851,9.43,10.28,9.43,10.71,9.43z"/>
<path fill="#211F30" d="M9.42,11.989c0,0.29,0,0.57,0,0.86c0,0.43,0,0.86,0,1.29c-0.85,0-1.71,0-2.569,0c0-0.43,0-0.86,0-1.29
	c0-0.29,0-0.57,0-0.86C7.71,11.989,8.57,11.989,9.42,11.989z"/>
<path fill="#211F30" d="M9.42,30.84c0,1.57,0,3.14,0,4.71c-0.85,0-1.71,0-2.569,0c0-1.57,0-3.14,0-4.71
	C7.71,30.84,8.57,30.84,9.42,30.84z"/>
<path fill="#D98249" d="M9.42,38.979c0,1.28,0,2.57,0,3.851c-0.43,0-0.85,0-1.279,0c-0.431,0-0.86,0-1.29,0c0-2.42,0-4.851,0-7.28
	c0.859,0,1.72,0,2.569,0C9.42,36.689,9.42,37.84,9.42,38.979z"/>
<path fill="#211F30" d="M11.561,35.55c0,1.14,0,2.29,0,3.43c0,1.28,0,2.57,0,3.851c1.72,0,3.43,0,5.14,0c0.43,0,0.86,0,1.29,0
	c0.28,0,0.57,0,0.85,0c0.86,0,1.721,0,2.57,0c0-0.851,0-1.71,0-2.57c1.58,0,3.14,0,4.72,0c0,0.86,0,1.72,0,2.57
	c0.42,0,0.851,0,1.28,0c0.29,0,0.57,0,0.86,0c0.85,0,1.71,0,2.569,0c0.28,0,0.57,0,0.851,0c0.43,0,0.859,0,1.29,0
	c0-0.851,0-1.71,0-2.57c1.71,0,3.42,0,5.14,0c0,0.86,0,1.72,0,2.57c0.43,0,0.85,0,1.28,0c0.29,0,0.569,0,0.859,0
	c3.141,0,6.28,0,9.421,0c0-1.57,0-3.141,0-4.71c0-0.86,0-1.71,0-2.57c0.859,0,1.72,0,2.569,0c0,2,0,4,0,6c0,0.43,0,0.85,0,1.28
	c0.431,0,0.86,0,1.28,0c0.29,0,0.58,0,0.86,0c0-0.431,0-0.851,0-1.28c0-1,0-2,0-3s0-2,0-3c0.859,0,1.72,0,2.569,0
	c0,1.14,0,2.29,0,3.43c0,1.28,0,2.57,0,3.851c4.71,0,9.431,0,14.141,0c0,0.569,0,1.14,0,1.72c0,0.14,0,0.28,0,0.42
	c-2.86,0-5.71,0-8.57,0c-2.85,0-5.71,0-8.57,0c-2.85,0-5.71,0-8.56,0c-2.86,0-5.71,0-8.57,0c-5.71,0-11.42,0-17.13,0
	c-5.85,0-11.71,0-17.56,0c0-0.28,0-0.57,0-0.86c0-0.42,0-0.85,0-1.279c0.859,0,1.71,0,2.569,0c0-0.851,0-1.71,0-2.57
	c0-0.71,0-1.43,0-2.14c0-0.86,0-1.71,0-2.57c0.29,0,0.57,0,0.86,0c0.42,0,0.85,0,1.28,0c0,2.43,0,4.86,0,7.28c0.43,0,0.859,0,1.29,0
	c0.43,0,0.85,0,1.279,0c0-1.28,0-2.57,0-3.851c0-1.14,0-2.29,0-3.43c0.431,0,0.86,0,1.29,0C10.99,35.55,11.28,35.55,11.561,35.55z"
	/>
<path fill="#211F30" d="M5.99,14.14c0.29,0,0.58,0,0.86,0c0,0.85,0,1.71,0,2.57c-0.28,0-0.57,0-0.86,0c-0.42,0-0.85,0-1.28,0
	c0-0.86,0-1.721,0-2.57C5.141,14.14,5.57,14.14,5.99,14.14z"/>
<path fill="#211F30" d="M4.71,16.71c0,2.279,0,4.56,0,6.85c-0.859,0-1.71,0-2.569,0c0-2.29,0-4.57,0-6.85
	C3,16.71,3.851,16.71,4.71,16.71z"/>
<path fill="#A73123" d="M4.71,40.26c0,0.86,0,1.72,0,2.57c-0.859,0-1.71,0-2.569,0c0-0.851,0-1.71,0-2.57
	C3,40.26,3.851,40.26,4.71,40.26z"/>
<path fill="#211F30" d="M2.141,40.26c0,0.86,0,1.72,0,2.57c-0.28,0-0.57,0-0.86,0c-0.43,0-0.85,0-1.28,0c0-0.431,0-0.851,0-1.28
	s0-0.86,0-1.29s0-0.85,0-1.28c0-0.43,0-0.859,0-1.29c0-0.279,0-0.569,0-0.85c0-0.43,0-0.86,0-1.29s0-0.86,0-1.28
	c0-0.43,0-0.859,0-1.29c0-0.29,0-0.569,0-0.859c0-0.42,0-0.851,0-1.28s0-0.86,0-1.29c0-0.42,0-0.85,0-1.28c0-0.29,0-0.569,0-0.859
	c0-0.421,0-0.86,0-1.28c0-0.43,0-0.86,0-1.29c0-0.42,0-0.86,0-1.28c0.28,0,0.57,0,0.851,0c0.43,0,0.859,0,1.29,0
	c0,1.28,0,2.57,0,3.851c0,0.29,0,0.569,0,0.859c0,0.431,0,0.86,0,1.28c0,0.29,0,0.58,0,0.86c0,0.43,0,0.859,0,1.29
	c0,0.279,0,0.569,0,0.85c0,0.43,0,0.86,0,1.29c0,0.28,0,0.57,0,0.85c0,0.431,0,0.86,0,1.29c0,0.28,0,0.57,0,0.86
	c0,0.42,0,0.85,0,1.28c0,0.29,0,0.569,0,0.859C2.141,39.41,2.141,39.83,2.141,40.26z"/>
</svg>
