<?xml version="1.0" encoding="utf-8"?>
<!-- Generator: Adobe Illustrator 15.0.0, SVG Export Plug-In  -->
<!DOCTYPE svg PUBLIC "-//W3C//DTD SVG 1.1//EN" "http://www.w3.org/Graphics/SVG/1.1/DTD/svg11.dtd" [
	<!ENTITY ns_flows "http://ns.adobe.com/Flows/1.0/">
]>
<svg version="1.1"
	 xmlns="http://www.w3.org/2000/svg" xmlns:xlink="http://www.w3.org/1999/xlink" xmlns:a="http://ns.adobe.com/AdobeSVGViewerExtensions/3.0/"
	 x="0px" y="0px" width="110px" height="70px" viewBox="-15.73 -25.03 110 70" enable-background="new -15.73 -25.03 110 70"
	 xml:space="preserve">
<defs>
</defs>
<path fill="#34343D" d="M18.84,38.12c0-0.28,0-0.57,0-0.86c0-0.42,0-0.85,0-1.28c0-0.859,0-1.71,0-2.569c4,0,7.99,0,11.99,0
	c0.29,0,0.57,0,0.86,0c0.43,0,0.86,0,1.28,0c4,0,8,0,11.99,0c0.859,0,1.72,0,2.579,0c0,0.43,0,0.859,0,1.279c0,0.29,0,0.57,0,0.86
	c0.421,0,0.851,0,1.28,0c0.431,0,0.86,0,1.29,0c0.42,0,0.851,0,1.28,0c0.28,0,0.57,0,0.86,0c0,0.86,0,1.71,0,2.57
	c0,0.29,0,0.569,0,0.859c0,0.431,0,0.851,0,1.28c0.43,0,0.85,0,1.279,0c0.29,0,0.57,0,0.86,0c0,0.86,0,1.72,0,2.57
	c-0.86,0-1.71,0-2.57,0c-0.43,0-0.859,0-1.29,0c-0.279,0-0.569,0-0.85,0c-0.86,0-1.72,0-2.57,0c-0.43,0-0.859,0-1.29,0
	c-0.28,0-0.569,0-0.859,0c-0.28,0-0.57,0-0.851,0c-0.43,0-0.859,0-1.29,0c0-0.851,0-1.71,0-2.57c-2.42,0-4.85,0-7.28,0
	c0,0.86,0,1.72,0,2.57c-0.85,0-1.71,0-2.57,0c-0.28,0-0.57,0-0.85,0c-0.43,0-0.86,0-1.29,0c-0.85,0-1.71,0-2.57,0
	c0-0.851,0-1.71,0-2.57c-2.28,0-4.57,0-6.85,0c0,0.86,0,1.72,0,2.57c-0.86,0-1.71,0-2.57,0c-0.29,0-0.57,0-0.86,0
	c-0.43,0-0.85,0-1.28,0c0-0.71,0-1.431,0-2.141c0-0.43,0-0.859,0-1.279c0-0.431,0-0.86,0-1.29c0.28,0,0.57,0,0.85,0
	C17.98,38.12,18.41,38.12,18.84,38.12z"/>
<path fill="#211F30" d="M75.8,35.979c0-0.859,0-1.71,0-2.569c0-3.28,0-6.57,0-9.851c0.43,0,0.859,0,1.29,0c0.43,0,0.85,0,1.279,0
	c0,0.42,0,0.86,0,1.28c0,0.43,0,0.86,0,1.29c0,0.859,0,1.71,0,2.57c0,0.279,0,0.569,0,0.85c0,0.43,0,0.86,0,1.29
	c0,0.86,0,1.71,0,2.57c0,0.279,0,0.569,0,0.859c0,0.42,0,0.851,0,1.28c0,0.86,0,1.71,0,2.57c0,0.71,0,1.43,0,2.14
	c0,0.86,0,1.72,0,2.57c-0.85,0-1.71,0-2.569,0c0-0.71,0-1.431,0-2.141c0-0.859,0-1.71,0-2.569c0-0.28,0-0.57,0-0.86
	C75.8,36.84,75.8,36.41,75.8,35.979z"/>
<path fill="#211F30" d="M75.8,19.279c0,0.141,0,0.28,0,0.421c0,0.569,0,1.149,0,1.72c0,0.28,0,0.569,0,0.85c0,0.431,0,0.86,0,1.29
	c-0.28,0-0.57,0-0.851,0c-0.43,0-0.859,0-1.29,0c0-0.29,0-0.57,0-0.859c0-0.431,0-0.851,0-1.28c0-0.86,0-1.72,0-2.57
	c0.29,0,0.57,0,0.86,0c0.43,0,0.86,0,1.28,0C75.8,18.989,75.8,19.13,75.8,19.279z"/>
<path fill="#211F30" d="M73.66,16.279c0,0.851,0,1.71,0,2.57c-0.85,0-1.71,0-2.569,0c0-0.43,0-0.86,0-1.29s0-0.85,0-1.28
	c0-0.29,0-0.569,0-0.859c0-0.431,0-0.86,0-1.28c0.859,0,1.72,0,2.569,0c0,0.28,0,0.57,0,0.85C73.66,15.42,73.66,15.85,73.66,16.279z
	"/>
<path fill="#211F30" d="M71.09,12.85c0,0.43,0,0.86,0,1.29c-0.28,0-0.57,0-0.86,0c-0.42,0-0.85,0-1.28,0c0-0.29,0-0.58,0-0.86
	c0-0.43,0-0.859,0-1.29c0.431,0,0.86,0,1.28,0c0.29,0,0.58,0,0.86,0C71.09,12.279,71.09,12.56,71.09,12.85z"/>
<path fill="#A73123" d="M68.95,26.13c0,0.859,0,1.71,0,2.57c-0.859,0-1.71,0-2.569,0c0-0.86,0-1.711,0-2.57
	C67.24,26.13,68.09,26.13,68.95,26.13z"/>
<path fill="#211F30" d="M68.95,9.43c0,0.85,0,1.71,0,2.56c-0.859,0-1.71,0-2.569,0c0-0.85,0-1.71,0-2.56
	C67.24,9.43,68.09,9.43,68.95,9.43z"/>
<path fill="#A73123" d="M68.95,34.689c0,0.29,0,0.57,0,0.86c-1.279,0-2.569,0-3.85,0c-0.29,0-0.58,0-0.86,0c0-1.14,0-2.28,0-3.43
	c0-0.42,0-0.851,0-1.28c1.28,0,2.57,0,3.851,0c0.29,0,0.569,0,0.859,0C68.95,32.12,68.95,33.41,68.95,34.689z"/>
<path fill="#211F30" d="M66.38,8.14c0,0.43,0,0.86,0,1.29c-0.28,0-0.57,0-0.86,0c-0.42,0-0.85,0-1.28,0c0-0.43,0-0.86,0-1.29
	c0-0.29,0-0.57,0-0.86c0.431,0,0.86,0,1.28,0c0.29,0,0.58,0,0.86,0C66.38,7.569,66.38,7.85,66.38,8.14z"/>
<path fill="#D6412C" d="M68.95,28.7c0-0.86,0-1.711,0-2.57c-0.859,0-1.71,0-2.569,0c0,0.859,0,1.71,0,2.57
	C67.24,28.7,68.09,28.7,68.95,28.7z M68.95,35.55c0-0.29,0-0.57,0-0.86c0-1.279,0-2.569,0-3.85c-0.29,0-0.569,0-0.859,0
	c-1.28,0-2.57,0-3.851,0c0,0.43,0,0.86,0,1.28c0,1.149,0,2.29,0,3.43c0.28,0,0.57,0,0.86,0C66.38,35.55,67.67,35.55,68.95,35.55z
	 M26.12,15.85c0-1.29,0-2.57,0-3.86c-0.86,0-1.71,0-2.57,0c0-0.85,0-1.71,0-2.56c-0.29,0-0.57,0-0.86,0c-1.28,0-2.56,0-3.85,0v-2.15
	c0-0.85,0-1.71,0-2.569c1.14,0,2.28,0,3.43,0c1.28,0,2.57,0,3.85,0c0-0.851,0-1.71,0-2.57c3.86,0,7.71,0,11.56,0
	c3.859,0,7.72,0,11.57,0c0.14,0,0.279,0,0.43,0c0,0.86,0,1.72,0,2.57c3.28,0,6.56,0,9.85,0c0,0.859,0,1.72,0,2.569
	c0.851,0,1.71,0,2.57,0c0.43,0,0.85,0,1.28,0c0.29,0,0.569,0,0.859,0c0,0.29,0,0.57,0,0.86c0,0.43,0,0.86,0,1.29
	c0.431,0,0.86,0,1.28,0c0.29,0,0.58,0,0.86,0c0,0.85,0,1.71,0,2.56c0.859,0,1.71,0,2.569,0c0,0.431,0,0.86,0,1.29
	c0,0.28,0,0.57,0,0.86c0.431,0,0.86,0,1.28,0c0.29,0,0.58,0,0.86,0c0,0.42,0,0.85,0,1.28c0,0.29,0,0.569,0,0.859
	c0,0.431,0,0.851,0,1.28s0,0.86,0,1.29c0.859,0,1.72,0,2.569,0c0,0.851,0,1.71,0,2.57c0,0.43,0,0.85,0,1.28c0,0.289,0,0.569,0,0.859
	c0,2.99,0,5.99,0,8.99c0,0.29,0,0.57,0,0.86c-0.85,0-1.71,0-2.569,0c0,1.279,0,2.569,0,3.85c0,0.29,0,0.58,0,0.86
	c-0.431,0-0.86,0-1.28,0c-0.29,0-0.57,0-0.86,0c0,0.43,0,0.859,0,1.29c0,0.279,0,0.569,0,0.85c-1.279,0-2.569,0-3.85,0
	c-0.29,0-0.58,0-0.86,0c0-0.43,0-0.85,0-1.28c0-0.29,0-0.569,0-0.859c-0.859,0-1.71,0-2.569,0c0-0.431,0-0.86,0-1.28
	c0-0.29,0-0.58,0-0.86c0-0.43,0-0.859,0-1.29c0-0.42,0-0.85,0-1.279c-0.431,0-0.86,0-1.29,0c-0.28,0-0.57,0-0.851,0
	c0-0.86,0-1.71,0-2.57c-0.859,0-1.72,0-2.569,0c0-0.43,0-0.86,0-1.29c0-0.28,0-0.57,0-0.85c-0.86,0-1.721,0-2.57,0
	c0-0.86,0-1.711,0-2.57c-0.43,0-0.86,0-1.29,0c-0.28,0-0.57,0-0.85,0c-0.86,0-1.721,0-2.57,0c0-0.86,0-1.71,0-2.57
	c-0.43,0-0.86,0-1.29,0c-0.29,0-0.57,0-0.851,0c-1.289,0-2.579,0-3.859,0c-1.141,0-2.29,0-3.43,0c-2.28,0-4.56,0-6.85,0
	c-1.28,0-2.57,0-3.85,0c-1.14,0-2.29,0-3.43,0s-2.28,0-3.43,0c-0.57,0-1.14,0-1.71,0s-1.14,0-1.71,0c-0.14,0-0.29,0-0.43,0H16.7
	c0-0.29,0-0.57,0-0.859c0-1.28,0-2.57,0-3.851h2.14c1.57,0,3.14,0,4.71,0c0-0.29,0-0.57,0-0.86c0-0.43,0-0.859,0-1.279
	c0.86,0,1.71,0,2.57,0C26.12,16.42,26.12,16.13,26.12,15.85z M28.26,13.279c0,0.28,0,0.57,0,0.86c0.86,0,1.72,0,2.57,0
	c0-0.43,0-0.86,0-1.29c0-0.29,0-0.57,0-0.86c-0.85,0-1.71,0-2.57,0C28.26,12.42,28.26,12.85,28.26,13.279z"/>
<path fill="#A73123" d="M68.52,42.83c-2.28,0-4.57,0-6.85,0c0-0.851,0-1.71,0-2.57c0-0.71,0-1.43,0-2.14c0.859,0,1.71,0,2.569,0
	c0,0.29,0,0.569,0,0.859c0,0.431,0,0.851,0,1.28c0.28,0,0.57,0,0.86,0c1.28,0,2.57,0,3.85,0c0-0.28,0-0.57,0-0.85
	c0-0.431,0-0.86,0-1.29c0.29,0,0.57,0,0.86,0c0.42,0,0.85,0,1.28,0c0-0.28,0-0.57,0-0.86c0-1.28,0-2.57,0-3.85
	c0.859,0,1.72,0,2.569,0c0-0.29,0-0.57,0-0.86c0-3,0-6,0-8.99c0.431,0,0.86,0,1.29,0c0.28,0,0.57,0,0.851,0c0,3.28,0,6.57,0,9.851
	c0,0.859,0,1.71,0,2.569c0,0.431,0,0.86,0,1.28c0,0.29,0,0.58,0,0.86c0,0.859,0,1.71,0,2.569c0,0.71,0,1.431,0,2.141
	c-1.28,0-2.57,0-3.851,0C70.81,42.83,69.66,42.83,68.52,42.83z"/>
<path fill="#211F30" d="M61.67,4.71c0.859,0,1.71,0,2.569,0c0,0.859,0,1.72,0,2.569c-0.29,0-0.569,0-0.859,0
	c-0.431,0-0.851,0-1.28,0c-0.86,0-1.72,0-2.57,0c0-0.85,0-1.71,0-2.569c0.28,0,0.57,0,0.851,0C60.81,4.71,61.24,4.71,61.67,4.71z"/>
<path fill="#A73123" d="M61.67,35.979c0,0.28,0,0.57,0,0.86c0,0.42,0,0.85,0,1.28c-0.29,0-0.57,0-0.86,0c-0.43,0-0.85,0-1.28,0
	c0-0.28,0-0.57,0-0.86c0-0.42,0-0.85,0-1.28c0-0.859,0-1.71,0-2.569c0.28,0,0.57,0,0.851,0c0.43,0,0.859,0,1.29,0
	c0,0.43,0,0.859,0,1.279C61.67,35.12,61.67,35.55,61.67,35.979z"/>
<path fill="#A73123" d="M59.53,30.84c0,0.86,0,1.71,0,2.57c-0.859,0-1.72,0-2.569,0c0-0.86,0-1.71,0-2.57
	C57.81,30.84,58.67,30.84,59.53,30.84z"/>
<path fill="#211F30" d="M59.53,37.26c0,0.29,0,0.58,0,0.86c-0.859,0-1.72,0-2.569,0c0-0.28,0-0.57,0-0.86c0-0.42,0-0.85,0-1.28
	c0-0.859,0-1.71,0-2.569c0.85,0,1.71,0,2.569,0c0,0.859,0,1.71,0,2.569C59.53,36.41,59.53,36.84,59.53,37.26z"/>
<path fill="#D98249" d="M59.53,40.26c0,0.86,0,1.72,0,2.57c-0.43,0-0.859,0-1.29,0c-0.43,0-0.85,0-1.279,0c0-0.28,0-0.57,0-0.851
	c0-1.29,0-2.569,0-3.859c0.85,0,1.71,0,2.569,0C59.53,38.83,59.53,39.55,59.53,40.26z"/>
<path fill="#A73123" d="M56.96,28.7c0,0.279,0,0.569,0,0.85c0,0.43,0,0.86,0,1.29c-0.86,0-1.721,0-2.57,0c0-0.43,0-0.86,0-1.29
	c0-0.28,0-0.57,0-0.85C55.24,28.7,56.1,28.7,56.96,28.7z"/>
<path fill="#211F30" d="M56.96,30.84c0,0.86,0,1.71,0,2.57c-0.86,0-1.721,0-2.57,0c0-0.86,0-1.71,0-2.57
	C55.24,30.84,56.1,30.84,56.96,30.84z"/>
<path fill="#D98249" d="M56.96,37.26c0,0.29,0,0.58,0,0.86c-0.86,0-1.721,0-2.57,0c0-0.28,0-0.57,0-0.86c0-0.42,0-0.85,0-1.28
	c0-0.859,0-1.71,0-2.569c0.85,0,1.71,0,2.57,0c0,0.859,0,1.71,0,2.569C56.96,36.41,56.96,36.84,56.96,37.26z"/>
<path fill="#211F30" d="M54.39,28.7c0,0.279,0,0.569,0,0.85c0,0.43,0,0.86,0,1.29c-0.29,0-0.57,0-0.86,0c-0.43,0-0.85,0-1.279,0
	c0-0.43,0-0.86,0-1.29c0-0.28,0-0.57,0-0.85c0.43,0,0.85,0,1.279,0C53.82,28.7,54.1,28.7,54.39,28.7z"/>
<path fill="#D98249" d="M54.39,30.84c0,0.86,0,1.71,0,2.57c-0.29,0-0.57,0-0.86,0c-0.43,0-0.85,0-1.279,0c0-0.86,0-1.71,0-2.57
	c0.43,0,0.85,0,1.279,0C53.82,30.84,54.1,30.84,54.39,30.84z"/>
<path fill="#211F30" d="M54.39,35.979c0,0.431,0,0.86,0,1.28c0,0.29,0,0.58,0,0.86c-0.29,0-0.57,0-0.86,0c-0.43,0-0.85,0-1.279,0
	c0-0.86,0-1.71,0-2.57c0-0.43,0-0.86,0-1.28c0-0.29,0-0.58,0-0.859c0.43,0,0.85,0,1.279,0c0.29,0,0.57,0,0.86,0
	C54.39,34.27,54.39,35.12,54.39,35.979z"/>
<path fill="#34343D" d="M54.39,38.979c0,0.431,0,0.851,0,1.28c-0.29,0-0.57,0-0.86,0c-0.43,0-0.85,0-1.279,0c0-0.43,0-0.85,0-1.28
	c0-0.29,0-0.569,0-0.859c0.43,0,0.85,0,1.279,0c0.29,0,0.57,0,0.86,0C54.39,38.41,54.39,38.689,54.39,38.979z"/>
<path fill="#A73123" d="M54.39,26.13c0,0.859,0,1.71,0,2.57c-0.29,0-0.57,0-0.86,0c-0.43,0-0.85,0-1.279,0c0-0.86,0-1.711,0-2.57
	c0.279,0,0.569,0,0.85,0C53.53,26.13,53.96,26.13,54.39,26.13z"/>
<path fill="#D98249" d="M49.68,28.7c0.85,0,1.71,0,2.57,0c0,0.279,0,0.569,0,0.85c0,0.43,0,0.86,0,1.29c-0.86,0-1.721,0-2.57,0
	c-0.43,0-0.86,0-1.29,0c-0.29,0-0.57,0-0.851,0c0-0.43,0-0.86,0-1.29c0-0.28,0-0.57,0-0.85c0.28,0,0.561,0,0.851,0
	C48.82,28.7,49.25,28.7,49.68,28.7z"/>
<path fill="#211F30" d="M49.68,30.84c0.85,0,1.71,0,2.57,0c0,0.86,0,1.71,0,2.57c-0.86,0-1.721,0-2.57,0c-0.43,0-0.86,0-1.29,0
	c-0.29,0-0.57,0-0.851,0c0-0.86,0-1.71,0-2.57c0.28,0,0.561,0,0.851,0C48.82,30.84,49.25,30.84,49.68,30.84z"/>
<path fill="#211F30" d="M50.53,2.14c0.431,0,0.86,0,1.29,0c0.86,0,1.71,0,2.57,0c1.71,0,3.42,0,5.14,0c0,0.86,0,1.72,0,2.57
	c-3.29,0-6.569,0-9.85,0c0-0.851,0-1.71,0-2.57C49.96,2.14,50.25,2.14,50.53,2.14z"/>
<path fill="#34343D" d="M49.68,33.41c0.85,0,1.71,0,2.57,0c0,0.279,0,0.569,0,0.859c0,0.42,0,0.851,0,1.28c-0.29,0-0.58,0-0.86,0
	c-0.43,0-0.86,0-1.28,0c-0.43,0-0.859,0-1.29,0c-0.43,0-0.859,0-1.28,0c0-0.29,0-0.57,0-0.86c0-0.42,0-0.85,0-1.279
	c0.28,0,0.561,0,0.851,0C48.82,33.41,49.25,33.41,49.68,33.41z"/>
<path fill="#211F30" d="M49.68,26.13c0.85,0,1.71,0,2.57,0c0,0.859,0,1.71,0,2.57c-0.86,0-1.721,0-2.57,0c-0.43,0-0.86,0-1.29,0
	c-0.29,0-0.57,0-0.851,0c0-0.86,0-1.711,0-2.57c0.421,0,0.851,0,1.28,0C49.11,26.13,49.39,26.13,49.68,26.13z"/>
<path fill="#A73123" d="M49.68,23.56c0,0.86,0,1.71,0,2.57c-0.29,0-0.57,0-0.86,0c-0.43,0-0.859,0-1.28,0c0-0.86,0-1.71,0-2.57
	c0.28,0,0.561,0,0.851,0C48.82,23.56,49.25,23.56,49.68,23.56z"/>
<path fill="#3A160D" d="M30.83,12.85c0,0.43,0,0.86,0,1.29c-0.85,0-1.71,0-2.57,0c0-0.29,0-0.58,0-0.86c0-0.43,0-0.859,0-1.29
	c0.86,0,1.72,0,2.57,0C30.83,12.279,30.83,12.56,30.83,12.85z"/>
<path fill="#211F30" d="M30.4,0c0.58,0,1.15,0,1.72,0c2,0,4,0,5.99,0c3.86,0,7.71,0,11.57,0c0,0.29,0,0.569,0,0.859
	c0,0.431,0,0.86,0,1.28c-0.15,0-0.29,0-0.43,0c-3.851,0-7.711,0-11.57,0c-3.85,0-7.7,0-11.56,0c0-0.28,0-0.57,0-0.85
	c0-0.431,0-0.86,0-1.29c0.57,0,1.14,0,1.71,0c0.43,0,0.86,0,1.29,0C29.55,0,29.98,0,30.4,0z"/>
<path fill="#34343D" d="M29.12,30.84c1.28,0,2.57,0,3.85,0c1.15,0,2.29,0,3.43,0c1.28,0,2.57,0,3.85,0c1.14,0,2.29,0,3.43,0
	c1.28,0,2.57,0,3.859,0c0,0.86,0,1.71,0,2.57c-0.859,0-1.72,0-2.579,0c-3.99,0-7.99,0-11.99,0c-0.42,0-0.85,0-1.28,0
	c-0.29,0-0.57,0-0.86,0c-4,0-7.99,0-11.99,0c0-0.86,0-1.71,0-2.57c2.28,0,4.57,0,6.85,0C26.83,30.84,27.98,30.84,29.12,30.84z"/>
<path fill="#211F30" d="M32.97,30.84c-1.28,0-2.57,0-3.85,0c-1.14,0-2.29,0-3.43,0c-2.28,0-4.57,0-6.85,0c0-0.43,0-0.86,0-1.29
	c0-0.28,0-0.57,0-0.85c2.28,0,4.57,0,6.85,0c1.14,0,2.29,0,3.43,0c0.57,0,1.14,0,1.71,0c0.29,0,0.57,0,0.86,0c0.43,0,0.86,0,1.28,0
	c1.15,0,2.29,0,3.43,0c0.57,0,1.14,0,1.71,0c0.29,0,0.57,0,0.86,0c0.43,0,0.86,0,1.28,0c1.14,0,2.29,0,3.43,0c0.57,0,1.14,0,1.72,0
	c0.28,0,0.57,0,0.851,0c0.43,0,0.859,0,1.289,0c0,0.279,0,0.569,0,0.85c0,0.43,0,0.86,0,1.29c-1.289,0-2.579,0-3.859,0
	c-1.141,0-2.29,0-3.43,0c-1.28,0-2.57,0-3.85,0C35.26,30.84,34.12,30.84,32.97,30.84z"/>
<path fill="#D98249" d="M31.69,28.7c-0.29,0-0.57,0-0.86,0c-0.57,0-1.14,0-1.71,0c-1.14,0-2.29,0-3.43,0c-2.28,0-4.57,0-6.85,0
	c0-0.86,0-1.711,0-2.57c2.28,0,4.57,0,6.85,0c1.14,0,2.29,0,3.43,0c1.28,0,2.57,0,3.85,0c1.15,0,2.29,0,3.43,0c1.28,0,2.57,0,3.85,0
	c1.14,0,2.29,0,3.43,0c1.28,0,2.57,0,3.859,0c0,0.859,0,1.71,0,2.57c-0.43,0-0.859,0-1.289,0c-0.28,0-0.57,0-0.851,0
	c-0.58,0-1.149,0-1.72,0c-1.141,0-2.29,0-3.43,0c-0.42,0-0.85,0-1.28,0c-0.29,0-0.57,0-0.86,0c-0.57,0-1.14,0-1.71,0
	c-1.14,0-2.28,0-3.43,0C32.55,28.7,32.12,28.7,31.69,28.7z"/>
<path fill="#211F30" d="M26.12,2.14c0,0.86,0,1.72,0,2.57c-1.28,0-2.57,0-3.85,0c-1.15,0-2.29,0-3.43,0c0-0.851,0-1.71,0-2.57
	C21.27,2.14,23.69,2.14,26.12,2.14z"/>
<path fill="#211F30" d="M29.55,23.56c1.28,0,2.57,0,3.85,0c2.29,0,4.57,0,6.85,0c1.14,0,2.29,0,3.43,0c1.28,0,2.57,0,3.859,0
	c0,0.86,0,1.71,0,2.57c-1.289,0-2.579,0-3.859,0c-1.141,0-2.29,0-3.43,0c-1.28,0-2.57,0-3.85,0c-1.14,0-2.28,0-3.43,0
	c-1.28,0-2.57,0-3.85,0c-1.14,0-2.29,0-3.43,0c-2.28,0-4.57,0-6.85,0c0-0.43,0-0.86,0-1.29c0-0.42,0-0.86,0-1.28
	c0.14,0,0.29,0,0.43,0c0.57,0,1.14,0,1.71,0s1.14,0,1.71,0c1.15,0,2.29,0,3.43,0S28.41,23.56,29.55,23.56z"/>
<path fill="#3A160D" d="M26.12,15.85c0,0.28,0,0.57,0,0.86c-0.86,0-1.71,0-2.57,0c0,0.42,0,0.85,0,1.279c0,0.29,0,0.57,0,0.86
	c-1.57,0-3.14,0-4.71,0c0-0.57,0-1.149,0-1.72c0-0.141,0-0.28,0-0.42c-0.43,0-0.86,0-1.29,0c-0.28,0-0.57,0-0.85,0
	c0-1.29,0-2.57,0-3.86c0-0.29,0-0.57,0-0.86c0.43,0,0.85,0,1.28,0c0.29,0,0.57,0,0.86,0c0-0.85,0-1.71,0-2.56c1.29,0,2.57,0,3.85,0
	c0.29,0,0.57,0,0.86,0c0,0.85,0,1.71,0,2.56c0.86,0,1.71,0,2.57,0C26.12,13.279,26.12,14.56,26.12,15.85z"/>
<path fill="#D98249" d="M16.27,28.7c0.86,0,1.71,0,2.57,0c0,0.279,0,0.569,0,0.85c0,0.43,0,0.86,0,1.29c-0.86,0-1.71,0-2.57,0
	c-0.43,0-0.86,0-1.28,0c-0.29,0-0.58,0-0.86,0c0-0.29,0-0.57,0-0.86c0-0.43,0-0.85,0-1.279c0.28,0,0.57,0,0.86,0
	C15.41,28.7,15.84,28.7,16.27,28.7z"/>
<path fill="#211F30" d="M16.27,30.84c0.86,0,1.71,0,2.57,0c0,0.86,0,1.71,0,2.57c-0.86,0-1.71,0-2.57,0c-0.43,0-0.86,0-1.28,0
	c-0.29,0-0.58,0-0.86,0c0-0.86,0-1.71,0-2.57c0.28,0,0.57,0,0.86,0C15.41,30.84,15.84,30.84,16.27,30.84z"/>
<path fill="#3A160D" d="M16.7,23.56c-1.71,0-3.43,0-5.14,0c0-1.14,0-2.29,0-3.43c0-0.43,0-0.851,0-1.28c1.71,0,3.43,0,5.14,0
	c0,1.28,0,2.57,0,3.851C16.7,22.989,16.7,23.27,16.7,23.56z"/>
<path fill="#211F30" d="M18.84,28.7c-0.86,0-1.71,0-2.57,0c-0.43,0-0.86,0-1.28,0c-0.29,0-0.58,0-0.86,0c0-0.86,0-1.711,0-2.57
	c0.43,0,0.86,0,1.28,0c0.43,0,0.86,0,1.29,0c0.28,0,0.57,0,0.85,0c0.43,0,0.86,0,1.29,0C18.84,26.989,18.84,27.84,18.84,28.7z"/>
<path fill="#211F30" d="M14.99,4.71c0.42,0,0.85,0,1.28,0c0.86,0,1.71,0,2.57,0c0,0.859,0,1.72,0,2.569c-0.43,0-0.86,0-1.29,0
	c-0.42,0-0.85,0-1.28,0c-0.29,0-0.57,0-0.86,0c-0.42,0-0.85,0-1.28,0c0-0.85,0-1.71,0-2.569C14.41,4.71,14.7,4.71,14.99,4.71z"/>
<path fill="#211F30" d="M14.13,7.279c0,0.29,0,0.57,0,0.86c0,0.43,0,0.86,0,1.29c-0.86,0-1.71,0-2.57,0c0-0.43,0-0.86,0-1.29
	c0-0.29,0-0.57,0-0.86C12.42,7.279,13.27,7.279,14.13,7.279z"/>
<path fill="#211F30" d="M14.13,28.7c0,0.43,0,0.85,0,1.279c0,0.29,0,0.57,0,0.86c-0.86,0-1.71,0-2.57,0c0-0.29,0-0.57,0-0.86
	c0-0.43,0-0.85,0-1.279C12.42,28.7,13.27,28.7,14.13,28.7z"/>
<path fill="#D98249" d="M14.13,30.84c0,0.86,0,1.71,0,2.57c-0.86,0-1.71,0-2.57,0c0-0.86,0-1.71,0-2.57
	C12.42,30.84,13.27,30.84,14.13,30.84z"/>
<path fill="#211F30" d="M14.13,33.41c0,0.859,0,1.71,0,2.569c0,0.431,0,0.86,0,1.28c0,0.29,0,0.58,0,0.86c-0.86,0-1.71,0-2.57,0
	c0-0.28,0-0.57,0-0.86c0-0.42,0-0.85,0-1.28c0-0.859,0-1.71,0-2.569C12.42,33.41,13.27,33.41,14.13,33.41z"/>
<path fill="#34343D" d="M16.27,33.41c0.86,0,1.71,0,2.57,0c0,0.859,0,1.71,0,2.569c0,0.431,0,0.86,0,1.28c0,0.29,0,0.58,0,0.86
	c-0.43,0-0.86,0-1.29,0c-0.28,0-0.57,0-0.85,0c0,0.43,0,0.859,0,1.29c0,0.42,0,0.85,0,1.279c0,0.71,0,1.431,0,2.141
	c-1.71,0-3.43,0-5.14,0c0-0.851,0-1.71,0-2.57c0-0.71,0-1.43,0-2.14c0.86,0,1.71,0,2.57,0c0-0.28,0-0.57,0-0.86
	c0-0.42,0-0.85,0-1.28c0-0.859,0-1.71,0-2.569c0.28,0,0.57,0,0.86,0C15.41,33.41,15.84,33.41,16.27,33.41z"/>
<path fill="#D98249" d="M11.56,33.41c0,0.859,0,1.71,0,2.569c0,0.431,0,0.86,0,1.28c0,0.29,0,0.58,0,0.86c-0.29,0-0.57,0-0.86,0
	c-0.43,0-0.85,0-1.28,0c0-0.57,0-1.141,0-1.71c0-0.29,0-0.57,0-0.86c0-0.43,0-0.86,0-1.28c0-0.29,0-0.58,0-0.859
	c0.43,0,0.85,0,1.28,0C10.99,33.41,11.27,33.41,11.56,33.41z"/>
<path fill="#211F30" d="M10.7,9.43c0.29,0,0.57,0,0.86,0c0,0.85,0,1.71,0,2.56c-0.29,0-0.57,0-0.86,0c-0.43,0-0.85,0-1.28,0
	c0-0.85,0-1.71,0-2.56C9.85,9.43,10.27,9.43,10.7,9.43z"/>
<path fill="#211F30" d="M11.56,30.84c0,0.86,0,1.71,0,2.57c-0.29,0-0.57,0-0.86,0c-0.43,0-0.85,0-1.28,0c0-0.86,0-1.71,0-2.57
	c0.28,0,0.57,0,0.85,0C10.7,30.84,11.13,30.84,11.56,30.84z"/>
<path fill="#211F30" d="M9.42,11.989c0,0.29,0,0.57,0,0.86c0,0.43,0,0.86,0,1.29c-0.86,0-1.72,0-2.57,0c0-0.43,0-0.86,0-1.29
	c0-0.29,0-0.57,0-0.86C7.7,11.989,8.56,11.989,9.42,11.989z"/>
<path fill="#211F30" d="M9.42,36.41c0,0.569,0,1.14,0,1.71c-0.86,0-1.72,0-2.57,0c0-0.28,0-0.57,0-0.86c0-0.42,0-0.85,0-1.28
	c0-0.859,0-1.71,0-2.569c0.85,0,1.71,0,2.57,0c0,0.279,0,0.569,0,0.859c0,0.42,0,0.851,0,1.28C9.42,35.84,9.42,36.12,9.42,36.41z"/>
<path fill="#D98249" d="M9.42,40.26c0,0.86,0,1.72,0,2.57c-0.57,0-1.14,0-1.72,0c-0.28,0-0.57,0-0.85,0c0-0.28,0-0.57,0-0.851
	c0-1.29,0-2.569,0-3.859c0.85,0,1.71,0,2.57,0C9.42,38.83,9.42,39.55,9.42,40.26z"/>
<path fill="#D6412C" d="M5.99,18.85c0.29,0,0.57,0,0.86,0c0-0.86,0-1.72,0-2.57c0-0.43,0-0.859,0-1.29c0-0.279,0-0.569,0-0.85
	c0.85,0,1.71,0,2.57,0c0-0.43,0-0.86,0-1.29c0-0.29,0-0.57,0-0.86c0.43,0,0.85,0,1.28,0c0.29,0,0.57,0,0.86,0c0-0.85,0-1.71,0-2.56
	c0.86,0,1.71,0,2.57,0c0-0.43,0-0.86,0-1.29c0-0.29,0-0.57,0-0.86c0.43,0,0.86,0,1.28,0c0.29,0,0.57,0,0.86,0c0.43,0,0.86,0,1.28,0
	c0.43,0,0.86,0,1.29,0v2.15c0,0.85,0,1.71,0,2.56c-0.29,0-0.57,0-0.86,0c-0.43,0-0.85,0-1.28,0c0,0.29,0,0.57,0,0.86
	c0,1.29,0,2.57,0,3.86c0.28,0,0.57,0,0.85,0c0.43,0,0.86,0,1.29,0c0,0.14,0,0.279,0,0.42c0,0.57,0,1.149,0,1.72H16.7
	c-1.71,0-3.43,0-5.14,0c0,0.43,0,0.851,0,1.28c0,1.14,0,2.29,0,3.43c1.71,0,3.43,0,5.14,0h2.14c0,0.42,0,0.86,0,1.28
	c0,0.43,0,0.86,0,1.29c-0.43,0-0.86,0-1.29,0c-0.28,0-0.57,0-0.85,0c-0.43,0-0.86,0-1.29,0c-0.42,0-0.85,0-1.28,0
	c0,0.859,0,1.71,0,2.57c-0.86,0-1.71,0-2.57,0c0,0.43,0,0.85,0,1.279c0,0.29,0,0.57,0,0.86c-0.43,0-0.86,0-1.29,0
	c-0.28,0-0.57,0-0.85,0c0,0.86,0,1.71,0,2.57c-0.86,0-1.72,0-2.57,0c0,0.859,0,1.71,0,2.569c0,0.431,0,0.86,0,1.28
	c0,0.29,0,0.58,0,0.86c-0.29,0-0.57,0-0.86,0c-0.43,0-0.86,0-1.28,0c0,0.43,0,0.859,0,1.29c0,0.279,0,0.569,0,0.85
	c-0.86,0-1.72,0-2.57,0c0-2.85,0-5.71,0-8.56c0-0.431,0-0.86,0-1.29c0-0.28,0-0.57,0-0.86c0-0.42,0-0.85,0-1.28
	c0-0.29,0-0.569,0-0.859c0-1.28,0-2.57,0-3.851c0.85,0,1.71,0,2.57,0c0-0.859,0-1.71,0-2.57c0-0.43,0-0.859,0-1.289
	c0-0.28,0-0.57,0-0.851C5.13,18.85,5.56,18.85,5.99,18.85z"/>
<path fill="#211F30" d="M5.99,38.12c0.29,0,0.57,0,0.86,0c0,1.29,0,2.569,0,3.859c0,0.28,0,0.57,0,0.851c0.28,0,0.57,0,0.85,0
	c0.58,0,1.15,0,1.72,0c0-0.851,0-1.71,0-2.57c0-0.71,0-1.43,0-2.14c0.43,0,0.85,0,1.28,0c0.29,0,0.57,0,0.86,0c0,0.71,0,1.43,0,2.14
	c0,0.86,0,1.72,0,2.57c1.71,0,3.43,0,5.14,0c0.43,0,0.85,0,1.28,0c0.29,0,0.57,0,0.86,0c0.86,0,1.71,0,2.57,0c0-0.851,0-1.71,0-2.57
	c2.28,0,4.57,0,6.85,0c0,0.86,0,1.72,0,2.57c0.86,0,1.72,0,2.57,0c0.43,0,0.86,0,1.29,0c0.28,0,0.57,0,0.85,0c0.86,0,1.72,0,2.57,0
	c0-0.851,0-1.71,0-2.57c2.43,0,4.86,0,7.28,0c0,0.86,0,1.72,0,2.57c0.431,0,0.86,0,1.29,0c0.28,0,0.57,0,0.851,0
	c0.29,0,0.579,0,0.859,0c0.431,0,0.86,0,1.29,0c0.851,0,1.71,0,2.57,0c0.28,0,0.57,0,0.85,0c0.431,0,0.86,0,1.29,0
	c0.86,0,1.71,0,2.57,0c0-0.851,0-1.71,0-2.57c0-0.43,0-0.85,0-1.28c0-0.29,0-0.569,0-0.859c0.85,0,1.71,0,2.57,0
	c0,1.29,0,2.569,0,3.859c0,0.28,0,0.57,0,0.851c0.43,0,0.85,0,1.279,0c0.431,0,0.86,0,1.29,0c0-0.851,0-1.71,0-2.57
	c0-0.71,0-1.43,0-2.14c0.431,0,0.851,0,1.28,0c0.29,0,0.57,0,0.86,0c0,0.71,0,1.43,0,2.14c0,0.86,0,1.72,0,2.57
	c2.279,0,4.569,0,6.85,0c1.14,0,2.29,0,3.43,0c1.28,0,2.57,0,3.851,0c0,0.43,0,0.859,0,1.279c0,0.29,0,0.58,0,0.86
	c-6.141,0-12.28,0-18.41,0c-6.14,0-12.28,0-18.42,0c-6.14,0-12.28,0-18.42,0c-6.14,0-12.27,0-18.41,0c0-0.28,0-0.57,0-0.86
	c0-0.42,0-0.85,0-1.279c0.85,0,1.71,0,2.57,0c0-0.851,0-1.71,0-2.57c0-0.28,0-0.57,0-0.85c0-0.431,0-0.86,0-1.29
	C5.13,38.12,5.56,38.12,5.99,38.12z"/>
<path fill="#211F30" d="M4.71,16.71c0-0.86,0-1.721,0-2.57c0.42,0,0.85,0,1.28,0c0.29,0,0.57,0,0.86,0c0,0.28,0,0.57,0,0.85
	c0,0.431,0,0.86,0,1.29c0,0.851,0,1.71,0,2.57c-0.29,0-0.57,0-0.86,0c-0.43,0-0.86,0-1.28,0C4.71,18.13,4.71,17.42,4.71,16.71z"/>
<path fill="#211F30" d="M4.71,19.7c0,0.43,0,0.859,0,1.289c0,0.86,0,1.711,0,2.57c-0.86,0-1.72,0-2.57,0c0-0.29,0-0.57,0-0.859
	c0-0.431,0-0.851,0-1.28c0-0.431,0-0.86,0-1.29s0-0.851,0-1.28c0.85,0,1.71,0,2.57,0C4.71,19.13,4.71,19.42,4.71,19.7z"/>
<path fill="#A73123" d="M4.71,40.26c0,0.86,0,1.72,0,2.57c-0.86,0-1.72,0-2.57,0c0-0.851,0-1.71,0-2.57
	C2.99,40.26,3.85,40.26,4.71,40.26z"/>
<path fill="#211F30" d="M2.14,40.26c0,0.86,0,1.72,0,2.57c-0.29,0-0.57,0-0.86,0c-0.43,0-0.86,0-1.28,0c0-0.431,0-0.851,0-1.28
	s0-0.86,0-1.29c0-0.85,0-1.71,0-2.57c0-0.279,0-0.569,0-0.85c0-0.43,0-0.86,0-1.29c0-0.86,0-1.71,0-2.57c0-0.29,0-0.569,0-0.859
	c0-0.42,0-0.851,0-1.28c0-0.86,0-1.71,0-2.57c0-0.29,0-0.569,0-0.859c0-0.421,0-0.86,0-1.28c0-0.86,0-1.71,0-2.57
	c0.28,0,0.57,0,0.85,0c0.43,0,0.86,0,1.29,0c0,1.28,0,2.57,0,3.851c0,0.29,0,0.569,0,0.859c0,0.431,0,0.86,0,1.28
	c0,0.29,0,0.58,0,0.86c0,0.43,0,0.859,0,1.29C2.14,34.55,2.14,37.41,2.14,40.26z"/>
</svg>
