<?xml version="1.0" encoding="utf-8"?>
<!-- Generator: Adobe Illustrator 15.0.0, SVG Export Plug-In  -->
<!DOCTYPE svg PUBLIC "-//W3C//DTD SVG 1.1//EN" "http://www.w3.org/Graphics/SVG/1.1/DTD/svg11.dtd" [
	<!ENTITY ns_flows "http://ns.adobe.com/Flows/1.0/">
]>
<svg version="1.1"
	 xmlns="http://www.w3.org/2000/svg" xmlns:xlink="http://www.w3.org/1999/xlink" xmlns:a="http://ns.adobe.com/AdobeSVGViewerExtensions/3.0/"
	 x="0px" y="0px" width="110px" height="70px" viewBox="-15.792 -25.027 110 70" enable-background="new -15.792 -25.027 110 70"
	 xml:space="preserve">
<defs>
</defs>
<path fill-rule="evenodd" clip-rule="evenodd" fill="#211F30" d="M50.11,2.143c-7.994,0-15.99,0-23.983,0c0-0.286,0-0.572,0-0.857
	c0-0.429,0-0.855,0-1.285C34.12,0,42.116,0,50.11,0c0,0.286,0,0.572,0,0.856C50.11,1.285,50.11,1.714,50.11,2.143z"/>
<path fill-rule="evenodd" clip-rule="evenodd" fill="#211F30" d="M26.126,2.143c0,0.856,0,1.713,0,2.569c-2.285,0-4.569,0-6.853,0
	c0-0.856,0-1.713,0-2.569C21.558,2.143,23.842,2.143,26.126,2.143z"/>
<path fill-rule="evenodd" clip-rule="evenodd" fill="#D6412C" d="M26.126,2.143c7.993,0,15.989,0,23.983,0c0,0.856,0,1.713,0,2.569
	c0.856,0,1.715,0,2.57,0c0.428,0,0.856,0,1.285,0c0.285,0,0.57,0,0.856,0c0.856,0,1.714,0,2.569,0c0.428,0,0.856,0,1.285,0
	c0.287,0,0.57,0,0.856,0c0,0.857,0,1.713,0,2.57c0.856,0,1.714,0,2.569,0c0.43,0,0.856,0,1.285,0c0.286,0,0.57,0,0.857,0
	c0,0.427,0,0.856,0,1.285c0,0.285,0,0.571,0,0.857c0.855,0,1.713,0,2.569,0c0,0.855,0,1.712,0,2.568c0.429,0,0.856,0,1.284,0
	c0.286,0,0.572,0,0.857,0c0,0.429,0,0.856,0,1.284c0,0.286,0,0.572,0,0.856c0.855,0,1.713,0,2.569,0c0,1.572,0,3.143,0,4.713
	c0.429,0,0.856,0,1.285,0c0.286,0,0.571,0,0.856,0c0,1.569,0,3.14,0,4.711c0,0.856,0,1.71,0,2.569c0,0.426,0,0.857,0,1.284
	c0,0.429,0,0.857,0,1.286c0,0.427,0,0.856,0,1.284c0,0.429,0,0.858,0,1.285c0,0.428,0,0.854,0,1.286c0,0.284,0,0.57,0,0.853
	c-0.428,0-0.856,0-1.285,0c-0.285,0-0.57,0-0.856,0c0,1.286,0,2.57,0,3.856c0,0.286,0,0.572,0,0.857c-0.856,0-1.714,0-2.569,0
	c0,0.429,0,0.856,0,1.285c0,0.285,0,0.571,0,0.857c-1.571,0-3.141,0-4.711,0c0-0.572,0-1.144,0-1.714c0-0.143,0-0.288,0-0.429
	c-0.43,0-0.857,0-1.286,0c-0.285,0-0.57,0-0.856,0c0-0.428,0-0.857,0-1.284c0-0.286,0-0.573,0-0.859c0-0.427,0-0.854,0-1.284
	c0-0.427,0-0.854,0-1.286c-0.855,0-1.713,0-2.569,0c0-0.853,0-1.711,0-2.565c-0.429,0-0.856,0-1.285,0c-0.285,0-0.569,0-0.856,0
	c0-0.43,0-0.858,0-1.286c0-0.286,0-0.57,0-0.856c-0.855,0-1.713,0-2.569,0c0-0.857,0-1.713,0-2.57c-0.856,0-1.714,0-2.569,0
	c-0.428,0-0.857,0-1.286,0c-0.286,0-0.569,0-0.856,0c0-0.859,0-1.713,0-2.569c-0.855,0-1.713,0-2.57,0c-1.284,0-2.569,0-3.854,0
	c-1.143,0-2.285,0-3.427,0c-2.284,0-4.568,0-6.852,0c-2.285,0-4.568,0-6.853,0c-1.143,0-2.284,0-3.426,0c-0.571,0-1.142,0-1.714,0
	c-0.713,0-1.428,0-2.141,0c0,0.426,0,0.856,0,1.284c0,0.426,0,0.857,0,1.285c-1.428,0-2.855,0-4.283,0c-0.143,0-0.285,0-0.428,0
	c0,0.857,0,1.713,0,2.57c-0.856,0-1.713,0-2.57,0c0,0.427,0,0.856,0,1.284c0,0.286,0,0.572,0,0.858c-0.856,0-1.714,0-2.57,0
	c0,0.854,0,1.713,0,2.565c-0.428,0-0.856,0-1.285,0c-0.285,0-0.57,0-0.856,0c0,0.859,0,1.717,0,2.57c0,0.431,0,0.859,0,1.286
	c0,0.286,0,0.572,0,0.857c-0.856,0-1.713,0-2.57,0c0,0.429,0,0.856,0,1.285c0,0.285,0,0.571,0,0.857c-0.428,0-0.856,0-1.285,0
	c-0.286,0-0.571,0-0.856,0c0-2.856,0-5.712,0-8.567c0-0.428,0-0.854,0-1.284c0-0.286,0-0.574,0-0.856c0-0.43,0-0.856,0-1.285
	c0-0.285,0-0.571,0-0.857c0-1.284,0-2.569,0-3.854c0.429,0,0.856,0,1.285,0c0.285,0,0.571,0,0.856,0c0-0.859,0-1.713,0-2.571
	c0-0.427,0-0.854,0-1.284c0-0.286,0-0.571,0-0.855c0.856,0,1.713,0,2.57,0c0-0.857,0-1.714,0-2.57c0-0.43,0-0.856,0-1.285
	c0-0.285,0-0.571,0-0.857c0.571,0,1.143,0,1.713,0c0.143,0,0.286,0,0.428,0c0-0.427,0-0.856,0-1.284c0-0.286,0-0.572,0-0.856
	c0.856,0,1.714,0,2.57,0c0-0.856,0-1.713,0-2.568c0.856,0,1.713,0,2.57,0c0-0.431,0-0.857,0-1.286c0-0.286,0-0.57,0-0.856
	c1.428,0,2.854,0,4.282,0c0.143,0,0.286,0,0.429,0c0-0.857,0-1.713,0-2.57c2.284,0,4.568,0,6.853,0
	C26.126,3.855,26.126,2.999,26.126,2.143z M19.273,11.993c-0.856,0-1.713,0-2.57,0c0,0.284,0,0.57,0,0.856c0,1.284,0,2.57,0,3.854
	c0.429,0,0.856,0,1.285,0c0.429,0,0.856,0,1.285,0c0,0.286,0,0.572,0,0.856c0,0.429,0,0.856,0,1.286c1.571,0,3.141,0,4.711,0
	c0-0.286,0-0.571,0-0.857c0-0.429,0-0.856,0-1.285c0.143,0,0.286,0,0.429,0c0.57,0,1.142,0,1.713,0c0-1.57,0-3.141,0-4.711
	c-0.287,0-0.571,0-0.856,0c-0.429,0-0.856,0-1.285,0c0-0.856,0-1.713,0-2.568c-0.286,0-0.572,0-0.856,0c-1.285,0-2.57,0-3.855,0
	C19.273,10.28,19.273,11.137,19.273,11.993z M28.696,13.277c0,0.286,0,0.572,0,0.856c0.429,0,0.856,0,1.285,0
	c0.285,0,0.57,0,0.856,0c0-0.427,0-0.856,0-1.284c0-0.286,0-0.572,0-0.856c-0.428,0-0.856,0-1.286,0c-0.286,0-0.57,0-0.856,0
	C28.696,12.422,28.696,12.85,28.696,13.277z M11.993,20.132c0,0.569,0,1.141,0,1.713c0,0.571,0,1.141,0,1.713
	c0.285,0,0.571,0,0.856,0c1.285,0,2.569,0,3.854,0c0-1.571,0-3.142,0-4.711c-1.571,0-3.141,0-4.711,0
	C11.993,19.275,11.993,19.702,11.993,20.132z M66.814,28.697c0.429,0,0.856,0,1.284,0c0.286,0,0.572,0,0.857,0
	c0-0.857,0-1.713,0-2.57c-0.285,0-0.571,0-0.857,0c-0.428,0-0.855,0-1.284,0C66.814,26.984,66.814,27.84,66.814,28.697z
	 M64.245,32.121c0,1.145,0,2.287,0,3.428c0.285,0,0.572,0,0.855,0c1.285,0,2.57,0,3.855,0c0-1.57,0-3.143,0-4.709
	c-0.285,0-0.571,0-0.857,0c-1.284,0-2.568,0-3.854,0C64.245,31.267,64.245,31.694,64.245,32.121z"/>
<path fill-rule="evenodd" clip-rule="evenodd" fill="#211F30" d="M50.11,2.143c1.572,0,3.141,0,4.712,0s3.141,0,4.711,0
	c0,0.856,0,1.713,0,2.569c-0.286,0-0.569,0-0.856,0c-0.429,0-0.857,0-1.285,0c-0.855,0-1.713,0-2.569,0c-0.286,0-0.571,0-0.856,0
	c-0.429,0-0.857,0-1.285,0c-0.855,0-1.714,0-2.57,0C50.11,3.855,50.11,2.999,50.11,2.143z"/>
<path fill-rule="evenodd" clip-rule="evenodd" fill="#211F30" d="M14.563,4.712c0.713,0,1.428,0,2.141,0c0.856,0,1.713,0,2.57,0
	c0,0.857,0,1.713,0,2.57c-0.143,0-0.286,0-0.429,0c-1.428,0-2.854,0-4.282,0C14.563,6.425,14.563,5.569,14.563,4.712z"/>
<path fill-rule="evenodd" clip-rule="evenodd" fill="#211F30" d="M59.533,4.712c0.286,0,0.572,0,0.856,0c0.428,0,0.857,0,1.285,0
	c0.857,0,1.713,0,2.57,0c0,0.857,0,1.713,0,2.57c-0.287,0-0.571,0-0.857,0c-0.429,0-0.855,0-1.285,0c-0.855,0-1.713,0-2.569,0
	C59.533,6.425,59.533,5.569,59.533,4.712z"/>
<path fill-rule="evenodd" clip-rule="evenodd" fill="#211F30" d="M11.993,7.282c0.856,0,1.713,0,2.57,0c0,0.286,0,0.57,0,0.856
	c0,0.429,0,0.855,0,1.286c-0.856,0-1.713,0-2.57,0c0-0.286,0-0.572,0-0.857C11.993,8.139,11.993,7.709,11.993,7.282z"/>
<path fill-rule="evenodd" clip-rule="evenodd" fill="#211F30" d="M64.245,7.282c0.855,0,1.713,0,2.569,0c0,0.286,0,0.57,0,0.856
	c0,0.429,0,0.855,0,1.286c-0.856,0-1.714,0-2.569,0c0-0.286,0-0.572,0-0.857C64.245,8.139,64.245,7.709,64.245,7.282z"/>
<path fill-rule="evenodd" clip-rule="evenodd" fill="#211F30" d="M9.422,9.425c0.856,0,1.714,0,2.57,0c0,0.855,0,1.712,0,2.568
	c-0.856,0-1.714,0-2.57,0C9.422,11.137,9.422,10.28,9.422,9.425z"/>
<path fill-rule="evenodd" clip-rule="evenodd" fill="#3A160D" d="M19.273,9.425c1.285,0,2.57,0,3.855,0c0.284,0,0.57,0,0.856,0
	c0,0.855,0,1.712,0,2.568c0.429,0,0.856,0,1.285,0c0.285,0,0.569,0,0.856,0c0,1.57,0,3.141,0,4.711c-0.571,0-1.143,0-1.713,0
	c-0.143,0-0.286,0-0.429,0c0,0.429,0,0.856,0,1.285c0,0.286,0,0.571,0,0.857c-1.571,0-3.141,0-4.711,0c0-0.43,0-0.857,0-1.286
	c0-0.284,0-0.57,0-0.856c-0.429,0-0.856,0-1.285,0c-0.428,0-0.856,0-1.285,0c0-1.284,0-2.57,0-3.854c0-0.286,0-0.572,0-0.856
	c0.856,0,1.713,0,2.57,0C19.273,11.137,19.273,10.28,19.273,9.425z"/>
<path fill-rule="evenodd" clip-rule="evenodd" fill="#211F30" d="M66.814,9.425c0.429,0,0.856,0,1.284,0c0.286,0,0.572,0,0.857,0
	c0,0.855,0,1.712,0,2.568c-0.285,0-0.571,0-0.857,0c-0.428,0-0.855,0-1.284,0C66.814,11.137,66.814,10.28,66.814,9.425z"/>
<path fill-rule="evenodd" clip-rule="evenodd" fill="#211F30" d="M7.281,11.993c0.429,0,0.856,0,1.285,0c0.286,0,0.571,0,0.856,0
	c0,0.284,0,0.57,0,0.856c0,0.428,0,0.857,0,1.284c-0.143,0-0.286,0-0.428,0c-0.571,0-1.142,0-1.713,0c0-0.284,0-0.57,0-0.856
	C7.281,12.85,7.281,12.422,7.281,11.993z"/>
<path fill-rule="evenodd" clip-rule="evenodd" fill="#3A160D" d="M28.696,11.993c0.286,0,0.57,0,0.856,0c0.429,0,0.857,0,1.286,0
	c0,0.284,0,0.57,0,0.856c0,0.428,0,0.857,0,1.284c-0.287,0-0.571,0-0.856,0c-0.429,0-0.856,0-1.285,0c0-0.284,0-0.57,0-0.856
	C28.696,12.85,28.696,12.422,28.696,11.993z"/>
<path fill-rule="evenodd" clip-rule="evenodd" fill="#211F30" d="M68.956,11.993c0.855,0,1.713,0,2.569,0c0,0.284,0,0.57,0,0.856
	c0,0.428,0,0.857,0,1.284c-0.856,0-1.714,0-2.569,0c0-0.284,0-0.57,0-0.856C68.956,12.85,68.956,12.422,68.956,11.993z"/>
<path fill-rule="evenodd" clip-rule="evenodd" fill="#211F30" d="M4.711,14.134c0.856,0,1.713,0,2.57,0c0,0.286,0,0.572,0,0.857
	c0,0.429,0,0.855,0,1.285c0,0.856,0,1.713,0,2.57c-0.856,0-1.713,0-2.57,0C4.711,17.276,4.711,15.706,4.711,14.134z"/>
<path fill-rule="evenodd" clip-rule="evenodd" fill="#211F30" d="M71.525,14.134c0.429,0,0.856,0,1.285,0c0.286,0,0.571,0,0.856,0
	c0,0.286,0,0.572,0,0.857c0,0.429,0,0.855,0,1.285c0,0.856,0,1.713,0,2.57c-0.285,0-0.57,0-0.856,0c-0.429,0-0.856,0-1.285,0
	C71.525,17.276,71.525,15.706,71.525,14.134z"/>
<path fill-rule="evenodd" clip-rule="evenodd" fill="#211F30" d="M4.711,18.847c0,0.284,0,0.569,0,0.855c0,0.43,0,0.857,0,1.284
	c0,0.858,0,1.712,0,2.571c-0.285,0-0.571,0-0.856,0c-0.429,0-0.856,0-1.285,0c0-1.571,0-3.142,0-4.711c0.286,0,0.57,0,0.856,0
	C3.855,18.847,4.283,18.847,4.711,18.847z"/>
<path fill-rule="evenodd" clip-rule="evenodd" fill="#3A160D" d="M11.993,18.847c1.57,0,3.14,0,4.711,0c0,1.569,0,3.14,0,4.711
	c-1.285,0-2.57,0-3.854,0c-0.286,0-0.571,0-0.856,0c0-0.572,0-1.142,0-1.713c0-0.572,0-1.144,0-1.713
	C11.993,19.702,11.993,19.275,11.993,18.847z"/>
<path fill-rule="evenodd" clip-rule="evenodd" fill="#211F30" d="M73.667,18.847c0.855,0,1.714,0,2.57,0c0,0.143,0,0.284,0,0.429
	c0,1.426,0,2.854,0,4.282c-0.856,0-1.715,0-2.57,0C73.667,21.986,73.667,20.416,73.667,18.847z"/>
<path fill-rule="evenodd" clip-rule="evenodd" fill="#211F30" d="M2.57,23.558c0,1.284,0,2.569,0,3.854c0,0.286,0,0.572,0,0.857
	c0,0.429,0,0.855,0,1.285c0,0.282,0,0.57,0,0.856c0,0.43,0,0.856,0,1.284c0,2.855,0,5.711,0,8.567c0,0.855,0,1.713,0,2.567
	c-0.429,0-0.856,0-1.285,0c-0.429,0-0.856,0-1.285,0c0-0.428,0-0.854,0-1.282c0-0.43,0-0.858,0-1.285c0-0.857,0-1.714,0-2.57
	c0-0.286,0-0.572,0-0.856c0-0.429,0-0.859,0-1.286c0-0.857,0-1.712,0-2.569c0-1.57,0-3.144,0-4.711c0-1.57,0-3.141,0-4.711
	C0.856,23.558,1.713,23.558,2.57,23.558z"/>
<path fill-rule="evenodd" clip-rule="evenodd" fill="#211F30" d="M47.54,23.558c0,0.856,0,1.71,0,2.569c-1.284,0-2.569,0-3.854,0
	c-1.143,0-2.285,0-3.427,0c-2.284,0-4.568,0-6.852,0c-1.285,0-2.57,0-3.855,0c-1.143,0-2.284,0-3.425,0c-2.285,0-4.569,0-6.853,0
	c0-0.428,0-0.859,0-1.285c0-0.428,0-0.858,0-1.284c0.713,0,1.428,0,2.141,0c0.572,0,1.143,0,1.714,0c1.142,0,2.284,0,3.426,0
	c2.284,0,4.568,0,6.853,0c2.284,0,4.568,0,6.852,0c1.142,0,2.284,0,3.427,0C44.97,23.558,46.255,23.558,47.54,23.558z"/>
<path fill-rule="evenodd" clip-rule="evenodd" fill="#A73123" d="M47.54,23.558c0.857,0,1.715,0,2.57,0c0,0.856,0,1.71,0,2.569
	c-0.855,0-1.713,0-2.57,0C47.54,25.268,47.54,24.414,47.54,23.558z"/>
<path fill-rule="evenodd" clip-rule="evenodd" fill="#A73123" d="M73.667,23.558c0.855,0,1.714,0,2.57,0c0,3.283,0,6.566,0,9.848
	c0,0.859,0,1.717,0,2.57c0,0.431,0,0.859,0,1.286c0,0.286,0,0.572,0,0.857c0,0.856,0,1.713,0,2.569c0,0.715,0,1.426,0,2.141
	c-4.712,0-9.423,0-14.135,0c0-1.568,0-3.14,0-4.71c0.286,0,0.571,0,0.856,0c0.429,0,0.856,0,1.286,0c0,0.141,0,0.286,0,0.429
	c0,0.57,0,1.142,0,1.714c1.57,0,3.14,0,4.711,0c0-0.286,0-0.572,0-0.857c0-0.429,0-0.856,0-1.285c0.855,0,1.713,0,2.569,0
	c0-0.285,0-0.571,0-0.857c0-1.286,0-2.57,0-3.856c0.286,0,0.571,0,0.856,0c0.429,0,0.857,0,1.285,0c0-0.282,0-0.568,0-0.853
	c0-0.432,0-0.858,0-1.286c0-0.427,0-0.856,0-1.285c0-0.428,0-0.857,0-1.284c0-0.429,0-0.857,0-1.286c0-0.427,0-0.858,0-1.284
	C73.667,25.268,73.667,24.414,73.667,23.558z"/>
<path fill-rule="evenodd" clip-rule="evenodd" fill="#211F30" d="M76.237,23.558c0.428,0,0.856,0,1.285,0c0.428,0,0.855,0,1.285,0
	c0,0.426,0,0.856,0,1.284c0,0.426,0,0.857,0,1.285c0,0.857,0,1.713,0,2.57c0,0.286,0,0.57,0,0.856c0,0.428,0,0.856,0,1.286
	c0,0.854,0,1.713,0,2.565c0,0.286,0,0.573,0,0.859c0,0.427,0,0.857,0,1.284c0,0.857,0,1.713,0,2.57c0,0.713,0,1.426,0,2.143
	c0,0.855,0,1.713,0,2.567c-0.857,0-1.714,0-2.57,0c0-0.715,0-1.426,0-2.141c0-0.856,0-1.713,0-2.569c0-0.285,0-0.571,0-0.857
	c0-0.427,0-0.855,0-1.286c0-0.854,0-1.711,0-2.57C76.237,30.124,76.237,26.841,76.237,23.558z"/>
<path fill-rule="evenodd" clip-rule="evenodd" fill="#211F30" d="M19.273,26.127c0,0.857,0,1.713,0,2.57c-0.856,0-1.713,0-2.57,0
	c-0.713,0-1.428,0-2.141,0c0-0.857,0-1.713,0-2.57c0.143,0,0.285,0,0.428,0C16.418,26.127,17.845,26.127,19.273,26.127z"/>
<path fill-rule="evenodd" clip-rule="evenodd" fill="#D98249" d="M19.273,26.127c2.284,0,4.568,0,6.853,0c1.142,0,2.283,0,3.425,0
	c1.286,0,2.57,0,3.855,0c2.284,0,4.568,0,6.852,0c1.142,0,2.284,0,3.427,0c1.284,0,2.569,0,3.854,0c0,0.857,0,1.713,0,2.57
	c-0.428,0-0.855,0-1.284,0c-0.286,0-0.569,0-0.856,0c-0.572,0-1.141,0-1.713,0c-1.143,0-2.285,0-3.427,0c-2.284,0-4.568,0-6.852,0
	c-0.429,0-0.856,0-1.285,0c-0.286,0-0.57,0-0.856,0c-0.572,0-1.142,0-1.714,0c-1.143,0-2.284,0-3.425,0c-2.285,0-4.569,0-6.853,0
	C19.273,27.84,19.273,26.984,19.273,26.127z"/>
<path fill-rule="evenodd" clip-rule="evenodd" fill="#211F30" d="M47.54,26.127c0.857,0,1.715,0,2.57,0c0.287,0,0.57,0,0.856,0
	c0.429,0,0.858,0,1.286,0c0,0.857,0,1.713,0,2.57c-0.857,0-1.713,0-2.571,0c-0.427,0-0.856,0-1.284,0c-0.285,0-0.57,0-0.857,0
	C47.54,27.84,47.54,26.984,47.54,26.127z"/>
<path fill-rule="evenodd" clip-rule="evenodd" fill="#A73123" d="M52.252,26.127c0.855,0,1.713,0,2.569,0c0,0.857,0,1.713,0,2.57
	c-0.856,0-1.714,0-2.569,0C52.252,27.84,52.252,26.984,52.252,26.127z"/>
<path fill-rule="evenodd" clip-rule="evenodd" fill="#A73123" d="M66.814,26.127c0.429,0,0.856,0,1.284,0c0.286,0,0.572,0,0.857,0
	c0,0.857,0,1.713,0,2.57c-0.285,0-0.571,0-0.857,0c-0.428,0-0.855,0-1.284,0C66.814,27.84,66.814,26.984,66.814,26.127z"/>
<path fill-rule="evenodd" clip-rule="evenodd" fill="#211F30" d="M14.563,28.697c0,0.427,0,0.856,0,1.284c0,0.286,0,0.572,0,0.858
	c-0.856,0-1.713,0-2.57,0c0-0.286,0-0.572,0-0.858c0-0.428,0-0.857,0-1.284C12.849,28.697,13.706,28.697,14.563,28.697z"/>
<path fill-rule="evenodd" clip-rule="evenodd" fill="#D98249" d="M14.563,28.697c0.713,0,1.428,0,2.141,0c0.856,0,1.713,0,2.57,0
	c0,0.286,0,0.57,0,0.856c0,0.428,0,0.856,0,1.286c-0.856,0-1.713,0-2.57,0c-0.713,0-1.428,0-2.141,0c0-0.286,0-0.572,0-0.858
	C14.563,29.554,14.563,29.124,14.563,28.697z"/>
<path fill-rule="evenodd" clip-rule="evenodd" fill="#211F30" d="M19.273,28.697c2.284,0,4.568,0,6.853,0c1.142,0,2.283,0,3.425,0
	c0.572,0,1.142,0,1.714,0c0.286,0,0.57,0,0.856,0c0.429,0,0.856,0,1.285,0c2.284,0,4.568,0,6.852,0c1.142,0,2.284,0,3.427,0
	c0.572,0,1.141,0,1.713,0c0.287,0,0.57,0,0.856,0c0.429,0,0.856,0,1.284,0c0,0.286,0,0.57,0,0.856c0,0.428,0,0.856,0,1.286
	c-1.284,0-2.569,0-3.854,0c-1.143,0-2.285,0-3.427,0c-2.284,0-4.568,0-6.852,0c-1.285,0-2.57,0-3.855,0c-1.143,0-2.284,0-3.425,0
	c-2.285,0-4.569,0-6.853,0c0-0.43,0-0.858,0-1.286C19.273,29.268,19.273,28.983,19.273,28.697z"/>
<path fill-rule="evenodd" clip-rule="evenodd" fill="#D98249" d="M47.54,28.697c0.287,0,0.572,0,0.857,0c0.428,0,0.857,0,1.284,0
	c0.858,0,1.714,0,2.571,0c0,0.286,0,0.57,0,0.856c0,0.428,0,0.856,0,1.286c-0.857,0-1.713,0-2.571,0c-0.427,0-0.856,0-1.284,0
	c-0.285,0-0.57,0-0.857,0c0-0.43,0-0.858,0-1.286C47.54,29.268,47.54,28.983,47.54,28.697z"/>
<path fill-rule="evenodd" clip-rule="evenodd" fill="#211F30" d="M52.252,28.697c0.855,0,1.713,0,2.569,0c0,0.286,0,0.57,0,0.856
	c0,0.428,0,0.856,0,1.286c-0.856,0-1.714,0-2.569,0c0-0.43,0-0.858,0-1.286C52.252,29.268,52.252,28.983,52.252,28.697z"/>
<path fill-rule="evenodd" clip-rule="evenodd" fill="#A73123" d="M54.822,28.697c0.856,0,1.714,0,2.569,0c0,0.286,0,0.57,0,0.856
	c0,0.428,0,0.856,0,1.286c-0.855,0-1.713,0-2.569,0c0-0.43,0-0.858,0-1.286C54.822,29.268,54.822,28.983,54.822,28.697z"/>
<path fill-rule="evenodd" clip-rule="evenodd" fill="#211F30" d="M11.993,30.84c0,0.854,0,1.713,0,2.565c-0.856,0-1.714,0-2.57,0
	c0-0.853,0-1.711,0-2.565C10.278,30.84,11.136,30.84,11.993,30.84z"/>
<path fill-rule="evenodd" clip-rule="evenodd" fill="#D98249" d="M11.993,30.84c0.856,0,1.713,0,2.57,0c0,0.854,0,1.713,0,2.565
	c-0.856,0-1.713,0-2.57,0C11.993,32.553,11.993,31.694,11.993,30.84z"/>
<path fill-rule="evenodd" clip-rule="evenodd" fill="#211F30" d="M14.563,30.84c0.713,0,1.428,0,2.141,0c0.856,0,1.713,0,2.57,0
	c0,0.854,0,1.713,0,2.565c-0.856,0-1.713,0-2.57,0c-0.429,0-0.856,0-1.285,0c-0.286,0-0.571,0-0.856,0
	C14.563,32.553,14.563,31.694,14.563,30.84z"/>
<path fill-rule="evenodd" clip-rule="evenodd" fill="#34343D" d="M19.273,30.84c2.284,0,4.568,0,6.853,0c1.142,0,2.283,0,3.425,0
	c1.286,0,2.57,0,3.855,0c2.284,0,4.568,0,6.852,0c1.142,0,2.284,0,3.427,0c1.284,0,2.569,0,3.854,0c0,0.854,0,1.713,0,2.565
	c-0.428,0-0.855,0-1.284,0c-0.286,0-0.569,0-0.856,0c-3.998,0-7.994,0-11.992,0c-0.856,0-1.714,0-2.57,0c-3.855,0-7.709,0-11.564,0
	C19.273,32.553,19.273,31.694,19.273,30.84z"/>
<path fill-rule="evenodd" clip-rule="evenodd" fill="#211F30" d="M47.54,30.84c0.287,0,0.572,0,0.857,0c0.428,0,0.857,0,1.284,0
	c0.858,0,1.714,0,2.571,0c0,0.854,0,1.713,0,2.565c-0.857,0-1.713,0-2.571,0c-0.427,0-0.856,0-1.284,0c-0.285,0-0.57,0-0.857,0
	C47.54,32.553,47.54,31.694,47.54,30.84z"/>
<path fill-rule="evenodd" clip-rule="evenodd" fill="#D98249" d="M52.252,30.84c0.855,0,1.713,0,2.569,0c0,0.854,0,1.713,0,2.565
	c-0.856,0-1.714,0-2.569,0C52.252,32.553,52.252,31.694,52.252,30.84z"/>
<path fill-rule="evenodd" clip-rule="evenodd" fill="#211F30" d="M54.822,30.84c0.856,0,1.714,0,2.569,0c0,0.854,0,1.713,0,2.565
	c-0.855,0-1.713,0-2.569,0C54.822,32.553,54.822,31.694,54.822,30.84z"/>
<path fill-rule="evenodd" clip-rule="evenodd" fill="#A73123" d="M57.391,30.84c0.287,0,0.571,0,0.856,0c0.429,0,0.856,0,1.285,0
	c0,0.854,0,1.713,0,2.565c-0.286,0-0.569,0-0.856,0c-0.429,0-0.857,0-1.285,0C57.391,32.553,57.391,31.694,57.391,30.84z"/>
<path fill-rule="evenodd" clip-rule="evenodd" fill="#A73123" d="M64.245,30.84c1.285,0,2.569,0,3.854,0c0.286,0,0.572,0,0.857,0
	c0,1.566,0,3.139,0,4.709c-1.285,0-2.57,0-3.855,0c-0.283,0-0.57,0-0.855,0c0-1.141,0-2.283,0-3.428
	C64.245,31.694,64.245,31.267,64.245,30.84z"/>
<path fill-rule="evenodd" clip-rule="evenodd" fill="#211F30" d="M9.422,33.405c0,0.573,0,1.145,0,1.717c0,0.285,0,0.568,0,0.854
	c0,0.431,0,0.859,0,1.286c0,0.286,0,0.572,0,0.857c-0.286,0-0.57,0-0.856,0c-0.429,0-0.856,0-1.285,0c0-0.285,0-0.571,0-0.857
	c0-0.427,0-0.855,0-1.286c0-0.854,0-1.711,0-2.57c0.286,0,0.571,0,0.856,0C8.566,33.405,8.994,33.405,9.422,33.405z"/>
<path fill-rule="evenodd" clip-rule="evenodd" fill="#D98249" d="M9.422,33.405c0.856,0,1.714,0,2.57,0c0,0.432,0,0.859,0,1.286
	c0,0.431,0,0.857,0,1.284c0,0.431,0,0.859,0,1.286c0,0.286,0,0.572,0,0.857c-0.856,0-1.714,0-2.57,0c0-0.285,0-0.571,0-0.857
	c0-0.427,0-0.855,0-1.286c0-0.285,0-0.568,0-0.854C9.422,34.55,9.422,33.979,9.422,33.405z"/>
<path fill-rule="evenodd" clip-rule="evenodd" fill="#211F30" d="M11.993,33.405c0.856,0,1.713,0,2.57,0c0,0.859,0,1.717,0,2.57
	c0,0.431,0,0.859,0,1.286c0,0.286,0,0.572,0,0.857c-0.856,0-1.713,0-2.57,0c0-0.285,0-0.571,0-0.857c0-0.427,0-0.855,0-1.286
	c0-0.427,0-0.854,0-1.284C11.993,34.265,11.993,33.837,11.993,33.405z"/>
<path fill-rule="evenodd" clip-rule="evenodd" fill="#34343D" d="M14.563,33.405c0.285,0,0.57,0,0.856,0c0.429,0,0.856,0,1.285,0
	c0.856,0,1.713,0,2.57,0c0,0.859,0,1.717,0,2.57c0,0.431,0,0.859,0,1.286c0,0.286,0,0.572,0,0.857c-0.856,0-1.713,0-2.57,0
	c0,1.57,0,3.142,0,4.71c-1.571,0-3.141,0-4.711,0c0-1.568,0-3.14,0-4.71c0.856,0,1.713,0,2.57,0c0-0.285,0-0.571,0-0.857
	c0-0.427,0-0.855,0-1.286C14.563,35.122,14.563,34.265,14.563,33.405z"/>
<path fill-rule="evenodd" clip-rule="evenodd" fill="#211F30" d="M19.273,33.405c3.855,0,7.708,0,11.564,0c0,2.285,0,4.572,0,6.856
	c-0.287,0-0.571,0-0.856,0c-0.429,0-0.856,0-1.285,0c0-1.286,0-2.57,0-3.855c0-0.285,0-0.571,0-0.857c-1.142,0-2.284,0-3.426,0
	c-0.572,0-1.143,0-1.714,0c-0.285,0-0.57,0-0.856,0c-0.429,0-0.856,0-1.285,0c0,0.857,0,1.713,0,2.57c0,0.713,0,1.426,0,2.143
	c-0.285,0-0.57,0-0.856,0c-0.428,0-0.856,0-1.285,0c0-0.43,0-0.857,0-1.286c0-0.284,0-0.57,0-0.856c0-0.285,0-0.571,0-0.857
	c0-0.427,0-0.855,0-1.286C19.273,35.122,19.273,34.265,19.273,33.405z"/>
<path fill-rule="evenodd" clip-rule="evenodd" fill="#3E4049" d="M30.837,33.405c0.855,0,1.713,0,2.57,0c0,2.285,0,4.572,0,6.856
	c0,0.855,0,1.713,0,2.567c-0.856,0-1.714,0-2.57,0c0-0.854,0-1.712,0-2.567C30.837,37.978,30.837,35.69,30.837,33.405z"/>
<path fill-rule="evenodd" clip-rule="evenodd" fill="#211F30" d="M33.407,33.405c3.998,0,7.994,0,11.992,0c0,2.285,0,4.572,0,6.856
	c-0.855,0-1.713,0-2.57,0c0-1.286,0-2.57,0-3.855c0-0.285,0-0.571,0-0.857c-2.283,0-4.567,0-6.851,0c0,0.857,0,1.713,0,2.57
	c0,0.713,0,1.426,0,2.143c-0.856,0-1.715,0-2.57,0C33.407,37.978,33.407,35.69,33.407,33.405z"/>
<path fill-rule="evenodd" clip-rule="evenodd" fill="#3E4049" d="M45.399,33.405c0.287,0,0.57,0,0.856,0c0.429,0,0.856,0,1.284,0
	c0,0.432,0,0.859,0,1.286c0,0.284,0,0.572,0,0.857c0.43,0,0.857,0,1.285,0c0.43,0,0.856,0,1.285,0c0.43,0,0.856,0,1.285,0
	c0.287,0,0.57,0,0.857,0c0,0.857,0,1.713,0,2.57c0,0.572,0,1.141,0,1.713c0,0.144,0,0.286,0,0.43c0.855,0,1.713,0,2.569,0
	c0,0.855,0,1.713,0,2.567c-1.571,0-3.14,0-4.712,0c-1.57,0-3.14,0-4.711,0c0-0.854,0-1.712,0-2.567
	C45.399,37.978,45.399,35.69,45.399,33.405z"/>
<path fill-rule="evenodd" clip-rule="evenodd" fill="#34343D" d="M47.54,33.405c0.287,0,0.572,0,0.857,0c0.428,0,0.857,0,1.284,0
	c0.858,0,1.714,0,2.571,0c0,0.286,0,0.573,0,0.859c0,0.427,0,0.857,0,1.284c-0.287,0-0.57,0-0.857,0c-0.429,0-0.855,0-1.285,0
	c-0.429,0-0.855,0-1.285,0c-0.428,0-0.855,0-1.285,0c0-0.285,0-0.573,0-0.857C47.54,34.265,47.54,33.837,47.54,33.405z"/>
<path fill-rule="evenodd" clip-rule="evenodd" fill="#211F30" d="M52.252,33.405c0.855,0,1.713,0,2.569,0c0,0.859,0,1.717,0,2.57
	c0,0.431,0,0.859,0,1.286c0,0.286,0,0.572,0,0.857c-0.856,0-1.714,0-2.569,0c0-0.857,0-1.713,0-2.57c0-0.427,0-0.857,0-1.284
	C52.252,33.979,52.252,33.691,52.252,33.405z"/>
<path fill-rule="evenodd" clip-rule="evenodd" fill="#D98249" d="M54.822,33.405c0.856,0,1.714,0,2.569,0c0,0.859,0,1.717,0,2.57
	c0,0.431,0,0.859,0,1.286c0,0.286,0,0.572,0,0.857c-0.855,0-1.713,0-2.569,0c0-0.285,0-0.571,0-0.857c0-0.427,0-0.855,0-1.286
	C54.822,35.122,54.822,34.265,54.822,33.405z"/>
<path fill-rule="evenodd" clip-rule="evenodd" fill="#211F30" d="M57.391,33.405c0.428,0,0.856,0,1.285,0c0.287,0,0.57,0,0.856,0
	c0,0.432,0,0.859,0,1.286c0,0.431,0,0.857,0,1.284c0,0.431,0,0.859,0,1.286c0,0.286,0,0.572,0,0.857c-0.286,0-0.569,0-0.856,0
	c-0.429,0-0.857,0-1.285,0c0-0.285,0-0.571,0-0.857c0-0.427,0-0.855,0-1.286C57.391,35.122,57.391,34.265,57.391,33.405z"/>
<path fill-rule="evenodd" clip-rule="evenodd" fill="#A73123" d="M59.533,33.405c0.856,0,1.714,0,2.569,0c0,0.432,0,0.859,0,1.286
	c0,0.431,0,0.857,0,1.284c0,0.286,0,0.573,0,0.859c0,0.427,0,0.856,0,1.284c-0.855,0-1.713,0-2.569,0c0-0.285,0-0.571,0-0.857
	c0-0.427,0-0.855,0-1.286c0-0.427,0-0.854,0-1.284C59.533,34.265,59.533,33.837,59.533,33.405z"/>
<path fill-rule="evenodd" clip-rule="evenodd" fill="#FFFFFF" d="M28.696,40.262c-2.427,0-4.854,0-7.281,0c0-0.717,0-1.43,0-2.143
	c0-0.857,0-1.713,0-2.57c0.429,0,0.856,0,1.285,0c0.286,0,0.571,0,0.856,0c0.572,0,1.142,0,1.714,0c1.142,0,2.284,0,3.426,0
	c0,0.286,0,0.572,0,0.857C28.696,37.691,28.696,38.976,28.696,40.262z"/>
<path fill-rule="evenodd" clip-rule="evenodd" fill="#FFFFFF" d="M42.829,40.262c-2.283,0-4.567,0-6.851,0c0-0.717,0-1.43,0-2.143
	c0-0.857,0-1.713,0-2.57c2.284,0,4.568,0,6.851,0c0,0.286,0,0.572,0,0.857C42.829,37.691,42.829,38.976,42.829,40.262z"/>
<path fill-rule="evenodd" clip-rule="evenodd" fill="#211F30" d="M7.281,38.119c0,1.141,0,2.285,0,3.428c0,0.428,0,0.854,0,1.282
	c0.429,0,0.856,0,1.285,0c0.286,0,0.571,0,0.856,0c0-0.284,0-0.568,0-0.854c0-1.286,0-2.57,0-3.855c0.856,0,1.714,0,2.57,0
	c0,1.57,0,3.142,0,4.71c1.57,0,3.14,0,4.711,0c0.856,0,1.713,0,2.57,0c0.286,0,0.571,0,0.856,0c0.428,0,0.855,0,1.285,0
	c0-0.854,0-1.712,0-2.567c2.427,0,4.854,0,7.281,0c0,0.855,0,1.713,0,2.567c0.429,0,0.856,0,1.285,0c0.285,0,0.57,0,0.856,0
	c0.855,0,1.713,0,2.57,0c0.855,0,1.714,0,2.57,0c0-0.854,0-1.712,0-2.567c2.284,0,4.568,0,6.851,0c0,0.855,0,1.713,0,2.567
	c0.857,0,1.715,0,2.57,0c1.571,0,3.141,0,4.711,0c1.572,0,3.141,0,4.712,0c0-0.854,0-1.712,0-2.567c0-0.43,0-0.857,0-1.286
	c0-0.284,0-0.57,0-0.856c0.856,0,1.714,0,2.569,0c0,1.285,0,2.569,0,3.855c0,0.286,0,0.57,0,0.854c0.428,0,0.856,0,1.285,0
	c0.287,0,0.57,0,0.856,0c0-0.284,0-0.568,0-0.854c0-1.286,0-2.57,0-3.855c0.856,0,1.714,0,2.569,0c0,1.57,0,3.142,0,4.71
	c4.712,0,9.423,0,14.135,0c0,0.57,0,1.144,0,1.715c0,0.142,0,0.286,0,0.429c-6.14,0-12.279,0-18.418,0c-6.137,0-12.276,0-18.415,0
	c-6.141,0-12.279,0-18.418,0c-6.138,0-12.276,0-18.416,0c0-0.429,0-0.859,0-1.285c0-0.288,0-0.574,0-0.858c0.429,0,0.856,0,1.285,0
	c0.285,0,0.571,0,0.856,0c0-0.854,0-1.712,0-2.567c0-0.286,0-0.572,0-0.857c0-0.429,0-0.856,0-1.285
	C5.567,38.119,6.424,38.119,7.281,38.119z"/>
<path fill-rule="evenodd" clip-rule="evenodd" fill="#D98249" d="M7.281,38.119c0.429,0,0.856,0,1.285,0c0.286,0,0.571,0,0.856,0
	c0,1.285,0,2.569,0,3.855c0,0.286,0,0.57,0,0.854c-0.286,0-0.57,0-0.856,0c-0.429,0-0.856,0-1.285,0c0-0.428,0-0.854,0-1.282
	C7.281,40.404,7.281,39.26,7.281,38.119z"/>
<path fill-rule="evenodd" clip-rule="evenodd" fill="#3E4049" d="M19.273,38.119c0,0.286,0,0.572,0,0.856c0,0.429,0,0.856,0,1.286
	c0,0.855,0,1.713,0,2.567c-0.856,0-1.713,0-2.57,0c0-1.568,0-3.14,0-4.71C17.56,38.119,18.417,38.119,19.273,38.119z"/>
<path fill-rule="evenodd" clip-rule="evenodd" fill="#34343D" d="M52.252,38.119c0.855,0,1.713,0,2.569,0c0,0.286,0,0.572,0,0.856
	c0,0.429,0,0.856,0,1.286c-0.856,0-1.714,0-2.569,0c0-0.144,0-0.286,0-0.43C52.252,39.26,52.252,38.691,52.252,38.119z"/>
<path fill-rule="evenodd" clip-rule="evenodd" fill="#D98249" d="M57.391,38.119c0.428,0,0.856,0,1.285,0c0.287,0,0.57,0,0.856,0
	c0,1.285,0,2.569,0,3.855c0,0.286,0,0.57,0,0.854c-0.286,0-0.569,0-0.856,0c-0.429,0-0.857,0-1.285,0c0-0.284,0-0.568,0-0.854
	C57.391,40.688,57.391,39.404,57.391,38.119z"/>
<path fill-rule="evenodd" clip-rule="evenodd" fill="#A73123" d="M2.57,40.262c0.286,0,0.57,0,0.856,0c0.429,0,0.856,0,1.285,0
	c0,0.855,0,1.713,0,2.567c-0.285,0-0.571,0-0.856,0c-0.429,0-0.856,0-1.285,0C2.57,41.975,2.57,41.117,2.57,40.262z"/>
<path fill-rule="evenodd" clip-rule="evenodd" fill="#34343D" d="M19.273,40.262c0.428,0,0.856,0,1.285,0c0.286,0,0.571,0,0.856,0
	c0,0.855,0,1.713,0,2.567c-0.429,0-0.856,0-1.285,0c-0.286,0-0.57,0-0.856,0C19.273,41.975,19.273,41.117,19.273,40.262z"/>
<path fill-rule="evenodd" clip-rule="evenodd" fill="#34343D" d="M28.696,40.262c0.429,0,0.856,0,1.285,0c0.285,0,0.57,0,0.856,0
	c0,0.855,0,1.713,0,2.567c-0.287,0-0.571,0-0.856,0c-0.429,0-0.856,0-1.285,0C28.696,41.975,28.696,41.117,28.696,40.262z"/>
<path fill-rule="evenodd" clip-rule="evenodd" fill="#34343D" d="M33.407,40.262c0.855,0,1.714,0,2.57,0c0,0.855,0,1.713,0,2.567
	c-0.856,0-1.715,0-2.57,0C33.407,41.975,33.407,41.117,33.407,40.262z"/>
<path fill-rule="evenodd" clip-rule="evenodd" fill="#34343D" d="M42.829,40.262c0.857,0,1.715,0,2.57,0c0,0.855,0,1.713,0,2.567
	c-0.855,0-1.713,0-2.57,0C42.829,41.975,42.829,41.117,42.829,40.262z"/>
</svg>
