<?xml version="1.0" encoding="utf-8"?>
<!-- Generator: Adobe Illustrator 15.0.0, SVG Export Plug-In  -->
<!DOCTYPE svg PUBLIC "-//W3C//DTD SVG 1.1//EN" "http://www.w3.org/Graphics/SVG/1.1/DTD/svg11.dtd" [
	<!ENTITY ns_flows "http://ns.adobe.com/Flows/1.0/">
]>
<svg version="1.1"
	 xmlns="http://www.w3.org/2000/svg" xmlns:xlink="http://www.w3.org/1999/xlink" xmlns:a="http://ns.adobe.com/AdobeSVGViewerExtensions/3.0/"
	 x="0px" y="0px" width="500px" height="500px" viewBox="-176.573 -187.129 500 500"
	 enable-background="new -176.573 -187.129 500 500" xml:space="preserve">
<defs>
</defs>
<path fill-rule="evenodd" clip-rule="evenodd" fill="#232323" d="M3.309,3.303c-1.102,0-2.205,0-3.309,0C0,2.202,0,1.099,0,0
	c1.104,0,2.207,0,3.309,0C3.309,1.099,3.309,2.202,3.309,3.303z"/>
<path fill-rule="evenodd" clip-rule="evenodd" fill="#232323" d="M3.309,3.303c2.021,0,4.041,0,6.063,0c0,0.555,0,1.104,0,1.652
	c0,0.367,0,0.736,0,1.106c-0.552,0-1.102,0-1.653,0c-0.369,0-0.735,0-1.102,0c0,1.104,0,2.2,0,3.305c-1.102,0-2.206,0-3.308,0
	c0-1.471,0-2.938,0-4.411C3.309,4.406,3.309,3.857,3.309,3.303z"/>
<path fill-rule="evenodd" clip-rule="evenodd" fill="#FFFFFF" d="M9.372,6.062c0,1.104,0,2.2,0,3.305c-0.369,0-0.734,0-1.102,0
	c-0.552,0-1.104,0-1.654,0c0-1.104,0-2.2,0-3.305c0.367,0,0.733,0,1.102,0C8.27,6.062,8.82,6.062,9.372,6.062z"/>
<path fill-rule="evenodd" clip-rule="evenodd" fill="#232323" d="M9.372,6.062c2.021,0,4.041,0,6.062,0c0,1.104,0,2.2,0,3.305
	c-0.552,0-1.102,0-1.654,0c-0.367,0-0.733,0-1.1,0c0,0.551,0,1.106,0,1.655c0,0.367,0,0.733,0,1.104c-1.102,0-2.206,0-3.308,0
	c0,1.1,0,2.203,0,3.304c-0.369,0-0.734,0-1.102,0c-0.552,0-1.104,0-1.654,0c0-0.366,0-0.732,0-1.101c0-0.552,0-1.104,0-1.654
	c0-1.104,0-2.201,0-3.308c0.55,0,1.102,0,1.654,0c0.367,0,0.733,0,1.102,0C9.372,8.262,9.372,7.166,9.372,6.062z"/>
<path fill-rule="evenodd" clip-rule="evenodd" fill="#FFFFFF" d="M15.434,9.366c0,0.369,0,0.737,0,1.106c0,0.549,0,1.097,0,1.652
	c-0.368,0-0.734,0-1.102,0c-0.552,0-1.102,0-1.652,0c0-0.37,0-0.736,0-1.104c0-0.549,0-1.104,0-1.655c0.367,0,0.733,0,1.1,0
	C14.332,9.366,14.882,9.366,15.434,9.366z"/>
<path fill-rule="evenodd" clip-rule="evenodd" fill="#232323" d="M15.434,9.366c2.023,0,4.041,0,6.064,0c0,0.369,0,0.737,0,1.106
	c0,0.549,0,1.097,0,1.652c-2.023,0-4.041,0-6.064,0c0-0.556,0-1.104,0-1.652C15.434,10.104,15.434,9.735,15.434,9.366z"/>
<path fill-rule="evenodd" clip-rule="evenodd" fill="#232323" d="M144.406,12.125c0-0.37,0-0.736,0-1.104c0-0.549,0-1.104,0-1.655
	c0.367,0,0.735,0,1.103,0c0.551,0,1.102,0,1.654,0c0,0.369,0,0.737,0,1.106c0,0.549,0,1.097,0,1.652c-0.369,0-0.735,0-1.104,0
	C145.509,12.125,144.958,12.125,144.406,12.125z"/>
<path fill-rule="evenodd" clip-rule="evenodd" fill="#EDEDED" d="M12.679,12.125c0,1.1,0,2.203,0,3.304c-1.102,0-2.206,0-3.308,0
	c0-1.101,0-2.204,0-3.304C10.474,12.125,11.578,12.125,12.679,12.125z"/>
<path fill-rule="evenodd" clip-rule="evenodd" fill="#232323" d="M12.679,12.125c0.551,0,1.1,0,1.652,0c0.368,0,0.734,0,1.102,0
	c0,1.1,0,2.203,0,3.304c-0.368,0-0.734,0-1.102,0c-0.552,0-1.102,0-1.652,0C12.679,14.328,12.679,13.225,12.679,12.125z"/>
<path fill-rule="evenodd" clip-rule="evenodd" fill="#FFFFFF" d="M15.434,12.125c2.023,0,4.041,0,6.064,0c0,1.1,0,2.203,0,3.304
	c0,0.553,0,1.104,0,1.652c0,0.37,0,0.736,0,1.104c-0.552,0-1.103,0-1.653,0c-0.37,0-0.735,0-1.102,0c0-0.549,0-1.104,0-1.652
	c0-0.37,0-0.737,0-1.104c-1.104,0-2.207,0-3.309,0C15.434,14.328,15.434,13.225,15.434,12.125z"/>
<path fill-rule="evenodd" clip-rule="evenodd" fill="#232323" d="M21.498,12.125c1.102,0,2.205,0,3.307,0c0,1.1,0,2.203,0,3.304
	c-1.102,0-2.205,0-3.307,0C21.498,14.328,21.498,13.225,21.498,12.125z"/>
<path fill-rule="evenodd" clip-rule="evenodd" fill="#232323" d="M144.406,12.125c0,0.549,0,1.1,0,1.651s0,1.102,0,1.652
	c0,0.366,0,0.733,0,1.104c0,0.549,0,1.104,0,1.652c-1.103,0-2.204,0-3.307,0c0-0.549,0-1.104,0-1.652c0-0.37,0-0.737,0-1.104
	c-1.103,0-2.207,0-3.309,0c0-1.101,0-2.204,0-3.304C139.997,12.125,142.202,12.125,144.406,12.125z"/>
<path fill-rule="evenodd" clip-rule="evenodd" fill="#232323" d="M9.372,15.429c1.102,0,2.206,0,3.308,0c0,0.553,0,1.104,0,1.652
	c0,0.37,0,0.736,0,1.104c0,1.104,0,2.204,0,3.309c-1.102,0-2.206,0-3.308,0c0-0.368,0-0.735,0-1.104c0-0.55,0-1.101,0-1.655
	C9.372,17.636,9.372,16.532,9.372,15.429z"/>
<path fill-rule="evenodd" clip-rule="evenodd" fill="#EDEDED" d="M12.679,15.429c0.551,0,1.1,0,1.652,0c0.368,0,0.734,0,1.102,0
	c0,0.366,0,0.733,0,1.104c0,0.549,0,1.104,0,1.652c-0.368,0-0.734,0-1.102,0c-0.552,0-1.102,0-1.652,0c0-0.367,0-0.733,0-1.104
	C12.679,16.532,12.679,15.981,12.679,15.429z"/>
<path fill-rule="evenodd" clip-rule="evenodd" fill="#232323" d="M15.434,15.429c1.102,0,2.205,0,3.309,0c0,0.366,0,0.733,0,1.104
	c0,0.549,0,1.104,0,1.652c-1.104,0-2.207,0-3.309,0c0-0.549,0-1.104,0-1.652C15.434,16.162,15.434,15.795,15.434,15.429z"/>
<path fill-rule="evenodd" clip-rule="evenodd" fill="#EDEDED" d="M21.498,15.429c1.102,0,2.205,0,3.307,0c0,0.366,0,0.733,0,1.104
	c0,0.549,0,1.104,0,1.652c-1.102,0-2.205,0-3.307,0c0-0.367,0-0.733,0-1.104C21.498,16.532,21.498,15.981,21.498,15.429z"/>
<path fill-rule="evenodd" clip-rule="evenodd" fill="#232323" d="M24.804,15.429c2.021,0,4.042,0,6.063,0c0,0.366,0,0.733,0,1.104
	c0,0.549,0,1.104,0,1.652c-1.102,0-2.206,0-3.308,0c-0.55,0-1.102,0-1.653,0c-0.367,0-0.733,0-1.102,0c0-0.549,0-1.104,0-1.652
	C24.804,16.162,24.804,15.795,24.804,15.429z"/>
<path fill-rule="evenodd" clip-rule="evenodd" fill="#232323" d="M137.791,15.429c0,0.553,0,1.104,0,1.652c0,0.37,0,0.736,0,1.104
	c-2.021,0-4.041,0-6.062,0c0-0.367,0-0.733,0-1.104c0-0.549,0-1.1,0-1.652C133.75,15.429,135.771,15.429,137.791,15.429z"/>
<path fill-rule="evenodd" clip-rule="evenodd" fill="#FFFFFF" d="M137.791,15.429c1.102,0,2.206,0,3.309,0c0,0.366,0,0.733,0,1.104
	c0,0.549,0,1.104,0,1.652c-1.103,0-2.207,0-3.309,0c0-0.367,0-0.733,0-1.104C137.791,16.532,137.791,15.981,137.791,15.429z"/>
<path fill-rule="evenodd" clip-rule="evenodd" fill="#9D9D9D" d="M12.679,18.185c0.551,0,1.1,0,1.652,0c0.368,0,0.734,0,1.102,0
	c0,1.104,0,2.204,0,3.309c-0.368,0-0.734,0-1.102,0c-0.552,0-1.102,0-1.652,0C12.679,20.389,12.679,19.288,12.679,18.185z"/>
<path fill-rule="evenodd" clip-rule="evenodd" fill="#EDEDED" d="M15.434,18.185c1.102,0,2.205,0,3.309,0c0.367,0,0.732,0,1.102,0
	c0.55,0,1.102,0,1.653,0c0,1.104,0,2.204,0,3.309c1.102,0,2.205,0,3.307,0c0-1.104,0-2.205,0-3.309c0.368,0,0.734,0,1.102,0
	c0.551,0,1.104,0,1.653,0c0,1.104,0,2.204,0,3.309c1.102,0,2.206,0,3.308,0c0,1.103,0,2.203,0,3.307c1.102,0,2.205,0,3.307,0
	c0.55,0,1.102,0,1.654,0c0.367,0,0.733,0,1.102,0c0,0.549,0,1.103,0,1.654c0,0.366,0,0.735,0,1.102c1.101,0,2.207,0,3.307,0
	c0,0.552,0,1.103,0,1.651c0,0.552,0,1.104,0,1.654c0.369,0,0.734,0,1.102,0c0.552,0,1.102,0,1.654,0c0,0.552,0,1.104,0,1.652
	c0,0.368,0,0.737,0,1.105c1.102,0,2.205,0,3.308,0c0,1.654,0,3.304,0,4.959c0,0.368,0,0.736,0,1.104c-1.103,0-2.206,0-3.308,0
	c0,0.549,0,1.103,0,1.651c0,0.552,0,1.103,0,1.654c-0.552,0-1.102,0-1.654,0c-0.368,0-0.733,0-1.102,0c0,0.55,0,1.104,0,1.652
	c0,0.37,0,0.733,0,1.102c-2.022,0-4.042,0-6.063,0c0-0.548,0-1.102,0-1.649c0-0.369,0-0.736,0-1.104c-1.102,0-2.206,0-3.307,0
	c0-1.103,0-2.203,0-3.306c-1.102,0-2.206,0-3.308,0c0-0.553,0-1.104,0-1.655c0-0.55,0-1.104,0-1.652c0-0.368,0-0.734,0-1.101
	c0-0.552,0-1.104,0-1.654c-0.55,0-1.102,0-1.653,0c-0.367,0-0.733,0-1.102,0c0-0.552,0-1.105,0-1.653c0-0.369,0-0.735,0-1.104
	c-1.102,0-2.205,0-3.307,0c0-1.103,0-2.203,0-3.306c-0.552,0-1.103,0-1.653,0c-0.37,0-0.735,0-1.102,0c0-2.022,0-4.042,0-6.063
	c-1.104,0-2.207,0-3.309,0C15.434,20.389,15.434,19.288,15.434,18.185z"/>
<path fill-rule="evenodd" clip-rule="evenodd" fill="#FFFFFF" d="M21.498,18.185c1.102,0,2.205,0,3.307,0c0,1.104,0,2.204,0,3.309
	c-1.102,0-2.205,0-3.307,0C21.498,20.389,21.498,19.288,21.498,18.185z"/>
<path fill-rule="evenodd" clip-rule="evenodd" fill="#9D9D9D" d="M27.559,18.185c1.102,0,2.206,0,3.308,0c0,1.104,0,2.204,0,3.309
	c-1.102,0-2.206,0-3.308,0C27.559,20.389,27.559,19.288,27.559,18.185z"/>
<path fill-rule="evenodd" clip-rule="evenodd" fill="#232323" d="M30.867,18.185c2.021,0,4.041,0,6.063,0c0,1.104,0,2.204,0,3.309
	c-2.022,0-4.042,0-6.063,0C30.867,20.389,30.867,19.288,30.867,18.185z"/>
<path fill-rule="evenodd" clip-rule="evenodd" fill="#232323" d="M131.729,18.185c0,1.104,0,2.204,0,3.309c-2.021,0-4.041,0-6.063,0
	c-0.552,0-1.101,0-1.653,0c-0.367,0-0.733,0-1.102,0c0-1.104,0-2.205,0-3.309C125.851,18.185,128.79,18.185,131.729,18.185z"/>
<path fill-rule="evenodd" clip-rule="evenodd" fill="#FFFFFF" d="M131.729,18.185c2.021,0,4.041,0,6.062,0c0,1.104,0,2.204,0,3.309
	c-2.021,0-4.041,0-6.062,0C131.729,20.389,131.729,19.288,131.729,18.185z"/>
<path fill-rule="evenodd" clip-rule="evenodd" fill="#232323" d="M137.791,18.185c1.102,0,2.206,0,3.309,0c0,1.104,0,2.204,0,3.309
	c-1.103,0-2.207,0-3.309,0C137.791,20.389,137.791,19.288,137.791,18.185z"/>
<path fill-rule="evenodd" clip-rule="evenodd" fill="#232323" d="M12.679,21.493c0.551,0,1.1,0,1.652,0c0.368,0,0.734,0,1.102,0
	c0,1.103,0,2.203,0,3.307c0,0.549,0,1.103,0,1.654c0,0.366,0,0.735,0,1.102c-0.368,0-0.734,0-1.102,0c-0.552,0-1.102,0-1.652,0
	c0-1.468,0-2.942,0-4.412C12.679,22.596,12.679,22.04,12.679,21.493z"/>
<path fill-rule="evenodd" clip-rule="evenodd" fill="#9D9D9D" d="M15.434,21.493c1.102,0,2.205,0,3.309,0c0,2.021,0,4.04,0,6.063
	c-1.104,0-2.207,0-3.309,0c0-0.366,0-0.735,0-1.102c0-0.552,0-1.105,0-1.654C15.434,23.696,15.434,22.596,15.434,21.493z"/>
<path fill-rule="evenodd" clip-rule="evenodd" fill="#9D9D9D" d="M30.867,21.493c2.021,0,4.041,0,6.063,0c0,1.103,0,2.203,0,3.307
	c-0.369,0-0.735,0-1.102,0c-0.552,0-1.104,0-1.654,0c-1.102,0-2.206,0-3.307,0C30.867,23.696,30.867,22.596,30.867,21.493z"/>
<path fill-rule="evenodd" clip-rule="evenodd" fill="#232323" d="M36.93,21.493c1.101,0,2.207,0,3.307,0c0,1.103,0,2.203,0,3.307
	c-1.101,0-2.207,0-3.307,0C36.93,23.696,36.93,22.596,36.93,21.493z"/>
<path fill-rule="evenodd" clip-rule="evenodd" fill="#232323" d="M122.911,21.493c0,1.103,0,2.203,0,3.307c-1.102,0-2.204,0-3.308,0
	c-0.551,0-1.102,0-1.652,0c-0.368,0-0.734,0-1.104,0c0-1.104,0-2.204,0-3.307C118.87,21.493,120.89,21.493,122.911,21.493z"/>
<path fill-rule="evenodd" clip-rule="evenodd" fill="#9D9D9D" d="M122.911,21.493c0.368,0,0.734,0,1.102,0c0.553,0,1.102,0,1.653,0
	c0,1.103,0,2.203,0,3.307c-0.368,0-0.733,0-1.101,0c-0.553,0-1.103,0-1.654,0C122.911,23.696,122.911,22.596,122.911,21.493z"/>
<path fill-rule="evenodd" clip-rule="evenodd" fill="#FFFFFF" d="M125.666,21.493c2.022,0,4.042,0,6.063,0c0,1.103,0,2.203,0,3.307
	c-2.021,0-4.041,0-6.063,0C125.666,23.696,125.666,22.596,125.666,21.493z"/>
<path fill-rule="evenodd" clip-rule="evenodd" fill="#232323" d="M131.729,21.493c2.021,0,4.041,0,6.062,0c0,1.103,0,2.203,0,3.307
	c-0.367,0-0.732,0-1.1,0c-0.554,0-1.103,0-1.655,0c0,0.369,0,0.733,0,1.103c0,0.552,0,1.102,0,1.653c-0.368,0-0.736,0-1.102,0
	c-0.736,0-1.47,0-2.205,0c0,0.366,0,0.732,0,1.103c0,0.737,0,1.471,0,2.203c-0.368,0-0.734,0-1.103,0c-0.552,0-1.102,0-1.653,0
	c0-1.103,0-2.203,0-3.306c-1.102,0-2.206,0-3.308,0c0-0.366,0-0.735,0-1.102c0-0.552,0-1.105,0-1.654c2.022,0,4.042,0,6.063,0
	C131.729,23.696,131.729,22.596,131.729,21.493z"/>
<path fill-rule="evenodd" clip-rule="evenodd" fill="#9D9D9D" d="M36.93,24.8c1.101,0,2.207,0,3.307,0c0,0.369,0,0.733,0,1.103
	c0,0.552,0,1.102,0,1.653c-1.101,0-2.207,0-3.307,0c0-0.366,0-0.735,0-1.102C36.93,25.902,36.93,25.349,36.93,24.8z"/>
<path fill-rule="evenodd" clip-rule="evenodd" fill="#232323" d="M40.237,24.8c2.022,0,4.042,0,6.063,0c0,0.369,0,0.733,0,1.103
	c0,0.552,0,1.102,0,1.653c-2.022,0-4.041,0-6.063,0c0-0.552,0-1.102,0-1.653C40.237,25.533,40.237,25.169,40.237,24.8z"/>
<path fill-rule="evenodd" clip-rule="evenodd" fill="#232323" d="M116.848,24.8c0,0.549,0,1.103,0,1.654c0,0.366,0,0.735,0,1.102
	c-1.103,0-2.205,0-3.308,0c-2.021,0-4.041,0-6.062,0c0-0.552,0-1.102,0-1.653c0-0.369,0-0.733,0-1.103
	C110.602,24.8,113.724,24.8,116.848,24.8z"/>
<path fill-rule="evenodd" clip-rule="evenodd" fill="#9D9D9D" d="M116.848,24.8c0.369,0,0.735,0,1.104,0c0.551,0,1.102,0,1.652,0
	c0,0.369,0,0.733,0,1.103c0,0.552,0,1.102,0,1.653c-0.366,0-0.733,0-1.102,0c-0.551,0-1.104,0-1.654,0c0-0.366,0-0.735,0-1.102
	C116.848,25.902,116.848,25.349,116.848,24.8z"/>
<path fill-rule="evenodd" clip-rule="evenodd" fill="#EDEDED" d="M119.604,24.8c1.104,0,2.206,0,3.308,0c0,0.549,0,1.103,0,1.654
	c0,0.366,0,0.735,0,1.102c0,1.103,0,2.203,0,3.306c-1.102,0-2.204,0-3.308,0c0,0.552,0,1.104,0,1.652c0,0.368,0,0.737,0,1.105
	c0,1.103,0,2.202,0,3.304c-0.733,0-1.47,0-2.205,0c-0.182,0-0.367,0-0.551,0c0,0.554,0,1.104,0,1.655c0,0.368,0,0.736,0,1.104
	c-1.103,0-2.205,0-3.308,0c0,1.103,0,2.203,0,3.306c-3.123,0-6.246,0-9.369,0c0-1.103,0-2.203,0-3.306c-0.552,0-1.102,0-1.653,0
	c-0.368,0-0.733,0-1.103,0c0-1.104,0-2.205,0-3.308c0-0.553,0-1.101,0-1.652c0-0.37,0-0.737,0-1.103c0.553,0,1.103,0,1.654,0
	c0.369,0,0.734,0,1.102,0c0.553,0,1.103,0,1.654,0s1.102,0,1.653,0c0-0.552,0-1.105,0-1.653c0-0.369,0-0.735,0-1.104
	c0.551,0,1.103,0,1.654,0c0.366,0,0.733,0,1.102,0c0.552,0,1.101,0,1.653,0c0.551,0,1.102,0,1.652,0c0-1.103,0-2.203,0-3.306
	c1.103,0,2.205,0,3.308,0c0.551,0,1.104,0,1.654,0c0.368,0,0.735,0,1.102,0c0-0.552,0-1.102,0-1.653
	C119.604,25.533,119.604,25.169,119.604,24.8z"/>
<path fill-rule="evenodd" clip-rule="evenodd" fill="#FFFFFF" d="M122.911,24.8c0.552,0,1.102,0,1.654,0c0.367,0,0.732,0,1.101,0
	c0,0.549,0,1.103,0,1.654c0,0.366,0,0.735,0,1.102c-0.368,0-0.733,0-1.101,0c-0.553,0-1.103,0-1.654,0c0-0.366,0-0.735,0-1.102
	C122.911,25.902,122.911,25.349,122.911,24.8z"/>
<path fill-rule="evenodd" clip-rule="evenodd" fill="#232323" d="M15.434,27.556c1.102,0,2.205,0,3.309,0c0,1.103,0,2.203,0,3.306
	c-1.104,0-2.207,0-3.309,0C15.434,29.759,15.434,28.658,15.434,27.556z"/>
<path fill-rule="evenodd" clip-rule="evenodd" fill="#9D9D9D" d="M18.742,27.556c0.367,0,0.732,0,1.102,0c0.55,0,1.102,0,1.653,0
	c0,1.103,0,2.203,0,3.306c-0.369,0-0.735,0-1.103,0c-0.55,0-1.102,0-1.652,0C18.742,29.759,18.742,28.658,18.742,27.556z"/>
<path fill-rule="evenodd" clip-rule="evenodd" fill="#9D9D9D" d="M40.237,27.556c2.022,0,4.042,0,6.063,0c0,1.103,0,2.203,0,3.306
	c0.551,0,1.102,0,1.653,0c0.367,0,0.733,0,1.102,0c0,0.552,0,1.104,0,1.652c0,0.368,0,0.737,0,1.105c1.101,0,2.204,0,3.305,0
	c0,1.103,0,2.202,0,3.304c1.103,0,2.206,0,3.308,0c0.551,0,1.103,0,1.654,0c0.367,0,0.734,0,1.103,0c0,0.368,0,0.737,0,1.104
	c0,0.552,0,1.103,0,1.655c-1.471,0-2.941,0-4.41,0c-0.551,0-1.102,0-1.654,0c0,1.103,0,2.203,0,3.306c-0.551,0-1.101,0-1.653,0
	s-1.101,0-1.652,0c0,0.55,0,1.104,0,1.652c0,0.37,0,0.733,0,1.102c-0.553,0-1.102,0-1.654,0c-0.368,0-0.735,0-1.102,0
	c0,2.208,0,4.413,0,6.617c-1.103,0-2.206,0-3.308,0c0,1.651,0,3.308,0,4.96c0,0.367,0,0.737,0,1.102c-0.552,0-1.102,0-1.654,0
	c-0.368,0-0.733,0-1.102,0c0,1.102,0,2.205,0,3.306c0,0.553,0,1.104,0,1.653c0,0.368,0,0.736,0,1.104c0,0.55,0,1.104,0,1.656
	c0,0.366,0,0.734,0,1.104c0,0.548,0,1.1,0,1.651s0,1.101,0,1.647c0.551,0,1.102,0,1.654,0c0.369,0,0.734,0,1.102,0
	c0,0.557,0,1.106,0,1.656c0,0.369,0,0.736,0,1.104c1.102,0,2.205,0,3.308,0c0,1.104,0,2.204,0,3.308c0.551,0,1.102,0,1.653,0
	c0.549,0,1.102,0,1.654,0c0.549,0,1.101,0,1.652,0c0.367,0,0.735,0,1.101,0c0.552,0,1.103,0,1.654,0c0.552,0,1.103,0,1.653,0
	s1.103,0,1.654,0c0.367,0,0.734,0,1.103,0c0,1.474,0,2.939,0,4.41c0,1.468,0,2.938,0,4.407c0,0.186,0,0.371,0,0.552
	c1.103,0,2.205,0,3.307,0c0,0.55,0,1.104,0,1.651c0,0.371,0,0.738,0,1.105c0.55,0,1.101,0,1.654,0c0.368,0,0.733,0,1.102,0
	c0,1.103,0,2.204,0,3.308c1.102,0,2.205,0,3.307,0c0,0.551,0,1.103,0,1.654c0,0.364,0,0.733,0,1.102c1.102,0,2.204,0,3.308,0
	c0.55,0,1.102,0,1.653,0c0.366,0,0.733,0,1.102,0c1.836,0,3.674,0,5.511,0c0.185,0,0.367,0,0.552,0c0-0.552,0-1.102,0-1.653
	c0-0.366,0-0.736,0-1.103c0.551,0,1.102,0,1.654,0c0.365,0,0.732,0,1.102,0c0-1.104,0-2.205,0-3.308c1.102,0,2.204,0,3.308,0
	c0-1.653,0-3.309,0-4.961c0-0.369,0-0.735,0-1.102c1.101,0,2.204,0,3.306,0c0-0.552,0-1.102,0-1.653s0-1.103,0-1.654
	c0-0.364,0-0.733,0-1.102c0-0.55,0-1.104,0-1.654c-0.552,0-1.102,0-1.653,0s-1.103,0-1.652,0c0-1.104,0-2.204,0-3.308
	c-1.104,0-2.206,0-3.308,0c-0.551,0-1.102,0-1.654,0c-0.367,0-0.733,0-1.102,0c0-0.367,0-0.734,0-1.104c0-0.55,0-1.1,0-1.656
	c1.102,0,2.205,0,3.307,0c0.551,0,1.103,0,1.653,0c0.366,0,0.735,0,1.104,0c0.55,0,1.101,0,1.652,0c0.368,0,0.734,0,1.102,0
	c0.552,0,1.103,0,1.653,0c0.552,0,1.102,0,1.653,0c0-1.096,0-2.199,0-3.299c0.552,0,1.103,0,1.654,0s1.102,0,1.653,0
	c0-0.557,0-1.104,0-1.656c0-0.367,0-0.734,0-1.104c0.552,0,1.102,0,1.654,0c0.368,0,0.732,0,1.102,0c0-1.653,0-3.308,0-4.961
	c0-0.369,0-0.735,0-1.102c1.1,0,2.206,0,3.307,0c0-3.123,0-6.247,0-9.369c-1.101,0-2.207,0-3.307,0c0-0.55,0-1.102,0-1.655
	c0-0.548,0-1.102,0-1.654c-0.552,0-1.102,0-1.654,0c-0.368,0-0.734,0-1.102,0c0-0.548,0-1.102,0-1.649c0-0.369,0-0.736,0-1.104
	c-3.123,0-6.246,0-9.368,0c0,0.55,0,1.104,0,1.652c0,0.37,0,0.733,0,1.102c-0.552,0-1.104,0-1.654,0c-0.368,0-0.735,0-1.103,0
	c-0.551,0-1.102,0-1.652,0c-0.553,0-1.104,0-1.654,0c0,1.106,0,2.208,0,3.31c-1.104,0-2.207,0-3.309,0c0,0.55,0,1.104,0,1.652
	c0,0.553,0,1.104,0,1.655c-0.367,0-0.732,0-1.101,0c-0.554,0-1.102,0-1.654,0c0-3.124,0-6.247,0-9.371c-0.552,0-1.102,0-1.654,0
	s-1.102,0-1.653,0c0-1.103,0-2.203,0-3.306c-2.022,0-4.041,0-6.063,0c0-0.553,0-1.104,0-1.655c0-0.366,0-0.735,0-1.104
	c-2.021,0-4.041,0-6.063,0c0-1.102,0-2.201,0-3.304c0.552,0,1.103,0,1.653,0c0.368,0,0.734,0,1.103,0c0.551,0,1.101,0,1.652,0
	c0.553,0,1.102,0,1.654,0c0-0.552,0-1.105,0-1.653c0-0.369,0-0.735,0-1.104c1.653,0,3.307,0,4.961,0c0.367,0,0.733,0,1.102,0
	c0,0.552,0,1.104,0,1.652c0,0.368,0,0.737,0,1.105c1.653,0,3.307,0,4.961,0c0.368,0,0.733,0,1.101,0c0,1.103,0,2.202,0,3.304
	c1.102,0,2.205,0,3.309,0c0,0.554,0,1.104,0,1.655c0,0.368,0,0.736,0,1.104c0.734,0,1.469,0,2.205,0
	c0.109-0.075,0.458,0.092,0.551,0c0.051-0.055-0.006-0.471,0-0.553c0.01-0.18-0.023-0.371,0-0.551c0.02-0.177,0-0.372,0-0.552
	c0-0.184,0-0.366,0-0.55c0-0.186,0-0.369,0-0.554c1.102,0,2.204,0,3.308,0c0-1.102,0-2.201,0-3.304c1.101,0,2.204,0,3.306,0
	c0.551,0,1.102,0,1.653,0c0.368,0,0.735,0,1.102,0c0,1.103,0,2.202,0,3.304c-0.552,0-1.102,0-1.653,0c-0.367,0-0.733,0-1.102,0
	c0,0.368,0,0.737,0,1.104c0,0.552,0,1.103,0,1.655c0.734,0,1.47,0,2.203,0c0.186,0,0.367,0,0.552,0c0-0.553,0-1.104,0-1.655
	c0-0.366,0-0.735,0-1.104c1.103,0,2.206,0,3.308,0c0-1.102,0-2.201,0-3.304c1.102,0,2.204,0,3.309,0c0.547,0,1.102,0,1.653,0
	c0.366,0,0.733,0,1.101,0c0,0.365,0,0.732,0,1.103c0,0.552,0,1.1,0,1.652c0,1.103,0,2.204,0,3.308c0.369,0,0.734,0,1.103,0
	c0.552,0,1.102,0,1.653,0c0,1.103,0,2.203,0,3.306c3.123,0,6.246,0,9.369,0c0,0.368,0,0.735,0,1.104c0,0.548,0,1.102,0,1.649
	c-1.102,0-2.205,0-3.306,0c0,1.106,0,2.208,0,3.31c-0.552,0-1.102,0-1.653,0c-0.369,0-0.734,0-1.103,0c0,0.55,0,1.104,0,1.652
	c0,0.367,0,0.737,0,1.104c0,1.1,0,2.203,0,3.308c0.551,0,1.103,0,1.654,0c0.366,0,0.733,0,1.102,0c0,1.1,0,2.204,0,3.306
	c-0.552,0-1.102,0-1.653,0c-0.369,0-0.734,0-1.103,0c0,0.732,0,1.47,0,2.205c0.073,0.111-0.093,0.457,0,0.55
	c0.052,0.055,0.471-0.001,0.551,0c0.182,0.009,0.371-0.019,0.552,0c0.176,0.021,0.373,0,0.552,0c0.184,0,0.366,0,0.55,0
	s0.367,0,0.552,0c0,1.104,0,2.204,0,3.308c0,0.55,0,1.104,0,1.656c0,0.366,0,0.734,0,1.104c-0.552,0-1.102,0-1.653,0
	c-0.369,0-0.734,0-1.103,0c0-0.557,0-1.104,0-1.656c0-0.367,0-0.734,0-1.104c-1.102,0-2.205,0-3.308,0c0,0.736,0,1.47,0,2.203
	c0,0.188,0,0.37,0,0.557c1.103,0,2.206,0,3.308,0c0,1.1,0,2.203,0,3.299c-1.653,0-3.308,0-4.961,0c-0.368,0-0.733,0-1.103,0
	c0,0.74,0,1.475,0,2.212c0,0.181,0,0.367,0,0.548c0.553,0,1.103,0,1.654,0c0.369,0,0.734,0,1.102,0c0.553,0,1.103,0,1.654,0
	s1.102,0,1.653,0c0-0.548,0-1.104,0-1.653c0-0.366,0-0.735,0-1.106c1.654,0,3.308,0,4.96,0c1.471,0,2.939,0,4.409,0
	c0,0.371,0,0.74,0,1.106c0,0.55,0,1.105,0,1.653c-2.205,0-4.409,0-6.613,0c0,1.104,0,2.204,0,3.308c-2.94,0-5.879,0-8.819,0
	c0,0.369,0,0.735,0,1.104c0,0.731,0,1.466,0,2.203c0.553,0,1.103,0,1.654,0c0.369,0,0.734,0,1.102,0c0,1.103,0,2.204,0,3.31
	c0,0.548,0,1.097,0,1.651c0,0.368,0,0.734,0,1.101c0,1.104,0,2.205,0,3.307c0,0.553,0,1.104,0,1.654c0,0.369,0,0.737,0,1.104
	c0,0.551,0,1.103,0,1.654c0,0.364,0,0.733,0,1.102c-0.552,0-1.102,0-1.653,0c-0.368,0-0.733,0-1.103,0c0,1.1,0,2.203,0,3.304
	c0,0.554,0,1.104,0,1.655c0,0.367,0,0.735,0,1.104c-1.101,0-2.207,0-3.307,0c0-0.554,0-1.104,0-1.656c0-0.366,0-0.735,0-1.104
	c-0.552,0-1.102,0-1.654,0c-0.368,0-0.734,0-1.102,0c0-1.101,0-2.204,0-3.304c0-0.552,0-1.102,0-1.653c0-0.366,0-0.736,0-1.103
	c0.552,0,1.102,0,1.654,0c0.368,0,0.732,0,1.102,0c0-0.552,0-1.104,0-1.653c0-0.552,0-1.104,0-1.654c0-0.367,0-0.734,0-1.105
	c0-0.548,0-1.102,0-1.651c-0.552,0-1.102,0-1.654,0c-0.368,0-0.734,0-1.102,0c0-0.552,0-1.101,0-1.655c0-0.549,0-1.097,0-1.65
	c-0.367,0-0.736,0-1.102,0c-0.736,0-1.47,0-2.206,0c0,0.554,0,1.102,0,1.65c0,0.555,0,1.104,0,1.655c-0.552,0-1.102,0-1.653,0
	c-0.367,0-0.733,0-1.102,0c0,0.55,0,1.104,0,1.651c0,0.371,0,0.738,0,1.105c0,1.103,0,2.204,0,3.308c0.551,0,1.102,0,1.653,0
	c0.368,0,0.735,0,1.102,0c0,0.551,0,1.103,0,1.654c0,0.364,0,0.733,0,1.102c0,1.1,0,2.203,0,3.304c-0.733,0-1.47,0-2.204,0
	c-0.183,0-0.367,0-0.551,0c0,0.554,0,1.104,0,1.655c0,0.367,0,0.735,0,1.104c-1.653,0-3.306,0-4.96,0c-0.552,0-1.103,0-1.653,0
	c0,1.103,0,2.203,0,3.306c-4.963,0-9.921,0-14.882,0c0-1.103,0-2.203,0-3.306c-1.102,0-2.206,0-3.307,0c0-0.737,0-1.471,0-2.206
	c0-0.186,0-0.368,0-0.554c-0.552,0-1.102,0-1.654,0c-0.366,0-0.733,0-1.101,0c0-1.101,0-2.204,0-3.304c-1.102,0-2.205,0-3.307,0
	c0-0.552,0-1.102,0-1.653c0-0.366,0-0.736,0-1.103c-1.103,0-2.206,0-3.308,0c0-2.022,0-4.042,0-6.064c-0.734,0-1.469,0-2.205,0
	c-0.184,0-0.368,0-0.552,0c0,0.55,0,1.104,0,1.651c0,0.371,0,0.738,0,1.105c0,0.55,0,1.103,0,1.654c0,0.55,0,1.102,0,1.653
	c0.552,0,1.103,0,1.654,0c0.369,0,0.735,0,1.103,0c0,2.937,0,5.881,0,8.819c-0.551,0-1.103,0-1.654,0c-0.367,0-0.734,0-1.103,0
	c-0.551,0-1.101,0-1.653,0s-1.101,0-1.652,0c0,1.103,0,2.203,0,3.306c-1.102,0-2.205,0-3.308,0c-0.55,0-1.102,0-1.654,0
	c-0.366,0-0.734,0-1.102,0c0-1.103,0-2.203,0-3.306c0.552,0,1.102,0,1.653,0s1.102,0,1.654,0c0-0.554,0-1.104,0-1.656
	c0-0.366,0-0.735,0-1.104c0.551,0,1.102,0,1.653,0c0.367,0,0.733,0,1.102,0c0-0.364,0-0.734,0-1.101c0-0.734,0-1.47,0-2.203
	c-0.553,0-1.102,0-1.654,0c-0.368,0-0.735,0-1.102,0c0-0.552,0-1.102,0-1.653c0-0.366,0-0.736,0-1.103c-1.103,0-2.206,0-3.308,0
	c-0.552,0-1.102,0-1.654,0c-0.368,0-0.733,0-1.102,0c0-2.022,0-4.042,0-6.064c0.551,0,1.102,0,1.654,0c0.369,0,0.734,0,1.102,0
	c0-1.101,0-2.204,0-3.306c-0.552,0-1.102,0-1.654,0c-0.368,0-0.733,0-1.102,0c0-2.02,0-4.041,0-6.063c-1.101,0-2.207,0-3.307,0
	c0-7.163,0-14.33,0-21.494c-0.553,0-1.102,0-1.654,0c-0.368,0-0.734,0-1.102,0c0-2.021,0-4.044,0-6.063c-1.102,0-2.206,0-3.307,0
	c0-1.102,0-2.203,0-3.31c-1.102,0-2.206,0-3.308,0c0-0.548,0-1.102,0-1.649c0-0.369,0-0.736,0-1.104c-0.55,0-1.102,0-1.653,0
	c-0.367,0-0.733,0-1.102,0c0-2.021,0-4.041,0-6.064c-1.102,0-2.205,0-3.307,0c0-2.02,0-4.041,0-6.062c1.102,0,2.205,0,3.307,0
	c0,0.369,0,0.735,0,1.104c0,0.548,0,1.102,0,1.653c0.368,0,0.734,0,1.102,0c0.551,0,1.104,0,1.653,0c0,0.551,0,1.103,0,1.654
	c0,0.366,0,0.732,0,1.101c0,0.549,0,1.103,0,1.652c0,0.552,0,1.103,0,1.655c1.102,0,2.206,0,3.308,0c0,1.103,0,2.203,0,3.306
	c1.102,0,2.205,0,3.307,0c0,0.368,0,0.735,0,1.104c0,0.548,0,1.102,0,1.649c2.021,0,4.041,0,6.063,0c0-0.368,0-0.731,0-1.102
	c0-0.548,0-1.103,0-1.652c0.369,0,0.734,0,1.102,0c0.552,0,1.102,0,1.654,0c0-0.552,0-1.103,0-1.654c0-0.549,0-1.103,0-1.651
	c1.102,0,2.205,0,3.308,0c0-0.367,0-0.735,0-1.104c0-1.655,0-3.305,0-4.959c-1.103,0-2.206,0-3.308,0c0-0.368,0-0.737,0-1.105
	c0-0.548,0-1.101,0-1.652c-0.552,0-1.102,0-1.654,0c-0.368,0-0.733,0-1.102,0c0-0.551,0-1.103,0-1.654
	C40.237,28.658,40.237,28.107,40.237,27.556z"/>
<path fill-rule="evenodd" clip-rule="evenodd" fill="#232323" d="M46.3,27.556c0.366,0,0.733,0,1.102,0c0.552,0,1.101,0,1.654,0
	c0,1.103,0,2.203,0,3.306c-0.369,0-0.735,0-1.102,0c-0.552,0-1.103,0-1.653,0C46.3,29.759,46.3,28.658,46.3,27.556z"/>
<path fill-rule="evenodd" clip-rule="evenodd" fill="#232323" d="M92.045,33.619c-0.366,0-0.733,0-1.102,0c-0.552,0-1.103,0-1.653,0
	c-1.102,0-2.205,0-3.306,0c0,1.103,0,2.202,0,3.304c-1.104,0-2.206,0-3.308,0c0,0.185,0,0.368,0,0.554c0,0.184,0,0.366,0,0.55
	c0,0.18,0.02,0.375,0,0.552c-0.023,0.18,0.01,0.371,0,0.551c-0.006,0.082,0.051,0.498,0,0.553c-0.093,0.092-0.441-0.075-0.551,0
	c-0.736,0-1.471,0-2.205,0c0-0.367,0-0.735,0-1.104c0-0.552,0-1.102,0-1.655c-1.104,0-2.207,0-3.309,0c0-1.102,0-2.201,0-3.304
	c-0.367,0-0.732,0-1.101,0c-1.654,0-3.308,0-4.961,0c0-0.368,0-0.737,0-1.105c0-0.548,0-1.101,0-1.652c-0.369,0-0.735,0-1.102,0
	c-1.654,0-3.308,0-4.961,0c0-1.103,0-2.203,0-3.306c7.165,0,14.33,0,21.497,0c0,1.103,0,2.203,0,3.306c2.021,0,4.04,0,6.061,0
	c0,0.369,0,0.735,0,1.104C92.045,32.514,92.045,33.067,92.045,33.619z"/>
<path fill-rule="evenodd" clip-rule="evenodd" fill="#232323" d="M107.479,27.556c0,1.103,0,2.203,0,3.306c-2.021,0-4.04,0-6.063,0
	c0-1.103,0-2.203,0-3.306C103.438,27.556,105.457,27.556,107.479,27.556z"/>
<path fill-rule="evenodd" clip-rule="evenodd" fill="#9D9D9D" d="M107.479,27.556c2.021,0,4.041,0,6.062,0c0,1.103,0,2.203,0,3.306
	c-0.551,0-1.102,0-1.652,0c-0.553,0-1.102,0-1.653,0c-0.368,0-0.735,0-1.102,0c-0.552,0-1.104,0-1.654,0
	C107.479,29.759,107.479,28.658,107.479,27.556z"/>
<path fill-rule="evenodd" clip-rule="evenodd" fill="#232323" d="M122.911,27.556c0.552,0,1.102,0,1.654,0c0.367,0,0.732,0,1.101,0
	c0,1.103,0,2.203,0,3.306c-0.368,0-0.733,0-1.101,0c-0.553,0-1.103,0-1.654,0C122.911,29.759,122.911,28.658,122.911,27.556z"/>
<path fill-rule="evenodd" clip-rule="evenodd" fill="#EDEDED" d="M125.666,27.556c1.102,0,2.206,0,3.308,0c0,1.103,0,2.203,0,3.306
	c-1.102,0-2.206,0-3.308,0C125.666,29.759,125.666,28.658,125.666,27.556z"/>
<path fill-rule="evenodd" clip-rule="evenodd" fill="#232323" d="M18.742,30.861c0.551,0,1.102,0,1.652,0c0.368,0,0.734,0,1.103,0
	c0,2.021,0,4.042,0,6.062c-0.369,0-0.735,0-1.103,0c-0.55,0-1.102,0-1.652,0c0-1.469,0-2.938,0-4.409
	C18.742,31.966,18.742,31.413,18.742,30.861z"/>
<path fill-rule="evenodd" clip-rule="evenodd" fill="#232323" d="M49.056,30.861c1.101,0,2.204,0,3.305,0c0,0.369,0,0.735,0,1.104
	c0,0.548,0,1.102,0,1.653c-1.101,0-2.205,0-3.305,0c0-0.368,0-0.737,0-1.105C49.056,31.966,49.056,31.413,49.056,30.861z"/>
<path fill-rule="evenodd" clip-rule="evenodd" fill="#232323" d="M64.488,30.861c0,0.369,0,0.735,0,1.104c0,0.548,0,1.102,0,1.653
	c-0.552,0-1.102,0-1.654,0c-0.551,0-1.101,0-1.652,0c-0.369,0-0.735,0-1.103,0c-0.551,0-1.102,0-1.653,0c0-0.368,0-0.737,0-1.105
	c0-0.548,0-1.101,0-1.652C60.447,30.861,62.467,30.861,64.488,30.861z"/>
<path fill-rule="evenodd" clip-rule="evenodd" fill="#232323" d="M101.415,30.861c0,0.552,0,1.104,0,1.652c0,0.368,0,0.737,0,1.105
	c-0.367,0-0.734,0-1.101,0c-0.552,0-1.106,0-1.653,0c-1.104,0-2.207,0-3.309,0c0-0.368,0-0.737,0-1.105c0-0.548,0-1.101,0-1.652
	C97.375,30.861,99.394,30.861,101.415,30.861z"/>
<path fill-rule="evenodd" clip-rule="evenodd" fill="#9D9D9D" d="M101.415,30.861c2.023,0,4.042,0,6.063,0c0,0.369,0,0.735,0,1.104
	c0,0.548,0,1.102,0,1.653c-0.552,0-1.102,0-1.653,0s-1.102,0-1.654,0c-0.367,0-0.732,0-1.102,0c-0.552,0-1.102,0-1.654,0
	c0-0.368,0-0.737,0-1.105C101.415,31.966,101.415,31.413,101.415,30.861z"/>
<path fill-rule="evenodd" clip-rule="evenodd" fill="#232323" d="M122.911,30.861c0,0.552,0,1.104,0,1.652c0,0.368,0,0.737,0,1.105
	c-1.102,0-2.204,0-3.308,0c0-0.368,0-0.737,0-1.105c0-0.548,0-1.101,0-1.652C120.707,30.861,121.81,30.861,122.911,30.861z"/>
<path fill-rule="evenodd" clip-rule="evenodd" fill="#EDEDED" d="M122.911,30.861c0.552,0,1.102,0,1.654,0c0.367,0,0.732,0,1.101,0
	c0,0.369,0,0.735,0,1.104c0,0.548,0,1.102,0,1.653c-0.368,0-0.733,0-1.101,0c-0.553,0-1.103,0-1.654,0c0-0.368,0-0.737,0-1.105
	C122.911,31.966,122.911,31.413,122.911,30.861z"/>
<path fill-rule="evenodd" clip-rule="evenodd" fill="#232323" d="M125.666,30.861c1.102,0,2.206,0,3.308,0c0,0.369,0,0.735,0,1.104
	c0,0.548,0,1.102,0,1.653c-1.102,0-2.206,0-3.308,0c0-0.552,0-1.105,0-1.653C125.666,31.597,125.666,31.23,125.666,30.861z"/>
<path fill-rule="evenodd" clip-rule="evenodd" fill="#232323" d="M52.361,33.619c2.023,0,4.043,0,6.064,0c0,1.103,0,2.202,0,3.304
	c-0.369,0-0.736,0-1.103,0c-0.551,0-1.103,0-1.654,0c-1.102,0-2.205,0-3.308,0C52.361,35.821,52.361,34.722,52.361,33.619z"/>
<path fill-rule="evenodd" clip-rule="evenodd" fill="#232323" d="M92.045,33.619c1.103,0,2.206,0,3.308,0c0,1.103,0,2.202,0,3.304
	c-1.102,0-2.205,0-3.308,0C92.045,35.821,92.045,34.722,92.045,33.619z"/>
<path fill-rule="evenodd" clip-rule="evenodd" fill="#9D9D9D" d="M119.604,33.619c1.104,0,2.206,0,3.308,0c0,1.103,0,2.202,0,3.304
	c-1.102,0-2.204,0-3.308,0C119.604,35.821,119.604,34.722,119.604,33.619z"/>
<path fill-rule="evenodd" clip-rule="evenodd" fill="#232323" d="M122.911,33.619c0.552,0,1.102,0,1.654,0c0.367,0,0.732,0,1.101,0
	c0,1.103,0,2.202,0,3.304c-0.368,0-0.733,0-1.101,0c-0.553,0-1.103,0-1.654,0C122.911,35.821,122.911,34.722,122.911,33.619z"/>
<path fill-rule="evenodd" clip-rule="evenodd" fill="#232323" d="M21.498,36.923c1.102,0,2.205,0,3.307,0c0,2.023,0,4.044,0,6.064
	c-1.102,0-2.205,0-3.307,0c0-0.366,0-0.734,0-1.103c0-0.552,0-1.101,0-1.654C21.498,39.129,21.498,38.026,21.498,36.923z"/>
<path fill-rule="evenodd" clip-rule="evenodd" fill="#EDEDED" d="M58.425,36.923c2.021,0,4.042,0,6.063,0c0,0.368,0,0.737,0,1.104
	c0,0.552,0,1.103,0,1.655c2.022,0,4.041,0,6.063,0c0,1.103,0,2.203,0,3.306c0.552,0,1.102,0,1.653,0s1.102,0,1.654,0
	c0,3.124,0,6.247,0,9.371c0.552,0,1.1,0,1.654,0c0.368,0,0.733,0,1.101,0c0-0.552,0-1.103,0-1.655c0-0.549,0-1.103,0-1.652
	c1.102,0,2.205,0,3.309,0c0-1.102,0-2.203,0-3.31c0.551,0,1.102,0,1.654,0c0.551,0,1.102,0,1.652,0c0.367,0,0.734,0,1.103,0
	c0.551,0,1.103,0,1.654,0c0-0.368,0-0.731,0-1.102c0-0.548,0-1.103,0-1.652c3.122,0,6.245,0,9.368,0c0,0.368,0,0.735,0,1.104
	c0,0.548,0,1.102,0,1.649c0.367,0,0.733,0,1.102,0c0.553,0,1.103,0,1.654,0c0,0.553,0,1.106,0,1.654c0,0.554,0,1.105,0,1.655
	c1.1,0,2.206,0,3.307,0c0,3.122,0,6.246,0,9.369c-1.101,0-2.207,0-3.307,0c0,0.366,0,0.732,0,1.102c0,1.653,0,3.308,0,4.961
	c-0.369,0-0.733,0-1.102,0c-0.553,0-1.103,0-1.654,0c0,0.369,0,0.736,0,1.104c0,0.553,0,1.1,0,1.656c-0.552,0-1.102,0-1.653,0
	s-1.103,0-1.654,0c0,1.1,0,2.203,0,3.299c-0.552,0-1.102,0-1.653,0c-0.551,0-1.102,0-1.653,0c-0.367,0-0.733,0-1.102,0
	c-0.552,0-1.103,0-1.652,0c-0.368,0-0.737,0-1.104,0c-0.551,0-1.103,0-1.653,0c-1.102,0-2.205,0-3.307,0c0-1.096,0-2.199,0-3.299
	c-1.104,0-2.207,0-3.309,0c0-0.557,0-1.104,0-1.656c0-0.367,0-0.734,0-1.104c-0.553,0-1.101,0-1.654,0c-0.367,0-0.733,0-1.1,0
	c0-1.471,0-2.938,0-4.411c0-0.55,0-1.098,0-1.651c-1.102,0-2.206,0-3.307,0c0,1.102,0,2.205,0,3.306c0,0.553,0,1.104,0,1.653
	c0,0.368,0,0.736,0,1.104c-0.735,0-1.47,0-2.204,0c-0.184,0-0.368,0-0.552,0c0,0.55,0,1.104,0,1.656c0,0.366,0,0.734,0,1.104
	c-1.102,0-2.206,0-3.307,0c0,1.1,0,2.203,0,3.299c-0.734,0-1.47,0-2.206,0c-0.182,0-0.366,0-0.55,0c0,0.557,0,1.106,0,1.656
	c0,0.369,0,0.736,0,1.104c-1.102,0-2.205,0-3.307,0c0,1.104,0,2.204,0,3.308c-0.369,0-0.736,0-1.103,0c-0.551,0-1.103,0-1.654,0
	s-1.102,0-1.653,0c-0.551,0-1.102,0-1.654,0c-0.366,0-0.734,0-1.101,0c-0.552,0-1.104,0-1.652,0c-0.552,0-1.104,0-1.654,0
	c-0.552,0-1.103,0-1.653,0c0-1.104,0-2.204,0-3.308c-1.103,0-2.206,0-3.308,0c0-0.367,0-0.734,0-1.104c0-0.55,0-1.1,0-1.656
	c-0.368,0-0.733,0-1.102,0c-0.552,0-1.103,0-1.654,0c0-0.547,0-1.096,0-1.647s0-1.104,0-1.651c0-0.369,0-0.737,0-1.104
	c0-0.553,0-1.106,0-1.656c0-0.367,0-0.735,0-1.104c0-0.55,0-1.101,0-1.653c0-1.101,0-2.204,0-3.306c0.369,0,0.734,0,1.102,0
	c0.552,0,1.102,0,1.654,0c0-0.364,0-0.734,0-1.102c0-1.652,0-3.309,0-4.96c1.102,0,2.205,0,3.308,0c0-2.204,0-4.409,0-6.617
	c0.366,0,0.733,0,1.102,0c0.552,0,1.101,0,1.654,0c0-0.368,0-0.731,0-1.102c0-0.548,0-1.103,0-1.652c0.552,0,1.101,0,1.652,0
	s1.102,0,1.653,0c0-1.103,0-2.203,0-3.306c0.552,0,1.103,0,1.654,0c1.469,0,2.939,0,4.41,0c0-0.553,0-1.104,0-1.655
	C58.425,37.66,58.425,37.291,58.425,36.923z M64.488,55.114c-0.552,0-1.102,0-1.654,0c-0.366,0-0.733,0-1.101,0
	c0,1.1,0,2.204,0,3.306c0.55,0,1.101,0,1.654,0c0.368,0,0.733,0,1.102,0C64.488,57.318,64.488,56.214,64.488,55.114
	c1.102,0,2.205,0,3.307,0c0-3.125,0-6.247,0-9.373c-1.102,0-2.206,0-3.307,0c0,2.94,0,5.88,0,8.82
	C64.488,54.747,64.488,54.93,64.488,55.114z M55.118,52.358c-0.551,0-1.103,0-1.654,0c-0.367,0-0.734,0-1.103,0
	c0,0.548,0,1.104,0,1.651c0,0.369,0,0.737,0,1.104c-0.734,0-1.468,0-2.205,0c-0.367,0-0.733,0-1.101,0c0,1.652,0,3.306,0,4.957
	c0,0.369,0,0.737,0,1.104c0.552,0,1.101,0,1.652,0s1.102,0,1.653,0c0,1.104,0,2.204,0,3.308c0.552,0,1.103,0,1.654,0
	c0.369,0,0.735,0,1.103,0c0-2.023,0-4.042,0-6.063c0-0.55,0-1.102,0-1.653c0-0.366,0-0.733,0-1.101c0-0.552,0-1.104,0-1.656
	C55.118,53.463,55.118,52.906,55.118,52.358c1.102,0,2.205,0,3.308,0c0-1.103,0-2.204,0-3.308c-1.103,0-2.206,0-3.308,0
	C55.118,50.154,55.118,51.256,55.118,52.358z M85.984,52.358c2.021,0,4.04,0,6.061,0c0-1.103,0-2.204,0-3.308
	c-1.653,0-3.307,0-4.96,0c-0.367,0-0.734,0-1.101,0C85.984,50.154,85.984,51.256,85.984,52.358z M82.677,60.071
	c0,0.369,0,0.737,0,1.104c0.367,0,0.735,0,1.102,0c0.552,0,1.103,0,1.654,0c0.367,0,0.733,0,1.102,0c0.551,0,1.103,0,1.654,0
	c0.366,0,0.733,0,1.102,0c0-0.366,0-0.734,0-1.104c0-0.363,0-0.731,0-1.098c-0.072-0.112,0.092-0.462,0-0.554
	c-0.071-0.07-0.451,0.029-0.552,0c-0.146-0.044-0.396,0-0.55,0c-0.184,0-0.369,0-0.552,0s-0.369,0.011-0.552,0
	c-0.183-0.01-0.367,0-0.551,0c-0.55,0-1.102,0-1.653,0c-0.185,0-0.368,0-0.551,0s-0.37-0.01-0.552,0c-0.184,0.009-0.369,0-0.551,0
	c-0.184,0-0.367,0-0.551,0C82.677,58.974,82.677,59.521,82.677,60.071z"/>
<path fill-rule="evenodd" clip-rule="evenodd" fill="#232323" d="M92.045,36.923c0,0.368,0,0.737,0,1.104c0,0.552,0,1.103,0,1.655
	c-0.185,0-0.366,0-0.552,0c-0.733,0-1.469,0-2.203,0c0-0.553,0-1.104,0-1.655c0-0.366,0-0.735,0-1.104c0.368,0,0.734,0,1.102,0
	C90.943,36.923,91.493,36.923,92.045,36.923z"/>
<path fill-rule="evenodd" clip-rule="evenodd" fill="#9D9D9D" d="M119.604,36.923c0,0.368,0,0.737,0,1.104c0,0.552,0,1.103,0,1.655
	c-0.366,0-0.733,0-1.102,0c-0.551,0-1.104,0-1.654,0c0-0.367,0-0.735,0-1.104c0-0.552,0-1.102,0-1.655c0.184,0,0.369,0,0.551,0
	C118.134,36.923,118.87,36.923,119.604,36.923z"/>
<path fill-rule="evenodd" clip-rule="evenodd" fill="#232323" d="M119.604,36.923c1.104,0,2.206,0,3.308,0c0,0.368,0,0.737,0,1.104
	c0,0.552,0,1.103,0,1.655c-1.102,0-2.204,0-3.308,0c0-0.553,0-1.104,0-1.655C119.604,37.66,119.604,37.291,119.604,36.923z"/>
<path fill-rule="evenodd" clip-rule="evenodd" fill="#9D9D9D" d="M116.848,39.682c0,1.103,0,2.203,0,3.306c-1.103,0-2.205,0-3.308,0
	c0-1.103,0-2.203,0-3.306C114.643,39.682,115.745,39.682,116.848,39.682z"/>
<path fill-rule="evenodd" clip-rule="evenodd" fill="#232323" d="M116.848,39.682c0.551,0,1.104,0,1.654,0c0.368,0,0.735,0,1.102,0
	c0,1.103,0,2.203,0,3.306c-0.366,0-0.733,0-1.102,0c-0.551,0-1.104,0-1.654,0C116.848,41.885,116.848,40.784,116.848,39.682z"/>
<path fill-rule="evenodd" clip-rule="evenodd" fill="#232323" d="M24.804,42.987c0.368,0,0.734,0,1.102,0c0.551,0,1.104,0,1.653,0
	c0,0.368,0,0.735,0,1.104c0,0.548,0,1.102,0,1.649c-0.367,0-0.733,0-1.102,0c-0.551,0-1.101,0-1.653,0c0-0.368,0-0.731,0-1.102
	C24.804,44.092,24.804,43.537,24.804,42.987z"/>
<path fill-rule="evenodd" clip-rule="evenodd" fill="#232323" d="M113.54,42.987c1.103,0,2.205,0,3.308,0c0,0.368,0,0.735,0,1.104
	c0,0.548,0,1.102,0,1.649c-1.103,0-2.205,0-3.308,0c0-0.548,0-1.102,0-1.649C113.54,43.723,113.54,43.355,113.54,42.987z"/>
<path fill-rule="evenodd" clip-rule="evenodd" fill="#232323" d="M27.559,45.741c1.102,0,2.206,0,3.308,0c0,1.106,0,2.208,0,3.31
	c-1.102,0-2.206,0-3.308,0C27.559,47.949,27.559,46.848,27.559,45.741z"/>
<path fill-rule="evenodd" clip-rule="evenodd" fill="#FFFFFF" d="M64.488,55.114c0-0.185,0-0.367,0-0.553c0-2.94,0-5.88,0-8.82
	c1.102,0,2.205,0,3.307,0c0,3.126,0,6.248,0,9.373C66.693,55.114,65.589,55.114,64.488,55.114z"/>
<path fill-rule="evenodd" clip-rule="evenodd" fill="#232323" d="M113.54,45.741c0,1.106,0,2.208,0,3.31c-1.102,0-2.205,0-3.306,0
	c0-1.102,0-2.203,0-3.31C111.335,45.741,112.438,45.741,113.54,45.741z"/>
<path fill-rule="evenodd" clip-rule="evenodd" fill="#232323" d="M30.867,49.051c1.102,0,2.205,0,3.307,0c0,2.02,0,4.042,0,6.063
	c-1.102,0-2.206,0-3.307,0c0-0.367,0-0.735,0-1.104c0-0.547,0-1.104,0-1.651C30.867,51.256,30.867,50.154,30.867,49.051z"/>
<path fill-rule="evenodd" clip-rule="evenodd" fill="#FFFFFF" d="M55.118,52.358c0-1.103,0-2.204,0-3.308c1.102,0,2.205,0,3.308,0
	c0,1.104,0,2.205,0,3.308C57.322,52.358,56.219,52.358,55.118,52.358z"/>
<path fill-rule="evenodd" clip-rule="evenodd" fill="#FFFFFF" d="M85.984,49.051c0.366,0,0.733,0,1.101,0c1.653,0,3.307,0,4.96,0
	c0,1.104,0,2.205,0,3.308c-2.021,0-4.04,0-6.061,0C85.984,51.256,85.984,50.154,85.984,49.051z"/>
<path fill-rule="evenodd" clip-rule="evenodd" fill="#232323" d="M110.234,49.051c0,0.55,0,1.104,0,1.652c0,0.553,0,1.104,0,1.655
	c0,0.368,0,0.734,0,1.104c0,0.547,0,1.099,0,1.651c-0.368,0-0.735,0-1.102,0c-0.552,0-1.104,0-1.654,0c0-1.104,0-2.208,0-3.308
	c0-0.366,0-0.736,0-1.104c0-0.549,0-1.103,0-1.652c0.368,0,0.733,0,1.103,0C109.133,49.051,109.683,49.051,110.234,49.051z"/>
<path fill-rule="evenodd" clip-rule="evenodd" fill="#FFFFFF" d="M55.118,52.358c0,0.548,0,1.104,0,1.651c0,0.552,0,1.104,0,1.656
	c0,0.367,0,0.734,0,1.101c0,0.552,0,1.104,0,1.653c0,2.021,0,4.039,0,6.063c-0.368,0-0.734,0-1.103,0c-0.551,0-1.102,0-1.654,0
	c0-1.104,0-2.204,0-3.308c-0.551,0-1.101,0-1.653,0s-1.101,0-1.652,0c0-0.366,0-0.734,0-1.104c0-1.651,0-3.305,0-4.957
	c0.367,0,0.734,0,1.101,0c0.737,0,1.47,0,2.205,0c0-0.367,0-0.735,0-1.104c0-0.547,0-1.104,0-1.651c0.369,0,0.736,0,1.103,0
	C54.015,52.358,54.567,52.358,55.118,52.358z"/>
<path fill-rule="evenodd" clip-rule="evenodd" fill="#232323" d="M34.174,55.114c0.367,0,0.734,0,1.102,0c0.552,0,1.101,0,1.654,0
	c0,7.164,0,14.331,0,21.494c-0.369,0-0.735,0-1.102,0c-0.552,0-1.104,0-1.654,0C34.174,69.445,34.174,62.278,34.174,55.114z"/>
<path fill-rule="evenodd" clip-rule="evenodd" fill="#FFFFFF" d="M64.488,55.114c0,1.1,0,2.204,0,3.306c-0.368,0-0.734,0-1.102,0
	c-0.553,0-1.104,0-1.654,0c0-1.102,0-2.206,0-3.306c0.368,0,0.735,0,1.101,0C63.386,55.114,63.936,55.114,64.488,55.114z"/>
<path fill-rule="evenodd" clip-rule="evenodd" fill="#232323" d="M110.234,55.114c1.101,0,2.204,0,3.306,0c0,0.367,0,0.73,0,1.1
	c0,0.553,0,1.104,0,1.656c0,0.366,0,0.733,0,1.104c0,0.548,0,1.098,0,1.651c0,0.371,0,0.73,0,1.101c0,0.553,0,1.104,0,1.653
	c0,1.104,0,2.207,0,3.307c0,0.188,0,0.37,0,0.557c0.369,0,0.736,0,1.103,0c0.735,0,1.47,0,2.205,0c0,1.1,0,2.203,0,3.299
	c-1.47,0-2.938,0-4.409,0c-1.652,0-3.306,0-4.96,0c0-1.096,0-2.199,0-3.299c0.368,0,0.733,0,1.103,0c0.552,0,1.102,0,1.653,0
	c0-0.369,0-0.737,0-1.104c0-0.553,0-1.106,0-1.656c0-1.104,0-2.204,0-3.308c-0.185,0-0.368,0-0.552,0s-0.366,0-0.55,0
	c-0.179,0-0.376,0.021-0.552,0c-0.181-0.019-0.37,0.009-0.552,0c-0.08-0.001-0.499,0.055-0.551,0c-0.093-0.093,0.073-0.438,0-0.55
	c0-0.735,0-1.473,0-2.205c0.368,0,0.733,0,1.103,0c0.552,0,1.102,0,1.653,0C110.234,57.318,110.234,56.214,110.234,55.114z"/>
<path fill-rule="evenodd" clip-rule="evenodd" fill="#9D9D9D" d="M73.858,64.482c-1.102,0-2.206,0-3.307,0c0-0.367,0-0.735,0-1.104
	c0-0.55,0-1.101,0-1.653c0-1.101,0-2.204,0-3.306c1.102,0,2.205,0,3.307,0c0,0.554,0,1.102,0,1.651
	C73.858,61.544,73.858,63.012,73.858,64.482z"/>
<path fill-rule="evenodd" clip-rule="evenodd" fill="#FFFFFF" d="M82.677,58.42c0.184,0,0.367,0,0.551,0
	c0.182,0,0.367,0.009,0.551,0c0.182-0.01,0.369,0,0.552,0s0.366,0,0.551,0c0.552,0,1.104,0,1.653,0c0.184,0,0.368-0.01,0.551,0
	c0.183,0.011,0.369,0,0.552,0s0.368,0,0.552,0c0.154,0,0.403-0.044,0.55,0c0.101,0.029,0.48-0.07,0.552,0
	c0.092,0.092-0.072,0.441,0,0.554c0,0.366,0,0.734,0,1.098c0,0.369,0,0.737,0,1.104c-0.368,0-0.735,0-1.102,0
	c-0.552,0-1.104,0-1.654,0c-0.368,0-0.734,0-1.102,0c-0.552,0-1.103,0-1.654,0c-0.366,0-0.734,0-1.102,0c0-0.366,0-0.734,0-1.104
	C82.677,59.521,82.677,58.974,82.677,58.42z"/>
<path fill-rule="evenodd" clip-rule="evenodd" fill="#9D9D9D" d="M70.551,64.482c0,0.369,0,0.736,0,1.104c0,0.553,0,1.1,0,1.656
	c-0.369,0-0.735,0-1.102,0c-0.552,0-1.102,0-1.654,0c0-0.369,0-0.737,0-1.104c0-0.553,0-1.106,0-1.656c0.184,0,0.368,0,0.552,0
	C69.081,64.482,69.816,64.482,70.551,64.482z"/>
<path fill-rule="evenodd" clip-rule="evenodd" fill="#EDEDED" d="M70.551,64.482c1.102,0,2.205,0,3.307,0c0,0.55,0,1.104,0,1.656
	c0,0.366,0,0.734,0,1.104c0.552,0,1.1,0,1.654,0c0.368,0,0.733,0,1.101,0c0,1.1,0,2.203,0,3.299c1.102,0,2.205,0,3.309,0
	c0,0.557,0,1.106,0,1.656c0,0.369,0,0.736,0,1.104c0.368,0,0.734,0,1.102,0c0.553,0,1.104,0,1.654,0c1.102,0,2.204,0,3.308,0
	c0,1.104,0,2.204,0,3.308c0.55,0,1.101,0,1.652,0s1.102,0,1.653,0c0,0.55,0,1.104,0,1.654c0,0.368,0,0.737,0,1.102
	c0,0.552,0,1.103,0,1.654s0,1.102,0,1.653c-1.102,0-2.205,0-3.306,0c0,0.366,0,0.732,0,1.102c0,1.652,0,3.308,0,4.961
	c-1.104,0-2.206,0-3.308,0c0,1.103,0,2.204,0,3.308c-0.369,0-0.736,0-1.102,0c-0.553,0-1.104,0-1.654,0c0,0.366,0,0.736,0,1.103
	c0,0.552,0,1.102,0,1.653c-0.185,0-0.367,0-0.552,0c-1.837,0-3.675,0-5.511,0c-0.369,0-0.736,0-1.102,0c-0.552,0-1.104,0-1.653,0
	c-1.104,0-2.206,0-3.308,0c0-0.368,0-0.737,0-1.102c0-0.552,0-1.104,0-1.654c-1.102,0-2.206,0-3.307,0c0-1.104,0-2.205,0-3.308
	c-0.368,0-0.734,0-1.102,0c-0.553,0-1.104,0-1.654,0c0-0.367,0-0.734,0-1.105c0-0.548,0-1.102,0-1.651c-1.102,0-2.205,0-3.307,0
	c0-0.181,0-0.366,0-0.552c0-1.469,0-2.939,0-4.407c0-1.471,0-2.937,0-4.41c1.103,0,2.205,0,3.307,0c0-1.104,0-2.204,0-3.308
	c0.55,0,1.101,0,1.654,0c0.368,0,0.733,0,1.102,0c0-0.548,0-1.104,0-1.653c0-0.366,0-0.735,0-1.106c1.102,0,2.205,0,3.307,0
	c0-1.096,0-2.199,0-3.299c0.552,0,1.102,0,1.654,0c0.367,0,0.733,0,1.102,0c0-0.557,0-1.104,0-1.656
	C70.551,65.219,70.551,64.852,70.551,64.482z M64.488,81.57c0,0.367,0,0.737,0,1.102c1.102,0,2.205,0,3.307,0
	c0-0.552,0-1.102,0-1.653c0-0.366,0-0.736,0-1.103c-1.102,0-2.206,0-3.307,0C64.488,80.467,64.488,81.019,64.488,81.57z
	 M73.858,85.978c-1.102,0-2.206,0-3.307,0c0,2.022,0,4.042,0,6.064c1.102,0,2.205,0,3.307,0c0-0.552,0-1.104,0-1.653
	c0-0.552,0-1.104,0-1.654c0.367,0,0.733,0,1.1,0c0.554,0,1.102,0,1.654,0c0-0.367,0-0.734,0-1.105c0-1.651,0-3.307,0-4.957
	c-0.367,0-0.732,0-1.101,0c-0.554,0-1.102,0-1.654,0C73.858,83.773,73.858,84.877,73.858,85.978z"/>
<path fill-rule="evenodd" clip-rule="evenodd" fill="#9D9D9D" d="M73.858,64.482c0.367,0,0.733,0,1.1,0c0.554,0,1.102,0,1.654,0
	c0,0.369,0,0.736,0,1.104c0,0.553,0,1.1,0,1.656c-0.367,0-0.732,0-1.101,0c-0.554,0-1.102,0-1.654,0c0-0.369,0-0.737,0-1.104
	C73.858,65.586,73.858,65.032,73.858,64.482z"/>
<path fill-rule="evenodd" clip-rule="evenodd" fill="#232323" d="M107.479,67.242c-1.102,0-2.205,0-3.308,0c0-0.187,0-0.369,0-0.557
	c0-0.733,0-1.467,0-2.203c1.103,0,2.206,0,3.308,0c0,0.369,0,0.736,0,1.104C107.479,66.139,107.479,66.686,107.479,67.242z"/>
<path fill-rule="evenodd" clip-rule="evenodd" fill="#9D9D9D" d="M67.795,67.242c0,1.1,0,2.203,0,3.299c-1.102,0-2.206,0-3.307,0
	c0-1.096,0-2.199,0-3.299C65.589,67.242,66.693,67.242,67.795,67.242z"/>
<path fill-rule="evenodd" clip-rule="evenodd" fill="#9D9D9D" d="M76.612,67.242c1.102,0,2.205,0,3.309,0c0,1.1,0,2.203,0,3.299
	c-1.104,0-2.207,0-3.309,0C76.612,69.445,76.612,68.342,76.612,67.242z"/>
<path fill-rule="evenodd" clip-rule="evenodd" fill="#9D9D9D" d="M64.488,70.541c0,0.371,0,0.74,0,1.106c0,0.55,0,1.105,0,1.653
	c-0.368,0-0.734,0-1.102,0c-0.553,0-1.104,0-1.654,0c0-0.367,0-0.734,0-1.104c0-0.55,0-1.1,0-1.656c0.184,0,0.368,0,0.55,0
	C63.018,70.541,63.754,70.541,64.488,70.541z"/>
<path fill-rule="evenodd" clip-rule="evenodd" fill="#EDEDED" d="M107.479,70.541c0,0.371,0,0.74,0,1.106c0,0.55,0,1.105,0,1.653
	c-0.552,0-1.102,0-1.653,0s-1.102,0-1.654,0c-0.367,0-0.732,0-1.102,0c-0.552,0-1.102,0-1.654,0c0-0.181,0-0.367,0-0.548
	c0-0.737,0-1.472,0-2.212c0.369,0,0.734,0,1.103,0C104.171,70.541,105.825,70.541,107.479,70.541z"/>
<path fill-rule="evenodd" clip-rule="evenodd" fill="#232323" d="M116.848,70.541c0.369,0,0.735,0,1.104,0c0.551,0,1.102,0,1.652,0
	c0,0.371,0,0.74,0,1.106c0,0.55,0,1.105,0,1.653c-0.366,0-0.733,0-1.102,0c-0.551,0-1.104,0-1.654,0c0-0.548,0-1.104,0-1.653
	C116.848,71.281,116.848,70.912,116.848,70.541z"/>
<path fill-rule="evenodd" clip-rule="evenodd" fill="#9D9D9D" d="M61.732,73.301c0,1.104,0,2.204,0,3.308c-1.102,0-2.205,0-3.307,0
	c0-1.104,0-2.204,0-3.308C59.528,73.301,60.63,73.301,61.732,73.301z"/>
<path fill-rule="evenodd" clip-rule="evenodd" fill="#232323" d="M116.848,73.301c0,1.104,0,2.204,0,3.308c-2.205,0-4.409,0-6.613,0
	c0-1.104,0-2.204,0-3.308C112.438,73.301,114.643,73.301,116.848,73.301z"/>
<path fill-rule="evenodd" clip-rule="evenodd" fill="#232323" d="M36.93,76.608c1.101,0,2.207,0,3.307,0c0,2.022,0,4.044,0,6.063
	c-1.101,0-2.207,0-3.307,0c0-0.364,0-0.734,0-1.102c0-0.552,0-1.104,0-1.654C36.93,78.812,36.93,77.713,36.93,76.608z"/>
<path fill-rule="evenodd" clip-rule="evenodd" fill="#232323" d="M110.234,76.608c0,1.474,0,2.939,0,4.41c0,0.552,0,1.102,0,1.653
	c-0.368,0-0.735,0-1.102,0c-0.552,0-1.104,0-1.654,0c0,3.125,0,6.244,0,9.37c-1.102,0-2.205,0-3.308,0c0-0.366,0-0.734,0-1.104
	c0-0.55,0-1.102,0-1.654c0-1.102,0-2.203,0-3.307c0-0.366,0-0.732,0-1.101c0-0.555,0-1.104,0-1.651c0-1.105,0-2.207,0-3.31
	c-0.367,0-0.732,0-1.102,0c-0.552,0-1.102,0-1.654,0c0-0.737,0-1.472,0-2.203c0-0.369,0-0.735,0-1.104
	C104.355,76.608,107.294,76.608,110.234,76.608z"/>
<path fill-rule="evenodd" clip-rule="evenodd" fill="#FFFFFF" d="M64.488,79.916c1.102,0,2.205,0,3.307,0c0,0.366,0,0.736,0,1.103
	c0,0.552,0,1.102,0,1.653c-1.102,0-2.206,0-3.307,0c0-0.364,0-0.734,0-1.102C64.488,81.019,64.488,80.467,64.488,79.916z"/>
<path fill-rule="evenodd" clip-rule="evenodd" fill="#232323" d="M40.237,82.672c0.369,0,0.734,0,1.102,0c0.552,0,1.102,0,1.654,0
	c0,1.102,0,2.205,0,3.306c-0.368,0-0.733,0-1.102,0c-0.552,0-1.103,0-1.654,0C40.237,84.877,40.237,83.773,40.237,82.672z"/>
<path fill-rule="evenodd" clip-rule="evenodd" fill="#FFFFFF" d="M73.858,82.672c0.552,0,1.1,0,1.654,0c0.368,0,0.733,0,1.101,0
	c0,1.65,0,3.306,0,4.957c0,0.371,0,0.738,0,1.105c-0.553,0-1.101,0-1.654,0c-0.367,0-0.733,0-1.1,0c0,0.55,0,1.103,0,1.654
	c0,0.55,0,1.102,0,1.653c-1.102,0-2.206,0-3.307,0c0-2.022,0-4.042,0-6.064c1.102,0,2.205,0,3.307,0
	C73.858,84.877,73.858,83.773,73.858,82.672z"/>
<path fill-rule="evenodd" clip-rule="evenodd" fill="#EDEDED" d="M95.353,92.042c0-1.104,0-2.205,0-3.308c-1.102,0-2.205,0-3.308,0
	c0-0.552,0-1.105,0-1.653c0-0.369,0-0.737,0-1.104c0-0.552,0-1.101,0-1.655c0-0.549,0-1.097,0-1.65c0.736,0,1.47,0,2.206,0
	c0.365,0,0.734,0,1.102,0c0,0.554,0,1.102,0,1.65c0,0.555,0,1.104,0,1.655c0.367,0,0.733,0,1.102,0c0.553,0,1.103,0,1.654,0
	c0,0.55,0,1.104,0,1.651c0,0.371,0,0.738,0,1.105c0,0.55,0,1.103,0,1.654c0,0.55,0,1.102,0,1.653c-0.369,0-0.733,0-1.102,0
	C96.454,92.042,95.904,92.042,95.353,92.042z"/>
<path fill-rule="evenodd" clip-rule="evenodd" fill="#232323" d="M40.237,85.978c0,2.022,0,4.042,0,6.064c-1.101,0-2.207,0-3.307,0
	c0-0.366,0-0.734,0-1.104c0-0.55,0-1.102,0-1.654c0-1.102,0-2.203,0-3.307C38.03,85.978,39.136,85.978,40.237,85.978z"/>
<path fill-rule="evenodd" clip-rule="evenodd" fill="#232323" d="M55.118,92.042c-0.368,0-0.734,0-1.103,0c-0.551,0-1.102,0-1.654,0
	c0-0.552,0-1.104,0-1.653c0-0.552,0-1.104,0-1.654c0-0.367,0-0.734,0-1.105c0-0.548,0-1.102,0-1.651c0.185,0,0.369,0,0.552,0
	c0.735,0,1.471,0,2.205,0C55.118,88,55.118,90.02,55.118,92.042z"/>
<path fill-rule="evenodd" clip-rule="evenodd" fill="#FFFFFF" d="M92.045,85.978c0,0.366,0,0.734,0,1.104c0,0.548,0,1.102,0,1.653
	c-0.366,0-0.733,0-1.102,0c-0.552,0-1.103,0-1.653,0c0-0.367,0-0.734,0-1.105c0-0.548,0-1.102,0-1.651c0.368,0,0.734,0,1.102,0
	C90.943,85.978,91.493,85.978,92.045,85.978z"/>
<path fill-rule="evenodd" clip-rule="evenodd" fill="#EDEDED" d="M89.29,88.734c0.551,0,1.102,0,1.653,0c0.368,0,0.735,0,1.102,0
	c0,1.103,0,2.204,0,3.308c-0.366,0-0.733,0-1.102,0c-0.552,0-1.103,0-1.653,0C89.29,90.938,89.29,89.837,89.29,88.734z"/>
<path fill-rule="evenodd" clip-rule="evenodd" fill="#FFFFFF" d="M92.045,88.734c1.103,0,2.206,0,3.308,0c0,1.103,0,2.204,0,3.308
	c-1.102,0-2.205,0-3.308,0C92.045,90.938,92.045,89.837,92.045,88.734z"/>
<path fill-rule="evenodd" clip-rule="evenodd" fill="#232323" d="M36.93,92.042c0,0.736,0,1.469,0,2.204c0,0.368,0,0.732,0,1.102
	c0,0.55,0,1.104,0,1.653c0,0.366,0,0.736,0,1.101c-0.369,0-0.735,0-1.102,0c-0.552,0-1.104,0-1.654,0c0-0.364,0-0.734,0-1.101
	c0-0.55,0-1.104,0-1.653c0-1.102,0-2.203,0-3.306c0.367,0,0.734,0,1.102,0C35.828,92.042,36.376,92.042,36.93,92.042z"/>
<path fill-rule="evenodd" clip-rule="evenodd" fill="#9D9D9D" d="M36.93,92.042c1.101,0,2.207,0,3.307,0c0,1.103,0,2.204,0,3.306
	c0,0.55,0,1.104,0,1.653c0,0.366,0,0.736,0,1.101c-1.101,0-2.207,0-3.307,0c0-0.364,0-0.734,0-1.101c0-0.55,0-1.104,0-1.653
	c0-0.369,0-0.733,0-1.102C36.93,93.511,36.93,92.778,36.93,92.042z"/>
<path fill-rule="evenodd" clip-rule="evenodd" fill="#EDEDED" d="M40.237,92.042c0.369,0,0.734,0,1.102,0c0.552,0,1.102,0,1.654,0
	c1.102,0,2.205,0,3.308,0c0,0.366,0,0.736,0,1.103c0,0.552,0,1.102,0,1.653c0.366,0,0.733,0,1.102,0c0.552,0,1.101,0,1.654,0
	c0,0.733,0,1.469,0,2.203c0,0.366,0,0.736,0,1.101c-0.369,0-0.735,0-1.102,0c-0.552,0-1.103,0-1.653,0c0,0.368,0,0.737,0,1.104
	c0,0.552,0,1.103,0,1.656c-0.552,0-1.103,0-1.654,0s-1.102,0-1.653,0c0,1.103,0,2.203,0,3.306c0,1.104,0,2.205,0,3.308
	c-0.368,0-0.733,0-1.102,0c-0.552,0-1.103,0-1.654,0c0,0.552,0,1.104,0,1.652c0,0.37,0,0.736,0,1.104c-1.101,0-2.207,0-3.307,0
	c0-0.555,0-1.104,0-1.652c0-0.369,0-0.737,0-1.104c-0.369,0-0.735,0-1.102,0c-0.552,0-1.104,0-1.654,0c0,0.552,0,1.104,0,1.652
	c0,0.37,0,0.736,0,1.104c-1.102,0-2.206,0-3.307,0c0-2.021,0-4.042,0-6.063c1.102,0,2.205,0,3.307,0c0-1.103,0-2.203,0-3.306
	c0.55,0,1.102,0,1.654,0c0.367,0,0.733,0,1.102,0c0-0.554,0-1.104,0-1.656c0-0.366,0-0.735,0-1.104c1.101,0,2.207,0,3.307,0
	c0-0.364,0-0.734,0-1.101c0-0.55,0-1.104,0-1.653C40.237,94.246,40.237,93.145,40.237,92.042z"/>
<path fill-rule="evenodd" clip-rule="evenodd" fill="#232323" d="M55.118,92.042c1.102,0,2.205,0,3.308,0c0,0.366,0,0.736,0,1.103
	c0,0.552,0,1.102,0,1.653c1.103,0,2.205,0,3.307,0c0,1.1,0,2.203,0,3.304c0.368,0,0.735,0,1.101,0c0.553,0,1.102,0,1.654,0
	c0,0.186,0,0.368,0,0.554c0,0.735,0,1.469,0,2.206c1.102,0,2.205,0,3.307,0c0,1.103,0,2.203,0,3.306c4.961,0,9.919,0,14.882,0
	c0-1.103,0-2.203,0-3.306c0.551,0,1.102,0,1.653,0c1.654,0,3.307,0,4.96,0c0-0.369,0-0.737,0-1.104c0-0.552,0-1.102,0-1.655
	c0.184,0,0.368,0,0.551,0c0.734,0,1.471,0,2.204,0c0-1.101,0-2.204,0-3.304c1.103,0,2.206,0,3.308,0c0,1.1,0,2.203,0,3.304
	c0.367,0,0.733,0,1.102,0c0.553,0,1.103,0,1.654,0c0,0.368,0,0.737,0,1.104c0,0.552,0,1.103,0,1.656c-0.369,0-0.733,0-1.102,0
	c-0.553,0-1.103,0-1.654,0c0,1.103,0,2.203,0,3.306c-2.939,0-5.879,0-8.818,0c-0.184,0-0.368,0-0.55,0c0,0.366,0,0.735,0,1.104
	c0,0.733,0,1.467,0,2.204c-7.167,0-14.332,0-21.497,0c0-1.103,0-2.204,0-3.308c-0.368,0-0.734,0-1.102,0c-1.654,0-3.308,0-4.961,0
	c0-1.103,0-2.203,0-3.306c-1.103,0-2.206,0-3.308,0C55.118,97.923,55.118,94.979,55.118,92.042z"/>
<path fill-rule="evenodd" clip-rule="evenodd" fill="#EDEDED" d="M92.045,92.042c1.103,0,2.206,0,3.308,0c0,0.366,0,0.736,0,1.103
	c0,0.552,0,1.102,0,1.653c-1.102,0-2.205,0-3.308,0c0-0.368,0-0.737,0-1.102C92.045,93.145,92.045,92.593,92.045,92.042z"/>
<path fill-rule="evenodd" clip-rule="evenodd" fill="#EDEDED" d="M104.171,92.042c1.103,0,2.206,0,3.308,0c0,0.551,0,1.103,0,1.654
	c0,0.364,0,0.733,0,1.102c0.551,0,1.103,0,1.654,0c0.366,0,0.733,0,1.102,0c0,1.1,0,2.203,0,3.304c0,0.554,0,1.104,0,1.655
	c0,0.367,0,0.735,0,1.104c0,1.103,0,2.203,0,3.306c-1.102,0-2.205,0-3.308,0c-0.55,0-1.102,0-1.653,0c-0.366,0-0.733,0-1.103,0
	c0-1.103,0-2.203,0-3.306c-0.552,0-1.102,0-1.653,0c-0.368,0-0.733,0-1.103,0c0-0.369,0-0.737,0-1.104c0-0.552,0-1.102,0-1.655
	c0-1.101,0-2.204,0-3.304c0.369,0,0.734,0,1.103,0c0.552,0,1.102,0,1.653,0c0-0.368,0-0.737,0-1.102
	C104.171,93.145,104.171,92.593,104.171,92.042z"/>
<path fill-rule="evenodd" clip-rule="evenodd" fill="#232323" d="M107.479,92.042c0.368,0,0.733,0,1.103,0c0.552,0,1.102,0,1.653,0
	c0,0.366,0,0.736,0,1.103c0,0.552,0,1.102,0,1.653c-0.368,0-0.735,0-1.102,0c-0.552,0-1.104,0-1.654,0c0-0.368,0-0.737,0-1.102
	C107.479,93.145,107.479,92.593,107.479,92.042z"/>
<path fill-rule="evenodd" clip-rule="evenodd" fill="#232323" d="M110.234,94.798c1.101,0,2.204,0,3.306,0c0,0.365,0,0.733,0,1.1
	c0,1.655,0,3.308,0,4.964c-1.102,0-2.205,0-3.306,0c0-0.369,0-0.737,0-1.104c0-0.552,0-1.102,0-1.655
	C110.234,97.001,110.234,95.897,110.234,94.798z"/>
<path fill-rule="evenodd" clip-rule="evenodd" fill="#232323" d="M34.174,98.102c0,0.368,0,0.737,0,1.104c0,0.552,0,1.103,0,1.656
	c0,1.103,0,2.203,0,3.306c-1.102,0-2.206,0-3.307,0c0-0.366,0-0.736,0-1.103c0-0.554,0-1.101,0-1.656c0-0.547,0-1.101,0-1.651
	c0-0.552,0-1.102,0-1.655C31.968,98.102,33.072,98.102,34.174,98.102z"/>
<path fill-rule="evenodd" clip-rule="evenodd" fill="#9D9D9D" d="M34.174,98.102c0.55,0,1.102,0,1.654,0c0.367,0,0.733,0,1.102,0
	c0,0.368,0,0.737,0,1.104c0,0.552,0,1.103,0,1.656c-0.369,0-0.735,0-1.102,0c-0.552,0-1.104,0-1.654,0c0-0.554,0-1.104,0-1.656
	C34.174,98.839,34.174,98.47,34.174,98.102z"/>
<path fill-rule="evenodd" clip-rule="evenodd" fill="#232323" d="M55.118,100.861c0,1.103,0,2.203,0,3.306c-0.368,0-0.734,0-1.103,0
	c-1.654,0-3.307,0-4.959,0c0-1.103,0-2.203,0-3.306c0.552,0,1.101,0,1.652,0s1.102,0,1.653,0c0.369,0,0.736,0,1.103,0
	C54.015,100.861,54.567,100.861,55.118,100.861z"/>
<path fill-rule="evenodd" clip-rule="evenodd" fill="#232323" d="M98.108,100.861c1.1,0,2.206,0,3.307,0c0.369,0,0.734,0,1.103,0
	c0.552,0,1.102,0,1.653,0c0,1.103,0,2.203,0,3.306c-0.367,0-0.732,0-1.102,0c-0.552,0-1.102,0-1.654,0c-1.101,0-2.207,0-3.307,0
	C98.108,103.064,98.108,101.964,98.108,100.861z"/>
<path fill-rule="evenodd" clip-rule="evenodd" fill="#FFFFFF" d="M110.234,100.861c1.101,0,2.204,0,3.306,0c0,2.203,0,4.409,0,6.613
	c-1.102,0-2.205,0-3.306,0c0-1.103,0-2.204,0-3.308C110.234,103.064,110.234,101.964,110.234,100.861z"/>
<path fill-rule="evenodd" clip-rule="evenodd" fill="#232323" d="M113.54,100.861c1.103,0,2.205,0,3.308,0c0,2.203,0,4.409,0,6.613
	c-1.103,0-2.205,0-3.308,0C113.54,105.271,113.54,103.064,113.54,100.861z"/>
<path fill-rule="evenodd" clip-rule="evenodd" fill="#232323" d="M30.867,104.167c0,2.021,0,4.042,0,6.063c-1.102,0-2.206,0-3.308,0
	c0-0.367,0-0.733,0-1.104c0-0.549,0-1.101,0-1.652c0-1.103,0-2.204,0-3.308C28.661,104.167,29.765,104.167,30.867,104.167z"/>
<path fill-rule="evenodd" clip-rule="evenodd" fill="#232323" d="M42.993,104.167c0.367,0,0.736,0,1.102,0c0.552,0,1.104,0,1.654,0
	c1.103,0,2.206,0,3.308,0c0,1.104,0,2.205,0,3.308c-0.369,0-0.735,0-1.102,0c-1.653,0-3.308,0-4.961,0
	C42.993,106.372,42.993,105.271,42.993,104.167z"/>
<path fill-rule="evenodd" clip-rule="evenodd" fill="#232323" d="M104.171,104.167c0.369,0,0.736,0,1.103,0c0.552,0,1.104,0,1.653,0
	c1.103,0,2.206,0,3.308,0c0,1.104,0,2.205,0,3.308c-0.368,0-0.735,0-1.102,0c-0.552,0-1.104,0-1.654,0c-0.552,0-1.102,0-1.653,0
	s-1.102,0-1.654,0C104.171,106.372,104.171,105.271,104.171,104.167z"/>
<path fill-rule="evenodd" clip-rule="evenodd" fill="#232323" d="M36.93,110.23c-0.369,0-0.735,0-1.102,0c-0.552,0-1.104,0-1.654,0
	c0-0.367,0-0.733,0-1.104c0-0.549,0-1.101,0-1.652c0.55,0,1.102,0,1.654,0c0.367,0,0.733,0,1.102,0c0,0.366,0,0.734,0,1.104
	C36.93,109.127,36.93,109.676,36.93,110.23z"/>
<path fill-rule="evenodd" clip-rule="evenodd" fill="#232323" d="M42.993,107.475c0,0.366,0,0.734,0,1.104c0,0.549,0,1.098,0,1.652
	c-0.368,0-0.733,0-1.102,0c-0.552,0-1.103,0-1.654,0c0-0.367,0-0.733,0-1.104c0-0.549,0-1.101,0-1.652c0.551,0,1.102,0,1.654,0
	C42.259,107.475,42.625,107.475,42.993,107.475z"/>
<path fill-rule="evenodd" clip-rule="evenodd" fill="#232323" d="M110.234,107.475c1.101,0,2.204,0,3.306,0c0,0.366,0,0.734,0,1.104
	c0,0.549,0,1.098,0,1.652c-1.102,0-2.205,0-3.306,0c0-0.367,0-0.733,0-1.104C110.234,108.578,110.234,108.026,110.234,107.475z"/>
<path fill-rule="evenodd" clip-rule="evenodd" fill="#FFFFFF" d="M113.54,107.475c1.103,0,2.205,0,3.308,0c0,0.366,0,0.734,0,1.104
	c0,0.549,0,1.098,0,1.652c-1.103,0-2.205,0-3.308,0c0-0.555,0-1.104,0-1.652C113.54,108.209,113.54,107.841,113.54,107.475z"/>
<path fill-rule="evenodd" clip-rule="evenodd" fill="#232323" d="M116.848,107.475c0.369,0,0.735,0,1.104,0c0.551,0,1.102,0,1.652,0
	c0,0.366,0,0.734,0,1.104c0,0.549,0,1.098,0,1.652c0,1.101,0,2.205,0,3.308c-0.366,0-0.733,0-1.102,0c-0.551,0-1.104,0-1.654,0
	c-1.103,0-2.205,0-3.308,0c0-1.103,0-2.207,0-3.308c1.103,0,2.205,0,3.308,0c0-0.555,0-1.104,0-1.652
	C116.848,108.209,116.848,107.841,116.848,107.475z"/>
<path fill-rule="evenodd" clip-rule="evenodd" fill="#232323" d="M27.559,110.23c0,0.734,0,1.47,0,2.205c0,0.368,0,0.734,0,1.103
	c0,0.549,0,1.101,0,1.651c0,0.366,0,0.734,0,1.102c-0.367,0-0.733,0-1.102,0c-0.551,0-1.101,0-1.653,0c0-0.367,0-0.735,0-1.102
	c0-0.551,0-1.103,0-1.651c0-1.103,0-2.207,0-3.308c0.368,0,0.734,0,1.102,0C26.457,110.23,27.009,110.23,27.559,110.23z"/>
<path fill-rule="evenodd" clip-rule="evenodd" fill="#FFFFFF" d="M27.559,110.23c1.102,0,2.206,0,3.308,0c0,1.101,0,2.205,0,3.308
	c0,0.549,0,1.101,0,1.651c0,0.366,0,0.734,0,1.102c-1.102,0-2.206,0-3.308,0c0-0.367,0-0.735,0-1.102c0-0.551,0-1.103,0-1.651
	c0-0.368,0-0.734,0-1.103C27.559,111.7,27.559,110.965,27.559,110.23z"/>
<path fill-rule="evenodd" clip-rule="evenodd" fill="#232323" d="M30.867,110.23c1.102,0,2.205,0,3.307,0c0,1.101,0,2.205,0,3.308
	c0.55,0,1.102,0,1.654,0c0.367,0,0.733,0,1.102,0c0,0.182,0,0.363,0,0.549c0,0.737,0,1.469,0,2.204c-0.369,0-0.735,0-1.102,0
	c-0.552,0-1.104,0-1.654,0c-1.102,0-2.206,0-3.307,0c0-0.367,0-0.735,0-1.102c0-0.551,0-1.103,0-1.651
	C30.867,112.436,30.867,111.331,30.867,110.23z"/>
<path fill-rule="evenodd" clip-rule="evenodd" fill="#EDEDED" d="M34.174,110.23c0.55,0,1.102,0,1.654,0c0.367,0,0.733,0,1.102,0
	c0,1.101,0,2.205,0,3.308c-0.369,0-0.735,0-1.102,0c-0.552,0-1.104,0-1.654,0C34.174,112.436,34.174,111.331,34.174,110.23z"/>
<path fill-rule="evenodd" clip-rule="evenodd" fill="#232323" d="M36.93,110.23c1.101,0,2.207,0,3.307,0c0,1.101,0,2.205,0,3.308
	c-1.101,0-2.207,0-3.307,0C36.93,112.436,36.93,111.331,36.93,110.23z"/>
<path fill-rule="evenodd" clip-rule="evenodd" fill="#232323" d="M119.604,113.538c1.104,0,2.206,0,3.308,0c0,0.363,0,0.732,0,1.101
	c0,0.551,0,1.104,0,1.652c-1.102,0-2.204,0-3.308,0c0-0.367,0-0.735,0-1.102C119.604,114.639,119.604,114.087,119.604,113.538z"/>
<path fill-rule="evenodd" clip-rule="evenodd" fill="#232323" d="M24.804,116.291c0,1.104,0,2.203,0,3.307c0.552,0,1.102,0,1.653,0
	c0.369,0,0.735,0,1.102,0c0,0.186,0,0.37,0,0.552c0,0.736,0,1.471,0,2.208c-0.367,0-0.733,0-1.102,0c-0.551,0-1.101,0-1.653,0
	c-1.102,0-2.205,0-3.307,0c0-0.368,0-0.737,0-1.104c0-0.552,0-1.104,0-1.655c0-1.104,0-2.203,0-3.307
	C22.6,116.291,23.702,116.291,24.804,116.291z"/>
<path fill-rule="evenodd" clip-rule="evenodd" fill="#FFFFFF" d="M24.804,116.291c0.552,0,1.102,0,1.653,0c0.369,0,0.735,0,1.102,0
	c0,1.104,0,2.203,0,3.307c-0.367,0-0.733,0-1.102,0c-0.551,0-1.101,0-1.653,0C24.804,118.494,24.804,117.395,24.804,116.291z"/>
<path fill-rule="evenodd" clip-rule="evenodd" fill="#232323" d="M27.559,116.291c1.102,0,2.206,0,3.308,0c0,1.104,0,2.203,0,3.307
	c-1.102,0-2.206,0-3.308,0C27.559,118.494,27.559,117.395,27.559,116.291z"/>
<path fill-rule="evenodd" clip-rule="evenodd" fill="#232323" d="M21.498,122.357c0,1.099,0,2.203,0,3.302c-0.369,0-0.735,0-1.103,0
	c-0.55,0-1.102,0-1.652,0c0-1.099,0-2.203,0-3.302c0.367,0,0.732,0,1.102,0C20.395,122.357,20.946,122.357,21.498,122.357z"/>
</svg>
