<?xml version="1.0" encoding="utf-8"?>
<!-- Generator: Adobe Illustrator 15.0.0, SVG Export Plug-In  -->
<!DOCTYPE svg PUBLIC "-//W3C//DTD SVG 1.1//EN" "http://www.w3.org/Graphics/SVG/1.1/DTD/svg11.dtd" [
	<!ENTITY ns_flows "http://ns.adobe.com/Flows/1.0/">
]>
<svg version="1.1"
	 xmlns="http://www.w3.org/2000/svg" xmlns:xlink="http://www.w3.org/1999/xlink" xmlns:a="http://ns.adobe.com/AdobeSVGViewerExtensions/3.0/"
	 x="0px" y="0px" width="500px" height="500px" viewBox="-162.639 -171.42 500 500"
	 enable-background="new -162.639 -171.42 500 500" xml:space="preserve">
<defs>
</defs>
<path fill-rule="evenodd" clip-rule="evenodd" fill="#222222" d="M8.818,3.305c-2.022,0-4.042,0-6.064,0c0,1.104,0,2.207,0,3.309
	c-0.552,0-1.102,0-1.653,0c-0.368,0-0.734,0-1.101,0c0-0.369,0-0.734,0-1.102c0-0.555,0-1.103,0-1.656C0,2.572,0,1.285,0,0
	c2.938,0,5.878,0,8.818,0C8.818,1.102,8.818,2.205,8.818,3.305z"/>
<path fill-rule="evenodd" clip-rule="evenodd" fill="#FFFFFF" d="M8.818,3.305c0,1.104,0,2.207,0,3.309c-2.022,0-4.042,0-6.064,0
	c0-1.102,0-2.204,0-3.309C4.776,3.305,6.796,3.305,8.818,3.305z"/>
<path fill-rule="evenodd" clip-rule="evenodd" fill="#222222" d="M8.818,3.305c2.02,0,4.041,0,6.062,0c0,1.104,0,2.207,0,3.309
	c-2.021,0-4.042,0-6.062,0C8.818,5.512,8.818,4.409,8.818,3.305z"/>
<path fill-rule="evenodd" clip-rule="evenodd" fill="#222222" d="M2.754,6.613c2.022,0,4.042,0,6.064,0c0,0.551,0,1.104,0,1.651
	c0,0.369,0,0.737,0,1.104c-0.553,0-1.102,0-1.654,0c-0.368,0-0.736,0-1.102,0c0,1.102,0,2.204,0,3.307c-1.103,0-2.206,0-3.308,0
	c0-1.469,0-2.94,0-4.41C2.754,7.717,2.754,7.164,2.754,6.613z"/>
<path fill-rule="evenodd" clip-rule="evenodd" fill="#FFFFFF" d="M8.818,6.613c2.02,0,4.041,0,6.062,0c0,0.551,0,1.104,0,1.651
	c0,0.369,0,0.737,0,1.104c2.205,0,4.41,0,6.614,0c0,1.102,0,2.204,0,3.307c0.551,0,1.102,0,1.654,0c0.367,0,0.733,0,1.102,0
	c0,0.554,0,1.101,0,1.652c0,0.367,0,0.736,0,1.103c1.101,0,2.207,0,3.307,0c0,1.105,0,2.205,0,3.309c0.553,0,1.103,0,1.654,0
	c0.369,0,0.734,0,1.102,0c0,0.551,0,1.104,0,1.655c0,0.368,0,0.734,0,1.104c1.102,0,2.205,0,3.308,0c0,1.1,0,2.204,0,3.3
	c-2.021,0-4.041,0-6.064,0c0-1.096,0-2.2,0-3.3c-2.021,0-4.041,0-6.063,0c0-0.556,0-1.104,0-1.655c0-0.367,0-0.736,0-1.104
	c-1.102,0-2.204,0-3.307,0c0-1.104,0-2.203,0-3.309c-1.102,0-2.205,0-3.307,0c0-0.735,0-1.467,0-2.201c0-0.186,0-0.369,0-0.554
	c-0.55,0-1.102,0-1.653,0c-0.368,0-0.734,0-1.102,0c0-1.103,0-2.205,0-3.307c-1.103,0-2.206,0-3.307,0c0-0.366,0-0.734,0-1.104
	C8.818,7.717,8.818,7.164,8.818,6.613z"/>
<path fill-rule="evenodd" clip-rule="evenodd" fill="#222222" d="M14.88,6.613c2.205,0,4.41,0,6.614,0c0,0.183,0,0.368,0,0.551
	c0,0.734,0,1.47,0,2.204c-2.204,0-4.409,0-6.614,0c0-0.366,0-0.734,0-1.104C14.88,7.717,14.88,7.164,14.88,6.613z"/>
<path fill-rule="evenodd" clip-rule="evenodd" fill="#222222" d="M171.412,12.675c0-1.103,0-2.205,0-3.307c-1.103,0-2.206,0-3.308,0
	c0-0.366,0-0.734,0-1.104c0-0.548,0-1.101,0-1.651c0.368,0,0.735,0,1.102,0c0.552,0,1.104,0,1.654,0c1.103,0,2.204,0,3.308,0
	c0,0.368,0,0.735,0,1.104c0,1.651,0,3.306,0,4.958c-0.369,0-0.735,0-1.104,0C172.513,12.675,171.962,12.675,171.412,12.675z"/>
<path fill-rule="evenodd" clip-rule="evenodd" fill="#A2A2A2" d="M8.818,9.368c0,1.102,0,2.204,0,3.307c-0.37,0-0.735,0-1.102,0
	c-0.552,0-1.103,0-1.654,0c0-1.103,0-2.205,0-3.307c0.366,0,0.734,0,1.102,0C7.716,9.368,8.266,9.368,8.818,9.368z"/>
<path fill-rule="evenodd" clip-rule="evenodd" fill="#222222" d="M8.818,9.368c1.102,0,2.205,0,3.307,0c0,1.102,0,2.204,0,3.307
	c-1.103,0-2.206,0-3.307,0C8.818,11.572,8.818,10.47,8.818,9.368z"/>
<path fill-rule="evenodd" clip-rule="evenodd" fill="#222222" d="M21.494,9.368c2.021,0,4.042,0,6.063,0c0,1.102,0,2.204,0,3.307
	c-1.1,0-2.206,0-3.307,0c-0.368,0-0.734,0-1.102,0c-0.552,0-1.103,0-1.654,0C21.494,11.572,21.494,10.47,21.494,9.368z"/>
<path fill-rule="evenodd" clip-rule="evenodd" fill="#222222" d="M168.104,9.368c0,1.102,0,2.204,0,3.307c-2.94,0-5.88,0-8.818,0
	c0-1.103,0-2.205,0-3.307C162.224,9.368,165.164,9.368,168.104,9.368z"/>
<path fill-rule="evenodd" clip-rule="evenodd" fill="#FFFFFF" d="M168.104,9.368c1.102,0,2.205,0,3.308,0c0,1.102,0,2.204,0,3.307
	c-1.103,0-2.206,0-3.308,0C168.104,11.572,168.104,10.47,168.104,9.368z"/>
<path fill-rule="evenodd" clip-rule="evenodd" fill="#222222" d="M6.062,12.675c0.551,0,1.102,0,1.654,0c0.367,0,0.732,0,1.102,0
	c0,0.368,0,0.733,0,1.101c0,0.552,0,1.104,0,1.654c-0.37,0-0.735,0-1.102,0c-0.552,0-1.103,0-1.654,0c0-0.366,0-0.735,0-1.103
	C6.062,13.775,6.062,13.229,6.062,12.675z"/>
<path fill-rule="evenodd" clip-rule="evenodd" fill="#EDEDED" d="M8.818,12.675c1.102,0,2.205,0,3.307,0c0,0.368,0,0.733,0,1.101
	c0,0.552,0,1.104,0,1.654c-1.103,0-2.206,0-3.307,0c0-0.551,0-1.103,0-1.654C8.818,13.408,8.818,13.043,8.818,12.675z"/>
<path fill-rule="evenodd" clip-rule="evenodd" fill="#222222" d="M12.125,12.675c0.367,0,0.734,0,1.102,0c0.552,0,1.104,0,1.653,0
	c0,0.185,0,0.368,0,0.554c0,0.734,0,1.466,0,2.201c-0.368,0-0.734,0-1.102,0c-0.552,0-1.102,0-1.653,0c0-0.551,0-1.103,0-1.654
	C12.125,13.408,12.125,13.043,12.125,12.675z"/>
<path fill-rule="evenodd" clip-rule="evenodd" fill="#EDEDED" d="M24.25,12.675c1.101,0,2.207,0,3.307,0c0,0.368,0,0.733,0,1.101
	c0,0.552,0,1.104,0,1.654c-1.1,0-2.206,0-3.307,0c0-0.366,0-0.735,0-1.103C24.25,13.775,24.25,13.229,24.25,12.675z"/>
<path fill-rule="evenodd" clip-rule="evenodd" fill="#222222" d="M27.557,12.675c2.023,0,4.042,0,6.064,0c0,0.368,0,0.733,0,1.101
	c0,0.552,0,1.104,0,1.654c-1.103,0-2.206,0-3.308,0c-0.551,0-1.102,0-1.653,0c-0.368,0-0.734,0-1.103,0c0-0.551,0-1.103,0-1.654
	C27.557,13.408,27.557,13.043,27.557,12.675z"/>
<path fill-rule="evenodd" clip-rule="evenodd" fill="#222222" d="M159.286,12.675c0,0.554,0,1.101,0,1.652c0,0.367,0,0.736,0,1.103
	c-1.103,0-2.206,0-3.308,0s-2.205,0-3.308,0c0-0.181,0-0.366,0-0.551s0-0.367,0-0.552c0-0.174-0.02-0.375,0-0.552
	c0.022-0.178-0.009-0.368,0-0.547c0.005-0.081-0.052-0.5,0-0.554c0.093-0.089,0.441,0.073,0.552,0
	C155.245,12.675,157.265,12.675,159.286,12.675z"/>
<path fill-rule="evenodd" clip-rule="evenodd" fill="#FFFFFF" d="M159.286,12.675c2.938,0,5.878,0,8.818,0c0,0.368,0,0.733,0,1.101
	c0,0.552,0,1.104,0,1.654c-1.471,0-2.94,0-4.409,0c-0.553,0-1.102,0-1.654,0c0,1.105,0,2.205,0,3.309c-0.735,0-1.471,0-2.204,0
	c-0.185,0-0.366,0-0.551,0c0,0.551,0,1.104,0,1.655c0,0.368,0,0.734,0,1.104c-1.103,0-2.206,0-3.308,0c0,1.1,0,2.204,0,3.3
	c-1.102,0-2.205,0-3.308,0c0,0.557,0,1.108,0,1.655c0,0.369,0,0.735,0,1.104c-2.022,0-4.041,0-6.063,0c0-0.369,0-0.735,0-1.104
	c0-0.547,0-1.099,0-1.655c1.104,0,2.207,0,3.309,0c0-1.096,0-2.2,0-3.3c0.553,0,1.102,0,1.654,0c0.367,0,0.733,0,1.101,0
	c0-0.556,0-1.104,0-1.655c0-0.367,0-0.736,0-1.104c1.103,0,2.206,0,3.308,0c0-1.104,0-2.203,0-3.309c1.102,0,2.205,0,3.308,0
	c0-0.366,0-0.735,0-1.103C159.286,13.775,159.286,13.229,159.286,12.675z"/>
<path fill-rule="evenodd" clip-rule="evenodd" fill="#222222" d="M168.104,12.675c1.102,0,2.205,0,3.308,0c0,0.368,0,0.733,0,1.101
	c0,0.552,0,1.104,0,1.654c-1.103,0-2.206,0-3.308,0c0-0.551,0-1.103,0-1.654C168.104,13.408,168.104,13.043,168.104,12.675z"/>
<path fill-rule="evenodd" clip-rule="evenodd" fill="#222222" d="M8.818,15.43c1.102,0,2.205,0,3.307,0c0,1.105,0,2.205,0,3.309
	c0,0.551,0,1.104,0,1.655c0,0.368,0,0.734,0,1.104c-1.103,0-2.206,0-3.307,0c0-0.369,0-0.735,0-1.104c0-0.552,0-1.104,0-1.655
	C8.818,17.635,8.818,16.535,8.818,15.43z"/>
<path fill-rule="evenodd" clip-rule="evenodd" fill="#EDEDED" d="M12.125,15.43c0.551,0,1.102,0,1.653,0c0.367,0,0.734,0,1.102,0
	c0,1.105,0,2.205,0,3.309c-0.368,0-0.734,0-1.102,0c-0.552,0-1.102,0-1.653,0C12.125,17.635,12.125,16.535,12.125,15.43z"/>
<path fill-rule="evenodd" clip-rule="evenodd" fill="#222222" d="M14.88,15.43c1.102,0,2.205,0,3.307,0c0,1.105,0,2.205,0,3.309
	c-1.102,0-2.205,0-3.307,0C14.88,17.635,14.88,16.535,14.88,15.43z"/>
<path fill-rule="evenodd" clip-rule="evenodd" fill="#EDEDED" d="M27.557,15.43c0.369,0,0.735,0,1.103,0c0.551,0,1.102,0,1.653,0
	c0,1.105,0,2.205,0,3.309c-0.368,0-0.733,0-1.102,0c-0.551,0-1.102,0-1.654,0C27.557,17.635,27.557,16.535,27.557,15.43z"/>
<path fill-rule="evenodd" clip-rule="evenodd" fill="#A2A2A2" d="M30.313,15.43c1.102,0,2.205,0,3.308,0c0,1.105,0,2.205,0,3.309
	c-1.103,0-2.206,0-3.308,0C30.313,17.635,30.313,16.535,30.313,15.43z"/>
<path fill-rule="evenodd" clip-rule="evenodd" fill="#222222" d="M33.621,15.43c2.939,0,5.878,0,8.818,0c0,1.105,0,2.205,0,3.309
	c-2.021,0-4.041,0-6.063,0c-0.551,0-1.102,0-1.653,0c-0.369,0-0.735,0-1.103,0C33.621,17.635,33.621,16.535,33.621,15.43z"/>
<path fill-rule="evenodd" clip-rule="evenodd" fill="#222222" d="M152.67,15.43c0,1.105,0,2.205,0,3.309c-2.022,0-4.041,0-6.063,0
	c0-1.104,0-2.203,0-3.309C148.629,15.43,150.648,15.43,152.67,15.43z"/>
<path fill-rule="evenodd" clip-rule="evenodd" fill="#A2A2A2" d="M152.67,15.43c1.103,0,2.206,0,3.308,0c0,1.105,0,2.205,0,3.309
	c-1.102,0-2.205,0-3.308,0C152.67,17.635,152.67,16.535,152.67,15.43z"/>
<path fill-rule="evenodd" clip-rule="evenodd" fill="#222222" d="M168.104,15.43c0,1.105,0,2.205,0,3.309c-0.368,0-0.733,0-1.104,0
	c-0.551,0-1.101,0-1.653,0c0,0.367,0,0.736,0,1.104c0,0.552,0,1.1,0,1.655c0,1.1,0,2.204,0,3.3c-1.102,0-2.205,0-3.307,0
	c0-1.096,0-2.2,0-3.3c-0.551,0-1.102,0-1.653,0c-0.368,0-0.735,0-1.102,0c0-0.369,0-0.735,0-1.104c0-0.552,0-1.104,0-1.655
	c0.185,0,0.366,0,0.551,0c0.733,0,1.469,0,2.204,0c0-1.104,0-2.203,0-3.309c0.553,0,1.102,0,1.654,0
	C165.164,15.43,166.633,15.43,168.104,15.43z"/>
<path fill-rule="evenodd" clip-rule="evenodd" fill="#A2A2A2" d="M12.125,18.738c0.551,0,1.102,0,1.653,0c0.367,0,0.734,0,1.102,0
	c0,0.367,0,0.736,0,1.104c0,0.552,0,1.1,0,1.655c-0.368,0-0.734,0-1.102,0c-0.552,0-1.102,0-1.653,0c0-0.369,0-0.735,0-1.104
	C12.125,19.842,12.125,19.289,12.125,18.738z"/>
<path fill-rule="evenodd" clip-rule="evenodd" fill="#EDEDED" d="M14.88,18.738c1.102,0,2.205,0,3.307,0c1.103,0,2.205,0,3.307,0
	c0,0.367,0,0.736,0,1.104c0,0.552,0,1.1,0,1.655c2.021,0,4.042,0,6.063,0c0,1.1,0,2.204,0,3.3c2.023,0,4.042,0,6.064,0
	c0-1.096,0-2.2,0-3.3c-1.103,0-2.206,0-3.308,0c0-0.369,0-0.735,0-1.104c0-0.552,0-1.104,0-1.655c1.102,0,2.205,0,3.308,0
	c0.367,0,0.734,0,1.103,0c0.551,0,1.102,0,1.653,0c0,0.551,0,1.104,0,1.655c0,0.368,0,0.734,0,1.104c1.101,0,2.205,0,3.307,0
	c0.551,0,1.102,0,1.653,0c0.369,0,0.735,0,1.103,0c0,0.548,0,1.1,0,1.651c0,0.553,0,1.101,0,1.648c0.551,0,1.102,0,1.653,0
	c0.551,0,1.102,0,1.654,0c0,0.557,0,1.108,0,1.655c0,0.369,0,0.735,0,1.104c1.653,0,3.308,0,4.961,0c0.367,0,0.734,0,1.102,0
	c0,1.104,0,2.204,0,3.308c1.102,0,2.205,0,3.307,0c0,1.104,0,2.203,0,3.307c1.653,0,3.307,0,4.96,0c0.366,0,0.734,0,1.102,0
	c0,0.735,0,1.467,0,2.204c0,0.187,0,0.367,0,0.553c0.552,0,1.102,0,1.654,0c0.368,0,0.734,0,1.101,0c0,1.1,0,2.204,0,3.305
	c1.102,0,2.206,0,3.309,0c0,0.555,0,1.104,0,1.653c0,0.368,0,0.738,0,1.104c0.733,0,1.469,0,2.205,0c0.183,0,0.366,0,0.551,0
	c0-0.551,0-1.104,0-1.654c0-0.368,0-0.735,0-1.104c1.102,0,2.205,0,3.308,0c1.102,0,2.205,0,3.306,0c0.55,0,1.102,0,1.653,0
	c0.368,0,0.735,0,1.101,0c5.146,0,10.29,0,15.433,0c0,0.555,0,1.104,0,1.653c0,0.368,0,0.738,0,1.104c1.654,0,3.309,0,4.962,0
	c0.366,0,0.734,0,1.102,0c0,1.101,0,2.203,0,3.307c1.102,0,2.204,0,3.307,0c0,0.55,0,1.102,0,1.654c0,0.365,0,0.732,0,1.103
	c0.551,0,1.103,0,1.653,0c0.368,0,0.736,0,1.104,0c0,5.145,0,10.286,0,15.433c-0.553,0-1.104,0-1.654,0c-0.368,0-0.734,0-1.103,0
	c0,1.102,0,2.204,0,3.305c-1.103,0-2.205,0-3.307,0c0,0.551,0,1.103,0,1.652c0,0.369,0,0.737,0,1.103c-1.102,0-2.204,0-3.308,0
	c0,1.104,0,2.206,0,3.308c-0.55,0-1.102,0-1.652,0c-0.369,0-0.734,0-1.104,0c0,0.553,0,1.104,0,1.655c0,0.367,0,0.735,0,1.104
	c-1.102,0-2.204,0-3.307,0c0,1.099,0,2.204,0,3.304c-0.552,0-1.102,0-1.653,0c-0.368,0-0.733,0-1.101,0c0,1.656,0,3.307,0,4.962
	c0,0.366,0,0.734,0,1.104c1.652,0,3.306,0,4.959,0c0.366,0,0.735,0,1.102,0c0-1.104,0-2.204,0-3.308c0-0.553,0-1.102,0-1.656
	c0-0.366,0-0.733,0-1.102c0.553,0,1.104,0,1.654,0c0.367,0,0.734,0,1.102,0c0-1.1,0-2.205,0-3.304c0-0.555,0-1.104,0-1.655
	c0-0.366,0-0.735,0-1.104c1.104,0,2.206,0,3.308,0c0-1.102,0-2.203,0-3.308c1.102,0,2.204,0,3.307,0c0-0.548,0-1.103,0-1.652
	c0-0.366,0-0.734,0-1.103c0.551,0,1.103,0,1.653,0c0.368,0,0.736,0,1.104,0c0,0.551,0,1.103,0,1.652c0,0.369,0,0.737,0,1.103
	c1.102,0,2.205,0,3.307,0c0.552,0,1.103,0,1.654,0c0.367,0,0.734,0,1.102,0c0,1.104,0,2.206,0,3.308c0.552,0,1.102,0,1.652,0
	c0.553,0,1.103,0,1.654,0c0,0.368,0,0.737,0,1.104c0,0.552,0,1.101,0,1.655c-1.102,0-2.205,0-3.307,0c0,1.099,0,2.204,0,3.304
	c0.367,0,0.734,0,1.102,0c0.735,0,1.471,0,2.205,0c0-1.1,0-2.205,0-3.304c0.551,0,1.102,0,1.652,0c0.369,0,0.735,0,1.104,0
	c0-2.939,0-5.881,0-8.821c-0.552,0-1.104,0-1.654,0c-0.367,0-0.733,0-1.102,0c0-0.553,0-1.101,0-1.655c0-0.548,0-1.1,0-1.649
	c-2.021,0-4.041,0-6.063,0c0-0.366,0-0.735,0-1.104c0-0.551,0-1.103,0-1.654c2.939,0,5.879,0,8.818,0c0,0.552,0,1.104,0,1.654
	c0,0.368,0,0.737,0,1.104c1.101,0,2.205,0,3.307,0c0,1.102,0,2.204,0,3.305c0.552,0,1.102,0,1.653,0c0.368,0,0.734,0,1.103,0
	c0,0.551,0,1.103,0,1.652c0,0.369,0,0.737,0,1.103c1.101,0,2.207,0,3.307,0c0,1.104,0,2.206,0,3.308c0,0.553,0,1.104,0,1.655
	c0,0.367,0,0.735,0,1.104c0,5.143,0,10.286,0,15.432c-1.1,0-2.206,0-3.307,0c0,0.55,0,1.1,0,1.65c0,0.554,0,1.104,0,1.653
	c-0.734,0-1.47,0-2.204,0c-0.184,0-0.367,0-0.552,0c0,0.555,0,1.104,0,1.654c0,0.368,0,0.737,0,1.104c-1.102,0-2.206,0-3.307,0
	c0,1.104,0,2.204,0,3.308c-0.552,0-1.104,0-1.654,0c-0.367,0-0.733,0-1.102,0c0,0.548,0,1.102,0,1.656c0,0.366,0,0.733,0,1.104
	c-1.102,0-2.205,0-3.307,0c0,1.097,0,2.201,0,3.302c-1.653,0-3.307,0-4.961,0c-0.367,0-0.736,0-1.102,0c0,0.735,0,1.472,0,2.205
	c0.072,0.11-0.093,0.459,0,0.552c0.066,0.068,0.452-0.025,0.551,0c0.156,0.038,0.39,0,0.551,0c0.185,0,0.37-0.009,0.55,0
	c0.183,0.01,0.368,0,0.554,0c0.182,0,0.366,0,0.551,0c0.182,0,0.366,0,0.551,0c0,1.104,0,2.204,0,3.308c-0.551,0-1.102,0-1.655,0
	c-0.55,0-1.101,0-1.651,0c0,0.55,0,1.102,0,1.653c0,0.548,0,1.103,0,1.65c-0.367,0-0.735,0-1.104,0c-0.551,0-1.103,0-1.653,0
	c0-1.103,0-2.202,0-3.304c-1.103,0-2.205,0-3.307,0c0-1.104,0-2.204,0-3.308c1.102,0,2.204,0,3.307,0c0-0.736,0-1.471,0-2.203
	c-0.073-0.11,0.092-0.463,0-0.554c-0.066-0.065-0.452,0.026-0.552,0c-0.155-0.039-0.389,0-0.551,0c-0.184,0-0.367,0-0.551,0
	c-0.552,0-1.102,0-1.653,0c0-0.55,0-1.101,0-1.652c0-0.553,0-1.102,0-1.649c-1.102,0-2.204,0-3.308,0c-0.55,0-1.102,0-1.652,0
	c-0.369,0-0.734,0-1.104,0c0-0.37,0-0.737,0-1.104c0-0.555,0-1.108,0-1.656c1.471,0,2.94,0,4.41,0c0.552,0,1.102,0,1.653,0
	c0-0.549,0-1.104,0-1.652c0-0.552,0-1.105,0-1.655c0.552,0,1.102,0,1.653,0c0.551,0,1.102,0,1.653,0c0-0.366,0-0.735,0-1.104
	c0-0.55,0-1.1,0-1.654c-0.552,0-1.103,0-1.653,0c-1.102,0-2.205,0-3.307,0c-0.551,0-1.102,0-1.654,0c0-1.1,0-2.204,0-3.304
	c1.104,0,2.206,0,3.308,0c0-0.734,0-1.472,0-2.207c-0.072-0.111,0.091-0.454,0-0.549c-0.053-0.052-0.472,0.002-0.552,0
	c-0.184-0.01-0.367,0.009-0.55,0c-0.183-0.014-0.369,0-0.552,0c-0.184,0-0.369,0.005-0.551,0c-0.185-0.006-0.369,0-0.551,0
	c-0.553,0-1.103,0-1.654,0c-0.551,0-1.102,0-1.654,0c0,0.549,0,1.104,0,1.652c0,0.369,0,0.735,0,1.104c-1.102,0-2.204,0-3.307,0
	c0,1.1,0,2.204,0,3.304c-0.552,0-1.102,0-1.653,0c-0.368,0-0.733,0-1.101,0c0,2.939,0,5.88,0,8.825c0.552,0,1.101,0,1.652,0
	c0.368,0,0.734,0,1.102,0c0,0.548,0,1.097,0,1.649c0,0.365,0,0.732,0,1.103c0,0.55,0,1.104,0,1.653s0,1.102,0,1.653
	c1.103,0,2.205,0,3.307,0c0,1.104,0,2.204,0,3.308c-1.102,0-2.204,0-3.307,0c0,1.102,0,2.201,0,3.304c-0.552,0-1.102,0-1.653,0
	c-0.549,0-1.101,0-1.655,0c-0.548,0-1.101,0-1.651,0c-0.367,0-0.736,0-1.104,0c-1.653,0-3.306,0-4.959,0c-0.367,0-0.735,0-1.104,0
	c0-1.103,0-2.202,0-3.304c-3.856,0-7.715,0-11.574,0c-0.182,0-0.365,0-0.549,0c0,1.102,0,2.201,0,3.304c-0.553,0-1.103,0-1.655,0
	s-1.102,0-1.654,0c0,0.554,0,1.107,0,1.657c0,0.366,0,0.732,0,1.103c-0.552,0-1.101,0-1.653,0c-0.368,0-0.734,0-1.102,0
	c0,1.102,0,2.203,0,3.305c-1.102,0-2.205,0-3.307,0c0-1.102,0-2.203,0-3.305c-0.552,0-1.103,0-1.655,0c-0.366,0-0.733,0-1.101,0
	c0-1.471,0-2.943,0-4.41c0-0.552,0-1.104,0-1.653c-1.103,0-2.206,0-3.307,0c0-1.104,0-2.204,0-3.308c1.102,0,2.205,0,3.307,0
	c0-0.736,0-1.471,0-2.203c0-0.186,0-0.37,0-0.554c-1.103,0-2.206,0-3.307,0c-0.551,0-1.102,0-1.654,0c-0.367,0-0.734,0-1.102,0
	c0-1.101,0-2.205,0-3.302c0.549,0,1.102,0,1.654,0c0.367,0,0.734,0,1.102,0c0-0.557,0-1.104,0-1.658c0-0.367,0-0.733,0-1.102
	c1.102,0,2.205,0,3.307,0c0-2.021,0-4.043,0-6.065c0.551,0,1.101,0,1.653,0c0.368,0,0.734,0,1.103,0c0-1.1,0-2.204,0-3.304
	c1.102,0,2.205,0,3.307,0c0-0.734,0-1.472,0-2.207c-0.072-0.111,0.091-0.454,0-0.549c-0.053-0.052-0.472,0.002-0.551,0
	c-0.183-0.01-0.369,0.009-0.551,0c-0.182-0.014-0.369,0-0.552,0c-0.184,0-0.368,0.005-0.551,0c-0.183-0.006-0.368,0-0.551,0
	c-0.551,0-1.103,0-1.653,0c-0.552,0-1.103,0-1.653,0c0-1.104,0-2.203,0-3.307c-1.103,0-2.206,0-3.307,0c0-1.104,0-2.204,0-3.308
	c-0.551,0-1.102,0-1.654,0c-0.367,0-0.734,0-1.102,0c0-0.553,0-1.102,0-1.656c0-0.366,0-0.733,0-1.102c0-1.1,0-2.205,0-3.304
	c-0.551,0-1.102,0-1.654,0c-0.551,0-1.102,0-1.653,0c0-2.939,0-5.881,0-8.821c1.102,0,2.206,0,3.308,0c0-2.019,0-4.04,0-6.063
	c0.549,0,1.102,0,1.654,0c0.367,0,0.734,0,1.102,0c0-2.203,0-4.409,0-6.612c-0.551,0-1.102,0-1.654,0c-0.367,0-0.734,0-1.102,0
	c0-0.552,0-1.104,0-1.655c0-0.366,0-0.736,0-1.104c-1.102,0-2.206,0-3.308,0c0-1.1,0-2.203,0-3.304c-1.103,0-2.206,0-3.307,0
	c-0.551,0-1.103,0-1.654,0c-0.367,0-0.734,0-1.102,0c-1.103,0-2.206,0-3.307,0c0-0.737,0-1.471,0-2.207c0-0.181,0-0.367,0-0.55
	c-0.551,0-1.102,0-1.653,0c-0.369,0-0.735,0-1.103,0c0-0.552,0-1.104,0-1.654c0-0.552,0-1.104,0-1.652c-0.552,0-1.103,0-1.654,0
	c-0.552,0-1.102,0-1.654,0c0-0.736,0-1.469,0-2.203c0-0.187,0-0.367,0-0.555c-0.551,0-1.102,0-1.653,0c-0.368,0-0.734,0-1.103,0
	c0-1.101,0-2.205,0-3.305c-1.1,0-2.206,0-3.307,0c0-0.553,0-1.104,0-1.651c0-0.37,0-0.738,0-1.105c-0.551,0-1.102,0-1.654,0
	c-0.367,0-0.734,0-1.102,0c0-1.104,0-2.203,0-3.307c0-2.021,0-4.043,0-6.067c-1.102,0-2.204,0-3.307,0c-1.102,0-2.205,0-3.307,0
	c0-1.096,0-2.2,0-3.3c0-0.556,0-1.104,0-1.655C14.88,19.475,14.88,19.105,14.88,18.738z M61.178,52.357
	c-0.049,0.053,0,0.472,0,0.553c0,0.368,0,0.736,0,1.103c0,0.367,0,0.734,0,1.104c-1.102,0-2.205,0-3.307,0c0,3.122,0,6.245,0,9.37
	c1.102,0,2.205,0,3.307,0c0,1.102,0,2.204,0,3.305c0.552,0,1.102,0,1.654,0c1.469,0,2.939,0,4.41,0c0,0.185,0,0.368,0,0.551
	c0,0.737,0,1.471,0,2.204c-0.369,0-0.737,0-1.103,0c-1.654,0-3.307,0-4.96,0c0,1.104,0,2.206,0,3.308c-1.102,0-2.205,0-3.307,0
	c0,0.368,0,0.737,0,1.104c0,0.552,0,1.101,0,1.655c-0.368,0-0.734,0-1.103,0c-0.552,0-1.103,0-1.653,0c0,1.099,0,2.204,0,3.304
	c0.368,0,0.735,0,1.101,0c0.552,0,1.103,0,1.655,0c0,0.368,0,0.735,0,1.102c0,0.555,0,1.104,0,1.656c1.102,0,2.205,0,3.307,0
	c0-0.371,0-0.739,0-1.102c0-0.555,0-1.103,0-1.656c0.184,0,0.368,0,0.552,0c0.733,0,1.469,0,2.203,0c0-1.1,0-2.205,0-3.304
	c1.102,0,2.206,0,3.309,0c0-0.368,0-0.736,0-1.104c0-0.552,0-1.103,0-1.655c0.184,0,0.368,0,0.549,0c0.737,0,1.47,0,2.206,0
	c0-0.181,0-0.367,0-0.548c0-0.186,0-0.37,0-0.554s-0.008-0.369,0-0.55c0.007-0.185,0-0.37,0-0.552c0-0.161-0.039-0.392,0-0.551
	c0.024-0.098-0.068-0.481,0-0.554c0.091-0.092,0.44,0.075,0.552,0c0.367,0,0.733,0,1.102,0c0.551,0,1.102,0,1.654,0
	c0,1.104,0,2.206,0,3.308c2.02,0,4.041,0,6.061,0c0-1.102,0-2.203,0-3.308c-0.366,0-0.733,0-1.101,0c-0.551,0-1.103,0-1.653,0
	c0-0.548,0-1.103,0-1.652c0-1.469,0-2.937,0-4.407c0.368,0,0.734,0,1.102,0c0.551,0,1.102,0,1.652,0c0-0.366,0-0.735,0-1.104
	c0-0.551,0-1.103,0-1.654c0.552,0,1.104,0,1.655,0c0.367,0,0.734,0,1.103,0c0.55,0,1.102,0,1.653,0c0.552,0,1.102,0,1.653,0
	c0,0.367,0,0.735,0,1.104c0,0.551,0,1.103,0,1.654c1.104,0,2.207,0,3.31,0c0-0.366,0-0.735,0-1.104c0-1.654,0-3.311,0-4.959
	c-1.103,0-2.206,0-3.31,0c0-1.104,0-2.207,0-3.308c-2.939,0-5.878,0-8.817,0c0,1.101,0,2.203,0,3.308c-1.102,0-2.205,0-3.306,0
	c0,1.102,0,2.204,0,3.305c-1.103,0-2.206,0-3.308,0c0,0.367,0,0.735,0,1.104c0,0.551,0,1.103,0,1.654c-0.551,0-1.102,0-1.654,0
	c-1.471,0-2.939,0-4.41,0c0-0.552,0-1.104,0-1.654c0-0.552,0-1.104,0-1.652c0-0.366,0-0.737,0-1.107c0-0.547,0-1.101,0-1.648
	c0.552,0,1.102,0,1.654,0c0.369,0,0.735,0,1.102,0c0.553,0,1.103,0,1.655,0c0.552,0,1.103,0,1.654,0c0-1.104,0-2.207,0-3.308
	c-0.368,0-0.736,0-1.102,0c-0.552,0-1.104,0-1.653,0c0-0.186,0-0.369,0-0.552c0-0.736,0-1.47,0-2.207c-0.369,0-0.737,0-1.103,0
	c-1.47,0-2.939,0-4.408,0C61.624,52.433,61.265,52.269,61.178,52.357z M73.305,85.981c-1.103,0-2.206,0-3.308,0
	c0,1.104,0,2.203,0,3.307c-0.368,0-0.736,0-1.102,0c-0.552,0-1.104,0-1.653,0c0,2.021,0,4.043,0,6.06c0.368,0,0.733,0,1.102,0
	c0.552,0,1.103,0,1.654,0c0,0.368,0,0.735,0,1.104c0,0.55,0,1.105,0,1.653c2.205,0,4.409,0,6.614,0c0-0.548,0-1.104,0-1.653
	c0-0.369,0-0.736,0-1.104c-0.183,0-0.368,0-0.552,0c-0.184,0-0.368,0-0.55,0c-0.185,0-0.369,0.012-0.551,0
	c-0.183-0.005-0.368,0-0.552,0c-0.162,0-0.395,0.042-0.551,0c-0.099-0.022-0.484,0.07-0.551,0c-0.093-0.087,0.073-0.438,0-0.549
	c0-0.551,0-1.104,0-1.655c0-0.367,0-0.736,0-1.1c0.551,0,1.102,0,1.653,0c0.551,0,1.101,0,1.653,0c0-0.185,0-0.368,0-0.554
	c0-0.181,0-0.366,0-0.55c0-0.178-0.021-0.372,0-0.549c0.021-0.185-0.01-0.37,0-0.555c0.005-0.081-0.052-0.5,0-0.549
	c0.091-0.093,0.441,0.07,0.55,0c0.735,0,1.471,0,2.204,0c0,0.366,0,0.736,0,1.104c0,0.549,0,1.099,0,1.652c1.104,0,2.206,0,3.308,0
	c0-0.368,0-0.734,0-1.104c0-1.652,0-3.308,0-4.959c-1.102,0-2.204,0-3.308,0c0-1.104,0-2.204,0-3.308c-0.366,0-0.733,0-1.101,0
	c-1.653,0-3.306,0-4.959,0C73.305,83.777,73.305,84.878,73.305,85.981z"/>
<path fill-rule="evenodd" clip-rule="evenodd" fill="#A2A2A2" d="M36.376,18.738c2.021,0,4.042,0,6.063,0c0,0.367,0,0.736,0,1.104
	c0,0.552,0,1.1,0,1.655c-0.368,0-0.734,0-1.103,0c-0.551,0-1.102,0-1.653,0c-1.103,0-2.206,0-3.307,0c0-0.369,0-0.735,0-1.104
	C36.376,19.842,36.376,19.289,36.376,18.738z"/>
<path fill-rule="evenodd" clip-rule="evenodd" fill="#222222" d="M42.438,18.738c2.204,0,4.409,0,6.615,0c0,0.182,0,0.367,0,0.551
	c0,0.734,0,1.473,0,2.208c-2.206,0-4.411,0-6.615,0c0-0.556,0-1.104,0-1.655C42.438,19.475,42.438,19.105,42.438,18.738z"/>
<path fill-rule="evenodd" clip-rule="evenodd" fill="#222222" d="M146.607,18.738c0,0.551,0,1.104,0,1.655c0,0.368,0,0.734,0,1.104
	c-2.02,0-4.041,0-6.063,0c0-0.369,0-0.735,0-1.104c0-0.552,0-1.104,0-1.655C142.566,18.738,144.587,18.738,146.607,18.738z"/>
<path fill-rule="evenodd" clip-rule="evenodd" fill="#EDEDED" d="M146.607,18.738c2.022,0,4.041,0,6.063,0c0,0.367,0,0.736,0,1.104
	c0,0.552,0,1.1,0,1.655c-0.367,0-0.733,0-1.101,0c-0.553,0-1.102,0-1.654,0c0,1.1,0,2.204,0,3.3c-1.102,0-2.204,0-3.309,0
	c0,0.557,0,1.108,0,1.655c0,0.369,0,0.735,0,1.104c-0.55,0-1.102,0-1.652,0c-0.367,0-0.734,0-1.103,0c0,1.104,0,2.204,0,3.308
	c0.735,0,1.47,0,2.205,0c0.183,0,0.366,0,0.55,0c0-1.104,0-2.204,0-3.308c2.022,0,4.041,0,6.063,0c0-0.369,0-0.735,0-1.104
	c0-0.547,0-1.099,0-1.655c1.103,0,2.206,0,3.308,0s2.205,0,3.308,0c0,1.108,0,2.212,0,3.309c0,0.555,0,1.104,0,1.655
	c0,0.366,0,0.733,0,1.104c-1.103,0-2.206,0-3.308,0c0,1.104,0,2.203,0,3.307c-1.102,0-2.205,0-3.308,0c0,0.55,0,1.105,0,1.653
	c0,0.369,0,0.737,0,1.104c-0.549,0-1.101,0-1.653,0c-0.369,0-0.734,0-1.102,0c0,1.1,0,2.204,0,3.305c-1.102,0-2.204,0-3.309,0
	c0,1.104,0,2.207,0,3.307c0,0.552,0,1.104,0,1.654c0,0.369,0,0.737,0,1.104c-0.55,0-1.102,0-1.652,0c-0.367,0-0.734,0-1.103,0
	c-1.103,0-2.205,0-3.308,0c0,0.55,0,1.102,0,1.654c0,0.365,0,0.732,0,1.103c-0.551,0-1.102,0-1.652,0c-0.368,0-0.735,0-1.102,0
	c0,1.101,0,2.204,0,3.304c-1.471,0-2.941,0-4.41,0c-0.551,0-1.104,0-1.652,0c0,0.553,0,1.104,0,1.655c0,0.367,0,0.734,0,1.104
	c-2.207,0-4.408,0-6.615,0c-2.021,0-4.042,0-6.063,0c0-0.552,0-1.104,0-1.655c0-0.366,0-0.736,0-1.104c-2.021,0-4.042,0-6.063,0
	c0-1.1,0-2.203,0-3.304c-0.553,0-1.102,0-1.653,0c-0.368,0-0.735,0-1.103,0c0-1.655,0-3.309,0-4.963c0-0.363,0-0.733,0-1.101
	c0.734,0,1.469,0,2.203,0c0.186,0,0.369,0,0.553,0c0-0.551,0-1.104,0-1.654c0-0.368,0-0.735,0-1.104c1.102,0,2.205,0,3.307,0
	c0-1.101,0-2.205,0-3.305c0.734,0,1.47,0,2.204,0c0.184,0,0.367,0,0.552,0c0-0.553,0-1.104,0-1.651c0-0.37,0-0.738,0-1.105
	c1.101,0,2.205,0,3.307,0c0-1.104,0-2.203,0-3.307c0.552,0,1.102,0,1.653,0c0.368,0,0.734,0,1.103,0c1.101,0,2.207,0,3.307,0
	c0-1.104,0-2.204,0-3.308c0.552,0,1.102,0,1.654,0c0.368,0,0.734,0,1.102,0c0.553,0,1.102,0,1.654,0c0.551,0,1.102,0,1.653,0
	c0-0.548,0-1.104,0-1.651c0-0.37,0-0.737,0-1.108c0.552,0,1.103,0,1.654,0c0.366,0,0.733,0,1.102,0c0.552,0,1.103,0,1.653,0
	s1.102,0,1.652,0c0-1.096,0-2.2,0-3.3c2.021,0,4.043,0,6.063,0c0-0.369,0-0.735,0-1.104
	C146.607,19.842,146.607,19.289,146.607,18.738z"/>
<path fill-rule="evenodd" clip-rule="evenodd" fill="#222222" d="M12.125,21.497c0.551,0,1.102,0,1.653,0c0.367,0,0.734,0,1.102,0
	c0,1.1,0,2.204,0,3.3c-0.368,0-0.734,0-1.102,0c-0.552,0-1.102,0-1.653,0C12.125,23.701,12.125,22.597,12.125,21.497z"/>
<path fill-rule="evenodd" clip-rule="evenodd" fill="#A2A2A2" d="M42.438,21.497c2.204,0,4.409,0,6.615,0c0,1.1,0,2.204,0,3.3
	c1.102,0,2.204,0,3.308,0c0.549,0,1.101,0,1.652,0c0.366,0,0.734,0,1.103,0c0,0.557,0,1.108,0,1.655c0,0.369,0,0.735,0,1.104
	c2.939,0,5.878,0,8.817,0c0,1.104,0,2.204,0,3.308c1.654,0,3.309,0,4.962,0c1.47,0,2.94,0,4.41,0c0,1.104,0,2.203,0,3.307
	c1.102,0,2.205,0,3.306,0c0.55,0,1.102,0,1.653,0c0.368,0,0.735,0,1.101,0c0,0.55,0,1.105,0,1.653c0,0.369,0,0.737,0,1.104
	c-0.551,0-1.101,0-1.652,0c-0.368,0-0.734,0-1.102,0c0,1.1,0,2.204,0,3.305c-1.102,0-2.205,0-3.306,0c0-1.101,0-2.205,0-3.305
	c-2.022,0-4.043,0-6.063,0c0-0.553,0-1.104,0-1.651c0-0.37,0-0.738,0-1.105c-1.103,0-2.207,0-3.309,0c0,0.55,0,1.105,0,1.653
	c0,0.369,0,0.737,0,1.104c-0.367,0-0.733,0-1.101,0c-0.552,0-1.102,0-1.654,0c0-0.186,0-0.366,0-0.553c0-0.737,0-1.469,0-2.204
	c-0.368,0-0.736,0-1.102,0c-1.654,0-3.307,0-4.96,0c0-1.104,0-2.203,0-3.307c-1.103,0-2.206,0-3.307,0c0-1.104,0-2.204,0-3.308
	c-0.367,0-0.734,0-1.102,0c-1.654,0-3.308,0-4.961,0c0-0.369,0-0.735,0-1.104c0-0.547,0-1.099,0-1.655c-0.552,0-1.103,0-1.654,0
	c-0.552,0-1.102,0-1.653,0c0-0.548,0-1.096,0-1.648C42.438,22.597,42.438,22.045,42.438,21.497z"/>
<path fill-rule="evenodd" clip-rule="evenodd" fill="#222222" d="M49.053,21.497c2.021,0,4.041,0,6.063,0c0,1.1,0,2.204,0,3.3
	c-0.368,0-0.736,0-1.103,0c-0.552,0-1.103,0-1.652,0c-1.104,0-2.206,0-3.308,0C49.053,23.701,49.053,22.597,49.053,21.497z"/>
<path fill-rule="evenodd" clip-rule="evenodd" fill="#222222" d="M106.925,36.928c0,1.1,0,2.204,0,3.305c-2.022,0-4.043,0-6.063,0
	c0-1.101,0-2.205,0-3.305c-0.552,0-1.102,0-1.653,0c-0.551,0-1.102,0-1.654,0c0-0.553,0-1.104,0-1.651c0-0.37,0-0.738,0-1.105
	c-0.55,0-1.102,0-1.652,0c-0.369,0-0.734,0-1.104,0c0-2.203,0-4.41,0-6.614c-2.021,0-4.04,0-6.061,0c0-0.369,0-0.735,0-1.104
	c0-0.547,0-1.099,0-1.655c0.367,0,0.732,0,1.101,0c0.552,0,1.102,0,1.653,0c0-1.096,0-2.2,0-3.3c1.103,0,2.205,0,3.307,0
	c0,1.1,0,2.204,0,3.3c0.369,0,0.734,0,1.104,0c0.551,0,1.103,0,1.652,0c0,0.371,0,0.738,0,1.108c0,0.547,0,1.104,0,1.651
	c0,0.368,0,0.734,0,1.104c0,0.731,0,1.467,0,2.204c0.368,0,0.734,0,1.104,0c0.734,0,1.469,0,2.204,0c0,1.104,0,2.203,0,3.307
	c1.102,0,2.204,0,3.307,0c0,0.367,0,0.735,0,1.105c0,0.548,0,1.099,0,1.651c0.368,0,0.734,0,1.103,0
	C105.822,36.928,106.373,36.928,106.925,36.928z"/>
<path fill-rule="evenodd" clip-rule="evenodd" fill="#222222" d="M140.544,21.497c0,1.1,0,2.204,0,3.3c-0.551,0-1.102,0-1.652,0
	s-1.102,0-1.653,0c-0.368,0-0.735,0-1.102,0c-0.552,0-1.103,0-1.654,0c0-1.096,0-2.2,0-3.3
	C136.503,21.497,138.524,21.497,140.544,21.497z"/>
<path fill-rule="evenodd" clip-rule="evenodd" fill="#222222" d="M159.286,21.497c0,1.1,0,2.204,0,3.3c-1.103,0-2.206,0-3.308,0
	c0-1.096,0-2.2,0-3.3C157.08,21.497,158.183,21.497,159.286,21.497z"/>
<path fill-rule="evenodd" clip-rule="evenodd" fill="#EDEDED" d="M159.286,21.497c0.366,0,0.733,0,1.102,0c0.552,0,1.103,0,1.653,0
	c0,1.1,0,2.204,0,3.3c-0.367,0-0.735,0-1.102,0c-0.552,0-1.103,0-1.653,0C159.286,23.701,159.286,22.597,159.286,21.497z"/>
<path fill-rule="evenodd" clip-rule="evenodd" fill="#222222" d="M14.88,24.797c1.102,0,2.205,0,3.307,0c0,1.108,0,2.212,0,3.309
	c0,0.555,0,1.104,0,1.655c0,0.366,0,0.733,0,1.104c-1.102,0-2.205,0-3.307,0c0-0.37,0-0.737,0-1.104c0-0.551,0-1.101,0-1.655
	C14.88,27.009,14.88,25.905,14.88,24.797z"/>
<path fill-rule="evenodd" clip-rule="evenodd" fill="#A2A2A2" d="M18.188,24.797c1.103,0,2.205,0,3.307,0c0,2.024,0,4.046,0,6.067
	c-1.102,0-2.204,0-3.307,0c0-0.37,0-0.737,0-1.104c0-0.551,0-1.101,0-1.655C18.188,27.009,18.188,25.905,18.188,24.797z"/>
<path fill-rule="evenodd" clip-rule="evenodd" fill="#222222" d="M55.116,24.797c2.939,0,5.878,0,8.817,0c0,0.187,0,0.371,0,0.557
	c0,0.735,0,1.468,0,2.203c-2.939,0-5.878,0-8.817,0c0-0.369,0-0.735,0-1.104C55.116,25.905,55.116,25.354,55.116,24.797z"/>
<path fill-rule="evenodd" clip-rule="evenodd" fill="#222222" d="M134.483,24.797c0,0.371,0,0.738,0,1.108c0,0.547,0,1.104,0,1.651
	c-0.552,0-1.103,0-1.653,0c-0.553,0-1.102,0-1.654,0c-0.367,0-0.733,0-1.102,0c-0.553,0-1.103,0-1.654,0c-1.1,0-2.206,0-3.307,0
	c0-0.548,0-1.104,0-1.651c0-0.37,0-0.737,0-1.108C128.237,24.797,131.36,24.797,134.483,24.797z"/>
<path fill-rule="evenodd" clip-rule="evenodd" fill="#222222" d="M159.286,24.797c0.551,0,1.102,0,1.653,0c0.366,0,0.734,0,1.102,0
	c0,0.371,0,0.738,0,1.108c0,0.547,0,1.104,0,1.651c0,0.549,0,1.104,0,1.653c0,0.551,0,1.105,0,1.654c-0.367,0-0.735,0-1.102,0
	c-0.552,0-1.103,0-1.653,0c0-0.37,0-0.737,0-1.104c0-0.551,0-1.101,0-1.655C159.286,27.009,159.286,25.905,159.286,24.797z"/>
<path fill-rule="evenodd" clip-rule="evenodd" fill="#222222" d="M63.933,27.557c3.125,0,6.248,0,9.372,0c0,1.104,0,2.204,0,3.308
	c-1.469,0-2.94,0-4.41,0c-1.653,0-3.308,0-4.962,0C63.933,29.761,63.933,28.66,63.933,27.557z"/>
<path fill-rule="evenodd" clip-rule="evenodd" fill="#222222" d="M88.738,27.557c0,1.104,0,2.204,0,3.308c-1.103,0-2.206,0-3.31,0
	c0-1.104,0-2.204,0-3.308C86.532,27.557,87.635,27.557,88.738,27.557z"/>
<path fill-rule="evenodd" clip-rule="evenodd" fill="#A2A2A2" d="M88.738,27.557c2.021,0,4.04,0,6.061,0c0,2.204,0,4.411,0,6.614
	c0.369,0,0.734,0,1.104,0c0.551,0,1.103,0,1.652,0c0,0.367,0,0.735,0,1.105c0,0.548,0,1.099,0,1.651c0.553,0,1.104,0,1.654,0
	c0.552,0,1.102,0,1.653,0c0,1.1,0,2.204,0,3.305c2.021,0,4.041,0,6.063,0c0-1.101,0-2.205,0-3.305c1.102,0,2.205,0,3.307,0
	c0-0.553,0-1.104,0-1.651c0-0.37,0-0.738,0-1.105c2.939,0,5.879,0,8.818,0c0,0.367,0,0.735,0,1.105c0,0.548,0,1.099,0,1.651
	c-0.185,0-0.368,0-0.552,0c-0.734,0-1.47,0-2.204,0c0,1.1,0,2.204,0,3.305c-1.102,0-2.205,0-3.307,0c0,0.368,0,0.735,0,1.104
	c0,0.55,0,1.104,0,1.654c-0.184,0-0.367,0-0.553,0c-0.734,0-1.469,0-2.203,0c0,0.367,0,0.737,0,1.101c0,1.654,0,3.308,0,4.963
	c0.367,0,0.734,0,1.103,0c0.552,0,1.101,0,1.653,0c0,1.101,0,2.204,0,3.304c2.021,0,4.041,0,6.063,0c0,0.367,0,0.737,0,1.104
	c0,0.552,0,1.104,0,1.655c2.021,0,4.041,0,6.063,0c2.207,0,4.408,0,6.615,0c0-0.369,0-0.736,0-1.104c0-0.552,0-1.103,0-1.655
	c0.549,0,1.102,0,1.652,0c1.469,0,2.939,0,4.41,0c0,1.104,0,2.207,0,3.307c0,0.553,0,1.104,0,1.655c0,0.367,0,0.735,0,1.104
	c-1.103,0-2.205,0-3.308,0c0,1.102,0,2.204,0,3.305c-0.552,0-1.103,0-1.653,0c-0.367,0-0.734,0-1.102,0c0,0.552,0,1.104,0,1.654
	c0,0.552,0,1.104,0,1.653c0,0.366,0,0.736,0,1.1c0,0.555,0,1.103,0,1.655c0.549,0,1.102,0,1.652,0c0.367,0,0.734,0,1.103,0
	c0,1.103,0,2.207,0,3.309c0,0.551,0,1.103,0,1.652c0,0.368,0,0.734,0,1.102c-2.021,0-4.041,0-6.063,0c0-1.102,0-2.203,0-3.308
	c-1.1,0-2.206,0-3.307,0c0-0.365,0-0.733,0-1.103c0-0.55,0-1.102,0-1.652c-0.368,0-0.734,0-1.103,0c-0.552,0-1.102,0-1.653,0
	c0-1.101,0-2.203,0-3.305c-1.102,0-2.206,0-3.307,0c0-0.366,0-0.735,0-1.104c0-0.551,0-1.103,0-1.654c-2.939,0-5.879,0-8.818,0
	c0,0.552,0,1.104,0,1.654c0,0.368,0,0.737,0,1.104c-1.102,0-2.205,0-3.307,0c0-5.146,0-10.288,0-15.433c-0.367,0-0.735,0-1.104,0
	c-0.551,0-1.103,0-1.653,0c0-0.37,0-0.737,0-1.103c0-0.553,0-1.104,0-1.654c-1.103,0-2.205,0-3.307,0c0-1.104,0-2.206,0-3.307
	c-0.367,0-0.735,0-1.102,0c-1.653,0-3.308,0-4.962,0c0-0.366,0-0.736,0-1.104c0-0.55,0-1.099,0-1.653c-5.144,0-10.287,0-15.433,0
	c0-1.101,0-2.205,0-3.305c1.104,0,2.206,0,3.308,0c0-0.553,0-1.104,0-1.651c0-0.37,0-0.738,0-1.105c0.552,0,1.103,0,1.654,0
	c0.367,0,0.734,0,1.101,0c0-1.104,0-2.203,0-3.307c1.104,0,2.207,0,3.31,0C88.738,29.761,88.738,28.66,88.738,27.557z"/>
<path fill-rule="evenodd" clip-rule="evenodd" fill="#222222" d="M125.113,27.557c0,1.104,0,2.204,0,3.308c-0.368,0-0.734,0-1.103,0
	c-0.552,0-1.102,0-1.653,0c-1.102,0-2.206,0-3.307,0c0-1.104,0-2.204,0-3.308C121.071,27.557,123.091,27.557,125.113,27.557z"/>
<path fill-rule="evenodd" clip-rule="evenodd" fill="#A2A2A2" d="M125.113,27.557c1.101,0,2.207,0,3.307,0c0,1.104,0,2.204,0,3.308
	c-1.1,0-2.206,0-3.307,0C125.113,29.761,125.113,28.66,125.113,27.557z"/>
<path fill-rule="evenodd" clip-rule="evenodd" fill="#FFFFFF" d="M146.607,27.557c0,1.104,0,2.204,0,3.308c-0.184,0-0.367,0-0.55,0
	c-0.735,0-1.47,0-2.205,0c0-1.104,0-2.204,0-3.308c0.368,0,0.735,0,1.103,0C145.505,27.557,146.057,27.557,146.607,27.557z"/>
<path fill-rule="evenodd" clip-rule="evenodd" fill="#222222" d="M18.188,30.864c1.103,0,2.205,0,3.307,0c0,1.104,0,2.203,0,3.307
	c0,0.55,0,1.105,0,1.653c0,0.369,0,0.737,0,1.104c-1.102,0-2.204,0-3.307,0c0-0.366,0-0.734,0-1.104c0-0.548,0-1.104,0-1.653
	C18.188,33.067,18.188,31.968,18.188,30.864z"/>
<path fill-rule="evenodd" clip-rule="evenodd" fill="#222222" d="M73.305,30.864c0.183,0,0.367,0,0.551,0c3.857,0,7.716,0,11.573,0
	c0,1.104,0,2.203,0,3.307c-0.367,0-0.734,0-1.101,0c-0.552,0-1.103,0-1.654,0c0,0.367,0,0.735,0,1.105c0,0.548,0,1.099,0,1.651
	c-1.102,0-2.204,0-3.308,0c0-0.366,0-0.734,0-1.104c0-0.548,0-1.104,0-1.653c-0.366,0-0.733,0-1.101,0c-0.551,0-1.103,0-1.653,0
	c-1.102,0-2.205,0-3.306,0C73.305,33.067,73.305,31.968,73.305,30.864z"/>
<path fill-rule="evenodd" clip-rule="evenodd" fill="#222222" d="M119.05,30.864c0,1.104,0,2.203,0,3.307c-2.939,0-5.879,0-8.818,0
	c0-1.104,0-2.203,0-3.307C113.171,30.864,116.111,30.864,119.05,30.864z"/>
<path fill-rule="evenodd" clip-rule="evenodd" fill="#A2A2A2" d="M119.05,30.864c1.101,0,2.205,0,3.307,0c0,1.104,0,2.203,0,3.307
	c-1.102,0-2.206,0-3.307,0C119.05,33.067,119.05,31.968,119.05,30.864z"/>
<path fill-rule="evenodd" clip-rule="evenodd" fill="#222222" d="M159.286,30.864c0,1.104,0,2.203,0,3.307c-1.103,0-2.206,0-3.308,0
	c0-1.104,0-2.203,0-3.307C157.08,30.864,158.183,30.864,159.286,30.864z"/>
<path fill-rule="evenodd" clip-rule="evenodd" fill="#A2A2A2" d="M21.494,34.171c0.368,0,0.735,0,1.102,0c0.552,0,1.103,0,1.654,0
	c0,0.367,0,0.735,0,1.105c0,0.548,0,1.099,0,1.651c-0.368,0-0.734,0-1.102,0c-0.552,0-1.103,0-1.654,0c0-0.366,0-0.734,0-1.104
	C21.494,35.276,21.494,34.721,21.494,34.171z"/>
<path fill-rule="evenodd" clip-rule="evenodd" fill="#222222" d="M67.242,36.928c-1.103,0-2.207,0-3.309,0c0-0.366,0-0.734,0-1.104
	c0-0.548,0-1.104,0-1.653c1.102,0,2.206,0,3.309,0c0,0.367,0,0.735,0,1.105C67.242,35.824,67.242,36.375,67.242,36.928z"/>
<path fill-rule="evenodd" clip-rule="evenodd" fill="#222222" d="M110.232,34.171c0,0.367,0,0.735,0,1.105c0,0.548,0,1.099,0,1.651
	c-1.102,0-2.205,0-3.307,0c0-0.366,0-0.734,0-1.104c0-0.548,0-1.104,0-1.653C108.027,34.171,109.13,34.171,110.232,34.171z"/>
<path fill-rule="evenodd" clip-rule="evenodd" fill="#222222" d="M155.978,34.171c0,0.367,0,0.735,0,1.105c0,0.548,0,1.099,0,1.651
	c-1.102,0-2.205,0-3.308,0c0-0.366,0-0.734,0-1.104c0-0.548,0-1.104,0-1.653C153.773,34.171,154.876,34.171,155.978,34.171z"/>
<path fill-rule="evenodd" clip-rule="evenodd" fill="#222222" d="M21.494,36.928c0.551,0,1.102,0,1.654,0c0.367,0,0.733,0,1.102,0
	c0,1.1,0,2.204,0,3.305c-0.368,0-0.734,0-1.102,0c-0.552,0-1.103,0-1.654,0C21.494,39.132,21.494,38.027,21.494,36.928z"/>
<path fill-rule="evenodd" clip-rule="evenodd" fill="#A2A2A2" d="M24.25,36.928c1.101,0,2.207,0,3.307,0c0,1.1,0,2.204,0,3.305
	c-1.1,0-2.206,0-3.307,0C24.25,39.132,24.25,38.027,24.25,36.928z"/>
<path fill-rule="evenodd" clip-rule="evenodd" fill="#A2A2A2" d="M63.933,36.928c1.102,0,2.206,0,3.309,0c0,1.1,0,2.204,0,3.305
	c-1.103,0-2.207,0-3.309,0C63.933,39.132,63.933,38.027,63.933,36.928z"/>
<path fill-rule="evenodd" clip-rule="evenodd" fill="#222222" d="M67.242,36.928c2.02,0,4.041,0,6.063,0c0,1.1,0,2.204,0,3.305
	c-1.103,0-2.206,0-3.308,0c-0.551,0-1.102,0-1.654,0c-0.368,0-0.734,0-1.102,0C67.242,39.132,67.242,38.027,67.242,36.928z"/>
<path fill-rule="evenodd" clip-rule="evenodd" fill="#222222" d="M79.365,36.928c0,1.1,0,2.204,0,3.305c-0.366,0-0.733,0-1.101,0
	c-0.551,0-1.103,0-1.653,0c0-1.101,0-2.205,0-3.305c0.368,0,0.734,0,1.102,0C78.264,36.928,78.814,36.928,79.365,36.928z"/>
<path fill-rule="evenodd" clip-rule="evenodd" fill="#222222" d="M152.67,36.928c0,1.1,0,2.204,0,3.305c-0.367,0-0.733,0-1.101,0
	c-0.553,0-1.102,0-1.654,0c0-1.101,0-2.205,0-3.305c0.367,0,0.732,0,1.102,0C151.57,36.928,152.122,36.928,152.67,36.928z"/>
<path fill-rule="evenodd" clip-rule="evenodd" fill="#222222" d="M24.25,40.232c1.101,0,2.207,0,3.307,0c0,0.368,0,0.735,0,1.104
	c0,0.55,0,1.104,0,1.654c-1.1,0-2.206,0-3.307,0c0-0.366,0-0.736,0-1.104C24.25,41.336,24.25,40.787,24.25,40.232z"/>
<path fill-rule="evenodd" clip-rule="evenodd" fill="#A2A2A2" d="M27.557,40.232c0.369,0,0.735,0,1.103,0c0.551,0,1.102,0,1.653,0
	c0,0.188,0,0.368,0,0.555c0,0.734,0,1.467,0,2.203c-0.368,0-0.733,0-1.102,0c-0.551,0-1.102,0-1.654,0c0-0.551,0-1.104,0-1.654
	C27.557,40.968,27.557,40.601,27.557,40.232z"/>
<path fill-rule="evenodd" clip-rule="evenodd" fill="#A2A2A2" d="M67.242,40.232c0.368,0,0.733,0,1.102,0c0.552,0,1.103,0,1.654,0
	c0,0.368,0,0.735,0,1.104c0,0.55,0,1.104,0,1.654c-0.185,0-0.368,0-0.551,0c-0.736,0-1.471,0-2.205,0c0-0.366,0-0.736,0-1.104
	C67.242,41.336,67.242,40.787,67.242,40.232z"/>
<path fill-rule="evenodd" clip-rule="evenodd" fill="#222222" d="M149.916,40.232c0,0.368,0,0.735,0,1.104c0,0.736,0,1.473,0,2.203
	c0,0.367,0,0.736,0,1.104c0,0.551,0,1.103,0,1.654c-1.102,0-2.204,0-3.309,0c0-0.366,0-0.734,0-1.104c0-0.551,0-1.103,0-1.654
	c0-1.1,0-2.203,0-3.307C147.711,40.232,148.814,40.232,149.916,40.232z"/>
<path fill-rule="evenodd" clip-rule="evenodd" fill="#222222" d="M27.557,42.99c0.553,0,1.103,0,1.654,0c0.369,0,0.734,0,1.102,0
	c0,1.101,0,2.203,0,3.307c0,0.55,0,1.102,0,1.654c0,0.365,0,0.732,0,1.103c-0.368,0-0.733,0-1.102,0c-0.551,0-1.102,0-1.654,0
	c0-1.471,0-2.939,0-4.411C27.557,44.091,27.557,43.539,27.557,42.99z"/>
<path fill-rule="evenodd" clip-rule="evenodd" fill="#A2A2A2" d="M30.313,42.99c0.552,0,1.102,0,1.654,0c0.551,0,1.102,0,1.654,0
	c0,0.549,0,1.101,0,1.652c0,0.551,0,1.103,0,1.654c0.367,0,0.734,0,1.103,0c0.551,0,1.102,0,1.653,0c0,0.183,0,0.369,0,0.55
	c0,0.736,0,1.47,0,2.207c1.101,0,2.205,0,3.307,0c0,1.101,0,2.204,0,3.304c0.551,0,1.102,0,1.653,0c0.369,0,0.735,0,1.103,0
	c0,0.553,0,1.104,0,1.655c0,0.367,0,0.734,0,1.104c1.102,0,2.204,0,3.307,0c0,1.101,0,2.203,0,3.308c1.102,0,2.206,0,3.308,0
	c0-1.104,0-2.207,0-3.308c0.367,0,0.734,0,1.102,0c0.552,0,1.103,0,1.654,0c0,2.203,0,4.409,0,6.612c-0.367,0-0.734,0-1.102,0
	c-0.552,0-1.104,0-1.654,0c0,2.022,0,4.044,0,6.063c-1.102,0-2.206,0-3.308,0c0-1.101,0-2.203,0-3.305c-1.103,0-2.206,0-3.307,0
	c0-0.552,0-1.104,0-1.654c0-0.368,0-0.736,0-1.104c-0.551,0-1.103,0-1.654,0c-0.367,0-0.734,0-1.102,0c0-2.203,0-4.409,0-6.612
	c-1.103,0-2.206,0-3.307,0c0-0.736,0-1.47,0-2.206c0-0.186,0-0.366,0-0.553c-0.551,0-1.102,0-1.653,0c-0.369,0-0.735,0-1.103,0
	c0-1.1,0-2.203,0-3.304c-1.103,0-2.206,0-3.308,0c0-0.37,0-0.737,0-1.103c0-0.553,0-1.104,0-1.654
	C30.313,45.193,30.313,44.091,30.313,42.99z"/>
<path fill-rule="evenodd" clip-rule="evenodd" fill="#A2A2A2" d="M143.852,46.297c0,0.55,0,1.102,0,1.654c0,0.365,0,0.732,0,1.103
	c-1.103,0-2.205,0-3.308,0c0-0.37,0-0.737,0-1.103c0-0.553,0-1.104,0-1.654C141.647,46.297,142.75,46.297,143.852,46.297z"/>
<path fill-rule="evenodd" clip-rule="evenodd" fill="#222222" d="M143.852,46.297c0.368,0,0.735,0,1.103,0c0.551,0,1.103,0,1.652,0
	c0,0.369,0,0.737,0,1.102c0,0.553,0,1.104,0,1.655c-0.367,0-0.733,0-1.102,0c-0.551,0-1.102,0-1.653,0c0-0.37,0-0.737,0-1.103
	C143.852,47.398,143.852,46.847,143.852,46.297z"/>
<path fill-rule="evenodd" clip-rule="evenodd" fill="#222222" d="M30.313,49.054c1.102,0,2.205,0,3.308,0c0,1.101,0,2.204,0,3.304
	c-1.103,0-2.206,0-3.308,0C30.313,51.258,30.313,50.154,30.313,49.054z"/>
<path fill-rule="evenodd" clip-rule="evenodd" fill="#222222" d="M39.683,49.054c0.368,0,0.734,0,1.102,0c0.551,0,1.103,0,1.654,0
	c0,1.101,0,2.204,0,3.304c-0.368,0-0.734,0-1.103,0c-0.551,0-1.102,0-1.653,0C39.683,51.258,39.683,50.154,39.683,49.054z"/>
<path fill-rule="evenodd" clip-rule="evenodd" fill="#A2A2A2" d="M42.438,49.054c1.102,0,2.204,0,3.307,0c0,1.101,0,2.204,0,3.304
	c-1.103,0-2.206,0-3.307,0C42.438,51.258,42.438,50.154,42.438,49.054z"/>
<path fill-rule="evenodd" clip-rule="evenodd" fill="#A2A2A2" d="M140.544,49.054c0,1.101,0,2.204,0,3.304c-0.367,0-0.733,0-1.102,0
	c-0.551,0-1.102,0-1.652,0c0-1.1,0-2.203,0-3.304c0.366,0,0.733,0,1.102,0C139.443,49.054,139.994,49.054,140.544,49.054z"/>
<path fill-rule="evenodd" clip-rule="evenodd" fill="#222222" d="M140.544,49.054c1.103,0,2.205,0,3.308,0c0,1.101,0,2.204,0,3.304
	c-1.103,0-2.205,0-3.308,0C140.544,51.258,140.544,50.154,140.544,49.054z"/>
<path fill-rule="evenodd" clip-rule="evenodd" fill="#222222" d="M33.621,52.357c0.367,0,0.734,0,1.103,0c0.551,0,1.102,0,1.653,0
	c0,0.187,0,0.367,0,0.553c0,0.736,0,1.47,0,2.206c-0.368,0-0.734,0-1.102,0c-0.551,0-1.102,0-1.653,0c0-0.369,0-0.736,0-1.104
	C33.621,53.461,33.621,52.91,33.621,52.357z"/>
<path fill-rule="evenodd" clip-rule="evenodd" fill="#222222" d="M42.438,52.357c1.102,0,2.204,0,3.307,0c0,0.367,0,0.737,0,1.104
	c0,0.552,0,1.104,0,1.655c-1.103,0-2.206,0-3.307,0c0-0.369,0-0.736,0-1.104C42.438,53.461,42.438,52.91,42.438,52.357z"/>
<path fill-rule="evenodd" clip-rule="evenodd" fill="#A2A2A2" d="M45.746,52.357c1.102,0,2.206,0,3.308,0c0,0.367,0,0.737,0,1.104
	c0,0.552,0,1.104,0,1.655c-1.102,0-2.206,0-3.308,0c0-0.552,0-1.104,0-1.655C45.746,53.095,45.746,52.725,45.746,52.357z"/>
<path fill-rule="evenodd" clip-rule="evenodd" fill="#FFFFFF" d="M61.73,52.357c1.469,0,2.938,0,4.408,0c0.366,0,0.734,0,1.103,0
	c0,0.737,0,1.471,0,2.207c0,0.183,0,0.366,0,0.552c0.549,0,1.102,0,1.653,0c0.366,0,0.734,0,1.102,0c0,1.101,0,2.203,0,3.308
	c-0.551,0-1.102,0-1.654,0c-0.552,0-1.102,0-1.655,0c-0.367,0-0.732,0-1.102,0c-0.552,0-1.102,0-1.654,0c0,0.548,0,1.102,0,1.648
	c0,0.37,0,0.741,0,1.107c0,0.549,0,1.101,0,1.652c0,0.551,0,1.103,0,1.654c1.471,0,2.939,0,4.41,0c0.552,0,1.103,0,1.654,0
	c0-0.552,0-1.104,0-1.654c0-0.368,0-0.736,0-1.104c1.102,0,2.205,0,3.308,0c0-1.101,0-2.203,0-3.305c1.102,0,2.205,0,3.306,0
	c0-1.104,0-2.207,0-3.308c2.939,0,5.878,0,8.817,0c0,1.101,0,2.203,0,3.308c1.104,0,2.207,0,3.31,0c0,1.648,0,3.305,0,4.959
	c0,0.368,0,0.737,0,1.104c-1.103,0-2.206,0-3.31,0c0-0.552,0-1.104,0-1.654c0-0.368,0-0.736,0-1.104c-0.551,0-1.101,0-1.653,0
	c-0.551,0-1.103,0-1.653,0c-0.368,0-0.735,0-1.103,0c-0.551,0-1.103,0-1.655,0c0,0.552,0,1.104,0,1.654c0,0.368,0,0.737,0,1.104
	c-0.551,0-1.101,0-1.652,0c-0.368,0-0.734,0-1.102,0c0,1.471,0,2.938,0,4.407c0,0.55,0,1.104,0,1.652c0.55,0,1.102,0,1.653,0
	c0.368,0,0.735,0,1.101,0c0,1.104,0,2.206,0,3.308c-2.02,0-4.041,0-6.061,0c0-1.102,0-2.203,0-3.308c-0.552,0-1.103,0-1.654,0
	c-0.368,0-0.735,0-1.102,0c-0.112,0.075-0.46-0.092-0.552,0c-0.068,0.072,0.024,0.456,0,0.554c-0.039,0.159,0,0.39,0,0.551
	c0,0.182,0.007,0.367,0,0.552c-0.008,0.181,0,0.366,0,0.55s0,0.368,0,0.554c0,0.181,0,0.367,0,0.548c-0.736,0-1.469,0-2.206,0
	c-0.182,0-0.365,0-0.549,0c0,0.553,0,1.104,0,1.655c0,0.367,0,0.735,0,1.104c-1.103,0-2.207,0-3.309,0c0,1.099,0,2.204,0,3.304
	c-0.733,0-1.469,0-2.203,0c-0.185,0-0.369,0-0.552,0c0,0.554,0,1.102,0,1.656c0,0.362,0,0.73,0,1.102c-1.102,0-2.205,0-3.307,0
	c0-0.553,0-1.102,0-1.656c0-0.366,0-0.733,0-1.102c-0.552,0-1.103,0-1.655,0c-0.366,0-0.733,0-1.101,0c0-1.1,0-2.205,0-3.304
	c0.551,0,1.101,0,1.653,0c0.368,0,0.734,0,1.103,0c0-0.555,0-1.104,0-1.655c0-0.366,0-0.735,0-1.104c1.102,0,2.205,0,3.307,0
	c0-1.102,0-2.203,0-3.308c1.654,0,3.307,0,4.96,0c0.366,0,0.734,0,1.103,0c0-0.733,0-1.467,0-2.204c0-0.183,0-0.366,0-0.551
	c-1.471,0-2.94,0-4.41,0c-0.552,0-1.102,0-1.654,0c0-1.101,0-2.203,0-3.305c-1.102,0-2.205,0-3.307,0c0-3.125,0-6.248,0-9.37
	c1.102,0,2.205,0,3.307,0c0-0.369,0-0.736,0-1.104c0-0.366,0-0.734,0-1.103c0-0.081-0.049-0.5,0-0.553
	C61.265,52.269,61.624,52.433,61.73,52.357z"/>
<path fill-rule="evenodd" clip-rule="evenodd" fill="#222222" d="M137.791,52.357c0.551,0,1.102,0,1.652,0c0.368,0,0.734,0,1.102,0
	c0,0.367,0,0.737,0,1.104c0,0.552,0,1.104,0,1.655c0,1.101,0,2.203,0,3.308c-0.367,0-0.733,0-1.102,0c-0.551,0-1.102,0-1.652,0
	c0-0.369,0-0.737,0-1.104c0-0.552,0-1.103,0-1.655C137.791,54.564,137.791,53.461,137.791,52.357z"/>
<path fill-rule="evenodd" clip-rule="evenodd" fill="#222222" d="M36.376,55.116c1.101,0,2.205,0,3.307,0c0,2.203,0,4.409,0,6.612
	c-1.103,0-2.206,0-3.307,0C36.376,59.525,36.376,57.319,36.376,55.116z"/>
<path fill-rule="evenodd" clip-rule="evenodd" fill="#222222" d="M45.746,55.116c1.102,0,2.206,0,3.308,0c0,1.101,0,2.203,0,3.308
	c-1.102,0-2.206,0-3.308,0C45.746,57.319,45.746,56.217,45.746,55.116z"/>
<path fill-rule="evenodd" clip-rule="evenodd" fill="#222222" d="M137.791,58.424c0,1.102,0,2.204,0,3.305c-1.103,0-2.205,0-3.308,0
	c0-1.101,0-2.203,0-3.305C135.585,58.424,136.688,58.424,137.791,58.424z"/>
<path fill-rule="evenodd" clip-rule="evenodd" fill="#222222" d="M39.683,61.729c0.368,0,0.734,0,1.102,0c0.551,0,1.103,0,1.654,0
	c0,0.367,0,0.735,0,1.104c0,0.551,0,1.103,0,1.654c-0.368,0-0.734,0-1.103,0c-0.551,0-1.102,0-1.653,0c0-0.366,0-0.735,0-1.104
	C39.683,62.832,39.683,62.28,39.683,61.729z"/>
<path fill-rule="evenodd" clip-rule="evenodd" fill="#222222" d="M134.483,61.729c0,0.735,0,1.469,0,2.206c0,0.186,0,0.366,0,0.552
	c1.103,0,2.205,0,3.308,0c0,1.471,0,2.938,0,4.407c0,1.652,0,3.309,0,4.96c-1.103,0-2.205,0-3.308,0c0-0.367,0-0.733,0-1.102
	c0-0.55,0-1.102,0-1.652c0-1.102,0-2.206,0-3.309c-0.368,0-0.735,0-1.103,0c-0.551,0-1.104,0-1.652,0c0-0.553,0-1.101,0-1.655
	c0-0.363,0-0.733,0-1.1c0-0.55,0-1.102,0-1.653c0-0.551,0-1.103,0-1.654c0.367,0,0.734,0,1.102,0
	C133.38,61.729,133.931,61.729,134.483,61.729z"/>
<path fill-rule="evenodd" clip-rule="evenodd" fill="#222222" d="M42.438,64.486c1.102,0,2.204,0,3.307,0c0,1.102,0,2.204,0,3.305
	c-1.103,0-2.206,0-3.307,0C42.438,66.69,42.438,65.588,42.438,64.486z"/>
<path fill-rule="evenodd" clip-rule="evenodd" fill="#A2A2A2" d="M106.925,64.486c0,1.102,0,2.204,0,3.305c-0.367,0-0.735,0-1.104,0
	c-0.551,0-1.103,0-1.653,0c0-1.101,0-2.203,0-3.305c0.368,0,0.734,0,1.103,0C105.822,64.486,106.373,64.486,106.925,64.486z"/>
<path fill-rule="evenodd" clip-rule="evenodd" fill="#EDEDED" d="M106.925,64.486c1.102,0,2.205,0,3.307,0c0,1.102,0,2.204,0,3.305
	c-1.102,0-2.205,0-3.307,0C106.925,66.69,106.925,65.588,106.925,64.486z"/>
<path fill-rule="evenodd" clip-rule="evenodd" fill="#FFFFFF" d="M110.232,64.486c2.021,0,4.041,0,6.063,0c0,0.55,0,1.102,0,1.649
	c0,0.555,0,1.103,0,1.655c0.368,0,0.734,0,1.102,0c0.551,0,1.103,0,1.654,0c0,2.94,0,5.882,0,8.821c-0.368,0-0.734,0-1.104,0
	c-0.551,0-1.102,0-1.652,0c0-0.555,0-1.104,0-1.655c0-0.366,0-0.735,0-1.104c-0.552,0-1.102,0-1.654,0c-0.551,0-1.101,0-1.652,0
	c0-1.102,0-2.203,0-3.308c-0.367,0-0.734,0-1.102,0c-0.552,0-1.103,0-1.654,0c-1.102,0-2.205,0-3.307,0c0-0.365,0-0.733,0-1.103
	c0-0.55,0-1.102,0-1.652c1.102,0,2.205,0,3.307,0C110.232,66.69,110.232,65.588,110.232,64.486z"/>
<path fill-rule="evenodd" clip-rule="evenodd" fill="#222222" d="M42.438,67.791c0,0.368,0,0.736,0,1.103c0,0.55,0,1.104,0,1.652
	c-0.368,0-0.734,0-1.103,0c-0.551,0-1.102,0-1.653,0c0-0.365,0-0.733,0-1.103c0-0.55,0-1.102,0-1.652c0.368,0,0.734,0,1.102,0
	C41.336,67.791,41.887,67.791,42.438,67.791z"/>
<path fill-rule="evenodd" clip-rule="evenodd" fill="#A2A2A2" d="M42.438,67.791c1.102,0,2.204,0,3.307,0c0,2.94,0,5.882,0,8.821
	c-1.103,0-2.206,0-3.307,0c0-0.736,0-1.473,0-2.206c0-0.185,0-0.368,0-0.553c-0.551,0-1.103,0-1.654,0c-0.367,0-0.734,0-1.102,0
	c0-1.102,0-2.203,0-3.308c0.551,0,1.102,0,1.653,0c0.369,0,0.735,0,1.103,0c0-0.548,0-1.103,0-1.652
	C42.438,68.527,42.438,68.159,42.438,67.791z"/>
<path fill-rule="evenodd" clip-rule="evenodd" fill="#A2A2A2" d="M104.168,67.791c0,0.368,0,0.736,0,1.103c0,0.55,0,1.104,0,1.652
	c-1.103,0-2.205,0-3.307,0c0-0.365,0-0.733,0-1.103c0-0.55,0-1.102,0-1.652C101.963,67.791,103.066,67.791,104.168,67.791z"/>
<path fill-rule="evenodd" clip-rule="evenodd" fill="#222222" d="M39.683,70.546c0,1.104,0,2.206,0,3.308c-0.368,0-0.735,0-1.103,0
	c-0.551,0-1.104,0-1.653,0c-0.552,0-1.103,0-1.654,0s-1.102,0-1.653,0c0-1.102,0-2.203,0-3.308
	C35.642,70.546,37.662,70.546,39.683,70.546z"/>
<path fill-rule="evenodd" clip-rule="evenodd" fill="#A2A2A2" d="M100.862,70.546c0,1.104,0,2.206,0,3.308c-1.102,0-2.204,0-3.308,0
	c0-1.102,0-2.203,0-3.308C98.658,70.546,99.76,70.546,100.862,70.546z"/>
<path fill-rule="evenodd" clip-rule="evenodd" fill="#222222" d="M39.683,73.854c0.368,0,0.734,0,1.102,0c0.551,0,1.103,0,1.654,0
	c0,0.185,0,0.368,0,0.553c0,0.733,0,1.47,0,2.206c-0.368,0-0.734,0-1.103,0c-0.551,0-1.102,0-1.653,0c0-0.368,0-0.736,0-1.104
	C39.683,74.957,39.683,74.406,39.683,73.854z"/>
<path fill-rule="evenodd" clip-rule="evenodd" fill="#A2A2A2" d="M97.554,73.854c0,0.368,0,0.737,0,1.104c0,0.552,0,1.101,0,1.655
	c0,1.099,0,2.204,0,3.304c-0.367,0-0.734,0-1.102,0c-0.551,0-1.102,0-1.654,0c0,0.368,0,0.735,0,1.102c0,0.555,0,1.104,0,1.656
	c0,1.104,0,2.204,0,3.308c-0.366,0-0.735,0-1.102,0c-1.653,0-3.307,0-4.959,0c0-0.369,0-0.737,0-1.104c0-1.655,0-3.306,0-4.962
	c0.367,0,0.732,0,1.101,0c0.552,0,1.102,0,1.653,0c0-1.1,0-2.205,0-3.304c1.103,0,2.205,0,3.307,0c0-0.368,0-0.736,0-1.104
	c0-0.552,0-1.103,0-1.655c0.369,0,0.734,0,1.104,0C96.453,73.854,97.004,73.854,97.554,73.854z"/>
<path fill-rule="evenodd" clip-rule="evenodd" fill="#222222" d="M128.419,73.854c2.022,0,4.043,0,6.063,0c0,0.368,0,0.737,0,1.104
	c0,0.552,0,1.101,0,1.655c-1.103,0-2.206,0-3.308,0c-0.551,0-1.102,0-1.654,0c-0.365,0-0.732,0-1.102,0c0-0.368,0-0.736,0-1.104
	C128.419,74.957,128.419,74.406,128.419,73.854z"/>
<path fill-rule="evenodd" clip-rule="evenodd" fill="#A2A2A2" d="M134.483,73.854c1.103,0,2.205,0,3.308,0c0,0.368,0,0.737,0,1.104
	c0,0.552,0,1.101,0,1.655c-1.103,0-2.205,0-3.308,0c0-0.555,0-1.104,0-1.655C134.483,74.591,134.483,74.222,134.483,73.854z"/>
<path fill-rule="evenodd" clip-rule="evenodd" fill="#222222" d="M137.791,73.854c0.366,0,0.733,0,1.102,0c0.551,0,1.102,0,1.652,0
	c0,0.368,0,0.737,0,1.104c0,0.552,0,1.101,0,1.655c1.103,0,2.205,0,3.308,0c0,1.099,0,2.204,0,3.304c-3.123,0-6.245,0-9.369,0
	c0-1.1,0-2.205,0-3.304c1.103,0,2.205,0,3.308,0c0-0.555,0-1.104,0-1.655C137.791,74.591,137.791,74.222,137.791,73.854z"/>
<path fill-rule="evenodd" clip-rule="evenodd" fill="#222222" d="M42.438,76.612c1.102,0,2.204,0,3.307,0c0,1.099,0,2.204,0,3.304
	c-1.103,0-2.206,0-3.307,0C42.438,78.816,42.438,77.711,42.438,76.612z"/>
<path fill-rule="evenodd" clip-rule="evenodd" fill="#A2A2A2" d="M45.746,76.612c0.552,0,1.102,0,1.653,0c0.552,0,1.103,0,1.654,0
	c0,1.099,0,2.204,0,3.304c0,0.368,0,0.735,0,1.102c0,0.555,0,1.104,0,1.656c0.367,0,0.734,0,1.102,0c0.552,0,1.103,0,1.654,0
	c0,1.104,0,2.204,0,3.308c1.102,0,2.205,0,3.307,0c0,1.104,0,2.203,0,3.307c0.551,0,1.101,0,1.653,0c0.551,0,1.103,0,1.653,0
	c0.183,0,0.368-0.006,0.551,0c0.183,0.005,0.367,0,0.551,0c0.183,0,0.37-0.014,0.552,0c0.182,0.009,0.368-0.01,0.551,0
	c0.079,0.002,0.498-0.052,0.551,0c0.091,0.095-0.072,0.438,0,0.549c0,0.735,0,1.473,0,2.207c-1.102,0-2.205,0-3.307,0
	c0,1.1,0,2.204,0,3.304c-0.368,0-0.734,0-1.103,0c-0.552,0-1.103,0-1.653,0c0,2.022,0,4.044,0,6.065c-1.103,0-2.206,0-3.307,0
	c0,0.368,0,0.734,0,1.102c0,0.555,0,1.102,0,1.658c-0.367,0-0.734,0-1.102,0c-0.552,0-1.104,0-1.654,0c0,1.097,0,2.201,0,3.302
	c-1.102,0-2.206,0-3.308,0c0-3.123,0-6.247,0-9.369c1.102,0,2.206,0,3.308,0c0-0.548,0-1.104,0-1.653c0-0.369,0-0.736,0-1.104
	c0-1.1,0-2.204,0-3.304c-1.102,0-2.206,0-3.308,0c0-0.554,0-1.104,0-1.652c0-0.367,0-0.737,0-1.104c-1.103,0-2.206,0-3.307,0
	c0-1.104,0-2.203,0-3.307c-0.551,0-1.103,0-1.654,0c-0.367,0-0.734,0-1.102,0c0-1.104,0-2.204,0-3.308c0.551,0,1.102,0,1.653,0
	c0.369,0,0.735,0,1.103,0c0-0.553,0-1.102,0-1.656c0-0.366,0-0.733,0-1.102c1.102,0,2.204,0,3.307,0
	C45.746,78.816,45.746,77.711,45.746,76.612z"/>
<path fill-rule="evenodd" clip-rule="evenodd" fill="#FFFFFF" d="M116.294,76.612c0,1.099,0,2.204,0,3.304c-0.734,0-1.47,0-2.205,0
	c-0.367,0-0.734,0-1.102,0c0-1.1,0-2.205,0-3.304C114.089,76.612,115.193,76.612,116.294,76.612z"/>
<path fill-rule="evenodd" clip-rule="evenodd" fill="#A2A2A2" d="M128.419,76.612c0.369,0,0.736,0,1.102,0c0.553,0,1.104,0,1.654,0
	c1.102,0,2.205,0,3.308,0c0,1.099,0,2.204,0,3.304c3.124,0,6.246,0,9.369,0c0,0.368,0,0.735,0,1.102c0,0.555,0,1.104,0,1.656
	c-1.653,0-3.308,0-4.96,0c-0.368,0-0.735,0-1.102,0c0,0.369,0,0.735,0,1.104c0,0.732,0,1.467,0,2.204c0.551,0,1.102,0,1.652,0
	c0.368,0,0.734,0,1.102,0c0,1.104,0,2.203,0,3.307c0.552,0,1.103,0,1.654,0c0.551,0,1.103,0,1.653,0c0,0.366,0,0.736,0,1.104
	c0,0.549,0,1.099,0,1.652c-1.103,0-2.205,0-3.308,0c-0.551,0-1.102,0-1.652,0c-0.368,0-0.735,0-1.102,0c-0.552,0-1.103,0-1.653,0
	c-0.368,0-0.736,0-1.103,0c-0.552,0-1.104,0-1.654,0s-1.104,0-1.652,0c0,0.55,0,1.1,0,1.65c0,0.554,0,1.104,0,1.653
	c-0.553,0-1.104,0-1.654,0c-0.553,0-1.103,0-1.654,0c0,0.735,0,1.471,0,2.21c0.074,0.109-0.09,0.455,0,0.548
	c0.066,0.07,0.453-0.021,0.552,0c0.156,0.038,0.39,0,0.55,0c0.186,0,0.369,0,0.553,0c0.551,0,1.102,0,1.654,0
	c0,1.104,0,2.204,0,3.308c-1.654,0-3.309,0-4.963,0c-0.552,0-1.101,0-1.652,0c0,0.548,0,1.102,0,1.656c0,0.366,0,0.733,0,1.104
	c-0.551,0-1.103,0-1.654,0c-0.367,0-0.733,0-1.102,0c0,5.142,0,10.285,0,15.43c0.552,0,1.102,0,1.653,0c0.368,0,0.734,0,1.103,0
	c0,1.102,0,2.203,0,3.305c-1.103,0-2.204,0-3.307,0c-0.551,0-1.104,0-1.655,0c-0.365,0-0.733,0-1.101,0c0-1.102,0-2.203,0-3.305
	c-0.552,0-1.104,0-1.654,0c-0.367,0-0.733,0-1.102,0c0-1.103,0-2.206,0-3.308c0-0.555,0-1.103,0-1.654c0-0.368,0-0.734,0-1.102
	c0.551,0,1.102,0,1.652,0c0.369,0,0.735,0,1.104,0c0-1.104,0-2.204,0-3.308c-0.734,0-1.47,0-2.205,0c-0.183,0-0.367,0-0.551,0
	c0,1.104,0,2.204,0,3.308c-1.102,0-2.205,0-3.307,0c0,1.102,0,2.201,0,3.304c-0.553,0-1.102,0-1.653,0c-0.551,0-1.103,0-1.653,0
	s-1.104,0-1.654,0c-0.367,0-0.736,0-1.102,0c0-0.548,0-1.103,0-1.65c0-0.552,0-1.104,0-1.653c0.551,0,1.102,0,1.651,0
	c0.554,0,1.104,0,1.655,0c0-1.104,0-2.204,0-3.308c-0.185,0-0.369,0-0.551,0c-0.185,0-0.369,0-0.551,0c-0.186,0-0.371,0.01-0.554,0
	c-0.18-0.009-0.365,0-0.55,0c-0.161,0-0.395,0.038-0.551,0c-0.099-0.025-0.484,0.068-0.551,0c-0.093-0.093,0.072-0.441,0-0.552
	c0-0.733,0-1.47,0-2.205c0.365,0,0.734,0,1.102,0c1.654,0,3.308,0,4.961,0c0-1.101,0-2.205,0-3.302c1.102,0,2.205,0,3.307,0
	c0-0.37,0-0.737,0-1.104c0-0.555,0-1.108,0-1.656c0.368,0,0.734,0,1.102,0c0.551,0,1.103,0,1.654,0c0-1.104,0-2.204,0-3.308
	c1.101,0,2.205,0,3.307,0c0-0.366,0-0.735,0-1.104c0-0.55,0-1.1,0-1.654c0.185,0,0.368,0,0.552,0c0.734,0,1.47,0,2.204,0
	c0-0.549,0-1.1,0-1.653c0-0.551,0-1.101,0-1.65c1.101,0,2.207,0,3.307,0C128.419,86.898,128.419,81.755,128.419,76.612z"/>
<path fill-rule="evenodd" clip-rule="evenodd" fill="#222222" d="M42.438,79.916c0,0.368,0,0.735,0,1.102c0,0.555,0,1.104,0,1.656
	c-0.368,0-0.734,0-1.103,0c-0.551,0-1.102,0-1.653,0c0-0.371,0-0.739,0-1.102c0-0.555,0-1.103,0-1.656c0.368,0,0.734,0,1.102,0
	C41.336,79.916,41.887,79.916,42.438,79.916z"/>
<path fill-rule="evenodd" clip-rule="evenodd" fill="#222222" d="M143.852,79.916c0.552,0,1.103,0,1.653,0c0.368,0,0.734,0,1.102,0
	c0.553,0,1.104,0,1.655,0c0.183,0,0.367-0.003,0.552,0c0.182,0.006,0.367,0,0.551,0c0.182,0,0.366,0,0.551,0
	c0.184,0,0.367,0,0.553,0c0.18,0,0.368-0.012,0.549,0c0.182,0.017,0.369,0,0.553,0c0.16,0,0.395-0.038,0.552,0
	c0.097,0.025,0.482-0.067,0.549,0c0.093,0.093-0.072,0.443,0,0.554c0,0.735,0,1.465,0,2.204c-2.939,0-5.878,0-8.818,0
	c0-0.553,0-1.102,0-1.656C143.852,80.651,143.852,80.284,143.852,79.916z"/>
<path fill-rule="evenodd" clip-rule="evenodd" fill="#222222" d="M39.683,82.674c0,1.104,0,2.204,0,3.308c0.368,0,0.734,0,1.102,0
	c0.551,0,1.103,0,1.654,0c0,1.104,0,2.203,0,3.307c1.102,0,2.204,0,3.307,0c0,0.366,0,0.736,0,1.104c0,0.549,0,1.099,0,1.652
	c-0.367,0-0.735,0-1.103,0c-0.551,0-1.103,0-1.653,0c-1.103,0-2.205,0-3.307,0c-0.368,0-0.735,0-1.103,0c-0.551,0-1.104,0-1.653,0
	c-1.103,0-2.205,0-3.307,0c0-0.368,0-0.734,0-1.104c0-0.549,0-1.104,0-1.652c-0.368,0-0.736,0-1.103,0c-0.551,0-1.103,0-1.653,0
	c-1.103,0-2.205,0-3.308,0c0-1.104,0-2.203,0-3.307c0.369,0,0.735,0,1.103,0c0.368,0,0.736,0,1.102,0c0.551,0,1.103,0,1.653,0
	c0.736,0,1.469,0,2.206,0c0-0.369,0-0.737,0-1.104c0-0.731,0-1.469,0-2.204c1.469,0,2.939,0,4.409,0
	C38.581,82.674,39.131,82.674,39.683,82.674z"/>
<path fill-rule="evenodd" clip-rule="evenodd" fill="#FFFFFF" d="M73.305,82.674c1.653,0,3.306,0,4.959,0c0.368,0,0.735,0,1.101,0
	c0,1.104,0,2.204,0,3.308c1.104,0,2.206,0,3.308,0c0,1.651,0,3.307,0,4.959c0,0.369,0,0.735,0,1.104c-1.102,0-2.204,0-3.308,0
	c0-0.554,0-1.104,0-1.652c0-0.367,0-0.737,0-1.104c-0.733,0-1.469,0-2.204,0c-0.109,0.07-0.459-0.093-0.55,0
	c-0.052,0.049,0.005,0.468,0,0.549c-0.01,0.185,0.021,0.37,0,0.555c-0.021,0.177,0,0.371,0,0.549c0,0.184,0,0.369,0,0.55
	c0,0.186,0,0.369,0,0.554c-0.552,0-1.102,0-1.653,0c-0.552,0-1.103,0-1.653,0c0,0.363,0,0.732,0,1.1c0,0.551,0,1.104,0,1.655
	c0.073,0.11-0.093,0.462,0,0.549c0.066,0.07,0.452-0.022,0.551,0c0.156,0.042,0.389,0,0.551,0c0.184,0,0.369-0.005,0.552,0
	c0.182,0.012,0.366,0,0.551,0c0.182,0,0.366,0,0.55,0c0.184,0,0.369,0,0.552,0c0,0.368,0,0.735,0,1.104c0,0.55,0,1.105,0,1.653
	c-2.205,0-4.409,0-6.614,0c0-0.548,0-1.104,0-1.653c0-0.369,0-0.736,0-1.104c-0.551,0-1.102,0-1.654,0c-0.368,0-0.734,0-1.102,0
	c0-2.017,0-4.038,0-6.06c0.549,0,1.102,0,1.653,0c0.366,0,0.734,0,1.102,0c0-1.104,0-2.203,0-3.307c1.102,0,2.205,0,3.308,0
	C73.305,84.878,73.305,83.777,73.305,82.674z"/>
<path fill-rule="evenodd" clip-rule="evenodd" fill="#EDEDED" d="M143.852,82.674c0,1.104,0,2.204,0,3.308c2.94,0,5.879,0,8.818,0
	c2.206,0,4.409,0,6.615,0c0,1.104,0,2.203,0,3.307c-2.206,0-4.409,0-6.615,0c0,0.549,0,1.104,0,1.652c0,0.369,0,0.735,0,1.104
	c-2.939,0-5.878,0-8.818,0c0-0.554,0-1.104,0-1.652c0-0.367,0-0.737,0-1.104c-0.551,0-1.103,0-1.653,0c-0.552,0-1.103,0-1.654,0
	c0-1.104,0-2.203,0-3.307c-0.367,0-0.733,0-1.102,0c-0.551,0-1.102,0-1.652,0c0-0.737,0-1.472,0-2.204c0-0.368,0-0.734,0-1.104
	c0.366,0,0.733,0,1.102,0C140.544,82.674,142.199,82.674,143.852,82.674z"/>
<path fill-rule="evenodd" clip-rule="evenodd" fill="#A2A2A2" d="M143.852,82.674c2.94,0,5.879,0,8.818,0c0,1.104,0,2.204,0,3.308
	c-2.939,0-5.878,0-8.818,0C143.852,84.878,143.852,83.777,143.852,82.674z"/>
<path fill-rule="evenodd" clip-rule="evenodd" fill="#222222" d="M152.67,82.674c3.123,0,6.247,0,9.37,0c0,1.104,0,2.204,0,3.308
	c-0.551,0-1.102,0-1.653,0c-0.368,0-0.735,0-1.102,0c-2.206,0-4.409,0-6.615,0C152.67,84.878,152.67,83.777,152.67,82.674z"/>
<path fill-rule="evenodd" clip-rule="evenodd" fill="#A2A2A2" d="M159.286,85.981c0.366,0,0.733,0,1.102,0c0.552,0,1.103,0,1.653,0
	c0,1.104,0,2.203,0,3.307c-0.367,0-0.735,0-1.102,0c-0.552,0-1.103,0-1.653,0C159.286,88.185,159.286,87.085,159.286,85.981z"/>
<path fill-rule="evenodd" clip-rule="evenodd" fill="#222222" d="M162.041,85.981c0.184,0,0.368,0,0.553,0c1.285,0,2.57,0,3.856,0
	c0.551,0,1.103,0,1.654,0c0,0.366,0,0.735,0,1.104c0,0.732,0,1.466,0,2.203c1.102,0,2.205,0,3.308,0c0,0.549,0,1.104,0,1.652
	c0,0.369,0,0.735,0,1.104c-0.367,0-0.736,0-1.103,0c-5.88,0-11.76,0-17.639,0c0-0.368,0-0.734,0-1.104c0-0.549,0-1.104,0-1.652
	c2.206,0,4.409,0,6.615,0c0.551,0,1.102,0,1.653,0c0.366,0,0.734,0,1.102,0C162.041,88.185,162.041,87.085,162.041,85.981z"/>
<path fill-rule="evenodd" clip-rule="evenodd" fill="#FFFFFF" d="M94.798,101.413c0-1.104,0-2.204,0-3.308c-1.102,0-2.204,0-3.307,0
	c0-0.548,0-1.104,0-1.653c0-0.369,0-0.736,0-1.104c0-1.1,0-2.204,0-3.304c1.103,0,2.205,0,3.307,0c0-0.368,0-0.734,0-1.104
	c0-0.549,0-1.104,0-1.652c0.553,0,1.104,0,1.654,0c0.552,0,1.102,0,1.654,0c0.182,0,0.366-0.006,0.551,0
	c0.182,0.005,0.367,0,0.551,0c0.183,0,0.369-0.014,0.552,0c0.183,0.009,0.366-0.01,0.55,0c0.08,0.002,0.499-0.052,0.552,0
	c0.091,0.095-0.072,0.438,0,0.549c0,0.735,0,1.473,0,2.207c-1.102,0-2.204,0-3.308,0c0,1.1,0,2.204,0,3.304c0.553,0,1.104,0,1.654,0
	c1.102,0,2.205,0,3.307,0c0.551,0,1.102,0,1.653,0c0,0.555,0,1.104,0,1.654c0,0.368,0,0.737,0,1.104c-0.552,0-1.103,0-1.653,0
	c-0.552,0-1.102,0-1.653,0c0,0.55,0,1.104,0,1.655c0,0.549,0,1.104,0,1.652c-0.552,0-1.102,0-1.653,0
	C97.739,101.413,96.269,101.413,94.798,101.413z"/>
<path fill-rule="evenodd" clip-rule="evenodd" fill="#222222" d="M45.746,92.044c1.102,0,2.206,0,3.308,0c0,1.1,0,2.204,0,3.304
	c0,0.368,0,0.735,0,1.104c0,0.55,0,1.105,0,1.653c-1.102,0-2.206,0-3.308,0c0-0.366,0-0.735,0-1.104c0-0.55,0-1.1,0-1.654
	C45.746,94.248,45.746,93.144,45.746,92.044z"/>
<path fill-rule="evenodd" clip-rule="evenodd" fill="#222222" d="M143.852,92.044c2.94,0,5.879,0,8.818,0c0,1.1,0,2.204,0,3.304
	c-2.939,0-5.878,0-8.818,0c-1.47,0-2.939,0-4.409,0c-0.734,0-1.47,0-2.204,0c-0.368,0-0.735,0-1.102,0c-0.552,0-1.103,0-1.654,0
	c0,0.368,0,0.735,0,1.104c0,1.653,0,3.309,0,4.961c-0.184,0-0.368,0-0.552,0c-0.734,0-1.469,0-2.203,0c0-1.104,0-2.204,0-3.308
	c-0.553,0-1.104,0-1.654,0c-0.184,0-0.367,0-0.553,0c-0.16,0-0.394,0.038-0.55,0c-0.099-0.021-0.485,0.07-0.552,0
	c-0.09-0.093,0.074-0.438,0-0.548c0-0.739,0-1.475,0-2.21c0.552,0,1.102,0,1.654,0c0.551,0,1.102,0,1.654,0c0-0.549,0-1.1,0-1.653
	c0-0.551,0-1.101,0-1.65c0.549,0,1.102,0,1.652,0s1.103,0,1.654,0c0.366,0,0.734,0,1.103,0c0.551,0,1.102,0,1.653,0
	c0.366,0,0.733,0,1.102,0c0.551,0,1.102,0,1.652,0C141.647,92.044,142.75,92.044,143.852,92.044z"/>
<path fill-rule="evenodd" clip-rule="evenodd" fill="#A2A2A2" d="M91.492,95.348c0,0.368,0,0.735,0,1.104c0,0.55,0,1.105,0,1.653
	c0,1.104,0,2.204,0,3.308c1.103,0,2.205,0,3.307,0c0,0.548,0,1.102,0,1.656c0,0.366,0,0.733,0,1.104c0.369,0,0.734,0,1.104,0
	c0.551,0,1.103,0,1.652,0c1.104,0,2.206,0,3.308,0c0,0.548,0,1.097,0,1.649c0,0.552,0,1.103,0,1.652c0.552,0,1.102,0,1.653,0
	c0.184,0,0.367,0,0.551,0c0.162,0,0.396-0.039,0.551,0c0.1,0.026,0.485-0.065,0.552,0c0.092,0.091-0.073,0.443,0,0.554
	c0,0.732,0,1.467,0,2.203c-1.103,0-2.205,0-3.307,0c0,1.104,0,2.204,0,3.308c1.102,0,2.204,0,3.307,0c0,1.102,0,2.201,0,3.304
	c0.551,0,1.103,0,1.653,0c0.368,0,0.736,0,1.104,0c0,0.554,0,1.107,0,1.657c0,0.366,0,0.732,0,1.103c-0.553,0-1.104,0-1.654,0
	c-0.368,0-0.734,0-1.103,0c0,1.102,0,2.203,0,3.305c-0.552,0-1.103,0-1.653,0c-0.552,0-1.102,0-1.653,0c0,0.366,0,0.736,0,1.104
	c0,0.551,0,1.103,0,1.652c-1.102,0-2.204,0-3.308,0c0,1.104,0,2.205,0,3.308c-0.734,0-1.469,0-2.203,0c-0.184,0-0.367,0-0.553,0
	c0,0.551,0,1.104,0,1.652c0,0.368,0,0.737,0,1.105c-1.102,0-2.204,0-3.307,0c0,1.098,0,2.201,0,3.304c-0.367,0-0.733,0-1.102,0
	c-0.552,0-1.101,0-1.652,0c0-0.551,0-1.103,0-1.65c0-0.556,0-1.104,0-1.653c0-0.368,0-0.737,0-1.105c0-0.549,0-1.102,0-1.652
	c-1.103,0-2.206,0-3.31,0c0-0.55,0-1.103,0-1.651c0-0.553,0-1.105,0-1.656c-0.551,0-1.101,0-1.653,0c-0.368,0-0.734,0-1.103,0
	c0-0.55,0-1.102,0-1.652c0-0.367,0-0.737,0-1.104c-1.102,0-2.204,0-3.308,0c0-0.55,0-1.102,0-1.655c0-0.548,0-1.102,0-1.649
	c-0.366,0-0.733,0-1.101,0c-0.551,0-1.103,0-1.653,0c0-0.554,0-1.103,0-1.652c0-0.37,0-0.739,0-1.107c-0.368,0-0.735,0-1.102,0
	c-0.551,0-1.103,0-1.654,0c-0.111,0.073-0.461-0.088-0.551,0c-0.054,0.055,0.003,0.473,0,0.554c-0.009,0.181,0.02,0.37,0,0.554
	c-0.022,0.177,0,0.371,0,0.55c0,0.181,0,0.366,0,0.549c0,0.184,0,0.369,0,0.554c-0.552,0-1.103,0-1.654,0c-0.552,0-1.102,0-1.653,0
	c0,0.548,0,1.102,0,1.649c0,0.554,0,1.105,0,1.655c-0.368,0-0.736,0-1.102,0c-0.552,0-1.104,0-1.653,0c0,0.552,0,1.104,0,1.654
	c0,0.368,0,0.734,0,1.102c-1.103,0-2.207,0-3.309,0c0,1.104,0,2.205,0,3.308c-1.101,0-2.203,0-3.306,0c-0.551,0-1.103,0-1.654,0
	c-0.366,0-0.735,0-1.102,0c0-2.021,0-4.041,0-6.063c1.102,0,2.205,0,3.307,0c0-1.102,0-2.203,0-3.305c0.368,0,0.733,0,1.102,0
	c0.552,0,1.101,0,1.653,0c0-0.37,0-0.736,0-1.103c0-0.55,0-1.104,0-1.657c0.552,0,1.102,0,1.654,0s1.102,0,1.655,0
	c0-1.103,0-2.202,0-3.304c0.184,0,0.368,0,0.549,0c3.859,0,7.718,0,11.574,0c0,1.102,0,2.201,0,3.304c0.369,0,0.737,0,1.104,0
	c1.654,0,3.307,0,4.959,0c0.368,0,0.737,0,1.104,0c0.551,0,1.103,0,1.651,0c0.554,0,1.106,0,1.655,0c0.552,0,1.102,0,1.653,0
	c0-1.103,0-2.202,0-3.304c1.103,0,2.205,0,3.307,0c0-1.104,0-2.204,0-3.308c-1.102,0-2.204,0-3.307,0c0-0.552,0-1.104,0-1.653
	s0-1.104,0-1.653c0-0.37,0-0.737,0-1.103c0-0.553,0-1.102,0-1.649c-0.367,0-0.733,0-1.102,0c-0.552,0-1.101,0-1.652,0
	c0-2.945,0-5.886,0-8.825c0.367,0,0.732,0,1.101,0C90.39,95.348,90.94,95.348,91.492,95.348z"/>
<path fill-rule="evenodd" clip-rule="evenodd" fill="#222222" d="M45.746,98.105c0,3.122,0,6.246,0,9.369c-1.103,0-2.206,0-3.307,0
	c0-1.468,0-2.938,0-4.405c0-1.656,0-3.309,0-4.964C43.54,98.105,44.643,98.105,45.746,98.105z"/>
<path fill-rule="evenodd" clip-rule="evenodd" fill="#EDEDED" d="M91.492,98.105c1.103,0,2.205,0,3.307,0c0,1.104,0,2.204,0,3.308
	c-1.102,0-2.204,0-3.307,0C91.492,100.31,91.492,99.209,91.492,98.105z"/>
<path fill-rule="evenodd" clip-rule="evenodd" fill="#EDEDED" d="M131.728,101.413c0,0.368,0,0.734,0,1.102c0,1.471,0,2.939,0,4.41
	c0,0.186,0,0.366,0,0.55c0.549,0,1.102,0,1.652,0c0.367,0,0.734,0,1.103,0c0,0.554,0,1.104,0,1.653c0,0.367,0,0.734,0,1.104
	c1.103,0,2.205,0,3.308,0c0,1.104,0,2.204,0,3.308c0.551,0,1.102,0,1.652,0c0.368,0,0.734,0,1.102,0c0,1.102,0,2.201,0,3.304
	c1.103,0,2.205,0,3.308,0c0,0.554,0,1.107,0,1.657c0,0.366,0,0.732,0,1.103c0,0.548,0,1.102,0,1.649c0,0.554,0,1.105,0,1.655
	c0.552,0,1.103,0,1.653,0c0.368,0,0.734,0,1.102,0c0,0.552,0,1.104,0,1.654c0,0.368,0,0.734,0,1.102c1.104,0,2.207,0,3.309,0
	c0,1.104,0,2.205,0,3.308c-1.102,0-2.204,0-3.309,0c0,0.551,0,1.104,0,1.652c0,0.368,0,0.737,0,1.105c-0.367,0-0.733,0-1.102,0
	c-0.551,0-1.102,0-1.653,0c0-0.552,0-1.105,0-1.654c0-0.368,0-0.734,0-1.104c-1.103,0-2.205,0-3.308,0c0,0.735,0,1.469,0,2.206
	c0,0.184,0,0.367,0,0.552c1.103,0,2.205,0,3.308,0c0,1.098,0,2.201,0,3.304c0.552,0,1.103,0,1.653,0c0.368,0,0.734,0,1.102,0
	c0,0.367,0,0.732,0,1.102c0,0.554,0,1.104,0,1.655c-1.102,0-2.203,0-3.306,0c-0.552,0-1.103,0-1.654,0c-0.366,0-0.734,0-1.103,0
	c0-0.734,0-1.468,0-2.204c0-0.186,0-0.367,0-0.553c-0.551,0-1.102,0-1.652,0c-0.368,0-0.735,0-1.102,0c0-1.103,0-2.206,0-3.304
	c-1.103,0-2.205,0-3.308,0c0-0.552,0-1.105,0-1.654c0-0.368,0-0.734,0-1.104c-0.552,0-1.103,0-1.653,0c-0.367,0-0.734,0-1.102,0
	c0-1.103,0-2.204,0-3.308c-1.104,0-2.207,0-3.309,0c0-0.55,0-1.102,0-1.652c0-0.367,0-0.737,0-1.104c-1.1,0-2.206,0-3.307,0
	c0-1.102,0-2.203,0-3.305c-0.368,0-0.734,0-1.103,0c-0.552,0-1.102,0-1.653,0c0-5.145,0-10.288,0-15.43c0.368,0,0.734,0,1.102,0
	c0.552,0,1.104,0,1.654,0c0-0.37,0-0.737,0-1.104c0-0.555,0-1.108,0-1.656c0.552,0,1.101,0,1.652,0
	C128.419,101.413,130.074,101.413,131.728,101.413z"/>
<path fill-rule="evenodd" clip-rule="evenodd" fill="#A2A2A2" d="M131.728,101.413c0.734,0,1.469,0,2.203,0c0.184,0,0.368,0,0.552,0
	c0,1.102,0,2.203,0,3.308c0,0.549,0,1.102,0,1.653c0,0.369,0,0.736,0,1.101c-0.368,0-0.735,0-1.103,0c-0.551,0-1.104,0-1.652,0
	c0-0.184,0-0.364,0-0.55c0-1.471,0-2.939,0-4.41C131.728,102.147,131.728,101.781,131.728,101.413z"/>
<path fill-rule="evenodd" clip-rule="evenodd" fill="#222222" d="M134.483,101.413c1.103,0,2.205,0,3.308,0c0,0.368,0,0.734,0,1.102
	c0,1.658,0,3.308,0,4.96c-1.103,0-2.205,0-3.308,0c0-0.364,0-0.731,0-1.101c0-0.552,0-1.104,0-1.653
	C134.483,103.616,134.483,102.515,134.483,101.413z"/>
<path fill-rule="evenodd" clip-rule="evenodd" fill="#222222" d="M42.438,107.475c0,0.735,0,1.472,0,2.205c0,0.368,0,0.737,0,1.102
	c0,0.554,0,1.104,0,1.654c0,0.366,0,0.734,0,1.104c-0.368,0-0.734,0-1.103,0c-0.551,0-1.102,0-1.653,0c0-0.369,0-0.737,0-1.104
	c0-0.551,0-1.101,0-1.654c0-1.102,0-2.203,0-3.307c0.368,0,0.734,0,1.102,0C41.336,107.475,41.887,107.475,42.438,107.475z"/>
<path fill-rule="evenodd" clip-rule="evenodd" fill="#A2A2A2" d="M42.438,107.475c1.102,0,2.204,0,3.307,0c0,0.554,0,1.104,0,1.653
	c0,0.552,0,1.104,0,1.653c0,0.554,0,1.104,0,1.654c0,0.366,0,0.734,0,1.104c-1.103,0-2.206,0-3.307,0c0-0.369,0-0.737,0-1.104
	c0-0.551,0-1.101,0-1.654c0-0.364,0-0.733,0-1.102C42.438,108.946,42.438,108.21,42.438,107.475z"/>
<path fill-rule="evenodd" clip-rule="evenodd" fill="#EDEDED" d="M45.746,107.475c1.102,0,2.206,0,3.308,0c0,1.472,0,2.942,0,4.41
	c0,1.471,0,2.939,0,4.41c0,0.183,0,0.364,0,0.548c0.549,0,1.102,0,1.654,0c0.367,0,0.734,0,1.102,0c0,0.554,0,1.107,0,1.657
	c0,0.366,0,0.732,0,1.103c1.102,0,2.205,0,3.307,0c0,1.102,0,2.203,0,3.305c0.551,0,1.101,0,1.653,0c0.368,0,0.734,0,1.103,0
	c0,2.022,0,4.043,0,6.063c-0.734,0-1.47,0-2.205,0c-0.183,0-0.367,0-0.551,0c0,0.551,0,1.104,0,1.652c0,0.368,0,0.737,0,1.105
	c-1.103,0-2.206,0-3.307,0c0,1.098,0,2.201,0,3.304c-0.734,0-1.47,0-2.206,0c-0.182,0-0.366,0-0.549,0c0,0.553,0,1.102,0,1.655
	c0,0.367,0,0.733,0,1.102c-1.102,0-2.206,0-3.308,0c0-0.552,0-1.102,0-1.655c0-0.369,0-0.734,0-1.102c-1.103,0-2.206,0-3.307,0
	c0,0.553,0,1.102,0,1.655c0,0.367,0,0.733,0,1.102c-0.368,0-0.734,0-1.103,0c-0.551,0-1.102,0-1.653,0c0-2.024,0-4.042,0-6.061
	c0.551,0,1.102,0,1.653,0c0.369,0,0.735,0,1.103,0c0-0.368,0-0.737,0-1.105c0-0.549,0-1.102,0-1.652c-0.734,0-1.47,0-2.204,0
	c-0.184,0-0.368,0-0.551,0c0,0.551,0,1.104,0,1.652c0,0.368,0,0.737,0,1.105c-1.103,0-2.206,0-3.307,0c0-2.022,0-4.044,0-6.065
	c1.101,0,2.205,0,3.307,0c0-0.55,0-1.102,0-1.652c0-0.367,0-0.737,0-1.104c0-1.102,0-2.203,0-3.305c0.551,0,1.102,0,1.653,0
	c0.369,0,0.735,0,1.103,0c0-2.022,0-4.041,0-6.063c1.102,0,2.204,0,3.307,0c0-0.369,0-0.737,0-1.104c0-0.551,0-1.101,0-1.654
	c0-0.55,0-1.102,0-1.653C45.746,108.578,45.746,108.028,45.746,107.475z"/>
<path fill-rule="evenodd" clip-rule="evenodd" fill="#FFFFFF" d="M49.053,107.475c0.367,0,0.734,0,1.102,0c0.552,0,1.103,0,1.654,0
	c1.102,0,2.205,0,3.307,0c0,0.184,0,0.368,0,0.554c0,0.732,0,1.467,0,2.203c-1.103,0-2.206,0-3.307,0c0,1.104,0,2.204,0,3.308
	c1.102,0,2.205,0,3.307,0c0,0.55,0,1.102,0,1.653c0,1.467,0,2.939,0,4.41c-1.103,0-2.206,0-3.307,0c0-0.37,0-0.736,0-1.103
	c0-0.55,0-1.104,0-1.657c-0.367,0-0.734,0-1.102,0c-0.552,0-1.104,0-1.654,0c0-0.184,0-0.365,0-0.548c0-1.471,0-2.939,0-4.41
	C49.053,110.417,49.053,108.946,49.053,107.475z"/>
<path fill-rule="evenodd" clip-rule="evenodd" fill="#A2A2A2" d="M134.483,107.475c1.103,0,2.205,0,3.308,0c0,0.368,0,0.735,0,1.104
	c0,0.55,0,1.102,0,1.653c-1.103,0-2.205,0-3.308,0c0-0.369,0-0.736,0-1.104C134.483,108.578,134.483,108.028,134.483,107.475z"/>
<path fill-rule="evenodd" clip-rule="evenodd" fill="#222222" d="M137.791,107.475c0.366,0,0.733,0,1.102,0c0.551,0,1.102,0,1.652,0
	c0,0.368,0,0.735,0,1.104c0,0.55,0,1.102,0,1.653c-0.367,0-0.733,0-1.102,0c-0.551,0-1.102,0-1.652,0c0-0.552,0-1.104,0-1.653
	C137.791,108.21,137.791,107.843,137.791,107.475z"/>
<path fill-rule="evenodd" clip-rule="evenodd" fill="#222222" d="M116.294,113.539c0-1.104,0-2.204,0-3.308c0.184,0,0.368,0,0.551,0
	c0.735,0,1.471,0,2.205,0c0,1.104,0,2.204,0,3.308c-0.368,0-0.734,0-1.104,0C117.396,113.539,116.845,113.539,116.294,113.539z"/>
<path fill-rule="evenodd" clip-rule="evenodd" fill="#A2A2A2" d="M137.791,110.231c0.551,0,1.102,0,1.652,0c0.368,0,0.734,0,1.102,0
	c0,1.104,0,2.204,0,3.308c-0.367,0-0.733,0-1.102,0c-0.551,0-1.102,0-1.652,0C137.791,112.436,137.791,111.335,137.791,110.231z"/>
<path fill-rule="evenodd" clip-rule="evenodd" fill="#222222" d="M140.544,110.231c1.103,0,2.205,0,3.308,0c0,2.204,0,4.409,0,6.611
	c-1.103,0-2.205,0-3.308,0c0-1.103,0-2.202,0-3.304C140.544,112.436,140.544,111.335,140.544,110.231z"/>
<path fill-rule="evenodd" clip-rule="evenodd" fill="#222222" d="M39.683,113.539c0,0.733,0,1.469,0,2.201c0,0.37,0,0.737,0,1.103
	c0,0.554,0,1.107,0,1.657c0,0.366,0,0.732,0,1.103c0,1.102,0,2.203,0,3.305c-1.103,0-2.206,0-3.307,0c0-1.471,0-2.94,0-4.407
	c0-1.657,0-3.308,0-4.961C37.477,113.539,38.581,113.539,39.683,113.539z"/>
<path fill-rule="evenodd" clip-rule="evenodd" fill="#A2A2A2" d="M39.683,113.539c0.551,0,1.102,0,1.653,0c0.369,0,0.735,0,1.103,0
	c0,2.022,0,4.041,0,6.063c-0.368,0-0.734,0-1.103,0c-0.551,0-1.102,0-1.653,0c0-0.37,0-0.736,0-1.103c0-0.55,0-1.104,0-1.657
	c0-0.365,0-0.732,0-1.103C39.683,115.008,39.683,114.272,39.683,113.539z"/>
<path fill-rule="evenodd" clip-rule="evenodd" fill="#222222" d="M116.294,113.539c0,0.367,0,0.733,0,1.102c0,0.552,0,1.1,0,1.654
	c0,1.102,0,2.205,0,3.308c-1.47,0-2.939,0-4.408,0c-1.654,0-3.31,0-4.961,0c0-0.37,0-0.736,0-1.103c0-0.55,0-1.104,0-1.657
	c0.365,0,0.734,0,1.102,0c0.55,0,1.104,0,1.654,0s1.103,0,1.653,0c0.552,0,1.101,0,1.653,0c0-1.103,0-2.202,0-3.304
	C114.089,113.539,115.193,113.539,116.294,113.539z"/>
<path fill-rule="evenodd" clip-rule="evenodd" fill="#222222" d="M79.365,122.907c-0.182,0-0.366,0-0.551,0
	c-0.734,0-1.469,0-2.204,0c-0.735,0-1.47,0-2.205,0c-1.47,0-2.939,0-4.409,0c0-0.55,0-1.102,0-1.655c0-0.548,0-1.102,0-1.649
	c0.552,0,1.102,0,1.653,0c0.551,0,1.102,0,1.654,0c0-0.185,0-0.37,0-0.554c0-0.183,0-0.368,0-0.549c0-0.179-0.022-0.373,0-0.55
	c0.02-0.184-0.009-0.373,0-0.554c0.003-0.081-0.054-0.499,0-0.554c0.09-0.088,0.44,0.073,0.551,0c0.551,0,1.103,0,1.654,0
	c0.366,0,0.734,0,1.102,0c0,0.368,0,0.737,0,1.107c0,0.55,0,1.099,0,1.652c0.55,0,1.102,0,1.653,0c0.368,0,0.735,0,1.101,0
	c0,0.548,0,1.102,0,1.649C79.365,121.806,79.365,122.357,79.365,122.907z"/>
<path fill-rule="evenodd" clip-rule="evenodd" fill="#222222" d="M143.852,116.843c0.368,0,0.735,0,1.103,0c0.551,0,1.103,0,1.652,0
	c0,0.368,0,0.737,0,1.107c0,0.55,0,1.099,0,1.652c0,1.102,0,2.203,0,3.305c-0.367,0-0.733,0-1.102,0c-0.551,0-1.102,0-1.653,0
	c0-0.55,0-1.102,0-1.655c0-0.548,0-1.102,0-1.649c0-0.37,0-0.736,0-1.103C143.852,117.95,143.852,117.396,143.852,116.843z"/>
<path fill-rule="evenodd" clip-rule="evenodd" fill="#FFFFFF" d="M55.116,119.603c0.368,0,0.735,0,1.101,0c0.552,0,1.103,0,1.655,0
	c0,1.102,0,2.203,0,3.305c-0.368,0-0.734,0-1.103,0c-0.552,0-1.103,0-1.653,0C55.116,121.806,55.116,120.704,55.116,119.603z"/>
<path fill-rule="evenodd" clip-rule="evenodd" fill="#222222" d="M106.925,119.603c0,1.102,0,2.203,0,3.305
	c-0.367,0-0.735,0-1.104,0c-0.551,0-1.103,0-1.653,0c0-1.102,0-2.203,0-3.305c0.368,0,0.734,0,1.103,0
	C105.822,119.603,106.373,119.603,106.925,119.603z"/>
<path fill-rule="evenodd" clip-rule="evenodd" fill="#222222" d="M116.294,119.603c0.368,0,0.734,0,1.102,0c0.551,0,1.103,0,1.654,0
	c0,1.102,0,2.203,0,3.305c-0.368,0-0.734,0-1.104,0c-0.551,0-1.102,0-1.652,0C116.294,121.806,116.294,120.704,116.294,119.603z"/>
<path fill-rule="evenodd" clip-rule="evenodd" fill="#222222" d="M36.376,122.907c0,0.186,0,0.366,0,0.552c0,0.737,0,1.471,0,2.204
	c0,2.021,0,4.043,0,6.065c-0.551,0-1.102,0-1.653,0c-0.369,0-0.735,0-1.103,0c0-2.94,0-5.882,0-8.821c0.367,0,0.734,0,1.103,0
	C35.274,122.907,35.825,122.907,36.376,122.907z"/>
<path fill-rule="evenodd" clip-rule="evenodd" fill="#A2A2A2" d="M36.376,122.907c1.101,0,2.205,0,3.307,0c0,0.366,0,0.736,0,1.104
	c0,0.551,0,1.103,0,1.652c-1.103,0-2.206,0-3.307,0c0-0.733,0-1.467,0-2.204C36.376,123.273,36.376,123.093,36.376,122.907z"/>
<path fill-rule="evenodd" clip-rule="evenodd" fill="#222222" d="M69.997,122.907c0,0.366,0,0.736,0,1.104c0,0.551,0,1.103,0,1.652
	c-0.368,0-0.736,0-1.102,0c-0.552,0-1.104,0-1.653,0c0-0.367,0-0.733,0-1.102c0-0.551,0-1.103,0-1.654c0.549,0,1.102,0,1.653,0
	C69.261,122.907,69.629,122.907,69.997,122.907z"/>
<path fill-rule="evenodd" clip-rule="evenodd" fill="#222222" d="M79.365,122.907c1.104,0,2.206,0,3.308,0c0,0.366,0,0.736,0,1.104
	c0,0.551,0,1.103,0,1.652c0.368,0,0.734,0,1.103,0c0.552,0,1.102,0,1.653,0c0,0.551,0,1.104,0,1.656c0,0.549,0,1.102,0,1.651
	c1.104,0,2.207,0,3.31,0c0,0.551,0,1.104,0,1.652c0,0.368,0,0.737,0,1.105c0,0.55,0,1.098,0,1.653c0,0.548,0,1.1,0,1.65
	c0.552,0,1.101,0,1.652,0c0.368,0,0.734,0,1.102,0c0-1.103,0-2.206,0-3.304c1.103,0,2.205,0,3.307,0c0-0.368,0-0.737,0-1.105
	c0-0.549,0-1.102,0-1.652c0.186,0,0.369,0,0.553,0c0.734,0,1.469,0,2.203,0c0-1.103,0-2.204,0-3.308c1.104,0,2.206,0,3.308,0
	c0-0.55,0-1.102,0-1.652c0-0.367,0-0.737,0-1.104c0.552,0,1.102,0,1.653,0c0.551,0,1.102,0,1.653,0c0,0.366,0,0.736,0,1.104
	c0,0.551,0,1.103,0,1.652c0,1.104,0,2.205,0,3.308c-0.368,0-0.735,0-1.103,0c-0.734,0-1.469,0-2.204,0c0,0.369,0,0.735,0,1.104
	c0,0.549,0,1.103,0,1.654c-1.102,0-2.204,0-3.308,0c0,0.364,0,0.733,0,1.098c0,1.655,0,3.308,0,4.963c-0.367,0-0.734,0-1.102,0
	c-0.551,0-1.102,0-1.654,0c0,1.104,0,2.202,0,3.308c-0.366,0-0.735,0-1.102,0c-0.736,0-1.469,0-2.205,0c0,0.366,0,0.736,0,1.104
	c0,0.734,0,1.467,0,2.203c-0.367,0-0.733,0-1.102,0c-0.552,0-1.101,0-1.652,0c0-0.549,0-1.104,0-1.652c0-0.551,0-1.103,0-1.654
	c-1.103,0-2.206,0-3.31,0c0-0.368,0-0.737,0-1.105c0-0.365,0-0.731,0-1.098c0-0.554,0-1.104,0-1.656c0-0.735,0-1.473,0-2.205
	c-0.367,0-0.734,0-1.101,0c-0.552,0-1.103,0-1.654,0c0-0.365,0-0.733,0-1.103c0-0.548,0-1.104,0-1.651c0-0.369,0-0.734,0-1.102
	c0-0.737,0-1.471,0-2.206c-1.102,0-2.204,0-3.308,0c0-1.471,0-2.938,0-4.409C79.365,124.011,79.365,123.459,79.365,122.907z"/>
<path fill-rule="evenodd" clip-rule="evenodd" fill="#222222" d="M119.05,122.907c0.367,0,0.735,0,1.101,0c0.552,0,1.104,0,1.655,0
	c1.103,0,2.204,0,3.307,0c0,0.366,0,0.736,0,1.104c0,0.551,0,1.103,0,1.652c-0.368,0-0.734,0-1.103,0c-0.552,0-1.102,0-1.653,0
	c-1.102,0-2.206,0-3.307,0c0-0.367,0-0.733,0-1.102C119.05,124.011,119.05,123.459,119.05,122.907z"/>
<path fill-rule="evenodd" clip-rule="evenodd" fill="#A2A2A2" d="M125.113,122.907c1.101,0,2.207,0,3.307,0c0,0.366,0,0.736,0,1.104
	c0,0.551,0,1.103,0,1.652c-1.1,0-2.206,0-3.307,0c0-0.55,0-1.102,0-1.652C125.113,123.644,125.113,123.273,125.113,122.907z"/>
<path fill-rule="evenodd" clip-rule="evenodd" fill="#222222" d="M146.607,122.907c1.104,0,2.207,0,3.309,0c0,0.366,0,0.736,0,1.104
	c0,0.551,0,1.103,0,1.652c-1.102,0-2.204,0-3.309,0c0-0.367,0-0.733,0-1.102C146.607,124.011,146.607,123.459,146.607,122.907z"/>
<path fill-rule="evenodd" clip-rule="evenodd" fill="#222222" d="M67.242,125.663c0,1.104,0,2.205,0,3.308c-1.103,0-2.207,0-3.309,0
	c0-1.103,0-2.204,0-3.308C65.035,125.663,66.139,125.663,67.242,125.663z"/>
<path fill-rule="evenodd" clip-rule="evenodd" fill="#222222" d="M125.113,125.663c1.101,0,2.207,0,3.307,0c0,1.104,0,2.205,0,3.308
	c-1.1,0-2.206,0-3.307,0C125.113,127.868,125.113,126.767,125.113,125.663z"/>
<path fill-rule="evenodd" clip-rule="evenodd" fill="#A2A2A2" d="M128.419,125.663c1.102,0,2.205,0,3.309,0c0,1.104,0,2.205,0,3.308
	c-1.104,0-2.207,0-3.309,0C128.419,127.868,128.419,126.767,128.419,125.663z"/>
<path fill-rule="evenodd" clip-rule="evenodd" fill="#222222" d="M149.916,125.663c0.367,0,0.732,0,1.102,0c0.553,0,1.104,0,1.653,0
	c0,0.369,0,0.735,0,1.104c0,0.553,0,1.102,0,1.654c0,0.55,0,1.101,0,1.653c0,0.549,0,1.103,0,1.654c-0.367,0-0.733,0-1.101,0
	c-0.553,0-1.102,0-1.654,0c0-0.552,0-1.105,0-1.654c0-0.368,0-0.734,0-1.104C149.916,127.868,149.916,126.767,149.916,125.663z"/>
<path fill-rule="evenodd" clip-rule="evenodd" fill="#222222" d="M39.683,131.729c0-0.368,0-0.737,0-1.105c0-0.549,0-1.102,0-1.652
	c0.184,0,0.368,0,0.551,0c0.734,0,1.47,0,2.204,0c0,0.551,0,1.104,0,1.652c0,0.368,0,0.737,0,1.105c-0.368,0-0.734,0-1.103,0
	C40.785,131.729,40.234,131.729,39.683,131.729z"/>
<path fill-rule="evenodd" clip-rule="evenodd" fill="#A2A2A2" d="M57.872,128.971c0,0.369,0,0.735,0,1.104c0,0.549,0,1.103,0,1.654
	c-0.368,0-0.734,0-1.103,0c-0.552,0-1.103,0-1.653,0c0-0.368,0-0.737,0-1.105c0-0.549,0-1.102,0-1.652c0.184,0,0.368,0,0.551,0
	C56.401,128.971,57.137,128.971,57.872,128.971z"/>
<path fill-rule="evenodd" clip-rule="evenodd" fill="#222222" d="M57.872,128.971c0.367,0,0.735,0,1.102,0c0.551,0,1.103,0,1.654,0
	c1.104,0,2.205,0,3.306,0c0,0.369,0,0.735,0,1.104c0,0.549,0,1.103,0,1.654c-0.367,0-0.733,0-1.101,0c-0.552,0-1.102,0-1.654,0
	c-1.102,0-2.205,0-3.307,0c0-0.552,0-1.105,0-1.654C57.872,129.706,57.872,129.34,57.872,128.971z"/>
<path fill-rule="evenodd" clip-rule="evenodd" fill="#222222" d="M128.419,128.971c1.102,0,2.205,0,3.309,0c0.367,0,0.734,0,1.102,0
	c0.551,0,1.102,0,1.653,0c0,0.369,0,0.735,0,1.104c0,0.549,0,1.103,0,1.654c-0.368,0-0.735,0-1.103,0c-0.551,0-1.104,0-1.652,0
	c-1.104,0-2.207,0-3.309,0c0-0.368,0-0.737,0-1.105C128.419,130.074,128.419,129.521,128.419,128.971z"/>
<path fill-rule="evenodd" clip-rule="evenodd" fill="#222222" d="M143.852,131.729c-1.103,0-2.205,0-3.308,0
	c0-0.185,0-0.368,0-0.552c0-0.737,0-1.471,0-2.206c1.103,0,2.205,0,3.308,0c0,0.369,0,0.735,0,1.104
	C143.852,130.623,143.852,131.177,143.852,131.729z"/>
<path fill-rule="evenodd" clip-rule="evenodd" fill="#FFFFFF" d="M149.916,128.971c0,0.369,0,0.735,0,1.104c0,0.549,0,1.103,0,1.654
	c0.553,0,1.102,0,1.654,0c0.367,0,0.733,0,1.101,0c0,1.098,0,2.201,0,3.304c0,0.553,0,1.102,0,1.655c0,0.367,0,0.733,0,1.102
	c-0.367,0-0.733,0-1.101,0c-0.553,0-1.102,0-1.654,0c0-0.552,0-1.102,0-1.655c0-0.369,0-0.734,0-1.102c-1.102,0-2.204,0-3.309,0
	c0-1.103,0-2.206,0-3.304c0-0.368,0-0.737,0-1.105c0-0.549,0-1.102,0-1.652C147.711,128.971,148.814,128.971,149.916,128.971z"/>
<path fill-rule="evenodd" clip-rule="evenodd" fill="#222222" d="M33.621,131.729c0,0.364,0,0.733,0,1.098c0,0.737,0,1.473,0,2.206
	c0,0.732,0,1.47,0,2.205c0,0.184,0,0.369,0,0.552c0.551,0,1.103,0,1.653,0c0.368,0,0.734,0,1.102,0c0,2.202,0,4.411,0,6.614
	c-0.551,0-1.102,0-1.653,0c-0.369,0-0.735,0-1.103,0c0-1.104,0-2.203,0-3.307c-1.103,0-2.206,0-3.308,0c0-1.471,0-2.94,0-4.409
	c0-1.655,0-3.306,0-4.959C31.415,131.729,32.518,131.729,33.621,131.729z"/>
<path fill-rule="evenodd" clip-rule="evenodd" fill="#EDEDED" d="M33.621,131.729c0.367,0,0.734,0,1.103,0c0.551,0,1.102,0,1.653,0
	c0,1.098,0,2.201,0,3.304c0,0.553,0,1.102,0,1.655c0,0.367,0,0.733,0,1.102c-0.368,0-0.734,0-1.102,0c-0.551,0-1.102,0-1.653,0
	c0-0.183,0-0.368,0-0.552c0-0.735,0-1.473,0-2.205c0-0.733,0-1.469,0-2.206C33.621,132.462,33.621,132.093,33.621,131.729z"/>
<path fill-rule="evenodd" clip-rule="evenodd" fill="#222222" d="M36.376,131.729c1.101,0,2.205,0,3.307,0c0,2.019,0,4.036,0,6.061
	c-1.103,0-2.206,0-3.307,0c0-0.368,0-0.734,0-1.102c0-0.554,0-1.103,0-1.655C36.376,133.93,36.376,132.826,36.376,131.729z"/>
<path fill-rule="evenodd" clip-rule="evenodd" fill="#A2A2A2" d="M55.116,131.729c0,1.098,0,2.201,0,3.304c-1.103,0-2.206,0-3.307,0
	c0-1.103,0-2.206,0-3.304C52.91,131.729,54.013,131.729,55.116,131.729z"/>
<path fill-rule="evenodd" clip-rule="evenodd" fill="#222222" d="M55.116,131.729c0.551,0,1.101,0,1.653,0c0.368,0,0.734,0,1.103,0
	c0,1.098,0,2.201,0,3.304c-0.368,0-0.734,0-1.103,0c-0.552,0-1.103,0-1.653,0C55.116,133.93,55.116,132.826,55.116,131.729z"/>
<path fill-rule="evenodd" clip-rule="evenodd" fill="#222222" d="M134.483,131.729c1.103,0,2.205,0,3.308,0c0,1.098,0,2.201,0,3.304
	c-1.103,0-2.205,0-3.308,0C134.483,133.93,134.483,132.826,134.483,131.729z"/>
<path fill-rule="evenodd" clip-rule="evenodd" fill="#222222" d="M143.852,131.729c0.552,0,1.103,0,1.653,0c0.368,0,0.734,0,1.102,0
	c0,1.098,0,2.201,0,3.304c-0.367,0-0.733,0-1.102,0c-0.551,0-1.102,0-1.653,0C143.852,133.93,143.852,132.826,143.852,131.729z"/>
<path fill-rule="evenodd" clip-rule="evenodd" fill="#222222" d="M152.67,131.729c1.103,0,2.206,0,3.308,0c0,0.364,0,0.733,0,1.098
	c0,1.655,0,3.308,0,4.963c-1.102,0-2.205,0-3.308,0c0-0.368,0-0.734,0-1.102c0-0.554,0-1.103,0-1.655
	C152.67,133.93,152.67,132.826,152.67,131.729z"/>
<path fill-rule="evenodd" clip-rule="evenodd" fill="#FFFFFF" d="M45.746,137.789c-1.103,0-2.206,0-3.307,0c0-0.368,0-0.734,0-1.102
	c0-0.554,0-1.103,0-1.655c1.102,0,2.204,0,3.307,0c0,0.367,0,0.732,0,1.102C45.746,136.688,45.746,137.237,45.746,137.789z"/>
<path fill-rule="evenodd" clip-rule="evenodd" fill="#A2A2A2" d="M51.809,135.032c0,0.367,0,0.732,0,1.102c0,0.554,0,1.104,0,1.655
	c-0.367,0-0.734,0-1.102,0c-0.552,0-1.104,0-1.654,0c0-0.368,0-0.734,0-1.102c0-0.554,0-1.103,0-1.655c0.184,0,0.367,0,0.549,0
	C50.338,135.032,51.074,135.032,51.809,135.032z"/>
<path fill-rule="evenodd" clip-rule="evenodd" fill="#222222" d="M51.809,135.032c1.102,0,2.205,0,3.307,0c0,0.367,0,0.732,0,1.102
	c0,0.554,0,1.104,0,1.655c-1.103,0-2.206,0-3.307,0c0-0.552,0-1.102,0-1.655C51.809,135.765,51.809,135.399,51.809,135.032z"/>
<path fill-rule="evenodd" clip-rule="evenodd" fill="#222222" d="M137.791,135.032c0.366,0,0.733,0,1.102,0c0.551,0,1.102,0,1.652,0
	c0,0.186,0,0.367,0,0.553c0,0.736,0,1.47,0,2.204c-0.367,0-0.733,0-1.102,0c-0.551,0-1.102,0-1.652,0c0-0.368,0-0.734,0-1.102
	C137.791,136.134,137.791,135.585,137.791,135.032z"/>
<path fill-rule="evenodd" clip-rule="evenodd" fill="#222222" d="M146.607,135.032c1.104,0,2.207,0,3.309,0c0,0.367,0,0.732,0,1.102
	c0,0.554,0,1.104,0,1.655c-1.102,0-2.204,0-3.309,0c0-0.552,0-1.102,0-1.655C146.607,135.765,146.607,135.399,146.607,135.032z"/>
<path fill-rule="evenodd" clip-rule="evenodd" fill="#FFFFFF" d="M36.376,137.789c1.101,0,2.205,0,3.307,0c0.551,0,1.102,0,1.653,0
	c0.369,0,0.735,0,1.103,0c0,1.104,0,2.202,0,3.308c-0.551,0-1.103,0-1.654,0c-0.367,0-0.734,0-1.102,0c0,1.104,0,2.203,0,3.307
	c0,0.552,0,1.104,0,1.655c0,0.368,0,0.734,0,1.104c-1.103,0-2.206,0-3.307,0c0,1.099,0,2.203,0,3.3c-0.551,0-1.102,0-1.653,0
	c-0.551,0-1.103,0-1.655,0c-0.55,0-1.102,0-1.653,0c-0.366,0-0.734,0-1.102,0c0-1.097,0-2.201,0-3.3c1.102,0,2.205,0,3.308,0
	c0-0.557,0-1.104,0-1.656c0-0.367,0-0.736,0-1.104c0.367,0,0.734,0,1.103,0c0.551,0,1.102,0,1.653,0
	C36.376,142.2,36.376,139.991,36.376,137.789z"/>
<path fill-rule="evenodd" clip-rule="evenodd" fill="#EDEDED" d="M42.438,137.789c1.102,0,2.204,0,3.307,0c0,1.104,0,2.202,0,3.308
	c-1.103,0-2.206,0-3.307,0C42.438,139.991,42.438,138.894,42.438,137.789z"/>
<path fill-rule="evenodd" clip-rule="evenodd" fill="#A2A2A2" d="M45.746,137.789c1.102,0,2.206,0,3.308,0c0,1.104,0,2.202,0,3.308
	c-1.102,0-2.206,0-3.308,0C45.746,139.991,45.746,138.894,45.746,137.789z"/>
<path fill-rule="evenodd" clip-rule="evenodd" fill="#222222" d="M49.053,137.789c0.549,0,1.102,0,1.654,0c0.367,0,0.734,0,1.102,0
	c0,1.104,0,2.202,0,3.308c-0.367,0-0.734,0-1.102,0c-0.552,0-1.104,0-1.654,0C49.053,139.991,49.053,138.894,49.053,137.789z"/>
<path fill-rule="evenodd" clip-rule="evenodd" fill="#222222" d="M140.544,137.789c0.368,0,0.736,0,1.103,0c0.552,0,1.103,0,1.654,0
	c1.103,0,2.204,0,3.306,0c0,1.104,0,2.202,0,3.308c-0.367,0-0.733,0-1.102,0c-0.551,0-1.102,0-1.653,0c-1.103,0-2.205,0-3.308,0
	C140.544,139.991,140.544,138.894,140.544,137.789z"/>
<path fill-rule="evenodd" clip-rule="evenodd" fill="#EDEDED" d="M146.607,137.789c1.104,0,2.207,0,3.309,0c0,1.104,0,2.202,0,3.308
	c-1.102,0-2.204,0-3.309,0C146.607,139.991,146.607,138.894,146.607,137.789z"/>
<path fill-rule="evenodd" clip-rule="evenodd" fill="#222222" d="M149.916,137.789c0.553,0,1.102,0,1.654,0c0.367,0,0.733,0,1.101,0
	c0,2.202,0,4.411,0,6.614c1.103,0,2.206,0,3.308,0c0,0.367,0,0.736,0,1.104c0,0.552,0,1.1,0,1.656c-0.367,0-0.733,0-1.102,0
	c-0.553,0-1.104,0-1.654,0c-0.552,0-1.101,0-1.652,0c-0.553,0-1.102,0-1.654,0c0-0.37,0-0.736,0-1.104c0-0.552,0-1.104,0-1.655
	c-1.102,0-2.204,0-3.309,0c0-1.104,0-2.203,0-3.307c1.104,0,2.207,0,3.309,0C149.916,139.991,149.916,138.894,149.916,137.789z"/>
<path fill-rule="evenodd" clip-rule="evenodd" fill="#FFFFFF" d="M152.67,137.789c1.103,0,2.206,0,3.308,0c0,2.202,0,4.411,0,6.614
	c-1.102,0-2.205,0-3.308,0C152.67,142.2,152.67,139.991,152.67,137.789z"/>
<path fill-rule="evenodd" clip-rule="evenodd" fill="#222222" d="M155.978,137.789c1.102,0,2.205,0,3.308,0c0,2.202,0,4.411,0,6.614
	c-1.103,0-2.206,0-3.308,0C155.978,142.2,155.978,139.991,155.978,137.789z"/>
<path fill-rule="evenodd" clip-rule="evenodd" fill="#222222" d="M30.313,141.097c0,1.104,0,2.203,0,3.307c1.102,0,2.205,0,3.308,0
	c0,0.367,0,0.736,0,1.104c0,0.552,0,1.1,0,1.656c-1.103,0-2.206,0-3.308,0c0,1.099,0,2.203,0,3.3c-0.368,0-0.733,0-1.102,0
	c-0.551,0-1.102,0-1.654,0c0-1.466,0-2.938,0-4.404c0-1.655,0-3.308,0-4.962c0.369,0,0.735,0,1.103,0
	C29.211,141.097,29.762,141.097,30.313,141.097z"/>
<path fill-rule="evenodd" clip-rule="evenodd" fill="#EDEDED" d="M30.313,141.097c1.102,0,2.205,0,3.308,0c0,1.104,0,2.203,0,3.307
	c-1.103,0-2.206,0-3.308,0C30.313,143.3,30.313,142.2,30.313,141.097z"/>
<path fill-rule="evenodd" clip-rule="evenodd" fill="#A2A2A2" d="M42.438,141.097c0,1.104,0,2.203,0,3.307c-0.368,0-0.734,0-1.103,0
	c-0.551,0-1.102,0-1.653,0c0-1.104,0-2.203,0-3.307c0.368,0,0.734,0,1.102,0C41.336,141.097,41.887,141.097,42.438,141.097z"/>
<path fill-rule="evenodd" clip-rule="evenodd" fill="#222222" d="M42.438,141.097c1.102,0,2.204,0,3.307,0c1.102,0,2.206,0,3.308,0
	c0,1.104,0,2.203,0,3.307c-2.206,0-4.411,0-6.615,0C42.438,143.3,42.438,142.2,42.438,141.097z"/>
<path fill-rule="evenodd" clip-rule="evenodd" fill="#222222" d="M39.683,144.403c0.551,0,1.102,0,1.653,0c0.369,0,0.735,0,1.103,0
	c0,0.367,0,0.736,0,1.104c0,0.552,0,1.1,0,1.656c-0.368,0-0.734,0-1.103,0c-0.551,0-1.102,0-1.653,0c0-0.37,0-0.736,0-1.104
	C39.683,145.507,39.683,144.955,39.683,144.403z"/>
<path fill-rule="evenodd" clip-rule="evenodd" fill="#FFFFFF" d="M155.978,144.403c1.102,0,2.205,0,3.308,0c0,0.367,0,0.736,0,1.104
	c0,0.552,0,1.1,0,1.656c-1.103,0-2.206,0-3.308,0c0-0.557,0-1.104,0-1.656C155.978,145.14,155.978,144.771,155.978,144.403z"/>
<path fill-rule="evenodd" clip-rule="evenodd" fill="#222222" d="M159.286,144.403c0.366,0,0.733,0,1.102,0c0.552,0,1.103,0,1.653,0
	c0,0.367,0,0.736,0,1.104c0,0.552,0,1.1,0,1.656c0,1.099,0,2.203,0,3.3c-0.367,0-0.735,0-1.102,0c-1.653,0-3.308,0-4.961,0
	c0-1.097,0-2.201,0-3.3c1.102,0,2.205,0,3.308,0c0-0.557,0-1.104,0-1.656C159.286,145.14,159.286,144.771,159.286,144.403z"/>
<path fill-rule="evenodd" clip-rule="evenodd" fill="#222222" d="M39.683,147.163c0,1.099,0,2.203,0,3.3c-1.103,0-2.206,0-3.307,0
	c0-1.097,0-2.201,0-3.3C37.477,147.163,38.581,147.163,39.683,147.163z"/>
<path fill-rule="evenodd" clip-rule="evenodd" fill="#222222" d="M27.557,150.463c0,0.737,0,1.474,0,2.211c0,0.179,0,0.366,0,0.548
	c0.553,0,1.103,0,1.654,0c0.369,0,0.734,0,1.102,0c0,1.104,0,2.204,0,3.308c-0.368,0-0.733,0-1.102,0c-0.551,0-1.102,0-1.654,0
	c-1.1,0-2.206,0-3.307,0c0-0.37,0-0.736,0-1.104c0-1.654,0-3.309,0-4.963C25.351,150.463,26.457,150.463,27.557,150.463z"/>
<path fill-rule="evenodd" clip-rule="evenodd" fill="#FFFFFF" d="M27.557,150.463c0.553,0,1.103,0,1.654,0c0.369,0,0.734,0,1.102,0
	c0,0.37,0,0.737,0,1.107c0,0.547,0,1.104,0,1.651c-0.368,0-0.733,0-1.102,0c-0.551,0-1.102,0-1.654,0c0-0.182,0-0.369,0-0.548
	C27.557,151.937,27.557,151.2,27.557,150.463z"/>
<path fill-rule="evenodd" clip-rule="evenodd" fill="#222222" d="M30.313,150.463c0.368,0,0.736,0,1.102,0c0.552,0,1.103,0,1.653,0
	c0.552,0,1.104,0,1.655,0c0.551,0,1.102,0,1.653,0c0,0.37,0,0.737,0,1.107c0,0.547,0,1.104,0,1.651c-0.368,0-0.734,0-1.102,0
	c-0.551,0-1.102,0-1.653,0c-1.103,0-2.206,0-3.308,0c0-0.548,0-1.104,0-1.651C30.313,151.2,30.313,150.833,30.313,150.463z"/>
</svg>
