<?xml version="1.0" encoding="utf-8"?>
<!-- Generator: Adobe Illustrator 15.0.0, SVG Export Plug-In  -->
<!DOCTYPE svg PUBLIC "-//W3C//DTD SVG 1.1//EN" "http://www.w3.org/Graphics/SVG/1.1/DTD/svg11.dtd" [
	<!ENTITY ns_flows "http://ns.adobe.com/Flows/1.0/">
]>
<svg version="1.1"
	 xmlns="http://www.w3.org/2000/svg" xmlns:xlink="http://www.w3.org/1999/xlink" xmlns:a="http://ns.adobe.com/AdobeSVGViewerExtensions/3.0/"
	 x="0px" y="0px" width="200px" height="150px" viewBox="-5.5 -4.599 200 150" enable-background="new -5.5 -4.599 200 150"
	 xml:space="preserve">
<defs>
</defs>
<rect x="64.471" fill-rule="evenodd" clip-rule="evenodd" width="14.039" height="142.02"/>
<rect x="50.432" y="12.901" fill-rule="evenodd" clip-rule="evenodd" width="14.039" height="116.217"/>
<rect x="36.393" y="25.901" fill-rule="evenodd" clip-rule="evenodd" width="14.039" height="90.217"/>
<rect y="39.401" fill-rule="evenodd" clip-rule="evenodd" width="36.432" height="63.217"/>
<rect x="91.63" y="19.706" fill-rule="evenodd" clip-rule="evenodd" width="14.04" height="14.04"/>
<rect x="105.67" y="33.746" fill-rule="evenodd" clip-rule="evenodd" width="14.04" height="14.04"/>
<rect x="119.71" y="48.687" fill-rule="evenodd" clip-rule="evenodd" width="14.04" height="14.04"/>
<rect x="133.75" y="62.727" fill-rule="evenodd" clip-rule="evenodd" width="14.04" height="14.04"/>
<rect x="147.79" y="76.786" fill-rule="evenodd" clip-rule="evenodd" width="14.04" height="14.04"/>
<rect x="161.83" y="90.826" fill-rule="evenodd" clip-rule="evenodd" width="14.04" height="14.04"/>
<rect x="175.87" y="105.767" fill-rule="evenodd" clip-rule="evenodd" width="14.04" height="14.04"/>
<rect x="175.87" y="19.256" fill-rule="evenodd" clip-rule="evenodd" width="14.04" height="14.04"/>
<rect x="161.83" y="33.296" fill-rule="evenodd" clip-rule="evenodd" width="14.04" height="14.04"/>
<rect x="147.79" y="48.236" fill-rule="evenodd" clip-rule="evenodd" width="14.04" height="14.04"/>
<rect x="119.71" y="76.336" fill-rule="evenodd" clip-rule="evenodd" width="14.04" height="14.04"/>
<rect x="105.67" y="90.376" fill-rule="evenodd" clip-rule="evenodd" width="14.04" height="14.04"/>
<rect x="91.63" y="105.316" fill-rule="evenodd" clip-rule="evenodd" width="14.04" height="14.04"/>
<rect x="64.471" display="none" fill-rule="evenodd" clip-rule="evenodd" width="14.039" height="142.02"/>
<rect x="50.432" y="12.901" display="none" fill-rule="evenodd" clip-rule="evenodd" width="14.039" height="116.217"/>
<rect x="36.393" y="25.901" display="none" fill-rule="evenodd" clip-rule="evenodd" width="14.039" height="90.217"/>
<rect y="39.401" display="none" fill-rule="evenodd" clip-rule="evenodd" width="36.432" height="63.217"/>
<rect x="91.63" y="19.706" display="none" fill-rule="evenodd" clip-rule="evenodd" width="14.04" height="14.04"/>
<rect x="105.67" y="33.746" display="none" fill-rule="evenodd" clip-rule="evenodd" width="14.04" height="71.57"/>
<rect x="132.67" y="19.706" display="none" fill-rule="evenodd" clip-rule="evenodd" width="14.04" height="99.65"/>
<rect x="91.63" y="105.316" display="none" fill-rule="evenodd" clip-rule="evenodd" width="14.04" height="14.04"/>
<rect x="118.63" y="119.598" display="none" fill-rule="evenodd" clip-rule="evenodd" width="14.04" height="14.04"/>
<rect x="118.63" y="5.882" display="none" fill-rule="evenodd" clip-rule="evenodd" width="14.04" height="14.04"/>
</svg>
