<?xml version="1.0" encoding="utf-8"?>
<!-- Generator: Adobe Illustrator 15.0.0, SVG Export Plug-In  -->
<!DOCTYPE svg PUBLIC "-//W3C//DTD SVG 1.1//EN" "http://www.w3.org/Graphics/SVG/1.1/DTD/svg11.dtd" [
	<!ENTITY ns_flows "http://ns.adobe.com/Flows/1.0/">
]>
<svg version="1.1"
	 xmlns="http://www.w3.org/2000/svg" xmlns:xlink="http://www.w3.org/1999/xlink" xmlns:a="http://ns.adobe.com/AdobeSVGViewerExtensions/3.0/"
	 x="0px" y="0px" width="110px" height="70px" viewBox="-2.835 -12.253 110 70" enable-background="new -2.835 -12.253 110 70"
	 xml:space="preserve">
<defs>
</defs>
<path fill="#211F30" d="M48.194,3.471c0,0.431,0,0.875,0,1.305c-0.296,0-0.579,0-0.875,0c-0.431,0-0.875,0-1.305,0
	c0-0.296,0-0.579,0-0.875c0-0.431,0-0.861,0-1.292c0.148,0,0.296,0,0.43,0c0.592,0,1.171,0,1.75,0
	C48.194,2.893,48.194,3.188,48.194,3.471z"/>
<path fill="#211F30" d="M50.791,0c0,0.861,0,1.735,0,2.61c-0.861,0-1.736,0-2.597,0c0-0.875,0-1.749,0-2.61
	C49.055,0,49.93,0,50.791,0z"/>
<path fill="#280F0C" d="M94.208,50.804c0,0.282,0,0.579,0,0.86c0,0.445,0,0.875,0,1.306c-0.86,0-1.734,0-2.596,0
	c-0.444,0-0.875,0-1.306,0c-0.296,0-0.579,0-0.874,0c0-0.282,0-0.579,0-0.86c0-0.445,0-0.875,0-1.306c0.295,0,0.578,0,0.874,0
	c0.431,0,0.861,0,1.306,0C92.474,50.804,93.348,50.804,94.208,50.804z"/>
<path fill="#211F30" d="M103.761,46.889c0,0.43,0,0.875,0,1.305c-0.86,0-1.734,0-2.596,0c0-0.43,0-0.875,0-1.305
	c0-0.283,0-0.578,0-0.861c0.861,0,1.735,0,2.596,0C103.761,46.311,103.761,46.606,103.761,46.889z"/>
<path fill="#211F30" d="M24.313,21.715c0,0.861,0,1.736,0,2.597c-0.875,0-1.736,0-2.61,0c0-0.861,0-1.735,0-2.597
	C22.577,21.715,23.438,21.715,24.313,21.715z"/>
<path fill="#280F0C" d="M18.231,21.715c0.283,0,0.579,0,0.861,0c0,0.861,0,1.736,0,2.597c-0.282,0-0.578,0-0.861,0
	c-0.431,0-0.875,0-1.305,0c0-0.861,0-1.735,0-2.597C17.356,21.715,17.8,21.715,18.231,21.715z"/>
<path fill="#211F30" d="M16.926,19.536c0,0.431,0,0.875,0,1.305c0,0.296,0,0.579,0,0.875c0,0.861,0,1.736,0,2.597
	c-0.861,0-1.735,0-2.61,0c0-1.587,0-3.175,0-4.776C15.19,19.536,16.065,19.536,16.926,19.536z"/>
<path fill="#211F30" d="M2.597,50.804c0-0.874,0-1.735,0-2.61c0.431,0,0.875,0,1.305,0c0.296,0,0.579,0,0.861,0
	c0,0.875,0,1.736,0,2.61c-0.283,0-0.565,0-0.861,0C3.471,50.804,3.027,50.804,2.597,50.804z"/>
<path fill="#9B3421" d="M41.682,38.641c1.292,0,2.597,0,3.902,0c1.157,0,2.314,0,3.471,0c1.305,0,2.61,0,3.916,0
	c1.157,0,2.313,0,3.472,0c1.305,0,2.596,0,3.901,0c0,0.875,0,1.736,0,2.61c-0.431,0-0.861,0-1.306,0c-0.282,0-0.578,0-0.861,0
	c-0.578,0-1.156,0-1.734,0c-1.158,0-2.314,0-3.472,0c-0.444,0-0.875,0-1.305,0c-0.296,0-0.579,0-0.875,0c-0.579,0-1.157,0-1.736,0
	c-1.157,0-2.314,0-3.471,0c-0.431,0-0.875,0-1.305,0c-0.282,0-0.579,0-0.861,0c-0.579,0-1.157,0-1.736,0c-1.17,0-2.328,0-3.485,0
	c-2.314,0-4.628,0-6.942,0c0-0.874,0-1.735,0-2.61c2.314,0,4.628,0,6.942,0C39.354,38.641,40.512,38.641,41.682,38.641z"/>
<path fill="#9B1C1F" d="M29.95,29.088c0.431,0,0.875,0,1.305,0c0,0.148,0,0.297,0,0.431c0,0.579,0,1.157,0,1.749h-2.166
	c-1.601,0-3.189,0-4.776,0c0,0.431,0,0.861,0,1.292c0,1.157,0,2.313,0,3.472c0.282,0,0.579,0,0.861,0c1.305,0,2.61,0,3.916,0h2.166
	c0,0.443,0,0.874,0,1.305c0,0.43,0,0.875,0,1.305c-1.453,0-2.893,0-4.346,0c-0.135,0-0.283,0-0.431,0c0,0.875,0,1.736,0,2.61
	c-0.431,0-0.861,0-1.305,0c-0.282,0-0.579,0-0.861,0c0,0.431,0,0.86,0,1.306c0,0.281,0,0.578,0,0.86c-0.875,0-1.736,0-2.61,0
	c0,0.874,0,1.735,0,2.61c-0.861,0-1.735,0-2.61,0c0,0.861,0,1.736,0,2.597c0,0.444,0,0.874,0,1.306c0,0.295,0,0.578,0,0.874
	c-0.282,0-0.578,0-0.861,0c-0.431,0-0.875,0-1.305,0c0,0.431,0,0.86,0,1.306c0,0.281,0,0.578,0,0.86c-0.861,0-1.735,0-2.61,0
	c0-2.893,0-5.785,0-8.679c0-0.443,0-0.874,0-1.305c0-0.296,0-0.578,0-0.875c0-0.43,0-0.86,0-1.291c0-0.296,0-0.592,0-0.875
	c0-1.305,0-2.609,0-3.914c0.875,0,1.749,0,2.61,0c0-0.861,0-1.736,0-2.598c0-0.43,0-0.874,0-1.305c0-0.296,0-0.578,0-0.861
	c0.579,0,1.157,0,1.736,0c0.148,0,0.296,0,0.43,0c0-0.443,0-0.875,0-1.305c0-0.297,0-0.578,0-0.875c0.875,0,1.75,0,2.61,0
	c0-0.861,0-1.735,0-2.609c0.875,0,1.736,0,2.61,0c0-0.432,0-0.861,0-1.293c0-0.295,0-0.578,0-0.874c0.431,0,0.861,0,1.305,0
	c0.282,0,0.565,0,0.861,0c0-0.861,0-1.735,0-2.597c0-0.444,0-0.875,0-1.305c0-0.296,0-0.578,0-0.875c0.431,0,0.875,0,1.305,0
	c0.283,0,0.579,0,0.861,0c0.444,0,0.875,0,1.305,0s0.875,0,1.305,0v2.18c0,0.861,0,1.736,0,2.597c-0.296,0-0.579,0-0.875,0
	c-0.431,0-0.861,0-1.292,0c0,0.296,0,0.579,0,0.874c0,1.293,0,2.598,0,3.902C29.371,29.088,29.667,29.088,29.95,29.088z"/>
<path fill="#762014" d="M89.433,36.032c0,1.734,0,3.484,0,5.22c-0.861,0-1.736,0-2.598,0c0-1.735,0-3.485,0-5.22
	C87.696,36.032,88.571,36.032,89.433,36.032z"/>
<path fill="#211F30" d="M46.889,55.581c0.431,0,0.861,0,1.305,0c0-0.875,0-1.736,0-2.61c1.157,0,2.314,0,3.471,0
	c0.579,0,1.157,0,1.736,0c0.578,0,1.156,0,1.735,0c0.147,0,0.282,0,0.431,0c0,0.874,0,1.735,0,2.61c0.43,0,0.875,0,1.305,0
	c0.297,0,0.578,0,0.875,0c3.323,0,6.646,0,9.982,0c0-0.875,0-1.736,0-2.61c0-0.431,0-0.86,0-1.306c0-0.281,0-0.578,0-0.86
	c0.432,0,0.861,0,1.306,0c0.282,0,0.579,0,0.861,0c0,1.306,0,2.597,0,3.901c0,0.297,0,0.579,0,0.875c0.431,0,0.874,0,1.305,0
	s0.861,0,1.306,0c0-0.875,0-1.736,0-2.61c0-0.727,0-1.453,0-2.166c0.43,0,0.861,0,1.305,0c0.283,0,0.578,0,0.861,0
	c0,0.713,0,1.439,0,2.166c0,0.431,0,0.874,0,1.306c0,0.43,0,0.861,0,1.305c4.924,0,9.849,0,14.76,0c0,0.283,0,0.578,0,0.861
	c0,0.43,0,0.874,0,1.305c-3.041,0-6.068,0-9.109,0c-1.601,0-3.188,0-4.775,0c-0.297,0-0.579,0-0.875,0c-0.431,0-0.861,0-1.305,0
	c-0.861,0-1.736,0-2.598,0c-3.041,0-6.081,0-9.122,0c-1.587,0-3.188,0-4.776,0c-0.282,0-0.578,0-0.875,0c-0.43,0-0.86,0-1.291,0
	c-0.875,0-1.735,0-2.61,0c-6.229,0-12.446,0-18.675,0c-1.587,0-3.175,0-4.776,0c-0.282,0-0.578,0-0.861,0c-0.431,0-0.875,0-1.305,0
	c-0.861,0-1.735,0-2.61,0c-3.175,0-6.364,0-9.552,0c0-0.578,0-1.157,0-1.735c0-0.147,0-0.296,0-0.431c0.875,0,1.749,0,2.61,0
	c0-0.875,0-1.736,0-2.61c0-0.282,0-0.579,0-0.86c0-0.445,0-0.875,0-1.306c0.431,0,0.875,0,1.305,0c0.283,0,0.579,0,0.861,0
	c0,1.587,0,3.175,0,4.776c0.296,0,0.579,0,0.875,0c0.578,0,1.157,0,1.735,0c0-1.602,0-3.189,0-4.776c0.875,0,1.736,0,2.61,0
	c0,1.587,0,3.175,0,4.776c0.282,0,0.579,0,0.861,0c1.305,0,2.61,0,3.916,0c0.43,0,0.861,0,1.292,0c0.296,0,0.579,0,0.875,0
	c0.875,0,1.736,0,2.61,0c0-0.875,0-1.736,0-2.61c2.314,0,4.628,0,6.942,0c0,0.874,0,1.735,0,2.61c0.875,0,1.736,0,2.61,0
	c0.861,0,1.735,0,2.597,0C46.311,55.581,46.593,55.581,46.889,55.581z"/>
<path fill="#48475B" d="M46.889,14.329c0.431,0,0.861,0,1.305,0c0.861,0,1.735,0,2.597,0c0,0.861,0,1.735,0,2.61
	c-0.861,0-1.736,0-2.597,0c-0.444,0-0.875,0-1.305,0c-0.296,0-0.579,0-0.875,0c0-0.875,0-1.749,0-2.61
	C46.311,14.329,46.593,14.329,46.889,14.329z"/>
<path fill="#9B3421" d="M21.702,50.804c0,1.587,0,3.175,0,4.776c-0.579,0-1.157,0-1.735,0c-0.296,0-0.579,0-0.875,0
	c0-1.602,0-3.189,0-4.776C19.967,50.804,20.841,50.804,21.702,50.804z"/>
<path fill="#D8E1E4" d="M19.092,19.536c0,0.431,0,0.875,0,1.305c0,0.296,0,0.579,0,0.875c-0.282,0-0.578,0-0.861,0
	c-0.431,0-0.875,0-1.305,0c0-0.296,0-0.579,0-0.875c0-0.431,0-0.875,0-1.305c0.296,0,0.579,0,0.875,0
	C18.231,19.536,18.662,19.536,19.092,19.536z"/>
<path fill="#9B3421" d="M24.313,49.93c0,0.295,0,0.578,0,0.874c-0.875,0-1.736,0-2.61,0c0-0.579,0-1.157,0-1.735
	c0-0.297,0-0.579,0-0.875c0-0.43,0-0.875,0-1.305c0-0.283,0-0.578,0-0.861c0.875,0,1.736,0,2.61,0c0,0.861,0,1.736,0,2.597
	C24.313,49.069,24.313,49.499,24.313,49.93z"/>
<path fill="#211F30" d="M89.433,20.41c0,0.431,0,0.861,0,1.305c0,0.861,0,1.736,0,2.597c-0.861,0-1.736,0-2.598,0
	c0-0.861,0-1.735,0-2.597c0-0.296,0-0.579,0-0.875c0-0.431,0-0.875,0-1.305c0.861,0,1.736,0,2.598,0
	C89.433,19.832,89.433,20.114,89.433,20.41z"/>
<path fill="#211F30" d="M46.015,14.329c0,0.861,0,1.735,0,2.61c-0.861,0-1.736,0-2.597,0c0-0.875,0-1.749,0-2.61
	C44.279,14.329,45.153,14.329,46.015,14.329z"/>
<path fill="#63677A" d="M67.729,52.97c0,0.874,0,1.735,0,2.61c-3.336,0-6.659,0-9.982,0c0-0.875,0-1.736,0-2.61
	c0-2.313,0-4.628,0-6.942c0.861,0,1.735,0,2.597,0c0,0.431,0,0.861,0,1.291c0,0.297,0,0.593,0,0.875c0.431,0,0.874,0,1.305,0
	s0.875,0,1.306,0c0.43,0,0.861,0,1.305,0c0.283,0,0.578,0,0.861,0c0,0.875,0,1.736,0,2.61c0,0.579,0,1.157,0,1.735
	c0,0.148,0,0.283,0,0.431C65.995,52.97,66.855,52.97,67.729,52.97z"/>
<path fill="#48475B" d="M46.015,46.028c-0.861,0-1.736,0-2.597,0c-4.063,0-8.113,0-12.163,0c0-0.875,0-1.736,0-2.61
	c2.314,0,4.628,0,6.942,0c1.157,0,2.314,0,3.485,0c1.292,0,2.597,0,3.902,0c1.157,0,2.314,0,3.471,0c1.305,0,2.61,0,3.916,0
	c1.157,0,2.313,0,3.472,0c1.305,0,2.596,0,3.901,0c0,0.874,0,1.735,0,2.61c-0.861,0-1.735,0-2.597,0c-2.031,0-4.063,0-6.082,0
	c-0.579,0-1.157,0-1.736,0c-0.444,0-0.875,0-1.305,0c-0.43,0-0.875,0-1.305,0C46.889,46.028,46.445,46.028,46.015,46.028z"/>
<path fill="#D8E1E4" d="M16.926,14.329c0,1.735,0,3.471,0,5.207c-0.861,0-1.735,0-2.61,0c0-1.735,0-3.471,0-5.207
	C15.19,14.329,16.065,14.329,16.926,14.329z"/>
<path fill="#211F30" d="M45.584,38.641c-1.305,0-2.61,0-3.902,0c-1.17,0-2.328,0-3.485,0c-2.314,0-4.628,0-6.942,0
	c0-0.43,0-0.875,0-1.305c0-0.431,0-0.861,0-1.305c0.148,0,0.296,0,0.431,0c0.579,0,1.157,0,1.735,0c0.579,0,1.157,0,1.736,0
	c1.17,0,2.328,0,3.485,0c1.157,0,2.314,0,3.471,0c1.305,0,2.597,0,3.902,0c2.314,0,4.628,0,6.956,0c1.157,0,2.313,0,3.472,0
	c1.305,0,2.596,0,3.901,0c0,0.874,0,1.734,0,2.609c-1.306,0-2.597,0-3.901,0c-1.158,0-2.314,0-3.472,0c-1.305,0-2.61,0-3.916,0
	C47.898,38.641,46.741,38.641,45.584,38.641z"/>
<path fill="#280F0C" d="M86.835,21.715c0,0.861,0,1.736,0,2.597c-0.874,0-1.734,0-2.609,0c0-0.861,0-1.735,0-2.597
	C85.101,21.715,85.961,21.715,86.835,21.715z"/>
<path fill="#FFFFFF" d="M12.149,41.251c0,2.313,0,4.628,0,6.942c-1.305,0-2.61,0-3.902,0c-1.157,0-2.314,0-3.484,0
	c0-0.43,0-0.875,0-1.305c0-0.283,0-0.578,0-0.861c0-0.875,0-1.736,0-2.61c0.727,0,1.453,0,2.179,0c0.861,0,1.736,0,2.597,0
	c0-0.282,0-0.579,0-0.86c0-0.445,0-0.875,0-1.306C10.414,41.251,11.289,41.251,12.149,41.251z"/>
<path fill="#FFFFFF" d="M24.313,19.536c0,0.431,0,0.875,0,1.305c0,0.296,0,0.579,0,0.875c-0.875,0-1.736,0-2.61,0
	c-0.861,0-1.735,0-2.61,0c0-0.296,0-0.579,0-0.875c0-0.431,0-0.875,0-1.305c-0.43,0-0.861,0-1.292,0c-0.296,0-0.579,0-0.875,0
	c0-1.735,0-3.471,0-5.207c0.431,0,0.875,0,1.305,0c0.283,0,0.579,0,0.861,0c0,0.861,0,1.735,0,2.61c1.75,0,3.485,0,5.221,0
	C24.313,17.8,24.313,18.675,24.313,19.536z"/>
<path fill="#211F30" d="M27.353,41.251c-0.296,0-0.579,0-0.875,0c0-0.874,0-1.735,0-2.61c0.148,0,0.296,0,0.431,0
	c1.453,0,2.893,0,4.346,0c0,0.875,0,1.736,0,2.61c-0.875,0-1.736,0-2.61,0C28.214,41.251,27.784,41.251,27.353,41.251z"/>
<path fill="#211F30" d="M12.149,12.163c2.314,0,4.628,0,6.942,0c0,0.283,0,0.579,0,0.861c0,0.431,0,0.875,0,1.305
	c-0.282,0-0.578,0-0.861,0c-0.431,0-0.875,0-1.305,0c-0.861,0-1.735,0-2.61,0c0,1.735,0,3.471,0,5.207c-0.283,0-0.579,0-0.861,0
	c-0.431,0-0.875,0-1.305,0C12.149,17.074,12.149,14.611,12.149,12.163z"/>
<path fill="#211F30" d="M96.819,43.417c-0.875,0-1.736,0-2.611,0c0-0.282,0-0.579,0-0.86c0-0.445,0-0.875,0-1.306
	c0.297,0,0.579,0,0.875,0c0.431,0,0.861,0,1.305,0c0.861,0,1.736,0,2.598,0c0,0.282,0,0.579,0,0.86c0,0.445,0,0.875,0,1.306
	c-0.283,0-0.579,0-0.861,0C97.68,43.417,97.249,43.417,96.819,43.417z"/>
<path fill="#D8E1E4" d="M48.194,3.471c0-0.283,0-0.579,0-0.861c0.861,0,1.735,0,2.597,0c0,0.283,0,0.579,0,0.861
	c0,0.431,0,0.875,0,1.305c-0.861,0-1.736,0-2.597,0C48.194,4.346,48.194,3.902,48.194,3.471z"/>
<path fill="#280F0C" d="M43.418,25.186c0,0.432,0,0.861,0,1.293c-0.875,0-1.736,0-2.61,0c0-0.283,0-0.579,0-0.861
	c0-0.432,0-0.875,0-1.306c0.875,0,1.736,0,2.61,0C43.418,24.608,43.418,24.891,43.418,25.186z"/>
<path fill="#211F30" d="M60.344,46.028c0-0.875,0-1.736,0-2.61c0.296,0,0.579,0,0.874,0c0.431,0,0.861,0,1.306,0
	c0.86,0,1.735,0,2.597,0c0,0.874,0,1.735,0,2.61c-0.861,0-1.736,0-2.597,0c-0.444,0-0.875,0-1.306,0
	C60.923,46.028,60.64,46.028,60.344,46.028z"/>
<path fill="#280F0C" d="M55.567,13.455c0,0.296,0,0.579,0,0.875c-0.861,0-1.736,0-2.597,0c0-0.296,0-0.579,0-0.875
	c0-0.431,0-0.861,0-1.292c0-0.875,0-1.749,0-2.61c0.86,0,1.735,0,2.597,0c0,0.861,0,1.735,0,2.61
	C55.567,12.593,55.567,13.024,55.567,13.455z"/>
<path fill="#211F30" d="M95.514,52.97c-0.431,0-0.86,0-1.306,0c0-0.431,0-0.86,0-1.306c0-0.281,0-0.578,0-0.86
	c0.297,0,0.579,0,0.875,0c0.431,0,0.861,0,1.305,0c0.861,0,1.736,0,2.598,0c0,0.282,0,0.579,0,0.86c0,0.445,0,0.875,0,1.306
	c-0.432,0-0.861,0-1.306,0c-0.431,0-0.86,0-1.292,0C96.093,52.97,95.81,52.97,95.514,52.97z"/>
<path fill="#211F30" d="M43.418,46.028c0,2.314,0,4.629,0,6.942c-0.875,0-1.736,0-2.61,0c0-1.306,0-2.61,0-3.901
	c0-0.297,0-0.579,0-0.875c-2.314,0-4.628,0-6.942,0c0,0.875,0,1.736,0,2.61c0,0.713,0,1.439,0,2.166c-0.875,0-1.736,0-2.61,0
	c0-0.431,0-0.86,0-1.306c0-0.281,0-0.578,0-0.86c0-0.296,0-0.579,0-0.874c0-0.432,0-0.861,0-1.306c0-0.86,0-1.735,0-2.597
	C35.305,46.028,39.354,46.028,43.418,46.028z"/>
<path fill="#280F0C" d="M12.149,51.665c0,0.445,0,0.875,0,1.306c-0.861,0-1.735,0-2.61,0c0-0.431,0-0.86,0-1.306
	c0-0.281,0-0.578,0-0.86c0.875,0,1.749,0,2.61,0C12.149,51.086,12.149,51.383,12.149,51.665z"/>
<path fill="#211F30" d="M99.859,43.417c0.431,0,0.861,0,1.306,0c0,0.874,0,1.735,0,2.61c-0.297,0-0.579,0-0.875,0
	c-0.431,0-0.861,0-1.305,0c0-0.875,0-1.736,0-2.61C99.28,43.417,99.563,43.417,99.859,43.417z"/>
<path fill="#48475B" d="M62.523,46.028c0.86,0,1.735,0,2.597,0c0,0.283,0,0.578,0,0.861c0,0.43,0,0.875,0,1.305
	c-0.283,0-0.578,0-0.861,0c-0.443,0-0.875,0-1.305,0c-0.431,0-0.875,0-1.306,0s-0.874,0-1.305,0c0-0.282,0-0.578,0-0.875
	c0-0.43,0-0.86,0-1.291c0.296,0,0.579,0,0.874,0C61.648,46.028,62.079,46.028,62.523,46.028z"/>
<path fill="#FFFFFF" d="M94.208,41.251c0,0.431,0,0.86,0,1.306c0,0.281,0,0.578,0,0.86c0.875,0,1.736,0,2.611,0
	c0.43,0,0.86,0,1.305,0c0.282,0,0.578,0,0.861,0c0,0.874,0,1.735,0,2.61c0,0.431,0,0.861,0,1.291c0,0.297,0,0.593,0,0.875
	c-0.432,0-0.861,0-1.306,0c-0.431,0-0.86,0-1.292,0c-0.443,0-0.874,0-1.305,0c-0.296,0-0.578,0-0.875,0c-0.43,0-0.86,0-1.291,0
	c-0.443,0-0.875,0-1.305,0c-0.444,0-0.875,0-1.306,0c-0.296,0-0.579,0-0.874,0c0-0.43,0-0.875,0-1.305c0-0.431,0-0.861,0-1.305
	c0-0.432,0-0.861,0-1.293c0-0.295,0-0.592,0-0.874c0-0.431,0-0.86,0-1.306c0-0.281,0-0.578,0-0.86c0.295,0,0.578,0,0.874,0
	c0.431,0,0.861,0,1.306,0C92.474,41.251,93.348,41.251,94.208,41.251z"/>
<path fill="#48475B" d="M33.865,52.97c0,0.874,0,1.735,0,2.61c-0.875,0-1.736,0-2.61,0c0-0.875,0-1.736,0-2.61
	C32.129,52.97,32.991,52.97,33.865,52.97z"/>
<path fill="#211F30" d="M12.149,52.97c0-0.431,0-0.86,0-1.306c0-0.281,0-0.578,0-0.86c0-0.874,0-1.735,0-2.61
	c0-2.314,0-4.629,0-6.942c-0.861,0-1.735,0-2.61,0c0-0.874,0-1.735,0-2.61c0.444,0,0.875,0,1.305,0c0.444,0,0.875,0,1.305,0
	c0-0.875,0-1.735,0-2.609c0.296,0,0.579,0,0.875,0c0.431,0,0.861,0,1.292,0c0,1.305,0,2.609,0,3.914c0,0.283,0,0.579,0,0.875
	c0,0.431,0,0.861,0,1.291c0,0.297,0,0.579,0,0.875c0,0.431,0,0.861,0,1.305c0,2.894,0,5.786,0,8.679c0,0.874,0,1.735,0,2.61
	c-1.588,0-3.175,0-4.776,0c0-0.875,0-1.736,0-2.61C10.414,52.97,11.289,52.97,12.149,52.97z"/>
<path fill="#D8E1E4" d="M2.597,47.319c0-0.43,0-0.86,0-1.291c0.431,0,0.875,0,1.305,0c0.296,0,0.579,0,0.861,0
	c0,0.283,0,0.578,0,0.861c0,0.43,0,0.875,0,1.305c-0.283,0-0.565,0-0.861,0c-0.431,0-0.875,0-1.305,0
	C2.597,47.912,2.597,47.616,2.597,47.319z"/>
<path fill="#211F30" d="M55.567,4.776c0,0.431,0,0.861,0,1.305c0,0.43,0,0.861,0,1.305c0,0.283,0,0.579,0,0.861
	c0,0.431,0,0.875,0,1.305c-0.861,0-1.736,0-2.597,0c0-0.296,0-0.579,0-0.875c0-0.431,0-0.861,0-1.292c0-0.875,0-1.749,0-2.61
	C53.831,4.776,54.706,4.776,55.567,4.776z"/>
<path fill="#211F30" d="M47.32,46.028c0.43,0,0.875,0,1.305,0c0.431,0,0.861,0,1.305,0c0.579,0,1.157,0,1.736,0
	c2.018,0,4.05,0,6.082,0c0,2.314,0,4.629,0,6.942c-0.297,0-0.578,0-0.875,0c-0.43,0-0.875,0-1.305,0c0-1.306,0-2.61,0-3.901
	c0-0.297,0-0.579,0-0.875c-1.157,0-2.314,0-3.471,0c-0.579,0-1.157,0-1.736,0c-0.296,0-0.579,0-0.875,0c-0.431,0-0.861,0-1.292,0
	c0,0.875,0,1.736,0,2.61c0,0.713,0,1.439,0,2.166c-0.296,0-0.579,0-0.875,0c-0.431,0-0.875,0-1.305,0c0-2.313,0-4.628,0-6.942
	C46.445,46.028,46.889,46.028,47.32,46.028z"/>
<path fill="#280F0C" d="M38.642,24.312c0,1.588,0,3.188,0,4.776c-0.875,0-1.736,0-2.61,0c0,0.431,0,0.875,0,1.305
	c0,0.283,0,0.579,0,0.875c-1.305,0-2.61,0-3.902,0c-0.296,0-0.579,0-0.875,0c0-0.592,0-1.17,0-1.749c0-0.134,0-0.282,0-0.431
	c-0.431,0-0.875,0-1.305,0c-0.282,0-0.579,0-0.861,0c0-1.305,0-2.609,0-3.902c0-0.295,0-0.578,0-0.874c0.43,0,0.861,0,1.292,0
	c0.296,0,0.579,0,0.875,0c0-0.861,0-1.735,0-2.597c1.305,0,2.61,0,3.902,0c0.296,0,0.579,0,0.875,0c0,0.861,0,1.736,0,2.597
	C36.906,24.312,37.767,24.312,38.642,24.312z"/>
<path fill="#211F30" d="M77.282,20.41c0,0.431,0,0.861,0,1.305c-0.874,0-1.734,0-2.609,0c0-0.296,0-0.579,0-0.875
	c0-0.431,0-0.875,0-1.305c-0.283,0-0.578,0-0.861,0c-0.443,0-0.875,0-1.305,0c0-0.861,0-1.735,0-2.597c2.314,0,4.628,0,6.942,0
	c0,0.861,0,1.736,0,2.597c-0.282,0-0.579,0-0.861,0c-0.444,0-0.874,0-1.306,0C77.282,19.832,77.282,20.114,77.282,20.41z"/>
<path fill="#762014" d="M77.282,25.186c0,0.432,0,0.861,0,1.293c-0.874,0-1.734,0-2.609,0c0-0.135,0-0.283,0-0.432
	c0-0.578,0-1.156,0-1.735c0.875,0,1.735,0,2.609,0C77.282,24.608,77.282,24.891,77.282,25.186z"/>
<path fill="#211F30" d="M67.729,46.028c0-0.875,0-1.736,0-2.61c0.432,0,0.861,0,1.306,0c0.282,0,0.579,0,0.861,0
	c0,0.874,0,1.735,0,2.61c-0.282,0-0.579,0-0.861,0C68.591,46.028,68.161,46.028,67.729,46.028z"/>
<path fill="#211F30" d="M28.645,19.536c-0.282,0-0.578,0-0.861,0c-0.431,0-0.875,0-1.305,0c0,0.296,0,0.579,0,0.875
	c0,0.431,0,0.861,0,1.305c-0.431,0-0.861,0-1.305,0c-0.282,0-0.579,0-0.861,0c0-0.296,0-0.579,0-0.875c0-0.431,0-0.875,0-1.305
	c0-0.861,0-1.735,0-2.597c2.314,0,4.628,0,6.942,0c0,0.861,0,1.736,0,2.597c-0.431,0-0.875,0-1.305,0S29.089,19.536,28.645,19.536z"
	/>
<path fill="#762014" d="M24.313,24.312c0,0.296,0,0.579,0,0.874c0,0.432,0,0.861,0,1.293c-0.875,0-1.736,0-2.61,0
	c0-0.579,0-1.145,0-1.736c0-0.135,0-0.282,0-0.431C22.577,24.312,23.438,24.312,24.313,24.312z"/>
<path fill="#211F30" d="M90.307,52.97c0.431,0,0.861,0,1.306,0c0.861,0,1.735,0,2.596,0c0,0.874,0,1.735,0,2.61
	c-0.43,0-0.86,0-1.291,0c-0.443,0-0.875,0-1.305,0c-0.297,0-0.579,0-0.875,0c-0.431,0-0.861,0-1.305,0c0-0.875,0-1.736,0-2.61
	C89.728,52.97,90.011,52.97,90.307,52.97z"/>
<path fill="#9B3421" d="M67.729,43.417c0,0.874,0,1.735,0,2.61c-0.874,0-1.734,0-2.609,0c0-0.875,0-1.736,0-2.61
	C65.995,43.417,66.855,43.417,67.729,43.417z"/>
<path fill="#762014" d="M56.442,14.329c0.43,0,0.86,0,1.305,0c0,0.861,0,1.735,0,2.61c-0.297,0-0.578,0-0.875,0
	c-0.43,0-0.875,0-1.305,0c0-0.875,0-1.749,0-2.61C55.863,14.329,56.146,14.329,56.442,14.329z"/>
<path fill="#48475B" d="M77.282,21.715c0,0.861,0,1.736,0,2.597c-0.874,0-1.734,0-2.609,0c0-0.861,0-1.735,0-2.597
	C75.548,21.715,76.408,21.715,77.282,21.715z"/>
<path fill="#762014" d="M77.282,29.088c0-0.861,0-1.735,0-2.609c0.432,0,0.861,0,1.306,0c0.282,0,0.579,0,0.861,0
	c0,0.874,0,1.748,0,2.609c-0.282,0-0.579,0-0.861,0C78.144,29.088,77.714,29.088,77.282,29.088z"/>
<path fill="#762014" d="M25.173,21.715c0.444,0,0.875,0,1.305,0c0,0.861,0,1.736,0,2.597c-0.296,0-0.579,0-0.861,0
	c-0.444,0-0.875,0-1.305,0c0-0.861,0-1.735,0-2.597C24.595,21.715,24.891,21.715,25.173,21.715z"/>
<path fill="#211F30" d="M51.666,14.329c0.431,0,0.861,0,1.305,0c0.86,0,1.735,0,2.597,0c0,0.861,0,1.735,0,2.61
	c-0.861,0-1.736,0-2.597,0c-0.444,0-0.875,0-1.305,0c-0.296,0-0.579,0-0.875,0c0-0.875,0-1.749,0-2.61
	C51.087,14.329,51.37,14.329,51.666,14.329z"/>
<path fill="#762014" d="M81.615,29.088c0.874,0,1.749,0,2.61,0c0,0.297,0,0.578,0,0.875c0,0.43,0,0.861,0,1.305
	c-1.588,0-3.189,0-4.776,0c0-0.296,0-0.592,0-0.875c0-0.43,0-0.874,0-1.305c0.296,0,0.578,0,0.874,0
	C80.754,29.088,81.185,29.088,81.615,29.088z"/>
<path fill="#762014" d="M72.507,43.417c0,0.874,0,1.735,0,2.61c-0.875,0-1.736,0-2.61,0c0-0.875,0-1.736,0-2.61
	C70.771,43.417,71.632,43.417,72.507,43.417z"/>
<path fill="#D8E1E4" d="M46.889,12.163c1.305,0,2.597,0,3.902,0c0-2.462,0-4.924,0-7.386c0.444,0,0.875,0,1.305,0
	c0.296,0,0.578,0,0.875,0c0,0.861,0,1.735,0,2.61c0,0.431,0,0.861,0,1.292c0,0.296,0,0.579,0,0.875c0,0.861,0,1.735,0,2.61
	c0,0.431,0,0.861,0,1.292c0,0.296,0,0.579,0,0.875c-0.444,0-0.875,0-1.305,0c-0.296,0-0.579,0-0.875,0c-0.861,0-1.736,0-2.597,0
	c-0.444,0-0.875,0-1.305,0c-0.296,0-0.579,0-0.875,0c-0.861,0-1.736,0-2.597,0c0-0.296,0-0.579,0-0.875c0-0.431,0-0.861,0-1.292
	C44.575,12.163,45.732,12.163,46.889,12.163z"/>
<path fill="#211F30" d="M84.226,14.329c0,0.861,0,1.735,0,2.61c-0.861,0-1.736,0-2.61,0c-0.431,0-0.861,0-1.292,0
	c-0.296,0-0.578,0-0.874,0c0-0.875,0-1.749,0-2.61c0.431,0,0.874,0,1.305,0s0.861,0,1.306,0c0.282,0,0.578,0,0.861,0
	C83.364,14.329,83.795,14.329,84.226,14.329z"/>
<path fill="#211F30" d="M38.642,14.329c0,0.861,0,1.735,0,2.61c-1.305,0-2.61,0-3.916,0c-1.157,0-2.314,0-3.471,0
	c0-0.875,0-1.749,0-2.61c0.148,0,0.296,0,0.431,0c1.157,0,2.314,0,3.471,0C36.327,14.329,37.484,14.329,38.642,14.329z"/>
<path fill="#D8E1E4" d="M100.29,48.194c-0.431,0-0.861,0-1.305,0c0-0.282,0-0.578,0-0.875c0-0.43,0-0.86,0-1.291
	c0.443,0,0.874,0,1.305,0c0.296,0,0.578,0,0.875,0c0,0.283,0,0.578,0,0.861c0,0.43,0,0.875,0,1.305
	C100.868,48.194,100.586,48.194,100.29,48.194z"/>
<path fill="#FFFFFF" d="M77.282,20.41c0-0.296,0-0.578,0-0.875c0.432,0,0.861,0,1.306,0c0.282,0,0.579,0,0.861,0
	c0-0.861,0-1.735,0-2.597c0.296,0,0.578,0,0.874,0c0.431,0,0.861,0,1.292,0c0.874,0,1.749,0,2.61,0c0-0.875,0-1.749,0-2.61
	c0.875,0,1.735,0,2.609,0c0,1.735,0,3.471,0,5.207c-0.874,0-1.734,0-2.609,0c0,0.431,0,0.875,0,1.305c0,0.296,0,0.579,0,0.875
	c-0.431,0-0.861,0-1.305,0c-0.283,0-0.579,0-0.861,0c0,0.861,0,1.736,0,2.597c-0.875,0-1.736,0-2.61,0c-0.431,0-0.861,0-1.306,0
	c-0.282,0-0.578,0-0.861,0c0-0.861,0-1.735,0-2.597C77.282,21.271,77.282,20.841,77.282,20.41z"/>
<path fill="#280F0C" d="M78.144,48.194c-0.282,0-0.578,0-0.861,0c0-0.578,0-1.156,0-1.735s0-1.157,0-1.735c0-0.432,0-0.875,0-1.306
	c1.306,0,2.598,0,3.902,0c0.296,0,0.578,0,0.875,0c0,1.306,0,2.61,0,3.901c0,0.297,0,0.593,0,0.875
	C80.754,48.194,79.449,48.194,78.144,48.194z"/>
<path fill="#211F30" d="M89.433,36.032c0.295,0,0.578,0,0.874,0c0.431,0,0.861,0,1.306,0c0,0.443,0,0.874,0,1.305
	c0,0.43,0,0.875,0,1.305c0.861,0,1.735,0,2.596,0c0,0.875,0,1.736,0,2.61c-0.86,0-1.734,0-2.596,0c-0.444,0-0.875,0-1.306,0
	c-0.296,0-0.579,0-0.874,0C89.433,39.516,89.433,37.766,89.433,36.032z"/>
<path fill="#D8E1E4" d="M86.835,19.536c0,0.431,0,0.875,0,1.305c0,0.296,0,0.579,0,0.875c-0.874,0-1.734,0-2.609,0
	c0-0.296,0-0.579,0-0.875c0-0.431,0-0.875,0-1.305C85.101,19.536,85.961,19.536,86.835,19.536z"/>
<path fill="#48475B" d="M48.194,55.581c-0.444,0-0.875,0-1.305,0c-0.296,0-0.579,0-0.875,0c0-0.875,0-1.736,0-2.61
	c0.43,0,0.875,0,1.305,0c0.296,0,0.578,0,0.875,0C48.194,53.844,48.194,54.706,48.194,55.581z"/>
<path fill="#211F30" d="M89.433,31.699c0,1.439,0,2.893,0,4.333c-0.861,0-1.736,0-2.598,0c0-0.283,0-0.579,0-0.861
	c0-0.432,0-0.875,0-1.306c0-0.86,0-1.735,0-2.597c0.861,0,1.736,0,2.598,0C89.433,31.403,89.433,31.551,89.433,31.699z"/>
<path fill="#9B3421" d="M26.479,43.417c0,0.874,0,1.735,0,2.61c-0.296,0-0.579,0-0.861,0c-0.444,0-0.875,0-1.305,0
	c0-0.875,0-1.736,0-2.61c0.431,0,0.861,0,1.305,0C25.9,43.417,26.183,43.417,26.479,43.417z"/>
<path fill="#762014" d="M65.12,38.641c0.875,0,1.735,0,2.609,0c0,0.875,0,1.736,0,2.61c-0.874,0-1.734,0-2.609,0
	C65.12,40.377,65.12,39.516,65.12,38.641z"/>
<path fill="#762014" d="M46.889,16.939c0.431,0,0.861,0,1.305,0c0.861,0,1.735,0,2.597,0c0.296,0,0.579,0,0.875,0
	c0.431,0,0.861,0,1.305,0c0.86,0,1.735,0,2.597,0c0,0.431,0,0.861,0,1.292c0,0.444,0,0.875,0,1.305c-4.05,0-8.1,0-12.149,0
	c0-0.861,0-1.735,0-2.597c0.861,0,1.735,0,2.597,0C46.311,16.939,46.593,16.939,46.889,16.939z"/>
<path fill="#211F30" d="M31.255,43.417c0,0.874,0,1.735,0,2.61c-0.875,0-1.736,0-2.61,0c-0.43,0-0.861,0-1.292,0
	c-0.296,0-0.579,0-0.875,0c0-0.875,0-1.736,0-2.61c0.296,0,0.579,0,0.875,0c0.431,0,0.861,0,1.292,0
	C29.519,43.417,30.38,43.417,31.255,43.417z"/>
<path fill="#48475B" d="M31.255,49.93c0,0.295,0,0.578,0,0.874c-0.431,0-0.875,0-1.305,0c-0.282,0-0.579,0-0.861,0
	c0,1.587,0,3.175,0,4.776c-1.305,0-2.61,0-3.916,0c-0.282,0-0.579,0-0.861,0c0-1.602,0-3.189,0-4.776c0.431,0,0.861,0,1.305,0
	c0.282,0,0.565,0,0.861,0c0-0.296,0-0.579,0-0.874c0-0.432,0-0.861,0-1.306c0-0.86,0-1.735,0-2.597c0.296,0,0.579,0,0.875,0
	c0.431,0,0.861,0,1.292,0c0.875,0,1.736,0,2.61,0c0,0.861,0,1.736,0,2.597C31.255,49.069,31.255,49.499,31.255,49.93z"/>
<path fill="#D8E1E4" d="M82.06,24.312c0,0.296,0,0.579,0,0.874c0,0.432,0,0.861,0,1.293c-0.875,0-1.736,0-2.61,0
	c0-0.432,0-0.861,0-1.293c0-0.295,0-0.578,0-0.874C80.323,24.312,81.185,24.312,82.06,24.312z"/>
<path fill="#9B3421" d="M31.255,42.112c0,0.445,0,0.875,0,1.306c-0.875,0-1.736,0-2.61,0c-0.43,0-0.861,0-1.292,0
	c-0.296,0-0.579,0-0.875,0c0-0.431,0-0.86,0-1.306c0-0.281,0-0.578,0-0.86c0.296,0,0.579,0,0.875,0c0.431,0,0.861,0,1.292,0
	c0.875,0,1.736,0,2.61,0C31.255,41.534,31.255,41.831,31.255,42.112z"/>
<path fill="#762014" d="M69.035,43.417c-0.444,0-0.874,0-1.306,0c0-0.431,0-0.86,0-1.306c0-0.281,0-0.578,0-0.86
	c0.283,0,0.579,0,0.861,0c0.444,0,0.875,0,1.306,0c0,0.135,0,0.282,0,0.431c0,0.578,0,1.156,0,1.735
	C69.614,43.417,69.317,43.417,69.035,43.417z"/>
<path fill="#211F30" d="M67.729,48.625c0,0.444,0,0.874,0,1.306c0,0.295,0,0.578,0,0.874c-0.874,0-1.734,0-2.609,0
	c0-0.874,0-1.735,0-2.61c0-0.43,0-0.875,0-1.305c0-0.283,0-0.578,0-0.861c0.875,0,1.735,0,2.609,0c0,0.431,0,0.861,0,1.291
	C67.729,47.764,67.729,48.194,67.729,48.625z"/>
<path fill="#211F30" d="M69.896,46.028c0.874,0,1.735,0,2.61,0c0,0.861,0,1.736,0,2.597c0,0.444,0,0.874,0,1.306
	c0,0.295,0,0.578,0,0.874c-0.875,0-1.736,0-2.61,0c0-0.296,0-0.579,0-0.874c0-0.432,0-0.861,0-1.306
	C69.896,47.764,69.896,46.889,69.896,46.028z"/>
<path fill="#211F30" d="M24.313,43.417c0,0.874,0,1.735,0,2.61c-0.875,0-1.736,0-2.61,0c0-0.875,0-1.736,0-2.61
	C22.577,43.417,23.438,43.417,24.313,43.417z"/>
<path fill="#FFFFFF" d="M47.32,4.776c0.296,0,0.578,0,0.875,0c0.861,0,1.735,0,2.597,0c0,2.462,0,4.924,0,7.386
	c-1.305,0-2.597,0-3.902,0c-1.157,0-2.314,0-3.471,0c0-0.875,0-1.749,0-2.61c0.861,0,1.735,0,2.597,0c0-0.579,0-1.157,0-1.736
	c0-0.296,0-0.579,0-0.875c0-0.713,0-1.439,0-2.166C46.445,4.776,46.889,4.776,47.32,4.776z"/>
<path fill="#211F30" d="M52.096,4.776c-0.431,0-0.861,0-1.305,0c0-0.431,0-0.875,0-1.305c0-0.283,0-0.579,0-0.861
	c0.296,0,0.579,0,0.875,0c0.431,0,0.861,0,1.305,0c0,0.283,0,0.579,0,0.861c0,0.431,0,0.875,0,1.305
	C52.674,4.776,52.392,4.776,52.096,4.776z"/>
<path fill="#9B3421" d="M65.12,41.251c0,0.282,0,0.579,0,0.86c0,0.445,0,0.875,0,1.306c-0.861,0-1.736,0-2.597,0
	c-0.444,0-0.875,0-1.306,0c-0.295,0-0.578,0-0.874,0c0-0.431,0-0.86,0-1.306c0-0.281,0-0.578,0-0.86c0.296,0,0.579,0,0.874,0
	c0.431,0,0.861,0,1.306,0C63.384,41.251,64.259,41.251,65.12,41.251z"/>
<path fill="#211F30" d="M86.835,24.312c0,2.314,0,4.628,0,6.956c-0.874,0-1.734,0-2.609,0c0-0.443,0-0.875,0-1.305
	c0-0.297,0-0.578,0-0.875c-0.861,0-1.736,0-2.61,0c-0.431,0-0.861,0-1.292,0c-0.296,0-0.578,0-0.874,0c0-0.861,0-1.735,0-2.609
	c0.874,0,1.735,0,2.61,0c0.43,0,0.861,0,1.305,0c0.283,0,0.578,0,0.861,0c0-0.432,0-0.861,0-1.293c0-0.295,0-0.578,0-0.874
	C85.101,24.312,85.961,24.312,86.835,24.312z"/>
<path fill="#762014" d="M61.648,38.641c-0.431,0-0.874,0-1.305,0c0-0.875,0-1.735,0-2.609c0.296,0,0.579,0,0.874,0
	c0.431,0,0.861,0,1.306,0c0,0.874,0,1.734,0,2.609C62.228,38.641,61.944,38.641,61.648,38.641z"/>
<path fill="#211F30" d="M5.207,41.251c1.439,0,2.893,0,4.333,0c0,0.431,0,0.86,0,1.306c0,0.281,0,0.578,0,0.86
	c-0.861,0-1.736,0-2.597,0c-0.727,0-1.453,0-2.179,0c0-0.282,0-0.579,0-0.86c0-0.445,0-0.875,0-1.306
	C4.911,41.251,5.059,41.251,5.207,41.251z"/>
<path fill="#D8E1E4" d="M92.917,48.194c0.431,0,0.861,0,1.291,0c0.297,0,0.579,0,0.875,0c0.431,0,0.861,0,1.305,0
	c0.432,0,0.861,0,1.292,0c0.444,0,0.874,0,1.306,0c0,0.875,0,1.736,0,2.61c-0.861,0-1.736,0-2.598,0c-0.443,0-0.874,0-1.305,0
	c-0.296,0-0.578,0-0.875,0c-0.86,0-1.734,0-2.596,0c-0.444,0-0.875,0-1.306,0c-0.296,0-0.579,0-0.874,0c0-0.874,0-1.735,0-2.61
	c0.295,0,0.578,0,0.874,0c0.431,0,0.861,0,1.306,0C92.042,48.194,92.474,48.194,92.917,48.194z"/>
<path fill="#211F30" d="M4.763,43.417c0,0.874,0,1.735,0,2.61c-0.283,0-0.565,0-0.861,0c-0.431,0-0.875,0-1.305,0
	c0-0.875,0-1.736,0-2.61c0.296,0,0.579,0,0.875,0C3.902,43.417,4.333,43.417,4.763,43.417z"/>
<path fill="#211F30" d="M46.015,7.817c0,0.579,0,1.157,0,1.736c-0.861,0-1.736,0-2.597,0c0-0.296,0-0.579,0-0.875
	c0-0.431,0-0.861,0-1.292c0-0.875,0-1.749,0-2.61c0.861,0,1.735,0,2.597,0c0,0.727,0,1.453,0,2.166
	C46.015,7.238,46.015,7.521,46.015,7.817z"/>
<path fill="#D8E1E4" d="M21.702,21.715c0,0.861,0,1.736,0,2.597c-0.861,0-1.735,0-2.61,0c0-0.861,0-1.735,0-2.597
	C19.967,21.715,20.841,21.715,21.702,21.715z"/>
<path fill="#211F30" d="M9.54,51.665c0,0.445,0,0.875,0,1.306c-1.588,0-3.175,0-4.776,0c0-0.282,0-0.579,0-0.86
	c0-0.445,0-0.875,0-1.306c0.296,0,0.592,0,0.875,0c0.43,0,0.875,0,1.305,0c0.861,0,1.736,0,2.597,0
	C9.54,51.086,9.54,51.383,9.54,51.665z"/>
<path fill="#762014" d="M73.368,46.028c0.443,0,0.874,0,1.305,0c0,0.431,0,0.861,0,1.291c0,0.445,0,0.875,0,1.306
	c0,0.296,0,0.579,0,0.874c0,0.432,0,0.861,0,1.306c-0.283,0-0.578,0-0.861,0c-0.443,0-0.875,0-1.305,0c0-0.296,0-0.579,0-0.874
	c0-0.432,0-0.861,0-1.306c0-0.86,0-1.735,0-2.597C72.789,46.028,73.085,46.028,73.368,46.028z"/>
<path fill="#211F30" d="M16.926,33.434c0,0.861,0,1.736,0,2.598c-0.861,0-1.735,0-2.61,0c0-1.588,0-3.176,0-4.764
	c0.875,0,1.749,0,2.61,0c0,0.283,0,0.565,0,0.861C16.926,32.56,16.926,33.004,16.926,33.434z"/>
<path fill="#211F30" d="M45.584,43.417c-1.305,0-2.61,0-3.902,0c-1.17,0-2.328,0-3.485,0c-2.314,0-4.628,0-6.942,0
	c0-0.431,0-0.86,0-1.306c0-0.281,0-0.578,0-0.86c2.314,0,4.628,0,6.942,0c1.157,0,2.314,0,3.485,0c0.579,0,1.157,0,1.736,0
	c0.282,0,0.579,0,0.861,0c0.431,0,0.875,0,1.305,0c1.157,0,2.314,0,3.471,0c0.579,0,1.157,0,1.736,0c0.296,0,0.579,0,0.875,0
	c0.431,0,0.861,0,1.305,0c1.157,0,2.313,0,3.472,0c0.578,0,1.156,0,1.734,0c0.283,0,0.579,0,0.861,0c0.444,0,0.875,0,1.306,0
	c0,0.282,0,0.579,0,0.86c0,0.445,0,0.875,0,1.306c-1.306,0-2.597,0-3.901,0c-1.158,0-2.314,0-3.472,0c-1.305,0-2.61,0-3.916,0
	C47.898,43.417,46.741,43.417,45.584,43.417z"/>
<path fill="#762014" d="M43.418,14.329c0,0.861,0,1.735,0,2.61c-0.875,0-1.736,0-2.61,0c0-0.875,0-1.749,0-2.61
	C41.682,14.329,42.543,14.329,43.418,14.329z"/>
<path fill="#48475B" d="M67.729,50.804c0,0.282,0,0.579,0,0.86c0,0.445,0,0.875,0,1.306c-0.874,0-1.734,0-2.609,0
	c0-0.147,0-0.282,0-0.431c0-0.578,0-1.156,0-1.735C65.995,50.804,66.855,50.804,67.729,50.804z"/>
<path fill="#762014" d="M16.926,52.97c0,0.874,0,1.735,0,2.61c-0.861,0-1.735,0-2.61,0c0-0.875,0-1.736,0-2.61
	C15.19,52.97,16.065,52.97,16.926,52.97z"/>
<path fill="#211F30" d="M58.608,12.163c1.305,0,2.609,0,3.915,0c0,0.283,0,0.579,0,0.861c0,0.431,0,0.875,0,1.305
	c-0.875,0-1.749,0-2.61,0c-0.431,0-0.875,0-1.305,0c-0.283,0-0.579,0-0.861,0c-0.444,0-0.875,0-1.305,0c-0.297,0-0.579,0-0.875,0
	c0-0.296,0-0.579,0-0.875c0-0.431,0-0.861,0-1.292c0-0.875,0-1.749,0-2.61c0.296,0,0.578,0,0.875,0c0.43,0,0.86,0,1.305,0
	c0,0.43,0,0.861,0,1.305c0,0.43,0,0.861,0,1.305C58.029,12.163,58.325,12.163,58.608,12.163z"/>
<path fill="#211F30" d="M89.433,41.251c0,0.282,0,0.579,0,0.86c0,0.445,0,0.875,0,1.306c-0.861,0-1.736,0-2.598,0
	c0-0.579,0-1.157,0-1.735c0-0.148,0-0.296,0-0.431C87.696,41.251,88.571,41.251,89.433,41.251z"/>
<path fill="#211F30" d="M25.173,41.251c0.444,0,0.875,0,1.305,0c0,0.282,0,0.579,0,0.86c0,0.445,0,0.875,0,1.306
	c-0.296,0-0.579,0-0.861,0c-0.444,0-0.875,0-1.305,0c0-0.282,0-0.579,0-0.86c0-0.445,0-0.875,0-1.306
	C24.595,41.251,24.891,41.251,25.173,41.251z"/>
<path fill="#762014" d="M89.433,55.581c-4.911,0-9.836,0-14.76,0c0-0.443,0-0.875,0-1.305c0-0.432,0-0.875,0-1.306
	c0-0.727,0-1.453,0-2.166c0.875,0,1.735,0,2.609,0c0,0.282,0,0.579,0,0.86c0,0.445,0,0.875,0,1.306c0.283,0,0.579,0,0.861,0
	c1.306,0,2.61,0,3.916,0c0-0.282,0-0.579,0-0.86c0-0.445,0-0.875,0-1.306c0.282,0,0.578,0,0.861,0c0.443,0,0.874,0,1.305,0
	c0-0.296,0-0.579,0-0.874c0-0.283,0-0.579,0-0.861c0-0.444,0-0.875,0-1.305c0-0.297,0-0.579,0-0.875c0-0.431,0-0.861,0-1.305
	c0-0.283,0-0.579,0-0.861c0-0.432,0-0.875,0-1.306c0-0.282,0-0.579,0-0.86c0-0.445,0-0.875,0-1.306c0.875,0,1.735,0,2.609,0
	c0,0.135,0,0.282,0,0.431c0,0.578,0,1.156,0,1.735c0,0.874,0,1.735,0,2.61c0,0.431,0,0.861,0,1.291c0,0.297,0,0.593,0,0.875
	c0,0.431,0,0.875,0,1.305c0,0.283,0,0.579,0,0.861c0,0.444,0,0.875,0,1.305c0,0.445,0,0.875,0,1.306c0.861,0,1.736,0,2.598,0
	C89.433,53.844,89.433,54.706,89.433,55.581z"/>
<path fill="#9B3421" d="M69.896,54.706c0-1.305,0-2.596,0-3.901c0.874,0,1.735,0,2.61,0c0,0.713,0,1.439,0,2.166
	c0,0.874,0,1.735,0,2.61c-0.444,0-0.875,0-1.306,0s-0.874,0-1.305,0C69.896,55.285,69.896,55.002,69.896,54.706z"/>
<path fill="#48475B" d="M77.282,24.312c0.283,0,0.579,0,0.861,0c0.444,0,0.875,0,1.306,0c0,0.296,0,0.579,0,0.874
	c0,0.432,0,0.861,0,1.293c-0.282,0-0.579,0-0.861,0c-0.444,0-0.874,0-1.306,0c0-0.432,0-0.861,0-1.293
	C77.282,24.891,77.282,24.608,77.282,24.312z"/>
<path fill="#211F30" d="M89.433,16.939c0-0.444,0-0.875,0-1.305c0-0.444,0-0.875,0-1.305c-0.861,0-1.736,0-2.598,0
	c-0.874,0-1.734,0-2.609,0c0-0.296,0-0.579,0-0.875c0-0.431,0-0.861,0-1.292c0.148,0,0.296,0,0.43,0c0.579,0,1.158,0,1.736,0
	s1.157,0,1.749,0c1.157,0,2.313,0,3.472,0c0,0.135,0,0.283,0,0.431c0,2.314,0,4.628,0,6.942c-0.297,0-0.579,0-0.875,0
	c-0.431,0-0.861,0-1.305,0C89.433,18.675,89.433,17.8,89.433,16.939z"/>
<path fill="#48475B" d="M89.433,45.584c0,0.443,0,0.874,0,1.305c0,0.43,0,0.875,0,1.305c-0.861,0-1.736,0-2.598,0
	c0-0.282,0-0.578,0-0.875c0-0.43,0-0.86,0-1.291c0-0.875,0-1.736,0-2.61c0.861,0,1.736,0,2.598,0c0,0.282,0,0.579,0,0.874
	C89.433,44.723,89.433,45.153,89.433,45.584z"/>
<path fill="#9B3421" d="M69.896,49.93c0,0.295,0,0.578,0,0.874c-0.282,0-0.579,0-0.861,0c-0.444,0-0.874,0-1.306,0
	c0-0.296,0-0.579,0-0.874c0-0.432,0-0.861,0-1.306c0-0.431,0-0.86,0-1.306c0-0.43,0-0.86,0-1.291c0.432,0,0.861,0,1.306,0
	c0.282,0,0.579,0,0.861,0c0,0.861,0,1.736,0,2.597C69.896,49.069,69.896,49.499,69.896,49.93z"/>
<path fill="#211F30" d="M67.729,41.251c0,0.282,0,0.579,0,0.86c0,0.445,0,0.875,0,1.306c-0.874,0-1.734,0-2.609,0
	c0-0.431,0-0.86,0-1.306c0-0.281,0-0.578,0-0.86C65.995,41.251,66.855,41.251,67.729,41.251z"/>
<path fill="#D8E1E4" d="M82.921,21.715c0.443,0,0.874,0,1.305,0c0,0.861,0,1.736,0,2.597c-0.283,0-0.578,0-0.861,0
	c-0.443,0-0.875,0-1.305,0c0-0.861,0-1.735,0-2.597C82.342,21.715,82.638,21.715,82.921,21.715z"/>
<path fill="#D8E1E4" d="M12.149,48.194c0,0.875,0,1.736,0,2.61c-0.861,0-1.735,0-2.61,0c-0.861,0-1.736,0-2.597,0
	c-0.43,0-0.875,0-1.305,0c-0.283,0-0.579,0-0.875,0c0-0.874,0-1.735,0-2.61c1.17,0,2.328,0,3.484,0
	C9.54,48.194,10.844,48.194,12.149,48.194z"/>
<path fill="#9B1C1F" d="M82.06,41.251c0-0.874,0-1.735,0-2.61c-0.875,0-1.736,0-2.61,0c0,0.875,0,1.736,0,2.61
	C80.323,41.251,81.185,41.251,82.06,41.251z M77.282,48.194c0.283,0,0.579,0,0.861,0c1.306,0,2.61,0,3.916,0
	c0-0.282,0-0.578,0-0.875c0-1.291,0-2.596,0-3.901c-0.297,0-0.579,0-0.875,0c-1.305,0-2.597,0-3.902,0c0,0.431,0,0.874,0,1.306
	c0,0.578,0,1.156,0,1.735S77.282,47.616,77.282,48.194z M43.418,26.479c0-0.432,0-0.861,0-1.293c0-0.295,0-0.578,0-0.874
	c-0.875,0-1.736,0-2.61,0c0,0.431,0,0.874,0,1.306c0,0.282,0,0.578,0,0.861C41.682,26.479,42.543,26.479,43.418,26.479z
	 M43.418,16.939c0,0.861,0,1.736,0,2.597c4.05,0,8.1,0,12.149,0c0-0.43,0-0.861,0-1.305c0-0.431,0-0.861,0-1.292
	c0.43,0,0.875,0,1.305,0c0.297,0,0.578,0,0.875,0c0-0.875,0-1.749,0-2.61c0.282,0,0.578,0,0.861,0c0.43,0,0.874,0,1.305,0
	c0.861,0,1.735,0,2.61,0c0,0.861,0,1.735,0,2.61c1.735,0,3.472,0,5.206,0c0.861,0,1.736,0,2.598,0c0.443,0,0.874,0,1.305,0
	c0.296,0,0.578,0,0.875,0c0,0.861,0,1.736,0,2.597c0.43,0,0.861,0,1.305,0c0.283,0,0.578,0,0.861,0c0,0.431,0,0.875,0,1.305
	c0,0.296,0,0.579,0,0.875c0,0.861,0,1.736,0,2.597c0,0.579,0,1.157,0,1.735c0,0.148,0,0.297,0,0.432c0.875,0,1.735,0,2.609,0
	c0,0.874,0,1.748,0,2.609c0.432,0,0.861,0,1.306,0c0.282,0,0.579,0,0.861,0c0,0.431,0,0.875,0,1.305c0,0.283,0,0.579,0,0.875
	c1.587,0,3.188,0,4.776,0c0.875,0,1.735,0,2.609,0c0,0.861,0,1.736,0,2.597c0,0.431,0,0.874,0,1.306c0,0.282,0,0.578,0,0.861
	c0,1.734,0,3.484,0,5.22c-0.874,0-1.734,0-2.609,0c0,0.431,0,0.86,0,1.306c0,0.281,0,0.578,0,0.86c0,0.431,0,0.874,0,1.306
	c0,0.282,0,0.578,0,0.861c0,0.443,0,0.874,0,1.305c0,0.296,0,0.578,0,0.875c0,0.43,0,0.86,0,1.305c0,0.282,0,0.578,0,0.861
	c0,0.295,0,0.578,0,0.874c-0.431,0-0.861,0-1.305,0c-0.283,0-0.579,0-0.861,0c0,0.431,0,0.86,0,1.306c0,0.281,0,0.578,0,0.86
	c-1.306,0-2.61,0-3.916,0c-0.282,0-0.578,0-0.861,0c0-0.431,0-0.86,0-1.306c0-0.281,0-0.578,0-0.86c-0.874,0-1.734,0-2.609,0
	c0-0.444,0-0.874,0-1.306c0-0.295,0-0.578,0-0.874c0-0.431,0-0.86,0-1.306c0-0.43,0-0.86,0-1.291c-0.431,0-0.861,0-1.305,0
	c-0.283,0-0.579,0-0.861,0c0-0.875,0-1.736,0-2.61c-0.875,0-1.736,0-2.61,0c0-0.579,0-1.157,0-1.735c0-0.148,0-0.296,0-0.431
	c-0.431,0-0.861,0-1.306,0c-0.282,0-0.578,0-0.861,0c0-0.874,0-1.735,0-2.61c-0.874,0-1.734,0-2.609,0c-0.861,0-1.736,0-2.597,0
	c0-0.875,0-1.735,0-2.609c-0.444,0-0.875,0-1.306,0c-0.295,0-0.578,0-0.874,0c-1.306,0-2.597,0-3.901,0c-1.158,0-2.314,0-3.472,0
	c-2.328,0-4.642,0-6.956,0c-1.305,0-2.597,0-3.902,0c-1.157,0-2.314,0-3.471,0c-1.157,0-2.314,0-3.485,0c-0.579,0-1.157,0-1.736,0
	c-0.578,0-1.157,0-1.735,0c-0.135,0-0.283,0-0.431,0h-2.166c0-1.588,0-3.176,0-4.764h2.166c0.296,0,0.579,0,0.875,0
	c1.292,0,2.597,0,3.902,0c0-0.296,0-0.592,0-0.875c0-0.43,0-0.874,0-1.305c0.875,0,1.736,0,2.61,0c0-1.588,0-3.188,0-4.776
	c-0.875,0-1.736,0-2.61,0c0-0.861,0-1.735,0-2.597c-0.296,0-0.579,0-0.875,0c-1.292,0-2.597,0-3.902,0v-2.18
	c0-0.861,0-1.735,0-2.597c1.157,0,2.314,0,3.471,0c1.305,0,2.61,0,3.916,0c0-0.875,0-1.749,0-2.61c0.282,0,0.579,0,0.861,0
	c0.431,0,0.875,0,1.305,0c0,0.861,0,1.735,0,2.61C41.682,16.939,42.543,16.939,43.418,16.939z"/>
<path fill="#280F0C" d="M83.364,24.312c0.283,0,0.578,0,0.861,0c0,0.296,0,0.579,0,0.874c0,0.432,0,0.861,0,1.293
	c-0.283,0-0.578,0-0.861,0c-0.443,0-0.875,0-1.305,0c0-0.432,0-0.861,0-1.293c0-0.295,0-0.578,0-0.874
	C82.489,24.312,82.921,24.312,83.364,24.312z"/>
<path fill="#211F30" d="M26.479,46.028c0,0.861,0,1.736,0,2.597c0,0.444,0,0.874,0,1.306c0,0.295,0,0.578,0,0.874
	c-0.296,0-0.579,0-0.861,0c-0.444,0-0.875,0-1.305,0c0-0.296,0-0.579,0-0.874c0-0.432,0-0.861,0-1.306c0-0.86,0-1.735,0-2.597
	c0.431,0,0.861,0,1.305,0C25.9,46.028,26.183,46.028,26.479,46.028z"/>
<path fill="#211F30" d="M89.433,50.804c0,0.431,0,0.86,0,1.306c0,0.281,0,0.578,0,0.86c-0.861,0-1.736,0-2.598,0
	c0-0.431,0-0.86,0-1.306c0-0.43,0-0.86,0-1.305c0-0.282,0-0.578,0-0.861c0-0.43,0-0.874,0-1.305c0.861,0,1.736,0,2.598,0
	C89.433,49.069,89.433,49.93,89.433,50.804z"/>
<path fill="#211F30" d="M21.702,24.743c0,0.592,0,1.157,0,1.736c-0.861,0-1.735,0-2.61,0c0,0.874,0,1.748,0,2.609
	c0,0.297,0,0.578,0,0.875c0,0.43,0,0.861,0,1.305c-0.134,0-0.282,0-0.43,0c-0.579,0-1.157,0-1.736,0c0-2.328,0-4.642,0-6.956
	c0.431,0,0.875,0,1.305,0c0.283,0,0.579,0,0.861,0c0.875,0,1.75,0,2.61,0C21.702,24.46,21.702,24.608,21.702,24.743z"/>
<path fill="#280F0C" d="M29.089,31.268c0,1.588,0,3.176,0,4.764c-1.305,0-2.61,0-3.916,0c-0.282,0-0.579,0-0.861,0
	c0-1.158,0-2.314,0-3.472c0-0.431,0-0.861,0-1.292C25.9,31.268,27.488,31.268,29.089,31.268z"/>
<path fill="#211F30" d="M65.12,38.641c0,0.875,0,1.736,0,2.61c-0.861,0-1.736,0-2.597,0c-0.444,0-0.875,0-1.306,0
	c-0.295,0-0.578,0-0.874,0c0-0.874,0-1.735,0-2.61c0.431,0,0.874,0,1.305,0c0.296,0,0.579,0,0.875,0
	C63.384,38.641,64.259,38.641,65.12,38.641z"/>
<path fill="#BA2226" d="M55.567,48.194c0,0.296,0,0.578,0,0.875c0,1.291,0,2.596,0,3.901c-0.148,0-0.283,0-0.431,0
	c-0.579,0-1.157,0-1.735,0c-0.579,0-1.157,0-1.736,0c-1.157,0-2.314,0-3.471,0c0-0.727,0-1.453,0-2.166c0-0.874,0-1.735,0-2.61
	c0.43,0,0.861,0,1.292,0c0.296,0,0.579,0,0.875,0c0.579,0,1.157,0,1.736,0C53.253,48.194,54.41,48.194,55.567,48.194z"/>
<path fill="#48475B" d="M56.872,52.97c0.297,0,0.578,0,0.875,0c0,0.874,0,1.735,0,2.61c-0.297,0-0.578,0-0.875,0
	c-0.43,0-0.875,0-1.305,0c0-0.875,0-1.736,0-2.61C55.997,52.97,56.442,52.97,56.872,52.97z"/>
<path fill="#63677A" d="M31.255,52.97c0,0.874,0,1.735,0,2.61c-0.296,0-0.579,0-0.875,0c-0.431,0-0.861,0-1.292,0
	c0-1.602,0-3.189,0-4.776c0.282,0,0.579,0,0.861,0c0.431,0,0.875,0,1.305,0c0,0.282,0,0.579,0,0.86
	C31.255,52.11,31.255,52.54,31.255,52.97z"/>
<path fill="#BA2226" d="M40.808,48.194c0,0.296,0,0.578,0,0.875c0,1.291,0,2.596,0,3.901c-2.314,0-4.628,0-6.942,0
	c0-0.727,0-1.453,0-2.166c0-0.874,0-1.735,0-2.61C36.179,48.194,38.494,48.194,40.808,48.194z"/>
<path fill="#280F0C" d="M82.06,38.641c0,0.875,0,1.736,0,2.61c-0.875,0-1.736,0-2.61,0c0-0.874,0-1.735,0-2.61
	C80.323,38.641,81.185,38.641,82.06,38.641z"/>
<path fill="#211F30" d="M101.165,48.194c0,0.875,0,1.736,0,2.61c-0.297,0-0.579,0-0.875,0c-0.431,0-0.861,0-1.305,0
	c0-0.874,0-1.735,0-2.61c0.443,0,0.874,0,1.305,0C100.586,48.194,100.868,48.194,101.165,48.194z"/>
<path fill="#211F30" d="M62.523,14.329c3.323,0,6.646,0,9.983,0c0,0.861,0,1.735,0,2.61c-0.297,0-0.579,0-0.875,0
	c-0.431,0-0.861,0-1.305,0c-0.861,0-1.736,0-2.598,0c-1.734,0-3.471,0-5.206,0C62.523,16.064,62.523,15.19,62.523,14.329z"/>
<path fill="#211F30" d="M43.418,13.455c0,0.296,0,0.579,0,0.875c-0.875,0-1.736,0-2.61,0c-0.431,0-0.875,0-1.305,0
	c-0.282,0-0.579,0-0.861,0c0-0.296,0-0.579,0-0.875c0-0.431,0-0.861,0-1.292c0.282,0,0.579,0,0.861,0c0.431,0,0.875,0,1.305,0
	c0-0.875,0-1.749,0-2.61c0.875,0,1.736,0,2.61,0c0,0.861,0,1.735,0,2.61C43.418,12.593,43.418,13.024,43.418,13.455z"/>
<path fill="#48475B" d="M43.418,52.97c0,0.874,0,1.735,0,2.61c-0.875,0-1.736,0-2.61,0c0-0.875,0-1.736,0-2.61
	C41.682,52.97,42.543,52.97,43.418,52.97z"/>
<path fill="#762014" d="M21.702,26.479c0,0.874,0,1.748,0,2.609c-0.861,0-1.735,0-2.61,0c0-0.861,0-1.735,0-2.609
	C19.967,26.479,20.841,26.479,21.702,26.479z"/>
<path fill="#63677A" d="M43.418,46.028c0.861,0,1.735,0,2.597,0c0,2.314,0,4.629,0,6.942c0,0.874,0,1.735,0,2.61
	c-0.861,0-1.736,0-2.597,0c0-0.875,0-1.736,0-2.61C43.418,50.657,43.418,48.342,43.418,46.028z"/>
<path fill="#D8E1E4" d="M89.433,14.329c0,0.43,0,0.861,0,1.305c0,0.43,0,0.861,0,1.305c0,0.861,0,1.736,0,2.597
	c-0.861,0-1.736,0-2.598,0c0-1.735,0-3.471,0-5.207C87.696,14.329,88.571,14.329,89.433,14.329z"/>
<path fill="#211F30" d="M24.313,14.329c0,0.861,0,1.735,0,2.61c-1.736,0-3.471,0-5.221,0c0-0.875,0-1.749,0-2.61
	C20.841,14.329,22.577,14.329,24.313,14.329z"/>
<path fill="#211F30" d="M0,46.458c0-0.147,0-0.296,0-0.431c0.861,0,1.736,0,2.597,0c0,0.431,0,0.861,0,1.291
	c0,0.297,0,0.593,0,0.875c-0.861,0-1.735,0-2.597,0C0,47.616,0,47.038,0,46.458z"/>
<path fill="#211F30" d="M21.702,48.194c0,0.296,0,0.578,0,0.875c0,0.578,0,1.156,0,1.735c-0.861,0-1.735,0-2.61,0
	c0-0.296,0-0.579,0-0.874c0-0.432,0-0.861,0-1.306c0-0.86,0-1.735,0-2.597c0.875,0,1.75,0,2.61,0c0,0.283,0,0.578,0,0.861
	C21.702,47.319,21.702,47.764,21.702,48.194z"/>
</svg>
