<?xml version="1.0" encoding="utf-8"?>
<!-- Generator: Adobe Illustrator 15.0.0, SVG Export Plug-In  -->
<!DOCTYPE svg PUBLIC "-//W3C//DTD SVG 1.1//EN" "http://www.w3.org/Graphics/SVG/1.1/DTD/svg11.dtd" [
	<!ENTITY ns_flows "http://ns.adobe.com/Flows/1.0/">
]>
<svg version="1.1"
	 xmlns="http://www.w3.org/2000/svg" xmlns:xlink="http://www.w3.org/1999/xlink" xmlns:a="http://ns.adobe.com/AdobeSVGViewerExtensions/3.0/"
	 x="0px" y="0px" width="110px" height="70px" viewBox="-8.698 -12.253 110 70" enable-background="new -8.698 -12.253 110 70"
	 xml:space="preserve">
<defs>
</defs>
<path fill="#211F30" d="M60.357,36.032c0,0.874,0,1.734,0,2.609c-0.875,0-1.749,0-2.61,0c-0.727,0-1.453,0-2.166,0
	c0-0.875,0-1.735,0-2.609c0.431,0,0.86,0,1.291,0c0.296,0,0.579,0,0.875,0C58.608,36.032,59.482,36.032,60.357,36.032z"/>
<path fill="#762014" d="M55.581,33.865c0.282,0,0.578,0,0.86,0c0.431,0,0.875,0,1.306,0c0,0.296,0,0.579,0,0.874
	c0,0.432,0,0.861,0,1.293c-0.296,0-0.579,0-0.875,0c-0.431,0-0.86,0-1.291,0c0-0.283,0-0.579,0-0.861
	C55.581,34.739,55.581,34.295,55.581,33.865z"/>
<path fill="#211F30" d="M0.861,46.028c0.444,0,0.875,0,1.305,0c0,0.283,0,0.578,0,0.861c0,0.43,0,0.875,0,1.305
	c-0.283,0-0.579,0-0.861,0c-0.444,0-0.875,0-1.305,0c0-0.282,0-0.578,0-0.875c0-0.43,0-0.86,0-1.291
	C0.283,46.028,0.579,46.028,0.861,46.028z"/>
<path fill="#280F0C" d="M77.283,38.641c0,0.875,0,1.736,0,2.61c-0.861,0-1.736,0-2.61,0c0-0.874,0-1.735,0-2.61
	C75.547,38.641,76.422,38.641,77.283,38.641z"/>
<path fill="#9B3421" d="M23.882,43.417c0,1.588,0,3.188,0,4.776c-0.296,0-0.579,0-0.875,0c-0.431,0-0.861,0-1.305,0
	c0-1.588,0-3.188,0-4.776c0.444,0,0.875,0,1.305,0C23.303,43.417,23.586,43.417,23.882,43.417z"/>
<path fill="#762014" d="M23.882,21.715c0.861,0,1.736,0,2.597,0c0,0.861,0,1.736,0,2.597c-0.861,0-1.735,0-2.597,0
	C23.882,23.451,23.882,22.577,23.882,21.715z"/>
<path fill="#211F30" d="M4.776,43.417c0,0.874,0,1.735,0,2.61c-0.875,0-1.735,0-2.61,0c0-0.875,0-1.736,0-2.61
	C3.041,43.417,3.902,43.417,4.776,43.417z"/>
<path fill="#D8E1E4" d="M43.418,14.329c-0.875,0-1.735,0-2.61,0c0-0.296,0-0.579,0-0.875c0-0.431,0-0.861,0-1.292
	c2.462,0,4.925,0,7.387,0c0-2.462,0-4.924,0-7.386c0.861,0,1.735,0,2.61,0c0,0.861,0,1.735,0,2.61c0,0.431,0,0.861,0,1.292
	c0,0.296,0,0.579,0,0.875c0,1.587,0,3.188,0,4.776c-0.875,0-1.749,0-2.61,0C46.606,14.329,45.006,14.329,43.418,14.329z"/>
<path fill="#48475B" d="M45.584,52.97c0,0.874,0,1.735,0,2.61c-0.431,0-0.861,0-1.305,0c-0.283,0-0.565,0-0.861,0
	c0-0.875,0-1.736,0-2.61c0.578,0,1.157,0,1.735,0C45.302,52.97,45.449,52.97,45.584,52.97z"/>
<path fill="#211F30" d="M19.105,43.417c0.861,0,1.736,0,2.597,0c0,1.588,0,3.188,0,4.776c-0.861,0-1.735,0-2.597,0
	C19.105,46.606,19.105,45.005,19.105,43.417z"/>
<path fill="#9B3421" d="M28.658,41.251c-0.727,0-1.453,0-2.18,0c0-0.874,0-1.735,0-2.61c0.727,0,1.453,0,2.18,0
	c0.861,0,1.736,0,2.597,0c0,0.875,0,1.736,0,2.61C30.394,41.251,29.52,41.251,28.658,41.251z"/>
<path fill="#211F30" d="M39.516,9.553c0.431,0,0.861,0,1.292,0c0,0.861,0,1.735,0,2.61c0,0.431,0,0.861,0,1.292
	c0,0.296,0,0.579,0,0.875c-0.431,0-0.861,0-1.292,0c-0.296,0-0.578,0-0.874,0c-0.875,0-1.735,0-2.61,0c0-0.296,0-0.579,0-0.875
	c0-0.431,0-0.861,0-1.292c0.444,0,0.875,0,1.305,0c0.431,0,0.875,0,1.306,0c0-0.875,0-1.749,0-2.61
	C38.938,9.553,39.22,9.553,39.516,9.553z"/>
<path fill="#762014" d="M69.896,46.028c0,0.283,0,0.578,0,0.861c0,0.43,0,0.875,0,1.305c-0.861,0-1.735,0-2.597,0
	c0-1.588,0-3.188,0-4.776c0.861,0,1.735,0,2.597,0c0,0.431,0,0.874,0,1.306C69.896,45.153,69.896,45.584,69.896,46.028z"/>
<path fill="#D8E1E4" d="M74.673,26.479c0-0.432,0-0.861,0-1.293c0-0.295,0-0.578,0-0.874c0.874,0,1.749,0,2.61,0
	c0,0.296,0,0.579,0,0.874c0,0.432,0,0.861,0,1.293C76.422,26.479,75.547,26.479,74.673,26.479z"/>
<path fill="#211F30" d="M6.942,50.804c0.875,0,1.736,0,2.61,0c0,0.282,0,0.579,0,0.86c0,0.445,0,0.875,0,1.306
	c-0.296,0-0.579,0-0.875,0c-0.431,0-0.861,0-1.305,0c-0.861,0-1.735,0-2.597,0c0-0.282,0-0.579,0-0.86c0-0.445,0-0.875,0-1.306
	c0.283,0,0.579,0,0.861,0C6.082,50.804,6.512,50.804,6.942,50.804z"/>
<path fill="#211F30" d="M82.934,14.329c-0.296,0-0.578,0-0.874,0c-0.861,0-1.736,0-2.61,0c0-0.296,0-0.579,0-0.875
	c0-0.431,0-0.861,0-1.292c2.462,0,4.924,0,7.387,0c0,1.157,0,2.314,0,3.472c0,1.305,0,2.597,0,3.901c-0.861,0-1.736,0-2.61,0
	c0-0.861,0-1.735,0-2.597c0-0.444,0-0.875,0-1.305c0-0.444,0-0.875,0-1.305C83.795,14.329,83.364,14.329,82.934,14.329z"/>
<path fill="#211F30" d="M31.255,14.329c1.601,0,3.189,0,4.776,0c0,0.861,0,1.735,0,2.61c-0.861,0-1.736,0-2.597,0
	c-0.727,0-1.453,0-2.18,0C31.255,16.064,31.255,15.19,31.255,14.329z"/>
<path fill="#FFFFFF" d="M74.673,19.536c0-0.861,0-1.735,0-2.597c0.727,0,1.453,0,2.18,0c0.86,0,1.735,0,2.597,0
	c0-0.875,0-1.749,0-2.61c0.874,0,1.749,0,2.61,0c0,1.735,0,3.471,0,5.207c-0.861,0-1.736,0-2.61,0c0,0.431,0,0.875,0,1.305
	c0,0.296,0,0.579,0,0.875c-0.431,0-0.861,0-1.292,0c-0.296,0-0.578,0-0.874,0c0,0.861,0,1.736,0,2.597c-0.861,0-1.736,0-2.61,0
	c-0.431,0-0.861,0-1.292,0c-0.296,0-0.578,0-0.874,0c0-0.861,0-1.735,0-2.597c0-0.444,0-0.875,0-1.305c0-0.296,0-0.578,0-0.875
	c0.431,0,0.874,0,1.305,0C74.107,19.536,74.39,19.536,74.673,19.536z"/>
<path fill="#211F30" d="M40.808,8.678c0-0.431,0-0.861,0-1.292c0-0.875,0-1.749,0-2.61c0.875,0,1.735,0,2.61,0
	c0,0.282,0,0.579,0,0.861c0,0.444,0,0.875,0,1.305c0,0.296,0,0.579,0,0.875c0,0.579,0,1.157,0,1.736c-0.875,0-1.735,0-2.61,0
	C40.808,9.257,40.808,8.974,40.808,8.678z"/>
<path fill="#D8E1E4" d="M19.105,21.715c0.861,0,1.736,0,2.597,0c0,0.861,0,1.736,0,2.597c-0.861,0-1.735,0-2.597,0
	C19.105,23.451,19.105,22.577,19.105,21.715z"/>
<path fill="#FFFFFF" d="M6.942,43.417c0.875,0,1.736,0,2.61,0c0-0.282,0-0.579,0-0.86c0-0.445,0-0.875,0-1.306
	c0.861,0,1.736,0,2.597,0c0,2.313,0,4.628,0,6.942c-1.292,0-2.597,0-3.902,0c-1.157,0-2.314,0-3.471,0c0-0.43,0-0.875,0-1.305
	c0-0.283,0-0.578,0-0.861c0-0.875,0-1.736,0-2.61c0.283,0,0.579,0,0.861,0C6.082,43.417,6.512,43.417,6.942,43.417z"/>
<path fill="#280F0C" d="M86.405,52.97c-0.727,0-1.453,0-2.18,0c0-0.282,0-0.579,0-0.86c0-0.445,0-0.875,0-1.306
	c0.296,0,0.592,0,0.874,0c0.431,0,0.875,0,1.306,0c0.86,0,1.735,0,2.597,0c0,0.282,0,0.579,0,0.86c0,0.445,0,0.875,0,1.306
	C88.141,52.97,87.266,52.97,86.405,52.97z"/>
<path fill="#D8E1E4" d="M9.553,50.804c-0.875,0-1.735,0-2.61,0c-0.43,0-0.861,0-1.305,0c-0.283,0-0.579,0-0.861,0
	c0-0.874,0-1.735,0-2.61c1.157,0,2.314,0,3.471,0c1.305,0,2.61,0,3.902,0c0,0.875,0,1.736,0,2.61
	C11.289,50.804,10.414,50.804,9.553,50.804z"/>
<path fill="#D8E1E4" d="M45.584,4.776c0-0.431,0-0.875,0-1.305c0-0.283,0-0.579,0-0.861c0.875,0,1.735,0,2.61,0
	c0,0.283,0,0.579,0,0.861c0,0.431,0,0.875,0,1.305C47.319,4.776,46.459,4.776,45.584,4.776z"/>
<path fill="#211F30" d="M65.134,41.251c0,0.282,0,0.579,0,0.86c0,0.445,0,0.875,0,1.306c-0.875,0-1.749,0-2.61,0
	c0-0.431,0-0.86,0-1.306c0-0.281,0-0.578,0-0.86C63.385,41.251,64.259,41.251,65.134,41.251z"/>
<path fill="#211F30" d="M82.06,21.715c0-0.296,0-0.579,0-0.875c0-0.431,0-0.875,0-1.305c0.296,0,0.578,0,0.874,0
	c0.431,0,0.861,0,1.292,0c0,0.296,0,0.579,0,0.875c0,0.431,0,0.861,0,1.305c0,0.861,0,1.736,0,2.597c-0.283,0-0.579,0-0.861,0
	c-0.431,0-0.875,0-1.305,0C82.06,23.451,82.06,22.577,82.06,21.715z"/>
<path fill="#211F30" d="M45.584,3.471c0,0.431,0,0.875,0,1.305c-0.282,0-0.578,0-0.861,0c-0.443,0-0.874,0-1.305,0
	c0-0.296,0-0.579,0-0.875c0-0.431,0-0.861,0-1.292c0.296,0,0.578,0,0.861,0c0.443,0,0.874,0,1.305,0
	C45.584,2.893,45.584,3.188,45.584,3.471z"/>
<path fill="#D8E1E4" d="M95.527,48.194c-0.444,0-0.875,0-1.306,0c0-0.282,0-0.578,0-0.875c0-0.43,0-0.86,0-1.291
	c0.431,0,0.861,0,1.306,0c0.282,0,0.564,0,0.861,0c0,0.283,0,0.578,0,0.861c0,0.43,0,0.875,0,1.305
	C96.092,48.194,95.81,48.194,95.527,48.194z"/>
<path fill="#762014" d="M16.926,52.97c0,0.874,0,1.735,0,2.61c-0.861,0-1.735,0-2.597,0c0-0.875,0-1.736,0-2.61
	C15.19,52.97,16.065,52.97,16.926,52.97z"/>
<path fill="#48475B" d="M60.357,50.804c0-0.874,0-1.735,0-2.61c0.43,0,0.86,0,1.291,0c0.296,0,0.579,0,0.875,0
	c0,0.875,0,1.736,0,2.61c-0.296,0-0.579,0-0.875,0C61.218,50.804,60.787,50.804,60.357,50.804z"/>
<path fill="#211F30" d="M60.357,41.251c0-0.874,0-1.735,0-2.61c0.43,0,0.86,0,1.291,0c0.296,0,0.579,0,0.875,0
	c0,0.875,0,1.736,0,2.61c-0.296,0-0.579,0-0.875,0C61.218,41.251,60.787,41.251,60.357,41.251z"/>
<path fill="#48475B" d="M52.096,55.581c-0.431,0-0.86,0-1.291,0c0-0.875,0-1.736,0-2.61c0.282,0,0.578,0,0.86,0
	c0.431,0,0.875,0,1.306,0c0,0.874,0,1.735,0,2.61C52.675,55.581,52.392,55.581,52.096,55.581z"/>
<path fill="#48475B" d="M82.06,48.194c0-1.588,0-3.188,0-4.776c0.43,0,0.874,0,1.305,0c0.282,0,0.578,0,0.861,0
	c0,0.282,0,0.579,0,0.874c0,0.432,0,0.861,0,1.293c0,0.874,0,1.734,0,2.609c-0.283,0-0.579,0-0.861,0
	C82.934,48.194,82.489,48.194,82.06,48.194z"/>
<path fill="#211F30" d="M55.581,10.858c0,0.43,0,0.861,0,1.305c1.587,0,3.175,0,4.776,0c0,0.283,0,0.579,0,0.861
	c0,0.431,0,0.875,0,1.305c-1.602,0-3.189,0-4.776,0c-0.875,0-1.749,0-2.61,0c0-1.588,0-3.189,0-4.776c0.431,0,0.861,0,1.305,0
	c0.431,0,0.861,0,1.306,0C55.581,9.983,55.581,10.414,55.581,10.858z"/>
<path fill="#211F30" d="M66.425,48.194c-0.431,0-0.861,0-1.291,0c0-1.588,0-3.188,0-4.776c0.43,0,0.86,0,1.291,0
	c0.296,0,0.579,0,0.875,0c0,1.588,0,3.188,0,4.776C67.004,48.194,66.721,48.194,66.425,48.194z"/>
<path fill="#BA2226" d="M34.74,46.028c0.431,0,0.861,0,1.292,0c0.875,0,1.735,0,2.61,0c0,2.314,0,4.629,0,6.942
	c-1.588,0-3.188,0-4.776,0c0-2.313,0-4.628,0-6.942C34.161,46.028,34.444,46.028,34.74,46.028z"/>
<path fill="#9B3421" d="M23.882,41.251c0.861,0,1.736,0,2.597,0c0,0.282,0,0.579,0,0.86c0,0.445,0,0.875,0,1.306
	c-0.861,0-1.735,0-2.597,0c0-0.431,0-0.86,0-1.306C23.882,41.831,23.882,41.534,23.882,41.251z"/>
<path fill="#211F30" d="M16.926,20.841c0,0.296,0,0.579,0,0.875c0,0.861,0,1.736,0,2.597c-0.861,0-1.735,0-2.597,0
	c0-0.431,0-0.861,0-1.305c0-0.431,0-0.861,0-1.292c0-0.296,0-0.579,0-0.875c0-0.431,0-0.875,0-1.305c0.861,0,1.736,0,2.597,0
	C16.926,19.966,16.926,20.41,16.926,20.841z"/>
<path fill="#211F30" d="M67.3,16.939c-2.314,0-4.629,0-6.942,0c0-0.875,0-1.749,0-2.61c2.313,0,4.628,0,6.942,0
	C67.3,15.19,67.3,16.064,67.3,16.939z"/>
<path fill="#211F30" d="M76.853,16.939c-0.727,0-1.453,0-2.18,0c0-0.875,0-1.749,0-2.61c1.601,0,3.188,0,4.776,0
	c0,0.861,0,1.735,0,2.61C78.588,16.939,77.713,16.939,76.853,16.939z"/>
<path fill="#762014" d="M69.896,55.581c0-1.305,0-2.61,0-3.916c0-1.156,0-2.313,0-3.471c0.874,0,1.749,0,2.61,0
	c0,0.296,0,0.578,0,0.875c0,0.43,0,0.861,0,1.291c0,0.875,0,1.75,0,2.61c1.601,0,3.188,0,4.776,0c0-0.282,0-0.579,0-0.86
	c0-0.445,0-0.875,0-1.306c0.296,0,0.578,0,0.874,0c0.431,0,0.861,0,1.292,0c0-0.296,0-0.579,0-0.874c0-1.44,0-2.893,0-4.346
	c0-0.283,0-0.579,0-0.861c0-0.432,0-0.875,0-1.306c0-0.282,0-0.579,0-0.86c0-0.445,0-0.875,0-1.306c0.874,0,1.749,0,2.61,0
	c0,0.135,0,0.282,0,0.431c0,0.578,0,1.156,0,1.735c0,1.588,0,3.188,0,4.776c0,0.431,0,0.875,0,1.305c0,0.283,0,0.579,0,0.861
	c0,0.444,0,0.875,0,1.305c0,0.445,0,0.875,0,1.306c0.43,0,0.874,0,1.305,0c0.282,0,0.578,0,0.861,0c0,0.874,0,1.735,0,2.61
	C79.449,55.581,74.673,55.581,69.896,55.581z"/>
<path fill="#9B1C1F" d="M74.673,41.251c0.874,0,1.749,0,2.61,0c0-0.874,0-1.735,0-2.61c-0.861,0-1.736,0-2.61,0
	C74.673,39.516,74.673,40.377,74.673,41.251z M40.808,25.618c0,0.282,0,0.578,0,0.861c0.875,0,1.735,0,2.61,0
	c0-0.432,0-0.861,0-1.293c0-0.295,0-0.578,0-0.874c-0.875,0-1.735,0-2.61,0C40.808,24.743,40.808,25.186,40.808,25.618z
	 M29.089,36.032c0-1.158,0-2.314,0-3.472c0-0.431,0-0.861,0-1.292h2.166c1.601,0,3.189,0,4.776,0c0-0.296,0-0.592,0-0.875
	c0-0.43,0-0.874,0-1.305c0.875,0,1.735,0,2.61,0c0-1.588,0-3.188,0-4.776c-0.875,0-1.735,0-2.61,0c0-0.861,0-1.735,0-2.597
	c-0.282,0-0.578,0-0.861,0c-1.305,0-2.61,0-3.916,0v-2.18c0-0.861,0-1.735,0-2.597c0.727,0,1.453,0,2.18,0c0.861,0,1.736,0,2.597,0
	c0-0.875,0-1.749,0-2.61c0.875,0,1.735,0,2.61,0c0,0.861,0,1.735,0,2.61c0.431,0,0.874,0,1.305,0c0.283,0,0.579,0,0.861,0
	c0,0.861,0,1.736,0,2.597c4.063,0,8.113,0,12.163,0c0-0.43,0-0.861,0-1.305c0-0.431,0-0.861,0-1.292c0.861,0,1.735,0,2.61,0
	c0-0.875,0-1.749,0-2.61c1.587,0,3.175,0,4.776,0c0,0.861,0,1.735,0,2.61c2.313,0,4.628,0,6.942,0c0,0.861,0,1.736,0,2.597
	c0.861,0,1.735,0,2.597,0c0,0.431,0,0.875,0,1.305c0,0.296,0,0.579,0,0.875c0,0.861,0,1.736,0,2.597c0,0.579,0,1.157,0,1.735
	c0,0.148,0,0.297,0,0.432c0.874,0,1.749,0,2.61,0c0,0.874,0,1.748,0,2.609c0.431,0,0.874,0,1.305,0c0.296,0,0.578,0,0.861,0
	c0,0.431,0,0.875,0,1.305c0,0.283,0,0.579,0,0.875c1.601,0,3.188,0,4.776,0c0.874,0,1.749,0,2.61,0c0,1.588,0,3.176,0,4.764
	c0,1.734,0,3.484,0,5.22c-0.861,0-1.736,0-2.61,0c0,0.431,0,0.86,0,1.306c0,0.281,0,0.578,0,0.86c0,0.431,0,0.874,0,1.306
	c0,0.282,0,0.578,0,0.861c0,1.453,0,2.905,0,4.346c0,0.295,0,0.578,0,0.874c-0.431,0-0.861,0-1.292,0c-0.296,0-0.578,0-0.874,0
	c0,0.431,0,0.86,0,1.306c0,0.281,0,0.578,0,0.86c-1.588,0-3.176,0-4.776,0c0-0.86,0-1.735,0-2.61c0-0.43,0-0.861,0-1.291
	c0-0.297,0-0.579,0-0.875c1.156,0,2.313,0,3.471,0c0.444,0,0.875,0,1.306,0c0-0.875,0-1.735,0-2.609c0-0.432,0-0.861,0-1.293
	c0-0.295,0-0.592,0-0.874c-0.861,0-1.736,0-2.61,0c-0.713,0-1.439,0-2.166,0c0,1.588,0,3.188,0,4.776c-0.861,0-1.736,0-2.61,0
	c0-0.43,0-0.875,0-1.305c0-0.283,0-0.578,0-0.861c0-0.443,0-0.875,0-1.305c0-0.432,0-0.875,0-1.306c-0.861,0-1.735,0-2.597,0
	c0-0.431,0-0.86,0-1.306c0-0.281,0-0.578,0-0.86c-0.431,0-0.875,0-1.306,0c-0.296,0-0.578,0-0.86,0c0-0.874,0-1.735,0-2.61
	c-0.875,0-1.749,0-2.61,0c0-0.875,0-1.735,0-2.609c-0.431,0-0.875,0-1.306,0c-0.282,0-0.578,0-0.86,0c-0.875,0-1.749,0-2.61,0
	c0-0.432,0-0.861,0-1.293c0-0.295,0-0.578,0-0.874c-0.431,0-0.875,0-1.306,0c-0.282,0-0.578,0-0.86,0c-8.113,0-16.213,0-24.326,0
	c0,0.431,0,0.874,0,1.306c0,0.282,0,0.578,0,0.861c-0.134,0-0.283,0-0.431,0s-0.282,0-0.43,0
	C29.963,36.032,29.52,36.032,29.089,36.032z"/>
<path fill="#762014" d="M69.896,26.047c0-0.578,0-1.156,0-1.735c0.874,0,1.749,0,2.61,0c0,0.296,0,0.579,0,0.874
	c0,0.432,0,0.861,0,1.293c-0.861,0-1.736,0-2.61,0C69.896,26.344,69.896,26.196,69.896,26.047z"/>
<path fill="#FFFFFF" d="M94.222,47.319c0,0.297,0,0.593,0,0.875c-3.336,0-6.659,0-9.996,0c0-0.875,0-1.735,0-2.609
	c0-0.432,0-0.861,0-1.293c0-0.295,0-0.592,0-0.874c0-0.431,0-0.86,0-1.306c0-0.281,0-0.578,0-0.86c0.727,0,1.453,0,2.18,0
	c0.86,0,1.735,0,2.597,0c0,0.431,0,0.86,0,1.306c0,0.281,0,0.578,0,0.86c1.749,0,3.484,0,5.22,0c0,0.874,0,1.735,0,2.61
	C94.222,46.458,94.222,46.889,94.222,47.319z"/>
<path fill="#211F30" d="M27.353,16.939c1.305,0,2.61,0,3.902,0c0,0.861,0,1.736,0,2.597c-0.431,0-0.861,0-1.292,0
	c-0.727,0-1.453,0-2.18,0c-0.431,0-0.861,0-1.305,0c0,0.296,0,0.579,0,0.875c0,0.431,0,0.861,0,1.305c-0.861,0-1.735,0-2.597,0
	c0-0.296,0-0.579,0-0.875c0-0.431,0-0.875,0-1.305c0-0.861,0-1.735,0-2.597C25.039,16.939,26.196,16.939,27.353,16.939z"/>
<path fill="#211F30" d="M82.06,31.268c0.296,0,0.578,0,0.874,0c0.431,0,0.861,0,1.292,0c0,0.135,0,0.283,0,0.431
	c0,1.439,0,2.893,0,4.333c-0.283,0-0.579,0-0.861,0c-0.431,0-0.875,0-1.305,0C82.06,34.444,82.06,32.856,82.06,31.268z"/>
<path fill="#211F30" d="M48.194,0c0,0.861,0,1.735,0,2.61c-0.875,0-1.735,0-2.61,0c0-0.875,0-1.749,0-2.61
	C46.459,0,47.319,0,48.194,0z"/>
<path fill="#211F30" d="M52.971,46.028c0,2.314,0,4.629,0,6.942c-0.431,0-0.875,0-1.306,0c-0.282,0-0.578,0-0.86,0
	c0-2.313,0-4.628,0-6.942c0.282,0,0.578,0,0.86,0C52.096,46.028,52.54,46.028,52.971,46.028z"/>
<path fill="#211F30" d="M60.357,42.112c0,0.445,0,0.875,0,1.306c-0.875,0-1.749,0-2.61,0c-0.727,0-1.453,0-2.166,0
	c0-0.431,0-0.86,0-1.306c0-0.281,0-0.578,0-0.86c0.713,0,1.439,0,2.166,0c0.861,0,1.735,0,2.61,0
	C60.357,41.534,60.357,41.831,60.357,42.112z"/>
<path fill="#211F30" d="M94.222,42.112c0,0.445,0,0.875,0,1.306c-1.735,0-3.471,0-5.22,0c0-0.282,0-0.579,0-0.86
	c0-0.445,0-0.875,0-1.306c1.749,0,3.484,0,5.22,0C94.222,41.534,94.222,41.831,94.222,42.112z"/>
<path fill="#9B3421" d="M19.105,55.581c0-2.463,0-4.924,0-7.387c0.861,0,1.736,0,2.597,0c0,1.157,0,2.314,0,3.471
	c0,1.306,0,2.611,0,3.916c-0.431,0-0.861,0-1.292,0C19.967,55.581,19.536,55.581,19.105,55.581z"/>
<path fill="#211F30" d="M28.658,38.641c-0.727,0-1.453,0-2.18,0c0-0.875,0-1.735,0-2.609c0.875,0,1.749,0,2.61,0
	c0.431,0,0.875,0,1.305,0c0.148,0,0.282,0,0.43,0s0.296,0,0.431,0c0,0.874,0,1.734,0,2.609
	C30.394,38.641,29.52,38.641,28.658,38.641z"/>
<path fill="#762014" d="M52.971,19.536c-4.05,0-8.1,0-12.163,0c0-0.861,0-1.735,0-2.597c0.875,0,1.735,0,2.61,0
	c0.727,0,1.453,0,2.166,0c0.875,0,1.735,0,2.61,0c0.727,0,1.453,0,2.166,0c0.875,0,1.735,0,2.61,0c0,0.431,0,0.861,0,1.292
	C52.971,18.675,52.971,19.105,52.971,19.536z"/>
<path fill="#9B3421" d="M60.357,38.641c0,0.875,0,1.736,0,2.61c-0.875,0-1.749,0-2.61,0c-0.727,0-1.453,0-2.166,0
	c0-0.874,0-1.735,0-2.61c0.713,0,1.439,0,2.166,0C58.608,38.641,59.482,38.641,60.357,38.641z"/>
<path fill="#9B3421" d="M65.134,43.417c0,1.588,0,3.188,0,4.776c-0.875,0-1.749,0-2.61,0c0-1.588,0-3.188,0-4.776
	C63.385,43.417,64.259,43.417,65.134,43.417z"/>
<path fill="#211F30" d="M21.702,16.939c-0.861,0-1.735,0-2.597,0c0-0.875,0-1.749,0-2.61c1.588,0,3.175,0,4.776,0
	c0,0.861,0,1.735,0,2.61C23.155,16.939,22.429,16.939,21.702,16.939z"/>
<path fill="#211F30" d="M23.882,21.715c0,0.861,0,1.736,0,2.597c-0.296,0-0.579,0-0.875,0c-0.431,0-0.861,0-1.305,0
	c0-0.861,0-1.735,0-2.597c0.296,0,0.579,0,0.875,0C23.007,21.715,23.451,21.715,23.882,21.715z"/>
<path fill="#211F30" d="M45.584,46.028c0,2.314,0,4.629,0,6.942c-0.135,0-0.282,0-0.431,0c-0.578,0-1.157,0-1.735,0
	c0-2.313,0-4.628,0-6.942c0.296,0,0.578,0,0.861,0C44.723,46.028,45.153,46.028,45.584,46.028z"/>
<path fill="#211F30" d="M39.516,46.028c0.431,0,0.861,0,1.292,0c0,2.314,0,4.629,0,6.942c-0.431,0-0.861,0-1.292,0
	c-0.296,0-0.578,0-0.874,0c0-2.313,0-4.628,0-6.942C38.938,46.028,39.22,46.028,39.516,46.028z"/>
<path fill="#211F30" d="M2.167,48.194c0.875,0,1.735,0,2.61,0c0,0.875,0,1.736,0,2.61c-0.875,0-1.735,0-2.61,0
	C2.167,49.93,2.167,49.069,2.167,48.194z"/>
<path fill="#9B3421" d="M61.648,43.417c-0.431,0-0.861,0-1.291,0c0-0.431,0-0.86,0-1.306c0-0.281,0-0.578,0-0.86
	c0.43,0,0.86,0,1.291,0c0.296,0,0.579,0,0.875,0c0,0.282,0,0.579,0,0.86c0,0.445,0,0.875,0,1.306
	C62.228,43.417,61.944,43.417,61.648,43.417z"/>
<path fill="#211F30" d="M50.805,8.678c0-0.431,0-0.861,0-1.292c0-0.875,0-1.749,0-2.61c0.282,0,0.578,0,0.86,0
	c0.431,0,0.875,0,1.306,0c0,0.431,0,0.861,0,1.305c0,0.43,0,0.861,0,1.305c0,0.283,0,0.579,0,0.861c0,0.431,0,0.875,0,1.305
	c-0.296,0-0.579,0-0.875,0c-0.431,0-0.86,0-1.291,0C50.805,9.257,50.805,8.974,50.805,8.678z"/>
<path fill="#211F30" d="M95.527,46.028c-0.444,0-0.875,0-1.306,0c0-0.875,0-1.736,0-2.61c0.283,0,0.579,0,0.861,0
	c0.444,0,0.875,0,1.306,0c0,0.874,0,1.735,0,2.61C96.092,46.028,95.81,46.028,95.527,46.028z"/>
<path fill="#211F30" d="M23.882,42.112c0,0.445,0,0.875,0,1.306c-0.296,0-0.579,0-0.875,0c-0.431,0-0.861,0-1.305,0
	c0-0.282,0-0.579,0-0.86c0-0.445,0-0.875,0-1.306c0.444,0,0.875,0,1.305,0c0.296,0,0.579,0,0.875,0
	C23.882,41.534,23.882,41.831,23.882,42.112z"/>
<path fill="#762014" d="M66.425,43.417c-0.431,0-0.861,0-1.291,0c0-0.431,0-0.86,0-1.306c0-0.281,0-0.578,0-0.86
	c0.282,0,0.564,0,0.86,0c0.431,0,0.875,0,1.306,0c0,0.282,0,0.579,0,0.86c0,0.445,0,0.875,0,1.306
	C67.004,43.417,66.721,43.417,66.425,43.417z"/>
<path fill="#280F0C" d="M29.089,32.56c0,1.157,0,2.313,0,3.472c-0.861,0-1.736,0-2.61,0c-0.431,0-0.861,0-1.292,0
	c-0.444,0-0.875,0-1.305,0c0-1.588,0-3.176,0-4.764c1.736,0,3.471,0,5.207,0C29.089,31.699,29.089,32.129,29.089,32.56z"/>
<path fill="#762014" d="M19.105,26.479c0.861,0,1.736,0,2.597,0c0,0.874,0,1.748,0,2.609c-0.861,0-1.735,0-2.597,0
	C19.105,28.227,19.105,27.353,19.105,26.479z"/>
<path fill="#211F30" d="M94.222,51.665c0,0.445,0,0.875,0,1.306c-1.735,0-3.471,0-5.22,0c0-0.431,0-0.86,0-1.306
	c0-0.281,0-0.578,0-0.86c1.749,0,3.484,0,5.22,0C94.222,51.086,94.222,51.383,94.222,51.665z"/>
<path fill="#211F30" d="M50.805,14.329c0.431,0,0.86,0,1.291,0c0.296,0,0.579,0,0.875,0c0,0.861,0,1.735,0,2.61
	c-0.875,0-1.735,0-2.61,0c-0.713,0-1.439,0-2.166,0c0-0.875,0-1.749,0-2.61C49.056,14.329,49.93,14.329,50.805,14.329z"/>
<path fill="#48475B" d="M33.865,52.97c0,0.874,0,1.735,0,2.61c-0.875,0-1.736,0-2.61,0c0-0.875,0-1.736,0-2.61
	C32.129,52.97,32.991,52.97,33.865,52.97z"/>
<path fill="#D8E1E4" d="M18.231,21.715c-0.431,0-0.861,0-1.305,0c0-0.296,0-0.579,0-0.875c0-0.431,0-0.875,0-1.305
	c0.296,0,0.579,0,0.875,0c0.431,0,0.861,0,1.305,0c0,0.148,0,0.296,0,0.431c0,0.579,0,1.17,0,1.749
	C18.81,21.715,18.527,21.715,18.231,21.715z"/>
<path fill="#211F30" d="M83.364,43.417c-0.431,0-0.875,0-1.305,0c0-0.579,0-1.157,0-1.735c0-0.148,0-0.296,0-0.431
	c0.296,0,0.578,0,0.874,0c0.431,0,0.861,0,1.292,0c0,0.282,0,0.579,0,0.86c0,0.445,0,0.875,0,1.306
	C83.942,43.417,83.646,43.417,83.364,43.417z"/>
<path fill="#FFFFFF" d="M48.194,12.163c-2.462,0-4.925,0-7.387,0c0-0.875,0-1.749,0-2.61c0.875,0,1.735,0,2.61,0
	c0-0.579,0-1.157,0-1.736c0-0.296,0-0.579,0-0.875c0-0.431,0-0.861,0-1.305c0-0.282,0-0.579,0-0.861c0.431,0,0.861,0,1.305,0
	c0.283,0,0.579,0,0.861,0c0.875,0,1.735,0,2.61,0C48.194,7.238,48.194,9.701,48.194,12.163z"/>
<path fill="#211F30" d="M79.449,29.088c-1.588,0-3.176,0-4.776,0c0-0.861,0-1.735,0-2.609c0.874,0,1.749,0,2.61,0
	c0.43,0,0.874,0,1.305,0c0.282,0,0.578,0,0.861,0c0-0.432,0-0.861,0-1.293c0-0.295,0-0.578,0-0.874c0.874,0,1.749,0,2.61,0
	c0,2.314,0,4.628,0,6.956c-0.861,0-1.736,0-2.61,0c0-0.443,0-0.875,0-1.305C79.449,29.667,79.449,29.385,79.449,29.088z"/>
<path fill="#211F30" d="M94.222,50.804c0-0.874,0-1.735,0-2.61c0.431,0,0.861,0,1.306,0c0.282,0,0.564,0,0.861,0
	c0,0.875,0,1.736,0,2.61c-0.297,0-0.579,0-0.861,0C95.083,50.804,94.652,50.804,94.222,50.804z"/>
<path fill="#63677A" d="M38.642,43.417c2.314,0,4.628,0,6.942,0c0,0.874,0,1.735,0,2.61c-0.431,0-0.861,0-1.305,0
	c-0.283,0-0.565,0-0.861,0c0,2.314,0,4.629,0,6.942c0,0.874,0,1.735,0,2.61c-0.875,0-1.735,0-2.61,0c0-0.875,0-1.736,0-2.61
	c0-2.313,0-4.628,0-6.942c-0.431,0-0.861,0-1.292,0c-0.296,0-0.578,0-0.874,0C38.642,45.153,38.642,44.292,38.642,43.417z"/>
<path fill="#280F0C" d="M82.06,21.715c0,0.861,0,1.736,0,2.597c-0.861,0-1.736,0-2.61,0c0-0.861,0-1.735,0-2.597
	C80.323,21.715,81.198,21.715,82.06,21.715z"/>
<path fill="#BA2226" d="M50.805,46.028c0,2.314,0,4.629,0,6.942c-1.749,0-3.485,0-5.221,0c0-2.313,0-4.628,0-6.942
	C47.319,46.028,49.056,46.028,50.805,46.028z"/>
<path fill="#48475B" d="M23.882,48.194c0.861,0,1.736,0,2.597,0c0-0.875,0-1.735,0-2.609c0-0.432,0-0.861,0-1.293
	c0-0.295,0-0.592,0-0.874c0.727,0,1.453,0,2.18,0c0.861,0,1.736,0,2.597,0c0-0.431,0-0.86,0-1.306c0-0.281,0-0.578,0-0.86
	c8.113,0,16.213,0,24.326,0c0,0.282,0,0.579,0,0.86c0,0.445,0,0.875,0,1.306c-0.875,0-1.749,0-2.61,0c-0.727,0-1.453,0-2.166,0
	c-1.749,0-3.485,0-5.221,0c-2.314,0-4.628,0-6.942,0c-1.453,0-2.893,0-4.346,0c-0.134,0-0.282,0-0.43,0c0,0.874,0,1.735,0,2.61
	c-0.875,0-1.736,0-2.61,0c0,0.431,0,0.861,0,1.291c0,0.297,0,0.593,0,0.875c-0.431,0-0.861,0-1.292,0c-0.296,0-0.579,0-0.875,0
	c0,2.463,0,4.924,0,7.387c-1.736,0-3.471,0-5.207,0c0-1.305,0-2.61,0-3.916C23.882,50.508,23.882,49.351,23.882,48.194z"/>
<path fill="#211F30" d="M23.882,48.194c0-1.588,0-3.188,0-4.776c0.861,0,1.736,0,2.597,0c0,0.282,0,0.579,0,0.874
	c0,0.432,0,0.861,0,1.293c0,0.874,0,1.734,0,2.609C25.618,48.194,24.743,48.194,23.882,48.194z"/>
<path fill="#D8E1E4" d="M78.157,21.715c0.431,0,0.861,0,1.292,0c0,0.861,0,1.736,0,2.597c-0.283,0-0.579,0-0.861,0
	c-0.431,0-0.875,0-1.305,0c0-0.861,0-1.735,0-2.597C77.579,21.715,77.861,21.715,78.157,21.715z"/>
<path fill="#FFFFFF" d="M16.926,19.536c0-1.735,0-3.471,0-5.207c0.444,0,0.875,0,1.305,0c0.296,0,0.579,0,0.875,0
	c0,0.861,0,1.735,0,2.61c0.861,0,1.736,0,2.597,0c0.727,0,1.453,0,2.18,0c0,0.861,0,1.736,0,2.597c0,0.431,0,0.875,0,1.305
	c0,0.296,0,0.579,0,0.875c-0.431,0-0.875,0-1.305,0c-0.296,0-0.579,0-0.875,0c-0.861,0-1.735,0-2.597,0c0-0.579,0-1.17,0-1.749
	c0-0.134,0-0.282,0-0.431c-0.444,0-0.875,0-1.305,0C17.504,19.536,17.222,19.536,16.926,19.536z"/>
<path fill="#211F30" d="M13.024,36.032c0.431,0,0.875,0,1.305,0c0,1.305,0,2.609,0,3.914c0,0.283,0,0.579,0,0.875
	c0,0.431,0,0.861,0,1.291c0,0.297,0,0.579,0,0.875c0,0.431,0,0.861,0,1.305c0,0.283,0,0.579,0,0.861c0,0.432,0,0.875,0,1.306
	c0,0.296,0,0.579,0,0.86c0,0.445,0,0.875,0,1.306c0,0.296,0,0.579,0,0.874c0,0.432,0,0.861,0,1.306c0,0.282,0,0.579,0,0.86
	c0,0.445,0,0.875,0,1.306c0,0.874,0,1.735,0,2.61c-0.296,0-0.579,0-0.875,0c-0.431,0-0.861,0-1.305,0c-0.861,0-1.735,0-2.597,0
	c0-0.875,0-1.736,0-2.61c0.861,0,1.736,0,2.597,0c0-0.431,0-0.86,0-1.306c0-0.281,0-0.578,0-0.86c0-0.874,0-1.735,0-2.61
	c0-2.314,0-4.629,0-6.942c-0.861,0-1.735,0-2.597,0c0-0.874,0-1.735,0-2.61c0.861,0,1.736,0,2.597,0c0-0.875,0-1.735,0-2.609
	C12.445,36.032,12.728,36.032,13.024,36.032z"/>
<path fill="#211F30" d="M26.479,38.641c0,0.875,0,1.736,0,2.61c-0.861,0-1.735,0-2.597,0c0-0.874,0-1.735,0-2.61
	C24.743,38.641,25.618,38.641,26.479,38.641z"/>
<path fill="#D8E1E4" d="M16.926,14.329c0,1.735,0,3.471,0,5.207c-0.861,0-1.735,0-2.597,0c0-1.735,0-3.471,0-5.207
	C15.19,14.329,16.065,14.329,16.926,14.329z"/>
<path fill="#762014" d="M84.226,36.032c0,1.734,0,3.484,0,5.22c-0.431,0-0.861,0-1.292,0c-0.296,0-0.578,0-0.874,0
	c0-1.735,0-3.485,0-5.22c0.43,0,0.874,0,1.305,0C83.646,36.032,83.942,36.032,84.226,36.032z"/>
<path fill="#280F0C" d="M52.971,9.553c0,1.587,0,3.188,0,4.776c-0.296,0-0.579,0-0.875,0c-0.431,0-0.86,0-1.291,0
	c0-1.588,0-3.189,0-4.776c0.431,0,0.86,0,1.291,0C52.392,9.553,52.675,9.553,52.971,9.553z"/>
<path fill="#280F0C" d="M30.394,24.312c0.282,0,0.578,0,0.861,0c0-0.861,0-1.735,0-2.597c1.305,0,2.61,0,3.916,0
	c0.283,0,0.579,0,0.861,0c0,0.861,0,1.736,0,2.597c0.875,0,1.735,0,2.61,0c0,1.588,0,3.188,0,4.776c-0.875,0-1.735,0-2.61,0
	c0,0.431,0,0.875,0,1.305c0,0.283,0,0.579,0,0.875c-1.587,0-3.175,0-4.776,0c0-0.592,0-1.17,0-1.749c0-0.134,0-0.282,0-0.431
	c-0.431,0-0.861,0-1.292,0c-0.296,0-0.579,0-0.875,0c0-1.305,0-2.609,0-3.902c0-0.295,0-0.578,0-0.874
	C29.52,24.312,29.963,24.312,30.394,24.312z"/>
<path fill="#211F30" d="M50.805,46.028c-1.749,0-3.485,0-5.221,0c0-0.875,0-1.736,0-2.61c1.735,0,3.472,0,5.221,0
	C50.805,44.292,50.805,45.153,50.805,46.028z"/>
<path fill="#9B3421" d="M65.134,55.581c0-0.443,0-0.875,0-1.305c0-2.032,0-4.051,0-6.082c0.43,0,0.86,0,1.291,0
	c0.296,0,0.579,0,0.875,0c0,1.01,0,2.031,0,3.041c0,1.009,0,2.018,0,3.041c0,0.43,0,0.861,0,1.305c-0.296,0-0.579,0-0.875,0
	C65.994,55.581,65.563,55.581,65.134,55.581z"/>
<path fill="#D8E1E4" d="M4.776,46.028c0,0.283,0,0.578,0,0.861c0,0.43,0,0.875,0,1.305c-0.875,0-1.735,0-2.61,0
	c0-0.43,0-0.875,0-1.305c0-0.283,0-0.578,0-0.861C3.041,46.028,3.902,46.028,4.776,46.028z"/>
<path fill="#9B3421" d="M55.581,38.641c-8.113,0-16.213,0-24.326,0c0-0.875,0-1.735,0-2.609c8.113,0,16.213,0,24.326,0
	C55.581,36.906,55.581,37.766,55.581,38.641z"/>
<path fill="#9B1C1F" d="M16.926,50.804c0,0.713,0,1.439,0,2.166c-0.861,0-1.735,0-2.597,0c0-0.431,0-0.86,0-1.306
	c0-0.281,0-0.578,0-0.86c0-0.444,0-0.874,0-1.306c0-0.295,0-0.578,0-0.874c0-0.431,0-0.86,0-1.306c0-0.281,0-0.564,0-0.86
	c0-0.431,0-0.874,0-1.306c0-0.282,0-0.578,0-0.861c0-0.443,0-0.874,0-1.305c0-0.296,0-0.578,0-0.875c0-0.43,0-0.86,0-1.291
	c0-0.296,0-0.592,0-0.875c0-1.305,0-2.609,0-3.914c0.861,0,1.736,0,2.597,0c0-0.861,0-1.736,0-2.598c0-0.43,0-0.874,0-1.305
	c0-0.296,0-0.578,0-0.861c0.579,0,1.157,0,1.736,0c0.148,0,0.296,0,0.444,0c0-0.443,0-0.875,0-1.305c0-0.297,0-0.578,0-0.875
	c0.861,0,1.736,0,2.597,0c0-0.861,0-1.735,0-2.609c0.579,0,1.157,0,1.749,0c0.135,0,0.283,0,0.431,0c0-0.432,0-0.861,0-1.293
	c0-0.295,0-0.578,0-0.874c0.861,0,1.736,0,2.597,0c0-0.861,0-1.735,0-2.597c0-0.444,0-0.875,0-1.305c0-0.296,0-0.578,0-0.875
	c0.444,0,0.875,0,1.305,0c0.727,0,1.453,0,2.18,0c0.431,0,0.861,0,1.292,0v2.18c0,0.861,0,1.736,0,2.597c-0.283,0-0.579,0-0.861,0
	c-0.431,0-0.875,0-1.305,0c0,0.296,0,0.579,0,0.874c0,1.293,0,2.598,0,3.902c0.296,0,0.579,0,0.875,0c0.431,0,0.861,0,1.292,0
	c0,0.148,0,0.297,0,0.431c0,0.579,0,1.157,0,1.749h-2.166c-1.736,0-3.471,0-5.207,0c0,1.588,0,3.176,0,4.764
	c0.431,0,0.861,0,1.305,0c0.431,0,0.861,0,1.292,0c0,0.874,0,1.734,0,2.609c-0.861,0-1.735,0-2.597,0c0,0.875,0,1.736,0,2.61
	c-0.296,0-0.579,0-0.875,0c-0.431,0-0.861,0-1.305,0c0,0.431,0,0.86,0,1.306c0,0.281,0,0.578,0,0.86c-0.861,0-1.735,0-2.597,0
	c0,1.588,0,3.188,0,4.776c-0.444,0-0.875,0-1.305,0c-0.296,0-0.579,0-0.875,0C16.926,49.069,16.926,49.93,16.926,50.804z"/>
<path fill="#762014" d="M79.449,31.268c-1.588,0-3.176,0-4.776,0c0-0.296,0-0.592,0-0.875c0-0.43,0-0.874,0-1.305
	c1.601,0,3.188,0,4.776,0c0,0.297,0,0.578,0,0.875C79.449,30.393,79.449,30.825,79.449,31.268z"/>
<path fill="#211F30" d="M28.658,43.417c-0.727,0-1.453,0-2.18,0c0-0.431,0-0.86,0-1.306c0-0.281,0-0.578,0-0.86
	c0.727,0,1.453,0,2.18,0c0.861,0,1.736,0,2.597,0c0,0.282,0,0.579,0,0.86c0,0.445,0,0.875,0,1.306
	C30.394,43.417,29.52,43.417,28.658,43.417z"/>
<path fill="#762014" d="M39.516,14.329c0.431,0,0.861,0,1.292,0c0,0.861,0,1.735,0,2.61c-0.282,0-0.578,0-0.861,0
	c-0.431,0-0.874,0-1.305,0c0-0.875,0-1.749,0-2.61C38.938,14.329,39.22,14.329,39.516,14.329z"/>
<path fill="#211F30" d="M69.896,20.841c0-0.431,0-0.875,0-1.305c-0.861,0-1.735,0-2.597,0c0-0.861,0-1.735,0-2.597
	c1.157,0,2.313,0,3.471,0c1.306,0,2.61,0,3.902,0c0,0.861,0,1.736,0,2.597c-0.283,0-0.565,0-0.861,0c-0.431,0-0.874,0-1.305,0
	c0,0.296,0,0.579,0,0.875c0,0.431,0,0.861,0,1.305c-0.861,0-1.736,0-2.61,0C69.896,21.419,69.896,21.137,69.896,20.841z"/>
<path fill="#211F30" d="M50.805,2.61c0,0.283,0,0.579,0,0.861c0,0.431,0,0.875,0,1.305c-0.875,0-1.749,0-2.61,0
	c0-0.431,0-0.875,0-1.305c0-0.283,0-0.579,0-0.861C49.056,2.61,49.93,2.61,50.805,2.61z"/>
<path fill="#211F30" d="M82.06,52.97c0-0.431,0-0.86,0-1.306c0-0.43,0-0.86,0-1.305c0-0.282,0-0.578,0-0.861c0-0.43,0-0.874,0-1.305
	c0.43,0,0.874,0,1.305,0c0.282,0,0.578,0,0.861,0c0,0.875,0,1.736,0,2.61c0,0.431,0,0.86,0,1.306c0,0.281,0,0.578,0,0.86
	c-0.283,0-0.579,0-0.861,0C82.934,52.97,82.489,52.97,82.06,52.97z"/>
<path fill="#762014" d="M61.648,38.641c-0.431,0-0.861,0-1.291,0c0-0.875,0-1.735,0-2.609c0.282,0,0.578,0,0.86,0
	c0.431,0,0.875,0,1.306,0c0,0.874,0,1.734,0,2.609C62.228,38.641,61.944,38.641,61.648,38.641z"/>
<path fill="#211F30" d="M55.581,41.251c-8.113,0-16.213,0-24.326,0c0-0.874,0-1.735,0-2.61c8.113,0,16.213,0,24.326,0
	C55.581,39.516,55.581,40.377,55.581,41.251z"/>
<path fill="#211F30" d="M34.295,43.417c1.454,0,2.893,0,4.346,0c0,0.874,0,1.735,0,2.61c-0.875,0-1.735,0-2.61,0
	c-0.431,0-0.861,0-1.292,0c-0.296,0-0.579,0-0.875,0c0-0.875,0-1.736,0-2.61C34.013,43.417,34.161,43.417,34.295,43.417z"/>
<path fill="#48475B" d="M60.357,43.417c0,0.874,0,1.735,0,2.61c-0.727,0-1.453,0-2.18,0c-0.861,0-1.736,0-2.597,0
	c0-0.875,0-1.736,0-2.61c0.713,0,1.439,0,2.166,0C58.608,43.417,59.482,43.417,60.357,43.417z"/>
<path fill="#211F30" d="M60.357,47.319c0-0.43,0-0.86,0-1.291c0-0.875,0-1.736,0-2.61c0.43,0,0.86,0,1.291,0
	c0.296,0,0.579,0,0.875,0c0,1.588,0,3.188,0,4.776c-0.296,0-0.579,0-0.875,0c-0.431,0-0.861,0-1.291,0
	C60.357,47.912,60.357,47.616,60.357,47.319z"/>
<path fill="#762014" d="M23.882,24.312c0,0.296,0,0.579,0,0.874c0,0.432,0,0.861,0,1.293c-0.148,0-0.296,0-0.431,0
	c-0.592,0-1.17,0-1.749,0c0-0.579,0-1.145,0-1.736c0-0.135,0-0.282,0-0.431c0.444,0,0.875,0,1.305,0
	C23.303,24.312,23.586,24.312,23.882,24.312z"/>
<path fill="#D8E1E4" d="M85.1,50.804c-0.282,0-0.578,0-0.874,0c0-0.874,0-1.735,0-2.61c3.337,0,6.66,0,9.996,0
	c0,0.875,0,1.736,0,2.61c-1.735,0-3.471,0-5.22,0c-0.861,0-1.736,0-2.597,0C85.975,50.804,85.53,50.804,85.1,50.804z"/>
<path fill="#211F30" d="M89.002,52.97c0,0.874,0,1.735,0,2.61c-1.588,0-3.176,0-4.776,0c0-0.875,0-1.736,0-2.61
	c0.727,0,1.453,0,2.18,0C87.266,52.97,88.141,52.97,89.002,52.97z"/>
<path fill="#211F30" d="M8.248,41.251c0.431,0,0.875,0,1.305,0c0,0.431,0,0.86,0,1.306c0,0.281,0,0.578,0,0.86
	c-0.875,0-1.735,0-2.61,0c-0.43,0-0.861,0-1.305,0c-0.283,0-0.579,0-0.861,0c0-0.282,0-0.579,0-0.86c0-0.445,0-0.875,0-1.306
	c0.431,0,0.861,0,1.305,0c0.431,0,0.861,0,1.292,0C7.669,41.251,7.952,41.251,8.248,41.251z"/>
<path fill="#762014" d="M74.673,26.479c0,0.874,0,1.748,0,2.609c-0.283,0-0.565,0-0.861,0c-0.431,0-0.874,0-1.305,0
	c0-0.861,0-1.735,0-2.609c0.431,0,0.874,0,1.305,0C74.107,26.479,74.39,26.479,74.673,26.479z"/>
<path fill="#280F0C" d="M74.673,43.417c0.874,0,1.749,0,2.61,0c0,0.282,0,0.579,0,0.874c0,0.432,0,0.861,0,1.293
	c0,0.874,0,1.734,0,2.609c-0.431,0-0.861,0-1.306,0c-1.157,0-2.314,0-3.471,0c0-1.588,0-3.188,0-4.776
	C73.233,43.417,73.96,43.417,74.673,43.417z"/>
<path fill="#211F30" d="M33.865,46.028c0,2.314,0,4.629,0,6.942c-0.875,0-1.736,0-2.61,0c0-0.86,0-1.735,0-2.61
	c0-0.43,0-0.861,0-1.291c0-0.297,0-0.579,0-0.875c0-0.282,0-0.578,0-0.875c0-0.43,0-0.86,0-1.291
	C32.129,46.028,32.991,46.028,33.865,46.028z"/>
<path fill="#63677A" d="M51.665,46.028c-0.282,0-0.578,0-0.86,0c0-0.875,0-1.736,0-2.61c0.713,0,1.439,0,2.166,0
	c0.861,0,1.735,0,2.61,0c0,0.874,0,1.735,0,2.61c0.86,0,1.735,0,2.597,0c0.727,0,1.453,0,2.18,0c0,0.431,0,0.861,0,1.291
	c0,0.297,0,0.593,0,0.875c0,0.875,0,1.736,0,2.61c0.43,0,0.86,0,1.291,0c0.296,0,0.579,0,0.875,0c0,1.587,0,3.175,0,4.776
	c-3.188,0-6.364,0-9.553,0c0-0.875,0-1.736,0-2.61c0-2.313,0-4.628,0-6.942C52.54,46.028,52.096,46.028,51.665,46.028z"/>
<path fill="#211F30" d="M55.581,36.032c-8.113,0-16.213,0-24.326,0c0-0.283,0-0.579,0-0.861c0-0.432,0-0.875,0-1.306
	c8.113,0,16.213,0,24.326,0c0,0.431,0,0.874,0,1.306C55.581,35.453,55.581,35.749,55.581,36.032z"/>
<path fill="#280F0C" d="M16.926,24.312c0-0.861,0-1.735,0-2.597c0.444,0,0.875,0,1.305,0c0.296,0,0.579,0,0.875,0
	c0,0.861,0,1.736,0,2.597c-0.296,0-0.579,0-0.875,0C17.8,24.312,17.37,24.312,16.926,24.312z"/>
<path fill="#280F0C" d="M40.808,25.618c0-0.432,0-0.875,0-1.306c0.875,0,1.735,0,2.61,0c0,0.296,0,0.579,0,0.874
	c0,0.432,0,0.861,0,1.293c-0.875,0-1.735,0-2.61,0C40.808,26.196,40.808,25.9,40.808,25.618z"/>
<path fill="#211F30" d="M98.998,46.028c0,0.283,0,0.578,0,0.861c0,0.43,0,0.875,0,1.305c-0.874,0-1.735,0-2.609,0
	c0-0.43,0-0.875,0-1.305c0-0.283,0-0.578,0-0.861C97.263,46.028,98.124,46.028,98.998,46.028z"/>
<path fill="#280F0C" d="M12.149,51.665c0,0.445,0,0.875,0,1.306c-0.861,0-1.735,0-2.597,0c0-0.431,0-0.86,0-1.306
	c0-0.281,0-0.578,0-0.86c0.861,0,1.736,0,2.597,0C12.149,51.086,12.149,51.383,12.149,51.665z"/>
<path fill="#211F30" d="M40.808,14.329c0.875,0,1.735,0,2.61,0c0,0.861,0,1.735,0,2.61c-0.875,0-1.735,0-2.61,0
	C40.808,16.064,40.808,15.19,40.808,14.329z"/>
<path fill="#211F30" d="M84.226,36.032c0.874,0,1.749,0,2.61,0c0,0.443,0,0.874,0,1.305c0,0.43,0,0.875,0,1.305
	c0.296,0,0.578,0,0.874,0c0.431,0,0.861,0,1.292,0c0,0.875,0,1.736,0,2.61c-0.861,0-1.736,0-2.597,0c-0.727,0-1.453,0-2.18,0
	C84.226,39.516,84.226,37.766,84.226,36.032z"/>
<path fill="#280F0C" d="M78.588,24.312c0.282,0,0.578,0,0.861,0c0,0.296,0,0.579,0,0.874c0,0.432,0,0.861,0,1.293
	c-0.283,0-0.579,0-0.861,0c-0.431,0-0.875,0-1.305,0c0-0.432,0-0.861,0-1.293c0-0.295,0-0.578,0-0.874
	C77.713,24.312,78.157,24.312,78.588,24.312z"/>
<path fill="#48475B" d="M43.418,14.329c1.588,0,3.188,0,4.776,0c0,0.861,0,1.735,0,2.61c-0.875,0-1.735,0-2.61,0
	c-0.713,0-1.439,0-2.166,0C43.418,16.064,43.418,15.19,43.418,14.329z"/>
<path fill="#211F30" d="M16.926,32.129c0,0.431,0,0.875,0,1.305c0,0.861,0,1.736,0,2.598c-0.861,0-1.735,0-2.597,0
	c0-0.283,0-0.579,0-0.861c0-0.432,0-0.875,0-1.306c0-0.86,0-1.735,0-2.597c0.861,0,1.736,0,2.597,0
	C16.926,31.551,16.926,31.833,16.926,32.129z"/>
<path fill="#D8E1E4" d="M82.06,20.841c0,0.296,0,0.579,0,0.875c-0.861,0-1.736,0-2.61,0c0-0.296,0-0.579,0-0.875
	c0-0.431,0-0.875,0-1.305c0.874,0,1.749,0,2.61,0C82.06,19.966,82.06,20.41,82.06,20.841z"/>
<path fill="#762014" d="M65.134,38.641c0,0.875,0,1.736,0,2.61c-0.875,0-1.749,0-2.61,0c0-0.874,0-1.735,0-2.61
	C63.385,38.641,64.259,38.641,65.134,38.641z"/>
<path fill="#211F30" d="M16.926,31.268c0-2.328,0-4.642,0-6.956c0.444,0,0.875,0,1.305,0c0.296,0,0.579,0,0.875,0
	c0.861,0,1.736,0,2.597,0c0,0.148,0,0.296,0,0.431c0,0.592,0,1.157,0,1.736c-0.861,0-1.735,0-2.597,0c0,0.874,0,1.748,0,2.609
	c0,0.297,0,0.578,0,0.875c0,0.43,0,0.861,0,1.305c-0.148,0-0.296,0-0.444,0C18.083,31.268,17.504,31.268,16.926,31.268z"/>
<path fill="#211F30" d="M12.149,18.231c0-0.283,0-0.579,0-0.861c0-0.579,0-1.157,0-1.735c0-1.157,0-2.314,0-3.472
	c2.328,0,4.642,0,6.956,0c0,0.283,0,0.579,0,0.861c0,0.431,0,0.875,0,1.305c-0.296,0-0.579,0-0.875,0c-0.431,0-0.861,0-1.305,0
	c-0.861,0-1.735,0-2.597,0c0,1.735,0,3.471,0,5.207c-0.296,0-0.579,0-0.875,0c-0.431,0-0.861,0-1.305,0
	C12.149,19.105,12.149,18.675,12.149,18.231z"/>
<path fill="#48475B" d="M39.516,52.97c0.431,0,0.861,0,1.292,0c0,0.874,0,1.735,0,2.61c-0.282,0-0.578,0-0.861,0
	c-0.431,0-0.874,0-1.305,0c0-0.875,0-1.736,0-2.61C38.938,52.97,39.22,52.97,39.516,52.97z"/>
<path fill="#48475B" d="M69.896,24.312c0-0.861,0-1.735,0-2.597c0.874,0,1.749,0,2.61,0c0,0.861,0,1.736,0,2.597
	C71.646,24.312,70.771,24.312,69.896,24.312z"/>
<path fill="#D8E1E4" d="M82.06,19.536c0-1.735,0-3.471,0-5.207c0.296,0,0.578,0,0.874,0c0.431,0,0.861,0,1.292,0
	c0,0.43,0,0.861,0,1.305c0,0.43,0,0.861,0,1.305c0,0.861,0,1.736,0,2.597c-0.431,0-0.861,0-1.292,0
	C82.638,19.536,82.355,19.536,82.06,19.536z"/>
<path fill="#63677A" d="M29.963,48.194c0.431,0,0.861,0,1.292,0c0,0.296,0,0.578,0,0.875c0,0.43,0,0.861,0,1.291
	c0,0.875,0,1.75,0,2.61c0,0.874,0,1.735,0,2.61c-0.283,0-0.579,0-0.861,0c-0.431,0-0.875,0-1.305,0c0-2.463,0-4.924,0-7.387
	C29.385,48.194,29.667,48.194,29.963,48.194z"/>
<path fill="#48475B" d="M74.673,25.186c0,0.432,0,0.861,0,1.293c-0.283,0-0.565,0-0.861,0c-0.431,0-0.874,0-1.305,0
	c0-0.432,0-0.861,0-1.293c0-0.295,0-0.578,0-0.874c0.296,0,0.578,0,0.874,0c0.431,0,0.861,0,1.292,0
	C74.673,24.608,74.673,24.891,74.673,25.186z"/>
<path fill="#762014" d="M55.581,14.329c0,0.861,0,1.735,0,2.61c-0.875,0-1.749,0-2.61,0c0-0.875,0-1.749,0-2.61
	C53.832,14.329,54.706,14.329,55.581,14.329z"/>
<path fill="#211F30" d="M16.926,50.804c0-0.874,0-1.735,0-2.61c0.296,0,0.579,0,0.875,0c0.431,0,0.861,0,1.305,0
	c0,2.463,0,4.924,0,7.387c0.431,0,0.861,0,1.305,0c0.431,0,0.861,0,1.292,0c0-1.305,0-2.61,0-3.916c0-1.156,0-2.313,0-3.471
	c0.444,0,0.875,0,1.305,0c0.296,0,0.579,0,0.875,0c0,1.157,0,2.314,0,3.471c0,1.306,0,2.611,0,3.916c1.736,0,3.471,0,5.207,0
	c0.431,0,0.875,0,1.305,0c0.282,0,0.578,0,0.861,0c0.875,0,1.736,0,2.61,0c0-0.875,0-1.736,0-2.61c1.588,0,3.188,0,4.776,0
	c0,0.874,0,1.735,0,2.61c0.431,0,0.874,0,1.305,0c0.283,0,0.579,0,0.861,0c0.875,0,1.735,0,2.61,0c0.296,0,0.578,0,0.861,0
	c0.443,0,0.874,0,1.305,0c0-0.875,0-1.736,0-2.61c1.735,0,3.472,0,5.221,0c0,0.874,0,1.735,0,2.61c0.431,0,0.86,0,1.291,0
	c0.296,0,0.579,0,0.875,0c3.188,0,6.364,0,9.553,0c0-1.602,0-3.189,0-4.776c0-0.874,0-1.735,0-2.61c0.861,0,1.735,0,2.61,0
	c0,2.031,0,4.05,0,6.082c0,0.43,0,0.861,0,1.305c0.43,0,0.86,0,1.291,0c0.296,0,0.579,0,0.875,0c0-0.443,0-0.875,0-1.305
	c0-1.023,0-2.032,0-3.041c0-1.01,0-2.031,0-3.041c0.861,0,1.735,0,2.597,0c0,1.157,0,2.314,0,3.471c0,1.306,0,2.611,0,3.916
	c4.776,0,9.553,0,14.329,0c0,0.283,0,0.578,0,0.861c0,0.43,0,0.874,0,1.305c-2.893,0-5.786,0-8.679,0s-5.785,0-8.678,0
	c-2.906,0-5.799,0-8.691,0s-5.786,0-8.679,0c-5.785,0-11.584,0-17.37,0c-5.934,0-11.867,0-17.8,0c0-0.296,0-0.578,0-0.875
	c0-0.43,0-0.86,0-1.291c0.861,0,1.736,0,2.597,0c0-0.875,0-1.736,0-2.61C16.926,52.244,16.926,51.517,16.926,50.804z"/>
</svg>
