<?xml version="1.0" encoding="utf-8"?>
<!-- Generator: Adobe Illustrator 15.0.0, SVG Export Plug-In  -->
<!DOCTYPE svg PUBLIC "-//W3C//DTD SVG 1.1//EN" "http://www.w3.org/Graphics/SVG/1.1/DTD/svg11.dtd" [
	<!ENTITY ns_flows "http://ns.adobe.com/Flows/1.0/">
]>
<svg version="1.1"
	 xmlns="http://www.w3.org/2000/svg" xmlns:xlink="http://www.w3.org/1999/xlink" xmlns:a="http://ns.adobe.com/AdobeSVGViewerExtensions/3.0/"
	 x="0px" y="0px" width="110px" height="70px" viewBox="-8.64 -10.087 110 70" enable-background="new -8.64 -10.087 110 70"
	 xml:space="preserve">
<defs>
</defs>
<path fill="#9B3421" d="M65.133,45.584c0,1.588,0,3.188,0,4.776c-0.296,0-0.578,0-0.874,0c-0.431,0-0.861,0-1.306,0
	c0-1.588,0-3.188,0-4.776c0.444,0,0.875,0,1.306,0C64.555,45.584,64.837,45.584,65.133,45.584z"/>
<path fill="#211F30" d="M96.832,50.36c0,0.875,0,1.736,0,2.61c-0.875,0-1.749,0-2.61,0c0-0.874,0-1.735,0-2.61
	C95.083,50.36,95.957,50.36,96.832,50.36z"/>
<path fill="#D8E1E4" d="M84.669,52.971c0-0.874,0-1.735,0-2.61c0.282,0,0.578,0,0.861,0c0.443,0,0.874,0,1.305,0
	c0.444,0,0.875,0,1.305,0c0.431,0,0.875,0,1.306,0c0.282,0,0.578,0,0.861,0c0.443,0,0.874,0,1.305,0c0.444,0,0.875,0,1.305,0
	c0.431,0,0.875,0,1.306,0c0,0.875,0,1.736,0,2.61c-0.875,0-1.735,0-2.61,0c-0.431,0-0.861,0-1.305,0c-0.283,0-0.579,0-0.861,0
	c-0.875,0-1.735,0-2.61,0c-0.431,0-0.861,0-1.305,0C85.247,52.971,84.951,52.971,84.669,52.971z"/>
<path fill="#280F0C" d="M12.162,52.971c0,0.282,0,0.579,0,0.86c0,0.445,0,0.875,0,1.306c-0.296,0-0.578,0-0.874,0
	c-0.431,0-0.875,0-1.306,0c0-0.579,0-1.157,0-1.735c0-0.148,0-0.297,0-0.431c0.296,0,0.579,0,0.875,0
	C11.288,52.971,11.719,52.971,12.162,52.971z"/>
<path fill="#48475B" d="M45.583,14.329c0.875,0,1.75,0,2.61,0c0,0.283,0,0.579,0,0.861c0,0.431,0,0.875,0,1.305
	c-0.86,0-1.735,0-2.61,0c-0.43,0-0.86,0-1.291,0c-0.296,0-0.579,0-0.875,0c0-0.431,0-0.875,0-1.305c0-0.283,0-0.579,0-0.861
	c0.296,0,0.579,0,0.875,0C44.723,14.329,45.153,14.329,45.583,14.329z"/>
<path fill="#9B3421" d="M55.58,40.808c-7.965,0-15.93,0-23.882,0c0-0.875,0-1.735,0-2.609c7.952,0,15.917,0,23.882,0
	C55.58,39.072,55.58,39.933,55.58,40.808z"/>
<path fill="#211F30" d="M53.4,9.553c0.296,0,0.579,0,0.875,0c0.431,0,0.86,0,1.305,0c0,0.431,0,0.861,0,1.292
	c0,0.296,0,0.579,0,0.875c0.282,0,0.579,0,0.861,0c1.305,0,2.61,0,3.915,0c0,0.861,0,1.735,0,2.61c-0.874,0-1.735,0-2.61,0
	c-0.431,0-0.861,0-1.305,0c-0.282,0-0.579,0-0.861,0c-0.444,0-0.874,0-1.305,0c-0.296,0-0.579,0-0.875,0
	C53.4,12.728,53.4,11.141,53.4,9.553z"/>
<path fill="#211F30" d="M12.162,50.36c0-2.314,0-4.629,0-6.942c-0.443,0-0.874,0-1.305,0c-0.296,0-0.579,0-0.875,0
	c0-0.874,0-1.735,0-2.61c0.296,0,0.579,0,0.875,0c0.431,0,0.861,0,1.305,0c0-0.875,0-1.735,0-2.609c0.861,0,1.736,0,2.597,0
	c0,1.305,0,2.609,0,3.914c0,0.283,0,0.579,0,0.875c0,0.431,0,0.861,0,1.291c0,0.297,0,0.579,0,0.875c0,0.431,0,0.861,0,1.305
	c0,2.894,0,5.786,0,8.679c0,0.874,0,1.735,0,2.61c-1.587,0-3.175,0-4.776,0c0-0.875,0-1.736,0-2.61c0.431,0,0.875,0,1.306,0
	c0.296,0,0.578,0,0.874,0c0-0.431,0-0.86,0-1.306c0-0.281,0-0.578,0-0.86C12.162,52.097,12.162,51.235,12.162,50.36z"/>
<path fill="#211F30" d="M9.982,45.584c-1.735,0-3.471,0-5.206,0c0-0.282,0-0.579,0-0.86c0-0.445,0-0.875,0-1.306
	c1.735,0,3.471,0,5.206,0c0,0.135,0,0.282,0,0.431C9.982,44.427,9.982,45.005,9.982,45.584z"/>
<path fill="#211F30" d="M89.445,57.747c-1.588,0-3.188,0-4.776,0c0-0.875,0-1.736,0-2.61c0.282,0,0.578,0,0.861,0
	c0.443,0,0.874,0,1.305,0c0.875,0,1.735,0,2.61,0C89.445,56.011,89.445,56.872,89.445,57.747z"/>
<path fill="#211F30" d="M82.059,45.584c0-0.579,0-1.157,0-1.735c0-0.148,0-0.296,0-0.431c0.875,0,1.735,0,2.61,0
	c0,0.282,0,0.579,0,0.86c0,0.445,0,0.875,0,1.306C83.794,45.584,82.934,45.584,82.059,45.584z"/>
<path fill="#48475B" d="M62.953,50.36c0,0.875,0,1.736,0,2.61c-0.861,0-1.735,0-2.597,0c0-0.874,0-1.735,0-2.61
	C61.218,50.36,62.092,50.36,62.953,50.36z"/>
<path fill="#9B3421" d="M20.841,50.36c0.296,0,0.578,0,0.874,0c0,1.01,0,2.031,0,3.041c0,1.009,0,2.018,0,3.041
	c0,0.43,0,0.861,0,1.305c-0.296,0-0.578,0-0.874,0c-0.431,0-0.875,0-1.306,0c0-0.443,0-0.875,0-1.305c0-2.032,0-4.051,0-6.082
	C19.966,50.36,20.41,50.36,20.841,50.36z"/>
<path fill="#211F30" d="M55.58,43.418c-7.965,0-15.93,0-23.882,0c0-0.874,0-1.735,0-2.61c7.952,0,15.917,0,23.882,0
	C55.58,41.683,55.58,42.544,55.58,43.418z"/>
<path fill="#762014" d="M72.506,50.36c0,0.296,0,0.578,0,0.875c0,0.43,0,0.861,0,1.291c0,0.875,0,1.75,0,2.61
	c0.296,0,0.579,0,0.875,0c1.305,0,2.597,0,3.901,0c0-0.282,0-0.579,0-0.86c0-0.445,0-0.875,0-1.306c0.875,0,1.735,0,2.61,0
	c0-0.296,0-0.579,0-0.874c0-1.44,0-2.893,0-4.346c0-0.283,0-0.579,0-0.861c0-0.432,0-0.875,0-1.306c0-0.282,0-0.579,0-0.86
	c0-0.445,0-0.875,0-1.306c0.282,0,0.578,0,0.861,0c0.443,0,0.874,0,1.305,0c0,0.135,0,0.282,0,0.431c0,0.578,0,1.156,0,1.735
	c0,1.588,0,3.188,0,4.776c0,0.431,0,0.875,0,1.305c0,0.283,0,0.579,0,0.861c0,0.444,0,0.875,0,1.305c0,0.445,0,0.875,0,1.306
	c0.875,0,1.735,0,2.61,0c0,0.874,0,1.735,0,2.61c-4.925,0-9.849,0-14.76,0c0-1.305,0-2.61,0-3.916c0-1.156,0-2.313,0-3.471
	C70.771,50.36,71.645,50.36,72.506,50.36z"/>
<path fill="#762014" d="M67.729,43.418c0,0.282,0,0.579,0,0.86c0,0.445,0,0.875,0,1.306c-0.861,0-1.735,0-2.597,0
	c0-0.431,0-0.86,0-1.306c0-0.281,0-0.578,0-0.86C65.994,43.418,66.868,43.418,67.729,43.418z"/>
<path fill="#211F30" d="M91.611,43.418c0.875,0,1.735,0,2.61,0c0,0.282,0,0.579,0,0.86c0,0.445,0,0.875,0,1.306
	c-0.296,0-0.579,0-0.875,0c-0.431,0-0.86,0-1.291,0c-0.875,0-1.749,0-2.61,0c0-0.282,0-0.579,0-0.86c0-0.445,0-0.875,0-1.306
	c0.282,0,0.578,0,0.861,0C90.75,43.418,91.181,43.418,91.611,43.418z"/>
<path fill="#211F30" d="M41.251,48.194c0,2.314,0,4.629,0,6.942c-0.874,0-1.735,0-2.61,0c0-2.313,0-4.628,0-6.942
	C39.516,48.194,40.377,48.194,41.251,48.194z"/>
<path fill="#D8E1E4" d="M19.535,21.702c0.296,0,0.579,0,0.875,0c0.431,0,0.861,0,1.305,0c0,0.296,0,0.579,0,0.875
	c0,0.431,0,0.861,0,1.305c-0.296,0-0.578,0-0.874,0c-0.431,0-0.875,0-1.306,0c0-0.444,0-0.875,0-1.305
	C19.535,22.281,19.535,21.999,19.535,21.702z"/>
<path fill="#211F30" d="M31.698,52.526c0-0.43,0-0.861,0-1.291c0-0.297,0-0.579,0-0.875c0-0.282,0-0.578,0-0.875
	c0-0.43,0-0.86,0-1.291c0.148,0,0.282,0,0.431,0c0.578,0,1.157,0,1.735,0c0,2.314,0,4.629,0,6.942c-0.147,0-0.282,0-0.431,0
	c-0.578,0-1.156,0-1.735,0C31.698,54.276,31.698,53.401,31.698,52.526z"/>
<path fill="#211F30" d="M98.998,49.056c0,0.43,0,0.875,0,1.305c-0.296,0-0.579,0-0.875,0c-0.431,0-0.86,0-1.291,0
	c0-0.43,0-0.875,0-1.305c0-0.283,0-0.578,0-0.861c0.282,0,0.564,0,0.86,0c0.431,0,0.875,0,1.306,0
	C98.998,48.478,98.998,48.772,98.998,49.056z"/>
<path fill="#211F30" d="M64.259,45.584c-0.431,0-0.861,0-1.306,0c0-0.431,0-0.86,0-1.306c0-0.281,0-0.578,0-0.86
	c0.444,0,0.875,0,1.306,0c0.296,0,0.578,0,0.874,0c0,0.282,0,0.579,0,0.86c0,0.445,0,0.875,0,1.306
	C64.837,45.584,64.555,45.584,64.259,45.584z"/>
<path fill="#211F30" d="M2.609,48.194c0,0.431,0,0.861,0,1.291c0,0.297,0,0.593,0,0.875c-0.874,0-1.749,0-2.609,0
	c0-0.578,0-1.156,0-1.735c0-0.147,0-0.296,0-0.431C0.86,48.194,1.735,48.194,2.609,48.194z"/>
<path fill="#FFFFFF" d="M12.162,43.418c0,2.313,0,4.628,0,6.942c-1.305,0-2.609,0-3.915,0c-1.157,0-2.314,0-3.471,0
	c0-0.43,0-0.875,0-1.305c0-0.283,0-0.578,0-0.861c0-0.875,0-1.736,0-2.61c1.735,0,3.471,0,5.206,0c0-0.579,0-1.157,0-1.735
	c0-0.148,0-0.296,0-0.431c0.296,0,0.579,0,0.875,0C11.288,43.418,11.719,43.418,12.162,43.418z"/>
<path fill="#9B1C1F" d="M14.759,55.137c0-2.893,0-5.785,0-8.679c0-0.443,0-0.874,0-1.305c0-0.296,0-0.578,0-0.875
	c0-0.43,0-0.86,0-1.291c0-0.296,0-0.592,0-0.875c0-1.305,0-2.609,0-3.914c0.444,0,0.875,0,1.306,0c0.296,0,0.578,0,0.874,0
	c0-2.314,0-4.629,0-6.943c0.861,0,1.736,0,2.597,0c0-0.861,0-1.735,0-2.609c0.431,0,0.875,0,1.306,0c0.296,0,0.578,0,0.874,0
	c0-0.432,0-0.861,0-1.293c0-0.295,0-0.578,0-0.874c0.861,0,1.736,0,2.597,0c0-0.861,0-1.735,0-2.597c0.431,0,0.875,0,1.306,0
	c0.296,0,0.578,0,0.874,0c0-0.444,0-0.875,0-1.305c0-0.296,0-0.578,0-0.875c0-0.861,0-1.735,0-2.597c1.736,0,3.472,0,5.207,0
	l0.081,2.57c-0.041,0-0.067,0.014-0.081,0.027c-0.04,0.041,0,0.377,0,0.431c0,0.296,0,0.579,0,0.875s0,0.579,0,0.875
	c-0.874,0-1.735,0-2.61,0c0,1.588,0,3.176,0,4.764c0.431,0,0.875,0,1.306,0s0.874,0,1.305,0c0,0.443,0,0.874,0,1.305
	c0,0.443,0,0.875,0,1.305h-2.61c-1.587,0-3.175,0-4.776,0c0,0.431,0,0.875,0,1.305c0,1.158,0,2.314,0,3.472c0.296,0,0.579,0,0.875,0
	c0.431,0,0.874,0,1.305,0v2.167c0,0.874,0,1.734,0,2.609c-0.443,0-0.874,0-1.305,0c-0.296,0-0.579,0-0.875,0c0,0.875,0,1.736,0,2.61
	c-0.86,0-1.735,0-2.597,0c0,0.431,0,0.86,0,1.306c0,0.281,0,0.578,0,0.86c-0.443,0-0.874,0-1.305,0c-0.296,0-0.579,0-0.875,0
	c0,1.588,0,3.188,0,4.776c-0.86,0-1.735,0-2.597,0c0,0.875,0,1.736,0,2.61c0,0.713,0,1.439,0,2.166c-0.296,0-0.578,0-0.874,0
	C15.634,55.137,15.203,55.137,14.759,55.137z"/>
<path fill="#211F30" d="M9.982,55.137c-1.735,0-3.471,0-5.206,0c0-0.282,0-0.579,0-0.86c0-0.445,0-0.875,0-1.306
	c1.735,0,3.471,0,5.206,0c0,0.134,0,0.282,0,0.431C9.982,53.979,9.982,54.558,9.982,55.137z"/>
<path fill="#9B3421" d="M62.953,44.278c0,0.445,0,0.875,0,1.306c-0.861,0-1.735,0-2.597,0c0-0.431,0-0.86,0-1.306
	c0-0.281,0-0.578,0-0.86c0.861,0,1.735,0,2.597,0C62.953,43.7,62.953,43.997,62.953,44.278z"/>
<path fill="#D8E1E4" d="M19.535,19.105c0,0.861,0,1.736,0,2.597c-0.86,0-1.735,0-2.597,0c0-0.861,0-1.735,0-2.597
	C17.8,19.105,18.675,19.105,19.535,19.105z"/>
<path fill="#211F30" d="M62.953,45.584c0,1.588,0,3.188,0,4.776c-0.861,0-1.735,0-2.597,0c0-0.282,0-0.578,0-0.875
	c0-0.43,0-0.86,0-1.291c0-0.875,0-1.736,0-2.61C61.218,45.584,62.092,45.584,62.953,45.584z"/>
<path fill="#211F30" d="M48.193,0.861c0,0.431,0,0.875,0,1.305c-0.282,0-0.578,0-0.86,0c-0.444,0-0.875,0-1.306,0
	c0-0.296,0-0.579,0-0.875c0-0.431,0-0.861,0-1.292c0.282,0,0.579,0,0.861,0c0.444,0,0.874,0,1.305,0
	C48.193,0.283,48.193,0.579,48.193,0.861z"/>
<path fill="#280F0C" d="M79.893,23.007c0-0.431,0-0.875,0-1.305c0.431,0,0.861,0,1.305,0c0.283,0,0.579,0,0.861,0
	c0,0.296,0,0.579,0,0.875c0,0.431,0,0.861,0,1.305c-0.282,0-0.578,0-0.861,0c-0.443,0-0.874,0-1.305,0
	C79.893,23.586,79.893,23.303,79.893,23.007z"/>
<path fill="#280F0C" d="M43.417,23.882c0,0.861,0,1.736,0,2.597c-0.282,0-0.578,0-0.86,0c-0.444,0-0.875,0-1.306,0
	c0-0.861,0-1.735,0-2.597c0.431,0,0.861,0,1.306,0C42.839,23.882,43.135,23.882,43.417,23.882z"/>
<path fill="#211F30" d="M82.059,21.702c0-0.861,0-1.735,0-2.597c0.875,0,1.735,0,2.61,0c0,0.283,0,0.579,0,0.861
	c0,0.431,0,0.875,0,1.305c0,0.861,0,1.735,0,2.61c-0.875,0-1.735,0-2.61,0c0-0.444,0-0.875,0-1.305
	C82.059,22.281,82.059,21.999,82.059,21.702z"/>
<path fill="#211F30" d="M53.4,16.496c-1.735,0-3.471,0-5.207,0c0-0.431,0-0.875,0-1.305c0-0.283,0-0.579,0-0.861
	c0.875,0,1.736,0,2.61,0c0.861,0,1.735,0,2.597,0c0,0.135,0,0.283,0,0.431C53.4,15.338,53.4,15.917,53.4,16.496z"/>
<path fill="#9B1C1F" d="M76.421,43.418c0.283,0,0.579,0,0.861,0c0-0.874,0-1.735,0-2.61c-0.282,0-0.578,0-0.861,0
	c-0.443,0-0.874,0-1.305,0c0,0.875,0,1.736,0,2.61C75.547,43.418,75.978,43.418,76.421,43.418z M41.251,23.882
	c0,0.861,0,1.736,0,2.597c0.431,0,0.861,0,1.306,0c0.282,0,0.578,0,0.86,0c0-0.861,0-1.735,0-2.597c-0.282,0-0.578,0-0.86,0
	C42.112,23.882,41.682,23.882,41.251,23.882z M29.088,36.031c0-1.587,0-3.188,0-4.776h2.61c0.282,0,0.579,0,0.861,0
	c1.305,0,2.61,0,3.915,0c0-0.43,0-0.861,0-1.305c0-0.431,0-0.861,0-1.305c0.282,0,0.579,0,0.861,0c0.444,0,0.874,0,1.305,0
	c0-0.283,0-0.579,0-0.861c0-0.579,0-1.157,0-1.736c0-0.296,0-0.578,0-0.874c0-0.431,0-0.861,0-1.292c-0.282,0-0.578,0-0.86,0
	c-0.444,0-0.875,0-1.306,0c0-0.296,0-0.579,0-0.875c0-0.431,0-0.875,0-1.305c-0.296,0-0.578,0-0.874,0c-1.157,0-2.314,0-3.472,0
	c-0.067,0.041-0.242-0.027-0.35-0.027l-0.081-2.57c0-0.875,0-1.749,0-2.61c0.282,0,0.579,0,0.861,0c0.444,0,0.874,0,1.305,0
	c0.875,0,1.736,0,2.61,0c0-0.296,0-0.579,0-0.875c0-0.431,0-0.861,0-1.292c0.282,0,0.579,0,0.861,0c0.444,0,0.874,0,1.305,0
	c0,0.431,0,0.861,0,1.292c0,0.296,0,0.579,0,0.875c0.875,0,1.736,0,2.61,0c0,0.861,0,1.735,0,2.61c4.05,0,8.1,0,12.149,0
	c0-0.444,0-0.875,0-1.305c0-0.444,0-0.875,0-1.305c0.444,0,0.875,0,1.306,0c0.296,0,0.578,0,0.874,0c0-0.431,0-0.875,0-1.305
	c0-0.283,0-0.579,0-0.861c0.282,0,0.579,0,0.861,0c0.443,0,0.874,0,1.305,0c0.875,0,1.736,0,2.61,0c0,0.431,0,0.861,0,1.292
	c0,0.296,0,0.579,0,0.875c2.462,0,4.911,0,7.373,0c0,0.861,0,1.735,0,2.61c0.444,0,0.875,0,1.305,0c0.297,0,0.579,0,0.875,0
	c0,0.861,0,1.736,0,2.597c0,0.431,0,0.875,0,1.305c0,0.296,0,0.579,0,0.875c0,0.861,0,1.736,0,2.597c0.861,0,1.735,0,2.597,0
	c0,0.431,0,0.874,0,1.306c0,0.282,0,0.578,0,0.861c0.875,0,1.735,0,2.61,0c0,0.874,0,1.748,0,2.609c1.588,0,3.188,0,4.776,0
	c0.431,0,0.861,0,1.305,0c0.283,0,0.579,0,0.861,0c0,2.314,0,4.629,0,6.943c0,1.734,0,3.484,0,5.22c-0.431,0-0.861,0-1.305,0
	c-0.283,0-0.579,0-0.861,0c0,0.431,0,0.86,0,1.306c0,0.281,0,0.578,0,0.86c0,0.431,0,0.874,0,1.306c0,0.282,0,0.578,0,0.861
	c0,1.453,0,2.905,0,4.346c0,0.295,0,0.578,0,0.874c-0.875,0-1.735,0-2.61,0c0,0.431,0,0.86,0,1.306c0,0.281,0,0.578,0,0.86
	c-1.305,0-2.597,0-3.901,0c-0.296,0-0.579,0-0.875,0c0-0.86,0-1.735,0-2.61c0-0.43,0-0.861,0-1.291c0-0.297,0-0.579,0-0.875
	c1.157,0,2.314,0,3.472,0c0.443,0,0.874,0,1.305,0c0-0.43,0-0.875,0-1.305c0-0.283,0-0.578,0-0.861c0-0.578,0-1.157,0-1.736
	c0-0.147,0-0.295,0-0.443s0-0.283,0-0.431c-0.861,0-1.735,0-2.597,0c-0.444,0-0.875,0-1.305,0c-0.296,0-0.579,0-0.875,0
	c0,1.588,0,3.188,0,4.776c-0.861,0-1.735,0-2.597,0c0-0.43,0-0.875,0-1.305c0-0.283,0-0.578,0-0.861c0-0.443,0-0.875,0-1.305
	c0-0.432,0-0.875,0-1.306c-0.444,0-0.875,0-1.305,0c-0.296,0-0.579,0-0.875,0c0-0.431,0-0.86,0-1.306c0-0.281,0-0.578,0-0.86
	c-0.861,0-1.735,0-2.597,0c0-0.874,0-1.735,0-2.61c-0.444,0-0.874,0-1.305,0c-0.296,0-0.579,0-0.875,0c0-0.875,0-1.735,0-2.609
	c-0.861,0-1.735,0-2.597,0c-0.444,0-0.874,0-1.305,0c-0.296,0-0.579,0-0.875,0c0-0.432,0-0.861,0-1.293c0-0.295,0-0.578,0-0.874
	c-0.861,0-1.735,0-2.597,0c-7.965,0-15.93,0-23.882,0c0,0.431,0,0.874,0,1.306c0,0.282,0,0.578,0,0.861c-1.735,0-3.471,0-5.207,0
	v-2.167C27.353,36.031,28.214,36.031,29.088,36.031z"/>
<path fill="#211F30" d="M16.938,31.255c0,2.314,0,4.629,0,6.943c-0.296,0-0.578,0-0.874,0c-0.431,0-0.861,0-1.306,0
	c0-2.314,0-4.629,0-6.943c0.296,0,0.579,0,0.875,0C16.064,31.255,16.495,31.255,16.938,31.255z"/>
<path fill="#FFFFFF" d="M84.669,44.278c0-0.281,0-0.578,0-0.86c0.282,0,0.578,0,0.861,0c0.443,0,0.874,0,1.305,0
	c0.875,0,1.735,0,2.61,0c0,0.431,0,0.86,0,1.306c0,0.281,0,0.578,0,0.86c0.861,0,1.735,0,2.61,0c0.431,0,0.86,0,1.291,0
	c0.296,0,0.579,0,0.875,0c0,0.874,0,1.735,0,2.61c0,0.431,0,0.861,0,1.291c0,0.297,0,0.593,0,0.875c-0.431,0-0.875,0-1.306,0
	c-0.43,0-0.86,0-1.305,0c-0.431,0-0.861,0-1.305,0c-0.283,0-0.579,0-0.861,0c-0.431,0-0.875,0-1.306,0c-0.43,0-0.86,0-1.305,0
	c-0.431,0-0.861,0-1.305,0c-0.283,0-0.579,0-0.861,0c0-0.43,0-0.875,0-1.305c0-0.431,0-0.861,0-1.305c0-0.432,0-0.861,0-1.293
	c0-0.295,0-0.592,0-0.874C84.669,45.153,84.669,44.724,84.669,44.278z"/>
<path fill="#211F30" d="M19.535,14.329c0.296,0,0.579,0,0.875,0c0.431,0,0.861,0,1.305,0c0.861,0,1.736,0,2.597,0
	c0,0.283,0,0.579,0,0.861c0,0.431,0,0.875,0,1.305c-1.587,0-3.175,0-4.776,0c0-0.296,0-0.579,0-0.875
	C19.535,15.19,19.535,14.76,19.535,14.329z"/>
<path fill="#D8E1E4" d="M82.059,19.105c0-1.601,0-3.188,0-4.776c0.875,0,1.735,0,2.61,0c0,1.292,0,2.597,0,3.902
	c0,0.283,0,0.579,0,0.875C83.794,19.105,82.934,19.105,82.059,19.105z"/>
<path fill="#211F30" d="M67.729,16.496c1.157,0,2.314,0,3.472,0c1.305,0,2.609,0,3.915,0c0,0.861,0,1.735,0,2.61
	c-0.875,0-1.735,0-2.61,0c0,0.861,0,1.736,0,2.597c-0.861,0-1.735,0-2.597,0c0-0.861,0-1.735,0-2.597c-0.296,0-0.578,0-0.875,0
	c-0.43,0-0.86,0-1.305,0C67.729,18.231,67.729,17.356,67.729,16.496z"/>
<path fill="#211F30" d="M38.641,11.719c0-0.296,0-0.579,0-0.875c0-0.431,0-0.861,0-1.292c0.875,0,1.736,0,2.61,0
	c0,0.579,0,1.157,0,1.736c0,0.135,0,0.283,0,0.431c0,0.861,0,1.735,0,2.61c-0.874,0-1.735,0-2.61,0c-0.431,0-0.86,0-1.305,0
	c-0.282,0-0.579,0-0.861,0c0-0.875,0-1.749,0-2.61c0.282,0,0.579,0,0.861,0C37.78,11.719,38.21,11.719,38.641,11.719z"/>
<path fill="#211F30" d="M76.421,14.329c0.431,0,0.861,0,1.306,0c0.282,0,0.578,0,0.86,0c0.431,0,0.875,0,1.306,0
	c0,0.431,0,0.861,0,1.292c0,0.296,0,0.579,0,0.875c-0.875,0-1.735,0-2.61,0c-0.431,0-0.861,0-1.305,0c-0.283,0-0.579,0-0.861,0
	c0-0.296,0-0.579,0-0.875c0-0.431,0-0.861,0-1.292C75.547,14.329,75.978,14.329,76.421,14.329z"/>
<path fill="#211F30" d="M53.4,48.194c0,2.314,0,4.629,0,6.942c-0.861,0-1.735,0-2.597,0c0-2.313,0-4.628,0-6.942
	C51.665,48.194,52.539,48.194,53.4,48.194z"/>
<path fill="#762014" d="M62.953,38.198c0,0.874,0,1.734,0,2.609c-0.861,0-1.735,0-2.597,0c0-0.875,0-1.735,0-2.609
	C61.218,38.198,62.092,38.198,62.953,38.198z"/>
<path fill="#48475B" d="M46.027,55.137c0,0.874,0,1.735,0,2.61c-0.874,0-1.735,0-2.61,0c0-0.875,0-1.736,0-2.61
	C44.292,55.137,45.153,55.137,46.027,55.137z"/>
<path fill="#211F30" d="M14.759,23.882c0-0.444,0-0.875,0-1.305c0-0.444,0-0.875,0-1.305c0-0.296,0-0.579,0-0.875
	c0-0.431,0-0.861,0-1.292c0.444,0,0.875,0,1.306,0c0.296,0,0.578,0,0.874,0c0,0.861,0,1.736,0,2.597c0,0.431,0,0.875,0,1.305
	c0,0.296,0,0.579,0,0.875c-0.296,0-0.578,0-0.874,0C15.634,23.882,15.203,23.882,14.759,23.882z"/>
<path fill="#211F30" d="M4.776,50.36c0,0.875,0,1.736,0,2.61c-0.297,0-0.579,0-0.875,0c-0.431,0-0.861,0-1.292,0
	c0-0.874,0-1.735,0-2.61c0.431,0,0.861,0,1.292,0C4.197,50.36,4.479,50.36,4.776,50.36z"/>
<path fill="#211F30" d="M55.58,38.198c-7.965,0-15.93,0-23.882,0c0-0.283,0-0.579,0-0.861c0-0.432,0-0.875,0-1.306
	c7.952,0,15.917,0,23.882,0c0,0.431,0,0.874,0,1.306C55.58,37.619,55.58,37.915,55.58,38.198z"/>
<path fill="#48475B" d="M32.56,57.747c-0.282,0-0.579,0-0.861,0c0-0.875,0-1.736,0-2.61c0.579,0,1.157,0,1.735,0
	c0.148,0,0.283,0,0.431,0c0,0.874,0,1.735,0,2.61C33.434,57.747,33.004,57.747,32.56,57.747z"/>
<path fill="#48475B" d="M24.312,50.36c0.431,0,0.875,0,1.306,0c0.296,0,0.578,0,0.874,0c0-0.875,0-1.735,0-2.609
	c0-0.432,0-0.861,0-1.293c0-0.295,0-0.592,0-0.874c1.736,0,3.472,0,5.207,0c0-0.282,0-0.579,0-0.86c0-0.445,0-0.875,0-1.306
	c7.952,0,15.917,0,23.882,0c0,0.282,0,0.579,0,0.86c0,0.445,0,0.875,0,1.306c-0.874,0-1.735,0-2.61,0c-0.431,0-0.861,0-1.305,0
	c-0.282,0-0.579,0-0.861,0c-0.874,0-1.735,0-2.61,0c-0.431,0-0.86,0-1.305,0c-0.282,0-0.579,0-0.861,0c-1.305,0-2.61,0-3.915,0
	c-1.157,0-2.314,0-3.472,0c-1.439,0-2.893,0-4.346,0c-0.135,0-0.282,0-0.431,0c0,0.874,0,1.735,0,2.61c-0.578,0-1.157,0-1.735,0
	c-0.148,0-0.282,0-0.431,0c0,0.431,0,0.861,0,1.291c0,0.297,0,0.593,0,0.875c-0.874,0-1.735,0-2.61,0c0,2.463,0,4.924,0,7.387
	c-1.305,0-2.597,0-3.901,0c-0.296,0-0.579,0-0.875,0c0-1.305,0-2.61,0-3.916C24.312,52.675,24.312,51.518,24.312,50.36z"/>
<path fill="#211F30" d="M80.754,14.329c-0.283,0-0.579,0-0.861,0c0-0.444,0-0.875,0-1.305c0-0.444,0-0.875,0-1.305
	c0.147,0,0.282,0,0.431,0c0.578,0,1.157,0,1.735,0s1.157,0,1.735,0c1.022,0,2.032,0,3.041,0c0,0.148,0,0.282,0,0.43
	c0,0.579,0,1.157,0,1.736s0,1.157,0,1.736c0,1.157,0,2.314,0,3.484c-0.282,0-0.578,0-0.861,0c-0.443,0-0.874,0-1.305,0
	c0-0.296,0-0.592,0-0.875c0-1.305,0-2.61,0-3.902c-0.875,0-1.735,0-2.61,0C81.628,14.329,81.197,14.329,80.754,14.329z"/>
<path fill="#211F30" d="M34.295,45.584c1.453,0,2.906,0,4.346,0c0,0.874,0,1.735,0,2.61c-0.86,0-1.735,0-2.597,0
	c-0.443,0-0.874,0-1.305,0c-0.296,0-0.579,0-0.875,0c0-0.875,0-1.736,0-2.61C34.013,45.584,34.16,45.584,34.295,45.584z"/>
<path fill="#48475B" d="M72.506,21.702c0,0.296,0,0.579,0,0.875c0,0.431,0,0.861,0,1.305c-0.861,0-1.735,0-2.597,0
	c0-0.296,0-0.579,0-0.875c0-0.431,0-0.875,0-1.305C70.771,21.702,71.645,21.702,72.506,21.702z"/>
<path fill="#762014" d="M53.4,19.105c-4.05,0-8.1,0-12.149,0c0-0.875,0-1.749,0-2.61c0.431,0,0.861,0,1.306,0
	c0.282,0,0.578,0,0.86,0c0.296,0,0.579,0,0.875,0c0.431,0,0.861,0,1.291,0c0.875,0,1.75,0,2.61,0c1.736,0,3.472,0,5.207,0
	c0,0.43,0,0.861,0,1.305C53.4,18.231,53.4,18.662,53.4,19.105z"/>
<path fill="#9B3421" d="M67.729,50.36c0,1.157,0,2.314,0,3.471c0,1.306,0,2.611,0,3.916c-0.578,0-1.157,0-1.735,0
	c-0.283,0-0.579,0-0.861,0c0-2.463,0-4.924,0-7.387C65.994,50.36,66.868,50.36,67.729,50.36z"/>
<path fill="#211F30" d="M82.059,51.665c0-0.43,0-0.874,0-1.305c0.875,0,1.735,0,2.61,0c0,0.875,0,1.736,0,2.61
	c0,0.431,0,0.86,0,1.306c0,0.281,0,0.578,0,0.86c-0.875,0-1.735,0-2.61,0c0-0.431,0-0.86,0-1.306c0-0.43,0-0.86,0-1.305
	C82.059,52.244,82.059,51.948,82.059,51.665z"/>
<path fill="#211F30" d="M62.953,40.808c0,0.875,0,1.736,0,2.61c-0.861,0-1.735,0-2.597,0c0-0.874,0-1.735,0-2.61
	C61.218,40.808,62.092,40.808,62.953,40.808z"/>
<path fill="#FFFFFF" d="M19.535,15.621c0,0.296,0,0.579,0,0.875c1.602,0,3.189,0,4.776,0c0,1.735,0,3.471,0,5.207
	c-0.86,0-1.735,0-2.597,0c-0.443,0-0.874,0-1.305,0c-0.296,0-0.579,0-0.875,0c0-0.861,0-1.735,0-2.597c-0.86,0-1.735,0-2.597,0
	c0-1.601,0-3.188,0-4.776c0.861,0,1.736,0,2.597,0C19.535,14.76,19.535,15.19,19.535,15.621z"/>
<path fill="#211F30" d="M55.58,38.198c0.861,0,1.735,0,2.597,0c0.296,0,0.579,0,0.875,0c0.431,0,0.86,0,1.305,0
	c0,0.874,0,1.734,0,2.609c-0.874,0-1.735,0-2.61,0c-0.431,0-0.861,0-1.305,0c-0.282,0-0.579,0-0.861,0
	C55.58,39.933,55.58,39.072,55.58,38.198z"/>
<path fill="#762014" d="M20.41,26.479c0.431,0,0.861,0,1.305,0c0,0.296,0,0.579,0,0.874c0,0.432,0,0.861,0,1.293
	c-0.296,0-0.578,0-0.874,0c-0.431,0-0.875,0-1.306,0c0-0.283,0-0.579,0-0.861c0-0.432,0-0.875,0-1.306
	C19.831,26.479,20.114,26.479,20.41,26.479z"/>
<path fill="#211F30" d="M21.715,45.584c0-0.282,0-0.579,0-0.86c0-0.445,0-0.875,0-1.306c0.861,0,1.736,0,2.597,0
	c0,0.431,0,0.86,0,1.306c0,0.281,0,0.578,0,0.86C23.451,45.584,22.576,45.584,21.715,45.584z"/>
<path fill="#762014" d="M55.58,37.337c0-0.432,0-0.875,0-1.306c0.861,0,1.735,0,2.597,0c0,0.296,0,0.579,0,0.874
	c0,0.432,0,0.861,0,1.293c-0.861,0-1.735,0-2.597,0C55.58,37.915,55.58,37.619,55.58,37.337z"/>
<path fill="#762014" d="M54.706,16.496c-0.431,0-0.861,0-1.306,0c0-0.579,0-1.157,0-1.736c0-0.148,0-0.296,0-0.431
	c0.296,0,0.579,0,0.875,0c0.431,0,0.86,0,1.305,0c0,0.283,0,0.579,0,0.861c0,0.431,0,0.875,0,1.305
	C55.284,16.496,55.002,16.496,54.706,16.496z"/>
<path fill="#211F30" d="M96.832,45.584c0,0.874,0,1.735,0,2.61c-0.875,0-1.749,0-2.61,0c0-0.875,0-1.736,0-2.61
	C95.083,45.584,95.957,45.584,96.832,45.584z"/>
<path fill="#D8E1E4" d="M48.193,2.167c0,0.861,0,1.735,0,2.61c-0.282,0-0.578,0-0.86,0c-0.444,0-0.875,0-1.306,0
	c0-0.875,0-1.749,0-2.61c0.431,0,0.861,0,1.306,0C47.615,2.167,47.911,2.167,48.193,2.167z"/>
<path fill="#211F30" d="M19.535,26.479c0,0.431,0,0.874,0,1.306c0,0.282,0,0.578,0,0.861c0,0.874,0,1.748,0,2.609
	c-0.86,0-1.735,0-2.597,0c0-2.462,0-4.924,0-7.373c0.861,0,1.736,0,2.597,0c0.431,0,0.875,0,1.306,0c0.296,0,0.578,0,0.874,0
	c0,0.861,0,1.736,0,2.597c-0.443,0-0.874,0-1.305,0C20.114,26.479,19.831,26.479,19.535,26.479z"/>
<path fill="#211F30" d="M31.698,40.808c-1.735,0-3.471,0-5.207,0c0-0.875,0-1.735,0-2.609c1.736,0,3.472,0,5.207,0
	C31.698,39.072,31.698,39.933,31.698,40.808z"/>
<path fill="#63677A" d="M38.641,45.584c1.157,0,2.314,0,3.472,0c1.305,0,2.61,0,3.915,0c0,0.874,0,1.735,0,2.61
	c-0.874,0-1.735,0-2.61,0c0,2.314,0,4.629,0,6.942c0,0.874,0,1.735,0,2.61c-0.431,0-0.86,0-1.305,0c-0.282,0-0.579,0-0.861,0
	c0-0.875,0-1.736,0-2.61c0-2.313,0-4.628,0-6.942c-0.874,0-1.735,0-2.61,0C38.641,47.319,38.641,46.458,38.641,45.584z"/>
<path fill="#48475B" d="M57.746,45.584c0.875,0,1.736,0,2.61,0c0,0.874,0,1.735,0,2.61c-0.296,0-0.578,0-0.874,0
	c-0.431,0-0.861,0-1.306,0c-0.861,0-1.735,0-2.597,0c0-0.875,0-1.736,0-2.61c0.282,0,0.579,0,0.861,0
	C56.885,45.584,57.315,45.584,57.746,45.584z"/>
<path fill="#63677A" d="M29.088,57.747c0-2.463,0-4.924,0-7.387c0.875,0,1.736,0,2.61,0c0,0.296,0,0.578,0,0.875
	c0,0.43,0,0.861,0,1.291c0,0.875,0,1.75,0,2.61c0,0.874,0,1.735,0,2.61C30.824,57.747,29.963,57.747,29.088,57.747z"/>
<path fill="#280F0C" d="M29.088,31.255c0,1.588,0,3.189,0,4.776c-0.874,0-1.735,0-2.597,0c-0.431,0-0.874,0-1.305,0
	c-0.296,0-0.579,0-0.875,0c0-1.157,0-2.313,0-3.472c0-0.43,0-0.874,0-1.305C25.913,31.255,27.501,31.255,29.088,31.255z"/>
<path fill="#63677A" d="M52.97,45.584c0.875,0,1.736,0,2.61,0c0,0.874,0,1.735,0,2.61c0.861,0,1.735,0,2.597,0
	c0.444,0,0.875,0,1.306,0c0.296,0,0.578,0,0.874,0c0,0.431,0,0.861,0,1.291c0,0.297,0,0.593,0,0.875c0,0.875,0,1.736,0,2.61
	c0.861,0,1.735,0,2.597,0c0,1.587,0,3.175,0,4.776c-3.175,0-6.364,0-9.553,0c0-0.875,0-1.736,0-2.61c0-2.313,0-4.628,0-6.942
	c-0.861,0-1.735,0-2.597,0c0-0.875,0-1.736,0-2.61c0.282,0,0.579,0,0.861,0C52.108,45.584,52.539,45.584,52.97,45.584z"/>
<path fill="#211F30" d="M53.4,4.776c0,0.431,0,0.861,0,1.292c0,0.444,0,0.875,0,1.305c0,0.296,0,0.578,0,0.875
	c0,0.43,0,0.861,0,1.305c-0.861,0-1.735,0-2.597,0c0-1.601,0-3.188,0-4.776C51.665,4.776,52.539,4.776,53.4,4.776z"/>
<path fill="#9B3421" d="M31.698,43.418c-1.735,0-3.471,0-5.207,0c0-0.874,0-1.735,0-2.61c1.736,0,3.472,0,5.207,0
	C31.698,41.683,31.698,42.544,31.698,43.418z"/>
<path fill="#211F30" d="M91.611,52.971c0.875,0,1.735,0,2.61,0c0,0.282,0,0.579,0,0.86c0,0.445,0,0.875,0,1.306
	c-1.602,0-3.188,0-4.776,0c0-0.431,0-0.86,0-1.306c0-0.281,0-0.578,0-0.86c0.282,0,0.578,0,0.861,0
	C90.75,52.971,91.181,52.971,91.611,52.971z"/>
<path fill="#48475B" d="M72.506,23.882c0.875,0,1.735,0,2.61,0c0,0.861,0,1.736,0,2.597c-0.875,0-1.735,0-2.61,0
	C72.506,25.618,72.506,24.743,72.506,23.882z"/>
<path fill="#9B3421" d="M57.746,40.808c0.875,0,1.736,0,2.61,0c0,0.875,0,1.736,0,2.61c-0.874,0-1.735,0-2.61,0
	c-0.431,0-0.861,0-1.305,0c-0.282,0-0.579,0-0.861,0c0-0.874,0-1.735,0-2.61c0.282,0,0.579,0,0.861,0
	C56.885,40.808,57.315,40.808,57.746,40.808z"/>
<path fill="#280F0C" d="M79.893,23.882c0,0.861,0,1.736,0,2.597c-0.875,0-1.735,0-2.61,0c0-0.861,0-1.735,0-2.597
	C78.157,23.882,79.018,23.882,79.893,23.882z"/>
<path fill="#211F30" d="M48.193,2.167c0.875,0,1.736,0,2.61,0c0,0.861,0,1.735,0,2.61c-0.874,0-1.735,0-2.61,0
	C48.193,3.902,48.193,3.027,48.193,2.167z"/>
<path fill="#D8E1E4" d="M79.893,23.007c0,0.296,0,0.579,0,0.875c-0.875,0-1.735,0-2.61,0c0-0.296,0-0.579,0-0.875
	c0-0.431,0-0.875,0-1.305c0.875,0,1.735,0,2.61,0C79.893,22.133,79.893,22.577,79.893,23.007z"/>
<path fill="#211F30" d="M43.417,2.167c0.875,0,1.736,0,2.61,0c0,0.861,0,1.735,0,2.61c-0.874,0-1.735,0-2.61,0
	C43.417,3.902,43.417,3.027,43.417,2.167z"/>
<path fill="#D8E1E4" d="M15.203,14.329c0.565,0,1.157,0,1.735,0c0,1.588,0,3.175,0,4.776c-0.296,0-0.578,0-0.874,0
	c-0.431,0-0.861,0-1.306,0c0-1.601,0-3.188,0-4.776C14.907,14.329,15.055,14.329,15.203,14.329z"/>
<path fill="#D8E1E4" d="M75.978,23.882c0.443,0,0.874,0,1.305,0c0,0.861,0,1.736,0,2.597c-0.282,0-0.578,0-0.861,0
	c-0.443,0-0.874,0-1.305,0c0-0.861,0-1.735,0-2.597C75.398,23.882,75.694,23.882,75.978,23.882z"/>
<path fill="#280F0C" d="M19.535,21.702c0,0.296,0,0.579,0,0.875c0,0.431,0,0.861,0,1.305c-0.86,0-1.735,0-2.597,0
	c0-0.296,0-0.579,0-0.875c0-0.431,0-0.875,0-1.305C17.8,21.702,18.675,21.702,19.535,21.702z"/>
<path fill="#762014" d="M64.259,43.418c-0.431,0-0.861,0-1.306,0c0-0.874,0-1.735,0-2.61c0.296,0,0.579,0,0.875,0
	c0.431,0,0.86,0,1.305,0c0,0.875,0,1.736,0,2.61C64.837,43.418,64.555,43.418,64.259,43.418z"/>
<path fill="#FFFFFF" d="M48.193,11.719c-2.313,0-4.628,0-6.942,0c0-0.148,0-0.296,0-0.431c0-0.579,0-1.157,0-1.736
	c0.431,0,0.861,0,1.306,0c0.282,0,0.578,0,0.86,0c0-1.601,0-3.188,0-4.776c0.875,0,1.736,0,2.61,0c0.431,0,0.861,0,1.306,0
	c0.282,0,0.578,0,0.86,0C48.193,7.091,48.193,9.405,48.193,11.719z"/>
<path fill="#211F30" d="M42.112,14.329c0.444,0,0.874,0,1.305,0c0,0.283,0,0.579,0,0.861c0,0.431,0,0.875,0,1.305
	c-0.282,0-0.578,0-0.86,0c-0.444,0-0.875,0-1.306,0c0-0.431,0-0.875,0-1.305c0-0.283,0-0.579,0-0.861
	C41.533,14.329,41.83,14.329,42.112,14.329z"/>
<path fill="#762014" d="M16.064,57.747c-0.431,0-0.861,0-1.306,0c0-0.875,0-1.736,0-2.61c0.444,0,0.875,0,1.306,0
	c0.296,0,0.578,0,0.874,0c0,0.874,0,1.735,0,2.61C16.643,57.747,16.36,57.747,16.064,57.747z"/>
<path fill="#762014" d="M82.059,38.198c0.875,0,1.735,0,2.61,0c0,1.734,0,3.484,0,5.22c-0.875,0-1.735,0-2.61,0
	C82.059,41.683,82.059,39.933,82.059,38.198z"/>
<path fill="#211F30" d="M4.776,45.584c0,0.874,0,1.735,0,2.61c-0.297,0-0.579,0-0.875,0c-0.431,0-0.861,0-1.292,0
	c0-0.875,0-1.736,0-2.61c0.283,0,0.579,0,0.861,0C3.901,45.584,4.346,45.584,4.776,45.584z"/>
<path fill="#211F30" d="M24.312,50.36c0-1.588,0-3.188,0-4.776c0.431,0,0.875,0,1.306,0c0.296,0,0.578,0,0.874,0
	c0,0.282,0,0.579,0,0.874c0,0.432,0,0.861,0,1.293c0,0.874,0,1.734,0,2.609c-0.296,0-0.578,0-0.874,0
	C25.187,50.36,24.742,50.36,24.312,50.36z"/>
<path fill="#211F30" d="M46.027,48.194c0,2.314,0,4.629,0,6.942c-0.874,0-1.735,0-2.61,0c0-2.313,0-4.628,0-6.942
	C44.292,48.194,45.153,48.194,46.027,48.194z"/>
<path fill="#762014" d="M72.506,28.646c0-0.283,0-0.579,0-0.861c0-0.432,0-0.875,0-1.306c0.875,0,1.735,0,2.61,0
	c0,0.431,0,0.874,0,1.306c0,0.282,0,0.578,0,0.861C74.241,28.646,73.381,28.646,72.506,28.646z"/>
<path fill="#48475B" d="M53.4,55.137c0,0.874,0,1.735,0,2.61c-0.861,0-1.735,0-2.597,0c0-0.875,0-1.736,0-2.61
	C51.665,55.137,52.539,55.137,53.4,55.137z"/>
<path fill="#762014" d="M38.641,15.621c0-0.431,0-0.861,0-1.292c0.875,0,1.736,0,2.61,0c0,0.283,0,0.579,0,0.861
	c0,0.431,0,0.875,0,1.305c-0.874,0-1.735,0-2.61,0C38.641,16.2,38.641,15.917,38.641,15.621z"/>
<path fill="#211F30" d="M46.027,45.584c0.282,0,0.579,0,0.861,0c0.444,0,0.874,0,1.305,0c0.875,0,1.736,0,2.61,0
	c0,0.874,0,1.735,0,2.61c-0.874,0-1.735,0-2.61,0c-0.431,0-0.86,0-1.305,0c-0.282,0-0.579,0-0.861,0
	C46.027,47.319,46.027,46.458,46.027,45.584z"/>
<path fill="#BA2226" d="M48.193,48.194c0.875,0,1.736,0,2.61,0c0,2.314,0,4.629,0,6.942c-0.874,0-1.735,0-2.61,0
	c-0.431,0-0.86,0-1.305,0c-0.282,0-0.579,0-0.861,0c0-2.313,0-4.628,0-6.942c0.282,0,0.579,0,0.861,0
	C47.333,48.194,47.763,48.194,48.193,48.194z"/>
<path fill="#D8E1E4" d="M4.776,48.194c0,0.283,0,0.578,0,0.861c0,0.43,0,0.875,0,1.305c-0.297,0-0.579,0-0.875,0
	c-0.431,0-0.861,0-1.292,0c0-0.282,0-0.578,0-0.875c0-0.43,0-0.86,0-1.291c0.431,0,0.861,0,1.292,0
	C4.197,48.194,4.479,48.194,4.776,48.194z"/>
<path fill="#280F0C" d="M53.4,9.553c0,1.588,0,3.175,0,4.776c-0.861,0-1.735,0-2.597,0c0-1.601,0-3.188,0-4.776
	C51.665,9.553,52.539,9.553,53.4,9.553z"/>
<path fill="#762014" d="M75.978,28.646c0.443,0,0.874,0,1.305,0c0.875,0,1.735,0,2.61,0c0,0.874,0,1.748,0,2.609
	c-1.588,0-3.188,0-4.776,0c0-0.861,0-1.735,0-2.609C75.398,28.646,75.694,28.646,75.978,28.646z"/>
<path fill="#211F30" d="M21.715,23.882c0-0.444,0-0.875,0-1.305c0-0.296,0-0.578,0-0.875c0.861,0,1.736,0,2.597,0
	c0,0.296,0,0.579,0,0.875c0,0.431,0,0.861,0,1.305C23.451,23.882,22.576,23.882,21.715,23.882z"/>
<path fill="#280F0C" d="M84.669,54.276c0-0.445,0-0.875,0-1.306c0.282,0,0.578,0,0.861,0c0.443,0,0.874,0,1.305,0
	c0.875,0,1.735,0,2.61,0c0,0.282,0,0.579,0,0.86c0,0.445,0,0.875,0,1.306c-0.875,0-1.735,0-2.61,0c-0.431,0-0.861,0-1.305,0
	c-0.283,0-0.579,0-0.861,0C84.669,54.854,84.669,54.558,84.669,54.276z"/>
<path fill="#211F30" d="M84.669,38.198c0.282,0,0.578,0,0.861,0c0.443,0,0.874,0,1.305,0c0,0.443,0,0.874,0,1.305
	c0,0.43,0,0.875,0,1.305c0.875,0,1.735,0,2.61,0c0,0.875,0,1.736,0,2.61c-0.875,0-1.735,0-2.61,0c-0.431,0-0.861,0-1.305,0
	c-0.283,0-0.579,0-0.861,0C84.669,41.683,84.669,39.933,84.669,38.198z"/>
<path fill="#280F0C" d="M76.421,40.808c0.283,0,0.579,0,0.861,0c0,0.875,0,1.736,0,2.61c-0.282,0-0.578,0-0.861,0
	c-0.443,0-0.874,0-1.305,0c0-0.874,0-1.735,0-2.61C75.547,40.808,75.978,40.808,76.421,40.808z"/>
<path fill="#211F30" d="M12.162,19.105c0-2.462,0-4.924,0-7.386c2.449,0,4.911,0,7.373,0c0,0.861,0,1.735,0,2.61
	c-0.86,0-1.735,0-2.597,0c-0.578,0-1.17,0-1.735,0c-0.148,0-0.296,0-0.444,0c0,1.588,0,3.175,0,4.776c-0.431,0-0.86,0-1.305,0
	C13.023,19.105,12.593,19.105,12.162,19.105z"/>
<path fill="#211F30" d="M67.729,45.584c0,1.588,0,3.188,0,4.776c-0.861,0-1.735,0-2.597,0c0-1.588,0-3.188,0-4.776
	C65.994,45.584,66.868,45.584,67.729,45.584z"/>
<path fill="#D8E1E4" d="M41.251,11.719c2.314,0,4.629,0,6.942,0c0-2.314,0-4.628,0-6.943c0.875,0,1.736,0,2.61,0
	c0,1.588,0,3.175,0,4.776c0,1.588,0,3.175,0,4.776c-0.874,0-1.735,0-2.61,0c-0.86,0-1.735,0-2.61,0c-0.43,0-0.86,0-1.291,0
	c-0.296,0-0.579,0-0.875,0c-0.431,0-0.86,0-1.305,0c-0.282,0-0.579,0-0.861,0C41.251,13.455,41.251,12.58,41.251,11.719z"/>
<path fill="#FFFFFF" d="M75.116,23.882c-0.875,0-1.735,0-2.61,0c0-0.444,0-0.875,0-1.305c0-0.296,0-0.578,0-0.875
	c0-0.861,0-1.735,0-2.597c0.875,0,1.735,0,2.61,0c0-0.875,0-1.749,0-2.61c0.282,0,0.578,0,0.861,0c0.443,0,0.874,0,1.305,0
	c0.875,0,1.735,0,2.61,0c0-0.296,0-0.579,0-0.875c0-0.431,0-0.861,0-1.292c0.282,0,0.578,0,0.861,0c0.443,0,0.874,0,1.305,0
	c0,1.588,0,3.175,0,4.776c-0.431,0-0.861,0-1.305,0c-0.283,0-0.579,0-0.861,0c0,0.861,0,1.736,0,2.597c-0.875,0-1.735,0-2.61,0
	c0,0.431,0,0.875,0,1.305c0,0.296,0,0.579,0,0.875c-0.431,0-0.861,0-1.305,0C75.694,23.882,75.398,23.882,75.116,23.882z"/>
<path fill="#762014" d="M68.604,45.584c0.43,0,0.86,0,1.305,0c0,0.431,0,0.874,0,1.306c0,0.43,0,0.861,0,1.305
	c0,0.283,0,0.578,0,0.861c0,0.43,0,0.875,0,1.305c-0.296,0-0.578,0-0.875,0c-0.43,0-0.86,0-1.305,0c0-1.588,0-3.188,0-4.776
	C68.025,45.584,68.309,45.584,68.604,45.584z"/>
<path fill="#211F30" d="M25.617,43.418c-0.431,0-0.875,0-1.306,0c0-0.874,0-1.735,0-2.61c0.296,0,0.579,0,0.875,0
	c0.431,0,0.861,0,1.305,0c0,0.875,0,1.736,0,2.61C26.195,43.418,25.913,43.418,25.617,43.418z"/>
<path fill="#BA2226" d="M34.739,48.194c0.431,0,0.861,0,1.305,0c0.861,0,1.736,0,2.597,0c0,2.314,0,4.629,0,6.942
	c-0.86,0-1.735,0-2.597,0c-0.443,0-0.874,0-1.305,0c-0.296,0-0.579,0-0.875,0c0-2.313,0-4.628,0-6.942
	C34.16,48.194,34.443,48.194,34.739,48.194z"/>
<path fill="#280F0C" d="M72.506,50.36c0-1.588,0-3.188,0-4.776c0.296,0,0.579,0,0.875,0c0.43,0,0.86,0,1.305,0
	c0.861,0,1.735,0,2.597,0c0,0.147,0,0.282,0,0.431s0,0.296,0,0.443c0,0.579,0,1.158,0,1.736c0,0.283,0,0.578,0,0.861
	c0,0.43,0,0.875,0,1.305c-0.431,0-0.861,0-1.305,0C74.82,50.36,73.663,50.36,72.506,50.36z"/>
<path fill="#211F30" d="M67.729,16.496c-2.462,0-4.911,0-7.373,0c0-0.296,0-0.579,0-0.875c0-0.431,0-0.861,0-1.292
	c1.157,0,2.314,0,3.472,0c1.305,0,2.609,0,3.901,0c0,0.283,0,0.579,0,0.861C67.729,15.621,67.729,16.065,67.729,16.496z"/>
<path fill="#211F30" d="M76.421,26.479c0.283,0,0.579,0,0.861,0c0.875,0,1.735,0,2.61,0c0-0.861,0-1.735,0-2.597
	c0.431,0,0.861,0,1.305,0c0.283,0,0.579,0,0.861,0c0,2.449,0,4.911,0,7.373c-0.282,0-0.578,0-0.861,0c-0.443,0-0.874,0-1.305,0
	c0-0.861,0-1.735,0-2.609c-0.875,0-1.735,0-2.61,0c-0.431,0-0.861,0-1.305,0c-0.283,0-0.579,0-0.861,0c0-0.283,0-0.579,0-0.861
	c0-0.432,0-0.875,0-1.306C75.547,26.479,75.978,26.479,76.421,26.479z"/>
<path fill="#211F30" d="M82.059,31.255c0.875,0,1.735,0,2.61,0c0,2.314,0,4.629,0,6.943c-0.875,0-1.735,0-2.61,0
	C82.059,35.884,82.059,33.569,82.059,31.255z"/>
<path fill="#211F30" d="M42.112,4.776c0.444,0,0.874,0,1.305,0c0,1.588,0,3.175,0,4.776c-0.282,0-0.578,0-0.86,0
	c-0.444,0-0.875,0-1.306,0c0-1.601,0-3.188,0-4.776C41.533,4.776,41.83,4.776,42.112,4.776z"/>
<path fill="#D8E1E4" d="M9.982,52.971c-1.735,0-3.471,0-5.206,0c0-0.874,0-1.735,0-2.61c1.156,0,2.313,0,3.471,0
	c1.306,0,2.61,0,3.915,0c0,0.875,0,1.736,0,2.61c-0.443,0-0.874,0-1.305,0C10.562,52.971,10.278,52.971,9.982,52.971z"/>
<path fill="#211F30" d="M24.312,16.496c1.157,0,2.314,0,3.472,0c1.305,0,2.61,0,3.915,0c0,0.861,0,1.735,0,2.61
	c-1.735,0-3.471,0-5.207,0c0,0.861,0,1.736,0,2.597c-0.443,0-0.874,0-1.305,0c-0.296,0-0.579,0-0.875,0
	C24.312,19.967,24.312,18.231,24.312,16.496z"/>
<path fill="#762014" d="M21.715,23.882c0.861,0,1.736,0,2.597,0c0,0.861,0,1.736,0,2.597c-0.86,0-1.735,0-2.597,0
	C21.715,25.618,21.715,24.743,21.715,23.882z"/>
<path fill="#211F30" d="M20.41,45.584c0.431,0,0.861,0,1.305,0c0,1.588,0,3.188,0,4.776c-0.296,0-0.578,0-0.874,0
	c-0.431,0-0.875,0-1.306,0c0-1.588,0-3.188,0-4.776C19.831,45.584,20.114,45.584,20.41,45.584z"/>
<path fill="#48475B" d="M38.641,55.137c0.875,0,1.736,0,2.61,0c0,0.874,0,1.735,0,2.61c-0.874,0-1.735,0-2.61,0
	C38.641,56.872,38.641,56.011,38.641,55.137z"/>
<path fill="#D8E1E4" d="M96.832,48.194c0,0.283,0,0.578,0,0.861c0,0.43,0,0.875,0,1.305c-0.875,0-1.749,0-2.61,0
	c0-0.282,0-0.578,0-0.875c0-0.43,0-0.86,0-1.291C95.083,48.194,95.957,48.194,96.832,48.194z"/>
<path fill="#D8E1E4" d="M81.197,21.702c-0.443,0-0.874,0-1.305,0c0-0.861,0-1.735,0-2.597c0.282,0,0.578,0,0.861,0
	c0.443,0,0.874,0,1.305,0c0,0.861,0,1.736,0,2.597C81.776,21.702,81.48,21.702,81.197,21.702z"/>
<path fill="#762014" d="M72.506,23.882c0,0.861,0,1.736,0,2.597c-0.861,0-1.735,0-2.597,0c0-0.861,0-1.735,0-2.597
	C70.771,23.882,71.645,23.882,72.506,23.882z"/>
<path fill="#762014" d="M24.312,23.882c0-0.444,0-0.875,0-1.305c0-0.296,0-0.578,0-0.875c0.296,0,0.579,0,0.875,0
	c0.431,0,0.861,0,1.305,0c0,0.296,0,0.579,0,0.875c0,0.431,0,0.861,0,1.305c-0.296,0-0.578,0-0.874,0
	C25.187,23.882,24.742,23.882,24.312,23.882z"/>
<path fill="#211F30" d="M57.746,43.418c0.875,0,1.736,0,2.61,0c0,0.282,0,0.579,0,0.86c0,0.445,0,0.875,0,1.306
	c-0.874,0-1.735,0-2.61,0c-0.431,0-0.861,0-1.305,0c-0.282,0-0.579,0-0.861,0c0-0.431,0-0.86,0-1.306c0-0.281,0-0.578,0-0.86
	c0.282,0,0.579,0,0.861,0C56.885,43.418,57.315,43.418,57.746,43.418z"/>
<path fill="#211F30" d="M32.56,59.913c-5.934,0-11.867,0-17.801,0c0-0.578,0-1.157,0-1.735c0-0.147,0-0.296,0-0.431
	c0.444,0,0.875,0,1.306,0c0.296,0,0.578,0,0.874,0c0-0.875,0-1.736,0-2.61c0-0.727,0-1.453,0-2.166c0-0.874,0-1.735,0-2.61
	c0.861,0,1.736,0,2.597,0c0,2.031,0,4.05,0,6.082c0,0.43,0,0.861,0,1.305c0.431,0,0.875,0,1.306,0c0.296,0,0.578,0,0.874,0
	c0-0.443,0-0.875,0-1.305c0-1.023,0-2.032,0-3.041c0-1.01,0-2.031,0-3.041c0.861,0,1.736,0,2.597,0c0,1.157,0,2.314,0,3.471
	c0,1.306,0,2.611,0,3.916c0.296,0,0.579,0,0.875,0c1.305,0,2.597,0,3.901,0c0.875,0,1.736,0,2.61,0c0.282,0,0.579,0,0.861,0
	c0.444,0,0.874,0,1.305,0c0-0.875,0-1.736,0-2.61c0.296,0,0.579,0,0.875,0c0.431,0,0.861,0,1.305,0c0.861,0,1.736,0,2.597,0
	c0,0.874,0,1.735,0,2.61c0.875,0,1.736,0,2.61,0c0.282,0,0.579,0,0.861,0c0.444,0,0.874,0,1.305,0c0.875,0,1.736,0,2.61,0
	c0-0.875,0-1.736,0-2.61c0.282,0,0.579,0,0.861,0c0.444,0,0.874,0,1.305,0c0.875,0,1.736,0,2.61,0c0,0.874,0,1.735,0,2.61
	c0.861,0,1.735,0,2.597,0c3.188,0,6.378,0,9.553,0c0-1.602,0-3.189,0-4.776c0-0.874,0-1.735,0-2.61c0.444,0,0.875,0,1.306,0
	c0.296,0,0.578,0,0.874,0c0,2.463,0,4.924,0,7.387c0.282,0,0.578,0,0.861,0c0.578,0,1.157,0,1.735,0c0-1.305,0-2.61,0-3.916
	c0-1.156,0-2.313,0-3.471c0.444,0,0.875,0,1.305,0c0.297,0,0.579,0,0.875,0c0,1.157,0,2.314,0,3.471c0,1.306,0,2.611,0,3.916
	c4.911,0,9.835,0,14.76,0c0,0.283,0,0.578,0,0.861c0,0.43,0,0.874,0,1.305c-2.893,0-5.785,0-8.691,0c-2.893,0-5.786,0-8.679,0
	s-5.785,0-8.678,0c-2.906,0-5.799,0-8.691,0C44.144,59.913,38.358,59.913,32.56,59.913z"/>
<path fill="#9B3421" d="M24.312,44.724c0-0.445,0-0.875,0-1.306c0.431,0,0.875,0,1.306,0c0.296,0,0.578,0,0.874,0
	c0,0.282,0,0.579,0,0.86c0,0.445,0,0.875,0,1.306c-0.296,0-0.578,0-0.874,0c-0.431,0-0.875,0-1.306,0
	C24.312,45.302,24.312,45.005,24.312,44.724z"/>
<path fill="#48475B" d="M82.059,50.36c0-1.588,0-3.188,0-4.776c0.875,0,1.735,0,2.61,0c0,0.282,0,0.579,0,0.874
	c0,0.432,0,0.861,0,1.293c0,0.443,0,0.874,0,1.305c0,0.43,0,0.875,0,1.305C83.794,50.36,82.934,50.36,82.059,50.36z"/>
<path fill="#211F30" d="M32.56,16.496c-0.282,0-0.579,0-0.861,0c0-0.296,0-0.579,0-0.875c0-0.431,0-0.861,0-1.292
	c0.431,0,0.861,0,1.306,0c0.43,0,0.86,0,1.291,0c0.296,0,0.579,0,0.875,0c0.431,0,0.874,0,1.305,0c0,0.431,0,0.861,0,1.292
	c0,0.296,0,0.579,0,0.875c-0.874,0-1.735,0-2.61,0C33.434,16.496,33.004,16.496,32.56,16.496z"/>
<path fill="#211F30" d="M31.698,45.584c-1.735,0-3.471,0-5.207,0c0-0.431,0-0.86,0-1.306c0-0.281,0-0.578,0-0.86
	c1.736,0,3.472,0,5.207,0c0,0.431,0,0.86,0,1.306C31.698,45.005,31.698,45.302,31.698,45.584z"/>
<path fill="#9B3421" d="M21.715,45.584c0.861,0,1.736,0,2.597,0c0,1.588,0,3.188,0,4.776c-0.86,0-1.735,0-2.597,0
	C21.715,48.772,21.715,47.172,21.715,45.584z"/>
<path fill="#280F0C" d="M31.779,21.675c0.107,0,0.282,0.067,0.35,0.027c1.157,0,2.314,0,3.472,0c0.296,0,0.578,0,0.874,0
	c0,0.431,0,0.875,0,1.305c0,0.296,0,0.579,0,0.875c0.431,0,0.861,0,1.306,0c0.282,0,0.578,0,0.86,0c0,0.431,0,0.861,0,1.292
	c0,0.296,0,0.578,0,0.874c0,0.579,0,1.157,0,1.736c0,0.282,0,0.578,0,0.861c-0.431,0-0.86,0-1.305,0c-0.282,0-0.579,0-0.861,0
	c0,0.443,0,0.874,0,1.305c0,0.443,0,0.875,0,1.305c-1.305,0-2.61,0-3.915,0c-0.282,0-0.579,0-0.861,0c0-0.43,0-0.861,0-1.305
	c0-0.431,0-0.861,0-1.305c-0.431,0-0.874,0-1.305,0s-0.875,0-1.306,0c0-1.588,0-3.176,0-4.764c0.875,0,1.736,0,2.61,0
	c0-0.296,0-0.579,0-0.875s0-0.579,0-0.875c0-0.054-0.04-0.39,0-0.431C31.712,21.689,31.738,21.675,31.779,21.675z"/>
</svg>
