<?xml version="1.0" encoding="utf-8"?>
<!-- Generator: Adobe Illustrator 15.0.0, SVG Export Plug-In  -->
<!DOCTYPE svg PUBLIC "-//W3C//DTD SVG 1.1//EN" "http://www.w3.org/Graphics/SVG/1.1/DTD/svg11.dtd" [
	<!ENTITY ns_flows "http://ns.adobe.com/Flows/1.0/">
]>
<svg version="1.1"
	 xmlns="http://www.w3.org/2000/svg" xmlns:xlink="http://www.w3.org/1999/xlink" xmlns:a="http://ns.adobe.com/AdobeSVGViewerExtensions/3.0/"
	 x="0px" y="0px" width="110px" height="70px" viewBox="-2.776 -12.253 110 70" enable-background="new -2.776 -12.253 110 70"
	 xml:space="preserve">
<defs>
</defs>
<path fill="#D8E1E4" d="M5.207,46.889c0,0.43,0,0.875,0,1.305c-0.875,0-1.736,0-2.61,0c0-0.282,0-0.578,0-0.875
	c0-0.43,0-0.86,0-1.291c0.875,0,1.736,0,2.61,0C5.207,46.311,5.207,46.606,5.207,46.889z"/>
<path fill="#63677A" d="M31.686,51.665c0,0.445,0,0.875,0,1.306c0,0.874,0,1.735,0,2.61c-0.861,0-1.736,0-2.597,0
	c0-1.602,0-3.189,0-4.776c0.861,0,1.735,0,2.597,0C31.686,51.086,31.686,51.383,31.686,51.665z"/>
<path fill="#762014" d="M21.702,24.312c0.875,0,1.736,0,2.61,0c0,0.296,0,0.579,0,0.874c0,0.432,0,0.861,0,1.293
	c-0.875,0-1.736,0-2.61,0c0-0.579,0-1.145,0-1.736C21.702,24.608,21.702,24.46,21.702,24.312z"/>
<path fill="#D8E1E4" d="M89.432,16.939c0,0.861,0,1.736,0,2.597c-0.86,0-1.735,0-2.597,0c0-1.735,0-3.471,0-5.207
	c0.861,0,1.736,0,2.597,0c0,0.43,0,0.861,0,1.305C89.432,16.064,89.432,16.495,89.432,16.939z"/>
<path fill="#211F30" d="M85.96,24.312c0.297,0,0.579,0,0.875,0c0,2.314,0,4.628,0,6.956c-0.296,0-0.578,0-0.875,0
	c-0.43,0-0.861,0-1.291,0c0-0.443,0-0.875,0-1.305c0-0.297,0-0.578,0-0.875c-1.602,0-3.189,0-4.776,0c0-0.861,0-1.735,0-2.609
	c0.431,0,0.86,0,1.292,0c0.295,0,0.578,0,0.874,0c0.861,0,1.735,0,2.61,0c0-0.432,0-0.861,0-1.293c0-0.295,0-0.578,0-0.874
	C85.099,24.312,85.531,24.312,85.96,24.312z"/>
<path fill="#211F30" d="M65.121,41.251c-0.861,0-1.736,0-2.598,0c-0.443,0-0.875,0-1.305,0c-0.297,0-0.578,0-0.875,0
	c0-0.874,0-1.735,0-2.61c0.875,0,1.736,0,2.61,0c0.296,0,0.579,0,0.861,0c0.444,0,0.874,0,1.306,0
	C65.121,39.516,65.121,40.377,65.121,41.251z"/>
<path fill="#9B1C1F" d="M19.536,49.93c0,0.295,0,0.578,0,0.874c-0.875,0-1.736,0-2.61,0c0,0.431,0,0.86,0,1.306
	c0,0.281,0,0.578,0,0.86c-0.148,0-0.283,0-0.431,0c-0.579,0-1.157,0-1.735,0c0-2.893,0-5.785,0-8.679c0-0.443,0-0.874,0-1.305
	c0-0.296,0-0.578,0-0.875c0-0.43,0-0.86,0-1.291c0-0.296,0-0.592,0-0.875c0-1.305,0-2.609,0-3.914c0.43,0,0.861,0,1.305,0
	c0.282,0,0.578,0,0.861,0c0-0.861,0-1.736,0-2.598c0-0.43,0-0.874,0-1.305c0-0.296,0-0.578,0-0.861c0.875,0,1.736,0,2.61,0
	c0-0.443,0-0.875,0-1.305c0-0.297,0-0.578,0-0.875c0.43,0,0.861,0,1.305,0c0.283,0,0.579,0,0.861,0c0-0.861,0-1.735,0-2.609
	c0.875,0,1.736,0,2.61,0c0-0.432,0-0.861,0-1.293c0-0.295,0-0.578,0-0.874c0.861,0,1.735,0,2.597,0c0-0.861,0-1.735,0-2.597
	c0-0.444,0-0.875,0-1.305c0-0.296,0-0.578,0-0.875c0.444,0,0.875,0,1.305,0c0.727,0,1.453,0,2.179,0c0.431,0,0.861,0,1.292,0v2.18
	c0,0.861,0,1.736,0,2.597c-0.861,0-1.736,0-2.597,0c0,0.296,0,0.579,0,0.874c0,1.293,0,2.598,0,3.902v2.18c-1.601,0-3.189,0-4.776,0
	c0,0.431,0,0.861,0,1.292c0,0.578,0,1.157,0,1.735s0,1.157,0,1.736c0.282,0,0.579,0,0.861,0c1.305,0,2.61,0,3.916,0h2.597
	c0,0.443,0,0.874,0,1.305c0,0.43,0,0.875,0,1.305c-1.44,0-2.893,0-4.333,0c-0.148,0-0.296,0-0.444,0c0,0.875,0,1.736,0,2.61
	c-0.861,0-1.736,0-2.597,0c0,0.431,0,0.86,0,1.306c0,0.281,0,0.578,0,0.86c-0.875,0-1.736,0-2.61,0c0,0.874,0,1.735,0,2.61
	c-0.431,0-0.861,0-1.305,0c-0.282,0-0.579,0-0.861,0c0,0.861,0,1.736,0,2.597C19.536,49.069,19.536,49.499,19.536,49.93z"/>
<path fill="#9B3421" d="M26.909,43.417c0,0.874,0,1.735,0,2.61c-0.861,0-1.736,0-2.597,0c0-0.875,0-1.736,0-2.61
	C25.173,43.417,26.048,43.417,26.909,43.417z"/>
<path fill="#BA2226" d="M41.238,48.194c0,0.296,0,0.578,0,0.875c0,1.291,0,2.596,0,3.901c-2.449,0-4.911,0-7.373,0
	c0-0.727,0-1.453,0-2.166c0-0.874,0-1.735,0-2.61c0.43,0,0.861,0,1.305,0c0.283,0,0.579,0,0.861,0c0.579,0,1.157,0,1.735,0
	C38.924,48.194,40.081,48.194,41.238,48.194z"/>
<path fill="#211F30" d="M79.893,14.329c1.587,0,3.175,0,4.776,0c0,0.861,0,1.735,0,2.61c-0.875,0-1.749,0-2.61,0
	c-0.431,0-0.874,0-1.306,0c-0.281,0-0.578,0-0.86,0C79.893,16.064,79.893,15.19,79.893,14.329z"/>
<path fill="#280F0C" d="M38.642,24.312c0,1.588,0,3.188,0,4.776c-0.579,0-1.157,0-1.736,0c-0.148,0-0.296,0-0.444,0
	c0,0.431,0,0.875,0,1.305c0,0.283,0,0.579,0,0.875c-1.588,0-3.175,0-4.776,0c0-0.443,0-0.875,0-1.305c0-0.297,0-0.578,0-0.875
	c-0.431,0-0.861,0-1.292,0c-0.444,0-0.875,0-1.305,0c0-1.305,0-2.609,0-3.902c0-0.295,0-0.578,0-0.874c0.861,0,1.735,0,2.597,0
	c0-0.861,0-1.735,0-2.597c1.305,0,2.61,0,3.915,0c0.283,0,0.579,0,0.861,0c0,0.861,0,1.736,0,2.597c0.444,0,0.875,0,1.305,0
	C38.063,24.312,38.345,24.312,38.642,24.312z"/>
<path fill="#D8E1E4" d="M50.791,3.471c0,0.431,0,0.875,0,1.305c-0.283,0-0.579,0-0.861,0c-0.431,0-0.875,0-1.305,0
	c0-0.296,0-0.579,0-0.875c0-0.431,0-0.861,0-1.292c0.296,0,0.579,0,0.875,0c0.431,0,0.861,0,1.292,0
	C50.791,2.893,50.791,3.188,50.791,3.471z"/>
<path fill="#48475B" d="M42.543,52.97c0.296,0,0.579,0,0.875,0c0,0.874,0,1.735,0,2.61c-0.296,0-0.579,0-0.875,0
	c-0.43,0-0.861,0-1.305,0c0-0.875,0-1.736,0-2.61C41.682,52.97,42.113,52.97,42.543,52.97z"/>
<path fill="#9B1C1F" d="M43.418,26.479c0-0.432,0-0.861,0-1.293c0-0.295,0-0.578,0-0.874c-0.431,0-0.875,0-1.305,0
	c-0.296,0-0.579,0-0.875,0c0,0.431,0,0.874,0,1.306c0,0.282,0,0.578,0,0.861c0.444,0,0.875,0,1.305,0
	C42.839,26.479,43.122,26.479,43.418,26.479z M82.059,41.251c0-0.874,0-1.735,0-2.61c-0.296,0-0.579,0-0.874,0
	c-0.432,0-0.861,0-1.292,0c0,0.875,0,1.736,0,2.61c0.431,0,0.86,0,1.292,0C81.48,41.251,81.763,41.251,82.059,41.251z
	 M82.059,43.417c-0.296,0-0.579,0-0.874,0c-1.292,0-2.598,0-3.902,0c0,0.431,0,0.874,0,1.306c0,1.156,0,2.314,0,3.471
	c0.283,0,0.578,0,0.861,0c1.305,0,2.609,0,3.915,0C82.059,46.606,82.059,45.005,82.059,43.417z M62.954,14.329
	c0,0.861,0,1.735,0,2.61c0.861,0,1.735,0,2.61,0c0.431,0,0.861,0,1.291,0c0.297,0,0.579,0,0.875,0c0.861,0,1.736,0,2.61,0
	c0.431,0,0.86,0,1.292,0c0.295,0,0.578,0,0.874,0c0,0.861,0,1.736,0,2.597c0.861,0,1.735,0,2.61,0c0,0.431,0,0.875,0,1.305
	c0,0.296,0,0.579,0,0.875c0,0.861,0,1.736,0,2.597c0,0.579,0,1.157,0,1.735c0,0.148,0,0.297,0,0.432c0.431,0,0.861,0,1.291,0
	c0.297,0,0.579,0,0.875,0c0,0.874,0,1.748,0,2.609c0.861,0,1.736,0,2.61,0c0,0.431,0,0.875,0,1.305c0,0.283,0,0.579,0,0.875
	c0.86,0,1.735,0,2.597,0c0.431,0,0.875,0,1.305,0c0.283,0,0.578,0,0.875,0c0.43,0,0.861,0,1.291,0c0.297,0,0.579,0,0.875,0
	c0,1.588,0,3.176,0,4.764c0,1.734,0,3.484,0,5.22c-0.431,0-0.875,0-1.305,0c-0.283,0-0.579,0-0.861,0c0,0.431,0,0.86,0,1.306
	c0,0.281,0,0.578,0,0.86c0,0.431,0,0.874,0,1.306c0,0.282,0,0.578,0,0.861c0,0.443,0,0.874,0,1.305c0,0.296,0,0.578,0,0.875
	c0,0.43,0,0.86,0,1.305c0,0.282,0,0.578,0,0.861c0,0.295,0,0.578,0,0.874c-0.875,0-1.749,0-2.61,0c0,0.431,0,0.86,0,1.306
	c0,0.281,0,0.578,0,0.86c-1.587,0-3.188,0-4.776,0c0-0.579,0-1.157,0-1.735c0-0.148,0-0.297,0-0.431c-0.431,0-0.875,0-1.305,0
	c-0.283,0-0.579,0-0.861,0c0-0.444,0-0.874,0-1.306c0-0.295,0-0.578,0-0.874c0-0.431,0-0.86,0-1.306c0-0.43,0-0.86,0-1.291
	c-0.875,0-1.749,0-2.61,0c0-0.875,0-1.736,0-2.61c-0.431,0-0.874,0-1.306,0c-0.281,0-0.578,0-0.86,0c0-0.431,0-0.86,0-1.306
	c0-0.281,0-0.578,0-0.86c-0.874,0-1.749,0-2.61,0c0-0.874,0-1.735,0-2.61c-0.875,0-1.735,0-2.609,0c-0.432,0-0.861,0-1.306,0
	c-0.282,0-0.565,0-0.861,0c0-0.875,0-1.735,0-2.609c-0.874,0-1.735,0-2.61,0c-1.305,0-2.597,0-3.901,0c-1.157,0-2.314,0-3.472,0
	c-2.314,0-4.642,0-6.956,0c-2.314,0-4.628,0-6.943,0c-1.157,0-2.314,0-3.471,0c-0.579,0-1.157,0-1.735,0c-0.727,0-1.453,0-2.18,0
	h-2.597c0-1.588,0-3.176,0-4.764v-2.18c0.43,0,0.861,0,1.305,0c0.431,0,0.861,0,1.292,0c0,0.297,0,0.578,0,0.875
	c0,0.43,0,0.861,0,1.305c1.601,0,3.188,0,4.776,0c0-0.296,0-0.592,0-0.875c0-0.43,0-0.874,0-1.305c0.148,0,0.296,0,0.444,0
	c0.579,0,1.157,0,1.736,0c0-1.588,0-3.188,0-4.776c-0.296,0-0.579,0-0.875,0c-0.43,0-0.861,0-1.305,0c0-0.861,0-1.735,0-2.597
	c-0.283,0-0.579,0-0.861,0c-1.305,0-2.61,0-3.915,0v-2.18c0-0.861,0-1.735,0-2.597c2.328,0,4.642,0,6.956,0c0-0.875,0-1.749,0-2.61
	c0.861,0,1.735,0,2.597,0c0,0.861,0,1.735,0,2.61c0.444,0,0.875,0,1.305,0c0.296,0,0.579,0,0.875,0c0,0.861,0,1.736,0,2.597
	c4.05,0,8.1,0,12.15,0c0-0.43,0-0.861,0-1.305c0-0.431,0-0.861,0-1.292c0.874,0,1.734,0,2.609,0c0-0.875,0-1.749,0-2.61
	C59.765,14.329,61.367,14.329,62.954,14.329z"/>
<path fill="#211F30" d="M16.926,33.434c0,0.861,0,1.736,0,2.598c-0.283,0-0.579,0-0.861,0c-0.444,0-0.875,0-1.305,0
	c0-1.588,0-3.176,0-4.764c0.282,0,0.579,0,0.861,0c0.444,0,0.875,0,1.305,0c0,0.283,0,0.565,0,0.861
	C16.926,32.56,16.926,33.004,16.926,33.434z"/>
<path fill="#211F30" d="M53.401,3.471c0,0.431,0,0.875,0,1.305c-0.861,0-1.735,0-2.61,0c0-0.431,0-0.875,0-1.305
	c0-0.283,0-0.579,0-0.861c0.875,0,1.749,0,2.61,0C53.401,2.893,53.401,3.188,53.401,3.471z"/>
<path fill="#211F30" d="M5.207,48.194c0,0.875,0,1.736,0,2.61c-0.875,0-1.736,0-2.61,0c0-0.874,0-1.735,0-2.61
	C3.471,48.194,4.333,48.194,5.207,48.194z"/>
<path fill="#48475B" d="M60.343,43.417c0,0.874,0,1.735,0,2.61c-0.43,0-0.861,0-1.305,0c-0.283,0-0.565,0-0.861,0
	c-4.05,0-8.1,0-12.163,0c-0.861,0-1.736,0-2.597,0c-3.916,0-7.817,0-11.732,0c0-0.875,0-1.736,0-2.61c2.328,0,4.642,0,6.956,0
	c1.157,0,2.314,0,3.471,0c1.305,0,2.61,0,3.902,0c2.314,0,4.642,0,6.956,0c1.157,0,2.314,0,3.472,0
	C57.747,43.417,59.039,43.417,60.343,43.417z"/>
<path fill="#48475B" d="M89.432,45.584c0,0.874,0,1.734,0,2.609c-0.86,0-1.735,0-2.597,0c0-1.588,0-3.188,0-4.776
	c0.861,0,1.736,0,2.597,0c0,0.282,0,0.579,0,0.874C89.432,44.723,89.432,45.153,89.432,45.584z"/>
<path fill="#280F0C" d="M55.568,9.553c0,1.587,0,3.188,0,4.776c-0.283,0-0.579,0-0.861,0c-0.432,0-0.875,0-1.306,0
	c0-1.588,0-3.189,0-4.776c0.431,0,0.874,0,1.306,0C54.989,9.553,55.285,9.553,55.568,9.553z"/>
<path fill="#762014" d="M79.893,26.479c0,0.874,0,1.748,0,2.609c-0.874,0-1.749,0-2.61,0c0-0.861,0-1.735,0-2.609
	C78.144,26.479,79.019,26.479,79.893,26.479z"/>
<path fill="#762014" d="M70.34,42.112c0,0.445,0,0.875,0,1.306c-0.874,0-1.749,0-2.61,0c0-0.431,0-0.86,0-1.306
	c0-0.281,0-0.578,0-0.86c0.861,0,1.736,0,2.61,0C70.34,41.534,70.34,41.831,70.34,42.112z"/>
<path fill="#280F0C" d="M29.089,31.268c0,1.588,0,3.176,0,4.764c-1.305,0-2.61,0-3.916,0c-0.282,0-0.579,0-0.861,0
	c0-0.579,0-1.158,0-1.736s0-1.157,0-1.735c0-0.431,0-0.861,0-1.292C25.9,31.268,27.488,31.268,29.089,31.268z"/>
<path fill="#FFFFFF" d="M19.536,16.939c0.861,0,1.735,0,2.597,0c0.727,0,1.453,0,2.18,0c0,0.431,0,0.861,0,1.292
	c0,0.444,0,0.875,0,1.305c0,0.431,0,0.875,0,1.305c0,0.296,0,0.579,0,0.875c-0.875,0-1.736,0-2.61,0c-0.431,0-0.861,0-1.305,0
	c-0.282,0-0.579,0-0.861,0c0-0.444,0-0.875,0-1.305c0-0.296,0-0.578,0-0.875c-0.875,0-1.736,0-2.61,0c0-1.735,0-3.471,0-5.207
	c0.875,0,1.736,0,2.61,0C19.536,15.19,19.536,16.064,19.536,16.939z"/>
<path fill="#762014" d="M62.954,36.032c0,0.874,0,1.734,0,2.609c-0.874,0-1.735,0-2.61,0c0-0.875,0-1.735,0-2.609
	C61.218,36.032,62.08,36.032,62.954,36.032z"/>
<path fill="#280F0C" d="M11.289,52.97c-0.444,0-0.875,0-1.305,0c0-0.431,0-0.86,0-1.306c0-0.281,0-0.578,0-0.86
	c0.282,0,0.579,0,0.861,0c0.444,0,0.875,0,1.305,0c0,0.282,0,0.579,0,0.86c0,0.445,0,0.875,0,1.306
	C11.867,52.97,11.571,52.97,11.289,52.97z"/>
<path fill="#762014" d="M67.73,38.641c0,0.875,0,1.736,0,2.61c-0.875,0-1.735,0-2.609,0c0-0.874,0-1.735,0-2.61
	C65.995,38.641,66.855,38.641,67.73,38.641z"/>
<path fill="#211F30" d="M92.042,16.064c0,1.157,0,2.314,0,3.471c-0.861,0-1.736,0-2.61,0c0-0.861,0-1.735,0-2.597
	c0-0.444,0-0.875,0-1.305c0-0.444,0-0.875,0-1.305c-0.86,0-1.735,0-2.597,0c-0.431,0-0.875,0-1.305,0c-0.283,0-0.579,0-0.861,0
	c0-0.296,0-0.579,0-0.875c0-0.431,0-0.861,0-1.292c0.135,0,0.282,0,0.43,0c0.579,0,1.158,0,1.736,0s1.157,0,1.736,0
	c1.156,0,2.313,0,3.471,0c0,0.135,0,0.283,0,0.431C92.042,13.75,92.042,14.908,92.042,16.064z"/>
<path fill="#211F30" d="M55.568,8.248c0,0.431,0,0.875,0,1.305c-0.283,0-0.579,0-0.861,0c-0.432,0-0.875,0-1.306,0
	c0-0.296,0-0.579,0-0.875c0-0.431,0-0.861,0-1.292c0-0.875,0-1.749,0-2.61c0.296,0,0.579,0,0.874,0c0.432,0,0.861,0,1.293,0
	c0,0.431,0,0.861,0,1.305c0,0.43,0,0.861,0,1.305C55.568,7.669,55.568,7.965,55.568,8.248z"/>
<path fill="#D8E1E4" d="M53.401,8.678c0,0.296,0,0.579,0,0.875c0,1.587,0,3.188,0,4.776c-0.861,0-1.735,0-2.61,0
	c-1.588,0-3.175,0-4.776,0c-0.861,0-1.736,0-2.597,0c0-0.296,0-0.579,0-0.875c0-0.431,0-0.861,0-1.292c2.462,0,4.911,0,7.373,0
	c0-2.462,0-4.924,0-7.386c0.875,0,1.749,0,2.61,0c0,0.861,0,1.735,0,2.61C53.401,7.817,53.401,8.248,53.401,8.678z"/>
<path fill="#211F30" d="M70.34,43.417c0,0.874,0,1.735,0,2.61c-0.874,0-1.749,0-2.61,0c0-0.875,0-1.736,0-2.61
	C68.591,43.417,69.466,43.417,70.34,43.417z"/>
<path fill="#9B3421" d="M60.343,38.641c0,0.875,0,1.736,0,2.61c-0.43,0-0.861,0-1.305,0c-0.283,0-0.565,0-0.861,0
	c-0.578,0-1.157,0-1.735,0c-1.157,0-2.314,0-3.472,0c-2.314,0-4.642,0-6.956,0c-0.431,0-0.861,0-1.292,0c-0.296,0-0.579,0-0.875,0
	c-0.579,0-1.157,0-1.735,0c-1.157,0-2.314,0-3.471,0c-2.314,0-4.628,0-6.956,0c0-0.874,0-1.735,0-2.61c2.328,0,4.642,0,6.956,0
	c1.157,0,2.314,0,3.471,0c1.305,0,2.61,0,3.902,0c2.314,0,4.642,0,6.956,0c1.157,0,2.314,0,3.472,0
	C57.747,38.641,59.039,38.641,60.343,38.641z"/>
<path fill="#211F30" d="M5.207,43.417c0,0.874,0,1.735,0,2.61c-0.875,0-1.736,0-2.61,0c0-0.875,0-1.736,0-2.61
	C3.471,43.417,4.333,43.417,5.207,43.417z"/>
<path fill="#D8E1E4" d="M15.621,14.329c0.444,0,0.875,0,1.305,0c0,1.735,0,3.471,0,5.207c-0.431,0-0.861,0-1.305,0
	c-0.282,0-0.579,0-0.861,0c0-1.735,0-3.471,0-5.207C15.042,14.329,15.338,14.329,15.621,14.329z"/>
<path fill="#762014" d="M75.117,46.028c0,0.431,0,0.861,0,1.291c0,0.445,0,0.875,0,1.306c0,0.296,0,0.579,0,0.874
	c0,0.432,0,0.861,0,1.306c-0.875,0-1.749,0-2.61,0c0-0.296,0-0.579,0-0.874c0-0.432,0-0.861,0-1.306c0-0.431,0-0.86,0-1.306
	c0-0.43,0-0.86,0-1.291C73.368,46.028,74.242,46.028,75.117,46.028z"/>
<path fill="#280F0C" d="M19.536,21.715c0,0.861,0,1.736,0,2.597c-0.875,0-1.736,0-2.61,0c0-0.861,0-1.735,0-2.597
	C17.8,21.715,18.662,21.715,19.536,21.715z"/>
<path fill="#211F30" d="M46.015,14.329c0,0.861,0,1.735,0,2.61c-0.861,0-1.736,0-2.597,0c0-0.875,0-1.749,0-2.61
	C44.279,14.329,45.153,14.329,46.015,14.329z"/>
<path fill="#211F30" d="M19.536,24.312c0.43,0,0.861,0,1.305,0c0.283,0,0.579,0,0.861,0c0,0.148,0,0.296,0,0.431
	c0,0.592,0,1.157,0,1.736c-0.431,0-0.861,0-1.305,0c-0.282,0-0.579,0-0.861,0c0,0.874,0,1.748,0,2.609c0,0.297,0,0.578,0,0.875
	c0,0.43,0,0.861,0,1.305c-0.875,0-1.736,0-2.61,0c0-2.328,0-4.642,0-6.956C17.8,24.312,18.662,24.312,19.536,24.312z"/>
<path fill="#211F30" d="M31.686,38.641c0,0.875,0,1.736,0,2.61c-0.861,0-1.736,0-2.597,0c-0.727,0-1.453,0-2.18,0
	c0-0.874,0-1.735,0-2.61c0.148,0,0.296,0,0.444,0C28.792,38.641,30.246,38.641,31.686,38.641z"/>
<path fill="#211F30" d="M62.523,43.417c0.861,0,1.736,0,2.598,0c0,0.874,0,1.735,0,2.61c-0.861,0-1.736,0-2.598,0
	c-0.443,0-0.875,0-1.305,0c-0.297,0-0.578,0-0.875,0c0-0.875,0-1.736,0-2.61c0.297,0,0.578,0,0.875,0
	C61.648,43.417,62.08,43.417,62.523,43.417z"/>
<path fill="#211F30" d="M48.625,2.61c0,0.431,0,0.861,0,1.292c0,0.296,0,0.579,0,0.875c-0.861,0-1.735,0-2.61,0
	c0-0.296,0-0.579,0-0.875c0-0.431,0-0.861,0-1.292C46.889,2.61,47.764,2.61,48.625,2.61z"/>
<path fill="#D8E1E4" d="M82.059,24.312c0,0.296,0,0.579,0,0.874c0,0.432,0,0.861,0,1.293c-0.296,0-0.579,0-0.874,0
	c-0.432,0-0.861,0-1.292,0c0-0.432,0-0.861,0-1.293c0-0.295,0-0.578,0-0.874c0.282,0,0.579,0,0.86,0
	C81.185,24.312,81.628,24.312,82.059,24.312z"/>
<path fill="#211F30" d="M43.418,9.553c0,0.861,0,1.735,0,2.61c0,0.431,0,0.861,0,1.292c0,0.296,0,0.579,0,0.875
	c-0.431,0-0.875,0-1.305,0c-0.296,0-0.579,0-0.875,0c-0.861,0-1.736,0-2.597,0c0-0.296,0-0.579,0-0.875c0-0.431,0-0.861,0-1.292
	c0.43,0,0.861,0,1.305,0c0.431,0,0.861,0,1.292,0c0-0.875,0-1.749,0-2.61c0.296,0,0.579,0,0.875,0
	C42.543,9.553,42.987,9.553,43.418,9.553z"/>
<path fill="#211F30" d="M21.702,43.417c0.875,0,1.736,0,2.61,0c0,0.874,0,1.735,0,2.61c-0.875,0-1.736,0-2.61,0
	C21.702,45.153,21.702,44.292,21.702,43.417z"/>
<path fill="#9B3421" d="M31.686,42.112c0,0.445,0,0.875,0,1.306c-0.861,0-1.736,0-2.597,0c-0.727,0-1.453,0-2.18,0
	c0-0.282,0-0.579,0-0.86c0-0.445,0-0.875,0-1.306c0.727,0,1.453,0,2.18,0c0.861,0,1.735,0,2.597,0
	C31.686,41.534,31.686,41.831,31.686,42.112z"/>
<path fill="#211F30" d="M15.621,19.536c0.444,0,0.875,0,1.305,0c0,0.431,0,0.875,0,1.305c0,0.296,0,0.579,0,0.875
	c0,0.861,0,1.736,0,2.597c-0.283,0-0.579,0-0.861,0c-0.444,0-0.875,0-1.305,0c0-1.587,0-3.175,0-4.776
	C15.042,19.536,15.338,19.536,15.621,19.536z"/>
<path fill="#280F0C" d="M42.113,24.312c0.43,0,0.875,0,1.305,0c0,0.296,0,0.579,0,0.874c0,0.432,0,0.861,0,1.293
	c-0.296,0-0.579,0-0.875,0c-0.43,0-0.861,0-1.305,0c0-0.283,0-0.579,0-0.861c0-0.432,0-0.875,0-1.306
	C41.534,24.312,41.817,24.312,42.113,24.312z"/>
<path fill="#48475B" d="M46.015,14.329c1.601,0,3.188,0,4.776,0c0,0.861,0,1.735,0,2.61c-0.861,0-1.736,0-2.597,0
	c-0.431,0-0.875,0-1.305,0c-0.296,0-0.579,0-0.875,0C46.015,16.064,46.015,15.19,46.015,14.329z"/>
<path fill="#9B3421" d="M67.73,43.417c0,0.874,0,1.735,0,2.61c-0.875,0-1.735,0-2.609,0c0-0.875,0-1.736,0-2.61
	C65.995,43.417,66.855,43.417,67.73,43.417z"/>
<path fill="#FFFFFF" d="M95.083,48.194c-0.283,0-0.579,0-0.875,0c-0.431,0-0.861,0-1.291,0c-0.444,0-0.875,0-1.306,0
	s-0.874,0-1.306,0c-0.281,0-0.578,0-0.874,0c0-0.875,0-1.735,0-2.609c0-0.432,0-0.861,0-1.293c0-0.295,0-0.592,0-0.874
	c0-0.431,0-0.86,0-1.306c0-0.281,0-0.578,0-0.86c0.296,0,0.593,0,0.874,0c0.432,0,0.875,0,1.306,0c0.861,0,1.735,0,2.597,0
	c0,0.431,0,0.86,0,1.306c0,0.281,0,0.578,0,0.86c0.875,0,1.749,0,2.61,0c0.431,0,0.874,0,1.306,0c0.281,0,0.578,0,0.86,0
	c0,0.874,0,1.735,0,2.61c0,0.431,0,0.861,0,1.291c0,0.297,0,0.593,0,0.875c-0.431,0-0.86,0-1.292,0c-0.443,0-0.874,0-1.305,0
	S95.513,48.194,95.083,48.194z"/>
<path fill="#762014" d="M55.568,16.939c0,0.431,0,0.861,0,1.292c0,0.444,0,0.875,0,1.305c-4.05,0-8.1,0-12.15,0
	c0-0.861,0-1.735,0-2.597c0.861,0,1.735,0,2.597,0c0.296,0,0.578,0,0.875,0c0.43,0,0.875,0,1.305,0c0.861,0,1.735,0,2.597,0
	c0.296,0,0.578,0,0.875,0c0.43,0,0.875,0,1.305,0C53.832,16.939,54.707,16.939,55.568,16.939z"/>
<path fill="#211F30" d="M65.564,16.939c-0.875,0-1.749,0-2.61,0c0-0.875,0-1.749,0-2.61c1.588,0,3.188,0,4.776,0s3.189,0,4.776,0
	c0,0.861,0,1.735,0,2.61c-0.296,0-0.579,0-0.874,0c-0.432,0-0.861,0-1.292,0c-0.874,0-1.749,0-2.61,0c-0.296,0-0.578,0-0.875,0
	C66.425,16.939,65.995,16.939,65.564,16.939z"/>
<path fill="#211F30" d="M79.893,16.939c0,0.861,0,1.736,0,2.597c-0.874,0-1.749,0-2.61,0c0,0.296,0,0.579,0,0.875
	c0,0.431,0,0.861,0,1.305c-0.148,0-0.296,0-0.431,0c-0.579,0-1.157,0-1.735,0c0-0.296,0-0.579,0-0.875c0-0.431,0-0.875,0-1.305
	c-0.875,0-1.749,0-2.61,0c0-0.861,0-1.735,0-2.597c1.157,0,2.314,0,3.472,0C77.283,16.939,78.587,16.939,79.893,16.939z"/>
<path fill="#211F30" d="M89.432,42.112c0,0.445,0,0.875,0,1.306c-0.86,0-1.735,0-2.597,0c0-0.579,0-1.157,0-1.735
	c0-0.148,0-0.296,0-0.431c0.861,0,1.736,0,2.597,0C89.432,41.534,89.432,41.831,89.432,42.112z"/>
<path fill="#48475B" d="M24.313,50.804c0.861,0,1.735,0,2.597,0c0-0.296,0-0.579,0-0.874c0-0.432,0-0.861,0-1.306
	c0-0.86,0-1.735,0-2.597c0.296,0,0.579,0,0.875,0c0.431,0,0.875,0,1.305,0c0.861,0,1.735,0,2.597,0c0,0.861,0,1.736,0,2.597
	c0,0.444,0,0.874,0,1.306c0,0.295,0,0.578,0,0.874c-0.861,0-1.736,0-2.597,0c0,1.587,0,3.175,0,4.776c-1.601,0-3.189,0-4.776,0
	C24.313,53.979,24.313,52.391,24.313,50.804z"/>
<path fill="#211F30" d="M89.432,21.715c0,0.861,0,1.736,0,2.597c-0.86,0-1.735,0-2.597,0c0-0.861,0-1.735,0-2.597
	c0-0.444,0-0.875,0-1.305c0-0.296,0-0.578,0-0.875c0.861,0,1.736,0,2.597,0c0,0.296,0,0.579,0,0.875
	C89.432,20.841,89.432,21.271,89.432,21.715z"/>
<path fill="#9B3421" d="M62.523,41.251c0.861,0,1.736,0,2.598,0c0,0.282,0,0.579,0,0.86c0,0.445,0,0.875,0,1.306
	c-0.861,0-1.736,0-2.598,0c-0.443,0-0.875,0-1.305,0c-0.297,0-0.578,0-0.875,0c0-0.431,0-0.86,0-1.306c0-0.281,0-0.578,0-0.86
	c0.297,0,0.578,0,0.875,0C61.648,41.251,62.08,41.251,62.523,41.251z"/>
<path fill="#280F0C" d="M82.059,38.641c0,0.875,0,1.736,0,2.61c-0.296,0-0.579,0-0.874,0c-0.432,0-0.861,0-1.292,0
	c0-0.874,0-1.735,0-2.61c0.431,0,0.86,0,1.292,0C81.48,38.641,81.763,38.641,82.059,38.641z"/>
<path fill="#48475B" d="M31.686,52.97c0.444,0,0.875,0,1.305,0c0.296,0,0.578,0,0.875,0c0,0.874,0,1.735,0,2.61
	c-0.444,0-0.875,0-1.305,0c-0.296,0-0.579,0-0.875,0C31.686,54.706,31.686,53.844,31.686,52.97z"/>
<path fill="#FFFFFF" d="M86.835,14.329c0,1.735,0,3.471,0,5.207c-0.578,0-1.157,0-1.736,0c-0.147,0-0.295,0-0.43,0
	c0,0.431,0,0.875,0,1.305c0,0.296,0,0.579,0,0.875c-0.875,0-1.749,0-2.61,0c0,0.861,0,1.736,0,2.597c-0.431,0-0.874,0-1.306,0
	c-0.281,0-0.578,0-0.86,0c-0.874,0-1.749,0-2.61,0c0-0.861,0-1.735,0-2.597c0-0.444,0-0.875,0-1.305c0-0.296,0-0.578,0-0.875
	c0.861,0,1.736,0,2.61,0c0-0.861,0-1.735,0-2.597c0.282,0,0.579,0,0.86,0c0.432,0,0.875,0,1.306,0c0.861,0,1.735,0,2.61,0
	c0-0.875,0-1.749,0-2.61c0.282,0,0.578,0,0.861,0C85.96,14.329,86.405,14.329,86.835,14.329z"/>
<path fill="#63677A" d="M61.648,48.194c0.432,0,0.875,0,1.306,0s0.861,0,1.306,0c0.282,0,0.578,0,0.861,0c0,0.875,0,1.736,0,2.61
	c0,0.579,0,1.157,0,1.735c0,0.148,0,0.283,0,0.431c0.874,0,1.734,0,2.609,0c0,0.874,0,1.735,0,2.61c-1.588,0-3.188,0-4.776,0
	c-1.587,0-3.188,0-4.776,0c0-0.875,0-1.736,0-2.61c0-2.313,0-4.628,0-6.942c0.296,0,0.578,0,0.861,0c0.443,0,0.875,0,1.305,0
	c0,0.431,0,0.861,0,1.291c0,0.297,0,0.593,0,0.875C60.788,48.194,61.218,48.194,61.648,48.194z"/>
<path fill="#211F30" d="M89.432,31.699c0,1.439,0,2.893,0,4.333c-0.86,0-1.735,0-2.597,0c0-1.588,0-3.176,0-4.764
	c0.861,0,1.736,0,2.597,0C89.432,31.403,89.432,31.551,89.432,31.699z"/>
<path fill="#762014" d="M26.909,21.715c0,0.861,0,1.736,0,2.597c-0.861,0-1.736,0-2.597,0c0-0.861,0-1.735,0-2.597
	C25.173,21.715,26.048,21.715,26.909,21.715z"/>
<path fill="#211F30" d="M50.791,0c0,0.861,0,1.735,0,2.61c-0.431,0-0.861,0-1.292,0c-0.296,0-0.579,0-0.875,0
	c0-0.875,0-1.749,0-2.61c0.296,0,0.579,0,0.875,0C49.93,0,50.36,0,50.791,0z"/>
<path fill="#762014" d="M89.432,52.97c0,0.874,0,1.735,0,2.61c-4.763,0-9.539,0-14.315,0c0-1.602,0-3.189,0-4.776
	c0.282,0,0.578,0,0.861,0c0.43,0,0.874,0,1.305,0c0,0.134,0,0.282,0,0.431c0,0.578,0,1.156,0,1.735c1.588,0,3.189,0,4.776,0
	c0-0.282,0-0.579,0-0.86c0-0.445,0-0.875,0-1.306c0.861,0,1.735,0,2.61,0c0-0.296,0-0.579,0-0.874c0-0.283,0-0.579,0-0.861
	c0-0.444,0-0.875,0-1.305c0-0.297,0-0.579,0-0.875c0-0.431,0-0.861,0-1.305c0-0.283,0-0.579,0-0.861c0-0.432,0-0.875,0-1.306
	c0-0.282,0-0.579,0-0.86c0-0.445,0-0.875,0-1.306c0.282,0,0.578,0,0.861,0c0.43,0,0.874,0,1.305,0c0,0.135,0,0.282,0,0.431
	c0,0.578,0,1.156,0,1.735c0,1.588,0,3.188,0,4.776c0,0.431,0,0.875,0,1.305c0,0.283,0,0.579,0,0.861c0,0.444,0,0.875,0,1.305
	c0,0.445,0,0.875,0,1.306C87.697,52.97,88.572,52.97,89.432,52.97z"/>
<path fill="#BA2226" d="M55.568,49.069c0,1.291,0,2.596,0,3.901c-2.314,0-4.629,0-6.943,0c0-0.727,0-1.453,0-2.166
	c0-0.874,0-1.735,0-2.61c2.314,0,4.629,0,6.943,0C55.568,48.49,55.568,48.772,55.568,49.069z"/>
<path fill="#9B3421" d="M19.536,54.276c0-1.158,0-2.314,0-3.472c0.43,0,0.861,0,1.305,0c0.283,0,0.579,0,0.861,0
	c0,1.306,0,2.597,0,3.901c0,0.297,0,0.579,0,0.875c-0.283,0-0.579,0-0.861,0c-0.444,0-0.875,0-1.305,0
	C19.536,55.137,19.536,54.706,19.536,54.276z"/>
<path fill="#280F0C" d="M85.96,21.715c0.297,0,0.579,0,0.875,0c0,0.861,0,1.736,0,2.597c-0.296,0-0.578,0-0.875,0
	c-0.43,0-0.861,0-1.291,0c0-0.861,0-1.735,0-2.597C85.099,21.715,85.531,21.715,85.96,21.715z"/>
<path fill="#762014" d="M77.283,25.186c0,0.432,0,0.861,0,1.293c-0.296,0-0.578,0-0.875,0c-0.43,0-0.86,0-1.291,0
	c0-0.135,0-0.283,0-0.432c0-0.578,0-1.156,0-1.735c0.431,0,0.861,0,1.291,0c0.297,0,0.579,0,0.875,0
	C77.283,24.608,77.283,24.891,77.283,25.186z"/>
<path fill="#280F0C" d="M82.059,43.417c0,1.588,0,3.188,0,4.776c-1.306,0-2.61,0-3.915,0c-0.283,0-0.578,0-0.861,0
	c0-1.156,0-2.314,0-3.471c0-0.432,0-0.875,0-1.306c1.305,0,2.61,0,3.902,0C81.48,43.417,81.763,43.417,82.059,43.417z"/>
<path fill="#D8E1E4" d="M98.985,46.028c0.874,0,1.749,0,2.61,0c0,0.283,0,0.578,0,0.861c0,0.43,0,0.875,0,1.305
	c-0.861,0-1.736,0-2.61,0c0-0.282,0-0.578,0-0.875C98.985,46.889,98.985,46.458,98.985,46.028z"/>
<path fill="#211F30" d="M19.536,50.804c0,1.157,0,2.313,0,3.472c0,0.43,0,0.861,0,1.305c0.43,0,0.861,0,1.305,0
	c0.283,0,0.579,0,0.861,0c0-0.296,0-0.578,0-0.875c0-1.305,0-2.596,0-3.901c0.875,0,1.736,0,2.61,0c0,1.587,0,3.175,0,4.776
	c1.587,0,3.175,0,4.776,0c0.861,0,1.735,0,2.597,0c0.296,0,0.579,0,0.875,0c0.431,0,0.861,0,1.305,0c0-0.875,0-1.736,0-2.61
	c2.462,0,4.924,0,7.373,0c0,0.874,0,1.735,0,2.61c0.444,0,0.875,0,1.305,0c0.296,0,0.579,0,0.875,0c0.861,0,1.735,0,2.597,0
	c0.875,0,1.749,0,2.61,0c0-0.875,0-1.736,0-2.61c2.314,0,4.629,0,6.943,0c0,0.874,0,1.735,0,2.61c0.874,0,1.734,0,2.609,0
	c1.588,0,3.189,0,4.776,0c1.588,0,3.188,0,4.776,0c0-0.875,0-1.736,0-2.61c0-0.431,0-0.86,0-1.306c0-0.281,0-0.578,0-0.86
	c0.861,0,1.736,0,2.61,0c0,1.306,0,2.597,0,3.901c0,0.297,0,0.579,0,0.875c0.431,0,0.86,0,1.292,0c0.295,0,0.578,0,0.874,0
	c0-0.296,0-0.578,0-0.875c0-1.305,0-2.596,0-3.901c0.861,0,1.735,0,2.61,0c0,1.587,0,3.175,0,4.776c4.776,0,9.553,0,14.315,0
	c0,0.283,0,0.578,0,0.861c0,0.43,0,0.874,0,1.305c-6.216,0-12.445,0-18.661,0c-6.229,0-12.445,0-18.675,0
	c-6.216,0-12.445,0-18.675,0c-6.216,0-12.445,0-18.661,0c0-0.578,0-1.157,0-1.735c0-0.147,0-0.296,0-0.431c0.43,0,0.861,0,1.305,0
	c0.282,0,0.578,0,0.861,0c0-0.875,0-1.736,0-2.61c0-0.282,0-0.579,0-0.86c0-0.445,0-0.875,0-1.306
	C17.8,50.804,18.662,50.804,19.536,50.804z"/>
<path fill="#280F0C" d="M84.669,24.312c0,0.296,0,0.579,0,0.874c0,0.432,0,0.861,0,1.293c-0.875,0-1.749,0-2.61,0
	c0-0.432,0-0.861,0-1.293c0-0.295,0-0.578,0-0.874C82.92,24.312,83.794,24.312,84.669,24.312z"/>
<path fill="#211F30" d="M89.432,50.804c0,0.431,0,0.86,0,1.306c0,0.281,0,0.578,0,0.86c-0.86,0-1.735,0-2.597,0
	c0-0.431,0-0.86,0-1.306c0-0.43,0-0.86,0-1.305c0-0.282,0-0.578,0-0.861c0-0.43,0-0.874,0-1.305c0.861,0,1.736,0,2.597,0
	C89.432,49.069,89.432,49.93,89.432,50.804z"/>
<path fill="#762014" d="M58.177,14.329c0,0.861,0,1.735,0,2.61c-0.875,0-1.735,0-2.609,0c0-0.875,0-1.749,0-2.61
	C56.442,14.329,57.302,14.329,58.177,14.329z"/>
<path fill="#211F30" d="M5.207,41.251c0.431,0,0.861,0,1.305,0c0.43,0,0.861,0,1.305,0c0.283,0,0.579,0,0.861,0
	c0.431,0,0.875,0,1.305,0c0,0.431,0,0.86,0,1.306c0,0.281,0,0.578,0,0.86c-0.875,0-1.736,0-2.61,0c-0.431,0-0.861,0-1.305,0
	c-0.282,0-0.579,0-0.861,0c0-0.282,0-0.579,0-0.86C5.207,42.112,5.207,41.682,5.207,41.251z"/>
<path fill="#211F30" d="M62.954,13.024c0,0.431,0,0.875,0,1.305c-1.587,0-3.188,0-4.776,0c-0.875,0-1.735,0-2.609,0
	c0-1.588,0-3.189,0-4.776c0.443,0,0.874,0,1.305,0c0.43,0,0.874,0,1.305,0c0,0.43,0,0.861,0,1.305c0,0.43,0,0.861,0,1.305
	c1.588,0,3.189,0,4.776,0C62.954,12.445,62.954,12.741,62.954,13.024z"/>
<path fill="#211F30" d="M67.73,42.112c0,0.445,0,0.875,0,1.306c-0.875,0-1.735,0-2.609,0c0-0.431,0-0.86,0-1.306
	c0-0.281,0-0.578,0-0.86c0.874,0,1.734,0,2.609,0C67.73,41.534,67.73,41.831,67.73,42.112z"/>
<path fill="#762014" d="M20.841,29.088c-0.444,0-0.875,0-1.305,0c0-0.861,0-1.735,0-2.609c0.282,0,0.579,0,0.861,0
	c0.444,0,0.875,0,1.305,0c0,0.874,0,1.748,0,2.609C21.419,29.088,21.124,29.088,20.841,29.088z"/>
<path fill="#211F30" d="M98.985,43.417c0.874,0,1.749,0,2.61,0c0,0.874,0,1.735,0,2.61c-0.861,0-1.736,0-2.61,0
	C98.985,45.153,98.985,44.292,98.985,43.417z"/>
<path fill="#211F30" d="M58.177,46.028c0,2.314,0,4.629,0,6.942c-0.875,0-1.735,0-2.609,0c0-1.306,0-2.61,0-3.901
	c0-0.297,0-0.579,0-0.875c-2.314,0-4.629,0-6.943,0c0,0.875,0,1.736,0,2.61c0,0.713,0,1.439,0,2.166c-0.861,0-1.735,0-2.61,0
	c0-2.313,0-4.628,0-6.942C50.078,46.028,54.127,46.028,58.177,46.028z"/>
<path fill="#280F0C" d="M94.208,52.97c-1.588,0-3.176,0-4.776,0c0-0.282,0-0.579,0-0.86c0-0.445,0-0.875,0-1.306
	c0.296,0,0.593,0,0.874,0c0.432,0,0.875,0,1.306,0c0.861,0,1.735,0,2.597,0c0,0.282,0,0.579,0,0.86
	C94.208,52.11,94.208,52.54,94.208,52.97z"/>
<path fill="#211F30" d="M12.149,12.163c2.462,0,4.924,0,7.387,0c0,0.283,0,0.579,0,0.861c0,0.431,0,0.875,0,1.305
	c-0.875,0-1.736,0-2.61,0c-0.431,0-0.861,0-1.305,0c-0.282,0-0.579,0-0.861,0c0,1.735,0,3.471,0,5.207c-0.431,0-0.875,0-1.305,0
	s-0.861,0-1.305,0c0-0.148,0-0.282,0-0.43c0-0.579,0-1.157,0-1.736s0-1.157,0-1.735C12.149,14.477,12.149,13.32,12.149,12.163z"/>
<path fill="#211F30" d="M92.917,38.641c0.43,0,0.86,0,1.291,0c0,0.875,0,1.736,0,2.61c-0.861,0-1.735,0-2.597,0
	c-0.431,0-0.874,0-1.306,0c-0.281,0-0.578,0-0.874,0c0-1.735,0-3.485,0-5.22c0.874,0,1.749,0,2.61,0c0,0.443,0,0.874,0,1.305
	c0,0.43,0,0.875,0,1.305C92.338,38.641,92.621,38.641,92.917,38.641z"/>
<path fill="#211F30" d="M101.595,46.028c0.296,0,0.578,0,0.875,0c0.43,0,0.86,0,1.291,0c0,0.578,0,1.157,0,1.736
	c0,0.147,0,0.281,0,0.43c-0.283,0-0.578,0-0.861,0c-0.43,0-0.875,0-1.305,0c0-0.43,0-0.875,0-1.305
	C101.595,46.606,101.595,46.311,101.595,46.028z"/>
<path fill="#211F30" d="M38.642,14.329c0,0.861,0,1.735,0,2.61c-2.314,0-4.628,0-6.956,0c0-0.875,0-1.749,0-2.61
	C34.013,14.329,36.327,14.329,38.642,14.329z"/>
<path fill="#211F30" d="M95.513,52.97c-0.43,0-0.861,0-1.305,0c0-0.431,0-0.86,0-1.306c0-0.281,0-0.578,0-0.86
	c0.296,0,0.592,0,0.875,0c0.43,0,0.874,0,1.305,0c0.861,0,1.736,0,2.597,0c0,0.282,0,0.579,0,0.86c0,0.445,0,0.875,0,1.306
	c-0.431,0-0.86,0-1.292,0c-0.443,0-0.874,0-1.305,0C96.092,52.97,95.81,52.97,95.513,52.97z"/>
<path fill="#211F30" d="M19.536,50.804c0-0.296,0-0.579,0-0.874c0-0.432,0-0.861,0-1.306c0-0.86,0-1.735,0-2.597
	c0.282,0,0.579,0,0.861,0c0.444,0,0.875,0,1.305,0c0,0.578,0,1.157,0,1.736c0,0.281,0,0.578,0,0.86c0,0.444,0,0.874,0,1.306
	c0,0.295,0,0.578,0,0.874c-0.283,0-0.579,0-0.861,0C20.397,50.804,19.966,50.804,19.536,50.804z"/>
<path fill="#D8E1E4" d="M5.207,48.194c2.314,0,4.628,0,6.942,0c0,0.875,0,1.736,0,2.61c-0.431,0-0.861,0-1.305,0
	c-0.282,0-0.579,0-0.861,0c-0.875,0-1.736,0-2.61,0c-0.431,0-0.861,0-1.305,0c-0.282,0-0.579,0-0.861,0
	C5.207,49.93,5.207,49.069,5.207,48.194z"/>
<path fill="#D8E1E4" d="M19.536,20.41c0,0.431,0,0.861,0,1.305c-0.875,0-1.736,0-2.61,0c0-0.296,0-0.579,0-0.875
	c0-0.431,0-0.875,0-1.305c0.875,0,1.736,0,2.61,0C19.536,19.832,19.536,20.114,19.536,20.41z"/>
<path fill="#211F30" d="M26.909,42.557c0,0.281,0,0.578,0,0.86c-0.861,0-1.736,0-2.597,0c0-0.282,0-0.579,0-0.86
	c0-0.445,0-0.875,0-1.306c0.861,0,1.735,0,2.597,0C26.909,41.682,26.909,42.112,26.909,42.557z"/>
<path fill="#48475B" d="M67.73,50.804c0,0.282,0,0.579,0,0.86c0,0.445,0,0.875,0,1.306c-0.875,0-1.735,0-2.609,0
	c0-0.147,0-0.282,0-0.431c0-0.578,0-1.156,0-1.735C65.995,50.804,66.855,50.804,67.73,50.804z"/>
<path fill="#D8E1E4" d="M19.536,21.715c0.282,0,0.579,0,0.861,0c0.444,0,0.875,0,1.305,0c0,0.861,0,1.736,0,2.597
	c-0.283,0-0.579,0-0.861,0c-0.444,0-0.875,0-1.305,0C19.536,23.451,19.536,22.577,19.536,21.715z"/>
<path fill="#211F30" d="M98.985,48.194c0.874,0,1.749,0,2.61,0c0,0.875,0,1.736,0,2.61c-0.861,0-1.736,0-2.61,0
	C98.985,49.93,98.985,49.069,98.985,48.194z"/>
<path fill="#D8E1E4" d="M86.835,20.41c0,0.431,0,0.861,0,1.305c-0.296,0-0.578,0-0.875,0c-0.43,0-0.861,0-1.291,0
	c0-0.296,0-0.579,0-0.875c0-0.431,0-0.875,0-1.305c0.135,0,0.282,0,0.43,0c0.579,0,1.158,0,1.736,0
	C86.835,19.832,86.835,20.114,86.835,20.41z"/>
<path fill="#211F30" d="M46.015,7.817c0,0.579,0,1.157,0,1.736c-0.861,0-1.736,0-2.597,0c0-0.296,0-0.579,0-0.875
	c0-0.431,0-0.861,0-1.292c0-0.875,0-1.749,0-2.61c0.861,0,1.735,0,2.597,0c0,0.282,0,0.579,0,0.861c0,0.444,0,0.875,0,1.305
	C46.015,7.238,46.015,7.521,46.015,7.817z"/>
<path fill="#48475B" d="M58.177,52.97c0,0.874,0,1.735,0,2.61c-0.875,0-1.735,0-2.609,0c0-0.875,0-1.736,0-2.61
	C56.442,52.97,57.302,52.97,58.177,52.97z"/>
<path fill="#D8E1E4" d="M84.669,21.715c0,0.861,0,1.736,0,2.597c-0.875,0-1.749,0-2.61,0c0-0.861,0-1.735,0-2.597
	C82.92,21.715,83.794,21.715,84.669,21.715z"/>
<path fill="#762014" d="M79.893,29.088c1.587,0,3.175,0,4.776,0c0,0.297,0,0.578,0,0.875c0,0.43,0,0.861,0,1.305
	c-0.297,0-0.592,0-0.875,0c-0.43,0-0.874,0-1.305,0c-0.861,0-1.736,0-2.597,0c0-0.296,0-0.592,0-0.875
	C79.893,29.963,79.893,29.519,79.893,29.088z"/>
<path fill="#48475B" d="M48.625,52.97c0,0.874,0,1.735,0,2.61c-0.861,0-1.735,0-2.61,0c0-0.875,0-1.736,0-2.61
	C46.889,52.97,47.764,52.97,48.625,52.97z"/>
<path fill="#762014" d="M14.76,52.97c0.579,0,1.157,0,1.735,0c0.148,0,0.283,0,0.431,0c0,0.874,0,1.735,0,2.61
	c-0.283,0-0.579,0-0.861,0c-0.444,0-0.875,0-1.305,0C14.76,54.706,14.76,53.844,14.76,52.97z"/>
<path fill="#211F30" d="M60.343,36.032c0,0.874,0,1.734,0,2.609c-1.305,0-2.597,0-3.901,0c-1.157,0-2.314,0-3.472,0
	c-2.314,0-4.642,0-6.956,0c-1.292,0-2.597,0-3.902,0c-1.157,0-2.314,0-3.471,0c-2.314,0-4.628,0-6.956,0c0-0.43,0-0.875,0-1.305
	c0-0.431,0-0.861,0-1.305c0.727,0,1.453,0,2.18,0c0.578,0,1.157,0,1.735,0c1.157,0,2.314,0,3.471,0c2.314,0,4.628,0,6.943,0
	c2.314,0,4.642,0,6.956,0c1.157,0,2.314,0,3.472,0C57.747,36.032,59.039,36.032,60.343,36.032z"/>
<path fill="#48475B" d="M62.954,48.194c-0.431,0-0.874,0-1.306,0c-0.43,0-0.86,0-1.305,0c0-0.282,0-0.578,0-0.875
	c0-0.43,0-0.86,0-1.291c0.297,0,0.578,0,0.875,0c0.43,0,0.861,0,1.305,0c0.861,0,1.736,0,2.598,0c0,0.283,0,0.578,0,0.861
	c0,0.43,0,0.875,0,1.305c-0.283,0-0.579,0-0.861,0C63.815,48.194,63.384,48.194,62.954,48.194z"/>
<path fill="#9B3421" d="M72.506,54.706c0,0.297,0,0.579,0,0.875c-0.296,0-0.579,0-0.874,0c-0.432,0-0.861,0-1.292,0
	c0-0.296,0-0.578,0-0.875c0-1.305,0-2.596,0-3.901c0.431,0,0.86,0,1.292,0c0.295,0,0.578,0,0.874,0
	C72.506,52.11,72.506,53.401,72.506,54.706z"/>
<path fill="#762014" d="M42.113,14.329c0.43,0,0.875,0,1.305,0c0,0.861,0,1.735,0,2.61c-0.296,0-0.579,0-0.875,0
	c-0.43,0-0.861,0-1.305,0c0-0.875,0-1.749,0-2.61C41.534,14.329,41.817,14.329,42.113,14.329z"/>
<path fill="#211F30" d="M31.686,16.939c0,0.861,0,1.736,0,2.597c-0.431,0-0.861,0-1.292,0c-0.727,0-1.453,0-2.179,0
	c-0.431,0-0.861,0-1.305,0c0,0.296,0,0.579,0,0.875c0,0.431,0,0.861,0,1.305c-0.861,0-1.736,0-2.597,0c0-0.296,0-0.579,0-0.875
	c0-0.431,0-0.875,0-1.305c0-0.43,0-0.861,0-1.305c0-0.431,0-0.861,0-1.292c1.157,0,2.314,0,3.471,0
	C29.089,16.939,30.394,16.939,31.686,16.939z"/>
<path fill="#FFFFFF" d="M6.068,43.417c0.444,0,0.875,0,1.305,0c0.875,0,1.736,0,2.61,0c0-0.282,0-0.579,0-0.86
	c0-0.445,0-0.875,0-1.306c0.282,0,0.579,0,0.861,0c0.444,0,0.875,0,1.305,0c0,2.313,0,4.628,0,6.942c-2.314,0-4.628,0-6.942,0
	c0-0.43,0-0.875,0-1.305c0-0.283,0-0.578,0-0.861c0-0.875,0-1.736,0-2.61C5.489,43.417,5.786,43.417,6.068,43.417z"/>
<path fill="#211F30" d="M0,47.319c0-0.43,0-0.86,0-1.291c0.861,0,1.736,0,2.597,0c0,0.431,0,0.861,0,1.291c0,0.297,0,0.593,0,0.875
	c-0.861,0-1.735,0-2.597,0C0,47.912,0,47.616,0,47.319z"/>
<path fill="#762014" d="M72.506,43.417c0,0.874,0,1.735,0,2.61c-0.296,0-0.579,0-0.874,0c-0.432,0-0.861,0-1.292,0
	c0-0.875,0-1.736,0-2.61c0.282,0,0.579,0,0.86,0C71.632,43.417,72.076,43.417,72.506,43.417z"/>
<path fill="#211F30" d="M60.343,42.112c0,0.445,0,0.875,0,1.306c-1.305,0-2.597,0-3.901,0c-1.157,0-2.314,0-3.472,0
	c-2.314,0-4.642,0-6.956,0c-1.292,0-2.597,0-3.902,0c-1.157,0-2.314,0-3.471,0c-2.314,0-4.628,0-6.956,0c0-0.431,0-0.86,0-1.306
	c0-0.281,0-0.578,0-0.86c2.328,0,4.642,0,6.956,0c1.157,0,2.314,0,3.471,0c0.579,0,1.157,0,1.735,0c0.296,0,0.579,0,0.875,0
	c0.431,0,0.861,0,1.292,0c2.314,0,4.642,0,6.956,0c1.157,0,2.314,0,3.472,0c0.578,0,1.157,0,1.735,0c0.296,0,0.578,0,0.861,0
	c0.443,0,0.875,0,1.305,0C60.343,41.534,60.343,41.831,60.343,42.112z"/>
<path fill="#211F30" d="M94.208,41.251c0.296,0,0.592,0,0.875,0c0.43,0,0.874,0,1.305,0c0.861,0,1.736,0,2.597,0
	c0,0.282,0,0.579,0,0.86c0,0.445,0,0.875,0,1.306c-0.282,0-0.579,0-0.86,0c-0.432,0-0.875,0-1.306,0c-0.861,0-1.735,0-2.61,0
	c0-0.282,0-0.579,0-0.86C94.208,42.112,94.208,41.682,94.208,41.251z"/>
<path fill="#63677A" d="M46.015,52.97c0,0.874,0,1.735,0,2.61c-0.861,0-1.736,0-2.597,0c0-0.875,0-1.736,0-2.61
	c0-2.313,0-4.628,0-6.942c0.861,0,1.735,0,2.597,0C46.015,48.342,46.015,50.657,46.015,52.97z"/>
<path fill="#211F30" d="M31.686,43.417c0,0.874,0,1.735,0,2.61c-0.861,0-1.736,0-2.597,0c-0.431,0-0.875,0-1.305,0
	c-0.296,0-0.579,0-0.875,0c0-0.875,0-1.736,0-2.61c0.727,0,1.453,0,2.18,0C29.95,43.417,30.824,43.417,31.686,43.417z"/>
<path fill="#762014" d="M89.432,36.032c0,1.734,0,3.484,0,5.22c-0.86,0-1.735,0-2.597,0c0-1.735,0-3.485,0-5.22
	C87.697,36.032,88.572,36.032,89.432,36.032z"/>
<path fill="#D8E1E4" d="M94.208,50.804c-0.861,0-1.735,0-2.597,0c-0.431,0-0.874,0-1.306,0c-0.281,0-0.578,0-0.874,0
	c0-0.874,0-1.735,0-2.61c0.296,0,0.593,0,0.874,0c0.432,0,0.875,0,1.306,0s0.861,0,1.306,0c0.43,0,0.86,0,1.291,0
	c0.296,0,0.592,0,0.875,0c0.43,0,0.874,0,1.305,0s0.861,0,1.305,0c0.432,0,0.861,0,1.292,0c0,0.875,0,1.736,0,2.61
	c-0.86,0-1.735,0-2.597,0c-0.431,0-0.875,0-1.305,0C94.8,50.804,94.504,50.804,94.208,50.804z"/>
<path fill="#48475B" d="M79.893,24.312c0,0.296,0,0.579,0,0.874c0,0.432,0,0.861,0,1.293c-0.874,0-1.749,0-2.61,0
	c0-0.432,0-0.861,0-1.293c0-0.295,0-0.578,0-0.874C78.144,24.312,79.019,24.312,79.893,24.312z"/>
<path fill="#9B3421" d="M70.34,46.028c0,0.861,0,1.736,0,2.597c0,0.444,0,0.874,0,1.306c0,0.295,0,0.578,0,0.874
	c-0.874,0-1.749,0-2.61,0c0-0.296,0-0.579,0-0.874c0-0.432,0-0.861,0-1.306c0-0.86,0-1.735,0-2.597
	C68.591,46.028,69.466,46.028,70.34,46.028z"/>
<path fill="#211F30" d="M55.568,14.329c0,0.861,0,1.735,0,2.61c-0.861,0-1.736,0-2.598,0c-0.43,0-0.875,0-1.305,0
	c-0.296,0-0.579,0-0.875,0c0-0.875,0-1.749,0-2.61c0.875,0,1.749,0,2.61,0c0.431,0,0.874,0,1.306,0
	C54.989,14.329,55.285,14.329,55.568,14.329z"/>
<path fill="#211F30" d="M21.702,21.715c0.875,0,1.736,0,2.61,0c0,0.861,0,1.736,0,2.597c-0.875,0-1.736,0-2.61,0
	C21.702,23.451,21.702,22.577,21.702,21.715z"/>
<path fill="#9B3421" d="M24.313,48.625c0,0.444,0,0.874,0,1.306c0,0.295,0,0.578,0,0.874c-0.875,0-1.736,0-2.61,0
	c0-0.296,0-0.579,0-0.874c0-0.432,0-0.861,0-1.306c0-0.282,0-0.579,0-0.86c0-0.579,0-1.158,0-1.736c0.875,0,1.736,0,2.61,0
	c0,0.431,0,0.861,0,1.291C24.313,47.764,24.313,48.194,24.313,48.625z"/>
<path fill="#211F30" d="M72.506,47.319c0,0.445,0,0.875,0,1.306c0,0.444,0,0.874,0,1.306c0,0.295,0,0.578,0,0.874
	c-0.296,0-0.579,0-0.874,0c-0.432,0-0.861,0-1.292,0c0-0.296,0-0.579,0-0.874c0-0.432,0-0.861,0-1.306c0-0.86,0-1.735,0-2.597
	c0.431,0,0.86,0,1.292,0c0.295,0,0.578,0,0.874,0C72.506,46.458,72.506,46.889,72.506,47.319z"/>
<path fill="#211F30" d="M22.133,16.939c-0.861,0-1.736,0-2.597,0c0-0.875,0-1.749,0-2.61c1.587,0,3.175,0,4.776,0
	c0,0.861,0,1.735,0,2.61C23.586,16.939,22.859,16.939,22.133,16.939z"/>
<path fill="#48475B" d="M77.283,21.715c0,0.861,0,1.736,0,2.597c-0.296,0-0.578,0-0.875,0c-0.43,0-0.86,0-1.291,0
	c0-0.861,0-1.735,0-2.597c0.578,0,1.156,0,1.735,0C76.987,21.715,77.134,21.715,77.283,21.715z"/>
<path fill="#FFFFFF" d="M49.93,4.776c0.283,0,0.579,0,0.861,0c0,2.462,0,4.924,0,7.386c-2.462,0-4.911,0-7.373,0
	c0-0.875,0-1.749,0-2.61c0.861,0,1.735,0,2.597,0c0-0.579,0-1.157,0-1.736c0-0.296,0-0.579,0-0.875c0-0.431,0-0.861,0-1.305
	c0-0.282,0-0.579,0-0.861c0.875,0,1.749,0,2.61,0C49.055,4.776,49.499,4.776,49.93,4.776z"/>
<path fill="#211F30" d="M9.983,52.97c0.43,0,0.861,0,1.305,0c0.282,0,0.578,0,0.861,0c0-0.431,0-0.86,0-1.306
	c0-0.281,0-0.578,0-0.86c0-0.874,0-1.735,0-2.61c0-2.314,0-4.629,0-6.942c-0.431,0-0.861,0-1.305,0c-0.282,0-0.579,0-0.861,0
	c0-0.874,0-1.735,0-2.61c0.282,0,0.579,0,0.861,0c0.444,0,0.875,0,1.305,0c0-0.875,0-1.735,0-2.609c0.875,0,1.736,0,2.61,0
	c0,1.305,0,2.609,0,3.914c0,0.283,0,0.579,0,0.875c0,0.431,0,0.861,0,1.291c0,0.297,0,0.579,0,0.875c0,0.431,0,0.861,0,1.305
	c0,2.894,0,5.786,0,8.679c0,0.874,0,1.735,0,2.61c-1.588,0-3.189,0-4.776,0C9.983,54.706,9.983,53.844,9.983,52.97z"/>
<path fill="#211F30" d="M67.73,49.93c0,0.295,0,0.578,0,0.874c-0.875,0-1.735,0-2.609,0c0-0.874,0-1.735,0-2.61
	c0-0.43,0-0.875,0-1.305c0-0.283,0-0.578,0-0.861c0.874,0,1.734,0,2.609,0c0,0.861,0,1.736,0,2.597
	C67.73,49.069,67.73,49.499,67.73,49.93z"/>
<path fill="#211F30" d="M7.373,50.804c0.875,0,1.736,0,2.61,0c0,0.282,0,0.579,0,0.86c0,0.445,0,0.875,0,1.306
	c-0.727,0-1.453,0-2.167,0c-0.875,0-1.749,0-2.61,0c0-0.282,0-0.579,0-0.86c0-0.445,0-0.875,0-1.306c0.282,0,0.579,0,0.861,0
	C6.512,50.804,6.942,50.804,7.373,50.804z"/>
<path fill="#211F30" d="M89.432,52.97c1.601,0,3.188,0,4.776,0c0,0.874,0,1.735,0,2.61c-0.431,0-0.861,0-1.291,0
	c-0.444,0-0.875,0-1.306,0c-0.296,0-0.579,0-0.874,0c-0.432,0-0.861,0-1.306,0C89.432,54.706,89.432,53.844,89.432,52.97z"/>
<path fill="#211F30" d="M43.418,46.028c0,2.314,0,4.629,0,6.942c-0.296,0-0.579,0-0.875,0c-0.43,0-0.861,0-1.305,0
	c0-1.306,0-2.61,0-3.901c0-0.297,0-0.579,0-0.875c-1.157,0-2.314,0-3.472,0c-0.578,0-1.157,0-1.735,0c-0.283,0-0.579,0-0.861,0
	c-0.444,0-0.875,0-1.305,0c0,0.875,0,1.736,0,2.61c0,0.713,0,1.439,0,2.166c-0.296,0-0.579,0-0.875,0c-0.431,0-0.861,0-1.305,0
	c0-0.431,0-0.86,0-1.306c0-0.281,0-0.578,0-0.86c0-0.296,0-0.579,0-0.874c0-0.432,0-0.861,0-1.306c0-0.86,0-1.735,0-2.597
	C35.601,46.028,39.502,46.028,43.418,46.028z"/>
<path fill="#211F30" d="M26.909,49.93c0,0.295,0,0.578,0,0.874c-0.861,0-1.736,0-2.597,0c0-0.296,0-0.579,0-0.874
	c0-0.432,0-0.861,0-1.306c0-0.431,0-0.86,0-1.306c0-0.43,0-0.86,0-1.291c0.861,0,1.735,0,2.597,0c0,0.861,0,1.736,0,2.597
	C26.909,49.069,26.909,49.499,26.909,49.93z"/>
</svg>
