<?xml version="1.0" encoding="utf-8"?>
<!-- Generator: Adobe Illustrator 15.0.0, SVG Export Plug-In  -->
<!DOCTYPE svg PUBLIC "-//W3C//DTD SVG 1.1//EN" "http://www.w3.org/Graphics/SVG/1.1/DTD/svg11.dtd" [
	<!ENTITY ns_flows "http://ns.adobe.com/Flows/1.0/">
]>
<svg version="1.1"
	 xmlns="http://www.w3.org/2000/svg" xmlns:xlink="http://www.w3.org/1999/xlink" xmlns:a="http://ns.adobe.com/AdobeSVGViewerExtensions/3.0/"
	 x="0px" y="0px" width="110px" height="70px" viewBox="-4.147 -12.253 110 70" enable-background="new -4.147 -12.253 110 70"
	 xml:space="preserve">
<defs>
</defs>
<path fill="#211F30" d="M31.268,14.329c2.449,0,4.911,0,7.373,0c0,0.861,0,1.735,0,2.61c-1.305,0-2.597,0-3.902,0
	c-1.157,0-2.314,0-3.471,0C31.268,16.064,31.268,15.19,31.268,14.329z"/>
<path fill="#211F30" d="M99.859,43.417c0.444,0,0.874,0,1.306,0c0,0.874,0,1.735,0,2.61c-0.283,0-0.579,0-0.861,0
	c-0.444,0-0.875,0-1.306,0c0-0.875,0-1.736,0-2.61C99.28,43.417,99.577,43.417,99.859,43.417z"/>
<path fill="#211F30" d="M23.882,21.715c0,0.861,0,1.736,0,2.597c-0.296,0-0.579,0-0.875,0c-0.43,0-0.861,0-1.292,0
	c0-0.861,0-1.735,0-2.597c0.283,0,0.579,0,0.861,0C23.007,21.715,23.451,21.715,23.882,21.715z"/>
<path fill="#9B3421" d="M21.715,50.804c0,0.713,0,1.439,0,2.166c0,0.874,0,1.735,0,2.61c-0.579,0-1.157,0-1.749,0
	c-0.283,0-0.565,0-0.861,0c0-0.296,0-0.578,0-0.875c0-1.305,0-2.596,0-3.901C19.966,50.804,20.841,50.804,21.715,50.804z"/>
<path fill="#48475B" d="M50.804,16.939c-1.736,0-3.471,0-5.207,0c0-0.875,0-1.749,0-2.61c1.736,0,3.471,0,5.207,0
	C50.804,15.19,50.804,16.064,50.804,16.939z"/>
<path fill="#280F0C" d="M78.157,48.194c-0.296,0-0.578,0-0.875,0c0-1.156,0-2.314,0-3.471c0-0.432,0-0.875,0-1.306
	c1.306,0,2.61,0,3.916,0c0.282,0,0.578,0,0.861,0c0,1.306,0,2.61,0,3.901c0,0.297,0,0.593,0,0.875
	C80.767,48.194,79.462,48.194,78.157,48.194z"/>
<path fill="#211F30" d="M94.222,50.804c0.283,0,0.578,0,0.861,0c0.443,0,0.875,0,1.305,0c0.875,0,1.736,0,2.61,0
	c0,0.282,0,0.579,0,0.86c0,0.445,0,0.875,0,1.306c-0.431,0-0.874,0-1.306,0c-0.43,0-0.86,0-1.305,0c-0.282,0-0.578,0-0.861,0
	c-0.443,0-0.874,0-1.305,0c0-0.579,0-1.157,0-1.735C94.222,51.086,94.222,50.938,94.222,50.804z"/>
<path fill="#D8E1E4" d="M2.166,46.028c0.875,0,1.749,0,2.61,0c0,0.283,0,0.578,0,0.861c0,0.43,0,0.875,0,1.305
	c-0.861,0-1.736,0-2.61,0c0-0.43,0-0.875,0-1.305C2.166,46.606,2.166,46.311,2.166,46.028z"/>
<path fill="#280F0C" d="M43.417,24.312c0,0.296,0,0.579,0,0.874c0,0.432,0,0.861,0,1.293c-0.861,0-1.735,0-2.597,0
	c0-0.283,0-0.579,0-0.861c0-0.432,0-0.875,0-1.306C41.682,24.312,42.557,24.312,43.417,24.312z"/>
<path fill="#762014" d="M43.417,14.329c0,0.861,0,1.735,0,2.61c-0.861,0-1.735,0-2.597,0c0-0.875,0-1.749,0-2.61
	C41.682,14.329,42.557,14.329,43.417,14.329z"/>
<path fill="#48475B" d="M66.438,50.804c0.282,0,0.578,0,0.861,0c0,0.282,0,0.579,0,0.86c0,0.445,0,0.875,0,1.306
	c-0.283,0-0.579,0-0.861,0c-0.444,0-0.875,0-1.305,0c0-0.431,0-0.86,0-1.306c0-0.281,0-0.578,0-0.86
	C65.563,50.804,65.994,50.804,66.438,50.804z"/>
<path fill="#9B3421" d="M38.21,38.641c1.157,0,2.314,0,3.472,0c1.305,0,2.61,0,3.915,0c1.157,0,2.314,0,3.471,0
	c1.292,0,2.597,0,3.901,0c1.158,0,2.314,0,3.472,0c1.306,0,2.61,0,3.915,0c0,0.875,0,1.736,0,2.61c-0.443,0-0.874,0-1.305,0
	c-0.296,0-0.578,0-0.875,0c-0.578,0-1.156,0-1.735,0c-1.157,0-2.313,0-3.472,0c-0.43,0-0.86,0-1.305,0c-0.282,0-0.579,0-0.861,0
	c-0.579,0-1.157,0-1.736,0c-1.157,0-2.314,0-3.471,0c-0.444,0-0.875,0-1.305,0c-0.296,0-0.579,0-0.875,0c-0.579,0-1.157,0-1.735,0
	c-1.157,0-2.314,0-3.472,0c-2.314,0-4.628,0-6.942,0c0-0.874,0-1.735,0-2.61C33.583,38.641,35.896,38.641,38.21,38.641z"/>
<path fill="#48475B" d="M33.865,52.97c0,0.874,0,1.735,0,2.61c-0.861,0-1.735,0-2.597,0c0-0.875,0-1.736,0-2.61
	C32.129,52.97,33.004,52.97,33.865,52.97z"/>
<path fill="#211F30" d="M66.438,41.251c0.282,0,0.578,0,0.861,0c0,0.282,0,0.579,0,0.86c0,0.445,0,0.875,0,1.306
	c-0.283,0-0.579,0-0.861,0c-0.444,0-0.875,0-1.305,0c0-0.431,0-0.86,0-1.306c0-0.281,0-0.578,0-0.86
	C65.563,41.251,65.994,41.251,66.438,41.251z"/>
<path fill="#211F30" d="M92.917,38.641c0.43,0,0.875,0,1.305,0c0,0.875,0,1.736,0,2.61c-1.735,0-3.471,0-5.207,0
	c0-1.735,0-3.485,0-5.22c0.431,0,0.861,0,1.292,0c0.444,0,0.874,0,1.306,0c0,0.443,0,0.874,0,1.305c0,0.43,0,0.875,0,1.305
	C92.056,38.641,92.486,38.641,92.917,38.641z"/>
<path fill="#48475B" d="M57.747,52.97c0,0.874,0,1.735,0,2.61c-0.283,0-0.579,0-0.861,0c-0.444,0-0.875,0-1.305,0
	c0-0.875,0-1.736,0-2.61c0.43,0,0.86,0,1.305,0C57.168,52.97,57.464,52.97,57.747,52.97z"/>
<path fill="#211F30" d="M86.835,50.36c0-0.282,0-0.578,0-0.861c0-0.43,0-0.874,0-1.305c0.444,0,0.875,0,1.305,0
	c0.297,0,0.579,0,0.875,0c0,0.875,0,1.736,0,2.61c0,0.431,0,0.86,0,1.306c0,0.281,0,0.578,0,0.86c-0.296,0-0.578,0-0.875,0
	c-0.43,0-0.86,0-1.305,0c0-0.431,0-0.86,0-1.306C86.835,51.235,86.835,50.804,86.835,50.36z"/>
<path fill="#D8E1E4" d="M87.71,14.329c0.43,0,0.861,0,1.305,0c0,0.148,0,0.282,0,0.43c0,0.148,0,0.296,0,0.431
	c0,0.579,0,1.157,0,1.749c0,0.861,0,1.736,0,2.597c-0.443,0-0.875,0-1.305,0c-0.296,0-0.578,0-0.875,0c0-1.735,0-3.471,0-5.207
	C87.132,14.329,87.414,14.329,87.71,14.329z"/>
<path fill="#762014" d="M77.282,29.088c0-0.861,0-1.735,0-2.609c0.444,0,0.875,0,1.306,0c0.296,0,0.578,0,0.874,0
	c0,0.874,0,1.748,0,2.609c-0.296,0-0.578,0-0.874,0C78.157,29.088,77.727,29.088,77.282,29.088z"/>
<path fill="#D8E1E4" d="M93.792,48.194c1.734,0,3.471,0,5.206,0c0,0.875,0,1.736,0,2.61c-0.874,0-1.735,0-2.61,0
	c-0.43,0-0.861,0-1.305,0c-0.283,0-0.578,0-0.861,0c-1.735,0-3.471,0-5.207,0c0-0.874,0-1.735,0-2.61c0.283,0,0.578,0,0.861,0
	c0.431,0,0.875,0,1.305,0c0.432,0,0.875,0,1.306,0S93.347,48.194,93.792,48.194z"/>
<path fill="#211F30" d="M73.812,19.536c-0.431,0-0.861,0-1.305,0c0-0.861,0-1.735,0-2.597c2.313,0,4.641,0,6.955,0
	c0,0.861,0,1.736,0,2.597c-0.296,0-0.578,0-0.874,0c-0.431,0-0.861,0-1.306,0c0,0.296,0,0.579,0,0.875c0,0.431,0,0.861,0,1.305
	c-0.861,0-1.735,0-2.596,0c0-0.296,0-0.579,0-0.875c0-0.431,0-0.875,0-1.305C74.39,19.536,74.107,19.536,73.812,19.536z"/>
<path fill="#762014" d="M77.282,24.312c0,0.296,0,0.579,0,0.874c0,0.432,0,0.861,0,1.293c-0.861,0-1.735,0-2.596,0
	c0-0.135,0-0.283,0-0.432c0-0.578,0-1.156,0-1.735C75.547,24.312,76.421,24.312,77.282,24.312z"/>
<path fill="#211F30" d="M86.405,12.163c0.578,0,1.156,0,1.734,0c1.158,0,2.314,0,3.473,0c0,0.135,0,0.283,0,0.431
	c0,0.579,0,1.157,0,1.736s0,1.157,0,1.735c0,1.157,0,2.314,0,3.471c-0.861,0-1.736,0-2.598,0c0-0.861,0-1.735,0-2.597
	c0-0.592,0-1.17,0-1.749c0-0.134,0-0.282,0-0.431c0-0.148,0-0.282,0-0.43c-0.443,0-0.875,0-1.305,0c-0.296,0-0.578,0-0.875,0
	c-0.861,0-1.735,0-2.596,0c0-0.296,0-0.579,0-0.875c0-0.431,0-0.861,0-1.292c0.134,0,0.281,0,0.43,0
	C85.247,12.163,85.826,12.163,86.405,12.163z"/>
<path fill="#D8E1E4" d="M16.939,14.329c0,1.735,0,3.471,0,5.207c-0.875,0-1.735,0-2.61,0c0-1.735,0-3.471,0-5.207
	C15.204,14.329,16.064,14.329,16.939,14.329z"/>
<path fill="#211F30" d="M23.882,43.417c0,0.874,0,1.735,0,2.61c-0.296,0-0.579,0-0.875,0c-0.43,0-0.861,0-1.292,0
	c0-0.875,0-1.736,0-2.61c0.283,0,0.579,0,0.861,0C23.007,43.417,23.451,43.417,23.882,43.417z"/>
<path fill="#D8E1E4" d="M21.715,21.715c0,0.861,0,1.736,0,2.597c-0.875,0-1.749,0-2.61,0c0-0.861,0-1.735,0-2.597
	C19.966,21.715,20.841,21.715,21.715,21.715z"/>
<path fill="#211F30" d="M16.939,21.715c0,0.861,0,1.736,0,2.597c-0.875,0-1.735,0-2.61,0c0-0.431,0-0.861,0-1.305
	c0-0.431,0-0.861,0-1.292c0-0.296,0-0.579,0-0.875c0-0.431,0-0.875,0-1.305c0.875,0,1.735,0,2.61,0c0,0.431,0,0.875,0,1.305
	C16.939,21.137,16.939,21.419,16.939,21.715z"/>
<path fill="#211F30" d="M2.166,48.194c0.875,0,1.749,0,2.61,0c0,0.875,0,1.736,0,2.61c-0.861,0-1.736,0-2.61,0
	C2.166,49.93,2.166,49.069,2.166,48.194z"/>
<path fill="#BA2226" d="M50.36,48.194c0.592,0,1.171,0,1.75,0c1.157,0,2.313,0,3.472,0c0,0.296,0,0.578,0,0.875
	c0,1.291,0,2.596,0,3.901c-2.463,0-4.925,0-7.387,0c0-0.727,0-1.453,0-2.166c0-0.874,0-1.735,0-2.61c0.431,0,0.875,0,1.305,0
	C49.795,48.194,50.078,48.194,50.36,48.194z"/>
<path fill="#9B3421" d="M27.353,41.251c0.43,0,0.875,0,1.305,0c0.861,0,1.736,0,2.61,0c0,0.282,0,0.579,0,0.86
	c0,0.445,0,0.875,0,1.306c-0.875,0-1.749,0-2.61,0c-0.43,0-0.875,0-1.305,0c-0.283,0-0.579,0-0.861,0c0-0.282,0-0.579,0-0.86
	c0-0.445,0-0.875,0-1.306C26.774,41.251,27.07,41.251,27.353,41.251z"/>
<path fill="#211F30" d="M16.939,31.268c0-2.328,0-4.642,0-6.956c0.431,0,0.861,0,1.292,0c0.296,0,0.579,0,0.875,0
	c0.861,0,1.735,0,2.61,0c0,0.431,0,0.874,0,1.306c0,0.282,0,0.578,0,0.861c-0.875,0-1.749,0-2.61,0c0,0.874,0,1.748,0,2.609
	c0,0.297,0,0.578,0,0.875c0,0.43,0,0.861,0,1.305c-0.148,0-0.296,0-0.431,0C18.096,31.268,17.518,31.268,16.939,31.268z"/>
<path fill="#D8E1E4" d="M84.239,21.715c0-0.296,0-0.579,0-0.875c0-0.431,0-0.875,0-1.305c0.86,0,1.734,0,2.596,0
	c0,0.431,0,0.875,0,1.305c0,0.296,0,0.579,0,0.875C85.974,21.715,85.1,21.715,84.239,21.715z"/>
<path fill="#211F30" d="M45.597,52.97c0-2.313,0-4.628,0-6.942c4.05,0,8.099,0,12.15,0c0,2.314,0,4.629,0,6.942
	c-0.283,0-0.579,0-0.861,0c-0.444,0-0.875,0-1.305,0c0-1.306,0-2.61,0-3.901c0-0.297,0-0.579,0-0.875c-1.158,0-2.314,0-3.472,0
	c-0.579,0-1.157,0-1.75,0c-0.282,0-0.565,0-0.861,0c-0.431,0-0.875,0-1.305,0c0,0.875,0,1.736,0,2.61c0,0.713,0,1.439,0,2.166
	C47.333,52.97,46.458,52.97,45.597,52.97z"/>
<path fill="#9B3421" d="M23.882,49.93c0,0.295,0,0.578,0,0.874c-0.296,0-0.579,0-0.875,0c-0.43,0-0.861,0-1.292,0
	c0-0.579,0-1.157,0-1.735c0-0.297,0-0.579,0-0.875c0-0.43,0-0.875,0-1.305c0-0.283,0-0.578,0-0.861c0.431,0,0.861,0,1.292,0
	c0.296,0,0.579,0,0.875,0c0,0.861,0,1.736,0,2.597C23.882,49.069,23.882,49.499,23.882,49.93z"/>
<path fill="#63677A" d="M43.417,52.97c0-2.313,0-4.628,0-6.942c0.296,0,0.579,0,0.875,0c0.431,0,0.861,0,1.305,0
	c0,2.314,0,4.629,0,6.942c0,0.874,0,1.735,0,2.61c-0.296,0-0.579,0-0.875,0c-0.431,0-0.875,0-1.305,0
	C43.417,54.706,43.417,53.844,43.417,52.97z"/>
<path fill="#280F0C" d="M16.939,24.312c0-0.861,0-1.735,0-2.597c0.431,0,0.861,0,1.292,0c0.296,0,0.579,0,0.875,0
	c0,0.861,0,1.736,0,2.597c-0.296,0-0.579,0-0.875,0C17.8,24.312,17.37,24.312,16.939,24.312z"/>
<path fill="#D8E1E4" d="M82.934,21.715c0.431,0,0.86,0,1.306,0c0,0.861,0,1.736,0,2.597c-0.297,0-0.579,0-0.875,0
	c-0.431,0-0.861,0-1.305,0c0-0.861,0-1.735,0-2.597C82.354,21.715,82.638,21.715,82.934,21.715z"/>
<path fill="#9B3421" d="M69.909,49.93c0,0.295,0,0.578,0,0.874c-0.874,0-1.735,0-2.609,0c0-0.296,0-0.579,0-0.874
	c0-0.432,0-0.861,0-1.306c0-0.86,0-1.735,0-2.597c0.874,0,1.735,0,2.609,0c0,0.861,0,1.736,0,2.597
	C69.909,49.069,69.909,49.499,69.909,49.93z"/>
<path fill="#762014" d="M23.882,25.186c0,0.432,0,0.861,0,1.293c-0.148,0-0.296,0-0.431,0c-0.579,0-1.157,0-1.736,0
	c0-0.283,0-0.579,0-0.861c0-0.432,0-0.875,0-1.306c0.431,0,0.861,0,1.292,0c0.296,0,0.579,0,0.875,0
	C23.882,24.608,23.882,24.891,23.882,25.186z"/>
<path fill="#280F0C" d="M52.97,14.329c0-0.296,0-0.579,0-0.875c0-0.431,0-0.861,0-1.292c0-0.875,0-1.749,0-2.61
	c0.875,0,1.736,0,2.611,0c0,0.43,0,0.861,0,1.305c0,0.43,0,0.861,0,1.305c0,0.431,0,0.861,0,1.292c0,0.296,0,0.579,0,0.875
	C54.706,14.329,53.845,14.329,52.97,14.329z"/>
<path fill="#211F30" d="M61.218,43.417c0.444,0,0.875,0,1.305,0c0.875,0,1.736,0,2.611,0c0,0.874,0,1.735,0,2.61
	c-0.875,0-1.736,0-2.611,0c-0.43,0-0.86,0-1.305,0c-0.282,0-0.578,0-0.861,0c0-0.875,0-1.736,0-2.61
	C60.64,43.417,60.936,43.417,61.218,43.417z"/>
<path fill="#211F30" d="M2.166,43.417c0.875,0,1.749,0,2.61,0c0,0.874,0,1.735,0,2.61c-0.861,0-1.736,0-2.61,0
	C2.166,45.153,2.166,44.292,2.166,43.417z"/>
<path fill="#63677A" d="M29.088,52.11c0-0.445,0-0.875,0-1.306c0.296,0,0.579,0,0.875,0c0.431,0,0.861,0,1.305,0
	c0,0.282,0,0.579,0,0.86c0,0.445,0,0.875,0,1.306c0,0.874,0,1.735,0,2.61c-0.296,0-0.579,0-0.875,0c-0.431,0-0.875,0-1.305,0
	c0-0.727,0-1.453,0-2.18C29.088,52.97,29.088,52.54,29.088,52.11z"/>
<path fill="#211F30" d="M50.804,0c0,0.861,0,1.735,0,2.61c-0.875,0-1.736,0-2.61,0c0-0.875,0-1.749,0-2.61
	C49.068,0,49.93,0,50.804,0z"/>
<path fill="#211F30" d="M28.658,41.251c-0.43,0-0.875,0-1.305,0c-0.283,0-0.579,0-0.861,0c0-0.874,0-1.735,0-2.61
	c0.431,0,0.861,0,1.292,0c0.444,0,0.875,0,1.305,0c0.296,0,0.579,0,0.875,0c0.431,0,0.861,0,1.305,0c0,0.875,0,1.736,0,2.61
	C30.394,41.251,29.519,41.251,28.658,41.251z"/>
<path fill="#762014" d="M21.715,26.479c0,0.874,0,1.748,0,2.609c-0.875,0-1.749,0-2.61,0c0-0.861,0-1.735,0-2.609
	C19.966,26.479,20.841,26.479,21.715,26.479z"/>
<path fill="#211F30" d="M81.628,16.939c-0.43,0-0.861,0-1.305,0c-0.283,0-0.578,0-0.861,0c0-0.875,0-1.749,0-2.61
	c0.431,0,0.861,0,1.305,0c0.432,0,0.861,0,1.293,0c0.295,0,0.578,0,0.874,0c0.431,0,0.86,0,1.306,0c0,0.861,0,1.735,0,2.61
	C83.364,16.939,82.503,16.939,81.628,16.939z"/>
<path fill="#BA2226" d="M40.821,49.069c0,1.291,0,2.596,0,3.901c-2.328,0-4.642,0-6.956,0c0-0.727,0-1.453,0-2.166
	c0-0.874,0-1.735,0-2.61c2.314,0,4.628,0,6.956,0C40.821,48.49,40.821,48.772,40.821,49.069z"/>
<path fill="#9B3421" d="M23.882,43.417c0.861,0,1.735,0,2.61,0c0,0.874,0,1.735,0,2.61c-0.875,0-1.749,0-2.61,0
	C23.882,45.153,23.882,44.292,23.882,43.417z"/>
<path fill="#48475B" d="M88.14,43.417c0.297,0,0.579,0,0.875,0c0,0.282,0,0.579,0,0.874c0,0.432,0,0.861,0,1.293
	c0,0.874,0,1.734,0,2.609c-0.296,0-0.578,0-0.875,0c-0.43,0-0.86,0-1.305,0c0-0.282,0-0.578,0-0.875c0-0.43,0-0.86,0-1.291
	c0-0.875,0-1.736,0-2.61C87.279,43.417,87.71,43.417,88.14,43.417z"/>
<path fill="#48475B" d="M43.417,52.97c0,0.874,0,1.735,0,2.61c-0.861,0-1.735,0-2.597,0c0-0.875,0-1.736,0-2.61
	C41.682,52.97,42.557,52.97,43.417,52.97z"/>
<path fill="#280F0C" d="M29.088,25.186c0-0.295,0-0.578,0-0.874c0.431,0,0.875,0,1.305,0c0.296,0,0.579,0,0.875,0
	c0-0.861,0-1.735,0-2.597c1.292,0,2.597,0,3.902,0c0.296,0,0.579,0,0.875,0c0,0.861,0,1.736,0,2.597c0.861,0,1.736,0,2.597,0
	c0,1.306,0,2.61,0,3.915c0,0.283,0,0.579,0,0.861c-0.861,0-1.735,0-2.597,0c0,0.431,0,0.875,0,1.305c0,0.283,0,0.579,0,0.875
	c-1.601,0-3.188,0-4.776,0c0-0.592,0-1.17,0-1.749c0-0.134,0-0.282,0-0.431c-0.444,0-0.875,0-1.305,0c-0.296,0-0.579,0-0.875,0
	C29.088,27.784,29.088,26.479,29.088,25.186z"/>
<path fill="#211F30" d="M33.004,57.747c-6.229,0-12.446,0-18.675,0c0-0.578,0-1.157,0-1.735c0-0.147,0-0.296,0-0.431
	c0.875,0,1.735,0,2.61,0c0-0.875,0-1.736,0-2.61c0-0.282,0-0.579,0-0.86c0-0.445,0-0.875,0-1.306c0.431,0,0.861,0,1.292,0
	c0.296,0,0.579,0,0.875,0c0,1.306,0,2.597,0,3.901c0,0.297,0,0.579,0,0.875c0.296,0,0.578,0,0.861,0c0.592,0,1.17,0,1.749,0
	c0-0.875,0-1.736,0-2.61c0-0.727,0-1.453,0-2.166c0.431,0,0.861,0,1.292,0c0.296,0,0.579,0,0.875,0c0,0.713,0,1.439,0,2.166
	c0,0.874,0,1.735,0,2.61c1.735,0,3.471,0,5.207,0c0.431,0,0.875,0,1.305,0c0.296,0,0.579,0,0.875,0c0.861,0,1.736,0,2.597,0
	c0-0.875,0-1.736,0-2.61c2.314,0,4.628,0,6.956,0c0,0.874,0,1.735,0,2.61c0.861,0,1.736,0,2.597,0c0.431,0,0.875,0,1.305,0
	c0.296,0,0.579,0,0.875,0c0.861,0,1.736,0,2.597,0c0-0.875,0-1.736,0-2.61c2.462,0,4.924,0,7.387,0c0,0.874,0,1.735,0,2.61
	c0.43,0,0.86,0,1.305,0c0.282,0,0.578,0,0.861,0c0.295,0,0.578,0,0.874,0c0.431,0,0.861,0,1.292,0c0.874,0,1.749,0,2.609,0
	c0.297,0,0.579,0,0.875,0c0.431,0,0.861,0,1.291,0c0.875,0,1.75,0,2.611,0c0-0.875,0-1.736,0-2.61c0-0.431,0-0.86,0-1.306
	c0-0.281,0-0.578,0-0.86c0.874,0,1.735,0,2.609,0c0,1.306,0,2.597,0,3.901c0,0.297,0,0.579,0,0.875c0.431,0,0.861,0,1.305,0
	c0.432,0,0.861,0,1.293,0c0-0.875,0-1.736,0-2.61c0-0.727,0-1.453,0-2.166c0.443,0,0.874,0,1.305,0c0.296,0,0.578,0,0.875,0
	c0,0.713,0,1.439,0,2.166c0,0.874,0,1.735,0,2.61c2.313,0,4.628,0,6.941,0c1.158,0,2.314,0,3.472,0c1.306,0,2.61,0,3.915,0
	c0,0.283,0,0.578,0,0.861c0,0.43,0,0.874,0,1.305c-6.229,0-12.445,0-18.675,0s-12.445,0-18.675,0
	C45.449,57.747,39.22,57.747,33.004,57.747z"/>
<path fill="#211F30" d="M101.165,48.194c0,0.875,0,1.736,0,2.61c-0.283,0-0.579,0-0.861,0c-0.444,0-0.875,0-1.306,0
	c0-0.874,0-1.735,0-2.61c0.431,0,0.861,0,1.306,0C100.586,48.194,100.882,48.194,101.165,48.194z"/>
<path fill="#280F0C" d="M94.222,52.97c-1.735,0-3.471,0-5.207,0c0-0.282,0-0.579,0-0.86c0-0.445,0-0.875,0-1.306
	c1.736,0,3.472,0,5.207,0c0,0.134,0,0.282,0,0.431C94.222,51.813,94.222,52.391,94.222,52.97z"/>
<path fill="#211F30" d="M56.441,9.553c0.444,0,0.874,0,1.306,0c0,0.43,0,0.861,0,1.305c0,0.43,0,0.861,0,1.305
	c0.295,0,0.578,0,0.874,0c1.292,0,2.597,0,3.901,0c0,0.283,0,0.579,0,0.861c0,0.431,0,0.875,0,1.305c-0.86,0-1.735,0-2.609,0
	c-0.431,0-0.861,0-1.292,0c-0.296,0-0.579,0-0.874,0c-0.432,0-0.861,0-1.306,0c-0.282,0-0.579,0-0.86,0c0-0.296,0-0.579,0-0.875
	c0-0.431,0-0.861,0-1.292c0-0.444,0-0.875,0-1.305c0-0.444,0-0.875,0-1.305C55.862,9.553,56.159,9.553,56.441,9.553z"/>
<path fill="#280F0C" d="M12.163,50.804c0,0.282,0,0.579,0,0.86c0,0.445,0,0.875,0,1.306c-0.875,0-1.735,0-2.61,0
	c0-0.431,0-0.86,0-1.306c0-0.281,0-0.578,0-0.86C10.427,50.804,11.288,50.804,12.163,50.804z"/>
<path fill="#D8E1E4" d="M101.165,46.889c0,0.43,0,0.875,0,1.305c-0.283,0-0.579,0-0.861,0c-0.444,0-0.875,0-1.306,0
	c0-0.282,0-0.578,0-0.875c0-0.43,0-0.86,0-1.291c0.431,0,0.861,0,1.306,0c0.282,0,0.578,0,0.861,0
	C101.165,46.311,101.165,46.606,101.165,46.889z"/>
<path fill="#211F30" d="M39.516,14.329c-0.296,0-0.579,0-0.875,0c0-0.296,0-0.579,0-0.875c0-0.431,0-0.861,0-1.292
	c0.296,0,0.579,0,0.875,0c0.431,0,0.861,0,1.305,0c0-0.875,0-1.749,0-2.61c0.861,0,1.736,0,2.597,0c0,0.861,0,1.735,0,2.61
	c0,0.431,0,0.861,0,1.292c0,0.296,0,0.579,0,0.875c-0.861,0-1.735,0-2.597,0C40.377,14.329,39.946,14.329,39.516,14.329z"/>
<path fill="#211F30" d="M52.97,4.776c0.875,0,1.736,0,2.611,0c0,0.431,0,0.861,0,1.305c0,0.43,0,0.861,0,1.305
	c0,0.283,0,0.579,0,0.861c0,0.431,0,0.875,0,1.305c-0.875,0-1.736,0-2.611,0c0-0.296,0-0.579,0-0.875c0-0.431,0-0.861,0-1.292
	C52.97,6.512,52.97,5.637,52.97,4.776z"/>
<path fill="#211F30" d="M23.882,41.251c0.861,0,1.735,0,2.61,0c0,0.431,0,0.86,0,1.306c0,0.281,0,0.578,0,0.86
	c-0.875,0-1.749,0-2.61,0c0-0.282,0-0.579,0-0.86C23.882,42.112,23.882,41.682,23.882,41.251z"/>
<path fill="#9B1C1F" d="M79.462,41.251c0.861,0,1.736,0,2.598,0c0-0.874,0-1.735,0-2.61c-0.861,0-1.736,0-2.598,0
	C79.462,39.516,79.462,40.377,79.462,41.251z M77.282,44.723c0,1.156,0,2.314,0,3.471c0.297,0,0.579,0,0.875,0
	c1.305,0,2.609,0,3.902,0c0-0.282,0-0.578,0-0.875c0-1.291,0-2.596,0-3.901c-0.283,0-0.579,0-0.861,0c-1.306,0-2.61,0-3.916,0
	C77.282,43.848,77.282,44.292,77.282,44.723z M39.516,14.329c0.431,0,0.861,0,1.305,0c0,0.861,0,1.735,0,2.61
	c0.861,0,1.736,0,2.597,0c0,0.861,0,1.736,0,2.597c4.05,0,8.113,0,12.164,0c0-0.43,0-0.861,0-1.305c0-0.431,0-0.861,0-1.292
	c0.43,0,0.86,0,1.305,0c0.282,0,0.578,0,0.861,0c0-0.875,0-1.749,0-2.61c0.295,0,0.578,0,0.874,0c0.431,0,0.861,0,1.292,0
	c0.874,0,1.749,0,2.609,0c0,0.861,0,1.735,0,2.61c3.338,0,6.66,0,9.984,0c0,0.861,0,1.736,0,2.597c0.443,0,0.874,0,1.305,0
	c0.296,0,0.578,0,0.875,0c0,0.431,0,0.875,0,1.305c0,0.296,0,0.579,0,0.875c0,0.861,0,1.736,0,2.597c0,0.579,0,1.157,0,1.735
	c0,0.148,0,0.297,0,0.432c0.86,0,1.734,0,2.596,0c0,0.874,0,1.748,0,2.609c0.444,0,0.875,0,1.306,0c0.296,0,0.578,0,0.874,0
	c0,0.431,0,0.875,0,1.305c0,0.283,0,0.579,0,0.875c0.861,0,1.736,0,2.598,0c0.443,0,0.874,0,1.305,0c0.296,0,0.578,0,0.875,0
	c0.86,0,1.734,0,2.596,0c0,0.861,0,1.736,0,2.597c0,0.431,0,0.874,0,1.306c0,0.282,0,0.578,0,0.861c0,1.734,0,3.484,0,5.22
	c-0.861,0-1.735,0-2.596,0c0,0.431,0,0.86,0,1.306c0,0.281,0,0.578,0,0.86c0,0.431,0,0.874,0,1.306c0,0.282,0,0.578,0,0.861
	c0,0.443,0,0.874,0,1.305c0,0.296,0,0.578,0,0.875c0,0.43,0,0.86,0,1.305c0,0.282,0,0.578,0,0.861c0,0.295,0,0.578,0,0.874
	c-0.445,0-0.875,0-1.306,0c-0.296,0-0.579,0-0.874,0c0,0.431,0,0.86,0,1.306c0,0.281,0,0.578,0,0.86c-1.293,0-2.598,0-3.902,0
	c-0.296,0-0.578,0-0.875,0c0-0.431,0-0.86,0-1.306c0-0.281,0-0.578,0-0.86c-0.861,0-1.735,0-2.596,0c0-0.444,0-0.874,0-1.306
	c0-0.295,0-0.578,0-0.874c0-0.431,0-0.86,0-1.306c0-0.43,0-0.86,0-1.291c-0.445,0-0.875,0-1.306,0c-0.296,0-0.579,0-0.874,0
	c0-0.875,0-1.736,0-2.61c-0.861,0-1.736,0-2.598,0c0-0.431,0-0.86,0-1.306c0-0.281,0-0.578,0-0.86c-0.874,0-1.735,0-2.609,0
	c0-0.874,0-1.735,0-2.61c-0.432,0-0.861,0-1.306,0c-0.282,0-0.579,0-0.86,0c-0.875,0-1.736,0-2.611,0c0-0.875,0-1.735,0-2.609
	c-0.43,0-0.86,0-1.305,0c-0.282,0-0.578,0-0.861,0c-1.305,0-2.609,0-3.915,0c-1.157,0-2.313,0-3.472,0c-2.313,0-4.628,0-6.942,0
	c-1.305,0-2.61,0-3.916,0c-1.157,0-2.314,0-3.471,0s-2.314,0-3.471,0c-0.579,0-1.157,0-1.736,0c-0.578,0-1.157,0-1.735,0
	c-0.148,0-0.296,0-0.431,0h-2.18c0-0.283,0-0.579,0-0.861c0-1.306,0-2.61,0-3.902h2.18c1.588,0,3.175,0,4.776,0
	c0-0.296,0-0.592,0-0.875c0-0.43,0-0.874,0-1.305c0.861,0,1.736,0,2.597,0c0-0.282,0-0.578,0-0.861c0-1.305,0-2.609,0-3.915
	c-0.861,0-1.735,0-2.597,0c0-0.861,0-1.735,0-2.597c-0.296,0-0.579,0-0.875,0c-1.305,0-2.61,0-3.902,0v-2.18
	c0-0.861,0-1.735,0-2.597c1.157,0,2.314,0,3.471,0c1.305,0,2.597,0,3.902,0c0-0.875,0-1.749,0-2.61
	C38.937,14.329,39.22,14.329,39.516,14.329z M40.821,24.312c0,0.431,0,0.874,0,1.306c0,0.282,0,0.578,0,0.861
	c0.861,0,1.736,0,2.597,0c0-0.432,0-0.861,0-1.293c0-0.295,0-0.578,0-0.874C42.557,24.312,41.682,24.312,40.821,24.312z"/>
<path fill="#211F30" d="M87.71,41.251c0.43,0,0.861,0,1.305,0c0,0.282,0,0.579,0,0.86c0,0.445,0,0.875,0,1.306
	c-0.296,0-0.578,0-0.875,0c-0.43,0-0.86,0-1.305,0c0-0.579,0-1.157,0-1.735c0-0.148,0-0.296,0-0.431
	C87.132,41.251,87.414,41.251,87.71,41.251z"/>
<path fill="#FFFFFF" d="M16.939,14.329c0.431,0,0.861,0,1.292,0c0.296,0,0.579,0,0.875,0c0,0.861,0,1.735,0,2.61
	c0.861,0,1.735,0,2.61,0c0.431,0,0.861,0,1.292,0c0.296,0,0.579,0,0.875,0c0,0.861,0,1.736,0,2.597c0,0.431,0,0.875,0,1.305
	c0,0.296,0,0.579,0,0.875c-0.431,0-0.875,0-1.305,0c-0.283,0-0.579,0-0.861,0c-0.875,0-1.749,0-2.61,0c0-0.579,0-1.17,0-1.749
	c0-0.134,0-0.282,0-0.431c-0.431,0-0.875,0-1.305,0c-0.283,0-0.579,0-0.861,0C16.939,17.8,16.939,16.064,16.939,14.329z"/>
<path fill="#211F30" d="M63.397,14.329c0.431,0,0.861,0,1.291,0c0.875,0,1.75,0,2.611,0c1.735,0,3.471,0,5.207,0
	c0,0.861,0,1.735,0,2.61c-3.324,0-6.646,0-9.984,0c0-0.875,0-1.749,0-2.61C62.819,14.329,63.102,14.329,63.397,14.329z"/>
<path fill="#D8E1E4" d="M79.462,25.186c0-0.295,0-0.578,0-0.874c0.861,0,1.736,0,2.598,0c0,0.296,0,0.579,0,0.874
	c0,0.432,0,0.861,0,1.293c-0.861,0-1.736,0-2.598,0C79.462,26.047,79.462,25.618,79.462,25.186z"/>
<path fill="#762014" d="M88.14,36.032c0.297,0,0.579,0,0.875,0c0,1.734,0,3.484,0,5.22c-0.443,0-0.875,0-1.305,0
	c-0.296,0-0.578,0-0.875,0c0-1.735,0-3.485,0-5.22C87.279,36.032,87.71,36.032,88.14,36.032z"/>
<path fill="#48475B" d="M77.282,21.715c0,0.861,0,1.736,0,2.597c-0.861,0-1.735,0-2.596,0c0-0.861,0-1.735,0-2.597
	C75.547,21.715,76.421,21.715,77.282,21.715z"/>
<path fill="#211F30" d="M19.105,14.329c1.587,0,3.188,0,4.776,0c0,0.861,0,1.735,0,2.61c-0.296,0-0.579,0-0.875,0
	c-0.43,0-0.861,0-1.292,0c-0.875,0-1.749,0-2.61,0C19.105,16.064,19.105,15.19,19.105,14.329z"/>
<path fill="#48475B" d="M61.218,46.028c0.444,0,0.875,0,1.305,0c0.875,0,1.736,0,2.611,0c0,0.283,0,0.578,0,0.861
	c0,0.43,0,0.875,0,1.305c-0.297,0-0.579,0-0.875,0c-0.431,0-0.861,0-1.305,0c-0.432,0-0.861,0-1.292,0c-0.444,0-0.875,0-1.306,0
	c0-0.282,0-0.578,0-0.875c0-0.43,0-0.86,0-1.291C60.64,46.028,60.936,46.028,61.218,46.028z"/>
<path fill="#211F30" d="M94.222,52.97c0,0.874,0,1.735,0,2.61c-1.735,0-3.471,0-5.207,0c0-0.875,0-1.736,0-2.61
	C90.751,52.97,92.486,52.97,94.222,52.97z"/>
<path fill="#211F30" d="M66.438,46.028c0.282,0,0.578,0,0.861,0c0,0.861,0,1.736,0,2.597c0,0.444,0,0.874,0,1.306
	c0,0.295,0,0.578,0,0.874c-0.283,0-0.579,0-0.861,0c-0.444,0-0.875,0-1.305,0c0-0.874,0-1.735,0-2.61c0-0.43,0-0.875,0-1.305
	c0-0.283,0-0.578,0-0.861C65.563,46.028,65.994,46.028,66.438,46.028z"/>
<path fill="#211F30" d="M52.109,4.776c-0.444,0-0.875,0-1.305,0c0-0.431,0-0.875,0-1.305c0-0.283,0-0.579,0-0.861
	c0.282,0,0.579,0,0.861,0c0.444,0,0.875,0,1.305,0c0,0.283,0,0.579,0,0.861c0,0.431,0,0.875,0,1.305
	C52.688,4.776,52.392,4.776,52.109,4.776z"/>
<path fill="#48475B" d="M45.597,52.97c0.861,0,1.736,0,2.597,0c0,0.874,0,1.735,0,2.61c-0.861,0-1.735,0-2.597,0
	C45.597,54.706,45.597,53.844,45.597,52.97z"/>
<path fill="#211F30" d="M21.715,48.194c0,0.296,0,0.578,0,0.875c0,0.578,0,1.156,0,1.735c-0.875,0-1.749,0-2.61,0
	c0-0.296,0-0.579,0-0.874c0-0.432,0-0.861,0-1.306c0-0.86,0-1.735,0-2.597c0.861,0,1.735,0,2.61,0c0,0.283,0,0.578,0,0.861
	C21.715,47.319,21.715,47.764,21.715,48.194z"/>
<path fill="#9B3421" d="M66.438,43.417c0.282,0,0.578,0,0.861,0c0,0.874,0,1.735,0,2.61c-0.283,0-0.579,0-0.861,0
	c-0.444,0-0.875,0-1.305,0c0-0.875,0-1.736,0-2.61C65.563,43.417,65.994,43.417,66.438,43.417z"/>
<path fill="#211F30" d="M27.783,19.536c-0.43,0-0.861,0-1.292,0c0,0.296,0,0.579,0,0.875c0,0.431,0,0.861,0,1.305
	c-0.875,0-1.749,0-2.61,0c0-0.296,0-0.579,0-0.875c0-0.431,0-0.875,0-1.305c0-0.861,0-1.735,0-2.597c1.157,0,2.314,0,3.471,0
	c1.305,0,2.61,0,3.915,0c0,0.861,0,1.736,0,2.597c-0.444,0-0.875,0-1.305,0c-0.444,0-0.875,0-1.305,0
	C28.362,19.536,28.08,19.536,27.783,19.536z"/>
<path fill="#48475B" d="M43.417,46.028c-4.05,0-8.1,0-12.149,0c0-0.875,0-1.736,0-2.61c2.314,0,4.628,0,6.942,0
	c1.157,0,2.314,0,3.472,0c1.305,0,2.61,0,3.915,0c1.157,0,2.314,0,3.471,0c1.292,0,2.597,0,3.901,0c1.158,0,2.314,0,3.472,0
	c1.306,0,2.61,0,3.915,0c0,0.874,0,1.735,0,2.61c-0.874,0-1.735,0-2.609,0c-4.051,0-8.1,0-12.15,0c-0.444,0-0.875,0-1.305,0
	C43.996,46.028,43.713,46.028,43.417,46.028z"/>
<path fill="#FFFFFF" d="M12.163,41.251c0,2.313,0,4.628,0,6.942c-1.305,0-2.61,0-3.915,0c-1.157,0-2.314,0-3.471,0
	c0-0.43,0-0.875,0-1.305c0-0.283,0-0.578,0-0.861c0-0.875,0-1.736,0-2.61c0.296,0,0.579,0,0.875,0c0.43,0,0.861,0,1.292,0
	c0.875,0,1.749,0,2.61,0c0-0.282,0-0.579,0-0.86c0-0.445,0-0.875,0-1.306C10.427,41.251,11.288,41.251,12.163,41.251z"/>
<path fill="#211F30" d="M103.774,46.028c0,0.283,0,0.578,0,0.861c0,0.43,0,0.875,0,1.305c-0.875,0-1.735,0-2.609,0
	c0-0.43,0-0.875,0-1.305c0-0.283,0-0.578,0-0.861C102.039,46.028,102.899,46.028,103.774,46.028z"/>
<path fill="#FFFFFF" d="M98.998,47.319c0,0.297,0,0.593,0,0.875c-1.735,0-3.472,0-5.206,0c-0.445,0-0.875,0-1.306,0
	s-0.874,0-1.306,0c-0.43,0-0.874,0-1.305,0c-0.283,0-0.578,0-0.861,0c0-0.875,0-1.735,0-2.609c0-0.432,0-0.861,0-1.293
	c0-0.295,0-0.592,0-0.874c0-0.431,0-0.86,0-1.306c0-0.281,0-0.578,0-0.86c1.736,0,3.472,0,5.207,0c0,0.431,0,0.86,0,1.306
	c0,0.281,0,0.578,0,0.86c0.861,0,1.736,0,2.61,0c0.431,0,0.86,0,1.292,0c0.295,0,0.578,0,0.874,0c0,0.874,0,1.735,0,2.61
	C98.998,46.458,98.998,46.889,98.998,47.319z"/>
<path fill="#211F30" d="M8.248,41.251c0.444,0,0.875,0,1.305,0c0,0.431,0,0.86,0,1.306c0,0.281,0,0.578,0,0.86
	c-0.861,0-1.736,0-2.61,0c-0.431,0-0.861,0-1.292,0c-0.296,0-0.579,0-0.875,0c0-0.282,0-0.579,0-0.86c0-0.445,0-0.875,0-1.306
	c0.43,0,0.875,0,1.305,0c0.431,0,0.861,0,1.305,0C7.669,41.251,7.965,41.251,8.248,41.251z"/>
<path fill="#280F0C" d="M82.06,38.641c0,0.875,0,1.736,0,2.61c-0.861,0-1.736,0-2.598,0c0-0.874,0-1.735,0-2.61
	C80.323,38.641,81.198,38.641,82.06,38.641z"/>
<path fill="#48475B" d="M78.588,26.479c-0.431,0-0.861,0-1.306,0c0-0.432,0-0.861,0-1.293c0-0.295,0-0.578,0-0.874
	c0.297,0,0.579,0,0.875,0c0.431,0,0.861,0,1.305,0c0,0.296,0,0.579,0,0.874c0,0.432,0,0.861,0,1.293
	C79.166,26.479,78.884,26.479,78.588,26.479z"/>
<path fill="#9B3421" d="M72.507,52.97c0,0.874,0,1.735,0,2.61c-0.432,0-0.861,0-1.293,0c-0.443,0-0.874,0-1.305,0
	c0-0.296,0-0.578,0-0.875c0-1.305,0-2.596,0-3.901c0.861,0,1.736,0,2.598,0C72.507,51.517,72.507,52.244,72.507,52.97z"/>
<path fill="#FFFFFF" d="M43.417,12.163c0-0.875,0-1.749,0-2.61c0.431,0,0.875,0,1.305,0c0.296,0,0.579,0,0.875,0
	c0-0.296,0-0.579,0-0.875c0-0.431,0-0.861,0-1.292c0-0.727,0-1.453,0-2.179c0-0.148,0-0.283,0-0.431c0.861,0,1.736,0,2.597,0
	c0.875,0,1.736,0,2.61,0c0,0.431,0,0.861,0,1.305c0,0.282,0,0.578,0,0.861c0,0.579,0,1.157,0,1.736c0,1.157,0,2.314,0,3.484
	C48.342,12.163,45.88,12.163,43.417,12.163z"/>
<path fill="#762014" d="M16.939,52.97c0,0.874,0,1.735,0,2.61c-0.875,0-1.735,0-2.61,0c0-0.875,0-1.736,0-2.61
	C15.204,52.97,16.064,52.97,16.939,52.97z"/>
<path fill="#762014" d="M69.909,41.251c0,0.282,0,0.579,0,0.86c0,0.445,0,0.875,0,1.306c-0.874,0-1.735,0-2.609,0
	c0-0.431,0-0.86,0-1.306c0-0.281,0-0.578,0-0.86C68.174,41.251,69.035,41.251,69.909,41.251z"/>
<path fill="#211F30" d="M14.329,52.97c0,0.874,0,1.735,0,2.61c-0.296,0-0.579,0-0.861,0c-0.444,0-0.875,0-1.305,0
	c-0.875,0-1.735,0-2.61,0c0-0.875,0-1.736,0-2.61c0.875,0,1.735,0,2.61,0c0-0.431,0-0.86,0-1.306c0-0.281,0-0.578,0-0.86
	c0-0.874,0-1.735,0-2.61c0-2.314,0-4.629,0-6.942c-0.875,0-1.735,0-2.61,0c0-0.874,0-1.735,0-2.61c0.43,0,0.875,0,1.305,0
	c0.431,0,0.861,0,1.305,0c0-0.875,0-1.735,0-2.609c0.283,0,0.579,0,0.861,0c0.444,0,0.875,0,1.305,0c0,1.305,0,2.609,0,3.914
	c0,0.283,0,0.579,0,0.875c0,0.431,0,0.861,0,1.291c0,0.297,0,0.579,0,0.875c0,0.431,0,0.861,0,1.305
	C14.329,47.185,14.329,50.078,14.329,52.97z"/>
<path fill="#D8E1E4" d="M44.292,14.329c-0.296,0-0.579,0-0.875,0c0-0.296,0-0.579,0-0.875c0-0.431,0-0.861,0-1.292
	c2.462,0,4.924,0,7.387,0c0-1.17,0-2.328,0-3.484c0-0.579,0-1.157,0-1.736c0-0.283,0-0.579,0-0.861c0-0.444,0-0.875,0-1.305
	c0.431,0,0.861,0,1.305,0c0.282,0,0.578,0,0.86,0c0,0.861,0,1.735,0,2.61c0,0.431,0,0.861,0,1.292c0,0.296,0,0.579,0,0.875
	c0,0.861,0,1.735,0,2.61c0,0.431,0,0.861,0,1.292c0,0.296,0,0.579,0,0.875c-0.43,0-0.86,0-1.305,0c-0.282,0-0.579,0-0.861,0
	c-1.736,0-3.471,0-5.207,0C45.153,14.329,44.723,14.329,44.292,14.329z"/>
<path fill="#211F30" d="M72.507,49.93c0,0.295,0,0.578,0,0.874c-0.861,0-1.736,0-2.598,0c0-0.296,0-0.579,0-0.874
	c0-0.432,0-0.861,0-1.306c0-0.86,0-1.735,0-2.597c0.861,0,1.736,0,2.598,0c0,0.861,0,1.736,0,2.597
	C72.507,49.069,72.507,49.499,72.507,49.93z"/>
<path fill="#211F30" d="M96.388,41.251c0.875,0,1.736,0,2.61,0c0,0.282,0,0.579,0,0.86c0,0.445,0,0.875,0,1.306
	c-0.296,0-0.579,0-0.874,0c-0.432,0-0.861,0-1.292,0c-0.874,0-1.749,0-2.61,0c0-0.282,0-0.579,0-0.86c0-0.445,0-0.875,0-1.306
	c0.283,0,0.578,0,0.861,0C95.526,41.251,95.958,41.251,96.388,41.251z"/>
<path fill="#211F30" d="M27.353,43.417c0.43,0,0.875,0,1.305,0c0.861,0,1.736,0,2.61,0c0,0.874,0,1.735,0,2.61
	c-0.875,0-1.749,0-2.61,0c-0.43,0-0.875,0-1.305,0c-0.283,0-0.579,0-0.861,0c0-0.875,0-1.736,0-2.61
	C26.774,43.417,27.07,43.417,27.353,43.417z"/>
<path fill="#762014" d="M56.441,14.329c0.444,0,0.874,0,1.306,0c0,0.861,0,1.735,0,2.61c-0.283,0-0.579,0-0.861,0
	c-0.444,0-0.875,0-1.305,0c0-0.875,0-1.749,0-2.61C55.862,14.329,56.159,14.329,56.441,14.329z"/>
<path fill="#211F30" d="M50.804,16.939c0-0.875,0-1.749,0-2.61c0.282,0,0.579,0,0.861,0c0.444,0,0.875,0,1.305,0
	c0.875,0,1.736,0,2.611,0c0,0.861,0,1.735,0,2.61c-0.875,0-1.736,0-2.611,0c-0.43,0-0.86,0-1.305,0
	C51.383,16.939,51.086,16.939,50.804,16.939z"/>
<path fill="#211F30" d="M45.597,4.776c0-0.296,0-0.579,0-0.875c0-0.431,0-0.861,0-1.292c0.861,0,1.736,0,2.597,0
	c0,0.431,0,0.861,0,1.292c0,0.296,0,0.579,0,0.875C47.333,4.776,46.458,4.776,45.597,4.776z"/>
<path fill="#762014" d="M55.581,19.536c-4.05,0-8.114,0-12.164,0c0-0.861,0-1.735,0-2.597c0.431,0,0.875,0,1.305,0
	c0.296,0,0.579,0,0.875,0c1.736,0,3.471,0,5.207,0c0.282,0,0.579,0,0.861,0c0.444,0,0.875,0,1.305,0c0.875,0,1.736,0,2.611,0
	c0,0.431,0,0.861,0,1.292C55.581,18.675,55.581,19.105,55.581,19.536z"/>
<path fill="#211F30" d="M44.723,16.939c-0.431,0-0.875,0-1.305,0c0-0.875,0-1.749,0-2.61c0.296,0,0.579,0,0.875,0
	c0.431,0,0.861,0,1.305,0c0,0.861,0,1.735,0,2.61C45.301,16.939,45.019,16.939,44.723,16.939z"/>
<path fill="#FFFFFF" d="M77.282,20.41c0-0.296,0-0.578,0-0.875c0.444,0,0.875,0,1.306,0c0.296,0,0.578,0,0.874,0
	c0-0.861,0-1.735,0-2.597c0.283,0,0.578,0,0.861,0c0.443,0,0.875,0,1.305,0c0.875,0,1.736,0,2.611,0c0-0.875,0-1.749,0-2.61
	c0.86,0,1.734,0,2.596,0c0,1.735,0,3.471,0,5.207c-0.861,0-1.735,0-2.596,0c0,0.431,0,0.875,0,1.305c0,0.296,0,0.579,0,0.875
	c-0.445,0-0.875,0-1.306,0c-0.296,0-0.579,0-0.874,0c0,0.861,0,1.736,0,2.597c-0.861,0-1.736,0-2.598,0c-0.443,0-0.874,0-1.305,0
	c-0.296,0-0.578,0-0.875,0c0-0.861,0-1.735,0-2.597C77.282,21.271,77.282,20.841,77.282,20.41z"/>
<path fill="#D8E1E4" d="M16.939,20.841c0-0.431,0-0.875,0-1.305c0.283,0,0.579,0,0.861,0c0.43,0,0.875,0,1.305,0
	c0,0.148,0,0.296,0,0.431c0,0.579,0,1.17,0,1.749c-0.296,0-0.579,0-0.875,0c-0.43,0-0.861,0-1.292,0
	C16.939,21.419,16.939,21.137,16.939,20.841z"/>
<path fill="#D8E1E4" d="M12.163,48.194c0,0.875,0,1.736,0,2.61c-0.875,0-1.735,0-2.61,0c-0.861,0-1.736,0-2.61,0
	c-0.431,0-0.861,0-1.292,0c-0.296,0-0.579,0-0.875,0c0-0.874,0-1.735,0-2.61c1.157,0,2.314,0,3.471,0
	C9.553,48.194,10.857,48.194,12.163,48.194z"/>
<path fill="#211F30" d="M69.909,43.417c0,0.874,0,1.735,0,2.61c-0.874,0-1.735,0-2.609,0c0-0.875,0-1.736,0-2.61
	C68.174,43.417,69.035,43.417,69.909,43.417z"/>
<path fill="#211F30" d="M61.662,38.641c0.282,0,0.578,0,0.86,0c0.875,0,1.736,0,2.611,0c0,0.875,0,1.736,0,2.61
	c-0.875,0-1.736,0-2.611,0c-0.43,0-0.86,0-1.305,0c-0.282,0-0.578,0-0.861,0c0-0.874,0-1.735,0-2.61
	C60.787,38.641,61.218,38.641,61.662,38.641z"/>
<path fill="#762014" d="M82.06,31.268c-0.861,0-1.736,0-2.598,0c0-0.296,0-0.592,0-0.875c0-0.43,0-0.874,0-1.305
	c0.283,0,0.578,0,0.861,0c0.443,0,0.875,0,1.305,0c0.875,0,1.736,0,2.611,0c0,0.297,0,0.578,0,0.875c0,0.43,0,0.861,0,1.305
	c-0.297,0-0.579,0-0.875,0C82.934,31.268,82.503,31.268,82.06,31.268z"/>
<path fill="#762014" d="M61.218,36.032c0.444,0,0.875,0,1.305,0c0,0.874,0,1.734,0,2.609c-0.282,0-0.578,0-0.86,0
	c-0.444,0-0.875,0-1.306,0c0-0.875,0-1.735,0-2.609C60.64,36.032,60.936,36.032,61.218,36.032z"/>
<path fill="#211F30" d="M38.641,36.032c1.157,0,2.314,0,3.471,0c1.305,0,2.61,0,3.916,0c2.314,0,4.628,0,6.942,0
	c1.158,0,2.314,0,3.472,0c1.306,0,2.61,0,3.915,0c0,0.874,0,1.734,0,2.609c-1.305,0-2.609,0-3.915,0c-1.157,0-2.313,0-3.472,0
	c-1.305,0-2.61,0-3.901,0c-1.157,0-2.314,0-3.471,0c-1.305,0-2.61,0-3.915,0c-1.157,0-2.314,0-3.472,0c-2.314,0-4.628,0-6.942,0
	c0-0.43,0-0.875,0-1.305c0-0.431,0-0.861,0-1.305c0.135,0,0.283,0,0.431,0c0.579,0,1.157,0,1.735,0c0.579,0,1.157,0,1.736,0
	C36.327,36.032,37.484,36.032,38.641,36.032z"/>
<path fill="#211F30" d="M86.835,24.312c0-0.861,0-1.735,0-2.597c0-0.296,0-0.579,0-0.875c0-0.431,0-0.875,0-1.305
	c0.297,0,0.579,0,0.875,0c0.43,0,0.861,0,1.305,0c0,0.296,0,0.579,0,0.875c0,0.431,0,0.861,0,1.305c0,0.861,0,1.736,0,2.597
	c-0.296,0-0.578,0-0.875,0C87.71,24.312,87.279,24.312,86.835,24.312z"/>
<path fill="#280F0C" d="M84.239,21.715c0.86,0,1.734,0,2.596,0c0,0.861,0,1.736,0,2.597c-0.861,0-1.735,0-2.596,0
	C84.239,23.451,84.239,22.577,84.239,21.715z"/>
<path fill="#211F30" d="M87.71,31.268c0.43,0,0.861,0,1.305,0c0,0.135,0,0.283,0,0.431c0,0.135,0,0.282,0,0.431
	c0,0.578,0,1.156,0,1.735c0,0.296,0,0.579,0,0.874c0,0.432,0,0.861,0,1.293c-0.296,0-0.578,0-0.875,0c-0.43,0-0.86,0-1.305,0
	c0-0.283,0-0.579,0-0.861c0-0.432,0-0.875,0-1.306c0-0.86,0-1.735,0-2.597C87.132,31.268,87.414,31.268,87.71,31.268z"/>
<path fill="#280F0C" d="M83.364,24.312c0.296,0,0.578,0,0.875,0c0,0.296,0,0.579,0,0.874c0,0.432,0,0.861,0,1.293
	c-0.297,0-0.579,0-0.875,0c-0.431,0-0.861,0-1.305,0c0-0.432,0-0.861,0-1.293c0-0.295,0-0.578,0-0.874
	C82.503,24.312,82.934,24.312,83.364,24.312z"/>
<path fill="#211F30" d="M81.628,29.088c-0.43,0-0.861,0-1.305,0c-0.283,0-0.578,0-0.861,0c0-0.861,0-1.735,0-2.609
	c0.861,0,1.736,0,2.598,0c0.443,0,0.874,0,1.305,0c0.296,0,0.578,0,0.875,0c0-0.432,0-0.861,0-1.293c0-0.295,0-0.578,0-0.874
	c0.86,0,1.734,0,2.596,0c0,2.314,0,4.628,0,6.956c-0.861,0-1.735,0-2.596,0c0-0.443,0-0.875,0-1.305c0-0.297,0-0.578,0-0.875
	C83.364,29.088,82.503,29.088,81.628,29.088z"/>
<path fill="#211F30" d="M43.417,9.553c0-0.296,0-0.579,0-0.875c0-0.431,0-0.861,0-1.292c0-0.444,0-0.875,0-1.305
	c0-0.444,0-0.875,0-1.305c0.296,0,0.579,0,0.875,0c0.431,0,0.861,0,1.305,0c0,0.148,0,0.282,0,0.431c0,0.726,0,1.453,0,2.179
	c0,0.431,0,0.861,0,1.292c0,0.296,0,0.579,0,0.875c-0.296,0-0.579,0-0.875,0C44.292,9.553,43.848,9.553,43.417,9.553z"/>
<path fill="#211F30" d="M16.939,33.434c0,0.861,0,1.736,0,2.598c-0.875,0-1.735,0-2.61,0c0-0.283,0-0.579,0-0.861
	c0-0.432,0-0.875,0-1.306s0-0.86,0-1.305c0-0.431,0-0.861,0-1.292c0.875,0,1.735,0,2.61,0c0,0.283,0,0.565,0,0.861
	C16.939,32.56,16.939,33.004,16.939,33.434z"/>
<path fill="#762014" d="M23.882,21.715c0.861,0,1.735,0,2.61,0c0,0.861,0,1.736,0,2.597c-0.875,0-1.749,0-2.61,0
	C23.882,23.451,23.882,22.577,23.882,21.715z"/>
<path fill="#48475B" d="M27.353,46.028c0.43,0,0.875,0,1.305,0c0.861,0,1.736,0,2.61,0c0,0.861,0,1.736,0,2.597
	c0,0.444,0,0.874,0,1.306c0,0.295,0,0.578,0,0.874c-0.444,0-0.875,0-1.305,0c-0.296,0-0.579,0-0.875,0c0,0.431,0,0.86,0,1.306
	c0,0.43,0,0.86,0,1.291c0,0.727,0,1.453,0,2.18c-1.735,0-3.471,0-5.207,0c0-0.875,0-1.736,0-2.61c0-0.727,0-1.453,0-2.166
	c0.861,0,1.735,0,2.61,0c0-0.296,0-0.579,0-0.874c0-0.432,0-0.861,0-1.306c0-0.86,0-1.735,0-2.597
	C26.774,46.028,27.07,46.028,27.353,46.028z"/>
<path fill="#762014" d="M72.507,43.417c0,0.874,0,1.735,0,2.61c-0.861,0-1.736,0-2.598,0c0-0.875,0-1.736,0-2.61
	C70.771,43.417,71.646,43.417,72.507,43.417z"/>
<path fill="#211F30" d="M2.166,46.889c0,0.43,0,0.875,0,1.305c-0.283,0-0.579,0-0.861,0c-0.43,0-0.875,0-1.305,0
	c0-0.282,0-0.578,0-0.875c0-0.43,0-0.86,0-1.291c0.296,0,0.579,0,0.875,0c0.43,0,0.861,0,1.292,0
	C2.166,46.311,2.166,46.606,2.166,46.889z"/>
<path fill="#9B3421" d="M61.218,41.251c0.444,0,0.875,0,1.305,0c0.875,0,1.736,0,2.611,0c0,0.282,0,0.579,0,0.86
	c0,0.445,0,0.875,0,1.306c-0.875,0-1.736,0-2.611,0c-0.43,0-0.86,0-1.305,0c-0.282,0-0.578,0-0.861,0c0-0.431,0-0.86,0-1.306
	c0-0.281,0-0.578,0-0.86C60.64,41.251,60.936,41.251,61.218,41.251z"/>
<path fill="#762014" d="M77.282,51.665c0,0.445,0,0.875,0,1.306c0.297,0,0.579,0,0.875,0c1.305,0,2.609,0,3.902,0
	c0-0.282,0-0.579,0-0.86c0-0.445,0-0.875,0-1.306c0.295,0,0.578,0,0.874,0c0.431,0,0.86,0,1.306,0c0-0.296,0-0.579,0-0.874
	c0-0.283,0-0.579,0-0.861c0-0.444,0-0.875,0-1.305c0-0.297,0-0.579,0-0.875c0-0.431,0-0.861,0-1.305c0-0.283,0-0.579,0-0.861
	c0-0.432,0-0.875,0-1.306c0-0.282,0-0.579,0-0.86c0-0.445,0-0.875,0-1.306c0.86,0,1.734,0,2.596,0c0,0.135,0,0.282,0,0.431
	c0,0.578,0,1.156,0,1.735c0,0.874,0,1.735,0,2.61c0,0.431,0,0.861,0,1.291c0,0.297,0,0.593,0,0.875c0,0.431,0,0.875,0,1.305
	c0,0.283,0,0.579,0,0.861c0,0.444,0,0.875,0,1.305c0,0.445,0,0.875,0,1.306c0.444,0,0.875,0,1.305,0c0.297,0,0.579,0,0.875,0
	c0,0.874,0,1.735,0,2.61c-1.305,0-2.609,0-3.915,0c-1.157,0-2.313,0-3.472,0c-2.313,0-4.628,0-6.941,0c0-0.875,0-1.736,0-2.61
	c0-0.727,0-1.453,0-2.166c0.86,0,1.734,0,2.596,0C77.282,51.086,77.282,51.383,77.282,51.665z"/>
<path fill="#280F0C" d="M29.088,36.032c-1.735,0-3.471,0-5.207,0c0-1.158,0-2.314,0-3.472c0-0.431,0-0.861,0-1.292
	c1.735,0,3.471,0,5.207,0c0,1.292,0,2.597,0,3.902C29.088,35.453,29.088,35.749,29.088,36.032z"/>
<path fill="#211F30" d="M23.882,50.804c0-0.296,0-0.579,0-0.874c0-0.432,0-0.861,0-1.306c0-0.86,0-1.735,0-2.597
	c0.861,0,1.735,0,2.61,0c0,0.861,0,1.736,0,2.597c0,0.444,0,0.874,0,1.306c0,0.295,0,0.578,0,0.874
	C25.617,50.804,24.743,50.804,23.882,50.804z"/>
<path fill="#211F30" d="M12.163,12.163c2.314,0,4.628,0,6.943,0c0,0.283,0,0.579,0,0.861c0,0.431,0,0.875,0,1.305
	c-0.296,0-0.579,0-0.875,0c-0.43,0-0.861,0-1.292,0c-0.875,0-1.735,0-2.61,0c0,1.735,0,3.471,0,5.207c-0.296,0-0.579,0-0.861,0
	c-0.444,0-0.875,0-1.305,0C12.163,17.074,12.163,14.611,12.163,12.163z"/>
<path fill="#211F30" d="M41.682,43.417c-1.157,0-2.314,0-3.472,0c-2.314,0-4.628,0-6.942,0c0-0.431,0-0.86,0-1.306
	c0-0.281,0-0.578,0-0.86c2.314,0,4.628,0,6.942,0c1.157,0,2.314,0,3.472,0c0.578,0,1.157,0,1.735,0c0.296,0,0.579,0,0.875,0
	c0.431,0,0.861,0,1.305,0c1.157,0,2.314,0,3.471,0c0.579,0,1.157,0,1.736,0c0.282,0,0.579,0,0.861,0c0.444,0,0.875,0,1.305,0
	c1.158,0,2.314,0,3.472,0c0.579,0,1.157,0,1.735,0c0.297,0,0.579,0,0.875,0c0.431,0,0.861,0,1.305,0c0,0.282,0,0.579,0,0.86
	c0,0.445,0,0.875,0,1.306c-1.305,0-2.609,0-3.915,0c-1.157,0-2.313,0-3.472,0c-1.305,0-2.61,0-3.901,0c-1.157,0-2.314,0-3.471,0
	C44.292,43.417,42.987,43.417,41.682,43.417z"/>
<path fill="#9B1C1F" d="M27.783,38.641c-0.43,0-0.861,0-1.292,0c0,0.875,0,1.736,0,2.61c-0.875,0-1.749,0-2.61,0
	c0,0.431,0,0.86,0,1.306c0,0.281,0,0.578,0,0.86c-0.431,0-0.875,0-1.305,0c-0.283,0-0.579,0-0.861,0c0,0.874,0,1.735,0,2.61
	c-0.875,0-1.749,0-2.61,0c0,0.861,0,1.736,0,2.597c0,0.444,0,0.874,0,1.306c0,0.295,0,0.578,0,0.874c-0.296,0-0.579,0-0.875,0
	c-0.43,0-0.861,0-1.292,0c0,0.431,0,0.86,0,1.306c0,0.281,0,0.578,0,0.86c-0.875,0-1.735,0-2.61,0c0-2.893,0-5.785,0-8.679
	c0-0.443,0-0.874,0-1.305c0-0.296,0-0.578,0-0.875c0-0.43,0-0.86,0-1.291c0-0.296,0-0.592,0-0.875c0-1.305,0-2.609,0-3.914
	c0.875,0,1.735,0,2.61,0c0-0.861,0-1.736,0-2.598c0-0.43,0-0.874,0-1.305c0-0.296,0-0.578,0-0.861c0.579,0,1.157,0,1.736,0
	c0.134,0,0.282,0,0.431,0c0-0.443,0-0.875,0-1.305c0-0.297,0-0.578,0-0.875c0.861,0,1.735,0,2.61,0c0-0.861,0-1.735,0-2.609
	c0.579,0,1.157,0,1.736,0c0.134,0,0.282,0,0.431,0c0-0.432,0-0.861,0-1.293c0-0.295,0-0.578,0-0.874c0.861,0,1.735,0,2.61,0
	c0-0.861,0-1.735,0-2.597c0-0.444,0-0.875,0-1.305c0-0.296,0-0.578,0-0.875c0.431,0,0.861,0,1.292,0c0.296,0,0.579,0,0.875,0
	c0.431,0,0.861,0,1.305,0c0.431,0,0.861,0,1.305,0v2.18c0,0.861,0,1.736,0,2.597c-0.296,0-0.579,0-0.875,0c-0.431,0-0.875,0-1.305,0
	c0,0.296,0,0.579,0,0.874c0,1.293,0,2.598,0,3.902c0.296,0,0.579,0,0.875,0c0.431,0,0.861,0,1.305,0c0,0.148,0,0.297,0,0.431
	c0,0.579,0,1.157,0,1.749h-2.18c-1.735,0-3.471,0-5.207,0c0,0.431,0,0.861,0,1.292c0,1.157,0,2.313,0,3.472c1.735,0,3.471,0,5.207,0
	h2.18c0,0.443,0,0.874,0,1.305c0,0.43,0,0.875,0,1.305c-0.444,0-0.875,0-1.305,0c-0.296,0-0.579,0-0.875,0
	C28.658,38.641,28.228,38.641,27.783,38.641z"/>
<path fill="#D8E1E4" d="M50.804,2.61c0,0.283,0,0.579,0,0.861c0,0.431,0,0.875,0,1.305c-0.875,0-1.736,0-2.61,0
	c0-0.296,0-0.579,0-0.875c0-0.431,0-0.861,0-1.292C49.068,2.61,49.93,2.61,50.804,2.61z"/>
<path fill="#762014" d="M72.507,49.93c0-0.432,0-0.861,0-1.306c0-0.86,0-1.735,0-2.597c0.295,0,0.578,0,0.874,0
	c0.431,0,0.86,0,1.306,0c0,0.431,0,0.861,0,1.291c0,0.445,0,0.875,0,1.306c0,0.296,0,0.579,0,0.874c0,0.432,0,0.861,0,1.306
	c-0.297,0-0.579,0-0.875,0c-0.431,0-0.861,0-1.305,0C72.507,50.508,72.507,50.225,72.507,49.93z"/>
<path fill="#211F30" d="M31.268,46.028c4.05,0,8.1,0,12.149,0c0,2.314,0,4.629,0,6.942c-0.861,0-1.735,0-2.597,0
	c0-1.306,0-2.61,0-3.901c0-0.297,0-0.579,0-0.875c-2.328,0-4.642,0-6.956,0c0,0.875,0,1.736,0,2.61c0,0.713,0,1.439,0,2.166
	c-0.861,0-1.735,0-2.597,0c0-0.431,0-0.86,0-1.306c0-0.281,0-0.578,0-0.86c0-0.296,0-0.579,0-0.874c0-0.432,0-0.861,0-1.306
	C31.268,47.764,31.268,46.889,31.268,46.028z"/>
<path fill="#63677A" d="M57.747,52.97c0-2.313,0-4.628,0-6.942c0.874,0,1.735,0,2.609,0c0,0.431,0,0.861,0,1.291
	c0,0.297,0,0.593,0,0.875c0.431,0,0.861,0,1.306,0c0.431,0,0.86,0,1.292,0c0.443,0,0.874,0,1.305,0c0.296,0,0.578,0,0.875,0
	c0,0.875,0,1.736,0,2.61c0,0.282,0,0.579,0,0.86c0,0.445,0,0.875,0,1.306c0.43,0,0.86,0,1.305,0c0.282,0,0.578,0,0.861,0
	c0,0.874,0,1.735,0,2.61c-0.861,0-1.736,0-2.611,0c-0.43,0-0.86,0-1.291,0c-0.296,0-0.578,0-0.875,0c-0.86,0-1.735,0-2.609,0
	c-0.431,0-0.861,0-1.292,0c-0.296,0-0.579,0-0.874,0C57.747,54.706,57.747,53.844,57.747,52.97z"/>
<path fill="#762014" d="M65.994,38.641c0.444,0,0.874,0,1.306,0c0,0.875,0,1.736,0,2.61c-0.283,0-0.579,0-0.861,0
	c-0.444,0-0.875,0-1.305,0c0-0.874,0-1.735,0-2.61C65.415,38.641,65.712,38.641,65.994,38.641z"/>
<path fill="#211F30" d="M6.942,50.804c0.875,0,1.749,0,2.61,0c0,0.282,0,0.579,0,0.86c0,0.445,0,0.875,0,1.306
	c-0.283,0-0.579,0-0.861,0c-0.444,0-0.875,0-1.305,0c-0.875,0-1.735,0-2.61,0c0-0.282,0-0.579,0-0.86c0-0.445,0-0.875,0-1.306
	c0.296,0,0.579,0,0.875,0C6.081,50.804,6.512,50.804,6.942,50.804z"/>
</svg>
