<?xml version="1.0" encoding="utf-8"?>
<!-- Generator: Adobe Illustrator 15.0.0, SVG Export Plug-In  -->
<!DOCTYPE svg PUBLIC "-//W3C//DTD SVG 1.1//EN" "http://www.w3.org/Graphics/SVG/1.1/DTD/svg11.dtd" [
	<!ENTITY ns_flows "http://ns.adobe.com/Flows/1.0/">
]>
<svg version="1.1"
	 xmlns="http://www.w3.org/2000/svg" xmlns:xlink="http://www.w3.org/1999/xlink" xmlns:a="http://ns.adobe.com/AdobeSVGViewerExtensions/3.0/"
	 x="0px" y="0px" width="110px" height="70px" viewBox="-9.011 -7.477 110 70" enable-background="new -9.011 -7.477 110 70"
	 xml:space="preserve">
<defs>
</defs>
<path fill="#762014" d="M57.747,36.044c0,0.861,0,1.736,0,2.597c-0.283,0-0.579,0-0.861,0c-0.431,0-0.875,0-1.306,0
	c0-0.86,0-1.735,0-2.597c0.296,0,0.579,0,0.875,0C56.886,36.044,57.316,36.044,57.747,36.044z"/>
<path fill="#762014" d="M38.654,14.329c0.283,0,0.565,0,0.861,0c0.431,0,0.875,0,1.306,0c0,0.861,0,1.735,0,2.61
	c-0.297,0-0.579,0-0.875,0c-0.431,0-0.861,0-1.292,0C38.654,16.064,38.654,15.19,38.654,14.329z"/>
<path fill="#D8E1E4" d="M14.329,18.231c0-0.431,0-0.861,0-1.292c0-0.444,0-0.875,0-1.305c0-0.444,0-0.875,0-1.305
	c0.874,0,1.749,0,2.61,0c0,0.282,0,0.579,0,0.861c0,1.305,0,2.61,0,3.916c-0.861,0-1.736,0-2.61,0
	C14.329,18.81,14.329,18.527,14.329,18.231z"/>
<path fill="#211F30" d="M39.516,48.194c0.431,0,0.875,0,1.306,0c0,0.147,0,0.282,0,0.431c0,1.157,0,2.314,0,3.471
	c0,1.171,0,2.328,0,3.485c-0.431,0-0.875,0-1.306,0c-0.296,0-0.578,0-0.861,0c0-2.462,0-4.925,0-7.387
	C38.938,48.194,39.22,48.194,39.516,48.194z"/>
<path fill="#9B3421" d="M27.353,40.808c0.444,0,0.875,0,1.306,0c0.443,0,0.874,0,1.305,0s0.875,0,1.306,0c0,0.874,0,1.734,0,2.609
	c-0.875,0-1.736,0-2.61,0c-0.431,0-0.861,0-1.306,0c-0.282,0-0.564,0-0.86,0c0-0.875,0-1.735,0-2.609
	C26.788,40.808,27.07,40.808,27.353,40.808z"/>
<path fill="#280F0C" d="M24.756,36.044c-0.296,0-0.578,0-0.874,0c0-0.592,0-1.17,0-1.749s0-1.157,0-1.735c0-0.431,0-0.861,0-1.305
	c1.601,0,3.188,0,4.776,0c0,1.305,0,2.609,0,3.914c0,0.283,0,0.579,0,0.875c-0.283,0-0.579,0-0.861,0
	C26.788,36.044,25.778,36.044,24.756,36.044z"/>
<path fill="#211F30" d="M23.021,24.312c-0.444,0-0.875,0-1.305,0c0-0.861,0-1.735,0-2.597c0.296,0,0.578,0,0.86,0
	c0.444,0,0.875,0,1.306,0c0,0.861,0,1.736,0,2.597C23.599,24.312,23.303,24.312,23.021,24.312z"/>
<path fill="#48475B" d="M40.821,55.581c0,0.282,0,0.579,0,0.86c0,0.445,0,0.875,0,1.306c-0.148,0-0.297,0-0.431,0
	c-0.579,0-1.171,0-1.736,0c0-0.431,0-0.86,0-1.306c0-0.281,0-0.578,0-0.86c0.283,0,0.565,0,0.861,0
	C39.946,55.581,40.391,55.581,40.821,55.581z"/>
<path fill="#280F0C" d="M43.431,24.312c0,0.296,0,0.579,0,0.875c0,0.431,0,0.861,0,1.305c-0.874,0-1.749,0-2.609,0
	c0-0.296,0-0.579,0-0.875c0-0.431,0-0.875,0-1.305C41.682,24.312,42.557,24.312,43.431,24.312z"/>
<path fill="#211F30" d="M61.662,46.028c0.282,0,0.578,0,0.861,0c0,0.86,0,1.735,0,2.597c0,0.443,0,0.875,0,1.305
	c0,0.297,0,0.579,0,0.875c-0.283,0-0.579,0-0.861,0c-0.431,0-0.875,0-1.306,0c0-0.875,0-1.736,0-2.61c0-0.431,0-0.86,0-1.306
	c0-0.281,0-0.578,0-0.86C60.787,46.028,61.231,46.028,61.662,46.028z"/>
<path fill="#211F30" d="M27.353,43.417c0.444,0,0.875,0,1.306,0c0.874,0,1.735,0,2.61,0c0,0.875,0,1.736,0,2.61
	c-0.875,0-1.736,0-2.61,0c-0.431,0-0.861,0-1.306,0c-0.282,0-0.564,0-0.86,0c0-0.874,0-1.735,0-2.61
	C26.788,43.417,27.07,43.417,27.353,43.417z"/>
<path fill="#D8E1E4" d="M43.431,14.329c-0.874,0-1.749,0-2.609,0c0-0.296,0-0.579,0-0.875c0-0.431,0-0.861,0-1.292
	c1.156,0,2.313,0,3.471,0c1.306,0,2.61,0,3.902,0c0-1.157,0-2.328,0-3.484c0-0.579,0-1.157,0-1.736c0-0.283,0-0.579,0-0.861
	c0-0.444,0-0.875,0-1.305c0.443,0,0.874,0,1.305,0c0.296,0,0.578,0,0.875,0c0,0.861,0,1.735,0,2.61c0,0.713,0,1.44,0,2.167
	c0,0.861,0,1.735,0,2.61c0,0.431,0,0.861,0,1.292c0,0.296,0,0.579,0,0.875c-0.431,0-0.875,0-1.306,0c-0.296,0-0.578,0-0.874,0
	c-0.861,0-1.736,0-2.597,0c-0.431,0-0.875,0-1.306,0C44.01,14.329,43.714,14.329,43.431,14.329z"/>
<path fill="#762014" d="M76.852,29.088c0.875,0,1.736,0,2.61,0c0,0.296,0,0.579,0,0.874c0,0.432,0,0.861,0,1.293
	c-1.587,0-3.188,0-4.776,0c0-0.283,0-0.579,0-0.861c0-0.432,0-0.875,0-1.306c0.296,0,0.579,0,0.875,0
	C75.991,29.088,76.422,29.088,76.852,29.088z"/>
<path fill="#211F30" d="M7.387,55.581c-0.861,0-1.736,0-2.61,0c0-0.874,0-1.735,0-2.61c0.296,0,0.578,0,0.874,0
	c0.431,0,0.875,0,1.306,0s0.861,0,1.305,0c0.431,0,0.861,0,1.292,0c0,0.875,0,1.736,0,2.61c-0.283,0-0.579,0-0.861,0
	C8.261,55.581,7.817,55.581,7.387,55.581z"/>
<path fill="#211F30" d="M23.882,48.625c0-0.861,0-1.736,0-2.597c0.874,0,1.735,0,2.61,0c0,0.282,0,0.579,0,0.86
	c0,0.445,0,0.875,0,1.306c0,0.874,0,1.735,0,2.61c-0.875,0-1.736,0-2.61,0c0-0.296,0-0.578,0-0.875
	C23.882,49.5,23.882,49.068,23.882,48.625z"/>
<path fill="#9B1C1F" d="M77.296,43.417c0-0.875,0-1.735,0-2.609c-0.874,0-1.735,0-2.61,0c0,0.874,0,1.734,0,2.609
	C75.561,43.417,76.422,43.417,77.296,43.417z M40.821,24.312c0,0.431,0,0.875,0,1.305c0,0.296,0,0.579,0,0.875
	c0.86,0,1.735,0,2.609,0c0-0.444,0-0.875,0-1.305c0-0.296,0-0.578,0-0.875C42.557,24.312,41.682,24.312,40.821,24.312z
	 M27.797,38.641v-2.597c0.282,0,0.578,0,0.861,0c0-0.296,0-0.592,0-0.875c0-1.305,0-2.609,0-3.914v-2.167c0.443,0,0.874,0,1.305,0
	s0.875,0,1.306,0c0,0.296,0,0.579,0,0.874c0,0.432,0,0.861,0,1.293c0.282,0,0.578,0,0.86,0c1.306,0,2.61,0,3.916,0
	c0-0.283,0-0.579,0-0.861c0-0.432,0-0.875,0-1.306c0.86,0,1.735,0,2.609,0c0-0.282,0-0.578,0-0.861c0-1.305,0-2.61,0-3.916
	c-0.874,0-1.749,0-2.609,0c0-0.861,0-1.735,0-2.597c-0.297,0-0.579,0-0.875,0c-1.292,0-2.597,0-3.901,0c0,0.861,0,1.736,0,2.597
	c-0.875,0-1.736,0-2.61,0h-2.166c0-0.861,0-1.735,0-2.597c0-0.875,0-1.749,0-2.61c1.587,0,3.188,0,4.776,0c0-0.431,0-0.875,0-1.305
	c0-0.283,0-0.579,0-0.861c0.282,0,0.578,0,0.86,0c0.444,0,0.875,0,1.306,0c0.874,0,1.735,0,2.61,0c0-0.875,0-1.749,0-2.61
	c0.86,0,1.735,0,2.609,0c0,0.861,0,1.735,0,2.61c0.431,0,0.861,0,1.292,0c0.296,0,0.578,0,0.875,0c0,0.431,0,0.861,0,1.292
	c0,0.296,0,0.579,0,0.875c4.05,0,8.1,0,12.149,0c0-0.431,0-0.875,0-1.305c0-0.283,0-0.579,0-0.861c0.874,0,1.749,0,2.609,0
	c0-0.875,0-1.749,0-2.61c0.296,0,0.579,0,0.875,0c0.431,0,0.861,0,1.292,0c0.874,0,1.749,0,2.609,0c0,0.861,0,1.735,0,2.61
	c2.314,0,4.629,0,6.943,0c0,0.431,0,0.861,0,1.292c0,0.296,0,0.579,0,0.875c0.874,0,1.749,0,2.609,0c0,0.861,0,1.735,0,2.61
	c0,0.861,0,1.736,0,2.597c0,0.296,0,0.579,0,0.875c0,0.431,0,0.861,0,1.305c0.431,0,0.875,0,1.306,0c0.282,0,0.578,0,0.861,0
	c0,0.861,0,1.736,0,2.597c0.874,0,1.735,0,2.609,0c0,0.431,0,0.874,0,1.306c0,0.282,0,0.578,0,0.861c1.588,0,3.189,0,4.776,0
	c0.875,0,1.736,0,2.61,0c0,1.305,0,2.609,0,3.914c0,1.158,0,2.314,0,3.472c0,0.431,0,0.874,0,1.306c0,0.43,0,0.861,0,1.305
	c0,0.431,0,0.861,0,1.291c0,0.297,0,0.593,0,0.875c-0.874,0-1.735,0-2.61,0c0,0.431,0,0.875,0,1.305c0,0.283,0,0.579,0,0.875
	c0,0.431,0,0.861,0,1.291c0,0.297,0,0.579,0,0.875c0,0.431,0,0.861,0,1.305c0,0.283,0,0.579,0,0.861c0,0.432,0,0.875,0,1.306
	c0,0.296,0,0.579,0,0.86c0,0.297,0,0.593,0,0.875c-0.431,0-0.874,0-1.305,0c-0.282,0-0.579,0-0.861,0c0,0.431,0,0.875,0,1.305
	c0,0.432,0,0.861,0,1.306c-1.735,0-3.484,0-5.22,0c0-0.874,0-1.735,0-2.61c0-0.43,0-0.875,0-1.305c0-0.283,0-0.578,0-0.861
	c1.305,0,2.609,0,3.915,0c0.431,0,0.86,0,1.305,0c0-0.875,0-1.736,0-2.61c0-0.431,0-0.86,0-1.306c0-0.281,0-0.578,0-0.86
	c-1.735,0-3.484,0-5.22,0c0,0.86,0,1.735,0,2.597c0,0.443,0,0.875,0,1.305c0,0.297,0,0.579,0,0.875c-0.283,0-0.579,0-0.861,0
	c-0.431,0-0.875,0-1.306,0c0-0.443,0-0.875,0-1.305c0-0.297,0-0.579,0-0.875c0-0.431,0-0.861,0-1.291c0-0.445,0-0.875,0-1.306
	c-0.86,0-1.735,0-2.609,0c0-0.874,0-1.735,0-2.61c-0.431,0-0.861,0-1.292,0c-0.296,0-0.579,0-0.875,0c0-0.875,0-1.735,0-2.609
	c-0.86,0-1.735,0-2.609,0c0-0.432,0-0.861,0-1.293c0-0.295,0-0.578,0-0.874c-0.431,0-0.861,0-1.292,0c-0.296,0-0.579,0-0.875,0
	c-0.86,0-1.735,0-2.609,0c0-0.86,0-1.735,0-2.597c-0.431,0-0.861,0-1.292,0c-0.296,0-0.579,0-0.875,0c-8.1,0-16.212,0-24.312,0
	c0,0.431,0,0.861,0,1.292c0,0.444,0,0.874,0,1.305c-0.431,0-0.875,0-1.306,0c-0.282,0-0.578,0-0.861,0
	C28.658,38.641,28.228,38.641,27.797,38.641z"/>
<path fill="#762014" d="M82.072,43.417c0-0.282,0-0.578,0-0.875c0-0.43,0-0.86,0-1.291c0-0.443,0-0.875,0-1.305
	c0-0.432,0-0.875,0-1.306c0.282,0,0.579,0,0.861,0c0.431,0,0.874,0,1.305,0c0,0.874,0,1.735,0,2.61c0,0.431,0,0.861,0,1.291
	c0,0.297,0,0.593,0,0.875c-0.282,0-0.578,0-0.874,0C82.934,43.417,82.503,43.417,82.072,43.417z"/>
<path fill="#48475B" d="M33.878,55.581c0,0.282,0,0.579,0,0.86c0,0.445,0,0.875,0,1.306c-0.874,0-1.749,0-2.609,0
	c0-0.147,0-0.282,0-0.431c0-0.578,0-1.156,0-1.735C32.129,55.581,33.004,55.581,33.878,55.581z"/>
<path fill="#211F30" d="M38.654,12.163c0-0.875,0-1.749,0-2.61c0.283,0,0.565,0,0.861,0c0.431,0,0.875,0,1.306,0
	c0,0.861,0,1.735,0,2.61c0,0.431,0,0.861,0,1.292c0,0.296,0,0.579,0,0.875c-0.431,0-0.875,0-1.306,0c-0.296,0-0.578,0-0.861,0
	c-0.874,0-1.749,0-2.609,0c0-0.296,0-0.579,0-0.875c0-0.431,0-0.861,0-1.292c0.43,0,0.86,0,1.305,0
	C37.78,12.163,38.211,12.163,38.654,12.163z"/>
<path fill="#211F30" d="M45.598,1.305c0-0.296,0-0.579,0-0.875c0-0.135,0-0.283,0-0.431c0.86,0,1.735,0,2.597,0
	c0,0.296,0,0.579,0,0.861c0,0.592,0,1.171,0,1.749c-0.861,0-1.736,0-2.597,0C45.598,2.166,45.598,1.735,45.598,1.305z"/>
<path fill="#280F0C" d="M79.462,21.715c0.875,0,1.736,0,2.61,0c0,0.861,0,1.736,0,2.597c-0.874,0-1.735,0-2.61,0
	C79.462,23.451,79.462,22.577,79.462,21.715z"/>
<path fill="#211F30" d="M89.015,43.417c0.296,0,0.579,0,0.875,0c0.431,0,0.861,0,1.291,0c0.875,0,1.736,0,2.61,0
	c0,0.875,0,1.736,0,2.61c-0.296,0-0.578,0-0.874,0c-0.431,0-0.861,0-1.292,0c-0.874,0-1.735,0-2.61,0
	C89.015,45.154,89.015,44.292,89.015,43.417z"/>
<path fill="#9B1C1F" d="M14.329,55.581c0-0.444,0-0.874,0-1.306c0-0.295,0-0.578,0-0.874c0-0.431,0-0.86,0-1.306
	c0-0.281,0-0.564,0-0.86c0-0.431,0-0.874,0-1.306c0-0.282,0-0.578,0-0.861c0-0.443,0-0.874,0-1.305c0-0.296,0-0.578,0-0.875
	c0-0.43,0-0.86,0-1.291c0-0.296,0-0.592,0-0.875c0-0.43,0-0.874,0-1.305c0-0.282,0-0.578,0-0.875c0-1.291,0-2.596,0-3.901
	c0.874,0,1.749,0,2.61,0c0-1.305,0-2.597,0-3.901c0-1.157,0-2.314,0-3.484c0.578,0,1.156,0,1.735,0c0.147,0,0.296,0,0.431,0
	c0-0.432,0-0.861,0-1.293c0-0.295,0-0.578,0-0.874c0.874,0,1.735,0,2.61,0c0-0.861,0-1.735,0-2.597c0.578,0,1.156,0,1.735,0
	c0.147,0,0.296,0,0.431,0c0-0.444,0-0.875,0-1.305c0-0.296,0-0.578,0-0.875c0.874,0,1.735,0,2.61,0h2.166c0,0.296,0,0.579,0,0.875
	c0,1.305,0,2.597,0,3.902v2.167c-1.588,0-3.176,0-4.776,0c0,0.443,0,0.874,0,1.305c0,0.578,0,1.156,0,1.735s0,1.157,0,1.749
	c0.296,0,0.578,0,0.874,0c1.022,0,2.032,0,3.041,0v2.597c-0.444,0-0.875,0-1.305,0c0,0.431,0,0.874,0,1.306c0,0.282,0,0.578,0,0.861
	c-0.875,0-1.736,0-2.61,0c0,0.874,0,1.734,0,2.609c-0.431,0-0.861,0-1.306,0c-0.282,0-0.564,0-0.86,0c0,0.875,0,1.736,0,2.61
	c-0.875,0-1.736,0-2.61,0c0,0.86,0,1.735,0,2.597c0,0.443,0,0.875,0,1.305c0,0.297,0,0.579,0,0.875c-0.431,0-0.861,0-1.292,0
	c-0.296,0-0.578,0-0.874,0c0,0.861,0,1.736,0,2.597c0,0.444,0,0.874,0,1.306c0,0.295,0,0.578,0,0.874
	C16.078,55.581,15.203,55.581,14.329,55.581z"/>
<path fill="#211F30" d="M38.654,57.747c-1.601,0-3.188,0-4.776,0c0-0.431,0-0.86,0-1.306c0-0.281,0-0.578,0-0.86
	c0.283,0,0.579,0,0.861,0c0.431,0,0.875,0,1.306,0c0.86,0,1.735,0,2.609,0c0,0.282,0,0.579,0,0.86
	C38.654,56.886,38.654,57.316,38.654,57.747z"/>
<path fill="#D8E1E4" d="M79.462,19.105c0.875,0,1.736,0,2.61,0c0,0.861,0,1.735,0,2.61c-0.874,0-1.735,0-2.61,0
	C79.462,20.841,79.462,19.966,79.462,19.105z"/>
<path fill="#FFFFFF" d="M4.776,46.888c0-0.281,0-0.578,0-0.86c0.296,0,0.578,0,0.874,0c0.431,0,0.875,0,1.306,0
	c0.861,0,1.735,0,2.597,0c0-0.874,0-1.735,0-2.61c0.874,0,1.749,0,2.61,0c0,0.431,0,0.875,0,1.305c0,0.283,0,0.579,0,0.875
	c0,0.565,0,1.144,0,1.736c0,1.143,0,2.313,0,3.471c-1.306,0-2.61,0-3.902,0c-1.157,0-2.327,0-3.484,0c0-0.875,0-1.736,0-2.61
	C4.776,47.763,4.776,47.333,4.776,46.888z"/>
<path fill="#D8E1E4" d="M45.598,4.776c0-0.431,0-0.875,0-1.305c0-0.283,0-0.579,0-0.861c0.86,0,1.735,0,2.597,0
	c0,0.283,0,0.579,0,0.861c0,0.431,0,0.875,0,1.305C47.333,4.776,46.458,4.776,45.598,4.776z"/>
<path fill="#BA2226" d="M38.654,48.194c0,2.462,0,4.925,0,7.387c-0.874,0-1.749,0-2.609,0c-0.431,0-0.875,0-1.306,0
	c-0.282,0-0.578,0-0.861,0c0-2.462,0-4.925,0-7.387c0.283,0,0.579,0,0.861,0c0.431,0,0.875,0,1.306,0
	C36.905,48.194,37.78,48.194,38.654,48.194z"/>
<path fill="#762014" d="M40.821,18.231c0-0.431,0-0.861,0-1.292c0.86,0,1.735,0,2.609,0c0.283,0,0.579,0,0.861,0
	c0.431,0,0.875,0,1.306,0c0.86,0,1.735,0,2.597,0c0.296,0,0.578,0,0.874,0c0.431,0,0.875,0,1.306,0c0.86,0,1.735,0,2.597,0
	c0,0.283,0,0.579,0,0.861c0,0.431,0,0.875,0,1.305c-4.05,0-8.1,0-12.149,0C40.821,18.81,40.821,18.527,40.821,18.231z"/>
<path fill="#211F30" d="M84.238,38.641c0.875,0,1.736,0,2.61,0c0,0.296,0,0.579,0,0.874c0,0.432,0,0.861,0,1.293
	c0.282,0,0.579,0,0.861,0c0.431,0,0.874,0,1.305,0c0,0.874,0,1.734,0,2.609c-0.874,0-1.735,0-2.61,0c-0.43,0-0.86,0-1.291,0
	c-0.296,0-0.579,0-0.875,0c0-0.282,0-0.578,0-0.875c0-0.43,0-0.86,0-1.291C84.238,40.376,84.238,39.515,84.238,38.641z"/>
<path fill="#211F30" d="M50.374,14.329c0.86,0,1.735,0,2.597,0c0,0.861,0,1.735,0,2.61c-0.861,0-1.736,0-2.597,0
	c-0.431,0-0.875,0-1.306,0c-0.296,0-0.578,0-0.874,0c0-0.875,0-1.749,0-2.61c0.296,0,0.578,0,0.874,0
	C49.499,14.329,49.943,14.329,50.374,14.329z"/>
<path fill="#211F30" d="M52.971,4.776c0,0.431,0,0.861,0,1.305c0,0.43,0,0.861,0,1.305c0,0.283,0,0.579,0,0.861
	c0,0.431,0,0.875,0,1.305c-0.861,0-1.736,0-2.597,0c0-0.727,0-1.453,0-2.167c0-0.875,0-1.749,0-2.61
	C51.234,4.776,52.109,4.776,52.971,4.776z"/>
<path fill="#D8E1E4" d="M4.776,48.194c0,0.874,0,1.735,0,2.61c-0.861,0-1.735,0-2.597,0c0-0.875,0-1.736,0-2.61
	C3.041,48.194,3.915,48.194,4.776,48.194z"/>
<path fill="#9B3421" d="M19.105,60.357c0-1.453,0-2.893,0-4.346c0-0.297,0-0.578,0-0.875c0-0.43,0-0.861,0-1.291
	c0-0.297,0-0.579,0-0.875c0-0.43,0-0.875,0-1.305c0-0.283,0-0.578,0-0.861c0.874,0,1.735,0,2.61,0c0,0.431,0,0.861,0,1.291
	c0,0.445,0,0.875,0,1.306c0,0.444,0,0.874,0,1.306c0,0.295,0,0.578,0,0.874c0,0.431,0,0.86,0,1.306c0,0.43,0,0.86,0,1.291
	c0,0.727,0,1.453,0,2.18C20.841,60.357,19.979,60.357,19.105,60.357z"/>
<path fill="#211F30" d="M2.18,48.194c0,0.874,0,1.735,0,2.61c-0.296,0-0.579,0-0.875,0c-0.431,0-0.86,0-1.305,0
	c0-0.875,0-1.736,0-2.61c0.296,0,0.592,0,0.874,0C1.305,48.194,1.735,48.194,2.18,48.194z"/>
<path fill="#762014" d="M72.076,24.312c0,0.296,0,0.579,0,0.875c0,0.431,0,0.861,0,1.305c-0.283,0-0.579,0-0.861,0
	c-0.431,0-0.875,0-1.306,0c0-0.444,0-0.875,0-1.305c0-0.296,0-0.578,0-0.875c0.431,0,0.875,0,1.306,0
	C71.497,24.312,71.793,24.312,72.076,24.312z"/>
<path fill="#211F30" d="M33.878,14.329c0.283,0,0.579,0,0.861,0c0.431,0,0.875,0,1.306,0c0,0.861,0,1.735,0,2.61
	c-0.875,0-1.736,0-2.61,0c-0.431,0-0.861,0-1.306,0c-0.282,0-0.578,0-0.86,0c0-0.875,0-1.749,0-2.61c0.43,0,0.86,0,1.305,0
	C33.004,14.329,33.435,14.329,33.878,14.329z"/>
<path fill="#211F30" d="M5.65,46.028c-0.296,0-0.578,0-0.874,0c0-0.874,0-1.735,0-2.61c0.443,0,0.874,0,1.305,0
	c0.444,0,0.875,0,1.306,0c0.296,0,0.578,0,0.874,0c0.431,0,0.861,0,1.292,0c0,0.875,0,1.736,0,2.61c-0.861,0-1.735,0-2.597,0
	C6.525,46.028,6.081,46.028,5.65,46.028z"/>
<path fill="#211F30" d="M43.431,55.581c0-2.462,0-4.925,0-7.387c0.283,0,0.579,0,0.861,0c0.431,0,0.875,0,1.306,0
	c0,0.431,0,0.874,0,1.306c0,0.282,0,0.578,0,0.861c0,0.578,0,1.17,0,1.734c0,1.171,0,2.328,0,3.485c-0.148,0-0.297,0-0.431,0
	C44.588,55.581,44.01,55.581,43.431,55.581z"/>
<path fill="#D8E1E4" d="M78.588,24.312c-0.431,0-0.861,0-1.292,0c0-0.861,0-1.735,0-2.597c0.282,0,0.579,0,0.861,0
	c0.431,0,0.874,0,1.305,0c0,0.861,0,1.736,0,2.597C79.18,24.312,78.884,24.312,78.588,24.312z"/>
<path fill="#D8E1E4" d="M5.65,52.97c-0.296,0-0.578,0-0.874,0c0-0.43,0-0.875,0-1.305c0-0.283,0-0.578,0-0.861
	c1.157,0,2.327,0,3.484,0c1.292,0,2.597,0,3.902,0c0,0.283,0,0.578,0,0.861c0,0.43,0,0.875,0,1.305c-0.861,0-1.736,0-2.61,0
	c-0.431,0-0.861,0-1.292,0c-0.443,0-0.874,0-1.305,0S6.081,52.97,5.65,52.97z"/>
<path fill="#280F0C" d="M84.238,55.581c0-0.874,0-1.735,0-2.61c0.296,0,0.579,0,0.875,0c0.431,0,0.861,0,1.291,0
	c0.444,0,0.875,0,1.306,0s0.874,0,1.305,0c0,0.875,0,1.736,0,2.61c-0.874,0-1.735,0-2.61,0c-0.43,0-0.86,0-1.291,0
	C84.817,55.581,84.534,55.581,84.238,55.581z"/>
<path fill="#9B3421" d="M65.133,49.929c0,0.297,0,0.579,0,0.875c-0.86,0-1.735,0-2.609,0c0-0.296,0-0.578,0-0.875
	c0-0.43,0-0.861,0-1.305c0-0.861,0-1.736,0-2.597c0.874,0,1.749,0,2.609,0c0,0.86,0,1.735,0,2.597
	C65.133,49.068,65.133,49.5,65.133,49.929z"/>
<path fill="#211F30" d="M46.458,48.194c-0.282,0-0.578,0-0.86,0c0-0.579,0-1.157,0-1.735c0-0.148,0-0.296,0-0.431
	c0.282,0,0.578,0,0.86,0c0.444,0,0.875,0,1.306,0c0.874,0,1.735,0,2.61,0c0,0.431,0,0.86,0,1.306c0,0.281,0,0.578,0,0.86
	c-0.875,0-1.736,0-2.61,0C47.333,48.194,46.902,48.194,46.458,48.194z"/>
<path fill="#9B3421" d="M57.747,40.808c0.443,0,0.874,0,1.305,0c0.444,0,0.874,0,1.305,0c0,0.874,0,1.734,0,2.609
	c-0.86,0-1.735,0-2.609,0c-0.431,0-0.861,0-1.292,0c-0.296,0-0.579,0-0.875,0c0-0.875,0-1.735,0-2.609c0.296,0,0.579,0,0.875,0
	C56.886,40.808,57.316,40.808,57.747,40.808z"/>
<path fill="#48475B" d="M82.072,49.929c0-0.43,0-0.861,0-1.305c0-0.431,0-0.861,0-1.291c0-0.445,0-0.875,0-1.306
	c0.431,0,0.861,0,1.292,0c0.296,0,0.592,0,0.874,0c0,0.282,0,0.579,0,0.86c0,0.445,0,0.875,0,1.306c0,0.874,0,1.735,0,2.61
	c-0.282,0-0.578,0-0.874,0c-0.431,0-0.861,0-1.292,0C82.072,50.508,82.072,50.226,82.072,49.929z"/>
<path fill="#762014" d="M23.882,21.715c0.874,0,1.735,0,2.61,0c0,0.861,0,1.736,0,2.597c-0.875,0-1.736,0-2.61,0
	C23.882,23.451,23.882,22.577,23.882,21.715z"/>
<path fill="#FFFFFF" d="M84.238,46.028c0-0.874,0-1.735,0-2.61c0.296,0,0.579,0,0.875,0c0.431,0,0.861,0,1.291,0
	c0.875,0,1.736,0,2.61,0c0,0.875,0,1.736,0,2.61c0.875,0,1.736,0,2.61,0c0.431,0,0.861,0,1.292,0c0.296,0,0.578,0,0.874,0
	c0,0.431,0,0.86,0,1.306c0,0.281,0,0.578,0,0.86c0,0.874,0,1.735,0,2.61c-0.874,0-1.735,0-2.61,0c-0.43,0-0.86,0-1.291,0
	c-0.296,0-0.579,0-0.875,0c-0.874,0-1.735,0-2.61,0c-0.43,0-0.86,0-1.291,0c-0.296,0-0.579,0-0.875,0c0-0.875,0-1.736,0-2.61
	c0-0.431,0-0.86,0-1.306C84.238,46.607,84.238,46.31,84.238,46.028z"/>
<path fill="#FFFFFF" d="M16.939,19.105c0-1.305,0-2.61,0-3.916c0-0.282,0-0.579,0-0.861c0.578,0,1.156,0,1.735,0
	c0.147,0,0.296,0,0.431,0c0,0.861,0,1.735,0,2.61c1.601,0,3.188,0,4.776,0c0,0.861,0,1.736,0,2.597c0,0.431,0,0.875,0,1.305
	c0,0.283,0,0.579,0,0.875c-0.431,0-0.861,0-1.306,0c-0.282,0-0.564,0-0.86,0c-0.875,0-1.736,0-2.61,0c0-0.875,0-1.749,0-2.61
	c-0.431,0-0.861,0-1.292,0C17.518,19.105,17.235,19.105,16.939,19.105z"/>
<path fill="#211F30" d="M27.797,38.641c0.431,0,0.861,0,1.305,0c0.283,0,0.579,0,0.861,0c0.431,0,0.875,0,1.306,0
	c0,0.431,0,0.874,0,1.306c0,0.282,0,0.578,0,0.861c-0.431,0-0.875,0-1.306,0s-0.861,0-1.305,0c-0.431,0-0.861,0-1.306,0
	c-0.282,0-0.564,0-0.86,0c0-0.283,0-0.579,0-0.861c0-0.432,0-0.875,0-1.306C26.922,38.641,27.353,38.641,27.797,38.641z"/>
<path fill="#D8E1E4" d="M18.244,21.715c-0.431,0-0.874,0-1.305,0c0-0.875,0-1.749,0-2.61c0.296,0,0.578,0,0.874,0
	c0.431,0,0.861,0,1.292,0c0,0.861,0,1.735,0,2.61C18.822,21.715,18.526,21.715,18.244,21.715z"/>
<path fill="#211F30" d="M55.58,38.641c-8.1,0-16.212,0-24.312,0c0-0.431,0-0.86,0-1.305c0-0.431,0-0.861,0-1.292
	c8.1,0,16.212,0,24.312,0C55.58,36.906,55.58,37.781,55.58,38.641z"/>
<path fill="#9B3421" d="M61.662,43.417c0.282,0,0.578,0,0.861,0c0,0.875,0,1.736,0,2.61c-0.283,0-0.579,0-0.861,0
	c-0.431,0-0.875,0-1.306,0c0-0.874,0-1.735,0-2.61C60.787,43.417,61.231,43.417,61.662,43.417z"/>
<path fill="#211F30" d="M40.821,9.553c0-0.727,0-1.453,0-2.167c0-0.875,0-1.749,0-2.61c0.86,0,1.735,0,2.609,0
	c0,0.282,0,0.579,0,0.861c0,0.444,0,0.875,0,1.305c0,0.296,0,0.579,0,0.875c0,0.579,0,1.157,0,1.736
	C42.557,9.553,41.682,9.553,40.821,9.553z"/>
<path fill="#211F30" d="M16.939,31.255c0-2.314,0-4.629,0-6.943c0.431,0,0.874,0,1.305,0c0.282,0,0.578,0,0.861,0
	c0.874,0,1.735,0,2.61,0c0,0.148,0,0.296,0,0.431c0,0.579,0,1.17,0,1.749c-0.875,0-1.736,0-2.61,0c0,0.861,0,1.736,0,2.597
	c0,0.296,0,0.579,0,0.874c0,0.432,0,0.861,0,1.293c-0.135,0-0.283,0-0.431,0C18.096,31.255,17.518,31.255,16.939,31.255z"/>
<path fill="#D8E1E4" d="M19.105,21.715c0.874,0,1.735,0,2.61,0c0,0.861,0,1.736,0,2.597c-0.875,0-1.736,0-2.61,0
	C19.105,23.451,19.105,22.577,19.105,21.715z"/>
<path fill="#211F30" d="M14.329,38.641c0-2.462,0-4.925,0-7.386c0.874,0,1.749,0,2.61,0c0,1.17,0,2.327,0,3.484
	c0,1.305,0,2.597,0,3.901C16.078,38.641,15.203,38.641,14.329,38.641z"/>
<path fill="#211F30" d="M55.58,43.417c-8.1,0-16.212,0-24.312,0c0-0.875,0-1.735,0-2.609c8.1,0,16.212,0,24.312,0
	C55.58,41.682,55.58,42.542,55.58,43.417z"/>
<path fill="#211F30" d="M83.364,46.028c-0.431,0-0.861,0-1.292,0c0-0.874,0-1.735,0-2.61c0.431,0,0.861,0,1.292,0
	c0.296,0,0.592,0,0.874,0c0,0.875,0,1.736,0,2.61C83.956,46.028,83.66,46.028,83.364,46.028z"/>
<path fill="#211F30" d="M67.3,16.939c-2.314,0-4.629,0-6.943,0c0-0.875,0-1.749,0-2.61c2.314,0,4.629,0,6.943,0
	C67.3,15.19,67.3,16.064,67.3,16.939z"/>
<path fill="#211F30" d="M96.401,46.028c0,0.282,0,0.579,0,0.86c0,0.445,0,0.875,0,1.306c-0.874,0-1.735,0-2.61,0
	c0-0.282,0-0.579,0-0.86c0-0.445,0-0.875,0-1.306C94.666,46.028,95.527,46.028,96.401,46.028z"/>
<path fill="#211F30" d="M82.072,54.275c0-0.43,0-0.874,0-1.305c0-0.282,0-0.578,0-0.875c0-0.43,0-0.86,0-1.291
	c0.431,0,0.861,0,1.292,0c0.296,0,0.592,0,0.874,0c0,0.431,0,0.861,0,1.291c0,0.297,0,0.593,0,0.875c0,0.875,0,1.736,0,2.61
	c-0.282,0-0.578,0-0.874,0c-0.431,0-0.861,0-1.292,0C82.072,55.136,82.072,54.707,82.072,54.275z"/>
<path fill="#762014" d="M19.105,26.492c0.874,0,1.735,0,2.61,0c0,0.861,0,1.736,0,2.597c-0.875,0-1.736,0-2.61,0
	C19.105,28.228,19.105,27.353,19.105,26.492z"/>
<path fill="#211F30" d="M67.3,16.939c1.156,0,2.327,0,3.484,0c1.292,0,2.597,0,3.901,0c0,0.283,0,0.579,0,0.861
	c0,0.431,0,0.875,0,1.305c-0.874,0-1.735,0-2.609,0c0,0.861,0,1.735,0,2.61c-0.283,0-0.579,0-0.861,0c-0.431,0-0.875,0-1.306,0
	c0-0.875,0-1.749,0-2.61c-0.86,0-1.735,0-2.609,0c0-0.296,0-0.579,0-0.875C67.3,17.8,67.3,17.37,67.3,16.939z"/>
<path fill="#211F30" d="M98.998,48.194c0,0.874,0,1.735,0,2.61c-0.861,0-1.735,0-2.597,0c0-0.875,0-1.736,0-2.61
	C97.263,48.194,98.137,48.194,98.998,48.194z"/>
<path fill="#211F30" d="M65.133,50.804c0-0.296,0-0.578,0-0.875c0-0.43,0-0.861,0-1.305c0-0.861,0-1.736,0-2.597
	c0.431,0,0.875,0,1.306,0c0.282,0,0.578,0,0.861,0c0,0.86,0,1.735,0,2.597c0,0.443,0,0.875,0,1.305c0,0.297,0,0.579,0,0.875
	c-0.283,0-0.579,0-0.861,0C66.008,50.804,65.563,50.804,65.133,50.804z"/>
<path fill="#211F30" d="M23.021,46.028c-0.444,0-0.875,0-1.305,0c0-0.874,0-1.735,0-2.61c0.296,0,0.578,0,0.86,0
	c0.444,0,0.875,0,1.306,0c0,0.875,0,1.736,0,2.61C23.599,46.028,23.303,46.028,23.021,46.028z"/>
<path fill="#48475B" d="M59.496,48.194c-0.444,0-0.875,0-1.306,0c-0.874,0-1.735,0-2.61,0c0-0.282,0-0.579,0-0.86
	c0-0.445,0-0.875,0-1.306c0.296,0,0.579,0,0.875,0c0.431,0,0.861,0,1.292,0c0.874,0,1.749,0,2.609,0c0,0.282,0,0.579,0,0.86
	c0,0.445,0,0.875,0,1.306C60.074,48.194,59.778,48.194,59.496,48.194z"/>
<path fill="#211F30" d="M57.747,38.641c0.874,0,1.749,0,2.609,0c0,0.296,0,0.579,0,0.874c0,0.432,0,0.861,0,1.293
	c-0.431,0-0.86,0-1.305,0c-0.431,0-0.861,0-1.305,0c-0.431,0-0.861,0-1.292,0c-0.296,0-0.579,0-0.875,0c0-0.432,0-0.861,0-1.293
	c0-0.295,0-0.578,0-0.874c0.431,0,0.875,0,1.306,0C57.168,38.641,57.464,38.641,57.747,38.641z"/>
<path fill="#D8E1E4" d="M82.072,18.231c0-0.431,0-0.861,0-1.292c0-0.444,0-0.875,0-1.305c0-0.444,0-0.875,0-1.305
	c0.282,0,0.579,0,0.861,0c0.431,0,0.874,0,1.305,0c0,0.43,0,0.861,0,1.305c0,0.578,0,1.157,0,1.735s0,1.157,0,1.736
	c-0.282,0-0.578,0-0.874,0c-0.431,0-0.861,0-1.292,0C82.072,18.81,82.072,18.527,82.072,18.231z"/>
<path fill="#211F30" d="M33.878,46.028c0.431,0,0.861,0,1.292,0c0.444,0,0.875,0,1.305,0c0.297,0,0.579,0,0.875,0
	c0.431,0,0.861,0,1.305,0c0,0.431,0,0.86,0,1.306c0,0.281,0,0.578,0,0.86c-0.874,0-1.749,0-2.609,0c-0.431,0-0.875,0-1.306,0
	c-0.282,0-0.578,0-0.861,0c0-0.282,0-0.579,0-0.86C33.878,46.888,33.878,46.458,33.878,46.028z"/>
<path fill="#211F30" d="M44.723,4.776c-0.431,0-0.861,0-1.292,0c0-0.296,0-0.579,0-0.875c0-0.431,0-0.861,0-1.292
	c0.283,0,0.579,0,0.861,0c0.431,0,0.875,0,1.306,0c0,0.283,0,0.579,0,0.861c0,0.431,0,0.875,0,1.305
	C45.301,4.776,45.019,4.776,44.723,4.776z"/>
<path fill="#211F30" d="M33.878,48.194c0,2.462,0,4.925,0,7.387c-0.874,0-1.749,0-2.609,0c0-0.296,0-0.579,0-0.874
	c0-0.432,0-0.861,0-1.306c0-0.86,0-1.735,0-2.597c0-0.875,0-1.736,0-2.61C32.129,48.194,33.004,48.194,33.878,48.194z"/>
<path fill="#48475B" d="M44.723,57.747c-0.431,0-0.861,0-1.292,0c0-0.282,0-0.579,0-0.86c0-0.445,0-0.875,0-1.306
	c0.579,0,1.157,0,1.736,0c0.134,0,0.282,0,0.431,0c0,0.282,0,0.579,0,0.86c0,0.445,0,0.875,0,1.306
	C45.301,57.747,45.019,57.747,44.723,57.747z"/>
<path fill="#211F30" d="M40.821,14.329c0.86,0,1.735,0,2.609,0c0,0.861,0,1.735,0,2.61c-0.874,0-1.749,0-2.609,0
	C40.821,16.064,40.821,15.19,40.821,14.329z"/>
<path fill="#211F30" d="M16.939,57.747c0-0.431,0-0.86,0-1.306c0-0.281,0-0.578,0-0.86c0-0.296,0-0.579,0-0.874
	c0-0.432,0-0.861,0-1.306c0-0.86,0-1.735,0-2.597c0.296,0,0.578,0,0.874,0c0.431,0,0.861,0,1.292,0c0,0.283,0,0.578,0,0.861
	c0,0.43,0,0.875,0,1.305c0,0.296,0,0.578,0,0.875c0,0.43,0,0.861,0,1.291c0,0.297,0,0.578,0,0.875c0,1.453,0,2.893,0,4.346
	c-1.588,0-3.176,0-4.776,0c0-0.875,0-1.736,0-2.61C15.203,57.747,16.078,57.747,16.939,57.747z"/>
<path fill="#280F0C" d="M77.296,40.808c0,0.874,0,1.734,0,2.609c-0.874,0-1.735,0-2.61,0c0-0.875,0-1.735,0-2.609
	C75.561,40.808,76.422,40.808,77.296,40.808z"/>
<path fill="#762014" d="M66.438,46.028c-0.431,0-0.875,0-1.306,0c0-0.874,0-1.735,0-2.61c0.296,0,0.579,0,0.875,0
	c0.431,0,0.861,0,1.292,0c0,0.875,0,1.736,0,2.61C67.017,46.028,66.721,46.028,66.438,46.028z"/>
<path fill="#280F0C" d="M16.939,24.312c0-0.861,0-1.735,0-2.597c0.431,0,0.874,0,1.305,0c0.282,0,0.578,0,0.861,0
	c0,0.861,0,1.736,0,2.597c-0.283,0-0.579,0-0.861,0C17.813,24.312,17.37,24.312,16.939,24.312z"/>
<path fill="#D8E1E4" d="M96.401,48.194c0,0.874,0,1.735,0,2.61c-0.874,0-1.735,0-2.61,0c0-0.875,0-1.736,0-2.61
	C94.666,48.194,95.527,48.194,96.401,48.194z"/>
<path fill="#280F0C" d="M75.991,50.804c-1.306,0-2.61,0-3.915,0c0-0.296,0-0.578,0-0.875c0-0.43,0-0.861,0-1.305
	c0-0.861,0-1.736,0-2.597c1.735,0,3.484,0,5.22,0c0,0.282,0,0.579,0,0.86c0,0.445,0,0.875,0,1.306c0,0.874,0,1.735,0,2.61
	C76.852,50.804,76.422,50.804,75.991,50.804z"/>
<path fill="#211F30" d="M89.015,55.581c0-0.874,0-1.735,0-2.61c0.296,0,0.579,0,0.875,0c0.431,0,0.861,0,1.291,0
	c0.444,0,0.875,0,1.306,0s0.874,0,1.305,0c0,0.875,0,1.736,0,2.61c-0.431,0-0.874,0-1.305,0s-0.861,0-1.306,0
	c-0.282,0-0.578,0-0.86,0C89.89,55.581,89.445,55.581,89.015,55.581z"/>
<path fill="#211F30" d="M34.309,62.523c-5.072,0-10.131,0-15.203,0c0-0.296,0-0.578,0-0.875c0-0.43,0-0.86,0-1.291
	c0.874,0,1.735,0,2.61,0c0-0.727,0-1.453,0-2.18c0-0.431,0-0.861,0-1.291c0-0.445,0-0.875,0-1.306c0-0.296,0-0.579,0-0.874
	c0-0.432,0-0.861,0-1.306c0-0.431,0-0.86,0-1.306c0-0.43,0-0.86,0-1.291c0.43,0,0.86,0,1.305,0c0.282,0,0.578,0,0.861,0
	c0,0.283,0,0.578,0,0.861c0,0.43,0,0.875,0,1.305c0,0.875,0,1.736,0,2.61c0,0.713,0,1.439,0,2.166c0,0.874,0,1.735,0,2.61
	c0.296,0,0.578,0,0.874,0c1.306,0,2.597,0,3.902,0c5.65,0,11.288,0,16.939,0c1.305,0,2.597,0,3.901,0c1.453,0,2.893,0,4.346,0
	c2.893,0,5.785,0,8.679,0c0-1.157,0-2.328,0-3.471c0-0.593,0-1.172,0-1.75c0-0.282,0-0.578,0-0.861c0-0.43,0-0.874,0-1.305
	c0-0.43,0-0.875,0-1.305c0-0.283,0-0.578,0-0.861c0.874,0,1.749,0,2.609,0c0,0.861,0,1.736,0,2.597c0,0.444,0,0.874,0,1.306
	c0,0.295,0,0.578,0,0.874c0,0.86,0,1.735,0,2.597c0,0.727,0,1.453,0,2.18c0.296,0,0.579,0,0.875,0c0.431,0,0.861,0,1.292,0
	c0-0.875,0-1.736,0-2.61c0-0.727,0-1.453,0-2.166c0-0.874,0-1.735,0-2.61c0-0.43,0-0.875,0-1.305c0-0.283,0-0.578,0-0.861
	c0.874,0,1.749,0,2.609,0c0,0.283,0,0.578,0,0.861c0,0.43,0,0.875,0,1.305c0,0.875,0,1.736,0,2.61c0,0.713,0,1.439,0,2.166
	c0,0.874,0,1.735,0,2.61c3.189,0,6.364,0,9.553,0c0,0.283,0,0.578,0,0.861c0,0.43,0,0.874,0,1.305c-9.983,0-19.966,0-29.963,0
	C44.44,62.523,39.368,62.523,34.309,62.523z"/>
<path fill="#211F30" d="M82.072,24.312c0-0.861,0-1.735,0-2.597c0-0.875,0-1.749,0-2.61c0.431,0,0.861,0,1.292,0
	c0.296,0,0.592,0,0.874,0c0,0.43,0,0.861,0,1.305c0,0.43,0,0.861,0,1.305c0,0.861,0,1.736,0,2.597c-0.282,0-0.578,0-0.874,0
	C82.934,24.312,82.503,24.312,82.072,24.312z"/>
<path fill="#211F30" d="M57.747,43.417c0.874,0,1.749,0,2.609,0c0,0.875,0,1.736,0,2.61c-0.86,0-1.735,0-2.609,0
	c-0.431,0-0.861,0-1.292,0c-0.296,0-0.579,0-0.875,0c0-0.874,0-1.735,0-2.61c0.296,0,0.579,0,0.875,0
	C56.886,43.417,57.316,43.417,57.747,43.417z"/>
<path fill="#9B3421" d="M21.716,50.804c0-0.578,0-1.157,0-1.736c0-0.295,0-0.592,0-0.874c0-0.431,0-0.86,0-1.306
	c0-0.281,0-0.578,0-0.86c0.43,0,0.86,0,1.305,0c0.282,0,0.578,0,0.861,0c0,0.86,0,1.735,0,2.597c0,0.443,0,0.875,0,1.305
	c0,0.297,0,0.579,0,0.875c-0.283,0-0.579,0-0.861,0C22.576,50.804,22.146,50.804,21.716,50.804z"/>
<path fill="#211F30" d="M52.971,48.194c0,0.147,0,0.282,0,0.431c0,2.314,0,4.642,0,6.956c-0.861,0-1.736,0-2.597,0
	c0-1.157,0-2.314,0-3.485c0-1.291,0-2.596,0-3.901C51.234,48.194,52.109,48.194,52.971,48.194z"/>
<path fill="#211F30" d="M84.238,60.357c-1.587,0-3.188,0-4.776,0c0-0.875,0-1.736,0-2.61c0.431,0,0.875,0,1.306,0s0.86,0,1.305,0
	c0.282,0,0.579,0,0.861,0c0.431,0,0.874,0,1.305,0C84.238,58.621,84.238,59.482,84.238,60.357z"/>
<path fill="#9B3421" d="M55.58,40.808c-8.1,0-16.212,0-24.312,0c0-0.283,0-0.579,0-0.861c0-0.432,0-0.875,0-1.306
	c8.1,0,16.212,0,24.312,0c0,0.296,0,0.579,0,0.874C55.58,39.947,55.58,40.376,55.58,40.808z"/>
<path fill="#211F30" d="M77.296,26.492c0.431,0,0.861,0,1.292,0c0.296,0,0.592,0,0.874,0c0-0.444,0-0.875,0-1.305
	c0-0.296,0-0.578,0-0.875c0.875,0,1.736,0,2.61,0c0,2.314,0,4.629,0,6.943c-0.874,0-1.735,0-2.61,0c0-0.432,0-0.861,0-1.293
	c0-0.295,0-0.578,0-0.874c-0.874,0-1.735,0-2.61,0c-0.43,0-0.86,0-1.291,0c-0.296,0-0.579,0-0.875,0c0-0.861,0-1.735,0-2.597
	C75.561,26.492,76.422,26.492,77.296,26.492z"/>
<path fill="#280F0C" d="M52.971,9.553c0,0.861,0,1.735,0,2.61c0,0.431,0,0.861,0,1.292c0,0.296,0,0.579,0,0.875
	c-0.861,0-1.736,0-2.597,0c0-0.296,0-0.579,0-0.875c0-0.431,0-0.861,0-1.292c0-0.875,0-1.749,0-2.61
	C51.234,9.553,52.109,9.553,52.971,9.553z"/>
<path fill="#48475B" d="M62.523,51.666c0,0.43,0,0.875,0,1.305c-0.283,0-0.579,0-0.861,0c-0.431,0-0.875,0-1.306,0
	c0-0.148,0-0.282,0-0.43c0-0.579,0-1.158,0-1.736c0.431,0,0.875,0,1.306,0c0.282,0,0.578,0,0.861,0
	C62.523,51.087,62.523,51.382,62.523,51.666z"/>
<path fill="#762014" d="M52.971,16.939c0-0.875,0-1.749,0-2.61c0.874,0,1.749,0,2.609,0c0,0.861,0,1.735,0,2.61
	C54.72,16.939,53.845,16.939,52.971,16.939z"/>
<path fill="#762014" d="M65.133,40.808c0,0.874,0,1.734,0,2.609c-0.86,0-1.735,0-2.609,0c0-0.875,0-1.735,0-2.609
	C63.397,40.808,64.272,40.808,65.133,40.808z"/>
<path fill="#211F30" d="M4.776,50.804c0,0.283,0,0.578,0,0.861c0,0.43,0,0.875,0,1.305c-0.861,0-1.735,0-2.597,0
	c0-0.282,0-0.578,0-0.875c0-0.43,0-0.86,0-1.291C3.041,50.804,3.915,50.804,4.776,50.804z"/>
<path fill="#FFFFFF" d="M77.296,21.715c0,0.861,0,1.736,0,2.597c-0.874,0-1.735,0-2.61,0c-0.874,0-1.735,0-2.609,0
	c0-0.861,0-1.735,0-2.597c0-0.875,0-1.749,0-2.61c0.874,0,1.735,0,2.609,0c0-0.431,0-0.875,0-1.305c0-0.283,0-0.579,0-0.861
	c0.296,0,0.579,0,0.875,0c0.431,0,0.861,0,1.291,0c0.875,0,1.736,0,2.61,0c0-0.875,0-1.749,0-2.61c0.875,0,1.736,0,2.61,0
	c0,0.43,0,0.861,0,1.305c0,0.43,0,0.861,0,1.305c0,0.431,0,0.861,0,1.292c0,0.296,0,0.579,0,0.875c-0.874,0-1.735,0-2.61,0
	c0,0.861,0,1.735,0,2.61c-0.431,0-0.874,0-1.305,0C77.875,21.715,77.578,21.715,77.296,21.715z"/>
<path fill="#63677A" d="M28.658,52.095c0-0.43,0-0.86,0-1.291c0.874,0,1.735,0,2.61,0c0,0.861,0,1.736,0,2.597
	c0,0.444,0,0.874,0,1.306c0,0.295,0,0.578,0,0.874c0,0.579,0,1.157,0,1.735c0,0.148,0,0.283,0,0.431c0.86,0,1.735,0,2.609,0
	c1.588,0,3.176,0,4.776,0c0.565,0,1.157,0,1.736,0c0.134,0,0.282,0,0.431,0c0-0.431,0-0.86,0-1.306c0-0.281,0-0.578,0-0.86
	c0-1.157,0-2.314,0-3.485c0-1.156,0-2.313,0-3.471c0-0.148,0-0.283,0-0.431c-0.431,0-0.875,0-1.306,0c-0.296,0-0.578,0-0.861,0
	c0-0.282,0-0.579,0-0.86c0-0.445,0-0.875,0-1.306c2.314,0,4.629,0,6.943,0c0,0.135,0,0.282,0,0.431c0,0.578,0,1.156,0,1.735
	c-0.431,0-0.875,0-1.306,0c-0.282,0-0.578,0-0.861,0c0,2.462,0,4.925,0,7.387c0,0.431,0,0.86,0,1.306c0,0.281,0,0.578,0,0.86
	c0.431,0,0.861,0,1.292,0c0.296,0,0.578,0,0.875,0c1.587,0,3.175,0,4.776,0c0.86,0,1.735,0,2.597,0c0-0.431,0-0.86,0-1.306
	c0-0.281,0-0.578,0-0.86c0-2.314,0-4.642,0-6.956c0-0.148,0-0.283,0-0.431c-0.861,0-1.736,0-2.597,0c0-0.282,0-0.579,0-0.86
	c0-0.445,0-0.875,0-1.306c1.735,0,3.471,0,5.206,0c0,0.431,0,0.86,0,1.306c0,0.281,0,0.578,0,0.86c0.875,0,1.736,0,2.61,0
	c0.431,0,0.861,0,1.306,0c0.282,0,0.578,0,0.86,0c0,0.874,0,1.735,0,2.61c0,0.578,0,1.157,0,1.736c0,0.147,0,0.281,0,0.43
	c0.431,0,0.875,0,1.306,0c0.282,0,0.578,0,0.861,0c0,0.431,0,0.875,0,1.305c0,0.283,0,0.579,0,0.861c0,0.578,0,1.157,0,1.75
	c0,1.143,0,2.313,0,3.471c-2.894,0-5.786,0-8.679,0c-1.453,0-2.893,0-4.346,0c-1.305,0-2.597,0-3.901,0c-5.651,0-11.289,0-16.939,0
	c0-0.296,0-0.578,0-0.875c0-0.43,0-0.861,0-1.305c0-0.431,0-0.861,0-1.291c0-0.445,0-0.875,0-1.306c0-0.296,0-0.579,0-0.874
	c0-0.432,0-0.861,0-1.306C28.658,52.97,28.658,52.541,28.658,52.095z"/>
<path fill="#211F30" d="M10.857,40.808c0.444,0,0.875,0,1.306,0c0-0.283,0-0.579,0-0.861c0-0.432,0-0.875,0-1.306
	c0.147,0,0.296,0,0.431,0c0.578,0,1.156,0,1.735,0c0,1.306,0,2.61,0,3.901c0,0.297,0,0.593,0,0.875c0,0.431,0,0.875,0,1.305
	c0,0.283,0,0.579,0,0.875c0,0.431,0,0.861,0,1.291c0,0.297,0,0.579,0,0.875c0,0.431,0,0.861,0,1.305c0,0.283,0,0.579,0,0.861
	c0,0.432,0,0.875,0,1.306c0,0.296,0,0.579,0,0.86c0,0.445,0,0.875,0,1.306c0,0.296,0,0.579,0,0.874c0,0.432,0,0.861,0,1.306
	c0,0.431,0,0.86,0,1.306c0,0.281,0,0.578,0,0.86c-1.588,0-3.176,0-4.776,0c0-0.282,0-0.579,0-0.86c0-0.445,0-0.875,0-1.306
	c0.874,0,1.749,0,2.61,0c0-0.874,0-1.735,0-2.61c0-0.43,0-0.875,0-1.305c0-0.283,0-0.578,0-0.861c0-1.157,0-2.328,0-3.471
	c0-0.593,0-1.171,0-1.736c0-0.296,0-0.592,0-0.875c0-0.43,0-0.874,0-1.305c-0.861,0-1.736,0-2.61,0c0-0.875,0-1.735,0-2.609
	C9.996,40.808,10.427,40.808,10.857,40.808z"/>
<path fill="#BA2226" d="M50.374,52.095c0,1.171,0,2.328,0,3.485c-0.875,0-1.736,0-2.61,0c-0.431,0-0.861,0-1.306,0
	c-0.282,0-0.578,0-0.86,0c0-1.157,0-2.314,0-3.485c0-0.564,0-1.156,0-1.734c0-0.283,0-0.579,0-0.861c0-0.432,0-0.875,0-1.306
	c0.282,0,0.578,0,0.86,0c0.444,0,0.875,0,1.306,0c0.874,0,1.735,0,2.61,0C50.374,49.5,50.374,50.804,50.374,52.095z"/>
<path fill="#211F30" d="M96.401,50.804c0,0.283,0,0.578,0,0.861c0,0.43,0,0.875,0,1.305c-0.874,0-1.735,0-2.61,0
	c0-0.43,0-0.875,0-1.305c0-0.283,0-0.578,0-0.861C94.666,50.804,95.527,50.804,96.401,50.804z"/>
<path fill="#48475B" d="M52.971,55.581c0,0.282,0,0.579,0,0.86c0,0.445,0,0.875,0,1.306c-0.861,0-1.736,0-2.597,0
	c0-0.431,0-0.86,0-1.306c0-0.281,0-0.578,0-0.86C51.234,55.581,52.109,55.581,52.971,55.581z"/>
<path fill="#211F30" d="M14.329,24.312c0-1.735,0-3.471,0-5.207c0.874,0,1.749,0,2.61,0c0,0.861,0,1.735,0,2.61
	c0,0.861,0,1.736,0,2.597C16.078,24.312,15.203,24.312,14.329,24.312z"/>
<path fill="#280F0C" d="M77.296,25.187c0-0.296,0-0.578,0-0.875c0.431,0,0.861,0,1.292,0c0.296,0,0.592,0,0.874,0
	c0,0.296,0,0.579,0,0.875c0,0.431,0,0.861,0,1.305c-0.282,0-0.578,0-0.874,0c-0.431,0-0.861,0-1.292,0
	C77.296,26.048,77.296,25.617,77.296,25.187z"/>
<path fill="#211F30" d="M65.133,43.417c0,0.875,0,1.736,0,2.61c-0.86,0-1.735,0-2.609,0c0-0.874,0-1.735,0-2.61
	C63.397,43.417,64.272,43.417,65.133,43.417z"/>
<path fill="#280F0C" d="M28.658,24.312c0.874,0,1.735,0,2.61,0c0-0.861,0-1.735,0-2.597c1.305,0,2.609,0,3.901,0
	c0.296,0,0.578,0,0.875,0c0,0.861,0,1.736,0,2.597c0.86,0,1.735,0,2.609,0c0,1.305,0,2.61,0,3.916c0,0.283,0,0.579,0,0.861
	c-0.874,0-1.749,0-2.609,0c0,0.431,0,0.874,0,1.306c0,0.282,0,0.578,0,0.861c-1.306,0-2.61,0-3.916,0c-0.282,0-0.578,0-0.86,0
	c0-0.432,0-0.861,0-1.293c0-0.295,0-0.578,0-0.874c-0.431,0-0.875,0-1.306,0s-0.861,0-1.305,0c0-1.305,0-2.597,0-3.902
	C28.658,24.891,28.658,24.608,28.658,24.312z"/>
<path fill="#211F30" d="M77.296,14.329c0.282,0,0.579,0,0.861,0c0.431,0,0.874,0,1.305,0c0,0.861,0,1.735,0,2.61
	c-0.874,0-1.735,0-2.61,0c-0.43,0-0.86,0-1.291,0c-0.296,0-0.579,0-0.875,0c0-0.875,0-1.749,0-2.61c0.431,0,0.875,0,1.306,0
	S76.852,14.329,77.296,14.329z"/>
<path fill="#211F30" d="M49.068,2.61c0.431,0,0.875,0,1.306,0c0,0.431,0,0.861,0,1.292c0,0.296,0,0.579,0,0.875
	c-0.297,0-0.579,0-0.875,0c-0.431,0-0.861,0-1.305,0c0-0.431,0-0.875,0-1.305c0-0.283,0-0.579,0-0.861
	C48.49,2.61,48.772,2.61,49.068,2.61z"/>
<path fill="#762014" d="M23.451,26.492c-0.579,0-1.157,0-1.735,0c0-0.579,0-1.17,0-1.749c0-0.134,0-0.282,0-0.431
	c0.43,0,0.86,0,1.305,0c0.282,0,0.578,0,0.861,0c0,0.296,0,0.579,0,0.875c0,0.431,0,0.861,0,1.305
	C23.747,26.492,23.599,26.492,23.451,26.492z"/>
<path fill="#211F30" d="M82.072,31.255c0.282,0,0.579,0,0.861,0c0.431,0,0.874,0,1.305,0c0,0.147,0,0.295,0,0.443
	c0,2.314,0,4.629,0,6.942c-0.431,0-0.874,0-1.305,0c-0.282,0-0.579,0-0.861,0c0-1.157,0-2.313,0-3.472
	C82.072,33.865,82.072,32.56,82.072,31.255z"/>
<path fill="#48475B" d="M23.882,50.804c0.874,0,1.735,0,2.61,0c0-0.875,0-1.736,0-2.61c0-0.431,0-0.86,0-1.306
	c0-0.281,0-0.578,0-0.86c0.296,0,0.578,0,0.86,0c0.444,0,0.875,0,1.306,0c0.874,0,1.735,0,2.61,0c0-0.874,0-1.735,0-2.61
	c8.1,0,16.212,0,24.312,0c0,0.875,0,1.736,0,2.61c-1.735,0-3.471,0-5.206,0c-0.875,0-1.736,0-2.61,0c-0.431,0-0.861,0-1.306,0
	c-0.282,0-0.578,0-0.86,0c-2.314,0-4.629,0-6.943,0c-0.443,0-0.874,0-1.305,0c-0.296,0-0.578,0-0.875,0c-0.43,0-0.86,0-1.305,0
	c-0.431,0-0.861,0-1.292,0c0,0.431,0,0.86,0,1.306c0,0.281,0,0.578,0,0.86c-0.874,0-1.749,0-2.609,0c0,0.874,0,1.735,0,2.61
	c-0.875,0-1.736,0-2.61,0c0,0.431,0,0.861,0,1.291c0,0.445,0,0.875,0,1.306c0,0.444,0,0.874,0,1.306c0,0.295,0,0.578,0,0.874
	c0,0.431,0,0.86,0,1.306c0,0.43,0,0.86,0,1.291c0,0.443,0,0.875,0,1.305c0,0.297,0,0.579,0,0.875c-1.306,0-2.597,0-3.902,0
	c-0.296,0-0.578,0-0.874,0c0-0.875,0-1.736,0-2.61c0-0.727,0-1.453,0-2.166c0-0.874,0-1.735,0-2.61c0-0.43,0-0.875,0-1.305
	C23.882,51.382,23.882,51.087,23.882,50.804z"/>
<path fill="#211F30" d="M19.105,14.329c0.296,0,0.578,0,0.874,0c0.431,0,0.861,0,1.306,0c0.86,0,1.735,0,2.597,0
	c0,0.861,0,1.735,0,2.61c-1.588,0-3.176,0-4.776,0C19.105,16.064,19.105,15.19,19.105,14.329z"/>
<path fill="#211F30" d="M52.971,9.553c0.874,0,1.749,0,2.609,0c0,0.861,0,1.735,0,2.61c0.296,0,0.579,0,0.875,0
	c1.292,0,2.597,0,3.901,0c0,0.283,0,0.579,0,0.861c0,0.431,0,0.875,0,1.305c-0.86,0-1.735,0-2.609,0c-0.431,0-0.861,0-1.292,0
	c-0.296,0-0.579,0-0.875,0c-0.86,0-1.735,0-2.609,0c0-0.296,0-0.579,0-0.875c0-0.431,0-0.861,0-1.292
	C52.971,11.288,52.971,10.414,52.971,9.553z"/>
<path fill="#D8E1E4" d="M84.238,50.804c0.296,0,0.579,0,0.875,0c0.431,0,0.861,0,1.291,0c0.875,0,1.736,0,2.61,0
	c0.296,0,0.579,0,0.875,0c0.431,0,0.861,0,1.291,0c0.875,0,1.736,0,2.61,0c0,0.283,0,0.578,0,0.861c0,0.43,0,0.875,0,1.305
	c-0.431,0-0.874,0-1.305,0s-0.861,0-1.306,0c-0.43,0-0.86,0-1.291,0c-0.296,0-0.579,0-0.875,0c-0.431,0-0.874,0-1.305,0
	s-0.861,0-1.306,0c-0.43,0-0.86,0-1.291,0c-0.296,0-0.579,0-0.875,0c0-0.282,0-0.578,0-0.875
	C84.238,51.666,84.238,51.235,84.238,50.804z"/>
<path fill="#48475B" d="M43.431,16.939c0-0.875,0-1.749,0-2.61c0.283,0,0.579,0,0.861,0c0.431,0,0.875,0,1.306,0
	c0.86,0,1.735,0,2.597,0c0,0.861,0,1.735,0,2.61c-0.861,0-1.736,0-2.597,0c-0.431,0-0.875,0-1.306,0
	C44.01,16.939,43.714,16.939,43.431,16.939z"/>
<path fill="#211F30" d="M4.776,46.028c0,0.282,0,0.579,0,0.86c0,0.445,0,0.875,0,1.306c-0.861,0-1.735,0-2.597,0
	c0-0.282,0-0.579,0-0.86c0-0.445,0-0.875,0-1.306C3.041,46.028,3.915,46.028,4.776,46.028z"/>
<path fill="#280F0C" d="M9.553,52.97c0.874,0,1.749,0,2.61,0c0,0.875,0,1.736,0,2.61c-0.861,0-1.736,0-2.61,0
	C9.553,54.707,9.553,53.845,9.553,52.97z"/>
<path fill="#211F30" d="M19.105,49.929c0-0.43,0-0.861,0-1.305c0-0.861,0-1.736,0-2.597c0.874,0,1.735,0,2.61,0
	c0,0.282,0,0.579,0,0.86c0,0.445,0,0.875,0,1.306c0,0.282,0,0.579,0,0.874c0,0.579,0,1.158,0,1.736c-0.875,0-1.736,0-2.61,0
	C19.105,50.508,19.105,50.226,19.105,49.929z"/>
<path fill="#FFFFFF" d="M44.292,12.163c-1.157,0-2.314,0-3.471,0c0-0.875,0-1.749,0-2.61c0.86,0,1.735,0,2.609,0
	c0-0.579,0-1.157,0-1.736c0-0.296,0-0.579,0-0.875c0-0.431,0-0.861,0-1.305c0-0.282,0-0.579,0-0.861c0.431,0,0.861,0,1.292,0
	c0.296,0,0.578,0,0.875,0c0.86,0,1.735,0,2.597,0c0,0.431,0,0.861,0,1.305c0,0.282,0,0.578,0,0.861c0,0.579,0,1.157,0,1.736
	c0,1.157,0,2.328,0,3.484C46.902,12.163,45.598,12.163,44.292,12.163z"/>
<path fill="#9B3421" d="M65.133,58.177c0-0.861,0-1.736,0-2.597c0-0.296,0-0.579,0-0.874c0-0.432,0-0.861,0-1.306
	c0-0.86,0-1.735,0-2.597c0.431,0,0.875,0,1.306,0c0.282,0,0.578,0,0.861,0c0,0.283,0,0.578,0,0.861c0,0.43,0,0.875,0,1.305
	c0,0.875,0,1.736,0,2.61c0,0.713,0,1.439,0,2.166c0,0.874,0,1.735,0,2.61c-0.431,0-0.861,0-1.292,0c-0.296,0-0.579,0-0.875,0
	C65.133,59.63,65.133,58.904,65.133,58.177z"/>
<path fill="#762014" d="M69.909,47.333c0,0.43,0,0.86,0,1.291c0,0.296,0,0.578,0,0.875c0,0.43,0,0.861,0,1.305
	c-0.86,0-1.735,0-2.609,0c0-0.296,0-0.578,0-0.875c0-0.43,0-0.861,0-1.305c0-0.861,0-1.736,0-2.597c0.874,0,1.749,0,2.609,0
	C69.909,46.458,69.909,46.888,69.909,47.333z"/>
<path fill="#48475B" d="M72.076,21.715c0,0.861,0,1.736,0,2.597c-0.283,0-0.579,0-0.861,0c-0.431,0-0.875,0-1.306,0
	c0-0.861,0-1.735,0-2.597c0.431,0,0.875,0,1.306,0C71.497,21.715,71.793,21.715,72.076,21.715z"/>
<path fill="#D8E1E4" d="M77.296,25.187c0,0.431,0,0.861,0,1.305c-0.874,0-1.735,0-2.61,0c0-0.444,0-0.875,0-1.305
	c0-0.296,0-0.578,0-0.875c0.875,0,1.736,0,2.61,0C77.296,24.608,77.296,24.891,77.296,25.187z"/>
<path fill="#762014" d="M61.231,38.641c0.431,0,0.861,0,1.292,0c0,0.296,0,0.579,0,0.874c0,0.432,0,0.861,0,1.293
	c-0.283,0-0.579,0-0.861,0c-0.431,0-0.875,0-1.306,0c0-0.432,0-0.861,0-1.293c0-0.295,0-0.578,0-0.874
	C60.652,38.641,60.936,38.641,61.231,38.641z"/>
<path fill="#211F30" d="M23.882,16.939c1.157,0,2.313,0,3.471,0c1.306,0,2.61,0,3.916,0c0,0.283,0,0.579,0,0.861
	c0,0.431,0,0.875,0,1.305c-1.588,0-3.189,0-4.776,0c0,0.861,0,1.735,0,2.61c-0.875,0-1.736,0-2.61,0c0-0.296,0-0.592,0-0.875
	c0-0.43,0-0.875,0-1.305C23.882,18.675,23.882,17.8,23.882,16.939z"/>
<path fill="#762014" d="M72.076,29.088c0-0.861,0-1.735,0-2.597c0.874,0,1.735,0,2.609,0c0,0.861,0,1.736,0,2.597
	C73.812,29.088,72.95,29.088,72.076,29.088z"/>
<path fill="#9B3421" d="M23.882,43.417c0.874,0,1.735,0,2.61,0c0,0.875,0,1.736,0,2.61c-0.875,0-1.736,0-2.61,0
	C23.882,45.154,23.882,44.292,23.882,43.417z"/>
<path fill="#762014" d="M14.329,55.581c0.874,0,1.749,0,2.61,0c0,0.282,0,0.579,0,0.86c0,0.445,0,0.875,0,1.306
	c-0.861,0-1.736,0-2.61,0c0-0.282,0-0.579,0-0.86C14.329,56.441,14.329,56.011,14.329,55.581z"/>
<path fill="#211F30" d="M61.662,40.808c0.282,0,0.578,0,0.861,0c0,0.874,0,1.734,0,2.609c-0.283,0-0.579,0-0.861,0
	c-0.431,0-0.875,0-1.306,0c0-0.875,0-1.735,0-2.609C60.787,40.808,61.231,40.808,61.662,40.808z"/>
<path fill="#211F30" d="M50.374,57.747c-1.602,0-3.189,0-4.776,0c0-0.431,0-0.86,0-1.306c0-0.281,0-0.578,0-0.86
	c0.282,0,0.578,0,0.86,0c0.444,0,0.875,0,1.306,0c0.874,0,1.735,0,2.61,0c0,0.282,0,0.579,0,0.86
	C50.374,56.886,50.374,57.316,50.374,57.747z"/>
<path fill="#48475B" d="M72.076,26.492c0-0.444,0-0.875,0-1.305c0-0.296,0-0.578,0-0.875c0.874,0,1.735,0,2.609,0
	c0,0.296,0,0.579,0,0.875c0,0.431,0,0.861,0,1.305C73.812,26.492,72.95,26.492,72.076,26.492z"/>
<path fill="#211F30" d="M89.015,57.747c-1.587,0-3.188,0-4.776,0c0-0.282,0-0.579,0-0.86c0-0.445,0-0.875,0-1.306
	c0.296,0,0.579,0,0.875,0c0.431,0,0.861,0,1.291,0c0.875,0,1.736,0,2.61,0c0,0.282,0,0.579,0,0.86
	C89.015,56.886,89.015,57.316,89.015,57.747z"/>
<path fill="#211F30" d="M82.072,14.329c-0.874,0-1.735,0-2.61,0c0-0.296,0-0.579,0-0.875c0-0.431,0-0.861,0-1.292
	c0.148,0,0.296,0,0.431,0c1.157,0,2.314,0,3.472,0c1.17,0,2.327,0,3.484,0c0,2.314,0,4.628,0,6.943c-0.874,0-1.735,0-2.61,0
	c0-0.579,0-1.157,0-1.736s0-1.157,0-1.735c0-0.444,0-0.875,0-1.305c-0.431,0-0.874,0-1.305,0
	C82.651,14.329,82.354,14.329,82.072,14.329z"/>
<path fill="#211F30" d="M12.163,12.163c2.313,0,4.628,0,6.942,0c0,0.283,0,0.579,0,0.861c0,0.431,0,0.875,0,1.305
	c-0.135,0-0.283,0-0.431,0c-0.579,0-1.157,0-1.735,0c-0.861,0-1.736,0-2.61,0c0,0.43,0,0.861,0,1.305c0,0.43,0,0.861,0,1.305
	c0,0.431,0,0.861,0,1.292c0,0.296,0,0.579,0,0.875c-0.283,0-0.579,0-0.861,0c-0.431,0-0.874,0-1.305,0
	C12.163,16.791,12.163,14.477,12.163,12.163z"/>
<path fill="#211F30" d="M23.882,40.808c0.874,0,1.735,0,2.61,0c0,0.874,0,1.734,0,2.609c-0.875,0-1.736,0-2.61,0
	C23.882,42.542,23.882,41.682,23.882,40.808z"/>
<path fill="#762014" d="M69.909,50.804c0.431,0,0.875,0,1.306,0c0.282,0,0.578,0,0.861,0c0,0.283,0,0.578,0,0.861
	c0,0.43,0,0.875,0,1.305c0,0.875,0,1.736,0,2.61c1.735,0,3.484,0,5.22,0c0-0.444,0-0.874,0-1.306c0-0.43,0-0.874,0-1.305
	c0.282,0,0.579,0,0.861,0c0.431,0,0.874,0,1.305,0c0-0.282,0-0.578,0-0.875c0-0.281,0-0.564,0-0.86c0-0.431,0-0.874,0-1.306
	c0-0.282,0-0.578,0-0.861c0-0.443,0-0.874,0-1.305c0-0.296,0-0.578,0-0.875c0-0.43,0-0.86,0-1.291c0-0.296,0-0.592,0-0.875
	c0-0.43,0-0.874,0-1.305c0.875,0,1.736,0,2.61,0c0,0.875,0,1.736,0,2.61c0,0.431,0,0.86,0,1.306c0,0.43,0,0.86,0,1.291
	c0,0.443,0,0.875,0,1.305c0,0.297,0,0.579,0,0.875c0,0.431,0,0.861,0,1.291c0,0.297,0,0.593,0,0.875c0,0.431,0,0.875,0,1.305
	c0,0.432,0,0.861,0,1.306c0.431,0,0.861,0,1.292,0c0.296,0,0.592,0,0.874,0c0,0.431,0,0.86,0,1.306c0,0.281,0,0.578,0,0.86
	c-0.431,0-0.874,0-1.305,0c-0.282,0-0.579,0-0.861,0c-0.444,0-0.874,0-1.305,0s-0.875,0-1.306,0c0,0.874,0,1.735,0,2.61
	c-3.188,0-6.363,0-9.553,0c0-0.875,0-1.736,0-2.61c0-0.727,0-1.453,0-2.166c0-0.874,0-1.735,0-2.61c0-0.43,0-0.875,0-1.305
	C69.909,51.382,69.909,51.087,69.909,50.804z"/>
</svg>
