<?xml version="1.0" encoding="utf-8"?>
<!-- Generator: Adobe Illustrator 15.0.0, SVG Export Plug-In  -->
<!DOCTYPE svg PUBLIC "-//W3C//DTD SVG 1.1//EN" "http://www.w3.org/Graphics/SVG/1.1/DTD/svg11.dtd" [
	<!ENTITY ns_flows "http://ns.adobe.com/Flows/1.0/">
]>
<svg version="1.1"
	 xmlns="http://www.w3.org/2000/svg" xmlns:xlink="http://www.w3.org/1999/xlink" xmlns:a="http://ns.adobe.com/AdobeSVGViewerExtensions/3.0/"
	 x="0px" y="0px" width="95px" height="140px" viewBox="-7.27 -29.04 95 140" enable-background="new -7.27 -29.04 95 140"
	 xml:space="preserve">
<defs>
</defs>
<path fill="#211F30" d="M65.589,85.59c0,1.87,0,3.74,0,5.61c-0.93,0-1.869,0-2.799,0c0-0.94,0-1.87,0-2.811c0-0.229,0-0.47,0-0.7
	c0-0.229,0-0.47,0-0.699c0-0.24,0-0.471,0-0.7c0-0.24,0-0.471,0-0.7c0-0.94,0-1.88,0-2.81c0-0.94,0-1.881,0-2.811
	c0.93,0,1.869,0,2.799,0c0,0.93,0,1.87,0,2.811C65.589,83.71,65.589,84.649,65.589,85.59z"/>
<path fill="#211F30" d="M62.791,74.35c0,0.94,0,1.87,0,2.811c0,0.939,0,1.87,0,2.81c-0.94,0-1.881,0-2.811,0c0-0.47,0-0.939,0-1.41
	c0-0.46,0-0.93,0-1.399c0-0.94,0-1.87,0-2.811C60.91,74.35,61.85,74.35,62.791,74.35z"/>
<path fill="#211F30" d="M59.98,91.5c0-0.101,0-0.2,0-0.3c0.93,0,1.87,0,2.811,0c0,0.199,0,0.399,0,0.6c0,0.24,0,0.47,0,0.7
	c0,0.2,0,0.41,0,0.609c0,0.23,0,0.46,0,0.7c0,0.9,0,1.8,0,2.7c0,0.11,0,0.21,0,0.31c-0.94,0-1.881,0-2.811,0c0-0.1,0-0.199,0-0.31
	c0-0.1,0-0.2,0-0.3c0-0.101,0-0.2,0-0.3c0-0.13,0-0.261,0-0.4c0-0.1,0-0.2,0-0.3c0-0.101,0-0.2,0-0.3c0-0.101,0-0.2,0-0.301
	c0-0.13,0-0.27,0-0.399C59.98,93.3,59.98,92.399,59.98,91.5z"/>
<path fill="#211F30" d="M59.98,98.22c0,0.47,0,0.94,0,1.4c-0.939,0-1.87,0-2.811,0c0-0.931,0-1.87,0-2.801c0.94,0,1.871,0,2.811,0
	C59.98,97.28,59.98,97.75,59.98,98.22z"/>
<path fill="#211F30" d="M59.98,71.54c0,0.24,0,0.47,0,0.71c0,0.229,0,0.46,0,0.7c0,0.47,0,0.93,0,1.399c-0.939,0-1.87,0-2.811,0
	c0-0.93,0-1.87,0-2.81C58.11,71.54,59.041,71.54,59.98,71.54z"/>
<path fill="#858D99" d="M59.98,77.16c0,0.47,0,0.939,0,1.399c0,0.471,0,0.94,0,1.41c-0.939,0-1.87,0-2.811,0c0-0.47,0-0.939,0-1.41
	c0-0.1,0-0.2,0-0.3c0-0.13,0-0.26,0-0.4c0-0.1,0-0.199,0-0.3c0-0.13,0-0.27,0-0.399c0-0.101,0-0.2,0-0.301c0-0.13,0-0.27,0-0.399
	c0-0.101,0-0.2,0-0.3c0-0.141,0-0.271,0-0.4c0-0.47,0-0.94,0-1.41c0.94,0,1.871,0,2.811,0C59.98,75.29,59.98,76.22,59.98,77.16z"/>
<path fill="#858D99" d="M57.169,71.54c0,0.939,0,1.88,0,2.81c-0.84,0-1.67,0-2.51,0c-0.1,0-0.199,0-0.3,0c0-0.93,0-1.87,0-2.81
	C55.3,71.54,56.23,71.54,57.169,71.54z"/>
<path fill="#858D99" d="M54.36,77.16c0,0.939,0,1.87,0,2.81c-0.93,0-1.87,0-2.81,0c0-0.939,0-1.87,0-2.81
	C52.49,77.16,53.43,77.16,54.36,77.16z"/>
<path fill="#858D99" d="M52.96,82.78c0.47,0,0.93,0,1.399,0s0.94,0,1.41,0c0.46,0,0.931,0,1.399,0c0,0.46,0,0.93,0,1.399
	c0,0.101,0,0.2,0,0.3c0,0.13,0,0.271,0,0.4c0,0.1,0,0.2,0,0.3c0,0.14,0,0.271,0,0.41c0,0.09,0,0.19,0,0.29c0,0.14,0,0.27,0,0.41
	c0,0.09,0,0.2,0,0.3c0,0.13,0,0.26,0,0.4c0,0.47,0,0.93,0,1.399c-0.939,0-1.869,0-2.81,0c-0.93,0-1.87,0-2.81,0c0-0.1,0-0.2,0-0.3
	c0-1.67,0-3.34,0-5.01c0-0.101,0-0.2,0-0.3c0.14,0,0.27,0,0.41,0c0.1,0,0.199,0,0.299,0c0.101,0,0.201,0,0.301,0
	C52.69,82.78,52.83,82.78,52.96,82.78z"/>
<path fill="#211F30" d="M54.16,68.74c0.9,0,1.811,0,2.711,0c0.1,0,0.199,0,0.299,0c0,0.029,0,0.06,0,0.1c0,0.03,0,0.06,0,0.1
	c0,0.061,0,0.13,0,0.2c0,0.101,0,0.2,0,0.3c0,0.101,0,0.2,0,0.301c0,0.13,0,0.27,0,0.399c0,0.47,0,0.94,0,1.4
	c-0.939,0-1.869,0-2.81,0c-0.83,0-1.67,0-2.5,0c-0.11,0-0.2,0-0.31,0c0-0.13,0-0.26,0-0.4c0-0.1,0-0.2,0-0.3s0-0.2,0-0.3
	c0-0.13,0-0.271,0-0.4c0-0.47,0-0.939,0-1.399c0.439,0,0.869,0,1.31,0C53.291,68.74,53.73,68.74,54.16,68.74z"/>
<path fill="#858D99" d="M51.55,106.64c0,0.5,0,1.01,0,1.51c-0.93,0-1.87,0-2.801,0c0-0.199,0-0.399,0-0.6c0-0.24,0-0.47,0-0.71
	c0-0.2,0-0.4,0-0.6c0-0.101,0-0.2,0-0.301c0-0.13,0-0.27,0-0.399c0-0.101,0-0.2,0-0.3c0.931,0,1.871,0,2.801,0
	C51.55,105.71,51.55,106.18,51.55,106.64z"/>
<path fill="#858D99" d="M45.94,82.78c0.931,0,1.87,0,2.81,0c0,0.1,0,0.199,0,0.3c0,0.83,0,1.67,0,2.51c-0.939,0-1.879,0-2.81,0
	C45.94,84.649,45.94,83.71,45.94,82.78z"/>
<path fill="#211F30" d="M45.94,108.25c0-0.03,0-0.07,0-0.101c0.931,0,1.87,0,2.81,0c0.931,0,1.871,0,2.801,0c0,0.471,0,0.931,0,1.4
	s0,0.94,0,1.41c-0.93,0-1.87,0-2.801,0c-0.939,0-1.879,0-2.81,0c0-0.101,0-0.2,0-0.3c0-0.11,0-0.21,0-0.311c0-0.229,0-0.46,0-0.7
	c0-0.229,0-0.47,0-0.699c0-0.101,0-0.2,0-0.301C45.94,108.51,45.94,108.38,45.94,108.25z"/>
<path fill="#63677A" d="M47.339,102.43c0.471,0,0.94,0,1.41,0c0.931,0,1.871,0,2.801,0c0,0.47,0,0.94,0,1.41c0,0.46,0,0.93,0,1.4
	c-0.93,0-1.87,0-2.801,0c0,0.1,0,0.199,0,0.3c0,0.13,0,0.27,0,0.399c0,0.101,0,0.2,0,0.301c0,0.199,0,0.399,0,0.6
	c0,0.24,0,0.47,0,0.71c0,0.2,0,0.4,0,0.6c-0.939,0-1.879,0-2.81,0c0-0.899,0-1.81,0-2.71c0-0.899,0-1.8,0-2.71c0-0.1,0-0.199,0-0.3
	c0.13,0,0.271,0,0.399,0c0.101,0,0.201,0,0.301,0s0.199,0,0.3,0C47.08,102.43,47.21,102.43,47.339,102.43z"/>
<path fill="#63677A" d="M43.13,85.59c-0.93,0-1.871,0-2.811,0c0-0.94,0-1.88,0-2.81c1.881,0,3.75,0,5.62,0c0,0.93,0,1.869,0,2.81
	C45,85.59,44.07,85.59,43.13,85.59z"/>
<path fill="#858D99" d="M40.32,91.2c0.939,0,1.881,0,2.811,0c0,0.939,0,1.869,0,2.81c-0.93,0-1.871,0-2.811,0
	C40.32,93.069,40.32,92.14,40.32,91.2z"/>
<path d="M40.62,79.97c0.84,0,1.68,0,2.51,0c0.84,0,1.67,0,2.51,0c0.1,0,0.199,0,0.3,0c0,0.93,0,1.87,0,2.811c-1.87,0-3.739,0-5.62,0
	c0-0.94,0-1.881,0-2.811C40.42,79.97,40.52,79.97,40.62,79.97z"/>
<path fill="#63677A" d="M40.32,77.16c0.939,0,1.881,0,2.811,0c0.939,0,1.869,0,2.81,0c0.931,0,1.87,0,2.81,0c0,0.87,0,1.739,0,2.609
	c0,0.2,0,0.4,0,0.601c0,0.229,0,0.47,0,0.699c0,0.23,0,0.471,0,0.7c0,0.101,0,0.2,0,0.3c0,0.07,0,0.141,0,0.2c0,0.07,0,0.141,0,0.21
	c0,0.09,0,0.19,0,0.301c-0.939,0-1.879,0-2.81,0c0-0.94,0-1.881,0-2.811c-0.101,0-0.2,0-0.3,0c-0.84,0-1.67,0-2.51,0
	c-0.83,0-1.67,0-2.51,0c-0.1,0-0.2,0-0.3,0c0,0.93,0,1.87,0,2.811c-0.93,0-1.87,0-2.8,0c0-0.94,0-1.881,0-2.811
	c0-0.939,0-1.87,0-2.81C38.45,77.16,39.39,77.16,40.32,77.16z"/>
<path fill="#858D99" d="M40.32,82.78c0,0.93,0,1.869,0,2.81c-0.93,0-1.87,0-2.8,0c0-0.94,0-1.88,0-2.81
	C38.45,82.78,39.39,82.78,40.32,82.78z"/>
<path fill="#63677A" d="M36.11,91.2c-1.4,0-2.81,0-4.21,0c0-0.94,0-1.87,0-2.811c0.93,0,1.87,0,2.81,0c0.47,0,0.93,0,1.4,0
	c1.41,0,2.81,0,4.21,0c0,0.94,0,1.87,0,2.811c-0.1,0-0.2,0-0.3,0s-0.2,0-0.3,0c-0.07,0-0.13,0-0.2,0c-0.1,0-0.2,0-0.3,0
	c-0.07,0-0.13,0-0.2,0c-0.1,0-0.2,0-0.3,0c-0.07,0-0.14,0-0.2,0c-0.1,0-0.2,0-0.3,0C37.52,91.2,36.81,91.2,36.11,91.2z"/>
<path fill="#858D99" d="M34.71,82.78c0,0.93,0,1.869,0,2.81c-0.94,0-1.88,0-2.81,0c0-0.94,0-1.88,0-2.81
	C32.83,82.78,33.77,82.78,34.71,82.78z"/>
<path fill="#858D99" d="M29.09,106.74c0-0.5,0-1,0-1.5c0.94,0,1.87,0,2.81,0c0,0.47,0,0.939,0,1.399c0,0.5,0,1.01,0,1.51
	c-0.94,0-1.87,0-2.81,0C29.09,107.68,29.09,107.21,29.09,106.74z"/>
<path fill="#63677A" d="M34.71,106.64c0,0.5,0,1.01,0,1.51c-0.94,0-1.88,0-2.81,0c0-0.5,0-1.01,0-1.51c0-0.46,0-0.93,0-1.399
	c-0.94,0-1.87,0-2.81,0c0-0.841,0-1.671,0-2.511c0-0.1,0-0.199,0-0.3c1.87,0,3.74,0,5.62,0c0,0.94,0,1.87,0,2.811
	C34.71,105.71,34.71,106.18,34.71,106.64z"/>
<path fill="#858D99" d="M31.9,91.2c0,0.939,0,1.869,0,2.81c-0.94,0-1.87,0-2.81,0c0-0.94,0-1.87,0-2.81
	C30.03,91.2,30.96,91.2,31.9,91.2z"/>
<path fill="#211F30" d="M34.71,110.96c-1.88,0-3.75,0-5.62,0c0-0.47,0-0.94,0-1.41s0-0.93,0-1.4c0.94,0,1.87,0,2.81,0
	c0.93,0,1.87,0,2.81,0c0,0.23,0,0.471,0,0.7c0,0.23,0,0.47,0,0.7C34.71,110.02,34.71,110.49,34.71,110.96z"/>
<path fill="#FFFFFF" d="M35.41,71.54c-0.7,0-1.41,0-2.11,0c-0.7,0-1.4,0-2.1,0c-0.7,0-1.41,0-2.11,0c0-0.9,0-1.8,0-2.7
	c0-0.04,0-0.07,0-0.1c1.41,0,2.81,0,4.21,0c1.41,0,2.81,0,4.22,0c0,0.46,0,0.93,0,1.399c0,0.13,0,0.271,0,0.4c0,0.1,0,0.2,0,0.3
	c0,0.13,0,0.27,0,0.4c0,0.1,0,0.199,0,0.3C36.81,71.54,36.11,71.54,35.41,71.54z"/>
<path fill="#211F30" d="M35.21,65.93c0.1,0,0.2,0,0.3,0c0.13,0,0.27,0,0.4,0c0.47,0,0.94,0,1.4,0c0.47,0,0.94,0,1.41,0
	c0.47,0,0.93,0,1.4,0c0.1,0,0.2,0,0.3,0s0.2,0,0.3,0c0.1,0,0.21,0,0.31,0c0.13,0,0.261,0,0.4,0c0.46,0,0.93,0,1.399,0
	c0.471,0,0.94,0,1.4,0c0.471,0,0.939,0,1.41,0c0.47,0,0.93,0,1.4,0c0.469,0,0.939,0,1.41,0c0.459,0,0.93,0,1.399,0s0.94,0,1.399,0
	c0.101,0,0.201,0,0.301,0c0,0.13,0,0.271,0,0.4c0,0.1,0,0.2,0,0.3s0,0.2,0,0.3c0,0.13,0,0.271,0,0.4c0,0.47,0,0.939,0,1.41
	c-0.03,0-0.061,0-0.1,0c-0.301,0-0.601,0-0.9,0c-0.1,0-0.2,0-0.301,0c-0.069,0-0.129,0-0.199,0c-0.131,0-0.271,0-0.4,0
	c-0.3,0-0.6,0-0.9,0c-0.27,0-0.539,0-0.81,0c-0.601,0-1.2,0-1.8,0c-0.301,0-0.6,0-0.9,0c-0.27,0-0.539,0-0.81,0
	c-2.3,0-4.61,0-6.91,0c-1.41,0-2.81,0-4.22,0c-1.4,0-2.8,0-4.21,0c0-0.471,0-0.94,0-1.41c0-0.23,0-0.471,0-0.7c0-0.24,0-0.47,0-0.7
	c0.1,0,0.2,0,0.3,0c0.1,0,0.2,0,0.3,0s0.2,0,0.3,0c0.14,0,0.27,0,0.41,0c0.46,0,0.93,0,1.4,0c0.47,0,0.94,0,1.4,0
	c0.47,0,0.94,0,1.41,0c0.1,0,0.2,0,0.3,0C35.01,65.93,35.11,65.93,35.21,65.93z"/>
<path fill="#63677A" d="M26.28,82.78c1.88,0,3.75,0,5.62,0c0,0.93,0,1.869,0,2.81c-0.47,0-0.94,0-1.4,0c-0.47,0-0.94,0-1.41,0
	c-0.93,0-1.87,0-2.81,0C26.28,84.649,26.28,83.71,26.28,82.78z"/>
<path fill="#211F30" d="M29.09,71.54c-1.87,0-3.74,0-5.61,0c0-0.101,0-0.2,0-0.3c0-0.131,0-0.271,0-0.4c0-0.1,0-0.2,0-0.3
	c0-0.13,0-0.271,0-0.4c0-0.47,0-0.939,0-1.399c1.87,0,3.74,0,5.61,0c0,0.029,0,0.06,0,0.1C29.09,69.74,29.09,70.64,29.09,71.54z"/>
<path d="M26.58,79.97c0.84,0,1.68,0,2.51,0c0.84,0,1.67,0,2.51,0c0.1,0,0.2,0,0.3,0c0,0.93,0,1.87,0,2.811c-1.87,0-3.74,0-5.62,0
	c0-0.94,0-1.881,0-2.811C26.38,79.97,26.48,79.97,26.58,79.97z"/>
<path fill="#FFFFFF" d="M23.48,71.54c1.87,0,3.74,0,5.61,0c0,0.24,0,0.47,0,0.71c0,0.229,0,0.46,0,0.7c0,0.47,0,0.93,0,1.399
	c-0.47,0-0.93,0-1.4,0c-0.47,0-0.94,0-1.41,0c-0.93,0-1.87,0-2.8,0C23.48,73.42,23.48,72.479,23.48,71.54z"/>
<path fill="#63677A" d="M28.89,77.16c0.9,0,1.8,0,2.71,0c0.93,0,1.87,0,2.81,0c0.1,0,0.2,0,0.3,0c0,0.029,0,0.069,0,0.1
	s0,0.07,0,0.1c0,0.07,0,0.131,0,0.2c0,0.101,0,0.2,0,0.3c0,0.24,0,0.471,0,0.7c0,0.471,0,0.94,0,1.41c0,0.93,0,1.87,0,2.811
	c-0.94,0-1.88,0-2.81,0c0-0.94,0-1.881,0-2.811c-0.1,0-0.2,0-0.3,0c-0.84,0-1.67,0-2.51,0c-0.83,0-1.67,0-2.51,0c-0.1,0-0.2,0-0.3,0
	c0,0.93,0,1.87,0,2.811c-0.93,0-1.87,0-2.8,0c0-0.94,0-1.881,0-2.811c0-0.939,0-1.87,0-2.81c0.9,0,1.8,0,2.7,0
	C27.09,77.16,27.99,77.16,28.89,77.16z"/>
<path fill="#AFBBC3" d="M51.55,79.97c0.939,0,1.88,0,2.81,0c0-0.939,0-1.87,0-2.81c-0.93,0-1.87,0-2.81,0
	C51.55,78.1,51.55,79.03,51.55,79.97z M27.69,74.35c0.47,0,0.93,0,1.4,0c0-0.47,0-0.93,0-1.399c0-0.24,0-0.471,0-0.7
	c0-0.24,0-0.47,0-0.71c0.7,0,1.41,0,2.11,0c0.7,0,1.4,0,2.1,0c0.7,0,1.41,0,2.11,0c0.7,0,1.4,0,2.11,0c0-0.101,0-0.2,0-0.3
	c0-0.131,0-0.271,0-0.4c0-0.1,0-0.2,0-0.3c0-0.13,0-0.271,0-0.4c0-0.47,0-0.939,0-1.399c2.3,0,4.61,0,6.91,0c0.271,0,0.54,0,0.81,0
	c0.301,0,0.6,0,0.9,0c0.6,0,1.199,0,1.8,0c0.271,0,0.54,0,0.81,0c0.301,0,0.601,0,0.9,0c0.13,0,0.27,0,0.4,0c0.07,0,0.13,0,0.199,0
	c0.101,0,0.201,0,0.301,0c0.3,0,0.6,0,0.9,0c0.039,0,0.069,0,0.1,0c0,0.46,0,0.93,0,1.399c0,0.13,0,0.271,0,0.4c0,0.1,0,0.2,0,0.3
	s0,0.2,0,0.3c0,0.141,0,0.271,0,0.4c0.109,0,0.199,0,0.31,0c0.83,0,1.67,0,2.5,0c0,0.939,0,1.88,0,2.81c0.101,0,0.2,0,0.3,0
	c0.84,0,1.67,0,2.51,0c0,0.47,0,0.94,0,1.41c0,0.13,0,0.26,0,0.4c0,0.1,0,0.199,0,0.3c0,0.13,0,0.27,0,0.399c0,0.101,0,0.2,0,0.301
	c0,0.13,0,0.27,0,0.399c0,0.101,0,0.2,0,0.3c0,0.141,0,0.271,0,0.4c0,0.1,0,0.2,0,0.3c0,0.471,0,0.94,0,1.41c0.94,0,1.871,0,2.811,0
	c0,1.4,0,2.811,0,4.21c0,1.41,0,2.811,0,4.21c-0.939,0-1.87,0-2.811,0c0-0.47,0-0.93,0-1.399c0-0.141,0-0.271,0-0.4
	c0-0.1,0-0.21,0-0.3c0-0.141,0-0.271,0-0.41c0-0.1,0-0.2,0-0.29c0-0.14,0-0.271,0-0.41c0-0.1,0-0.2,0-0.3c0-0.13,0-0.271,0-0.4
	c0-0.1,0-0.199,0-0.3c0-0.47,0-0.939,0-1.399c-0.469,0-0.939,0-1.399,0c-0.47,0-0.94,0-1.41,0s-0.93,0-1.399,0
	c-0.131,0-0.271,0-0.4,0c-0.1,0-0.2,0-0.301,0c-0.1,0-0.199,0-0.299,0c-0.141,0-0.271,0-0.41,0c0,0.1,0,0.199,0,0.3H48.75
	c0-0.101,0-0.2,0-0.3c0-0.11,0-0.211,0-0.301c0-0.069,0-0.14,0-0.21c0-0.06,0-0.13,0-0.2c0-0.1,0-0.199,0-0.3c0-0.229,0-0.47,0-0.7
	c0-0.229,0-0.47,0-0.699c0-0.2,0-0.4,0-0.601c0-0.87,0-1.739,0-2.609c-0.939,0-1.879,0-2.81,0c-0.94,0-1.87,0-2.81,0
	c-0.93,0-1.871,0-2.811,0c-0.93,0-1.87,0-2.8,0c0,0.939,0,1.87,0,2.81c0,0.93,0,1.87,0,2.811c0,0.93,0,1.869,0,2.81
	c0.93,0,1.87,0,2.8,0v2.8c-1.4,0-2.8,0-4.21,0c-0.47,0-0.93,0-1.4,0v-2.8c0-0.94,0-1.88,0-2.81c0-0.94,0-1.881,0-2.811
	c0-0.47,0-0.939,0-1.41c0-0.229,0-0.46,0-0.7c0-0.1,0-0.199,0-0.3c0-0.069,0-0.13,0-0.2c0-0.029,0-0.069,0-0.1s0-0.07,0-0.1
	c-0.1,0-0.2,0-0.3,0c-0.94,0-1.88,0-2.81,0c-0.91,0-1.81,0-2.71,0c-0.9,0-1.8,0-2.71,0c-0.9,0-1.8,0-2.7,0c0-0.94,0-1.87,0-2.811
	c0.93,0,1.87,0,2.8,0C26.75,74.35,27.22,74.35,27.69,74.35z"/>
<path fill="#211F30" d="M27.69,99.62c1.4,0,2.81,0,4.21,0s2.81,0,4.21,0c1.41,0,2.81,0,4.21,0c1.41,0,2.811,0,4.21,0
	c1.41,0,2.81,0,4.22,0c1.4,0,2.801,0,4.211,0c1.399,0,2.81,0,4.209,0c0,0.47,0,0.939,0,1.41c0,0.47,0,0.93,0,1.399
	c-0.939,0-1.869,0-2.81,0c0,0.101,0,0.2,0,0.3c0,0.84,0,1.67,0,2.511c0,0.1,0,0.199,0,0.3c0,0.1,0,0.2,0,0.3s0,0.2,0,0.3
	c0,0.141,0,0.271,0,0.41c0,0.09,0,0.19,0,0.29s0,0.2,0,0.3c0,0.24,0,0.47,0,0.71c0,0.101,0,0.2,0,0.3c-0.93,0-1.87,0-2.81,0
	c0-0.5,0-1.01,0-1.51c0-0.46,0-0.93,0-1.399c0-0.471,0-0.94,0-1.4c0-0.47,0-0.94,0-1.41c-0.93,0-1.87,0-2.801,0
	c-0.47,0-0.939,0-1.41,0c-0.129,0-0.26,0-0.399,0c-0.101,0-0.2,0-0.3,0s-0.2,0-0.301,0c-0.129,0-0.27,0-0.399,0c0,0.101,0,0.2,0,0.3
	c0,0.91,0,1.811,0,2.71c0,0.9,0,1.811,0,2.71c-0.94,0-1.87,0-2.81,0c0-0.939,0-1.869,0-2.81c0-0.47,0-0.94,0-1.4
	c0-0.239,0-0.47,0-0.699c0-0.24,0-0.471,0-0.71c0-0.03,0-0.061,0-0.101c-0.101,0-0.2,0-0.301,0c-0.229,0-0.47,0-0.699,0
	c-0.101,0-0.2,0-0.301,0c-0.1,0-0.199,0-0.3,0c-0.14,0-0.271,0-0.399,0c-0.101,0-0.2,0-0.311,0c-0.1,0-0.2,0-0.3,0s-0.2,0-0.3,0
	c-0.13,0-0.26,0-0.4,0c-0.1,0-0.2,0-0.3,0s-0.2,0-0.3,0c-0.1,0-0.2,0-0.3,0c-0.13,0-0.27,0-0.4,0c-0.1,0-0.2,0-0.3,0
	c-0.1,0-0.2,0-0.3,0c-0.14,0-0.27,0-0.4,0c0,0.101,0,0.2,0,0.3c0,0.24,0,0.471,0,0.7c0,0.11,0,0.21,0,0.3c0,0.11,0,0.21,0,0.311
	c0,0.13,0,0.26,0,0.399c0,0.101,0,0.2,0,0.301c0,0.1,0,0.199,0,0.3c0,0.1,0,0.2,0,0.3c0,0.13,0,0.27,0,0.4c0,0.1,0,0.199,0,0.3
	c0,0.1,0,0.2,0,0.3s0,0.21,0,0.3c0,0.4,0,0.8,0,1.21c0,0.101,0,0.2,0,0.3c-0.94,0-1.88,0-2.81,0c0-0.5,0-1.01,0-1.51
	c0-0.46,0-0.93,0-1.399c0-0.94,0-1.87,0-2.811c-1.88,0-3.75,0-5.62,0c0,0.101,0,0.2,0,0.3c0,0.84,0,1.67,0,2.511c0,0.5,0,1,0,1.5
	c0,0.47,0,0.939,0,1.409c-0.83,0-1.67,0-2.51,0c-0.1,0-0.2,0-0.3,0c0-0.04,0-0.069,0-0.1c0-0.04,0-0.07,0-0.1c0-0.07,0-0.141,0-0.2
	c0-0.141,0-0.271,0-0.4c0-0.24,0-0.47,0-0.71c0-0.46,0-0.93,0-1.399c0-0.23,0-0.471,0-0.7c0-0.24,0-0.471,0-0.7
	c0-0.47,0-0.94,0-1.41c-0.1,0-0.2,0-0.3,0c-0.06,0-0.13,0-0.2,0c-0.1,0-0.2,0-0.3,0s-0.2,0-0.3,0c-0.1,0-0.2,0-0.3,0
	c-0.07,0-0.14,0-0.2,0c-0.1,0-0.2,0-0.3,0c-0.2,0-0.4,0-0.61,0c-0.09,0-0.2,0-0.29,0c0-0.93,0-1.87,0-2.81
	C24.88,99.62,26.28,99.62,27.69,99.62z"/>
<path fill="#858D99" d="M26.28,82.78c0,0.93,0,1.869,0,2.81c-0.83,0-1.67,0-2.51,0c-0.09,0-0.2,0-0.29,0c0-0.94,0-1.88,0-2.81
	C24.41,82.78,25.35,82.78,26.28,82.78z"/>
<path fill="#211F30" d="M20.67,73.149c0-0.1,0-0.199,0-0.3c0-0.1,0-0.2,0-0.3c0-0.24,0-0.47,0-0.71c0-0.09,0-0.2,0-0.3
	c0.93,0,1.87,0,2.81,0c0,0.939,0,1.88,0,2.81c-0.94,0-1.88,0-2.81,0C20.67,73.95,20.67,73.55,20.67,73.149z"/>
<path fill="#FFFFFF" d="M20.67,74.35c0.93,0,1.87,0,2.81,0c0,0.94,0,1.87,0,2.811c-0.94,0-1.88,0-2.81,0
	C20.67,76.22,20.67,75.29,20.67,74.35z"/>
<path fill="#AFBBC3" d="M20.67,79.97c0-0.939,0-1.87,0-2.81c0.93,0,1.87,0,2.81,0c0,0.939,0,1.87,0,2.81c0,0.93,0,1.87,0,2.811
	c0,0.93,0,1.869,0,2.81c0.09,0,0.2,0,0.29,0c0.84,0,1.68,0,2.51,0c0.94,0,1.88,0,2.81,0c0.47,0,0.94,0,1.41,0c0.46,0,0.93,0,1.4,0
	c0.93,0,1.87,0,2.81,0v2.8c-0.94,0-1.88,0-2.81,0c0,0.94,0,1.87,0,2.811c-0.94,0-1.87,0-2.81,0c0,0.939,0,1.869,0,2.81
	c0.94,0,1.87,0,2.81,0c0-0.94,0-1.87,0-2.81c1.4,0,2.81,0,4.21,0c0.7,0,1.41,0,2.11,0c0.1,0,0.2,0,0.3,0c0.06,0,0.13,0,0.2,0
	c0.1,0,0.2,0,0.3,0c0.07,0,0.13,0,0.2,0c0.1,0,0.2,0,0.3,0c0.07,0,0.13,0,0.2,0c0.1,0,0.2,0,0.3,0s0.2,0,0.3,0
	c0,0.939,0,1.869,0,2.81c0.939,0,1.881,0,2.811,0c0-0.94,0-1.87,0-2.81c-0.93,0-1.871,0-2.811,0c0-0.94,0-1.87,0-2.811v-2.8
	c0.939,0,1.881,0,2.811,0c0.939,0,1.869,0,2.81,0c0.931,0,1.87,0,2.81,0c0-0.84,0-1.68,0-2.51h2.801c0,1.67,0,3.34,0,5.01
	c0,0.1,0,0.2,0,0.3c0.939,0,1.88,0,2.81,0c0.94,0,1.87,0,2.81,0c0,0.94,0,1.87,0,2.811c-0.939,0-1.869,0-2.81,0c0,0.1,0,0.199,0,0.3
	c0,0.2,0,0.399,0,0.6c0,0.101,0,0.2,0,0.3c0,0.07,0,0.141,0,0.2c0,0.2,0,0.4,0,0.61c0,0.09,0,0.2,0,0.3c0,0.06,0,0.13,0,0.2
	c0,0.1,0,0.2,0,0.3c-0.93,0-1.87,0-2.81,0c-0.93,0-1.87,0-2.801,0c0,0.93,0,1.87,0,2.81c-0.939,0-1.879,0-2.81,0
	c-0.94,0-1.87,0-2.81,0c-0.93,0-1.871,0-2.811,0c-0.93,0-1.87,0-2.8,0c-0.94,0-1.88,0-2.81,0c-0.94,0-1.88,0-2.81,0
	c-0.94,0-1.87,0-2.81,0c-0.93,0-1.87,0-2.81,0c0-0.939,0-1.88,0-2.81c-0.1,0-0.2,0-0.3,0c-0.9,0-1.8,0-2.7,0c-0.44,0-0.88,0-1.31,0
	c-0.43,0-0.87,0-1.3,0c0-0.94,0-1.87,0-2.81c0-0.94,0-1.87,0-2.811c-0.94,0-1.87,0-2.81,0c0-1.399,0-2.8,0-4.21
	c0-1.399,0-2.81,0-4.21C18.8,79.97,19.73,79.97,20.67,79.97z"/>
<path fill="#858D99" d="M23.48,96.819c-0.1,0-0.2,0-0.31,0c-0.83,0-1.67,0-2.5,0c0-0.939,0-1.88,0-2.81c0.43,0,0.87,0,1.3,0
	c0.43,0,0.87,0,1.31,0c0.9,0,1.8,0,2.7,0c0.1,0,0.2,0,0.3,0c0,0.93,0,1.87,0,2.81c0.94,0,1.88,0,2.81,0c0.94,0,1.87,0,2.81,0
	c0.93,0,1.87,0,2.81,0c0.93,0,1.87,0,2.81,0c0.93,0,1.87,0,2.8,0c0.939,0,1.881,0,2.811,0c0.939,0,1.869,0,2.81,0
	c0.931,0,1.87,0,2.81,0c0-0.939,0-1.88,0-2.81c0.931,0,1.871,0,2.801,0c0.939,0,1.88,0,2.81,0c0-0.1,0-0.2,0-0.3
	c0-0.07,0-0.141,0-0.2c0-0.1,0-0.21,0-0.3c0-0.21,0-0.41,0-0.61c0-0.06,0-0.13,0-0.2c0-0.1,0-0.199,0-0.3c0-0.2,0-0.399,0-0.6
	c0-0.101,0-0.2,0-0.3c0.94,0,1.87,0,2.81,0c0-0.94,0-1.87,0-2.811c0.94,0,1.871,0,2.811,0c0-1.399,0-2.8,0-4.21
	c0-1.399,0-2.81,0-4.21c0.93,0,1.87,0,2.811,0c0,0.93,0,1.87,0,2.811c0,0.93,0,1.869,0,2.81c0,0.229,0,0.46,0,0.7
	c0,0.229,0,0.46,0,0.7c0,0.229,0,0.47,0,0.699c0,0.23,0,0.471,0,0.7c0,0.94,0,1.87,0,2.811c-0.94,0-1.881,0-2.811,0
	c0,0.1,0,0.199,0,0.3c0,0.899,0,1.8,0,2.71c0,0.13,0,0.27,0,0.399c0,0.101,0,0.2,0,0.301c0,0.1,0,0.199,0,0.3c0,0.1,0,0.2,0,0.3
	c0,0.14,0,0.271,0,0.4c0,0.1,0,0.199,0,0.3c0,0.1,0,0.2,0,0.3c0,0.11,0,0.21,0,0.31c-0.939,0-1.87,0-2.811,0c0,0.931,0,1.87,0,2.801
	c-1.399,0-2.81,0-4.209,0c-1.41,0-2.811,0-4.211,0c-1.41,0-2.81,0-4.22,0c-1.399,0-2.8,0-4.21,0c-1.4,0-2.8,0-4.21,0
	c-1.4,0-2.81,0-4.21,0s-2.81,0-4.21,0c-1.41,0-2.81,0-4.21,0c0-0.46,0-0.931,0-1.4c0-0.13,0-0.27,0-0.4c0-0.1,0-0.199,0-0.3
	c0-0.1,0-0.2,0-0.3C23.48,97.08,23.48,96.95,23.48,96.819z"/>
<path fill="#211F30" d="M23.17,96.819c0.11,0,0.21,0,0.31,0c0,0.131,0,0.261,0,0.4c0,0.1,0,0.2,0,0.3c0,0.101,0,0.2,0,0.3
	c0,0.131,0,0.271,0,0.4c0,0.47,0,0.94,0,1.4c-0.84,0-1.68,0-2.51,0c-0.1,0-0.2,0-0.3,0c0-0.931,0-1.87,0-2.801
	C21.5,96.819,22.34,96.819,23.17,96.819z"/>
<path fill="#211F30" d="M20.67,77.16c0,0.939,0,1.87,0,2.81c-0.94,0-1.87,0-2.81,0c0-0.2,0-0.4,0-0.6c0-0.24,0-0.471,0-0.7
	c0-0.21,0-0.41,0-0.61c0-0.229,0-0.47,0-0.7c0-0.899,0-1.8,0-2.71c0-0.1,0-0.199,0-0.3c0.94,0,1.87,0,2.81,0
	C20.67,75.29,20.67,76.22,20.67,77.16z"/>
<path fill="#858D99" d="M20.67,88.39c0,0.94,0,1.87,0,2.811c-0.94,0-1.87,0-2.81,0c0-0.94,0-1.87,0-2.811
	C18.8,88.39,19.73,88.39,20.67,88.39z"/>
<path fill="#211F30" d="M20.67,94.01c0,0.93,0,1.87,0,2.81c-0.84,0-1.67,0-2.51,0c-0.1,0-0.2,0-0.3,0c0-0.039,0-0.069,0-0.1
	c0-0.04,0-0.07,0-0.1c0-0.07,0-0.141,0-0.21c0-0.101,0-0.2,0-0.301c0-0.229,0-0.46,0-0.699c0-0.23,0-0.471,0-0.7
	c0-0.23,0-0.47,0-0.7c0-0.94,0-1.87,0-2.81c0.94,0,1.87,0,2.81,0C20.67,92.14,20.67,93.069,20.67,94.01z"/>
<path fill="#211F30" d="M17.86,88.39c0,0.94,0,1.87,0,2.811c-0.97,0-1.94,0-2.91,0c0-0.94,0-1.87,0-2.811c0-0.47,0-0.93,0-1.399
	c0-0.24,0-0.471,0-0.7c0-0.24,0-0.471,0-0.7c0-0.94,0-1.88,0-2.81c0-0.94,0-1.881,0-2.811c0.47,0,0.94,0,1.4,0c0.51,0,1.01,0,1.51,0
	c0,1.4,0,2.811,0,4.21C17.86,85.59,17.86,86.99,17.86,88.39z"/>
<g id="XMLID_2_">
	<g>
		<path fill="#211F30" d="M77.01,50.9c0-3.69,0-7.381,0-11.081c0.399,0,0.79,0,1.189,0c0.4,0,0.79,0,1.19,0c0,3.7,0,7.39,0,11.081
			C78.6,50.9,77.8,50.9,77.01,50.9z"/>
		<path fill="#211F30" d="M77.01,50.9c0,1.449,0,2.909,0,4.359c-0.261,0-0.521,0-0.79,0c-0.391,0-0.79,0-1.19,0
			c0-0.27,0-0.53,0-0.79c0-0.399,0-0.8,0-1.189c0-0.79,0-1.58,0-2.38c0.271,0,0.53,0,0.8,0C76.22,50.9,76.62,50.9,77.01,50.9z"/>
		<path fill="#211F30" d="M77.01,37.45c0,0.79,0,1.58,0,2.37c-0.261,0-0.521,0-0.79,0c-0.391,0-0.79,0-1.19,0c0-0.39,0-0.79,0-1.18
			c0-0.4,0-0.8,0-1.19c0-0.26,0-0.53,0-0.79c0-0.4,0-0.79,0-1.19c0-1.45,0-2.9,0-4.35c0.271,0,0.53,0,0.8,0c0.391,0,0.79,0,1.181,0
			c0,0.39,0,0.79,0,1.19c0,0.39,0,0.79,0,1.18c0,0.27,0,0.53,0,0.79c0,0.4,0,0.8,0,1.19c0,0.27,0,0.53,0,0.79
			C77.01,36.66,77.01,37.05,77.01,37.45z"/>
		<path fill="#211F30" d="M72.66,31.12c0-2.24,0-4.49,0-6.73c0.79,0,1.58,0,2.37,0c0,0.4,0,0.79,0,1.19c0,0.26,0,0.53,0,0.79
			c0,0.53,0,1.06,0,1.58c0,1.06,0,2.11,0,3.17C74.24,31.12,73.45,31.12,72.66,31.12z"/>
		<path fill="#211F30" d="M72.66,56.44c0-0.391,0-0.79,0-1.181c0.79,0,1.58,0,2.37,0c0,0.26,0,0.521,0,0.79c0,0.391,0,0.79,0,1.18
			c-0.79,0-1.58,0-2.37,0C72.66,56.97,72.66,56.71,72.66,56.44z"/>
		<path fill="#211F30" d="M72.66,57.229c0,0.801,0,1.591,0,2.381c-1.449,0-2.899,0-4.35,0c0-0.79,0-1.58,0-2.381
			C69.76,57.229,71.21,57.229,72.66,57.229z"/>
		<path fill="#211F30" d="M72.66,22.41c0,0.27,0,0.53,0,0.8c0,0.39,0,0.79,0,1.18c-0.79,0-1.58,0-2.38,0c0-1.45,0-2.9,0-4.35
			c0.8,0,1.59,0,2.38,0c0,0.39,0,0.79,0,1.19C72.66,21.62,72.66,22.02,72.66,22.41z"/>
		<path fill="#211F30" d="M68.31,20.04c0-1.45,0-2.9,0-4.36c0.26,0,0.52,0,0.79,0c0.39,0,0.79,0,1.18,0c0,0.14,0,0.27,0,0.4
			c0,0.66,0,1.32,0,1.98c0,0.26,0,0.53,0,0.79c0,0.4,0,0.79,0,1.19c-0.26,0-0.52,0-0.79,0C69.1,20.04,68.7,20.04,68.31,20.04z"/>
		<path fill="#858D99" d="M68.31,36.26c0,0.4,0,0.79,0,1.19c-0.79,0-1.59,0-2.38,0c0-0.26,0-0.53,0-0.79c0-0.4,0-0.79,0-1.19
			c0.79,0,1.59,0,2.38,0C68.31,35.74,68.31,36,68.31,36.26z"/>
		<path fill="#211F30" d="M68.31,13.31c0,0.79,0,1.58,0,2.37c-0.79,0-1.59,0-2.38,0c0-0.79,0-1.58,0-2.37
			C66.72,13.31,67.52,13.31,68.31,13.31z"/>
		<path fill="#211F30" d="M63.95,12.52c0-0.39,0-0.79,0-1.18c0.271,0,0.53,0,0.8,0c0.391,0,0.79,0,1.181,0c0,0.26,0,0.52,0,0.79
			c0,0.39,0,0.79,0,1.18c-0.26,0-0.53,0-0.79,0c-0.391,0-0.79,0-1.19,0C63.95,13.05,63.95,12.79,63.95,12.52z"/>
		<path fill="#211F30" d="M61.58,8.96c0.79,0,1.58,0,2.37,0c0,0.79,0,1.58,0,2.38c-0.79,0-1.58,0-2.37,0
			C61.58,10.54,61.58,9.75,61.58,8.96z"/>
		<path fill="#858D99" d="M61.58,8.96c0,0.79,0,1.58,0,2.38c-0.26,0-0.529,0-0.79,0c-0.399,0-0.79,0-1.189,0c0-0.8,0-1.59,0-2.38
			c0.399,0,0.79,0,1.189,0C61.05,8.96,61.32,8.96,61.58,8.96z"/>
		<path fill="#858D99" d="M60.79,33.1c0.261,0,0.53,0,0.79,0c0,0.79,0,1.58,0,2.37c-0.26,0-0.529,0-0.79,0c-0.399,0-0.79,0-1.189,0
			c0-0.79,0-1.58,0-2.37C60,33.1,60.39,33.1,60.79,33.1z"/>
		<path fill="#211F30" d="M59.6,6.59c0.26,0,0.53,0,0.79,0c0.399,0,0.79,0,1.189,0c0,0.79,0,1.58,0,2.37c-0.26,0-0.529,0-0.79,0
			c-0.399,0-0.79,0-1.189,0C59.6,8.17,59.6,7.38,59.6,6.59z"/>
		<path fill="#858D99" d="M59.6,6.59c0,0.79,0,1.58,0,2.37c-0.79,0-1.58,0-2.37,0c0-0.79,0-1.58,0-2.37
			C58.02,6.59,58.81,6.59,59.6,6.59z"/>
		<path fill="#858D99" d="M63.95,40.62c0,0.39,0,0.79,0,1.18c0.271,0,0.53,0,0.8,0c0.391,0,0.79,0,1.181,0c0,0.4,0,0.79,0,1.19
			c0,1.05,0,2.109,0,3.17c-0.53,0-1.05,0-1.58,0c-0.08,0.05-0.33-0.07-0.4,0c-0.05,0.04,0.021,0.319,0,0.39c-0.02,0.11,0,0.28,0,0.4
			c0,0.13,0,0.26,0,0.39c0,0.4,0,0.79,0,1.19c-0.39,0-0.79,0-1.18,0c-0.271,0-0.53,0-0.8,0c-0.391,0-0.79,0-1.181,0
			c-0.399,0-0.79,0-1.189,0c0-0.79,0-1.58,0-2.37c-0.39,0-0.79,0-1.19,0c-0.39,0-0.79,0-1.18,0c0-0.4,0-0.8,0-1.19
			c0-0.27,0-0.529,0-0.8c0-0.39,0-0.79,0-1.18c0-0.4,0-0.79,0-1.19c0.39,0,0.79,0,1.18,0c0.4,0,0.801,0,1.19,0c0-0.26,0-0.52,0-0.79
			c0-0.39,0-0.79,0-1.19c0.399,0,0.79,0,1.189,0c1.051,0,2.11,0,3.16,0C63.95,40.09,63.95,40.35,63.95,40.62z"/>
		<path fill="#211F30" d="M57.23,6.59c-0.27,0-0.53,0-0.79,0c-0.4,0-0.8,0-1.19,0c0-0.13,0-0.27,0-0.4c0-0.53,0-1.06,0-1.58
			c1.45,0,2.9,0,4.351,0c0,0.26,0,0.52,0,0.79c0,0.39,0,0.79,0,1.19C58.81,6.59,58.02,6.59,57.23,6.59z"/>
		<path fill="#FFFFFF" d="M55.25,8.96c0,0.79,0,1.58,0,2.38c-0.789,0-1.579,0-2.38,0c0-0.8,0-1.59,0-2.38
			C53.67,8.96,54.46,8.96,55.25,8.96z"/>
		<path fill="#211F30" d="M55.25,4.61c-2.239,0-4.489,0-6.729,0c0-0.79,0-1.59,0-2.38c2.24,0,4.49,0,6.729,0
			C55.25,3.02,55.25,3.82,55.25,4.61z"/>
		<path fill="#FFFFFF" d="M46.15,8.96c0-0.79,0-1.58,0-2.37c0.79,0,1.58,0,2.37,0c0,0.79,0,1.58,0,2.37
			C47.73,8.96,46.94,8.96,46.15,8.96z"/>
		<path fill="#858D99" d="M46.15,39.82c0.79,0,1.58,0,2.37,0c0,0.27,0,0.53,0,0.8c0,0.39,0,0.79,0,1.18c-0.79,0-1.58,0-2.37,0
			c0-0.26,0-0.52,0-0.79C46.15,40.62,46.15,40.22,46.15,39.82z"/>
		<path fill="#858D99" d="M41.8,31.91c0,0.4,0,0.79,0,1.19c-0.271,0-0.53,0-0.801,0c-0.39,0-0.79,0-1.18,0c0-0.53,0-1.06,0-1.59
			c0-0.13,0-0.26,0-0.39c0.26,0,0.52,0,0.79,0c0.39,0,0.79,0,1.19,0C41.8,31.38,41.8,31.65,41.8,31.91z"/>
		<path fill="#858D99" d="M39.82,15.68c0,1.46,0,2.91,0,4.36c-0.79,0-1.59,0-2.38,0c0-1.19,0-2.37,0-3.56c0-0.27,0-0.53,0-0.8
			C38.23,15.68,39.03,15.68,39.82,15.68z"/>
		<path fill="#63677A" d="M39.82,31.12c0,0.13,0,0.26,0,0.39c0,0.53,0,1.06,0,1.59c-1.06,0-2.11,0-3.17,0c-1.19,0-2.37,0-3.56,0
			c0-0.4,0-0.79,0-1.19c0-0.26,0-0.53,0-0.79c1.06,0,2.11,0,3.17,0c0.52,0,1.05,0,1.58,0c0.53,0,1.05,0,1.58,0
			C39.55,31.12,39.69,31.12,39.82,31.12z"/>
		<path d="M33.48,28.74c2.12,0,4.23,0,6.34,0c0,0.8,0,1.59,0,2.38c-0.13,0-0.27,0-0.4,0c-0.53,0-1.05,0-1.58,0
			c-0.53,0-1.06,0-1.58,0c-1.06,0-2.11,0-3.17,0c0-0.79,0-1.58,0-2.38C33.22,28.74,33.35,28.74,33.48,28.74z"/>
		<path fill="#63677A" d="M30.72,26.37c3.69,0,7.38,0,11.08,0c0,1.58,0,3.17,0,4.75c-0.4,0-0.801,0-1.19,0c-0.27,0-0.53,0-0.79,0
			c0-0.79,0-1.58,0-2.38c-2.11,0-4.22,0-6.34,0c-0.13,0-0.26,0-0.39,0c0,0.8,0,1.59,0,2.38c-0.79,0-1.58,0-2.37,0
			C30.72,29.54,30.72,27.95,30.72,26.37z"/>
		<path fill="#858D99" d="M33.09,31.91c0,0.4,0,0.79,0,1.19c-0.79,0-1.58,0-2.37,0c0-0.27,0-0.53,0-0.79c0-0.4,0-0.8,0-1.19
			c0.79,0,1.58,0,2.37,0C33.09,31.38,33.09,31.65,33.09,31.91z"/>
		<path fill="#211F30" d="M48.52,2.23c-5.93,0-11.87,0-17.8,0c0-0.26,0-0.52,0-0.79c0-0.39,0-0.79,0-1.19c0.39,0,0.79,0,1.18,0
			c0.4,0,0.79,0,1.19,0c0.79,0,1.58,0,2.37,0c0.66,0,1.32,0,1.98,0c0.79,0,1.59,0,2.38,0c0.66,0,1.32,0,1.98,0c0.79,0,1.58,0,2.37,0
			c0.659,0,1.319,0,1.979,0c0.79,0,1.58,0,2.37,0c0,0.27,0,0.53,0,0.8C48.52,1.44,48.52,1.84,48.52,2.23z"/>
		<path fill="#211F30" d="M30.72,2.23c0,0.79,0,1.59,0,2.38c-2.11,0-4.22,0-6.33,0c0-0.79,0-1.59,0-2.38
			C26.5,2.23,28.61,2.23,30.72,2.23z"/>
		<path fill="#858D99" d="M39.82,11.73c0,0.13,0,0.26,0,0.4c0,0.26,0,0.52,0,0.79c-0.06,0.08,0.06,0.33,0,0.39
			c-0.05,0.05-0.33-0.02-0.4,0c-0.11,0.03-0.28,0-0.39,0c-0.13,0-0.27,0-0.4,0c-0.13,0.01-0.27,0-0.4,0s-0.26,0-0.39,0
			c-0.13,0-0.27,0-0.4,0s-0.26,0-0.39,0c-0.13,0-0.27,0-0.4,0s-0.26,0-0.39,0c-0.27,0-0.53,0-0.8,0c-0.13,0-0.26,0-0.39,0
			c-0.13,0-0.26,0-0.4,0c-0.39,0-0.79,0-1.19,0c-0.39,0-0.79,0-1.18,0c-0.4,0-0.79,0-1.19,0c-0.39,0-0.79,0-1.19,0
			c-0.13,0-0.26,0-0.39,0c-0.12,0-0.29,0.03-0.4,0c-0.07-0.02-0.34,0.05-0.39,0c-0.07-0.06,0.05-0.31,0-0.39c0-0.27,0-0.53,0-0.79
			c0-0.27,0-0.53,0-0.79c0.26,0,0.52,0,0.79,0c0.53,0,1.06,0,1.58,0c0.4,0,0.79,0,1.19,0c0.53,0,1.05,0,1.58,0c0.27,0,0.53,0,0.79,0
			c0.14,0,0.27-0.01,0.4,0c0.13,0,0.26,0,0.39,0c0.4,0,0.8,0,1.19,0c0.27,0,0.53,0,0.79,0c0.13,0,0.27-0.01,0.4,0
			c0.13,0,0.26,0,0.39,0c0.14,0,0.27,0,0.4,0s0.27-0.02,0.4,0c0.12,0.01,0.26,0,0.39,0c0.05,0,0.37-0.04,0.4,0
			C39.88,11.41,39.76,11.64,39.82,11.73z"/>
		<path fill="#858D99" d="M25.18,31.12c0.39,0,0.79,0,1.18,0c0,0.26,0,0.53,0,0.79c0,0.4,0,0.79,0,1.19c-0.26,0-0.52,0-0.79,0
			c-0.39,0-0.79,0-1.18,0c0-0.53,0-1.06,0-1.59c0-0.13,0-0.26,0-0.39C24.65,31.12,24.91,31.12,25.18,31.12z"/>
		<path fill="#858D99" d="M35.46,15.68c0,1.46,0,2.91,0,4.36c-3.69,0-7.38,0-11.07,0c0-1.06,0-2.11,0-3.17c0-0.39,0-0.79,0-1.19
			C28.08,15.68,31.77,15.68,35.46,15.68z"/>
		<path fill="#FFFFFF" d="M24.39,8.96c0,0.79,0,1.58,0,2.38c-0.8,0-1.59,0-2.38,0c0-0.8,0-1.59,0-2.38
			C22.8,8.96,23.59,8.96,24.39,8.96z"/>
		<path fill="#211F30" d="M24.39,5.4c0,0.39,0,0.79,0,1.19c-1.46,0-2.91,0-4.36,0c0-0.27,0-0.53,0-0.8c0-0.39,0-0.79,0-1.18
			c1.45,0,2.9,0,4.36,0C24.39,4.87,24.39,5.13,24.39,5.4z"/>
		<path fill="#858D99" d="M37.44,41.8c0,0.271,0,0.53,0,0.79c0,0.53,0,1.061,0,1.58c-0.39,0-0.79,0-1.18,0c-5.15,0-10.29,0-15.44,0
			c-0.26,0-0.52,0-0.79,0c0-0.79,0-1.58,0-2.37c5.41,0,10.82,0,16.23,0C36.65,41.8,37.05,41.8,37.44,41.8z"/>
		<path fill="#63677A" d="M22.41,31.12c0.52,0,1.05,0,1.58,0c0.13,0,0.26,0,0.4,0c0,0.13,0,0.26,0,0.39c0,0.53,0,1.06,0,1.59
			c-1.06,0-2.12,0-3.17,0c-1.19,0-2.38,0-3.56,0c0-0.4,0-0.79,0-1.19c0-0.26,0-0.53,0-0.79c1.05,0,2.11,0,3.16,0
			C21.35,31.12,21.88,31.12,22.41,31.12z"/>
		<path fill="#858D99" d="M20.03,51.7c0,0.39,0,0.79,0,1.18c-0.79,0-1.58,0-2.37,0c0-0.26,0-0.53,0-0.79c0-0.39,0-0.79,0-1.189
			c0.79,0,1.58,0,2.37,0C20.03,51.17,20.03,51.43,20.03,51.7z"/>
		<path fill="#211F30" d="M20.03,6.59c0,0.79,0,1.58,0,2.37c-0.79,0-1.58,0-2.37,0c0-0.79,0-1.58,0-2.37
			C18.45,6.59,19.24,6.59,20.03,6.59z"/>
		<path d="M23.99,31.12c-0.53,0-1.06,0-1.58,0c-0.53,0-1.06,0-1.59,0c-1.05,0-2.11,0-3.16,0c0-0.79,0-1.58,0-2.38
			c0.13,0,0.26,0,0.39,0c2.11,0,4.22,0,6.34,0c0,0.8,0,1.59,0,2.38C24.25,31.12,24.12,31.12,23.99,31.12z"/>
		<path fill="#63677A" d="M26.36,26.37c0,1.58,0,3.17,0,4.75c-0.39,0-0.79,0-1.18,0c-0.27,0-0.53,0-0.79,0c0-0.79,0-1.58,0-2.38
			c-2.12,0-4.23,0-6.34,0c-0.13,0-0.26,0-0.39,0c0,0.8,0,1.59,0,2.38c-0.4,0-0.79,0-1.19,0c-0.26,0-0.53,0-0.79,0
			c0-1.58,0-3.17,0-4.75C19.24,26.37,22.8,26.37,26.36,26.37z"/>
		<path fill="#FFFFFF" d="M22.01,14.5c0,0.26,0,0.53,0,0.79c0,0.53,0,1.06,0,1.58c0,0.27,0,0.53,0,0.8c-1.45,0-2.9,0-4.35,0
			c0-1.46,0-2.91,0-4.36c1.18,0,2.37,0,3.56,0c0.26,0,0.53,0,0.79,0C22.01,13.71,22.01,14.1,22.01,14.5z"/>
		<path fill="#211F30" d="M16.47,8.96c0.4,0,0.79,0,1.19,0c0,0.79,0,1.58,0,2.38c-0.26,0-0.53,0-0.79,0c-0.4,0-0.79,0-1.19,0
			c0-0.8,0-1.59,0-2.38C15.94,8.96,16.21,8.96,16.47,8.96z"/>
		<path fill="#858D99" d="M15.68,32.31c0-0.4,0-0.8,0-1.19c0.26,0,0.53,0,0.79,0c0.4,0,0.79,0,1.19,0c0,0.26,0,0.53,0,0.79
			c0,0.4,0,0.79,0,1.19c-0.26,0-0.53,0-0.79,0c-0.4,0-0.79,0-1.19,0C15.68,32.83,15.68,32.57,15.68,32.31z"/>
		<path fill="#FFFFFF" d="M15.68,13.31c0,0.79,0,1.58,0,2.37c-0.79,0-1.58,0-2.37,0c0-0.79,0-1.58,0-2.37
			C14.1,13.31,14.89,13.31,15.68,13.31z"/>
		<path fill="#211F30" d="M13.31,11.34c0.79,0,1.58,0,2.37,0c0,0.26,0,0.52,0,0.79c0,0.39,0,0.79,0,1.18c-0.79,0-1.58,0-2.37,0
			c0-0.26,0-0.52,0-0.79C13.31,12.13,13.31,11.73,13.31,11.34z"/>
		<path fill="#211F30" d="M13.31,13.31c0,0.79,0,1.58,0,2.37c-0.8,0-1.59,0-2.38,0c0-0.79,0-1.58,0-2.37
			C11.72,13.31,12.51,13.31,13.31,13.31z"/>
		<path fill="#FFFFFF" d="M13.31,17.67c0,0.79,0,1.58,0,2.37c-0.8,0-1.59,0-2.38,0c0-1.45,0-2.9,0-4.36c0.79,0,1.58,0,2.38,0
			C13.31,16.35,13.31,17.01,13.31,17.67z"/>
		<path fill="#63677A" d="M46.15,37.84c0,0.4,0,0.8,0,1.19c0,0.27,0,0.53,0,0.79c-0.4,0-0.79,0-1.189,0c-0.4,0-0.79,0-1.19,0
			c-0.79,0-1.58,0-2.37,0c-0.26,0-0.53,0-0.79,0c-0.4,0-0.79,0-1.19,0c-0.79,0-1.58,0-2.37,0c-0.27,0-0.53,0-0.79,0
			c-0.4,0-0.8,0-1.19,0c-0.79,0-1.59,0-2.38,0c-0.26,0-0.52,0-0.79,0c-0.39,0-0.79,0-1.18,0c-0.8,0-1.59,0-2.38,0
			c-0.26,0-0.53,0-0.79,0c-0.4,0-0.79,0-1.19,0c-0.79,0-1.58,0-2.37,0c-0.26,0-0.53,0-0.79,0c-0.4,0-0.79,0-1.19,0
			c-0.79,0-1.58,0-2.37,0c-0.27,0-0.53,0-0.8,0c-0.39,0-0.79,0-1.18,0c-0.79,0-1.58,0-2.37,0c-0.27,0-0.53,0-0.8,0
			c-0.39,0-0.79,0-1.18,0c-0.8,0-1.59,0-2.38,0c0-0.13,0-0.26,0-0.39c0-0.13,0.01-0.26,0-0.4c0-0.13,0-0.26,0-0.39
			c0-0.14,0-0.27,0-0.4c0.01-0.13,0-0.26,0-0.4c0.01-0.05-0.04-0.35,0-0.39c0.07-0.07,0.32,0.05,0.4,0c0.66,0,1.32,0,1.98,0
			c0.39,0,0.79,0,1.18,0c0.4,0,0.8,0,1.19,0c0.66,0,1.32,0,1.98,0c0.39,0,0.79,0,1.18,0c0.4,0,0.8,0,1.19,0c0.66,0,1.32,0,1.98,0
			c0.4,0,0.79,0,1.19,0c0.39,0,0.79,0,1.19,0c0.65,0,1.31,0,1.97,0c0.4,0,0.79,0,1.19,0c0.4,0,0.79,0,1.19,0c0.66,0,1.32,0,1.98,0
			c0.39,0,0.79,0,1.18,0c0.4,0,0.79,0,1.19,0c0.66,0,1.32,0,1.98,0c0.39,0,0.79,0,1.19,0c0.39,0,0.79,0,1.18,0c0.66,0,1.32,0,1.98,0
			c0.4,0,0.79,0,1.19,0c0.13,0,0.26,0,0.39,0c0.141,0,0.271,0,0.4,0s0.26,0,0.4,0c0.13,0,0.26,0,0.39,0c0.26,0,0.53,0,0.79,0
			c0.13,0,0.27,0,0.4,0c0.13,0,0.26,0,0.39,0c0.14,0,0.27,0,0.4,0c0.13,0.01,0.26,0,0.39,0c0.14,0,0.27,0,0.4,0
			c0.13,0,0.27-0.02,0.399,0c0.13,0.01,0.26-0.01,0.39,0c0.061,0,0.36-0.04,0.4,0C46.21,37.52,46.1,37.76,46.15,37.84z"/>
		<path fill="#211F30" d="M59.6,59.61c2.899,0,5.8,0,8.71,0c0,0.26,0,0.529,0,0.79c0,0.399,0,0.79,0,1.189c-0.53,0-1.061,0-1.59,0
			c-0.26,0-0.521,0-0.79,0c0,0.79,0,1.58,0,2.37c-4.48,0-8.97,0-13.45,0c-1.19,0-2.37,0-3.56,0c-1.061,0-2.11,0-3.171,0
			c-2.109,0-4.22,0-6.33,0c-1.19,0-2.37,0-3.56,0c-1.05,0-2.11,0-3.17,0c-2.1,0-4.22,0-6.33,0c-1.18,0-2.37,0-3.56,0
			c-1.05,0-2.11,0-3.16,0c-2.11,0-4.22,0-6.33,0c0-0.79,0-1.58,0-2.37c-0.8,0-1.59,0-2.38,0c0-0.27,0-0.53,0-0.79
			c0-0.399,0-0.8,0-1.189c3.03,0,6.07,0,9.1,0c0,0.26,0,0.529,0,0.79c0,0.399,0,0.79,0,1.189c13.19,0,26.38,0,39.57,0
			c0-0.27,0-0.53,0-0.79C59.6,60.4,59.6,60,59.6,59.61z"/>
		<path fill="#858D99" d="M10.93,52.88c0-1.45,0-2.9,0-4.35c1.58,0,3.17,0,4.75,0c0,1.449,0,2.899,0,4.35
			C14.1,52.88,12.51,52.88,10.93,52.88z"/>
		<path fill="#211F30" d="M10.93,15.68c0,1.46,0,2.91,0,4.36c-0.26,0-0.53,0-0.79,0c-0.4,0-0.79,0-1.19,0c0-1.45,0-2.9,0-4.36
			c0.27,0,0.53,0,0.79,0C10.14,15.68,10.54,15.68,10.93,15.68z"/>
		<path fill="#FFFFFF" d="M10.93,22.02c0,0.79,0,1.58,0,2.37c-0.13,0-0.26,0-0.39,0c-0.53,0-1.06,0-1.59,0c0-1.45,0-2.9,0-4.35
			c0.4,0,0.79,0,1.19,0c0.26,0,0.53,0,0.79,0c0,0.26,0,0.53,0,0.79C10.93,21.23,10.93,21.62,10.93,22.02z"/>
		<path fill="#858D99" d="M9.74,39.82c0.4,0,0.8,0,1.19,0c0,0.27,0,0.53,0,0.8c0,0.39,0,0.79,0,1.18c-0.26,0-0.53,0-0.79,0
			c-0.4,0-0.79,0-1.19,0c0-0.26,0-0.52,0-0.79c0-0.39,0-0.79,0-1.19C9.22,39.82,9.48,39.82,9.74,39.82z"/>
		<path fill="#211F30" d="M8.95,20.04c0,1.45,0,2.9,0,4.35c-0.79,0-1.58,0-2.37,0c0-1.45,0-2.9,0-4.35
			C7.37,20.04,8.16,20.04,8.95,20.04z"/>
		<path fill="#211F30" d="M10.93,57.229c0,0.801,0,1.591,0,2.381c-1.45,0-2.9,0-4.35,0c0-0.79,0-1.58,0-2.381
			C8.03,57.229,9.48,57.229,10.93,57.229z"/>
		<path fill="#211F30" d="M4.6,31.12c0-2.24,0-4.49,0-6.73c0.26,0,0.53,0,0.79,0c0.4,0,0.79,0,1.19,0c0,1.06,0,2.11,0,3.17
			c0,1.18,0,2.37,0,3.56c-0.26,0-0.53,0-0.79,0C5.39,31.12,4.99,31.12,4.6,31.12z"/>
		<path fill="#858D99" d="M4.6,55.26c0-1.45,0-2.91,0-4.359c0.26,0,0.53,0,0.79,0c0.4,0,0.79,0,1.19,0c0,0.14,0,0.27,0,0.399
			c0,0.53,0,1.05,0,1.58c1.45,0,2.9,0,4.35,0c0,0.79,0,1.59,0,2.38c3.03,0,6.07,0,9.1,0c0,0.26,0,0.521,0,0.79
			c0,0.391,0,0.79,0,1.18c10.16,0,20.31,0,30.47,0c0-0.26,0-0.52,0-0.789c0-0.391,0-0.79,0-1.181c3.03,0,6.07,0,9.101,0
			c0-0.79,0-1.59,0-2.38c0.399,0,0.79,0,1.189,0c0.261,0,0.53,0,0.79,0c0.391,0,0.79,0,1.19,0c0.39,0,0.79,0,1.18,0
			c0-0.26,0-0.53,0-0.79c0-0.39,0-0.79,0-1.189c0.141,0,0.271,0,0.4,0c0.53,0,1.05,0,1.58,0c0-1.58,0-3.16,0-4.74
			c0.79,0,1.59,0,2.38,0c0-2.12,0-4.23,0-6.34c0.26,0,0.52,0,0.79,0c0.39,0,0.79,0,1.18,0c0-0.26,0-0.52,0-0.79
			c0-1.19,0-2.37,0-3.56c0-1.45,0-2.9,0-4.35c-0.26,0-0.52,0-0.79,0c-0.39,0-0.79,0-1.18,0c0-2.24,0-4.49,0-6.73
			c-0.79,0-1.59,0-2.38,0c0-0.39,0-0.79,0-1.18c0-0.4,0-0.8,0-1.19c0-0.27,0-0.53,0-0.79c0-0.4,0-0.8,0-1.19c-0.26,0-0.53,0-0.79,0
			c-0.391,0-0.79,0-1.19,0c0-0.4,0-0.79,0-1.19c0-0.26,0-0.53,0-0.79c0-0.39,0-0.79,0-1.19c0-0.39,0-0.79,0-1.19
			c-0.79,0-1.58,0-2.37,0c0-0.39,0-0.79,0-1.18c0-1.06,0-2.11,0-3.16c0.79,0,1.58,0,2.37,0c0,0.39,0,0.79,0,1.18
			c0,0.27,0,0.53,0,0.79c0.4,0,0.8,0,1.19,0c0.26,0,0.53,0,0.79,0c0,0.79,0,1.58,0,2.37c0.79,0,1.59,0,2.38,0c0,1.46,0,2.91,0,4.36
			c0.39,0,0.79,0,1.18,0c0.271,0,0.53,0,0.79,0c0,1.45,0,2.9,0,4.35c0.8,0,1.59,0,2.38,0c0,2.24,0,4.49,0,6.73c0.79,0,1.58,0,2.37,0
			c0,1.45,0,2.9,0,4.35c0,0.4,0,0.79,0,1.19c0,0.26,0,0.53,0,0.79c0,0.39,0,0.79,0,1.19c0,0.39,0,0.79,0,1.18c0.4,0,0.8,0,1.19,0
			c0.27,0,0.529,0,0.79,0c0,3.7,0,7.39,0,11.081c-0.391,0-0.79,0-1.181,0c-0.27,0-0.529,0-0.8,0c0,0.8,0,1.59,0,2.38
			c0,0.39,0,0.79,0,1.189c0,0.26,0,0.521,0,0.79c-0.79,0-1.58,0-2.37,0c0,0.391,0,0.79,0,1.181c0,0.27,0,0.529,0,0.789
			c-1.449,0-2.899,0-4.35,0c0,0.801,0,1.591,0,2.381c-2.91,0-5.811,0-8.71,0c0,0.39,0,0.79,0,1.189c0,0.26,0,0.521,0,0.79
			c-13.19,0-26.38,0-39.57,0c0-0.399,0-0.79,0-1.189c0-0.261,0-0.53,0-0.79c-3.03,0-6.07,0-9.1,0c0-0.79,0-1.58,0-2.381
			c-1.45,0-2.9,0-4.35,0c0-0.39,0-0.789,0-1.18c0-0.27,0-0.53,0-0.79c-0.4,0-0.79,0-1.19,0C5.13,55.26,4.86,55.26,4.6,55.26z"/>
		<path fill="#211F30" d="M4.6,55.26c0.26,0,0.53,0,0.79,0c0.4,0,0.79,0,1.19,0c0,0.26,0,0.521,0,0.79c0,0.391,0,0.79,0,1.18
			c-0.26,0-0.53,0-0.79,0c-0.4,0-0.8,0-1.19,0c0-0.13,0-0.26,0-0.39C4.6,56.31,4.6,55.78,4.6,55.26z"/>
		<path fill="#858D99" d="M2.23,50.9c0-0.79,0-1.58,0-2.37c0.79,0,1.58,0,2.37,0c0,0.79,0,1.58,0,2.37
			C3.81,50.9,3.02,50.9,2.23,50.9z"/>
		<path fill="#211F30" d="M2.23,50.9c0.79,0,1.58,0,2.37,0c0,1.449,0,2.909,0,4.359c-0.79,0-1.58,0-2.37,0c0-0.399,0-0.79,0-1.189
			c0-0.4,0-0.79,0-1.19c0-0.26,0-0.53,0-0.79C2.23,51.7,2.23,51.3,2.23,50.9z"/>
		<path fill="#211F30" d="M4.6,35.47c0,0.27,0,0.53,0,0.79c0,0.4,0,0.79,0,1.19c0,0.79,0,1.58,0,2.37c-0.79,0-1.58,0-2.37,0
			c0-0.26,0-0.52,0-0.79c0-0.39,0-0.79,0-1.19c0-0.79,0-1.58,0-2.37c0-1.45,0-2.9,0-4.35c0.79,0,1.58,0,2.37,0c0,0.26,0,0.53,0,0.79
			c0,0.4,0,0.79,0,1.19C4.6,33.89,4.6,34.68,4.6,35.47z"/>
		<path fill="#AFBBC3" d="M20.03,52.88c0-0.39,0-0.79,0-1.18c0-0.271,0-0.53,0-0.8c-0.79,0-1.58,0-2.37,0c0,0.399,0,0.8,0,1.189
			c0,0.26,0,0.53,0,0.79C18.45,52.88,19.24,52.88,20.03,52.88z M24.39,11.34c0-0.8,0-1.59,0-2.38c-0.8,0-1.59,0-2.38,0
			c0,0.79,0,1.58,0,2.38C22.8,11.34,23.59,11.34,24.39,11.34z M22.01,17.67c0-0.27,0-0.53,0-0.8c0-0.52,0-1.05,0-1.58
			c0-0.26,0-0.53,0-0.79c0-0.4,0-0.79,0-1.19c-0.26,0-0.53,0-0.79,0c-1.19,0-2.38,0-3.56,0c0,1.45,0,2.9,0,4.36
			C19.11,17.67,20.56,17.67,22.01,17.67z M24.39,33.1c0.39,0,0.79,0,1.18,0c0.27,0,0.53,0,0.79,0c0-0.4,0-0.79,0-1.19
			c0-0.26,0-0.53,0-0.79c0-1.58,0-3.17,0-4.75c-3.56,0-7.12,0-10.68,0c0,1.58,0,3.17,0,4.75c0,0.39,0,0.79,0,1.19
			c0,0.26,0,0.52,0,0.79c0.4,0,0.79,0,1.19,0c0.26,0,0.53,0,0.79,0c1.18,0,2.37,0,3.56,0C22.27,33.1,23.33,33.1,24.39,33.1z
			 M35.46,15.68c-3.69,0-7.38,0-11.07,0c0,0.4,0,0.8,0,1.19c0,1.06,0,2.11,0,3.17c3.69,0,7.38,0,11.07,0
			C35.46,18.59,35.46,17.14,35.46,15.68z M36.26,41.8c-5.41,0-10.82,0-16.23,0c0,0.79,0,1.58,0,2.37c0.27,0,0.53,0,0.79,0
			c5.15,0,10.29,0,15.44,0c0.39,0,0.79,0,1.18,0c0-0.52,0-1.05,0-1.58c0-0.26,0-0.52,0-0.79C37.05,41.8,36.65,41.8,36.26,41.8z
			 M38.63,13.31c0.13,0,0.27,0,0.4,0c0.11,0,0.28,0.03,0.39,0c0.07-0.02,0.35,0.05,0.4,0c0.06-0.06-0.06-0.31,0-0.39
			c0-0.27,0-0.53,0-0.79c0-0.14,0-0.27,0-0.4c-0.06-0.09,0.06-0.32,0-0.39c-0.03-0.04-0.35,0-0.4,0c-0.13,0-0.27,0.01-0.39,0
			c-0.13-0.02-0.27,0-0.4,0s-0.26,0-0.4,0c-0.13,0-0.26,0-0.39,0c-0.13-0.01-0.27,0-0.4,0c-0.26,0-0.52,0-0.79,0
			c-0.39,0-0.79,0-1.19,0c-0.13,0-0.26,0-0.39,0c-0.13-0.01-0.26,0-0.4,0c-0.26,0-0.52,0-0.79,0c-0.53,0-1.05,0-1.58,0
			c-0.4,0-0.79,0-1.19,0c-0.52,0-1.05,0-1.58,0c-0.27,0-0.53,0-0.79,0c0,0.26,0,0.52,0,0.79c0,0.26,0,0.52,0,0.79
			c0.05,0.08-0.07,0.33,0,0.39c0.05,0.05,0.32-0.02,0.39,0c0.11,0.03,0.28,0,0.4,0c0.13,0,0.26,0,0.39,0c0.4,0,0.8,0,1.19,0
			c0.4,0,0.79,0,1.19,0c0.39,0,0.79,0,1.18,0c0.4,0,0.8,0,1.19,0c0.14,0,0.27,0,0.4,0c0.13,0,0.26,0,0.39,0c0.27,0,0.53,0,0.8,0
			c0.13,0,0.26,0,0.39,0s0.27,0,0.4,0c0.13,0,0.26,0,0.39,0s0.27,0,0.4,0c0.13,0,0.26,0,0.39,0S38.5,13.32,38.63,13.31z M41,33.1
			c0.271,0,0.53,0,0.801,0c0-0.4,0-0.79,0-1.19c0-0.26,0-0.53,0-0.79c0-1.58,0-3.17,0-4.75c-3.7,0-7.39,0-11.08,0
			c0,1.58,0,3.17,0,4.75c0,0.39,0,0.79,0,1.19c0,0.26,0,0.52,0,0.79c0.79,0,1.58,0,2.37,0c1.19,0,2.37,0,3.56,0
			c1.06,0,2.11,0,3.17,0C40.21,33.1,40.61,33.1,41,33.1z M39.82,20.04c0-1.45,0-2.9,0-4.36c-0.79,0-1.59,0-2.38,0
			c0,0.27,0,0.53,0,0.8c0,1.19,0,2.37,0,3.56C38.23,20.04,39.03,20.04,39.82,20.04z M55.25,8.96c-0.789,0-1.579,0-2.38,0
			c0,0.79,0,1.58,0,2.38c0.801,0,1.591,0,2.38,0C55.25,10.54,55.25,9.75,55.25,8.96z M46.15,6.59c0,0.79,0,1.58,0,2.37
			c0.79,0,1.58,0,2.37,0c0-0.79,0-1.58,0-2.37C47.73,6.59,46.94,6.59,46.15,6.59z M61.58,35.47c0-0.79,0-1.58,0-2.37
			c-0.26,0-0.529,0-0.79,0c-0.399,0-0.79,0-1.189,0c0,0.79,0,1.58,0,2.37c0.399,0,0.79,0,1.189,0
			C61.05,35.47,61.32,35.47,61.58,35.47z M65.93,36.66c0,0.26,0,0.53,0,0.79c0.79,0,1.59,0,2.38,0c0-0.4,0-0.79,0-1.19
			c0-0.26,0-0.52,0-0.79c-0.79,0-1.59,0-2.38,0C65.93,35.87,65.93,36.26,65.93,36.66z M8.95,41.8c0.4,0,0.79,0,1.19,0
			c0.26,0,0.53,0,0.79,0c0-0.39,0-0.79,0-1.18c0-0.27,0-0.53,0-0.8c0.79,0,1.58,0,2.38,0c0.39,0,0.79,0,1.18,0c0.27,0,0.53,0,0.8,0
			c0.79,0,1.58,0,2.37,0c0.39,0,0.79,0,1.18,0c0.27,0,0.53,0,0.8,0c0.79,0,1.58,0,2.37,0c0.4,0,0.79,0,1.19,0c0.26,0,0.53,0,0.79,0
			c0.79,0,1.58,0,2.37,0c0.4,0,0.79,0,1.19,0c0.26,0,0.53,0,0.79,0c0.79,0,1.58,0,2.38,0c0.39,0,0.79,0,1.18,0c0.27,0,0.53,0,0.79,0
			c0.79,0,1.59,0,2.38,0c0.39,0,0.79,0,1.19,0c0.26,0,0.52,0,0.79,0c0.79,0,1.58,0,2.37,0c0.4,0,0.79,0,1.19,0c0.26,0,0.53,0,0.79,0
			c0.79,0,1.58,0,2.37,0c0.4,0,0.79,0,1.19,0c0.399,0,0.789,0,1.189,0c0,0.4,0,0.8,0,1.19c0,0.27,0,0.53,0,0.79
			c0.79,0,1.58,0,2.37,0c0-0.39,0-0.79,0-1.18c0-0.27,0-0.53,0-0.8c-0.79,0-1.58,0-2.37,0c0-0.26,0-0.52,0-0.79
			c0-0.39,0-0.79,0-1.19c-0.05-0.08,0.061-0.32,0-0.39c-0.04-0.04-0.34,0-0.4,0c-0.13-0.01-0.26,0.01-0.39,0
			c-0.13-0.02-0.27,0-0.399,0c-0.131,0-0.261,0-0.4,0c-0.13,0-0.26,0.01-0.39,0c-0.131,0-0.261,0-0.4,0c-0.13,0-0.26,0-0.39,0
			c-0.131,0-0.271,0-0.4,0c-0.26,0-0.53,0-0.79,0c-0.13,0-0.26,0-0.39,0c-0.141,0-0.271,0-0.4,0s-0.26,0-0.4,0
			c-0.13,0-0.26,0-0.39,0c-0.4,0-0.79,0-1.19,0c-0.66,0-1.32,0-1.98,0c-0.39,0-0.79,0-1.18,0c-0.4,0-0.8,0-1.19,0
			c-0.66,0-1.32,0-1.98,0c-0.4,0-0.79,0-1.19,0c-0.39,0-0.79,0-1.18,0c-0.66,0-1.32,0-1.98,0c-0.4,0-0.79,0-1.19,0
			c-0.4,0-0.79,0-1.19,0c-0.66,0-1.32,0-1.97,0c-0.4,0-0.8,0-1.19,0c-0.4,0-0.79,0-1.19,0c-0.66,0-1.32,0-1.98,0
			c-0.39,0-0.79,0-1.19,0c-0.39,0-0.79,0-1.18,0c-0.66,0-1.32,0-1.98,0c-0.39,0-0.79,0-1.19,0c-0.39,0-0.79,0-1.18,0
			c-0.66,0-1.32,0-1.98,0c-0.08,0.05-0.33-0.07-0.4,0c-0.04,0.04,0.01,0.34,0,0.39c0,0.14,0.01,0.27,0,0.4c0,0.13,0,0.26,0,0.4
			c0,0.13,0,0.26,0,0.39c0.01,0.14,0,0.27,0,0.4c0,0.13,0,0.26,0,0.39c-0.39,0-0.79,0-1.19,0c-0.26,0-0.52,0-0.79,0
			c0,0.4,0,0.8,0,1.19C8.95,41.28,8.95,41.54,8.95,41.8z M4.6,35.47c0-0.79,0-1.58,0-2.37c0-0.4,0-0.79,0-1.19c0-0.26,0-0.53,0-0.79
			c0.39,0,0.79,0,1.19,0c0.26,0,0.53,0,0.79,0c0-1.19,0-2.38,0-3.56c0-1.06,0-2.11,0-3.17c0.79,0,1.58,0,2.37,0
			c0.53,0,1.06,0,1.59,0c0.13,0,0.26,0,0.39,0c0-0.79,0-1.58,0-2.37c0-0.4,0-0.79,0-1.19c0-0.26,0-0.53,0-0.79c0.79,0,1.58,0,2.38,0
			c0-0.79,0-1.58,0-2.37c0-0.66,0-1.32,0-1.99c0.79,0,1.58,0,2.37,0c0-0.79,0-1.58,0-2.37c0-0.39,0-0.79,0-1.18
			c0-0.27,0-0.53,0-0.79c0.4,0,0.79,0,1.19,0c0.26,0,0.53,0,0.79,0c0-0.8,0-1.59,0-2.38c0.79,0,1.58,0,2.37,0c0-0.79,0-1.58,0-2.37
			c1.45,0,2.9,0,4.36,0c0-0.4,0-0.8,0-1.19c0-0.27,0-0.53,0-0.79c2.11,0,4.22,0,6.33,0c0-0.79,0-1.59,0-2.38c5.93,0,11.87,0,17.8,0
			c0,0.79,0,1.59,0,2.38c2.24,0,4.49,0,6.729,0c0,0.52,0,1.05,0,1.58c0,0.13,0,0.27,0,0.4c0.391,0,0.79,0,1.19,0
			c0.26,0,0.521,0,0.79,0c0,0.79,0,1.58,0,2.37c0.79,0,1.58,0,2.37,0c0,0.79,0,1.58,0,2.38c0.399,0,0.79,0,1.189,0
			c0.261,0,0.53,0,0.79,0c0,1.05,0,2.1,0,3.16c0,0.39,0,0.79,0,1.18c0.79,0,1.58,0,2.37,0c0,0.4,0,0.8,0,1.19c0,0.4,0,0.8,0,1.19
			c0,0.26,0,0.53,0,0.79c0,0.4,0,0.79,0,1.19c0.4,0,0.8,0,1.19,0c0.26,0,0.53,0,0.79,0c0,0.39,0,0.79,0,1.19c0,0.26,0,0.52,0,0.79
			c0,0.39,0,0.79,0,1.19c0,0.39,0,0.79,0,1.18c0.79,0,1.59,0,2.38,0c0,2.24,0,4.49,0,6.73c0.39,0,0.79,0,1.18,0
			c0.271,0,0.53,0,0.79,0c0,1.45,0,2.9,0,4.35c0,1.19,0,2.37,0,3.56c0,0.27,0,0.53,0,0.79c-0.39,0-0.79,0-1.18,0
			c-0.271,0-0.53,0-0.79,0c0,2.11,0,4.22,0,6.34c-0.79,0-1.59,0-2.38,0c0-1.061,0-2.12,0-3.17c0-0.4,0-0.79,0-1.19
			c-0.391,0-0.79,0-1.181,0c-0.27,0-0.529,0-0.8,0c0-0.39,0-0.79,0-1.18c0-0.27,0-0.53,0-0.8c-1.05,0-2.109,0-3.16,0
			c-0.399,0-0.79,0-1.189,0c0,0.4,0,0.8,0,1.19c0,0.27,0,0.53,0,0.79c-0.39,0-0.79,0-1.19,0c-0.39,0-0.79,0-1.18,0
			c0,0.4,0,0.79,0,1.19c0,0.39,0,0.79,0,1.18c0,0.271,0,0.53,0,0.8c0,0.391,0,0.79,0,1.19c0.39,0,0.79,0,1.18,0
			c0.4,0,0.801,0,1.19,0c0,0.79,0,1.58,0,2.37c0.399,0,0.79,0,1.189,0c0.391,0,0.79,0,1.181,0c0.27,0,0.529,0,0.8,0
			c0.39,0,0.79,0,1.18,0c0-0.4,0-0.79,0-1.19c0-0.13,0-0.26,0-0.39c0-0.12-0.02-0.29,0-0.4c0.021-0.07-0.05-0.35,0-0.39
			c0.07-0.07,0.32,0.05,0.4,0c0.53,0,1.05,0,1.58,0c0,1.58,0,3.16,0,4.74c-0.53,0-1.05,0-1.58,0c-0.13,0-0.26,0-0.4,0
			c0,0.399,0,0.8,0,1.189c0,0.26,0,0.53,0,0.79c-0.39,0-0.79,0-1.18,0c-0.4,0-0.8,0-1.19,0c-0.26,0-0.529,0-0.79,0
			c-0.399,0-0.79,0-1.189,0c0,0.79,0,1.59,0,2.38c-3.03,0-6.07,0-9.101,0c0,0.391,0,0.79,0,1.181c0,0.27,0,0.529,0,0.789
			c-10.16,0-20.31,0-30.47,0c0-0.39,0-0.789,0-1.18c0-0.27,0-0.53,0-0.79c-3.03,0-6.07,0-9.1,0c0-0.79,0-1.59,0-2.38
			c1.58,0,3.17,0,4.75,0c0-1.45,0-2.9,0-4.35c-1.58,0-3.17,0-4.75,0c0,1.449,0,2.899,0,4.35c-1.45,0-2.9,0-4.35,0
			c0-0.53,0-1.05,0-1.58c0-0.13,0-0.26,0-0.399c-0.4,0-0.79,0-1.19,0c-0.26,0-0.53,0-0.79,0c0-0.79,0-1.58,0-2.37
			c-0.79,0-1.58,0-2.37,0c0-2.9,0-5.801,0-8.71c0.79,0,1.58,0,2.37,0c0-0.79,0-1.58,0-2.37c0-0.4,0-0.79,0-1.19
			C4.6,36,4.6,35.74,4.6,35.47z"/>
		<path fill="#211F30" d="M1.04,39.82c0.39,0,0.79,0,1.19,0c0,2.91,0,5.81,0,8.71c0,0.79,0,1.58,0,2.37c-0.27,0-0.53,0-0.8,0
			c-0.39,0-0.78,0-1.18,0c0-3.69,0-7.381,0-11.081C0.51,39.82,0.78,39.82,1.04,39.82z"/>
	</g>
	<g>
	</g>
</g>
</svg>
