<?xml version="1.0" encoding="utf-8"?>
<!-- Generator: Adobe Illustrator 15.0.0, SVG Export Plug-In  -->
<!DOCTYPE svg PUBLIC "-//W3C//DTD SVG 1.1//EN" "http://www.w3.org/Graphics/SVG/1.1/DTD/svg11.dtd" [
	<!ENTITY ns_flows "http://ns.adobe.com/Flows/1.0/">
]>
<svg version="1.1"
	 xmlns="http://www.w3.org/2000/svg" xmlns:xlink="http://www.w3.org/1999/xlink" xmlns:a="http://ns.adobe.com/AdobeSVGViewerExtensions/3.0/"
	 x="0px" y="0px" width="95px" height="140px" viewBox="-7.27 -34.04 95 140" enable-background="new -7.27 -34.04 95 140"
	 xml:space="preserve">
<defs>
</defs>
<path fill="#211F30" d="M65.47,77.78c0,0.1,0,0.199,0,0.3c0,0.1,0,0.2,0,0.3c0,0.229,0,0.47,0,0.7c0,0.47,0,0.939,0,1.399
	c0,0.9,0,1.811,0,2.71c0,0.9,0,1.811,0,2.71c0,0.931,0,1.87,0,2.811c0,0.1,0,0.2,0,0.3c-0.94,0-1.87,0-2.811,0c0-0.47,0-0.94,0-1.41
	c0-0.46,0-0.93,0-1.399c0-0.94,0-1.87,0-2.811c0-0.47,0-0.93,0-1.399c0-0.24,0-0.471,0-0.7c0-0.24,0-0.471,0-0.7
	c0-0.47,0-0.94,0-1.41s0-0.939,0-1.399C63.6,77.78,64.53,77.78,65.47,77.78z"/>
<path fill="#211F30" d="M62.66,89.01c0,0.43,0,0.87,0,1.3c0,0.44,0,0.87,0,1.311c0,0.899,0,1.8,0,2.699c0,0.101,0,0.2,0,0.301
	c-0.93,0-1.87,0-2.81,0c0-0.431,0-0.86,0-1.301c0-0.43,0-0.869,0-1.3c0-0.91,0-1.81,0-2.71c0-0.1,0-0.2,0-0.3
	C60.79,89.01,61.73,89.01,62.66,89.01z"/>
<path fill="#211F30" d="M62.36,72.16c0.101,0,0.2,0,0.3,0c0,0.029,0,0.069,0,0.1c0,0.43,0,0.87,0,1.3c0,0.471,0,0.94,0,1.41
	c0,0.93,0,1.87,0,2.811c-0.93,0-1.87,0-2.81,0c0-0.94,0-1.881,0-2.811c0-0.939,0-1.87,0-2.81C60.69,72.16,61.53,72.16,62.36,72.16z"
	/>
<path fill="#858D99" d="M57.05,72.16c0.93,0,1.87,0,2.8,0c0,0.939,0,1.87,0,2.81c0,0.93,0,1.87,0,2.811c-0.93,0-1.87,0-2.8,0
	c0-0.471,0-0.94,0-1.41c0-0.471,0-0.931,0-1.4s0-0.939,0-1.41C57.05,73.1,57.05,72.63,57.05,72.16z"/>
<path fill="#211F30" d="M59.85,94.62c0,0.84,0,1.68,0,2.51c0,0.1,0,0.2,0,0.3c-0.93,0-1.87,0-2.8,0c0-0.83,0-1.67,0-2.51
	c0-0.09,0-0.2,0-0.3C57.98,94.62,58.92,94.62,59.85,94.62z"/>
<path fill="#211F30" d="M59.56,69.35c0.1,0,0.2,0,0.29,0c0,0.94,0,1.87,0,2.811c-0.93,0-1.87,0-2.8,0c0-0.94,0-1.87,0-2.811
	C57.88,69.35,58.72,69.35,59.56,69.35z"/>
<path fill="#858D99" d="M57.05,83.39c0,0.94,0,1.87,0,2.811c-1.87,0-3.75,0-5.62,0c0-0.101,0-0.2,0-0.301c0-1.67,0-3.34,0-5.02
	c0-0.1,0-0.2,0-0.29c1.77,0,3.55,0,5.319,0c0.101,0,0.2,0,0.301,0c0,0.03,0,0.06,0,0.09c0,0.04,0,0.07,0,0.101
	c0,0.069,0,0.14,0,0.21c0,0.1,0,0.199,0,0.3c0,0.09,0,0.2,0,0.3c0,0.13,0,0.26,0,0.4C57.05,82.46,57.05,82.92,57.05,83.39z"/>
<path fill="#858D99" d="M57.05,69.35c0,0.94,0,1.87,0,2.811c-0.84,0-1.67,0-2.511,0c-0.1,0-0.199,0-0.3,0c0-0.94,0-1.87,0-2.811
	C55.18,69.35,56.11,69.35,57.05,69.35z"/>
<path fill="#858D99" d="M54.24,74.97c0,0.93,0,1.87,0,2.811c-0.939,0-1.87,0-2.81,0c0-0.94,0-1.881,0-2.811
	C52.37,74.97,53.3,74.97,54.24,74.97z"/>
<path fill="#211F30" d="M51.43,66.54c1.87,0,3.75,0,5.62,0c0,0.24,0,0.47,0,0.71c0,0.229,0,0.46,0,0.7c0,0.47,0,0.93,0,1.399
	c-0.94,0-1.87,0-2.811,0c-0.939,0-1.87,0-2.81,0C51.43,68.42,51.43,67.479,51.43,66.54z"/>
<path fill="#AFBBC3" d="M40.1,80.59c0.5,0,1,0,1.5,0c0.47,0,0.939,0,1.41,0c0.47,0,0.93,0,1.399,0c0.471,0,0.94,0,1.41,0
	c0.93,0,1.87,0,2.8,0h2.811c0,0.09,0,0.19,0,0.29c0,1.68,0,3.35,0,5.02c0,0.101,0,0.2,0,0.301c1.87,0,3.75,0,5.62,0
	c0,0.939,0,1.869,0,2.81c-0.94,0-1.87,0-2.811,0c0,0.93,0,1.87,0,2.81c-1.87,0-3.74,0-5.62,0c0,0.931,0,1.87,0,2.801
	c-0.5,0-1,0-1.5,0c-0.47,0-0.939,0-1.409,0c-0.931,0-1.87,0-2.801,0c-0.47,0-0.939,0-1.41,0v-2.801c0.471,0,0.94,0,1.41,0
	c0-0.909,0-1.81,0-2.71c0-0.239,0-0.47,0-0.699c0-0.2,0-0.41,0-0.61c0-0.23,0-0.46,0-0.7c0-0.2,0-0.399,0-0.6c0-0.101,0-0.2,0-0.3
	c-0.939,0-1.87,0-2.81,0c0-0.94,0-1.87,0-2.811V80.59z"/>
<path fill="#858D99" d="M51.13,100.24c0.1,0,0.199,0,0.3,0c0,0.97,0,1.939,0,2.909c-0.931,0-1.87,0-2.811,0c0-0.229,0-0.47,0-0.71
	c0-0.229,0-0.46,0-0.699c0-0.101,0-0.19,0-0.301c0-0.13,0-0.26,0-0.399c0-0.23,0-0.471,0-0.7c0-0.03,0-0.07,0-0.1
	C49.46,100.24,50.29,100.24,51.13,100.24z"/>
<path fill="#858D99" d="M48.62,77.78c0,0.93,0,1.869,0,2.81c-0.93,0-1.87,0-2.8,0c0-0.94,0-1.88,0-2.81
	C46.75,77.78,47.69,77.78,48.62,77.78z"/>
<path fill="#211F30" d="M48.62,103.149c0.94,0,1.88,0,2.811,0c0,0.471,0,0.931,0,1.4s0,0.94,0,1.41c-0.931,0-1.87,0-2.811,0
	c-0.93,0-1.87,0-2.8,0c0-0.101,0-0.2,0-0.3c0-0.11,0-0.21,0-0.311c0-0.1,0-0.2,0-0.3c0-0.13,0-0.26,0-0.4c0-0.1,0-0.199,0-0.3
	c0-0.13,0-0.27,0-0.399c0-0.101,0-0.2,0-0.301c0-0.14,0-0.27,0-0.399c0-0.03,0-0.07,0-0.101
	C46.75,103.149,47.69,103.149,48.62,103.149z"/>
<path fill="#63677A" d="M48.62,101.74c0,0.239,0,0.47,0,0.699c0,0.24,0,0.48,0,0.71c-0.93,0-1.87,0-2.8,0c0-0.47,0-0.939,0-1.409
	c0-0.5,0-1,0-1.5c0.93,0,1.87,0,2.8,0c0,0.029,0,0.069,0,0.1c0,0.229,0,0.47,0,0.7c0,0.14,0,0.27,0,0.399
	C48.62,101.55,48.62,101.64,48.62,101.74z"/>
<path fill="#63677A" d="M41.6,80.59c-0.5,0-1,0-1.5,0c0-0.94,0-1.88,0-2.81c0.47,0,0.939,0,1.399,0c0.471,0,0.94,0,1.41,0
	c0.471,0,0.931,0,1.4,0c0.1,0,0.2,0,0.3,0c0.14,0,0.271,0,0.4,0c0.1,0,0.2,0,0.3,0c0.14,0,0.27,0,0.4,0c0.039,0,0.069,0,0.109,0
	c0,0.93,0,1.869,0,2.81c-0.47,0-0.939,0-1.41,0c-0.47,0-0.93,0-1.399,0C42.54,80.59,42.07,80.59,41.6,80.59z"/>
<path fill="#858D99" d="M40.1,91.21c0-0.101,0-0.2,0-0.3c0-0.13,0-0.261,0-0.4c0-0.1,0-0.2,0-0.3c0-0.101,0-0.2,0-0.3
	c0-0.101,0-0.2,0-0.301c0-0.13,0-0.27,0-0.399c0-0.101,0-0.2,0-0.3c0-0.101,0-0.2,0-0.301c0-0.1,0-0.199,0-0.31
	c0-0.13,0-0.26,0-0.39c0-0.471,0-0.94,0-1.41c0-0.101,0-0.2,0-0.3c0.939,0,1.87,0,2.81,0c0,0.1,0,0.199,0,0.3c0,0.2,0,0.399,0,0.6
	c0,0.24,0,0.47,0,0.7c0,0.2,0,0.41,0,0.61c0,0.229,0,0.46,0,0.699c0,0.9,0,1.801,0,2.71c-0.47,0-0.939,0-1.41,0
	c-0.47,0-0.93,0-1.399,0c0-0.1,0-0.199,0-0.31C40.1,91.41,40.1,91.31,40.1,91.21z"/>
<path d="M40.4,74.97c0.83,0,1.67,0,2.51,0c0.101,0,0.2,0,0.301,0c0.1,0,0.199,0,0.3,0c0.229,0,0.47,0,0.7,0c0.1,0,0.199,0,0.3,0
	c0.1,0,0.2,0,0.3,0s0.2,0,0.3,0c0.14,0,0.271,0,0.4,0c0.1,0,0.2,0,0.31,0c0,0.93,0,1.87,0,2.811c-0.04,0-0.07,0-0.109,0
	c-0.131,0-0.261,0-0.4,0c-0.1,0-0.2,0-0.3,0c-0.13,0-0.261,0-0.4,0c-0.1,0-0.2,0-0.3,0c-0.47,0-0.93,0-1.4,0c-0.47,0-0.939,0-1.41,0
	c-0.46,0-0.93,0-1.399,0c0-0.94,0-1.881,0-2.811C40.2,74.97,40.3,74.97,40.4,74.97z"/>
<path fill="#63677A" d="M42.91,74.97c-0.84,0-1.68,0-2.51,0c-0.1,0-0.2,0-0.3,0c0,0.93,0,1.87,0,2.811c-0.94,0-1.87,0-2.81,0
	c0-0.471,0-0.94,0-1.41c0-0.471,0-0.931,0-1.4s0-0.939,0-1.41c0-0.46,0-0.93,0-1.399c0.94,0,1.87,0,2.81,0c0.47,0,0.939,0,1.399,0
	c0.471,0,0.94,0,1.41,0c0.931,0,1.87,0,2.801,0c0.47,0,0.939,0,1.409,0c0.5,0,1,0,1.5,0c0,0.1,0,0.199,0,0.3c0,0.1,0,0.2,0,0.3
	s0,0.2,0,0.3c0,0.141,0,0.271,0,0.4c0,0.1,0,0.21,0,0.3c0,0.11,0,0.21,0,0.31c0,0.23,0,0.461,0,0.7c0,0.101,0,0.2,0,0.3
	c0,0.101,0,0.2,0,0.301c0,0.1,0,0.199,0,0.3c0,0.13,0,0.27,0,0.399c0,0.101,0,0.2,0,0.301c0,0.14,0,0.27,0,0.399
	c0,0.24,0,0.471,0,0.71c0,0.09,0,0.19,0,0.301c-0.93,0-1.87,0-2.8,0c0-0.94,0-1.881,0-2.811c-0.109,0-0.21,0-0.31,0
	c-0.13,0-0.261,0-0.4,0c-0.1,0-0.2,0-0.3,0s-0.2,0-0.3,0c-0.101,0-0.2,0-0.3,0c-0.23,0-0.471,0-0.7,0c-0.101,0-0.2,0-0.3,0
	C43.11,74.97,43.01,74.97,42.91,74.97z"/>
<path fill="#858D99" d="M40.1,77.78c0,0.93,0,1.869,0,2.81c-0.94,0-1.87,0-2.81,0c0-0.94,0-1.88,0-2.81
	C38.23,77.78,39.16,77.78,40.1,77.78z"/>
<path fill="#63677A" d="M35.89,86.2c-1.41,0-2.81,0-4.21,0c0-0.94,0-1.87,0-2.811c0.93,0,1.86,0,2.8,0c0.47,0,0.94,0,1.41,0
	c1.4,0,2.81,0,4.21,0c0,0.94,0,1.87,0,2.811c-0.101,0-0.2,0-0.3,0c-0.1,0-0.2,0-0.3,0c-0.07,0-0.14,0-0.2,0c-0.1,0-0.2,0-0.3,0
	c-0.07,0-0.14,0-0.21,0c-0.09,0-0.2,0-0.3,0c-0.06,0-0.13,0-0.2,0c-0.1,0-0.2,0-0.3,0C37.29,86.2,36.59,86.2,35.89,86.2z"/>
<path fill="#211F30" d="M28.87,103.149c0.93,0,1.87,0,2.81,0c0.93,0,1.87,0,2.8,0c0,0.471,0,0.931,0,1.4s0,0.94,0,1.41
	c-0.93,0-1.87,0-2.8,0c-0.94,0-1.88,0-2.81,0c0-0.47,0-0.94,0-1.41S28.87,103.62,28.87,103.149z"/>
<path fill="#858D99" d="M31.68,77.78c0.93,0,1.87,0,2.8,0c0,0.93,0,1.869,0,2.81c-0.93,0-1.87,0-2.8,0
	C31.68,79.649,31.68,78.71,31.68,77.78z"/>
<path fill="#FFFFFF" d="M30.97,66.54c0.71,0,1.41,0,2.11,0c0.7,0,1.4,0,2.11,0c0.7,0,1.4,0,2.1,0c0,0.939,0,1.88,0,2.81
	c-1.4,0-2.81,0-4.21,0s-2.81,0-4.21,0c0-0.93,0-1.87,0-2.81C29.57,66.54,30.27,66.54,30.97,66.54z"/>
<path fill="#63677A" d="M31.68,101.439c0-0.13,0-0.26,0-0.399c0-0.23,0-0.471,0-0.7c0-0.03,0-0.07,0-0.1c0.4,0,0.8,0,1.2,0
	c0.1,0,0.2,0,0.3,0c0.1,0,0.2,0,0.3,0c0.23,0,0.47,0,0.7,0c0.1,0,0.2,0,0.3,0c0,0.029,0,0.069,0,0.1c0,0.229,0,0.47,0,0.7
	c0,0.1,0,0.2,0,0.3c0,0.14,0,0.27,0,0.4c0,0.47,0,0.939,0,1.409c-0.93,0-1.87,0-2.8,0c0-0.1,0-0.199,0-0.3c0-0.14,0-0.27,0-0.41
	c0-0.09,0-0.189,0-0.3c0-0.13,0-0.26,0-0.399C31.68,101.64,31.68,101.55,31.68,101.439z"/>
<path fill="#211F30" d="M30.97,66.54c-0.7,0-1.4,0-2.1,0c0-0.23,0-0.46,0-0.7c0-0.23,0-0.47,0-0.7c0-0.47,0-0.939,0-1.399
	c0.93,0,1.87,0,2.81,0c0.46,0,0.93,0,1.4,0c0.47,0,0.94,0,1.4,0c0.94,0,1.87,0,2.81,0c0.47,0,0.94,0,1.41,0c0.46,0,0.93,0,1.4,0
	c0.939,0,1.87,0,2.81,0c0.471,0,0.931,0,1.4,0s0.939,0,1.4,0c0.939,0,1.88,0,2.81,0c0.97,0,1.94,0,2.91,0c0,0.46,0,0.93,0,1.399
	s0,0.94,0,1.4c-0.13,0-0.271,0-0.4,0c-0.069,0-0.13,0-0.2,0c-0.13,0-0.27,0-0.399,0c-0.3,0-0.601,0-0.9,0c-0.31,0-0.609,0-0.91,0
	c-0.26,0-0.529,0-0.8,0c-0.6,0-1.2,0-1.8,0c-0.31,0-0.61,0-0.91,0c-0.26,0-0.53,0-0.8,0c-0.6,0-1.2,0-1.8,0c-0.311,0-0.61,0-0.91,0
	c-0.26,0-0.53,0-0.8,0c-0.601,0-1.2,0-1.8,0c-0.3,0-0.61,0-0.91,0c-0.26,0-0.53,0-0.8,0c-0.7,0-1.4,0-2.1,0c-0.71,0-1.41,0-2.11,0
	C32.38,66.54,31.68,66.54,30.97,66.54z"/>
<path fill="#858D99" d="M28.87,91.51c0-0.2,0-0.4,0-0.6c0-0.23,0-0.46,0-0.7c0-0.2,0-0.4,0-0.601c0-0.229,0-0.47,0-0.699
	c0-0.2,0-0.4,0-0.61c0-0.23,0-0.46,0-0.7c0-0.46,0-0.93,0-1.399c0.93,0,1.87,0,2.81,0c0,0.029,0,0.069,0,0.1c0,0.13,0,0.27,0,0.4
	c0,0.069,0,0.13,0,0.199c0,0.101,0,0.2,0,0.301c0,0.14,0,0.27,0,0.399c0,0.47,0,0.94,0,1.41c0,0.23,0,0.47,0,0.7c0,0.1,0,0.2,0,0.3
	c0,0.13,0,0.271,0,0.4c0,0.239,0,0.47,0,0.699c0,0.24,0,0.471,0,0.71c-0.94,0-1.88,0-2.81,0C28.87,91.72,28.87,91.62,28.87,91.51z"
	/>
<path fill="#858D99" d="M28.87,103.149c0-0.47,0-0.939,0-1.409c0-0.5,0-1,0-1.5c0.93,0,1.87,0,2.81,0c0,0.029,0,0.069,0,0.1
	c0,0.229,0,0.47,0,0.7c0,0.14,0,0.27,0,0.399c0,0.11,0,0.2,0,0.301c0,0.14,0,0.27,0,0.399c0,0.11,0,0.21,0,0.3
	c0,0.141,0,0.271,0,0.41c0,0.101,0,0.2,0,0.3C30.74,103.149,29.8,103.149,28.87,103.149z"/>
<path fill="#AFBBC3" d="M54.24,77.78c0-0.94,0-1.881,0-2.811c-0.939,0-1.87,0-2.81,0c0,0.93,0,1.87,0,2.811
	C52.37,77.78,53.3,77.78,54.24,77.78z M28.87,69.35c1.4,0,2.81,0,4.21,0s2.81,0,4.21,0c0-0.93,0-1.87,0-2.81c0.27,0,0.54,0,0.8,0
	c0.3,0,0.61,0,0.91,0c0.6,0,1.2,0,1.8,0c0.27,0,0.54,0,0.8,0c0.3,0,0.6,0,0.91,0c0.6,0,1.2,0,1.8,0c0.27,0,0.54,0,0.8,0
	c0.3,0,0.601,0,0.91,0c0.6,0,1.2,0,1.8,0c0.271,0,0.54,0,0.8,0c0.301,0,0.601,0,0.91,0c0.3,0,0.601,0,0.9,0c0.13,0,0.27,0,0.399,0
	c0.07,0,0.131,0,0.2,0c0.13,0,0.271,0,0.4,0c0,0.939,0,1.88,0,2.81c0.939,0,1.87,0,2.81,0c0,0.94,0,1.87,0,2.811
	c0.101,0,0.2,0,0.3,0c0.841,0,1.671,0,2.511,0c0,0.47,0,0.939,0,1.399c0,0.471,0,0.94,0,1.41s0,0.93,0,1.4c0,0.47,0,0.939,0,1.41
	c0.93,0,1.87,0,2.8,0c0,0.199,0,0.399,0,0.6c0,0.1,0,0.2,0,0.3c0,0.07,0,0.13,0,0.2c0,0.1,0,0.2,0,0.3c0,0.07,0,0.13,0,0.2
	c0,0.1,0,0.2,0,0.3c0,0.07,0,0.13,0,0.2c0,0.2,0,0.4,0,0.6c0,0.11,0,0.2,0,0.301c0,0.069,0,0.14,0,0.21c0,0.159,0,0.329,0,0.5
	c0,0.159,0,0.329,0,0.5c0,0.359,0,0.729,0,1.1c0,0.17,0,0.34,0,0.5c0,0.17,0,0.34,0,0.5c0,0.37,0,0.74,0,1.11c0,0.159,0,0.33,0,0.5
	c0,0.1,0,0.199,0,0.3c0,0.069,0,0.13,0,0.2c-0.93,0-1.87,0-2.8,0c0-0.94,0-1.87,0-2.811c0-0.47,0-0.93,0-1.399
	c0-0.141,0-0.271,0-0.4c0-0.1,0-0.21,0-0.3c0-0.101,0-0.2,0-0.3c0-0.07,0-0.141,0-0.21c0-0.03,0-0.061,0-0.101c0-0.03,0-0.06,0-0.09
	c-0.101,0-0.2,0-0.301,0c-1.77,0-3.55,0-5.319,0H48.62c0-0.94,0-1.88,0-2.81c0-0.11,0-0.211,0-0.301c0-0.239,0-0.47,0-0.71
	c0-0.13,0-0.26,0-0.399c0-0.101,0-0.2,0-0.301c0-0.13,0-0.27,0-0.399c0-0.101,0-0.2,0-0.3c0-0.101,0-0.2,0-0.301
	c0-0.1,0-0.199,0-0.3c0-0.239,0-0.47,0-0.7c0-0.1,0-0.199,0-0.31c0-0.09,0-0.2,0-0.3c0-0.13,0-0.26,0-0.4c0-0.1,0-0.2,0-0.3
	s0-0.2,0-0.3c0-0.101,0-0.2,0-0.3c-0.5,0-1,0-1.5,0c-0.47,0-0.939,0-1.409,0c-0.931,0-1.87,0-2.801,0c-0.47,0-0.939,0-1.41,0
	c-0.46,0-0.93,0-1.399,0c-0.94,0-1.87,0-2.81,0c0,0.47,0,0.939,0,1.399c0,0.471,0,0.94,0,1.41s0,0.93,0,1.4c0,0.47,0,0.939,0,1.41
	c0,0.93,0,1.869,0,2.81c0.94,0,1.87,0,2.81,0v2.8c-1.4,0-2.81,0-4.21,0c-0.47,0-0.94,0-1.41,0v-2.8c0-0.94,0-1.88,0-2.81
	c0-0.94,0-1.881,0-2.811c0-0.47,0-0.939,0-1.41c0-0.13,0-0.26,0-0.399c0-0.101,0-0.2,0-0.301c0-0.1,0-0.199,0-0.3
	c0-0.13,0-0.27,0-0.399c-0.1,0-0.2,0-0.3,0c-0.9,0-1.8,0-2.71,0c-0.13,0-0.26,0-0.4,0c-0.1,0-0.2,0-0.3,0s-0.2,0-0.3,0
	c-0.1,0-0.2,0-0.3,0c-0.13,0-0.27,0-0.4,0c-0.1,0-0.2,0-0.3,0c-0.1,0-0.2,0-0.3,0s-0.2,0-0.3,0C28.87,71.22,28.87,70.29,28.87,69.35
	z"/>
<path fill="#FFFFFF" d="M26.06,69.35c0.47,0,0.94,0,1.4,0c0.47,0,0.94,0,1.41,0c0,0.94,0,1.87,0,2.811c-0.47,0-0.94,0-1.41,0
	c-0.46,0-0.93,0-1.4,0c-0.94,0-1.87,0-2.81,0c0-0.94,0-1.87,0-2.811C24.19,69.35,25.12,69.35,26.06,69.35z"/>
<path d="M26.06,77.78c0-0.94,0-1.881,0-2.811c0.1,0,0.2,0,0.3,0c0.4,0,0.8,0,1.2,0c0.1,0,0.2,0,0.3,0s0.2,0,0.31,0
	c0.23,0,0.46,0,0.7,0c0.4,0,0.8,0,1.2,0c0.1,0,0.2,0,0.3,0s0.2,0,0.3,0s0.2,0,0.3,0c0.14,0,0.27,0,0.4,0c0.1,0,0.2,0,0.31,0
	c0,0.93,0,1.87,0,2.811c-0.04,0-0.07,0-0.11,0c-0.13,0-0.26,0-0.39,0c-0.11,0-0.21,0-0.31,0c-0.13,0-0.26,0-0.4,0
	c-0.1,0-0.2,0-0.3,0c-0.47,0-0.94,0-1.4,0c-0.47,0-0.94,0-1.41,0c-0.13,0-0.26,0-0.4,0c-0.1,0-0.2,0-0.3,0c-0.1,0-0.2,0-0.3,0
	S26.16,77.78,26.06,77.78z"/>
<path fill="#63677A" d="M28.87,80.59c-0.94,0-1.87,0-2.81,0c0-0.94,0-1.88,0-2.81c0.1,0,0.2,0,0.3,0s0.2,0,0.3,0c0.1,0,0.2,0,0.3,0
	c0.14,0,0.27,0,0.4,0c0.47,0,0.94,0,1.41,0c0.46,0,0.93,0,1.4,0c0.1,0,0.2,0,0.3,0c0.14,0,0.27,0,0.4,0c0.1,0,0.2,0,0.31,0
	c0.13,0,0.26,0,0.39,0c0.04,0,0.07,0,0.11,0c0,0.93,0,1.869,0,2.81c-0.47,0-0.94,0-1.41,0C29.8,80.59,29.33,80.59,28.87,80.59z"/>
<path fill="#63677A" d="M26.36,74.97c-0.1,0-0.2,0-0.3,0c0,0.93,0,1.87,0,2.811c-0.94,0-1.87,0-2.81,0c0-0.94,0-1.881,0-2.811
	c0-0.939,0-1.87,0-2.81c0.94,0,1.87,0,2.81,0c0.47,0,0.94,0,1.4,0c0.47,0,0.94,0,1.41,0c0.1,0,0.2,0,0.3,0s0.2,0,0.3,0
	c0.1,0,0.2,0,0.3,0c0.13,0,0.27,0,0.4,0c0.1,0,0.2,0,0.3,0c0.1,0,0.2,0,0.3,0s0.2,0,0.3,0c0.14,0,0.27,0,0.4,0c0.91,0,1.81,0,2.71,0
	c0.1,0,0.2,0,0.3,0c0,0.13,0,0.27,0,0.399c0,0.101,0,0.2,0,0.3c0,0.101,0,0.2,0,0.301c0,0.14,0,0.27,0,0.399c0,0.471,0,0.94,0,1.41
	c0,0.93,0,1.87,0,2.811c-0.93,0-1.87,0-2.8,0c0-0.94,0-1.881,0-2.811c-0.11,0-0.21,0-0.31,0c-0.13,0-0.26,0-0.4,0
	c-0.1,0-0.2,0-0.3,0s-0.2,0-0.3,0s-0.2,0-0.3,0c-0.4,0-0.8,0-1.2,0c-0.24,0-0.47,0-0.7,0c-0.11,0-0.21,0-0.31,0s-0.2,0-0.3,0
	C27.16,74.97,26.76,74.97,26.36,74.97z"/>
<path fill="#858D99" d="M26.06,77.78c0,0.93,0,1.869,0,2.81c-0.94,0-1.87,0-2.81,0c0-0.94,0-1.88,0-2.81
	C24.19,77.78,25.12,77.78,26.06,77.78z"/>
<path fill="#211F30" d="M26.06,66.54c0.47,0,0.94,0,1.4,0c0.47,0,0.94,0,1.41,0c0,0.939,0,1.88,0,2.81c-0.47,0-0.94,0-1.41,0
	c-0.46,0-0.93,0-1.4,0c-0.94,0-1.87,0-2.81,0c0-0.399,0-0.8,0-1.2c0-0.199,0-0.399,0-0.6c0-0.24,0-0.47,0-0.71c0-0.09,0-0.2,0-0.3
	c0.14,0,0.27,0,0.4,0c0.1,0,0.2,0,0.3,0c0.1,0,0.2,0,0.3,0c0.14,0,0.27,0,0.4,0C25.12,66.54,25.59,66.54,26.06,66.54z"/>
<path fill="#211F30" d="M26.06,103.05c0-0.47,0-0.94,0-1.41c0-0.46,0-0.93,0-1.399c-0.1,0-0.2,0-0.3,0c-0.07,0-0.14,0-0.2,0
	c-0.1,0-0.2,0-0.3,0c-0.2,0-0.4,0-0.61,0c-0.06,0-0.13,0-0.2,0c-0.1,0-0.2,0-0.3,0c-0.2,0-0.4,0-0.6,0c-0.1,0-0.2,0-0.3,0
	c0-0.03,0-0.07,0-0.101s0-0.07,0-0.1c0-0.07,0-0.13,0-0.2c0-0.1,0-0.2,0-0.3c0-0.101,0-0.2,0-0.3c0-0.141,0-0.271,0-0.4
	c0-0.47,0-0.94,0-1.41c2.81,0,5.62,0,8.43,0c2.8,0,5.61,0,8.42,0c2.81,0,5.61,0,8.42,0c1.41,0,2.81,0,4.21,0c1.44,0,2.88,0,4.32,0
	c0,0.47,0,0.94,0,1.41c0,0.46,0,0.93,0,1.4c-0.94,0-1.87,0-2.811,0c0,0.1,0,0.199,0,0.3c0,0.069,0,0.13,0,0.2c0,0.1,0,0.199,0,0.3
	c0,0.2,0,0.399,0,0.6c0,0.4,0,0.8,0,1.21c0,0.101,0,0.2,0,0.3c-0.939,0-1.87,0-2.81,0c0-0.97,0-1.939,0-2.909c-0.101,0-0.2,0-0.3,0
	c-0.841,0-1.67,0-2.511,0c-0.93,0-1.87,0-2.8,0c0,0.5,0,1,0,1.5c0,0.47,0,0.939,0,1.409c-0.27,0-0.54,0-0.81,0
	c-0.23,0-0.471,0-0.7,0c-0.23,0-0.47,0-0.7,0c-0.229,0-0.47,0-0.7,0c0-0.47,0-0.939,0-1.409c0-0.23,0-0.46,0-0.7
	c0-0.13,0-0.271,0-0.4s0-0.27,0-0.399c-0.1,0-0.199,0-0.3,0c-0.24,0-0.47,0-0.71,0c-0.1,0-0.2,0-0.3,0c-0.101,0-0.2,0-0.3,0
	c-0.4,0-0.801,0-1.2,0c-0.14,0-0.271,0-0.4,0c-0.1,0-0.2,0-0.3,0s-0.2,0-0.3,0s-0.2,0-0.31,0c-0.4,0-0.8,0-1.2,0c-0.1,0-0.2,0-0.3,0
	c0,0.5,0,1,0,1.5c0,0.47,0,0.939,0,1.409c-0.94,0-1.87,0-2.81,0c0-0.47,0-0.939,0-1.409c0-0.131,0-0.261,0-0.4c0-0.1,0-0.2,0-0.3
	c0-0.23,0-0.471,0-0.7c0-0.03,0-0.07,0-0.1c-0.1,0-0.2,0-0.3,0c-0.23,0-0.47,0-0.7,0c-0.1,0-0.2,0-0.3,0c-0.1,0-0.2,0-0.3,0
	c-0.4,0-0.8,0-1.2,0c-0.94,0-1.88,0-2.81,0c0,0.5,0,1,0,1.5c0,0.47,0,0.939,0,1.409c-0.84,0-1.67,0-2.51,0c-0.1,0-0.2,0-0.3,0
	C26.06,103.109,26.06,103.08,26.06,103.05z"/>
<path fill="#211F30" d="M20.44,69.649c0-0.1,0-0.199,0-0.3c0.94,0,1.87,0,2.81,0c0,0.94,0,1.87,0,2.811c-0.94,0-1.87,0-2.81,0
	C20.44,71.319,20.44,70.49,20.44,69.649z"/>
<path fill="#FFFFFF" d="M20.44,72.16c0.94,0,1.87,0,2.81,0c0,0.939,0,1.87,0,2.81c-0.94,0-1.87,0-2.81,0
	C20.44,74.03,20.44,73.1,20.44,72.16z"/>
<path fill="#AFBBC3" d="M17.64,77.78c0.93,0,1.87,0,2.8,0c0-0.11,0-0.211,0-0.301c0-0.84,0-1.68,0-2.51c0.94,0,1.87,0,2.81,0
	c0,0.93,0,1.87,0,2.811c0,0.93,0,1.869,0,2.81c0.94,0,1.87,0,2.81,0s1.87,0,2.81,0c0.46,0,0.93,0,1.4,0c0.47,0,0.94,0,1.41,0
	c0.93,0,1.87,0,2.8,0v2.8c-0.94,0-1.87,0-2.8,0c0,0.94,0,1.87,0,2.811c-0.94,0-1.88,0-2.81,0c0,0.47,0,0.939,0,1.399
	c0,0.24,0,0.47,0,0.7c0,0.21,0,0.41,0,0.61c0,0.229,0,0.47,0,0.699c0,0.2,0,0.4,0,0.601c0,0.24,0,0.47,0,0.7c0,0.199,0,0.399,0,0.6
	c0,0.11,0,0.21,0,0.31c0.93,0,1.87,0,2.81,0c0-0.239,0-0.47,0-0.71c0-0.229,0-0.46,0-0.699c0-0.13,0-0.271,0-0.4c0-0.1,0-0.2,0-0.3
	c0-0.23,0-0.47,0-0.7c0-0.47,0-0.94,0-1.41c0-0.13,0-0.26,0-0.399c0-0.101,0-0.2,0-0.301c0-0.069,0-0.13,0-0.199
	c0-0.131,0-0.271,0-0.4c0-0.03,0-0.07,0-0.1c1.4,0,2.8,0,4.21,0c0.7,0,1.4,0,2.1,0c0.1,0,0.2,0,0.3,0c0.07,0,0.14,0,0.2,0
	c0.1,0,0.21,0,0.3,0c0.07,0,0.14,0,0.21,0c0.1,0,0.2,0,0.3,0c0.06,0,0.13,0,0.2,0c0.1,0,0.2,0,0.3,0c0.1,0,0.199,0,0.3,0
	c0,0.1,0,0.199,0,0.3c0,0.47,0,0.939,0,1.41c0,0.13,0,0.26,0,0.39c0,0.11,0,0.21,0,0.31c0,0.101,0,0.2,0,0.301c0,0.1,0,0.199,0,0.3
	c0,0.13,0,0.27,0,0.399c0,0.101,0,0.2,0,0.301c0,0.1,0,0.199,0,0.3c0,0.1,0,0.2,0,0.3c0,0.14,0,0.271,0,0.4c0,0.1,0,0.199,0,0.3
	c0,0.1,0,0.2,0,0.3c0,0.11,0,0.21,0,0.31c0.47,0,0.93,0,1.399,0v2.801c-0.46,0-0.93,0-1.399,0c-0.94,0-1.87,0-2.81,0
	c-0.47,0-0.94,0-1.4,0c-0.47,0-0.94,0-1.41,0c-0.93,0-1.87,0-2.8,0c-0.94,0-1.88,0-2.81,0c-0.94,0-1.87,0-2.81,0
	c0-0.9,0-1.801,0-2.7c0-0.04,0-0.07,0-0.101c-0.1,0-0.2,0-0.3,0c-0.9,0-1.81,0-2.71,0c-0.13,0-0.27,0-0.4,0c-0.1,0-0.2,0-0.3,0
	s-0.2,0-0.3,0c-0.1,0-0.2,0-0.3,0c-0.14,0-0.27,0-0.4,0c-0.1,0-0.2,0-0.31,0c-0.1,0-0.2,0-0.3,0c-0.1,0-0.2,0-0.3,0
	c0-0.939,0-1.88,0-2.81c0-0.94,0-1.87,0-2.81c-0.93,0-1.87,0-2.8,0c0-1.41,0-2.811,0-4.21C17.64,80.59,17.64,79.18,17.64,77.78z"/>
<path fill="#211F30" d="M23.25,97.43c-0.94,0-1.87,0-2.81,0c0-0.93,0-1.87,0-2.81c0.4,0,0.81,0,1.21,0c0.1,0,0.2,0,0.3,0
	c0.1,0,0.2,0,0.3,0s0.2,0,0.3,0c0.13,0,0.27,0,0.4,0c0.1,0,0.2,0,0.3,0c0,0.04,0,0.069,0,0.1c0,0.04,0,0.07,0,0.11
	c0,0.06,0,0.13,0,0.2c0,0.1,0,0.199,0,0.3c0,0.1,0,0.2,0,0.3c0,0.13,0,0.26,0,0.4C23.25,96.5,23.25,96.96,23.25,97.43z"/>
<path fill="#858D99" d="M22.95,94.62c-0.13,0-0.27,0-0.4,0c-0.1,0-0.2,0-0.3,0s-0.2,0-0.3,0c-0.1,0-0.2,0-0.3,0
	c-0.4,0-0.81,0-1.21,0c0-0.46,0-0.931,0-1.4s0-0.939,0-1.4c0.1,0,0.2,0,0.3,0c0.1,0,0.2,0,0.3,0c0.11,0,0.21,0,0.31,0
	c0.13,0,0.26,0,0.4,0c0.1,0,0.2,0,0.3,0c0.1,0,0.2,0,0.3,0s0.2,0,0.3,0c0.13,0,0.27,0,0.4,0c0.9,0,1.81,0,2.71,0c0.1,0,0.2,0,0.3,0
	c0,0.03,0,0.061,0,0.101c0,0.899,0,1.8,0,2.7c0.94,0,1.87,0,2.81,0c0.93,0,1.87,0,2.81,0c0.93,0,1.87,0,2.8,0c0.47,0,0.94,0,1.41,0
	c0.46,0,0.93,0,1.4,0c0.94,0,1.87,0,2.81,0c0.47,0,0.939,0,1.399,0c0.471,0,0.94,0,1.41,0c0.931,0,1.87,0,2.801,0
	c0.47,0,0.939,0,1.409,0c0.5,0,1,0,1.5,0c0-0.931,0-1.87,0-2.801c1.88,0,3.75,0,5.62,0c0-0.939,0-1.88,0-2.81c0.94,0,1.87,0,2.811,0
	c0-0.94,0-1.87,0-2.81c0.93,0,1.87,0,2.8,0c0-0.07,0-0.131,0-0.2c0-0.101,0-0.2,0-0.3c0-0.17,0-0.341,0-0.5c0-0.37,0-0.74,0-1.11
	c0-0.16,0-0.33,0-0.5c0-0.16,0-0.33,0-0.5c0-0.37,0-0.74,0-1.1c0-0.171,0-0.341,0-0.5c0-0.171,0-0.341,0-0.5c0-0.07,0-0.141,0-0.21
	c0-0.101,0-0.19,0-0.301c0-0.199,0-0.399,0-0.6c0-0.07,0-0.13,0-0.2c0-0.1,0-0.2,0-0.3c0-0.07,0-0.13,0-0.2c0-0.1,0-0.2,0-0.3
	c0-0.07,0-0.13,0-0.2c0-0.1,0-0.2,0-0.3c0-0.2,0-0.4,0-0.6c0.939,0,1.88,0,2.81,0c0,0.46,0,0.93,0,1.399s0,0.94,0,1.41
	c0,0.229,0,0.46,0,0.7c0,0.229,0,0.46,0,0.7c0,0.47,0,0.93,0,1.399c0,0.94,0,1.87,0,2.811c0,0.47,0,0.939,0,1.399
	c0,0.47,0,0.94,0,1.41c-0.93,0-1.87,0-2.81,0c0,0.1,0,0.2,0,0.3c0,0.9,0,1.8,0,2.71c0,0.431,0,0.87,0,1.3c0,0.44,0,0.87,0,1.301
	c-0.93,0-1.87,0-2.8,0c0,0.1,0,0.21,0,0.3c0,0.84,0,1.68,0,2.51c-1.44,0-2.88,0-4.32,0c-1.4,0-2.8,0-4.21,0c-2.81,0-5.61,0-8.42,0
	c-2.81,0-5.62,0-8.42,0c-2.81,0-5.62,0-8.43,0c0-0.47,0-0.93,0-1.399c0-0.141,0-0.271,0-0.4c0-0.1,0-0.2,0-0.3c0-0.101,0-0.2,0-0.3
	c0-0.07,0-0.141,0-0.2c0-0.04,0-0.07,0-0.11c0-0.03,0-0.06,0-0.1C23.15,94.62,23.05,94.62,22.95,94.62z"/>
<path fill="#211F30" d="M17.64,77.78c0-0.11,0-0.211,0-0.301c0-0.109,0-0.21,0-0.31c0-0.101,0-0.2,0-0.3c0-0.13,0-0.261,0-0.4
	c0-0.1,0-0.2,0-0.3c0-0.101,0-0.2,0-0.3c0-0.101,0-0.2,0-0.301c0-0.13,0-0.27,0-0.399c0-0.91,0-1.811,0-2.71c0-0.101,0-0.2,0-0.3
	c0.93,0,1.87,0,2.8,0c0,0.939,0,1.87,0,2.81c0,0.83,0,1.67,0,2.51c0,0.09,0,0.19,0,0.301C19.51,77.78,18.57,77.78,17.64,77.78z"/>
<path fill="#858D99" d="M17.64,86.2c0.93,0,1.87,0,2.8,0c0,0.939,0,1.869,0,2.81c-0.93,0-1.87,0-2.8,0
	C17.64,88.069,17.64,87.14,17.64,86.2z"/>
<path fill="#211F30" d="M17.64,91.72c0-0.91,0-1.81,0-2.71c0.93,0,1.87,0,2.8,0c0,0.93,0,1.87,0,2.81c0,0.461,0,0.931,0,1.4
	s0,0.94,0,1.4c-0.93,0-1.87,0-2.8,0c0-0.101,0-0.2,0-0.301c0-0.1,0-0.199,0-0.3c0-0.1,0-0.2,0-0.3s0-0.2,0-0.3c0-0.13,0-0.271,0-0.4
	c0-0.1,0-0.2,0-0.3s0-0.2,0-0.3c0-0.101,0-0.2,0-0.3C17.64,91.979,17.64,91.85,17.64,91.72z"/>
<path fill="#211F30" d="M17.64,81.99c0,1.399,0,2.8,0,4.21c0,0.939,0,1.869,0,2.81c-0.94,0-1.88,0-2.81,0c0-0.1,0-0.2,0-0.3
	c0-0.101,0-0.2,0-0.3c0-0.11,0-0.2,0-0.301c0-0.109,0-0.199,0-0.31c0-0.13,0-0.26,0-0.4c0-0.1,0-0.199,0-0.3c0-0.1,0-0.2,0-0.3
	s0-0.2,0-0.3c0-0.13,0-0.271,0-0.4c0-0.899,0-1.81,0-2.71c0-0.1,0-0.2,0-0.3s0-0.2,0-0.3c0-0.101,0-0.2,0-0.3c0-0.141,0-0.271,0-0.4
	c0-0.1,0-0.2,0-0.3c0-0.101,0-0.2,0-0.3c0-0.11,0-0.2,0-0.301c0-0.14,0-0.27,0-0.409c0-0.101,0-0.19,0-0.301c0-0.1,0-0.199,0-0.3
	c0-0.1,0-0.2,0-0.3c0-0.13,0-0.271,0-0.4c0-0.47,0-0.93,0-1.399c0-0.101,0-0.2,0-0.3c0.93,0,1.87,0,2.81,0
	C17.64,79.18,17.64,80.59,17.64,81.99z"/>
<g id="XMLID_2_">
	<g>
		<path fill="#211F30" d="M78.2,39.82c0.4,0,0.79,0,1.19,0c0,3.699,0,7.39,0,11.08c-0.79,0-1.59,0-2.38,0c0-3.69,0-7.381,0-11.08
			C77.41,39.82,77.8,39.82,78.2,39.82z"/>
		<path fill="#211F30" d="M77.01,50.9c0,1.449,0,2.909,0,4.359c-0.261,0-0.521,0-0.79,0c-0.391,0-0.79,0-1.19,0
			c0-0.27,0-0.53,0-0.79c0-0.399,0-0.8,0-1.189c0-0.79,0-1.58,0-2.38c0.271,0,0.53,0,0.8,0C76.22,50.9,76.62,50.9,77.01,50.9z"/>
		<path fill="#211F30" d="M77.01,33.49c0,0.27,0,0.53,0,0.79c0,0.4,0,0.8,0,1.19c0,0.27,0,0.53,0,0.79c0,0.4,0,0.79,0,1.19
			c0,0.79,0,1.58,0,2.37c-0.261,0-0.521,0-0.79,0c-0.391,0-0.79,0-1.19,0c0-0.391,0-0.79,0-1.181c0-0.399,0-0.8,0-1.189
			c0-0.26,0-0.53,0-0.79c0-0.4,0-0.79,0-1.19c0-1.45,0-2.9,0-4.35c0.271,0,0.53,0,0.8,0c0.391,0,0.79,0,1.181,0
			c0,0.39,0,0.79,0,1.19C77.01,32.7,77.01,33.1,77.01,33.49z"/>
		<path fill="#211F30" d="M72.66,31.12c0-2.24,0-4.49,0-6.73c0.79,0,1.58,0,2.37,0c0,0.4,0,0.79,0,1.19c0,0.26,0,0.53,0,0.79
			c0,0.53,0,1.06,0,1.58c0,1.06,0,2.11,0,3.17C74.24,31.12,73.45,31.12,72.66,31.12z"/>
		<path fill="#211F30" d="M72.66,56.44c0-0.391,0-0.79,0-1.181c0.79,0,1.58,0,2.37,0c0,0.26,0,0.521,0,0.79c0,0.391,0,0.79,0,1.18
			c-0.79,0-1.58,0-2.37,0C72.66,56.97,72.66,56.71,72.66,56.44z"/>
		<path fill="#211F30" d="M72.66,57.229c0,0.801,0,1.591,0,2.381c-1.449,0-2.899,0-4.35,0c0-0.79,0-1.58,0-2.381
			C69.76,57.229,71.21,57.229,72.66,57.229z"/>
		<path fill="#211F30" d="M72.66,21.23c0,0.39,0,0.79,0,1.18c0,0.27,0,0.53,0,0.8c0,0.39,0,0.79,0,1.18c-0.79,0-1.58,0-2.38,0
			c0-1.45,0-2.9,0-4.35c0.8,0,1.59,0,2.38,0C72.66,20.43,72.66,20.83,72.66,21.23z"/>
		<path fill="#211F30" d="M68.31,20.04c0-1.45,0-2.9,0-4.36c0.26,0,0.52,0,0.79,0c0.39,0,0.79,0,1.18,0c0,0.14,0,0.27,0,0.4
			c0,0.66,0,1.32,0,1.98c0,0.26,0,0.53,0,0.79c0,0.4,0,0.79,0,1.19c-0.26,0-0.52,0-0.79,0C69.1,20.04,68.7,20.04,68.31,20.04z"/>
		<path fill="#858D99" d="M68.31,35.47c0,0.27,0,0.53,0,0.79c0,0.4,0,0.79,0,1.19c-0.79,0-1.59,0-2.38,0c0-0.26,0-0.53,0-0.79
			c0-0.4,0-0.79,0-1.19C66.72,35.47,67.52,35.47,68.31,35.47z"/>
		<path fill="#211F30" d="M68.31,13.31c0,0.79,0,1.58,0,2.37c-0.79,0-1.59,0-2.38,0c0-0.79,0-1.58,0-2.37
			C66.72,13.31,67.52,13.31,68.31,13.31z"/>
		<path fill="#211F30" d="M64.75,11.34c0.391,0,0.79,0,1.181,0c0,0.26,0,0.52,0,0.79c0,0.39,0,0.79,0,1.18c-0.26,0-0.53,0-0.79,0
			c-0.391,0-0.79,0-1.19,0c0-0.26,0-0.52,0-0.79c0-0.39,0-0.79,0-1.18C64.22,11.34,64.48,11.34,64.75,11.34z"/>
		<path fill="#211F30" d="M61.58,8.96c0.79,0,1.58,0,2.37,0c0,0.79,0,1.58,0,2.38c-0.79,0-1.58,0-2.37,0
			C61.58,10.54,61.58,9.75,61.58,8.96z"/>
		<path fill="#858D99" d="M61.58,8.96c0,0.79,0,1.58,0,2.38c-0.26,0-0.529,0-0.79,0c-0.399,0-0.79,0-1.189,0c0-0.8,0-1.59,0-2.38
			c0.399,0,0.79,0,1.189,0C61.05,8.96,61.32,8.96,61.58,8.96z"/>
		<path fill="#858D99" d="M61.58,33.1c0,0.79,0,1.58,0,2.37c-0.26,0-0.529,0-0.79,0c-0.399,0-0.79,0-1.189,0c0-0.79,0-1.58,0-2.37
			c0.399,0,0.79,0,1.189,0C61.05,33.1,61.32,33.1,61.58,33.1z"/>
		<path fill="#211F30" d="M60.79,8.96c-0.399,0-0.79,0-1.189,0c0-0.79,0-1.58,0-2.37c0.26,0,0.53,0,0.79,0c0.399,0,0.79,0,1.189,0
			c0,0.79,0,1.58,0,2.37C61.32,8.96,61.05,8.96,60.79,8.96z"/>
		<path fill="#858D99" d="M59.6,6.59c0,0.79,0,1.58,0,2.37c-0.79,0-1.58,0-2.37,0c0-0.79,0-1.58,0-2.37
			C58.02,6.59,58.81,6.59,59.6,6.59z"/>
		<path fill="#858D99" d="M65.93,42.99c0,1.05,0,2.109,0,3.17c-0.53,0-1.05,0-1.58,0c-0.08,0.05-0.33-0.07-0.4,0
			c-0.05,0.04,0.021,0.319,0,0.39c-0.02,0.11,0,0.28,0,0.4c0,0.13,0,0.26,0,0.39c0,0.4,0,0.79,0,1.19c-0.39,0-0.79,0-1.18,0
			c-0.271,0-0.53,0-0.8,0c-0.391,0-0.79,0-1.181,0c-0.399,0-0.79,0-1.189,0c0-0.79,0-1.58,0-2.37c-0.39,0-0.79,0-1.19,0
			c-0.39,0-0.79,0-1.18,0c0-0.4,0-0.8,0-1.19c0-0.27,0-0.529,0-0.8c0-0.39,0-0.79,0-1.18c0-0.4,0-0.79,0-1.19c0.39,0,0.79,0,1.18,0
			c0.4,0,0.801,0,1.19,0c0-0.26,0-0.52,0-0.79c0-0.39,0-0.79,0-1.189c0.399,0,0.79,0,1.189,0c1.051,0,2.11,0,3.16,0
			c0,0.27,0,0.529,0,0.8c0,0.39,0,0.79,0,1.18c0.271,0,0.53,0,0.8,0c0.391,0,0.79,0,1.181,0C65.93,42.2,65.93,42.59,65.93,42.99z"/>
		<path fill="#211F30" d="M57.23,6.59c-0.27,0-0.53,0-0.79,0c-0.4,0-0.8,0-1.19,0c0-0.13,0-0.27,0-0.4c0-0.53,0-1.06,0-1.58
			c1.45,0,2.9,0,4.351,0c0,0.26,0,0.52,0,0.79c0,0.39,0,0.79,0,1.19C58.81,6.59,58.02,6.59,57.23,6.59z"/>
		<path fill="#FFFFFF" d="M52.87,11.34c0-0.8,0-1.59,0-2.38c0.801,0,1.591,0,2.38,0c0,0.79,0,1.58,0,2.38
			C54.46,11.34,53.67,11.34,52.87,11.34z"/>
		<path fill="#211F30" d="M55.25,4.61c-2.239,0-4.489,0-6.729,0c0-0.79,0-1.59,0-2.38c2.24,0,4.49,0,6.729,0
			C55.25,3.02,55.25,3.82,55.25,4.61z"/>
		<path fill="#FFFFFF" d="M46.15,8.96c0-0.79,0-1.58,0-2.37c0.79,0,1.58,0,2.37,0c0,0.79,0,1.58,0,2.37
			C47.73,8.96,46.94,8.96,46.15,8.96z"/>
		<path fill="#858D99" d="M46.15,39.82c0.79,0,1.58,0,2.37,0c0,0.27,0,0.529,0,0.8c0,0.39,0,0.79,0,1.18c-0.79,0-1.58,0-2.37,0
			c0-0.26,0-0.52,0-0.79C46.15,40.62,46.15,40.22,46.15,39.82z"/>
		<path fill="#858D99" d="M41,33.1c-0.39,0-0.79,0-1.18,0c0-0.53,0-1.06,0-1.59c0-0.13,0-0.26,0-0.39c0.26,0,0.52,0,0.79,0
			c0.39,0,0.79,0,1.19,0c0,0.26,0,0.53,0,0.79c0,0.4,0,0.79,0,1.19C41.53,33.1,41.27,33.1,41,33.1z"/>
		<path fill="#858D99" d="M39.82,15.68c0,1.46,0,2.91,0,4.36c-0.79,0-1.59,0-2.38,0c0-1.19,0-2.37,0-3.56c0-0.27,0-0.53,0-0.8
			C38.23,15.68,39.03,15.68,39.82,15.68z"/>
		<path fill="#63677A" d="M39.42,31.12c0.13,0,0.27,0,0.4,0c0,0.13,0,0.26,0,0.39c0,0.53,0,1.06,0,1.59c-1.06,0-2.11,0-3.17,0
			c-1.19,0-2.37,0-3.56,0c0-0.4,0-0.79,0-1.19c0-0.26,0-0.53,0-0.79c1.06,0,2.11,0,3.17,0c0.52,0,1.05,0,1.58,0
			C38.37,31.12,38.89,31.12,39.42,31.12z"/>
		<path d="M33.48,28.74c2.12,0,4.23,0,6.34,0c0,0.8,0,1.59,0,2.38c-0.13,0-0.27,0-0.4,0c-0.53,0-1.05,0-1.58,0
			c-0.53,0-1.06,0-1.58,0c-1.06,0-2.11,0-3.17,0c0-0.79,0-1.58,0-2.38C33.22,28.74,33.35,28.74,33.48,28.74z"/>
		<path fill="#63677A" d="M30.72,31.12c0-1.58,0-3.17,0-4.75c3.69,0,7.38,0,11.08,0c0,1.58,0,3.17,0,4.75c-0.4,0-0.801,0-1.19,0
			c-0.27,0-0.53,0-0.79,0c0-0.79,0-1.58,0-2.38c-2.11,0-4.22,0-6.34,0c-0.13,0-0.26,0-0.39,0c0,0.8,0,1.59,0,2.38
			C32.3,31.12,31.51,31.12,30.72,31.12z"/>
		<path fill="#858D99" d="M30.72,31.12c0.79,0,1.58,0,2.37,0c0,0.26,0,0.53,0,0.79c0,0.4,0,0.79,0,1.19c-0.79,0-1.58,0-2.37,0
			c0-0.27,0-0.53,0-0.79C30.72,31.91,30.72,31.51,30.72,31.12z"/>
		<path fill="#211F30" d="M48.52,2.23c-5.93,0-11.87,0-17.8,0c0-0.26,0-0.52,0-0.79c0-0.39,0-0.79,0-1.19c0.39,0,0.79,0,1.18,0
			c0.4,0,0.79,0,1.19,0c0.79,0,1.58,0,2.37,0c0.66,0,1.32,0,1.98,0c0.79,0,1.59,0,2.38,0c0.66,0,1.32,0,1.98,0c0.79,0,1.58,0,2.37,0
			c0.659,0,1.319,0,1.979,0c0.79,0,1.58,0,2.37,0c0,0.27,0,0.53,0,0.8C48.52,1.44,48.52,1.84,48.52,2.23z"/>
		<path fill="#211F30" d="M30.72,4.61c-2.11,0-4.22,0-6.33,0c0-0.79,0-1.59,0-2.38c2.11,0,4.22,0,6.33,0
			C30.72,3.02,30.72,3.82,30.72,4.61z"/>
		<path fill="#858D99" d="M32.3,11.34c0.53,0,1.05,0,1.58,0c0.27,0,0.53,0,0.79,0c0.14,0,0.27-0.01,0.4,0c0.13,0,0.26,0,0.39,0
			c0.4,0,0.8,0,1.19,0c0.27,0,0.53,0,0.79,0c0.13,0,0.27-0.01,0.4,0c0.13,0,0.26,0,0.39,0c0.14,0,0.27,0,0.4,0s0.27-0.02,0.4,0
			c0.12,0.01,0.26,0,0.39,0c0.05,0,0.37-0.04,0.4,0c0.06,0.07-0.06,0.3,0,0.39c0,0.13,0,0.26,0,0.4c0,0.26,0,0.52,0,0.79
			c-0.06,0.08,0.06,0.33,0,0.39c-0.05,0.05-0.33-0.02-0.4,0c-0.11,0.03-0.28,0-0.39,0c-0.13,0-0.27,0-0.4,0c-0.13,0.01-0.27,0-0.4,0
			s-0.26,0-0.39,0c-0.13,0-0.27,0-0.4,0s-0.26,0-0.39,0c-0.13,0-0.27,0-0.4,0s-0.26,0-0.39,0c-0.27,0-0.53,0-0.8,0
			c-0.13,0-0.26,0-0.39,0c-0.13,0-0.26,0-0.4,0c-0.39,0-0.79,0-1.19,0c-0.39,0-0.79,0-1.18,0c-0.4,0-0.79,0-1.19,0
			c-0.39,0-0.79,0-1.19,0c-0.13,0-0.26,0-0.39,0c-0.12,0-0.29,0.03-0.4,0c-0.07-0.02-0.34,0.05-0.39,0c-0.07-0.06,0.05-0.31,0-0.39
			c0-0.27,0-0.53,0-0.79c0-0.27,0-0.53,0-0.79c0.26,0,0.52,0,0.79,0c0.53,0,1.06,0,1.58,0C31.51,11.34,31.9,11.34,32.3,11.34z"/>
		<path fill="#858D99" d="M25.18,31.12c0.39,0,0.79,0,1.18,0c0,0.26,0,0.53,0,0.79c0,0.4,0,0.79,0,1.19c-0.26,0-0.52,0-0.79,0
			c-0.39,0-0.79,0-1.18,0c0-0.53,0-1.06,0-1.59c0-0.13,0-0.26,0-0.39C24.65,31.12,24.91,31.12,25.18,31.12z"/>
		<path fill="#858D99" d="M24.39,20.04c0-1.06,0-2.11,0-3.17c0-0.39,0-0.79,0-1.19c3.69,0,7.38,0,11.07,0c0,1.46,0,2.91,0,4.36
			C31.77,20.04,28.08,20.04,24.39,20.04z"/>
		<path fill="#FFFFFF" d="M24.39,8.96c0,0.79,0,1.58,0,2.38c-0.8,0-1.59,0-2.38,0c0-0.8,0-1.59,0-2.38
			C22.8,8.96,23.59,8.96,24.39,8.96z"/>
		<path fill="#211F30" d="M24.39,4.61c0,0.26,0,0.52,0,0.79c0,0.39,0,0.79,0,1.19c-1.46,0-2.91,0-4.36,0c0-0.27,0-0.53,0-0.8
			c0-0.39,0-0.79,0-1.18C21.48,4.61,22.93,4.61,24.39,4.61z"/>
		<path fill="#858D99" d="M36.26,44.17c-5.15,0-10.29,0-15.44,0c-0.26,0-0.52,0-0.79,0c0-0.79,0-1.58,0-2.37c5.41,0,10.82,0,16.23,0
			c0.39,0,0.79,0,1.18,0c0,0.271,0,0.53,0,0.79c0,0.53,0,1.061,0,1.58C37.05,44.17,36.65,44.17,36.26,44.17z"/>
		<path fill="#63677A" d="M24.39,31.12c0,0.13,0,0.26,0,0.39c0,0.53,0,1.06,0,1.59c-1.06,0-2.12,0-3.17,0c-1.19,0-2.38,0-3.56,0
			c0-0.4,0-0.79,0-1.19c0-0.26,0-0.53,0-0.79c1.05,0,2.11,0,3.16,0c0.53,0,1.06,0,1.59,0c0.52,0,1.05,0,1.58,0
			C24.12,31.12,24.25,31.12,24.39,31.12z"/>
		<path fill="#858D99" d="M20.03,51.7c0,0.39,0,0.79,0,1.18c-0.79,0-1.58,0-2.37,0c0-0.26,0-0.53,0-0.79c0-0.39,0-0.79,0-1.189
			c0.79,0,1.58,0,2.37,0C20.03,51.17,20.03,51.43,20.03,51.7z"/>
		<path fill="#211F30" d="M20.03,6.59c0,0.79,0,1.58,0,2.37c-0.79,0-1.58,0-2.37,0c0-0.79,0-1.58,0-2.37
			C18.45,6.59,19.24,6.59,20.03,6.59z"/>
		<path d="M18.05,28.74c2.11,0,4.22,0,6.34,0c0,0.8,0,1.59,0,2.38c-0.14,0-0.27,0-0.4,0c-0.53,0-1.06,0-1.58,0
			c-0.53,0-1.06,0-1.59,0c-1.05,0-2.11,0-3.16,0c0-0.79,0-1.58,0-2.38C17.79,28.74,17.92,28.74,18.05,28.74z"/>
		<path fill="#63677A" d="M26.36,26.37c0,1.58,0,3.17,0,4.75c-0.39,0-0.79,0-1.18,0c-0.27,0-0.53,0-0.79,0c0-0.79,0-1.58,0-2.38
			c-2.12,0-4.23,0-6.34,0c-0.13,0-0.26,0-0.39,0c0,0.8,0,1.59,0,2.38c-0.4,0-0.79,0-1.19,0c-0.26,0-0.53,0-0.79,0
			c0-1.58,0-3.17,0-4.75C19.24,26.37,22.8,26.37,26.36,26.37z"/>
		<path fill="#FFFFFF" d="M22.01,16.87c0,0.27,0,0.53,0,0.8c-1.45,0-2.9,0-4.35,0c0-1.46,0-2.91,0-4.36c1.18,0,2.37,0,3.56,0
			c0.26,0,0.53,0,0.79,0c0,0.4,0,0.79,0,1.19c0,0.26,0,0.53,0,0.79C22.01,15.82,22.01,16.35,22.01,16.87z"/>
		<path fill="#211F30" d="M17.66,8.96c0,0.79,0,1.58,0,2.38c-0.26,0-0.53,0-0.79,0c-0.4,0-0.79,0-1.19,0c0-0.8,0-1.59,0-2.38
			c0.26,0,0.53,0,0.79,0C16.87,8.96,17.26,8.96,17.66,8.96z"/>
		<path fill="#858D99" d="M17.66,31.91c0,0.4,0,0.79,0,1.19c-0.26,0-0.53,0-0.79,0c-0.4,0-0.79,0-1.19,0c0-0.27,0-0.53,0-0.79
			c0-0.4,0-0.8,0-1.19c0.26,0,0.53,0,0.79,0c0.4,0,0.79,0,1.19,0C17.66,31.38,17.66,31.65,17.66,31.91z"/>
		<path fill="#FFFFFF" d="M15.68,13.31c0,0.79,0,1.58,0,2.37c-0.79,0-1.58,0-2.37,0c0-0.79,0-1.58,0-2.37
			C14.1,13.31,14.89,13.31,15.68,13.31z"/>
		<path fill="#211F30" d="M15.68,12.13c0,0.39,0,0.79,0,1.18c-0.79,0-1.58,0-2.37,0c0-0.26,0-0.52,0-0.79c0-0.39,0-0.79,0-1.18
			c0.79,0,1.58,0,2.37,0C15.68,11.6,15.68,11.86,15.68,12.13z"/>
		<path fill="#211F30" d="M13.31,13.31c0,0.79,0,1.58,0,2.37c-0.8,0-1.59,0-2.38,0c0-0.79,0-1.58,0-2.37
			C11.72,13.31,12.51,13.31,13.31,13.31z"/>
		<path fill="#FFFFFF" d="M13.31,15.68c0,0.67,0,1.33,0,1.99c0,0.79,0,1.58,0,2.37c-0.8,0-1.59,0-2.38,0c0-1.45,0-2.9,0-4.36
			C11.72,15.68,12.51,15.68,13.31,15.68z"/>
		<path fill="#63677A" d="M26.36,37.45c0.4,0,0.79,0,1.19,0c0.4,0,0.79,0,1.19,0c0.66,0,1.32,0,1.98,0c0.39,0,0.79,0,1.18,0
			c0.4,0,0.79,0,1.19,0c0.66,0,1.32,0,1.98,0c0.39,0,0.79,0,1.19,0c0.39,0,0.79,0,1.18,0c0.66,0,1.32,0,1.98,0c0.4,0,0.79,0,1.19,0
			c0.13,0,0.26,0,0.39,0c0.141,0,0.271,0,0.4,0s0.26,0,0.4,0c0.13,0,0.26,0,0.39,0c0.26,0,0.53,0,0.79,0c0.13,0,0.27,0,0.4,0
			c0.13,0,0.26,0,0.39,0c0.14,0,0.27,0,0.4,0c0.13,0.01,0.26,0,0.39,0c0.14,0,0.27,0,0.4,0c0.13,0,0.27-0.021,0.399,0
			c0.13,0.01,0.26-0.01,0.39,0c0.061,0,0.36-0.04,0.4,0c0.061,0.069-0.05,0.31,0,0.39c0,0.4,0,0.8,0,1.19c0,0.27,0,0.529,0,0.79
			c-0.4,0-0.79,0-1.189,0c-0.4,0-0.79,0-1.19,0c-0.79,0-1.58,0-2.37,0c-0.26,0-0.53,0-0.79,0c-0.4,0-0.79,0-1.19,0
			c-0.79,0-1.58,0-2.37,0c-0.27,0-0.53,0-0.79,0c-0.4,0-0.8,0-1.19,0c-0.79,0-1.59,0-2.38,0c-0.26,0-0.52,0-0.79,0
			c-0.39,0-0.79,0-1.18,0c-0.8,0-1.59,0-2.38,0c-0.26,0-0.53,0-0.79,0c-0.4,0-0.79,0-1.19,0c-0.79,0-1.58,0-2.37,0
			c-0.26,0-0.53,0-0.79,0c-0.4,0-0.79,0-1.19,0c-0.79,0-1.58,0-2.37,0c-0.27,0-0.53,0-0.8,0c-0.39,0-0.79,0-1.18,0
			c-0.79,0-1.58,0-2.37,0c-0.27,0-0.53,0-0.8,0c-0.39,0-0.79,0-1.18,0c-0.8,0-1.59,0-2.38,0c0-0.13,0-0.261,0-0.391
			s0.01-0.26,0-0.399c0-0.13,0-0.261,0-0.391c0-0.14,0-0.27,0-0.399c0.01-0.13,0-0.261,0-0.4c0.01-0.05-0.04-0.35,0-0.39
			c0.07-0.07,0.32,0.05,0.4,0c0.66,0,1.32,0,1.98,0c0.39,0,0.79,0,1.18,0c0.4,0,0.8,0,1.19,0c0.66,0,1.32,0,1.98,0
			c0.39,0,0.79,0,1.18,0c0.4,0,0.8,0,1.19,0c0.66,0,1.32,0,1.98,0c0.4,0,0.79,0,1.19,0c0.39,0,0.79,0,1.19,0
			C25.04,37.45,25.7,37.45,26.36,37.45z"/>
		<path fill="#211F30" d="M32.69,63.96c-2.1,0-4.22,0-6.33,0c-1.18,0-2.37,0-3.56,0c-1.05,0-2.11,0-3.16,0c-2.11,0-4.22,0-6.33,0
			c0-0.79,0-1.58,0-2.37c-0.8,0-1.59,0-2.38,0c0-0.27,0-0.53,0-0.79c0-0.399,0-0.8,0-1.189c3.03,0,6.07,0,9.1,0
			c0,0.26,0,0.529,0,0.79c0,0.399,0,0.79,0,1.189c13.19,0,26.38,0,39.57,0c0-0.27,0-0.53,0-0.79c0-0.399,0-0.8,0-1.189
			c2.899,0,5.8,0,8.71,0c0,0.26,0,0.529,0,0.79c0,0.399,0,0.79,0,1.189c-0.53,0-1.061,0-1.59,0c-0.26,0-0.521,0-0.79,0
			c0,0.79,0,1.58,0,2.37c-4.48,0-8.97,0-13.45,0c-1.19,0-2.37,0-3.56,0c-1.061,0-2.11,0-3.171,0c-2.109,0-4.22,0-6.33,0
			c-1.19,0-2.37,0-3.56,0C34.81,63.96,33.75,63.96,32.69,63.96z"/>
		<path fill="#858D99" d="M10.93,52.88c0-1.45,0-2.9,0-4.35c1.58,0,3.17,0,4.75,0c0,1.449,0,2.899,0,4.35
			C14.1,52.88,12.51,52.88,10.93,52.88z"/>
		<path fill="#211F30" d="M9.74,15.68c0.4,0,0.8,0,1.19,0c0,1.46,0,2.91,0,4.36c-0.26,0-0.53,0-0.79,0c-0.4,0-0.79,0-1.19,0
			c0-1.45,0-2.9,0-4.36C9.22,15.68,9.48,15.68,9.74,15.68z"/>
		<path fill="#FFFFFF" d="M8.95,24.39c0-1.45,0-2.9,0-4.35c0.4,0,0.79,0,1.19,0c0.26,0,0.53,0,0.79,0c0,0.26,0,0.53,0,0.79
			c0,0.4,0,0.79,0,1.19c0,0.79,0,1.58,0,2.37c-0.13,0-0.26,0-0.39,0C10.01,24.39,9.48,24.39,8.95,24.39z"/>
		<path fill="#858D99" d="M9.74,39.82c0.4,0,0.8,0,1.19,0c0,0.27,0,0.529,0,0.8c0,0.39,0,0.79,0,1.18c-0.26,0-0.53,0-0.79,0
			c-0.4,0-0.79,0-1.19,0c0-0.26,0-0.52,0-0.79c0-0.39,0-0.79,0-1.189C9.22,39.82,9.48,39.82,9.74,39.82z"/>
		<path fill="#211F30" d="M6.58,20.04c0.79,0,1.58,0,2.37,0c0,1.45,0,2.9,0,4.35c-0.79,0-1.58,0-2.37,0
			C6.58,22.94,6.58,21.49,6.58,20.04z"/>
		<path fill="#211F30" d="M10.93,59.61c-1.45,0-2.9,0-4.35,0c0-0.79,0-1.58,0-2.381c1.45,0,2.9,0,4.35,0
			C10.93,58.03,10.93,58.82,10.93,59.61z"/>
		<path fill="#211F30" d="M6.58,27.56c0,1.18,0,2.37,0,3.56c-0.26,0-0.53,0-0.79,0c-0.4,0-0.8,0-1.19,0c0-2.24,0-4.49,0-6.73
			c0.26,0,0.53,0,0.79,0c0.4,0,0.79,0,1.19,0C6.58,25.45,6.58,26.5,6.58,27.56z"/>
		<path fill="#858D99" d="M4.6,55.26c0-1.45,0-2.91,0-4.359c0.26,0,0.53,0,0.79,0c0.4,0,0.79,0,1.19,0c0,0.14,0,0.27,0,0.399
			c0,0.53,0,1.05,0,1.58c1.45,0,2.9,0,4.35,0c0,0.79,0,1.59,0,2.38c3.03,0,6.07,0,9.1,0c0,0.26,0,0.521,0,0.79
			c0,0.391,0,0.79,0,1.18c10.16,0,20.31,0,30.47,0c0-0.26,0-0.52,0-0.789c0-0.391,0-0.79,0-1.181c3.03,0,6.07,0,9.101,0
			c0-0.79,0-1.59,0-2.38c0.399,0,0.79,0,1.189,0c0.261,0,0.53,0,0.79,0c0.391,0,0.79,0,1.19,0c0.39,0,0.79,0,1.18,0
			c0-0.26,0-0.53,0-0.79c0-0.39,0-0.79,0-1.189c0.141,0,0.271,0,0.4,0c0.53,0,1.05,0,1.58,0c0-1.58,0-3.16,0-4.74
			c0.79,0,1.59,0,2.38,0c0-2.12,0-4.23,0-6.34c0.26,0,0.52,0,0.79,0c0.39,0,0.79,0,1.18,0c0-0.261,0-0.521,0-0.79
			c0-1.19,0-2.37,0-3.561c0-1.45,0-2.9,0-4.35c-0.26,0-0.52,0-0.79,0c-0.39,0-0.79,0-1.18,0c0-2.24,0-4.49,0-6.73
			c-0.79,0-1.59,0-2.38,0c0-0.39,0-0.79,0-1.18c0-0.4,0-0.8,0-1.19c0-0.27,0-0.53,0-0.79c0-0.4,0-0.8,0-1.19c-0.26,0-0.53,0-0.79,0
			c-0.391,0-0.79,0-1.19,0c0-0.4,0-0.79,0-1.19c0-0.26,0-0.53,0-0.79c0-0.39,0-0.79,0-1.19c0-0.39,0-0.79,0-1.19
			c-0.79,0-1.58,0-2.37,0c0-0.39,0-0.79,0-1.18c0-1.06,0-2.11,0-3.16c0.79,0,1.58,0,2.37,0c0,0.39,0,0.79,0,1.18
			c0,0.27,0,0.53,0,0.79c0.4,0,0.8,0,1.19,0c0.26,0,0.53,0,0.79,0c0,0.79,0,1.58,0,2.37c0.79,0,1.59,0,2.38,0c0,1.46,0,2.91,0,4.36
			c0.39,0,0.79,0,1.18,0c0.271,0,0.53,0,0.79,0c0,1.45,0,2.9,0,4.35c0.8,0,1.59,0,2.38,0c0,2.24,0,4.49,0,6.73c0.79,0,1.58,0,2.37,0
			c0,1.45,0,2.9,0,4.35c0,0.4,0,0.79,0,1.19c0,0.26,0,0.53,0,0.79c0,0.39,0,0.79,0,1.189c0,0.391,0,0.79,0,1.181c0.4,0,0.8,0,1.19,0
			c0.27,0,0.529,0,0.79,0c0,3.699,0,7.39,0,11.08c-0.391,0-0.79,0-1.181,0c-0.27,0-0.529,0-0.8,0c0,0.8,0,1.59,0,2.38
			c0,0.39,0,0.79,0,1.189c0,0.26,0,0.521,0,0.79c-0.79,0-1.58,0-2.37,0c0,0.391,0,0.79,0,1.181c0,0.27,0,0.529,0,0.789
			c-1.449,0-2.899,0-4.35,0c0,0.801,0,1.591,0,2.381c-2.91,0-5.811,0-8.71,0c0,0.39,0,0.79,0,1.189c0,0.26,0,0.521,0,0.79
			c-13.19,0-26.38,0-39.57,0c0-0.399,0-0.79,0-1.189c0-0.261,0-0.53,0-0.79c-3.03,0-6.07,0-9.1,0c0-0.79,0-1.58,0-2.381
			c-1.45,0-2.9,0-4.35,0c0-0.39,0-0.789,0-1.18c0-0.27,0-0.53,0-0.79c-0.4,0-0.79,0-1.19,0C5.13,55.26,4.86,55.26,4.6,55.26z"/>
		<path fill="#211F30" d="M6.58,56.05c0,0.391,0,0.79,0,1.18c-0.26,0-0.53,0-0.79,0c-0.4,0-0.8,0-1.19,0c0-0.13,0-0.26,0-0.39
			c0-0.53,0-1.06,0-1.58c0.26,0,0.53,0,0.79,0c0.4,0,0.79,0,1.19,0C6.58,55.52,6.58,55.78,6.58,56.05z"/>
		<path fill="#858D99" d="M2.23,48.53c0.79,0,1.58,0,2.37,0c0,0.79,0,1.58,0,2.37c-0.79,0-1.58,0-2.37,0
			C2.23,50.11,2.23,49.32,2.23,48.53z"/>
		<path fill="#211F30" d="M2.23,54.07c0-0.4,0-0.79,0-1.19c0-0.26,0-0.53,0-0.79c0-0.39,0-0.79,0-1.189c0.79,0,1.58,0,2.37,0
			c0,1.449,0,2.909,0,4.359c-0.79,0-1.58,0-2.37,0C2.23,54.86,2.23,54.47,2.23,54.07z"/>
		<path fill="#211F30" d="M4.6,37.45c0,0.79,0,1.58,0,2.37c-0.79,0-1.58,0-2.37,0c0-0.261,0-0.521,0-0.79c0-0.391,0-0.79,0-1.19
			c0-0.79,0-1.58,0-2.37c0-1.45,0-2.9,0-4.35c0.79,0,1.58,0,2.37,0c0,0.26,0,0.53,0,0.79c0,0.4,0,0.79,0,1.19c0,0.79,0,1.58,0,2.37
			c0,0.27,0,0.53,0,0.79C4.6,36.66,4.6,37.05,4.6,37.45z"/>
		<path fill="#AFBBC3" d="M39.82,20.04c0-1.45,0-2.9,0-4.36c-0.79,0-1.59,0-2.38,0c0,0.27,0,0.53,0,0.8c0,1.19,0,2.37,0,3.56
			C38.23,20.04,39.03,20.04,39.82,20.04z M39.82,33.1c0.39,0,0.79,0,1.18,0c0.271,0,0.53,0,0.801,0c0-0.4,0-0.79,0-1.19
			c0-0.26,0-0.53,0-0.79c0-1.58,0-3.17,0-4.75c-3.7,0-7.39,0-11.08,0c0,1.58,0,3.17,0,4.75c0,0.39,0,0.79,0,1.19
			c0,0.26,0,0.52,0,0.79c0.79,0,1.58,0,2.37,0c1.19,0,2.37,0,3.56,0C37.71,33.1,38.76,33.1,39.82,33.1z M52.87,8.96
			c0,0.79,0,1.58,0,2.38c0.801,0,1.591,0,2.38,0c0-0.8,0-1.59,0-2.38C54.46,8.96,53.67,8.96,52.87,8.96z M46.15,6.59
			c0,0.79,0,1.58,0,2.37c0.79,0,1.58,0,2.37,0c0-0.79,0-1.58,0-2.37C47.73,6.59,46.94,6.59,46.15,6.59z M61.58,35.47
			c0-0.79,0-1.58,0-2.37c-0.26,0-0.529,0-0.79,0c-0.399,0-0.79,0-1.189,0c0,0.79,0,1.58,0,2.37c0.399,0,0.79,0,1.189,0
			C61.05,35.47,61.32,35.47,61.58,35.47z M65.93,36.66c0,0.26,0,0.53,0,0.79c0.79,0,1.59,0,2.38,0c0-0.4,0-0.79,0-1.19
			c0-0.26,0-0.52,0-0.79c-0.79,0-1.59,0-2.38,0C65.93,35.87,65.93,36.26,65.93,36.66z M32.3,13.31c0.39,0,0.79,0,1.18,0
			c0.4,0,0.8,0,1.19,0c0.14,0,0.27,0,0.4,0c0.13,0,0.26,0,0.39,0c0.27,0,0.53,0,0.8,0c0.13,0,0.26,0,0.39,0s0.27,0,0.4,0
			c0.13,0,0.26,0,0.39,0s0.27,0,0.4,0c0.13,0,0.26,0,0.39,0s0.27,0.01,0.4,0c0.13,0,0.27,0,0.4,0c0.11,0,0.28,0.03,0.39,0
			c0.07-0.02,0.35,0.05,0.4,0c0.06-0.06-0.06-0.31,0-0.39c0-0.27,0-0.53,0-0.79c0-0.14,0-0.27,0-0.4c-0.06-0.09,0.06-0.32,0-0.39
			c-0.03-0.04-0.35,0-0.4,0c-0.13,0-0.27,0.01-0.39,0c-0.13-0.02-0.27,0-0.4,0s-0.26,0-0.4,0c-0.13,0-0.26,0-0.39,0
			c-0.13-0.01-0.27,0-0.4,0c-0.26,0-0.52,0-0.79,0c-0.39,0-0.79,0-1.19,0c-0.13,0-0.26,0-0.39,0c-0.13-0.01-0.26,0-0.4,0
			c-0.26,0-0.52,0-0.79,0c-0.53,0-1.05,0-1.58,0c-0.4,0-0.79,0-1.19,0c-0.52,0-1.05,0-1.58,0c-0.27,0-0.53,0-0.79,0
			c0,0.26,0,0.52,0,0.79c0,0.26,0,0.52,0,0.79c0.05,0.08-0.07,0.33,0,0.39c0.05,0.05,0.32-0.02,0.39,0c0.11,0.03,0.28,0,0.4,0
			c0.13,0,0.26,0,0.39,0c0.4,0,0.8,0,1.19,0C31.51,13.31,31.9,13.31,32.3,13.31z M20.03,51.7c0-0.271,0-0.53,0-0.8
			c-0.79,0-1.58,0-2.37,0c0,0.399,0,0.8,0,1.189c0,0.26,0,0.53,0,0.79c0.79,0,1.58,0,2.37,0C20.03,52.49,20.03,52.09,20.03,51.7z
			 M22.01,15.29c0-0.26,0-0.53,0-0.79c0-0.4,0-0.79,0-1.19c-0.26,0-0.53,0-0.79,0c-1.19,0-2.38,0-3.56,0c0,1.45,0,2.9,0,4.36
			c1.45,0,2.9,0,4.35,0c0-0.27,0-0.53,0-0.8C22.01,16.35,22.01,15.82,22.01,15.29z M26.36,37.45c-0.66,0-1.32,0-1.97,0
			c-0.4,0-0.8,0-1.19,0c-0.4,0-0.79,0-1.19,0c-0.66,0-1.32,0-1.98,0c-0.39,0-0.79,0-1.19,0c-0.39,0-0.79,0-1.18,0
			c-0.66,0-1.32,0-1.98,0c-0.39,0-0.79,0-1.19,0c-0.39,0-0.79,0-1.18,0c-0.66,0-1.32,0-1.98,0c-0.08,0.05-0.33-0.07-0.4,0
			c-0.04,0.04,0.01,0.34,0,0.39c0,0.14,0.01,0.271,0,0.4c0,0.13,0,0.26,0,0.399c0,0.13,0,0.261,0,0.391c0.01,0.14,0,0.27,0,0.399
			s0,0.261,0,0.391c-0.39,0-0.79,0-1.19,0c-0.26,0-0.52,0-0.79,0c0,0.399,0,0.8,0,1.189c0,0.271,0,0.53,0,0.79c0.4,0,0.79,0,1.19,0
			c0.26,0,0.53,0,0.79,0c0-0.39,0-0.79,0-1.18c0-0.271,0-0.53,0-0.8c0.79,0,1.58,0,2.38,0c0.39,0,0.79,0,1.18,0c0.27,0,0.53,0,0.8,0
			c0.79,0,1.58,0,2.37,0c0.39,0,0.79,0,1.18,0c0.27,0,0.53,0,0.8,0c0.79,0,1.58,0,2.37,0c0.4,0,0.79,0,1.19,0c0.26,0,0.53,0,0.79,0
			c0.79,0,1.58,0,2.37,0c0.4,0,0.79,0,1.19,0c0.26,0,0.53,0,0.79,0c0.79,0,1.58,0,2.38,0c0.39,0,0.79,0,1.18,0c0.27,0,0.53,0,0.79,0
			c0.79,0,1.59,0,2.38,0c0.39,0,0.79,0,1.19,0c0.26,0,0.52,0,0.79,0c0.79,0,1.58,0,2.37,0c0.4,0,0.79,0,1.19,0c0.26,0,0.53,0,0.79,0
			c0.79,0,1.58,0,2.37,0c0.4,0,0.79,0,1.19,0c0.399,0,0.789,0,1.189,0c0,0.399,0,0.8,0,1.189c0,0.271,0,0.53,0,0.79
			c0.79,0,1.58,0,2.37,0c0-0.39,0-0.79,0-1.18c0-0.271,0-0.53,0-0.8c-0.79,0-1.58,0-2.37,0c0-0.261,0-0.521,0-0.79
			c0-0.391,0-0.79,0-1.19c-0.05-0.08,0.061-0.32,0-0.39c-0.04-0.04-0.34,0-0.4,0c-0.13-0.01-0.26,0.01-0.39,0
			c-0.13-0.021-0.27,0-0.399,0c-0.131,0-0.261,0-0.4,0c-0.13,0-0.26,0.01-0.39,0c-0.131,0-0.261,0-0.4,0c-0.13,0-0.26,0-0.39,0
			c-0.131,0-0.271,0-0.4,0c-0.26,0-0.53,0-0.79,0c-0.13,0-0.26,0-0.39,0c-0.141,0-0.271,0-0.4,0s-0.26,0-0.4,0
			c-0.13,0-0.26,0-0.39,0c-0.4,0-0.79,0-1.19,0c-0.66,0-1.32,0-1.98,0c-0.39,0-0.79,0-1.18,0c-0.4,0-0.8,0-1.19,0
			c-0.66,0-1.32,0-1.98,0c-0.4,0-0.79,0-1.19,0c-0.39,0-0.79,0-1.18,0c-0.66,0-1.32,0-1.98,0c-0.4,0-0.79,0-1.19,0
			C27.15,37.45,26.76,37.45,26.36,37.45z M24.39,11.34c0-0.8,0-1.59,0-2.38c-0.8,0-1.59,0-2.38,0c0,0.79,0,1.58,0,2.38
			C22.8,11.34,23.59,11.34,24.39,11.34z M24.39,16.87c0,1.06,0,2.11,0,3.17c3.69,0,7.38,0,11.07,0c0-1.45,0-2.9,0-4.36
			c-3.69,0-7.38,0-11.07,0C24.39,16.08,24.39,16.48,24.39,16.87z M36.26,41.8c-5.41,0-10.82,0-16.23,0c0,0.79,0,1.58,0,2.37
			c0.27,0,0.53,0,0.79,0c5.15,0,10.29,0,15.44,0c0.39,0,0.79,0,1.18,0c0-0.52,0-1.05,0-1.58c0-0.26,0-0.52,0-0.79
			C37.05,41.8,36.65,41.8,36.26,41.8z M25.57,33.1c0.27,0,0.53,0,0.79,0c0-0.4,0-0.79,0-1.19c0-0.26,0-0.53,0-0.79
			c0-1.58,0-3.17,0-4.75c-3.56,0-7.12,0-10.68,0c0,1.58,0,3.17,0,4.75c0,0.39,0,0.79,0,1.19c0,0.26,0,0.52,0,0.79
			c0.4,0,0.79,0,1.19,0c0.26,0,0.53,0,0.79,0c1.18,0,2.37,0,3.56,0c1.05,0,2.11,0,3.17,0C24.78,33.1,25.18,33.1,25.57,33.1z
			 M15.68,52.88c0-1.45,0-2.9,0-4.35c-1.58,0-3.17,0-4.75,0c0,1.449,0,2.899,0,4.35c-1.45,0-2.9,0-4.35,0c0-0.53,0-1.05,0-1.58
			c0-0.13,0-0.26,0-0.399c-0.4,0-0.79,0-1.19,0c-0.26,0-0.53,0-0.79,0c0-0.79,0-1.58,0-2.37c-0.79,0-1.58,0-2.37,0
			c0-2.9,0-5.801,0-8.71c0.79,0,1.58,0,2.37,0c0-0.79,0-1.58,0-2.37c0-0.4,0-0.79,0-1.19c0-0.26,0-0.52,0-0.79c0-0.79,0-1.58,0-2.37
			c0-0.4,0-0.79,0-1.19c0-0.26,0-0.53,0-0.79c0.39,0,0.79,0,1.19,0c0.26,0,0.53,0,0.79,0c0-1.19,0-2.38,0-3.56c0-1.06,0-2.11,0-3.17
			c0.79,0,1.58,0,2.37,0c0.53,0,1.06,0,1.59,0c0.13,0,0.26,0,0.39,0c0-0.79,0-1.58,0-2.37c0-0.4,0-0.79,0-1.19c0-0.26,0-0.53,0-0.79
			c0.79,0,1.58,0,2.38,0c0-0.79,0-1.58,0-2.37c0-0.66,0-1.32,0-1.99c0.79,0,1.58,0,2.37,0c0-0.79,0-1.58,0-2.37
			c0-0.39,0-0.79,0-1.18c0-0.27,0-0.53,0-0.79c0.4,0,0.79,0,1.19,0c0.26,0,0.53,0,0.79,0c0-0.8,0-1.59,0-2.38c0.79,0,1.58,0,2.37,0
			c0-0.79,0-1.58,0-2.37c1.45,0,2.9,0,4.36,0c0-0.4,0-0.8,0-1.19c0-0.27,0-0.53,0-0.79c2.11,0,4.22,0,6.33,0c0-0.79,0-1.59,0-2.38
			c5.93,0,11.87,0,17.8,0c0,0.79,0,1.59,0,2.38c2.24,0,4.49,0,6.729,0c0,0.52,0,1.05,0,1.58c0,0.13,0,0.27,0,0.4
			c0.391,0,0.79,0,1.19,0c0.26,0,0.521,0,0.79,0c0,0.79,0,1.58,0,2.37c0.79,0,1.58,0,2.37,0c0,0.79,0,1.58,0,2.38
			c0.399,0,0.79,0,1.189,0c0.261,0,0.53,0,0.79,0c0,1.05,0,2.1,0,3.16c0,0.39,0,0.79,0,1.18c0.79,0,1.58,0,2.37,0
			c0,0.4,0,0.8,0,1.19c0,0.4,0,0.8,0,1.19c0,0.26,0,0.53,0,0.79c0,0.4,0,0.79,0,1.19c0.4,0,0.8,0,1.19,0c0.26,0,0.53,0,0.79,0
			c0,0.39,0,0.79,0,1.19c0,0.26,0,0.52,0,0.79c0,0.39,0,0.79,0,1.19c0,0.39,0,0.79,0,1.18c0.79,0,1.59,0,2.38,0
			c0,2.24,0,4.49,0,6.73c0.39,0,0.79,0,1.18,0c0.271,0,0.53,0,0.79,0c0,1.45,0,2.9,0,4.35c0,1.19,0,2.37,0,3.561
			c0,0.27,0,0.529,0,0.79c-0.39,0-0.79,0-1.18,0c-0.271,0-0.53,0-0.79,0c0,2.109,0,4.22,0,6.34c-0.79,0-1.59,0-2.38,0
			c0-1.061,0-2.12,0-3.17c0-0.4,0-0.79,0-1.19c-0.391,0-0.79,0-1.181,0c-0.27,0-0.529,0-0.8,0c0-0.39,0-0.79,0-1.18
			c0-0.271,0-0.53,0-0.8c-1.05,0-2.109,0-3.16,0c-0.399,0-0.79,0-1.189,0c0,0.399,0,0.8,0,1.189c0,0.271,0,0.53,0,0.79
			c-0.39,0-0.79,0-1.19,0c-0.39,0-0.79,0-1.18,0c0,0.4,0,0.79,0,1.19c0,0.39,0,0.79,0,1.18c0,0.271,0,0.53,0,0.8
			c0,0.391,0,0.79,0,1.19c0.39,0,0.79,0,1.18,0c0.4,0,0.801,0,1.19,0c0,0.79,0,1.58,0,2.37c0.399,0,0.79,0,1.189,0
			c0.391,0,0.79,0,1.181,0c0.27,0,0.529,0,0.8,0c0.39,0,0.79,0,1.18,0c0-0.4,0-0.79,0-1.19c0-0.13,0-0.26,0-0.39
			c0-0.12-0.02-0.29,0-0.4c0.021-0.07-0.05-0.35,0-0.39c0.07-0.07,0.32,0.05,0.4,0c0.53,0,1.05,0,1.58,0c0,1.58,0,3.16,0,4.74
			c-0.53,0-1.05,0-1.58,0c-0.13,0-0.26,0-0.4,0c0,0.399,0,0.8,0,1.189c0,0.26,0,0.53,0,0.79c-0.39,0-0.79,0-1.18,0
			c-0.4,0-0.8,0-1.19,0c-0.26,0-0.529,0-0.79,0c-0.399,0-0.79,0-1.189,0c0,0.79,0,1.59,0,2.38c-3.03,0-6.07,0-9.101,0
			c0,0.391,0,0.79,0,1.181c0,0.27,0,0.529,0,0.789c-10.16,0-20.31,0-30.47,0c0-0.39,0-0.789,0-1.18c0-0.27,0-0.53,0-0.79
			c-3.03,0-6.07,0-9.1,0c0-0.79,0-1.59,0-2.38C12.51,52.88,14.1,52.88,15.68,52.88z"/>
		<path fill="#211F30" d="M0.25,50.9c0-3.69,0-7.381,0-11.08c0.26,0,0.53,0,0.79,0c0.39,0,0.79,0,1.19,0c0,2.909,0,5.81,0,8.71
			c0,0.79,0,1.58,0,2.37c-0.27,0-0.53,0-0.8,0C1.04,50.9,0.65,50.9,0.25,50.9z"/>
	</g>
	<g>
	</g>
</g>
</svg>
