<?xml version="1.0" encoding="utf-8"?>
<!-- Generator: Adobe Illustrator 15.0.0, SVG Export Plug-In  -->
<!DOCTYPE svg PUBLIC "-//W3C//DTD SVG 1.1//EN" "http://www.w3.org/Graphics/SVG/1.1/DTD/svg11.dtd" [
	<!ENTITY ns_flows "http://ns.adobe.com/Flows/1.0/">
]>
<svg version="1.1"
	 xmlns="http://www.w3.org/2000/svg" xmlns:xlink="http://www.w3.org/1999/xlink" xmlns:a="http://ns.adobe.com/AdobeSVGViewerExtensions/3.0/"
	 x="0px" y="0px" width="95px" height="80px" viewBox="-10.6 -10.9 95 80" enable-background="new -10.6 -10.9 95 80"
	 xml:space="preserve">
<defs>
</defs>
<g id="XMLID_2_">
	<g>
		<path fill="#211F30" d="M78.94,47.46c0.4,0.069,0.78,0.14,1.17,0.21c-0.64,3.63-1.28,7.27-1.92,10.91
			c-0.78-0.141-1.56-0.28-2.34-0.41c0.64-3.641,1.29-7.28,1.93-10.92C78.169,47.32,78.56,47.39,78.94,47.46z"/>
		<path fill="#211F30" d="M76.169,31.3c0.78,0.14,1.561,0.27,2.341,0.41c-0.07,0.39-0.141,0.779-0.21,1.17
			c-0.04,0.26-0.091,0.52-0.141,0.779c-0.09,0.521-0.18,1.04-0.27,1.561c-0.181,1.04-0.37,2.08-0.55,3.12
			C76.56,38.2,75.78,38.06,75,37.93C75.39,35.72,75.78,33.51,76.169,31.3z"/>
		<path fill="#211F30" d="M76.58,42.62c0.261-1.42,0.511-2.85,0.761-4.279c0.26,0.04,0.52,0.09,0.779,0.14
			c0.391,0.061,0.78,0.13,1.17,0.2c-0.069,0.39-0.14,0.78-0.21,1.17c-0.069,0.39-0.14,0.78-0.199,1.17
			c-0.051,0.26-0.101,0.521-0.141,0.78c-0.07,0.39-0.14,0.78-0.21,1.17c-0.04,0.26-0.09,0.52-0.13,0.78
			c-0.07,0.39-0.14,0.779-0.21,1.17c-0.14,0.779-0.28,1.55-0.41,2.33c-0.26-0.04-0.52-0.091-0.78-0.131
			c-0.39-0.069-0.779-0.14-1.17-0.21c0.07-0.39,0.141-0.779,0.2-1.17c0.07-0.39,0.14-0.779,0.21-1.17
			c0.05-0.26,0.09-0.52,0.141-0.779C76.45,43.4,76.52,43.01,76.58,42.62z"/>
		<path fill="#211F30" d="M76.93,27.01c-0.07,0.39-0.141,0.78-0.21,1.17c-0.07,0.39-0.141,0.78-0.21,1.17
			c-0.04,0.26-0.091,0.52-0.13,0.78c-0.07,0.39-0.141,0.779-0.211,1.17c-0.779-0.141-1.56-0.28-2.34-0.41
			c0.25-1.43,0.511-2.86,0.761-4.29C75.37,26.74,76.15,26.88,76.93,27.01z"/>
		<path fill="#211F30" d="M75.85,58.17c-0.25,1.42-0.5,2.85-0.75,4.279c-0.26-0.04-0.521-0.09-0.78-0.14
			c-0.39-0.06-0.78-0.13-1.17-0.2c0.04-0.26,0.09-0.52,0.14-0.779c0.07-0.391,0.13-0.78,0.2-1.171c0.141-0.779,0.28-1.56,0.41-2.34
			c0.26,0.05,0.52,0.09,0.78,0.141C75.07,58.03,75.459,58.1,75.85,58.17z"/>
		<path fill="#211F30" d="M73.81,19.63c-0.141,0.78-0.28,1.56-0.41,2.34c-0.78-0.14-1.56-0.28-2.34-0.41
			c0.13-0.78,0.27-1.56,0.41-2.34C72.25,19.36,73.03,19.5,73.81,19.63z"/>
		<path fill="#211F30" d="M75.27,22.7c-0.11,0.65-0.22,1.3-0.34,1.95c-0.04,0.26-0.09,0.52-0.141,0.78
			c-0.06,0.39-0.13,0.78-0.199,1.17c-0.261-0.04-0.521-0.09-0.78-0.14c-0.391-0.06-0.78-0.13-1.17-0.2c0.25-1.43,0.5-2.86,0.76-4.29
			c0.25,0.05,0.52,0.09,0.78,0.14c0.38,0.07,0.77,0.14,1.16,0.2C75.32,22.45,75.3,22.58,75.27,22.7z"/>
		<path fill="#211F30" d="M73.15,62.11c-0.05,0.26-0.09,0.521-0.14,0.78c-0.07,0.39-0.141,0.78-0.2,1.17
			c-0.78-0.14-1.561-0.28-2.34-0.42c0.04-0.26,0.09-0.521,0.14-0.78c0.06-0.38,0.13-0.77,0.2-1.16
			C71.59,61.831,72.37,61.97,73.15,62.11z"/>
		<path fill="#211F30" d="M66.18,62.89c1.43,0.25,2.859,0.5,4.29,0.75c-0.141,0.79-0.28,1.56-0.41,2.34
			c-1.43-0.25-2.86-0.5-4.29-0.75C65.9,64.45,66.04,63.67,66.18,62.89z"/>
		<path fill="#211F30" d="M69.86,16.93c-0.78-0.14-1.55-0.27-2.33-0.41c0.13-0.78,0.271-1.56,0.41-2.34
			c0.78,0.14,1.56,0.27,2.34,0.41C70.14,15.37,70,16.15,69.86,16.93z"/>
		<path fill="#211F30" d="M70.69,19.09c-0.39-0.07-0.78-0.14-1.17-0.21c0.05-0.26,0.09-0.52,0.14-0.78
			c0.07-0.39,0.141-0.78,0.2-1.17c0.26,0.05,0.53,0.09,0.78,0.14c0.39,0.07,0.779,0.14,1.17,0.2c-0.04,0.26-0.09,0.52-0.13,0.78
			c-0.07,0.39-0.141,0.78-0.21,1.17C71.209,19.18,70.95,19.13,70.69,19.09z"/>
		<path fill="#858D99" d="M67.62,41.041c0.78,0.14,1.561,0.279,2.34,0.42c-0.05,0.26-0.09,0.52-0.14,0.77
			c-0.07,0.39-0.14,0.79-0.2,1.17c-0.779-0.13-1.56-0.27-2.34-0.41c0.04-0.26,0.09-0.52,0.14-0.779
			C67.48,41.82,67.55,41.43,67.62,41.041z"/>
		<path fill="#211F30" d="M67.18,11.64c0.39,0.06,0.779,0.13,1.17,0.2c-0.141,0.78-0.271,1.56-0.41,2.34
			c-0.26-0.05-0.521-0.09-0.78-0.14c-0.39-0.07-0.779-0.14-1.17-0.2c0.141-0.78,0.271-1.56,0.41-2.34
			C66.66,11.54,66.919,11.59,67.18,11.64z"/>
		<path fill="#858D99" d="M67.94,14.18c-0.14,0.78-0.28,1.56-0.41,2.34c-0.26-0.05-0.52-0.09-0.78-0.14
			c-0.39-0.07-0.779-0.14-1.17-0.21c0.13-0.78,0.271-1.55,0.41-2.33c0.391,0.06,0.78,0.13,1.17,0.2
			C67.419,14.09,67.68,14.13,67.94,14.18z"/>
		<path fill="#858D99" d="M66.4,11.5c-0.14,0.78-0.27,1.56-0.41,2.34c-0.78-0.14-1.56-0.28-2.34-0.42c0.14-0.78,0.28-1.55,0.42-2.33
			C64.84,11.22,65.62,11.36,66.4,11.5z"/>
		<path fill="#211F30" d="M63.28,10.95c-0.38-0.07-0.77-0.14-1.16-0.21c0.021-0.13,0.04-0.26,0.061-0.39
			c0.1-0.52,0.189-1.04,0.279-1.56c1.431,0.25,2.86,0.51,4.28,0.76c-0.04,0.26-0.09,0.52-0.13,0.78c-0.07,0.39-0.14,0.78-0.21,1.17
			c-0.78-0.14-1.56-0.28-2.33-0.41C63.81,11.04,63.55,10.99,63.28,10.95z"/>
		<path fill="#858D99" d="M61.8,37.61c0.39,0.07,0.779,0.141,1.17,0.2c0.26,0.05,0.52,0.1,0.779,0.14
			c-0.14,0.78-0.279,1.561-0.409,2.341C63.07,40.24,62.82,40.2,62.56,40.15c-0.391-0.069-0.78-0.14-1.17-0.21
			C61.52,39.16,61.66,38.39,61.8,37.61z"/>
		<path fill="#858D99" d="M63.41,53.56c-0.39-0.07-0.779-0.14-1.17-0.21c-0.26-0.04-0.52-0.09-0.78-0.13
			c-0.39-0.07-0.779-0.14-1.17-0.21c-0.39-0.07-0.779-0.141-1.17-0.21c0.141-0.78,0.271-1.561,0.41-2.33
			c-0.39-0.07-0.78-0.14-1.17-0.21s-0.78-0.141-1.17-0.21c0.07-0.391,0.14-0.78,0.21-1.17c0.05-0.261,0.09-0.521,0.14-0.78
			c0.07-0.38,0.141-0.77,0.2-1.16c0.07-0.39,0.141-0.78,0.21-1.17c0.391,0.07,0.78,0.14,1.17,0.2c0.391,0.07,0.78,0.14,1.17,0.21
			c0.04-0.26,0.091-0.521,0.13-0.78c0.07-0.39,0.141-0.78,0.211-1.17c0.39,0.07,0.779,0.14,1.17,0.21
			c1.04,0.18,2.08,0.36,3.119,0.55c-0.05,0.261-0.09,0.521-0.14,0.78c-0.07,0.39-0.14,0.78-0.21,1.17
			c0.26,0.04,0.521,0.09,0.78,0.13c0.39,0.07,0.78,0.141,1.17,0.21c-0.07,0.391-0.13,0.78-0.2,1.17c-0.189,1.04-0.37,2.08-0.55,3.12
			c-0.521-0.1-1.04-0.189-1.561-0.279c-0.09,0.04-0.319-0.12-0.39-0.07c-0.06,0.04-0.04,0.33-0.07,0.39
			C63.7,51.72,63.7,51.89,63.68,52c-0.021,0.13-0.04,0.26-0.07,0.39C63.54,52.78,63.48,53.17,63.41,53.56z"/>
		<path fill="#FFFFFF" d="M61.7,13.08c-0.13,0.78-0.27,1.56-0.41,2.34c-0.779-0.14-1.56-0.28-2.34-0.41
			c0.141-0.78,0.28-1.56,0.42-2.34C60.15,12.81,60.919,12.94,61.7,13.08z"/>
		<path fill="#211F30" d="M56.25,5.29c2.2,0.39,4.41,0.78,6.62,1.17c-0.14,0.77-0.27,1.55-0.41,2.33c-2.21-0.39-4.42-0.78-6.63-1.17
			C55.97,6.85,56.11,6.07,56.25,5.29z"/>
		<path fill="#FFFFFF" d="M55.49,9.57c-0.14,0.78-0.27,1.56-0.41,2.34c-0.779-0.14-1.56-0.27-2.34-0.41
			c0.141-0.78,0.28-1.56,0.41-2.34C53.93,9.3,54.709,9.44,55.49,9.57z"/>
		<path fill="#858D99" d="M49.72,42.31c-0.051,0.26-0.09,0.521-0.141,0.78c-0.069,0.39-0.14,0.77-0.21,1.17
			c-0.77-0.141-1.55-0.28-2.33-0.41c0.051-0.27,0.091-0.53,0.141-0.79c0.069-0.38,0.14-0.78,0.2-1.17
			C48.16,42.03,48.94,42.17,49.72,42.31z"/>
		<path fill="#858D99" d="M43,16.61c0.78,0.14,1.561,0.28,2.341,0.41c-0.25,1.43-0.511,2.86-0.761,4.29
			c-0.779-0.14-1.56-0.27-2.33-0.41c0.2-1.17,0.41-2.34,0.61-3.51C42.91,17.13,42.95,16.87,43,16.61z"/>
		<path fill="#858D99" d="M43.48,34.38c-0.39-0.07-0.78-0.141-1.17-0.21c0.1-0.521,0.189-1.04,0.28-1.561
			c0.02-0.13,0.04-0.26,0.069-0.39c0.26,0.05,0.521,0.09,0.78,0.14c0.39,0.07,0.78,0.141,1.17,0.2c-0.05,0.271-0.09,0.53-0.14,0.79
			c-0.07,0.38-0.141,0.77-0.21,1.17C44,34.47,43.74,34.42,43.48,34.38z"/>
		<path fill="#63677A" d="M39.2,33.62C38.03,33.42,36.86,33.21,35.69,33c0.07-0.391,0.14-0.78,0.21-1.17
			c0.04-0.261,0.09-0.521,0.13-0.78c1.04,0.189,2.08,0.37,3.12,0.55c0.52,0.09,1.04,0.19,1.56,0.28c0.521,0.09,1.04,0.18,1.561,0.27
			c0.13,0.03,0.26,0.05,0.39,0.07c-0.029,0.13-0.05,0.26-0.069,0.39c-0.091,0.521-0.181,1.04-0.28,1.561
			C41.28,33.99,40.24,33.81,39.2,33.62z"/>
		<path fill="#211F30" d="M41.39,0.66c0.779,0.14,1.56,0.27,2.34,0.41c0.65,0.11,1.3,0.23,1.95,0.34c0.779,0.14,1.56,0.28,2.34,0.42
			c0.649,0.11,1.3,0.23,1.95,0.34c0.779,0.14,1.55,0.27,2.33,0.41c0.649,0.12,1.3,0.23,1.949,0.35c0.78,0.13,1.561,0.27,2.341,0.41
			C56.54,3.6,56.5,3.86,56.45,4.12c-0.069,0.39-0.13,0.78-0.2,1.17C50.4,4.26,44.56,3.23,38.709,2.2
			C38.76,1.94,38.8,1.68,38.85,1.42c0.069-0.39,0.14-0.78,0.21-1.17c0.38,0.06,0.77,0.13,1.16,0.2C40.61,0.52,41,0.59,41.39,0.66z"
			/>
		<path fill="#211F30" d="M38.709,2.2c-0.14,0.77-0.27,1.55-0.409,2.33c-2.081-0.37-4.16-0.73-6.23-1.1
			c0.13-0.78,0.27-1.56,0.41-2.33C34.56,1.46,36.63,1.83,38.709,2.2z"/>
		<path d="M36.84,28.78c2.07,0.37,4.15,0.74,6.23,1.1c-0.14,0.78-0.28,1.56-0.41,2.34c-0.13-0.021-0.26-0.04-0.39-0.07
			c-0.521-0.09-1.04-0.18-1.561-0.27c-0.52-0.09-1.04-0.19-1.56-0.28c-1.04-0.18-2.08-0.36-3.12-0.55c0.14-0.78,0.28-1.55,0.42-2.33
			C36.58,28.74,36.71,28.76,36.84,28.78z"/>
		<path fill="#63677A" d="M34.52,25.97c3.64,0.64,7.27,1.28,10.91,1.92c-0.271,1.56-0.55,3.12-0.82,4.67
			c-0.39-0.06-0.78-0.13-1.17-0.2c-0.26-0.05-0.521-0.09-0.78-0.14c0.13-0.78,0.271-1.561,0.41-2.34c-2.08-0.36-4.16-0.73-6.23-1.1
			c-0.13-0.02-0.26-0.04-0.39-0.06c-0.14,0.78-0.28,1.55-0.42,2.33c-0.78-0.13-1.55-0.271-2.33-0.41
			C33.97,29.08,34.25,27.52,34.52,25.97z"/>
		<path fill="#858D99" d="M37.52,11.23c0.39,0.07,0.78,0.13,1.17,0.2c0.52,0.1,1.04,0.19,1.56,0.28c0.261,0.04,0.521,0.09,0.78,0.14
			c0.13,0.02,0.26,0.04,0.39,0.06c0.131,0.03,0.261,0.05,0.391,0.07c0.39,0.07,0.78,0.14,1.17,0.21c0.26,0.05,0.52,0.09,0.78,0.14
			c0.13,0.02,0.26,0.04,0.39,0.07c0.12,0.02,0.25,0.04,0.38,0.06c0.14,0.03,0.271,0.05,0.39,0.07c0.131,0.03,0.271,0.03,0.4,0.07
			c0.12,0.04,0.26,0.05,0.38,0.07c0.05,0.01,0.38,0.03,0.391,0.07c0.06,0.09-0.101,0.29-0.07,0.39c-0.021,0.13-0.04,0.26-0.061,0.39
			c-0.05,0.26-0.1,0.52-0.14,0.78c-0.07,0.07,0.01,0.33-0.07,0.39c-0.06,0.04-0.319-0.08-0.39-0.07c-0.11,0.01-0.28-0.05-0.39-0.07
			c-0.13-0.02-0.261-0.05-0.391-0.07s-0.26-0.04-0.39-0.07c-0.13-0.02-0.26-0.04-0.39-0.07c-0.131-0.02-0.261-0.05-0.391-0.06
			c-0.13-0.03-0.26-0.05-0.39-0.07c-0.13-0.03-0.26-0.05-0.39-0.07c-0.131-0.02-0.261-0.05-0.391-0.07
			c-0.26-0.05-0.52-0.09-0.78-0.14c-0.119-0.02-0.26-0.05-0.39-0.07c-0.13-0.02-0.25-0.04-0.39-0.07c-0.38-0.06-0.78-0.13-1.17-0.2
			c-0.38-0.07-0.771-0.14-1.16-0.21c-0.391-0.07-0.78-0.14-1.17-0.2c-0.39-0.07-0.78-0.14-1.17-0.21c-0.13-0.02-0.26-0.05-0.39-0.07
			c-0.12-0.02-0.29-0.02-0.39-0.07c-0.07-0.03-0.35-0.01-0.39-0.07c-0.05-0.07,0.11-0.3,0.07-0.39c0.04-0.26,0.09-0.52,0.13-0.78
			c0.05-0.25,0.1-0.52,0.14-0.78c0.26,0.05,0.52,0.1,0.78,0.14C36.48,11.04,37,11.14,37.52,11.23z"/>
		<path fill="#858D99" d="M36.03,31.05c-0.04,0.26-0.09,0.52-0.13,0.78c-0.07,0.39-0.14,0.779-0.21,1.17
			c-0.78-0.131-1.56-0.271-2.34-0.41c0.05-0.26,0.09-0.521,0.14-0.78c0.07-0.39,0.14-0.78,0.21-1.17
			C34.48,30.78,35.25,30.92,36.03,31.05z"/>
		<path fill="#211F30" d="M31.72,5.38c-1.43-0.25-2.86-0.5-4.29-0.75c0.05-0.26,0.09-0.52,0.14-0.78c0.07-0.39,0.14-0.78,0.21-1.17
			c1.43,0.25,2.86,0.5,4.29,0.75c-0.05,0.26-0.1,0.52-0.14,0.78C31.86,4.6,31.79,4.99,31.72,5.38z"/>
		<path fill="#FFFFFF" d="M28.97,7.31c0.78,0.14,1.56,0.27,2.34,0.41c-0.14,0.78-0.28,1.56-0.41,2.34
			c-0.78-0.14-1.56-0.28-2.34-0.41C28.7,8.87,28.83,8.09,28.97,7.31z"/>
		<path fill="#858D99" d="M30.14,14.34c3.64,0.64,7.279,1.29,10.91,1.93c-0.25,1.43-0.5,2.86-0.75,4.29
			c-3.641-0.65-7.28-1.29-10.91-1.93c0.18-1.04,0.36-2.08,0.55-3.12C30,15.12,30.07,14.73,30.14,14.34z"/>
		<path fill="#858D99" d="M29.41,29.89c-0.05,0.26-0.09,0.52-0.14,0.78c-0.07,0.39-0.13,0.77-0.2,1.17
			c-0.26-0.05-0.52-0.101-0.78-0.141c-0.39-0.069-0.78-0.14-1.17-0.21c0.09-0.52,0.18-1.04,0.27-1.56c0.03-0.13,0.05-0.26,0.07-0.39
			c0.26,0.05,0.52,0.09,0.78,0.14C28.63,29.75,29.02,29.82,29.41,29.89z"/>
		<path fill="#FFFFFF" d="M28.21,11.6c-0.06,0.38-0.13,0.77-0.2,1.16c-0.05,0.26-0.09,0.52-0.14,0.78
			c-0.09,0.52-0.18,1.04-0.27,1.56c-0.05,0.26-0.09,0.52-0.14,0.78c-1.43-0.25-2.86-0.5-4.29-0.75c0.26-1.43,0.51-2.86,0.76-4.29
			c1.17,0.21,2.33,0.41,3.5,0.62C27.69,11.5,27.95,11.55,28.21,11.6z"/>
		<path fill="#211F30" d="M27.43,4.63c-0.13,0.78-0.27,1.55-0.41,2.33c-0.78-0.13-1.56-0.27-2.33-0.41
			c0.13-0.78,0.27-1.56,0.41-2.34C25.88,4.35,26.65,4.49,27.43,4.63z"/>
		<path fill="#211F30" d="M23.52,6.35c0.38,0.06,0.77,0.13,1.17,0.2c-0.14,0.78-0.28,1.56-0.42,2.34c-0.26-0.04-0.52-0.09-0.78-0.14
			c-0.39-0.06-0.78-0.13-1.17-0.2c0.14-0.78,0.28-1.56,0.42-2.34C23,6.25,23.26,6.3,23.52,6.35z"/>
		<path d="M21.64,26.1c2.08,0.37,4.16,0.74,6.23,1.1c-0.13,0.79-0.27,1.56-0.41,2.34c-0.13-0.02-0.26-0.04-0.39-0.07
			c-0.52-0.09-1.04-0.18-1.56-0.27c-0.52-0.09-1.04-0.18-1.56-0.28c-1.03-0.18-2.07-0.36-3.11-0.55c0.14-0.77,0.27-1.55,0.41-2.33
			C21.38,26.06,21.51,26.08,21.64,26.1z"/>
		<path fill="#858D99" d="M21.32,39.31c5.32,0.94,10.65,1.88,15.98,2.82c0.39,0.069,0.77,0.13,1.17,0.2
			c-0.051,0.26-0.101,0.52-0.141,0.779c-0.09,0.521-0.18,1.04-0.279,1.561c-0.391-0.07-0.78-0.141-1.17-0.21
			c-5.06-0.891-10.13-1.78-15.19-2.681c-0.26-0.04-0.52-0.09-0.78-0.14C21.04,40.87,21.18,40.09,21.32,39.31z"/>
		<path fill="#63677A" d="M19.71,23.35c3.51,0.62,7.02,1.24,10.52,1.86c-0.27,1.56-0.54,3.12-0.82,4.68
			c-0.39-0.07-0.78-0.14-1.17-0.21c-0.26-0.05-0.52-0.09-0.78-0.14c0.14-0.78,0.28-1.55,0.41-2.34c-2.07-0.36-4.15-0.73-6.23-1.1
			c-0.13-0.02-0.26-0.04-0.39-0.06c-0.14,0.78-0.27,1.56-0.41,2.33c-0.39-0.06-0.78-0.13-1.17-0.2c-0.26-0.05-0.52-0.09-0.78-0.14
			C19.16,26.47,19.44,24.91,19.71,23.35z"/>
		<path fill="#211F30" d="M19.98,8.14c0.79,0.13,1.56,0.27,2.34,0.41c-0.04,0.26-0.09,0.52-0.13,0.78
			c-0.07,0.39-0.14,0.77-0.21,1.17c-0.78-0.14-1.56-0.28-2.34-0.42c0.05-0.26,0.09-0.52,0.14-0.78C19.85,8.91,19.92,8.52,19.98,8.14
			z"/>
		<path fill="#FFFFFF" d="M21.98,10.5c-0.14,0.77-0.28,1.55-0.41,2.33c-0.78-0.14-1.56-0.27-2.34-0.41
			c0.14-0.78,0.27-1.56,0.41-2.34C20.42,10.22,21.2,10.36,21.98,10.5z"/>
		<path fill="#63677A" d="M20.84,28.37c1.04,0.19,2.08,0.37,3.11,0.55c0.52,0.1,1.04,0.19,1.56,0.28c0.52,0.09,1.04,0.18,1.56,0.27
			c0.13,0.03,0.26,0.05,0.39,0.07c-0.02,0.13-0.04,0.26-0.07,0.39c-0.09,0.52-0.18,1.04-0.27,1.56c-1.04-0.18-2.08-0.359-3.12-0.55
			c-1.17-0.2-2.34-0.41-3.51-0.62c0.07-0.39,0.14-0.78,0.21-1.16C20.75,28.89,20.79,28.64,20.84,28.37z"/>
		<path fill="#858D99" d="M19.67,28.17c0.39,0.07,0.78,0.14,1.17,0.2c-0.05,0.27-0.09,0.52-0.14,0.79
			c-0.07,0.38-0.14,0.77-0.21,1.16c-0.26-0.04-0.52-0.09-0.78-0.13c-0.39-0.07-0.78-0.14-1.17-0.21c0.05-0.26,0.1-0.52,0.14-0.78
			c0.07-0.39,0.14-0.78,0.21-1.17C19.15,28.08,19.41,28.12,19.67,28.17z"/>
		<path fill="#211F30" d="M19.64,10.08c-0.14,0.78-0.27,1.56-0.41,2.34c-0.78-0.14-1.56-0.28-2.34-0.41
			c0.14-0.78,0.28-1.56,0.41-2.34C18.08,9.81,18.86,9.95,19.64,10.08z"/>
		<path fill="#FFFFFF" d="M19.23,12.42c-0.12,0.65-0.23,1.3-0.34,1.95c-0.14,0.78-0.28,1.56-0.42,2.34
			c-0.78-0.14-1.55-0.28-2.33-0.42c0.25-1.42,0.5-2.85,0.75-4.28C17.67,12.14,18.45,12.28,19.23,12.42z"/>
		<path fill="#858D99" d="M17.4,47.86c0.78,0.141,1.56,0.271,2.34,0.41c-0.05,0.26-0.09,0.521-0.14,0.78
			c-0.07,0.39-0.14,0.78-0.21,1.17c-0.77-0.14-1.55-0.271-2.33-0.41c0.04-0.26,0.09-0.52,0.14-0.78
			C17.26,48.64,17.33,48.25,17.4,47.86z"/>
		<path fill="#211F30" d="M16.89,12.01c-0.25,1.43-0.5,2.86-0.75,4.28c-0.26-0.04-0.52-0.09-0.78-0.13
			c-0.39-0.07-0.78-0.14-1.17-0.21c0.25-1.43,0.5-2.86,0.75-4.29c0.26,0.05,0.52,0.09,0.78,0.14C16.11,11.87,16.5,11.94,16.89,12.01
			z"/>
		<path fill="#858D99" d="M15.86,45.18c-0.25,1.42-0.5,2.86-0.75,4.28c-1.56-0.271-3.12-0.551-4.68-0.82
			c0.25-1.43,0.51-2.86,0.76-4.29C12.75,44.63,14.31,44.9,15.86,45.18z"/>
		<path fill="#FFFFFF" d="M15.36,16.16c0.26,0.04,0.52,0.09,0.78,0.13c-0.05,0.26-0.1,0.53-0.14,0.79
			c-0.07,0.38-0.14,0.77-0.21,1.16c-0.14,0.78-0.27,1.56-0.41,2.34c-0.13-0.02-0.26-0.05-0.39-0.07c-0.52-0.09-1.04-0.18-1.56-0.27
			c0.25-1.43,0.5-2.86,0.76-4.29C14.58,16.02,14.97,16.09,15.36,16.16z"/>
		<path fill="#211F30" d="M14.19,15.95c-0.26,1.43-0.51,2.86-0.76,4.29c-0.78-0.14-1.56-0.28-2.34-0.42
			c0.26-1.42,0.51-2.85,0.76-4.28C12.63,15.68,13.41,15.81,14.19,15.95z"/>
		<path fill="#AFBBC3" d="M69.959,41.46c-0.779-0.141-1.56-0.28-2.34-0.42c-0.069,0.39-0.14,0.779-0.2,1.17
			c-0.05,0.26-0.1,0.52-0.14,0.779c0.78,0.141,1.561,0.28,2.34,0.41c0.061-0.38,0.13-0.78,0.2-1.17
			C69.87,41.98,69.91,41.72,69.959,41.46z M61.7,13.08c-0.78-0.14-1.55-0.27-2.33-0.41c-0.14,0.78-0.279,1.56-0.42,2.34
			c0.78,0.13,1.561,0.27,2.34,0.41C61.43,14.64,61.57,13.86,61.7,13.08z M62.56,40.15c0.26,0.05,0.51,0.09,0.78,0.141
			c0.13-0.78,0.27-1.561,0.409-2.341c-0.26-0.04-0.52-0.09-0.779-0.14c-0.391-0.06-0.78-0.13-1.17-0.2
			c-0.141,0.78-0.28,1.55-0.41,2.33C61.78,40.01,62.169,40.081,62.56,40.15z M45.34,17.02c-0.78-0.13-1.561-0.27-2.341-0.41
			c-0.05,0.26-0.09,0.52-0.14,0.78c-0.2,1.17-0.41,2.34-0.61,3.51c0.771,0.14,1.551,0.27,2.33,0.41
			C44.83,19.88,45.09,18.45,45.34,17.02z M42.31,34.17c0.39,0.069,0.78,0.14,1.17,0.21c0.26,0.04,0.52,0.09,0.78,0.14
			c0.069-0.4,0.14-0.79,0.21-1.17c0.05-0.26,0.09-0.52,0.14-0.79c0.271-1.55,0.55-3.11,0.82-4.67c-3.641-0.64-7.271-1.28-10.91-1.92
			c-0.27,1.55-0.55,3.11-0.82,4.67c-0.07,0.39-0.14,0.78-0.21,1.17c-0.05,0.26-0.09,0.521-0.14,0.78c0.78,0.14,1.56,0.279,2.34,0.41
			c1.17,0.21,2.34,0.42,3.51,0.619C40.24,33.81,41.28,33.99,42.31,34.17z M37.18,13.18c0.39,0.06,0.78,0.13,1.17,0.2
			c0.39,0.07,0.78,0.14,1.16,0.21c0.39,0.07,0.79,0.14,1.17,0.2c0.14,0.03,0.26,0.05,0.39,0.07c0.13,0.02,0.271,0.05,0.39,0.07
			c0.261,0.05,0.521,0.09,0.78,0.14c0.13,0.02,0.26,0.05,0.391,0.07c0.13,0.02,0.26,0.04,0.39,0.07c0.13,0.02,0.26,0.04,0.39,0.07
			c0.13,0.01,0.26,0.04,0.391,0.06c0.13,0.03,0.26,0.05,0.39,0.07c0.13,0.03,0.26,0.05,0.39,0.07s0.261,0.05,0.391,0.07
			c0.109,0.02,0.279,0.08,0.39,0.07c0.07-0.01,0.33,0.11,0.39,0.07c0.08-0.06,0-0.32,0.07-0.39c0.04-0.26,0.09-0.52,0.14-0.78
			c0.021-0.13,0.04-0.26,0.061-0.39c-0.03-0.1,0.13-0.3,0.07-0.39c-0.011-0.04-0.341-0.06-0.391-0.07
			c-0.12-0.02-0.26-0.03-0.38-0.07c-0.13-0.04-0.27-0.04-0.4-0.07c-0.119-0.02-0.25-0.04-0.39-0.07c-0.13-0.02-0.26-0.04-0.38-0.06
			c-0.13-0.03-0.26-0.05-0.39-0.07c-0.261-0.05-0.521-0.09-0.78-0.14c-0.39-0.07-0.78-0.14-1.17-0.21
			c-0.13-0.02-0.26-0.04-0.391-0.07c-0.13-0.02-0.26-0.04-0.39-0.06c-0.26-0.05-0.52-0.1-0.78-0.14c-0.52-0.09-1.04-0.18-1.56-0.28
			c-0.39-0.07-0.78-0.13-1.17-0.2c-0.52-0.09-1.04-0.19-1.56-0.28c-0.26-0.04-0.52-0.09-0.78-0.14c-0.04,0.26-0.09,0.53-0.14,0.78
			c-0.04,0.26-0.09,0.52-0.13,0.78c0.04,0.09-0.12,0.32-0.07,0.39c0.04,0.06,0.32,0.04,0.39,0.07c0.1,0.05,0.27,0.05,0.39,0.07
			c0.13,0.02,0.26,0.05,0.39,0.07C36.4,13.04,36.79,13.11,37.18,13.18z M27.87,13.54c0.05-0.26,0.09-0.52,0.14-0.78
			c0.07-0.39,0.14-0.78,0.2-1.16c-0.26-0.05-0.52-0.1-0.78-0.14c-1.17-0.21-2.33-0.41-3.5-0.62c-0.25,1.43-0.5,2.86-0.76,4.29
			c1.43,0.25,2.86,0.5,4.29,0.75c0.05-0.26,0.09-0.52,0.14-0.78C27.69,14.58,27.78,14.06,27.87,13.54z M28.97,7.31
			c-0.14,0.78-0.27,1.56-0.41,2.34c0.78,0.13,1.56,0.27,2.34,0.41c0.13-0.78,0.27-1.56,0.41-2.34C30.53,7.58,29.75,7.45,28.97,7.31z
			 M29.94,15.51c-0.19,1.04-0.37,2.08-0.55,3.12c3.63,0.64,7.27,1.28,10.91,1.93c0.25-1.43,0.5-2.86,0.75-4.29
			c-3.631-0.64-7.271-1.29-10.91-1.93C30.07,14.73,30,15.12,29.94,15.51z M19.39,50.22c0.07-0.39,0.14-0.78,0.21-1.17
			c0.05-0.26,0.09-0.521,0.14-0.78c-0.78-0.14-1.56-0.27-2.34-0.41c-0.07,0.391-0.14,0.78-0.2,1.17c-0.05,0.261-0.1,0.521-0.14,0.78
			C17.84,49.95,18.62,50.081,19.39,50.22z M20.49,30.32c1.17,0.21,2.34,0.42,3.51,0.62c1.04,0.19,2.08,0.37,3.12,0.55
			c0.39,0.07,0.78,0.141,1.17,0.21c0.26,0.04,0.52,0.091,0.78,0.141c0.07-0.4,0.13-0.78,0.2-1.17c0.05-0.261,0.09-0.521,0.14-0.78
			c0.28-1.56,0.55-3.12,0.82-4.68c-3.5-0.62-7.01-1.24-10.52-1.86c-0.27,1.56-0.55,3.12-0.82,4.68c-0.07,0.39-0.14,0.78-0.21,1.17
			c-0.04,0.26-0.09,0.52-0.14,0.78c0.39,0.07,0.78,0.14,1.17,0.21C19.97,30.23,20.23,30.28,20.49,30.32z M21.32,39.31
			c-0.14,0.78-0.28,1.56-0.41,2.33c0.26,0.05,0.52,0.1,0.78,0.14c5.06,0.9,10.13,1.79,15.19,2.681c0.39,0.069,0.78,0.14,1.17,0.21
			c0.1-0.521,0.189-1.04,0.279-1.561c0.04-0.26,0.09-0.52,0.141-0.779c-0.4-0.07-0.78-0.131-1.17-0.2
			C31.97,41.19,26.64,40.25,21.32,39.31z M21.27,37.291c0.78,0.14,1.56,0.27,2.34,0.409c0.39,0.07,0.78,0.141,1.17,0.21
			c0.26,0.04,0.52,0.091,0.78,0.141c0.78,0.13,1.56,0.27,2.34,0.41c0.39,0.069,0.78,0.14,1.17,0.199
			c0.26,0.051,0.52,0.101,0.78,0.141c0.78,0.14,1.55,0.28,2.33,0.41c0.39,0.069,0.78,0.14,1.17,0.21c0.26,0.05,0.52,0.09,0.78,0.14
			c0.78,0.13,1.56,0.271,2.34,0.41c0.39,0.07,0.78,0.14,1.17,0.21c0.26,0.04,0.52,0.09,0.779,0.13c0.78,0.14,1.561,0.28,2.341,0.42
			c0.39,0.061,0.779,0.13,1.17,0.2c0.26,0.05,0.52,0.09,0.779,0.14c0.771,0.141,1.551,0.271,2.33,0.41
			c0.391,0.07,0.78,0.14,1.17,0.21c0.391,0.07,0.78,0.141,1.171,0.2c-0.061,0.39-0.131,0.79-0.2,1.17
			c-0.05,0.26-0.09,0.521-0.141,0.79c0.78,0.13,1.561,0.27,2.33,0.41c0.07-0.4,0.141-0.78,0.21-1.17
			c0.051-0.26,0.09-0.521,0.141-0.78c-0.78-0.14-1.561-0.28-2.34-0.42c0.05-0.26,0.1-0.51,0.14-0.771
			c0.07-0.399,0.14-0.779,0.21-1.17c-0.04-0.09,0.12-0.319,0.07-0.39c-0.04-0.05-0.341-0.06-0.4-0.07
			c-0.12-0.029-0.26-0.029-0.38-0.069c-0.13-0.04-0.271-0.051-0.39-0.07c-0.141-0.02-0.261-0.05-0.4-0.07
			c-0.12-0.02-0.26-0.04-0.38-0.069c-0.13-0.021-0.26-0.04-0.391-0.07c-0.14-0.021-0.26-0.04-0.39-0.07
			c-0.13-0.02-0.26-0.04-0.39-0.06c-0.261-0.05-0.521-0.101-0.78-0.141c-0.13-0.02-0.26-0.039-0.39-0.069
			c-0.13-0.021-0.261-0.05-0.391-0.07c-0.13-0.02-0.26-0.04-0.39-0.07c-0.13-0.02-0.26-0.04-0.39-0.069
			c-0.391-0.061-0.78-0.13-1.171-0.2c-0.649-0.12-1.3-0.23-1.949-0.35c-0.391-0.061-0.78-0.131-1.17-0.2
			c-0.391-0.07-0.78-0.141-1.17-0.21c-0.65-0.11-1.3-0.23-1.95-0.34c-0.38-0.07-0.78-0.141-1.16-0.21
			c-0.39-0.07-0.79-0.141-1.17-0.2c-0.65-0.12-1.3-0.23-1.95-0.351c-0.39-0.069-0.78-0.14-1.17-0.199
			c-0.39-0.07-0.78-0.141-1.17-0.211c-0.65-0.109-1.3-0.229-1.95-0.34c-0.39-0.069-0.78-0.14-1.17-0.21
			c-0.39-0.069-0.78-0.14-1.17-0.21c-0.65-0.109-1.29-0.22-1.95-0.34c-0.38-0.07-0.77-0.14-1.17-0.21c-0.38-0.06-0.77-0.13-1.16-0.2
			c-0.65-0.12-1.3-0.229-1.95-0.34c-0.39-0.07-0.78-0.14-1.17-0.21c-0.39-0.07-0.78-0.14-1.17-0.21c-0.65-0.11-1.3-0.23-1.95-0.34
			c-0.08,0.04-0.31-0.12-0.39-0.07c-0.04,0.03-0.05,0.33-0.07,0.391c-0.03,0.13-0.03,0.26-0.07,0.39c-0.02,0.13-0.04,0.26-0.06,0.39
			c-0.03,0.13-0.05,0.26-0.07,0.391c-0.02,0.13-0.05,0.26-0.07,0.39s-0.05,0.26-0.07,0.39c-0.39-0.069-0.78-0.14-1.17-0.21
			c-0.26-0.04-0.52-0.09-0.78-0.14c-0.07,0.39-0.14,0.79-0.21,1.17c-0.04,0.26-0.09,0.52-0.13,0.79c0.39,0.06,0.78,0.13,1.17,0.2
			c0.26,0.05,0.52,0.09,0.78,0.14c0.06-0.39,0.13-0.78,0.2-1.17c0.05-0.26,0.09-0.52,0.14-0.78c0.78,0.141,1.56,0.271,2.34,0.41
			c0.39,0.07,0.78,0.141,1.17,0.21c0.26,0.04,0.52,0.09,0.78,0.13c0.78,0.141,1.56,0.28,2.34,0.42c0.38,0.07,0.77,0.131,1.16,0.2
			C20.75,37.2,21.01,37.24,21.27,37.291z M21.57,12.83c0.13-0.78,0.27-1.56,0.41-2.33c0.07-0.4,0.14-0.78,0.21-1.17
			c0.04-0.26,0.09-0.52,0.13-0.78c0.39,0.07,0.78,0.14,1.17,0.2c0.26,0.05,0.52,0.1,0.78,0.14c0.14-0.78,0.28-1.56,0.42-2.34
			c0.77,0.14,1.55,0.28,2.33,0.41c0.14-0.78,0.28-1.55,0.41-2.33c1.43,0.25,2.86,0.5,4.29,0.75c0.07-0.39,0.14-0.78,0.21-1.17
			c0.04-0.26,0.09-0.52,0.14-0.78c2.07,0.37,4.15,0.73,6.23,1.1c0.14-0.78,0.27-1.56,0.409-2.33C44.56,3.23,50.4,4.26,56.25,5.29
			c-0.14,0.78-0.279,1.56-0.42,2.33c2.21,0.39,4.42,0.78,6.63,1.17c-0.09,0.52-0.18,1.04-0.279,1.56
			c-0.021,0.13-0.04,0.26-0.061,0.39c0.391,0.07,0.78,0.14,1.16,0.21c0.271,0.04,0.53,0.09,0.79,0.14
			c-0.14,0.78-0.28,1.55-0.42,2.33c0.78,0.14,1.56,0.28,2.34,0.42c-0.14,0.78-0.28,1.55-0.41,2.33c0.391,0.07,0.78,0.14,1.17,0.21
			c0.261,0.05,0.521,0.09,0.78,0.14c-0.189,1.04-0.37,2.08-0.55,3.11c-0.07,0.39-0.14,0.78-0.21,1.17c0.78,0.14,1.56,0.28,2.34,0.41
			c-0.07,0.4-0.14,0.79-0.21,1.17c-0.07,0.39-0.13,0.78-0.2,1.17c-0.05,0.26-0.09,0.52-0.14,0.78c-0.07,0.39-0.141,0.78-0.21,1.17
			c0.39,0.07,0.78,0.14,1.17,0.21c0.26,0.04,0.52,0.09,0.78,0.14c-0.07,0.38-0.141,0.78-0.2,1.17c-0.05,0.26-0.101,0.52-0.141,0.78
			c-0.069,0.38-0.14,0.77-0.21,1.16c-0.069,0.39-0.14,0.78-0.199,1.17c0.77,0.14,1.56,0.279,2.33,0.41
			c-0.391,2.21-0.78,4.42-1.171,6.63c0.4,0.069,0.78,0.14,1.171,0.21c0.26,0.04,0.52,0.09,0.779,0.13
			c-0.25,1.43-0.5,2.859-0.75,4.29c-0.21,1.17-0.41,2.34-0.62,3.51c-0.05,0.26-0.09,0.521-0.14,0.78
			c-0.39-0.07-0.78-0.141-1.17-0.21c-0.26-0.05-0.521-0.09-0.78-0.141c-0.359,2.08-0.729,4.16-1.1,6.24
			c-0.771-0.14-1.561-0.28-2.33-0.41c0.18-1.04,0.36-2.08,0.55-3.12c0.07-0.39,0.13-0.779,0.2-1.17c-0.39-0.069-0.78-0.14-1.17-0.21
			c-0.26-0.04-0.521-0.09-0.78-0.13c0.07-0.39,0.14-0.78,0.21-1.17c0.05-0.26,0.09-0.52,0.14-0.78
			C63.88,44.8,62.84,44.62,61.8,44.44c-0.391-0.07-0.78-0.14-1.17-0.21c-0.07,0.39-0.141,0.78-0.211,1.17
			c-0.039,0.26-0.09,0.521-0.13,0.78c-0.39-0.07-0.779-0.14-1.17-0.21c-0.39-0.061-0.779-0.13-1.17-0.2
			c-0.069,0.39-0.14,0.78-0.21,1.17c-0.06,0.391-0.13,0.78-0.2,1.16c-0.05,0.26-0.09,0.52-0.14,0.78
			c-0.07,0.39-0.14,0.779-0.21,1.17c0.39,0.069,0.78,0.14,1.17,0.21s0.78,0.14,1.17,0.21c-0.14,0.77-0.27,1.55-0.41,2.33
			c0.391,0.069,0.78,0.14,1.17,0.21c0.391,0.07,0.78,0.14,1.17,0.21c0.261,0.04,0.521,0.09,0.78,0.13
			c0.391,0.07,0.78,0.14,1.17,0.21c0.07-0.39,0.13-0.78,0.2-1.17c0.03-0.13,0.05-0.26,0.07-0.39c0.02-0.11,0.02-0.28,0.069-0.391
			c0.03-0.06,0.011-0.35,0.07-0.39c0.07-0.05,0.3,0.11,0.39,0.07c0.521,0.09,1.04,0.18,1.561,0.279c-0.28,1.55-0.55,3.11-0.83,4.67
			c-0.521-0.09-1.04-0.18-1.56-0.27c-0.131-0.03-0.261-0.05-0.391-0.07c-0.06,0.391-0.13,0.78-0.2,1.17
			c-0.05,0.261-0.09,0.521-0.14,0.78c-0.39-0.07-0.78-0.14-1.17-0.21s-0.78-0.14-1.17-0.21c-0.26-0.04-0.521-0.09-0.78-0.13
			c-0.39-0.07-0.78-0.141-1.17-0.21c-0.14,0.779-0.27,1.56-0.41,2.34c-2.99-0.53-5.979-1.061-8.96-1.58
			c-0.07,0.39-0.14,0.78-0.21,1.17c-0.04,0.26-0.09,0.521-0.13,0.78c-10.01-1.771-20.01-3.53-30.01-5.29
			c0.07-0.391,0.14-0.79,0.2-1.17c0.05-0.26,0.1-0.521,0.14-0.78c-2.99-0.53-5.97-1.06-8.96-1.58c0.14-0.78,0.28-1.56,0.41-2.34
			c1.56,0.27,3.12,0.55,4.68,0.82c0.25-1.42,0.5-2.86,0.75-4.28c-1.55-0.28-3.11-0.55-4.67-0.83c-0.25,1.43-0.51,2.86-0.76,4.29
			c-1.43-0.25-2.86-0.5-4.28-0.76c0.09-0.521,0.18-1.04,0.27-1.561c0.02-0.13,0.05-0.26,0.07-0.38c-0.39-0.07-0.78-0.14-1.17-0.21
			c-0.26-0.05-0.52-0.09-0.78-0.14c0.14-0.78,0.28-1.561,0.41-2.34c-0.78-0.131-1.56-0.271-2.33-0.41c0.5-2.86,1-5.71,1.51-8.57
			c0.78,0.13,1.55,0.271,2.33,0.41c0.14-0.78,0.28-1.561,0.42-2.34c0.07-0.391,0.13-0.78,0.2-1.17c0.05-0.261,0.09-0.521,0.14-0.78
			c0.14-0.78,0.28-1.56,0.41-2.33c0.07-0.39,0.14-0.78,0.21-1.17c0.04-0.26,0.09-0.52,0.14-0.78c0.39,0.06,0.78,0.13,1.17,0.2
			c0.26,0.05,0.52,0.09,0.78,0.14c0.2-1.17,0.41-2.34,0.61-3.51c0.19-1.03,0.37-2.07,0.55-3.12c0.78,0.14,1.56,0.28,2.34,0.42
			c0.52,0.09,1.04,0.18,1.56,0.27c0.13,0.02,0.26,0.05,0.39,0.07c0.14-0.78,0.27-1.56,0.41-2.34c0.07-0.39,0.14-0.78,0.21-1.16
			c0.04-0.26,0.09-0.53,0.14-0.79c0.78,0.14,1.55,0.28,2.33,0.42c0.14-0.78,0.28-1.56,0.42-2.34c0.11-0.65,0.22-1.3,0.34-1.95
			C20.01,12.56,20.79,12.69,21.57,12.83z M55.08,11.91c0.141-0.78,0.271-1.56,0.41-2.34c-0.78-0.13-1.56-0.27-2.34-0.41
			c-0.13,0.78-0.27,1.56-0.41,2.34C53.52,11.64,54.3,11.77,55.08,11.91z"/>
		<path fill="#63677A" d="M23.61,37.7c-0.78-0.14-1.56-0.27-2.34-0.409c-0.26-0.051-0.52-0.091-0.78-0.141
			c-0.39-0.069-0.78-0.13-1.16-0.2c-0.78-0.14-1.56-0.279-2.34-0.42c-0.26-0.04-0.52-0.09-0.78-0.13
			c-0.39-0.069-0.78-0.14-1.17-0.21c-0.78-0.14-1.56-0.27-2.34-0.41c0.02-0.13,0.05-0.26,0.07-0.39s0.05-0.26,0.07-0.39
			c0.02-0.131,0.04-0.261,0.07-0.391c0.02-0.13,0.04-0.26,0.06-0.39c0.04-0.13,0.04-0.26,0.07-0.39c0.02-0.061,0.03-0.36,0.07-0.391
			c0.08-0.05,0.31,0.11,0.39,0.07c0.65,0.109,1.3,0.229,1.95,0.34c0.39,0.07,0.78,0.14,1.17,0.21c0.39,0.07,0.78,0.14,1.17,0.21
			c0.65,0.11,1.3,0.22,1.95,0.34c0.39,0.07,0.78,0.141,1.16,0.2c0.4,0.07,0.79,0.14,1.17,0.21c0.66,0.12,1.3,0.23,1.95,0.34
			c0.39,0.07,0.78,0.141,1.17,0.21c0.39,0.07,0.78,0.141,1.17,0.21c0.65,0.11,1.3,0.23,1.95,0.34c0.39,0.07,0.78,0.141,1.17,0.211
			c0.39,0.06,0.78,0.13,1.17,0.199c0.65,0.12,1.3,0.23,1.95,0.351c0.38,0.06,0.78,0.13,1.17,0.2c0.38,0.069,0.78,0.14,1.16,0.21
			c0.65,0.109,1.3,0.229,1.95,0.34c0.39,0.069,0.78,0.14,1.17,0.21c0.39,0.069,0.779,0.14,1.17,0.2
			c0.649,0.119,1.3,0.229,1.949,0.35c0.391,0.07,0.78,0.14,1.171,0.2c0.13,0.029,0.26,0.05,0.39,0.069
			c0.13,0.03,0.26,0.051,0.39,0.07c0.13,0.021,0.261,0.05,0.391,0.07c0.13,0.03,0.26,0.05,0.39,0.069
			c0.26,0.04,0.52,0.091,0.78,0.141c0.13,0.02,0.26,0.04,0.39,0.06c0.13,0.03,0.25,0.05,0.39,0.07c0.131,0.03,0.261,0.05,0.391,0.07
			c0.12,0.029,0.26,0.05,0.38,0.069c0.14,0.021,0.26,0.051,0.4,0.07c0.119,0.02,0.26,0.03,0.39,0.07c0.12,0.04,0.26,0.04,0.38,0.069
			c0.06,0.011,0.36,0.021,0.4,0.07c0.05,0.07-0.11,0.3-0.07,0.39c-0.07,0.391-0.14,0.771-0.21,1.17
			c-0.04,0.261-0.09,0.511-0.14,0.771c-0.391-0.06-0.78-0.13-1.171-0.2c-0.39-0.07-0.779-0.14-1.17-0.21
			c-0.779-0.14-1.56-0.27-2.33-0.41c-0.26-0.05-0.52-0.09-0.779-0.14c-0.391-0.07-0.78-0.14-1.17-0.2
			c-0.78-0.14-1.561-0.28-2.341-0.42c-0.26-0.04-0.52-0.09-0.779-0.13c-0.39-0.07-0.78-0.14-1.17-0.21
			c-0.78-0.14-1.56-0.28-2.34-0.41c-0.26-0.05-0.52-0.09-0.78-0.14c-0.39-0.07-0.78-0.141-1.17-0.21
			c-0.78-0.13-1.55-0.271-2.33-0.41c-0.26-0.04-0.52-0.09-0.78-0.141c-0.39-0.06-0.78-0.13-1.17-0.199
			c-0.78-0.141-1.56-0.28-2.34-0.41C25.3,38,25.04,37.95,24.78,37.91C24.39,37.84,24,37.77,23.61,37.7z"/>
		<path fill="#858D99" d="M12.7,35.78c-0.05,0.261-0.09,0.521-0.14,0.78c-0.07,0.39-0.14,0.78-0.2,1.17
			c-0.26-0.05-0.52-0.09-0.78-0.14c-0.39-0.07-0.78-0.141-1.17-0.2c0.04-0.271,0.09-0.53,0.13-0.79c0.07-0.38,0.14-0.78,0.21-1.17
			c0.26,0.05,0.52,0.1,0.78,0.14C11.92,35.64,12.31,35.71,12.7,35.78z"/>
		<path fill="#211F30" d="M11.09,19.82c-0.18,1.05-0.36,2.09-0.55,3.12c-0.2,1.17-0.41,2.34-0.61,3.51
			c-0.26-0.05-0.52-0.09-0.78-0.14c-0.39-0.07-0.78-0.14-1.17-0.2c0.39-2.21,0.78-4.42,1.17-6.63c0.25,0.05,0.52,0.09,0.77,0.14
			C10.31,19.69,10.7,19.76,11.09,19.82z"/>
		<path fill="#211F30" d="M17.88,58.791c12.99,2.29,25.98,4.579,38.97,6.869c0.05-0.26,0.09-0.52,0.14-0.779
			c0.07-0.38,0.141-0.78,0.2-1.17c2.86,0.51,5.72,1.01,8.58,1.52c-0.05,0.26-0.09,0.521-0.14,0.78c-0.07,0.39-0.141,0.78-0.211,1.17
			c-0.51-0.09-1.029-0.19-1.56-0.28c-0.25-0.04-0.51-0.09-0.77-0.13c-0.141,0.771-0.28,1.55-0.41,2.33
			c-4.42-0.78-8.84-1.56-13.25-2.34c-1.17-0.2-2.34-0.41-3.511-0.62c-1.039-0.18-2.079-0.36-3.119-0.54
			c-2.08-0.37-4.16-0.74-6.23-1.1c-1.17-0.21-2.34-0.42-3.51-0.62c-1.04-0.19-2.08-0.37-3.12-0.55c-2.08-0.37-4.15-0.73-6.23-1.101
			c-1.17-0.21-2.34-0.41-3.51-0.62c-1.04-0.18-2.08-0.37-3.12-0.55c-2.08-0.37-4.15-0.729-6.23-1.1c0.13-0.78,0.27-1.561,0.41-2.33
			c-0.78-0.141-1.56-0.28-2.34-0.42c0.05-0.261,0.09-0.521,0.14-0.78c0.07-0.39,0.14-0.78,0.2-1.17c2.99,0.53,5.98,1.06,8.97,1.58
			c-0.05,0.26-0.1,0.52-0.14,0.779C18.02,58.01,17.95,58.4,17.88,58.791z"/>
		<path fill="#211F30" d="M7.98,26.11c-0.05,0.26-0.1,0.52-0.14,0.78c-0.07,0.39-0.14,0.78-0.21,1.17
			c-0.13,0.77-0.27,1.55-0.41,2.33c-0.05,0.26-0.09,0.52-0.14,0.78c-0.07,0.39-0.13,0.779-0.2,1.17C6.74,33.12,6.6,33.9,6.46,34.68
			c-0.78-0.14-1.55-0.28-2.33-0.41c0.04-0.26,0.09-0.52,0.13-0.78c0.07-0.39,0.14-0.779,0.21-1.17c0.14-0.779,0.28-1.56,0.41-2.34
			c0.25-1.43,0.51-2.86,0.76-4.29C6.42,25.83,7.2,25.97,7.98,26.11z"/>
		<path fill="#211F30" d="M5.39,52.17c1.43,0.25,2.86,0.5,4.29,0.76c-0.14,0.78-0.28,1.55-0.42,2.33c-1.42-0.25-2.86-0.5-4.28-0.75
			C5.12,53.73,5.25,52.95,5.39,52.17z"/>
		<path fill="#858D99" d="M18.64,54.51c10,1.76,20,3.52,30.01,5.29c0.04-0.26,0.09-0.521,0.13-0.78c0.07-0.39,0.14-0.78,0.21-1.17
			c2.98,0.52,5.97,1.05,8.96,1.58c0.141-0.78,0.271-1.561,0.41-2.34c0.39,0.069,0.78,0.14,1.17,0.21c0.26,0.04,0.521,0.09,0.78,0.13
			c0.39,0.07,0.78,0.14,1.17,0.21s0.78,0.14,1.17,0.21c0.05-0.26,0.09-0.52,0.14-0.78c0.07-0.39,0.141-0.779,0.2-1.17
			c0.13,0.021,0.26,0.04,0.391,0.07c0.52,0.09,1.039,0.18,1.56,0.27c0.28-1.56,0.55-3.12,0.83-4.67c0.77,0.13,1.56,0.271,2.33,0.41
			c0.37-2.08,0.74-4.16,1.1-6.24c0.26,0.051,0.521,0.091,0.78,0.141c0.39,0.069,0.78,0.14,1.17,0.21c0.05-0.26,0.09-0.521,0.14-0.78
			c0.21-1.17,0.41-2.34,0.62-3.51c0.25-1.431,0.5-2.86,0.75-4.29c-0.26-0.04-0.52-0.09-0.779-0.13
			c-0.391-0.07-0.771-0.141-1.171-0.21c0.391-2.21,0.78-4.42,1.171-6.63c-0.771-0.131-1.561-0.271-2.33-0.41
			c0.06-0.39,0.13-0.78,0.199-1.17c0.07-0.39,0.141-0.78,0.21-1.16c0.04-0.26,0.091-0.52,0.141-0.78c0.06-0.39,0.13-0.79,0.2-1.17
			c-0.261-0.05-0.521-0.1-0.78-0.14c-0.39-0.07-0.78-0.14-1.17-0.21c0.069-0.39,0.14-0.78,0.21-1.17c0.05-0.26,0.09-0.52,0.14-0.78
			c0.07-0.39,0.13-0.78,0.2-1.17c0.07-0.38,0.14-0.77,0.21-1.17c-0.78-0.13-1.56-0.27-2.34-0.41c0.07-0.39,0.14-0.78,0.21-1.17
			c0.18-1.03,0.36-2.07,0.55-3.11c0.78,0.14,1.55,0.27,2.33,0.41c-0.06,0.39-0.13,0.78-0.2,1.17c-0.05,0.26-0.09,0.52-0.14,0.78
			c0.39,0.07,0.78,0.14,1.17,0.21c0.26,0.04,0.52,0.09,0.78,0.13c-0.141,0.78-0.28,1.56-0.41,2.34c0.78,0.13,1.56,0.27,2.34,0.41
			c-0.26,1.43-0.51,2.86-0.76,4.29c0.39,0.07,0.779,0.14,1.17,0.2c0.26,0.05,0.52,0.1,0.78,0.14c-0.25,1.43-0.511,2.86-0.761,4.29
			c0.78,0.13,1.561,0.27,2.34,0.41c-0.39,2.21-0.779,4.42-1.17,6.63c0.78,0.13,1.561,0.27,2.341,0.41
			c-0.25,1.43-0.5,2.859-0.761,4.279c-0.06,0.391-0.13,0.78-0.199,1.171c-0.051,0.26-0.091,0.52-0.141,0.779
			c-0.07,0.391-0.14,0.78-0.21,1.17c-0.06,0.391-0.13,0.78-0.2,1.17c0.391,0.07,0.78,0.141,1.17,0.21
			c0.261,0.04,0.521,0.091,0.78,0.131c-0.64,3.64-1.29,7.279-1.93,10.92c-0.391-0.07-0.78-0.141-1.17-0.21
			c-0.261-0.051-0.521-0.091-0.78-0.141c-0.13,0.78-0.27,1.561-0.41,2.34c-0.07,0.391-0.13,0.78-0.2,1.171
			c-0.05,0.26-0.1,0.52-0.14,0.779c-0.78-0.14-1.56-0.279-2.34-0.41c-0.07,0.391-0.141,0.78-0.2,1.16
			c-0.05,0.26-0.1,0.521-0.14,0.78c-1.431-0.25-2.86-0.5-4.29-0.75c-0.141,0.78-0.28,1.56-0.41,2.34c-2.86-0.51-5.72-1.01-8.58-1.52
			c-0.06,0.39-0.13,0.79-0.2,1.17c-0.05,0.26-0.09,0.52-0.14,0.779c-12.99-2.29-25.98-4.579-38.97-6.869
			c0.07-0.391,0.14-0.78,0.21-1.171c0.04-0.26,0.09-0.52,0.14-0.779c-2.99-0.521-5.98-1.05-8.97-1.58c0.14-0.78,0.28-1.55,0.42-2.33
			c-1.43-0.26-2.86-0.51-4.29-0.76C5.46,51.78,5.53,51.39,5.6,51c0.04-0.261,0.09-0.521,0.13-0.78c-0.39-0.07-0.78-0.14-1.16-0.2
			c-0.26-0.05-0.52-0.1-0.78-0.14c0.25-1.431,0.5-2.86,0.75-4.29c0.26,0.05,0.52,0.09,0.78,0.14c0.39,0.07,0.78,0.14,1.17,0.21
			c-0.02,0.12-0.05,0.25-0.07,0.38c-0.09,0.521-0.18,1.04-0.27,1.561c1.42,0.26,2.85,0.51,4.28,0.76c-0.13,0.78-0.27,1.56-0.41,2.34
			c2.99,0.521,5.97,1.05,8.96,1.58c-0.04,0.26-0.09,0.521-0.14,0.78C18.78,53.72,18.71,54.12,18.64,54.51z"/>
		<path fill="#858D99" d="M4.95,43.25c-0.13,0.779-0.27,1.56-0.41,2.34C3.76,45.45,2.98,45.32,2.2,45.18
			c0.14-0.78,0.28-1.561,0.42-2.34C3.39,42.98,4.17,43.12,4.95,43.25z"/>
		<path fill="#211F30" d="M4.54,45.59c-0.25,1.43-0.5,2.859-0.75,4.29C3,49.74,2.23,49.6,1.45,49.47c0.07-0.4,0.13-0.78,0.2-1.17
			c0.07-0.391,0.14-0.78,0.21-1.17C1.91,46.87,1.95,46.61,2,46.35c0.07-0.39,0.13-0.78,0.2-1.17C2.98,45.32,3.76,45.45,4.54,45.59z"
			/>
		<path fill="#211F30" d="M5.73,50.22C5.69,50.48,5.64,50.74,5.6,51c-0.07,0.39-0.14,0.779-0.21,1.17
			c-0.26-0.051-0.52-0.09-0.78-0.141c-0.39-0.069-0.78-0.14-1.17-0.199C3.46,51.7,3.49,51.57,3.51,51.44
			c0.09-0.52,0.18-1.04,0.28-1.56c0.26,0.04,0.52,0.09,0.78,0.14C4.95,50.081,5.34,50.15,5.73,50.22z"/>
		<path fill="#211F30" d="M0.25,44.84c0.64-3.641,1.29-7.28,1.93-10.92c0.26,0.05,0.52,0.1,0.78,0.14c0.39,0.07,0.78,0.14,1.17,0.21
			c-0.51,2.86-1.01,5.71-1.51,8.57C2.48,43.62,2.34,44.4,2.2,45.18c-0.26-0.05-0.52-0.09-0.78-0.14C1.03,44.97,0.65,44.9,0.25,44.84
			z"/>
	</g>
	<g>
	</g>
</g>
</svg>
