<?xml version="1.0" encoding="utf-8"?>
<!-- Generator: Adobe Illustrator 15.0.0, SVG Export Plug-In  -->
<!DOCTYPE svg PUBLIC "-//W3C//DTD SVG 1.1//EN" "http://www.w3.org/Graphics/SVG/1.1/DTD/svg11.dtd" [
	<!ENTITY ns_flows "http://ns.adobe.com/Flows/1.0/">
]>
<svg version="1.1"
	 xmlns="http://www.w3.org/2000/svg" xmlns:xlink="http://www.w3.org/1999/xlink" xmlns:a="http://ns.adobe.com/AdobeSVGViewerExtensions/3.0/"
	 x="0px" y="0px" width="95px" height="80px" viewBox="-8.78 -13.37 95 80" enable-background="new -8.78 -13.37 95 80"
	 xml:space="preserve">
<defs>
</defs>
<g id="XMLID_2_">
	<g>
		<path fill="#211F30" d="M80.05,43.91c-0.32,3.68-0.64,7.359-0.96,11.04c-0.79-0.07-1.58-0.141-2.37-0.21
			c0.32-3.67,0.65-7.36,0.97-11.03c0.391,0.03,0.78,0.06,1.181,0.1C79.26,43.84,79.661,43.88,80.05,43.91z"/>
		<path fill="#211F30" d="M78.34,36.22c-0.03,0.391-0.07,0.79-0.101,1.18c-0.02,0.261-0.05,0.53-0.069,0.79
			c-0.03,0.391-0.07,0.79-0.101,1.181c-0.029,0.26-0.05,0.529-0.069,0.79c-0.04,0.39-0.07,0.79-0.11,1.18
			c-0.06,0.79-0.13,1.58-0.2,2.37c-0.26-0.03-0.529-0.05-0.79-0.07c-0.39-0.04-0.79-0.069-1.18-0.109
			c0.03-0.391,0.07-0.78,0.1-1.181c0.03-0.39,0.07-0.79,0.101-1.18c0.03-0.26,0.05-0.53,0.069-0.79c0.04-0.39,0.07-0.79,0.11-1.18
			c0.12-1.45,0.25-2.891,0.38-4.34c0.26,0.02,0.521,0.05,0.78,0.069c0.4,0.03,0.79,0.07,1.19,0.101
			C78.411,35.43,78.38,35.82,78.34,36.22z"/>
		<path fill="#211F30" d="M77.06,28.16c-0.03,0.399-0.07,0.79-0.1,1.18c-0.021,0.271-0.05,0.53-0.07,0.79
			c-0.05,0.53-0.09,1.05-0.14,1.58c-0.09,1.05-0.181,2.1-0.271,3.15c-0.79-0.07-1.58-0.141-2.37-0.211
			c0.2-2.229,0.391-4.46,0.591-6.699C75.49,28.02,76.27,28.09,77.06,28.16z"/>
		<path fill="#211F30" d="M75.081,23.62c-0.04,0.39-0.07,0.79-0.11,1.18c-0.03,0.39-0.07,0.79-0.1,1.18
			c-0.021,0.27-0.051,0.53-0.07,0.79c-0.03,0.4-0.07,0.79-0.1,1.18c-0.79-0.07-1.58-0.141-2.37-0.2c0.13-1.45,0.25-2.89,0.38-4.34
			C73.5,23.48,74.291,23.55,75.081,23.62z"/>
		<path fill="#211F30" d="M76.72,54.74c-0.12,1.449-0.25,2.899-0.38,4.34c-0.26-0.021-0.521-0.05-0.79-0.07
			c-0.39-0.03-0.78-0.07-1.18-0.1c0.02-0.261,0.05-0.53,0.069-0.79c0.04-0.4,0.07-0.79,0.101-1.181
			c0.069-0.79,0.14-1.579,0.21-2.369c0.26,0.029,0.529,0.05,0.79,0.069C75.93,54.68,76.331,54.71,76.72,54.74z"/>
		<path fill="#211F30" d="M71.9,59.88c0.04-0.39,0.07-0.78,0.11-1.18c0.79,0.069,1.57,0.14,2.36,0.21
			c-0.021,0.26-0.04,0.52-0.07,0.79c-0.03,0.39-0.07,0.79-0.1,1.18c-0.79-0.07-1.58-0.14-2.37-0.21
			C71.86,60.41,71.88,60.14,71.9,59.88z"/>
		<path fill="#211F30" d="M71.911,18.97c0.39,0.03,0.79,0.07,1.18,0.1c-0.01,0.14-0.021,0.27-0.04,0.4
			c-0.05,0.66-0.11,1.31-0.17,1.97c-0.021,0.26-0.04,0.52-0.07,0.79c-0.03,0.39-0.06,0.79-0.1,1.18c-0.26-0.02-0.53-0.05-0.79-0.07
			c-0.391-0.03-0.78-0.07-1.181-0.1c0.131-1.45,0.25-2.89,0.381-4.34C71.38,18.92,71.65,18.95,71.911,18.97z"/>
		<path fill="#211F30" d="M71.831,60.67c-0.061,0.79-0.13,1.58-0.2,2.37c-1.45-0.13-2.891-0.26-4.34-0.38
			c0.069-0.79,0.14-1.58,0.21-2.37C68.94,60.42,70.39,60.55,71.831,60.67z"/>
		<path fill="#211F30" d="M71.331,16.54c-0.07,0.79-0.141,1.57-0.21,2.36c-0.79-0.07-1.58-0.14-2.36-0.21
			c0.06-0.78,0.13-1.57,0.2-2.36C69.75,16.4,70.541,16.47,71.331,16.54z"/>
		<path fill="#211F30" d="M67.371,11.82c-0.07,0.79-0.141,1.58-0.21,2.37c-0.79-0.07-1.57-0.14-2.36-0.21
			c0.07-0.79,0.14-1.58,0.21-2.37C65.791,11.68,66.581,11.75,67.371,11.82z"/>
		<path fill="#211F30" d="M69.13,14.36c-0.021,0.26-0.04,0.53-0.07,0.79c-0.03,0.39-0.06,0.79-0.1,1.18
			c-0.26-0.02-0.521-0.04-0.79-0.07c-0.391-0.03-0.79-0.07-1.181-0.1c0.021-0.26,0.051-0.53,0.07-0.79
			c0.03-0.39,0.07-0.79,0.101-1.18c0.27,0.02,0.529,0.04,0.79,0.07C68.35,14.29,68.74,14.33,69.13,14.36z"/>
		<path fill="#858D99" d="M69.39,38.61c-0.02,0.27-0.04,0.529-0.06,0.789c-0.04,0.391-0.07,0.79-0.11,1.181
			c-0.79-0.07-1.58-0.141-2.36-0.2c0.021-0.27,0.04-0.53,0.07-0.79c0.03-0.4,0.07-0.79,0.1-1.19
			C67.82,38.47,68.61,38.54,69.39,38.61z"/>
		<path fill="#858D99" d="M64.52,48.91c-0.08,0.05-0.319-0.101-0.39-0.03c-0.061,0.04-0.01,0.32-0.04,0.39
			c-0.03,0.11-0.021,0.28-0.03,0.391c-0.01,0.13-0.02,0.27-0.04,0.399c-0.03,0.391-0.06,0.79-0.1,1.181
			c-0.391-0.03-0.79-0.07-1.181-0.101c-0.27-0.029-0.529-0.05-0.789-0.069c-0.391-0.04-0.79-0.07-1.181-0.11
			c-0.399-0.03-0.79-0.061-1.189-0.1c0.069-0.79,0.14-1.58,0.21-2.36C59.4,48.46,59,48.43,58.61,48.39
			c-0.39-0.029-0.79-0.069-1.18-0.1c0.03-0.391,0.07-0.79,0.1-1.18c0.021-0.271,0.051-0.53,0.07-0.79
			c0.04-0.4,0.07-0.79,0.101-1.181c0.039-0.399,0.069-0.79,0.109-1.189c0.391,0.04,0.79,0.069,1.18,0.109
			c0.391,0.03,0.79,0.07,1.181,0.101c0.02-0.261,0.05-0.53,0.069-0.79c0.03-0.391,0.07-0.79,0.101-1.181
			c0.399,0.03,0.79,0.07,1.189,0.101c1.051,0.09,2.101,0.189,3.15,0.28c-0.02,0.26-0.05,0.52-0.07,0.79
			c-0.029,0.39-0.069,0.779-0.1,1.18c0.26,0.02,0.52,0.05,0.79,0.07c0.39,0.029,0.78,0.069,1.18,0.1c-0.04,0.4-0.069,0.79-0.1,1.189
			c-0.101,1.04-0.19,2.101-0.28,3.15C65.57,49,65.05,48.96,64.52,48.91z"/>
		<path fill="#211F30" d="M64.03,9.15c0.391,0.03,0.79,0.07,1.181,0.1c-0.07,0.79-0.141,1.58-0.2,2.36
			c-0.271-0.02-0.53-0.04-0.79-0.06c-0.4-0.04-0.79-0.07-1.19-0.11c0.07-0.79,0.141-1.57,0.21-2.36C63.5,9.1,63.76,9.12,64.03,9.15z
			"/>
		<path fill="#858D99" d="M64.22,11.55c0.26,0.02,0.52,0.04,0.79,0.06c-0.07,0.79-0.14,1.58-0.21,2.37
			c-0.271-0.02-0.53-0.04-0.79-0.07c-0.39-0.03-0.79-0.07-1.18-0.1c0.06-0.79,0.13-1.58,0.199-2.37
			C63.43,11.48,63.82,11.51,64.22,11.55z"/>
		<path fill="#858D99" d="M63.24,9.08c-0.069,0.79-0.14,1.57-0.21,2.36c-0.779-0.07-1.569-0.14-2.359-0.2
			c0.069-0.79,0.14-1.58,0.21-2.37C61.661,8.94,62.451,9.01,63.24,9.08z"/>
		<path fill="#858D99" d="M62.9,35.66c-0.069,0.79-0.14,1.58-0.21,2.359c-0.26-0.02-0.52-0.04-0.79-0.06
			c-0.39-0.04-0.779-0.07-1.18-0.11c0.07-0.79,0.14-1.569,0.21-2.359c0.39,0.029,0.79,0.069,1.18,0.1
			C62.38,35.62,62.64,35.64,62.9,35.66z"/>
		<path fill="#211F30" d="M59.081,6.73c1.439,0.12,2.89,0.25,4.33,0.37c-0.021,0.27-0.04,0.53-0.07,0.79
			c-0.03,0.4-0.07,0.79-0.101,1.19c-0.789-0.07-1.579-0.14-2.359-0.21c-0.271-0.02-0.53-0.05-0.79-0.07
			c-0.4-0.03-0.79-0.07-1.19-0.1c0.021-0.13,0.03-0.27,0.04-0.4C58.98,7.78,59.03,7.25,59.081,6.73z"/>
		<path fill="#FFFFFF" d="M58.701,11.06c-0.07,0.79-0.141,1.58-0.211,2.37c-0.789-0.07-1.569-0.14-2.359-0.21
			c0.06-0.79,0.13-1.57,0.2-2.36C57.121,10.93,57.911,10.99,58.701,11.06z"/>
		<path fill="#211F30" d="M52.581,3.78c2.239,0.19,4.47,0.39,6.699,0.58c-0.069,0.79-0.13,1.58-0.199,2.37
			c-2.24-0.2-4.471-0.4-6.71-0.59C52.44,5.35,52.51,4.56,52.581,3.78z"/>
		<path fill="#FFFFFF" d="M52.201,8.11C52.13,8.9,52.06,9.69,52,10.48c-0.79-0.07-1.58-0.14-2.37-0.21
			c0.07-0.79,0.14-1.58,0.21-2.36C50.63,7.97,51.42,8.04,52.201,8.11z"/>
		<path fill="#858D99" d="M49.3,41.22c-0.021,0.271-0.04,0.53-0.061,0.79c-0.039,0.4-0.069,0.79-0.109,1.19
			c-0.78-0.07-1.57-0.141-2.36-0.21c0.021-0.261,0.05-0.53,0.07-0.79c0.03-0.391,0.07-0.79,0.1-1.181
			C47.73,41.09,48.52,41.149,49.3,41.22z"/>
		<path fill="#858D99" d="M40.371,16.21c0.79,0.07,1.58,0.14,2.369,0.21c-0.13,1.44-0.26,2.89-0.38,4.33
			c-0.79-0.06-1.58-0.13-2.37-0.2c0.11-1.18,0.211-2.37,0.311-3.55C40.331,16.74,40.35,16.48,40.371,16.21z"/>
		<path fill="#858D99" d="M41.36,32.189c0.011-0.13,0.021-0.27,0.03-0.399c0.26,0.02,0.53,0.05,0.79,0.07
			c0.4,0.039,0.79,0.069,1.18,0.1c-0.02,0.27-0.04,0.53-0.06,0.79c-0.04,0.399-0.07,0.79-0.11,1.189
			c-0.26-0.029-0.52-0.05-0.79-0.069c-0.39-0.04-0.779-0.07-1.18-0.11C41.26,33.24,41.31,32.71,41.36,32.189z"/>
		<path fill="#858D99" d="M27.37,15.07c3.67,0.32,7.35,0.65,11.03,0.97c-0.12,1.44-0.25,2.89-0.38,4.34
			c-3.68-0.33-7.36-0.65-11.03-0.97c0.09-1.05,0.18-2.1,0.27-3.15C27.3,15.86,27.33,15.47,27.37,15.07z"/>
		<path fill="#63677A" d="M39.42,31.62c0.53,0.05,1.05,0.09,1.58,0.14c0.13,0.01,0.26,0.021,0.39,0.03
			c-0.01,0.13-0.02,0.27-0.03,0.399c-0.05,0.521-0.1,1.051-0.14,1.57c-1.05-0.09-2.1-0.18-3.15-0.27
			c-1.19-0.101-2.37-0.21-3.55-0.311c0.03-0.399,0.07-0.79,0.1-1.18c0.03-0.271,0.05-0.53,0.07-0.79c1.05,0.09,2.1,0.18,3.16,0.27
			C38.37,31.53,38.9,31.57,39.42,31.62z"/>
		<path d="M41,31.76c-0.53-0.05-1.05-0.09-1.58-0.14c-0.52-0.05-1.05-0.09-1.57-0.141c-1.06-0.09-2.11-0.18-3.16-0.27
			c0.07-0.79,0.14-1.58,0.21-2.37c0.13,0.01,0.26,0.021,0.39,0.04c2.1,0.18,4.21,0.36,6.31,0.55c-0.07,0.79-0.14,1.57-0.21,2.36
			C41.26,31.78,41.13,31.77,41,31.76z"/>
		<path fill="#211F30" d="M52.581,3.78c-5.91-0.52-11.82-1.04-17.74-1.55c0.03-0.27,0.05-0.53,0.07-0.79
			c0.04-0.4,0.07-0.79,0.11-1.19c0.39,0.04,0.78,0.07,1.18,0.11c0.39,0.03,0.79,0.06,1.18,0.1c0.79,0.07,1.58,0.14,2.37,0.21
			c0.649,0.05,1.31,0.11,1.97,0.17c0.79,0.07,1.58,0.14,2.36,0.21C44.74,1.1,45.4,1.16,46.05,1.22c0.79,0.07,1.58,0.14,2.37,0.2
			c0.66,0.06,1.31,0.12,1.97,0.18c0.79,0.07,1.58,0.13,2.36,0.2c-0.021,0.27-0.04,0.53-0.07,0.79
			C52.65,2.99,52.621,3.38,52.581,3.78z"/>
		<path fill="#63677A" d="M41.39,31.79c0.07-0.79,0.14-1.57,0.21-2.36c-2.1-0.189-4.21-0.37-6.31-0.55
			c-0.13-0.02-0.26-0.03-0.39-0.04c-0.07,0.79-0.14,1.58-0.21,2.37c-0.79-0.07-1.57-0.14-2.36-0.21c0.14-1.58,0.27-3.15,0.41-4.73
			c3.68,0.32,7.36,0.64,11.04,0.96c-0.14,1.58-0.279,3.16-0.42,4.73c-0.39-0.03-0.779-0.061-1.18-0.1
			C41.92,31.84,41.65,31.81,41.39,31.79z"/>
		<path fill="#858D99" d="M34.62,32c-0.03,0.39-0.07,0.78-0.1,1.18c-0.79-0.069-1.58-0.14-2.37-0.21c0.03-0.26,0.05-0.52,0.07-0.79
			c0.04-0.39,0.07-0.79,0.11-1.18c0.79,0.07,1.57,0.14,2.36,0.21C34.67,31.47,34.65,31.729,34.62,32z"/>
		<path fill="#858D99" d="M38.78,11.7c0.39,0.04,0.79,0.07,1.18,0.11c0.27,0.02,0.529,0.04,0.79,0.07
			c0.13,0.01,0.27,0.02,0.399,0.03c0.13,0.02,0.261,0.02,0.391,0.04c0.13,0.01,0.26,0.02,0.39,0.03c0.13,0.01,0.28,0.01,0.4,0.04
			c0.12,0.02,0.27,0.02,0.39,0.03c0.05,0,0.38,0,0.4,0.03c0.06,0.09-0.08,0.3-0.04,0.4c-0.011,0.13-0.021,0.26-0.03,0.39
			c-0.03,0.26-0.05,0.53-0.07,0.79c-0.06,0.07,0.04,0.33-0.04,0.4c-0.05,0.04-0.319-0.05-0.39-0.04c-0.11,0.02-0.28-0.02-0.39-0.03
			c-0.131-0.02-0.271-0.03-0.4-0.04c-0.13-0.01-0.26-0.02-0.39-0.03c-0.131-0.01-0.271-0.03-0.4-0.04s-0.26-0.02-0.39-0.03
			c-0.13-0.01-0.261-0.02-0.4-0.04c-0.13-0.01-0.26-0.02-0.39-0.03c-0.13-0.01-0.261-0.02-0.391-0.04
			c-0.26-0.02-0.53-0.04-0.79-0.06c-0.13-0.02-0.26-0.03-0.4-0.04c-0.13-0.01-0.26-0.02-0.39-0.03c-0.39-0.04-0.79-0.07-1.18-0.11
			c-0.4-0.03-0.79-0.07-1.19-0.1c-0.39-0.03-0.78-0.07-1.18-0.1c-0.39-0.04-0.79-0.07-1.18-0.11c-0.13-0.01-0.26-0.02-0.39-0.03
			c-0.12-0.01-0.29,0-0.4-0.04c-0.07-0.02-0.35,0.02-0.39-0.03c-0.06-0.07,0.08-0.31,0.03-0.4c0.02-0.26,0.05-0.52,0.07-0.78
			c0.02-0.27,0.05-0.53,0.07-0.79c0.26,0.02,0.52,0.04,0.79,0.07c0.52,0.04,1.05,0.09,1.57,0.14c0.4,0.03,0.79,0.06,1.19,0.1
			c0.52,0.04,1.05,0.09,1.57,0.14c0.27,0.02,0.53,0.04,0.79,0.07c0.14,0.01,0.27,0.02,0.4,0.03C38.52,11.68,38.65,11.69,38.78,11.7z
			"/>
		<path fill="#211F30" d="M28.33,4.04c0.07-0.79,0.14-1.58,0.21-2.37c2.1,0.19,4.2,0.37,6.3,0.56c-0.06,0.78-0.13,1.57-0.2,2.36
			C32.53,4.4,30.43,4.22,28.33,4.04z"/>
		<path fill="#211F30" d="M28.33,4.04c-0.02,0.26-0.05,0.52-0.07,0.79c-0.03,0.39-0.07,0.78-0.1,1.18
			c-1.45-0.13-2.89-0.25-4.34-0.38c0.02-0.26,0.05-0.53,0.07-0.79c0.03-0.39,0.07-0.79,0.1-1.18C25.44,3.78,26.89,3.91,28.33,4.04z"
			/>
		<path fill="#FFFFFF" d="M27.95,8.37c-0.07,0.79-0.14,1.58-0.21,2.37c-0.79-0.07-1.57-0.14-2.36-0.21
			c0.07-0.79,0.14-1.57,0.21-2.36C26.37,8.24,27.16,8.3,27.95,8.37z"/>
		<path fill="#858D99" d="M26.81,30.52c0.39,0.03,0.79,0.07,1.18,0.101c-0.02,0.26-0.04,0.529-0.07,0.79
			c-0.03,0.39-0.07,0.79-0.1,1.18c-0.27-0.02-0.53-0.04-0.79-0.07c-0.39-0.029-0.79-0.069-1.18-0.1c0.04-0.53,0.09-1.05,0.14-1.58
			c0.01-0.13,0.02-0.26,0.03-0.39C26.28,30.47,26.55,30.49,26.81,30.52z"/>
		<path fill="#FFFFFF" d="M25.03,14.47c-0.04,0.53-0.09,1.06-0.13,1.58c-0.03,0.26-0.05,0.52-0.07,0.79
			c-1.45-0.13-2.89-0.25-4.34-0.38c0.13-1.45,0.26-2.89,0.38-4.34c1.18,0.11,2.36,0.21,3.55,0.31c0.26,0.03,0.52,0.05,0.79,0.07
			c-0.04,0.4-0.07,0.79-0.11,1.18C25.08,13.95,25.06,14.21,25.03,14.47z"/>
		<path fill="#211F30" d="M23.82,5.63c-0.07,0.79-0.14,1.57-0.21,2.36c-0.78-0.07-1.57-0.13-2.36-0.2c0.07-0.79,0.14-1.58,0.21-2.37
			C22.25,5.49,23.03,5.56,23.82,5.63z"/>
		<path fill="#858D99" d="M21.33,43.14c-0.26-0.02-0.52-0.04-0.79-0.069c0.07-0.78,0.14-1.57,0.21-2.36
			c5.39,0.47,10.78,0.95,16.16,1.42c0.4,0.03,0.79,0.07,1.19,0.1c-0.03,0.261-0.05,0.521-0.07,0.79
			c-0.05,0.521-0.09,1.051-0.14,1.57c-0.4-0.03-0.79-0.07-1.18-0.1C31.58,44.04,26.46,43.59,21.33,43.14z"/>
		<path fill="#211F30" d="M20.07,7.68c0.39,0.04,0.79,0.07,1.18,0.11c-0.07,0.79-0.14,1.57-0.21,2.36
			c-0.26-0.02-0.52-0.04-0.79-0.07c-0.39-0.03-0.78-0.07-1.18-0.1c0.07-0.79,0.14-1.58,0.21-2.37C19.54,7.64,19.8,7.66,20.07,7.68z"
			/>
		<path d="M22.47,30.14c-1.05-0.09-2.1-0.189-3.15-0.279c0.07-0.79,0.14-1.57,0.21-2.36c0.13,0.01,0.26,0.02,0.39,0.03
			c2.1,0.18,4.2,0.37,6.31,0.55c-0.07,0.79-0.14,1.58-0.21,2.37c-0.13-0.011-0.26-0.03-0.39-0.04c-0.53-0.04-1.06-0.09-1.58-0.141
			C23.52,30.229,23,30.18,22.47,30.14z"/>
		<path fill="#63677A" d="M17.76,24.96c3.55,0.31,7.1,0.62,10.65,0.93c-0.14,1.58-0.28,3.16-0.42,4.73
			c-0.39-0.03-0.79-0.07-1.18-0.101c-0.26-0.029-0.53-0.05-0.79-0.069c0.07-0.79,0.14-1.58,0.21-2.37
			c-2.11-0.181-4.21-0.37-6.31-0.55c-0.13-0.01-0.26-0.02-0.39-0.03c-0.07,0.79-0.14,1.57-0.21,2.36c-0.4-0.03-0.79-0.07-1.18-0.101
			c-0.27-0.03-0.53-0.05-0.79-0.07C17.49,28.11,17.62,26.54,17.76,24.96z"/>
		<path fill="#63677A" d="M19.25,30.649c0.02-0.26,0.05-0.52,0.07-0.789c1.05,0.09,2.1,0.189,3.15,0.279
			c0.53,0.04,1.05,0.09,1.58,0.13c0.52,0.051,1.05,0.101,1.58,0.141c0.13,0.01,0.26,0.029,0.39,0.04c-0.01,0.13-0.02,0.26-0.03,0.39
			c-0.05,0.53-0.1,1.05-0.14,1.58c-1.05-0.09-2.1-0.18-3.16-0.28c-1.18-0.1-2.36-0.2-3.54-0.31
			C19.18,31.439,19.22,31.04,19.25,30.649z"/>
		<path fill="#211F30" d="M18.9,11.95c-0.79-0.07-1.58-0.14-2.37-0.21c0.03-0.26,0.05-0.52,0.07-0.79c0.04-0.39,0.07-0.78,0.11-1.18
			c0.79,0.07,1.57,0.14,2.36,0.21c-0.02,0.26-0.04,0.53-0.07,0.79C18.97,11.16,18.93,11.56,18.9,11.95z"/>
		<path fill="#FFFFFF" d="M16.33,14.11c0.07-0.79,0.14-1.58,0.2-2.37c0.79,0.07,1.58,0.14,2.37,0.21c-0.07,0.79-0.14,1.58-0.21,2.36
			C17.9,14.24,17.12,14.18,16.33,14.11z"/>
		<path fill="#858D99" d="M19.89,50.57c-0.04,0.39-0.07,0.779-0.1,1.18c-0.79-0.07-1.58-0.14-2.37-0.21
			c0.03-0.26,0.05-0.521,0.07-0.79c0.04-0.39,0.07-0.79,0.11-1.18c0.78,0.069,1.57,0.14,2.36,0.21
			C19.93,50.04,19.91,50.3,19.89,50.57z"/>
		<path fill="#858D99" d="M19.25,30.649c-0.03,0.391-0.07,0.79-0.1,1.181c-0.27-0.021-0.53-0.04-0.79-0.07
			c-0.4-0.03-0.79-0.06-1.19-0.1c0.03-0.261,0.05-0.53,0.07-0.79c0.04-0.391,0.07-0.79,0.11-1.181c0.26,0.021,0.52,0.04,0.79,0.07
			c0.39,0.03,0.78,0.07,1.18,0.101C19.3,30.13,19.27,30.39,19.25,30.649z"/>
		<path fill="#211F30" d="M14.17,11.54c0.79,0.07,1.57,0.14,2.36,0.2c-0.06,0.79-0.13,1.58-0.2,2.37c-0.79-0.07-1.58-0.14-2.37-0.21
			C14.03,13.11,14.1,12.32,14.17,11.54z"/>
		<path fill="#FFFFFF" d="M16.33,14.11c-0.06,0.66-0.12,1.31-0.18,1.97c-0.06,0.79-0.13,1.57-0.2,2.36
			c-0.79-0.06-1.58-0.13-2.37-0.2c0.13-1.45,0.26-2.89,0.38-4.34C14.75,13.97,15.54,14.04,16.33,14.11z"/>
		<path fill="#858D99" d="M15.83,47.03c-0.13,1.449-0.25,2.89-0.38,4.34c-1.57-0.141-3.15-0.28-4.73-0.41
			c0.13-1.45,0.25-2.9,0.38-4.34C12.68,46.76,14.25,46.899,15.83,47.03z"/>
		<path fill="#211F30" d="M13.96,13.9c-0.12,1.45-0.25,2.89-0.38,4.34c-0.26-0.03-0.52-0.05-0.79-0.07
			c-0.39-0.04-0.78-0.07-1.18-0.1c0.13-1.45,0.25-2.9,0.38-4.34c0.26,0.02,0.53,0.04,0.79,0.07C13.17,13.83,13.57,13.87,13.96,13.9z
			"/>
		<path fill="#FFFFFF" d="M13.58,18.24c-0.02,0.26-0.04,0.52-0.07,0.79c-0.03,0.39-0.06,0.78-0.1,1.18
			c-0.07,0.79-0.14,1.58-0.21,2.36c-0.13-0.01-0.26-0.02-0.39-0.03c-0.53-0.05-1.05-0.09-1.58-0.14c0.13-1.44,0.25-2.89,0.38-4.33
			c0.4,0.03,0.79,0.06,1.18,0.1C13.06,18.19,13.32,18.21,13.58,18.24z"/>
		<path fill="#211F30" d="M21.58,63.03c-1.05-0.101-2.1-0.19-3.15-0.28c-2.11-0.18-4.21-0.37-6.31-0.55
			c0.07-0.79,0.14-1.58,0.21-2.36c-0.79-0.07-1.58-0.14-2.37-0.21c0.02-0.26,0.05-0.53,0.07-0.79c0.04-0.39,0.07-0.79,0.1-1.18
			c3.03,0.26,6.05,0.52,9.07,0.79c-0.02,0.26-0.05,0.529-0.07,0.79c-0.03,0.39-0.07,0.79-0.1,1.18c13.14,1.15,26.28,2.3,39.42,3.45
			c0.02-0.26,0.039-0.53,0.06-0.79c0.04-0.391,0.07-0.79,0.11-1.181c2.89,0.25,5.779,0.5,8.67,0.761
			c-0.021,0.26-0.051,0.52-0.07,0.79c-0.03,0.39-0.07,0.779-0.1,1.18c-0.53-0.05-1.051-0.09-1.58-0.14
			c-0.261-0.021-0.521-0.04-0.79-0.07c-0.07,0.79-0.13,1.58-0.2,2.37c-4.47-0.4-8.94-0.79-13.4-1.18
			c-1.189-0.101-2.37-0.2-3.55-0.311c-1.05-0.09-2.1-0.18-3.16-0.27c-2.1-0.19-4.2-0.37-6.3-0.561c-1.19-0.1-2.37-0.2-3.55-0.31
			c-1.05-0.09-2.1-0.181-3.15-0.271c-2.11-0.189-4.21-0.37-6.31-0.55C23.95,63.229,22.76,63.13,21.58,63.03z"/>
		<path fill="#63677A" d="M20.53,38.71c-0.26-0.03-0.52-0.05-0.79-0.07c-0.39-0.04-0.79-0.069-1.18-0.109
			c-0.79-0.07-1.58-0.141-2.36-0.2c-0.27-0.03-0.53-0.05-0.79-0.07c-0.4-0.04-0.79-0.07-1.19-0.11c-0.79-0.069-1.57-0.13-2.36-0.199
			c0.01-0.13,0.02-0.271,0.03-0.4c0.01-0.13,0.03-0.26,0.04-0.39c0-0.13,0.02-0.271,0.03-0.4c0.01-0.13,0.02-0.26,0.04-0.39
			s0.01-0.26,0.03-0.391c0.01-0.06,0-0.359,0.04-0.399c0.07-0.061,0.31,0.08,0.39,0.04c0.66,0.05,1.31,0.109,1.97,0.17
			c0.39,0.03,0.79,0.07,1.18,0.1c0.4,0.04,0.79,0.07,1.19,0.11c0.65,0.05,1.31,0.11,1.97,0.17c0.39,0.03,0.79,0.07,1.18,0.1
			c0.39,0.04,0.79,0.07,1.18,0.101c0.66,0.06,1.32,0.12,1.97,0.18c0.4,0.03,0.79,0.07,1.19,0.1c0.39,0.03,0.78,0.07,1.18,0.101
			c0.65,0.06,1.31,0.12,1.97,0.18c0.39,0.03,0.79,0.07,1.18,0.101c0.4,0.029,0.79,0.069,1.18,0.1c0.66,0.06,1.32,0.12,1.98,0.18
			c0.39,0.03,0.78,0.07,1.18,0.101c0.39,0.029,0.79,0.069,1.18,0.1c0.66,0.061,1.31,0.12,1.97,0.18c0.4,0.03,0.79,0.061,1.18,0.101
			c0.4,0.03,0.79,0.07,1.19,0.1c0.65,0.061,1.311,0.12,1.971,0.17c0.39,0.04,0.789,0.07,1.18,0.11c0.13,0.01,0.26,0.02,0.39,0.03
			c0.141,0.01,0.271,0.029,0.4,0.04c0.13,0.01,0.26,0.02,0.39,0.029c0.13,0.021,0.271,0.03,0.4,0.04
			c0.26,0.021,0.52,0.04,0.779,0.07c0.131,0.01,0.271,0.02,0.4,0.03c0.13,0.01,0.26,0.02,0.39,0.029
			c0.131,0.021,0.271,0.021,0.4,0.04c0.13,0.021,0.26,0.021,0.39,0.03c0.131,0.01,0.261,0.03,0.4,0.04
			c0.12,0.01,0.26,0.01,0.39,0.03c0.13,0.03,0.271,0.02,0.391,0.04c0.06,0,0.359-0.01,0.399,0.029c0.061,0.07-0.08,0.311-0.029,0.4
			c-0.04,0.39-0.07,0.78-0.11,1.18c-0.021,0.261-0.04,0.521-0.07,0.79c-0.39-0.04-0.79-0.069-1.18-0.109
			c-0.4-0.03-0.79-0.07-1.18-0.101c-0.79-0.069-1.58-0.14-2.37-0.21c-0.26-0.02-0.521-0.04-0.79-0.069
			c-0.391-0.03-0.79-0.07-1.181-0.101c-0.789-0.069-1.58-0.14-2.37-0.21c-0.26-0.02-0.52-0.04-0.78-0.07
			c-0.4-0.029-0.79-0.06-1.19-0.1c-0.78-0.07-1.57-0.14-2.36-0.21c-0.26-0.02-0.53-0.04-0.79-0.07c-0.39-0.029-0.79-0.06-1.18-0.1
			c-0.79-0.07-1.58-0.14-2.37-0.21c-0.26-0.021-0.52-0.04-0.78-0.07c-0.4-0.029-0.79-0.06-1.19-0.1c-0.79-0.07-1.58-0.141-2.36-0.2
			c-0.27-0.03-0.53-0.05-0.79-0.07c-0.4-0.04-0.79-0.069-1.18-0.109C22.11,38.84,21.32,38.77,20.53,38.71z"/>
		<path fill="#211F30" d="M9.25,17.86c0.78,0.07,1.57,0.14,2.36,0.21c-0.13,1.44-0.25,2.89-0.38,4.33
			c-0.79-0.07-1.58-0.14-2.36-0.21C8.99,20.75,9.12,19.3,9.25,17.86z"/>
		<path fill="#858D99" d="M10.9,39.85c-0.4-0.029-0.79-0.069-1.19-0.1c0.03-0.271,0.05-0.53,0.07-0.79c0.04-0.4,0.07-0.79,0.11-1.19
			c0.26,0.03,0.52,0.051,0.79,0.07c0.39,0.04,0.79,0.07,1.18,0.11c-0.02,0.26-0.05,0.52-0.07,0.79c-0.03,0.39-0.07,0.779-0.1,1.18
			C11.42,39.899,11.16,39.87,10.9,39.85z"/>
		<path fill="#211F30" d="M6.31,28.72c0.2-2.23,0.39-4.46,0.59-6.7c0.26,0.02,0.52,0.05,0.79,0.07c0.39,0.03,0.78,0.07,1.18,0.1
			c-0.09,1.06-0.19,2.11-0.28,3.16c-0.1,1.18-0.2,2.36-0.31,3.549c-0.26-0.029-0.52-0.05-0.79-0.069C7.1,28.79,6.7,28.76,6.31,28.72
			z"/>
		<path fill="#AFBBC3" d="M69.331,39.399c0.02-0.26,0.04-0.52,0.06-0.789c-0.78-0.07-1.57-0.141-2.36-0.211
			c-0.029,0.4-0.069,0.79-0.1,1.19c-0.03,0.26-0.05,0.521-0.07,0.79c0.78,0.06,1.57,0.13,2.36,0.2
			C69.26,40.189,69.291,39.79,69.331,39.399z M58.49,13.43c0.07-0.79,0.141-1.58,0.211-2.37c-0.79-0.07-1.58-0.13-2.37-0.2
			c-0.07,0.79-0.141,1.57-0.2,2.36C56.92,13.29,57.701,13.36,58.49,13.43z M62.69,38.02c0.07-0.779,0.141-1.569,0.21-2.359
			c-0.26-0.021-0.52-0.04-0.79-0.07c-0.39-0.03-0.79-0.07-1.18-0.1c-0.07,0.79-0.14,1.569-0.21,2.359c0.4,0.04,0.79,0.07,1.18,0.11
			C62.17,37.979,62.43,38,62.69,38.02z M25.38,10.53c0.79,0.07,1.57,0.14,2.36,0.21c0.07-0.79,0.14-1.58,0.21-2.37
			c-0.79-0.07-1.58-0.13-2.36-0.2C25.52,8.96,25.45,9.74,25.38,10.53z M41.22,33.76c0.4,0.04,0.79,0.07,1.18,0.11
			c0.271,0.02,0.53,0.04,0.79,0.069c0.04-0.399,0.07-0.79,0.11-1.189c0.02-0.26,0.04-0.521,0.06-0.79
			c0.141-1.57,0.28-3.15,0.42-4.73c-3.68-0.32-7.359-0.64-11.04-0.96c-0.14,1.58-0.27,3.15-0.41,4.73
			c-0.04,0.39-0.07,0.79-0.11,1.18c-0.02,0.271-0.04,0.53-0.07,0.79c0.79,0.07,1.58,0.141,2.37,0.21
			c1.18,0.101,2.36,0.21,3.55,0.311C39.12,33.58,40.17,33.67,41.22,33.76z M27.82,32.59c0.03-0.39,0.07-0.79,0.1-1.18
			c0.03-0.261,0.05-0.53,0.07-0.79c0.14-1.57,0.28-3.15,0.42-4.73c-3.55-0.31-7.1-0.62-10.65-0.93c-0.14,1.58-0.27,3.15-0.41,4.729
			c-0.04,0.391-0.07,0.79-0.11,1.181c-0.02,0.26-0.04,0.529-0.07,0.79c0.4,0.04,0.79,0.069,1.19,0.1c0.26,0.03,0.52,0.05,0.79,0.07
			c1.18,0.109,2.36,0.21,3.54,0.31c1.06,0.101,2.11,0.19,3.16,0.28c0.39,0.03,0.79,0.07,1.18,0.1
			C27.29,32.55,27.55,32.57,27.82,32.59z M27.37,15.07c-0.04,0.4-0.07,0.79-0.11,1.19c-0.09,1.05-0.18,2.1-0.27,3.15
			c3.67,0.32,7.35,0.64,11.03,0.97c0.13-1.45,0.26-2.9,0.38-4.34C34.72,15.72,31.04,15.39,27.37,15.07z M39.99,20.55
			c0.79,0.07,1.58,0.14,2.37,0.2c0.12-1.44,0.25-2.89,0.38-4.33c-0.789-0.07-1.579-0.14-2.369-0.21c-0.021,0.27-0.04,0.53-0.07,0.79
			C40.201,18.18,40.1,19.37,39.99,20.55z M20.54,43.07c0.27,0.029,0.53,0.05,0.79,0.069c5.13,0.45,10.25,0.9,15.38,1.351
			c0.39,0.029,0.78,0.069,1.18,0.1c0.05-0.52,0.09-1.05,0.14-1.57c0.02-0.27,0.04-0.529,0.07-0.79c-0.4-0.029-0.79-0.069-1.19-0.1
			c-5.38-0.47-10.77-0.95-16.16-1.42C20.68,41.5,20.61,42.29,20.54,43.07z M19.74,38.64c0.27,0.021,0.53,0.04,0.79,0.07
			c0.79,0.06,1.58,0.13,2.37,0.2c0.39,0.04,0.78,0.069,1.18,0.109c0.26,0.021,0.52,0.04,0.79,0.07c0.78,0.06,1.57,0.13,2.36,0.2
			c0.4,0.04,0.79,0.07,1.19,0.1c0.26,0.03,0.52,0.05,0.78,0.07c0.79,0.07,1.58,0.14,2.37,0.21c0.39,0.04,0.79,0.07,1.18,0.1
			c0.26,0.03,0.53,0.051,0.79,0.07c0.79,0.07,1.58,0.14,2.36,0.21c0.4,0.04,0.79,0.07,1.19,0.1c0.26,0.03,0.52,0.051,0.78,0.07
			c0.79,0.07,1.581,0.141,2.37,0.21c0.391,0.03,0.79,0.07,1.181,0.101c0.27,0.029,0.53,0.05,0.79,0.069
			c0.79,0.07,1.58,0.141,2.37,0.21c0.39,0.03,0.779,0.07,1.18,0.101c0.39,0.04,0.79,0.069,1.18,0.109
			c-0.029,0.391-0.069,0.79-0.1,1.181c-0.021,0.26-0.05,0.529-0.07,0.79c0.79,0.069,1.58,0.14,2.36,0.21
			c0.04-0.4,0.07-0.79,0.109-1.19c0.021-0.26,0.04-0.52,0.061-0.79c-0.78-0.07-1.57-0.13-2.36-0.2c0.03-0.27,0.05-0.529,0.07-0.79
			c0.04-0.399,0.07-0.79,0.11-1.18c-0.051-0.09,0.09-0.33,0.029-0.4c-0.04-0.039-0.34-0.029-0.399-0.029
			c-0.12-0.021-0.261-0.01-0.391-0.04c-0.13-0.021-0.27-0.021-0.39-0.03c-0.14-0.01-0.27-0.03-0.4-0.04
			c-0.13-0.01-0.26-0.01-0.39-0.03c-0.13-0.02-0.27-0.02-0.4-0.04c-0.13-0.01-0.26-0.02-0.39-0.029c-0.13-0.011-0.27-0.021-0.4-0.03
			c-0.26-0.03-0.52-0.05-0.779-0.07c-0.13-0.01-0.271-0.02-0.4-0.04c-0.13-0.01-0.26-0.02-0.39-0.029
			c-0.13-0.011-0.26-0.03-0.4-0.04c-0.13-0.011-0.26-0.021-0.39-0.03c-0.391-0.04-0.79-0.07-1.18-0.11
			c-0.66-0.05-1.32-0.109-1.971-0.17c-0.4-0.029-0.79-0.069-1.19-0.1c-0.39-0.04-0.78-0.07-1.18-0.101
			c-0.66-0.06-1.31-0.119-1.97-0.18c-0.39-0.03-0.79-0.07-1.18-0.1c-0.4-0.03-0.79-0.07-1.18-0.101c-0.66-0.06-1.32-0.12-1.98-0.18
			c-0.39-0.03-0.78-0.07-1.18-0.1c-0.39-0.03-0.79-0.07-1.18-0.101c-0.66-0.06-1.32-0.12-1.97-0.18c-0.4-0.03-0.79-0.07-1.18-0.101
			c-0.4-0.029-0.79-0.069-1.19-0.1c-0.65-0.06-1.31-0.12-1.97-0.18c-0.39-0.03-0.79-0.061-1.18-0.101
			c-0.39-0.029-0.79-0.069-1.18-0.1c-0.66-0.06-1.32-0.12-1.97-0.17c-0.4-0.04-0.79-0.07-1.19-0.11c-0.39-0.029-0.79-0.069-1.18-0.1
			c-0.66-0.061-1.31-0.12-1.97-0.17c-0.08,0.04-0.32-0.101-0.39-0.04c-0.04,0.04-0.03,0.34-0.04,0.399
			C12.01,36.11,12.02,36.24,12,36.37s-0.03,0.26-0.04,0.39c-0.01,0.13-0.03,0.271-0.03,0.4c-0.01,0.13-0.03,0.26-0.04,0.39
			c-0.01,0.13-0.02,0.271-0.03,0.4c-0.39-0.04-0.79-0.07-1.18-0.11c-0.27-0.02-0.53-0.04-0.79-0.07c-0.04,0.4-0.07,0.79-0.11,1.19
			c-0.02,0.26-0.04,0.52-0.07,0.79c0.4,0.03,0.79,0.07,1.19,0.1c0.26,0.021,0.52,0.05,0.79,0.07c0.03-0.4,0.07-0.79,0.1-1.18
			c0.02-0.271,0.05-0.53,0.07-0.79c0.79,0.069,1.57,0.13,2.36,0.199c0.4,0.04,0.79,0.07,1.19,0.11c0.26,0.021,0.52,0.04,0.79,0.07
			c0.78,0.06,1.57,0.13,2.36,0.2C18.95,38.57,19.35,38.6,19.74,38.64z M20.49,16.46c1.45,0.13,2.89,0.25,4.34,0.38
			c0.02-0.27,0.04-0.53,0.07-0.79c0.04-0.52,0.09-1.05,0.13-1.58c0.03-0.26,0.05-0.52,0.07-0.79c0.04-0.39,0.07-0.78,0.11-1.18
			c-0.27-0.02-0.53-0.04-0.79-0.07c-1.19-0.1-2.37-0.2-3.55-0.31C20.75,13.57,20.62,15.01,20.49,16.46z M18.9,11.95
			c0.03-0.39,0.07-0.79,0.1-1.18c0.03-0.26,0.05-0.53,0.07-0.79c0.4,0.03,0.79,0.07,1.18,0.1c0.27,0.03,0.53,0.05,0.79,0.07
			c0.07-0.79,0.14-1.57,0.21-2.36c0.79,0.07,1.58,0.13,2.36,0.2c0.07-0.79,0.14-1.57,0.21-2.36c1.45,0.13,2.89,0.25,4.34,0.38
			c0.03-0.4,0.07-0.79,0.1-1.18c0.02-0.27,0.05-0.53,0.07-0.79c2.1,0.18,4.2,0.36,6.31,0.55c0.07-0.79,0.14-1.58,0.2-2.36
			c5.92,0.51,11.83,1.03,17.74,1.55c-0.07,0.78-0.141,1.57-0.21,2.36c2.239,0.19,4.47,0.39,6.71,0.59
			C59.03,7.25,58.98,7.78,58.94,8.3c-0.01,0.13-0.02,0.27-0.04,0.4c0.4,0.03,0.79,0.07,1.19,0.1c0.26,0.02,0.52,0.05,0.79,0.07
			c-0.07,0.79-0.141,1.58-0.21,2.37c0.79,0.06,1.58,0.13,2.359,0.2c-0.069,0.79-0.14,1.58-0.199,2.37c0.39,0.03,0.79,0.07,1.18,0.1
			c0.26,0.03,0.52,0.05,0.79,0.07c-0.09,1.05-0.19,2.1-0.28,3.15c-0.03,0.4-0.069,0.79-0.1,1.18c0.79,0.07,1.569,0.14,2.359,0.21
			c-0.029,0.4-0.06,0.79-0.1,1.18c-0.03,0.4-0.07,0.79-0.1,1.19c-0.03,0.26-0.051,0.52-0.07,0.79c-0.04,0.39-0.07,0.78-0.11,1.18
			c0.4,0.03,0.79,0.07,1.19,0.1c0.26,0.03,0.52,0.05,0.79,0.07c-0.04,0.39-0.07,0.79-0.11,1.18c-0.02,0.27-0.04,0.53-0.069,0.79
			c-0.03,0.4-0.07,0.79-0.101,1.19c-0.04,0.39-0.07,0.78-0.1,1.18c0.779,0.07,1.569,0.13,2.359,0.2c-0.199,2.24-0.39,4.47-0.59,6.71
			c0.4,0.029,0.79,0.06,1.19,0.1c0.26,0.02,0.52,0.04,0.779,0.07c-0.119,1.439-0.25,2.89-0.369,4.33
			c-0.11,1.189-0.21,2.369-0.32,3.55c-0.021,0.26-0.04,0.53-0.061,0.79c-0.399-0.03-0.789-0.07-1.189-0.101
			c-0.26-0.029-0.521-0.05-0.79-0.069c-0.18,2.1-0.36,4.199-0.55,6.3c-0.78-0.061-1.57-0.13-2.36-0.2c0.09-1.05,0.18-2.11,0.28-3.15
			c0.03-0.399,0.06-0.789,0.1-1.189c-0.399-0.03-0.79-0.07-1.18-0.1c-0.271-0.021-0.53-0.051-0.79-0.07c0.03-0.4,0.07-0.79,0.1-1.18
			c0.021-0.271,0.051-0.53,0.07-0.79c-1.05-0.091-2.1-0.19-3.15-0.28c-0.399-0.03-0.79-0.07-1.189-0.101
			c-0.03,0.391-0.07,0.79-0.101,1.181c-0.02,0.26-0.05,0.529-0.069,0.79c-0.391-0.03-0.79-0.07-1.181-0.101
			c-0.39-0.04-0.789-0.069-1.18-0.109c-0.04,0.399-0.07,0.79-0.109,1.189c-0.03,0.391-0.061,0.78-0.101,1.181
			c-0.02,0.26-0.05,0.52-0.07,0.79c-0.029,0.39-0.069,0.789-0.1,1.18c0.39,0.03,0.79,0.07,1.18,0.1c0.391,0.04,0.79,0.07,1.181,0.11
			c-0.07,0.78-0.141,1.57-0.21,2.36c0.399,0.039,0.79,0.069,1.189,0.1c0.391,0.04,0.79,0.07,1.181,0.11
			c0.26,0.02,0.52,0.04,0.789,0.069c0.391,0.03,0.79,0.07,1.181,0.101c0.04-0.391,0.069-0.79,0.1-1.181
			c0.021-0.13,0.03-0.27,0.04-0.399c0.01-0.11,0-0.28,0.03-0.391c0.03-0.069-0.021-0.35,0.04-0.39c0.07-0.07,0.31,0.08,0.39,0.03
			c0.53,0.05,1.05,0.09,1.58,0.14c-0.14,1.57-0.28,3.15-0.41,4.73c-0.529-0.051-1.06-0.091-1.58-0.141
			c-0.13-0.01-0.27-0.02-0.399-0.029C63.68,54,63.65,54.39,63.61,54.79c-0.02,0.26-0.05,0.52-0.069,0.79
			c-0.391-0.04-0.79-0.07-1.181-0.11c-0.39-0.03-0.79-0.06-1.18-0.1c-0.27-0.021-0.53-0.05-0.79-0.07c-0.4-0.03-0.79-0.07-1.189-0.1
			c-0.061,0.79-0.131,1.58-0.2,2.359c-3.021-0.26-6.05-0.529-9.07-0.79c-0.03,0.391-0.07,0.79-0.1,1.181
			c-0.021,0.26-0.051,0.529-0.07,0.79c-10.12-0.891-20.24-1.771-30.35-2.66c0.03-0.391,0.06-0.78,0.1-1.181
			c0.02-0.26,0.05-0.52,0.07-0.789c-3.02-0.261-6.05-0.521-9.07-0.79c0.07-0.79,0.14-1.58,0.21-2.36c1.58,0.13,3.16,0.27,4.73,0.41
			c0.13-1.45,0.25-2.891,0.38-4.34c-1.58-0.131-3.15-0.271-4.73-0.41c-0.13,1.439-0.25,2.89-0.38,4.34
			c-1.45-0.13-2.89-0.26-4.33-0.38C6.43,50.05,6.48,49.52,6.52,49c0.01-0.13,0.03-0.26,0.04-0.39c-0.4-0.04-0.79-0.07-1.19-0.11
			c-0.26-0.021-0.52-0.04-0.78-0.07c0.07-0.79,0.13-1.569,0.2-2.359C4,46,3.22,45.93,2.43,45.86c0.25-2.891,0.5-5.78,0.76-8.671
			c0.78,0.07,1.57,0.141,2.36,0.2c0.07-0.779,0.14-1.569,0.21-2.359c0.03-0.391,0.07-0.79,0.1-1.181c0.03-0.27,0.05-0.529,0.07-0.79
			C6,32.27,6.07,31.479,6.14,30.7c0.03-0.4,0.07-0.79,0.1-1.19c0.02-0.26,0.05-0.52,0.07-0.79c0.39,0.04,0.79,0.07,1.18,0.11
			c0.27,0.02,0.53,0.04,0.79,0.069c0.11-1.189,0.21-2.37,0.31-3.549c0.09-1.05,0.19-2.1,0.28-3.16c0.78,0.07,1.57,0.14,2.36,0.21
			c0.53,0.05,1.05,0.09,1.58,0.14c0.13,0.01,0.26,0.02,0.39,0.03c0.07-0.78,0.14-1.57,0.21-2.36c0.04-0.4,0.07-0.79,0.1-1.18
			c0.03-0.27,0.05-0.53,0.07-0.79c0.79,0.07,1.58,0.14,2.37,0.2c0.07-0.79,0.14-1.57,0.2-2.36c0.06-0.66,0.12-1.31,0.18-1.97
			c0.79,0.07,1.57,0.13,2.36,0.2C18.76,13.53,18.83,12.74,18.9,11.95z M19.79,51.75c0.03-0.4,0.06-0.79,0.1-1.18
			c0.02-0.271,0.04-0.53,0.07-0.79c-0.79-0.07-1.58-0.141-2.36-0.21c-0.04,0.39-0.07,0.79-0.11,1.18c-0.02,0.27-0.04,0.53-0.07,0.79
			C18.21,51.61,19,51.68,19.79,51.75z M40.581,13.85c0.13,0.01,0.26,0.02,0.39,0.03s0.27,0.03,0.4,0.04
			c0.13,0.01,0.26,0.02,0.39,0.03c0.13,0.01,0.27,0.02,0.4,0.04c0.109,0.01,0.279,0.05,0.39,0.03c0.07-0.01,0.34,0.08,0.39,0.04
			c0.08-0.07-0.02-0.33,0.04-0.4c0.021-0.26,0.04-0.53,0.07-0.79c0.01-0.13,0.02-0.26,0.03-0.39c-0.04-0.1,0.1-0.31,0.04-0.4
			c-0.021-0.03-0.351-0.03-0.4-0.03c-0.12-0.01-0.27-0.01-0.39-0.03c-0.12-0.03-0.271-0.03-0.4-0.04c-0.13-0.01-0.26-0.02-0.39-0.03
			c-0.13-0.02-0.261-0.02-0.391-0.04c-0.13-0.01-0.27-0.02-0.399-0.03c-0.261-0.03-0.521-0.05-0.79-0.07
			c-0.391-0.04-0.79-0.07-1.18-0.11c-0.13-0.01-0.26-0.02-0.39-0.03c-0.13-0.01-0.26-0.02-0.4-0.03c-0.26-0.03-0.52-0.05-0.79-0.07
			c-0.52-0.05-1.05-0.1-1.57-0.14c-0.4-0.04-0.79-0.07-1.19-0.1c-0.52-0.05-1.05-0.1-1.57-0.14c-0.27-0.03-0.53-0.05-0.79-0.07
			c-0.02,0.26-0.05,0.52-0.07,0.79c-0.02,0.26-0.05,0.52-0.07,0.78c0.05,0.09-0.09,0.33-0.03,0.4c0.04,0.05,0.32,0.01,0.39,0.03
			c0.11,0.04,0.28,0.03,0.4,0.04c0.13,0.01,0.26,0.02,0.39,0.03c0.39,0.04,0.79,0.07,1.18,0.11c0.4,0.03,0.79,0.07,1.18,0.1
			c0.4,0.03,0.79,0.07,1.19,0.1c0.39,0.04,0.79,0.07,1.18,0.11c0.13,0.01,0.26,0.02,0.39,0.03c0.14,0.01,0.27,0.02,0.4,0.04
			c0.26,0.02,0.53,0.04,0.79,0.06c0.13,0.02,0.261,0.03,0.391,0.04c0.13,0.01,0.26,0.02,0.39,0.03
			C40.32,13.83,40.451,13.84,40.581,13.85z M52,10.48c0.06-0.79,0.13-1.58,0.2-2.37c-0.78-0.07-1.57-0.14-2.36-0.2
			c-0.07,0.78-0.14,1.57-0.21,2.36C50.42,10.34,51.21,10.41,52,10.48z"/>
		<path fill="#211F30" d="M5.8,57.28c0.07-0.79,0.14-1.58,0.21-2.37c1.44,0.13,2.89,0.26,4.33,0.38c-0.07,0.79-0.14,1.58-0.21,2.37
			C8.69,57.53,7.24,57.399,5.8,57.28z"/>
		<path fill="#211F30" d="M3.36,35.22c0.07-0.79,0.14-1.58,0.21-2.37c0.12-1.439,0.25-2.89,0.38-4.33c0.78,0.07,1.57,0.13,2.36,0.2
			c-0.02,0.271-0.05,0.53-0.07,0.79c-0.03,0.4-0.07,0.79-0.1,1.19C6.07,31.479,6,32.27,5.93,33.06c-0.02,0.261-0.04,0.521-0.07,0.79
			c-0.03,0.391-0.07,0.79-0.1,1.181c-0.07,0.79-0.14,1.58-0.21,2.359c-0.79-0.06-1.58-0.13-2.36-0.2c0.02-0.27,0.04-0.529,0.07-0.79
			C3.29,36.01,3.32,35.61,3.36,35.22z"/>
		<path fill="#858D99" d="M19.41,56.08c10.11,0.89,20.23,1.77,30.35,2.66c0.02-0.261,0.05-0.53,0.07-0.79
			c0.029-0.391,0.069-0.79,0.1-1.181c3.021,0.261,6.05,0.53,9.07,0.79c0.069-0.779,0.14-1.569,0.2-2.359
			c0.399,0.029,0.789,0.069,1.189,0.1c0.26,0.021,0.521,0.05,0.79,0.07c0.39,0.04,0.79,0.069,1.18,0.1
			c0.391,0.04,0.79,0.07,1.181,0.11c0.02-0.271,0.05-0.53,0.069-0.79c0.04-0.4,0.07-0.79,0.101-1.18
			c0.13,0.01,0.27,0.02,0.399,0.029c0.521,0.05,1.051,0.09,1.58,0.141c0.13-1.58,0.271-3.16,0.41-4.73c0.79,0.07,1.58,0.14,2.36,0.2
			c0.189-2.101,0.37-4.2,0.55-6.3c0.27,0.02,0.53,0.04,0.79,0.069c0.4,0.03,0.79,0.07,1.189,0.101c0.021-0.26,0.04-0.53,0.061-0.79
			c0.11-1.181,0.21-2.36,0.32-3.55c0.119-1.44,0.25-2.891,0.369-4.33c-0.26-0.03-0.52-0.051-0.779-0.07
			c-0.4-0.04-0.79-0.07-1.19-0.1c0.2-2.24,0.391-4.471,0.59-6.71c-0.79-0.07-1.58-0.13-2.359-0.2c0.029-0.4,0.06-0.79,0.1-1.18
			c0.03-0.4,0.07-0.79,0.101-1.19c0.029-0.26,0.05-0.52,0.069-0.79c0.04-0.39,0.07-0.79,0.11-1.18c-0.271-0.02-0.53-0.04-0.79-0.07
			c-0.4-0.03-0.79-0.07-1.19-0.1c0.04-0.4,0.07-0.79,0.11-1.18c0.02-0.27,0.04-0.53,0.07-0.79c0.029-0.4,0.069-0.79,0.1-1.19
			c0.04-0.39,0.07-0.78,0.1-1.18c-0.79-0.07-1.569-0.14-2.359-0.21c0.03-0.39,0.069-0.78,0.1-1.18c0.09-1.05,0.19-2.1,0.28-3.15
			c0.79,0.07,1.57,0.14,2.36,0.21c-0.03,0.39-0.07,0.79-0.101,1.18c-0.02,0.26-0.05,0.53-0.07,0.79c0.391,0.03,0.79,0.07,1.181,0.1
			c0.27,0.03,0.53,0.05,0.79,0.07c-0.07,0.79-0.141,1.58-0.2,2.36c0.78,0.07,1.57,0.14,2.36,0.21c-0.131,1.45-0.25,2.89-0.381,4.34
			c0.4,0.03,0.79,0.07,1.181,0.1c0.26,0.02,0.53,0.05,0.79,0.07c-0.13,1.45-0.25,2.89-0.38,4.34c0.79,0.06,1.58,0.13,2.37,0.2
			c-0.2,2.239-0.391,4.47-0.591,6.699c0.79,0.07,1.58,0.141,2.37,0.211c-0.13,1.449-0.26,2.89-0.38,4.34
			c-0.04,0.39-0.07,0.79-0.11,1.18c-0.02,0.26-0.039,0.53-0.069,0.79c-0.03,0.39-0.07,0.79-0.101,1.18
			c-0.029,0.4-0.069,0.79-0.1,1.181c0.39,0.04,0.79,0.069,1.18,0.109c0.261,0.021,0.53,0.04,0.79,0.07
			c-0.319,3.67-0.649,7.36-0.97,11.03c-0.39-0.03-0.79-0.061-1.18-0.101c-0.261-0.02-0.53-0.04-0.79-0.069
			c-0.07,0.79-0.141,1.579-0.21,2.369c-0.03,0.391-0.061,0.78-0.101,1.181c-0.02,0.26-0.05,0.529-0.069,0.79
			c-0.79-0.07-1.57-0.141-2.36-0.21c-0.04,0.399-0.07,0.79-0.11,1.18c-0.02,0.26-0.04,0.53-0.069,0.79
			c-1.44-0.12-2.891-0.25-4.33-0.38c-0.07,0.79-0.141,1.58-0.21,2.37c-2.891-0.261-5.78-0.511-8.67-0.761
			c-0.04,0.391-0.07,0.79-0.11,1.181c-0.021,0.26-0.04,0.53-0.06,0.79c-13.141-1.15-26.28-2.3-39.42-3.45
			c0.03-0.39,0.07-0.79,0.1-1.18c0.02-0.261,0.05-0.53,0.07-0.79c-3.02-0.271-6.04-0.53-9.07-0.79c0.07-0.79,0.14-1.58,0.21-2.37
			c-1.44-0.12-2.89-0.25-4.33-0.38c0.03-0.391,0.06-0.79,0.1-1.181c0.02-0.26,0.05-0.529,0.07-0.79C5.78,52.91,5.39,52.87,5,52.84
			c-0.27-0.03-0.53-0.05-0.79-0.07c0.12-1.439,0.25-2.89,0.38-4.34c0.26,0.03,0.52,0.05,0.78,0.07c0.4,0.04,0.79,0.07,1.19,0.11
			C6.55,48.74,6.53,48.87,6.52,49c-0.04,0.52-0.09,1.05-0.13,1.58c1.44,0.12,2.88,0.25,4.33,0.38c-0.07,0.78-0.14,1.57-0.21,2.36
			c3.02,0.27,6.05,0.529,9.07,0.79c-0.02,0.27-0.05,0.529-0.07,0.789C19.47,55.3,19.44,55.689,19.41,56.08z"/>
		<path fill="#858D99" d="M2.43,45.86C3.22,45.93,4,46,4.79,46.07c-0.07,0.79-0.13,1.569-0.2,2.359c-0.79-0.069-1.58-0.13-2.37-0.2
			C2.29,47.439,2.36,46.649,2.43,45.86z"/>
		<path fill="#211F30" d="M2.12,49.41c0.03-0.4,0.07-0.79,0.1-1.181c0.79,0.07,1.58,0.131,2.37,0.2c-0.13,1.45-0.26,2.9-0.38,4.34
			c-0.79-0.069-1.58-0.14-2.37-0.21c0.04-0.39,0.07-0.79,0.11-1.18c0.03-0.4,0.06-0.79,0.1-1.18C2.07,49.93,2.09,49.67,2.12,49.41z"
			/>
		<path fill="#211F30" d="M4.21,52.77C4.47,52.79,4.73,52.81,5,52.84c0.39,0.03,0.78,0.07,1.18,0.1c-0.02,0.261-0.05,0.53-0.07,0.79
			c-0.04,0.391-0.07,0.79-0.1,1.181c-0.27-0.021-0.53-0.04-0.79-0.07c-0.4-0.03-0.79-0.07-1.19-0.1c0.02-0.13,0.03-0.261,0.04-0.391
			C4.11,53.82,4.16,53.29,4.21,52.77z"/>
		<path fill="#211F30" d="M0.25,48.05c0.32-3.67,0.64-7.36,0.96-11.04c0.27,0.03,0.53,0.05,0.79,0.07
			c0.4,0.04,0.79,0.069,1.19,0.109c-0.26,2.891-0.51,5.78-0.76,8.671c-0.07,0.789-0.14,1.579-0.21,2.369
			C1.96,48.2,1.69,48.18,1.43,48.16C1.04,48.12,0.65,48.09,0.25,48.05z"/>
	</g>
	<g>
	</g>
</g>
</svg>
