<?xml version="1.0" encoding="utf-8"?>
<!-- Generator: Adobe Illustrator 15.0.0, SVG Export Plug-In  -->
<!DOCTYPE svg PUBLIC "-//W3C//DTD SVG 1.1//EN" "http://www.w3.org/Graphics/SVG/1.1/DTD/svg11.dtd" [
	<!ENTITY ns_flows "http://ns.adobe.com/Flows/1.0/">
]>
<svg version="1.1"
	 xmlns="http://www.w3.org/2000/svg" xmlns:xlink="http://www.w3.org/1999/xlink" xmlns:a="http://ns.adobe.com/AdobeSVGViewerExtensions/3.0/"
	 x="0px" y="0px" width="95px" height="140px" viewBox="-7.27 -38.04 95 140" enable-background="new -7.27 -38.04 95 140"
	 xml:space="preserve">
<defs>
</defs>
<g id="XMLID_2_">
	<g>
		<path fill="#211F30" d="M79.39,39.82c0,3.699,0,7.39,0,11.08c-0.79,0-1.59,0-2.38,0c0-3.69,0-7.381,0-11.08
			c0.399,0,0.79,0,1.189,0C78.6,39.82,78.99,39.82,79.39,39.82z"/>
		<path fill="#211F30" d="M77.01,50.9c0,1.449,0,2.909,0,4.359c-0.261,0-0.521,0-0.79,0c-0.391,0-0.79,0-1.19,0
			c0-0.27,0-0.53,0-0.79c0-0.399,0-0.8,0-1.189c0-0.79,0-1.58,0-2.38c0.271,0,0.53,0,0.8,0C76.22,50.9,76.62,50.9,77.01,50.9z"/>
		<path fill="#858D99" d="M77.01,39.82c0,3.699,0,7.39,0,11.08c-0.391,0-0.79,0-1.181,0c-0.27,0-0.529,0-0.8,0c0,0.8,0,1.59,0,2.38
			c0,0.39,0,0.79,0,1.189c0,0.26,0,0.521,0,0.79c-0.79,0-1.58,0-2.37,0c0,0.391,0,0.79,0,1.181c0,0.27,0,0.529,0,0.789
			c-1.449,0-2.899,0-4.35,0c0,0.801,0,1.591,0,2.381c-2.91,0-5.811,0-8.71,0c0,0.39,0,0.79,0,1.189c0,0.26,0,0.521,0,0.79
			c-13.19,0-26.38,0-39.57,0c0-0.399,0-0.79,0-1.189c0-0.261,0-0.53,0-0.79c-3.03,0-6.07,0-9.1,0c0-0.79,0-1.58,0-2.381
			c-1.45,0-2.9,0-4.35,0c0-0.39,0-0.789,0-1.18c0-0.27,0-0.53,0-0.79c-0.4,0-0.79,0-1.19,0c-0.26,0-0.53,0-0.79,0
			c0-1.45,0-2.91,0-4.359c0.26,0,0.53,0,0.79,0c0.4,0,0.79,0,1.19,0c0,0.14,0,0.27,0,0.399c0,0.53,0,1.05,0,1.58
			c1.45,0,2.9,0,4.35,0c0,0.79,0,1.59,0,2.38c3.03,0,6.07,0,9.1,0c0,0.26,0,0.521,0,0.79c0,0.391,0,0.79,0,1.18
			c10.16,0,20.31,0,30.47,0c0-0.26,0-0.52,0-0.789c0-0.391,0-0.79,0-1.181c3.03,0,6.07,0,9.101,0c0-0.79,0-1.59,0-2.38
			c0.399,0,0.79,0,1.189,0c0.261,0,0.53,0,0.79,0c0.391,0,0.79,0,1.19,0c0.39,0,0.79,0,1.18,0c0-0.26,0-0.53,0-0.79
			c0-0.39,0-0.79,0-1.189c0.141,0,0.271,0,0.4,0c0.53,0,1.05,0,1.58,0c0-1.58,0-3.16,0-4.74c0.79,0,1.59,0,2.38,0
			c0-2.12,0-4.23,0-6.34c0.26,0,0.52,0,0.79,0c0.39,0,0.79,0,1.18,0c0-0.261,0-0.521,0-0.79c0-1.19,0-2.37,0-3.561
			c0-1.45,0-2.9,0-4.35c-0.26,0-0.52,0-0.79,0c-0.39,0-0.79,0-1.18,0c0-2.24,0-4.49,0-6.73c-0.79,0-1.59,0-2.38,0
			c0-0.39,0-0.79,0-1.18c0-0.4,0-0.8,0-1.19c0-0.27,0-0.53,0-0.79c0-0.4,0-0.8,0-1.19c-0.26,0-0.53,0-0.79,0c-0.391,0-0.79,0-1.19,0
			c0-0.4,0-0.79,0-1.19c0-0.26,0-0.53,0-0.79c0-0.39,0-0.79,0-1.19c0-0.39,0-0.79,0-1.19c-0.79,0-1.58,0-2.37,0
			c0-0.39,0-0.79,0-1.18c0-1.06,0-2.11,0-3.16c0.79,0,1.58,0,2.37,0c0,0.39,0,0.79,0,1.18c0,0.27,0,0.53,0,0.79c0.4,0,0.8,0,1.19,0
			c0.26,0,0.53,0,0.79,0c0,0.79,0,1.58,0,2.37c0.79,0,1.59,0,2.38,0c0,1.46,0,2.91,0,4.36c0.39,0,0.79,0,1.18,0
			c0.271,0,0.53,0,0.79,0c0,1.45,0,2.9,0,4.35c0.8,0,1.59,0,2.38,0c0,2.24,0,4.49,0,6.73c0.79,0,1.58,0,2.37,0
			c0,1.45,0,2.899,0,4.35c0,0.4,0,0.79,0,1.19c0,0.26,0,0.53,0,0.79c0,0.39,0,0.79,0,1.189c0,0.391,0,0.79,0,1.181
			c0.4,0,0.8,0,1.19,0C76.49,39.82,76.75,39.82,77.01,39.82z"/>
		<path fill="#211F30" d="M77.01,37.45c0,0.79,0,1.58,0,2.37c-0.261,0-0.521,0-0.79,0c-0.391,0-0.79,0-1.19,0
			c0-0.391,0-0.79,0-1.181c0-0.399,0-0.8,0-1.189c0-0.26,0-0.53,0-0.79c0-0.4,0-0.79,0-1.19c0-1.45,0-2.9,0-4.35
			c0.271,0,0.53,0,0.8,0c0.391,0,0.79,0,1.181,0c0,0.39,0,0.79,0,1.19c0,0.39,0,0.79,0,1.18c0,0.27,0,0.529,0,0.79
			c0,0.399,0,0.8,0,1.189c0,0.271,0,0.53,0,0.79C77.01,36.66,77.01,37.05,77.01,37.45z"/>
		<path fill="#211F30" d="M75.03,56.05c0,0.391,0,0.79,0,1.18c-0.79,0-1.58,0-2.37,0c0-0.26,0-0.52,0-0.789c0-0.391,0-0.79,0-1.181
			c0.79,0,1.58,0,2.37,0C75.03,55.52,75.03,55.78,75.03,56.05z"/>
		<path fill="#211F30" d="M75.03,27.95c0,1.06,0,2.11,0,3.17c-0.79,0-1.58,0-2.37,0c0-2.24,0-4.49,0-6.73c0.79,0,1.58,0,2.37,0
			c0,0.4,0,0.79,0,1.19c0,0.26,0,0.53,0,0.79C75.03,26.9,75.03,27.43,75.03,27.95z"/>
		<path fill="#211F30" d="M72.66,57.229c0,0.801,0,1.591,0,2.381c-1.449,0-2.899,0-4.35,0c0-0.79,0-1.58,0-2.381
			C69.76,57.229,71.21,57.229,72.66,57.229z"/>
		<path fill="#211F30" d="M72.66,23.21c0,0.39,0,0.79,0,1.18c-0.79,0-1.58,0-2.38,0c0-1.45,0-2.9,0-4.35c0.8,0,1.59,0,2.38,0
			c0,0.39,0,0.79,0,1.19c0,0.39,0,0.79,0,1.18C72.66,22.68,72.66,22.94,72.66,23.21z"/>
		<path fill="#AFBBC3" d="M70.28,39.03c0,0.27,0,0.529,0,0.79c-0.39,0-0.79,0-1.18,0c-0.271,0-0.53,0-0.79,0c0,2.109,0,4.22,0,6.34
			c-0.79,0-1.59,0-2.38,0c0-1.061,0-2.12,0-3.17c0-0.4,0-0.79,0-1.19c-0.391,0-0.79,0-1.181,0c-0.27,0-0.529,0-0.8,0
			c0-0.39,0-0.79,0-1.18c0-0.271,0-0.53,0-0.8c-1.05,0-2.109,0-3.16,0c-0.399,0-0.79,0-1.189,0c0,0.399,0,0.8,0,1.189
			c0,0.271,0,0.53,0,0.79c-0.39,0-0.79,0-1.19,0c-0.39,0-0.79,0-1.18,0c0,0.4,0,0.79,0,1.19c0,0.39,0,0.79,0,1.18
			c0,0.271,0,0.53,0,0.8c0,0.391,0,0.79,0,1.19c0.39,0,0.79,0,1.18,0c0.4,0,0.801,0,1.19,0c0,0.79,0,1.58,0,2.37
			c0.399,0,0.79,0,1.189,0c0.391,0,0.79,0,1.181,0c0.27,0,0.529,0,0.8,0c0.39,0,0.79,0,1.18,0c0-0.4,0-0.79,0-1.19
			c0-0.13,0-0.26,0-0.39c0-0.12-0.02-0.29,0-0.4c0.021-0.07-0.05-0.35,0-0.39c0.07-0.07,0.32,0.05,0.4,0c0.53,0,1.05,0,1.58,0
			c0,1.58,0,3.16,0,4.74c-0.53,0-1.05,0-1.58,0c-0.13,0-0.26,0-0.4,0c0,0.399,0,0.8,0,1.189c0,0.26,0,0.53,0,0.79
			c-0.39,0-0.79,0-1.18,0c-0.4,0-0.8,0-1.19,0c-0.26,0-0.529,0-0.79,0c-0.399,0-0.79,0-1.189,0c0,0.79,0,1.59,0,2.38
			c-3.03,0-6.07,0-9.101,0c0,0.391,0,0.79,0,1.181c0,0.27,0,0.529,0,0.789c-10.16,0-20.31,0-30.47,0c0-0.39,0-0.789,0-1.18
			c0-0.27,0-0.53,0-0.79c-3.03,0-6.07,0-9.1,0c0-0.79,0-1.59,0-2.38c1.58,0,3.17,0,4.75,0c0-1.45,0-2.9,0-4.35
			c-1.58,0-3.17,0-4.75,0c0,1.449,0,2.899,0,4.35c-1.45,0-2.9,0-4.35,0c0-0.53,0-1.05,0-1.58c0-0.13,0-0.26,0-0.399
			c-0.4,0-0.79,0-1.19,0c-0.26,0-0.53,0-0.79,0c0-0.79,0-1.58,0-2.37c-0.79,0-1.58,0-2.37,0c0-2.9,0-5.801,0-8.71
			c0.79,0,1.58,0,2.37,0c0-0.79,0-1.58,0-2.37c0-0.4,0-0.79,0-1.19c0-0.26,0-0.52,0-0.79c0-0.79,0-1.58,0-2.37
			c0-0.399,0-0.79,0-1.189c0-0.26,0-0.53,0-0.79c0.39,0,0.79,0,1.19,0c0.26,0,0.53,0,0.79,0c0-1.19,0-2.38,0-3.56
			c0-1.06,0-2.11,0-3.17c0.79,0,1.58,0,2.37,0c0.53,0,1.06,0,1.59,0c0.13,0,0.26,0,0.39,0c0-0.79,0-1.58,0-2.37c0-0.4,0-0.79,0-1.19
			c0-0.26,0-0.53,0-0.79c0.79,0,1.58,0,2.38,0c0-0.79,0-1.58,0-2.37c0-0.66,0-1.32,0-1.99c0.79,0,1.58,0,2.37,0
			c0-0.79,0-1.58,0-2.37c0-0.39,0-0.79,0-1.18c0-0.27,0-0.53,0-0.79c0.4,0,0.79,0,1.19,0c0.26,0,0.53,0,0.79,0c0-0.8,0-1.59,0-2.38
			c0.79,0,1.58,0,2.37,0c0-0.79,0-1.58,0-2.37c1.45,0,2.9,0,4.36,0c0-0.4,0-0.8,0-1.19c0-0.27,0-0.53,0-0.79c2.11,0,4.22,0,6.33,0
			c0-0.79,0-1.59,0-2.38c5.93,0,11.87,0,17.8,0c0,0.79,0,1.59,0,2.38c2.24,0,4.49,0,6.729,0c0,0.52,0,1.05,0,1.58
			c0,0.13,0,0.27,0,0.4c0.391,0,0.79,0,1.19,0c0.26,0,0.521,0,0.79,0c0,0.79,0,1.58,0,2.37c0.79,0,1.58,0,2.37,0
			c0,0.79,0,1.58,0,2.38c0.399,0,0.79,0,1.189,0c0.261,0,0.53,0,0.79,0c0,1.05,0,2.1,0,3.16c0,0.39,0,0.79,0,1.18
			c0.79,0,1.58,0,2.37,0c0,0.4,0,0.8,0,1.19c0,0.4,0,0.8,0,1.19c0,0.26,0,0.53,0,0.79c0,0.4,0,0.79,0,1.19c0.4,0,0.8,0,1.19,0
			c0.26,0,0.53,0,0.79,0c0,0.39,0,0.79,0,1.19c0,0.26,0,0.52,0,0.79c0,0.39,0,0.79,0,1.19c0,0.39,0,0.79,0,1.18
			c0.79,0,1.59,0,2.38,0c0,2.24,0,4.49,0,6.73c0.39,0,0.79,0,1.18,0c0.271,0,0.53,0,0.79,0c0,1.45,0,2.899,0,4.35
			C70.28,36.66,70.28,37.84,70.28,39.03z M68.31,37.45c0-0.4,0-0.79,0-1.19c0-0.26,0-0.52,0-0.79c-0.79,0-1.59,0-2.38,0
			c0,0.4,0,0.79,0,1.19c0,0.26,0,0.53,0,0.79C66.72,37.45,67.52,37.45,68.31,37.45z M61.58,35.47c0-0.79,0-1.58,0-2.37
			c-0.26,0-0.529,0-0.79,0c-0.399,0-0.79,0-1.189,0c0,0.79,0,1.58,0,2.37c0.399,0,0.79,0,1.189,0
			C61.05,35.47,61.32,35.47,61.58,35.47z M55.25,11.34c0-0.8,0-1.59,0-2.38c-0.789,0-1.579,0-2.38,0c0,0.79,0,1.58,0,2.38
			C53.67,11.34,54.46,11.34,55.25,11.34z M48.52,41.8c0-0.39,0-0.79,0-1.18c0-0.271,0-0.53,0-0.8c-0.79,0-1.58,0-2.37,0
			c0-0.261,0-0.521,0-0.79c0-0.391,0-0.79,0-1.19c-0.05-0.08,0.061-0.32,0-0.39c-0.04-0.04-0.34,0-0.4,0
			c-0.13-0.01-0.26,0.01-0.39,0c-0.13-0.021-0.27,0-0.399,0c-0.131,0-0.261,0-0.4,0c-0.13,0-0.26,0.01-0.39,0
			c-0.131,0-0.261,0-0.4,0c-0.13,0-0.26,0-0.39,0c-0.131,0-0.271,0-0.4,0c-0.26,0-0.53,0-0.79,0c-0.13,0-0.26,0-0.39,0
			c-0.141,0-0.271,0-0.4,0s-0.26,0-0.4,0c-0.13,0-0.26,0-0.39,0c-0.4,0-0.79,0-1.19,0c-0.66,0-1.32,0-1.98,0c-0.39,0-0.79,0-1.18,0
			c-0.4,0-0.8,0-1.19,0c-0.66,0-1.32,0-1.98,0c-0.4,0-0.79,0-1.19,0c-0.39,0-0.79,0-1.18,0c-0.66,0-1.32,0-1.98,0
			c-0.4,0-0.79,0-1.19,0c-0.4,0-0.79,0-1.19,0c-0.66,0-1.32,0-1.97,0c-0.4,0-0.8,0-1.19,0c-0.4,0-0.79,0-1.19,0
			c-0.66,0-1.32,0-1.98,0c-0.39,0-0.79,0-1.19,0c-0.39,0-0.79,0-1.18,0c-0.66,0-1.32,0-1.98,0c-0.39,0-0.79,0-1.19,0
			c-0.39,0-0.79,0-1.18,0c-0.66,0-1.32,0-1.98,0c-0.08,0.05-0.33-0.07-0.4,0c-0.04,0.04,0.01,0.34,0,0.39c0,0.14,0.01,0.271,0,0.4
			c0,0.13,0,0.26,0,0.399c0,0.13,0,0.261,0,0.391c0.01,0.14,0,0.27,0,0.399s0,0.261,0,0.391c-0.39,0-0.79,0-1.19,0
			c-0.26,0-0.52,0-0.79,0c0,0.399,0,0.8,0,1.189c0,0.271,0,0.53,0,0.79c0.4,0,0.79,0,1.19,0c0.26,0,0.53,0,0.79,0
			c0-0.39,0-0.79,0-1.18c0-0.271,0-0.53,0-0.8c0.79,0,1.58,0,2.38,0c0.39,0,0.79,0,1.18,0c0.27,0,0.53,0,0.8,0c0.79,0,1.58,0,2.37,0
			c0.39,0,0.79,0,1.18,0c0.27,0,0.53,0,0.8,0c0.79,0,1.58,0,2.37,0c0.4,0,0.79,0,1.19,0c0.26,0,0.53,0,0.79,0c0.79,0,1.58,0,2.37,0
			c0.4,0,0.79,0,1.19,0c0.26,0,0.53,0,0.79,0c0.79,0,1.58,0,2.38,0c0.39,0,0.79,0,1.18,0c0.27,0,0.53,0,0.79,0c0.79,0,1.59,0,2.38,0
			c0.39,0,0.79,0,1.19,0c0.26,0,0.52,0,0.79,0c0.79,0,1.58,0,2.37,0c0.4,0,0.79,0,1.19,0c0.26,0,0.53,0,0.79,0c0.79,0,1.58,0,2.37,0
			c0.4,0,0.79,0,1.19,0c0.399,0,0.789,0,1.189,0c0,0.399,0,0.8,0,1.189c0,0.271,0,0.53,0,0.79C46.94,41.8,47.73,41.8,48.52,41.8z
			 M48.52,8.96c0-0.79,0-1.58,0-2.37c-0.79,0-1.58,0-2.37,0c0,0.79,0,1.58,0,2.37C46.94,8.96,47.73,8.96,48.52,8.96z M41.8,33.1
			c0-0.399,0-0.79,0-1.189c0-0.26,0-0.53,0-0.79c0-1.58,0-3.17,0-4.75c-3.7,0-7.39,0-11.08,0c0,1.58,0,3.17,0,4.75
			c0,0.39,0,0.79,0,1.19c0,0.26,0,0.52,0,0.79c0.79,0,1.58,0,2.37,0c1.19,0,2.37,0,3.56,0c1.06,0,2.11,0,3.17,0
			c0.39,0,0.79,0,1.18,0C41.27,33.1,41.53,33.1,41.8,33.1z M39.82,13.31c0.06-0.06-0.06-0.31,0-0.39c0-0.27,0-0.53,0-0.79
			c0-0.14,0-0.27,0-0.4c-0.06-0.09,0.06-0.32,0-0.39c-0.03-0.04-0.35,0-0.4,0c-0.13,0-0.27,0.01-0.39,0c-0.13-0.02-0.27,0-0.4,0
			s-0.26,0-0.4,0c-0.13,0-0.26,0-0.39,0c-0.13-0.01-0.27,0-0.4,0c-0.26,0-0.52,0-0.79,0c-0.39,0-0.79,0-1.19,0
			c-0.13,0-0.26,0-0.39,0c-0.13-0.01-0.26,0-0.4,0c-0.26,0-0.52,0-0.79,0c-0.53,0-1.05,0-1.58,0c-0.4,0-0.79,0-1.19,0
			c-0.52,0-1.05,0-1.58,0c-0.27,0-0.53,0-0.79,0c0,0.26,0,0.52,0,0.79c0,0.26,0,0.52,0,0.79c0.05,0.08-0.07,0.33,0,0.39
			c0.05,0.05,0.32-0.02,0.39,0c0.11,0.03,0.28,0,0.4,0c0.13,0,0.26,0,0.39,0c0.4,0,0.8,0,1.19,0c0.4,0,0.79,0,1.19,0
			c0.39,0,0.79,0,1.18,0c0.4,0,0.8,0,1.19,0c0.14,0,0.27,0,0.4,0c0.13,0,0.26,0,0.39,0c0.27,0,0.53,0,0.8,0c0.13,0,0.26,0,0.39,0
			s0.27,0,0.4,0c0.13,0,0.26,0,0.39,0s0.27,0,0.4,0c0.13,0,0.26,0,0.39,0s0.27,0.01,0.4,0c0.13,0,0.27,0,0.4,0
			c0.11,0,0.28,0.03,0.39,0C39.49,13.29,39.77,13.36,39.82,13.31z M39.82,20.04c0-1.45,0-2.9,0-4.36c-0.79,0-1.59,0-2.38,0
			c0,0.27,0,0.53,0,0.8c0,1.19,0,2.37,0,3.56C38.23,20.04,39.03,20.04,39.82,20.04z M37.44,44.17c0-0.52,0-1.05,0-1.58
			c0-0.26,0-0.52,0-0.79c-0.39,0-0.79,0-1.18,0c-5.41,0-10.82,0-16.23,0c0,0.79,0,1.58,0,2.37c0.27,0,0.53,0,0.79,0
			c5.15,0,10.29,0,15.44,0C36.65,44.17,37.05,44.17,37.44,44.17z M35.46,20.04c0-1.45,0-2.9,0-4.36c-3.69,0-7.38,0-11.07,0
			c0,0.4,0,0.8,0,1.19c0,1.06,0,2.11,0,3.17C28.08,20.04,31.77,20.04,35.46,20.04z M26.36,33.1c0-0.399,0-0.79,0-1.189
			c0-0.26,0-0.53,0-0.79c0-1.58,0-3.17,0-4.75c-3.56,0-7.12,0-10.68,0c0,1.58,0,3.17,0,4.75c0,0.39,0,0.79,0,1.19
			c0,0.26,0,0.52,0,0.79c0.4,0,0.79,0,1.19,0c0.26,0,0.53,0,0.79,0c1.18,0,2.37,0,3.56,0c1.05,0,2.11,0,3.17,0c0.39,0,0.79,0,1.18,0
			C25.84,33.1,26.1,33.1,26.36,33.1z M24.39,11.34c0-0.8,0-1.59,0-2.38c-0.8,0-1.59,0-2.38,0c0,0.79,0,1.58,0,2.38
			C22.8,11.34,23.59,11.34,24.39,11.34z M22.01,17.67c0-0.27,0-0.53,0-0.8c0-0.52,0-1.05,0-1.58c0-0.26,0-0.53,0-0.79
			c0-0.4,0-0.79,0-1.19c-0.26,0-0.53,0-0.79,0c-1.19,0-2.38,0-3.56,0c0,1.45,0,2.9,0,4.36C19.11,17.67,20.56,17.67,22.01,17.67z
			 M20.03,52.88c0-0.39,0-0.79,0-1.18c0-0.271,0-0.53,0-0.8c-0.79,0-1.58,0-2.37,0c0,0.399,0,0.8,0,1.189c0,0.26,0,0.53,0,0.79
			C18.45,52.88,19.24,52.88,20.03,52.88z"/>
		<path fill="#211F30" d="M70.28,18.85c0,0.4,0,0.79,0,1.19c-0.26,0-0.52,0-0.79,0c-0.39,0-0.79,0-1.18,0c0-1.45,0-2.9,0-4.36
			c0.26,0,0.52,0,0.79,0c0.39,0,0.79,0,1.18,0c0,0.14,0,0.27,0,0.4c0,0.66,0,1.32,0,1.98C70.28,18.32,70.28,18.59,70.28,18.85z"/>
		<path fill="#211F30" d="M68.31,60.4c0,0.399,0,0.79,0,1.189c-0.53,0-1.061,0-1.59,0c-0.26,0-0.521,0-0.79,0c0,0.79,0,1.58,0,2.37
			c-4.48,0-8.97,0-13.45,0c-1.19,0-2.37,0-3.56,0c-1.061,0-2.11,0-3.171,0c-2.109,0-4.22,0-6.33,0c-1.19,0-2.37,0-3.56,0
			c-1.05,0-2.11,0-3.17,0c-2.1,0-4.22,0-6.33,0c-1.18,0-2.37,0-3.56,0c-1.05,0-2.11,0-3.16,0c-2.11,0-4.22,0-6.33,0
			c0-0.79,0-1.58,0-2.37c-0.8,0-1.59,0-2.38,0c0-0.27,0-0.53,0-0.79c0-0.399,0-0.8,0-1.189c3.03,0,6.07,0,9.1,0
			c0,0.26,0,0.529,0,0.79c0,0.399,0,0.79,0,1.189c13.19,0,26.38,0,39.57,0c0-0.27,0-0.53,0-0.79c0-0.399,0-0.8,0-1.189
			c2.899,0,5.8,0,8.71,0C68.31,59.87,68.31,60.14,68.31,60.4z"/>
		<path fill="#858D99" d="M68.31,36.26c0,0.4,0,0.79,0,1.19c-0.79,0-1.59,0-2.38,0c0-0.26,0-0.53,0-0.79c0-0.4,0-0.79,0-1.19
			c0.79,0,1.59,0,2.38,0C68.31,35.74,68.31,36,68.31,36.26z"/>
		<path fill="#211F30" d="M68.31,13.31c0,0.79,0,1.58,0,2.37c-0.79,0-1.59,0-2.38,0c0-0.79,0-1.58,0-2.37
			C66.72,13.31,67.52,13.31,68.31,13.31z"/>
		<path fill="#858D99" d="M65.93,42.99c0,1.05,0,2.109,0,3.17c-0.53,0-1.05,0-1.58,0c-0.08,0.05-0.33-0.07-0.4,0
			c-0.05,0.04,0.021,0.319,0,0.39c-0.02,0.11,0,0.28,0,0.4c0,0.13,0,0.26,0,0.39c0,0.4,0,0.79,0,1.19c-0.39,0-0.79,0-1.18,0
			c-0.271,0-0.53,0-0.8,0c-0.391,0-0.79,0-1.181,0c-0.399,0-0.79,0-1.189,0c0-0.79,0-1.58,0-2.37c-0.39,0-0.79,0-1.19,0
			c-0.39,0-0.79,0-1.18,0c0-0.4,0-0.8,0-1.19c0-0.27,0-0.529,0-0.8c0-0.39,0-0.79,0-1.18c0-0.4,0-0.79,0-1.19c0.39,0,0.79,0,1.18,0
			c0.4,0,0.801,0,1.19,0c0-0.26,0-0.52,0-0.79c0-0.39,0-0.79,0-1.189c0.399,0,0.79,0,1.189,0c1.051,0,2.11,0,3.16,0
			c0,0.27,0,0.529,0,0.8c0,0.39,0,0.79,0,1.18c0.271,0,0.53,0,0.8,0c0.391,0,0.79,0,1.181,0C65.93,42.2,65.93,42.59,65.93,42.99z"/>
		<path fill="#211F30" d="M65.93,12.13c0,0.39,0,0.79,0,1.18c-0.26,0-0.53,0-0.79,0c-0.391,0-0.79,0-1.19,0c0-0.26,0-0.52,0-0.79
			c0-0.39,0-0.79,0-1.18c0.271,0,0.53,0,0.8,0c0.391,0,0.79,0,1.181,0C65.93,11.6,65.93,11.86,65.93,12.13z"/>
		<path fill="#211F30" d="M63.95,8.96c0,0.79,0,1.58,0,2.38c-0.79,0-1.58,0-2.37,0c0-0.8,0-1.59,0-2.38
			C62.37,8.96,63.16,8.96,63.95,8.96z"/>
		<path fill="#858D99" d="M61.58,33.1c0,0.79,0,1.58,0,2.37c-0.26,0-0.529,0-0.79,0c-0.399,0-0.79,0-1.189,0c0-0.79,0-1.58,0-2.37
			c0.399,0,0.79,0,1.189,0C61.05,33.1,61.32,33.1,61.58,33.1z"/>
		<path fill="#858D99" d="M61.58,8.96c0,0.79,0,1.58,0,2.38c-0.26,0-0.529,0-0.79,0c-0.399,0-0.79,0-1.189,0c0-0.8,0-1.59,0-2.38
			c0.399,0,0.79,0,1.189,0C61.05,8.96,61.32,8.96,61.58,8.96z"/>
		<path fill="#211F30" d="M61.58,6.59c0,0.79,0,1.58,0,2.37c-0.26,0-0.529,0-0.79,0c-0.399,0-0.79,0-1.189,0c0-0.79,0-1.58,0-2.37
			c0.26,0,0.53,0,0.79,0C60.79,6.59,61.18,6.59,61.58,6.59z"/>
		<path fill="#858D99" d="M59.6,6.59c0,0.79,0,1.58,0,2.37c-0.79,0-1.58,0-2.37,0c0-0.79,0-1.58,0-2.37
			C58.02,6.59,58.81,6.59,59.6,6.59z"/>
		<path fill="#211F30" d="M59.6,5.4c0,0.39,0,0.79,0,1.19c-0.79,0-1.58,0-2.37,0c-0.27,0-0.53,0-0.79,0c-0.4,0-0.8,0-1.19,0
			c0-0.13,0-0.27,0-0.4c0-0.53,0-1.06,0-1.58c1.45,0,2.9,0,4.351,0C59.6,4.87,59.6,5.13,59.6,5.4z"/>
		<path fill="#FFFFFF" d="M55.25,8.96c0,0.79,0,1.58,0,2.38c-0.789,0-1.579,0-2.38,0c0-0.8,0-1.59,0-2.38
			C53.67,8.96,54.46,8.96,55.25,8.96z"/>
		<path fill="#211F30" d="M55.25,2.23c0,0.79,0,1.59,0,2.38c-2.239,0-4.489,0-6.729,0c0-0.79,0-1.59,0-2.38
			C50.76,2.23,53.01,2.23,55.25,2.23z"/>
		<path fill="#858D99" d="M48.52,40.62c0,0.39,0,0.79,0,1.18c-0.79,0-1.58,0-2.37,0c0-0.26,0-0.52,0-0.79c0-0.39,0-0.79,0-1.189
			c0.79,0,1.58,0,2.37,0C48.52,40.09,48.52,40.35,48.52,40.62z"/>
		<path fill="#FFFFFF" d="M48.52,6.59c0,0.79,0,1.58,0,2.37c-0.79,0-1.58,0-2.37,0c0-0.79,0-1.58,0-2.37
			C46.94,6.59,47.73,6.59,48.52,6.59z"/>
		<path fill="#211F30" d="M48.52,1.05c0,0.39,0,0.79,0,1.18c-5.93,0-11.87,0-17.8,0c0-0.26,0-0.52,0-0.79c0-0.39,0-0.79,0-1.19
			c0.39,0,0.79,0,1.18,0c0.4,0,0.79,0,1.19,0c0.79,0,1.58,0,2.37,0c0.66,0,1.32,0,1.98,0c0.79,0,1.59,0,2.38,0c0.66,0,1.32,0,1.98,0
			c0.79,0,1.58,0,2.37,0c0.659,0,1.319,0,1.979,0c0.79,0,1.58,0,2.37,0C48.52,0.52,48.52,0.78,48.52,1.05z"/>
		<path fill="#63677A" d="M46.15,37.45c0.061,0.069-0.05,0.31,0,0.39c0,0.4,0,0.8,0,1.19c0,0.27,0,0.529,0,0.79
			c-0.4,0-0.79,0-1.189,0c-0.4,0-0.79,0-1.19,0c-0.79,0-1.58,0-2.37,0c-0.26,0-0.53,0-0.79,0c-0.4,0-0.79,0-1.19,0
			c-0.79,0-1.58,0-2.37,0c-0.27,0-0.53,0-0.79,0c-0.4,0-0.8,0-1.19,0c-0.79,0-1.59,0-2.38,0c-0.26,0-0.52,0-0.79,0
			c-0.39,0-0.79,0-1.18,0c-0.8,0-1.59,0-2.38,0c-0.26,0-0.53,0-0.79,0c-0.4,0-0.79,0-1.19,0c-0.79,0-1.58,0-2.37,0
			c-0.26,0-0.53,0-0.79,0c-0.4,0-0.79,0-1.19,0c-0.79,0-1.58,0-2.37,0c-0.27,0-0.53,0-0.8,0c-0.39,0-0.79,0-1.18,0
			c-0.79,0-1.58,0-2.37,0c-0.27,0-0.53,0-0.8,0c-0.39,0-0.79,0-1.18,0c-0.8,0-1.59,0-2.38,0c0-0.13,0-0.261,0-0.391
			s0.01-0.26,0-0.399c0-0.13,0-0.261,0-0.391c0-0.14,0-0.27,0-0.399c0.01-0.13,0-0.261,0-0.4c0.01-0.05-0.04-0.35,0-0.39
			c0.07-0.07,0.32,0.05,0.4,0c0.66,0,1.32,0,1.98,0c0.39,0,0.79,0,1.18,0c0.4,0,0.8,0,1.19,0c0.66,0,1.32,0,1.98,0
			c0.39,0,0.79,0,1.18,0c0.4,0,0.8,0,1.19,0c0.66,0,1.32,0,1.98,0c0.4,0,0.79,0,1.19,0c0.39,0,0.79,0,1.19,0c0.65,0,1.31,0,1.97,0
			c0.4,0,0.79,0,1.19,0c0.4,0,0.79,0,1.19,0c0.66,0,1.32,0,1.98,0c0.39,0,0.79,0,1.18,0c0.4,0,0.79,0,1.19,0c0.66,0,1.32,0,1.98,0
			c0.39,0,0.79,0,1.19,0c0.39,0,0.79,0,1.18,0c0.66,0,1.32,0,1.98,0c0.4,0,0.79,0,1.19,0c0.13,0,0.26,0,0.39,0
			c0.141,0,0.271,0,0.4,0s0.26,0,0.4,0c0.13,0,0.26,0,0.39,0c0.26,0,0.53,0,0.79,0c0.13,0,0.27,0,0.4,0c0.13,0,0.26,0,0.39,0
			c0.14,0,0.27,0,0.4,0c0.13,0.01,0.26,0,0.39,0c0.14,0,0.27,0,0.4,0c0.13,0,0.27-0.021,0.399,0c0.13,0.01,0.26-0.01,0.39,0
			C45.81,37.45,46.11,37.41,46.15,37.45z"/>
		<path fill="#858D99" d="M41.8,31.91c0,0.4,0,0.79,0,1.189c-0.271,0-0.53,0-0.801,0c-0.39,0-0.79,0-1.18,0c0-0.53,0-1.06,0-1.59
			c0-0.13,0-0.26,0-0.39c0.26,0,0.52,0,0.79,0c0.39,0,0.79,0,1.19,0C41.8,31.38,41.8,31.65,41.8,31.91z"/>
		<path fill="#63677A" d="M41.8,26.37c0,1.58,0,3.17,0,4.75c-0.4,0-0.801,0-1.19,0c-0.27,0-0.53,0-0.79,0c0-0.79,0-1.58,0-2.38
			c-2.11,0-4.22,0-6.34,0c-0.13,0-0.26,0-0.39,0c0,0.8,0,1.59,0,2.38c-0.79,0-1.58,0-2.37,0c0-1.58,0-3.17,0-4.75
			C34.41,26.37,38.1,26.37,41.8,26.37z"/>
		<path fill="#858D99" d="M39.82,12.92c-0.06,0.08,0.06,0.33,0,0.39c-0.05,0.05-0.33-0.02-0.4,0c-0.11,0.03-0.28,0-0.39,0
			c-0.13,0-0.27,0-0.4,0c-0.13,0.01-0.27,0-0.4,0s-0.26,0-0.39,0c-0.13,0-0.27,0-0.4,0s-0.26,0-0.39,0c-0.13,0-0.27,0-0.4,0
			s-0.26,0-0.39,0c-0.27,0-0.53,0-0.8,0c-0.13,0-0.26,0-0.39,0c-0.13,0-0.26,0-0.4,0c-0.39,0-0.79,0-1.19,0c-0.39,0-0.79,0-1.18,0
			c-0.4,0-0.79,0-1.19,0c-0.39,0-0.79,0-1.19,0c-0.13,0-0.26,0-0.39,0c-0.12,0-0.29,0.03-0.4,0c-0.07-0.02-0.34,0.05-0.39,0
			c-0.07-0.06,0.05-0.31,0-0.39c0-0.27,0-0.53,0-0.79c0-0.27,0-0.53,0-0.79c0.26,0,0.52,0,0.79,0c0.53,0,1.06,0,1.58,0
			c0.4,0,0.79,0,1.19,0c0.53,0,1.05,0,1.58,0c0.27,0,0.53,0,0.79,0c0.14,0,0.27-0.01,0.4,0c0.13,0,0.26,0,0.39,0c0.4,0,0.8,0,1.19,0
			c0.27,0,0.53,0,0.79,0c0.13,0,0.27-0.01,0.4,0c0.13,0,0.26,0,0.39,0c0.14,0,0.27,0,0.4,0s0.27-0.02,0.4,0c0.12,0.01,0.26,0,0.39,0
			c0.05,0,0.37-0.04,0.4,0c0.06,0.07-0.06,0.3,0,0.39c0,0.13,0,0.26,0,0.4C39.82,12.39,39.82,12.65,39.82,12.92z"/>
		<path fill="#63677A" d="M39.82,31.51c0,0.53,0,1.06,0,1.59c-1.06,0-2.11,0-3.17,0c-1.19,0-2.37,0-3.56,0c0-0.399,0-0.79,0-1.189
			c0-0.26,0-0.53,0-0.79c1.06,0,2.11,0,3.17,0c0.52,0,1.05,0,1.58,0c0.53,0,1.05,0,1.58,0c0.13,0,0.27,0,0.4,0
			C39.82,31.25,39.82,31.38,39.82,31.51z"/>
		<path d="M39.82,28.74c0,0.8,0,1.59,0,2.38c-0.13,0-0.27,0-0.4,0c-0.53,0-1.05,0-1.58,0c-0.53,0-1.06,0-1.58,0
			c-1.06,0-2.11,0-3.17,0c0-0.79,0-1.58,0-2.38c0.13,0,0.26,0,0.39,0C35.6,28.74,37.71,28.74,39.82,28.74z"/>
		<path fill="#858D99" d="M39.82,15.68c0,1.46,0,2.91,0,4.36c-0.79,0-1.59,0-2.38,0c0-1.19,0-2.37,0-3.56c0-0.27,0-0.53,0-0.8
			C38.23,15.68,39.03,15.68,39.82,15.68z"/>
		<path fill="#858D99" d="M37.44,42.59c0,0.53,0,1.061,0,1.58c-0.39,0-0.79,0-1.18,0c-5.15,0-10.29,0-15.44,0c-0.26,0-0.52,0-0.79,0
			c0-0.79,0-1.58,0-2.37c5.41,0,10.82,0,16.23,0c0.39,0,0.79,0,1.18,0C37.44,42.07,37.44,42.33,37.44,42.59z"/>
		<path fill="#858D99" d="M35.46,15.68c0,1.46,0,2.91,0,4.36c-3.69,0-7.38,0-11.07,0c0-1.06,0-2.11,0-3.17c0-0.39,0-0.79,0-1.19
			C28.08,15.68,31.77,15.68,35.46,15.68z"/>
		<path fill="#858D99" d="M33.09,31.91c0,0.4,0,0.79,0,1.189c-0.79,0-1.58,0-2.37,0c0-0.27,0-0.53,0-0.79c0-0.4,0-0.8,0-1.19
			c0.79,0,1.58,0,2.37,0C33.09,31.38,33.09,31.65,33.09,31.91z"/>
		<path fill="#211F30" d="M30.72,2.23c0,0.79,0,1.59,0,2.38c-2.11,0-4.22,0-6.33,0c0-0.79,0-1.59,0-2.38
			C26.5,2.23,28.61,2.23,30.72,2.23z"/>
		<path fill="#858D99" d="M26.36,31.91c0,0.4,0,0.79,0,1.189c-0.26,0-0.52,0-0.79,0c-0.39,0-0.79,0-1.18,0c0-0.53,0-1.06,0-1.59
			c0-0.13,0-0.26,0-0.39c0.26,0,0.52,0,0.79,0c0.39,0,0.79,0,1.18,0C26.36,31.38,26.36,31.65,26.36,31.91z"/>
		<path fill="#63677A" d="M26.36,26.37c0,1.58,0,3.17,0,4.75c-0.39,0-0.79,0-1.18,0c-0.27,0-0.53,0-0.79,0c0-0.79,0-1.58,0-2.38
			c-2.12,0-4.23,0-6.34,0c-0.13,0-0.26,0-0.39,0c0,0.8,0,1.59,0,2.38c-0.4,0-0.79,0-1.19,0c-0.26,0-0.53,0-0.79,0
			c0-1.58,0-3.17,0-4.75C19.24,26.37,22.8,26.37,26.36,26.37z"/>
		<path fill="#63677A" d="M24.39,31.51c0,0.53,0,1.06,0,1.59c-1.06,0-2.12,0-3.17,0c-1.19,0-2.38,0-3.56,0c0-0.399,0-0.79,0-1.189
			c0-0.26,0-0.53,0-0.79c1.05,0,2.11,0,3.16,0c0.53,0,1.06,0,1.59,0c0.52,0,1.05,0,1.58,0c0.13,0,0.26,0,0.4,0
			C24.39,31.25,24.39,31.38,24.39,31.51z"/>
		<path d="M24.39,28.74c0,0.8,0,1.59,0,2.38c-0.14,0-0.27,0-0.4,0c-0.53,0-1.06,0-1.58,0c-0.53,0-1.06,0-1.59,0
			c-1.05,0-2.11,0-3.16,0c0-0.79,0-1.58,0-2.38c0.13,0,0.26,0,0.39,0C20.16,28.74,22.27,28.74,24.39,28.74z"/>
		<path fill="#FFFFFF" d="M24.39,8.96c0,0.79,0,1.58,0,2.38c-0.8,0-1.59,0-2.38,0c0-0.8,0-1.59,0-2.38
			C22.8,8.96,23.59,8.96,24.39,8.96z"/>
		<path fill="#211F30" d="M24.39,5.4c0,0.39,0,0.79,0,1.19c-1.46,0-2.91,0-4.36,0c0-0.27,0-0.53,0-0.8c0-0.39,0-0.79,0-1.18
			c1.45,0,2.9,0,4.36,0C24.39,4.87,24.39,5.13,24.39,5.4z"/>
		<path fill="#FFFFFF" d="M22.01,16.87c0,0.27,0,0.53,0,0.8c-1.45,0-2.9,0-4.35,0c0-1.46,0-2.91,0-4.36c1.18,0,2.37,0,3.56,0
			c0.26,0,0.53,0,0.79,0c0,0.4,0,0.79,0,1.19c0,0.26,0,0.53,0,0.79C22.01,15.82,22.01,16.35,22.01,16.87z"/>
		<path fill="#858D99" d="M20.03,51.7c0,0.39,0,0.79,0,1.18c-0.79,0-1.58,0-2.37,0c0-0.26,0-0.53,0-0.79c0-0.39,0-0.79,0-1.189
			c0.79,0,1.58,0,2.37,0C20.03,51.17,20.03,51.43,20.03,51.7z"/>
		<path fill="#211F30" d="M20.03,6.59c0,0.79,0,1.58,0,2.37c-0.79,0-1.58,0-2.37,0c0-0.79,0-1.58,0-2.37
			C18.45,6.59,19.24,6.59,20.03,6.59z"/>
		<path fill="#858D99" d="M17.66,31.91c0,0.4,0,0.79,0,1.189c-0.26,0-0.53,0-0.79,0c-0.4,0-0.79,0-1.19,0c0-0.27,0-0.53,0-0.79
			c0-0.4,0-0.8,0-1.19c0.26,0,0.53,0,0.79,0c0.4,0,0.79,0,1.19,0C17.66,31.38,17.66,31.65,17.66,31.91z"/>
		<path fill="#211F30" d="M17.66,8.96c0,0.79,0,1.58,0,2.38c-0.26,0-0.53,0-0.79,0c-0.4,0-0.79,0-1.19,0c0-0.8,0-1.59,0-2.38
			c0.26,0,0.53,0,0.79,0C16.87,8.96,17.26,8.96,17.66,8.96z"/>
		<path fill="#858D99" d="M15.68,48.53c0,1.449,0,2.899,0,4.35c-1.58,0-3.17,0-4.75,0c0-1.45,0-2.9,0-4.35
			C12.51,48.53,14.1,48.53,15.68,48.53z"/>
		<path fill="#FFFFFF" d="M15.68,13.31c0,0.79,0,1.58,0,2.37c-0.79,0-1.58,0-2.37,0c0-0.79,0-1.58,0-2.37
			C14.1,13.31,14.89,13.31,15.68,13.31z"/>
		<path fill="#211F30" d="M15.68,12.13c0,0.39,0,0.79,0,1.18c-0.79,0-1.58,0-2.37,0c0-0.26,0-0.52,0-0.79c0-0.39,0-0.79,0-1.18
			c0.79,0,1.58,0,2.37,0C15.68,11.6,15.68,11.86,15.68,12.13z"/>
		<path fill="#FFFFFF" d="M13.31,17.67c0,0.79,0,1.58,0,2.37c-0.8,0-1.59,0-2.38,0c0-1.45,0-2.9,0-4.36c0.79,0,1.58,0,2.38,0
			C13.31,16.35,13.31,17.01,13.31,17.67z"/>
		<path fill="#211F30" d="M13.31,13.31c0,0.79,0,1.58,0,2.37c-0.8,0-1.59,0-2.38,0c0-0.79,0-1.58,0-2.37
			C11.72,13.31,12.51,13.31,13.31,13.31z"/>
		<path fill="#211F30" d="M10.93,57.229c0,0.801,0,1.591,0,2.381c-1.45,0-2.9,0-4.35,0c0-0.79,0-1.58,0-2.381
			C8.03,57.229,9.48,57.229,10.93,57.229z"/>
		<path fill="#858D99" d="M10.93,40.62c0,0.39,0,0.79,0,1.18c-0.26,0-0.53,0-0.79,0c-0.4,0-0.79,0-1.19,0c0-0.26,0-0.52,0-0.79
			c0-0.39,0-0.79,0-1.189c0.27,0,0.53,0,0.79,0c0.4,0,0.8,0,1.19,0C10.93,40.09,10.93,40.35,10.93,40.62z"/>
		<path fill="#FFFFFF" d="M10.93,22.02c0,0.79,0,1.58,0,2.37c-0.13,0-0.26,0-0.39,0c-0.53,0-1.06,0-1.59,0c0-1.45,0-2.9,0-4.35
			c0.4,0,0.79,0,1.19,0c0.26,0,0.53,0,0.79,0c0,0.26,0,0.53,0,0.79C10.93,21.23,10.93,21.62,10.93,22.02z"/>
		<path fill="#211F30" d="M10.93,15.68c0,1.46,0,2.91,0,4.36c-0.26,0-0.53,0-0.79,0c-0.4,0-0.79,0-1.19,0c0-1.45,0-2.9,0-4.36
			c0.27,0,0.53,0,0.79,0C10.14,15.68,10.54,15.68,10.93,15.68z"/>
		<path fill="#211F30" d="M8.95,20.04c0,1.45,0,2.9,0,4.35c-0.79,0-1.58,0-2.37,0c0-1.45,0-2.9,0-4.35
			C7.37,20.04,8.16,20.04,8.95,20.04z"/>
		<path fill="#211F30" d="M6.58,56.05c0,0.391,0,0.79,0,1.18c-0.26,0-0.53,0-0.79,0c-0.4,0-0.8,0-1.19,0c0-0.13,0-0.26,0-0.39
			c0-0.53,0-1.06,0-1.58c0.26,0,0.53,0,0.79,0c0.4,0,0.79,0,1.19,0C6.58,55.52,6.58,55.78,6.58,56.05z"/>
		<path fill="#211F30" d="M6.58,27.56c0,1.18,0,2.37,0,3.56c-0.26,0-0.53,0-0.79,0c-0.4,0-0.8,0-1.19,0c0-2.24,0-4.49,0-6.73
			c0.26,0,0.53,0,0.79,0c0.4,0,0.79,0,1.19,0C6.58,25.45,6.58,26.5,6.58,27.56z"/>
		<path fill="#211F30" d="M4.6,50.9c0,1.449,0,2.909,0,4.359c-0.79,0-1.58,0-2.37,0c0-0.399,0-0.79,0-1.189c0-0.4,0-0.79,0-1.19
			c0-0.26,0-0.53,0-0.79c0-0.39,0-0.79,0-1.189C3.02,50.9,3.81,50.9,4.6,50.9z"/>
		<path fill="#858D99" d="M4.6,48.53c0,0.79,0,1.58,0,2.37c-0.79,0-1.58,0-2.37,0c0-0.79,0-1.58,0-2.37
			C3.02,48.53,3.81,48.53,4.6,48.53z"/>
		<path fill="#211F30" d="M4.6,37.45c0,0.79,0,1.58,0,2.37c-0.79,0-1.58,0-2.37,0c0-0.261,0-0.521,0-0.79c0-0.391,0-0.79,0-1.19
			c0-0.79,0-1.58,0-2.37c0-1.45,0-2.9,0-4.35c0.79,0,1.58,0,2.37,0c0,0.26,0,0.53,0,0.79c0,0.4,0,0.79,0,1.189c0,0.79,0,1.58,0,2.37
			c0,0.271,0,0.53,0,0.79C4.6,36.66,4.6,37.05,4.6,37.45z"/>
		<path fill="#211F30" d="M2.23,48.53c0,0.79,0,1.58,0,2.37c-0.27,0-0.53,0-0.8,0c-0.39,0-0.78,0-1.18,0c0-3.69,0-7.381,0-11.08
			c0.26,0,0.53,0,0.79,0c0.39,0,0.79,0,1.19,0C2.23,42.729,2.23,45.63,2.23,48.53z"/>
	</g>
	<g>
	</g>
</g>
<path fill="#211F30" d="M65.25,76.59c0,0.9,0,1.8,0,2.7c0,0.899,0,1.81,0,2.71c0,0.899,0,1.8,0,2.71c0,0.93,0,1.87,0,2.8
	c0,0.11,0,0.21,0,0.31c-0.939,0-1.869,0-2.81,0c0-0.939,0-1.88,0-2.81c0-0.94,0-1.87,0-2.81c0-0.94,0-1.87,0-2.811
	c0-0.47,0-0.93,0-1.399c0-0.24,0-0.471,0-0.7c0-0.24,0-0.471,0-0.7C63.38,76.59,64.31,76.59,65.25,76.59z"/>
<path fill="#211F30" d="M62.44,70.97c0,0.93,0,1.87,0,2.811c0,0.93,0,1.869,0,2.81c-0.94,0-1.87,0-2.81,0c0-0.94,0-1.88,0-2.81
	c0-0.94,0-1.881,0-2.811C60.57,70.97,61.5,70.97,62.44,70.97z"/>
<path fill="#211F30" d="M62.44,87.819c0,0.431,0,0.86,0,1.301c0,0.43,0,0.87,0,1.3c0,0.91,0,1.81,0,2.71c0,0.1,0,0.2,0,0.3
	c-0.94,0-1.87,0-2.81,0c0-0.43,0-0.87,0-1.3c0-0.44,0-0.87,0-1.3c0-0.91,0-1.811,0-2.71c0-0.101,0-0.2,0-0.301
	C60.57,87.819,61.5,87.819,62.44,87.819z"/>
<path fill="#211F30" d="M59.63,93.43c0,0.84,0,1.67,0,2.51c0,0.101,0,0.2,0,0.301c-0.931,0-1.87,0-2.811,0c0-0.23,0-0.471,0-0.7
	c0-0.24,0-0.471,0-0.7c0-0.47,0-0.94,0-1.41C57.76,93.43,58.7,93.43,59.63,93.43z"/>
<path fill="#211F30" d="M56.82,68.16c0.94,0,1.88,0,2.811,0c0,0.939,0,1.87,0,2.81c-0.931,0-1.87,0-2.811,0
	C56.82,70.03,56.82,69.1,56.82,68.16z"/>
<path fill="#858D99" d="M56.82,75.88c0-0.23,0-0.47,0-0.7c0-0.47,0-0.939,0-1.399c0-0.24,0-0.471,0-0.711c0-0.229,0-0.46,0-0.699
	c0-0.471,0-0.931,0-1.4c0.94,0,1.88,0,2.811,0c0,0.93,0,1.87,0,2.811c0,0.93,0,1.869,0,2.81c-0.931,0-1.87,0-2.811,0
	C56.82,76.35,56.82,76.12,56.82,75.88z"/>
<path fill="#858D99" d="M56.82,85.01c-1.87,0-3.74,0-5.609,0c0-0.94,0-1.87,0-2.81c0-0.94,0-1.87,0-2.811c1.869,0,3.739,0,5.609,0
	c0,0.47,0,0.94,0,1.4c0,0.47,0,0.939,0,1.41c0,0.229,0,0.47,0,0.699c0,0.24,0,0.471,0,0.7C56.82,84.069,56.82,84.54,56.82,85.01z"/>
<path fill="#858D99" d="M56.82,68.16c0,0.939,0,1.87,0,2.81c-0.93,0-1.87,0-2.8,0c0-0.939,0-1.87,0-2.81
	C54.95,68.16,55.89,68.16,56.82,68.16z"/>
<path fill="#AFBBC3" d="M54.02,90.319c0,0.101,0,0.2,0,0.301c-1.88,0-3.75,0-5.62,0c0,0.939,0,1.88,0,2.81c-1.87,0-3.75,0-5.62,0
	v-2.81c0-0.931,0-1.87,0-2.801c0-0.939,0-1.88,0-2.81c-0.93,0-1.87,0-2.8,0c0-0.94,0-1.87,0-2.81V79.39c1.87,0,3.74,0,5.61,0
	c0.939,0,1.87,0,2.81,0h2.811c0,0.94,0,1.87,0,2.811c0,0.939,0,1.869,0,2.81c1.869,0,3.739,0,5.609,0c0,0.93,0,1.87,0,2.81
	c-0.93,0-1.87,0-2.8,0c0,0.101,0,0.2,0,0.301c0,0.359,0,0.729,0,1.1S54.02,89.96,54.02,90.319z"/>
<path fill="#858D99" d="M54.02,73.78c0,0.93,0,1.869,0,2.81c-0.94,0-1.88,0-2.81,0c0-0.94,0-1.88,0-2.81
	C52.14,73.78,53.08,73.78,54.02,73.78z"/>
<path fill="#211F30" d="M51.21,65.35c1.869,0,3.739,0,5.609,0c0,0.94,0,1.87,0,2.811c-0.93,0-1.87,0-2.8,0c-0.84,0-1.68,0-2.51,0
	c-0.101,0-0.2,0-0.3,0C51.21,67.22,51.21,66.29,51.21,65.35z"/>
<path fill="#858D99" d="M48.4,76.59c0,0.93,0,1.87,0,2.8c-0.939,0-1.87,0-2.81,0c0-0.47,0-0.93,0-1.399c0-0.24,0-0.471,0-0.7
	c0-0.24,0-0.471,0-0.7C46.53,76.59,47.46,76.59,48.4,76.59z"/>
<path fill="#63677A" d="M45.59,79.39c-1.87,0-3.74,0-5.61,0c0-0.47,0-0.93,0-1.399c0-0.24,0-0.471,0-0.7c0-0.24,0-0.471,0-0.7
	c1.87,0,3.74,0,5.61,0c0,0.229,0,0.46,0,0.7c0,0.229,0,0.46,0,0.7C45.59,78.46,45.59,78.92,45.59,79.39z"/>
<path fill="#63677A" d="M42.78,85.01c0,0.93,0,1.87,0,2.81c0,0.931,0,1.87,0,2.801c-0.93,0-1.87,0-2.8,0c0-0.2,0-0.4,0-0.601
	c0-0.1,0-0.2,0-0.3c0-0.13,0-0.27,0-0.4c0-0.199,0-0.399,0-0.6c0-0.1,0-0.2,0-0.3c0-0.14,0-0.271,0-0.4c0-0.91,0-1.81,0-2.71
	c0-0.1,0-0.2,0-0.3C40.91,85.01,41.85,85.01,42.78,85.01z"/>
<path d="M40.28,73.78c1.67,0,3.34,0,5.01,0c0.101,0,0.2,0,0.301,0c0,0.93,0,1.869,0,2.81c-1.87,0-3.74,0-5.61,0
	c0-0.94,0-1.88,0-2.81C40.08,73.78,40.18,73.78,40.28,73.78z"/>
<path fill="#63677A" d="M45.29,73.78c-1.67,0-3.34,0-5.01,0c-0.1,0-0.2,0-0.3,0c0,0.93,0,1.869,0,2.81c-0.94,0-1.88,0-2.81,0
	c0-0.94,0-1.88,0-2.81c0-0.94,0-1.881,0-2.811c0.93,0,1.869,0,2.81,0c0.93,0,1.87,0,2.8,0c0.94,0,1.87,0,2.811,0
	c0.939,0,1.87,0,2.81,0c0,1.771,0,3.54,0,5.311c0,0.1,0,0.199,0,0.31c-0.939,0-1.87,0-2.81,0c0-0.94,0-1.88,0-2.81
	C45.49,73.78,45.39,73.78,45.29,73.78z"/>
<path fill="#63677A" d="M39.98,85.01c-2.81,0-5.62,0-8.43,0c0-0.94,0-1.87,0-2.81c2.81,0,5.62,0,8.43,0
	C39.98,83.14,39.98,84.069,39.98,85.01z"/>
<path fill="#858D99" d="M39.98,76.59c0,0.229,0,0.46,0,0.7c0,0.229,0,0.46,0,0.7c0,0.47,0,0.93,0,1.399c-0.94,0-1.88,0-2.81,0
	c0-0.399,0-0.8,0-1.2c0-0.199,0-0.399,0-0.6c0-0.1,0-0.21,0-0.3c0-0.141,0-0.271,0-0.41c0-0.1,0-0.2,0-0.29
	C38.1,76.59,39.04,76.59,39.98,76.59z"/>
<path fill="#AFBBC3" d="M37.17,65.35c0,0.94,0,1.87,0,2.811c-2.811,0-5.62,0-8.431,0c0-0.94,0-1.87,0-2.811
	C31.55,65.35,34.36,65.35,37.17,65.35z"/>
<path fill="#858D99" d="M34.36,76.59c0,0.93,0,1.87,0,2.8c-0.939,0-1.87,0-2.81,0c0-0.47,0-0.93,0-1.399c0-0.24,0-0.471,0-0.7
	c0-0.24,0-0.471,0-0.7C32.49,76.59,33.42,76.59,34.36,76.59z"/>
<path fill="#AFBBC3" d="M54.02,76.59c0-0.94,0-1.88,0-2.81c-0.94,0-1.88,0-2.81,0c0,0.93,0,1.869,0,2.81
	C52.14,76.59,53.08,76.59,54.02,76.59z M34.36,70.97c-0.1,0-0.2,0-0.3,0c-1.771,0-3.54,0-5.32,0c0-0.939,0-1.87,0-2.81
	c2.811,0,5.62,0,8.431,0c0-0.94,0-1.87,0-2.811c4.68,0,9.359,0,14.04,0c0,0.94,0,1.87,0,2.811c0.1,0,0.199,0,0.3,0
	c0.83,0,1.67,0,2.51,0c0,0.939,0,1.87,0,2.81c0.93,0,1.87,0,2.8,0c0,0.47,0,0.93,0,1.4c0,0.239,0,0.47,0,0.699
	c0,0.24,0,0.471,0,0.711c0,0.46,0,0.93,0,1.399c0,0.23,0,0.47,0,0.7c0,0.24,0,0.47,0,0.71c0.94,0,1.88,0,2.811,0
	c0,0.36,0,0.729,0,1.1c0,0.33,0,0.66,0,1c0,0.37,0,0.74,0,1.101c0,0.34,0,0.67,0,1c0,0.37,0,0.74,0,1.109c0,0.33,0,0.67,0,1
	c0,0.37,0,0.74,0,1.101c0,0.109,0,0.21,0,0.3c0,0.07,0,0.14,0,0.21c0,0.1,0,0.2,0,0.3c0,0.061,0,0.13,0,0.2c-0.931,0-1.87,0-2.811,0
	c0-0.47,0-0.94,0-1.41c0-0.229,0-0.46,0-0.7c0-0.229,0-0.47,0-0.699c0-0.471,0-0.94,0-1.41c0-0.46,0-0.931,0-1.4
	c-1.87,0-3.74,0-5.609,0H48.4c0-0.93,0-1.87,0-2.8c0-0.11,0-0.21,0-0.31c0-1.771,0-3.54,0-5.311c-0.939,0-1.87,0-2.81,0
	c-0.94,0-1.87,0-2.811,0c-0.93,0-1.87,0-2.8,0c-0.94,0-1.88,0-2.81,0c0,0.93,0,1.87,0,2.811c0,0.93,0,1.869,0,2.81
	c0,0.09,0,0.19,0,0.29c0,0.14,0,0.27,0,0.41c0,0.09,0,0.2,0,0.3c0,0.2,0,0.4,0,0.6c0,0.4,0,0.801,0,1.2H34.36c0-0.93,0-1.87,0-2.8
	c0-0.94,0-1.88,0-2.81c0-0.471,0-0.94,0-1.41c0-0.23,0-0.471,0-0.7c0-0.101,0-0.2,0-0.3C34.36,71.24,34.36,71.1,34.36,70.97z"/>
<path fill="#63677A" d="M31.55,77.99c0,0.47,0,0.93,0,1.399c-1.87,0-3.74,0-5.62,0c0-0.229,0-0.47,0-0.7c0-0.229,0-0.47,0-0.699
	c0-0.24,0-0.471,0-0.7c0-0.24,0-0.471,0-0.7c1.88,0,3.75,0,5.62,0c0,0.229,0,0.46,0,0.7C31.55,77.52,31.55,77.75,31.55,77.99z"/>
<path fill="#63677A" d="M31.55,85.01c0,0.03,0,0.07,0,0.1c0,0.9,0,1.801,0,2.71c0,0.931,0,1.87,0,2.801c-0.931,0-1.87,0-2.811,0
	c0-0.931,0-1.87,0-2.801c0-0.939,0-1.88,0-2.81C29.68,85.01,30.62,85.01,31.55,85.01z"/>
<path fill="#211F30" d="M34.26,62.54c0.1,0,0.2,0,0.3,0s0.2,0,0.3,0c0.101,0,0.2,0,0.3,0c0.141,0,0.271,0,0.4,0
	c0.47,0,0.939,0,1.41,0c0.47,0,0.93,0,1.399,0c0.471,0,0.94,0,1.4,0c0.11,0,0.21,0,0.31,0c0.101,0,0.2,0,0.301,0
	c0.1,0,0.199,0,0.3,0c0.13,0,0.26,0,0.399,0c0.471,0,0.931,0,1.4,0s0.94,0,1.41,0c0.46,0,0.93,0,1.399,0c0.471,0,0.94,0,1.4,0
	c0.47,0,0.94,0,1.41,0s0.93,0,1.399,0c0.471,0,0.94,0,1.41,0c0.101,0,0.2,0,0.301,0c0,0.14,0,0.27,0,0.399c0,0.11,0,0.21,0,0.311
	c0,0.1,0,0.2,0,0.3c0,0.13,0,0.26,0,0.4c0,0.47,0,0.93,0,1.399c-4.681,0-9.36,0-14.04,0c-2.811,0-5.62,0-8.431,0
	c0-0.93,0-1.87,0-2.81c0.101,0,0.2,0,0.3,0c0.101,0,0.2,0,0.311,0c0.1,0,0.2,0,0.3,0c0.13,0,0.26,0,0.4,0c0.47,0,0.93,0,1.399,0
	c0.471,0,0.94,0,1.4,0C33.32,62.54,33.79,62.54,34.26,62.54z"/>
<path fill="#AFBBC3" d="M28.74,68.16c0,0.939,0,1.87,0,2.81c-1.87,0-3.74,0-5.609,0c0-0.939,0-1.87,0-2.81
	C25,68.16,26.87,68.16,28.74,68.16z"/>
<path fill="#211F30" d="M28.74,65.35c0,0.94,0,1.87,0,2.811c-1.87,0-3.74,0-5.609,0c0-0.841,0-1.67,0-2.511c0-0.1,0-0.199,0-0.3
	C25,65.35,26.87,65.35,28.74,65.35z"/>
<path d="M31.55,73.78c0,0.93,0,1.869,0,2.81c-1.87,0-3.74,0-5.62,0c0-0.94,0-1.88,0-2.81c0.109,0,0.21,0,0.31,0
	c1.67,0,3.34,0,5.01,0C31.35,73.78,31.45,73.78,31.55,73.78z"/>
<path fill="#63677A" d="M34.06,70.97c0.1,0,0.2,0,0.3,0c0,0.13,0,0.271,0,0.4c0,0.1,0,0.199,0,0.3c0,0.229,0,0.47,0,0.7
	c0,0.47,0,0.939,0,1.41c0,0.93,0,1.869,0,2.81c-0.939,0-1.87,0-2.81,0c0-0.94,0-1.88,0-2.81c-0.101,0-0.2,0-0.301,0
	c-1.67,0-3.34,0-5.01,0c-0.1,0-0.2,0-0.31,0c0,0.93,0,1.869,0,2.81c-0.931,0-1.87,0-2.8,0c0-0.94,0-1.88,0-2.81
	c0-0.94,0-1.881,0-2.811c1.869,0,3.739,0,5.609,0C30.52,70.97,32.29,70.97,34.06,70.97z"/>
<path fill="#858D99" d="M23.13,77.29c0-0.24,0-0.471,0-0.7c0.93,0,1.869,0,2.8,0c0,0.229,0,0.46,0,0.7c0,0.229,0,0.46,0,0.7
	c0,0.229,0,0.47,0,0.699c0,0.23,0,0.471,0,0.7c-0.931,0-1.87,0-2.8,0c0-0.47,0-0.93,0-1.399C23.13,77.75,23.13,77.52,23.13,77.29z"
	/>
<path fill="#211F30" d="M33.66,96.24c0.7,0,1.4,0,2.101,0c0.71,0,1.41,0,2.109,0c0.7,0,1.4,0,2.11,0c0.7,0,1.4,0,2.1,0
	c0.7,0,1.41,0,2.11,0s1.4,0,2.1,0c0.71,0,1.41,0,2.11,0s1.4,0,2.1,0c0.711,0,1.41,0,2.11,0s1.41,0,2.11,0s1.399,0,2.1,0
	c0,0.97,0,1.939,0,2.909c-1.87,0-3.74,0-5.609,0c0,0.471,0,0.931,0,1.4s0,0.94,0,1.41c-1.881,0-3.75,0-5.62,0c0-0.91,0-1.811,0-2.71
	c0-0.03,0-0.07,0-0.101c-0.101,0-0.2,0-0.301,0c-3.54,0-7.09,0-10.63,0c-0.1,0-0.199,0-0.3,0c0,0.471,0,0.931,0,1.4s0,0.94,0,1.41
	c-1.87,0-3.74,0-5.62,0c0-0.47,0-0.94,0-1.41s0-0.93,0-1.4c-0.1,0-0.2,0-0.3,0c-1.67,0-3.34,0-5.01,0c-0.101,0-0.2,0-0.3,0
	c0-0.04,0-0.069,0-0.1c0-0.24,0-0.47,0-0.7c0-0.24,0-0.47,0-0.71c0-0.46,0-0.93,0-1.399c0.699,0,1.399,0,2.1,0s1.41,0,2.11,0
	c0.699,0,1.399,0,2.109,0c0.7,0,1.4,0,2.101,0C32.25,96.24,32.96,96.24,33.66,96.24z"/>
<path fill="#211F30" d="M23.13,68.16c0,0.939,0,1.87,0,2.81c-0.94,0-1.87,0-2.811,0c0-0.84,0-1.67,0-2.51c0-0.101,0-0.2,0-0.3
	C21.26,68.16,22.19,68.16,23.13,68.16z"/>
<path fill="#AFBBC3" d="M23.13,70.97c0,0.93,0,1.87,0,2.811c-0.94,0-1.87,0-2.811,0c0-0.94,0-1.881,0-2.811
	C21.26,70.97,22.19,70.97,23.13,70.97z"/>
<path fill="#AFBBC3" d="M23.13,73.78c0,0.93,0,1.869,0,2.81c0,0.229,0,0.46,0,0.7c0,0.229,0,0.46,0,0.7c0,0.47,0,0.93,0,1.399
	c0.93,0,1.869,0,2.8,0c1.88,0,3.75,0,5.62,0c0.939,0,1.87,0,2.81,0h2.811c0.93,0,1.869,0,2.81,0V82.2c-2.81,0-5.62,0-8.43,0
	c0,0.939,0,1.869,0,2.81c-0.931,0-1.87,0-2.811,0c0,0.93,0,1.87,0,2.81c0,0.931,0,1.87,0,2.801c0.94,0,1.88,0,2.811,0
	c0-0.931,0-1.87,0-2.801c0-0.909,0-1.81,0-2.71c0-0.029,0-0.069,0-0.1c2.81,0,5.62,0,8.43,0c0,0.1,0,0.2,0,0.3c0,0.9,0,1.8,0,2.71
	c0,0.13,0,0.261,0,0.4c0,0.1,0,0.2,0,0.3c0,0.2,0,0.4,0,0.6c0,0.131,0,0.271,0,0.4c0,0.1,0,0.2,0,0.3c0,0.2,0,0.4,0,0.601
	c0.93,0,1.87,0,2.8,0v2.81c-1.87,0-3.74,0-5.609,0c-1.87,0-3.75,0-5.62,0s-3.74,0-5.62,0c0-0.47,0-0.93,0-1.399
	c0-0.141,0-0.271,0-0.4c0-0.1,0-0.2,0-0.3c0-0.101,0-0.2,0-0.3c0-0.141,0-0.271,0-0.41c-0.101,0-0.19,0-0.3,0
	c-1.771,0-3.54,0-5.311,0c0-0.46,0-0.931,0-1.4s0-0.939,0-1.4c0-0.939,0-1.88,0-2.81c-0.939,0-1.87,0-2.81,0c0-0.2,0-0.4,0-0.6
	c0-0.11,0-0.2,0-0.301c0-0.069,0-0.14,0-0.199c0-0.341,0-0.67,0-1.011c0-0.199,0-0.399,0-0.6c0-0.1,0-0.2,0-0.3c0-0.07,0-0.13,0-0.2
	c0-0.34,0-0.67,0-1.01c0-0.2,0-0.391,0-0.601c0-0.159,0-0.33,0-0.5c0-0.33,0-0.67,0-1c0-0.37,0-0.739,0-1.1c0-0.17,0-0.34,0-0.5
	c0-0.1,0-0.21,0-0.31c0-0.061,0-0.131,0-0.19c0.939,0,1.87,0,2.81,0c0-0.11,0-0.21,0-0.31c0-0.23,0-0.471,0-0.7c0-0.101,0-0.2,0-0.3
	c0-0.101,0-0.2,0-0.301c0-0.399,0-0.8,0-1.199C21.26,73.78,22.19,73.78,23.13,73.78z"/>
<path fill="#858D99" d="M20.32,90.62c1.771,0,3.54,0,5.311,0c0.109,0,0.199,0,0.3,0c0,0.14,0,0.27,0,0.41c0,0.1,0,0.199,0,0.3
	c0,0.1,0,0.2,0,0.3c0,0.13,0,0.26,0,0.4c0,0.47,0,0.93,0,1.399c1.88,0,3.75,0,5.62,0s3.75,0,5.62,0c1.869,0,3.739,0,5.609,0
	s3.75,0,5.62,0c0-0.93,0-1.87,0-2.81c1.87,0,3.74,0,5.62,0c0-0.101,0-0.2,0-0.301c0-0.359,0-0.729,0-1.1s0-0.74,0-1.1
	c0-0.101,0-0.2,0-0.301c0.93,0,1.87,0,2.8,0c0-0.939,0-1.88,0-2.81c0.94,0,1.88,0,2.811,0c0-0.07,0-0.14,0-0.2c0-0.1,0-0.2,0-0.3
	c0-0.07,0-0.14,0-0.21c0-0.09,0-0.19,0-0.3c0-0.36,0-0.73,0-1.101c0-0.33,0-0.67,0-1c0-0.369,0-0.739,0-1.109c0-0.33,0-0.66,0-1
	c0-0.36,0-0.73,0-1.101c0-0.34,0-0.67,0-1c0-0.37,0-0.739,0-1.1c0.939,0,1.869,0,2.81,0c0,0.229,0,0.46,0,0.7c0,0.229,0,0.46,0,0.7
	c0,0.47,0,0.93,0,1.399c0,0.94,0,1.87,0,2.811c0,0.939,0,1.869,0,2.81c0,0.93,0,1.87,0,2.81c-0.94,0-1.87,0-2.81,0
	c0,0.101,0,0.2,0,0.301c0,0.899,0,1.8,0,2.71c0,0.43,0,0.859,0,1.3c0,0.43,0,0.87,0,1.3c-0.931,0-1.87,0-2.811,0
	c0,0.47,0,0.94,0,1.41c0,0.229,0,0.46,0,0.7c0,0.229,0,0.47,0,0.7c-0.7,0-1.399,0-2.1,0s-1.41,0-2.11,0s-1.399,0-2.11,0
	c-0.699,0-1.399,0-2.1,0s-1.4,0-2.11,0c-0.699,0-1.399,0-2.1,0s-1.41,0-2.11,0c-0.699,0-1.399,0-2.1,0c-0.71,0-1.41,0-2.11,0
	c-0.699,0-1.399,0-2.109,0c-0.7,0-1.4,0-2.101,0c-0.699,0-1.41,0-2.109,0c-0.7,0-1.4,0-2.101,0c-0.71,0-1.41,0-2.109,0
	c-0.7,0-1.41,0-2.11,0s-1.4,0-2.1,0c0-0.471,0-0.94,0-1.4c0-0.24,0-0.47,0-0.71c0-0.1,0-0.2,0-0.3c0-0.061,0-0.13,0-0.2
	c0-0.03,0-0.07,0-0.1c0-0.03,0-0.061,0-0.101c-0.101,0-0.2,0-0.301,0c-0.84,0-1.67,0-2.51,0c0-0.47,0-0.93,0-1.399
	C20.32,91.56,20.32,91.09,20.32,90.62z"/>
<path fill="#211F30" d="M23.13,94.84c0,0.46,0,0.93,0,1.4c-0.841,0-1.67,0-2.511,0c-0.1,0-0.199,0-0.3,0c0-0.03,0-0.07,0-0.101
	c0-0.899,0-1.81,0-2.71c0.84,0,1.67,0,2.51,0c0.101,0,0.2,0,0.301,0c0,0.04,0,0.07,0,0.101c0,0.029,0,0.069,0,0.1
	c0,0.07,0,0.14,0,0.2c0,0.1,0,0.2,0,0.3C23.13,94.37,23.13,94.6,23.13,94.84z"/>
<path fill="#858D99" d="M20.32,85.01c0,0.93,0,1.87,0,2.81c-0.939,0-1.87,0-2.81,0c0-0.939,0-1.88,0-2.81
	C18.45,85.01,19.38,85.01,20.32,85.01z"/>
<path fill="#211F30" d="M20.32,90.62c0,0.47,0,0.939,0,1.41c0,0.47,0,0.93,0,1.399c-0.939,0-1.87,0-2.81,0c0-0.93,0-1.87,0-2.81
	c0-0.46,0-0.931,0-1.4s0-0.939,0-1.4c0.939,0,1.87,0,2.81,0c0,0.461,0,0.931,0,1.4S20.32,90.16,20.32,90.62z"/>
<path fill="#211F30" d="M20.32,73.78c0,0.399,0,0.8,0,1.199c0,0.101,0,0.2,0,0.301c0,0.1,0,0.199,0,0.3c0,0.229,0,0.47,0,0.7
	c0,0.1,0,0.199,0,0.31c-0.939,0-1.87,0-2.81,0c0-0.11,0-0.21,0-0.31c0-0.101,0-0.2,0-0.301c0-0.1,0-0.199,0-0.3
	c0-0.13,0-0.27,0-0.399c0-0.101,0-0.2,0-0.301c0-0.1,0-0.199,0-0.3c0-0.1,0-0.2,0-0.3c0-0.14,0-0.271,0-0.4c0-0.91,0-1.81,0-2.71
	c0-0.1,0-0.2,0-0.3c0.939,0,1.87,0,2.81,0C20.32,71.899,20.32,72.84,20.32,73.78z"/>
<path fill="#211F30" d="M14.7,85.01c0-0.94,0-1.87,0-2.81c0-0.94,0-1.87,0-2.811c0-0.47,0-0.93,0-1.399c0-0.24,0-0.471,0-0.7
	c0-0.24,0-0.471,0-0.7c0.94,0,1.88,0,2.811,0c0,0.06,0,0.13,0,0.19c0,0.1,0,0.21,0,0.31c0,0.16,0,0.33,0,0.5c0,0.36,0,0.729,0,1.1
	c0,0.33,0,0.67,0,1c0,0.17,0,0.341,0,0.5c0,0.21,0,0.4,0,0.601c0,0.34,0,0.67,0,1.01c0,0.07,0,0.13,0,0.2c0,0.1,0,0.2,0,0.3
	c0,0.2,0,0.4,0,0.6c0,0.341,0,0.67,0,1.011c0,0.06,0,0.13,0,0.199c0,0.101,0,0.19,0,0.301c0,0.199,0,0.399,0,0.6
	c0,0.93,0,1.87,0,2.81c-0.931,0-1.87,0-2.811,0C14.7,86.88,14.7,85.939,14.7,85.01z"/>
</svg>
