<?xml version="1.0" encoding="utf-8"?>
<!-- Generator: Adobe Illustrator 15.0.0, SVG Export Plug-In  -->
<!DOCTYPE svg PUBLIC "-//W3C//DTD SVG 1.1//EN" "http://www.w3.org/Graphics/SVG/1.1/DTD/svg11.dtd" [
	<!ENTITY ns_flows "http://ns.adobe.com/Flows/1.0/">
]>
<svg version="1.1"
	 xmlns="http://www.w3.org/2000/svg" xmlns:xlink="http://www.w3.org/1999/xlink" xmlns:a="http://ns.adobe.com/AdobeSVGViewerExtensions/3.0/"
	 x="0px" y="0px" width="95px" height="80px" viewBox="-4.21 -10.9 95 80" enable-background="new -4.21 -10.9 95 80"
	 xml:space="preserve">
<defs>
</defs>
<g id="XMLID_2_">
	<g>
		<path fill="#211F30" d="M77.771,45.18c0.25,1.43,0.51,2.86,0.76,4.29c-0.26,0.04-0.521,0.09-0.78,0.13
			c-0.39,0.07-0.78,0.14-1.17,0.21c-0.05-0.26-0.09-0.52-0.14-0.78c-0.07-0.39-0.141-0.779-0.2-1.17
			c-0.141-0.779-0.28-1.56-0.42-2.34c0.26-0.04,0.52-0.09,0.779-0.13C76.99,45.32,77.38,45.25,77.771,45.18z"/>
		<path fill="#211F30" d="M77.01,34.06c0.4-0.07,0.78-0.14,1.17-0.2c0.65,3.63,1.29,7.271,1.931,10.91
			c-0.78,0.14-1.561,0.271-2.34,0.41c-0.641-3.64-1.28-7.28-1.921-10.91C76.24,34.2,76.62,34.13,77.01,34.06z"/>
		<path fill="#211F30" d="M76.72,50.59c0.061,0.39,0.13,0.779,0.2,1.17c-0.78,0.13-1.55,0.27-2.34,0.41
			c-0.04-0.261-0.09-0.521-0.13-0.78c-0.07-0.39-0.141-0.78-0.21-1.17c0.78-0.14,1.56-0.271,2.34-0.41
			C76.62,50.07,76.67,50.331,76.72,50.59z"/>
		<path fill="#211F30" d="M74.58,52.17c0.14,0.779,0.28,1.56,0.42,2.34c-1.43,0.25-2.86,0.5-4.29,0.75
			c-0.14-0.78-0.28-1.55-0.41-2.33C71.72,52.67,73.16,52.42,74.58,52.17z"/>
		<path fill="#211F30" d="M73.69,33.44c-0.07-0.39-0.141-0.78-0.2-1.17c-0.05-0.26-0.101-0.52-0.141-0.78
			c-0.069-0.39-0.14-0.77-0.21-1.17c-0.25-1.42-0.5-2.85-0.75-4.28c0.261-0.05,0.521-0.09,0.78-0.14c0.39-0.07,0.78-0.14,1.17-0.21
			c0.061,0.4,0.13,0.79,0.2,1.17c0.07,0.39,0.14,0.78,0.21,1.17c0.04,0.26,0.09,0.52,0.13,0.78c0.07,0.39,0.141,0.78,0.21,1.17
			c0.05,0.26,0.09,0.521,0.141,0.78c0.069,0.39,0.14,0.78,0.199,1.17c0.141,0.78,0.28,1.56,0.42,2.34
			c-0.26,0.04-0.52,0.09-0.779,0.13c-0.391,0.07-0.78,0.141-1.17,0.21C73.83,34.22,73.76,33.831,73.69,33.44z"/>
		<path fill="#211F30" d="M71.56,21.36c0.091,0.52,0.19,1.04,0.28,1.56c0.181,1.04,0.36,2.08,0.55,3.12
			c-0.779,0.14-1.56,0.27-2.34,0.41c-0.39-2.21-0.779-4.41-1.17-6.62c0.78-0.14,1.561-0.28,2.34-0.42c0.07,0.39,0.141,0.78,0.2,1.17
			C71.47,20.84,71.521,21.1,71.56,21.36z"/>
		<path fill="#211F30" d="M68.67,18.66c0.07,0.39,0.14,0.78,0.21,1.17c-0.78,0.13-1.56,0.27-2.34,0.41
			c-0.25-1.43-0.5-2.86-0.75-4.29c0.78-0.14,1.56-0.27,2.33-0.41c0.07,0.39,0.14,0.78,0.21,1.17c0.07,0.39,0.14,0.78,0.21,1.17
			C68.58,18.14,68.63,18.4,68.67,18.66z"/>
		<path fill="#858D99" d="M66.66,32.27c0.06,0.39,0.13,0.78,0.2,1.17c-0.78,0.141-1.561,0.28-2.34,0.41
			c-0.04-0.26-0.091-0.52-0.131-0.78c-0.069-0.39-0.14-0.77-0.21-1.17c0.78-0.13,1.561-0.27,2.341-0.41
			C66.56,31.75,66.61,32.01,66.66,32.27z"/>
		<path fill="#211F30" d="M63.86,11.87c0.39-0.07,0.779-0.14,1.17-0.21c0.02,0.14,0.05,0.27,0.069,0.4
			c0.11,0.64,0.23,1.29,0.341,1.94c0.05,0.26,0.09,0.52,0.14,0.78c0.07,0.39,0.14,0.78,0.21,1.17c-0.26,0.05-0.52,0.09-0.78,0.14
			c-0.39,0.07-0.779,0.14-1.17,0.21c-0.25-1.43-0.51-2.86-0.76-4.29C63.34,11.96,63.6,11.92,63.86,11.87z"/>
		<path fill="#211F30" d="M60.33,10.08c0.78-0.13,1.56-0.27,2.34-0.41c0.14,0.78,0.271,1.56,0.41,2.34
			c-0.78,0.13-1.56,0.27-2.33,0.41C60.61,11.64,60.47,10.86,60.33,10.08z"/>
		<path fill="#858D99" d="M59.48,30.32c0.14,0.78,0.279,1.561,0.409,2.34c-0.26,0.051-0.52,0.091-0.779,0.141
			c-0.391,0.069-0.78,0.14-1.17,0.21c-0.131-0.78-0.271-1.561-0.41-2.34c0.39-0.07,0.779-0.141,1.17-0.21
			C58.96,30.42,59.22,30.37,59.48,30.32z"/>
		<path fill="#211F30" d="M60.13,8.91c0.07,0.39,0.13,0.78,0.2,1.17c-0.26,0.05-0.521,0.1-0.78,0.14
			c-0.39,0.07-0.779,0.14-1.17,0.21c-0.04-0.26-0.09-0.52-0.13-0.78c-0.07-0.39-0.14-0.78-0.21-1.17c0.26-0.05,0.52-0.09,0.78-0.14
			c0.39-0.07,0.779-0.14,1.17-0.2C60.04,8.39,60.08,8.66,60.13,8.91z"/>
		<path fill="#858D99" d="M64.09,42.77c-0.04,0.061,0.07,0.32,0.07,0.39c-0.01,0.12,0.05,0.28,0.06,0.391
			c0.03,0.13,0.051,0.26,0.07,0.39c0.07,0.391,0.14,0.78,0.21,1.17c-0.39,0.07-0.78,0.141-1.17,0.2c-0.26,0.05-0.521,0.1-0.78,0.14
			c-0.39,0.07-0.779,0.141-1.17,0.21c-0.39,0.07-0.78,0.141-1.17,0.2c-0.14-0.779-0.27-1.55-0.41-2.33
			c-0.39,0.07-0.779,0.13-1.17,0.2c-0.39,0.07-0.78,0.14-1.17,0.21c-0.06-0.39-0.13-0.78-0.2-1.17c-0.05-0.26-0.09-0.52-0.14-0.78
			c-0.07-0.39-0.14-0.779-0.21-1.17c-0.061-0.39-0.13-0.779-0.2-1.17c0.39-0.06,0.78-0.13,1.16-0.2c0.4-0.069,0.79-0.14,1.17-0.21
			c-0.04-0.26-0.09-0.52-0.13-0.779c-0.07-0.391-0.14-0.78-0.21-1.17c0.39-0.07,0.78-0.141,1.17-0.2c1.04-0.19,2.08-0.37,3.12-0.55
			c0.04,0.26,0.09,0.52,0.14,0.779c0.061,0.38,0.13,0.771,0.2,1.17c0.26-0.05,0.52-0.1,0.78-0.14c0.39-0.07,0.779-0.14,1.17-0.21
			c0.069,0.39,0.14,0.78,0.21,1.17c0.18,1.04,0.359,2.08,0.55,3.12c-0.52,0.09-1.04,0.18-1.56,0.27
			C64.41,42.77,64.14,42.69,64.09,42.77z"/>
		<path fill="#211F30" d="M57.63,6.14c0.141,0.78,0.271,1.56,0.41,2.34c-0.78,0.14-1.56,0.27-2.34,0.41
			c-0.13-0.78-0.271-1.56-0.41-2.34C56.07,6.42,56.85,6.28,57.63,6.14z"/>
		<path fill="#858D99" d="M55.29,6.55c0.14,0.78,0.28,1.56,0.41,2.34c-0.26,0.05-0.521,0.09-0.78,0.14
			c-0.39,0.07-0.78,0.14-1.17,0.21c-0.13-0.79-0.27-1.56-0.41-2.34c0.391-0.07,0.78-0.14,1.17-0.21
			C54.771,6.64,55.03,6.6,55.29,6.55z"/>
		<path fill="#211F30" d="M54.51,6.69c-0.39,0.07-0.779,0.14-1.17,0.21c-0.14-0.78-0.27-1.56-0.41-2.34
			c0.261-0.05,0.521-0.09,0.78-0.14c0.39-0.07,0.78-0.14,1.17-0.2C55.021,5,55.15,5.77,55.29,6.55C55.03,6.6,54.771,6.64,54.51,6.69
			z"/>
		<path fill="#858D99" d="M52.93,4.56C53.07,5.34,53.2,6.12,53.34,6.9C52.56,7.03,51.78,7.17,51,7.31
			c-0.13-0.78-0.27-1.56-0.41-2.34C51.37,4.83,52.15,4.7,52.93,4.56z"/>
		<path fill="#FFFFFF" d="M49.05,7.65c0.141,0.78,0.28,1.56,0.42,2.34c-0.779,0.14-1.56,0.28-2.34,0.41
			c-0.14-0.78-0.28-1.56-0.41-2.34C47.5,7.93,48.271,7.79,49.05,7.65z"/>
		<path fill="#211F30" d="M52.72,3.39c0.07,0.39,0.141,0.78,0.21,1.17c-0.779,0.14-1.56,0.27-2.34,0.41
			c-0.26,0.05-0.52,0.09-0.78,0.14c-0.39,0.07-0.779,0.14-1.17,0.2c-0.02-0.12-0.04-0.26-0.069-0.38C48.48,4.4,48.39,3.88,48.3,3.36
			c1.431-0.25,2.86-0.5,4.28-0.75C52.63,2.87,52.68,3.13,52.72,3.39z"/>
		<path fill="#211F30" d="M48.3,3.36c-2.21,0.39-4.42,0.78-6.63,1.17c-0.13-0.78-0.27-1.55-0.41-2.33
			c2.21-0.39,4.419-0.78,6.629-1.17C48.021,1.81,48.16,2.59,48.3,3.36z"/>
		<path fill="#858D99" d="M47.93,40c0.07,0.38,0.13,0.77,0.2,1.17c-0.78,0.13-1.55,0.27-2.33,0.41c-0.05-0.261-0.09-0.521-0.14-0.78
			c-0.07-0.391-0.14-0.78-0.21-1.17c0.78-0.141,1.56-0.28,2.34-0.41C47.83,39.48,47.88,39.74,47.93,40z"/>
		<path fill="#FFFFFF" d="M42.02,6.48c0.13,0.78,0.27,1.56,0.41,2.34c-0.78,0.14-1.56,0.28-2.34,0.41
			c-0.13-0.78-0.27-1.56-0.41-2.34C40.46,6.76,41.24,6.62,42.02,6.48z"/>
		<path fill="#858D99" d="M39.79,32.59c0.07,0.39,0.14,0.779,0.21,1.17c-0.26,0.05-0.52,0.09-0.78,0.14
			c-0.39,0.07-0.78,0.141-1.17,0.2c-0.09-0.52-0.19-1.04-0.28-1.56c-0.02-0.12-0.04-0.261-0.07-0.391c0.26-0.04,0.52-0.09,0.78-0.13
			c0.39-0.07,0.79-0.14,1.17-0.21C39.7,32.07,39.75,32.331,39.79,32.59z"/>
		<path fill="#858D99" d="M37.36,43.87c0.09,0.521,0.18,1.04,0.28,1.551c-0.4,0.069-0.78,0.14-1.17,0.21
			c-5.07,0.89-10.14,1.79-15.2,2.68c-0.26,0.05-0.52,0.09-0.78,0.14c-0.14-0.779-0.28-1.56-0.41-2.34
			c5.32-0.939,10.65-1.88,15.97-2.81c0.39-0.07,0.78-0.141,1.17-0.21C37.27,43.35,37.31,43.61,37.36,43.87z"/>
		<path fill="#858D99" d="M35.02,16.95c0.26,1.43,0.51,2.86,0.76,4.29c-0.78,0.14-1.56,0.28-2.34,0.42
			c-0.2-1.17-0.41-2.34-0.61-3.51c-0.05-0.26-0.1-0.52-0.14-0.78C33.47,17.23,34.25,17.09,35.02,16.95z"/>
		<path fill="#63677A" d="M38.05,34.1c-1.04,0.19-2.08,0.37-3.12,0.55c-1.17,0.21-2.34,0.42-3.51,0.62
			c-0.06-0.39-0.13-0.78-0.2-1.17c-0.05-0.26-0.09-0.52-0.14-0.78c1.04-0.18,2.08-0.359,3.12-0.55c0.52-0.09,1.04-0.18,1.56-0.27
			c0.52-0.091,1.03-0.19,1.55-0.28c0.13-0.021,0.27-0.04,0.39-0.07c0.03,0.13,0.05,0.271,0.07,0.391
			C37.86,33.06,37.96,33.581,38.05,34.1z"/>
		<path fill="#858D99" d="M30.74,17.71c0.25,1.43,0.5,2.86,0.76,4.29c-3.64,0.64-7.28,1.28-10.92,1.92
			c-0.18-1.04-0.36-2.08-0.55-3.12c-0.06-0.38-0.13-0.77-0.2-1.17C23.46,18.99,27.1,18.35,30.74,17.71z"/>
		<path d="M37.7,32.15c-0.12,0.03-0.26,0.05-0.39,0.07c-0.52,0.09-1.03,0.189-1.55,0.28c-0.52,0.09-1.04,0.18-1.56,0.27
			c-1.04,0.19-2.08,0.37-3.12,0.55c-0.14-0.779-0.27-1.55-0.41-2.34c0.13-0.02,0.26-0.04,0.39-0.06c2.08-0.37,4.15-0.74,6.23-1.1
			C37.43,30.6,37.57,31.38,37.7,32.15z"/>
		<path fill="#63677A" d="M38.83,27.13c0.27,1.56,0.55,3.121,0.82,4.68c-0.38,0.07-0.78,0.14-1.17,0.21
			c-0.26,0.04-0.52,0.09-0.78,0.13c-0.13-0.77-0.27-1.55-0.41-2.33c-2.08,0.36-4.15,0.73-6.23,1.1c-0.13,0.02-0.26,0.04-0.39,0.06
			c0.14,0.79,0.27,1.561,0.41,2.34c-0.78,0.141-1.56,0.28-2.34,0.41c-0.27-1.55-0.55-3.11-0.82-4.67
			C31.55,28.42,35.19,27.78,38.83,27.13z"/>
		<path fill="#858D99" d="M31.42,35.27c-0.78,0.14-1.55,0.28-2.33,0.41c-0.05-0.26-0.09-0.521-0.14-0.78
			c-0.07-0.38-0.14-0.78-0.21-1.17c0.78-0.13,1.56-0.27,2.34-0.41c0.05,0.261,0.09,0.521,0.14,0.78
			C31.29,34.49,31.36,34.88,31.42,35.27z"/>
		<path fill="#211F30" d="M41.06,1.03c0.06,0.39,0.13,0.78,0.2,1.17c-5.84,1.03-11.69,2.06-17.53,3.09
			c-0.05-0.26-0.09-0.52-0.14-0.78c-0.07-0.39-0.14-0.78-0.21-1.17c0.39-0.07,0.78-0.14,1.17-0.21c0.39-0.07,0.78-0.13,1.17-0.2
			c0.78-0.14,1.56-0.28,2.34-0.42c0.65-0.11,1.3-0.22,1.95-0.34c0.78-0.14,1.56-0.27,2.33-0.41c0.66-0.12,1.3-0.23,1.95-0.35
			c0.79-0.13,1.56-0.27,2.34-0.41c0.65-0.11,1.3-0.23,1.95-0.34c0.78-0.14,1.56-0.28,2.34-0.41C40.96,0.51,41.01,0.77,41.06,1.03z"
			/>
		<path fill="#211F30" d="M24.14,7.62c-2.08,0.37-4.16,0.74-6.24,1.1c-0.13-0.77-0.27-1.55-0.41-2.33c2.08-0.37,4.16-0.73,6.24-1.1
			C23.86,6.07,24,6.85,24.14,7.62z"/>
		<path fill="#858D99" d="M24.09,16.48c-0.07-0.01-0.33,0.1-0.39,0.06c-0.07-0.05,0-0.32-0.07-0.39c-0.04-0.26-0.09-0.52-0.14-0.78
			c-0.04-0.25-0.09-0.52-0.13-0.77c0.26-0.05,0.52-0.1,0.78-0.14c0.52-0.09,1.04-0.19,1.56-0.28c0.39-0.07,0.78-0.13,1.16-0.2
			c0.52-0.09,1.05-0.19,1.56-0.28c0.27-0.04,0.52-0.09,0.78-0.14c0.14-0.02,0.26-0.04,0.39-0.06c0.13-0.03,0.26-0.05,0.39-0.07
			c0.39-0.07,0.78-0.14,1.17-0.21c0.26-0.05,0.52-0.09,0.78-0.14c0.13-0.02,0.26-0.05,0.39-0.07c0.13-0.01,0.26-0.04,0.39-0.06
			c0.13-0.03,0.26-0.05,0.39-0.07c0.13-0.03,0.26-0.07,0.39-0.07c0.13-0.01,0.27-0.05,0.39-0.07c0.05-0.01,0.36-0.1,0.39-0.07
			c0.08,0.07,0,0.31,0.07,0.39c0.02,0.13,0.04,0.26,0.07,0.39c0.04,0.26,0.09,0.52,0.13,0.78c-0.03,0.09,0.13,0.31,0.07,0.39
			c-0.04,0.05-0.32,0.04-0.39,0.07c-0.1,0.04-0.27,0.05-0.39,0.07s-0.26,0.04-0.39,0.07c-0.12,0.02-0.26,0.04-0.39,0.06
			c-0.13,0.03-0.26,0.05-0.38,0.07c-0.14,0.03-0.27,0.05-0.39,0.07c-0.13,0.03-0.26,0.05-0.39,0.07s-0.26,0.05-0.39,0.07
			s-0.26,0.05-0.39,0.07c-0.26,0.04-0.52,0.09-0.78,0.14c-0.13,0.02-0.26,0.04-0.39,0.06c-0.13,0.03-0.26,0.05-0.39,0.07
			c-0.39,0.07-0.78,0.14-1.17,0.21c-0.39,0.07-0.78,0.14-1.17,0.21c-0.39,0.06-0.78,0.13-1.17,0.2c-0.39,0.07-0.78,0.14-1.17,0.21
			c-0.13,0.02-0.26,0.04-0.39,0.07C24.37,16.43,24.21,16.48,24.09,16.48z"/>
		<path fill="#211F30" d="M49.25,63.47c-2.08,0.36-4.15,0.729-6.23,1.1c-1.17,0.2-2.34,0.41-3.51,0.61
			c-1.04,0.189-2.08,0.37-3.12,0.55c-2.07,0.37-4.15,0.74-6.23,1.101c-1.17,0.21-2.34,0.409-3.51,0.619
			c-1.04,0.181-2.08,0.37-3.11,0.551c-2.08,0.369-4.16,0.729-6.24,1.1c-0.14-0.78-0.28-1.56-0.41-2.33
			c-0.78,0.13-1.56,0.271-2.34,0.41c-0.05-0.26-0.09-0.521-0.14-0.78c-0.07-0.39-0.14-0.78-0.2-1.17c2.98-0.53,5.97-1.06,8.96-1.58
			c0.04,0.26,0.09,0.521,0.13,0.78c0.07,0.39,0.14,0.78,0.21,1.17c12.99-2.29,25.98-4.58,38.97-6.87
			c-0.051-0.26-0.091-0.52-0.141-0.78c-0.069-0.39-0.14-0.779-0.21-1.17c2.86-0.51,5.72-1.01,8.58-1.52
			c0.04,0.26,0.09,0.52,0.14,0.79c0.061,0.38,0.131,0.77,0.2,1.16c-0.52,0.1-1.04,0.189-1.56,0.279
			c-0.25,0.04-0.51,0.091-0.771,0.141c0.13,0.77,0.271,1.55,0.41,2.33c-4.42,0.779-8.84,1.56-13.25,2.34
			c-1.17,0.2-2.34,0.41-3.51,0.62C51.33,63.1,50.29,63.28,49.25,63.47z"/>
		<path fill="#858D99" d="M23.29,34.7c0.39-0.069,0.78-0.14,1.17-0.21c0.04,0.261,0.09,0.521,0.14,0.78
			c0.06,0.39,0.13,0.78,0.2,1.17c-0.26,0.05-0.52,0.09-0.78,0.141c-0.39,0.069-0.78,0.14-1.17,0.199c-0.09-0.52-0.18-1.04-0.27-1.56
			c-0.03-0.12-0.05-0.26-0.07-0.39C22.77,34.791,23.03,34.74,23.29,34.7z"/>
		<path fill="#858D99" d="M19.53,56.66c-0.07-0.39-0.14-0.79-0.21-1.17c0.78-0.14,1.56-0.279,2.34-0.409
			c0.04,0.25,0.09,0.51,0.13,0.77c0.07,0.39,0.14,0.78,0.21,1.17c-0.78,0.14-1.56,0.28-2.34,0.41
			C19.62,57.18,19.57,56.92,19.53,56.66z"/>
		<path fill="#FFFFFF" d="M18.66,13.01c0.14,0.78,0.28,1.56,0.41,2.34c-0.78,0.14-1.56,0.28-2.34,0.41
			c-0.13-0.78-0.27-1.56-0.41-2.34C17.1,13.29,17.88,13.15,18.66,13.01z"/>
		<path fill="#211F30" d="M18.04,9.5c0.07,0.39,0.14,0.78,0.21,1.17c-1.43,0.26-2.86,0.51-4.29,0.76c-0.05-0.26-0.09-0.52-0.14-0.78
			c-0.07-0.39-0.13-0.78-0.2-1.17c1.43-0.25,2.86-0.5,4.28-0.76C17.95,8.99,18,9.24,18.04,9.5z"/>
		<path fill="#858D99" d="M16.96,53.49c0.25,1.431,0.5,2.86,0.75,4.29c-1.55,0.271-3.11,0.551-4.67,0.82
			c-0.25-1.43-0.51-2.86-0.76-4.28C13.84,54.041,15.4,53.77,16.96,53.49z"/>
		<path fill="#FFFFFF" d="M17.7,21.22c0.04,0.26,0.09,0.52,0.13,0.78c-1.43,0.25-2.85,0.5-4.28,0.75c-0.25-1.43-0.51-2.86-0.76-4.28
			c1.17-0.21,2.34-0.41,3.51-0.62c0.26-0.05,0.52-0.09,0.78-0.14c0.07,0.39,0.14,0.78,0.2,1.17c0.05,0.26,0.1,0.52,0.14,0.78
			C17.51,20.18,17.6,20.7,17.7,21.22z"/>
		<path fill="#63677A" d="M22.85,36.78c-1.04,0.19-2.08,0.37-3.12,0.551c-1.17,0.21-2.34,0.42-3.5,0.619
			c-0.07-0.39-0.14-0.779-0.21-1.17c-0.04-0.26-0.09-0.52-0.14-0.779c1.04-0.181,2.08-0.36,3.12-0.551
			c0.52-0.09,1.04-0.18,1.56-0.27s1.04-0.19,1.56-0.28c0.13-0.02,0.26-0.04,0.39-0.069c0.02,0.13,0.04,0.27,0.07,0.39
			C22.67,35.74,22.76,36.26,22.85,36.78z"/>
		<path d="M20.56,35.18c-0.52,0.09-1.04,0.18-1.56,0.27c-1.04,0.19-2.08,0.37-3.12,0.551c-0.13-0.78-0.27-1.561-0.41-2.341
			c0.13-0.02,0.26-0.04,0.39-0.06c2.08-0.37,4.16-0.74,6.24-1.1c0.13,0.779,0.27,1.55,0.41,2.33c-0.13,0.029-0.26,0.05-0.39,0.069
			C21.6,34.99,21.08,35.09,20.56,35.18z"/>
		<path fill="#63677A" d="M15.86,33.6c-0.13,0.02-0.26,0.04-0.39,0.06c0.14,0.78,0.28,1.561,0.41,2.341
			c-0.39,0.069-0.78,0.14-1.16,0.21c-0.27,0.04-0.53,0.09-0.79,0.14c-0.27-1.56-0.55-3.12-0.82-4.68c3.51-0.62,7.01-1.24,10.52-1.86
			c0.28,1.56,0.55,3.12,0.83,4.68c-0.39,0.07-0.78,0.141-1.17,0.21c-0.26,0.04-0.52,0.091-0.78,0.131
			c-0.14-0.78-0.28-1.551-0.41-2.33C20.02,32.86,17.94,33.23,15.86,33.6z"/>
		<path fill="#858D99" d="M16.02,36.78c0.07,0.391,0.14,0.78,0.21,1.17c-0.26,0.051-0.52,0.091-0.78,0.141
			c-0.39,0.069-0.78,0.14-1.17,0.21c-0.05-0.271-0.09-0.521-0.14-0.78c-0.07-0.39-0.14-0.78-0.21-1.17c0.26-0.05,0.52-0.1,0.79-0.14
			c0.38-0.07,0.77-0.141,1.16-0.21C15.93,36.26,15.98,36.52,16.02,36.78z"/>
		<path fill="#211F30" d="M14.21,65.23c-1.43,0.25-2.86,0.5-4.29,0.75c-0.14-0.78-0.27-1.55-0.41-2.34c1.42-0.25,2.85-0.5,4.28-0.75
			C13.93,63.67,14.07,64.45,14.21,65.23z"/>
		<path fill="#AFBBC3" d="M35.78,21.24c-0.25-1.43-0.5-2.86-0.76-4.29c-0.77,0.14-1.55,0.28-2.33,0.42
			c0.04,0.26,0.09,0.52,0.14,0.78c0.2,1.17,0.41,2.34,0.61,3.51C34.22,21.52,35,21.38,35.78,21.24z M20.03,20.8
			c0.19,1.04,0.37,2.08,0.55,3.12c3.64-0.64,7.28-1.28,10.92-1.92c-0.26-1.43-0.51-2.86-0.76-4.29c-3.64,0.64-7.28,1.28-10.91,1.92
			C19.9,20.03,19.97,20.42,20.03,20.8z M23.7,16.54c0.06,0.04,0.32-0.07,0.39-0.06c0.12,0,0.28-0.05,0.39-0.07
			c0.13-0.03,0.26-0.05,0.39-0.07c0.39-0.07,0.78-0.14,1.17-0.21c0.39-0.07,0.78-0.14,1.17-0.2c0.39-0.07,0.78-0.14,1.17-0.21
			c0.39-0.07,0.78-0.14,1.17-0.21c0.13-0.02,0.26-0.04,0.39-0.07c0.13-0.02,0.26-0.04,0.39-0.06c0.26-0.05,0.52-0.1,0.78-0.14
			c0.13-0.02,0.26-0.05,0.39-0.07s0.26-0.05,0.39-0.07s0.26-0.04,0.39-0.07c0.12-0.02,0.25-0.04,0.39-0.07
			c0.12-0.02,0.25-0.04,0.38-0.07c0.13-0.02,0.27-0.04,0.39-0.06c0.13-0.03,0.27-0.05,0.39-0.07s0.29-0.03,0.39-0.07
			c0.07-0.03,0.35-0.02,0.39-0.07c0.06-0.08-0.1-0.3-0.07-0.39c-0.04-0.26-0.09-0.52-0.13-0.78c-0.03-0.13-0.05-0.26-0.07-0.39
			c-0.07-0.08,0.01-0.32-0.07-0.39c-0.03-0.03-0.34,0.06-0.39,0.07c-0.12,0.02-0.26,0.06-0.39,0.07c-0.13,0-0.26,0.04-0.39,0.07
			c-0.13,0.02-0.26,0.04-0.39,0.07c-0.13,0.02-0.26,0.05-0.39,0.06c-0.13,0.02-0.26,0.05-0.39,0.07c-0.26,0.05-0.52,0.09-0.78,0.14
			c-0.39,0.07-0.78,0.14-1.17,0.21c-0.13,0.02-0.26,0.04-0.39,0.07c-0.13,0.02-0.25,0.04-0.39,0.06c-0.26,0.05-0.51,0.1-0.78,0.14
			c-0.51,0.09-1.04,0.19-1.56,0.28c-0.38,0.07-0.77,0.13-1.16,0.2c-0.52,0.09-1.04,0.19-1.56,0.28c-0.26,0.04-0.52,0.09-0.78,0.14
			c0.04,0.25,0.09,0.52,0.13,0.77c0.05,0.26,0.1,0.52,0.14,0.78C23.7,16.22,23.63,16.49,23.7,16.54z M14.28,38.3
			c0.39-0.07,0.78-0.141,1.17-0.21c0.26-0.05,0.52-0.09,0.78-0.141c1.16-0.199,2.33-0.409,3.5-0.619
			c1.04-0.181,2.08-0.36,3.12-0.551c0.39-0.06,0.78-0.13,1.17-0.199c0.26-0.051,0.52-0.091,0.78-0.141
			c-0.07-0.39-0.14-0.78-0.2-1.17c-0.05-0.26-0.1-0.52-0.14-0.78c-0.28-1.56-0.55-3.12-0.83-4.68c-3.51,0.62-7.01,1.24-10.52,1.86
			c0.27,1.56,0.55,3.12,0.82,4.68c0.07,0.39,0.14,0.78,0.21,1.17C14.19,37.78,14.23,38.03,14.28,38.3z M16.73,15.76
			c0.78-0.13,1.56-0.27,2.34-0.41c-0.13-0.78-0.27-1.56-0.41-2.34c-0.78,0.14-1.56,0.28-2.34,0.41
			C16.46,14.2,16.6,14.98,16.73,15.76z M19.66,57.43c0.78-0.13,1.56-0.271,2.34-0.41c-0.07-0.39-0.14-0.78-0.21-1.17
			c-0.04-0.26-0.09-0.52-0.13-0.77c-0.78,0.13-1.56,0.27-2.34,0.409c0.07,0.38,0.14,0.78,0.21,1.17
			C19.57,56.92,19.62,57.18,19.66,57.43z M12.79,18.47c0.25,1.42,0.51,2.85,0.76,4.28c1.43-0.25,2.85-0.5,4.28-0.75
			c-0.04-0.26-0.09-0.52-0.13-0.78c-0.1-0.52-0.19-1.04-0.28-1.56c-0.04-0.26-0.09-0.52-0.14-0.78c-0.06-0.39-0.13-0.78-0.2-1.17
			c-0.26,0.05-0.52,0.09-0.78,0.14C15.13,18.06,13.96,18.26,12.79,18.47z M66.86,33.44c-0.07-0.39-0.141-0.78-0.2-1.17
			c-0.05-0.26-0.101-0.52-0.14-0.78c-0.78,0.141-1.561,0.28-2.341,0.41c0.07,0.4,0.141,0.78,0.21,1.17
			c0.04,0.261,0.091,0.521,0.131,0.78C65.3,33.72,66.08,33.581,66.86,33.44z M59.89,32.66c-0.13-0.779-0.27-1.56-0.409-2.34
			c-0.261,0.05-0.521,0.101-0.78,0.141c-0.391,0.069-0.78,0.14-1.17,0.21c0.14,0.779,0.279,1.56,0.41,2.34
			c0.39-0.07,0.779-0.141,1.17-0.21C59.37,32.75,59.63,32.71,59.89,32.66z M49.05,7.65c-0.779,0.14-1.55,0.28-2.33,0.41
			c0.13,0.78,0.271,1.56,0.41,2.34c0.78-0.13,1.561-0.27,2.34-0.41C49.33,9.21,49.19,8.43,49.05,7.65z M37.22,43.09
			c-0.39,0.069-0.78,0.14-1.17,0.21c-5.32,0.93-10.65,1.87-15.97,2.81c0.13,0.78,0.27,1.561,0.41,2.34
			c0.26-0.05,0.52-0.09,0.78-0.14c5.06-0.89,10.13-1.79,15.2-2.68c0.39-0.07,0.77-0.141,1.17-0.21c-0.1-0.511-0.19-1.03-0.28-1.551
			C37.31,43.61,37.27,43.35,37.22,43.09z M40,33.76c-0.07-0.391-0.14-0.78-0.21-1.17c-0.04-0.26-0.09-0.521-0.14-0.78
			c-0.27-1.56-0.55-3.12-0.82-4.68c-3.64,0.65-7.28,1.29-10.91,1.93c0.27,1.56,0.55,3.12,0.82,4.67c0.07,0.39,0.14,0.79,0.21,1.17
			c0.05,0.26,0.09,0.521,0.14,0.78c0.78-0.13,1.55-0.271,2.33-0.41c1.17-0.2,2.34-0.41,3.51-0.62c1.04-0.18,2.08-0.359,3.12-0.55
			c0.39-0.06,0.78-0.13,1.17-0.2C39.48,33.85,39.74,33.81,40,33.76z M42.02,6.48c-0.78,0.14-1.56,0.28-2.34,0.41
			c0.14,0.78,0.28,1.56,0.41,2.34c0.78-0.13,1.56-0.27,2.34-0.41C42.29,8.04,42.15,7.26,42.02,6.48z M43.12,40.041
			c0.38-0.07,0.77-0.141,1.16-0.21c0.39-0.061,0.779-0.131,1.17-0.2c0.07,0.39,0.14,0.779,0.21,1.17c0.05,0.26,0.09,0.52,0.14,0.78
			c0.78-0.141,1.55-0.28,2.33-0.41c-0.07-0.4-0.13-0.79-0.2-1.17c-0.05-0.261-0.1-0.521-0.14-0.78c-0.78,0.13-1.56,0.27-2.34,0.41
			c-0.04-0.261-0.09-0.521-0.13-0.78c-0.07-0.39-0.141-0.78-0.21-1.17c-0.07-0.07,0.01-0.34-0.07-0.39
			c-0.04-0.03-0.33,0.06-0.39,0.069c-0.13,0.01-0.261,0.061-0.391,0.07c-0.13,0-0.26,0.04-0.39,0.07c-0.13,0.02-0.26,0.04-0.39,0.06
			c-0.13,0.03-0.26,0.06-0.39,0.07c-0.13,0.02-0.26,0.05-0.39,0.069c-0.13,0.021-0.26,0.051-0.39,0.07
			c-0.13,0.021-0.26,0.05-0.39,0.07c-0.26,0.04-0.52,0.09-0.78,0.14c-0.13,0.021-0.26,0.04-0.39,0.07
			c-0.13,0.02-0.26,0.04-0.39,0.06c-0.13,0.03-0.26,0.05-0.39,0.07c-0.13,0.03-0.25,0.05-0.39,0.07c-0.38,0.069-0.78,0.14-1.17,0.21
			c-0.64,0.109-1.29,0.229-1.94,0.34c-0.39,0.069-0.78,0.14-1.17,0.21c-0.39,0.07-0.78,0.13-1.17,0.2
			c-0.65,0.12-1.3,0.229-1.95,0.35c-0.39,0.07-0.78,0.13-1.17,0.2c-0.39,0.07-0.78,0.14-1.17,0.21c-0.65,0.11-1.3,0.229-1.95,0.34
			c-0.39,0.07-0.78,0.14-1.16,0.21c-0.4,0.07-0.79,0.14-1.17,0.2c-0.65,0.12-1.3,0.229-1.95,0.35c-0.39,0.07-0.78,0.141-1.17,0.2
			c-0.39,0.07-0.78,0.14-1.17,0.21c-0.65,0.12-1.3,0.23-1.95,0.34c-0.39,0.07-0.78,0.141-1.17,0.21c-0.39,0.07-0.78,0.141-1.17,0.21
			c-0.65,0.11-1.3,0.23-1.95,0.341c-0.38,0.069-0.78,0.14-1.16,0.21c-0.39,0.06-0.78,0.13-1.17,0.199
			c-0.65,0.12-1.3,0.23-1.95,0.351c-0.07,0.06-0.34-0.01-0.39,0.06c-0.03,0.05,0.06,0.34,0.07,0.391c0.01,0.14,0.05,0.26,0.07,0.399
			c0.01,0.13,0.04,0.25,0.06,0.38c0.03,0.13,0.04,0.261,0.07,0.391c0.03,0.14,0.05,0.26,0.07,0.39s0.05,0.26,0.07,0.39
			c-0.39,0.07-0.78,0.141-1.17,0.21c-0.26,0.04-0.52,0.091-0.78,0.141c0.07,0.39,0.14,0.779,0.21,1.17
			c0.04,0.26,0.09,0.52,0.13,0.78c0.4-0.07,0.78-0.141,1.17-0.21c0.26-0.051,0.52-0.091,0.78-0.141c-0.07-0.39-0.13-0.78-0.2-1.17
			c-0.05-0.26-0.09-0.52-0.14-0.78c0.78-0.14,1.56-0.27,2.34-0.409c0.39-0.07,0.78-0.141,1.17-0.211c0.26-0.039,0.52-0.09,0.78-0.13
			c0.78-0.14,1.56-0.279,2.34-0.42c0.38-0.06,0.77-0.13,1.16-0.2c0.26-0.05,0.52-0.09,0.78-0.14c0.78-0.14,1.56-0.27,2.34-0.41
			c0.39-0.069,0.78-0.14,1.17-0.21c0.26-0.04,0.52-0.09,0.78-0.13c0.78-0.14,1.56-0.28,2.34-0.42c0.39-0.07,0.78-0.13,1.17-0.2
			c0.26-0.05,0.52-0.09,0.78-0.14c0.78-0.14,1.55-0.28,2.33-0.41c0.39-0.07,0.78-0.14,1.17-0.21c0.26-0.04,0.52-0.09,0.78-0.14
			c0.78-0.13,1.56-0.271,2.34-0.41c0.39-0.07,0.78-0.141,1.17-0.2c0.26-0.05,0.52-0.1,0.78-0.14c0.78-0.141,1.56-0.28,2.34-0.41
			c0.39-0.07,0.78-0.141,1.17-0.21c0.26-0.05,0.52-0.09,0.78-0.141C41.55,40.31,42.33,40.18,43.12,40.041z M7.24,57.62
			c-0.26,0.04-0.52,0.091-0.78,0.131c-0.14-0.78-0.28-1.551-0.41-2.33c-0.78,0.13-1.56,0.27-2.34,0.41
			c-0.5-2.86-1.01-5.721-1.51-8.58c0.78-0.131,1.55-0.271,2.34-0.41C4.4,46.06,4.26,45.28,4.12,44.5c-0.07-0.381-0.13-0.78-0.2-1.16
			c-0.05-0.271-0.09-0.521-0.14-0.78C3.64,41.78,3.5,41,3.37,40.22c-0.07-0.39-0.14-0.78-0.21-1.17c-0.04-0.26-0.09-0.521-0.14-0.78
			c0.39-0.07,0.78-0.14,1.17-0.21c0.26-0.04,0.52-0.09,0.78-0.13c-0.2-1.17-0.41-2.34-0.62-3.51c-0.18-1.04-0.36-2.08-0.55-3.12
			c0.78-0.141,1.56-0.271,2.34-0.41c0.52-0.09,1.04-0.19,1.56-0.28c0.13-0.02,0.26-0.04,0.39-0.069
			c-0.14-0.771-0.27-1.55-0.41-2.331c-0.07-0.39-0.14-0.78-0.21-1.17c-0.04-0.26-0.09-0.52-0.14-0.78c0.79-0.14,1.56-0.28,2.34-0.41
			c-0.14-0.78-0.27-1.56-0.41-2.34c-0.11-0.65-0.23-1.3-0.34-1.95c0.78-0.14,1.56-0.28,2.33-0.41c-0.13-0.78-0.27-1.56-0.41-2.34
			c-0.07-0.39-0.13-0.78-0.2-1.17c-0.05-0.26-0.1-0.52-0.14-0.78c0.39-0.07,0.78-0.14,1.17-0.2c0.26-0.05,0.52-0.1,0.78-0.14
			c-0.14-0.78-0.28-1.56-0.41-2.34c0.77-0.14,1.55-0.27,2.33-0.41c-0.14-0.78-0.27-1.56-0.41-2.34c1.43-0.25,2.86-0.5,4.29-0.76
			c-0.07-0.39-0.14-0.78-0.21-1.17C18,9.24,17.95,8.99,17.9,8.72c2.08-0.36,4.16-0.73,6.24-1.1C24,6.85,23.86,6.07,23.73,5.29
			c5.84-1.03,11.69-2.06,17.53-3.09c0.14,0.78,0.28,1.55,0.41,2.33c2.21-0.39,4.42-0.78,6.63-1.17c0.09,0.52,0.181,1.04,0.271,1.57
			c0.029,0.12,0.05,0.26,0.069,0.38c0.391-0.06,0.78-0.13,1.17-0.2c0.261-0.05,0.521-0.09,0.78-0.14C50.73,5.75,50.87,6.53,51,7.31
			c0.78-0.14,1.56-0.28,2.34-0.41c0.141,0.78,0.28,1.55,0.41,2.34c0.39-0.07,0.78-0.14,1.17-0.21c0.26-0.05,0.521-0.09,0.78-0.14
			c0.189,1.04,0.37,2.08,0.55,3.12c0.07,0.39,0.14,0.78,0.21,1.17c0.78-0.14,1.561-0.28,2.34-0.42c0.07,0.39,0.13,0.78,0.2,1.17
			s0.14,0.78,0.21,1.17c0.04,0.26,0.09,0.52,0.14,0.78c0.061,0.39,0.131,0.78,0.2,1.17c0.391-0.07,0.78-0.14,1.17-0.2
			c0.261-0.05,0.521-0.1,0.78-0.14c0.07,0.39,0.14,0.78,0.21,1.17c0.04,0.26,0.09,0.52,0.13,0.78c0.07,0.39,0.141,0.78,0.21,1.17
			c0.07,0.39,0.141,0.77,0.21,1.16c0.771-0.13,1.561-0.27,2.33-0.41c0.391,2.21,0.78,4.42,1.17,6.63c0.391-0.07,0.78-0.14,1.17-0.21
			c0.261-0.05,0.521-0.09,0.78-0.14c0.25,1.43,0.5,2.86,0.76,4.29c0.2,1.17,0.41,2.34,0.61,3.51c0.05,0.261,0.1,0.521,0.14,0.78
			c-0.39,0.061-0.779,0.13-1.17,0.2c-0.26,0.05-0.52,0.09-0.779,0.14c0.369,2.08,0.739,4.16,1.1,6.24
			c-0.78,0.13-1.561,0.271-2.33,0.41c-0.19-1.04-0.37-2.08-0.55-3.12c-0.07-0.39-0.141-0.78-0.21-1.17
			c-0.391,0.07-0.78,0.14-1.17,0.21c-0.261,0.04-0.521,0.09-0.78,0.14c-0.07-0.399-0.14-0.79-0.2-1.17
			c-0.05-0.26-0.1-0.52-0.14-0.779c-1.04,0.18-2.08,0.359-3.12,0.55c-0.39,0.06-0.78,0.13-1.17,0.2c0.07,0.39,0.14,0.779,0.21,1.17
			c0.04,0.26,0.09,0.52,0.13,0.779c-0.38,0.07-0.77,0.141-1.17,0.21c-0.38,0.07-0.771,0.141-1.16,0.2c0.07,0.391,0.14,0.78,0.2,1.17
			c0.07,0.391,0.14,0.78,0.21,1.17c0.05,0.261,0.09,0.521,0.14,0.78c0.07,0.39,0.141,0.78,0.2,1.17c0.39-0.07,0.78-0.14,1.17-0.21
			c0.391-0.07,0.78-0.13,1.17-0.2c0.141,0.78,0.271,1.551,0.41,2.33c0.39-0.06,0.78-0.13,1.17-0.2c0.391-0.069,0.78-0.14,1.17-0.21
			c0.26-0.04,0.521-0.09,0.78-0.14c0.39-0.06,0.78-0.13,1.17-0.2c-0.07-0.39-0.14-0.779-0.21-1.17c-0.02-0.13-0.04-0.26-0.07-0.39
			c-0.01-0.11-0.069-0.271-0.06-0.391c0-0.069-0.11-0.329-0.07-0.39c0.05-0.08,0.32,0,0.391-0.07c0.52-0.09,1.04-0.18,1.56-0.27
			c0.27,1.55,0.55,3.12,0.82,4.67c-0.521,0.1-1.04,0.19-1.561,0.28c-0.13,0.02-0.26,0.05-0.39,0.069c0.07,0.391,0.14,0.78,0.21,1.17
			c0.04,0.261,0.09,0.521,0.14,0.78c-0.39,0.07-0.79,0.13-1.17,0.2c-0.39,0.07-0.78,0.14-1.17,0.21c-0.26,0.04-0.52,0.09-0.78,0.14
			c-0.39,0.07-0.779,0.131-1.17,0.2c0.13,0.78,0.271,1.561,0.41,2.34c-2.99,0.53-5.979,1.051-8.96,1.58
			c0.07,0.391,0.14,0.78,0.2,1.17c0.05,0.261,0.1,0.521,0.14,0.78c-10,1.76-20,3.53-30.01,5.29c-0.06-0.39-0.13-0.78-0.2-1.17
			c-0.05-0.26-0.09-0.521-0.14-0.78c-2.99,0.53-5.97,1.05-8.96,1.58c-0.14-0.78-0.28-1.56-0.41-2.34c1.56-0.27,3.12-0.55,4.67-0.82
			c-0.25-1.43-0.5-2.859-0.75-4.29c-1.56,0.28-3.12,0.551-4.68,0.83c0.25,1.42,0.51,2.851,0.76,4.28c-1.43,0.26-2.86,0.51-4.29,0.76
			c-0.09-0.52-0.18-1.04-0.27-1.56c-0.03-0.13-0.05-0.26-0.07-0.391C8.02,57.48,7.63,57.55,7.24,57.62z"/>
		<path fill="#211F30" d="M11.62,11.84c0.78-0.14,1.56-0.27,2.34-0.41c0.14,0.78,0.27,1.56,0.41,2.34
			c-0.78,0.14-1.56,0.27-2.33,0.41C11.9,13.4,11.76,12.62,11.62,11.84z"/>
		<path fill="#FFFFFF" d="M8.5,19.22c0.79-0.13,1.56-0.27,2.34-0.41c0.14,0.78,0.28,1.56,0.41,2.34c-0.77,0.13-1.55,0.27-2.33,0.41
			C8.78,20.78,8.64,20,8.5,19.22z"/>
		<path fill="#63677A" d="M43.09,37.63c0.13-0.011,0.26-0.04,0.39-0.07c0.13-0.02,0.26-0.04,0.39-0.06
			c0.13-0.03,0.26-0.07,0.39-0.07c0.13-0.01,0.261-0.061,0.391-0.07c0.06-0.01,0.35-0.1,0.39-0.069c0.08,0.05,0,0.319,0.07,0.39
			c0.069,0.39,0.14,0.78,0.21,1.17c0.04,0.26,0.09,0.52,0.13,0.78c-0.391,0.069-0.78,0.14-1.17,0.2
			c-0.391,0.069-0.78,0.14-1.16,0.21c-0.79,0.14-1.57,0.27-2.34,0.409C40.52,40.5,40.26,40.541,40,40.59
			c-0.39,0.069-0.78,0.14-1.17,0.21c-0.78,0.13-1.56,0.27-2.34,0.41c-0.26,0.04-0.52,0.09-0.78,0.14c-0.39,0.06-0.78,0.13-1.17,0.2
			c-0.78,0.14-1.56,0.28-2.34,0.41c-0.26,0.05-0.52,0.1-0.78,0.14c-0.39,0.07-0.78,0.14-1.17,0.21c-0.78,0.13-1.55,0.271-2.33,0.41
			c-0.26,0.05-0.52,0.09-0.78,0.14c-0.39,0.07-0.78,0.13-1.17,0.2c-0.78,0.14-1.56,0.28-2.34,0.42c-0.26,0.04-0.52,0.09-0.78,0.13
			c-0.39,0.07-0.78,0.141-1.17,0.21c-0.78,0.141-1.56,0.271-2.34,0.41c-0.26,0.05-0.52,0.09-0.78,0.14
			c-0.39,0.07-0.78,0.141-1.16,0.2c-0.78,0.141-1.56,0.28-2.34,0.42c-0.26,0.04-0.52,0.091-0.78,0.13
			c-0.39,0.07-0.78,0.141-1.17,0.211c-0.78,0.14-1.56,0.27-2.34,0.409c-0.02-0.13-0.05-0.26-0.07-0.39s-0.04-0.25-0.07-0.39
			c-0.03-0.13-0.04-0.261-0.07-0.391c-0.02-0.13-0.05-0.25-0.06-0.38c-0.02-0.14-0.06-0.26-0.07-0.399
			c-0.01-0.051-0.1-0.341-0.07-0.391c0.05-0.069,0.32,0,0.39-0.06c0.65-0.12,1.3-0.23,1.95-0.351c0.39-0.069,0.78-0.14,1.17-0.199
			c0.38-0.07,0.78-0.141,1.16-0.21c0.65-0.11,1.3-0.23,1.95-0.341c0.39-0.069,0.78-0.14,1.17-0.21c0.39-0.069,0.78-0.14,1.17-0.21
			c0.65-0.109,1.3-0.22,1.95-0.34c0.39-0.07,0.78-0.14,1.17-0.21c0.39-0.06,0.78-0.13,1.17-0.2c0.65-0.12,1.3-0.229,1.95-0.35
			c0.38-0.061,0.77-0.13,1.17-0.2c0.38-0.07,0.77-0.14,1.16-0.21c0.65-0.11,1.3-0.229,1.95-0.34c0.39-0.07,0.78-0.14,1.17-0.21
			c0.39-0.07,0.78-0.13,1.17-0.2c0.65-0.12,1.3-0.229,1.95-0.35c0.39-0.07,0.78-0.13,1.17-0.2c0.39-0.07,0.78-0.141,1.17-0.21
			c0.65-0.11,1.3-0.23,1.94-0.34c0.39-0.07,0.79-0.141,1.17-0.21c0.14-0.021,0.26-0.04,0.39-0.07c0.13-0.021,0.26-0.04,0.39-0.07
			c0.13-0.02,0.26-0.04,0.39-0.06c0.13-0.03,0.26-0.05,0.39-0.07c0.26-0.05,0.52-0.1,0.78-0.14c0.13-0.021,0.26-0.05,0.39-0.07
			c0.13-0.02,0.26-0.05,0.39-0.07C42.83,37.68,42.96,37.65,43.09,37.63z"/>
		<path fill="#211F30" d="M12.04,14.18c0.13,0.78,0.27,1.56,0.41,2.34c-0.26,0.04-0.52,0.09-0.78,0.14
			c-0.39,0.06-0.78,0.13-1.17,0.2c-0.14-0.78-0.28-1.56-0.41-2.34c0.26-0.04,0.52-0.09,0.78-0.13
			C11.26,14.32,11.65,14.25,12.04,14.18z"/>
		<path fill="#858D99" d="M10.91,46.52c0.07,0.39,0.13,0.78,0.2,1.17c-0.26,0.05-0.52,0.09-0.78,0.141
			c-0.39,0.069-0.77,0.14-1.17,0.21c-0.04-0.261-0.09-0.521-0.13-0.78c-0.07-0.391-0.14-0.78-0.21-1.17
			c0.26-0.05,0.52-0.101,0.78-0.141c0.39-0.069,0.78-0.14,1.17-0.21C10.82,46,10.86,46.26,10.91,46.52z"/>
		<path fill="#211F30" d="M10.84,18.81c-0.78,0.14-1.55,0.28-2.34,0.41c-0.04-0.26-0.09-0.52-0.13-0.78
			c-0.07-0.39-0.14-0.78-0.21-1.17c0.78-0.13,1.56-0.27,2.34-0.41c0.04,0.26,0.09,0.52,0.14,0.78
			C10.71,18.03,10.77,18.42,10.84,18.81z"/>
		<path fill="#FFFFFF" d="M9.67,25.85c-0.78,0.13-1.55,0.27-2.34,0.41c-0.25-1.43-0.5-2.86-0.75-4.29c0.78-0.14,1.56-0.27,2.34-0.41
			c0.11,0.65,0.23,1.3,0.34,1.95C9.4,24.29,9.53,25.07,9.67,25.85z"/>
		<path fill="#858D99" d="M8.48,57.8c0.09,0.52,0.18,1.04,0.27,1.56c1.43-0.25,2.86-0.5,4.29-0.76c0.13,0.78,0.27,1.56,0.41,2.34
			c2.99-0.53,5.97-1.05,8.96-1.58c0.05,0.26,0.09,0.521,0.14,0.78c0.07,0.39,0.14,0.78,0.2,1.17c10.01-1.76,20.01-3.53,30.01-5.29
			c-0.04-0.26-0.09-0.52-0.14-0.78c-0.061-0.39-0.13-0.779-0.2-1.17c2.98-0.529,5.97-1.05,8.96-1.58
			c-0.14-0.779-0.28-1.56-0.41-2.34c0.391-0.069,0.78-0.13,1.17-0.2c0.261-0.05,0.521-0.1,0.78-0.14c0.39-0.07,0.78-0.14,1.17-0.21
			c0.38-0.07,0.78-0.13,1.17-0.2c-0.05-0.26-0.1-0.52-0.14-0.78c-0.07-0.39-0.14-0.779-0.21-1.17c0.13-0.02,0.26-0.05,0.39-0.069
			c0.521-0.09,1.04-0.181,1.561-0.28c-0.271-1.55-0.551-3.12-0.82-4.67c0.77-0.14,1.55-0.28,2.33-0.41
			c-0.36-2.08-0.73-4.16-1.1-6.24c0.26-0.05,0.52-0.09,0.779-0.14c0.391-0.07,0.78-0.14,1.17-0.2c-0.04-0.26-0.09-0.52-0.14-0.78
			c-0.2-1.17-0.41-2.34-0.61-3.51c-0.26-1.43-0.51-2.86-0.76-4.29c-0.26,0.05-0.52,0.09-0.78,0.14c-0.39,0.07-0.779,0.14-1.17,0.21
			c-0.39-2.21-0.779-4.42-1.17-6.63c-0.77,0.14-1.56,0.28-2.33,0.41c-0.069-0.39-0.14-0.77-0.21-1.16
			c-0.069-0.39-0.14-0.78-0.21-1.17c-0.04-0.26-0.09-0.52-0.13-0.78c-0.07-0.39-0.14-0.78-0.21-1.17c-0.26,0.04-0.52,0.09-0.78,0.14
			c-0.39,0.06-0.779,0.13-1.17,0.2c-0.069-0.39-0.14-0.78-0.2-1.17c-0.05-0.26-0.1-0.52-0.14-0.78c-0.07-0.39-0.14-0.78-0.21-1.17
			s-0.13-0.78-0.2-1.17c-0.779,0.14-1.56,0.28-2.34,0.42c-0.07-0.39-0.14-0.78-0.21-1.17c-0.18-1.04-0.36-2.08-0.55-3.12
			c0.78-0.14,1.56-0.27,2.34-0.41c0.07,0.39,0.14,0.78,0.21,1.17c0.04,0.26,0.09,0.52,0.13,0.78c0.391-0.07,0.78-0.14,1.17-0.21
			c0.26-0.04,0.521-0.09,0.78-0.14c0.14,0.78,0.28,1.56,0.42,2.34c0.771-0.14,1.55-0.28,2.33-0.41c0.25,1.43,0.51,2.86,0.76,4.29
			c0.391-0.07,0.78-0.14,1.17-0.21c0.261-0.05,0.521-0.09,0.78-0.14c0.25,1.43,0.5,2.86,0.75,4.29c0.78-0.14,1.56-0.28,2.34-0.41
			c0.391,2.21,0.78,4.41,1.17,6.62c0.78-0.14,1.561-0.27,2.34-0.41c0.25,1.43,0.5,2.86,0.75,4.28c0.07,0.4,0.141,0.78,0.21,1.17
			c0.04,0.261,0.091,0.521,0.141,0.78c0.06,0.39,0.13,0.78,0.2,1.17c0.069,0.391,0.14,0.78,0.21,1.17
			c0.39-0.069,0.779-0.14,1.17-0.21c0.26-0.04,0.52-0.09,0.779-0.13c0.641,3.63,1.28,7.271,1.921,10.91
			c-0.391,0.07-0.78,0.14-1.171,0.21c-0.26,0.04-0.52,0.09-0.779,0.13c0.14,0.78,0.279,1.561,0.42,2.34
			c0.06,0.391,0.13,0.78,0.2,1.17c0.05,0.261,0.09,0.521,0.14,0.78c-0.78,0.14-1.56,0.271-2.34,0.41c0.069,0.39,0.14,0.78,0.21,1.17
			c0.04,0.26,0.09,0.52,0.13,0.78c-1.42,0.25-2.86,0.5-4.28,0.76c0.13,0.78,0.271,1.55,0.41,2.33c-2.86,0.51-5.72,1.01-8.58,1.52
			c0.07,0.391,0.141,0.78,0.21,1.17c0.05,0.261,0.09,0.521,0.141,0.78c-12.99,2.29-25.98,4.58-38.97,6.87
			c-0.07-0.39-0.14-0.78-0.21-1.17c-0.04-0.26-0.09-0.521-0.13-0.78c-2.99,0.521-5.98,1.05-8.96,1.58
			c-0.14-0.78-0.28-1.56-0.42-2.34c-1.43,0.25-2.86,0.5-4.28,0.75c-0.07-0.38-0.14-0.78-0.21-1.16c-0.04-0.26-0.09-0.52-0.14-0.78
			C8.77,61.77,8.38,61.831,8,61.9c-0.26,0.05-0.53,0.09-0.79,0.141c-0.25-1.431-0.5-2.86-0.75-4.29c0.26-0.04,0.52-0.091,0.78-0.131
			c0.39-0.069,0.78-0.14,1.17-0.21C8.43,57.541,8.45,57.67,8.48,57.8z"/>
		<path fill="#211F30" d="M9.51,63.64c-0.26,0.05-0.52,0.1-0.78,0.14c-0.39,0.07-0.78,0.141-1.17,0.21
			c-0.02-0.13-0.05-0.26-0.07-0.39c-0.09-0.52-0.18-1.04-0.28-1.56C7.47,61.99,7.74,61.95,8,61.9c0.38-0.069,0.77-0.13,1.16-0.2
			c0.05,0.261,0.1,0.521,0.14,0.78C9.37,62.86,9.44,63.26,9.51,63.64z"/>
		<path fill="#211F30" d="M8.5,19.22c0.14,0.78,0.28,1.56,0.42,2.34c-0.78,0.14-1.56,0.27-2.34,0.41c-0.14-0.78-0.28-1.56-0.41-2.33
			C6.95,19.5,7.72,19.36,8.5,19.22z"/>
		<path fill="#FFFFFF" d="M8.09,30.541C7.96,30.57,7.83,30.59,7.7,30.61c-0.52,0.09-1.04,0.19-1.56,0.28
			c-0.25-1.43-0.5-2.86-0.75-4.29c0.39-0.07,0.78-0.13,1.16-0.2c0.26-0.05,0.52-0.09,0.78-0.14c0.05,0.26,0.1,0.52,0.14,0.78
			c0.07,0.39,0.14,0.78,0.21,1.17C7.82,28.99,7.95,29.77,8.09,30.541z"/>
		<path fill="#211F30" d="M6.58,21.97c0.25,1.43,0.5,2.86,0.75,4.29c-0.26,0.05-0.52,0.09-0.78,0.14c-0.38,0.07-0.77,0.13-1.16,0.2
			c-0.26-1.43-0.51-2.86-0.76-4.29c0.26-0.04,0.52-0.09,0.78-0.13C5.8,22.11,6.19,22.04,6.58,21.97z"/>
		<path fill="#211F30" d="M6.46,57.75c0.25,1.43,0.5,2.859,0.75,4.29c-0.78,0.14-1.55,0.27-2.33,0.409
			c-0.07-0.39-0.14-0.779-0.21-1.17c-0.07-0.39-0.14-0.77-0.21-1.16c-0.04-0.26-0.09-0.52-0.13-0.779
			c-0.07-0.391-0.14-0.79-0.21-1.17C4.9,58.03,5.68,57.89,6.46,57.75z"/>
		<path fill="#858D99" d="M6.46,57.75c-0.78,0.14-1.56,0.279-2.34,0.42c-0.14-0.78-0.27-1.561-0.41-2.34
			c0.78-0.141,1.56-0.28,2.34-0.41C6.18,56.2,6.32,56.97,6.46,57.75z"/>
		<path fill="#211F30" d="M5.39,26.6c0.25,1.43,0.5,2.86,0.75,4.29c-0.78,0.14-1.56,0.27-2.34,0.41c-0.25-1.43-0.5-2.86-0.75-4.28
			C3.83,26.88,4.61,26.74,5.39,26.6z"/>
		<path fill="#211F30" d="M4.35,34.42c0.21,1.17,0.42,2.34,0.62,3.51c-0.26,0.04-0.52,0.09-0.78,0.13
			c-0.39,0.07-0.78,0.14-1.17,0.21c-0.39-2.21-0.77-4.42-1.16-6.63c0.25-0.04,0.52-0.09,0.78-0.13c0.38-0.07,0.77-0.141,1.16-0.21
			C3.99,32.34,4.17,33.38,4.35,34.42z"/>
		<path fill="#211F30" d="M4.12,44.5c0.14,0.779,0.28,1.56,0.42,2.34c-0.79,0.14-1.56,0.279-2.34,0.41
			C2.15,46.99,2.11,46.74,2.06,46.48c-0.07-0.399-0.14-0.78-0.21-1.17c-0.13-0.78-0.27-1.56-0.41-2.34
			c-0.25-1.43-0.5-2.86-0.75-4.29c0.77-0.14,1.55-0.271,2.33-0.41c0.05,0.26,0.1,0.521,0.14,0.78c0.07,0.39,0.14,0.78,0.21,1.17
			C3.5,41,3.64,41.78,3.78,42.56c0.05,0.26,0.09,0.51,0.14,0.78C3.99,43.72,4.05,44.12,4.12,44.5z"/>
		<path fill="#211F30" d="M3.71,55.831c0.14,0.779,0.27,1.56,0.41,2.34c-0.26,0.04-0.52,0.09-0.78,0.13
			c-0.39,0.069-0.78,0.14-1.17,0.21C1.53,54.87,0.89,51.23,0.25,47.6c0.26-0.05,0.52-0.09,0.78-0.14c0.39-0.07,0.78-0.141,1.17-0.21
			C2.7,50.11,3.21,52.97,3.71,55.831z"/>
	</g>
	<g>
	</g>
</g>
</svg>
