<?xml version="1.0" encoding="utf-8"?>
<!-- Generator: Adobe Illustrator 15.0.0, SVG Export Plug-In  -->
<!DOCTYPE svg PUBLIC "-//W3C//DTD SVG 1.1//EN" "http://www.w3.org/Graphics/SVG/1.1/DTD/svg11.dtd" [
	<!ENTITY ns_flows "http://ns.adobe.com/Flows/1.0/">
]>
<svg version="1.1"
	 xmlns="http://www.w3.org/2000/svg" xmlns:xlink="http://www.w3.org/1999/xlink" xmlns:a="http://ns.adobe.com/AdobeSVGViewerExtensions/3.0/"
	 x="0px" y="0px" width="95px" height="80px" viewBox="-6.09 -13.22 95 80" enable-background="new -6.09 -13.22 95 80"
	 xml:space="preserve">
<defs>
</defs>
<g id="XMLID_2_">
	<g>
		<path fill="#211F30" d="M80.05,48.01c-0.779,0.069-1.569,0.14-2.359,0.21c-0.32-3.681-0.65-7.36-0.971-11.04
			c0.4-0.03,0.79-0.07,1.181-0.101c0.399-0.04,0.79-0.069,1.189-0.1C79.41,40.65,79.73,44.339,80.05,48.01z"/>
		<path fill="#211F30" d="M77.69,48.22c0.13,1.449,0.25,2.89,0.38,4.34c-0.26,0.02-0.53,0.04-0.79,0.069
			c-0.39,0.03-0.79,0.061-1.18,0.101c-0.03-0.26-0.051-0.53-0.07-0.79c-0.04-0.391-0.07-0.79-0.11-1.18
			c-0.06-0.79-0.13-1.58-0.2-2.37c0.261-0.021,0.521-0.04,0.79-0.07C76.9,48.29,77.29,48.26,77.69,48.22z"/>
		<path fill="#211F30" d="M76.521,34.82c0.069,0.79,0.13,1.57,0.199,2.36c-0.26,0.029-0.52,0.05-0.779,0.069
			c-0.4,0.04-0.79,0.07-1.19,0.11c-0.03-0.4-0.07-0.79-0.1-1.19c-0.04-0.39-0.07-0.79-0.101-1.18c-0.029-0.26-0.05-0.53-0.069-0.79
			c-0.04-0.39-0.07-0.79-0.11-1.18c-0.12-1.45-0.25-2.891-0.38-4.34c0.27-0.021,0.53-0.04,0.79-0.07c0.399-0.03,0.79-0.07,1.18-0.1
			c0.04,0.399,0.07,0.789,0.11,1.18c0.03,0.399,0.07,0.79,0.1,1.189c0.021,0.261,0.05,0.521,0.07,0.78c0.04,0.4,0.07,0.79,0.1,1.19
			c0.03,0.26,0.051,0.52,0.07,0.79C76.45,34.03,76.48,34.419,76.521,34.82z"/>
		<path fill="#211F30" d="M73.91,54.91c0.06,0.79,0.13,1.57,0.2,2.36c-1.44,0.13-2.891,0.26-4.34,0.38
			c-0.061-0.79-0.13-1.57-0.2-2.36C71.01,55.16,72.46,55.03,73.91,54.91z"/>
		<path fill="#211F30" d="M76.17,53.52c0.03,0.39,0.07,0.79,0.101,1.18c-0.79,0.07-1.57,0.14-2.36,0.21
			c-0.03-0.27-0.05-0.53-0.07-0.79c-0.04-0.399-0.069-0.79-0.109-1.18c0.79-0.07,1.58-0.141,2.37-0.21
			C76.12,52.99,76.141,53.25,76.17,53.52z"/>
		<path fill="#211F30" d="M73.58,23.95c0.05,0.53,0.09,1.05,0.14,1.58c0.091,1.05,0.181,2.1,0.271,3.15
			c-0.78,0.069-1.57,0.14-2.36,0.21c-0.2-2.23-0.39-4.47-0.59-6.7c0.79-0.07,1.58-0.14,2.37-0.21c0.03,0.4,0.07,0.79,0.1,1.18
			C73.53,23.43,73.561,23.69,73.58,23.95z"/>
		<path fill="#211F30" d="M70.94,21.01c0.029,0.39,0.069,0.78,0.1,1.18c-0.79,0.07-1.57,0.14-2.36,0.21
			c-0.13-1.45-0.26-2.89-0.38-4.34c0.79-0.07,1.57-0.14,2.36-0.21c0.04,0.4,0.07,0.79,0.11,1.19c0.029,0.39,0.069,0.78,0.1,1.18
			C70.891,20.48,70.92,20.75,70.94,21.01z"/>
		<path fill="#211F30" d="M68.19,16.88c0.04,0.39,0.069,0.79,0.109,1.18c-0.27,0.02-0.529,0.05-0.79,0.07
			c-0.39,0.03-0.79,0.07-1.18,0.1c-0.13-1.44-0.26-2.89-0.38-4.34c0.26-0.02,0.52-0.04,0.79-0.06c0.39-0.04,0.78-0.07,1.18-0.11
			c0.01,0.14,0.021,0.27,0.03,0.4c0.06,0.65,0.12,1.31,0.17,1.97C68.15,16.35,68.17,16.61,68.19,16.88z"/>
		<path fill="#858D99" d="M67.74,34.39c0.03,0.399,0.07,0.79,0.1,1.189c-0.779,0.07-1.569,0.13-2.359,0.2
			c-0.021-0.26-0.051-0.52-0.07-0.79c-0.03-0.39-0.07-0.78-0.1-1.18c0.779-0.07,1.569-0.141,2.359-0.2
			C67.69,33.87,67.72,34.129,67.74,34.39z"/>
		<path fill="#211F30" d="M65.74,11.53c0.07,0.79,0.14,1.58,0.21,2.36c-0.79,0.07-1.58,0.14-2.37,0.21
			c-0.07-0.79-0.13-1.57-0.2-2.36C64.16,11.67,64.95,11.6,65.74,11.53z"/>
		<path fill="#211F30" d="M63.271,10.56c0.04,0.39,0.069,0.78,0.109,1.18c-0.27,0.02-0.529,0.05-0.79,0.07
			c-0.399,0.03-0.79,0.07-1.18,0.1c-0.03-0.26-0.05-0.52-0.07-0.79c-0.04-0.39-0.069-0.79-0.109-1.18
			c0.26-0.02,0.529-0.05,0.79-0.07c0.399-0.03,0.79-0.07,1.18-0.1C63.23,10.03,63.25,10.29,63.271,10.56z"/>
		<path fill="#211F30" d="M58.66,7.78c0.79-0.07,1.58-0.14,2.37-0.21c0.06,0.79,0.13,1.58,0.2,2.37c-0.79,0.07-1.57,0.14-2.36,0.21
			C58.8,9.36,58.73,8.57,58.66,7.78z"/>
		<path fill="#858D99" d="M58.79,32c0.4-0.029,0.79-0.069,1.18-0.1c0.271-0.03,0.53-0.05,0.79-0.07c0.07,0.79,0.141,1.57,0.21,2.36
			c-0.26,0.02-0.529,0.05-0.79,0.07c-0.39,0.029-0.789,0.069-1.18,0.1C58.93,33.58,58.86,32.79,58.79,32z"/>
		<path fill="#858D99" d="M59.93,45.01c-0.39,0.029-0.789,0.069-1.18,0.1c-0.399,0.04-0.79,0.07-1.18,0.1
			c-0.04-0.39-0.07-0.79-0.11-1.18c-0.02-0.26-0.04-0.52-0.069-0.79c-0.03-0.39-0.061-0.79-0.101-1.18
			c-0.03-0.391-0.07-0.79-0.1-1.181c0.39-0.029,0.79-0.069,1.18-0.1c0.39-0.04,0.79-0.07,1.18-0.11c-0.02-0.26-0.05-0.52-0.069-0.79
			c-0.03-0.39-0.07-0.79-0.101-1.18c0.391-0.03,0.79-0.07,1.181-0.1c1.05-0.101,2.1-0.19,3.159-0.28
			c0.021,0.26,0.04,0.53,0.061,0.79c0.04,0.39,0.07,0.79,0.11,1.18c0.26-0.02,0.52-0.04,0.789-0.069
			c0.391-0.03,0.78-0.061,1.181-0.101c0.03,0.391,0.069,0.79,0.1,1.18c0.09,1.051,0.19,2.101,0.28,3.16
			c-0.53,0.04-1.05,0.09-1.58,0.13c-0.07,0.07-0.33-0.029-0.39,0.04c-0.051,0.051,0.04,0.32,0.029,0.391
			c-0.02,0.12,0.03,0.279,0.04,0.399c0.011,0.13,0.021,0.261,0.03,0.391c0.04,0.39,0.07,0.79,0.1,1.18
			c-0.39,0.04-0.79,0.07-1.18,0.11c-0.26,0.02-0.52,0.04-0.79,0.069c-0.39,0.03-0.79,0.07-1.18,0.101
			c-0.391,0.029-0.79,0.069-1.18,0.1C60.07,46.58,60,45.799,59.93,45.01z"/>
		<path fill="#858D99" d="M58.08,10.22c-0.4,0.03-0.79,0.07-1.189,0.1c-0.061-0.79-0.131-1.58-0.2-2.37
			c0.39-0.03,0.79-0.07,1.18-0.1c0.26-0.02,0.53-0.05,0.79-0.07c0.07,0.79,0.14,1.58,0.21,2.37
			C58.601,10.17,58.34,10.19,58.08,10.22z"/>
		<path fill="#211F30" d="M58.45,5.42c0.07,0.79,0.14,1.57,0.21,2.36c-0.26,0.02-0.53,0.05-0.79,0.07c-0.39,0.03-0.79,0.07-1.18,0.1
			c-0.07-0.78-0.141-1.57-0.21-2.36c0.26-0.02,0.529-0.05,0.79-0.07C57.66,5.49,58.061,5.45,58.45,5.42z"/>
		<path fill="#858D99" d="M56.48,5.59c0.069,0.79,0.14,1.58,0.21,2.36c-0.79,0.07-1.58,0.14-2.36,0.21
			c-0.07-0.79-0.14-1.57-0.21-2.36C54.91,5.73,55.69,5.66,56.48,5.59z"/>
		<path fill="#211F30" d="M56.38,4.41c0.03,0.39,0.07,0.79,0.101,1.18c-0.79,0.07-1.57,0.14-2.36,0.21
			c-0.26,0.02-0.53,0.04-0.79,0.06c-0.39,0.04-0.79,0.07-1.18,0.11c-0.021-0.13-0.03-0.27-0.04-0.4C52.07,5.05,52.021,4.52,51.97,4
			c1.45-0.13,2.891-0.26,4.341-0.38C56.33,3.88,56.351,4.14,56.38,4.41z"/>
		<path fill="#FFFFFF" d="M52.351,8.33c0.069,0.79,0.14,1.58,0.21,2.37c-0.79,0.07-1.58,0.14-2.37,0.21
			c-0.061-0.79-0.13-1.58-0.2-2.37C50.78,8.47,51.561,8.4,52.351,8.33z"/>
		<path fill="#211F30" d="M51.771,1.63C51.83,2.42,51.9,3.21,51.97,4c-2.229,0.19-4.46,0.39-6.699,0.58
			c-0.07-0.78-0.141-1.57-0.21-2.36C47.3,2.02,49.53,1.83,51.771,1.63z"/>
		<path fill="#858D99" d="M48.41,40.459c0.03,0.391,0.07,0.78,0.1,1.181c-0.779,0.069-1.569,0.14-2.359,0.21
			c-0.021-0.271-0.04-0.53-0.07-0.79c-0.03-0.4-0.07-0.79-0.1-1.19c0.79-0.07,1.569-0.13,2.359-0.2
			C48.36,39.93,48.391,40.19,48.41,40.459z"/>
		<path fill="#FFFFFF" d="M45.44,6.55c0.069,0.79,0.14,1.58,0.21,2.37c-0.79,0.07-1.57,0.14-2.36,0.21
			c-0.07-0.79-0.14-1.58-0.21-2.37C43.87,6.69,44.66,6.62,45.44,6.55z"/>
		<path fill="#858D99" d="M40.88,31.58c0.03,0.26,0.05,0.53,0.07,0.79c0.04,0.391,0.07,0.79,0.1,1.18
			c-0.26,0.03-0.52,0.051-0.78,0.07c-0.4,0.04-0.79,0.07-1.19,0.11c-0.04-0.53-0.09-1.061-0.14-1.58c-0.01-0.13-0.02-0.271-0.03-0.4
			c0.26-0.02,0.53-0.04,0.79-0.069C40.09,31.65,40.49,31.61,40.88,31.58z"/>
		<path fill="#858D99" d="M37.56,16.38c0.13,1.44,0.26,2.89,0.38,4.34c-0.78,0.06-1.57,0.13-2.36,0.2c-0.1-1.18-0.21-2.36-0.31-3.55
			c-0.02-0.26-0.05-0.52-0.07-0.79C35.99,16.52,36.78,16.45,37.56,16.38z"/>
		<path fill="#63677A" d="M35.93,34c-1.18,0.101-2.36,0.21-3.55,0.311c-0.03-0.391-0.07-0.79-0.1-1.181
			c-0.02-0.27-0.05-0.529-0.07-0.79c1.05-0.09,2.1-0.18,3.15-0.279c0.53-0.04,1.05-0.09,1.58-0.141c0.53-0.04,1.05-0.09,1.58-0.13
			c0.13-0.01,0.26-0.029,0.39-0.04c0.01,0.13,0.02,0.271,0.03,0.4c0.05,0.52,0.1,1.05,0.14,1.58C38.03,33.82,36.98,33.91,35.93,34z"
			/>
		<path fill="#858D99" d="M33.23,16.76c0.13,1.44,0.25,2.89,0.38,4.33c-3.68,0.33-7.36,0.65-11.04,0.97
			c-0.09-1.05-0.18-2.1-0.27-3.15c-0.04-0.4-0.07-0.79-0.11-1.19C25.87,17.4,29.55,17.08,33.23,16.76z"/>
		<path d="M35.36,32.06c-1.05,0.1-2.1,0.189-3.15,0.279c-0.07-0.79-0.14-1.579-0.21-2.369c0.13-0.011,0.27-0.021,0.4-0.03
			c2.1-0.18,4.2-0.37,6.3-0.55c0.07,0.79,0.14,1.569,0.21,2.359c-0.13,0.011-0.26,0.03-0.39,0.04c-0.53,0.04-1.05,0.09-1.58,0.13
			C36.41,31.97,35.89,32.02,35.36,32.06z"/>
		<path fill="#63677A" d="M29.43,27.82c3.68-0.33,7.36-0.65,11.04-0.97c0.14,1.581,0.27,3.15,0.41,4.73
			c-0.39,0.03-0.79,0.07-1.18,0.101c-0.26,0.029-0.53,0.05-0.79,0.069c-0.07-0.79-0.14-1.569-0.21-2.359
			c-2.1,0.18-4.2,0.37-6.3,0.55c-0.13,0.01-0.27,0.02-0.4,0.03c0.07,0.79,0.14,1.579,0.21,2.369c-0.79,0.07-1.58,0.141-2.37,0.21
			C29.71,30.97,29.57,29.39,29.43,27.82z"/>
		<path fill="#858D99" d="M32.28,33.129c0.03,0.391,0.07,0.79,0.1,1.181c-0.79,0.069-1.57,0.14-2.36,0.21
			c-0.03-0.271-0.05-0.53-0.07-0.79c-0.04-0.391-0.07-0.79-0.11-1.181c0.79-0.069,1.58-0.14,2.37-0.21
			C32.23,32.6,32.26,32.86,32.28,33.129z"/>
		<path fill="#211F30" d="M27.53,6.13c-2.1,0.19-4.2,0.37-6.3,0.56c-0.07-0.79-0.14-1.58-0.21-2.37c2.1-0.18,4.2-0.36,6.31-0.55
			C27.4,4.56,27.47,5.35,27.53,6.13z"/>
		<path fill="#211F30" d="M45.061,2.22c-5.91,0.52-11.82,1.03-17.73,1.55c-0.03-0.26-0.05-0.52-0.07-0.79
			c-0.04-0.39-0.07-0.79-0.11-1.18c0.4-0.04,0.79-0.07,1.19-0.1c0.39-0.04,0.79-0.07,1.18-0.11c0.79-0.07,1.58-0.14,2.36-0.21
			c0.66-0.05,1.32-0.11,1.98-0.17c0.78-0.07,1.57-0.14,2.36-0.2c0.66-0.06,1.31-0.12,1.97-0.18c0.79-0.07,1.58-0.13,2.37-0.2
			c0.65-0.06,1.31-0.12,1.97-0.18c0.79-0.07,1.57-0.13,2.36-0.2c0.02,0.26,0.05,0.52,0.069,0.79C44.99,1.43,45.03,1.82,45.061,2.22z
			"/>
		<path fill="#858D99" d="M26.15,13.01c0.26-0.02,0.52-0.05,0.79-0.07c0.52-0.04,1.05-0.09,1.57-0.14c0.4-0.03,0.79-0.07,1.19-0.1
			c0.52-0.05,1.05-0.09,1.57-0.14c0.27-0.02,0.53-0.04,0.79-0.07c0.13-0.01,0.27-0.02,0.4-0.03c0.13-0.01,0.26-0.02,0.39-0.04
			c0.39-0.03,0.79-0.07,1.18-0.1c0.27-0.02,0.53-0.05,0.79-0.07c0.13-0.01,0.27-0.03,0.4-0.03c0.13-0.01,0.26-0.03,0.39-0.04
			c0.13-0.01,0.26-0.02,0.39-0.03c0.13-0.01,0.27-0.04,0.4-0.04c0.13,0.01,0.27-0.02,0.39-0.03c0.05-0.01,0.37-0.07,0.4-0.04
			c0.07,0.08-0.03,0.31,0.03,0.4c0.01,0.13,0.02,0.26,0.03,0.39c0.03,0.26,0.05,0.53,0.07,0.79c-0.04,0.08,0.1,0.32,0.04,0.4
			c-0.05,0.05-0.33,0.01-0.4,0.03c-0.1,0.04-0.27,0.02-0.39,0.03c-0.13,0.02-0.26,0.02-0.39,0.04s-0.27,0.02-0.4,0.03
			c-0.13,0.01-0.26,0.03-0.39,0.04c-0.13,0.01-0.27,0.02-0.4,0.03c-0.13,0.02-0.26,0.03-0.39,0.04c-0.13,0.01-0.26,0.02-0.39,0.03
			c-0.13,0.01-0.27,0.02-0.4,0.04c-0.26,0.02-0.52,0.04-0.79,0.06c-0.13,0.02-0.26,0.03-0.39,0.04c-0.13,0.01-0.26,0.02-0.4,0.03
			c-0.39,0.04-0.78,0.07-1.18,0.11c-0.39,0.03-0.79,0.07-1.18,0.1c-0.4,0.04-0.79,0.07-1.19,0.1c-0.39,0.04-0.78,0.07-1.18,0.11
			c-0.13,0.01-0.26,0.02-0.39,0.03c-0.12,0.01-0.28,0.05-0.39,0.04c-0.08-0.02-0.35,0.07-0.4,0.03c-0.07-0.06,0.03-0.32-0.03-0.39
			c-0.03-0.27-0.05-0.53-0.07-0.79C26.19,13.54,26.17,13.27,26.15,13.01z"/>
		<path fill="#858D99" d="M25.58,33.709c0.03,0.4,0.07,0.79,0.1,1.19c-0.26,0.02-0.52,0.04-0.79,0.07
			C24.5,35,24.1,35.04,23.71,35.07c-0.05-0.53-0.09-1.05-0.14-1.58c-0.01-0.13-0.02-0.26-0.03-0.39c0.26-0.03,0.52-0.051,0.79-0.07
			c0.39-0.04,0.78-0.07,1.18-0.11C25.53,33.19,25.56,33.45,25.58,33.709z"/>
		<path fill="#FFFFFF" d="M21.61,11.02c0.07,0.79,0.13,1.58,0.2,2.37c-0.79,0.07-1.57,0.14-2.36,0.21
			c-0.07-0.79-0.14-1.58-0.21-2.37C20.03,11.16,20.82,11.09,21.61,11.02z"/>
		<path fill="#211F30" d="M15.16,64.419c-0.79,0.07-1.58,0.141-2.37,0.2c-0.02-0.26-0.05-0.52-0.07-0.79
			c-0.03-0.39-0.07-0.78-0.1-1.18c3.02-0.26,6.04-0.53,9.06-0.79c0.03,0.26,0.05,0.53,0.07,0.79c0.04,0.39,0.07,0.79,0.11,1.18
			c13.14-1.149,26.28-2.3,39.41-3.45c-0.021-0.26-0.04-0.52-0.07-0.79c-0.03-0.39-0.06-0.79-0.1-1.18
			c2.89-0.25,5.779-0.51,8.67-0.76c0.029,0.26,0.05,0.53,0.069,0.79c0.04,0.39,0.07,0.79,0.11,1.18
			c-0.53,0.05-1.05,0.101-1.58,0.141c-0.26,0.02-0.52,0.05-0.79,0.069c0.07,0.79,0.14,1.58,0.21,2.36
			c-4.47,0.39-8.93,0.78-13.399,1.18c-1.19,0.101-2.37,0.2-3.551,0.311c-1.05,0.09-2.1,0.18-3.149,0.27
			c-2.11,0.19-4.21,0.37-6.31,0.55c-1.18,0.11-2.37,0.21-3.55,0.311c-1.05,0.1-2.1,0.189-3.15,0.279
			c-2.1,0.181-4.21,0.37-6.31,0.551c-1.18,0.1-2.36,0.21-3.55,0.31c-1.05,0.09-2.1,0.19-3.15,0.28c-2.1,0.18-4.2,0.37-6.31,0.55
			C15.29,65.99,15.22,65.2,15.16,64.419z"/>
		<path fill="#211F30" d="M21.3,7.48c0.03,0.39,0.07,0.78,0.1,1.18c-1.45,0.12-2.89,0.25-4.34,0.38c-0.02-0.27-0.04-0.53-0.07-0.79
			c-0.03-0.39-0.07-0.79-0.1-1.18c1.45-0.13,2.89-0.26,4.34-0.38C21.25,6.95,21.27,7.21,21.3,7.48z"/>
		<path fill="#858D99" d="M36.5,45.07c-5.13,0.45-10.25,0.9-15.37,1.34c-0.27,0.03-0.53,0.05-0.79,0.07
			c-0.07-0.78-0.14-1.57-0.21-2.36c5.39-0.47,10.78-0.939,16.17-1.41c0.39-0.04,0.78-0.069,1.18-0.109
			c0.02,0.26,0.04,0.529,0.07,0.79c0.04,0.529,0.09,1.05,0.13,1.58C37.29,45,36.9,45.03,36.5,45.07z"/>
		<path fill="#858D99" d="M20.99,53.98c0.04,0.39,0.07,0.78,0.11,1.18c-0.79,0.07-1.58,0.14-2.37,0.2
			c-0.02-0.26-0.04-0.521-0.06-0.78c-0.04-0.399-0.07-0.79-0.11-1.189c0.79-0.061,1.58-0.13,2.36-0.2
			C20.95,53.45,20.97,53.709,20.99,53.98z"/>
		<path fill="#63677A" d="M23.71,35.07c-1.05,0.09-2.1,0.18-3.15,0.28c-1.19,0.1-2.37,0.199-3.55,0.31
			c-0.03-0.399-0.07-0.79-0.1-1.189c-0.03-0.261-0.05-0.521-0.07-0.79c1.05-0.091,2.1-0.181,3.15-0.271
			c0.53-0.05,1.05-0.09,1.58-0.14c0.52-0.05,1.05-0.09,1.57-0.141c0.13-0.01,0.27-0.02,0.4-0.029c0.01,0.13,0.02,0.26,0.03,0.39
			C23.62,34.02,23.66,34.54,23.71,35.07z"/>
		<path fill="#FFFFFF" d="M19.93,19.11c0.02,0.27,0.05,0.53,0.07,0.79c-1.45,0.13-2.89,0.26-4.33,0.38
			c-0.13-1.44-0.26-2.89-0.38-4.33c1.18-0.11,2.36-0.21,3.54-0.31c0.26-0.03,0.53-0.05,0.79-0.07c0.04,0.39,0.07,0.78,0.1,1.18
			c0.03,0.26,0.05,0.52,0.07,0.79C19.84,18.06,19.89,18.59,19.93,19.11z"/>
		<path d="M21.57,33.27c-0.53,0.05-1.05,0.09-1.58,0.14c-1.05,0.09-2.1,0.18-3.15,0.271c-0.07-0.78-0.14-1.57-0.21-2.36
			c0.13-0.01,0.26-0.021,0.39-0.04c2.11-0.18,4.21-0.36,6.31-0.55c0.07,0.79,0.14,1.58,0.21,2.37c-0.13,0.01-0.27,0.02-0.4,0.029
			C22.62,33.18,22.09,33.22,21.57,33.27z"/>
		<path fill="#858D99" d="M16.76,55.54c-1.57,0.141-3.15,0.271-4.73,0.41c-0.12-1.439-0.25-2.89-0.38-4.34
			c1.58-0.13,3.16-0.271,4.73-0.41C16.51,52.65,16.64,54.089,16.76,55.54z"/>
		<path fill="#63677A" d="M14.87,33.86c-0.14-1.58-0.28-3.16-0.42-4.73c3.55-0.31,7.1-0.619,10.65-0.93
			c0.13,1.57,0.27,3.15,0.41,4.72c-0.4,0.04-0.79,0.07-1.18,0.11c-0.27,0.02-0.53,0.04-0.79,0.07c-0.07-0.79-0.14-1.58-0.21-2.37
			c-2.1,0.189-4.2,0.37-6.31,0.55c-0.13,0.02-0.26,0.03-0.39,0.04c0.07,0.79,0.14,1.58,0.21,2.36c-0.4,0.04-0.79,0.069-1.18,0.109
			C15.39,33.81,15.13,33.83,14.87,33.86z"/>
		<path fill="#858D99" d="M14.97,35.04c-0.04-0.39-0.07-0.79-0.1-1.18c0.26-0.03,0.52-0.05,0.79-0.07
			c0.39-0.04,0.78-0.069,1.18-0.109c0.02,0.27,0.04,0.529,0.07,0.79c0.03,0.399,0.07,0.79,0.1,1.189
			c-0.26,0.021-0.53,0.04-0.79,0.07c-0.39,0.03-0.79,0.06-1.18,0.1C15.01,35.57,14.99,35.299,14.97,35.04z"/>
		<path fill="#AFBBC3" d="M67.84,35.58c-0.029-0.399-0.069-0.79-0.1-1.189c-0.021-0.261-0.05-0.521-0.07-0.78
			c-0.79,0.06-1.58,0.13-2.359,0.2c0.029,0.399,0.069,0.79,0.1,1.18c0.02,0.271,0.05,0.53,0.07,0.79
			C66.271,35.709,67.061,35.65,67.84,35.58z M60.97,34.19c-0.069-0.79-0.14-1.57-0.21-2.36c-0.26,0.021-0.52,0.04-0.79,0.07
			c-0.39,0.03-0.779,0.07-1.18,0.1c0.07,0.79,0.14,1.58,0.21,2.36c0.391-0.03,0.79-0.07,1.18-0.1
			C60.44,34.24,60.71,34.209,60.97,34.19z M52.351,8.33c-0.79,0.07-1.57,0.14-2.36,0.21c0.07,0.79,0.14,1.58,0.2,2.37
			c0.79-0.07,1.58-0.14,2.37-0.21C52.49,9.91,52.42,9.12,52.351,8.33z M45.44,6.55c-0.78,0.07-1.57,0.14-2.36,0.21
			c0.07,0.79,0.14,1.58,0.21,2.37c0.79-0.07,1.57-0.14,2.36-0.21C45.58,8.13,45.51,7.34,45.44,6.55z M37.56,16.38
			c-0.78,0.07-1.57,0.14-2.36,0.2c0.02,0.27,0.05,0.53,0.07,0.79c0.1,1.19,0.21,2.37,0.31,3.55c0.79-0.07,1.58-0.14,2.36-0.2
			C37.82,19.27,37.69,17.82,37.56,16.38z M30.02,34.52c0.79-0.07,1.57-0.141,2.36-0.21c1.19-0.101,2.37-0.21,3.55-0.311
			c1.05-0.09,2.1-0.18,3.15-0.27c0.4-0.04,0.79-0.07,1.19-0.11c0.26-0.02,0.52-0.04,0.78-0.07c-0.03-0.39-0.06-0.789-0.1-1.18
			c-0.02-0.26-0.04-0.53-0.07-0.79c-0.14-1.58-0.27-3.149-0.41-4.73c-3.68,0.32-7.36,0.64-11.04,0.97
			c0.14,1.57,0.28,3.15,0.41,4.729c0.04,0.391,0.07,0.79,0.11,1.181C29.97,33.99,29.99,34.25,30.02,34.52z M33.23,16.76
			c-3.68,0.32-7.36,0.64-11.04,0.96c0.04,0.4,0.07,0.79,0.11,1.19c0.09,1.05,0.18,2.1,0.27,3.15c3.68-0.32,7.36-0.64,11.04-0.97
			C33.48,19.65,33.36,18.2,33.23,16.76z M26.32,14.98c0.05,0.04,0.32-0.05,0.4-0.03c0.11,0.01,0.27-0.03,0.39-0.04
			c0.13-0.01,0.26-0.02,0.39-0.03c0.4-0.04,0.79-0.07,1.18-0.11c0.4-0.03,0.79-0.06,1.19-0.1c0.39-0.03,0.79-0.07,1.18-0.1
			c0.4-0.04,0.79-0.07,1.18-0.11c0.14-0.01,0.27-0.02,0.4-0.03c0.13-0.01,0.26-0.02,0.39-0.04c0.27-0.02,0.53-0.04,0.79-0.06
			c0.13-0.02,0.27-0.03,0.4-0.04c0.13-0.01,0.26-0.02,0.39-0.03c0.13-0.01,0.26-0.02,0.39-0.04c0.13-0.01,0.27-0.02,0.4-0.03
			c0.13-0.01,0.26-0.03,0.39-0.04c0.13-0.01,0.27-0.01,0.4-0.03s0.26-0.02,0.39-0.04c0.12-0.01,0.29,0.01,0.39-0.03
			c0.07-0.02,0.35,0.02,0.4-0.03c0.06-0.08-0.08-0.32-0.04-0.4c-0.02-0.26-0.04-0.53-0.07-0.79c-0.01-0.13-0.02-0.26-0.03-0.39
			c-0.06-0.09,0.04-0.32-0.03-0.4c-0.03-0.03-0.35,0.03-0.4,0.04c-0.12,0.01-0.26,0.04-0.39,0.03c-0.13,0-0.27,0.03-0.4,0.04
			c-0.13,0.01-0.26,0.02-0.39,0.03c-0.13,0.01-0.26,0.03-0.39,0.04c-0.13,0-0.27,0.02-0.4,0.03c-0.26,0.02-0.52,0.05-0.79,0.07
			c-0.39,0.03-0.79,0.07-1.18,0.1c-0.13,0.02-0.26,0.03-0.39,0.04c-0.13,0.01-0.27,0.02-0.4,0.03c-0.26,0.03-0.52,0.05-0.79,0.07
			c-0.52,0.05-1.05,0.09-1.57,0.14c-0.4,0.03-0.79,0.07-1.19,0.1c-0.52,0.05-1.05,0.1-1.57,0.14c-0.27,0.02-0.53,0.05-0.79,0.07
			c0.02,0.26,0.04,0.53,0.07,0.79c0.02,0.26,0.04,0.52,0.07,0.79C26.35,14.66,26.25,14.92,26.32,14.98z M15.04,35.83
			c0.39-0.04,0.79-0.069,1.18-0.1c0.26-0.03,0.53-0.05,0.79-0.07c1.18-0.11,2.36-0.21,3.55-0.31c1.05-0.101,2.1-0.19,3.15-0.28
			c0.39-0.03,0.79-0.07,1.18-0.1c0.27-0.03,0.53-0.051,0.79-0.07c-0.03-0.4-0.07-0.79-0.1-1.19c-0.02-0.26-0.05-0.52-0.07-0.79
			c-0.14-1.569-0.28-3.149-0.41-4.72c-3.55,0.311-7.1,0.62-10.65,0.93c0.14,1.57,0.28,3.15,0.42,4.73c0.03,0.39,0.06,0.79,0.1,1.18
			C14.99,35.299,15.01,35.57,15.04,35.83z M19.45,13.6c0.79-0.07,1.57-0.14,2.36-0.21c-0.07-0.79-0.13-1.58-0.2-2.37
			c-0.79,0.07-1.58,0.14-2.37,0.21C19.31,12.02,19.38,12.81,19.45,13.6z M20,19.9c-0.02-0.26-0.05-0.52-0.07-0.79
			c-0.04-0.52-0.09-1.05-0.14-1.57c-0.02-0.27-0.04-0.53-0.07-0.79c-0.03-0.4-0.06-0.79-0.1-1.18c-0.26,0.02-0.53,0.04-0.79,0.07
			c-1.18,0.1-2.36,0.2-3.54,0.31c0.12,1.44,0.25,2.89,0.38,4.33C17.11,20.16,18.55,20.03,20,19.9z M36.3,42.709
			c-5.39,0.471-10.78,0.94-16.17,1.41c0.07,0.79,0.14,1.58,0.21,2.36c0.26-0.021,0.52-0.04,0.79-0.07
			c5.12-0.439,10.24-0.89,15.37-1.34c0.4-0.04,0.79-0.07,1.18-0.1c-0.04-0.53-0.09-1.051-0.13-1.58c-0.03-0.261-0.05-0.53-0.07-0.79
			C37.08,42.64,36.69,42.669,36.3,42.709z M21.1,55.16c-0.04-0.399-0.07-0.79-0.11-1.18c-0.02-0.271-0.04-0.53-0.07-0.79
			c-0.78,0.07-1.57,0.14-2.36,0.2c0.04,0.399,0.07,0.79,0.11,1.189c0.02,0.26,0.04,0.521,0.06,0.78
			C19.52,55.299,20.31,55.23,21.1,55.16z M7.58,27.74c0.52-0.05,1.05-0.09,1.58-0.14c0.13-0.01,0.26-0.02,0.39-0.03
			c-0.07-0.79-0.14-1.58-0.21-2.37c-0.03-0.39-0.07-0.78-0.1-1.18c-0.02-0.26-0.05-0.52-0.07-0.79c0.79-0.07,1.58-0.14,2.36-0.2
			c-0.06-0.79-0.13-1.58-0.2-2.37c-0.06-0.66-0.12-1.31-0.18-1.97c0.79-0.07,1.58-0.14,2.37-0.21c-0.07-0.79-0.14-1.57-0.21-2.36
			c-0.03-0.4-0.07-0.79-0.1-1.18c-0.02-0.27-0.05-0.53-0.07-0.79c0.4-0.04,0.79-0.07,1.18-0.11c0.27-0.02,0.53-0.04,0.79-0.06
			c-0.07-0.79-0.13-1.58-0.2-2.37c0.78-0.07,1.57-0.14,2.36-0.21c-0.07-0.79-0.14-1.57-0.21-2.36c1.45-0.13,2.89-0.26,4.34-0.38
			c-0.03-0.4-0.07-0.79-0.1-1.18c-0.03-0.27-0.05-0.53-0.07-0.79c2.1-0.19,4.2-0.37,6.3-0.56c-0.06-0.78-0.13-1.57-0.2-2.36
			c5.91-0.52,11.82-1.03,17.73-1.55c0.069,0.79,0.14,1.58,0.21,2.36C47.51,4.39,49.74,4.19,51.97,4
			c0.051,0.52,0.101,1.05,0.141,1.57c0.01,0.13,0.02,0.27,0.04,0.4c0.39-0.04,0.79-0.07,1.18-0.11c0.26-0.02,0.53-0.04,0.79-0.06
			c0.07,0.79,0.14,1.57,0.21,2.36c0.78-0.07,1.57-0.14,2.36-0.21c0.069,0.79,0.14,1.58,0.2,2.37c0.399-0.03,0.789-0.07,1.189-0.1
			c0.26-0.03,0.521-0.05,0.79-0.07c0.09,1.05,0.18,2.1,0.271,3.15c0.039,0.39,0.069,0.79,0.109,1.18c0.78-0.07,1.57-0.14,2.36-0.21
			c0.04,0.4,0.069,0.79,0.1,1.19c0.04,0.39,0.07,0.79,0.11,1.18c0.02,0.26,0.04,0.53,0.07,0.79c0.029,0.39,0.069,0.79,0.1,1.18
			c0.39-0.03,0.79-0.07,1.18-0.1c0.271-0.02,0.53-0.05,0.79-0.07c0.04,0.39,0.07,0.79,0.11,1.18c0.02,0.26,0.04,0.53,0.06,0.79
			c0.04,0.4,0.07,0.79,0.11,1.18c0.03,0.4,0.07,0.79,0.1,1.18c0.79-0.06,1.58-0.13,2.36-0.2c0.2,2.23,0.4,4.46,0.59,6.7
			c0.4-0.03,0.79-0.07,1.18-0.101C68.74,29.14,69,29.12,69.26,29.1c0.131,1.439,0.261,2.89,0.381,4.33
			c0.1,1.18,0.21,2.369,0.31,3.55c0.03,0.26,0.05,0.53,0.07,0.79c-0.391,0.029-0.79,0.069-1.181,0.1
			c-0.26,0.03-0.529,0.05-0.79,0.07c0.181,2.1,0.37,4.21,0.551,6.31c-0.78,0.07-1.57,0.141-2.36,0.21
			c-0.09-1.06-0.19-2.109-0.28-3.16c-0.03-0.39-0.069-0.789-0.1-1.18c-0.4,0.04-0.79,0.07-1.181,0.101
			c-0.27,0.029-0.529,0.05-0.789,0.069c-0.04-0.39-0.07-0.79-0.11-1.18c-0.021-0.26-0.04-0.53-0.061-0.79
			c-1.06,0.09-2.109,0.18-3.159,0.28c-0.391,0.029-0.79,0.069-1.181,0.1c0.03,0.39,0.07,0.79,0.101,1.18
			c0.02,0.271,0.05,0.53,0.069,0.79c-0.39,0.04-0.79,0.07-1.18,0.11c-0.39,0.03-0.79,0.07-1.18,0.1
			c0.029,0.391,0.069,0.79,0.1,1.181c0.04,0.39,0.07,0.79,0.101,1.18c0.029,0.271,0.05,0.53,0.069,0.79
			c0.04,0.39,0.07,0.79,0.11,1.18c0.39-0.029,0.78-0.06,1.18-0.1c0.391-0.03,0.79-0.07,1.18-0.1c0.07,0.789,0.141,1.569,0.211,2.359
			c0.39-0.03,0.789-0.07,1.18-0.1c0.39-0.03,0.79-0.07,1.18-0.101c0.271-0.029,0.53-0.05,0.79-0.069c0.39-0.04,0.79-0.07,1.18-0.11
			c-0.029-0.39-0.06-0.79-0.1-1.18c-0.01-0.13-0.02-0.261-0.03-0.391c-0.01-0.12-0.06-0.279-0.04-0.399
			c0.011-0.07-0.08-0.34-0.029-0.391c0.06-0.069,0.319,0.03,0.39-0.04c0.53-0.04,1.05-0.09,1.58-0.13c0.14,1.57,0.27,3.15,0.41,4.73
			c-0.521,0.04-1.05,0.09-1.58,0.13c-0.13,0.02-0.26,0.03-0.391,0.04c0.04,0.39,0.07,0.79,0.101,1.18c0.03,0.26,0.05,0.53,0.07,0.79
			c-0.391,0.03-0.79,0.07-1.181,0.101c-0.39,0.04-0.79,0.069-1.18,0.109c-0.271,0.021-0.53,0.04-0.79,0.07
			c-0.39,0.03-0.79,0.07-1.18,0.1c0.06,0.79,0.13,1.58,0.199,2.36c-3.02,0.27-6.04,0.53-9.06,0.8c0.03,0.391,0.07,0.79,0.1,1.18
			c0.03,0.261,0.051,0.521,0.07,0.79c-10.12,0.881-20.24,1.771-30.35,2.65c-0.04-0.39-0.07-0.79-0.11-1.18
			c-0.02-0.261-0.04-0.53-0.07-0.79c-3.02,0.27-6.04,0.529-9.06,0.8c-0.07-0.79-0.14-1.58-0.21-2.37c1.58-0.14,3.16-0.27,4.73-0.41
			c-0.12-1.45-0.25-2.89-0.38-4.34c-1.57,0.14-3.15,0.28-4.73,0.41c0.13,1.45,0.26,2.9,0.38,4.34c-1.44,0.13-2.89,0.25-4.33,0.38
			c-0.05-0.53-0.1-1.05-0.14-1.58c-0.01-0.13-0.02-0.26-0.04-0.39c-0.39,0.03-0.78,0.07-1.18,0.1c-0.26,0.03-0.52,0.051-0.79,0.07
			c-0.07-0.79-0.14-1.57-0.2-2.36c-0.79,0.07-1.58,0.13-2.37,0.2c-0.25-2.89-0.51-5.78-0.76-8.67c0.79-0.07,1.58-0.14,2.37-0.21
			c-0.07-0.78-0.14-1.57-0.21-2.36c-0.03-0.39-0.07-0.79-0.1-1.18c-0.03-0.27-0.05-0.53-0.07-0.79C4.14,38.37,4.07,37.58,4,36.79
			C3.97,36.4,3.93,36,3.9,35.61c-0.03-0.26-0.05-0.521-0.07-0.79c0.39-0.03,0.79-0.07,1.18-0.1c0.26-0.021,0.53-0.051,0.79-0.07
			c-0.1-1.18-0.21-2.37-0.31-3.55C5.4,30.049,5.31,29,5.21,27.95C6,27.879,6.79,27.81,7.58,27.74z M9.71,43.049
			c-0.26,0.021-0.53,0.04-0.79,0.061c0.04,0.4,0.07,0.79,0.11,1.189c0.02,0.261,0.04,0.521,0.06,0.79
			c0.4-0.04,0.79-0.069,1.19-0.109c0.26-0.021,0.52-0.04,0.79-0.07c-0.04-0.39-0.07-0.79-0.11-1.18c-0.02-0.26-0.04-0.521-0.07-0.79
			c0.79-0.07,1.58-0.141,2.37-0.2c0.39-0.04,0.79-0.07,1.18-0.11c0.27-0.02,0.53-0.04,0.79-0.069c0.79-0.07,1.58-0.141,2.37-0.2
			c0.39-0.04,0.78-0.07,1.18-0.11c0.26-0.02,0.52-0.04,0.79-0.069c0.78-0.07,1.57-0.131,2.36-0.2c0.39-0.04,0.79-0.07,1.18-0.11
			c0.27-0.02,0.53-0.04,0.79-0.07c0.79-0.06,1.58-0.13,2.37-0.199c0.39-0.04,0.79-0.07,1.18-0.11c0.26-0.02,0.52-0.04,0.79-0.07
			c0.79-0.06,1.57-0.13,2.36-0.199c0.4-0.04,0.79-0.07,1.19-0.11c0.26-0.021,0.52-0.04,0.78-0.07c0.79-0.06,1.58-0.13,2.37-0.2
			c0.39-0.04,0.79-0.069,1.18-0.1c0.27-0.03,0.53-0.05,0.79-0.07c0.79-0.069,1.58-0.14,2.36-0.21c0.4-0.04,0.79-0.069,1.19-0.1
			c0.26-0.03,0.52-0.05,0.79-0.07c0.78-0.069,1.57-0.14,2.36-0.21c0.399-0.04,0.79-0.069,1.189-0.1c0.391-0.04,0.78-0.07,1.181-0.11
			c0.029,0.4,0.069,0.79,0.1,1.19c0.03,0.26,0.05,0.52,0.07,0.79c0.79-0.07,1.58-0.141,2.359-0.21c-0.029-0.4-0.069-0.79-0.1-1.181
			c-0.02-0.27-0.05-0.529-0.07-0.79c-0.79,0.07-1.569,0.13-2.359,0.2c-0.03-0.26-0.051-0.52-0.07-0.79
			c-0.04-0.39-0.07-0.78-0.1-1.18c-0.07-0.07,0.029-0.33-0.04-0.39c-0.04-0.04-0.341,0.029-0.391,0.029
			c-0.13,0.01-0.27,0.04-0.399,0.04c-0.13-0.01-0.271,0.021-0.391,0.03c-0.14,0.01-0.26,0.02-0.399,0.04
			c-0.13,0.01-0.261,0.02-0.391,0.03c-0.13,0.01-0.26,0.02-0.39,0.029c-0.14,0.021-0.27,0.03-0.4,0.04
			c-0.13,0.011-0.26,0.021-0.39,0.03c-0.27,0.03-0.53,0.05-0.79,0.07c-0.13,0.01-0.27,0.029-0.4,0.04
			c-0.13,0.01-0.26,0.02-0.39,0.029c-0.13,0.011-0.26,0.021-0.4,0.04c-0.13,0.011-0.26,0.021-0.39,0.03
			c-0.39,0.04-0.79,0.07-1.18,0.1c-0.66,0.061-1.32,0.12-1.97,0.181c-0.4,0.029-0.79,0.069-1.18,0.1c-0.4,0.03-0.79,0.07-1.19,0.101
			c-0.65,0.06-1.31,0.119-1.97,0.18c-0.39,0.03-0.79,0.06-1.18,0.1c-0.4,0.03-0.79,0.07-1.18,0.101c-0.66,0.06-1.32,0.12-1.98,0.18
			c-0.39,0.03-0.78,0.06-1.18,0.1c-0.39,0.03-0.79,0.07-1.18,0.101c-0.66,0.06-1.31,0.12-1.97,0.17c-0.39,0.04-0.79,0.07-1.18,0.11
			c-0.4,0.029-0.79,0.069-1.19,0.1c-0.65,0.06-1.31,0.12-1.97,0.17c-0.39,0.04-0.79,0.07-1.18,0.11c-0.39,0.029-0.79,0.069-1.18,0.1
			c-0.66,0.06-1.32,0.12-1.97,0.17c-0.4,0.04-0.79,0.07-1.19,0.11c-0.39,0.029-0.78,0.069-1.18,0.1c-0.66,0.061-1.31,0.12-1.97,0.17
			c-0.07,0.061-0.33-0.029-0.39,0.04c-0.04,0.04,0.03,0.33,0.03,0.391c0.01,0.14,0.03,0.26,0.04,0.399c0,0.13,0.02,0.26,0.03,0.391
			c0.01,0.13,0.02,0.26,0.03,0.39c0.02,0.14,0.03,0.27,0.04,0.399c0.01,0.131,0.02,0.261,0.03,0.391
			C10.5,42.98,10.1,43.01,9.71,43.049z"/>
		<path fill="#211F30" d="M14.7,9.24c0.79-0.06,1.57-0.13,2.36-0.2c0.07,0.79,0.14,1.57,0.21,2.36c-0.79,0.07-1.58,0.14-2.36,0.21
			C14.84,10.82,14.77,10.03,14.7,9.24z"/>
		<path fill="#211F30" d="M13.72,11.71c0.4-0.03,0.79-0.07,1.19-0.1c0.07,0.79,0.13,1.58,0.2,2.37c-0.26,0.02-0.52,0.04-0.79,0.06
			c-0.39,0.04-0.78,0.07-1.18,0.11c-0.07-0.79-0.14-1.58-0.21-2.37C13.2,11.76,13.46,11.74,13.72,11.71z"/>
		<path fill="#FFFFFF" d="M13.31,16.12c0.07,0.79,0.14,1.57,0.21,2.36c-0.79,0.07-1.58,0.14-2.37,0.21
			c-0.06-0.79-0.13-1.58-0.2-2.36C11.74,16.26,12.53,16.19,13.31,16.12z"/>
		<path fill="#211F30" d="M13.21,14.94c0.03,0.39,0.07,0.78,0.1,1.18c-0.78,0.07-1.57,0.14-2.36,0.21
			c-0.02-0.27-0.05-0.53-0.07-0.79c-0.04-0.4-0.07-0.79-0.1-1.18c0.79-0.07,1.57-0.14,2.36-0.21
			C13.16,14.41,13.19,14.67,13.21,14.94z"/>
		<path fill="#211F30" d="M12.62,62.65c-1.45,0.13-2.89,0.25-4.34,0.38c-0.07-0.79-0.13-1.57-0.2-2.36
			c1.44-0.13,2.89-0.26,4.33-0.38C12.48,61.08,12.55,61.86,12.62,62.65z"/>
		<path fill="#FFFFFF" d="M9.17,23.23c-0.13-1.44-0.25-2.89-0.38-4.33c0.79-0.07,1.58-0.14,2.36-0.21c0.06,0.66,0.12,1.31,0.18,1.97
			c0.07,0.79,0.14,1.58,0.2,2.37C10.75,23.09,9.96,23.16,9.17,23.23z"/>
		<path fill="#63677A" d="M15.23,42.56c-0.26,0.029-0.52,0.05-0.79,0.069c-0.39,0.04-0.79,0.07-1.18,0.11
			c-0.79,0.06-1.58,0.13-2.37,0.2c-0.01-0.13-0.02-0.26-0.03-0.391c-0.01-0.13-0.02-0.26-0.04-0.399c-0.01-0.13-0.02-0.26-0.03-0.39
			c-0.01-0.131-0.03-0.261-0.03-0.391c-0.01-0.14-0.03-0.26-0.04-0.399c0-0.061-0.07-0.351-0.03-0.391
			c0.06-0.069,0.32,0.021,0.39-0.04c0.66-0.05,1.31-0.109,1.97-0.17c0.4-0.03,0.79-0.07,1.18-0.1c0.4-0.04,0.79-0.07,1.19-0.11
			c0.65-0.05,1.31-0.11,1.97-0.17c0.39-0.03,0.79-0.07,1.18-0.1c0.39-0.04,0.79-0.07,1.18-0.11c0.66-0.05,1.32-0.11,1.97-0.17
			c0.4-0.03,0.79-0.07,1.19-0.1c0.39-0.04,0.79-0.07,1.18-0.11c0.66-0.05,1.31-0.11,1.97-0.17c0.39-0.03,0.79-0.07,1.18-0.101
			c0.4-0.04,0.79-0.069,1.18-0.1c0.66-0.06,1.32-0.12,1.98-0.18c0.39-0.03,0.78-0.07,1.18-0.101c0.39-0.04,0.79-0.069,1.18-0.1
			c0.66-0.061,1.32-0.12,1.97-0.18c0.4-0.03,0.79-0.07,1.19-0.101c0.39-0.03,0.78-0.07,1.18-0.1c0.65-0.061,1.31-0.12,1.97-0.181
			c0.39-0.029,0.79-0.06,1.18-0.1c0.13-0.01,0.26-0.02,0.39-0.03c0.14-0.02,0.27-0.029,0.4-0.04c0.13-0.01,0.26-0.02,0.39-0.029
			c0.13-0.011,0.27-0.03,0.4-0.04c0.26-0.021,0.521-0.04,0.79-0.07c0.13-0.01,0.26-0.02,0.39-0.03c0.131-0.01,0.261-0.02,0.4-0.04
			c0.13-0.01,0.26-0.02,0.39-0.029c0.13-0.011,0.261-0.021,0.391-0.03c0.14-0.021,0.26-0.03,0.399-0.04
			c0.12-0.01,0.261-0.04,0.391-0.03c0.13,0,0.27-0.03,0.399-0.04c0.05,0,0.351-0.069,0.391-0.029c0.069,0.06-0.03,0.319,0.04,0.39
			c0.029,0.399,0.06,0.79,0.1,1.18c0.02,0.271,0.04,0.53,0.07,0.79c-0.4,0.04-0.79,0.07-1.181,0.11c-0.399,0.03-0.79,0.06-1.189,0.1
			c-0.79,0.07-1.58,0.141-2.36,0.21c-0.27,0.021-0.53,0.04-0.79,0.07c-0.4,0.03-0.79,0.06-1.19,0.1c-0.78,0.07-1.57,0.141-2.36,0.21
			c-0.26,0.021-0.52,0.04-0.79,0.07c-0.39,0.03-0.79,0.06-1.18,0.1c-0.79,0.07-1.58,0.141-2.37,0.2c-0.26,0.03-0.52,0.05-0.78,0.07
			c-0.4,0.04-0.79,0.07-1.19,0.11c-0.79,0.069-1.57,0.14-2.36,0.199c-0.27,0.03-0.53,0.051-0.79,0.07
			c-0.39,0.04-0.79,0.07-1.18,0.11c-0.79,0.069-1.58,0.14-2.37,0.199c-0.26,0.03-0.52,0.051-0.79,0.07
			c-0.39,0.04-0.79,0.07-1.18,0.11c-0.79,0.069-1.58,0.13-2.36,0.2c-0.27,0.029-0.53,0.05-0.79,0.069c-0.4,0.04-0.79,0.07-1.18,0.11
			C16.81,42.419,16.02,42.49,15.23,42.56z"/>
		<path fill="#858D99" d="M9.03,44.299C8.99,43.9,8.96,43.51,8.92,43.11c0.26-0.021,0.53-0.04,0.79-0.061
			c0.39-0.039,0.79-0.069,1.18-0.109c0.03,0.27,0.05,0.53,0.07,0.79c0.04,0.39,0.07,0.79,0.11,1.18c-0.27,0.03-0.53,0.05-0.79,0.07
			c-0.4,0.04-0.79,0.069-1.19,0.109C9.07,44.82,9.05,44.56,9.03,44.299z"/>
		<path fill="#FFFFFF" d="M8.38,23.3c0.26-0.02,0.53-0.04,0.79-0.07c0.02,0.27,0.05,0.53,0.07,0.79c0.03,0.4,0.07,0.79,0.1,1.18
			c0.07,0.79,0.14,1.58,0.21,2.37c-0.13,0.01-0.26,0.02-0.39,0.03c-0.53,0.05-1.06,0.09-1.58,0.14c-0.13-1.44-0.26-2.89-0.38-4.33
			C7.59,23.37,7.99,23.34,8.38,23.3z"/>
		<path fill="#211F30" d="M8.58,16.53c0.79-0.07,1.58-0.13,2.37-0.2c0.07,0.78,0.14,1.57,0.2,2.36c-0.78,0.07-1.57,0.14-2.36,0.21
			C8.72,18.11,8.65,17.32,8.58,16.53z"/>
		<path fill="#211F30" d="M8.38,23.3c-0.39,0.04-0.79,0.07-1.18,0.11c-0.13-1.45-0.26-2.9-0.38-4.34c0.26-0.03,0.52-0.05,0.79-0.07
			C8,18.96,8.4,18.93,8.79,18.9c0.13,1.44,0.25,2.89,0.38,4.33C8.91,23.26,8.64,23.28,8.38,23.3z"/>
		<path fill="#858D99" d="M12.41,60.29c-1.44,0.12-2.89,0.25-4.33,0.38c-0.04-0.399-0.07-0.79-0.11-1.189
			c-0.02-0.26-0.04-0.521-0.07-0.78c-0.39,0.03-0.79,0.061-1.18,0.1c-0.26,0.021-0.53,0.04-0.79,0.07
			c-0.12-1.45-0.25-2.89-0.38-4.34c0.27-0.02,0.53-0.04,0.79-0.07c0.4-0.029,0.79-0.069,1.18-0.1c0.02,0.13,0.03,0.26,0.04,0.39
			c0.04,0.53,0.09,1.05,0.14,1.58c1.44-0.13,2.89-0.25,4.33-0.38c0.07,0.79,0.14,1.58,0.21,2.37c3.02-0.271,6.04-0.53,9.06-0.8
			c0.03,0.26,0.05,0.529,0.07,0.79c0.04,0.39,0.07,0.79,0.11,1.18c10.11-0.88,20.23-1.77,30.35-2.65
			c-0.02-0.27-0.04-0.529-0.07-0.79c-0.029-0.39-0.069-0.789-0.1-1.18c3.02-0.27,6.04-0.53,9.06-0.8
			c-0.069-0.78-0.14-1.57-0.199-2.36c0.39-0.029,0.79-0.069,1.18-0.1c0.26-0.03,0.52-0.05,0.79-0.07
			c0.39-0.04,0.79-0.069,1.18-0.109c0.391-0.03,0.79-0.07,1.181-0.101c-0.021-0.26-0.04-0.53-0.07-0.79
			c-0.03-0.39-0.061-0.79-0.101-1.18c0.131-0.01,0.261-0.021,0.391-0.04c0.53-0.04,1.06-0.09,1.58-0.13
			c-0.141-1.58-0.271-3.16-0.41-4.73c0.79-0.069,1.58-0.14,2.36-0.21c-0.181-2.1-0.37-4.21-0.551-6.31
			c0.261-0.021,0.53-0.04,0.79-0.07c0.391-0.03,0.79-0.07,1.181-0.1c-0.021-0.26-0.04-0.53-0.07-0.79
			c-0.1-1.181-0.21-2.37-0.31-3.55c-0.12-1.44-0.25-2.891-0.381-4.33c-0.26,0.02-0.52,0.04-0.79,0.069
			c-0.39,0.03-0.779,0.07-1.18,0.101c-0.189-2.24-0.39-4.47-0.59-6.7c-0.78,0.07-1.57,0.14-2.36,0.2
			c-0.029-0.39-0.069-0.78-0.1-1.18c-0.04-0.39-0.07-0.78-0.11-1.18c-0.02-0.26-0.04-0.53-0.06-0.79c-0.04-0.39-0.07-0.79-0.11-1.18
			c-0.26,0.02-0.52,0.05-0.79,0.07c-0.39,0.03-0.79,0.07-1.18,0.1c-0.03-0.39-0.07-0.79-0.1-1.18c-0.03-0.26-0.051-0.53-0.07-0.79
			c-0.04-0.39-0.07-0.79-0.11-1.18c-0.03-0.4-0.06-0.79-0.1-1.19c-0.79,0.07-1.58,0.14-2.36,0.21c-0.04-0.39-0.07-0.79-0.109-1.18
			c-0.091-1.05-0.181-2.1-0.271-3.15c0.79-0.07,1.57-0.14,2.36-0.21c0.04,0.39,0.069,0.79,0.109,1.18
			c0.021,0.27,0.04,0.53,0.07,0.79c0.39-0.03,0.78-0.07,1.18-0.1c0.261-0.02,0.521-0.05,0.79-0.07c0.07,0.79,0.13,1.57,0.2,2.36
			c0.79-0.07,1.58-0.14,2.37-0.21c0.12,1.45,0.25,2.9,0.38,4.34c0.39-0.03,0.79-0.07,1.18-0.1c0.261-0.02,0.521-0.05,0.79-0.07
			c0.12,1.45,0.25,2.89,0.38,4.34c0.79-0.07,1.57-0.14,2.36-0.21c0.2,2.23,0.39,4.47,0.59,6.7c0.79-0.07,1.58-0.141,2.36-0.21
			c0.13,1.449,0.26,2.89,0.38,4.34c0.04,0.39,0.07,0.79,0.11,1.18c0.02,0.26,0.04,0.53,0.069,0.79c0.03,0.39,0.061,0.79,0.101,1.18
			c0.029,0.4,0.069,0.79,0.1,1.19c0.4-0.04,0.79-0.07,1.19-0.11c0.26-0.02,0.52-0.04,0.779-0.069c0.32,3.68,0.65,7.359,0.971,11.04
			c-0.4,0.04-0.79,0.069-1.181,0.1c-0.27,0.03-0.529,0.05-0.79,0.07c0.07,0.79,0.141,1.58,0.2,2.37c0.04,0.39,0.07,0.789,0.11,1.18
			c0.02,0.26,0.04,0.53,0.07,0.79c-0.79,0.069-1.58,0.14-2.37,0.21c0.04,0.39,0.069,0.78,0.109,1.18
			c0.021,0.26,0.04,0.521,0.07,0.79c-1.45,0.12-2.9,0.25-4.34,0.38c0.07,0.79,0.14,1.57,0.2,2.36c-2.891,0.25-5.78,0.51-8.67,0.76
			c0.04,0.39,0.069,0.79,0.1,1.18c0.03,0.271,0.05,0.53,0.07,0.79C48.141,61.53,35,62.68,21.86,63.83
			c-0.04-0.39-0.07-0.79-0.11-1.18c-0.02-0.26-0.04-0.53-0.07-0.79c-3.02,0.26-6.04,0.53-9.06,0.79
			C12.55,61.86,12.48,61.08,12.41,60.29z"/>
		<path fill="#211F30" d="M7.2,23.41c0.12,1.44,0.25,2.89,0.38,4.33c-0.79,0.07-1.58,0.14-2.37,0.21c-0.12-1.45-0.25-2.89-0.38-4.34
			C5.62,23.54,6.41,23.47,7.2,23.41z"/>
		<path fill="#211F30" d="M7.97,59.48c0.04,0.399,0.07,0.79,0.11,1.189c-0.27,0.021-0.53,0.04-0.79,0.07
			c-0.4,0.03-0.79,0.06-1.19,0.1c-0.01-0.13-0.02-0.26-0.03-0.39c-0.05-0.53-0.09-1.06-0.14-1.58c0.26-0.03,0.53-0.05,0.79-0.07
			c0.39-0.039,0.79-0.069,1.18-0.1C7.93,58.959,7.95,59.22,7.97,59.48z"/>
		<path fill="#211F30" d="M5.55,54.53c0.13,1.45,0.26,2.89,0.38,4.34c-0.79,0.07-1.58,0.141-2.36,0.2
			c-0.04-0.39-0.07-0.78-0.11-1.18c-0.03-0.391-0.07-0.79-0.1-1.181c-0.02-0.26-0.05-0.529-0.07-0.79c-0.03-0.39-0.07-0.79-0.1-1.18
			C3.98,54.669,4.76,54.6,5.55,54.53z"/>
		<path fill="#211F30" d="M5.49,31.1c0.1,1.18,0.21,2.37,0.31,3.55c-0.26,0.02-0.53,0.05-0.79,0.07c-0.39,0.029-0.79,0.069-1.18,0.1
			c-0.2-2.23-0.39-4.46-0.59-6.7c0.26-0.02,0.53-0.05,0.79-0.07c0.39-0.029,0.79-0.069,1.18-0.1C5.31,29,5.4,30.049,5.49,31.1z"/>
		<path fill="#211F30" d="M4.38,41.129c0.07,0.79,0.14,1.58,0.21,2.36c-0.79,0.07-1.58,0.14-2.37,0.21
			c-0.02-0.26-0.04-0.52-0.07-0.79c-0.03-0.39-0.07-0.78-0.1-1.18c-0.07-0.79-0.14-1.58-0.21-2.37c-0.12-1.44-0.25-2.88-0.38-4.33
			c0.79-0.07,1.58-0.14,2.37-0.21c0.02,0.27,0.04,0.53,0.07,0.79C3.93,36,3.97,36.4,4,36.79c0.07,0.79,0.14,1.58,0.21,2.37
			c0.02,0.26,0.04,0.521,0.07,0.79C4.31,40.339,4.35,40.74,4.38,41.129z"/>
		<path fill="#858D99" d="M3.19,54.74c-0.07-0.79-0.14-1.58-0.21-2.37c0.79-0.07,1.58-0.13,2.37-0.2c0.06,0.79,0.13,1.57,0.2,2.36
			C4.76,54.6,3.98,54.669,3.19,54.74z"/>
		<path fill="#211F30" d="M2.98,52.37c0.07,0.79,0.14,1.58,0.21,2.37c-0.27,0.021-0.53,0.05-0.79,0.07
			c-0.4,0.029-0.79,0.069-1.19,0.1c-0.32-3.68-0.64-7.36-0.96-11.04c0.26-0.02,0.53-0.04,0.79-0.07c0.39-0.029,0.79-0.06,1.18-0.1
			C2.47,46.589,2.73,49.48,2.98,52.37z"/>
	</g>
	<g>
	</g>
</g>
</svg>
