<?xml version="1.0" encoding="utf-8"?>
<!-- Generator: Adobe Illustrator 15.0.0, SVG Export Plug-In  -->
<!DOCTYPE svg PUBLIC "-//W3C//DTD SVG 1.1//EN" "http://www.w3.org/Graphics/SVG/1.1/DTD/svg11.dtd" [
	<!ENTITY ns_flows "http://ns.adobe.com/Flows/1.0/">
]>
<svg version="1.1"
	 xmlns="http://www.w3.org/2000/svg" xmlns:xlink="http://www.w3.org/1999/xlink" xmlns:a="http://ns.adobe.com/AdobeSVGViewerExtensions/3.0/"
	 x="0px" y="0px" width="70px" height="55px" viewBox="-9.77 -7.87 70 55" enable-background="new -9.77 -7.87 70 55"
	 xml:space="preserve">
<defs>
</defs>
<g id="XMLID_2_">
	<g>
		<path fill="#F7F9F9" d="M22.38,13.91c0,1.06,0,2.13,0,3.2c-0.08,0-0.16,0-0.24,0v-3.2C22.22,13.91,22.3,13.91,22.38,13.91z"/>
		<path fill="#F7F9F9" d="M11.6,13.91v2.2c-0.1,0-0.2,0-0.29,0c0-0.73,0-1.47,0-2.2C11.4,13.91,11.5,13.91,11.6,13.91z"/>
		<path fill="#211F30" d="M60.23,9.86c0,0.58,0,1.16,0,1.75c0,0.19,0,0.38,0,0.58c0,0.29,0,0.58,0,0.87c-0.58,0-1.17,0-1.75,0
			c0-0.19,0-0.39,0-0.58c0-0.29,0-0.58,0-0.87c0-0.59,0-1.17,0-1.75C59.06,9.86,59.65,9.86,60.23,9.86z"/>
		<path fill="#619E43" d="M58.48,11.61c0,0.29,0,0.58,0,0.87c0,0.19,0,0.39,0,0.58c-0.29,0-0.58,0-0.87,0c-0.189,0-0.39,0-0.58,0
			c0,0.58,0,1.17,0,1.75c-1.649,0-3.3,0-4.95,0c0-0.58,0-1.17,0-1.75c-0.59,0-1.17,0-1.75,0c0-0.58,0-1.16,0-1.75
			c0-0.29,0-0.58,0-0.87c0-0.19,0-0.39,0-0.58c0.58,0,1.16,0,1.75,0c0-0.58,0-1.17,0-1.75c1.65,0,3.301,0,4.95,0
			c0,0.58,0,1.17,0,1.75c0.29,0,0.58,0,0.87,0c0.19,0,0.39,0,0.58,0C58.48,10.44,58.48,11.02,58.48,11.61z"/>
		<path fill="#211F30" d="M58.48,13.06c0,0.58,0,1.17,0,1.75c-0.19,0-0.39,0-0.58,0c-0.29,0-0.58,0-0.87,0c0-0.58,0-1.17,0-1.75
			c0.19,0,0.391,0,0.58,0C57.9,13.06,58.19,13.06,58.48,13.06z"/>
		<path fill="#211F30" d="M57.61,8.11c0.29,0,0.58,0,0.87,0c0,0.58,0,1.17,0,1.75c-0.19,0-0.39,0-0.58,0c-0.29,0-0.58,0-0.87,0
			c0-0.58,0-1.17,0-1.75C57.22,8.11,57.42,8.11,57.61,8.11z"/>
		<path fill="#211F30" d="M57.03,15.39c0,0.29,0,0.58,0,0.87c-1.649,0-3.3,0-4.95,0c0-0.19,0-0.38,0-0.58c0-0.29,0-0.58,0-0.87
			c1.65,0,3.301,0,4.95,0C57.03,15,57.03,15.2,57.03,15.39z"/>
		<path fill="#211F30" d="M57.03,7.24c0,0.29,0,0.58,0,0.87c-1.649,0-3.3,0-4.95,0c0-1.55,0-3.11,0-4.66c0.19,0,0.381,0,0.58,0
			c0.29,0,0.58,0,0.87,0c0,0.78,0,1.55,0,2.33c0,0.29,0,0.58,0,0.87c1.17,0,2.33,0,3.5,0C57.03,6.85,57.03,7.04,57.03,7.24z"/>
		<path fill="#211F30" d="M52.08,1.7c0,0.59,0,1.17,0,1.75c-0.59,0-1.17,0-1.75,0c0-0.58,0-1.16,0-1.75
			C50.91,1.7,51.49,1.7,52.08,1.7z"/>
		<path fill="#619E43" d="M47.13,3.45c0-0.58,0-1.16,0-1.75c1.06,0,2.13,0,3.199,0c0,0.59,0,1.17,0,1.75c0.58,0,1.16,0,1.75,0
			c0,1.55,0,3.11,0,4.66c-0.59,0-1.17,0-1.75,0c0,0.58,0,1.17,0,1.75c-0.58,0-1.17,0-1.75,0c-0.479,0-0.97,0-1.449,0
			c0-0.58,0-1.17,0-1.75c-0.29,0-0.591,0-0.881,0c-0.189,0-0.39,0-0.579,0c0-1.55,0-3.11,0-4.66c0.29,0,0.579,0,0.869,0
			C46.74,3.45,46.93,3.45,47.13,3.45z"/>
		<path fill="#211F30" d="M52.08,8.11c0,0.58,0,1.17,0,1.75c-0.59,0-1.17,0-1.75,0c0-0.58,0-1.17,0-1.75
			C50.91,8.11,51.49,8.11,52.08,8.11z"/>
		<path fill="#211F30" d="M52.08,13.06c0,0.58,0,1.17,0,1.75c-0.59,0-1.17,0-1.75,0c0-0.58,0-1.17,0-1.75
			C50.91,13.06,51.49,13.06,52.08,13.06z"/>
		<path fill="#211F30" d="M50.33,15.39c0,0.29,0,0.58,0,0.87c-0.1,0-0.189,0-0.29,0c-0.39,0-0.779,0-1.17,0c0-0.19,0-0.38,0-0.58
			c0-0.29,0-0.58,0-0.87c0.2,0,0.391,0,0.591,0c0.289,0,0.579,0,0.869,0C50.33,15,50.33,15.2,50.33,15.39z"/>
		<path fill="#211F30" d="M50.33,1.7c-1.069,0-2.14,0-3.199,0c0-0.19,0-0.38,0-0.58c0-0.29,0-0.58,0-0.87c0.58,0,1.159,0,1.739,0
			c0.2,0,0.391,0,0.591,0c0.289,0,0.579,0,0.869,0c0,0.19,0,0.39,0,0.58C50.33,1.12,50.33,1.41,50.33,1.7z"/>
		<path fill="#211F30" d="M47.13,16.26c0.58,0,1.159,0,1.739,0c0,0.59,0,1.17,0,1.75c-0.58,0-1.159,0-1.739,0
			C47.13,17.43,47.13,16.85,47.13,16.26z"/>
		<path fill="#211F30" d="M48.87,11.61c-0.58,0-1.159,0-1.739,0c0-0.59,0-1.17,0-1.75c0.479,0,0.97,0,1.449,0c0.58,0,1.17,0,1.75,0
			c0,0.19,0,0.39,0,0.58c0,0.29,0,0.58,0,0.87c0,0.59,0,1.17,0,1.75c-0.29,0-0.58,0-0.869,0c-0.2,0-0.391,0-0.591,0
			c0-0.29,0-0.58,0-0.87C48.87,11.99,48.87,11.8,48.87,11.61z"/>
		<path fill="#211F30" d="M47.13,8.11c0,0.58,0,1.17,0,1.75c-0.2,0-0.391,0-0.591,0c-0.29,0-0.579,0-0.869,0c0-0.58,0-1.17,0-1.75
			c0.189,0,0.39,0,0.579,0C46.54,8.11,46.84,8.11,47.13,8.11z"/>
		<path fill="#A24745" d="M48.87,16.26c-0.58,0-1.159,0-1.739,0c0-0.38,0-0.77,0-1.16c-0.04-0.07,0.04-0.23,0-0.29
			c-0.021-0.02-0.261,0-0.29,0c-0.101,0-0.2,0.01-0.301,0c-0.09-0.01-0.189,0-0.29,0c-0.189,0-0.39,0-0.579,0c0-0.58,0-1.17,0-1.75
			c0.29,0,0.579,0,0.869,0c0.2,0,0.391,0,0.591,0c0-0.29,0-0.58,0-0.87c0-0.2,0-0.39,0-0.58c0.58,0,1.159,0,1.739,0
			c0,0.19,0,0.38,0,0.58c0,0.29,0,0.58,0,0.87c0.2,0,0.391,0,0.591,0c0.289,0,0.579,0,0.869,0c0,0.58,0,1.17,0,1.75
			c-0.29,0-0.58,0-0.869,0c-0.2,0-0.391,0-0.591,0c0,0.29,0,0.58,0,0.87C48.87,15.88,48.87,16.07,48.87,16.26z"/>
		<path fill="#211F30" d="M47.13,1.7c0,0.59,0,1.17,0,1.75c-0.2,0-0.391,0-0.591,0c-0.29,0-0.579,0-0.869,0c0-0.58,0-1.16,0-1.75
			c0.189,0,0.39,0,0.579,0C46.54,1.7,46.84,1.7,47.13,1.7z"/>
		<path fill="#A24745" d="M47.13,16.26c0,0.59,0,1.17,0,1.75c-0.2,0-0.391,0-0.591,0c-0.29,0-0.579,0-0.869,0c0-0.58,0-1.16,0-1.75
			c0.189,0,0.39,0,0.579,0C46.54,16.26,46.84,16.26,47.13,16.26z"/>
		<path fill="#211F30" d="M47.13,12.19c0,0.29,0,0.58,0,0.87c-0.2,0-0.391,0-0.591,0c-0.29,0-0.579,0-0.869,0c0-0.19,0-0.39,0-0.58
			c0-0.29,0-0.58,0-0.87c0.189,0,0.39,0,0.579,0c0.29,0,0.591,0,0.881,0C47.13,11.8,47.13,11.99,47.13,12.19z"/>
		<path fill="#211F30" d="M45.67,3.45c0,1.55,0,3.11,0,4.66c-0.58,0-1.16,0-1.75,0c0-1.55,0-3.11,0-4.66
			C44.51,3.45,45.09,3.45,45.67,3.45z"/>
		<path fill="#211F30" d="M45.67,13.06c0,0.58,0,1.17,0,1.75c-1.07,0-2.141,0-3.2,0c0-0.58,0-1.17,0-1.75c0.29,0,0.58,0,0.87,0
			c0.489,0,0.97,0,1.46,0C45.09,13.06,45.38,13.06,45.67,13.06z"/>
		<path fill="#211F30" d="M47.13,18.59c0,0.29,0,0.59,0,0.88c-1.07,0-2.141,0-3.21,0c0-0.29,0-0.59,0-0.88c0-0.19,0-0.38,0-0.58
			c0.59,0,1.17,0,1.75,0c0.29,0,0.579,0,0.869,0c0.2,0,0.391,0,0.591,0C47.13,18.21,47.13,18.4,47.13,18.59z"/>
		<path fill="#A24745" d="M43.92,18.59c0,0.29,0,0.59,0,0.88c-0.19,0-0.391,0-0.58,0c-0.29,0-0.58,0-0.87,0c0-0.2,0-0.39,0-0.59
			c0-0.29,0-0.58,0-0.87c0.09,0,0.189,0,0.29,0c0.39,0,0.77,0,1.16,0C43.92,18.21,43.92,18.4,43.92,18.59z"/>
		<path fill="#211F30" d="M37.52,38.979c0-0.59,0-1.17,0-1.75c0.29,0,0.58,0,0.87,0c0.189,0,0.39,0,0.58,0c0,0.58,0,1.16,0,1.75
			c-0.19,0-0.391,0-0.58,0C38.1,38.979,37.81,38.979,37.52,38.979z"/>
		<path fill="#211F30" d="M37.52,15.97c0-0.39,0-0.77,0-1.16c0.38,0,0.77,0,1.16,0c0.069-0.04,0.229,0.05,0.29,0
			c0.029-0.02,0-0.26,0-0.29c0-0.1-0.01-0.2,0-0.29c0.02-0.1,0-0.2,0-0.3c0-0.09,0-0.19,0-0.29c0-0.09,0-0.19,0-0.29
			c0-0.1,0-0.19,0-0.29c0.01-0.1,0-0.19,0-0.29c0-0.2,0-0.39,0-0.58c0-0.29,0-0.58,0-0.88c0-0.09,0-0.19,0-0.29
			c0-0.09,0-0.19,0-0.29c0-0.19,0-0.39,0-0.58c0-0.39,0-0.78,0-1.17c0-0.38,0-0.77,0-1.16s0-0.78,0-1.17c0.29,0,0.59,0,0.88,0
			s0.58,0,0.87,0c0,0.1,0,0.2,0,0.3c0,0.09,0,0.19,0,0.29c0,0.19,0,0.39,0,0.58c0,0.29,0,0.58,0,0.87c0,0.68,0,1.36,0,2.04
			c0,0.68,0,1.36,0,2.04c0,0.68,0,1.36,0,2.04c0.58,0,1.16,0,1.75,0c0,0.19,0,0.39,0,0.58c0,0.29,0,0.58,0,0.87
			c-1.65,0-3.3,0-4.95,0C37.52,16.17,37.52,16.07,37.52,15.97z"/>
		<path fill="#211F30" d="M38.1,21.21c-0.2,0-0.39,0-0.58,0c0-0.58,0-1.16,0-1.74c1.65,0,3.3,0,4.95,0c0.29,0,0.58,0,0.87,0
			c0.189,0,0.39,0,0.58,0c0,0.29,0,0.58,0,0.87s0,0.58,0,0.87c-0.771,0-1.551,0-2.33,0c-0.29,0-0.58,0-0.87,0c0,1.27,0,2.53,0,3.79
			c0,0.68,0,1.36,0,2.04c0,0.29,0,0.58,0,0.87c0,0.39,0,0.779,0,1.17c0,1.35,0,2.71,0,4.069c0,1.36,0,2.721,0,4.08
			c-0.58,0-1.16,0-1.75,0c0-2.619,0-5.239,0-7.859c0-0.681,0-1.36,0-2.04c0-0.681,0-1.36,0-2.04s0-1.36,0-2.04c0-0.29,0-0.58,0-0.87
			c0-0.39,0-0.78,0-1.17C38.68,21.21,38.39,21.21,38.1,21.21z"/>
		<path fill="#211F30" d="M38.39,6.65c-0.29,0-0.58,0-0.87,0c0-0.58,0-1.16,0-1.74c0.19,0,0.38,0,0.58,0c0.29,0,0.58,0,0.87,0
			c0,0.58,0,1.16,0,1.74C38.78,6.65,38.58,6.65,38.39,6.65z"/>
		<path fill="#A24745" d="M37.52,14.81c0-0.68,0-1.36,0-2.04c0-0.68,0-1.36,0-2.04c0-1.36,0-2.72,0-4.08c0.29,0,0.58,0,0.87,0
			c0.189,0,0.39,0,0.58,0c0,0.39,0,0.78,0,1.17s0,0.78,0,1.16c0,0.39,0,0.78,0,1.17c0,0.19,0,0.39,0,0.58c0,0.1,0,0.2,0,0.29
			c0,0.1,0,0.2,0,0.29c0,0.3,0,0.59,0,0.88c0,0.19,0,0.38,0,0.58c0,0.1,0.01,0.19,0,0.29c0,0.1,0,0.19,0,0.29c0,0.1,0,0.2,0,0.29
			c0,0.1,0,0.2,0,0.29c0,0.1,0.02,0.2,0,0.3c-0.01,0.09,0,0.19,0,0.29c0,0.03,0.029,0.27,0,0.29c-0.061,0.05-0.221-0.04-0.29,0
			C38.29,14.81,37.9,14.81,37.52,14.81z"/>
		<path fill="#A24745" d="M37.52,4.91c0,0.58,0,1.16,0,1.74c-0.58,0-1.17,0-1.75,0c0-0.58,0-1.16,0-1.74
			C36.35,4.91,36.94,4.91,37.52,4.91z"/>
		<path fill="#853447" d="M37.52,15.97c0,0.1,0,0.2,0,0.29c-0.58,0-1.17,0-1.75,0c0-0.09,0-0.19,0-0.29c0-0.39,0-0.77,0-1.16
			c0.58,0,1.17,0,1.75,0C37.52,15.2,37.52,15.58,37.52,15.97z"/>
		<path fill="#853447" d="M37.52,19.47c0,0.58,0,1.16,0,1.74c-0.58,0-1.17,0-1.75,0c0-0.58,0-1.16,0-1.74
			C36.35,19.47,36.94,19.47,37.52,19.47z"/>
		<path fill="#A24745" d="M37.52,31.99c0-0.681,0-1.36,0-2.04c0-1.16,0-2.33,0-3.5c0-0.58,0-1.16,0-1.74c0-0.29,0-0.58,0-0.88
			c0-0.38,0-0.771,0-1.16c-0.58,0-1.17,0-1.75,0c0-0.19,0-0.39,0-0.58c0-0.29,0-0.58,0-0.88c0.58,0,1.17,0,1.75,0
			c0.19,0,0.38,0,0.58,0c0.29,0,0.58,0,0.87,0c0,0.39,0,0.78,0,1.17c0,0.29,0,0.58,0,0.87c0,0.68,0,1.36,0,2.04s0,1.359,0,2.04
			c0,0.68,0,1.359,0,2.04c0,2.62,0,5.24,0,7.859c-0.19,0-0.391,0-0.58,0c-0.29,0-0.58,0-0.87,0c0-1.17,0-2.33,0-3.5
			C37.52,33.149,37.52,32.57,37.52,31.99z"/>
		<path fill="#A24745" d="M35.77,19.47c0,0.58,0,1.16,0,1.74c-0.19,0-0.39,0-0.58,0c-0.29,0-0.58,0-0.88,0c0-0.58,0-1.16,0-1.74
			c0.3,0,0.59,0,0.88,0C35.38,19.47,35.58,19.47,35.77,19.47z"/>
		<path fill="#A24745" d="M35.77,37.229c0.58,0,1.17,0,1.75,0c0,0.58,0,1.16,0,1.75c-1.07,0-2.14,0-3.21,0c0-1.649,0-3.3,0-4.949
			c0.2,0,0.39,0,0.59,0c0.29,0,0.58,0,0.87,0C35.77,35.09,35.77,36.16,35.77,37.229z"/>
		<path fill="#853447" d="M35.77,18.01c0,0.2,0,0.39,0,0.58c0,0.29,0,0.59,0,0.88c-0.19,0-0.39,0-0.58,0c-0.29,0-0.58,0-0.88,0
			c0-0.2,0-0.39,0-0.59c0-0.29,0-0.58,0-0.87c0.1,0,0.2,0,0.3,0C34.99,18.01,35.38,18.01,35.77,18.01z"/>
		<path fill="#211F30" d="M34.31,45.38c0,0.58,0,1.17,0,1.75c-1.65,0-3.3,0-4.95,0c0-0.58,0-1.17,0-1.75
			C31.01,45.38,32.66,45.38,34.31,45.38z"/>
		<path fill="#853447" d="M34.31,31.99c0,0.189,0,0.39,0,0.58c-0.58,0-1.16,0-1.74,0c0-0.87,0-1.75,0-2.62c0-0.2,0-0.391,0-0.58
			c0.58,0,1.16,0,1.74,0C34.31,30.24,34.31,31.11,34.31,31.99z"/>
		<path fill="#853447" d="M34.31,26.16c0,0.2,0,0.39,0,0.59c0,0.29,0,0.58,0,0.87c-0.58,0-1.16,0-1.74,0c0-0.19,0-0.391,0-0.58
			c0-0.29,0-0.59,0-0.88C33.15,26.16,33.73,26.16,34.31,26.16z"/>
		<path fill="#211F30" d="M35.19,3.45c0.771,0,1.55,0,2.33,0c0,0.2,0,0.39,0,0.58c0,0.3,0,0.59,0,0.88c-0.58,0-1.17,0-1.75,0
			c-1.07,0-2.14,0-3.2,0c0-0.2,0-0.39,0-0.58c0-0.3,0-0.59,0-0.88c0.09,0,0.19,0,0.29,0C33.63,3.45,34.41,3.45,35.19,3.45z"/>
		<path fill="#BA6E54" d="M32.57,43.34c0,0.2,0,0.39,0,0.58c-1.07,0-2.14,0-3.21,0c0-0.58,0-1.16,0-1.74c1.07,0,2.14,0,3.21,0
			C32.57,42.57,32.57,42.96,32.57,43.34z"/>
		<path fill="#211F30" d="M32.57,4.91c0,1.06,0,2.13,0,3.2c-0.2,0-0.39,0-0.59,0c-0.29,0-0.58,0-0.87,0c0-1.07,0-2.14,0-3.2
			c0.29,0,0.58,0,0.87,0C32.18,4.91,32.37,4.91,32.57,4.91z"/>
		<path fill="#853447" d="M32.57,8.11c0,0.87,0,1.75,0,2.62c0,0.29,0,0.58,0,0.88c-0.1,0-0.2,0-0.29,0c-0.39,0-0.78,0-1.17,0
			c0-1.17,0-2.33,0-3.5c0.29,0,0.58,0,0.87,0C32.18,8.11,32.37,8.11,32.57,8.11z"/>
		<path fill="#853447" d="M32.57,13.06c0,0.58,0,1.17,0,1.75c-0.2,0-0.39,0-0.59,0c-0.29,0-0.58,0-0.87,0c0-0.58,0-1.17,0-1.75
			c0.29,0,0.58,0,0.87,0C32.18,13.06,32.37,13.06,32.57,13.06z"/>
		<path fill="#A24745" d="M34.31,40.72c0,1.561,0,3.11,0,4.66c-1.65,0-3.3,0-4.95,0c0-0.19,0-0.39,0-0.58c0-0.29,0-0.58,0-0.88
			c1.07,0,2.14,0,3.21,0c0-0.19,0-0.38,0-0.58c0-0.38,0-0.77,0-1.16c-1.07,0-2.14,0-3.21,0c0-0.189,0-0.39,0-0.58
			c0-0.29,0-0.59,0-0.88c0.59,0,1.17,0,1.75,0c0.29,0,0.58,0,0.87,0C32.76,40.72,33.54,40.72,34.31,40.72z"/>
		<path fill="#853447" d="M26.16,13.06c0.58,0,1.169,0,1.75,0c0,1.65,0,3.3,0,4.95c-0.58,0-1.17,0-1.75,0
			C26.16,16.36,26.16,14.71,26.16,13.06z"/>
		<path fill="#A24745" d="M27.91,18.01c0,0.2,0,0.39,0,0.58c0,0.29,0,0.59,0,0.88c-0.58,0-1.17,0-1.75,0c0-0.39,0-0.78,0-1.17
			c0-0.09,0-0.19,0-0.29C26.74,18.01,27.33,18.01,27.91,18.01z"/>
		<path fill="#A24745" d="M26.16,37.229c2.14,0,4.27,0,6.41,0c0,0.58,0,1.16,0,1.75c-2.72,0-5.439,0-8.16,0c0-0.199,0-0.39,0-0.59
			c0-0.38,0-0.77,0-1.16c0-0.199,0-0.39,0-0.58c0-0.3,0-0.59,0-0.88c0.59,0,1.17,0,1.75,0c0,0.2,0,0.391,0,0.58
			C26.16,36.649,26.16,36.939,26.16,37.229z"/>
		<path fill="#853447" d="M24.41,30.82c0,0.59,0,1.17,0,1.75c-0.19,0-0.39,0-0.58,0c-0.29,0-0.58,0-0.87,0c0-0.58,0-1.16,0-1.75
			c0.29,0,0.58,0,0.87,0C24.02,30.82,24.22,30.82,24.41,30.82z"/>
		<path fill="#853447" d="M26.16,18.3c0,0.39,0,0.78,0,1.17c-0.77,0-1.55,0-2.33,0c-0.87,0-1.75,0-2.62,0c0-0.29,0-0.59,0-0.88
			c0-0.19,0-0.38,0-0.58c1.65,0,3.3,0,4.95,0C26.16,18.11,26.16,18.21,26.16,18.3z"/>
		<path fill="#211F30" d="M23.83,13.91c0,1.06,0,2.13,0,3.2c-0.08,0-0.15,0-0.23,0c0-1.07,0-2.14,0-3.2
			C23.68,13.91,23.75,13.91,23.83,13.91z"/>
		<path fill="#853447" d="M26.16,11.61c0,0.19,0,0.38,0,0.58c0,0.29,0,0.58,0,0.87c-0.29,0-0.58,0-0.87,0c-0.2,0-0.39,0-0.59,0
			c-0.38,0-0.77,0-1.16,0c-0.78,0-1.55,0-2.33,0c0-0.29,0-0.58,0-0.87c0-0.2,0-0.39,0-0.58c0.68,0,1.36,0,2.04,0s1.36,0,2.04,0
			C25.58,11.61,25.87,11.61,26.16,11.61z"/>
		<path fill="#853447" d="M24.41,34.03c0,0.58,0,1.159,0,1.739c-0.29,0-0.58,0-0.87,0c-0.19,0-0.39,0-0.58,0c0-0.58,0-1.159,0-1.739
			c0.09,0,0.19,0,0.29,0C23.64,34.03,24.02,34.03,24.41,34.03z"/>
		<path fill="#211F30" d="M23.6,13.91c0,1.06,0,2.13,0,3.2c-0.12,0-0.24,0-0.35,0c-0.29,0-0.58,0-0.87,0c0-1.07,0-2.14,0-3.2
			c0.29,0,0.58,0,0.87,0C23.36,13.91,23.48,13.91,23.6,13.91z"/>
		<path fill="#F7F9F9" d="M23.83,17.11c0-1.07,0-2.14,0-3.2c-0.08,0-0.15,0-0.23,0c-0.12,0-0.24,0-0.35,0c-0.29,0-0.58,0-0.87,0
			c-0.08,0-0.16,0-0.24,0v3.2c0.08,0,0.16,0,0.24,0c0.29,0,0.58,0,0.87,0c0.11,0,0.23,0,0.35,0C23.68,17.11,23.75,17.11,23.83,17.11
			z M26.16,13.06c0,1.65,0,3.3,0,4.95c-1.65,0-3.3,0-4.95,0c0-0.77,0-1.55,0-2.33c0-0.39,0-0.77,0-1.16c0-0.39,0-0.78,0-1.17
			c0-0.1,0-0.19,0-0.29c0.78,0,1.55,0,2.33,0c0.39,0,0.78,0,1.16,0c0.2,0,0.39,0,0.59,0C25.58,13.06,25.87,13.06,26.16,13.06z"/>
		<path fill="#853447" d="M21.21,15.68c0,0.78,0,1.56,0,2.33c-0.1,0-0.19,0-0.29,0c-0.39,0-0.78,0-1.17,0c0-1.36,0-2.72,0-4.08
			c0-0.29,0-0.58,0-0.87c0.2,0,0.39,0,0.59,0c0.29,0,0.58,0,0.87,0c0,0.1,0,0.19,0,0.29c0,0.39,0,0.78,0,1.17
			C21.21,14.91,21.21,15.29,21.21,15.68z"/>
		<path fill="#A24745" d="M20.63,19.47c-0.29,0-0.58,0-0.88,0c0-0.2,0-0.39,0-0.59c0-0.29,0-0.58,0-0.87c0.39,0,0.78,0,1.17,0
			c0.1,0,0.19,0,0.29,0c0,0.2,0,0.39,0,0.58c0,0.29,0,0.59,0,0.88C21.02,19.47,20.82,19.47,20.63,19.47z"/>
		<path fill="#853447" d="M18.01,27.04c0-0.29,0-0.59,0-0.88s0-0.58,0-0.87s0-0.58,0-0.87c0.39,0,0.77,0,1.16,0c0.2,0,0.39,0,0.58,0
			c0,0.19,0,0.39,0,0.58c0,0.87,0,1.75,0,2.62c-0.58,0-1.16,0-1.74,0C18.01,27.43,18.01,27.229,18.01,27.04z"/>
		<path fill="#211F30" d="M18.01,47.13c-1.56,0-3.11,0-4.66,0c0-0.58,0-1.17,0-1.75c1.55,0,3.1,0,4.66,0
			C18.01,45.96,18.01,46.55,18.01,47.13z"/>
		<path fill="#A24745" d="M18.01,29.37c0,0.189,0,0.38,0,0.58c0,0.29,0,0.58,0,0.87c-0.2,0-0.39,0-0.59,0c-0.29,0-0.58,0-0.87,0
			c0-0.29,0-0.58,0-0.87c0-0.2,0-0.391,0-0.58c0.29,0,0.58,0,0.87,0C17.62,29.37,17.81,29.37,18.01,29.37z"/>
		<path fill="#211F30" d="M27.33,3.45c0.29,0,0.58,0,0.87,0s0.58,0,0.87,0c0.68,0,1.36,0,2.04,0c0,0.2,0,0.39,0,0.58
			c0,0.3,0,0.59,0,0.88c-0.1,0-0.189,0-0.29,0c-0.39,0-0.78,0-1.16,0c-0.3,0-0.59,0-0.88,0c-0.58,0-1.16,0-1.75,0
			c-1.16,0-2.33,0-3.49,0c-2.33,0-4.66,0-6.99,0c0-0.2,0-0.39,0-0.58c0-0.3,0-0.59,0-0.88c0.39,0,0.78,0,1.17,0
			c0.29,0,0.58,0,0.87,0c0.58,0,1.16,0,1.75,0c1.16,0,2.33,0,3.49,0C25,3.45,26.16,3.45,27.33,3.45z"/>
		<path fill="#853447" d="M18.01,18.59c0,0.29,0,0.59,0,0.88c-0.1,0-0.2,0-0.29,0c-0.39,0-0.78,0-1.17,0c0-0.2,0-0.39,0-0.59
			c0-0.29,0-0.58,0-0.87c0.29,0,0.58,0,0.87,0c0.2,0,0.39,0,0.59,0C18.01,18.21,18.01,18.4,18.01,18.59z"/>
		<path fill="#853447" d="M18.01,27.62c0,0.58,0,1.17,0,1.75c-0.2,0-0.39,0-0.59,0c-0.29,0-0.58,0-0.87,0c0-0.58,0-1.17,0-1.75
			c0.2,0,0.39,0,0.58,0C17.42,27.62,17.72,27.62,18.01,27.62z"/>
		<path fill="#211F30" d="M14.81,4.91c0.58,0,1.16,0,1.74,0c0,0.58,0,1.16,0,1.74c-0.58,0-1.16,0-1.74,0
			C14.81,6.07,14.81,5.49,14.81,4.91z"/>
		<path fill="#A24745" d="M22.96,38.1c0,0.29,0,0.59,0,0.88c-2.72,0-5.44,0-8.15,0c0-0.199,0-0.39,0-0.59c0-0.87,0-1.74,0-2.62
			c0.58,0,1.16,0,1.74,0c0,0.2,0,0.391,0,0.58c0,0.3,0,0.59,0,0.88c0.2,0,0.39,0,0.58,0c0.97,0,1.95,0,2.92,0c0.19,0,0.38,0,0.58,0
			c0.29,0,0.58,0,0.87,0c0.2,0,0.39,0,0.58,0c0.3,0,0.59,0,0.88,0C22.96,37.52,22.96,37.81,22.96,38.1z"/>
		<path fill="#853447" d="M14.81,7.53c0-0.29,0-0.58,0-0.88c0.58,0,1.16,0,1.74,0c0,0.2,0,0.39,0,0.59c0,0.29,0,0.58,0,0.87
			c-0.58,0-1.16,0-1.74,0C14.81,7.92,14.81,7.72,14.81,7.53z"/>
		<path fill="#BA6E54" d="M14.81,42.18c0.58,0,1.16,0,1.74,0c0,0.29,0,0.58,0,0.87s0,0.58,0,0.87c-0.19,0-0.39,0-0.58,0
			c-0.87,0-1.75,0-2.62,0c0-0.58,0-1.16,0-1.74c0.19,0,0.39,0,0.58,0C14.22,42.18,14.51,42.18,14.81,42.18z"/>
		<path fill="#A24745" d="M16.55,42.18c-0.58,0-1.16,0-1.74,0c-0.3,0-0.59,0-0.88,0c-0.19,0-0.39,0-0.58,0c0-0.189,0-0.39,0-0.58
			c0-0.29,0-0.59,0-0.88c0.39,0,0.78,0,1.16,0c0.39,0,0.78,0,1.17,0c0.77,0,1.55,0,2.33,0c0,1.561,0,3.11,0,4.66
			c-1.56,0-3.11,0-4.66,0c0-0.19,0-0.39,0-0.58c0-0.29,0-0.58,0-0.88c0.87,0,1.75,0,2.62,0c0.19,0,0.39,0,0.58,0
			c0-0.29,0-0.58,0-0.87S16.55,42.47,16.55,42.18z"/>
		<path fill="#853447" d="M14.81,34.03c0,0.58,0,1.159,0,1.739c-0.3,0-0.59,0-0.88,0c-0.19,0-0.39,0-0.58,0c0-0.58,0-1.159,0-1.739
			c0.1,0,0.19,0,0.29,0C14.03,34.03,14.42,34.03,14.81,34.03z"/>
		<path fill="#A24745" d="M13.35,37.229c0,0.58,0,1.16,0,1.75c-1.17,0-2.33,0-3.5,0c0-0.59,0-1.17,0-1.75
			C11.02,37.229,12.18,37.229,13.35,37.229z"/>
		<path fill="#853447" d="M13.35,24.42c0,0.58,0,1.16,0,1.74c-0.58,0-1.17,0-1.75,0c0-0.58,0-1.16,0-1.74
			C12.18,24.42,12.77,24.42,13.35,24.42z"/>
		<path fill="#BA6E54" d="M32.57,14.81c0-0.58,0-1.17,0-1.75c-0.2,0-0.39,0-0.59,0c-0.29,0-0.58,0-0.87,0c0,0.58,0,1.17,0,1.75
			c0.29,0,0.58,0,0.87,0C32.18,14.81,32.37,14.81,32.57,14.81z M24.41,32.57c0-0.58,0-1.16,0-1.75c-0.19,0-0.39,0-0.58,0
			c-0.29,0-0.58,0-0.87,0c0,0.59,0,1.17,0,1.75c0.29,0,0.58,0,0.87,0C24.02,32.57,24.22,32.57,24.41,32.57z M27.91,19.47
			c0-0.29,0-0.59,0-0.88c0-0.19,0-0.38,0-0.58c0-1.65,0-3.3,0-4.95c-0.58,0-1.17,0-1.75,0c0-0.29,0-0.58,0-0.87c0-0.2,0-0.39,0-0.58
			c-0.29,0-0.58,0-0.87,0c-0.68,0-1.36,0-2.04,0s-1.36,0-2.04,0c0,0.19,0,0.38,0,0.58c0,0.29,0,0.58,0,0.87c-0.29,0-0.58,0-0.87,0
			c-0.2,0-0.39,0-0.59,0c0,0.29,0,0.58,0,0.87c0,1.36,0,2.72,0,4.08c0,0.29,0,0.58,0,0.87c0,0.2,0,0.39,0,0.59c0.3,0,0.59,0,0.88,0
			c0.19,0,0.39,0,0.58,0c0.87,0,1.75,0,2.62,0c0.78,0,1.56,0,2.33,0C26.74,19.47,27.33,19.47,27.91,19.47z M34.31,32.57
			c0-0.19,0-0.391,0-0.58c0-0.88,0-1.75,0-2.62c-0.58,0-1.16,0-1.74,0c0,0.189,0,0.38,0,0.58c0,0.87,0,1.75,0,2.62
			C33.15,32.57,33.73,32.57,34.31,32.57z M34.31,27.62c0-0.29,0-0.58,0-0.87c0-0.2,0-0.39,0-0.59c-0.58,0-1.16,0-1.74,0
			c0,0.29,0,0.59,0,0.88c0,0.189,0,0.39,0,0.58C33.15,27.62,33.73,27.62,34.31,27.62z M47.13,15.1c0,0.39,0,0.78,0,1.16
			c-0.29,0-0.591,0-0.881,0c-0.189,0-0.39,0-0.579,0c0,0.59,0,1.17,0,1.75c-0.58,0-1.16,0-1.75,0c-0.391,0-0.771,0-1.16,0
			c-0.101,0-0.2,0-0.29,0c0,0.29,0,0.58,0,0.87c0,0.2,0,0.39,0,0.59c-1.65,0-3.3,0-4.95,0c-0.58,0-1.17,0-1.75,0
			c0-0.29,0-0.59,0-0.88c0-0.19,0-0.38,0-0.58c-0.39,0-0.78,0-1.16,0c-0.1,0-0.2,0-0.3,0c0,0.29,0,0.58,0,0.87c0,0.2,0,0.39,0,0.59
			c0,0.58,0,1.16,0,1.74c0.3,0,0.59,0,0.88,0c0.19,0,0.39,0,0.58,0c0,0.3,0,0.59,0,0.88c0,0.19,0,0.39,0,0.58c0.58,0,1.17,0,1.75,0
			c0,0.39,0,0.78,0,1.16c0,0.3,0,0.59,0,0.88c0,0.58,0,1.16,0,1.74c0,1.17,0,2.34,0,3.5c0,0.68,0,1.359,0,2.04
			c0,0.58,0,1.159,0,1.739c0,1.17,0,2.33,0,3.5c-0.58,0-1.17,0-1.75,0c0-1.069,0-2.14,0-3.199c-0.29,0-0.58,0-0.87,0
			c-0.2,0-0.39,0-0.59,0c-0.58,0-1.16,0-1.74,0c0,1.06,0,2.13,0,3.199c-2.14,0-4.27,0-6.41,0c0-0.29,0-0.58,0-0.88
			c0-0.189,0-0.38,0-0.58c-0.58,0-1.16,0-1.75,0c0-0.58,0-1.159,0-1.739c-0.39,0-0.77,0-1.16,0c-0.1,0-0.2,0-0.29,0
			c0,0.58,0,1.159,0,1.739c0,0.29,0,0.58,0,0.88c0,0.19,0,0.381,0,0.58c-0.29,0-0.58,0-0.88,0c-0.19,0-0.38,0-0.58,0
			c-0.29,0-0.58,0-0.87,0c-0.2,0-0.39,0-0.58,0c-0.97,0-1.95,0-2.92,0c-0.19,0-0.38,0-0.58,0c0-0.29,0-0.58,0-0.88
			c0-0.189,0-0.38,0-0.58c-0.58,0-1.16,0-1.74,0c0-0.58,0-1.159,0-1.739c-0.39,0-0.78,0-1.17,0c-0.1,0-0.19,0-0.29,0
			c0,0.58,0,1.159,0,1.739c0,0.29,0,0.58,0,0.88c0,0.19,0,0.381,0,0.58c-1.17,0-2.33,0-3.5,0c0-1.55,0-3.109,0-4.659
			c0.59,0,1.17,0,1.75,0c0.29,0,0.58,0,0.88,0c0.19,0,0.38,0,0.58,0c0.58,0,1.16,0,1.75,0c0.29,0,0.58,0,0.87,0s0.58,0,0.87,0
			c0-0.29,0-0.58,0-0.87s0-0.59,0-0.88c0.29,0,0.58,0,0.87,0c0.2,0,0.39,0,0.59,0c0-0.29,0-0.58,0-0.87c0-0.2,0-0.391,0-0.58
			c0-0.58,0-1.17,0-1.75c0.58,0,1.16,0,1.74,0c0-0.87,0-1.75,0-2.62c0-0.19,0-0.39,0-0.58c-0.19,0-0.38,0-0.58,0
			c-0.39,0-0.77,0-1.16,0c0,0.29,0,0.58,0,0.87s0,0.58,0,0.87s0,0.59,0,0.88c0,0.189,0,0.39,0,0.58c-0.29,0-0.59,0-0.88,0
			c-0.19,0-0.38,0-0.58,0c-0.58,0-1.16,0-1.74,0c-0.3,0-0.59,0-0.88,0c-0.19,0-0.39,0-0.58,0c0-0.29,0-0.58,0-0.87
			c0-0.2,0-0.39,0-0.59c0-0.58,0-1.16,0-1.74c-0.58,0-1.17,0-1.75,0c0-0.78,0-1.56,0-2.33c0-0.39,0-0.78,0-1.17
			c0-0.19,0-0.39,0-0.58c0-0.29,0-0.58,0-0.87c-0.58,0-1.16,0-1.75,0c0-0.29,0-0.59,0-0.88c0-0.19,0-0.38,0-0.58
			c1.17,0,2.33,0,3.5,0c0.58,0,1.16,0,1.75,0c0.29,0,0.58,0,0.87,0c0.19,0,0.39,0,0.58,0c0,0.29,0,0.58,0,0.87c0,0.2,0,0.39,0,0.59
			c0.39,0,0.78,0,1.17,0c0.09,0,0.19,0,0.29,0c0-0.29,0-0.59,0-0.88c0-0.19,0-0.38,0-0.58c-0.2,0-0.39,0-0.59,0
			c-0.29,0-0.58,0-0.87,0c0-0.29,0-0.58,0-0.87c0-0.29,0-0.58,0-0.88c-0.58,0-1.16,0-1.74,0c0-0.29,0-0.58,0-0.87
			c0-0.19,0-0.39,0-0.58c0-0.58,0-1.17,0-1.75c-0.3,0-0.59,0-0.88,0c-0.19,0-0.39,0-0.58,0c0-0.29,0-0.58,0-0.87
			c0-0.2,0-0.39,0-0.58c-1.17,0-2.33,0-3.5,0c0-0.88,0-1.75,0-2.63c0-0.77,0-1.55,0-2.33c0.59,0,1.17,0,1.75,0c0-0.58,0-1.16,0-1.74
			c0.2,0,0.39,0,0.58,0c0.3,0,0.59,0,0.88,0c0.19,0,0.39,0,0.58,0c0.39,0,0.78,0,1.17,0c0,0.58,0,1.16,0,1.74c0,0.3,0,0.59,0,0.88
			c0,0.19,0,0.39,0,0.58c0.58,0,1.16,0,1.74,0c0-0.29,0-0.58,0-0.87c0-0.2,0-0.39,0-0.59c0-0.58,0-1.16,0-1.74c2.33,0,4.66,0,6.99,0
			c1.16,0,2.33,0,3.49,0c0.59,0,1.17,0,1.75,0c0.29,0,0.58,0,0.88,0c0.38,0,0.771,0,1.16,0c0.101,0,0.19,0,0.29,0
			c0,1.06,0,2.13,0,3.2c0,1.17,0,2.33,0,3.5c0.39,0,0.78,0,1.17,0c0.09,0,0.19,0,0.29,0c0-0.3,0-0.59,0-0.88c0-0.87,0-1.75,0-2.62
			c0-1.07,0-2.14,0-3.2c1.061,0,2.13,0,3.2,0c0,0.58,0,1.16,0,1.74c0.58,0,1.17,0,1.75,0c0,1.36,0,2.72,0,4.08c0,0.68,0,1.36,0,2.04
			c0,0.68,0,1.36,0,2.04c-0.58,0-1.17,0-1.75,0c0,0.39,0,0.77,0,1.16c0,0.1,0,0.2,0,0.29c0.58,0,1.17,0,1.75,0c1.65,0,3.3,0,4.95,0
			c0-0.29,0-0.58,0-0.87c0-0.19,0-0.39,0-0.58c1.06,0,2.13,0,3.2,0c0.189,0,0.39,0,0.579,0c0.101,0,0.2-0.01,0.29,0
			c0.101,0.01,0.2,0,0.301,0c0.029,0,0.27-0.02,0.29,0C47.17,14.87,47.09,15.03,47.13,15.1z"/>
		<path fill="#A24745" d="M9.85,6.65c0-0.58,0-1.16,0-1.74c0.59,0,1.17,0,1.75,0c0,0.58,0,1.16,0,1.74
			C11.02,6.65,10.44,6.65,9.85,6.65z"/>
		<path fill="#853447" d="M9.85,19.47c0.59,0,1.17,0,1.75,0c0,0.29,0,0.58,0,0.87c0,0.19,0,0.39,0,0.58c0,0.39,0,0.78,0,1.17
			c0,0.771,0,1.55,0,2.33c-0.58,0-1.16,0-1.75,0c0-0.29,0-0.59,0-0.88c0-0.19,0-0.38,0-0.58c0-0.39,0-0.78,0-1.16
			C9.85,21.02,9.85,20.24,9.85,19.47z"/>
		<path fill="#211F30" d="M11.6,27.04c0,0.189,0,0.39,0,0.58c-0.58,0-1.16,0-1.75,0c0-0.19,0-0.391,0-0.58c0-0.29,0-0.59,0-0.88
			c0.59,0,1.17,0,1.75,0C11.6,26.45,11.6,26.75,11.6,27.04z"/>
		<path fill="#211F30" d="M10.14,16.11c0-0.73,0-1.47,0-2.2c0.2,0,0.4,0,0.59,0s0.39,0,0.58,0c0,0.73,0,1.47,0,2.2
			c-0.19,0-0.39,0-0.58,0S10.34,16.11,10.14,16.11z"/>
		<path fill="#211F30" d="M37.52,38.979c0,0.58,0,1.16,0,1.74c-0.58,0-1.17,0-1.75,0c0,1.561,0,3.11,0,4.66c-0.19,0-0.39,0-0.58,0
			c-0.29,0-0.58,0-0.88,0c0-1.55,0-3.1,0-4.66c-0.771,0-1.55,0-2.33,0c-0.29,0-0.58,0-0.87,0c-0.58,0-1.16,0-1.75,0
			c0,0.29,0,0.59,0,0.88c0,0.19,0,0.391,0,0.58c0,0.58,0,1.16,0,1.74c0,0.3,0,0.59,0,0.88c0,0.19,0,0.39,0,0.58
			c-0.189,0-0.38,0-0.58,0c-0.29,0-0.58,0-0.87,0c0-1.55,0-3.1,0-4.66c-0.29,0-0.58,0-0.88,0c-0.58,0-1.16,0-1.74,0
			c-0.29,0-0.59,0-0.88,0c-0.19,0-0.39,0-0.58,0c-0.58,0-1.16,0-1.75,0c-0.29,0-0.58,0-0.87,0c-0.19,0-0.39,0-0.58,0
			c-0.29,0-0.58,0-0.88,0c0,1.561,0,3.11,0,4.66c-0.58,0-1.16,0-1.74,0c0-1.55,0-3.1,0-4.66c-0.78,0-1.56,0-2.33,0
			c-0.39,0-0.78,0-1.17,0c-0.38,0-0.77,0-1.16,0c0,0.29,0,0.59,0,0.88c0,0.19,0,0.391,0,0.58c0,0.58,0,1.16,0,1.74
			c0,0.3,0,0.59,0,0.88c0,0.19,0,0.39,0,0.58c-0.29,0-0.58,0-0.87,0c-0.3,0-0.59,0-0.88,0c0-1.55,0-3.1,0-4.66
			c-0.29,0-0.58,0-0.87,0s-0.58,0-0.88,0c0-0.29,0-0.58,0-0.87s0-0.58,0-0.87c1.17,0,2.33,0,3.5,0c0-0.59,0-1.17,0-1.75
			c0-0.199,0-0.39,0-0.58c0-0.3,0-0.59,0-0.88c0.19,0,0.39,0,0.58,0c0.29,0,0.58,0,0.88,0c0,0.88,0,1.75,0,2.62
			c0,0.2,0,0.391,0,0.59c2.71,0,5.43,0,8.15,0c0-0.29,0-0.59,0-0.88s0-0.58,0-0.87c0-0.199,0-0.39,0-0.58c0-0.3,0-0.59,0-0.88
			c0.19,0,0.39,0,0.58,0c0.29,0,0.58,0,0.87,0c0,0.29,0,0.58,0,0.88c0,0.19,0,0.381,0,0.58c0,0.391,0,0.78,0,1.16
			c0,0.2,0,0.391,0,0.59c2.72,0,5.44,0,8.16,0c0-0.59,0-1.17,0-1.75c0-1.069,0-2.14,0-3.199c0.58,0,1.16,0,1.74,0
			c0,1.649,0,3.3,0,4.949C35.38,38.979,36.45,38.979,37.52,38.979z"/>
		<path fill="#A24745" d="M14.81,27.62c0.58,0,1.16,0,1.74,0c0,0.58,0,1.17,0,1.75c-1.16,0-2.33,0-3.49,0c-0.58,0-1.17,0-1.75,0
			c-0.29,0-0.58,0-0.87,0c-0.2,0-0.39,0-0.59,0c0-0.58,0-1.17,0-1.75c0.59,0,1.17,0,1.75,0c0-0.19,0-0.391,0-0.58
			c0-0.29,0-0.59,0-0.88c0.58,0,1.17,0,1.75,0c0,0.2,0,0.39,0,0.59c0,0.29,0,0.58,0,0.87c0.19,0,0.39,0,0.58,0
			C14.22,27.62,14.51,27.62,14.81,27.62z"/>
		<path fill="#211F30" d="M14.81,4.03c0,0.3,0,0.59,0,0.88c-0.39,0-0.78,0-1.17,0c-0.19,0-0.39,0-0.58,0c-0.29,0-0.58,0-0.88,0
			c-0.19,0-0.38,0-0.58,0c-0.58,0-1.16,0-1.75,0c0-0.2,0-0.39,0-0.58c0-0.3,0-0.59,0-0.88c0.1,0,0.2,0,0.3,0c0.77,0,1.55,0,2.33,0
			c0.77,0,1.55,0,2.33,0C14.81,3.65,14.81,3.84,14.81,4.03z"/>
		<path fill="#211F30" d="M9.85,16.11c0-0.73,0-1.47,0-2.2c0.1,0,0.19,0,0.29,0c0,0.73,0,1.47,0,2.2
			C10.04,16.11,9.95,16.11,9.85,16.11z"/>
		<path fill="#A24745" d="M9.85,8.98c0,0.88,0,1.75,0,2.63c-0.29,0-0.58,0-0.87,0c-0.19,0-0.39,0-0.58,0c0-1.56,0-3.11,0-4.66
			c0-0.1,0-0.2,0-0.3c0.29,0,0.58,0,0.87,0c0.2,0,0.39,0,0.58,0C9.85,7.43,9.85,8.21,9.85,8.98z"/>
		<path fill="#F7F9F9" d="M9.85,13.91c0,0.73,0,1.47,0,2.2c0.1,0,0.19,0,0.29,0c0.2,0,0.4,0,0.59,0s0.39,0,0.58,0
			c0.09,0,0.19,0,0.29,0v-2.2c-0.1,0-0.2,0-0.29,0c-0.19,0-0.39,0-0.58,0s-0.39,0-0.59,0C10.04,13.91,9.95,13.91,9.85,13.91z
			 M13.35,15.68c0,0.2,0,0.39,0,0.58c-0.87,0-1.75,0-2.62,0c-0.78,0-1.56,0-2.33,0c0-0.19,0-0.38,0-0.58c0-0.29,0-0.58,0-0.87
			c0-0.58,0-1.17,0-1.75c0.77,0,1.55,0,2.33,0c0.87,0,1.75,0,2.62,0c0,0.29,0,0.58,0,0.87c0,0.2,0,0.39,0,0.59
			C13.35,14.91,13.35,15.29,13.35,15.68z"/>
		<path fill="#A24745" d="M15.68,32.57c-0.29,0-0.58,0-0.87,0c-0.59,0-1.17,0-1.75,0c-0.2,0-0.39,0-0.58,0c-0.3,0-0.59,0-0.88,0
			c-0.58,0-1.16,0-1.75,0c0,1.55,0,3.109,0,4.659c-0.19,0-0.38,0-0.58,0c-0.29,0-0.58,0-0.87,0c0-0.199,0-0.39,0-0.58
			c0-0.3,0-0.59,0-0.88c0-0.58,0-1.159,0-1.739c0-0.2,0-0.391,0-0.591c0-0.29,0-0.579,0-0.869c0-0.58,0-1.16,0-1.75
			c2.72,0,5.43,0,8.15,0c0,0.29,0,0.59,0,0.88s0,0.58,0,0.87C16.26,32.57,15.97,32.57,15.68,32.57z"/>
		<path fill="#211F30" d="M9.85,37.229c0,0.58,0,1.16,0,1.75c-0.19,0-0.38,0-0.58,0c-0.29,0-0.58,0-0.87,0c0-0.59,0-1.17,0-1.75
			c0.29,0,0.58,0,0.87,0C9.47,37.229,9.66,37.229,9.85,37.229z"/>
		<path fill="#211F30" d="M9.85,4.91c0,0.58,0,1.16,0,1.74c-0.19,0-0.38,0-0.58,0c-0.29,0-0.58,0-0.87,0c0-0.58,0-1.16,0-1.74
			c0.19,0,0.39,0,0.58,0C9.27,4.91,9.56,4.91,9.85,4.91z"/>
		<path fill="#853447" d="M13.35,11.61c0,0.19,0,0.38,0,0.58c0,0.29,0,0.58,0,0.87c-0.87,0-1.75,0-2.62,0c-0.78,0-1.56,0-2.33,0
			c0-0.19,0-0.39,0-0.58c0-0.29,0-0.58,0-0.87c0.19,0,0.39,0,0.58,0c0.29,0,0.58,0,0.87,0C11.02,11.61,12.18,11.61,13.35,11.61z"/>
		<path fill="#853447" d="M14.81,16.26c0.58,0,1.16,0,1.74,0c0,0.3,0,0.59,0,0.88c0,0.29,0,0.58,0,0.87c-0.19,0-0.39,0-0.58,0
			c-0.29,0-0.58,0-0.87,0c-0.59,0-1.17,0-1.75,0c-1.17,0-2.33,0-3.5,0c0,0.2,0,0.39,0,0.58c0,0.29,0,0.59,0,0.88
			c-0.19,0-0.38,0-0.58,0c-0.29,0-0.58,0-0.87,0c0-0.29,0-0.59,0-0.88c0-0.19,0-0.38,0-0.58c-0.58,0-1.17,0-1.75,0
			c0-0.58,0-1.16,0-1.75c0.58,0,1.17,0,1.75,0c0.77,0,1.55,0,2.33,0c0.87,0,1.75,0,2.62,0c0-0.19,0-0.38,0-0.58
			c0-0.39,0-0.77,0-1.16c0-0.2,0-0.39,0-0.59c0-0.29,0-0.58,0-0.87c0.19,0,0.39,0,0.58,0c0.29,0,0.58,0,0.88,0c0,0.58,0,1.17,0,1.75
			c0,0.19,0,0.39,0,0.58C14.81,15.68,14.81,15.97,14.81,16.26z"/>
		<path fill="#211F30" d="M6.65,23.83c0-0.87,0-1.74,0-2.62c0.58,0,1.17,0,1.75,0c0,0.78,0,1.56,0,2.33c0,0.88,0,1.75,0,2.62
			c-0.58,0-1.17,0-1.75,0C6.65,25.39,6.65,24.61,6.65,23.83z"/>
		<path fill="#211F30" d="M6.65,16.26c0-1.55,0-3.1,0-4.65c0-0.78,0-1.56,0-2.33c0-0.88,0-1.75,0-2.63c0.58,0,1.17,0,1.75,0
			c0,0.1,0,0.2,0,0.3c0,1.55,0,3.1,0,4.66c0,0.29,0,0.58,0,0.87c0,0.19,0,0.39,0,0.58c0,0.58,0,1.17,0,1.75c0,0.29,0,0.58,0,0.87
			c0,0.2,0,0.39,0,0.58C7.82,16.26,7.23,16.26,6.65,16.26z"/>
		<path fill="#211F30" d="M6.65,19.47c0,0.58,0,1.16,0,1.74c-0.29,0-0.58,0-0.87,0c-0.2,0-0.39,0-0.58,0c0-0.58,0-1.16,0-1.74
			c0.19,0,0.38,0,0.58,0C6.07,19.47,6.36,19.47,6.65,19.47z"/>
		<path fill="#853447" d="M6.65,21.21c0,0.88,0,1.75,0,2.62c0,0.78,0,1.56,0,2.33c-0.29,0-0.58,0-0.87,0c-0.2,0-0.39,0-0.58,0
			c-0.59,0-1.17,0-1.75,0c0-0.771,0-1.55,0-2.33c0-0.87,0-1.74,0-2.62c0.58,0,1.16,0,1.75,0c0.19,0,0.38,0,0.58,0
			C6.07,21.21,6.36,21.21,6.65,21.21z"/>
		<path fill="#211F30" d="M6.07,30.82c-0.87,0-1.75,0-2.62,0c0-0.19,0-0.391,0-0.58c0-0.29,0-0.58,0-0.87c0.78,0,1.55,0,2.33,0
			c0.87,0,1.75,0,2.62,0c0-0.58,0-1.17,0-1.75c0.19,0,0.39,0,0.58,0c0.29,0,0.58,0,0.87,0c0,0.58,0,1.17,0,1.75c0.2,0,0.39,0,0.59,0
			c0.29,0,0.58,0,0.87,0c0.58,0,1.17,0,1.75,0c1.16,0,2.33,0,3.49,0c0,0.189,0,0.38,0,0.58c0,0.29,0,0.58,0,0.87
			c-2.72,0-5.43,0-8.15,0c0,0.59,0,1.17,0,1.75c0,0.29,0,0.579,0,0.869c0,0.2,0,0.391,0,0.591c0,0.58,0,1.159,0,1.739
			c0,0.29,0,0.58,0,0.88c0,0.19,0,0.381,0,0.58c-0.29,0-0.58,0-0.87,0c-0.3,0-0.59,0-0.88,0c0-0.29,0-0.58,0-0.88
			c0-0.29,0-0.58,0-0.87c0-0.189,0-0.39,0-0.58c0-0.289,0-0.579,0-0.869c0-0.2,0-0.391,0-0.591c0-0.29,0-0.579,0-0.869
			c0-0.58,0-1.16,0-1.75C6.46,30.82,6.26,30.82,6.07,30.82z"/>
		<path fill="#211F30" d="M6.65,26.16c0,0.2,0,0.39,0,0.59c0,0.29,0,0.58,0,0.87c-0.19,0-0.39,0-0.58,0c-0.29,0-0.58,0-0.87,0
			c0-0.19,0-0.391,0-0.58c0-0.29,0-0.59,0-0.88c0.19,0,0.38,0,0.58,0C6.07,26.16,6.36,26.16,6.65,26.16z"/>
		<path fill="#211F30" d="M6.65,16.26c0,0.59,0,1.17,0,1.75c-0.58,0-1.16,0-1.75,0c-0.29,0-0.58,0-0.87,0c-0.19,0-0.39,0-0.58,0
			c0-0.58,0-1.16,0-1.75c0.29,0,0.58,0,0.87,0s0.58,0,0.88,0c0.19,0,0.38,0,0.58,0C6.07,16.26,6.36,16.26,6.65,16.26z"/>
		<path fill="#BA6E54" d="M6.65,27.62c0-0.29,0-0.58,0-0.87c0-0.2,0-0.39,0-0.59c0.58,0,1.17,0,1.75,0c0-0.87,0-1.74,0-2.62
			c0-0.771,0-1.55,0-2.33c-0.58,0-1.17,0-1.75,0c0-0.58,0-1.16,0-1.74c-0.29,0-0.58,0-0.87,0c-0.2,0-0.39,0-0.58,0
			c0,0.58,0,1.16,0,1.74c-0.59,0-1.17,0-1.75,0c0,0.88,0,1.75,0,2.62c0,0.78,0,1.56,0,2.33c0.58,0,1.16,0,1.75,0
			c0,0.29,0,0.59,0,0.88c0,0.189,0,0.39,0,0.58c0.29,0,0.58,0,0.87,0C6.26,27.62,6.46,27.62,6.65,27.62z M3.45,27.62
			c-0.29,0-0.58,0-0.88,0c-0.19,0-0.38,0-0.58,0c0-1.36,0-2.721,0-4.08c0-1.36,0-2.71,0-4.07c0.29,0,0.58,0,0.88,0
			c0.19,0,0.38,0,0.58,0c0-0.29,0-0.59,0-0.88c0-0.19,0-0.38,0-0.58c0.19,0,0.39,0,0.58,0c0.29,0,0.58,0,0.87,0
			c0.59,0,1.17,0,1.75,0s1.17,0,1.75,0c0,0.2,0,0.39,0,0.58c0,0.29,0,0.59,0,0.88c0.29,0,0.58,0,0.87,0c0.2,0,0.39,0,0.58,0
			c0,0.771,0,1.55,0,2.33c0,0.38,0,0.771,0,1.16c0,0.2,0,0.39,0,0.58c0,0.29,0,0.59,0,0.88c0.59,0,1.17,0,1.75,0
			c0,0.58,0,1.16,0,1.74c-0.58,0-1.16,0-1.75,0c0,0.29,0,0.59,0,0.88c0,0.189,0,0.39,0,0.58c-0.29,0-0.58,0-0.87,0
			c-0.19,0-0.39,0-0.58,0c0,0.58,0,1.17,0,1.75c-0.87,0-1.75,0-2.62,0c-0.78,0-1.55,0-2.33,0C3.45,28.79,3.45,28.2,3.45,27.62z"/>
		<path fill="#211F30" d="M2.57,27.62c0.3,0,0.59,0,0.88,0c0,0.58,0,1.17,0,1.75c-0.2,0-0.39,0-0.58,0c-0.3,0-0.59,0-0.88,0
			c0-0.58,0-1.17,0-1.75C2.19,27.62,2.38,27.62,2.57,27.62z"/>
		<path fill="#211F30" d="M2.57,18.01c0.3,0,0.59,0,0.88,0c0,0.2,0,0.39,0,0.58c0,0.29,0,0.59,0,0.88c-0.2,0-0.39,0-0.58,0
			c-0.3,0-0.59,0-0.88,0c0-0.2,0-0.39,0-0.59c0-0.29,0-0.58,0-0.87C2.19,18.01,2.38,18.01,2.57,18.01z"/>
		<path fill="#211F30" d="M1.99,23.54c0,1.359,0,2.72,0,4.08c-0.29,0-0.58,0-0.87,0s-0.58,0-0.87,0c0-0.101,0-0.19,0-0.29
			c0-0.101,0-0.2,0-0.29c0-0.2,0-0.391,0-0.59c0-0.29,0-0.58,0-0.87c0-0.681,0-1.36,0-2.04s0-1.36,0-2.03c0-0.68,0-1.36,0-2.04
			c0.58,0,1.16,0,1.74,0C1.99,20.83,1.99,22.18,1.99,23.54z"/>
	</g>
	<g>
	</g>
</g>
</svg>
