<?xml version="1.0" encoding="utf-8"?>
<!-- Generator: Adobe Illustrator 15.0.0, SVG Export Plug-In  -->
<!DOCTYPE svg PUBLIC "-//W3C//DTD SVG 1.1//EN" "http://www.w3.org/Graphics/SVG/1.1/DTD/svg11.dtd" [
	<!ENTITY ns_flows "http://ns.adobe.com/Flows/1.0/">
]>
<svg version="1.1"
	 xmlns="http://www.w3.org/2000/svg" xmlns:xlink="http://www.w3.org/1999/xlink" xmlns:a="http://ns.adobe.com/AdobeSVGViewerExtensions/3.0/"
	 x="0px" y="0px" width="70px" height="55px" viewBox="-9.51 -7.87 70 55" enable-background="new -9.51 -7.87 70 55"
	 xml:space="preserve">
<defs>
</defs>
<g id="XMLID_2_">
	<g>
		<path fill="#F7F9F9" d="M11.54,18.74v2.47c-0.19,0-0.39,0-0.58,0c-0.03,0-0.05,0-0.08,0c0-0.82,0-1.65,0-2.47
			c0.03,0,0.05,0,0.08,0C11.15,18.74,11.35,18.74,11.54,18.74z"/>
		<path fill="#211F30" d="M58.49,12.19c0,0.29,0,0.58,0,0.87c-0.2,0-0.39,0-0.58,0c-0.3,0-0.59,0-0.88,0c0-0.19,0-0.39,0-0.58
			c0-0.29,0-0.58,0-0.87c0-0.59,0-1.17,0-1.75c0.2,0,0.39,0,0.58,0c0.3,0,0.59,0,0.88,0c0,0.58,0,1.16,0,1.75
			C58.49,11.8,58.49,11.99,58.49,12.19z"/>
		<path fill="#211F30" d="M57.03,13.06c0,0.58,0,1.17,0,1.75c-0.58,0-1.16,0-1.75,0c0-0.58,0-1.17,0-1.75
			C55.87,13.06,56.45,13.06,57.03,13.06z"/>
		<path fill="#211F30" d="M57.03,8.11c0,0.58,0,1.17,0,1.75c-0.58,0-1.16,0-1.75,0c0-0.58,0-1.17,0-1.75
			C55.87,8.11,56.45,8.11,57.03,8.11z"/>
		<path fill="#619E43" d="M57.03,12.48c0,0.19,0,0.39,0,0.58c-0.58,0-1.16,0-1.75,0c0,0.58,0,1.17,0,1.75c-1.55,0-3.1,0-4.65,0
			c0-0.58,0-1.17,0-1.75c-0.59,0-1.17,0-1.75,0c0-0.58,0-1.16,0-1.75c0-0.29,0-0.58,0-0.87c0-0.19,0-0.39,0-0.58
			c0.58,0,1.16,0,1.75,0c0-0.58,0-1.17,0-1.75c1.551,0,3.101,0,4.65,0c0,0.58,0,1.17,0,1.75c0.59,0,1.17,0,1.75,0
			c0,0.58,0,1.16,0,1.75C57.03,11.9,57.03,12.19,57.03,12.48z"/>
		<path fill="#211F30" d="M55.28,14.81c0,0.19,0,0.39,0,0.58c0,0.29,0,0.58,0,0.87c-1.55,0-3.1,0-4.65,0c0-0.29,0-0.58,0-0.87
			c0-0.19,0-0.39,0-0.58C52.181,14.81,53.73,14.81,55.28,14.81z"/>
		<path fill="#211F30" d="M55.28,7.24c0,0.29,0,0.58,0,0.87c-1.55,0-3.1,0-4.65,0c0-1.55,0-3.11,0-4.66c0.19,0,0.391,0,0.58,0
			c0.29,0,0.58,0,0.87,0c0,0.78,0,1.55,0,2.33c0,0.29,0,0.58,0,0.87c0.2,0,0.391,0,0.58,0c0.88,0,1.75,0,2.62,0
			C55.28,6.85,55.28,7.04,55.28,7.24z"/>
		<path fill="#211F30" d="M50.63,16.26c0,0.59,0,1.17,0,1.75c-0.59,0-1.17,0-1.75,0c0-0.58,0-1.16,0-1.75
			C49.46,16.26,50.04,16.26,50.63,16.26z"/>
		<path fill="#211F30" d="M50.63,1.7c0,0.59,0,1.17,0,1.75c-0.59,0-1.17,0-1.75,0c0-0.58,0-1.16,0-1.75
			C49.46,1.7,50.04,1.7,50.63,1.7z"/>
		<path fill="#211F30" d="M50.63,8.11c0,0.58,0,1.17,0,1.75c-0.59,0-1.17,0-1.75,0c0-0.58,0-1.17,0-1.75
			C49.46,8.11,50.04,8.11,50.63,8.11z"/>
		<path fill="#211F30" d="M50.63,13.06c0,0.58,0,1.17,0,1.75c-0.59,0-1.17,0-1.75,0c0-0.58,0-1.17,0-1.75
			C49.46,13.06,50.04,13.06,50.63,13.06z"/>
		<path fill="#211F30" d="M48.88,18.01c0,0.2,0,0.39,0,0.58c0,0.29,0,0.59,0,0.88c-0.58,0-1.17,0-1.75,0c0-0.29,0-0.59,0-0.88
			c0-0.19,0-0.38,0-0.58C47.71,18.01,48.3,18.01,48.88,18.01z"/>
		<path fill="#619E43" d="M45.681,3.45c0-0.58,0-1.16,0-1.75c0.189,0,0.38,0,0.579,0c0.29,0,0.58,0,0.87,0c0.2,0,0.391,0,0.58,0
			c0.391,0,0.78,0,1.17,0c0,0.59,0,1.17,0,1.75c0.58,0,1.16,0,1.75,0c0,1.55,0,3.11,0,4.66c-0.59,0-1.17,0-1.75,0
			c0,0.58,0,1.17,0,1.75c-0.58,0-1.17,0-1.75,0c-0.29,0-0.58,0-0.87,0c-0.199,0-0.39,0-0.579,0c0-0.58,0-1.17,0-1.75
			c-0.591,0-1.171,0-1.75,0c0-1.55,0-3.11,0-4.66C44.51,3.45,45.09,3.45,45.681,3.45z"/>
		<path fill="#A24745" d="M46.55,16.26c-0.29,0-0.579,0-0.869,0c0-0.19,0-0.38,0-0.58c0-0.29,0-0.58,0-0.87c0.29,0,0.579,0,0.869,0
			c0.19,0,0.391,0,0.58,0c0-0.58,0-1.17,0-1.75c0.58,0,1.17,0,1.75,0c0,0.58,0,1.17,0,1.75c0.58,0,1.16,0,1.75,0
			c0,0.19,0,0.39,0,0.58c0,0.29,0,0.58,0,0.87c-0.59,0-1.17,0-1.75,0c0,0.59,0,1.17,0,1.75c-0.58,0-1.17,0-1.75,0
			c0-0.58,0-1.16,0-1.75C46.94,16.26,46.74,16.26,46.55,16.26z"/>
		<path fill="#211F30" d="M46.26,9.86c0.29,0,0.58,0,0.87,0c0.58,0,1.17,0,1.75,0c0,0.19,0,0.39,0,0.58c0,0.29,0,0.58,0,0.87
			c0,0.59,0,1.17,0,1.75c-0.58,0-1.17,0-1.75,0c0-0.29,0-0.58,0-0.87c0-0.2,0-0.39,0-0.58c-0.189,0-0.39,0-0.58,0
			c-0.29,0-0.579,0-0.869,0c0-0.59,0-1.17,0-1.75C45.87,9.86,46.061,9.86,46.26,9.86z"/>
		<path fill="#211F30" d="M46.55,14.81c-0.29,0-0.579,0-0.869,0c0-0.58,0-1.17,0-1.75c0.189,0,0.38,0,0.579,0c0.29,0,0.58,0,0.87,0
			c0,0.58,0,1.17,0,1.75C46.94,14.81,46.74,14.81,46.55,14.81z"/>
		<path fill="#211F30" d="M45.681,0.25c0.579,0,1.159,0,1.739,0c0.2,0,0.391,0,0.59,0c0.29,0,0.58,0,0.87,0c0,0.19,0,0.39,0,0.58
			c0,0.29,0,0.58,0,0.87c-0.39,0-0.779,0-1.17,0c-0.189,0-0.38,0-0.58,0c-0.29,0-0.58,0-0.87,0c-0.199,0-0.39,0-0.579,0
			c0-0.19,0-0.38,0-0.58C45.681,0.83,45.681,0.54,45.681,0.25z"/>
		<path fill="#A24745" d="M46.55,19.47c-0.29,0-0.579,0-0.869,0c0-0.2,0-0.39,0-0.59c0-0.29,0-0.58,0-0.87c0.189,0,0.38,0,0.579,0
			c0.29,0,0.58,0,0.87,0c0,0.2,0,0.39,0,0.58c0,0.29,0,0.59,0,0.88C46.94,19.47,46.74,19.47,46.55,19.47z"/>
		<path fill="#211F30" d="M45.681,1.7c0,0.59,0,1.17,0,1.75c-0.591,0-1.171,0-1.75,0c0-0.58,0-1.16,0-1.75
			C44.51,1.7,45.09,1.7,45.681,1.7z"/>
		<path fill="#211F30" d="M45.681,8.11c0,0.58,0,1.17,0,1.75c-0.591,0-1.171,0-1.75,0c0-0.58,0-1.17,0-1.75
			C44.51,8.11,45.09,8.11,45.681,8.11z"/>
		<path fill="#211F30" d="M46.55,19.47c0.19,0,0.391,0,0.58,0c0,0.58,0,1.16,0,1.74c-1.069,0-2.13,0-3.199,0c0-0.58,0-1.16,0-1.74
			c0.579,0,1.159,0,1.75,0C45.971,19.47,46.26,19.47,46.55,19.47z"/>
		<path fill="#211F30" d="M43.931,3.45c0,1.55,0,3.11,0,4.66c-0.19,0-0.391,0-0.58,0c-0.29,0-0.591,0-0.88,0c0-1.55,0-3.11,0-4.66
			c0.199,0,0.39,0,0.59,0C43.351,3.45,43.641,3.45,43.931,3.45z"/>
		<path fill="#211F30" d="M45.681,15.68c0,0.2,0,0.39,0,0.58c-1.07,0-2.141,0-3.21,0c0-0.19,0-0.38,0-0.58c0-0.29,0-0.58,0-0.87
			c0.289,0,0.59,0,0.88,0s0.58,0,0.87,0c0.199,0,0.39,0,0.579,0c0.29,0,0.58,0,0.881,0C45.681,15.1,45.681,15.39,45.681,15.68z"/>
		<path fill="#A24745" d="M43.931,19.47c0,0.58,0,1.16,0,1.74c-0.19,0-0.391,0-0.58,0c-0.29,0-0.591,0-0.88,0c0-0.58,0-1.16,0-1.74
			c0.1,0,0.199,0,0.289,0C43.15,19.47,43.54,19.47,43.931,19.47z"/>
		<path fill="#211F30" d="M43.931,21.21c0,0.2,0,0.39,0,0.59c0,0.29,0,0.58,0,0.87c-0.29,0-0.58,0-0.87,0c-0.301,0-0.59,0-0.88,0
			c-0.19,0-0.391,0-0.58,0c-0.29,0-0.58,0-0.87,0c0-0.19,0-0.39,0-0.58c0-0.29,0-0.58,0-0.88c0.58,0,1.16,0,1.74,0
			c0.289,0,0.59,0,0.88,0C43.54,21.21,43.74,21.21,43.931,21.21z"/>
		<path fill="#211F30" d="M39.271,16.56c0-0.59,0-1.17,0-1.75c0-1.07,0-2.14,0-3.2c0.189,0,0.39,0,0.58,0c0.29,0,0.59,0,0.88,0
			c0,1.55,0,3.1,0,4.65c0.189,0,0.38,0,0.58,0c0.39,0,0.779,0,1.16,0c0,0.59,0,1.17,0,1.75c-1.061,0-2.131,0-3.2,0
			C39.271,17.53,39.271,17.04,39.271,16.56z"/>
		<path fill="#211F30" d="M39.271,9.86c0,0.58,0,1.16,0,1.75c-0.58,0-1.16,0-1.74,0c0-0.59,0-1.17,0-1.75
			C38.11,9.86,38.69,9.86,39.271,9.86z"/>
		<path fill="#A24745" d="M39.271,16.56c0,0.48,0,0.97,0,1.45c-0.58,0-1.16,0-1.74,0c0-0.48,0-0.97,0-1.45c0-0.59,0-1.17,0-1.75
			c0-1.07,0-2.14,0-3.2c0.58,0,1.16,0,1.74,0c0,1.06,0,2.13,0,3.2C39.271,15.39,39.271,15.97,39.271,16.56z"/>
		<path fill="#211F30" d="M39.271,18.01c0,0.2,0,0.39,0,0.58c0,0.29,0,0.59,0,0.88c-0.58,0-1.16,0-1.74,0c0-0.29,0-0.59,0-0.88
			c0-0.19,0-0.38,0-0.58C38.11,18.01,38.69,18.01,39.271,18.01z"/>
		<path fill="#211F30" d="M39.271,42.18c0,0.58,0,1.16,0,1.74c-0.58,0-1.16,0-1.74,0c0-0.58,0-1.16,0-1.74
			C38.11,42.18,38.69,42.18,39.271,42.18z"/>
		<path fill="#211F30" d="M39.271,33.439c0-1.449,0-2.909,0-4.359c0-0.78,0-1.561,0-2.33c0-0.68,0-1.36,0-2.04c0-0.1,0-0.2,0-0.29
			c-0.29,0-0.58,0-0.87,0s-0.59,0-0.87,0c0-0.59,0-1.17,0-1.75c0.19,0,0.38,0,0.58,0c0.29,0,0.58,0,0.87,0s0.58,0,0.87,0
			s0.59,0,0.88,0c0,1.55,0,3.11,0,4.66c0,0.78,0,1.55,0,2.33c0,0.87,0,1.75,0,2.62c0,3.3,0,6.6,0,9.899c-0.2,0-0.391,0-0.59,0
			c-0.29,0-0.58,0-0.87,0c0-1.46,0-2.91,0-4.37S39.271,34.899,39.271,33.439z"/>
		<path fill="#A24745" d="M37.53,26.16c-0.2,0-0.39,0-0.59,0c-0.29,0-0.58,0-0.87,0c0-0.29,0-0.58,0-0.87s0-0.58,0-0.87
			c0.29,0,0.58,0,0.87,0c0.2,0,0.39,0,0.59,0c0.28,0,0.58,0,0.87,0s0.58,0,0.87,0c0,0.09,0,0.19,0,0.29c0,0.68,0,1.36,0,2.04
			c0,0.77,0,1.55,0,2.33c0,1.45,0,2.91,0,4.359c0,1.46,0,2.91,0,4.37s0,2.91,0,4.37c-0.58,0-1.16,0-1.74,0c0-1.26,0-2.52,0-3.79
			c0-1.359,0-2.71,0-4.069c0-1.36,0-2.721,0-4.08C37.53,28.88,37.53,27.52,37.53,26.16z"/>
		<path fill="#A24745" d="M36.94,11.61c-0.29,0-0.58,0-0.87,0c0-0.59,0-1.17,0-1.75c0.39,0,0.77,0,1.16,0c0.1,0,0.2,0,0.3,0
			c0,0.58,0,1.16,0,1.75C37.33,11.61,37.141,11.61,36.94,11.61z"/>
		<path fill="#853447" d="M36.94,19.47c-0.29,0-0.58,0-0.87,0c0-0.39,0-0.78,0-1.17c0-0.09,0-0.19,0-0.29c0.189,0,0.39,0,0.58,0
			c0.29,0,0.58,0,0.88,0c0,0.2,0,0.39,0,0.58c0,0.29,0,0.59,0,0.88C37.33,19.47,37.141,19.47,36.94,19.47z"/>
		<path fill="#853447" d="M36.65,22.67c0.29,0,0.58,0,0.88,0c0,0.58,0,1.16,0,1.75c-0.2,0-0.39,0-0.59,0c-0.29,0-0.58,0-0.87,0
			c0-0.59,0-1.17,0-1.75C36.26,22.67,36.46,22.67,36.65,22.67z"/>
		<path fill="#853447" d="M36.07,21.21c0,0.2,0,0.39,0,0.59c0,0.29,0,0.58,0,0.87c-0.59,0-1.17,0-1.75,0c0-0.19,0-0.39,0-0.58
			c0-0.29,0-0.58,0-0.88C34.9,21.21,35.48,21.21,36.07,21.21z"/>
		<path fill="#A24745" d="M36.07,22.67c0,0.58,0,1.16,0,1.75c-0.59,0-1.17,0-1.75,0c0-0.59,0-1.17,0-1.75
			C34.9,22.67,35.48,22.67,36.07,22.67z"/>
		<path fill="#A24745" d="M36.36,42.18c0.1,0,0.189,0,0.29,0c0.29,0,0.58,0,0.88,0c0,0.58,0,1.16,0,1.74c-1.07,0-2.14,0-3.21,0
			c0-1.64,0-3.29,0-4.94c0.58,0,1.16,0,1.75,0c0,0.091,0,0.19,0,0.29c0,0.391,0,0.771,0,1.16c0,0.2,0,0.391,0,0.58
			c0,0.3,0,0.59,0,0.88c0.04,0.061-0.05,0.23,0,0.29C36.09,42.2,36.32,42.18,36.36,42.18z"/>
		<path fill="#853447" d="M34.32,34.03c0,1.06,0,2.13,0,3.199c-0.58,0-1.16,0-1.75,0c0-1.069,0-2.14,0-3.199
			C33.16,34.03,33.74,34.03,34.32,34.03z"/>
		<path fill="#853447" d="M34.32,30.82c0,0.59,0,1.17,0,1.75c-0.58,0-1.16,0-1.75,0c0-0.58,0-1.16,0-1.75
			C33.16,30.82,33.74,30.82,34.32,30.82z"/>
		<path fill="#211F30" d="M32.86,8.11c1.56,0,3.11,0,4.67,0c0,0.58,0,1.17,0,1.75c-0.1,0-0.2,0-0.3,0c-0.391,0-0.771,0-1.16,0
			c-1.17,0-2.33,0-3.5,0c0-0.58,0-1.17,0-1.75C32.67,8.11,32.771,8.11,32.86,8.11z"/>
		<path fill="#853447" d="M32.57,13.06c0,1.07,0,2.14,0,3.2c-0.09,0-0.19,0-0.29,0c-0.39,0-0.771,0-1.16,0c0-0.19,0-0.38,0-0.58
			c0-0.39,0-0.77,0-1.16c0-0.2,0-0.39,0-0.59c0-0.29,0-0.58,0-0.87c0.29,0,0.58,0,0.87,0C32.19,13.06,32.38,13.06,32.57,13.06z"/>
		<path fill="#853447" d="M32.57,18.01c0,0.2,0,0.39,0,0.58c0,0.29,0,0.59,0,0.88c-0.19,0-0.38,0-0.58,0c-0.29,0-0.58,0-0.87,0
			c0-0.2,0-0.39,0-0.59c0-0.29,0-0.58,0-0.87c0.19,0,0.39,0,0.58,0C31.99,18.01,32.28,18.01,32.57,18.01z"/>
		<path fill="#211F30" d="M32.57,9.86c0,0.19,0,0.39,0,0.58c0,0.29,0,0.58,0,0.87c0,0.59,0,1.17,0,1.75c-0.19,0-0.38,0-0.58,0
			c-0.29,0-0.58,0-0.87,0c0-0.19,0-0.39,0-0.58c0-0.29,0-0.58,0-0.87c0-0.59,0-1.17,0-1.75c0.29,0,0.58,0,0.87,0
			C32.19,9.86,32.38,9.86,32.57,9.86z"/>
		<path fill="#211F30" d="M31.12,9.86c-4.85,0-9.71,0-14.56,0c0-0.29,0-0.58,0-0.88c0-0.29,0-0.58,0-0.87c4.85,0,9.71,0,14.56,0
			C31.12,8.69,31.12,9.28,31.12,9.86z"/>
		<path fill="#853447" d="M27.91,18.01c0,1.55,0,3.11,0,4.66c-0.58,0-1.16,0-1.74,0c0-1.55,0-3.11,0-4.66
			C26.75,18.01,27.33,18.01,27.91,18.01z"/>
		<path fill="#A24745" d="M27.91,22.67c0,0.58,0,1.16,0,1.75c-0.58,0-1.16,0-1.74,0c0-0.59,0-1.17,0-1.75
			C26.75,22.67,27.33,22.67,27.91,22.67z"/>
		<path fill="#853447" d="M26.17,22.67c0,0.58,0,1.16,0,1.75c-1.56,0-3.11,0-4.66,0c0-0.59,0-1.17,0-1.75
			C23.06,22.67,24.61,22.67,26.17,22.67z"/>
		<path fill="#853447" d="M26.17,16.26c0,0.59,0,1.17,0,1.75c-1.56,0-3.11,0-4.66,0c0-0.58,0-1.16,0-1.75
			C23.06,16.26,24.61,16.26,26.17,16.26z"/>
		<path fill="#A24745" d="M32.57,42.18c0,0.58,0,1.16,0,1.74c-2.62,0-5.24,0-7.86,0c0-0.19,0-0.38,0-0.58c0-0.87,0-1.74,0-2.62
			c0.19,0,0.39,0,0.58,0c0.29,0,0.59,0,0.88,0c0,0.101,0,0.2,0,0.29c0,0.39,0,0.78,0,1.17C28.3,42.18,30.44,42.18,32.57,42.18z"/>
		<path fill="#853447" d="M24.71,38.979c0,0.58,0,1.16,0,1.74c-0.58,0-1.16,0-1.75,0c0-0.58,0-1.16,0-1.74
			C23.55,38.979,24.13,38.979,24.71,38.979z"/>
		<path fill="#211F30" d="M24.27,18.74c0,1.07,0,2.13,0,3.2c-0.19,0-0.39,0-0.58,0c-0.29,0-0.58,0-0.88,0c0-1.069,0-2.129,0-3.2
			c0.3,0,0.59,0,0.88,0C23.88,18.74,24.08,18.74,24.27,18.74z"/>
		<path fill="#853447" d="M24.71,35.77c0,0.2,0,0.391,0,0.58c0,0.3,0,0.59,0,0.88c-0.58,0-1.16,0-1.75,0c0-0.199,0-0.39,0-0.58
			c0-0.3,0-0.59,0-0.88C23.55,35.77,24.13,35.77,24.71,35.77z"/>
		<path fill="#F7F9F9" d="M24.27,21.939c0-1.069,0-2.129,0-3.2c-0.19,0-0.39,0-0.58,0c-0.29,0-0.58,0-0.88,0c0,1.07,0,2.13,0,3.2
			c0.3,0,0.59,0,0.88,0C23.88,21.939,24.08,21.939,24.27,21.939z M26.17,18.01c0,1.55,0,3.11,0,4.66c-1.56,0-3.11,0-4.66,0
			c0-1.55,0-3.11,0-4.66C23.06,18.01,24.61,18.01,26.17,18.01z"/>
		<path fill="#853447" d="M19.76,18.01c0.58,0,1.17,0,1.75,0c0,1.55,0,3.11,0,4.66c-0.58,0-1.17,0-1.75,0
			C19.76,21.12,19.76,19.56,19.76,18.01z"/>
		<path fill="#A24745" d="M19.76,22.67c0.58,0,1.17,0,1.75,0c0,0.58,0,1.16,0,1.75c-0.58,0-1.17,0-1.75,0
			C19.76,23.83,19.76,23.25,19.76,22.67z"/>
		<path fill="#853447" d="M19.76,30.82c0,0.199,0,0.39,0,0.59c0,0.87,0,1.739,0,2.62c-0.58,0-1.16,0-1.75,0c0-0.49,0-0.971,0-1.46
			c0-0.58,0-1.16,0-1.75c0.39,0,0.78,0,1.17,0C19.37,30.82,19.57,30.82,19.76,30.82z"/>
		<path fill="#853447" d="M18.01,22.67c0,0.58,0,1.16,0,1.75c-0.09,0-0.19,0-0.29,0c-0.38,0-0.77,0-1.16,0c0-0.59,0-1.17,0-1.75
			c0.19,0,0.39,0,0.58,0C17.43,22.67,17.72,22.67,18.01,22.67z"/>
		<path fill="#A24745" d="M18.01,35.77c0,0.2,0,0.391,0,0.58c0,0.3,0,0.59,0,0.88c-0.19,0-0.39,0-0.58,0c-0.29,0-0.58,0-0.87,0
			c0-0.39,0-0.779,0-1.17c0-0.09,0-0.189,0-0.29c0.29,0,0.58,0,0.87,0C17.62,35.77,17.82,35.77,18.01,35.77z"/>
		<path fill="#853447" d="M18.01,34.03c0,0.58,0,1.159,0,1.739c-0.19,0-0.39,0-0.58,0c-0.29,0-0.58,0-0.87,0c0-0.58,0-1.159,0-1.739
			c0.19,0,0.39,0,0.58,0C17.43,34.03,17.72,34.03,18.01,34.03z"/>
		<path fill="#211F30" d="M16.56,9.86c0,0.58,0,1.16,0,1.75c-0.58,0-1.17,0-1.75,0c0-0.59,0-1.17,0-1.75
			C15.39,9.86,15.98,9.86,16.56,9.86z"/>
		<path fill="#A24745" d="M22.96,43.92c-2.71,0-5.43,0-8.15,0c0-0.19,0-0.38,0-0.58c0-0.87,0-1.74,0-2.62c0.58,0,1.17,0,1.75,0
			c0,0.2,0,0.391,0,0.59c0,0.29,0,0.58,0,0.87c2.13,0,4.27,0,6.4,0c0,0.29,0,0.58,0,0.87S22.96,43.63,22.96,43.92z"/>
		<path fill="#853447" d="M16.56,11.61c0,0.19,0,0.38,0,0.58c0,0.29,0,0.58,0,0.87c-0.58,0-1.17,0-1.75,0c0-0.19,0-0.39,0-0.58
			c0-0.29,0-0.58,0-0.87C15.39,11.61,15.98,11.61,16.56,11.61z"/>
		<path fill="#211F30" d="M34.32,45.38c0,0.58,0,1.17,0,1.75c-0.87,0-1.75,0-2.62,0c-0.78,0-1.55,0-2.33,0c0-0.58,0-1.17,0-1.75
			c-3.79,0-7.57,0-11.36,0c0,0.29,0,0.58,0,0.88c0,0.29,0,0.58,0,0.87c-1.55,0-3.1,0-4.65,0c0-0.58,0-1.17,0-1.75
			c-1.07,0-2.14,0-3.21,0c0-0.19,0-0.39,0-0.58c0-0.29,0-0.58,0-0.88c1.07,0,2.14,0,3.21,0c0-0.58,0-1.16,0-1.74
			c0-0.189,0-0.39,0-0.58c0-0.29,0-0.59,0-0.88c0.29,0,0.58,0,0.87,0c0.19,0,0.39,0,0.58,0c0,0.88,0,1.75,0,2.62
			c0,0.2,0,0.39,0,0.58c2.72,0,5.44,0,8.15,0c0-0.29,0-0.58,0-0.87s0-0.58,0-0.87c0-0.189,0-0.39,0-0.58c0-0.29,0-0.59,0-0.88
			c0.59,0,1.17,0,1.75,0c0,0.88,0,1.75,0,2.62c0,0.2,0,0.39,0,0.58c2.62,0,5.24,0,7.86,0c0-0.58,0-1.16,0-1.74c0-1.069,0-2.14,0-3.2
			c0.59,0,1.17,0,1.75,0c0,1.65,0,3.301,0,4.94c1.07,0,2.14,0,3.21,0c0,0.2,0,0.39,0,0.59c0,0.29,0,0.58,0,0.87
			C36.46,45.38,35.391,45.38,34.32,45.38z"/>
		<path fill="#853447" d="M14.23,40.72c-0.29,0-0.58,0-0.87,0c0-0.58,0-1.16,0-1.74c0.19,0,0.38,0,0.58,0c0.29,0,0.58,0,0.87,0
			c0,0.58,0,1.16,0,1.74C14.62,40.72,14.42,40.72,14.23,40.72z"/>
		<path fill="#BA6E54" d="M13.36,41.6c0,0.19,0,0.391,0,0.58c-0.59,0-1.17,0-1.75,0c-0.29,0-0.58,0-0.88,0c-0.19,0-0.38,0-0.58,0
			c0-1.069,0-2.14,0-3.2c0.29,0,0.58,0,0.88,0c0.29,0,0.58,0,0.87,0c0.19,0,0.39,0,0.58,0c0.29,0,0.58,0,0.88,0
			c0,0.58,0,1.16,0,1.74C13.36,41.01,13.36,41.31,13.36,41.6z"/>
		<path fill="#853447" d="M13.36,30.82c0,0.59,0,1.17,0,1.75c-0.59,0-1.17,0-1.75,0c0-0.58,0-1.16,0-1.75
			C12.19,30.82,12.77,30.82,13.36,30.82z"/>
		<path fill="#A24745" d="M16.56,35.77c-2.14,0-4.27,0-6.41,0c0-0.58,0-1.159,0-1.739c0.29,0,0.58,0,0.88,0c0.19,0,0.38,0,0.58,0
			c0-0.301,0-0.591,0-0.881c0-0.189,0-0.39,0-0.579c0.58,0,1.16,0,1.75,0c0,0.189,0,0.39,0,0.579c0,0.29,0,0.58,0,0.881
			c0.19,0,0.38,0,0.58,0c0.29,0,0.58,0,0.87,0c0.58,0,1.17,0,1.75,0C16.56,34.61,16.56,35.189,16.56,35.77z"/>
		<path fill="#A24745" d="M13.36,42.18c0,0.58,0,1.16,0,1.74c-1.07,0-2.14,0-3.21,0c0-0.58,0-1.16,0-1.74c0.2,0,0.39,0,0.58,0
			c0.3,0,0.59,0,0.88,0C12.19,42.18,12.77,42.18,13.36,42.18z"/>
		<path fill="#211F30" d="M10.88,18.74c0,0.82,0,1.65,0,2.47c-0.19,0-0.39,0-0.58,0h-0.21c0-0.82,0-1.65,0-2.47
			c0.07,0,0.14,0,0.21,0C10.49,18.74,10.69,18.74,10.88,18.74z"/>
		<path fill="#BA6E54" d="M24.71,37.229c0-0.29,0-0.58,0-0.88c0-0.189,0-0.38,0-0.58c-0.58,0-1.16,0-1.75,0c0,0.29,0,0.58,0,0.88
			c0,0.19,0,0.381,0,0.58C23.55,37.229,24.13,37.229,24.71,37.229z M19.76,24.42c0.58,0,1.17,0,1.75,0c1.55,0,3.1,0,4.66,0
			c0.58,0,1.16,0,1.74,0c0-0.59,0-1.17,0-1.75c0-1.55,0-3.11,0-4.66c-0.58,0-1.16,0-1.74,0c0-0.58,0-1.16,0-1.75
			c-1.56,0-3.11,0-4.66,0c0,0.59,0,1.17,0,1.75c-0.58,0-1.17,0-1.75,0c0,1.55,0,3.11,0,4.66C19.76,23.25,19.76,23.83,19.76,24.42z
			 M32.57,19.47c0-0.29,0-0.59,0-0.88c0-0.19,0-0.38,0-0.58c-0.29,0-0.58,0-0.87,0c-0.19,0-0.39,0-0.58,0c0,0.29,0,0.58,0,0.87
			c0,0.2,0,0.39,0,0.59c0.29,0,0.58,0,0.87,0C32.19,19.47,32.38,19.47,32.57,19.47z M34.32,37.229c0-1.069,0-2.14,0-3.199
			c-0.58,0-1.16,0-1.75,0c0,1.06,0,2.13,0,3.199C33.16,37.229,33.74,37.229,34.32,37.229z M34.32,32.57c0-0.58,0-1.16,0-1.75
			c-0.58,0-1.16,0-1.75,0c0,0.59,0,1.17,0,1.75C33.16,32.57,33.74,32.57,34.32,32.57z M36.36,42.18c-0.04,0-0.271,0.021-0.29,0
			c-0.05-0.06,0.04-0.229,0-0.29c0-0.29,0-0.58,0-0.88c0-0.189,0-0.38,0-0.58c0-0.39,0-0.77,0-1.16c0-0.1,0-0.199,0-0.29
			c-0.59,0-1.17,0-1.75,0s-1.16,0-1.75,0c0,1.061,0,2.131,0,3.2c-2.13,0-4.271,0-6.4,0c0-0.39,0-0.78,0-1.17c0-0.09,0-0.189,0-0.29
			c-0.29,0-0.59,0-0.88,0c-0.19,0-0.39,0-0.58,0c0-0.58,0-1.16,0-1.74c-0.58,0-1.16,0-1.75,0c0,0.58,0,1.16,0,1.74
			c0,0.29,0,0.59,0,0.88c0,0.19,0,0.391,0,0.58c-2.13,0-4.27,0-6.4,0c0-0.29,0-0.58,0-0.87c0-0.199,0-0.39,0-0.59
			c-0.58,0-1.17,0-1.75,0c0-0.58,0-1.16,0-1.74c0.58,0,1.17,0,1.75,0c0-0.59,0-1.17,0-1.75c0.29,0,0.58,0,0.87,0
			c0.19,0,0.39,0,0.58,0c0-0.29,0-0.58,0-0.88c0-0.189,0-0.38,0-0.58c0-0.58,0-1.159,0-1.739c0.59,0,1.17,0,1.75,0
			c0-0.881,0-1.75,0-2.62c0-0.2,0-0.391,0-0.59c-0.19,0-0.39,0-0.58,0c-0.39,0-0.78,0-1.17,0c0,0.59,0,1.17,0,1.75
			c0,0.489,0,0.97,0,1.46c-0.29,0-0.58,0-0.87,0c-0.19,0-0.39,0-0.58,0c-0.58,0-1.17,0-1.75,0c-0.29,0-0.58,0-0.87,0
			c-0.2,0-0.39,0-0.58,0c0-0.301,0-0.591,0-0.881c0-0.189,0-0.39,0-0.579c0-0.58,0-1.16,0-1.75c-0.59,0-1.17,0-1.75,0
			c0-0.58,0-1.16,0-1.74c0-0.29,0-0.59,0-0.88c0-0.19,0-0.391,0-0.58c0-0.29,0-0.58,0-0.87c0-0.2,0-0.39,0-0.59
			c0-0.29,0-0.58,0-0.87s0-0.58,0-0.87c-0.29,0-0.58,0-0.88,0c-0.19,0-0.38,0-0.58,0c0-0.59,0-1.17,0-1.75c0.58,0,1.17,0,1.75,0
			c0.29,0,0.58,0,0.87,0c0.2,0,0.39,0,0.59,0c0.58,0,1.16,0,1.74,0c0.29,0,0.59,0,0.88,0c0.19,0,0.39,0,0.58,0c0,0.58,0,1.16,0,1.75
			c0.39,0,0.78,0,1.16,0c0.1,0,0.2,0,0.29,0c0-0.59,0-1.17,0-1.75c-0.29,0-0.58,0-0.87,0c-0.19,0-0.39,0-0.58,0
			c0-0.29,0-0.58,0-0.87c0-0.2,0-0.39,0-0.59c-0.58,0-1.17,0-1.75,0c0-0.29,0-0.58,0-0.87c0-0.78,0-1.55,0-2.33
			c-0.29,0-0.58,0-0.87,0c-0.2,0-0.39,0-0.58,0c0-0.58,0-1.16,0-1.75c-0.59,0-1.17,0-1.75,0c-0.29,0-0.58,0-0.88,0
			c-0.19,0-0.38,0-0.58,0c0-1.55,0-3.1,0-4.65c0.29,0,0.58,0,0.88,0c0.19,0,0.38,0,0.58,0c0-0.59,0-1.17,0-1.75
			c0.97,0,1.94,0,2.91,0c0.1,0,0.19,0,0.29,0c0,0.58,0,1.16,0,1.75c0,0.29,0,0.58,0,0.87c0,0.19,0,0.39,0,0.58c0.58,0,1.17,0,1.75,0
			c0-0.29,0-0.58,0-0.87c0-0.2,0-0.39,0-0.58c0-0.59,0-1.17,0-1.75c4.85,0,9.71,0,14.56,0c0,0.58,0,1.16,0,1.75
			c0,0.29,0,0.58,0,0.87c0,0.19,0,0.39,0,0.58c0,0.29,0,0.58,0,0.87c0,0.2,0,0.39,0,0.59c0,0.39,0,0.77,0,1.16c0,0.2,0,0.39,0,0.58
			c0.39,0,0.771,0,1.16,0c0.1,0,0.2,0,0.29,0c0-1.06,0-2.13,0-3.2c0-0.58,0-1.16,0-1.75c0-0.29,0-0.58,0-0.87c0-0.19,0-0.39,0-0.58
			c1.17,0,2.33,0,3.5,0c0,0.58,0,1.16,0,1.75c0.29,0,0.58,0,0.87,0c0.2,0,0.39,0,0.59,0c0,1.06,0,2.13,0,3.2c0,0.58,0,1.16,0,1.75
			c0,0.48,0,0.97,0,1.45c-0.3,0-0.59,0-0.88,0c-0.19,0-0.391,0-0.58,0c0,0.1,0,0.2,0,0.29c0,0.39,0,0.78,0,1.17
			c0.29,0,0.58,0,0.87,0c0.2,0,0.39,0,0.59,0c0.58,0,1.16,0,1.74,0c0-0.29,0-0.59,0-0.88c0-0.19,0-0.38,0-0.58c1.069,0,2.14,0,3.2,0
			c0-0.58,0-1.16,0-1.75c1.069,0,2.14,0,3.21,0c0.29,0,0.579,0,0.869,0c0.19,0,0.391,0,0.58,0c0,0.59,0,1.17,0,1.75
			c-0.29,0-0.58,0-0.87,0c-0.199,0-0.39,0-0.579,0c0,0.29,0,0.58,0,0.87c0,0.2,0,0.39,0,0.59c-0.591,0-1.171,0-1.75,0
			c-0.391,0-0.78,0-1.171,0c-0.09,0-0.189,0-0.289,0c0,0.58,0,1.16,0,1.74c-0.58,0-1.16,0-1.74,0c0,0.3,0,0.59,0,0.88
			c0,0.19,0,0.39,0,0.58c-0.29,0-0.59,0-0.88,0s-0.58,0-0.87,0s-0.58,0-0.87,0c-0.2,0-0.39,0-0.58,0c-0.3,0-0.59,0-0.88,0
			c-0.19,0-0.391,0-0.58,0c0-0.29,0-0.58,0-0.87c0-0.2,0-0.39,0-0.59c-0.59,0-1.17,0-1.75,0c0,0.3,0,0.59,0,0.88
			c0,0.19,0,0.39,0,0.58c0,0.58,0,1.16,0,1.75c0.58,0,1.16,0,1.75,0c0,0.29,0,0.58,0,0.87s0,0.58,0,0.87c0.29,0,0.58,0,0.87,0
			c0.2,0,0.39,0,0.59,0c0,1.359,0,2.72,0,4.08c0,1.359,0,2.72,0,4.08c0,1.359,0,2.71,0,4.069c0,1.271,0,2.53,0,3.79
			c-0.3,0-0.59,0-0.88,0C36.55,42.18,36.46,42.18,36.36,42.18z"/>
		<path fill="#211F30" d="M14.52,9.86c-0.97,0-1.94,0-2.91,0c-0.29,0-0.58,0-0.88,0c-0.19,0-0.38,0-0.58,0c0-0.58,0-1.17,0-1.75
			c1.56,0,3.11,0,4.66,0c0,0.58,0,1.17,0,1.75C14.71,9.86,14.62,9.86,14.52,9.86z"/>
		<path fill="#A24745" d="M11.61,9.86c0,0.58,0,1.16,0,1.75c-0.2,0-0.39,0-0.58,0c-0.3,0-0.59,0-0.88,0c0-0.59,0-1.17,0-1.75
			c0.2,0,0.39,0,0.58,0C11.03,9.86,11.32,9.86,11.61,9.86z"/>
		<path fill="#853447" d="M11.61,25.29c0,0.29,0,0.58,0,0.87c0,0.2,0,0.39,0,0.59c0,0.29,0,0.58,0,0.87c0,0.189,0,0.39,0,0.58
			c0,0.29,0,0.59,0,0.88c0,0.58,0,1.16,0,1.74c-0.2,0-0.39,0-0.58,0c-0.3,0-0.59,0-0.88,0c0-0.29,0-0.58,0-0.87s0-0.58,0-0.87
			c0-0.2,0-0.391,0-0.59c0-0.29,0-0.58,0-0.87c0-1.07,0-2.13,0-3.2c0.2,0,0.39,0,0.58,0c0.3,0,0.59,0,0.88,0
			C11.61,24.71,11.61,25,11.61,25.29z"/>
		<path fill="#211F30" d="M11.61,33.149c0,0.29,0,0.58,0,0.881c-0.2,0-0.39,0-0.58,0c-0.3,0-0.59,0-0.88,0c0-0.2,0-0.391,0-0.591
			c0-0.29,0-0.579,0-0.869c0.2,0,0.39,0,0.58,0c0.3,0,0.59,0,0.88,0C11.61,32.76,11.61,32.96,11.61,33.149z"/>
		<path fill="#853447" d="M13.36,16.26c0,0.59,0,1.17,0,1.75c-0.88,0-1.75,0-2.63,0c-0.77,0-1.55,0-2.32,0c0-0.58,0-1.16,0-1.75
			c0.58,0,1.16,0,1.74,0c0.2,0,0.39,0,0.58,0c0.3,0,0.59,0,0.88,0C12.19,16.26,12.77,16.26,13.36,16.26z"/>
		<path fill="#A24745" d="M8.41,37.229c2.71,0,5.43,0,8.15,0c0,0.58,0,1.16,0,1.75c-0.58,0-1.17,0-1.75,0c-0.29,0-0.58,0-0.87,0
			c-0.2,0-0.39,0-0.58,0c-0.3,0-0.59,0-0.88,0c-0.19,0-0.39,0-0.58,0c-0.29,0-0.58,0-0.87,0c-0.3,0-0.59,0-0.88,0
			c0,1.061,0,2.131,0,3.2c-0.58,0-1.16,0-1.74,0C8.41,40.53,8.41,38.88,8.41,37.229z"/>
		<path fill="#211F30" d="M10.15,9.86c0,0.58,0,1.16,0,1.75c-0.58,0-1.16,0-1.74,0c0-0.59,0-1.17,0-1.75
			C8.99,9.86,9.57,9.86,10.15,9.86z"/>
		<path fill="#A24745" d="M10.15,11.61c0,1.55,0,3.1,0,4.65c-0.58,0-1.16,0-1.74,0c0-1.55,0-3.1,0-4.65
			C8.99,11.61,9.57,11.61,10.15,11.61z"/>
		<path fill="#211F30" d="M10.15,42.18c0,0.58,0,1.16,0,1.74c-0.58,0-1.16,0-1.74,0c0-0.58,0-1.16,0-1.74
			C8.99,42.18,9.57,42.18,10.15,42.18z"/>
		<path fill="#211F30" d="M10.09,18.74c0,0.82,0,1.65,0,2.47c-0.22,0-0.44,0-0.66,0c0-0.82,0-1.65,0-2.47
			C9.65,18.74,9.87,18.74,10.09,18.74z"/>
		<path fill="#F7F9F9" d="M13.36,18.01c0,1.07,0,2.14,0,3.2c-0.61,0-1.21,0-1.82,0v-2.47c-0.19,0-0.39,0-0.58,0
			c-0.03,0-0.05,0-0.08,0c-0.19,0-0.39,0-0.58,0c-0.07,0-0.14,0-0.21,0c-0.22,0-0.44,0-0.66,0c0,0.82,0,1.65,0,2.47
			c-0.34,0-0.68,0-1.02,0c0-1.061,0-2.13,0-3.2c0.77,0,1.55,0,2.32,0C11.61,18.01,12.48,18.01,13.36,18.01z"/>
		<path fill="#211F30" d="M7.53,11.61c0.29,0,0.58,0,0.88,0c0,1.55,0,3.1,0,4.65c0,0.59,0,1.17,0,1.75c0,1.07,0,2.14,0,3.2
			c-0.2,0-0.39,0-0.59,0c-0.29,0-0.58,0-0.87,0c0-1.55,0-3.1,0-4.65c0-0.78,0-1.56,0-2.33c0-0.88,0-1.75,0-2.62
			C7.14,11.61,7.34,11.61,7.53,11.61z"/>
		<path fill="#853447" d="M13.36,21.21c0-1.061,0-2.13,0-3.2c0.19,0,0.38,0,0.58,0c0.29,0,0.58,0,0.87,0c0,0.78,0,1.55,0,2.33
			c0,0.29,0,0.58,0,0.87c0.58,0,1.17,0,1.75,0c0,0.2,0,0.39,0,0.59c0,0.29,0,0.58,0,0.87c-0.19,0-0.39,0-0.58,0
			c-0.29,0-0.59,0-0.88,0c-0.58,0-1.16,0-1.74,0c-0.2,0-0.39,0-0.59,0c-0.29,0-0.58,0-0.87,0c-0.58,0-1.17,0-1.75,0
			c0,0.58,0,1.16,0,1.75c-0.58,0-1.16,0-1.74,0c0-0.59,0-1.17,0-1.75c-0.3,0-0.59,0-0.88,0c-0.19,0-0.39,0-0.58,0
			c0-0.29,0-0.58,0-0.87c0-0.2,0-0.39,0-0.59c0.29,0,0.58,0,0.87,0c0.2,0,0.39,0,0.59,0c0.34,0,0.68,0,1.02,0c0.22,0,0.44,0,0.66,0
			h0.21c0.19,0,0.39,0,0.58,0c0.03,0,0.05,0,0.08,0c0.19,0,0.39,0,0.58,0C12.15,21.21,12.75,21.21,13.36,21.21z"/>
		<path fill="#211F30" d="M7.82,26.16c0.2,0,0.39,0,0.59,0c0,1.17,0,2.33,0,3.5c0,0.189,0,0.39,0,0.58c0,0.29,0,0.58,0,0.87
			c0,0.199,0,0.39,0,0.59c0,0.29,0,0.58,0,0.87c-0.2,0-0.39,0-0.59,0c-0.29,0-0.58,0-0.87,0c0-0.19,0-0.391,0-0.58
			c0-0.29,0-0.58,0-0.88c0-0.29,0-0.58,0-0.87s0-0.58,0-0.87c0-1.07,0-2.141,0-3.21C7.24,26.16,7.53,26.16,7.82,26.16z"/>
		<path fill="#211F30" d="M6.95,21.8c0,0.29,0,0.58,0,0.87c-1.17,0-2.33,0-3.5,0c0-0.19,0-0.39,0-0.58c0-0.29,0-0.58,0-0.88
			c1.17,0,2.33,0,3.5,0C6.95,21.41,6.95,21.6,6.95,21.8z"/>
		<path fill="#211F30" d="M6.95,24.42c0,0.58,0,1.16,0,1.74c-0.58,0-1.17,0-1.75,0c0-0.58,0-1.16,0-1.74
			C5.78,24.42,6.37,24.42,6.95,24.42z"/>
		<path fill="#853447" d="M6.95,31.99c0,0.189,0,0.39,0,0.58c-0.58,0-1.17,0-1.75,0s-1.16,0-1.75,0c0-0.19,0-0.391,0-0.58
			c0-0.88,0-1.75,0-2.62c0-1.07,0-2.141,0-3.21c0.59,0,1.17,0,1.75,0s1.17,0,1.75,0c0,1.069,0,2.14,0,3.21c0,0.29,0,0.58,0,0.87
			s0,0.58,0,0.87C6.95,31.41,6.95,31.7,6.95,31.99z"/>
		<path fill="#211F30" d="M6.95,32.57c0,0.189,0,0.39,0,0.579c0,0.29,0,0.58,0,0.881c-0.58,0-1.17,0-1.75,0c0-0.2,0-0.391,0-0.591
			c0-0.29,0-0.579,0-0.869C5.78,32.57,6.37,32.57,6.95,32.57z"/>
		<path fill="#211F30" d="M16.56,36.06c0,0.391,0,0.78,0,1.17c-2.72,0-5.44,0-8.15,0c0,1.65,0,3.301,0,4.95c-0.2,0-0.39,0-0.59,0
			c-0.29,0-0.58,0-0.87,0c0-1.649,0-3.3,0-4.95c-1.17,0-2.33,0-3.5,0c0-0.199,0-0.39,0-0.58c0-0.3,0-0.59,0-0.88
			c0.78,0,1.56,0,2.33,0c0.88,0,1.75,0,2.63,0c0-0.58,0-1.159,0-1.739c0.29,0,0.58,0,0.87,0s0.58,0,0.87,0c0,0.58,0,1.159,0,1.739
			c2.14,0,4.27,0,6.41,0C16.56,35.87,16.56,35.97,16.56,36.06z"/>
		<path fill="#BA6E54" d="M7.82,32.57c0.2,0,0.39,0,0.59,0c0-0.29,0-0.58,0-0.87c0-0.2,0-0.391,0-0.59c0-0.29,0-0.58,0-0.87
			c0-0.19,0-0.391,0-0.58c0-1.17,0-2.33,0-3.5c-0.2,0-0.39,0-0.59,0c-0.29,0-0.58,0-0.87,0c0-0.58,0-1.16,0-1.74
			c-0.58,0-1.17,0-1.75,0c0,0.58,0,1.16,0,1.74c-0.58,0-1.16,0-1.75,0c0,1.069,0,2.14,0,3.21c0,0.87,0,1.74,0,2.62
			c0,0.189,0,0.39,0,0.58c0.59,0,1.17,0,1.75,0c0,0.29,0,0.579,0,0.869c0,0.2,0,0.391,0,0.591c0.58,0,1.17,0,1.75,0
			c0-0.301,0-0.591,0-0.881c0-0.189,0-0.39,0-0.579C7.24,32.57,7.53,32.57,7.82,32.57z M2.58,34.03c-0.19,0-0.39,0-0.58,0
			c0-0.881,0-1.75,0-2.62c0-0.78,0-1.561,0-2.33c0-1.561,0-3.11,0-4.66c0.29,0,0.58,0,0.87,0c0.2,0,0.39,0,0.58,0
			c0-0.59,0-1.17,0-1.75c1.17,0,2.33,0,3.5,0c0.19,0,0.39,0,0.58,0c0.29,0,0.58,0,0.88,0c0,0.58,0,1.16,0,1.75c0.58,0,1.16,0,1.74,0
			c0,1.07,0,2.13,0,3.2c0,0.29,0,0.58,0,0.87c0,0.199,0,0.39,0,0.59c0,0.29,0,0.58,0,0.87s0,0.58,0,0.87c0.29,0,0.58,0,0.88,0
			c0.19,0,0.38,0,0.58,0c0,0.59,0,1.17,0,1.75c-0.29,0-0.58,0-0.88,0c-0.19,0-0.38,0-0.58,0c0,0.29,0,0.579,0,0.869
			c0,0.2,0,0.391,0,0.591c-0.29,0-0.58,0-0.87,0s-0.58,0-0.87,0c0,0.58,0,1.159,0,1.739c-0.88,0-1.75,0-2.63,0
			c-0.77,0-1.55,0-2.33,0c0-0.58,0-1.159,0-1.739C3.16,34.03,2.87,34.03,2.58,34.03z"/>
		<path fill="#211F30" d="M2,35.77c0-0.58,0-1.159,0-1.739c0.19,0,0.39,0,0.58,0c0.29,0,0.58,0,0.87,0c0,0.58,0,1.159,0,1.739
			c-0.19,0-0.38,0-0.58,0C2.58,35.77,2.29,35.77,2,35.77z"/>
		<path fill="#211F30" d="M3.45,22.67c0,0.58,0,1.16,0,1.75c-0.19,0-0.38,0-0.58,0c-0.29,0-0.58,0-0.87,0c0-0.59,0-1.17,0-1.75
			c0.19,0,0.39,0,0.58,0C2.87,22.67,3.16,22.67,3.45,22.67z"/>
		<path fill="#211F30" d="M1.13,34.03c-0.3,0-0.59,0-0.88,0c0-0.101,0-0.2,0-0.301c0-0.77,0-1.55,0-2.319c0-0.78,0-1.561,0-2.33
			c0-1.561,0-3.11,0-4.66c0.58,0,1.17,0,1.75,0c0,1.55,0,3.1,0,4.66c0,0.77,0,1.55,0,2.33c0,0.87,0,1.739,0,2.62
			C1.71,34.03,1.42,34.03,1.13,34.03z"/>
	</g>
	<g>
	</g>
</g>
</svg>
