<?xml version="1.0" encoding="utf-8"?>
<!-- Generator: Adobe Illustrator 15.0.0, SVG Export Plug-In  -->
<!DOCTYPE svg PUBLIC "-//W3C//DTD SVG 1.1//EN" "http://www.w3.org/Graphics/SVG/1.1/DTD/svg11.dtd" [
	<!ENTITY ns_flows "http://ns.adobe.com/Flows/1.0/">
]>
<svg version="1.1"
	 xmlns="http://www.w3.org/2000/svg" xmlns:xlink="http://www.w3.org/1999/xlink" xmlns:a="http://ns.adobe.com/AdobeSVGViewerExtensions/3.0/"
	 x="0px" y="0px" width="70px" height="55px" viewBox="-9.764 -11.322 70 55" enable-background="new -9.764 -11.322 70 55"
	 xml:space="preserve">
<defs>
</defs>
<path fill="#211F30" d="M46.881,1.455c0.193,0,0.389,0,0.582,0c0.389,0,0.777,0,1.166,0c0-0.291,0-0.582,0-0.872
	c0-0.196,0-0.389,0-0.583c-0.293,0-0.582,0-0.873,0c-0.195,0-0.389,0-0.584,0c-0.582,0-1.164,0-1.746,0c0,0.292,0,0.583,0,0.874
	c0,0.194,0,0.389,0,0.582c0.193,0,0.389,0,0.582,0C46.299,1.455,46.59,1.455,46.881,1.455z"/>
<path fill="#211F30" d="M45.426,1.455c-0.584,0-1.164,0-1.748,0c0,0.583,0,1.166,0,1.747c0.584,0,1.164,0,1.748,0
	C45.426,2.621,45.426,2.038,45.426,1.455z"/>
<path fill="#619E43" d="M46.881,9.61c0.291,0,0.582,0,0.875,0c0.291,0,0.58,0,0.873,0c0-0.196,0-0.389,0-0.583
	c0-0.292,0-0.583,0-0.874c0.582,0,1.164,0,1.748,0c0-0.777,0-1.553,0-2.329c0-0.875,0-1.747,0-2.623c-0.584,0-1.166,0-1.748,0
	c0-0.581,0-1.164,0-1.747c-0.389,0-0.777,0-1.166,0c-0.193,0-0.389,0-0.582,0c-0.291,0-0.582,0-0.873,0c-0.193,0-0.389,0-0.582,0
	c0,0.583,0,1.166,0,1.747c-0.584,0-1.164,0-1.748,0c0,0.777,0,1.555,0,2.33c0,0.874,0,1.748,0,2.621c0.584,0,1.164,0,1.748,0
	c0,0.194,0,0.389,0,0.581c0,0.292,0,0.583,0,0.875c0.193,0,0.389,0,0.582,0C46.299,9.61,46.59,9.61,46.881,9.61z"/>
<path fill="#211F30" d="M50.377,3.202c0-0.581,0-1.164,0-1.747c-0.584,0-1.166,0-1.748,0c0,0.583,0,1.166,0,1.747
	C49.211,3.202,49.793,3.202,50.377,3.202z"/>
<path fill="#211F30" d="M11.357,4.659c0.193,0,0.387,0,0.582,0c0.291,0,0.582,0,0.873,0c0.193,0,0.389,0,0.582,0
	c0.389,0,0.777,0,1.164,0c0-0.291,0-0.581,0-0.874c0-0.194,0-0.387,0-0.583c-1.553,0-3.105,0-4.658,0c0,0.292,0,0.583,0,0.875
	c0,0.192,0,0.387,0,0.581c0.195,0,0.389,0,0.584,0C10.775,4.659,11.064,4.659,11.357,4.659z"/>
<path fill="#211F30" d="M30.865,3.785c0-0.194,0-0.387,0-0.583c-4.852,0-9.705,0-14.559,0c0,0.292,0,0.583,0,0.875
	c0,0.192,0,0.387,0,0.581c4.854,0,9.707,0,14.559,0C30.865,4.368,30.865,4.078,30.865,3.785z"/>
<path fill="#211F30" d="M34.07,4.659c0.58,0,1.164,0,1.746,0c0.387,0,0.775,0,1.164,0c0.098,0,0.195,0,0.291,0
	c0-0.291,0-0.581,0-0.874c0-0.194,0-0.387,0-0.583c-1.553,0-3.105,0-4.658,0c0,0.292,0,0.583,0,0.875c0,0.192,0,0.387,0,0.581
	c0.193,0,0.389,0,0.582,0C33.486,4.659,33.777,4.659,34.07,4.659z"/>
<path fill="#211F30" d="M43.678,3.202c-0.291,0-0.582,0-0.873,0c-0.195,0-0.389,0-0.584,0c0,1.651,0,3.302,0,4.951
	c0.293,0,0.584,0,0.875,0c0.193,0,0.389,0,0.582,0c0-0.874,0-1.747,0-2.621C43.678,4.757,43.678,3.979,43.678,3.202z"/>
<path fill="#211F30" d="M50.377,8.153c1.553,0,3.105,0,4.658,0c0-0.582,0-1.166,0-1.747c-0.873,0-1.748,0-2.621,0
	c-0.193,0-0.389,0-0.582,0c0-0.291,0-0.582,0-0.874c0-0.775,0-1.553,0-2.33c-0.291,0-0.584,0-0.875,0c-0.193,0-0.389,0-0.58,0
	c0,0.875,0,1.748,0,2.623C50.377,6.601,50.377,7.376,50.377,8.153z"/>
<path fill="#211F30" d="M9.9,4.659c-0.582,0-1.164,0-1.746,0c0,0.582,0,1.166,0,1.748c0.582,0,1.164,0,1.746,0
	C9.9,5.825,9.9,5.24,9.9,4.659z"/>
<path fill="#A24745" d="M10.775,6.406c0.193,0,0.387,0,0.582,0c0-0.582,0-1.166,0-1.748c-0.293,0-0.582,0-0.873,0
	c-0.195,0-0.389,0-0.584,0c0,0.582,0,1.166,0,1.748C10.191,6.406,10.484,6.406,10.775,6.406z"/>
<path fill="#BA6E54" d="M12.813,4.659c-0.291,0-0.582,0-0.873,0c-0.195,0-0.389,0-0.582,0c0,0.582,0,1.166,0,1.748
	c-0.195,0-0.389,0-0.582,0c-0.291,0-0.584,0-0.875,0c0,1.649,0,3.3,0,4.951c0.195,0,0.389,0,0.584,0c0.291,0,0.58,0,0.873,0
	c0.582,0,1.164,0,1.746,0c0,0.193,0,0.387,0,0.582c0,0.291,0,0.581,0,0.874c0.193,0,0.389,0,0.582,0c0.293,0,0.584,0,0.873,0
	c0,0.096,0,0.194,0,0.292c0,1.551,0,3.105,0,4.657c0.584,0,1.166,0,1.748,0c0,0.194,0,0.389,0,0.583c0,0.291,0,0.583,0,0.873
	c0.584,0,1.164,0,1.748,0c0,0.389,0,0.777,0,1.165c0,0.194,0,0.389,0,0.583c-0.584,0-1.164,0-1.748,0c0-0.583,0-1.164,0-1.748
	c-0.193,0-0.389,0-0.582,0c-0.291,0-0.582,0-0.875,0c-0.58,0-1.164,0-1.746,0c-0.193,0-0.387,0-0.582,0c-0.291,0-0.582,0-0.873,0
	c-0.584,0-1.164,0-1.748,0c0,0.584,0,1.165,0,1.748c0.195,0,0.389,0,0.584,0c0.291,0,0.58,0,0.873,0c-0.002,0.096,0,0.194,0,0.291
	c-0.002,0.098,0,0.193,0,0.292c0,0.29,0,0.581,0,0.874c0,0.387,0,0.775,0,1.164c0,0.775,0,1.553,0,2.328c0.582,0,1.164,0,1.746,0
	c0,0.098,0,0.194,0,0.293c0,0.389,0,0.775,0,1.164c0,0.582,0,1.164,0,1.746c0.193,0,0.389,0,0.582,0c0.293,0,0.584,0,0.873,0
	c0.584,0,1.166,0,1.748,0c0.584,0,1.164,0,1.748,0c0-0.193,0-0.388,0-0.582c0-0.291,0-0.582,0-0.873c0-0.582,0-1.165,0-1.748
	c0.098,0,0.193,0,0.289,0c0.389,0,0.777,0,1.166,0c0,0.194,0,0.389,0,0.583c0,0.874,0,1.747,0,2.62c-0.193,0-0.389,0-0.582,0
	c-0.291,0-0.584,0-0.873,0c0,0.195,0,0.389,0,0.584c0,0.291,0,0.581,0,0.873c0,0.582,0,1.164,0,1.746c-0.584,0-1.164,0-1.748,0
	c0,0.194,0,0.389,0,0.582c0,0.291,0,0.584,0,0.875c-0.582,0-1.164,0-1.748,0c0,0.582,0,1.164,0,1.746c0.291,0,0.584,0,0.875,0
	s0.582,0,0.873,0c0,0.291,0,0.584,0,0.874s0,0.583,0,0.874c2.137,0,4.27,0,6.406,0c0-0.584,0-1.164,0-1.748c0-0.582,0-1.164,0-1.746
	c0.582,0,1.164,0,1.748,0c0,0.582,0,1.164,0,1.746c0.193,0,0.387,0,0.582,0c0.291,0,0.582,0,0.873,0c0,0.291,0,0.584,0,0.874
	s0,0.583,0,0.874c2.232,0,4.465,0,6.697,0c0-1.164,0-2.33,0-3.494c0.193,0,0.389,0,0.582,0c0.291,0,0.582,0,0.875,0
	c0.58,0,1.164,0,1.746,0c0,1.164,0,2.33,0,3.494c0.193,0,0.387,0,0.582,0c0.291,0,0.582,0,0.873,0c0-0.485,0-0.971,0-1.457
	c0-0.581,0-1.164,0-1.747c0-0.485,0-0.97,0-1.455c0-0.583,0-1.164,0-1.747c0-2.232,0-4.465,0-6.697c-0.193,0-0.389,0-0.582,0
	c-0.291,0-0.582,0-0.873,0c0-0.193,0-0.389,0-0.582c0-0.291,0-0.584,0-0.874c-0.582,0-1.166,0-1.746,0c0-0.583,0-1.164,0-1.747
	s0-1.164,0-1.748c0.58,0,1.164,0,1.746,0c0,0.584,0,1.165,0,1.748c0.193,0,0.387,0,0.582,0c0.291,0,0.582,0,0.873,0
	c0.777,0,1.553,0,2.33,0c0.875,0,1.748,0,2.619,0c0-0.583,0-1.164,0-1.748c0.098,0,0.195,0,0.293,0c0.389,0,0.775,0,1.164,0
	c0.584,0,1.164,0,1.748,0c0-0.193,0-0.388,0-0.582c0-0.291,0-0.582,0-0.874c0.582,0,1.164,0,1.746,0c0-0.581,0-1.164,0-1.747
	c-0.582,0-1.164,0-1.746,0c-1.068,0-2.137,0-3.205,0c0,0.583,0,1.166,0,1.747c-1.648,0-3.299,0-4.949,0c-0.193,0-0.389,0-0.582,0
	c-0.291,0-0.582,0-0.873,0c0-0.581,0-1.164,0-1.747c0.193,0,0.387,0,0.582,0c0.291,0,0.582,0,0.873,0c0-1.551,0-3.106,0-4.657
	c0-0.777,0-1.554,0-2.33c0-0.389,0-0.776,0-1.164c0-0.196,0-0.389,0-0.583c0-0.292,0-0.583,0-0.874c-0.193,0-0.389,0-0.582,0
	c-0.291,0-0.582,0-0.873,0c0-0.582,0-1.166,0-1.748c-0.582,0-1.166,0-1.746,0c-0.293,0-0.584,0-0.875,0c-0.193,0-0.389,0-0.582,0
	c0,0.291,0,0.582,0,0.874c0,0.292,0,0.583,0,0.874c0,0.581,0,1.166,0,1.747c0,0.194,0,0.389,0,0.581c0,0.292,0,0.583,0,0.875
	c0,0.582,0,1.164,0,1.747c-0.389,0-0.777,0-1.164,0c-0.195,0-0.389,0-0.584,0c0-0.196,0-0.389,0-0.583c0-0.874,0-1.747,0-2.621
	c0-1.166,0-2.329,0-3.495c-4.852,0-9.705,0-14.559,0c0,0.582,0,1.166,0,1.748c0,0.581,0,1.166,0,1.747c-0.582,0-1.164,0-1.748,0
	c0-0.582,0-1.166,0-1.747c0-0.582,0-1.166,0-1.748c-0.387,0-0.775,0-1.164,0C13.201,4.659,13.006,4.659,12.813,4.659z
	 M24.461,32.321c-0.584,0-1.166,0-1.748,0c0-0.582,0-1.164,0-1.746c0.582,0,1.164,0,1.748,0
	C24.461,31.157,24.461,31.739,24.461,32.321z M34.07,31.739c0,0.195,0,0.389,0,0.582c-0.195,0-0.389,0-0.584,0
	c-0.291,0-0.582,0-0.873,0c0-0.775,0-1.553,0-2.328c0-0.291,0-0.584,0-0.875c0.291,0,0.582,0,0.873,0c0.195,0,0.389,0,0.584,0
	C34.07,29.993,34.07,30.866,34.07,31.739z M33.195,25.915c0.291,0,0.582,0,0.875,0c0,0.194,0,0.389,0,0.583c0,0.29,0,0.583,0,0.874
	c-0.195,0-0.389,0-0.584,0c-0.291,0-0.582,0-0.873,0c0-0.195,0-0.389,0-0.584c0-0.29,0-0.58,0-0.873
	C32.807,25.915,33.002,25.915,33.195,25.915z M30.865,12.812c0.584,0,1.164,0,1.748,0c0,0.583,0,1.164,0,1.747
	c-0.584,0-1.164,0-1.748,0C30.865,13.976,30.865,13.395,30.865,12.812z M19.51,18.635c0-0.291,0-0.582,0-0.874
	c0-1.649,0-3.298,0-4.949c0.582,0,1.166,0,1.748,0c0-0.292,0-0.583,0-0.874c0-0.194,0-0.389,0-0.582c0.68,0,1.359,0,2.037,0
	c0.582,0,1.166,0,1.748,0c0.291,0,0.582,0,0.873,0c0,0.193,0,0.387,0,0.582c0,0.291,0,0.581,0,0.874c0.582,0,1.164,0,1.746,0
	c0,0.776,0,1.553,0,2.33c0,0.872,0,1.747,0,2.619c0,0.194,0,0.389,0,0.583c0,0.291,0,0.583,0,0.873c-0.582,0-1.164,0-1.746,0
	c-1.553,0-3.105,0-4.658,0c-0.582,0-1.166,0-1.748,0C19.51,19.024,19.51,18.83,19.51,18.635z"/>
<path fill="#211F30" d="M16.307,6.406c0-0.582,0-1.166,0-1.748c-0.582,0-1.164,0-1.748,0c0,0.582,0,1.166,0,1.748
	C15.143,6.406,15.725,6.406,16.307,6.406z"/>
<path fill="#211F30" d="M32.613,8.153c0-0.582,0-1.166,0-1.747c0-0.291,0-0.582,0-0.874c0-0.292,0-0.583,0-0.874
	c-0.584,0-1.164,0-1.748,0c0,1.166,0,2.329,0,3.495C31.449,8.153,32.029,8.153,32.613,8.153z"/>
<path fill="#A24745" d="M35.816,4.659c0,0.582,0,1.166,0,1.748c0.291,0,0.582,0,0.873,0c0.193,0,0.389,0,0.582,0
	c0-0.582,0-1.166,0-1.748c-0.096,0-0.193,0-0.291,0C36.592,4.659,36.203,4.659,35.816,4.659z"/>
<path fill="#211F30" d="M39.02,6.406c0-0.582,0-1.166,0-1.748c-0.584,0-1.164,0-1.748,0c0,0.582,0,1.166,0,1.748
	C37.855,6.406,38.436,6.406,39.02,6.406z"/>
<path fill="#211F30" d="M8.154,17.761c0-1.649,0-3.298,0-4.949c0-0.194,0-0.387,0-0.583c0-0.291,0-0.581,0-0.872
	c0-1.651,0-3.302,0-4.951c-0.291,0-0.584,0-0.875,0c-0.193,0-0.389,0-0.58,0c0,0.291,0,0.581,0,0.874c0,0.194,0,0.387,0,0.583
	c0,0.291,0,0.581,0,0.872c0,0.196,0,0.389,0,0.583c0,0.292,0,0.583,0,0.874c0,0.194,0,0.388,0,0.583c0,0.485,0,0.97,0,1.455
	c0,0.487,0,0.972,0,1.457s0,0.97,0,1.457c0,0.872,0,1.747,0,2.619c0.291,0,0.58,0,0.871,0C7.766,17.761,7.959,17.761,8.154,17.761z"
	/>
<path fill="#A24745" d="M9.9,11.357c0-1.651,0-3.302,0-4.951c-0.582,0-1.164,0-1.746,0c0,1.649,0,3.3,0,4.951
	C8.736,11.357,9.318,11.357,9.9,11.357z"/>
<path fill="#853447" d="M14.559,8.153c0.584,0,1.166,0,1.748,0c0-0.582,0-1.166,0-1.747c-0.582,0-1.164,0-1.748,0
	C14.559,6.987,14.559,7.572,14.559,8.153z"/>
<path fill="#A24745" d="M37.271,7.28c0,0.194,0,0.387,0,0.583c0,0.388,0,0.775,0,1.164c0,0.776,0,1.553,0,2.33
	c0,1.551,0,3.106,0,4.657c0.584,0,1.164,0,1.748,0c0-1.551,0-3.106,0-4.657c0-0.777,0-1.554,0-2.33c0-0.874,0-1.747,0-2.621
	c-0.584,0-1.164,0-1.748,0C37.271,6.697,37.271,6.987,37.271,7.28z"/>
<path fill="#211F30" d="M39.02,11.357c0,1.551,0,3.106,0,4.657c-0.584,0-1.164,0-1.748,0c0,0.583,0,1.166,0,1.747
	c1.65,0,3.301,0,4.949,0c0-0.581,0-1.164,0-1.747c-0.58,0-1.164,0-1.744,0c0-1.551,0-3.106,0-4.657c0-1.554-0.002-3.106,0-4.66
	c0-0.096,0-0.193,0-0.291c-0.293,0-0.584,0-0.875,0c-0.193,0-0.389,0-0.582,0c0,0.874,0,1.747,0,2.621
	C39.02,9.803,39.02,10.58,39.02,11.357z"/>
<path fill="#853447" d="M30.865,10.774c0,0.194,0,0.387,0,0.583c0.195,0,0.389,0,0.584,0c0.387,0,0.775,0,1.164,0
	c0-0.583,0-1.166,0-1.747c0-0.292,0-0.583,0-0.875c0-0.192,0-0.387,0-0.581c-0.584,0-1.164,0-1.748,0
	C30.865,9.027,30.865,9.9,30.865,10.774z"/>
<path fill="#211F30" d="M45.426,8.153c-0.584,0-1.164,0-1.748,0c0,0.291,0,0.581,0,0.874c0,0.194,0,0.387,0,0.583
	c0.584,0,1.164,0,1.748,0c0-0.292,0-0.583,0-0.875C45.426,8.542,45.426,8.348,45.426,8.153z"/>
<path fill="#211F30" d="M48.629,9.027c0,0.194,0,0.387,0,0.583c0.582,0,1.164,0,1.748,0c0-0.196,0-0.389,0-0.583
	c-0.002-0.292,0-0.583,0-0.874c-0.584,0-1.166,0-1.748,0C48.629,8.444,48.629,8.734,48.629,9.027z"/>
<path fill="#619E43" d="M56.781,9.61c-0.582,0-1.164,0-1.746,0c0-0.196,0-0.389,0-0.583c0-0.292,0-0.583,0-0.874
	c-1.553,0-3.105,0-4.658,0c0,0.291-0.002,0.581,0,0.874c0,0.194,0,0.387,0,0.583c-0.584,0-1.166,0-1.748,0c0,0.193,0,0.389,0,0.582
	c0,0.291,0,0.583,0,0.874c0,0.583,0,1.164,0,1.747c0.582,0,1.164,0,1.748,0c0,0.583,0,1.164,0,1.747c1.553,0,3.105,0,4.658,0
	c0-0.583,0-1.164,0-1.747c0.582,0,1.164,0,1.746,0c0-0.485,0-0.972,0-1.455C56.781,10.774,56.781,10.191,56.781,9.61z"/>
<path fill="#211F30" d="M55.035,9.61c0.582,0,1.164,0,1.746,0c0-0.292,0-0.583,0-0.875c0-0.192,0-0.387,0-0.581
	c-0.582,0-1.164,0-1.746,0c0,0.291,0,0.581,0,0.874C55.035,9.221,55.035,9.414,55.035,9.61z"/>
<path fill="#211F30" d="M48.629,12.812c0-0.583,0-1.164,0-1.747c0-0.291,0-0.583,0-0.874c0-0.193,0-0.389,0-0.582
	c-0.293,0-0.582,0-0.873,0c-0.293,0-0.584,0-0.875,0s-0.582,0-0.873,0c-0.193,0-0.389,0-0.582,0c0,0.582,0,1.164,0,1.747
	c0.582,0,1.164,0,1.746,0c0,0.193,0,0.387,0,0.582c0,0.291,0,0.581,0,0.874c0.195,0,0.389,0,0.584,0
	C48.047,12.812,48.336,12.812,48.629,12.812z"/>
<path fill="#211F30" d="M57.363,9.61c-0.193,0-0.389,0-0.582,0c0,0.582,0,1.164,0,1.747c0,0.483,0,0.97,0,1.455
	c0.291,0,0.582,0,0.875,0c0.191,0,0.387,0,0.58,0c0-0.292,0-0.583,0-0.874c0-0.194,0-0.389,0-0.582c0-0.583,0-1.166,0-1.747
	C57.947,9.61,57.656,9.61,57.363,9.61z"/>
<path fill="#853447" d="M13.104,11.357c-0.582,0-1.164,0-1.746,0c-0.293,0-0.582,0-0.873,0c-0.195,0-0.389,0-0.584,0
	c-0.582,0-1.164,0-1.746,0c0,0.291,0,0.582,0,0.872c0,0.196,0,0.389,0,0.583c0.777,0,1.553,0,2.33,0c0.873,0,1.746,0,2.619,0
	c0-0.292,0-0.583,0-0.874C13.104,11.744,13.104,11.55,13.104,11.357z"/>
<path fill="#853447" d="M25.916,11.938c0-0.194,0-0.389,0-0.582c-0.291,0-0.582,0-0.873,0c-0.582,0-1.166,0-1.748,0
	c-0.678,0-1.357,0-2.037,0c0,0.193,0,0.387,0,0.582c0,0.291,0,0.581,0,0.874c1.553,0,3.105,0,4.658,0
	C25.916,12.52,25.916,12.229,25.916,11.938z"/>
<path fill="#F7F9F9" d="M8.154,12.812c0,1.651,0,3.3,0,4.949c0.777,0,1.553,0,2.33,0c0.873,0,1.746,0,2.619,0
	c0-1.649,0-3.298,0-4.949c-0.873,0-1.746,0-2.619,0C9.707,12.812,8.932,12.812,8.154,12.812z M10.629,17.057
	c-0.195,0-0.389,0-0.584,0c-0.289,0-0.582,0-0.873,0c0-1.068,0-2.136,0-3.204c0.291,0,0.584,0,0.873,0c0.195,0,0.389,0,0.584,0
	C10.629,14.921,10.629,15.989,10.629,17.057z"/>
<path fill="#853447" d="M6.699,19.217c0.191,0,0.387,0,0.58,0c0.291,0,0.584,0,0.875,0c0,0.389,0,0.777,0,1.165
	c0,0.194,0,0.389,0,0.583c0.582,0,1.164,0,1.746,0c0-0.583,0-1.164,0-1.748c0.584,0,1.164,0,1.748,0c0.291,0,0.582,0,0.873,0
	c0.195,0,0.389,0,0.582,0c0.582,0,1.166,0,1.746,0c0.293,0,0.584,0,0.875,0c0.193,0,0.389,0,0.582,0c0-0.29,0-0.582,0-0.873
	c0-0.194,0-0.389,0-0.583c-0.582,0-1.164,0-1.748,0c0-1.551,0-3.105,0-4.657c0-0.098,0-0.196,0-0.292c-0.289,0-0.58,0-0.873,0
	c-0.193,0-0.389,0-0.582,0c0,1.651,0,3.3,0,4.949c-0.873,0-1.746,0-2.619,0c-0.777,0-1.553,0-2.33,0c-0.195,0-0.389,0-0.584,0
	c-0.291,0-0.58,0-0.871,0c0,0.194,0,0.389,0,0.583C6.699,18.635,6.699,18.927,6.699,19.217z"/>
<path fill="#853447" d="M21.258,12.812c-0.582,0-1.166,0-1.748,0c0,1.651,0,3.3,0,4.949c0.582,0,1.166,0,1.748,0
	C21.258,16.112,21.258,14.463,21.258,12.812z"/>
<path fill="#F7F9F9" d="M25.916,17.761c0-1.649,0-3.298,0-4.949c-1.553,0-3.105,0-4.658,0c0,1.651,0,3.3,0,4.949
	C22.811,17.761,24.363,17.761,25.916,17.761z M22.388,13.685c0.291,0,0.584,0,0.873,0c0.195,0,0.389,0,0.584,0
	c0,1.068,0,2.136,0,3.204c-0.195,0-0.389,0-0.584,0c-0.289,0-0.582,0-0.873,0C22.388,15.82,22.388,14.752,22.388,13.685z"/>
<path fill="#853447" d="M27.662,17.761c0-0.872,0-1.747,0-2.619c0-0.777,0-1.554,0-2.33c-0.582,0-1.164,0-1.746,0
	c0,1.651,0,3.3,0,4.949C26.498,17.761,27.08,17.761,27.662,17.761z"/>
<path fill="#853447" d="M32.613,12.812c-0.584,0-1.164,0-1.748,0c0,0.583,0,1.164,0,1.747c0.584,0,1.164,0,1.748,0
	C32.613,13.976,32.613,13.395,32.613,12.812z"/>
<path fill="#211F30" d="M47.172,12.812c-0.582,0-1.164,0-1.746,0c0,0.583,0,1.164,0,1.747c0.582,0,1.164,0,1.746,0
	C47.172,13.976,47.172,13.395,47.172,12.812z"/>
<path fill="#A24745" d="M50.377,14.559c-0.584,0-1.166,0-1.748,0c0-0.583,0-1.164,0-1.747c-0.293,0-0.582,0-0.873,0
	c-0.195,0-0.389,0-0.584,0c0,0.583,0,1.164,0,1.747c-0.582,0-1.164,0-1.746,0c0,0.292,0,0.583,0,0.874c0,0.194,0,0.389,0,0.582
	c0.582,0,1.164,0,1.746,0c0,0.583,0,1.166,0,1.747c0.291,0,0.584,0,0.875,0c0.193,0,0.389,0,0.582,0c0-0.581,0-1.164,0-1.747
	c0.582,0,1.164,0,1.748,0c0-0.291,0-0.582,0-0.872C50.377,14.946,50.377,14.753,50.377,14.559z"/>
<path fill="#211F30" d="M50.377,14.559c0-0.583,0-1.164,0-1.747c-0.584,0-1.166,0-1.748,0c0,0.583,0,1.164,0,1.747
	C49.211,14.559,49.793,14.559,50.377,14.559z"/>
<path fill="#211F30" d="M55.035,14.559c0.582,0,1.164,0,1.746,0c0-0.583,0-1.164,0-1.747c-0.582,0-1.164,0-1.746,0
	C55.035,13.395,55.035,13.976,55.035,14.559z"/>
<path fill="#211F30" d="M45.426,15.433c0-0.291,0-0.581,0-0.874c-0.291,0-0.584,0-0.875,0c-0.193,0-0.389,0-0.582,0
	c-0.291,0-0.582,0-0.873,0s-0.582,0-0.875,0c0,0.292,0,0.583,0,0.874c0,0.194,0,0.389,0,0.582c1.068,0,2.137,0,3.205,0
	C45.426,15.821,45.426,15.627,45.426,15.433z"/>
<path fill="#211F30" d="M50.377,15.142c0,0.291,0,0.582,0,0.872c1.553,0,3.105,0,4.658,0c0-0.291,0-0.582,0-0.872
	c0-0.196,0-0.389,0-0.583c-1.553,0-3.105,0-4.658,0C50.377,14.753,50.377,14.946,50.377,15.142z"/>
<path fill="#853447" d="M36.398,16.014c-0.195,0-0.389,0-0.582,0c0,0.583,0,1.166,0,1.747c0.291,0,0.582,0,0.873,0
	c0.193,0,0.389,0,0.582,0c0-0.581,0-1.164,0-1.747C36.98,16.014,36.689,16.014,36.398,16.014z"/>
<path fill="#211F30" d="M48.629,17.761c0.582,0,1.164,0,1.748,0c0-0.581,0-1.164,0-1.747c-0.584,0-1.166,0-1.748,0
	C48.629,16.597,48.629,17.18,48.629,17.761z"/>
<path fill="#211F30" d="M4.951,19.217c0.291,0,0.582,0,0.873,0s0.582,0,0.875,0c0-0.29,0-0.582,0-0.873c0-0.194,0-0.389,0-0.583
	c-0.293,0-0.584,0-0.875,0c-0.193,0-0.389,0-0.582,0c-0.291,0-0.584,0-0.873,0c-0.291,0-0.584,0-0.875,0c0,0.292,0,0.583,0,0.874
	c0,0.194,0,0.389,0,0.582c0.195,0,0.389,0,0.584,0C4.369,19.217,4.658,19.217,4.951,19.217z"/>
<path fill="#A24745" d="M21.258,18.344c0-0.194,0-0.389,0-0.583c-0.582,0-1.166,0-1.748,0c0,0.292,0,0.583,0,0.874
	c0,0.194,0,0.389,0,0.582c0.582,0,1.166,0,1.748,0C21.258,18.927,21.258,18.635,21.258,18.344z"/>
<path fill="#853447" d="M25.916,17.761c-1.553,0-3.105,0-4.658,0c0,0.194,0,0.389,0,0.583c0,0.291,0,0.583,0,0.873
	c1.553,0,3.105,0,4.658,0c0-0.388,0-0.775,0-1.164C25.916,17.956,25.916,17.86,25.916,17.761z"/>
<path fill="#A24745" d="M25.916,18.053c0,0.389,0,0.776,0,1.164c0.582,0,1.164,0,1.746,0c0-0.29,0-0.582,0-0.873
	c0-0.194,0-0.389,0-0.583c-0.582,0-1.164,0-1.746,0C25.916,17.86,25.916,17.956,25.916,18.053z"/>
<path fill="#A24745" d="M47.172,17.761c-0.582,0-1.164,0-1.746,0c0,0.292,0,0.583,0,0.874c0,0.194,0,0.389,0,0.582
	c0.582,0,1.164,0,1.746,0c0-0.193,0-0.388,0-0.582C47.172,18.344,47.172,18.053,47.172,17.761z"/>
<path fill="#211F30" d="M47.172,17.761c0,0.292,0,0.583,0,0.874c0,0.194,0,0.389,0,0.582c0.291,0,0.584,0,0.875,0
	c0.193,0,0.389,0,0.582,0c0-0.29,0-0.582,0-0.873c0-0.194,0-0.389,0-0.583c-0.193,0-0.389,0-0.582,0
	C47.756,17.761,47.463,17.761,47.172,17.761z"/>
<path fill="#211F30" d="M3.494,19.217c-0.582,0-1.164,0-1.746,0c0,0.584,0,1.165,0,1.748c0.582,0,1.164,0,1.746,0
	C3.494,20.382,3.494,19.801,3.494,19.217z"/>
<path fill="#BA6E54" d="M8.154,29.993c0-0.291,0-0.584,0-0.875c0.289,0,0.582,0,0.873,0s0.582,0,0.873,0c0-0.582,0-1.164,0-1.746
	c0.195,0,0.389,0,0.584,0c0.291,0,0.58,0,0.873,0c0-0.389,0-0.775,0-1.164c0-0.099,0-0.195,0-0.293c-0.195,0-0.389,0-0.582,0
	c-0.291,0-0.584,0-0.875,0c0-1.649,0-3.301,0-4.949c-0.582,0-1.164,0-1.746,0c0-0.194,0-0.389,0-0.583c0-0.388,0-0.776,0-1.165
	c-0.291,0-0.584,0-0.875,0c-0.193,0-0.389,0-0.58,0c-0.293,0-0.584,0-0.875,0s-0.582,0-0.873,0c-0.293,0-0.582,0-0.873,0
	c-0.195,0-0.389,0-0.584,0c0,0.584,0,1.165,0,1.748c-0.582,0-1.164,0-1.746,0c0,1.358,0,2.717,0,4.076s0,2.719,0,4.076
	c0.582,0,1.164,0,1.746,0c0,0.195,0,0.389,0,0.584c0,0.291,0,0.581,0,0.873c1.553,0,3.107,0,4.66,0
	C8.154,30.381,8.154,30.186,8.154,29.993z M7.863,27.372c-0.195,0-0.389,0-0.584,0c-0.193,0-0.389,0-0.58,0c0,0.582,0,1.164,0,1.746
	c-0.584,0-1.166,0-1.748,0c0-0.582,0-1.164,0-1.746c-0.193,0-0.389,0-0.582,0c-0.291,0-0.584,0-0.875,0c0-1.553,0-3.106,0-4.659
	c0.195,0,0.389,0,0.584,0c0.291,0,0.58,0,0.873,0c0-0.583,0-1.164,0-1.747c0.582,0,1.164,0,1.748,0c0,0.583,0,1.164,0,1.747
	c0.191,0,0.387,0,0.58,0c0.291,0,0.584,0,0.875,0c0,0.776,0,1.553,0,2.329c0,0.292,0,0.582,0,0.873c0,0.098,0.002,0.194,0,0.293
	c-0.004,0.096,0,0.193,0,0.29s0.004,0.196,0,0.29c-0.006,0.099,0.004,0.195,0,0.293c-0.002,0.043,0.027,0.264,0,0.291
	C8.105,27.42,7.922,27.332,7.863,27.372z"/>
<path fill="#853447" d="M18.055,20.965c0-0.194,0-0.389,0-0.583c0-0.388,0-0.776,0-1.165c-0.584,0-1.164,0-1.748,0
	c0,0.584,0,1.165,0,1.748C16.891,20.965,17.471,20.965,18.055,20.965z"/>
<path fill="#853447" d="M35.816,19.217c-0.582,0-1.166,0-1.746,0c0,0.584,0,1.165,0,1.748c0.58,0,1.164,0,1.746,0
	C35.816,20.382,35.816,19.801,35.816,19.217z"/>
<path fill="#A24745" d="M42.514,19.217c-0.098,0-0.195,0-0.293,0c0,0.584,0,1.165,0,1.748c0.293,0,0.584,0,0.875,0
	c0.193,0,0.389,0,0.582,0c0-0.583,0-1.164,0-1.748C43.289,19.217,42.902,19.217,42.514,19.217z"/>
<path fill="#211F30" d="M43.678,19.217c0,0.584,0,1.165,0,1.748c1.164,0,2.33,0,3.494,0c0-0.583,0-1.164,0-1.748
	c-0.582,0-1.164,0-1.746,0C44.842,19.217,44.262,19.217,43.678,19.217z"/>
<path fill="#211F30" d="M1.748,20.965c-0.584,0-1.164,0-1.748,0c0,1.358,0,2.717,0,4.076c0,0.68,0,1.359,0,2.039
	c0,0.291,0,0.582,0,0.873c0,0.388,0,0.776,0,1.164c0.291,0,0.584,0,0.873,0c0.291,0,0.584,0,0.875,0c0-1.357,0-2.717,0-4.076
	S1.748,22.324,1.748,20.965z"/>
<path fill="#211F30" d="M6.699,20.965c-0.584,0-1.166,0-1.748,0c0,0.583,0,1.164,0,1.747c0.582,0,1.164,0,1.748,0
	C6.699,22.129,6.699,21.548,6.699,20.965z"/>
<path fill="#853447" d="M11.357,22.422c0-0.293,0-0.584,0-0.874c0-0.099-0.002-0.194,0-0.292c0-0.097-0.002-0.195,0-0.291
	c-0.293,0-0.582,0-0.873,0c-0.195,0-0.389,0-0.584,0c0,1.648,0,3.3,0,4.949c0.291,0,0.584,0,0.875,0c0.193,0,0.387,0,0.582,0
	c0-0.775,0-1.553,0-2.328C11.357,23.198,11.357,22.809,11.357,22.422z"/>
<path fill="#A24745" d="M34.07,20.965c0,0.583,0,1.164,0,1.747c0.58,0,1.164,0,1.746,0c0-0.583,0-1.164,0-1.747
	C35.234,20.965,34.65,20.965,34.07,20.965z"/>
<path fill="#853447" d="M35.816,20.965c0,0.583,0,1.164,0,1.747c0.291,0,0.582,0,0.873,0c0.193,0,0.389,0,0.582,0
	c0-0.583,0-1.164,0-1.747c-0.291,0-0.582,0-0.873,0C36.203,20.965,36.01,20.965,35.816,20.965z"/>
<path fill="#211F30" d="M42.221,20.965c-0.871,0-1.744,0-2.619,0c-0.777,0-1.553,0-2.33,0c0,0.583,0,1.164,0,1.747
	c0.291,0,0.584,0,0.875,0c0.289,0,0.582,0,0.873,0c0,0.097,0,0.194,0,0.29c0,0.099,0,0.195,0,0.293c0,0.193,0,0.387,0,0.582
	c0,0.291,0,0.582,0,0.873c0,0.583,0,1.164,0,1.747c0,1.165,0,2.33,0,3.495c0,2.426,0,4.853,0,7.279c0.291,0,0.582,0,0.873,0
	c0.195,0,0.389,0,0.584,0c0-1.263,0-2.525,0-3.785c0-1.166,0-2.33,0-3.494c0-0.389,0-0.777,0-1.165c0-0.292,0-0.583,0-0.874
	s0-0.582,0-0.873c0-0.293,0-0.583,0-0.873c0-0.584,0-1.166,0-1.748c0-0.291,0-0.582,0-0.873s0-0.584,0-0.874c0.289,0,0.58,0,0.873,0
	c0.775,0,1.553,0,2.328,0c0-0.29,0-0.583,0-0.874c0-0.29,0-0.582,0-0.873c-0.193,0-0.389,0-0.582,0
	C42.805,20.965,42.514,20.965,42.221,20.965z"/>
<path fill="#853447" d="M4.951,22.712c-0.293,0-0.582,0-0.873,0c-0.195,0-0.389,0-0.584,0c0,1.553,0,3.106,0,4.659
	c0.291,0,0.584,0,0.875,0c0.193,0,0.389,0,0.582,0c0.582,0,1.164,0,1.748,0c0-1.553,0-3.106,0-4.659
	C6.115,22.712,5.533,22.712,4.951,22.712z"/>
<path fill="#211F30" d="M8.154,27.081c0.004-0.098-0.006-0.194,0-0.293c0.004-0.094,0-0.193,0-0.29s-0.004-0.194,0-0.29
	c0.002-0.099,0-0.195,0-0.293c0-0.291,0-0.581,0-0.873c0-0.776,0-1.553,0-2.329c-0.291,0-0.584,0-0.875,0c-0.193,0-0.389,0-0.58,0
	c0,1.553,0,3.106,0,4.659c0.191,0,0.387,0,0.58,0c0.195,0,0.389,0,0.584,0c0.059-0.04,0.242,0.049,0.291,0
	C8.182,27.344,8.152,27.124,8.154,27.081z"/>
<path fill="#A24745" d="M39.02,26.498c0-0.583,0-1.164,0-1.747c0-0.291,0-0.582,0-0.873c0-0.195,0-0.389,0-0.582
	c0-0.098,0-0.194,0-0.293c0-0.096,0-0.193,0-0.29c-0.291,0-0.584,0-0.873,0c-0.291,0-0.584,0-0.875,0c-0.193,0-0.389,0-0.582,0
	c-0.291,0-0.582,0-0.873,0c0,0.29,0,0.583,0,0.874c0,0.193,0,0.389,0,0.582c0.291,0,0.582,0,0.873,0c0.193,0,0.389,0,0.582,0
	c0,2.232,0,4.465,0,6.697c0,0.583,0,1.164,0,1.747c0,0.485,0,0.97,0,1.455c0,0.583,0,1.166,0,1.747c0,0.486,0,0.972,0,1.457
	c0.584,0,1.164,0,1.748,0c0-2.427,0-4.854,0-7.279C39.02,28.828,39.02,27.663,39.02,26.498z"/>
<path fill="#853447" d="M13.104,26.208c0-0.099,0-0.195,0-0.293c-0.582,0-1.164,0-1.746,0c0,0.098,0,0.194,0,0.293
	c0,0.389,0,0.775,0,1.164c0.582,0,1.164,0,1.746,0C13.104,26.983,13.104,26.596,13.104,26.208z"/>
<path fill="#853447" d="M19.51,29.118c0-0.873,0-1.746,0-2.62c0-0.194,0-0.389,0-0.583c-0.389,0-0.777,0-1.166,0
	c-0.096,0-0.191,0-0.289,0c0,0.583,0,1.166,0,1.748c0,0.291,0,0.582,0,0.873c0,0.194,0,0.389,0,0.582c0.289,0,0.582,0,0.873,0
	C19.121,29.118,19.316,29.118,19.51,29.118z"/>
<path fill="#853447" d="M32.613,26.788c0,0.195,0,0.389,0,0.584c0.291,0,0.582,0,0.873,0c0.195,0,0.389,0,0.584,0
	c0-0.291,0-0.584,0-0.874c0-0.194,0-0.389,0-0.583c-0.293,0-0.584,0-0.875,0c-0.193,0-0.389,0-0.582,0
	C32.613,26.208,32.613,26.498,32.613,26.788z"/>
<path fill="#211F30" d="M4.951,29.118c0.582,0,1.164,0,1.748,0c0-0.582,0-1.164,0-1.746c-0.584,0-1.166,0-1.748,0
	C4.951,27.954,4.951,28.536,4.951,29.118z"/>
<path fill="#211F30" d="M11.357,29.118c0-0.582,0-1.164,0-1.746c-0.293,0-0.582,0-0.873,0c-0.195,0-0.389,0-0.584,0
	c0,0.582,0,1.164,0,1.746c0.098,0,0.195,0,0.291,0C10.58,29.118,10.969,29.118,11.357,29.118z"/>
<path fill="#A24745" d="M16.307,29.118c-0.582,0-1.164,0-1.748,0c-0.289,0-0.58,0-0.873,0c-0.193,0-0.389,0-0.582,0
	c0-0.582,0-1.164,0-1.746c-0.582,0-1.164,0-1.746,0c0,0.582,0,1.164,0,1.746c-0.389,0-0.777,0-1.166,0c-0.096,0-0.193,0-0.291,0
	c0,0.195,0,0.389,0,0.584c0,0.291,0,0.581,0,0.873c2.137,0,4.271,0,6.406,0c0-0.292,0-0.582,0-0.873
	C16.307,29.506,16.307,29.313,16.307,29.118z"/>
<path fill="#211F30" d="M3.494,29.118c-0.582,0-1.164,0-1.746,0c0,0.291,0,0.584,0,0.875c0,0.193,0,0.389,0,0.582
	c0.582,0,1.164,0,1.746,0c0-0.292,0-0.582,0-0.873C3.494,29.506,3.494,29.313,3.494,29.118z"/>
<path fill="#211F30" d="M16.307,32.321c0-0.582,0-1.164,0-1.746c-2.135,0-4.27,0-6.406,0c0-0.292,0-0.582,0-0.873
	c0-0.195,0-0.389,0-0.584c-0.291,0-0.582,0-0.873,0s-0.584,0-0.873,0c0,0.291,0,0.584,0,0.875c0,0.193,0,0.389,0,0.582
	c-1.553,0-3.107,0-4.66,0c0,0.582,0,1.164,0,1.746c1.068,0,2.137,0,3.205,0c0,1.65,0,3.3,0,4.951c0.291,0,0.58,0,0.871,0
	c0.195,0,0.389,0,0.584,0c0-1.651,0-3.301,0-4.951C10.871,32.321,13.59,32.321,16.307,32.321z"/>
<path fill="#853447" d="M18.055,29.702c0-0.195,0-0.389,0-0.584c-0.584,0-1.164,0-1.748,0c0,0.195,0,0.389,0,0.584
	c0,0.291,0,0.581,0,0.873c0.584,0,1.164,0,1.748,0C18.055,30.283,18.055,29.993,18.055,29.702z"/>
<path fill="#853447" d="M32.613,29.118c0,0.291,0,0.584,0,0.875c0,0.775,0,1.553,0,2.328c0.291,0,0.582,0,0.873,0
	c0.195,0,0.389,0,0.584,0c0-0.193,0-0.387,0-0.582c0-0.873,0-1.746,0-2.621c-0.195,0-0.389,0-0.584,0
	C33.195,29.118,32.904,29.118,32.613,29.118z"/>
<path fill="#A24745" d="M18.055,30.575c-0.584,0-1.164,0-1.748,0c0,0.582,0,1.164,0,1.746c0.584,0,1.164,0,1.748,0
	C18.055,31.739,18.055,31.157,18.055,30.575z"/>
<path fill="#853447" d="M22.713,32.321c0.582,0,1.164,0,1.748,0c0-0.582,0-1.164,0-1.746c-0.584,0-1.166,0-1.748,0
	C22.713,31.157,22.713,31.739,22.713,32.321z"/>
<path fill="#A24745" d="M9.9,33.778c0.291,0,0.584,0,0.875,0c0.289,0,0.582,0,0.873,0c0.193,0,0.389,0,0.582,0
	c0.291,0,0.582,0,0.873,0c0.193,0,0.389,0,0.582,0c0.293,0,0.584,0,0.873,0c0.584,0,1.166,0,1.748,0c0-0.291,0-0.584,0-0.875
	c0-0.193,0-0.388,0-0.582c-2.717,0-5.436,0-8.152,0c0,1.65,0,3.3,0,4.951c0.582,0,1.164,0,1.746,0C9.9,36.108,9.9,34.942,9.9,33.778
	z"/>
<path fill="#BA6E54" d="M12.23,33.778c-0.193,0-0.389,0-0.582,0c-0.291,0-0.584,0-0.873,0c-0.291,0-0.584,0-0.875,0
	c0,1.164,0,2.33,0,3.494c0.195,0,0.389,0,0.584,0c0.291,0,0.58,0,0.873,0c0.582,0,1.164,0,1.746,0c0-0.584,0-1.164,0-1.748
	c0-0.582,0-1.164,0-1.746C12.813,33.778,12.521,33.778,12.23,33.778z"/>
<path fill="#853447" d="M13.686,33.778c-0.193,0-0.389,0-0.582,0c0,0.582,0,1.164,0,1.746c0.291,0,0.582,0,0.875,0
	c0.193,0,0.387,0,0.58,0c0-0.582,0-1.164,0-1.746C14.27,33.778,13.979,33.778,13.686,33.778z"/>
<path fill="#853447" d="M22.713,33.778c0,0.582,0,1.164,0,1.746c0.582,0,1.164,0,1.748,0c0-0.582,0-1.164,0-1.746
	C23.877,33.778,23.295,33.778,22.713,33.778z"/>
<path fill="#211F30" d="M34.07,33.778c-0.293,0-0.584,0-0.875,0c-0.193,0-0.389,0-0.582,0c0,1.164,0,2.33,0,3.494
	c0,0.193,0,0.389,0,0.582c0,0.291,0,0.582,0,0.874c-2.717,0-5.436,0-8.152,0c0-0.292,0-0.583,0-0.874c0-0.777,0-1.553,0-2.33
	c-0.584,0-1.166,0-1.748,0c0,0.584,0,1.164,0,1.748c0,0.193,0,0.389,0,0.582c0,0.291,0,0.582,0,0.874c-2.717,0-5.436,0-8.154,0
	c0-0.292,0-0.583,0-0.874c0-0.777,0-1.553,0-2.33c-0.193,0-0.387,0-0.58,0c-0.293,0-0.584,0-0.875,0c0,0.584,0,1.164,0,1.748
	c0,0.193,0,0.389,0,0.582c0,0.291,0,0.582,0,0.874c-1.066,0-2.135,0-3.203,0c0,0.581,0,1.165,0,1.745c0.291,0,0.584,0,0.875,0
	c0.193,0,0.387,0,0.582,0c0,0.195,0,0.389,0,0.584c0,0.291,0,0.582,0,0.873c0.582,0,1.164,0,1.746,0c0-0.194,0-0.389,0-0.582
	c0-0.291,0-0.582,0-0.875c0.098,0,0.193,0,0.291,0c0.389,0,0.777,0,1.164,0c0.389,0,0.777,0,1.166,0c0.777,0,1.553,0,2.33,0
	c0,0.195,0,0.389,0,0.584c0,0.291,0,0.582,0,0.873c0.289,0,0.582,0,0.873,0c0.193,0,0.389,0,0.582,0c0-0.194,0-0.389,0-0.582
	c0-0.291,0-0.582,0-0.875c2.719,0,5.436,0,8.152,0c0,0.195,0,0.389,0,0.584c0,0.291,0,0.582,0,0.873c0.293,0,0.582,0,0.875,0
	c0.193,0,0.387,0,0.582,0c0-0.194,0-0.389,0-0.582c0-0.291,0-0.582,0-0.875c0.098,0,0.193,0,0.291,0c0.389,0,0.777,0,1.166,0
	s0.775,0,1.164,0c0.775,0,1.553,0,2.33,0c0,0.195,0,0.389,0,0.584c0,0.291,0,0.582,0,0.873c0.58,0,1.164,0,1.746,0
	c0-0.291,0-0.582,0-0.873c0-0.195,0-0.389,0-0.584c0.291,0,0.582,0,0.873,0c0.193,0,0.389,0,0.582,0c0-0.58,0-1.164,0-1.745
	c-1.068,0-2.135,0-3.201,0C34.07,37.077,34.07,35.428,34.07,33.778z"/>
<path fill="#A24745" d="M37.271,37.272c-0.291,0-0.582,0-0.873,0c-0.195,0-0.389,0-0.582,0c0-1.164,0-2.33,0-3.494
	c-0.582,0-1.166,0-1.746,0c0,1.65,0,3.299,0,4.95c1.066,0,2.133,0,3.201,0c0-0.194,0-0.389,0-0.583
	C37.271,37.854,37.271,37.563,37.271,37.272z"/>
<path fill="#A24745" d="M16.307,36.398c0-0.29,0-0.583,0-0.874c-0.291,0-0.582,0-0.873,0s-0.584,0-0.875,0c0,0.777,0,1.553,0,2.33
	c0,0.291,0,0.582,0,0.874c2.719,0,5.438,0,8.154,0c0-0.292,0-0.583,0-0.874c0-0.193,0-0.389,0-0.582c-2.137,0-4.27,0-6.406,0
	C16.307,36.981,16.307,36.688,16.307,36.398z"/>
<path fill="#A24745" d="M25.916,36.398c0-0.29,0-0.583,0-0.874c-0.291,0-0.582,0-0.873,0c-0.195,0-0.389,0-0.582,0
	c0,0.777,0,1.553,0,2.33c0,0.291,0,0.582,0,0.874c2.717,0,5.436,0,8.152,0c0-0.292,0-0.583,0-0.874c0-0.193,0-0.389,0-0.582
	c-2.232,0-4.465,0-6.697,0C25.916,36.981,25.916,36.688,25.916,36.398z"/>
<path fill="#211F30" d="M9.9,37.272c-0.582,0-1.164,0-1.746,0c0,0.291,0,0.582,0,0.873c0,0.194,0,0.389,0,0.583
	c0.582,0,1.164,0,1.746,0c0-0.292,0-0.583,0-0.874C9.9,37.661,9.9,37.465,9.9,37.272z"/>
<path fill="#A24745" d="M13.104,37.854c0-0.193,0-0.389,0-0.582c-0.582,0-1.164,0-1.746,0c-0.293,0-0.582,0-0.873,0
	c-0.195,0-0.389,0-0.584,0c0,0.193,0,0.389,0,0.582c0,0.291,0,0.582,0,0.874c1.068,0,2.137,0,3.203,0
	C13.104,38.436,13.104,38.145,13.104,37.854z"/>
<path fill="#211F30" d="M37.271,38.145c0,0.194,0,0.389,0,0.583c0.584,0,1.164,0,1.748,0c0-0.292,0-0.583,0-0.874
	c0-0.193,0-0.389,0-0.582c-0.584,0-1.164,0-1.748,0C37.271,37.563,37.271,37.854,37.271,38.145z"/>
<path fill="#A24745" d="M18.055,40.473c-0.777,0-1.553,0-2.33,0c-0.389,0-0.777,0-1.166,0c-0.387,0-0.775,0-1.164,0
	c-0.098,0-0.193,0-0.291,0c0,0.293,0,0.584,0,0.875c0,0.193,0,0.388,0,0.582c0.777,0,1.555,0,2.33,0c0.389,0,0.777,0,1.164,0
	c0.389,0,0.777,0,1.166,0c0.096,0,0.193,0,0.291,0c0-0.291,0-0.582,0-0.873C18.055,40.862,18.055,40.668,18.055,40.473z"/>
<path fill="#A24745" d="M34.07,40.473c-0.777,0-1.555,0-2.33,0c-0.389,0-0.775,0-1.164,0s-0.777,0-1.166,0c-0.098,0-0.193,0-0.291,0
	c0,0.293,0,0.584,0,0.875c0,0.193,0,0.388,0,0.582c0.777,0,1.553,0,2.33,0c0.387,0,0.775,0,1.164,0s0.775,0,1.164,0
	c0.098,0,0.195,0,0.293,0c0-0.291,0-0.582,0-0.873C34.07,40.862,34.07,40.668,34.07,40.473z"/>
<path fill="#211F30" d="M16.598,41.93c-0.387,0-0.775,0-1.164,0c-0.775,0-1.553,0-2.33,0c0,0.583,0,1.164,0,1.748
	c0.777,0,1.555,0,2.33,0c0.873,0,1.746,0,2.621,0c0-0.584,0-1.165,0-1.748c-0.098,0-0.195,0-0.291,0
	C17.375,41.93,16.986,41.93,16.598,41.93z"/>
<path fill="#211F30" d="M32.613,41.93c-0.389,0-0.777,0-1.164,0c-0.777,0-1.553,0-2.33,0c0,0.583,0,1.164,0,1.748
	c0.777,0,1.553,0,2.33,0c0.873,0,1.746,0,2.621,0c0-0.584,0-1.165,0-1.748c-0.098,0-0.195,0-0.293,0
	C33.389,41.93,33.002,41.93,32.613,41.93z"/>
<path fill="#211F30" d="M23.845,16.888c0-1.068,0-2.136,0-3.204c-0.195,0-0.389,0-0.584,0c-0.289,0-0.582,0-0.873,0
	c0,1.068,0,2.136,0,3.204c0.291,0,0.584,0,0.873,0C23.456,16.888,23.649,16.888,23.845,16.888z"/>
<path fill="#211F30" d="M9.172,13.854c0,1.068,0,2.136,0,3.204c0.291,0,0.584,0,0.873,0c0.195,0,0.389,0,0.584,0
	c0-1.068,0-2.136,0-3.204c-0.195,0-0.389,0-0.584,0C9.756,13.854,9.463,13.854,9.172,13.854z"/>
</svg>
