<?xml version="1.0" encoding="utf-8"?>
<!-- Generator: Adobe Illustrator 15.0.0, SVG Export Plug-In  -->
<!DOCTYPE svg PUBLIC "-//W3C//DTD SVG 1.1//EN" "http://www.w3.org/Graphics/SVG/1.1/DTD/svg11.dtd" [
	<!ENTITY ns_flows "http://ns.adobe.com/Flows/1.0/">
]>
<svg version="1.1"
	 xmlns="http://www.w3.org/2000/svg" xmlns:xlink="http://www.w3.org/1999/xlink" xmlns:a="http://ns.adobe.com/AdobeSVGViewerExtensions/3.0/"
	 x="0px" y="0px" width="70px" height="55px" viewBox="-10.308 -8.12 70 55" enable-background="new -10.308 -8.12 70 55"
	 xml:space="preserve">
<defs>
</defs>
<path fill="#211F30" d="M48.336,1.455c0.194,0,0.389,0,0.583,0c0.387,0,0.775,0,1.164,0c0-0.292,0-0.583,0-0.874
	c0-0.194,0-0.389,0-0.582c-0.291,0-0.582,0-0.873,0c-0.194,0-0.389,0-0.583,0c-0.581,0-1.165,0-1.747,0c0.002,0.291,0,0.582,0,0.872
	c0,0.196,0,0.389,0,0.583c0.193,0,0.389,0,0.582,0C47.753,1.455,48.046,1.455,48.336,1.455z"/>
<path fill="#211F30" d="M46.88,1.455c-0.582,0-1.164,0-1.746,0c0,0.583,0,1.164,0,1.747c0.582,0,1.164,0,1.746,0
	C46.88,2.619,46.88,2.038,46.88,1.455z"/>
<path fill="#619E43" d="M48.336,9.608c0.583,0,1.165,0,1.747,0c0-0.582,0-1.166,0-1.748c0.195,0,0.389,0,0.584,0
	c0.29,0,0.58,0,0.873,0c0-1.553,0-3.106,0-4.659c-0.194,0-0.389,0-0.583,0c-0.29,0-0.583,0-0.874,0c0-0.583,0-1.164,0-1.747
	c-0.389,0-0.777,0-1.164,0c-0.194,0-0.389,0-0.583,0c-0.29,0-0.583,0-0.874,0c-0.193,0-0.389,0-0.582,0c0,0.583,0,1.164,0,1.747
	c-0.582,0-1.164,0-1.746,0c0,1.553,0,3.106,0,4.659c0.582,0,1.164,0,1.746,0c0,0.582,0,1.166,0,1.748c0.193,0,0.389,0,0.582,0
	C47.753,9.608,48.046,9.608,48.336,9.608z"/>
<path fill="#211F30" d="M50.957,3.202c0.194,0,0.389,0,0.583,0c0-0.583,0-1.164,0-1.747c-0.293,0-0.583,0-0.873,0
	c-0.195,0-0.389,0-0.584,0c0,0.583,0,1.164,0,1.747C50.374,3.202,50.667,3.202,50.957,3.202z"/>
<path fill="#211F30" d="M11.064,4.657c1.165,0,2.33,0,3.495,0c0-0.291,0-0.582,0-0.872c0-0.196,0-0.389,0-0.583
	c-0.777,0-1.553,0-2.33,0c-0.776,0-1.553,0-2.329,0c-0.098,0-0.194,0-0.292,0c0,0.292,0,0.583,0,0.874c0,0.194,0,0.389,0,0.582
	c0.194,0,0.389,0,0.583,0C10.481,4.657,10.774,4.657,11.064,4.657z"/>
<path fill="#211F30" d="M26.497,4.657c0.291,0,0.583,0,0.874,0c0.29,0,0.583,0,0.874,0c0.29,0,0.582,0,0.873,0
	c0.389,0,0.775,0,1.164,0c0.098,0,0.195,0,0.293,0c0-0.291,0-0.582,0-0.872c0-0.196,0-0.389,0-0.583c-0.682,0-1.361,0-2.04,0
	c-0.29,0-0.581,0-0.874,0c-0.29,0-0.581,0-0.873,0c-1.165,0-2.329,0-3.493,0c-1.166,0-2.331,0-3.495,0c-0.583,0-1.166,0-1.747,0
	c-0.292,0-0.583,0-0.874,0c-0.389,0-0.777,0-1.164,0c0,0.292,0,0.583,0,0.874c0,0.194,0,0.389,0,0.582c2.329,0,4.659,0,6.987,0
	C24.167,4.657,25.333,4.657,26.497,4.657z"/>
<path fill="#211F30" d="M33.776,4.657c0.584,0,1.165,0,1.748,0c0.389,0,0.777,0,1.164,0c0.098,0,0.194,0,0.293,0
	c0-0.291,0-0.582,0-0.872c0-0.196,0-0.389,0-0.583c-1.554,0-3.107,0-4.661,0c0.001,0.292,0,0.583,0,0.874c0,0.194,0,0.389,0,0.582
	c0.194,0,0.389,0,0.583,0C33.194,4.657,33.486,4.657,33.776,4.657z"/>
<path fill="#211F30" d="M44.261,3.202c-0.195,0-0.389,0-0.584,0c0,1.553,0,3.106,0,4.659c0.291,0,0.584,0,0.874,0
	c0.194,0,0.389,0,0.583,0c0-1.553,0-3.106,0-4.659C44.842,3.202,44.551,3.202,44.261,3.202z"/>
<path fill="#211F30" d="M53.868,7.861c0.874,0,1.748,0,2.621,0c0-0.291,0-0.581,0-0.874c0-0.194,0-0.387,0-0.583
	c-0.873,0-1.747,0-2.621,0c-0.193,0-0.389,0-0.582,0c0-0.291,0-0.581,0-0.872c0-0.777,0-1.554,0-2.33c-0.291,0-0.582,0-0.873,0
	c-0.292,0-0.582,0-0.873,0c0,1.553,0,3.106,0,4.659C52.315,7.861,53.093,7.861,53.868,7.861z"/>
<path fill="#211F30" d="M9.608,4.657c-0.581,0-1.164,0-1.746,0c0,0.583,0,1.166,0,1.747c0.582,0,1.165,0,1.746,0
	C9.608,5.823,9.608,5.24,9.608,4.657z"/>
<path fill="#A24745" d="M10.481,6.404c0.194,0,0.389,0,0.583,0c0-0.581,0-1.164,0-1.747c-0.291,0-0.583,0-0.874,0
	c-0.194,0-0.389,0-0.583,0c0,0.583,0,1.166,0,1.747C9.9,6.404,10.191,6.404,10.481,6.404z"/>
<path fill="#BA6E54" d="M11.064,6.404c-0.194,0-0.389,0-0.583,0c-0.291,0-0.581,0-0.874,0c0,0.777,0.001,1.555,0,2.33
	c0,0.874,0,1.748,0,2.621c0.194,0,0.389,0,0.583,0c0.291,0,0.583,0,0.874,0c0.583,0,1.165,0,1.748,0c0,0.194,0,0.389,0,0.581
	c0,0.292,0,0.583,0,0.875c0.583,0,1.164,0,1.747,0c0,0.582,0,1.164,0,1.747c0,0.193,0,0.387,0,0.582c0,0.291,0,0.581,0,0.874
	c0.194,0,0.389,0,0.583,0c0.291,0,0.581,0,0.874,0c0,0.292,0,0.583,0,0.874s0,0.582,0,0.874c0.582,0,1.164,0,1.746,0
	c0,0.292,0,0.583,0,0.874c0,0.194,0,0.389,0,0.582c-0.582,0-1.164,0-1.746,0c0-0.193,0-0.387,0-0.582c0-0.291,0-0.581,0-0.874
	c-0.194,0-0.389,0-0.583,0c-0.291,0-0.583,0-0.874,0c-0.583,0-1.165,0-1.747,0c-0.194,0-0.389,0-0.583,0c-0.291,0-0.582,0-0.874,0
	c-0.582,0-1.165,0-1.748,0c0,0.194,0,0.387,0,0.583c0,0.291,0,0.582,0,0.872c0.194,0,0.389,0,0.583,0c0.291,0,0.583,0,0.874,0
	c0,0.098,0,0.196,0,0.292c0,0.387,0,0.776,0,1.165s0,0.777,0,1.164c0,0.777,0,1.553,0,2.33c0.583,0,1.165,0,1.748,0
	c0,0.583,0,1.164,0,1.747c0,0.194,0,0.389,0,0.583c0,0.291,0,0.582,0,0.873c0.194,0,0.388,0,0.583,0c0.291,0,0.582,0,0.874,0
	c0.581,0,1.164,0,1.747,0c0.582,0,1.164,0,1.746,0c0-0.193,0.001-0.389,0-0.582c0-0.291,0-0.584,0-0.874c0-0.583,0-1.164,0-1.747
	c0.098,0,0.194,0,0.292,0c0.388,0,0.775,0,1.164,0c0,0.194,0,0.389,0,0.583c0,0.874,0,1.747,0,2.62c-0.194,0-0.389,0-0.583,0
	c-0.291,0-0.581,0-0.874,0c0,0.582,0,1.165,0,1.746c0,0.194,0.001,0.389,0,0.583c0,0.29,0.001,0.583,0,0.874
	c-0.582,0-1.164,0-1.746,0c0,0.291,0,0.582,0,0.873s0,0.583,0,0.873c-0.292,0-0.583,0-0.874,0c-0.292,0-0.583,0-0.874,0
	c-0.194,0-0.389,0-0.583,0c-0.291,0-0.583,0-0.874,0c-0.194,0-0.389,0-0.583,0c-0.291,0-0.582,0-0.874,0c-0.582,0-1.165,0-1.748,0
	c0,1.554,0,3.106,0,4.66c0.194,0,0.389,0,0.583,0c0.291,0,0.583,0,0.874,0c0.583,0,1.165,0,1.748,0c0-0.195,0-0.389,0-0.584
	c0-0.291,0-0.581,0-0.873c0-0.582,0-1.164,0-1.746c0.583,0,1.164,0,1.747,0c0,0.582,0,1.164,0,1.746c0.194,0,0.389,0,0.583,0
	c0.291,0,0.581,0,0.874,0c0,0.292,0,0.582,0,0.873c0,0.195,0,0.389,0,0.584c0.193,0,0.387,0,0.582,0c0.971,0,1.941,0,2.911,0
	c0.194,0,0.389,0,0.583,0c0.291,0,0.583,0,0.874,0c0.194,0,0.389,0,0.583,0c0.291,0,0.582,0,0.874,0c0-0.195,0-0.389,0-0.584
	c0-0.291,0-0.581,0-0.873c0-0.582,0-1.164,0-1.746c0.582,0,1.165,0,1.746,0c0,0.582,0,1.164,0,1.746c0.194,0,0.389,0,0.583,0
	c0.291,0,0.583,0,0.874,0c0,0.098,0,0.194,0,0.292c0,0.389,0,0.776,0,1.165c0.194,0,0.389,0,0.583,0c2.039,0,4.076,0,6.114,0
	c0-0.486,0-0.971,0-1.457c0-0.582,0-1.164,0-1.746c0.194,0,0.389,0,0.583,0c0.291,0,0.583,0,0.873,0c0.584,0,1.165,0,1.748,0
	c0,0.291,0,0.582,0,0.874c0,0.387,0,0.775,0,1.164c0,0.29,0,0.581,0,0.874c0.037,0.064-0.048,0.232,0,0.291
	c0.019,0.023,0.256,0,0.291,0c0.098,0,0.193,0,0.291,0c0.291,0,0.582,0,0.875,0c0-0.195,0-0.389,0-0.584c0-0.291,0-0.581,0-0.873
	c0-0.291,0-0.582,0-0.872c0-0.292,0-0.583,0-0.874c0-1.166,0-2.33,0-3.494c0-0.194,0-0.389,0-0.583c0-0.29,0-0.583,0-0.874
	c0-0.29,0-0.582,0-0.873s0-0.582,0-0.873c0-1.165,0-2.329,0-3.495c0-0.388,0-0.776,0-1.165c-0.195,0-0.389,0-0.584,0
	c-0.291,0-0.582,0-0.873,0c0-0.193,0-0.388,0-0.582c0-0.291,0-0.582,0-0.874c-0.583,0-1.164,0-1.748,0c0-0.581,0-1.164,0-1.747
	c0-0.193,0-0.387,0-0.582c0-0.291,0-0.581,0-0.874c0.584,0,1.165,0,1.748,0c0,0.194,0,0.387,0,0.583c0,0.291,0,0.582,0,0.872
	c0.193,0,0.389,0,0.582,0c0.291,0,0.582,0,0.875,0c0.775,0,1.553,0,2.328,0c0.873,0,1.747,0,2.621,0c0-0.193,0-0.387,0-0.582
	c0-0.291,0-0.581,0-0.874c0.582,0,1.164,0,1.746,0c0.195,0,0.389,0,0.584,0c0.29,0,0.581,0,0.873,0c0-0.583,0-1.164,0-1.747
	c0.582,0,1.164,0,1.746,0c0-0.387,0-0.776,0-1.164c-0.038-0.066,0.049-0.234,0-0.291c-0.018-0.023-0.256,0-0.291,0
	c-0.094,0-0.199,0.013-0.291,0c-0.092-0.014-0.199,0-0.292,0c-0.29,0-0.581,0-0.872,0c-0.194,0-0.389,0-0.583,0
	c-0.29,0-0.583,0-0.874,0c-0.582,0-1.164,0-1.746,0c0,0.193,0,0.387,0,0.582c0,0.291,0,0.581,0,0.874c-0.291,0-0.584,0-0.874,0
	c-0.194,0-0.389,0-0.583,0c-0.387,0-0.775,0-1.164,0c-0.775,0-1.553,0-2.328,0c-0.195,0-0.389,0-0.584,0c-0.291,0-0.582,0-0.873,0
	c0-0.387,0-0.776,0-1.164c0-0.098,0-0.194,0-0.291c0.193,0,0.389,0,0.582,0c0.291,0,0.582,0,0.875,0c0-0.292,0-0.583,0-0.875
	c0-0.389,0-0.776,0-1.165c0-0.291,0-0.583,0-0.874c0-0.389,0-0.777,0-1.164c0-0.292,0-0.583,0-0.874c0-0.389,0-0.777,0-1.166
	c0-0.679,0-1.359,0-2.038c-0.195,0-0.389,0-0.584,0c-0.291,0-0.582,0-0.873,0c0-0.581,0-1.164,0-1.747c-0.583,0-1.164,0-1.748,0
	c-0.29,0-0.582,0-0.873,0c-0.194,0-0.389,0-0.583,0c0,0.196,0,0.389,0,0.583c0,0.292,0,0.583,0,0.874c0,0.583,0,1.166,0,1.747
	c0,0.874,0,1.748,0,2.621c0,0.292,0,0.583,0,0.874c-0.387,0-0.775,0-1.164,0c-0.194,0-0.389,0-0.581,0c0-1.166,0-2.329,0-3.495
	c0-0.194,0-0.389,0-0.581c0-0.292,0-0.583,0-0.875c0-0.581,0-1.164,0-1.747c-0.098,0-0.195,0-0.293,0c-0.389,0-0.775,0-1.164,0
	c-0.291,0-0.583,0-0.873,0c-0.291,0-0.584,0-0.874,0c-0.291,0-0.583,0-0.874,0c-1.164,0-2.33,0-3.494,0c-2.329,0-4.659,0-6.987,0
	c0,0.583,0,1.166,0,1.747c0,0.196,0,0.389,0,0.583c0,0.292,0,0.583,0,0.874c-0.292,0-0.583,0-0.874,0c-0.194,0-0.389,0-0.583,0
	c0-0.194,0-0.389,0-0.581c0-0.292,0-0.583,0-0.875c0-0.581,0-1.164,0-1.747c-1.165,0-2.33,0-3.495,0
	C11.064,5.24,11.064,5.823,11.064,6.404z M33.776,31.738c0,0.194,0,0.389,0,0.582c-0.193,0-0.389,0-0.582,0
	c-0.291,0-0.582,0-0.874,0c0-0.776,0-1.553,0-2.33c0-0.29,0-0.58,0-0.873c0.292,0,0.583,0,0.874,0c0.193,0,0.389,0,0.582,0
	C33.776,29.99,33.776,30.865,33.776,31.738z M32.903,25.915c0.291,0,0.583,0,0.873,0c0,0.194,0,0.389,0,0.583
	c0,0.291,0,0.582,0,0.873c-0.193,0-0.389,0-0.582,0c-0.291,0-0.582,0-0.874,0c0-0.193,0-0.389,0-0.582c0-0.291,0-0.584,0-0.874
	C32.515,25.915,32.709,25.915,32.903,25.915z M30.575,12.812c0.581,0,1.164,0,1.745,0c0,0.582,0,1.164,0,1.747
	c-0.581,0-1.164,0-1.745,0C30.575,13.976,30.575,13.394,30.575,12.812z M24.167,32.32c-0.581,0-1.164,0-1.746,0
	c0-0.582,0-1.164,0-1.746c0.582,0,1.165,0,1.746,0C24.167,31.156,24.167,31.738,24.167,32.32z M19.218,18.635
	c0-0.291,0-0.581,0-0.874c0-1.358,0-2.719,0-4.077c0-0.291,0-0.582,0-0.872c0.583,0,1.164,0,1.747,0c0-0.292,0-0.583,0-0.875
	c0-0.192,0-0.387,0-0.581c0.68,0,1.359,0,2.038,0c0.583,0,1.164,0,1.747,0c0.291,0,0.583,0,0.874,0c0,0.194,0,0.389,0,0.581
	c0,0.292,0,0.583,0,0.875c0.583,0,1.165,0,1.748,0c0,0.775,0,1.551,0,2.329c0,0.874,0,1.747,0,2.621c0,0.194,0,0.387,0,0.583
	c0,0.291,0,0.582,0,0.872c-0.583,0-1.165,0-1.748,0c-1.553,0-3.105,0-4.659,0c-0.583,0-1.164,0-1.747,0
	C19.218,19.023,19.218,18.829,19.218,18.635z"/>
<path fill="#211F30" d="M15.433,6.404c0.194,0,0.389,0,0.583,0c0-0.581,0-1.164,0-1.747c-0.194,0-0.389,0-0.583,0
	c-0.291,0-0.583,0-0.874,0c0,0.583,0,1.166,0,1.747C14.85,6.404,15.142,6.404,15.433,6.404z"/>
<path fill="#211F30" d="M30.575,7.28c0,0.192,0,0.387,0,0.581c0.581,0,1.164,0,1.745,0c0-0.581,0-1.164,0-1.747
	c0-0.291,0-0.582,0-0.874c0-0.194,0-0.387,0-0.583c-0.581,0-1.164,0-1.745,0c0,0.583,0,1.166,0,1.747
	C30.575,6.697,30.575,6.987,30.575,7.28z"/>
<path fill="#A24745" d="M35.524,4.657c0,0.583,0,1.166,0,1.747c0.291,0,0.582,0,0.873,0c0.195,0,0.389,0,0.584,0
	c0-0.581,0-1.164,0-1.747c-0.099,0-0.195,0-0.293,0C36.302,4.657,35.913,4.657,35.524,4.657z"/>
<path fill="#211F30" d="M38.727,6.404c0-0.581,0-1.164,0-1.747c-0.581,0-1.165,0-1.745,0c0,0.583,0,1.166,0,1.747
	C37.562,6.404,38.146,6.404,38.727,6.404z"/>
<path fill="#211F30" d="M7.862,16.014c0-0.485,0-0.972,0-1.455c0-0.583,0-1.166,0-1.747c0-0.196,0-0.389,0-0.583
	c0-0.292,0-0.583,0-0.874c0-0.777,0-1.553,0-2.329c0-0.389,0-0.777,0-1.166s0-0.777,0-1.164c0-0.097,0-0.194,0-0.292
	c-0.292,0-0.583,0-0.874,0c-0.194,0-0.389,0-0.583,0c0,0.875,0,1.748,0,2.623c0,0.776,0,1.551,0,2.329s0,1.553,0,2.329
	c0,0.777,0,1.554,0,2.33c0.291,0,0.583,0,0.874,0C7.474,16.014,7.668,16.014,7.862,16.014z"/>
<path fill="#A24745" d="M7.862,7.861c0,0.389,0,0.777,0,1.166c0,0.776,0,1.551,0,2.329c0.582,0,1.165,0,1.746,0
	c0-0.874,0-1.747,0-2.621c0.001-0.775,0-1.553,0-2.33c-0.581,0-1.164,0-1.746,0c0,0.098,0,0.196,0,0.292
	C7.862,7.083,7.862,7.472,7.862,7.861z"/>
<path fill="#853447" d="M14.559,6.404c0,0.292,0,0.583,0,0.875c0,0.192,0,0.387,0,0.581c0.194,0,0.389,0,0.583,0
	c0.291,0,0.581,0,0.874,0c0-0.291,0-0.581,0-0.874c0-0.194,0-0.387,0-0.583c-0.194,0-0.389,0-0.583,0
	C15.142,6.404,14.85,6.404,14.559,6.404z"/>
<path fill="#A24745" d="M36.981,8.442c0,0.389,0,0.777,0,1.166c0,0.291,0,0.581,0,0.874c0,0.387,0,0.775,0,1.164
	c0,0.291,0,0.583,0,0.874c0,0.389,0,0.776,0,1.165c0,0.292,0,0.583,0,0.875c0.58,0,1.164,0,1.745,0c0.001-0.679,0-1.358,0-2.04
	c0.001-0.679,0-1.358,0-2.038c0-1.359,0-2.719,0-4.078c-0.581,0-1.165,0-1.745,0C36.981,7.083,36.981,7.763,36.981,8.442z"/>
<path fill="#211F30" d="M38.727,12.52c0,0.681,0.001,1.36,0,2.04c-0.581,0-1.165,0-1.745,0c0,0.387,0,0.776,0,1.163
	c0,0.098,0,0.196,0,0.292c0.775,0,1.553,0,2.328,0c0.389,0,0.777,0,1.164,0c0.194,0,0.389,0,0.583,0c0.29,0,0.583,0,0.874,0
	c0-0.292,0-0.583,0-0.874c0-0.194,0-0.389,0-0.582c-0.584,0-1.164,0-1.748,0c0-1.358,0-2.719,0-4.077c0-0.679,0-1.359,0-2.04
	c0-0.291,0-0.582,0-0.872c0-0.194,0-0.389,0-0.583c0-0.096,0-0.194,0-0.291c0-0.097,0-0.194,0-0.292c-0.291,0-0.582,0-0.873,0
	c-0.194,0-0.389,0-0.583,0c0,1.359,0,2.719,0,4.078C38.727,11.161,38.728,11.84,38.727,12.52z"/>
<path fill="#853447" d="M30.575,11.355c0.192,0,0.387,0,0.581,0c0.389,0,0.777,0,1.164,0c0-0.291,0-0.582,0-0.874
	c0-0.874,0-1.748,0-2.621c-0.581,0-1.164,0-1.745,0C30.575,9.027,30.575,10.189,30.575,11.355z"/>
<path fill="#211F30" d="M45.134,7.861c0,0.582,0,1.166,0,1.748c0.582,0,1.164,0,1.746,0c0-0.582,0-1.166,0-1.748
	C46.298,7.861,45.716,7.861,45.134,7.861z"/>
<path fill="#211F30" d="M50.083,7.861c0,0.582,0,1.166,0,1.748c0.291,0,0.584,0,0.874,0c0.194,0,0.389,0,0.583,0
	c0-0.582,0-1.166,0-1.748c-0.293,0-0.583,0-0.873,0C50.472,7.861,50.278,7.861,50.083,7.861z"/>
<path fill="#619E43" d="M58.237,11.355c0-0.582,0-1.166,0-1.747c-0.584,0-1.165,0-1.748,0c0-0.582,0-1.166,0-1.748
	c-0.873,0-1.747,0-2.621,0c-0.775,0-1.553,0-2.328,0c0,0.582,0,1.166,0,1.748c-0.194,0-0.389,0-0.583,0c-0.29,0-0.583,0-0.874,0
	c0,0.194,0,0.388,0,0.581c0,0.292,0,0.584,0,0.875c0,0.581,0,1.164,0,1.747c0.195,0,0.389,0,0.584,0c0.29,0,0.58,0,0.873,0
	c0,0.582,0,1.164,0,1.747c0.775,0,1.553,0,2.328,0c0.874,0,1.748,0,2.621,0c0-0.583,0-1.166,0-1.747c0.583,0,1.164,0,1.748,0
	c0-0.196,0-0.389,0-0.583C58.237,11.937,58.237,11.646,58.237,11.355z"/>
<path fill="#211F30" d="M58.237,9.608c0-0.582,0-1.166,0-1.748c-0.584,0-1.165,0-1.748,0c0,0.582,0,1.166,0,1.748
	C57.072,9.608,57.653,9.608,58.237,9.608z"/>
<path fill="#211F30" d="M48.336,11.355c0,0.194,0,0.389,0,0.581c0,0.292,0,0.583,0,0.875c0.583,0,1.165,0,1.747,0
	c0-0.583,0-1.166,0-1.747c0-0.291,0-0.583,0-0.875c0-0.193,0-0.387,0-0.581c-0.582,0-1.164,0-1.747,0c-0.29,0-0.583,0-0.874,0
	c-0.193,0-0.389,0-0.582,0c0,0.581,0,1.166,0,1.747c0.193,0,0.389,0,0.582,0C47.753,11.355,48.046,11.355,48.336,11.355z"/>
<path fill="#211F30" d="M58.819,9.608c-0.194,0-0.389,0-0.582,0c0,0.581,0,1.166,0,1.747c0,0.291,0,0.581,0,0.874
	c0,0.194,0,0.387,0,0.583c0.29,0,0.582,0,0.873,0c0.194,0,0.389,0,0.582,0c0-0.292,0-0.583,0-0.875c0-0.192,0-0.387,0-0.581
	c0-0.582,0-1.166,0-1.747C59.401,9.608,59.11,9.608,58.819,9.608z"/>
<path fill="#853447" d="M12.812,11.355c-0.583,0-1.165,0-1.748,0c-0.291,0-0.583,0-0.874,0c-0.194,0-0.389,0-0.583,0
	c-0.581,0-1.164,0-1.746,0c0,0.291,0,0.581,0,0.874c0,0.194,0,0.387,0,0.583c0.776,0,1.553,0,2.329,0c0.874,0,1.747,0,2.621,0
	c0-0.292,0-0.583,0-0.875C12.812,11.744,12.812,11.55,12.812,11.355z"/>
<path fill="#853447" d="M25.624,11.937c0-0.192,0-0.387,0-0.581c-0.291,0-0.583,0-0.874,0c-0.583,0-1.164,0-1.747,0
	c-0.679,0-1.358,0-2.038,0c0,0.194,0,0.389,0,0.581c0,0.292,0,0.583,0,0.875c1.553,0,3.106,0,4.659,0
	C25.624,12.52,25.624,12.229,25.624,11.937z"/>
<path fill="#211F30" d="M46.88,12.229c0-0.292,0.002-0.583,0-0.874c-0.582,0-1.164,0-1.746,0c0,0.291,0,0.581,0,0.874
	c0,0.194,0,0.387,0,0.583c0.582,0,1.164,0,1.746,0C46.88,12.616,46.88,12.423,46.88,12.229z"/>
<path fill="#A24745" d="M48.336,12.812c0-0.292,0-0.583,0-0.875c0-0.192,0-0.387,0-0.581c-0.29,0-0.583,0-0.874,0
	c-0.193,0-0.389,0-0.582,0c0.002,0.291,0,0.581,0,0.874c0,0.194,0,0.387,0,0.583c-0.582,0-1.164,0-1.746,0c0,0.582,0,1.164,0,1.747
	c0.291,0,0.582,0,0.872,0c0.093,0,0.2-0.014,0.292,0c0.092,0.013,0.197,0,0.291,0c0.035,0,0.273-0.023,0.291,0
	c0.049,0.057-0.038,0.225,0,0.291c0,0.388,0,0.777,0,1.164c0.292,0,0.582,0,0.873,0c0.195,0,0.389,0,0.583,0
	c0-0.194,0-0.387,0-0.583c0-0.291,0-0.581,0-0.872c0.583,0,1.165,0,1.747,0c0-0.583,0-1.166,0-1.747
	C49.501,12.812,48.919,12.812,48.336,12.812z"/>
<path fill="#F7F9F9" d="M7.862,12.812c0,0.582,0,1.164,0,1.747c0,0.483,0,0.97,0,1.455c1.649,0,3.3,0,4.95,0
	c0-0.194,0-0.387,0-0.583c0-0.389,0-0.775,0-1.164c0-0.194,0-0.387,0-0.583c0-0.291,0-0.582,0-0.872c-0.874,0-1.748,0-2.621,0
	C9.416,12.812,8.638,12.812,7.862,12.812z M10.723,15.861c-0.194,0-0.389,0-0.583,0c-0.29,0-0.583,0-0.873,0
	c0-0.734,0-1.469,0-2.204c0.29,0,0.583,0,0.873,0c0.194,0,0.389,0,0.583,0C10.723,14.392,10.723,15.126,10.723,15.861z"/>
<path fill="#853447" d="M6.989,17.761c0.291,0,0.582,0,0.874,0c0,0.097,0,0.194,0,0.292c0,0.387,0,0.775,0,1.163
	c0.582,0,1.165,0,1.746,0c0-0.291,0-0.582,0-0.872c0-0.196,0-0.389,0-0.583c0.583,0,1.166,0,1.748,0c0.292,0,0.583,0,0.874,0
	c0.194,0,0.389,0,0.583,0c0.583,0,1.164,0,1.747,0c0.291,0,0.583,0,0.874,0c0.194,0,0.389,0,0.583,0c0-0.292,0-0.583,0-0.874
	s0-0.581,0-0.874c-0.292,0-0.583,0-0.874,0c-0.194,0-0.389,0-0.583,0c0-0.292,0-0.583,0-0.874c0-0.194,0-0.389,0-0.582
	c0-0.583,0-1.166,0-1.747c-0.583,0-1.165,0-1.747,0c0,0.291,0,0.582,0,0.872c0,0.196,0,0.389,0,0.583c0,0.389,0,0.775,0,1.164
	c0,0.196,0,0.389,0,0.583c-1.649,0-3.3,0-4.95,0c-0.194,0-0.389,0-0.583,0c-0.291,0-0.583,0-0.874,0c0,0.583,0,1.164,0,1.747
	C6.6,17.761,6.794,17.761,6.989,17.761z"/>
<path fill="#853447" d="M20.965,15.431c0-0.389,0-0.775,0-1.164c0-0.387,0-0.776,0-1.165c0-0.098,0-0.194,0-0.291
	c-0.583,0-1.164,0-1.747,0c0,0.291,0,0.582,0,0.872c0,1.358,0,2.719,0,4.077c0.583,0,1.164,0,1.747,0
	C20.965,16.986,20.965,16.208,20.965,15.431z"/>
<path fill="#F7F9F9" d="M20.965,14.267c0,0.389,0,0.775,0,1.164c0,0.777,0,1.555,0,2.33c1.553,0,3.106,0,4.659,0
	c0-0.775,0-1.553,0-2.33c0-0.872,0-1.747,0-2.619c-1.553,0-3.105,0-4.659,0c0,0.096,0,0.193,0,0.291
	C20.965,13.491,20.965,13.88,20.965,14.267z M22.267,13.657c0.29,0,0.583,0,0.873,0c0.194,0,0.389,0,0.583,0
	c0,1.068,0,2.136,0,3.204c-0.194,0-0.389,0-0.583,0c-0.29,0-0.583,0-0.873,0C22.267,15.793,22.267,14.725,22.267,13.657z"/>
<path fill="#853447" d="M25.624,17.761c0.583,0,1.165,0,1.748,0c0-0.874,0-1.747,0-2.621c0-0.777,0-1.553,0-2.329
	c-0.583,0-1.165,0-1.748,0c0,0.872,0,1.747,0,2.619C25.624,16.208,25.624,16.986,25.624,17.761z"/>
<path fill="#853447" d="M32.32,12.812c-0.581,0-1.164,0-1.745,0c0,0.582,0,1.164,0,1.747c0.581,0,1.164,0,1.745,0
	C32.32,13.976,32.32,13.394,32.32,12.812z"/>
<path fill="#211F30" d="M44.551,14.559c0.194,0,0.389,0,0.583,0c0-0.583,0-1.166,0-1.747c-0.292,0-0.583,0-0.873,0
	c-0.195,0-0.389,0-0.584,0c-0.29,0-0.582,0-0.873,0s-0.583,0-0.873,0c0,0.582,0,1.164,0,1.747c0.582,0,1.164,0,1.746,0
	C43.968,14.559,44.261,14.559,44.551,14.559z"/>
<path fill="#211F30" d="M50.667,12.812c-0.195,0-0.389,0-0.584,0c0,0.582,0,1.164,0,1.747c0.195,0,0.389,0,0.584,0
	c0.29,0,0.58,0,0.873,0c0-0.583,0-1.166,0-1.747C51.247,12.812,50.957,12.812,50.667,12.812z"/>
<path fill="#211F30" d="M56.489,14.559c0.583,0,1.164,0,1.748,0c0-0.583,0-1.166,0-1.747c-0.584,0-1.165,0-1.748,0
	C56.489,13.394,56.489,13.976,56.489,14.559z"/>
<path fill="#853447" d="M36.981,14.559c-0.293,0-0.584,0-0.875,0c-0.193,0-0.389,0-0.582,0c0,0.097,0,0.193,0,0.291
	c0,0.388,0,0.777,0,1.164c0.291,0,0.582,0,0.873,0c0.195,0,0.389,0,0.584,0c0-0.096,0-0.194,0-0.292
	C36.981,15.335,36.981,14.946,36.981,14.559z"/>
<path fill="#211F30" d="M48.336,15.431c0,0.196,0,0.389,0,0.583c0.583,0,1.165,0,1.747,0c0-0.292,0-0.583,0-0.874
	c0-0.194,0-0.389,0-0.582c-0.582,0-1.164,0-1.747,0C48.336,14.85,48.336,15.141,48.336,15.431z"/>
<path fill="#211F30" d="M51.54,14.559c0,0.291,0,0.582,0,0.872c0,0.196,0,0.389,0,0.583c0.775,0,1.553,0,2.328,0
	c0.389,0,0.777,0,1.164,0c0.389,0,0.777,0,1.166,0c0.097,0,0.195,0,0.291,0c0-0.292,0-0.583,0-0.874c0-0.194,0-0.389,0-0.582
	c-0.873,0-1.747,0-2.621,0C53.093,14.559,52.315,14.559,51.54,14.559z"/>
<path fill="#211F30" d="M4.659,17.761c0.583,0,1.164,0,1.747,0c0-0.583,0-1.164,0-1.747c-0.291,0-0.583,0-0.874,0
	c-0.194,0-0.389,0-0.583,0c-0.291,0-0.582,0-0.874,0c-0.291,0-0.582,0-0.874,0c0,0.583,0,1.164,0,1.747c0.194,0,0.389,0,0.583,0
	C4.076,17.761,4.368,17.761,4.659,17.761z"/>
<path fill="#A24745" d="M45.134,16.014c0,0.583,0,1.164,0,1.747c0.582,0,1.164,0,1.746,0c0-0.583,0-1.164,0-1.747
	C46.298,16.014,45.716,16.014,45.134,16.014z"/>
<path fill="#211F30" d="M46.88,16.014c0,0.583,0,1.164,0,1.747c0.292,0,0.582,0,0.873,0c0.195,0,0.389,0,0.583,0
	c0-0.583,0-1.164,0-1.747c-0.194,0-0.388,0-0.583,0C47.462,16.014,47.172,16.014,46.88,16.014z"/>
<path fill="#211F30" d="M3.202,18.635c0-0.291,0.001-0.581,0-0.874c-0.582,0-1.165,0-1.746,0c0,0.292,0,0.583,0,0.874
	c0,0.194,0,0.389,0,0.582c0.581,0,1.164,0,1.746,0C3.202,19.023,3.202,18.829,3.202,18.635z"/>
<path fill="#BA6E54" d="M7.862,27.371c0.291,0,0.582,0,0.874,0c0.291,0,0.582,0,0.872,0c0-0.193,0-0.389,0-0.582
	c0-0.291,0-0.584,0-0.874c0.194,0,0.389,0,0.583,0c0.291,0,0.583,0,0.874,0c0-0.583,0-1.164,0-1.747c-0.194,0-0.389,0-0.583,0
	c-0.291,0-0.581,0-0.874,0c0-0.097,0-0.194,0-0.291c0-0.389,0-0.777,0-1.166c0-0.387,0-0.775,0-1.164c0-0.775,0-1.553,0-2.33
	c-0.581,0-1.164,0-1.746,0c0-0.387,0-0.775,0-1.163c0-0.098,0-0.196,0-0.292c-0.292,0-0.583,0-0.874,0c-0.194,0-0.389,0-0.583,0
	c-0.583,0-1.164,0-1.747,0c-0.291,0-0.583,0-0.874,0c-0.194,0-0.389,0-0.583,0c0.001,0.292,0,0.583,0,0.874c0,0.194,0,0.389,0,0.582
	c-0.582,0-1.165,0-1.746,0c0,1.359,0,2.719,0,4.078c0,1.357,0,2.717,0,4.076c0.581,0,1.164,0,1.746,0c0,0.582,0,1.165,0,1.746
	c1.553,0,3.107,0,4.66,0C7.862,28.536,7.862,27.953,7.862,27.371z M7.57,25.915c-0.194,0-0.387,0-0.582,0s-0.389,0-0.583,0
	c0,0.194,0,0.389,0,0.583c0,0.291,0,0.582,0,0.873c-0.583,0-1.164,0-1.747,0c0-0.193,0-0.389,0-0.582c0-0.291,0-0.584,0-0.874
	c-0.194,0-0.389,0-0.583,0c-0.291,0-0.582,0-0.874,0c0-0.777,0-1.553,0-2.33c0-0.874,0-1.747,0-2.621c0.194,0,0.389,0,0.583,0
	c0.291,0,0.583,0,0.874,0c0-0.581,0-1.164,0-1.747c0.583,0,1.164,0,1.747,0c0,0.583,0,1.166,0,1.747c0.194,0,0.389,0,0.583,0
	c0.291,0,0.582,0,0.874,0c0,0.874,0,1.747,0,2.621c0,0.292,0,0.583,0,0.874c0,0.098,0.003,0.193,0,0.292
	c-0.003,0.097,0,0.194,0,0.29c0,0.097,0.005,0.195,0,0.291c-0.006,0.098,0.005,0.194,0,0.293c-0.003,0.042,0.027,0.262,0,0.29
	C7.813,25.963,7.628,25.875,7.57,25.915z"/>
<path fill="#853447" d="M16.016,19.216c0.582,0,1.164,0,1.746,0c0-0.193,0-0.387,0-0.582c0-0.291,0-0.581,0-0.874
	c-0.582,0-1.164,0-1.746,0c0,0.292,0,0.583,0,0.874C16.016,18.829,16.016,19.023,16.016,19.216z"/>
<path fill="#A24745" d="M20.965,18.344c0-0.196,0-0.389,0-0.583c-0.583,0-1.164,0-1.747,0c0,0.292,0,0.583,0,0.874
	c0,0.194,0,0.389,0,0.582c0.583,0,1.164,0,1.747,0C20.965,18.926,20.965,18.635,20.965,18.344z"/>
<path fill="#853447" d="M25.624,17.761c-1.553,0-3.105,0-4.659,0c0,0.194,0,0.387,0,0.583c0,0.291,0,0.582,0,0.872
	c1.553,0,3.106,0,4.659,0c0-0.387,0-0.775,0-1.163C25.624,17.956,25.624,17.858,25.624,17.761z"/>
<path fill="#A24745" d="M25.624,18.054c0,0.387,0,0.775,0,1.163c0.583,0,1.165,0,1.748,0c0-0.291,0-0.582,0-0.872
	c0-0.196,0-0.389,0-0.583c-0.583,0-1.165,0-1.748,0C25.624,17.858,25.624,17.956,25.624,18.054z"/>
<path fill="#853447" d="M35.524,18.344c0-0.196,0-0.389,0-0.583c-0.583,0-1.164,0-1.748,0c0,0.292,0,0.583,0,0.874
	c0,0.194,0,0.389,0,0.582c0.584,0,1.165,0,1.748,0C35.524,18.926,35.524,18.635,35.524,18.344z"/>
<path fill="#A24745" d="M43.677,17.761c-0.582,0-1.164,0-1.746,0c0,0.292,0,0.583,0,0.874c0,0.194,0,0.389,0,0.582
	c0.582,0,1.164,0,1.746,0c0-0.193,0-0.387,0-0.582C43.677,18.344,43.677,18.054,43.677,17.761z"/>
<path fill="#211F30" d="M44.261,17.761c-0.195,0-0.389,0-0.584,0c0,0.292,0,0.583,0,0.874c0,0.194,0,0.389,0,0.582
	c0.291,0,0.584,0,0.874,0c0.194,0,0.389,0,0.583,0c0.291,0,0.582,0,0.872,0c0.292,0,0.583,0,0.874,0c0.002-0.291,0-0.582,0-0.872
	c0-0.196,0-0.389,0-0.583c-0.582,0-1.164,0-1.746,0C44.842,17.761,44.551,17.761,44.261,17.761z"/>
<path fill="#211F30" d="M1.457,19.216c-0.292,0-0.583,0-0.874,0c-0.194,0-0.389,0-0.583,0c0,1.359,0,2.719,0,4.078
	c0,0.679,0,1.357,0,2.037c0,0.293,0,0.583,0,0.873c0,0.389,0,0.777,0,1.166c0.291,0,0.583,0,0.874,0c0.194,0,0.389,0,0.583,0
	c0-1.359,0-2.719,0-4.076C1.457,21.935,1.457,20.576,1.457,19.216z"/>
<path fill="#211F30" d="M6.406,19.216c-0.583,0-1.164,0-1.747,0c0,0.583,0,1.166,0,1.747c0.583,0,1.164,0,1.747,0
	C6.406,20.382,6.406,19.799,6.406,19.216z"/>
<path fill="#853447" d="M11.064,20.673c0-0.389,0-0.777,0-1.165c0-0.097,0-0.194,0-0.292c-0.291,0-0.583,0-0.874,0
	c-0.194,0-0.389,0-0.583,0c0,0.777,0,1.555,0,2.33c0,0.389,0,0.777,0,1.164c0,0.389,0,0.777,0,1.166c0,0.097,0,0.194,0,0.291
	c0.292,0,0.583,0,0.874,0c0.194,0,0.389,0,0.583,0c0-0.777,0-1.553,0-2.33C11.064,21.451,11.064,21.062,11.064,20.673z"/>
<path fill="#A24745" d="M33.776,19.216c0,0.583,0,1.166,0,1.747c0.584,0,1.165,0,1.748,0c0-0.581,0-1.164,0-1.747
	C34.941,19.216,34.36,19.216,33.776,19.216z"/>
<path fill="#853447" d="M35.524,19.216c0,0.583,0,1.166,0,1.747c0.291,0,0.582,0,0.873,0c0.195,0,0.389,0,0.584,0
	c0-0.581,0-1.164,0-1.747c-0.293,0-0.584,0-0.875,0C35.913,19.216,35.718,19.216,35.524,19.216z"/>
<path fill="#211F30" d="M39.31,19.216c-0.775,0-1.553,0-2.328,0c0,0.583,0,1.166,0,1.747c0.29,0,0.58,0,0.873,0
	c0.291,0,0.581,0,0.872,0c0,0.099,0,0.194,0,0.292c0,0.097,0,0.195,0,0.291c0.001,0.194,0,0.389,0,0.583c0,0.29,0,0.581,0,0.874
	c0,0.291,0.001,0.581,0,0.873c0,0.387,0,0.775,0,1.164c0,0.291,0.001,0.584,0,0.874c0,0.389,0,0.776,0,1.165
	c0.001,0.679,0,1.357,0,2.037c0,0.293,0,0.583,0,0.873c0,0.293,0,0.584,0,0.875s0.001,0.582,0,0.873c0,0.389,0,0.777,0,1.166
	c0,1.358,0,2.717,0,4.076c0.292,0,0.583,0,0.874,0c0.193,0,0.389,0,0.582,0c0-0.389,0-0.776,0-1.165c0-0.292,0-0.583,0-0.874
	c0-0.582,0-1.164,0-1.746c0-0.68,0-1.359,0-2.039c0-0.291,0-0.582,0-0.873c0-0.293,0-0.583,0-0.873c0-0.389,0-0.777,0-1.166
	c0-0.291,0-0.582,0-0.873s0-0.582,0-0.873c0-0.293,0-0.583,0-0.873c0-0.68,0-1.361,0-2.04c0-0.29,0-0.581,0-0.874
	c0-0.291,0-0.581,0-0.873c0-0.291,0-0.582,0-0.874c1.164,0,2.33,0,3.494,0c0-0.29,0-0.581,0-0.872c0-0.292,0-0.583,0-0.875
	c-0.582,0-1.164,0-1.746,0C41.057,19.216,40.183,19.216,39.31,19.216z"/>
<path fill="#853447" d="M6.406,20.963c-0.583,0-1.164,0-1.747,0c-0.291,0-0.583,0-0.874,0c-0.194,0-0.389,0-0.583,0
	c0,0.874,0,1.747,0,2.621c0,0.777,0,1.553,0,2.33c0.292,0,0.583,0,0.874,0c0.194,0,0.389,0,0.583,0c0.583,0,1.164,0,1.747,0
	c0-0.777,0-1.553,0-2.33C6.406,22.71,6.406,21.837,6.406,20.963z"/>
<path fill="#211F30" d="M7.862,25.625c0.005-0.099-0.006-0.195,0-0.293c0.005-0.096,0-0.194,0-0.291c0-0.096-0.003-0.193,0-0.29
	c0.003-0.099,0-0.194,0-0.292c0-0.291,0-0.582,0-0.874c0-0.874,0-1.747,0-2.621c-0.292,0-0.583,0-0.874,0c-0.194,0-0.389,0-0.583,0
	c0,0.874,0,1.747,0,2.621c0,0.777,0,1.553,0,2.33c0.194,0,0.389,0,0.583,0s0.387,0,0.582,0c0.058-0.04,0.243,0.049,0.292,0
	C7.889,25.886,7.859,25.667,7.862,25.625z"/>
<path fill="#A24745" d="M38.727,31.738c0.001-0.291,0-0.582,0-0.873s0-0.582,0-0.875c0-0.29,0-0.58,0-0.873
	c0-0.68,0.001-1.358,0-2.037c0-0.389,0-0.776,0-1.165c0.001-0.29,0-0.583,0-0.874c0-0.389,0-0.777,0-1.164
	c0.001-0.292,0-0.582,0-0.873c0-0.293,0-0.584,0-0.874c0-0.194,0.001-0.389,0-0.583c0-0.096,0-0.194,0-0.291
	c0-0.098,0-0.193,0-0.292c-0.291,0-0.581,0-0.872,0c-0.293,0-0.583,0-0.873,0c-0.195,0-0.389,0-0.584,0c-0.291,0-0.582,0-0.873,0
	c0,0.292,0,0.583,0,0.874c0,0.194,0,0.389,0,0.582c0.291,0,0.582,0,0.873,0c0.195,0,0.389,0,0.584,0c0,0.389,0,0.777,0,1.165
	c0,1.166,0,2.33,0,3.495c0,0.291,0,0.582,0,0.873s0,0.583,0,0.873c0,0.291,0,0.584,0,0.874c0,0.194,0,0.389,0,0.583
	c0,1.164,0,2.328,0,3.494c0,0.291,0,0.582,0,0.874c0,0.29,0,0.581,0,0.872c0,0.292,0,0.582,0,0.873c0,0.195,0,0.389,0,0.584
	c0.58,0,1.164,0,1.745,0c0-1.359,0-2.718,0-4.076C38.727,32.515,38.727,32.126,38.727,31.738z"/>
<path fill="#853447" d="M12.812,24.167c-0.583,0-1.165,0-1.748,0c0,0.583,0,1.164,0,1.747c0.583,0,1.165,0,1.748,0
	C12.812,25.332,12.812,24.75,12.812,24.167z"/>
<path fill="#853447" d="M19.218,27.371c0-0.873,0-1.746,0-2.62c0-0.194,0-0.389,0-0.583c-0.389,0-0.776,0-1.164,0
	c-0.098,0-0.194,0-0.292,0c0,0.583,0,1.164,0,1.747c0,0.29,0,0.583,0,0.874c0.001,0.193,0,0.389,0,0.582c0.292,0,0.583,0,0.874,0
	C18.829,27.371,19.023,27.371,19.218,27.371z"/>
<path fill="#211F30" d="M4.659,26.789c0,0.193,0,0.389,0,0.582c0.583,0,1.164,0,1.747,0c0-0.291,0-0.582,0-0.873
	c0-0.194,0-0.389,0-0.583c-0.583,0-1.164,0-1.747,0C4.659,26.205,4.659,26.498,4.659,26.789z"/>
<path fill="#211F30" d="M11.064,27.371c0-0.291,0-0.582,0-0.873c0-0.194,0-0.389,0-0.583c-0.291,0-0.583,0-0.874,0
	c-0.194,0-0.389,0-0.583,0c0,0.29,0,0.583,0,0.874c0,0.193,0,0.389,0,0.582c0.292,0,0.583,0,0.874,0
	C10.676,27.371,10.87,27.371,11.064,27.371z"/>
<path fill="#A24745" d="M14.269,27.371c-0.292,0-0.583,0-0.874,0c-0.194,0-0.388,0-0.583,0c0-0.291,0-0.582,0-0.873
	c0-0.194,0-0.389,0-0.583c-0.583,0-1.165,0-1.748,0c0,0.194,0,0.389,0,0.583c0,0.291,0,0.582,0,0.873c-0.194,0-0.389,0-0.583,0
	c-0.291,0-0.581,0-0.874,0c0,0.582,0,1.165,0,1.746c0.194,0,0.389,0,0.583,0c0.291,0,0.583,0,0.874,0c0.583,0,1.165,0,1.748,0
	c0.194,0,0.388,0,0.583,0c0.291,0,0.582,0,0.874,0c0.581,0,1.164,0,1.747,0c0-0.581,0-1.164,0-1.746
	C15.433,27.371,14.85,27.371,14.269,27.371z"/>
<path fill="#853447" d="M32.32,26.789c0,0.193,0,0.389,0,0.582c0.292,0,0.583,0,0.874,0c0.193,0,0.389,0,0.582,0
	c0-0.291,0-0.582,0-0.873c0-0.194,0-0.389,0-0.583c-0.29,0-0.582,0-0.873,0c-0.194,0-0.389,0-0.583,0
	C32.32,26.205,32.32,26.498,32.32,26.789z"/>
<path fill="#211F30" d="M1.457,27.371c0,0.582,0,1.165,0,1.746c0.581,0,1.164,0,1.746,0c0-0.581,0-1.164,0-1.746
	C2.621,27.371,2.038,27.371,1.457,27.371z"/>
<path fill="#211F30" d="M7.862,35.523c0-0.582,0-1.164,0-1.746c0-0.486,0-0.971,0-1.457c0-0.582,0-1.164,0-1.746
	c2.717,0,5.435,0,8.153,0c0-0.291,0-0.584,0-0.874c0-0.194,0-0.389,0-0.583c-0.583,0-1.166,0-1.747,0c-0.292,0-0.583,0-0.874,0
	c-0.194,0-0.388,0-0.583,0c-0.583,0-1.165,0-1.748,0c-0.291,0-0.583,0-0.874,0c-0.194,0-0.389,0-0.583,0c0-0.581,0-1.164,0-1.746
	c-0.291,0-0.581,0-0.872,0c-0.292,0-0.583,0-0.874,0c0,0.582,0,1.165,0,1.746c-1.553,0-3.107,0-4.66,0c0,0.293,0,0.583,0,0.873
	c0,0.195,0,0.389,0,0.584c0.874,0,1.747,0,2.621,0c0.194,0,0.389,0,0.583,0c0,2.037,0,4.077,0,6.115c0,0.096,0,0.193,0,0.291
	c0.291,0,0.583,0,0.874,0c0.194,0,0.389,0,0.583,0c0-0.195,0-0.389,0-0.584C7.862,36.105,7.862,35.815,7.862,35.523z"/>
<path fill="#853447" d="M17.761,27.371c-0.582,0-1.164,0-1.746,0c0,0.582,0,1.165,0,1.746c0.582,0,1.164,0,1.746,0
	C17.761,28.536,17.761,27.953,17.761,27.371z"/>
<path fill="#A24745" d="M17.761,29.7c0.001-0.194,0-0.389,0-0.583c-0.582,0-1.164,0-1.746,0c0,0.194,0,0.389,0,0.583
	c0,0.29,0,0.583,0,0.874c0.582,0,1.164,0,1.746,0C17.763,30.283,17.761,29.99,17.761,29.7z"/>
<path fill="#853447" d="M32.32,29.117c0,0.293,0,0.583,0,0.873c0,0.777,0,1.554,0,2.33c0.292,0,0.583,0,0.874,0
	c0.193,0,0.389,0,0.582,0c0-0.193,0-0.388,0-0.582c0-0.873,0-1.748,0-2.621c-0.193,0-0.389,0-0.582,0
	C32.903,29.117,32.612,29.117,32.32,29.117z"/>
<path fill="#A24745" d="M9.608,32.32c0.583,0,1.166,0,1.748,0c0.292,0,0.583,0,0.874,0c0.194,0,0.389,0,0.583,0
	c0.291,0,0.583,0,0.874,0c0.194,0,0.389,0,0.583,0c0.291,0,0.581,0,0.874,0c0.291,0,0.581,0,0.874,0c0-0.29,0-0.582,0-0.873
	s0-0.582,0-0.873c-2.719,0-5.436,0-8.153,0c0,0.582,0,1.164,0,1.746c0,0.486,0,0.971,0,1.457c0,0.582,0,1.164,0,1.746
	c0,0.292,0,0.582,0,0.873c0,0.195,0,0.389,0,0.584c0.582,0,1.165,0,1.746,0C9.608,35.426,9.608,33.874,9.608,32.32z"/>
<path fill="#853447" d="M22.421,32.32c0.582,0,1.165,0,1.746,0c0-0.582,0-1.164,0-1.746c-0.581,0-1.164,0-1.746,0
	C22.421,31.156,22.421,31.738,22.421,32.32z"/>
<path fill="#853447" d="M12.812,33.777c0,0.582,0,1.164,0,1.746c0.583,0,1.164,0,1.747,0c0-0.582,0-1.164,0-1.746
	C13.976,33.777,13.395,33.777,12.812,33.777z"/>
<path fill="#853447" d="M22.421,33.777c0,0.582,0,1.164,0,1.746c0.582,0,1.165,0,1.746,0c0-0.582,0-1.164,0-1.746
	C23.586,33.777,23.003,33.777,22.421,33.777z"/>
<path fill="#211F30" d="M35.524,38.726c-0.583,0-1.164,0-1.748,0c0-0.096,0-0.193,0-0.29c0-1.554,0-3.106,0-4.659
	c-0.29,0-0.582,0-0.873,0c-0.194,0-0.389,0-0.583,0c0,0.582,0,1.164,0,1.746c0,0.486,0,0.971,0,1.457c0,0.582,0,1.164,0,1.746
	c-2.718,0-5.435,0-8.153,0c0-0.193,0-0.389,0-0.582c0-0.874,0-1.748,0-2.621c-0.581,0-1.164,0-1.746,0c0,0.292,0,0.582,0,0.873
	c0,0.195,0,0.389,0,0.584c0,0.29,0,0.582,0,0.873s0,0.583,0,0.873c-2.621,0-5.242,0-7.862,0c0-0.193,0-0.389,0-0.582
	c0-0.874,0-1.748,0-2.621c-0.583,0-1.165,0-1.747,0c0,0.292,0,0.582,0,0.873c0,0.195,0,0.389,0,0.584c0,0.582,0,1.164,0,1.746
	c-0.194,0-0.389,0-0.583,0c-0.291,0-0.582,0-0.874,0c-0.582,0-1.165,0-1.748,0c0,0.291,0,0.584,0,0.874s0,0.583,0,0.874
	c0.292,0,0.583,0,0.874,0c0.194,0,0.389,0,0.583,0c0,1.553,0,3.105,0,4.658c0.291,0,0.583,0,0.874,0c0.291,0,0.583,0,0.874,0
	c0-0.194,0-0.389,0-0.582c0-0.291,0-0.582,0-0.875c0-0.58,0-1.164,0-1.745c0-0.194,0-0.389,0-0.583c0-0.291,0-0.582,0-0.873
	c0.583,0,1.164,0,1.747,0c0.291,0,0.583,0,0.874,0c0.776,0,1.553,0,2.329,0c0,1.553,0,3.105,0,4.658c0.292,0,0.583,0,0.874,0
	c0.194,0,0.389,0,0.583,0c0-0.291,0-0.582,0-0.873s0-0.584,0-0.874c0-0.679,0-1.358,0-2.038c0-0.291,0-0.582,0-0.873
	c0.291,0,0.583,0,0.874,0c0.194,0,0.389,0,0.583,0c0.291,0,0.582,0,0.874,0c0.582,0,1.165,0,1.748,0c0.192,0,0.387,0,0.581,0
	c0.291,0,0.583,0,0.874,0c0.583,0,1.165,0,1.747,0c0.291,0,0.583,0,0.874,0c0,1.553,0,3.105,0,4.658c0.583,0,1.164,0,1.747,0
	c0-0.194,0-0.389,0-0.582c0-0.291,0-0.582,0-0.875c0-0.58,0-1.164,0-1.745c0-0.194,0-0.389,0-0.583c0-0.291,0-0.582,0-0.873
	c0.389,0,0.775,0,1.164,0s0.777,0,1.164,0c0.777,0,1.555,0,2.33,0c0,1.553,0,3.105,0,4.658c0.584,0,1.165,0,1.748,0
	c0-1.553,0-3.105,0-4.658c0.291,0,0.582,0,0.873,0c0.195,0,0.389,0,0.584,0c0-0.291,0-0.584,0-0.874s0-0.583,0-0.874
	c-0.195,0-0.389,0-0.584,0C36.106,38.726,35.815,38.726,35.524,38.726z"/>
<path fill="#A24745" d="M36.106,36.98c-0.098,0-0.193,0-0.291,0c-0.035,0-0.272,0.023-0.291,0c-0.048-0.059,0.037-0.227,0-0.291
	c0-0.293,0-0.584,0-0.874c0-0.389,0-0.777,0-1.164c0-0.292,0-0.583,0-0.874c-0.583,0-1.164,0-1.748,0c0,1.553,0,3.105,0,4.659
	c0,0.097,0,0.194,0,0.29c0.584,0,1.165,0,1.748,0c0.291,0,0.582,0,0.873,0c0.195,0,0.389,0,0.584,0c0-0.582,0-1.164,0-1.746
	C36.688,36.98,36.397,36.98,36.106,36.98z"/>
<path fill="#A24745" d="M20.965,36.98c-0.291,0-0.583,0-0.874,0c-0.194,0-0.389,0-0.583,0c-0.97,0-1.94,0-2.911,0
	c-0.194,0-0.389,0-0.582,0c0-0.195,0-0.389,0-0.584c0-0.291,0-0.581,0-0.873c-0.292,0-0.583,0-0.874,0c-0.194,0-0.389,0-0.583,0
	c0,0.873,0,1.747,0,2.621c0,0.193,0,0.389,0,0.582c2.621,0,5.242,0,7.862,0c0-0.29,0-0.582,0-0.873s0-0.583,0-0.873
	c-0.292,0-0.583,0-0.874,0C21.354,36.98,21.159,36.98,20.965,36.98z"/>
<path fill="#A24745" d="M25.624,36.98c0-0.389,0-0.776,0-1.165c0-0.098,0-0.194,0-0.292c-0.291,0-0.583,0-0.874,0
	c-0.194,0-0.389,0-0.583,0c0,0.873,0,1.747,0,2.621c0,0.193,0,0.389,0,0.582c2.719,0,5.436,0,8.153,0c0-0.582,0-1.164,0-1.746
	c-2.038,0-4.075,0-6.114,0C26.013,36.98,25.817,36.98,25.624,36.98z"/>
<path fill="#211F30" d="M7.862,36.98c0,0.582,0,1.164,0,1.746c0.582,0,1.165,0,1.746,0c0-0.582,0-1.164,0-1.746
	C9.027,36.98,8.444,36.98,7.862,36.98z"/>
<path fill="#A24745" d="M12.229,38.726c0.194,0,0.389,0,0.583,0c0-0.582,0-1.164,0-1.746c-0.583,0-1.165,0-1.748,0
	c-0.291,0-0.583,0-0.874,0c-0.194,0-0.389,0-0.583,0c0,0.582,0,1.164,0,1.746c0.583,0,1.166,0,1.748,0
	C11.647,38.726,11.938,38.726,12.229,38.726z"/>
<path fill="#211F30" d="M36.981,38.726c0.58,0,1.164,0,1.745,0c0-0.582,0-1.164,0-1.746c-0.581,0-1.165,0-1.745,0
	C36.981,37.562,36.981,38.144,36.981,38.726z"/>
<path fill="#A24745" d="M15.433,40.474c-0.291,0-0.583,0-0.874,0c-0.583,0-1.165,0-1.747,0c0,0.291,0,0.582,0,0.873
	c0,0.194,0,0.389,0,0.583c0.194,0,0.388,0,0.583,0c0.291,0,0.582,0,0.874,0c0.581,0,1.164,0,1.747,0c0,0.388,0,0.776,0,1.165
	c0,0.193,0,0.389,0,0.58c-0.194,0-0.389,0-0.583,0c-0.874,0-1.747,0-2.621,0c0,0.293,0,0.584,0,0.875c0,0.193,0,0.388,0,0.582
	c1.651,0,3.3,0,4.949,0c0-1.553,0-3.105,0-4.658C16.985,40.474,16.208,40.474,15.433,40.474z"/>
<path fill="#A24745" d="M31.446,40.474c-0.387,0-0.775,0-1.164,0s-0.775,0-1.164,0c0,0.291,0,0.582,0,0.873c0,0.194,0,0.389,0,0.583
	c0.194,0,0.389,0,0.583,0c0.29,0,0.581,0,0.874,0c0.581,0,1.164,0,1.745,0c0,0.291,0,0.581,0,0.872c0,0.293,0,0.583,0,0.873
	c-0.192,0-0.387,0-0.581,0c-0.874,0-1.748,0-2.621,0c0,0.293,0,0.584,0,0.875c0,0.193,0,0.388,0,0.582c1.553,0,3.105,0,4.658,0
	c0-1.553,0-3.105,0-4.658C33.001,40.474,32.224,40.474,31.446,40.474z"/>
<path fill="#BA6E54" d="M16.016,43.675c0-0.191,0-0.387,0-0.58c0-0.389,0-0.777,0-1.165c-0.583,0-1.166,0-1.747,0
	c-0.292,0-0.583,0-0.874,0c-0.194,0-0.388,0-0.583,0c0,0.581,0,1.165,0,1.745c0.874,0,1.747,0,2.621,0
	C15.627,43.675,15.821,43.675,16.016,43.675z"/>
<path fill="#BA6E54" d="M32.32,43.675c0-0.29,0-0.58,0-0.873c0-0.291,0-0.581,0-0.872c-0.581,0-1.164,0-1.745,0
	c-0.293,0-0.584,0-0.874,0c-0.194,0-0.389,0-0.583,0c0,0.581,0,1.165,0,1.745c0.873,0,1.747,0,2.621,0
	C31.934,43.675,32.128,43.675,32.32,43.675z"/>
<path fill="#211F30" d="M12.812,46.88c1.651,0,3.3,0,4.949,0c0-0.584,0-1.165,0-1.748c-1.649,0-3.298,0-4.949,0
	C12.812,45.715,12.812,46.296,12.812,46.88z"/>
<path fill="#211F30" d="M29.118,46.88c1.553,0,3.105,0,4.658,0c0-0.584,0-1.165,0-1.748c-1.553,0-3.105,0-4.658,0
	C29.118,45.715,29.118,46.296,29.118,46.88z"/>
<path fill="#211F30" d="M23.723,16.861c0-1.068,0-2.136,0-3.204c-0.194,0-0.389,0-0.583,0c-0.29,0-0.583,0-0.873,0
	c0,1.068,0,2.136,0,3.204c0.29,0,0.583,0,0.873,0C23.334,16.861,23.529,16.861,23.723,16.861z"/>
<path fill="#211F30" d="M9.267,13.657c0,0.734,0,1.469,0,2.204c0.29,0,0.583,0,0.873,0c0.194,0,0.389,0,0.583,0
	c0-0.734,0-1.469,0-2.204c-0.194,0-0.389,0-0.583,0C9.85,13.657,9.557,13.657,9.267,13.657z"/>
</svg>
