<?xml version="1.0" encoding="utf-8"?>
<!-- Generator: Adobe Illustrator 15.0.0, SVG Export Plug-In  -->
<!DOCTYPE svg PUBLIC "-//W3C//DTD SVG 1.1//EN" "http://www.w3.org/Graphics/SVG/1.1/DTD/svg11.dtd" [
	<!ENTITY ns_flows "http://ns.adobe.com/Flows/1.0/">
]>
<svg version="1.1"
	 xmlns="http://www.w3.org/2000/svg" xmlns:xlink="http://www.w3.org/1999/xlink" xmlns:a="http://ns.adobe.com/AdobeSVGViewerExtensions/3.0/"
	 x="0px" y="0px" width="70px" height="55px" viewBox="-10.06 -7.87 70 55" enable-background="new -10.06 -7.87 70 55"
	 xml:space="preserve">
<defs>
</defs>
<g id="XMLID_2_">
	<g>
		<path fill="#211F30" d="M59.94,9.86c0,0.58,0,1.16,0,1.75c0,0.19,0,0.38,0,0.58c0,0.29,0,0.58,0,0.87c-0.19,0-0.39,0-0.58,0
			c-0.29,0-0.58,0-0.88,0c0-0.19,0-0.39,0-0.58c0-0.29,0-0.58,0-0.87c0-0.59,0-1.17,0-1.75c0.2,0,0.39,0,0.59,0
			C59.36,9.86,59.65,9.86,59.94,9.86z"/>
		<path fill="#211F30" d="M58.48,13.06c0,0.58,0,1.17,0,1.75c-0.58,0-1.16,0-1.74,0c0-0.58,0-1.17,0-1.75
			C57.32,13.06,57.9,13.06,58.48,13.06z"/>
		<path fill="#211F30" d="M58.48,8.11c0,0.58,0,1.17,0,1.75c-0.58,0-1.16,0-1.74,0c0-0.58,0-1.17,0-1.75
			C57.32,8.11,57.9,8.11,58.48,8.11z"/>
		<path fill="#211F30" d="M56.74,14.81c0,0.19,0,0.39,0,0.58c0,0.29,0,0.58,0,0.87c-1.649,0-3.3,0-4.95,0c0-0.19,0-0.38,0-0.58
			c0-0.29,0-0.58,0-0.87C53.44,14.81,55.09,14.81,56.74,14.81z"/>
		<path fill="#211F30" d="M56.74,7.24c0,0.29,0,0.58,0,0.87c-1.649,0-3.3,0-4.95,0c0-1.55,0-3.11,0-4.66c0.29,0,0.58,0,0.87,0
			s0.58,0,0.87,0c0,0.78,0,1.55,0,2.33c0,0.29,0,0.58,0,0.87c1.07,0,2.141,0,3.21,0C56.74,6.85,56.74,7.04,56.74,7.24z"/>
		<path fill="#619E43" d="M51.79,3.45c0,1.55,0,3.11,0,4.66c-0.29,0-0.58,0-0.88,0c-0.189,0-0.39,0-0.58,0c0,0.58,0,1.17,0,1.75
			c-0.58,0-1.159,0-1.75,0c-0.479,0-0.97,0-1.449,0c0-0.58,0-1.17,0-1.75c-0.58,0-1.171,0-1.75,0c0-1.55,0-3.11,0-4.66
			c0.579,0,1.17,0,1.75,0c0-0.58,0-1.16,0-1.75c1.069,0,2.13,0,3.199,0c0,0.59,0,1.17,0,1.75c0.29,0,0.58,0,0.88,0
			C51.4,3.45,51.59,3.45,51.79,3.45z"/>
		<path fill="#619E43" d="M58.48,12.48c0,0.19,0,0.39,0,0.58c-0.58,0-1.16,0-1.74,0c0,0.58,0,1.17,0,1.75c-1.649,0-3.3,0-4.95,0
			c0-0.58,0-1.17,0-1.75c-0.29,0-0.58,0-0.88,0c-0.189,0-0.39,0-0.58,0c0-0.58,0-1.16,0-1.75c0-0.29,0-0.58,0-0.87
			c0-0.19,0-0.39,0-0.58c0.29,0,0.58,0,0.88,0c0.19,0,0.381,0,0.58,0c0-0.58,0-1.17,0-1.75c1.65,0,3.301,0,4.95,0
			c0,0.58,0,1.17,0,1.75c0.58,0,1.16,0,1.74,0c0,0.58,0,1.16,0,1.75C58.48,11.9,58.48,12.19,58.48,12.48z"/>
		<path fill="#211F30" d="M50.91,1.7c0.3,0,0.59,0,0.88,0c0,0.59,0,1.17,0,1.75c-0.199,0-0.39,0-0.58,0c-0.3,0-0.59,0-0.88,0
			c0-0.58,0-1.16,0-1.75C50.52,1.7,50.72,1.7,50.91,1.7z"/>
		<path fill="#211F30" d="M51.79,8.11c0,0.58,0,1.17,0,1.75c-0.199,0-0.39,0-0.58,0c-0.3,0-0.59,0-0.88,0c0-0.58,0-1.17,0-1.75
			c0.19,0,0.391,0,0.58,0C51.209,8.11,51.5,8.11,51.79,8.11z"/>
		<path fill="#211F30" d="M51.79,13.06c0,0.58,0,1.17,0,1.75c-0.29,0-0.58,0-0.88,0c-0.189,0-0.39,0-0.58,0c0-0.58,0-1.17,0-1.75
			c0.19,0,0.391,0,0.58,0C51.209,13.06,51.5,13.06,51.79,13.06z"/>
		<path fill="#211F30" d="M50.33,14.81c0,0.19,0,0.39,0,0.58c0,0.29,0,0.58,0,0.87c-0.58,0-1.159,0-1.75,0c0-0.19,0-0.38,0-0.58
			c0-0.29,0-0.58,0-0.87C49.17,14.81,49.75,14.81,50.33,14.81z"/>
		<path fill="#211F30" d="M50.33,0.83c0,0.29,0,0.58,0,0.87c-1.069,0-2.13,0-3.199,0c0-0.19,0-0.38,0-0.58c0-0.29,0-0.58,0-0.87
			c0.579,0,1.159,0,1.75,0c0.189,0,0.38,0,0.579,0c0.29,0,0.58,0,0.87,0C50.33,0.44,50.33,0.64,50.33,0.83z"/>
		<path fill="#211F30" d="M48.58,16.26c0,0.59,0,1.17,0,1.75c-0.189,0-0.38,0-0.58,0c-0.29,0-0.579,0-0.869,0c0-0.58,0-1.16,0-1.75
			c0.29,0,0.579,0,0.869,0C48.2,16.26,48.39,16.26,48.58,16.26z"/>
		<path fill="#211F30" d="M50.33,10.44c0,0.29,0,0.58,0,0.87c0,0.59,0,1.17,0,1.75c-0.58,0-1.159,0-1.75,0c0-0.29,0-0.58,0-0.87
			c0-0.2,0-0.39,0-0.58c-0.29,0-0.58,0-0.87,0c-0.189,0-0.39,0-0.579,0c0-0.59,0-1.17,0-1.75c0.479,0,0.97,0,1.449,0
			c0.591,0,1.17,0,1.75,0C50.33,10.05,50.33,10.25,50.33,10.44z"/>
		<path fill="#211F30" d="M45.38,1.7c0.579,0,1.17,0,1.75,0c0,0.59,0,1.17,0,1.75c-0.58,0-1.171,0-1.75,0
			C45.38,2.87,45.38,2.29,45.38,1.7z"/>
		<path fill="#211F30" d="M45.38,8.11c0.579,0,1.17,0,1.75,0c0,0.58,0,1.17,0,1.75c-0.58,0-1.171,0-1.75,0
			C45.38,9.28,45.38,8.69,45.38,8.11z"/>
		<path fill="#211F30" d="M45.38,13.06c0-0.19,0-0.39,0-0.58c0-0.29,0-0.58,0-0.87c0.579,0,1.17,0,1.75,0c0,0.29,0,0.58,0,0.87
			c0,0.19,0,0.39,0,0.58C46.55,13.06,45.959,13.06,45.38,13.06z"/>
		<path fill="#A24745" d="M47.13,16.26c0,0.59,0,1.17,0,1.75c-0.58,0-1.171,0-1.75,0c0-0.58,0-1.16,0-1.75
			C45.959,16.26,46.55,16.26,47.13,16.26z"/>
		<path fill="#A24745" d="M50.33,13.06c0,0.58,0,1.17,0,1.75c-0.58,0-1.159,0-1.75,0c0,0.29,0,0.58,0,0.87c0,0.2,0,0.39,0,0.58
			c-0.189,0-0.38,0-0.58,0c-0.29,0-0.579,0-0.869,0c0-0.38,0-0.77,0-1.16c-0.04-0.07,0.05-0.23,0-0.29c-0.021-0.02-0.261,0-0.29,0
			c-0.101,0-0.2,0.01-0.29,0c-0.101-0.02-0.2,0-0.301,0c-0.29,0-0.579,0-0.869,0c0-0.58,0-1.17,0-1.75c0.579,0,1.17,0,1.75,0
			c0-0.19,0-0.39,0-0.58c0-0.29,0-0.58,0-0.87c0.189,0,0.39,0,0.579,0c0.29,0,0.58,0,0.87,0c0,0.19,0,0.38,0,0.58
			c0,0.29,0,0.58,0,0.87C49.17,13.06,49.75,13.06,50.33,13.06z"/>
		<path fill="#211F30" d="M45.38,3.45c0,1.55,0,3.11,0,4.66c-0.19,0-0.391,0-0.58,0c-0.29,0-0.58,0-0.87,0c0-1.55,0-3.11,0-4.66
			c0.189,0,0.38,0,0.58,0C44.8,3.45,45.09,3.45,45.38,3.45z"/>
		<path fill="#211F30" d="M45.38,13.06c0,0.58,0,1.17,0,1.75c-1.07,0-2.141,0-3.2,0c0-0.58,0-1.17,0-1.75c0.29,0,0.58,0,0.87,0
			c0.489,0,0.97,0,1.46,0C44.8,13.06,45.09,13.06,45.38,13.06z"/>
		<path fill="#211F30" d="M45.38,18.01c0.579,0,1.17,0,1.75,0c0,0.2,0,0.39,0,0.58c0,0.29,0,0.59,0,0.88c-1.07,0-2.141,0-3.2,0
			c0-0.2,0-0.39,0-0.59c0-0.29,0-0.58,0-0.87c0.189,0,0.38,0,0.58,0C44.8,18.01,45.09,18.01,45.38,18.01z"/>
		<path fill="#A24745" d="M43.93,18.01c0,0.29,0,0.58,0,0.87c0,0.2,0,0.39,0,0.59c-0.59,0-1.17,0-1.75,0c0-0.2,0-0.39,0-0.59
			c0-0.29,0-0.58,0-0.87C42.76,18.01,43.34,18.01,43.93,18.01z"/>
		<path fill="#211F30" d="M38.98,4.91c0,0.58,0,1.16,0,1.74c-0.59,0-1.17,0-1.75,0c0-0.58,0-1.16,0-1.74
			C37.81,4.91,38.39,4.91,38.98,4.91z"/>
		<path fill="#211F30" d="M37.23,38.979c0-0.59,0-1.17,0-1.75c0.58,0,1.16,0,1.75,0c0,0.58,0,1.16,0,1.75
			C38.39,38.979,37.81,38.979,37.23,38.979z"/>
		<path fill="#211F30" d="M38.1,21.21c-0.29,0-0.58,0-0.87,0c0-0.58,0-1.16,0-1.74c1.65,0,3.3,0,4.95,0c0.58,0,1.16,0,1.75,0
			c0,0.29,0,0.58,0,0.87s0,0.58,0,0.87c-0.78,0-1.561,0-2.33,0c-0.29,0-0.59,0-0.88,0c0,1.27,0,2.53,0,3.79c0,0.68,0,1.36,0,2.04
			c0,0.29,0,0.58,0,0.87c0,0.39,0,0.779,0,1.17c0,0.29,0,0.58,0,0.87c0,0.39,0,0.779,0,1.16c0,0.68,0,1.359,0,2.039
			c0,1.36,0,2.721,0,4.08c-0.58,0-1.16,0-1.74,0c0-2.619,0-5.239,0-7.859s0-5.24,0-7.86c0-0.1,0-0.2,0-0.3
			C38.68,21.21,38.39,21.21,38.1,21.21z"/>
		<path fill="#211F30" d="M42.18,16.26c-1.65,0-3.3,0-4.95,0c0-0.09,0-0.19,0-0.29c0-0.39,0-0.77,0-1.16c0.19,0,0.39,0,0.58,0
			c0.29,0,0.58,0,0.87,0c0.069-0.04,0.24,0.05,0.3,0c0.02-0.02,0-0.26,0-0.29c0-0.1-0.021-0.2,0-0.29c0.01-0.1,0-0.2,0-0.3
			c0-0.09,0-0.19,0-0.29c0-0.09,0-0.19,0-0.29c0-0.1-0.01-0.19,0-0.29c0-0.1,0-0.19,0-0.29c0-0.2,0-0.39,0-0.58
			c0-0.29,0-0.58,0-0.88c0-0.09,0-0.19,0-0.29c0-0.09,0-0.19,0-0.29c0-0.19,0-0.39,0-0.58c0-0.39,0-0.78,0-1.17
			c0-0.38,0-0.77,0-1.16s0-0.78,0-1.17c0.29,0,0.58,0,0.87,0s0.58,0,0.87,0c0,0.1,0,0.2,0,0.3c0,0.09,0,0.19,0,0.29
			c0,0.19,0,0.39,0,0.58c0,0.29,0,0.58,0,0.87s0,0.59,0,0.88c0,0.39,0,0.77,0,1.16c0,1.36,0,2.72,0,4.08c0.2,0,0.39,0,0.59,0
			c0.29,0,0.58,0,0.87,0c0,0.19,0,0.39,0,0.58C42.18,15.68,42.18,15.97,42.18,16.26z"/>
		<path fill="#A24745" d="M38.98,13.93c0,0.1,0.01,0.2,0,0.3c-0.021,0.09,0,0.19,0,0.29c0,0.03,0.02,0.27,0,0.29
			c-0.06,0.05-0.23-0.04-0.3,0c-0.29,0-0.58,0-0.87,0c-0.19,0-0.39,0-0.58,0c0-0.68,0-1.36,0-2.04c0-0.68,0-1.36,0-2.04
			c0-1.36,0-2.72,0-4.08c0.58,0,1.16,0,1.75,0c0,0.39,0,0.78,0,1.17s0,0.78,0,1.16c0,0.39,0,0.78,0,1.17c0,0.19,0,0.39,0,0.58
			c0,0.1,0,0.2,0,0.29c0,0.1,0,0.2,0,0.29c0,0.3,0,0.59,0,0.88c0,0.19,0,0.38,0,0.58c0,0.1,0,0.19,0,0.29c-0.01,0.1,0,0.19,0,0.29
			c0,0.1,0,0.2,0,0.29C38.98,13.74,38.98,13.84,38.98,13.93z"/>
		<path fill="#A24745" d="M37.23,23.83c0-0.38,0-0.771,0-1.16c-0.2,0-0.39,0-0.58,0c-0.3,0-0.59,0-0.88,0c0-0.19,0-0.39,0-0.58
			c0-0.29,0-0.58,0-0.88c0.29,0,0.58,0,0.88,0c0.19,0,0.38,0,0.58,0c0.29,0,0.58,0,0.87,0s0.58,0,0.88,0c0,0.1,0,0.2,0,0.3
			c0,2.62,0,5.24,0,7.86s0,5.24,0,7.859c-0.59,0-1.17,0-1.75,0c0-1.17,0-2.33,0-3.5c0-0.58,0-1.159,0-1.739c0-0.29,0-0.58,0-0.88
			c0-0.381,0-0.771,0-1.16c0-1.16,0-2.33,0-3.5c0-0.58,0-1.16,0-1.74C37.23,24.42,37.23,24.13,37.23,23.83z"/>
		<path fill="#A24745" d="M37.23,4.91c0,0.58,0,1.16,0,1.74c-0.2,0-0.39,0-0.58,0c-0.3,0-0.59,0-0.88,0c0-0.58,0-1.16,0-1.74
			c0.39,0,0.78,0,1.17,0C37.03,4.91,37.13,4.91,37.23,4.91z"/>
		<path fill="#853447" d="M37.23,14.81c0,0.39,0,0.77,0,1.16c0,0.1,0,0.2,0,0.29c-0.2,0-0.39,0-0.58,0c-0.3,0-0.59,0-0.88,0
			c0-0.09,0-0.19,0-0.29c0-0.39,0-0.77,0-1.16c0.2,0,0.39,0,0.58,0C36.65,14.81,36.94,14.81,37.23,14.81z"/>
		<path fill="#853447" d="M37.23,19.47c0,0.58,0,1.16,0,1.74c-0.2,0-0.39,0-0.58,0c-0.3,0-0.59,0-0.88,0c0-0.58,0-1.16,0-1.74
			c0.2,0,0.39,0,0.58,0C36.65,19.47,36.94,19.47,37.23,19.47z"/>
		<path fill="#853447" d="M34.03,18.88c0-0.29-0.01-0.58,0-0.87c0.58,0,1.16,0,1.74,0c0,0.2,0,0.39,0,0.58c0,0.29,0,0.59,0,0.88
			c-0.58,0-1.16,0-1.74,0C34.03,19.27,34.03,19.08,34.03,18.88z"/>
		<path fill="#211F30" d="M35.77,4.91c-1.061,0-2.13,0-3.2,0c0-0.2,0-0.39,0-0.58c0-0.3,0-0.59,0-0.88c1.55,0,3.101,0,4.66,0
			c0,0.2,0,0.39,0,0.58c0,0.3,0,0.59,0,0.88c-0.1,0-0.2,0-0.29,0C36.55,4.91,36.16,4.91,35.77,4.91z"/>
		<path fill="#A24745" d="M34.03,19.47c0.58,0,1.16,0,1.74,0c0,0.58,0,1.16,0,1.74c-0.58,0-1.16,0-1.74,0
			C34.03,20.63,34.03,20.05,34.03,19.47z"/>
		<path fill="#A24745" d="M34.03,38.979c0-1.649,0-3.3,0-4.949c0.58,0,1.16,0,1.74,0c0,0.479,0,0.97,0,1.449c0,0.2,0,0.391,0,0.58
			c0,0.29,0,0.59,0,0.88c0.04,0.061-0.05,0.23,0,0.29c0.02,0.021,0.26,0,0.29,0c0.1,0,0.2,0,0.29,0c0.3,0,0.59,0,0.88,0
			c0,0.58,0,1.16,0,1.75C36.16,38.979,35.09,38.979,34.03,38.979z"/>
		<path fill="#211F30" d="M34.03,47.13c-1.56,0-3.109,0-4.66,0c0-0.58,0-1.17,0-1.75c1.551,0,3.101,0,4.66,0
			C34.03,45.96,34.03,46.55,34.03,47.13z"/>
		<path fill="#853447" d="M34.03,31.99c0,0.189,0,0.39,0,0.58c-0.2,0-0.39,0-0.59,0c-0.29,0-0.58,0-0.87,0c0-0.78,0-1.551,0-2.33
			c0-0.29,0-0.58,0-0.87c0.29,0,0.58,0,0.87,0c0.2,0,0.39,0,0.59,0C34.03,30.24,34.03,31.11,34.03,31.99z"/>
		<path fill="#853447" d="M34.03,26.16c0,0.2,0,0.39,0,0.59c0,0.29,0,0.58,0,0.87c-0.2,0-0.39,0-0.59,0c-0.29,0-0.58,0-0.87,0
			c0-0.19,0-0.391,0-0.58c0-0.29,0-0.59,0-0.88c0.19,0,0.39,0,0.58,0C33.44,26.16,33.73,26.16,34.03,26.16z"/>
		<path fill="#BA6E54" d="M32.57,43.05c0,0.29,0,0.58,0,0.87c-1.07,0-2.14,0-3.2,0c0-0.58,0-1.16,0-1.74c1.061,0,2.13,0,3.2,0
			C32.57,42.47,32.57,42.76,32.57,43.05z"/>
		<path fill="#853447" d="M32.57,13.06c0,0.58,0,1.17,0,1.75c-0.58,0-1.17,0-1.75,0c0-0.58,0-1.17,0-1.75
			C31.4,13.06,31.99,13.06,32.57,13.06z"/>
		<path fill="#211F30" d="M32.57,4.91c0,1.06,0,2.13,0,3.2c-0.58,0-1.17,0-1.75,0c0-1.07,0-2.14,0-3.2
			C31.4,4.91,31.99,4.91,32.57,4.91z"/>
		<path fill="#853447" d="M32.57,8.11c0,0.87,0,1.75,0,2.62c0,0.29,0,0.58,0,0.88c-0.29,0-0.58,0-0.87,0c-0.3,0-0.59,0-0.88,0
			c0-1.17,0-2.33,0-3.5C31.4,8.11,31.99,8.11,32.57,8.11z"/>
		<path fill="#A24745" d="M34.03,40.72c0,1.561,0,3.11,0,4.66c-1.56,0-3.109,0-4.66,0c0-0.19,0-0.39,0-0.58c0-0.29,0-0.58,0-0.88
			c1.061,0,2.13,0,3.2,0c0-0.29,0-0.58,0-0.87s0-0.58,0-0.87c-1.07,0-2.14,0-3.2,0c0-0.189,0-0.39,0-0.58c0-0.29,0-0.59,0-0.88
			c0.38,0,0.771,0,1.16,0c0.391,0,0.78,0,1.17,0C32.47,40.72,33.25,40.72,34.03,40.72z"/>
		<path fill="#211F30" d="M30.82,4.03c0,0.3,0,0.59,0,0.88c-4.85,0-9.7,0-14.56,0c0-0.2,0-0.39,0-0.58c0-0.3,0-0.59,0-0.88
			c4.86,0,9.71,0,14.56,0C30.82,3.65,30.82,3.84,30.82,4.03z"/>
		<path fill="#A24745" d="M27.62,18.01c0,0.2,0,0.39,0,0.58c0,0.29,0,0.59,0,0.88c-0.199,0-0.39,0-0.58,0c-0.29,0-0.59,0-0.88,0
			c0-0.39,0-0.78,0-1.17c0-0.09,0-0.19,0-0.29c0.2,0,0.391,0,0.59,0C27.04,18.01,27.33,18.01,27.62,18.01z"/>
		<path fill="#853447" d="M27.62,13.06c0,1.65,0,3.3,0,4.95c-0.29,0-0.58,0-0.87,0c-0.199,0-0.39,0-0.59,0c0-1.65,0-3.3,0-4.95
			c0.2,0,0.391,0,0.59,0C27.04,13.06,27.33,13.06,27.62,13.06z"/>
		<path fill="#853447" d="M26.16,18.3c0,0.39,0,0.78,0,1.17c-1.65,0-3.3,0-4.95,0c0-0.29,0-0.59,0-0.88c0-0.19,0-0.38,0-0.58
			c1.65,0,3.3,0,4.95,0C26.16,18.11,26.16,18.21,26.16,18.3z"/>
		<path fill="#A24745" d="M32.57,37.229c0,0.58,0,1.16,0,1.75c-2.72,0-5.439,0-8.15,0c0-1.069,0-2.14,0-3.21c0.58,0,1.16,0,1.74,0
			c0,0.2,0,0.391,0,0.58c0,0.3,0,0.59,0,0.88C28.3,37.229,30.43,37.229,32.57,37.229z"/>
		<path fill="#853447" d="M24.42,30.82c0,0.59,0,1.17,0,1.75c-0.59,0-1.17,0-1.75,0c0-0.58,0-1.16,0-1.75
			C23.25,30.82,23.83,30.82,24.42,30.82z"/>
		<path fill="#853447" d="M24.42,34.03c0,0.58,0,1.159,0,1.739c-0.59,0-1.17,0-1.75,0c0-0.58,0-1.159,0-1.739
			C23.25,34.03,23.83,34.03,24.42,34.03z"/>
		<path fill="#853447" d="M26.16,11.61c0,0.19,0,0.38,0,0.58c0,0.29,0,0.58,0,0.87c-0.29,0-0.58,0-0.87,0c-0.2,0-0.39,0-0.58,0
			c-0.39,0-0.78,0-1.17,0c-0.77,0-1.55,0-2.33,0c0-0.29,0-0.58,0-0.87c0-0.2,0-0.39,0-0.58c0.68,0,1.36,0,2.04,0s1.36,0,2.04,0
			C25.58,11.61,25.87,11.61,26.16,11.61z"/>
		<path fill="#211F30" d="M23.94,13.91c0,1.06,0,2.13,0,3.2c-0.19,0-0.39,0-0.58,0c-0.29,0-0.59,0-0.88,0c0-1.07,0-2.14,0-3.2
			c0.29,0,0.59,0,0.88,0C23.55,13.91,23.75,13.91,23.94,13.91z"/>
		<path fill="#F7F9F9" d="M23.94,13.91c-0.19,0-0.39,0-0.58,0c-0.29,0-0.59,0-0.88,0c0,1.06,0,2.13,0,3.2c0.29,0,0.59,0,0.88,0
			c0.19,0,0.39,0,0.58,0C23.94,16.04,23.94,14.97,23.94,13.91z M26.16,13.06c0,1.65,0,3.3,0,4.95c-1.65,0-3.3,0-4.95,0
			c0-1.65,0-3.3,0-4.95c0.78,0,1.56,0,2.33,0c0.39,0,0.78,0,1.17,0c0.19,0,0.38,0,0.58,0C25.58,13.06,25.87,13.06,26.16,13.06z"/>
		<path fill="#853447" d="M21.21,13.06c0,1.65,0,3.3,0,4.95c-0.58,0-1.16,0-1.74,0c0-1.65,0-3.3,0-4.95
			C20.05,13.06,20.63,13.06,21.21,13.06z"/>
		<path fill="#A24745" d="M21.21,18.01c0,0.2,0,0.39,0,0.58c0,0.29,0,0.59,0,0.88c-0.58,0-1.16,0-1.74,0c0-0.2,0-0.39,0-0.59
			c0-0.29,0-0.58,0-0.87C20.05,18.01,20.63,18.01,21.21,18.01z"/>
		<path fill="#853447" d="M19.47,24.42c0,0.19,0,0.39,0,0.58c0,0.87,0,1.75,0,2.62c-0.2,0-0.39,0-0.59,0c-0.29,0-0.58,0-0.87,0
			c0-1.07,0-2.13,0-3.2c0.1,0,0.19,0,0.29,0C18.69,24.42,19.08,24.42,19.47,24.42z"/>
		<path fill="#211F30" d="M18.01,45.38c0,0.58,0,1.17,0,1.75c-1.65,0-3.3,0-4.95,0c0-0.58,0-1.17,0-1.75
			C14.71,45.38,16.36,45.38,18.01,45.38z"/>
		<path fill="#853447" d="M18.01,18.3c0,0.39,0,0.78,0,1.17c-0.58,0-1.16,0-1.75,0c0-0.2,0-0.39,0-0.59c0-0.29,0-0.58,0-0.87
			c0.59,0,1.17,0,1.75,0C18.01,18.11,18.01,18.21,18.01,18.3z"/>
		<path fill="#853447" d="M18.01,27.62c0,0.58,0,1.17,0,1.75c-0.58,0-1.16,0-1.75,0c0-0.58,0-1.17,0-1.75
			C16.85,27.62,17.43,27.62,18.01,27.62z"/>
		<path fill="#A24745" d="M18.01,29.37c0,0.189,0,0.38,0,0.58c0,0.29,0,0.58,0,0.87c-0.58,0-1.16,0-1.75,0c0-0.29,0-0.58,0-0.87
			c0-0.2,0-0.391,0-0.58C16.85,29.37,17.43,29.37,18.01,29.37z"/>
		<path fill="#BA6E54" d="M16.26,43.34c0,0.2,0,0.39,0,0.58c-1.07,0-2.13,0-3.2,0c0-0.58,0-1.16,0-1.74c1.07,0,2.13,0,3.2,0
			C16.26,42.57,16.26,42.96,16.26,43.34z"/>
		<path fill="#211F30" d="M16.26,4.91c0,0.58,0,1.16,0,1.74c-0.19,0-0.39,0-0.58,0c-0.29,0-0.58,0-0.87,0c0-0.58,0-1.16,0-1.74
			c0.29,0,0.58,0,0.87,0C15.87,4.91,16.07,4.91,16.26,4.91z"/>
		<path fill="#A24745" d="M18.01,40.72c0,1.561,0,3.11,0,4.66c-1.65,0-3.3,0-4.95,0c0-0.19,0-0.39,0-0.58c0-0.29,0-0.58,0-0.88
			c1.07,0,2.13,0,3.2,0c0-0.19,0-0.38,0-0.58c0-0.38,0-0.77,0-1.16c-1.07,0-2.13,0-3.2,0c0-0.189,0-0.39,0-0.58
			c0-0.29,0-0.59,0-0.88c0.58,0,1.16,0,1.75,0c0.29,0,0.58,0,0.87,0C16.46,40.72,17.23,40.72,18.01,40.72z"/>
		<path fill="#A24745" d="M22.67,38.1c0,0.29,0,0.59,0,0.88c-2.62,0-5.24,0-7.86,0c0-1.069,0-2.14,0-3.21c0.19,0,0.38,0,0.58,0
			c0.29,0,0.58,0,0.87,0c0,0.101,0,0.2,0,0.29c0,0.391,0,0.78,0,1.17c2.14,0,4.27,0,6.41,0C22.67,37.52,22.67,37.81,22.67,38.1z"/>
		<path fill="#853447" d="M16.26,6.65c0,0.2,0,0.39,0,0.59c0,0.29,0,0.58,0,0.87c-0.29,0-0.58,0-0.87,0c-0.2,0-0.39,0-0.58,0
			c0-0.19,0-0.39,0-0.58c0-0.29,0-0.58,0-0.88c0.29,0,0.58,0,0.87,0C15.87,6.65,16.07,6.65,16.26,6.65z"/>
		<path fill="#853447" d="M14.81,34.03c0,0.58,0,1.159,0,1.739c-0.59,0-1.17,0-1.75,0c0-0.58,0-1.159,0-1.739
			C13.64,34.03,14.22,34.03,14.81,34.03z"/>
		<path fill="#A24745" d="M13.06,38.979c-1.07,0-2.14,0-3.2,0c0-0.59,0-1.17,0-1.75c1.06,0,2.13,0,3.2,0
			C13.06,37.81,13.06,38.39,13.06,38.979z"/>
		<path fill="#853447" d="M12.48,26.16c-0.29,0-0.59,0-0.88,0c0-0.58,0-1.16,0-1.74c0.2,0,0.39,0,0.59,0c0.29,0,0.58,0,0.87,0
			c0,0.58,0,1.16,0,1.74C12.87,26.16,12.67,26.16,12.48,26.16z"/>
		<path fill="#211F30" d="M34.03,34.03c0,1.649,0,3.3,0,4.949c1.061,0,2.13,0,3.2,0c0,0.29,0,0.58,0,0.87s0,0.58,0,0.87
			c-0.2,0-0.39,0-0.58,0c-0.3,0-0.59,0-0.88,0c0,1.561,0,3.11,0,4.66c-0.58,0-1.16,0-1.74,0c0-1.55,0-3.1,0-4.66
			c-0.78,0-1.56,0-2.33,0c-0.39,0-0.779,0-1.17,0c-0.39,0-0.78,0-1.16,0c0,0.29,0,0.59,0,0.88c0,0.19,0,0.391,0,0.58
			c0,0.58,0,1.16,0,1.74c0,0.3,0,0.59,0,0.88c0,0.19,0,0.39,0,0.58c-0.59,0-1.17,0-1.75,0c0-1.55,0-3.1,0-4.66
			c-0.29,0-0.58,0-0.87,0c-2.14,0-4.28,0-6.41,0c-0.29,0-0.58,0-0.87,0c0,0.29,0,0.59,0,0.88c0,0.681,0,1.36,0,2.03
			c0,0.59,0,1.17,0,1.75c-0.2,0-0.39,0-0.59,0c-0.29,0-0.58,0-0.87,0c0-1.55,0-3.1,0-4.66c-0.78,0-1.55,0-2.33,0
			c-0.29,0-0.58,0-0.87,0c-0.59,0-1.17,0-1.75,0c0,0.29,0,0.59,0,0.88c0,0.19,0,0.391,0,0.58c0,0.58,0,1.16,0,1.74
			c0,0.3,0,0.59,0,0.88c0,0.19,0,0.39,0,0.58c-0.19,0-0.39,0-0.58,0c-0.29,0-0.59,0-0.88,0c0-1.55,0-3.1,0-4.66
			c-0.58,0-1.16,0-1.74,0c0-0.58,0-1.16,0-1.74c1.06,0,2.13,0,3.2,0c0-0.59,0-1.17,0-1.75c0-0.199,0-0.39,0-0.58
			c0-0.3,0-0.59,0-0.88c0.58,0,1.16,0,1.75,0c0,1.07,0,2.141,0,3.21c2.62,0,5.24,0,7.86,0c0-0.29,0-0.59,0-0.88s0-0.58,0-0.87
			c0-0.199,0-0.39,0-0.58c0-0.3,0-0.59,0-0.88c0.58,0,1.16,0,1.75,0c0,1.07,0,2.141,0,3.21c2.71,0,5.43,0,8.15,0
			c0-0.59,0-1.17,0-1.75c0-1.069,0-2.14,0-3.199c0.19,0,0.39,0,0.58,0C33.44,34.03,33.73,34.03,34.03,34.03z"/>
		<path fill="#A24745" d="M11.6,4.91c0,0.58,0,1.16,0,1.74c-0.58,0-1.16,0-1.74,0c0-0.58,0-1.16,0-1.74
			C10.44,4.91,11.02,4.91,11.6,4.91z"/>
		<path fill="#BA6E54" d="M24.42,32.57c0-0.58,0-1.16,0-1.75c-0.59,0-1.17,0-1.75,0c0,0.59,0,1.17,0,1.75
			C23.25,32.57,23.83,32.57,24.42,32.57z M27.62,19.47c0-0.29,0-0.59,0-0.88c0-0.19,0-0.38,0-0.58c0-1.65,0-3.3,0-4.95
			c-0.29,0-0.58,0-0.87,0c-0.199,0-0.39,0-0.59,0c0-0.29,0-0.58,0-0.87c0-0.2,0-0.39,0-0.58c-0.29,0-0.58,0-0.87,0
			c-0.68,0-1.36,0-2.04,0s-1.36,0-2.04,0c0,0.19,0,0.38,0,0.58c0,0.29,0,0.58,0,0.87c-0.58,0-1.16,0-1.74,0c0,1.65,0,3.3,0,4.95
			c0,0.29,0,0.58,0,0.87c0,0.2,0,0.39,0,0.59c0.58,0,1.16,0,1.74,0c1.65,0,3.3,0,4.95,0c0.29,0,0.59,0,0.88,0
			C27.23,19.47,27.42,19.47,27.62,19.47z M32.57,14.81c0-0.58,0-1.17,0-1.75c-0.58,0-1.17,0-1.75,0c0,0.58,0,1.17,0,1.75
			C31.4,14.81,31.99,14.81,32.57,14.81z M33.44,27.62c0.2,0,0.39,0,0.59,0c0-0.29,0-0.58,0-0.87c0-0.2,0-0.39,0-0.59
			c-0.3,0-0.59,0-0.88,0c-0.19,0-0.39,0-0.58,0c0,0.29,0,0.59,0,0.88c0,0.189,0,0.39,0,0.58C32.86,27.62,33.15,27.62,33.44,27.62z
			 M34.03,32.57c0-0.19,0-0.391,0-0.58c0-0.88,0-1.75,0-2.62c-0.2,0-0.39,0-0.59,0c-0.29,0-0.58,0-0.87,0c0,0.29,0,0.58,0,0.87
			c0,0.779,0,1.55,0,2.33c0.29,0,0.58,0,0.87,0C33.64,32.57,33.83,32.57,34.03,32.57z M34.03,19.47c0,0.58,0,1.16,0,1.74
			c0.58,0,1.16,0,1.74,0c0,0.3,0,0.59,0,0.88c0,0.19,0,0.39,0,0.58c0.29,0,0.58,0,0.88,0c0.19,0,0.38,0,0.58,0c0,0.39,0,0.78,0,1.16
			c0,0.3,0,0.59,0,0.88c0,0.58,0,1.16,0,1.74c0,1.17,0,2.34,0,3.5c0,0.39,0,0.779,0,1.16c0,0.3,0,0.59,0,0.88
			c0,0.58,0,1.159,0,1.739c0,1.17,0,2.33,0,3.5c-0.29,0-0.58,0-0.88,0c-0.09,0-0.19,0-0.29,0c-0.03,0-0.271,0.021-0.29,0
			c-0.05-0.06,0.04-0.229,0-0.29c0-0.29,0-0.59,0-0.88c0-0.189,0-0.38,0-0.58c0-0.479,0-0.97,0-1.449c-0.58,0-1.16,0-1.74,0
			c-0.3,0-0.59,0-0.88,0c-0.19,0-0.39,0-0.58,0c0,1.06,0,2.13,0,3.199c-2.14,0-4.27,0-6.41,0c0-0.29,0-0.58,0-0.88
			c0-0.189,0-0.38,0-0.58c-0.58,0-1.16,0-1.74,0c0-0.58,0-1.159,0-1.739c-0.59,0-1.17,0-1.75,0c0,0.58,0,1.159,0,1.739
			c0,0.29,0,0.58,0,0.88c0,0.19,0,0.381,0,0.58c-2.14,0-4.27,0-6.41,0c0-0.39,0-0.779,0-1.17c0-0.09,0-0.189,0-0.29
			c-0.29,0-0.58,0-0.87,0c-0.2,0-0.39,0-0.58,0c0-0.58,0-1.159,0-1.739c-0.59,0-1.17,0-1.75,0c0,0.58,0,1.159,0,1.739
			c0,0.29,0,0.58,0,0.88c0,0.19,0,0.381,0,0.58c-1.07,0-2.14,0-3.2,0c0-1.55,0-3.109,0-4.659c0.58,0,1.16,0,1.74,0
			c0.29,0,0.59,0,0.88,0c0.48,0,0.97,0,1.45,0c0.49,0,0.97,0,1.46,0c0.29,0,0.58,0,0.87,0c0-0.29,0-0.58,0-0.87s0-0.59,0-0.88
			c0.59,0,1.17,0,1.75,0c0-0.29,0-0.58,0-0.87c0-0.2,0-0.391,0-0.58c0-0.58,0-1.17,0-1.75c0.29,0,0.58,0,0.87,0c0.2,0,0.39,0,0.59,0
			c0-0.87,0-1.75,0-2.62c0-0.19,0-0.39,0-0.58c-0.39,0-0.78,0-1.17,0c-0.1,0-0.19,0-0.29,0c0,1.07,0,2.13,0,3.2
			c-0.58,0-1.16,0-1.75,0c-0.58,0-1.16,0-1.74,0c-0.49,0-0.98,0-1.46,0c0-0.29,0-0.58,0-0.87c0-0.2,0-0.39,0-0.59
			c0-0.58,0-1.16,0-1.74c-0.29,0-0.58,0-0.87,0c-0.2,0-0.39,0-0.59,0c0-0.78,0-1.56,0-2.33c0-0.39,0-0.78,0-1.17s0-0.771,0-1.16
			c0-0.1,0-0.2,0-0.29c-0.58,0-1.16,0-1.74,0c0-0.29,0-0.59,0-0.88c0-0.19,0-0.38,0-0.58c2.13,0,4.27,0,6.4,0c0,0.29,0,0.58,0,0.87
			c0,0.2,0,0.39,0,0.59c0.59,0,1.17,0,1.75,0c0-0.39,0-0.78,0-1.17c0-0.09,0-0.19,0-0.29c-0.58,0-1.16,0-1.75,0
			c0-0.29,0-0.58,0-0.87c0-0.29,0-0.58,0-0.88c-0.29,0-0.58,0-0.87,0c-0.2,0-0.39,0-0.58,0c0-0.29,0-0.58,0-0.87
			c0-0.19,0-0.39,0-0.58c0-0.58,0-1.17,0-1.75c-0.59,0-1.17,0-1.75,0c0-0.29,0-0.58,0-0.87c0-0.2,0-0.39,0-0.58
			c-0.58,0-1.17,0-1.75,0c-0.48,0-0.97,0-1.45,0c0-0.88,0-1.75,0-2.63c0-0.77,0-1.55,0-2.33c0.58,0,1.16,0,1.74,0
			c0-0.58,0-1.16,0-1.74c1.07,0,2.14,0,3.21,0c0,0.58,0,1.16,0,1.74c0,0.3,0,0.59,0,0.88c0,0.19,0,0.39,0,0.58c0.19,0,0.38,0,0.58,0
			c0.29,0,0.58,0,0.87,0c0-0.29,0-0.58,0-0.87c0-0.2,0-0.39,0-0.59c0-0.58,0-1.16,0-1.74c4.86,0,9.71,0,14.56,0c0,1.06,0,2.13,0,3.2
			c0,1.17,0,2.33,0,3.5c0.29,0,0.58,0,0.88,0c0.29,0,0.58,0,0.87,0c0-0.3,0-0.59,0-0.88c0-0.87,0-1.75,0-2.62c0-1.07,0-2.14,0-3.2
			c1.07,0,2.14,0,3.2,0c0,0.58,0,1.16,0,1.74c0.29,0,0.58,0,0.88,0c0.19,0,0.38,0,0.58,0c0,1.36,0,2.72,0,4.08c0,0.68,0,1.36,0,2.04
			c0,0.68,0,1.36,0,2.04c-0.29,0-0.58,0-0.88,0c-0.19,0-0.38,0-0.58,0c0,0.39,0,0.77,0,1.16c0,0.1,0,0.2,0,0.29
			c0.29,0,0.58,0,0.88,0c0.19,0,0.38,0,0.58,0c1.65,0,3.3,0,4.95,0c0-0.29,0-0.58,0-0.87c0-0.19,0-0.39,0-0.58c1.06,0,2.13,0,3.2,0
			c0.29,0,0.579,0,0.869,0c0.101,0,0.2-0.02,0.301,0c0.09,0.01,0.189,0,0.29,0c0.029,0,0.27-0.02,0.29,0c0.05,0.06-0.04,0.22,0,0.29
			c0,0.39,0,0.78,0,1.16c-0.58,0-1.171,0-1.75,0c0,0.59,0,1.17,0,1.75c-0.29,0-0.58,0-0.87,0c-0.2,0-0.391,0-0.58,0
			c-0.59,0-1.17,0-1.75,0c0,0.29,0,0.58,0,0.87c0,0.2,0,0.39,0,0.59c-1.65,0-3.3,0-4.95,0c-0.29,0-0.58,0-0.88,0
			c-0.19,0-0.38,0-0.58,0c0-0.29,0-0.59,0-0.88c0-0.19,0-0.38,0-0.58c-0.58,0-1.16,0-1.74,0c-0.01,0.29,0,0.58,0,0.87
			C34.03,19.08,34.03,19.27,34.03,19.47z"/>
		<path fill="#853447" d="M11.6,22.09c0,0.771,0,1.55,0,2.33c-0.58,0-1.16,0-1.74,0c0-1.65,0-3.3,0-4.95c0.58,0,1.16,0,1.74,0
			c0,0.09,0,0.19,0,0.29c0,0.39,0,0.771,0,1.16S11.6,21.7,11.6,22.09z"/>
		<path fill="#211F30" d="M11.6,27.04c0,0.189,0,0.39,0,0.58c-0.58,0-1.16,0-1.74,0c0-0.19,0-0.391,0-0.58c0-0.29,0-0.59,0-0.88
			c0.58,0,1.16,0,1.74,0C11.6,26.45,11.6,26.75,11.6,27.04z"/>
		<path fill="#A24745" d="M11.6,27.62c0-0.19,0-0.391,0-0.58c0-0.29,0-0.59,0-0.88c0.29,0,0.59,0,0.88,0c0.19,0,0.39,0,0.58,0
			c0,0.2,0,0.39,0,0.59c0,0.29,0,0.58,0,0.87c0.48,0,0.97,0,1.46,0c0.58,0,1.16,0,1.74,0c0,0.58,0,1.17,0,1.75
			c-0.58,0-1.16,0-1.74,0c-0.49,0-0.98,0-1.46,0c-0.58,0-1.17,0-1.75,0c-0.48,0-0.97,0-1.45,0c0-0.58,0-1.17,0-1.75
			C10.44,27.62,11.02,27.62,11.6,27.62z"/>
		<path fill="#211F30" d="M10.94,13.91c0,0.73,0,1.47,0,2.2c-0.19,0-0.39,0-0.58,0c-0.29,0-0.59,0-0.88,0c0-0.73,0-1.47,0-2.2
			c0.29,0,0.59,0,0.88,0C10.55,13.91,10.75,13.91,10.94,13.91z"/>
		<path fill="#211F30" d="M14.81,4.91c-1.07,0-2.14,0-3.21,0c-0.58,0-1.16,0-1.74,0c0-0.2,0-0.39,0-0.58c0-0.3,0-0.59,0-0.88
			c0.09,0,0.19,0,0.29,0c0.77,0,1.55,0,2.33,0c0.77,0,1.55,0,2.33,0c0,0.2,0,0.39,0,0.58C14.81,4.33,14.81,4.62,14.81,4.91z"/>
		<path fill="#211F30" d="M9.86,4.91c0,0.58,0,1.16,0,1.74c-0.59,0-1.17,0-1.75,0c0-0.58,0-1.16,0-1.74
			C8.69,4.91,9.27,4.91,9.86,4.91z"/>
		<path fill="#A24745" d="M9.86,6.65c0,0.78,0,1.56,0,2.33c0,0.88,0,1.75,0,2.63c-0.59,0-1.17,0-1.75,0c0-1.65,0-3.31,0-4.96
			C8.69,6.65,9.27,6.65,9.86,6.65z"/>
		<path fill="#853447" d="M11.31,11.61c0.58,0,1.17,0,1.75,0c0,0.19,0,0.38,0,0.58c0,0.29,0,0.58,0,0.87c-0.87,0-1.75,0-2.62,0
			c-0.78,0-1.55,0-2.33,0c0-0.19,0-0.39,0-0.58c0-0.29,0-0.58,0-0.87c0.58,0,1.16,0,1.75,0C10.34,11.61,10.83,11.61,11.31,11.61z"/>
		<path fill="#A24745" d="M12.48,32.57c-0.29,0-0.59,0-0.88,0c-0.58,0-1.16,0-1.74,0c0,1.55,0,3.109,0,4.659c-0.59,0-1.17,0-1.75,0
			c0-0.489,0-0.97,0-1.46c0-0.58,0-1.159,0-1.739c0-0.49,0-0.971,0-1.46c0-0.58,0-1.16,0-1.75c2.72,0,5.43,0,8.15,0
			c0,0.29,0,0.59,0,0.88s0,0.58,0,0.87c-0.29,0-0.58,0-0.87,0c-0.49,0-0.97,0-1.46,0C13.45,32.57,12.96,32.57,12.48,32.57z"/>
		<path fill="#211F30" d="M9.86,37.229c0,0.58,0,1.16,0,1.75c-0.59,0-1.17,0-1.75,0c0-0.59,0-1.17,0-1.75
			C8.69,37.229,9.27,37.229,9.86,37.229z"/>
		<path fill="#F7F9F9" d="M10.94,16.11c0-0.73,0-1.47,0-2.2c-0.19,0-0.39,0-0.58,0c-0.29,0-0.59,0-0.88,0c0,0.73,0,1.47,0,2.2
			c0.29,0,0.59,0,0.88,0C10.55,16.11,10.75,16.11,10.94,16.11z M10.44,13.06c0.87,0,1.75,0,2.62,0c0,0.29,0,0.58,0,0.87
			c0,0.2,0,0.39,0,0.59c0,0.39,0,0.77,0,1.16c0,0.2,0,0.39,0,0.58c-1.65,0-3.3,0-4.95,0c0-0.48,0-0.97,0-1.45c0-0.58,0-1.17,0-1.75
			C8.89,13.06,9.66,13.06,10.44,13.06z"/>
		<path fill="#211F30" d="M8.11,14.81c0,0.48,0,0.97,0,1.45c-0.19,0-0.39,0-0.58,0c-0.29,0-0.58,0-0.88,0c0-1.55,0-3.1,0-4.65
			c0-0.78,0-1.56,0-2.33c0-0.88,0-1.75,0-2.63c0.2,0,0.39,0,0.59,0c0.29,0,0.58,0,0.87,0c0,1.65,0,3.31,0,4.96c0,0.29,0,0.58,0,0.87
			c0,0.19,0,0.39,0,0.58C8.11,13.64,8.11,14.23,8.11,14.81z"/>
		<path fill="#211F30" d="M8.11,23.83c0,0.78,0,1.56,0,2.33c-0.29,0-0.58,0-0.87,0c-0.2,0-0.39,0-0.59,0c0-1.65,0-3.3,0-4.95
			c0.2,0,0.39,0,0.59,0c0.29,0,0.58,0,0.87,0C8.11,22.09,8.11,22.96,8.11,23.83z"/>
		<path fill="#853447" d="M16.26,18.01c-2.13,0-4.27,0-6.4,0c0,0.2,0,0.39,0,0.58c0,0.29,0,0.59,0,0.88c-0.59,0-1.17,0-1.75,0
			c0-0.2,0-0.39,0-0.59c0-0.29,0-0.58,0-0.87c-0.29,0-0.58,0-0.87,0c-0.2,0-0.39,0-0.59,0c0-0.58,0-1.16,0-1.75c0.3,0,0.59,0,0.88,0
			c0.19,0,0.39,0,0.58,0c1.65,0,3.3,0,4.95,0c0-0.19,0-0.38,0-0.58c0-0.39,0-0.77,0-1.16c0-0.2,0-0.39,0-0.59c0-0.29,0-0.58,0-0.87
			c0.58,0,1.16,0,1.75,0c0,0.58,0,1.17,0,1.75c0,0.19,0,0.39,0,0.58c0,0.29,0,0.58,0,0.87c0.19,0,0.38,0,0.58,0
			c0.29,0,0.58,0,0.87,0c0,0.3,0,0.59,0,0.88C16.26,17.43,16.26,17.72,16.26,18.01z"/>
		<path fill="#211F30" d="M6.65,19.47c0,0.58,0,1.16,0,1.74c-0.58,0-1.16,0-1.74,0c0-0.58,0-1.16,0-1.74
			C5.49,19.47,6.07,19.47,6.65,19.47z"/>
		<path fill="#211F30" d="M6.65,16.26c0,0.59,0,1.17,0,1.75c-1.06,0-2.13,0-3.2,0c0-0.58,0-1.16,0-1.75
			C4.52,16.26,5.59,16.26,6.65,16.26z"/>
		<path fill="#853447" d="M6.65,21.21c0,1.65,0,3.3,0,4.95c-0.58,0-1.16,0-1.74,0c-0.2,0-0.39,0-0.59,0c-0.29,0-0.58,0-0.87,0
			c0-1.65,0-3.3,0-4.95c0.19,0,0.39,0,0.58,0c0.29,0,0.59,0,0.88,0C5.49,21.21,6.07,21.21,6.65,21.21z"/>
		<path fill="#211F30" d="M6.65,26.16c0,0.2,0,0.39,0,0.59c0,0.29,0,0.58,0,0.87c-0.58,0-1.16,0-1.74,0c0-0.19,0-0.391,0-0.58
			c0-0.29,0-0.59,0-0.88C5.49,26.16,6.07,26.16,6.65,26.16z"/>
		<path fill="#211F30" d="M11.31,29.37c0.58,0,1.17,0,1.75,0c0.48,0,0.97,0,1.46,0c0.58,0,1.16,0,1.74,0c0,0.189,0,0.38,0,0.58
			c0,0.29,0,0.58,0,0.87c-2.72,0-5.43,0-8.15,0c0,0.59,0,1.17,0,1.75c0,0.489,0,0.97,0,1.46c0,0.58,0,1.159,0,1.739
			c0,0.49,0,0.971,0,1.46c-0.19,0-0.39,0-0.58,0c-0.29,0-0.58,0-0.88,0c0-0.29,0-0.58,0-0.88c0-0.29,0-0.58,0-0.87
			c0-0.479,0-0.97,0-1.449c0-0.49,0-0.971,0-1.46c0-0.29,0-0.58,0-0.87s0-0.59,0-0.88c-0.19,0-0.38,0-0.58,0c-0.87,0-1.75,0-2.62,0
			c0-0.19,0-0.391,0-0.58c0-0.29,0-0.58,0-0.87c1.55,0,3.11,0,4.66,0c0-0.58,0-1.17,0-1.75c0.29,0,0.58,0,0.87,0s0.59,0,0.88,0
			c0,0.58,0,1.17,0,1.75C10.34,29.37,10.83,29.37,11.31,29.37z"/>
		<path fill="#211F30" d="M1.7,19.47c0-0.2,0-0.39,0-0.59c0-0.29,0-0.58,0-0.87c0.59,0,1.17,0,1.75,0c0,0.29,0,0.58,0,0.87
			c0,0.2,0,0.39,0,0.59C2.87,19.47,2.29,19.47,1.7,19.47z"/>
		<path fill="#BA6E54" d="M8.11,26.16c0-0.771,0-1.55,0-2.33c0-0.87,0-1.74,0-2.62c-0.29,0-0.58,0-0.87,0c-0.2,0-0.39,0-0.59,0
			c0-0.58,0-1.16,0-1.74c-0.58,0-1.16,0-1.74,0c0,0.58,0,1.16,0,1.74c-0.29,0-0.59,0-0.88,0c-0.19,0-0.39,0-0.58,0
			c0,1.65,0,3.3,0,4.95c0.29,0,0.58,0,0.87,0c0.2,0,0.39,0,0.59,0c0,0.29,0,0.59,0,0.88c0,0.189,0,0.39,0,0.58c0.58,0,1.16,0,1.74,0
			c0-0.29,0-0.58,0-0.87c0-0.2,0-0.39,0-0.59c0.2,0,0.39,0,0.59,0C7.53,26.16,7.82,26.16,8.11,26.16z M11.6,24.42
			c0,0.58,0,1.16,0,1.74c-0.58,0-1.16,0-1.74,0c0,0.29,0,0.59,0,0.88c0,0.189,0,0.39,0,0.58c-0.29,0-0.59,0-0.88,0s-0.58,0-0.87,0
			c0,0.58,0,1.17,0,1.75c-1.55,0-3.11,0-4.66,0c0-0.58,0-1.17,0-1.75c-0.58,0-1.16,0-1.75,0c0-1.36,0-2.721,0-4.08
			c0-1.36,0-2.71,0-4.07c0.59,0,1.17,0,1.75,0c0-0.2,0-0.39,0-0.59c0-0.29,0-0.58,0-0.87c1.07,0,2.14,0,3.2,0c0.2,0,0.39,0,0.59,0
			c0.29,0,0.58,0,0.87,0c0,0.29,0,0.58,0,0.87c0,0.2,0,0.39,0,0.59c0.58,0,1.16,0,1.75,0c0,1.65,0,3.3,0,4.95
			C10.44,24.42,11.02,24.42,11.6,24.42z"/>
		<path fill="#211F30" d="M1.7,27.62c0.59,0,1.17,0,1.75,0c0,0.58,0,1.17,0,1.75c-0.58,0-1.16,0-1.75,0
			C1.7,28.79,1.7,28.2,1.7,27.62z"/>
		<path fill="#211F30" d="M1.7,23.54c0,1.359,0,2.72,0,4.08c-0.19,0-0.39,0-0.58,0c-0.29,0-0.58,0-0.87,0c0-0.101,0-0.19,0-0.29
			c0-0.58,0-1.17,0-1.75c0-0.681,0-1.36,0-2.04c0-1.36,0-2.71,0-4.07c0.19,0,0.39,0,0.58,0c0.29,0,0.58,0,0.87,0
			C1.7,20.83,1.7,22.18,1.7,23.54z"/>
	</g>
	<g>
	</g>
</g>
</svg>
