<?xml version="1.0" encoding="utf-8"?>
<!-- Generator: Adobe Illustrator 15.0.0, SVG Export Plug-In  -->
<!DOCTYPE svg PUBLIC "-//W3C//DTD SVG 1.1//EN" "http://www.w3.org/Graphics/SVG/1.1/DTD/svg11.dtd" [
	<!ENTITY ns_flows "http://ns.adobe.com/Flows/1.0/">
]>
<svg version="1.1"
	 xmlns="http://www.w3.org/2000/svg" xmlns:xlink="http://www.w3.org/1999/xlink" xmlns:a="http://ns.adobe.com/AdobeSVGViewerExtensions/3.0/"
	 x="0px" y="0px" width="70px" height="55px" viewBox="-9.77 -8.87 70 55" enable-background="new -9.77 -8.87 70 55"
	 xml:space="preserve">
<defs>
</defs>
<g id="XMLID_2_">
	<g>
		<path fill="#F7F9F9" d="M22.37,13.91c0,1.06,0,2.13,0,3.2c-0.09,0-0.17,0-0.26,0v-3.2C22.2,13.91,22.28,13.91,22.37,13.91z"/>
		<path fill="#F7F9F9" d="M11.57,13.81v2.3c-0.15,0-0.29,0-0.44,0c0-0.77,0-1.53,0-2.3C11.28,13.81,11.42,13.81,11.57,13.81z"/>
		<path fill="#211F30" d="M60.23,9.86c0,0.58,0,1.16,0,1.75c0,0.19,0,0.38,0,0.58c0,0.29,0,0.58,0,0.87c-0.58,0-1.16,0-1.75,0
			c0-0.19,0-0.39,0-0.58c0-0.29,0-0.58,0-0.87c0-0.59,0-1.17,0-1.75C59.07,9.86,59.65,9.86,60.23,9.86z"/>
		<path fill="#619E43" d="M58.48,11.61c0,0.29,0,0.58,0,0.87c0,0.19,0,0.39,0,0.58c-0.29,0-0.58,0-0.87,0c-0.2,0-0.39,0-0.58,0
			c0,0.58,0,1.17,0,1.75c-1.649,0-3.3,0-4.95,0c0-0.58,0-1.17,0-1.75c-0.59,0-1.17,0-1.75,0c0-0.58,0-1.16,0-1.75
			c0-0.29,0-0.58,0-0.87c0-0.19,0-0.39,0-0.58c0.58,0,1.16,0,1.75,0c0-0.58,0-1.17,0-1.75c1.65,0,3.301,0,4.95,0
			c0,0.58,0,1.17,0,1.75c0.29,0,0.58,0,0.87,0c0.19,0,0.39,0,0.58,0C58.48,10.44,58.48,11.02,58.48,11.61z"/>
		<path fill="#211F30" d="M58.48,13.06c0,0.58,0,1.17,0,1.75c-0.19,0-0.39,0-0.58,0c-0.29,0-0.58,0-0.87,0c0-0.58,0-1.17,0-1.75
			c0.19,0,0.38,0,0.58,0C57.9,13.06,58.19,13.06,58.48,13.06z"/>
		<path fill="#211F30" d="M57.61,8.11c0.29,0,0.58,0,0.87,0c0,0.58,0,1.17,0,1.75c-0.19,0-0.39,0-0.58,0c-0.29,0-0.58,0-0.87,0
			c0-0.58,0-1.17,0-1.75C57.22,8.11,57.41,8.11,57.61,8.11z"/>
		<path fill="#211F30" d="M57.03,15.39c0,0.29,0,0.58,0,0.87c-1.649,0-3.3,0-4.95,0c0-0.19,0-0.38,0-0.58c0-0.29,0-0.58,0-0.87
			c1.65,0,3.301,0,4.95,0C57.03,15,57.03,15.2,57.03,15.39z"/>
		<path fill="#211F30" d="M57.03,7.24c0,0.29,0,0.58,0,0.87c-1.649,0-3.3,0-4.95,0c0-1.55,0-3.11,0-4.66c0.29,0,0.58,0,0.87,0
			s0.58,0,0.87,0c0,0.78,0,1.55,0,2.33c0,0.29,0,0.58,0,0.87c0.2,0,0.391,0,0.59,0c0.87,0,1.74,0,2.62,0
			C57.03,6.85,57.03,7.04,57.03,7.24z"/>
		<path fill="#211F30" d="M52.08,1.7c0,0.59,0,1.17,0,1.75c-0.59,0-1.17,0-1.75,0c0-0.58,0-1.16,0-1.75
			C50.91,1.7,51.49,1.7,52.08,1.7z"/>
		<path fill="#619E43" d="M52.08,3.45c0,1.55,0,3.11,0,4.66c-0.59,0-1.17,0-1.75,0c0,0.58,0,1.17,0,1.75c-0.58,0-1.159,0-1.75,0
			c-0.479,0-0.97,0-1.449,0c0-0.58,0-1.17,0-1.75c-0.29,0-0.591,0-0.881,0c-0.189,0-0.39,0-0.579,0c0-1.55,0-3.11,0-4.66
			c0.29,0,0.579,0,0.869,0c0.2,0,0.391,0,0.591,0c0-0.58,0-1.16,0-1.75c0.479,0,0.97,0,1.449,0c0.2,0,0.391,0,0.591,0
			c0.38,0,0.77,0,1.159,0c0,0.59,0,1.17,0,1.75C50.91,3.45,51.49,3.45,52.08,3.45z"/>
		<path fill="#211F30" d="M52.08,8.11c0,0.58,0,1.17,0,1.75c-0.59,0-1.17,0-1.75,0c0-0.58,0-1.17,0-1.75
			C50.91,8.11,51.49,8.11,52.08,8.11z"/>
		<path fill="#211F30" d="M52.08,13.06c0,0.58,0,1.17,0,1.75c-0.59,0-1.17,0-1.75,0c0-0.58,0-1.17,0-1.75
			C50.91,13.06,51.49,13.06,52.08,13.06z"/>
		<path fill="#211F30" d="M50.33,15.39c0,0.29,0,0.58,0,0.87c-0.1,0-0.199,0-0.29,0c-0.39,0-0.779,0-1.17,0c0-0.19,0-0.38,0-0.58
			c0-0.29,0-0.58,0-0.87c0.2,0,0.391,0,0.58,0c0.3,0,0.59,0,0.88,0C50.33,15,50.33,15.2,50.33,15.39z"/>
		<path fill="#211F30" d="M48.87,16.26c0,0.59,0,1.17,0,1.75c-0.58,0-1.159,0-1.739,0c0-0.58,0-1.16,0-1.75
			C47.71,16.26,48.29,16.26,48.87,16.26z"/>
		<path fill="#211F30" d="M50.33,0.25c0,0.19,0,0.39,0,0.58c0,0.29,0,0.58,0,0.87c-0.39,0-0.779,0-1.159,0c-0.2,0-0.391,0-0.591,0
			c-0.479,0-0.97,0-1.449,0c0-0.19,0-0.38,0-0.58c0-0.29,0-0.58,0-0.87c0.58,0,1.159,0,1.739,0c0.2,0,0.391,0,0.58,0
			C49.75,0.25,50.04,0.25,50.33,0.25z"/>
		<path fill="#211F30" d="M50.33,10.44c0,0.29,0,0.58,0,0.87c0,0.59,0,1.17,0,1.75c-0.29,0-0.58,0-0.88,0c-0.189,0-0.38,0-0.58,0
			c0-0.29,0-0.58,0-0.87c0-0.2,0-0.39,0-0.58c-0.58,0-1.159,0-1.739,0c0-0.59,0-1.17,0-1.75c0.479,0,0.97,0,1.449,0
			c0.591,0,1.17,0,1.75,0C50.33,10.05,50.33,10.25,50.33,10.44z"/>
		<path fill="#211F30" d="M47.13,8.11c0,0.58,0,1.17,0,1.75c-0.2,0-0.391,0-0.591,0c-0.29,0-0.579,0-0.869,0c0-0.58,0-1.17,0-1.75
			c0.189,0,0.39,0,0.579,0C46.54,8.11,46.84,8.11,47.13,8.11z"/>
		<path fill="#A24745" d="M50.33,13.06c0,0.58,0,1.17,0,1.75c-0.29,0-0.58,0-0.88,0c-0.189,0-0.38,0-0.58,0c0,0.29,0,0.58,0,0.87
			c0,0.2,0,0.39,0,0.58c-0.58,0-1.159,0-1.739,0c0-0.38-0.011-0.77,0-1.16c0-0.1,0-0.19,0-0.29c-0.2,0-0.391,0-0.591,0
			c-0.29,0-0.579,0-0.869,0c0-0.58,0-1.17,0-1.75c0.29,0,0.579,0,0.869,0c0.2,0,0.391,0,0.591,0c0-0.29,0-0.58,0-0.87
			c0-0.2,0-0.39,0-0.58c0.58,0,1.159,0,1.739,0c0,0.19,0,0.38,0,0.58c0,0.29,0,0.58,0,0.87c0.2,0,0.391,0,0.58,0
			C49.75,13.06,50.04,13.06,50.33,13.06z"/>
		<path fill="#211F30" d="M47.13,1.7c0,0.59,0,1.17,0,1.75c-0.2,0-0.391,0-0.591,0c-0.29,0-0.579,0-0.869,0c0-0.58,0-1.16,0-1.75
			c0.189,0,0.39,0,0.579,0C46.54,1.7,46.84,1.7,47.13,1.7z"/>
		<path fill="#A24745" d="M47.13,16.26c0,0.59,0,1.17,0,1.75c-0.2,0-0.391,0-0.591,0c-0.29,0-0.579,0-0.869,0c0-0.58,0-1.16,0-1.75
			c0.189,0,0.39,0,0.579,0C46.54,16.26,46.84,16.26,47.13,16.26z"/>
		<path fill="#211F30" d="M47.13,12.19c0,0.29,0,0.58,0,0.87c-0.2,0-0.391,0-0.591,0c-0.29,0-0.579,0-0.869,0c0-0.19,0-0.39,0-0.58
			c0-0.29,0-0.58,0-0.87c0.1,0,0.189,0,0.29,0c0.39,0,0.779,0,1.17,0C47.13,11.8,47.13,11.99,47.13,12.19z"/>
		<path fill="#211F30" d="M43.92,3.45c0.59,0,1.17,0,1.75,0c0,1.55,0,3.11,0,4.66c-0.58,0-1.16,0-1.75,0
			C43.92,6.56,43.92,5,43.92,3.45z"/>
		<path fill="#211F30" d="M45.67,14.81c-1.07,0-2.141,0-3.2,0c0-0.58,0-1.17,0-1.75c0.29,0,0.58,0,0.87,0c0.489,0,0.97,0,1.46,0
			c0.29,0,0.58,0,0.87,0C45.67,13.64,45.67,14.23,45.67,14.81z"/>
		<path fill="#211F30" d="M43.92,18.01c0.59,0,1.17,0,1.75,0c0.29,0,0.579,0,0.869,0c0.2,0,0.391,0,0.591,0c0,0.2,0,0.39,0,0.58
			c0,0.29,0,0.58,0,0.88c-1.07,0-2.141,0-3.21,0c0-0.3,0-0.59,0-0.88C43.92,18.4,43.92,18.21,43.92,18.01z"/>
		<path fill="#A24745" d="M43.92,18.59c0,0.29,0,0.58,0,0.88c-0.19,0-0.391,0-0.58,0c-0.29,0-0.58,0-0.87,0c0-0.2,0-0.39,0-0.59
			c0-0.29,0-0.58,0-0.87c0.09,0,0.189,0,0.29,0c0.39,0,0.77,0,1.16,0C43.92,18.21,43.92,18.4,43.92,18.59z"/>
		<path fill="#211F30" d="M37.52,4.91c0.58,0,1.16,0,1.75,0c0,0.58,0,1.16,0,1.74c-0.59,0-1.17,0-1.75,0
			C37.52,6.07,37.52,5.49,37.52,4.91z"/>
		<path fill="#211F30" d="M37.52,14.81c0.58,0,1.16,0,1.75,0c0-0.29,0-0.58,0-0.88c0-0.38,0-0.77,0-1.16c0-0.29,0-0.58,0-0.87
			c0-0.39,0-0.78,0-1.17c0-1.36,0-2.72,0-4.08c0.19,0,0.38,0,0.58,0c0.29,0,0.58,0,0.87,0c0,0.39,0,0.78,0,1.17
			c0,0.29,0,0.58,0,0.87s0,0.59,0,0.88c0,0.39,0,0.77,0,1.16c0,1.36,0,2.72,0,4.08c0.189,0,0.39,0,0.58,0c0.39,0,0.779,0,1.17,0
			c0,0.19,0,0.39,0,0.58c0,0.29,0,0.58,0,0.87c-1.65,0-3.3,0-4.95,0c0-0.09,0-0.19,0-0.29C37.52,15.58,37.52,15.2,37.52,14.81z"/>
		<path fill="#211F30" d="M37.52,38.979c0-0.59,0-1.17,0-1.75c0.58,0,1.16,0,1.75,0c0,0.58,0,1.16,0,1.75
			C38.68,38.979,38.1,38.979,37.52,38.979z"/>
		<path fill="#211F30" d="M38.39,21.21c-0.29,0-0.58,0-0.87,0c0-0.58,0-1.16,0-1.74c1.65,0,3.3,0,4.95,0c0.29,0,0.58,0,0.87,0
			c0.189,0,0.39,0,0.58,0c0,0.29,0,0.58,0,0.87s0,0.58,0,0.87c-0.771,0-1.551,0-2.33,0c-0.29,0-0.58,0-0.87,0c0,1.27,0,2.53,0,3.79
			c0,1.36,0,2.72,0,4.08c0,0.67,0,1.35,0,2.03c0,0.68,0,1.359,0,2.039c0,1.36,0,2.721,0,4.08c-0.19,0-0.391,0-0.58,0
			c-0.29,0-0.59,0-0.87,0c0-2.619,0-5.239,0-7.859c0-1.36,0-2.721,0-4.08c0-0.68,0-1.36,0-2.04c0-0.29,0-0.58,0-0.87
			c0-0.39,0-0.78,0-1.17C38.97,21.21,38.68,21.21,38.39,21.21z"/>
		<path fill="#A24745" d="M37.52,12.77c0-0.68,0-1.36,0-2.04c0-1.36,0-2.72,0-4.08c0.58,0,1.16,0,1.75,0c0,1.36,0,2.72,0,4.08
			c0,0.39,0,0.78,0,1.17c0,0.29,0,0.58,0,0.87c0,0.39,0,0.78,0,1.16c0,0.3,0,0.59,0,0.88c-0.59,0-1.17,0-1.75,0
			C37.52,14.13,37.52,13.45,37.52,12.77z"/>
		<path fill="#A24745" d="M37.52,4.91c0,0.58,0,1.16,0,1.74c-0.58,0-1.17,0-1.75,0c0-0.58,0-1.16,0-1.74
			C36.35,4.91,36.94,4.91,37.52,4.91z"/>
		<path fill="#853447" d="M37.52,15.97c0,0.1,0,0.2,0,0.29c-0.58,0-1.17,0-1.75,0c0-0.29,0-0.58,0-0.87c0-0.19,0-0.39,0-0.58
			c0.58,0,1.17,0,1.75,0C37.52,15.2,37.52,15.58,37.52,15.97z"/>
		<path fill="#853447" d="M37.52,19.47c0,0.58,0,1.16,0,1.74c-0.58,0-1.17,0-1.75,0c0-0.58,0-1.16,0-1.74
			C36.35,19.47,36.94,19.47,37.52,19.47z"/>
		<path fill="#A24745" d="M37.52,21.21c0.29,0,0.58,0,0.87,0s0.58,0,0.88,0c0,0.39,0,0.78,0,1.17c0,0.29,0,0.58,0,0.87
			c0,0.68,0,1.36,0,2.04c0,1.359,0,2.72,0,4.08c0,2.62,0,5.24,0,7.859c-0.59,0-1.17,0-1.75,0c0-1.17,0-2.33,0-3.5
			c0-0.29,0-0.58,0-0.869c0-0.29,0-0.58,0-0.87c0-0.681,0-1.36,0-2.04c0-1.16,0-2.33,0-3.5c0-0.29,0-0.58,0-0.87s0-0.58,0-0.87
			c0-0.68,0-1.36,0-2.04c-0.58,0-1.17,0-1.75,0c0-0.19,0-0.39,0-0.58c0-0.29,0-0.58,0-0.88C36.35,21.21,36.94,21.21,37.52,21.21z"/>
		<path fill="#A24745" d="M35.77,19.47c0,0.58,0,1.16,0,1.74c-0.19,0-0.39,0-0.58,0c-0.29,0-0.58,0-0.88,0c0-0.58,0-1.16,0-1.74
			c0.3,0,0.59,0,0.88,0C35.38,19.47,35.58,19.47,35.77,19.47z"/>
		<path fill="#A24745" d="M35.77,37.229c0.58,0,1.17,0,1.75,0c0,0.58,0,1.16,0,1.75c-1.07,0-2.14,0-3.21,0c0-1.649,0-3.3,0-4.949
			c0.2,0,0.39,0,0.59,0c0.29,0,0.58,0,0.87,0C35.77,35.09,35.77,36.16,35.77,37.229z"/>
		<path fill="#853447" d="M35.77,18.01c0,0.2,0,0.39,0,0.58c0,0.29,0,0.58,0,0.88c-0.19,0-0.39,0-0.58,0c-0.29,0-0.58,0-0.88,0
			c0-0.2,0-0.39,0-0.59c0-0.29,0-0.58,0-0.87c0.1,0,0.2,0,0.3,0C34.99,18.01,35.38,18.01,35.77,18.01z"/>
		<path fill="#211F30" d="M34.31,44.38c0,0.58,0,1.17,0,1.75c-1.65,0-3.29,0-4.95,0c0-0.58,0-1.17,0-1.75
			C31.02,44.38,32.66,44.38,34.31,44.38z"/>
		<path fill="#853447" d="M34.31,31.99c0,0.189,0,0.39,0,0.58c-0.58,0-1.16,0-1.74,0c0-0.87,0-1.75,0-2.62c0-0.2,0-0.391,0-0.58
			c0.58,0,1.16,0,1.74,0C34.31,30.24,34.31,31.11,34.31,31.99z"/>
		<path fill="#853447" d="M34.31,26.16c0,0.2,0,0.39,0,0.59c0,0.29,0,0.58,0,0.87c-0.58,0-1.16,0-1.74,0c0-0.19,0-0.391,0-0.58
			c0-0.29,0-0.59,0-0.88C33.15,26.16,33.73,26.16,34.31,26.16z"/>
		<path fill="#211F30" d="M35.19,3.45c0.771,0,1.55,0,2.33,0c0,0.2,0,0.39,0,0.58c0,0.3,0,0.59,0,0.88c-0.58,0-1.17,0-1.75,0
			s-1.16,0-1.75,0c-0.48,0-0.97,0-1.45,0c0-0.2,0-0.39,0-0.58c0-0.3,0-0.59,0-0.88c0.09,0,0.19,0,0.29,0
			C33.63,3.45,34.41,3.45,35.19,3.45z"/>
		<path fill="#BA6E54" d="M32.57,42.34c0,0.2,0,0.39,0,0.58c-1.07,0-2.14,0-3.21,0c0-0.58,0-1.16,0-1.74c0.49,0,0.97,0,1.46,0
			c0.58,0,1.16,0,1.75,0C32.57,41.57,32.57,41.96,32.57,42.34z"/>
		<path fill="#211F30" d="M32.57,4.91c0,1.06,0,2.13,0,3.2c-0.2,0-0.39,0-0.59,0c-0.29,0-0.58,0-0.87,0c0-1.07,0-2.14,0-3.2
			c0.29,0,0.58,0,0.87,0C32.18,4.91,32.37,4.91,32.57,4.91z"/>
		<path fill="#853447" d="M32.57,8.11c0,0.87,0,1.75,0,2.62c0,0.29,0,0.58,0,0.88c-0.1,0-0.2,0-0.3,0c-0.38,0-0.771,0-1.16,0
			c0-1.17,0-2.33,0-3.5c0.29,0,0.58,0,0.87,0C32.18,8.11,32.37,8.11,32.57,8.11z"/>
		<path fill="#853447" d="M32.57,13.06c0,0.58,0,1.17,0,1.75c-0.2,0-0.39,0-0.59,0c-0.29,0-0.58,0-0.87,0c0-0.58,0-1.17,0-1.75
			c0.29,0,0.58,0,0.87,0C32.18,13.06,32.37,13.06,32.57,13.06z"/>
		<path fill="#211F30" d="M31.11,4.03c0,0.3,0,0.59,0,0.88c-4.85,0-9.7,0-14.56,0c0-0.2,0-0.39,0-0.58c0-0.3,0-0.59,0-0.88
			c4.86,0,9.71,0,14.56,0C31.11,3.65,31.11,3.84,31.11,4.03z"/>
		<path fill="#A24745" d="M34.31,40.72c0,1.561,0,2.11,0,3.66c-1.65,0-3.29,0-4.95,0c0-0.19,0-0.39,0-0.58c0-0.29,0-0.58,0-0.88
			c1.07,0,2.14,0,3.21,0c0-0.19,0-0.38,0-0.58c0-0.38,0-0.77,0-1.16c-0.59,0-1.17,0-1.75,0c-0.49,0-0.97,0-1.46,0
			c0-0.13,0-0.26,0-0.39c0-0.01,0-0.03,0-0.07c0.59,0,1.17,0,1.75,0c0.29,0,0.58,0,0.87,0C32.76,40.72,33.54,40.72,34.31,40.72z"/>
		<path fill="#853447" d="M27.91,13.06c0,1.65,0,3.3,0,4.95c-0.58,0-1.17,0-1.75,0c0-1.65,0-3.3,0-4.95
			C26.74,13.06,27.33,13.06,27.91,13.06z"/>
		<path fill="#A24745" d="M27.91,18.01c0,0.2,0,0.39,0,0.58c0,0.29,0,0.58,0,0.88c-0.58,0-1.17,0-1.75,0c0-0.39,0-0.78,0-1.17
			c0-0.09,0-0.19,0-0.29C26.74,18.01,27.33,18.01,27.91,18.01z"/>
		<path fill="#853447" d="M26.16,18.3c0,0.39,0,0.78,0,1.17c-1.65,0-3.3,0-4.95,0c0-0.3,0-0.59,0-0.88c0-0.19,0-0.38,0-0.58
			c1.65,0,3.3,0,4.95,0C26.16,18.11,26.16,18.21,26.16,18.3z"/>
		<path fill="#A24745" d="M32.57,37.229c0,0.58,0,1.16,0,1.75c-2.62,0-5.24,0-7.86,0c0-1.069,0-2.14,0-3.21c0.19,0,0.38,0,0.58,0
			c0.29,0,0.58,0,0.87,0c0,0.101,0,0.2,0,0.29c0,0.391,0,0.78,0,1.17C28.3,37.229,30.43,37.229,32.57,37.229z"/>
		<path fill="#853447" d="M24.71,30.82c0,0.59,0,1.17,0,1.75c-0.59,0-1.17,0-1.75,0c0-0.58,0-1.16,0-1.75
			C23.54,30.82,24.12,30.82,24.71,30.82z"/>
		<path fill="#853447" d="M24.71,34.03c0,0.58,0,1.159,0,1.739c-0.59,0-1.17,0-1.75,0c0-0.58,0-1.159,0-1.739
			C23.54,34.03,24.12,34.03,24.71,34.03z"/>
		<path fill="#211F30" d="M23.83,13.91c0,1.06,0,2.13,0,3.2c-0.09,0-0.17,0-0.26,0c0-1.07,0-2.14,0-3.2
			C23.66,13.91,23.74,13.91,23.83,13.91z"/>
		<path fill="#211F30" d="M23.57,13.91c0,1.06,0,2.13,0,3.2c-0.11,0-0.22,0-0.32,0c-0.29,0-0.58,0-0.88,0c0-1.07,0-2.14,0-3.2
			c0.3,0,0.59,0,0.88,0C23.35,13.91,23.46,13.91,23.57,13.91z"/>
		<path fill="#853447" d="M26.16,11.61c0,0.19,0,0.38,0,0.58c0,0.29,0,0.58,0,0.87c-0.29,0-0.58,0-0.87,0c-0.2,0-0.39,0-0.58,0
			c-0.39,0-0.78,0-1.17,0c-0.78,0-1.55,0-2.33,0c0-0.29,0-0.58,0-0.87c0-0.2,0-0.39,0-0.58c0.68,0,1.36,0,2.04,0s1.36,0,2.04,0
			C25.58,11.61,25.87,11.61,26.16,11.61z"/>
		<path fill="#F7F9F9" d="M23.83,17.11c0-1.07,0-2.14,0-3.2c-0.09,0-0.17,0-0.26,0c-0.11,0-0.22,0-0.32,0c-0.29,0-0.58,0-0.88,0
			c-0.09,0-0.17,0-0.26,0v3.2c0.09,0,0.17,0,0.26,0c0.3,0,0.59,0,0.88,0c0.1,0,0.21,0,0.32,0C23.66,17.11,23.74,17.11,23.83,17.11z
			 M26.16,13.06c0,1.65,0,3.3,0,4.95c-1.65,0-3.3,0-4.95,0c0-1.65,0-3.3,0-4.95c0.78,0,1.55,0,2.33,0c0.39,0,0.78,0,1.17,0
			c0.19,0,0.38,0,0.58,0C25.58,13.06,25.87,13.06,26.16,13.06z"/>
		<path fill="#853447" d="M20.34,13.06c0.29,0,0.58,0,0.87,0c0,1.65,0,3.3,0,4.95c-0.1,0-0.19,0-0.29,0c-0.39,0-0.78,0-1.17,0
			c0-1.65,0-3.3,0-4.95C19.95,13.06,20.14,13.06,20.34,13.06z"/>
		<path fill="#A24745" d="M20.63,19.47c-0.29,0-0.58,0-0.88,0c0-0.2,0-0.39,0-0.59c0-0.29,0-0.58,0-0.87c0.39,0,0.78,0,1.17,0
			c0.1,0,0.19,0,0.29,0c0,0.2,0,0.39,0,0.58c0,0.29,0,0.58,0,0.88C21.02,19.47,20.82,19.47,20.63,19.47z"/>
		<path fill="#853447" d="M19.75,24.42c0,0.19,0,0.39,0,0.58c0,0.87,0,1.75,0,2.62c-0.58,0-1.16,0-1.74,0c0-1.07,0-2.13,0-3.2
			c0.39,0,0.77,0,1.16,0C19.37,24.42,19.56,24.42,19.75,24.42z"/>
		<path fill="#211F30" d="M18.01,44.38c0,0.58,0,1.17,0,1.75c-1.55,0-3.11,0-4.66,0c0-0.58,0-1.17,0-1.75
			C14.9,44.38,16.46,44.38,18.01,44.38z"/>
		<path fill="#A24745" d="M18.01,29.37c0,0.189,0,0.38,0,0.58c0,0.29,0,0.58,0,0.87c-0.2,0-0.39,0-0.58,0c-0.3,0-0.59,0-0.88,0
			c0-0.29,0-0.58,0-0.87c0-0.2,0-0.391,0-0.58c0.29,0,0.58,0,0.88,0C17.62,29.37,17.81,29.37,18.01,29.37z"/>
		<path fill="#853447" d="M18.01,18.59c0,0.29,0,0.58,0,0.88c-0.1,0-0.2,0-0.29,0c-0.39,0-0.78,0-1.17,0c0-0.2,0-0.39,0-0.59
			c0-0.29,0-0.58,0-0.87c0.29,0,0.58,0,0.88,0c0.19,0,0.38,0,0.58,0C18.01,18.21,18.01,18.4,18.01,18.59z"/>
		<path fill="#853447" d="M18.01,27.62c0,0.58,0,1.17,0,1.75c-0.2,0-0.39,0-0.58,0c-0.3,0-0.59,0-0.88,0c0-0.58,0-1.17,0-1.75
			c0.2,0,0.39,0,0.58,0C17.43,27.62,17.72,27.62,18.01,27.62z"/>
		<path fill="#BA6E54" d="M16.55,42.05c0,0.29,0,0.58,0,0.87c-1.07,0-2.13,0-3.2,0c0-0.58,0-1.16,0-1.74c0.48,0,0.97,0,1.45,0
			c0.59,0,1.17,0,1.75,0C16.55,41.47,16.55,41.76,16.55,42.05z"/>
		<path fill="#211F30" d="M16.55,4.91c0,0.58,0,1.16,0,1.74c-0.58,0-1.16,0-1.75,0c0-0.58,0-1.16,0-1.74
			C15.39,4.91,15.97,4.91,16.55,4.91z"/>
		<path fill="#A24745" d="M16.55,36.35c0,0.3,0,0.59,0,0.88c2.14,0,4.27,0,6.41,0c0,0.29,0,0.58,0,0.87s0,0.59,0,0.88
			c-2.72,0-5.44,0-8.16,0c0-1.069,0-2.14,0-3.21c0.59,0,1.17,0,1.75,0C16.55,35.97,16.55,36.16,16.55,36.35z"/>
		<path fill="#853447" d="M16.55,6.65c0,0.2,0,0.39,0,0.59c0,0.29,0,0.58,0,0.87c-0.58,0-1.16,0-1.75,0c0-0.19,0-0.39,0-0.58
			c0-0.29,0-0.58,0-0.88C15.39,6.65,15.97,6.65,16.55,6.65z"/>
		<path fill="#A24745" d="M18.01,40.72c0,1.561,0,2.11,0,3.66c-1.55,0-3.11,0-4.66,0c0-0.19,0-0.39,0-0.58c0-0.29,0-0.58,0-0.88
			c1.07,0,2.13,0,3.2,0c0-0.29,0-0.58,0-0.87s0-0.58,0-0.87c-0.58,0-1.16,0-1.75,0c-0.48,0-0.97,0-1.45,0c0-0.13,0-0.26,0-0.39
			c0-0.01,0-0.03,0-0.07c0.39,0,0.78,0,1.16,0c0.39,0,0.78,0,1.17,0C16.46,40.72,17.23,40.72,18.01,40.72z"/>
		<path fill="#853447" d="M14.8,34.03c0,0.58,0,1.159,0,1.739c-0.29,0-0.58,0-0.87,0c-0.19,0-0.39,0-0.58,0c0-0.58,0-1.159,0-1.739
			c0.1,0,0.19,0,0.29,0C14.03,34.03,14.42,34.03,14.8,34.03z"/>
		<path fill="#853447" d="M11.6,24.42c0.58,0,1.17,0,1.75,0c0,0.58,0,1.16,0,1.74c-0.58,0-1.17,0-1.75,0
			C11.6,25.58,11.6,25,11.6,24.42z"/>
		<path fill="#BA6E54" d="M24.71,32.57c0-0.58,0-1.16,0-1.75c-0.59,0-1.17,0-1.75,0c0,0.59,0,1.17,0,1.75
			C23.54,32.57,24.12,32.57,24.71,32.57z M27.91,19.47c0-0.3,0-0.59,0-0.88c0-0.19,0-0.38,0-0.58c0-1.65,0-3.3,0-4.95
			c-0.58,0-1.17,0-1.75,0c0-0.29,0-0.58,0-0.87c0-0.2,0-0.39,0-0.58c-0.29,0-0.58,0-0.87,0c-0.68,0-1.36,0-2.04,0s-1.36,0-2.04,0
			c0,0.19,0,0.38,0,0.58c0,0.29,0,0.58,0,0.87c-0.29,0-0.58,0-0.87,0c-0.2,0-0.39,0-0.59,0c0,1.65,0,3.3,0,4.95
			c0,0.29,0,0.58,0,0.87c0,0.2,0,0.39,0,0.59c0.3,0,0.59,0,0.88,0c0.19,0,0.39,0,0.58,0c1.65,0,3.3,0,4.95,0
			C26.74,19.47,27.33,19.47,27.91,19.47z M32.57,14.81c0-0.58,0-1.17,0-1.75c-0.2,0-0.39,0-0.59,0c-0.29,0-0.58,0-0.87,0
			c0,0.58,0,1.17,0,1.75c0.29,0,0.58,0,0.87,0C32.18,14.81,32.37,14.81,32.57,14.81z M34.31,32.57c0-0.19,0-0.391,0-0.58
			c0-0.88,0-1.75,0-2.62c-0.58,0-1.16,0-1.74,0c0,0.189,0,0.38,0,0.58c0,0.87,0,1.75,0,2.62C33.15,32.57,33.73,32.57,34.31,32.57z
			 M34.31,27.62c0-0.29,0-0.58,0-0.87c0-0.2,0-0.39,0-0.59c-0.58,0-1.16,0-1.74,0c0,0.29,0,0.59,0,0.88c0,0.189,0,0.39,0,0.58
			C33.15,27.62,33.73,27.62,34.31,27.62z M11.6,6.65c0-0.58,0-1.16,0-1.74c0.97,0,1.94,0,2.91,0c0.1,0,0.2,0,0.29,0
			c0,0.58,0,1.16,0,1.74c0,0.3,0,0.59,0,0.88c0,0.19,0,0.39,0,0.58c0.59,0,1.17,0,1.75,0c0-0.29,0-0.58,0-0.87c0-0.2,0-0.39,0-0.59
			c0-0.58,0-1.16,0-1.74c4.86,0,9.71,0,14.56,0c0,1.06,0,2.13,0,3.2c0,1.17,0,2.33,0,3.5c0.39,0,0.78,0,1.16,0c0.1,0,0.2,0,0.3,0
			c0-0.3,0-0.59,0-0.88c0-0.87,0-1.75,0-2.62c0-1.07,0-2.14,0-3.2c0.48,0,0.97,0,1.45,0c0.59,0,1.17,0,1.75,0c0,0.58,0,1.16,0,1.74
			c0.58,0,1.17,0,1.75,0c0,1.36,0,2.72,0,4.08c0,0.68,0,1.36,0,2.04c0,0.68,0,1.36,0,2.04c-0.58,0-1.17,0-1.75,0
			c0,0.19,0,0.39,0,0.58c0,0.29,0,0.58,0,0.87c0.58,0,1.17,0,1.75,0c1.65,0,3.3,0,4.95,0c0-0.29,0-0.58,0-0.87c0-0.19,0-0.39,0-0.58
			c1.06,0,2.13,0,3.2,0c0.29,0,0.579,0,0.869,0c0.2,0,0.391,0,0.591,0c0,0.1,0,0.19,0,0.29c-0.011,0.39,0,0.78,0,1.16
			c-0.29,0-0.591,0-0.881,0c-0.189,0-0.39,0-0.579,0c0,0.59,0,1.17,0,1.75c-0.58,0-1.16,0-1.75,0c-0.391,0-0.771,0-1.16,0
			c-0.101,0-0.2,0-0.29,0c0,0.29,0,0.58,0,0.87c0,0.2,0,0.39,0,0.59c-1.65,0-3.3,0-4.95,0c-0.58,0-1.17,0-1.75,0
			c0-0.3,0-0.59,0-0.88c0-0.19,0-0.38,0-0.58c-0.39,0-0.78,0-1.16,0c-0.1,0-0.2,0-0.3,0c0,0.29,0,0.58,0,0.87c0,0.2,0,0.39,0,0.59
			c0,0.58,0,1.16,0,1.74c0.3,0,0.59,0,0.88,0c0.19,0,0.39,0,0.58,0c0,0.3,0,0.59,0,0.88c0,0.19,0,0.39,0,0.58c0.58,0,1.17,0,1.75,0
			c0,0.68,0,1.36,0,2.04c0,0.29,0,0.58,0,0.87s0,0.58,0,0.87c0,1.17,0,2.34,0,3.5c0,0.68,0,1.359,0,2.04c0,0.29,0,0.58,0,0.87
			c0,0.289,0,0.579,0,0.869c0,1.17,0,2.33,0,3.5c-0.58,0-1.17,0-1.75,0c0-1.069,0-2.14,0-3.199c-0.29,0-0.58,0-0.87,0
			c-0.2,0-0.39,0-0.59,0c-0.58,0-1.16,0-1.74,0c0,1.06,0,2.13,0,3.199c-2.14,0-4.27,0-6.41,0c0-0.39,0-0.779,0-1.17
			c0-0.09,0-0.189,0-0.29c-0.29,0-0.58,0-0.87,0c-0.2,0-0.39,0-0.58,0c0-0.58,0-1.159,0-1.739c-0.59,0-1.17,0-1.75,0
			c0,0.58,0,1.159,0,1.739c0,0.29,0,0.58,0,0.88c0,0.19,0,0.381,0,0.58c-2.14,0-4.27,0-6.41,0c0-0.29,0-0.58,0-0.88
			c0-0.189,0-0.38,0-0.58c-0.58,0-1.16,0-1.75,0c0-0.58,0-1.159,0-1.739c-0.38,0-0.77,0-1.16,0c-0.1,0-0.19,0-0.29,0
			c0,0.58,0,1.159,0,1.739c0,0.29,0,0.58,0,0.88c0,0.19,0,0.381,0,0.58c-0.58,0-1.17,0-1.75,0c-0.48,0-0.97,0-1.45,0
			c0-1.55,0-3.109,0-4.659c0.58,0,1.16,0,1.74,0c0.29,0,0.58,0,0.88,0c0.19,0,0.39,0,0.58,0c0.29,0,0.58,0,0.87,0
			c0.2,0,0.39,0,0.58,0c0.3,0,0.59,0,0.88,0s0.58,0,0.87,0c0-0.29,0-0.58,0-0.87s0-0.59,0-0.88c0.29,0,0.58,0,0.88,0
			c0.19,0,0.38,0,0.58,0c0-0.29,0-0.58,0-0.87c0-0.2,0-0.391,0-0.58c0-0.58,0-1.17,0-1.75c0.58,0,1.16,0,1.74,0
			c0-0.87,0-1.75,0-2.62c0-0.19,0-0.39,0-0.58c-0.19,0-0.38,0-0.58,0c-0.39,0-0.77,0-1.16,0c0,1.07,0,2.13,0,3.2
			c-0.29,0-0.58,0-0.88,0c-0.19,0-0.38,0-0.58,0c-0.58,0-1.16,0-1.75,0c-0.48,0-0.97,0-1.45,0c0-0.29,0-0.58,0-0.87
			c0-0.2,0-0.39,0-0.59c0-0.58,0-1.16,0-1.74c-0.58,0-1.17,0-1.75,0c0-0.78,0-1.56,0-2.33c0-0.39,0-0.78,0-1.17s0-0.771,0-1.16
			c0-0.1,0-0.2,0-0.29c-0.29,0-0.58,0-0.87,0c-0.2,0-0.39,0-0.58,0c0-0.3,0-0.59,0-0.88c0-0.19,0-0.38,0-0.58c1.06,0,2.13,0,3.2,0
			c1.07,0,2.13,0,3.2,0c0,0.29,0,0.58,0,0.87c0,0.2,0,0.39,0,0.59c0.39,0,0.78,0,1.17,0c0.09,0,0.19,0,0.29,0c0-0.3,0-0.59,0-0.88
			c0-0.19,0-0.38,0-0.58c-0.2,0-0.39,0-0.58,0c-0.3,0-0.59,0-0.88,0c0-0.29,0-0.58,0-0.87c0-0.29,0-0.58,0-0.88
			c-0.58,0-1.16,0-1.75,0c0-0.29,0-0.58,0-0.87c0-0.19,0-0.39,0-0.58c0-0.58,0-1.17,0-1.75c-0.29,0-0.58,0-0.87,0
			c-0.19,0-0.39,0-0.58,0c0-0.29,0-0.58,0-0.87c0-0.2,0-0.39,0-0.58c-0.58,0-1.17,0-1.75,0c-0.48,0-0.97,0-1.45,0
			c0-0.88,0-1.75,0-2.63c0-0.77,0-1.55,0-2.33c0.29,0,0.58,0,0.87,0C11.21,6.65,11.41,6.65,11.6,6.65z"/>
		<path fill="#A24745" d="M11.6,27.62c0-0.29,0-0.58,0-0.87c0-0.2,0-0.39,0-0.59c0.58,0,1.17,0,1.75,0c0,0.2,0,0.39,0,0.59
			c0,0.29,0,0.58,0,0.87c0.48,0,0.97,0,1.45,0c0.59,0,1.17,0,1.75,0c0,0.58,0,1.17,0,1.75c-0.58,0-1.16,0-1.75,0
			c-0.48,0-0.97,0-1.45,0c-0.58,0-1.17,0-1.75,0c-0.48,0-0.97,0-1.45,0c0-0.58,0-1.17,0-1.75c0.29,0,0.58,0,0.87,0
			C11.21,27.62,11.41,27.62,11.6,27.62z"/>
		<path fill="#A24745" d="M11.6,37.229c0.58,0,1.17,0,1.75,0c0,0.58,0,1.16,0,1.75c-1.07,0-2.14,0-3.2,0c0-0.59,0-1.17,0-1.75
			C10.63,37.229,11.12,37.229,11.6,37.229z"/>
		<path fill="#211F30" d="M11.13,13.81c0,0.77,0,1.53,0,2.3c-0.19,0-0.39,0-0.58,0c-0.14,0-0.29,0-0.44,0c0-0.77,0-1.53,0-2.3
			c0.15,0,0.3,0,0.44,0C10.74,13.81,10.94,13.81,11.13,13.81z"/>
		<path fill="#211F30" d="M11.6,44.38c0-1.55,0-2.1,0-3.66c-0.19,0-0.39,0-0.58,0c-0.29,0-0.58,0-0.87,0c0-0.29,0-0.58,0-0.87
			s0-0.58,0-0.87c1.06,0,2.13,0,3.2,0c0-0.59,0-1.17,0-1.75c0-0.199,0-0.39,0-0.58c0-0.3,0-0.59,0-0.88c0.19,0,0.39,0,0.58,0
			c0.29,0,0.58,0,0.87,0c0,1.07,0,2.141,0,3.21c2.72,0,5.44,0,8.16,0c0-0.29,0-0.59,0-0.88s0-0.58,0-0.87c0-0.199,0-0.39,0-0.58
			c0-0.3,0-0.59,0-0.88c0.58,0,1.16,0,1.75,0c0,1.07,0,2.141,0,3.21c2.62,0,5.24,0,7.86,0c0-0.59,0-1.17,0-1.75
			c0-1.069,0-2.14,0-3.199c0.58,0,1.16,0,1.74,0c0,1.649,0,3.3,0,4.949c1.07,0,2.14,0,3.21,0c0,0.58,0,1.16,0,1.74
			c-0.58,0-1.17,0-1.75,0c0,1.561,0,2.11,0,3.66c-0.19,0-0.39,0-0.58,0c-0.29,0-0.58,0-0.88,0c0-1.55,0-2.1,0-3.66
			c-0.771,0-1.55,0-2.33,0c-0.29,0-0.58,0-0.87,0c-0.58,0-1.16,0-1.75,0c0,0.04,0,0.061,0,0.07c0,0.13,0,0.26,0,0.39
			c0,0.58,0,1.16,0,1.74c0,0.3,0,0.59,0,0.88c0,0.19,0,0.39,0,0.58c-0.189,0-0.38,0-0.58,0c-0.29,0-0.58,0-0.87,0
			c0-1.55,0-2.1,0-3.66c-0.29,0-0.58,0-0.88,0c-2.13,0-4.27,0-6.4,0c-0.29,0-0.58,0-0.88,0c0,1.561,0,2.11,0,3.66
			c-0.58,0-1.16,0-1.74,0c0-1.55,0-2.1,0-3.66c-0.78,0-1.55,0-2.33,0c-0.39,0-0.78,0-1.17,0c-0.38,0-0.77,0-1.16,0
			c0,0.04,0,0.061,0,0.07c0,0.13,0,0.26,0,0.39c0,0.58,0,1.16,0,1.74c0,0.3,0,0.59,0,0.88c0,0.19,0,0.39,0,0.58
			c-0.29,0-0.58,0-0.88,0C12.18,44.38,11.89,44.38,11.6,44.38z"/>
		<path fill="#211F30" d="M10.15,3.45c1.55,0,3.1,0,4.65,0c0,0.2,0,0.39,0,0.58c0,0.3,0,0.59,0,0.88c-0.09,0-0.19,0-0.29,0
			c-0.97,0-1.94,0-2.91,0c-0.29,0-0.58,0-0.87,0c-0.2,0-0.39,0-0.58,0c0-0.2,0-0.39,0-0.58C10.15,4.03,10.15,3.74,10.15,3.45z"/>
		<path fill="#A24745" d="M11.6,4.91c0,0.58,0,1.16,0,1.74c-0.19,0-0.39,0-0.58,0c-0.29,0-0.58,0-0.87,0c0-0.58,0-1.16,0-1.74
			c0.19,0,0.38,0,0.58,0C11.02,4.91,11.31,4.91,11.6,4.91z"/>
		<path fill="#853447" d="M11.6,20.92c0,0.39,0,0.78,0,1.17c0,0.771,0,1.55,0,2.33c-0.19,0-0.39,0-0.58,0c-0.29,0-0.58,0-0.87,0
			c0-1.65,0-3.3,0-4.95c0.19,0,0.38,0,0.58,0c0.29,0,0.58,0,0.87,0c0,0.09,0,0.19,0,0.29C11.6,20.149,11.6,20.53,11.6,20.92z"/>
		<path fill="#211F30" d="M11.6,26.75c0,0.29,0,0.58,0,0.87c-0.19,0-0.39,0-0.58,0c-0.29,0-0.58,0-0.87,0c0-0.19,0-0.391,0-0.58
			c0-0.29,0-0.59,0-0.88c0.19,0,0.38,0,0.58,0c0.29,0,0.58,0,0.87,0C11.6,26.36,11.6,26.55,11.6,26.75z"/>
		<path fill="#211F30" d="M10.15,4.91c0,0.58,0,1.16,0,1.74c-0.59,0-1.17,0-1.75,0c0-0.58,0-1.16,0-1.74
			C8.98,4.91,9.56,4.91,10.15,4.91z"/>
		<path fill="#A24745" d="M10.15,6.65c0,0.78,0,1.56,0,2.33c0,0.88,0,1.75,0,2.63c-0.59,0-1.17,0-1.75,0c0-1.65,0-3.31,0-4.96
			C8.98,6.65,9.56,6.65,10.15,6.65z"/>
		<path fill="#853447" d="M11.6,11.61c0.58,0,1.17,0,1.75,0c0,0.19,0,0.38,0,0.58c0,0.29,0,0.58,0,0.87c-0.88,0-1.75,0-2.62,0
			c-0.78,0-1.55,0-2.33,0c0-0.19,0-0.39,0-0.58c0-0.29,0-0.58,0-0.87c0.58,0,1.16,0,1.75,0C10.63,11.61,11.12,11.61,11.6,11.61z"/>
		<path fill="#A24745" d="M11.89,32.57c-0.58,0-1.16,0-1.74,0c0,1.55,0,3.109,0,4.659c-0.59,0-1.17,0-1.75,0c0-0.489,0-0.97,0-1.46
			c0-0.58,0-1.159,0-1.739c0-0.49,0-0.971,0-1.46c0-0.58,0-1.16,0-1.75c2.72,0,5.43,0,8.15,0c0,0.29,0,0.59,0,0.88s0,0.58,0,0.87
			c-0.29,0-0.58,0-0.87,0s-0.58,0-0.88,0c-0.19,0-0.38,0-0.58,0c-0.29,0-0.58,0-0.87,0c-0.19,0-0.39,0-0.58,0
			C12.47,32.57,12.18,32.57,11.89,32.57z"/>
		<path fill="#211F30" d="M10.15,37.229c0,0.58,0,1.16,0,1.75c-0.59,0-1.17,0-1.75,0c0-0.59,0-1.17,0-1.75
			C8.98,37.229,9.56,37.229,10.15,37.229z"/>
		<path fill="#211F30" d="M10.11,13.81c0,0.77,0,1.53,0,2.3c-0.15,0-0.3,0-0.44,0c0-0.77,0-1.53,0-2.3
			C9.81,13.81,9.96,13.81,10.11,13.81z"/>
		<path fill="#F7F9F9" d="M11.57,16.11v-2.3c-0.15,0-0.29,0-0.44,0c-0.19,0-0.39,0-0.58,0c-0.14,0-0.29,0-0.44,0s-0.3,0-0.44,0
			c0,0.77,0,1.53,0,2.3c0.14,0,0.29,0,0.44,0s0.3,0,0.44,0c0.19,0,0.39,0,0.58,0C11.28,16.11,11.42,16.11,11.57,16.11z M10.73,13.06
			c0.87,0,1.74,0,2.62,0c0,0.29,0,0.58,0,0.87c0,0.2,0,0.39,0,0.59c0,0.39,0,0.77,0,1.16c0,0.2,0,0.39,0,0.58c-1.65,0-3.3,0-4.95,0
			c0-0.48,0-0.97,0-1.45c0-0.29,0-0.58,0-0.88c0-0.29,0-0.58,0-0.87C9.18,13.06,9.95,13.06,10.73,13.06z"/>
		<path fill="#853447" d="M6.65,18.01c0-0.58,0-1.16,0-1.75c0.58,0,1.17,0,1.75,0c1.65,0,3.3,0,4.95,0c0-0.19,0-0.38,0-0.58
			c0-0.39,0-0.77,0-1.16c0-0.2,0-0.39,0-0.59c0-0.29,0-0.58,0-0.87c0.19,0,0.39,0,0.58,0c0.29,0,0.58,0,0.87,0c0,0.58,0,1.17,0,1.75
			c0,0.19,0,0.39,0,0.58c0,0.29,0,0.58,0,0.87c0.59,0,1.17,0,1.75,0c0,0.3,0,0.59,0,0.88c0,0.29,0,0.58,0,0.87c-1.07,0-2.13,0-3.2,0
			c-1.07,0-2.14,0-3.2,0c0,0.2,0,0.39,0,0.58c0,0.29,0,0.58,0,0.88c-0.59,0-1.17,0-1.75,0c0-0.2,0-0.39,0-0.59c0-0.29,0-0.58,0-0.87
			C7.82,18.01,7.23,18.01,6.65,18.01z"/>
		<path fill="#211F30" d="M8.4,13.93c0,0.3,0,0.59,0,0.88c0,0.48,0,0.97,0,1.45c-0.58,0-1.17,0-1.75,0c0-1.55,0-3.1,0-4.65
			c0-0.78,0-1.56,0-2.33c0-0.88,0-1.75,0-2.63c0.58,0,1.17,0,1.75,0c0,1.65,0,3.31,0,4.96c0,0.29,0,0.58,0,0.87
			c0,0.19,0,0.39,0,0.58C8.4,13.35,8.4,13.64,8.4,13.93z"/>
		<path fill="#211F30" d="M6.65,21.21c0.58,0,1.17,0,1.75,0c0,0.78,0,1.56,0,2.33c0,0.88,0,1.75,0,2.62c-0.58,0-1.17,0-1.75,0
			C6.65,24.51,6.65,22.86,6.65,21.21z"/>
		<path fill="#211F30" d="M5.78,19.47c0.29,0,0.58,0,0.87,0c0,0.58,0,1.16,0,1.74c-0.29,0-0.58,0-0.87,0c-0.2,0-0.39,0-0.58,0
			c0-0.58,0-1.16,0-1.74C5.39,19.47,5.58,19.47,5.78,19.47z"/>
		<path fill="#853447" d="M6.65,21.21c0,1.65,0,3.3,0,4.95c-0.29,0-0.58,0-0.87,0c-0.2,0-0.39,0-0.58,0c-0.59,0-1.17,0-1.75,0
			c0-1.65,0-3.3,0-4.95c0.58,0,1.16,0,1.75,0c0.19,0,0.38,0,0.58,0C6.07,21.21,6.36,21.21,6.65,21.21z"/>
		<path fill="#211F30" d="M6.65,32.57c0-0.58,0-1.16,0-1.75c-0.19,0-0.39,0-0.58,0c-0.87,0-1.75,0-2.62,0c0-0.19,0-0.391,0-0.58
			c0-0.29,0-0.58,0-0.87c0.77,0,1.55,0,2.33,0c0.87,0,1.75,0,2.62,0c0-0.58,0-1.17,0-1.75c0.29,0,0.58,0,0.87,0s0.59,0,0.88,0
			c0,0.58,0,1.17,0,1.75c0.48,0,0.97,0,1.45,0c0.58,0,1.17,0,1.75,0c0.48,0,0.97,0,1.45,0c0.59,0,1.17,0,1.75,0
			c0,0.189,0,0.38,0,0.58c0,0.29,0,0.58,0,0.87c-2.72,0-5.43,0-8.15,0c0,0.59,0,1.17,0,1.75c0,0.489,0,0.97,0,1.46
			c0,0.58,0,1.159,0,1.739c0,0.49,0,0.971,0,1.46c-0.29,0-0.58,0-0.87,0c-0.3,0-0.59,0-0.88,0c0-0.1,0-0.199,0-0.29
			c0-0.97,0-1.939,0-2.909C6.65,33.54,6.65,33.06,6.65,32.57z"/>
		<path fill="#211F30" d="M6.65,26.75c0,0.29,0,0.58,0,0.87c-0.19,0-0.39,0-0.58,0c-0.29,0-0.58,0-0.87,0c0-0.19,0-0.391,0-0.58
			c0-0.29,0-0.59,0-0.88c0.19,0,0.38,0,0.58,0c0.29,0,0.58,0,0.87,0C6.65,26.36,6.65,26.55,6.65,26.75z"/>
		<path fill="#211F30" d="M5.78,16.26c0.29,0,0.58,0,0.87,0c0,0.59,0,1.17,0,1.75c-0.58,0-1.16,0-1.75,0c-0.48,0-0.97,0-1.45,0
			c0-0.58,0-1.16,0-1.75c0.29,0,0.58,0,0.87,0C4.81,16.26,5.29,16.26,5.78,16.26z"/>
		<path fill="#BA6E54" d="M4.9,18.01c0.59,0,1.17,0,1.75,0s1.17,0,1.75,0c0,0.29,0,0.58,0,0.87c0,0.2,0,0.39,0,0.59
			c0.58,0,1.16,0,1.75,0c0,1.65,0,3.3,0,4.95c0.29,0,0.58,0,0.87,0c0.19,0,0.39,0,0.58,0c0,0.58,0,1.16,0,1.74
			c-0.29,0-0.58,0-0.87,0c-0.2,0-0.39,0-0.58,0c0,0.29,0,0.59,0,0.88c0,0.189,0,0.39,0,0.58c-0.29,0-0.59,0-0.88,0s-0.58,0-0.87,0
			c0,0.58,0,1.17,0,1.75c-0.87,0-1.75,0-2.62,0c-0.78,0-1.56,0-2.33,0c0-0.58,0-1.17,0-1.75c-0.29,0-0.58,0-0.87,0
			c-0.2,0-0.39,0-0.59,0c0-1.36,0-2.721,0-4.08c0-1.36,0-2.71,0-4.07c0.29,0,0.59,0,0.88,0c0.19,0,0.38,0,0.58,0
			c0-0.3,0-0.59,0-0.88c0-0.19,0-0.38,0-0.58C3.93,18.01,4.42,18.01,4.9,18.01z M6.07,27.62c0.19,0,0.39,0,0.58,0
			c0-0.29,0-0.58,0-0.87c0-0.2,0-0.39,0-0.59c0.58,0,1.17,0,1.75,0c0-0.87,0-1.74,0-2.62c0-0.771,0-1.55,0-2.33
			c-0.58,0-1.17,0-1.75,0c0-0.58,0-1.16,0-1.74c-0.29,0-0.58,0-0.87,0c-0.2,0-0.39,0-0.58,0c0,0.58,0,1.16,0,1.74
			c-0.59,0-1.17,0-1.75,0c0,1.65,0,3.3,0,4.95c0.58,0,1.16,0,1.75,0c0,0.29,0,0.59,0,0.88c0,0.189,0,0.39,0,0.58
			C5.49,27.62,5.78,27.62,6.07,27.62z"/>
		<path fill="#211F30" d="M3.45,27.62c0,0.58,0,1.17,0,1.75c-0.2,0-0.39,0-0.58,0c-0.29,0-0.59,0-0.88,0c0-0.58,0-1.17,0-1.75
			c0.2,0,0.39,0,0.59,0C2.87,27.62,3.16,27.62,3.45,27.62z"/>
		<path fill="#211F30" d="M3.45,18.01c0,0.2,0,0.39,0,0.58c0,0.29,0,0.58,0,0.88c-0.2,0-0.39,0-0.58,0c-0.29,0-0.59,0-0.88,0
			c0-0.2,0-0.39,0-0.59c0-0.29,0-0.58,0-0.87c0.2,0,0.39,0,0.59,0C2.87,18.01,3.16,18.01,3.45,18.01z"/>
		<path fill="#211F30" d="M1.99,23.54c0,1.359,0,2.72,0,4.08c-0.29,0-0.58,0-0.87,0s-0.58,0-0.87,0c0-0.101,0-0.19,0-0.29
			c0-0.58,0-1.17,0-1.75c0-0.681,0-1.36,0-2.04s0-1.36,0-2.03c0-0.68,0-1.36,0-2.04c0.58,0,1.16,0,1.74,0
			C1.99,20.83,1.99,22.18,1.99,23.54z"/>
	</g>
	<g>
	</g>
</g>
</svg>
