<?xml version="1.0" encoding="utf-8"?>
<!-- Generator: Adobe Illustrator 15.0.0, SVG Export Plug-In  -->
<!DOCTYPE svg PUBLIC "-//W3C//DTD SVG 1.1//EN" "http://www.w3.org/Graphics/SVG/1.1/DTD/svg11.dtd" [
	<!ENTITY ns_flows "http://ns.adobe.com/Flows/1.0/">
]>
<svg version="1.1"
	 xmlns="http://www.w3.org/2000/svg" xmlns:xlink="http://www.w3.org/1999/xlink" xmlns:a="http://ns.adobe.com/AdobeSVGViewerExtensions/3.0/"
	 x="0px" y="0px" width="70px" height="55px" viewBox="-9.762 -9.575 70 55" enable-background="new -9.762 -9.575 70 55"
	 xml:space="preserve">
<defs>
</defs>
<path fill="#211F30" d="M48.629,0c-0.582,0-1.164,0-1.746,0c-0.584,0-1.166,0-1.748,0c0,0.583,0,1.164,0,1.747
	c1.164,0,2.33,0,3.494,0C48.629,1.164,48.629,0.583,48.629,0z"/>
<path fill="#211F30" d="M45.135,3.202c0-0.291,0-0.582,0-0.872c0-0.196,0-0.389,0-0.583c-0.291,0-0.582,0-0.873,0
	c-0.195,0-0.389,0-0.584,0c0,0.292,0,0.583,0,0.874c0,0.194,0,0.389,0,0.582c0.293,0,0.584,0,0.875,0
	C44.746,3.202,44.941,3.202,45.135,3.202z"/>
<path fill="#619E43" d="M48.629,8.153c0.195,0,0.389,0,0.584,0c0.289,0,0.58,0,0.873,0c0-1.649,0-3.3,0-4.951
	c-0.195,0-0.389,0-0.584,0c-0.289,0-0.582,0-0.873,0c0-0.291,0-0.582,0-0.872c0-0.196,0-0.389,0-0.583c-1.164,0-2.33,0-3.494,0
	c0,0.194,0,0.387,0,0.583c0,0.291,0,0.582,0,0.872c-0.193,0-0.389,0-0.582,0c-0.291,0-0.582,0-0.875,0c0,0.777,0,1.555,0,2.33
	c0,0.874,0,1.747,0,2.621c0.195,0,0.389,0,0.584,0c0.291,0,0.582,0,0.873,0c0,0.581,0,1.166,0,1.747c1.164,0,2.33,0,3.494,0
	C48.629,9.319,48.629,8.734,48.629,8.153z"/>
<path fill="#211F30" d="M48.629,3.202c0.291,0,0.584,0,0.873,0c0.195,0,0.389,0,0.584,0c0-0.291,0-0.582,0-0.872
	c0-0.196,0-0.389,0-0.583c-0.293,0-0.584,0-0.873,0c-0.195,0-0.389,0-0.584,0c0,0.194,0,0.387,0,0.583
	C48.629,2.621,48.629,2.912,48.629,3.202z"/>
<path fill="#211F30" d="M43.678,3.202c-0.58,0-1.164,0-1.746,0c0,1.651,0,3.302,0,4.951c0.582,0,1.166,0,1.746,0
	c0-0.874,0-1.748,0-2.621C43.678,4.757,43.678,3.979,43.678,3.202z"/>
<path fill="#211F30" d="M52.414,8.153c0.873,0,1.748,0,2.621,0c0-0.582,0-1.166,0-1.748c-0.873,0-1.748,0-2.621,0
	c-0.193,0-0.389,0-0.582,0c0-0.291,0-0.581,0-0.874c0-0.775,0-1.553,0-2.33c-0.291,0-0.582,0-0.875,0c-0.289,0-0.58,0-0.871,0
	c0,1.651,0,3.302,0,4.951C50.861,8.153,51.639,8.153,52.414,8.153z"/>
<path fill="#211F30" d="M14.27,8.153c0.098,0,0.193,0,0.291,0c0-0.582,0-1.166,0-1.748c-1.553,0-3.107,0-4.66,0
	c-0.096,0-0.191,0-0.289,0c0,0.582,0,1.166,0,1.748c0.582,0,1.164,0,1.746,0C12.328,8.153,13.299,8.153,14.27,8.153z"/>
<path fill="#211F30" d="M30.576,6.406c-4.854,0-9.707,0-14.561,0c0,0.291,0,0.582,0,0.874c0,0.292,0,0.583,0,0.874
	c4.854,0,9.707,0,14.561,0C30.576,7.572,30.576,6.987,30.576,6.406z"/>
<path fill="#211F30" d="M33.779,8.153c0.582,0,1.164,0,1.748,0c0.58,0,1.164,0,1.746,0c0-0.582,0-1.166,0-1.748
	c-1.555,0-3.107,0-4.66,0c-0.096,0-0.193,0-0.291,0c0,0.582,0,1.166,0,1.748c0.195,0,0.389,0,0.584,0
	C33.197,8.153,33.486,8.153,33.779,8.153z"/>
<path fill="#211F30" d="M9.611,9.9c0-0.582,0-1.166,0-1.747c-0.291,0-0.584,0-0.875,0c-0.193,0-0.389,0-0.58,0
	c0,0.581,0,1.166,0,1.747c0.289,0,0.58,0,0.871,0C9.223,9.9,9.416,9.9,9.611,9.9z"/>
<path fill="#A24745" d="M11.357,9.9c0-0.582,0-1.166,0-1.747c-0.582,0-1.164,0-1.746,0c0,0.581,0,1.166,0,1.747
	C10.193,9.9,10.775,9.9,11.357,9.9z"/>
<path fill="#BA6E54" d="M41.059,20.964c0.291,0,0.582,0,0.873,0c0-0.193,0-0.388,0-0.582c0-0.291,0-0.582,0-0.874
	c0.582,0,1.166,0,1.746,0c0.195,0,0.389,0,0.584,0c0.291,0,0.582,0,0.873,0c0-0.581,0-1.164,0-1.747c0.582,0,1.164,0,1.748,0
	c0-0.387,0-0.775,0-1.163c0-0.098,0-0.196,0-0.292c-0.584,0-1.166,0-1.748,0c-1.068,0-2.137,0-3.203,0c0,0.194,0,0.387,0,0.583
	c0,0.291,0,0.582,0,0.872c-1.066,0-2.135,0-3.203,0c0,0.583,0,1.166,0,1.747c-0.096,0-0.193,0-0.291,0c-0.389,0-0.777,0-1.164,0
	c-0.582,0-1.166,0-1.746,0c0-0.581,0-1.164,0-1.747c0.58,0,1.164,0,1.746,0c0-1.261,0-2.523,0-3.785c0-0.679,0-1.358,0-2.038
	c0-0.68,0-1.359,0-2.038c-0.582,0-1.166,0-1.746,0c0-0.582,0-1.166,0-1.747c-0.584,0-1.166,0-1.748,0c-0.293,0-0.582,0-0.873,0
	c-0.195,0-0.389,0-0.584,0c0,0.194,0,0.388,0,0.581c0,0.292,0,0.584,0,0.875c0,0.581,0,1.164,0,1.747c0,0.193,0,0.389,0,0.582
	c0,0.291,0,0.583,0,0.874c0,0.583,0,1.164,0,1.747c-0.389,0-0.775,0-1.164,0c-0.193,0-0.389,0-0.582,0c0-0.194,0-0.387,0-0.583
	c0-0.389,0-0.775,0-1.164c0-0.194,0-0.387,0-0.583c0-0.291,0-0.582,0-0.872c0-0.196,0-0.389,0-0.583c0-0.292,0-0.583,0-0.874
	c0-0.582,0-1.166,0-1.747c-4.854,0-9.707,0-14.561,0c0,0.581,0,1.166,0,1.747c0,0.194,0,0.389,0,0.581c0,0.292,0,0.583,0,0.875
	c-0.096,0-0.193,0-0.289,0c-0.389,0-0.777,0-1.166,0c0-0.196,0-0.389,0-0.583c0-0.292,0-0.583,0-0.874c0-0.582,0-1.166,0-1.747
	c-0.098,0-0.193,0-0.291,0c-0.971,0-1.941,0-2.912,0c0,0.581,0,1.166,0,1.747c-0.582,0-1.164,0-1.746,0c0,1.553,0,3.106,0,4.659
	c0.193,0,0.389,0,0.582,0c0.291,0,0.582,0,0.873,0c0.582,0,1.164,0,1.748,0c0,0.583,0,1.164,0,1.747c0.291,0,0.582,0,0.873,0
	s0.582,0,0.873,0c0,1.553,0,3.105,0,4.658c0.193,0,0.389,0,0.582,0c0.293,0,0.584,0,0.873,0c0,0.291,0,0.584,0,0.875
	c0,0.29,0,0.582,0,0.873c0.584,0,1.166,0,1.748,0c0,0.389,0,0.777,0,1.164c0,0.194,0,0.389,0,0.583c-0.582,0-1.164,0-1.748,0
	c0-0.583,0-1.164,0-1.747c-0.193,0-0.389,0-0.58,0c-0.293,0-0.584,0-0.875,0c-0.582,0-1.164,0-1.746,0c-0.195,0-0.389,0-0.584,0
	c-0.289,0-0.582,0-0.873,0c-0.582,0-1.164,0-1.746,0c0,0.583,0,1.164,0,1.747c0.582,0,1.164,0,1.746,0c0,1.553,0,3.106,0,4.659
	c0.195,0,0.389,0,0.584,0c0.289,0,0.58,0,0.873,0c0,0.582,0,1.164,0,1.746c0,0.195,0,0.389,0,0.584c-0.002,0.291,0,0.581,0,0.873
	c0.193,0,0.387,0,0.582,0c0.291,0,0.582,0,0.873,0c0.582,0,1.166,0,1.746,0c0.584,0,1.166,0,1.748,0c0-0.486,0-0.971,0-1.457
	c0-0.582,0-1.164,0-1.746c0.389,0,0.777,0,1.164,0c0.195,0,0.389,0,0.584,0c0,0.193,0,0.389,0,0.582c0,0.874,0,1.748,0,2.621
	c-0.584,0-1.166,0-1.748,0c0,0.582,0,1.164,0,1.746c0,0.194,0,0.389,0,0.582c0,0.291,0,0.584,0,0.875c-0.582,0-1.164,0-1.748,0
	c0,0.582,0,1.164,0,1.746c-0.193,0-0.389,0-0.58,0c-0.293,0-0.584,0-0.875,0c0,0.584,0,1.164,0,1.748c0.193,0,0.389,0,0.582,0
	c0.293,0,0.584,0,0.873,0c0,0.096,0,0.193,0,0.291c0,0.388,0,0.776,0,1.165c2.232,0,4.465,0,6.699,0c0-0.194,0-0.389,0-0.583
	c0-0.291,0-0.582,0-0.873c0-0.584,0-1.164,0-1.748c0.096,0,0.193,0,0.291,0c0.389,0,0.775,0,1.164,0c0,0.584,0,1.164,0,1.748
	c0.582,0,1.164,0,1.746,0c0,0.193,0,0.389,0,0.582c0,0.291,0,0.582,0,0.874c2.137,0,4.271,0,6.406,0c0-0.194,0-0.389,0-0.583
	c0-0.291,0-0.582,0-0.873c0-0.584,0-1.164,0-1.748c0.584,0,1.164,0,1.748,0c0.193,0,0.389,0,0.582,0c0.291,0,0.582,0,0.875,0
	c0,0.291,0,0.584,0,0.874s0,0.583,0,0.874c0,0.193,0,0.389,0,0.582c0,0.291,0,0.582,0,0.874c0.58,0,1.164,0,1.746,0
	c0-2.233,0-4.466,0-6.698s0-4.465,0-6.696c0-0.389,0-0.777,0-1.165c-0.582,0-1.166,0-1.746,0c0-0.193,0-0.389,0-0.582
	c0-0.291,0-0.584,0-0.874c-0.195,0-0.389,0-0.584,0c-0.291,0-0.582,0-0.873,0c0-0.583,0-1.164,0-1.747s0-1.164,0-1.748
	c0.098,0,0.193,0,0.291,0c0.389,0,0.777,0,1.166,0c0,0.584,0,1.165,0,1.748c0.58,0,1.164,0,1.746,0c0.193,0,0.387,0,0.582,0
	c0.291,0,0.582,0,0.873,0c0.584,0,1.164,0,1.748,0c0-0.583,0-1.164,0-1.748C40.67,20.964,40.865,20.964,41.059,20.964z M24.17,34.65
	c0,0.291,0,0.584,0,0.875c-0.195,0-0.389,0-0.584,0c-0.289,0-0.58,0-0.871,0c0-0.195,0-0.389,0-0.584c0-0.291,0-0.581,0-0.873
	c0.193,0,0.387,0,0.582,0c0.289,0,0.582,0,0.873,0C24.17,34.262,24.17,34.457,24.17,34.65z M27.373,20.964c0,0.584,0,1.165,0,1.748
	c-0.193,0-0.389,0-0.582,0c-0.291,0-0.584,0-0.875,0c-0.775,0-1.553,0-2.33,0c-0.871,0-1.746,0-2.619,0c-0.193,0-0.389,0-0.582,0
	c-0.291,0-0.584,0-0.873,0c0-0.583,0-1.164,0-1.748c0-1.553,0-3.105,0-4.658c0.193,0,0.389,0,0.582,0c0.291,0,0.582,0,0.873,0
	c0-0.583,0-1.164,0-1.747c0.775,0,1.553,0,2.33,0c0.873,0,1.746,0,2.619,0c0,0.583,0,1.164,0,1.747c0.195,0,0.389,0,0.584,0
	c0.291,0,0.582,0,0.873,0C27.373,17.859,27.373,19.412,27.373,20.964z M30.576,17.761c0-0.193,0-0.387,0-0.582
	c0-0.291,0-0.581,0-0.874c0.582,0,1.164,0,1.746,0c0,0.194,0,0.387,0,0.583c0,0.291,0,0.582,0,0.872
	C31.74,17.761,31.158,17.761,30.576,17.761z M34.07,34.941c0,0.195,0,0.389,0,0.584c-0.584,0-1.164,0-1.748,0
	c0-0.875,0-1.748,0-2.621c0-0.195,0-0.389,0-0.582c0.584,0,1.164,0,1.748,0C34.07,33.196,34.07,34.068,34.07,34.941z M34.07,30.865
	c-0.584,0-1.164,0-1.748,0c0-0.582,0-1.164,0-1.746c0.584,0,1.164,0,1.748,0C34.07,29.701,34.07,30.283,34.07,30.865z"/>
<path fill="#211F30" d="M15.436,9.9c0.191,0,0.387,0,0.58,0c0-0.582,0-1.166,0-1.747c-0.193,0-0.389,0-0.58,0
	c-0.293,0-0.584,0-0.875,0c0,0.581,0,1.166,0,1.747C14.852,9.9,15.143,9.9,15.436,9.9z"/>
<path fill="#211F30" d="M30.576,10.774c0,0.194,0,0.387,0,0.583c0.582,0,1.164,0,1.746,0c0-0.583,0-1.166,0-1.747
	c0-0.291,0-0.583,0-0.875c0-0.193,0-0.387,0-0.581c-0.582,0-1.164,0-1.746,0c0,0.581,0,1.166,0,1.747
	C30.576,10.191,30.576,10.481,30.576,10.774z"/>
<path fill="#A24745" d="M35.527,9.9c0.58,0,1.164,0,1.746,0c0-0.582,0-1.166,0-1.747c-0.582,0-1.166,0-1.746,0
	C35.527,8.734,35.527,9.319,35.527,9.9z"/>
<path fill="#211F30" d="M38.146,9.9c0.193,0,0.389,0,0.582,0c0-0.582,0-1.166,0-1.747c-0.291,0-0.582,0-0.873,0
	c-0.195,0-0.389,0-0.582,0c0,0.581,0,1.166,0,1.747C37.564,9.9,37.855,9.9,38.146,9.9z"/>
<path fill="#211F30" d="M44.262,8.153c-0.195,0-0.389,0-0.584,0c0,0.581,0,1.166,0,1.747c0.293,0,0.584,0,0.875,0
	c0.193,0,0.389,0,0.582,0c0-0.582,0-1.166,0-1.747C44.844,8.153,44.553,8.153,44.262,8.153z"/>
<path fill="#211F30" d="M48.629,8.153c0,0.581,0,1.166,0,1.747c0.291,0,0.584,0,0.873,0c0.195,0,0.389,0,0.584,0
	c0-0.582,0-1.166,0-1.747c-0.293,0-0.584,0-0.873,0C49.018,8.153,48.824,8.153,48.629,8.153z"/>
<path fill="#619E43" d="M56.492,11.647c0-0.583,0-1.166,0-1.747c-0.195,0-0.389,0-0.584,0c-0.291,0-0.582,0-0.873,0
	c0-0.582,0-1.166,0-1.747c-0.873,0-1.748,0-2.621,0c-0.775,0-1.553,0-2.328,0c0,0.581,0,1.166,0,1.747c-0.195,0-0.389,0-0.584,0
	c-0.289,0-0.582,0-0.873,0c0,0.194,0,0.389,0,0.581c0,0.292,0,0.583,0,0.875c0,0.582,0,1.164,0,1.747c0.195,0,0.389,0,0.584,0
	c0.289,0,0.58,0,0.873,0c0,0.193,0,0.387,0,0.582c0,0.291,0,0.581,0,0.874c0.775,0,1.553,0,2.328,0c0.873,0,1.748,0,2.621,0
	c0-0.194,0-0.387,0-0.583c0-0.291,0-0.581,0-0.872c0.098,0,0.195,0,0.291,0c0.389,0,0.777,0,1.166,0c0-0.196,0-0.389,0-0.583
	C56.492,12.229,56.492,11.938,56.492,11.647z"/>
<path fill="#211F30" d="M55.908,9.9c0.195,0,0.389,0,0.584,0c0-0.582,0-1.166,0-1.747c-0.293,0-0.584,0-0.875,0
	c-0.193,0-0.387,0-0.582,0c0,0.581,0,1.166,0,1.747C55.326,9.9,55.617,9.9,55.908,9.9z"/>
<path fill="#211F30" d="M8.156,16.306c0-0.583,0-1.164,0-1.747c0-1.553,0-3.106,0-4.659c-0.584,0-1.166,0-1.748,0
	c0,0.291,0,0.581,0,0.874c0,0.194,0,0.387,0,0.583c0,0.291,0,0.582,0,0.872c0,0.196,0,0.389,0,0.583c0,0.485,0,0.971,0,1.455
	c0,0.389,0,0.777,0,1.166c0,0.291,0,0.582,0,0.874c0,0.194,0,0.387,0,0.583c0,0.291,0,0.582,0,0.872c0,0.196,0,0.389,0,0.583
	c0,0.874,0,1.747,0,2.62c0.582,0,1.164,0,1.748,0C8.156,19.412,8.156,17.859,8.156,16.306z"/>
<path fill="#A24745" d="M8.736,14.559c0.291,0,0.584,0,0.875,0c0-1.553,0-3.106,0-4.659c-0.195,0-0.389,0-0.584,0
	c-0.291,0-0.582,0-0.871,0c0,1.553,0,3.106,0,4.659C8.348,14.559,8.543,14.559,8.736,14.559z"/>
<path fill="#853447" d="M14.561,9.9c0,0.291,0,0.581,0,0.874c0,0.194,0,0.387,0,0.583c0.389,0,0.777,0,1.166,0
	c0.096,0,0.193,0,0.289,0c0-0.292,0-0.583,0-0.875c0-0.192,0-0.387,0-0.581c-0.193,0-0.389,0-0.58,0
	C15.143,9.9,14.852,9.9,14.561,9.9z"/>
<path fill="#A24745" d="M37.273,9.9c0,0.679,0,1.358,0,2.038c0,0.679,0,1.358,0,2.038c0,1.262,0,2.524,0,3.785
	c0.291,0,0.582,0,0.873,0c0.193,0,0.389,0,0.582,0c0-0.582,0-1.163,0-1.747c0-0.679,0-1.359,0-2.038s0-1.358,0-2.038
	c0-0.68,0-1.359,0-2.038c-0.193,0-0.389,0-0.582,0C37.855,9.9,37.564,9.9,37.273,9.9z"/>
<path fill="#211F30" d="M38.729,13.976c0,0.679,0,1.359,0,2.038c0,0.584,0,1.166,0,1.747c1.068,0,2.137,0,3.203,0
	c0-0.291,0-0.582,0-0.872c0-0.196,0-0.389,0-0.583c-0.291,0-0.582,0-0.873,0c-0.193,0-0.389,0-0.582,0c0-0.583,0-1.164,0-1.747
	c0-0.485,0-0.972,0-1.455c0-0.292,0-0.583,0-0.875c0-0.193,0-0.389,0-0.582c0-0.291,0-0.583,0-0.874c0-0.292,0-0.583,0-0.874
	c-0.291,0-0.584,0-0.875,0c-0.289,0-0.582,0-0.873,0c0,0.679,0,1.358,0,2.038C38.729,12.618,38.729,13.297,38.729,13.976z"/>
<path fill="#211F30" d="M48.629,11.357c0-0.292,0-0.583,0-0.875c0-0.192,0-0.387,0-0.581c-1.164,0-2.33,0-3.494,0
	c0,0.291,0,0.581,0,0.874c0,0.194,0,0.387,0,0.583c0.582,0,1.164,0,1.748,0c0,0.582,0,1.164,0,1.747c0.582,0,1.164,0,1.746,0
	C48.629,12.521,48.629,11.938,48.629,11.357z"/>
<path fill="#211F30" d="M56.492,9.9c0,0.581,0,1.164,0,1.747c0,0.291,0,0.582,0,0.874c0,0.194,0,0.387,0,0.583
	c0.58,0,1.164,0,1.746,0c0-0.292,0-0.583,0-0.875c0-0.193,0-0.389,0-0.582c0-0.583,0-1.166,0-1.747
	C57.656,9.9,57.072,9.9,56.492,9.9z"/>
<path fill="#853447" d="M30.576,12.229c0,0.196,0,0.389,0,0.583c0,0.389,0,0.775,0,1.164c0,0.196,0,0.389,0,0.583
	c0.193,0,0.389,0,0.582,0c0.389,0,0.775,0,1.164,0c0-0.583,0-1.164,0-1.747c0-0.291,0-0.583,0-0.874c0-0.193,0-0.389,0-0.582
	c-0.582,0-1.164,0-1.746,0C30.576,11.647,30.576,11.938,30.576,12.229z"/>
<path fill="#211F30" d="M46.883,13.976c0-0.291,0-0.581,0-0.872c-0.584,0-1.166,0-1.748,0c0,0.291,0,0.582,0,0.872
	c0,0.196,0,0.389,0,0.583c0.582,0,1.164,0,1.748,0C46.883,14.365,46.883,14.172,46.883,13.976z"/>
<path fill="#A24745" d="M49.502,14.559c-0.289,0-0.582,0-0.873,0c0-0.292,0-0.583,0-0.874c0-0.194,0-0.389,0-0.582
	c-0.582,0-1.164,0-1.746,0c0,0.291,0,0.582,0,0.872c0,0.196,0,0.389,0,0.583c-0.584,0-1.166,0-1.748,0c0,0.583,0,1.164,0,1.747
	c0.582,0,1.164,0,1.748,0c0,0.097,0,0.194,0,0.292c0,0.387,0,0.775,0,1.163c0.582,0,1.164,0,1.746,0c0-0.193,0-0.387,0-0.582
	c0-0.291,0-0.581,0-0.874c0.098,0,0.195,0,0.291,0c0.389,0,0.777,0,1.166,0c0-0.583,0-1.164,0-1.747
	C49.891,14.559,49.697,14.559,49.502,14.559z"/>
<path fill="#211F30" d="M48.629,14.559c0.291,0,0.584,0,0.873,0c0.195,0,0.389,0,0.584,0c0-0.292,0-0.583,0-0.874
	c0-0.194,0-0.389,0-0.582c-0.293,0-0.584,0-0.873,0c-0.195,0-0.389,0-0.584,0c0,0.193,0,0.387,0,0.582
	C48.629,13.976,48.629,14.267,48.629,14.559z"/>
<path fill="#211F30" d="M55.035,13.104c0,0.291,0,0.582,0,0.872c0,0.196,0,0.389,0,0.583c0.389,0,0.775,0,1.164,0
	c0.098,0,0.195,0,0.293,0c0-0.292,0-0.583,0-0.874c0-0.194,0-0.389,0-0.582c-0.389,0-0.777,0-1.166,0
	C55.23,13.104,55.133,13.104,55.035,13.104z"/>
<path fill="#853447" d="M8.156,14.559c0,0.583,0,1.164,0,1.747c1.553,0,3.105,0,4.658,0c0-0.583,0-1.164,0-1.747
	c-0.584,0-1.166,0-1.748,0c-0.291,0-0.582,0-0.873,0c-0.193,0-0.389,0-0.582,0c-0.291,0-0.584,0-0.875,0
	C8.543,14.559,8.348,14.559,8.156,14.559z"/>
<path fill="#853447" d="M24.461,16.306c0.193,0,0.389,0,0.582,0c0.291,0,0.584,0,0.873,0c0-0.583,0-1.164,0-1.747
	c-0.873,0-1.746,0-2.619,0c-0.777,0-1.555,0-2.33,0c0,0.583,0,1.164,0,1.747c0.775,0,1.553,0,2.33,0
	C23.686,16.306,24.072,16.306,24.461,16.306z"/>
<path fill="#211F30" d="M45.135,14.559c-0.291,0-0.582,0-0.873,0c-0.195,0-0.389,0-0.584,0c-0.291,0-0.58,0-0.871,0
	c-0.293,0-0.584,0-0.875,0c0,0.583,0,1.164,0,1.747c1.066,0,2.135,0,3.203,0C45.135,15.723,45.135,15.142,45.135,14.559z"/>
<path fill="#211F30" d="M50.086,14.559c0,0.583,0,1.164,0,1.747c1.648,0,3.301,0,4.949,0c0-0.583,0-1.164,0-1.747
	c-0.873,0-1.748,0-2.621,0C51.639,14.559,50.861,14.559,50.086,14.559z"/>
<path fill="#F7F9F9" d="M8.156,20.964c1.553,0,3.105,0,4.658,0c0-1.553,0-3.105,0-4.658c-1.553,0-3.105,0-4.658,0
	C8.156,17.859,8.156,19.412,8.156,20.964z M9.174,17.202c0.291,0,0.584,0,0.873,0c0.195,0,0.389,0,0.584,0c0,1.068,0,2.135,0,3.204
	c-0.195,0-0.389,0-0.584,0c-0.289,0-0.582,0-0.873,0C9.174,19.337,9.174,18.27,9.174,17.202z"/>
<path fill="#853447" d="M8.156,22.712c0,0.389,0,0.777,0,1.164c0,0.194,0,0.389,0,0.583c0.289,0,0.58,0,0.871,0
	c0.195,0,0.389,0,0.584,0c0-0.583,0-1.164,0-1.747c0.582,0,1.164,0,1.746,0c0.291,0,0.584,0,0.873,0c0.195,0,0.389,0,0.584,0
	c0.582,0,1.164,0,1.746,0c0.291,0,0.582,0,0.875,0c0.191,0,0.387,0,0.58,0c0-0.291,0-0.583,0-0.873c0-0.291,0-0.584,0-0.875
	c-0.289,0-0.58,0-0.873,0c-0.193,0-0.389,0-0.582,0c0-1.553,0-3.105,0-4.658c-0.291,0-0.582,0-0.873,0s-0.582,0-0.873,0
	c0,1.553,0,3.105,0,4.658c-1.553,0-3.105,0-4.658,0c-0.584,0-1.166,0-1.748,0c0,0.584,0,1.165,0,1.748
	C6.99,22.712,7.572,22.712,8.156,22.712z"/>
<path fill="#853447" d="M20.967,20.964c0-1.553,0-3.105,0-4.658c-0.291,0-0.582,0-0.873,0c-0.193,0-0.389,0-0.582,0
	c0,1.553,0,3.105,0,4.658c0.193,0,0.389,0,0.582,0C20.385,20.964,20.676,20.964,20.967,20.964z"/>
<path fill="#F7F9F9" d="M23.297,20.964c0.873,0,1.746,0,2.619,0c0-1.553,0-3.105,0-4.658c-0.289,0-0.582,0-0.873,0
	c-0.193,0-0.389,0-0.582,0c-0.389,0-0.775,0-1.164,0c-0.777,0-1.555,0-2.33,0c0,1.553,0,3.105,0,4.658
	C21.742,20.964,22.52,20.964,23.297,20.964z M22.174,17.202c0.291,0,0.584,0,0.873,0c0.195,0,0.389,0,0.584,0
	c0,1.068,0,2.135,0,3.204c-0.195,0-0.389,0-0.584,0c-0.289,0-0.582,0-0.873,0C22.174,19.337,22.174,18.27,22.174,17.202z"/>
<path fill="#853447" d="M25.916,16.306c0,1.553,0,3.105,0,4.658c0.195,0,0.389,0,0.584,0c0.291,0,0.582,0,0.873,0
	c0-1.553,0-3.105,0-4.658c-0.291,0-0.582,0-0.873,0C26.305,16.306,26.111,16.306,25.916,16.306z"/>
<path fill="#853447" d="M32.322,16.889c0-0.196,0-0.389,0-0.583c-0.582,0-1.164,0-1.746,0c0,0.292,0,0.583,0,0.874
	c0,0.194,0,0.389,0,0.582c0.582,0,1.164,0,1.746,0C32.322,17.471,32.322,17.18,32.322,16.889z"/>
<path fill="#211F30" d="M48.629,16.306c0,0.292,0,0.583,0,0.874c0,0.194,0,0.389,0,0.582c0.291,0,0.584,0,0.873,0
	c0.195,0,0.389,0,0.584,0c0-0.291,0-0.582,0-0.872c0-0.196,0-0.389,0-0.583c-0.389,0-0.777,0-1.166,0
	C48.824,16.306,48.727,16.306,48.629,16.306z"/>
<path fill="#853447" d="M35.527,17.761c0,0.583,0,1.166,0,1.747c0.58,0,1.164,0,1.746,0c0-0.581,0-1.164,0-1.747
	C36.691,17.761,36.107,17.761,35.527,17.761z"/>
<path fill="#211F30" d="M37.273,17.761c0,0.583,0,1.166,0,1.747c0.387,0,0.775,0,1.164,0c0.098,0,0.195,0,0.291,0
	c0-0.581,0-1.164,0-1.747c-0.193,0-0.389,0-0.582,0C37.855,17.761,37.564,17.761,37.273,17.761z"/>
<path fill="#A24745" d="M45.135,17.761c0,0.583,0,1.166,0,1.747c0.582,0,1.164,0,1.748,0c0-0.581,0-1.164,0-1.747
	C46.299,17.761,45.717,17.761,45.135,17.761z"/>
<path fill="#211F30" d="M46.883,19.508c0.582,0,1.164,0,1.746,0c0-0.581,0-1.164,0-1.747c-0.582,0-1.164,0-1.746,0
	C46.883,18.344,46.883,18.927,46.883,19.508z"/>
<path fill="#A24745" d="M43.678,19.508c-0.58,0-1.164,0-1.746,0c0,0.292,0,0.583,0,0.874c0,0.194,0,0.389,0,0.582
	c0.582,0,1.166,0,1.746,0c0-0.193,0-0.388,0-0.582C43.678,20.091,43.678,19.8,43.678,19.508z"/>
<path fill="#211F30" d="M44.262,19.508c-0.195,0-0.389,0-0.584,0c0,0.292,0,0.583,0,0.874c0,0.194,0,0.389,0,0.582
	c0.293,0,0.584,0,0.875,0c0.193,0,0.389,0,0.582,0c0.291,0,0.582,0,0.873,0s0.584,0,0.875,0c0-0.29,0-0.582,0-0.873
	c0-0.194,0-0.389,0-0.583c-0.584,0-1.166,0-1.748,0C44.844,19.508,44.553,19.508,44.262,19.508z"/>
<path fill="#211F30" d="M4.66,22.712c0.582,0,1.166,0,1.748,0c0-0.583,0-1.164,0-1.748c-0.293,0-0.582,0-0.873,0
	c-0.195,0-0.389,0-0.584,0c-0.291,0-0.582,0-0.873,0s-0.582,0-0.873,0c0,0.584,0,1.165,0,1.748c0.193,0,0.389,0,0.582,0
	C4.078,22.712,4.369,22.712,4.66,22.712z"/>
<path fill="#A24745" d="M20.094,20.964c-0.193,0-0.389,0-0.582,0c0,0.584,0,1.165,0,1.748c0.289,0,0.582,0,0.873,0
	c0.193,0,0.389,0,0.582,0c0-0.583,0-1.164,0-1.748C20.676,20.964,20.385,20.964,20.094,20.964z"/>
<path fill="#853447" d="M23.297,20.964c-0.777,0-1.555,0-2.33,0c0,0.584,0,1.165,0,1.748c0.873,0,1.748,0,2.619,0
	c0.777,0,1.555,0,2.33,0c0-0.583,0-1.164,0-1.748C25.043,20.964,24.17,20.964,23.297,20.964z"/>
<path fill="#A24745" d="M25.916,20.964c0,0.584,0,1.165,0,1.748c0.291,0,0.584,0,0.875,0c0.193,0,0.389,0,0.582,0
	c0-0.583,0-1.164,0-1.748c-0.291,0-0.582,0-0.873,0C26.305,20.964,26.111,20.964,25.916,20.964z"/>
<path fill="#853447" d="M35.527,22.712c0-0.583,0-1.164,0-1.748c-0.389,0-0.777,0-1.166,0c-0.098,0-0.193,0-0.291,0
	c0,0.584,0,1.165,0,1.748c0.193,0,0.389,0,0.582,0C34.943,22.712,35.234,22.712,35.527,22.712z"/>
<path fill="#211F30" d="M41.059,20.964c-0.193,0-0.389,0-0.582,0c0,0.584,0,1.165,0,1.748c0.291,0,0.582,0,0.873,0
	c0.193,0,0.389,0,0.582,0c0.291,0,0.582,0,0.875,0c0.291,0,0.58,0,0.871,0c0-0.583,0-1.164,0-1.748c-0.58,0-1.164,0-1.746,0
	C41.641,20.964,41.35,20.964,41.059,20.964z"/>
<path fill="#211F30" d="M3.205,22.712c-0.584,0-1.164,0-1.748,0c0,0.583,0,1.164,0,1.747c0.584,0,1.164,0,1.748,0
	C3.205,23.876,3.205,23.295,3.205,22.712z"/>
<path fill="#BA6E54" d="M8.156,34.068c0-0.582,0-1.164,0-1.746c0.191,0,0.387,0,0.58,0c0.291,0,0.584,0,0.875,0
	c0-0.193,0-0.389,0-0.582c0-0.291,0-0.584,0-0.875c0.582,0,1.164,0,1.746,0c0-0.582,0-1.164,0-1.746c-0.582,0-1.164,0-1.746,0
	c0-1.553,0-3.106,0-4.659c-0.195,0-0.389,0-0.584,0c-0.291,0-0.582,0-0.871,0c0-0.194,0-0.389,0-0.583c0-0.387,0-0.775,0-1.164
	c-0.584,0-1.166,0-1.748,0s-1.166,0-1.748,0c-0.291,0-0.582,0-0.873,0c-0.193,0-0.389,0-0.582,0c0,0.583,0,1.164,0,1.747
	c-0.584,0-1.164,0-1.748,0c0,0.29,0,0.583,0,0.874s0,0.582,0,0.873c0,0.68,0,1.359,0,2.038c0,1.358,0,2.718,0,4.077
	c0.584,0,1.164,0,1.748,0c0,0.582,0,1.164,0,1.746c0.777,0,1.553,0,2.33,0C6.408,34.068,7.279,34.068,8.156,34.068z M3.205,30.865
	c0-1.65,0-3.299,0-4.949c0.582,0,1.164,0,1.746,0c0-0.193,0-0.389,0-0.582c0-0.291,0-0.584,0-0.874c0.195,0,0.389,0,0.584,0
	c0.291,0,0.58,0,0.873,0c0,0.194,0,0.389,0,0.583c0,0.291,0,0.582,0,0.873c0.582,0,1.164,0,1.748,0c0,0.776,0,1.553,0,2.329
	c0,0.874,0,1.747,0,2.62c-0.584,0-1.166,0-1.748,0c0,0.195,0,0.389,0,0.584c0,0.291,0,0.581,0,0.873c-0.193,0-0.389,0-0.582,0
	c-0.291,0-0.584,0-0.875,0c0-0.193,0-0.389,0-0.582c0-0.291,0-0.584,0-0.875C4.369,30.865,3.787,30.865,3.205,30.865z"/>
<path fill="#853447" d="M17.764,24.459c0-0.194,0-0.389,0-0.583c0-0.387,0-0.775,0-1.164c-0.582,0-1.164,0-1.748,0
	c0,0.583,0,1.164,0,1.747C16.6,24.459,17.182,24.459,17.764,24.459z"/>
<path fill="#A24745" d="M34.652,22.712c-0.193,0-0.389,0-0.582,0c0,0.583,0,1.164,0,1.747c0.291,0,0.582,0,0.873,0
	c0.195,0,0.389,0,0.584,0c0-0.583,0-1.164,0-1.747C35.234,22.712,34.943,22.712,34.652,22.712z"/>
<path fill="#853447" d="M37.273,22.712c-0.582,0-1.166,0-1.746,0c0,0.583,0,1.164,0,1.747c0.58,0,1.164,0,1.746,0
	C37.273,23.876,37.273,23.295,37.273,22.712z"/>
<path fill="#211F30" d="M37.855,22.712c-0.195,0-0.389,0-0.582,0c0,0.583,0,1.164,0,1.747c0.193,0,0.387,0,0.582,0
	c0.291,0,0.582,0,0.873,0c0,0.097,0,0.194,0,0.29c0,0.099,0,0.195,0,0.293c0,0.193,0,0.387,0,0.582c0,0.291,0,0.582,0,0.873
	c0,0.68,0,1.358,0,2.037c0,0.68,0,1.361,0,2.04s0,1.358,0,2.038c0,0.583,0,1.164,0,1.747c0,0.679,0,1.358,0,2.038
	c0,1.358,0,2.717,0,4.077c0.584,0,1.164,0,1.748,0c0-3.009,0-6.019,0-9.026c0-0.777,0-1.553,0-2.33c0-0.68,0-1.359,0-2.038
	c0-0.777,0-1.554,0-2.331c0-0.679,0-1.357,0-2.037c-0.584,0-1.164,0-1.748,0C38.438,22.712,38.146,22.712,37.855,22.712z"/>
<path fill="#211F30" d="M1.457,26.207c0-0.291,0-0.582,0-0.873s0-0.584,0-0.874c-0.291,0-0.582,0-0.873,0c-0.195,0-0.389,0-0.584,0
	c0.002,0.679,0,1.358,0,2.038c0,0.291,0,0.583,0,0.873c0,0.291,0,0.584,0,0.874c0,0.389,0,0.777,0,1.165c0,0.291,0,0.582,0,0.873
	c0,0.292,0,0.582,0,0.873c0,0.389,0,0.777,0,1.166c0.293,0,0.584,0,0.875,0c0.193,0,0.389,0,0.582,0c0-1.359,0-2.719,0-4.077
	C1.457,27.566,1.457,26.886,1.457,26.207z"/>
<path fill="#211F30" d="M6.408,25.916c0-0.291,0-0.582,0-0.873c0-0.194,0-0.389,0-0.583c-0.293,0-0.582,0-0.873,0
	c-0.195,0-0.389,0-0.584,0c0,0.29,0,0.583,0,0.874c0,0.193,0,0.389,0,0.582c0.291,0,0.584,0,0.875,0
	C6.02,25.916,6.215,25.916,6.408,25.916z"/>
<path fill="#853447" d="M11.357,29.119c0-1.553,0-3.106,0-4.659c-0.582,0-1.164,0-1.746,0c0,1.553,0,3.106,0,4.659
	C10.193,29.119,10.775,29.119,11.357,29.119z"/>
<path fill="#A24745" d="M38.729,34.36c0-0.583,0-1.164,0-1.747c0-0.68,0-1.359,0-2.038s0-1.36,0-2.04c0-0.679,0-1.357,0-2.037
	c0-0.291,0-0.582,0-0.873c0-0.195,0-0.389,0-0.582c0-0.098,0-0.194,0-0.293c0-0.096,0-0.193,0-0.29c-0.291,0-0.582,0-0.873,0
	c-0.195,0-0.389,0-0.582,0c-0.582,0-1.166,0-1.746,0c0,0.29,0,0.583,0,0.874c0,0.193,0,0.389,0,0.582c0.58,0,1.164,0,1.746,0
	c0,0.388,0,0.776,0,1.165c0,2.231,0,4.464,0,6.696s0,4.465,0,6.698c0.291,0,0.582,0,0.873,0c0.193,0,0.389,0,0.582,0
	c0-1.36,0-2.719,0-4.077C38.729,35.718,38.729,35.039,38.729,34.36z"/>
<path fill="#853447" d="M6.408,30.865c0-1.65,0-3.299,0-4.949c-0.193,0-0.389,0-0.582,0c-0.291,0-0.584,0-0.875,0
	c-0.582,0-1.164,0-1.746,0c0,1.65,0,3.299,0,4.949c0.582,0,1.164,0,1.746,0c0.195,0,0.389,0,0.584,0
	C5.826,30.865,6.115,30.865,6.408,30.865z"/>
<path fill="#211F30" d="M8.156,30.865c0-0.873,0-1.746,0-2.62c0-0.776,0-1.553,0-2.329c-0.584,0-1.166,0-1.748,0
	c0,1.65,0,3.299,0,4.949C6.99,30.865,7.572,30.865,8.156,30.865z"/>
<path fill="#853447" d="M12.23,30.865c0.195,0,0.389,0,0.584,0c0-0.582,0-1.164,0-1.746c-0.293,0-0.584,0-0.873,0
	c-0.195,0-0.389,0-0.584,0c0,0.582,0,1.164,0,1.746C11.648,30.865,11.941,30.865,12.23,30.865z"/>
<path fill="#853447" d="M19.512,29.701c0-0.193,0-0.389,0-0.582c-0.195,0-0.389,0-0.584,0c-0.387,0-0.775,0-1.164,0
	c0,0.582,0,1.164,0,1.746c0,0.486,0,0.971,0,1.457c0.582,0,1.164,0,1.748,0C19.512,31.449,19.512,30.575,19.512,29.701z"/>
<path fill="#853447" d="M32.322,30.865c0.584,0,1.164,0,1.748,0c0-0.582,0-1.164,0-1.746c-0.584,0-1.164,0-1.748,0
	C32.322,29.701,32.322,30.283,32.322,30.865z"/>
<path fill="#211F30" d="M4.951,32.322c0.291,0,0.584,0,0.875,0c0.193,0,0.389,0,0.582,0c0-0.292,0-0.582,0-0.873
	c0-0.195,0-0.389,0-0.584c-0.293,0-0.582,0-0.873,0c-0.195,0-0.389,0-0.584,0c0,0.291,0,0.584,0,0.875
	C4.951,31.933,4.951,32.128,4.951,32.322z"/>
<path fill="#211F30" d="M11.357,31.74c0-0.291,0-0.584,0-0.875c-0.582,0-1.164,0-1.746,0c0,0.291,0,0.584,0,0.875
	c0,0.193,0,0.389,0,0.582c0.582,0,1.164,0,1.746,0C11.357,32.128,11.357,31.933,11.357,31.74z"/>
<path fill="#A24745" d="M11.357,30.865c0,0.291,0,0.584,0,0.875c0,0.193,0,0.389,0,0.582c-0.582,0-1.164,0-1.746,0
	c0,0.582,0,1.164,0,1.746c2.135,0,4.27,0,6.404,0c0-0.582,0-1.164,0-1.746c-0.58,0-1.164,0-1.746,0c-0.291,0-0.582,0-0.873,0
	c-0.195,0-0.389,0-0.582,0c0-0.292-0.002-0.582,0-0.873c0-0.195,0-0.389,0-0.584c-0.195,0-0.389,0-0.584,0
	C11.941,30.865,11.648,30.865,11.357,30.865z"/>
<path fill="#211F30" d="M1.457,32.322c0,0.582,0,1.164,0,1.746c0.584,0,1.164,0,1.748,0c0-0.582,0-1.164,0-1.746
	C2.621,32.322,2.041,32.322,1.457,32.322z"/>
<path fill="#211F30" d="M16.016,35.525c0-0.389,0-0.776,0-1.165c0-0.098,0-0.194,0-0.292c-2.135,0-4.27,0-6.404,0
	c0-0.582,0-1.164,0-1.746c-0.291,0-0.584,0-0.875,0c-0.193,0-0.389,0-0.58,0c0,0.582,0,1.164,0,1.746c-0.877,0-1.748,0-2.621,0
	c-0.777,0-1.553,0-2.33,0c0,0.292,0,0.582,0,0.873c0,0.195,0,0.389,0,0.584c1.066,0,2.135,0,3.203,0c0,1.65,0,3.299,0,4.95
	c0.291,0,0.582,0,0.871,0c0.293,0,0.584,0,0.877,0c0-1.651,0-3.3,0-4.95C10.775,35.525,13.396,35.525,16.016,35.525z"/>
<path fill="#853447" d="M17.764,34.068c0-0.582,0-1.164,0-1.746c-0.582,0-1.164,0-1.748,0c0,0.582,0,1.164,0,1.746
	C16.6,34.068,17.182,34.068,17.764,34.068z"/>
<path fill="#853447" d="M32.322,32.904c0,0.873,0,1.746,0,2.621c0.584,0,1.164,0,1.748,0c0-0.195,0-0.389,0-0.584
	c0-0.873,0-1.745,0-2.619c-0.584,0-1.164,0-1.748,0C32.322,32.515,32.322,32.708,32.322,32.904z"/>
<path fill="#A24745" d="M16.016,34.36c0,0.389,0,0.776,0,1.165c0.584,0,1.166,0,1.748,0c0-0.291,0-0.584,0-0.875
	c0-0.193,0-0.388,0-0.582c-0.582,0-1.164,0-1.748,0C16.016,34.166,16.016,34.262,16.016,34.36z"/>
<path fill="#853447" d="M22.715,34.068c0,0.292,0,0.582,0,0.873c0,0.195,0,0.389,0,0.584c0.291,0,0.582,0,0.871,0
	c0.195,0,0.389,0,0.584,0c0-0.291,0-0.584,0-0.875c0-0.193,0-0.388,0-0.582c-0.291,0-0.584,0-0.873,0
	C23.102,34.068,22.908,34.068,22.715,34.068z"/>
<path fill="#A24745" d="M9.611,40.475c0-1.067,0-2.136,0-3.204c0.289,0,0.582,0,0.873,0s0.582,0,0.873,0c0.195,0,0.389,0,0.584,0
	c0.289,0,0.58,0,0.873,0c0.582,0,1.164,0,1.746,0c0.291,0,0.582,0,0.875,0c0.191,0,0.387,0,0.58,0c0-0.582,0-1.164,0-1.746
	c-2.619,0-5.24,0-7.859,0c0,1.65,0,3.299,0,4.95c0.289,0,0.58,0,0.871,0C9.223,40.475,9.416,40.475,9.611,40.475z"/>
<path fill="#BA6E54" d="M11.941,37.271c-0.195,0-0.389,0-0.584,0c-0.291,0-0.582,0-0.873,0s-0.584,0-0.873,0
	c0,1.068,0,2.137,0,3.204c0.193,0,0.389,0,0.582,0c0.291,0,0.582,0,0.873,0c0.582,0,1.164,0,1.748,0c0-0.194,0-0.389,0-0.583
	c0-0.291,0-0.582,0-0.873c0-0.584,0-1.164,0-1.748C12.521,37.271,12.23,37.271,11.941,37.271z"/>
<path fill="#853447" d="M12.814,39.019c0.582,0,1.164,0,1.746,0c0-0.584,0-1.164,0-1.748c-0.582,0-1.164,0-1.746,0
	C12.814,37.855,12.814,38.435,12.814,39.019z"/>
<path fill="#853447" d="M24.17,39.019c0-0.584,0-1.164,0-1.748c-0.389,0-0.775,0-1.164,0c-0.098,0-0.195,0-0.291,0
	c0,0.584,0,1.164,0,1.748c0.193,0,0.387,0,0.582,0C23.586,39.019,23.879,39.019,24.17,39.019z"/>
<path fill="#211F30" d="M34.07,37.271c-0.584,0-1.164,0-1.748,0c0,0.584,0,1.164,0,1.748c0,0.291,0,0.582,0,0.873
	c0,0.194,0,0.389,0,0.583c0,0.581,0,1.165,0,1.745c-2.717,0-5.436,0-8.152,0c0-0.191,0-0.387,0-0.58c0-0.874,0-1.748,0-2.621
	c-0.291,0-0.584,0-0.873,0c-0.195,0-0.389,0-0.582,0c0,0.291,0,0.582,0,0.873c0,0.194,0,0.389,0,0.583c0,0.291,0,0.581,0,0.872
	c0,0.293,0,0.583,0,0.873c-2.719,0-5.436,0-8.154,0c0-0.191,0-0.387,0-0.58c0-0.874,0-1.748,0-2.621c-0.582,0-1.164,0-1.746,0
	c0,0.291,0,0.582,0,0.873c0,0.194,0,0.389,0,0.583c0,0.581,0,1.165,0,1.745c-1.068,0-2.137,0-3.203,0c0,0.293,0,0.584,0,0.875
	c0,0.193,0,0.388,0,0.582c1.066,0,2.135,0,3.203,0c0,0.583,0,1.164,0,1.748c0.775,0,1.553,0,2.328,0c0.873,0,1.748,0,2.621,0
	c0-0.291,0-0.584,0-0.874c0-0.291,0-0.583,0-0.874c3.785,0,7.57,0,11.355,0c0,0.583,0,1.164,0,1.748c0.777,0,1.555,0,2.33,0
	c0.873,0,1.748,0,2.621,0c0-0.584,0-1.165,0-1.748c1.068,0,2.135,0,3.203,0c0-0.291-0.002-0.582,0-0.873c0-0.195,0-0.389,0-0.584
	c-1.068,0-2.135,0-3.203,0C34.07,40.572,34.07,38.921,34.07,37.271z"/>
<path fill="#A24745" d="M35.527,40.475c0-0.292,0-0.583,0-0.874c0-0.193,0-0.389,0-0.582c0-0.291,0-0.584,0-0.874s0-0.583,0-0.874
	c-0.293,0-0.584,0-0.875,0c-0.193,0-0.389,0-0.582,0c0,1.65,0,3.301,0,4.949c1.068,0,2.135,0,3.203,0c0-0.58,0-1.164,0-1.745
	C36.691,40.475,36.107,40.475,35.527,40.475z"/>
<path fill="#A24745" d="M14.561,42.22c2.719,0,5.436,0,8.154,0c0-0.29,0-0.58,0-0.873c0-0.291,0-0.581,0-0.872
	c-2.234,0-4.467,0-6.699,0c0-0.389,0-0.777,0-1.165c0-0.098,0-0.195,0-0.291c-0.289,0-0.58,0-0.873,0c-0.193,0-0.389,0-0.582,0
	c0,0.873,0,1.747,0,2.621C14.561,41.833,14.561,42.029,14.561,42.22z"/>
<path fill="#A24745" d="M24.17,42.22c2.717,0,5.436,0,8.152,0c0-0.58,0-1.164,0-1.745c-2.135,0-4.27,0-6.406,0
	c0-0.292,0-0.583,0-0.874c0-0.193,0-0.389,0-0.582c-0.582,0-1.164,0-1.746,0c0,0.873,0,1.747,0,2.621
	C24.17,41.833,24.17,42.029,24.17,42.22z"/>
<path fill="#211F30" d="M9.027,40.475c-0.291,0-0.582,0-0.871,0c0,0.581,0,1.165,0,1.745c0.289,0,0.58,0,0.871,0
	c0.195,0,0.389,0,0.584,0c0-0.58,0-1.164,0-1.745C9.416,40.475,9.223,40.475,9.027,40.475z"/>
<path fill="#A24745" d="M12.814,40.475c-0.584,0-1.166,0-1.748,0c-0.291,0-0.582,0-0.873,0c-0.193,0-0.389,0-0.582,0
	c0,0.581,0,1.165,0,1.745c1.066,0,2.135,0,3.203,0C12.814,41.64,12.814,41.056,12.814,40.475z"/>
<path fill="#211F30" d="M37.273,40.475c0,0.581,0,1.165,0,1.745c0.291,0,0.582,0,0.873,0c0.193,0,0.389,0,0.582,0
	c0-0.58,0-1.164,0-1.745c-0.193,0-0.389,0-0.582,0C37.855,40.475,37.564,40.475,37.273,40.475z"/>
<path fill="#211F30" d="M23.631,20.406c0-1.068,0-2.136,0-3.204c-0.195,0-0.389,0-0.584,0c-0.289,0-0.582,0-0.873,0
	c0,1.068,0,2.135,0,3.204c0.291,0,0.584,0,0.873,0C23.242,20.406,23.436,20.406,23.631,20.406z"/>
<path fill="#211F30" d="M10.631,20.406c0-1.068,0-2.136,0-3.204c-0.195,0-0.389,0-0.584,0c-0.289,0-0.582,0-0.873,0
	c0,1.068,0,2.135,0,3.204c0.291,0,0.584,0,0.873,0C10.242,20.406,10.436,20.406,10.631,20.406z"/>
</svg>
