<?xml version="1.0" encoding="utf-8"?>
<!-- Generator: Adobe Illustrator 15.0.0, SVG Export Plug-In  -->
<!DOCTYPE svg PUBLIC "-//W3C//DTD SVG 1.1//EN" "http://www.w3.org/Graphics/SVG/1.1/DTD/svg11.dtd" [
	<!ENTITY ns_flows "http://ns.adobe.com/Flows/1.0/">
]>
<svg version="1.1"
	 xmlns="http://www.w3.org/2000/svg" xmlns:xlink="http://www.w3.org/1999/xlink" xmlns:a="http://ns.adobe.com/AdobeSVGViewerExtensions/3.0/"
	 x="0px" y="0px" width="70px" height="55px" viewBox="-10.307 -8.12 70 55" enable-background="new -10.307 -8.12 70 55"
	 xml:space="preserve">
<defs>
</defs>
<path fill="#211F30" d="M48.336,1.455c0.193,0,0.389,0,0.582,0c0.389,0,0.775,0,1.164,0c0-0.292,0-0.583,0-0.874
	c0-0.194,0-0.389,0-0.582c-0.289,0-0.582,0-0.873,0c-0.193,0-0.389,0-0.582,0c-0.582,0-1.164,0-1.748,0c0,0.291,0,0.582,0,0.872
	c0,0.196,0,0.389,0,0.583c0.195,0,0.389,0,0.584,0C47.754,1.455,48.045,1.455,48.336,1.455z"/>
<path fill="#211F30" d="M46.879,1.455c-0.582,0-1.164,0-1.746,0c0,0.583,0,1.164,0,1.747c0.582,0,1.164,0,1.746,0
	C46.879,2.619,46.879,2.038,46.879,1.455z"/>
<path fill="#619E43" d="M48.336,9.608c0.582,0,1.164,0,1.746,0c0-0.582,0-1.166,0-1.748c0.584,0,1.166,0,1.748,0
	c0-1.553,0-3.106,0-4.659c-0.582,0-1.164,0-1.748,0c0-0.583,0-1.164,0-1.747c-0.389,0-0.775,0-1.164,0c-0.193,0-0.389,0-0.582,0
	c-0.291,0-0.582,0-0.873,0c-0.195,0-0.389,0-0.584,0c0,0.583,0,1.164,0,1.747c-0.582,0-1.164,0-1.746,0c0,1.553,0,3.106,0,4.659
	c0.582,0,1.164,0,1.746,0c0,0.582,0,1.166,0,1.748c0.195,0,0.389,0,0.584,0C47.754,9.608,48.045,9.608,48.336,9.608z"/>
<path fill="#211F30" d="M51.83,3.202c0-0.583,0-1.164,0-1.747c-0.582,0-1.164,0-1.748,0c0,0.583,0,1.164,0,1.747
	C50.666,3.202,51.248,3.202,51.83,3.202z"/>
<path fill="#211F30" d="M44.26,3.202c-0.193,0-0.389,0-0.582,0c0,1.553,0,3.106,0,4.659c0.289,0,0.582,0,0.873,0
	c0.193,0,0.389,0,0.582,0c0-1.553,0-3.106,0-4.659C44.842,3.202,44.551,3.202,44.26,3.202z"/>
<path fill="#211F30" d="M56.488,7.861c0-0.291,0-0.581,0-0.874c0-0.194,0-0.387,0-0.583c-0.873,0-1.746,0-2.621,0
	c-0.193,0-0.389,0-0.58,0c0-0.291,0-0.581,0-0.872c0-0.777,0-1.554,0-2.33c-0.293,0-0.584,0-0.875,0c-0.193,0-0.389,0-0.582,0
	c0,1.553,0,3.106,0,4.659C53.383,7.861,54.936,7.861,56.488,7.861z"/>
<path fill="#211F30" d="M11.938,7.861c0.291,0,0.584,0,0.873,0c0.195,0,0.389,0,0.584,0c0.389,0,0.775,0,1.164,0
	c0-0.291,0-0.581,0-0.874c0-0.194,0-0.387,0-0.583c-1.648,0-3.301,0-4.949,0c0,0.292,0,0.583,0,0.875c0,0.192,0,0.387,0,0.581
	c0.58,0,1.164,0,1.746,0C11.549,7.861,11.744,7.861,11.938,7.861z"/>
<path fill="#211F30" d="M30.574,6.987c0-0.194,0-0.387,0-0.583c-4.854,0-9.707,0-14.559,0c0,0.292-0.002,0.583,0,0.875
	c0,0.192,0,0.387,0,0.581c4.852,0,9.705,0,14.559,0C30.574,7.57,30.574,7.28,30.574,6.987z"/>
<path fill="#211F30" d="M33.777,7.861c0.582,0,1.164,0,1.746,0c0.584,0,1.164,0,1.748,0c0-0.291,0-0.581,0-0.874
	c0-0.194,0-0.387,0-0.583c-0.777,0-1.553,0-2.33,0s-1.553,0-2.33,0c-0.098,0-0.193,0-0.291,0c0,0.292,0,0.583,0,0.875
	c0,0.192,0,0.387,0,0.581c0.193,0,0.389,0,0.582,0C33.195,7.861,33.486,7.861,33.777,7.861z"/>
<path fill="#211F30" d="M9.609,9.608c0-0.582,0-1.166,0-1.748c-0.293,0-0.584,0-0.873,0c-0.195,0-0.389,0-0.584,0
	c0,0.582,0,1.166,0,1.748c0.291,0,0.584,0,0.873,0C9.221,9.608,9.414,9.608,9.609,9.608z"/>
<path fill="#A24745" d="M11.355,9.608c0-0.582,0-1.166,0-1.748c-0.582,0-1.166,0-1.746,0c0,0.582,0,1.166,0,1.748
	C10.189,9.608,10.773,9.608,11.355,9.608z"/>
<path fill="#BA6E54" d="M41.057,19.216c0.289,0,0.582,0,0.873,0c0-0.193,0-0.387,0-0.582c0-0.291,0-0.581,0-0.874
	c0.582,0,1.164,0,1.748,0c0.193,0,0.389,0,0.582,0c0.291,0,0.582,0,0.873,0c0-0.583,0-1.164,0-1.747c0.582,0,1.164,0,1.746,0
	c0-0.387,0.002-0.776,0-1.164c0-0.098,0-0.194,0-0.291c-0.582,0-1.164,0-1.746,0c-1.066,0-2.135,0-3.203,0c0,0.193,0,0.387,0,0.582
	c0,0.291,0,0.581,0,0.874c-1.068,0-2.137,0-3.203,0c0,0.583,0,1.164,0,1.747c-0.098,0-0.193,0-0.291,0c-0.389,0-0.775,0-1.164,0
	c-0.584,0-1.164,0-1.748,0c0-0.583,0-1.164,0-1.747c0.584,0,1.164,0,1.748,0c0-0.485,0-0.972,0-1.455c0-0.583,0-1.166,0-1.747
	c0-0.196,0-0.389,0-0.583c0-0.292,0-0.583,0-0.874c0-0.582,0-1.166,0-1.747c-0.584,0-1.164,0-1.748,0c0-0.582,0-1.166,0-1.748
	c-0.582,0-1.164,0-1.746,0c-0.291,0-0.582,0-0.875,0c-0.193,0-0.389,0-0.582,0c0,0.291,0,0.582,0,0.874c0,0.292,0,0.583,0,0.874
	c0,0.291,0,0.581,0,0.874c0,0.292,0,0.583,0,0.874c0,0.194,0,0.389,0,0.581c0,0.292,0,0.583,0,0.875c0,0.582,0,1.164,0,1.747
	c-0.291,0-0.582,0-0.873,0s-0.582,0-0.873,0c0-1.068,0-2.136,0-3.204c0-1.166,0-2.329,0-3.495c-4.854,0-9.707,0-14.559,0
	c0,0.582,0,1.166,0,1.748c0,0.581,0,1.166,0,1.747c-0.098,0-0.195,0-0.293,0c-0.389,0-0.775,0-1.164,0c0-0.582,0-1.166,0-1.747
	c0-0.582,0-1.166,0-1.748c-0.389,0-0.775,0-1.164,0c-0.195,0-0.389,0-0.584,0c-0.289,0-0.582,0-0.873,0c-0.193,0-0.389,0-0.582,0
	c0,0.582,0,1.166,0,1.748c-0.582,0-1.166,0-1.746,0c0,1.649,0,3.3,0,4.951c0.193,0,0.387,0,0.58,0c0.291,0,0.584,0,0.875,0
	c0.582,0,1.164,0,1.746,0c0,0.193,0,0.387,0,0.582c0,0.291,0,0.581,0,0.874c0.584,0,1.164,0,1.748,0c0,0.292,0,0.583,0,0.874
	s0,0.582,0,0.874c0.193,0,0.389,0,0.582,0c0.291,0,0.582,0,0.875,0c0,0.194,0,0.387,0,0.583c0,0.291,0,0.582,0,0.872
	c0.58,0,1.164,0,1.744,0c0,0.389,0,0.777,0,1.166c0,0.193,0,0.389,0,0.581c-0.58,0-1.164,0-1.744,0c0-0.581,0-1.164,0-1.747
	c-1.068,0-2.137,0-3.205,0c-1.066,0-2.135,0-3.201,0c0,0.583,0,1.166,0,1.747c0.58,0,1.164,0,1.746,0c0,0.099,0,0.194,0,0.292
	c0,0.776,0,1.553,0,2.329c0,0.777,0,1.553,0,2.33c0.193,0,0.389,0,0.582,0c0.291,0,0.584,0,0.873,0c0,0.097,0,0.194,0,0.29
	c0,0.389,0,0.777,0,1.166c0,0.582,0,1.165,0,1.746c0.195,0,0.389,0,0.584,0c0.291,0,0.58,0,0.873,0c0.582,0,1.164,0,1.748,0
	c0.58,0,1.164,0,1.744,0c0-1.066,0-2.135,0-3.202c0.293,0,0.584,0,0.877,0c0.191,0,0.387,0,0.58,0c0,0.194,0,0.389,0,0.583
	c0,0.873,0,1.746,0,2.619c-0.193,0-0.389,0-0.58,0c-0.293,0-0.584,0-0.877,0c0,0.194,0,0.389,0,0.583c0,0.29,0,0.583,0,0.874
	c0,0.582,0,1.164,0,1.746c-0.58,0-1.164,0-1.744,0c0,0.195,0,0.389,0,0.584c-0.002,0.291,0,0.581,0,0.873c-0.098,0-0.195,0-0.293,0
	c-2.037,0-4.076,0-6.113,0c0,1.066,0,2.135,0,3.203c0,1.164,0,2.33,0,3.494c0.193,0,0.387,0,0.58,0c0.291,0,0.584,0,0.875,0
	c0.582,0,1.164,0,1.746,0c0-0.584,0-1.164,0-1.748c0-0.582,0-1.164,0-1.746c0.584,0,1.164,0,1.748,0c0,0.582,0,1.164,0,1.746
	c0.193,0,0.389,0,0.582,0c0.291,0,0.582,0,0.875,0c0,0.291,0,0.584,0,0.874s0,0.583,0,0.874c2.232,0,4.463,0,6.695,0
	c0-0.584,0-1.164,0-1.748c0-0.582,0-1.164,0-1.746c0.1,0,0.195,0,0.291,0c0.389,0,0.777,0,1.166,0c0,0.582,0,1.164,0,1.746
	c0.291,0,0.582,0,0.873,0s0.582,0,0.875,0c0,0.291,0,0.584,0,0.874s0,0.583,0,0.874c2.133,0,4.27,0,6.404,0c0-1.164,0-2.33,0-3.494
	c0.193,0,0.389,0,0.582,0c0.293,0,0.584,0,0.875,0c0.582,0,1.164,0,1.746,0c0,1.164,0,2.33,0,3.494c0.584,0,1.164,0,1.748,0
	c0-1.359,0-2.718,0-4.078c0-0.679,0-1.358,0-2.037c0-0.68,0-1.359,0-2.039c0-1.357,0-2.717,0-4.076s0-2.718,0-4.076
	c-0.584,0-1.164,0-1.748,0c0-0.583,0-1.164,0-1.748c-0.582,0-1.164,0-1.746,0c0-0.29,0-0.582,0-0.873c0-0.194,0-0.389,0-0.583
	c0-0.581,0-1.164,0-1.747c0.582,0,1.164,0,1.746,0c0,0.583,0,1.166,0,1.747c0.584,0,1.164,0,1.748,0c0.193,0,0.389,0,0.582,0
	c0.291,0,0.582,0,0.873,0c0.582,0,1.166,0,1.748,0c0-0.581,0-1.164,0-1.747C40.668,19.216,40.861,19.216,41.057,19.216z
	 M24.168,35.523c-0.193,0-0.389,0-0.582,0c-0.291,0-0.584,0-0.875,0c0-0.582,0-1.164,0-1.746c0.291,0,0.584,0,0.875,0
	c0.193,0,0.389,0,0.582,0C24.168,34.359,24.168,34.941,24.168,35.523z M27.371,16.597c0,0.291,0,0.581,0,0.872
	c0,0.584,0,1.166,0,1.747c0,0.583,0,1.166,0,1.747c-0.195,0-0.389,0-0.584,0c-0.291,0-0.58,0-0.871,0c-1.652,0-3.303,0-4.951,0
	c-0.584,0-1.164,0-1.748,0c0-0.581,0-1.164,0-1.747c0-1.068,0-2.134,0-3.202c0.584,0,1.164,0,1.748,0c0-0.292,0-0.583,0-0.874
	c0-0.194,0-0.389,0-0.582c0.68,0,1.357,0,2.037,0s1.359,0,2.039,0c0.291,0,0.582,0,0.875,0c0,0.193,0,0.387,0,0.582
	c0,0.291,0,0.581,0,0.874c0.191,0,0.387,0,0.58,0c0.291,0,0.584,0,0.875,0C27.371,16.208,27.371,16.403,27.371,16.597z
	 M30.574,17.761c0-0.583,0-1.164,0-1.747c0.582,0,1.164,0,1.746,0c0,0.583,0,1.164,0,1.747
	C31.738,17.761,31.156,17.761,30.574,17.761z M33.777,35.523c-0.195,0-0.389,0-0.582,0c-0.293,0-0.584,0-0.875,0
	c0-1.066,0-2.135,0-3.203c0.291,0,0.582,0,0.875,0c0.193,0,0.387,0,0.582,0C33.777,33.388,33.777,34.457,33.777,35.523z
	 M33.777,29.7c0,0.29,0,0.583,0,0.874c-0.195,0-0.389,0-0.582,0c-0.293,0-0.584,0-0.875,0c0-0.195,0-0.389,0-0.584
	c0-0.29,0-0.58,0-0.873c0.193,0,0.389,0,0.582,0c0.293,0,0.584,0,0.875,0C33.777,29.311,33.777,29.505,33.777,29.7z"/>
<path fill="#211F30" d="M15.432,9.608c0.195,0,0.389,0,0.584,0c0-0.582,0-1.166,0-1.748c-0.195,0-0.389,0-0.584,0
	c-0.291,0-0.582,0-0.873,0c0,0.582,0,1.166,0,1.748C14.85,9.608,15.141,9.608,15.432,9.608z"/>
<path fill="#211F30" d="M32.32,11.355c0-0.291,0-0.582,0-0.874c0-0.292,0-0.583,0-0.874c0-0.291,0-0.582,0-0.874
	c0-0.292,0-0.583,0-0.874c-0.582,0-1.164,0-1.746,0c0,1.166,0,2.329,0,3.495C31.156,11.355,31.738,11.355,32.32,11.355z"/>
<path fill="#A24745" d="M35.523,9.608c0.584,0,1.164,0,1.748,0c0-0.582,0-1.166,0-1.748c-0.584,0-1.164,0-1.748,0
	C35.523,8.442,35.523,9.027,35.523,9.608z"/>
<path fill="#211F30" d="M38.145,9.608c0.193,0,0.389,0,0.582,0c0-0.582,0-1.166,0-1.748c-0.291,0-0.582,0-0.873,0
	c-0.193,0-0.389,0-0.582,0c0,0.582,0,1.166,0,1.748C37.561,9.608,37.854,9.608,38.145,9.608z"/>
<path fill="#211F30" d="M45.133,7.861c0,0.582,0,1.166,0,1.748c0.582,0,1.164,0,1.746,0c0-0.582,0-1.166,0-1.748
	C46.297,7.861,45.715,7.861,45.133,7.861z"/>
<path fill="#211F30" d="M50.082,9.608c0.584,0,1.166,0,1.748,0c0-0.582,0-1.166,0-1.748c-0.582,0-1.164,0-1.748,0
	C50.082,8.442,50.082,9.027,50.082,9.608z"/>
<path fill="#619E43" d="M58.236,11.355c0-0.582,0-1.166,0-1.747c-0.584,0-1.164,0-1.748,0c0-0.582,0-1.166,0-1.748
	c-1.553,0-3.105,0-4.658,0c0,0.582,0,1.166,0,1.748c-0.582,0-1.164,0-1.748,0c0,0.194,0,0.388,0,0.581c0,0.292,0,0.584,0,0.875
	c0,0.291,0,0.581,0,0.872c0,0.292,0,0.583,0,0.875c0.584,0,1.166,0,1.748,0c0,0.582,0,1.164,0,1.747c1.553,0,3.105,0,4.658,0
	c0-0.583,0-1.166,0-1.747c0.584,0,1.164,0,1.748,0c0-0.196,0-0.389,0-0.583C58.236,11.937,58.236,11.646,58.236,11.355z"/>
<path fill="#211F30" d="M58.236,9.608c0-0.582,0-1.166,0-1.748c-0.584,0-1.164,0-1.748,0c0,0.582,0,1.166,0,1.748
	C57.072,9.608,57.652,9.608,58.236,9.608z"/>
<path fill="#211F30" d="M8.152,16.014c0-0.194,0-0.387,0-0.583c0-0.291,0-0.581,0-0.872c0-1.651,0-3.302,0-4.951
	c-0.582,0-1.164,0-1.748,0c0,1.358,0,2.717,0,4.076c0,1.358,0,2.719,0,4.077c0.584,0,1.166,0,1.748,0
	C8.152,17.178,8.152,16.597,8.152,16.014z"/>
<path fill="#A24745" d="M8.736,14.559c0.289,0,0.58,0,0.873,0c0-1.651,0-3.302,0-4.951c-0.195,0-0.389,0-0.584,0
	c-0.289,0-0.582,0-0.873,0c0,1.649,0,3.3,0,4.951C8.348,14.559,8.541,14.559,8.736,14.559z"/>
<path fill="#853447" d="M14.559,9.608c0,0.581,0,1.166,0,1.747c0.389,0,0.775,0,1.164,0c0.098,0,0.195,0,0.293,0
	c0-0.582,0-1.166,0-1.747c-0.195,0-0.389,0-0.584,0C15.141,9.608,14.85,9.608,14.559,9.608z"/>
<path fill="#A24745" d="M37.271,9.608c0,0.581,0,1.166,0,1.747c0,0.291,0,0.581,0,0.874c0,0.194,0,0.387,0,0.583
	c0,0.582,0,1.164,0,1.747c0,0.483,0,0.97,0,1.455c0.289,0,0.582,0,0.873,0c0.193,0,0.389,0,0.582,0c0-0.485,0-0.972,0-1.455
	c0-0.583,0-1.166,0-1.747c0-0.196,0-0.389,0-0.583c0-0.292,0-0.583,0-0.874c0-0.582,0-1.166,0-1.747c-0.193,0-0.389,0-0.582,0
	C37.854,9.608,37.561,9.608,37.271,9.608z"/>
<path fill="#211F30" d="M38.727,12.229c0,0.194,0,0.387,0,0.583c0,0.582,0,1.164,0,1.747c0,0.483,0,0.97,0,1.455
	c1.066,0,2.135,0,3.203,0c0-0.292,0-0.583,0-0.874c0-0.194,0-0.389,0-0.582c-0.291,0-0.584,0-0.873,0c-0.195,0-0.389,0-0.582,0
	c0-1.651,0-3.302,0-4.951c-0.582,0-1.166,0-1.748,0c0,0.581,0,1.166,0,1.747C38.727,11.646,38.727,11.937,38.727,12.229z"/>
<path fill="#211F30" d="M48.336,11.355c0,0.194,0,0.389,0,0.581c0,0.292,0,0.583,0,0.875c0.582,0,1.164,0,1.746,0
	c0-0.292,0-0.583,0-0.875c0-0.291,0-0.581,0-0.872c0-0.291,0-0.583,0-0.875c0-0.193,0-0.387,0-0.581c-0.582,0-1.164,0-1.746,0
	c-0.291,0-0.582,0-0.873,0c-0.195,0-0.389,0-0.584,0c0,0.581,0,1.166,0,1.747c0.195,0,0.389,0,0.584,0
	C47.754,11.355,48.045,11.355,48.336,11.355z"/>
<path fill="#211F30" d="M58.818,9.608c-0.193,0-0.389,0-0.582,0c0,0.581,0,1.166,0,1.747c0,0.291,0,0.581,0,0.874
	c0,0.194,0,0.387,0,0.583c0.291,0,0.582,0,0.873,0c0.195,0,0.389,0,0.584,0c0-0.292,0-0.583,0-0.875c0-0.192,0-0.387,0-0.581
	c0-0.582,0-1.166,0-1.747C59.4,9.608,59.109,9.608,58.818,9.608z"/>
<path fill="#853447" d="M30.574,14.559c0.291,0,0.582,0,0.873,0s0.582,0,0.873,0c0-0.583,0-1.166,0-1.747c0-0.292,0-0.583,0-0.875
	c0-0.192,0-0.387,0-0.581c-0.582,0-1.164,0-1.746,0C30.574,12.423,30.574,13.491,30.574,14.559z"/>
<path fill="#211F30" d="M46.879,12.229c0-0.292,0-0.583,0-0.874c-0.582,0-1.164,0-1.746,0c0,0.291,0,0.581,0,0.874
	c0,0.194,0,0.387,0,0.583c0.582,0,1.164,0,1.746,0C46.879,12.616,46.879,12.423,46.879,12.229z"/>
<path fill="#A24745" d="M48.336,12.812c0-0.292,0-0.583,0-0.875c0-0.192,0-0.387,0-0.581c-0.291,0-0.582,0-0.873,0
	c-0.195,0-0.389,0-0.584,0c0,0.291,0,0.581,0,0.874c0,0.194,0,0.387,0,0.583c-0.582,0-1.164,0-1.746,0c0,0.582,0,1.164,0,1.747
	c0.582,0,1.164,0,1.746,0c0,0.097,0,0.193,0,0.291c0.002,0.388,0,0.777,0,1.164c0.293,0,0.584,0,0.875,0c0.193,0,0.387,0,0.582,0
	c0-0.194,0-0.387,0-0.583c0-0.291,0-0.581,0-0.872c0.582,0,1.164,0,1.746,0c0-0.583,0-1.166,0-1.747
	C49.5,12.812,48.918,12.812,48.336,12.812z"/>
<path fill="#211F30" d="M45.133,12.812c-0.291,0-0.582,0-0.873,0c-0.193,0-0.389,0-0.582,0c-0.291,0-0.584,0-0.875,0
	s-0.582,0-0.873,0c0,0.582,0,1.164,0,1.747c1.068,0,2.137,0,3.203,0C45.133,13.976,45.133,13.394,45.133,12.812z"/>
<path fill="#211F30" d="M50.082,12.812c0,0.582,0,1.164,0,1.747c0.584,0,1.166,0,1.748,0c0-0.583,0-1.166,0-1.747
	C51.248,12.812,50.666,12.812,50.082,12.812z"/>
<path fill="#211F30" d="M56.488,14.559c0.584,0,1.164,0,1.748,0c0-0.583,0-1.166,0-1.747c-0.584,0-1.164,0-1.748,0
	C56.488,13.394,56.488,13.976,56.488,14.559z"/>
<path fill="#853447" d="M8.152,14.559c0,0.291,0,0.582,0,0.872c0,0.196,0,0.389,0,0.583c0.485,0,0.971,0,1.456,0v0
	c0.291,0,0.584,0,0.873,0c0.195,0,0.389,0,0.584,0v0c0.582,0,1.163,0,1.745,0c0-0.292,0-0.583,0-0.874c0-0.194,0-0.389,0-0.582
	c-0.582,0-1.164,0-1.746,0c-0.291,0-0.584,0-0.875,0c-0.193,0-0.387,0-0.58,0c-0.293,0-0.584,0-0.873,0
	C8.541,14.559,8.348,14.559,8.152,14.559z"/>
<path fill="#853447" d="M22.203,16.014c0.291,0,0.584,0,0.873,0c0.195,0,0.389,0,0.584,0v0c0.266,0,0.532,0,0.799,0
	c0.389,0,0.775,0,1.164,0c0.098,0,0.195,0,0.293,0c0-0.292,0-0.583,0-0.874c0-0.194,0-0.389,0-0.582c-0.293,0-0.584,0-0.875,0
	c-0.68,0-1.359,0-2.039,0s-1.357,0-2.037,0c0,0.193,0,0.387,0,0.582c0,0.291,0,0.581,0,0.874
	C21.378,16.014,21.791,16.014,22.203,16.014L22.203,16.014z"/>
<path fill="#211F30" d="M48.336,15.431c0,0.196,0,0.389,0,0.583c0.582,0,1.164,0,1.746,0c0-0.292,0-0.583,0-0.874
	c0-0.194,0-0.389,0-0.582c-0.582,0-1.164,0-1.746,0C48.336,14.85,48.336,15.141,48.336,15.431z"/>
<path fill="#211F30" d="M51.83,15.431c0,0.196,0,0.389,0,0.583c1.553,0,3.105,0,4.658,0c0-0.292,0-0.583,0-0.874
	c0-0.194,0-0.389,0-0.582c-1.553,0-3.105,0-4.658,0C51.83,14.85,51.83,15.141,51.83,15.431z"/>
<path fill="#F7F9F9" d="M11.065,17.761c0.582,0,1.163,0,1.745,0c0-0.583,0-1.164,0-1.747c-0.582,0-1.163,0-1.745,0
	C11.065,17.563,11.065,16.211,11.065,17.761z"/>
<path fill="#F7F9F9" d="M8.152,16.014c0,0.583,0,1.164,0,1.747c0.485,0,0.971,0,1.456,0c0-1.55,0-0.198,0-1.747
	C9.123,16.014,8.638,16.014,8.152,16.014z"/>
<path fill="#853447" d="M6.404,19.216c0.584,0,1.166,0,1.748,0c0,0.389,0,0.777,0,1.166c0,0.193,0,0.389,0,0.581
	c0.389,0,0.775,0,1.164,0c0.098,0,0.195,0,0.293,0c0-0.581,0-1.164,0-1.747c1.066,0,2.135,0,3.201,0c1.068,0,2.137,0,3.205,0
	c0-0.291,0-0.582,0-0.872c0-0.196,0-0.389,0-0.583c-0.293,0-0.584,0-0.875,0c-0.193,0-0.389,0-0.582,0c0-0.292,0-0.583,0-0.874
	s0-0.581,0-0.874c-0.584,0-1.164,0-1.748,0c0,0.583,0,1.164,0,1.747c-0.582,0-1.163,0-1.745,0c-0.194,0-0.39,0-0.584,0
	c-0.291,0-0.582,0-0.873,0c-0.485,0-0.971,0-1.456,0c-0.582,0-1.164,0-1.748,0c0,0.387,0,0.776,0,1.165
	C6.404,19.023,6.404,19.12,6.404,19.216z"/>
<path fill="#853447" d="M20.965,16.014c-0.584,0-1.164,0-1.748,0c0,1.068,0,2.134,0,3.202c0.584,0,1.164,0,1.748,0
	C20.965,18.148,20.965,17.082,20.965,16.014z"/>
<path fill="#F7F9F9" d="M22.203,19.216c0-1.067,0-2.135,0-3.202c-0.412,0-0.825,0-1.238,0c0,1.068,0,2.134,0,3.202
	C21.378,19.216,21.791,19.216,22.203,19.216z"/>
<path fill="#F7F9F9" d="M24.459,16.014c-0.267,0-0.533,0-0.799,0c0,1.067,0,2.135,0,3.202c0.752,0,1.503,0,2.256,0
	c0-1.068,0-2.134,0-3.202c-0.098,0-0.195,0-0.293,0C25.234,16.014,24.848,16.014,24.459,16.014z"/>
<path fill="#853447" d="M25.916,16.014c0,1.068,0,2.134,0,3.202c0.291,0,0.58,0,0.871,0c0.195,0,0.389,0,0.584,0
	c0-0.582,0-1.163,0-1.747c0-0.291,0-0.582,0-0.872c0-0.194,0-0.389,0-0.583c-0.291,0-0.584,0-0.875,0
	C26.303,16.014,26.107,16.014,25.916,16.014z"/>
<path fill="#853447" d="M32.32,16.014c-0.582,0-1.164,0-1.746,0c0,0.583,0,1.164,0,1.747c0.582,0,1.164,0,1.746,0
	C32.32,17.178,32.32,16.597,32.32,16.014z"/>
<path fill="#853447" d="M35.523,16.014c0,0.583,0,1.164,0,1.747c0.584,0,1.164,0,1.748,0c0-0.583,0-1.164,0-1.747
	C36.688,16.014,36.107,16.014,35.523,16.014z"/>
<path fill="#211F30" d="M37.271,16.014c0,0.583,0,1.164,0,1.747c0.389,0,0.775,0,1.164,0c0.098,0,0.193,0,0.291,0
	c0-0.583,0-1.164,0-1.747c-0.193,0-0.389,0-0.582,0C37.854,16.014,37.561,16.014,37.271,16.014z"/>
<path fill="#A24745" d="M45.133,16.014c0,0.583,0,1.164,0,1.747c0.582,0,1.164,0,1.746,0c0-0.583,0-1.164,0-1.747
	C46.297,16.014,45.715,16.014,45.133,16.014z"/>
<path fill="#211F30" d="M46.879,16.014c0,0.583,0,1.164,0,1.747c0.293,0,0.584,0,0.875,0c0.193,0,0.387,0,0.582,0
	c0-0.583,0-1.164,0-1.747c-0.195,0-0.389,0-0.582,0C47.463,16.014,47.172,16.014,46.879,16.014z"/>
<path fill="#211F30" d="M4.658,19.216c0.582,0,1.164,0,1.746,0c0-0.096,0-0.193,0-0.291c0-0.389,0-0.777,0-1.165
	c-0.289,0-0.582,0-0.873,0c-0.193,0-0.389,0-0.582,0c-0.291,0-0.582,0-0.873,0s-0.582,0-0.875,0c0.002,0.292,0,0.583,0,0.874
	c0,0.194,0,0.389,0,0.582c0.195,0,0.389,0,0.584,0C4.076,19.216,4.367,19.216,4.658,19.216z"/>
<path fill="#A24745" d="M43.678,17.761c-0.584,0-1.166,0-1.748,0c0,0.292,0,0.583,0,0.874c0,0.194,0,0.389,0,0.582
	c0.582,0,1.164,0,1.748,0c0-0.193,0-0.387,0-0.582C43.678,18.344,43.678,18.054,43.678,17.761z"/>
<path fill="#211F30" d="M44.26,17.761c-0.193,0-0.389,0-0.582,0c0,0.292,0,0.583,0,0.874c0,0.194,0,0.389,0,0.582
	c1.066,0,2.135,0,3.201,0c0-0.291,0-0.582,0-0.872c0-0.196,0-0.389,0-0.583c-0.582,0-1.164,0-1.746,0
	C44.842,17.761,44.551,17.761,44.26,17.761z"/>
<path fill="#211F30" d="M3.201,19.216c-0.58,0-1.164,0-1.746,0c0,0.583,0,1.166,0,1.747c0.582,0,1.166,0,1.746,0
	C3.201,20.382,3.201,19.799,3.201,19.216z"/>
<path fill="#BA6E54" d="M8.152,30.574c0-0.195,0-0.389,0-0.584c0-0.29,0-0.58,0-0.873c0.195,0,0.389,0,0.584,0
	c0.289,0,0.58,0,0.873,0c0-0.581,0-1.164,0-1.746c0.58,0,1.164,0,1.746,0c0-0.389,0-0.777,0-1.166c0-0.096,0-0.193,0-0.29
	c-0.582,0-1.166,0-1.746,0c0-1.651,0-3.3,0-4.951c-0.098,0-0.195,0-0.293,0c-0.389,0-0.775,0-1.164,0c0-0.192,0-0.388,0-0.581
	c0-0.389,0-0.777,0-1.166c-0.582,0-1.164,0-1.748,0c-0.582,0-1.164,0-1.746,0c-0.291,0-0.582,0-0.873,0c-0.195,0-0.389,0-0.584,0
	c0,0.583,0,1.166,0,1.747c-0.58,0-1.164,0-1.746,0c0,1.36,0,2.719,0,4.077c0,1.359,0,2.718,0,4.076c0.582,0,1.166,0,1.746,0
	c0,0.194,0,0.389,0,0.583c0,0.29,0.002,0.583,0,0.874c0.777,0,1.555,0,2.33,0C6.404,30.574,7.279,30.574,8.152,30.574z
	 M4.076,27.371c-0.291,0-0.582,0-0.875,0c0-1.65,0-3.3,0-4.951c0.195,0,0.389,0,0.584,0c0.291,0,0.582,0,0.873,0
	c0-0.193,0-0.388,0-0.582c0-0.291,0-0.582,0-0.874c0.582,0,1.164,0,1.746,0c0,0.194,0,0.389,0,0.583c0,0.291,0,0.583,0,0.873
	c0.584,0,1.166,0,1.748,0c0,0.777,0,1.554,0,2.331c0,0.874,0,1.747,0,2.62c-0.582,0-1.164,0-1.748,0c0,0.582,0,1.165,0,1.746
	c-0.582,0-1.164,0-1.746,0c0-0.581,0-1.164,0-1.746C4.463,27.371,4.27,27.371,4.076,27.371z"/>
<path fill="#853447" d="M17.76,20.963c0-0.192,0-0.388,0-0.581c0-0.389,0-0.777,0-1.166c-0.58,0-1.164,0-1.744,0
	c0,0.583,0,1.166,0,1.747C16.596,20.963,17.18,20.963,17.76,20.963z"/>
<path fill="#A24745" d="M19.217,19.216c0,0.583,0,1.166,0,1.747c0.584,0,1.164,0,1.748,0c0-0.581,0-1.164,0-1.747
	C20.381,19.216,19.801,19.216,19.217,19.216z"/>
<path fill="#853447" d="M23.66,19.216C23.66,19.217,23.66,19.217,23.66,19.216c-0.195,0.001-0.389,0.001-0.584,0.001
	c-0.289,0-0.582,0-0.873,0c0,0,0,0,0-0.001c-0.412,0-0.825,0-1.238,0c0,0.583,0,1.166,0,1.747c1.648,0,3.299,0,4.951,0
	c0-0.581,0-1.164,0-1.747C25.163,19.216,24.412,19.216,23.66,19.216z"/>
<path fill="#A24745" d="M25.916,19.216c0,0.583,0,1.166,0,1.747c0.291,0,0.58,0,0.871,0c0.195,0,0.389,0,0.584,0
	c0-0.581,0-1.164,0-1.747c-0.195,0-0.389,0-0.584,0C26.496,19.216,26.207,19.216,25.916,19.216z"/>
<path fill="#853447" d="M35.523,19.216c-0.582,0-1.164,0-1.746,0c0,0.583,0,1.166,0,1.747c0.582,0,1.164,0,1.746,0
	C35.523,20.382,35.523,19.799,35.523,19.216z"/>
<path fill="#211F30" d="M41.057,19.216c-0.195,0-0.389,0-0.582,0c0,0.583,0,1.166,0,1.747c1.066,0,2.135,0,3.203,0
	c0-0.581,0-1.164,0-1.747c-0.584,0-1.166,0-1.748,0C41.639,19.216,41.346,19.216,41.057,19.216z"/>
<path fill="#211F30" d="M1.455,20.963c-0.291,0-0.582,0-0.873,0c-0.193,0-0.389,0-0.582,0c0,1.36,0,2.719,0,4.077
	c0,0.389,0,0.775,0,1.164c0,0.293,0,0.584,0,0.875c0,0.582,0,1.164,0,1.746c0,0.098,0,0.195,0,0.291c0.289,0,0.582,0,0.873,0
	c0.193,0,0.389,0,0.582,0c0-1.358,0-2.717,0-4.076C1.455,23.682,1.455,22.324,1.455,20.963z"/>
<path fill="#211F30" d="M6.404,21.546c0-0.194,0-0.389,0-0.583c-0.582,0-1.164,0-1.746,0c0,0.292,0,0.583,0,0.874
	c0,0.194,0,0.389,0,0.582c0.582,0,1.164,0,1.746,0C6.404,22.129,6.404,21.837,6.404,21.546z"/>
<path fill="#853447" d="M11.355,25.915c0-0.777,0-1.553,0-2.33c0-0.776,0-1.553,0-2.329c0-0.098,0-0.193,0-0.292
	c-0.582,0-1.166,0-1.746,0c0,1.651,0,3.3,0,4.951C10.189,25.915,10.773,25.915,11.355,25.915z"/>
<path fill="#A24745" d="M35.523,20.963c-0.582,0-1.164,0-1.746,0c0,0.194,0,0.389,0,0.583c0,0.291,0,0.583,0,0.873
	c0.582,0,1.164,0,1.746,0c0-0.29,0-0.582,0-0.873C35.523,21.352,35.523,21.158,35.523,20.963z"/>
<path fill="#853447" d="M37.271,21.546c0-0.194,0-0.389,0-0.583c-0.584,0-1.164,0-1.748,0c0,0.194,0,0.389,0,0.583
	c0,0.291,0,0.583,0,0.873c0.584,0,1.164,0,1.748,0C37.271,22.129,37.271,21.837,37.271,21.546z"/>
<path fill="#211F30" d="M37.854,20.963c-0.193,0-0.389,0-0.582,0c0,0.194,0,0.389,0,0.583c0,0.291,0,0.583,0,0.873
	c0.193,0,0.389,0,0.582,0c0.291,0,0.582,0,0.873,0c0,0.099,0,0.195,0,0.291c0,1.457,0,2.914,0,4.369c0,1.456,0,2.91,0,4.367
	c0,3.01,0,6.018,0,9.027c0.582,0,1.166,0,1.748,0c0-0.874,0-1.748,0-2.621c0-0.775,0-1.553,0-2.33c0-0.872,0-1.746,0-2.619
	c0-0.777,0-1.553,0-2.33c0-0.291-0.002-0.584,0-0.874c0-0.194,0-0.389,0-0.583c0-0.387,0-0.775,0-1.164c0-0.775,0-1.553,0-2.328
	c0-1.554,0-3.106,0-4.661c-0.582,0-1.166,0-1.748,0C38.436,20.963,38.145,20.963,37.854,20.963z"/>
<path fill="#853447" d="M6.404,22.419c-0.582,0-1.164,0-1.746,0c-0.291,0-0.582,0-0.873,0c-0.195,0-0.389,0-0.584,0
	c0,1.651,0,3.301,0,4.951c0.293,0,0.584,0,0.875,0c0.193,0,0.387,0,0.582,0c0.582,0,1.164,0,1.746,0
	C6.404,25.72,6.404,24.071,6.404,22.419z"/>
<path fill="#211F30" d="M8.152,27.371c0-0.873,0-1.746,0-2.62c0-0.777,0-1.554,0-2.331c-0.582,0-1.164,0-1.748,0
	c0,1.651,0,3.301,0,4.951C6.988,27.371,7.57,27.371,8.152,27.371z"/>
<path fill="#A24745" d="M38.727,27.08c0-1.455,0-2.912,0-4.369c0-0.096,0-0.192,0-0.291c-0.291,0-0.582,0-0.873,0
	c-0.193,0-0.389,0-0.582,0c-0.584,0-1.164,0-1.748,0c0,0.584,0,1.165,0,1.748c0.584,0,1.164,0,1.748,0c0,1.358,0,2.717,0,4.076
	s0,2.719,0,4.076c0,0.68,0,1.359,0,2.039c0,0.679,0,1.358,0,2.037c0,1.36,0,2.719,0,4.078c0.289,0,0.582,0,0.873,0
	c0.193,0,0.389,0,0.582,0c0-3.01,0-6.018,0-9.027C38.727,29.99,38.727,28.536,38.727,27.08z"/>
<path fill="#853447" d="M11.355,27.371c0.291,0,0.582,0,0.873,0c0.193,0,0.389,0,0.582,0c0-0.389,0-0.777,0-1.166
	c0-0.096,0-0.193,0-0.29c-0.289,0-0.582,0-0.873,0c-0.193,0-0.389,0-0.582,0c0,0.097,0,0.194,0,0.29
	C11.355,26.593,11.355,26.982,11.355,27.371z"/>
<path fill="#853447" d="M19.217,29.117c0-0.873,0-1.746,0-2.619c0-0.194,0-0.389,0-0.583c-0.193,0-0.389,0-0.58,0
	c-0.293,0-0.584,0-0.877,0c0,1.067,0,2.136,0,3.202c0.293,0,0.584,0,0.877,0C18.828,29.117,19.023,29.117,19.217,29.117z"/>
<path fill="#211F30" d="M6.404,29.117c0-0.581,0-1.164,0-1.746c-0.582,0-1.164,0-1.746,0c0,0.582,0,1.165,0,1.746
	C5.24,29.117,5.822,29.117,6.404,29.117z"/>
<path fill="#211F30" d="M11.355,27.371c-0.582,0-1.166,0-1.746,0c0,0.582,0,1.165,0,1.746c0.58,0,1.164,0,1.746,0
	C11.355,28.536,11.355,27.953,11.355,27.371z"/>
<path fill="#A24745" d="M11.355,27.371c0,0.582,0,1.165,0,1.746c-0.582,0-1.166,0-1.746,0c0,0.194,0,0.389,0,0.583
	c0,0.29,0,0.583,0,0.874c0.193,0,0.387,0,0.58,0c0.291,0,0.584,0,0.875,0s0.582,0,0.873,0s0.584,0,0.873,0c0.195,0,0.389,0,0.584,0
	c0.291,0,0.58,0,0.873,0c0.291,0,0.582,0,0.873,0s0.582,0,0.875,0c0-0.291,0-0.584,0-0.874c0-0.194,0-0.389,0-0.583
	c-0.584,0-1.166,0-1.748,0c-0.293,0-0.582,0-0.873,0c-0.195,0-0.389,0-0.584,0c0-0.581,0-1.164,0-1.746c-0.193,0-0.389,0-0.582,0
	C11.938,27.371,11.646,27.371,11.355,27.371z"/>
<path fill="#211F30" d="M3.201,29.117c-0.58,0-1.164,0-1.746,0c0,0.293,0,0.583,0,0.873c0,0.195,0,0.389,0,0.584
	c0.582,0,1.166,0,1.746,0c0.002-0.291,0-0.584,0-0.874C3.201,29.505,3.201,29.311,3.201,29.117z"/>
<path fill="#211F30" d="M16.016,32.32c0-0.582,0-1.164,0-1.746c-0.293,0-0.584,0-0.875,0s-0.582,0-0.873,0c-0.293,0-0.582,0-0.873,0
	c-0.195,0-0.389,0-0.584,0c-0.289,0-0.582,0-0.873,0s-0.582,0-0.873,0s-0.584,0-0.875,0c-0.193,0-0.387,0-0.58,0
	c0-0.291,0-0.584,0-0.874c0-0.194,0-0.389,0-0.583c-0.293,0-0.584,0-0.873,0c-0.195,0-0.389,0-0.584,0c0,0.293,0,0.583,0,0.873
	c0,0.195,0,0.389,0,0.584c-0.873,0-1.748,0-2.621,0c-0.775,0-1.553,0-2.33,0c0,0.582,0,1.164,0,1.746c0.293,0,0.584,0,0.875,0
	c0.193,0,0.387,0,0.582,0c0.389,0,0.777,0,1.164,0c0.195,0,0.389,0,0.582,0c0,2.718,0,5.437,0,8.154c0.291,0,0.584,0,0.875,0
	s0.582,0,0.873,0c0-2.718,0-5.437,0-8.154C10.773,32.32,13.395,32.32,16.016,32.32z"/>
<path fill="#853447" d="M16.016,30.574c0.58,0,1.164,0,1.744,0c0-0.291,0-0.584,0-0.874c0-0.194,0-0.389,0-0.583
	c-0.58,0-1.164,0-1.744,0c0,0.194,0,0.389,0,0.583C16.016,29.99,16.016,30.283,16.016,30.574z"/>
<path fill="#853447" d="M32.32,29.117c0,0.293,0,0.583,0,0.873c0,0.195,0,0.389,0,0.584c0.291,0,0.582,0,0.875,0
	c0.193,0,0.387,0,0.582,0c0-0.291,0-0.584,0-0.874c0-0.194,0-0.389,0-0.583c-0.291,0-0.582,0-0.875,0
	C32.709,29.117,32.514,29.117,32.32,29.117z"/>
<path fill="#A24745" d="M16.016,32.32c0.58,0,1.164,0,1.744,0c0-0.582,0-1.164,0-1.746c-0.58,0-1.164,0-1.744,0
	C16.016,31.156,16.016,31.738,16.016,32.32z"/>
<path fill="#A24745" d="M9.609,40.474c0-1.164,0-2.33,0-3.494c0-1.068,0-2.137,0-3.203c2.037,0,4.076,0,6.113,0
	c0.098,0,0.195,0,0.293,0c0-0.292-0.002-0.582,0-0.873c0-0.195,0-0.389,0-0.584c-2.621,0-5.242,0-7.863,0c0,2.718,0,5.437,0,8.154
	c0.291,0,0.584,0,0.873,0C9.221,40.474,9.414,40.474,9.609,40.474z"/>
<path fill="#853447" d="M32.32,32.32c0,1.068,0,2.137,0,3.203c0.291,0,0.582,0,0.875,0c0.193,0,0.387,0,0.582,0
	c0-1.066,0-2.135,0-3.203c-0.195,0-0.389,0-0.582,0C32.902,32.32,32.611,32.32,32.32,32.32z"/>
<path fill="#853447" d="M22.711,33.777c0,0.582,0,1.164,0,1.746c0.291,0,0.584,0,0.875,0c0.193,0,0.389,0,0.582,0
	c0-0.582,0-1.164,0-1.746c-0.193,0-0.389,0-0.582,0C23.295,33.777,23.002,33.777,22.711,33.777z"/>
<path fill="#853447" d="M14.559,36.98c-0.584,0-1.164,0-1.748,0c0,0.582,0,1.164,0,1.746c0.584,0,1.164,0,1.748,0
	C14.559,38.144,14.559,37.562,14.559,36.98z"/>
<path fill="#853447" d="M24.168,38.726c0-0.582,0-1.164,0-1.746c-0.389,0-0.777,0-1.166,0c-0.096,0-0.191,0-0.291,0
	c0,0.582,0,1.164,0,1.746c0.195,0,0.389,0,0.584,0C23.586,38.726,23.875,38.726,24.168,38.726z"/>
<path fill="#211F30" d="M33.777,36.98c-0.291,0-0.582,0-0.875,0c-0.193,0-0.389,0-0.582,0c0,1.164,0,2.33,0,3.494
	c0,0.193,0,0.389,0,0.582c0,0.291,0,0.582,0,0.874c-2.717,0-5.436,0-8.152,0c0-0.292,0-0.583,0-0.874c0-0.777,0-1.553,0-2.33
	c-0.293,0-0.582,0-0.873,0c-0.195,0-0.389,0-0.584,0c0,0.584,0,1.164,0,1.748c0,0.193,0,0.389,0,0.582c0,0.291,0,0.582,0,0.874
	c-2.717,0-5.436,0-8.152,0c0-0.292,0-0.583,0-0.874c0-0.777,0-1.553,0-2.33c-0.584,0-1.164,0-1.748,0c0,0.584,0,1.164,0,1.748
	c0,0.193,0,0.389,0,0.582c0,0.291,0,0.582,0,0.874c-1.066,0-2.135,0-3.201,0c0,0.581,0,1.165,0,1.745c0.291,0,0.58,0,0.871,0
	c0.293,0,0.584,0,0.875,0c0,0.389,0,0.777,0,1.166c0,0.097,0,0.195,0,0.291c0.291,0,0.582,0,0.873,0c0.193,0,0.389,0,0.582,0
	c0-0.194,0-0.389,0-0.582c0-0.291,0-0.582,0-0.875c0.1,0,0.195,0,0.291,0c0.389,0,0.777,0,1.166,0c0.387,0,0.775,0,1.164,0
	c0.775,0,1.553,0,2.328,0c0,0.195,0,0.389,0,0.584c0,0.291,0,0.582,0,0.873c0.293,0,0.584,0,0.877,0c0.191,0,0.387,0,0.58,0
	c0-0.194,0-0.389,0-0.582c0-0.291,0-0.582,0-0.875c2.717,0,5.436,0,8.154,0c0,0.195,0,0.389,0,0.584c0,0.291,0,0.582,0,0.873
	c0.193,0,0.389,0,0.582,0c0.389,0,0.775,0,1.164,0c0-0.194,0-0.389,0-0.582c0-0.291,0-0.582,0-0.875c1.553,0,3.105,0,4.66,0
	c0,0.195,0,0.389,0,0.584c0,0.291,0,0.582,0,0.873c0.582,0,1.164,0,1.746,0c0-0.291,0-0.582,0-0.873c0-0.195,0-0.389,0-0.584
	c0.291,0,0.584,0,0.873,0c0.291,0,0.584,0,0.875,0c0-0.58,0-1.164,0-1.745c-1.164,0-2.33,0-3.494,0
	C33.777,40.279,33.777,38.63,33.777,36.98z"/>
<path fill="#A24745" d="M37.271,40.474c-0.584,0-1.164,0-1.748,0c0-1.164,0-2.33,0-3.494c-0.582,0-1.164,0-1.746,0
	c0,1.65,0,3.299,0,4.95c1.164,0,2.33,0,3.494,0c0-0.194,0-0.389,0-0.583C37.271,41.056,37.271,40.765,37.271,40.474z"/>
<path fill="#A24745" d="M14.559,41.93c2.717,0,5.436,0,8.152,0c0-0.292,0-0.583,0-0.874c0-0.193,0-0.389,0-0.582
	c-2.232,0-4.463,0-6.695,0c0-0.291,0-0.584,0-0.874s0-0.583,0-0.874c-0.293,0-0.584,0-0.875,0c-0.193,0-0.389,0-0.582,0
	c0,0.777,0,1.553,0,2.33C14.559,41.347,14.559,41.638,14.559,41.93z"/>
<path fill="#A24745" d="M24.168,41.93c2.717,0,5.436,0,8.152,0c0-0.292,0-0.583,0-0.874c0-0.193,0-0.389,0-0.582
	c-2.135,0-4.271,0-6.404,0c0-0.291,0-0.584,0-0.874s0-0.583,0-0.874c-0.293,0-0.584,0-0.875,0s-0.582,0-0.873,0
	c0,0.777,0,1.553,0,2.33C24.168,41.347,24.168,41.638,24.168,41.93z"/>
<path fill="#211F30" d="M9.609,40.474c-0.195,0-0.389,0-0.584,0c-0.289,0-0.582,0-0.873,0c0,0.291,0,0.582,0,0.873
	c0,0.194,0,0.389,0,0.583c0.291,0,0.584,0,0.873,0c0.195,0,0.389,0,0.584,0c0-0.292,0-0.583,0-0.874
	C9.609,40.863,9.609,40.667,9.609,40.474z"/>
<path fill="#A24745" d="M12.811,41.056c0-0.193,0-0.389,0-0.582c-0.582,0-1.164,0-1.746,0c-0.291,0-0.584,0-0.875,0
	c-0.193,0-0.387,0-0.58,0c0,0.193,0,0.389,0,0.582c0,0.291,0,0.582,0,0.874c1.066,0,2.135,0,3.201,0
	C12.811,41.638,12.811,41.347,12.811,41.056z"/>
<path fill="#211F30" d="M37.271,40.474c0,0.291,0,0.582,0,0.873c0,0.194,0,0.389,0,0.583c0.389,0,0.775,0,1.164,0
	c0.098,0,0.193,0,0.291,0c0-0.292,0-0.583,0-0.874c0-0.193,0-0.389,0-0.582c-0.193,0-0.389,0-0.582,0
	C37.854,40.474,37.561,40.474,37.271,40.474z"/>
<path fill="#A24745" d="M17.76,43.675c-0.775,0-1.553,0-2.328,0c-0.389,0-0.777,0-1.164,0c-0.389,0-0.777,0-1.166,0
	c-0.096,0-0.191,0-0.291,0c0,0.293,0,0.584,0,0.875c0,0.193,0,0.388,0,0.582c0.777,0,1.553,0,2.33,0c0.389,0,0.777,0,1.166,0
	c0.387,0,0.775,0,1.164,0c0.098,0,0.193,0,0.289,0c0-0.291,0-0.582,0-0.873C17.76,44.064,17.76,43.871,17.76,43.675z"/>
<path fill="#A24745" d="M33.777,43.675c-1.555,0-3.107,0-4.66,0c0,0.293,0,0.584,0,0.875c0,0.193,0,0.388,0,0.582
	c1.553,0,3.105,0,4.66,0c0-0.291,0-0.582,0-0.873C33.777,44.064,33.777,43.871,33.777,43.675z"/>
<path fill="#211F30" d="M16.307,45.132c-0.389,0-0.777,0-1.166,0c-0.777,0-1.553,0-2.33,0c0,0.583,0,1.164,0,1.748
	c0.777,0,1.553,0,2.33,0c0.875,0,1.748,0,2.619,0c0-0.584,0-1.165,0-1.748c-0.096,0-0.191,0-0.289,0
	C17.082,45.132,16.693,45.132,16.307,45.132z"/>
<path fill="#211F30" d="M29.117,46.88c1.553,0,3.105,0,4.66,0c0-0.584,0-1.165,0-1.748c-1.555,0-3.107,0-4.66,0
	C29.117,45.715,29.117,46.296,29.117,46.88z"/>
<path fill="#211F30" d="M23.66,16.014c-0.195,0-0.389,0-0.584,0c-0.289,0-0.582,0-0.873,0v0c0,1.067,0,2.135,0,3.202
	c0,0,0,0,0,0.001c0.291,0,0.584,0,0.873,0c0.195,0,0.389,0,0.584,0c0,0,0,0,0-0.001C23.66,18.149,23.66,17.082,23.66,16.014
	L23.66,16.014z"/>
<path fill="#211F30" d="M11.065,16.014c-0.195,0-0.389,0-0.584,0c-0.289,0-0.582,0-0.873,0v0c0,1.549,0,0.197,0,1.747
	c0.291,0,0.582,0,0.873,0c0.194,0,0.39,0,0.584,0C11.065,16.211,11.065,17.563,11.065,16.014L11.065,16.014z"/>
</svg>
